<svg xmlns="http://www.w3.org/2000/svg" version="1.1" style="background-color:#ffffff" width="80mm" height="110mm"><rect x="0" width="80mm" height="110mm" fill="none" stroke="black" stroke-width="1.0"/><g transform="scale( 0.5029173387096775 0.5029173387096775) translate( -220.2441 -288.86615 )"><path d="M431,333,431,357,440,380,442,404,448,428,453,452,456,476,459,500,465,525,467,549,467,573,470,597,470,621,470,646,470,671,468,696,468,720,465,743,462,767,447,791,429,815,387,839,369,863,366,887,372,911,395,935,434,935" stroke="black" stroke-width="1.0" fill="none" />
<path d="M412,913,436,912,454,906" stroke="black" stroke-width="1.0" fill="none" />
<path d="M448,893,472,895,478,874" stroke="black" stroke-width="1.0" fill="none" />
<path d="M471,909,477,891,474,876,501,848,498,825" stroke="black" stroke-width="1.0" fill="none" />
<path d="M519,827,528,851,546,860" stroke="black" stroke-width="1.0" fill="none" />
<path d="M548,827,552,784,528,799" stroke="black" stroke-width="1.0" fill="none" />
<path d="M519,831,540,879,564,876,588,877" stroke="black" stroke-width="1.0" fill="none" />
<path d="M624,899,619,905,613,930" stroke="black" stroke-width="1.0" fill="none" />
<path d="M636,930,659,940,683,940" stroke="black" stroke-width="1.0" fill="none" />
<path d="M640,858,616,837,592,818,568,775" stroke="black" stroke-width="1.0" fill="none" />
<path d="M497,786,473,783,440,804,416,828,392,840,369,870" stroke="black" stroke-width="1.0" fill="none" />
<path d="M370,904,394,934,422,930,446,936,471,938" stroke="black" stroke-width="1.0" fill="none" />
<path d="M430,993,455,978,479,987,443,982,420,1012,462,1035" stroke="black" stroke-width="1.0" fill="none" />
<path d="M470,1034,446,1025,422,1010" stroke="black" stroke-width="1.0" fill="none" />
<path d="M418,1004,442,995,443,996,455,993,481,1018" stroke="black" stroke-width="1.0" fill="none" />
<path d="M557,980,560,1004,558,1028,540,1031,543,1034,555,1012,561,980,585,1008" stroke="black" stroke-width="1.0" fill="none" />
<path d="M567,1032,585,1008,564,984" stroke="black" stroke-width="1.0" fill="none" />
<path d="M568,939,592,939" stroke="black" stroke-width="1.0" fill="none" />
<path d="M634,1042,610,1045,586,1057,562,1066,537,1073,512,1074,487,1075,463,1072,439,1072,416,1066,392,1059,368,1059" stroke="black" stroke-width="1.0" fill="none" />
<path d="M362,946,386,943" stroke="black" stroke-width="1.0" fill="none" />
<path d="M480,837,467,835,463,862,450,853,447,887,456,860,483,848,471,823,492,811,495,787" stroke="black" stroke-width="1.0" fill="none" />
<path d="M478,787,469,787,469,811,451,835,443,859,431,883,453,907,465,925,490,928" stroke="black" stroke-width="1.0" fill="none" />
<path d="M590,929,599,919,586,895,565,877,556,843,560,822,556,798,541,768,534,744,534,720,537,696,534,673,546,649,546,623,548,587,551,563" stroke="black" stroke-width="1.0" fill="none" />
<path d="M553,558,541,582,544,605,541,640,547,663,547,686,547,710,547,734,547,755,553,780,526,807,529,831,535,834,538,858,538,876,526,882,545,889,536,914,549,917,551,927,575,918,581,908,603,920" stroke="black" stroke-width="1.0" fill="none" />
<path d="M643,914,620,899,623,924,644,917,653,893,648,868,626,844,593,821,578,796,566,772,562,748,561,724,561,700,560,675,560,651,560,627,564,604,567,580,567,556,573,531,576,506,582,482,588,459,594,435,601,411,607,387,614,363,615,339" stroke="black" stroke-width="1.0" fill="none" />
<path d="M603,338,577,343,574,337,558,338,533,339,508,339,483,345,460,342" stroke="black" stroke-width="1.0" fill="none" />
<path d="M477,331,453,331,429,337" stroke="black" stroke-width="1.0" fill="none" />
</g></svg>