<svg xmlns="http://www.w3.org/2000/svg" version="1.1" width="80mm" height="110mm"><rect x="0" width="80mm" height="110mm" fill="none" stroke="black" stroke-width="1.0"/><g transform="scale( 0.2753278145695364 0.2753278145695364) translate( 32.7559 30.13385 )"><path d="M665,47,626,70,613,94,598,117,589,141,556,165,551,188,506,203,506,227,503,251,500,275,497,299,494,323,491,348,492,371,489,395,486,418,482,443,482,467,479,490,476,514,476,538,472,563,469,587,469,610,466,634,462,659,459,684,459,708,456,732,453,756" stroke="black" stroke-width="0.1" fill="none" />
<path d="M470,743,473,719,476,694,477,670,481,645,484,621,484,597,486,573,488,550,491,526,492,501,495,478,499,454,499,431,502,407,506,384,509,360,509,335,512,311,514,286,517,262,517,238,551,214,575,214,588,191,600,180,588,155,606,148,609,141,582,147,558,156" stroke="black" stroke-width="0.1" fill="none" />
<path d="M574,156,613,169,592,192,583,216,578,241,578,264,575,289,573,313,573,337,569,361,566,385,566,409,563,433,560,456,560,480,557,504,554,529,554,553,551,578,548,602,554,627,593,633,600,659,624,665,648,659,672,647,697,614,736,613" stroke="black" stroke-width="0.1" fill="none" />
<path d="M691,655,697,649,713,634,719,611,723,587,723,563,726,539,728,515,731,491,731,467,734,443,737,419,737,395,740,371,743,347,746,322,746,298,749,274,752,250,776,231,752,240" stroke="black" stroke-width="0.1" fill="none" />
<path d="M735,242,735,267,733,290,730,314,727,339,726,363,723,387,720,411,717,435,713,460,713,484,710,508,707,532,708,556,704,580,701,604,696,632,676,657" stroke="black" stroke-width="0.1" fill="none" />
<path d="M671,674,694,632,669,660,678,642,690,618,694,594,694,570,697,546,701,521,705,497,705,473,708,449,711,426,714,402,714,378,717,354,720,329,723,305,723,281,726,256,729,229,725,205,726,175,702,163,678,154" stroke="black" stroke-width="0.1" fill="none" />
<path d="M714,160,714,148,705,125" stroke="black" stroke-width="0.1" fill="none" />
<path d="M746,186,770,198,791,208,797,211,779,245,777,269,777,293,773,317,770,341,768,365,768,389,765,413,761,438,758,462,757,487,754,511,750,534,747,558,747,582,744,605,741,623,741,647,738,674,735,698,735,721,733,745,729,768,696,802,670,817,695,805,719,793,743,796" stroke="black" stroke-width="0.1" fill="none" />
<path d="M745,763,746,738,750,714,753,690,756,666,756,641,760,617,764,593,767,568,770,544,769,520,773,496,776,472,779,449,779,425,782,402,785,378,785,355,787,332,790,308,790,285,794,261,797,237,752,204,731,180,698,164,704,139,683,105,686,95,689,86,671,74,656,68,653,56" stroke="black" stroke-width="0.1" fill="none" />
<path d="M666,57,686,48,707,73,713,97,725,120,730,131,754,139,766,153,771,176,782,182,807,182,821,191,821,216,818,240,818,265,815,289,813,313,813,337,810,361,807,386,807,410,804,434,801,458,802,482,799,506,796,529,797,553,794,577,791,601,791,624,788,648,785,672,785,696,782,720,779,744,779,767,777,791,777,815,774,839,771,864,771,888,774,911,774,935,773,960,773,985,769,1010,769,1034,772,1058,773,1082,772,1106,772,1130,772,1154,772,1177,772,1202,760,1227" stroke="black" stroke-width="0.1" fill="none" />
<path d="M716,1214,691,1216,667,1219" stroke="black" stroke-width="0.1" fill="none" />
<path d="M639,1248,664,1208,688,1196,713,1174,713,1175,677,1199,656,1223,641,1247,641,1271,638,1295,644,1320,649,1343,652,1368,645,1392" stroke="black" stroke-width="0.1" fill="none" />
<path d="M635,1405,611,1405,587,1396" stroke="black" stroke-width="0.1" fill="none" />
<path d="M627,1131,651,1141,675,1132,699,1123,723,1093" stroke="black" stroke-width="0.1" fill="none" />
<path d="M691,1129,716,1105,728,1081,731,1056,731,1033,730,1009,727,985,726,962,717,950,692,947,668,941,644,938,620,952" stroke="black" stroke-width="0.1" fill="none" />
<path d="M632,937,622,961,625,986,625,1010,634,1033,636,1057,636,1080,630,1104,625,1128" stroke="black" stroke-width="0.1" fill="none" />
<path d="M580,1101,577,1077,560,1071,537,1065,513,1062" stroke="black" stroke-width="0.1" fill="none" />
<path d="M511,1065,511,1089,514,1107,537,1113,561,1118,585,1124" stroke="black" stroke-width="0.1" fill="none" />
<path d="M466,1098,442,1096" stroke="black" stroke-width="0.1" fill="none" />
<path d="M438,1089,462,1084" stroke="black" stroke-width="0.1" fill="none" />
<path d="M445,1111,421,1105,397,1100" stroke="black" stroke-width="0.1" fill="none" />
<path d="M393,1093,418,1099,442,1102,466,1108" stroke="black" stroke-width="0.1" fill="none" />
<path d="M475,1041,450,1034,425,1030,401,1027,378,1021,353,1015,329,1012,305,1006" stroke="black" stroke-width="0.1" fill="none" />
<path d="M296,1001,319,998,343,1004,366,1007,390,1011,414,1017,439,1023,463,1030" stroke="black" stroke-width="0.1" fill="none" />
<path d="M454,1017,430,1014,407,1008,383,1005,358,1002,335,996,311,993,287,986,281,1001,278,995" stroke="black" stroke-width="0.1" fill="none" />
<path d="M264,1038,288,1019,312,1022,337,1029,361,1035,384,1042,409,1048,433,1051" stroke="black" stroke-width="0.1" fill="none" />
<path d="M396,1062,344,1086" stroke="black" stroke-width="0.1" fill="none" />
<path d="M312,1133,288,1157,280,1181,277,1205,281,1229,278,1254,285,1277,306,1264,329,1264,353,1261" stroke="black" stroke-width="0.1" fill="none" />
<path d="M281,1160,305,1148,329,1130,353,1125,378,1124,402,1115,426,1120,449,1127,473,1136,476,1150,485,1165,509,1165,532,1151,556,1157,580,1159,589,1174,582,1199,579,1224,582,1248,582,1272,588,1296,585,1319,586,1343,586,1366,583,1390,590,1372" stroke="black" stroke-width="0.1" fill="none" />
<path d="M750,1230,741,1229,725,1208,726,1184,726,1160" stroke="black" stroke-width="0.1" fill="none" />
<path d="M706,923,682,921,658,915,645,915,632,890,676,866,727,850,702,853,678,865,654,876,629,889" stroke="black" stroke-width="0.1" fill="none" />
<path d="M573,937,549,934,524,919,501,916" stroke="black" stroke-width="0.1" fill="none" />
<path d="M509,914,503,938,503,962,503,986,505,1010,517,1035,529,1037,554,1037,578,1031" stroke="black" stroke-width="0.1" fill="none" />
<path d="M577,1031,583,1007,583,983,586,959,568,935" stroke="black" stroke-width="0.1" fill="none" />
<path d="M583,883,559,879,535,876,511,872,486,868,462,865,435,853,411,847,386,853,362,847" stroke="black" stroke-width="0.1" fill="none" />
<path d="M333,821,309,817,285,829,261,832,237,829" stroke="black" stroke-width="0.1" fill="none" />
<path d="M219,826,243,823,273,832,297,837,321,840,330,840,354,837,362,841,387,844,414,857,439,861,462,858,486,864,510,863,535,866" stroke="black" stroke-width="0.1" fill="none" />
<path d="M582,865,558,863,534,861,510,857,486,854,462,847,437,844,413,841,389,837,364,834,340,828,316,825,292,827" stroke="black" stroke-width="0.1" fill="none" />
<path d="M289,867,265,891,265,915,267,939,276,963,266,990,269,1026,266,1051,272,1075,273,1099,294,1104,317,1098,341,1087,365,1072,389,1064,413,1064,437,1059" stroke="black" stroke-width="0.1" fill="none" />
<path d="M450,921,426,906,403,915,379,899,355,905,331,893,307,872,282,872,259,899" stroke="black" stroke-width="0.1" fill="none" />
<path d="M302,871,332,895" stroke="black" stroke-width="0.1" fill="none" />
<path d="M435,909,462,933,465,957,468,981,469,1004" stroke="black" stroke-width="0.1" fill="none" />
<path d="M486,718,489,694,492,670,493,646,493,624,508,600,515,576,515,552,518,528,521,505,521,481,524,457,524,433,526,409,529,385,529,361,532,338,535,314,535,289,539,265,548,241,539,249" stroke="black" stroke-width="0.1" fill="none" />
<path d="M557,244,557,268,555,292,555,315,552,339,549,363,549,387,546,410,544,434,544,458,542,482,538,506,538,530,534,554,531,579,528,609,544,645,574,670,596,680,620,682,644,683,668,668" stroke="black" stroke-width="0.1" fill="none" />
<path d="M603,585,580,583,574,612" stroke="black" stroke-width="0.1" fill="none" />
<path d="M563,616,587,636" stroke="black" stroke-width="0.1" fill="none" />
<path d="M555,615,578,642,614,649,638,643,662,632" stroke="black" stroke-width="0.1" fill="none" />
<path d="M626,560,599,572,574,574" stroke="black" stroke-width="0.1" fill="none" />
<path d="M578,559,602,556" stroke="black" stroke-width="0.1" fill="none" />
<path d="M635,529,659,523,666,503" stroke="black" stroke-width="0.1" fill="none" />
<path d="M647,502,647,514,637,538,622,577,640,601,664,610,676,597,673,621" stroke="black" stroke-width="0.1" fill="none" />
<path d="M670,579,646,576,676,552" stroke="black" stroke-width="0.1" fill="none" />
<path d="M611,461,635,461,644,446,668,434" stroke="black" stroke-width="0.1" fill="none" />
<path d="M662,376,686,376" stroke="black" stroke-width="0.1" fill="none" />
<path d="M688,362,664,362,639,374,615,374,591,377" stroke="black" stroke-width="0.1" fill="none" />
<path d="M597,360,621,360,642,345,654,317,660,291,685,290" stroke="black" stroke-width="0.1" fill="none" />
<path d="M642,274,618,265" stroke="black" stroke-width="0.1" fill="none" />
<path d="M618,262,642,262,667,261,691,260" stroke="black" stroke-width="0.1" fill="none" />
<path d="M675,196,651,197,627,218" stroke="black" stroke-width="0.1" fill="none" />
<path d="M621,231,645,231,660,216" stroke="black" stroke-width="0.1" fill="none" />
<path d="M621,241,624,247,642,222,621,230,642,241,657,274,681,274,705,270,696,244,715,223" stroke="black" stroke-width="0.1" fill="none" />
<path d="M749,196,772,208" stroke="black" stroke-width="0.1" fill="none" />
<path d="M780,294,780,319,777,346,774,370,772,394,769,418,768,442,765,466,761,490,758,514,758,538,755,562,753,586,753,610,750,634,747,658" stroke="black" stroke-width="0.1" fill="none" />
<path d="M678,519,663,549,655,560,649,587,635,572,626,600,603,597,588,627,567,625,558,601,575,586,582,563,563,551,581,536,583,513,585,490,585,465,588,441,591,417,590,394,594,396" stroke="black" stroke-width="0.1" fill="none" />
<path d="M590,426,614,430,629,415,653,403,683,397,690,405" stroke="black" stroke-width="0.1" fill="none" />
<path d="M645,425,624,447,600,447,592,453" stroke="black" stroke-width="0.1" fill="none" />
<path d="M571,487,595,487,620,476,645,476,666,449" stroke="black" stroke-width="0.1" fill="none" />
<path d="M658,540,634,542,604,524,592,519,570,528,570,504" stroke="black" stroke-width="0.1" fill="none" />
<path d="M573,501,567,525,590,533,605,542,605,514,622,501,649,490,664,498,672,462,675,478" stroke="black" stroke-width="0.1" fill="none" />
<path d="M796,445,795,469,792,493,788,517,788,541,784,565,780,590,777,614,777,638,774,663,771,687" stroke="black" stroke-width="0.1" fill="none" />
<path d="M740,656,715,653,694,665,671,677,641,670,617,670,593,667,569,664,566,653,545,629,545,604,546,580,549,556,549,532,552,508,555,485,557,461,557,437,560,413,563,389,563,364,564,340,567,316,566,292,569,268,573,243,573,218,606,191,600,173,582,195,552,225,538,220,511,241,523,216,556,192,553,176,529,200,505,200" stroke="black" stroke-width="0.1" fill="none" />
<path d="M514,219,538,210,563,186" stroke="black" stroke-width="0.1" fill="none" />
<path d="M595,211,619,181" stroke="black" stroke-width="0.1" fill="none" />
<path d="M596,108,621,73,645,52,669,46,694,52" stroke="black" stroke-width="0.1" fill="none" />
<path d="M711,90,669,74,633,77" stroke="black" stroke-width="0.1" fill="none" />
<path d="M612,282,636,290,654,286,683,304" stroke="black" stroke-width="0.1" fill="none" />
<path d="M673,331,649,329,625,329,602,328,602,343" stroke="black" stroke-width="0.1" fill="none" />
<path d="M580,328,582,352,594,361,579,376,579,400,588,418,612,415,615,388,639,388" stroke="black" stroke-width="0.1" fill="none" />
<path d="M656,346,653,370,668,393,674,405,677,429,685,460,676,455" stroke="black" stroke-width="0.1" fill="none" />
<path d="M519,343,519,367,516,391,513,415,510,440,511,464,508,488,504,513,504,537,501,561,498,585,519,604" stroke="black" stroke-width="0.1" fill="none" />
<path d="M510,639,534,639,558,641" stroke="black" stroke-width="0.1" fill="none" />
<path d="M489,633,513,630,507,656,504,680,504,703,501,726,501,751,510,760,534,763,558,765,582,768,606,772,630,775,654,775,678,778,702,782,727,782,694,824,647,849,626,858,651,849,675,837,699,825,723,810,729,821,687,845,633,869,610,880,634,867,658,858,681,846,705,834,729,820" stroke="black" stroke-width="0.1" fill="none" />
<path d="M726,845,729,869,733,893,730,918" stroke="black" stroke-width="0.1" fill="none" />
<path d="M428,773,405,779,380,785,356,791,333,797,309,800,285,802,262,808,237,811,213,826" stroke="black" stroke-width="0.1" fill="none" />
<path d="M227,812,215,837,215,861,221,885,229,909,226,933,223,956,220,980,220,1005,226,1029,232,1053,232,1077,233,1101,226,1125,226,1148,229,1172,235,1196,226,1220,221,1245,218,1269,221,1277,245,1289,269,1289,293,1286,317,1283,341,1278,365,1276,389,1277" stroke="black" stroke-width="0.1" fill="none" />
<path d="M466,731,469,704,469,680,472,650,475,619,478,595,478,572,481,548,484,525,484,501,487,477,490,453,489,429,491,404,494,380,497,355,497,331" stroke="black" stroke-width="0.1" fill="none" />
</g></svg>