<?xml version="1.0" encoding="UTF-8" standalone="no"?>
<!-- Created with Inkscape (http://www.inkscape.org/) -->

<svg
   width="110mm"
   height="80mm"
   viewBox="0 0 110 80"
   version="1.1"
   id="svg5"
   xml:space="preserve"
   inkscape:version="1.2.2 (b0a8486541, 2022-12-01)"
   sodipodi:docname="coghent_festival.svg"
   xmlns:inkscape="http://www.inkscape.org/namespaces/inkscape"
   xmlns:sodipodi="http://sodipodi.sourceforge.net/DTD/sodipodi-0.dtd"
   xmlns="http://www.w3.org/2000/svg"
   xmlns:svg="http://www.w3.org/2000/svg"><sodipodi:namedview
     id="namedview7"
     pagecolor="#ffffff"
     bordercolor="#000000"
     borderopacity="0.25"
     inkscape:showpageshadow="2"
     inkscape:pageopacity="0.0"
     inkscape:pagecheckerboard="0"
     inkscape:deskcolor="#d1d1d1"
     inkscape:document-units="mm"
     showgrid="false"
     inkscape:zoom="1.2938725"
     inkscape:cx="242.68234"
     inkscape:cy="173.89658"
     inkscape:window-width="3840"
     inkscape:window-height="2019"
     inkscape:window-x="0"
     inkscape:window-y="32"
     inkscape:window-maximized="1"
     inkscape:current-layer="layer1" /><defs
     id="defs2" /><g
     inkscape:label="Layer 1"
     inkscape:groupmode="layer"
     id="layer1"><text
       xml:space="preserve"
       style="font-size:13.0553px;fill:none;stroke:#000000;stroke-width:1.08766;stroke-dasharray:none"
       x="17.521578"
       y="21.769035"
       id="text895"
       transform="scale(0.879714,1.13673)"><tspan
         sodipodi:role="line"
         style="font-style:normal;font-variant:normal;font-weight:normal;font-stretch:normal;font-family:'AVHershey Simplex';-inkscape-font-specification:'AVHershey Simplex';stroke:#000000;stroke-width:1.08766;stroke-dasharray:none;stroke-opacity:1"
         x="17.521578"
         y="21.769035"
         id="tspan899" /></text><rect
       style="fill:none;stroke:#000000;stroke-width:1.091;stroke-dasharray:none;stroke-opacity:1"
       id="rect4027"
       width="90.22699"
       height="62.468117"
       x="9.4600859"
       y="8.5947123" /><g
       inkscape:label="Hershey Text"
       style="fill:none;stroke:#000000;stroke-linecap:round;stroke-linejoin:round"
       transform="matrix(0.7651086,0,0,1.1374893,0.85411365,0.3333008)"
       id="g7464"><g
         transform="translate(17.5216,21.769)"
         id="g7414"><path
           d="m 662,504 -32,63 -63,63 -63,32 H 378 L 315,630 252,567 220,504 189,410 V 252 l 31,-94 32,-63.5 63,-63 L 378,0 h 126 l 63,31.5 63,63 32,63.5"
           style="stroke-width:0.07914in"
           transform="scale(0.0130553,-0.0130553)"
           id="path7384" /><path
           d="M 346,441 284,410 220,346 189,252 V 189 L 220,94.5 284,31.5 346,0 h 95 l 63,31.5 63,63 31,94.5 v 63 l -31,94 -63,64 -63,31 h -95"
           style="stroke-width:0.07914in"
           transform="matrix(0.0130553,0,0,-0.0130553,8.64261,0)"
           id="path7386" /><path
           d="m 662,504 -32,63 -63,63 -63,32 H 378 L 315,630 252,567 220,504 189,410 V 252 l 31,-94 32,-63.5 63,-63 L 378,0 h 126 l 63,31.5 63,63 32,63.5 v 94 m -158,0 h 158"
           style="stroke-width:0.07914in"
           transform="matrix(0.0130553,0,0,-0.0130553,16.4497,0)"
           id="path7388" /><path
           d="M 220,662 V 0 m 0,315 95,95 63,31 h 94 l 64,-31 31,-95 V 0"
           style="stroke-width:0.07914in"
           transform="matrix(0.0130553,0,0,-0.0130553,25.0923,0)"
           id="path7390" /><path
           d="m 189,252 h 378 v 63 l -31,63 -32,32 -63,31 H 346 L 284,410 220,346 189,252 V 189 L 220,94.5 284,31.5 346,0 h 95 l 63,31.5 63,63"
           style="stroke-width:0.07914in"
           transform="matrix(0.0130553,0,0,-0.0130553,32.8994,0)"
           id="path7392" /><path
           d="M 220,441 V 0 m 0,315 95,95 63,31 h 94 l 64,-31 31,-95 V 0"
           style="stroke-width:0.07914in"
           transform="matrix(0.0130553,0,0,-0.0130553,40.3017,0)"
           id="path7394" /><path
           d="M 252,662 V 126 L 284,31.5 346,0 h 64 M 158,441 h 220"
           style="stroke-width:0.07914in"
           transform="matrix(0.0130553,0,0,-0.0130553,48.1088,0)"
           id="path7396" /><path
           d="M 220,662 V 0 m 0,662 H 630 M 220,346 h 252"
           style="stroke-width:0.07914in"
           transform="matrix(0.0130553,0,0,-0.0130553,57.9786,0)"
           id="path7398" /><path
           d="m 189,252 h 378 v 63 l -31,63 -32,32 -63,31 H 346 L 284,410 220,346 189,252 V 189 L 220,94.5 284,31.5 346,0 h 95 l 63,31.5 63,63"
           style="stroke-width:0.07914in"
           transform="matrix(0.0130553,0,0,-0.0130553,65.3809,0)"
           id="path7400" /><path
           d="m 536,346 -32,64 -94,31 h -95 l -95,-31 -31,-64 31,-62 64,-32 157,-32 63,-31 32,-63 V 94.5 L 504,31.5 410,0 h -95 l -95,31.5 -31,63"
           style="stroke-width:0.07914in"
           transform="matrix(0.0130553,0,0,-0.0130553,72.7833,0)"
           id="path7402" /><path
           d="M 252,662 V 126 L 284,31.5 346,0 h 64 M 158,441 h 220"
           style="stroke-width:0.07914in"
           transform="matrix(0.0130553,0,0,-0.0130553,79.7809,0)"
           id="path7404" /><path
           d="m 189,662 31,-32 32,32 -32,31 -31,-31 M 220,441 V 0"
           style="stroke-width:0.07914in"
           transform="matrix(0.0130553,0,0,-0.0130553,84.7158,0)"
           id="path7406" /><path
           d="M 158,441 346,0 M 536,441 346,0"
           style="stroke-width:0.07914in"
           transform="matrix(0.0130553,0,0,-0.0130553,88.0058,0)"
           id="path7408" /><path
           d="M 567,441 V 0 m 0,346 -63,64 -63,31 H 346 L 284,410 220,346 189,252 V 189 L 220,94.5 284,31.5 346,0 h 95 l 63,31.5 63,63"
           style="stroke-width:0.07914in"
           transform="matrix(0.0130553,0,0,-0.0130553,94.5856,0)"
           id="path7410" /><path
           d="M 220,662 V 0"
           style="stroke-width:0.07914in"
           transform="matrix(0.0130553,0,0,-0.0130553,102.393,0)"
           id="path7412" /></g><g
         transform="translate(17.5216,38.6134)"
         id="g7438"><path
           d="m 220,504 v 32 l 32,62 32,32 62,32 h 126 l 64,-32 31,-32 31,-62 V 472 L 567,410 504,315 189,0 h 441"
           style="stroke-width:0.07914in"
           transform="scale(0.0130553,-0.0130553)"
           id="path7416" /><path
           d="m 819,378 v 32 l -31,31 H 756 L 724,410 693,346 630,189 567,94.5 504,31.5 441,0 H 315 L 252,31.5 220,63 189,126 v 63 l 31,63 32,32 220,126 32,31 32,63 v 63 l -32,63 -63,32 -63,-32 -32,-63 V 504 L 378,410 441,315 598,94.5 662,31.5 724,0 h 64 l 31,31.5 V 63"
           style="stroke-width:0.07914in"
           transform="matrix(0.0130553,0,0,-0.0130553,13.1597,0)"
           id="path7418" /><path
           d="M 252,662 H 598 L 410,410 h 94 l 63,-32 31,-32 32,-94 V 189 L 598,94.5 536,31.5 441,0 H 346 L 252,31.5 220,63 189,126"
           style="stroke-width:0.07914in"
           transform="matrix(0.0130553,0,0,-0.0130553,28.7869,0)"
           id="path7420" /><path
           d="m 252,662 32,-32 31,32 -31,31 -32,-31 M 284,441 V -94.5 l -32,-94.5 -63,-31 h -63"
           style="stroke-width:0.07914in"
           transform="matrix(0.0130553,0,0,-0.0130553,41.9467,0)"
           id="path7422" /><path
           d="M 220,441 V 126 L 252,31.5 315,0 h 95 l 62,31.5 95,94.5 m 0,315 V 0"
           style="stroke-width:0.07914in"
           transform="matrix(0.0130553,0,0,-0.0130553,46.0591,0)"
           id="path7424" /><path
           d="M 220,441 V 0 m 0,315 95,95 63,31 h 94 l 64,-31 31,-95 V 0"
           style="stroke-width:0.07914in"
           transform="matrix(0.0130553,0,0,-0.0130553,53.8662,0)"
           id="path7426" /><path
           d="m 189,662 31,-32 32,32 -32,31 -31,-31 M 220,441 V 0"
           style="stroke-width:0.07914in"
           transform="matrix(0.0130553,0,0,-0.0130553,61.6732,0)"
           id="path7428" /><path
           d="m 220,504 v 32 l 32,62 32,32 62,32 h 126 l 64,-32 31,-32 31,-62 V 472 L 567,410 504,315 189,0 h 441"
           style="stroke-width:0.07914in"
           transform="matrix(0.0130553,0,0,-0.0130553,69.8981,0)"
           id="path7430" /><path
           d="M 378,662 284,630 220,536 189,378 V 284 L 220,126 284,31.5 378,0 h 63 l 95,31.5 62,94.5 32,158 v 94 l -32,158 -62,94 -95,32 h -63"
           style="stroke-width:0.07914in"
           transform="matrix(0.0130553,0,0,-0.0130553,78.1229,0)"
           id="path7432" /><path
           d="m 220,504 v 32 l 32,62 32,32 62,32 h 126 l 64,-32 31,-32 31,-62 V 472 L 567,410 504,315 189,0 h 441"
           style="stroke-width:0.07914in"
           transform="matrix(0.0130553,0,0,-0.0130553,86.3478,0)"
           id="path7434" /><path
           d="M 252,662 H 598 L 410,410 h 94 l 63,-32 31,-32 32,-94 V 189 L 598,94.5 536,31.5 441,0 H 346 L 252,31.5 220,63 189,126"
           style="stroke-width:0.07914in"
           transform="matrix(0.0130553,0,0,-0.0130553,94.5726,0)"
           id="path7436" /></g><g
         transform="translate(17.5216,55.4577)"
         id="g7462"><path
           d="M 126,662 378,0 M 630,662 378,0"
           style="stroke-width:0.07914in"
           transform="scale(0.0130553,-0.0130553)"
           id="path7440" /><path
           d="M 346,441 284,410 220,346 189,252 V 189 L 220,94.5 284,31.5 346,0 h 95 l 63,31.5 63,63 31,94.5 v 63 l -31,94 -63,64 -63,31 h -95"
           style="stroke-width:0.07914in"
           transform="matrix(0.0130553,0,0,-0.0130553,7.40236,0)"
           id="path7442" /><path
           d="M 346,441 284,410 220,346 189,252 V 189 L 220,94.5 284,31.5 346,0 h 95 l 63,31.5 63,63 31,94.5 v 63 l -31,94 -63,64 -63,31 h -95"
           style="stroke-width:0.07914in"
           transform="matrix(0.0130553,0,0,-0.0130553,15.2094,0)"
           id="path7444" /><path
           d="M 220,441 V 0 m 0,252 32,94 63,64 63,31 h 94"
           style="stroke-width:0.07914in"
           transform="matrix(0.0130553,0,0,-0.0130553,23.0165,0)"
           id="path7446" /><path
           d="M 220,441 V 126 L 252,31.5 315,0 h 95 l 62,31.5 95,94.5 m 0,315 V 0"
           style="stroke-width:0.07914in"
           transform="matrix(0.0130553,0,0,-0.0130553,28.3692,0)"
           id="path7448" /><path
           d="m 189,662 31,-32 32,32 -32,31 -31,-31 M 220,441 V 0"
           style="stroke-width:0.07914in"
           transform="matrix(0.0130553,0,0,-0.0130553,36.1762,0)"
           id="path7450" /><path
           d="M 252,662 V 126 L 284,31.5 346,0 h 64 M 158,441 h 220"
           style="stroke-width:0.07914in"
           transform="matrix(0.0130553,0,0,-0.0130553,39.4662,0)"
           id="path7452" /><path
           d="m 662,504 -32,63 -63,63 -63,32 H 378 L 315,630 252,567 220,504 189,410 V 252 l 31,-94 32,-63.5 63,-63 L 378,0 h 126 l 63,31.5 63,63 32,63.5 v 94 m -158,0 h 158"
           style="stroke-width:0.07914in"
           transform="matrix(0.0130553,0,0,-0.0130553,49.336,0)"
           id="path7454" /><path
           d="m 189,252 h 378 v 63 l -31,63 -32,32 -63,31 H 346 L 284,410 220,346 189,252 V 189 L 220,94.5 284,31.5 346,0 h 95 l 63,31.5 63,63"
           style="stroke-width:0.07914in"
           transform="matrix(0.0130553,0,0,-0.0130553,57.9786,0)"
           id="path7456" /><path
           d="M 220,441 V 0 m 0,315 95,95 63,31 h 94 l 64,-31 31,-95 V 0"
           style="stroke-width:0.07914in"
           transform="matrix(0.0130553,0,0,-0.0130553,65.3809,0)"
           id="path7458" /><path
           d="M 252,662 V 126 L 284,31.5 346,0 h 64 M 158,441 h 220"
           style="stroke-width:0.07914in"
           transform="matrix(0.0130553,0,0,-0.0130553,73.188,0)"
           id="path7460" /></g></g></g></svg>
