<svg xmlns="http://www.w3.org/2000/svg" version="1.1"><polyline points="206.5,69.0,204.5,77.5,200.5,85.5,200.5,94.0,198.5,102.0,196.5,110.0,194.0,118.0,193.0,126.5,192.0,134.5,191.0,142.5,191.0,150.5,192.0,158.5,196.0,166.0,196.0,169.0,193.0,177.0,190.0,184.5,186.5,187.5,194.5,179.0,203.5,167.0" stroke="black" stroke-width="2" fill="none" />
<polyline points="202.5,170.5,210.5,170.0,218.5,170.0,226.5,169.5,234.5,168.5,243.0,168.0,250.5,167.0,258.0,166.5,266.0,166.0,274.0,165.5,282.0,164.5,290.5,164.0,299.0,163.5" stroke="black" stroke-width="2" fill="none" />
<polyline points="301.0,165.0,317.0,169.0,329.0,176.5,335.0,184.0,344.0,188.0,352.0,196.0" stroke="black" stroke-width="2" fill="none" />
<polyline points="346.0,198.0,338.5,205.0,330.5,212.5,323.0,219.5,315.5,226.0,308.0,232.5,300.5,240.0,293.0,248.0,285.5,255.0,278.0,262.5,270.5,269.5,262.5,277.0,254.0,284.5,245.5,292.5,237.0,300.0,229.0,308.0,220.5,316.0" stroke="black" stroke-width="2" fill="none" />
<polyline points="227.5,323.0,235.0,315.5,242.0,308.0,250.0,300.0,258.5,292.0,266.5,285.0,274.5,277.5,283.0,269.5,291.5,262.5,300.0,255.5,308.5,248.0,316.5,240.5,324.5,233.0,332.5,225.5,341.0,218.0,349.5,210.5" stroke="black" stroke-width="2" fill="none" />
<polyline points="347.5,204.5,339.5,212.0,331.5,220.0,323.5,227.0,316.0,234.0,308.0,241.0,300.0,248.0,292.0,255.0,284.0,262.5,276.0,269.5,268.0,277.5,260.0,285.0,251.5,293.0,243.5,300.5,235.5,308.0,227.5,316.0,219.5,323.0" stroke="black" stroke-width="2" fill="none" />
<polyline points="227.5,328.5,235.0,328.0,243.5,328.0,251.5,327.5,258.5,327.0,266.5,326.5,274.5,326.0,283.0,325.5" stroke="black" stroke-width="2" fill="none" />
<polyline points="267.0,326.0,275.0,319.0,283.5,311.5,291.5,304.0,299.5,297.0,307.0,289.5,314.5,282.5,322.5,275.0,330.5,267.0,338.5,259.5,346.5,252.5,354.5,245.5" stroke="black" stroke-width="2" fill="none" />
<polyline points="354.5,235.5,347.0,243.0,339.5,250.5,332.0,258.0,324.5,266.0,316.5,273.0,308.5,281.0,300.5,288.0,292.0,296.0,284.0,304.0,276.5,312.0,268.0,319.0,260.0,326.5" stroke="black" stroke-width="2" fill="none" />
<polyline points="252.0,326.0,259.5,318.5,267.0,311.0,275.0,303.5,283.5,296.0,292.0,288.5,300.5,280.5,309.0,273.0,317.5,265.0,325.5,257.5,333.5,250.0,341.5,243.0,349.5,235.5,357.5,228.0" stroke="black" stroke-width="2" fill="none" />
<polyline points="357.0,219.0,349.0,227.0,340.5,234.0,332.5,241.5,323.5,249.0,315.5,256.5,307.0,264.0,299.5,271.5,291.5,279.0,283.5,287.0,276.0,294.5,267.5,302.0,259.5,309.5,251.5,317.0,242.5,324.5" stroke="black" stroke-width="2" fill="none" />
<polyline points="236.0,324.0,243.0,316.5,250.0,308.5,257.5,300.5,265.5,293.0,273.5,285.5,281.5,278.0,290.0,270.5,298.5,263.0,307.0,256.0,315.0,248.5,323.5,241.0,331.5,233.5,340.0,226.5,348.5,219.0" stroke="black" stroke-width="2" fill="none" />
<polyline points="357.0,208.5,349.0,209.0,341.5,209.0,333.5,209.5,326.0,210.0,318.5,210.5,310.0,211.5,302.0,212.0,294.0,212.5,285.5,213.5,277.0,214.0,269.0,214.5,261.0,215.0,253.0,215.5,244.5,216.5,236.5,217.0,228.5,217.5,220.5,217.5,212.5,218.0,205.0,218.0,197.0,218.5,189.0,219.5,181.0,220.0,173.0,220.5,165.0,221.0,157.0,221.5" stroke="black" stroke-width="2" fill="none" />
<polyline points="154.5,222.0,157.5,221.0,156.5,229.0,154.5,237.5,154.5,246.0,152.0,254.5,154.0,262.5,162.0,269.0,163.0,276.5,165.5,284.5,170.0,292.5,178.0,300.5,185.0,308.5,192.5,317.5,202.0,325.5,219.0,333.5" stroke="black" stroke-width="2" fill="none" />
<polyline points="226.0,333.0,234.0,332.5,242.0,331.5,250.0,330.5,259.0,329.5,267.5,329.0,275.0,328.0,282.5,327.5,290.0,327.0" stroke="black" stroke-width="2" fill="none" />
<polyline points="276.0,325.5,284.0,318.5,291.5,312.0,299.0,304.5,307.5,297.0,316.0,289.5,324.0,282.0,332.0,274.5,340.0,267.0,348.0,259.0" stroke="black" stroke-width="2" fill="none" />
<polyline points="346.5,249.0,339.0,250.0" stroke="black" stroke-width="2" fill="none" />
<polyline points="340.0,242.5,348.0,242.0" stroke="black" stroke-width="2" fill="none" />
<polyline points="339.5,274.5,331.5,275.0" stroke="black" stroke-width="2" fill="none" />
<polyline points="338.5,276.0,330.0,283.5,321.5,291.0,314.0,298.5,306.5,306.5,299.0,314.0,291.5,322.0,284.0,329.5" stroke="black" stroke-width="2" fill="none" />
<polyline points="292.5,330.5,301.0,323.5,309.0,316.0,317.0,308.0,325.5,300.5" stroke="black" stroke-width="2" fill="none" />
<polyline points="331.5,279.5,323.0,280.0,315.0,280.5,306.5,281.0,298.5,281.0" stroke="black" stroke-width="2" fill="none" />
<polyline points="298.0,271.0,306.0,270.5,314.5,270.0,323.0,270.0" stroke="black" stroke-width="2" fill="none" />
<polyline points="339.0,262.5,331.0,263.0,323.5,263.0,316.0,263.0,308.5,263.5,300.5,264.0" stroke="black" stroke-width="2" fill="none" />
<polyline points="294.0,266.5,292.0,274.5,292.0,282.0" stroke="black" stroke-width="2" fill="none" />
<polyline points="291.0,279.5,283.0,279.5,274.5,279.5" stroke="black" stroke-width="2" fill="none" />
<polyline points="275.5,289.5,283.5,289.5,291.0,289.0,299.0,288.5,307.0,288.0,315.0,287.5,322.5,287.0,330.0,286.5" stroke="black" stroke-width="2" fill="none" />
<polyline points="340.5,254.0,332.5,254.5,324.0,254.5,316.5,255.0,309.0,255.5,301.5,256.0" stroke="black" stroke-width="2" fill="none" />
<polyline points="300.0,249.5,308.5,249.0,316.5,248.5,324.0,248.0" stroke="black" stroke-width="2" fill="none" />
<polyline points="324.0,240.5,316.5,241.5,309.5,242.5,301.5,243.0" stroke="black" stroke-width="2" fill="none" />
<polyline points="301.5,234.5,309.0,234.5,317.0,234.0,324.5,233.0" stroke="black" stroke-width="2" fill="none" />
<polyline points="324.5,224.5,314.5,219.0,310.5,217.5,311.0,210.0,310.5,204.0,299.5,199.5,297.5,192.5,288.0,190.5,282.0,189.0,283.0,181.0,295.0,171.0,306.5,163.0,310.5,155.0,310.5,147.0,310.5,138.5,310.5,130.5,308.5,123.0,304.5,119.0,306.0,111.0,302.0,109.5,302.0,101.5,300.0,94.0,288.0,101.0" stroke="black" stroke-width="2" fill="none" />
<polyline points="290.0,102.5,298.0,103.0,300.0,114.0,300.0,122.0" stroke="black" stroke-width="2" fill="none" />
<polyline points="300.0,123.5,292.0,131.0,283.5,138.5,275.0,146.0,267.0,153.5,259.0,161.5,251.0,169.0,243.5,176.0,236.0,183.0,228.0,190.5" stroke="black" stroke-width="2" fill="none" />
<polyline points="228.5,193.0,236.5,192.5" stroke="black" stroke-width="2" fill="none" />
<polyline points="243.0,194.0,251.5,193.5" stroke="black" stroke-width="2" fill="none" />
<polyline points="256.0,194.5,264.0,201.5" stroke="black" stroke-width="2" fill="none" />
<polyline points="259.5,203.5,251.5,211.5,244.0,219.0,236.0,227.0,228.0,234.5,219.5,242.0,212.0,249.5,204.0,257.0,196.0,264.5,188.0,271.5,180.0,279.0" stroke="black" stroke-width="2" fill="none" />
<polyline points="180.0,281.5,188.0,281.0,195.5,280.5,203.5,280.0,211.5,279.5,219.5,279.0,228.0,278.5,236.0,278.0" stroke="black" stroke-width="2" fill="none" />
<polyline points="236.5,279.5,243.5,279.0,244.5,287.5,243.0,296.5" stroke="black" stroke-width="2" fill="none" />
<polyline points="246.5,296.5,254.0,296.0,261.5,295.5,269.5,295.0,277.0,295.0,285.0,294.5,293.0,294.0,300.5,294.0,308.0,294.0,315.5,293.5,323.5,293.0" stroke="black" stroke-width="2" fill="none" />
<polyline points="309.0,319.0,300.5,320.0,292.0,320.5,284.0,320.5,276.0,321.0,268.5,321.5,260.5,321.5,252.0,322.0,244.0,322.5,235.5,323.0,227.5,323.5,219.5,324.0,212.5,324.5,204.5,324.5" stroke="black" stroke-width="2" fill="none" />
<polyline points="203.0,323.5,211.0,323.0,219.0,322.5,227.0,322.0,235.0,321.5,243.0,321.0,251.5,320.0,260.0,319.0,268.5,318.0,277.0,317.0,285.5,317.0,293.0,316.5,301.0,316.0,308.5,315.5" stroke="black" stroke-width="2" fill="none" />
<polyline points="268.5,289.0,260.0,289.5,252.0,289.5" stroke="black" stroke-width="2" fill="none" />
<polyline points="253.5,282.0,261.0,281.5,269.0,281.0" stroke="black" stroke-width="2" fill="none" />
<polyline points="242.5,285.5,233.5,286.0,225.5,286.5,217.5,287.5,209.5,288.5,201.5,289.0,193.5,289.5,185.5,290.0" stroke="black" stroke-width="2" fill="none" />
<polyline points="187.5,295.0,196.0,287.5,204.0,280.0,212.0,272.5,220.0,264.5,227.0,256.5,235.0,249.0,243.0,241.5,251.0,233.5,259.5,225.5,267.5,218.0" stroke="black" stroke-width="2" fill="none" />
<polyline points="266.0,212.0,258.5,219.5,251.0,226.5" stroke="black" stroke-width="2" fill="none" />
<polyline points="250.0,233.5,258.5,233.0,267.0,232.5,275.0,232.0,283.0,232.0" stroke="black" stroke-width="2" fill="none" />
<polyline points="285.0,228.0,276.5,235.0,268.5,242.0,260.5,249.5,252.5,257.0,244.5,264.5,237.0,271.5,229.0,279.0,221.0,286.5,213.5,294.0,205.5,301.5,197.0,309.0" stroke="black" stroke-width="2" fill="none" />
<polyline points="203.5,307.0,211.0,306.5,219.0,306.0,227.0,305.0,234.5,304.5,242.5,303.5,250.0,303.0,258.5,303.0,267.0,302.0,275.5,301.5,283.5,300.5,291.5,300.5,299.5,300.5,307.5,300.0,315.0,300.0" stroke="black" stroke-width="2" fill="none" />
<polyline points="315.5,307.0,308.0,308.0,300.0,308.5,292.0,309.0,283.5,309.5,275.5,310.0,267.5,310.5,260.0,311.0,252.5,311.5,244.5,312.0,236.0,313.0,227.5,313.5,219.0,314.0,210.5,315.0,202.0,315.5" stroke="black" stroke-width="2" fill="none" />
<polyline points="203.5,318.0,211.5,310.5,219.5,303.0,227.5,296.0,235.5,288.5,243.0,281.0,251.0,273.5,258.5,266.0,267.0,258.5,275.0,251.0,283.0,243.0,291.5,235.0,300.0,226.5,308.5,218.5" stroke="black" stroke-width="2" fill="none" />
<polyline points="312.0,211.0,320.5,211.0" stroke="black" stroke-width="2" fill="none" />
<polyline points="316.5,211.0,324.5,203.0" stroke="black" stroke-width="2" fill="none" />
<polyline points="325.0,197.0,333.0,201.5,334.0,204.5" stroke="black" stroke-width="2" fill="none" />
<polyline points="331.0,203.5,323.5,211.0,316.0,218.0,308.0,225.5,300.0,233.5,292.5,241.0,284.0,249.0,275.5,257.0,267.5,264.5,259.0,272.0,251.0,278.5,243.0,286.5,235.0,294.5,227.0,302.0,219.0,309.5,211.5,317.0" stroke="black" stroke-width="2" fill="none" />
<polyline points="204.0,311.0,211.5,303.5,219.0,296.0,227.0,288.0,234.5,280.5,242.5,272.5,251.0,265.0,259.5,257.5,267.0,250.0,274.5,243.0,282.0,235.5,290.0,227.5,298.0,220.0" stroke="black" stroke-width="2" fill="none" />
<polyline points="298.0,206.0,290.0,213.5,282.5,220.0,274.5,227.0,266.0,235.0,258.0,242.5,250.0,249.5,242.0,256.5,233.5,264.0,225.0,272.0,217.0,279.5,209.0,287.0,201.5,294.5,194.0,302.0" stroke="black" stroke-width="2" fill="none" />
<polyline points="196.0,296.5,204.0,296.5,212.5,296.5,221.0,296.5,229.5,296.5,237.5,296.0" stroke="black" stroke-width="2" fill="none" />
<polyline points="243.5,279.5,237.5,288.5,240.5,286.5,241.0,278.0" stroke="black" stroke-width="2" fill="none" />
<polyline points="251.5,250.5,260.0,250.0,268.0,249.5,276.0,249.0,283.5,248.0,291.0,247.5" stroke="black" stroke-width="2" fill="none" />
<polyline points="291.5,240.5,283.0,241.0,275.5,241.0,267.5,241.5,259.5,241.5,251.5,241.5" stroke="black" stroke-width="2" fill="none" />
<polyline points="243.5,236.5,235.5,244.0,227.5,251.0,219.5,258.0,211.5,265.0,203.5,272.5,195.5,280.0,187.5,288.0" stroke="black" stroke-width="2" fill="none" />
<polyline points="178.5,288.0,187.0,281.0,195.0,273.5,203.5,266.5,211.5,259.5,219.5,252.0,228.0,244.5,236.0,237.0" stroke="black" stroke-width="2" fill="none" />
<polyline points="235.5,237.0,227.5,237.5,220.0,238.5,213.0,239.5,205.5,240.0,198.0,241.0,190.0,242.5,182.5,242.5" stroke="black" stroke-width="2" fill="none" />
<polyline points="170.0,248.0,178.5,247.5,186.5,247.0,194.5,246.5,203.0,245.5,211.5,245.0,219.5,244.5,227.5,244.5,236.0,244.0,244.0,243.0" stroke="black" stroke-width="2" fill="none" />
<polyline points="236.5,231.0,244.5,228.0" stroke="black" stroke-width="2" fill="none" />
<polyline points="243.0,226.5,251.5,219.0,259.5,211.0,267.5,203.5,275.5,196.0,283.5,188.5" stroke="black" stroke-width="2" fill="none" />
<polyline points="283.5,184.0,275.5,184.5,266.5,185.0,258.0,185.5,250.0,185.5,242.0,186.0" stroke="black" stroke-width="2" fill="none" />
<polyline points="253.0,187.5,256.0,195.5,263.0,203.5,268.0,211.5,270.0,219.5,271.0,227.5,270.5,235.0,270.5,242.5,270.5,250.5,272.5,262.5,271.5,270.5,270.5,280.0,268.5,288.5,267.0,296.5" stroke="black" stroke-width="2" fill="none" />
<polyline points="292.5,257.5,284.5,258.5,277.0,259.0,269.0,259.5,261.0,259.5,253.0,260.0,245.0,260.5,237.0,261.0,229.0,262.0,221.0,263.0,213.0,263.0,205.0,263.5,197.0,264.0,189.5,265.5,181.5,266.0" stroke="black" stroke-width="2" fill="none" />
<polyline points="180.5,256.5,188.0,256.0,196.0,255.5,204.0,255.0,211.5,254.0,219.0,253.0,227.0,253.0,235.5,252.5,244.0,252.5,252.5,252.5,260.5,252.0,268.5,251.5,277.0,251.0,284.5,250.5,292.0,250.0" stroke="black" stroke-width="2" fill="none" />
<polyline points="290.5,255.0,290.0,263.5,289.0,271.5,289.5,279.5,288.0,287.5" stroke="black" stroke-width="2" fill="none" />
<polyline points="315.0,310.5,307.5,311.0,300.0,311.0,292.5,311.5,285.0,312.0,277.0,312.5,269.0,313.5,261.0,314.5,253.0,315.0,245.0,316.0,237.0,316.5,229.0,316.5,221.0,317.0,213.0,318.0,205.5,318.5,197.0,319.5" stroke="black" stroke-width="2" fill="none" />
<polyline points="187.0,309.0,194.5,309.0,202.5,308.5,210.5,308.0,219.0,307.0,227.0,306.5,235.5,306.0,243.5,305.5,251.5,305.0,260.0,304.5,268.5,304.0,276.5,303.5,284.0,303.0,292.0,302.5,300.0,302.5,308.0,302.0,316.5,301.5,325.0,301.0" stroke="black" stroke-width="2" fill="none" />
<polyline points="325.0,294.0,316.5,294.0,308.0,293.5,300.0,294.0,292.5,294.5,285.0,294.5,277.5,295.0,269.5,295.5,261.0,296.0,253.0,297.0,244.5,298.0,236.0,299.0,227.5,300.0,219.0,300.5,211.0,301.5,202.5,302.0,194.0,302.0,185.5,303.0" stroke="black" stroke-width="2" fill="none" />
<polyline points="179.0,293.5,187.0,292.5,195.0,292.0,202.5,291.5,210.0,291.5,218.0,291.0,226.0,290.5,233.5,289.5,241.0,289.0,248.5,289.0,256.5,289.0,265.0,288.0,273.0,287.0,281.0,286.0,289.0,285.5,297.0,284.5,305.5,283.5,314.5,283.0,323.0,282.5,331.0,282.0" stroke="black" stroke-width="2" fill="none" />
<polyline points="337.5,274.5,329.5,275.5,321.5,275.5,313.5,275.5,305.5,276.0,298.0,276.5,290.0,277.5,282.5,277.5,275.0,277.5,267.0,278.0,259.0,278.0,251.5,278.5,243.5,279.0,235.5,279.5,227.5,280.5,219.5,281.5,212.0,282.5,204.0,283.0,196.0,283.5,188.5,284.5,180.5,285.0,173.0,285.0" stroke="black" stroke-width="2" fill="none" />
<polyline points="173.5,279.5,181.5,272.0,189.0,264.5,197.0,257.0,204.5,249.0,212.0,240.5,220.0,233.0,228.0,225.0,236.5,216.5,244.5,209.0,253.0,202.0,261.0,194.5" stroke="black" stroke-width="2" fill="none" />
<polyline points="267.5,193.0,275.5,185.5,283.5,178.0,291.0,171.0,299.0,163.5,307.0,156.0" stroke="black" stroke-width="2" fill="none" />
<polyline points="306.0,157.5,298.0,165.0,304.5,159.0" stroke="black" stroke-width="2" fill="none" />
<polyline points="308.0,162.0,300.0,169.5" stroke="black" stroke-width="2" fill="none" />
<polyline points="309.0,165.5,316.5,166.5,324.5,171.5,332.5,176.5" stroke="black" stroke-width="2" fill="none" />
<polyline points="331.5,180.0,323.5,187.5,315.5,194.5" stroke="black" stroke-width="2" fill="none" />
<polyline points="310.5,192.0,319.0,192.0,335.5,193.5" stroke="black" stroke-width="2" fill="none" />
<polyline points="330.5,193.5,338.0,186.0" stroke="black" stroke-width="2" fill="none" />
<polyline points="347.0,178.0,339.0,178.5,330.5,179.0,322.0,179.5,314.0,180.5,306.0,181.0,298.0,181.5,290.5,182.0,283.0,183.0,274.5,183.5,266.5,184.5,258.5,185.0,250.5,185.0,242.5,185.5,234.5,186.0,226.0,186.5,218.0,187.0,210.0,187.5,202.0,187.5,194.0,188.5,186.5,189.5,178.5,190.0,171.0,191.0,163.5,191.5" stroke="black" stroke-width="2" fill="none" />
<polyline points="157.0,196.5,165.0,196.0,174.0,195.0,182.0,195.0,190.0,195.0,198.5,194.5,206.0,194.0,214.0,193.5,222.0,192.5,230.0,192.0,237.5,191.5,245.5,191.0,253.5,191.0,261.0,191.0,268.5,190.5,276.5,190.0,284.0,190.0,292.0,189.5,299.5,189.0,307.0,188.5,315.0,188.0,323.5,187.5,331.5,187.0,340.0,186.5,348.5,186.5,356.0,186.0" stroke="black" stroke-width="2" fill="none" />
<polyline points="340.0,171.5,332.0,171.5,324.0,172.0,316.5,172.5,308.5,172.5,300.0,173.0,292.0,173.5,283.5,174.0,275.5,174.5,267.5,175.0,260.5,175.5,252.5,175.5,244.5,176.5,236.0,177.0,227.5,178.0,219.0,178.5,210.5,179.5,202.5,179.5,194.5,180.0,186.0,180.0,178.0,180.5,169.5,181.0" stroke="black" stroke-width="2" fill="none" />
<polyline points="180.0,174.0,188.5,173.0,196.5,172.0,204.5,171.0,212.0,170.5,220.0,169.5,227.5,169.0,235.5,168.5,243.5,168.5,251.0,168.0,258.5,168.0,266.5,167.5,274.5,166.5,282.5,165.5,290.0,164.5,297.0,164.0,305.5,163.5,313.5,163.5,321.5,163.0" stroke="black" stroke-width="2" fill="none" />
<polyline points="312.5,167.5,312.5,170.5,324.0,178.5,337.0,187.0,348.0,195.5,352.5,203.5,356.0,212.0,358.0,220.5,359.0,229.0,359.0,237.0,358.0,245.0,357.0,253.0,354.0,261.0,350.0,269.0,345.5,277.5,340.5,285.0,334.5,293.0,328.0,301.0,322.0,308.5,314.5,316.5,305.5,324.0,290.5,332.5" stroke="black" stroke-width="2" fill="none" />
<polyline points="291.5,265.5,283.5,266.0,275.0,266.0,267.0,266.0,258.5,266.0,250.5,266.5,242.0,266.5,234.5,267.0,226.5,268.0,219.0,268.5,211.0,269.5,203.5,270.0,195.5,271.0,187.5,271.5,179.5,272.0,171.5,272.5" stroke="black" stroke-width="2" fill="none" />
<polyline points="171.5,266.5,180.0,259.0,188.0,251.0,196.5,243.5,205.0,236.0,213.0,228.5,221.0,221.0,229.0,214.0,237.0,206.5,244.5,199.5,252.0,192.0,260.0,184.0,267.5,177.0,275.5,169.5,283.5,162.5,291.0,155.0,298.5,147.5,306.0,140.0" stroke="black" stroke-width="2" fill="none" />
<polyline points="306.5,147.0,299.0,154.5,291.0,162.0,283.5,169.5,275.5,176.5,268.0,184.0" stroke="black" stroke-width="2" fill="none" />
<polyline points="264.0,184.0,268.0,192.0,274.5,200.0,280.5,210.0,284.5,218.0,282.5,226.5,291.0,225.0,294.0,229.0" stroke="black" stroke-width="2" fill="none" />
<polyline points="293.5,209.5,286.0,210.0" stroke="black" stroke-width="2" fill="none" />
<polyline points="287.0,209.0,295.0,206.5,301.0,214.5,303.5,217.0,306.5,222.0" stroke="black" stroke-width="2" fill="none" />
<polyline points="321.5,216.5,323.0,213.0,319.0,211.0,317.0,207.0,316.5,200.5,312.0,193.5,313.0,188.5,306.0,184.0,303.0,172.0,311.0,170.0,303.0,166.0,295.0,171.5,287.0,175.5" stroke="black" stroke-width="2" fill="none" />
<polyline points="287.0,180.5,287.0,184.5,292.0,183.5,298.0,181.0,305.5,176.0,311.5,178.0,319.5,183.0" stroke="black" stroke-width="2" fill="none" />
<polyline points="316.5,181.0,308.5,188.5,300.0,195.5,291.5,203.0,282.5,210.5,274.0,218.0,266.0,225.5,258.5,233.0,251.0,241.0,243.0,248.5,235.0,256.0,227.0,263.5,219.0,270.5,211.5,278.0,203.5,286.0,196.5,293.5" stroke="black" stroke-width="2" fill="none" />
<polyline points="162.5,276.5,170.5,276.0,178.5,276.0,186.0,276.0,194.0,275.5,201.5,275.0,210.0,275.0,218.5,275.5,227.0,275.5,235.0,275.0,243.0,274.5,251.0,274.0,259.0,273.5,267.0,273.0,275.0,272.5,283.0,272.0,291.5,271.0,300.0,270.0,308.5,269.0,317.0,268.0,325.5,268.0,333.0,267.5,341.0,267.0" stroke="black" stroke-width="2" fill="none" />
<polyline points="348.0,259.0,340.0,259.5,332.0,260.0,323.5,260.5,315.5,261.0,307.5,261.5,300.0,262.0,292.5,262.5,284.5,263.0,276.0,264.0,267.5,264.5,259.0,265.0,250.5,266.0,242.0,266.5,234.0,267.0,226.0,266.5,218.0,266.5,210.5,267.0,202.5,267.0,194.0,267.5,186.0,268.0,178.0,268.5,169.5,268.5,161.5,269.0" stroke="black" stroke-width="2" fill="none" />
<polyline points="163.5,269.0,171.0,262.0,178.5,254.5,186.0,247.0,194.0,240.0,201.5,232.5,209.0,225.0,217.0,217.0,225.0,209.0,233.5,201.0,242.0,193.5,250.5,185.5,259.0,178.0,267.0,170.5,275.5,163.0,283.5,155.0,291.5,147.5" stroke="black" stroke-width="2" fill="none" />
<polyline points="288.0,149.5,290.0,157.5" stroke="black" stroke-width="2" fill="none" />
<polyline points="283.0,145.5,274.5,146.0" stroke="black" stroke-width="2" fill="none" />
<polyline points="276.5,136.5,284.0,135.5" stroke="black" stroke-width="2" fill="none" />
<polyline points="283.5,140.0,284.5,147.5,284.0,155.0" stroke="black" stroke-width="2" fill="none" />
<polyline points="290.5,137.5,282.5,145.0,275.0,153.0,267.5,161.0,259.5,169.0,251.5,177.0,243.0,185.0,234.5,193.5,226.5,201.0,218.5,208.5" stroke="black" stroke-width="2" fill="none" />
<polyline points="215.0,210.0,223.0,201.0,214.0,206.0,211.0,214.0,211.5,201.5,217.5,199.5" stroke="black" stroke-width="2" fill="none" />
<polyline points="210.5,193.0,219.0,185.5" stroke="black" stroke-width="2" fill="none" />
<polyline points="220.0,180.5,215.0,183.0,210.0,191.0,210.0,199.0,203.0,204.0,209.5,187.0,217.5,178.5,225.5,184.5,225.0,190.0,215.0,198.0,207.0,197.5,199.5,205.5,212.5,195.0,221.0,191.0" stroke="black" stroke-width="2" fill="none" />
<polyline points="225.0,191.0,223.0,199.0,220.5,207.0,217.5,216.0,212.5,221.5,224.5,221.5,232.0,213.5" stroke="black" stroke-width="2" fill="none" />
<polyline points="230.5,214.5,220.0,222.5,222.0,225.5,229.5,220.5" stroke="black" stroke-width="2" fill="none" />
<polyline points="228.5,225.0,237.0,224.0,245.0,223.0,253.0,222.0,261.5,221.5,269.0,221.5" stroke="black" stroke-width="2" fill="none" />
<polyline points="275.5,210.5,283.5,203.0,291.5,195.0,299.5,187.0,307.5,179.5" stroke="black" stroke-width="2" fill="none" />
<polyline points="306.0,185.0,314.0,189.0,320.0,189.0,333.5,191.0,337.0,188.5,344.5,193.5" stroke="black" stroke-width="2" fill="none" />
<polyline points="355.0,201.5,347.5,202.0,340.0,202.0,332.5,202.5,325.0,203.0,317.0,203.5,309.0,204.5,301.0,205.5,293.0,206.0,285.0,207.0,277.0,207.5,269.0,207.5,261.0,208.0,253.0,209.0,245.5,209.5,237.0,210.5,229.5,210.5,221.5,210.5,213.5,211.0,206.0,212.0,198.5,212.5,190.0,212.5,182.0,212.5,174.0,212.0,166.0,212.0,158.5,212.5" stroke="black" stroke-width="2" fill="none" />
<polyline points="163.0,211.0,171.5,203.5,179.5,196.0,188.5,188.5,196.5,181.0,205.0,174.0,213.0,166.0,221.0,159.0,229.0,152.0,237.0,144.5,245.0,136.5,253.0,129.0,261.0,121.5,269.0,114.0,276.5,106.0,284.5,98.5,292.5,91.0" stroke="black" stroke-width="2" fill="none" />
<polyline points="291.5,97.0,284.0,104.5,276.5,112.5,268.5,120.0,261.5,127.5,254.0,135.0,246.0,143.0,237.5,151.5,229.5,160.0,221.5,167.5,213.5,175.0,205.5,182.5,197.5,190.0,189.5,197.0,181.5,204.5,173.5,212.0,165.0,220.0" stroke="black" stroke-width="2" fill="none" />
<polyline points="162.0,227.0,169.5,227.0" stroke="black" stroke-width="2" fill="none" />
<polyline points="174.0,228.5,172.0,236.5,172.0,244.5" stroke="black" stroke-width="2" fill="none" />
<polyline points="175.5,239.0,184.5,232.0,181.5,227.0,183.5,215.0,183.5,212.5,195.0,210.5,196.5,202.0,198.5,193.5,187.5,199.5" stroke="black" stroke-width="2" fill="none" />
<polyline points="192.5,193.5,187.5,201.0,179.5,208.5,176.5,212.5,179.5,207.5,180.5,209.0,188.0,211.0,189.0,205.0,195.0,197.5,202.5,196.5" stroke="black" stroke-width="2" fill="none" />
<polyline points="203.0,195.0,195.0,202.5,187.5,210.0,179.5,217.0,171.0,224.5,162.5,232.0,154.5,239.0" stroke="black" stroke-width="2" fill="none" />
<polyline points="154.5,245.0,162.5,244.0,171.0,243.0,179.5,242.0,188.0,241.5,196.0,241.5,204.0,240.5,212.0,240.0,220.0,239.5,227.5,239.5,235.5,239.0,243.5,238.5,251.0,238.0,259.0,237.0,267.0,237.0,275.0,237.0,283.5,236.0,292.0,235.0,300.0,234.5,308.0,233.5,316.0,233.0,324.0,232.5,332.5,232.5,341.0,232.0,349.0,232.0,356.5,232.5" stroke="black" stroke-width="2" fill="none" />
<polyline points="355.0,248.5,347.0,249.5,338.5,250.5,330.5,251.0,321.5,251.0,313.5,251.0,305.5,252.0,297.5,253.0,290.0,253.5,282.5,254.0,275.0,255.0,267.0,255.5,259.0,256.5,251.0,257.5,242.5,258.0,235.0,258.5,226.5,259.0,218.5,259.5,210.5,259.5,202.0,259.5,194.0,260.5,186.5,261.0,179.0,261.5,171.0,262.0,163.0,263.0,155.0,263.5" stroke="black" stroke-width="2" fill="none" />
<polyline points="164.0,264.5,171.5,257.0,179.0,249.5,186.5,242.5,194.5,234.5,202.0,227.0" stroke="black" stroke-width="2" fill="none" />
<polyline points="203.5,221.0,195.5,228.0,187.5,235.5,179.5,243.0,171.5,250.5,163.5,257.5" stroke="black" stroke-width="2" fill="none" />
<polyline points="157.5,258.0,165.5,250.5,173.5,243.5,181.5,235.5,189.0,228.0,197.0,220.0,205.0,212.5" stroke="black" stroke-width="2" fill="none" />
<polyline points="203.5,204.0,195.5,211.5,187.5,218.5,180.0,226.0,172.0,233.0,164.0,240.5,156.0,248.5" stroke="black" stroke-width="2" fill="none" />
<polyline points="154.5,252.5,162.5,252.5,170.0,252.5,178.0,252.0,186.5,251.0,194.0,250.5,202.5,250.5,210.0,250.0,218.0,249.5,225.5,248.5,233.5,248.0,242.0,247.5,250.5,247.0,259.0,246.5,267.5,246.5,275.5,246.0,284.0,245.5,292.0,244.5,299.5,244.0,307.5,243.0,315.5,242.5,323.5,242.0,331.0,242.0,339.0,242.0,347.0,242.0,355.5,241.5" stroke="black" stroke-width="2" fill="none" />
<polyline points="355.5,225.5,347.5,226.0,339.5,226.5,330.5,227.0,322.0,227.5,314.0,227.5,306.0,228.0,298.5,228.5,291.0,229.5,283.5,230.5,275.5,231.5,267.5,232.0,260.0,232.0,252.0,232.0,244.5,231.5,236.0,231.5,228.0,232.0,220.0,232.5,212.0,233.0,204.0,233.5,196.0,235.0,187.5,235.5,180.0,236.0,172.0,236.5,164.5,237.0,156.0,237.5,148.0,238.0" stroke="black" stroke-width="2" fill="none" />
<polyline points="148.0,229.5,156.0,229.5,164.5,229.0,172.5,229.0,180.5,229.0,188.0,228.5,195.5,228.0,203.0,228.0,211.0,227.5,219.0,227.0,227.5,226.5,235.0,226.0,243.5,225.0,251.5,224.5,259.0,223.5,267.0,223.0,274.5,222.5,282.5,222.0,290.5,222.0,298.0,221.5,306.0,221.5,314.0,220.5,322.0,220.0,330.0,219.5,338.5,219.5,347.0,219.5,355.5,218.5" stroke="black" stroke-width="2" fill="none" />
<polyline points="352.5,220.0,351.0,212.0,343.0,215.0,340.5,207.0" stroke="black" stroke-width="2" fill="none" />
<polyline points="339.0,195.0,329.0,195.5,323.0,200.5,313.5,201.5,310.0,197.5,303.0,196.5,295.0,191.5" stroke="black" stroke-width="2" fill="none" />
<polyline points="292.0,187.5,284.0,195.5,276.0,203.5" stroke="black" stroke-width="2" fill="none" />
<polyline points="276.0,200.5,284.0,200.0,292.0,200.0" stroke="black" stroke-width="2" fill="none" />
<polyline points="288.5,199.0,293.5,201.0,299.0,203.0,293.0,205.0,294.0,207.0,293.0,210.0,292.5,218.0,306.5,223.0,310.5,231.0,312.5,239.0,313.5,247.0" stroke="black" stroke-width="2" fill="none" />
<polyline points="315.0,244.0,314.5,236.0" stroke="black" stroke-width="2" fill="none" />
<polyline points="315.5,203.5,324.0,196.0" stroke="black" stroke-width="2" fill="none" />
<polyline points="328.5,194.5,329.5,202.5,332.5,210.5,336.5,211.5" stroke="black" stroke-width="2" fill="none" />
<polyline points="308.5,197.0,317.5,188.5,325.5,181.0" stroke="black" stroke-width="2" fill="none" />
<polyline points="312.0,173.5,320.0,177.5,328.0,182.0,336.0,181.0,344.0,188.5" stroke="black" stroke-width="2" fill="none" />
<polyline points="292.0,190.5,283.5,191.5,275.5,192.0,267.5,192.5" stroke="black" stroke-width="2" fill="none" />
<polyline points="263.0,183.0,271.5,194.0,279.0,205.0,287.0,221.0,299.0,219.5,304.0,210.0,306.0,213.0,313.0,223.0" stroke="black" stroke-width="2" fill="none" />
<polyline points="268.0,216.0,260.5,216.5,253.0,217.0,245.0,217.5" stroke="black" stroke-width="2" fill="none" />
<polyline points="245.0,211.0,253.0,210.0,261.5,209.0" stroke="black" stroke-width="2" fill="none" />
<polyline points="251.5,200.5,243.0,200.5,235.0,200.5,227.0,201.0" stroke="black" stroke-width="2" fill="none" />
<polyline points="230.0,208.5,237.5,208.5" stroke="black" stroke-width="2" fill="none" />
<polyline points="233.0,216.0,231.0,224.0,237.5,231.0,239.5,239.0,238.0,238.0,240.0,232.5" stroke="black" stroke-width="2" fill="none" />
<polyline points="236.5,231.0,228.5,231.5,221.0,232.0,213.5,232.0,205.5,232.0,197.5,232.5" stroke="black" stroke-width="2" fill="none" />
<polyline points="167.5,234.5,175.5,227.5,167.0,234.5,160.0,238.0,158.5,246.0" stroke="black" stroke-width="2" fill="none" />
<polyline points="150.0,224.5,153.0,216.5,155.0,213.0,158.0,205.0,165.0,197.0,173.0,189.0,179.0,180.5,185.5,172.5,190.5,166.5,182.5,174.5,175.0,186.5,167.0,194.5,159.5,203.5,151.5,216.0" stroke="black" stroke-width="2" fill="none" />
<polyline points="155.5,218.0,152.5,226.0,150.5,234.0,150.5,242.0" stroke="black" stroke-width="2" fill="none" />
<polyline points="155.5,211.0,163.0,203.5,171.5,196.0,180.0,188.5,188.0,181.0,196.0,173.5,204.0,166.0,212.0,158.0,220.0,150.5,228.0,143.0,236.5,135.0,245.0,127.5,253.5,120.5,261.5,113.0,269.0,105.5,276.5,98.5,284.5,91.5,292.0,84.0" stroke="black" stroke-width="2" fill="none" />
<polyline points="284.5,83.0,276.5,91.0,268.5,98.5,260.0,106.0,251.5,113.5,243.5,121.0,235.0,129.0,227.0,136.5,219.0,144.5,210.5,153.0,202.0,161.0" stroke="black" stroke-width="2" fill="none" />
<polyline points="195.5,159.5,203.0,159.0,211.5,158.0,219.5,157.5,227.0,156.5,235.0,156.0,242.5,155.5,250.5,155.0,258.5,155.0,266.0,154.5,274.0,154.5,282.0,153.5,290.0,153.0,298.0,152.5,306.5,152.5" stroke="black" stroke-width="2" fill="none" />
<polyline points="299.0,136.5,307.0,129.0" stroke="black" stroke-width="2" fill="none" />
<polyline points="299.5,115.0,292.0,122.5,283.5,130.0,275.5,137.5,267.5,144.5,259.5,152.0,251.5,159.5,243.5,166.0,236.0,173.5,228.0,181.0" stroke="black" stroke-width="2" fill="none" />
<polyline points="228.0,176.0,236.0,168.5,244.5,161.5,252.5,153.5,261.0,146.5,269.0,139.0,277.0,131.0,285.0,123.0,293.0,115.0,301.0,107.0" stroke="black" stroke-width="2" fill="none" />
<polyline points="292.5,105.5,284.5,112.5,276.5,120.5,268.5,128.5,260.5,137.0,252.0,145.5,244.5,153.0,236.0,160.5,227.5,168.0,219.0,175.5,210.5,182.5" stroke="black" stroke-width="2" fill="none" />
<polyline points="210.5,175.5,218.5,175.0,227.0,175.0,235.0,175.0,243.5,175.0,251.5,174.5,259.5,173.5,267.0,172.5,275.0,172.0,282.5,171.0" stroke="black" stroke-width="2" fill="none" />
<polyline points="280.0,183.5,291.5,177.0,293.0,185.0,290.0,192.5,292.5,199.5,301.0,202.5,307.0,200.5,307.0,205.0,312.0,209.0,318.0,218.0" stroke="black" stroke-width="2" fill="none" />
<polyline points="307.5,159.5,298.5,160.0,290.0,160.5,282.0,160.5,274.0,161.0,266.5,161.5,259.0,162.5,251.5,163.5,243.5,164.5,235.5,165.0,228.0,165.0,220.0,165.0,212.5,164.5,204.0,164.5,196.0,165.0" stroke="black" stroke-width="2" fill="none" />
<polyline points="194.0,157.0,202.5,149.5,211.0,141.5,219.0,134.5,226.0,128.0,234.0,120.5,242.0,113.0,250.0,105.0,258.0,97.5,266.0,90.0,274.0,82.5" stroke="black" stroke-width="2" fill="none" />
<polyline points="284.5,76.0,292.5,68.5" stroke="black" stroke-width="2" fill="none" />
<polyline points="283.0,68.0,275.0,75.5,267.0,83.0,259.0,90.5,250.5,97.5,242.5,105.5,234.0,113.0,226.0,121.0,218.0,128.5,210.5,135.5,202.5,143.0,194.0,150.5" stroke="black" stroke-width="2" fill="none" />
<polyline points="194.5,150.5,202.5,149.5,210.0,149.0,217.5,148.5,225.5,148.0,233.0,147.5,241.0,147.0,249.5,147.0,258.0,147.0,266.0,146.5,274.0,146.0,282.0,145.0,290.0,144.5,298.0,143.5,306.0,142.5,314.0,141.5" stroke="black" stroke-width="2" fill="none" />
<polyline points="282.5,127.5,274.5,128.0,266.5,128.0" stroke="black" stroke-width="2" fill="none" />
<polyline points="265.5,121.5,273.5,120.5,281.5,120.0" stroke="black" stroke-width="2" fill="none" />
<polyline points="280.5,117.5,288.5,118.5" stroke="black" stroke-width="2" fill="none" />
<polyline points="275.0,111.0,266.5,111.5" stroke="black" stroke-width="2" fill="none" />
<polyline points="259.5,112.0,251.5,112.5" stroke="black" stroke-width="2" fill="none" />
<polyline points="247.0,113.5,255.0,125.0" stroke="black" stroke-width="2" fill="none" />
<polyline points="257.5,121.0,249.5,121.0" stroke="black" stroke-width="2" fill="none" />
<polyline points="256.0,117.5,264.0,135.0" stroke="black" stroke-width="2" fill="none" />
<polyline points="258.0,130.0,250.0,130.5,242.0,131.5" stroke="black" stroke-width="2" fill="none" />
<polyline points="244.5,133.5,236.5,121.5" stroke="black" stroke-width="2" fill="none" />
<polyline points="237.5,112.0,229.5,112.5" stroke="black" stroke-width="2" fill="none" />
<polyline points="227.5,105.5,236.0,105.0" stroke="black" stroke-width="2" fill="none" />
<polyline points="236.0,102.5,245.0,108.5,246.5,116.5,252.5,124.5,257.0,132.5,261.0,140.0,262.0,148.0" stroke="black" stroke-width="2" fill="none" />
<polyline points="283.5,157.5,275.5,157.5,268.0,157.5,260.0,158.0,252.5,158.5,244.5,159.5,237.0,160.0,229.0,160.5,221.0,160.5" stroke="black" stroke-width="2" fill="none" />
<polyline points="220.5,153.0,228.5,152.5,237.0,152.0,244.5,151.5,252.0,151.0,260.0,150.5,268.0,150.0,276.0,149.0" stroke="black" stroke-width="2" fill="none" />
<polyline points="257.5,141.0,249.5,141.5,242.0,142.0,234.0,142.5,226.0,143.5,218.5,144.0" stroke="black" stroke-width="2" fill="none" />
<polyline points="215.5,140.5,214.5,149.0,212.5,157.0" stroke="black" stroke-width="2" fill="none" />
<polyline points="209.5,156.5,207.0,163.5,204.0,163.0,206.0,155.0,208.5,147.0,216.5,139.5,210.5,138.5" stroke="black" stroke-width="2" fill="none" />
<polyline points="218.5,137.0,226.5,136.5,234.5,135.5,242.5,134.5,250.0,133.5,257.0,133.0" stroke="black" stroke-width="2" fill="none" />
<polyline points="264.5,131.0,257.5,117.0" stroke="black" stroke-width="2" fill="none" />
<polyline points="259.0,117.5,262.5,125.5,266.5,135.0,269.5,143.5" stroke="black" stroke-width="2" fill="none" />
<polyline points="308.5,141.0,298.0,130.5,296.5,129.5,294.5,119.0,291.5,110.5,293.5,102.5,287.0,94.5,287.0,86.5,278.5,94.5" stroke="black" stroke-width="2" fill="none" />
<polyline points="277.0,94.0,268.5,94.5,260.0,94.5,252.0,95.0" stroke="black" stroke-width="2" fill="none" />
<polyline points="254.5,101.0,262.5,103.5,266.0,105.0,264.0,108.5" stroke="black" stroke-width="2" fill="none" />
<polyline points="270.0,102.5,277.5,102.0" stroke="black" stroke-width="2" fill="none" />
<polyline points="284.5,93.5,293.5,90.5,291.0,99.0,283.5,107.0,287.5,114.0,289.5,120.0,296.5,125.0,307.0,126.5,309.0,134.5" stroke="black" stroke-width="2" fill="none" />
<polyline points="306.5,95.5,298.5,96.0,289.5,96.0,281.5,96.0,273.5,97.0,265.5,98.0,258.0,98.5,250.5,99.0,243.0,100.0,235.0,100.5,227.0,101.5,219.0,102.5,210.5,103.0,203.0,103.5" stroke="black" stroke-width="2" fill="none" />
<polyline points="195.5,108.5,203.5,108.0,211.5,107.5,219.5,107.5,228.0,107.0,236.0,107.0,243.5,106.5,251.5,105.5,259.5,105.0,267.0,104.5,275.0,104.0,283.0,103.5,291.0,103.5,299.5,103.5,308.5,103.0" stroke="black" stroke-width="2" fill="none" />
<polyline points="309.5,116.5,301.0,117.0,293.0,118.0,285.0,119.0,276.5,120.0,269.0,120.5,261.0,121.0,253.0,121.5,245.0,121.5,236.5,122.0,228.5,122.5,220.0,123.5,211.5,124.0,203.0,124.0,195.0,124.0" stroke="black" stroke-width="2" fill="none" />
<polyline points="199.0,119.0,201.0,127.0,201.0,135.0,201.0,143.0,198.0,153.0" stroke="black" stroke-width="2" fill="none" />
<polyline points="195.0,141.5,202.5,141.5,210.5,141.0,218.5,140.5,226.5,139.5,234.0,139.0,242.0,138.5,250.0,138.5,258.0,137.5,266.0,136.5,274.0,136.0,282.0,135.5,290.0,134.5,298.0,133.5,307.0,132.5,315.5,132.0" stroke="black" stroke-width="2" fill="none" />
<polyline points="306.5,126.0,299.5,126.5,291.5,127.0,283.0,127.0,275.5,127.5,267.0,128.0,259.0,128.5,251.5,129.0,244.0,129.5,236.5,130.0,228.5,130.5,220.0,131.5,211.5,132.5,203.5,133.5,195.0,134.0" stroke="black" stroke-width="2" fill="none" />
<polyline points="203.0,134.5,211.5,126.5,219.5,119.0,228.0,111.5,236.0,104.0,243.5,96.5,251.5,89.5,259.0,82.5,266.5,75.0,274.0,68.0" stroke="black" stroke-width="2" fill="none" />
<polyline points="266.5,70.0,258.5,77.0,250.5,84.5,242.5,91.5,234.5,98.0,227.0,105.0,219.0,112.0" stroke="black" stroke-width="2" fill="none" />
<polyline points="221.5,104.5,229.5,96.5,237.0,89.0,245.0,81.0,253.0,73.0,261.5,66.0" stroke="black" stroke-width="2" fill="none" />
<polyline points="251.5,67.5,244.0,75.0,236.0,82.5,228.5,90.0,220.0,97.0" stroke="black" stroke-width="2" fill="none" />
<polyline points="224.5,98.0,233.0,97.0" stroke="black" stroke-width="2" fill="none" />
<polyline points="235.0,91.5,243.5,92.5,241.5,91.0,242.0,99.0,238.5,99.0,237.0,106.5,236.5,115.0,238.5,123.0,241.0,131.0" stroke="black" stroke-width="2" fill="none" />
<polyline points="242.0,107.0,250.0,106.0" stroke="black" stroke-width="2" fill="none" />
<polyline points="251.5,102.0,259.5,99.5,259.5,109.5,256.5,122.0,260.0,130.0,262.5,138.0,265.0,146.0,264.5,154.0" stroke="black" stroke-width="2" fill="none" />
<polyline points="262.5,182.5,264.5,190.5,275.5,202.0,277.5,210.0,281.0,218.0,279.0,226.0,284.0,229.5,291.5,226.0" stroke="black" stroke-width="2" fill="none" />
<polyline points="277.5,211.0,263.5,197.0,255.0,188.5" stroke="black" stroke-width="2" fill="none" />
<polyline points="258.0,186.0,257.5,194.0,262.5,194.0,265.5,202.0,270.0,210.0,273.0,219.0,274.0,228.0,274.0,236.0,273.5,244.0,273.5,252.0,270.5,265.0,269.5,273.0,268.5,281.0,266.5,289.0,266.0,297.0" stroke="black" stroke-width="2" fill="none" />
<polyline points="203.0,214.0,195.5,213.0,187.5,212.5,201.5,202.0,202.0,194.0" stroke="black" stroke-width="2" fill="none" />
<polyline points="187.5,180.0,179.0,187.5,171.0,194.5,163.0,201.0,155.0,208.0" stroke="black" stroke-width="2" fill="none" />
<polyline points="153.0,208.5,158.0,201.5,153.0,209.0,157.0,195.0,165.0,186.0,173.0,179.5,180.5,173.5" stroke="black" stroke-width="2" fill="none" />
<polyline points="186.0,170.0,174.0,178.0,164.0,186.0,157.0,194.0,152.0,202.0,149.0,209.5,148.5,218.0,146.5,226.0,146.5,234.0,146.0,242.0,147.0,250.0,149.0,258.0,154.0,266.0,158.0,274.0,164.5,282.5,172.5,293.5,180.0,301.5,188.5,311.5,194.5,319.5,203.0,325.5,211.0,330.0,219.0,333.5,227.0,335.5,235.0,338.0,243.0,338.0,251.0,339.0,259.0,339.0,266.5,338.0,274.0,337.0,281.5,334.5,289.0,332.5,297.0,328.5,305.5,323.5,313.5,315.5,321.5,306.0,330.0,295.0,338.0,285.0,345.5,272.0" stroke="black" stroke-width="2" fill="none" />
<polyline points="308.0,110.5,300.5,111.0,293.0,111.0,285.5,111.5,278.0,111.5,269.5,112.5,260.5,113.0,252.0,113.5,243.5,114.0,235.0,114.5,227.0,115.0,219.0,115.0,211.0,115.0,203.5,115.5,196.0,116.0" stroke="black" stroke-width="2" fill="none" />
<polyline points="202.5,125.0,210.5,117.5" stroke="black" stroke-width="2" fill="none" />
<polyline points="211.0,115.0,208.0,115.0,210.5,122.5,210.5,130.5,203.5,136.5,204.0,144.5,201.5,152.5,201.5,160.5,203.5,170.5,207.5,178.5,211.5,183.5,208.5,191.5,204.5,200.0,201.0,208.5,208.5,207.5,207.5,216.0,200.5,220.0,196.5,228.0,190.5,238.0,197.0,227.0,205.0,226.0,211.0,215.0,214.0,218.5,213.0,217.0,208.0,219.0,202.0,227.0,205.5,217.0,207.0,210.0,208.5,196.0,218.0,185.0,225.0,187.5" stroke="black" stroke-width="2" fill="none" />
<polyline points="204.5,169.5,196.5,165.5,199.5,151.5,208.0,139.5,218.0,134.5,217.5,128.5,214.5,122.0,217.0,114.0,222.0,106.0,223.0,98.0,225.0,90.0,225.0,82.0,216.0,77.5,207.5,74.5" stroke="black" stroke-width="2" fill="none" />
<polyline points="205.0,74.0,213.0,69.0,221.0,66.0,229.0,65.0,237.0,65.0,245.0,65.0,253.0,64.0,261.0,64.0,269.0,64.5,277.0,65.5,285.0,66.0,289.0,69.0,276.0,80.0,277.5,88.0,277.0,96.5,278.5,104.5,278.5,112.0,281.0,119.5,283.0,127.5" stroke="black" stroke-width="2" fill="none" />
<polyline points="297.0,104.5,300.0,91.5" stroke="black" stroke-width="2" fill="none" />
<polyline points="244.5,68.5,236.5,76.0" stroke="black" stroke-width="2" fill="none" />
<polyline points="229.5,76.0,237.0,68.5" stroke="black" stroke-width="2" fill="none" />
<polyline points="226.5,67.5,218.5,75.0" stroke="black" stroke-width="2" fill="none" />
<polyline points="219.5,71.5,227.0,71.0,235.0,71.0,243.0,70.5,250.5,70.5,258.0,70.5,266.0,69.5,273.5,69.0" stroke="black" stroke-width="2" fill="none" />
<polyline points="276.5,85.5,269.0,86.0,260.5,86.5,252.5,87.5,244.0,88.0,236.0,88.5,228.0,89.5" stroke="black" stroke-width="2" fill="none" />
<polyline points="237.0,89.5,236.0,97.5,234.5,105.0,235.5,113.5,237.5,121.5,240.0,130.0" stroke="black" stroke-width="2" fill="none" />
<polyline points="217.5,126.5,217.5,124.0,219.5,127.0,218.5,120.0,220.5,112.0,211.5,121.0" stroke="black" stroke-width="2" fill="none" />
<polyline points="208.5,124.5,200.5,132.0" stroke="black" stroke-width="2" fill="none" />
<polyline points="209.0,129.0,217.0,131.5" stroke="black" stroke-width="2" fill="none" />
<polyline points="209.5,91.0,217.0,83.5" stroke="black" stroke-width="2" fill="none" />
<polyline points="216.5,88.5,212.5,93.5,215.5,89.5,221.5,83.5,229.5,81.5,237.0,80.5,245.5,80.5,253.5,80.0,261.5,78.5,269.5,79.0,277.5,79.0,285.5,77.0,293.5,77.0" stroke="black" stroke-width="2" fill="none" />
<polyline points="294.0,61.5,285.5,62.0,277.0,62.5,268.5,63.0,260.5,64.0,252.5,64.5,245.0,65.5,236.5,66.5,228.0,67.0,220.0,67.0,212.0,67.5" stroke="black" stroke-width="2" fill="none" />
<polyline points="210.0,71.5,218.0,74.0,226.0,75.0,233.5,76.0,241.5,76.0,250.0,76.5,258.0,76.0,266.5,75.0,274.5,73.5,282.5,73.5,292.5,67.5,298.5,75.5,300.0,82.5,296.0,91.0,297.0,99.5,299.5,107.5,298.0,115.0,305.0,123.5,297.0,127.0,303.0,135.0" stroke="black" stroke-width="2" fill="none" />
<polyline points="299.0,87.0,291.5,87.0,283.5,87.5,275.5,88.0,267.5,89.0,260.0,89.5,252.0,90.5,243.5,91.0,235.5,91.5,227.0,91.5,218.5,92.0,210.0,92.5,201.5,93.0" stroke="black" stroke-width="2" fill="none" />
<polyline points="203.5,84.0,211.5,83.5,219.0,83.0,227.0,82.0,235.0,82.0,243.0,82.0,251.5,81.0,260.0,80.0,268.0,79.5,276.0,78.5,284.0,78.0,292.0,77.5,300.5,77.5" stroke="black" stroke-width="2" fill="none" />
<polyline points="301.5,70.5,294.0,71.0,286.5,71.5,278.0,72.5,270.0,73.0,262.0,73.5,253.5,74.5,245.0,75.0,237.0,75.5,229.0,76.0,221.0,76.5,212.5,77.5,204.5,78.0" stroke="black" stroke-width="2" fill="none" />
<polyline points="171.5,199.5,167.5,207.5" stroke="black" stroke-width="2" fill="none" />
<polyline points="157.0,205.5,164.5,204.5,172.5,204.0,180.5,203.0,188.5,202.5,196.5,202.0,204.5,201.5,212.5,201.0,220.5,200.5,228.0,200.0,236.0,199.5,244.0,199.5,252.5,199.5,261.0,199.5,269.5,199.5,277.5,199.0,285.5,199.0,294.0,198.5,301.5,198.0,309.0,197.5,317.0,197.0,325.0,196.0,333.5,195.0,341.0,194.0,349.0,193.5,356.5,193.0" stroke="black" stroke-width="2" fill="none" />
</svg>