<svg xmlns="http://www.w3.org/2000/svg" version="1.1"><path d="M207.0,68.5,205.0,76.5,201.0,84.5,201.0,93.0,198.5,101.0,196.5,109.0,194.0,117.0,192.0,125.0,190.5,133.5,189.5,141.5,189.5,150.0,190.5,157.5,194.5,165.0,194.5,167.5,191.5,175.0,189.0,183.0,186.0,185.5,194.0,176.5,203.0,164.5" stroke="black" stroke-width="2" fill="none" />
<path d="M204.0,159.0,212.0,151.0,219.5,143.0,227.5,135.0,235.0,127.0,243.0,119.5,251.0,112.0,259.5,105.0,268.0,97.5,276.0,90.0,284.0,82.5" stroke="black" stroke-width="2" fill="none" />
<path d="M290.0,83.5,282.0,91.0,273.5,98.0,265.5,106.0,257.5,113.5,249.5,121.5,241.5,128.5,234.0,135.5,226.5,142.0,219.0,149.5,211.0,156.5,203.5,164.0,196.0,172.0,188.0,180.0,180.0,188.0,172.0,195.5,164.0,202.5,156.5,210.0" stroke="black" stroke-width="2" fill="none" />
<path d="M156.5,210.0,164.0,202.5,172.5,195.5,180.5,188.0,189.0,181.0" stroke="black" stroke-width="2" fill="none" />
<path d="M180.0,173.0,188.0,172.0,195.5,171.5,203.0,171.0,211.5,170.5,219.5,169.5,227.5,169.5,236.0,169.0,244.5,169.0,252.5,168.5,260.5,167.5,269.0,167.5,276.5,167.0,284.0,167.0,292.0,167.0,300.0,166.5,308.0,166.5,316.0,166.5,324.5,166.5" stroke="black" stroke-width="2" fill="none" />
<path d="M330.5,177.5,322.5,185.0,314.0,193.0" stroke="black" stroke-width="2" fill="none" />
<path d="M312.5,191.5,320.5,191.5,336.5,192.5" stroke="black" stroke-width="2" fill="none" />
<path d="M333.5,197.0,342.0,190.0" stroke="black" stroke-width="2" fill="none" />
<path d="M348.0,196.0,340.0,203.0,332.5,210.0,324.5,217.0,316.5,224.0,308.5,231.5,300.5,239.0,292.5,246.5,284.0,253.5,276.0,261.0,268.0,268.0,260.0,276.0,252.0,284.0,243.5,292.0,235.0,299.5,227.0,307.5,219.0,315.0" stroke="black" stroke-width="2" fill="none" />
<path d="M227.5,323.5,235.5,315.5,243.5,308.0,251.0,300.0,259.0,292.5,267.0,285.0,275.5,277.5,284.0,270.0,292.5,263.5,300.5,256.5,308.5,249.5,316.5,242.0,324.5,235.0,333.0,228.0,341.0,220.0,349.0,212.5" stroke="black" stroke-width="2" fill="none" />
<path d="M349.0,205.0,341.0,212.5,332.0,220.0,324.0,227.0,316.0,234.0,307.5,241.0,299.5,248.0,291.5,255.0,283.0,262.5,275.5,270.5,267.5,278.0,260.0,285.5,252.0,293.0,244.5,300.5,236.5,307.5,229.0,315.0,221.0,323.0" stroke="black" stroke-width="2" fill="none" />
<path d="M227.5,330.0,235.5,329.5,243.5,329.0,252.0,328.0,260.5,327.5,269.0,327.0,276.5,327.0,284.5,327.0" stroke="black" stroke-width="2" fill="none" />
<path d="M265.5,328.0,274.0,321.0,281.5,313.0,289.0,305.0,297.0,297.5,305.5,290.0,313.5,282.5,322.0,275.0,330.5,267.0,339.0,259.0,347.5,251.5,355.5,244.0" stroke="black" stroke-width="2" fill="none" />
<path d="M356.0,237.0,347.5,245.0,340.0,252.5,331.5,260.0,322.5,267.0,314.5,274.5,306.5,282.0,299.0,289.0,291.0,296.5,283.0,304.0,275.0,311.5,267.0,319.0,258.5,326.0" stroke="black" stroke-width="2" fill="none" />
<path d="M252.0,326.0,260.0,318.5,268.5,311.0,276.0,303.0,284.0,295.5,292.0,288.0,300.5,281.0,308.5,273.5,316.5,266.0,324.0,259.0,332.0,251.5,340.0,244.5,348.0,236.5,356.0,229.0" stroke="black" stroke-width="2" fill="none" />
<path d="M354.0,219.5,346.5,227.0,339.0,235.0,331.5,242.5,323.5,250.0,316.0,258.0,308.0,265.0,300.0,272.5,292.5,279.0,284.5,286.0,277.0,293.5,268.5,301.0,260.5,308.5,252.5,316.5,245.0,324.5" stroke="black" stroke-width="2" fill="none" />
<path d="M234.5,322.0,243.0,315.0,251.5,308.0,259.5,301.0,267.5,294.0,275.5,286.0,283.5,278.5,291.5,271.5,299.0,264.0,306.5,257.0,315.0,250.0,323.5,242.5,331.5,234.5,339.5,227.0,347.0,220.0" stroke="black" stroke-width="2" fill="none" />
<path d="M356.5,208.5,347.5,209.5,339.5,210.5,331.0,211.5,322.0,212.0,314.0,212.5,306.0,213.0,298.5,213.5,291.0,214.5,284.0,215.0,276.5,215.0,268.0,215.5,260.0,216.0,252.0,216.5,244.5,216.0,236.5,216.5,228.5,217.0,220.5,217.5,213.0,218.0,205.0,218.5,197.5,219.0,189.5,219.5,181.5,219.5,173.0,220.0,164.5,220.0,156.5,220.5" stroke="black" stroke-width="2" fill="none" />
<path d="M155.0,219.0,152.5,227.0,150.5,234.5,150.5,242.5" stroke="black" stroke-width="2" fill="none" />
<path d="M149.5,238.0,158.0,237.5,166.0,236.5,173.5,236.0,181.5,235.5,189.0,235.0,196.0,234.0,203.0,233.5,210.5,233.0,218.5,232.0,226.5,231.5,234.5,231.5,243.0,231.0,251.5,230.5,259.5,230.0,267.5,229.0,275.5,229.0,283.5,228.0,291.0,227.5,299.0,227.0,306.5,226.5,314.5,226.5,323.0,226.0,331.5,226.0,340.0,225.5,347.5,224.5,356.0,224.0" stroke="black" stroke-width="2" fill="none" />
<path d="M348.0,240.0,339.5,240.5" stroke="black" stroke-width="2" fill="none" />
<path d="M341.0,251.5,349.0,251.0" stroke="black" stroke-width="2" fill="none" />
<path d="M347.0,257.5,339.5,265.0,332.0,273.0,324.0,281.0,316.0,289.0,308.0,296.5,300.0,303.5,292.5,311.0,284.5,318.0,276.5,325.0" stroke="black" stroke-width="2" fill="none" />
<path d="M283.0,326.5,291.5,320.0,300.0,313.0,307.5,305.5,315.5,298.0,324.0,290.5,332.0,283.0,340.5,275.5" stroke="black" stroke-width="2" fill="none" />
<path d="M337.5,271.5,329.5,272.0" stroke="black" stroke-width="2" fill="none" />
<path d="M323.0,299.5,315.0,307.0,307.0,314.5,299.0,321.5,291.5,328.0" stroke="black" stroke-width="2" fill="none" />
<path d="M274.5,288.0,282.5,287.5,291.0,288.0,299.0,288.0,307.5,288.0,316.0,288.0,324.0,287.5,332.0,287.0" stroke="black" stroke-width="2" fill="none" />
<path d="M331.0,279.0,323.0,279.5,314.5,280.5,306.5,281.0,298.5,282.0" stroke="black" stroke-width="2" fill="none" />
<path d="M298.5,274.0,307.0,273.5,315.5,272.5,323.5,272.0" stroke="black" stroke-width="2" fill="none" />
<path d="M340.5,262.5,332.5,263.0,324.0,264.0,316.0,265.0,307.5,266.0,299.0,266.5" stroke="black" stroke-width="2" fill="none" />
<path d="M293.0,266.0,291.0,274.0,291.5,282.0" stroke="black" stroke-width="2" fill="none" />
<path d="M290.0,281.0,282.0,281.0,273.5,282.0" stroke="black" stroke-width="2" fill="none" />
<path d="M268.0,288.5,260.5,288.5,253.0,289.0" stroke="black" stroke-width="2" fill="none" />
<path d="M249.0,281.5,257.5,281.0,265.5,281.0" stroke="black" stroke-width="2" fill="none" />
<path d="M244.0,288.0,235.5,288.5,227.5,288.5,219.0,288.5,211.0,288.5,202.5,288.5,194.5,288.5,187.0,289.0" stroke="black" stroke-width="2" fill="none" />
<path d="M186.5,292.5,194.5,285.0,202.5,278.0,211.0,271.0,219.0,263.5,227.5,256.5,236.0,249.5,244.0,242.5,252.0,235.5,259.5,228.0,267.5,220.5" stroke="black" stroke-width="2" fill="none" />
<path d="M267.5,212.0,260.0,220.0,252.5,227.5" stroke="black" stroke-width="2" fill="none" />
<path d="M251.0,234.0,259.5,233.5,267.0,232.5,275.5,231.5,283.5,230.0" stroke="black" stroke-width="2" fill="none" />
<path d="M285.0,226.5,276.5,234.0,268.5,242.5,260.0,250.5,252.0,258.5,244.5,266.5,236.0,274.0,228.0,282.0,220.5,289.5,213.0,296.5,205.0,303.5,197.0,311.0" stroke="black" stroke-width="2" fill="none" />
<path d="M204.0,309.0,212.5,302.0,221.0,295.0,228.5,287.5,236.0,279.5,244.5,272.0,252.5,264.5,261.0,256.5,269.0,249.0,277.0,241.5,285.0,234.0,292.5,227.0,300.0,219.0" stroke="black" stroke-width="2" fill="none" />
<path d="M307.5,218.0,299.5,226.0,292.0,234.0,284.5,241.0,277.0,248.0,269.0,255.5,261.0,263.5,253.5,271.0,245.5,278.5,238.0,285.5,230.0,292.5,222.0,300.0,213.5,307.5,205.5,315.0" stroke="black" stroke-width="2" fill="none" />
<path d="M204.5,314.0,212.5,313.5,220.5,313.5,228.0,312.5,236.0,311.5,243.5,310.5,251.5,310.0,259.5,309.5,267.0,309.0,275.5,308.5,283.5,308.0,291.5,307.5,299.5,307.0,307.0,306.5,315.0,306.0" stroke="black" stroke-width="2" fill="none" />
<path d="M301.0,260.0,308.5,259.5,315.5,258.5,323.5,258.0,331.5,257.0,339.5,256.0" stroke="black" stroke-width="2" fill="none" />
<path d="M325.0,248.5,316.5,249.0,308.5,249.5,300.0,250.0" stroke="black" stroke-width="2" fill="none" />
<path d="M301.5,241.0,309.5,241.0,317.0,241.0,325.0,240.5" stroke="black" stroke-width="2" fill="none" />
<path d="M323.0,231.5,314.5,231.5,306.5,231.5,298.5,231.5" stroke="black" stroke-width="2" fill="none" />
<path d="M291.0,246.5,283.0,247.0,275.0,247.5,267.5,248.0,259.5,248.5,251.5,249.0" stroke="black" stroke-width="2" fill="none" />
<path d="M252.0,241.0,260.5,241.0,268.5,240.0,276.5,239.5,284.5,238.5,292.5,238.0" stroke="black" stroke-width="2" fill="none" />
<path d="M291.0,251.0,283.0,251.5,275.0,252.0,267.5,253.0,260.0,253.5,252.0,253.5,244.0,253.5,236.5,254.0,228.5,254.5,220.5,254.5,212.5,255.5,204.0,256.0,195.5,256.0,187.5,256.0,179.0,256.5" stroke="black" stroke-width="2" fill="none" />
<path d="M179.0,266.0,186.5,265.5,194.5,264.5,202.0,264.5,210.0,264.5,218.0,264.5,226.0,264.0,235.0,263.5,243.5,263.0,251.5,263.5,259.5,263.0,267.5,262.5,275.5,261.5,283.5,260.5,291.5,260.0" stroke="black" stroke-width="2" fill="none" />
<path d="M291.5,256.5,290.0,264.5,289.0,272.5,288.5,280.5,286.5,288.0" stroke="black" stroke-width="2" fill="none" />
<path d="M324.5,292.0,316.5,292.5,308.5,293.0,300.0,293.0,292.0,294.0,284.5,294.5,275.5,295.5,267.5,296.5,259.0,297.5,250.0,298.0,242.0,298.5" stroke="black" stroke-width="2" fill="none" />
<path d="M235.0,296.0,227.5,296.0,220.0,296.0,212.5,296.5,205.0,297.0,197.5,297.0" stroke="black" stroke-width="2" fill="none" />
<path d="M196.5,291.5,205.0,284.0,212.5,276.5,220.5,269.0,228.5,262.0,236.5,254.5,244.5,247.5,253.5,240.5,261.5,233.0,269.0,225.0,277.0,217.0,284.5,209.5,292.5,201.0,300.0,193.0,307.5,185.0,315.5,177.0" stroke="black" stroke-width="2" fill="none" />
<path d="M312.0,174.5,320.0,178.5,328.0,182.5,336.0,181.0,344.5,187.5" stroke="black" stroke-width="2" fill="none" />
<path d="M340.5,170.5,333.0,171.0,324.5,171.5,316.0,172.5,307.5,173.5,299.5,174.0,292.0,174.5,284.5,175.0,276.5,175.0,268.5,175.0,260.5,175.5,252.5,176.0,244.5,176.5,236.5,177.0,228.0,177.5,219.5,178.0,211.0,178.5,203.0,179.0,196.0,180.0,188.5,180.5,181.0,181.5,173.0,182.0" stroke="black" stroke-width="2" fill="none" />
<path d="M163.0,189.5,171.0,189.5,179.0,189.5,187.0,189.0,195.0,188.5,202.5,188.0,211.0,187.5,219.5,187.0,228.0,187.0,236.5,187.0,245.0,186.0,253.0,186.0,261.0,185.0,269.5,184.5,277.5,184.0,285.5,183.0,293.0,182.0,300.0,181.0,307.5,180.5,315.0,180.5,323.0,180.0,331.5,179.5,339.0,178.5,347.5,177.5" stroke="black" stroke-width="2" fill="none" />
<path d="M323.5,180.0,315.0,187.5,307.0,195.5" stroke="black" stroke-width="2" fill="none" />
<path d="M304.5,186.0,312.5,190.0,318.5,189.5,332.5,191.5,337.0,188.5,345.0,193.0" stroke="black" stroke-width="2" fill="none" />
<path d="M355.5,201.0,347.5,202.0,339.0,202.5,330.5,203.5,322.5,204.5,314.5,205.0,306.5,206.0,298.5,206.5,291.0,207.0,283.5,207.5,276.5,208.0,269.0,208.0,261.0,208.0,253.0,208.0,245.0,209.0,237.0,209.5,229.0,210.0,221.5,210.0,213.5,210.5,206.0,211.0,198.5,211.0,190.0,211.5,181.5,211.5,173.5,211.0,165.5,211.0,157.5,211.5" stroke="black" stroke-width="2" fill="none" />
<path d="M156.0,205.5,164.0,204.5,172.5,204.0,180.5,203.0,189.0,202.5,197.0,202.0,205.0,201.5,213.0,202.0,221.0,201.5,229.5,201.0,237.5,200.0,245.0,200.0,252.5,199.5,260.0,199.0,267.5,199.0,275.0,199.0,282.5,198.5,289.5,198.0,297.0,197.0,305.0,196.5,313.0,196.0,321.0,195.5,330.0,195.0,338.5,194.0,347.0,194.0,356.0,193.0" stroke="black" stroke-width="2" fill="none" />
<path d="M356.0,186.0,347.5,186.5,339.0,186.0,330.5,186.0,322.5,186.5,314.5,187.0,306.5,187.0,299.0,188.0,291.0,188.5,283.0,189.0,274.5,189.5,267.0,190.0,259.0,191.5,251.5,192.5,244.0,193.0,236.0,194.5,228.5,195.0,220.5,195.5,212.5,196.0,204.5,196.5,197.0,197.0,188.5,197.5,181.0,198.0,173.0,198.5,164.0,198.5,156.0,198.5" stroke="black" stroke-width="2" fill="none" />
<path d="M151.5,208.0,156.5,200.5,151.5,208.0,155.5,193.5,163.5,184.0,172.0,178.0,180.0,171.5" stroke="black" stroke-width="2" fill="none" />
<path d="M186.5,169.0,174.5,177.0,164.5,185.0,158.0,193.5,153.0,201.5,150.5,210.0,149.5,218.0,147.5,226.0,147.5,234.0,146.5,242.0,147.5,250.0,149.5,258.0,154.5,265.5,158.5,273.5,165.5,282.5,173.5,293.0,181.5,301.0,189.5,311.0,195.5,319.0,203.5,325.0,211.5,330.0,219.5,333.0,227.5,335.0,235.5,337.0,243.5,336.5,252.0,337.5,259.5,338.0,267.5,337.5,275.0,336.5,283.0,335.0,291.0,333.5,299.0,329.0,307.0,324.0,315.0,316.0,323.0,305.5,331.0,294.5,339.5,284.5,347.5,271.0" stroke="black" stroke-width="2" fill="none" />
<path d="M316.5,297.5,308.5,298.5,300.5,299.0,292.5,300.0,284.0,300.0,276.0,300.5,268.0,301.0,260.0,301.5,252.0,302.5,244.0,303.0,236.0,304.0,228.0,304.5,220.0,305.5,212.0,306.0,204.0,307.0" stroke="black" stroke-width="2" fill="none" />
<path d="M211.5,315.0,219.5,307.5,227.0,300.5,235.0,293.0,242.5,285.5,250.5,278.5,258.5,271.0,266.5,263.5,274.0,256.0,282.0,248.5,290.5,241.5,298.5,234.0,306.5,226.5,315.0,219.0,323.5,211.5,332.0,204.0" stroke="black" stroke-width="2" fill="none" />
<path d="M325.5,204.5,317.5,212.0" stroke="black" stroke-width="2" fill="none" />
<path d="M321.0,211.5,313.0,211.5" stroke="black" stroke-width="2" fill="none" />
<path d="M315.5,203.5,323.5,196.0" stroke="black" stroke-width="2" fill="none" />
<path d="M325.5,197.0,333.5,201.0,334.5,204.0" stroke="black" stroke-width="2" fill="none" />
<path d="M340.0,206.5,342.5,214.5,350.5,212.0,353.0,220.0" stroke="black" stroke-width="2" fill="none" />
<path d="M357.5,249.5,349.0,249.5,340.0,249.5,332.0,249.5,324.0,250.0,316.0,250.0,307.5,250.5,300.0,251.5,292.0,252.5,284.5,253.0,276.5,254.5,269.0,255.0,261.5,256.0,253.5,257.0,245.5,257.5,237.5,258.5,229.5,259.0,221.0,259.5,212.5,260.0,203.5,260.0,195.0,260.5,187.0,260.5,179.0,261.5,170.5,262.0,162.0,262.5,154.0,263.0" stroke="black" stroke-width="2" fill="none" />
<path d="M162.5,266.0,171.0,259.0,179.5,251.5,188.5,244.0,197.0,236.5,205.0,229.0" stroke="black" stroke-width="2" fill="none" />
<path d="M205.5,220.5,197.0,228.0,189.0,235.0,180.5,242.0,172.0,249.5,163.5,256.5" stroke="black" stroke-width="2" fill="none" />
<path d="M156.0,254.0,164.5,246.5,172.5,239.5,180.5,232.5,189.0,225.5,197.0,218.5,205.5,211.0" stroke="black" stroke-width="2" fill="none" />
<path d="M204.5,203.0,196.0,210.5,188.5,218.0,181.0,225.5,173.5,233.0,165.0,240.5,157.5,247.5" stroke="black" stroke-width="2" fill="none" />
<path d="M157.0,244.0,165.0,243.5,172.0,243.0,180.0,242.5,188.0,242.5,195.5,242.0,203.5,242.0,211.5,242.0,220.0,242.0,228.0,241.5,236.0,240.5,244.5,240.5,252.5,240.5,260.0,240.5,268.0,239.5,276.0,239.0,283.5,239.0,291.0,238.5,299.0,238.0,307.0,237.5,314.5,237.0,322.5,236.5,331.0,235.5,339.5,235.0,347.0,234.0,355.0,233.5" stroke="black" stroke-width="2" fill="none" />
<path d="M337.5,267.0,329.5,267.0,321.0,267.5,313.5,268.0,306.0,268.0,298.5,268.5,291.5,269.0,283.5,269.0,276.0,270.0,268.0,270.0,260.0,270.5,252.0,271.0,243.5,271.0,235.5,271.5,228.0,272.5,220.5,273.0,213.0,273.5,205.0,274.0,197.0,275.0,189.0,276.0,180.5,277.0,172.0,278.5,164.0,279.0" stroke="black" stroke-width="2" fill="none" />
<path d="M171.0,278.5,179.5,271.0,187.0,263.5,194.5,256.0,202.5,248.0,210.0,240.5,218.0,233.5,226.0,225.5,234.0,218.0,242.5,210.5,250.5,203.5,258.5,196.0" stroke="black" stroke-width="2" fill="none" />
<path d="M255.0,196.5,263.0,203.5" stroke="black" stroke-width="2" fill="none" />
<path d="M260.0,204.0,252.5,211.5,245.0,219.0,237.0,226.0,229.0,233.5,220.5,241.5,213.0,248.5,204.5,256.0,196.5,264.0,188.0,271.5,179.5,279.0" stroke="black" stroke-width="2" fill="none" />
<path d="M179.0,281.5,187.0,281.0,194.5,280.0,202.5,279.5,211.0,279.5,219.0,279.5,227.0,279.5,235.5,279.5" stroke="black" stroke-width="2" fill="none" />
<path d="M237.0,281.0,244.0,280.0,245.0,288.5,243.0,298.0" stroke="black" stroke-width="2" fill="none" />
<path d="M243.5,278.5,237.5,287.5,240.0,285.5,240.0,277.5" stroke="black" stroke-width="2" fill="none" />
<path d="M245.5,237.5,237.0,245.0,229.0,251.5,220.5,258.5,212.0,265.5,203.5,272.5,195.5,280.0,188.0,287.0" stroke="black" stroke-width="2" fill="none" />
<path d="M181.0,288.5,189.0,281.5,197.0,274.0,204.5,267.0,211.5,259.0,219.0,251.5,227.0,243.5,235.0,236.0" stroke="black" stroke-width="2" fill="none" />
<path d="M237.5,238.5,229.5,239.5,221.5,240.5,213.5,241.0,205.5,242.0,197.0,242.5,188.5,242.5,180.5,243.5" stroke="black" stroke-width="2" fill="none" />
<path d="M171.5,250.0,180.0,249.5,187.5,248.5,195.5,248.0,204.0,248.0,212.0,247.5,220.5,247.0,228.5,246.0,237.0,245.5,245.5,246.0" stroke="black" stroke-width="2" fill="none" />
<path d="M237.5,233.0,245.5,230.0" stroke="black" stroke-width="2" fill="none" />
<path d="M245.0,224.5,253.5,217.0,261.0,209.5,269.0,202.0,277.0,194.5,285.5,186.5" stroke="black" stroke-width="2" fill="none" />
<path d="M283.5,182.5,276.0,183.5,267.5,184.0,259.0,184.0,250.5,184.5,242.5,184.5" stroke="black" stroke-width="2" fill="none" />
<path d="M242.5,193.0,250.5,192.5" stroke="black" stroke-width="2" fill="none" />
<path d="M252.5,187.0,255.5,195.0,262.5,203.5,267.5,211.5,269.5,219.5,270.5,227.5,270.5,235.5,271.0,243.5,271.0,252.0,273.0,264.0,272.0,272.0,271.0,281.0,269.0,289.5,267.0,298.0" stroke="black" stroke-width="2" fill="none" />
<path d="M290.5,330.0,283.0,330.5,275.5,331.0,268.0,331.0,259.5,331.5,251.0,331.5,243.0,331.5,235.0,332.0,227.0,332.0" stroke="black" stroke-width="2" fill="none" />
<path d="M204.5,325.0,212.5,324.5,220.5,324.0,228.5,324.0,236.5,324.0,244.0,323.5,251.5,323.0,259.5,322.5,268.0,321.5,276.5,320.5,285.0,320.0,292.5,319.5,300.0,319.5,307.5,319.5" stroke="black" stroke-width="2" fill="none" />
<path d="M306.0,316.0,297.5,316.0,289.5,316.0,281.0,316.5,273.5,317.0,266.0,317.0,258.5,317.5,251.5,318.0,243.5,318.0,236.0,319.0,228.0,319.0,220.0,319.5,212.0,320.0,203.5,320.0" stroke="black" stroke-width="2" fill="none" />
<path d="M197.0,318.5,205.0,318.0,213.0,317.0,221.0,317.0,229.0,317.0,236.5,317.0,243.5,316.5,251.0,316.0,258.5,315.5,266.5,315.0,274.5,314.0,282.5,313.5,290.5,312.5,299.0,311.5,307.5,311.0,315.5,310.0" stroke="black" stroke-width="2" fill="none" />
<path d="M322.5,301.0,314.5,302.5,306.5,303.0,298.0,303.5,290.5,303.5,283.0,304.0,275.5,304.5,268.0,305.5,260.0,306.0,251.5,306.5,243.5,307.0,235.0,308.0,227.0,308.0,219.0,309.0,210.5,309.0,202.5,309.5,194.0,310.0,186.0,311.0" stroke="black" stroke-width="2" fill="none" />
<path d="M185.5,301.0,194.0,301.0,202.5,301.0,211.0,301.0,219.0,300.5,227.0,300.5,235.0,300.0,243.5,299.5,251.5,299.0,259.0,298.5,267.0,298.0,275.0,297.0,283.0,296.5,290.5,295.5,298.0,294.5,306.5,293.5,314.0,292.5,322.0,291.5" stroke="black" stroke-width="2" fill="none" />
<path d="M330.0,284.5,323.0,285.0,315.5,285.5,307.5,286.5,299.5,287.0,292.5,288.0,285.0,289.0,277.0,289.5,269.5,290.5,261.5,290.5,253.5,291.5,245.5,292.0,237.0,292.0,228.5,292.0,220.0,291.5,211.5,292.0,203.0,292.0,194.5,292.5,186.5,292.5,178.0,292.5" stroke="black" stroke-width="2" fill="none" />
<path d="M171.0,285.0,179.0,284.0,186.0,284.0,193.5,284.0,201.0,284.0,209.5,284.0,217.0,283.0,225.0,282.0,233.0,281.0,241.5,280.0,249.5,279.0,257.5,278.5,265.5,278.5,274.0,278.5,282.5,278.5,290.5,278.5,298.5,278.0,307.0,278.0,314.5,277.5,322.0,277.0,330.0,276.0,338.0,276.0" stroke="black" stroke-width="2" fill="none" />
<path d="M347.0,257.5,339.5,258.0,331.5,258.5,323.5,259.0,315.5,259.5,307.0,260.0,299.5,260.5,291.5,261.0,283.5,261.5,276.0,262.5,268.0,263.5,260.5,264.5,252.5,264.5,244.5,265.0,236.5,266.0,228.5,266.0,221.0,266.5,213.0,267.5,204.5,268.0,196.5,268.5,188.0,268.5,179.5,269.0,171.0,269.5,162.5,270.0" stroke="black" stroke-width="2" fill="none" />
<path d="M163.5,268.0,171.5,260.0,180.0,252.5,188.5,245.0,196.5,237.5,204.5,230.0,212.0,222.5,220.5,215.0,228.5,207.0,236.0,199.5,244.0,192.0,252.0,184.5,260.5,176.5,269.0,168.5,277.5,161.0,285.5,153.0,293.5,146.0" stroke="black" stroke-width="2" fill="none" />
<path d="M292.5,139.0,284.5,146.0,276.5,153.5,269.0,161.0,261.0,169.0,253.0,176.5,244.5,184.5,235.5,192.5,227.0,200.5,219.0,208.0" stroke="black" stroke-width="2" fill="none" />
<path d="M215.5,210.0,223.5,201.0,214.5,205.5,211.5,213.5,212.5,201.5,218.5,199.0" stroke="black" stroke-width="2" fill="none" />
<path d="M210.5,196.5,219.0,188.5" stroke="black" stroke-width="2" fill="none" />
<path d="M224.0,190.5,221.5,198.5,219.0,206.5,215.5,216.0,210.5,222.5,222.5,222.5,230.5,214.5" stroke="black" stroke-width="2" fill="none" />
<path d="M232.0,213.5,220.5,222.0,222.5,225.0,230.5,220.5" stroke="black" stroke-width="2" fill="none" />
<path d="M228.5,225.5,236.0,225.5,244.0,225.0,251.5,224.5,259.5,224.5,267.0,224.0" stroke="black" stroke-width="2" fill="none" />
<path d="M275.0,208.5,283.5,201.0,291.5,193.5,300.0,186.0,308.0,178.5" stroke="black" stroke-width="2" fill="none" />
<path d="M311.5,170.0,311.5,173.0,323.0,180.5,336.0,188.5,347.0,196.5,351.5,204.5,355.0,212.0,357.5,220.0,358.5,228.0,359.0,236.0,358.5,244.0,357.0,252.0,354.0,259.5,350.0,267.0,344.5,275.0,339.5,282.5,333.5,290.5,327.5,298.5,321.5,306.5,314.5,314.5,305.5,322.5,290.5,330.5" stroke="black" stroke-width="2" fill="none" />
<path d="M291.5,267.5,283.0,268.0,275.0,268.0,267.0,268.0,259.5,268.0,251.5,268.5,243.5,269.0,235.5,269.5,227.0,269.5,219.0,269.5,210.5,270.0,202.5,270.5,195.0,271.0,187.0,271.5,178.5,271.5,170.5,272.0" stroke="black" stroke-width="2" fill="none" />
<path d="M171.5,269.0,180.0,261.5,188.0,253.5,196.0,245.5,203.5,237.0,212.0,229.5,220.5,222.0,228.5,214.5,236.5,207.5,244.5,200.0,252.5,192.5,261.5,185.0,269.5,177.5,278.0,170.5,286.0,163.0,294.0,155.0,302.5,147.0,310.5,139.5" stroke="black" stroke-width="2" fill="none" />
<path d="M308.5,131.0,301.0,139.0" stroke="black" stroke-width="2" fill="none" />
<path d="M308.5,148.5,300.5,155.5,292.5,163.0,285.0,170.0,277.0,177.0,269.0,184.0" stroke="black" stroke-width="2" fill="none" />
<path d="M266.0,184.5,270.0,192.5,275.5,200.0,281.5,210.0,285.0,218.0,283.0,225.5,291.0,224.5,294.5,229.0" stroke="black" stroke-width="2" fill="none" />
<path d="M291.0,208.0,283.5,208.0" stroke="black" stroke-width="2" fill="none" />
<path d="M288.0,208.0,296.0,206.5,301.5,214.5,303.5,218.0,307.0,223.0" stroke="black" stroke-width="2" fill="none" />
<path d="M324.5,224.5,314.5,218.5,310.5,217.5,310.5,209.5,310.0,203.5,299.0,199.0,297.0,191.5,288.0,189.5,281.5,188.5,282.5,181.0,294.5,171.0,306.5,163.0,310.5,155.5,310.5,147.0,311.0,138.5,311.0,130.5,309.0,122.5,305.0,118.5,307.5,110.5,303.5,108.5,303.0,100.5,300.5,93.0,288.5,100.0" stroke="black" stroke-width="2" fill="none" />
<path d="M290.5,100.0,298.5,100.5,300.5,111.5,300.5,119.5" stroke="black" stroke-width="2" fill="none" />
<path d="M300.0,123.0,292.0,131.0,284.0,138.5,276.0,146.5,268.0,154.5,259.5,162.5,251.0,170.0,242.5,177.5,234.0,185.5,226.5,193.0" stroke="black" stroke-width="2" fill="none" />
<path d="M228.0,194.5,235.5,193.5" stroke="black" stroke-width="2" fill="none" />
<path d="M227.0,200.0,235.0,199.5,243.0,199.0,251.5,199.0" stroke="black" stroke-width="2" fill="none" />
<path d="M258.5,189.5,266.5,198.5,280.0,212.5" stroke="black" stroke-width="2" fill="none" />
<path d="M275.5,201.5,283.0,201.0,290.5,200.5" stroke="black" stroke-width="2" fill="none" />
<path d="M288.0,199.0,292.5,201.0,298.5,203.0,292.5,205.0,293.5,207.0,293.0,210.5,292.0,218.5,306.0,224.0,310.0,232.5,312.5,240.0,314.0,248.5" stroke="black" stroke-width="2" fill="none" />
<path d="M315.5,247.0,314.5,239.0" stroke="black" stroke-width="2" fill="none" />
<path d="M300.0,203.0,292.5,210.5,285.0,218.5,277.0,226.5,269.0,235.0,261.0,242.5,253.0,249.5,244.5,257.0,236.5,264.5,228.5,272.5,220.5,280.0,212.5,287.5,204.5,294.5,196.5,301.5" stroke="black" stroke-width="2" fill="none" />
<path d="M155.5,253.5,163.5,252.5,171.5,251.5,179.5,251.0,188.0,251.0,196.5,251.0,204.0,251.0,212.0,251.0,220.5,251.0,228.5,250.5,236.5,250.0,244.5,249.5,252.5,249.0,260.5,248.5,268.0,247.5,276.0,247.5,283.5,246.5,291.5,246.0,299.5,245.5,307.5,245.0,315.5,244.5,323.5,243.5,331.0,243.0,339.5,242.0,348.0,241.0,356.5,240.0" stroke="black" stroke-width="2" fill="none" />
<path d="M354.0,213.5,345.5,214.0,338.0,214.5,330.5,215.0,322.5,216.0,314.5,216.5,306.5,217.5,298.5,217.5,290.0,218.0,282.0,218.5,273.5,219.0,266.0,220.0,257.5,220.5,249.0,222.5,241.0,223.5,233.0,225.0,225.0,225.5,217.0,226.0,209.5,226.0,202.0,226.0,195.5,226.0,188.5,227.0,180.5,227.5,172.5,227.5,165.0,228.0,157.0,228.0,149.0,228.5" stroke="black" stroke-width="2" fill="none" />
<path d="M153.5,221.5,156.5,220.5,156.0,229.0,154.0,237.0,154.0,245.0,152.0,252.5,154.0,260.5,162.0,267.5,163.0,275.5,165.5,283.5,170.5,291.5,178.5,300.0,186.0,308.0,193.0,317.0,202.5,325.0,219.0,333.0" stroke="black" stroke-width="2" fill="none" />
<path d="M196.0,235.5,204.0,234.0,211.5,233.5,219.0,232.5,227.0,231.0,234.5,230.5" stroke="black" stroke-width="2" fill="none" />
<path d="M242.5,219.0,250.5,218.5,258.5,217.5,267.0,216.5" stroke="black" stroke-width="2" fill="none" />
<path d="M276.5,200.5,284.0,193.0,292.0,185.0" stroke="black" stroke-width="2" fill="none" />
<path d="M287.0,181.5,287.0,185.5,292.0,184.5,298.5,181.0,306.5,176.0,313.0,178.0,320.5,183.5" stroke="black" stroke-width="2" fill="none" />
<path d="M331.0,177.5,322.5,172.5,314.5,167.5,306.0,167.0" stroke="black" stroke-width="2" fill="none" />
<path d="M307.5,163.5,299.0,171.0" stroke="black" stroke-width="2" fill="none" />
<path d="M298.5,164.5,314.5,168.5,327.0,176.5,333.5,184.0,343.0,188.5,351.5,196.0" stroke="black" stroke-width="2" fill="none" />
<path d="M339.5,193.5,329.0,195.0,323.5,200.0,314.0,201.0,311.0,197.0,303.5,196.0,295.5,190.5" stroke="black" stroke-width="2" fill="none" />
<path d="M294.0,193.0,285.5,193.5,277.5,194.0,269.5,194.5" stroke="black" stroke-width="2" fill="none" />
<path d="M267.0,193.0,275.5,185.5,284.0,177.5,292.0,170.0,300.5,162.0,309.0,154.5" stroke="black" stroke-width="2" fill="none" />
<path d="M306.0,156.0,298.0,164.5,305.0,158.5" stroke="black" stroke-width="2" fill="none" />
<path d="M299.0,163.5,291.5,164.5,283.0,165.0,275.0,165.5,267.5,165.5,260.0,166.0,253.0,167.0,245.5,168.0,237.5,169.0,229.5,169.5,221.0,170.0,213.0,171.0,205.0,171.0" stroke="black" stroke-width="2" fill="none" />
<path d="M211.5,177.5,219.5,177.0,227.0,177.0,235.0,177.0,243.0,177.0,251.5,176.5,259.5,176.0,268.5,175.5,277.0,174.5,285.0,174.0" stroke="black" stroke-width="2" fill="none" />
<path d="M286.5,176.0,294.5,172.5,302.5,167.5,310.0,171.5,302.0,173.5,305.0,185.5,312.0,190.0,311.0,195.5,316.5,202.5,317.0,210.0,319.0,214.0,322.5,215.5,321.0,218.5" stroke="black" stroke-width="2" fill="none" />
<path d="M318.0,217.0,312.0,208.0,307.0,204.5,306.5,200.0,300.5,202.0,292.0,198.5,290.0,191.5,293.0,184.5,291.5,176.0,280.0,183.5" stroke="black" stroke-width="2" fill="none" />
<path d="M263.5,184.0,265.5,192.0,277.0,202.5,279.0,210.0,283.0,218.0,281.0,225.5,286.0,228.5,292.5,224.5" stroke="black" stroke-width="2" fill="none" />
<path d="M258.0,209.0,249.0,209.5,241.0,210.0" stroke="black" stroke-width="2" fill="none" />
<path d="M235.5,208.0,227.0,208.5" stroke="black" stroke-width="2" fill="none" />
<path d="M233.0,215.0,231.0,223.0,237.5,230.5,239.5,238.5,238.0,238.0,240.0,233.0" stroke="black" stroke-width="2" fill="none" />
<path d="M203.5,215.0,195.5,214.5,187.0,213.5,200.5,202.0,201.0,194.5" stroke="black" stroke-width="2" fill="none" />
<path d="M204.0,194.5,196.0,202.5,188.5,210.0,180.5,218.0,172.0,226.0,164.0,233.0,156.5,240.5" stroke="black" stroke-width="2" fill="none" />
<path d="M157.5,246.0,159.0,238.5,166.0,235.5,174.5,229.0,166.5,236.0" stroke="black" stroke-width="2" fill="none" />
<path d="M172.5,238.5,182.0,231.5,179.5,227.0,182.0,214.5,182.0,212.5,194.5,210.0,197.0,202.0,199.0,194.0,188.0,200.0" stroke="black" stroke-width="2" fill="none" />
<path d="M192.5,193.0,187.5,200.5,179.0,208.5,176.0,212.5,179.0,207.5,180.0,209.0,188.0,211.5,189.5,205.5,195.5,197.5,204.0,197.0" stroke="black" stroke-width="2" fill="none" />
<path d="M212.0,184.0,220.0,176.0,228.0,168.0,236.0,159.5,244.0,151.5,252.0,143.5,260.5,136.5,268.0,129.0,276.5,122.0,284.5,115.5,293.0,108.0" stroke="black" stroke-width="2" fill="none" />
<path d="M299.0,108.0,291.0,115.0,283.0,122.5,274.5,130.0,266.0,138.0,258.0,146.0,250.5,153.5,242.5,161.0,235.0,168.0,227.5,175.0" stroke="black" stroke-width="2" fill="none" />
<path d="M225.5,184.0,233.5,176.5,242.0,169.0,250.0,161.5,258.0,154.0,266.0,146.5,274.0,139.5,282.0,132.0,290.0,124.0,298.0,116.5" stroke="black" stroke-width="2" fill="none" />
<path d="M282.5,121.5,274.0,122.0,266.0,122.0" stroke="black" stroke-width="2" fill="none" />
<path d="M268.5,114.5,276.5,113.5" stroke="black" stroke-width="2" fill="none" />
<path d="M280.5,118.5,288.0,119.5" stroke="black" stroke-width="2" fill="none" />
<path d="M284.0,137.5,276.5,137.5" stroke="black" stroke-width="2" fill="none" />
<path d="M275.0,146.0,283.5,145.5" stroke="black" stroke-width="2" fill="none" />
<path d="M287.0,149.0,289.0,157.0" stroke="black" stroke-width="2" fill="none" />
<path d="M283.5,157.5,275.5,158.5,267.5,159.0,259.5,160.0,251.5,161.0,243.5,161.5,235.5,162.5,227.5,163.5,219.5,164.0" stroke="black" stroke-width="2" fill="none" />
<path d="M220.0,154.5,227.5,154.0,235.0,153.0,243.0,152.5,251.0,152.0,259.0,151.5,267.0,151.0,275.5,150.0" stroke="black" stroke-width="2" fill="none" />
<path d="M266.5,156.0,266.5,148.0,264.5,139.5,261.5,131.5,257.5,123.0,260.5,110.0,261.0,100.0,253.0,101.5" stroke="black" stroke-width="2" fill="none" />
<path d="M256.0,101.5,264.0,103.5,268.5,105.5,266.0,109.5" stroke="black" stroke-width="2" fill="none" />
<path d="M269.5,106.0,277.5,105.5" stroke="black" stroke-width="2" fill="none" />
<path d="M275.5,97.0,267.0,97.5,258.5,98.5,250.5,99.0" stroke="black" stroke-width="2" fill="none" />
<path d="M251.0,104.5,242.5,105.0" stroke="black" stroke-width="2" fill="none" />
<path d="M236.0,107.5,228.0,108.0" stroke="black" stroke-width="2" fill="none" />
<path d="M227.0,115.0,235.0,114.0" stroke="black" stroke-width="2" fill="none" />
<path d="M236.5,122.0,244.5,133.5" stroke="black" stroke-width="2" fill="none" />
<path d="M242.5,127.5,250.5,126.5,258.5,126.0" stroke="black" stroke-width="2" fill="none" />
<path d="M260.0,120.0,252.0,120.0" stroke="black" stroke-width="2" fill="none" />
<path d="M255.5,118.5,263.0,135.5" stroke="black" stroke-width="2" fill="none" />
<path d="M268.5,131.0,277.0,130.0,284.5,129.0" stroke="black" stroke-width="2" fill="none" />
<path d="M284.0,127.5,282.0,119.5,279.5,112.0,279.0,104.0,277.0,96.5,276.5,88.5,274.5,80.5,287.5,70.0,283.5,67.0,275.5,66.5,267.5,65.5,260.0,64.5,252.0,64.5,244.5,65.5,237.0,65.0,229.0,64.5,221.0,65.5,213.0,68.5,205.0,74.0" stroke="black" stroke-width="2" fill="none" />
<path d="M207.5,74.0,215.5,77.0,224.5,82.5,224.5,91.0,222.5,98.5,221.5,107.0,216.5,115.0,213.0,123.0,215.5,130.0,215.0,135.5,205.0,141.0,197.5,152.5,194.5,166.5,203.0,170.5" stroke="black" stroke-width="2" fill="none" />
<path d="M194.5,164.5,202.5,164.5,211.0,164.0,219.5,163.5,227.5,163.0,235.5,162.0,243.5,162.0,251.5,161.0,259.0,160.5,267.0,160.0,274.5,159.5,282.5,159.5,291.0,159.0,299.5,159.0,308.0,158.5" stroke="black" stroke-width="2" fill="none" />
<path d="M306.0,147.5,298.5,148.0,290.5,149.0,282.5,149.5,274.5,150.5,266.5,150.5,258.0,151.0,250.0,151.5,241.5,152.0,234.0,153.0,225.5,153.5,217.0,155.5,209.0,156.5,201.0,158.0,193.0,158.5" stroke="black" stroke-width="2" fill="none" />
<path d="M196.0,150.0,204.5,142.5,212.5,135.0,220.5,127.0,228.5,119.5,236.0,112.0,243.5,104.5,252.0,97.0,260.0,89.5,268.0,81.5,276.0,73.5,284.0,66.0" stroke="black" stroke-width="2" fill="none" />
<path d="M277.0,68.0,268.5,75.0,260.5,82.5,252.5,89.5,244.5,97.0,237.0,104.0,228.5,111.5,220.5,119.5,212.5,127.5,204.5,135.5" stroke="black" stroke-width="2" fill="none" />
<path d="M203.0,132.5,211.0,125.5" stroke="black" stroke-width="2" fill="none" />
<path d="M210.5,130.0,219.0,133.0" stroke="black" stroke-width="2" fill="none" />
<path d="M220.5,136.5,229.0,136.5,236.5,136.0,244.0,136.0,252.0,136.0,260.0,135.5" stroke="black" stroke-width="2" fill="none" />
<path d="M261.0,142.5,253.0,142.5,245.0,143.5,237.5,144.0,229.5,144.0,221.0,144.5" stroke="black" stroke-width="2" fill="none" />
<path d="M216.0,141.0,215.0,148.5,213.0,156.5" stroke="black" stroke-width="2" fill="none" />
<path d="M198.0,161.0,205.5,153.5,213.5,145.0,221.5,137.0,229.5,129.0,237.0,121.0,245.0,113.0,253.5,105.5,261.5,98.0,269.5,90.5,276.5,83.0" stroke="black" stroke-width="2" fill="none" />
<path d="M284.0,75.5,292.5,68.0" stroke="black" stroke-width="2" fill="none" />
<path d="M290.5,91.0,282.5,99.0,275.0,106.5,267.5,114.0,259.0,122.0,251.0,129.5,243.0,137.0,235.0,144.5,226.5,151.5,218.0,159.0,210.0,166.5,202.5,174.0,195.0,182.0,187.5,189.5,179.5,197.0,172.0,205.0,164.0,212.0" stroke="black" stroke-width="2" fill="none" />
<path d="M164.5,220.5,172.5,213.0,180.0,206.0,188.0,198.5,196.0,191.5,204.0,183.5,212.0,176.0,220.0,168.5,228.0,161.5,235.5,154.0,243.0,146.0,251.5,138.0,259.5,130.5,267.5,122.5,276.0,114.5,284.0,107.0,292.5,99.0" stroke="black" stroke-width="2" fill="none" />
<path d="M296.5,103.5,299.5,90.5" stroke="black" stroke-width="2" fill="none" />
<path d="M308.0,94.5,300.0,94.5,292.0,95.0,284.0,95.0,275.5,95.5,268.0,96.5,260.0,97.5,252.5,98.0,244.5,99.5,237.0,100.0,229.5,101.0,221.5,102.0,213.5,102.5,205.5,103.5" stroke="black" stroke-width="2" fill="none" />
<path d="M204.5,95.0,212.5,94.5,220.5,94.0,228.5,93.5,236.0,92.5,244.0,92.5,251.5,91.5,259.5,91.0,267.5,90.5,275.5,90.0,283.5,89.5,291.5,88.5,299.0,88.0" stroke="black" stroke-width="2" fill="none" />
<path d="M299.0,80.5,290.5,81.5,282.5,82.0,275.0,82.5,267.0,83.0,259.0,83.5,251.5,84.0,244.0,84.0,236.0,84.5,228.0,85.5,220.5,85.5,212.5,85.5,204.0,85.5" stroke="black" stroke-width="2" fill="none" />
<path d="M204.5,77.5,212.5,77.0,220.0,77.5,228.0,77.0,236.0,76.5,244.5,76.0,252.0,76.0,259.0,75.5,266.5,74.5,274.0,74.0,282.0,73.5,290.0,73.0,299.0,72.5" stroke="black" stroke-width="2" fill="none" />
<path d="M275.0,71.0,266.5,71.0,258.5,71.5,250.5,71.5,242.0,71.5,233.5,71.5,225.5,71.5,217.5,72.0" stroke="black" stroke-width="2" fill="none" />
<path d="M219.0,74.5,227.0,67.0" stroke="black" stroke-width="2" fill="none" />
<path d="M233.5,67.5,226.0,75.0" stroke="black" stroke-width="2" fill="none" />
<path d="M236.5,76.0,244.5,68.5" stroke="black" stroke-width="2" fill="none" />
<path d="M252.0,69.5,244.0,77.0,235.5,84.0,227.5,91.0,220.0,98.0" stroke="black" stroke-width="2" fill="none" />
<path d="M219.5,106.0,227.5,98.5,236.0,91.0,244.0,83.5,252.0,76.0,260.0,68.5" stroke="black" stroke-width="2" fill="none" />
<path d="M268.0,67.0,259.5,75.0,252.0,82.5,244.5,90.0,236.5,97.5,229.0,105.0,221.5,113.0" stroke="black" stroke-width="2" fill="none" />
<path d="M212.0,116.0,204.5,123.5" stroke="black" stroke-width="2" fill="none" />
<path d="M198.5,118.5,201.0,126.5,201.0,134.5,201.5,143.0,198.5,153.0" stroke="black" stroke-width="2" fill="none" />
<path d="M193.5,148.5,201.5,147.5,210.0,147.5,218.5,147.0,226.5,147.0,234.5,146.0,242.5,145.5,250.5,145.0,258.5,145.0,266.5,144.5,274.5,144.0,283.0,143.5,291.5,143.0,300.0,142.0,308.0,141.5,315.5,141.0" stroke="black" stroke-width="2" fill="none" />
<path d="M316.0,134.0,307.5,134.5,299.0,134.5,291.0,134.5,283.0,135.0,275.0,135.0,267.5,136.0,260.0,136.0,252.0,137.0,244.0,138.0,236.0,139.0,227.5,139.5,219.0,139.0,210.5,139.0,202.0,140.0,194.0,141.0" stroke="black" stroke-width="2" fill="none" />
<path d="M193.5,133.0,202.0,132.5,210.5,132.0,218.5,131.5,227.0,131.0,235.0,131.0,243.5,130.0,252.0,129.5,260.0,129.5,268.0,129.5,275.5,129.0,283.5,128.5,291.5,128.0,300.0,127.0,308.5,126.5" stroke="black" stroke-width="2" fill="none" />
<path d="M307.5,119.5,299.5,119.5,292.0,120.0,284.0,120.5,276.5,120.5,268.0,121.5,260.0,122.0,251.5,122.5,243.0,123.0,235.0,123.0,226.5,123.5,218.5,124.5,211.0,125.5,203.5,126.0,196.0,126.0" stroke="black" stroke-width="2" fill="none" />
<path d="M196.0,120.5,204.0,119.5,212.0,118.5,219.5,118.0,227.0,117.0,235.5,116.0,243.0,115.5,251.5,114.5,259.5,114.0,267.5,112.5,275.0,111.5,283.5,111.0,291.5,111.0,299.5,110.5,308.0,110.5" stroke="black" stroke-width="2" fill="none" />
<path d="M307.5,102.0,299.5,102.0,291.0,102.0,283.0,102.5,275.0,103.0,267.0,103.5,258.5,104.5,251.0,105.5,243.0,106.5,235.0,108.0,227.0,109.0,219.0,110.5,211.5,111.5,204.0,112.0,196.0,113.0" stroke="black" stroke-width="2" fill="none" />
<path d="M210.5,115.0,207.5,115.0,210.5,122.5,211.0,130.5,204.0,136.5,204.0,144.5,202.0,152.5,202.0,161.0,204.0,171.0,208.0,179.0,212.0,184.0,209.0,192.0,205.0,200.0,200.5,208.0,207.0,207.5,206.0,215.5,198.5,220.0,194.0,227.5,187.5,237.5,194.5,226.5,202.5,225.5,208.5,214.5,212.0,218.5,211.5,217.0,207.0,219.5,201.5,227.0,205.5,217.0,207.5,210.5,209.5,196.5,219.0,186.0,226.0,188.0" stroke="black" stroke-width="2" fill="none" />
<path d="M221.5,190.5,213.5,194.5,200.5,204.5,208.5,196.5,216.5,197.5,226.5,189.5,227.0,184.5,219.0,178.5,211.0,188.0,205.0,204.5,211.5,199.5,211.0,191.5,215.5,183.5,220.5,181.5" stroke="black" stroke-width="2" fill="none" />
<path d="M211.0,156.0,208.0,163.5,205.0,162.5,207.5,154.5,210.5,147.0,218.5,139.0,212.0,138.5" stroke="black" stroke-width="2" fill="none" />
<path d="M219.0,126.5,219.5,124.0,221.0,127.0,220.0,120.0,222.0,112.5,213.0,121.0" stroke="black" stroke-width="2" fill="none" />
<path d="M229.5,99.5,237.5,99.5" stroke="black" stroke-width="2" fill="none" />
<path d="M236.0,100.0,245.5,106.5,247.5,114.5,253.5,122.5,257.5,130.5,261.0,138.5,262.0,147.0" stroke="black" stroke-width="2" fill="none" />
<path d="M265.0,132.5,258.0,118.5" stroke="black" stroke-width="2" fill="none" />
<path d="M258.5,117.0,262.5,125.0,266.5,134.0,269.5,142.5" stroke="black" stroke-width="2" fill="none" />
<path d="M285.0,139.5,286.0,147.5,284.5,155.5" stroke="black" stroke-width="2" fill="none" />
<path d="M308.5,134.5,306.5,126.5,296.5,125.5,289.5,120.0,287.5,114.0,283.0,107.0,290.0,98.5,292.0,90.5,283.0,93.5" stroke="black" stroke-width="2" fill="none" />
<path d="M277.0,96.0,286.0,88.0,285.5,96.0,292.5,103.5,290.5,111.0,293.5,118.5,295.5,128.5,296.0,129.0,306.5,139.0" stroke="black" stroke-width="2" fill="none" />
<path d="M259.5,113.5,251.5,114.5" stroke="black" stroke-width="2" fill="none" />
<path d="M246.0,114.5,254.0,125.5" stroke="black" stroke-width="2" fill="none" />
<path d="M241.0,129.5,238.0,121.5,236.0,113.5,236.0,106.0,238.5,98.0,242.5,98.5,242.5,90.5,244.5,91.5,236.5,90.5" stroke="black" stroke-width="2" fill="none" />
<path d="M236.5,91.0,235.5,99.0,234.0,107.0,235.0,115.5,237.0,123.5,239.0,131.5" stroke="black" stroke-width="2" fill="none" />
<path d="M229.0,91.5,236.5,91.0,244.5,90.0,252.0,89.0,259.5,88.0,267.0,88.0,275.0,87.0" stroke="black" stroke-width="2" fill="none" />
<path d="M219.5,84.0,211.5,91.5" stroke="black" stroke-width="2" fill="none" />
<path d="M217.5,88.5,213.5,93.5,216.5,89.0,222.5,83.0,230.0,81.0,238.0,80.0,245.5,80.0,253.0,79.5,260.5,78.5,268.5,78.5,276.5,78.5,284.5,76.5,293.0,77.0" stroke="black" stroke-width="2" fill="none" />
<path d="M293.5,65.0,285.0,65.0,276.5,65.5,268.5,66.0,260.5,66.5,252.5,66.5,244.5,67.5,237.0,68.0,229.5,69.0,221.5,70.0,213.5,70.5" stroke="black" stroke-width="2" fill="none" />
<path d="M210.5,72.0,218.5,75.5,226.5,77.0,234.5,78.0,242.5,78.0,250.5,78.0,258.0,78.0,266.0,77.0,274.0,76.0,281.5,76.0,291.5,70.0,297.5,78.0,299.0,84.5,295.0,92.5,296.0,100.5,298.5,108.5,297.0,115.0,304.5,123.0,296.5,126.0,303.0,134.0" stroke="black" stroke-width="2" fill="none" />
<path d="M263.5,184.5,271.5,195.5,279.5,206.5,287.0,222.0,299.0,221.0,304.0,210.5,306.0,213.5,312.5,223.0" stroke="black" stroke-width="2" fill="none" />
<path d="M336.5,212.0,332.0,211.0,329.0,202.5,328.0,194.5" stroke="black" stroke-width="2" fill="none" />
<path d="M259.0,187.5,258.5,195.5,263.0,195.0,266.0,203.0,270.5,211.5,273.5,220.5,274.5,229.5,275.0,237.0,274.0,245.0,274.5,254.0,271.5,267.0,270.5,275.0,269.5,282.5,267.0,290.0,266.0,298.0" stroke="black" stroke-width="2" fill="none" />
<path d="M172.0,247.0,172.5,239.0,174.5,231.0" stroke="black" stroke-width="2" fill="none" />
<path d="M170.5,224.5,162.5,225.0" stroke="black" stroke-width="2" fill="none" />
<path d="M151.5,223.5,154.0,215.5,155.5,212.0,158.5,204.0,165.5,196.0,173.5,188.0,179.5,179.5,186.5,171.5,191.5,165.5,183.5,173.5,175.5,185.5,167.0,193.5,159.0,202.0,151.0,214.5" stroke="black" stroke-width="2" fill="none" />
<path d="M165.5,207.5,170.0,199.5" stroke="black" stroke-width="2" fill="none" />
</svg>