<svg xmlns="http://www.w3.org/2000/svg" version="1.1"><polyline points="2.0,1.5,2.5,9.5,2.5,17.5,2.5,25.5,2.5,33.5,2.5,41.5,3.0,49.5,4.0,57.0,4.5,65.0,4.5,72.5,4.5,81.0,4.5,89.0,4.0,97.0,3.5,105.5,3.5,114.5,3.5,123.0,3.5,131.0,3.0,138.5,3.0,146.5,3.0,154.5,3.0,162.5,2.5,170.5,2.5,178.5,2.5,186.0,2.5,194.0,3.0,202.0,3.0,210.0,3.0,218.0,3.5,226.0,4.0,234.5,4.0,242.5,4.0,250.5,4.0,258.5,3.5,266.5,3.0,275.0,3.0,283.0,3.0,291.0,3.0,298.5,3.5,306.5,3.0,314.5,3.0,322.5,3.0,330.5,2.5,338.5,7.5,342.5,15.5,342.0,23.5,341.5,31.0,341.5,39.0,341.5,46.5,341.5,54.0,342.0,62.0,342.0,70.0,342.0,79.0,341.5,87.0,341.5,95.0,342.0,103.0,342.5,111.5,342.5,119.5,343.0,128.0,343.5,136.5,343.5,144.5,344.0,152.5,344.0,160.0,344.0,168.0,343.5,176.5,343.0,184.5,343.0,192.0,343.0,200.0,342.5,207.5,342.0,215.5,341.5,224.0,341.5,231.5,341.5,239.5,342.0,247.5,342.0,256.0,342.5,264.0,343.0,272.5,343.0,281.0,343.0,289.0,343.0,297.5,343.0,306.0,343.0,314.0,343.0,321.5,342.5,329.5,342.5,337.0,342.0,345.0,342.0,353.0,341.5,361.0,342.0,369.0,342.0,377.0,342.5,385.0,342.5,393.0,342.0,400.5,342.0,408.5,341.5,416.0,341.5,424.0,341.5,431.5,341.5,439.5,341.0,447.0,340.5,455.0,340.5,463.0,340.5,471.0,340.5,479.5,341.0,487.5,341.0,495.5,341.5,503.5,342.0,511.5,342.0" stroke="black" stroke-width="2" fill="none" />
<polyline points="372.0,291.0,364.5,298.5,356.5,306.5" stroke="black" stroke-width="2" fill="none" />
<polyline points="350.0,305.0,358.0,304.0,366.0,300.0,374.0,295.0,378.5,287.5" stroke="black" stroke-width="2" fill="none" />
<polyline points="357.5,299.0,349.5,307.0,341.0,314.5" stroke="black" stroke-width="2" fill="none" />
<polyline points="339.0,314.5,331.0,315.0" stroke="black" stroke-width="2" fill="none" />
<polyline points="330.0,313.0,337.5,305.5,345.5,298.0" stroke="black" stroke-width="2" fill="none" />
<polyline points="339.5,298.5,331.5,306.5,323.5,313.5" stroke="black" stroke-width="2" fill="none" />
<polyline points="316.0,307.5,308.5,315.0,300.5,322.0" stroke="black" stroke-width="2" fill="none" />
<polyline points="309.0,322.5,317.0,314.0,325.5,306.5,333.5,299.0" stroke="black" stroke-width="2" fill="none" />
<polyline points="318.0,297.5,310.5,305.5,302.0,313.0,293.5,321.0" stroke="black" stroke-width="2" fill="none" />
<polyline points="288.0,316.5,296.0,314.5,305.5,314.5,314.5,313.5" stroke="black" stroke-width="2" fill="none" />
<polyline points="305.0,301.5,297.0,308.5,290.0,315.5,282.0,322.5" stroke="black" stroke-width="2" fill="none" />
<polyline points="276.5,321.0,284.0,314.0,292.0,306.0,299.5,298.5" stroke="black" stroke-width="2" fill="none" />
<polyline points="284.5,300.0,276.0,307.0,267.5,314.5,259.5,321.5" stroke="black" stroke-width="2" fill="none" />
<polyline points="268.0,322.0,276.0,314.0,283.5,306.5" stroke="black" stroke-width="2" fill="none" />
<polyline points="268.5,308.5,260.5,316.0,252.5,323.5" stroke="black" stroke-width="2" fill="none" />
<polyline points="242.5,321.5,250.0,314.5,257.5,308.0,265.5,300.5" stroke="black" stroke-width="2" fill="none" />
<polyline points="260.5,298.5,252.5,306.0,244.0,313.5,236.0,321.0" stroke="black" stroke-width="2" fill="none" />
<polyline points="228.5,321.0,236.5,313.0,245.0,305.5,252.5,298.0" stroke="black" stroke-width="2" fill="none" />
<polyline points="250.0,282.0,258.0,275.0,266.0,267.0" stroke="black" stroke-width="2" fill="none" />
<polyline points="260.5,266.5,252.5,274.0" stroke="black" stroke-width="2" fill="none" />
<polyline points="250.0,280.5,261.0,278.5" stroke="black" stroke-width="2" fill="none" />
<polyline points="235.5,306.5,227.5,314.5,220.0,322.5" stroke="black" stroke-width="2" fill="none" />
<polyline points="218.5,327.0,226.5,326.5,235.0,326.0,243.5,325.5,251.5,325.0,260.0,324.5,267.5,324.0,275.5,323.0,283.5,322.5" stroke="black" stroke-width="2" fill="none" />
<polyline points="309.0,274.0,316.0,266.0,324.0,258.0" stroke="black" stroke-width="2" fill="none" />
<polyline points="321.5,258.0,313.5,257.5,311.5,265.0,311.5,273.5,323.5,268.5,319.5,260.5" stroke="black" stroke-width="2" fill="none" />
<polyline points="315.5,258.0,307.5,265.5" stroke="black" stroke-width="2" fill="none" />
<polyline points="315.0,266.0,323.0,265.5" stroke="black" stroke-width="2" fill="none" />
<polyline points="324.5,266.5,316.0,274.5" stroke="black" stroke-width="2" fill="none" />
<polyline points="313.0,274.0,319.5,268.5,321.5,272.5,313.5,279.0,321.5,273.0" stroke="black" stroke-width="2" fill="none" />
<polyline points="333.0,268.5,329.5,269.5,328.5,260.0,326.5,258.0,324.0,250.0,316.0,247.5,306.0,239.5,300.0,232.5,295.0,224.5,291.5,217.0,290.5,209.0,285.5,201.0,274.5,204.0" stroke="black" stroke-width="2" fill="none" />
<polyline points="276.5,201.5,284.5,193.5,292.0,185.0,300.0,177.5,308.0,169.5,316.0,161.5,324.5,154.0,333.5,146.0,341.5,138.5" stroke="black" stroke-width="2" fill="none" />
<polyline points="346.5,140.5,339.0,147.5,331.0,155.0,323.0,162.0,314.5,169.0,306.0,176.5,298.5,184.0,291.0,191.5" stroke="black" stroke-width="2" fill="none" />
<polyline points="291.0,197.0,299.0,190.0,306.5,183.0,314.5,176.0,323.0,169.0,331.5,162.0,340.5,154.5,349.5,147.5,358.0,139.5,366.5,132.5" stroke="black" stroke-width="2" fill="none" />
<polyline points="364.5,139.0,356.5,146.5,348.0,153.5,340.0,161.0,332.0,168.0,324.0,176.0,316.0,184.0,308.5,191.5,301.0,199.5,293.0,207.5" stroke="black" stroke-width="2" fill="none" />
<polyline points="293.0,202.5,300.5,202.0,308.5,201.0,316.5,200.5,324.0,199.5,332.0,199.0,339.5,198.5,347.5,198.0,355.5,197.5" stroke="black" stroke-width="2" fill="none" />
<polyline points="356.0,194.0,347.5,202.0,339.0,210.0,331.0,218.0" stroke="black" stroke-width="2" fill="none" />
<polyline points="329.5,218.5,337.0,218.0,345.5,218.0" stroke="black" stroke-width="2" fill="none" />
<polyline points="345.5,219.0,337.5,226.5" stroke="black" stroke-width="2" fill="none" />
<polyline points="332.0,226.0,340.5,218.5,348.5,211.5,356.0,204.5,364.0,197.0" stroke="black" stroke-width="2" fill="none" />
<polyline points="369.5,197.5,377.5,197.0,386.0,197.0" stroke="black" stroke-width="2" fill="none" />
<polyline points="389.0,193.0,381.0,201.0" stroke="black" stroke-width="2" fill="none" />
<polyline points="378.5,205.0,386.5,204.5" stroke="black" stroke-width="2" fill="none" />
<polyline points="372.5,193.0,380.5,185.5" stroke="black" stroke-width="2" fill="none" />
<polyline points="373.0,186.0,381.5,178.0" stroke="black" stroke-width="2" fill="none" />
<polyline points="372.0,172.5,364.0,180.0" stroke="black" stroke-width="2" fill="none" />
<polyline points="364.0,178.0,367.0,186.0,370.5,194.0,374.5,202.0,381.5,210.0,385.5,217.5,388.0,225.5,386.0,233.5,382.5,241.5,382.5,250.0,384.5,258.0,386.5,263.0,383.5,271.0,381.5,279.5,377.0,287.5,374.0,295.5,365.0,304.0,350.0,312.0" stroke="black" stroke-width="2" fill="none" />
<polyline points="301.5,315.5,293.0,315.5,284.0,316.0,276.5,316.5,268.5,316.5,260.0,317.0,252.0,317.0,244.0,318.0,235.5,318.0,227.0,318.5,219.0,319.0,211.5,319.5,203.5,320.0" stroke="black" stroke-width="2" fill="none" />
<polyline points="204.0,322.5,212.0,315.0,220.0,307.0" stroke="black" stroke-width="2" fill="none" />
<polyline points="212.0,307.0,204.0,314.0,196.0,321.5" stroke="black" stroke-width="2" fill="none" />
<polyline points="187.5,322.0,195.5,315.5,203.0,307.5" stroke="black" stroke-width="2" fill="none" />
<polyline points="194.5,307.0,186.0,315.0" stroke="black" stroke-width="2" fill="none" />
<polyline points="180.0,314.0,188.0,306.5" stroke="black" stroke-width="2" fill="none" />
<polyline points="181.0,306.0,173.0,314.0" stroke="black" stroke-width="2" fill="none" />
<polyline points="172.5,313.0,180.0,313.0" stroke="black" stroke-width="2" fill="none" />
<polyline points="171.0,317.0,179.0,316.5,186.5,316.0,194.5,316.0,202.5,316.0,210.5,316.0,218.0,315.5,225.5,315.0,233.5,314.0,242.0,313.5,250.0,312.5,258.0,312.5,266.0,312.0,274.5,312.0,283.0,311.5,291.5,310.5,300.0,310.0,308.0,309.0,316.0,308.5,323.5,308.0,331.5,307.5" stroke="black" stroke-width="2" fill="none" />
<polyline points="355.0,296.5,347.0,297.0,338.5,297.0,331.0,297.5,323.0,298.0,315.5,299.0,308.0,299.5,299.5,300.0,290.5,300.0,282.0,300.5,274.5,301.0,266.5,301.5,258.0,302.5,250.0,303.5,242.0,304.0,233.5,304.0,225.5,304.5,218.0,305.0,210.5,305.0,202.5,305.0,195.0,305.0,187.0,305.0,179.5,305.5,172.5,306.5,164.5,307.5,156.5,308.5,148.5,309.0" stroke="black" stroke-width="2" fill="none" />
<polyline points="154.0,315.0,162.5,307.5,170.5,300.5" stroke="black" stroke-width="2" fill="none" />
<polyline points="172.0,301.5,179.0,309.5,179.0,317.5,184.5,323.0,192.5,321.0,200.5,316.0,207.5,310.5" stroke="black" stroke-width="2" fill="none" />
<polyline points="210.0,317.0,218.0,316.0,232.0,314.0,237.5,304.0" stroke="black" stroke-width="2" fill="none" />
<polyline points="228.0,309.0,220.0,316.5,212.0,324.0" stroke="black" stroke-width="2" fill="none" />
<polyline points="179.5,299.5,171.5,307.0,164.0,314.0" stroke="black" stroke-width="2" fill="none" />
<polyline points="172.0,304.5,180.5,304.0" stroke="black" stroke-width="2" fill="none" />
<polyline points="186.0,306.0,178.0,300.5,169.5,298.5,161.5,301.0" stroke="black" stroke-width="2" fill="none" />
<polyline points="157.0,297.0,165.0,302.0,164.0,309.5" stroke="black" stroke-width="2" fill="none" />
<polyline points="155.0,300.0,146.5,307.0" stroke="black" stroke-width="2" fill="none" />
<polyline points="141.5,307.5,149.0,300.0" stroke="black" stroke-width="2" fill="none" />
<polyline points="154.0,310.5,146.0,310.5,138.0,307.5" stroke="black" stroke-width="2" fill="none" />
<polyline points="132.5,302.5,140.0,301.5,148.0,301.0,156.5,299.5,164.5,298.5,172.5,297.5,180.0,297.0,188.5,297.0,196.5,296.5,204.5,296.0,212.5,295.5,221.0,295.0,229.0,295.0,236.5,295.0,244.0,294.5,251.5,294.5,259.5,294.5,267.0,294.0,275.0,294.0,282.5,293.5,291.0,293.0,299.0,292.5,307.0,292.0,315.5,291.5,323.5,291.0,332.0,290.0,340.0,289.5,348.0,289.0,356.0,288.0,364.0,287.5,372.5,286.5" stroke="black" stroke-width="2" fill="none" />
<polyline points="380.5,276.5,373.0,277.0,365.0,277.0,356.5,277.5,348.5,278.5,340.0,279.0,331.5,279.5,323.0,280.0,314.5,281.0,306.5,282.0,298.5,283.0,290.0,284.0,282.0,284.5,274.5,285.0,267.0,285.5,259.5,286.0,252.0,286.5,244.0,287.0,236.5,287.0,228.5,287.0,220.5,287.5,213.0,287.5,205.0,288.0,197.0,288.0,188.5,289.0,180.0,289.5,172.0,290.0,163.5,290.5,155.5,291.0,147.0,291.5,139.0,291.5,131.0,292.0,123.0,292.5" stroke="black" stroke-width="2" fill="none" />
<polyline points="125.0,298.0,131.5,302.0,137.5,302.0,150.5,309.0,165.5,316.0" stroke="black" stroke-width="2" fill="none" />
<polyline points="203.0,282.0,211.0,274.5,219.0,267.0" stroke="black" stroke-width="2" fill="none" />
<polyline points="218.0,260.0,210.0,267.0,201.5,274.5,194.0,282.5" stroke="black" stroke-width="2" fill="none" />
<polyline points="197.5,276.0,205.5,268.5,213.5,261.0" stroke="black" stroke-width="2" fill="none" />
<polyline points="204.5,259.0,196.5,266.5" stroke="black" stroke-width="2" fill="none" />
<polyline points="194.5,263.5,202.0,257.5,210.5,259.0,215.5,270.0,214.5,278.5" stroke="black" stroke-width="2" fill="none" />
<polyline points="212.0,282.5,220.0,275.0" stroke="black" stroke-width="2" fill="none" />
<polyline points="212.0,280.0,204.0,280.0" stroke="black" stroke-width="2" fill="none" />
<polyline points="204.5,278.5,196.5,274.5" stroke="black" stroke-width="2" fill="none" />
<polyline points="197.5,273.0,205.0,273.0,213.0,272.0,221.0,271.5" stroke="black" stroke-width="2" fill="none" />
<polyline points="213.0,264.0,204.5,264.5" stroke="black" stroke-width="2" fill="none" />
<polyline points="196.0,239.0,204.0,231.0,212.0,223.5,220.0,216.0,228.5,207.5,236.5,199.5,244.5,191.5,253.0,184.0,261.5,176.5,269.0,168.5,277.0,161.0,284.5,154.0,292.0,146.5" stroke="black" stroke-width="2" fill="none" />
<polyline points="284.0,147.5,276.0,155.0,268.0,162.5,260.0,169.5,252.0,177.0,243.5,184.5,235.5,192.0,228.0,200.0,220.0,208.0,212.0,216.0,204.0,223.5,196.0,231.0,188.0,238.0" stroke="black" stroke-width="2" fill="none" />
<polyline points="190.5,234.5,198.5,233.5,206.0,233.0,213.5,232.5" stroke="black" stroke-width="2" fill="none" />
<polyline points="219.0,228.0,211.0,235.5,203.0,242.5" stroke="black" stroke-width="2" fill="none" />
<polyline points="205.0,224.5,213.0,224.5,220.5,223.5" stroke="black" stroke-width="2" fill="none" />
<polyline points="219.5,218.5,215.5,226.0,209.5,234.0,201.5,247.5,200.0,261.5,194.5,269.5,196.0,277.5,202.0,285.0,208.0,285.0,216.0,277.0" stroke="black" stroke-width="2" fill="none" />
<polyline points="187.5,229.0,195.5,222.0,203.5,214.0,212.0,206.5,220.5,199.0,228.5,191.5,237.0,184.0,245.0,176.5,253.0,169.0,261.5,161.5,270.0,154.0,277.5,146.0" stroke="black" stroke-width="2" fill="none" />
<polyline points="281.5,138.0,293.5,134.0,282.5,137.0,287.5,143.0,297.0,141.0,302.0,145.0,310.0,140.0,314.0,143.0,321.5,140.5,326.5,140.5,334.5,139.5,342.5,136.5" stroke="black" stroke-width="2" fill="none" />
<polyline points="340.0,145.0,349.0,144.5,357.5,144.5" stroke="black" stroke-width="2" fill="none" />
<polyline points="363.5,147.0,355.5,154.0,348.0,162.0,339.5,170.0,331.5,178.0,324.0,186.0,316.0,194.0,307.5,201.5,299.5,209.0,292.0,216.5" stroke="black" stroke-width="2" fill="none" />
<polyline points="294.5,214.0,302.5,231.0,310.5,240.0,318.5,241.0" stroke="black" stroke-width="2" fill="none" />
<polyline points="317.5,241.0,325.5,233.5" stroke="black" stroke-width="2" fill="none" />
<polyline points="329.0,228.0,337.5,227.0" stroke="black" stroke-width="2" fill="none" />
<polyline points="324.5,227.0,316.5,234.5" stroke="black" stroke-width="2" fill="none" />
<polyline points="312.5,227.5,304.5,234.5" stroke="black" stroke-width="2" fill="none" />
<polyline points="307.5,233.5,315.5,233.0,323.0,232.5" stroke="black" stroke-width="2" fill="none" />
<polyline points="313.0,220.5,305.0,228.0,297.0,235.0" stroke="black" stroke-width="2" fill="none" />
<polyline points="298.0,226.5,306.0,226.0,314.5,225.0" stroke="black" stroke-width="2" fill="none" />
<polyline points="310.0,218.0,312.0,220.0,319.5,226.5,327.5,229.5" stroke="black" stroke-width="2" fill="none" />
<polyline points="331.5,210.5,339.0,210.0,346.5,209.0" stroke="black" stroke-width="2" fill="none" />
<polyline points="349.5,210.0,346.5,218.0,339.5,226.5,352.5,229.5" stroke="black" stroke-width="2" fill="none" />
<polyline points="356.5,224.5,348.5,225.0,340.0,226.0,332.5,226.5,324.0,226.5,316.0,227.0,307.5,227.0,299.5,227.0,291.5,227.5,284.0,228.0,276.0,228.5,268.0,228.5,260.0,228.5" stroke="black" stroke-width="2" fill="none" />
<polyline points="258.0,216.5,266.5,209.0" stroke="black" stroke-width="2" fill="none" />
<polyline points="267.0,217.0,259.5,217.0,251.5,217.5" stroke="black" stroke-width="2" fill="none" />
<polyline points="252.0,216.0,260.0,208.5,268.5,201.0,276.5,193.5,284.0,186.0,292.0,178.5,300.5,170.5,309.0,163.0,317.0,155.0,325.0,147.5,333.5,140.0" stroke="black" stroke-width="2" fill="none" />
<polyline points="331.0,132.5,339.5,131.5,347.0,131.0,354.5,130.5,362.5,130.0,370.5,129.5" stroke="black" stroke-width="2" fill="none" />
<polyline points="364.5,126.0,356.5,126.5" stroke="black" stroke-width="2" fill="none" />
<polyline points="355.0,117.0,346.5,117.5,338.5,118.5" stroke="black" stroke-width="2" fill="none" />
<polyline points="340.0,118.5,340.0,116.5,348.5,109.5,361.5,117.0,361.0,123.5,359.0,131.5,345.5,128.5,347.0,133.5,355.0,133.5,362.0,133.5,350.5,141.5,354.5,140.5,365.5,137.5,366.5,145.0,367.5,152.5,368.0,160.5,368.5,168.5,364.5,171.5,350.5,180.0,350.5,188.0,357.5,196.0,359.5,204.0,359.0,213.0,363.0,219.0" stroke="black" stroke-width="2" fill="none" />
<polyline points="370.0,222.0,378.5,221.5" stroke="black" stroke-width="2" fill="none" />
<polyline points="371.5,232.0,379.5,231.5,387.0,231.0" stroke="black" stroke-width="2" fill="none" />
<polyline points="387.5,237.0,380.0,237.5" stroke="black" stroke-width="2" fill="none" />
<polyline points="381.0,240.0,385.5,240.0,386.0,248.0" stroke="black" stroke-width="2" fill="none" />
<polyline points="387.0,245.5,379.0,245.5" stroke="black" stroke-width="2" fill="none" />
<polyline points="380.0,269.0,371.5,270.0,363.5,270.5,355.5,271.0,348.0,271.5,340.0,272.0,332.0,273.0,323.5,273.5,315.0,274.5,306.5,275.0,298.0,275.0,290.0,275.5,282.0,275.5,274.0,276.5,265.5,277.0,257.5,278.0,250.0,278.5,242.5,279.0,234.5,279.0,226.5,279.0,218.5,279.0,211.0,279.5,203.0,280.0,195.0,280.5,186.5,280.5,178.0,281.0,170.0,282.0,161.5,282.5,153.5,283.0,145.5,283.0,137.5,283.5,129.0,284.0,121.0,284.5" stroke="black" stroke-width="2" fill="none" />
<polyline points="123.5,277.5,131.5,276.5,138.5,276.0,146.5,275.5,155.0,275.0,162.5,274.5,171.0,274.0,179.5,273.5,188.0,273.0,196.0,272.5,204.5,272.0,212.0,272.0,220.0,271.5,228.0,271.5,235.5,271.5,243.5,271.0,251.5,271.0,259.5,270.5,267.5,270.0,275.5,269.0,284.0,268.5,291.5,267.5,299.0,267.0,306.5,266.5,315.0,266.0,322.5,265.0,331.5,264.0,339.5,263.5,348.0,263.0,355.5,262.5,363.5,262.0,371.5,261.5,379.5,260.5" stroke="black" stroke-width="2" fill="none" />
<polyline points="379.5,252.5,371.5,253.0,363.5,253.5,356.0,254.0,348.0,254.5,339.5,255.5,331.5,256.0,323.5,256.5,316.0,257.0,308.0,257.5,300.5,258.5,292.5,259.0,284.5,260.0,277.0,260.5,268.5,261.0,260.0,261.5,251.5,262.0,243.0,262.5,234.5,262.5,226.5,263.0,218.5,263.0,210.0,263.0,202.0,263.0,194.0,263.0,186.5,264.0,178.5,265.0,171.0,265.5,163.0,266.0,155.0,266.5,147.5,267.0,140.0,267.5,132.0,267.5,124.0,268.0,116.0,268.5" stroke="black" stroke-width="2" fill="none" />
<polyline points="113.0,275.0,120.0,294.0,126.0,297.0,134.0,303.0,137.0,307.0,145.0,308.0,150.5,313.0,159.0,313.5,166.5,316.5" stroke="black" stroke-width="2" fill="none" />
<polyline points="114.0,261.0,122.0,260.5,131.0,260.0,139.0,259.0,147.0,258.0,154.0,257.5,162.5,257.5,170.5,257.5,178.0,257.5,186.0,257.0,194.0,256.0,202.0,256.0,210.5,255.5,218.5,255.0,227.0,254.5,235.5,253.5,244.0,253.0,252.0,252.0,260.0,251.5,268.0,251.0,276.0,250.5,283.5,249.5,291.5,249.5,299.5,249.5,308.0,249.5,316.0,249.0,324.0,248.5,332.0,248.5,340.5,248.0,348.5,247.5,356.5,247.0,364.5,246.5,373.0,246.0,381.0,245.0" stroke="black" stroke-width="2" fill="none" />
<polyline points="388.5,237.5,380.5,238.0,372.5,238.5,364.5,239.0,356.0,240.0,348.5,240.5,340.0,240.5,332.0,241.0,323.5,241.0,315.5,241.0,307.5,241.5,300.0,242.0,292.0,242.5,284.0,242.5,276.0,242.5,267.5,243.0,259.0,243.5,251.0,244.5,243.0,245.0,235.0,246.0,227.0,246.0,219.0,246.5,211.0,247.0,203.0,247.0,194.5,247.5,187.0,247.5,179.0,248.0,171.0,248.5,163.0,249.5,155.0,250.5,147.0,250.5,139.5,251.0,131.5,251.5,123.5,252.5,115.5,253.0" stroke="black" stroke-width="2" fill="none" />
<polyline points="111.5,249.0,120.0,247.0,112.0,251.0,113.0,259.5,116.0,267.0" stroke="black" stroke-width="2" fill="none" />
<polyline points="118.0,246.5,126.0,246.5,133.5,245.5,141.0,244.5,148.5,243.5,156.0,242.0,164.0,241.5,172.0,241.0,180.0,240.5,188.5,240.5,196.5,240.0,204.5,239.0,212.0,238.0,219.5,238.0,227.5,237.5,235.5,237.5,243.5,237.0,251.0,236.5,258.5,236.0,267.0,235.5,275.0,235.0,282.5,234.0,291.0,234.0,299.0,233.5,306.5,233.5,314.0,233.0,322.5,233.0,331.0,232.5,339.0,232.0,346.5,231.0,355.0,230.0,362.5,230.0,370.0,230.0" stroke="black" stroke-width="2" fill="none" />
<polyline points="372.5,208.5,364.5,209.0,356.5,209.5,348.5,210.0,340.0,210.5,332.0,210.5,324.0,211.0,316.0,211.5,307.5,211.5,299.5,211.5,291.5,211.5,284.0,212.5" stroke="black" stroke-width="2" fill="none" />
<polyline points="298.0,217.5,306.0,217.5" stroke="black" stroke-width="2" fill="none" />
<polyline points="301.5,222.5,309.0,215.0,316.0,208.5,323.5,201.5,331.5,194.0,339.5,187.0,347.5,180.0,356.0,172.5,363.5,165.5" stroke="black" stroke-width="2" fill="none" />
<polyline points="356.0,168.5,348.0,169.0,340.0,169.5,331.5,170.5,323.0,171.5,315.0,172.0,307.0,172.5,299.0,173.0,291.5,173.5,283.5,174.0,275.5,175.0,268.0,175.5,259.5,176.0,251.5,176.5,243.0,177.0,234.5,177.5,226.5,178.0,219.0,178.5,211.0,178.5,203.0,178.5,195.0,178.5,187.0,178.5,179.0,179.5,171.5,180.0,163.5,180.5,155.5,181.0,147.5,181.5" stroke="black" stroke-width="2" fill="none" />
<polyline points="148.0,177.0,156.0,170.0,163.5,162.5,171.0,155.0,179.0,147.5,187.0,140.0" stroke="black" stroke-width="2" fill="none" />
<polyline points="181.5,139.5,190.0,139.5,194.0,143.5" stroke="black" stroke-width="2" fill="none" />
<polyline points="194.0,147.5,186.0,154.5,178.0,162.0,170.5,169.5,162.5,176.5,154.5,184.0" stroke="black" stroke-width="2" fill="none" />
<polyline points="154.5,191.0,162.5,190.0,170.5,189.0,178.5,187.5,186.5,187.0,194.5,186.0,202.5,186.0,210.5,185.0,218.5,184.5,226.5,184.5,234.5,184.0,242.5,183.5,250.5,183.5,258.5,182.5,266.0,182.0,273.5,182.0,281.5,181.5,289.5,181.0,297.0,181.0,305.0,181.0,313.0,180.5,321.0,180.0,329.5,179.5,338.0,179.0,346.5,178.5,355.5,178.0,364.0,177.0" stroke="black" stroke-width="2" fill="none" />
<polyline points="366.0,173.5,374.0,191.5,382.0,205.0" stroke="black" stroke-width="2" fill="none" />
<polyline points="387.0,189.5,379.0,190.0,371.0,190.5" stroke="black" stroke-width="2" fill="none" />
<polyline points="364.0,183.5,372.0,183.0,380.5,182.5" stroke="black" stroke-width="2" fill="none" />
<polyline points="380.0,183.5,373.0,168.5" stroke="black" stroke-width="2" fill="none" />
<polyline points="364.0,156.5,356.0,164.0,348.0,171.0,340.0,179.0,332.0,186.5,324.0,194.0,316.0,201.5,308.5,209.5,300.5,217.0" stroke="black" stroke-width="2" fill="none" />
<polyline points="300.0,210.5,307.5,209.5,315.0,209.0" stroke="black" stroke-width="2" fill="none" />
<polyline points="320.5,205.5,322.5,198.5,322.5,199.0,318.5,207.0,313.0,215.0,312.0,223.0,321.0,231.5,319.5,239.5" stroke="black" stroke-width="2" fill="none" />
<polyline points="314.0,260.5,309.5,268.5,308.5,276.5,317.0,268.5" stroke="black" stroke-width="2" fill="none" />
<polyline points="349.0,255.0,357.5,256.5" stroke="black" stroke-width="2" fill="none" />
<polyline points="352.0,264.0,351.5,256.5,352.5,248.5" stroke="black" stroke-width="2" fill="none" />
<polyline points="331.0,209.0,339.0,201.5,347.0,194.0,355.0,186.5" stroke="black" stroke-width="2" fill="none" />
<polyline points="351.0,185.5,359.0,195.5" stroke="black" stroke-width="2" fill="none" />
<polyline points="356.5,182.5,348.5,183.0,340.5,183.5,332.5,184.0,324.0,185.0,316.5,185.5,308.0,185.5,300.0,186.0,291.5,186.0,283.5,186.0,275.5,186.5,268.0,187.0,260.0,187.5,252.0,187.5,244.0,187.5,235.5,188.0,227.0,188.5,219.0,189.5,211.0,190.0,203.0,191.0,195.0,191.0,187.0,191.5,179.0,192.0,171.0,192.0,162.5,192.5" stroke="black" stroke-width="2" fill="none" />
<polyline points="162.0,185.0,170.5,177.5,179.5,170.5,188.0,163.0,196.0,155.5,204.5,147.5" stroke="black" stroke-width="2" fill="none" />
<polyline points="213.5,149.0,205.0,156.0,196.5,163.0,188.0,170.5,180.0,178.0,171.5,185.5,164.0,193.0,156.5,200.0" stroke="black" stroke-width="2" fill="none" />
<polyline points="155.5,197.0,163.5,197.0,171.5,196.0,179.5,195.5,187.5,195.0,196.0,195.0,203.5,194.5,211.5,194.5,219.0,194.0,227.0,193.5,235.5,193.5,243.5,193.0,252.0,192.5,260.0,192.0,267.5,191.0,275.5,190.5,283.5,190.0,291.0,189.5,298.5,189.0,306.0,189.0,313.5,188.5,322.0,188.0,330.5,187.5,339.0,187.0,347.0,187.0,355.0,186.5,363.5,186.5" stroke="black" stroke-width="2" fill="none" />
<polyline points="353.0,178.0,345.0,185.5,337.5,193.0,330.0,201.0,322.5,208.5" stroke="black" stroke-width="2" fill="none" />
<polyline points="321.5,208.5,326.0,216.0,324.0,224.5,326.0,228.0,331.5,227.0,339.5,226.0,347.5,213.0,355.5,208.5" stroke="black" stroke-width="2" fill="none" />
<polyline points="353.0,210.5,345.0,211.5,338.0,212.0,330.5,212.5,323.0,213.0,315.5,213.5,307.5,214.0,299.5,214.5,291.5,214.5,283.5,214.5,276.0,214.0,268.0,214.0,260.5,214.5,252.5,215.0,244.5,215.5,237.0,216.5,229.5,217.0,221.5,217.0,212.5,218.0,204.0,218.0,196.0,218.5,187.5,219.5,178.5,220.0,169.5,220.0,161.0,221.0,153.0,222.0,145.0,222.5" stroke="black" stroke-width="2" fill="none" />
<polyline points="145.0,224.5,153.5,216.5,162.0,209.0,170.5,201.5,179.0,194.5,187.0,187.5,196.0,180.0,204.5,172.0,213.0,164.0,221.5,156.5,229.5,149.0" stroke="black" stroke-width="2" fill="none" />
<polyline points="235.5,148.5,227.5,156.0,219.0,163.5,210.5,170.5,202.5,177.0,194.5,184.0,186.0,191.0,177.5,199.0,169.0,207.0" stroke="black" stroke-width="2" fill="none" />
<polyline points="165.5,207.0,157.5,207.5" stroke="black" stroke-width="2" fill="none" />
<polyline points="162.5,205.0,168.5,209.0,162.0,217.0,164.5,225.5,162.5,234.5,168.5,246.0,170.5,238.0,180.0,238.5,188.0,240.5,196.0,241.5,204.0,239.5,211.5,232.5,219.5,218.5,227.5,222.0,225.5,228.0" stroke="black" stroke-width="2" fill="none" />
<polyline points="237.5,227.0,245.5,219.0" stroke="black" stroke-width="2" fill="none" />
<polyline points="243.0,212.0,235.0,219.5,228.0,226.5" stroke="black" stroke-width="2" fill="none" />
<polyline points="227.5,218.5,235.0,211.5" stroke="black" stroke-width="2" fill="none" />
<polyline points="235.5,207.0,227.5,208.0,220.0,208.5,212.5,209.0,205.0,209.0,196.5,209.0,188.5,209.5" stroke="black" stroke-width="2" fill="none" />
<polyline points="189.5,214.0,197.0,207.5,205.0,200.0,213.0,193.0,220.5,185.5,229.0,177.5,236.5,169.5,244.5,161.5,252.0,154.0,259.5,147.0" stroke="black" stroke-width="2" fill="none" />
<polyline points="263.5,143.5,271.0,144.5" stroke="black" stroke-width="2" fill="none" />
<polyline points="268.0,145.5,259.5,153.5,251.5,161.0,243.0,169.0,234.0,177.0,226.0,184.5,217.5,192.5,209.0,199.5,201.0,206.5" stroke="black" stroke-width="2" fill="none" />
<polyline points="188.0,207.5,196.0,200.0,204.5,192.5,213.0,185.0,221.0,177.0,229.5,169.5,237.0,162.0,244.5,154.5,252.0,147.5" stroke="black" stroke-width="2" fill="none" />
<polyline points="243.0,147.0,235.0,155.0,227.0,163.0,219.5,170.5,212.0,178.0,204.0,185.5,196.0,193.0,188.0,200.5,179.5,208.0" stroke="black" stroke-width="2" fill="none" />
<polyline points="181.0,213.0,189.0,212.5,196.5,212.5,204.5,212.0,212.5,212.0,220.0,212.0,228.0,211.5,235.5,211.0,243.0,210.5,250.5,210.0,258.0,209.5,266.0,209.0,274.5,208.0" stroke="black" stroke-width="2" fill="none" />
<polyline points="257.5,206.0,264.5,212.0,253.5,217.0,261.0,214.0,268.0,212.0,262.5,221.0" stroke="black" stroke-width="2" fill="none" />
<polyline points="250.5,208.5,259.0,201.0,267.5,193.5,276.0,185.5,284.5,178.0,292.0,171.0,300.5,163.0,308.5,155.5,316.5,147.5,324.0,140.5" stroke="black" stroke-width="2" fill="none" />
<polyline points="308.0,147.5,300.5,155.0,292.5,163.0,284.5,171.0,276.5,178.5,268.0,186.0,261.0,192.5,253.5,199.5" stroke="black" stroke-width="2" fill="none" />
<polyline points="245.0,199.0,254.0,191.0,262.0,183.5,270.0,176.0,277.5,169.0,285.5,162.0,293.5,155.0,301.0,147.5" stroke="black" stroke-width="2" fill="none" />
<polyline points="299.5,136.0,307.5,135.5,316.0,134.5" stroke="black" stroke-width="2" fill="none" />
<polyline points="330.5,121.0,322.5,121.5,314.5,122.0,307.0,122.5,299.0,123.0,291.5,124.0,283.5,124.5,276.0,125.0,268.5,126.0,260.5,126.5,252.0,127.0" stroke="black" stroke-width="2" fill="none" />
<polyline points="251.5,125.0,259.5,124.0,268.0,123.0,276.0,123.0,284.0,127.0,292.5,127.0,298.0,137.0,306.0,132.0,314.0,134.0,318.0,132.5,326.0,130.5,335.0,131.5,343.0,129.5" stroke="black" stroke-width="2" fill="none" />
<polyline points="356.5,139.5,349.0,140.0,341.0,141.0,333.5,141.5,325.5,142.5,317.0,142.5,308.0,143.0,300.5,143.5,292.5,143.5,284.0,144.0,276.0,144.0,268.0,145.0,259.5,145.0,251.0,145.5,243.0,146.0,235.5,146.5,227.5,147.0,219.5,147.5,211.5,148.0,204.0,148.5,197.0,149.5,189.5,150.5,181.5,151.0,173.5,151.5,165.5,151.5,157.5,151.5,149.0,152.0" stroke="black" stroke-width="2" fill="none" />
<polyline points="149.0,144.5,157.0,144.0,165.0,144.0,172.5,143.5" stroke="black" stroke-width="2" fill="none" />
<polyline points="172.0,139.0,163.5,146.5,155.5,154.0,147.5,161.5,139.5,168.5,132.0,175.5,124.0,182.5" stroke="black" stroke-width="2" fill="none" />
<polyline points="126.5,180.5,126.5,188.5" stroke="black" stroke-width="2" fill="none" />
<polyline points="119.5,183.5,124.0,191.5,118.0,199.5,118.0,199.5" stroke="black" stroke-width="2" fill="none" />
<polyline points="117.0,198.0,125.0,197.0,132.0,196.5" stroke="black" stroke-width="2" fill="none" />
<polyline points="121.5,195.5,129.0,188.0,137.0,180.5" stroke="black" stroke-width="2" fill="none" />
<polyline points="138.5,179.5,130.5,179.5,122.0,179.5,114.0,180.5" stroke="black" stroke-width="2" fill="none" />
<polyline points="115.5,190.5,123.5,189.5,131.5,189.0,139.5,188.5" stroke="black" stroke-width="2" fill="none" />
<polyline points="144.0,192.0,155.0,188.0,156.0,195.0,152.0,203.0,149.5,211.0,148.5,218.0,147.5,226.0,145.0,234.0,144.0,242.0,141.5,245.0,145.5,238.0" stroke="black" stroke-width="2" fill="none" />
<polyline points="148.5,235.5,156.5,228.0,164.0,221.0" stroke="black" stroke-width="2" fill="none" />
<polyline points="164.5,222.0,156.5,222.5" stroke="black" stroke-width="2" fill="none" />
<polyline points="157.5,217.0,165.5,216.5" stroke="black" stroke-width="2" fill="none" />
<polyline points="162.5,216.0,170.5,206.0,178.5,208.5,181.0,216.5,183.0,224.5,180.5,230.5,179.5,239.0" stroke="black" stroke-width="2" fill="none" />
<polyline points="179.0,234.0,186.5,227.0,194.0,219.5" stroke="black" stroke-width="2" fill="none" />
<polyline points="197.5,220.0,188.5,221.5,181.0,226.5" stroke="black" stroke-width="2" fill="none" />
<polyline points="164.5,228.0,156.5,235.5" stroke="black" stroke-width="2" fill="none" />
<polyline points="155.5,232.5,163.5,231.5" stroke="black" stroke-width="2" fill="none" />
<polyline points="157.5,237.5,149.5,233.0" stroke="black" stroke-width="2" fill="none" />
<polyline points="147.0,229.0,155.0,228.0,163.5,227.5,171.5,226.5,180.0,226.0,188.5,226.0,196.5,225.5,204.5,225.5,212.5,225.0,220.5,225.0,228.0,224.5,236.5,224.5,244.0,224.0,251.5,223.5" stroke="black" stroke-width="2" fill="none" />
<polyline points="236.5,217.0,228.5,217.0,220.5,217.5,213.0,218.0" stroke="black" stroke-width="2" fill="none" />
<polyline points="236.0,205.0,244.0,202.0,252.0,201.5,260.0,201.5,267.5,199.5,275.0,199.5,283.0,199.0,290.0,203.0" stroke="black" stroke-width="2" fill="none" />
<polyline points="289.0,228.5,283.5,236.5,275.5,240.5,276.5,238.5,281.5,239.0,289.5,235.0" stroke="black" stroke-width="2" fill="none" />
<polyline points="324.0,206.5,332.0,211.5" stroke="black" stroke-width="2" fill="none" />
<polyline points="362.5,222.0,355.0,223.0,346.5,223.5,338.0,223.5,329.5,224.0,321.5,225.0,313.5,226.0,306.0,226.5,298.5,226.5,291.0,227.0,283.5,227.0,275.5,227.5,267.5,228.5,259.5,228.5,251.5,229.0,244.0,229.0,236.0,229.5,228.0,229.5,220.0,230.0,212.0,230.5,203.5,230.5,195.5,231.5,187.5,232.0,180.0,232.5,172.0,233.0,164.5,233.5,156.5,234.0,148.5,235.0,140.0,236.0,132.0,237.0,124.5,238.0,116.5,238.5" stroke="black" stroke-width="2" fill="none" />
<polyline points="146.5,213.5,154.5,213.0,163.0,213.0,171.5,212.5" stroke="black" stroke-width="2" fill="none" />
<polyline points="162.0,201.0,170.0,201.0,178.5,200.5,186.5,200.0,195.0,199.5,203.5,198.5,212.0,198.0,220.0,197.0,228.0,196.5,236.0,196.0" stroke="black" stroke-width="2" fill="none" />
<polyline points="244.5,199.5,236.5,207.5,239.5,215.5,239.0,223.5,231.0,230.5,239.0,223.0" stroke="black" stroke-width="2" fill="none" />
<polyline points="247.5,230.0,250.0,225.0,244.0,218.0,245.0,210.0,245.5,208.0" stroke="black" stroke-width="2" fill="none" />
<polyline points="239.5,208.5,249.5,218.5,257.0,224.5,265.0,217.5" stroke="black" stroke-width="2" fill="none" />
<polyline points="289.0,137.5,297.5,136.5" stroke="black" stroke-width="2" fill="none" />
<polyline points="283.0,131.5,275.0,132.0,266.5,132.0,259.0,133.0" stroke="black" stroke-width="2" fill="none" />
<polyline points="262.5,126.5,271.5,129.0,264.5,132.0,270.5,142.5,281.5,143.5" stroke="black" stroke-width="2" fill="none" />
<polyline points="282.5,130.5,274.5,131.5,272.5,125.0" stroke="black" stroke-width="2" fill="none" />
<polyline points="267.0,118.0,259.0,118.5,251.0,119.0" stroke="black" stroke-width="2" fill="none" />
<polyline points="261.0,105.5,268.5,98.5,276.0,91.0" stroke="black" stroke-width="2" fill="none" />
<polyline points="275.5,91.5,267.5,92.0,260.0,93.0,252.0,93.5,243.5,94.0,235.5,94.5" stroke="black" stroke-width="2" fill="none" />
<polyline points="236.0,97.0,244.5,90.0,252.5,82.5" stroke="black" stroke-width="2" fill="none" />
<polyline points="244.0,84.5,236.0,92.0" stroke="black" stroke-width="2" fill="none" />
<polyline points="234.5,89.0,242.5,88.5,250.5,88.5,258.5,87.5,266.0,87.0" stroke="black" stroke-width="2" fill="none" />
<polyline points="268.0,84.5,260.0,91.5,252.0,98.5,243.5,106.0" stroke="black" stroke-width="2" fill="none" />
<polyline points="237.0,106.5,245.0,99.0,253.0,91.5,261.5,84.0" stroke="black" stroke-width="2" fill="none" />
<polyline points="266.0,96.0,258.5,97.0,251.0,98.0,243.0,98.5" stroke="black" stroke-width="2" fill="none" />
<polyline points="253.5,106.0,261.5,98.5,269.5,91.0,277.5,83.5" stroke="black" stroke-width="2" fill="none" />
<polyline points="274.0,84.0,266.0,84.0,258.5,84.0,250.5,84.5,242.5,85.0,234.5,85.0" stroke="black" stroke-width="2" fill="none" />
<polyline points="238.5,83.5,255.0,83.5" stroke="black" stroke-width="2" fill="none" />
<polyline points="243.0,82.5,251.0,83.0,259.0,82.0,268.0,84.0" stroke="black" stroke-width="2" fill="none" />
<polyline points="273.5,75.5,265.5,76.0,257.5,77.0,250.0,77.5,242.0,77.5,234.5,78.0,227.0,78.5" stroke="black" stroke-width="2" fill="none" />
<polyline points="228.5,79.0,236.5,72.0,244.5,76.5" stroke="black" stroke-width="2" fill="none" />
<polyline points="239.0,79.5,247.0,81.5,254.5,77.5,262.5,81.0,270.0,81.5,274.0,87.5,266.5,96.0,261.5,101.0" stroke="black" stroke-width="2" fill="none" />
<polyline points="271.5,94.0,280.0,97.0,280.0,101.5" stroke="black" stroke-width="2" fill="none" />
<polyline points="283.5,107.5,276.0,107.0,268.0,107.0,260.5,107.5,252.5,108.0,244.5,108.5,237.0,109.5,229.5,110.0" stroke="black" stroke-width="2" fill="none" />
<polyline points="223.0,113.5,231.0,110.5,229.5,113.5,230.5,112.5,238.0,114.0,244.5,108.0,253.5,115.0,252.5,126.0,242.5,134.0,245.0,140.5,250.0,144.5,246.0,140.5,251.5,137.0,260.0,138.0,268.0,136.5,276.5,137.5,279.0,140.0" stroke="black" stroke-width="2" fill="none" />
<polyline points="244.0,133.0,236.5,133.5,228.0,133.5" stroke="black" stroke-width="2" fill="none" />
<polyline points="219.5,124.5,212.0,125.5" stroke="black" stroke-width="2" fill="none" />
<polyline points="212.0,117.5,204.0,119.5" stroke="black" stroke-width="2" fill="none" />
<polyline points="194.5,116.0,186.0,116.0,178.0,116.0,170.0,116.0" stroke="black" stroke-width="2" fill="none" />
<polyline points="163.5,123.0,149.5,131.0,148.5,133.0,156.0,126.5,160.5,123.0,170.5,116.5,178.5,115.5,186.5,113.5" stroke="black" stroke-width="2" fill="none" />
<polyline points="194.0,100.0,202.0,98.0,210.5,98.0,221.5,92.0,227.5,96.0,230.0,101.0,243.5,99.5" stroke="black" stroke-width="2" fill="none" />
<polyline points="228.0,102.5,236.0,102.0,244.0,101.5,252.0,101.0,260.0,100.0,268.0,99.5,275.5,98.5,282.5,98.0" stroke="black" stroke-width="2" fill="none" />
<polyline points="294.0,98.0,302.0,99.0" stroke="black" stroke-width="2" fill="none" />
<polyline points="281.5,79.0,273.5,72.0,265.5,67.0,258.0,64.0,250.0,63.0,242.0,64.0,234.0,67.0,226.5,75.0" stroke="black" stroke-width="2" fill="none" />
<polyline points="233.5,69.5,241.5,69.0,250.0,69.0,258.0,68.5,266.0,67.5" stroke="black" stroke-width="2" fill="none" />
<polyline points="266.0,70.5,273.0,78.0,269.5,75.0" stroke="black" stroke-width="2" fill="none" />
<polyline points="241.0,64.5,227.0,72.5,225.0,80.5,230.0,88.5,237.0,97.0,234.5,102.0,236.0,107.0,240.5,99.0,246.0,104.0,254.5,104.0,262.5,104.0,270.5,104.0,276.5,106.5,284.0,106.5,292.0,107.5" stroke="black" stroke-width="2" fill="none" />
<polyline points="347.5,113.0,355.0,119.5" stroke="black" stroke-width="2" fill="none" />
<polyline points="346.0,175.0,338.0,175.0,330.5,175.0,323.0,175.0,314.5,176.0,307.0,177.0,299.0,177.5,290.5,178.0,282.0,178.0,274.5,178.5,267.0,178.5,259.0,179.0,250.5,179.0,243.0,180.0,235.0,180.5,226.5,181.0,219.0,181.5,211.5,182.0,203.5,182.5,195.5,182.5,187.5,183.0,180.0,183.0,172.5,184.0,164.5,185.0" stroke="black" stroke-width="2" fill="none" />
<polyline points="155.5,176.0,163.0,168.5,170.5,160.5,178.5,152.5,186.0,145.0,194.0,138.0" stroke="black" stroke-width="2" fill="none" />
<polyline points="197.0,130.5,188.5,131.0,180.5,131.0,172.5,131.5,164.0,131.5,156.0,132.5,148.0,133.0,140.0,133.0,132.5,133.0" stroke="black" stroke-width="2" fill="none" />
<polyline points="132.5,131.0,140.5,136.0,149.0,140.5" stroke="black" stroke-width="2" fill="none" />
<polyline points="154.5,140.0,146.5,147.5,138.5,155.0" stroke="black" stroke-width="2" fill="none" />
<polyline points="132.0,156.5,140.0,156.0,149.0,155.0,157.5,154.5,165.5,154.0,173.5,153.5,181.0,153.5,189.0,153.0,196.5,153.5,205.0,154.0,213.0,153.5,221.0,153.0,229.0,152.0,237.0,151.5,244.0,151.0,251.5,150.5,259.0,150.5,266.0,150.0,273.5,149.5,281.0,149.0,289.5,148.5,297.0,148.0,305.5,148.0,314.0,148.0,323.0,147.0,331.5,146.5,339.5,145.5,347.5,144.5,355.0,144.0,362.5,143.0,370.0,142.5" stroke="black" stroke-width="2" fill="none" />
<polyline points="356.5,157.0,348.5,157.5,339.5,158.5,331.0,159.0,323.0,159.5,315.0,159.5,306.0,160.0,298.0,160.5,289.5,161.5,281.5,162.5,274.0,163.0,266.0,163.0,258.5,163.0,250.5,163.5,242.5,164.0,234.5,164.0,227.0,164.5,219.5,165.0,211.5,165.5,204.0,166.0,196.0,166.5,188.0,167.0,179.5,168.0,171.0,168.5,163.5,168.5,155.5,169.0" stroke="black" stroke-width="2" fill="none" />
<polyline points="148.5,169.5,156.0,161.0,163.5,153.5,171.5,146.5,179.5,139.0" stroke="black" stroke-width="2" fill="none" />
<polyline points="168.0,130.5,176.0,128.0,176.5,123.5" stroke="black" stroke-width="2" fill="none" />
<polyline points="163.0,139.0,154.5,147.0,146.0,155.0,138.0,163.0" stroke="black" stroke-width="2" fill="none" />
<polyline points="131.5,166.0,140.0,165.5,148.5,165.0,156.5,164.5,165.0,164.0,173.5,163.5,181.5,163.0,189.5,162.5,197.0,161.5,205.0,160.5,213.0,159.5,221.0,159.5,228.5,158.5,236.0,158.5,243.5,159.0,251.0,159.0,258.5,158.5,266.5,159.0,274.0,158.5,281.5,158.0,289.0,158.0,297.5,157.0,305.5,156.5,314.0,155.5,323.0,154.5,331.0,154.0,338.5,153.0,346.5,152.5,354.5,151.5,362.0,151.0,370.5,150.0" stroke="black" stroke-width="2" fill="none" />
<polyline points="357.5,166.5,349.0,167.0,341.0,167.0,332.5,168.0,324.5,168.5,316.0,169.0,308.0,169.5,300.0,170.0,291.5,170.5,283.5,170.5,275.5,170.5,268.0,171.0,260.0,171.5,252.5,172.0,244.5,172.0,236.5,172.5,229.0,173.0,220.5,174.0,212.5,174.0,204.5,174.5,196.0,174.5,187.5,175.0,179.5,175.5,171.5,176.5,163.5,176.5,155.0,177.0,146.5,177.0" stroke="black" stroke-width="2" fill="none" />
<polyline points="133.5,173.0,135.5,181.0,134.5,189.0,130.5,196.5,122.5,204.5,132.0,195.0" stroke="black" stroke-width="2" fill="none" />
<polyline points="148.5,205.5,156.5,205.0,164.5,204.5,172.5,204.0,180.0,203.5,188.0,203.0,196.0,203.5,204.0,203.5,211.5,203.0,219.0,202.5,227.0,201.5,234.5,201.0,242.0,200.5,250.0,200.5,257.5,200.0,265.5,199.0,273.5,198.5,282.0,198.0,290.0,196.5,297.5,196.0,305.5,195.5,313.5,195.0,322.0,195.0,330.5,194.5,338.5,194.5,346.5,193.5,354.5,193.0,362.5,192.0" stroke="black" stroke-width="2" fill="none" />
<polyline points="348.0,181.0,356.0,177.5,369.0,172.5,372.5,180.5,376.0,188.5,380.0,196.5,384.5,204.5" stroke="black" stroke-width="2" fill="none" />
<polyline points="219.5,146.5,211.5,154.0,203.5,162.0,195.5,170.0,187.5,177.5,179.0,185.5,171.5,193.0,164.0,200.0,156.5,207.5,148.5,215.0" stroke="black" stroke-width="2" fill="none" />
<polyline points="160.5,189.5,160.5,185.5,152.5,181.5,144.5,176.5,138.5,166.5,132.5,169.5,120.5,175.5,112.5,193.0" stroke="black" stroke-width="2" fill="none" />
<polyline points="124.5,175.0,132.0,174.5,140.0,173.5,148.0,173.0,156.5,172.0,165.0,171.0,172.5,170.5,180.0,169.5,188.0,169.0,196.0,168.0,204.0,167.5,212.5,167.0,220.5,167.5,228.0,167.0,236.0,167.0,244.0,166.5,252.0,166.5,260.0,166.5,268.0,166.5,275.5,166.5,283.5,166.0,291.5,165.5,300.0,164.5,308.0,163.5,315.0,162.5,323.0,161.5,331.0,161.0,339.0,160.5,347.0,160.0,355.0,160.0,362.5,159.5,370.5,158.5,378.0,158.0" stroke="black" stroke-width="2" fill="none" />
<polyline points="221.0,133.0,213.0,134.0,205.0,134.5" stroke="black" stroke-width="2" fill="none" />
<polyline points="202.5,133.5,204.5,141.5,205.5,134.5,209.5,127.5" stroke="black" stroke-width="2" fill="none" />
<polyline points="214.5,137.0,223.0,133.0,221.0,136.5,221.0,142.5,229.5,143.5,235.0,146.5,233.0,145.5" stroke="black" stroke-width="2" fill="none" />
<polyline points="213.5,101.0,205.5,101.5" stroke="black" stroke-width="2" fill="none" />
<polyline points="198.5,91.0,206.5,90.0,214.5,90.0,222.5,89.5,231.0,85.5,239.0,95.5,247.0,99.0,259.0,99.0,267.0,96.0,275.0,86.0,283.5,92.0,291.0,92.5,298.5,94.5,306.5,95.5,314.5,96.5,322.5,96.0,331.0,98.0,339.0,101.0,347.5,104.0,355.0,108.0,363.0,114.5" stroke="black" stroke-width="2" fill="none" />
<polyline points="357.5,150.0,349.5,151.0,341.5,151.5,333.5,151.5,325.0,152.0,316.5,152.0,308.5,152.5,300.5,153.0,292.5,153.5,284.5,154.0,276.5,154.0,268.5,154.0,260.0,154.5,251.5,154.5,243.0,155.0,235.5,155.5,228.0,156.5,220.0,156.5,212.0,157.0,204.5,157.5,196.5,158.0,188.0,158.0,180.0,158.5,172.5,159.0,164.5,159.5,156.0,160.0,148.0,161.0" stroke="black" stroke-width="2" fill="none" />
<polyline points="138.5,146.5,146.5,139.0,155.0,131.5" stroke="black" stroke-width="2" fill="none" />
<polyline points="145.5,132.5,138.0,140.0" stroke="black" stroke-width="2" fill="none" />
<polyline points="140.0,139.5,148.0,142.5" stroke="black" stroke-width="2" fill="none" />
<polyline points="133.0,148.5,140.5,148.0,148.0,147.5,156.0,147.5,164.0,147.0,172.5,147.0,180.5,146.5,189.0,146.0,197.0,145.0,205.5,145.0,213.5,144.5,221.5,144.0,229.5,144.0,237.0,143.5,245.0,143.5,252.5,143.0,260.5,142.5,268.5,142.0,276.0,141.5,283.5,141.0,291.5,140.5,299.0,140.0,306.5,139.0,314.0,138.5,321.5,138.0,329.5,137.5,337.5,136.5,346.0,136.0,354.5,135.0,362.0,134.5,370.0,134.5" stroke="black" stroke-width="2" fill="none" />
<polyline points="370.0,125.0,362.0,125.5,353.5,126.0,346.0,126.5,338.0,127.0,330.5,127.5,322.5,128.0,314.5,128.5,307.0,129.0,299.5,129.5,291.0,130.5,283.5,131.0,276.0,132.0,268.0,132.5,260.0,133.5,252.5,134.0,245.0,134.5,237.0,134.5,229.0,135.0,221.0,136.0,213.5,136.0,205.0,136.5,197.0,137.0,189.0,138.0,181.0,139.0,172.5,140.0,163.5,140.0,155.0,140.5,146.5,140.5,138.5,141.0,131.0,142.0" stroke="black" stroke-width="2" fill="none" />
<polyline points="135.5,130.0,138.0,138.0,143.5,138.5" stroke="black" stroke-width="2" fill="none" />
<polyline points="138.0,127.5,151.0,135.5,161.0,135.5,169.0,137.5,177.0,133.5,185.0,133.5,192.5,130.5,198.0,135.0,201.0,135.0,201.5,143.5,210.5,144.5,219.0,144.5,223.0,135.5,231.0,136.0,238.0,139.0,240.0,137.0" stroke="black" stroke-width="2" fill="none" />
<polyline points="175.0,94.5,166.5,96.5,158.0,97.0,149.5,100.5,141.5,103.5,133.5,112.0" stroke="black" stroke-width="2" fill="none" />
<polyline points="132.0,124.5,140.0,124.0,148.5,123.5" stroke="black" stroke-width="2" fill="none" />
<polyline points="163.0,97.0,141.5,105.0,135.5,112.5,135.5,120.0,130.5,127.5,129.5,135.5,128.5,143.5,127.5,151.5,127.5,159.5,124.0,167.5,120.0,175.5,116.0,183.0,113.5,191.5,111.5,199.5,111.5,207.5,108.5,215.5,107.5,224.0,106.0,232.0,106.0,240.0,106.0,248.5,107.0,256.0,108.0,264.0,109.5,272.5,112.5,280.5,116.0,291.5,120.0,299.5,129.0,307.5,144.0,315.0,158.0,316.0,166.5,319.5,174.5,321.5,182.5,319.0,193.5,325.0,202.0,325.5,210.0,327.0,218.0,327.0,226.5,328.0,234.5,328.0,242.5,329.0,250.5,329.5,258.5,328.5,266.5,328.5,274.5,328.5,282.5,327.5,291.0,326.5,299.0,325.5,307.0,324.5,315.0,322.5,322.5,320.5,330.5,318.0,338.5,316.0,346.5,313.0,355.0,310.0,363.0,305.0" stroke="black" stroke-width="2" fill="none" />
<polyline points="513.5,341.0,514.0,333.0,514.0,325.0,514.0,317.5,514.0,309.5,513.5,301.5,513.5,294.0,513.5,285.5,513.5,278.0,513.5,270.0,513.0,261.5,512.5,253.0,512.5,245.0,512.0,237.0,512.0,228.5,511.5,220.0,511.5,212.5,511.5,204.5,512.5,196.0,513.0,188.0,513.0,180.5,513.5,172.5,514.0,164.5,514.0,156.5,514.5,148.5,514.5,141.0,515.0,132.5,514.5,125.0,514.0,116.5,513.5,108.5,513.5,100.5,513.5,93.0,513.0,85.0,513.0,77.0,513.0,69.5,513.0,61.5,513.0,53.5,513.0,45.5,513.5,37.5,513.5,29.5,513.5,21.0,513.5,13.0,513.5,4.5,506.5,2.0,498.0,2.0,490.0,2.0,481.5,1.5,474.0,2.0,465.5,2.0,457.5,2.5,449.5,3.0,442.0,3.0,434.0,3.5,427.0,3.5,419.5,3.5,411.5,3.5,404.0,3.5,396.0,3.5,388.0,3.5,380.0,3.5,372.0,3.5,363.5,3.5,355.5,3.5,347.5,3.0,339.5,3.0,331.5,3.0,323.5,3.0,315.5,3.5,307.0,3.5,298.5,3.0,290.0,3.0,282.0,2.5,274.0,2.5,266.5,2.5,258.0,3.0,250.0,3.5,241.5,3.0,233.5,3.5,226.0,3.0,218.5,3.0,210.5,2.5,203.0,2.5,195.0,2.5,187.0,3.0,179.0,3.0,171.0,3.0,162.5,2.5,154.5,2.5,147.0,2.5,138.5,2.5,130.5,2.5,122.5,2.5,114.0,2.0,106.0,2.0,98.0,2.0,90.0,2.0,82.0,2.5,74.0,2.0,66.0,2.0,58.5,2.0,51.0,2.5,43.5,2.5,35.5,3.0,27.5,2.5,19.0,2.5,11.0,2.0,3.0,2.0" stroke="black" stroke-width="2" fill="none" />
</svg>