<svg xmlns="http://www.w3.org/2000/svg" version="1.1"><polyline points="2.0,1.5,2.5,9.5,2.5,17.5,2.5,25.5,2.5,33.5,2.5,41.5,3.0,49.5,4.0,57.0,4.5,65.0,4.5,72.5,4.5,81.0,4.5,89.0,4.0,97.0,3.5,105.5,3.5,114.5,3.5,123.0,3.5,131.0,3.0,138.5,3.0,146.5,3.0,154.5,3.0,162.5,2.5,170.5,2.5,178.5,2.5,186.0,2.5,194.0,3.0,202.0,3.0,210.0,3.0,218.0,3.5,226.0,4.0,234.5,4.0,242.5,4.0,250.5,4.0,258.5,3.5,266.5,3.0,275.0,3.0,283.0,3.0,291.0,3.0,298.5,3.5,306.5,3.0,314.5,3.0,322.5,3.0,330.5,2.5,338.5,7.5,342.5,15.5,342.0,23.5,341.5,31.0,341.5,39.0,341.5,46.5,341.5,54.0,342.0,62.0,342.0,70.0,342.0,79.0,341.5,87.0,341.5,95.0,342.0,103.0,342.5,111.5,342.5,119.5,343.0,128.0,343.5,136.5,343.5,144.5,344.0,152.5,344.0,160.0,344.0,168.0,343.5,176.5,343.0,184.5,343.0,192.0,343.0,200.0,342.5,207.5,342.0,215.5,341.5,224.0,341.5,231.5,341.5,239.5,342.0,247.5,342.0" stroke="black" stroke-width="2" fill="none" />
<polyline points="235.5,336.0,243.5,335.5,252.0,334.5,260.0,333.5,267.0,332.5,275.0,331.5" stroke="black" stroke-width="2" fill="none" />
<polyline points="285.0,328.5,293.5,321.0,301.5,313.0,309.5,305.0,317.0,297.5,324.5,290.5,332.0,283.0" stroke="black" stroke-width="2" fill="none" />
<polyline points="333.5,275.5,325.5,283.0,317.5,290.5,309.5,298.0,301.5,306.0,294.0,313.5,286.5,321.0,278.5,328.5" stroke="black" stroke-width="2" fill="none" />
<polyline points="269.5,327.0,277.0,319.5,284.5,312.5,292.0,305.5,300.5,298.0,308.0,291.0,316.5,283.5,324.5,276.0,332.5,268.5" stroke="black" stroke-width="2" fill="none" />
<polyline points="329.5,260.5,321.5,268.0,314.0,274.5,306.5,281.5,299.5,288.5,292.0,296.0,284.5,303.5,276.5,311.0,268.5,318.5,260.0,325.5" stroke="black" stroke-width="2" fill="none" />
<polyline points="251.0,325.5,258.5,318.5,267.0,310.5,275.0,302.5,283.0,295.0,291.0,287.5,298.5,280.0,306.5,273.0,314.0,266.0,322.0,259.0,330.0,251.0" stroke="black" stroke-width="2" fill="none" />
<polyline points="330.5,241.0,322.0,248.5,314.0,256.5,305.5,264.5,297.0,272.5,289.0,280.5,281.0,287.5,273.5,294.5,265.5,301.5,257.5,309.0,249.0,317.0,241.0,324.5" stroke="black" stroke-width="2" fill="none" />
<polyline points="234.0,324.0,241.5,316.5,249.5,309.0,257.5,301.5,265.0,294.5,273.0,287.5,281.5,280.5,290.0,272.5,298.0,265.0,307.0,257.0,315.5,249.0,323.5,241.5,332.0,233.5" stroke="black" stroke-width="2" fill="none" />
<polyline points="332.5,234.0,332.5,242.0,333.5,250.5,331.5,260.5,331.5,268.0,330.5,276.5,329.5,284.5,327.0,292.5,323.0,300.5,319.5,308.5,319.0,309.5,327.0,294.5" stroke="black" stroke-width="2" fill="none" />
<polyline points="316.0,307.5,308.5,314.5,301.0,322.0" stroke="black" stroke-width="2" fill="none" />
<polyline points="298.5,313.0,306.5,312.5,315.0,312.5" stroke="black" stroke-width="2" fill="none" />
<polyline points="315.0,305.5,307.0,305.5" stroke="black" stroke-width="2" fill="none" />
<polyline points="308.0,297.5,315.5,297.0" stroke="black" stroke-width="2" fill="none" />
<polyline points="298.5,305.5,290.0,306.0" stroke="black" stroke-width="2" fill="none" />
<polyline points="292.0,315.0,284.0,315.5" stroke="black" stroke-width="2" fill="none" />
<polyline points="289.5,289.5,297.5,289.0,306.0,289.0,314.5,288.5,322.5,288.5" stroke="black" stroke-width="2" fill="none" />
<polyline points="324.0,279.5,315.5,280.5,307.0,281.5,299.0,282.0,291.0,282.5" stroke="black" stroke-width="2" fill="none" />
<polyline points="284.5,274.5,292.5,274.0,301.0,274.0,309.5,273.5,317.5,273.5" stroke="black" stroke-width="2" fill="none" />
<polyline points="324.0,236.5,316.0,243.5,308.0,250.5,299.5,258.0,291.0,265.5,282.5,273.0,274.0,280.5,266.0,288.0,258.0,295.0,249.5,302.5,241.5,310.0,233.5,317.5,225.0,325.0" stroke="black" stroke-width="2" fill="none" />
<polyline points="219.0,325.0,227.0,318.0,235.0,310.5,242.5,303.5,251.5,296.0,259.5,287.5,268.0,279.5,276.0,271.5,284.5,263.5,292.0,256.5,300.0,249.0,308.0,241.5,316.5,234.0,324.5,226.5" stroke="black" stroke-width="2" fill="none" />
<polyline points="324.5,218.5,316.5,226.0,308.0,232.5,299.5,240.0,291.0,247.5,282.5,255.0,274.5,263.0,267.0,270.5,259.0,278.5,251.5,286.0,243.5,293.5,235.5,301.5,227.5,308.5,219.5,316.0" stroke="black" stroke-width="2" fill="none" />
<polyline points="212.0,316.5,220.0,308.5,228.5,301.0,237.5,293.0,245.5,285.5,253.5,278.0,261.0,271.5,269.0,264.0,277.0,257.0,284.5,249.5,293.0,241.5,300.5,233.5,308.5,225.5,316.0,218.0,323.5,211.0" stroke="black" stroke-width="2" fill="none" />
<polyline points="325.5,204.0,317.0,211.5,309.0,219.0,301.0,226.5,292.5,233.5,284.5,241.0,277.0,249.0,269.0,256.0,261.5,263.5,254.0,271.0,245.5,278.0,237.5,285.5,229.0,293.0,221.0,301.5,213.0,310.0,205.0,317.5" stroke="black" stroke-width="2" fill="none" />
<polyline points="205.0,312.5,213.0,312.5,220.5,311.5,228.0,311.5,235.5,312.0,243.0,312.0,250.5,311.5,258.5,312.0,266.0,311.5,273.5,311.0" stroke="black" stroke-width="2" fill="none" />
<polyline points="283.5,326.5,276.0,327.0,268.0,327.5,260.5,328.5,252.5,329.0,244.5,330.0,237.0,330.5" stroke="black" stroke-width="2" fill="none" />
<polyline points="212.0,326.5,220.0,326.0,228.0,325.5,236.0,325.0,244.0,324.0,252.0,323.5,259.5,322.5,266.5,322.0,274.0,322.0,282.0,321.5,290.0,321.0,298.5,320.5,306.5,320.0" stroke="black" stroke-width="2" fill="none" />
<polyline points="276.0,303.0,268.0,303.5,259.5,303.5,251.5,303.5,243.5,303.5,236.0,304.5" stroke="black" stroke-width="2" fill="none" />
<polyline points="211.0,322.5,218.5,322.0,226.0,321.5,234.0,321.5,241.5,321.0,249.5,320.0,257.5,319.5,266.0,319.0,274.0,317.5,281.5,317.0,289.5,316.5,297.5,316.0,306.0,316.0" stroke="black" stroke-width="2" fill="none" />
<polyline points="315.0,310.5,307.0,311.5,300.0,312.5,292.0,313.5,283.5,314.5,275.5,315.0,267.5,315.5,260.0,315.5,252.0,315.5,244.0,315.5,236.0,315.5,228.0,316.0,220.0,316.0,212.5,316.5,204.5,316.0,196.0,316.5" stroke="black" stroke-width="2" fill="none" />
<polyline points="197.0,309.0,205.0,301.0,213.0,293.0,221.0,285.0,228.0,277.0,236.0,269.0,244.0,262.0,252.0,254.5,260.0,247.5,268.0,240.0,276.0,232.5,284.0,225.0,292.0,217.0,300.0,209.0,308.5,202.0,316.5,194.5" stroke="black" stroke-width="2" fill="none" />
<polyline points="321.5,189.5,323.0,197.5,325.0,208.5,327.0,217.5,327.0,222.5,328.0,231.0,326.5,239.0,329.5,243.0,330.5,250.5,327.0,258.5,329.0,261.0,327.0,265.0,325.0,273.0" stroke="black" stroke-width="2" fill="none" />
<polyline points="301.5,231.5,293.5,232.5,285.0,232.5,276.0,233.0" stroke="black" stroke-width="2" fill="none" />
<polyline points="274.5,226.5,282.5,225.5,291.0,225.0" stroke="black" stroke-width="2" fill="none" />
<polyline points="288.0,221.5,290.5,220.5,290.5,218.0" stroke="black" stroke-width="2" fill="none" />
<polyline points="302.5,217.5,303.0,219.5,303.0,227.5,302.0,236.0,306.0,244.0" stroke="black" stroke-width="2" fill="none" />
<polyline points="307.5,227.5,299.5,228.0" stroke="black" stroke-width="2" fill="none" />
<polyline points="315.5,243.5,307.0,244.5,299.0,245.0,291.0,245.5,283.0,246.0,275.5,246.5,267.5,247.0,259.5,248.0,252.0,248.5,243.5,249.0,235.5,249.5,227.0,250.0,218.5,250.5,210.5,251.0" stroke="black" stroke-width="2" fill="none" />
<polyline points="213.0,242.0,220.5,241.5,228.5,241.0,236.5,241.0,244.0,240.5,252.0,240.0,259.5,239.5,267.5,239.5,275.5,239.5,284.0,239.0,292.0,238.5,300.0,238.0" stroke="black" stroke-width="2" fill="none" />
<polyline points="309.5,211.5,301.0,211.5,292.0,212.0,284.5,212.5,276.5,212.5,268.0,213.0,260.0,213.0,252.0,214.0,243.5,214.0,235.0,214.5,227.0,215.0,219.5,215.5,211.5,216.0" stroke="black" stroke-width="2" fill="none" />
<polyline points="205.0,212.0,197.5,219.5,188.5,227.0,180.0,235.0" stroke="black" stroke-width="2" fill="none" />
<polyline points="178.5,235.0,186.5,228.0,194.0,221.0,202.0,214.0,210.0,206.0,218.5,198.5,226.5,191.0,234.5,183.5,242.5,175.5,250.5,168.0,258.5,161.0,266.5,154.0,274.5,146.5,282.0,139.0,290.5,131.0" stroke="black" stroke-width="2" fill="none" />
<polyline points="289.0,126.0,281.5,126.0,273.5,126.5,265.5,127.0,258.0,127.0,250.5,127.5,242.5,128.5,234.5,128.5,226.5,129.0" stroke="black" stroke-width="2" fill="none" />
<polyline points="227.5,138.5,235.5,138.0,244.0,137.5,252.0,137.0,259.5,136.0,267.5,135.5,275.5,135.0,283.0,134.5" stroke="black" stroke-width="2" fill="none" />
<polyline points="284.5,129.0,284.0,137.0,286.5,144.5,291.0,142.5" stroke="black" stroke-width="2" fill="none" />
<polyline points="292.5,139.5,284.0,147.5,276.0,155.0,267.5,162.5,258.5,169.5,250.0,177.0,242.0,185.0,234.0,193.0,225.5,200.5,217.5,208.0,209.5,215.5,201.5,223.0,194.0,229.5,186.5,236.5,179.5,243.5" stroke="black" stroke-width="2" fill="none" />
<polyline points="178.0,245.0,186.0,244.5,195.0,244.0,203.0,243.0,211.0,242.0,218.0,241.5,226.5,241.5,234.5,241.5,242.0,241.5,250.0,241.0,258.0,240.0,266.0,240.0,274.5,239.5,282.5,239.0,291.0,238.5,299.5,237.5,308.0,237.0,316.0,236.0,324.0,235.5,332.0,235.0" stroke="black" stroke-width="2" fill="none" />
<polyline points="315.5,258.0,307.5,258.5,300.0,259.0,292.0,259.5,284.0,259.5,276.0,259.5,267.5,260.0,259.0,260.5,251.0,261.5,243.0,262.0,235.0,263.0,227.0,263.0,219.0,263.5,211.0,264.0,203.0,264.0,194.5,264.5" stroke="black" stroke-width="2" fill="none" />
<polyline points="196.5,257.0,204.5,256.0,212.0,255.0,219.5,255.0,227.5,254.5,235.5,254.5,243.5,254.0,251.0,253.5,258.5,253.0,267.0,252.5,275.0,252.0,282.5,251.0,291.0,251.0,299.0,250.5,306.5,250.5,314.0,250.0" stroke="black" stroke-width="2" fill="none" />
<polyline points="331.5,286.5,323.5,286.5,316.0,286.0,308.0,286.0,300.5,286.5,292.5,287.0,284.5,287.5,277.0,288.5,269.5,289.0,261.5,289.0,252.5,290.0,244.0,290.0,236.0,290.5,227.5,291.5,218.5,292.0,209.5,292.0,201.0,293.0,193.0,294.0,185.0,294.5" stroke="black" stroke-width="2" fill="none" />
<polyline points="187.0,297.0,195.0,296.0,203.5,295.5,211.5,294.5,220.0,294.0,228.5,294.0,236.5,293.5,244.5,293.5,252.5,293.0,260.5,293.0,268.0,292.5,276.5,292.5" stroke="black" stroke-width="2" fill="none" />
<polyline points="276.0,285.0,268.0,285.5,260.0,286.5,252.5,287.0,244.5,287.0,236.5,287.5,228.5,288.0,220.0,288.0,211.5,288.5,203.0,289.0,194.5,289.0,186.5,289.5" stroke="black" stroke-width="2" fill="none" />
<polyline points="188.0,292.5,196.5,285.0,204.0,278.0,212.5,270.0,220.5,262.5,228.5,254.5,236.0,247.5,244.0,240.0,251.5,232.0,260.0,224.5,268.0,217.0,276.0,209.5,284.0,202.0,291.5,194.5,299.0,187.0,307.0,179.0,315.0,171.0" stroke="black" stroke-width="2" fill="none" />
<polyline points="316.0,164.5,308.0,172.0,300.0,179.5,292.0,187.0,284.5,194.0,277.0,201.5,269.0,209.0,260.5,217.0,252.5,224.0,244.5,231.0,236.0,238.5,228.5,246.0,220.5,253.0,213.0,260.5,205.0,268.5,196.5,276.5,188.5,284.0" stroke="black" stroke-width="2" fill="none" />
<polyline points="188.5,281.5,196.5,281.0,204.5,280.5,212.5,280.0,220.0,279.5,228.0,279.0,236.0,279.5,244.0,279.5,251.5,279.0,259.0,278.5,267.0,277.5,274.5,277.0" stroke="black" stroke-width="2" fill="none" />
<polyline points="274.0,274.0,282.0,271.0" stroke="black" stroke-width="2" fill="none" />
<polyline points="276.5,269.0,276.5,272.0,278.0,280.0,283.5,286.5,286.5,292.5,286.5,301.0" stroke="black" stroke-width="2" fill="none" />
<polyline points="323.5,301.5,316.0,302.0,308.0,302.5,300.5,303.5,292.5,304.0,284.5,305.0,277.0,305.5,268.5,306.0,260.0,306.5,251.5,307.0,243.0,307.5,234.5,307.5,226.5,308.0,218.5,308.0,210.0,308.0,202.0,308.0,194.0,308.0" stroke="black" stroke-width="2" fill="none" />
<polyline points="194.0,305.0,202.0,305.0,210.5,304.5,218.5,304.0,227.0,303.5" stroke="black" stroke-width="2" fill="none" />
<polyline points="204.0,309.5,212.5,301.5,221.0,294.0,229.0,286.0,237.0,278.5,245.5,271.0,253.0,263.5,261.0,256.0,268.5,248.0,276.5,240.5,284.5,233.0,292.5,225.0,300.5,217.0,308.5,209.0,317.0,201.5,324.5,194.0" stroke="black" stroke-width="2" fill="none" />
<polyline points="317.5,187.0,309.5,195.0,301.0,202.5,293.0,209.5,285.5,216.0,277.0,223.0,269.0,230.5,261.0,238.0,252.5,245.5,245.0,253.0,237.5,260.5,229.5,268.0,221.5,275.5,213.5,283.5,205.5,291.5,197.5,299.5" stroke="black" stroke-width="2" fill="none" />
<polyline points="196.5,292.0,204.0,284.0,211.5,276.5,219.5,269.0,228.5,261.5,236.5,254.0,244.5,246.0,252.5,238.5,260.0,231.0,267.5,224.0,275.0,216.5,283.5,209.0,291.5,201.5,300.0,194.5,307.0,187.5,315.0,180.0" stroke="black" stroke-width="2" fill="none" />
<polyline points="300.0,171.0,292.0,178.5,284.0,186.0,276.0,193.5,268.5,201.5,261.0,209.0,253.0,216.5,245.0,223.5,236.5,230.5,228.0,238.0,219.5,245.5,212.0,253.0,204.0,261.0,196.5,268.0,189.0,275.5" stroke="black" stroke-width="2" fill="none" />
<polyline points="187.5,273.5,195.5,273.0,203.5,272.5,211.5,272.0,219.0,271.5,227.0,270.5,235.0,270.5,243.0,270.5,251.0,270.5,259.0,270.5,266.5,270.0,274.5,269.5" stroke="black" stroke-width="2" fill="none" />
<polyline points="266.5,224.0,258.5,225.0,250.0,226.0,242.0,226.5" stroke="black" stroke-width="2" fill="none" />
<polyline points="220.0,209.5,228.5,209.5,236.0,209.0,243.5,208.5,251.5,208.0,258.5,207.5,266.5,207.5,274.5,206.5,282.5,205.5,290.5,204.5,298.5,204.0,306.5,203.5" stroke="black" stroke-width="2" fill="none" />
<polyline points="308.0,204.0,311.0,208.0,310.5,216.0,305.5,222.0,305.5,230.0,307.0,238.0,306.5,242.5" stroke="black" stroke-width="2" fill="none" />
<polyline points="299.5,199.0,291.5,199.5,283.5,199.5,275.5,199.5,268.0,199.0,260.0,199.0,252.5,199.5,244.5,200.0,236.5,200.5,229.0,201.5,221.5,202.0" stroke="black" stroke-width="2" fill="none" />
<polyline points="210.5,196.0,218.5,188.5,226.0,182.0,234.5,174.5,243.0,167.0,251.0,160.0,259.5,152.0,267.5,145.0,275.0,138.0,282.5,131.0,290.0,123.5" stroke="black" stroke-width="2" fill="none" />
<polyline points="299.5,132.0,307.5,124.5" stroke="black" stroke-width="2" fill="none" />
<polyline points="310.0,125.5,311.0,133.5,309.0,141.5" stroke="black" stroke-width="2" fill="none" />
<polyline points="315.0,147.5,307.5,154.5" stroke="black" stroke-width="2" fill="none" />
<polyline points="305.5,157.5,294.0,161.5" stroke="black" stroke-width="2" fill="none" />
<polyline points="293.5,165.0,285.0,172.0,276.5,179.0,268.0,186.5,260.0,194.0,251.5,201.5,244.0,209.0,236.5,216.0,228.5,223.0,220.5,230.5,212.0,238.0,204.5,245.5,197.0,252.5,189.5,260.0,181.5,268.0" stroke="black" stroke-width="2" fill="none" />
<polyline points="179.5,269.5,187.5,268.5,194.5,268.0,202.5,267.5,211.0,267.0,218.5,266.5,227.0,266.0,235.5,265.5,244.0,265.0,252.0,264.5,260.5,264.0,268.0,264.0,276.0,263.5,284.0,263.5,291.5,263.5,299.5,263.0,307.5,263.0,315.5,262.5,323.5,262.0,331.5,261.0" stroke="black" stroke-width="2" fill="none" />
<polyline points="265.5,230.5,258.0,231.0,251.0,231.5,243.5,231.5,236.0,232.0,229.0,232.5,221.0,233.0,213.0,234.0,205.0,234.5" stroke="black" stroke-width="2" fill="none" />
<polyline points="203.5,239.5,195.5,240.5" stroke="black" stroke-width="2" fill="none" />
<polyline points="189.0,242.5,186.5,240.5,187.5,248.5,190.0,256.5" stroke="black" stroke-width="2" fill="none" />
<polyline points="181.5,261.0,189.5,253.0,197.5,245.5,205.5,238.0,213.5,230.5,221.5,223.5,229.0,216.0,236.5,208.0,243.5,200.0,251.5,192.0,259.5,184.5,268.0,177.5,275.5,170.0,283.5,163.5,291.0,155.5" stroke="black" stroke-width="2" fill="none" />
<polyline points="292.5,147.0,284.5,154.5,276.5,162.5,268.0,170.0,260.0,178.0,252.0,186.0,243.5,193.5,235.5,201.0,227.5,208.5,220.0,216.0,212.5,223.5,204.5,231.0,196.5,238.5,188.0,246.0,180.5,253.0" stroke="black" stroke-width="2" fill="none" />
<polyline points="180.0,252.5,188.0,252.0,196.0,251.5,204.0,251.5,211.5,251.0,219.0,250.5,227.0,250.0,235.0,249.5,242.5,249.0,250.5,248.0,258.0,247.0,266.0,247.0,274.0,247.0,282.5,247.0,290.5,247.0,298.5,246.5,307.0,246.5,315.5,246.0,324.0,245.5,332.5,245.0" stroke="black" stroke-width="2" fill="none" />
<polyline points="298.5,188.5,290.5,189.5,282.5,190.0,274.5,190.0,267.0,190.0,259.5,190.0,251.5,190.5,243.5,190.5,235.5,191.0,227.5,191.5,220.0,192.0,212.0,192.0" stroke="black" stroke-width="2" fill="none" />
<polyline points="205.5,185.5,213.5,185.0,221.5,185.0,229.0,184.5,237.0,184.5,244.5,184.0,252.5,183.5,260.5,183.0,268.0,182.5,275.5,182.0,283.5,181.5,291.0,181.0,298.5,180.0" stroke="black" stroke-width="2" fill="none" />
<polyline points="299.0,163.0,291.0,170.5,283.0,178.0,275.0,186.0,266.5,193.5,258.5,201.0,251.0,208.0,244.0,215.5,236.5,223.0,229.0,231.0,221.0,238.5,213.5,246.0,205.5,253.0,197.5,260.0,190.0,267.0,182.0,274.5" stroke="black" stroke-width="2" fill="none" />
<polyline points="177.0,276.5,185.0,276.0,193.5,275.5,201.5,275.0,209.5,275.0,217.5,274.5,226.0,274.0,234.0,273.0,242.5,272.5,251.0,272.5,259.0,272.0,267.0,271.5,274.5,271.0,282.5,271.0,290.5,271.0,298.5,271.0,306.0,270.5,313.5,270.0,321.5,269.0,330.0,268.5" stroke="black" stroke-width="2" fill="none" />
<polyline points="322.0,292.5,314.5,293.0,306.5,293.5,298.0,294.5,290.0,295.5,282.0,296.0,273.5,296.0,265.5,296.5,258.0,297.0,250.5,297.0,242.5,297.0,235.0,297.0,227.0,297.0,219.5,297.5,212.5,298.5,204.5,299.5,196.5,300.5,188.5,301.0" stroke="black" stroke-width="2" fill="none" />
<polyline points="179.0,284.5,187.0,284.0,195.0,283.5,203.0,283.5,211.5,283.0,219.5,282.5,228.0,282.0,236.0,281.5,244.5,281.0,253.0,280.0,261.0,280.0,269.0,279.5,276.5,279.5,284.5,279.0,292.5,279.0,300.0,279.0,308.0,278.5,315.5,278.0,323.0,277.5,330.5,277.0" stroke="black" stroke-width="2" fill="none" />
<polyline points="339.5,254.0,331.5,254.5,324.0,254.5,316.0,254.5,308.0,254.5,300.0,254.5,292.0,255.0,284.0,255.0,276.5,255.5,268.5,255.0,260.0,255.5,252.0,256.0,244.0,257.0,236.0,257.5,228.5,258.5,221.0,259.0,212.5,260.0,204.0,261.0,196.0,261.5,188.0,262.5,180.5,263.0" stroke="black" stroke-width="2" fill="none" />
<polyline points="178.5,282.5,187.5,300.5" stroke="black" stroke-width="2" fill="none" />
<polyline points="225.5,334.0,206.5,326.0,197.5,318.5,190.5,310.5,184.5,302.5,179.5,294.5,177.5,287.0,175.5,279.0,173.5,271.0,173.5,263.0,173.5,255.0,173.5,247.5,173.0,239.5,174.0,231.0,175.0,223.0,176.0,215.5,176.5,207.5,178.5,199.5,179.5,191.5,180.5,183.5,181.0,175.5,182.0,167.0,182.0,159.0,183.5,151.0,184.5,142.5,185.5,134.5,186.0,126.5,187.0,118.5,188.0,110.5,187.5,102.5,189.0,94.5,189.5,86.5,190.5,78.0,191.0,70.0,193.0,62.0,196.0,54.5,200.0,46.0,207.0,45.0,203.5,46.0" stroke="black" stroke-width="2" fill="none" />
<polyline points="204.5,45.0,212.0,45.0,220.0,44.5,228.0,44.5,235.5,44.5,243.5,44.0,251.5,44.0,259.5,43.5,267.5,43.0,275.5,42.0,284.0,41.5,291.5,40.5" stroke="black" stroke-width="2" fill="none" />
<polyline points="289.5,42.0,295.5,50.0,300.5,57.5,302.0,65.5,304.0,73.5,304.5,81.5,304.5,90.0,307.0,96.0,307.0,104.5" stroke="black" stroke-width="2" fill="none" />
<polyline points="309.5,109.0,301.5,116.5" stroke="black" stroke-width="2" fill="none" />
<polyline points="308.0,117.0,300.0,124.5" stroke="black" stroke-width="2" fill="none" />
<polyline points="298.0,100.0,290.0,107.0,281.5,114.5,274.0,122.5,266.5,130.0,259.0,138.0,251.5,144.5,244.0,152.0,236.0,159.0,228.0,166.0,220.0,173.5,212.5,181.0,205.0,188.0,197.0,195.5,189.5,203.5" stroke="black" stroke-width="2" fill="none" />
<polyline points="189.0,196.5,196.5,189.0,204.0,181.0,212.0,173.0,219.5,165.5,228.0,158.0,235.5,150.0,243.5,142.5,251.5,135.0,259.0,128.0,267.0,120.5,275.0,113.5,283.0,106.5,291.0,99.5,299.0,92.0" stroke="black" stroke-width="2" fill="none" />
<polyline points="296.0,98.5,299.0,106.0,293.5,119.0,296.5,124.0,298.5,132.5,300.5,140.0,300.5,147.0,303.5,154.5,301.5,162.0,303.5,167.5" stroke="black" stroke-width="2" fill="none" />
<polyline points="307.5,162.5,315.5,154.5" stroke="black" stroke-width="2" fill="none" />
<polyline points="313.5,154.0,315.5,162.0" stroke="black" stroke-width="2" fill="none" />
<polyline points="290.0,161.5,281.5,162.5,273.5,163.0,265.0,164.0" stroke="black" stroke-width="2" fill="none" />
<polyline points="265.5,154.5,273.0,154.0,281.5,154.0,290.0,154.0" stroke="black" stroke-width="2" fill="none" />
<polyline points="291.0,98.0,283.0,98.5,275.0,99.0" stroke="black" stroke-width="2" fill="none" />
<polyline points="267.5,90.5,275.0,90.0,282.5,89.0" stroke="black" stroke-width="2" fill="none" />
<polyline points="275.5,79.5,267.0,80.5" stroke="black" stroke-width="2" fill="none" />
<polyline points="267.0,74.0,275.0,73.5" stroke="black" stroke-width="2" fill="none" />
<polyline points="275.0,68.0,267.0,75.5,259.0,83.0,251.5,90.5,244.0,98.0,236.0,105.0,227.5,112.0,219.5,119.0,211.5,126.5,204.0,134.0" stroke="black" stroke-width="2" fill="none" />
<polyline points="200.5,134.5,200.5,142.5,200.5,150.5,192.5,158.5" stroke="black" stroke-width="2" fill="none" />
<polyline points="193.0,156.5,185.0,164.0" stroke="black" stroke-width="2" fill="none" />
<polyline points="187.0,164.0,195.5,156.0,203.5,148.5,212.0,140.5,220.0,133.5,228.0,127.0,235.5,119.5,243.0,112.0,250.5,104.0,258.5,96.5,266.5,89.5,274.0,82.0,282.0,74.5,290.0,67.5" stroke="black" stroke-width="2" fill="none" />
<polyline points="292.0,67.5,296.0,75.5,299.0,83.5,296.0,91.5,292.0,99.0,290.5,107.0,290.0,116.0,289.5,124.0,292.0,132.0,295.5,140.0,289.5,148.0,291.5,156.0,293.5,162.5,297.0,170.5,302.0,171.5" stroke="black" stroke-width="2" fill="none" />
<polyline points="283.5,142.0,275.0,142.0,267.0,142.5,258.5,143.5,250.0,144.0,242.5,145.0,235.0,146.0,227.0,146.5" stroke="black" stroke-width="2" fill="none" />
<polyline points="229.0,143.5,221.0,140.5" stroke="black" stroke-width="2" fill="none" />
<polyline points="216.5,139.0,226.5,145.0" stroke="black" stroke-width="2" fill="none" />
<polyline points="212.5,152.5,221.0,152.0,229.0,152.0,236.5,152.0,244.0,151.5,251.5,151.5,259.5,151.5" stroke="black" stroke-width="2" fill="none" />
<polyline points="236.0,120.5,244.0,120.5,252.0,120.5,260.0,120.0,267.5,119.5,275.5,119.0,283.5,119.0" stroke="black" stroke-width="2" fill="none" />
<polyline points="282.5,111.0,274.0,111.0,266.5,111.5,259.0,111.5,251.0,112.0,242.5,112.0,235.0,113.0" stroke="black" stroke-width="2" fill="none" />
<polyline points="235.5,105.5,243.5,105.0,251.0,105.0,258.5,104.5,266.0,104.5,273.5,104.0,281.5,103.0,289.5,102.0" stroke="black" stroke-width="2" fill="none" />
<polyline points="292.0,97.5,303.0,96.0,305.5,104.5,306.5,112.5,307.5,120.5,303.5,124.5,303.5,134.0,312.0,142.0,309.0,150.0,311.0,156.5,313.0,164.0,314.0,172.0,315.5,178.5,317.5,186.5,317.0,193.5,318.0,201.5,321.0,208.5,322.0,216.0,320.0,224.0,315.5,230.5,313.5,238.5,316.5,248.0,315.5,256.0,317.0,264.5,319.0,273.0,321.0,281.0,324.5,287.0,319.5,290.0,317.5,298.0,316.5,307.5,313.5,315.5,305.5,323.5" stroke="black" stroke-width="2" fill="none" />
<polyline points="267.0,342.0,275.0,342.0,283.0,342.0,291.0,342.0,299.5,342.0,307.5,342.0,315.5,342.0,323.0,342.0,331.0,342.0,338.5,342.0,346.5,342.0,354.5,342.0,362.5,342.0,370.5,342.0,378.0,342.5,386.0,342.5,394.0,342.5,402.0,342.5,410.0,342.0,418.5,342.0,426.5,342.0,434.5,342.5,443.0,342.5,451.0,342.5,459.5,342.0,467.5,342.0,476.0,342.0,484.0,342.5,492.0,342.5,499.5,342.0,507.5,341.5" stroke="black" stroke-width="2" fill="none" />
<polyline points="299.0,170.0,291.5,170.5,283.0,171.5,275.5,172.0,268.0,173.0,260.0,173.5,252.0,174.5,244.5,175.0,237.0,175.5,229.0,175.5,221.0,176.0,213.0,177.0,205.5,177.0" stroke="black" stroke-width="2" fill="none" />
<polyline points="200.0,177.0,202.0,186.0,205.0,194.5,205.5,200.5,198.5,207.0,202.5,212.5,203.0,219.5" stroke="black" stroke-width="2" fill="none" />
<polyline points="204.5,221.5,205.5,213.5,211.5,208.5,203.5,215.0" stroke="black" stroke-width="2" fill="none" />
<polyline points="193.5,212.5,186.0,220.0" stroke="black" stroke-width="2" fill="none" />
<polyline points="180.5,222.5,188.5,222.0,196.0,221.0,204.0,220.0,212.5,219.0,220.5,218.0,228.5,217.5,236.0,217.0,244.0,216.5,251.5,216.0,259.5,215.5,267.5,214.5,276.0,214.5,284.0,214.0,292.0,213.5,300.0,213.5,308.0,213.0,315.5,213.0,323.5,212.5,331.5,212.5" stroke="black" stroke-width="2" fill="none" />
<polyline points="291.0,164.5,283.0,165.0,275.5,165.5,268.0,165.5,260.5,166.0,252.0,166.5,244.5,167.0,237.0,167.5,229.5,168.5,222.0,169.0,214.5,169.5,206.5,170.5" stroke="black" stroke-width="2" fill="none" />
<polyline points="204.5,161.5,212.5,161.0,221.0,161.0,228.5,161.0,236.0,160.5,243.5,160.0,251.5,159.0,260.0,159.0" stroke="black" stroke-width="2" fill="none" />
<polyline points="213.0,144.5,205.0,145.0" stroke="black" stroke-width="2" fill="none" />
<polyline points="204.0,143.5,212.0,136.0,220.0,127.5,228.0,119.5,236.0,112.0,243.5,104.0,251.0,96.5,258.5,88.5,266.5,80.5,274.0,73.0,282.0,66.0" stroke="black" stroke-width="2" fill="none" />
<polyline points="277.0,58.0,269.0,66.0,260.5,73.5,252.5,81.0,244.5,88.5,236.5,95.5,228.5,103.0,220.5,111.0,212.5,119.0,203.5,126.5,195.5,134.0" stroke="black" stroke-width="2" fill="none" />
<polyline points="189.0,132.5,196.5,132.0,204.0,131.5,212.0,131.5,220.0,131.0,228.5,131.0,236.5,130.5,245.0,130.0,253.0,129.0,261.5,129.0,269.5,128.5,277.5,128.0,285.5,128.0,293.0,127.5,301.0,127.5,308.5,127.0,316.5,126.5" stroke="black" stroke-width="2" fill="none" />
<polyline points="308.0,99.0,300.0,107.0,292.0,114.5,284.0,122.5,276.0,130.0,268.5,137.5,260.0,145.0,251.5,152.5,243.5,160.0,236.0,167.5,228.0,174.5,220.5,182.0,212.5,190.0,204.5,198.0" stroke="black" stroke-width="2" fill="none" />
<polyline points="209.0,190.5,203.0,196.5,196.5,197.5,195.5,189.5" stroke="black" stroke-width="2" fill="none" />
<polyline points="197.0,189.0,193.0,197.0,192.5,202.0" stroke="black" stroke-width="2" fill="none" />
<polyline points="179.5,206.5,187.5,205.5,195.5,205.0,203.5,204.5,211.0,203.5,218.5,203.0,227.5,202.5,236.0,202.0,244.5,201.0,253.5,200.5,261.5,200.0,269.5,199.5,277.5,199.0,285.0,198.5,292.5,197.5,300.5,197.0,308.0,197.5,315.5,197.0,323.5,197.0" stroke="black" stroke-width="2" fill="none" />
<polyline points="323.5,182.5,315.5,182.5,308.0,183.0,300.0,183.5,292.5,184.0,284.5,184.0,276.5,184.5,269.0,185.0,260.5,186.0,252.5,186.0,244.5,186.5,236.0,186.5,227.5,187.0,219.5,187.5,211.5,188.5,203.5,188.5,195.0,189.0,186.5,189.0" stroke="black" stroke-width="2" fill="none" />
<polyline points="187.5,187.5,195.5,180.5,203.5,173.5,212.0,166.0,220.5,159.0,228.5,151.0,236.5,143.5,244.0,136.0,251.5,129.0,259.0,121.5,267.5,113.5,275.5,106.0,283.5,98.0,291.5,90.0,299.5,82.5" stroke="black" stroke-width="2" fill="none" />
<polyline points="300.0,75.0,292.0,82.0,284.0,89.5,276.0,97.0,268.0,105.0,260.0,113.0,252.0,120.0,244.0,127.0,236.0,135.0,228.0,142.5,220.0,150.5,212.0,158.0,204.0,165.5,196.0,172.5,188.0,180.0" stroke="black" stroke-width="2" fill="none" />
<polyline points="188.0,181.0,196.0,180.0,204.5,179.5,212.5,179.0,220.0,178.5,228.0,178.0,236.5,178.0,244.5,177.5,252.0,177.0,260.0,176.5,268.0,176.5,275.5,175.5,283.0,175.0,291.5,174.5,300.0,174.5,308.5,174.0,316.5,174.0,324.5,174.0" stroke="black" stroke-width="2" fill="none" />
<polyline points="316.0,164.0,308.0,165.0,299.5,165.0,291.0,165.5,283.0,166.0,275.5,166.5,267.5,167.0,259.5,167.5,251.5,168.0,244.0,168.5,237.0,169.5,229.5,170.5,221.5,171.0,213.5,171.5,205.5,171.5,197.5,171.5,189.0,172.0" stroke="black" stroke-width="2" fill="none" />
<polyline points="189.0,171.5,197.0,164.0,205.5,156.5,214.0,149.0,221.5,141.0,230.0,134.0,237.5,127.0,245.5,120.0,253.5,113.0,261.5,105.5,269.5,98.0,277.5,91.0,285.5,84.0,293.5,76.5,301.5,69.0" stroke="black" stroke-width="2" fill="none" />
<polyline points="284.0,42.5,276.0,50.0" stroke="black" stroke-width="2" fill="none" />
<polyline points="275.5,43.5,267.5,51.0,260.0,58.0,252.5,65.0,245.0,72.5,237.5,80.0,229.5,87.0,221.0,95.0,213.0,103.0,205.0,111.0,197.5,119.0" stroke="black" stroke-width="2" fill="none" />
<polyline points="196.5,125.5,205.0,118.5,213.0,111.0,221.0,104.5,229.0,97.0,236.5,89.5,244.0,81.0,251.5,73.5,259.5,66.5,267.5,59.0" stroke="black" stroke-width="2" fill="none" />
<polyline points="266.5,44.5,258.5,51.5,250.0,59.0,242.5,66.0,235.0,73.0,227.5,80.0,220.0,87.5,212.0,95.5,204.5,103.0" stroke="black" stroke-width="2" fill="none" />
<polyline points="196.0,101.5,204.0,94.0,212.0,86.5,220.0,79.5,227.5,72.5,235.5,65.5,243.5,58.0,251.5,50.5,260.0,43.0" stroke="black" stroke-width="2" fill="none" />
<polyline points="252.5,44.0,244.5,51.5,237.0,59.0,229.0,66.0,221.0,73.0" stroke="black" stroke-width="2" fill="none" />
<polyline points="216.5,64.0,217.5,60.5,219.5,64.5,217.0,72.0,216.5,80.5,215.0,88.5,212.5,92.0,209.5,97.0,207.5,105.5,207.0,113.0,207.5,121.5,201.0,129.5,197.0,131.0,194.5,139.0,195.0,143.0,196.5,151.0,196.5,159.5,192.0,168.0,195.0,166.5,189.0,173.5,187.0,181.5,189.0,187.5,185.0,192.5,185.5,200.5,180.0,208.5,184.5,210.5,181.5,218.5,185.0,220.0,189.0,214.5,197.0,208.5,209.0,204.5,223.0,207.0" stroke="black" stroke-width="2" fill="none" />
<polyline points="235.5,223.5,227.0,224.0,219.5,224.5,212.0,225.5" stroke="black" stroke-width="2" fill="none" />
<polyline points="187.5,237.5,188.5,245.0,191.5,250.0" stroke="black" stroke-width="2" fill="none" />
<polyline points="179.5,237.0,187.5,236.5,195.5,235.5,203.5,235.0,211.0,234.5,219.0,234.5,227.0,233.5,235.0,232.5,243.0,232.0,251.0,231.5,258.5,231.5,267.0,231.0,275.0,231.0,283.0,230.5,291.0,230.0,299.0,230.0,307.0,229.0,315.0,228.5,323.0,227.5,331.5,227.0" stroke="black" stroke-width="2" fill="none" />
<polyline points="331.0,219.5,322.5,220.0,315.0,220.5,307.5,221.0,299.5,221.5,291.5,221.5,283.5,222.0,276.0,222.0,268.5,223.0,260.5,224.0,252.5,224.5,244.0,224.5,236.0,225.0,228.0,225.5,220.0,226.0,212.5,227.5,205.0,228.5,197.5,229.5,190.0,230.5,182.0,230.5" stroke="black" stroke-width="2" fill="none" />
<polyline points="181.5,232.5,178.5,232.5,178.5,240.5,178.0,248.5,178.0,257.5,177.0,267.0,179.0,275.0,185.0,277.0,184.0,284.0,187.0,291.0,192.5,306.0,196.0,313.0,204.0,322.5,212.0,326.5,219.5,330.5,227.0,332.5,235.0,334.5,243.5,335.5,251.5,335.5,259.0,335.0,267.0,334.0,275.0,333.0,283.0,332.0,291.0,330.0,299.5,326.5,308.0,321.5,314.5,309.5" stroke="black" stroke-width="2" fill="none" />
<polyline points="332.5,205.5,325.0,205.5,317.0,205.5,308.5,205.0,300.5,205.5,292.5,205.0,285.0,205.5,276.5,205.5,268.5,205.0,260.5,205.5,252.5,206.5,244.5,208.0,236.0,209.0,228.0,210.0,220.0,211.0,212.0,212.0,204.0,212.0,196.0,212.5,189.0,213.0,181.0,214.0" stroke="black" stroke-width="2" fill="none" />
<polyline points="178.0,196.5,186.0,195.5,194.5,195.5,202.5,195.5,210.5,194.5,218.5,194.0,227.5,193.5,237.0,192.5,245.5,191.5,253.5,191.0,261.5,190.5,269.5,190.0,277.0,190.0,284.5,190.0,292.5,191.0,300.0,191.0,308.0,190.5,315.5,190.0,323.5,189.5" stroke="black" stroke-width="2" fill="none" />
<polyline points="315.5,157.0,307.5,157.5,299.5,157.5,291.5,158.0,283.5,158.5,276.0,159.0,268.0,159.0,260.0,160.0,252.0,160.5,244.0,161.5,236.0,162.0,228.0,162.5,220.0,163.0,212.5,163.5,205.0,164.0,197.0,164.0,189.0,164.5" stroke="black" stroke-width="2" fill="none" />
<polyline points="188.5,158.5,196.0,157.5,204.0,157.0,212.5,155.5,220.5,154.5,228.5,153.5,236.0,153.0,244.5,153.0,252.5,152.5,260.5,152.0,268.5,151.5,277.0,151.0,285.0,151.0,292.5,151.0,300.0,150.5,307.5,150.5,315.5,150.5" stroke="black" stroke-width="2" fill="none" />
<polyline points="260.0,97.0,252.5,98.0,244.5,98.5,236.0,99.0" stroke="black" stroke-width="2" fill="none" />
<polyline points="242.0,89.5,250.0,89.5,258.0,89.0" stroke="black" stroke-width="2" fill="none" />
<polyline points="251.5,81.5,244.0,82.5" stroke="black" stroke-width="2" fill="none" />
<polyline points="243.0,66.5,235.0,67.0" stroke="black" stroke-width="2" fill="none" />
<polyline points="228.5,59.5,236.5,52.0,244.0,45.0" stroke="black" stroke-width="2" fill="none" />
<polyline points="235.0,43.0,226.5,51.0" stroke="black" stroke-width="2" fill="none" />
<polyline points="226.5,49.0,234.5,49.0,242.5,48.5,250.5,48.0,258.0,48.0,266.0,48.0" stroke="black" stroke-width="2" fill="none" />
<polyline points="267.0,64.5,259.5,65.0,251.5,65.5" stroke="black" stroke-width="2" fill="none" />
<polyline points="227.0,44.0,218.5,51.0" stroke="black" stroke-width="2" fill="none" />
<polyline points="218.5,44.0,210.5,51.5,202.5,59.0" stroke="black" stroke-width="2" fill="none" />
<polyline points="203.0,53.0,211.0,52.5,218.5,52.0,226.5,52.0,234.5,52.0,242.5,52.0,250.0,51.5,257.5,51.0,265.5,50.0,274.0,49.5,282.0,48.5,290.0,48.5,298.0,48.0" stroke="black" stroke-width="2" fill="none" />
<polyline points="282.0,33.5,274.5,34.0,266.5,34.5,258.0,35.5,250.0,36.5,242.0,37.0,233.5,37.0,225.5,37.5" stroke="black" stroke-width="2" fill="none" />
<polyline points="212.0,46.0,219.5,48.0,227.5,49.0,235.5,49.0,243.5,50.0,251.5,50.0,259.5,49.5,267.5,49.0,275.0,48.0,282.0,52.0,281.5,58.0,275.5,62.0,274.5,68.0,276.0,76.0,281.0,84.0,281.5,97.0,282.0,105.0,284.0,105.5,283.0,116.0,281.0,116.0,279.0,118.0" stroke="black" stroke-width="2" fill="none" />
<polyline points="307.5,95.5,300.0,96.0,292.5,97.0,284.5,97.5,276.0,98.0,268.5,98.5,261.0,98.5,253.0,98.5,244.5,98.0,236.5,98.5,228.5,98.0,221.0,98.5,212.5,98.5,204.5,98.0,196.5,98.5" stroke="black" stroke-width="2" fill="none" />
<polyline points="194.5,98.5,202.5,91.0,211.0,83.5" stroke="black" stroke-width="2" fill="none" />
<polyline points="207.0,85.0,211.0,82.0,204.0,86.0,202.0,94.0,202.0,103.0,200.0,111.0,193.5,116.0,197.0,124.5" stroke="black" stroke-width="2" fill="none" />
<polyline points="187.0,126.0,194.5,125.0,202.5,124.5,211.0,124.5,219.5,124.0,228.5,124.0,237.0,123.0,245.0,122.0,253.0,121.0,261.0,120.5,269.5,120.0,277.0,120.0,285.0,119.0,293.0,118.5,301.0,118.5,308.5,118.0,316.0,117.5" stroke="black" stroke-width="2" fill="none" />
<polyline points="306.5,88.0,299.0,88.5,291.0,89.0,283.0,89.5,275.0,90.0,267.0,90.0,259.5,90.0,251.5,90.0,244.0,90.5,236.5,90.0,228.5,90.5,221.0,91.5,213.5,92.0,205.5,92.5,197.5,93.0" stroke="black" stroke-width="2" fill="none" />
<polyline points="192.5,91.5,198.5,92.5,200.5,100.5,193.5,105.0,192.5,112.5" stroke="black" stroke-width="2" fill="none" />
<polyline points="188.0,108.5,196.0,108.0,204.5,107.5,212.5,107.5,221.0,108.0,229.0,108.0,237.0,108.0,245.0,107.5,253.0,106.5,260.5,105.0,268.5,104.5,276.5,104.0,285.0,104.0,292.5,104.0,300.0,103.5,307.5,103.0" stroke="black" stroke-width="2" fill="none" />
<polyline points="306.5,78.5,298.0,79.0,290.5,80.0,283.0,81.0,275.0,81.5,267.0,82.0,259.5,82.5,251.5,83.0,244.0,83.5,236.0,84.0,228.5,84.0,220.5,83.0,213.0,83.0,205.5,83.0,197.5,83.5" stroke="black" stroke-width="2" fill="none" />
<polyline points="195.5,77.0,203.5,77.0,211.5,76.0,219.5,75.5,227.5,75.0,236.0,75.0,243.5,74.5,251.5,74.5,259.0,74.0,267.0,73.5,275.5,73.5,283.5,73.0,292.0,72.5,300.0,72.0,307.5,71.0" stroke="black" stroke-width="2" fill="none" />
<polyline points="298.5,62.5,290.5,63.5,282.5,63.5,274.5,64.0,266.5,64.5,258.5,64.5,250.5,65.0,242.5,66.0,234.5,66.0,226.5,67.0,218.5,67.5,210.5,69.0,202.5,70.0,194.5,71.0" stroke="black" stroke-width="2" fill="none" />
<polyline points="195.5,61.0,203.5,60.5,211.0,60.5,219.5,60.0,228.0,59.0,236.0,58.5,244.0,58.0,251.5,57.5,259.5,57.0,267.0,56.5,274.5,56.0,282.5,56.0,290.5,55.5,298.5,55.0" stroke="black" stroke-width="2" fill="none" />
<polyline points="314.5,142.5,307.0,143.0,299.5,143.0,292.0,142.5,284.5,142.5,277.0,143.5,269.0,143.5,261.0,144.5,253.0,145.5,245.5,146.5,237.5,147.0,229.5,147.5,221.0,148.0,212.5,148.5,204.5,149.0,196.0,149.5,187.5,150.0" stroke="black" stroke-width="2" fill="none" />
<polyline points="188.0,140.5,196.0,140.0,205.0,139.0,213.5,138.5,221.5,138.0,229.5,137.5,237.0,137.5,245.0,137.0,252.5,137.5,261.0,138.0,269.0,137.5,277.0,137.0,285.0,136.0,293.0,135.5,300.0,135.0,307.5,134.5,315.0,134.5" stroke="black" stroke-width="2" fill="none" />
<polyline points="308.5,110.0,301.0,110.5,293.5,111.5,286.0,112.0,278.5,112.5,270.5,113.5,262.0,114.0,253.0,114.5,244.5,115.0,236.5,115.0,228.5,115.5,220.0,115.5,212.0,116.5,204.0,117.0,196.0,117.0,188.5,117.0" stroke="black" stroke-width="2" fill="none" />
<polyline points="213.5,121.0,214.5,129.0" stroke="black" stroke-width="2" fill="none" />
<polyline points="220.0,118.5,228.0,117.5" stroke="black" stroke-width="2" fill="none" />
<polyline points="220.0,110.0,214.5,111.0,210.5,110.5,210.5,122.0,210.5,129.5,212.5,136.5,215.5,144.5" stroke="black" stroke-width="2" fill="none" />
<polyline points="268.5,213.0,268.5,216.5,266.5,224.5,266.5,232.0,271.5,224.5,271.5,221.5,269.5,229.5" stroke="black" stroke-width="2" fill="none" />
<polyline points="297.0,48.5,289.0,38.5,281.5,36.5,273.5,35.5,265.5,34.5,257.5,34.5,249.5,34.5,241.5,34.5,233.5,36.0,225.5,37.0,217.5,38.0,210.0,39.5,202.0,43.5,194.0,60.5" stroke="black" stroke-width="2" fill="none" />
<polyline points="3.0,2.5,10.5,2.5,18.5,2.5,26.5,2.5,34.5,3.0,42.5,3.0,51.0,3.0,59.0,3.0,67.0,3.0,75.5,3.0,83.5,3.0,91.5,3.0,99.5,3.5,107.0,3.5,115.0,3.5,123.0,3.5,130.5,3.5,138.5,4.0,146.5,4.0,154.0,3.5,162.0,3.5,170.0,3.5,177.5,3.5,185.0,3.5,193.0,3.5,200.5,3.5,209.0,3.0,217.0,3.0,225.5,3.0,233.0,3.0,241.0,3.0,249.0,3.0,257.5,3.0,265.5,3.0,273.5,2.5,281.5,2.5,290.0,2.5,298.0,3.0,306.5,2.5,314.5,2.0,322.5,2.0,330.0,2.0,338.0,2.5,345.5,2.5,353.0,3.0,361.0,3.0,369.0,3.0,376.5,2.5,384.5,2.5,392.5,2.5,401.0,2.0,409.0,2.5,417.0,2.5,425.5,2.5,434.0,2.5,442.0,2.0,450.0,2.5,457.5,2.0,465.5,2.0,473.0,2.0,481.0,2.5,489.0,2.0,497.0,2.5,505.5,3.0,512.5,5.0,513.0,13.5,512.5,21.5,512.0,29.0,512.0,37.0,511.5,45.0,511.5,53.0,511.5,61.0,511.5,69.0,511.5,77.0,511.5,85.0,512.0,93.0,512.0,100.5,512.0,109.0,512.0,117.0,512.5,124.5,512.5,132.5,513.0,140.5,513.0,149.0,513.0,157.0,513.0,165.5,513.5,173.5,513.5,181.5,514.0,189.0,514.0,197.5,514.0,205.5,514.0,213.5,514.0,221.5,514.0,230.0,514.0,238.0,514.0,245.5,514.5,253.5,514.5,261.0,514.5,269.0,514.5,276.5,514.5,284.5,514.5,292.5,514.5,300.5,514.0,308.5,514.0,317.0,513.5,325.5,513.5,334.0,513.0,342.0" stroke="black" stroke-width="2" fill="none" />
</svg>