<svg xmlns="http://www.w3.org/2000/svg" version="1.1"><path d="M222.0,38.5,204.0,46.5,211.0,49.5,219.0,52.0,226.5,54.0,234.5,53.0,242.0,54.0,249.0,53.0,256.5,52.5,264.5,53.5,272.5,52.0,281.5,48.5" stroke="black" stroke-width="2" fill="none" />
<path d="M283.0,43.0,275.0,50.5" stroke="black" stroke-width="2" fill="none" />
<path d="M275.0,45.5,267.0,52.5,259.0,60.0,251.5,67.0,243.5,74.0,235.5,81.5,228.0,89.0,220.5,96.0,212.5,103.0,204.5,110.5,196.0,118.0" stroke="black" stroke-width="2" fill="none" />
<path d="M189.0,118.0,197.0,117.5,204.5,116.5,212.0,116.0,219.0,115.0,227.0,114.5,235.5,114.0,244.0,113.5,252.5,113.0,260.5,112.5,268.5,112.0,276.5,111.5,284.5,111.0,292.5,111.0,300.5,111.0,308.0,110.5" stroke="black" stroke-width="2" fill="none" />
<path d="M309.0,106.5,300.5,114.0" stroke="black" stroke-width="2" fill="none" />
<path d="M308.5,116.0,300.0,123.5" stroke="black" stroke-width="2" fill="none" />
<path d="M306.0,123.5,298.0,131.0" stroke="black" stroke-width="2" fill="none" />
<path d="M293.5,133.5,285.0,141.0,277.0,147.5,268.5,154.5,260.0,161.5,251.5,168.5,243.5,176.0,236.0,183.0,228.0,190.5,220.0,198.0,212.0,205.5,204.0,213.0,195.5,220.5,187.5,228.0,179.0,235.5" stroke="black" stroke-width="2" fill="none" />
<path d="M178.0,234.5,178.5,242.5,176.0,250.5,175.5,259.0,181.5,269.5,179.5,277.5,184.5,285.5" stroke="black" stroke-width="2" fill="none" />
<path d="M186.5,285.0,194.5,277.5,202.5,270.0,211.5,263.0,220.0,255.5,227.5,248.0,236.0,240.0,244.0,232.0,252.0,224.0,260.0,215.5,268.0,207.5,276.0,199.5,284.5,192.5,292.0,185.0,300.5,178.0,308.5,171.5,317.0,164.0" stroke="black" stroke-width="2" fill="none" />
<path d="M316.5,171.0,308.5,178.0,300.5,185.5,293.0,193.0,285.0,201.0,277.0,208.5,268.5,216.5,259.5,224.5,251.0,232.5,243.0,240.0,235.5,247.0,227.5,254.5,219.0,262.0,210.5,270.0,202.0,278.0,193.5,285.5,185.5,293.0" stroke="black" stroke-width="2" fill="none" />
<path d="M186.0,291.0,194.0,290.0,202.5,289.5,210.5,289.0,219.0,289.0,227.0,288.0,235.0,288.0,243.5,287.0,251.5,286.5,260.0,286.0,268.0,285.5,275.5,284.5" stroke="black" stroke-width="2" fill="none" />
<path d="M275.5,291.0,267.0,291.5,259.5,292.5,251.5,294.0,243.5,294.5,235.0,295.5,227.5,296.0,219.0,297.0,211.5,298.0,204.0,298.5,196.0,299.5,188.0,300.5" stroke="black" stroke-width="2" fill="none" />
<path d="M188.0,302.0,195.5,302.0,203.0,301.5,210.5,300.5,218.5,299.5,227.0,299.0,235.0,299.0,243.5,298.5,252.0,298.0,260.0,297.5,268.5,296.5,276.0,296.5,284.0,296.0,291.5,295.5,299.5,295.5,307.0,295.0,315.5,295.0,323.5,295.0" stroke="black" stroke-width="2" fill="none" />
<path d="M331.5,284.0,323.5,291.5,316.0,298.5,308.5,306.0,300.5,313.5,292.5,321.0,285.0,328.5" stroke="black" stroke-width="2" fill="none" />
<path d="M277.0,329.5,284.5,322.0,292.5,314.0,299.5,306.5,307.0,299.0,315.0,291.5,323.0,283.5,331.5,276.0" stroke="black" stroke-width="2" fill="none" />
<path d="M331.5,265.0,323.5,273.0,316.0,281.0,308.5,289.0,300.5,297.5,293.0,305.0,285.0,313.0,277.5,321.0,269.5,328.5" stroke="black" stroke-width="2" fill="none" />
<path d="M262.0,325.5,269.5,318.5,277.5,311.0,285.0,303.5,293.0,295.5,301.0,288.0,308.5,281.0,316.0,274.0,323.5,266.0,331.5,258.0" stroke="black" stroke-width="2" fill="none" />
<path d="M332.0,250.5,324.0,258.0,315.5,265.5,307.5,273.0,299.0,280.5,290.5,288.5,283.0,296.5,275.5,304.0,267.5,312.0,259.5,319.5,252.0,327.5" stroke="black" stroke-width="2" fill="none" />
<path d="M242.5,328.0,250.5,321.0,259.0,313.5,267.0,305.0,275.0,296.5,283.0,288.5,291.0,281.0,299.5,273.0,307.0,265.5,315.0,258.0,323.0,251.0,331.5,243.5" stroke="black" stroke-width="2" fill="none" />
<path d="M333.0,234.5,324.5,242.0,316.0,250.0,308.0,257.5,299.5,265.5,291.0,273.0,283.0,280.5,275.0,288.5,266.5,296.5,258.0,304.5,250.0,312.5,242.5,319.5,235.0,327.0" stroke="black" stroke-width="2" fill="none" />
<path d="M235.5,330.5,243.5,329.5,251.0,329.0,259.5,328.0,268.0,327.0,276.5,326.0,284.5,326.0" stroke="black" stroke-width="2" fill="none" />
<path d="M281.5,314.0,290.0,313.0" stroke="black" stroke-width="2" fill="none" />
<path d="M290.5,303.5,298.5,303.5" stroke="black" stroke-width="2" fill="none" />
<path d="M307.0,306.5,315.5,306.0" stroke="black" stroke-width="2" fill="none" />
<path d="M314.0,308.5,306.0,316.0,298.0,324.0" stroke="black" stroke-width="2" fill="none" />
<path d="M300.0,314.0,308.5,313.5,316.5,313.0" stroke="black" stroke-width="2" fill="none" />
<path d="M316.5,299.5,309.0,300.0" stroke="black" stroke-width="2" fill="none" />
<path d="M323.0,287.0,315.0,287.5,307.0,287.5,299.0,288.0,291.5,288.0" stroke="black" stroke-width="2" fill="none" />
<path d="M290.5,280.0,298.5,279.5,307.0,280.0,315.0,280.0,323.5,280.0" stroke="black" stroke-width="2" fill="none" />
<path d="M314.5,272.5,306.5,272.5,298.5,272.5,291.0,273.0,283.5,273.5" stroke="black" stroke-width="2" fill="none" />
<path d="M275.0,277.0,267.0,278.0,259.0,278.5,251.5,279.0,243.5,279.5,235.0,280.0,227.0,280.5,219.0,280.5,211.0,281.0,202.5,281.0,194.0,281.0,185.5,281.0" stroke="black" stroke-width="2" fill="none" />
<path d="M188.5,275.0,196.5,268.0,204.5,261.0,212.0,254.0,220.0,247.0,228.0,239.0,235.5,231.0,243.5,223.0,251.0,215.0,259.0,207.5,267.0,200.0,275.5,193.0,284.0,185.5,292.0,178.0,300.0,170.5" stroke="black" stroke-width="2" fill="none" />
<path d="M300.0,162.0,292.0,169.5,284.0,177.5,276.0,185.5,268.0,193.0,259.5,200.5,252.0,208.0,244.5,215.5,236.5,223.0,228.5,231.0,220.5,238.5,212.0,246.0,204.0,253.5,195.5,261.0,187.5,268.5,180.0,276.0" stroke="black" stroke-width="2" fill="none" />
<path d="M178.5,277.0,186.5,276.5,195.0,276.5,203.5,276.5,211.5,276.5,220.0,276.5,228.5,276.0,236.0,275.5,244.0,275.0,252.0,274.5,260.0,274.0,268.0,273.0,276.0,272.5,284.0,271.5,292.0,271.0,300.0,270.0,308.0,269.5,316.0,268.5,324.0,268.0,332.0,267.5" stroke="black" stroke-width="2" fill="none" />
<path d="M324.5,236.5,316.5,243.5,308.5,251.0,301.0,258.0,293.0,265.0,285.0,272.0,277.0,280.0,268.5,288.0,260.5,296.0,252.5,303.5,244.5,311.5,236.5,318.5,229.0,326.0" stroke="black" stroke-width="2" fill="none" />
<path d="M236.0,332.0,244.0,332.0,252.0,331.5,260.0,331.5,269.0,331.5,277.5,331.5" stroke="black" stroke-width="2" fill="none" />
<path d="M275.0,303.5,267.0,304.0,259.5,305.0,251.0,305.5,242.5,306.5,234.5,307.0" stroke="black" stroke-width="2" fill="none" />
<path d="M228.0,304.5,220.0,305.5,212.5,305.5,204.5,305.5,196.0,305.5" stroke="black" stroke-width="2" fill="none" />
<path d="M196.0,309.0,204.0,301.5,211.0,294.0,219.0,286.0,227.5,278.0,235.5,270.5,243.5,263.0,251.0,256.0,258.5,249.0,266.5,241.5,274.0,234.0,282.0,226.0,290.5,218.0,299.0,210.5,307.0,203.0,315.0,196.0" stroke="black" stroke-width="2" fill="none" />
<path d="M324.0,195.0,316.0,203.0,308.0,210.5,300.0,218.5,292.0,226.5,283.5,234.5,275.0,242.0,266.5,249.5,258.0,257.5,250.5,265.0,242.5,272.5,234.5,279.5,227.0,287.0,219.5,294.5,212.0,301.5,204.0,309.0" stroke="black" stroke-width="2" fill="none" />
<path d="M204.5,312.5,213.0,312.5,220.5,312.0,228.0,312.0,236.0,312.0,244.0,311.5,252.0,311.5,260.0,311.5,268.5,311.5,277.0,311.0" stroke="black" stroke-width="2" fill="none" />
<path d="M306.5,318.5,298.5,318.5,290.5,318.5,283.0,319.5,274.5,320.5,266.5,322.0,258.5,323.5,250.5,324.0,242.0,324.5,234.5,324.5,227.0,325.0,219.5,325.5,212.0,326.5" stroke="black" stroke-width="2" fill="none" />
<path d="M211.0,323.0,219.0,322.0,227.0,321.5,234.5,320.5,242.0,319.5,250.5,318.5,258.0,317.5,266.0,316.5,274.5,316.0,283.0,315.5,291.5,315.0,299.0,315.0,307.0,314.5" stroke="black" stroke-width="2" fill="none" />
<path d="M317.5,310.5,309.0,310.5,300.0,310.5,292.0,310.5,284.0,311.0,276.0,311.0,267.5,311.5,260.0,312.5,252.0,313.5,244.5,314.0,236.5,315.5,229.0,316.0,221.5,317.0,213.5,318.0,205.5,318.5,197.5,319.5" stroke="black" stroke-width="2" fill="none" />
<path d="M204.5,315.5,212.5,308.5,220.5,301.5,228.5,294.5,236.5,287.5,244.5,280.0,252.5,272.5,260.5,264.5,268.5,257.0,277.0,249.5,285.0,242.5,293.0,235.0,301.0,226.5,309.0,218.5,316.5,210.5,324.0,203.0" stroke="black" stroke-width="2" fill="none" />
<path d="M324.0,211.0,316.5,219.0,309.0,226.0,301.0,233.5,293.0,241.0,285.0,248.5,276.5,256.5,268.5,264.0,260.0,271.5,252.5,279.5,245.0,287.0,236.5,294.0,228.0,301.0,219.5,308.0,211.5,315.5" stroke="black" stroke-width="2" fill="none" />
<path d="M219.5,325.0,228.0,317.5,236.5,310.0,244.5,302.5,252.5,295.5,260.5,288.0,268.5,280.5,277.5,273.0,285.5,265.5,294.0,258.5,302.0,251.0,310.0,243.0,318.5,235.0,326.5,227.5" stroke="black" stroke-width="2" fill="none" />
<path d="M330.0,229.0,322.5,229.5,315.0,230.5,308.0,231.0,300.5,231.0,292.0,231.5,284.0,232.0,276.0,232.5,268.5,232.0,260.5,232.5,252.5,233.0,244.5,233.5,237.0,234.0,229.0,234.5,221.5,235.0,213.5,235.5,205.5,235.5,197.0,236.0,188.5,236.0,180.5,236.5" stroke="black" stroke-width="2" fill="none" />
<path d="M181.0,243.0,188.5,236.0,196.0,229.0,203.5,221.0,211.5,213.0,219.5,205.5,227.0,198.0,235.0,191.0,243.5,183.5,251.5,176.5,260.0,170.0,267.5,163.0,275.5,156.0,284.0,149.0,292.0,141.5" stroke="black" stroke-width="2" fill="none" />
<path d="M292.0,148.5,284.0,156.0,276.0,163.5,268.0,171.0,259.5,178.5,251.5,186.0,243.0,193.0,235.0,199.5,227.0,206.5,219.5,213.0,211.5,220.0,203.5,228.0,196.0,236.0,188.5,244.0,180.5,252.5" stroke="black" stroke-width="2" fill="none" />
<path d="M179.5,253.5,187.5,252.5,195.5,251.5,203.5,251.0,212.0,251.0,220.5,251.0,228.0,251.0,236.0,251.0,244.5,251.0,252.5,250.5,260.5,250.0,268.5,249.5,276.5,249.0,284.5,248.5,292.0,247.5,300.0,247.5,307.5,246.5,315.5,246.0,323.5,245.5,331.5,245.0" stroke="black" stroke-width="2" fill="none" />
<path d="M331.0,260.5,323.5,260.5,316.0,261.0,309.0,262.0,301.5,263.0,293.5,264.0,285.5,264.5,277.0,265.0,269.0,266.0,261.0,266.0,252.5,267.0,244.0,267.0,235.5,267.0,227.0,267.5,218.5,268.0,211.0,268.5,203.0,269.0,195.0,269.5,187.0,269.5,179.0,269.5" stroke="black" stroke-width="2" fill="none" />
<path d="M180.5,268.5,188.5,261.0,196.0,253.5,203.5,246.5,211.5,239.0,220.0,231.5,228.5,224.0,236.5,216.0,245.0,208.5,252.5,201.5,261.0,193.5,269.0,186.0,277.0,179.0,284.5,171.5,292.0,164.0" stroke="black" stroke-width="2" fill="none" />
<path d="M290.5,156.0,282.5,163.5,274.5,170.5,266.0,178.0,258.0,185.5,250.0,193.5,242.0,200.5,234.5,208.0,226.5,216.0,219.0,223.5,211.5,231.0,203.0,238.5,195.0,246.5,187.0,254.0,179.5,261.5" stroke="black" stroke-width="2" fill="none" />
<path d="M178.0,263.0,186.0,262.5,194.5,262.0,203.0,261.5,211.0,260.5,219.0,260.5,227.5,260.0,236.5,260.0,245.0,259.5,253.5,259.0,261.5,258.5,269.5,257.5,277.5,257.0,285.5,256.0,293.0,255.0,300.5,254.5,308.5,253.0,316.0,252.5,324.0,251.5,331.5,250.5,340.0,250.0" stroke="black" stroke-width="2" fill="none" />
<path d="M331.0,237.5,323.0,238.0,315.0,238.5,307.5,239.0,300.0,239.0,292.0,239.5,284.0,240.5,276.5,240.5,268.5,240.5,260.0,240.5,252.0,241.5,244.0,242.0,235.5,242.0,227.5,242.0,219.5,242.0,212.0,242.5,204.0,242.5,196.0,243.0,189.0,243.5,181.0,244.0" stroke="black" stroke-width="2" fill="none" />
<path d="M190.0,245.5,192.0,239.5,186.0,242.0,188.5,250.0" stroke="black" stroke-width="2" fill="none" />
<path d="M192.5,251.0,188.5,243.5,192.0,245.5" stroke="black" stroke-width="2" fill="none" />
<path d="M197.5,241.0,205.0,241.0" stroke="black" stroke-width="2" fill="none" />
<path d="M213.5,243.5,221.5,243.5,229.0,242.5,237.0,242.0,244.5,241.0,251.5,240.0,259.5,239.5,267.5,238.5,275.0,238.0,282.0,237.5,289.5,237.0,298.0,236.0" stroke="black" stroke-width="2" fill="none" />
<path d="M301.5,225.0,309.5,225.0" stroke="black" stroke-width="2" fill="none" />
<path d="M305.5,219.5,306.5,227.5,307.0,235.5,308.5,243.5" stroke="black" stroke-width="2" fill="none" />
<path d="M299.5,232.0,291.5,232.5,283.5,233.5,275.0,234.0" stroke="black" stroke-width="2" fill="none" />
<path d="M276.5,225.5,284.0,225.5,292.0,225.5" stroke="black" stroke-width="2" fill="none" />
<path d="M303.5,220.0,303.5,222.5,303.5,231.0,303.5,239.0" stroke="black" stroke-width="2" fill="none" />
<path d="M315.0,243.0,307.0,243.0,298.5,242.5,290.5,243.0,282.5,243.5,274.0,244.5,266.5,246.0,259.0,247.0,251.5,248.0,243.5,249.0,235.5,249.5,228.0,250.5,220.0,251.5,212.0,252.0" stroke="black" stroke-width="2" fill="none" />
<path d="M197.0,258.5,205.0,258.0,213.0,257.0,221.0,257.0,229.0,257.0,236.5,257.0,243.5,256.5,251.0,256.0,258.5,255.5,266.5,255.0,274.5,254.0,282.5,253.5,290.5,252.5,299.0,251.5,307.5,251.0,315.5,250.0" stroke="black" stroke-width="2" fill="none" />
<path d="M316.5,257.5,307.5,258.5,299.5,259.5,291.0,260.5,282.0,261.0,274.0,261.5,266.0,262.0,258.5,262.5,251.0,263.5,244.0,264.0,236.5,264.0,228.0,264.5,220.0,265.0,212.0,265.5,204.5,265.0,196.5,265.5" stroke="black" stroke-width="2" fill="none" />
<path d="M187.0,273.0,194.5,272.5,202.5,272.5,211.0,272.5,219.0,272.5,227.5,272.5,235.5,272.5,244.0,272.0,252.0,271.5,260.0,271.0,268.0,271.0,276.0,270.5" stroke="black" stroke-width="2" fill="none" />
<path d="M274.0,269.5,282.0,270.0,283.0,281.5,283.5,289.5" stroke="black" stroke-width="2" fill="none" />
<path d="M276.5,282.0,273.5,274.5,273.5,275.0" stroke="black" stroke-width="2" fill="none" />
<path d="M266.5,230.5,259.0,231.0,250.5,231.0,242.5,231.5,234.5,231.5,226.0,231.5,217.5,231.5,209.5,231.5,201.5,232.0" stroke="black" stroke-width="2" fill="none" />
<path d="M213.0,227.5,220.5,227.0,228.5,226.0,236.0,225.0" stroke="black" stroke-width="2" fill="none" />
<path d="M239.5,224.0,233.5,221.0" stroke="black" stroke-width="2" fill="none" />
<path d="M232.0,220.0,240.0,228.0" stroke="black" stroke-width="2" fill="none" />
<path d="M243.5,225.0,251.5,224.5,259.5,224.0,267.0,223.5" stroke="black" stroke-width="2" fill="none" />
<path d="M308.5,204.5,300.0,205.0,292.0,205.5,284.5,206.0,276.5,206.5,268.5,207.0,260.5,207.0,252.0,207.5,243.5,207.5,235.5,208.0,227.5,208.0,219.0,208.5" stroke="black" stroke-width="2" fill="none" />
<path d="M219.0,200.0,227.0,199.5,235.0,199.0,243.5,199.0,251.5,199.0,260.0,198.5,268.5,198.5,277.0,198.5,285.0,197.5,293.5,196.5,301.5,196.0" stroke="black" stroke-width="2" fill="none" />
<path d="M316.0,185.0,308.0,193.0,300.5,200.5,293.0,208.5,284.5,216.5,276.5,224.5,269.0,232.5,260.5,240.0,252.5,248.0,244.5,256.0,236.0,263.5,228.5,271.0,220.5,278.5,212.5,286.0,205.0,293.0,197.5,301.0" stroke="black" stroke-width="2" fill="none" />
<path d="M195.5,292.0,204.0,284.5,212.5,277.0,220.5,269.5,228.5,262.0,236.0,254.5,244.5,247.0,252.5,239.0,260.0,231.5,268.0,224.0,276.0,216.5,284.5,208.5,293.0,200.5,301.5,193.0,309.5,185.0,317.5,178.0" stroke="black" stroke-width="2" fill="none" />
<path d="M323.5,181.5,315.5,182.5,307.5,183.0,300.5,184.0,293.0,185.0,285.0,185.5,277.5,186.5,269.5,186.5,261.5,187.5,253.5,188.0,245.0,188.0,236.5,188.0,228.0,187.5,219.5,188.0,211.0,188.0,202.5,188.5,194.5,188.5,186.0,188.5" stroke="black" stroke-width="2" fill="none" />
<path d="M186.0,187.0,194.0,179.5,202.0,172.0,210.5,164.0,218.5,156.5,226.5,149.0,234.5,142.0,243.0,135.0,251.0,127.5,259.5,120.5,268.0,113.5,276.0,106.5,284.0,99.5,291.5,92.0,299.5,84.5" stroke="black" stroke-width="2" fill="none" />
<path d="M301.0,92.0,292.5,99.0,284.5,106.5,276.5,113.5,268.5,121.0,261.0,128.0,252.5,135.5,244.5,143.5,236.5,151.5,228.5,159.5,220.0,167.0,211.5,174.5,203.0,182.0,194.5,189.5,186.5,197.0" stroke="black" stroke-width="2" fill="none" />
<path d="M181.0,196.5,189.0,196.0,197.0,196.0,204.5,195.5,212.5,195.5,220.5,195.0,227.5,194.0,234.0,194.0,241.5,194.0,249.0,194.0,257.0,193.5,265.0,193.0,273.0,191.5,281.0,190.5,289.5,188.5,298.0,188.0,305.5,187.0,314.0,186.5,322.0,186.0" stroke="black" stroke-width="2" fill="none" />
<path d="M320.0,188.0,323.0,196.0,324.5,204.0,327.0,212.0,328.5,219.5,330.5,228.0,329.0,236.0,329.5,244.5,332.0,252.5" stroke="black" stroke-width="2" fill="none" />
<path d="M331.5,275.5,323.0,276.0,315.5,276.5,307.5,277.0,299.5,277.5,292.0,278.5,284.0,279.5,276.5,280.5,268.5,280.5,260.5,281.0,252.5,282.0,244.5,282.0,237.0,282.5,229.0,283.5,220.5,284.0,212.5,284.5,204.0,284.5,195.5,285.0,187.0,285.5,178.5,286.0" stroke="black" stroke-width="2" fill="none" />
<path d="M177.0,283.5,184.5,302.0,193.0,313.5,201.5,321.5,209.5,327.0,217.5,331.0,225.5,332.5,233.5,334.5,241.0,335.0,249.0,335.5,257.0,335.5,265.0,335.5,273.5,334.5,281.0,332.5,289.0,330.5,297.0,328.0,305.0,325.0,313.0,318.0,321.0,306.5,329.5,292.0,326.5,283.0,324.0,290.5" stroke="black" stroke-width="2" fill="none" />
<path d="M324.5,301.0,316.5,301.0,308.0,302.0,299.5,303.0,291.0,304.0,283.5,304.5,275.5,305.5,267.5,306.0,259.5,306.5,251.5,307.0,243.5,307.5,236.0,308.5,228.0,308.5,220.5,309.5,212.5,310.0,204.5,310.5,196.5,311.0" stroke="black" stroke-width="2" fill="none" />
<path d="M188.0,297.0,196.0,296.0,203.5,295.5,211.0,294.5,219.0,293.0,227.0,292.0,235.0,290.5,243.0,289.5,250.5,288.5,259.0,287.5,267.0,287.0,275.0,286.5,283.0,286.0,291.5,286.0,299.5,286.0,308.0,285.5,316.5,285.5,325.0,285.5,333.0,284.5" stroke="black" stroke-width="2" fill="none" />
<path d="M318.5,237.0,318.5,229.0" stroke="black" stroke-width="2" fill="none" />
<path d="M318.0,227.5,317.0,235.5,317.5,249.0,317.5,257.0,317.0,265.0,319.0,272.5,322.0,280.5,320.5,289.0,317.5,296.5" stroke="black" stroke-width="2" fill="none" />
<path d="M307.5,323.5,315.5,316.0,320.5,308.0,325.5,300.0,329.0,291.0,332.0,283.0,333.5,275.5,334.5,267.5,335.5,260.5,335.0,252.0,334.0,244.0,333.5,236.5,331.0,228.5" stroke="black" stroke-width="2" fill="none" />
<path d="M324.5,219.0,317.0,227.0,309.0,234.5,301.5,242.0,293.5,250.0,285.5,257.5,277.5,265.0,269.5,271.5,261.5,278.5,253.5,285.5,245.5,293.0,237.5,300.5,229.0,308.5,220.5,316.0" stroke="black" stroke-width="2" fill="none" />
<path d="M216.5,330.5,201.5,322.5,194.0,314.0,187.0,306.0,183.0,298.5,179.0,290.0,177.0,282.0,175.0,274.5,174.0,266.5,173.5,258.5,173.5,250.5,174.5,242.5,174.0,234.5,175.5,226.5,175.5,218.5,176.5,210.5,177.5,202.5,179.5,194.0,181.0,186.0,182.0,178.0,182.0,170.0,183.0,162.0,184.0,154.5,185.0,146.5,186.0,138.5,186.0,130.5,187.5,123.0,188.5,115.0,190.0,107.5,191.0,99.5,189.5,91.0,191.0,83.5,192.0,75.0,193.0,66.5,195.0,58.5,198.5,50.0,203.5,42.0,209.5,40.0,201.5,44.0,194.0,61.0" stroke="black" stroke-width="2" fill="none" />
<path d="M193.5,61.0,202.0,60.5,210.5,60.0,218.5,59.5,227.0,59.0,235.0,59.0,243.5,58.0,252.0,57.5,260.0,57.5,268.0,57.5,275.5,57.0,283.5,56.5,291.5,56.0,300.0,55.0" stroke="black" stroke-width="2" fill="none" />
<path d="M300.0,67.0,291.5,75.0,284.0,82.5,276.5,90.0,268.5,97.5,261.0,105.0,253.5,113.0,246.0,120.5,238.0,128.0,230.0,136.0,221.5,143.5,213.5,151.0,205.0,158.0,196.5,165.5,188.5,173.5" stroke="black" stroke-width="2" fill="none" />
<path d="M187.0,174.0,194.5,173.5,202.5,172.5,210.0,172.5,218.0,172.5,226.0,172.5,234.0,172.0,243.0,171.5,251.5,171.0,259.5,171.5,267.5,171.0,275.5,170.5,283.5,169.5,291.5,168.5,299.5,168.0,307.5,167.0,315.5,166.0" stroke="black" stroke-width="2" fill="none" />
<path d="M308.0,163.0,316.5,155.0" stroke="black" stroke-width="2" fill="none" />
<path d="M314.5,147.0,306.5,155.0" stroke="black" stroke-width="2" fill="none" />
<path d="M315.0,158.0,307.0,158.5,299.0,159.0,291.0,159.5,283.0,160.0,275.5,161.0,268.0,161.5,260.0,161.5,252.0,161.5,244.5,162.0,236.5,162.5,228.5,162.5,220.5,163.5,212.0,164.0,203.5,164.0,195.5,164.0,187.0,164.5" stroke="black" stroke-width="2" fill="none" />
<path d="M188.0,164.5,196.0,157.0,204.5,149.0,213.0,141.5,221.0,134.0,229.0,127.5,237.0,120.5,245.0,113.5,253.0,106.0,260.5,99.0,267.5,91.0,275.0,83.5,283.0,75.5,291.0,68.0" stroke="black" stroke-width="2" fill="none" />
<path d="M292.5,68.0,297.5,76.0,301.0,84.0" stroke="black" stroke-width="2" fill="none" />
<path d="M299.5,76.0,292.0,84.0,284.5,91.5,276.5,99.0,268.5,106.5,260.5,114.0,252.0,120.5,244.0,128.0,235.5,135.0,227.0,143.0,219.0,150.5,211.0,158.0,203.0,165.5,195.0,172.5,187.5,179.0" stroke="black" stroke-width="2" fill="none" />
<path d="M187.0,181.5,195.0,181.0,202.5,180.0,210.5,179.5,219.0,179.5,227.0,179.5,235.0,179.5,243.5,179.5,251.5,179.5,260.5,179.0,269.0,178.5,276.5,178.0,284.5,177.0,292.0,176.0,299.5,175.0,307.0,175.0,315.0,174.0,323.5,173.5" stroke="black" stroke-width="2" fill="none" />
<path d="M292.5,160.5,284.5,161.0,277.0,162.0,268.5,163.0" stroke="black" stroke-width="2" fill="none" />
<path d="M266.0,154.0,274.0,154.0,282.5,153.5,291.0,153.5" stroke="black" stroke-width="2" fill="none" />
<path d="M292.5,163.5,285.0,164.0,276.5,164.5,268.0,165.5,259.5,166.5,251.5,167.0,244.0,167.5,236.5,168.0,228.5,168.0,220.5,168.0,212.5,168.5,204.5,169.0" stroke="black" stroke-width="2" fill="none" />
<path d="M203.5,160.0,212.0,160.0,220.0,159.5,228.0,159.0,236.0,159.0,243.5,158.0,251.5,158.0,258.5,157.5" stroke="black" stroke-width="2" fill="none" />
<path d="M282.5,139.5,274.0,139.5,265.5,140.0,258.0,140.5,250.5,141.0,242.5,142.0,234.5,142.5,226.5,143.5" stroke="black" stroke-width="2" fill="none" />
<path d="M226.5,137.0,235.0,136.5,243.5,136.0,252.0,135.0,260.0,134.5,267.5,134.0,275.5,133.5,283.5,133.0" stroke="black" stroke-width="2" fill="none" />
<path d="M292.5,124.5,284.5,132.0,276.5,139.5,268.5,146.5,261.0,154.0,252.5,161.0,244.5,168.0,236.0,175.0,227.5,182.5,219.5,190.5,211.5,198.5" stroke="black" stroke-width="2" fill="none" />
<path d="M212.0,194.5,219.5,194.0,227.0,193.0,235.0,192.5,243.0,192.0,251.0,191.5,259.0,191.0,267.5,190.0,276.0,189.5,284.0,189.5,292.5,188.5,300.0,188.5" stroke="black" stroke-width="2" fill="none" />
<path d="M307.5,211.5,299.5,212.5,291.0,213.0,283.5,213.0,275.5,213.5,267.5,214.5,259.5,215.0,251.5,216.0,243.5,217.0,235.5,217.5,227.5,218.5,219.5,219.5,211.5,220.0" stroke="black" stroke-width="2" fill="none" />
<path d="M207.5,215.0,203.5,223.0" stroke="black" stroke-width="2" fill="none" />
<path d="M201.5,210.0,193.5,217.5,185.5,225.0,177.5,232.5" stroke="black" stroke-width="2" fill="none" />
<path d="M181.5,227.5,189.5,227.0,197.5,227.0,205.5,227.5,214.0,227.5,222.5,227.0,230.0,227.0,237.5,226.5,245.5,226.0,253.0,226.0,261.0,225.5,269.0,225.0,277.0,224.0,285.0,224.0,293.0,224.0,300.5,224.0,307.5,223.5,315.0,223.0,322.5,222.5,330.5,222.0" stroke="black" stroke-width="2" fill="none" />
<path d="M300.5,180.5,292.5,180.5,284.5,181.5,277.0,182.0,269.0,182.5,260.5,183.5,251.5,184.0,243.5,184.5,235.0,185.0,227.0,185.0,219.0,185.0,211.5,185.0,203.5,185.5" stroke="black" stroke-width="2" fill="none" />
<path d="M201.0,186.5,200.5,190.0,203.5,199.0,211.5,199.5" stroke="black" stroke-width="2" fill="none" />
<path d="M204.0,198.0,212.0,191.0,221.0,183.5,229.0,176.0,237.0,168.5,245.0,161.0,253.0,153.0,261.0,144.5,269.0,136.5,277.5,129.0,285.0,121.5,293.0,114.0,301.0,106.5,309.5,98.5" stroke="black" stroke-width="2" fill="none" />
<path d="M300.5,99.0,293.5,106.5,285.5,114.0,277.5,121.5,269.0,129.0,261.0,137.0,253.5,145.0,245.5,153.0,237.5,161.0,229.5,169.5,222.0,177.0,213.5,184.0,205.0,191.0,196.5,198.0,188.0,205.5" stroke="black" stroke-width="2" fill="none" />
<path d="M181.5,206.0,190.0,205.5,198.0,204.5,205.5,204.0,213.5,203.5,221.0,203.0,228.0,202.0,235.0,201.5,242.5,201.0,250.5,200.0,258.5,199.5,266.5,199.5,275.0,199.0,283.5,198.5,291.5,198.0,299.5,197.0,307.5,197.0,315.5,196.0,323.0,195.5" stroke="black" stroke-width="2" fill="none" />
<path d="M300.5,172.0,293.5,172.5,285.5,173.0,277.0,173.0,268.5,173.5,260.5,174.0,252.5,174.5,244.5,174.5,236.5,175.5,229.0,176.0,221.5,177.0,213.5,178.0,205.5,178.5" stroke="black" stroke-width="2" fill="none" />
<path d="M197.0,182.0,194.0,189.5,194.0,197.5,195.0,202.5,196.5,211.0,206.5,214.0,202.5,221.5" stroke="black" stroke-width="2" fill="none" />
<path d="M194.5,212.0,186.5,219.0" stroke="black" stroke-width="2" fill="none" />
<path d="M180.0,221.5,188.0,220.5,196.5,220.0,204.5,219.0,213.0,218.5,221.0,218.0,229.0,217.5,237.0,218.0,245.0,217.5,253.5,217.0,261.5,216.0,269.0,216.0,276.5,215.5,284.0,215.0,291.5,215.0,299.0,215.0,306.5,214.5,313.5,214.0,321.0,213.0,329.0,212.5" stroke="black" stroke-width="2" fill="none" />
<path d="M316.5,149.0,309.0,149.5,301.0,149.5,293.0,150.5,285.5,151.0,277.5,151.0,269.0,151.5,261.0,152.0,253.0,153.5,245.5,154.5,237.5,155.5,229.5,156.5,221.5,157.0,213.5,158.0,205.0,158.5,196.5,158.5,188.5,159.5" stroke="black" stroke-width="2" fill="none" />
<path d="M187.0,163.5,194.5,156.0" stroke="black" stroke-width="2" fill="none" />
<path d="M188.0,149.0,196.0,148.0,203.5,147.5,211.0,147.0,219.5,146.5,227.5,145.5,235.5,145.5,244.0,145.0,252.5,145.0,260.5,144.5,268.5,143.5,277.0,143.5,284.5,143.0,292.0,143.0,300.0,143.0,308.0,142.5,316.0,142.5" stroke="black" stroke-width="2" fill="none" />
<path d="M314.5,134.0,306.5,134.5,298.5,134.5,290.0,134.5,281.5,134.5,273.5,134.5,265.5,135.0,257.5,136.0,249.0,137.0,241.0,138.0,233.0,139.0,225.5,140.0,217.0,140.0,209.5,140.0,202.0,140.0,195.0,140.0,187.0,141.0" stroke="black" stroke-width="2" fill="none" />
<path d="M186.5,132.0,194.5,131.5,203.0,131.5,211.0,131.0,218.5,130.5,226.5,130.0,235.0,129.5,243.0,129.5,251.5,129.5,259.5,129.0,267.5,128.5,275.5,128.0,283.0,128.0,291.0,128.0,299.0,128.0,307.5,127.5,315.5,127.0" stroke="black" stroke-width="2" fill="none" />
<path d="M316.5,117.5,308.5,117.5,300.5,118.5,293.0,119.0,285.5,120.0,277.5,121.0,269.5,121.5,261.5,122.0,253.0,121.5,244.5,122.0,236.5,123.0,228.0,123.5,220.0,124.0,211.5,124.0,203.5,124.5,196.0,125.5,187.5,126.0" stroke="black" stroke-width="2" fill="none" />
<path d="M196.0,134.0,204.0,127.0,212.0,119.5,220.0,112.0,228.0,104.0,235.5,97.0,243.5,89.0,251.5,82.0,259.5,74.5,267.5,67.5,275.5,60.0" stroke="black" stroke-width="2" fill="none" />
<path d="M268.0,60.0,260.5,67.5,252.5,75.5,244.0,83.0,235.5,90.5,228.0,98.0,219.5,105.0,211.0,112.5,203.0,119.5,195.5,127.0" stroke="black" stroke-width="2" fill="none" />
<path d="M204.5,135.0,212.5,128.0,220.5,120.5,228.5,113.0,236.5,105.5,244.5,98.0,251.5,91.0,259.0,84.0,266.5,76.5,275.0,68.5" stroke="black" stroke-width="2" fill="none" />
<path d="M281.5,67.5,274.0,75.0,266.5,82.0,259.0,90.0,250.5,97.5,243.5,105.0,235.5,112.5,228.0,120.5,220.0,128.5,212.5,136.0,204.5,143.5" stroke="black" stroke-width="2" fill="none" />
<path d="M204.5,146.0,212.5,145.5" stroke="black" stroke-width="2" fill="none" />
<path d="M213.0,152.5,221.5,152.0,229.5,152.0,237.0,151.5,245.0,150.5,253.0,150.5,260.5,150.0" stroke="black" stroke-width="2" fill="none" />
<path d="M234.0,122.5,242.0,122.0,251.0,121.5,259.5,120.5,267.5,119.5,276.5,118.5,284.0,118.0" stroke="black" stroke-width="2" fill="none" />
<path d="M283.5,112.5,285.5,114.5,290.0,123.0,291.0,129.0,294.0,137.0,290.0,144.5,289.0,150.5,291.0,158.5,297.0,160.5,295.5,168.5,296.5,176.5,302.5,165.0" stroke="black" stroke-width="2" fill="none" />
<path d="M316.5,174.0,313.5,165.5,312.5,157.0,300.5,147.0" stroke="black" stroke-width="2" fill="none" />
<path d="M290.5,126.0,283.0,126.5,275.5,127.0,268.0,127.0,259.5,127.5,251.0,127.5,243.0,127.5,235.0,128.0,227.0,128.0" stroke="black" stroke-width="2" fill="none" />
<path d="M234.5,115.0,242.5,114.5,250.5,113.5,259.0,112.5,267.5,112.0,275.5,111.0,284.5,110.0" stroke="black" stroke-width="2" fill="none" />
<path d="M289.5,109.0,295.5,119.0,297.0,126.5,299.0,134.5,300.5,142.0,300.5,150.0,303.5,157.5,303.0,165.0" stroke="black" stroke-width="2" fill="none" />
<path d="M330.5,203.0,323.0,204.0,315.0,204.5,307.0,205.0,298.5,205.5,291.0,206.0,283.0,207.5,275.5,208.5,268.0,209.0,260.0,210.5,252.5,211.0,244.5,211.5,236.5,212.0,228.5,212.5,221.0,213.0,212.5,213.5,205.0,214.0,197.0,214.5,188.0,214.5,180.0,214.5" stroke="black" stroke-width="2" fill="none" />
<path d="M209.0,205.0,201.0,206.5,199.0,197.5,197.0,189.0" stroke="black" stroke-width="2" fill="none" />
<path d="M199.5,168.5,199.5,160.5,201.5,152.5,201.5,144.0,200.5,136.0,207.0,129.0,206.0,120.5,206.0,112.5,207.0,104.5,209.0,97.0,212.0,95.5,215.0,88.5,212.0,86.5,213.0,85.0,218.0,77.0,219.0,69.5,223.5,61.5,220.5,60.0,216.5,60.0" stroke="black" stroke-width="2" fill="none" />
<path d="M223.5,56.5,231.0,59.5" stroke="black" stroke-width="2" fill="none" />
<path d="M228.5,58.0,236.0,50.5,244.5,43.0" stroke="black" stroke-width="2" fill="none" />
<path d="M236.0,42.5,228.0,50.5" stroke="black" stroke-width="2" fill="none" />
<path d="M227.5,50.0,235.5,49.5,243.5,49.0,252.0,48.0,260.5,47.5,269.0,47.0" stroke="black" stroke-width="2" fill="none" />
<path d="M269.0,45.0,261.0,52.5,252.5,60.0,243.5,67.5,235.0,75.0,226.5,82.0,218.5,90.0,210.5,97.5,202.5,105.0" stroke="black" stroke-width="2" fill="none" />
<path d="M196.0,103.5,204.0,102.0,211.5,101.5,219.0,100.5,227.0,99.0,234.5,98.5,243.0,98.0,251.0,97.5,259.0,97.0,266.5,96.0,274.5,96.0,282.5,95.5,290.5,95.0,299.0,95.0,307.5,95.5" stroke="black" stroke-width="2" fill="none" />
<path d="M293.5,97.5,285.5,98.0,277.5,98.5" stroke="black" stroke-width="2" fill="none" />
<path d="M284.5,89.5,276.5,89.5,268.5,90.5" stroke="black" stroke-width="2" fill="none" />
<path d="M269.5,82.0,277.5,81.5" stroke="black" stroke-width="2" fill="none" />
<path d="M276.5,72.5,269.0,73.0" stroke="black" stroke-width="2" fill="none" />
<path d="M265.5,65.0,257.5,65.0,249.0,65.5" stroke="black" stroke-width="2" fill="none" />
<path d="M242.5,64.5,234.5,64.5" stroke="black" stroke-width="2" fill="none" />
<path d="M220.5,71.5,228.5,64.5,237.0,57.5,245.0,50.5,253.5,43.0" stroke="black" stroke-width="2" fill="none" />
<path d="M261.5,44.5,253.0,52.0,245.0,59.0,236.5,66.0,228.0,73.5,219.5,80.5,211.0,88.5,203.5,96.0,195.5,103.5" stroke="black" stroke-width="2" fill="none" />
<path d="M196.0,97.5,204.0,90.0,211.5,82.5" stroke="black" stroke-width="2" fill="none" />
<path d="M208.0,90.0,214.5,99.0,210.5,106.5,213.5,108.5,210.5,121.0,210.0,129.0,212.0,137.0,214.0,144.5,219.0,141.5,221.5,143.0" stroke="black" stroke-width="2" fill="none" />
<path d="M218.0,139.5,214.0,126.5,214.5,118.5" stroke="black" stroke-width="2" fill="none" />
<path d="M233.0,106.0,241.0,105.5,250.0,105.0,258.5,104.0,267.0,104.0,276.0,103.0,284.0,102.5,292.5,102.5" stroke="black" stroke-width="2" fill="none" />
<path d="M293.0,104.0,293.0,104.5,293.0,113.5,285.0,117.5,289.0,131.0" stroke="black" stroke-width="2" fill="none" />
<path d="M260.5,88.0,252.5,89.0,244.0,89.0" stroke="black" stroke-width="2" fill="none" />
<path d="M243.0,82.0,251.5,81.5" stroke="black" stroke-width="2" fill="none" />
<path d="M256.5,85.0,261.5,93.0" stroke="black" stroke-width="2" fill="none" />
<path d="M259.0,96.0,250.5,96.0,242.5,96.5,234.5,97.0" stroke="black" stroke-width="2" fill="none" />
<path d="M201.0,101.5,200.5,93.5,193.5,93.0,196.5,85.0" stroke="black" stroke-width="2" fill="none" />
<path d="M194.0,85.5,203.5,86.5,202.5,95.0,202.0,103.0,201.0,111.5,201.5,119.5,198.0,132.0,196.0,140.5,196.0,148.5,198.5,156.5,197.5,164.5,198.5,172.5" stroke="black" stroke-width="2" fill="none" />
<path d="M189.0,167.5,191.0,175.5,186.5,183.5,190.5,191.5,186.5,198.5,182.0,206.5,186.0,209.0,183.0,217.0,186.5,217.5,187.5,213.5,189.5,208.0,200.5,209.5,209.5,212.0,213.5,213.0" stroke="black" stroke-width="2" fill="none" />
<path d="M231.5,300.0,226.5,307.5,227.0,302.5" stroke="black" stroke-width="2" fill="none" />
<path d="M188.0,111.0,196.0,110.5,204.5,109.0,213.0,108.0,221.0,107.0,229.0,106.0,237.0,105.5,244.5,105.0,252.0,104.5,259.5,103.5,267.5,103.0,276.0,103.0,284.0,102.5,292.0,102.0,300.0,102.0,307.5,101.0" stroke="black" stroke-width="2" fill="none" />
<path d="M308.0,86.5,299.5,87.0,291.0,87.0,282.5,87.5,274.5,87.5,267.0,88.0,259.0,88.5,251.5,89.0,243.5,90.0,235.5,90.0,227.5,91.0,219.5,91.5,211.0,92.0,202.5,92.5,194.5,92.5" stroke="black" stroke-width="2" fill="none" />
<path d="M193.0,86.5,201.0,86.0,209.0,84.5,217.0,83.5,225.5,81.5,234.0,81.0,241.5,80.0,250.0,79.5,258.0,79.0,266.5,78.5,274.5,78.5,282.5,77.5,290.5,77.0,298.5,76.0,306.0,75.5" stroke="black" stroke-width="2" fill="none" />
<path d="M308.0,69.5,300.0,70.0,291.5,71.0,283.0,71.5,274.5,72.0,266.5,72.5,258.5,73.0,250.5,73.0,242.5,73.5,234.5,74.0,226.5,75.0,218.5,75.0,210.0,75.5,201.5,75.5,193.5,76.5" stroke="black" stroke-width="2" fill="none" />
<path d="M194.0,69.0,202.0,68.0,210.5,67.0,219.0,67.0,227.5,67.5,236.0,67.0,244.0,66.0,252.0,65.0,260.0,64.0,267.5,64.0,275.0,63.0,283.0,63.0,291.0,62.5,299.0,62.5" stroke="black" stroke-width="2" fill="none" />
<path d="M293.0,67.0,301.0,80.0" stroke="black" stroke-width="2" fill="none" />
<path d="M300.5,47.0,292.5,48.0,284.0,48.0,276.0,48.5,268.0,49.0,260.0,49.5,252.0,50.5,244.0,51.0,236.0,52.0,228.0,52.5,220.0,53.5,212.0,54.0,204.0,55.0" stroke="black" stroke-width="2" fill="none" />
<path d="M204.5,60.5,213.0,53.0,221.0,45.5" stroke="black" stroke-width="2" fill="none" />
<path d="M220.5,52.0,229.0,45.0" stroke="black" stroke-width="2" fill="none" />
<path d="M228.5,37.5,236.0,37.5,244.0,37.0,251.5,36.5,259.5,36.5,267.0,36.0,275.5,36.0,283.5,36.0" stroke="black" stroke-width="2" fill="none" />
<path d="M291.5,40.5,283.0,41.0,275.0,41.5,267.5,41.5,260.0,42.0,253.0,43.0,245.5,44.0,237.5,45.0,229.5,45.5,221.0,46.0,213.0,47.0,205.0,47.0" stroke="black" stroke-width="2" fill="none" />
<path d="M208.0,44.0,216.0,41.0,224.5,39.5,232.5,37.5,241.0,38.0,249.0,37.0,257.0,37.0,265.0,38.0,273.0,38.0,274.0,40.0,282.0,39.0,290.0,41.0,297.5,54.0" stroke="black" stroke-width="2" fill="none" />
<path d="M293.5,43.5,297.5,51.5,301.5,59.0,303.5,67.0,305.0,75.0,307.0,83.0,307.5,91.0,308.0,98.5,308.5,106.5,309.5,114.5,310.5,122.5,311.5,130.5,313.0,139.0,315.0,147.0,316.0,155.0,317.0,162.5,318.0,170.5,320.0,178.5,319.0,186.5,318.5,194.5,320.5,202.5" stroke="black" stroke-width="2" fill="none" />
<path d="M277.0,60.5,269.0,55.5" stroke="black" stroke-width="2" fill="none" />
<path d="M279.5,76.0,277.0,73.5,276.0,65.5,270.0,57.5,278.5,45.0,286.0,45.5,281.5,44.0,273.5,47.5,265.5,48.5,257.5,50.0,250.0,51.0,241.5,52.0,234.0,51.5,226.0,52.0,218.5,51.0,210.5,49.0" stroke="black" stroke-width="2" fill="none" />
</svg>