<svg xmlns="http://www.w3.org/2000/svg" version="1.1"><polyline points="2.0,1.5,2.5,9.5,2.5,17.5,2.5,25.5,2.5,33.5,2.5,41.5,3.0,49.5,4.0,57.0,4.5,65.0,4.5,72.5,4.5,81.0,4.5,89.0,4.0,97.0,3.5,105.5,3.5,114.5,3.5,123.0,3.5,131.0,3.0,138.5,3.0,146.5,3.0,154.5,3.0,162.5,2.5,170.5,2.5,178.5,2.5,186.0,2.5,194.0,3.0,202.0,3.0,210.0,3.0,218.0,3.5,226.0,4.0,234.5,4.0,242.5,4.0,250.5,4.0,258.5,3.5,266.5,3.0,275.0,3.0,283.0,3.0,291.0,3.0,298.5,3.5,306.5,3.0,314.5,3.0,322.5,3.0,330.5,2.5,338.5,7.5,342.5,15.5,342.0,23.5,341.5,31.0,341.5,39.0,341.5,46.5,341.5,54.0,342.0,62.0,342.0,70.0,342.0,79.0,341.5,87.0,341.5,95.0,342.0,103.0,342.5,111.5,342.5,119.5,343.0,128.0,343.5,136.5,343.5,144.5,344.0,152.5,344.0,160.0,344.0,168.0,343.5,176.5,343.0,184.5,343.0,192.0,343.0,200.0,342.5,207.5,342.0,215.5,341.5,224.0,341.5,231.5,341.5,239.5,342.0,247.5,342.0,256.0,342.5,264.0,343.0,272.5,343.0,281.0,343.0,289.0,343.0,297.5,343.0,306.0,343.0,314.0,343.0,321.5,342.5,329.5,342.5,337.0,342.0,345.0,342.0,353.0,341.5,361.0,342.0,369.0,342.0,377.0,342.5,385.0,342.5,393.0,342.0,400.5,342.0,408.5,341.5,416.0,341.5,424.0,341.5,431.5,341.5,439.5,341.0,447.0,340.5,455.0,340.5,463.0,340.5,471.0,340.5,479.5,341.0,487.5,341.0,495.5,341.5,503.5,342.0,511.5,342.0" stroke="black" stroke-width="2" fill="none" />
<polyline points="505.5,189.0,513.5,181.5" stroke="black" stroke-width="2" fill="none" />
<polyline points="507.0,179.5,514.5,172.0" stroke="black" stroke-width="2" fill="none" />
<polyline points="514.0,163.0,506.0,170.5,497.5,178.0" stroke="black" stroke-width="2" fill="none" />
<polyline points="490.5,176.5,498.5,168.5,506.0,160.5,513.5,153.0" stroke="black" stroke-width="2" fill="none" />
<polyline points="516.0,146.5,507.5,154.0,500.0,161.0,492.0,168.5,484.0,176.0" stroke="black" stroke-width="2" fill="none" />
<polyline points="484.5,167.5,492.5,160.0,500.5,152.5,508.0,145.5,516.0,138.5" stroke="black" stroke-width="2" fill="none" />
<polyline points="515.0,130.5,507.0,138.0,499.0,145.0,491.0,152.5,483.0,160.0" stroke="black" stroke-width="2" fill="none" />
<polyline points="497.5,136.5,506.0,129.5,514.0,122.0" stroke="black" stroke-width="2" fill="none" />
<polyline points="515.0,115.5,507.0,123.0" stroke="black" stroke-width="2" fill="none" />
<polyline points="506.5,117.0,515.0,109.5" stroke="black" stroke-width="2" fill="none" />
<polyline points="506.0,107.5,513.5,100.0" stroke="black" stroke-width="2" fill="none" />
<polyline points="506.0,97.0,514.0,89.0" stroke="black" stroke-width="2" fill="none" />
<polyline points="515.0,83.0,507.0,90.5,499.5,98.0" stroke="black" stroke-width="2" fill="none" />
<polyline points="498.5,92.0,507.0,84.0,514.5,76.0" stroke="black" stroke-width="2" fill="none" />
<polyline points="514.5,67.0,506.5,74.5,499.0,82.5" stroke="black" stroke-width="2" fill="none" />
<polyline points="497.5,73.5,505.0,65.5,513.0,58.5" stroke="black" stroke-width="2" fill="none" />
<polyline points="513.5,51.5,506.0,59.0,498.5,66.5" stroke="black" stroke-width="2" fill="none" />
<polyline points="491.0,65.5,499.0,58.0,506.5,50.0,514.5,42.0" stroke="black" stroke-width="2" fill="none" />
<polyline points="515.5,35.5,507.5,43.0,499.0,51.0,491.0,58.5" stroke="black" stroke-width="2" fill="none" />
<polyline points="491.0,50.0,499.0,43.0,507.5,36.5,515.0,29.5" stroke="black" stroke-width="2" fill="none" />
<polyline points="517.0,20.5,509.0,28.0,501.0,36.0,493.0,43.0,485.0,50.0" stroke="black" stroke-width="2" fill="none" />
<polyline points="485.5,41.0,493.5,33.0,501.5,25.0,510.0,18.0,518.0,11.0" stroke="black" stroke-width="2" fill="none" />
<polyline points="516.0,4.0,508.0,11.5,500.0,18.5,492.5,25.5,485.0,33.5" stroke="black" stroke-width="2" fill="none" />
<polyline points="483.5,27.0,491.0,20.0,499.0,12.0,507.0,4.0" stroke="black" stroke-width="2" fill="none" />
<polyline points="498.5,4.0,490.5,11.5,482.5,19.0" stroke="black" stroke-width="2" fill="none" />
<polyline points="481.5,10.0,489.5,2.0" stroke="black" stroke-width="2" fill="none" />
<polyline points="482.5,4.0,475.0,11.5" stroke="black" stroke-width="2" fill="none" />
<polyline points="421.0,98.0,413.0,105.5" stroke="black" stroke-width="2" fill="none" />
<polyline points="413.5,99.0,405.5,107.0" stroke="black" stroke-width="2" fill="none" />
<polyline points="403.5,100.5,396.0,108.0" stroke="black" stroke-width="2" fill="none" />
<polyline points="396.0,105.5,404.5,105.0" stroke="black" stroke-width="2" fill="none" />
<polyline points="408.0,100.0,417.5,106.0,419.5,114.0,415.5,122.0,413.0,130.5,414.0,138.5,411.5,146.5,407.5,155.0,404.5,163.0,397.5,175.5" stroke="black" stroke-width="2" fill="none" />
<polyline points="397.5,180.5,389.0,187.5,381.0,195.0" stroke="black" stroke-width="2" fill="none" />
<polyline points="379.0,197.5,381.0,195.5,375.0,201.5,381.5,210.5,390.0,207.0,398.0,204.0" stroke="black" stroke-width="2" fill="none" />
<polyline points="396.0,205.5,388.0,212.5" stroke="black" stroke-width="2" fill="none" />
<polyline points="388.5,206.0,381.5,219.0" stroke="black" stroke-width="2" fill="none" />
<polyline points="380.0,219.5,371.5,227.0" stroke="black" stroke-width="2" fill="none" />
<polyline points="380.5,226.0,388.5,219.0,396.5,212.0,405.0,205.0" stroke="black" stroke-width="2" fill="none" />
<polyline points="405.0,212.0,397.0,219.0,388.5,226.0" stroke="black" stroke-width="2" fill="none" />
<polyline points="390.5,228.5,385.0,228.5" stroke="black" stroke-width="2" fill="none" />
<polyline points="372.5,217.5,364.5,225.0,356.0,233.0" stroke="black" stroke-width="2" fill="none" />
<polyline points="354.5,227.5,362.5,220.0" stroke="black" stroke-width="2" fill="none" />
<polyline points="358.5,220.5,350.5,228.0" stroke="black" stroke-width="2" fill="none" />
<polyline points="348.5,226.5,356.5,226.0" stroke="black" stroke-width="2" fill="none" />
<polyline points="348.0,218.5,340.0,226.0" stroke="black" stroke-width="2" fill="none" />
<polyline points="344.0,232.0,351.5,233.0" stroke="black" stroke-width="2" fill="none" />
<polyline points="332.0,226.0,339.5,219.0,347.5,211.5" stroke="black" stroke-width="2" fill="none" />
<polyline points="346.5,211.0,357.5,222.0,350.5,220.5,357.0,219.5" stroke="black" stroke-width="2" fill="none" />
<polyline points="372.0,213.5,380.5,213.0,388.5,213.0,396.5,213.0,404.5,212.5,412.0,212.0,421.0,210.5,429.5,209.5,437.0,208.5,444.5,207.5,452.5,206.5,460.5,206.0,469.0,205.5,476.5,205.5,485.0,205.5,492.5,205.0,500.5,205.0,508.0,205.0,516.0,204.5" stroke="black" stroke-width="2" fill="none" />
<polyline points="517.0,194.5,509.5,194.5,502.0,194.5,493.5,194.5,485.5,194.5,477.5,194.5,469.5,194.5,461.5,194.5,453.5,195.0,445.5,195.5" stroke="black" stroke-width="2" fill="none" />
<polyline points="412.0,190.5,420.5,189.5,428.5,189.5,436.5,189.0,444.0,189.0,452.5,188.0,460.0,187.5,467.5,187.5,475.0,187.0,482.5,186.5,490.5,186.0,498.5,185.5,506.5,185.0,515.0,184.0" stroke="black" stroke-width="2" fill="none" />
<polyline points="517.0,200.0,509.0,200.0,500.5,200.5,492.0,200.5,484.0,201.0,476.0,201.5,468.0,202.0,460.5,202.5,452.5,203.0,444.0,203.0,435.5,203.5,427.5,204.0,420.5,204.5,412.5,205.0" stroke="black" stroke-width="2" fill="none" />
<polyline points="396.5,195.0,388.0,202.5,380.0,210.5" stroke="black" stroke-width="2" fill="none" />
<polyline points="379.5,202.5,388.0,194.5,396.0,187.0" stroke="black" stroke-width="2" fill="none" />
<polyline points="395.5,191.5,387.5,192.0" stroke="black" stroke-width="2" fill="none" />
<polyline points="384.5,185.5,392.5,184.5" stroke="black" stroke-width="2" fill="none" />
<polyline points="379.0,185.5,387.5,177.5,395.5,169.5,403.5,161.5,411.5,154.0" stroke="black" stroke-width="2" fill="none" />
<polyline points="412.5,147.5,404.5,155.0" stroke="black" stroke-width="2" fill="none" />
<polyline points="401.5,153.5,409.5,138.5" stroke="black" stroke-width="2" fill="none" />
<polyline points="412.0,133.0,420.0,125.0,428.5,117.5" stroke="black" stroke-width="2" fill="none" />
<polyline points="427.0,109.5,419.0,117.0" stroke="black" stroke-width="2" fill="none" />
<polyline points="411.5,115.0,419.5,107.5" stroke="black" stroke-width="2" fill="none" />
<polyline points="424.0,107.5,422.0,115.5" stroke="black" stroke-width="2" fill="none" />
<polyline points="419.0,133.5,410.5,141.0,402.5,148.5" stroke="black" stroke-width="2" fill="none" />
<polyline points="388.0,145.0,380.0,153.0,372.0,160.5,364.0,169.0,356.0,177.0,348.0,185.0,340.0,192.5" stroke="black" stroke-width="2" fill="none" />
<polyline points="339.5,187.0,347.5,179.5,355.5,172.0" stroke="black" stroke-width="2" fill="none" />
<polyline points="348.0,171.5,339.5,179.5" stroke="black" stroke-width="2" fill="none" />
<polyline points="340.5,180.0,349.0,179.5,356.5,179.0,364.5,179.0" stroke="black" stroke-width="2" fill="none" />
<polyline points="363.0,177.5,354.5,185.0,346.5,192.5,339.0,200.5,332.0,208.0" stroke="black" stroke-width="2" fill="none" />
<polyline points="340.5,211.0,332.5,219.0,324.5,226.5" stroke="black" stroke-width="2" fill="none" />
<polyline points="325.0,220.5,316.5,228.0,308.0,235.5" stroke="black" stroke-width="2" fill="none" />
<polyline points="301.5,237.0,309.5,233.0,309.0,233.0,306.0,242.0,294.0,250.5,299.0,256.5" stroke="black" stroke-width="2" fill="none" />
<polyline points="282.5,259.5,274.5,260.5,266.5,260.5,258.0,261.0,249.5,261.0,241.5,261.5" stroke="black" stroke-width="2" fill="none" />
<polyline points="245.0,258.5,253.0,251.5" stroke="black" stroke-width="2" fill="none" />
<polyline points="255.5,246.5,263.5,250.5,272.0,258.0,280.0,255.0,289.5,249.5,295.0,247.5,306.5,241.5" stroke="black" stroke-width="2" fill="none" />
<polyline points="313.5,246.5,307.5,254.5" stroke="black" stroke-width="2" fill="none" />
<polyline points="300.0,233.5,308.0,226.5,315.5,219.5,323.5,212.0" stroke="black" stroke-width="2" fill="none" />
<polyline points="324.0,213.5,323.0,217.0,331.5,224.5" stroke="black" stroke-width="2" fill="none" />
<polyline points="314.0,225.0,306.0,226.0" stroke="black" stroke-width="2" fill="none" />
<polyline points="298.5,217.5,306.5,210.0,314.5,203.0" stroke="black" stroke-width="2" fill="none" />
<polyline points="321.0,203.0,313.0,210.5,305.5,218.0,298.0,225.5,290.5,233.0" stroke="black" stroke-width="2" fill="none" />
<polyline points="290.5,229.0,298.0,229.0,306.5,228.5,314.5,228.0,322.5,227.0,330.5,226.0,338.5,225.5,346.5,225.5,354.5,225.0,362.5,224.5,370.0,224.0,378.0,224.0,386.0,223.0" stroke="black" stroke-width="2" fill="none" />
<polyline points="390.0,199.5,398.5,199.5" stroke="black" stroke-width="2" fill="none" />
<polyline points="373.0,195.5,365.0,203.0" stroke="black" stroke-width="2" fill="none" />
<polyline points="357.0,201.5,365.5,194.0,373.5,186.5" stroke="black" stroke-width="2" fill="none" />
<polyline points="371.0,191.5,367.0,199.5,369.0,196.5" stroke="black" stroke-width="2" fill="none" />
<polyline points="362.5,187.0,354.5,194.5,346.5,201.5" stroke="black" stroke-width="2" fill="none" />
<polyline points="345.5,202.5,353.5,202.0,362.0,200.5" stroke="black" stroke-width="2" fill="none" />
<polyline points="354.0,193.0,346.0,193.0" stroke="black" stroke-width="2" fill="none" />
<polyline points="341.5,186.0,349.0,185.5,357.0,185.0,365.0,184.5" stroke="black" stroke-width="2" fill="none" />
<polyline points="369.5,180.0,378.0,172.5,386.0,164.5" stroke="black" stroke-width="2" fill="none" />
<polyline points="387.0,172.0,378.5,180.0" stroke="black" stroke-width="2" fill="none" />
<polyline points="377.0,178.5,385.0,178.0" stroke="black" stroke-width="2" fill="none" />
<polyline points="385.0,170.5,377.0,171.5" stroke="black" stroke-width="2" fill="none" />
<polyline points="371.0,171.0,379.5,163.0,388.0,155.5" stroke="black" stroke-width="2" fill="none" />
<polyline points="381.5,161.0,373.0,161.5" stroke="black" stroke-width="2" fill="none" />
<polyline points="370.0,154.0,377.5,146.5" stroke="black" stroke-width="2" fill="none" />
<polyline points="381.0,146.0,389.0,169.0,397.5,177.0" stroke="black" stroke-width="2" fill="none" />
<polyline points="405.0,183.0,396.5,183.5,389.0,184.0,381.0,184.5,373.0,185.0,365.5,186.0,357.0,187.5,349.0,188.5,341.5,189.0,333.5,189.0" stroke="black" stroke-width="2" fill="none" />
<polyline points="332.5,196.5,340.5,196.0,348.0,195.0,356.0,195.0,364.0,195.0,372.0,194.5,380.0,194.0,388.0,193.5,396.0,192.5,404.0,192.0" stroke="black" stroke-width="2" fill="none" />
<polyline points="404.5,198.0,396.5,198.0,388.5,198.0,380.5,198.0,373.0,198.5,364.5,199.0,356.5,199.5,349.0,200.5,341.0,201.0,333.0,202.5,325.0,203.0,316.5,203.5,308.0,203.0,299.5,203.5,291.5,204.5,283.5,205.0" stroke="black" stroke-width="2" fill="none" />
<polyline points="277.0,204.5,268.5,212.0,260.0,219.0,251.5,226.5,243.0,234.5" stroke="black" stroke-width="2" fill="none" />
<polyline points="243.0,234.5,251.0,234.0,259.0,233.5,267.5,232.5,276.0,231.5" stroke="black" stroke-width="2" fill="none" />
<polyline points="276.0,225.5,267.5,233.0" stroke="black" stroke-width="2" fill="none" />
<polyline points="260.0,234.5,268.0,227.0,276.0,219.5" stroke="black" stroke-width="2" fill="none" />
<polyline points="278.5,216.5,288.5,220.5,292.5,228.5,286.0,237.5,294.0,236.0,301.0,233.0" stroke="black" stroke-width="2" fill="none" />
<polyline points="299.5,246.5,291.5,247.0,283.5,247.5,276.0,248.0,268.0,248.5,259.5,249.5,251.5,250.0,243.5,250.5,236.0,251.0,228.0,251.5,220.5,252.5,212.5,253.0,204.5,254.0,197.0,254.5" stroke="black" stroke-width="2" fill="none" />
<polyline points="197.0,251.0,204.5,243.5,212.0,235.5" stroke="black" stroke-width="2" fill="none" />
<polyline points="212.0,226.5,220.5,219.0,229.0,212.0,237.0,204.5" stroke="black" stroke-width="2" fill="none" />
<polyline points="235.5,204.0,230.5,211.5,224.5,219.5,228.5,222.0,225.5,229.5,224.5,242.5,230.5,250.5" stroke="black" stroke-width="2" fill="none" />
<polyline points="228.0,247.5,219.5,247.5,211.5,247.5,203.5,247.5,196.0,248.5" stroke="black" stroke-width="2" fill="none" />
<polyline points="197.0,247.0,205.0,245.0" stroke="black" stroke-width="2" fill="none" />
<polyline points="211.5,251.0,220.0,243.0,227.5,235.5" stroke="black" stroke-width="2" fill="none" />
<polyline points="228.0,235.0,220.5,235.5,212.5,236.0,204.5,236.5,197.0,237.5,189.5,238.0" stroke="black" stroke-width="2" fill="none" />
<polyline points="196.0,243.0,188.5,250.5" stroke="black" stroke-width="2" fill="none" />
<polyline points="181.5,256.0,189.5,255.0,196.5,253.0,204.5,255.0,212.0,257.5,220.0,259.5,228.0,261.5,236.0,261.5,244.0,263.0,252.5,264.0,260.5,265.0,268.5,265.5,277.0,265.5,287.0,260.5" stroke="black" stroke-width="2" fill="none" />
<polyline points="290.0,221.5,298.5,221.0,307.0,220.0,315.5,219.0,323.5,218.0,331.0,218.0,339.0,217.0,346.5,216.5,354.0,216.0,362.5,214.5,370.5,214.0,378.0,213.5,386.0,213.5,393.5,213.5,401.0,213.5,409.0,213.5,417.0,212.5,425.5,211.5,433.5,210.5,441.5,210.0,449.0,210.0,457.0,209.5,465.5,209.0,474.0,209.0,482.5,208.5,490.5,208.5,498.5,208.0,506.0,208.0,514.0,207.5" stroke="black" stroke-width="2" fill="none" />
<polyline points="515.0,172.0,507.5,172.5,500.0,172.5,492.0,173.0,484.5,173.5,476.5,174.0,469.0,174.5,461.0,175.0,453.5,175.0,445.0,175.5,437.0,176.0,429.0,176.5,421.0,177.5,413.5,178.0,405.0,178.5,396.5,179.0,388.0,180.0,380.0,180.0,371.5,180.5" stroke="black" stroke-width="2" fill="none" />
<polyline points="364.0,157.0,372.5,156.5,381.0,155.5,389.5,155.0,397.5,155.0,405.5,155.0,413.0,154.5,420.0,154.0,428.0,153.0,436.5,152.5,444.5,152.0,452.5,151.5,460.0,150.5,468.0,150.0,476.0,149.0,484.0,149.0,492.0,149.0,500.5,148.5,509.0,148.5,517.0,148.5" stroke="black" stroke-width="2" fill="none" />
<polyline points="517.0,143.0,508.5,143.0,500.5,143.0,492.5,143.0,484.5,143.5,476.0,144.5,468.0,145.0,460.0,145.0,452.0,145.5,444.0,146.0,436.5,145.5,428.5,145.5,420.5,145.5,413.0,146.0,405.5,146.5,397.0,146.5,389.0,147.0,380.5,148.0,372.0,148.5" stroke="black" stroke-width="2" fill="none" />
<polyline points="371.0,146.5,378.5,139.0" stroke="black" stroke-width="2" fill="none" />
<polyline points="376.5,135.5,378.5,143.5,378.5,149.5,380.0,157.5,386.0,165.5,389.0,174.0,392.0,182.0,398.0,190.0,398.0,198.0,396.0,205.0,398.5,212.0,395.0,220.0,383.0,222.5,386.0,216.5,393.5,213.5" stroke="black" stroke-width="2" fill="none" />
<polyline points="364.0,207.5,356.0,209.0,347.5,209.5,339.0,210.0,330.5,210.0,322.5,210.5,314.5,211.5,306.0,212.0,298.0,212.5,290.0,213.5" stroke="black" stroke-width="2" fill="none" />
<polyline points="289.0,213.0,297.0,215.0" stroke="black" stroke-width="2" fill="none" />
<polyline points="297.0,209.5,305.0,202.0,313.0,195.0,321.5,187.5" stroke="black" stroke-width="2" fill="none" />
<polyline points="314.5,188.5,306.5,195.5" stroke="black" stroke-width="2" fill="none" />
<polyline points="299.0,196.0,291.5,204.0" stroke="black" stroke-width="2" fill="none" />
<polyline points="290.0,208.0,298.0,207.0" stroke="black" stroke-width="2" fill="none" />
<polyline points="302.0,205.0,294.5,212.5" stroke="black" stroke-width="2" fill="none" />
<polyline points="292.0,220.5,300.0,224.5" stroke="black" stroke-width="2" fill="none" />
<polyline points="275.0,210.5,266.5,218.0,258.5,226.0,251.0,234.0" stroke="black" stroke-width="2" fill="none" />
<polyline points="251.0,237.5,258.5,237.0,266.5,236.5" stroke="black" stroke-width="2" fill="none" />
<polyline points="276.0,225.0,268.5,225.0,261.5,225.5,253.0,226.0" stroke="black" stroke-width="2" fill="none" />
<polyline points="244.0,223.5,252.0,223.0,260.5,222.5,268.5,222.0,277.0,221.0,285.0,221.0" stroke="black" stroke-width="2" fill="none" />
<polyline points="268.0,203.5,260.0,211.0,252.0,218.5,243.5,226.5,235.5,234.5" stroke="black" stroke-width="2" fill="none" />
<polyline points="234.5,239.0,226.5,239.5,218.5,240.0,210.5,240.0,203.0,240.5,195.5,241.0,187.5,241.5,180.0,242.0,172.0,242.5,164.0,243.0,155.5,244.0,147.0,244.5,139.5,244.5,131.5,245.0" stroke="black" stroke-width="2" fill="none" />
<polyline points="129.5,251.0,121.5,258.5" stroke="black" stroke-width="2" fill="none" />
<polyline points="115.5,259.0,123.5,259.0,131.5,258.5,139.0,253.5,151.0,248.5,138.0,256.5,146.5,250.5,154.5,245.0" stroke="black" stroke-width="2" fill="none" />
<polyline points="154.0,252.0,162.0,252.0" stroke="black" stroke-width="2" fill="none" />
<polyline points="156.0,236.5,163.5,229.5" stroke="black" stroke-width="2" fill="none" />
<polyline points="164.0,227.0,156.0,227.5,147.5,227.5,139.5,228.5" stroke="black" stroke-width="2" fill="none" />
<polyline points="147.5,226.0,155.5,219.0" stroke="black" stroke-width="2" fill="none" />
<polyline points="158.5,223.0,173.5,218.0,179.5,219.0,190.0,224.0,190.0,224.0,192.5,217.0,192.0,228.0,200.0,229.5,208.0,230.0,222.0,224.0,230.0,210.0" stroke="black" stroke-width="2" fill="none" />
<polyline points="236.0,213.0,228.0,221.0" stroke="black" stroke-width="2" fill="none" />
<polyline points="235.5,218.5,228.0,219.5,220.0,220.0,212.0,221.0,204.0,221.5,196.0,222.0,188.0,222.5" stroke="black" stroke-width="2" fill="none" />
<polyline points="195.0,225.0,202.5,224.0,211.0,224.0,219.0,223.5" stroke="black" stroke-width="2" fill="none" />
<polyline points="219.0,218.5,227.0,207.5" stroke="black" stroke-width="2" fill="none" />
<polyline points="220.0,205.0,212.5,212.0,204.5,219.0,196.5,226.0" stroke="black" stroke-width="2" fill="none" />
<polyline points="196.0,228.5,204.0,228.5,212.0,228.5,220.0,228.0,227.5,227.5,235.5,227.0,243.5,227.0,252.0,227.0,260.0,226.5,268.5,226.5,276.0,226.0,284.5,225.0" stroke="black" stroke-width="2" fill="none" />
<polyline points="268.5,217.5,260.5,218.0" stroke="black" stroke-width="2" fill="none" />
<polyline points="257.5,210.0,250.5,218.5" stroke="black" stroke-width="2" fill="none" />
<polyline points="249.5,214.5,258.0,214.0,266.5,213.5,275.0,213.0" stroke="black" stroke-width="2" fill="none" />
<polyline points="274.0,205.0,265.5,205.5,257.0,206.0,249.0,206.5" stroke="black" stroke-width="2" fill="none" />
<polyline points="246.0,203.0,246.0,211.0,245.0,218.5,237.0,226.5,234.0,235.0,242.5,235.0,250.0,236.0,258.0,237.5,266.0,237.5,271.0,229.5" stroke="black" stroke-width="2" fill="none" />
<polyline points="252.5,211.0,260.5,203.5" stroke="black" stroke-width="2" fill="none" />
<polyline points="268.5,202.0,276.5,202.0,285.0,200.0" stroke="black" stroke-width="2" fill="none" />
<polyline points="292.0,196.5,300.0,196.0,307.5,196.0,315.5,195.0,323.0,194.0" stroke="black" stroke-width="2" fill="none" />
<polyline points="323.5,171.5,331.5,164.5" stroke="black" stroke-width="2" fill="none" />
<polyline points="330.5,167.0,322.5,167.5,314.0,168.0,306.5,168.0,298.0,169.0,290.5,169.5,282.5,170.5,274.5,171.0,267.0,172.0,259.0,172.5,250.0,173.5,241.5,174.5,233.5,175.0,225.0,176.0" stroke="black" stroke-width="2" fill="none" />
<polyline points="227.5,173.0,235.0,173.5,240.5,178.5,248.5,178.5" stroke="black" stroke-width="2" fill="none" />
<polyline points="250.5,177.0,258.5,176.5,267.0,176.5,275.5,175.5" stroke="black" stroke-width="2" fill="none" />
<polyline points="274.5,170.5,273.5,180.5,278.0,188.5,270.0,196.0,270.5,205.5,269.5,213.0,271.5,221.0,271.5,228.5,271.0,236.5" stroke="black" stroke-width="2" fill="none" />
<polyline points="264.5,257.5,256.0,257.0,248.0,255.0,240.0,251.0,232.0,246.0" stroke="black" stroke-width="2" fill="none" />
<polyline points="227.0,244.0,219.0,251.5,211.0,258.5" stroke="black" stroke-width="2" fill="none" />
<polyline points="217.5,257.5,225.5,250.0" stroke="black" stroke-width="2" fill="none" />
<polyline points="228.0,257.0,237.0,256.5,245.5,256.5" stroke="black" stroke-width="2" fill="none" />
<polyline points="245.0,250.5,237.0,257.5" stroke="black" stroke-width="2" fill="none" />
<polyline points="237.0,252.5,229.0,260.0" stroke="black" stroke-width="2" fill="none" />
<polyline points="221.0,237.5,213.0,245.0,205.5,253.0" stroke="black" stroke-width="2" fill="none" />
<polyline points="223.0,233.5,228.0,224.5" stroke="black" stroke-width="2" fill="none" />
<polyline points="233.0,229.5,241.0,223.5,249.5,211.0,258.0,205.0,265.0,203.5,279.5,206.5" stroke="black" stroke-width="2" fill="none" />
<polyline points="289.5,186.0,297.0,178.5" stroke="black" stroke-width="2" fill="none" />
<polyline points="290.5,178.5,298.5,171.0" stroke="black" stroke-width="2" fill="none" />
<polyline points="291.0,173.0,283.0,181.0" stroke="black" stroke-width="2" fill="none" />
<polyline points="291.0,186.0,299.0,185.5" stroke="black" stroke-width="2" fill="none" />
<polyline points="299.0,190.0,307.0,189.5,315.0,188.5,323.0,187.5" stroke="black" stroke-width="2" fill="none" />
<polyline points="316.5,172.0,324.5,165.0,332.5,158.0" stroke="black" stroke-width="2" fill="none" />
<polyline points="331.5,155.5,323.5,156.0,315.5,156.0,307.5,156.0,299.5,156.5" stroke="black" stroke-width="2" fill="none" />
<polyline points="300.0,149.0,308.0,148.0,316.0,147.5,324.0,147.0,332.0,147.0,340.0,147.0" stroke="black" stroke-width="2" fill="none" />
<polyline points="347.5,147.5,356.0,140.0" stroke="black" stroke-width="2" fill="none" />
<polyline points="363.0,138.5,371.0,130.5,379.0,122.5" stroke="black" stroke-width="2" fill="none" />
<polyline points="372.5,118.0,380.0,117.0,387.5,116.5,395.5,115.5,403.5,114.5,412.0,114.0,419.5,114.0,427.0,115.0,435.0,115.0,443.5,115.0,451.5,114.5,460.0,113.5,467.5,113.0,475.5,112.0,483.5,111.0,491.5,110.5,500.0,109.5,509.0,108.0,517.5,107.5" stroke="black" stroke-width="2" fill="none" />
<polyline points="517.0,132.0,509.0,132.5,500.5,133.5,492.0,135.0,484.0,135.0,476.5,135.5,468.5,136.5,460.0,137.5,452.0,138.0,444.0,138.5,436.5,138.5,428.5,138.5,420.5,139.0,413.0,139.0,405.0,139.5,396.5,140.0,388.0,140.0,380.0,140.0,371.5,140.5" stroke="black" stroke-width="2" fill="none" />
<polyline points="370.0,138.5,378.5,130.5" stroke="black" stroke-width="2" fill="none" />
<polyline points="363.5,129.0,371.5,121.0,379.5,113.5,387.5,106.0" stroke="black" stroke-width="2" fill="none" />
<polyline points="381.5,106.5,390.0,99.0" stroke="black" stroke-width="2" fill="none" />
<polyline points="388.5,90.5,380.5,98.0" stroke="black" stroke-width="2" fill="none" />
<polyline points="373.5,100.0,382.0,100.0,389.5,99.5,397.0,99.0,405.0,98.5,413.0,98.0,420.5,97.5,428.5,97.0,436.0,96.5,443.5,96.0,451.5,96.0,459.5,95.0,468.0,95.0,475.5,95.0,483.5,95.0,492.0,95.0,500.0,95.0,507.5,94.5,515.5,94.0" stroke="black" stroke-width="2" fill="none" />
<polyline points="516.5,102.0,508.5,102.5,500.0,102.5,492.0,103.0,484.0,103.5,476.0,104.0,468.0,104.0,460.0,105.0,452.0,105.5,444.0,106.0,436.0,106.0,428.0,106.0,419.5,106.0,411.5,106.5,404.0,107.0,396.0,107.5,388.0,108.5,380.0,109.0,372.0,109.5" stroke="black" stroke-width="2" fill="none" />
<polyline points="371.0,98.0,379.0,90.0,387.0,83.0" stroke="black" stroke-width="2" fill="none" />
<polyline points="381.0,84.5,373.0,92.0" stroke="black" stroke-width="2" fill="none" />
<polyline points="367.5,96.5,375.5,100.5" stroke="black" stroke-width="2" fill="none" />
<polyline points="365.5,89.0,357.5,89.5" stroke="black" stroke-width="2" fill="none" />
<polyline points="362.0,85.5,370.0,83.5" stroke="black" stroke-width="2" fill="none" />
<polyline points="373.0,82.5,381.5,74.5" stroke="black" stroke-width="2" fill="none" />
<polyline points="372.0,77.5,382.0,85.0,384.5,92.0,380.5,100.0,378.5,108.5,377.5,116.0,376.5,124.0,375.5,131.5,373.5,139.0,375.5,138.5,369.5,145.0,368.5,156.5,366.0,163.5,367.0,169.0,373.0,173.5,378.5,180.0,387.0,183.0,387.0,186.5" stroke="black" stroke-width="2" fill="none" />
<polyline points="394.0,164.0,402.0,148.5,409.5,128.5,414.5,112.5,412.5,120.5,409.5,128.0,407.0,136.5,404.0,144.5,400.5,152.5,396.0,160.5,394.0,168.5,400.5,167.5,402.5,164.5,411.0,148.5,414.0,125.0,419.0,115.5" stroke="black" stroke-width="2" fill="none" />
<polyline points="410.0,108.5,409.0,108.5,401.0,107.5,393.5,108.5" stroke="black" stroke-width="2" fill="none" />
<polyline points="359.0,102.5,357.0,96.0,361.0,86.0,365.5,87.0" stroke="black" stroke-width="2" fill="none" />
<polyline points="371.5,76.5,363.5,83.5,356.0,91.0,348.5,98.0" stroke="black" stroke-width="2" fill="none" />
<polyline points="349.5,92.5,357.5,93.0,366.5,99.0,369.0,106.5,369.0,115.0,364.0,123.0,368.5,116.0" stroke="black" stroke-width="2" fill="none" />
<polyline points="356.0,124.0,348.0,131.5" stroke="black" stroke-width="2" fill="none" />
<polyline points="348.5,132.5,356.5,132.0,364.0,130.5,371.5,130.0,379.0,129.5,386.5,129.0,394.5,129.0,403.0,128.5,411.0,128.5,419.5,128.0,427.5,127.5,435.5,127.5,443.5,126.5,451.5,126.0,459.5,126.0,468.0,126.0,475.5,126.0,483.5,125.5,491.5,125.0,499.5,124.5,507.5,124.0,516.0,123.5" stroke="black" stroke-width="2" fill="none" />
<polyline points="357.0,132.0,349.0,139.5" stroke="black" stroke-width="2" fill="none" />
<polyline points="348.5,140.5,356.5,140.0,364.0,139.5" stroke="black" stroke-width="2" fill="none" />
<polyline points="354.0,147.0,346.0,155.0" stroke="black" stroke-width="2" fill="none" />
<polyline points="348.0,147.5,355.5,147.5,363.5,147.0" stroke="black" stroke-width="2" fill="none" />
<polyline points="356.0,145.5,348.0,146.5" stroke="black" stroke-width="2" fill="none" />
<polyline points="339.0,141.5,331.0,142.0" stroke="black" stroke-width="2" fill="none" />
<polyline points="331.0,133.0,339.0,133.0" stroke="black" stroke-width="2" fill="none" />
<polyline points="341.5,131.5,341.5,139.5,341.0,147.5,344.0,155.5,342.5,163.5,337.0,172.0,334.0,179.5,331.0,187.5,327.5,195.5,325.5,197.5,337.0,187.5" stroke="black" stroke-width="2" fill="none" />
<polyline points="340.0,173.5,348.5,172.5,357.0,172.0,365.5,171.5,373.0,171.0,381.0,171.0,388.5,170.5,396.0,170.0,404.0,169.5,412.0,168.0,420.5,167.5,428.0,167.5,435.5,168.0,443.5,168.0,451.5,168.0,459.5,167.5,467.5,167.0,475.0,166.5,482.5,166.0,490.5,165.5,498.5,165.0,506.5,164.5,515.5,163.0" stroke="black" stroke-width="2" fill="none" />
<polyline points="514.0,154.0,507.0,154.5,498.5,155.5,490.0,156.5,482.0,157.0,474.5,157.0,466.5,157.5,458.5,157.5,450.0,158.0,441.5,158.0,433.0,158.5,425.0,159.0,417.5,159.0,409.5,159.5,401.5,160.5,393.0,161.5,385.0,162.5,377.0,162.5,369.5,162.5,362.0,162.5,354.0,162.5,346.5,163.0" stroke="black" stroke-width="2" fill="none" />
<polyline points="341.0,172.5,345.0,180.5,336.0,191.5,333.0,195.0" stroke="black" stroke-width="2" fill="none" />
<polyline points="344.0,208.5,352.0,206.5,360.0,206.5" stroke="black" stroke-width="2" fill="none" />
<polyline points="324.0,177.0,315.5,177.5,307.5,178.0,299.0,178.5,291.0,179.0,282.5,179.0,275.0,179.5,267.0,180.0,259.5,181.0,252.0,181.5" stroke="black" stroke-width="2" fill="none" />
<polyline points="260.0,185.5,267.5,178.0,275.5,170.0,283.5,163.0" stroke="black" stroke-width="2" fill="none" />
<polyline points="276.5,163.0,268.5,170.5,260.0,177.5,252.0,185.5" stroke="black" stroke-width="2" fill="none" />
<polyline points="251.0,191.5,259.0,195.5,267.0,198.0,274.5,194.0,280.5,193.0,284.5,195.0,292.0,195.0" stroke="black" stroke-width="2" fill="none" />
<polyline points="269.0,186.5,277.0,179.0,285.0,172.0,293.0,164.5" stroke="black" stroke-width="2" fill="none" />
<polyline points="290.0,167.0,290.0,172.0,299.0,180.0,303.0,194.0,309.0,207.0,317.0,223.0,320.5,229.0" stroke="black" stroke-width="2" fill="none" />
<polyline points="275.5,196.5,267.0,197.0,259.0,197.5,251.0,197.5" stroke="black" stroke-width="2" fill="none" />
<polyline points="260.0,187.0,268.5,186.0,276.5,185.5" stroke="black" stroke-width="2" fill="none" />
<polyline points="267.0,163.5,259.0,171.5,251.0,179.0" stroke="black" stroke-width="2" fill="none" />
<polyline points="253.0,173.0,261.0,166.0" stroke="black" stroke-width="2" fill="none" />
<polyline points="263.5,170.0,256.0,169.0" stroke="black" stroke-width="2" fill="none" />
<polyline points="256.0,168.5,265.0,167.5,275.5,166.5,283.0,169.5,293.0,171.5" stroke="black" stroke-width="2" fill="none" />
<polyline points="307.5,171.5,316.0,164.5" stroke="black" stroke-width="2" fill="none" />
<polyline points="316.0,169.0,324.0,168.5" stroke="black" stroke-width="2" fill="none" />
<polyline points="328.5,168.0,323.5,176.0,320.0,185.5,326.0,173.5,330.5,158.5" stroke="black" stroke-width="2" fill="none" />
<polyline points="315.0,156.0,307.5,164.0" stroke="black" stroke-width="2" fill="none" />
<polyline points="310.5,173.0,318.0,171.0,321.0,165.0" stroke="black" stroke-width="2" fill="none" />
<polyline points="331.5,159.0,323.5,159.5,315.0,159.5,307.0,160.0,299.0,160.0,290.5,160.5,282.0,161.0,273.5,161.5,266.0,162.0,258.5,162.0,251.0,162.5,243.5,163.0,235.5,163.5,227.5,164.0,220.0,165.0,212.0,165.5,203.5,166.0,195.5,166.5" stroke="black" stroke-width="2" fill="none" />
<polyline points="195.0,170.5,203.0,170.0" stroke="black" stroke-width="2" fill="none" />
<polyline points="203.5,166.0,211.5,166.0" stroke="black" stroke-width="2" fill="none" />
<polyline points="212.5,164.5,204.0,172.0,195.5,180.0" stroke="black" stroke-width="2" fill="none" />
<polyline points="196.0,179.0,204.5,178.5" stroke="black" stroke-width="2" fill="none" />
<polyline points="211.0,172.5,203.5,179.5,195.5,186.0" stroke="black" stroke-width="2" fill="none" />
<polyline points="195.5,185.5,203.5,185.0,211.0,185.0" stroke="black" stroke-width="2" fill="none" />
<polyline points="210.5,189.0,202.5,196.5" stroke="black" stroke-width="2" fill="none" />
<polyline points="202.0,194.5,210.0,194.0" stroke="black" stroke-width="2" fill="none" />
<polyline points="218.5,197.0,210.5,204.5" stroke="black" stroke-width="2" fill="none" />
<polyline points="204.0,204.5,212.0,197.0,220.0,189.5" stroke="black" stroke-width="2" fill="none" />
<polyline points="226.5,190.5,234.5,189.5,243.0,189.0,251.5,188.0,260.0,188.0,268.5,187.0" stroke="black" stroke-width="2" fill="none" />
<polyline points="243.0,182.0,235.0,182.5,227.0,183.0" stroke="black" stroke-width="2" fill="none" />
<polyline points="225.5,170.5,233.0,170.0" stroke="black" stroke-width="2" fill="none" />
<polyline points="227.0,170.0,235.0,162.5" stroke="black" stroke-width="2" fill="none" />
<polyline points="237.0,165.5,232.0,157.5" stroke="black" stroke-width="2" fill="none" />
<polyline points="234.5,155.0,226.5,162.0" stroke="black" stroke-width="2" fill="none" />
<polyline points="229.0,162.0,237.5,171.5" stroke="black" stroke-width="2" fill="none" />
<polyline points="251.5,160.0,259.5,159.5,267.0,159.0,274.5,158.5,282.0,158.0,289.0,157.5" stroke="black" stroke-width="2" fill="none" />
<polyline points="282.0,149.0,274.0,149.0,266.5,149.0,259.0,149.0" stroke="black" stroke-width="2" fill="none" />
<polyline points="259.0,142.0,266.5,141.0,275.0,140.0,283.0,139.5" stroke="black" stroke-width="2" fill="none" />
<polyline points="301.5,143.0,309.5,142.5,317.5,142.0,325.5,141.0" stroke="black" stroke-width="2" fill="none" />
<polyline points="316.5,133.0,309.0,134.0,301.5,135.0" stroke="black" stroke-width="2" fill="none" />
<polyline points="299.0,125.5,307.5,125.5,315.5,124.0" stroke="black" stroke-width="2" fill="none" />
<polyline points="316.5,116.5,308.5,116.5,300.5,117.0" stroke="black" stroke-width="2" fill="none" />
<polyline points="300.5,109.5,308.0,109.5,316.0,109.0" stroke="black" stroke-width="2" fill="none" />
<polyline points="331.0,109.5,339.5,108.5,347.5,108.5,356.0,108.0" stroke="black" stroke-width="2" fill="none" />
<polyline points="356.0,116.0,348.0,116.5,339.5,116.5,331.5,116.5" stroke="black" stroke-width="2" fill="none" />
<polyline points="332.0,126.5,340.0,126.0,348.0,125.5,356.0,125.0,364.5,124.0,373.0,123.5,381.0,123.0,388.5,123.0,396.5,122.0,404.5,121.0,412.0,120.5,420.5,120.0,428.5,119.0,437.0,118.5,445.0,118.5,452.5,118.5,460.5,118.0,468.5,118.0,476.5,117.5,484.5,117.5,493.0,117.0,500.5,116.5,508.5,115.5,516.0,115.0" stroke="black" stroke-width="2" fill="none" />
<polyline points="363.0,74.0,355.0,82.0,347.5,89.0" stroke="black" stroke-width="2" fill="none" />
<polyline points="347.5,82.0,356.0,74.0" stroke="black" stroke-width="2" fill="none" />
<polyline points="356.0,80.0,347.5,81.0" stroke="black" stroke-width="2" fill="none" />
<polyline points="348.0,75.5,340.0,83.0" stroke="black" stroke-width="2" fill="none" />
<polyline points="338.0,88.0,346.0,84.5,338.5,91.0,340.0,102.0,336.0,110.0,340.0,111.0,340.0,123.0" stroke="black" stroke-width="2" fill="none" />
<polyline points="347.5,122.5,350.5,131.5,362.5,130.5,367.5,137.0" stroke="black" stroke-width="2" fill="none" />
<polyline points="348.5,133.5,353.0,141.5,352.0,147.5,359.0,152.5,359.0,165.5,359.0,173.0,361.5,181.0,360.5,189.0,351.5,192.5,356.0,195.5,364.0,190.0" stroke="black" stroke-width="2" fill="none" />
<polyline points="394.0,221.0,386.0,225.5,378.0,227.0,370.0,228.0,362.0,228.5,354.0,228.5,345.5,229.0,342.0,225.5,336.0,230.5,328.0,230.0,322.5,223.0,316.5,218.5,318.0,212.0,312.5,204.0,306.5,201.0,308.0,193.0,305.0,185.0,305.5,177.0,305.5,169.5,318.0,168.5,325.5,164.5,324.5,156.5,332.0,149.0,335.5,141.0,334.5,133.0,334.5,125.0,334.0,117.0,332.5,108.5,332.5,100.5,331.0,93.0,333.5,85.0,338.0,77.0,349.0,71.5,340.5,75.5,332.5,81.5" stroke="black" stroke-width="2" fill="none" />
<polyline points="332.0,77.0,340.0,77.0,348.0,76.5,356.0,76.5,364.0,76.0,372.5,75.5,380.0,75.0,387.5,74.5,395.5,74.0,404.0,73.5,412.0,72.5,420.5,72.0,428.5,72.0,436.5,72.0,444.5,71.5,452.0,71.0,461.0,69.5,469.5,68.5,477.0,67.5,484.5,66.5,492.5,65.5,500.5,65.0,509.0,64.5,516.5,64.5" stroke="black" stroke-width="2" fill="none" />
<polyline points="365.5,51.0,358.0,58.5" stroke="black" stroke-width="2" fill="none" />
<polyline points="363.5,58.5,356.0,66.0" stroke="black" stroke-width="2" fill="none" />
<polyline points="360.5,69.0,368.5,74.0,376.5,78.5,384.5,88.5,391.5,97.5,399.5,97.0,407.5,98.5,415.5,99.0,423.0,102.0" stroke="black" stroke-width="2" fill="none" />
<polyline points="354.5,100.5,347.0,101.5,339.5,102.0,331.5,102.5" stroke="black" stroke-width="2" fill="none" />
<polyline points="332.0,95.0,340.0,94.5,348.0,94.0,356.0,93.5,364.0,92.0,371.5,90.5,379.0,90.0,386.5,90.0,393.5,90.0,401.0,89.5,409.0,89.5,417.0,89.0,425.0,88.0,433.5,87.0,442.0,86.0,451.0,85.5,459.0,85.0,467.5,84.5,476.5,84.0,485.5,83.5,494.0,83.0,501.5,82.5,508.5,81.5,516.0,81.0" stroke="black" stroke-width="2" fill="none" />
<polyline points="517.5,73.0,509.0,73.0,501.0,73.0,493.0,73.0,484.5,74.0,476.0,75.0,467.5,75.5,459.5,76.5,451.0,77.5,442.5,78.5,434.0,79.5,426.0,80.5,417.0,81.5,409.0,82.5,401.5,82.5,394.0,83.0,386.5,83.5,379.0,84.5,371.0,85.5,364.0,86.0,356.5,86.0,349.0,86.0,341.5,86.5,333.5,87.0" stroke="black" stroke-width="2" fill="none" />
<polyline points="315.0,69.0,323.0,68.5,331.0,68.0,339.0,68.0,346.5,67.5,354.5,67.0,363.0,66.0,372.0,65.5,380.5,65.0,389.0,65.0,397.0,64.5,405.5,64.0,413.5,63.0,421.5,62.0,430.0,61.0,438.0,60.5,446.0,60.0,453.0,60.0,460.5,59.5,468.0,59.5,476.0,59.0,484.5,58.5,492.5,58.5,500.5,58.5,508.0,58.5,515.5,58.5" stroke="black" stroke-width="2" fill="none" />
<polyline points="517.0,50.0,509.0,50.0,501.0,50.5,493.0,50.5,485.0,51.0,477.0,50.5,469.0,50.0,461.5,50.5,453.5,51.0,446.0,52.0,437.5,52.5,429.0,53.0,421.0,54.0,412.5,54.0,404.5,54.5,397.0,55.5,389.0,56.0,381.0,56.5,373.5,57.0,365.0,57.0,357.0,57.0,349.0,57.0,341.5,57.0,333.5,58.0,325.0,58.5,316.5,59.0,308.0,60.0,299.5,61.0,291.5,61.5" stroke="black" stroke-width="2" fill="none" />
<polyline points="299.5,84.0,291.5,84.5,284.0,85.0" stroke="black" stroke-width="2" fill="none" />
<polyline points="280.5,88.0,288.5,96.0,294.5,104.0,298.0,111.5,299.5,119.0,301.5,126.5,302.5,134.5,303.5,142.5,303.5,150.5,304.5,158.5,304.0,166.5,303.5,174.5,303.5,190.0,296.0,192.5,298.0,201.5,303.0,210.0,308.0,218.0,308.5,226.0,296.5,225.5,299.5,232.5,294.0,237.0,293.5,245.5,281.5,251.5,289.5,256.0,292.5,258.0,300.0,256.0,308.5,250.5" stroke="black" stroke-width="2" fill="none" />
<polyline points="264.5,256.0,255.0,247.5,246.5,239.5" stroke="black" stroke-width="2" fill="none" />
<polyline points="204.0,225.0,212.0,216.5,219.5,208.5,227.5,201.0,235.0,193.5" stroke="black" stroke-width="2" fill="none" />
<polyline points="213.0,181.0,204.5,188.5,196.5,195.5" stroke="black" stroke-width="2" fill="none" />
<polyline points="188.0,196.5,180.0,204.0" stroke="black" stroke-width="2" fill="none" />
<polyline points="186.5,207.0,194.5,206.5,203.0,206.0,211.5,205.5,219.5,205.0,228.0,204.5,235.5,204.0" stroke="black" stroke-width="2" fill="none" />
<polyline points="205.0,209.0,197.0,217.0" stroke="black" stroke-width="2" fill="none" />
<polyline points="203.5,217.5,211.5,217.0,219.0,216.5" stroke="black" stroke-width="2" fill="none" />
<polyline points="233.5,211.5,225.5,212.0,217.5,213.0,210.0,213.5,202.0,213.5,194.5,214.0,187.0,214.5" stroke="black" stroke-width="2" fill="none" />
<polyline points="177.0,202.0,168.5,198.0" stroke="black" stroke-width="2" fill="none" />
<polyline points="171.0,201.0,180.0,209.0,186.0,207.0" stroke="black" stroke-width="2" fill="none" />
<polyline points="173.5,197.0,181.0,197.0,189.0,196.0,197.0,195.5,205.0,195.5,212.5,195.0,220.0,194.5,228.0,193.5,236.0,193.0,243.5,192.0" stroke="black" stroke-width="2" fill="none" />
<polyline points="220.0,188.5,212.5,189.0,204.5,189.0,196.5,189.5,189.0,190.0" stroke="black" stroke-width="2" fill="none" />
<polyline points="188.0,181.5,195.5,180.5,203.0,180.0,211.5,179.5,220.0,179.5" stroke="black" stroke-width="2" fill="none" />
<polyline points="223.5,178.5,217.5,171.0" stroke="black" stroke-width="2" fill="none" />
<polyline points="212.0,158.0,204.0,165.5,195.5,173.5" stroke="black" stroke-width="2" fill="none" />
<polyline points="195.0,175.0,203.0,174.5,211.0,174.0" stroke="black" stroke-width="2" fill="none" />
<polyline points="210.0,161.5,202.0,161.5" stroke="black" stroke-width="2" fill="none" />
<polyline points="205.5,154.5,214.0,147.0" stroke="black" stroke-width="2" fill="none" />
<polyline points="212.5,151.5,208.0,154.0" stroke="black" stroke-width="2" fill="none" />
<polyline points="220.0,155.5,227.5,148.0" stroke="black" stroke-width="2" fill="none" />
<polyline points="227.0,146.5,227.5,154.5,230.5,162.5,236.5,170.5,238.5,183.0,232.5,195.0,235.0,198.0,226.0,208.0,220.0,216.0,218.5,224.0,222.5,232.0,218.5,239.0,217.5,244.5" stroke="black" stroke-width="2" fill="none" />
<polyline points="163.0,236.0,155.0,236.0,146.5,236.5" stroke="black" stroke-width="2" fill="none" />
<polyline points="156.0,228.0,164.0,220.5" stroke="black" stroke-width="2" fill="none" />
<polyline points="164.5,216.5,156.5,217.0,148.0,217.0,140.5,217.5,132.5,218.5,124.5,219.5,116.0,221.0,108.0,221.5,100.5,222.5" stroke="black" stroke-width="2" fill="none" />
<polyline points="99.5,225.0,107.5,217.0,115.5,209.5,123.5,202.5,131.5,194.5" stroke="black" stroke-width="2" fill="none" />
<polyline points="125.5,187.0,117.5,194.5" stroke="black" stroke-width="2" fill="none" />
<polyline points="117.0,187.5,125.5,180.0" stroke="black" stroke-width="2" fill="none" />
<polyline points="132.5,187.0,124.5,187.5,116.0,188.0,108.0,189.0" stroke="black" stroke-width="2" fill="none" />
<polyline points="109.0,180.0,117.5,179.5,125.5,179.5,133.5,179.5,141.5,179.0,149.5,178.5" stroke="black" stroke-width="2" fill="none" />
<polyline points="148.5,186.0,140.5,186.5" stroke="black" stroke-width="2" fill="none" />
<polyline points="145.5,190.0,153.5,204.0" stroke="black" stroke-width="2" fill="none" />
<polyline points="156.5,211.0,148.5,218.5" stroke="black" stroke-width="2" fill="none" />
<polyline points="139.0,218.5,131.0,226.0" stroke="black" stroke-width="2" fill="none" />
<polyline points="121.5,225.0,129.0,217.5,137.0,210.0" stroke="black" stroke-width="2" fill="none" />
<polyline points="137.5,202.0,129.5,209.5,122.0,217.0,114.5,225.0" stroke="black" stroke-width="2" fill="none" />
<polyline points="107.0,226.0,115.0,219.0,123.0,211.5,130.5,204.5" stroke="black" stroke-width="2" fill="none" />
<polyline points="129.0,210.0,121.0,210.5" stroke="black" stroke-width="2" fill="none" />
<polyline points="116.5,202.5,108.0,210.5,99.5,219.0" stroke="black" stroke-width="2" fill="none" />
<polyline points="99.5,218.0,108.0,217.5,116.5,217.0,124.5,216.5,133.0,216.0" stroke="black" stroke-width="2" fill="none" />
<polyline points="142.0,195.5,150.5,188.5" stroke="black" stroke-width="2" fill="none" />
<polyline points="141.0,178.5,142.0,188.0,144.0,192.0,147.0,200.0,144.0,211.0,149.5,213.5,156.5,212.5" stroke="black" stroke-width="2" fill="none" />
<polyline points="164.5,209.5,157.0,209.0,149.0,209.5,141.5,209.5,133.5,210.0,125.5,210.5,117.0,211.0,108.0,212.0,100.0,212.5" stroke="black" stroke-width="2" fill="none" />
<polyline points="100.0,210.0,108.0,202.0" stroke="black" stroke-width="2" fill="none" />
<polyline points="101.0,204.5,108.5,204.0,116.0,203.5,124.0,203.5,132.0,203.0,140.5,203.0,148.5,202.5,157.0,202.0,165.0,201.0" stroke="black" stroke-width="2" fill="none" />
<polyline points="165.0,193.0,157.0,194.0,149.0,195.0,140.5,196.0,131.5,196.0,123.0,196.5,114.5,196.5,106.5,197.0,99.0,198.0" stroke="black" stroke-width="2" fill="none" />
<polyline points="96.5,217.0,106.0,203.0,101.0,211.5,105.0,216.5" stroke="black" stroke-width="2" fill="none" />
<polyline points="106.5,225.0,115.0,225.0,123.5,224.5,131.5,224.5" stroke="black" stroke-width="2" fill="none" />
<polyline points="131.0,236.0,123.0,237.0" stroke="black" stroke-width="2" fill="none" />
<polyline points="131.5,228.0,123.5,228.5,115.5,229.0,107.5,229.5" stroke="black" stroke-width="2" fill="none" />
<polyline points="111.0,232.0,115.0,240.0,128.5,248.0,131.5,247.0,139.5,245.0,141.0,239.0" stroke="black" stroke-width="2" fill="none" />
<polyline points="148.0,251.5,140.5,252.0,132.5,252.5,124.5,253.0,116.5,253.5" stroke="black" stroke-width="2" fill="none" />
<polyline points="133.5,257.5,142.0,256.5,150.0,254.5" stroke="black" stroke-width="2" fill="none" />
<polyline points="158.0,259.5,150.0,260.5,142.5,260.5,134.5,260.5" stroke="black" stroke-width="2" fill="none" />
<polyline points="130.0,233.0,124.0,233.0,119.5,239.0,128.0,231.0,129.5,221.0,135.5,212.5,131.0,206.0,133.0,194.0,131.0,180.5,133.5,172.5,135.0,164.5,136.0,156.5,130.0,151.0,122.0,154.0" stroke="black" stroke-width="2" fill="none" />
<polyline points="125.5,154.0,133.5,146.5" stroke="black" stroke-width="2" fill="none" />
<polyline points="139.5,154.0,148.0,146.0" stroke="black" stroke-width="2" fill="none" />
<polyline points="154.0,141.0,162.0,141.0" stroke="black" stroke-width="2" fill="none" />
<polyline points="156.5,132.0,148.5,133.0" stroke="black" stroke-width="2" fill="none" />
<polyline points="150.0,137.0,142.5,128.0" stroke="black" stroke-width="2" fill="none" />
<polyline points="144.5,128.0,149.5,136.0,154.5,143.0,162.5,152.5,170.5,152.5" stroke="black" stroke-width="2" fill="none" />
<polyline points="174.5,158.5,182.5,157.5,190.0,157.0" stroke="black" stroke-width="2" fill="none" />
<polyline points="188.0,157.0,180.0,164.5" stroke="black" stroke-width="2" fill="none" />
<polyline points="178.5,172.0,171.0,172.5,163.0,173.0" stroke="black" stroke-width="2" fill="none" />
<polyline points="164.5,165.0,172.0,165.0,180.0,164.5,188.0,164.5" stroke="black" stroke-width="2" fill="none" />
<polyline points="194.5,157.0,202.5,156.5,210.5,156.5,218.5,155.5,226.0,155.0,233.5,155.0" stroke="black" stroke-width="2" fill="none" />
<polyline points="229.0,150.0,237.0,167.5,245.0,166.5,253.5,162.5" stroke="black" stroke-width="2" fill="none" />
<polyline points="276.5,158.5,285.0,163.0,293.0,167.0,301.0,174.0" stroke="black" stroke-width="2" fill="none" />
<polyline points="315.5,153.0,323.5,155.5,332.0,144.5,334.0,143.5" stroke="black" stroke-width="2" fill="none" />
<polyline points="308.5,99.5,301.0,100.0,293.0,100.0" stroke="black" stroke-width="2" fill="none" />
<polyline points="291.0,100.0,299.0,92.5" stroke="black" stroke-width="2" fill="none" />
<polyline points="306.5,92.0,298.0,93.0,290.5,93.5,282.5,94.5" stroke="black" stroke-width="2" fill="none" />
<polyline points="284.0,91.5,292.0,94.5,297.0,101.5,301.0,106.5,306.5,112.0,304.5,121.0,307.5,128.0,308.5,133.0,309.5,141.0,313.5,152.0,312.5,159.0,311.5,170.5,317.5,177.5,320.5,190.5,320.5,194.0,324.5,204.0,335.5,212.0,331.5,217.5,339.5,219.5,350.5,213.0,354.5,211.0,362.5,214.0,366.5,218.0" stroke="black" stroke-width="2" fill="none" />
<polyline points="273.5,128.0,266.0,128.5,258.0,129.0,250.5,129.5,242.5,130.0,234.5,130.5,227.0,131.0,219.5,131.5,211.0,132.5" stroke="black" stroke-width="2" fill="none" />
<polyline points="210.0,129.0,207.0,137.0,205.5,151.0,208.5,159.0,212.5,166.0,202.5,173.5,210.0,174.5,213.0,183.5,218.5,191.5,218.5,198.0,213.5,206.0,211.5,208.0,223.5,203.0,232.5,194.5,241.0,196.5,249.0,188.5,257.0,189.0,265.0,189.0,273.0,190.0,278.0,179.0,286.5,180.0,293.0,188.5" stroke="black" stroke-width="2" fill="none" />
<polyline points="261.5,137.0,260.5,145.0,258.5,153.5,255.5,161.5,242.5,171.0,231.5,182.5,216.5,185.5,225.0,181.5" stroke="black" stroke-width="2" fill="none" />
<polyline points="235.0,147.0,227.5,147.5,219.5,147.5,212.0,147.5,204.5,148.0,197.0,148.0,189.0,148.0,180.5,148.5" stroke="black" stroke-width="2" fill="none" />
<polyline points="186.5,149.5,185.5,157.5,182.0,165.0,176.5,173.0,166.5,180.0,175.0,175.0" stroke="black" stroke-width="2" fill="none" />
<polyline points="173.0,180.5,165.0,181.0" stroke="black" stroke-width="2" fill="none" />
<polyline points="164.5,189.5,172.5,189.0" stroke="black" stroke-width="2" fill="none" />
<polyline points="168.5,208.5,176.0,210.5" stroke="black" stroke-width="2" fill="none" />
<polyline points="168.5,219.0,174.5,212.5,170.5,216.5,171.0,224.5,176.0,225.5" stroke="black" stroke-width="2" fill="none" />
<polyline points="162.5,224.5,155.5,224.0,160.5,232.0,158.5,239.5,157.5,241.5,168.5,241.5,176.0,241.0,183.5,239.0" stroke="black" stroke-width="2" fill="none" />
<polyline points="149.5,172.5,141.5,173.0" stroke="black" stroke-width="2" fill="none" />
<polyline points="143.0,164.5,146.0,159.5,152.0,166.5,152.5,174.5,153.5,182.5,155.5,191.0,157.0,199.0,156.0,207.0,155.0,210.5,150.5,219.5" stroke="black" stroke-width="2" fill="none" />
<polyline points="133.0,228.0,125.0,229.0,117.0,230.0,109.0,228.0,101.5,228.0" stroke="black" stroke-width="2" fill="none" />
<polyline points="94.0,228.5,93.5,236.5,96.5,244.0,102.0,252.5,104.0,257.5" stroke="black" stroke-width="2" fill="none" />
<polyline points="96.0,241.0,104.0,249.0,112.0,252.0,119.5,252.0,127.5,250.5" stroke="black" stroke-width="2" fill="none" />
<polyline points="108.0,171.5,100.0,156.5" stroke="black" stroke-width="2" fill="none" />
<polyline points="100.0,149.0,92.5,149.0" stroke="black" stroke-width="2" fill="none" />
<polyline points="90.0,149.5,98.0,146.5,105.5,146.0,113.5,145.0,121.5,145.5,129.5,145.5,137.0,146.0,145.0,150.5" stroke="black" stroke-width="2" fill="none" />
<polyline points="149.5,155.0,141.5,163.0" stroke="black" stroke-width="2" fill="none" />
<polyline points="141.5,163.5,149.5,163.0" stroke="black" stroke-width="2" fill="none" />
<polyline points="157.5,164.0,158.0,172.0,164.0,169.0" stroke="black" stroke-width="2" fill="none" />
<polyline points="165.0,161.0,167.0,169.0,156.0,170.5,157.5,179.5,161.5,188.0,166.5,195.5,179.0,196.5,184.5,185.0,192.0,189.0,200.0,188.0" stroke="black" stroke-width="2" fill="none" />
<polyline points="223.5,190.0,214.0,196.0,206.0,199.5,201.0,204.5,196.5,210.5,194.0,209.5,201.0,207.5,191.5,199.5,184.5,197.0,181.5,191.0,187.5,184.5,189.5,177.0,190.5,169.5,193.5,161.5,192.5,153.5" stroke="black" stroke-width="2" fill="none" />
<polyline points="197.0,143.5,200.5,133.5" stroke="black" stroke-width="2" fill="none" />
<polyline points="202.5,133.0,194.5,133.0" stroke="black" stroke-width="2" fill="none" />
<polyline points="188.5,125.0,188.5,118.0,193.5,126.0,199.5,126.0,207.0,126.0" stroke="black" stroke-width="2" fill="none" />
<polyline points="204.0,124.0,213.0,116.5,221.5,109.0" stroke="black" stroke-width="2" fill="none" />
<polyline points="219.5,114.0,227.0,122.0,230.5,128.5,219.0,133.5,218.5,141.0" stroke="black" stroke-width="2" fill="none" />
<polyline points="224.5,138.0,233.0,130.0" stroke="black" stroke-width="2" fill="none" />
<polyline points="226.0,130.0,235.0,122.5" stroke="black" stroke-width="2" fill="none" />
<polyline points="228.0,118.0,220.0,125.0" stroke="black" stroke-width="2" fill="none" />
<polyline points="213.5,123.5,221.0,127.0,232.0,136.5,241.0,130.0,247.5,135.0" stroke="black" stroke-width="2" fill="none" />
<polyline points="211.5,121.5,204.0,122.5" stroke="black" stroke-width="2" fill="none" />
<polyline points="209.5,120.5,217.5,118.5" stroke="black" stroke-width="2" fill="none" />
<polyline points="204.5,113.5,196.5,121.0" stroke="black" stroke-width="2" fill="none" />
<polyline points="197.0,114.0,205.5,106.0" stroke="black" stroke-width="2" fill="none" />
<polyline points="203.5,104.0,211.5,103.5" stroke="black" stroke-width="2" fill="none" />
<polyline points="207.0,102.0,215.0,107.0,222.5,112.5,230.5,120.5,236.0,128.5,244.0,126.5,252.0,126.5,260.0,126.0,268.0,128.0" stroke="black" stroke-width="2" fill="none" />
<polyline points="234.5,140.0,226.5,139.5,219.0,140.0,211.5,140.0,204.0,139.5,196.5,139.5,189.0,140.5,181.0,140.5" stroke="black" stroke-width="2" fill="none" />
<polyline points="181.0,126.5,189.0,126.0,197.0,125.0,205.0,124.5,212.0,124.0,219.5,123.5,227.0,123.5,234.0,123.0,241.5,122.5,249.0,122.0,257.5,121.5,265.0,121.0,273.5,121.0" stroke="black" stroke-width="2" fill="none" />
<polyline points="296.5,108.5,298.5,104.5,290.0,96.5" stroke="black" stroke-width="2" fill="none" />
<polyline points="303.5,98.0,295.0,87.0,286.5,89.0,278.5,88.5" stroke="black" stroke-width="2" fill="none" />
<polyline points="258.5,54.0,266.5,53.5,274.5,53.0,282.5,52.0,291.0,51.5,299.5,50.5,308.0,50.0,316.0,49.5,324.0,49.0,331.5,48.0,339.5,47.5,347.5,47.5,356.0,47.5,364.0,47.0,371.5,46.0,380.0,45.5,388.0,45.0,396.5,44.0,405.0,43.0,414.0,42.0,422.0,41.5,430.5,41.5,438.0,41.0,445.5,41.0,452.5,40.5,460.5,40.0,468.0,40.5,475.5,40.5,483.5,40.0,491.5,39.5,499.0,39.5,507.5,38.5,515.5,37.0" stroke="black" stroke-width="2" fill="none" />
<polyline points="516.5,29.5,508.5,30.5,500.0,31.5,492.0,32.0,484.0,32.5,476.5,32.5,468.5,32.5,460.5,33.0,453.0,33.0,445.0,33.5,436.5,34.0,428.0,34.0,420.0,34.0,411.5,34.5,404.0,35.0,395.5,35.0,387.5,35.5,379.5,36.0,371.0,37.0,363.0,37.5,355.0,38.5,347.0,39.5,339.0,40.5,331.0,41.0,323.0,41.5,314.5,41.5,306.5,41.5,298.0,42.5,290.5,43.5,282.5,44.0,274.5,45.0,266.5,45.0,258.5,45.5,250.0,46.0" stroke="black" stroke-width="2" fill="none" />
<polyline points="236.5,38.5,244.5,38.0,253.0,38.0,261.5,37.5,269.5,37.5,277.5,37.0,285.5,36.0,293.5,35.5,301.5,34.5,309.5,34.0,317.5,34.0,325.0,33.0,332.5,32.0,340.0,31.5,348.0,31.0,355.5,30.5,364.0,30.0,372.5,29.0,380.5,28.0,388.5,27.5,396.0,27.0,404.5,26.5,413.0,25.5,421.5,25.0,429.5,25.0,437.5,25.0,445.0,24.5,452.0,24.0,460.0,23.0,468.5,22.5,476.5,22.0,484.5,21.5,492.0,20.5,500.0,20.0,508.0,19.0,516.0,19.0" stroke="black" stroke-width="2" fill="none" />
<polyline points="515.5,10.0,507.5,10.5,499.0,11.0,490.5,12.0,482.0,12.0,473.5,12.5,465.5,13.0,457.5,13.5,449.0,14.5,441.0,15.5,433.5,16.5,426.0,16.5,418.0,17.0,411.0,17.0,403.5,17.0,395.5,17.5,388.0,17.5,380.0,18.5,372.0,20.0,363.5,20.5,355.0,21.0,346.5,21.0,338.5,21.5,330.5,22.5,322.0,23.0,314.0,23.5,306.0,24.5,298.0,24.5,290.5,25.0,282.0,26.0,273.5,26.5,265.5,27.5,257.5,28.0,250.0,28.5,242.5,29.0,235.0,30.0,227.5,30.5" stroke="black" stroke-width="2" fill="none" />
<polyline points="211.0,22.0,219.0,21.5,227.0,20.5,235.0,19.5,243.5,19.0,252.0,18.0,259.5,18.0,267.5,17.5,275.5,17.0,284.0,16.0,292.0,15.5,300.0,15.0,307.5,15.0,315.5,14.0,323.0,13.0,331.0,12.5,339.0,12.0,347.0,12.0,355.5,11.5,364.0,11.5,372.5,10.5,380.5,10.0,388.0,9.5,396.0,9.0,404.0,8.5,412.5,7.5,420.0,7.5,428.0,7.5,435.5,7.5,443.5,8.0,450.5,7.5,459.0,6.5,467.0,6.0,475.0,5.0,482.5,4.0,490.0,3.5,498.5,3.0,507.0,2.5,515.0,2.5" stroke="black" stroke-width="2" fill="none" />
<polyline points="517.5,-7.0,509.5,-7.0,502.0,-6.5,493.5,-6.0,485.0,-5.5,476.5,-4.5,468.0,-3.5,460.5,-3.0,452.0,-2.0,444.5,-1.5,436.5,-1.0,428.5,-0.5,420.0,0.0,411.5,0.5,403.5,1.0,395.5,1.5,388.0,2.0,380.0,2.0,372.0,2.0,364.5,2.5,356.5,2.5,348.5,3.0,340.5,3.5,332.5,3.5,324.5,4.5,316.5,5.5,308.5,6.0,300.0,7.0,291.5,7.0,283.0,8.0,274.5,8.5,266.5,9.5,258.5,10.0,250.5,10.0,243.0,10.0,235.5,10.0,227.5,10.5,219.5,10.5,211.5,11.0,203.5,11.5,196.0,12.0,188.0,12.0" stroke="black" stroke-width="2" fill="none" />
<polyline points="164.0,4.5,172.5,4.0,180.5,4.5,188.0,4.0,196.0,4.0,204.0,3.5,212.0,3.5,220.0,3.5,228.0,3.5,235.5,3.5,243.5,3.0,251.5,2.5,260.0,1.5,268.0,0.5,275.0,-0.5,283.0,-1.5,291.0,-2.0,299.0,-2.5,307.0,-3.0,315.0,-3.0,322.5,-3.5,330.5,-4.5,338.0,-5.0,346.5,-6.0,355.0,-7.0,363.5,-8.0,372.0,-8.5,380.0,-8.5,388.5,-9.0,396.5,-9.5,404.0,-9.5,412.5,-10.5,421.0,-11.0,429.5,-11.5,437.0,-12.0,445.0,-12.0,452.5,-12.5,460.0,-13.0,468.0,-13.5,476.0,-15.0,484.5,-15.5,492.0,-15.5,499.5,-15.0,507.5,-15.0,515.5,-15.0" stroke="black" stroke-width="2" fill="none" />
<polyline points="360.5,58.5,360.5,51.0,352.5,51.0" stroke="black" stroke-width="2" fill="none" />
<polyline points="355.0,48.5,352.0,56.5,352.0,64.5,359.0,71.5,354.0,77.0" stroke="black" stroke-width="2" fill="none" />
<polyline points="210.0,93.0,201.5,93.0,193.5,93.5" stroke="black" stroke-width="2" fill="none" />
<polyline points="196.0,86.5,204.0,87.5,207.5,96.5,204.5,108.5,198.0,117.5,192.0,123.5,184.0,117.5,191.5,110.5" stroke="black" stroke-width="2" fill="none" />
<polyline points="187.5,108.0,195.5,107.5,203.0,107.0,211.0,106.5,219.5,106.0,228.0,106.0" stroke="black" stroke-width="2" fill="none" />
<polyline points="212.0,85.0,204.5,85.5,196.0,85.5" stroke="black" stroke-width="2" fill="none" />
<polyline points="198.0,86.0,196.5,94.0,197.5,101.5,194.5,109.0,184.5,116.5,181.5,124.5,182.5,132.5,183.5,140.5,182.5,148.5,180.0,156.5,178.0,169.5" stroke="black" stroke-width="2" fill="none" />
<polyline points="163.5,155.5,155.5,156.0,147.5,157.0,139.5,157.0" stroke="black" stroke-width="2" fill="none" />
<polyline points="129.0,168.0,127.5,176.0,124.5,189.0" stroke="black" stroke-width="2" fill="none" />
<polyline points="127.5,175.5,119.5,180.5,117.5,171.5,116.5,164.0" stroke="black" stroke-width="2" fill="none" />
<polyline points="110.0,153.5,111.5,161.5,111.5,169.5,112.0,177.5,109.0,190.5,117.5,190.5,125.5,188.5,132.5,180.5" stroke="black" stroke-width="2" fill="none" />
<polyline points="109.0,148.5,117.0,148.0,125.0,148.0,132.5,147.5,140.0,147.0,148.0,146.5,156.0,146.0,164.0,145.5" stroke="black" stroke-width="2" fill="none" />
<polyline points="154.5,125.0,146.5,126.0,138.5,127.0" stroke="black" stroke-width="2" fill="none" />
<polyline points="140.5,116.5,132.5,117.0" stroke="black" stroke-width="2" fill="none" />
<polyline points="129.5,118.5,137.5,126.5,144.5,134.5,146.5,142.5,149.0,143.0,153.0,149.0,155.5,161.0" stroke="black" stroke-width="2" fill="none" />
<polyline points="139.0,141.0,130.5,141.0,122.5,141.5" stroke="black" stroke-width="2" fill="none" />
<polyline points="128.0,119.5,136.0,119.5,143.5,120.5,151.5,129.0" stroke="black" stroke-width="2" fill="none" />
<polyline points="181.5,117.5,189.5,117.0,197.5,117.0,205.0,116.5,213.0,116.5,220.5,116.0,228.5,115.5,236.5,115.0" stroke="black" stroke-width="2" fill="none" />
<polyline points="95.5,147.5,95.5,155.0,99.5,163.0,103.5,171.5,106.0,179.5,105.5,187.5,103.0,195.5,99.0,203.0,97.0,211.0,93.0,219.0,96.5,227.0,102.0,235.0" stroke="black" stroke-width="2" fill="none" />
<polyline points="12.0,100.0,4.0,100.5" stroke="black" stroke-width="2" fill="none" />
<polyline points="3.0,92.5,11.0,92.0" stroke="black" stroke-width="2" fill="none" />
<polyline points="17.5,83.5,9.0,84.0,1.0,84.5" stroke="black" stroke-width="2" fill="none" />
<polyline points="3.5,77.5,11.5,76.5,18.5,76.0" stroke="black" stroke-width="2" fill="none" />
<polyline points="28.0,69.0,20.0,69.5,12.0,70.5,4.5,71.0" stroke="black" stroke-width="2" fill="none" />
<polyline points="4.0,60.5,12.0,60.0,20.0,59.5,28.0,59.5,35.5,59.0,43.0,58.5" stroke="black" stroke-width="2" fill="none" />
<polyline points="42.0,49.5,35.0,50.0,27.0,51.0,19.0,52.0,10.0,52.5,2.0,53.0" stroke="black" stroke-width="2" fill="none" />
<polyline points="3.5,45.0,11.5,44.5,19.5,43.5,27.5,43.0,35.0,42.5,43.0,42.5" stroke="black" stroke-width="2" fill="none" />
<polyline points="44.0,34.0,36.5,35.5,29.0,36.5,21.5,37.5,14.0,38.5,6.0,38.5" stroke="black" stroke-width="2" fill="none" />
<polyline points="4.5,30.5,12.5,30.0,20.0,29.0,28.0,28.0,36.5,27.0,44.5,26.0,52.5,25.5" stroke="black" stroke-width="2" fill="none" />
<polyline points="52.0,18.0,44.0,19.0,36.0,20.0,28.0,20.0,20.0,20.5,13.0,21.0,5.0,22.0" stroke="black" stroke-width="2" fill="none" />
<polyline points="3.5,14.5,11.5,13.5,19.5,13.0,27.5,12.5,35.0,11.5,42.5,11.0,51.5,10.5,60.0,10.0,68.5,9.0" stroke="black" stroke-width="2" fill="none" />
<polyline points="77.5,-1.0,69.5,-0.5,61.0,0.5,51.5,1.5,42.5,2.0,34.5,2.5,26.5,3.5,18.5,3.5,10.0,3.5,2.0,4.5" stroke="black" stroke-width="2" fill="none" />
<polyline points="2.5,3.0,10.5,3.0,18.5,3.0,26.5,3.5,34.0,3.5,42.0,3.5,50.0,4.0,58.0,4.0,66.0,4.0,74.0,4.0,82.5,4.0,90.0,3.5,97.5,3.5,105.5,3.5,113.5,3.5,121.5,3.0,130.0,3.0,138.0,3.0,146.5,3.0,154.0,3.0,162.0,2.5,170.0,2.5,178.0,2.5,186.5,2.5,195.0,3.0,203.0,3.0,211.0,3.0,219.0,2.5,227.0,2.5,235.0,2.0,243.0,2.0,251.0,2.0,259.0,2.0,266.5,2.5,274.5,2.5,282.5,3.0,290.5,3.0,299.0,3.0,307.0,3.5,315.0,3.5,323.5,3.5,331.0,3.5,339.0,3.5,347.0,3.5,354.5,4.0,362.5,4.0,370.5,4.0,378.5,4.0,387.0,4.0,394.5,4.0,402.5,4.0,410.5,3.5,419.0,3.5,427.0,3.0,434.5,3.0,442.5,3.0,450.5,3.0,458.5,3.0,466.0,3.0,474.0,3.0,482.0,3.5,490.0,3.5,498.5,3.5,506.5,3.0,513.5,4.5,514.0,12.5,514.0,20.5,514.0,29.0,514.0,37.0,514.0,45.0,514.0,53.0,514.0,61.0,514.0,69.0,513.5,77.0,513.5,85.0,513.0,93.0,513.0,101.5,512.5,109.5,512.5,117.5,512.5,125.5,512.5,133.5,513.0,141.5,512.5,149.0,512.5,157.5,512.0,165.5,512.0,174.0,512.0,182.0,512.5,190.0,512.5,198.0,512.5,206.0,512.5,214.0,512.5,222.0,512.5,230.5,512.5,238.5,512.5,246.5,512.5,254.0,512.5,262.0,513.0,269.5,513.0,277.5,513.5,285.5,513.5,294.0,513.0,302.0,512.5,310.0,512.5,317.5,512.5,325.5,513.0,333.5,512.5,341.0" stroke="black" stroke-width="2" fill="none" />
</svg>