<svg xmlns="http://www.w3.org/2000/svg" version="1.1"><path d="M281.0,89.5,292.0,97.5,296.0,105.5,299.0,114.0,300.5,122.0,304.5,131.0,305.0,139.0,305.0,147.0,305.5,155.5,311.5,161.5,314.5,163.0,321.5,159.5,329.5,148.0,334.5,135.5" stroke="black" stroke-width="2" fill="none" />
<path d="M332.5,133.0,340.5,132.0" stroke="black" stroke-width="2" fill="none" />
<path d="M337.5,137.0,336.5,145.0,334.5,153.0,333.0,161.5,330.0,169.5,324.5,178.0,318.5,178.0,320.5,187.0" stroke="black" stroke-width="2" fill="none" />
<path d="M324.0,186.0,316.0,193.5,307.5,201.0,299.5,208.5" stroke="black" stroke-width="2" fill="none" />
<path d="M297.5,204.5,289.5,212.5" stroke="black" stroke-width="2" fill="none" />
<path d="M291.0,214.0,299.0,213.5,307.0,213.5,315.5,213.0,324.5,213.0,333.0,212.0,341.0,211.5,349.0,210.5,357.0,209.5,365.0,208.0" stroke="black" stroke-width="2" fill="none" />
<path d="M364.5,202.0,372.5,194.5" stroke="black" stroke-width="2" fill="none" />
<path d="M372.5,186.0,364.0,193.0,355.5,200.5" stroke="black" stroke-width="2" fill="none" />
<path d="M347.5,200.0,355.5,200.0,364.0,200.0" stroke="black" stroke-width="2" fill="none" />
<path d="M356.0,192.0,348.0,192.5" stroke="black" stroke-width="2" fill="none" />
<path d="M338.0,193.0,345.5,185.5,353.5,178.0,361.5,170.0,369.5,162.0,377.5,154.0,385.0,146.5" stroke="black" stroke-width="2" fill="none" />
<path d="M381.0,148.0,373.0,155.5" stroke="black" stroke-width="2" fill="none" />
<path d="M374.0,152.0,381.5,151.0,389.0,150.0,396.5,149.0,404.0,148.5,411.5,147.5,419.5,146.5,427.0,145.0,434.5,144.0,442.5,143.0,450.0,142.5,458.0,142.0,466.5,142.5,474.5,142.5,483.0,142.0,491.0,141.5,499.5,141.5,507.5,141.0,515.5,140.5" stroke="black" stroke-width="2" fill="none" />
<path d="M515.0,137.5,507.0,145.0,499.5,153.0,491.5,161.0,483.5,168.5" stroke="black" stroke-width="2" fill="none" />
<path d="M505.5,187.5,513.5,180.0" stroke="black" stroke-width="2" fill="none" />
<path d="M506.5,176.5,514.5,169.0" stroke="black" stroke-width="2" fill="none" />
<path d="M514.0,162.5,505.5,170.0,497.0,177.5" stroke="black" stroke-width="2" fill="none" />
<path d="M491.0,179.0,498.5,171.5,506.0,163.0,513.5,155.5" stroke="black" stroke-width="2" fill="none" />
<path d="M514.5,146.0,506.0,153.5,498.5,161.5,490.0,169.0,482.0,176.5" stroke="black" stroke-width="2" fill="none" />
<path d="M482.5,161.0,491.0,154.0,499.5,146.5,507.5,139.0,515.5,131.0" stroke="black" stroke-width="2" fill="none" />
<path d="M514.0,123.5,506.5,131.5,498.5,139.0" stroke="black" stroke-width="2" fill="none" />
<path d="M507.5,125.5,515.5,118.0" stroke="black" stroke-width="2" fill="none" />
<path d="M507.5,116.5,515.5,109.0" stroke="black" stroke-width="2" fill="none" />
<path d="M514.5,100.5,507.0,108.0" stroke="black" stroke-width="2" fill="none" />
<path d="M507.0,100.0,515.0,92.0" stroke="black" stroke-width="2" fill="none" />
<path d="M515.0,84.5,507.0,92.0,498.5,99.0" stroke="black" stroke-width="2" fill="none" />
<path d="M498.5,90.5,506.5,83.5,514.0,76.5" stroke="black" stroke-width="2" fill="none" />
<path d="M514.5,68.0,506.5,75.5,498.5,83.0" stroke="black" stroke-width="2" fill="none" />
<path d="M498.0,76.0,505.5,69.0,513.5,61.5" stroke="black" stroke-width="2" fill="none" />
<path d="M513.5,53.5,505.5,61.0,498.0,68.0" stroke="black" stroke-width="2" fill="none" />
<path d="M490.5,65.5,498.5,58.5,506.0,52.0,514.5,44.5" stroke="black" stroke-width="2" fill="none" />
<path d="M516.0,36.0,508.0,43.5,499.5,51.0,491.0,58.0" stroke="black" stroke-width="2" fill="none" />
<path d="M491.5,50.0,499.5,42.5,507.5,35.0,516.0,28.0" stroke="black" stroke-width="2" fill="none" />
<path d="M514.5,20.0,506.5,27.5,499.0,34.5,491.0,41.5,483.0,48.5" stroke="black" stroke-width="2" fill="none" />
<path d="M482.5,40.0,489.5,32.5,497.5,24.5,505.5,17.0,513.5,10.0" stroke="black" stroke-width="2" fill="none" />
<path d="M512.5,4.0,505.0,11.5,498.0,18.5,490.5,25.5,483.0,33.0" stroke="black" stroke-width="2" fill="none" />
<path d="M481.5,26.0,489.5,19.0,497.5,11.5,505.5,4.0" stroke="black" stroke-width="2" fill="none" />
<path d="M500.0,3.5,491.5,11.0,483.5,19.0" stroke="black" stroke-width="2" fill="none" />
<path d="M484.5,10.5,492.5,3.0" stroke="black" stroke-width="2" fill="none" />
<path d="M484.0,4.5,476.0,12.0" stroke="black" stroke-width="2" fill="none" />
<path d="M420.5,98.0,413.0,105.0" stroke="black" stroke-width="2" fill="none" />
<path d="M408.0,103.5,416.0,104.0,424.5,107.0,423.5,115.0,421.0,123.5,418.5,131.5,414.5,139.5,411.5,147.5,407.5,155.5,405.0,163.0,402.0,171.0,400.0,179.0" stroke="black" stroke-width="2" fill="none" />
<path d="M398.0,181.5,389.5,189.0,381.5,196.5" stroke="black" stroke-width="2" fill="none" />
<path d="M386.0,193.5,394.5,193.0" stroke="black" stroke-width="2" fill="none" />
<path d="M396.0,194.0,388.0,201.5,379.5,209.0" stroke="black" stroke-width="2" fill="none" />
<path d="M380.0,202.0,388.0,194.0,395.5,186.5" stroke="black" stroke-width="2" fill="none" />
<path d="M395.5,183.0,387.0,183.5" stroke="black" stroke-width="2" fill="none" />
<path d="M379.5,184.5,388.5,176.5,397.0,168.5,405.0,161.0,412.5,153.0" stroke="black" stroke-width="2" fill="none" />
<path d="M412.5,147.0,405.0,154.0" stroke="black" stroke-width="2" fill="none" />
<path d="M403.5,147.0,411.5,139.0,419.5,131.0" stroke="black" stroke-width="2" fill="none" />
<path d="M411.5,132.0,419.0,124.5,427.0,117.0" stroke="black" stroke-width="2" fill="none" />
<path d="M420.5,114.5,428.5,107.0" stroke="black" stroke-width="2" fill="none" />
<path d="M421.0,106.5,413.0,114.0" stroke="black" stroke-width="2" fill="none" />
<path d="M404.5,106.5,412.0,99.0" stroke="black" stroke-width="2" fill="none" />
<path d="M404.0,100.0,396.0,107.0" stroke="black" stroke-width="2" fill="none" />
<path d="M396.0,107.0,403.5,107.0" stroke="black" stroke-width="2" fill="none" />
<path d="M388.0,99.5,380.0,107.5" stroke="black" stroke-width="2" fill="none" />
<path d="M384.5,107.5,385.5,103.5,387.0,109.5,379.0,117.5,377.0,126.0,378.0,134.0,379.5,142.0,381.0,150.5,377.0,154.5,383.0,155.5,384.0,159.5,387.0,167.5,389.0,175.5,393.5,183.5,397.0,192.0,397.0,200.0,398.5,208.0,396.5,216.0,390.5,224.0,384.0,232.5" stroke="black" stroke-width="2" fill="none" />
<path d="M386.5,224.0,395.0,217.0,403.5,209.0" stroke="black" stroke-width="2" fill="none" />
<path d="M404.5,202.5,396.0,209.5,388.0,217.5,379.5,225.5" stroke="black" stroke-width="2" fill="none" />
<path d="M381.0,220.5,373.0,228.5" stroke="black" stroke-width="2" fill="none" />
<path d="M373.0,221.0,364.5,229.0,356.5,236.5" stroke="black" stroke-width="2" fill="none" />
<path d="M353.0,226.0,361.0,218.5" stroke="black" stroke-width="2" fill="none" />
<path d="M360.5,219.5,368.0,219.5" stroke="black" stroke-width="2" fill="none" />
<path d="M373.0,215.0,381.0,214.5,388.0,214.0,396.0,213.0,404.0,212.0,411.5,211.0,419.5,210.0,427.5,209.0,435.0,208.5,443.5,208.5,451.5,208.0,460.0,207.5,468.0,207.0,476.5,206.5,484.5,205.5,493.0,205.0,501.0,205.0,509.0,204.5,516.5,204.0" stroke="black" stroke-width="2" fill="none" />
<path d="M517.0,194.0,509.0,194.5,501.0,195.0,493.0,195.5,485.5,196.0,477.0,196.0,468.5,197.0,460.5,197.5,452.5,198.0,444.0,198.5" stroke="black" stroke-width="2" fill="none" />
<path d="M412.0,205.5,420.5,205.0,428.5,204.5,436.5,204.0,444.0,203.5,451.5,203.0,459.5,203.0,468.0,203.0,476.0,203.0,484.0,203.0,491.5,202.5,499.5,201.5,507.5,200.0,515.5,199.0" stroke="black" stroke-width="2" fill="none" />
<path d="M514.0,184.0,505.5,185.0,497.5,186.0,490.0,187.0,481.5,187.0,473.0,187.0,465.0,187.5,457.5,188.0,449.5,188.5,442.0,189.0,434.5,189.0,427.0,189.0,419.5,189.5,411.5,190.0" stroke="black" stroke-width="2" fill="none" />
<path d="M397.0,203.5,388.5,211.0" stroke="black" stroke-width="2" fill="none" />
<path d="M391.5,215.0,384.0,213.5,383.0,216.5" stroke="black" stroke-width="2" fill="none" />
<path d="M388.0,203.0,396.0,202.5" stroke="black" stroke-width="2" fill="none" />
<path d="M381.0,179.0,389.0,171.0" stroke="black" stroke-width="2" fill="none" />
<path d="M387.5,177.0,379.0,178.0" stroke="black" stroke-width="2" fill="none" />
<path d="M372.0,177.0,379.5,169.5,387.5,162.0" stroke="black" stroke-width="2" fill="none" />
<path d="M386.5,155.0,378.5,162.0,371.0,169.0" stroke="black" stroke-width="2" fill="none" />
<path d="M372.5,161.5,380.0,161.0" stroke="black" stroke-width="2" fill="none" />
<path d="M381.0,170.5,389.0,170.0" stroke="black" stroke-width="2" fill="none" />
<path d="M398.0,163.0,406.5,148.0,414.0,136.0" stroke="black" stroke-width="2" fill="none" />
<path d="M421.0,126.0,412.5,143.5,404.5,162.5" stroke="black" stroke-width="2" fill="none" />
<path d="M404.5,186.0,396.5,186.0,388.5,186.0,381.0,186.5,372.5,186.5,364.5,186.5,357.0,186.5,348.5,186.5,340.0,187.0,332.0,187.0" stroke="black" stroke-width="2" fill="none" />
<path d="M331.5,193.5,342.0,172.5,346.0,180.5,338.0,192.0,331.5,202.0,325.0,210.0,327.0,218.0,340.0,226.0,348.0,236.0,356.0,236.5,364.0,236.5,372.0,235.0,379.5,234.0,387.5,227.0,395.0,218.5" stroke="black" stroke-width="2" fill="none" />
<path d="M354.0,219.0,346.5,226.5" stroke="black" stroke-width="2" fill="none" />
<path d="M347.5,223.0,355.5,223.0" stroke="black" stroke-width="2" fill="none" />
<path d="M347.0,220.5,339.5,228.0" stroke="black" stroke-width="2" fill="none" />
<path d="M330.5,225.5,338.5,218.5,347.0,211.5" stroke="black" stroke-width="2" fill="none" />
<path d="M341.0,210.0,332.5,217.5,323.5,226.0" stroke="black" stroke-width="2" fill="none" />
<path d="M322.5,220.0,314.5,227.5,306.5,234.5" stroke="black" stroke-width="2" fill="none" />
<path d="M298.5,233.5,306.5,225.5,314.5,217.5,322.5,209.5" stroke="black" stroke-width="2" fill="none" />
<path d="M325.0,202.0,316.5,209.5,308.5,217.5,301.0,226.0,293.0,233.5" stroke="black" stroke-width="2" fill="none" />
<path d="M293.5,231.5,301.0,231.0,309.0,229.5,316.5,228.5,324.0,227.5,331.5,226.5,339.5,226.0,348.0,225.0,356.0,224.5,364.0,224.0,372.0,223.5,380.0,223.0,387.5,222.5" stroke="black" stroke-width="2" fill="none" />
<path d="M403.5,193.0,395.0,194.0,386.5,195.0,378.5,195.5,370.0,196.0,362.0,196.0,354.5,196.0,347.0,196.5,339.0,197.0,331.0,198.0" stroke="black" stroke-width="2" fill="none" />
<path d="M324.0,196.0,315.0,196.5,307.0,196.5,299.0,196.5,291.0,197.0" stroke="black" stroke-width="2" fill="none" />
<path d="M291.0,203.0,299.5,195.5" stroke="black" stroke-width="2" fill="none" />
<path d="M299.0,191.0,300.5,199.0,301.5,206.5,309.5,213.5" stroke="black" stroke-width="2" fill="none" />
<path d="M314.0,215.0,306.0,203.0" stroke="black" stroke-width="2" fill="none" />
<path d="M315.0,203.0,307.0,210.0,299.0,218.0" stroke="black" stroke-width="2" fill="none" />
<path d="M302.5,218.5,293.0,211.5,285.0,209.5,285.5,196.5,277.5,195.0,269.5,194.0" stroke="black" stroke-width="2" fill="none" />
<path d="M267.5,184.5,275.5,177.0,284.0,169.5,292.0,162.0" stroke="black" stroke-width="2" fill="none" />
<path d="M299.5,158.5,307.5,158.0,316.0,157.5,324.0,156.5,332.0,155.5" stroke="black" stroke-width="2" fill="none" />
<path d="M330.5,155.0,323.0,163.0,315.5,171.0" stroke="black" stroke-width="2" fill="none" />
<path d="M316.0,168.5,324.0,168.0" stroke="black" stroke-width="2" fill="none" />
<path d="M323.0,171.0,331.0,163.0" stroke="black" stroke-width="2" fill="none" />
<path d="M332.5,167.5,325.0,168.5,317.0,170.0,309.5,170.5,301.5,171.0,293.5,170.5,285.5,170.5,277.0,171.0,268.5,172.0,260.5,172.0,252.5,172.5,244.5,173.0,237.0,174.0,228.5,175.0" stroke="black" stroke-width="2" fill="none" />
<path d="M228.0,170.0,236.0,162.5" stroke="black" stroke-width="2" fill="none" />
<path d="M231.5,158.0,236.5,166.0,240.5,178.5,241.5,185.5,247.5,193.5,239.5,201.5,234.5,209.5,231.0,217.5,233.0,222.0,232.0,230.0,225.0,234.0,225.0,242.0,232.0,250.5" stroke="black" stroke-width="2" fill="none" />
<path d="M235.5,252.0,227.5,259.5" stroke="black" stroke-width="2" fill="none" />
<path d="M227.0,258.0,235.5,257.5,243.5,256.5" stroke="black" stroke-width="2" fill="none" />
<path d="M243.0,258.0,250.5,250.0" stroke="black" stroke-width="2" fill="none" />
<path d="M243.5,249.5,235.0,257.5" stroke="black" stroke-width="2" fill="none" />
<path d="M243.5,260.0,251.0,260.0,259.0,259.5,267.0,259.5,275.0,259.0,283.5,259.0" stroke="black" stroke-width="2" fill="none" />
<path d="M280.5,249.5,288.5,251.0,296.5,250.0" stroke="black" stroke-width="2" fill="none" />
<path d="M300.5,247.0,293.0,248.0,285.0,249.0,277.5,249.5,269.5,250.0,261.0,250.0,253.0,250.0,244.5,250.0,236.5,250.0,228.0,251.0,219.5,252.0,211.0,253.0,203.5,253.5,195.5,254.5" stroke="black" stroke-width="2" fill="none" />
<path d="M195.5,251.0,203.5,244.5,211.5,237.5" stroke="black" stroke-width="2" fill="none" />
<path d="M221.0,234.5,212.5,242.0,204.5,249.5" stroke="black" stroke-width="2" fill="none" />
<path d="M211.5,251.5,219.5,244.0,228.0,236.5" stroke="black" stroke-width="2" fill="none" />
<path d="M235.0,234.0,243.0,226.5,251.5,218.5,260.0,211.5,268.5,204.0" stroke="black" stroke-width="2" fill="none" />
<path d="M269.0,204.5,269.0,212.5,271.5,220.5,280.5,221.5,282.0,226.0,279.5,232.0,266.5,240.0" stroke="black" stroke-width="2" fill="none" />
<path d="M268.0,236.0,276.0,229.0" stroke="black" stroke-width="2" fill="none" />
<path d="M275.5,220.0,267.5,227.0,259.5,234.0" stroke="black" stroke-width="2" fill="none" />
<path d="M251.5,233.0,259.5,225.0,267.5,217.5,275.5,209.5" stroke="black" stroke-width="2" fill="none" />
<path d="M274.0,210.5,276.0,218.0,274.0,226.5,270.5,229.5,270.5,234.5,280.5,229.5" stroke="black" stroke-width="2" fill="none" />
<path d="M275.5,232.0,267.0,232.0,259.0,232.0,250.5,231.5,242.5,232.0" stroke="black" stroke-width="2" fill="none" />
<path d="M244.0,232.5,252.0,225.0,260.0,217.5,268.0,209.5,276.5,202.0" stroke="black" stroke-width="2" fill="none" />
<path d="M284.0,206.0,292.5,205.5,300.5,205.5,308.0,205.0,315.5,204.5,324.0,204.0,331.5,203.0,339.0,202.5,347.0,201.5,355.5,201.0,364.0,200.0,372.0,200.0,380.0,199.5,388.0,199.5,396.0,199.5,403.5,199.5" stroke="black" stroke-width="2" fill="none" />
<path d="M372.0,182.0,380.0,181.0,388.5,180.0,396.5,179.0,404.5,178.0,412.5,177.5,420.5,177.0,428.5,176.5,436.0,175.5,444.0,175.0,452.0,174.0,460.0,174.0,468.0,174.0,475.5,174.0,483.0,173.5,491.0,173.5,499.0,173.0,507.0,173.0,515.0,172.5" stroke="black" stroke-width="2" fill="none" />
<path d="M515.5,132.0,508.0,132.5,500.0,132.5,491.5,133.0,483.5,133.5,475.0,134.5,467.0,135.0,458.5,135.5,450.5,136.5,442.5,137.0,434.5,137.5,426.0,138.0,418.0,138.5,410.5,139.5,402.5,140.0,394.5,140.5,387.0,141.0,379.5,141.5,372.0,142.0" stroke="black" stroke-width="2" fill="none" />
<path d="M372.5,147.5,380.5,139.5" stroke="black" stroke-width="2" fill="none" />
<path d="M377.5,132.5,369.5,139.5" stroke="black" stroke-width="2" fill="none" />
<path d="M363.5,130.5,371.0,122.5,378.0,114.5,385.5,107.0" stroke="black" stroke-width="2" fill="none" />
<path d="M380.0,99.0,388.0,91.5" stroke="black" stroke-width="2" fill="none" />
<path d="M387.0,85.5,379.0,93.0,371.5,100.5" stroke="black" stroke-width="2" fill="none" />
<path d="M373.5,102.5,381.5,102.0,389.0,101.0,396.5,100.5,404.5,100.5,412.0,99.5,420.0,98.5,428.5,98.0,436.5,97.0,445.0,96.5,453.0,96.0,461.0,95.5,468.5,95.5,476.5,95.0,484.5,95.0,492.5,95.0,500.0,94.5,507.5,94.0,515.0,93.5" stroke="black" stroke-width="2" fill="none" />
<path d="M380.5,84.0,372.5,91.5" stroke="black" stroke-width="2" fill="none" />
<path d="M373.0,84.5,381.0,77.0" stroke="black" stroke-width="2" fill="none" />
<path d="M370.5,74.0,362.5,81.5,355.0,88.5,347.0,96.5" stroke="black" stroke-width="2" fill="none" />
<path d="M346.0,95.5,354.0,93.5,359.0,96.5,367.0,91.0,368.5,84.0" stroke="black" stroke-width="2" fill="none" />
<path d="M364.5,87.5,365.5,90.5,356.5,98.5,360.0,106.0" stroke="black" stroke-width="2" fill="none" />
<path d="M355.5,108.0,347.0,108.5,338.5,109.0,330.5,109.0" stroke="black" stroke-width="2" fill="none" />
<path d="M330.0,101.5,338.0,101.0,345.5,100.0,353.5,100.0" stroke="black" stroke-width="2" fill="none" />
<path d="M358.0,101.0,373.0,99.0,375.5,107.0" stroke="black" stroke-width="2" fill="none" />
<path d="M371.0,109.5,379.0,109.0,387.0,108.5,395.0,107.5,403.5,106.0,411.5,105.5,419.5,105.5,427.0,105.0,435.0,105.0,443.5,105.0,452.0,105.0,459.5,104.5,467.5,104.0,475.0,103.5,483.0,103.0,491.0,102.5,499.0,102.0,507.0,101.0,515.0,101.0" stroke="black" stroke-width="2" fill="none" />
<path d="M379.5,125.5,371.0,133.0,363.0,140.0" stroke="black" stroke-width="2" fill="none" />
<path d="M354.5,141.5,347.0,148.5" stroke="black" stroke-width="2" fill="none" />
<path d="M349.0,148.5,356.5,148.0,364.0,148.0" stroke="black" stroke-width="2" fill="none" />
<path d="M356.0,149.0,347.5,156.0" stroke="black" stroke-width="2" fill="none" />
<path d="M348.5,158.5,356.0,159.0,363.0,154.0" stroke="black" stroke-width="2" fill="none" />
<path d="M363.5,158.0,371.5,157.5,380.0,156.5,388.5,156.0,396.5,155.5,404.5,155.0,413.0,154.5,421.0,154.0,429.0,153.0,437.0,152.5,445.0,152.0,452.5,152.0,461.0,152.0,469.0,152.0,476.5,152.0,484.0,151.5,492.0,150.5,500.0,149.0,508.0,148.5,515.5,147.5" stroke="black" stroke-width="2" fill="none" />
<path d="M515.0,106.5,507.0,107.0,499.0,107.5,490.5,108.0,483.0,109.5,475.0,110.5,467.5,111.5,459.5,112.5,451.5,114.0,443.5,114.0,434.5,114.0,426.5,114.0,418.0,114.0,410.0,114.0,402.0,114.0,394.0,114.5,386.0,115.0,378.5,115.0,370.5,115.5" stroke="black" stroke-width="2" fill="none" />
<path d="M376.5,120.0,384.5,111.0,393.0,108.0,401.0,108.0,409.0,108.5,412.0,110.5,414.0,118.5,410.5,126.5,407.5,134.0,404.5,142.0,400.0,150.0,397.5,158.0,394.0,166.5,395.0,170.5,392.0,178.5,392.5,180.5" stroke="black" stroke-width="2" fill="none" />
<path d="M364.0,178.0,356.0,185.5,347.5,192.5,339.5,199.5,331.5,207.0" stroke="black" stroke-width="2" fill="none" />
<path d="M336.5,213.5,344.5,214.5,352.5,217.5,360.5,218.5,368.0,218.5,377.5,213.5,378.0,224.5,386.0,219.5" stroke="black" stroke-width="2" fill="none" />
<path d="M371.5,190.5,364.0,183.5" stroke="black" stroke-width="2" fill="none" />
<path d="M362.0,186.0,354.0,193.5,346.0,201.0" stroke="black" stroke-width="2" fill="none" />
<path d="M342.0,206.0,350.0,207.0,358.5,207.0,366.5,206.0,374.5,202.0" stroke="black" stroke-width="2" fill="none" />
<path d="M365.0,184.5,357.0,184.5,348.5,184.5,340.0,185.0" stroke="black" stroke-width="2" fill="none" />
<path d="M339.0,186.0,347.0,178.0,355.0,170.0" stroke="black" stroke-width="2" fill="none" />
<path d="M359.5,174.5,367.5,171.5,365.5,178.5,371.0,186.5,379.0,181.0,386.5,183.0" stroke="black" stroke-width="2" fill="none" />
<path d="M364.0,180.5,356.0,180.5,348.0,181.0,340.0,181.0" stroke="black" stroke-width="2" fill="none" />
<path d="M339.5,177.5,347.5,170.0" stroke="black" stroke-width="2" fill="none" />
<path d="M347.5,165.5,355.0,165.0,363.0,164.0,371.0,163.5,379.5,163.0,387.0,163.0,395.0,162.5,403.0,162.5,411.0,163.0,419.0,163.5,426.5,163.0,434.5,162.0,443.0,161.5,451.0,160.5,459.0,159.5,467.0,159.0,474.5,158.5,482.5,158.0,490.0,157.5,497.5,156.5,505.0,156.0,513.0,155.5" stroke="black" stroke-width="2" fill="none" />
<path d="M513.5,124.0,505.5,124.5,497.5,125.0,490.5,125.5,483.0,125.5,475.5,125.5,467.5,125.0,460.0,125.5,452.5,126.0,445.0,126.5,437.5,126.5,429.5,127.0,421.5,127.5,413.5,128.5,405.5,129.5,397.5,131.0,389.5,131.5,381.5,132.0,373.5,132.0,365.0,132.5,357.0,133.0,348.5,133.0" stroke="black" stroke-width="2" fill="none" />
<path d="M349.5,134.0,354.5,145.5,362.5,149.5,370.5,158.5" stroke="black" stroke-width="2" fill="none" />
<path d="M381.5,149.0,389.5,171.0" stroke="black" stroke-width="2" fill="none" />
<path d="M356.5,145.5,348.5,146.5" stroke="black" stroke-width="2" fill="none" />
<path d="M350.5,141.5,358.5,141.0,366.0,141.0" stroke="black" stroke-width="2" fill="none" />
<path d="M355.0,131.5,347.0,138.5" stroke="black" stroke-width="2" fill="none" />
<path d="M341.5,139.0,333.5,140.0" stroke="black" stroke-width="2" fill="none" />
<path d="M333.0,126.0,340.5,125.5,348.5,124.0,356.0,123.0,364.5,122.5,372.0,121.5,380.0,121.5,388.0,121.5,396.0,122.0,404.0,122.0,412.0,122.0,419.5,122.0,428.0,121.5,435.5,121.0,442.5,120.0,450.5,119.5,458.5,119.0,467.0,118.0,475.0,117.5,483.0,117.0,491.0,116.5,499.0,116.0,506.5,115.0,515.0,114.5" stroke="black" stroke-width="2" fill="none" />
<path d="M515.0,161.0,507.5,161.5,499.5,162.0,491.5,163.0,484.0,164.0,476.0,165.0,468.0,166.5,460.0,167.5,451.5,168.0,442.5,168.5,434.0,169.0,425.5,169.0,417.5,169.5,409.5,170.0,401.5,170.5,394.0,171.0,386.0,171.5,378.0,172.0,370.0,172.5,362.0,173.5,354.0,174.0,346.0,174.0,338.0,174.5" stroke="black" stroke-width="2" fill="none" />
<path d="M339.0,170.5,347.0,167.0,355.0,168.0,363.0,163.0,360.0,161.5,367.0,157.5,375.5,172.5" stroke="black" stroke-width="2" fill="none" />
<path d="M369.5,208.0,361.0,209.0,353.5,209.0" stroke="black" stroke-width="2" fill="none" />
<path d="M349.5,225.0,342.5,217.0,334.5,212.5,338.0,204.5,341.0,201.5,338.5,199.5" stroke="black" stroke-width="2" fill="none" />
<path d="M324.5,187.5,316.5,188.5,308.5,189.0,301.0,190.0" stroke="black" stroke-width="2" fill="none" />
<path d="M307.0,195.0,314.0,187.5" stroke="black" stroke-width="2" fill="none" />
<path d="M312.5,195.5,320.5,196.5,326.5,199.0,334.5,196.0" stroke="black" stroke-width="2" fill="none" />
<path d="M323.5,180.0,331.0,167.0" stroke="black" stroke-width="2" fill="none" />
<path d="M315.0,164.0,307.5,171.0" stroke="black" stroke-width="2" fill="none" />
<path d="M311.0,177.0,313.5,185.0" stroke="black" stroke-width="2" fill="none" />
<path d="M312.0,178.0,320.0,180.0,327.5,179.5,324.5,187.5,321.5,195.5,326.0,203.5,329.0,218.0,337.0,221.0,345.0,226.0,354.0,223.0,356.0,226.5,364.0,223.5,371.5,222.0,374.5,217.5,379.5,211.5,387.5,212.0" stroke="black" stroke-width="2" fill="none" />
<path d="M347.0,180.5,346.0,177.0,352.0,174.0,355.0,167.0,351.0,161.0,353.0,153.0,355.0,145.0,361.0,141.0,363.0,131.0,359.5,123.0,371.5,118.0,374.0,110.5,378.0,110.5,384.5,105.5,385.5,92.5,382.0,84.0,368.0,77.0,361.0,72.5,359.0,70.0,354.0,68.0,354.0,61.5,355.0,53.5,352.5,57.5" stroke="black" stroke-width="2" fill="none" />
<path d="M355.5,58.0,363.5,50.5" stroke="black" stroke-width="2" fill="none" />
<path d="M365.0,57.5,357.0,65.0" stroke="black" stroke-width="2" fill="none" />
<path d="M357.0,66.5,359.0,77.0" stroke="black" stroke-width="2" fill="none" />
<path d="M357.0,76.5,349.0,84.0" stroke="black" stroke-width="2" fill="none" />
<path d="M348.0,81.0,356.5,81.0" stroke="black" stroke-width="2" fill="none" />
<path d="M355.5,90.0,363.0,89.5" stroke="black" stroke-width="2" fill="none" />
<path d="M363.0,96.0,371.0,98.0,384.0,99.0,391.5,100.0,399.5,100.0,404.0,103.5,412.0,101.0,420.0,99.5" stroke="black" stroke-width="2" fill="none" />
<path d="M365.0,74.5,357.0,81.5,349.0,88.5" stroke="black" stroke-width="2" fill="none" />
<path d="M348.5,97.5,351.5,104.0,351.0,112.0,353.0,119.5,357.5,127.5,357.0,135.0,360.0,146.5,368.0,154.5,359.0,166.5,359.0,175.5,363.0,183.0,372.0,191.5,367.5,199.5,372.0,197.5,384.0,196.0" stroke="black" stroke-width="2" fill="none" />
<path d="M340.5,148.0,332.5,148.5,324.5,149.0,316.5,149.5,308.0,150.0,299.5,150.0" stroke="black" stroke-width="2" fill="none" />
<path d="M300.0,141.0,307.5,141.0,316.0,140.5,324.5,140.0" stroke="black" stroke-width="2" fill="none" />
<path d="M316.0,156.0,308.0,163.0" stroke="black" stroke-width="2" fill="none" />
<path d="M300.0,171.5,291.5,178.5" stroke="black" stroke-width="2" fill="none" />
<path d="M291.5,185.0,299.5,177.5" stroke="black" stroke-width="2" fill="none" />
<path d="M291.5,171.0,283.5,179.0" stroke="black" stroke-width="2" fill="none" />
<path d="M283.0,178.5,283.5,187.0,281.5,186.0,283.5,190.5,292.0,189.5,300.0,190.0" stroke="black" stroke-width="2" fill="none" />
<path d="M298.5,186.5,291.0,186.5" stroke="black" stroke-width="2" fill="none" />
<path d="M294.5,198.5,286.0,200.5,283.5,207.5,275.5,206.5,275.5,202.5,267.5,201.5,259.5,197.0,252.0,192.0,244.0,190.0" stroke="black" stroke-width="2" fill="none" />
<path d="M245.0,193.0,236.5,193.5,228.5,194.0,220.5,194.5,212.5,194.5,204.5,195.5,197.0,196.0,189.5,197.0,181.5,198.0,173.5,198.5" stroke="black" stroke-width="2" fill="none" />
<path d="M178.0,201.0,186.0,193.5" stroke="black" stroke-width="2" fill="none" />
<path d="M189.5,191.5,197.5,191.5,205.0,190.5,213.0,190.0,220.5,189.0" stroke="black" stroke-width="2" fill="none" />
<path d="M220.0,188.0,211.5,195.5,203.5,203.0" stroke="black" stroke-width="2" fill="none" />
<path d="M201.5,197.0,210.0,190.0" stroke="black" stroke-width="2" fill="none" />
<path d="M211.5,192.5,203.5,193.0" stroke="black" stroke-width="2" fill="none" />
<path d="M198.0,190.0,196.0,198.0,205.5,207.5" stroke="black" stroke-width="2" fill="none" />
<path d="M203.0,210.0,195.0,217.5" stroke="black" stroke-width="2" fill="none" />
<path d="M201.0,217.5,209.5,217.0,217.5,217.0" stroke="black" stroke-width="2" fill="none" />
<path d="M223.0,218.0,230.5,206.0,238.5,202.0,247.0,208.5,250.5,211.5,258.0,206.0" stroke="black" stroke-width="2" fill="none" />
<path d="M259.5,204.0,252.0,211.5" stroke="black" stroke-width="2" fill="none" />
<path d="M250.5,214.0,258.5,213.0,266.5,212.5,275.0,211.5" stroke="black" stroke-width="2" fill="none" />
<path d="M269.0,216.5,261.5,217.0" stroke="black" stroke-width="2" fill="none" />
<path d="M273.5,222.5,265.5,223.0,257.5,223.5,249.5,224.0" stroke="black" stroke-width="2" fill="none" />
<path d="M241.5,222.0,250.0,221.0,258.0,221.0,266.5,220.5,275.5,220.0,284.0,219.5" stroke="black" stroke-width="2" fill="none" />
<path d="M292.5,222.5,300.5,222.0,308.5,221.5,316.5,220.5,325.0,220.0,332.5,219.0,340.5,218.0,348.0,217.0,355.5,216.5,363.5,216.5,371.5,216.5,379.0,216.0,387.0,215.0,395.0,214.5,403.5,214.0,411.0,214.0,419.0,213.5,427.0,213.5,435.0,214.0,443.0,214.5,450.5,214.0,458.5,213.0,467.0,212.5,475.0,211.5,483.0,210.5,491.0,210.0,498.5,209.5,506.5,209.0,514.0,208.5" stroke="black" stroke-width="2" fill="none" />
<path d="M515.0,80.0,507.5,81.0,499.5,82.0,491.5,83.0,483.5,83.0,475.5,83.5,467.5,84.5,459.0,85.0,450.5,86.0,443.0,87.0,435.5,87.5,427.5,87.5,419.5,88.0,411.0,89.0,403.0,89.0,395.5,89.5,387.5,90.0,379.5,90.0,372.0,90.5,363.5,91.0,355.5,92.0,348.0,93.0,340.0,93.5,332.5,94.0" stroke="black" stroke-width="2" fill="none" />
<path d="M340.5,93.0,348.5,100.0,345.0,104.0,344.0,112.0,342.5,119.5,337.5,118.5,340.5,124.5,349.0,122.5,352.0,124.5,359.5,130.0,367.5,133.0,371.0,146.0,372.0,154.0,368.5,162.0,371.5,163.5,373.5,171.5,374.0,183.5,378.5,185.0,380.5,192.5" stroke="black" stroke-width="2" fill="none" />
<path d="M324.5,176.5,316.0,177.5,307.5,178.5,299.5,179.5,291.5,180.0,283.5,181.0,275.5,182.0,267.5,182.5,260.5,183.5,253.0,184.0" stroke="black" stroke-width="2" fill="none" />
<path d="M252.5,185.0,261.0,178.0,269.5,170.5,278.5,163.0" stroke="black" stroke-width="2" fill="none" />
<path d="M283.0,163.5,275.5,171.5,267.5,178.5,259.5,185.5" stroke="black" stroke-width="2" fill="none" />
<path d="M260.5,185.0,268.0,184.5,276.5,184.0" stroke="black" stroke-width="2" fill="none" />
<path d="M280.0,177.5,277.5,185.5,279.5,179.0,288.0,181.0" stroke="black" stroke-width="2" fill="none" />
<path d="M268.0,164.0,259.5,171.5,251.5,179.5" stroke="black" stroke-width="2" fill="none" />
<path d="M252.0,178.0,260.5,177.5,268.5,177.0,277.0,176.5" stroke="black" stroke-width="2" fill="none" />
<path d="M259.5,164.0,251.5,171.5" stroke="black" stroke-width="2" fill="none" />
<path d="M245.5,181.5,237.5,182.0,229.5,182.5" stroke="black" stroke-width="2" fill="none" />
<path d="M228.5,189.5,236.0,189.5,244.0,189.5,252.5,189.5,260.5,189.0,268.5,189.0" stroke="black" stroke-width="2" fill="none" />
<path d="M276.0,196.0,268.0,197.0,259.5,198.0,251.0,198.5" stroke="black" stroke-width="2" fill="none" />
<path d="M258.0,200.0,258.0,208.0,252.5,209.0,243.5,221.0,236.5,229.0,232.5,237.0" stroke="black" stroke-width="2" fill="none" />
<path d="M228.0,234.5,219.5,235.0,211.5,235.0,203.0,235.0,195.0,235.5,187.0,236.0" stroke="black" stroke-width="2" fill="none" />
<path d="M194.0,230.5,202.0,230.0,211.0,229.5,219.5,228.5,227.5,227.5,236.5,226.5,244.0,226.0,252.0,225.0,260.5,225.0,268.5,224.5,276.5,224.0,284.0,223.5" stroke="black" stroke-width="2" fill="none" />
<path d="M284.0,235.5,292.0,240.5,300.0,239.0" stroke="black" stroke-width="2" fill="none" />
<path d="M308.5,225.0,317.5,224.5" stroke="black" stroke-width="2" fill="none" />
<path d="M321.5,219.0,329.5,224.0" stroke="black" stroke-width="2" fill="none" />
<path d="M298.0,209.0,289.5,209.5" stroke="black" stroke-width="2" fill="none" />
<path d="M292.5,214.0,293.5,221.5,296.5,229.0,298.5,232.5,304.5,242.0,310.0,238.0,319.0,228.5,327.0,231.5,336.0,232.5,344.5,233.5,352.5,232.0,361.5,231.5,369.5,231.5" stroke="black" stroke-width="2" fill="none" />
<path d="M381.0,231.0,373.0,230.5,365.5,231.0,357.5,232.0,349.5,231.5,341.0,230.0,333.5,234.0,320.5,230.0,322.5,221.0,320.5,213.5,318.5,205.5,322.0,205.5,327.5,199.5,332.5,191.5,336.5,183.5,339.5,175.5,341.5,167.5,350.0,160.0,348.0,152.0,346.0,144.0,344.5,136.5,342.0,128.5,340.0,117.5,342.0,109.5,342.5,101.5,340.0,91.5,341.5,83.0,343.0,88.0,340.5,95.0" stroke="black" stroke-width="2" fill="none" />
<path d="M333.0,84.5,340.5,84.0,348.5,84.5,356.0,84.5,364.0,84.5,372.5,84.5,380.0,84.0,388.0,84.0,396.5,83.5,405.0,82.5,413.0,81.5,421.0,81.0,429.0,81.0,436.5,80.0,444.5,79.0,452.5,78.5,460.5,77.5,468.5,76.5,476.0,75.0,483.5,74.5,491.0,74.0,499.0,73.5,507.0,73.0,515.5,73.0" stroke="black" stroke-width="2" fill="none" />
<path d="M516.5,65.5,508.0,66.0,500.0,66.5,491.5,67.0,483.5,67.5,475.0,67.5,467.5,68.0,459.5,69.0,451.5,70.0,444.0,71.0,436.0,72.0,428.0,73.0,421.0,73.5,413.0,74.0,405.0,74.5,397.0,75.0,389.0,75.0,381.0,74.5,373.0,74.5,365.5,75.0,357.0,75.5,349.0,76.0,341.0,76.5,333.5,76.5" stroke="black" stroke-width="2" fill="none" />
<path d="M336.0,82.0,344.0,76.0,351.5,73.0,350.0,76.0,339.0,78.0,335.5,86.0,331.5,94.0,332.5,102.0,333.5,110.0,333.5,118.0,332.0,125.5,335.0,130.0,337.0,132.0,332.0,136.0,332.0,143.5,329.0,151.5,322.0,160.0,321.0,163.0,310.0,169.0,310.0,172.5,306.0,177.5,306.0,186.0,308.0,194.0,307.5,202.0,307.0,206.0,311.5,213.0,315.5,220.5,317.5,228.0,317.5,236.0,317.0,236.5,312.0,247.5,307.0,255.5,297.0,260.0,300.0,256.5,308.0,251.5" stroke="black" stroke-width="2" fill="none" />
<path d="M287.5,248.5,279.5,249.5" stroke="black" stroke-width="2" fill="none" />
<path d="M279.5,242.5,287.5,243.5" stroke="black" stroke-width="2" fill="none" />
<path d="M268.0,235.5,260.0,236.0,251.5,236.5" stroke="black" stroke-width="2" fill="none" />
<path d="M251.0,239.0,255.0,246.5,267.0,252.5" stroke="black" stroke-width="2" fill="none" />
<path d="M268.0,253.5,260.0,247.5" stroke="black" stroke-width="2" fill="none" />
<path d="M263.0,252.0,259.5,249.5,254.5,241.5,251.5,240.0" stroke="black" stroke-width="2" fill="none" />
<path d="M236.0,239.0,227.5,240.0,219.5,240.5,211.5,241.0,204.0,241.5,196.0,241.5,188.0,241.5,179.5,242.0,171.0,243.0,163.0,243.0,154.5,243.5,146.5,244.0,138.0,244.5,129.5,245.0" stroke="black" stroke-width="2" fill="none" />
<path d="M132.0,239.5,124.0,240.5" stroke="black" stroke-width="2" fill="none" />
<path d="M125.5,240.0,132.5,248.0,129.5,248.5" stroke="black" stroke-width="2" fill="none" />
<path d="M132.5,252.5,124.5,259.5" stroke="black" stroke-width="2" fill="none" />
<path d="M133.5,262.5,141.0,262.5,149.0,262.5,156.5,262.5,164.5,261.5,170.5,255.5,178.5,256.5,187.0,256.0,195.5,256.0,203.5,257.5,211.5,259.0,219.5,261.5,227.5,262.5,235.5,264.0,243.5,265.0,251.5,266.0,259.5,267.0,267.5,267.0,275.0,267.0,283.5,266.0,291.5,264.0" stroke="black" stroke-width="2" fill="none" />
<path d="M297.0,247.5,296.5,253.0,301.5,245.0,288.5,238.5,291.5,231.5,293.5,223.5,289.0,215.5,285.0,207.0,297.0,195.0,301.5,187.0,299.5,179.0,296.0,177.0,294.5,169.0,287.5,165.0,279.5,162.0,271.5,164.5,265.5,163.5,256.5,160.5,258.0,152.5,260.5,144.5,259.5,136.5,256.0,133.0,248.0,132.5" stroke="black" stroke-width="2" fill="none" />
<path d="M236.5,133.0,228.0,140.0" stroke="black" stroke-width="2" fill="none" />
<path d="M229.0,144.5,237.0,137.5,244.5,138.5,252.5,137.0,260.0,137.0,268.0,138.0,266.0,139.0,264.0,147.0,261.0,154.5,260.0,161.5" stroke="black" stroke-width="2" fill="none" />
<path d="M253.5,157.0,261.5,157.0,269.0,157.0,277.0,156.5,285.0,156.5,292.5,156.0" stroke="black" stroke-width="2" fill="none" />
<path d="M300.0,134.0,308.5,133.5,317.0,133.0" stroke="black" stroke-width="2" fill="none" />
<path d="M314.5,124.5,306.5,125.5,298.5,126.0" stroke="black" stroke-width="2" fill="none" />
<path d="M300.0,118.5,308.0,118.0,316.0,117.5" stroke="black" stroke-width="2" fill="none" />
<path d="M315.5,110.0,308.0,111.0,300.0,111.5" stroke="black" stroke-width="2" fill="none" />
<path d="M291.5,102.0,299.5,101.5,307.5,100.5" stroke="black" stroke-width="2" fill="none" />
<path d="M299.0,91.5,291.0,99.0" stroke="black" stroke-width="2" fill="none" />
<path d="M285.0,95.0,293.0,94.5,300.5,94.0,307.5,93.5" stroke="black" stroke-width="2" fill="none" />
<path d="M301.0,85.0,293.0,86.0,285.5,86.5" stroke="black" stroke-width="2" fill="none" />
<path d="M281.0,90.0,288.5,90.5,296.0,89.5,304.0,101.5,307.0,113.0,309.0,121.0,311.0,129.0,312.0,136.5,313.5,144.0,315.5,151.5,318.5,164.5,331.5,152.5,331.5,156.5,328.0,165.5,321.0,171.0,316.5,172.0,309.0,175.5,309.0,183.5,312.0,191.0,313.5,199.0,308.5,211.5,310.5,218.0" stroke="black" stroke-width="2" fill="none" />
<path d="M295.5,214.5,300.5,222.5,297.0,231.0" stroke="black" stroke-width="2" fill="none" />
<path d="M275.5,204.0,267.5,204.5,259.0,205.5,250.5,206.0" stroke="black" stroke-width="2" fill="none" />
<path d="M235.5,203.0,228.0,210.5,220.0,218.5,212.0,226.5" stroke="black" stroke-width="2" fill="none" />
<path d="M203.5,225.0,211.5,217.5,219.5,210.0,227.0,202.5,234.5,195.5" stroke="black" stroke-width="2" fill="none" />
<path d="M231.5,193.0,228.5,201.0,227.5,206.5,222.0,213.5,219.0,221.0,217.0,229.0" stroke="black" stroke-width="2" fill="none" />
<path d="M219.0,224.5,210.5,225.5,202.5,226.5,194.5,227.0" stroke="black" stroke-width="2" fill="none" />
<path d="M196.0,225.5,204.5,218.0,213.0,210.0,221.0,202.5" stroke="black" stroke-width="2" fill="none" />
<path d="M219.5,194.0,211.5,201.5" stroke="black" stroke-width="2" fill="none" />
<path d="M194.5,195.0,203.0,188.0,211.0,180.5" stroke="black" stroke-width="2" fill="none" />
<path d="M212.0,172.0,204.5,180.0,196.0,187.5" stroke="black" stroke-width="2" fill="none" />
<path d="M193.0,186.0,201.0,185.5,210.0,185.0" stroke="black" stroke-width="2" fill="none" />
<path d="M196.5,177.5,204.5,170.0,213.0,162.5" stroke="black" stroke-width="2" fill="none" />
<path d="M212.5,161.0,204.0,161.0" stroke="black" stroke-width="2" fill="none" />
<path d="M203.5,154.0,211.5,147.0" stroke="black" stroke-width="2" fill="none" />
<path d="M212.5,153.5,204.0,161.0,195.5,168.5" stroke="black" stroke-width="2" fill="none" />
<path d="M194.5,167.5,202.5,166.5" stroke="black" stroke-width="2" fill="none" />
<path d="M199.0,164.0,199.5,156.0,190.5,146.5" stroke="black" stroke-width="2" fill="none" />
<path d="M192.5,144.5,193.5,140.5,201.5,145.0" stroke="black" stroke-width="2" fill="none" />
<path d="M203.5,133.5,195.5,134.0" stroke="black" stroke-width="2" fill="none" />
<path d="M196.5,138.5,188.5,142.0" stroke="black" stroke-width="2" fill="none" />
<path d="M180.5,140.5,189.0,140.5,196.5,140.0,204.0,140.0,212.0,140.0,220.0,139.5,228.0,139.5,236.0,139.5" stroke="black" stroke-width="2" fill="none" />
<path d="M236.5,134.0,236.0,131.5,244.5,130.5,256.5,130.0,264.5,130.0" stroke="black" stroke-width="2" fill="none" />
<path d="M261.0,143.0,268.5,142.0,276.5,141.5,284.0,140.5" stroke="black" stroke-width="2" fill="none" />
<path d="M284.5,148.0,276.5,148.0,268.0,148.5,260.0,148.5" stroke="black" stroke-width="2" fill="none" />
<path d="M272.5,144.0,272.0,146.0,276.0,154.5,269.0,154.5,267.0,162.5,265.0,171.0,272.5,171.5" stroke="black" stroke-width="2" fill="none" />
<path d="M284.5,194.0,280.5,189.0,272.5,190.0,265.0,189.0,257.0,189.0,249.0,189.5,241.0,187.5" stroke="black" stroke-width="2" fill="none" />
<path d="M240.5,180.0,248.5,178.5" stroke="black" stroke-width="2" fill="none" />
<path d="M234.0,170.0,226.0,170.0" stroke="black" stroke-width="2" fill="none" />
<path d="M229.0,163.5,237.0,156.0" stroke="black" stroke-width="2" fill="none" />
<path d="M236.0,155.0,227.5,155.5,219.0,155.5,211.0,155.5,203.0,156.0,195.0,156.0" stroke="black" stroke-width="2" fill="none" />
<path d="M186.5,155.5,178.5,162.5" stroke="black" stroke-width="2" fill="none" />
<path d="M172.5,157.0,180.5,156.5,188.5,156.0" stroke="black" stroke-width="2" fill="none" />
<path d="M181.0,148.5,189.5,148.0,197.5,148.0,205.0,147.5,213.0,146.5,221.0,146.5,228.5,146.0,237.0,146.0" stroke="black" stroke-width="2" fill="none" />
<path d="M225.5,148.5,217.5,156.0" stroke="black" stroke-width="2" fill="none" />
<path d="M228.0,159.5,236.0,172.5" stroke="black" stroke-width="2" fill="none" />
<path d="M219.5,180.0,212.0,181.0,204.5,182.0,196.5,183.0,189.0,183.5" stroke="black" stroke-width="2" fill="none" />
<path d="M191.5,190.5,191.5,190.5" stroke="black" stroke-width="2" fill="none" />
<path d="M194.5,177.0,202.5,176.5" stroke="black" stroke-width="2" fill="none" />
<path d="M194.5,172.5,202.5,172.5,211.0,172.0" stroke="black" stroke-width="2" fill="none" />
<path d="M214.5,169.0,222.5,171.0" stroke="black" stroke-width="2" fill="none" />
<path d="M210.0,166.5,206.5,169.5,203.5,177.0,207.0,177.5,211.0,179.0,217.0,185.0,225.5,180.0,225.5,177.0,228.0,190.0,223.0,198.5,219.0,202.5" stroke="black" stroke-width="2" fill="none" />
<path d="M234.5,211.5,227.5,219.0" stroke="black" stroke-width="2" fill="none" />
<path d="M227.5,223.5,233.0,209.5,227.5,217.5,224.5,225.5,226.0,226.0,228.5,213.5,236.0,208.5,243.0,200.5" stroke="black" stroke-width="2" fill="none" />
<path d="M234.5,219.5,226.5,220.0,218.0,220.5,210.5,220.5,203.0,221.0,195.5,221.5,188.0,222.5" stroke="black" stroke-width="2" fill="none" />
<path d="M187.0,215.0,195.0,214.0,203.0,213.5,210.5,212.5,218.0,211.5,226.5,210.5,234.0,209.5" stroke="black" stroke-width="2" fill="none" />
<path d="M235.0,203.0,227.5,204.0,219.5,205.0,211.5,205.5,204.0,206.5,196.0,207.5,188.0,208.0" stroke="black" stroke-width="2" fill="none" />
<path d="M185.5,225.5,177.5,225.0" stroke="black" stroke-width="2" fill="none" />
<path d="M169.0,218.5,175.0,223.5,179.0,216.5,182.0,216.0,190.5,218.0" stroke="black" stroke-width="2" fill="none" />
<path d="M211.5,210.0,217.0,207.0,214.0,205.0,220.5,199.0,214.0,198.0,218.0,190.0,215.0,182.0,210.0,179.0,212.0,171.0,218.5,162.5,218.5,153.5,220.0,144.0,220.5,136.0,222.5,127.5,219.5,121.5,211.5,120.5" stroke="black" stroke-width="2" fill="none" />
<path d="M211.5,121.5,203.0,122.0" stroke="black" stroke-width="2" fill="none" />
<path d="M204.5,123.0,213.0,115.5,221.5,108.5" stroke="black" stroke-width="2" fill="none" />
<path d="M220.5,113.0,229.5,121.0,232.0,129.0,225.0,135.5,226.0,141.5,223.0,145.5,222.5,153.0,223.5,161.5,227.0,169.5,228.5,175.0,232.5,184.0,237.5,192.0,233.0,199.5,234.0,201.5,227.5,209.0,222.5,217.0,220.5,224.5,222.0,233.0,217.5,238.0,221.5,238.5,226.5,243.5,234.5,250.5,242.5,255.0,251.0,257.0,259.0,258.5,267.5,259.0,275.5,258.5,283.5,258.0,292.0,257.0" stroke="black" stroke-width="2" fill="none" />
<path d="M253.0,214.5,249.0,218.5,241.0,227.0,232.5,230.0" stroke="black" stroke-width="2" fill="none" />
<path d="M227.0,245.0,219.0,252.5,211.5,259.5" stroke="black" stroke-width="2" fill="none" />
<path d="M218.0,259.5,225.5,251.5" stroke="black" stroke-width="2" fill="none" />
<path d="M227.0,248.0,219.5,249.0,211.0,249.5,202.5,250.5,194.5,251.0" stroke="black" stroke-width="2" fill="none" />
<path d="M193.5,249.0,201.5,245.0,209.5,244.5,217.5,244.5" stroke="black" stroke-width="2" fill="none" />
<path d="M194.5,241.0,187.0,249.0" stroke="black" stroke-width="2" fill="none" />
<path d="M163.5,229.0,155.5,235.5" stroke="black" stroke-width="2" fill="none" />
<path d="M148.5,237.5,156.5,237.0,164.0,237.5" stroke="black" stroke-width="2" fill="none" />
<path d="M155.5,227.5,164.0,220.0" stroke="black" stroke-width="2" fill="none" />
<path d="M165.0,217.5,157.5,218.5,149.5,219.5,141.5,220.5,133.5,221.0,125.5,222.0,117.0,222.5,108.5,222.5,100.5,223.5" stroke="black" stroke-width="2" fill="none" />
<path d="M100.0,224.5,108.5,217.0,117.0,209.5,125.5,201.5,133.5,194.0" stroke="black" stroke-width="2" fill="none" />
<path d="M137.5,193.0,138.5,201.0,130.0,204.0,141.0,213.5,136.5,221.0,136.0,216.0,141.5,216.0,139.5,207.5,147.5,204.5" stroke="black" stroke-width="2" fill="none" />
<path d="M138.0,205.5,130.5,212.5,123.0,220.0,115.0,227.5" stroke="black" stroke-width="2" fill="none" />
<path d="M116.0,234.0,123.0,242.0,126.0,245.0,133.5,248.0,141.0,246.5,150.0,246.5,149.5,244.0" stroke="black" stroke-width="2" fill="none" />
<path d="M147.0,252.5,139.0,253.0,130.5,253.0,122.0,253.0,113.5,253.0" stroke="black" stroke-width="2" fill="none" />
<path d="M116.0,237.0,124.0,242.0,132.0,239.5,140.0,237.0" stroke="black" stroke-width="2" fill="none" />
<path d="M137.0,242.5,145.0,241.5" stroke="black" stroke-width="2" fill="none" />
<path d="M141.5,229.0,149.0,229.0,156.5,228.5,164.0,228.0" stroke="black" stroke-width="2" fill="none" />
<path d="M168.0,218.5,175.5,219.0,184.0,222.5,192.0,221.5,200.0,220.5" stroke="black" stroke-width="2" fill="none" />
<path d="M218.5,195.5,214.5,195.0,209.5,209.5,200.5,205.0,197.5,208.0,189.5,203.5,181.5,205.5,174.0,201.5,166.5,201.5" stroke="black" stroke-width="2" fill="none" />
<path d="M163.5,201.5,155.0,201.5,147.0,201.5,138.5,202.0,130.5,202.5,123.0,203.0,115.0,203.5,106.5,203.5,98.5,204.0" stroke="black" stroke-width="2" fill="none" />
<path d="M99.5,198.0,108.0,197.5,115.5,196.5,123.5,196.0,132.0,196.0,140.0,195.5,148.5,195.0,156.5,194.0,165.0,193.5" stroke="black" stroke-width="2" fill="none" />
<path d="M162.0,197.0,175.0,181.0,182.5,170.0" stroke="black" stroke-width="2" fill="none" />
<path d="M194.5,165.0,203.0,164.5,211.5,164.0,220.0,163.0,228.0,162.5,235.5,162.0,243.5,161.5,251.5,161.0,259.0,161.0,266.5,161.0,274.5,161.0,282.5,160.0,290.5,159.5,299.0,158.5,307.0,158.0,315.0,157.0,323.0,157.0,331.0,157.0" stroke="black" stroke-width="2" fill="none" />
<path d="M346.5,131.5,355.0,134.5,363.0,137.5" stroke="black" stroke-width="2" fill="none" />
<path d="M367.5,123.5,359.5,122.5" stroke="black" stroke-width="2" fill="none" />
<path d="M356.5,123.5,349.0,131.0" stroke="black" stroke-width="2" fill="none" />
<path d="M350.5,127.5,359.5,140.5,367.5,141.0" stroke="black" stroke-width="2" fill="none" />
<path d="M355.5,116.5,348.0,116.5,340.0,117.0,332.5,117.0" stroke="black" stroke-width="2" fill="none" />
<path d="M340.0,112.5,349.0,113.5,349.0,121.0,348.0,127.0,347.0,135.0,351.0,136.0,353.5,144.0,356.5,150.0,356.5,155.0,358.5,161.0,366.5,166.0,369.5,175.0,369.0,183.0,375.0,189.0,380.0,200.0,381.0,208.0,371.0,212.0,378.5,209.0,379.5,203.0,392.5,207.5,393.0,210.5" stroke="black" stroke-width="2" fill="none" />
<path d="M413.5,115.5,406.0,136.5,398.0,157.0,392.0,177.5,398.0,176.0,399.0,163.5,402.5,155.5,405.5,147.0,409.0,138.5,414.0,128.5,417.0,120.0,421.0,110.0,419.5,110.0,421.5,103.0,412.5,98.0,404.5,97.0,396.5,96.0,388.5,96.5,383.0,87.5,375.0,77.0,364.5,74.0,361.5,66.5,359.5,57.5,361.0,54.0,355.0,62.0" stroke="black" stroke-width="2" fill="none" />
<path d="M361.5,66.5,362.5,55.0,354.0,50.5" stroke="black" stroke-width="2" fill="none" />
<path d="M348.5,74.0,341.0,81.5" stroke="black" stroke-width="2" fill="none" />
<path d="M316.0,68.0,324.0,67.5,332.0,67.5,340.0,67.5,348.0,67.0,355.5,66.5,364.0,66.0,372.5,65.5,380.5,65.0,388.5,65.0,396.5,64.5,404.0,64.0,412.0,63.5,419.5,63.0,427.5,62.5,436.0,62.0,443.5,61.0,451.0,59.5,458.5,58.0,466.5,57.5,474.5,57.0,483.0,57.0,490.5,57.0,498.5,56.5,506.5,56.0,514.5,56.0" stroke="black" stroke-width="2" fill="none" />
<path d="M517.0,47.0,509.0,47.5,500.5,48.0,492.5,48.5,484.5,49.5,476.5,50.5,468.5,51.5,460.5,52.5,452.5,53.0,444.5,53.5,436.5,53.5,428.5,54.0,421.0,54.5,413.0,55.5,405.0,56.0,397.0,55.5,389.0,55.5,380.5,55.5,372.0,56.0,364.5,56.5,356.5,57.0,348.5,58.0,340.0,59.0,331.5,59.5,323.5,60.0,315.5,61.0,307.0,62.0,299.0,62.5,291.0,63.5" stroke="black" stroke-width="2" fill="none" />
<path d="M291.0,89.5,299.5,95.5" stroke="black" stroke-width="2" fill="none" />
<path d="M292.5,90.5,298.5,98.5,302.5,106.0,304.5,114.0,308.0,122.0,305.0,130.0,302.5,138.0,303.0,145.5,303.5,153.5,304.5,161.5,303.5,169.5,303.5,177.5,304.0,186.0,304.0,194.0,297.0,199.0,302.0,206.5,307.0,214.5,310.0,222.5,311.0,229.5,303.5,238.5,302.5,246.5,295.5,256.0,291.0,253.0" stroke="black" stroke-width="2" fill="none" />
<path d="M274.0,130.0,266.0,130.5,258.0,131.0,250.5,131.5,243.5,131.5,236.0,132.5,228.5,133.0,221.5,133.5,213.5,134.0" stroke="black" stroke-width="2" fill="none" />
<path d="M209.0,130.5,217.0,129.5,211.0,135.5,211.0,143.0" stroke="black" stroke-width="2" fill="none" />
<path d="M220.5,143.0,228.5,153.0,237.0,167.5,245.0,167.5,254.5,163.5" stroke="black" stroke-width="2" fill="none" />
<path d="M225.0,131.5,233.0,124.0" stroke="black" stroke-width="2" fill="none" />
<path d="M226.5,115.0,218.5,122.5" stroke="black" stroke-width="2" fill="none" />
<path d="M221.0,120.5,223.0,127.0,227.0,138.0,228.0,145.5,229.5,153.5,229.5,162.0,235.0,170.0,232.0,178.0,235.5,181.5,239.5,189.5,245.0,191.5,258.0,197.5,266.0,205.0,260.0,210.0,256.0,216.0,259.0,217.0,259.5,211.0" stroke="black" stroke-width="2" fill="none" />
<path d="M274.5,120.5,266.0,121.0,258.0,121.0,250.0,122.0,242.5,122.5,235.0,123.0,226.5,123.0,218.5,123.5,210.5,123.5,202.0,123.5,193.5,123.5,185.5,123.5,177.5,124.0" stroke="black" stroke-width="2" fill="none" />
<path d="M183.0,120.5,191.0,112.5,199.0,108.5,204.5,95.0" stroke="black" stroke-width="2" fill="none" />
<path d="M204.0,100.0,212.0,100.0" stroke="black" stroke-width="2" fill="none" />
<path d="M204.0,105.0,196.0,113.0" stroke="black" stroke-width="2" fill="none" />
<path d="M203.5,115.0,196.0,122.5" stroke="black" stroke-width="2" fill="none" />
<path d="M188.5,128.0,196.5,127.0,205.0,126.5,209.5,130.5,207.5,138.5,208.0,146.5,209.0,154.5,217.0,152.5" stroke="black" stroke-width="2" fill="none" />
<path d="M215.0,148.5,215.0,141.0,215.0,133.5,212.0,124.5" stroke="black" stroke-width="2" fill="none" />
<path d="M203.0,129.5,202.0,137.5,204.5,145.5,198.5,151.5,207.5,154.5,218.0,158.5,218.0,164.0,214.0,172.0,221.5,173.5,224.5,181.5,215.5,185.0,223.5,192.5,228.5,184.0,239.5,186.0,247.5,184.0" stroke="black" stroke-width="2" fill="none" />
<path d="M227.5,108.0,219.5,109.0,211.5,109.5,203.5,110.5,195.5,111.5,187.5,112.0" stroke="black" stroke-width="2" fill="none" />
<path d="M179.5,117.5,187.5,117.0,195.0,117.0,203.0,117.0,211.0,117.0,219.5,116.5,227.5,116.0,236.5,115.5" stroke="black" stroke-width="2" fill="none" />
<path d="M212.0,93.0,204.0,93.5,196.5,93.5" stroke="black" stroke-width="2" fill="none" />
<path d="M198.5,92.0,206.5,91.0,208.0,93.5,208.0,102.5,207.0,105.5,203.5,113.5,211.0,106.0,218.5,109.0,226.5,115.0,233.0,128.0,241.5,128.0,249.0,127.0,257.0,126.5,265.0,126.0,267.5,127.0,271.5,134.5,269.5,142.5,271.5,150.5,264.5,152.5,265.5,154.5,260.5,162.5,260.5,155.5,268.0,152.0,275.0,154.0" stroke="black" stroke-width="2" fill="none" />
<path d="M300.0,177.5,292.0,174.0,291.0,167.5,287.0,170.5,279.0,168.5,277.0,166.0,272.5,169.0,265.0,169.5,257.0,169.5,249.5,171.0,240.0,175.0,235.0,177.0,226.0,162.5,218.0,163.0,218.0,158.0,213.5,166.0,206.0,165.0,197.0,162.0,185.5,164.0,173.5,177.5,184.0,163.0,187.0,154.5,188.0,140.5,187.0,132.0" stroke="black" stroke-width="2" fill="none" />
<path d="M189.0,131.0,190.0,138.5,195.0,145.5,195.0,154.5,194.5,163.0,191.5,171.0,190.5,179.5,187.5,188.0,182.5,194.0,186.0,198.0,187.5,201.0,193.0,202.0,186.5,205.0,191.5,210.0,196.5,220.0,190.5,230.0,198.0,231.0,206.0,231.5,214.0,231.5,226.0,236.5,233.0,235.5,241.0,236.5,249.0,239.5,257.0,239.0,265.5,237.5,273.5,237.5,278.5,240.0,287.0,240.0,289.0,233.5,298.0,230.5,307.5,236.5,311.0,226.5,320.0,210.5,326.0,210.0,333.5,200.0,337.0,205.0,343.0,209.0,351.0,210.0,359.0,212.0" stroke="black" stroke-width="2" fill="none" />
<path d="M310.5,154.0,312.5,146.0,310.0,137.5,308.0,130.5,307.5,122.5" stroke="black" stroke-width="2" fill="none" />
<path d="M304.5,113.0,296.5,106.5,288.0,94.5,279.5,90.5" stroke="black" stroke-width="2" fill="none" />
<path d="M261.0,55.5,269.0,55.0,276.5,54.5,284.0,53.5,291.5,52.5,300.0,52.0,308.0,51.0,316.0,50.5,324.0,49.5,332.5,49.0,340.5,48.0,348.0,48.0,356.0,47.5,363.5,47.5,371.5,47.5,379.5,47.0,387.0,47.0,395.5,47.0,404.0,46.5,412.0,45.5,420.0,45.0,428.0,44.5,436.0,44.5,444.0,43.5,452.0,43.0,460.5,42.0,468.5,41.5,476.5,41.0,484.0,40.0,492.0,39.5,500.0,39.0,508.5,39.0,516.0,38.5" stroke="black" stroke-width="2" fill="none" />
<path d="M515.0,28.5,507.0,29.0,498.5,29.5,490.5,30.5,482.5,31.0,474.5,31.5,466.0,32.0,458.0,32.5,450.5,33.5,442.5,34.0,434.5,34.5,427.0,35.0,419.5,35.5,412.0,36.0,404.5,36.5,396.5,36.5,388.5,36.5,380.5,36.5,373.0,37.0,364.5,38.0,356.5,38.5,348.5,39.5,340.5,40.0,333.0,41.0,324.5,41.5,317.0,42.0,308.5,42.0,300.5,42.5,292.0,42.5,283.5,43.0,275.0,43.5,266.5,43.5,258.5,43.5,250.5,43.5" stroke="black" stroke-width="2" fill="none" />
<path d="M235.5,37.5,243.0,37.0,250.5,36.5,258.5,36.5,266.5,36.5,274.5,36.0,283.0,35.0,291.5,34.5,300.0,34.0,308.5,33.5,316.0,33.0,324.5,32.5,333.0,32.0,341.0,31.0,349.0,30.5,356.5,30.5,365.0,29.5,372.5,29.0,380.5,29.0,388.0,28.5,395.5,28.0,403.5,27.5,412.0,26.5,420.5,26.0,428.5,25.5,436.5,25.0,445.0,24.5,453.0,24.0,461.0,23.0,469.0,22.5,477.0,22.0,484.5,22.0,493.0,22.0,501.0,22.0,508.5,22.0,516.0,21.5" stroke="black" stroke-width="2" fill="none" />
<path d="M515.0,13.0,507.5,14.0,499.0,14.0,491.0,14.5,483.0,15.0,474.5,15.5,466.0,16.5,458.0,16.5,450.5,16.5,443.0,16.5,435.0,16.5,427.0,17.0,419.5,17.5,412.0,17.5,404.0,18.0,396.5,18.0,389.0,18.5,381.0,19.0,373.0,20.5,365.0,21.5,357.0,22.5,349.0,23.0,340.5,24.0,331.5,24.0,323.0,24.5,315.0,24.5,307.0,25.0,299.0,25.5,291.0,26.5,283.0,27.5,275.0,28.5,267.0,29.0,259.0,29.0,252.0,29.0,244.5,29.5,236.5,29.5,228.5,30.5" stroke="black" stroke-width="2" fill="none" />
<path d="M213.0,21.0,220.5,20.5,228.0,20.5,235.5,20.5,242.5,20.0,250.0,19.0,258.5,18.5,266.5,18.0,274.5,17.0,282.5,16.5,291.0,16.0,299.0,15.5,307.0,15.5,315.0,15.5,324.0,15.0,332.5,14.5,341.0,14.0,349.5,13.5,357.5,13.0,366.5,12.0,374.5,11.5,382.5,11.0,390.0,11.0,398.0,11.0,406.0,10.5,413.5,9.5,421.5,9.0,428.5,8.5,436.5,8.0,444.5,7.5,452.5,6.5,460.5,6.0,468.0,5.5,475.5,5.0,484.0,5.5,492.0,5.5,500.0,5.5,507.5,5.0,515.5,4.5" stroke="black" stroke-width="2" fill="none" />
<path d="M211.5,84.0,203.5,84.0,195.0,84.5" stroke="black" stroke-width="2" fill="none" />
<path d="M196.0,87.0,196.5,90.5,196.5,98.5,202.0,94.5,204.0,102.0,197.5,103.0,203.5,112.0,188.5,113.5,183.5,121.5,183.5,130.0,182.5,135.0,185.5,143.0,182.5,151.0,181.0,158.5,171.5,167.5,169.0,175.5,167.5,183.5,165.5,191.0,162.5,199.0,160.5,207.0,158.0,214.0,162.5,217.0,159.0,225.0,156.0,223.5,161.5,226.5,160.5,235.0,157.5,243.0,142.5,245.0,141.5,253.0,150.5,254.0" stroke="black" stroke-width="2" fill="none" />
<path d="M156.5,255.0,164.5,254.5" stroke="black" stroke-width="2" fill="none" />
<path d="M149.0,226.5,157.0,219.0" stroke="black" stroke-width="2" fill="none" />
<path d="M157.0,211.0,148.5,219.0" stroke="black" stroke-width="2" fill="none" />
<path d="M140.0,220.5,132.0,227.5" stroke="black" stroke-width="2" fill="none" />
<path d="M123.0,228.5,130.5,221.0,138.5,214.0" stroke="black" stroke-width="2" fill="none" />
<path d="M132.5,203.5,124.5,211.0,116.0,218.5,107.5,226.0" stroke="black" stroke-width="2" fill="none" />
<path d="M106.0,224.5,114.5,224.5,122.5,224.5,131.0,224.0" stroke="black" stroke-width="2" fill="none" />
<path d="M132.0,212.0,124.0,213.0" stroke="black" stroke-width="2" fill="none" />
<path d="M113.5,204.5,105.5,212.0,98.0,220.0" stroke="black" stroke-width="2" fill="none" />
<path d="M100.0,217.0,108.0,216.0,115.5,215.5,123.0,215.0,131.5,214.5" stroke="black" stroke-width="2" fill="none" />
<path d="M133.0,202.5,141.0,199.5,141.5,204.5" stroke="black" stroke-width="2" fill="none" />
<path d="M140.0,197.0,148.0,189.5" stroke="black" stroke-width="2" fill="none" />
<path d="M148.0,190.0,140.0,191.5" stroke="black" stroke-width="2" fill="none" />
<path d="M130.5,187.5,122.5,188.0,115.0,189.0,107.0,189.5" stroke="black" stroke-width="2" fill="none" />
<path d="M107.0,182.0,114.5,181.5,122.5,180.5,130.0,180.5,138.0,180.5,146.0,180.5" stroke="black" stroke-width="2" fill="none" />
<path d="M146.5,172.5,138.5,172.5" stroke="black" stroke-width="2" fill="none" />
<path d="M137.0,166.5,145.0,166.0" stroke="black" stroke-width="2" fill="none" />
<path d="M140.5,163.0,148.5,155.5" stroke="black" stroke-width="2" fill="none" />
<path d="M142.0,153.0,150.0,145.5" stroke="black" stroke-width="2" fill="none" />
<path d="M156.0,141.5,164.5,141.5" stroke="black" stroke-width="2" fill="none" />
<path d="M157.0,134.0,149.0,134.5" stroke="black" stroke-width="2" fill="none" />
<path d="M146.0,133.5,145.0,126.5" stroke="black" stroke-width="2" fill="none" />
<path d="M138.0,125.0,146.0,124.0,154.5,123.0" stroke="black" stroke-width="2" fill="none" />
<path d="M139.5,118.0,132.0,118.0" stroke="black" stroke-width="2" fill="none" />
<path d="M131.0,121.5,139.0,126.0,148.5,127.0,152.5,135.0,155.5,141.5,157.5,149.5,158.5,155.0,166.5,156.0,174.5,160.0,187.0,156.5,193.5,153.0,202.0,148.0,206.0,152.5" stroke="black" stroke-width="2" fill="none" />
<path d="M189.5,165.5,181.0,166.0,173.0,167.0,165.0,167.0" stroke="black" stroke-width="2" fill="none" />
<path d="M164.0,175.0,172.0,174.0,180.0,173.5" stroke="black" stroke-width="2" fill="none" />
<path d="M172.0,188.0,163.5,188.0" stroke="black" stroke-width="2" fill="none" />
<path d="M164.5,182.0,172.5,181.5" stroke="black" stroke-width="2" fill="none" />
<path d="M168.5,164.5,160.5,162.5,152.5,162.5" stroke="black" stroke-width="2" fill="none" />
<path d="M155.0,164.5,155.5,172.0,158.0,180.5,163.5,188.5,161.5,196.0,167.5,205.0,169.5,211.5,169.5,219.5,177.0,220.0,179.0,220.5,184.0,226.5,192.0,225.5" stroke="black" stroke-width="2" fill="none" />
<path d="M161.0,209.0,153.0,210.0,145.0,211.0,137.5,212.0,129.0,212.0,121.5,212.0,114.0,212.0,107.0,212.0,99.0,213.0" stroke="black" stroke-width="2" fill="none" />
<path d="M99.5,211.0,107.5,203.5" stroke="black" stroke-width="2" fill="none" />
<path d="M106.0,198.0,114.5,194.5,117.5,195.5,125.5,187.5,135.5,185.5" stroke="black" stroke-width="2" fill="none" />
<path d="M124.5,189.0,116.5,196.5" stroke="black" stroke-width="2" fill="none" />
<path d="M114.5,188.5,122.5,181.5" stroke="black" stroke-width="2" fill="none" />
<path d="M109.5,189.5,102.5,197.5" stroke="black" stroke-width="2" fill="none" />
<path d="M119.5,210.0,117.5,203.0,128.5,196.0,131.5,195.0,135.0,187.0,134.5,197.5,127.0,199.5,121.5,198.0,113.5,202.0,113.0,203.0,118.5,198.0,117.5,192.0,125.0,188.5,130.0,182.5,134.5,174.5,134.5,166.5,136.0,158.0,131.0,150.5,122.5,153.5,114.5,154.0" stroke="black" stroke-width="2" fill="none" />
<path d="M114.5,155.0,114.5,163.0,115.0,170.5,114.0,178.0,113.0,186.0,112.0,191.5,112.0,197.5,108.5,205.5,106.5,213.5" stroke="black" stroke-width="2" fill="none" />
<path d="M107.0,229.0,114.5,228.5,122.5,228.5,131.0,228.5" stroke="black" stroke-width="2" fill="none" />
<path d="M124.5,236.0,116.5,235.0" stroke="black" stroke-width="2" fill="none" />
<path d="M127.5,254.0,119.0,254.0,111.0,254.0,103.0,249.5,95.0,240.0" stroke="black" stroke-width="2" fill="none" />
<path d="M93.5,230.0,93.5,238.0,97.0,245.5,109.0,253.5,106.5,257.0,111.5,256.0,113.5,259.5,122.0,260.0,129.5,259.0,137.5,253.5,145.5,250.5,153.5,246.5,161.5,242.0,170.0,242.0,178.0,242.5,186.5,240.0,194.5,237.5" stroke="black" stroke-width="2" fill="none" />
<path d="M155.0,209.5,152.5,199.5,151.5,195.5" stroke="black" stroke-width="2" fill="none" />
<path d="M158.0,162.5,151.0,164.5,153.0,173.0,154.5,181.0,156.5,189.0,157.5,197.0,157.5,205.0,150.5,207.0,139.5,208.0,135.5,216.5,134.5,224.5,137.0,227.5" stroke="black" stroke-width="2" fill="none" />
<path d="M105.5,202.0,100.5,215.0,93.0,221.5" stroke="black" stroke-width="2" fill="none" />
<path d="M104.5,169.0,96.5,157.0" stroke="black" stroke-width="2" fill="none" />
<path d="M98.0,155.5,102.0,163.5,105.5,171.0,107.5,179.0,106.0,187.0,103.0,194.5,106.0,203.5,102.5,206.0,104.5,213.5" stroke="black" stroke-width="2" fill="none" />
<path d="M152.5,203.0,144.0,187.0,140.0,175.0,131.5,182.5,123.5,182.5,117.5,178.5,111.0,182.0,117.0,173.0,116.5,165.5,116.0,157.5" stroke="black" stroke-width="2" fill="none" />
<path d="M124.5,155.0,133.0,148.0" stroke="black" stroke-width="2" fill="none" />
<path d="M137.5,156.5,145.5,155.5,154.0,155.5,162.5,155.0" stroke="black" stroke-width="2" fill="none" />
<path d="M159.5,161.0,159.5,168.5,160.0,176.5,163.0,176.5,162.0,171.5,167.0,166.0" stroke="black" stroke-width="2" fill="none" />
<path d="M170.5,153.5,174.5,161.5,174.0,169.5,172.5,177.5,172.0,185.5,173.0,194.0,175.0,202.5,184.0,209.5,175.5,213.5" stroke="black" stroke-width="2" fill="none" />
<path d="M145.5,257.0,148.0,244.0,149.0,238.5,151.0,230.5,145.5,229.5,137.0,225.5,136.0,228.5,128.0,229.0,119.5,230.0,111.5,229.5,107.5,230.5,100.0,230.0,98.0,222.5,92.0,221.5,95.0,213.5,98.0,205.5,105.0,197.5,109.0,189.5,110.0,181.0,112.5,173.0,111.5,165.0,111.5,157.0,108.5,153.0,101.0,152.0,92.5,153.0" stroke="black" stroke-width="2" fill="none" />
<path d="M93.0,150.0,101.0,149.5" stroke="black" stroke-width="2" fill="none" />
<path d="M107.0,148.5,115.5,148.0,123.5,148.0,132.0,148.0,140.5,147.5,148.5,146.5,156.5,146.5,164.5,146.0" stroke="black" stroke-width="2" fill="none" />
<path d="M151.0,133.0,143.0,120.5,135.0,120.5,127.0,119.5" stroke="black" stroke-width="2" fill="none" />
<path d="M128.5,120.0,139.5,128.0,144.5,135.5,148.0,143.5,144.0,147.5,141.0,155.5,139.0,163.5,146.0,164.0,150.0,159.0,158.0,159.0,166.0,159.0" stroke="black" stroke-width="2" fill="none" />
<path d="M174.0,153.5,165.5,153.0,157.5,152.0,149.5,156.0,153.0,146.0,147.0,153.0,139.0,148.0,131.5,147.0,123.5,147.0,115.5,148.0,107.5,150.0,99.5,148.5,91.5,150.0" stroke="black" stroke-width="2" fill="none" />
<path d="M122.0,143.0,130.0,142.0,138.5,141.5" stroke="black" stroke-width="2" fill="none" />
<path d="M143.0,160.5,142.5,168.5" stroke="black" stroke-width="2" fill="none" />
<path d="M135.5,120.0,143.5,121.0,148.5,129.0,149.5,138.5,151.5,147.0,151.0,159.0,142.5,161.5,141.5,169.5,138.0,177.5,142.0,184.0,147.0,192.0,149.0,199.5,147.0,207.5,151.0,215.5,151.0,224.0,147.5,230.5,137.0,233.5,130.0,237.5,137.5,233.5,145.5,227.5,146.5,219.0,151.5,214.0,159.5,213.5,171.5,192.5,180.0,196.5,188.0,190.0,194.5,193.0,197.0,199.5,201.0,199.5,208.5,199.5,212.5,207.5,221.5,205.5,225.5,208.0,232.5,195.0,236.5,198.5,245.5,193.0,247.5,197.0,248.5,199.5,250.5,194.5,258.5,200.5,270.5,203.5,275.5,209.5" stroke="black" stroke-width="2" fill="none" />
<path d="M207.0,138.0,198.5,142.0,195.5,133.5,193.0,122.5,185.0,129.0" stroke="black" stroke-width="2" fill="none" />
<path d="M184.0,133.0,185.0,141.0,191.5,149.0,189.0,158.0,184.5,165.5,180.5,174.0,175.0,182.0,168.5,191.5,166.0,199.5,164.0,207.5,161.0,215.5,168.5,213.0,176.5,211.0,184.5,209.5,190.0,207.5,194.0,215.5,194.0,209.0,201.5,211.0" stroke="black" stroke-width="2" fill="none" />
<path d="M188.0,14.5,195.5,14.0,203.0,13.0,211.0,12.5,219.0,12.0,227.0,11.5,235.0,11.0,243.5,10.0,252.0,9.5,260.0,9.5,268.5,8.5,276.0,8.5,284.0,8.5,292.5,8.5,300.5,8.0,308.5,8.0,316.5,7.0,324.0,6.5,331.5,5.5,340.0,5.0,348.0,4.5,356.0,4.0,364.0,3.5,372.0,3.0,379.5,2.5,387.5,2.0,395.0,1.0,403.0,-0.5,411.0,-1.5,419.5,-3.0,427.5,-4.0,435.5,-4.0,444.0,-4.0,452.5,-4.0,460.5,-3.5,469.0,-4.0,477.0,-4.0,485.5,-4.0,493.5,-4.5,500.5,-5.5,508.5,-6.5,516.5,-7.0" stroke="black" stroke-width="2" fill="none" />
<path d="M515.5,-15.0,506.5,-14.5,498.0,-14.0,489.5,-14.0,481.5,-13.5,473.5,-13.0,465.5,-12.5,458.0,-12.0,450.0,-11.5,442.0,-11.0,434.0,-10.5,426.0,-9.5,418.0,-9.0,410.0,-9.0,402.0,-8.5,394.5,-7.5,386.5,-7.0,378.5,-6.5,370.5,-6.0,362.5,-6.0,355.0,-5.0,347.5,-4.5,340.5,-4.0,333.0,-3.5,325.0,-3.0,317.0,-2.5,309.0,-2.0,301.0,-2.0,293.5,-1.5,285.5,-1.5,277.0,-1.5,268.0,-1.5,260.0,-1.5,252.0,-1.0,244.0,-1.0,235.5,-0.5,228.0,0.5,220.0,1.5,212.5,2.0,204.5,3.5,197.0,4.0,189.5,5.0,181.5,6.0,173.5,6.5,165.5,7.5" stroke="black" stroke-width="2" fill="none" />
<path d="M27.0,69.5,18.5,70.0,10.0,70.5,2.0,71.0" stroke="black" stroke-width="2" fill="none" />
<path d="M3.0,77.5,11.0,77.5,19.0,77.5" stroke="black" stroke-width="2" fill="none" />
<path d="M11.0,93.5,2.5,94.0" stroke="black" stroke-width="2" fill="none" />
<path d="M2.5,85.0,10.5,84.5,19.0,84.5" stroke="black" stroke-width="2" fill="none" />
<path d="M12.0,102.5,4.0,103.0" stroke="black" stroke-width="2" fill="none" />
<path d="M3.5,61.5,11.5,60.5,19.5,59.5,27.5,59.0,36.0,59.0,44.5,59.0" stroke="black" stroke-width="2" fill="none" />
<path d="M43.5,50.0,36.0,50.5,28.0,50.5,20.0,51.0,13.0,51.5,5.0,52.0" stroke="black" stroke-width="2" fill="none" />
<path d="M4.5,44.5,12.5,44.0,21.0,44.0,29.5,43.5,37.5,43.5,45.5,43.0" stroke="black" stroke-width="2" fill="none" />
<path d="M46.5,35.0,38.0,35.5,29.5,35.5,21.5,35.0,13.5,35.0,5.5,35.5" stroke="black" stroke-width="2" fill="none" />
<path d="M4.0,29.5,12.0,28.5,20.5,28.0,28.5,27.0,37.0,26.5,45.0,26.0,53.0,25.5" stroke="black" stroke-width="2" fill="none" />
<path d="M52.5,20.5,45.0,21.0,36.5,21.5,29.0,22.0,21.0,22.5,12.0,22.5,4.0,22.5" stroke="black" stroke-width="2" fill="none" />
<path d="M5.5,14.0,14.0,13.5,22.0,12.5,29.5,12.0,37.5,11.5,45.0,11.0,52.0,10.0,59.0,9.5,66.5,9.0" stroke="black" stroke-width="2" fill="none" />
<path d="M73.0,2.0,65.5,2.0,58.0,2.0,51.5,2.0,44.5,3.0,36.5,3.5,28.5,3.5,21.0,4.0,13.0,4.0,5.0,4.5" stroke="black" stroke-width="2" fill="none" />
</svg>