<svg xmlns="http://www.w3.org/2000/svg" version="1.1"><polyline points="333.0,66.5,328.5,74.5,322.5,82.5,322.0,90.5,329.0,94.0,328.5,92.0,336.0,92.0,333.0,88.0,340.5,91.0,343.5,96.0,351.5,98.0,359.5,101.0,368.0,103.5,376.0,108.0,384.5,113.5,394.0,126.5" stroke="black" stroke-width="2" fill="none" />
<polyline points="388.5,131.0,380.5,138.5,372.0,146.5,364.0,154.0,356.0,162.0,348.0,169.5" stroke="black" stroke-width="2" fill="none" />
<polyline points="349.0,172.0,356.5,171.0,364.5,170.5" stroke="black" stroke-width="2" fill="none" />
<polyline points="363.5,169.5,372.0,162.0,380.0,154.5,388.5,147.5,396.0,139.5" stroke="black" stroke-width="2" fill="none" />
<polyline points="397.0,134.0,389.0,141.5,381.5,149.0,373.5,157.0,365.5,164.0,357.5,171.0" stroke="black" stroke-width="2" fill="none" />
<polyline points="364.5,160.0,372.5,159.0,380.0,158.5,387.5,158.0" stroke="black" stroke-width="2" fill="none" />
<polyline points="379.0,161.5,386.5,154.0,394.5,146.5" stroke="black" stroke-width="2" fill="none" />
<polyline points="387.5,150.0,380.0,151.0,372.0,152.0,364.0,152.5" stroke="black" stroke-width="2" fill="none" />
<polyline points="357.5,149.0,365.5,141.5" stroke="black" stroke-width="2" fill="none" />
<polyline points="371.0,149.0,364.0,139.0,358.5,135.0,365.5,132.0,357.5,136.0" stroke="black" stroke-width="2" fill="none" />
<polyline points="349.5,137.0,350.0,131.0,358.0,130.5,348.0,136.0,357.5,146.0,348.0,156.5,355.0,156.5,350.5,162.5,355.5,153.5" stroke="black" stroke-width="2" fill="none" />
<polyline points="347.0,156.5,339.0,164.5,330.5,172.0,322.5,179.0" stroke="black" stroke-width="2" fill="none" />
<polyline points="324.0,177.0,331.5,177.0,339.5,176.0" stroke="black" stroke-width="2" fill="none" />
<polyline points="339.0,180.0,331.0,187.5,323.0,195.0" stroke="black" stroke-width="2" fill="none" />
<polyline points="323.5,193.0,332.0,193.0,340.0,192.5" stroke="black" stroke-width="2" fill="none" />
<polyline points="339.0,196.0,331.0,203.5,323.5,211.5,316.0,218.5" stroke="black" stroke-width="2" fill="none" />
<polyline points="317.0,215.0,325.0,214.0,333.0,213.5,340.5,212.5,348.0,211.5" stroke="black" stroke-width="2" fill="none" />
<polyline points="348.5,211.5,340.0,219.0,331.5,226.0,323.0,233.5,315.0,240.5" stroke="black" stroke-width="2" fill="none" />
<polyline points="316.5,242.5,324.5,242.0,333.0,242.0,341.0,241.0" stroke="black" stroke-width="2" fill="none" />
<polyline points="347.5,243.0,339.5,250.5,331.5,258.5,323.5,266.5,316.0,274.0,308.0,281.5" stroke="black" stroke-width="2" fill="none" />
<polyline points="307.5,283.0,315.5,283.0,323.5,282.5,332.0,283.0,341.0,283.0,349.0,283.5,356.5,284.0" stroke="black" stroke-width="2" fill="none" />
<polyline points="357.0,291.5,349.0,299.0,341.0,306.0,332.5,313.5,323.5,321.0,315.5,328.5,307.0,336.5,298.5,344.0,290.5,352.0" stroke="black" stroke-width="2" fill="none" />
<polyline points="285.0,352.0,293.0,344.0,300.5,336.5,308.5,328.5,316.5,321.0,324.5,313.5,332.5,305.5,341.0,297.5,349.5,289.5" stroke="black" stroke-width="2" fill="none" />
<polyline points="349.0,282.5,341.0,290.0,333.0,297.5,325.0,305.5,316.5,313.5,308.5,321.5,300.5,329.5,292.0,337.5,284.0,345.5" stroke="black" stroke-width="2" fill="none" />
<polyline points="285.5,346.5,293.5,346.0,301.5,345.5,309.5,345.0,317.0,345.0,325.0,344.5,333.5,343.5" stroke="black" stroke-width="2" fill="none" />
<polyline points="338.0,341.5,346.5,344.0" stroke="black" stroke-width="2" fill="none" />
<polyline points="349.5,355.0,357.5,347.5,365.5,339.5,373.0,331.5" stroke="black" stroke-width="2" fill="none" />
<polyline points="373.0,324.0,365.0,331.5,356.0,339.5,347.5,347.0,339.0,354.5" stroke="black" stroke-width="2" fill="none" />
<polyline points="342.5,348.5,334.5,349.0" stroke="black" stroke-width="2" fill="none" />
<polyline points="330.5,349.5,338.5,346.5,346.5,346.0,356.5,348.0" stroke="black" stroke-width="2" fill="none" />
<polyline points="356.5,355.5,365.0,348.0,373.0,340.0" stroke="black" stroke-width="2" fill="none" />
<polyline points="371.5,347.0,364.0,354.5" stroke="black" stroke-width="2" fill="none" />
<polyline points="363.5,345.0,371.5,344.5" stroke="black" stroke-width="2" fill="none" />
<polyline points="364.5,323.5,356.0,331.0,347.5,338.5,339.5,345.5,331.5,352.0" stroke="black" stroke-width="2" fill="none" />
<polyline points="331.5,352.0,323.5,352.5,316.0,352.5,308.0,352.5,300.5,353.5" stroke="black" stroke-width="2" fill="none" />
<polyline points="299.5,351.5,308.0,344.5,316.0,337.0,324.0,330.0,332.5,322.5,340.5,314.5,348.5,306.5,356.0,299.0,364.0,292.0" stroke="black" stroke-width="2" fill="none" />
<polyline points="365.5,301.5,357.5,309.0,348.5,316.0,340.0,323.0,331.5,330.0,323.0,337.0,315.0,344.0,307.0,351.0" stroke="black" stroke-width="2" fill="none" />
<polyline points="316.0,350.5,324.0,343.5,332.0,336.5,339.5,329.5,347.5,322.5,355.5,315.5,363.0,308.0" stroke="black" stroke-width="2" fill="none" />
<polyline points="364.0,314.5,356.0,322.0,348.5,329.5,340.5,337.0,332.0,344.0,323.5,351.0" stroke="black" stroke-width="2" fill="none" />
<polyline points="329.0,354.0,337.0,353.0,345.0,351.5,353.0,351.5,360.5,350.0" stroke="black" stroke-width="2" fill="none" />
<polyline points="363.5,329.0,355.0,329.5" stroke="black" stroke-width="2" fill="none" />
<polyline points="365.5,322.5,358.0,323.5,350.0,324.0,341.5,324.5" stroke="black" stroke-width="2" fill="none" />
<polyline points="334.0,317.0,326.0,317.5,317.5,319.0,309.5,319.5,301.0,320.0,293.5,320.5" stroke="black" stroke-width="2" fill="none" />
<polyline points="293.0,320.5,301.0,313.0,309.0,305.5,317.5,298.0,325.0,290.5" stroke="black" stroke-width="2" fill="none" />
<polyline points="320.5,294.0,328.5,294.5,336.5,295.0,345.0,288.5" stroke="black" stroke-width="2" fill="none" />
<polyline points="347.5,283.0,340.0,283.5" stroke="black" stroke-width="2" fill="none" />
<polyline points="338.5,282.5,347.0,275.0" stroke="black" stroke-width="2" fill="none" />
<polyline points="346.5,272.0,338.0,272.0,330.0,272.5,322.5,273.0,314.5,273.5" stroke="black" stroke-width="2" fill="none" />
<polyline points="308.5,274.5,316.5,274.5,324.5,275.0,332.5,275.0,340.5,275.0,348.5,275.0" stroke="black" stroke-width="2" fill="none" />
<polyline points="350.0,280.0,358.0,287.0,366.0,292.0" stroke="black" stroke-width="2" fill="none" />
<polyline points="339.5,297.0,331.0,297.5,323.5,298.5" stroke="black" stroke-width="2" fill="none" />
<polyline points="321.5,296.5,330.0,297.5,337.5,298.0,345.5,297.5" stroke="black" stroke-width="2" fill="none" />
<polyline points="331.5,291.0,323.5,298.5,316.0,306.5,308.0,314.0,300.0,321.0,292.0,328.5,284.5,336.0" stroke="black" stroke-width="2" fill="none" />
<polyline points="284.0,333.5,292.5,332.5,301.0,331.5,309.0,331.0,317.0,330.5,324.5,330.0,332.5,329.0,340.0,328.5,348.0,328.0,355.5,328.0,363.5,328.0,372.0,327.5" stroke="black" stroke-width="2" fill="none" />
<polyline points="364.0,353.5,356.0,354.0,348.5,355.0,340.5,355.5,333.0,356.0,324.5,356.0,316.0,356.5,307.5,357.5,299.0,358.5" stroke="black" stroke-width="2" fill="none" />
<polyline points="297.0,345.5,305.0,346.5" stroke="black" stroke-width="2" fill="none" />
<polyline points="308.5,350.0,304.0,343.0,296.0,343.5" stroke="black" stroke-width="2" fill="none" />
<polyline points="292.5,338.5,300.5,338.0,308.5,337.0,316.0,336.0,323.5,335.5" stroke="black" stroke-width="2" fill="none" />
<polyline points="326.5,334.5,334.5,337.0,340.0,338.5,348.0,341.0,352.0,345.5,361.0,345.0,365.0,347.0" stroke="black" stroke-width="2" fill="none" />
<polyline points="381.0,345.0,373.0,346.0,365.0,346.5,357.0,347.0,349.0,347.5,340.5,348.0,332.5,348.0,324.0,348.5,316.0,349.0,308.0,348.5,300.0,348.5,292.0,348.5,284.0,348.5" stroke="black" stroke-width="2" fill="none" />
<polyline points="280.5,346.5,288.5,351.5,296.5,354.0,304.5,356.0,313.0,357.0,321.0,357.5,328.5,358.0,336.5,358.0,344.5,357.0,352.5,356.0,360.5,355.0,368.0,353.0,375.0,345.5,364.0,353.5" stroke="black" stroke-width="2" fill="none" />
<polyline points="380.5,335.5,373.0,336.5,365.0,337.0,357.0,338.0,349.0,338.5,341.0,339.0,332.5,340.0,324.5,341.0,316.0,341.5,308.0,341.5,300.0,342.0,292.0,342.5,283.5,343.0,275.5,343.5" stroke="black" stroke-width="2" fill="none" />
<polyline points="282.5,340.5,282.5,335.5" stroke="black" stroke-width="2" fill="none" />
<polyline points="282.0,324.0,290.5,323.0,298.5,322.5,306.5,322.0,314.0,322.0,322.0,322.0,330.0,321.5,339.0,320.5,347.5,320.5,356.0,320.5,364.0,320.0,372.5,319.5" stroke="black" stroke-width="2" fill="none" />
<polyline points="365.0,308.5,356.5,308.5,348.5,309.0,340.0,309.0,331.5,309.5,324.0,310.5,316.5,312.0,309.0,313.0,301.5,313.0,294.0,313.5" stroke="black" stroke-width="2" fill="none" />
<polyline points="290.5,314.5,298.5,307.0,307.0,299.5,315.5,292.5" stroke="black" stroke-width="2" fill="none" />
<polyline points="315.5,286.5,308.0,293.5,304.0,293.5,308.0,285.5,304.5,282.0,296.5,288.0,288.5,292.0" stroke="black" stroke-width="2" fill="none" />
<polyline points="291.5,295.0,299.5,294.5,307.5,293.5,316.0,292.5,324.0,291.5,332.0,290.5,340.0,290.5,348.0,291.0,356.5,290.5,364.5,290.5,372.5,290.0" stroke="black" stroke-width="2" fill="none" />
<polyline points="372.5,302.5,364.5,303.0,356.5,304.0,348.5,305.0,340.5,305.5,332.5,306.5,324.5,307.5,317.0,309.0,309.0,309.5,301.5,309.5,293.5,309.5" stroke="black" stroke-width="2" fill="none" />
<polyline points="292.0,306.5,300.0,306.0,308.5,305.0,316.5,304.5,324.0,303.5,331.5,302.5,339.5,301.5,347.0,301.0,354.5,301.0,362.5,300.5" stroke="black" stroke-width="2" fill="none" />
<polyline points="371.0,297.5,362.5,298.0,354.0,298.0,346.0,298.5,338.0,299.0,330.5,299.5,322.5,301.0,315.0,302.0,308.0,302.5,301.0,303.0,293.0,303.5" stroke="black" stroke-width="2" fill="none" />
<polyline points="290.5,306.5,298.5,299.0,306.5,291.5,314.5,284.0,322.5,276.5,330.5,269.0,338.5,261.0,346.5,253.5" stroke="black" stroke-width="2" fill="none" />
<polyline points="346.5,260.0,339.0,267.0,330.5,274.0,322.5,281.5" stroke="black" stroke-width="2" fill="none" />
<polyline points="331.0,282.0,339.0,274.5,346.5,266.5" stroke="black" stroke-width="2" fill="none" />
<polyline points="346.5,267.0,338.5,268.0" stroke="black" stroke-width="2" fill="none" />
<polyline points="347.5,266.5,339.5,266.5,331.5,267.0,324.0,267.0,316.5,267.5,308.5,268.0" stroke="black" stroke-width="2" fill="none" />
<polyline points="315.0,266.5,322.5,266.5" stroke="black" stroke-width="2" fill="none" />
<polyline points="315.0,264.5,323.5,257.5,331.5,250.0,339.5,242.5,347.5,235.5" stroke="black" stroke-width="2" fill="none" />
<polyline points="347.5,225.5,339.5,233.0,331.5,240.5,323.5,248.0,314.5,256.0" stroke="black" stroke-width="2" fill="none" />
<polyline points="316.5,259.0,324.5,258.5" stroke="black" stroke-width="2" fill="none" />
<polyline points="317.5,251.0,325.0,250.5,332.5,249.5" stroke="black" stroke-width="2" fill="none" />
<polyline points="347.0,250.5,339.5,250.5,332.0,251.0,324.5,251.5,317.0,252.0,309.0,253.0" stroke="black" stroke-width="2" fill="none" />
<polyline points="307.5,261.0,315.5,260.5,324.0,260.0,332.0,260.0,339.5,259.5,347.0,259.0" stroke="black" stroke-width="2" fill="none" />
<polyline points="348.5,244.0,341.0,245.0,333.0,246.0,325.0,247.0,317.0,247.5" stroke="black" stroke-width="2" fill="none" />
<polyline points="317.0,248.5,325.0,240.5,333.0,232.5,340.5,225.0,348.5,217.5" stroke="black" stroke-width="2" fill="none" />
<polyline points="346.0,205.0,338.0,213.0,330.0,220.0,323.0,227.5,316.0,235.0" stroke="black" stroke-width="2" fill="none" />
<polyline points="316.0,233.0,324.5,232.5,332.0,231.5,340.0,231.0" stroke="black" stroke-width="2" fill="none" />
<polyline points="333.0,234.5,332.0,242.5,332.5,251.0,333.0,258.5,333.5,266.5,333.5,274.5,335.5,282.0" stroke="black" stroke-width="2" fill="none" />
<polyline points="341.5,278.5,342.5,286.5" stroke="black" stroke-width="2" fill="none" />
<polyline points="346.0,285.5,336.0,280.5,326.0,281.0,329.0,280.0,331.0,272.0,330.5,264.0,331.0,256.0,331.0,248.0,331.0,240.0,331.0,232.0,331.0,230.0" stroke="black" stroke-width="2" fill="none" />
<polyline points="324.0,236.0,324.0,244.0,324.5,252.0,323.5,260.5,323.5,268.5,323.5,277.0,323.0,284.0" stroke="black" stroke-width="2" fill="none" />
<polyline points="309.0,289.5,307.0,297.5,314.5,289.5,322.5,290.0,331.0,289.0,339.0,289.0" stroke="black" stroke-width="2" fill="none" />
<polyline points="299.5,290.0,291.5,297.5" stroke="black" stroke-width="2" fill="none" />
<polyline points="283.0,319.0,291.0,318.0,299.0,317.0,307.5,316.0,316.0,315.0,324.5,314.5,332.0,313.5,340.0,313.5,348.0,313.5,356.0,313.0,363.5,312.5,371.5,312.0" stroke="black" stroke-width="2" fill="none" />
<polyline points="369.5,350.0,373.5,342.0,368.5,334.0,369.5,326.0,367.5,318.0,367.5,309.5,367.0,301.5,365.0,293.0,357.0,294.0,347.5,294.5,341.0,294.5,339.5,293.5,350.5,292.5,347.5,284.5,348.0,276.5,347.0,268.5,346.0,260.5,345.5,252.5,344.0,244.5,344.0,237.0,344.0,229.0,343.0,220.5,343.0,212.5,342.5,204.5,343.0,196.5,343.0,188.5,343.0,180.5,343.0,173.0,339.0,169.0,348.0,162.0,340.0,161.5" stroke="black" stroke-width="2" fill="none" />
<polyline points="338.5,153.0,331.0,160.5,323.5,168.5" stroke="black" stroke-width="2" fill="none" />
<polyline points="316.5,171.0,324.5,170.5,332.5,170.5,340.5,171.0,348.0,171.5" stroke="black" stroke-width="2" fill="none" />
<polyline points="343.0,173.5,351.0,172.5,359.0,172.0,367.0,170.0,374.5,167.5,382.5,162.0,390.0,155.0" stroke="black" stroke-width="2" fill="none" />
<polyline points="381.0,161.5,373.5,162.0,365.0,162.5,357.0,163.0,349.0,163.0,341.0,163.0,333.0,163.5,324.5,164.0,316.5,164.5,308.5,165.0,300.5,165.5,293.0,166.0" stroke="black" stroke-width="2" fill="none" />
<polyline points="299.5,168.5,307.5,161.0,316.5,153.0,324.5,145.5,332.5,137.5,340.0,130.0,348.0,122.5,356.0,114.5,364.0,107.0" stroke="black" stroke-width="2" fill="none" />
<polyline points="370.0,108.5,362.0,116.5,354.5,124.5,347.5,132.0,340.0,140.0,332.0,147.5,324.0,155.0,316.0,161.5,307.5,169.0" stroke="black" stroke-width="2" fill="none" />
<polyline points="309.0,168.5,317.0,167.5,324.5,166.5,332.0,166.5,339.5,166.5" stroke="black" stroke-width="2" fill="none" />
<polyline points="332.5,154.0,324.0,161.5,316.0,169.0" stroke="black" stroke-width="2" fill="none" />
<polyline points="313.5,170.5,318.0,178.5,317.0,186.5,316.0,194.5,314.5,202.5,313.5,210.5,313.0,218.5,311.5,227.0,311.5,235.0,310.0,243.0,309.0,251.0,308.5,259.0,308.0,267.5,308.5,275.5,303.5,283.5,290.5,290.5,288.5,298.5,288.5,306.5,288.5,314.5,285.5,322.5,286.5,330.5,281.5,338.5,279.5,346.0" stroke="black" stroke-width="2" fill="none" />
<polyline points="292.0,328.5,300.0,328.0,308.0,328.0,316.5,328.0,324.5,327.5" stroke="black" stroke-width="2" fill="none" />
<polyline points="326.0,327.0,334.5,329.0,342.5,329.5,350.5,328.5,358.5,327.5,365.5,329.0,372.5,336.5" stroke="black" stroke-width="2" fill="none" />
<polyline points="354.5,352.5,346.5,353.5,338.5,354.5,330.0,353.0" stroke="black" stroke-width="2" fill="none" />
<polyline points="329.5,348.0,330.0,340.5,336.0,332.5,344.0,332.5,352.0,331.5" stroke="black" stroke-width="2" fill="none" />
<polyline points="348.0,236.0,339.5,236.5,331.5,237.0,324.0,236.5,315.5,237.0" stroke="black" stroke-width="2" fill="none" />
<polyline points="321.5,235.5,322.0,243.5,321.0,251.5,321.5,259.5,321.0,267.5,321.0,275.5,320.0,283.5,309.0,286.5,303.5,295.0,299.0,295.0,299.0,295.0,302.0,289.0,307.0,287.5" stroke="black" stroke-width="2" fill="none" />
<polyline points="315.5,229.5,323.5,229.0,331.5,228.5,339.5,228.0,347.0,227.0" stroke="black" stroke-width="2" fill="none" />
<polyline points="338.0,205.0,330.0,212.0,322.0,219.5,314.0,227.0" stroke="black" stroke-width="2" fill="none" />
<polyline points="315.5,224.0,324.0,224.0,332.5,223.5,340.5,223.0" stroke="black" stroke-width="2" fill="none" />
<polyline points="338.5,216.5,331.5,217.0,324.0,217.0" stroke="black" stroke-width="2" fill="none" />
<polyline points="322.0,210.5,330.0,210.0,338.5,209.0" stroke="black" stroke-width="2" fill="none" />
<polyline points="338.0,201.5,330.5,202.0,322.5,202.0" stroke="black" stroke-width="2" fill="none" />
<polyline points="317.5,206.5,325.5,206.0,333.0,205.0,341.0,204.5,349.0,204.0" stroke="black" stroke-width="2" fill="none" />
<polyline points="340.0,188.5,332.0,196.0,323.5,203.5,315.5,210.5" stroke="black" stroke-width="2" fill="none" />
<polyline points="317.5,222.5,325.5,221.5,333.5,220.5,341.5,220.0,349.5,219.0" stroke="black" stroke-width="2" fill="none" />
<polyline points="329.5,185.0,321.5,185.0" stroke="black" stroke-width="2" fill="none" />
<polyline points="324.5,183.5,332.0,175.0,340.0,167.5,347.0,159.5,355.0,152.0,362.5,145.0,370.5,137.5,378.5,129.5,386.5,122.0" stroke="black" stroke-width="2" fill="none" />
<polyline points="385.5,125.0,389.5,135.0,394.0,144.0,391.5,152.0,385.5,160.5,370.5,168.5,374.5,158.5" stroke="black" stroke-width="2" fill="none" />
<polyline points="389.0,151.0,381.0,151.5,373.0,152.0,365.5,153.0,357.5,153.5,349.0,154.0,340.5,154.0,332.0,154.0,324.0,154.5,315.5,154.5,307.0,155.0,299.0,155.5,291.0,156.0,283.0,157.0,275.0,157.5" stroke="black" stroke-width="2" fill="none" />
<polyline points="276.5,153.0,284.5,145.5,293.0,138.5,301.5,131.5,309.5,124.0" stroke="black" stroke-width="2" fill="none" />
<polyline points="306.5,127.0,298.5,128.5,290.5,130.0,282.5,130.5,275.0,131.0" stroke="black" stroke-width="2" fill="none" />
<polyline points="275.5,130.5,277.5,138.5,288.5,135.5,296.5,133.0,302.5,133.5,313.0,130.5,321.0,129.5,330.5,128.5" stroke="black" stroke-width="2" fill="none" />
<polyline points="326.0,129.0,327.0,136.5,336.0,141.5,336.5,136.5,344.0,139.0,352.5,142.0,357.5,151.0" stroke="black" stroke-width="2" fill="none" />
<polyline points="347.0,145.0,354.5,137.5,362.5,130.0,370.5,123.5,379.0,116.5" stroke="black" stroke-width="2" fill="none" />
<polyline points="378.5,123.5,370.5,130.5" stroke="black" stroke-width="2" fill="none" />
<polyline points="373.0,135.0,371.0,142.5" stroke="black" stroke-width="2" fill="none" />
<polyline points="375.5,142.5,375.5,134.5" stroke="black" stroke-width="2" fill="none" />
<polyline points="381.0,134.5,379.0,142.0" stroke="black" stroke-width="2" fill="none" />
<polyline points="387.0,127.0,379.5,127.5,371.5,127.5,363.5,128.0" stroke="black" stroke-width="2" fill="none" />
<polyline points="365.0,131.0,368.5,139.5" stroke="black" stroke-width="2" fill="none" />
<polyline points="372.0,115.5,363.5,123.0,356.0,130.5,348.0,138.5,339.5,146.5" stroke="black" stroke-width="2" fill="none" />
<polyline points="340.5,139.0,348.0,138.5" stroke="black" stroke-width="2" fill="none" />
<polyline points="324.5,130.0,331.0,122.0,338.5,114.5,346.5,106.5,354.5,99.0" stroke="black" stroke-width="2" fill="none" />
<polyline points="359.5,100.5,374.0,108.5,387.0,119.5,385.5,124.5,394.0,128.5,396.5,132.5,396.0,140.5,389.0,143.0,391.0,144.0" stroke="black" stroke-width="2" fill="none" />
<polyline points="356.0,106.0,348.0,113.5,340.5,121.0,332.5,129.0,324.0,137.0,316.0,145.5,308.0,152.5,300.0,160.5" stroke="black" stroke-width="2" fill="none" />
<polyline points="292.0,163.5,299.5,155.5,307.5,147.5,315.0,140.5" stroke="black" stroke-width="2" fill="none" />
<polyline points="310.0,143.0,308.5,135.0" stroke="black" stroke-width="2" fill="none" />
<polyline points="303.0,134.0,302.0,142.0" stroke="black" stroke-width="2" fill="none" />
<polyline points="291.5,145.5,284.0,146.5,276.0,147.0" stroke="black" stroke-width="2" fill="none" />
<polyline points="277.0,145.5,285.0,137.5,292.5,130.0,300.5,122.5,308.0,115.0,315.5,107.5,323.5,100.5" stroke="black" stroke-width="2" fill="none" />
<polyline points="325.5,104.5,334.0,103.5,342.0,103.0,349.5,102.5" stroke="black" stroke-width="2" fill="none" />
<polyline points="346.0,99.5,338.0,107.0,329.5,114.5,322.0,122.0,314.5,129.5,307.0,137.5,299.0,144.5,291.0,151.5,282.5,158.5" stroke="black" stroke-width="2" fill="none" />
<polyline points="284.5,162.5,292.5,161.5,300.5,161.5,308.5,161.0,316.5,160.5,324.5,160.0" stroke="black" stroke-width="2" fill="none" />
<polyline points="317.0,180.0,325.5,179.5,333.5,179.5,342.0,179.0,350.0,179.0" stroke="black" stroke-width="2" fill="none" />
<polyline points="348.5,194.5,341.0,194.5,333.0,194.5,325.5,195.0,317.5,195.5" stroke="black" stroke-width="2" fill="none" />
<polyline points="316.0,187.5,324.5,187.5,332.5,187.5,341.0,188.0,349.0,188.0" stroke="black" stroke-width="2" fill="none" />
<polyline points="324.5,149.5,316.5,149.5,308.5,150.0,300.5,150.5,292.0,151.0,284.0,151.5,276.5,152.0" stroke="black" stroke-width="2" fill="none" />
<polyline points="276.5,149.5,284.5,149.0,292.0,148.5,300.0,148.0,308.5,147.0,317.0,146.5,325.0,146.0,332.5,145.5,340.0,144.5,348.0,143.0,356.0,142.5,364.5,142.5,372.5,142.5,381.0,143.0,389.0,143.0,397.0,143.0" stroke="black" stroke-width="2" fill="none" />
<polyline points="340.0,99.0,332.0,106.0,324.0,113.5,316.0,121.0,308.0,129.0,300.0,137.0,292.0,144.5,284.0,151.5" stroke="black" stroke-width="2" fill="none" />
<polyline points="277.0,137.0,284.5,129.5,293.0,122.0,301.5,114.5,309.5,107.5,318.0,100.0" stroke="black" stroke-width="2" fill="none" />
<polyline points="325.0,93.0,333.0,92.0,341.0,92.0,349.0,92.0" stroke="black" stroke-width="2" fill="none" />
<polyline points="346.5,84.0,338.5,91.5,330.5,98.5,322.5,105.5,314.5,113.0" stroke="black" stroke-width="2" fill="none" />
<polyline points="314.5,124.0,322.5,124.0,330.5,124.0,338.0,125.5,346.0,125.5,354.0,125.5,356.0,130.0,354.5,137.5,358.5,139.5,363.5,138.0,373.5,133.0,383.5,134.0,387.5,136.5,384.5,144.5,380.5,148.0" stroke="black" stroke-width="2" fill="none" />
<polyline points="370.5,109.5,362.5,109.5,354.5,110.0,346.0,110.0,338.0,110.0,330.5,111.0,323.0,111.5,315.5,112.0,307.5,112.5,299.5,113.5" stroke="black" stroke-width="2" fill="none" />
<polyline points="299.5,108.0,291.5,115.5,284.0,122.5,276.0,129.5" stroke="black" stroke-width="2" fill="none" />
<polyline points="275.0,128.5,274.0,136.5,272.0,144.0,274.0,155.0,282.0,162.0,290.0,166.5,298.0,168.5,306.5,170.5,315.0,171.5" stroke="black" stroke-width="2" fill="none" />
<polyline points="333.0,136.0,334.0,123.0,326.5,123.0,318.5,123.0,310.0,124.5,302.0,123.5" stroke="black" stroke-width="2" fill="none" />
<polyline points="295.0,131.0,298.5,139.0" stroke="black" stroke-width="2" fill="none" />
<polyline points="291.5,133.0,288.0,141.0" stroke="black" stroke-width="2" fill="none" />
<polyline points="282.0,137.5,283.0,130.0,283.0,130.0" stroke="black" stroke-width="2" fill="none" />
<polyline points="288.0,131.5,291.0,135.0,293.5,146.0,307.5,143.0,317.0,144.5,327.0,144.5,335.0,145.5" stroke="black" stroke-width="2" fill="none" />
<polyline points="324.0,145.5,321.5,138.0,319.5,130.0" stroke="black" stroke-width="2" fill="none" />
<polyline points="318.0,128.5,312.0,137.0,316.5,145.0,322.5,151.5,326.0,155.5" stroke="black" stroke-width="2" fill="none" />
<polyline points="312.0,115.5,316.0,107.5,316.5,106.0,308.5,112.0,300.0,116.5,292.0,115.5" stroke="black" stroke-width="2" fill="none" />
<polyline points="285.0,112.0,292.5,111.5,300.0,111.0,308.0,110.0,316.5,109.5,324.5,109.0,332.5,108.0,341.0,107.0,349.5,106.0,357.5,105.5,365.5,105.5,373.5,104.5,381.5,103.5" stroke="black" stroke-width="2" fill="none" />
<polyline points="341.0,83.0,333.0,90.5" stroke="black" stroke-width="2" fill="none" />
<polyline points="324.5,90.0,333.0,82.0,341.0,75.0" stroke="black" stroke-width="2" fill="none" />
<polyline points="338.5,79.5,330.5,80.0" stroke="black" stroke-width="2" fill="none" />
<polyline points="330.5,77.0,338.5,76.0" stroke="black" stroke-width="2" fill="none" />
<polyline points="338.5,69.0,331.5,69.5" stroke="black" stroke-width="2" fill="none" />
<polyline points="328.5,72.0,336.5,65.0,338.0,69.0,338.0,77.0,346.0,85.5,335.5,94.0" stroke="black" stroke-width="2" fill="none" />
<polyline points="324.5,83.5,333.0,83.0,341.0,83.5,349.0,83.5" stroke="black" stroke-width="2" fill="none" />
<polyline points="363.5,97.5,355.5,98.0,347.5,99.0,340.0,99.5,332.0,99.5,324.5,99.5,316.5,100.5,308.0,101.5,300.0,102.0" stroke="black" stroke-width="2" fill="none" />
<polyline points="304.5,99.0,287.5,107.0,273.5,116.5,267.5,124.5,265.5,132.5,266.5,140.0,269.5,148.0,274.0,155.5,285.0,163.5" stroke="black" stroke-width="2" fill="none" />
<polyline points="268.5,142.0,276.5,141.0,284.0,140.5,291.5,140.5,299.0,140.0,307.0,139.0,315.5,138.0,323.5,137.0,332.0,135.5,340.0,134.5,348.5,133.5,356.5,133.5,364.5,134.0,372.5,134.0,380.5,134.0,388.5,134.0,396.5,134.0" stroke="black" stroke-width="2" fill="none" />
<polyline points="389.0,110.0,380.0,110.0,371.5,109.5,363.5,110.0,355.5,110.0,347.5,111.0,339.5,112.5,332.0,113.5,324.5,114.0,316.5,114.5,308.0,115.5,299.5,116.0,291.5,117.0,283.0,118.0,274.5,118.5" stroke="black" stroke-width="2" fill="none" />
<polyline points="277.5,113.5,285.0,108.5,293.5,104.5,301.5,100.5,309.5,98.0,317.5,96.0,325.5,93.5,315.5,103.5,308.5,112.0,310.5,116.0,318.5,117.5,326.5,117.0,334.5,118.0,342.5,117.0,349.5,118.5,357.0,118.5,365.0,116.5,373.0,117.0" stroke="black" stroke-width="2" fill="none" />
<polyline points="395.0,125.0,387.5,125.5,379.5,125.5,371.5,126.0,364.0,126.0,356.5,126.5,348.5,127.0,340.5,127.5,332.5,128.5,324.5,129.0,317.0,129.5,309.0,130.5,300.5,131.5,292.5,132.5,284.5,133.5,276.5,134.5,269.0,135.0" stroke="black" stroke-width="2" fill="none" />
<polyline points="268.5,127.0,276.5,119.0,284.0,117.5,291.5,119.0,299.5,118.5,307.0,119.0,315.5,119.5,323.5,119.5,332.0,120.5,340.0,121.0,348.0,121.0,356.0,120.5,364.0,121.0,372.0,121.0,379.5,119.0,387.5,119.5" stroke="black" stroke-width="2" fill="none" />
<polyline points="395.0,118.0,387.0,118.0,379.5,118.5,372.0,119.0,364.0,119.0,355.5,119.5,347.5,120.0,340.0,120.5,332.0,120.0,324.0,120.0,316.5,120.0,308.5,120.5,300.5,121.5,292.5,122.5,284.0,124.0,276.0,125.0,267.5,125.5" stroke="black" stroke-width="2" fill="none" />
<polyline points="270.0,127.0,269.0,135.5,273.0,128.5,275.5,137.5" stroke="black" stroke-width="2" fill="none" />
<polyline points="281.5,114.5,289.5,113.5,297.5,110.5,298.5,107.0,306.0,103.0" stroke="black" stroke-width="2" fill="none" />
<polyline points="321.0,86.5,322.0,81.0,326.0,85.0,334.5,85.5,341.0,80.0" stroke="black" stroke-width="2" fill="none" />
<polyline points="234.5,170.0,227.0,178.0,219.0,186.0,211.5,193.5,204.0,201.5" stroke="black" stroke-width="2" fill="none" />
<polyline points="203.0,209.0,211.0,201.0,219.0,193.0,226.0,184.5,233.5,177.0" stroke="black" stroke-width="2" fill="none" />
<polyline points="226.5,173.0,218.5,180.0,210.5,187.0,202.5,194.5,195.0,201.5" stroke="black" stroke-width="2" fill="none" />
<polyline points="195.5,202.0,188.0,202.5" stroke="black" stroke-width="2" fill="none" />
<polyline points="188.0,200.5,196.0,193.5,203.5,186.5,212.0,179.0,220.0,172.0,228.0,164.5" stroke="black" stroke-width="2" fill="none" />
<polyline points="221.0,163.0,213.0,170.5,205.0,178.0" stroke="black" stroke-width="2" fill="none" />
<polyline points="196.0,180.5,204.0,173.0,212.0,165.5" stroke="black" stroke-width="2" fill="none" />
<polyline points="214.5,164.0,223.5,172.0" stroke="black" stroke-width="2" fill="none" />
<polyline points="218.5,168.5,211.0,168.5" stroke="black" stroke-width="2" fill="none" />
<polyline points="216.5,164.0,224.5,171.5,232.0,172.5,240.0,180.5,242.0,188.0,240.5,195.5" stroke="black" stroke-width="2" fill="none" />
<polyline points="244.0,196.0,236.0,203.5,228.0,211.5,220.0,219.5,212.0,226.5" stroke="black" stroke-width="2" fill="none" />
<polyline points="210.0,226.0,218.0,225.5,226.0,225.0" stroke="black" stroke-width="2" fill="none" />
<polyline points="221.0,226.5,229.0,219.0,237.5,211.5,245.5,203.5" stroke="black" stroke-width="2" fill="none" />
<polyline points="244.0,188.0,236.0,195.5,228.0,203.0,220.0,210.5,211.5,217.5,203.0,224.5,195.0,232.0" stroke="black" stroke-width="2" fill="none" />
<polyline points="194.5,225.5,186.5,233.0,178.5,241.5,170.5,249.5,163.0,257.5" stroke="black" stroke-width="2" fill="none" />
<polyline points="161.0,261.5,169.0,260.5,177.5,259.5,186.0,258.5,194.0,258.5" stroke="black" stroke-width="2" fill="none" />
<polyline points="189.0,261.5,181.0,269.5,173.0,276.5,165.0,283.5" stroke="black" stroke-width="2" fill="none" />
<polyline points="164.5,282.5,173.0,282.0,181.0,281.5,188.5,281.5" stroke="black" stroke-width="2" fill="none" />
<polyline points="188.0,284.5,180.0,292.5,171.5,300.0,163.5,307.5" stroke="black" stroke-width="2" fill="none" />
<polyline points="163.5,307.0,171.5,306.5,179.5,306.0,187.5,305.0" stroke="black" stroke-width="2" fill="none" />
<polyline points="195.0,308.5,187.0,316.0,179.0,323.5,170.5,330.0,162.5,337.0,155.0,343.5" stroke="black" stroke-width="2" fill="none" />
<polyline points="154.5,341.5,162.5,341.0,171.0,340.0,179.0,339.5,187.0,339.0,195.5,338.5,203.5,338.5" stroke="black" stroke-width="2" fill="none" />
<polyline points="198.0,344.5,206.0,349.5,213.5,353.5" stroke="black" stroke-width="2" fill="none" />
<polyline points="210.5,363.0,202.5,363.0,195.0,363.5,187.5,363.5,179.0,364.0,171.5,364.0,163.5,364.0,156.0,364.0,148.5,364.5" stroke="black" stroke-width="2" fill="none" />
<polyline points="154.0,363.0,162.0,355.5" stroke="black" stroke-width="2" fill="none" />
<polyline points="161.5,363.0,170.0,365.0,178.0,364.0,186.0,364.0,194.0,362.5" stroke="black" stroke-width="2" fill="none" />
<polyline points="189.0,363.0,197.0,355.5" stroke="black" stroke-width="2" fill="none" />
<polyline points="201.0,352.5,209.0,353.5" stroke="black" stroke-width="2" fill="none" />
<polyline points="211.0,347.0,203.5,346.5,196.0,346.5,188.5,346.5,180.5,347.0,172.5,347.5,164.0,348.5,155.5,349.0,147.5,350.0" stroke="black" stroke-width="2" fill="none" />
<polyline points="147.0,349.5,138.0,357.5,139.5,361.5,144.5,352.0,153.5,352.0" stroke="black" stroke-width="2" fill="none" />
<polyline points="149.5,359.0,141.5,364.0" stroke="black" stroke-width="2" fill="none" />
<polyline points="141.5,358.5,149.0,358.0,156.5,357.5,164.0,356.5,172.0,356.0,180.0,356.0,187.5,355.0,195.5,353.5,203.0,353.0,211.0,353.0,219.5,353.0" stroke="black" stroke-width="2" fill="none" />
<polyline points="213.5,357.5,206.0,363.5,198.0,364.5,189.5,367.0,181.5,367.0,173.5,368.0,165.5,367.0,157.5,366.0" stroke="black" stroke-width="2" fill="none" />
<polyline points="164.0,364.5,171.5,357.0" stroke="black" stroke-width="2" fill="none" />
<polyline points="171.5,361.0,179.5,353.5" stroke="black" stroke-width="2" fill="none" />
<polyline points="180.0,362.5,188.0,354.5,196.0,347.0" stroke="black" stroke-width="2" fill="none" />
<polyline points="197.5,346.5,202.5,354.5,211.5,359.5" stroke="black" stroke-width="2" fill="none" />
<polyline points="193.5,338.0,185.5,345.5" stroke="black" stroke-width="2" fill="none" />
<polyline points="178.0,346.5,186.0,337.5,194.0,330.0" stroke="black" stroke-width="2" fill="none" />
<polyline points="193.5,324.0,186.5,331.5,179.0,338.5,171.5,346.0" stroke="black" stroke-width="2" fill="none" />
<polyline points="162.5,345.0,170.5,338.0,179.0,331.0,187.5,324.0,195.5,316.0" stroke="black" stroke-width="2" fill="none" />
<polyline points="195.5,300.0,187.5,308.0,179.5,315.5,171.5,323.0,163.5,330.5,155.5,338.0" stroke="black" stroke-width="2" fill="none" />
<polyline points="157.0,332.0,165.0,331.5,173.0,331.5,180.5,332.0,188.0,332.5,195.5,332.5" stroke="black" stroke-width="2" fill="none" />
<polyline points="195.0,337.0,187.0,337.5,179.0,338.0,171.0,338.5,163.5,339.0" stroke="black" stroke-width="2" fill="none" />
<polyline points="161.5,331.5,169.5,331.0,177.5,330.0,185.5,329.0,194.0,328.0" stroke="black" stroke-width="2" fill="none" />
<polyline points="197.0,323.5,189.5,323.5,181.5,324.0,173.5,324.0,165.5,323.5,157.5,324.0" stroke="black" stroke-width="2" fill="none" />
<polyline points="156.5,328.0,165.0,321.0,173.5,313.5,181.5,306.5,189.0,299.0,197.0,291.5" stroke="black" stroke-width="2" fill="none" />
<polyline points="197.0,284.0,189.0,291.0,180.5,298.0,172.5,305.0,164.5,312.5,156.5,320.0" stroke="black" stroke-width="2" fill="none" />
<polyline points="157.0,316.0,165.0,315.5,173.0,315.5,180.0,315.5,187.5,315.5,195.0,315.5" stroke="black" stroke-width="2" fill="none" />
<polyline points="194.0,320.0,186.0,320.5,178.5,321.0,170.5,321.0,162.5,321.5" stroke="black" stroke-width="2" fill="none" />
<polyline points="166.5,314.5,165.5,322.5,165.5,330.0,165.0,338.0,159.5,339.5,164.0,347.5,159.0,354.5,156.0,358.5,152.0,363.5,153.5,360.0,161.5,352.0,165.5,354.0,173.0,352.5,180.5,352.0,188.5,349.5,201.0,357.0" stroke="black" stroke-width="2" fill="none" />
<polyline points="188.0,360.5,179.5,361.0,171.5,361.5" stroke="black" stroke-width="2" fill="none" />
<polyline points="154.5,351.0,146.5,354.0,138.5,359.0" stroke="black" stroke-width="2" fill="none" />
<polyline points="133.5,355.5,142.0,352.0,150.0,344.5,159.0,338.0,165.5,345.0" stroke="black" stroke-width="2" fill="none" />
<polyline points="173.5,344.0,175.0,336.0" stroke="black" stroke-width="2" fill="none" />
<polyline points="178.5,335.5,180.5,343.5" stroke="black" stroke-width="2" fill="none" />
<polyline points="186.5,344.0,187.5,336.0" stroke="black" stroke-width="2" fill="none" />
<polyline points="188.5,333.5,186.0,341.5,190.5,349.5,181.5,349.5" stroke="black" stroke-width="2" fill="none" />
<polyline points="193.0,352.0,185.0,343.0,177.0,345.0,169.5,343.5,168.5,344.0,168.5,336.0,168.5,328.0" stroke="black" stroke-width="2" fill="none" />
<polyline points="163.5,313.0,171.5,313.0,179.0,313.0,187.0,313.0" stroke="black" stroke-width="2" fill="none" />
<polyline points="188.5,296.0,180.5,297.0,172.5,297.5,164.5,297.5" stroke="black" stroke-width="2" fill="none" />
<polyline points="163.0,297.0,171.0,289.5,179.0,282.0,187.0,274.0" stroke="black" stroke-width="2" fill="none" />
<polyline points="187.5,268.5,179.5,275.5,171.5,283.0,163.0,290.5" stroke="black" stroke-width="2" fill="none" />
<polyline points="163.5,290.0,171.5,289.5,179.5,289.0,187.5,289.0" stroke="black" stroke-width="2" fill="none" />
<polyline points="196.0,284.5,188.5,284.5,181.0,285.0,173.0,285.0,165.0,285.5" stroke="black" stroke-width="2" fill="none" />
<polyline points="162.0,280.0,170.0,279.5,178.0,278.5,186.0,278.0,194.0,277.0" stroke="black" stroke-width="2" fill="none" />
<polyline points="188.5,252.0,180.5,259.5,173.0,267.5,164.5,275.0" stroke="black" stroke-width="2" fill="none" />
<polyline points="164.5,273.0,172.0,272.0,179.5,271.5,187.0,271.5" stroke="black" stroke-width="2" fill="none" />
<polyline points="186.5,251.0,179.0,251.5" stroke="black" stroke-width="2" fill="none" />
<polyline points="177.5,242.5,186.0,242.0" stroke="black" stroke-width="2" fill="none" />
<polyline points="186.5,243.5,178.5,251.0,170.0,258.5,162.0,265.5" stroke="black" stroke-width="2" fill="none" />
<polyline points="164.0,264.0,171.5,264.0,179.0,263.5,187.0,264.0" stroke="black" stroke-width="2" fill="none" />
<polyline points="187.5,257.0,179.0,257.5,170.5,258.5" stroke="black" stroke-width="2" fill="none" />
<polyline points="163.0,252.5,171.0,252.5,179.0,252.5,187.0,252.0,195.0,251.0" stroke="black" stroke-width="2" fill="none" />
<polyline points="195.5,267.5,188.0,267.0,180.5,267.5,173.0,268.0,165.0,268.5" stroke="black" stroke-width="2" fill="none" />
<polyline points="163.0,249.5,171.0,243.0,179.5,236.0,187.5,228.5" stroke="black" stroke-width="2" fill="none" />
<polyline points="189.5,223.0,197.5,227.5" stroke="black" stroke-width="2" fill="none" />
<polyline points="203.0,218.0,211.0,210.0,219.0,202.5,226.5,195.0,235.0,188.0,243.0,180.5" stroke="black" stroke-width="2" fill="none" />
<polyline points="237.5,184.0,229.5,184.5" stroke="black" stroke-width="2" fill="none" />
<polyline points="235.0,187.5,233.5,195.5,233.0,203.5,233.0,201.0" stroke="black" stroke-width="2" fill="none" />
<polyline points="226.0,202.0,228.0,194.0" stroke="black" stroke-width="2" fill="none" />
<polyline points="222.5,195.5,220.0,203.5" stroke="black" stroke-width="2" fill="none" />
<polyline points="216.0,203.5,218.5,195.5" stroke="black" stroke-width="2" fill="none" />
<polyline points="219.5,192.5,227.5,192.0,236.0,192.0,244.5,191.5" stroke="black" stroke-width="2" fill="none" />
<polyline points="242.0,198.5,234.0,199.0,226.0,200.0,218.0,201.0,210.0,201.5,202.0,202.5,194.0,203.0,186.0,203.5,178.5,203.0,170.5,203.0,163.0,203.0,155.0,203.0,147.0,203.5,139.0,203.5,131.0,203.5,123.5,203.5,115.5,203.5" stroke="black" stroke-width="2" fill="none" />
<polyline points="115.0,208.0,123.0,200.5,131.0,192.5,139.0,185.0,147.5,177.0,155.5,169.5,164.0,162.0,172.5,154.5,181.0,147.5,189.0,140.5" stroke="black" stroke-width="2" fill="none" />
<polyline points="188.0,147.5,181.0,155.5,173.5,163.0,165.5,171.0,157.5,179.0,149.0,186.5,141.0,194.5" stroke="black" stroke-width="2" fill="none" />
<polyline points="140.0,194.5,147.5,194.0,155.5,193.5,163.5,192.5" stroke="black" stroke-width="2" fill="none" />
<polyline points="163.0,191.5,159.0,199.5,154.0,210.0,164.0,204.0,175.5,201.0" stroke="black" stroke-width="2" fill="none" />
<polyline points="171.0,194.5,178.5,186.5" stroke="black" stroke-width="2" fill="none" />
<polyline points="175.5,189.5,174.5,197.5,166.0,204.5,165.0,221.0,168.0,218.0,168.5,212.5,170.5,216.0" stroke="black" stroke-width="2" fill="none" />
<polyline points="171.5,221.0,163.5,228.5,155.5,236.5" stroke="black" stroke-width="2" fill="none" />
<polyline points="161.0,233.5,163.0,241.0,162.0,249.0,161.5,257.5,161.5,266.0,160.5,274.0,159.5,281.5,159.0,290.0,159.0,298.0,158.0,306.0,157.5,314.0,156.5,321.5,155.5,329.5,154.0,337.5,149.0,346.0,153.0,349.0,145.5,357.0,145.0,361.5,149.0,365.5,157.0,365.5,162.0,360.5,170.0,363.0,178.0,363.0,186.0,363.0,193.0,357.5,195.0,359.5,202.0,353.5,209.5,357.5" stroke="black" stroke-width="2" fill="none" />
<polyline points="195.5,306.5,188.0,307.5,180.5,308.5,172.5,309.5,165.0,310.0,157.0,311.0" stroke="black" stroke-width="2" fill="none" />
<polyline points="155.5,301.0,164.0,300.5,172.5,300.0,180.5,299.5,188.5,299.0,196.5,298.5" stroke="black" stroke-width="2" fill="none" />
<polyline points="195.0,291.5,187.0,292.0,179.0,291.5,171.0,292.0,163.5,292.5,155.0,293.0" stroke="black" stroke-width="2" fill="none" />
<polyline points="163.5,245.0,172.0,244.0,179.5,243.5,187.0,242.5,195.0,242.0" stroke="black" stroke-width="2" fill="none" />
<polyline points="195.5,235.0,187.5,235.0,180.0,235.0,172.0,235.5,164.5,235.5" stroke="black" stroke-width="2" fill="none" />
<polyline points="164.0,237.5,173.0,230.0" stroke="black" stroke-width="2" fill="none" />
<polyline points="171.5,233.0,179.0,226.0" stroke="black" stroke-width="2" fill="none" />
<polyline points="179.0,232.5,171.5,233.0,163.5,233.0" stroke="black" stroke-width="2" fill="none" />
<polyline points="163.5,225.5,155.5,226.0,147.5,226.5,139.0,227.0" stroke="black" stroke-width="2" fill="none" />
<polyline points="137.5,225.5,145.5,218.0,154.0,210.0,162.0,202.5" stroke="black" stroke-width="2" fill="none" />
<polyline points="155.0,204.0,153.0,196.0" stroke="black" stroke-width="2" fill="none" />
<polyline points="149.5,194.0,147.5,202.0,151.5,205.5" stroke="black" stroke-width="2" fill="none" />
<polyline points="144.5,200.0,141.5,208.0" stroke="black" stroke-width="2" fill="none" />
<polyline points="139.5,203.5,131.0,211.5,122.5,219.0" stroke="black" stroke-width="2" fill="none" />
<polyline points="122.5,220.0,130.5,219.0,139.0,218.5,147.0,217.5,154.5,216.5,163.0,215.5" stroke="black" stroke-width="2" fill="none" />
<polyline points="166.0,222.5,174.0,226.5,182.5,226.5,191.5,229.5,187.5,231.5,182.5,231.5,177.5,239.5,173.0,240.5,170.0,245.0,178.0,246.0,181.0,243.0,181.0,238.0,184.0,239.5,190.0,233.5,197.5,232.0,205.0,230.5,213.0,229.5,221.0,226.5,229.0,220.5,237.0,212.5" stroke="black" stroke-width="2" fill="none" />
<polyline points="235.0,216.5,227.0,217.0,218.5,217.5,210.5,218.0" stroke="black" stroke-width="2" fill="none" />
<polyline points="193.5,213.5,202.0,213.0,211.0,213.0,220.0,213.0,228.5,212.5,236.5,212.0,244.5,211.5" stroke="black" stroke-width="2" fill="none" />
<polyline points="236.0,215.0,227.5,216.0,219.5,217.0,211.5,217.5,203.5,218.0,196.0,218.5,188.0,218.5,180.5,218.0,172.5,218.0,164.5,218.5,156.0,219.5,147.5,220.0,139.0,221.0,131.0,222.5,122.5,223.0" stroke="black" stroke-width="2" fill="none" />
<polyline points="132.5,226.5,140.5,218.5,148.0,210.5,155.5,203.0,163.5,195.5,171.5,188.5" stroke="black" stroke-width="2" fill="none" />
<polyline points="176.0,191.5,179.0,199.5,169.0,208.5,177.0,205.5,185.5,202.0,193.0,203.0,201.0,205.5,206.5,212.5" stroke="black" stroke-width="2" fill="none" />
<polyline points="220.0,225.5,212.0,226.0,204.0,227.0,196.0,227.5,188.0,227.5,180.0,228.0,172.5,228.0,164.0,229.0,155.5,229.5,147.5,230.5,140.0,231.0" stroke="black" stroke-width="2" fill="none" />
<polyline points="155.5,225.5,163.0,217.5,171.5,210.0,179.5,203.0,187.5,195.5,195.5,188.0" stroke="black" stroke-width="2" fill="none" />
<polyline points="194.5,193.5,202.5,190.5,194.5,195.0,200.5,205.5,207.5,214.0,204.5,222.0,200.5,226.0" stroke="black" stroke-width="2" fill="none" />
<polyline points="188.5,234.5,189.5,242.5,188.5,250.0,190.0,258.0,189.5,266.0,190.5,274.0,191.0,282.0,192.0,289.5,193.5,297.0,193.5,305.0,194.5,312.5,194.5,320.5,194.5,329.0,195.5,337.5,197.5,346.0,197.5,354.0,199.5,357.0" stroke="black" stroke-width="2" fill="none" />
<polyline points="145.5,365.5,134.5,357.5,144.0,349.5" stroke="black" stroke-width="2" fill="none" />
<polyline points="170.5,243.0,178.5,239.0" stroke="black" stroke-width="2" fill="none" />
<polyline points="147.0,226.0,155.0,218.5,163.0,211.5,171.0,204.0,179.5,196.0,187.5,188.5" stroke="black" stroke-width="2" fill="none" />
<polyline points="188.5,195.0,196.5,194.5" stroke="black" stroke-width="2" fill="none" />
<polyline points="202.0,191.0,203.0,199.0,207.0,200.5,210.0,205.5,220.5,194.5,230.5,194.0" stroke="black" stroke-width="2" fill="none" />
<polyline points="236.0,198.5,238.0,196.5,237.5,188.0" stroke="black" stroke-width="2" fill="none" />
<polyline points="236.0,167.5,228.5,167.5,221.0,168.0,213.0,168.0,205.0,168.5,197.5,169.5,189.0,170.5,181.0,171.5,173.0,172.5,165.0,173.5,157.0,174.0,148.5,174.0,140.0,174.0,131.5,174.0,123.5,174.0" stroke="black" stroke-width="2" fill="none" />
<polyline points="123.0,173.5,130.5,172.0,137.5,177.0,145.0,178.5,153.0,178.5,160.5,163.0" stroke="black" stroke-width="2" fill="none" />
<polyline points="155.0,159.5,163.5,159.0,171.5,158.5,180.0,158.5,188.0,158.5,196.0,158.0" stroke="black" stroke-width="2" fill="none" />
<polyline points="196.0,157.5,188.0,164.5,179.5,172.0,171.0,179.0,163.5,185.5,156.0,192.0,148.0,199.5,140.5,206.5,133.0,214.0" stroke="black" stroke-width="2" fill="none" />
<polyline points="131.5,210.0,123.5,210.5" stroke="black" stroke-width="2" fill="none" />
<polyline points="123.5,210.0,131.5,202.5" stroke="black" stroke-width="2" fill="none" />
<polyline points="133.0,203.5,134.0,195.0,140.0,194.0" stroke="black" stroke-width="2" fill="none" />
<polyline points="134.0,189.5,130.0,197.5,141.5,206.5" stroke="black" stroke-width="2" fill="none" />
<polyline points="149.0,194.5,156.5,186.5,164.5,179.0,172.0,171.5,179.5,164.0,187.5,156.5" stroke="black" stroke-width="2" fill="none" />
<polyline points="187.0,150.0,178.5,151.0,170.0,151.5" stroke="black" stroke-width="2" fill="none" />
<polyline points="169.5,155.5,178.0,155.5" stroke="black" stroke-width="2" fill="none" />
<polyline points="180.0,146.5,188.0,145.5" stroke="black" stroke-width="2" fill="none" />
<polyline points="196.0,140.5,187.5,140.5,179.0,141.0,171.5,142.0" stroke="black" stroke-width="2" fill="none" />
<polyline points="170.0,142.5,177.5,141.5" stroke="black" stroke-width="2" fill="none" />
<polyline points="170.5,145.0,178.0,137.0,186.0,129.0" stroke="black" stroke-width="2" fill="none" />
<polyline points="188.0,133.5,180.0,134.0,172.0,134.5" stroke="black" stroke-width="2" fill="none" />
<polyline points="171.0,139.0,178.5,131.5" stroke="black" stroke-width="2" fill="none" />
<polyline points="181.5,132.0,189.5,139.0" stroke="black" stroke-width="2" fill="none" />
<polyline points="187.5,125.5,179.5,125.5,172.0,126.0" stroke="black" stroke-width="2" fill="none" />
<polyline points="171.5,125.5,179.5,119.5,181.5,123.5,182.0,131.5,190.0,139.5,184.5,147.5" stroke="black" stroke-width="2" fill="none" />
<polyline points="195.5,156.0,203.5,158.5,211.5,168.5,219.0,174.5,227.0,176.0" stroke="black" stroke-width="2" fill="none" />
<polyline points="211.0,178.0,203.0,178.5,195.0,179.0" stroke="black" stroke-width="2" fill="none" />
<polyline points="188.5,178.5,197.0,171.0,205.0,163.5,213.0,156.0" stroke="black" stroke-width="2" fill="none" />
<polyline points="203.5,156.5,196.0,164.5,188.0,172.0,180.0,179.5" stroke="black" stroke-width="2" fill="none" />
<polyline points="179.0,176.0,171.0,176.0,163.0,176.0" stroke="black" stroke-width="2" fill="none" />
<polyline points="159.5,185.0,167.5,185.0,175.5,185.0,183.5,186.0" stroke="black" stroke-width="2" fill="none" />
<polyline points="167.0,192.5,165.0,200.5,167.0,205.5" stroke="black" stroke-width="2" fill="none" />
<polyline points="180.5,210.0,172.5,210.5,163.5,211.0,155.5,211.5,147.5,211.5,139.5,212.0,131.5,212.5,123.0,213.5,115.0,214.0" stroke="black" stroke-width="2" fill="none" />
<polyline points="115.0,200.5,123.5,193.5,131.0,186.0,138.5,178.5,147.0,170.5,155.0,163.0,163.0,155.0" stroke="black" stroke-width="2" fill="none" />
<polyline points="163.0,156.5,158.0,164.0,154.0,172.5,158.5,162.5" stroke="black" stroke-width="2" fill="none" />
<polyline points="153.5,157.0,145.5,164.5,138.0,171.5,130.5,178.5,123.5,186.0,115.5,193.5" stroke="black" stroke-width="2" fill="none" />
<polyline points="114.5,196.5,123.0,196.5,131.5,195.5,139.5,195.0,147.0,194.0,155.0,193.5,163.5,193.5,172.0,193.0,180.0,192.5,188.5,192.5,196.5,192.0,204.0,191.0,211.5,190.5,219.0,190.5,227.0,190.5,234.5,190.5,243.0,189.5" stroke="black" stroke-width="2" fill="none" />
<polyline points="243.5,174.0,235.0,174.5,227.0,175.0,219.0,175.0,211.0,174.5,203.5,175.0,196.0,175.0,188.0,175.5,179.5,176.5,171.0,177.5,162.5,178.0,154.5,179.0,147.0,180.0,138.5,181.0,130.5,181.5,122.5,181.0,114.5,181.5" stroke="black" stroke-width="2" fill="none" />
<polyline points="113.0,184.5,121.5,184.0,130.0,184.0" stroke="black" stroke-width="2" fill="none" />
<polyline points="129.5,187.0,126.5,195.0,127.5,203.5,126.0,199.5,127.0,191.0" stroke="black" stroke-width="2" fill="none" />
<polyline points="118.5,189.0,119.5,197.0" stroke="black" stroke-width="2" fill="none" />
<polyline points="118.0,188.0,117.5,191.0,118.5,198.5,115.5,201.5,116.5,214.0,125.0,216.0,127.0,221.5,135.0,225.5,142.5,228.5,150.5,230.0,158.5,231.0,171.5,232.0" stroke="black" stroke-width="2" fill="none" />
<polyline points="207.5,205.5,207.0,197.5,215.5,192.5,207.5,193.5" stroke="black" stroke-width="2" fill="none" />
<polyline points="214.0,192.0,215.5,200.5" stroke="black" stroke-width="2" fill="none" />
<polyline points="202.0,167.0,194.5,167.5,187.5,168.0,180.0,168.0,172.5,168.5,164.5,169.0,156.5,169.0,148.0,169.5,139.5,169.5" stroke="black" stroke-width="2" fill="none" />
<polyline points="138.0,165.0,130.0,172.5,122.5,179.5,114.5,186.5" stroke="black" stroke-width="2" fill="none" />
<polyline points="114.0,188.5,115.0,196.5,122.0,200.0,136.0,193.0,138.0,198.0,149.0,195.0,159.0,194.0,167.0,191.5,177.0,189.5" stroke="black" stroke-width="2" fill="none" />
<polyline points="165.5,157.0,160.5,165.0,156.5,174.0,162.5,179.0,170.0,179.0,178.0,179.5,185.0,179.0,193.0,180.5,200.5,180.5,208.5,179.0,216.5,176.0" stroke="black" stroke-width="2" fill="none" />
<polyline points="227.0,160.0,219.5,160.0,211.5,160.0,203.5,161.0,195.5,161.5,187.5,162.5,179.0,163.0,171.5,163.5,163.5,164.0,156.0,164.0,148.0,164.5,139.5,165.0,131.5,166.0" stroke="black" stroke-width="2" fill="none" />
<polyline points="141.0,157.5,148.5,156.5,156.0,156.0,163.5,156.0,171.5,155.5,179.5,155.0,187.5,155.0,195.5,154.5,203.0,154.0,210.5,153.0,218.5,152.5" stroke="black" stroke-width="2" fill="none" />
<polyline points="203.0,152.0,219.0,160.0,230.0,168.0,228.5,173.0" stroke="black" stroke-width="2" fill="none" />
<polyline points="244.5,179.5,235.5,180.0,227.0,181.0,218.0,181.5,210.0,181.5,201.5,182.5,193.0,183.5,185.0,184.5,177.0,184.5,169.0,185.0,161.5,185.5,154.0,186.5,147.0,187.0,139.0,187.5,131.5,188.5,124.0,189.0,116.5,189.5,108.5,190.0" stroke="black" stroke-width="2" fill="none" />
<polyline points="112.0,187.5,112.0,196.0" stroke="black" stroke-width="2" fill="none" />
<polyline points="110.5,184.5,118.5,175.5,126.5,177.5,134.5,178.5,142.5,179.5,150.5,180.5,158.5,180.5,166.5,181.0,174.0,181.5,182.0,181.5,190.0,181.5,198.0,181.5,205.5,180.5,213.5,179.5,221.0,177.5,229.0,177.0,236.5,178.0,243.5,188.5,244.0,196.5,242.0,204.0,238.0,212.0,229.5,220.0" stroke="black" stroke-width="2" fill="none" />
<polyline points="208.0,170.0,200.0,161.0" stroke="black" stroke-width="2" fill="none" />
<polyline points="201.0,157.0,207.0,165.0,213.5,172.5" stroke="black" stroke-width="2" fill="none" />
<polyline points="209.5,170.5,202.5,163.0,197.0,155.0" stroke="black" stroke-width="2" fill="none" />
<polyline points="164.5,149.5,156.5,150.5,148.5,153.0,140.5,157.5,132.5,162.5,124.5,168.0,116.0,172.0" stroke="black" stroke-width="2" fill="none" />
<polyline points="147.5,162.5,139.5,169.0,135.0,174.5,142.0,166.0,152.0,158.0" stroke="black" stroke-width="2" fill="none" />
<polyline points="148.0,153.5,133.0,161.5,122.0,169.5,112.5,179.0,108.5,187.5,108.5,195.5,111.0,203.5,114.0,211.5,120.0,219.5,134.5,227.5" stroke="black" stroke-width="2" fill="none" />
<polyline points="232.0,169.0,224.0,162.5,216.5,157.5,208.5,153.5,200.5,151.5,192.5,150.5,189.5,143.5,182.0,143.5,174.0,141.0,166.0,143.0,165.0,142.5,167.0,134.5,170.5,126.5,174.5,118.5" stroke="black" stroke-width="2" fill="none" />
</svg>