<svg xmlns="http://www.w3.org/2000/svg" version="1.1"><path d="M333.0,65.5,329.0,73.5,323.0,81.5,323.0,90.0,329.5,94.0,329.5,92.0,337.0,92.0,333.0,88.0,340.5,91.5,343.5,96.5,351.5,99.0,359.5,101.5,367.5,104.0,375.5,108.5,383.5,113.0,393.0,126.0" stroke="black" stroke-width="2" fill="none" />
<path d="M396.5,130.0,389.0,137.5,380.0,145.5,371.5,152.5,362.5,160.0,354.0,168.0" stroke="black" stroke-width="2" fill="none" />
<path d="M347.0,168.5,355.0,161.0,363.0,153.5,371.5,146.0,380.5,137.5,389.0,130.0" stroke="black" stroke-width="2" fill="none" />
<path d="M388.0,128.5,380.0,128.5,372.0,129.0,364.0,129.0" stroke="black" stroke-width="2" fill="none" />
<path d="M365.5,132.0,368.5,140.0" stroke="black" stroke-width="2" fill="none" />
<path d="M363.0,139.5,355.0,147.0" stroke="black" stroke-width="2" fill="none" />
<path d="M347.5,145.0,355.0,138.0,362.5,130.5,370.5,123.5,378.5,116.0" stroke="black" stroke-width="2" fill="none" />
<path d="M378.5,123.0,371.0,131.0" stroke="black" stroke-width="2" fill="none" />
<path d="M372.0,133.5,369.5,141.5" stroke="black" stroke-width="2" fill="none" />
<path d="M371.0,148.0,364.0,138.0,358.5,134.0,365.5,131.5,357.5,135.5" stroke="black" stroke-width="2" fill="none" />
<path d="M348.5,137.5,349.5,131.0,357.0,131.0,347.0,136.5,357.5,146.5,348.0,157.0,355.0,156.5,351.0,162.5,356.0,153.5" stroke="black" stroke-width="2" fill="none" />
<path d="M364.0,153.0,372.5,152.5,381.0,152.5,389.0,152.5" stroke="black" stroke-width="2" fill="none" />
<path d="M395.0,147.5,386.5,154.5,378.5,161.5" stroke="black" stroke-width="2" fill="none" />
<path d="M389.0,159.5,381.0,160.0,372.5,161.0,364.0,161.0" stroke="black" stroke-width="2" fill="none" />
<path d="M363.0,168.5,372.0,160.5,380.0,153.0,387.5,145.5,395.5,138.0" stroke="black" stroke-width="2" fill="none" />
<path d="M395.5,141.5,388.0,142.5,380.5,143.0,373.0,144.0,365.0,145.0,357.5,145.5,349.5,146.0,341.0,146.0,333.0,146.0,324.5,146.0,316.5,146.0,308.0,147.0,299.5,148.0,291.0,149.0,283.5,149.5,275.5,150.5" stroke="black" stroke-width="2" fill="none" />
<path d="M276.0,152.0,284.0,152.0,292.0,151.5,300.0,151.5,309.0,151.5,317.5,151.5,325.5,151.5" stroke="black" stroke-width="2" fill="none" />
<path d="M333.0,154.5,325.0,162.0,316.5,170.0" stroke="black" stroke-width="2" fill="none" />
<path d="M316.5,173.0,324.0,172.5,332.5,172.0,341.0,171.5,349.5,171.0" stroke="black" stroke-width="2" fill="none" />
<path d="M347.0,170.0,355.0,169.0,363.0,168.5" stroke="black" stroke-width="2" fill="none" />
<path d="M348.5,177.5,340.5,178.5,333.0,179.5,325.0,180.5,317.5,181.0" stroke="black" stroke-width="2" fill="none" />
<path d="M324.0,184.0,332.5,177.0,340.5,169.5,348.5,162.0,356.0,154.5,363.5,147.0,371.0,139.5,379.0,131.0,387.0,123.0" stroke="black" stroke-width="2" fill="none" />
<path d="M386.5,125.5,391.0,135.5,396.0,144.5,393.0,152.0,387.0,160.0,372.0,168.5,376.0,158.0" stroke="black" stroke-width="2" fill="none" />
<path d="M380.0,162.0,372.0,162.5,364.0,163.0,356.5,164.0,349.0,164.5,341.5,164.5,334.0,165.0,325.5,165.0,318.0,165.0,309.5,165.5,301.5,166.0,293.5,166.5" stroke="black" stroke-width="2" fill="none" />
<path d="M298.0,166.0,306.5,158.5,315.5,150.5,324.5,143.0,332.5,136.0,339.5,129.0,347.5,122.0,355.5,115.0,363.5,107.0" stroke="black" stroke-width="2" fill="none" />
<path d="M361.5,102.0,375.5,110.0,389.0,121.0,387.0,126.5,395.0,130.5,397.0,134.5,395.5,142.0,388.5,144.5,391.0,145.5" stroke="black" stroke-width="2" fill="none" />
<path d="M387.5,151.5,380.0,152.0,372.5,152.5,364.5,152.5,356.0,153.0,348.0,153.5,339.5,154.0,331.0,154.0,323.0,153.5,315.0,153.5,307.5,154.0,299.5,155.5,291.0,156.5,283.5,157.5,275.0,158.0" stroke="black" stroke-width="2" fill="none" />
<path d="M275.0,153.0,283.0,146.5,290.5,139.0,299.0,132.0,307.0,124.5" stroke="black" stroke-width="2" fill="none" />
<path d="M307.5,127.5,299.5,128.5,291.0,129.5,282.0,130.0,274.0,130.5" stroke="black" stroke-width="2" fill="none" />
<path d="M275.0,130.0,277.0,138.0,288.5,135.0,297.0,133.0,302.5,133.5,312.5,131.0,321.0,130.0,330.5,129.5" stroke="black" stroke-width="2" fill="none" />
<path d="M326.0,128.0,327.0,135.5,336.0,140.5,336.0,135.5,344.5,139.0,352.5,142.0,357.5,151.5" stroke="black" stroke-width="2" fill="none" />
<path d="M347.5,155.0,340.0,162.5,332.0,170.5,324.0,178.5" stroke="black" stroke-width="2" fill="none" />
<path d="M325.0,178.0,332.5,177.0,340.5,176.5" stroke="black" stroke-width="2" fill="none" />
<path d="M343.5,173.5,351.0,172.0,359.0,172.0,367.0,169.5,374.5,167.0,382.0,162.0,390.0,154.5" stroke="black" stroke-width="2" fill="none" />
<path d="M397.0,133.5,389.0,134.5,380.5,135.0,372.0,135.5,364.5,136.5,356.5,137.0,349.0,138.0,340.5,138.5,332.5,138.5,324.5,138.5,316.0,138.5,308.0,139.0,299.0,140.0,290.5,140.0,282.0,141.0,273.0,141.5,265.0,142.0" stroke="black" stroke-width="2" fill="none" />
<path d="M266.5,133.0,274.5,132.5,282.5,132.0,291.0,132.0,299.5,132.5,308.0,132.0,316.0,131.5,324.5,131.0,332.5,131.0,340.5,131.0,349.0,130.5,357.0,130.0,364.5,129.5,372.0,128.5,379.5,127.5,388.0,127.0,396.0,126.0" stroke="black" stroke-width="2" fill="none" />
<path d="M395.5,118.0,388.0,118.5,380.0,119.0,372.0,118.5,364.0,118.5,356.0,119.0,347.5,119.5,339.5,120.0,332.0,120.5,324.0,121.0,316.0,122.0,307.5,122.5,300.0,123.5,291.5,124.0,283.0,124.0,274.5,124.5,266.5,124.5" stroke="black" stroke-width="2" fill="none" />
<path d="M266.5,126.0,274.5,118.5,282.5,116.5,291.0,119.0,299.0,119.5,307.5,120.5,315.5,120.5,323.5,120.5,331.5,121.5,339.0,121.5,347.0,121.5,355.5,122.0,363.5,121.5,371.5,122.0,379.5,120.0,387.5,119.5" stroke="black" stroke-width="2" fill="none" />
<path d="M388.0,111.0,380.5,111.0,372.5,111.0,364.0,111.5,356.0,111.5,348.5,112.0,341.0,112.5,333.0,113.5,324.5,114.0,315.5,115.0,307.5,116.0,299.0,116.5,290.5,117.5,282.5,118.5,274.5,119.0" stroke="black" stroke-width="2" fill="none" />
<path d="M276.0,113.5,284.0,108.5,291.5,104.5,300.0,101.0,308.0,99.0,316.0,97.0,324.0,95.5,314.0,105.5,307.0,114.0,309.0,118.0,317.0,119.0,325.0,119.0,333.5,119.5,341.5,118.5,349.5,119.0,357.0,119.0,365.0,116.5,372.5,116.5" stroke="black" stroke-width="2" fill="none" />
<path d="M370.0,115.5,363.0,123.0,355.5,130.5,347.5,138.5,339.0,147.0" stroke="black" stroke-width="2" fill="none" />
<path d="M341.0,138.0,348.5,137.5" stroke="black" stroke-width="2" fill="none" />
<path d="M339.0,157.0,331.0,164.5,323.5,171.5" stroke="black" stroke-width="2" fill="none" />
<path d="M314.5,173.0,318.5,181.0,317.5,188.5,316.0,196.5,315.0,204.0,314.0,212.0,313.0,219.5,312.0,227.5,312.0,235.5,311.0,243.0,310.0,250.5,309.0,258.5,308.0,266.5,308.0,275.0,303.5,283.0,290.5,290.0,288.5,298.5,288.5,306.5,288.5,314.5,285.5,322.5,286.5,330.5,281.5,338.5,280.0,346.5" stroke="black" stroke-width="2" fill="none" />
<path d="M279.5,346.0,287.5,351.0,295.5,353.5,304.0,355.5,312.0,356.5,320.5,356.5,328.5,358.0,337.0,358.0,345.0,357.5,353.0,356.5,361.0,355.5,369.0,353.0,375.5,346.0,364.5,354.0" stroke="black" stroke-width="2" fill="none" />
<path d="M362.5,353.5,370.5,345.5" stroke="black" stroke-width="2" fill="none" />
<path d="M373.0,345.0,364.5,345.0" stroke="black" stroke-width="2" fill="none" />
<path d="M373.0,338.0,364.5,345.5,356.5,353.5" stroke="black" stroke-width="2" fill="none" />
<path d="M347.5,352.5,355.5,345.0,364.0,337.5,372.0,330.0" stroke="black" stroke-width="2" fill="none" />
<path d="M371.0,323.0,363.0,330.0,355.0,338.0,347.0,346.0,339.0,354.0" stroke="black" stroke-width="2" fill="none" />
<path d="M333.0,354.5,340.5,346.5,348.0,338.5,356.0,331.0,364.0,324.0" stroke="black" stroke-width="2" fill="none" />
<path d="M361.5,316.5,353.5,324.5,346.5,332.5,339.0,340.5,331.0,348.0,323.5,355.5" stroke="black" stroke-width="2" fill="none" />
<path d="M328.0,354.5,336.0,353.0,344.0,352.0,352.0,352.0,360.0,350.5" stroke="black" stroke-width="2" fill="none" />
<path d="M362.0,330.0,354.0,330.5" stroke="black" stroke-width="2" fill="none" />
<path d="M365.0,318.5,356.5,318.5,348.0,319.0,340.0,319.0" stroke="black" stroke-width="2" fill="none" />
<path d="M331.5,319.0,323.0,319.0,315.0,319.5,307.0,319.5,299.0,320.0,291.5,320.0" stroke="black" stroke-width="2" fill="none" />
<path d="M291.0,321.0,299.0,313.0,307.0,305.0,315.5,297.5,323.5,290.0" stroke="black" stroke-width="2" fill="none" />
<path d="M317.5,292.5,309.0,299.5,300.5,307.0,292.0,314.5" stroke="black" stroke-width="2" fill="none" />
<path d="M290.5,312.0,298.5,311.5,307.0,312.0,315.0,312.0,323.5,312.0,332.0,312.0,340.0,311.5,348.0,311.0,356.0,310.0,363.5,309.5" stroke="black" stroke-width="2" fill="none" />
<path d="M363.5,307.5,355.0,315.0,347.0,322.5,339.0,330.5,331.0,338.0,322.5,346.0,315.0,353.0" stroke="black" stroke-width="2" fill="none" />
<path d="M307.0,349.5,315.0,342.0,323.0,335.0,331.5,327.5,339.5,320.0,347.5,312.5,355.5,305.0,363.5,297.5" stroke="black" stroke-width="2" fill="none" />
<path d="M364.0,291.5,355.5,298.5,347.5,305.5,339.0,313.0,331.0,320.0,323.0,327.5,315.0,334.5,307.5,342.0,299.5,350.0" stroke="black" stroke-width="2" fill="none" />
<path d="M299.0,354.5,307.5,354.0,316.0,353.0,324.0,352.0,332.5,351.0" stroke="black" stroke-width="2" fill="none" />
<path d="M333.0,349.0,341.0,349.0" stroke="black" stroke-width="2" fill="none" />
<path d="M346.0,344.5,338.0,342.5" stroke="black" stroke-width="2" fill="none" />
<path d="M331.5,344.0,323.0,345.0,315.0,345.5,307.0,345.5,298.5,345.5,290.0,346.0,282.0,346.0" stroke="black" stroke-width="2" fill="none" />
<path d="M282.5,350.0,290.5,342.5,298.5,334.5,306.5,327.0,314.5,320.0,323.0,313.0,331.5,306.0,339.5,299.0,347.5,292.0" stroke="black" stroke-width="2" fill="none" />
<path d="M356.0,290.0,348.0,297.5,339.5,305.0,331.5,312.5,323.5,319.0,315.5,326.5,307.0,334.0,299.0,342.5,291.0,350.5" stroke="black" stroke-width="2" fill="none" />
<path d="M295.0,345.5,303.0,346.5" stroke="black" stroke-width="2" fill="none" />
<path d="M307.5,351.0,302.5,344.0,294.5,344.5" stroke="black" stroke-width="2" fill="none" />
<path d="M293.5,337.0,301.5,337.0,309.0,337.0,317.0,336.5,325.0,336.5" stroke="black" stroke-width="2" fill="none" />
<path d="M327.5,336.5,335.0,338.5,340.0,339.5,348.0,341.0,351.5,345.0,360.0,344.0,364.0,346.0" stroke="black" stroke-width="2" fill="none" />
<path d="M365.5,352.0,357.5,352.5,349.0,353.5,340.5,354.5,332.0,355.5,323.5,356.0,315.5,356.5,307.0,357.5,298.5,358.0" stroke="black" stroke-width="2" fill="none" />
<path d="M284.5,351.0,293.0,350.0,300.5,349.0,308.5,348.5,316.5,348.0,324.5,348.0,333.0,347.0,341.5,346.5,349.5,346.5,357.5,347.0,365.5,346.5,373.0,346.0,381.0,344.5" stroke="black" stroke-width="2" fill="none" />
<path d="M372.0,304.0,364.0,305.0,356.0,305.5,348.0,306.5,340.0,307.5,332.0,307.5,323.5,308.0,314.5,308.5,306.0,309.0,298.0,309.0,289.5,310.0" stroke="black" stroke-width="2" fill="none" />
<path d="M291.5,305.5,299.0,305.0,306.5,304.5,314.5,304.5,322.5,304.5,330.5,304.0,339.0,303.0,347.5,302.5,356.0,302.0,364.5,301.5" stroke="black" stroke-width="2" fill="none" />
<path d="M340.0,297.0,332.0,297.5,324.5,298.0" stroke="black" stroke-width="2" fill="none" />
<path d="M321.5,298.0,329.5,299.0,337.5,299.0,346.0,297.5" stroke="black" stroke-width="2" fill="none" />
<path d="M333.0,290.5,324.5,298.0,316.5,305.5,308.0,313.0,299.5,321.0,291.0,329.0,282.5,337.0" stroke="black" stroke-width="2" fill="none" />
<path d="M284.5,334.5,292.5,333.5,300.5,333.5,308.0,333.0,315.0,333.0,323.0,333.0,331.0,332.5,339.0,331.5,347.0,330.5,355.0,329.5,363.0,329.0,371.0,328.5" stroke="black" stroke-width="2" fill="none" />
<path d="M370.5,297.0,362.5,298.0,355.0,298.0,347.0,298.0,338.5,298.5,330.5,299.0,322.5,299.5,315.5,300.0,307.5,300.5,299.5,301.5,291.0,302.0" stroke="black" stroke-width="2" fill="none" />
<path d="M291.0,304.0,298.5,297.0,306.5,290.0,315.0,283.0,323.0,275.0,331.5,267.5,339.5,259.5,348.0,252.0" stroke="black" stroke-width="2" fill="none" />
<path d="M347.5,244.0,340.0,251.5,332.0,259.0,324.5,266.5,317.0,274.0,309.0,281.0" stroke="black" stroke-width="2" fill="none" />
<path d="M309.0,279.0,316.5,278.0,324.5,277.5,332.0,276.5,340.5,276.0,349.0,275.5" stroke="black" stroke-width="2" fill="none" />
<path d="M348.5,274.0,340.0,281.5" stroke="black" stroke-width="2" fill="none" />
<path d="M341.5,280.0,349.5,279.0" stroke="black" stroke-width="2" fill="none" />
<path d="M349.5,280.0,357.5,286.5,365.5,291.5" stroke="black" stroke-width="2" fill="none" />
<path d="M347.5,281.5,339.5,289.5,331.5,297.0,323.5,305.0,315.0,312.5,307.0,320.0,298.5,327.5,290.5,335.0,282.5,343.0" stroke="black" stroke-width="2" fill="none" />
<path d="M282.5,340.5,282.5,335.5" stroke="black" stroke-width="2" fill="none" />
<path d="M276.0,341.0,284.5,341.0,292.5,340.0,300.5,339.5,308.5,338.5,316.5,338.0,324.0,338.5,332.0,338.5,339.5,338.5,347.5,338.5,355.0,338.5,363.0,337.5,371.0,337.0,379.5,336.0" stroke="black" stroke-width="2" fill="none" />
<path d="M372.0,289.5,364.0,290.0,355.5,290.5,348.0,291.5,340.5,292.0,332.5,293.0,324.5,293.0,316.5,293.5,308.0,293.5,300.0,293.5,292.5,293.5" stroke="black" stroke-width="2" fill="none" />
<path d="M287.5,292.5,296.0,288.5,304.5,282.5,308.5,285.0,304.5,293.0,309.0,292.5,317.0,285.5" stroke="black" stroke-width="2" fill="none" />
<path d="M323.0,282.5,331.5,274.5,340.0,267.5,348.5,260.0" stroke="black" stroke-width="2" fill="none" />
<path d="M350.5,267.0,341.5,274.5,333.0,282.0" stroke="black" stroke-width="2" fill="none" />
<path d="M339.0,289.0,331.5,289.0,324.0,290.0,316.0,290.5,309.5,298.5,311.5,290.5" stroke="black" stroke-width="2" fill="none" />
<path d="M308.0,284.5,316.0,284.5,324.5,284.0,332.5,284.0,340.0,284.0,348.0,283.0,356.5,282.5" stroke="black" stroke-width="2" fill="none" />
<path d="M349.0,271.5,341.0,272.0,333.0,273.0,324.5,273.5,316.0,274.0" stroke="black" stroke-width="2" fill="none" />
<path d="M309.0,271.5,317.0,271.0,324.5,270.5,332.0,269.5,339.5,268.5,348.0,268.0" stroke="black" stroke-width="2" fill="none" />
<path d="M348.5,264.0,340.5,265.0" stroke="black" stroke-width="2" fill="none" />
<path d="M348.0,259.5,340.0,260.0,332.0,259.5,324.0,259.5,316.0,260.0,307.5,260.5" stroke="black" stroke-width="2" fill="none" />
<path d="M305.5,252.0,313.5,251.5,321.5,251.0,329.5,250.5,337.5,250.0,345.5,250.0" stroke="black" stroke-width="2" fill="none" />
<path d="M347.5,236.0,339.5,243.5,331.0,251.5,323.0,259.0,315.5,265.5" stroke="black" stroke-width="2" fill="none" />
<path d="M314.5,266.0,322.5,265.5" stroke="black" stroke-width="2" fill="none" />
<path d="M324.0,258.0,316.0,258.5" stroke="black" stroke-width="2" fill="none" />
<path d="M316.0,257.0,323.5,250.0,331.0,242.0,339.0,234.0,346.5,226.0" stroke="black" stroke-width="2" fill="none" />
<path d="M347.5,217.5,339.0,225.5,331.0,233.0,323.0,240.5,315.0,248.0" stroke="black" stroke-width="2" fill="none" />
<path d="M317.5,247.5,325.0,247.0,333.0,245.5,340.5,244.5,348.0,243.5" stroke="black" stroke-width="2" fill="none" />
<path d="M340.5,240.5,332.5,241.5,324.5,242.0,316.5,242.5" stroke="black" stroke-width="2" fill="none" />
<path d="M316.0,241.5,324.0,234.0,332.0,226.5,339.5,219.5,347.5,212.0" stroke="black" stroke-width="2" fill="none" />
<path d="M346.5,203.5,339.5,211.0,332.0,218.5,324.0,226.0,315.5,233.5" stroke="black" stroke-width="2" fill="none" />
<path d="M313.5,233.5,322.0,233.0,330.5,232.0,339.0,232.0" stroke="black" stroke-width="2" fill="none" />
<path d="M335.0,232.5,334.0,240.5,334.5,248.5,334.0,256.5,334.0,264.5,334.0,273.0,336.0,281.0" stroke="black" stroke-width="2" fill="none" />
<path d="M342.0,279.5,343.0,287.5" stroke="black" stroke-width="2" fill="none" />
<path d="M348.0,286.0,338.0,281.0,327.5,281.5,330.0,280.5,332.0,272.5,332.0,264.5,331.5,256.5,331.0,248.5,330.5,240.0,331.0,232.0,330.5,230.0" stroke="black" stroke-width="2" fill="none" />
<path d="M322.5,235.5,322.0,243.5,321.0,251.5,320.5,259.5,319.5,267.5,319.5,275.5,318.5,283.5,308.0,286.0,303.5,294.0,299.5,294.5,299.5,294.0,302.5,288.5,307.5,287.5" stroke="black" stroke-width="2" fill="none" />
<path d="M300.0,292.0,292.5,300.0" stroke="black" stroke-width="2" fill="none" />
<path d="M285.0,317.0,292.5,316.5,300.0,316.5,307.5,316.5,314.5,316.0,322.0,315.0,330.5,314.5,338.5,314.0,346.5,313.0,354.5,312.5,363.0,312.0,371.0,311.5" stroke="black" stroke-width="2" fill="none" />
<path d="M370.0,320.0,361.5,320.5,353.5,321.5,346.0,322.0,338.0,322.5,330.0,323.0,322.5,323.5,315.5,323.5,308.0,324.5,300.5,325.0,293.5,325.5,285.5,326.0" stroke="black" stroke-width="2" fill="none" />
<path d="M290.5,327.5,298.5,327.5,306.5,327.5,315.0,327.5,323.5,327.0" stroke="black" stroke-width="2" fill="none" />
<path d="M326.5,328.0,334.0,330.0,342.0,329.5,350.0,328.0,357.5,327.0,364.5,327.5,371.5,334.5" stroke="black" stroke-width="2" fill="none" />
<path d="M367.5,349.5,372.0,341.5,367.0,333.5,368.5,325.5,366.5,318.0,366.5,310.0,366.5,302.0,364.5,294.0,356.5,295.5,347.5,295.5,341.5,295.5,339.5,294.5,350.5,293.0,348.0,284.5,348.0,276.0,347.0,268.0,346.0,260.0,346.0,251.5,345.0,244.0,345.0,236.0,345.0,228.0,344.0,220.0,344.0,211.5,343.5,203.5,343.5,196.0,343.0,188.0,343.0,180.5,343.0,172.5,339.0,168.5,348.0,161.5,339.5,161.5" stroke="black" stroke-width="2" fill="none" />
<path d="M337.5,179.5,330.0,187.5,322.5,195.5" stroke="black" stroke-width="2" fill="none" />
<path d="M324.0,192.0,332.0,191.5,340.0,191.5" stroke="black" stroke-width="2" fill="none" />
<path d="M337.0,188.0,329.0,195.5,322.0,203.0,314.5,210.0" stroke="black" stroke-width="2" fill="none" />
<path d="M316.0,206.0,324.5,205.5,332.5,205.5,340.0,205.0,347.5,204.5" stroke="black" stroke-width="2" fill="none" />
<path d="M341.0,204.0,333.0,211.5,325.0,219.0,317.0,226.5" stroke="black" stroke-width="2" fill="none" />
<path d="M315.0,226.5,322.5,226.5,331.0,226.0,339.5,225.0" stroke="black" stroke-width="2" fill="none" />
<path d="M340.5,216.5,332.5,216.0,325.0,216.5" stroke="black" stroke-width="2" fill="none" />
<path d="M325.5,208.5,333.0,208.5,341.0,208.0" stroke="black" stroke-width="2" fill="none" />
<path d="M340.5,197.0,332.0,204.0,323.5,211.0,315.5,218.5" stroke="black" stroke-width="2" fill="none" />
<path d="M315.0,215.5,323.0,214.5,331.0,214.0,339.5,213.0,347.5,212.0" stroke="black" stroke-width="2" fill="none" />
<path d="M340.0,199.5,332.0,200.0,324.0,200.5" stroke="black" stroke-width="2" fill="none" />
<path d="M317.0,199.0,325.0,198.5,332.5,198.0,339.5,197.5,347.0,197.0" stroke="black" stroke-width="2" fill="none" />
<path d="M333.5,184.5,324.5,185.0" stroke="black" stroke-width="2" fill="none" />
<path d="M317.5,190.5,325.0,190.0,333.0,189.0,340.5,188.0,348.0,187.5" stroke="black" stroke-width="2" fill="none" />
<path d="M309.5,168.0,317.5,160.0,325.0,152.5,333.0,145.5,340.5,137.0,348.5,129.0,356.0,122.0,363.5,115.0,371.0,108.0" stroke="black" stroke-width="2" fill="none" />
<path d="M355.0,107.5,347.5,115.5,339.5,122.5,331.5,129.5,323.5,136.0,316.0,143.5,308.0,151.0,300.5,158.5" stroke="black" stroke-width="2" fill="none" />
<path d="M291.5,162.0,299.5,155.0,307.5,148.5,315.5,141.5" stroke="black" stroke-width="2" fill="none" />
<path d="M309.5,141.0,307.5,133.0" stroke="black" stroke-width="2" fill="none" />
<path d="M303.0,133.5,302.5,141.5" stroke="black" stroke-width="2" fill="none" />
<path d="M291.0,145.5,282.5,146.5,274.5,147.0" stroke="black" stroke-width="2" fill="none" />
<path d="M283.0,159.5,291.0,152.0,299.5,144.5,307.5,136.5,315.5,129.0,323.5,121.5,331.5,114.0,339.0,106.5,346.5,99.5" stroke="black" stroke-width="2" fill="none" />
<path d="M340.0,100.5,331.5,108.0,323.5,115.5,315.0,123.0,307.0,130.5,299.0,138.0,291.0,145.5,282.5,152.5" stroke="black" stroke-width="2" fill="none" />
<path d="M281.0,161.5,289.5,161.0,297.5,161.0,306.0,161.0,315.0,160.5,323.5,160.0" stroke="black" stroke-width="2" fill="none" />
<path d="M339.0,167.0,331.0,167.5,322.5,168.5,314.5,169.0,306.5,170.0" stroke="black" stroke-width="2" fill="none" />
<path d="M275.5,144.5,284.0,137.5,292.0,130.0,299.5,122.5,307.5,115.0,315.5,107.5,324.0,100.0" stroke="black" stroke-width="2" fill="none" />
<path d="M323.5,94.0,332.0,94.0,340.5,93.5,348.5,93.0" stroke="black" stroke-width="2" fill="none" />
<path d="M348.0,82.5,340.0,90.0,332.0,98.0,323.5,106.0,315.0,114.0" stroke="black" stroke-width="2" fill="none" />
<path d="M323.5,106.5,331.5,106.0,340.0,105.5,348.0,104.5" stroke="black" stroke-width="2" fill="none" />
<path d="M356.0,101.0,348.0,108.0,340.0,115.0,332.0,122.0,324.0,129.5" stroke="black" stroke-width="2" fill="none" />
<path d="M320.0,129.0,322.0,137.5,324.0,145.5" stroke="black" stroke-width="2" fill="none" />
<path d="M333.5,136.5,334.5,123.5,326.5,123.0,318.5,122.5,310.5,124.5,302.0,123.5" stroke="black" stroke-width="2" fill="none" />
<path d="M301.0,116.0,308.5,115.5,315.5,114.5,323.5,114.0,331.5,113.0,339.5,112.0,347.5,111.5,355.5,110.5,364.0,109.5,372.5,108.5" stroke="black" stroke-width="2" fill="none" />
<path d="M364.5,96.5,356.5,97.5,348.5,98.0,340.5,99.0,333.0,100.0,325.0,100.5,316.5,101.0,308.5,101.5,300.0,102.0" stroke="black" stroke-width="2" fill="none" />
<path d="M301.0,106.5,292.5,114.0,284.5,121.5,276.5,129.5" stroke="black" stroke-width="2" fill="none" />
<path d="M275.5,127.5,275.0,135.5,273.0,143.5,275.5,155.0,283.5,162.0,291.5,166.0,299.0,168.0,307.0,170.0,315.0,171.0" stroke="black" stroke-width="2" fill="none" />
<path d="M289.0,140.5,292.0,132.5" stroke="black" stroke-width="2" fill="none" />
<path d="M293.5,131.5,297.5,139.5" stroke="black" stroke-width="2" fill="none" />
<path d="M287.5,131.0,290.5,135.0,292.5,146.0,307.0,143.5,317.0,144.5,327.5,145.0,335.5,146.0" stroke="black" stroke-width="2" fill="none" />
<path d="M325.5,153.5,322.5,149.5,316.5,143.5,313.0,135.5,319.0,127.5" stroke="black" stroke-width="2" fill="none" />
<path d="M315.0,126.0,323.0,126.0,330.5,126.5,338.5,127.0,346.0,127.0,354.5,126.5,356.5,130.5,355.5,138.5,359.5,140.0,365.0,139.0,374.5,134.0,384.5,135.0,388.5,137.0,385.0,145.5,381.0,148.5" stroke="black" stroke-width="2" fill="none" />
<path d="M375.5,144.0,376.0,136.5" stroke="black" stroke-width="2" fill="none" />
<path d="M381.5,134.0,379.5,141.5" stroke="black" stroke-width="2" fill="none" />
<path d="M329.5,92.0,337.5,84.5" stroke="black" stroke-width="2" fill="none" />
<path d="M340.0,81.0,332.5,81.0" stroke="black" stroke-width="2" fill="none" />
<path d="M330.5,77.0,338.5,77.0" stroke="black" stroke-width="2" fill="none" />
<path d="M338.5,75.0,330.5,82.5,323.0,90.0" stroke="black" stroke-width="2" fill="none" />
<path d="M321.5,87.5,322.5,81.5,326.5,86.0,334.5,86.0,340.5,80.5" stroke="black" stroke-width="2" fill="none" />
<path d="M338.0,69.0,330.0,69.5" stroke="black" stroke-width="2" fill="none" />
<path d="M328.0,74.0,336.0,67.0,337.5,71.0,337.0,79.0,345.0,87.0,334.5,95.0" stroke="black" stroke-width="2" fill="none" />
<path d="M324.0,85.0,331.5,85.0,340.0,84.5,348.5,84.0" stroke="black" stroke-width="2" fill="none" />
<path d="M314.0,102.0,305.5,109.0,297.5,116.0,290.0,123.0,282.0,130.0,274.0,137.5" stroke="black" stroke-width="2" fill="none" />
<path d="M282.0,139.5,283.5,131.5,284.0,132.0" stroke="black" stroke-width="2" fill="none" />
<path d="M277.5,137.5,274.5,128.0,270.5,135.0,271.5,127.0" stroke="black" stroke-width="2" fill="none" />
<path d="M282.5,114.0,290.0,113.0,298.0,110.5,299.0,107.5,307.0,103.5" stroke="black" stroke-width="2" fill="none" />
<path d="M306.5,99.5,289.5,107.5,275.5,116.0,269.5,124.0,267.0,132.0,268.0,140.0,270.5,148.0,274.0,155.5,284.5,163.5" stroke="black" stroke-width="2" fill="none" />
<path d="M243.5,179.0,236.0,186.5,228.0,194.0,220.5,201.5,212.5,208.5,205.0,216.0" stroke="black" stroke-width="2" fill="none" />
<path d="M211.5,218.0,219.5,217.5,227.5,217.0,236.0,216.0" stroke="black" stroke-width="2" fill="none" />
<path d="M244.5,201.5,236.0,209.0,227.5,216.5,219.0,223.5" stroke="black" stroke-width="2" fill="none" />
<path d="M227.0,223.5,219.0,224.0,211.0,224.0" stroke="black" stroke-width="2" fill="none" />
<path d="M210.5,223.0,219.0,216.0,227.5,209.0,235.5,202.0,243.5,195.0" stroke="black" stroke-width="2" fill="none" />
<path d="M243.0,186.0,235.0,193.5,227.0,201.0,219.5,209.0,211.5,216.5,203.5,224.5,196.0,232.0" stroke="black" stroke-width="2" fill="none" />
<path d="M196.5,229.0,188.5,236.5,180.5,243.5,172.5,250.5,164.5,257.5" stroke="black" stroke-width="2" fill="none" />
<path d="M161.5,252.5,169.5,251.5,178.0,251.5,186.5,251.0,194.5,251.0" stroke="black" stroke-width="2" fill="none" />
<path d="M188.0,253.0,179.5,261.0,172.0,268.5,163.5,276.0" stroke="black" stroke-width="2" fill="none" />
<path d="M165.0,278.5,173.0,278.0,181.0,277.0,189.0,277.0,197.0,277.0" stroke="black" stroke-width="2" fill="none" />
<path d="M197.0,284.0,188.5,291.0,180.0,298.0,171.5,305.0,163.5,312.5,155.5,320.0" stroke="black" stroke-width="2" fill="none" />
<path d="M155.0,317.0,162.5,316.5,170.5,316.5,179.0,316.5,187.0,316.5,195.5,316.5" stroke="black" stroke-width="2" fill="none" />
<path d="M194.0,317.5,186.5,324.5,179.0,332.0,171.0,339.5,163.0,347.0" stroke="black" stroke-width="2" fill="none" />
<path d="M163.5,353.0,155.5,361.0" stroke="black" stroke-width="2" fill="none" />
<path d="M157.0,366.5,165.0,367.5,173.0,368.5,181.0,367.0,189.5,366.5,197.5,364.5,205.5,364.0,214.0,358.0" stroke="black" stroke-width="2" fill="none" />
<path d="M213.0,361.5,205.5,362.5,197.5,363.5,189.5,364.5,181.5,365.0,173.5,366.0,165.0,366.5,156.5,366.5,148.5,367.5" stroke="black" stroke-width="2" fill="none" />
<path d="M148.5,359.0,140.5,364.0" stroke="black" stroke-width="2" fill="none" />
<path d="M138.0,359.0,146.5,353.5,154.5,350.5" stroke="black" stroke-width="2" fill="none" />
<path d="M155.5,345.5,164.0,338.0,172.5,330.5,181.0,323.0,188.5,315.5,196.5,308.5" stroke="black" stroke-width="2" fill="none" />
<path d="M196.5,299.5,188.5,307.0,180.0,314.5,171.5,322.0,164.0,330.5,156.0,338.5" stroke="black" stroke-width="2" fill="none" />
<path d="M154.0,335.0,162.0,334.0,170.5,333.5,178.5,333.0,187.0,333.0,195.0,332.0" stroke="black" stroke-width="2" fill="none" />
<path d="M196.0,332.5,188.0,339.5,180.0,347.0" stroke="black" stroke-width="2" fill="none" />
<path d="M180.5,355.5,172.0,363.0" stroke="black" stroke-width="2" fill="none" />
<path d="M171.5,364.0,179.5,363.5,187.5,362.5" stroke="black" stroke-width="2" fill="none" />
<path d="M188.0,365.0,196.0,357.5" stroke="black" stroke-width="2" fill="none" />
<path d="M200.0,351.5,208.0,352.5" stroke="black" stroke-width="2" fill="none" />
<path d="M212.5,345.0,204.0,345.0,195.5,345.5,187.5,345.5,179.5,346.5,171.0,347.0,163.5,347.5,156.0,348.0,148.0,349.0" stroke="black" stroke-width="2" fill="none" />
<path d="M146.5,350.0,137.5,358.0,139.0,361.5,144.5,351.5,153.5,351.5" stroke="black" stroke-width="2" fill="none" />
<path d="M156.0,345.0,164.0,344.0,171.5,343.5,179.0,342.5,187.0,341.0,195.0,340.0,203.0,338.5" stroke="black" stroke-width="2" fill="none" />
<path d="M198.0,337.5,190.0,345.0" stroke="black" stroke-width="2" fill="none" />
<path d="M196.5,347.5,188.5,355.0,180.5,362.0" stroke="black" stroke-width="2" fill="none" />
<path d="M171.0,355.5,163.0,363.0" stroke="black" stroke-width="2" fill="none" />
<path d="M162.0,363.5,170.0,365.5,178.0,364.0,186.0,363.5,194.0,362.5" stroke="black" stroke-width="2" fill="none" />
<path d="M198.0,346.5,203.0,354.5,212.0,359.5" stroke="black" stroke-width="2" fill="none" />
<path d="M217.5,351.0,209.5,352.0,201.0,353.0,193.0,354.0,185.0,355.0,177.5,356.0,169.0,356.0,161.5,356.0,154.0,356.0,147.0,356.0,139.0,357.0" stroke="black" stroke-width="2" fill="none" />
<path d="M133.5,356.0,141.5,352.0,149.5,344.5,158.5,338.5,165.0,345.5" stroke="black" stroke-width="2" fill="none" />
<path d="M171.0,347.5,179.0,340.5,186.5,333.0,194.5,326.0" stroke="black" stroke-width="2" fill="none" />
<path d="M196.0,327.0,188.0,327.0,180.0,327.5,172.0,328.0,163.5,328.0" stroke="black" stroke-width="2" fill="none" />
<path d="M168.0,328.0,168.0,336.0,167.5,344.0,168.5,343.5,175.5,345.0,183.5,342.5,191.5,351.5" stroke="black" stroke-width="2" fill="none" />
<path d="M198.5,345.0,206.0,349.5,214.5,353.5" stroke="black" stroke-width="2" fill="none" />
<path d="M196.5,336.0,188.5,336.0,180.5,336.0,172.5,336.5,164.5,337.0" stroke="black" stroke-width="2" fill="none" />
<path d="M174.0,343.5,176.0,335.5" stroke="black" stroke-width="2" fill="none" />
<path d="M179.5,336.0,181.5,344.5" stroke="black" stroke-width="2" fill="none" />
<path d="M186.5,342.0,188.0,334.5" stroke="black" stroke-width="2" fill="none" />
<path d="M188.5,333.5,186.0,341.5,190.5,349.5,181.5,349.5" stroke="black" stroke-width="2" fill="none" />
<path d="M164.5,322.0,172.5,321.5,180.5,321.5,188.0,320.5,196.0,319.5" stroke="black" stroke-width="2" fill="none" />
<path d="M188.0,312.5,180.0,313.5,172.0,314.0,164.0,315.0" stroke="black" stroke-width="2" fill="none" />
<path d="M167.5,314.5,166.5,322.5,166.5,330.5,165.0,338.0,159.0,340.0,163.0,347.5,158.0,354.5,154.5,358.0,150.5,362.5,151.5,359.0,159.5,351.0,163.5,353.5,171.5,351.5,180.0,352.0,188.0,350.5,201.5,358.5" stroke="black" stroke-width="2" fill="none" />
<path d="M155.5,328.0,164.0,320.5,172.5,313.0,181.0,305.5,189.5,297.5,197.5,290.0" stroke="black" stroke-width="2" fill="none" />
<path d="M187.5,283.5,179.5,291.0,171.0,299.0,163.0,307.0" stroke="black" stroke-width="2" fill="none" />
<path d="M165.0,307.0,173.0,307.0,181.0,306.0,189.5,305.5" stroke="black" stroke-width="2" fill="none" />
<path d="M189.5,297.0,181.5,298.0,173.5,298.5,165.5,299.5" stroke="black" stroke-width="2" fill="none" />
<path d="M164.5,299.0,172.5,291.5,180.5,284.0,188.0,276.5" stroke="black" stroke-width="2" fill="none" />
<path d="M188.0,267.5,180.5,275.0,172.5,282.5,164.5,290.0" stroke="black" stroke-width="2" fill="none" />
<path d="M164.5,291.0,172.5,290.5,180.5,290.0,188.5,289.5" stroke="black" stroke-width="2" fill="none" />
<path d="M196.0,284.5,188.0,285.5,180.5,285.5,172.5,285.5,164.0,285.5" stroke="black" stroke-width="2" fill="none" />
<path d="M162.5,283.0,171.0,275.0,179.5,267.5,187.5,260.0" stroke="black" stroke-width="2" fill="none" />
<path d="M188.0,251.5,180.0,252.0" stroke="black" stroke-width="2" fill="none" />
<path d="M181.5,243.5,189.5,243.5" stroke="black" stroke-width="2" fill="none" />
<path d="M188.0,245.0,180.0,252.5,172.0,260.5,164.0,267.5" stroke="black" stroke-width="2" fill="none" />
<path d="M162.5,264.5,170.5,264.5,179.0,264.0,187.5,263.5" stroke="black" stroke-width="2" fill="none" />
<path d="M187.0,257.0,179.5,258.0,172.0,258.5" stroke="black" stroke-width="2" fill="none" />
<path d="M163.5,250.5,171.0,243.0,178.5,235.0,186.0,227.5" stroke="black" stroke-width="2" fill="none" />
<path d="M182.0,230.0,173.5,237.0" stroke="black" stroke-width="2" fill="none" />
<path d="M172.0,242.0,179.5,238.0" stroke="black" stroke-width="2" fill="none" />
<path d="M173.5,228.5,165.5,236.0" stroke="black" stroke-width="2" fill="none" />
<path d="M164.0,234.0,171.5,234.0,179.0,233.5" stroke="black" stroke-width="2" fill="none" />
<path d="M172.0,234.0,159.0,233.0,151.0,232.0,143.0,230.0,134.5,227.0,126.5,222.5,124.5,217.0,116.0,214.5,115.0,201.0,117.5,198.0,116.5,189.5,116.5,186.5" stroke="black" stroke-width="2" fill="none" />
<path d="M116.0,186.5,124.0,186.5,133.0,186.5" stroke="black" stroke-width="2" fill="none" />
<path d="M133.5,191.0,129.5,199.0,141.0,207.5" stroke="black" stroke-width="2" fill="none" />
<path d="M141.0,202.5,132.5,210.0,124.0,218.0" stroke="black" stroke-width="2" fill="none" />
<path d="M122.0,219.0,130.0,218.5,138.5,218.0,147.0,217.5,155.0,216.5,163.0,216.5" stroke="black" stroke-width="2" fill="none" />
<path d="M166.5,221.0,174.5,225.0,182.5,225.0,191.5,228.0,187.5,229.5,183.0,229.5,177.5,238.0,172.5,239.5,169.0,244.5,177.0,246.0,180.0,243.5,180.0,238.0,183.0,240.0,189.0,234.0,197.0,232.5,205.0,231.5,213.5,230.5,221.5,227.0,229.5,221.0,237.5,213.0" stroke="black" stroke-width="2" fill="none" />
<path d="M244.5,211.0,236.5,211.0,228.0,211.5,219.5,211.5,211.5,212.0,203.5,212.0,195.0,212.5" stroke="black" stroke-width="2" fill="none" />
<path d="M203.0,208.5,211.5,201.0,220.0,193.0,228.0,185.0,236.0,177.0" stroke="black" stroke-width="2" fill="none" />
<path d="M234.5,169.0,227.0,177.0,218.5,185.0,210.5,192.5,202.5,200.0" stroke="black" stroke-width="2" fill="none" />
<path d="M195.0,201.0,202.5,193.5,210.5,185.5,218.0,177.0,226.0,169.5" stroke="black" stroke-width="2" fill="none" />
<path d="M226.5,163.5,218.5,170.5,211.0,178.0,203.0,185.5,195.5,192.5,187.5,200.0" stroke="black" stroke-width="2" fill="none" />
<path d="M188.0,202.5,195.5,201.5" stroke="black" stroke-width="2" fill="none" />
<path d="M194.5,195.0,203.0,192.0,195.0,195.5,201.0,205.5,207.5,213.5,205.0,221.5,201.0,225.5" stroke="black" stroke-width="2" fill="none" />
<path d="M198.0,228.5,190.0,223.5" stroke="black" stroke-width="2" fill="none" />
<path d="M190.0,232.5,191.0,241.0,189.5,249.0,190.5,257.0,190.5,265.5,191.5,273.5,191.5,282.0,192.5,290.0,193.5,298.0,194.0,306.5,194.5,314.0,195.0,322.0,195.0,329.5,196.0,337.5,197.5,345.5,198.0,353.5,200.0,356.5" stroke="black" stroke-width="2" fill="none" />
<path d="M195.0,324.5,187.0,324.5,179.0,325.0,170.5,325.0,162.0,325.0,153.5,325.0" stroke="black" stroke-width="2" fill="none" />
<path d="M154.0,308.5,162.5,308.5,170.5,308.5,179.0,308.0,187.5,308.0,196.0,307.5" stroke="black" stroke-width="2" fill="none" />
<path d="M188.0,281.0,180.0,281.5,172.5,281.0,164.5,281.5" stroke="black" stroke-width="2" fill="none" />
<path d="M165.5,273.0,173.0,273.0,180.5,272.5,188.0,272.0" stroke="black" stroke-width="2" fill="none" />
<path d="M195.0,267.0,187.0,268.5,179.5,269.5,172.0,270.0,164.0,271.5" stroke="black" stroke-width="2" fill="none" />
<path d="M161.0,262.5,169.0,262.0,177.0,260.5,185.0,259.5,193.5,257.5" stroke="black" stroke-width="2" fill="none" />
<path d="M195.5,243.5,187.0,243.0,178.5,243.0,170.0,244.0,162.0,245.0" stroke="black" stroke-width="2" fill="none" />
<path d="M161.5,237.0,170.0,236.5,178.5,236.0,186.5,235.5,195.0,235.0" stroke="black" stroke-width="2" fill="none" />
<path d="M171.5,220.0,163.5,227.5,156.0,234.5" stroke="black" stroke-width="2" fill="none" />
<path d="M160.0,232.5,162.0,240.5,161.0,248.5,160.0,257.0,160.5,265.0,159.5,273.5,158.5,281.5,157.5,289.5,157.5,297.5,156.0,305.5,155.0,313.5,154.0,321.5,153.5,330.0,152.5,338.0,147.5,346.5,151.5,349.5,144.0,357.0,144.0,362.0,148.5,365.5,156.5,365.5,161.5,360.5,170.0,362.5,178.0,362.5,186.0,362.5,193.0,357.5,195.0,359.0,202.5,353.0,210.5,356.5" stroke="black" stroke-width="2" fill="none" />
<path d="M195.0,299.5,187.0,299.5,178.5,299.5,170.5,300.0,163.0,301.0,155.0,301.5" stroke="black" stroke-width="2" fill="none" />
<path d="M155.0,294.0,162.5,293.5,170.5,292.5,178.0,292.5,186.0,292.5,194.0,292.5" stroke="black" stroke-width="2" fill="none" />
<path d="M219.5,224.5,211.5,225.0,203.5,225.5,195.0,225.5,187.0,225.5,178.5,226.0,170.5,226.5,163.0,227.0,155.0,227.5,146.5,227.5,138.5,228.0" stroke="black" stroke-width="2" fill="none" />
<path d="M139.5,226.0,148.0,225.5,155.5,224.5,163.5,224.0" stroke="black" stroke-width="2" fill="none" />
<path d="M156.0,226.0,164.0,218.5,171.5,211.5,179.0,204.0,186.5,196.5,194.5,189.5" stroke="black" stroke-width="2" fill="none" />
<path d="M195.0,194.0,187.0,195.0" stroke="black" stroke-width="2" fill="none" />
<path d="M187.0,185.5,179.5,193.0,172.0,201.0,164.0,209.0,156.0,217.0,148.0,224.5" stroke="black" stroke-width="2" fill="none" />
<path d="M132.0,215.0,140.0,208.0,148.0,201.5,156.0,194.5,163.5,187.0,170.5,179.5,178.0,172.0,185.5,164.0,193.5,156.5" stroke="black" stroke-width="2" fill="none" />
<path d="M193.0,155.5,201.0,158.5,209.5,169.0,217.5,175.0,225.5,176.5" stroke="black" stroke-width="2" fill="none" />
<path d="M226.5,183.5,234.5,182.5" stroke="black" stroke-width="2" fill="none" />
<path d="M234.0,187.5,232.0,195.5,232.5,203.5,232.5,201.5" stroke="black" stroke-width="2" fill="none" />
<path d="M227.0,202.5,229.0,194.0" stroke="black" stroke-width="2" fill="none" />
<path d="M223.5,196.0,221.5,204.0" stroke="black" stroke-width="2" fill="none" />
<path d="M217.5,201.5,220.0,193.0" stroke="black" stroke-width="2" fill="none" />
<path d="M218.5,193.0,227.0,192.5,235.5,192.0,244.0,191.0" stroke="black" stroke-width="2" fill="none" />
<path d="M242.5,190.5,235.0,191.0,227.5,191.0,220.0,191.0,212.5,191.5,205.0,192.0,197.5,192.0,189.5,193.0,181.0,193.5,173.0,194.0,165.0,193.5,157.0,194.0,149.0,194.5,140.5,195.0,132.5,196.0,124.0,196.5,116.0,197.5" stroke="black" stroke-width="2" fill="none" />
<path d="M115.0,200.5,122.5,192.5,131.0,184.5,139.5,177.0,147.5,169.5,156.0,162.0,164.0,154.5" stroke="black" stroke-width="2" fill="none" />
<path d="M162.0,156.5,156.5,165.0,152.5,173.0,157.5,163.5" stroke="black" stroke-width="2" fill="none" />
<path d="M155.0,160.5,163.5,160.0,171.5,160.0,180.0,160.0,188.5,159.5,196.5,158.5" stroke="black" stroke-width="2" fill="none" />
<path d="M197.0,155.0,201.5,163.0,208.5,171.0" stroke="black" stroke-width="2" fill="none" />
<path d="M212.5,169.5,220.0,169.5" stroke="black" stroke-width="2" fill="none" />
<path d="M219.5,165.0,211.5,171.5,203.5,178.5" stroke="black" stroke-width="2" fill="none" />
<path d="M195.5,179.0,203.5,171.5,212.0,164.0" stroke="black" stroke-width="2" fill="none" />
<path d="M214.0,164.5,222.0,171.0,230.5,172.5,238.5,180.5,241.0,188.5,240.5,196.5" stroke="black" stroke-width="2" fill="none" />
<path d="M243.5,199.5,236.5,200.0,229.0,200.0,221.0,200.0,213.0,200.0,205.0,201.0,197.0,201.5,189.0,202.0,181.5,202.0,173.5,202.5,166.0,203.0,158.5,203.0,150.0,203.5,141.5,203.5,133.5,203.0,125.5,203.0,117.5,203.5" stroke="black" stroke-width="2" fill="none" />
<path d="M115.5,206.5,123.0,198.5,131.5,191.0,139.5,184.0,147.5,177.0,156.0,170.0,164.0,163.0,172.0,156.0,181.0,148.5,189.0,141.0" stroke="black" stroke-width="2" fill="none" />
<path d="M189.0,148.5,181.0,156.0,173.0,164.0,164.5,171.0,156.5,178.0,148.5,185.5,140.5,192.5" stroke="black" stroke-width="2" fill="none" />
<path d="M141.0,194.0,149.0,193.5,156.5,192.5,164.0,192.0" stroke="black" stroke-width="2" fill="none" />
<path d="M162.5,191.0,158.5,199.0,153.5,209.5,163.5,204.0,175.5,200.5" stroke="black" stroke-width="2" fill="none" />
<path d="M171.5,195.5,180.0,188.0" stroke="black" stroke-width="2" fill="none" />
<path d="M178.0,191.0,181.0,198.5,171.0,207.5,179.0,204.5,187.0,202.0,194.5,203.5,202.0,206.5,207.0,213.5" stroke="black" stroke-width="2" fill="none" />
<path d="M206.5,205.5,205.5,197.0,215.0,192.0,207.0,193.0" stroke="black" stroke-width="2" fill="none" />
<path d="M201.5,191.0,202.5,199.5,206.5,201.0,209.5,206.0,220.5,195.0,230.5,194.0" stroke="black" stroke-width="2" fill="none" />
<path d="M236.0,199.0,237.5,196.5,236.5,188.5" stroke="black" stroke-width="2" fill="none" />
<path d="M236.0,167.5,228.0,168.5,220.5,168.5,212.5,168.5,204.0,168.5,196.0,169.5,188.0,170.0,179.5,170.0,171.5,170.0,163.5,170.0,156.0,170.5,148.0,170.5,140.0,171.0,133.0,171.5,125.0,172.0" stroke="black" stroke-width="2" fill="none" />
<path d="M120.5,173.5,128.5,172.5,136.0,177.5,144.5,178.0,153.0,178.5,161.5,163.0" stroke="black" stroke-width="2" fill="none" />
<path d="M163.0,158.0,158.0,166.0,154.5,174.5,160.5,179.5,169.0,180.0,177.0,180.0,184.0,179.0,192.0,180.0,200.0,180.0,208.0,179.0,216.0,176.0" stroke="black" stroke-width="2" fill="none" />
<path d="M211.0,175.0,203.0,175.5,195.0,176.0" stroke="black" stroke-width="2" fill="none" />
<path d="M188.5,178.0,196.5,170.5,205.0,162.5,213.0,155.0" stroke="black" stroke-width="2" fill="none" />
<path d="M205.0,155.0,196.5,163.0,189.0,171.0,181.0,179.0" stroke="black" stroke-width="2" fill="none" />
<path d="M180.0,178.5,172.0,179.5,164.0,180.5" stroke="black" stroke-width="2" fill="none" />
<path d="M159.5,185.5,167.5,185.5,175.5,185.5,183.5,187.0" stroke="black" stroke-width="2" fill="none" />
<path d="M176.0,190.0,175.0,198.0,167.0,205.0,165.5,221.0,168.0,218.5,169.0,212.5,170.5,217.0" stroke="black" stroke-width="2" fill="none" />
<path d="M163.5,202.0,155.5,210.0,148.0,218.0,140.5,225.0" stroke="black" stroke-width="2" fill="none" />
<path d="M132.5,226.0,139.5,218.5,147.0,211.0,155.0,203.5,163.0,195.5,171.5,188.0" stroke="black" stroke-width="2" fill="none" />
<path d="M167.5,193.0,166.0,201.0,167.5,206.0" stroke="black" stroke-width="2" fill="none" />
<path d="M180.5,209.5,173.0,210.0,165.0,210.5,157.5,211.0,149.5,211.5,141.5,211.5,133.0,212.0,124.5,212.0,116.5,212.5" stroke="black" stroke-width="2" fill="none" />
<path d="M123.5,209.5,131.5,208.5" stroke="black" stroke-width="2" fill="none" />
<path d="M126.5,211.0,134.5,203.5" stroke="black" stroke-width="2" fill="none" />
<path d="M141.0,207.0,144.0,199.0" stroke="black" stroke-width="2" fill="none" />
<path d="M140.5,195.0,134.5,196.0,133.5,203.5" stroke="black" stroke-width="2" fill="none" />
<path d="M119.5,197.5,118.5,190.0" stroke="black" stroke-width="2" fill="none" />
<path d="M115.0,193.0,123.5,185.0,131.0,177.5,139.0,170.0,147.0,163.0,155.5,155.5" stroke="black" stroke-width="2" fill="none" />
<path d="M150.0,160.0,140.5,168.0,133.5,175.5,138.5,169.5,146.5,163.0" stroke="black" stroke-width="2" fill="none" />
<path d="M140.5,164.5,132.5,171.5,124.5,179.0,117.0,186.0" stroke="black" stroke-width="2" fill="none" />
<path d="M117.5,182.0,126.0,181.5,134.0,180.5,141.5,180.0,149.5,179.5,157.0,179.0,164.0,178.0,171.0,177.5,178.5,177.0,186.5,176.0,194.5,175.5,202.5,175.5,211.0,175.0,219.5,174.5,227.5,174.0,235.5,173.0,243.5,173.0" stroke="black" stroke-width="2" fill="none" />
<path d="M228.0,160.5,220.0,161.0,212.0,162.0,204.0,162.5,196.0,163.0,188.0,163.5,180.5,164.0,172.0,164.5,163.5,164.5,155.5,164.5,147.0,164.5,138.5,164.5,130.5,165.0" stroke="black" stroke-width="2" fill="none" />
<path d="M138.5,158.0,147.0,157.5,155.5,157.0,164.0,156.5,172.5,156.5,180.5,156.0,189.0,155.5,197.0,154.5,204.5,154.0,212.5,154.0,220.5,153.0" stroke="black" stroke-width="2" fill="none" />
<path d="M215.5,166.0,224.5,174.0" stroke="black" stroke-width="2" fill="none" />
<path d="M242.0,178.5,233.5,179.0,226.0,180.0,217.5,180.5,209.0,182.5,201.0,183.5,193.0,185.0,185.0,185.5,177.0,186.0,169.5,186.0,162.0,186.0,155.5,186.0,148.5,187.0,140.5,187.5,132.5,187.5,125.0,188.0,117.0,188.0,109.0,188.5" stroke="black" stroke-width="2" fill="none" />
<path d="M112.5,188.5,112.0,196.5" stroke="black" stroke-width="2" fill="none" />
<path d="M113.0,188.5,114.0,196.0,121.0,199.5,135.5,192.5,137.5,197.5,148.5,194.5,158.5,193.5,166.5,191.5,176.5,190.0" stroke="black" stroke-width="2" fill="none" />
<path d="M153.5,195.0,155.5,202.5" stroke="black" stroke-width="2" fill="none" />
<path d="M152.5,205.5,148.5,202.5,150.5,194.5" stroke="black" stroke-width="2" fill="none" />
<path d="M146.5,193.0,155.0,186.0,163.5,178.5,171.5,170.5,179.5,163.0,187.0,156.0" stroke="black" stroke-width="2" fill="none" />
<path d="M188.5,147.0,181.0,147.5" stroke="black" stroke-width="2" fill="none" />
<path d="M181.5,152.0,173.0,152.5" stroke="black" stroke-width="2" fill="none" />
<path d="M172.5,148.5,181.0,148.5,188.5,148.0" stroke="black" stroke-width="2" fill="none" />
<path d="M194.0,139.5,185.5,139.5,177.5,139.5,169.5,140.0" stroke="black" stroke-width="2" fill="none" />
<path d="M169.0,140.5,177.0,140.0" stroke="black" stroke-width="2" fill="none" />
<path d="M172.5,146.0,180.0,139.0,188.0,132.0" stroke="black" stroke-width="2" fill="none" />
<path d="M187.0,133.0,179.5,133.0,171.5,133.5" stroke="black" stroke-width="2" fill="none" />
<path d="M170.5,137.0,178.5,129.5" stroke="black" stroke-width="2" fill="none" />
<path d="M173.5,126.5,181.5,126.0,189.5,125.0" stroke="black" stroke-width="2" fill="none" />
<path d="M183.5,133.5,191.0,140.5" stroke="black" stroke-width="2" fill="none" />
<path d="M184.0,147.5,188.5,139.5,180.0,131.5,180.0,123.5,177.5,119.0,169.5,125.0" stroke="black" stroke-width="2" fill="none" />
<path d="M175.5,119.0,171.5,127.0,167.5,134.5,166.0,142.5,167.0,143.5,175.0,141.5,183.0,143.5,190.0,144.0,193.0,151.0,201.0,152.0,209.0,154.0,217.0,158.0,225.0,163.0,232.5,169.0" stroke="black" stroke-width="2" fill="none" />
<path d="M204.0,164.5,196.5,165.0,189.0,165.5,181.0,166.0,173.0,167.0,165.0,168.0,156.5,169.0,148.0,170.5,140.0,171.0" stroke="black" stroke-width="2" fill="none" />
<path d="M148.0,154.5,132.5,162.5,121.5,170.0,112.0,179.5,108.0,188.0,108.0,196.0,110.5,204.0,113.5,212.0,120.0,220.0,134.0,228.5" stroke="black" stroke-width="2" fill="none" />
<path d="M123.0,221.5,131.0,221.5,139.0,221.5,147.0,221.0,155.0,220.5,162.5,220.0,171.0,219.5,179.5,219.0,188.0,219.0,196.5,219.0,205.0,218.0,213.0,218.0,221.0,217.0,229.5,216.5,237.5,216.0" stroke="black" stroke-width="2" fill="none" />
<path d="M229.0,220.0,237.0,212.0,241.0,204.0,243.0,196.0,243.0,188.0,236.0,178.0,228.0,176.5,220.0,177.0,212.0,179.0,204.0,180.0,196.0,181.5,188.0,181.5,180.0,181.0,172.5,181.0,164.5,180.5,156.0,179.5,148.0,179.0,140.0,178.5,132.5,177.5,124.5,176.5,116.5,174.5,108.5,184.0" stroke="black" stroke-width="2" fill="none" />
<path d="M115.5,171.5,123.5,168.0,132.0,163.0,140.0,158.0,148.5,154.0,156.0,152.0,164.5,150.5" stroke="black" stroke-width="2" fill="none" />
<path d="M199.0,155.5,205.5,163.5,212.5,172.0" stroke="black" stroke-width="2" fill="none" />
<path d="M208.5,169.5,200.5,160.0" stroke="black" stroke-width="2" fill="none" />
<path d="M203.0,152.5,219.0,160.5,230.0,169.0,228.5,174.0" stroke="black" stroke-width="2" fill="none" />
<path d="M214.0,193.5,216.5,201.0" stroke="black" stroke-width="2" fill="none" />
<path d="M128.0,188.0,125.0,196.0,126.5,204.0,125.5,200.0,126.5,191.0" stroke="black" stroke-width="2" fill="none" />
<path d="M145.0,348.0,135.0,356.5,145.5,364.5" stroke="black" stroke-width="2" fill="none" />
<path d="M328.5,347.5,329.5,340.5,335.5,332.5,343.5,332.5,351.0,331.5" stroke="black" stroke-width="2" fill="none" />
<path d="M354.0,354.0,346.0,355.0,337.5,356.0,329.5,355.0" stroke="black" stroke-width="2" fill="none" />
<path d="M329.0,349.5,337.0,346.5,345.0,346.0,355.0,348.0" stroke="black" stroke-width="2" fill="none" />
<path d="M344.5,289.5,336.5,296.5,329.0,297.0,321.0,297.0" stroke="black" stroke-width="2" fill="none" />
<path d="M316.0,251.5,324.0,251.0,331.5,250.0" stroke="black" stroke-width="2" fill="none" />
<path d="M324.0,237.5,324.0,245.5,324.0,253.5,323.0,261.0,323.0,269.0,323.0,276.5,322.0,283.5" stroke="black" stroke-width="2" fill="none" />
<path d="M315.0,238.0,323.0,237.5,331.0,237.5,339.5,237.0,348.5,237.0" stroke="black" stroke-width="2" fill="none" />
<path d="M348.0,228.0,339.0,228.5,331.0,228.5,323.0,228.5,315.0,229.0" stroke="black" stroke-width="2" fill="none" />
<path d="M315.5,222.0,323.5,221.5,331.5,220.5,339.5,220.0,347.5,219.0" stroke="black" stroke-width="2" fill="none" />
<path d="M311.5,114.5,315.5,107.0,316.0,106.0,308.0,112.0,299.5,116.5,291.5,115.5" stroke="black" stroke-width="2" fill="none" />
<path d="M283.5,109.0,291.5,108.5,299.5,108.0,307.0,107.5,315.0,107.0,323.0,106.5,331.5,106.0,339.5,106.0,348.0,106.0,356.0,105.5,363.5,105.0,371.5,104.5,379.5,103.5" stroke="black" stroke-width="2" fill="none" />
</svg>