<svg xmlns="http://www.w3.org/2000/svg" version="1.1"><path d="M182.0,112.5,168.0,120.5,151.0,128.5,136.0,137.0,120.5,145.0,102.5,153.0,88.0,161.0,70.0,169.0,58.5,177.5,57.5,185.5,57.5,194.0,59.5,198.5,67.5,200.0,75.5,199.5,83.5,201.0" stroke="black" stroke-width="2" fill="none" />
<path d="M84.0,202.0,84.0,209.5,88.0,217.5,93.0,225.5,100.5,234.0,108.5,242.0,108.5,250.5,109.5,259.0,109.5,267.0,110.0,275.0,109.5,283.0,110.0,291.0,109.5,299.0,110.5,307.0,110.5,315.0,110.5,323.0,110.0,331.0,110.0,338.5,111.0,346.5,111.0,354.5,111.0,362.5,111.0,370.5,111.0,378.5,111.0,386.0,112.5,393.5,107.5,401.5,108.5,410.0,109.0,418.0,108.0,426.5,103.0,434.5,104.5,442.5,116.0,450.5" stroke="black" stroke-width="2" fill="none" />
<path d="M114.5,447.0,122.5,446.5,131.0,445.5,139.5,445.0" stroke="black" stroke-width="2" fill="none" />
<path d="M147.0,446.0,155.5,445.5,163.5,444.5,171.5,444.0" stroke="black" stroke-width="2" fill="none" />
<path d="M181.5,441.0,190.0,433.0" stroke="black" stroke-width="2" fill="none" />
<path d="M187.5,427.5,180.0,434.5,172.0,442.0" stroke="black" stroke-width="2" fill="none" />
<path d="M169.5,435.5,177.5,428.0" stroke="black" stroke-width="2" fill="none" />
<path d="M170.5,426.0,162.0,433.5" stroke="black" stroke-width="2" fill="none" />
<path d="M162.5,428.5,155.0,436.0" stroke="black" stroke-width="2" fill="none" />
<path d="M153.5,429.5,145.5,437.0" stroke="black" stroke-width="2" fill="none" />
<path d="M146.5,428.0,138.5,435.5,131.0,442.5" stroke="black" stroke-width="2" fill="none" />
<path d="M133.5,441.0,125.5,442.0,117.5,442.5,109.5,443.5" stroke="black" stroke-width="2" fill="none" />
<path d="M108.5,435.0,116.5,434.5,124.5,434.0,132.5,433.5,140.0,432.5,148.0,432.5,155.5,431.5,163.5,431.0,171.5,430.5,179.5,430.0" stroke="black" stroke-width="2" fill="none" />
<path d="M179.5,419.0,187.5,411.5" stroke="black" stroke-width="2" fill="none" />
<path d="M188.5,417.5,197.0,410.0" stroke="black" stroke-width="2" fill="none" />
<path d="M203.0,410.5,194.5,418.0" stroke="black" stroke-width="2" fill="none" />
<path d="M204.0,420.5,212.0,413.0" stroke="black" stroke-width="2" fill="none" />
<path d="M211.0,416.5,219.0,409.5" stroke="black" stroke-width="2" fill="none" />
<path d="M227.5,411.0,219.0,418.0,211.5,425.0" stroke="black" stroke-width="2" fill="none" />
<path d="M219.0,427.0,227.0,420.0" stroke="black" stroke-width="2" fill="none" />
<path d="M227.5,425.5,235.0,425.0,243.0,424.0,251.0,423.5,259.5,423.0" stroke="black" stroke-width="2" fill="none" />
<path d="M261.5,422.0,253.5,429.0" stroke="black" stroke-width="2" fill="none" />
<path d="M259.5,433.5,268.0,426.0,276.5,419.0" stroke="black" stroke-width="2" fill="none" />
<path d="M274.5,426.5,267.0,434.0" stroke="black" stroke-width="2" fill="none" />
<path d="M274.5,436.0,281.5,428.5" stroke="black" stroke-width="2" fill="none" />
<path d="M283.0,433.0,291.0,425.5" stroke="black" stroke-width="2" fill="none" />
<path d="M293.0,432.5,301.5,425.0" stroke="black" stroke-width="2" fill="none" />
<path d="M310.0,427.5,301.5,435.0" stroke="black" stroke-width="2" fill="none" />
<path d="M313.5,437.5,321.5,430.5,329.5,423.0,337.5,415.5,345.5,408.5,354.0,401.0,362.5,393.5,371.0,385.5,379.5,377.5,388.0,370.0,396.0,363.0,404.0,355.5" stroke="black" stroke-width="2" fill="none" />
<path d="M405.5,363.0,397.5,370.0,389.0,377.0,380.5,384.5,371.5,392.5,363.0,400.0,354.5,408.0,346.5,415.5,338.5,423.5,330.5,432.0,322.5,439.5" stroke="black" stroke-width="2" fill="none" />
<path d="M316.0,442.0,323.5,441.5,331.5,441.0,339.0,440.5,347.0,440.0" stroke="black" stroke-width="2" fill="none" />
<path d="M343.5,439.0,351.0,427.5,363.5,417.5,371.5,406.0,379.5,394.0,387.5,382.5,395.5,370.5" stroke="black" stroke-width="2" fill="none" />
<path d="M396.5,369.5,404.5,369.5" stroke="black" stroke-width="2" fill="none" />
<path d="M405.0,371.0,396.5,378.5,388.5,386.5,380.5,394.5,372.0,402.5,363.5,410.0" stroke="black" stroke-width="2" fill="none" />
<path d="M361.5,418.5,369.5,418.5" stroke="black" stroke-width="2" fill="none" />
<path d="M369.5,419.5,361.5,427.0,354.0,434.5,346.0,441.5,338.0,448.5,331.0,456.0,322.5,463.5,314.5,471.0" stroke="black" stroke-width="2" fill="none" />
<path d="M315.5,467.0,323.5,465.5,331.5,464.5,339.0,463.5,347.0,462.5" stroke="black" stroke-width="2" fill="none" />
<path d="M349.0,462.5,341.0,469.5,332.5,476.0,324.5,483.0" stroke="black" stroke-width="2" fill="none" />
<path d="M329.5,481.5,338.0,481.5" stroke="black" stroke-width="2" fill="none" />
<path d="M331.5,483.0,339.5,475.5,348.0,467.5" stroke="black" stroke-width="2" fill="none" />
<path d="M347.0,466.5,339.5,466.5,331.5,466.0,324.0,466.5,316.5,467.0,309.0,467.5,301.5,467.5,293.5,468.0" stroke="black" stroke-width="2" fill="none" />
<path d="M299.0,466.5,307.0,459.0,315.0,451.5" stroke="black" stroke-width="2" fill="none" />
<path d="M310.0,452.0,302.0,459.0" stroke="black" stroke-width="2" fill="none" />
<path d="M307.5,464.0,315.5,457.0,323.5,449.5,331.0,442.5,339.0,435.5,347.0,428.5,354.5,421.0" stroke="black" stroke-width="2" fill="none" />
<path d="M356.5,424.5,365.0,417.5,373.5,410.0,381.0,402.5,389.5,394.0,397.5,386.5,405.5,379.0,413.5,371.5" stroke="black" stroke-width="2" fill="none" />
<path d="M412.0,379.0,403.5,386.5,396.0,394.0" stroke="black" stroke-width="2" fill="none" />
<path d="M389.0,395.0,384.0,403.0,378.5,411.0,373.5,419.0,368.5,427.0,362.5,435.0,358.0,442.5,353.5,450.5,351.5,459.0,351.5,467.5,348.0,475.5,345.0,483.5" stroke="black" stroke-width="2" fill="none" />
<path d="M339.0,474.5,331.0,475.0" stroke="black" stroke-width="2" fill="none" />
<path d="M323.5,474.0,331.5,466.5,340.0,459.0,348.0,451.5" stroke="black" stroke-width="2" fill="none" />
<path d="M347.5,449.5,339.5,450.0,332.0,450.5" stroke="black" stroke-width="2" fill="none" />
<path d="M329.5,434.5,337.5,434.0,345.5,433.5" stroke="black" stroke-width="2" fill="none" />
<path d="M346.0,435.0,338.0,442.5,331.0,449.5,323.5,456.5,315.5,463.5" stroke="black" stroke-width="2" fill="none" />
<path d="M314.5,477.5,322.5,476.5,331.0,476.0,339.0,475.5,347.5,474.5" stroke="black" stroke-width="2" fill="none" />
<path d="M343.0,469.5,338.0,477.5,340.5,472.5" stroke="black" stroke-width="2" fill="none" />
<path d="M354.5,456.5,347.0,457.0,339.5,458.0,331.5,458.0,323.5,458.0,315.5,458.5,307.5,459.0,300.0,460.0,292.5,461.0,285.0,462.0" stroke="black" stroke-width="2" fill="none" />
<path d="M284.5,461.0,292.0,453.5" stroke="black" stroke-width="2" fill="none" />
<path d="M294.0,457.0,302.0,449.5" stroke="black" stroke-width="2" fill="none" />
<path d="M307.0,441.5,315.0,433.5,322.5,426.0" stroke="black" stroke-width="2" fill="none" />
<path d="M314.5,425.5,306.5,433.0,298.5,441.5" stroke="black" stroke-width="2" fill="none" />
<path d="M291.5,444.0,283.5,451.0,275.5,458.5" stroke="black" stroke-width="2" fill="none" />
<path d="M284.5,459.0,292.5,458.5,300.5,457.5,308.5,456.5,316.5,455.5,324.5,454.5,332.5,454.0,341.0,453.5,349.0,453.0" stroke="black" stroke-width="2" fill="none" />
<path d="M347.0,424.0,338.5,424.5,330.5,425.0" stroke="black" stroke-width="2" fill="none" />
<path d="M333.0,420.5,340.5,420.0,348.5,419.5,356.0,419.0,363.5,419.0,371.0,419.0" stroke="black" stroke-width="2" fill="none" />
<path d="M373.0,408.0,380.5,407.5" stroke="black" stroke-width="2" fill="none" />
<path d="M379.0,393.5,387.0,392.5" stroke="black" stroke-width="2" fill="none" />
<path d="M387.5,393.5,379.5,394.5,372.0,395.5,364.0,396.0,355.5,396.5,347.5,397.0,339.5,397.5,332.0,398.0" stroke="black" stroke-width="2" fill="none" />
<path d="M332.0,397.5,339.5,390.5,347.5,383.5,356.0,376.5,364.5,369.0,372.5,361.5,380.0,353.5,388.0,346.0,396.0,338.5,404.0,331.5" stroke="black" stroke-width="2" fill="none" />
<path d="M403.0,337.5,395.0,345.0,387.0,352.5,379.0,359.5,371.0,367.0" stroke="black" stroke-width="2" fill="none" />
<path d="M371.0,369.0,379.0,369.0,387.0,369.5" stroke="black" stroke-width="2" fill="none" />
<path d="M380.5,361.5,389.0,361.0,396.5,360.5,404.0,360.0" stroke="black" stroke-width="2" fill="none" />
<path d="M405.0,353.0,397.0,353.5,389.0,354.0,381.0,354.5" stroke="black" stroke-width="2" fill="none" />
<path d="M379.0,346.5,387.5,346.0" stroke="black" stroke-width="2" fill="none" />
<path d="M393.5,346.5,401.5,345.5" stroke="black" stroke-width="2" fill="none" />
<path d="M405.5,346.5,397.0,354.0,389.5,362.0,381.0,369.5,373.0,377.0" stroke="black" stroke-width="2" fill="none" />
<path d="M364.5,379.0,356.5,386.5,348.5,394.5,340.5,401.5,332.5,409.0" stroke="black" stroke-width="2" fill="none" />
<path d="M333.0,412.5,341.0,412.0,348.5,412.0,356.0,411.5,363.0,410.0,370.5,409.5,378.5,410.0" stroke="black" stroke-width="2" fill="none" />
<path d="M357.5,408.5,350.5,409.0" stroke="black" stroke-width="2" fill="none" />
<path d="M347.5,417.5,340.0,418.0" stroke="black" stroke-width="2" fill="none" />
<path d="M331.5,417.5,340.0,410.0,348.5,402.5,356.0,395.0,364.0,387.0" stroke="black" stroke-width="2" fill="none" />
<path d="M364.5,390.0,368.5,372.5" stroke="black" stroke-width="2" fill="none" />
<path d="M364.0,359.5,356.0,360.0" stroke="black" stroke-width="2" fill="none" />
<path d="M355.0,353.5,363.5,353.5" stroke="black" stroke-width="2" fill="none" />
<path d="M364.0,346.0,356.0,347.0" stroke="black" stroke-width="2" fill="none" />
<path d="M355.5,338.0,363.5,337.0,371.5,336.0" stroke="black" stroke-width="2" fill="none" />
<path d="M369.5,337.0,362.0,345.0,354.5,353.0,347.0,361.0,339.5,368.5,332.0,376.0" stroke="black" stroke-width="2" fill="none" />
<path d="M330.0,376.0,337.5,375.0,345.5,374.0,354.0,373.0,362.0,372.0,370.0,371.5,379.0,370.0,387.5,369.0,396.0,368.0,404.0,367.5,412.0,367.0" stroke="black" stroke-width="2" fill="none" />
<path d="M405.0,377.5,397.0,378.0" stroke="black" stroke-width="2" fill="none" />
<path d="M388.0,387.0,395.5,386.0,403.5,385.5,411.5,385.0" stroke="black" stroke-width="2" fill="none" />
<path d="M412.0,387.0,404.0,394.5" stroke="black" stroke-width="2" fill="none" />
<path d="M411.0,384.5,403.0,385.0,395.5,385.0,387.5,385.5,379.0,385.5,371.0,386.0,363.5,387.0,356.0,388.5,348.5,389.0,341.0,389.5,333.5,390.5" stroke="black" stroke-width="2" fill="none" />
<path d="M333.0,392.5,341.0,384.5,349.0,377.0,357.0,369.5,365.0,362.0,373.0,354.0,381.0,346.5,389.0,339.0" stroke="black" stroke-width="2" fill="none" />
<path d="M395.5,339.5,403.0,339.0" stroke="black" stroke-width="2" fill="none" />
<path d="M405.5,343.5,408.5,352.5,409.0,360.5,409.0,368.5,411.0,376.5,417.0,384.0,411.0,392.0" stroke="black" stroke-width="2" fill="none" />
<path d="M419.5,376.0,411.5,376.0,403.5,377.0,396.0,377.0,388.0,377.5,379.5,377.5,371.5,378.0,363.5,379.0,355.5,380.0,347.5,381.0,339.5,382.5,331.5,383.5" stroke="black" stroke-width="2" fill="none" />
<path d="M331.5,383.0,339.0,375.5,346.5,368.5,354.0,361.0,362.0,353.5,370.5,345.5" stroke="black" stroke-width="2" fill="none" />
<path d="M379.5,336.0,387.5,340.0" stroke="black" stroke-width="2" fill="none" />
<path d="M396.5,334.0,404.5,333.5" stroke="black" stroke-width="2" fill="none" />
<path d="M405.0,330.5,397.0,331.0" stroke="black" stroke-width="2" fill="none" />
<path d="M395.5,331.0,403.5,323.5" stroke="black" stroke-width="2" fill="none" />
<path d="M397.0,327.0,404.5,327.0,412.5,326.5" stroke="black" stroke-width="2" fill="none" />
<path d="M404.5,316.0,396.0,323.0" stroke="black" stroke-width="2" fill="none" />
<path d="M396.5,320.5,404.5,320.0" stroke="black" stroke-width="2" fill="none" />
<path d="M411.5,314.5,404.0,315.0,396.5,316.0" stroke="black" stroke-width="2" fill="none" />
<path d="M396.0,315.0,404.0,307.5" stroke="black" stroke-width="2" fill="none" />
<path d="M402.5,299.5,395.0,307.0" stroke="black" stroke-width="2" fill="none" />
<path d="M393.0,308.5,401.0,308.0,408.5,307.5" stroke="black" stroke-width="2" fill="none" />
<path d="M402.5,311.5,394.5,312.0" stroke="black" stroke-width="2" fill="none" />
<path d="M394.0,304.0,402.0,303.5" stroke="black" stroke-width="2" fill="none" />
<path d="M396.0,300.0,404.0,299.5,411.5,298.5" stroke="black" stroke-width="2" fill="none" />
<path d="M403.5,290.5,395.5,298.5" stroke="black" stroke-width="2" fill="none" />
<path d="M397.0,296.5,405.0,295.5" stroke="black" stroke-width="2" fill="none" />
<path d="M397.0,291.5,405.0,291.0,412.5,290.5" stroke="black" stroke-width="2" fill="none" />
<path d="M404.5,282.0,396.5,289.5" stroke="black" stroke-width="2" fill="none" />
<path d="M395.5,288.5,403.5,288.0" stroke="black" stroke-width="2" fill="none" />
<path d="M396.5,275.0,405.0,267.5,413.0,260.0" stroke="black" stroke-width="2" fill="none" />
<path d="M413.0,252.5,404.5,260.0,396.0,267.5" stroke="black" stroke-width="2" fill="none" />
<path d="M395.0,264.0,403.0,264.0" stroke="black" stroke-width="2" fill="none" />
<path d="M395.0,260.0,403.0,253.0,411.5,245.5" stroke="black" stroke-width="2" fill="none" />
<path d="M409.0,238.0,401.0,245.5,393.5,252.0" stroke="black" stroke-width="2" fill="none" />
<path d="M388.0,261.0,380.0,268.5,372.0,275.5" stroke="black" stroke-width="2" fill="none" />
<path d="M372.0,276.0,380.0,275.5,387.5,275.0,395.5,274.5,403.5,274.0,412.0,274.0" stroke="black" stroke-width="2" fill="none" />
<path d="M404.5,273.0,396.5,281.0" stroke="black" stroke-width="2" fill="none" />
<path d="M394.0,273.0,402.5,272.5" stroke="black" stroke-width="2" fill="none" />
<path d="M396.0,272.5,394.5,280.0,395.0,288.5,394.5,296.5,394.5,304.0,393.5,312.0,393.5,319.5,393.5,327.5,392.0,335.0" stroke="black" stroke-width="2" fill="none" />
<path d="M379.5,323.5,371.5,331.5,363.5,339.0,355.5,346.5,347.0,354.0,339.5,361.5,332.0,369.0" stroke="black" stroke-width="2" fill="none" />
<path d="M331.0,370.5,339.0,370.0,346.5,369.0,355.0,368.5,363.0,367.0" stroke="black" stroke-width="2" fill="none" />
<path d="M363.5,384.0,355.0,384.0,347.0,384.0,338.5,384.0" stroke="black" stroke-width="2" fill="none" />
<path d="M339.5,375.5,347.0,375.5,355.0,375.0,363.0,374.5" stroke="black" stroke-width="2" fill="none" />
<path d="M356.0,401.0,348.0,401.5,339.5,402.0" stroke="black" stroke-width="2" fill="none" />
<path d="M339.5,394.0,347.5,393.5,355.0,393.5" stroke="black" stroke-width="2" fill="none" />
<path d="M331.5,404.0,339.5,403.5,347.0,403.0,355.0,403.0,363.0,403.0,371.5,402.0,379.0,401.5,387.0,400.5" stroke="black" stroke-width="2" fill="none" />
<path d="M389.5,389.5,384.0,397.5,378.0,405.5,372.5,413.5,367.5,421.0,361.5,429.0,357.0,437.5" stroke="black" stroke-width="2" fill="none" />
<path d="M365.0,431.5,357.0,432.0,349.0,433.0,340.5,434.0,332.0,435.0,324.0,436.0,316.0,436.5,307.5,437.5,299.0,438.0,290.5,438.5,282.5,439.5" stroke="black" stroke-width="2" fill="none" />
<path d="M281.0,443.5,273.5,451.0,266.0,458.5" stroke="black" stroke-width="2" fill="none" />
<path d="M267.0,451.0,275.0,444.0" stroke="black" stroke-width="2" fill="none" />
<path d="M276.0,434.5,284.5,434.0,292.5,433.5,300.5,433.0,309.0,432.0,317.5,432.0" stroke="black" stroke-width="2" fill="none" />
<path d="M364.0,423.5,356.5,424.0,349.0,424.0,341.0,424.0,332.5,424.0,325.0,424.0,317.0,424.5,309.0,425.0,301.0,426.0,293.0,426.5,284.5,427.0,276.5,427.5,268.5,428.0,260.0,428.5,251.5,429.5,243.5,430.0" stroke="black" stroke-width="2" fill="none" />
<path d="M243.5,427.0,251.5,419.5" stroke="black" stroke-width="2" fill="none" />
<path d="M244.0,419.0,236.0,426.5" stroke="black" stroke-width="2" fill="none" />
<path d="M234.5,420.0,226.0,427.5" stroke="black" stroke-width="2" fill="none" />
<path d="M226.0,437.0,218.0,444.0" stroke="black" stroke-width="2" fill="none" />
<path d="M220.0,451.0,228.5,443.5,237.0,436.0" stroke="black" stroke-width="2" fill="none" />
<path d="M237.5,444.0,230.0,451.5" stroke="black" stroke-width="2" fill="none" />
<path d="M234.5,451.5,243.0,444.0" stroke="black" stroke-width="2" fill="none" />
<path d="M250.5,444.0,242.5,452.0" stroke="black" stroke-width="2" fill="none" />
<path d="M235.5,451.0,243.5,451.0,252.0,451.0,260.5,451.0,268.5,451.5,277.0,451.0,285.0,451.0,293.5,451.0,301.5,450.5,308.5,449.5,316.5,448.5,324.5,448.0,332.5,447.0,340.5,446.5,349.0,446.0,356.5,445.5" stroke="black" stroke-width="2" fill="none" />
<path d="M356.0,437.0,348.0,437.5,340.0,438.0,332.5,438.0,325.0,438.5,316.5,439.0,308.5,439.0,299.5,439.5,291.0,440.0,283.0,440.5,275.0,440.5,267.5,441.0,259.0,441.5,250.5,442.0,242.5,442.0,234.0,442.5,226.0,443.5,218.0,443.5,210.0,444.0,202.5,444.5,194.5,445.5,186.5,446.0" stroke="black" stroke-width="2" fill="none" />
<path d="M188.0,442.5,196.0,442.0,204.0,441.5,212.0,441.0,219.5,440.5" stroke="black" stroke-width="2" fill="none" />
<path d="M219.0,434.5,211.5,441.5" stroke="black" stroke-width="2" fill="none" />
<path d="M211.0,437.0,203.0,444.0" stroke="black" stroke-width="2" fill="none" />
<path d="M195.5,442.5,203.5,434.5" stroke="black" stroke-width="2" fill="none" />
<path d="M198.0,434.5,189.5,442.5" stroke="black" stroke-width="2" fill="none" />
<path d="M171.0,419.0,179.0,411.5,187.0,404.0" stroke="black" stroke-width="2" fill="none" />
<path d="M177.5,404.0,169.5,411.5,161.5,418.5" stroke="black" stroke-width="2" fill="none" />
<path d="M155.5,417.0,163.0,409.0,171.0,401.5" stroke="black" stroke-width="2" fill="none" />
<path d="M166.5,406.5,174.0,408.5,181.5,409.5,189.5,410.5,197.5,413.0,205.5,414.0,213.5,414.5,221.5,416.0,229.5,416.5,237.5,417.0,245.5,419.0,253.5,420.0,261.5,421.5,270.0,422.5,278.0,424.5,286.5,425.5,294.5,427.0,303.0,429.0,311.0,430.5,319.0,431.5,327.0,432.5" stroke="black" stroke-width="2" fill="none" />
<path d="M308.5,406.5,300.5,407.5,292.5,408.5,285.0,409.5,277.0,410.5,269.5,411.0,261.0,411.5,252.5,412.0,244.0,412.5,235.5,413.5,227.0,414.5,219.0,415.0,211.5,416.0,203.0,416.5,194.5,417.5,186.5,418.0,179.0,418.5,171.0,419.0,163.0,419.5,155.5,420.0,148.0,420.0,140.0,420.5,132.0,421.5,124.5,421.5,116.5,421.5,108.0,421.5" stroke="black" stroke-width="2" fill="none" />
<path d="M109.5,424.5,116.5,416.5,124.0,409.5,132.0,402.0,140.5,394.5,148.0,387.0,156.0,379.5,164.0,372.0,172.5,364.5,181.0,357.0,189.5,350.0,197.5,342.5,205.0,335.0,212.5,327.0,220.0,319.5,228.0,312.0,235.5,304.5,243.0,296.5,251.0,289.5,258.5,282.0,267.0,274.5,275.0,267.0,282.5,259.5,290.5,252.0,298.0,244.5,306.5,237.0,314.5,229.0,322.5,221.0,330.5,213.5,339.0,206.0,347.0,198.5,355.0,191.0,363.5,183.5,372.0,175.5,380.0,167.5,388.0,160.0,395.5,153.0,404.0,146.0,412.5,139.0,421.0,132.0" stroke="black" stroke-width="2" fill="none" />
<path d="M427.5,130.0,419.5,137.5,411.0,145.5,403.0,153.0,396.0,161.5,388.0,170.0,380.0,177.5,372.5,185.0,365.0,192.5,357.5,199.5,349.5,207.0,341.0,214.5,333.5,222.0,325.5,229.5,317.0,236.5,309.0,243.5,300.5,251.0,292.0,259.0,283.5,267.0,274.5,275.0,266.5,282.5,258.5,290.5,251.0,298.0,243.0,305.5,234.5,312.5,227.0,320.5,219.0,327.5,211.5,335.5,204.0,343.0,196.5,350.5,188.5,358.0,180.5,365.5,172.5,372.5,164.5,380.0,157.0,387.0,149.5,395.0,141.5,402.0,134.0,409.5,126.0,416.5,117.5,423.5" stroke="black" stroke-width="2" fill="none" />
<path d="M114.0,426.5,122.0,426.0,131.0,425.5" stroke="black" stroke-width="2" fill="none" />
<path d="M122.5,418.5,114.5,419.0" stroke="black" stroke-width="2" fill="none" />
<path d="M109.0,422.5,117.5,415.0,125.5,408.0,133.5,401.0,141.0,393.0,149.0,385.0,157.0,377.0,165.5,369.5,174.0,362.0,182.0,354.5,189.5,346.5,197.0,339.0,204.5,331.5,212.5,324.0" stroke="black" stroke-width="2" fill="none" />
<path d="M217.5,322.0,209.5,329.5,202.0,337.5,194.0,345.0,186.5,353.0,178.5,360.0,171.0,368.0,162.5,376.0,154.5,383.5,147.0,391.0,139.0,398.0,131.0,405.5,123.0,412.5,115.5,420.0,108.0,427.0" stroke="black" stroke-width="2" fill="none" />
<path d="M98.5,428.0,106.5,427.5,115.0,427.5,123.0,427.0,130.5,426.5,138.5,426.0,147.0,425.5,155.0,425.5,163.5,425.5,171.5,425.0,179.5,424.5,187.5,424.0,195.0,424.0,203.0,424.0,211.0,424.0" stroke="black" stroke-width="2" fill="none" />
<path d="M235.5,448.0,243.5,448.0,252.0,448.0,260.5,447.0,269.0,446.0,277.0,445.5" stroke="black" stroke-width="2" fill="none" />
<path d="M265.5,442.5,258.0,450.5" stroke="black" stroke-width="2" fill="none" />
<path d="M259.0,444.5,251.5,452.0" stroke="black" stroke-width="2" fill="none" />
<path d="M258.5,426.0,266.0,418.5" stroke="black" stroke-width="2" fill="none" />
<path d="M253.5,371.5,245.0,372.5,236.5,373.5,228.0,374.5,219.5,375.0,211.5,375.5,203.0,376.5,194.5,377.0,186.5,377.5,178.5,378.0,171.0,378.5,163.5,379.0,156.0,379.0,147.5,379.5,139.0,379.5,131.0,379.5,123.0,380.0,115.0,380.0" stroke="black" stroke-width="2" fill="none" />
<path d="M115.5,378.0,123.5,377.5" stroke="black" stroke-width="2" fill="none" />
<path d="M123.0,381.0,115.0,388.5" stroke="black" stroke-width="2" fill="none" />
<path d="M114.5,387.5,122.5,386.5,130.5,386.0,138.5,385.0,146.0,384.5,153.5,384.0,162.0,383.5,170.5,383.5,178.5,383.5" stroke="black" stroke-width="2" fill="none" />
<path d="M188.0,391.5,196.0,391.0,203.5,390.0" stroke="black" stroke-width="2" fill="none" />
<path d="M203.5,369.5,211.5,362.0,220.0,355.0,228.0,347.5" stroke="black" stroke-width="2" fill="none" />
<path d="M230.0,346.5,238.0,348.5,246.0,348.5,254.0,349.0,262.5,349.5,270.5,350.5,278.5,352.0,287.0,353.0,295.0,354.5,303.0,355.5,311.5,356.5,319.0,357.5,327.0,359.5" stroke="black" stroke-width="2" fill="none" />
<path d="M325.5,355.5,317.0,363.0" stroke="black" stroke-width="2" fill="none" />
<path d="M315.5,368.5,324.0,360.5,332.0,352.5,340.0,345.0,348.0,337.5,355.5,330.0,363.0,323.0,370.5,316.0,378.5,308.5" stroke="black" stroke-width="2" fill="none" />
<path d="M379.5,314.5,371.5,322.0,363.0,329.5,355.5,337.5,348.0,345.0,340.5,352.5,333.0,360.5,325.0,368.5" stroke="black" stroke-width="2" fill="none" />
<path d="M330.5,373.0,331.5,381.0,331.0,388.0,330.0,395.5,329.5,403.0,330.0,411.0,329.5,418.0,329.5,425.5" stroke="black" stroke-width="2" fill="none" />
<path d="M328.0,381.0,320.5,379.5,312.5,379.5,305.0,377.5,297.5,376.5" stroke="black" stroke-width="2" fill="none" />
<path d="M307.5,361.5,315.5,354.0" stroke="black" stroke-width="2" fill="none" />
<path d="M307.5,357.5,300.0,365.0" stroke="black" stroke-width="2" fill="none" />
<path d="M291.0,362.0,299.5,354.5" stroke="black" stroke-width="2" fill="none" />
<path d="M301.0,347.5,308.5,340.0" stroke="black" stroke-width="2" fill="none" />
<path d="M308.5,345.5,316.5,345.0,324.5,344.0,332.5,343.5,341.0,343.0,348.5,342.5" stroke="black" stroke-width="2" fill="none" />
<path d="M347.5,353.5,339.5,354.0" stroke="black" stroke-width="2" fill="none" />
<path d="M332.0,350.0,340.5,350.0,348.0,349.5,356.0,349.0,364.0,349.0,372.0,348.0,380.0,347.0,388.0,346.5,396.5,346.0,404.5,346.0,412.0,346.0" stroke="black" stroke-width="2" fill="none" />
<path d="M411.5,356.0,403.5,356.5,396.5,357.5,389.0,358.5,381.0,358.5,372.5,358.5,364.5,358.5,356.5,359.0,349.0,359.5,340.5,360.0,332.5,361.0,324.0,362.5,316.0,363.0,308.0,364.0,299.5,364.0,291.5,364.5,283.0,365.0,274.5,365.0,266.0,365.5" stroke="black" stroke-width="2" fill="none" />
<path d="M275.5,364.5,283.5,357.0" stroke="black" stroke-width="2" fill="none" />
<path d="M283.0,361.5,291.0,354.5" stroke="black" stroke-width="2" fill="none" />
<path d="M290.5,346.0,298.5,338.5" stroke="black" stroke-width="2" fill="none" />
<path d="M290.5,329.5,282.5,337.0" stroke="black" stroke-width="2" fill="none" />
<path d="M282.0,333.0,274.0,340.5" stroke="black" stroke-width="2" fill="none" />
<path d="M267.0,339.0,275.5,331.5" stroke="black" stroke-width="2" fill="none" />
<path d="M267.0,330.5,259.0,338.5" stroke="black" stroke-width="2" fill="none" />
<path d="M261.0,343.0,269.0,342.5,276.0,342.0,284.0,341.0,292.0,340.0,299.5,339.0,307.5,338.0,315.5,337.0,323.0,336.5,331.5,336.5,339.5,336.0,348.0,335.5,356.0,335.0,364.5,334.5,372.5,333.5,381.0,333.0,389.0,333.0,397.0,332.5,404.5,332.0,412.5,332.0" stroke="black" stroke-width="2" fill="none" />
<path d="M380.5,330.5,373.0,331.5,365.0,331.5,356.5,331.5,348.5,331.5,340.5,332.0,333.0,332.5" stroke="black" stroke-width="2" fill="none" />
<path d="M339.5,329.0,348.0,328.5,356.0,328.5,364.0,328.5,371.5,328.0" stroke="black" stroke-width="2" fill="none" />
<path d="M371.0,313.0,363.5,313.5" stroke="black" stroke-width="2" fill="none" />
<path d="M364.0,306.5,372.5,299.0,380.5,292.0,388.5,285.0" stroke="black" stroke-width="2" fill="none" />
<path d="M388.0,276.5,380.0,284.0,372.0,291.5,363.5,299.0" stroke="black" stroke-width="2" fill="none" />
<path d="M363.5,299.5,371.5,299.0,379.5,298.5,387.5,298.0" stroke="black" stroke-width="2" fill="none" />
<path d="M380.0,298.5,372.0,306.5,363.5,314.5,355.0,322.0,346.5,329.5,338.0,337.0,330.0,345.0" stroke="black" stroke-width="2" fill="none" />
<path d="M323.5,346.0,331.0,338.0,339.0,330.0,346.5,322.5,355.0,315.0" stroke="black" stroke-width="2" fill="none" />
<path d="M355.5,319.5,363.5,319.5,371.5,319.0" stroke="black" stroke-width="2" fill="none" />
<path d="M370.5,305.0,379.0,305.0" stroke="black" stroke-width="2" fill="none" />
<path d="M378.5,297.5,370.5,298.0" stroke="black" stroke-width="2" fill="none" />
<path d="M364.0,293.5,371.5,292.5,379.5,291.5,387.0,291.0" stroke="black" stroke-width="2" fill="none" />
<path d="M378.5,287.5,370.5,287.5" stroke="black" stroke-width="2" fill="none" />
<path d="M371.5,283.0,379.0,275.5,387.0,268.0" stroke="black" stroke-width="2" fill="none" />
<path d="M386.5,264.5,379.0,265.5" stroke="black" stroke-width="2" fill="none" />
<path d="M371.5,266.0,380.0,258.5,388.5,251.5,396.0,244.0,403.5,236.0,411.5,228.5" stroke="black" stroke-width="2" fill="none" />
<path d="M403.0,227.0,411.5,219.0" stroke="black" stroke-width="2" fill="none" />
<path d="M405.0,210.5,397.0,218.0,389.5,226.0,381.5,233.5,373.0,241.0,364.5,248.5,356.5,256.5,348.5,264.5,340.5,272.0,331.5,279.5,323.5,287.0,315.5,294.5" stroke="black" stroke-width="2" fill="none" />
<path d="M317.0,293.0,325.0,292.5,332.5,292.5,340.5,292.0,348.5,292.0" stroke="black" stroke-width="2" fill="none" />
<path d="M346.5,288.5,338.5,296.5,331.0,304.5" stroke="black" stroke-width="2" fill="none" />
<path d="M331.5,305.0,340.0,304.5,348.0,304.0" stroke="black" stroke-width="2" fill="none" />
<path d="M349.0,301.0,357.0,311.0" stroke="black" stroke-width="2" fill="none" />
<path d="M355.0,308.0,347.0,315.0,339.0,322.5" stroke="black" stroke-width="2" fill="none" />
<path d="M338.5,321.5,347.0,320.5" stroke="black" stroke-width="2" fill="none" />
<path d="M348.0,314.0,347.5,322.0,347.5,330.0,346.5,338.0,350.5,340.0,347.0,350.5,347.0,359.5,349.0,361.0" stroke="black" stroke-width="2" fill="none" />
<path d="M347.5,337.0,338.5,337.5" stroke="black" stroke-width="2" fill="none" />
<path d="M324.0,337.0,316.5,344.5" stroke="black" stroke-width="2" fill="none" />
<path d="M317.0,339.5,308.5,346.5" stroke="black" stroke-width="2" fill="none" />
<path d="M332.5,323.5,340.0,323.0,347.5,322.5,355.0,321.5,362.5,321.0,370.5,320.5,378.5,320.5" stroke="black" stroke-width="2" fill="none" />
<path d="M345.0,305.5,337.5,313.0" stroke="black" stroke-width="2" fill="none" />
<path d="M340.0,312.5,348.0,312.0" stroke="black" stroke-width="2" fill="none" />
<path d="M346.0,299.0,338.0,306.0,330.0,313.5" stroke="black" stroke-width="2" fill="none" />
<path d="M331.5,317.0,339.5,316.0,347.5,315.0,355.0,314.0,362.5,313.0,370.5,312.5,379.0,312.5" stroke="black" stroke-width="2" fill="none" />
<path d="M363.0,285.5,371.0,285.0,379.0,285.0,387.0,284.5,395.5,283.5,403.0,283.0,411.0,282.0" stroke="black" stroke-width="2" fill="none" />
<path d="M387.5,255.5,379.5,256.0" stroke="black" stroke-width="2" fill="none" />
<path d="M379.0,252.5,387.0,245.0,395.0,237.5" stroke="black" stroke-width="2" fill="none" />
<path d="M395.0,227.5,387.0,235.5,378.5,243.0,371.0,250.5" stroke="black" stroke-width="2" fill="none" />
<path d="M372.0,254.0,380.0,253.0,388.0,252.5,396.5,252.5,405.0,252.5,413.0,252.0" stroke="black" stroke-width="2" fill="none" />
<path d="M389.0,247.5,380.5,248.0" stroke="black" stroke-width="2" fill="none" />
<path d="M374.0,247.5,371.5,255.5,370.0,263.5,367.5,272.0,365.5,280.5,363.5,288.5,361.5,296.5,360.5,304.0,358.5,312.0" stroke="black" stroke-width="2" fill="none" />
<path d="M331.0,308.0,339.0,307.5,347.0,307.0,355.5,307.0,363.5,306.5,371.5,306.5,380.0,306.0,388.5,305.0" stroke="black" stroke-width="2" fill="none" />
<path d="M380.5,279.5,373.0,280.0" stroke="black" stroke-width="2" fill="none" />
<path d="M371.0,273.0,379.0,272.0,387.0,272.0" stroke="black" stroke-width="2" fill="none" />
<path d="M370.0,269.5,379.0,269.0,387.5,268.5,395.5,268.5,403.0,269.0,410.5,269.0" stroke="black" stroke-width="2" fill="none" />
<path d="M413.0,259.5,404.5,259.0,396.5,259.0,388.0,260.0,379.5,261.0,371.0,262.0" stroke="black" stroke-width="2" fill="none" />
<path d="M364.0,247.5,356.5,248.0" stroke="black" stroke-width="2" fill="none" />
<path d="M363.5,241.0,371.5,241.0,379.5,240.0,387.5,239.0" stroke="black" stroke-width="2" fill="none" />
<path d="M385.5,228.5,378.0,229.5,370.5,230.0,363.0,231.0,355.0,232.0,347.5,233.0,339.0,233.0,331.0,233.5,323.0,234.0,314.5,234.5,306.0,235.5" stroke="black" stroke-width="2" fill="none" />
<path d="M283.0,245.5,291.0,238.0,299.0,230.5,307.0,223.0,315.0,215.0,323.0,207.0,331.0,200.0,339.5,192.5,348.0,185.0,356.0,177.0,364.0,169.5,372.0,161.5,380.0,154.0,388.0,146.0,396.5,138.0,404.5,130.5" stroke="black" stroke-width="2" fill="none" />
<path d="M412.5,130.5,405.0,138.0,396.5,146.5,388.0,154.0,379.5,161.5,371.5,169.0,363.5,177.0,355.5,185.5,347.5,193.5,339.5,201.5,331.5,209.0,323.0,216.5,314.5,223.5,306.5,230.5,299.0,237.5,291.5,245.0,284.0,252.0" stroke="black" stroke-width="2" fill="none" />
<path d="M283.5,249.5,291.5,249.0" stroke="black" stroke-width="2" fill="none" />
<path d="M281.5,254.5,289.5,254.0,298.0,254.0,306.5,253.5,315.5,253.0,324.0,252.5,332.0,251.5,340.0,250.0,348.0,249.0,355.5,248.0,363.5,247.0" stroke="black" stroke-width="2" fill="none" />
<path d="M356.0,257.5,348.5,258.0" stroke="black" stroke-width="2" fill="none" />
<path d="M345.0,265.5,337.0,266.0" stroke="black" stroke-width="2" fill="none" />
<path d="M338.5,264.0,347.0,256.5,355.5,249.0,364.0,241.0,372.0,233.0,380.0,225.0,388.0,217.0,397.0,209.0,405.5,201.5" stroke="black" stroke-width="2" fill="none" />
<path d="M410.0,204.0,410.0,212.5,409.0,220.5,409.0,229.0,408.5,236.5,407.5,245.0,408.0,253.0,408.0,261.0,407.5,269.0,408.0,277.0,408.0,285.0,407.0,293.5,407.0,301.0,407.0,309.0,406.5,317.0,406.0,324.5,405.0,332.5,404.5,340.0,405.0,348.0,404.0,356.5,403.0,364.5,404.0,372.5,405.0,380.0" stroke="black" stroke-width="2" fill="none" />
<path d="M395.0,362.0,393.5,370.0,388.5,377.5,383.5,385.5,377.5,394.0,373.0,402.0,368.0,410.0,362.0,417.5,358.0,425.5,356.5,434.0,354.5,441.5,363.0,428.5,370.5,416.5,378.5,404.5,386.5,393.0" stroke="black" stroke-width="2" fill="none" />
<path d="M360.5,411.0,361.5,403.0,363.5,394.5,366.5,387.0,372.0,378.5,370.0,370.5,370.5,362.5,372.5,355.0,375.0,346.5,376.5,339.0,379.0,331.0,381.0,323.5,383.0,316.0,384.5,308.0,386.0,300.0,388.5,292.0,389.5,284.0,391.5,275.5,394.5,267.5,395.5,259.5,398.0,251.5,399.0,243.5,401.0,235.5,403.0,227.0,404.0,219.0,406.0,211.0,407.0,203.0,410.5,195.0,415.5,186.5,419.5,178.5,427.5,170.5,436.0,162.5,444.0,155.0,449.5,147.0,449.5,139.0,444.5,131.0,443.5,130.0,435.5,129.5,427.5,128.5,419.5,129.0,411.5,129.0,403.5,127.5,395.5,126.0,387.0,126.0,379.0,126.0,370.5,126.0,362.5,125.0,354.0,124.5,346.0,124.0,338.0,123.5,329.5,123.0,321.5,122.0,314.0,122.0,306.0,121.0,298.0,121.0,290.0,120.0,282.0,119.0,274.0,119.0,266.0,118.0,258.0,117.5,250.0,116.0,242.0,116.0,234.0,114.0,226.0,114.5,218.0,113.5,210.0,113.0,202.5,113.0,194.5,111.5,186.0,110.5,178.0,112.0,170.0,117.5,162.5,121.5,154.5,125.5,146.5,129.5,138.5,134.0,130.5,137.5,122.0,142.5,114.0,145.5,106.0,149.5,98.0,154.0,89.5,159.0,81.5,163.5,73.5,167.0,65.5,172.5,57.5,180.0" stroke="black" stroke-width="2" fill="none" />
<path d="M61.0,180.5,69.0,180.0,77.0,180.0,84.5,179.5,92.5,179.5,100.5,179.0,107.5,178.0,114.0,178.0,121.5,178.0,129.0,178.0,137.0,177.5,145.0,177.0,153.0,175.5,161.0,174.5,169.5,172.5,178.0,172.0,185.5,171.0,194.0,170.5,202.0,170.0,210.5,169.5,218.5,169.5,226.5,168.5,234.5,168.0,242.5,167.0,250.0,166.5,257.5,166.0,266.0,165.5,274.5,165.5,282.5,165.5,290.0,165.5,297.5,165.0,305.5,164.5,313.5,164.0,321.5,163.5,329.5,163.0,337.5,163.0,345.5,163.0,353.5,163.0,361.5,162.5,370.0,162.0,378.0,161.5,386.0,161.0,393.5,160.0,401.5,160.0,409.5,159.5,417.5,159.5" stroke="black" stroke-width="2" fill="none" />
<path d="M427.0,163.5,435.0,163.0" stroke="black" stroke-width="2" fill="none" />
<path d="M436.0,153.5,444.0,153.0" stroke="black" stroke-width="2" fill="none" />
<path d="M451.0,148.0,443.0,156.0,435.0,164.0,427.0,171.5,419.0,179.0,411.0,186.5,402.5,193.5,394.0,200.5,386.0,207.5,378.5,214.5,371.0,222.5,363.0,229.5,355.5,237.0,348.0,244.5,340.5,252.0" stroke="black" stroke-width="2" fill="none" />
<path d="M332.0,251.5,340.0,244.0,347.5,237.0,355.5,229.5,363.0,221.5,370.5,213.5,378.5,207.0,386.5,199.5,395.0,192.5,403.5,185.0,411.5,177.5,419.5,170.5,428.0,163.5,436.0,156.5,443.5,149.0,452.0,141.5" stroke="black" stroke-width="2" fill="none" />
<path d="M442.5,139.0,434.5,146.5,427.0,154.0,419.5,162.0,411.5,170.0,403.5,177.5,395.5,185.5,387.5,193.0,380.0,200.0,371.5,206.5,363.5,214.0,355.5,221.0,347.0,229.0,339.0,236.5,331.5,244.0,324.0,251.5,316.5,259.0,309.0,267.0" stroke="black" stroke-width="2" fill="none" />
<path d="M306.5,276.0,314.5,275.0,323.0,274.5" stroke="black" stroke-width="2" fill="none" />
<path d="M325.0,272.5,317.0,281.0" stroke="black" stroke-width="2" fill="none" />
<path d="M310.0,283.5,318.0,283.0,325.5,282.5,333.5,282.0,341.5,281.5,349.0,281.5" stroke="black" stroke-width="2" fill="none" />
<path d="M347.5,282.0,339.5,289.5,331.5,298.0,323.0,305.5" stroke="black" stroke-width="2" fill="none" />
<path d="M322.5,299.0,331.0,299.0,338.5,299.0,346.5,298.5,354.5,298.0" stroke="black" stroke-width="2" fill="none" />
<path d="M349.0,281.5,341.0,282.0" stroke="black" stroke-width="2" fill="none" />
<path d="M340.5,275.0,348.0,274.0" stroke="black" stroke-width="2" fill="none" />
<path d="M348.0,272.5,339.5,280.5,331.5,288.5,323.0,296.5" stroke="black" stroke-width="2" fill="none" />
<path d="M322.0,295.5,330.0,295.0,338.5,295.5,346.5,295.5" stroke="black" stroke-width="2" fill="none" />
<path d="M331.5,276.0,323.0,283.0,315.0,290.5" stroke="black" stroke-width="2" fill="none" />
<path d="M317.0,289.0,324.5,289.0,333.0,289.0,341.0,289.0,348.5,289.0" stroke="black" stroke-width="2" fill="none" />
<path d="M332.0,280.0,324.0,281.0,316.0,281.5,308.0,282.5" stroke="black" stroke-width="2" fill="none" />
<path d="M308.5,281.5,316.5,274.5,324.5,267.5" stroke="black" stroke-width="2" fill="none" />
<path d="M321.5,266.0,330.0,276.0" stroke="black" stroke-width="2" fill="none" />
<path d="M332.5,281.5,332.5,273.0,332.5,265.0,327.0,261.5,319.0,264.5" stroke="black" stroke-width="2" fill="none" />
<path d="M321.5,260.0,313.5,260.5,306.0,261.0,298.5,261.0,291.0,261.0,283.5,261.5,275.5,262.0" stroke="black" stroke-width="2" fill="none" />
<path d="M267.0,267.5,275.5,267.0,284.0,267.0,292.0,267.0,300.0,267.0,308.0,266.5,316.0,265.5,324.5,265.0,332.5,264.0,340.5,263.0,348.5,262.5,356.0,262.0" stroke="black" stroke-width="2" fill="none" />
<path d="M355.5,259.0,348.0,259.0,340.0,259.0,332.0,259.0" stroke="black" stroke-width="2" fill="none" />
<path d="M324.5,261.0,324.5,268.5,330.0,276.5" stroke="black" stroke-width="2" fill="none" />
<path d="M349.0,266.5,357.0,260.5,365.0,255.0,373.0,247.0,380.5,238.0" stroke="black" stroke-width="2" fill="none" />
<path d="M384.5,222.0,392.0,225.0,387.0,232.5,377.0,241.5,369.0,251.5,359.0,260.0,349.5,267.5,350.0,275.5,350.0,283.0,350.0,291.0,349.0,299.0,354.0,307.0" stroke="black" stroke-width="2" fill="none" />
<path d="M356.0,270.0,348.0,270.0,340.0,270.0,332.0,271.0,324.0,271.5,316.5,272.5,308.5,273.0,300.5,273.5,292.5,274.0,284.5,275.0,276.5,276.0,268.0,277.0,260.0,278.0" stroke="black" stroke-width="2" fill="none" />
<path d="M250.5,283.5,258.5,283.0,266.0,283.0,274.0,282.5,282.0,282.0,290.0,282.0" stroke="black" stroke-width="2" fill="none" />
<path d="M299.0,279.5,291.0,287.5,282.0,296.0,273.5,304.0,264.5,312.0,256.5,320.0,247.5,328.0,252.5,323.0,260.5,316.0,268.5,309.5,276.5,301.5,284.0,294.5,292.0,287.5,299.5,280.5,307.5,287.5,315.5,297.5,323.5,306.5,332.0,316.0" stroke="black" stroke-width="2" fill="none" />
<path d="M308.5,325.5,301.0,325.5,293.0,326.0,285.0,326.5,277.0,327.0,268.5,328.0,260.0,328.0,252.0,329.0,244.0,329.5,236.0,330.0,228.0,330.0,219.5,331.0,211.5,331.0,203.5,332.0,195.5,332.5,187.5,333.5,179.5,334.0" stroke="black" stroke-width="2" fill="none" />
<path d="M178.0,330.5,186.5,322.5,195.0,315.5,203.5,307.5,211.5,300.0" stroke="black" stroke-width="2" fill="none" />
<path d="M212.5,305.0,204.0,305.0" stroke="black" stroke-width="2" fill="none" />
<path d="M197.5,307.0,189.5,315.0,181.5,322.5" stroke="black" stroke-width="2" fill="none" />
<path d="M180.0,322.0,188.5,321.5,196.5,321.5,204.0,321.0,211.5,320.5" stroke="black" stroke-width="2" fill="none" />
<path d="M212.5,317.0,204.0,324.5,196.0,332.0,188.5,339.5,180.5,346.5,172.0,353.5,164.5,361.5,156.5,369.5,148.5,377.0,140.0,384.0,131.5,391.0,124.0,398.5,115.5,406.0" stroke="black" stroke-width="2" fill="none" />
<path d="M113.0,410.0,121.0,409.5" stroke="black" stroke-width="2" fill="none" />
<path d="M114.5,401.0,122.5,400.5,130.5,400.0" stroke="black" stroke-width="2" fill="none" />
<path d="M132.0,387.5,123.5,395.0,115.5,403.0,107.0,411.0" stroke="black" stroke-width="2" fill="none" />
<path d="M108.5,413.5,116.5,413.0,124.0,413.5,132.0,413.0,140.0,412.5,148.5,412.0,156.0,412.0,163.0,411.5,170.5,410.5,178.0,410.0,186.0,409.5,194.0,409.0,203.0,408.5,211.5,407.5,219.5,406.5,228.5,405.5,236.0,405.0,244.0,404.0" stroke="black" stroke-width="2" fill="none" />
<path d="M267.0,363.5,275.5,355.5" stroke="black" stroke-width="2" fill="none" />
<path d="M276.0,361.5,284.5,361.0,292.5,360.5,300.5,360.0,308.0,359.5,315.5,359.0" stroke="black" stroke-width="2" fill="none" />
<path d="M266.5,353.0,259.0,361.5" stroke="black" stroke-width="2" fill="none" />
<path d="M259.0,354.5,267.0,347.0" stroke="black" stroke-width="2" fill="none" />
<path d="M259.5,348.0,252.0,355.5" stroke="black" stroke-width="2" fill="none" />
<path d="M250.5,347.0,243.0,354.5" stroke="black" stroke-width="2" fill="none" />
<path d="M237.0,354.5,245.0,346.5" stroke="black" stroke-width="2" fill="none" />
<path d="M254.0,340.5,262.0,333.0" stroke="black" stroke-width="2" fill="none" />
<path d="M251.0,332.5,243.0,339.5" stroke="black" stroke-width="2" fill="none" />
<path d="M235.5,339.5,243.0,331.5,251.0,324.0" stroke="black" stroke-width="2" fill="none" />
<path d="M252.5,320.5,244.5,321.0,236.5,322.0,228.0,323.0,219.5,323.5,211.5,324.0,203.5,325.0,195.0,326.0,187.0,326.5,179.0,327.5" stroke="black" stroke-width="2" fill="none" />
<path d="M187.0,330.0,195.0,329.5,203.0,329.5,211.5,329.0" stroke="black" stroke-width="2" fill="none" />
<path d="M213.0,313.0,204.5,313.0" stroke="black" stroke-width="2" fill="none" />
<path d="M209.5,309.0,201.5,316.5,194.0,324.0,186.5,331.5" stroke="black" stroke-width="2" fill="none" />
<path d="M188.5,338.5,196.5,338.0,204.5,337.5" stroke="black" stroke-width="2" fill="none" />
<path d="M197.0,347.0,189.5,347.5" stroke="black" stroke-width="2" fill="none" />
<path d="M187.0,352.5,179.0,353.0" stroke="black" stroke-width="2" fill="none" />
<path d="M180.0,360.5,172.5,361.0" stroke="black" stroke-width="2" fill="none" />
<path d="M170.5,369.0,162.5,370.0" stroke="black" stroke-width="2" fill="none" />
<path d="M164.0,377.5,156.0,377.5,148.5,377.5" stroke="black" stroke-width="2" fill="none" />
<path d="M149.5,385.5,141.5,386.0" stroke="black" stroke-width="2" fill="none" />
<path d="M132.5,379.0,124.5,386.5,116.0,393.5" stroke="black" stroke-width="2" fill="none" />
<path d="M114.5,392.5,122.5,392.5,131.0,392.0,139.5,392.0" stroke="black" stroke-width="2" fill="none" />
<path d="M141.0,373.0,148.5,372.5,156.0,372.5,163.5,372.5,170.5,372.0,178.0,371.0,186.5,370.5,194.5,370.0,202.5,369.0,210.5,368.5,219.0,368.0,227.0,367.5,235.0,367.5,243.0,367.5,252.0,367.0,260.5,366.5,269.0,366.0" stroke="black" stroke-width="2" fill="none" />
<path d="M267.0,337.0,259.5,337.5,252.0,338.0" stroke="black" stroke-width="2" fill="none" />
<path d="M248.5,329.5,256.5,330.5,264.5,331.5,272.5,333.0,281.0,334.0,289.5,335.5,297.5,336.5,305.0,338.0,313.0,339.0,321.0,340.0,329.0,341.0" stroke="black" stroke-width="2" fill="none" />
<path d="M293.0,341.5,285.0,342.0,277.0,342.0,268.5,342.5,260.5,343.0,252.5,344.0,244.0,344.0,236.0,344.5,228.0,345.5,220.5,346.5,212.0,347.0,204.0,348.0,196.5,348.0,188.5,348.0,180.0,348.5,172.0,348.5" stroke="black" stroke-width="2" fill="none" />
<path d="M179.0,342.5,186.5,342.5,195.0,342.0,203.5,341.0,212.5,340.0,220.5,339.5,228.5,339.0,236.5,338.5" stroke="black" stroke-width="2" fill="none" />
<path d="M233.0,339.5,228.5,343.5,236.5,340.0,245.0,341.0,253.0,342.5,261.5,343.5,270.0,345.0,278.0,346.5,286.0,347.5,294.5,348.5,302.5,349.5,310.5,350.5,318.0,351.5,326.0,352.0" stroke="black" stroke-width="2" fill="none" />
<path d="M260.5,358.5,252.5,359.5,244.5,360.0,237.0,361.0,228.5,361.5,221.0,362.0,212.5,362.0,204.5,362.5,196.0,362.5,187.5,363.0,179.0,363.5,170.5,363.5,162.5,363.5,154.5,363.5" stroke="black" stroke-width="2" fill="none" />
<path d="M162.5,358.0,171.0,357.5,179.5,356.5,187.5,356.0,196.0,355.5,204.5,354.5,213.0,353.5,221.5,352.5,229.5,352.0,237.0,352.0,245.0,351.5,252.5,351.0,260.5,351.5,268.0,351.5,276.0,351.5,284.5,351.5,292.0,351.0,300.0,351.0,308.5,350.5,317.0,349.5,325.0,348.5,333.0,348.0,341.0,348.0,348.5,347.0,356.5,346.0,364.5,345.5,372.5,344.5,380.5,343.5,388.0,342.0,395.5,341.5,403.0,341.0,411.0,340.5" stroke="black" stroke-width="2" fill="none" />
<path d="M393.0,361.0,388.0,369.0,383.5,377.5,378.5,385.5,373.0,394.0,368.0,402.0,364.0,408.0,372.0,395.0,380.0,384.0,388.0,372.0" stroke="black" stroke-width="2" fill="none" />
<path d="M322.0,455.0,314.5,454.0,306.5,453.5,298.5,451.5,290.5,450.5,283.0,449.5,275.5,447.5,267.5,446.5,259.5,445.0,251.5,443.0,243.5,441.5,235.0,440.5,227.5,439.0,219.5,438.0,211.0,436.5,203.0,434.0,195.0,433.0,187.0,432.0,179.0,429.5,171.0,428.5,163.5,427.5,155.0,425.5,147.0,424.5" stroke="black" stroke-width="2" fill="none" />
<path d="M145.0,423.5,153.0,420.0,160.5,420.0,168.5,420.0,176.5,421.5,184.5,423.5,192.5,425.0,200.5,426.0,208.5,428.0,217.0,429.5,224.5,430.0,233.0,432.0,241.0,432.5,249.0,433.5,256.5,435.5,265.0,436.5,273.0,437.5,281.0,439.5,289.0,441.0,297.0,442.5,305.5,443.5,313.0,445.0,321.0,446.0" stroke="black" stroke-width="2" fill="none" />
<path d="M303.0,477.5,314.0,485.0" stroke="black" stroke-width="2" fill="none" />
<path d="M210.0,370.0,218.0,362.5" stroke="black" stroke-width="2" fill="none" />
<path d="M216.0,355.5,212.5,364.0,198.5,371.0,190.5,379.5,182.0,387.5,173.0,396.0,166.0,404.5,168.5,401.5,176.5,393.5,184.5,386.5,192.5,379.5,200.5,372.5,208.5,370.5,216.0,357.0,224.0,358.0,232.0,358.5,240.0,359.5,247.5,360.0,255.5,360.5,263.5,361.0,271.5,362.0,279.5,363.5,287.5,364.5,296.0,366.0,304.0,367.5,312.5,368.5,320.5,369.5,328.5,370.5" stroke="black" stroke-width="2" fill="none" />
<path d="M284.5,292.0,275.5,292.5,267.0,293.0,259.0,293.5,251.0,293.5,243.5,294.0" stroke="black" stroke-width="2" fill="none" />
<path d="M236.0,300.5,244.0,300.0,251.5,299.5,259.5,299.0,267.0,298.5,274.5,298.5" stroke="black" stroke-width="2" fill="none" />
<path d="M278.0,290.5,286.0,283.0,294.0,275.0,301.0,267.0,309.0,259.5,317.0,251.5,325.0,243.5,332.5,236.0,340.0,228.5,347.5,221.0,356.0,213.5,364.0,206.5,372.0,199.0,379.5,191.5,387.0,184.0,394.5,176.5,402.5,169.5,410.5,161.5,418.0,154.0,426.0,146.5,434.0,139.5,442.0,132.0" stroke="black" stroke-width="2" fill="none" />
<path d="M436.0,131.0,428.5,138.5,419.5,145.5,411.0,152.5,403.0,160.5,395.5,168.0,387.5,175.5,379.0,183.0,370.5,190.5,362.5,198.5,354.5,206.0,346.5,214.0,339.0,221.5,331.5,229.0,323.5,236.5,315.0,244.0,307.5,251.5,299.5,259.5,291.5,267.0,284.0,274.5,276.5,282.0,268.5,289.0,260.0,296.5,252.0,304.5,244.0,312.0,236.0,320.0,228.0,327.5,219.5,335.0,211.5,343.0,204.0,350.0,195.5,357.5,188.0,365.0" stroke="black" stroke-width="2" fill="none" />
<path d="M163.5,380.0,155.5,388.0,146.5,395.5,151.0,391.5,159.0,383.0" stroke="black" stroke-width="2" fill="none" />
<path d="M163.0,404.0,155.0,412.0,147.0,419.5,139.0,427.5,131.5,435.5,124.0,443.0" stroke="black" stroke-width="2" fill="none" />
<path d="M133.5,440.0,141.5,438.0,149.5,438.5,157.5,440.5,165.5,441.5,173.5,442.0,181.5,444.0,189.5,445.0,197.5,447.0,205.5,448.0,213.5,449.0,221.5,451.0,229.5,452.0,237.5,453.0,245.5,454.5,254.0,455.5,261.5,458.0,269.5,459.5,277.0,460.5,285.0,462.0,293.0,464.5,301.0,465.0,309.0,467.0,317.0,468.0,322.0,476.5,323.0,484.5,327.5,485.5" stroke="black" stroke-width="2" fill="none" />
<path d="M226.0,356.0,234.0,348.5" stroke="black" stroke-width="2" fill="none" />
<path d="M229.0,352.5,236.5,352.0,244.0,352.0,252.0,351.5" stroke="black" stroke-width="2" fill="none" />
<path d="M228.5,310.5,236.5,309.5,244.5,309.0,253.0,308.0,261.0,307.0,269.0,306.0" stroke="black" stroke-width="2" fill="none" />
<path d="M260.5,312.5,253.0,313.0,245.0,313.0,237.0,313.5,229.0,314.0,221.0,314.5,213.0,315.5,204.5,316.0,196.0,316.5,188.5,317.5,180.5,318.0,173.0,319.0" stroke="black" stroke-width="2" fill="none" />
<path d="M179.0,316.0,187.0,308.5" stroke="black" stroke-width="2" fill="none" />
<path d="M185.5,301.0,177.5,308.5,170.0,315.5" stroke="black" stroke-width="2" fill="none" />
<path d="M173.0,311.5,181.0,311.0,188.5,310.5,196.0,309.5,203.5,308.5,212.0,308.0" stroke="black" stroke-width="2" fill="none" />
<path d="M212.5,296.5,204.0,297.0" stroke="black" stroke-width="2" fill="none" />
<path d="M203.0,297.0,211.0,289.0" stroke="black" stroke-width="2" fill="none" />
<path d="M211.0,282.5,202.5,290.5" stroke="black" stroke-width="2" fill="none" />
<path d="M204.0,289.0,212.0,289.0" stroke="black" stroke-width="2" fill="none" />
<path d="M202.5,284.0,210.0,276.0" stroke="black" stroke-width="2" fill="none" />
<path d="M203.0,275.0,211.0,267.5" stroke="black" stroke-width="2" fill="none" />
<path d="M211.0,259.5,202.5,267.0" stroke="black" stroke-width="2" fill="none" />
<path d="M204.0,263.0,212.0,263.0" stroke="black" stroke-width="2" fill="none" />
<path d="M204.0,260.0,211.5,252.5" stroke="black" stroke-width="2" fill="none" />
<path d="M210.5,246.0,202.5,253.5" stroke="black" stroke-width="2" fill="none" />
<path d="M205.5,256.0,213.5,255.0" stroke="black" stroke-width="2" fill="none" />
<path d="M212.5,248.0,204.5,249.0" stroke="black" stroke-width="2" fill="none" />
<path d="M203.5,244.0,211.5,236.5" stroke="black" stroke-width="2" fill="none" />
<path d="M211.0,229.0,203.0,236.0" stroke="black" stroke-width="2" fill="none" />
<path d="M204.5,233.0,212.0,233.0" stroke="black" stroke-width="2" fill="none" />
<path d="M203.5,227.0,211.5,219.5" stroke="black" stroke-width="2" fill="none" />
<path d="M210.0,217.0,202.0,217.5" stroke="black" stroke-width="2" fill="none" />
<path d="M203.5,213.5,212.0,206.0,220.0,198.5,228.0,191.0,236.0,184.0,244.0,177.0,252.0,170.0,260.0,163.0,268.0,155.0,276.5,147.5,284.5,140.0,292.0,132.5,300.5,124.5" stroke="black" stroke-width="2" fill="none" />
<path d="M309.5,121.0,301.5,129.0,293.0,136.5,285.0,144.0,276.5,152.0,268.0,160.5,259.5,167.5,251.5,175.5,243.5,183.5,235.0,191.0,227.0,198.0,218.5,205.5" stroke="black" stroke-width="2" fill="none" />
<path d="M227.5,213.5,236.0,205.5,244.0,197.5,252.0,190.5,260.0,183.5,268.0,176.5,275.5,169.0,283.0,161.5,291.5,154.0,299.5,146.5,308.0,138.5,316.0,130.5,324.0,123.5" stroke="black" stroke-width="2" fill="none" />
<path d="M323.5,126.0,317.5,128.0,317.0,129.0,322.0,131.5,330.0,131.5,338.0,132.5,345.5,133.0" stroke="black" stroke-width="2" fill="none" />
<path d="M347.0,130.5,339.5,138.0,331.0,145.5,323.0,152.5,314.5,159.5,305.5,166.5,298.0,174.0,290.5,182.0,282.0,189.5,273.5,197.0,265.5,204.5,258.0,212.0" stroke="black" stroke-width="2" fill="none" />
<path d="M253.0,213.5,261.0,206.0,268.5,198.5,276.5,191.0,284.5,183.0,292.5,175.0,300.5,167.5,308.5,159.5,316.0,152.5,323.5,145.0,331.5,137.5,339.0,130.0" stroke="black" stroke-width="2" fill="none" />
<path d="M339.5,121.5,332.0,129.0,324.0,136.5,316.5,144.5,309.0,152.5,301.5,160.5,293.0,168.0,285.0,176.0,277.0,184.0,268.5,192.0,260.5,200.0,252.5,207.0,244.5,214.0" stroke="black" stroke-width="2" fill="none" />
<path d="M248.5,221.0,256.5,229.0,264.0,236.5,271.0,244.0,278.0,252.0,279.0,259.5,271.0,267.5,263.5,275.5,255.5,283.5,247.0,291.0,239.0,299.0,231.5,307.5,223.5,315.5,215.5,323.5" stroke="black" stroke-width="2" fill="none" />
<path d="M212.0,293.0,204.0,293.5,196.5,294.0" stroke="black" stroke-width="2" fill="none" />
<path d="M197.0,284.5,204.5,284.0,212.5,284.5" stroke="black" stroke-width="2" fill="none" />
<path d="M210.0,282.0,202.0,282.5" stroke="black" stroke-width="2" fill="none" />
<path d="M197.5,276.5,205.0,276.5,213.0,276.0" stroke="black" stroke-width="2" fill="none" />
<path d="M211.0,273.0,203.0,274.0" stroke="black" stroke-width="2" fill="none" />
<path d="M196.0,268.5,204.0,268.0,212.0,267.5" stroke="black" stroke-width="2" fill="none" />
<path d="M212.0,259.5,204.0,259.5,196.0,260.0" stroke="black" stroke-width="2" fill="none" />
<path d="M196.5,253.0,205.5,252.5,213.5,252.0" stroke="black" stroke-width="2" fill="none" />
<path d="M212.5,241.5,205.0,242.0" stroke="black" stroke-width="2" fill="none" />
<path d="M212.5,244.5,204.5,245.0,197.0,246.0" stroke="black" stroke-width="2" fill="none" />
<path d="M195.5,238.5,203.5,238.0,212.0,237.5" stroke="black" stroke-width="2" fill="none" />
<path d="M210.5,225.0,202.5,225.0" stroke="black" stroke-width="2" fill="none" />
<path d="M196.0,221.0,203.5,221.0,212.0,220.5" stroke="black" stroke-width="2" fill="none" />
<path d="M210.5,216.5,210.5,224.5,211.0,232.5,211.5,240.5,212.0,248.5,212.0,257.0,212.0,264.5,212.0,272.5,211.5,280.5,211.5,288.5,211.5,296.5,211.5,304.5,211.5,312.5,211.5,320.5,210.5,329.0,202.0,337.0,194.0,344.5,186.0,352.5,178.0,360.5,169.0,368.5,160.0,376.5,152.0,385.0,143.0,393.0,140.0,395.5,147.5,388.5,155.5,381.0,164.0,373.0,172.0,367.0,180.5,359.5,188.5,351.5,196.0,343.5,204.0,335.5,212.0,327.0,221.0,318.0,229.0,310.0,237.0,302.0,245.5,294.0,253.5,286.0,261.5,278.0,269.5,269.0,277.5,261.0" stroke="black" stroke-width="2" fill="none" />
<path d="M276.0,247.0,283.5,247.0,292.0,246.5,299.5,246.0,306.5,245.0,314.5,244.5,322.5,244.0,331.0,243.0,339.0,242.5,347.0,242.0,355.0,241.5,363.0,241.0,370.5,240.0,379.0,239.5,387.0,238.0,395.5,237.5,403.5,237.0,411.5,236.5" stroke="black" stroke-width="2" fill="none" />
<path d="M412.0,227.5,403.5,227.5,395.0,227.5,386.5,227.5,378.5,228.0,371.0,229.0,363.5,230.0,355.5,231.0,347.5,232.0,339.5,232.0,331.5,232.5,323.5,233.5,315.0,234.0,306.5,235.0,299.0,236.0,291.5,236.5,283.5,236.5,275.5,237.0,267.0,238.0" stroke="black" stroke-width="2" fill="none" />
<path d="M268.0,237.5,276.5,230.5,284.0,223.0,291.5,215.0,299.5,207.5,307.0,200.0,315.5,192.5,323.5,185.0,330.5,177.5,338.5,170.0,346.5,162.0,354.5,154.5,362.5,146.5,370.5,139.0,378.5,131.5" stroke="black" stroke-width="2" fill="none" />
<path d="M371.0,130.5,363.0,138.0,355.5,145.5,347.5,153.0,340.0,161.0,332.0,168.5,324.0,176.5,316.5,184.0,309.0,191.5,301.5,199.0,293.5,206.0,285.5,213.0,277.0,220.0,268.5,227.5" stroke="black" stroke-width="2" fill="none" />
<path d="M262.0,228.0,269.5,227.0,277.0,226.0,284.5,225.0,292.0,224.5,299.5,223.5,307.5,222.5,315.0,221.0,322.5,220.0,330.5,219.0,338.0,218.5,346.0,218.0,354.5,218.5,362.5,218.5,371.0,218.0,379.0,217.5,387.5,217.5" stroke="black" stroke-width="2" fill="none" />
<path d="M386.5,219.5,395.0,218.5" stroke="black" stroke-width="2" fill="none" />
<path d="M397.0,225.5,395.0,233.5,392.5,241.0,390.5,249.0,389.0,257.0,387.0,264.5,385.0,272.5,383.5,281.0,382.5,288.5,380.5,296.5,378.5,305.0,377.5,312.5,376.0,320.5,374.0,329.0,371.5,337.5,369.5,345.5,368.0,353.5,366.0,361.5,364.5,369.0,363.5,377.0,362.0,385.0,359.5,393.0,358.5,401.0,356.0,409.5,353.5,417.5,350.0,425.0,345.5,433.0,350.5,438.0,349.5,446.0,343.5,454.0,345.5,459.0,355.0,447.0,362.5,435.0,371.0,423.5,379.5,411.5,388.0,399.5,396.0,395.5,404.0,396.5,412.5,391.5" stroke="black" stroke-width="2" fill="none" />
<path d="M341.0,487.0,333.5,488.0,325.5,488.0,317.5,485.0,309.5,478.5,301.0,476.5,293.5,475.5,285.0,473.5,276.5,473.0,268.5,471.0,260.5,470.0,252.5,469.0,244.5,467.5,236.5,465.5,228.5,465.0,220.5,463.0,212.0,461.0,204.0,460.5,195.5,460.5,187.5,459.5,179.0,458.0,171.0,456.5,163.5,456.0,156.0,454.0,148.5,451.0,140.5,449.0,132.5,449.5,124.5,452.0,116.5,450.5,108.5,445.0,100.5,439.0" stroke="black" stroke-width="2" fill="none" />
<path d="M99.0,437.0,107.0,436.0,114.0,436.0,121.5,436.0,129.0,436.0,137.5,436.0,145.0,435.0,153.0,434.0,161.0,433.0,169.5,432.0,177.5,431.0,185.5,430.5,193.5,430.5,202.0,430.5,210.5,430.5,218.5,430.5,226.5,430.0,235.0,430.0,242.5,429.5,250.0,429.0" stroke="black" stroke-width="2" fill="none" />
<path d="M186.0,397.0,177.5,397.5" stroke="black" stroke-width="2" fill="none" />
<path d="M173.5,417.0,181.0,416.5,189.0,415.5,196.5,414.5,204.5,413.5,212.5,412.5" stroke="black" stroke-width="2" fill="none" />
<path d="M165.5,409.0,157.5,409.0" stroke="black" stroke-width="2" fill="none" />
<path d="M123.0,384.5,114.5,385.0" stroke="black" stroke-width="2" fill="none" />
<path d="M116.5,378.5,124.5,371.0" stroke="black" stroke-width="2" fill="none" />
<path d="M123.5,363.0,115.5,371.0" stroke="black" stroke-width="2" fill="none" />
<path d="M115.0,368.5,123.5,368.0" stroke="black" stroke-width="2" fill="none" />
<path d="M117.0,362.0,125.0,354.5" stroke="black" stroke-width="2" fill="none" />
<path d="M117.0,353.0,124.5,346.0" stroke="black" stroke-width="2" fill="none" />
<path d="M125.5,347.5,117.5,347.5" stroke="black" stroke-width="2" fill="none" />
<path d="M117.0,345.0,124.5,337.0" stroke="black" stroke-width="2" fill="none" />
<path d="M124.5,331.0,117.0,338.0" stroke="black" stroke-width="2" fill="none" />
<path d="M117.0,339.5,124.5,339.0" stroke="black" stroke-width="2" fill="none" />
<path d="M123.5,331.5,115.5,332.0" stroke="black" stroke-width="2" fill="none" />
<path d="M116.5,330.5,124.0,323.0" stroke="black" stroke-width="2" fill="none" />
<path d="M123.5,322.0,116.0,322.5" stroke="black" stroke-width="2" fill="none" />
<path d="M115.0,321.0,123.5,313.0" stroke="black" stroke-width="2" fill="none" />
<path d="M125.5,312.0,117.0,312.5" stroke="black" stroke-width="2" fill="none" />
<path d="M116.0,313.5,124.5,306.5" stroke="black" stroke-width="2" fill="none" />
<path d="M124.0,300.0,116.0,307.0" stroke="black" stroke-width="2" fill="none" />
<path d="M116.5,304.5,125.0,304.5" stroke="black" stroke-width="2" fill="none" />
<path d="M116.5,299.0,125.0,291.5" stroke="black" stroke-width="2" fill="none" />
<path d="M116.0,289.5,124.0,282.0" stroke="black" stroke-width="2" fill="none" />
<path d="M125.5,282.0,117.5,282.5" stroke="black" stroke-width="2" fill="none" />
<path d="M116.0,282.0,123.5,274.5" stroke="black" stroke-width="2" fill="none" />
<path d="M126.0,269.5,117.5,277.0" stroke="black" stroke-width="2" fill="none" />
<path d="M116.5,273.0,124.5,272.5" stroke="black" stroke-width="2" fill="none" />
<path d="M117.0,267.0,125.0,259.0" stroke="black" stroke-width="2" fill="none" />
<path d="M124.0,264.0,115.5,264.0" stroke="black" stroke-width="2" fill="none" />
<path d="M116.5,258.0,124.5,257.5" stroke="black" stroke-width="2" fill="none" />
<path d="M123.5,250.0,115.5,257.5" stroke="black" stroke-width="2" fill="none" />
<path d="M116.0,251.0,124.0,250.0" stroke="black" stroke-width="2" fill="none" />
<path d="M127.0,244.5,135.5,257.0,143.5,270.0,151.5,282.5,159.0,295.5,167.0,309.5,175.0,322.0,182.5,336.0" stroke="black" stroke-width="2" fill="none" />
<path d="M181.0,315.0,189.0,314.5" stroke="black" stroke-width="2" fill="none" />
<path d="M170.5,307.5,179.0,300.0,187.0,292.5" stroke="black" stroke-width="2" fill="none" />
<path d="M178.5,289.0,170.5,296.5,162.5,304.5" stroke="black" stroke-width="2" fill="none" />
<path d="M163.0,302.5,171.5,302.0,180.0,301.0,188.0,300.0,196.5,299.0,204.5,298.5,213.0,297.5" stroke="black" stroke-width="2" fill="none" />
<path d="M178.0,282.5,169.5,290.0,161.0,297.5" stroke="black" stroke-width="2" fill="none" />
<path d="M165.0,300.0,172.5,299.5,179.5,298.5" stroke="black" stroke-width="2" fill="none" />
<path d="M188.0,303.5,180.0,304.0,171.5,304.5" stroke="black" stroke-width="2" fill="none" />
<path d="M162.5,291.5,170.0,283.0,177.5,275.5" stroke="black" stroke-width="2" fill="none" />
<path d="M171.5,275.0,163.5,283.0,155.5,290.5" stroke="black" stroke-width="2" fill="none" />
<path d="M155.5,292.0,163.0,292.0,171.0,291.5,179.0,291.5,187.0,291.0" stroke="black" stroke-width="2" fill="none" />
<path d="M180.5,289.0,172.5,289.5,164.0,290.0" stroke="black" stroke-width="2" fill="none" />
<path d="M154.5,284.0,162.5,283.5,171.0,284.0,179.0,284.0,187.5,284.0" stroke="black" stroke-width="2" fill="none" />
<path d="M170.0,267.5,162.5,275.5,154.5,283.0" stroke="black" stroke-width="2" fill="none" />
<path d="M153.5,282.0,162.0,281.0,170.0,281.0" stroke="black" stroke-width="2" fill="none" />
<path d="M155.0,276.5,163.5,269.5,171.5,262.0" stroke="black" stroke-width="2" fill="none" />
<path d="M163.0,260.5,155.0,268.0,146.5,275.0" stroke="black" stroke-width="2" fill="none" />
<path d="M148.5,275.0,157.0,274.0,164.5,273.0,172.5,272.5" stroke="black" stroke-width="2" fill="none" />
<path d="M162.0,252.5,154.5,259.5,146.5,266.5" stroke="black" stroke-width="2" fill="none" />
<path d="M148.5,266.5,156.5,265.5,164.5,265.5" stroke="black" stroke-width="2" fill="none" />
<path d="M179.0,269.5,171.0,269.5,162.5,269.5,154.0,270.0,146.0,270.0" stroke="black" stroke-width="2" fill="none" />
<path d="M138.5,267.0,146.5,259.0,154.5,251.5,162.5,244.0" stroke="black" stroke-width="2" fill="none" />
<path d="M153.5,245.5,145.5,253.0,138.0,260.0" stroke="black" stroke-width="2" fill="none" />
<path d="M137.0,261.5,145.5,261.0,153.5,261.0,162.0,261.0,171.0,260.5" stroke="black" stroke-width="2" fill="none" />
<path d="M181.5,277.0,174.0,277.0,165.5,277.5,157.5,278.0,149.5,278.5" stroke="black" stroke-width="2" fill="none" />
<path d="M139.5,257.0,147.5,256.5,155.5,256.0,163.0,255.5" stroke="black" stroke-width="2" fill="none" />
<path d="M154.5,236.5,146.0,244.0,138.5,250.5" stroke="black" stroke-width="2" fill="none" />
<path d="M140.0,249.0,148.5,249.0,156.5,248.0" stroke="black" stroke-width="2" fill="none" />
<path d="M156.0,228.0,148.0,235.5,139.5,243.0,131.0,250.0" stroke="black" stroke-width="2" fill="none" />
<path d="M125.0,243.0,117.0,243.0" stroke="black" stroke-width="2" fill="none" />
<path d="M115.0,249.0,122.5,241.5,130.0,234.5,137.0,227.5,144.5,220.0" stroke="black" stroke-width="2" fill="none" />
<path d="M145.5,226.0,137.5,233.0,129.5,240.5" stroke="black" stroke-width="2" fill="none" />
<path d="M132.0,240.0,140.0,240.0,148.0,239.5,156.0,239.5" stroke="black" stroke-width="2" fill="none" />
<path d="M145.5,212.0,137.5,219.5,129.5,227.0,121.5,234.0,114.0,241.0" stroke="black" stroke-width="2" fill="none" />
<path d="M107.0,238.0,114.5,237.5,122.5,236.5,130.0,236.5,138.0,236.5,146.0,236.5,154.0,236.0,163.0,235.5" stroke="black" stroke-width="2" fill="none" />
<path d="M163.5,206.0,171.5,199.0,179.5,191.5,187.5,184.0,196.0,176.5,204.0,169.0,211.5,161.5,219.5,154.0,227.0,147.0,235.0,139.5,243.5,132.0,251.5,125.0" stroke="black" stroke-width="2" fill="none" />
<path d="M252.0,125.5,260.0,120.5,263.0,126.0,271.0,125.5,279.0,126.5,287.0,127.5" stroke="black" stroke-width="2" fill="none" />
<path d="M289.5,123.5,281.5,131.0,274.5,138.0,266.5,145.5,259.0,152.5,251.5,160.0,243.0,167.0,235.0,174.0,227.0,181.0,220.0,188.0,212.0,195.5,203.5,203.5,195.5,211.5" stroke="black" stroke-width="2" fill="none" />
<path d="M196.0,214.0,204.5,213.5,213.0,213.0,221.0,212.0,229.0,211.5,236.5,211.5,245.0,210.5,252.5,210.0,260.5,210.0,268.0,209.5,275.5,209.0,283.5,208.5,292.0,207.5,300.5,207.0,308.5,206.5,316.5,206.0,325.0,205.5,333.0,205.0,341.0,204.0,349.0,203.5,357.0,203.0,364.5,203.0,373.0,203.0,381.0,203.0,388.5,203.0,396.0,202.5,404.0,201.5,412.0,200.0" stroke="black" stroke-width="2" fill="none" />
<path d="M411.5,212.0,403.5,212.5,395.0,213.0,387.0,213.0,379.0,214.0,371.0,214.5,363.0,215.0,355.0,215.5,347.5,216.0,339.5,216.5,332.0,217.0,323.5,217.0,315.0,217.0,307.0,217.0,299.5,217.5,291.5,217.5,283.5,218.0,275.0,219.5,267.0,220.5,259.0,221.0,251.0,221.5" stroke="black" stroke-width="2" fill="none" />
<path d="M253.5,218.5,261.5,218.0,269.0,217.0,276.5,216.5,284.5,216.5,292.0,215.5,300.0,214.5,308.5,214.0,316.5,213.0,325.0,212.5,333.0,212.0,341.0,211.5,348.5,211.5,356.5,211.0,364.5,211.0,372.5,211.0,380.0,210.5" stroke="black" stroke-width="2" fill="none" />
<path d="M372.0,198.5,363.0,199.0,355.0,199.0,347.5,199.0,339.5,199.5,331.5,200.0,323.0,201.0,314.5,202.0,306.5,202.5,298.0,203.0,290.0,203.0,282.5,203.0,275.0,203.5,267.0,204.0,259.0,205.0,251.5,205.5,243.5,205.5,235.5,206.0,227.0,206.5,219.5,206.5,212.0,207.5,204.5,208.0,197.0,209.0,189.0,210.0,181.5,210.5" stroke="black" stroke-width="2" fill="none" />
<path d="M193.5,206.0,201.5,199.0,209.5,190.5,218.0,183.0,226.5,175.5,234.5,168.0,242.5,160.5,251.0,153.0,259.0,145.5,267.0,138.0,274.5,130.5,282.5,123.5" stroke="black" stroke-width="2" fill="none" />
<path d="M273.5,123.0,265.5,130.5,257.5,138.0,249.5,145.0,241.0,153.0,233.5,160.5,226.0,168.0,218.5,175.5,211.5,183.5,204.0,191.0,196.0,198.5,188.0,205.5" stroke="black" stroke-width="2" fill="none" />
<path d="M182.0,206.0,190.0,199.0,197.5,191.0,204.5,183.5,212.0,176.0,219.0,168.5,226.5,160.5,234.5,153.5,242.5,146.5,251.0,139.0,259.5,131.0,268.0,124.0" stroke="black" stroke-width="2" fill="none" />
<path d="M260.0,124.5,252.0,131.5,244.0,138.5,236.0,146.0,228.5,154.0,220.5,161.5,213.0,168.5,205.5,175.5,198.0,182.0,190.0,189.0,182.0,196.5,174.0,204.0" stroke="black" stroke-width="2" fill="none" />
<path d="M153.5,206.0,161.5,198.5,170.0,191.0,179.0,183.5,187.5,175.5,195.5,167.5,204.0,160.0,212.5,153.0,221.0,146.0,229.5,139.0,237.5,131.5,245.5,123.5" stroke="black" stroke-width="2" fill="none" />
<path d="M237.0,125.5,228.5,133.5,220.5,141.0,212.0,148.0,203.5,155.5,195.5,162.5,187.0,170.0,178.5,177.0,170.5,184.0,162.5,191.0,154.5,198.5" stroke="black" stroke-width="2" fill="none" />
<path d="M149.0,211.5,140.5,212.0,131.5,212.0,123.0,212.5,115.0,212.5,107.0,213.5,98.5,214.0,90.0,214.5,82.0,215.0" stroke="black" stroke-width="2" fill="none" />
<path d="M86.0,212.0,94.0,225.0,102.0,235.0" stroke="black" stroke-width="2" fill="none" />
<path d="M99.5,230.0,108.0,229.5,115.5,228.5,123.5,228.0,132.0,228.0,140.0,227.5,148.5,227.0,156.5,226.0" stroke="black" stroke-width="2" fill="none" />
<path d="M163.5,243.5,155.0,243.5,147.0,243.5,139.0,243.5,130.5,243.5,122.5,244.0,115.0,245.0,107.0,245.5" stroke="black" stroke-width="2" fill="none" />
<path d="M106.0,252.5,114.5,252.5,122.5,252.5,131.0,252.0,139.5,252.0,148.0,251.5,156.5,252.0,165.0,252.0,173.5,252.0" stroke="black" stroke-width="2" fill="none" />
<path d="M195.5,230.0,204.0,230.0,212.5,229.5" stroke="black" stroke-width="2" fill="none" />
<path d="M210.5,215.5,218.5,215.5,226.5,217.0,235.0,218.0,243.0,219.5,251.5,222.0,259.5,230.5,267.5,240.0,276.0,250.0" stroke="black" stroke-width="2" fill="none" />
<path d="M274.5,244.5,282.5,236.5,290.0,229.0,298.0,221.5,306.0,214.5,314.0,207.0,322.0,199.0,330.5,191.0,338.5,183.5,346.5,176.0,354.5,168.5,362.5,161.0,370.0,152.5,378.0,145.0,386.0,137.0,393.5,129.5" stroke="black" stroke-width="2" fill="none" />
<path d="M388.5,133.0,380.5,140.5,372.5,147.5,364.5,154.5,356.5,162.0,348.5,169.5,341.0,176.5,333.0,184.0,325.5,191.5,317.5,198.5,309.5,206.5,301.5,214.0,293.5,221.5,285.5,229.0,277.0,237.5" stroke="black" stroke-width="2" fill="none" />
<path d="M276.0,243.0,284.0,242.5,292.0,242.5,300.0,241.5" stroke="black" stroke-width="2" fill="none" />
<path d="M300.5,232.0,292.5,233.0,285.0,234.0,277.0,234.0,269.0,234.5" stroke="black" stroke-width="2" fill="none" />
<path d="M260.5,229.5,268.0,229.0,276.0,228.5,283.5,228.0,291.5,227.5,300.0,227.0,307.5,226.0,315.0,224.5,322.5,223.0,330.5,222.5,338.5,222.0,347.0,222.0,354.5,222.0,362.5,221.5,370.5,221.0,378.5,221.0,387.0,220.5,395.0,220.5,403.5,221.0,411.5,220.5" stroke="black" stroke-width="2" fill="none" />
<path d="M400.0,203.0,398.0,211.0,396.5,219.0,393.0,227.0,382.5,235.5,387.5,234.0" stroke="black" stroke-width="2" fill="none" />
<path d="M383.5,197.5,375.5,194.5,367.0,194.0,359.0,194.0,350.5,193.0,349.5,187.0,341.5,187.5,333.5,187.5,325.5,187.5,321.0,181.5,313.0,182.5,304.5,182.5,295.0,175.5,287.0,175.5,278.5,174.0,270.5,174.0" stroke="black" stroke-width="2" fill="none" />
<path d="M259.5,162.0,267.5,164.0,275.5,164.0,280.5,169.0,274.5,168.5,277.0,167.5,285.5,166.0,286.5,172.5,294.0,172.5,302.0,173.0,310.0,173.5,318.0,168.0,326.0,167.0,334.0,167.0,342.0,165.5,350.0,165.5,361.5,156.5,369.5,153.0,377.5,152.0,385.5,151.0,397.5,147.0,406.0,145.0,414.0,145.0,422.0,145.5" stroke="black" stroke-width="2" fill="none" />
<path d="M421.0,170.5,429.0,170.5" stroke="black" stroke-width="2" fill="none" />
<path d="M411.0,185.0,403.0,186.0,395.5,186.5,387.5,186.5,379.5,187.0,371.0,187.5,363.5,187.5,356.0,188.5,348.5,189.0,341.0,190.0,333.0,191.0,325.5,191.5,317.5,192.0,309.0,192.0,301.0,192.0,292.5,192.0,284.5,192.0,276.0,193.0,267.5,194.0,259.0,195.0,251.5,195.5,243.5,196.5,235.5,197.0,227.5,197.5,219.5,198.0,211.5,198.5,204.0,199.5,196.0,199.5,188.5,200.5,180.5,201.0,172.5,201.5,164.5,202.0,156.5,202.5,148.5,203.0,140.0,203.0,132.0,203.0,124.5,203.0,116.0,203.0,107.5,203.0,99.5,203.5,91.5,204.5,83.5,205.5" stroke="black" stroke-width="2" fill="none" />
<path d="M90.5,206.0,97.5,198.5,105.5,191.0,114.0,183.0,122.5,175.5,131.0,167.5,138.5,160.5,147.0,153.0,155.0,146.0,162.5,138.5,170.5,131.5,178.5,125.0,186.5,117.5" stroke="black" stroke-width="2" fill="none" />
<path d="M196.0,118.0,204.0,115.5,207.5,122.5,215.5,124.0" stroke="black" stroke-width="2" fill="none" />
<path d="M223.5,125.5,216.5,131.5,224.5,126.0" stroke="black" stroke-width="2" fill="none" />
<path d="M227.0,124.0,219.5,131.5,212.0,139.0,203.5,146.0,195.0,154.0,187.0,161.5,179.0,169.0,171.0,175.5,163.0,183.0,155.5,190.5,147.5,198.5,139.0,206.0,131.0,213.0,123.5,220.5,116.0,228.5,108.0,235.5" stroke="black" stroke-width="2" fill="none" />
<path d="M107.0,232.5,115.5,232.0,123.5,232.0,132.0,232.0,140.5,231.5,148.5,230.5" stroke="black" stroke-width="2" fill="none" />
<path d="M147.5,222.0,139.0,222.5,131.0,223.0,124.0,224.0,116.5,224.5,109.0,225.5,101.0,226.0" stroke="black" stroke-width="2" fill="none" />
<path d="M105.5,227.5,113.0,220.0,121.5,212.0,129.5,205.0,137.5,197.5,145.5,190.0,154.0,182.5,162.0,175.5,170.0,168.5,177.5,160.5,185.0,153.0,193.0,145.5,201.5,138.0,209.5,130.0,217.0,122.5,225.0,115.0" stroke="black" stroke-width="2" fill="none" />
<path d="M217.5,116.0,209.5,123.5,202.5,131.0,195.0,138.5,187.0,146.0,179.0,153.5,171.0,161.0,163.5,169.0,155.0,176.0,147.0,182.5,139.0,189.5,131.0,197.5,123.5,205.5,115.5,213.5,107.0,221.0,99.0,228.5" stroke="black" stroke-width="2" fill="none" />
<path d="M101.5,220.5,109.5,213.5,117.5,206.0,126.0,198.5,133.5,191.0,141.5,183.0,149.5,176.0,157.0,168.5,165.0,161.0,172.5,153.5,180.0,146.5,187.0,139.0,194.0,131.5,202.0,123.5,210.0,116.0" stroke="black" stroke-width="2" fill="none" />
<path d="M203.5,114.5,195.5,122.0,187.5,129.5,180.0,137.5,172.0,145.5,164.0,153.5,155.5,161.5,147.0,169.5,139.0,177.0,130.5,184.0,122.0,191.5,114.0,199.0,106.0,207.0,98.0,214.0" stroke="black" stroke-width="2" fill="none" />
<path d="M92.0,211.5,99.5,204.0,107.0,197.0,115.5,190.0,123.0,182.5,131.0,175.0,139.0,167.0,147.5,159.5,156.0,151.5,164.0,144.0,172.0,137.0,180.0,129.5,188.5,122.0,196.5,114.5" stroke="black" stroke-width="2" fill="none" />
<path d="M183.0,137.5,191.0,139.5,199.0,142.5" stroke="black" stroke-width="2" fill="none" />
<path d="M201.5,153.0,209.5,155.0,218.0,155.5" stroke="black" stroke-width="2" fill="none" />
<path d="M215.5,167.5,223.5,170.5,232.0,170.5,239.5,172.0" stroke="black" stroke-width="2" fill="none" />
<path d="M227.5,178.0,235.5,179.0,244.0,179.5,252.0,180.5,258.0,183.5,265.5,183.5,274.0,183.0,282.5,184.0,288.5,188.0,297.0,188.0,305.5,189.0" stroke="black" stroke-width="2" fill="none" />
<path d="M305.0,179.5,313.0,179.5,320.5,178.5,328.5,179.0,329.0,182.0,332.0,185.0,340.0,185.0,348.0,185.0,356.0,184.5,368.0,173.5,374.0,178.5,382.0,178.5,390.0,178.5,398.0,181.0,410.5,183.0" stroke="black" stroke-width="2" fill="none" />
<path d="M412.0,186.5,405.0,194.5,396.5,202.5,390.5,202.5,393.5,200.5,398.0,199.5,406.0,193.0,416.0,184.0,424.5,176.5,432.5,168.5,440.5,160.0,448.5,149.5" stroke="black" stroke-width="2" fill="none" />
<path d="M404.5,110.0,397.0,110.0,389.0,110.5,381.0,111.0,373.0,112.0,365.0,112.5,356.5,113.0,348.5,113.5,340.5,114.0,332.0,114.5,323.5,115.5,315.5,116.0,308.0,116.5,300.5,117.0,292.5,117.0,285.0,117.5,276.5,118.5,269.0,118.5,261.0,119.0,253.0,120.0,244.5,120.5,236.0,121.0,228.5,121.5,220.0,122.0,211.5,122.5,203.0,123.0,194.5,124.0,186.5,124.5,178.5,124.5,170.5,124.5,163.0,125.0,155.5,125.5" stroke="black" stroke-width="2" fill="none" />
<path d="M156.0,132.0,147.5,139.0,139.5,146.5,131.5,154.0,123.5,161.5,116.0,169.0,108.0,176.0,101.0,183.5,93.5,191.0,86.0,198.0" stroke="black" stroke-width="2" fill="none" />
<path d="M91.0,198.5,99.0,191.0,107.0,183.5,115.0,175.5,123.0,168.0,131.0,161.0,139.0,153.5,147.5,147.0,155.5,140.0,163.5,132.5,171.5,125.0" stroke="black" stroke-width="2" fill="none" />
<path d="M170.0,125.5,177.5,127.0" stroke="black" stroke-width="2" fill="none" />
<path d="M173.0,135.5,181.0,135.5,189.0,134.5,197.0,138.0,205.5,140.0" stroke="black" stroke-width="2" fill="none" />
<path d="M221.5,136.0,229.5,138.0,237.5,138.5,238.5,142.5,236.0,145.5" stroke="black" stroke-width="2" fill="none" />
<path d="M231.5,122.5,223.5,122.0,216.0,121.5,208.0,120.5,200.0,123.0,189.0,127.0,181.5,125.5,173.5,124.5,165.5,126.5" stroke="black" stroke-width="2" fill="none" />
<path d="M166.0,133.0,174.0,134.0,181.5,131.0,189.5,129.5" stroke="black" stroke-width="2" fill="none" />
<path d="M169.5,116.0,177.5,115.5,185.5,115.0,193.5,114.5,201.5,114.0,209.5,114.0,217.5,114.0,225.5,114.0,233.5,113.5,242.0,113.0,250.0,112.5,258.0,112.0,265.5,111.0,273.5,111.0,281.5,110.5" stroke="black" stroke-width="2" fill="none" />
<path d="M317.0,123.0,309.0,130.5,300.5,137.5,292.5,144.5,285.0,152.0,276.5,159.0,268.5,167.0,260.0,175.0,251.5,182.5,242.5,190.5,235.0,197.5,227.0,205.0" stroke="black" stroke-width="2" fill="none" />
<path d="M230.5,193.5,238.5,193.0" stroke="black" stroke-width="2" fill="none" />
<path d="M226.0,176.0,234.5,172.5,243.5,176.5,252.0,177.5,260.0,178.0,262.5,184.0,270.5,185.0" stroke="black" stroke-width="2" fill="none" />
<path d="M284.5,188.5,276.5,189.5,268.5,190.0,260.5,191.0,252.0,191.0,244.0,191.5,236.0,192.0,228.0,192.5,220.0,193.5,212.0,194.0,204.0,195.0,196.0,195.5,188.0,196.5,180.0,197.0,172.0,198.0,164.0,198.5,156.0,199.0,148.0,199.5,140.5,200.0,132.0,200.5,123.5,200.5,115.5,200.5,107.0,200.5,98.5,200.5,90.5,201.0" stroke="black" stroke-width="2" fill="none" />
<path d="M83.0,192.5,91.0,185.0,99.0,178.0,107.5,170.5,115.5,163.5,124.0,156.0,132.0,148.5" stroke="black" stroke-width="2" fill="none" />
<path d="M123.5,142.5,131.5,141.5,139.0,141.0,147.5,140.0,156.0,139.0,164.5,138.0,172.5,138.0,181.0,138.0,189.0,138.0,197.5,138.0,205.5,137.5,213.0,137.0,221.0,136.0,228.5,135.0,236.0,134.5,243.5,133.5,251.0,133.5,259.5,133.0,267.5,132.5,275.5,132.5,283.0,132.0,291.0,131.0,299.0,130.5,306.5,130.0,314.0,130.0,322.0,130.0,330.5,129.5,338.5,129.0,347.0,128.0,355.5,127.0,363.5,126.5,371.5,126.0,379.0,126.0,387.0,126.0,396.0,125.5,404.0,125.0,412.0,124.5,420.0,124.0,428.0,123.5,435.5,122.5,444.0,122.0,451.5,121.5" stroke="black" stroke-width="2" fill="none" />
<path d="M363.5,131.5,355.0,138.5,346.5,146.0,338.5,153.0,330.5,160.5,323.0,168.0,315.0,175.0,307.0,182.0,299.0,189.5,291.0,197.0,283.0,204.5,275.0,212.0,267.0,219.5" stroke="black" stroke-width="2" fill="none" />
<path d="M260.5,221.5,268.0,214.0,276.0,206.5,284.0,199.0,292.0,191.5,299.5,184.0,308.0,177.0,315.5,169.0,323.0,161.5,330.0,153.5,337.5,146.0,345.0,139.0,353.0,132.0" stroke="black" stroke-width="2" fill="none" />
<path d="M329.5,124.0,321.5,131.0,313.5,138.5,305.5,146.0,297.5,153.0,290.0,160.5,282.0,167.5,274.0,175.5,266.5,183.5,259.0,191.5,251.0,199.0,243.0,206.5,235.5,214.0" stroke="black" stroke-width="2" fill="none" />
<path d="M210.5,186.5,203.0,187.0,195.5,187.5,188.5,188.0,181.0,188.0,173.0,188.0,165.0,188.0,157.0,189.0,149.0,189.5,141.0,190.0,133.5,190.0,125.5,190.5,118.0,191.0,110.5,191.0,102.0,191.5,93.5,191.5,85.5,191.0,77.5,191.0,69.5,191.5" stroke="black" stroke-width="2" fill="none" />
<path d="M65.5,193.5,73.5,186.0,81.5,178.0,89.5,170.0,97.5,162.0,105.0,154.5" stroke="black" stroke-width="2" fill="none" />
<path d="M108.0,149.0,116.0,148.0,123.5,147.5,131.0,147.0,139.5,146.5,147.5,145.5,155.5,145.5,164.0,145.0,172.5,145.0,180.5,144.5,188.5,143.5,197.0,143.5,204.5,143.0,212.0,143.0,220.0,143.0,228.0,142.5,236.0,142.5,244.0,142.5,252.5,142.5,261.0,142.0,268.5,141.0,277.0,140.0,284.5,139.0,292.5,138.5,300.5,138.0,308.5,138.0,317.0,137.0,325.5,136.5,333.5,136.5,341.5,137.0,349.5,136.5,357.0,136.0,365.0,134.5,372.5,133.5,380.0,132.5,387.5,131.5,395.5,131.0,404.0,130.0,412.0,129.5,420.0,129.0,428.0,128.5,436.0,128.0,443.5,127.5,451.5,127.0" stroke="black" stroke-width="2" fill="none" />
<path d="M453.0,113.0,445.0,114.0,436.5,115.0,428.0,116.0,420.0,117.0,412.0,117.5,403.5,118.5,395.0,119.0,386.5,119.5,378.5,120.5,370.5,121.0,362.0,121.5,354.5,121.5,347.0,122.0,339.5,122.5,332.0,122.5,324.0,122.5,316.0,122.5,308.0,123.0,300.0,123.0,291.5,124.0,283.0,124.5,275.0,125.5,267.5,126.0,260.0,127.0,251.5,127.5,244.0,128.0,236.5,128.5,228.5,128.5,220.0,129.0,212.0,129.5,203.5,130.0,195.0,130.0,187.0,129.5,179.0,129.5,171.5,130.0,163.5,131.5,155.0,132.5,147.5,133.5,139.0,134.0" stroke="black" stroke-width="2" fill="none" />
<path d="M139.5,138.0,147.5,139.5,156.0,140.5,157.0,147.0,146.5,147.5,154.5,145.5,158.0,146.5,166.0,144.5,174.5,145.0" stroke="black" stroke-width="2" fill="none" />
<path d="M176.0,157.5,168.0,156.0,160.5,153.0,152.5,151.0,141.5,156.0,133.5,154.0,126.0,152.0,117.5,151.0" stroke="black" stroke-width="2" fill="none" />
<path d="M114.5,155.0,106.5,162.0,99.0,169.0,91.0,176.5,83.0,184.0,75.0,192.0" stroke="black" stroke-width="2" fill="none" />
<path d="M68.5,196.5,76.5,196.0,85.0,196.0,93.5,195.5,101.5,195.5,109.5,195.0,117.0,194.5,125.0,194.0,132.5,193.5,140.5,193.0,148.5,192.5,156.5,192.0,164.0,192.5,172.0,192.0,180.0,191.5,188.5,191.0,196.0,191.0,203.0,190.5,210.5,189.5,218.0,189.0,226.0,188.5,234.0,188.0,243.0,187.5,251.5,186.5,259.5,185.5,268.5,184.5,276.0,184.0,284.0,183.0,292.5,183.0,300.5,182.5,308.5,182.0,316.0,181.5,324.5,181.0,333.0,180.5,341.5,180.0,349.0,179.5,357.5,178.5,366.0,177.5,374.0,177.0,381.5,176.5,389.5,176.0,397.5,175.0,405.5,175.0,413.0,174.5" stroke="black" stroke-width="2" fill="none" />
<path d="M444.0,136.5,436.0,136.5,428.0,136.5,420.0,137.0,412.0,137.0,403.5,138.0,395.0,138.5,387.0,139.5,379.5,140.0,372.0,141.0,363.5,141.5,356.0,142.0,348.5,142.5,340.5,142.5,332.0,143.0,324.0,143.5,315.5,144.0,307.0,144.0,299.0,143.5,291.0,143.5,283.5,144.0,275.5,145.5,267.0,146.5,259.5,147.5,251.0,148.0,243.0,148.5,235.5,148.5,228.0,149.0,221.0,150.0,213.5,151.0,205.5,152.0,197.5,152.5,189.0,153.0,181.0,154.0,173.0,154.0,164.5,155.0,156.0,155.0,147.5,155.0,139.0,155.5,130.5,156.0,123.0,156.5,115.0,157.0,107.0,157.5,99.0,157.5,91.0,157.5" stroke="black" stroke-width="2" fill="none" />
<path d="M88.0,166.0,96.0,167.5,104.0,168.5,112.0,170.5" stroke="black" stroke-width="2" fill="none" />
<path d="M112.5,152.0,120.5,154.5,128.5,156.0,128.5,162.0,120.5,163.0,128.5,159.0,134.0,159.0,142.0,159.0" stroke="black" stroke-width="2" fill="none" />
<path d="M130.0,164.0,138.0,165.5,146.0,167.0,154.0,170.0,162.5,171.0,173.0,167.5,181.0,166.5,188.5,168.0,196.0,170.0,200.0,176.5,208.0,177.5,216.0,178.5,224.0,182.0,232.0,182.5,240.0,183.5" stroke="black" stroke-width="2" fill="none" />
<path d="M261.0,159.5,269.0,161.0,277.0,162.0,285.0,162.5" stroke="black" stroke-width="2" fill="none" />
<path d="M300.5,153.5,308.5,153.0" stroke="black" stroke-width="2" fill="none" />
<path d="M308.5,146.5,316.5,145.5,325.0,145.0,332.5,144.5,340.0,144.0,347.5,143.5" stroke="black" stroke-width="2" fill="none" />
<path d="M366.0,155.5,374.0,154.5,381.5,153.5,390.0,154.0" stroke="black" stroke-width="2" fill="none" />
<path d="M427.5,152.0,419.5,152.5,411.5,152.5,404.0,152.5,396.0,153.0,388.5,153.0,380.5,154.0,372.0,154.5,364.0,155.5,356.0,156.0,348.0,157.0,339.5,157.5,332.0,158.5,324.5,159.5,317.0,160.0,309.0,160.5,300.5,161.0,292.5,161.0,284.5,161.0,276.0,161.5,268.0,162.0,259.5,162.5,251.0,162.0,242.5,162.0,234.5,162.5,226.5,163.0,218.5,163.0,211.0,164.0,203.0,164.5,195.0,165.0,186.5,165.5,179.0,166.0,171.0,167.5,163.5,168.5,156.0,169.0,148.0,170.5,140.5,171.0,132.5,171.5,124.5,172.0,116.5,172.5,109.0,173.0,100.5,173.5,93.0,174.0,85.0,174.5,76.0,174.5,68.0,174.5" stroke="black" stroke-width="2" fill="none" />
<path d="M74.5,173.5,82.5,174.5,91.0,175.0,99.0,172.0,104.0,174.0,112.0,172.5,120.0,173.5" stroke="black" stroke-width="2" fill="none" />
<path d="M136.5,174.5,144.5,172.5" stroke="black" stroke-width="2" fill="none" />
<path d="M148.5,176.5,156.0,175.5,164.0,176.5" stroke="black" stroke-width="2" fill="none" />
<path d="M167.0,181.5,160.0,179.5,152.0,178.5" stroke="black" stroke-width="2" fill="none" />
<path d="M141.5,181.0,133.0,181.5,125.0,182.0,117.0,181.5,109.0,182.0,101.0,182.5,92.5,183.0,84.5,184.0,76.0,184.5,68.0,185.5" stroke="black" stroke-width="2" fill="none" />
<path d="M60.5,187.5,68.0,179.5,76.0,171.5" stroke="black" stroke-width="2" fill="none" />
<path d="M81.5,171.0,74.0,178.5,67.0,186.5,59.5,194.5" stroke="black" stroke-width="2" fill="none" />
<path d="M61.5,190.0,70.0,189.5,78.0,188.5,85.5,188.0,93.5,187.5,101.0,187.0,108.0,186.0,115.0,185.5,122.5,185.0,130.5,184.0,138.5,183.5,146.5,183.5,155.0,183.0,163.5,182.5,171.5,182.0,179.5,181.0,187.5,181.0,195.5,180.0,203.0,179.5,211.0,179.0,218.5,178.5,226.5,178.5,235.0,178.0,243.5,178.0,252.0,177.5,259.5,176.5,268.0,176.0,276.0,175.0,284.0,174.5,291.5,174.0,299.5,173.5,308.0,173.0,316.0,172.5,324.0,172.5,332.0,173.0,340.0,172.5,347.5,172.0,355.5,171.0,363.5,170.5,371.0,169.5,378.5,169.0,386.5,169.0,395.0,168.5,403.5,168.0,411.0,168.0,419.0,167.5" stroke="black" stroke-width="2" fill="none" />
<path d="M436.5,142.5,428.5,142.5,421.0,142.5,412.5,142.5,404.0,143.0,396.0,143.0,388.0,143.5,380.0,144.0,372.0,144.5,364.0,145.0,356.5,145.5,348.5,146.5,340.5,147.5,333.0,148.5,325.0,149.5,317.5,150.0,309.0,150.5,300.5,151.0,292.0,151.5,283.5,152.5,275.0,153.5,267.0,154.0,259.5,155.0,251.0,155.5,242.5,156.5,234.5,157.0,227.0,157.5,219.0,158.0,211.0,158.5,203.5,159.0,196.0,159.0,188.0,159.5,180.0,160.5,172.5,160.5,164.5,160.5,156.0,160.5,148.0,161.5,140.0,162.0,131.5,162.0,123.5,162.0,115.5,162.0,108.0,162.5,100.0,162.5,92.0,163.0,85.0,163.5,77.0,164.0" stroke="black" stroke-width="2" fill="none" />
<path d="M84.5,169.0,92.5,170.0,100.0,170.5,107.0,177.5,114.5,178.0,122.5,179.0,130.5,178.5,139.0,181.0,146.5,181.0,154.5,181.5,162.5,179.5,166.5,183.5,174.5,184.0,183.0,185.0,191.0,187.5,199.5,187.0,204.5,183.5,212.5,184.0,221.0,185.0,229.0,186.0,238.0,191.0,246.0,192.0,253.5,193.5,261.5,194.0,269.0,195.0,280.5,189.5,288.5,191.5,296.5,192.5,301.5,198.0,310.0,198.0,317.5,199.0,325.5,200.0,333.5,201.0,341.0,200.5" stroke="black" stroke-width="2" fill="none" />
<path d="M356.0,176.5,364.0,172.0" stroke="black" stroke-width="2" fill="none" />
<path d="M345.5,172.0,353.5,172.5,361.5,170.5,369.5,172.0,371.5,176.0,379.5,176.0,387.5,176.0,395.5,177.0" stroke="black" stroke-width="2" fill="none" />
<path d="M372.0,167.0,364.5,167.0,356.5,168.0,348.5,170.0,340.0,171.5,338.0,170.5,344.5,165.5" stroke="black" stroke-width="2" fill="none" />
<path d="M324.0,139.0,316.0,139.5" stroke="black" stroke-width="2" fill="none" />
<path d="M310.5,174.0,302.5,178.0,295.0,182.0" stroke="black" stroke-width="2" fill="none" />
<path d="M267.5,152.5,261.5,154.0,253.5,159.0,260.5,154.0" stroke="black" stroke-width="2" fill="none" />
<path d="M213.5,160.0,205.5,162.5" stroke="black" stroke-width="2" fill="none" />
<path d="M202.5,186.0,210.5,186.5,218.5,187.5,226.5,186.5,234.0,185.5" stroke="black" stroke-width="2" fill="none" />
<path d="M248.0,170.0,239.5,169.5,231.0,167.5,223.0,166.0,215.0,166.5,206.0,173.5,198.0,173.5,190.5,177.5,190.5,173.5,182.5,175.0" stroke="black" stroke-width="2" fill="none" />
<path d="M172.5,162.5,164.5,163.5" stroke="black" stroke-width="2" fill="none" />
<path d="M161.5,172.5,153.5,171.5,145.5,175.5,137.0,176.0" stroke="black" stroke-width="2" fill="none" />
<path d="M142.5,208.0,144.5,216.0,148.5,224.0,154.0,232.5,158.0,240.5,162.5,249.0,166.5,257.0,170.5,265.0,174.5,273.0,178.5,281.0,182.5,289.0,186.5,297.0,190.5,304.5,194.5,312.5" stroke="black" stroke-width="2" fill="none" />
<path d="M131.0,363.0,123.0,363.5,115.0,364.0" stroke="black" stroke-width="2" fill="none" />
<path d="M116.0,362.5,123.5,361.5" stroke="black" stroke-width="2" fill="none" />
<path d="M131.0,357.5,123.0,358.0,115.0,359.0" stroke="black" stroke-width="2" fill="none" />
<path d="M116.0,356.0,124.0,355.5" stroke="black" stroke-width="2" fill="none" />
<path d="M131.0,348.5,123.5,349.5,116.0,350.0,108.0,351.5" stroke="black" stroke-width="2" fill="none" />
<path d="M106.5,340.5,114.5,340.5,123.0,340.0,131.5,339.5" stroke="black" stroke-width="2" fill="none" />
<path d="M129.0,331.5,121.0,332.5,113.0,334.0,105.0,334.5" stroke="black" stroke-width="2" fill="none" />
<path d="M105.5,324.5,113.5,323.5,122.0,323.5,130.5,323.0" stroke="black" stroke-width="2" fill="none" />
<path d="M131.0,315.0,122.5,315.0,114.0,316.0,106.0,317.0" stroke="black" stroke-width="2" fill="none" />
<path d="M105.5,309.0,114.0,308.5,122.5,308.0,130.5,307.5" stroke="black" stroke-width="2" fill="none" />
<path d="M121.5,295.5,113.5,296.0" stroke="black" stroke-width="2" fill="none" />
<path d="M108.0,296.5,116.0,295.5,124.0,294.5,131.5,294.0" stroke="black" stroke-width="2" fill="none" />
<path d="M123.5,289.0,115.5,289.5" stroke="black" stroke-width="2" fill="none" />
<path d="M108.0,289.0,116.0,288.0,123.5,287.5,131.0,286.5" stroke="black" stroke-width="2" fill="none" />
<path d="M130.5,300.5,123.0,301.5,115.5,302.0,108.0,302.0" stroke="black" stroke-width="2" fill="none" />
<path d="M106.0,279.0,114.0,278.0,122.5,277.5,130.5,277.0" stroke="black" stroke-width="2" fill="none" />
<path d="M131.0,269.0,122.5,269.0,114.0,269.0,105.5,269.0" stroke="black" stroke-width="2" fill="none" />
<path d="M107.0,261.0,114.5,260.5,122.5,260.5,131.0,260.5" stroke="black" stroke-width="2" fill="none" />
<path d="M124.0,243.5,124.5,251.5,125.0,259.0,125.0,267.0,125.5,275.5,125.5,283.5,125.5,291.5,126.0,299.0,126.0,307.0,127.5,316.0,127.5,324.0,127.5,332.0,127.5,339.5,127.0,347.0,127.0,355.0,127.5,363.0,128.0,371.0,127.5,379.0,128.0,387.0,134.0,385.0,142.5,378.5,150.0,371.5,157.5,364.5,165.5,356.5,173.0,349.0,180.5,342.5" stroke="black" stroke-width="2" fill="none" />
<path d="M132.0,373.0,124.0,373.5,116.5,373.5" stroke="black" stroke-width="2" fill="none" />
<path d="M109.5,397.0,117.0,397.0,124.5,396.5,132.0,396.0,139.5,396.0,147.0,396.0,154.5,395.5,161.5,395.0,169.0,394.0" stroke="black" stroke-width="2" fill="none" />
<path d="M202.5,400.5,194.5,401.5,186.5,402.0,178.5,403.0,170.5,403.5,163.0,404.0,155.5,404.5,148.5,405.0,141.0,405.0,133.0,405.0,125.0,405.0,117.0,406.0,109.0,406.5" stroke="black" stroke-width="2" fill="none" />
<path d="M191.5,306.5,183.5,290.5,175.5,274.0,167.0,258.0,159.0,242.5,151.0,226.5,143.0,211.5" stroke="black" stroke-width="2" fill="none" />
<path d="M144.5,209.0,152.5,210.0,160.5,210.5,168.0,210.0,176.0,211.0,183.5,212.0,192.0,213.0,196.5,215.0,198.0,223.0,198.0,231.0,198.5,239.5,198.0,247.5,197.5,255.5,197.5,263.5,197.0,271.0,196.5,279.5,196.0,287.5,196.0,295.5,196.0,303.5,196.0,311.5" stroke="black" stroke-width="2" fill="none" />
<path d="M125.5,242.0,129.5,250.0,134.5,258.5,139.5,266.5,144.5,274.5,149.5,282.5,153.5,290.5,159.0,298.5,164.0,307.0,169.0,315.0,174.0,323.0,178.0,331.0,183.0,339.5,175.0,348.0,166.0,356.0,158.0,364.0,149.0,372.0,140.5,380.0,132.0,388.0" stroke="black" stroke-width="2" fill="none" />
<path d="M92.0,223.0,100.0,222.5,108.5,221.0,117.0,220.0,125.0,219.0,133.0,218.0,141.0,217.5,148.5,217.0,156.0,216.5" stroke="black" stroke-width="2" fill="none" />
<path d="M141.5,209.0,133.5,210.0,125.0,210.5,116.5,210.5,108.5,211.5" stroke="black" stroke-width="2" fill="none" />
<path d="M90.5,218.0,99.0,217.5,107.5,217.0,116.0,216.5,124.5,216.5,132.5,216.0,141.0,215.5" stroke="black" stroke-width="2" fill="none" />
<path d="M163.5,153.0,178.5,155.0,174.5,167.5,180.0,168.5,188.0,170.5,197.0,177.5,205.0,178.5" stroke="black" stroke-width="2" fill="none" />
<path d="M224.0,155.0,216.0,153.5,208.0,151.5,200.0,152.5,192.0,151.5,182.5,157.0,174.5,154.0,167.0,152.5,159.0,150.5" stroke="black" stroke-width="2" fill="none" />
<path d="M144.0,136.0,152.0,137.0,160.0,139.5,168.0,142.0,176.0,144.0,194.0,142.0,192.0,149.0,200.5,145.0" stroke="black" stroke-width="2" fill="none" />
<path d="M302.0,281.5,307.5,289.5,314.5,297.0,321.0,305.5,328.0,314.0,331.0,322.0,331.5,330.0,331.5,338.0" stroke="black" stroke-width="2" fill="none" />
</svg>