<svg xmlns="http://www.w3.org/2000/svg" version="1.1"><path d="M200.0,170.5,181.0,178.5,163.0,186.5,145.0,195.0,126.5,203.0,108.5,211.0,91.0,219.0,72.0,227.0,54.5,235.5,36.5,243.5,20.5,252.0,23.5,259.5,26.5,260.0,34.5,261.5,42.5,262.0" stroke="black" stroke-width="2" fill="none" />
<path d="M44.0,262.5,47.0,270.5,47.5,278.5,48.5,286.5,50.5,294.5,51.0,302.5,52.0,311.0,54.0,319.0,55.5,327.5,56.5,335.5,60.5,343.0,58.5,351.5,61.5,360.0,63.5,368.0,65.5,376.0,66.5,384.0,68.0,392.0,69.0,400.0,70.0,408.0,71.5,416.0,72.5,424.0,73.5,432.0,75.0,439.5,77.0,447.5,78.0,455.5,78.5,463.5,80.0,471.0,82.5,479.0,83.5,487.0,85.0,495.0,84.5,503.0,86.0,511.0" stroke="black" stroke-width="2" fill="none" />
<path d="M84.0,514.0,92.5,506.5,100.5,498.5,108.5,491.0" stroke="black" stroke-width="2" fill="none" />
<path d="M104.0,490.5,111.5,505.0" stroke="black" stroke-width="2" fill="none" />
<path d="M116.0,507.5,107.5,515.0" stroke="black" stroke-width="2" fill="none" />
<path d="M113.0,515.5,120.5,508.0" stroke="black" stroke-width="2" fill="none" />
<path d="M116.5,499.0,108.5,506.5,100.0,513.5" stroke="black" stroke-width="2" fill="none" />
<path d="M93.5,514.5,101.5,514.0,109.5,513.5" stroke="black" stroke-width="2" fill="none" />
<path d="M107.0,501.0,99.0,508.5,91.5,516.0" stroke="black" stroke-width="2" fill="none" />
<path d="M92.5,507.0,101.0,506.0,108.5,505.0" stroke="black" stroke-width="2" fill="none" />
<path d="M106.5,497.5,98.0,498.0,90.0,498.0" stroke="black" stroke-width="2" fill="none" />
<path d="M84.0,497.0,92.5,489.5,101.0,482.0,109.0,474.5" stroke="black" stroke-width="2" fill="none" />
<path d="M108.5,466.0,101.0,473.0,92.5,480.5,84.0,488.5" stroke="black" stroke-width="2" fill="none" />
<path d="M85.0,481.5,93.0,474.0,100.5,467.0" stroke="black" stroke-width="2" fill="none" />
<path d="M100.0,459.0,92.5,466.5,84.5,473.0" stroke="black" stroke-width="2" fill="none" />
<path d="M83.5,473.0,91.5,472.5,99.5,472.0" stroke="black" stroke-width="2" fill="none" />
<path d="M107.5,483.0,99.5,491.0,91.5,499.0,83.5,506.5" stroke="black" stroke-width="2" fill="none" />
<path d="M82.0,505.5,89.5,513.5,97.5,515.0,105.0,514.5" stroke="black" stroke-width="2" fill="none" />
<path d="M100.5,489.5,92.5,490.5" stroke="black" stroke-width="2" fill="none" />
<path d="M97.5,481.0,89.5,481.0,81.0,481.5" stroke="black" stroke-width="2" fill="none" />
<path d="M84.0,465.0,92.5,465.0,100.5,464.0" stroke="black" stroke-width="2" fill="none" />
<path d="M99.5,449.0,91.0,457.0,82.5,464.0" stroke="black" stroke-width="2" fill="none" />
<path d="M83.0,458.0,91.5,457.5,99.0,456.5" stroke="black" stroke-width="2" fill="none" />
<path d="M100.5,442.5,92.0,449.5,84.0,457.5" stroke="black" stroke-width="2" fill="none" />
<path d="M83.5,450.0,92.0,443.0,100.0,436.0" stroke="black" stroke-width="2" fill="none" />
<path d="M101.0,427.5,92.5,435.0,83.5,442.5,75.5,450.5" stroke="black" stroke-width="2" fill="none" />
<path d="M84.0,448.0,92.0,448.0,100.0,447.5" stroke="black" stroke-width="2" fill="none" />
<path d="M91.5,441.5,83.5,442.5" stroke="black" stroke-width="2" fill="none" />
<path d="M75.5,440.5,83.5,433.0,92.0,425.5,100.0,418.0" stroke="black" stroke-width="2" fill="none" />
<path d="M93.0,419.0,85.0,427.0,77.0,435.0" stroke="black" stroke-width="2" fill="none" />
<path d="M74.0,434.5,82.0,434.0,91.0,433.5" stroke="black" stroke-width="2" fill="none" />
<path d="M76.0,425.0,83.5,417.5,91.5,410.0" stroke="black" stroke-width="2" fill="none" />
<path d="M90.5,403.0,82.5,410.0,75.0,417.0" stroke="black" stroke-width="2" fill="none" />
<path d="M73.0,418.0,81.0,417.5,90.0,417.0" stroke="black" stroke-width="2" fill="none" />
<path d="M90.5,425.5,82.5,426.5,74.5,427.0" stroke="black" stroke-width="2" fill="none" />
<path d="M73.5,410.0,81.5,402.0,89.0,394.5" stroke="black" stroke-width="2" fill="none" />
<path d="M89.5,387.0,82.0,394.5,75.0,402.5" stroke="black" stroke-width="2" fill="none" />
<path d="M74.5,400.5,82.5,400.5,91.0,400.0" stroke="black" stroke-width="2" fill="none" />
<path d="M90.5,408.0,82.5,408.5,74.5,409.0" stroke="black" stroke-width="2" fill="none" />
<path d="M68.0,403.0,76.5,395.5,84.0,387.5,92.0,379.5" stroke="black" stroke-width="2" fill="none" />
<path d="M92.0,371.5,84.0,379.0,76.0,386.5,67.5,394.0" stroke="black" stroke-width="2" fill="none" />
<path d="M67.5,387.5,75.5,380.5,83.0,373.0,91.0,365.5" stroke="black" stroke-width="2" fill="none" />
<path d="M85.0,364.0,77.0,371.5,69.0,379.0" stroke="black" stroke-width="2" fill="none" />
<path d="M67.5,378.0,75.5,377.5,83.5,377.0" stroke="black" stroke-width="2" fill="none" />
<path d="M83.0,384.5,74.5,385.0" stroke="black" stroke-width="2" fill="none" />
<path d="M74.5,391.5,82.5,390.5" stroke="black" stroke-width="2" fill="none" />
<path d="M68.0,371.5,76.5,363.5,84.5,355.5" stroke="black" stroke-width="2" fill="none" />
<path d="M81.5,348.5,73.5,355.5,66.0,363.0" stroke="black" stroke-width="2" fill="none" />
<path d="M67.0,360.5,75.5,360.0,83.5,360.0" stroke="black" stroke-width="2" fill="none" />
<path d="M84.0,369.0,76.0,369.5,68.5,369.5" stroke="black" stroke-width="2" fill="none" />
<path d="M67.0,356.0,75.0,349.0,83.5,341.5" stroke="black" stroke-width="2" fill="none" />
<path d="M83.0,345.0,75.5,345.5,68.0,346.5" stroke="black" stroke-width="2" fill="none" />
<path d="M67.0,352.0,75.0,351.5,83.0,351.0" stroke="black" stroke-width="2" fill="none" />
<path d="M83.0,347.0,85.5,344.0,87.5,332.0,95.5,330.0,103.5,328.0,112.0,326.5,120.0,324.5,128.0,322.0,136.0,320.5,144.5,318.0,153.0,316.5,161.0,314.5,168.5,312.0,176.5,310.0,184.0,306.5,192.0,304.5,200.0,302.5,208.0,301.5,210.0,308.0,210.0,316.0,210.0,324.0,211.0,332.0,210.5,340.0,211.5,348.5,211.5,356.5,212.5,364.5,210.5,372.5,213.0,380.5,218.5,381.5,226.5,379.5,234.5,375.5" stroke="black" stroke-width="2" fill="none" />
<path d="M235.0,364.5,227.0,372.0,218.5,379.0,210.0,386.5" stroke="black" stroke-width="2" fill="none" />
<path d="M210.5,379.5,218.5,373.0,226.5,365.5" stroke="black" stroke-width="2" fill="none" />
<path d="M228.0,370.0,220.0,370.5" stroke="black" stroke-width="2" fill="none" />
<path d="M220.0,363.5,228.0,363.0" stroke="black" stroke-width="2" fill="none" />
<path d="M225.5,356.0,217.5,363.5,210.0,371.0" stroke="black" stroke-width="2" fill="none" />
<path d="M211.0,378.0,219.0,377.5,227.0,377.5,235.5,377.0" stroke="black" stroke-width="2" fill="none" />
<path d="M251.5,379.0,259.5,371.5" stroke="black" stroke-width="2" fill="none" />
<path d="M258.0,364.0,250.0,371.5,242.0,379.5,235.0,387.0,228.0,394.5,220.5,401.5" stroke="black" stroke-width="2" fill="none" />
<path d="M220.0,393.5,228.0,385.5,235.5,377.5,243.5,370.0,251.5,362.5" stroke="black" stroke-width="2" fill="none" />
<path d="M245.5,363.0,237.5,371.0,229.5,378.5,221.0,385.5" stroke="black" stroke-width="2" fill="none" />
<path d="M235.0,396.0,227.0,403.5" stroke="black" stroke-width="2" fill="none" />
<path d="M209.5,362.5,217.5,355.5,225.5,348.0" stroke="black" stroke-width="2" fill="none" />
<path d="M228.5,346.0,220.5,346.5" stroke="black" stroke-width="2" fill="none" />
<path d="M221.5,355.5,229.0,355.0" stroke="black" stroke-width="2" fill="none" />
<path d="M226.5,337.0,218.5,344.5,210.5,352.5" stroke="black" stroke-width="2" fill="none" />
<path d="M209.0,345.5,217.5,338.0,226.0,330.5" stroke="black" stroke-width="2" fill="none" />
<path d="M225.5,323.5,218.0,331.0,210.5,339.5" stroke="black" stroke-width="2" fill="none" />
<path d="M210.5,329.5,218.0,321.5,226.5,314.0" stroke="black" stroke-width="2" fill="none" />
<path d="M227.0,309.5,243.0,317.5,258.5,325.0,274.5,333.0,289.0,341.0,305.0,348.5,320.0,356.5,336.5,365.0,351.5,372.5,366.5,380.5,381.5,389.0,381.5,396.5,381.0,404.5,383.0,413.0,379.5,421.5,378.5,429.5,381.0,437.5,381.0,445.5,380.5,453.0,380.5,461.0,380.0,469.0,379.5,477.0,378.5,485.0,378.0,493.5,376.5,501.5,376.0,509.0,375.5,517.0,375.5,525.0,374.5,533.0,373.5,541.0,373.5,549.0,373.0,557.0,372.5,565.0,372.0,573.5" stroke="black" stroke-width="2" fill="none" />
<path d="M372.5,573.0,381.0,573.0,389.0,572.5,397.5,572.0" stroke="black" stroke-width="2" fill="none" />
<path d="M397.0,563.5,389.0,564.0,380.5,565.0,372.0,565.0" stroke="black" stroke-width="2" fill="none" />
<path d="M379.0,562.0,386.5,554.5" stroke="black" stroke-width="2" fill="none" />
<path d="M389.5,551.5,381.5,552.0" stroke="black" stroke-width="2" fill="none" />
<path d="M380.0,554.0,388.5,547.0" stroke="black" stroke-width="2" fill="none" />
<path d="M388.5,545.0,381.0,546.0" stroke="black" stroke-width="2" fill="none" />
<path d="M381.0,544.5,390.0,537.0,398.0,529.5" stroke="black" stroke-width="2" fill="none" />
<path d="M397.5,521.0,389.0,528.5,381.0,537.0" stroke="black" stroke-width="2" fill="none" />
<path d="M378.5,539.5,386.5,538.5" stroke="black" stroke-width="2" fill="none" />
<path d="M380.5,543.0,388.5,542.5,396.5,541.5" stroke="black" stroke-width="2" fill="none" />
<path d="M394.0,534.0,385.5,534.0,377.5,534.5" stroke="black" stroke-width="2" fill="none" />
<path d="M379.0,529.5,387.0,522.0,395.5,514.5" stroke="black" stroke-width="2" fill="none" />
<path d="M394.5,506.5,386.5,514.0,379.0,522.0" stroke="black" stroke-width="2" fill="none" />
<path d="M380.0,521.5,388.5,521.0" stroke="black" stroke-width="2" fill="none" />
<path d="M380.5,516.0,388.0,508.5,396.5,500.5" stroke="black" stroke-width="2" fill="none" />
<path d="M396.0,493.5,388.5,501.0,380.5,508.0" stroke="black" stroke-width="2" fill="none" />
<path d="M380.0,511.0,388.0,510.5,396.0,510.5" stroke="black" stroke-width="2" fill="none" />
<path d="M395.5,498.5,387.5,499.5" stroke="black" stroke-width="2" fill="none" />
<path d="M386.0,492.0,393.5,491.0" stroke="black" stroke-width="2" fill="none" />
<path d="M395.5,484.0,387.5,491.0,379.5,498.5" stroke="black" stroke-width="2" fill="none" />
<path d="M379.0,499.5,387.5,499.0,396.0,499.0" stroke="black" stroke-width="2" fill="none" />
<path d="M395.0,482.0,387.0,482.5" stroke="black" stroke-width="2" fill="none" />
<path d="M381.0,479.0,389.0,478.5,396.0,478.0,404.0,477.0" stroke="black" stroke-width="2" fill="none" />
<path d="M395.0,473.5,387.0,481.0,378.5,488.5" stroke="black" stroke-width="2" fill="none" />
<path d="M381.0,486.5,389.0,486.0,397.0,486.0" stroke="black" stroke-width="2" fill="none" />
<path d="M396.5,474.0,388.0,474.0" stroke="black" stroke-width="2" fill="none" />
<path d="M380.0,470.0,388.0,469.0,396.5,468.0,404.5,467.0" stroke="black" stroke-width="2" fill="none" />
<path d="M395.0,466.5,387.0,473.5,378.5,481.0" stroke="black" stroke-width="2" fill="none" />
<path d="M378.5,472.5,386.5,465.0,394.5,457.5" stroke="black" stroke-width="2" fill="none" />
<path d="M396.0,455.0,388.5,455.5" stroke="black" stroke-width="2" fill="none" />
<path d="M387.0,458.5,395.0,451.0,403.0,443.5" stroke="black" stroke-width="2" fill="none" />
<path d="M402.5,433.5,394.5,441.0,386.5,449.5" stroke="black" stroke-width="2" fill="none" />
<path d="M387.5,449.0,395.5,448.0" stroke="black" stroke-width="2" fill="none" />
<path d="M387.0,440.5,395.5,433.5,403.5,426.0" stroke="black" stroke-width="2" fill="none" />
<path d="M405.0,419.5,396.5,426.5,388.0,434.0" stroke="black" stroke-width="2" fill="none" />
<path d="M387.5,433.0,396.0,432.5,404.0,432.0" stroke="black" stroke-width="2" fill="none" />
<path d="M395.0,439.5,387.0,440.0" stroke="black" stroke-width="2" fill="none" />
<path d="M380.0,446.0,387.5,445.5,395.0,445.0,402.5,444.5" stroke="black" stroke-width="2" fill="none" />
<path d="M396.5,464.0,389.0,464.5" stroke="black" stroke-width="2" fill="none" />
<path d="M380.5,461.5,388.0,461.0,396.0,460.5,403.5,460.0" stroke="black" stroke-width="2" fill="none" />
<path d="M404.5,453.0,397.0,454.0,389.5,455.0,382.0,456.0" stroke="black" stroke-width="2" fill="none" />
<path d="M378.5,435.5,386.5,435.0,394.0,435.0,402.0,434.5" stroke="black" stroke-width="2" fill="none" />
<path d="M404.0,423.0,396.0,423.0,388.0,423.0" stroke="black" stroke-width="2" fill="none" />
<path d="M381.5,422.5,389.5,422.0,397.0,421.0,404.5,420.5" stroke="black" stroke-width="2" fill="none" />
<path d="M405.0,411.0,397.0,418.5,388.5,425.5,380.5,432.5" stroke="black" stroke-width="2" fill="none" />
<path d="M379.0,429.5,387.0,429.0,395.0,428.5,403.0,427.5" stroke="black" stroke-width="2" fill="none" />
<path d="M402.5,415.0,395.0,415.0,386.5,415.0" stroke="black" stroke-width="2" fill="none" />
<path d="M387.0,410.0,395.0,402.5,403.0,395.0,411.5,388.0" stroke="black" stroke-width="2" fill="none" />
<path d="M415.0,387.5,422.5,395.5,432.0,403.5" stroke="black" stroke-width="2" fill="none" />
<path d="M433.0,401.5,425.5,409.0" stroke="black" stroke-width="2" fill="none" />
<path d="M426.5,405.0,434.5,404.5,443.0,404.0,451.0,404.0" stroke="black" stroke-width="2" fill="none" />
<path d="M452.5,403.0,444.5,410.5,436.5,418.5" stroke="black" stroke-width="2" fill="none" />
<path d="M437.0,414.0,445.0,413.5,453.0,413.0" stroke="black" stroke-width="2" fill="none" />
<path d="M452.0,411.0,444.0,419.0" stroke="black" stroke-width="2" fill="none" />
<path d="M436.5,411.0,444.0,410.0,451.5,409.0" stroke="black" stroke-width="2" fill="none" />
<path d="M451.0,401.0,443.5,401.5" stroke="black" stroke-width="2" fill="none" />
<path d="M443.0,396.5,450.5,389.0" stroke="black" stroke-width="2" fill="none" />
<path d="M451.5,395.5,443.0,402.5,434.5,410.0" stroke="black" stroke-width="2" fill="none" />
<path d="M421.0,396.5,428.5,396.0,436.5,395.5,444.0,395.0,451.5,395.0" stroke="black" stroke-width="2" fill="none" />
<path d="M451.5,391.0,443.5,391.5" stroke="black" stroke-width="2" fill="none" />
<path d="M442.5,386.5,451.0,379.0" stroke="black" stroke-width="2" fill="none" />
<path d="M451.0,372.0,443.0,379.0" stroke="black" stroke-width="2" fill="none" />
<path d="M443.0,377.5,451.0,377.0" stroke="black" stroke-width="2" fill="none" />
<path d="M451.5,384.5,444.0,385.5" stroke="black" stroke-width="2" fill="none" />
<path d="M450.0,389.0,441.0,389.5,433.0,390.0" stroke="black" stroke-width="2" fill="none" />
<path d="M433.5,381.5,442.0,381.5,450.5,381.5" stroke="black" stroke-width="2" fill="none" />
<path d="M441.0,371.0,449.0,364.0" stroke="black" stroke-width="2" fill="none" />
<path d="M443.5,363.5,452.0,355.5" stroke="black" stroke-width="2" fill="none" />
<path d="M453.0,350.5,445.0,357.5" stroke="black" stroke-width="2" fill="none" />
<path d="M443.0,357.5,451.5,357.5,459.5,356.5" stroke="black" stroke-width="2" fill="none" />
<path d="M451.5,369.0,443.5,369.0" stroke="black" stroke-width="2" fill="none" />
<path d="M436.0,366.5,443.5,366.0,451.5,365.5" stroke="black" stroke-width="2" fill="none" />
<path d="M452.0,359.5,444.0,360.0" stroke="black" stroke-width="2" fill="none" />
<path d="M444.0,355.0,452.0,354.0" stroke="black" stroke-width="2" fill="none" />
<path d="M443.5,350.0,451.5,349.0,459.5,348.0" stroke="black" stroke-width="2" fill="none" />
<path d="M452.0,339.5,444.0,347.0" stroke="black" stroke-width="2" fill="none" />
<path d="M443.5,343.5,451.5,343.5" stroke="black" stroke-width="2" fill="none" />
<path d="M444.5,340.0,452.0,339.5,460.0,339.5" stroke="black" stroke-width="2" fill="none" />
<path d="M453.5,336.5,446.5,337.0" stroke="black" stroke-width="2" fill="none" />
<path d="M443.0,337.5,451.5,330.0,459.5,322.5" stroke="black" stroke-width="2" fill="none" />
<path d="M458.5,316.5,450.5,324.0,443.0,331.0" stroke="black" stroke-width="2" fill="none" />
<path d="M444.0,330.0,451.5,329.5" stroke="black" stroke-width="2" fill="none" />
<path d="M444.5,334.0,452.0,333.5,459.5,332.5" stroke="black" stroke-width="2" fill="none" />
<path d="M460.0,325.0,452.0,325.5,443.5,326.0" stroke="black" stroke-width="2" fill="none" />
<path d="M443.5,322.5,452.0,314.5,460.0,306.5" stroke="black" stroke-width="2" fill="none" />
<path d="M458.5,299.5,450.5,307.0,442.5,314.5" stroke="black" stroke-width="2" fill="none" />
<path d="M443.5,318.0,451.5,317.5,459.0,317.5" stroke="black" stroke-width="2" fill="none" />
<path d="M460.0,303.5,452.0,304.0" stroke="black" stroke-width="2" fill="none" />
<path d="M451.0,297.0,459.0,296.0" stroke="black" stroke-width="2" fill="none" />
<path d="M457.5,291.5,449.5,299.0,442.0,306.5" stroke="black" stroke-width="2" fill="none" />
<path d="M442.5,308.0,451.0,308.0,459.0,308.0" stroke="black" stroke-width="2" fill="none" />
<path d="M459.0,299.0,451.0,299.5,443.5,299.5" stroke="black" stroke-width="2" fill="none" />
<path d="M442.0,297.0,450.0,289.5,458.5,281.5" stroke="black" stroke-width="2" fill="none" />
<path d="M459.5,281.0,451.0,282.0" stroke="black" stroke-width="2" fill="none" />
<path d="M454.0,282.5,446.0,282.5" stroke="black" stroke-width="2" fill="none" />
<path d="M443.5,281.5,451.0,274.0,459.0,266.5" stroke="black" stroke-width="2" fill="none" />
<path d="M457.5,273.0,450.0,281.0,442.5,289.0" stroke="black" stroke-width="2" fill="none" />
<path d="M442.5,285.5,451.5,285.0,460.0,284.5,468.0,284.0" stroke="black" stroke-width="2" fill="none" />
<path d="M459.0,289.0,450.0,289.5" stroke="black" stroke-width="2" fill="none" />
<path d="M443.5,294.0,451.5,293.5,460.0,292.5" stroke="black" stroke-width="2" fill="none" />
<path d="M458.0,277.5,450.0,276.5" stroke="black" stroke-width="2" fill="none" />
<path d="M450.0,274.5,458.0,275.0" stroke="black" stroke-width="2" fill="none" />
<path d="M460.0,273.0,452.0,274.0" stroke="black" stroke-width="2" fill="none" />
<path d="M451.5,267.0,459.5,259.5,467.5,251.5" stroke="black" stroke-width="2" fill="none" />
<path d="M466.5,246.5,457.5,246.5,449.5,246.5" stroke="black" stroke-width="2" fill="none" />
<path d="M450.5,250.0,446.5,258.0,441.5,266.0,438.5,274.5,433.5,283.0,430.0,291.0,431.5,292.5,434.5,282.5,439.0,271.5,444.0,261.0" stroke="black" stroke-width="2" fill="none" />
<path d="M442.5,261.5,451.0,260.5,459.5,260.0,467.5,259.5" stroke="black" stroke-width="2" fill="none" />
<path d="M468.0,268.5,460.0,268.5,452.0,268.5,443.5,269.0" stroke="black" stroke-width="2" fill="none" />
<path d="M444.0,275.0,452.0,259.0,460.0,243.5,463.0,248.0,463.0,256.0,462.0,264.0,460.0,272.0,461.5,278.0,462.0,284.0,461.0,289.5,461.0,293.5,458.0,301.5,457.5,309.5,456.5,318.0,455.0,326.0,455.0,334.0,454.0,342.0,453.0,350.0,453.0,357.5,452.0,365.5,451.0,373.5,451.0,381.5,450.0,389.5,449.0,398.0,451.5,406.0,451.0,414.0" stroke="black" stroke-width="2" fill="none" />
<path d="M451.5,373.5,443.0,374.5,435.0,375.0" stroke="black" stroke-width="2" fill="none" />
<path d="M421.0,385.5,413.0,386.0,404.5,387.0,396.0,388.0,387.5,388.0,379.5,388.0" stroke="black" stroke-width="2" fill="none" />
<path d="M380.0,384.5,388.0,384.0,395.5,383.5,403.5,383.0" stroke="black" stroke-width="2" fill="none" />
<path d="M409.5,380.0,401.5,387.0,393.5,394.5,385.5,402.0" stroke="black" stroke-width="2" fill="none" />
<path d="M386.5,401.5,394.5,400.5,403.0,400.0" stroke="black" stroke-width="2" fill="none" />
<path d="M405.0,400.0,409.0,406.5,407.0,414.0,406.0,422.0,407.5,430.0,404.0,437.5,402.0,445.5,400.5,453.0,399.0,461.0,399.0,469.5,398.0,477.5,397.0,485.5,396.0,493.0,396.0,500.5,395.0,508.5,394.0,516.5,393.0,524.5,392.0,533.0,392.0,541.5,391.5,549.5,391.5,557.5,390.5,565.5,391.5,573.5,388.5,581.5" stroke="black" stroke-width="2" fill="none" />
<path d="M386.0,581.0,378.0,588.5,370.0,596.0" stroke="black" stroke-width="2" fill="none" />
<path d="M378.5,596.0,386.5,595.0" stroke="black" stroke-width="2" fill="none" />
<path d="M387.5,589.0,379.5,596.5" stroke="black" stroke-width="2" fill="none" />
<path d="M374.5,585.5,382.5,585.0,390.0,585.0" stroke="black" stroke-width="2" fill="none" />
<path d="M386.5,578.5,378.0,579.5" stroke="black" stroke-width="2" fill="none" />
<path d="M380.5,570.5,388.5,569.5" stroke="black" stroke-width="2" fill="none" />
<path d="M386.5,571.5,378.5,578.5,371.0,586.0" stroke="black" stroke-width="2" fill="none" />
<path d="M364.0,585.5,371.5,578.0,379.0,571.0,387.0,564.0" stroke="black" stroke-width="2" fill="none" />
<path d="M388.5,561.0,380.5,561.5" stroke="black" stroke-width="2" fill="none" />
<path d="M372.0,557.0,380.5,556.5,389.0,556.5,397.0,556.5" stroke="black" stroke-width="2" fill="none" />
<path d="M396.0,548.5,388.0,548.5,380.0,549.0,372.0,549.0" stroke="black" stroke-width="2" fill="none" />
<path d="M379.5,529.5,387.5,529.0" stroke="black" stroke-width="2" fill="none" />
<path d="M380.0,526.5,388.5,526.0,396.5,525.5" stroke="black" stroke-width="2" fill="none" />
<path d="M395.0,517.0,387.5,517.5,379.5,518.0" stroke="black" stroke-width="2" fill="none" />
<path d="M380.0,515.0,387.5,515.0,396.0,514.5" stroke="black" stroke-width="2" fill="none" />
<path d="M395.0,505.0,386.5,505.0,378.0,505.5" stroke="black" stroke-width="2" fill="none" />
<path d="M379.0,494.0,387.5,493.0,395.5,492.5" stroke="black" stroke-width="2" fill="none" />
<path d="M381.5,426.0,389.5,418.5,398.0,411.0,406.0,404.0" stroke="black" stroke-width="2" fill="none" />
<path d="M402.5,407.5,394.0,407.0,386.0,407.5" stroke="black" stroke-width="2" fill="none" />
<path d="M379.5,406.0,387.0,405.5,395.0,405.5,403.0,405.0,411.5,404.5" stroke="black" stroke-width="2" fill="none" />
<path d="M412.5,411.5,404.5,412.0,396.0,412.5,387.5,413.5,379.5,414.0" stroke="black" stroke-width="2" fill="none" />
<path d="M379.5,395.0,387.5,395.0,396.0,395.0,404.5,395.0,412.5,395.5" stroke="black" stroke-width="2" fill="none" />
<path d="M408.5,398.0,416.5,402.0,424.5,407.5,432.5,415.5,440.5,418.5,448.5,417.0" stroke="black" stroke-width="2" fill="none" />
<path d="M431.5,401.5,423.5,394.5,415.0,387.0" stroke="black" stroke-width="2" fill="none" />
<path d="M410.5,370.0,403.0,377.5,395.0,385.5,387.0,393.5" stroke="black" stroke-width="2" fill="none" />
<path d="M387.5,395.0,395.5,393.5,403.5,392.5" stroke="black" stroke-width="2" fill="none" />
<path d="M388.5,385.5,397.0,378.0,405.0,371.0,413.5,363.5" stroke="black" stroke-width="2" fill="none" />
<path d="M412.0,353.0,404.5,360.5,397.0,368.0,389.0,376.0,381.0,384.5" stroke="black" stroke-width="2" fill="none" />
<path d="M370.5,375.5,378.5,368.0,386.5,360.5,395.0,352.5,403.5,344.5,411.5,336.5,420.0,328.5" stroke="black" stroke-width="2" fill="none" />
<path d="M419.0,322.5,411.5,330.0,403.0,337.5,395.0,344.5,386.5,351.5" stroke="black" stroke-width="2" fill="none" />
<path d="M389.0,353.0,396.5,353.0,405.0,353.0,413.0,353.0" stroke="black" stroke-width="2" fill="none" />
<path d="M413.0,344.5,405.0,353.0,397.0,361.0,388.5,369.0,380.5,377.5,372.0,385.0" stroke="black" stroke-width="2" fill="none" />
<path d="M363.0,382.0,371.0,381.0,379.0,380.5,386.5,380.0,394.0,380.0,402.0,380.0,410.5,379.5" stroke="black" stroke-width="2" fill="none" />
<path d="M403.5,369.0,395.5,369.5,388.0,370.0" stroke="black" stroke-width="2" fill="none" />
<path d="M389.0,361.0,397.0,360.5,404.5,360.5" stroke="black" stroke-width="2" fill="none" />
<path d="M411.5,345.0,403.5,346.0,396.0,347.0,388.0,347.5" stroke="black" stroke-width="2" fill="none" />
<path d="M387.5,343.5,395.5,335.5,403.5,328.0,411.0,320.5,418.5,312.5,426.5,304.5" stroke="black" stroke-width="2" fill="none" />
<path d="M419.0,306.0,411.5,313.5,403.5,321.0,396.0,328.5,388.5,335.5" stroke="black" stroke-width="2" fill="none" />
<path d="M388.5,337.5,396.5,337.0,404.5,336.0,412.5,335.5" stroke="black" stroke-width="2" fill="none" />
<path d="M421.5,329.5,413.5,330.0,405.5,330.5,398.0,331.0,390.0,331.5" stroke="black" stroke-width="2" fill="none" />
<path d="M388.0,330.5,396.0,329.5,404.0,329.0,412.0,328.0,420.0,327.0" stroke="black" stroke-width="2" fill="none" />
<path d="M412.5,307.5,404.5,314.5,396.5,321.5,388.5,329.0" stroke="black" stroke-width="2" fill="none" />
<path d="M389.0,322.5,397.5,315.0,406.0,307.5" stroke="black" stroke-width="2" fill="none" />
<path d="M413.5,305.5,421.5,305.5,429.5,302.5" stroke="black" stroke-width="2" fill="none" />
<path d="M428.5,311.0,420.5,312.0,413.0,313.0,405.0,313.0,397.0,313.5,389.0,314.5,380.5,315.5,372.0,316.0,364.0,316.0,356.5,316.5,348.0,316.5,340.0,316.5,332.5,316.5,324.5,316.0,317.0,316.5" stroke="black" stroke-width="2" fill="none" />
<path d="M316.5,314.0,324.5,306.0,333.0,298.5,341.0,290.5" stroke="black" stroke-width="2" fill="none" />
<path d="M347.0,292.0,339.0,299.5,331.5,307.5,324.0,315.5,316.0,322.5" stroke="black" stroke-width="2" fill="none" />
<path d="M316.5,330.0,324.0,329.5" stroke="black" stroke-width="2" fill="none" />
<path d="M322.0,333.0,314.0,340.0,306.5,347.0" stroke="black" stroke-width="2" fill="none" />
<path d="M300.0,345.5,308.0,338.0,316.0,329.5,323.5,322.0,331.0,314.5,339.0,307.5,347.0,300.5" stroke="black" stroke-width="2" fill="none" />
<path d="M354.5,300.0,346.5,308.0,338.5,315.0" stroke="black" stroke-width="2" fill="none" />
<path d="M347.0,311.5,339.0,312.0,331.0,313.0,323.5,313.5,315.5,313.5,307.5,313.5,300.0,314.0,292.5,315.0,284.5,316.0,277.0,317.0,268.5,317.5,260.5,318.5,252.5,319.0,244.5,319.5,236.5,319.5,228.0,320.0,219.5,321.0,211.5,322.0,203.0,323.0,195.0,323.5,187.0,323.5,178.5,323.5,170.0,324.0,162.0,324.0,154.0,325.0,146.5,325.5,139.0,326.0,130.5,326.0,122.5,326.5,114.5,326.5,106.0,326.5,97.5,326.5,89.5,326.5,81.5,327.0,73.5,328.0,65.0,329.0,57.0,330.0,49.0,331.0,41.5,332.0,33.0,332.0,25.5,332.0,18.0,332.0,11.0,332.0,3.0,333.0" stroke="black" stroke-width="2" fill="none" />
<path d="M4.0,341.0,12.0,340.0,19.5,339.5,27.0,339.0,35.5,338.5,43.5,337.5,51.5,337.5,60.0,337.0,68.5,337.0,76.5,336.5,84.5,335.5,93.0,335.5,100.5,335.0,108.0,335.0,116.0,335.0,124.0,334.5,132.0,334.5,140.0,334.5,148.5,334.5,157.0,334.0,164.5,333.0,173.0,332.0,180.5,331.0,188.5,330.5,196.5,330.0,204.5,330.0,213.0,329.0,221.5,328.5,229.5,328.5,237.5,329.0,245.5,328.5,253.0,328.0,261.0,326.5,268.5,325.5,276.0,324.5,283.5,323.5,291.5,323.0,300.0,322.0,308.0,321.5,316.0,321.0,324.0,320.5,332.0,320.0,339.5,319.5,347.5,319.0,355.0,318.5,362.5,318.5" stroke="black" stroke-width="2" fill="none" />
<path d="M364.0,321.0,371.5,314.0,379.0,307.5,387.5,299.5" stroke="black" stroke-width="2" fill="none" />
<path d="M393.0,299.5,385.5,307.0,378.0,314.5,370.5,322.0" stroke="black" stroke-width="2" fill="none" />
<path d="M370.0,322.5,378.0,322.0,386.0,322.0,394.0,321.5,402.0,320.5,410.0,320.0,418.0,319.5" stroke="black" stroke-width="2" fill="none" />
<path d="M393.5,307.5,385.5,315.0,378.5,322.0" stroke="black" stroke-width="2" fill="none" />
<path d="M380.5,326.5,388.5,325.5,396.5,325.0,405.0,324.0,413.0,323.0,421.0,322.0" stroke="black" stroke-width="2" fill="none" />
<path d="M411.5,347.0,403.0,347.5,395.0,348.0,387.0,349.0,379.5,349.5" stroke="black" stroke-width="2" fill="none" />
<path d="M381.0,340.5,388.5,340.0,396.0,340.0,404.0,339.5,411.5,339.5,419.0,339.0" stroke="black" stroke-width="2" fill="none" />
<path d="M377.5,363.0,369.5,370.5,361.5,378.0" stroke="black" stroke-width="2" fill="none" />
<path d="M364.0,375.0,372.0,375.0,380.5,374.5,389.0,374.5,396.5,374.5,404.5,374.5" stroke="black" stroke-width="2" fill="none" />
<path d="M370.5,361.0,363.0,369.5,355.0,377.5" stroke="black" stroke-width="2" fill="none" />
<path d="M355.0,369.5,363.0,362.5,371.0,355.0" stroke="black" stroke-width="2" fill="none" />
<path d="M363.0,356.5,355.5,364.0,347.0,372.0" stroke="black" stroke-width="2" fill="none" />
<path d="M349.0,370.0,356.5,369.5,364.5,368.0,372.0,367.0,380.5,366.5" stroke="black" stroke-width="2" fill="none" />
<path d="M358.0,357.0,350.0,364.5,341.5,371.5" stroke="black" stroke-width="2" fill="none" />
<path d="M340.0,362.5,348.0,355.5,356.0,348.5" stroke="black" stroke-width="2" fill="none" />
<path d="M346.5,347.0,339.0,354.5,331.0,362.0" stroke="black" stroke-width="2" fill="none" />
<path d="M332.5,361.0,340.0,361.0,348.0,360.5,355.5,360.5,363.5,360.5" stroke="black" stroke-width="2" fill="none" />
<path d="M340.0,347.0,332.0,354.5,324.0,362.0" stroke="black" stroke-width="2" fill="none" />
<path d="M326.0,355.5,333.5,348.0" stroke="black" stroke-width="2" fill="none" />
<path d="M333.0,340.0,324.5,347.5,316.0,355.0" stroke="black" stroke-width="2" fill="none" />
<path d="M314.0,353.5,322.0,353.0,329.5,352.0,337.5,352.0,345.5,351.5" stroke="black" stroke-width="2" fill="none" />
<path d="M325.0,341.5,316.5,349.5,308.5,357.0" stroke="black" stroke-width="2" fill="none" />
<path d="M300.0,344.5,308.0,344.0,316.0,343.5,323.5,343.0" stroke="black" stroke-width="2" fill="none" />
<path d="M322.5,337.5,330.5,341.5,339.0,346.0,347.0,350.0,355.0,354.0,363.0,356.5,371.0,360.5,379.0,364.5" stroke="black" stroke-width="2" fill="none" />
<path d="M354.0,321.0,362.0,313.5,370.0,306.5,377.5,298.5" stroke="black" stroke-width="2" fill="none" />
<path d="M371.0,298.5,363.0,306.5,355.5,314.5" stroke="black" stroke-width="2" fill="none" />
<path d="M349.5,316.0,357.5,309.0,365.5,302.0" stroke="black" stroke-width="2" fill="none" />
<path d="M380.5,295.0,373.0,296.0,364.5,296.5,356.0,296.5,348.5,297.0,340.5,297.5,333.0,297.5,325.0,298.0,317.0,298.5,309.0,299.0,300.5,300.0,292.0,300.0,284.0,301.0,276.0,301.5,268.0,302.0,260.0,302.0,251.5,303.0,243.5,303.0,235.5,304.0,227.5,304.5,219.5,305.5,211.5,306.0" stroke="black" stroke-width="2" fill="none" />
<path d="M212.0,312.0,220.0,305.0,228.0,297.5,236.5,290.0,244.5,282.5" stroke="black" stroke-width="2" fill="none" />
<path d="M254.0,282.5,262.0,282.5,270.5,284.5,278.5,284.5,287.0,286.0,295.5,288.0,303.5,289.0,311.5,289.5,319.5,290.0,327.0,290.5,335.0,291.0,343.0,293.5,350.5,294.5,358.5,296.0,367.0,297.0,375.5,298.0,383.0,300.5,390.5,301.5,398.5,303.5,406.5,305.5,414.5,302.5,422.5,301.5" stroke="black" stroke-width="2" fill="none" />
<path d="M420.0,308.0,412.0,309.0,405.0,309.5,397.0,310.0,389.0,310.5,381.0,311.0,373.0,311.0,365.0,310.5,357.0,310.5,349.5,311.0,341.0,311.5,333.0,312.0,325.0,312.5,317.5,312.5" stroke="black" stroke-width="2" fill="none" />
<path d="M328.0,317.5,325.5,325.5,323.0,333.0,327.0,341.0,344.5,349.5,361.5,357.5,377.5,365.5" stroke="black" stroke-width="2" fill="none" />
<path d="M330.5,375.0,322.5,375.5,314.5,376.0,306.5,377.0,299.0,378.0,291.0,378.5,283.5,379.5,276.0,380.5,268.0,381.5,260.0,382.5,251.5,383.0,243.5,383.5,235.5,384.0,227.5,384.5,219.5,385.0,211.5,385.0,203.5,385.0,195.0,385.0,187.0,385.5,179.0,385.5,171.0,386.0,163.5,386.0,155.0,386.5,146.5,387.0,138.0,387.5,130.0,388.5,122.5,389.5,114.0,390.5,106.5,391.5,99.0,392.5,91.0,393.0,83.0,394.0,75.0,394.5,67.5,395.0,59.5,395.5,51.0,396.0,43.0,396.5,35.0,396.5,27.0,397.0,18.5,397.0,10.0,397.0,1.5,397.0" stroke="black" stroke-width="2" fill="none" />
<path d="M3.0,389.0,10.5,388.5,18.5,388.5,27.0,388.5,35.0,388.5,43.5,388.5,51.5,388.5,60.0,388.0,68.0,387.5,76.0,387.0,84.0,387.0,92.0,386.5,100.0,385.5,107.5,384.5,115.5,384.0,123.5,383.0,131.0,382.0,138.5,381.0,146.0,379.5,154.5,378.5,162.5,378.0,170.5,377.5,179.0,378.0,187.0,378.0,195.5,378.0,204.0,378.0,212.0,377.5,220.0,377.0,228.0,376.0,235.5,375.5,243.5,375.0,252.0,375.0,260.5,374.5,268.5,374.0,276.5,373.5,284.5,373.0,292.0,371.5,300.0,371.0,307.5,370.0,315.0,370.0,323.0,369.5,331.0,369.0,339.0,368.5" stroke="black" stroke-width="2" fill="none" />
<path d="M325.0,334.0,316.5,335.0,308.5,335.5,300.5,336.5,292.5,337.0,285.0,338.0" stroke="black" stroke-width="2" fill="none" />
<path d="M289.5,346.0,297.0,338.5,305.0,331.0" stroke="black" stroke-width="2" fill="none" />
<path d="M298.0,330.5,290.0,338.0" stroke="black" stroke-width="2" fill="none" />
<path d="M282.0,337.5,289.5,329.5,297.5,322.0" stroke="black" stroke-width="2" fill="none" />
<path d="M292.0,325.0,284.0,332.5,276.0,339.5" stroke="black" stroke-width="2" fill="none" />
<path d="M275.5,331.5,283.5,324.0" stroke="black" stroke-width="2" fill="none" />
<path d="M283.0,313.0,275.0,321.0,267.0,329.0" stroke="black" stroke-width="2" fill="none" />
<path d="M267.5,330.0,276.0,330.0,284.5,329.5,292.5,329.0" stroke="black" stroke-width="2" fill="none" />
<path d="M306.0,314.5,314.0,307.0,322.0,299.5,330.5,292.0" stroke="black" stroke-width="2" fill="none" />
<path d="M323.0,292.0,315.0,299.0,307.5,306.0,299.5,313.0" stroke="black" stroke-width="2" fill="none" />
<path d="M291.5,313.5,299.5,306.0,308.0,299.0,316.0,291.5" stroke="black" stroke-width="2" fill="none" />
<path d="M307.0,290.5,299.5,297.5,291.0,305.0" stroke="black" stroke-width="2" fill="none" />
<path d="M282.5,307.0,289.5,299.5,297.5,292.0" stroke="black" stroke-width="2" fill="none" />
<path d="M292.5,292.0,284.5,299.5,277.0,307.0" stroke="black" stroke-width="2" fill="none" />
<path d="M275.0,315.5,267.0,323.0,259.0,331.0" stroke="black" stroke-width="2" fill="none" />
<path d="M258.5,325.5,266.5,318.0" stroke="black" stroke-width="2" fill="none" />
<path d="M277.0,320.0,269.0,321.0,260.5,321.5,252.0,322.0" stroke="black" stroke-width="2" fill="none" />
<path d="M252.0,321.5,260.5,314.5,268.5,307.5,276.0,300.0,284.0,292.5,292.5,285.0" stroke="black" stroke-width="2" fill="none" />
<path d="M283.0,282.5,274.5,290.5,266.0,298.0,258.0,306.0,250.0,313.5,242.5,321.5" stroke="black" stroke-width="2" fill="none" />
<path d="M241.5,313.0,250.0,305.5,258.0,298.5,266.5,291.0,275.0,283.5" stroke="black" stroke-width="2" fill="none" />
<path d="M267.5,284.5,259.5,292.0,251.5,299.5,243.5,306.5,235.0,314.5" stroke="black" stroke-width="2" fill="none" />
<path d="M234.5,314.0,242.5,313.5,250.5,312.5,258.0,312.0" stroke="black" stroke-width="2" fill="none" />
<path d="M256.5,309.0,264.5,311.5,272.5,315.0,280.5,318.5,288.5,321.0,297.0,325.0,305.0,328.5,313.0,323.5" stroke="black" stroke-width="2" fill="none" />
<path d="M326.5,322.0,334.5,318.0,342.0,318.5,350.0,320.5,357.5,321.0,365.5,322.0,373.5,322.5,382.0,324.0,384.5,329.0,383.5,336.5,383.5,344.5,382.5,352.5,382.5,361.0" stroke="black" stroke-width="2" fill="none" />
<path d="M348.5,360.5,341.0,361.0,333.5,362.0,325.5,362.5,318.0,363.0,310.0,363.0,302.0,363.5,293.5,364.0,285.0,364.0,276.5,364.5,268.5,365.0,260.0,365.5,251.5,366.0,244.0,366.0,236.0,367.0,228.0,367.5,220.0,368.5,212.0,369.5,204.0,369.5,195.5,370.0,186.5,370.5,178.0,371.0,170.0,371.0,161.5,372.0,154.0,372.5,147.0,373.0,139.5,373.5,131.5,374.5,123.5,375.0,116.5,376.0,109.0,377.0,101.0,377.5,93.5,378.5,85.5,378.5,77.5,379.5,69.5,380.0,61.0,380.0,52.5,380.0,44.0,379.5,35.5,380.0,27.0,380.0,18.5,380.5,10.5,380.5,2.0,380.5" stroke="black" stroke-width="2" fill="none" />
<path d="M3.0,373.5,11.0,373.0,18.5,372.0,26.5,371.5,35.0,371.5,43.0,371.5,51.0,371.5,59.5,371.5,67.5,371.5,76.5,371.0,85.0,370.5,92.5,370.0,100.5,369.0,108.0,368.0,115.5,367.0,123.0,367.0,131.0,366.0,139.5,365.5,147.5,364.5,155.0,364.0,163.5,363.5,171.0,363.0,178.5,362.5,186.5,362.5,194.5,362.5,202.5,362.0,211.0,361.0,219.5,360.5,228.0,360.0,236.5,359.5,244.0,359.0,252.5,358.5,261.0,358.0,269.0,357.0,277.0,356.5,284.5,356.5,293.0,355.5,300.5,355.0,308.5,355.0,316.0,354.5,323.5,354.0,331.5,353.5,340.0,352.5,348.5,352.0,356.5,351.5,364.5,351.0,373.0,350.5,381.0,350.0,389.0,349.0,397.0,348.5,405.0,348.0,412.5,348.0" stroke="black" stroke-width="2" fill="none" />
<path d="M412.0,342.0,404.0,342.5,396.0,343.0,388.5,343.0,381.0,343.5,372.5,344.0,364.5,344.0,355.5,344.5,347.0,345.0,339.0,345.5,331.0,345.5,323.5,346.0,315.0,346.5,306.5,347.0,298.5,347.0,290.0,347.5,282.0,348.5,274.0,348.5,266.0,349.0,258.5,349.5,250.5,350.5,242.5,351.0,234.5,352.0,227.0,352.0,219.0,352.0,210.5,352.5,202.5,353.0,194.5,353.5,187.5,354.0,179.5,354.5,171.5,355.5,163.0,356.0,155.5,356.0,147.5,356.5,139.5,357.5,131.5,358.0,123.5,359.0,115.5,360.0,107.5,360.5,99.5,361.5,91.5,362.5,83.5,363.0,75.5,363.5,67.5,363.0,59.0,363.5,50.0,364.0,42.0,364.5,34.0,364.5,26.0,364.5,18.5,364.5,10.5,365.5,3.0,366.0" stroke="black" stroke-width="2" fill="none" />
<path d="M3.0,356.5,11.5,356.0,19.5,356.0,28.0,356.0,36.5,355.5,44.5,354.5,52.5,354.5,60.5,354.0,68.0,353.5,76.0,353.5,84.0,353.5,91.5,353.0,99.0,352.0,107.0,351.5,115.0,351.0,123.0,350.5,131.0,350.0,139.5,349.0,148.0,348.5,156.0,348.5,164.5,347.5,172.0,347.5,180.0,347.5,188.5,347.5,196.5,347.0,204.5,347.0,212.5,346.0,220.0,345.5,227.5,344.5,236.0,344.0,244.0,343.5,252.0,343.0,260.0,342.5,268.0,342.0,275.5,341.5,283.5,341.0,291.0,340.0,299.0,338.5,307.0,337.5,315.5,336.0,323.5,335.0,331.5,335.0,340.0,335.0,348.5,335.0,356.5,335.5,365.0,335.0,373.0,335.0,381.5,335.0,389.5,334.5,396.5,333.5,404.5,332.5,412.5,332.0" stroke="black" stroke-width="2" fill="none" />
<path d="M427.5,303.5,434.0,295.0,437.0,286.5,440.5,278.5,438.5,290.0" stroke="black" stroke-width="2" fill="none" />
<path d="M442.5,294.0,440.5,290.0,436.5,297.5,431.0,305.0,424.0,313.0,421.5,321.0,419.0,329.0,415.5,337.0,415.0,345.0,414.0,348.0,412.5,356.5,410.0,364.5,409.5,372.5,408.5,380.5,407.0,388.0,403.5,389.5,404.0,397.5,402.0,405.5,400.0,413.5,399.0,421.5,398.0,431.0,399.0,429.0" stroke="black" stroke-width="2" fill="none" />
<path d="M400.0,411.5,412.5,400.0,424.5,408.0,432.5,415.5" stroke="black" stroke-width="2" fill="none" />
<path d="M309.5,396.0,301.5,396.0,293.5,396.0,285.0,396.0,277.0,396.0,269.5,396.5,261.5,397.0,253.5,397.5,244.5,398.0,237.0,398.5,229.0,399.5,220.5,400.5,212.5,401.5,204.5,402.0,197.0,402.5,189.0,402.5,181.0,403.0,173.5,403.0,165.5,403.0,157.5,403.5,149.0,404.5,141.0,405.5,132.5,405.5,124.0,405.5,115.5,406.0,107.5,406.0,99.0,406.0,91.0,406.5,83.0,407.0,75.0,407.5,66.5,408.5,59.0,409.5,51.0,410.5,43.0,412.0,35.0,413.0,27.0,414.5,19.5,415.5,12.0,416.0,4.0,417.0" stroke="black" stroke-width="2" fill="none" />
<path d="M4.0,424.5,12.0,423.5,20.0,422.5,27.5,422.0,35.0,421.0,43.5,420.0,51.0,419.5,59.5,418.5,67.5,418.0,75.5,416.5,83.0,415.5,91.5,415.0,99.5,415.0,107.5,414.5,116.0,414.5,124.5,414.0,132.5,414.0,140.5,413.5,148.5,413.0,156.0,412.5,164.0,412.0,172.5,411.5,180.5,411.0,189.0,410.5,197.0,410.0,204.5,409.0,212.5,408.0,220.5,407.5,228.5,406.5,236.0,405.5,244.0,405.0,252.0,404.5,260.0,404.5,268.0,404.5,276.0,404.0,283.5,403.5,292.0,403.0,300.5,402.5" stroke="black" stroke-width="2" fill="none" />
<path d="M245.5,485.0,237.5,485.5,230.0,486.0,222.0,486.5,213.5,487.5,205.0,488.5,197.5,489.0,189.0,489.5,180.5,490.0,172.0,490.5,164.5,491.0,156.5,491.5,148.5,492.0,140.0,492.0,132.0,493.0,124.5,493.5,115.5,494.5,107.5,495.5,99.0,496.5,90.0,497.0,82.0,497.5,74.0,498.0,66.5,498.5,59.0,499.5,52.0,500.0,44.5,500.0,36.0,500.5,28.0,501.0,20.0,501.5,12.5,501.0,4.5,501.5" stroke="black" stroke-width="2" fill="none" />
<path d="M5.0,494.5,13.0,494.0,21.0,493.0,29.0,493.0,37.0,493.0,44.5,493.0,51.5,492.5,59.0,492.0,66.5,491.5,74.5,491.0,82.5,490.0,90.5,489.5,98.5,488.5,107.0,487.5,115.5,487.0,123.5,486.0,132.5,485.0,141.0,484.5,149.0,483.5,156.5,483.0,164.0,482.5,172.0,482.5,180.5,482.0,188.5,482.0,196.0,482.0,204.0,481.0,212.5,480.5,220.0,479.5,228.0,478.5,236.0,478.0,244.5,478.0,252.5,477.0" stroke="black" stroke-width="2" fill="none" />
<path d="M220.0,554.0,212.0,554.5,204.0,555.0,196.5,555.5,188.5,556.5,180.5,557.5,173.0,558.5,165.0,559.5,157.5,560.0,149.0,560.5,140.5,561.0,132.0,561.5,123.5,562.5,115.0,563.5,107.0,564.0,99.5,565.0,91.0,565.5,82.5,566.5,74.5,567.0" stroke="black" stroke-width="2" fill="none" />
<path d="M52.0,558.5,59.5,558.0,67.0,557.0,75.0,556.5,83.0,556.0,91.0,555.5,99.0,555.0,107.5,554.0,116.0,553.5,124.0,553.5,132.5,552.5,140.0,552.5,148.0,552.5,156.5,552.5,164.5,552.0,172.5,552.0,180.5,551.0,188.0,550.5,195.5,549.5,204.0,549.0,212.0,548.5,220.0,548.0,228.0,547.5" stroke="black" stroke-width="2" fill="none" />
<path d="M236.5,537.0,228.5,537.5,220.5,538.0,211.5,539.0,203.0,540.0,194.5,540.5,187.0,540.5,178.5,541.0,170.5,541.5,162.5,542.0,155.0,542.5,147.5,543.0,139.0,543.5,130.0,544.0,121.5,544.0,113.5,544.0,105.0,544.5,97.5,545.0,90.0,545.0,82.5,545.5,75.5,546.0,67.5,546.0,60.0,547.0,52.0,547.0,44.0,547.5,36.0,548.0,27.5,548.0" stroke="black" stroke-width="2" fill="none" />
<path d="M20.0,543.0,28.0,542.0,36.0,541.5,44.0,540.5,52.0,540.0,60.0,539.0,68.0,538.5,76.0,537.5,84.0,537.0,92.0,536.5,100.0,536.0,108.5,536.0,116.5,535.0,124.5,534.5,132.5,533.5,140.5,533.0,148.0,533.5,156.0,533.5,163.5,533.5,171.5,533.5,179.0,533.5,187.0,532.5,195.0,532.0,203.5,531.0,211.5,530.0,219.5,529.5,228.0,529.0,236.5,528.0" stroke="black" stroke-width="2" fill="none" />
<path d="M235.5,519.0,227.0,519.5,219.0,520.5,211.5,521.0,204.0,522.0,195.5,522.5,188.0,523.0,180.5,523.5,172.5,523.5,164.0,524.0,156.0,524.5,147.5,525.0,139.0,525.0,131.0,524.5,123.0,524.5,115.5,525.0,107.5,526.5,99.0,527.5,91.5,528.5,83.0,529.0,75.0,529.5,67.5,529.5,60.0,530.0,53.0,531.0,45.5,532.0,37.5,533.0,29.5,533.5,21.0,534.0,13.0,535.0,5.0,535.0" stroke="black" stroke-width="2" fill="none" />
<path d="M5.5,527.5,13.5,526.5,21.5,526.0,29.5,525.0,37.0,524.0,44.5,523.5,52.5,522.0,60.0,521.5,68.0,520.5,75.5,519.5,84.0,519.0,92.0,519.0,100.0,518.5,108.0,518.5,117.0,518.5,125.5,518.5,133.5,518.5,141.0,518.0,149.0,518.0,157.0,517.5,165.0,517.0,173.0,516.5,180.5,516.0,187.5,515.5,195.0,515.0,202.5,514.0,210.5,514.0,218.5,513.5,226.5,513.0,234.5,512.5" stroke="black" stroke-width="2" fill="none" />
<path d="M235.5,503.5,227.5,503.5,219.5,504.0,211.0,504.5,203.5,504.5,196.0,505.5,188.5,506.0,181.0,507.0,173.0,508.0,165.5,508.5,157.5,509.0,149.0,509.0,141.0,509.0,132.5,509.0,124.5,509.0,116.0,510.0,107.5,511.0,99.0,512.0,91.5,512.5,83.5,513.5,75.5,514.0,67.5,514.5,59.5,515.0,51.5,515.5,44.0,516.5,36.0,516.5,28.5,517.5,20.5,518.0,12.5,518.5,4.5,519.0" stroke="black" stroke-width="2" fill="none" />
<path d="M4.0,509.5,12.5,509.5,20.5,509.5,28.0,509.5,36.0,508.5,44.0,508.0,51.5,508.0,59.0,507.5,67.0,507.0,75.0,506.5,82.5,506.0,90.5,505.5,99.0,504.5,107.5,504.0,115.0,503.0,123.0,502.5,131.5,501.5,140.0,500.5,148.5,500.0,157.0,499.5,165.5,499.0,173.0,498.5,181.0,497.5,188.5,496.5,196.5,495.5,204.5,494.5,212.0,494.0,220.0,493.5,228.0,493.0,236.0,492.5,244.0,492.0" stroke="black" stroke-width="2" fill="none" />
<path d="M252.5,470.5,245.0,471.0,237.0,471.0,229.0,471.5,221.0,472.0,213.0,472.5,205.0,473.5,196.5,474.0,188.0,474.5,180.5,475.5,172.5,476.0,165.0,477.0,156.5,477.5,148.5,477.5,140.5,477.5,132.0,477.5,124.0,478.0,115.0,479.0,106.5,479.0,98.0,480.0,89.0,480.5,81.0,481.0,73.0,481.5,65.0,482.0,57.5,483.0,50.5,483.5,43.0,484.0,35.5,484.0,28.0,484.0,20.5,484.5,13.0,485.0,5.5,485.0" stroke="black" stroke-width="2" fill="none" />
<path d="M4.0,479.5,12.0,478.0,19.5,477.5,27.0,476.5,35.0,475.0,42.5,474.5,51.0,474.0,59.0,473.5,67.0,473.0,74.5,472.0,82.5,472.0,90.5,471.5,98.5,471.0,107.0,471.0,115.5,471.5,124.0,471.0,132.0,470.5,140.5,470.0,148.5,470.0,156.5,470.0,165.0,469.5,173.0,469.0,180.5,468.5,188.0,467.5,195.5,466.5,204.0,466.0,212.0,465.0,220.0,464.5,228.0,463.5,236.5,463.0,244.5,462.0,252.0,462.0" stroke="black" stroke-width="2" fill="none" />
<path d="M218.0,329.0,209.5,329.5" stroke="black" stroke-width="2" fill="none" />
<path d="M211.0,321.0,219.0,320.5" stroke="black" stroke-width="2" fill="none" />
<path d="M212.0,321.0,220.0,313.5,228.0,306.0,237.0,298.0,245.5,290.5,254.0,282.5" stroke="black" stroke-width="2" fill="none" />
<path d="M259.5,282.5,251.5,290.5,243.5,298.5,235.5,306.5" stroke="black" stroke-width="2" fill="none" />
<path d="M223.5,309.0,223.5,317.0,225.0,324.5,225.0,332.0,225.0,340.0,226.0,347.5,226.0,355.5,226.5,363.5,234.5,374.5" stroke="black" stroke-width="2" fill="none" />
<path d="M218.5,314.5,211.0,314.5" stroke="black" stroke-width="2" fill="none" />
<path d="M213.0,304.0,221.5,296.0,229.5,288.5,237.5,281.0,246.0,273.0" stroke="black" stroke-width="2" fill="none" />
<path d="M249.5,262.0,257.5,254.5,266.0,247.0,275.0,239.5,283.5,231.5,291.5,223.5,300.0,216.0,308.5,209.0,317.0,202.0,325.5,195.0,333.5,187.5,341.5,179.5" stroke="black" stroke-width="2" fill="none" />
<path d="M347.0,180.0,338.5,187.5,330.5,195.0,323.0,202.5,315.0,210.0,307.0,217.0,299.0,224.0,291.0,231.0,282.5,238.0,274.5,245.0,267.0,252.5,259.0,260.0" stroke="black" stroke-width="2" fill="none" />
<path d="M267.5,263.0,275.5,255.5,283.5,248.0,292.0,240.5,300.0,233.0,307.5,225.5,315.5,218.0,323.0,211.0,331.0,203.5,339.5,196.0,347.5,189.0" stroke="black" stroke-width="2" fill="none" />
<path d="M355.5,187.5,347.5,195.0,339.5,202.0,331.5,209.5,323.5,217.0,316.0,224.5,307.5,232.0,299.0,239.0,291.0,246.5,283.0,254.0,275.5,261.5" stroke="black" stroke-width="2" fill="none" />
<path d="M268.0,265.0,275.5,265.0,284.0,264.5,292.5,264.0,300.5,263.5,309.0,263.0" stroke="black" stroke-width="2" fill="none" />
<path d="M332.0,269.5,340.0,262.5,348.0,255.5,356.0,248.5,363.5,241.0,371.0,233.5,379.5,226.0,387.5,218.5,396.0,210.5,404.0,202.5,412.0,195.5" stroke="black" stroke-width="2" fill="none" />
<path d="M404.5,196.0,397.0,203.5,389.0,211.0,380.5,218.5,372.5,226.5,364.5,234.0,356.0,241.5,347.0,248.5,339.0,256.0,330.5,263.5,322.5,272.0" stroke="black" stroke-width="2" fill="none" />
<path d="M364.5,268.0,372.5,260.5,380.5,253.5,388.5,246.0,396.5,238.0,404.5,230.5,411.5,223.5,419.5,216.5,427.0,209.5,434.0,202.5,442.0,195.0" stroke="black" stroke-width="2" fill="none" />
<path d="M434.0,195.0,426.0,202.0,418.0,209.5,410.0,216.5,402.0,224.0,395.0,231.5,387.5,239.0,380.5,246.5,372.5,253.5,365.0,261.0,357.5,268.5" stroke="black" stroke-width="2" fill="none" />
<path d="M347.0,272.5,355.5,265.0,363.5,257.0,371.5,249.0,379.0,240.5,387.0,232.5,395.0,225.0,403.0,217.5,411.5,210.0,419.5,201.5,427.5,194.0" stroke="black" stroke-width="2" fill="none" />
<path d="M433.5,196.0,431.5,204.0,427.0,212.0,421.0,220.5,415.0,228.5,409.0,236.5,402.5,244.0,396.5,252.5,392.0,260.5,384.5,268.0,379.5,276.0,379.5,279.0,391.0,286.5,406.0,294.5" stroke="black" stroke-width="2" fill="none" />
<path d="M405.0,297.0,396.5,296.0" stroke="black" stroke-width="2" fill="none" />
<path d="M403.5,294.0,395.5,287.5,387.5,283.0,379.5,278.0" stroke="black" stroke-width="2" fill="none" />
<path d="M371.0,273.5,379.0,266.5,387.5,260.0,396.0,253.0,403.5,245.5" stroke="black" stroke-width="2" fill="none" />
<path d="M404.0,262.0,411.5,261.5" stroke="black" stroke-width="2" fill="none" />
<path d="M411.5,267.5,403.5,268.0" stroke="black" stroke-width="2" fill="none" />
<path d="M433.5,278.5,441.5,278.0,449.5,277.5,457.5,277.0,466.5,276.0" stroke="black" stroke-width="2" fill="none" />
<path d="M467.5,252.0,460.0,252.0,452.0,252.0,444.0,252.5" stroke="black" stroke-width="2" fill="none" />
<path d="M447.0,260.0,443.0,278.0,435.0,291.0,432.0,304.0,422.5,301.0,430.5,293.0,435.5,285.0,439.0,276.5,443.0,268.5,446.5,260.5" stroke="black" stroke-width="2" fill="none" />
<path d="M427.5,266.0,420.0,267.0,412.5,268.0,405.0,269.0,396.5,269.5,388.0,269.5,380.5,270.0,372.5,270.5,365.0,270.5,357.0,271.0,349.0,271.5,341.0,272.0,332.5,273.0,324.0,273.0,316.0,274.0,308.0,274.5,300.0,275.0,292.0,275.0,283.5,276.0,275.5,276.0,267.5,277.0,259.5,277.5,251.5,278.5,243.5,279.0,236.0,279.5,228.0,280.0,219.5,280.0,211.5,280.0,203.0,280.5,195.0,281.0,187.0,281.5,179.5,282.0,171.5,282.5,163.5,283.0,155.5,283.5,147.0,284.0,139.5,284.5,131.5,285.0,123.5,285.5,116.0,286.5,108.0,287.5,100.5,288.5,92.5,288.5,84.5,289.0,76.5,290.0,68.5,290.0,61.0,290.5,53.0,291.5,44.5,292.0,36.5,292.5,28.0,292.5,19.5,293.0,11.0,293.5,2.5,294.0" stroke="black" stroke-width="2" fill="none" />
<path d="M2.5,285.0,10.5,284.5,19.0,284.5,27.5,284.5,35.5,284.5,44.0,284.5,52.5,284.0,60.0,283.5,68.0,283.0,76.0,282.5,84.0,282.0,92.0,281.0,100.0,280.5,108.0,279.5,116.0,279.0,124.0,278.0,132.0,277.5,140.0,276.5,148.0,276.0,156.0,275.5,164.0,275.0,172.5,275.0,180.5,274.0,188.5,273.5,196.5,272.5,204.5,272.0,212.0,272.5,220.0,272.5,227.5,272.5,235.5,272.5,243.0,272.5,251.0,271.5,259.0,271.0,267.5,270.0,275.5,269.0,283.5,268.5,292.0,268.0,300.5,267.0,308.5,266.0,316.5,265.5,324.0,265.0,332.5,264.5,341.0,264.5,349.0,264.5,357.0,265.0,365.0,264.5,373.0,263.5,380.5,263.0,388.5,262.5,396.5,262.5,404.5,262.0,412.5,261.5" stroke="black" stroke-width="2" fill="none" />
<path d="M427.5,283.0,420.0,283.5,412.5,284.0,404.5,284.5,396.5,285.5,388.5,286.0,380.5,286.5,373.5,287.0,365.5,287.5,358.0,288.5,350.0,289.0,342.0,289.0,334.5,289.0,326.5,289.5,318.5,290.0,309.5,291.0,301.5,291.5,293.0,292.0,284.5,292.5,276.0,293.0,267.0,293.5,259.0,293.5,251.0,293.5,243.0,294.0,234.5,294.5,226.5,295.0,218.5,296.0,210.5,296.5,202.0,297.0,194.5,298.0,187.5,298.5,180.0,298.5,172.5,298.5,165.0,299.0,156.5,299.5,148.0,300.5,139.5,301.5,131.5,302.0,124.0,302.5,116.5,303.0,108.5,303.0,100.5,303.0,92.5,303.5,84.5,304.0,76.5,304.5,68.5,305.0,60.0,305.5,51.5,306.0,43.0,306.5,35.0,307.0,28.0,308.0,20.5,308.5,13.0,309.5,5.0,310.0" stroke="black" stroke-width="2" fill="none" />
<path d="M4.0,303.0,12.0,302.5,20.5,301.0,29.0,300.0,37.0,299.0,45.0,298.0,53.0,297.5,60.5,297.0,68.0,296.5,75.5,295.5,83.5,295.0,92.0,295.0,100.0,294.5,108.0,294.0,116.0,294.0,123.5,293.0,131.5,293.0,138.5,292.5,146.0,292.0,153.5,292.0,161.0,291.5,169.5,291.0,177.5,291.0,186.0,291.0,195.0,290.5,203.5,290.0,211.0,289.5,218.5,289.0,226.5,288.5,234.5,288.0,243.0,287.5,250.5,287.5,259.0,287.0,267.5,286.0,276.5,285.0,284.5,284.5,292.5,284.0,300.5,283.5,308.5,283.0,316.5,282.0,324.5,281.0,333.0,281.0,341.0,280.5,349.5,280.0,357.5,280.0,365.5,279.5,373.5,279.0,381.5,277.5,389.5,276.5,397.5,275.5,405.5,275.0,413.5,274.5,421.0,274.5" stroke="black" stroke-width="2" fill="none" />
<path d="M394.5,255.0,386.0,255.5,378.5,255.5,371.0,256.0,363.5,256.5,356.0,256.5,348.0,256.5,340.0,256.5,332.0,257.0,324.0,257.0,315.5,258.0,307.0,258.5,299.0,259.5,291.5,260.0,284.0,261.0,275.5,261.5,268.0,262.0,260.5,262.5,252.5,262.5,244.0,263.0,236.0,263.5,227.5,264.0,219.0,264.0,211.0,263.5,203.0,263.5,195.5,264.0,187.5,265.5,179.0,266.5,171.5,267.5,163.0,268.0,155.0,268.5,147.5,268.5,140.0,269.0,133.0,270.0,125.5,271.0,117.5,272.0,109.5,272.5,101.0,273.0,93.0,274.0,85.0,274.0,76.5,275.0,68.0,275.0,59.5,275.0,51.0,275.5,42.5,276.0,35.0,276.5,27.0,277.0,19.0,277.5,11.0,277.5,3.0,277.5" stroke="black" stroke-width="2" fill="none" />
<path d="M2.0,271.0,10.0,270.5,18.5,270.0,27.0,269.5,35.0,268.5,43.0,268.5,51.5,268.0,60.5,268.0,69.0,267.5,77.5,267.0,85.5,266.5,93.5,265.5,101.5,265.0,109.5,264.0,117.0,263.0,124.5,262.5,132.5,261.0,140.0,260.5,148.0,259.5,155.5,258.5,164.0,258.0,172.0,258.0,180.0,257.5,188.0,257.5,197.0,257.5,205.5,257.5,213.5,257.5,221.0,257.0,229.0,257.0,237.0,256.5,245.0,256.0,253.0,255.5,260.5,255.0,267.5,254.5,275.0,254.0,282.5,253.0,290.5,253.0,298.5,252.5,306.5,252.0,314.5,251.5,322.0,250.5,330.0,250.0,338.0,250.0,346.0,249.5,354.0,248.5,362.0,248.0,370.0,247.5,378.0,247.0,385.5,246.5" stroke="black" stroke-width="2" fill="none" />
<path d="M397.5,202.5,405.0,201.5" stroke="black" stroke-width="2" fill="none" />
<path d="M405.5,185.0,397.5,193.0,389.0,200.5,381.0,208.0,372.5,216.0,364.0,224.5,355.5,231.5,347.5,239.5,339.5,247.5,331.0,255.0,323.0,262.0,314.5,269.5" stroke="black" stroke-width="2" fill="none" />
<path d="M340.5,272.0,348.5,264.0,357.0,256.0,365.0,248.0,373.0,240.0,381.5,232.5,389.0,224.5,396.5,216.5,404.0,208.5,412.0,201.0,419.5,193.5" stroke="black" stroke-width="2" fill="none" />
<path d="M421.0,208.5,429.0,208.0" stroke="black" stroke-width="2" fill="none" />
<path d="M460.5,203.5,468.5,196.5,476.5,189.0" stroke="black" stroke-width="2" fill="none" />
<path d="M484.0,189.0,476.0,196.5" stroke="black" stroke-width="2" fill="none" />
<path d="M483.0,196.0,475.0,203.5" stroke="black" stroke-width="2" fill="none" />
<path d="M506.0,212.0,514.0,211.5" stroke="black" stroke-width="2" fill="none" />
<path d="M513.0,220.0,505.0,220.5" stroke="black" stroke-width="2" fill="none" />
<path d="M508.0,204.0,516.0,203.5" stroke="black" stroke-width="2" fill="none" />
<path d="M517.0,195.5,509.0,196.5" stroke="black" stroke-width="2" fill="none" />
<path d="M509.0,187.5,517.0,187.0" stroke="black" stroke-width="2" fill="none" />
<path d="M515.5,180.0,507.5,180.5" stroke="black" stroke-width="2" fill="none" />
<path d="M506.0,141.0,514.5,140.5" stroke="black" stroke-width="2" fill="none" />
<path d="M515.0,132.0,507.0,132.0" stroke="black" stroke-width="2" fill="none" />
<path d="M508.0,119.0,515.5,118.0" stroke="black" stroke-width="2" fill="none" />
<path d="M515.0,110.5,506.5,111.5" stroke="black" stroke-width="2" fill="none" />
<path d="M507.0,101.5,515.0,100.5" stroke="black" stroke-width="2" fill="none" />
<path d="M517.0,93.0,508.5,93.5" stroke="black" stroke-width="2" fill="none" />
<path d="M509.0,86.5,517.0,86.0" stroke="black" stroke-width="2" fill="none" />
<path d="M515.5,78.0,507.0,78.5" stroke="black" stroke-width="2" fill="none" />
<path d="M507.0,69.5,514.5,68.5" stroke="black" stroke-width="2" fill="none" />
<path d="M515.5,59.5,507.5,60.0" stroke="black" stroke-width="2" fill="none" />
<path d="M508.5,52.0,517.0,51.5" stroke="black" stroke-width="2" fill="none" />
<path d="M515.5,44.0,508.5,43.5,501.0,44.0" stroke="black" stroke-width="2" fill="none" />
<path d="M499.0,37.0,507.0,37.0,515.0,37.5" stroke="black" stroke-width="2" fill="none" />
<path d="M516.0,28.5,507.5,29.0,499.0,29.0,490.5,29.0" stroke="black" stroke-width="2" fill="none" />
<path d="M490.5,22.0,498.5,21.5,506.5,20.5,515.0,20.0" stroke="black" stroke-width="2" fill="none" />
<path d="M515.0,11.5,506.5,11.5,498.5,11.5,490.5,11.5,482.5,11.5" stroke="black" stroke-width="2" fill="none" />
<path d="M477.0,4.0,484.5,3.5,492.5,3.5,501.0,4.0,509.0,3.5,517.0,3.5" stroke="black" stroke-width="2" fill="none" />
<path d="M393.5,188.5,386.5,196.0,379.0,203.0,371.5,210.0,364.0,217.0,356.5,224.0,348.0,231.0,340.0,238.5,331.5,246.0,323.0,253.0,315.0,261.0,307.5,268.5" stroke="black" stroke-width="2" fill="none" />
<path d="M308.5,262.5,316.5,255.0,325.0,247.0,332.5,239.5,340.0,232.0,348.0,224.5,356.0,217.5,363.5,209.5,371.0,202.0,379.0,195.0,387.5,187.5" stroke="black" stroke-width="2" fill="none" />
<path d="M378.0,186.5,370.5,194.0,362.0,201.0,354.0,208.5,346.0,215.5,338.0,223.5,330.5,231.0,322.0,238.0,314.5,246.0,306.5,253.0,298.5,260.5" stroke="black" stroke-width="2" fill="none" />
<path d="M294.0,263.0,301.5,255.0,308.5,247.5,316.0,240.0,323.0,232.5,330.5,224.5,338.5,217.5,346.5,210.5,355.0,203.0,363.5,195.0,372.0,188.0" stroke="black" stroke-width="2" fill="none" />
<path d="M363.5,188.0,356.0,195.5,347.5,203.0,340.0,211.0,332.0,219.0,324.0,226.5,316.0,234.0,308.0,241.5,300.0,248.5,292.0,255.5,284.5,263.0" stroke="black" stroke-width="2" fill="none" />
<path d="M283.5,242.5,291.5,242.0,300.0,241.5,308.0,240.5,316.0,239.5,323.5,238.5" stroke="black" stroke-width="2" fill="none" />
<path d="M322.5,217.0,330.5,217.0,339.0,216.5" stroke="black" stroke-width="2" fill="none" />
<path d="M330.0,180.5,322.0,188.0,314.0,196.0,306.0,203.0,297.5,210.0,289.5,217.0,281.5,224.5,273.5,232.5,265.5,240.5,258.0,248.0,250.0,256.0,242.0,263.5" stroke="black" stroke-width="2" fill="none" />
<path d="M236.0,261.0,244.5,254.0,252.0,246.0,260.0,238.5,268.5,231.0,276.5,223.5,285.0,216.0,292.5,208.5,300.0,200.5,307.5,193.0,315.0,186.0,323.5,179.0" stroke="black" stroke-width="2" fill="none" />
<path d="M315.0,180.0,307.5,187.5,300.0,195.0,291.5,202.0,283.0,210.0,275.0,217.5,267.0,225.0,259.0,231.5,251.0,239.0,243.5,246.5,235.5,254.5,227.0,262.0" stroke="black" stroke-width="2" fill="none" />
<path d="M218.5,261.0,226.0,253.5,234.0,246.0,242.0,238.0,250.0,230.0,258.5,222.5,267.0,214.5,275.5,207.0,283.5,199.5,291.5,192.0,299.0,184.5,307.0,177.5" stroke="black" stroke-width="2" fill="none" />
<path d="M299.0,181.0,291.0,188.0,283.0,195.5,275.0,203.0,267.0,210.5,259.0,218.0,251.5,225.5,243.5,232.5,235.5,240.0,228.0,247.0,220.0,255.0,211.5,262.0,203.0,270.0,194.5,277.5,186.5,284.5,178.5,291.5,171.0,299.5,164.0,307.0" stroke="black" stroke-width="2" fill="none" />
<path d="M161.5,304.0,169.5,303.5,177.5,303.0,185.5,302.5" stroke="black" stroke-width="2" fill="none" />
<path d="M187.0,305.5,194.5,298.5,202.5,291.0,210.5,283.5,218.0,275.5" stroke="black" stroke-width="2" fill="none" />
<path d="M211.5,277.0,203.5,284.5,195.5,292.0,187.5,299.0,179.0,305.5" stroke="black" stroke-width="2" fill="none" />
<path d="M181.0,299.0,188.5,298.0,196.5,297.5,204.0,296.5,212.5,296.0,221.0,295.5,229.0,294.5,237.0,294.0,245.0,293.5,253.0,293.0,261.0,293.0,268.5,292.5,276.5,291.0,284.0,290.0,292.5,289.5,300.0,288.5,308.0,288.5,316.0,288.5,324.0,289.0" stroke="black" stroke-width="2" fill="none" />
<path d="M332.0,231.0,324.0,231.5,316.0,231.5,308.0,231.5,300.0,232.0" stroke="black" stroke-width="2" fill="none" />
<path d="M300.5,225.0,309.5,224.5,317.5,224.0,325.5,223.5,333.0,223.0,341.0,223.0" stroke="black" stroke-width="2" fill="none" />
<path d="M289.5,181.0,281.5,188.5,274.0,196.0,266.5,203.5,260.0,211.0,253.0,218.5,245.5,226.5,238.0,234.0,230.0,241.0,222.0,248.5,214.0,256.0,206.0,263.5,197.5,270.5,189.5,277.5,181.5,284.5,173.0,292.0,165.5,298.5,157.5,306.0" stroke="black" stroke-width="2" fill="none" />
<path d="M153.5,301.5,145.5,309.0,138.0,316.0,130.5,323.5" stroke="black" stroke-width="2" fill="none" />
<path d="M123.5,323.0,132.0,315.5,140.0,308.0" stroke="black" stroke-width="2" fill="none" />
<path d="M146.0,306.5,153.5,299.5,162.0,292.0,170.5,284.0,179.0,276.5,187.0,269.0,195.0,261.5,202.5,254.0,210.5,247.0,218.0,240.0,226.0,233.0,234.5,225.5,242.0,218.5,250.5,211.0,258.5,203.5,267.0,195.5,274.5,188.0,282.0,180.0" stroke="black" stroke-width="2" fill="none" />
<path d="M275.5,180.5,268.0,188.0,260.0,195.5,251.5,202.5,243.5,210.0,235.5,217.5,227.5,224.5,219.5,232.0,211.5,239.5,203.5,248.0,195.5,256.0,187.5,263.0,179.0,270.5,171.0,278.0,163.5,285.0" stroke="black" stroke-width="2" fill="none" />
<path d="M146.5,285.5,154.0,277.5,162.0,270.0,170.0,262.5,178.5,255.0,186.5,247.5,194.0,240.0,201.5,232.5,209.5,224.5,217.5,217.0,225.5,209.0,234.0,201.0,242.5,193.5,250.5,186.0,259.0,178.5" stroke="black" stroke-width="2" fill="none" />
<path d="M253.0,178.0,244.5,185.5,236.5,193.5,228.5,202.0,221.0,210.0,213.0,217.5,204.5,225.5,195.5,233.0,186.5,240.5,178.0,248.0,170.0,256.0,162.0,263.0,154.5,270.0,147.0,277.5,139.5,285.0" stroke="black" stroke-width="2" fill="none" />
<path d="M139.0,290.5,147.5,290.0,156.0,289.0,164.0,288.0,172.5,287.0,180.5,286.5,189.0,285.5,196.5,285.5,204.5,285.0,213.0,284.0,221.5,283.5,229.0,283.5,237.0,283.0,245.0,282.5,253.5,282.0,261.0,281.5,269.0,281.5" stroke="black" stroke-width="2" fill="none" />
<path d="M257.5,306.5,270.5,314.5,288.0,322.5,304.5,330.5" stroke="black" stroke-width="2" fill="none" />
<path d="M332.5,304.0,325.0,304.5,317.0,305.0,309.0,306.5,301.0,307.5,293.0,308.5,285.0,309.0,276.5,310.0,267.5,310.0,259.0,310.5,251.0,310.5,243.0,311.0,235.0,311.5,227.0,312.5,219.0,313.5,211.0,314.5,203.0,315.0,195.0,315.0,188.0,315.0,180.5,315.5,172.5,315.5,164.5,316.5,157.0,317.0,149.0,317.5,140.5,318.5,131.5,319.0,123.5,319.5,115.0,320.0,107.0,320.0,99.0,320.0,91.5,320.0,83.5,320.5,75.5,321.0,67.5,321.5,59.0,321.5,51.0,321.5,42.5,322.0,34.5,322.5,27.0,323.0,19.0,323.5,10.5,323.5,2.5,324.0" stroke="black" stroke-width="2" fill="none" />
<path d="M3.5,318.0,12.0,317.5,19.5,316.5,27.5,316.0,36.0,316.0,44.0,315.5,52.5,315.0,60.5,314.0,69.0,313.5,77.5,314.0,85.5,313.5,93.5,313.0,101.5,312.0,109.0,311.0,116.5,310.5,124.5,309.5,132.5,309.5,140.5,309.0,148.5,308.5,157.0,308.0,165.5,308.0,173.5,307.5,180.5,307.0,188.0,306.5,195.5,305.5,202.5,305.5,210.0,305.0,218.0,304.5,226.0,304.0,233.5,303.5,241.5,302.5,250.0,302.0,258.5,301.0,267.0,301.0,274.5,300.5,283.5,300.0,291.5,299.5,300.0,299.5" stroke="black" stroke-width="2" fill="none" />
<path d="M313.5,327.0,315.5,319.0,312.5,313.5,304.5,312.5,296.5,311.5,288.5,310.5,280.5,309.5,272.0,308.5,264.0,307.0,256.0,307.5" stroke="black" stroke-width="2" fill="none" />
<path d="M222.0,308.0,230.0,311.0,238.5,315.0,246.5,319.0,254.5,323.0,262.5,327.0,271.0,330.5,279.5,334.5,287.5,339.0,295.5,343.5,303.0,347.5,311.0,352.5,319.0,356.5,327.5,360.0,335.5,364.0,344.0,368.0,351.5,372.5,359.5,376.5,367.5,382.0,375.0,386.0" stroke="black" stroke-width="2" fill="none" />
<path d="M325.0,244.0,317.0,243.5,309.0,243.5,300.5,243.5,292.0,244.0,284.5,244.5,276.5,245.0,268.5,246.0,260.0,247.0,251.5,247.5,243.5,248.0,235.5,249.0,227.0,250.0,219.0,250.5,211.0,251.5" stroke="black" stroke-width="2" fill="none" />
<path d="M205.0,259.0,213.0,258.5,220.5,258.0,227.5,257.5,235.0,257.0,242.5,256.0,250.5,256.0,258.5,255.5,266.5,255.0,274.5,254.5,282.0,253.5,290.0,253.0,298.0,253.0,306.0,252.5" stroke="black" stroke-width="2" fill="none" />
<path d="M233.5,277.0,225.5,284.5,218.0,291.5,210.5,299.0" stroke="black" stroke-width="2" fill="none" />
<path d="M195.5,304.5,203.5,297.0,211.5,289.0,219.0,281.0,227.0,273.5" stroke="black" stroke-width="2" fill="none" />
<path d="M189.0,253.5,197.0,246.0,205.0,239.0,212.5,231.0,220.0,223.5,227.5,216.0,235.0,209.0,242.5,201.5,250.5,194.5,259.0,188.0,267.0,181.0" stroke="black" stroke-width="2" fill="none" />
<path d="M243.5,179.5,236.0,186.5,228.0,194.0,220.0,201.5,212.5,208.5,204.5,216.0,196.5,223.5,188.0,231.5,180.0,239.5,171.5,247.5,163.0,255.0,155.5,262.5,148.0,270.0,139.5,277.0,131.0,285.0" stroke="black" stroke-width="2" fill="none" />
<path d="M124.0,288.0,125.0,296.5,128.0,304.5,131.0,308.0,138.5,305.5,146.5,304.0,155.0,302.0,163.0,300.0,171.5,298.0" stroke="black" stroke-width="2" fill="none" />
<path d="M155.0,289.5,162.5,282.5,170.5,275.5,178.0,268.5" stroke="black" stroke-width="2" fill="none" />
<path d="M179.5,262.5,187.0,263.5" stroke="black" stroke-width="2" fill="none" />
<path d="M189.5,241.0,197.0,240.5,205.0,239.5,212.5,238.5,220.5,237.5,228.5,236.5,236.0,236.0,244.0,235.5,252.0,235.0,260.0,234.5,268.0,234.0" stroke="black" stroke-width="2" fill="none" />
<path d="M243.5,171.5,235.5,179.0,228.0,187.0,219.5,195.0,211.5,202.5,203.0,209.5,194.5,217.0,186.0,224.5,177.5,231.5,169.0,238.5,161.0,246.0,153.0,253.5,145.5,261.0,137.5,269.0,129.0,276.5,121.0,284.0,113.5,291.5" stroke="black" stroke-width="2" fill="none" />
<path d="M110.5,289.0,113.5,297.0,115.5,305.0" stroke="black" stroke-width="2" fill="none" />
<path d="M113.5,307.5,121.5,300.0" stroke="black" stroke-width="2" fill="none" />
<path d="M122.5,295.5,114.5,295.5" stroke="black" stroke-width="2" fill="none" />
<path d="M122.0,291.0,130.5,290.0,138.5,290.5,146.5,291.5,154.5,293.0,163.0,295.0,171.0,296.0" stroke="black" stroke-width="2" fill="none" />
<path d="M157.0,312.5,149.0,312.5,141.0,313.0,133.5,313.0,125.5,313.0" stroke="black" stroke-width="2" fill="none" />
<path d="M132.0,308.0,123.5,315.0,115.5,322.5" stroke="black" stroke-width="2" fill="none" />
<path d="M108.5,313.0,101.0,321.0,93.0,328.5" stroke="black" stroke-width="2" fill="none" />
<path d="M99.0,328.5,107.0,321.5,115.0,314.5,122.5,307.5,130.5,300.0" stroke="black" stroke-width="2" fill="none" />
<path d="M114.5,283.0,122.5,276.0,130.0,268.0,138.0,260.5,145.5,252.5,153.5,245.0,161.5,237.5,169.0,230.5,177.5,223.5,186.0,217.0,194.0,210.5,202.5,203.0,210.5,195.0,218.5,187.5,227.0,180.0,235.0,172.5" stroke="black" stroke-width="2" fill="none" />
<path d="M227.5,171.0,219.5,179.0,211.5,186.5,203.0,194.0,194.5,201.0,186.5,208.5,178.5,216.0,170.5,223.5,162.0,231.0,154.5,238.0,147.0,245.5,138.5,253.5,130.0,261.0,122.0,269.0,114.0,276.5,106.5,284.5,98.0,291.5,90.5,298.5,82.5,306.0,75.5,314.0,67.5,321.5,59.5,329.0" stroke="black" stroke-width="2" fill="none" />
<path d="M60.0,332.0,68.0,331.5,76.0,330.5,83.5,329.5,91.5,329.0,99.5,328.0" stroke="black" stroke-width="2" fill="none" />
<path d="M99.5,321.5,107.0,321.0,114.5,320.5,122.5,320.5" stroke="black" stroke-width="2" fill="none" />
<path d="M99.5,314.5,92.0,322.0,84.0,330.0,76.5,337.5,69.0,345.5,61.5,353.0" stroke="black" stroke-width="2" fill="none" />
<path d="M60.5,348.0,69.0,340.0,77.0,332.0,85.0,324.5,93.0,316.5" stroke="black" stroke-width="2" fill="none" />
<path d="M90.0,315.5,98.5,313.5,106.5,312.0,115.0,311.0" stroke="black" stroke-width="2" fill="none" />
<path d="M101.5,297.5,93.5,298.0" stroke="black" stroke-width="2" fill="none" />
<path d="M99.0,290.0,107.5,289.5,115.5,288.5,123.5,288.0" stroke="black" stroke-width="2" fill="none" />
<path d="M108.0,288.0,103.0,296.0,97.5,304.0,92.0,312.0,91.5,311.5,99.5,301.0,108.0,290.0,116.5,304.5" stroke="black" stroke-width="2" fill="none" />
<path d="M90.5,277.5,99.5,270.5,107.0,263.5,114.5,256.5,122.5,249.0,130.5,241.5,139.5,233.5,147.5,226.0,156.5,218.5,164.0,211.0,171.5,203.5,179.0,195.5,187.0,187.5,195.0,180.0,203.0,172.0" stroke="black" stroke-width="2" fill="none" />
<path d="M210.5,172.5,203.0,180.0,195.5,188.0,187.5,195.5,179.5,202.5,171.0,209.5,163.0,217.0,155.5,225.0,147.5,232.5,140.0,240.0,131.5,247.5,124.0,255.0,116.0,262.5,107.5,269.5,99.5,277.0,91.5,284.5,83.5,291.5,75.5,299.0,67.5,306.5,59.5,315.0" stroke="black" stroke-width="2" fill="none" />
<path d="M60.5,315.5,69.0,308.5,77.0,301.0" stroke="black" stroke-width="2" fill="none" />
<path d="M77.0,293.0,68.5,301.0,60.5,308.5,52.5,316.0" stroke="black" stroke-width="2" fill="none" />
<path d="M61.0,315.5,68.5,315.0,76.5,314.0,84.0,313.0,91.5,312.0" stroke="black" stroke-width="2" fill="none" />
<path d="M92.5,321.0,85.0,322.0,77.0,322.5,69.5,323.5,61.5,323.5" stroke="black" stroke-width="2" fill="none" />
<path d="M59.0,322.5,67.5,315.0,75.5,307.5,83.5,300.0,91.0,292.5,98.5,285.0,107.0,277.5,115.0,270.0,123.0,262.0,131.0,254.0,139.0,246.5,147.0,238.5,154.5,231.5,162.5,224.5,170.5,217.0,178.0,210.0,186.5,203.0,195.0,196.0,203.0,188.5,211.5,181.5,219.5,174.0" stroke="black" stroke-width="2" fill="none" />
<path d="M218.5,179.5,202.5,187.5,187.5,195.0,170.5,203.0,155.0,211.0,139.0,219.0,122.5,227.0,106.0,234.5,100.5,237.5,108.5,233.5,116.5,229.5,124.5,225.5,133.0,222.0,141.0,218.0,149.0,214.0,157.0,209.5,165.0,204.5,173.0,201.5,181.0,196.5,188.5,193.5,196.5,189.5,204.5,185.0,213.0,181.0,221.0,180.0,229.5,180.0,237.0,181.0,245.5,180.5,253.5,181.5,261.5,181.5,269.0,182.5,277.0,182.5,285.5,183.5,293.5,183.5,301.5,185.0,309.5,185.5,317.5,186.5,325.0,187.5,333.0,187.0,341.0,188.0,349.0,188.0,356.5,189.0,364.5,189.0,373.0,190.0,381.0,190.0,389.0,191.5,397.0,192.5,405.0,192.5,412.5,193.5,420.5,194.0,428.5,194.0,436.0,195.0" stroke="black" stroke-width="2" fill="none" />
<path d="M445.0,164.5,436.5,164.5,428.5,164.5,420.5,165.0,413.0,165.5,404.5,166.0,396.5,167.0,388.0,168.5,380.0,169.0,372.0,170.0,363.5,170.0,355.5,170.5,347.0,171.0,338.5,171.0,330.0,171.5,322.0,172.0,314.5,172.5,307.0,173.5,299.0,174.0,291.0,174.5,283.0,175.0,275.5,175.0,267.0,175.5,258.5,176.0,250.5,176.0,243.0,176.5,235.5,177.5,227.5,178.0,219.5,179.0,212.0,179.5,204.0,180.0,196.0,179.5,188.0,179.5,180.0,180.0,171.5,180.5" stroke="black" stroke-width="2" fill="none" />
<path d="M170.5,188.0,162.5,195.5,154.5,203.0,146.5,211.0,139.0,219.0,131.0,226.5,123.0,233.5,115.5,240.5,107.5,247.5,99.5,255.0,91.5,262.5,83.5,270.0,76.0,277.0,68.0,285.0,59.5,293.0,51.5,300.5" stroke="black" stroke-width="2" fill="none" />
<path d="M53.0,296.5,61.5,296.0,69.5,296.0,77.0,295.5" stroke="black" stroke-width="2" fill="none" />
<path d="M76.0,288.0,68.5,288.0,61.0,288.5,52.5,288.5" stroke="black" stroke-width="2" fill="none" />
<path d="M51.5,293.5,59.5,285.5,67.5,277.5,75.5,269.5,83.5,262.0,91.0,255.0,98.5,248.0,106.5,241.5,114.5,234.0,122.5,227.0,130.5,219.5,138.0,212.0,145.5,205.0,153.5,197.5" stroke="black" stroke-width="2" fill="none" />
<path d="M146.5,196.5,138.0,204.0,130.5,210.5,122.5,217.5,114.5,224.5,107.0,231.5,99.0,239.0,91.0,246.5,82.5,254.0,75.0,262.0,67.0,269.5,58.5,277.0,50.5,284.5" stroke="black" stroke-width="2" fill="none" />
<path d="M49.5,280.0,57.5,279.5,65.5,279.5,74.0,279.5,82.5,279.5,90.5,279.5,98.5,279.0,107.0,279.0,114.5,278.5,122.0,278.0,130.0,277.0,138.0,277.0,146.5,276.5,155.0,276.5,163.0,276.5,171.0,276.0,179.5,275.0,187.5,274.0,196.0,273.0,204.5,272.5" stroke="black" stroke-width="2" fill="none" />
<path d="M163.5,238.5,156.0,239.5,148.5,240.0,140.5,241.0,132.5,241.0,124.5,241.5,116.0,241.5,108.0,241.5,100.5,241.5" stroke="black" stroke-width="2" fill="none" />
<path d="M105.0,247.0,113.0,247.0" stroke="black" stroke-width="2" fill="none" />
<path d="M115.5,248.0,123.0,248.0,131.0,247.5,139.0,247.5,147.0,247.0" stroke="black" stroke-width="2" fill="none" />
<path d="M128.5,251.0,136.5,251.0,144.0,253.0,154.0,253.5,161.5,254.0,176.0,256.0,183.5,256.0,191.5,256.5,199.5,257.5,207.5,258.0,216.0,258.5,226.5,261.0,235.0,260.5,243.0,261.5,251.0,262.5,259.5,264.0,267.5,264.0,276.0,265.5,284.0,267.0,292.0,268.0,300.5,269.0,308.0,270.0,316.0,271.5,324.0,271.5,332.0,272.5,340.0,275.0,346.5,277.5,355.0,275.5,363.0,276.0,371.0,277.0,379.0,276.0,387.0,265.0,395.5,254.0,403.0,243.0,411.0,232.0,419.0,221.0,427.0,210.5,435.5,199.5" stroke="black" stroke-width="2" fill="none" />
<path d="M420.5,228.5,412.5,229.0,404.0,229.5,396.5,230.0,388.5,230.0,380.5,230.0,373.0,230.5,364.5,230.5,356.5,230.5,349.0,230.5,340.5,230.5,332.0,231.0,324.0,231.0,316.0,231.5,308.0,232.0,300.0,232.5,292.0,233.0,284.5,233.5,276.5,234.5,268.5,235.5,261.0,236.5,253.0,237.5,245.5,238.0,237.0,238.5,228.5,239.0,220.0,239.5,211.5,240.5,203.0,241.5,195.0,242.0,187.5,243.0,179.0,243.5,170.5,244.5,162.5,245.0,155.0,245.5,147.0,246.0,139.0,246.5,131.5,247.0,124.0,247.0,116.0,247.5,108.0,248.5,100.5,248.5,92.5,248.5,84.0,248.5,76.0,249.5,68.0,250.0,59.5,250.0,51.5,250.0,43.5,250.0,36.0,250.5,28.0,250.5,20.0,251.0,13.0,251.5,5.0,252.0" stroke="black" stroke-width="2" fill="none" />
<path d="M4.5,244.5,12.5,244.0,21.0,244.0,29.5,243.5,37.5,243.5,45.5,243.0,53.0,242.5,61.0,242.0,68.5,241.5,76.5,241.0,84.5,240.5,92.5,240.0,100.0,240.5,108.0,240.0,116.0,239.5,124.5,239.0,132.0,239.0,139.0,238.5,146.5,237.5,154.0,237.0,162.0,236.5,170.0,236.0,179.0,235.5,187.5,234.5,195.5,233.5,204.5,232.5,212.0,232.0,220.0,231.0,228.5,231.0,236.5,230.5,244.5,230.0,252.0,229.5,260.5,229.0,269.0,228.5,277.5,228.0,285.0,227.5,293.5,226.5,302.0,225.5,310.0,225.0,317.5,224.5,325.5,224.0,333.5,223.0,341.5,223.0,349.0,222.5,356.5,222.5,364.0,222.5,372.0,222.0,380.0,221.5,388.5,221.0,396.5,221.0,404.0,220.5,412.5,220.0,420.5,219.5,428.5,219.0,436.0,218.5,443.5,218.0" stroke="black" stroke-width="2" fill="none" />
<path d="M452.5,233.0,449.5,235.0" stroke="black" stroke-width="2" fill="none" />
<path d="M464.5,238.5,472.0,220.5,480.0,204.5" stroke="black" stroke-width="2" fill="none" />
<path d="M236.0,185.0,228.5,185.5,220.5,185.5,212.0,186.0" stroke="black" stroke-width="2" fill="none" />
<path d="M197.5,194.5,205.0,194.0,213.0,193.0,220.5,192.0,228.0,191.5,235.5,190.5,243.0,190.5,251.5,190.0,259.5,189.5,267.5,189.5,275.0,189.0,283.0,188.0,291.0,187.5,298.5,187.0,306.0,187.0" stroke="black" stroke-width="2" fill="none" />
<path d="M308.0,193.5,300.5,193.5,293.0,193.5,285.5,194.0,277.5,194.0,269.5,195.0,261.5,195.5,254.0,196.0,246.0,196.5,237.5,197.5,229.0,198.5,221.5,199.0,213.0,199.5,204.5,200.0,196.0,200.5,188.5,201.0" stroke="black" stroke-width="2" fill="none" />
<path d="M173.0,211.5,181.0,211.0,188.5,210.5,196.0,209.5,203.5,208.5,212.0,208.0,220.0,207.0,228.0,206.5,236.0,205.5,244.5,205.0,252.5,204.0,260.0,204.0,268.0,203.5,275.5,203.5,283.5,203.5,291.5,203.0,299.0,203.0" stroke="black" stroke-width="2" fill="none" />
<path d="M187.0,180.5,179.0,188.0,170.5,195.0,162.0,202.5,154.0,210.5,146.0,218.0,138.5,225.5,131.0,233.0,123.5,240.5,115.5,248.0,107.5,255.5,99.5,263.0,91.5,270.5,83.5,277.5" stroke="black" stroke-width="2" fill="none" />
<path d="M76.0,281.5,84.0,282.5,92.0,284.0,88.5,290.0,82.5,298.0" stroke="black" stroke-width="2" fill="none" />
<path d="M90.5,288.0,82.0,297.5,78.0,297.5,76.0,289.5,76.0,282.0" stroke="black" stroke-width="2" fill="none" />
<path d="M77.0,261.5,84.5,263.0,93.0,264.5,101.5,264.5,109.5,265.0,117.5,266.0,125.5,266.5" stroke="black" stroke-width="2" fill="none" />
<path d="M147.5,272.0,155.5,271.0" stroke="black" stroke-width="2" fill="none" />
<path d="M141.0,228.0,148.5,227.5,155.5,226.5,163.5,226.0,171.5,225.0,179.5,224.0,187.5,223.5,195.5,222.5,204.0,221.5,212.5,220.5,220.0,219.5,228.0,219.0,236.0,218.5,243.5,218.0,251.0,217.0,259.0,216.5,267.0,216.0,275.5,216.0,283.5,216.0" stroke="black" stroke-width="2" fill="none" />
<path d="M316.5,165.5,309.0,165.5,301.0,166.0,293.0,166.0,284.5,166.5,276.5,167.0,268.5,168.0,260.0,168.0,252.0,168.5,244.0,169.5,236.5,170.5,228.0,171.0,220.0,172.0,212.5,172.0,204.5,172.0,196.0,172.5,188.0,172.5" stroke="black" stroke-width="2" fill="none" />
<path d="M146.5,190.0,155.0,189.5,163.5,188.5,171.5,188.0,180.0,187.5,188.5,186.5,197.0,185.5,205.5,184.5,213.5,184.0,221.0,184.0,229.0,183.5,236.5,183.0,244.5,183.5,252.0,183.5,260.0,183.5,268.5,183.5,276.0,183.0,284.0,183.0,292.5,182.5,301.0,181.5,309.0,180.5,317.0,180.0,325.0,180.0,332.5,179.0,340.5,178.0,348.5,177.5,356.5,176.5,364.5,175.5,372.0,174.0,379.5,173.5,387.0,173.0,395.0,172.5,403.0,172.0,411.5,172.0,419.5,171.5,427.5,171.5,436.0,171.0,444.5,170.0,453.0,169.5,462.0,169.5,470.5,169.0,477.5,168.5,485.0,168.0,492.5,167.0" stroke="black" stroke-width="2" fill="none" />
<path d="M299.5,208.5,291.5,209.0,283.5,209.0,276.0,209.5,267.5,210.0,259.5,211.0,252.0,212.0,244.0,212.5,236.5,213.0,228.0,214.0,219.5,214.0,211.0,214.0,203.0,214.0,195.0,214.0,187.0,215.0,179.0,215.5,170.5,216.5,162.5,217.0,154.5,218.0" stroke="black" stroke-width="2" fill="none" />
<path d="M129.5,202.0,121.5,209.0,113.5,216.5,105.5,224.5,98.5,232.0,90.5,239.5,83.5,247.0,76.0,255.0,68.5,263.0,61.0,271.0,53.5,278.0" stroke="black" stroke-width="2" fill="none" />
<path d="M51.5,273.5,59.5,273.0,67.0,273.0,75.0,273.0,83.0,273.0,91.5,272.5,99.5,272.0,108.5,271.5,117.0,270.5,125.0,270.0,132.5,269.5,140.5,268.5,148.5,268.5,156.0,268.0" stroke="black" stroke-width="2" fill="none" />
<path d="M114.5,232.0,122.5,231.5,131.0,232.0,139.0,232.0,147.5,232.0,156.0,232.0,164.0,231.5,172.0,231.0,180.0,230.0,187.5,229.5,195.5,229.0,204.0,229.0,212.5,228.5,220.5,228.0,228.5,227.5,236.5,227.0,244.0,225.5,252.0,225.0,259.5,224.0,267.0,224.0,275.0,223.5" stroke="black" stroke-width="2" fill="none" />
<path d="M132.0,198.0,140.5,197.5,148.5,197.0,157.0,196.5,165.0,196.0,172.5,195.0,180.5,194.0,188.5,193.5,196.5,192.5,204.0,191.5,212.0,191.0,220.0,190.5,228.0,190.5,236.0,190.5,244.0,190.0,251.5,189.5,260.0,189.0,268.5,188.5,276.5,188.0,284.5,188.0,292.5,187.5,300.0,187.0,308.0,186.5,315.5,186.0,323.5,185.5,332.0,185.0,339.5,184.0,347.0,182.5,354.5,181.0,362.5,180.5,370.5,180.0,379.0,180.0,386.5,180.0,394.5,179.5,402.5,179.0,410.5,179.0,419.0,178.5,427.0,178.5,435.5,179.0,443.5,178.5,451.5,178.0,460.0,177.5,468.0,177.0,476.5,176.5,485.0,176.0,493.0,175.0" stroke="black" stroke-width="2" fill="none" />
<path d="M116.0,212.5,108.0,220.0,99.5,227.5,91.5,234.5,83.0,242.0,75.0,249.0,67.0,256.5,59.5,264.5,51.5,272.0" stroke="black" stroke-width="2" fill="none" />
<path d="M53.5,266.5,61.5,266.0,69.5,265.0,77.0,264.0,84.5,263.5,92.5,262.5" stroke="black" stroke-width="2" fill="none" />
<path d="M84.5,228.0,76.5,235.5,68.5,243.0,60.0,251.0,52.0,259.0,44.0,266.5" stroke="black" stroke-width="2" fill="none" />
<path d="M44.5,273.5,53.0,266.5,61.0,258.5,69.5,251.0,77.5,244.0,85.5,236.5,93.5,229.0,102.0,221.5" stroke="black" stroke-width="2" fill="none" />
<path d="M93.0,213.0,100.5,212.5,108.0,212.5,115.5,212.5,122.5,212.0,130.0,211.0,138.5,210.5,146.5,210.0,154.5,209.0,162.5,208.5,171.0,208.0,179.0,207.5,187.0,207.5,195.0,207.5,204.0,207.0,212.5,206.5,221.0,206.0,229.5,205.5,237.5,205.0,246.5,204.0,254.5,203.5,262.5,203.0,270.0,203.0,278.0,203.0,286.0,202.5,293.5,201.5,301.5,201.0,308.5,200.5,316.5,200.0,324.5,199.5,332.5,198.5,340.5,198.0,348.0,197.5,355.5,197.0,364.0,197.5,372.0,197.5,380.0,197.5,387.5,197.0,395.5,196.5,403.5,195.5,412.0,194.5,419.5,194.0,427.5,193.5,435.0,193.0,443.0,192.5,451.0,192.0,459.0,191.5,466.5,190.5,474.5,189.5,482.5,189.5" stroke="black" stroke-width="2" fill="none" />
<path d="M484.0,182.0,475.5,183.0,467.5,183.5,460.0,184.0,452.0,184.5,443.5,185.0,434.5,185.5,427.0,186.5,419.0,187.5,411.5,188.0,404.0,188.5,396.5,189.0,388.5,189.0,380.5,189.0,372.5,189.5,365.0,189.5,357.0,190.0,349.0,190.5,340.5,191.0,332.5,192.0,324.0,192.5,316.0,193.5,308.5,194.5,300.5,194.5,293.0,195.0,285.5,196.0,277.5,196.5,270.0,197.0,262.0,197.0,254.0,197.5,245.5,198.0,237.0,198.0,228.5,198.5,220.5,199.0,212.0,199.5,203.5,200.0,196.0,200.0,188.0,201.0,180.0,201.5,172.0,202.5,164.0,203.5,156.0,203.5,147.5,204.0,138.5,204.5,130.0,205.0,122.0,205.0,113.5,206.0" stroke="black" stroke-width="2" fill="none" />
<path d="M75.0,220.0,83.0,220.0,91.0,219.5,99.0,219.5,107.5,219.5,116.0,219.0,123.5,219.0,131.0,218.5,138.5,218.0,146.5,217.5,154.5,217.0,163.0,216.5,171.5,215.5,179.5,215.0,188.0,214.5,196.5,213.5,205.0,212.5,213.5,211.5,221.5,211.0,229.0,211.0,237.0,210.5,244.5,210.0,252.5,210.5,260.0,210.5,268.0,210.5,276.5,210.5,284.0,210.0,292.0,210.0,300.5,209.5,309.0,208.5,317.0,207.5,325.0,207.0,333.0,207.0,340.5,206.0,348.5,205.0,356.5,204.5,364.5,203.5,372.5,202.5,380.0,201.0,387.5,200.5,395.0,200.0,403.0,199.5,411.0,199.0,419.5,199.0,427.5,198.5,435.5,198.5,444.0,198.0,452.5,197.0,461.0,196.5,470.0,196.5,478.5,196.0" stroke="black" stroke-width="2" fill="none" />
<path d="M475.0,204.0,467.5,204.5,459.5,205.0,452.0,205.5,443.5,206.5,435.5,207.5,427.5,208.0,420.0,208.5,412.0,208.5,404.0,208.5,395.5,208.0,388.0,208.5,380.5,209.0,372.5,209.5,364.5,210.5,356.5,211.0,348.5,211.5,341.5,212.0,333.5,212.5,326.0,213.5,318.0,214.0,310.0,214.0,302.5,214.0,294.5,214.5,286.5,215.0,277.5,216.0,269.5,216.5,261.0,217.0,252.5,217.5,244.0,218.0,235.0,218.5,227.0,218.5,219.0,218.5,211.0,219.0,202.5,219.5,194.5,220.0,186.5,221.0,178.5,221.5,170.0,222.0,162.5,223.0,155.5,223.5,148.0,223.5,140.5,223.5,133.0,224.0,124.5,224.5,116.0,225.5,107.5,226.5,99.5,227.0,92.0,227.5,84.5,228.0,76.5,228.0,68.5,228.0,60.5,228.5,52.5,229.0" stroke="black" stroke-width="2" fill="none" />
<path d="M60.5,234.0,52.0,241.0,43.5,248.5,35.5,256.5" stroke="black" stroke-width="2" fill="none" />
<path d="M28.5,258.0,36.5,257.5,44.5,257.5" stroke="black" stroke-width="2" fill="none" />
<path d="M44.0,257.5,52.0,250.0,60.5,242.0,68.5,234.5" stroke="black" stroke-width="2" fill="none" />
<path d="M42.5,242.0,34.5,249.5,27.0,256.5" stroke="black" stroke-width="2" fill="none" />
<path d="M21.5,253.0,29.5,246.5,37.0,243.5,45.0,239.5,53.0,236.5,61.0,232.0,69.0,228.5,77.5,225.5,85.5,221.5,94.0,218.0,102.0,214.5,110.0,211.0,117.5,208.0,125.5,204.0,133.5,200.5,141.5,197.5,149.5,194.0,157.5,190.0,165.5,187.0,174.0,183.5,181.5,180.0,190.0,176.0,198.0,172.5,206.0,170.5,213.5,170.5,222.0,170.5,230.0,171.5,238.0,171.5,246.0,173.0,254.0,173.5,262.5,174.5,270.0,174.0,278.0,175.0,286.0,174.5,293.5,175.0,301.0,175.0,309.0,175.5,317.5,175.5,325.5,176.5,333.5,176.5,341.5,177.5,349.5,177.5,357.0,178.5,365.0,178.5,372.5,179.5,380.5,179.5,388.5,181.0,397.0,181.0,405.0,182.5,413.0,182.5,421.5,183.5,429.5,184.5,437.5,184.5,445.5,185.0,453.5,184.5,462.0,185.5,469.5,186.0,477.5,187.0,485.5,190.5,486.0,195.5,481.5,204.0,477.5,211.5,473.0,219.5,469.0,227.5,465.0,236.0,460.0,244.0,457.0,251.5,452.0,259.0,448.5,266.5,443.5,274.0,442.5,282.0,441.5,290.0,443.5,298.5,442.5,306.5,443.0,315.0,442.5,323.5,442.5,331.5,441.5,339.5,442.0,347.5,441.5,356.0,440.0,364.0,440.0,372.0,439.0,380.0,439.0,388.5,437.5,396.5,436.5,404.5" stroke="black" stroke-width="2" fill="none" />
<path d="M268.0,429.5,260.5,429.5,252.5,429.0,245.0,429.5,237.0,430.0,229.5,430.0,221.5,430.5,213.0,431.5,204.5,432.5,196.0,433.5,187.5,434.0,179.5,434.5,171.0,435.5,162.5,436.0,154.5,436.5,146.5,437.0,139.0,437.5,131.5,438.0,124.0,438.0,115.5,438.5,107.0,438.5,99.0,438.5,91.0,439.0,83.0,439.0,75.5,440.0,68.0,440.0,60.0,441.0,52.0,442.0,44.0,443.0,35.5,443.5,27.0,443.0,18.5,443.0,10.0,444.0,2.0,445.0" stroke="black" stroke-width="2" fill="none" />
<path d="M1.5,452.5,9.5,451.5,18.0,451.5,26.5,451.0,34.5,451.0,42.5,450.0,50.5,449.5,58.5,449.0,66.5,449.0,74.5,448.5,82.5,448.0,91.0,447.5,99.5,447.0,108.0,446.0,116.0,445.5,123.5,445.0,131.5,444.5,139.5,444.0,147.0,444.0,154.5,444.0,162.5,444.0,170.5,443.0,178.5,442.5,187.0,441.5,195.0,441.0,203.0,440.0,211.0,440.0,219.0,440.0,227.5,440.0,236.0,440.0,244.5,439.0,252.0,438.5,260.0,438.0" stroke="black" stroke-width="2" fill="none" />
<path d="M259.0,453.5,250.5,454.0,242.5,454.0,235.0,454.5,227.5,455.5,219.5,456.0,211.5,457.0,204.0,457.5,196.0,458.0,188.0,457.5,180.0,457.5,172.0,458.0,163.5,458.5,155.5,459.0,148.0,459.5,140.0,460.0,132.0,461.0,123.5,461.5,116.0,462.5,107.5,463.0,99.0,463.0,90.5,463.5,82.5,463.5,75.0,464.0,67.0,464.5,59.5,465.0,51.5,466.0,43.5,466.0,35.5,467.0,27.5,467.5,19.0,468.0,10.5,468.5,2.5,468.5" stroke="black" stroke-width="2" fill="none" />
<path d="M1.0,462.5,9.0,462.0,17.0,460.5,25.0,459.5,33.5,457.5,42.0,457.0,49.5,456.0,58.0,455.5,66.0,455.0,74.5,454.5,82.5,454.5,90.5,453.5,98.5,453.0,106.5,452.0,114.0,451.5,121.5,451.0,130.0,450.5,138.5,450.5,146.5,450.5,154.0,450.5,161.5,450.0,169.5,449.5,177.5,449.0,185.5,448.5,193.5,448.0,201.5,448.0,209.5,448.0,217.5,448.0,225.5,447.5,234.0,447.0,242.0,446.5,250.0,446.0,257.5,445.0" stroke="black" stroke-width="2" fill="none" />
<path d="M277.5,420.0,269.0,420.5,261.0,421.0,253.0,421.5,245.5,421.5,237.0,422.0,228.5,423.0,220.5,423.5,213.0,423.5,204.5,424.5,196.5,425.0,188.0,426.0,180.0,427.0,171.5,428.0,163.0,428.5,155.0,429.0,148.0,429.5,140.5,430.0,132.5,430.0,125.0,430.0,116.5,430.5,108.0,431.0,99.5,432.0,91.5,432.5,83.5,433.0,76.0,433.5,68.0,433.5,60.0,433.5,51.5,434.0,43.0,435.0,35.0,435.0,26.5,435.5,18.5,436.0,10.0,436.5,1.5,437.0" stroke="black" stroke-width="2" fill="none" />
<path d="M4.0,430.0,11.5,430.0,19.0,429.5,26.5,428.5,34.5,427.5,43.0,427.0,51.0,427.0,59.5,426.5,68.0,426.0,76.0,425.5,84.5,424.5,92.0,424.5,100.0,424.0,107.5,423.5,115.5,423.5,123.0,423.0,131.5,423.0,139.5,423.0,148.0,423.0,156.5,422.5,165.0,422.0,172.5,421.5,179.5,420.5,187.5,420.0,195.5,419.0,203.5,418.0,211.5,417.5,219.5,416.5,228.0,415.5,236.5,414.5,244.0,413.5,252.0,413.0,260.0,412.5,267.5,412.0,275.0,411.0,283.0,410.5" stroke="black" stroke-width="2" fill="none" />
<path d="M316.5,386.5,308.5,386.5,300.5,386.5,292.5,386.5,285.0,387.0,276.5,388.0,268.5,388.5,260.5,389.5,252.5,390.0,245.0,391.0,236.5,391.5,229.0,392.0,220.5,392.0,212.5,392.5,204.0,392.5,195.5,393.0,187.0,393.5,178.5,393.5,170.5,393.5,162.5,393.5,155.0,394.5,146.5,395.5,138.5,397.0,130.5,398.5,122.5,399.0,114.0,399.5,106.5,399.5,99.0,400.0,91.5,400.5,84.0,401.5,76.0,402.0,67.5,402.5,59.5,403.0,51.0,404.0,43.0,404.0,35.0,405.0,26.5,405.0,18.5,405.5,10.0,406.0,2.0,407.0" stroke="black" stroke-width="2" fill="none" />
<path d="M4.5,351.5,12.5,350.5,21.0,350.5,29.5,350.0,37.5,349.0,45.5,348.5,53.5,347.5,61.5,346.5,69.0,345.5,77.0,344.0,85.0,343.5,93.5,343.0,101.5,343.0,109.0,342.5,117.0,341.5,125.0,341.5,132.5,341.0,141.0,341.0,149.0,341.0,157.5,341.0,165.5,340.5,173.5,340.0,181.5,339.5,190.0,339.0,197.5,339.0,206.0,339.0,213.5,338.5,221.0,338.5,228.5,338.0,236.0,337.0,244.0,336.5,252.0,336.0,259.5,335.0,267.5,334.0,276.0,333.0,283.5,331.5,291.5,330.5,299.0,330.0,307.0,329.0,315.5,328.5,323.5,328.0,331.5,328.0,340.0,328.0,348.5,327.0,357.0,326.0,365.0,325.5,373.0,325.5" stroke="black" stroke-width="2" fill="none" />
<path d="M395.5,237.0,387.0,238.0,378.5,239.0,370.5,239.5,362.0,240.0,354.0,240.0,346.5,240.0,339.0,240.5,331.0,241.0,323.0,242.0,315.5,242.5,307.5,242.5,299.5,243.0,291.0,243.5,283.5,243.5,276.0,244.5,268.5,245.0,261.0,246.0,253.0,247.0,245.5,247.5,237.5,248.0,229.0,248.0,221.0,248.0,212.5,248.0,204.5,248.0,196.0,249.0,187.5,250.0,179.0,251.0,171.5,251.5,163.5,252.5,155.5,253.0,147.5,253.5,139.5,254.0,131.5,254.5,124.0,255.5,116.0,255.5,108.5,256.5,100.5,257.0,92.5,257.5,84.5,258.0,76.5,258.5,68.5,259.0,60.0,259.0,52.0,259.0,44.5,259.0,36.0,259.0,27.5,259.0,19.5,259.5,11.5,260.5,3.5,261.5" stroke="black" stroke-width="2" fill="none" />
<path d="M5.5,235.5,13.5,235.0,21.5,235.0,29.5,235.5,38.0,235.5,46.5,235.0,54.0,235.0,61.5,234.5,69.5,234.0,77.0,234.0,85.0,233.5,93.0,233.0,101.0,232.0,109.0,232.0,117.0,232.0,124.5,232.0,131.5,231.5,139.0,231.0,146.5,230.5,154.5,230.0,162.5,229.0,170.5,228.5,178.5,227.5,187.0,226.5,195.5,226.0,203.5,225.0,212.5,224.0,221.0,223.5,229.0,222.5,236.5,222.0,244.0,221.5,252.0,221.5,260.5,221.0,268.5,221.0,276.0,221.0,284.0,220.0,292.5,219.5,300.0,218.5,308.0,217.5,316.0,217.0,324.5,217.0,332.5,216.0,340.5,215.5,349.0,215.0,357.0,215.0,365.0,214.5,372.5,214.5,379.5,214.5,387.0,214.5,395.0,214.0,403.5,213.0,411.5,212.5,419.0,212.0,426.5,212.0,434.0,212.0,441.5,211.5,449.5,211.0,457.0,210.5,465.0,210.0" stroke="black" stroke-width="2" fill="none" />
<path d="M388.5,574.0,393.5,576.5,393.5,585.0,390.5,593.0" stroke="black" stroke-width="2" fill="none" />
<path d="M396.0,586.0,388.0,586.5,380.5,586.5,373.0,586.5,365.5,587.0,357.5,587.0,349.5,588.0" stroke="black" stroke-width="2" fill="none" />
<path d="M352.0,591.0,360.0,589.5,368.0,593.5,376.0,596.5,384.0,599.0" stroke="black" stroke-width="2" fill="none" />
<path d="M396.5,578.5,389.0,578.5,381.0,579.0,373.0,579.0,364.5,579.5,356.5,580.0,348.5,581.0" stroke="black" stroke-width="2" fill="none" />
<path d="M345.0,580.0,353.0,582.0,361.0,582.0,368.5,579.0" stroke="black" stroke-width="2" fill="none" />
<path d="M82.5,336.5,75.0,337.5,67.0,338.0,59.0,339.0" stroke="black" stroke-width="2" fill="none" />
<path d="M86.5,331.0,80.5,339.0,82.5,348.5,84.5,356.5,88.5,364.5,85.5,372.5,86.5,380.5,88.0,388.5,89.0,397.0,91.0,405.0,92.0,413.0,93.0,421.0,94.0,429.5,96.0,438.0,97.0,446.0,98.0,454.0,99.0,462.0,100.5,470.0,102.0,478.0,104.0,485.5,105.0,493.5,110.0,501.5,110.5,510.5" stroke="black" stroke-width="2" fill="none" />
<path d="M99.5,304.0,91.5,305.0,83.5,305.5,75.5,306.5,67.5,307.5,59.5,308.0" stroke="black" stroke-width="2" fill="none" />
<path d="M45.0,226.0,37.0,226.5,28.5,227.0,20.5,228.0,12.0,228.5,4.0,229.5" stroke="black" stroke-width="2" fill="none" />
<path d="M4.0,222.5,12.0,222.5,21.0,222.5,29.0,222.0,36.5,221.5" stroke="black" stroke-width="2" fill="none" />
<path d="M29.5,212.0,22.0,212.5,14.0,213.5,5.5,214.0" stroke="black" stroke-width="2" fill="none" />
<path d="M5.0,204.5,13.0,204.0" stroke="black" stroke-width="2" fill="none" />
</svg>