<svg xmlns="http://www.w3.org/2000/svg" version="1.1"><path d="M421.0,133.5,420.0,141.5,420.0,149.5,415.0,158.0,412.5,166.0" stroke="black" stroke-width="2" fill="none" />
<path d="M411.5,164.0,403.5,171.5,395.5,178.5,387.5,186.0,379.0,193.5,371.0,201.0,363.5,208.5,356.5,215.5,348.5,223.0,340.5,230.5,333.0,238.0,324.5,245.5,316.5,253.0,308.5,260.5,301.0,268.5,292.5,276.5,285.0,283.5,276.5,291.0" stroke="black" stroke-width="2" fill="none" />
<path d="M284.0,288.5,292.0,288.0,300.0,288.0,307.5,288.0,315.0,288.0,322.5,288.0,330.5,287.5,338.5,286.5,346.5,286.0,354.5,284.5,362.5,284.0,371.0,284.0" stroke="black" stroke-width="2" fill="none" />
<path d="M372.0,291.0,363.0,291.0,355.0,291.5,347.0,292.0,339.0,293.0,331.5,293.5,323.5,294.0,315.5,294.5,307.5,295.0,299.5,295.5" stroke="black" stroke-width="2" fill="none" />
<path d="M297.5,304.0,305.0,305.0" stroke="black" stroke-width="2" fill="none" />
<path d="M315.0,306.5,323.5,306.0,332.0,305.0" stroke="black" stroke-width="2" fill="none" />
<path d="M325.0,314.0,317.0,314.5" stroke="black" stroke-width="2" fill="none" />
<path d="M319.5,311.0,311.5,311.0,303.5,307.5,292.0,304.5,284.5,307.0" stroke="black" stroke-width="2" fill="none" />
<path d="M284.0,307.0,291.5,299.5,299.5,291.5,308.0,283.5,316.5,275.5,324.5,267.5,332.0,259.5,340.5,252.5,349.0,245.5,357.5,238.5,365.5,231.5,373.5,224.0,381.0,216.5,388.5,209.0,396.5,201.5,403.5,194.0,411.5,187.0" stroke="black" stroke-width="2" fill="none" />
<path d="M418.0,187.0,410.0,194.0,402.5,202.0,394.5,209.5,386.5,217.5,378.5,225.5,370.5,233.0,363.0,240.5,355.5,248.0,347.5,255.0,339.5,262.0,331.5,269.5,324.0,277.0,316.5,284.5,309.0,292.5,301.0,300.0,293.0,307.5,285.0,315.0,276.5,322.5,268.5,330.5,260.5,337.5,252.0,345.0" stroke="black" stroke-width="2" fill="none" />
<path d="M252.5,345.5,261.0,338.0,269.0,331.0,277.5,323.5" stroke="black" stroke-width="2" fill="none" />
<path d="M268.5,315.5,260.5,322.5,252.5,329.5" stroke="black" stroke-width="2" fill="none" />
<path d="M250.5,329.0,259.0,321.5,268.0,314.0,276.0,306.5,284.5,299.0,292.5,291.5,301.0,283.5,309.5,275.0,317.5,267.5,326.0,260.0,334.5,252.5,342.0,245.5,349.5,238.0,357.5,231.0,365.5,224.0,373.0,216.5,381.0,209.0,389.0,202.0,396.0,194.5,403.0,186.5,411.0,178.5" stroke="black" stroke-width="2" fill="none" />
<path d="M413.0,178.0,412.0,186.5,410.0,194.5,408.0,203.0,408.5,210.5,411.5,219.0" stroke="black" stroke-width="2" fill="none" />
<path d="M403.5,219.0,395.0,227.0,387.0,234.0,379.0,241.5,371.0,249.5,363.0,256.5,355.5,264.5,348.0,272.5,340.5,280.5,332.5,289.0,325.0,296.5,317.0,304.0,309.0,311.5,301.0,318.5,292.5,325.5,285.0,332.0,277.0,339.5,269.5,346.5,261.5,354.0,253.5,361.5" stroke="black" stroke-width="2" fill="none" />
<path d="M252.0,358.5,260.5,358.0,268.5,357.5,276.5,357.0,285.0,356.0,293.5,356.0,301.0,355.5,309.0,355.0,317.0,354.5,325.0,354.0,333.5,353.5,341.0,352.5,348.5,352.0,356.0,351.5,363.5,350.0,371.0,349.0,379.0,348.5,387.5,348.5,395.5,348.0,403.0,348.0,411.0,347.5" stroke="black" stroke-width="2" fill="none" />
<path d="M411.5,350.0,403.0,357.5,394.5,364.5" stroke="black" stroke-width="2" fill="none" />
<path d="M397.0,372.5,405.0,365.0,413.0,357.5" stroke="black" stroke-width="2" fill="none" />
<path d="M411.5,364.0,404.0,371.5,396.5,378.5" stroke="black" stroke-width="2" fill="none" />
<path d="M395.5,385.0,403.0,377.5,411.0,370.5" stroke="black" stroke-width="2" fill="none" />
<path d="M412.0,378.0,404.0,385.5,396.0,393.0,388.0,400.0,380.5,407.5,372.5,414.5,364.5,422.0,356.0,429.5,348.0,437.0" stroke="black" stroke-width="2" fill="none" />
<path d="M347.5,433.0,355.5,426.0,363.5,418.0,371.5,410.5,379.5,402.5" stroke="black" stroke-width="2" fill="none" />
<path d="M380.5,394.0,372.5,401.5,364.5,409.0,356.0,417.0,347.5,425.0,339.5,432.5" stroke="black" stroke-width="2" fill="none" />
<path d="M330.5,432.0,339.0,424.5,347.5,417.0,356.0,409.0,364.5,401.0,372.5,393.0,380.5,385.0" stroke="black" stroke-width="2" fill="none" />
<path d="M381.0,378.5,373.0,386.0,365.5,394.0,357.5,401.5,349.0,409.0,340.5,416.5,332.5,424.5,324.5,432.5" stroke="black" stroke-width="2" fill="none" />
<path d="M324.0,435.0,331.5,434.0,339.5,433.5,347.5,433.0,355.5,432.0,363.0,431.5,371.5,430.5" stroke="black" stroke-width="2" fill="none" />
<path d="M379.0,432.5,371.0,433.0,363.0,433.5,355.5,435.0,347.5,436.5,338.5,436.5,330.0,437.0" stroke="black" stroke-width="2" fill="none" />
<path d="M345.0,441.0,354.0,448.5,355.0,456.5,357.0,464.5" stroke="black" stroke-width="2" fill="none" />
<path d="M357.0,462.5,365.0,462.5,373.0,462.0" stroke="black" stroke-width="2" fill="none" />
<path d="M371.5,458.5,363.5,466.0,355.0,473.5,347.5,481.5,340.0,489.0,332.5,496.5,325.0,504.5,317.0,512.5,309.0,520.5" stroke="black" stroke-width="2" fill="none" />
<path d="M316.5,520.5,324.0,513.0,331.5,505.5,339.0,498.0,347.5,490.5,355.5,483.0,363.5,475.5,371.5,467.5" stroke="black" stroke-width="2" fill="none" />
<path d="M372.5,462.5,365.0,463.0,357.0,463.5,348.0,465.0,339.5,466.0,331.5,466.5,323.5,467.0,315.5,468.0,308.0,468.5,300.0,468.5,292.0,468.5,283.5,469.0" stroke="black" stroke-width="2" fill="none" />
<path d="M281.5,476.0,273.5,483.0,265.5,490.5,257.5,498.0,249.5,505.0,242.0,512.5" stroke="black" stroke-width="2" fill="none" />
<path d="M244.5,517.5,252.5,510.5,259.5,503.0,267.0,495.5,274.0,488.0,282.0,480.5,290.0,473.5,298.0,466.0,306.0,459.0" stroke="black" stroke-width="2" fill="none" />
<path d="M308.0,463.5,300.0,464.0" stroke="black" stroke-width="2" fill="none" />
<path d="M299.0,457.0,307.0,456.0" stroke="black" stroke-width="2" fill="none" />
<path d="M306.5,448.5,298.5,456.5" stroke="black" stroke-width="2" fill="none" />
<path d="M298.0,453.5,307.0,453.0,315.5,452.5" stroke="black" stroke-width="2" fill="none" />
<path d="M314.0,459.0,306.0,466.5,299.0,473.5,291.5,480.5,283.5,487.5,276.5,494.5,268.5,502.0" stroke="black" stroke-width="2" fill="none" />
<path d="M275.5,505.0,283.5,497.5,291.5,490.0,299.5,482.5,307.5,475.0,315.5,467.5,324.0,459.5" stroke="black" stroke-width="2" fill="none" />
<path d="M321.0,468.0,313.0,475.0,305.5,482.0,298.0,489.5,291.0,497.5,283.5,505.0,276.0,513.0" stroke="black" stroke-width="2" fill="none" />
<path d="M284.0,513.5,291.5,506.0,299.5,498.5,307.5,490.5,315.0,482.5,323.0,475.0,331.0,468.0" stroke="black" stroke-width="2" fill="none" />
<path d="M338.5,469.0,331.0,476.5,323.0,483.5,315.0,490.5,307.5,497.5,299.5,505.0,291.5,512.0" stroke="black" stroke-width="2" fill="none" />
<path d="M292.0,515.0,300.0,514.0,308.0,513.0,316.0,512.0,324.0,511.5,332.5,511.0,340.5,510.0,349.0,509.0,357.5,508.0,365.5,507.0" stroke="black" stroke-width="2" fill="none" />
<path d="M372.5,503.0,381.0,503.0,389.0,502.5" stroke="black" stroke-width="2" fill="none" />
<path d="M388.0,507.5,380.0,515.0,372.0,522.0,363.5,529.5,355.0,537.5" stroke="black" stroke-width="2" fill="none" />
<path d="M355.0,539.5,363.0,539.0" stroke="black" stroke-width="2" fill="none" />
<path d="M361.5,545.0,354.0,553.0" stroke="black" stroke-width="2" fill="none" />
<path d="M353.0,556.5,361.5,556.0,369.5,556.0" stroke="black" stroke-width="2" fill="none" />
<path d="M362.5,553.5,354.0,561.5" stroke="black" stroke-width="2" fill="none" />
<path d="M354.5,565.0,362.5,564.0,371.0,563.0" stroke="black" stroke-width="2" fill="none" />
<path d="M371.0,564.0,363.0,571.5" stroke="black" stroke-width="2" fill="none" />
<path d="M369.0,570.0,371.0,578.0,373.0,586.5,366.0,595.0" stroke="black" stroke-width="2" fill="none" />
<path d="M364.5,588.0,372.5,581.0" stroke="black" stroke-width="2" fill="none" />
<path d="M372.0,585.0,364.0,586.0" stroke="black" stroke-width="2" fill="none" />
<path d="M358.0,591.5,365.5,591.0,373.5,590.5" stroke="black" stroke-width="2" fill="none" />
<path d="M380.5,581.0,373.0,581.0,365.0,581.0,357.0,581.0" stroke="black" stroke-width="2" fill="none" />
<path d="M356.0,587.5,364.0,580.0,372.0,572.5" stroke="black" stroke-width="2" fill="none" />
<path d="M372.0,571.0,363.5,571.5,355.5,572.0" stroke="black" stroke-width="2" fill="none" />
<path d="M353.5,571.0,361.5,563.5" stroke="black" stroke-width="2" fill="none" />
<path d="M369.0,577.5,370.0,585.5" stroke="black" stroke-width="2" fill="none" />
<path d="M371.0,548.5,362.0,548.5,353.5,549.0" stroke="black" stroke-width="2" fill="none" />
<path d="M356.0,547.5,364.0,540.5,372.0,533.0" stroke="black" stroke-width="2" fill="none" />
<path d="M364.0,545.5,356.0,545.5" stroke="black" stroke-width="2" fill="none" />
<path d="M356.0,541.5,364.0,541.0,372.0,540.5" stroke="black" stroke-width="2" fill="none" />
<path d="M372.5,534.0,364.5,534.5,356.5,535.0,349.0,535.0" stroke="black" stroke-width="2" fill="none" />
<path d="M347.0,536.5,355.5,529.0,363.5,521.5,371.5,514.5,380.0,507.5,388.0,500.5,395.5,493.0,404.0,485.5" stroke="black" stroke-width="2" fill="none" />
<path d="M403.0,492.0,395.0,500.0" stroke="black" stroke-width="2" fill="none" />
<path d="M394.0,500.5,389.5,508.0,382.5,516.0,376.5,523.5,371.0,531.5,370.0,539.5,369.0,547.0,368.5,555.0,368.5,562.5,366.0,570.5,366.5,578.5,367.5,586.5" stroke="black" stroke-width="2" fill="none" />
<path d="M350.5,580.0,342.5,576.5,334.5,574.5,326.0,571.5" stroke="black" stroke-width="2" fill="none" />
<path d="M325.0,571.5,348.0,579.5" stroke="black" stroke-width="2" fill="none" />
<path d="M350.5,589.5,342.5,585.0,334.5,581.0,326.5,578.0,318.5,576.5" stroke="black" stroke-width="2" fill="none" />
<path d="M324.0,576.5,343.0,585.0" stroke="black" stroke-width="2" fill="none" />
<path d="M347.5,529.0,355.5,521.5,363.5,513.5,371.5,506.0,379.5,498.0,387.0,490.0,394.5,482.5,402.5,475.0" stroke="black" stroke-width="2" fill="none" />
<path d="M402.0,468.0,394.0,475.5" stroke="black" stroke-width="2" fill="none" />
<path d="M394.5,474.0,402.5,473.5" stroke="black" stroke-width="2" fill="none" />
<path d="M396.5,466.5,404.0,459.0" stroke="black" stroke-width="2" fill="none" />
<path d="M395.5,457.5,403.5,450.0" stroke="black" stroke-width="2" fill="none" />
<path d="M405.0,444.0,396.5,451.0" stroke="black" stroke-width="2" fill="none" />
<path d="M396.0,453.5,403.5,453.0" stroke="black" stroke-width="2" fill="none" />
<path d="M401.5,461.5,393.5,462.0" stroke="black" stroke-width="2" fill="none" />
<path d="M392.5,466.0,401.0,465.5" stroke="black" stroke-width="2" fill="none" />
<path d="M401.5,467.0,393.5,468.0" stroke="black" stroke-width="2" fill="none" />
<path d="M387.0,473.5,379.0,481.0,371.0,488.5,363.0,495.5,355.0,503.0,347.5,510.5,339.5,518.0,331.5,525.5" stroke="black" stroke-width="2" fill="none" />
<path d="M326.0,526.0,348.5,534.5,353.5,542.5,354.5,550.5,355.5,558.5,355.0,566.5,356.0,575.0,354.5,583.0,356.0,591.0,360.0,592.0,367.5,591.0" stroke="black" stroke-width="2" fill="none" />
<path d="M364.5,526.5,356.0,527.0,347.5,528.0,339.5,528.5" stroke="black" stroke-width="2" fill="none" />
<path d="M340.5,527.5,348.5,520.0,357.0,513.0,365.0,505.5,373.5,498.0,381.0,490.0,389.5,482.5" stroke="black" stroke-width="2" fill="none" />
<path d="M396.0,482.0,403.5,481.0" stroke="black" stroke-width="2" fill="none" />
<path d="M402.0,500.0,394.0,507.5" stroke="black" stroke-width="2" fill="none" />
<path d="M396.0,510.0,404.0,509.5,411.5,509.0" stroke="black" stroke-width="2" fill="none" />
<path d="M412.0,506.5,404.0,514.0" stroke="black" stroke-width="2" fill="none" />
<path d="M406.0,508.5,414.0,518.5" stroke="black" stroke-width="2" fill="none" />
<path d="M412.0,514.5,404.0,522.0" stroke="black" stroke-width="2" fill="none" />
<path d="M401.5,523.5,409.5,523.0" stroke="black" stroke-width="2" fill="none" />
<path d="M409.5,527.0,401.5,527.5" stroke="black" stroke-width="2" fill="none" />
<path d="M391.5,517.5,383.5,516.5" stroke="black" stroke-width="2" fill="none" />
<path d="M382.0,521.0,390.0,523.0,397.5,525.0,405.0,527.0,413.0,523.0" stroke="black" stroke-width="2" fill="none" />
<path d="M420.5,501.0,412.5,501.5,403.5,501.5,395.5,502.5,387.0,503.5,379.0,504.0,371.0,504.0,363.0,504.5,355.5,505.0,347.0,505.5,339.5,505.5,332.0,506.0,324.5,506.5,317.0,507.0,308.5,507.5,300.5,508.5,292.5,508.5,284.5,509.0,276.5,509.0,269.0,509.0,261.0,509.0,253.0,510.0,245.0,511.0,236.5,512.0,228.5,512.5,220.5,513.5,212.5,514.0,204.0,514.5,196.0,514.5,187.5,514.5,179.5,515.0,170.5,515.5,163.0,516.0,154.5,516.0,146.0,517.0,137.5,517.5" stroke="black" stroke-width="2" fill="none" />
<path d="M125.5,525.0,133.0,524.5,141.0,523.5,148.5,522.5,156.5,521.5,164.5,520.5,172.0,520.0,180.0,519.5,188.0,519.0,196.0,518.5,204.0,518.0,212.0,518.0,220.5,517.5,229.0,517.5,236.5,517.5,244.5,517.5,253.0,517.5,260.5,517.0,268.5,517.0,276.5,517.0,284.0,516.5,292.5,516.0,300.5,515.5,308.5,515.0,317.0,514.0,325.5,514.0,333.0,513.5,341.0,513.0,349.0,512.5,357.0,512.0,365.5,511.5,373.0,510.5,380.5,510.0" stroke="black" stroke-width="2" fill="none" />
<path d="M381.0,511.0,372.5,512.0" stroke="black" stroke-width="2" fill="none" />
<path d="M372.5,497.0,381.0,496.0,389.0,495.5,396.5,495.0,404.5,494.5" stroke="black" stroke-width="2" fill="none" />
<path d="M404.5,486.0,396.5,486.0,388.5,487.0,380.5,488.5,372.0,489.0" stroke="black" stroke-width="2" fill="none" />
<path d="M372.5,477.0,364.5,484.5,356.5,491.5,348.5,498.5,340.5,506.0,332.5,513.5,325.0,520.5" stroke="black" stroke-width="2" fill="none" />
<path d="M323.5,527.0,331.5,520.0,340.0,512.0,347.5,505.0,355.5,498.0,363.5,490.5,371.0,483.0,378.5,475.5" stroke="black" stroke-width="2" fill="none" />
<path d="M371.5,474.0,370.5,482.5,369.5,491.0,369.5,499.0,369.5,507.0,368.5,515.0,368.0,523.0,370.0,531.0,378.0,520.0,385.5,510.0,393.5,501.0" stroke="black" stroke-width="2" fill="none" />
<path d="M395.5,502.0,397.5,510.0,398.5,517.5" stroke="black" stroke-width="2" fill="none" />
<path d="M364.0,518.0,356.0,519.0,348.0,519.5,340.0,520.0,332.5,520.5,325.0,521.0,316.5,521.5" stroke="black" stroke-width="2" fill="none" />
<path d="M299.0,521.0,307.5,512.5,316.0,504.5,324.0,496.5,332.0,489.0,340.0,481.5,347.5,474.0,355.0,467.0,362.5,460.0,370.5,452.5" stroke="black" stroke-width="2" fill="none" />
<path d="M372.5,457.0,365.0,457.5" stroke="black" stroke-width="2" fill="none" />
<path d="M357.0,454.0,365.0,453.5,373.0,453.0" stroke="black" stroke-width="2" fill="none" />
<path d="M372.0,442.5,364.0,450.5,355.5,458.5" stroke="black" stroke-width="2" fill="none" />
<path d="M356.5,449.5,364.5,449.5,372.0,449.5" stroke="black" stroke-width="2" fill="none" />
<path d="M370.0,445.0,361.5,445.5,353.5,446.5" stroke="black" stroke-width="2" fill="none" />
<path d="M355.5,447.5,363.5,440.5,372.0,433.5,380.0,427.0,388.0,419.5,396.5,412.0,405.0,404.5" stroke="black" stroke-width="2" fill="none" />
<path d="M405.0,412.0,397.0,419.5" stroke="black" stroke-width="2" fill="none" />
<path d="M394.5,421.5,394.5,429.5,394.0,438.0,394.0,446.0,394.0,454.0,393.0,461.5,393.0,469.5,392.0,477.5" stroke="black" stroke-width="2" fill="none" />
<path d="M405.0,469.5,397.0,470.5,388.5,470.0,380.5,470.0,372.0,471.0,363.5,472.0,355.0,473.0,347.0,473.5,339.0,474.0,331.0,474.5,323.0,474.5,314.5,475.5,306.5,476.0,297.5,477.0,289.5,477.5,281.5,478.0,273.5,478.5" stroke="black" stroke-width="2" fill="none" />
<path d="M269.0,480.5,261.0,489.0,253.0,497.0" stroke="black" stroke-width="2" fill="none" />
<path d="M250.0,495.5,258.0,495.0,266.5,495.5,274.5,495.5,283.0,495.0,291.0,494.5,299.5,494.5,307.5,494.0,315.5,493.5,323.5,493.0,331.5,493.0,339.5,492.5,347.0,492.5,355.0,492.0,363.5,490.5" stroke="black" stroke-width="2" fill="none" />
<path d="M364.5,475.0,357.0,476.0,348.5,476.5,340.0,477.5,332.0,478.0,323.5,479.0,315.5,479.5,308.0,480.0,300.0,480.5,291.5,481.0,282.5,481.5" stroke="black" stroke-width="2" fill="none" />
<path d="M276.0,490.5,283.5,490.0,291.5,489.5,299.0,489.0,307.0,488.5,315.0,488.0,323.0,487.5,330.5,486.5,338.5,485.5,346.5,485.5,354.0,484.5,363.0,484.0" stroke="black" stroke-width="2" fill="none" />
<path d="M371.0,476.0,379.0,476.0,386.5,478.5" stroke="black" stroke-width="2" fill="none" />
<path d="M396.5,445.0,404.5,444.5,412.0,443.5" stroke="black" stroke-width="2" fill="none" />
<path d="M404.0,435.0,396.0,442.5" stroke="black" stroke-width="2" fill="none" />
<path d="M396.0,438.5,404.0,438.0,411.5,437.5" stroke="black" stroke-width="2" fill="none" />
<path d="M404.0,427.0,395.5,434.5" stroke="black" stroke-width="2" fill="none" />
<path d="M395.0,431.0,403.0,430.5,411.5,430.0" stroke="black" stroke-width="2" fill="none" />
<path d="M405.5,419.5,397.5,427.0" stroke="black" stroke-width="2" fill="none" />
<path d="M387.0,423.0,379.0,423.0,371.0,423.0,362.5,423.5,354.5,424.5,347.0,425.0,339.5,425.5,331.5,426.0,324.0,426.5,316.0,427.0,308.0,427.5,300.0,427.5,292.5,428.0" stroke="black" stroke-width="2" fill="none" />
<path d="M301.0,427.0,308.5,419.0,316.0,411.0,324.5,403.0,332.5,395.5,340.5,388.0,348.0,380.5,356.0,373.5,364.0,366.5,371.5,359.5,379.5,352.5,387.0,345.0,394.0,338.0,401.5,330.5,409.5,323.5" stroke="black" stroke-width="2" fill="none" />
<path d="M411.0,323.5,403.5,324.0,395.5,324.0,387.5,324.5,379.5,325.0,371.5,325.5,363.0,326.0,355.0,327.5,346.5,328.0,339.0,329.0,331.0,329.5,323.0,330.0,315.0,330.5,307.0,331.0,298.5,332.0,290.5,332.5,282.5,333.0,275.5,334.0,268.0,334.5,259.5,335.0,252.0,335.0" stroke="black" stroke-width="2" fill="none" />
<path d="M251.5,342.0,259.5,341.5,267.0,341.0,274.5,341.0,282.0,341.0,289.5,340.5,297.5,340.0,305.0,339.5,313.0,339.0,321.5,339.0,330.0,339.0,337.5,338.0,345.5,337.0,354.0,336.0,362.0,335.0,370.0,334.5,379.0,333.0,387.5,332.0,396.0,331.0,404.0,330.5,412.0,330.0" stroke="black" stroke-width="2" fill="none" />
<path d="M410.5,332.5,402.5,340.0,395.0,347.5" stroke="black" stroke-width="2" fill="none" />
<path d="M394.0,356.5,402.0,349.0,410.0,341.5" stroke="black" stroke-width="2" fill="none" />
<path d="M410.0,338.0,402.5,338.5" stroke="black" stroke-width="2" fill="none" />
<path d="M400.5,340.0,402.5,348.0,401.0,356.0,401.0,363.5,399.5,371.0,399.0,379.0,397.5,386.0,393.5,393.5,384.5,401.5,375.5,409.0,376.0,409.5,383.5,402.0,392.0,395.5" stroke="black" stroke-width="2" fill="none" />
<path d="M413.0,385.5,405.0,393.0,396.0,400.5,387.5,407.5,379.0,414.5,370.5,422.0,362.5,429.5,354.5,437.5" stroke="black" stroke-width="2" fill="none" />
<path d="M355.5,443.5,363.0,443.0,371.0,442.0" stroke="black" stroke-width="2" fill="none" />
<path d="M375.0,440.0,383.0,431.0,390.5,423.5,398.5,415.5,401.5,407.5,393.0,415.5,384.0,423.0,376.0,431.0,380.0,426.0,388.0,419.0,396.0,412.5,404.0,405.5,395.5,418.0,386.5,425.5,378.5,433.5,374.5,441.0,372.5,449.5,370.5,458.0,370.5,466.5,367.5,475.0,367.5,483.0,367.0,491.0,366.5,499.5,366.0,507.5,364.5,515.0,364.5,523.0,364.5,531.0,364.5,539.0" stroke="black" stroke-width="2" fill="none" />
<path d="M301.0,511.5,309.0,504.0,316.5,497.0,324.5,489.5,332.5,482.5,340.5,474.5,348.5,467.0" stroke="black" stroke-width="2" fill="none" />
<path d="M307.5,442.0,299.5,449.5" stroke="black" stroke-width="2" fill="none" />
<path d="M299.0,450.0,307.5,449.0" stroke="black" stroke-width="2" fill="none" />
<path d="M300.0,446.0,308.0,445.0,316.0,444.5" stroke="black" stroke-width="2" fill="none" />
<path d="M314.5,438.5,305.5,438.5,297.5,438.5" stroke="black" stroke-width="2" fill="none" />
<path d="M299.0,439.0,307.0,432.0,315.5,424.5,324.0,417.0,332.0,409.0,340.0,401.5,348.0,393.5,356.0,386.0,364.0,378.0,372.5,370.0,380.5,362.5" stroke="black" stroke-width="2" fill="none" />
<path d="M381.5,369.5,373.0,377.0,364.0,385.0,356.0,393.0,348.0,401.0,340.0,409.0,331.5,417.0,323.0,424.5,314.5,432.0" stroke="black" stroke-width="2" fill="none" />
<path d="M311.0,433.0,310.0,441.0,310.0,449.0,309.5,457.0,314.0,460.5,322.0,462.5,329.5,465.0,337.0,466.5,344.5,468.5,352.5,470.5" stroke="black" stroke-width="2" fill="none" />
<path d="M346.5,468.5,338.5,468.5,330.5,469.0,322.5,470.0,315.0,471.0,307.5,472.0,299.5,473.0,291.5,474.0" stroke="black" stroke-width="2" fill="none" />
<path d="M291.5,459.5,299.5,459.5,307.5,459.0,315.5,459.0,323.0,458.5,331.0,458.0" stroke="black" stroke-width="2" fill="none" />
<path d="M349.0,443.0,341.0,440.0,333.0,438.5,325.0,437.5,317.5,435.5,310.0,438.0" stroke="black" stroke-width="2" fill="none" />
<path d="M307.0,433.0,299.5,433.5" stroke="black" stroke-width="2" fill="none" />
<path d="M300.0,419.5,307.5,412.5,315.5,405.0,323.5,397.0,331.0,390.0,339.5,382.5,347.5,375.0,355.5,367.5,362.5,360.0,370.5,351.5,378.5,344.0,386.5,336.0,395.0,328.5,403.0,321.0,411.5,314.0" stroke="black" stroke-width="2" fill="none" />
<path d="M412.5,307.0,405.0,314.5,397.5,322.5,389.5,330.0,381.5,337.5,373.5,345.5,365.5,353.5,357.5,361.5,349.5,369.0,341.5,376.5,333.5,383.5,324.5,391.0,316.5,399.0,308.0,406.5,299.0,414.0,291.0,421.5" stroke="black" stroke-width="2" fill="none" />
<path d="M283.5,421.0,291.5,413.0,300.0,405.0,308.0,397.0,316.0,389.5,323.5,382.5,331.5,375.5,340.0,368.5,348.5,361.0,356.5,353.5,364.0,345.5,372.0,338.0,380.0,330.5,388.0,323.5" stroke="black" stroke-width="2" fill="none" />
<path d="M379.0,325.5,371.0,333.0,363.0,340.5,355.0,347.5,346.5,355.0,339.0,362.5,331.0,370.0,323.0,378.0,315.5,386.0,308.0,393.0,300.0,400.5,291.5,408.0,284.0,415.5,276.0,422.5" stroke="black" stroke-width="2" fill="none" />
<path d="M282.5,425.5,291.0,424.5,299.5,424.0,307.5,423.5,315.5,423.0,323.5,422.5,331.5,422.5,339.0,422.0,347.0,421.5,355.0,420.5,363.0,420.0,371.0,420.0" stroke="black" stroke-width="2" fill="none" />
<path d="M372.0,407.5,364.0,408.0,356.5,408.0,348.5,408.5" stroke="black" stroke-width="2" fill="none" />
<path d="M348.5,400.0,356.0,399.0,363.5,398.5,371.5,398.5" stroke="black" stroke-width="2" fill="none" />
<path d="M371.0,390.5,363.0,390.5,354.5,391.5,346.5,392.0" stroke="black" stroke-width="2" fill="none" />
<path d="M345.0,384.5,353.0,384.0,360.5,383.5,369.0,382.5" stroke="black" stroke-width="2" fill="none" />
<path d="M370.0,374.5,362.0,375.0,354.0,375.5,346.0,376.0" stroke="black" stroke-width="2" fill="none" />
<path d="M348.0,368.0,356.0,367.5,363.5,366.5,371.5,365.5" stroke="black" stroke-width="2" fill="none" />
<path d="M372.5,357.5,365.0,358.5,357.0,359.5,349.0,360.5" stroke="black" stroke-width="2" fill="none" />
<path d="M349.0,351.5,357.0,351.0,364.5,350.5,372.0,350.5" stroke="black" stroke-width="2" fill="none" />
<path d="M379.5,349.0,387.0,344.0,395.0,338.5,393.0,339.0,379.5,347.0,378.5,354.5,377.5,362.5,377.5,370.5,376.5,378.5,376.5,386.5" stroke="black" stroke-width="2" fill="none" />
<path d="M372.5,329.0,364.5,329.5,356.5,330.0" stroke="black" stroke-width="2" fill="none" />
<path d="M364.0,320.0,372.0,319.5" stroke="black" stroke-width="2" fill="none" />
<path d="M379.0,315.5,371.0,323.5,362.5,331.0,355.0,338.5,347.5,346.0,339.5,353.5,331.5,360.5,323.5,367.5,315.5,375.0,307.0,382.5,298.5,390.0,290.5,397.5,283.0,405.0,275.5,413.0" stroke="black" stroke-width="2" fill="none" />
<path d="M269.0,401.5,261.5,402.5" stroke="black" stroke-width="2" fill="none" />
<path d="M260.0,410.0,267.5,409.5,275.5,409.0,283.5,408.5,292.0,408.0" stroke="black" stroke-width="2" fill="none" />
<path d="M275.5,385.0,267.5,386.5,259.5,387.5" stroke="black" stroke-width="2" fill="none" />
<path d="M258.0,380.0,265.5,379.0,273.5,378.0" stroke="black" stroke-width="2" fill="none" />
<path d="M276.5,368.0,269.0,368.5" stroke="black" stroke-width="2" fill="none" />
<path d="M267.0,362.0,259.0,362.5" stroke="black" stroke-width="2" fill="none" />
<path d="M261.0,365.0,260.5,369.0,260.5,377.0,258.0,391.5,257.5,399.5" stroke="black" stroke-width="2" fill="none" />
<path d="M253.0,398.0,260.5,397.0,268.0,396.0,275.5,395.0,283.5,394.5,291.5,394.0,299.5,394.0,307.5,394.0,315.0,393.0,322.5,392.5,330.5,392.0,338.5,391.5,347.0,391.0,355.0,391.0,363.0,391.0,370.5,390.5,379.0,390.0,387.0,389.5,395.5,389.0,404.0,388.5,412.0,388.0" stroke="black" stroke-width="2" fill="none" />
<path d="M372.0,342.0,364.0,342.0,356.0,342.0,348.0,342.0,340.5,342.5,332.0,342.5,324.5,343.0,316.5,343.0,309.0,344.0,301.5,344.5,294.5,345.0" stroke="black" stroke-width="2" fill="none" />
<path d="M276.5,343.5,268.5,344.0,261.0,344.5" stroke="black" stroke-width="2" fill="none" />
<path d="M270.0,344.5,278.0,342.5,286.5,345.0,294.5,345.0,302.5,346.5,310.5,347.5,319.0,348.0,327.0,349.0,335.5,349.5,343.5,350.5,351.5,352.5" stroke="black" stroke-width="2" fill="none" />
<path d="M363.5,312.5,372.0,312.0" stroke="black" stroke-width="2" fill="none" />
<path d="M377.5,305.5,370.0,313.0,362.0,321.0,354.0,328.5,346.5,337.0,338.5,344.5,330.5,352.0,322.5,359.5,314.5,367.0,306.0,375.0,298.0,383.0,290.0,390.5,282.0,397.5,274.0,405.0,266.5,412.5,258.5,420.5,250.5,427.5" stroke="black" stroke-width="2" fill="none" />
<path d="M250.0,431.5,258.5,430.5,267.0,430.0" stroke="black" stroke-width="2" fill="none" />
<path d="M264.5,428.5,272.0,425.5,279.5,426.5,287.5,428.5,295.0,430.0,297.5,434.5,297.0,442.5,297.0,450.5,296.0,458.5,289.0,466.5,279.0,474.0,268.0,482.0" stroke="black" stroke-width="2" fill="none" />
<path d="M261.0,483.5,252.5,490.5" stroke="black" stroke-width="2" fill="none" />
<path d="M250.5,489.5,258.5,488.5" stroke="black" stroke-width="2" fill="none" />
<path d="M253.0,482.5,261.0,475.0" stroke="black" stroke-width="2" fill="none" />
<path d="M254.0,475.0,262.0,468.0" stroke="black" stroke-width="2" fill="none" />
<path d="M262.0,459.5,253.5,467.0" stroke="black" stroke-width="2" fill="none" />
<path d="M253.0,465.0,260.5,465.0" stroke="black" stroke-width="2" fill="none" />
<path d="M253.0,469.0,261.0,468.5,268.5,468.5" stroke="black" stroke-width="2" fill="none" />
<path d="M259.5,481.5,251.5,483.0" stroke="black" stroke-width="2" fill="none" />
<path d="M252.0,474.0,259.5,473.5" stroke="black" stroke-width="2" fill="none" />
<path d="M252.0,463.5,260.0,463.0,267.5,462.0" stroke="black" stroke-width="2" fill="none" />
<path d="M259.5,453.5,252.0,461.0" stroke="black" stroke-width="2" fill="none" />
<path d="M252.5,457.5,260.5,457.0" stroke="black" stroke-width="2" fill="none" />
<path d="M254.0,451.5,262.0,451.0,269.5,450.5" stroke="black" stroke-width="2" fill="none" />
<path d="M260.5,444.0,253.0,451.5" stroke="black" stroke-width="2" fill="none" />
<path d="M252.0,446.5,260.0,445.5,268.0,445.0" stroke="black" stroke-width="2" fill="none" />
<path d="M261.5,433.0,253.5,441.0" stroke="black" stroke-width="2" fill="none" />
<path d="M250.5,440.0,258.5,439.0,267.0,438.5" stroke="black" stroke-width="2" fill="none" />
<path d="M265.5,425.0,263.5,433.0,261.0,440.5,261.0,448.5,260.5,456.0,260.5,464.0,260.5,471.5,260.0,480.0,259.5,488.0,267.5,482.5,275.5,476.5,283.5,470.5,291.5,464.0" stroke="black" stroke-width="2" fill="none" />
<path d="M267.5,466.0,259.5,466.5,251.5,467.5,243.5,468.0,236.0,468.5,228.0,469.0,219.5,469.0,211.5,469.0,203.0,469.5,195.0,470.0,187.0,470.5,179.5,471.0,171.5,471.5,163.5,472.0,155.5,472.5,147.0,473.0,139.5,473.5,131.5,474.0,123.5,474.5,116.0,475.5,108.0,476.5,100.5,477.5,92.5,477.5,84.5,478.0" stroke="black" stroke-width="2" fill="none" />
<path d="M83.5,484.0,92.0,484.0,100.0,483.5,108.0,483.0,116.0,483.0,123.5,482.0,131.5,482.0,138.5,481.5,146.0,481.0,153.5,481.0,161.0,480.5,169.5,480.0,177.5,480.0,186.0,480.0,195.0,479.5,203.5,479.0,211.0,478.5,218.5,478.0,226.5,477.5,234.5,477.0,243.0,476.5,250.5,476.5,259.0,476.0,267.5,475.0,276.5,474.0,284.5,473.5,292.5,473.0,300.5,472.5,308.5,472.0,316.5,471.0,324.5,470.0,333.0,470.0,341.0,469.5,349.5,469.0,357.5,469.0,365.5,468.5,373.5,468.0,381.5,466.5,389.5,465.5,397.5,464.5,405.5,464.0" stroke="black" stroke-width="2" fill="none" />
<path d="M300.0,548.5,291.5,549.5,283.5,550.0" stroke="black" stroke-width="2" fill="none" />
<path d="M274.5,538.0,267.0,545.5" stroke="black" stroke-width="2" fill="none" />
<path d="M253.5,537.0,245.0,544.5" stroke="black" stroke-width="2" fill="none" />
<path d="M244.0,550.0,252.0,549.0" stroke="black" stroke-width="2" fill="none" />
<path d="M252.0,537.0,244.5,537.5" stroke="black" stroke-width="2" fill="none" />
<path d="M242.5,537.5,250.5,529.0,258.5,521.5" stroke="black" stroke-width="2" fill="none" />
<path d="M259.5,514.0,251.5,521.5,243.0,528.5" stroke="black" stroke-width="2" fill="none" />
<path d="M254.5,515.0,262.5,509.0,271.0,511.5,279.0,513.5,287.5,516.5,296.0,518.5,304.0,520.5,311.5,523.5,319.5,525.5,327.5,527.5,335.5,531.0,343.5,533.0,352.0,542.0" stroke="black" stroke-width="2" fill="none" />
<path d="M365.0,499.0,356.5,499.5,348.0,500.0,340.0,500.5,331.5,501.0,323.5,501.5,315.5,502.0,307.0,501.5,299.0,501.5,290.5,502.0,282.5,502.0,274.5,502.5,266.5,503.0,259.0,503.0,250.5,503.0" stroke="black" stroke-width="2" fill="none" />
<path d="M252.0,511.0,260.0,511.0" stroke="black" stroke-width="2" fill="none" />
<path d="M262.5,508.5,256.5,516.5,254.5,524.5,251.5,532.5,249.5,540.0" stroke="black" stroke-width="2" fill="none" />
<path d="M232.0,546.5,240.0,550.5,248.0,550.0,256.0,548.5,264.0,546.5,272.0,545.5,280.0,543.5,288.0,543.0,296.0,543.5,304.5,542.5,312.5,542.5,320.5,541.5" stroke="black" stroke-width="2" fill="none" />
<path d="M324.5,533.0,316.5,533.5,308.5,534.5,300.5,535.5,292.5,536.5,284.5,537.5,276.5,538.0,268.5,538.5,260.5,538.5,252.5,539.0,245.0,539.5,237.0,540.5,229.0,541.0,221.0,540.5,213.0,540.5,204.5,540.5,196.0,541.0" stroke="black" stroke-width="2" fill="none" />
<path d="M196.0,533.0,204.0,533.0,212.0,532.5,220.0,532.5,228.0,532.5,235.5,532.5,243.0,532.0,250.5,531.5,258.0,531.5,266.5,531.0,274.5,530.5,282.5,529.5,291.0,529.0,299.5,528.5,308.0,527.5,316.0,527.0,324.0,526.0,332.5,525.0,341.0,524.0" stroke="black" stroke-width="2" fill="none" />
<path d="M412.0,485.0,404.0,485.5,396.0,486.0,388.0,486.5,380.0,487.5,372.0,488.0,364.5,488.5,357.0,489.0,348.5,489.5,340.5,490.0,332.5,491.0,324.5,491.5,316.5,492.5,309.5,493.5,301.5,494.0,293.0,494.0,285.0,494.0,276.5,494.5,268.5,494.0,260.0,494.0,251.5,494.0,243.5,494.0,235.5,495.0,227.0,496.5,219.0,497.5,211.0,499.0,203.5,500.0,195.5,500.5,188.0,501.0,180.0,501.5,172.0,502.0,164.0,502.5" stroke="black" stroke-width="2" fill="none" />
<path d="M171.0,495.0,179.5,488.0,187.0,480.5,194.5,473.5,202.5,466.0,209.5,459.0,217.5,451.5" stroke="black" stroke-width="2" fill="none" />
<path d="M218.5,457.5,210.5,465.0,202.5,472.5,195.0,480.5,187.0,488.0,179.5,495.5" stroke="black" stroke-width="2" fill="none" />
<path d="M186.5,495.5,194.5,488.0,202.5,481.0,211.0,473.5,219.0,466.5" stroke="black" stroke-width="2" fill="none" />
<path d="M216.5,469.0,218.5,477.0,220.5,485.5" stroke="black" stroke-width="2" fill="none" />
<path d="M219.0,490.0,226.5,482.0,234.5,474.5" stroke="black" stroke-width="2" fill="none" />
<path d="M228.0,477.5,220.5,485.0" stroke="black" stroke-width="2" fill="none" />
<path d="M213.0,484.0,204.5,491.5,196.0,499.0,187.5,506.5" stroke="black" stroke-width="2" fill="none" />
<path d="M189.5,504.5,181.5,498.5,173.5,497.0,165.5,497.0,157.5,496.5,149.5,496.0,142.0,496.5,134.0,495.5,126.0,496.0,118.0,495.0,110.5,494.5,102.5,494.5,94.5,501.5" stroke="black" stroke-width="2" fill="none" />
<path d="M92.5,495.5,100.5,488.0,108.5,480.5,116.0,473.5,124.0,466.0,132.0,458.5,139.5,451.5" stroke="black" stroke-width="2" fill="none" />
<path d="M139.5,443.5,131.5,451.0,124.0,459.0,115.5,467.0,107.5,474.5,99.0,481.5,90.5,489.0" stroke="black" stroke-width="2" fill="none" />
<path d="M93.5,491.5,101.5,491.5,109.0,490.5,117.0,490.0,124.5,489.0,131.5,488.0,139.5,487.5,147.5,486.5,155.0,486.0,162.0,485.5,169.5,485.0,178.0,484.0" stroke="black" stroke-width="2" fill="none" />
<path d="M189.0,490.0,196.5,489.5,204.5,488.0" stroke="black" stroke-width="2" fill="none" />
<path d="M203.5,491.5,211.5,473.5,211.5,474.0,209.0,482.0,205.0,490.5,204.5,499.0,203.5,506.5,204.5,515.0,207.0,523.0,204.0,531.0,210.0,532.0,213.0,540.0,208.5,548.5,217.5,549.0,225.0,544.0,233.5,544.5,241.5,543.5,253.5,526.5" stroke="black" stroke-width="2" fill="none" />
<path d="M241.5,551.0,230.5,543.0" stroke="black" stroke-width="2" fill="none" />
<path d="M213.0,538.5,205.0,546.5" stroke="black" stroke-width="2" fill="none" />
<path d="M204.5,545.0,213.0,545.0" stroke="black" stroke-width="2" fill="none" />
<path d="M205.5,539.5,213.5,531.5" stroke="black" stroke-width="2" fill="none" />
<path d="M204.5,531.5,212.5,524.0,220.0,516.5,228.5,508.5" stroke="black" stroke-width="2" fill="none" />
<path d="M219.0,505.5,211.0,513.0,202.5,520.5,194.5,528.0" stroke="black" stroke-width="2" fill="none" />
<path d="M197.5,523.0,206.0,515.5,213.5,508.0" stroke="black" stroke-width="2" fill="none" />
<path d="M203.5,507.0,195.0,514.0,187.5,521.0" stroke="black" stroke-width="2" fill="none" />
<path d="M194.0,514.5,202.0,514.0" stroke="black" stroke-width="2" fill="none" />
<path d="M196.0,507.0,204.0,499.5" stroke="black" stroke-width="2" fill="none" />
<path d="M203.0,505.0,195.0,506.0" stroke="black" stroke-width="2" fill="none" />
<path d="M187.0,501.0,193.0,509.5,195.0,517.0,196.0,525.0,198.5,533.0,198.0,540.5,200.0,546.5,207.5,548.0,217.0,538.0,225.0,536.5,238.0,536.5,252.0,541.5,260.0,540.0,268.0,539.5,276.0,538.5,284.0,537.5,292.0,536.5" stroke="black" stroke-width="2" fill="none" />
<path d="M235.5,482.5,227.0,490.0" stroke="black" stroke-width="2" fill="none" />
<path d="M219.5,475.0,227.5,468.0" stroke="black" stroke-width="2" fill="none" />
<path d="M224.5,468.5,232.5,479.5" stroke="black" stroke-width="2" fill="none" />
<path d="M225.0,491.5,217.0,474.5" stroke="black" stroke-width="2" fill="none" />
<path d="M219.5,457.5,212.0,458.0" stroke="black" stroke-width="2" fill="none" />
<path d="M203.0,452.0,195.5,459.5,188.0,467.0,179.5,474.0,171.0,482.0,163.0,489.5,155.0,497.0" stroke="black" stroke-width="2" fill="none" />
<path d="M163.5,495.0,171.5,488.0,179.5,481.0,187.0,473.0,194.5,466.0,202.0,458.5,209.5,451.0,217.0,443.5" stroke="black" stroke-width="2" fill="none" />
<path d="M210.5,443.5,218.5,443.0,226.0,443.0" stroke="black" stroke-width="2" fill="none" />
<path d="M217.5,436.5,210.5,444.0" stroke="black" stroke-width="2" fill="none" />
<path d="M211.0,437.5,219.0,437.0" stroke="black" stroke-width="2" fill="none" />
<path d="M211.5,436.5,219.5,429.0" stroke="black" stroke-width="2" fill="none" />
<path d="M221.5,430.0,213.5,430.5" stroke="black" stroke-width="2" fill="none" />
<path d="M210.0,428.5,218.0,421.0" stroke="black" stroke-width="2" fill="none" />
<path d="M219.5,421.5,211.5,422.0" stroke="black" stroke-width="2" fill="none" />
<path d="M210.5,418.5,218.5,411.5" stroke="black" stroke-width="2" fill="none" />
<path d="M219.0,413.5,211.5,414.0" stroke="black" stroke-width="2" fill="none" />
<path d="M211.0,411.0,219.0,404.0" stroke="black" stroke-width="2" fill="none" />
<path d="M219.5,403.0,211.5,403.0" stroke="black" stroke-width="2" fill="none" />
<path d="M211.0,402.0,218.5,394.5" stroke="black" stroke-width="2" fill="none" />
<path d="M220.0,388.0,212.0,389.0,203.5,389.5,196.0,390.5,187.5,391.0,179.0,391.0,170.5,391.5,162.5,391.5,155.0,392.0,147.0,392.5,139.5,393.0,131.5,394.0,123.5,394.0,115.5,395.0,107.5,395.5,99.0,396.0,90.5,396.5,82.5,396.5" stroke="black" stroke-width="2" fill="none" />
<path d="M84.0,397.0,92.0,389.5,100.0,382.5,107.5,374.5,115.0,366.5,123.0,359.0,130.5,351.0,139.0,343.5,147.0,335.5,154.0,328.0,162.0,320.0,169.5,313.0,178.0,305.5,186.0,298.5,194.5,291.0,203.0,283.5" stroke="black" stroke-width="2" fill="none" />
<path d="M196.5,283.0,188.5,283.0,180.5,283.0,172.5,283.5,164.5,284.0,156.5,284.5,148.5,285.0,140.0,285.5,131.5,286.0,123.0,286.5,115.0,287.0,108.0,288.0,100.5,288.5,93.0,289.5,85.0,290.0" stroke="black" stroke-width="2" fill="none" />
<path d="M82.5,296.0,90.5,289.5,98.5,282.0,106.5,274.5,114.5,267.0,122.5,260.0,131.0,252.5,139.0,245.5,147.0,238.0,155.0,230.5,163.0,223.0,171.5,215.0,179.5,207.0,187.5,200.0,196.0,193.0,204.0,186.0,212.0,178.5,220.0,171.0" stroke="black" stroke-width="2" fill="none" />
<path d="M217.0,174.0,217.0,181.5,213.0,190.5,212.0,198.5,212.5,207.0,214.5,215.0" stroke="black" stroke-width="2" fill="none" />
<path d="M210.0,221.0,202.0,228.0,194.5,235.0,187.0,242.5,179.5,250.0,171.5,257.0,163.0,264.0,155.0,271.0,147.0,279.0,139.0,287.0,131.0,295.0,123.0,302.0,115.5,309.0,108.0,316.5,100.0,323.5,92.0,331.0,84.0,339.0" stroke="black" stroke-width="2" fill="none" />
<path d="M83.0,336.5,91.5,336.0,99.5,336.0,108.0,336.0,116.5,335.5,124.5,334.5,132.5,334.5,140.5,334.0,148.0,333.5,156.0,333.5,164.0,333.5,171.5,333.0,179.0,332.0,187.0,331.5,195.0,331.0" stroke="black" stroke-width="2" fill="none" />
<path d="M203.5,332.0,195.5,339.5,187.0,347.5,178.5,354.5,170.0,362.5,162.0,370.0,154.5,377.0,147.0,384.5,139.5,392.0,132.0,400.0,124.0,407.5" stroke="black" stroke-width="2" fill="none" />
<path d="M123.0,414.5,131.5,414.0,140.0,413.0,148.0,412.0,156.5,411.0,164.5,410.5,173.0,409.5,180.5,409.5,188.5,409.0,197.0,408.0,205.5,407.5" stroke="black" stroke-width="2" fill="none" />
<path d="M201.5,410.0,193.5,417.5,186.0,425.5" stroke="black" stroke-width="2" fill="none" />
<path d="M189.0,424.5,196.5,424.0" stroke="black" stroke-width="2" fill="none" />
<path d="M203.0,425.5,195.0,432.5" stroke="black" stroke-width="2" fill="none" />
<path d="M194.0,426.0,202.0,418.5" stroke="black" stroke-width="2" fill="none" />
<path d="M205.0,420.0,197.0,420.5,189.5,420.5" stroke="black" stroke-width="2" fill="none" />
<path d="M188.0,416.5,196.0,416.0" stroke="black" stroke-width="2" fill="none" />
<path d="M201.5,412.0,211.5,393.5" stroke="black" stroke-width="2" fill="none" />
<path d="M215.0,388.5,210.0,396.5,210.5,404.5,210.5,412.5,211.0,421.0,211.5,429.0,212.5,437.0,212.5,444.5" stroke="black" stroke-width="2" fill="none" />
<path d="M203.0,444.5,194.5,445.0,186.5,445.0" stroke="black" stroke-width="2" fill="none" />
<path d="M186.0,437.5,194.0,437.0,201.5,436.0" stroke="black" stroke-width="2" fill="none" />
<path d="M203.0,434.5,195.5,441.5" stroke="black" stroke-width="2" fill="none" />
<path d="M201.0,443.0,193.0,450.5,185.5,458.0,177.5,466.0,169.0,473.5,161.0,481.0,153.5,488.5" stroke="black" stroke-width="2" fill="none" />
<path d="M147.0,490.0,155.0,482.5,163.5,474.5,171.5,467.5,179.5,460.0,187.5,452.5" stroke="black" stroke-width="2" fill="none" />
<path d="M179.5,451.5,171.5,459.0,164.0,466.0,156.0,474.0,147.5,482.0,139.5,489.5" stroke="black" stroke-width="2" fill="none" />
<path d="M131.5,490.0,139.5,482.0,147.5,474.5,155.5,466.5,163.5,458.5,171.5,450.5" stroke="black" stroke-width="2" fill="none" />
<path d="M163.5,450.5,155.5,458.0,147.5,465.5,140.0,473.5,132.0,481.5,124.0,489.5" stroke="black" stroke-width="2" fill="none" />
<path d="M117.0,489.5,125.0,482.0,132.5,474.0,140.5,465.5,148.5,457.5,157.0,450.0" stroke="black" stroke-width="2" fill="none" />
<path d="M148.5,450.5,140.5,458.0,132.0,465.5,124.0,473.0,116.0,480.0,108.0,487.5" stroke="black" stroke-width="2" fill="none" />
<path d="M115.5,492.0,123.0,492.0,131.0,491.5,139.0,491.5,147.0,491.0,155.5,491.0,163.5,491.0,171.5,491.0,179.5,490.5,187.5,490.0,195.5,489.5,203.5,489.0,212.0,488.5,220.0,487.5,228.0,486.5,235.5,485.5,243.0,484.5,251.0,484.0,258.5,483.0,266.5,482.0,274.5,481.5,282.5,481.0,290.0,481.0,298.0,480.5,306.0,480.0,314.0,480.0,322.0,480.0,330.5,480.0,338.5,480.0,347.5,480.0,355.5,480.0,363.5,478.5,371.5,477.5,379.0,476.5,387.0,475.5,394.5,474.0,403.0,473.5" stroke="black" stroke-width="2" fill="none" />
<path d="M371.5,408.5,363.5,409.0,355.5,409.5,347.5,410.0,339.5,410.5,331.0,411.0,322.5,411.5,315.0,412.5,307.0,413.5,299.5,414.0,291.0,415.0,283.0,415.0,275.0,415.0,267.5,415.5,259.5,416.0" stroke="black" stroke-width="2" fill="none" />
<path d="M252.5,413.5,260.5,413.0,268.0,412.5,275.5,412.0,284.0,412.5,292.0,412.5,300.0,412.5,307.5,412.0,315.5,411.5,323.5,410.5,332.0,409.5,339.5,409.0,347.5,408.5,355.0,408.0,363.0,407.5,371.0,407.0,379.0,406.5,386.5,405.5,394.5,404.5,402.5,404.5,410.0,403.5" stroke="black" stroke-width="2" fill="none" />
<path d="M411.0,411.0,403.0,411.5,395.0,412.0,387.5,413.0,380.0,414.0,372.5,415.0,364.5,415.5,355.5,415.5,347.5,416.5,339.0,417.5,331.0,418.0,323.0,418.0,315.0,418.5,307.5,419.0,299.0,419.5,291.5,419.5,284.0,420.0,276.5,420.5,269.0,421.0,260.5,421.5,252.5,422.5" stroke="black" stroke-width="2" fill="none" />
<path d="M252.0,419.5,259.5,412.0,267.0,404.0,274.5,396.5,282.5,389.5,290.0,382.5,298.0,375.5,306.0,368.0,314.0,360.5,322.5,353.0,330.5,345.5,339.0,338.0,347.0,330.0,355.5,322.0,364.0,314.5,372.5,306.5,380.5,298.5,388.5,290.5,397.0,283.0" stroke="black" stroke-width="2" fill="none" />
<path d="M403.5,285.5,395.0,293.0,387.0,300.0" stroke="black" stroke-width="2" fill="none" />
<path d="M393.0,293.0,383.5,297.0,391.5,294.0,399.5,291.0,411.5,284.0,424.0,275.5" stroke="black" stroke-width="2" fill="none" />
<path d="M412.5,284.0,404.5,291.5" stroke="black" stroke-width="2" fill="none" />
<path d="M409.0,288.5,406.5,296.5,406.5,304.0,402.0,312.5,388.0,321.0,376.0,329.0,380.5,326.0,388.5,321.0,397.0,318.0" stroke="black" stroke-width="2" fill="none" />
<path d="M404.5,325.5,396.5,330.0,407.0,324.0" stroke="black" stroke-width="2" fill="none" />
<path d="M404.0,306.0,412.0,298.0" stroke="black" stroke-width="2" fill="none" />
<path d="M410.5,291.0,402.5,299.5" stroke="black" stroke-width="2" fill="none" />
<path d="M387.5,283.5,379.5,291.0,372.5,298.5,364.5,306.0,356.0,313.5,348.0,321.0,339.0,329.0,330.5,336.0,322.5,343.5,314.5,350.5,306.5,358.0,298.5,366.5,291.0,374.5,283.0,382.5,275.5,390.5,267.5,398.5,259.0,405.5,251.5,412.5" stroke="black" stroke-width="2" fill="none" />
<path d="M253.5,404.0,261.5,403.5,269.0,403.5,276.5,403.0,284.0,402.5,291.5,402.0,299.5,402.5,307.0,402.5,314.5,402.5,321.5,402.0,329.5,401.5,337.5,401.0,345.5,400.5,353.5,400.0,362.5,399.0,370.5,398.5,379.0,397.5,387.0,397.5,395.0,397.0,403.0,396.5,411.0,396.0" stroke="black" stroke-width="2" fill="none" />
<path d="M372.5,305.5,365.0,306.5,357.0,307.0" stroke="black" stroke-width="2" fill="none" />
<path d="M375.5,289.5,379.5,285.5,375.5,294.0,374.5,302.0,370.5,310.5,375.5,318.0,374.5,326.0,374.5,333.5,374.5,341.5,373.5,349.5,373.5,357.5,372.5,365.5,373.0,373.5,373.0,381.5,372.0,390.0,372.0,398.0,371.5,406.0,370.0,414.5,370.0,422.5,370.0,430.5,369.0,438.5,369.0,446.5,368.0,454.5" stroke="black" stroke-width="2" fill="none" />
<path d="M250.5,403.5,258.5,395.5,266.5,388.0,274.5,380.5,283.5,373.5,292.5,366.0,300.5,358.5,308.5,351.0,316.5,343.0,323.5,335.0,331.0,327.5,339.0,320.0,347.0,312.5,355.5,304.5,363.5,297.0,372.0,290.0,380.0,283.0,388.5,276.0" stroke="black" stroke-width="2" fill="none" />
<path d="M386.5,268.0,378.5,268.0,371.0,267.5,363.0,268.0,354.5,269.0,347.0,270.0,339.0,270.5,332.0,270.5,324.0,271.0,315.5,271.5,307.5,272.0" stroke="black" stroke-width="2" fill="none" />
<path d="M308.5,264.0,317.0,263.5,324.0,263.5,331.5,262.5,338.5,262.0,346.0,262.0,353.5,261.5,361.0,261.0,368.5,260.5,377.0,259.5,385.0,259.5" stroke="black" stroke-width="2" fill="none" />
<path d="M381.0,248.5,389.0,248.0,396.5,247.5" stroke="black" stroke-width="2" fill="none" />
<path d="M401.0,238.0,393.0,245.5,385.5,252.0,377.5,258.5,369.0,265.0,361.0,272.0,353.5,279.0,346.0,287.0,338.5,294.5,331.0,302.0,323.0,309.5,315.0,316.5,307.5,324.0,300.0,331.5,292.5,339.0,285.0,347.0,277.0,354.0,269.0,361.5,261.0,368.5,253.0,375.5" stroke="black" stroke-width="2" fill="none" />
<path d="M249.5,374.5,257.5,374.0,266.0,374.0,274.5,373.5,283.5,373.0,292.0,372.5,300.0,371.5,308.0,370.0,316.0,369.0,323.5,368.0,331.5,367.0,339.5,366.5,347.0,366.0,355.0,366.0,363.0,366.0,371.5,365.0,379.0,364.5,387.0,363.5,394.5,362.5,403.0,362.0,411.5,361.5" stroke="black" stroke-width="2" fill="none" />
<path d="M371.0,329.5,363.5,330.0,355.5,330.0,347.5,330.5,339.5,330.5,331.5,331.5,323.0,331.5,315.0,332.0,306.5,332.5,298.5,332.5,290.5,333.0,283.0,333.5,275.5,334.5,268.0,335.0,260.5,335.5" stroke="black" stroke-width="2" fill="none" />
<path d="M259.5,329.0,267.5,328.0" stroke="black" stroke-width="2" fill="none" />
<path d="M267.0,319.5,259.0,320.0" stroke="black" stroke-width="2" fill="none" />
<path d="M252.0,322.5,260.0,314.5,268.0,307.5" stroke="black" stroke-width="2" fill="none" />
<path d="M268.0,304.5,259.5,305.0" stroke="black" stroke-width="2" fill="none" />
<path d="M253.0,306.5,261.0,299.0,268.5,291.5,276.0,284.0,283.5,277.0,291.0,269.5,298.5,262.5,306.5,255.5,315.0,248.5,323.5,241.0,331.5,233.5,339.5,225.5,347.5,217.5,355.5,209.0,363.5,201.0,371.5,193.5,380.0,186.0,388.5,178.5,397.0,170.0,404.5,162.5" stroke="black" stroke-width="2" fill="none" />
<path d="M411.5,162.0,418.5,154.0,419.0,162.0,425.0,167.0,425.5,174.5" stroke="black" stroke-width="2" fill="none" />
<path d="M428.0,172.0,420.5,172.5,412.5,173.0,404.5,174.0,396.5,175.0,388.0,176.0,379.5,177.0,371.0,177.5,363.5,178.0,356.0,178.0,348.0,178.5,340.0,178.5,332.5,179.0,324.0,179.0,315.5,180.0,307.0,180.0,299.0,180.0,290.5,180.0" stroke="black" stroke-width="2" fill="none" />
<path d="M297.5,177.0,305.5,169.0,313.0,161.5" stroke="black" stroke-width="2" fill="none" />
<path d="M307.0,162.5,299.5,170.0" stroke="black" stroke-width="2" fill="none" />
<path d="M300.0,172.0,308.0,171.5,315.5,171.0,323.5,170.5,331.5,169.0,339.5,168.5,347.0,168.0,355.0,168.5,363.0,168.5,371.5,167.5,380.0,167.0,388.0,166.5,395.5,165.5,403.5,164.5,411.5,164.0,420.0,163.0,428.5,163.0" stroke="black" stroke-width="2" fill="none" />
<path d="M426.5,157.0,418.5,157.5,410.5,158.0" stroke="black" stroke-width="2" fill="none" />
<path d="M409.0,169.0,401.5,177.0,394.5,185.5,387.0,193.5,379.5,201.0,372.0,208.5,364.5,215.5,357.5,223.0,350.0,230.5,342.5,238.0,335.0,246.0,326.5,253.0,318.5,260.5,310.0,267.5,301.0,275.0,292.5,283.0,283.5,291.0,275.0,299.0" stroke="black" stroke-width="2" fill="none" />
<path d="M282.5,304.0,291.0,302.0,297.0,307.5,308.0,309.5,311.5,316.5,320.0,313.5,319.0,313.5,316.0,317.5" stroke="black" stroke-width="2" fill="none" />
<path d="M301.0,275.0,293.0,274.0" stroke="black" stroke-width="2" fill="none" />
<path d="M291.5,268.0,283.0,275.0,275.0,282.5,267.0,290.0,259.0,297.5,251.0,306.0" stroke="black" stroke-width="2" fill="none" />
<path d="M251.0,307.5,259.5,307.0,268.0,307.0,276.0,307.0,284.0,307.0,292.0,306.5,300.0,305.5,308.5,305.0,316.5,304.0,324.5,303.0,332.5,302.5,340.0,302.0,347.5,301.5,355.0,300.5,362.5,300.0,370.5,299.5,378.5,299.5,387.0,299.0,395.0,298.5,403.5,298.5,411.5,297.5,419.5,297.5" stroke="black" stroke-width="2" fill="none" />
<path d="M420.5,259.5,412.5,260.5,404.0,261.5,395.0,262.0,386.5,263.0,379.0,263.0,371.0,263.5,363.0,263.5,355.0,264.0,347.5,264.5,339.0,265.0,331.0,265.5,322.5,266.0,314.5,266.0,306.5,265.5,299.0,266.0,292.0,267.5,284.5,268.0,277.0,268.0,269.0,268.5" stroke="black" stroke-width="2" fill="none" />
<path d="M267.0,275.5,259.0,283.0,251.0,290.5" stroke="black" stroke-width="2" fill="none" />
<path d="M253.0,287.0,261.0,286.5,268.0,286.0,276.0,285.0,284.0,284.0,291.5,283.0,299.5,282.0,307.5,281.0,315.0,280.5,323.5,280.5,331.5,280.0,340.0,279.5,348.0,279.0,356.5,278.5,364.5,277.5,373.0,277.0,381.0,277.0,389.0,276.5,396.5,276.0,404.5,276.0,412.5,276.0,420.0,275.5" stroke="black" stroke-width="2" fill="none" />
<path d="M421.0,254.0,413.0,254.0,405.5,254.5,397.0,255.0,389.0,255.5,380.5,255.5,372.0,255.5,364.0,256.0,356.0,257.0,348.0,257.5,339.5,258.0,331.0,258.5,323.0,259.0,314.5,259.5,307.0,260.0,299.0,260.0,291.0,260.0,282.5,260.5,274.5,261.0" stroke="black" stroke-width="2" fill="none" />
<path d="M276.0,273.0,268.5,280.5,261.0,288.0,253.0,296.0" stroke="black" stroke-width="2" fill="none" />
<path d="M253.0,294.5,261.0,294.0,269.0,294.0,276.5,293.0,284.5,292.0,292.5,291.5,300.5,290.5,308.5,289.5,316.0,288.0,323.5,287.5,331.0,287.0,339.0,286.5,347.0,286.0,355.5,286.0,363.5,285.5,371.5,285.5,380.0,285.0,388.5,284.0,397.0,283.5,406.0,283.5,414.5,283.0,421.5,282.5" stroke="black" stroke-width="2" fill="none" />
<path d="M419.5,307.0,411.5,308.0,403.5,308.5,395.5,308.0,387.5,308.5,380.5,309.5,373.0,310.5,365.0,310.5,356.5,310.5,348.5,310.5,340.5,311.0,333.0,311.5,324.5,312.0,316.5,313.0,308.0,314.5,300.0,315.0,292.0,316.0,283.5,316.0,275.5,316.5,267.0,317.0,258.5,317.0,250.0,317.5" stroke="black" stroke-width="2" fill="none" />
<path d="M252.0,327.0,260.0,326.5,268.0,326.5,276.0,325.5,284.0,325.0,292.5,324.0,300.5,323.5,308.5,323.0,316.0,322.0,324.0,321.5,332.0,321.0,340.5,321.0,348.0,320.5,356.0,320.0,364.0,320.0,372.0,319.0,380.0,318.0,388.0,317.5,396.5,317.0,404.5,317.0,412.0,317.0" stroke="black" stroke-width="2" fill="none" />
<path d="M412.0,355.5,403.5,355.5,395.5,356.0,387.5,356.5,379.5,357.5,372.0,358.5,364.0,359.0,355.5,359.5,347.5,360.0,339.5,360.5,332.0,361.0,323.5,361.5,316.0,362.5,308.0,363.0,300.0,363.5,292.0,364.0,284.0,364.5,275.0,365.0,267.0,365.0,259.5,365.0,251.5,365.5" stroke="black" stroke-width="2" fill="none" />
<path d="M253.5,370.0,261.0,362.0,268.5,355.0,276.5,347.5,284.5,340.0,292.5,332.5,300.5,325.0,308.5,317.5,316.0,310.5,323.5,303.0,331.5,295.5,340.0,287.5,348.5,280.0,356.0,273.0,363.5,266.0,372.0,258.5,380.5,251.5,388.0,244.0,395.5,236.0,403.5,228.5" stroke="black" stroke-width="2" fill="none" />
<path d="M399.0,234.5,407.0,237.0" stroke="black" stroke-width="2" fill="none" />
<path d="M412.5,233.5,404.5,241.5,396.5,249.0,388.0,257.0,380.0,265.0,372.5,272.5,364.0,280.0,356.0,287.5,347.5,295.5,339.5,303.0,331.0,311.0,323.0,318.5,315.0,325.5,307.0,333.0,299.0,340.5,291.5,347.5,283.0,355.0,275.0,363.0,267.5,370.5,260.0,378.0,252.0,385.5" stroke="black" stroke-width="2" fill="none" />
<path d="M250.5,383.5,258.5,382.5,267.0,382.0,275.5,381.5,284.0,380.5,292.0,380.0,300.0,379.0,308.5,378.0,317.0,377.0,325.0,376.0,333.0,375.5,341.0,375.0,348.5,375.0,356.0,374.5,363.0,373.0,370.5,372.5,378.5,373.0,386.5,373.0,395.0,372.5,403.0,372.0,411.5,371.5" stroke="black" stroke-width="2" fill="none" />
<path d="M409.5,380.5,401.5,381.0,393.5,382.0,386.0,382.5,378.5,382.0,371.0,382.0,363.5,382.0,356.0,382.0,348.5,382.5,340.5,383.0,333.0,383.5,325.0,384.5,317.0,385.0,309.0,385.5,300.5,386.0,292.5,386.5,284.5,387.5,276.5,388.5,268.5,389.5,260.5,390.5,252.5,391.0" stroke="black" stroke-width="2" fill="none" />
<path d="M250.0,394.5,258.5,387.0,266.0,379.0,274.5,371.0,283.0,363.5,291.5,356.5,299.5,349.5,306.5,342.0,314.0,334.5,322.5,327.5,331.0,320.5,339.0,312.5,347.0,304.0,355.0,296.0,363.5,288.5,372.0,280.5,380.5,273.0,389.0,265.5,397.0,258.0,405.5,251.0,413.5,243.5" stroke="black" stroke-width="2" fill="none" />
<path d="M419.0,237.5,411.5,238.5,403.0,239.5,395.0,240.0,387.0,240.5,379.0,241.5,370.5,242.5,362.5,242.5,355.0,242.5,347.5,242.5,339.0,243.0,330.5,243.5,323.0,244.0,315.0,244.5,307.5,244.5,300.0,245.5,292.5,246.0" stroke="black" stroke-width="2" fill="none" />
<path d="M300.0,249.5,307.5,248.5,315.5,247.5,323.0,247.0" stroke="black" stroke-width="2" fill="none" />
<path d="M315.0,241.0,307.0,241.0" stroke="black" stroke-width="2" fill="none" />
<path d="M306.5,247.0,314.5,239.5,322.5,232.0,330.5,223.5,338.5,215.5,346.5,208.0,355.0,200.0,363.5,192.5,372.5,184.5,381.0,177.0,389.5,170.0,397.5,163.0" stroke="black" stroke-width="2" fill="none" />
<path d="M388.0,163.5,380.0,171.0,372.5,178.5,364.5,185.5,356.5,192.5,348.5,200.5,340.5,207.5,332.5,214.5,324.5,222.5,317.0,230.5,309.5,238.5,301.5,246.0" stroke="black" stroke-width="2" fill="none" />
<path d="M300.0,238.0,308.5,231.0,317.0,224.0,325.0,216.5,333.0,208.5,341.0,201.0,349.0,193.5,357.0,186.0,365.0,178.0,373.0,170.5,381.0,163.0" stroke="black" stroke-width="2" fill="none" />
<path d="M372.5,168.5,380.0,167.5,388.0,167.5,395.5,167.5,403.5,167.0,411.0,167.0" stroke="black" stroke-width="2" fill="none" />
<path d="M410.0,168.5,402.0,169.5,394.0,170.0,386.0,170.5,378.0,171.0,370.0,171.5,362.0,172.0,354.5,172.5,347.5,172.5,340.5,173.0,332.5,174.0,323.5,175.0,315.5,176.0,307.5,177.0,299.5,177.0" stroke="black" stroke-width="2" fill="none" />
<path d="M299.5,186.0,307.5,178.5,316.0,171.0,324.0,163.5" stroke="black" stroke-width="2" fill="none" />
<path d="M325.0,174.5,317.0,181.5,308.5,188.0" stroke="black" stroke-width="2" fill="none" />
<path d="M311.0,188.5,311.5,196.5,311.0,204.0,311.0,212.0" stroke="black" stroke-width="2" fill="none" />
<path d="M308.0,216.5,299.5,224.5,291.5,232.5" stroke="black" stroke-width="2" fill="none" />
<path d="M292.0,226.0,299.5,225.5" stroke="black" stroke-width="2" fill="none" />
<path d="M294.5,226.0,302.5,227.0,310.5,227.5,319.0,224.5,327.0,224.5,335.5,224.5" stroke="black" stroke-width="2" fill="none" />
<path d="M347.0,217.0,339.0,217.5,331.0,218.5,322.5,219.5" stroke="black" stroke-width="2" fill="none" />
<path d="M315.0,225.5,322.5,224.5,330.5,223.5,338.5,223.0,347.5,223.0" stroke="black" stroke-width="2" fill="none" />
<path d="M339.0,208.0,331.0,208.0" stroke="black" stroke-width="2" fill="none" />
<path d="M324.0,200.5,332.0,193.0,339.5,185.0,347.5,177.5,355.0,170.0,363.0,162.5" stroke="black" stroke-width="2" fill="none" />
<path d="M356.0,163.0,348.0,171.0,340.5,178.5,332.0,186.0,323.5,193.5" stroke="black" stroke-width="2" fill="none" />
<path d="M323.0,193.5,331.0,192.5" stroke="black" stroke-width="2" fill="none" />
<path d="M314.5,192.5,322.5,185.0,330.5,178.0,339.0,170.5,347.5,163.5" stroke="black" stroke-width="2" fill="none" />
<path d="M339.0,163.0,330.5,170.5,323.0,178.0,315.0,186.0,307.5,194.0" stroke="black" stroke-width="2" fill="none" />
<path d="M306.5,195.5,314.5,195.5,322.5,195.5,330.5,195.5,339.0,195.5,348.0,195.5,356.0,195.0,364.5,194.5,373.0,194.5,381.5,194.0,389.0,193.5,397.0,193.5,405.0,193.0,413.0,193.0,420.5,193.0" stroke="black" stroke-width="2" fill="none" />
<path d="M419.0,197.0,410.5,204.0,403.0,210.5,395.5,217.5,388.0,224.5,380.5,232.0,372.0,239.5,363.5,247.0,355.0,254.5,346.5,262.5,338.0,270.0,330.0,277.5,322.5,285.5,315.0,293.5,307.5,301.5,300.0,309.0,292.0,315.5,284.5,322.5,276.5,329.5,268.5,337.0,260.0,344.5,252.5,352.0" stroke="black" stroke-width="2" fill="none" />
<path d="M252.0,349.5,260.5,349.0,268.5,348.5,276.5,348.0,284.0,347.5,291.5,347.0,299.5,347.0,308.0,347.0,316.0,347.0,324.0,347.0,331.5,346.5,339.5,345.5,347.5,344.0,355.5,343.0,363.5,342.0,371.5,341.0,379.5,340.5,388.0,340.5,396.0,340.0,403.5,340.0,411.5,339.0" stroke="black" stroke-width="2" fill="none" />
<path d="M420.0,289.5,412.5,290.0,404.0,290.5,396.0,291.5,387.5,291.5,379.0,291.5,370.5,291.5,362.5,292.0,355.0,293.0,347.5,294.0,339.5,295.0,331.5,296.0,323.5,296.0,315.5,296.5,307.5,297.5,299.0,298.0,290.5,299.0,283.0,300.0,275.5,300.5,267.5,300.5,259.5,301.0,251.0,302.0" stroke="black" stroke-width="2" fill="none" />
<path d="M266.0,296.5,274.0,294.5,281.5,295.5,289.5,297.0,297.0,297.0" stroke="black" stroke-width="2" fill="none" />
<path d="M274.5,274.0,266.5,273.0,272.5,264.0,281.5,256.0,293.5,248.0,297.0,239.5,297.5,235.0,289.5,232.5,282.5,231.5,283.5,223.5,284.5,215.5,286.5,207.0,288.5,199.5,291.0,191.5,294.0,184.0,297.0,176.0,292.0,168.5,300.0,160.5,304.0,152.5,304.5,144.5,304.5,141.5" stroke="black" stroke-width="2" fill="none" />
<path d="M308.5,142.5,309.5,150.5,309.5,158.0,310.5,165.0,318.0,164.0,326.0,164.0,333.5,164.0,341.0,162.5,348.5,162.5,356.5,162.5,364.5,161.5,372.5,161.5,381.0,162.0,389.0,161.0,397.0,161.0,405.0,160.5,413.0,152.5" stroke="black" stroke-width="2" fill="none" />
<path d="M425.5,152.0,422.5,160.0,425.5,151.0" stroke="black" stroke-width="2" fill="none" />
<path d="M427.0,155.5,419.5,156.0,412.0,157.5,403.5,158.0,394.5,158.0,386.5,158.5,378.5,159.5,371.0,160.5,363.0,161.0,355.5,161.5,347.5,162.0,339.5,162.0,331.5,162.5,323.0,162.0,315.0,162.5,307.0,163.0,299.0,163.5,291.5,163.5" stroke="black" stroke-width="2" fill="none" />
<path d="M292.0,169.5,294.0,165.5,302.0,155.0" stroke="black" stroke-width="2" fill="none" />
<path d="M299.0,157.5,307.5,157.5" stroke="black" stroke-width="2" fill="none" />
<path d="M322.0,178.5,330.0,177.5,338.0,177.0,346.0,177.0,354.0,177.0,362.0,176.5,370.0,177.0,378.0,177.0,386.0,176.0,394.0,176.0" stroke="black" stroke-width="2" fill="none" />
<path d="M395.5,193.0,403.5,193.0" stroke="black" stroke-width="2" fill="none" />
<path d="M404.5,208.5,396.5,209.0" stroke="black" stroke-width="2" fill="none" />
<path d="M410.5,210.5,419.0,203.0" stroke="black" stroke-width="2" fill="none" />
<path d="M419.0,200.0,411.5,200.5,403.5,201.5,395.0,202.0,387.0,202.5,379.0,202.5,371.0,202.0,363.0,202.0,355.5,202.5,347.5,202.5,339.5,203.0,331.0,204.0,322.5,204.5,314.5,205.5,306.5,206.0" stroke="black" stroke-width="2" fill="none" />
<path d="M299.5,209.5,292.0,217.0" stroke="black" stroke-width="2" fill="none" />
<path d="M299.0,218.0,291.5,225.5" stroke="black" stroke-width="2" fill="none" />
<path d="M293.0,225.5,301.0,225.0,309.5,225.5" stroke="black" stroke-width="2" fill="none" />
<path d="M306.5,233.0,315.0,233.0,323.5,233.0,332.0,232.5,340.5,232.5,348.5,232.0,356.5,231.5,364.5,230.5,372.5,229.5,380.5,229.0,388.0,228.5,396.0,228.0" stroke="black" stroke-width="2" fill="none" />
<path d="M402.5,238.0,394.5,238.0,386.5,238.0,379.0,239.0,371.5,239.0" stroke="black" stroke-width="2" fill="none" />
<path d="M378.5,279.0,386.5,276.0,394.5,264.0,403.0,255.5,412.5,253.5,406.0,261.5,407.5,259.5,414.5,253.0,413.5,261.0" stroke="black" stroke-width="2" fill="none" />
<path d="M419.0,267.5,411.5,267.5,403.5,268.0,395.5,268.0,387.5,268.5,379.5,269.0,371.5,269.5,363.0,269.5,355.0,270.0,346.5,270.5,338.5,270.5,330.0,270.0,322.0,270.5,314.5,271.0,306.5,272.0,299.0,273.0,291.5,274.5,283.5,275.5,276.0,276.5,268.5,277.0,261.0,278.0,253.5,279.0,246.0,280.0" stroke="black" stroke-width="2" fill="none" />
<path d="M247.0,280.0,239.0,278.5" stroke="black" stroke-width="2" fill="none" />
<path d="M238.5,276.0,246.5,273.0,254.5,272.0,262.5,271.0,270.5,265.5,279.0,258.5,286.5,253.0,294.5,248.5,295.0,256.5,293.0,270.0,296.0,269.5" stroke="black" stroke-width="2" fill="none" />
<path d="M293.5,261.0,301.5,257.5,298.5,259.5,300.0,251.0" stroke="black" stroke-width="2" fill="none" />
<path d="M309.0,256.0,316.5,255.5,323.5,256.0,331.0,255.5" stroke="black" stroke-width="2" fill="none" />
<path d="M322.5,244.5,314.5,240.5" stroke="black" stroke-width="2" fill="none" />
<path d="M299.0,237.5,307.0,237.0,315.0,237.0,323.0,236.5,331.5,235.5,339.0,235.0,347.0,234.0,354.0,233.5,361.5,233.0,369.0,232.0,377.0,231.5,385.0,231.0,392.5,230.5,401.0,229.5,409.5,229.0,418.5,228.5" stroke="black" stroke-width="2" fill="none" />
<path d="M419.0,245.0,411.5,245.5,403.5,245.5,395.5,246.0,387.0,247.0,378.5,247.5,370.5,248.5,362.5,249.0,354.5,249.5,346.5,249.5,339.0,250.5,331.5,251.5,323.5,252.5,316.5,252.5,309.0,252.5,301.0,253.0,293.0,253.5,285.0,254.0" stroke="black" stroke-width="2" fill="none" />
<path d="M284.5,231.0,292.0,230.0,299.5,229.0,307.5,228.5,315.5,228.5,323.5,228.0,331.5,227.0,339.0,225.5,347.0,224.5,354.5,223.5,362.5,222.5,370.5,222.5,378.5,222.5,386.5,222.5,395.0,222.5,404.0,222.5,412.0,222.0" stroke="black" stroke-width="2" fill="none" />
<path d="M422.0,214.5,413.5,214.5,405.0,214.5,397.0,214.5,389.0,215.0,380.5,214.5,372.5,214.5,365.0,215.0,356.5,215.5,348.5,216.0,340.5,217.0,331.5,217.5,323.5,218.5,315.0,219.5,306.5,220.0,298.0,221.0,289.0,221.5,281.0,222.0" stroke="black" stroke-width="2" fill="none" />
<path d="M281.5,213.5,290.0,213.5,298.5,213.5,307.0,213.0,315.0,211.5,323.5,210.5,331.5,210.0,339.5,209.5,348.0,208.5,356.0,207.5,364.0,207.0,372.0,206.5,379.5,206.0,387.5,205.5,395.5,205.0,404.0,205.0,411.5,205.5,419.5,205.0" stroke="black" stroke-width="2" fill="none" />
<path d="M429.0,182.5,421.0,182.5,413.0,182.5,405.0,183.0,397.0,184.0,389.0,184.5,381.0,185.0,373.0,185.5,365.0,186.0,357.0,186.5,348.5,187.0,340.0,186.5,331.5,187.0,323.5,187.5,315.0,189.0,307.0,189.5,299.5,189.5,291.5,190.0" stroke="black" stroke-width="2" fill="none" />
<path d="M289.5,194.0,297.5,175.5,298.5,188.5,295.5,197.0,294.5,205.0,296.5,213.0,302.5,221.0" stroke="black" stroke-width="2" fill="none" />
<path d="M299.0,232.0,307.5,224.5,315.5,217.0,322.5,209.5,330.5,202.0,338.5,194.0,346.5,186.5,354.5,178.5,362.5,171.0,370.5,163.5" stroke="black" stroke-width="2" fill="none" />
<path d="M414.0,177.0,415.0,185.0,414.5,193.0,415.0,201.0,414.5,208.5,414.5,217.0,417.0,226.0,418.5,234.5,421.0,242.5,419.0,250.5,417.0,258.5,421.5,263.0,421.5,271.0,421.5,278.5,417.0,286.5,415.0,294.5,414.0,302.0,413.5,310.0,413.5,317.5,412.0,325.5,411.5,333.5,411.5,341.5,410.5,349.5,410.5,358.0,410.0,366.0,410.5,374.5,409.5,382.5,409.0,391.0,408.0,399.0,408.0,407.0,407.0,415.0,407.0,423.0,405.5,431.0,404.0,439.0,404.0,447.0,403.5,455.0,402.5,463.0,402.5,471.0,402.5,479.0,402.5,487.0,403.0,494.5,403.0,503.0,405.0,511.0,412.0,519.0,409.0,526.5" stroke="black" stroke-width="2" fill="none" />
<path d="M221.0,462.5,212.5,462.5,204.0,463.0,196.0,463.0" stroke="black" stroke-width="2" fill="none" />
<path d="M197.5,456.0,205.5,455.0" stroke="black" stroke-width="2" fill="none" />
<path d="M209.5,449.0,201.5,447.5" stroke="black" stroke-width="2" fill="none" />
<path d="M204.0,429.0,196.0,429.5,188.5,430.0" stroke="black" stroke-width="2" fill="none" />
<path d="M187.5,416.5,195.0,409.5,203.5,401.5,212.0,394.0,220.5,387.0" stroke="black" stroke-width="2" fill="none" />
<path d="M219.5,379.5,211.0,387.5,203.5,394.0,196.0,401.0,188.5,408.5,181.0,415.5" stroke="black" stroke-width="2" fill="none" />
<path d="M180.0,408.5,188.0,401.5,195.5,393.5,203.0,386.0,211.0,379.0,219.5,371.5" stroke="black" stroke-width="2" fill="none" />
<path d="M219.5,368.0,211.5,368.0" stroke="black" stroke-width="2" fill="none" />
<path d="M209.5,370.5,217.5,363.0" stroke="black" stroke-width="2" fill="none" />
<path d="M210.0,362.5,217.5,354.5" stroke="black" stroke-width="2" fill="none" />
<path d="M220.0,352.0,212.0,352.5" stroke="black" stroke-width="2" fill="none" />
<path d="M210.5,354.0,218.0,346.5" stroke="black" stroke-width="2" fill="none" />
<path d="M219.0,345.0,211.5,345.5" stroke="black" stroke-width="2" fill="none" />
<path d="M211.0,345.5,218.5,337.0" stroke="black" stroke-width="2" fill="none" />
<path d="M220.5,336.0,213.0,336.5" stroke="black" stroke-width="2" fill="none" />
<path d="M211.0,338.5,219.0,331.0" stroke="black" stroke-width="2" fill="none" />
<path d="M220.5,329.5,212.5,330.5" stroke="black" stroke-width="2" fill="none" />
<path d="M211.0,330.5,219.0,322.5" stroke="black" stroke-width="2" fill="none" />
<path d="M220.0,316.0,211.5,323.0" stroke="black" stroke-width="2" fill="none" />
<path d="M210.0,323.0,214.5,318.5,210.5,326.5,211.0,334.5,211.0,342.0,211.5,350.0,211.5,358.0,211.5,365.5,208.5,373.5,202.5,382.0,202.5,390.0,208.5,374.0,210.5,378.0,205.0,385.5,208.5,380.5,216.0,373.5,214.5,381.5,209.5,389.0,203.5,397.0,203.5,405.0,208.0,390.0,220.5,382.0,220.0,390.0,220.0,398.5,219.5,406.5,220.5,415.0,220.5,423.0,220.5,431.0,220.5,439.0,221.5,447.0,221.5,455.0,222.5,463.0,224.5,471.0,229.5,479.0,231.5,487.0" stroke="black" stroke-width="2" fill="none" />
<path d="M204.5,495.5,196.5,496.0,188.5,497.0" stroke="black" stroke-width="2" fill="none" />
<path d="M188.5,473.0,196.0,473.0,204.0,472.5,211.5,472.5" stroke="black" stroke-width="2" fill="none" />
<path d="M156.0,511.5,164.0,511.0,171.5,510.0,179.5,509.0,188.0,508.0,195.5,506.5,203.5,505.5,211.0,505.0,219.0,504.0,227.5,503.5,235.5,503.0,243.5,503.0,252.0,503.0,260.5,502.0,269.0,501.0,277.0,500.5,285.0,500.5,293.5,500.0,301.5,499.5,310.0,498.5,318.0,497.5,326.0,497.0,333.5,496.5,341.5,496.0,349.5,495.5,357.0,495.5,365.0,495.5,373.0,495.5,381.0,495.5,389.0,495.5" stroke="black" stroke-width="2" fill="none" />
<path d="M213.5,474.0,205.5,475.0,197.5,475.5,190.0,476.0,182.0,476.5,173.5,477.5,165.0,478.5,157.5,479.0,149.0,479.5,140.5,480.0,132.0,480.5,124.5,481.0" stroke="black" stroke-width="2" fill="none" />
<path d="M131.0,464.0,122.5,463.5,114.5,464.0" stroke="black" stroke-width="2" fill="none" />
<path d="M114.5,459.0,123.0,452.0,131.0,444.5" stroke="black" stroke-width="2" fill="none" />
<path d="M132.5,450.0,125.0,451.0" stroke="black" stroke-width="2" fill="none" />
<path d="M125.0,447.5,133.0,447.0,140.5,446.5,148.0,445.5,155.5,444.5,164.0,444.0,172.0,443.0,180.0,442.5" stroke="black" stroke-width="2" fill="none" />
<path d="M171.0,410.0,179.0,402.5,186.5,395.0,193.5,387.5,201.5,380.0" stroke="black" stroke-width="2" fill="none" />
<path d="M203.0,373.0,195.0,380.0,187.0,387.5,179.0,395.0,171.0,402.5,163.0,410.0" stroke="black" stroke-width="2" fill="none" />
<path d="M157.0,409.5,165.5,402.0,172.5,394.5,180.0,387.0,188.0,379.5,196.0,372.5,204.0,365.0" stroke="black" stroke-width="2" fill="none" />
<path d="M204.5,356.0,196.5,363.5,189.0,371.0,181.5,378.5,174.0,386.5,166.0,394.0,157.5,401.5,149.0,409.0" stroke="black" stroke-width="2" fill="none" />
<path d="M140.5,409.0,148.5,401.5,156.5,393.5,164.0,385.5,172.5,378.5,180.5,371.5,188.0,364.0,196.0,356.5,204.5,349.0" stroke="black" stroke-width="2" fill="none" />
<path d="M201.5,341.0,193.5,348.5,186.0,356.0,178.5,363.5,172.0,371.0,165.0,378.5,157.5,386.5,150.0,394.0,142.0,401.0,134.0,408.5,126.0,416.0" stroke="black" stroke-width="2" fill="none" />
<path d="M129.5,415.0,129.5,422.5,129.5,430.0,129.5,437.5,131.5,443.0,140.0,444.0,148.0,443.5,156.0,444.5,164.0,444.5,172.5,445.5,180.5,446.0,188.5,445.5" stroke="black" stroke-width="2" fill="none" />
<path d="M195.5,390.5,188.0,391.5,180.5,392.5,173.0,393.5,165.0,395.0,157.5,395.5" stroke="black" stroke-width="2" fill="none" />
<path d="M171.5,386.0,180.0,386.0,188.5,385.5,196.5,385.0" stroke="black" stroke-width="2" fill="none" />
<path d="M196.5,376.0,188.0,376.5,179.5,377.0,172.0,377.0" stroke="black" stroke-width="2" fill="none" />
<path d="M172.0,370.0,180.5,369.5,189.0,369.0,197.0,368.0" stroke="black" stroke-width="2" fill="none" />
<path d="M194.0,360.0,186.5,360.5,178.5,361.5,170.5,362.0" stroke="black" stroke-width="2" fill="none" />
<path d="M164.5,370.0,156.5,370.5" stroke="black" stroke-width="2" fill="none" />
<path d="M147.0,354.0,155.0,353.5,163.0,353.5,171.5,353.0,180.5,353.0,189.0,352.0,197.0,351.5" stroke="black" stroke-width="2" fill="none" />
<path d="M203.0,321.0,195.0,329.0,187.0,337.0,179.0,345.0,171.0,353.0,162.5,361.5,154.5,369.0,146.5,376.0,138.5,383.5,130.5,391.5,122.5,399.0,114.5,407.0" stroke="black" stroke-width="2" fill="none" />
<path d="M107.0,404.5,115.0,397.5,123.5,391.0,132.0,384.0,139.5,376.5,148.0,369.0,155.5,361.5,164.0,354.0,172.0,346.0,180.5,338.5,188.5,331.0,197.0,323.5,205.5,316.0,213.5,309.0,221.5,302.0" stroke="black" stroke-width="2" fill="none" />
<path d="M219.0,308.5,211.5,316.0" stroke="black" stroke-width="2" fill="none" />
<path d="M203.0,306.5,194.5,314.5,186.0,322.0,178.0,330.0,170.0,337.5,162.5,345.5,154.0,352.5,146.5,359.5,138.5,367.0,131.5,375.0,123.5,382.5,115.5,390.0,107.5,397.0,99.5,404.5,91.5,412.0,84.0,419.5" stroke="black" stroke-width="2" fill="none" />
<path d="M85.0,422.5,93.0,422.0,101.0,421.0" stroke="black" stroke-width="2" fill="none" />
<path d="M96.0,417.0,104.0,413.0,111.5,414.0,119.5,413.5,120.5,421.0,120.5,428.5,120.5,436.5,120.0,444.0,115.5,452.0,108.5,460.5,101.0,468.5" stroke="black" stroke-width="2" fill="none" />
<path d="M98.0,467.5,90.5,475.5" stroke="black" stroke-width="2" fill="none" />
<path d="M91.5,483.0,99.5,475.0" stroke="black" stroke-width="2" fill="none" />
<path d="M91.5,469.5,99.5,462.0" stroke="black" stroke-width="2" fill="none" />
<path d="M105.0,461.5,113.5,461.0,121.5,461.0,130.0,461.0,139.0,460.5,147.5,460.0,155.0,459.5,162.5,459.0,170.5,458.5,178.5,458.0,187.0,457.5,194.5,457.5,203.0,457.0,211.5,456.0,220.5,455.0,228.5,454.5" stroke="black" stroke-width="2" fill="none" />
<path d="M228.5,446.5,220.5,447.0,212.0,447.5,203.5,448.0,196.0,448.0,188.0,449.0,180.0,449.5,172.0,450.5,164.0,451.5,156.0,451.5,147.5,452.0,138.5,452.5,130.0,453.0,122.0,453.0,113.5,454.0" stroke="black" stroke-width="2" fill="none" />
<path d="M124.0,456.5,132.0,456.5" stroke="black" stroke-width="2" fill="none" />
<path d="M121.5,444.5,129.5,437.0" stroke="black" stroke-width="2" fill="none" />
<path d="M132.0,436.0,123.5,436.5" stroke="black" stroke-width="2" fill="none" />
<path d="M123.0,436.0,131.0,428.5" stroke="black" stroke-width="2" fill="none" />
<path d="M130.5,421.5,122.5,429.0" stroke="black" stroke-width="2" fill="none" />
<path d="M121.5,428.0,129.5,427.5" stroke="black" stroke-width="2" fill="none" />
<path d="M130.5,421.0,122.5,422.0" stroke="black" stroke-width="2" fill="none" />
<path d="M122.5,418.0,131.0,417.5" stroke="black" stroke-width="2" fill="none" />
<path d="M131.5,414.0,139.5,414.5,147.5,414.5,155.0,415.5,163.0,415.5,171.0,416.5,179.0,418.0,181.0,419.5,187.5,427.5,190.0,436.0,191.0,444.0" stroke="black" stroke-width="2" fill="none" />
<path d="M147.5,394.0,139.5,394.5,132.5,395.5,125.0,396.0" stroke="black" stroke-width="2" fill="none" />
<path d="M106.5,386.5,98.5,387.0" stroke="black" stroke-width="2" fill="none" />
<path d="M93.0,392.5,101.5,392.0,109.5,392.0,117.0,391.5" stroke="black" stroke-width="2" fill="none" />
<path d="M114.0,377.0,105.0,377.5,97.0,378.0" stroke="black" stroke-width="2" fill="none" />
<path d="M98.5,369.0,106.5,368.5,114.5,368.0" stroke="black" stroke-width="2" fill="none" />
<path d="M106.5,360.5,98.5,360.5" stroke="black" stroke-width="2" fill="none" />
<path d="M92.5,365.5,93.0,373.5,97.0,381.5" stroke="black" stroke-width="2" fill="none" />
<path d="M82.5,378.5,91.0,371.0,99.5,363.5,108.0,356.0,117.0,348.0,125.0,340.0,133.0,331.5,141.5,324.0,149.0,316.5,157.0,309.5,164.5,302.5,172.0,295.5,179.0,289.0,186.5,281.5,194.5,274.0,202.5,267.0,210.5,260.0,218.5,252.0" stroke="black" stroke-width="2" fill="none" />
<path d="M219.5,243.5,211.5,251.0,203.5,258.0,195.5,265.5,187.5,273.0,180.0,280.5,171.5,288.0,163.0,295.0,155.0,302.5,147.0,310.0,139.5,317.5,131.0,325.0,123.0,332.5,115.0,339.5,106.5,347.0,98.5,354.5,91.0,362.5,83.5,370.0" stroke="black" stroke-width="2" fill="none" />
<path d="M84.0,369.0,92.0,368.0,99.5,367.5,107.0,366.5,115.0,365.0,123.0,364.0,131.0,362.5,139.0,361.5,146.5,360.5,155.0,359.5,163.0,359.0,171.0,358.5,179.0,358.0,187.5,358.0,195.5,358.0,204.0,357.5,212.5,357.5,221.0,357.5" stroke="black" stroke-width="2" fill="none" />
<path d="M260.0,354.0,268.5,354.0" stroke="black" stroke-width="2" fill="none" />
<path d="M272.5,344.0,271.5,352.0,271.5,359.5,272.0,367.5" stroke="black" stroke-width="2" fill="none" />
<path d="M261.0,366.0,262.0,374.0,259.5,388.0" stroke="black" stroke-width="2" fill="none" />
<path d="M196.0,339.5,188.5,340.5,180.5,341.5,172.5,342.0,164.5,343.0,157.0,344.0,149.0,344.5,140.5,345.0,132.5,345.5,124.0,346.0" stroke="black" stroke-width="2" fill="none" />
<path d="M106.5,350.5,98.5,351.5" stroke="black" stroke-width="2" fill="none" />
<path d="M90.5,352.5,83.0,353.0" stroke="black" stroke-width="2" fill="none" />
<path d="M83.0,356.0,90.5,348.5,98.5,341.0,106.5,334.5,114.0,327.0,122.0,319.5,130.0,312.0,138.0,304.0,145.5,296.5,153.5,288.5,161.5,280.5,169.5,273.0,177.5,266.0,186.0,259.0,194.0,252.0,202.0,244.0,210.0,236.5" stroke="black" stroke-width="2" fill="none" />
<path d="M213.0,229.5,204.5,237.5,196.5,245.0,188.0,252.0,179.5,259.5,171.5,266.5,163.0,274.0,154.5,281.0,146.5,288.0,138.5,295.0,130.5,302.5,122.5,309.5,115.0,317.0,107.0,324.5,99.0,332.0,90.5,339.5,82.5,347.0" stroke="black" stroke-width="2" fill="none" />
<path d="M83.0,345.5,91.0,345.0,98.5,344.0,106.5,343.5" stroke="black" stroke-width="2" fill="none" />
<path d="M90.5,354.5,90.5,350.5,90.0,351.5,90.0,359.0,89.5,367.0,91.0,375.0,92.0,382.5,93.0,390.5,96.0,388.5" stroke="black" stroke-width="2" fill="none" />
<path d="M83.5,388.0,91.0,381.0,99.5,374.0,107.0,366.5,115.0,359.5,123.5,351.5,131.5,344.0,139.5,336.5,148.0,329.0,156.0,321.0,163.5,314.0,171.0,306.5,178.5,298.5,186.0,290.5,194.0,283.0,202.0,275.5,210.5,268.0" stroke="black" stroke-width="2" fill="none" />
<path d="M204.5,268.0,197.0,268.5,189.0,269.5,180.5,270.5,172.5,271.5,164.5,272.0,157.0,272.5,149.0,272.5,141.0,273.0,133.5,273.0,125.5,273.0" stroke="black" stroke-width="2" fill="none" />
<path d="M116.5,265.5,124.0,265.5,132.0,265.5,140.5,265.5,148.5,265.0,156.5,265.0,164.5,264.0,172.0,263.5,179.5,262.5,188.0,262.0,196.0,261.5,204.0,261.0" stroke="black" stroke-width="2" fill="none" />
<path d="M203.5,263.5,211.5,246.5,220.0,253.5,221.5,261.0,222.0,269.5,220.5,277.0,219.5,285.0,219.5,293.5,219.5,301.5,220.0,310.0,211.0,312.0,202.0,315.0,209.5,309.5,211.5,307.5,200.5,315.5,204.0,316.5,212.0,310.0,220.0,311.0,220.0,319.0,220.0,327.0,220.0,335.5,220.0,343.5,219.5,351.0,219.5,358.5,219.5,366.5,219.5,374.0,217.5,382.5,211.5,391.0,206.5,399.5,208.5,403.0,203.5,411.0,201.0,419.0,201.5,427.5,201.0,435.5,200.5,443.0,199.5,451.0,199.5,459.0,199.5,467.0" stroke="black" stroke-width="2" fill="none" />
<path d="M202.5,402.5,195.5,403.0,187.5,403.5,179.5,404.5,171.0,405.0,163.5,405.0,155.5,405.5,147.5,406.5,139.5,407.0,131.5,408.0,123.5,409.0,115.5,409.5,107.5,410.5,99.5,411.5,91.5,412.0" stroke="black" stroke-width="2" fill="none" />
<path d="M97.0,411.5,95.0,419.0,94.0,427.5,94.5,435.5,94.5,443.5,95.5,451.5,95.5,459.5,95.5,467.5,95.5,477.0,96.5,474.0,104.5,465.0,112.5,456.0" stroke="black" stroke-width="2" fill="none" />
<path d="M99.5,453.0,91.5,460.5" stroke="black" stroke-width="2" fill="none" />
<path d="M85.0,463.0,93.0,463.0,101.0,462.0" stroke="black" stroke-width="2" fill="none" />
<path d="M91.0,452.0,98.5,444.5" stroke="black" stroke-width="2" fill="none" />
<path d="M101.5,454.0,93.5,454.5,85.5,455.5" stroke="black" stroke-width="2" fill="none" />
<path d="M84.5,447.0,92.5,446.5,100.5,446.0" stroke="black" stroke-width="2" fill="none" />
<path d="M100.5,437.5,92.5,437.5,84.0,437.5" stroke="black" stroke-width="2" fill="none" />
<path d="M84.5,429.5,92.5,429.0,100.0,429.5" stroke="black" stroke-width="2" fill="none" />
<path d="M100.5,412.5,93.0,413.0,85.5,413.0" stroke="black" stroke-width="2" fill="none" />
<path d="M82.0,412.0,90.5,404.0,99.0,396.5,107.0,389.0,115.0,381.5,122.5,374.0,130.5,367.0,138.0,360.0,146.0,353.0,154.5,345.5,162.0,338.5,170.5,331.0,178.5,323.5,187.0,315.5,194.5,308.0,202.0,300.0" stroke="black" stroke-width="2" fill="none" />
<path d="M203.0,291.5,195.0,299.0,187.0,307.0,179.0,315.0,171.0,322.5,162.5,330.0,155.0,337.5,147.5,345.0,139.5,352.5,131.5,360.0,123.0,367.5,115.0,374.5,107.0,381.5,99.5,389.0,92.0,396.5,84.0,405.0" stroke="black" stroke-width="2" fill="none" />
<path d="M84.0,407.5,92.0,406.0,99.5,405.5,107.0,404.5,115.0,403.0,122.5,402.5,131.0,402.0,139.0,401.5,147.0,401.0,154.5,400.0,162.5,400.0,170.5,399.5,178.5,399.0,187.0,399.0,195.5,399.5,204.0,399.0" stroke="black" stroke-width="2" fill="none" />
<path d="M196.0,311.5,188.0,312.0" stroke="black" stroke-width="2" fill="none" />
<path d="M188.5,305.0,197.5,304.5" stroke="black" stroke-width="2" fill="none" />
<path d="M196.5,297.0,189.0,298.0" stroke="black" stroke-width="2" fill="none" />
<path d="M187.0,302.0,186.0,310.0" stroke="black" stroke-width="2" fill="none" />
<path d="M180.5,303.5,172.0,304.0,163.0,304.5,155.0,304.5,147.0,304.5,139.0,305.0" stroke="black" stroke-width="2" fill="none" />
<path d="M139.0,298.5,146.5,298.5,155.0,298.0,163.5,297.0,172.5,296.0,180.5,295.5" stroke="black" stroke-width="2" fill="none" />
<path d="M183.0,298.5,183.5,307.0,183.5,315.0" stroke="black" stroke-width="2" fill="none" />
<path d="M212.0,299.5,219.5,292.0" stroke="black" stroke-width="2" fill="none" />
<path d="M214.0,292.5,222.0,285.0" stroke="black" stroke-width="2" fill="none" />
<path d="M220.0,276.5,212.0,283.5" stroke="black" stroke-width="2" fill="none" />
<path d="M210.5,283.0,215.5,276.0,211.5,283.5,211.5,291.5,211.0,299.5,202.0,307.0,202.5,307.0,211.0,300.5" stroke="black" stroke-width="2" fill="none" />
<path d="M214.5,289.5,222.5,289.0" stroke="black" stroke-width="2" fill="none" />
<path d="M219.5,316.5,212.0,317.0,205.0,318.0,197.5,319.0,189.5,320.0,181.5,320.5,173.0,321.0,165.0,322.0,157.0,322.0,148.5,323.0,140.0,323.0,131.5,323.0,123.0,323.5,114.5,324.0,107.0,324.5,99.0,325.0,91.0,325.5,83.0,325.5,75.0,325.5" stroke="black" stroke-width="2" fill="none" />
<path d="M74.0,319.0,82.0,318.5,90.5,318.0,99.0,317.5,107.0,316.5,115.0,316.5,123.5,316.0,132.5,316.0,141.0,315.5,149.5,315.0,157.5,314.5,165.5,313.5,173.5,313.0,181.5,312.0,189.0,311.0,196.5,310.5,204.5,309.0,212.0,308.5,220.0,307.5" stroke="black" stroke-width="2" fill="none" />
<path d="M180.0,310.0,171.5,310.5,163.0,311.0,154.5,312.0,146.5,312.5,138.5,312.5,130.5,312.5,123.0,313.0,115.5,313.5" stroke="black" stroke-width="2" fill="none" />
<path d="M115.0,306.0,123.5,305.5" stroke="black" stroke-width="2" fill="none" />
<path d="M129.0,298.5,118.0,297.5,110.0,299.5" stroke="black" stroke-width="2" fill="none" />
<path d="M109.5,297.5,117.0,294.5,125.5,296.5" stroke="black" stroke-width="2" fill="none" />
<path d="M122.5,255.5,130.5,255.5,138.5,255.5,147.0,255.5,155.5,255.0,164.0,254.5,172.5,254.5,180.5,254.0,189.0,254.0,196.5,253.5,205.0,253.0" stroke="black" stroke-width="2" fill="none" />
<path d="M211.5,245.0,204.0,246.0,196.0,246.5,188.0,247.0,180.5,248.0,173.0,248.5,165.5,248.5,158.0,249.0,149.5,249.0,142.0,249.0,133.5,249.5,125.5,250.0,117.5,250.5" stroke="black" stroke-width="2" fill="none" />
<path d="M114.0,248.5,113.5,256.5,113.0,248.5" stroke="black" stroke-width="2" fill="none" />
<path d="M111.5,247.0,107.5,255.0,114.5,266.5,108.5,267.5" stroke="black" stroke-width="2" fill="none" />
<path d="M105.5,259.5,98.0,267.0,90.5,275.5,83.0,283.0,75.0,290.5" stroke="black" stroke-width="2" fill="none" />
<path d="M76.5,292.5,84.5,292.0,93.0,292.0,101.5,291.5,109.5,291.5,117.5,291.0,125.0,290.5,133.0,290.0,140.5,289.5,148.5,289.0,156.5,288.5,164.5,288.0,172.0,288.5,180.0,288.0,188.0,287.5,196.5,287.0,204.0,287.0,211.0,286.5,218.5,285.5" stroke="black" stroke-width="2" fill="none" />
<path d="M219.5,301.5,211.5,302.0,203.5,302.5,196.0,303.5,188.0,303.5,180.5,304.5,172.5,305.0,164.5,305.5,156.5,306.0,148.5,306.5,140.5,307.0,132.0,307.0,124.0,307.0,116.5,307.0,108.0,307.0,99.5,307.0,91.5,307.5,83.5,308.5,75.5,309.5" stroke="black" stroke-width="2" fill="none" />
<path d="M82.0,305.5,90.5,297.0,98.5,289.5,106.5,282.5,114.5,275.0,122.5,267.5,131.0,260.0,139.0,252.5,146.5,245.0,154.5,238.0,163.0,231.0,171.0,224.0,179.0,217.0,187.0,210.0,195.0,202.5,202.5,195.0,210.5,187.5,219.0,180.0" stroke="black" stroke-width="2" fill="none" />
<path d="M219.5,175.5,212.0,176.0,204.5,176.5,196.5,176.5,188.0,177.0,180.0,177.5,171.5,178.0,163.0,178.0,155.0,177.5,147.0,177.5,139.5,178.0,131.5,179.5,123.0,180.5,115.5,181.5,107.0,182.0" stroke="black" stroke-width="2" fill="none" />
<path d="M107.5,184.0,106.5,192.0,105.5,200.0,106.0,208.5,111.0,216.5" stroke="black" stroke-width="2" fill="none" />
<path d="M106.5,218.0,98.0,225.5" stroke="black" stroke-width="2" fill="none" />
<path d="M100.5,225.5,108.0,225.5,116.0,225.0,123.5,224.5,131.5,224.5,139.0,224.0,147.5,224.0,155.5,224.0,164.0,224.0,172.5,223.5,181.0,223.0,188.5,222.5,195.5,221.5,203.5,221.0" stroke="black" stroke-width="2" fill="none" />
<path d="M218.5,235.0,211.0,242.5,203.0,250.0,195.0,257.5,186.5,265.0,178.0,273.0,169.5,280.5,162.0,287.5,154.0,295.0,146.5,302.5,138.5,309.5,130.5,317.0,123.0,325.0,115.0,333.0,107.5,340.5,99.5,348.0,92.0,356.5,84.5,365.0" stroke="black" stroke-width="2" fill="none" />
<path d="M82.0,363.0,90.0,362.0" stroke="black" stroke-width="2" fill="none" />
<path d="M92.0,371.5,84.0,372.5" stroke="black" stroke-width="2" fill="none" />
<path d="M84.0,374.0,91.5,374.0,99.0,373.5,106.5,372.5,114.5,371.5,123.0,371.0,131.0,371.0,139.5,370.5,148.0,370.0,156.0,369.5,164.5,368.5,172.0,368.5,180.0,368.0,187.5,367.5,195.5,367.5,203.0,367.0,211.5,367.0,219.5,367.0" stroke="black" stroke-width="2" fill="none" />
<path d="M196.5,396.5,188.0,396.5,180.0,396.5,172.5,396.5,164.0,397.5,156.0,397.5,147.5,398.0,139.0,399.0,131.0,399.5,123.0,400.0,115.0,400.5,107.0,401.0,99.5,402.0,92.0,402.5" stroke="black" stroke-width="2" fill="none" />
<path d="M81.0,390.5,89.0,390.0,97.0,388.5,105.0,387.5,113.5,385.5,122.0,385.0,129.5,384.0,138.0,383.5,146.0,383.0,154.5,382.5,162.5,382.5,170.5,381.5,178.5,381.0,186.5,380.0,194.0,379.5,201.5,379.0,210.0,378.5,218.5,378.5" stroke="black" stroke-width="2" fill="none" />
<path d="M227.5,461.5,220.0,461.5,212.0,461.5,204.5,461.0,196.5,461.5,188.5,462.5,180.5,463.0,172.5,464.0,164.0,464.0,156.0,464.5,148.0,465.0,140.0,465.5,132.0,466.5,124.0,467.0,116.0,468.0,108.0,468.5,100.0,469.5,92.0,470.0,84.0,471.0" stroke="black" stroke-width="2" fill="none" />
<path d="M93.0,483.5,100.5,483.0" stroke="black" stroke-width="2" fill="none" />
<path d="M100.5,492.0,92.5,492.5,84.5,493.0" stroke="black" stroke-width="2" fill="none" />
<path d="M85.5,502.5,93.5,502.0,101.5,501.0" stroke="black" stroke-width="2" fill="none" />
<path d="M99.5,494.0,95.0,502.0,92.5,510.0,90.5,518.0,88.5,526.0,85.5,534.0" stroke="black" stroke-width="2" fill="none" />
<path d="M92.5,533.0,84.0,534.5,76.0,535.0" stroke="black" stroke-width="2" fill="none" />
<path d="M72.0,535.5,80.0,539.5,87.5,539.0,95.5,537.0,103.0,534.5,111.0,532.5,119.0,530.5,127.0,529.5,135.0,528.0,143.0,527.0,151.0,528.0,159.0,532.0,166.5,534.0,174.5,538.5,182.5,542.5,190.5,546.5" stroke="black" stroke-width="2" fill="none" />
<path d="M181.5,540.5,163.5,533.0" stroke="black" stroke-width="2" fill="none" />
<path d="M91.0,516.0,83.0,524.0" stroke="black" stroke-width="2" fill="none" />
<path d="M83.0,516.0,91.0,508.5" stroke="black" stroke-width="2" fill="none" />
<path d="M89.5,515.5,81.5,516.0" stroke="black" stroke-width="2" fill="none" />
<path d="M83.5,509.5,91.5,509.0" stroke="black" stroke-width="2" fill="none" />
<path d="M91.5,525.0,83.0,525.5,74.5,526.0" stroke="black" stroke-width="2" fill="none" />
<path d="M78.0,522.5,70.0,534.5" stroke="black" stroke-width="2" fill="none" />
<path d="M81.5,384.5,89.5,383.5" stroke="black" stroke-width="2" fill="none" />
<path d="M82.0,381.0,90.0,380.0,98.5,379.0,107.0,379.0,115.5,379.5,124.0,379.0,132.0,378.0,140.0,377.0,148.0,376.0,155.5,376.0,163.0,375.0,171.0,375.0,179.0,374.5,187.0,374.5,195.5,374.5,204.0,374.0,211.5,374.0,219.0,373.5" stroke="black" stroke-width="2" fill="none" />
<path d="M218.0,347.5,210.0,348.5,202.5,349.5,194.0,350.5,186.5,351.5,179.0,352.5,171.0,353.0,163.0,354.0,155.0,354.5,147.5,355.0,139.5,355.5,131.0,356.0,123.0,356.5,115.0,356.5,107.0,357.0,98.5,357.0,90.0,357.0,81.5,357.0" stroke="black" stroke-width="2" fill="none" />
<path d="M82.0,348.5,90.5,348.5,98.5,348.5,107.0,348.0,115.5,348.0,124.0,347.5,132.5,348.0,141.0,348.0,149.5,348.0,157.5,347.5,165.5,346.5,173.5,346.5,181.0,345.5,189.0,345.0,196.5,344.0,203.5,343.0,211.5,342.5,219.5,341.5" stroke="black" stroke-width="2" fill="none" />
<path d="M219.5,333.5,211.5,334.0,203.5,335.0,195.5,336.0,187.5,336.5,179.5,337.5,171.5,338.5,163.5,339.0,155.5,339.5,147.5,339.0,139.0,339.5,130.0,340.0,122.0,340.5,114.0,340.5,106.0,340.5,98.5,340.5,90.5,341.5,83.0,342.0" stroke="black" stroke-width="2" fill="none" />
<path d="M84.0,332.0,92.0,325.0,100.0,318.0,108.0,310.0,116.5,302.5,124.5,295.0,132.0,287.5,140.5,279.5,148.5,272.5,156.0,264.5,163.5,256.5,172.0,249.5,180.0,242.0,188.0,233.5,195.5,226.0,203.0,218.5,211.0,211.5,219.0,204.5" stroke="black" stroke-width="2" fill="none" />
<path d="M219.0,196.0,211.0,203.5,203.5,211.5,196.0,219.5,188.0,226.5,180.0,234.0,172.0,242.0,164.5,249.5,156.5,257.0,148.0,265.0,140.0,272.5,132.5,280.0,124.5,287.0,116.5,294.5,109.0,301.5,100.0,308.5,91.5,315.5,83.0,323.0" stroke="black" stroke-width="2" fill="none" />
<path d="M84.0,321.0,92.0,320.0,99.5,319.5,107.0,319.0,115.5,318.5,123.5,317.5,131.5,317.5,140.0,317.0,148.5,317.0,156.5,316.5,164.5,315.5,173.0,315.5,180.5,315.0,188.0,315.0,196.0,315.0" stroke="black" stroke-width="2" fill="none" />
<path d="M197.0,321.5,189.0,322.5,181.5,323.0,173.5,323.0,165.0,323.5,157.0,324.0,149.0,325.5,141.5,326.5,133.5,327.5,125.5,328.5,117.5,329.0,109.5,330.0,101.0,330.5,92.5,330.5,84.5,331.5" stroke="black" stroke-width="2" fill="none" />
<path d="M74.5,333.0,82.5,332.5,91.0,332.5,99.5,332.5,107.5,332.5,116.0,332.5,124.5,332.0,132.0,331.5,140.0,331.0,148.0,330.5,156.0,330.0,164.0,329.0,172.0,328.5,180.0,327.5,188.0,327.0,196.0,326.0,204.0,325.5,212.0,324.5,220.0,324.0" stroke="black" stroke-width="2" fill="none" />
<path d="M219.0,294.0,211.0,294.5,203.5,295.0,196.0,295.0,188.0,295.5,180.0,296.5,172.5,296.5,164.5,296.5,156.0,296.5,148.0,297.5,140.0,298.0,131.5,298.0,123.5,298.0,115.5,298.0,108.0,298.5,100.0,298.5,92.0,299.0,85.0,299.5,77.0,300.0" stroke="black" stroke-width="2" fill="none" />
<path d="M83.5,298.0,92.0,297.5,99.5,296.5" stroke="black" stroke-width="2" fill="none" />
<path d="M84.5,290.0,92.0,282.5,99.5,274.5,107.5,267.5,115.0,260.0,123.0,253.0,130.5,245.5,139.0,238.0,147.0,230.0,155.5,223.0,164.0,215.5,171.5,208.0,180.0,201.0,187.5,193.0,195.5,186.0,203.0,179.0,211.0,172.0" stroke="black" stroke-width="2" fill="none" />
<path d="M203.5,172.5,196.0,180.0,188.0,187.5,179.5,194.5,171.5,202.0,163.5,209.5,155.5,216.5,147.5,224.0,139.5,231.5,131.5,240.0,123.5,248.0,115.5,255.0,107.0,262.5,99.0,270.0,91.5,277.0,83.5,284.5" stroke="black" stroke-width="2" fill="none" />
<path d="M77.5,283.5,85.5,283.0,93.5,283.0,101.5,283.5,110.0,283.5,118.5,283.0,126.0,283.0,133.5,282.5,141.5,282.0,149.0,282.0,157.0,281.5,165.0,281.0,173.0,280.0,181.0,280.0,189.0,280.0,196.5,280.0,203.5,279.5,211.0,279.0,218.5,278.5" stroke="black" stroke-width="2" fill="none" />
<path d="M219.0,268.0,211.0,268.5,203.0,269.0,194.5,269.5,187.0,270.0,179.0,271.5,171.5,272.5,164.0,273.0,156.0,274.5,148.5,275.0,140.5,275.5,132.5,276.0,124.5,276.5,117.0,277.0,108.5,277.5,101.0,278.0,93.0,278.5,84.0,278.5,76.0,278.5" stroke="black" stroke-width="2" fill="none" />
<path d="M76.0,281.5,84.0,280.5,92.5,280.0,100.5,279.0,109.0,278.5,117.0,278.0,125.0,277.5,133.0,278.0,141.0,277.5,149.5,277.0,157.5,276.0,165.0,276.0,172.5,275.5,180.0,275.0,187.5,275.0,195.0,275.0" stroke="black" stroke-width="2" fill="none" />
<path d="M201.5,269.0,209.5,264.0,217.0,252.5" stroke="black" stroke-width="2" fill="none" />
<path d="M213.0,236.5,205.0,238.0,197.5,238.5,189.5,239.0,181.5,238.5,173.5,238.5,165.0,239.0,156.5,240.0,148.5,240.0,140.5,240.5,132.5,241.0,125.0,242.0,116.5,243.0" stroke="black" stroke-width="2" fill="none" />
<path d="M115.0,247.0,122.5,239.5,130.5,232.0,138.5,224.5,146.0,217.5,154.0,210.0,162.5,202.5,171.5,195.5,179.0,188.5,186.5,181.5,194.5,174.0" stroke="black" stroke-width="2" fill="none" />
<path d="M187.0,173.0,179.0,180.0,170.5,186.5,162.5,193.5,155.0,201.0,147.5,208.0,140.0,215.5,132.5,223.0,125.0,231.0,117.0,238.0,109.0,245.5,101.0,253.5" stroke="black" stroke-width="2" fill="none" />
<path d="M99.0,252.0,107.0,252.0,115.0,251.5,123.0,251.5,131.5,251.5,140.0,251.0,147.5,251.0,155.0,250.5,162.5,250.0,170.5,249.5,178.5,249.0,187.0,248.5,195.5,247.5,203.5,247.0,212.0,246.5,220.5,245.5,229.0,244.5" stroke="black" stroke-width="2" fill="none" />
<path d="M204.5,229.0,196.5,229.5,188.5,229.5,180.0,230.0,171.5,231.0,163.5,232.0,155.0,233.0,147.0,233.5,139.0,233.5,130.5,233.5,122.0,234.0,114.0,234.0" stroke="black" stroke-width="2" fill="none" />
<path d="M117.5,232.0,125.0,224.5,133.0,217.0,140.5,209.5,148.0,202.5,155.0,195.0,162.0,187.5,170.0,179.5,178.0,172.0" stroke="black" stroke-width="2" fill="none" />
<path d="M171.0,170.5,162.5,178.0,154.5,185.5,146.0,193.0,137.5,201.0,129.5,209.0,121.5,216.5,113.5,224.5,106.0,232.0" stroke="black" stroke-width="2" fill="none" />
<path d="M108.0,237.0,116.5,237.0,124.5,236.0,132.5,235.5,140.5,234.5,148.5,234.0,156.0,234.5,164.0,234.5,171.5,234.5,179.5,234.5,187.0,234.5,195.0,233.5,203.0,233.0,211.5,232.0,219.5,231.0" stroke="black" stroke-width="2" fill="none" />
<path d="M219.5,189.0,211.5,196.0,203.0,203.5,195.0,211.0,187.5,218.0,179.5,225.5,172.0,233.0,164.0,240.5,155.5,248.0,147.5,255.5,139.5,263.0,131.5,270.0,123.5,277.5,115.0,285.0,107.5,293.0,99.0,300.5,90.5,307.5,82.5,315.0" stroke="black" stroke-width="2" fill="none" />
<path d="M83.0,313.0,91.0,312.0,98.0,312.0" stroke="black" stroke-width="2" fill="none" />
<path d="M99.0,303.5,90.5,303.5,82.5,304.0" stroke="black" stroke-width="2" fill="none" />
<path d="M74.5,283.5,82.0,276.5" stroke="black" stroke-width="2" fill="none" />
<path d="M73.0,270.5,63.5,275.0,72.0,271.5,80.5,269.5,88.5,267.0,96.5,258.0,104.5,249.5" stroke="black" stroke-width="2" fill="none" />
<path d="M107.5,245.0,115.5,244.5,123.5,244.0,131.0,243.5,139.0,243.0,147.0,242.5,155.5,242.0,163.5,242.0,172.0,242.0,180.0,241.5,187.5,241.0,195.5,240.5,203.5,239.5,211.5,239.0,219.5,238.0" stroke="black" stroke-width="2" fill="none" />
<path d="M204.0,213.5,196.0,214.0,188.0,214.0,179.5,215.0,171.5,215.0,163.5,216.0,155.5,216.5,147.5,217.5,139.5,218.0" stroke="black" stroke-width="2" fill="none" />
<path d="M139.0,211.5,147.0,210.5,155.0,210.0,163.5,209.0,171.5,208.0,179.5,207.5,188.0,207.0,196.5,206.0,204.5,205.0" stroke="black" stroke-width="2" fill="none" />
<path d="M204.0,184.5,196.0,185.5,187.5,186.0,179.5,186.5" stroke="black" stroke-width="2" fill="none" />
<path d="M190.0,181.0,198.0,181.5,205.5,179.5" stroke="black" stroke-width="2" fill="none" />
<path d="M202.5,191.0,194.5,191.5,186.5,192.0,178.5,192.0,171.0,193.0,163.5,193.5,156.5,194.0,149.0,194.5,141.0,195.0" stroke="black" stroke-width="2" fill="none" />
<path d="M140.0,202.0,148.5,201.5,156.5,201.5,164.0,201.0,171.5,200.5,180.0,200.0,187.5,199.0,195.0,198.5,203.0,197.5" stroke="black" stroke-width="2" fill="none" />
<path d="M219.5,200.0,211.0,200.5,203.0,200.5,195.0,201.0,187.0,201.5,179.0,202.5,171.0,203.5,163.0,204.5,155.0,205.0,147.0,205.0,140.0,205.0,132.5,205.5,124.5,205.5,116.5,206.5" stroke="black" stroke-width="2" fill="none" />
<path d="M115.5,207.5,124.5,200.5,133.0,193.5,141.5,186.5,149.5,179.0,157.5,171.0" stroke="black" stroke-width="2" fill="none" />
<path d="M150.0,169.0,141.5,177.0,133.5,184.5,125.5,192.0,117.0,200.0" stroke="black" stroke-width="2" fill="none" />
<path d="M117.5,198.0,125.5,197.5,132.5,197.0,140.0,196.5,147.5,195.5,154.5,195.5,162.0,195.0,170.0,194.5,178.0,194.0,185.5,193.5,193.5,192.5,202.0,192.0,210.5,191.0,219.0,191.0" stroke="black" stroke-width="2" fill="none" />
<path d="M216.5,193.0,216.5,185.0" stroke="black" stroke-width="2" fill="none" />
<path d="M221.0,164.0,212.5,165.0,204.0,165.0" stroke="black" stroke-width="2" fill="none" />
<path d="M211.5,172.5,204.5,173.0,197.0,173.5,189.0,174.0,181.0,174.5,173.0,175.0,165.0,175.0,157.5,175.5,149.5,175.5,141.0,175.5,132.0,175.5,124.0,175.5,116.0,176.0,108.0,176.0" stroke="black" stroke-width="2" fill="none" />
<path d="M107.5,174.5,115.5,173.5,123.0,173.0,131.5,172.0,140.0,171.0,148.5,170.0,156.5,170.0,165.0,170.0,173.0,170.0,181.5,170.0,189.5,169.5,197.0,169.0,205.0,168.0,212.5,167.0,220.0,166.5" stroke="black" stroke-width="2" fill="none" />
<path d="M220.0,183.0,211.5,183.0,203.0,183.0,195.0,183.0,186.5,182.5,178.5,183.0,170.5,183.5,162.0,184.5,154.5,186.0,147.0,187.0,139.5,188.0,131.5,189.0,123.5,189.5,116.0,190.5,108.0,191.5,100.0,192.0" stroke="black" stroke-width="2" fill="none" />
<path d="M99.0,199.0,107.0,198.0" stroke="black" stroke-width="2" fill="none" />
<path d="M115.0,194.5,123.0,187.0,131.0,179.5,139.0,172.0" stroke="black" stroke-width="2" fill="none" />
<path d="M136.0,180.5,144.0,180.5,152.0,180.5,160.5,180.0,168.5,179.0,177.0,180.0" stroke="black" stroke-width="2" fill="none" />
<path d="M166.0,170.5,157.5,178.5,149.0,186.0,140.0,194.0,132.0,201.5,124.0,209.0,115.5,217.0,107.0,225.5" stroke="black" stroke-width="2" fill="none" />
<path d="M99.5,230.0,107.5,229.5,115.5,229.0,124.0,228.0,132.5,227.5,141.0,227.0,148.5,227.0,156.5,227.0,164.0,226.5,171.0,226.0,179.0,225.5,187.5,225.0,196.0,224.0,204.0,223.0,212.5,222.0,220.5,221.5" stroke="black" stroke-width="2" fill="none" />
<path d="M220.5,214.0,213.0,215.0,205.0,215.5,196.5,216.0,188.5,216.5,180.0,217.0,172.0,217.5,164.5,218.0,156.5,218.5,148.5,219.0,140.5,219.0,132.0,219.5,123.5,219.5,115.5,220.0,107.5,220.0,99.0,220.5" stroke="black" stroke-width="2" fill="none" />
<path d="M99.0,217.0,107.0,209.5" stroke="black" stroke-width="2" fill="none" />
<path d="M107.5,205.5,100.0,206.5" stroke="black" stroke-width="2" fill="none" />
<path d="M99.0,212.0,107.0,211.5,115.0,211.0,123.5,211.0,131.5,211.0,140.0,210.5,148.5,210.5,157.0,210.5,165.0,209.5,173.5,208.5,181.5,208.0,189.5,208.0,197.0,208.0,205.0,207.5,213.0,207.5,220.5,207.0" stroke="black" stroke-width="2" fill="none" />
<path d="M229.5,253.5,221.0,254.0,212.5,255.0,204.5,255.0,196.5,255.5,188.5,256.0,181.0,257.0,172.5,258.0,165.0,259.0,156.5,259.5,148.0,259.5,140.0,259.5,132.0,259.5,124.0,260.0,116.0,260.0,108.5,260.0,101.0,260.5,92.5,260.5" stroke="black" stroke-width="2" fill="none" />
<path d="M98.5,265.0,107.0,264.5" stroke="black" stroke-width="2" fill="none" />
<path d="M69.5,270.0,78.0,269.5,86.0,268.5,93.5,268.0,101.5,267.5,109.0,267.0,116.0,266.0,123.0,265.5,130.5,265.0,138.5,264.0,146.5,263.5,154.5,263.5,163.0,263.0,171.5,262.5,179.5,262.0,187.5,261.0,195.5,261.0,203.5,260.0,211.0,259.5,219.0,259.0,226.5,258.5" stroke="black" stroke-width="2" fill="none" />
<path d="M218.5,244.5,212.5,258.5,214.5,250.5,220.5,242.5,220.5,235.0,220.0,227.0,219.0,219.5,219.0,212.0,220.5,204.0,221.0,196.0,220.5,188.0,220.5,180.0,221.0,172.0,219.5,164.5,214.0,165.5,212.0,162.5,214.0,154.5,213.5,147.0,213.5,144.0" stroke="black" stroke-width="2" fill="none" />
<path d="M217.5,145.0,217.5,153.0,217.0,161.0,212.0,169.5,215.0,177.5,213.0,185.5,207.5,188.0,207.5,196.5,211.0,200.5,209.5,208.0,209.5,216.0,208.5,224.0,208.0,231.5,215.0,239.5,212.5,247.0,208.5,255.0,204.5,262.5,202.0,271.0,197.5,279.0,196.5,286.5,197.5,294.5,196.5,300.5,197.5,309.0,198.0,317.0,198.0,325.5,198.5,334.0,198.5,341.5,198.5,350.0,200.0,358.0,200.0,366.0,200.0,374.0,200.0,382.0,199.5,390.5,199.5,398.0,199.0,406.0,201.5,407.5,209.5,394.5,217.5,383.5" stroke="black" stroke-width="2" fill="none" />
<path d="M275.0,325.0,266.5,321.5,266.0,316.5,263.0,318.0,264.5,310.0,264.5,301.5,265.0,293.5" stroke="black" stroke-width="2" fill="none" />
<path d="M254.0,281.0,262.0,273.5" stroke="black" stroke-width="2" fill="none" />
<path d="M247.0,271.5,245.0,279.5,247.0,288.0,249.5,296.0,249.5,304.0,249.5,312.0,249.5,320.0,249.5,328.0,249.5,336.0,249.5,344.5,249.5,352.5,249.0,360.5,249.0,368.5,248.5,376.5,248.5,384.5,248.5,392.5,248.5,400.5,249.0,408.0,249.5,416.0,249.5,424.5,249.5,432.0,249.5,440.5,249.5,448.5,249.5,457.0,249.5,465.0,248.5,473.0,248.5,481.0,248.5,489.0,247.0,497.0,247.5,505.0,245.5,513.0,244.5,520.5,241.5,528.5,235.5,536.5,238.0,538.5,238.0,546.5,239.0,531.5" stroke="black" stroke-width="2" fill="none" />
<path d="M90.0,376.5,81.5,377.0" stroke="black" stroke-width="2" fill="none" />
<path d="M65.5,276.5,73.0,277.5,73.0,284.5,75.5,292.5,75.5,300.5,75.5,308.5,76.5,316.5,77.0,324.0,78.5,332.0,78.5,340.5,78.5,348.0,79.5,356.5,79.5,364.5,80.5,373.0,80.5,381.0,81.5,389.0,81.5,397.0,82.5,405.0,82.0,413.0,83.5,421.0,83.5,429.0,84.5,436.5,84.5,444.5,84.5,452.5,85.0,460.5,85.0,468.5,85.0,476.5,84.5,484.0,84.5,491.5,84.0,499.0,83.0,506.5,81.0,515.0,76.5,523.0,71.5,531.5,74.5,532.0,82.0,532.0,91.0,530.5,99.5,529.0,107.0,528.0,115.0,526.5,122.5,524.0,130.5,522.0,139.0,520.0,147.0,518.5" stroke="black" stroke-width="2" fill="none" />
<path d="M381.5,286.5,389.0,285.5,397.0,283.5,405.0,281.0,412.5,278.0" stroke="black" stroke-width="2" fill="none" />
<path d="M411.5,264.0,410.5,271.0,402.5,273.0,394.5,275.5,389.5,274.5,393.0,266.5,401.5,258.5,409.5,250.5,411.5,242.5,401.5,234.5,402.5,226.5,404.0,218.0,405.0,210.0,407.0,202.0,408.5,194.5,409.0,186.5,412.0,178.5,414.0,170.5,408.5,162.5,413.0,153.5,415.5,145.0,417.0,137.0,416.5,133.0" stroke="black" stroke-width="2" fill="none" />
<path d="M419.5,168.5,420.0,176.5,420.0,184.5" stroke="black" stroke-width="2" fill="none" />
<path d="M422.0,169.5,423.0,177.5,421.5,185.5,420.5,193.5,419.5,201.5" stroke="black" stroke-width="2" fill="none" />
<path d="M418.5,250.0,419.5,257.5,412.0,268.5" stroke="black" stroke-width="2" fill="none" />
<path d="M324.5,183.5,316.5,183.5,309.0,184.0" stroke="black" stroke-width="2" fill="none" />
<path d="M311.0,184.5,309.0,192.5,308.5,200.0,308.5,208.0,308.0,216.0,314.0,217.5,322.0,211.5" stroke="black" stroke-width="2" fill="none" />
<path d="M300.0,197.5,291.5,198.0" stroke="black" stroke-width="2" fill="none" />
<path d="M295.0,194.5,302.0,186.5,302.5,194.5,305.0,203.0,303.0,211.0,304.0,219.0" stroke="black" stroke-width="2" fill="none" />
<path d="M299.5,205.5,291.0,206.5,283.0,207.0" stroke="black" stroke-width="2" fill="none" />
<path d="M313.5,183.5,316.0,184.5,317.5,192.5,325.5,200.0,324.5,208.0,318.0,215.5,315.0,223.5,323.0,227.5" stroke="black" stroke-width="2" fill="none" />
<path d="M141.0,186.0,133.5,186.5" stroke="black" stroke-width="2" fill="none" />
<path d="M129.5,172.0,121.5,179.5,114.0,187.0" stroke="black" stroke-width="2" fill="none" />
<path d="M117.0,185.0,124.5,184.5" stroke="black" stroke-width="2" fill="none" />
<path d="M121.5,172.0,113.5,179.5,105.5,186.5" stroke="black" stroke-width="2" fill="none" />
<path d="M109.5,184.5,110.5,192.5,112.0,200.5,113.5,208.5,114.0,216.5" stroke="black" stroke-width="2" fill="none" />
<path d="M106.5,176.5,114.5,169.0" stroke="black" stroke-width="2" fill="none" />
<path d="M114.0,162.5,105.5,170.0" stroke="black" stroke-width="2" fill="none" />
<path d="M106.5,167.0,114.5,166.5,123.0,165.5" stroke="black" stroke-width="2" fill="none" />
<path d="M114.0,158.0,106.0,158.5" stroke="black" stroke-width="2" fill="none" />
<path d="M113.5,145.0,114.5,153.0,114.5,160.5,117.0,163.5,123.0,166.5,124.0,166.5,132.0,166.5,140.0,167.0,148.0,167.0,156.0,167.0,164.0,167.0,172.0,167.0,180.0,167.0,187.5,167.0,195.0,167.5,203.0,167.5,210.5,165.0" stroke="black" stroke-width="2" fill="none" />
<path d="M110.0,143.5,109.5,147.0,109.0,155.5,105.0,163.5,104.0,171.5,105.5,180.0,103.5,188.0,102.0,196.5,100.0,204.0,99.0,212.0,98.5,220.0,98.0,228.0,103.0,231.5,111.0,232.5,110.0,238.5,107.0,247.0,98.5,254.5,92.0,262.5,90.0,269.0,98.0,268.0,110.0,264.0,111.0,259.0" stroke="black" stroke-width="2" fill="none" />
<path d="M13.0,4.0,5.0,4.5" stroke="black" stroke-width="2" fill="none" />
</svg>