<svg xmlns="http://www.w3.org/2000/svg" version="1.1"><path d="M343.0,78.5,325.0,86.5,310.0,94.5,309.0,103.0,302.5,112.0,311.5,123.0,317.0,131.0,318.0,139.0,315.5,147.5,314.5,155.5,309.5,164.0,306.5,171.5,304.5,179.0,304.5,186.5,309.5,177.0,318.0,171.0" stroke="black" stroke-width="2" fill="none" />
<path d="M316.0,171.5,324.5,164.0,332.5,156.0,341.5,148.5" stroke="black" stroke-width="2" fill="none" />
<path d="M347.5,152.0,355.5,144.0,363.0,136.5,371.5,128.5,379.5,121.0,388.0,113.0,396.5,104.5,404.5,97.5" stroke="black" stroke-width="2" fill="none" />
<path d="M405.5,93.5,413.5,93.5,421.5,93.0,429.0,92.0" stroke="black" stroke-width="2" fill="none" />
<path d="M426.5,93.0,436.5,101.0,441.5,109.0,442.5,117.5,442.5,126.0,443.0,134.0,441.5,142.5,440.5,150.5,439.0,158.5,438.0,167.0,436.0,175.0,436.0,182.5,434.0,190.5,431.0,198.5,429.0,207.0,428.5,215.5,429.0,223.5,418.0,228.5,426.5,232.5,430.5,240.5,431.5,245.0,432.5,245.0,440.5,245.5" stroke="black" stroke-width="2" fill="none" />
<path d="M443.5,243.5,435.5,251.0" stroke="black" stroke-width="2" fill="none" />
<path d="M435.5,252.0,427.0,253.0,419.0,253.5,411.5,254.0,403.5,255.0" stroke="black" stroke-width="2" fill="none" />
<path d="M410.5,255.0,419.0,255.5,427.0,255.5" stroke="black" stroke-width="2" fill="none" />
<path d="M430.0,253.5,426.5,262.0,425.5,270.0,424.5,278.5,424.0,286.5,422.0,295.0,421.0,303.5,419.5,311.5,417.5,319.5,414.5,327.5,412.5,335.5,413.5,343.5,412.5,351.5,412.0,359.0,413.0,367.0,412.0,374.5,412.0,382.5,410.5,390.0,410.5,397.5,409.5,405.0,409.5,413.0,409.5,421.5,408.5,429.5,409.0,438.0,409.0,446.5,408.5,454.5,408.5,462.5,407.5,470.5,407.5,478.5,406.0,486.5,405.0,494.5,404.5,503.0,403.5,510.5,402.5,519.0,402.5,527.0,401.5,534.5,400.5,542.0,400.5,550.0,401.0,558.0,406.5,566.0,405.5,574.0" stroke="black" stroke-width="2" fill="none" />
<path d="M403.5,571.5,411.0,564.5" stroke="black" stroke-width="2" fill="none" />
<path d="M403.0,565.0,395.5,572.0" stroke="black" stroke-width="2" fill="none" />
<path d="M388.0,571.0,396.0,563.5,404.0,556.0" stroke="black" stroke-width="2" fill="none" />
<path d="M404.0,548.0,396.0,555.5,387.5,563.0" stroke="black" stroke-width="2" fill="none" />
<path d="M387.0,560.5,395.5,559.5,403.0,559.0" stroke="black" stroke-width="2" fill="none" />
<path d="M388.5,554.0,396.5,546.5,404.5,539.0" stroke="black" stroke-width="2" fill="none" />
<path d="M405.5,531.0,397.5,539.0,389.0,546.5" stroke="black" stroke-width="2" fill="none" />
<path d="M385.5,546.0,393.5,545.5" stroke="black" stroke-width="2" fill="none" />
<path d="M394.0,552.0,386.0,552.5" stroke="black" stroke-width="2" fill="none" />
<path d="M387.0,555.5,395.0,554.5,403.5,554.0" stroke="black" stroke-width="2" fill="none" />
<path d="M401.5,568.0,393.0,568.5,385.0,569.0" stroke="black" stroke-width="2" fill="none" />
<path d="M387.0,574.0,395.5,573.5,404.0,573.0,411.5,572.0" stroke="black" stroke-width="2" fill="none" />
<path d="M402.0,547.5,393.5,547.5,385.5,548.0" stroke="black" stroke-width="2" fill="none" />
<path d="M387.0,543.0,395.0,542.0,403.0,541.5" stroke="black" stroke-width="2" fill="none" />
<path d="M388.5,539.5,397.5,531.5,405.5,524.5" stroke="black" stroke-width="2" fill="none" />
<path d="M404.5,516.5,396.5,524.0,388.5,531.5" stroke="black" stroke-width="2" fill="none" />
<path d="M388.5,531.0,396.0,530.5" stroke="black" stroke-width="2" fill="none" />
<path d="M396.0,538.5,388.0,539.0" stroke="black" stroke-width="2" fill="none" />
<path d="M388.5,534.0,396.5,533.5,405.0,533.0" stroke="black" stroke-width="2" fill="none" />
<path d="M388.5,523.5,396.0,516.0,404.0,508.5" stroke="black" stroke-width="2" fill="none" />
<path d="M403.5,500.5,395.5,508.0,387.0,515.0" stroke="black" stroke-width="2" fill="none" />
<path d="M387.0,515.0,395.0,515.0,403.0,515.0" stroke="black" stroke-width="2" fill="none" />
<path d="M402.0,526.0,393.5,526.5,385.5,527.0" stroke="black" stroke-width="2" fill="none" />
<path d="M387.5,522.0,395.5,521.5,403.0,521.5" stroke="black" stroke-width="2" fill="none" />
<path d="M402.0,512.0,394.5,512.5,387.0,512.5" stroke="black" stroke-width="2" fill="none" />
<path d="M386.0,510.0,394.5,510.0,403.0,509.5" stroke="black" stroke-width="2" fill="none" />
<path d="M387.5,506.0,395.0,498.5,403.0,491.0" stroke="black" stroke-width="2" fill="none" />
<path d="M404.5,482.0,397.0,490.0,389.0,498.0" stroke="black" stroke-width="2" fill="none" />
<path d="M387.5,498.5,396.0,498.0,404.0,497.5" stroke="black" stroke-width="2" fill="none" />
<path d="M403.0,505.0,395.0,505.0,387.0,505.5" stroke="black" stroke-width="2" fill="none" />
<path d="M387.0,501.5,394.5,501.0,402.0,500.5" stroke="black" stroke-width="2" fill="none" />
<path d="M403.0,494.5,394.5,495.5,386.5,496.0" stroke="black" stroke-width="2" fill="none" />
<path d="M387.5,490.5,395.5,490.0,403.5,489.5" stroke="black" stroke-width="2" fill="none" />
<path d="M404.0,475.0,396.0,482.0,387.5,489.5" stroke="black" stroke-width="2" fill="none" />
<path d="M387.0,487.0,395.0,486.0,402.5,484.5,410.5,483.5" stroke="black" stroke-width="2" fill="none" />
<path d="M405.5,467.5,397.0,474.5,389.0,482.0" stroke="black" stroke-width="2" fill="none" />
<path d="M387.5,481.5,395.5,481.0,404.0,480.0" stroke="black" stroke-width="2" fill="none" />
<path d="M389.0,474.0,397.0,466.5,404.5,459.0,412.5,451.5" stroke="black" stroke-width="2" fill="none" />
<path d="M412.0,444.0,403.5,451.5,395.5,458.5,387.5,465.5" stroke="black" stroke-width="2" fill="none" />
<path d="M387.5,464.5,395.5,464.0,403.5,463.5" stroke="black" stroke-width="2" fill="none" />
<path d="M403.5,472.5,395.5,472.5,387.5,472.5" stroke="black" stroke-width="2" fill="none" />
<path d="M387.0,468.5,394.5,468.0,402.5,467.5,410.0,467.0" stroke="black" stroke-width="2" fill="none" />
<path d="M411.0,477.0,402.0,477.5,394.0,477.5,386.0,478.0" stroke="black" stroke-width="2" fill="none" />
<path d="M372.0,482.5,364.0,490.0,356.0,497.5,348.0,505.0,340.0,513.0,331.5,520.0" stroke="black" stroke-width="2" fill="none" />
<path d="M331.0,520.0,339.0,520.0,347.0,520.0,355.5,519.0,364.0,518.5" stroke="black" stroke-width="2" fill="none" />
<path d="M363.0,516.5,355.5,524.0,347.0,531.0,339.0,538.5,330.5,545.5" stroke="black" stroke-width="2" fill="none" />
<path d="M333.0,543.5,341.0,543.0,348.5,542.5,356.0,542.5,364.0,542.5" stroke="black" stroke-width="2" fill="none" />
<path d="M363.0,540.0,355.0,547.0,347.5,554.5,340.0,562.0,332.0,570.0" stroke="black" stroke-width="2" fill="none" />
<path d="M330.5,572.0,338.5,571.5,347.0,570.5,355.0,570.5" stroke="black" stroke-width="2" fill="none" />
<path d="M354.5,571.5,347.0,579.0,339.0,587.0,331.5,594.5" stroke="black" stroke-width="2" fill="none" />
<path d="M332.5,594.0,340.5,593.5,348.5,593.0" stroke="black" stroke-width="2" fill="none" />
<path d="M356.0,587.0,348.0,594.5,340.0,602.5,331.5,610.0" stroke="black" stroke-width="2" fill="none" />
<path d="M333.0,610.0,341.0,609.5,349.0,609.0" stroke="black" stroke-width="2" fill="none" />
<path d="M348.5,612.0,340.5,619.0,332.0,626.5" stroke="black" stroke-width="2" fill="none" />
<path d="M332.0,625.5,340.0,625.5,348.5,625.5" stroke="black" stroke-width="2" fill="none" />
<path d="M349.5,628.0,341.5,635.5,333.0,643.0" stroke="black" stroke-width="2" fill="none" />
<path d="M333.0,645.0,341.0,645.0,349.0,645.0" stroke="black" stroke-width="2" fill="none" />
<path d="M350.0,643.0,342.0,650.5,333.5,658.0" stroke="black" stroke-width="2" fill="none" />
<path d="M331.5,656.5,340.0,656.0" stroke="black" stroke-width="2" fill="none" />
<path d="M341.5,651.0,334.0,651.5" stroke="black" stroke-width="2" fill="none" />
<path d="M333.5,650.0,342.0,642.0,349.5,634.0" stroke="black" stroke-width="2" fill="none" />
<path d="M350.0,621.0,342.0,628.5,333.5,635.5" stroke="black" stroke-width="2" fill="none" />
<path d="M330.5,637.0,338.5,636.0,347.0,635.0" stroke="black" stroke-width="2" fill="none" />
<path d="M339.5,639.5,331.5,640.0" stroke="black" stroke-width="2" fill="none" />
<path d="M329.0,632.5,337.5,632.0" stroke="black" stroke-width="2" fill="none" />
<path d="M329.5,629.0,338.0,628.5,347.0,628.5" stroke="black" stroke-width="2" fill="none" />
<path d="M348.0,620.5,340.0,621.0,332.0,621.5" stroke="black" stroke-width="2" fill="none" />
<path d="M331.0,620.0,338.5,612.5,346.5,604.5" stroke="black" stroke-width="2" fill="none" />
<path d="M349.0,614.0,341.0,614.5,333.0,614.5" stroke="black" stroke-width="2" fill="none" />
<path d="M331.0,619.5,339.0,619.0,347.5,618.5" stroke="black" stroke-width="2" fill="none" />
<path d="M355.5,605.0,348.0,605.5,340.5,605.5,332.5,605.5" stroke="black" stroke-width="2" fill="none" />
<path d="M331.5,603.0,339.0,595.0,347.0,587.5,355.0,580.0" stroke="black" stroke-width="2" fill="none" />
<path d="M356.0,589.0,348.5,589.5,341.0,590.5,333.0,591.0" stroke="black" stroke-width="2" fill="none" />
<path d="M333.0,587.0,340.5,587.0,348.5,586.5" stroke="black" stroke-width="2" fill="none" />
<path d="M333.0,584.5,340.5,577.5,348.5,570.5,356.0,563.0,364.5,555.5" stroke="black" stroke-width="2" fill="none" />
<path d="M362.0,561.5,354.0,562.5,346.0,563.0,338.0,563.5,330.0,564.0" stroke="black" stroke-width="2" fill="none" />
<path d="M332.5,561.0,340.5,553.0,348.0,545.5,355.5,538.0,363.5,530.5" stroke="black" stroke-width="2" fill="none" />
<path d="M363.0,523.0,355.0,530.5,347.0,538.0,339.0,545.5,331.0,553.0" stroke="black" stroke-width="2" fill="none" />
<path d="M333.0,552.5,341.0,551.5,349.0,550.5,356.5,549.5" stroke="black" stroke-width="2" fill="none" />
<path d="M364.0,548.5,356.0,556.0,348.0,564.0,340.0,571.5,331.5,579.0" stroke="black" stroke-width="2" fill="none" />
<path d="M332.5,580.5,340.5,580.0,348.0,580.0,356.0,579.5" stroke="black" stroke-width="2" fill="none" />
<path d="M355.5,574.5,347.5,574.5,340.0,575.0,332.5,576.0" stroke="black" stroke-width="2" fill="none" />
<path d="M329.0,568.5,337.0,568.0,344.5,567.5,353.0,566.5" stroke="black" stroke-width="2" fill="none" />
<path d="M360.5,568.0,368.5,569.0,376.5,571.0,385.0,573.5,393.5,575.5,401.0,576.5" stroke="black" stroke-width="2" fill="none" />
<path d="M411.0,563.0,403.0,564.0,394.5,564.5,386.5,565.5,378.5,567.0,370.5,567.5" stroke="black" stroke-width="2" fill="none" />
<path d="M363.5,562.0,371.0,565.0,379.0,565.5,387.0,568.0" stroke="black" stroke-width="2" fill="none" />
<path d="M346.0,601.0,337.5,601.5,329.5,602.5" stroke="black" stroke-width="2" fill="none" />
<path d="M331.5,599.5,339.0,599.0,347.0,598.0,355.0,597.5" stroke="black" stroke-width="2" fill="none" />
<path d="M355.5,557.5,347.5,558.5,340.0,559.5,332.0,560.0" stroke="black" stroke-width="2" fill="none" />
<path d="M322.5,558.0,330.5,557.5,338.5,556.5,347.0,556.0,355.5,555.0,363.5,554.5" stroke="black" stroke-width="2" fill="none" />
<path d="M364.5,534.0,356.5,534.5,348.0,535.0,339.5,536.0,331.5,536.5" stroke="black" stroke-width="2" fill="none" />
<path d="M331.0,535.5,339.0,528.0,347.5,521.0,356.0,514.0,364.5,507.0,372.5,499.0" stroke="black" stroke-width="2" fill="none" />
<path d="M374.0,491.0,366.0,498.5,357.5,506.0,349.5,513.0,341.0,520.0,332.5,527.0" stroke="black" stroke-width="2" fill="none" />
<path d="M330.0,529.0,338.5,528.5,347.5,528.5,355.5,527.0,363.0,525.5" stroke="black" stroke-width="2" fill="none" />
<path d="M363.5,512.0,355.5,513.0,347.5,513.5,339.5,514.0,332.0,515.0" stroke="black" stroke-width="2" fill="none" />
<path d="M324.5,520.5,332.5,513.0,340.5,505.5,348.0,497.5,356.0,489.5,363.5,481.0,371.0,473.5" stroke="black" stroke-width="2" fill="none" />
<path d="M369.5,467.0,362.0,474.5,354.5,482.0,347.0,489.5,339.0,497.0,331.0,504.5,323.5,512.0" stroke="black" stroke-width="2" fill="none" />
<path d="M323.0,510.0,331.5,509.0,340.0,508.0,348.5,507.0,356.5,507.0,365.0,507.5,373.0,506.5" stroke="black" stroke-width="2" fill="none" />
<path d="M371.5,466.0,363.5,466.5,355.5,467.0" stroke="black" stroke-width="2" fill="none" />
<path d="M354.5,458.5,363.0,458.0,371.5,458.0" stroke="black" stroke-width="2" fill="none" />
<path d="M370.0,459.5,362.5,467.0,354.5,474.0,347.0,481.0,339.0,488.0,331.5,495.0,324.0,502.5" stroke="black" stroke-width="2" fill="none" />
<path d="M321.5,502.5,329.5,502.5,338.5,502.5,347.0,502.5,355.0,502.0,363.5,501.5,372.0,501.0" stroke="black" stroke-width="2" fill="none" />
<path d="M390.0,460.5,397.5,460.5,405.0,460.0,412.0,460.0" stroke="black" stroke-width="2" fill="none" />
<path d="M404.5,455.5,396.5,455.5,389.0,456.0" stroke="black" stroke-width="2" fill="none" />
<path d="M389.5,453.0,397.5,453.0,405.5,452.5,413.0,451.5" stroke="black" stroke-width="2" fill="none" />
<path d="M409.0,434.5,401.5,442.0,393.5,450.0,386.0,457.0" stroke="black" stroke-width="2" fill="none" />
<path d="M386.0,450.0,394.0,442.0,401.5,434.0,410.0,425.5" stroke="black" stroke-width="2" fill="none" />
<path d="M411.0,421.0,402.5,428.0,394.5,435.0,386.5,442.0" stroke="black" stroke-width="2" fill="none" />
<path d="M388.5,448.5,396.5,448.0,404.0,447.5" stroke="black" stroke-width="2" fill="none" />
<path d="M406.0,433.5,397.5,434.0" stroke="black" stroke-width="2" fill="none" />
<path d="M404.5,424.5,396.0,425.0,387.5,425.5,379.0,425.5,371.0,425.5,363.0,426.0,355.0,426.0" stroke="black" stroke-width="2" fill="none" />
<path d="M361.5,417.5,370.0,417.0,378.5,417.5,387.0,417.0,395.0,416.5" stroke="black" stroke-width="2" fill="none" />
<path d="M392.5,423.0,396.5,402.0,405.0,382.0,407.0,383.0,405.5,390.5,403.5,398.5,403.5,406.5,402.0,414.5,397.0,416.5,393.5,424.0,392.5,432.0,391.0,440.0" stroke="black" stroke-width="2" fill="none" />
<path d="M378.5,441.0,386.5,433.0,395.0,425.5,404.0,418.0,412.0,411.0" stroke="black" stroke-width="2" fill="none" />
<path d="M411.0,402.5,403.5,410.0,395.5,416.5,388.0,423.5,380.5,431.0,372.5,438.0,365.0,445.5,357.5,453.0,349.5,461.0,341.0,468.5,333.0,476.5,325.0,484.0" stroke="black" stroke-width="2" fill="none" />
<path d="M323.5,487.5,331.5,487.0,339.5,486.5,347.5,486.0,355.5,485.5,363.0,485.0" stroke="black" stroke-width="2" fill="none" />
<path d="M365.0,504.0,357.0,504.5,348.5,504.5,340.0,504.5,332.0,505.0,324.0,506.0" stroke="black" stroke-width="2" fill="none" />
<path d="M323.5,497.5,331.0,497.0,339.0,496.5,347.0,496.5,355.0,496.0,362.5,496.0" stroke="black" stroke-width="2" fill="none" />
<path d="M324.5,495.5,332.5,488.0,340.0,481.0,347.5,474.0,355.0,467.0,362.0,460.5,370.0,453.0" stroke="black" stroke-width="2" fill="none" />
<path d="M371.5,457.0,363.0,457.5,355.0,458.0,347.0,458.0,339.0,458.5,331.0,458.5,323.5,459.0,316.0,459.0,308.0,459.0,300.0,459.0" stroke="black" stroke-width="2" fill="none" />
<path d="M297.5,461.0,305.5,470.0" stroke="black" stroke-width="2" fill="none" />
<path d="M309.0,468.5,316.5,468.0,324.5,467.5,332.0,467.0,339.5,467.0,347.0,467.0,354.5,467.0,362.0,467.5,369.5,467.0" stroke="black" stroke-width="2" fill="none" />
<path d="M371.5,482.0,363.5,482.0,355.5,482.5,347.0,482.0,339.0,482.5,331.0,483.0,323.0,483.5,315.5,483.5" stroke="black" stroke-width="2" fill="none" />
<path d="M315.5,482.0,323.5,481.5,332.0,480.5,340.0,480.0,348.0,479.5,356.5,479.5,364.0,478.5,372.0,477.5" stroke="black" stroke-width="2" fill="none" />
<path d="M372.0,490.5,364.0,490.5,356.5,491.0,348.0,491.0,339.5,492.0,331.0,492.0,323.0,492.0,314.5,492.0" stroke="black" stroke-width="2" fill="none" />
<path d="M316.0,485.0,323.5,478.0,331.5,471.0,339.5,463.5,347.5,455.5,356.0,448.0,364.0,441.0,372.0,433.0,380.0,425.5,387.5,418.0,395.5,410.5,403.5,402.0,411.0,394.5" stroke="black" stroke-width="2" fill="none" />
<path d="M411.5,385.5,403.5,393.5,395.0,401.5,387.5,409.5,379.5,417.5,372.0,425.5,363.5,433.5,355.0,441.5,346.0,449.0,338.0,456.0,329.5,463.5,321.5,471.0,314.0,478.0" stroke="black" stroke-width="2" fill="none" />
<path d="M314.5,477.5,323.5,477.0,332.0,476.5,340.0,476.0,347.5,475.5,355.5,475.0,364.0,474.0,372.0,473.5" stroke="black" stroke-width="2" fill="none" />
<path d="M371.5,470.0,363.5,470.5,355.5,471.0,347.5,472.0,340.0,472.5,332.0,472.5,324.0,472.5,315.5,473.0" stroke="black" stroke-width="2" fill="none" />
<path d="M315.5,469.5,323.5,462.0,332.0,454.5,339.5,447.5,347.5,440.0,355.5,432.5,363.0,425.0,371.0,417.5,379.0,409.5,387.5,402.0,396.0,394.5,404.0,387.0,412.0,379.0" stroke="black" stroke-width="2" fill="none" />
<path d="M410.5,370.5,402.5,377.5,395.5,384.5,388.0,392.5,380.5,400.0,373.0,407.5,365.0,415.0,357.5,422.0,349.5,430.0,341.0,438.0,332.5,445.5,324.5,453.0,317.0,460.0" stroke="black" stroke-width="2" fill="none" />
<path d="M308.5,460.0,317.0,452.5,325.0,444.5,333.0,437.0,341.0,429.5,349.0,422.5,356.5,415.0,363.5,407.5,371.0,400.0,379.0,392.5,387.0,384.5,395.0,377.5,403.0,370.5,410.5,363.5" stroke="black" stroke-width="2" fill="none" />
<path d="M410.0,361.0,402.0,361.5,394.5,362.0" stroke="black" stroke-width="2" fill="none" />
<path d="M395.0,355.5,403.0,348.0,411.0,340.0" stroke="black" stroke-width="2" fill="none" />
<path d="M410.0,347.0,402.0,355.0,394.5,363.0,387.0,370.0" stroke="black" stroke-width="2" fill="none" />
<path d="M387.5,377.5,396.0,376.5,404.0,376.0,412.0,375.5" stroke="black" stroke-width="2" fill="none" />
<path d="M412.0,369.0,404.5,369.5,397.0,370.0" stroke="black" stroke-width="2" fill="none" />
<path d="M394.5,360.5,393.5,351.5,394.5,344.0,395.0,336.5,395.0,329.0,387.0,333.0,379.0,337.0,371.0,339.5,363.0,339.5,355.5,334.5,348.0,324.0" stroke="black" stroke-width="2" fill="none" />
<path d="M348.5,323.5,340.5,331.0,332.0,338.5,323.5,346.5" stroke="black" stroke-width="2" fill="none" />
<path d="M323.0,339.5,315.0,346.5,307.5,354.0" stroke="black" stroke-width="2" fill="none" />
<path d="M308.0,346.5,316.0,339.5" stroke="black" stroke-width="2" fill="none" />
<path d="M316.5,336.0,324.0,339.5,332.5,334.5,343.5,334.0,353.5,336.0" stroke="black" stroke-width="2" fill="none" />
<path d="M354.0,332.5,346.5,340.0,338.5,347.0" stroke="black" stroke-width="2" fill="none" />
<path d="M330.5,347.5,339.0,346.5,347.0,345.5" stroke="black" stroke-width="2" fill="none" />
<path d="M347.0,347.0,355.0,339.5" stroke="black" stroke-width="2" fill="none" />
<path d="M354.5,346.5,362.0,338.5" stroke="black" stroke-width="2" fill="none" />
<path d="M372.0,341.5,364.0,349.0" stroke="black" stroke-width="2" fill="none" />
<path d="M371.5,345.0,380.0,337.5" stroke="black" stroke-width="2" fill="none" />
<path d="M386.5,340.5,379.0,347.5" stroke="black" stroke-width="2" fill="none" />
<path d="M387.0,353.0,395.5,345.5,403.5,338.0,412.0,331.0" stroke="black" stroke-width="2" fill="none" />
<path d="M412.5,322.5,404.5,330.0,396.5,337.0,388.0,345.0" stroke="black" stroke-width="2" fill="none" />
<path d="M387.0,334.0,395.0,333.5,403.0,333.0,411.0,332.5" stroke="black" stroke-width="2" fill="none" />
<path d="M394.5,331.5,402.5,324.5,410.5,317.5,418.5,310.0" stroke="black" stroke-width="2" fill="none" />
<path d="M411.5,308.5,419.5,301.0" stroke="black" stroke-width="2" fill="none" />
<path d="M418.5,292.5,410.5,299.5" stroke="black" stroke-width="2" fill="none" />
<path d="M412.0,297.5,404.0,298.5" stroke="black" stroke-width="2" fill="none" />
<path d="M408.5,296.5,406.0,304.5,406.0,312.5,405.5,320.5,405.5,328.0,406.5,336.0,406.0,344.5" stroke="black" stroke-width="2" fill="none" />
<path d="M406.0,355.0,414.0,354.5" stroke="black" stroke-width="2" fill="none" />
<path d="M410.5,354.0,402.5,361.5,394.5,370.0,386.5,378.0,378.0,385.5,370.0,393.0,362.0,401.0,354.5,408.5,347.0,416.0,339.5,424.0,332.0,431.5,323.5,439.0,315.0,447.0,306.5,454.5" stroke="black" stroke-width="2" fill="none" />
<path d="M300.0,455.0,307.5,447.5,314.5,440.0,322.0,433.0,330.0,426.0,339.0,418.5,347.5,411.0,356.0,404.0,364.0,396.5" stroke="black" stroke-width="2" fill="none" />
<path d="M353.5,396.0,345.0,403.0,337.0,410.0,328.5,417.0,320.5,424.5,312.5,432.0,304.5,439.5,297.0,447.0" stroke="black" stroke-width="2" fill="none" />
<path d="M293.0,449.0,301.0,448.5,308.5,448.5,316.5,448.0,324.5,448.0,332.5,448.0,340.0,447.5,347.5,447.0,355.0,446.5,363.0,445.5,370.5,444.5" stroke="black" stroke-width="2" fill="none" />
<path d="M371.5,449.0,363.5,449.5,355.5,450.0,347.5,450.5,339.0,450.5,331.0,451.0,322.5,451.5,314.5,451.5,306.0,451.0,298.0,451.5" stroke="black" stroke-width="2" fill="none" />
<path d="M298.5,455.0,307.0,455.0,314.5,455.0,322.5,454.5,330.5,454.0,338.5,454.0,347.0,453.5" stroke="black" stroke-width="2" fill="none" />
<path d="M347.5,458.5,349.0,457.5,351.5,465.5" stroke="black" stroke-width="2" fill="none" />
<path d="M346.5,461.5,339.0,462.0,332.0,463.5,324.5,464.0,317.0,464.0,309.0,464.5" stroke="black" stroke-width="2" fill="none" />
<path d="M293.0,449.0,300.5,441.0,308.0,433.5,316.0,426.0,323.5,418.5,331.0,410.5,339.0,403.5,346.5,396.0" stroke="black" stroke-width="2" fill="none" />
<path d="M346.0,387.0,338.0,394.5,330.5,402.5,323.0,410.5,315.5,418.5,308.0,426.0,300.0,432.5,292.5,439.5,284.5,446.5" stroke="black" stroke-width="2" fill="none" />
<path d="M284.0,446.5,292.0,445.5,300.0,445.0,308.0,444.0,316.0,443.0,324.5,442.5,332.5,442.0,340.5,442.0,348.5,442.0,356.5,442.0,364.5,442.0,372.0,441.0,379.5,440.0,387.5,439.5,395.5,439.5,403.5,439.0,411.5,438.0" stroke="black" stroke-width="2" fill="none" />
<path d="M394.5,409.0,387.0,410.0,379.0,410.5" stroke="black" stroke-width="2" fill="none" />
<path d="M377.5,403.0,385.5,402.5,394.0,401.5" stroke="black" stroke-width="2" fill="none" />
<path d="M379.0,394.5,387.0,394.0,394.5,393.5,402.5,393.0,410.5,393.0" stroke="black" stroke-width="2" fill="none" />
<path d="M413.5,382.0,405.5,382.5,397.5,383.0,390.0,383.0" stroke="black" stroke-width="2" fill="none" />
<path d="M378.5,380.5,370.5,387.5" stroke="black" stroke-width="2" fill="none" />
<path d="M370.0,378.5,378.0,371.0" stroke="black" stroke-width="2" fill="none" />
<path d="M372.0,374.5,363.5,382.0" stroke="black" stroke-width="2" fill="none" />
<path d="M363.5,373.0,371.5,365.5" stroke="black" stroke-width="2" fill="none" />
<path d="M371.0,376.5,363.0,369.5,355.0,366.0,347.5,363.0" stroke="black" stroke-width="2" fill="none" />
<path d="M345.0,362.5,363.0,370.0,370.0,378.5,372.5,386.5,372.5,394.5,371.5,402.5" stroke="black" stroke-width="2" fill="none" />
<path d="M339.5,386.0,331.5,393.5,324.5,401.5,316.5,409.0,308.5,417.0,300.5,425.0,293.0,432.5,285.0,440.0" stroke="black" stroke-width="2" fill="none" />
<path d="M276.0,440.0,284.0,432.0,291.5,424.5,299.5,416.5,308.0,408.5,316.5,400.5,324.5,392.5,332.0,384.5" stroke="black" stroke-width="2" fill="none" />
<path d="M323.0,386.0,315.5,393.5,308.0,401.0,300.5,408.5,292.5,416.0,285.0,424.0,277.0,431.5,269.0,439.5,261.0,447.5,253.0,455.5" stroke="black" stroke-width="2" fill="none" />
<path d="M251.5,462.0,259.5,461.5,268.0,460.5,276.5,460.0" stroke="black" stroke-width="2" fill="none" />
<path d="M266.5,459.0,258.5,466.5,251.0,474.0" stroke="black" stroke-width="2" fill="none" />
<path d="M250.5,471.5,258.5,471.0,266.0,471.0" stroke="black" stroke-width="2" fill="none" />
<path d="M268.0,469.5,259.5,477.0,252.0,484.5" stroke="black" stroke-width="2" fill="none" />
<path d="M254.0,488.0,261.5,487.0,269.0,486.0,276.5,485.0" stroke="black" stroke-width="2" fill="none" />
<path d="M275.0,482.5,267.0,490.5,260.0,498.5" stroke="black" stroke-width="2" fill="none" />
<path d="M258.0,497.5,266.5,497.0" stroke="black" stroke-width="2" fill="none" />
<path d="M260.0,503.0,268.0,502.5,276.0,502.5" stroke="black" stroke-width="2" fill="none" />
<path d="M276.5,497.5,268.5,505.5,260.5,513.0" stroke="black" stroke-width="2" fill="none" />
<path d="M259.5,510.0,267.5,509.5,275.0,509.0" stroke="black" stroke-width="2" fill="none" />
<path d="M277.5,507.5,269.5,515.0" stroke="black" stroke-width="2" fill="none" />
<path d="M268.5,515.0,276.5,514.5" stroke="black" stroke-width="2" fill="none" />
<path d="M276.5,516.0,268.5,523.5" stroke="black" stroke-width="2" fill="none" />
<path d="M269.0,522.0,276.5,521.0" stroke="black" stroke-width="2" fill="none" />
<path d="M274.5,523.0,266.5,531.5,259.0,539.5" stroke="black" stroke-width="2" fill="none" />
<path d="M257.5,542.5,265.5,542.0,274.0,542.0,282.5,541.5" stroke="black" stroke-width="2" fill="none" />
<path d="M276.5,539.0,269.0,546.5" stroke="black" stroke-width="2" fill="none" />
<path d="M268.5,546.5,276.5,545.5" stroke="black" stroke-width="2" fill="none" />
<path d="M276.5,537.0,268.5,537.5" stroke="black" stroke-width="2" fill="none" />
<path d="M268.0,538.0,276.0,530.0" stroke="black" stroke-width="2" fill="none" />
<path d="M277.5,527.5,269.5,528.0" stroke="black" stroke-width="2" fill="none" />
<path d="M276.5,525.5,268.5,526.0,260.0,526.5" stroke="black" stroke-width="2" fill="none" />
<path d="M259.5,533.5,267.5,533.0,275.0,533.0,283.0,533.0" stroke="black" stroke-width="2" fill="none" />
<path d="M276.5,516.5,268.5,517.0,260.0,517.5" stroke="black" stroke-width="2" fill="none" />
<path d="M260.0,507.0,267.5,507.0" stroke="black" stroke-width="2" fill="none" />
<path d="M260.5,505.5,267.5,498.0,275.5,491.0" stroke="black" stroke-width="2" fill="none" />
<path d="M266.0,484.0,258.0,491.5" stroke="black" stroke-width="2" fill="none" />
<path d="M259.0,491.5,267.5,491.0,276.0,491.0" stroke="black" stroke-width="2" fill="none" />
<path d="M267.5,489.0,259.0,490.0" stroke="black" stroke-width="2" fill="none" />
<path d="M259.0,484.0,267.0,476.0" stroke="black" stroke-width="2" fill="none" />
<path d="M269.0,482.0,261.0,482.5" stroke="black" stroke-width="2" fill="none" />
<path d="M252.0,478.0,259.5,477.5,267.0,477.0,274.5,476.5" stroke="black" stroke-width="2" fill="none" />
<path d="M275.0,467.5,267.0,468.5,259.0,469.0,251.0,469.5" stroke="black" stroke-width="2" fill="none" />
<path d="M250.0,466.5,258.0,459.5,266.0,452.0" stroke="black" stroke-width="2" fill="none" />
<path d="M269.0,454.5,260.5,454.5,252.0,455.0,244.0,455.0" stroke="black" stroke-width="2" fill="none" />
<path d="M245.5,455.5,253.5,447.5,261.0,440.0,268.5,432.0,276.0,424.5,283.5,417.0,291.0,409.5,299.0,402.0,307.5,394.0,315.5,387.0" stroke="black" stroke-width="2" fill="none" />
<path d="M308.0,386.5,300.0,394.0,291.5,401.0,283.5,409.0,275.0,416.5,267.0,424.5,259.0,432.0,251.0,439.0,243.0,446.5,235.0,454.0" stroke="black" stroke-width="2" fill="none" />
<path d="M228.5,453.0,236.0,445.0,244.0,437.5,252.5,430.0,260.5,422.5,268.5,415.5,276.0,408.0,284.0,401.0,292.0,393.5,300.0,386.0" stroke="black" stroke-width="2" fill="none" />
<path d="M299.0,378.5,291.0,385.5,283.5,393.0,276.0,400.5,268.5,408.0,261.0,416.0,253.0,423.0,245.0,430.5,237.0,437.5,229.0,444.5,221.0,452.0,212.5,460.0" stroke="black" stroke-width="2" fill="none" />
<path d="M205.0,461.5,213.5,454.0,221.5,446.5,229.5,439.0,237.5,431.5,245.0,424.5,253.0,417.0,260.5,410.5,269.0,403.5,277.0,396.5,285.0,389.0,293.0,381.5" stroke="black" stroke-width="2" fill="none" />
<path d="M282.5,380.5,274.5,388.0,267.0,395.5,259.0,402.5,251.5,409.0,243.5,416.0,235.5,423.0,227.5,431.0,219.5,438.5,211.5,445.5,203.5,453.0" stroke="black" stroke-width="2" fill="none" />
<path d="M199.0,454.0,206.5,446.0,214.0,438.5,221.5,431.0,228.5,423.5,236.0,416.5,243.5,409.0,251.0,401.5,258.5,393.5,265.5,385.0,273.0,377.0" stroke="black" stroke-width="2" fill="none" />
<path d="M268.0,379.0,260.5,386.5,251.5,393.5,243.0,400.5,235.0,408.5,227.5,416.0,219.5,423.5,211.0,431.0,202.5,438.5,194.5,446.5,186.5,454.0" stroke="black" stroke-width="2" fill="none" />
<path d="M189.0,455.5,197.0,455.0,204.5,454.5,212.0,453.5,219.5,452.5,228.0,452.0,236.0,451.0,244.0,450.5,252.0,449.5,260.5,449.0,268.5,448.0" stroke="black" stroke-width="2" fill="none" />
<path d="M266.0,445.0,274.5,444.5,282.5,451.5,291.0,452.5,296.0,454.0,298.5,462.0,306.5,470.0,312.5,477.5,313.5,485.5,317.5,494.0,319.5,502.0,321.5,510.0,323.5,518.0,325.0,525.5,326.5,533.5,327.0,541.5,327.5,549.5,328.5,557.0,328.5,565.0,328.5,573.0,328.0,581.0,328.5,589.0,328.0,597.0,328.0,605.5,327.5,613.5,327.5,622.0,327.5,630.0,327.5,638.0,327.5,646.0,325.5,654.0,324.5,662.0,323.5,670.0,323.5,678.0,323.5,686.0" stroke="black" stroke-width="2" fill="none" />
<path d="M323.5,684.0,331.5,683.5,340.0,683.0,348.0,682.5,355.0,682.5" stroke="black" stroke-width="2" fill="none" />
<path d="M356.5,675.0,348.5,683.0,340.5,691.0" stroke="black" stroke-width="2" fill="none" />
<path d="M332.0,690.5,340.5,683.0,349.0,674.5,357.0,666.5" stroke="black" stroke-width="2" fill="none" />
<path d="M346.0,669.5,338.0,676.5,330.0,683.0" stroke="black" stroke-width="2" fill="none" />
<path d="M332.0,682.0,340.0,681.0,347.5,680.0,355.5,679.0" stroke="black" stroke-width="2" fill="none" />
<path d="M348.5,658.5,340.0,666.0,332.0,674.0,324.0,681.5" stroke="black" stroke-width="2" fill="none" />
<path d="M324.5,676.0,333.0,675.5,340.0,675.5,347.5,674.5,354.5,674.0" stroke="black" stroke-width="2" fill="none" />
<path d="M340.5,673.0,333.0,673.5" stroke="black" stroke-width="2" fill="none" />
<path d="M330.0,668.5,329.0,658.5,333.0,663.0,340.0,665.0,340.5,675.0,344.5,675.0" stroke="black" stroke-width="2" fill="none" />
<path d="M340.0,663.5,332.0,664.0" stroke="black" stroke-width="2" fill="none" />
<path d="M325.0,668.0,332.5,667.5,339.5,668.0,347.0,667.5,355.0,667.0" stroke="black" stroke-width="2" fill="none" />
<path d="M349.0,652.5,340.5,660.0,332.5,667.0,324.0,674.0" stroke="black" stroke-width="2" fill="none" />
<path d="M323.0,661.0,331.0,661.0,339.0,661.5,347.5,661.0,356.0,660.5" stroke="black" stroke-width="2" fill="none" />
<path d="M348.0,652.5,339.5,653.0,331.0,653.0,322.5,653.0" stroke="black" stroke-width="2" fill="none" />
<path d="M321.5,670.0,313.5,668.0,306.0,666.0" stroke="black" stroke-width="2" fill="none" />
<path d="M300.5,671.5,308.5,674.5,316.5,681.5" stroke="black" stroke-width="2" fill="none" />
<path d="M306.0,675.0,316.0,682.5,328.0,689.5,336.0,691.5,344.0,693.0,351.5,690.5" stroke="black" stroke-width="2" fill="none" />
<path d="M364.0,547.5,355.0,547.5,346.5,547.5,338.5,547.5,330.5,547.5,322.5,547.5" stroke="black" stroke-width="2" fill="none" />
<path d="M325.0,540.0,332.5,539.5,340.5,539.5,349.0,540.0,357.0,539.5,365.0,539.5" stroke="black" stroke-width="2" fill="none" />
<path d="M364.0,530.0,355.5,530.0,347.5,530.5,339.5,531.0,332.0,531.5,324.0,532.0" stroke="black" stroke-width="2" fill="none" />
<path d="M323.0,525.0,331.0,524.0,339.0,524.0,347.0,524.0,355.0,524.0,362.5,523.5,370.5,523.5" stroke="black" stroke-width="2" fill="none" />
<path d="M371.0,516.5,362.5,517.0,355.0,517.0,347.5,516.5,339.5,516.5,331.0,517.0,322.0,517.5" stroke="black" stroke-width="2" fill="none" />
<path d="M269.0,465.0,261.5,466.0,253.5,466.5" stroke="black" stroke-width="2" fill="none" />
<path d="M228.0,460.0,220.5,460.0,212.5,460.0,204.0,460.5,196.0,460.5" stroke="black" stroke-width="2" fill="none" />
<path d="M197.0,459.0,204.5,458.0,212.5,457.5,220.0,456.5,228.5,456.0" stroke="black" stroke-width="2" fill="none" />
<path d="M188.0,446.5,196.5,439.0,204.5,432.5,213.0,425.5,221.5,418.0,229.0,410.5,237.5,402.0,245.5,394.5,253.5,387.0,261.5,379.5" stroke="black" stroke-width="2" fill="none" />
<path d="M253.5,377.5,245.0,385.0,236.0,393.0,228.0,401.0,220.0,409.0,212.0,417.0,203.5,425.0,195.0,432.5,186.5,440.0,178.0,447.5" stroke="black" stroke-width="2" fill="none" />
<path d="M179.5,439.0,187.5,431.5,195.5,424.5,203.5,417.5,211.5,410.0,219.0,402.5,226.5,395.0,235.0,387.5,243.0,379.5" stroke="black" stroke-width="2" fill="none" />
<path d="M233.5,377.5,226.0,385.0,218.0,393.0,210.0,400.5,202.5,409.0,194.5,416.5,186.5,424.0,178.5,431.5,170.5,439.0" stroke="black" stroke-width="2" fill="none" />
<path d="M170.5,438.0,179.0,437.5,187.5,436.5,195.5,436.0,204.0,435.5,212.5,434.5,221.0,433.5,229.5,432.5,237.5,432.0,245.0,432.0,253.0,431.5,260.5,431.0,268.5,431.5,276.0,431.5,284.0,431.5,292.5,431.5,300.0,431.0,308.0,431.0,316.5,430.5,325.0,429.5,333.0,428.5,341.0,428.0,349.0,428.0,356.5,427.0,364.5,426.0,372.5,425.5,380.5,424.5,388.5,423.5,396.0,422.0,403.5,421.5,411.0,421.0" stroke="black" stroke-width="2" fill="none" />
<path d="M403.5,426.0,395.5,426.5,387.5,427.5,379.0,428.0,370.5,429.0,363.0,430.0,355.5,430.5,347.5,430.5,339.5,431.0,331.0,432.0,323.0,432.0,315.5,432.5,307.5,433.0,299.5,433.0,292.0,433.5,283.5,434.0,275.5,435.0,268.0,436.0,260.0,436.5,252.5,437.0,244.0,438.0,235.5,438.0,227.0,438.0,219.0,438.0,211.0,438.0,203.0,439.0,195.0,439.5,186.5,440.5,178.5,441.0,170.5,442.0" stroke="black" stroke-width="2" fill="none" />
<path d="M169.5,444.0,177.5,443.5,185.5,443.0,193.5,442.5,201.5,442.0,209.5,442.0,217.5,442.0,225.5,442.0,233.5,441.5,242.0,441.0,250.0,440.5,258.0,440.0,265.5,439.0" stroke="black" stroke-width="2" fill="none" />
<path d="M266.5,444.0,259.0,444.5,251.5,445.5,243.5,446.0,235.5,447.0,228.0,447.5,220.0,448.0,212.0,447.5,204.0,447.5,196.0,448.0,187.5,448.5" stroke="black" stroke-width="2" fill="none" />
<path d="M173.0,432.5,181.0,424.5,189.0,417.0,197.0,409.5,205.0,402.0,213.0,394.0,221.0,386.5,229.0,379.0" stroke="black" stroke-width="2" fill="none" />
<path d="M220.0,380.5,212.0,388.0,204.0,395.5,195.5,403.0,188.0,410.5,180.5,418.5,172.0,425.5" stroke="black" stroke-width="2" fill="none" />
<path d="M165.0,424.5,172.5,417.5,180.5,410.0,188.5,402.5,196.5,395.5,204.5,388.5,212.5,381.0" stroke="black" stroke-width="2" fill="none" />
<path d="M203.5,378.5,195.5,386.0,187.0,393.5,179.5,401.5,172.0,409.0,164.5,416.5,157.0,424.5" stroke="black" stroke-width="2" fill="none" />
<path d="M162.5,427.5,170.5,427.5,178.5,427.5,187.0,427.5,195.5,427.0,204.0,426.5,212.5,426.5,220.5,426.0,229.0,426.0,236.5,425.5,245.0,425.0,252.5,424.0,260.5,423.5,268.5,422.5,276.5,422.0,285.0,421.0,292.5,420.5,300.5,420.5,308.5,420.5,316.5,420.5,324.0,420.0,331.5,419.5,339.0,419.0,346.5,418.5,354.5,418.0,362.5,417.5,370.0,416.5,378.0,416.0,386.5,415.5,394.5,415.0,402.5,414.5,410.5,413.5" stroke="black" stroke-width="2" fill="none" />
<path d="M387.5,419.0,379.5,420.0,371.5,421.0,364.0,422.0,356.0,423.0,348.0,424.0,341.0,424.5,333.0,425.0,325.0,425.5,317.0,426.0,309.0,426.0,301.0,425.5,293.0,425.5,285.5,426.0,277.0,426.5,269.0,427.0,261.0,427.5,253.5,427.5,245.0,428.0,236.5,429.0,228.5,429.5,221.0,429.5,212.5,430.5,204.5,431.0,196.0,432.0,188.0,433.0,179.5,434.0,171.0,434.5" stroke="black" stroke-width="2" fill="none" />
<path d="M167.0,439.5,175.0,447.5,183.0,450.5,191.0,459.0,199.5,465.0,207.5,467.0,215.5,466.5,223.5,461.5,231.5,458.5,239.5,457.5,247.5,460.5,248.5,467.5,251.0,475.5,253.0,483.5,255.0,491.5,256.0,499.0,258.0,507.0,260.0,514.5,260.5,522.5,261.5,530.0,259.5,538.5,262.5,546.5,266.5,547.5,274.5,547.5" stroke="black" stroke-width="2" fill="none" />
<path d="M295.5,546.0,287.0,547.5,275.5,547.0,277.0,539.5,274.5,531.5,273.5,523.5,272.5,515.5,272.5,507.5,272.0,499.5,271.5,492.0,271.0,483.5,270.0,475.5,269.5,467.0,270.0,459.0,269.0,451.0,270.0,443.0" stroke="black" stroke-width="2" fill="none" />
<path d="M274.0,411.5,282.5,410.5,291.0,410.0,299.0,409.5,307.0,409.0,315.5,409.0,323.0,408.0,331.0,407.0,338.5,406.0,346.0,405.5,353.5,404.5" stroke="black" stroke-width="2" fill="none" />
<path d="M348.0,414.0,340.0,415.5,332.0,416.5,324.5,417.0,317.0,417.0,309.0,417.0,300.5,417.0,293.0,417.0" stroke="black" stroke-width="2" fill="none" />
<path d="M292.5,392.0,283.5,392.5,275.0,393.0,267.0,393.5,259.0,393.5,251.5,394.0" stroke="black" stroke-width="2" fill="none" />
<path d="M244.0,386.5,236.5,387.0,228.5,388.0,220.5,388.0,212.5,388.5,204.0,388.5,196.0,388.5,188.5,388.5,180.0,389.5,172.0,389.5,163.5,390.0,155.0,391.0,147.0,391.5,139.0,392.0,131.0,392.5,123.0,393.0,115.5,394.0,108.0,394.5" stroke="black" stroke-width="2" fill="none" />
<path d="M101.0,400.5,108.5,392.5,116.0,384.5,124.0,377.0,131.5,369.5" stroke="black" stroke-width="2" fill="none" />
<path d="M126.0,371.5,117.5,379.0,109.0,386.5,100.5,394.0" stroke="black" stroke-width="2" fill="none" />
<path d="M97.0,390.5,105.0,390.0,113.0,388.5,121.0,387.5,129.5,385.5,138.0,385.0,145.5,384.0,154.0,383.5,162.0,383.0,170.5,382.5,178.5,382.5,186.5,381.5,194.5,381.0,202.5,380.0,210.0,379.5,217.5,379.0,226.0,378.5,234.5,378.5,242.5,378.5,250.0,378.5,257.5,378.0,265.5,377.5,273.5,377.0,281.5,376.5,289.5,376.0,297.5,376.0,305.5,376.0,313.5,376.0,321.5,375.5,330.0,375.0,338.0,374.5,346.0,374.0,353.5,373.0,361.5,373.0,369.5,372.5,377.5,372.5,385.5,371.5,394.0,370.5,402.5,369.0,411.0,368.5" stroke="black" stroke-width="2" fill="none" />
<path d="M407.5,364.0,406.5,371.5,404.5,379.0,401.5,386.5,398.5,394.0,396.0,402.0,393.0,409.5,391.0,417.5,389.0,425.5,388.5,433.5,381.5,444.0,382.5,451.5,382.5,459.5,382.5,467.5,382.0,475.5,382.0,483.0,382.0,491.5,383.5,499.5,383.5,508.0,383.0,516.0,383.0,524.5,383.0,532.5,384.0,540.0,384.0,548.0,384.0,556.0,385.0,564.5" stroke="black" stroke-width="2" fill="none" />
<path d="M373.0,449.5,381.0,443.5,373.0,449.0,372.0,457.0,371.0,465.0,370.0,473.0,371.5,481.0,370.5,489.0,369.5,497.0,369.5,505.0,368.5,513.0,367.5,521.0,367.0,529.0,365.0,537.0,364.0,545.0,362.0,553.0,360.0,561.0,357.5,569.0,355.5,577.0,353.5,585.5,353.0,593.5,350.5,601.0,349.5,609.0,347.0,616.5,346.0,624.5,345.0,632.5,344.0,641.0,344.0,649.0,347.0,657.0,349.5,665.0,353.5,673.0,355.5,680.5,350.5,689.0" stroke="black" stroke-width="2" fill="none" />
<path d="M178.5,604.0,170.5,604.5,162.5,604.5,154.5,604.5,147.0,605.0,139.5,605.5" stroke="black" stroke-width="2" fill="none" />
<path d="M125.5,611.5,117.0,619.0" stroke="black" stroke-width="2" fill="none" />
<path d="M114.5,619.5,106.5,620.0,98.0,620.5,89.5,621.0" stroke="black" stroke-width="2" fill="none" />
<path d="M92.0,618.0,99.5,618.0,107.0,617.5,114.5,616.5" stroke="black" stroke-width="2" fill="none" />
<path d="M109.0,616.0,116.5,608.5,124.0,601.0" stroke="black" stroke-width="2" fill="none" />
<path d="M125.0,592.5,117.0,601.0,109.0,609.0,100.5,617.0" stroke="black" stroke-width="2" fill="none" />
<path d="M92.0,616.5,100.0,615.5,108.0,614.5,115.5,614.0,123.0,613.0,131.5,612.0,139.0,611.5,147.5,610.5" stroke="black" stroke-width="2" fill="none" />
<path d="M123.0,605.0,115.0,606.5,107.5,607.5,100.0,608.0,92.0,609.0" stroke="black" stroke-width="2" fill="none" />
<path d="M89.5,614.0,97.5,600.5" stroke="black" stroke-width="2" fill="none" />
<path d="M99.5,602.5,108.0,594.5,116.0,586.5,124.0,579.5" stroke="black" stroke-width="2" fill="none" />
<path d="M124.5,587.5,116.5,594.5,108.5,601.5,100.5,609.0,92.0,616.5" stroke="black" stroke-width="2" fill="none" />
<path d="M97.5,608.0,105.5,607.5,113.5,607.5" stroke="black" stroke-width="2" fill="none" />
<path d="M115.0,600.0,107.0,600.0" stroke="black" stroke-width="2" fill="none" />
<path d="M107.5,594.0,115.5,593.5" stroke="black" stroke-width="2" fill="none" />
<path d="M108.5,589.5,116.0,589.5,124.0,589.0" stroke="black" stroke-width="2" fill="none" />
<path d="M107.0,586.5,115.0,579.0,123.0,571.5" stroke="black" stroke-width="2" fill="none" />
<path d="M122.5,561.5,114.5,569.0,106.5,577.5" stroke="black" stroke-width="2" fill="none" />
<path d="M108.0,578.5,115.5,577.5" stroke="black" stroke-width="2" fill="none" />
<path d="M115.5,584.0,107.0,584.5" stroke="black" stroke-width="2" fill="none" />
<path d="M107.0,580.0,115.0,579.5,123.0,579.0" stroke="black" stroke-width="2" fill="none" />
<path d="M123.0,573.5,115.0,574.0,107.0,575.0" stroke="black" stroke-width="2" fill="none" />
<path d="M108.0,572.0,116.0,571.5" stroke="black" stroke-width="2" fill="none" />
<path d="M107.0,568.5,115.5,561.5,123.5,554.0" stroke="black" stroke-width="2" fill="none" />
<path d="M115.5,557.5,108.0,565.0" stroke="black" stroke-width="2" fill="none" />
<path d="M109.5,563.5,117.5,563.5" stroke="black" stroke-width="2" fill="none" />
<path d="M116.5,555.0,109.0,555.5" stroke="black" stroke-width="2" fill="none" />
<path d="M109.0,555.5,116.5,548.0" stroke="black" stroke-width="2" fill="none" />
<path d="M115.5,547.5,107.5,548.0" stroke="black" stroke-width="2" fill="none" />
<path d="M101.0,552.5,109.5,545.0,117.5,537.0" stroke="black" stroke-width="2" fill="none" />
<path d="M118.0,529.5,110.0,537.0,101.0,544.5" stroke="black" stroke-width="2" fill="none" />
<path d="M100.5,542.0,108.5,541.5,116.5,541.5,124.0,540.5" stroke="black" stroke-width="2" fill="none" />
<path d="M117.5,521.0,109.0,528.5,101.0,537.0" stroke="black" stroke-width="2" fill="none" />
<path d="M101.0,535.0,109.0,535.0,117.0,534.0,125.5,533.5" stroke="black" stroke-width="2" fill="none" />
<path d="M115.5,514.5,107.0,522.0,99.0,529.5" stroke="black" stroke-width="2" fill="none" />
<path d="M101.5,531.5,109.5,530.5,117.5,530.0" stroke="black" stroke-width="2" fill="none" />
<path d="M124.0,547.0,116.0,547.5,108.0,548.0,99.5,548.0" stroke="black" stroke-width="2" fill="none" />
<path d="M100.0,539.0,108.0,538.0,116.0,537.5" stroke="black" stroke-width="2" fill="none" />
<path d="M124.5,556.0,116.5,556.0,108.5,556.5,100.5,557.0" stroke="black" stroke-width="2" fill="none" />
<path d="M101.5,566.5,109.5,566.0,117.5,565.0,125.0,564.0" stroke="black" stroke-width="2" fill="none" />
<path d="M123.0,597.0,115.0,597.0,107.5,597.0,99.5,597.5" stroke="black" stroke-width="2" fill="none" />
<path d="M120.0,615.0,128.0,612.5,136.0,611.0,144.0,610.0,152.5,608.0" stroke="black" stroke-width="2" fill="none" />
<path d="M116.5,522.0,108.5,522.5,100.5,523.0" stroke="black" stroke-width="2" fill="none" />
<path d="M99.0,522.0,106.5,514.0,114.5,506.5" stroke="black" stroke-width="2" fill="none" />
<path d="M116.5,500.5,108.0,508.5,100.5,516.0" stroke="black" stroke-width="2" fill="none" />
<path d="M100.0,513.5,108.5,513.5,116.5,513.5" stroke="black" stroke-width="2" fill="none" />
<path d="M116.0,493.5,108.5,501.0,100.5,508.0,92.5,515.5" stroke="black" stroke-width="2" fill="none" />
<path d="M89.5,517.0,98.0,517.0,106.5,517.0,115.0,517.0" stroke="black" stroke-width="2" fill="none" />
<path d="M114.5,525.0,106.5,525.5,98.0,526.0,90.0,527.0" stroke="black" stroke-width="2" fill="none" />
<path d="M91.0,509.0,98.5,508.5,106.5,508.5,115.0,508.5" stroke="black" stroke-width="2" fill="none" />
<path d="M91.0,506.0,99.5,498.5,107.5,491.0,115.5,484.0" stroke="black" stroke-width="2" fill="none" />
<path d="M115.0,473.5,107.0,481.0,98.5,488.5,90.5,496.0" stroke="black" stroke-width="2" fill="none" />
<path d="M91.0,498.0,98.5,497.5,106.5,496.5" stroke="black" stroke-width="2" fill="none" />
<path d="M106.5,504.5,98.5,504.5,90.0,504.5" stroke="black" stroke-width="2" fill="none" />
<path d="M91.0,501.5,99.0,501.0,106.5,500.0,114.5,499.5" stroke="black" stroke-width="2" fill="none" />
<path d="M91.0,489.0,99.5,481.5,108.0,474.0,116.5,466.5,125.0,459.5" stroke="black" stroke-width="2" fill="none" />
<path d="M125.0,451.0,117.0,458.5,108.5,465.5,100.5,472.5,93.0,480.0" stroke="black" stroke-width="2" fill="none" />
<path d="M92.5,483.5,100.5,482.5,109.0,482.5,117.5,482.0" stroke="black" stroke-width="2" fill="none" />
<path d="M93.5,474.0,101.5,466.0,109.5,458.5,118.0,451.0,126.0,444.0" stroke="black" stroke-width="2" fill="none" />
<path d="M124.0,448.0,115.5,448.0,107.5,448.5,100.0,449.5,91.5,450.0" stroke="black" stroke-width="2" fill="none" />
<path d="M93.5,453.0,101.5,446.0,109.5,439.0,117.0,431.5,124.5,424.0,132.0,416.5,140.0,408.5,148.0,401.0,155.5,393.0,163.5,385.5,171.0,378.0,179.0,370.5" stroke="black" stroke-width="2" fill="none" />
<path d="M172.5,371.0,164.5,378.5,156.5,386.5,148.5,393.5,140.5,401.0,133.0,408.0,125.0,415.5,117.0,423.0,109.0,430.5,101.5,438.0,93.5,445.5" stroke="black" stroke-width="2" fill="none" />
<path d="M93.0,442.0,101.0,441.5,108.5,440.5,116.0,440.0,123.0,439.0" stroke="black" stroke-width="2" fill="none" />
<path d="M122.5,441.0,130.5,432.5,139.0,429.5,147.0,428.0,154.5,428.5,162.5,429.5,165.0,431.5,168.0,439.5,171.5,447.0,187.5,455.0,195.0,463.0" stroke="black" stroke-width="2" fill="none" />
<path d="M213.5,409.0,221.0,408.5,229.0,407.5,236.5,406.5,244.5,405.5,252.5,404.5,260.0,404.0,268.0,403.5" stroke="black" stroke-width="2" fill="none" />
<path d="M261.5,408.5,269.5,409.5,280.0,413.5,288.5,413.0" stroke="black" stroke-width="2" fill="none" />
<path d="M284.0,406.5,276.5,407.5,268.5,408.0,261.0,409.0,252.5,409.5,244.5,409.5,236.5,409.5,228.0,409.5,220.0,410.0,211.0,411.0,202.5,411.0,194.0,412.0,185.0,412.5,177.0,413.0,169.0,413.5,161.0,414.0,153.5,415.0,146.5,415.5,139.0,416.0,131.5,416.0,124.0,416.0,116.5,416.5,109.0,417.0,101.5,417.0" stroke="black" stroke-width="2" fill="none" />
<path d="M99.5,417.0,107.5,409.5,115.5,402.0,123.5,394.5,131.5,387.0,139.5,379.5,148.0,371.5" stroke="black" stroke-width="2" fill="none" />
<path d="M139.5,370.0,131.5,377.5,123.5,386.0,115.0,393.5,107.0,401.0,99.0,408.5" stroke="black" stroke-width="2" fill="none" />
<path d="M100.0,411.5,108.0,410.0,115.5,409.5,123.0,408.5,131.0,407.0,138.5,406.5,147.0,406.0,155.0,405.5,163.0,405.0,170.5,404.0,178.5,404.0,186.5,403.5,194.5,403.0" stroke="black" stroke-width="2" fill="none" />
<path d="M195.0,405.5,203.0,406.5,211.0,407.5" stroke="black" stroke-width="2" fill="none" />
<path d="M204.5,401.0,212.0,400.5,220.5,400.0,229.0,399.5,237.5,399.0,245.0,398.5,253.5,397.5,262.0,396.5,270.0,396.0,277.5,395.5,285.5,395.0,293.5,394.0,301.5,394.0,309.0,393.5,316.5,393.5,324.0,393.5,332.0,393.0,340.0,392.5" stroke="black" stroke-width="2" fill="none" />
<path d="M348.5,409.0,340.5,410.0,332.0,410.0,324.0,410.5,316.0,411.5,308.5,412.5,300.0,413.0,292.0,414.0,284.5,414.0,276.5,414.0,268.0,414.5,260.0,414.5,252.5,415.0,245.0,415.5,237.0,416.5,228.5,417.0,219.5,418.0,211.5,419.0,203.0,419.5,194.5,420.5,186.5,421.5,178.5,422.0,170.5,423.0,162.5,423.5,155.0,424.0,147.5,424.5,140.5,425.0,133.0,425.0,125.0,425.0,117.0,425.0,109.0,426.0,101.0,426.5" stroke="black" stroke-width="2" fill="none" />
<path d="M100.5,433.5,108.5,433.0,116.0,433.5,124.0,433.0,132.0,432.5" stroke="black" stroke-width="2" fill="none" />
<path d="M131.5,431.0,125.5,439.0,122.0,446.5,122.0,454.5,120.5,462.0,117.5,470.0,114.5,477.5,114.0,486.0,112.5,494.0,112.5,501.5,112.5,509.5,113.5,517.5,114.5,526.0,116.0,534.0,117.0,542.5,118.5,551.0,119.5,558.5,120.5,567.0,121.0,575.0,122.0,583.0,122.0,591.0,122.0,599.0,120.5,607.5,119.5,616.0" stroke="black" stroke-width="2" fill="none" />
<path d="M116.0,491.0,107.5,491.0,99.5,491.5,91.5,492.5,83.5,493.5" stroke="black" stroke-width="2" fill="none" />
<path d="M91.0,488.5,99.5,488.0,107.5,488.0" stroke="black" stroke-width="2" fill="none" />
<path d="M115.0,471.0,107.5,471.5,100.0,472.0,92.0,473.0" stroke="black" stroke-width="2" fill="none" />
<path d="M91.0,465.0,99.0,464.0,106.0,464.0,113.5,464.0" stroke="black" stroke-width="2" fill="none" />
<path d="M92.5,461.5,101.0,453.0,108.5,445.5,116.5,438.0,124.0,430.5,132.0,422.5,139.5,414.5,147.5,407.0,155.0,399.5,162.5,392.5,170.0,385.0,178.0,377.5,186.5,369.5" stroke="black" stroke-width="2" fill="none" />
<path d="M194.5,371.5,186.5,379.0,178.5,386.5,170.5,394.5,162.5,402.0,154.5,410.0,146.5,417.5,139.5,425.0" stroke="black" stroke-width="2" fill="none" />
<path d="M146.0,425.0,154.0,417.0,162.5,409.5,171.0,402.0,179.5,394.5,188.0,386.5,196.0,378.5" stroke="black" stroke-width="2" fill="none" />
<path d="M195.0,399.0,187.0,399.5,179.0,399.5,171.0,400.0,163.5,400.0" stroke="black" stroke-width="2" fill="none" />
<path d="M155.5,400.5,147.5,401.5,139.0,402.0" stroke="black" stroke-width="2" fill="none" />
<path d="M148.0,394.5,155.5,395.0,159.0,397.5" stroke="black" stroke-width="2" fill="none" />
<path d="M145.0,380.0,137.0,387.0,129.5,394.0,122.0,401.5,115.0,409.5,107.5,417.0,100.0,425.0,91.5,432.0" stroke="black" stroke-width="2" fill="none" />
<path d="M92.0,431.0,100.0,430.5,108.5,429.0,117.0,428.0,125.0,427.0,133.0,426.0,141.0,425.5,148.5,425.0" stroke="black" stroke-width="2" fill="none" />
<path d="M123.5,399.5,115.0,400.0,106.5,400.5,98.5,400.5" stroke="black" stroke-width="2" fill="none" />
<path d="M90.0,399.0,98.0,398.5,106.5,398.0,115.0,397.5,123.0,396.5,131.0,396.5,139.5,396.0,148.5,396.0,157.0,395.5,165.5,395.0,173.5,394.5,181.5,393.5,189.5,393.0,197.5,392.0,205.0,391.0,212.5,390.5,220.5,389.0,228.0,388.5,236.0,387.5,243.5,386.5,252.0,386.0,260.0,386.0,268.0,385.5,276.0,385.5,285.0,385.5,293.5,385.5,301.5,385.5,309.0,385.0,317.0,385.0,325.0,384.5,333.0,384.0,341.0,383.5,348.5,383.0,355.5,382.5,363.0,382.0,370.5,381.0,378.5,381.0,386.5,380.5,394.5,380.0,402.5,379.5,410.0,378.5" stroke="black" stroke-width="2" fill="none" />
<path d="M411.5,357.0,404.0,357.0,395.5,357.0,387.5,357.5" stroke="black" stroke-width="2" fill="none" />
<path d="M372.0,343.5,363.5,344.0,356.0,344.0,348.0,344.0,340.0,344.0,332.0,343.5,324.0,343.5,316.0,343.5,308.5,344.5,300.0,345.0,292.5,346.0,284.5,347.5,277.0,348.0,269.0,348.0,261.0,348.5,253.0,349.0,245.0,349.5,237.0,350.5,228.5,351.0,220.0,351.5,212.5,352.5,204.5,353.0,197.0,354.0,188.5,354.5,180.5,354.5,172.5,354.5,164.0,354.5,156.0,355.0,147.0,356.0,138.5,356.0,130.0,357.0,121.0,357.5,113.0,358.0" stroke="black" stroke-width="2" fill="none" />
<path d="M113.5,354.5,121.5,347.0,129.5,340.0" stroke="black" stroke-width="2" fill="none" />
<path d="M132.5,344.5,125.0,345.0" stroke="black" stroke-width="2" fill="none" />
<path d="M131.5,348.0,123.0,355.0" stroke="black" stroke-width="2" fill="none" />
<path d="M114.5,349.0,122.5,348.5,130.5,348.0,139.0,348.0" stroke="black" stroke-width="2" fill="none" />
<path d="M139.5,340.0,131.0,340.0,122.5,340.5,114.5,340.5" stroke="black" stroke-width="2" fill="none" />
<path d="M115.0,344.5,123.5,336.5,131.5,328.5,140.0,320.5" stroke="black" stroke-width="2" fill="none" />
<path d="M132.5,324.0,141.0,317.5,149.0,310.5" stroke="black" stroke-width="2" fill="none" />
<path d="M148.0,299.5,140.0,307.0,131.5,314.5" stroke="black" stroke-width="2" fill="none" />
<path d="M125.0,321.5,130.0,312.5,126.0,320.5,123.0,329.0,116.5,330.0,124.5,312.5,132.5,298.5,137.5,291.5" stroke="black" stroke-width="2" fill="none" />
<path d="M137.5,289.0,145.0,281.5" stroke="black" stroke-width="2" fill="none" />
<path d="M141.5,286.5,149.5,286.0,157.5,285.5" stroke="black" stroke-width="2" fill="none" />
<path d="M146.0,291.0,138.0,298.5" stroke="black" stroke-width="2" fill="none" />
<path d="M140.5,293.5,148.0,293.5,156.0,293.5" stroke="black" stroke-width="2" fill="none" />
<path d="M146.0,275.0,138.0,282.0" stroke="black" stroke-width="2" fill="none" />
<path d="M130.0,278.0,138.0,278.0,146.5,277.5,155.0,277.5" stroke="black" stroke-width="2" fill="none" />
<path d="M140.5,273.5,132.5,274.5" stroke="black" stroke-width="2" fill="none" />
<path d="M131.5,274.0,139.0,266.5" stroke="black" stroke-width="2" fill="none" />
<path d="M137.5,269.5,145.5,279.5" stroke="black" stroke-width="2" fill="none" />
<path d="M148.5,267.5,140.5,268.0,132.5,269.0,124.0,269.0" stroke="black" stroke-width="2" fill="none" />
<path d="M123.0,265.5,130.5,258.0" stroke="black" stroke-width="2" fill="none" />
<path d="M132.0,256.0,135.0,264.0,142.5,272.5,146.5,280.5,148.0,289.0,146.0,297.0,142.0,305.0,137.0,313.0,133.0,321.0,130.0,329.0,128.0,337.0,128.0,345.0,127.5,353.0,133.5,355.5" stroke="black" stroke-width="2" fill="none" />
<path d="M115.0,370.5,107.0,377.5" stroke="black" stroke-width="2" fill="none" />
<path d="M101.5,375.0,110.0,366.0,117.5,361.0" stroke="black" stroke-width="2" fill="none" />
<path d="M108.5,364.5,117.0,364.5,124.5,364.0,132.0,364.0,140.0,364.0,148.0,363.5,156.0,363.5,164.0,363.5,172.5,363.5,181.0,363.0,188.5,362.0,197.0,361.0,204.5,360.0,212.5,359.5,220.5,359.0,228.5,359.0,237.0,358.0,245.5,357.5,253.5,357.5,261.5,358.0,269.5,357.5,277.0,357.0,285.0,355.5,292.5,354.5,300.0,353.5,307.5,352.5,315.5,352.0,324.0,351.0,332.0,350.5,340.0,350.0,348.0,349.5,356.0,349.0,363.5,348.5,371.5,348.0,379.0,347.5,386.5,347.5,395.0,347.5,403.5,347.0,411.5,347.0" stroke="black" stroke-width="2" fill="none" />
<path d="M410.0,326.0,402.0,326.0,394.0,326.5" stroke="black" stroke-width="2" fill="none" />
<path d="M396.0,322.5,404.0,314.5" stroke="black" stroke-width="2" fill="none" />
<path d="M397.0,313.0,405.0,305.0" stroke="black" stroke-width="2" fill="none" />
<path d="M409.0,296.0,408.0,304.0,408.5,312.0,408.5,320.0,408.5,328.0,408.5,336.0,409.0,343.5,414.5,339.5" stroke="black" stroke-width="2" fill="none" />
<path d="M420.0,318.0,412.5,319.0,404.5,319.5,397.0,319.5" stroke="black" stroke-width="2" fill="none" />
<path d="M394.0,311.0,402.0,310.0,410.5,309.0,419.0,308.5" stroke="black" stroke-width="2" fill="none" />
<path d="M418.5,289.0,410.5,290.0,402.5,290.0" stroke="black" stroke-width="2" fill="none" />
<path d="M404.0,289.5,412.0,282.0,420.5,274.0,428.5,265.5" stroke="black" stroke-width="2" fill="none" />
<path d="M428.0,260.0,420.0,267.5,411.5,274.5,403.5,282.5" stroke="black" stroke-width="2" fill="none" />
<path d="M403.5,281.5,411.5,281.0,419.5,280.0" stroke="black" stroke-width="2" fill="none" />
<path d="M417.5,279.5,423.0,268.5,420.0,276.5,417.0,284.5,415.0,292.5,414.0,300.0,412.5,308.0,413.5,315.5" stroke="black" stroke-width="2" fill="none" />
<path d="M394.0,305.0,403.0,297.5,411.5,290.0,419.5,282.5,427.5,275.0" stroke="black" stroke-width="2" fill="none" />
<path d="M418.0,272.5,409.5,272.5" stroke="black" stroke-width="2" fill="none" />
<path d="M405.0,273.0,413.0,265.0,421.5,257.0,429.0,249.0,437.0,241.5" stroke="black" stroke-width="2" fill="none" />
<path d="M443.0,243.0,435.0,244.0,427.0,244.5,418.5,245.0,410.5,245.5,403.0,246.0" stroke="black" stroke-width="2" fill="none" />
<path d="M411.0,249.0,419.0,248.5" stroke="black" stroke-width="2" fill="none" />
<path d="M420.5,242.0,412.0,249.0" stroke="black" stroke-width="2" fill="none" />
<path d="M411.5,242.5,419.5,235.0" stroke="black" stroke-width="2" fill="none" />
<path d="M419.0,229.0,411.5,236.5" stroke="black" stroke-width="2" fill="none" />
<path d="M404.0,237.0,412.0,236.5,420.0,236.0,428.0,235.0,435.5,234.0,443.5,233.0" stroke="black" stroke-width="2" fill="none" />
<path d="M443.5,226.0,436.0,227.0,428.5,228.0,420.5,228.0,413.0,228.5,405.0,228.5" stroke="black" stroke-width="2" fill="none" />
<path d="M407.5,227.0,416.0,231.0,413.5,236.0,422.0,236.5,424.5,244.5" stroke="black" stroke-width="2" fill="none" />
<path d="M428.0,244.5,420.0,252.0,412.5,260.0,404.5,267.5" stroke="black" stroke-width="2" fill="none" />
<path d="M403.0,270.5,411.0,269.5,419.0,268.5,427.5,268.0" stroke="black" stroke-width="2" fill="none" />
<path d="M426.0,263.0,418.5,264.0,410.0,264.5" stroke="black" stroke-width="2" fill="none" />
<path d="M403.0,262.0,411.0,261.5,419.5,261.5,428.0,261.5" stroke="black" stroke-width="2" fill="none" />
<path d="M427.5,260.0,435.5,254.5,443.5,250.5" stroke="black" stroke-width="2" fill="none" />
<path d="M440.5,247.5,432.5,246.5" stroke="black" stroke-width="2" fill="none" />
<path d="M441.0,244.0,433.0,240.5,425.0,230.5,417.0,226.5" stroke="black" stroke-width="2" fill="none" />
<path d="M413.0,228.5,410.5,236.5,407.5,243.0,409.0,251.5,408.0,260.0,405.0,268.0" stroke="black" stroke-width="2" fill="none" />
<path d="M402.5,277.0,411.0,276.5,419.0,276.0,427.0,275.5" stroke="black" stroke-width="2" fill="none" />
<path d="M428.0,283.0,419.5,283.5,411.5,284.0,404.0,285.0,396.0,285.5" stroke="black" stroke-width="2" fill="none" />
<path d="M399.5,292.0,399.5,300.0,398.5,307.5,398.0,315.5,398.0,323.0,398.0,331.0,398.0,338.5,396.0,346.5,395.0,354.5,391.0,362.0,387.0,369.5,384.0,377.5,381.0,385.5,384.0,378.0" stroke="black" stroke-width="2" fill="none" />
<path d="M376.5,377.0,368.5,366.5,360.5,362.5,352.0,359.5" stroke="black" stroke-width="2" fill="none" />
<path d="M349.5,353.5,357.5,351.0,365.5,350.0,373.5,352.0,381.5,352.5,385.0,354.5" stroke="black" stroke-width="2" fill="none" />
<path d="M379.0,360.0,371.0,358.0,363.0,355.5,355.0,354.5,350.5,348.5,345.0,350.5,337.0,351.5,329.0,351.5,320.5,350.5,312.5,349.5,304.5,348.5,297.0,346.0,289.0,346.0,281.0,342.5,273.0,344.0,265.0,343.0,257.0,345.5,249.0,344.5,241.0,344.5,238.5,339.5,236.5,331.5,238.5,323.5,237.0,315.0,237.0,307.0,235.5,299.0,235.5,291.0,236.5,283.0,236.0,275.0,236.0,267.0,237.0,259.5,241.0,255.5,241.0,247.5,242.0,239.5,235.5,237.5,228.0,239.0,220.5,239.5,212.5,235.5,205.0,232.5,197.5,231.5,189.0,230.0,181.0,229.0,172.5,229.0,165.0,233.0,156.5,233.0,149.0,232.0,141.0,231.0,133.5,232.5,125.5,237.0,124.5,245.0" stroke="black" stroke-width="2" fill="none" />
<path d="M122.0,246.5,130.0,246.0,139.0,245.5,147.5,244.5,155.5,243.5,164.5,242.5,172.0,242.0,180.0,241.0,188.5,241.0,196.5,240.5,204.5,240.0,212.0,239.5,220.5,239.0,229.0,238.5,237.5,238.0,245.0,237.5,253.5,236.5,262.0,235.5,270.0,235.0" stroke="black" stroke-width="2" fill="none" />
<path d="M260.0,235.5,252.0,243.0,244.0,250.0,235.5,257.5" stroke="black" stroke-width="2" fill="none" />
<path d="M236.0,262.0,244.5,261.5,252.5,261.5,260.0,261.0" stroke="black" stroke-width="2" fill="none" />
<path d="M260.5,258.5,253.0,266.0,244.5,274.5" stroke="black" stroke-width="2" fill="none" />
<path d="M245.5,272.5,253.0,272.5" stroke="black" stroke-width="2" fill="none" />
<path d="M259.5,276.5,251.5,284.0,244.0,292.0" stroke="black" stroke-width="2" fill="none" />
<path d="M244.5,290.0,252.0,289.5" stroke="black" stroke-width="2" fill="none" />
<path d="M257.0,286.0,249.0,293.5,241.5,300.0" stroke="black" stroke-width="2" fill="none" />
<path d="M242.0,297.5,250.0,297.0" stroke="black" stroke-width="2" fill="none" />
<path d="M251.0,301.5,243.0,309.0" stroke="black" stroke-width="2" fill="none" />
<path d="M242.5,305.0,250.5,305.0" stroke="black" stroke-width="2" fill="none" />
<path d="M252.5,306.5,244.5,314.0" stroke="black" stroke-width="2" fill="none" />
<path d="M244.5,313.0,252.0,313.0" stroke="black" stroke-width="2" fill="none" />
<path d="M257.5,314.0,265.5,326.5,273.5,330.5,281.5,330.5,289.0,327.5,297.0,320.0" stroke="black" stroke-width="2" fill="none" />
<path d="M298.5,317.5,306.5,316.5,315.0,316.0" stroke="black" stroke-width="2" fill="none" />
<path d="M315.0,315.0,306.5,322.5,298.5,330.0,290.5,338.0,282.5,346.0" stroke="black" stroke-width="2" fill="none" />
<path d="M283.0,341.5,291.5,334.0" stroke="black" stroke-width="2" fill="none" />
<path d="M292.5,337.5,300.5,337.0,308.5,336.0" stroke="black" stroke-width="2" fill="none" />
<path d="M314.5,331.0,306.5,339.0,299.0,346.5" stroke="black" stroke-width="2" fill="none" />
<path d="M293.5,346.5,301.5,339.0,309.0,331.5,317.5,324.0" stroke="black" stroke-width="2" fill="none" />
<path d="M315.5,321.5,308.0,322.0" stroke="black" stroke-width="2" fill="none" />
<path d="M306.5,316.0,315.0,309.0" stroke="black" stroke-width="2" fill="none" />
<path d="M317.0,309.5,309.5,310.5" stroke="black" stroke-width="2" fill="none" />
<path d="M306.0,306.0,314.0,299.0" stroke="black" stroke-width="2" fill="none" />
<path d="M308.0,298.0,316.0,290.5" stroke="black" stroke-width="2" fill="none" />
<path d="M315.5,292.5,307.5,293.5,299.5,295.0" stroke="black" stroke-width="2" fill="none" />
<path d="M299.0,298.5,300.0,294.5,307.0,298.5,307.0,306.0" stroke="black" stroke-width="2" fill="none" />
<path d="M307.5,303.5,315.5,302.5" stroke="black" stroke-width="2" fill="none" />
<path d="M308.0,296.5,314.0,290.5,310.5,298.5,313.5,307.0,313.0,315.0,310.0,323.0" stroke="black" stroke-width="2" fill="none" />
<path d="M317.5,322.0,309.5,322.5,302.0,323.0,294.0,323.5" stroke="black" stroke-width="2" fill="none" />
<path d="M281.5,331.5,273.5,338.5,266.0,346.0" stroke="black" stroke-width="2" fill="none" />
<path d="M262.5,345.5,270.5,345.5,278.5,347.0,280.0,343.0" stroke="black" stroke-width="2" fill="none" />
<path d="M275.5,332.0,267.5,339.5,259.5,346.5" stroke="black" stroke-width="2" fill="none" />
<path d="M251.0,345.5,259.5,337.5,267.5,330.0" stroke="black" stroke-width="2" fill="none" />
<path d="M269.0,324.0,260.5,331.0,252.0,338.0,243.5,345.0" stroke="black" stroke-width="2" fill="none" />
<path d="M244.5,339.0,253.0,331.5,261.0,324.0" stroke="black" stroke-width="2" fill="none" />
<path d="M261.0,316.5,252.5,324.0,244.0,331.5" stroke="black" stroke-width="2" fill="none" />
<path d="M244.5,329.0,252.5,328.0,260.5,327.5" stroke="black" stroke-width="2" fill="none" />
<path d="M260.5,320.0,252.5,321.5,245.0,322.0" stroke="black" stroke-width="2" fill="none" />
<path d="M243.0,324.0,251.0,317.0,259.5,309.5" stroke="black" stroke-width="2" fill="none" />
<path d="M268.0,323.5,260.5,324.5,253.0,325.5,245.0,327.0,237.5,327.5" stroke="black" stroke-width="2" fill="none" />
<path d="M236.0,335.5,244.0,335.0,251.5,334.0,259.5,333.0,268.0,332.0,275.5,330.5,283.5,329.5,291.0,329.0,299.0,328.0,307.5,327.5,315.5,327.0" stroke="black" stroke-width="2" fill="none" />
<path d="M331.0,333.5,339.0,332.5,347.5,331.5,355.5,331.0" stroke="black" stroke-width="2" fill="none" />
<path d="M347.5,331.0,339.5,338.5,332.0,346.0,324.5,353.5" stroke="black" stroke-width="2" fill="none" />
<path d="M315.5,343.5,307.5,344.0" stroke="black" stroke-width="2" fill="none" />
<path d="M300.0,347.0,292.0,347.5" stroke="black" stroke-width="2" fill="none" />
<path d="M332.5,325.5,341.0,325.0,348.5,324.5" stroke="black" stroke-width="2" fill="none" />
<path d="M339.0,322.0,347.0,314.5" stroke="black" stroke-width="2" fill="none" />
<path d="M338.5,314.0,346.0,306.0" stroke="black" stroke-width="2" fill="none" />
<path d="M340.0,306.5,348.0,299.0,356.0,291.5" stroke="black" stroke-width="2" fill="none" />
<path d="M355.5,283.0,348.0,290.5,340.0,297.5" stroke="black" stroke-width="2" fill="none" />
<path d="M341.0,300.5,349.0,300.0,356.5,299.5" stroke="black" stroke-width="2" fill="none" />
<path d="M347.5,305.0,339.5,305.0" stroke="black" stroke-width="2" fill="none" />
<path d="M348.0,309.0,339.5,310.0,331.0,310.5" stroke="black" stroke-width="2" fill="none" />
<path d="M333.0,318.5,341.0,318.0,349.0,317.5" stroke="black" stroke-width="2" fill="none" />
<path d="M348.5,336.5,340.5,337.0" stroke="black" stroke-width="2" fill="none" />
<path d="M341.0,342.5,347.0,340.5" stroke="black" stroke-width="2" fill="none" />
<path d="M358.5,335.5,350.5,327.0,346.5,319.5,347.0,311.5,350.0,304.0,354.0,296.0,353.0,286.5,354.0,278.5,356.0,270.5,353.5,262.5,347.5,267.5" stroke="black" stroke-width="2" fill="none" />
<path d="M348.0,266.0,340.0,273.5" stroke="black" stroke-width="2" fill="none" />
<path d="M340.5,277.0,349.0,276.0,357.0,275.5" stroke="black" stroke-width="2" fill="none" />
<path d="M356.5,277.0,356.5,285.0,354.0,293.0" stroke="black" stroke-width="2" fill="none" />
<path d="M356.5,290.5,349.0,291.0,340.5,292.0" stroke="black" stroke-width="2" fill="none" />
<path d="M340.5,283.0,349.0,283.0,357.0,282.5" stroke="black" stroke-width="2" fill="none" />
<path d="M355.5,266.0,347.5,266.5,339.0,267.0,331.0,268.5,322.5,269.0,315.0,270.0,307.0,270.5" stroke="black" stroke-width="2" fill="none" />
<path d="M307.5,274.5,315.0,266.5,322.5,258.5" stroke="black" stroke-width="2" fill="none" />
<path d="M318.5,257.5,326.5,250.0,335.0,243.0" stroke="black" stroke-width="2" fill="none" />
<path d="M339.5,243.0,347.0,243.0,354.5,242.0" stroke="black" stroke-width="2" fill="none" />
<path d="M349.5,243.0,341.0,250.5" stroke="black" stroke-width="2" fill="none" />
<path d="M340.0,253.0,348.5,252.5,356.5,251.0" stroke="black" stroke-width="2" fill="none" />
<path d="M349.0,251.5,341.5,259.0,333.0,266.0,325.0,273.5" stroke="black" stroke-width="2" fill="none" />
<path d="M332.5,273.0,340.5,265.0,349.0,257.0" stroke="black" stroke-width="2" fill="none" />
<path d="M356.0,259.0,348.0,260.0,340.0,261.0,332.0,261.0,324.0,261.5,316.5,262.0,308.0,262.0" stroke="black" stroke-width="2" fill="none" />
<path d="M303.5,264.0,311.5,254.0" stroke="black" stroke-width="2" fill="none" />
<path d="M314.5,253.5,323.0,252.5,331.5,252.0" stroke="black" stroke-width="2" fill="none" />
<path d="M334.5,257.5,326.0,265.0,317.5,272.5,309.5,280.0" stroke="black" stroke-width="2" fill="none" />
<path d="M306.0,280.0,313.5,279.0,321.5,278.0" stroke="black" stroke-width="2" fill="none" />
<path d="M315.5,285.0,307.5,285.5,300.0,286.0" stroke="black" stroke-width="2" fill="none" />
<path d="M303.5,285.0,311.5,277.0,316.0,279.5,315.0,287.5,315.5,295.5,317.0,303.5,317.0,311.5,315.5,319.5,312.5,327.5,314.5,335.5,320.5,347.0,323.5,348.0,332.0,344.0" stroke="black" stroke-width="2" fill="none" />
<path d="M331.0,345.0,332.0,333.0,333.0,325.0,332.0,317.5,332.0,309.5,335.5,301.5,338.5,293.5,340.0,285.0,338.0,277.0,334.5,274.0,331.5,272.5,324.0,273.5,316.0,280.0,316.0,274.0,304.0,266.5" stroke="black" stroke-width="2" fill="none" />
<path d="M316.0,244.5,324.0,244.0,332.0,244.0" stroke="black" stroke-width="2" fill="none" />
<path d="M317.0,238.0,325.0,237.5,333.0,237.0,341.0,236.5,348.5,236.5,355.5,236.5" stroke="black" stroke-width="2" fill="none" />
<path d="M355.0,236.0,363.0,217.0,370.5,198.5" stroke="black" stroke-width="2" fill="none" />
<path d="M370.0,195.5,362.5,196.0" stroke="black" stroke-width="2" fill="none" />
<path d="M363.0,187.5,371.0,187.0" stroke="black" stroke-width="2" fill="none" />
<path d="M369.5,182.0,377.5,181.5" stroke="black" stroke-width="2" fill="none" />
<path d="M377.5,173.5,369.5,174.0" stroke="black" stroke-width="2" fill="none" />
<path d="M364.5,163.0,356.0,170.5,348.0,178.5" stroke="black" stroke-width="2" fill="none" />
<path d="M350.0,181.5,353.0,185.5,350.0,188.0,355.0,197.0,352.0,205.0,349.0,213.5,346.0,222.0,343.0,230.0,341.0,238.0" stroke="black" stroke-width="2" fill="none" />
<path d="M340.0,238.5,341.0,230.5,343.0,222.0,347.0,214.0,350.0,206.0,353.0,198.0,358.0,190.5,355.5,182.5,355.5,174.5,359.5,168.5,363.0,161.0,357.0,171.0" stroke="black" stroke-width="2" fill="none" />
<path d="M353.5,173.5,345.5,174.0" stroke="black" stroke-width="2" fill="none" />
<path d="M349.0,171.5,356.5,164.0,364.0,156.0,371.5,148.5" stroke="black" stroke-width="2" fill="none" />
<path d="M372.5,141.0,364.5,148.5,356.5,155.5" stroke="black" stroke-width="2" fill="none" />
<path d="M354.0,154.5,362.5,153.5" stroke="black" stroke-width="2" fill="none" />
<path d="M363.0,162.0,355.0,162.5" stroke="black" stroke-width="2" fill="none" />
<path d="M359.5,166.5,361.5,171.5,367.5,173.0,365.5,181.0,363.5,189.5,361.5,197.0,357.5,205.0,354.5,212.5,350.5,220.5,347.5,228.5,345.5,236.5,343.5,244.5,340.0,252.5" stroke="black" stroke-width="2" fill="none" />
<path d="M334.0,257.0,335.5,249.0,335.5,239.0,336.0,230.0,337.5,222.0,340.5,214.0,343.5,206.0,346.5,198.5,347.5,190.5,346.5,182.5,346.0,174.5,344.5,166.5,344.5,158.5,341.0,154.0,333.0,161.5" stroke="black" stroke-width="2" fill="none" />
<path d="M339.0,163.0,331.5,170.0" stroke="black" stroke-width="2" fill="none" />
<path d="M332.5,176.0,340.5,168.5" stroke="black" stroke-width="2" fill="none" />
<path d="M348.0,165.5,355.5,165.0,363.5,165.0,371.0,165.0,379.5,164.5" stroke="black" stroke-width="2" fill="none" />
<path d="M373.0,160.5,375.5,168.5,375.0,176.0,374.0,184.0,372.5,192.5,369.5,200.5,366.5,208.5,363.0,216.0,360.0,224.0,357.5,233.0,354.5,241.0,353.5,249.0,353.5,256.5,351.0,264.0,347.0,277.0,353.5,266.0" stroke="black" stroke-width="2" fill="none" />
<path d="M351.0,265.0,351.5,273.0" stroke="black" stroke-width="2" fill="none" />
<path d="M349.5,232.5,355.5,214.5,364.0,203.0" stroke="black" stroke-width="2" fill="none" />
<path d="M363.5,213.0,356.0,213.5,348.0,214.0" stroke="black" stroke-width="2" fill="none" />
<path d="M348.0,206.0,355.5,205.0,363.5,204.5,371.5,204.0" stroke="black" stroke-width="2" fill="none" />
<path d="M354.5,197.5,346.5,198.0" stroke="black" stroke-width="2" fill="none" />
<path d="M345.5,188.0,353.5,187.0" stroke="black" stroke-width="2" fill="none" />
<path d="M353.0,181.5,344.5,182.0" stroke="black" stroke-width="2" fill="none" />
<path d="M332.0,195.5,324.0,196.0" stroke="black" stroke-width="2" fill="none" />
<path d="M323.0,189.5,331.5,189.5" stroke="black" stroke-width="2" fill="none" />
<path d="M322.5,187.0,327.5,175.5,324.5,183.5,322.5,192.0,322.5,200.0,322.5,208.0,323.5,216.0,324.5,224.0,324.0,232.0,324.5,240.0" stroke="black" stroke-width="2" fill="none" />
<path d="M324.0,229.5,331.5,228.5,339.5,227.5,347.0,227.0,355.0,226.0" stroke="black" stroke-width="2" fill="none" />
<path d="M345.5,230.0,353.5,211.0" stroke="black" stroke-width="2" fill="none" />
<path d="M363.5,219.5,356.0,219.5,348.0,219.5,340.5,220.5" stroke="black" stroke-width="2" fill="none" />
<path d="M335.5,222.0,343.5,201.5,350.5,199.5" stroke="black" stroke-width="2" fill="none" />
<path d="M331.5,205.0,323.5,205.0" stroke="black" stroke-width="2" fill="none" />
<path d="M332.0,209.5,332.5,217.0,334.0,225.5,334.5,233.5,333.5,241.0,331.5,249.0,328.5,256.5,333.5,258.5" stroke="black" stroke-width="2" fill="none" />
<path d="M344.0,228.5,352.0,207.5" stroke="black" stroke-width="2" fill="none" />
<path d="M331.5,213.0,324.0,214.0,316.5,215.0" stroke="black" stroke-width="2" fill="none" />
<path d="M323.0,221.5,331.0,221.0" stroke="black" stroke-width="2" fill="none" />
<path d="M329.0,214.5,330.0,222.5,330.0,231.0,329.5,239.0,326.5,247.0,323.5,251.0" stroke="black" stroke-width="2" fill="none" />
<path d="M316.5,196.0,309.0,196.5" stroke="black" stroke-width="2" fill="none" />
<path d="M307.0,192.5,309.0,201.5" stroke="black" stroke-width="2" fill="none" />
<path d="M308.5,187.5,316.0,187.0" stroke="black" stroke-width="2" fill="none" />
<path d="M315.5,183.0,324.0,173.0,323.0,173.5,317.0,181.5,315.5,189.5,316.0,197.5,318.0,205.5,320.0,213.5,321.0,222.0,322.0,230.5,323.5,238.5" stroke="black" stroke-width="2" fill="none" />
<path d="M324.0,183.0,332.0,182.0,340.0,181.0" stroke="black" stroke-width="2" fill="none" />
<path d="M331.5,169.0,323.5,170.0" stroke="black" stroke-width="2" fill="none" />
<path d="M316.5,177.5,325.0,169.5,333.0,162.0,341.0,155.0,349.0,147.5" stroke="black" stroke-width="2" fill="none" />
<path d="M354.5,146.0,362.5,145.5" stroke="black" stroke-width="2" fill="none" />
<path d="M356.0,139.0,364.5,131.5,373.0,124.0" stroke="black" stroke-width="2" fill="none" />
<path d="M373.0,125.5,381.0,118.0,382.0,112.0,392.0,108.0" stroke="black" stroke-width="2" fill="none" />
<path d="M387.0,106.0,395.0,98.5" stroke="black" stroke-width="2" fill="none" />
<path d="M395.0,91.5,387.0,99.0" stroke="black" stroke-width="2" fill="none" />
<path d="M389.0,93.5,380.5,101.0" stroke="black" stroke-width="2" fill="none" />
<path d="M381.5,93.5,389.5,86.0" stroke="black" stroke-width="2" fill="none" />
<path d="M395.5,86.5,392.5,94.5,401.5,94.0,409.5,93.0,417.0,92.0,425.0,93.0,432.5,98.0,440.0,109.5" stroke="black" stroke-width="2" fill="none" />
<path d="M443.5,107.5,435.0,108.0,427.0,109.0,419.5,109.5" stroke="black" stroke-width="2" fill="none" />
<path d="M418.5,107.5,426.0,100.0" stroke="black" stroke-width="2" fill="none" />
<path d="M419.0,100.0,411.0,107.5" stroke="black" stroke-width="2" fill="none" />
<path d="M417.0,107.0,423.0,115.5,425.0,123.5,425.0,132.0,424.5,139.5,424.5,148.0,424.0,156.0,422.0,164.0,420.5,172.0,417.0,180.0,413.0,188.0,413.0,196.5,411.0,204.0,409.0,212.0,407.5,220.0,406.0,227.5,403.0,235.5,404.5,243.0,405.0,251.0,401.0,259.5,402.0,267.5,401.0,275.5,398.0,283.0,396.0,290.5,394.0,298.5,394.0,306.5,393.0,314.5,393.0,323.0,388.0,331.5,380.5,343.5,373.5,343.5,376.5,346.5,384.5,340.5,381.5,345.5,389.0,345.5" stroke="black" stroke-width="2" fill="none" />
<path d="M412.5,330.0,404.5,331.0,396.5,331.5,388.5,332.5,381.5,333.5,373.5,334.0,365.0,334.0,357.0,334.0,348.5,334.5,340.5,334.0,332.0,334.0,323.5,334.0,315.5,334.0,307.5,335.0,299.0,336.5,291.0,337.5,283.0,339.0,275.5,340.0,267.5,340.5,260.0,341.0,252.0,341.5,244.0,342.0,236.0,342.5" stroke="black" stroke-width="2" fill="none" />
<path d="M245.5,336.0,253.5,335.0,261.5,335.0,269.0,334.5,276.5,334.5" stroke="black" stroke-width="2" fill="none" />
<path d="M260.5,316.5,252.5,317.5,244.5,318.0,236.5,318.5" stroke="black" stroke-width="2" fill="none" />
<path d="M235.0,310.0,243.0,309.5,251.0,309.5,259.5,309.0" stroke="black" stroke-width="2" fill="none" />
<path d="M259.0,300.0,250.5,300.0,242.0,301.0,233.5,301.5" stroke="black" stroke-width="2" fill="none" />
<path d="M235.0,293.0,243.0,292.5,251.0,292.5,259.0,292.5" stroke="black" stroke-width="2" fill="none" />
<path d="M252.5,280.0,245.0,280.5" stroke="black" stroke-width="2" fill="none" />
<path d="M243.0,282.0,251.0,275.0,259.5,267.0" stroke="black" stroke-width="2" fill="none" />
<path d="M259.5,255.0,251.5,255.0" stroke="black" stroke-width="2" fill="none" />
<path d="M261.0,251.0,252.5,258.5,244.5,266.5" stroke="black" stroke-width="2" fill="none" />
<path d="M244.0,264.5,252.0,264.0,260.0,263.5" stroke="black" stroke-width="2" fill="none" />
<path d="M245.0,257.0,253.5,250.0,261.5,243.0" stroke="black" stroke-width="2" fill="none" />
<path d="M261.5,226.5,253.0,234.0,245.5,242.0,237.0,249.5" stroke="black" stroke-width="2" fill="none" />
<path d="M237.0,251.0,245.0,250.5" stroke="black" stroke-width="2" fill="none" />
<path d="M244.5,254.0,244.5,246.0,245.0,238.0" stroke="black" stroke-width="2" fill="none" />
<path d="M237.5,238.5,245.0,238.0,253.0,237.0,260.5,236.0,268.0,235.5" stroke="black" stroke-width="2" fill="none" />
<path d="M259.0,217.5,251.0,225.0,243.0,232.5,235.0,239.5,227.0,247.0" stroke="black" stroke-width="2" fill="none" />
<path d="M228.5,245.0,220.5,252.0" stroke="black" stroke-width="2" fill="none" />
<path d="M219.0,244.0,211.0,251.5" stroke="black" stroke-width="2" fill="none" />
<path d="M204.0,251.5,212.0,244.5,220.0,237.0" stroke="black" stroke-width="2" fill="none" />
<path d="M211.5,235.5,203.5,243.5,195.5,251.0" stroke="black" stroke-width="2" fill="none" />
<path d="M187.0,251.0,194.5,244.0,202.5,236.5" stroke="black" stroke-width="2" fill="none" />
<path d="M193.5,235.5,185.5,243.0,178.0,250.5" stroke="black" stroke-width="2" fill="none" />
<path d="M172.0,254.0,180.5,253.5,188.5,253.0,197.0,252.5,205.0,252.0,212.5,251.0,220.5,250.0,228.5,249.5,236.5,248.5,244.0,247.5,252.0,247.0,260.0,246.5" stroke="black" stroke-width="2" fill="none" />
<path d="M268.0,227.5,260.0,227.5,252.0,227.5,244.0,228.0" stroke="black" stroke-width="2" fill="none" />
<path d="M244.5,221.0,253.5,220.5,261.5,220.0,269.5,219.5" stroke="black" stroke-width="2" fill="none" />
<path d="M260.0,211.5,252.0,218.5" stroke="black" stroke-width="2" fill="none" />
<path d="M251.5,212.0,259.5,212.0,268.0,212.0" stroke="black" stroke-width="2" fill="none" />
<path d="M259.5,203.5,251.5,211.0" stroke="black" stroke-width="2" fill="none" />
<path d="M252.0,204.5,260.0,204.0,267.5,203.5" stroke="black" stroke-width="2" fill="none" />
<path d="M259.0,201.0,251.5,201.5" stroke="black" stroke-width="2" fill="none" />
<path d="M252.0,203.0,260.5,196.0" stroke="black" stroke-width="2" fill="none" />
<path d="M260.5,193.5,252.5,194.5" stroke="black" stroke-width="2" fill="none" />
<path d="M252.0,195.0,260.0,187.5" stroke="black" stroke-width="2" fill="none" />
<path d="M262.5,185.0,254.5,185.5" stroke="black" stroke-width="2" fill="none" />
<path d="M251.0,187.0,258.5,179.5" stroke="black" stroke-width="2" fill="none" />
<path d="M251.5,178.5,259.5,170.5" stroke="black" stroke-width="2" fill="none" />
<path d="M252.5,169.5,260.5,162.0" stroke="black" stroke-width="2" fill="none" />
<path d="M261.0,161.0,252.5,161.0" stroke="black" stroke-width="2" fill="none" />
<path d="M252.5,161.0,260.5,153.0" stroke="black" stroke-width="2" fill="none" />
<path d="M260.5,153.0,252.0,153.0" stroke="black" stroke-width="2" fill="none" />
<path d="M253.0,154.0,261.0,146.5" stroke="black" stroke-width="2" fill="none" />
<path d="M260.5,144.5,252.0,145.0" stroke="black" stroke-width="2" fill="none" />
<path d="M251.5,145.5,260.0,138.5,268.0,131.0" stroke="black" stroke-width="2" fill="none" />
<path d="M269.0,130.5,261.0,131.0" stroke="black" stroke-width="2" fill="none" />
<path d="M266.0,134.0,258.0,134.0,250.0,134.5" stroke="black" stroke-width="2" fill="none" />
<path d="M251.0,135.0,259.0,135.5,256.5,143.5,255.5,152.0,255.0,160.0,254.5,168.0,255.0,176.5,255.5,184.5,263.5,193.5" stroke="black" stroke-width="2" fill="none" />
<path d="M268.0,196.0,260.5,196.0,253.0,196.5" stroke="black" stroke-width="2" fill="none" />
<path d="M258.5,199.0,259.5,206.5,259.0,214.5,259.0,222.5,259.0,230.5" stroke="black" stroke-width="2" fill="none" />
<path d="M245.0,190.0,252.5,189.0,260.5,188.5,268.5,187.5" stroke="black" stroke-width="2" fill="none" />
<path d="M260.0,181.5,251.5,182.0,243.5,182.5" stroke="black" stroke-width="2" fill="none" />
<path d="M243.5,174.0,252.0,174.0,260.5,173.5" stroke="black" stroke-width="2" fill="none" />
<path d="M260.0,164.5,251.5,165.0,244.0,165.0" stroke="black" stroke-width="2" fill="none" />
<path d="M244.0,158.0,252.5,157.5,261.0,157.0" stroke="black" stroke-width="2" fill="none" />
<path d="M258.0,156.5,258.0,164.5" stroke="black" stroke-width="2" fill="none" />
<path d="M258.5,148.5,250.5,149.5,242.5,150.0" stroke="black" stroke-width="2" fill="none" />
<path d="M252.0,141.0,260.0,141.0,268.0,140.5" stroke="black" stroke-width="2" fill="none" />
<path d="M262.5,138.5,270.5,124.0,279.0,119.0,287.0,118.0,295.5,118.0,303.0,119.0,311.5,121.5,319.5,134.5,329.5,132.5" stroke="black" stroke-width="2" fill="none" />
<path d="M331.0,137.5,338.5,136.5" stroke="black" stroke-width="2" fill="none" />
<path d="M340.5,132.0,332.5,139.5,323.5,146.5" stroke="black" stroke-width="2" fill="none" />
<path d="M326.5,145.0,333.5,144.5,341.0,144.0" stroke="black" stroke-width="2" fill="none" />
<path d="M338.5,141.5,331.0,149.0,323.0,156.5,315.0,163.5" stroke="black" stroke-width="2" fill="none" />
<path d="M313.5,164.0,311.5,172.0,309.5,180.5,308.5,188.5,308.5,196.5,307.5,204.5,309.5,212.5,312.0,220.5,313.0,229.0,319.0,240.0" stroke="black" stroke-width="2" fill="none" />
<path d="M312.0,183.5,311.5,191.5,312.0,201.5,311.5,210.0,313.5,210.5,315.5,218.5,316.5,226.5,317.5,234.0,313.5,242.0,311.5,249.5,309.0,257.5,302.0,265.5,301.0,273.5,300.0,282.0,299.5,290.0,297.5,298.5,303.5,306.5,302.5,314.5,297.5,322.5,287.0,330.5" stroke="black" stroke-width="2" fill="none" />
<path d="M259.5,285.0,251.0,286.0,242.5,286.5,235.0,286.5" stroke="black" stroke-width="2" fill="none" />
<path d="M235.5,278.0,243.5,277.5,251.5,276.5,259.5,276.0" stroke="black" stroke-width="2" fill="none" />
<path d="M259.5,269.0,251.0,270.0,243.0,270.5,235.0,271.5" stroke="black" stroke-width="2" fill="none" />
<path d="M185.5,233.0,178.0,241.0,170.5,249.0" stroke="black" stroke-width="2" fill="none" />
<path d="M164.5,250.5,172.0,243.0,180.0,235.0" stroke="black" stroke-width="2" fill="none" />
<path d="M171.5,235.5,163.0,242.5" stroke="black" stroke-width="2" fill="none" />
<path d="M161.5,242.0,170.0,241.0,178.0,241.0" stroke="black" stroke-width="2" fill="none" />
<path d="M173.5,229.0,181.5,229.0,189.0,229.0,197.0,228.5" stroke="black" stroke-width="2" fill="none" />
<path d="M163.0,235.0,154.5,242.5" stroke="black" stroke-width="2" fill="none" />
<path d="M155.0,236.0,147.0,243.0" stroke="black" stroke-width="2" fill="none" />
<path d="M148.5,241.0,141.5,241.5,133.5,242.0" stroke="black" stroke-width="2" fill="none" />
<path d="M141.0,244.5,135.5,252.5,137.5,261.0,144.0,269.0,150.0,277.5,152.5,285.5,152.0,294.0,150.0,302.5,146.0,310.5,142.5,318.5,139.5,326.5,136.5,334.5,136.0,342.5,136.0,350.0,138.5,355.0,146.0,354.0,154.0,352.5,162.0,351.5,170.0,350.5,177.5,349.5,185.0,348.5,193.0,347.0,201.5,346.5,209.5,345.5,218.0,345.5,226.5,345.5,234.5,344.5" stroke="black" stroke-width="2" fill="none" />
<path d="M173.0,352.0,180.5,351.5,187.5,350.5,195.5,350.0,203.5,349.0,211.5,348.0,219.5,347.5,227.5,346.5,236.0,345.5,244.5,344.5,252.0,343.5,260.0,343.0,268.0,342.5,275.5,342.0,283.0,341.0,291.0,340.5,299.0,340.0,307.5,340.0,315.5,340.0,324.0,340.0,332.0,340.0,340.0,339.0,348.5,338.0,356.5,337.0,364.5,336.0,372.5,335.5,380.5,335.0,388.5,334.5,396.0,333.5,404.0,333.0,412.0,332.0" stroke="black" stroke-width="2" fill="none" />
<path d="M419.5,299.0,411.5,300.0,403.0,301.0,395.0,302.0" stroke="black" stroke-width="2" fill="none" />
<path d="M395.5,293.0,403.0,292.0,411.5,291.0,420.0,290.5,428.5,290.5" stroke="black" stroke-width="2" fill="none" />
<path d="M419.5,285.5,422.0,279.0,419.0,287.0,418.0,294.5,415.5,302.0" stroke="black" stroke-width="2" fill="none" />
<path d="M410.0,221.0,417.5,213.5,425.0,205.5" stroke="black" stroke-width="2" fill="none" />
<path d="M420.0,202.0,427.5,195.0,435.5,188.0" stroke="black" stroke-width="2" fill="none" />
<path d="M433.5,180.5,425.5,188.0" stroke="black" stroke-width="2" fill="none" />
<path d="M426.5,190.5,431.5,170.0" stroke="black" stroke-width="2" fill="none" />
<path d="M436.0,171.5,427.5,179.0,419.5,186.5" stroke="black" stroke-width="2" fill="none" />
<path d="M418.5,180.5,427.0,180.0,435.0,179.0" stroke="black" stroke-width="2" fill="none" />
<path d="M428.5,170.0,436.5,162.5" stroke="black" stroke-width="2" fill="none" />
<path d="M429.0,161.5,437.0,154.0" stroke="black" stroke-width="2" fill="none" />
<path d="M436.0,148.5,427.5,156.0" stroke="black" stroke-width="2" fill="none" />
<path d="M426.5,155.5,434.5,155.0,442.5,154.5" stroke="black" stroke-width="2" fill="none" />
<path d="M435.5,140.5,427.5,147.5" stroke="black" stroke-width="2" fill="none" />
<path d="M425.5,149.5,433.5,149.0,442.5,148.0" stroke="black" stroke-width="2" fill="none" />
<path d="M428.0,137.5,436.0,130.0,444.0,123.0" stroke="black" stroke-width="2" fill="none" />
<path d="M445.0,114.0,437.5,121.5,429.5,129.0" stroke="black" stroke-width="2" fill="none" />
<path d="M427.5,127.0,435.5,126.5,443.0,126.5" stroke="black" stroke-width="2" fill="none" />
<path d="M438.0,114.0,429.5,121.5" stroke="black" stroke-width="2" fill="none" />
<path d="M426.0,123.0,434.0,122.5" stroke="black" stroke-width="2" fill="none" />
<path d="M426.5,117.5,434.5,116.5,443.0,116.0" stroke="black" stroke-width="2" fill="none" />
<path d="M435.0,113.0,427.0,114.0" stroke="black" stroke-width="2" fill="none" />
<path d="M428.0,114.0,436.0,106.5" stroke="black" stroke-width="2" fill="none" />
<path d="M432.5,109.0,434.5,117.0,434.5,125.0,434.0,133.5,434.0,141.5,433.5,150.0,431.5,158.0,430.5,166.0,429.5,175.0,427.5,183.0,423.5,191.0,424.5,200.0,423.5,207.5,424.5,215.5,430.5,224.5,445.5,232.0,447.5,240.0,444.5,248.0" stroke="black" stroke-width="2" fill="none" />
<path d="M419.0,219.5,411.5,227.5" stroke="black" stroke-width="2" fill="none" />
<path d="M411.0,220.5,419.0,220.5,427.5,220.5" stroke="black" stroke-width="2" fill="none" />
<path d="M427.0,213.0,419.5,213.0,412.0,214.0" stroke="black" stroke-width="2" fill="none" />
<path d="M411.0,206.5,419.5,206.0,427.0,206.0" stroke="black" stroke-width="2" fill="none" />
<path d="M437.0,197.5,429.5,198.0,421.5,199.0,413.5,200.0" stroke="black" stroke-width="2" fill="none" />
<path d="M411.5,190.0,420.0,189.5,427.5,189.0,436.0,189.0" stroke="black" stroke-width="2" fill="none" />
<path d="M435.5,171.5,428.0,172.0,420.5,173.0" stroke="black" stroke-width="2" fill="none" />
<path d="M419.5,165.5,427.0,165.5,435.5,164.0,444.0,163.0" stroke="black" stroke-width="2" fill="none" />
<path d="M442.0,140.5,433.5,141.0,425.0,141.5" stroke="black" stroke-width="2" fill="none" />
<path d="M425.5,134.5,434.5,134.0,443.0,133.0" stroke="black" stroke-width="2" fill="none" />
<path d="M435.5,111.5,437.5,119.5,437.0,127.5,437.5,135.5,437.0,143.5,436.0,152.0,435.0,159.5,433.0,167.5,431.5,179.5,427.5,187.5,424.5,195.5,420.5,203.5,421.5,211.5,417.5,224.5,425.5,224.0,432.0,226.0,440.0,226.5" stroke="black" stroke-width="2" fill="none" />
<path d="M410.0,188.0,418.0,172.0" stroke="black" stroke-width="2" fill="none" />
<path d="M425.5,108.5,433.5,101.0" stroke="black" stroke-width="2" fill="none" />
<path d="M425.5,104.5,417.5,105.0" stroke="black" stroke-width="2" fill="none" />
<path d="M412.0,99.0,404.5,106.5" stroke="black" stroke-width="2" fill="none" />
<path d="M403.0,106.5,394.5,106.5,386.5,106.5,378.5,106.5,370.5,107.0" stroke="black" stroke-width="2" fill="none" />
<path d="M373.0,101.5,365.5,99.5" stroke="black" stroke-width="2" fill="none" />
<path d="M364.5,98.5,375.0,106.5" stroke="black" stroke-width="2" fill="none" />
<path d="M369.0,97.0,379.0,96.0,386.5,104.0,382.0,112.0,382.0,117.0,372.5,125.0,369.5,134.0,372.5,134.0,380.5,124.0,388.5,116.0,396.0,110.5,404.0,108.0,412.0,107.0,420.0,111.0" stroke="black" stroke-width="2" fill="none" />
<path d="M403.0,108.0,388.0,116.0,380.5,124.0,374.0,132.0,371.5,139.5,371.5,148.0,368.0,152.0,371.5,155.5,370.0,163.5,371.0,172.5,370.0,183.5,370.5,191.0,367.5,199.0,364.5,206.5,360.0,214.5,357.0,222.5,353.0,230.0,349.5,238.0,346.5,240.5" stroke="black" stroke-width="2" fill="none" />
<path d="M315.5,180.0,307.5,181.0" stroke="black" stroke-width="2" fill="none" />
<path d="M308.5,174.5,316.0,157.5" stroke="black" stroke-width="2" fill="none" />
<path d="M313.5,157.5,322.0,157.5,330.5,157.5,339.0,157.0" stroke="black" stroke-width="2" fill="none" />
<path d="M348.5,157.0,356.5,156.5,364.0,155.5,372.0,155.5" stroke="black" stroke-width="2" fill="none" />
<path d="M361.5,139.0,353.5,139.5" stroke="black" stroke-width="2" fill="none" />
<path d="M353.5,135.5,361.5,135.0,370.0,134.0,378.5,133.5" stroke="black" stroke-width="2" fill="none" />
<path d="M387.0,116.0,379.5,116.5,371.5,117.0,363.5,117.0" stroke="black" stroke-width="2" fill="none" />
<path d="M354.5,126.5,362.0,126.0,370.5,124.5,378.5,123.5" stroke="black" stroke-width="2" fill="none" />
<path d="M362.0,101.5,370.5,101.5,378.5,101.0,386.5,100.5,395.0,99.5,403.5,99.0,411.5,99.0,419.0,98.5,427.0,98.0,434.5,97.5" stroke="black" stroke-width="2" fill="none" />
<path d="M380.0,82.5,372.0,90.5,363.5,98.0" stroke="black" stroke-width="2" fill="none" />
<path d="M363.5,96.0,371.5,95.5,379.0,94.5,387.0,94.0,394.5,93.0" stroke="black" stroke-width="2" fill="none" />
<path d="M377.5,88.0,370.0,88.5" stroke="black" stroke-width="2" fill="none" />
<path d="M373.5,87.5,381.5,87.5" stroke="black" stroke-width="2" fill="none" />
<path d="M372.0,82.5,364.5,90.0" stroke="black" stroke-width="2" fill="none" />
<path d="M363.5,89.5,356.0,90.0,348.0,90.5" stroke="black" stroke-width="2" fill="none" />
<path d="M351.5,94.0,341.5,102.0,338.0,110.0,333.0,118.5,339.0,126.5,341.0,134.5,341.5,142.0,342.5,151.5,338.0,160.5,334.5,168.0,338.5,170.0,336.5,178.0,333.0,185.5,331.0,193.5,330.5,201.0,327.5,209.0,325.5,216.5,327.0,225.0" stroke="black" stroke-width="2" fill="none" />
<path d="M339.5,170.5,331.5,171.0,323.0,171.0,315.0,171.5,307.0,172.0" stroke="black" stroke-width="2" fill="none" />
<path d="M313.0,166.0,321.0,165.5,330.0,165.0,338.5,164.0" stroke="black" stroke-width="2" fill="none" />
<path d="M331.5,159.5,323.5,159.5" stroke="black" stroke-width="2" fill="none" />
<path d="M324.5,152.0,332.0,151.5,340.0,151.5" stroke="black" stroke-width="2" fill="none" />
<path d="M324.5,142.0,332.0,141.5,339.5,140.5,347.0,140.5,355.0,140.0,362.5,139.5,371.0,139.0" stroke="black" stroke-width="2" fill="none" />
<path d="M338.5,125.5,330.0,133.0,322.5,140.0" stroke="black" stroke-width="2" fill="none" />
<path d="M324.0,134.0,331.5,133.5,339.5,133.5" stroke="black" stroke-width="2" fill="none" />
<path d="M333.0,123.0,324.5,130.5" stroke="black" stroke-width="2" fill="none" />
<path d="M322.0,123.5,330.5,116.5,339.0,109.5" stroke="black" stroke-width="2" fill="none" />
<path d="M338.5,110.0,330.5,110.5,322.5,111.0,315.0,112.5,307.5,114.0,300.0,115.0,291.5,115.5,283.5,116.0,276.0,116.5,268.0,117.0,260.5,117.5" stroke="black" stroke-width="2" fill="none" />
<path d="M260.0,122.0,268.0,121.0,276.5,120.0" stroke="black" stroke-width="2" fill="none" />
<path d="M279.5,120.0,269.5,128.0,266.0,135.5,263.0,143.0,262.0,151.0,261.0,158.5,260.0,166.5,259.5,174.5,260.5,182.5,263.0,190.0,262.0,196.0,263.5,204.5,264.5,212.5,264.5,220.5,264.5,228.5,263.0,236.5,262.0,245.0,259.5,253.0,260.0,261.0,258.0,269.0,255.5,277.0,254.5,285.0,255.0,293.5,255.0,301.5,255.5,309.5,258.0,317.5,263.0,325.5" stroke="black" stroke-width="2" fill="none" />
<path d="M262.5,411.0,270.5,412.0,283.5,415.5" stroke="black" stroke-width="2" fill="none" />
<path d="M208.0,404.5,200.5,403.5,192.5,402.5,189.5,404.0" stroke="black" stroke-width="2" fill="none" />
<path d="M162.5,373.0,155.0,380.5,147.0,387.5,139.0,394.5,131.5,401.5,123.5,409.0,115.5,416.0,107.5,423.5,99.5,431.0,91.5,438.5" stroke="black" stroke-width="2" fill="none" />
<path d="M86.5,443.0,94.5,422.0" stroke="black" stroke-width="2" fill="none" />
<path d="M90.5,422.0,99.0,421.5,107.5,421.0,116.0,420.5,124.5,420.5,132.5,420.0,141.0,419.5,149.0,418.5,156.5,418.0,164.5,418.0,172.5,417.0,180.5,416.5,188.5,416.5,196.0,415.5,204.0,414.5,211.5,413.5,219.5,413.0,227.5,412.5,235.0,412.0,243.5,411.5,251.5,411.0,259.5,410.5,267.5,410.0,275.0,409.5,283.0,409.0,291.0,408.5,299.5,408.0,307.5,408.0,316.0,408.0,324.0,407.5,331.5,407.0,339.5,406.5,347.5,405.5,355.5,405.0,363.5,404.0,371.5,404.0,380.0,403.0,388.0,403.0,396.0,402.5,404.0,402.0,412.0,401.0" stroke="black" stroke-width="2" fill="none" />
<path d="M411.0,362.0,403.5,362.5,395.5,363.0,387.5,363.0,380.0,363.5,371.5,364.0,363.5,365.0,356.0,366.0,348.0,366.5,340.5,367.0,332.0,368.0,323.5,368.0,315.0,368.0,307.0,368.0,299.0,368.0,291.0,369.0,283.0,369.5,274.5,370.5,266.5,371.0,258.5,372.0,250.5,372.0,243.0,372.0,235.5,372.0,227.5,372.5,219.5,373.0,212.0,373.5,204.0,374.0,195.5,375.0,187.0,375.5,178.5,376.0,170.5,376.5,162.5,377.0,154.5,377.0,146.5,377.5,138.5,378.0,130.5,379.0,122.5,379.0,114.0,379.5,105.5,379.5,97.5,380.5" stroke="black" stroke-width="2" fill="none" />
<path d="M98.0,373.0,106.0,372.0,114.5,371.0,123.0,371.0,131.5,371.5,140.0,371.0,148.0,370.0,156.0,369.0,164.0,368.0,171.5,368.0,179.0,367.0,187.0,367.0,195.0,366.5,203.0,366.5,211.5,366.5,220.0,366.0,227.5,366.0,235.0,365.5,242.5,365.0,250.5,364.5,258.5,364.0,267.0,363.5,275.5,362.5,283.5,362.0,292.0,361.5,300.5,360.5,309.0,359.5,317.5,358.5,325.5,358.0,333.0,358.0,341.0,357.5,348.5,357.0,356.5,357.5,364.0,357.5,372.0,357.5,380.5,357.5,388.0,357.0,396.0,357.0,404.5,356.5,413.0,355.5" stroke="black" stroke-width="2" fill="none" />
<path d="M412.0,393.0,404.5,393.5,396.5,394.0,388.5,395.0,380.0,396.0,371.5,396.5,363.5,397.0,355.5,398.0,347.0,399.0,339.0,399.5,331.0,400.5,323.5,400.5,315.5,400.5,308.0,400.5,300.0,400.5,292.5,400.0,284.5,400.5,276.5,401.5,268.5,402.0,260.5,403.0,252.0,403.0,244.0,403.5,236.0,404.0,228.0,404.5,220.0,405.5,212.0,406.0,204.0,407.0,196.0,407.5,188.0,408.5,180.0,409.0,172.0,410.0,164.0,410.5,156.0,411.0,148.0,411.5,140.5,412.0,132.0,412.5,123.5,412.5,115.5,412.5,107.0,412.5,98.5,412.5,90.5,413.0" stroke="black" stroke-width="2" fill="none" />
<path d="M91.0,405.5,99.0,405.5,107.0,405.5,115.0,405.0,123.0,404.5,130.5,404.0,139.0,403.5,147.5,403.0,156.0,403.0,164.5,403.0,173.0,402.0,181.0,402.0,189.0,401.0,197.5,400.5,205.5,400.0,213.5,399.0,221.0,398.0,228.0,397.0,235.5,396.5,243.0,396.5,251.0,396.0,259.5,395.5,267.0,394.5,275.5,393.5,283.5,392.0,291.0,391.5,299.0,391.5,307.0,392.0,315.5,392.0,324.0,391.5,332.0,391.0,340.5,390.5,348.5,390.5,356.0,390.0,363.5,389.5,372.0,389.0,379.5,388.0,387.0,387.5,395.0,386.5,403.5,386.0,412.0,385.0" stroke="black" stroke-width="2" fill="none" />
<path d="M378.0,388.0,377.0,380.0,371.5,371.5,360.5,363.5" stroke="black" stroke-width="2" fill="none" />
<path d="M315.0,151.0,323.0,150.5,331.5,149.5,339.5,148.5,348.5,148.5,356.5,148.0,364.0,147.0,371.5,146.0" stroke="black" stroke-width="2" fill="none" />
<path d="M339.0,125.0,331.5,125.5,323.5,126.0,316.0,126.5" stroke="black" stroke-width="2" fill="none" />
<path d="M315.5,119.5,323.5,112.5,331.0,105.0,339.0,97.5,346.5,90.5,354.5,83.0" stroke="black" stroke-width="2" fill="none" />
<path d="M347.5,83.5,340.0,91.0,332.5,98.5,325.0,106.0,316.5,113.0,308.5,120.5" stroke="black" stroke-width="2" fill="none" />
<path d="M307.0,113.5,315.0,106.0,323.0,98.5,331.0,91.5,339.0,84.0" stroke="black" stroke-width="2" fill="none" />
<path d="M347.0,79.0,355.0,78.5,363.5,78.0,371.5,77.0,379.5,76.0" stroke="black" stroke-width="2" fill="none" />
<path d="M365.0,83.0,357.0,90.5" stroke="black" stroke-width="2" fill="none" />
<path d="M354.5,91.5,347.0,92.0,339.0,92.0,331.0,92.0,322.5,92.5,314.5,93.0" stroke="black" stroke-width="2" fill="none" />
<path d="M323.5,98.0,332.0,97.5,340.0,97.0" stroke="black" stroke-width="2" fill="none" />
<path d="M340.5,98.5,332.5,99.5,324.0,100.0,316.0,100.5,307.5,101.0" stroke="black" stroke-width="2" fill="none" />
<path d="M309.0,105.5,301.0,113.0" stroke="black" stroke-width="2" fill="none" />
<path d="M302.0,110.5,310.0,106.5" stroke="black" stroke-width="2" fill="none" />
<path d="M313.5,106.5,321.5,106.0" stroke="black" stroke-width="2" fill="none" />
<path d="M334.0,106.5,329.0,114.5,334.0,107.0" stroke="black" stroke-width="2" fill="none" />
<path d="M341.0,104.0,333.0,105.0,324.5,106.0,316.0,107.0,308.0,108.0,300.0,108.5,291.5,109.5,283.0,110.0,274.5,110.5,266.5,111.5" stroke="black" stroke-width="2" fill="none" />
<path d="M268.0,115.0,259.5,122.5,252.0,130.0" stroke="black" stroke-width="2" fill="none" />
<path d="M251.5,132.0,252.5,120.0,261.0,111.5,269.5,107.5,277.5,105.5,285.0,104.5,293.0,104.5,301.0,104.5,309.0,101.5,314.5,94.0,322.5,88.5,330.5,83.0,338.5,80.0,346.5,78.0,354.5,76.5,363.0,75.5,371.0,76.5,379.0,79.0,387.0,85.5,395.5,86.5" stroke="black" stroke-width="2" fill="none" />
<path d="M397.0,82.0,389.0,82.5,380.5,83.0,372.0,82.5,363.5,83.0,355.5,83.5,347.0,85.0,339.0,85.5,331.5,85.5,323.5,86.0" stroke="black" stroke-width="2" fill="none" />
<path d="M332.0,115.0,340.0,103.0,344.5,92.0,348.5,94.5,356.5,93.5,365.5,95.5,373.5,92.5,382.0,96.5,390.5,95.5" stroke="black" stroke-width="2" fill="none" />
<path d="M368.0,109.0,364.0,114.0,356.0,126.0,348.0,142.0,347.0,141.5,352.0,133.5,356.0,125.5,360.0,117.5,367.5,109.5,362.5,102.0,361.5,94.0" stroke="black" stroke-width="2" fill="none" />
<path d="M299.5,108.0,292.0,115.5" stroke="black" stroke-width="2" fill="none" />
<path d="M290.0,109.5,282.0,117.0" stroke="black" stroke-width="2" fill="none" />
<path d="M282.5,116.0,290.5,115.0,299.0,114.5,307.0,113.5" stroke="black" stroke-width="2" fill="none" />
<path d="M283.5,106.0,275.0,113.0,267.0,120.5,258.5,128.0,250.5,136.0" stroke="black" stroke-width="2" fill="none" />
<path d="M251.0,126.0,259.0,125.0,267.0,124.5,274.5,124.0" stroke="black" stroke-width="2" fill="none" />
<path d="M276.0,105.5,259.0,113.5,252.5,121.5,249.5,129.5,248.5,137.5,246.0,145.5,245.0,154.0,245.0,162.0,245.5,170.5,245.5,178.5,244.5,186.0,245.5,194.5,247.5,203.0,247.5,211.0,245.5,219.0,240.5,227.0,239.0,235.0" stroke="black" stroke-width="2" fill="none" />
<path d="M228.0,246.0,220.0,247.0,212.0,247.5,204.0,248.0,195.5,248.0,187.0,248.0,179.0,248.0,170.5,247.5,162.5,248.0" stroke="black" stroke-width="2" fill="none" />
<path d="M158.5,239.5,150.5,237.5,151.0,235.5,143.5,237.5" stroke="black" stroke-width="2" fill="none" />
<path d="M139.0,234.0,131.5,241.5,123.5,249.0" stroke="black" stroke-width="2" fill="none" />
<path d="M122.5,251.0,130.5,250.5,139.0,249.5" stroke="black" stroke-width="2" fill="none" />
<path d="M137.0,251.5,145.0,246.5,152.5,247.0,160.5,250.0,168.0,252.5,176.0,255.5,184.0,256.5,192.0,256.5,200.0,255.0,208.0,254.0,216.0,253.0,224.0,254.0,231.5,255.0" stroke="black" stroke-width="2" fill="none" />
<path d="M146.5,232.5,138.5,240.5,131.0,248.5,123.5,256.0" stroke="black" stroke-width="2" fill="none" />
<path d="M124.0,256.0,132.0,256.0" stroke="black" stroke-width="2" fill="none" />
<path d="M130.5,255.5,131.0,259.5,134.0,267.5,140.5,275.5,144.5,283.5,144.5,291.5,140.5,299.5,132.0,307.0,127.5,315.0,123.5,323.5,121.5,331.0,122.5,339.5" stroke="black" stroke-width="2" fill="none" />
<path d="M121.5,329.5,129.5,311.5,137.5,302.5" stroke="black" stroke-width="2" fill="none" />
<path d="M132.5,303.0,141.0,302.0,148.5,301.0,156.5,300.5" stroke="black" stroke-width="2" fill="none" />
<path d="M146.0,317.0,137.5,317.0,129.5,317.0,121.0,317.5" stroke="black" stroke-width="2" fill="none" />
<path d="M123.5,309.0,131.5,308.5,139.5,308.0,147.0,307.5" stroke="black" stroke-width="2" fill="none" />
<path d="M138.5,329.0,130.5,330.0,122.5,330.5,114.5,331.5" stroke="black" stroke-width="2" fill="none" />
<path d="M114.5,325.0,123.0,324.5,131.5,324.0,140.0,323.0" stroke="black" stroke-width="2" fill="none" />
<path d="M136.5,330.5,144.5,311.5" stroke="black" stroke-width="2" fill="none" />
<path d="M146.5,297.5,138.0,311.5,130.0,328.5" stroke="black" stroke-width="2" fill="none" />
<path d="M128.0,327.5,135.0,312.0,142.5,297.0" stroke="black" stroke-width="2" fill="none" />
<path d="M139.0,260.5,131.5,261.5,123.0,262.0" stroke="black" stroke-width="2" fill="none" />
<path d="M121.5,261.0,129.5,274.0,139.5,288.5,137.5,296.5,138.5,299.5,136.5,308.0,132.5,316.0,128.5,325.0,126.5,334.0,125.5,342.0,126.5,350.0,123.5,358.0,124.5,358.0" stroke="black" stroke-width="2" fill="none" />
<path d="M109.0,384.5,117.5,384.0,125.5,384.0,133.0,383.5,141.0,382.5,149.0,382.5,156.5,382.0,165.0,382.0,173.0,382.0" stroke="black" stroke-width="2" fill="none" />
<path d="M129.5,396.5,121.0,395.0" stroke="black" stroke-width="2" fill="none" />
<path d="M118.0,395.5,126.5,395.0,134.5,396.0" stroke="black" stroke-width="2" fill="none" />
<path d="M122.5,454.5,115.0,455.0,107.0,455.5,98.5,455.5,90.5,456.0" stroke="black" stroke-width="2" fill="none" />
<path d="M84.0,454.5,92.0,454.5,101.0,454.5,109.0,454.0,116.5,453.5,125.0,453.0" stroke="black" stroke-width="2" fill="none" />
<path d="M116.0,482.5,108.0,482.5,100.0,483.0,93.0,483.5,85.0,484.0" stroke="black" stroke-width="2" fill="none" />
<path d="M84.5,476.5,92.5,476.0,101.0,476.0,109.5,475.5,117.5,475.5" stroke="black" stroke-width="2" fill="none" />
<path d="M126.5,467.0,118.0,467.5,109.5,467.5,101.5,467.0,93.5,467.0,85.5,467.5" stroke="black" stroke-width="2" fill="none" />
<path d="M84.0,461.5,92.0,460.5,100.5,460.0,108.5,459.0,117.0,458.5,125.0,458.0" stroke="black" stroke-width="2" fill="none" />
<path d="M125.0,443.0,117.5,443.5,109.5,444.0,102.0,444.5,94.0,445.5,85.5,446.0" stroke="black" stroke-width="2" fill="none" />
<path d="M85.0,436.5,93.0,436.0,101.0,436.0,108.5,435.5,116.5,435.5,124.5,435.0,131.5,434.0" stroke="black" stroke-width="2" fill="none" />
<path d="M145.0,270.0,137.0,259.0" stroke="black" stroke-width="2" fill="none" />
<path d="M131.0,260.5,139.0,268.5,147.0,280.5" stroke="black" stroke-width="2" fill="none" />
<path d="M139.0,253.0,131.5,253.5,123.5,254.5" stroke="black" stroke-width="2" fill="none" />
<path d="M122.5,239.0,130.5,238.5,138.5,237.5,147.0,236.5,155.5,236.0,163.5,235.0,172.5,234.0,181.0,233.5,189.0,232.5,196.5,232.0,204.0,231.5,212.0,231.5,220.5,231.0,228.5,231.0" stroke="black" stroke-width="2" fill="none" />
<path d="M126.0,238.0,132.0,232.0,121.0,240.5,119.0,249.0,120.0,257.0,122.0,265.0,128.0,273.0,134.5,281.0,137.0,289.0,135.0,296.5,131.0,304.5,126.0,312.5,121.5,320.5,118.5,329.0,116.0,337.0,115.0,345.0,115.0,353.0,117.0,361.0,105.0,368.5,101.0,376.5,100.0,384.5,95.0,392.5,94.0,400.5,94.0,409.0,94.5,417.0,94.0,425.0,91.0,432.5,88.0,440.5,86.0,448.0,85.0,455.5,85.0,463.5,85.0,471.5,85.5,480.0,86.5,488.0,87.0,496.0,89.0,504.0,91.0,512.0,92.5,520.5,94.5,529.0,96.5,537.0,97.0,545.0,99.5,553.0,101.5,561.0,103.0,569.0,104.0,577.0,105.0,585.5,104.5,593.0,96.5,601.0,91.5,608.5,88.0,616.5,94.0,624.0,96.0,624.5,104.5,624.5,112.5,623.5,120.5,621.0,129.0,619.0,137.0,616.5,145.0,614.5,153.5,613.5,161.5,611.5,169.5,610.0" stroke="black" stroke-width="2" fill="none" />
</svg>