<svg xmlns="http://www.w3.org/2000/svg" version="1.1"><polyline points="285.5,2.0,285.5,10.5,289.5,17.5,288.5,26.0,286.5,34.0,286.5,42.0,287.0,50.0,290.0,59.5,298.0,62.5,306.0,71.5,317.0,79.5,328.0,83.5" stroke="black" stroke-width="2" fill="none" />
<polyline points="332.0,84.0,324.0,91.5" stroke="black" stroke-width="2" fill="none" />
<polyline points="322.0,84.0,314.5,91.5" stroke="black" stroke-width="2" fill="none" />
<polyline points="311.5,87.0,319.5,86.0" stroke="black" stroke-width="2" fill="none" />
<polyline points="324.0,99.5,331.5,92.5,340.0,85.5" stroke="black" stroke-width="2" fill="none" />
<polyline points="338.0,87.0,330.5,87.5,323.0,87.5,315.0,88.5,306.0,90.0,298.0,90.5,290.0,91.0,282.0,91.0,274.0,91.5,266.0,92.0,258.0,92.5" stroke="black" stroke-width="2" fill="none" />
<polyline points="263.5,91.0,271.5,94.0,279.5,88.5" stroke="black" stroke-width="2" fill="none" />
<polyline points="277.0,91.5,285.0,83.5" stroke="black" stroke-width="2" fill="none" />
<polyline points="278.0,83.0,270.0,90.5,262.0,98.0" stroke="black" stroke-width="2" fill="none" />
<polyline points="259.0,102.0,267.0,101.5,275.0,101.0" stroke="black" stroke-width="2" fill="none" />
<polyline points="279.0,97.0,286.5,94.5,291.0,91.5,287.0,99.5,295.0,109.0" stroke="black" stroke-width="2" fill="none" />
<polyline points="291.5,101.0,299.5,93.5" stroke="black" stroke-width="2" fill="none" />
<polyline points="294.5,86.5,296.5,89.5,302.0,94.5,304.0,102.5" stroke="black" stroke-width="2" fill="none" />
<polyline points="307.5,99.5,300.0,99.5,292.0,100.0" stroke="black" stroke-width="2" fill="none" />
<polyline points="291.5,117.5,299.5,117.0" stroke="black" stroke-width="2" fill="none" />
<polyline points="309.5,126.5,317.0,126.0,325.0,126.0" stroke="black" stroke-width="2" fill="none" />
<polyline points="315.5,133.5,307.5,134.0" stroke="black" stroke-width="2" fill="none" />
<polyline points="297.5,133.0,289.5,140.5,282.0,148.0" stroke="black" stroke-width="2" fill="none" />
<polyline points="284.0,145.5,292.0,145.5" stroke="black" stroke-width="2" fill="none" />
<polyline points="289.0,152.5,287.0,151.5,285.5,159.5,283.5,167.5" stroke="black" stroke-width="2" fill="none" />
<polyline points="285.0,173.0,293.0,173.0" stroke="black" stroke-width="2" fill="none" />
<polyline points="283.5,179.5,275.5,187.0,266.5,195.0,258.5,203.0" stroke="black" stroke-width="2" fill="none" />
<polyline points="253.5,203.0,262.0,195.5" stroke="black" stroke-width="2" fill="none" />
<polyline points="269.5,203.5,277.0,196.5" stroke="black" stroke-width="2" fill="none" />
<polyline points="275.0,203.5,267.0,203.5,259.5,203.5,251.5,204.0" stroke="black" stroke-width="2" fill="none" />
<polyline points="245.5,211.5,237.5,219.0,229.0,226.0,220.5,233.0,212.5,240.5" stroke="black" stroke-width="2" fill="none" />
<polyline points="202.5,238.5,210.0,231.0,218.5,223.5,226.0,216.0,234.0,208.0,241.5,200.5,249.0,193.0" stroke="black" stroke-width="2" fill="none" />
<polyline points="251.0,194.0,259.0,195.0,267.0,197.0,274.5,188.5,282.5,184.5,290.5,183.5" stroke="black" stroke-width="2" fill="none" />
<polyline points="301.0,164.0,309.5,156.5" stroke="black" stroke-width="2" fill="none" />
<polyline points="301.0,155.0,309.0,147.5" stroke="black" stroke-width="2" fill="none" />
<polyline points="301.0,147.5,293.0,155.0" stroke="black" stroke-width="2" fill="none" />
<polyline points="296.0,160.5,295.0,168.5,300.0,176.0" stroke="black" stroke-width="2" fill="none" />
<polyline points="300.0,154.0,307.5,153.5" stroke="black" stroke-width="2" fill="none" />
<polyline points="299.0,140.0,291.0,147.5,283.0,155.5" stroke="black" stroke-width="2" fill="none" />
<polyline points="276.5,149.0,284.5,148.5,292.5,148.0,301.0,148.0,309.0,147.5,317.0,147.0" stroke="black" stroke-width="2" fill="none" />
<polyline points="317.5,138.5,309.5,139.0,301.0,139.5,292.5,140.5,284.5,141.5,276.0,142.0" stroke="black" stroke-width="2" fill="none" />
<polyline points="276.0,147.0,284.0,139.0,292.0,131.5" stroke="black" stroke-width="2" fill="none" />
<polyline points="296.0,131.0,304.0,125.0,312.0,119.5,316.5,123.5,320.5,127.0,316.5,135.0,312.0,143.5,320.0,129.5,322.0,117.5,330.0,103.0" stroke="black" stroke-width="2" fill="none" />
<polyline points="316.0,98.5,312.0,87.5,299.0,74.0,291.0,70.5,283.5,72.5" stroke="black" stroke-width="2" fill="none" />
<polyline points="287.0,73.5,298.0,73.5,303.0,81.5" stroke="black" stroke-width="2" fill="none" />
<polyline points="301.5,79.0,309.5,78.5,316.5,79.0,324.5,78.0,332.5,77.5,340.0,77.5,347.0,76.5,354.5,76.0,362.5,75.5,370.0,75.5,378.0,75.0,386.0,74.5,394.0,73.5,402.5,72.5,410.5,71.5,418.5,70.5,427.0,69.0,435.0,68.0,443.5,66.5,452.0,66.0,460.0,65.5,468.5,64.5" stroke="black" stroke-width="2" fill="none" />
<polyline points="468.0,60.0,476.0,59.5,483.5,58.5,492.0,58.0,500.0,57.0,508.0,56.5,516.0,56.5" stroke="black" stroke-width="2" fill="none" />
<polyline points="515.5,60.0,508.0,67.5,500.0,74.5,492.5,82.0,484.0,90.0,476.0,97.0,467.0,105.0,459.0,113.5,450.5,121.5,442.5,128.5" stroke="black" stroke-width="2" fill="none" />
<polyline points="440.5,131.0,433.0,136.5,425.0,136.5,417.5,140.0,409.5,137.0" stroke="black" stroke-width="2" fill="none" />
<polyline points="403.5,136.5,411.0,128.5,419.5,121.0,427.5,113.0,435.5,106.5,443.0,99.0,451.0,91.5,459.0,84.0,467.0,76.5" stroke="black" stroke-width="2" fill="none" />
<polyline points="464.0,80.5,472.0,84.0" stroke="black" stroke-width="2" fill="none" />
<polyline points="467.5,85.0,459.5,92.0,451.0,99.5,442.5,107.0,434.5,114.0,427.0,121.5,419.0,129.0" stroke="black" stroke-width="2" fill="none" />
<polyline points="426.0,127.0,434.5,120.0,443.0,112.5,451.5,105.0,459.5,98.0,467.5,90.5,476.0,82.5,483.5,74.5,492.0,67.0" stroke="black" stroke-width="2" fill="none" />
<polyline points="492.0,71.5,500.0,71.0,508.5,71.5,516.5,72.0" stroke="black" stroke-width="2" fill="none" />
<polyline points="517.5,74.5,509.5,82.0,501.5,89.0,493.5,97.0,485.0,105.0,477.0,113.0,468.0,120.5,459.0,127.5,450.5,134.5" stroke="black" stroke-width="2" fill="none" />
<polyline points="450.0,128.5,458.0,120.5,466.5,112.5,475.0,104.0,483.0,96.5,491.5,89.0,500.0,82.0,509.0,75.5,517.5,68.5" stroke="black" stroke-width="2" fill="none" />
<polyline points="517.0,82.5,509.0,90.0,501.0,97.5,492.5,105.0,483.5,112.5,475.5,120.5,467.5,127.5" stroke="black" stroke-width="2" fill="none" />
<polyline points="475.0,132.0,472.0,140.0,471.0,151.0,466.0,159.0,464.0,169.0,462.0,177.0,465.0,186.0,463.0,195.0,461.0,202.5,454.0,203.5,455.0,212.0,454.0,220.0,451.0,228.0,441.5,236.0,450.0,240.5,443.5,251.5,435.5,254.0,428.0,262.5,428.0,270.5,416.0,270.5,421.0,278.5,423.0,283.5,419.0,291.5,419.0,299.5,420.5,307.5,417.5,315.5,418.5,323.5,417.5,330.5,418.0,338.5" stroke="black" stroke-width="2" fill="none" />
<polyline points="418.5,300.5,426.5,300.0" stroke="black" stroke-width="2" fill="none" />
<polyline points="420.5,262.5,412.0,263.0" stroke="black" stroke-width="2" fill="none" />
<polyline points="415.5,261.5,412.5,269.5,411.5,270.5" stroke="black" stroke-width="2" fill="none" />
<polyline points="407.0,275.0,406.0,267.0" stroke="black" stroke-width="2" fill="none" />
<polyline points="399.5,256.0,403.5,261.5,404.5,269.5,404.5,277.5,404.5,286.0,405.5,294.0,405.0,302.0,405.0,310.5,405.0,318.5,405.0,326.5" stroke="black" stroke-width="2" fill="none" />
<polyline points="404.0,253.5,411.5,253.0,419.5,252.5,427.5,252.0,434.5,251.5" stroke="black" stroke-width="2" fill="none" />
<polyline points="432.5,242.5,440.5,240.5" stroke="black" stroke-width="2" fill="none" />
<polyline points="435.5,237.0,427.0,244.0" stroke="black" stroke-width="2" fill="none" />
<polyline points="443.5,242.5,435.5,242.5,427.5,243.0,420.0,243.5,412.0,243.5,404.0,243.5" stroke="black" stroke-width="2" fill="none" />
<polyline points="405.5,249.0,402.5,236.0,408.0,229.0,413.0,219.5,412.0,211.5,409.5,203.5,409.0,195.5,407.0,190.0,407.0,190.0" stroke="black" stroke-width="2" fill="none" />
<polyline points="408.5,196.5,411.5,205.0,406.0,209.0,408.5,210.0,409.5,218.5,409.5,224.0" stroke="black" stroke-width="2" fill="none" />
<polyline points="412.0,222.0,420.0,221.5" stroke="black" stroke-width="2" fill="none" />
<polyline points="428.5,220.5,436.5,220.0,444.5,220.0,452.5,219.5,460.5,219.0,468.0,218.5,476.0,219.0" stroke="black" stroke-width="2" fill="none" />
<polyline points="476.0,219.5,468.5,227.0,460.5,235.0" stroke="black" stroke-width="2" fill="none" />
<polyline points="467.5,218.0,475.5,211.0" stroke="black" stroke-width="2" fill="none" />
<polyline points="476.5,217.0,468.5,217.5" stroke="black" stroke-width="2" fill="none" />
<polyline points="466.5,210.5,474.5,203.0" stroke="black" stroke-width="2" fill="none" />
<polyline points="476.5,207.0,469.0,207.5" stroke="black" stroke-width="2" fill="none" />
<polyline points="467.5,206.5,466.5,214.0,466.0,222.5,464.5,230.5,462.5,239.0" stroke="black" stroke-width="2" fill="none" />
<polyline points="458.5,210.0,466.5,202.5,474.5,195.0" stroke="black" stroke-width="2" fill="none" />
<polyline points="475.0,189.5,466.5,197.0,459.0,204.0" stroke="black" stroke-width="2" fill="none" />
<polyline points="459.0,206.5,459.0,214.5,460.0,222.5,461.5,230.5" stroke="black" stroke-width="2" fill="none" />
<polyline points="468.0,230.5,460.0,231.0,451.5,231.5,444.0,232.5,436.0,233.0,427.5,234.0,419.0,235.0,411.0,236.0,402.5,237.0,394.5,238.0,386.5,239.0,378.5,239.5" stroke="black" stroke-width="2" fill="none" />
<polyline points="370.5,236.0,378.5,228.5" stroke="black" stroke-width="2" fill="none" />
<polyline points="372.5,228.5,380.5,227.5,388.5,227.0,396.0,226.5,403.5,226.0,411.5,225.5,419.5,225.0,426.5,224.5,434.5,224.5,442.5,224.0,450.5,223.5,458.5,222.5,466.5,222.0,474.5,221.5" stroke="black" stroke-width="2" fill="none" />
<polyline points="469.0,201.5,477.0,200.5" stroke="black" stroke-width="2" fill="none" />
<polyline points="474.5,193.5,466.5,194.0" stroke="black" stroke-width="2" fill="none" />
<polyline points="467.0,185.0,475.0,185.0" stroke="black" stroke-width="2" fill="none" />
<polyline points="475.5,180.0,467.0,187.5,459.0,194.5,451.0,202.0" stroke="black" stroke-width="2" fill="none" />
<polyline points="455.5,206.0,456.5,214.5,457.5,222.5,457.5,230.5,457.0,239.0" stroke="black" stroke-width="2" fill="none" />
<polyline points="466.0,238.0,472.0,230.0,473.5,222.0,474.5,214.0,475.0,205.5,475.5,197.5,474.5,190.0,475.5,182.5,475.5,174.0,474.5,166.0,474.0,153.0,478.0,148.5,470.5,149.5,463.5,156.5,460.5,146.5,460.0,135.0,465.0,133.5,457.5,138.5" stroke="black" stroke-width="2" fill="none" />
<polyline points="451.5,138.0,443.5,139.0,435.5,139.0,427.5,139.5,419.5,140.0,412.0,140.0,404.0,140.5" stroke="black" stroke-width="2" fill="none" />
<polyline points="402.5,139.0,410.5,139.0,412.5,142.0,415.5,148.5,418.5,151.5,417.0,157.0,426.5,168.0,429.0,176.0,429.0,178.5,428.5,187.0,425.5,189.0,418.5,193.0,419.5,201.0,422.5,205.0,422.5,213.5,416.5,222.0,414.0,230.0,412.0,231.0,413.5,239.0,411.0,246.5,411.0,254.5,418.0,255.5,418.5,268.5,424.0,271.5,426.5,282.5,426.5,290.5,426.5,298.5,427.0,307.0,426.0,315.5,426.0,323.5,425.0,331.5,425.5,339.5" stroke="black" stroke-width="2" fill="none" />
<polyline points="429.5,272.5,422.5,277.5,425.5,263.5,430.0,254.5,428.0,250.5,433.0,241.5,431.0,237.5,433.0,229.5,434.0,221.5,436.5,213.5,441.0,206.0,442.0,193.0,445.0,184.5,454.5,181.0,443.5,177.5,447.5,169.0,443.5,176.0" stroke="black" stroke-width="2" fill="none" />
<polyline points="444.5,178.5,452.5,177.5" stroke="black" stroke-width="2" fill="none" />
<polyline points="451.5,176.5,459.5,169.0" stroke="black" stroke-width="2" fill="none" />
<polyline points="469.0,172.0,461.0,179.5,452.0,187.0,444.0,194.5,436.0,202.0" stroke="black" stroke-width="2" fill="none" />
<polyline points="440.0,202.0,448.5,196.0,446.5,204.0,451.0,212.0,452.5,221.5,451.5,229.5,449.5,237.5" stroke="black" stroke-width="2" fill="none" />
<polyline points="444.5,228.5,437.0,224.5" stroke="black" stroke-width="2" fill="none" />
<polyline points="436.0,220.0,443.5,212.5" stroke="black" stroke-width="2" fill="none" />
<polyline points="436.5,214.0,442.0,207.0,450.0,208.0" stroke="black" stroke-width="2" fill="none" />
<polyline points="437.0,209.5,445.5,201.5,453.5,193.5,461.0,185.5,468.5,177.5,476.0,170.0" stroke="black" stroke-width="2" fill="none" />
<polyline points="476.0,163.5,468.5,163.5" stroke="black" stroke-width="2" fill="none" />
<polyline points="460.0,155.5,468.5,154.5,476.0,153.5" stroke="black" stroke-width="2" fill="none" />
<polyline points="476.0,151.0,483.5,150.5" stroke="black" stroke-width="2" fill="none" />
<polyline points="478.5,148.0,476.5,156.0,468.5,167.0,469.5,170.0,468.0,175.0,464.0,176.5,465.0,174.5,475.0,164.5" stroke="black" stroke-width="2" fill="none" />
<polyline points="476.5,175.0,468.5,175.5,460.5,176.5,452.0,178.0,444.0,178.5,435.5,179.5,427.0,180.5,419.0,181.0,411.0,182.0" stroke="black" stroke-width="2" fill="none" />
<polyline points="419.0,186.5,411.5,194.0,403.5,201.0" stroke="black" stroke-width="2" fill="none" />
<polyline points="404.0,196.5,396.0,204.0" stroke="black" stroke-width="2" fill="none" />
<polyline points="393.5,206.0,401.5,205.0" stroke="black" stroke-width="2" fill="none" />
<polyline points="403.0,211.5,411.0,204.0" stroke="black" stroke-width="2" fill="none" />
<polyline points="408.0,199.0,416.0,218.0" stroke="black" stroke-width="2" fill="none" />
<polyline points="419.5,211.5,428.0,204.5,436.0,196.5" stroke="black" stroke-width="2" fill="none" />
<polyline points="436.0,187.5,428.5,195.0,421.0,202.0" stroke="black" stroke-width="2" fill="none" />
<polyline points="419.0,193.0,427.5,185.5" stroke="black" stroke-width="2" fill="none" />
<polyline points="427.5,187.5,435.5,185.5,433.5,193.5,430.5,202.0,428.5,198.0,439.5,197.5,445.5,182.0,453.0,180.5,466.0,177.5" stroke="black" stroke-width="2" fill="none" />
<polyline points="471.0,176.0,469.0,184.0,466.0,186.5" stroke="black" stroke-width="2" fill="none" />
<polyline points="475.5,192.0,467.5,192.5,459.5,192.5,451.5,193.0,443.0,193.5,435.5,194.0,427.0,194.0,418.5,194.5,410.5,194.5,402.0,195.0,394.5,195.5,387.0,196.0,379.5,197.0,372.0,197.5,364.0,198.0" stroke="black" stroke-width="2" fill="none" />
<polyline points="362.5,195.0,370.5,187.0" stroke="black" stroke-width="2" fill="none" />
<polyline points="368.5,190.0,376.5,188.0" stroke="black" stroke-width="2" fill="none" />
<polyline points="380.0,191.5,387.5,187.5,397.0,191.5,405.0,195.0,412.5,206.5" stroke="black" stroke-width="2" fill="none" />
<polyline points="413.0,195.5,417.5,199.0,419.0,207.0,419.5,215.0" stroke="black" stroke-width="2" fill="none" />
<polyline points="434.0,217.0,441.5,217.5,442.5,221.5" stroke="black" stroke-width="2" fill="none" />
<polyline points="437.0,219.0,435.0,227.5,438.0,235.5" stroke="black" stroke-width="2" fill="none" />
<polyline points="411.0,230.0,403.0,236.0" stroke="black" stroke-width="2" fill="none" />
<polyline points="401.5,212.0,409.5,211.5,418.0,211.5,427.0,211.5,436.0,211.0,444.5,210.5,452.5,211.0,460.5,210.5,468.5,210.0,476.5,210.0" stroke="black" stroke-width="2" fill="none" />
<polyline points="474.5,200.5,466.5,200.5,458.0,201.0,449.5,201.0,441.5,201.5,433.5,202.0,425.5,202.5,418.0,203.0,410.0,203.5,402.5,204.0,394.5,203.5,387.0,203.0,379.5,203.0,372.0,203.0,364.0,203.5" stroke="black" stroke-width="2" fill="none" />
<polyline points="364.5,204.5,372.5,197.0,381.0,189.5,389.5,182.0" stroke="black" stroke-width="2" fill="none" />
<polyline points="396.0,178.5,388.0,186.0,379.5,193.5,371.5,201.5,363.5,209.5" stroke="black" stroke-width="2" fill="none" />
<polyline points="364.5,213.0,372.0,212.5,380.0,212.5,387.5,212.0,395.5,211.0" stroke="black" stroke-width="2" fill="none" />
<polyline points="402.5,219.5,394.5,220.0,386.0,221.0,377.5,221.5,369.0,222.0,361.0,222.5" stroke="black" stroke-width="2" fill="none" />
<polyline points="361.0,223.0,368.5,235.0,376.5,239.5,384.0,243.0,391.5,244.5,399.5,238.5,401.5,241.0,406.0,230.0" stroke="black" stroke-width="2" fill="none" />
<polyline points="380.0,220.0,372.0,227.0" stroke="black" stroke-width="2" fill="none" />
<polyline points="369.5,218.0,362.0,225.5" stroke="black" stroke-width="2" fill="none" />
<polyline points="379.0,218.0,379.5,209.5,377.5,201.0,380.0,195.0,374.0,196.0" stroke="black" stroke-width="2" fill="none" />
<polyline points="377.5,199.5,369.5,202.5" stroke="black" stroke-width="2" fill="none" />
<polyline points="366.5,204.0,375.0,192.0,385.0,199.0,382.5,207.0,381.5,215.5,381.0,223.5,381.0,231.0" stroke="black" stroke-width="2" fill="none" />
<polyline points="380.5,202.5,388.5,195.0" stroke="black" stroke-width="2" fill="none" />
<polyline points="395.0,195.0,403.5,200.0,411.5,213.5" stroke="black" stroke-width="2" fill="none" />
<polyline points="411.0,234.5,405.0,228.5,407.5,220.5,409.5,217.5,401.5,218.5,401.0,219.5,396.5,212.5,396.5,217.5,394.5,219.0,388.5,209.5,382.5,191.5" stroke="black" stroke-width="2" fill="none" />
<polyline points="373.0,182.0,365.0,189.5" stroke="black" stroke-width="2" fill="none" />
<polyline points="361.5,191.5,369.5,190.5,378.0,189.5,386.0,188.5,394.0,187.5,402.5,187.0,411.0,187.0,419.5,187.0,428.0,187.0,436.0,186.5,444.0,186.0,452.5,185.5,460.5,184.5,468.5,184.0,476.5,183.0" stroke="black" stroke-width="2" fill="none" />
<polyline points="478.0,177.5,486.0,179.5,494.0,181.0,502.5,183.0,510.5,185.5" stroke="black" stroke-width="2" fill="none" />
<polyline points="506.5,138.5,514.5,131.0" stroke="black" stroke-width="2" fill="none" />
<polyline points="516.0,124.0,508.0,132.0,500.0,139.0" stroke="black" stroke-width="2" fill="none" />
<polyline points="491.0,139.0,499.5,131.5,508.0,124.0,516.5,117.0" stroke="black" stroke-width="2" fill="none" />
<polyline points="517.5,110.0,509.5,117.5,501.5,125.0,492.5,132.5,484.0,140.0" stroke="black" stroke-width="2" fill="none" />
<polyline points="485.0,135.5,492.5,135.0,500.5,134.5,508.5,134.5" stroke="black" stroke-width="2" fill="none" />
<polyline points="515.0,139.5,507.0,140.0,499.5,140.0,492.0,141.0,484.5,142.0,477.0,143.0" stroke="black" stroke-width="2" fill="none" />
<polyline points="475.0,138.5,483.5,130.5,492.0,123.0,500.5,115.5,508.5,108.0,516.5,101.0" stroke="black" stroke-width="2" fill="none" />
<polyline points="515.0,92.0,507.5,99.0,499.0,106.5,491.0,114.0,482.5,121.5,473.5,129.0,465.5,136.5" stroke="black" stroke-width="2" fill="none" />
<polyline points="466.0,146.5,458.0,145.5" stroke="black" stroke-width="2" fill="none" />
<polyline points="449.0,138.0,441.0,138.0,430.0,138.5,419.5,135.5,417.5,129.5,410.0,132.0,401.5,136.5,393.5,137.5,385.0,139.5,377.0,140.0,369.0,143.0,361.0,147.5" stroke="black" stroke-width="2" fill="none" />
<polyline points="361.5,153.5,369.5,146.5,377.5,151.5" stroke="black" stroke-width="2" fill="none" />
<polyline points="378.0,160.0,386.0,159.5,394.0,158.5,402.5,157.5,410.5,156.5,418.5,155.5,427.0,154.0,435.0,153.0,443.5,151.5" stroke="black" stroke-width="2" fill="none" />
<polyline points="443.5,146.0,435.0,146.5,426.0,147.0,418.0,147.0,410.5,147.0,402.5,148.0" stroke="black" stroke-width="2" fill="none" />
<polyline points="391.5,157.5,389.5,166.5,385.5,171.0,391.5,164.0,392.5,161.0,404.5,166.0,407.0,169.0,415.0,168.0,421.5,163.5,429.5,173.0,436.0,168.0" stroke="black" stroke-width="2" fill="none" />
<polyline points="434.0,169.5,436.0,170.5,429.0,169.5,432.5,177.5,421.0,184.5,413.0,190.5,418.0,193.0,414.0,201.0,416.0,209.0,421.0,220.0,434.5,211.0,442.5,200.0,450.5,196.0,458.5,189.0" stroke="black" stroke-width="2" fill="none" />
<polyline points="455.0,187.5,449.5,193.5,444.5,202.0,439.5,213.0,444.0,220.5,444.5,226.5,442.5,230.0,439.5,241.5" stroke="black" stroke-width="2" fill="none" />
<polyline points="466.5,238.0,458.5,243.0,450.5,246.0,442.5,247.0,434.5,247.5,426.5,258.0,417.5,265.0,409.0,261.5,408.0,258.5,400.0,256.0,391.5,252.0,392.5,240.5,391.5,232.5,385.5,229.5,387.5,221.5,387.0,213.5,386.5,205.5,394.0,200.5,391.0,192.5,391.0,184.5,388.0,176.5,386.5,168.0,390.5,168.5" stroke="black" stroke-width="2" fill="none" />
<polyline points="401.0,171.5,397.0,172.5,394.0,171.5,398.5,171.5,407.5,173.0,415.5,171.0,423.0,168.0" stroke="black" stroke-width="2" fill="none" />
<polyline points="420.0,169.5,428.0,162.0" stroke="black" stroke-width="2" fill="none" />
<polyline points="421.0,160.5,413.0,159.5,405.5,162.5,397.5,161.5,389.5,159.5,382.0,157.5,374.0,159.0,371.5,158.0,363.5,154.0" stroke="black" stroke-width="2" fill="none" />
<polyline points="363.5,154.0,372.5,162.0,371.5,170.0,374.5,173.5,376.5,174.5,376.0,182.5,370.5,187.5,373.5,193.0,369.5,201.0,370.5,203.5,367.5,211.5,371.5,218.5,374.5,225.5,371.0,230.0,378.0,235.0,387.0,238.0" stroke="black" stroke-width="2" fill="none" />
<polyline points="394.5,181.5,386.0,182.0,378.0,183.0,369.5,183.5,361.0,184.0" stroke="black" stroke-width="2" fill="none" />
<polyline points="365.0,178.0,373.5,170.5" stroke="black" stroke-width="2" fill="none" />
<polyline points="373.0,165.0,381.0,164.0,389.0,163.5,397.0,163.0,404.5,162.5,412.0,162.0,420.0,162.0,427.5,161.5,435.0,161.0,443.0,160.0,451.0,160.0" stroke="black" stroke-width="2" fill="none" />
<polyline points="447.0,169.0,455.0,171.0,463.0,170.0" stroke="black" stroke-width="2" fill="none" />
<polyline points="476.0,165.5,467.5,166.5,459.0,167.5,451.0,168.0,443.0,169.0,435.5,169.5,427.5,170.0,419.5,171.0,411.0,171.5,402.5,172.5,394.5,173.0,386.5,173.0,378.5,173.5,370.5,174.5,362.5,175.5" stroke="black" stroke-width="2" fill="none" />
<polyline points="364.0,157.5,372.0,161.0,380.0,162.0,383.0,167.0,379.0,170.0,381.0,178.0,382.0,183.0,382.0,191.0,377.0,199.0,372.0,206.5,373.5,214.5" stroke="black" stroke-width="2" fill="none" />
<polyline points="404.5,175.5,412.5,178.5,426.0,182.0,440.0,178.0,448.0,165.0,456.0,164.0,464.0,163.5" stroke="black" stroke-width="2" fill="none" />
<polyline points="477.5,155.0,469.5,160.5,457.5,158.5,449.0,158.5,442.0,168.0,436.0,164.0,426.5,155.5,428.5,147.5" stroke="black" stroke-width="2" fill="none" />
<polyline points="419.5,143.5,422.5,151.5,413.5,159.0,412.0,154.0,420.0,155.0,432.0,159.5,432.5,162.5,440.5,160.5,449.0,151.5,456.5,150.0,468.5,156.0" stroke="black" stroke-width="2" fill="none" />
<polyline points="446.0,146.5,443.5,154.5,438.5,162.0,443.0,167.0,442.5,175.0,441.0,182.5,438.5,191.0,435.5,199.0,431.0,213.0,429.0,221.0,427.0,228.5,425.5,236.5,425.5,242.0,420.5,251.0,423.0,254.5,431.5,251.5,437.5,251.0,442.5,252.5" stroke="black" stroke-width="2" fill="none" />
<polyline points="428.5,189.0,426.5,197.5,431.5,198.5,446.0,191.0,449.0,185.0" stroke="black" stroke-width="2" fill="none" />
<polyline points="449.0,186.0,443.5,188.0,446.0,194.0,439.0,202.0,434.0,210.5,430.5,218.5,429.5,226.5,427.5,236.0,428.5,244.0,424.5,254.0,428.5,267.5" stroke="black" stroke-width="2" fill="none" />
<polyline points="422.0,196.5,422.5,188.5" stroke="black" stroke-width="2" fill="none" />
<polyline points="431.5,185.0,429.0,193.0,426.5,201.5,424.5,209.5,424.0,217.0,417.0,229.0,417.0,236.5,414.5,245.0" stroke="black" stroke-width="2" fill="none" />
<polyline points="410.0,169.5,418.0,162.0" stroke="black" stroke-width="2" fill="none" />
<polyline points="419.0,166.0,403.0,173.5,393.0,181.5,394.5,189.0,395.5,197.0,403.0,201.0,401.0,204.5,402.5,212.5,391.5,214.5,390.5,222.5,388.5,230.5,389.5,238.5,399.5,244.5,408.0,245.0,410.5,240.0" stroke="black" stroke-width="2" fill="none" />
<polyline points="402.5,173.0,410.5,165.5" stroke="black" stroke-width="2" fill="none" />
<polyline points="427.5,135.5,435.5,128.0,443.5,120.5,451.0,112.5,459.0,104.5,467.0,96.5,475.5,88.0,484.0,80.5,492.5,73.5,501.0,66.0,509.5,58.5,517.5,51.0" stroke="black" stroke-width="2" fill="none" />
<polyline points="517.0,43.0,508.5,50.5" stroke="black" stroke-width="2" fill="none" />
<polyline points="508.0,42.0,516.0,34.5" stroke="black" stroke-width="2" fill="none" />
<polyline points="517.5,27.0,509.5,34.0,501.5,42.0" stroke="black" stroke-width="2" fill="none" />
<polyline points="507.0,42.0,515.0,41.5" stroke="black" stroke-width="2" fill="none" />
<polyline points="492.5,42.0,501.0,34.5,509.5,27.0,517.5,19.0" stroke="black" stroke-width="2" fill="none" />
<polyline points="516.0,11.5,508.5,19.0,500.0,26.5,491.5,34.0,483.5,41.0" stroke="black" stroke-width="2" fill="none" />
<polyline points="474.5,40.5,483.0,33.5,491.0,26.0,499.5,18.5,507.5,11.0,515.5,3.0" stroke="black" stroke-width="2" fill="none" />
<polyline points="509.0,1.5,500.0,9.5,492.0,17.5,483.5,25.5,475.5,33.0,467.5,40.5" stroke="black" stroke-width="2" fill="none" />
<polyline points="467.5,33.0,476.0,25.5,484.5,18.0,492.5,10.5,500.5,3.0" stroke="black" stroke-width="2" fill="none" />
<polyline points="491.5,2.5,484.0,10.0,476.0,17.5,468.0,25.5,460.5,33.5,452.0,41.0" stroke="black" stroke-width="2" fill="none" />
<polyline points="461.0,53.0,469.0,52.5,477.0,52.0,485.0,52.0,493.0,51.5,501.5,51.0,509.5,51.0,516.5,50.5" stroke="black" stroke-width="2" fill="none" />
<polyline points="485.0,66.0,477.0,73.5" stroke="black" stroke-width="2" fill="none" />
<polyline points="476.0,76.5,484.0,76.0,492.0,76.0,500.0,75.5,508.0,75.5,516.0,75.5" stroke="black" stroke-width="2" fill="none" />
<polyline points="514.5,95.0,507.0,95.0,499.5,95.0,492.0,94.5,484.0,94.5" stroke="black" stroke-width="2" fill="none" />
<polyline points="481.5,88.0,489.0,87.0,497.5,86.5,505.5,86.5,514.0,86.5" stroke="black" stroke-width="2" fill="none" />
<polyline points="514.0,80.0,506.0,80.5,498.5,81.5,490.5,82.0,483.0,82.0" stroke="black" stroke-width="2" fill="none" />
<polyline points="473.5,92.5,471.0,97.5,473.0,105.5" stroke="black" stroke-width="2" fill="none" />
<polyline points="476.0,104.5,484.5,104.0,492.5,104.0,500.5,103.5,508.5,102.5,516.5,102.0" stroke="black" stroke-width="2" fill="none" />
<polyline points="468.0,95.5,459.5,96.0" stroke="black" stroke-width="2" fill="none" />
<polyline points="462.0,90.5,470.0,90.0" stroke="black" stroke-width="2" fill="none" />
<polyline points="466.5,94.0,465.5,98.0,469.0,106.0" stroke="black" stroke-width="2" fill="none" />
<polyline points="452.0,83.0,460.5,75.0" stroke="black" stroke-width="2" fill="none" />
<polyline points="460.0,69.0,468.5,68.5,477.0,69.0,485.0,68.5,493.0,68.0,500.5,67.5,508.0,67.5,515.0,67.0" stroke="black" stroke-width="2" fill="none" />
<polyline points="514.0,32.0,507.0,33.0,500.5,33.5,493.0,34.0,485.5,34.5,477.0,34.5" stroke="black" stroke-width="2" fill="none" />
<polyline points="452.5,25.0,460.5,25.0,468.5,24.5,476.5,24.0,484.5,24.0,492.5,23.5,500.5,23.0,508.0,22.0,515.5,21.5" stroke="black" stroke-width="2" fill="none" />
<polyline points="484.0,3.5,476.5,11.0,469.0,18.0,461.5,25.0,453.5,33.0,445.0,40.5,437.0,48.0" stroke="black" stroke-width="2" fill="none" />
<polyline points="437.0,41.5,445.0,34.0,452.5,27.0,460.0,19.5,468.0,11.5,476.0,3.5" stroke="black" stroke-width="2" fill="none" />
<polyline points="467.5,3.0,459.5,10.5,452.0,18.0,444.0,25.5,436.0,33.5" stroke="black" stroke-width="2" fill="none" />
<polyline points="435.0,26.5,443.5,19.5,452.5,12.5,460.5,5.0" stroke="black" stroke-width="2" fill="none" />
<polyline points="451.0,4.0,443.5,12.0,435.5,19.0,427.5,26.0" stroke="black" stroke-width="2" fill="none" />
<polyline points="419.0,26.5,426.5,19.5,434.5,12.5,442.0,5.0" stroke="black" stroke-width="2" fill="none" />
<polyline points="435.0,3.0,427.0,10.0,419.0,17.5,411.0,25.0" stroke="black" stroke-width="2" fill="none" />
<polyline points="405.0,24.5,413.5,17.0,421.0,9.5,428.5,2.0" stroke="black" stroke-width="2" fill="none" />
<polyline points="420.0,4.0,412.0,11.5,404.0,19.5,395.0,27.0,386.0,34.0" stroke="black" stroke-width="2" fill="none" />
<polyline points="379.5,35.0,387.5,28.0,396.0,20.5,404.5,13.0,412.5,5.0" stroke="black" stroke-width="2" fill="none" />
<polyline points="404.5,3.0,396.5,10.5,388.5,18.0,380.5,26.0,372.0,33.5" stroke="black" stroke-width="2" fill="none" />
<polyline points="365.5,44.0,357.0,51.5,348.5,58.5" stroke="black" stroke-width="2" fill="none" />
<polyline points="347.5,58.5,355.5,58.0" stroke="black" stroke-width="2" fill="none" />
<polyline points="363.5,60.0,356.0,67.5,348.0,75.0" stroke="black" stroke-width="2" fill="none" />
<polyline points="348.0,82.0,355.5,74.5,363.0,66.5,371.0,59.0" stroke="black" stroke-width="2" fill="none" />
<polyline points="371.0,66.0,363.0,74.0,354.5,81.5" stroke="black" stroke-width="2" fill="none" />
<polyline points="356.5,81.0,364.0,80.5,371.5,79.5,379.5,79.0" stroke="black" stroke-width="2" fill="none" />
<polyline points="378.0,83.5,385.5,85.5,393.5,89.0" stroke="black" stroke-width="2" fill="none" />
<polyline points="392.5,91.5,400.5,90.5" stroke="black" stroke-width="2" fill="none" />
<polyline points="402.5,88.0,410.5,90.5,424.0,89.0,425.5,91.5" stroke="black" stroke-width="2" fill="none" />
<polyline points="427.5,96.0,435.0,95.5,443.0,95.0" stroke="black" stroke-width="2" fill="none" />
<polyline points="443.0,94.0,435.0,101.5,427.5,109.0,420.0,116.5,412.5,123.5,405.0,130.5" stroke="black" stroke-width="2" fill="none" />
<polyline points="396.0,127.0,403.0,120.5,410.5,113.5,419.0,106.0,427.5,98.5,435.5,91.0,444.0,84.0,452.0,77.0" stroke="black" stroke-width="2" fill="none" />
<polyline points="452.0,81.5,443.5,83.5" stroke="black" stroke-width="2" fill="none" />
<polyline points="442.5,88.0,435.0,89.0" stroke="black" stroke-width="2" fill="none" />
<polyline points="436.0,84.0,428.5,91.5,420.5,99.5,412.0,107.0,404.0,114.0,396.0,121.0,388.0,129.0" stroke="black" stroke-width="2" fill="none" />
<polyline points="388.5,129.0,386.5,137.0,368.5,146.0,362.5,156.5,361.5,165.0,362.0,173.5,361.0,181.5,361.0,189.0,361.0,196.5,359.5,204.5,358.0,212.5,358.0,220.5,361.0,228.5,369.5,236.5,386.0,244.5,394.0,254.5,402.0,252.0,412.0,255.0,418.0,259.0,423.0,248.0,431.5,235.0,438.5,235.0,439.5,239.0,444.5,236.0,448.0,238.0" stroke="black" stroke-width="2" fill="none" />
<polyline points="413.0,178.0,420.0,178.5,424.0,170.5,425.0,179.5,418.0,183.5,413.5,181.5,405.5,179.5,398.0,178.5,392.0,180.5,395.5,172.0,399.0,164.0,405.0,153.0,401.0,145.0,394.0,130.0,386.0,133.5" stroke="black" stroke-width="2" fill="none" />
<polyline points="379.0,135.0,387.0,134.5,395.0,133.5,403.5,133.0,411.5,133.0,420.5,132.5,428.5,131.0,436.5,130.0,444.0,129.0,451.5,127.5,459.5,127.0,468.0,126.5,476.5,126.5,484.5,126.0,492.5,125.0,500.0,124.0,507.5,124.0,515.0,124.0" stroke="black" stroke-width="2" fill="none" />
<polyline points="515.0,124.0,507.0,124.5,499.0,125.0,490.5,125.5,482.5,125.5,474.0,125.5,466.0,126.5,458.5,126.5,450.5,127.0,442.5,127.5,434.5,128.5" stroke="black" stroke-width="2" fill="none" />
<polyline points="438.5,130.5,439.5,142.5,436.5,141.0,445.0,142.5,453.5,142.5,458.5,146.0,466.5,144.0,474.5,134.0,484.5,140.0,492.0,140.0,500.0,140.0,508.0,140.0" stroke="black" stroke-width="2" fill="none" />
<polyline points="515.0,114.0,507.5,114.0,500.0,113.5,492.0,113.5,484.0,115.0,475.5,116.0,467.0,116.5,458.5,117.0,450.5,117.5,442.5,118.5,435.0,120.0,428.0,121.5,420.0,122.0,412.5,123.0" stroke="black" stroke-width="2" fill="none" />
<polyline points="411.0,114.5,419.0,114.0,427.5,113.5,436.0,113.0,444.0,112.5,451.5,112.0,459.5,111.0,467.5,109.5,474.5,108.5,481.5,107.5,489.5,107.0,497.0,106.0,505.5,105.5,513.5,105.5" stroke="black" stroke-width="2" fill="none" />
<polyline points="517.0,39.0,509.0,40.0,501.0,40.5,493.5,41.0,485.0,42.0,476.5,43.0,467.5,44.0,459.0,45.0,450.5,45.5,442.5,45.5,434.0,46.0,425.5,46.0,417.5,46.5" stroke="black" stroke-width="2" fill="none" />
<polyline points="419.0,38.5,427.5,38.0,435.5,37.5,443.5,37.5,451.5,37.0,459.5,36.5,467.5,36.0,475.5,35.5,483.5,34.5,491.0,33.5,499.0,33.0,507.0,32.5,515.0,32.0" stroke="black" stroke-width="2" fill="none" />
<polyline points="452.0,52.5,443.0,53.0,434.5,53.5,426.5,54.5,419.0,54.5" stroke="black" stroke-width="2" fill="none" />
<polyline points="429.5,73.0,421.5,81.0,413.5,88.5,405.0,96.0,396.5,103.5,388.0,111.5,380.0,119.5" stroke="black" stroke-width="2" fill="none" />
<polyline points="379.0,118.5,387.0,118.0,395.5,117.0,404.0,116.5,412.5,116.0,420.5,115.5,428.5,114.5,437.0,114.0,445.0,113.5,452.5,113.0,460.0,112.0,468.5,111.5,477.0,112.0,485.0,111.5,493.0,111.0,500.5,110.5,508.0,110.5,515.0,110.0" stroke="black" stroke-width="2" fill="none" />
<polyline points="469.0,103.0,460.5,103.0,452.5,103.0,445.0,103.0,437.0,103.0,429.5,103.5,422.0,103.5,414.5,104.0,406.5,104.5" stroke="black" stroke-width="2" fill="none" />
<polyline points="404.5,107.5,405.5,115.0,405.5,122.5" stroke="black" stroke-width="2" fill="none" />
<polyline points="403.0,129.5,395.0,129.5" stroke="black" stroke-width="2" fill="none" />
<polyline points="388.0,121.5,396.0,114.5,404.0,107.5,412.0,99.5,420.0,91.5" stroke="black" stroke-width="2" fill="none" />
<polyline points="426.0,83.5,434.0,77.0" stroke="black" stroke-width="2" fill="none" />
<polyline points="419.0,76.5,411.0,84.0,403.0,91.0,395.0,98.0,387.5,105.0,379.0,112.5" stroke="black" stroke-width="2" fill="none" />
<polyline points="380.5,115.5,388.5,114.5,397.0,114.0,405.0,112.5" stroke="black" stroke-width="2" fill="none" />
<polyline points="405.0,98.0,413.0,98.0,421.0,97.0" stroke="black" stroke-width="2" fill="none" />
<polyline points="411.5,77.0,403.5,84.5,395.5,92.0,387.5,99.5,380.0,107.0,372.0,114.5" stroke="black" stroke-width="2" fill="none" />
<polyline points="374.0,108.0,382.0,108.0,390.0,108.0,398.0,107.5,406.0,107.0,414.0,106.5,422.0,106.0,429.5,105.0,437.5,104.5,445.0,104.0,452.5,103.5,460.5,103.0,468.5,103.0,476.5,102.5,484.5,102.0,492.0,101.5,500.0,102.0,507.5,102.0,514.5,102.0" stroke="black" stroke-width="2" fill="none" />
<polyline points="513.5,116.0,506.0,116.5,499.0,117.5,491.5,118.0,485.0,119.0,478.0,120.0,470.0,121.0,462.0,121.5,454.0,122.0,445.5,122.5,437.0,123.0,428.0,123.0,419.5,124.0,411.0,124.5,403.5,125.0,395.5,125.5,387.5,126.0,379.5,127.0" stroke="black" stroke-width="2" fill="none" />
<polyline points="385.0,122.0,393.0,121.0,401.5,120.5" stroke="black" stroke-width="2" fill="none" />
<polyline points="396.0,105.0,388.0,106.0,379.5,106.5,371.0,107.0" stroke="black" stroke-width="2" fill="none" />
<polyline points="372.0,104.5,380.0,96.5,388.0,89.0,395.5,81.5,404.0,74.5" stroke="black" stroke-width="2" fill="none" />
<polyline points="397.5,75.0,389.5,82.0,381.5,90.0,373.0,97.5,364.5,105.5" stroke="black" stroke-width="2" fill="none" />
<polyline points="364.0,100.0,372.5,92.5,380.5,85.5,389.0,78.5" stroke="black" stroke-width="2" fill="none" />
<polyline points="386.0,78.0,394.0,77.0,402.0,76.0,409.5,76.0,417.5,75.5,426.0,75.5,435.5,73.5,443.5,77.0,451.0,76.0,459.0,77.5,467.0,77.5,475.0,79.5" stroke="black" stroke-width="2" fill="none" />
<polyline points="451.0,92.0,443.0,92.0" stroke="black" stroke-width="2" fill="none" />
<polyline points="442.5,89.5,450.5,88.5" stroke="black" stroke-width="2" fill="none" />
<polyline points="444.0,60.0,435.5,61.0,426.5,62.0,418.5,63.0,410.5,63.5,402.5,64.0,394.0,64.0,386.5,64.0,378.5,64.5,371.0,65.5,363.0,66.5,355.0,67.0,347.0,67.5,339.5,68.0,332.0,68.5,324.5,68.5,316.5,69.0,308.5,69.0" stroke="black" stroke-width="2" fill="none" />
<polyline points="308.5,62.0,316.0,55.0,323.0,48.5,330.5,41.5,338.0,34.5,346.0,27.0,354.0,20.0,361.0,12.5,369.0,4.5" stroke="black" stroke-width="2" fill="none" />
<polyline points="364.0,2.5,356.0,10.0,348.0,18.5,339.5,26.0,332.0,33.5,324.0,41.0,315.5,49.0,307.5,56.5" stroke="black" stroke-width="2" fill="none" />
<polyline points="308.0,56.5,300.5,56.5" stroke="black" stroke-width="2" fill="none" />
<polyline points="299.5,56.0,307.5,48.5,316.0,40.5,324.0,33.0,332.5,26.0,340.5,18.5,348.5,11.0,356.0,4.0" stroke="black" stroke-width="2" fill="none" />
<polyline points="365.5,18.0,373.5,17.5,381.5,17.0,389.5,16.0,397.5,15.5" stroke="black" stroke-width="2" fill="none" />
<polyline points="404.0,19.5,411.5,19.0,419.0,18.0,427.0,17.0,435.5,16.0,444.0,15.0,452.0,14.0,460.0,13.0,468.0,12.0,477.0,11.5,485.0,10.5,492.5,10.0,500.0,9.5,507.5,9.0,515.0,8.5" stroke="black" stroke-width="2" fill="none" />
<polyline points="395.5,3.0,388.0,10.0,380.5,17.0,372.5,24.0,365.0,31.0,357.0,38.5,349.0,46.5,341.0,53.5" stroke="black" stroke-width="2" fill="none" />
<polyline points="338.5,50.0,339.0,54.0,342.0,62.0" stroke="black" stroke-width="2" fill="none" />
<polyline points="335.0,66.5,332.5,74.5,326.5,77.0,326.5,90.5,329.0,99.0,326.0,110.0,322.5,118.0,314.5,122.0,304.5,122.0,299.5,131.0,298.0,139.0,299.0,147.0,300.0,152.0,296.0,156.0,292.0,164.0,287.0,172.0,287.0,178.0,284.0,186.0,286.0,182.5,297.0,174.5,302.0,164.0" stroke="black" stroke-width="2" fill="none" />
<polyline points="300.5,133.0,292.5,133.5,284.5,134.0,276.5,134.5" stroke="black" stroke-width="2" fill="none" />
<polyline points="278.5,132.5,278.0,140.5,279.0,151.0,288.0,151.0,296.0,150.0" stroke="black" stroke-width="2" fill="none" />
<polyline points="308.5,162.5,300.5,163.0,292.5,163.5,284.5,164.0,276.5,165.0,269.0,166.0" stroke="black" stroke-width="2" fill="none" />
<polyline points="271.5,166.0,263.5,158.5" stroke="black" stroke-width="2" fill="none" />
<polyline points="261.0,155.0,253.5,162.5,245.5,170.5" stroke="black" stroke-width="2" fill="none" />
<polyline points="252.0,174.0,244.5,181.0" stroke="black" stroke-width="2" fill="none" />
<polyline points="244.5,187.5,236.5,195.0,228.5,202.5" stroke="black" stroke-width="2" fill="none" />
<polyline points="226.5,199.5,234.5,204.5,242.0,208.0,241.0,221.5,248.5,221.0,258.5,227.5" stroke="black" stroke-width="2" fill="none" />
<polyline points="245.0,225.0,237.5,226.0,229.0,226.5,221.0,227.5,213.0,228.5,205.0,229.5,197.0,230.0,188.5,230.0,180.0,230.0,171.5,230.0,164.0,230.5,156.5,231.5,148.5,231.5,140.5,232.0,132.0,233.0,124.0,234.0,116.0,234.5,108.0,235.0,100.5,235.5,93.0,236.0,84.5,236.5,76.5,237.0" stroke="black" stroke-width="2" fill="none" />
<polyline points="75.0,233.5,83.0,225.5,91.0,218.0,99.0,210.0,107.5,202.5,116.0,195.5" stroke="black" stroke-width="2" fill="none" />
<polyline points="115.0,199.0,115.0,207.0,123.0,203.5,133.0,212.0,146.0,218.0" stroke="black" stroke-width="2" fill="none" />
<polyline points="147.0,215.0,138.5,215.5" stroke="black" stroke-width="2" fill="none" />
<polyline points="131.5,210.5,138.5,204.0,146.5,196.5,154.5,189.5" stroke="black" stroke-width="2" fill="none" />
<polyline points="150.0,187.0,153.0,195.5,156.0,197.5,164.0,200.0,163.0,202.0,170.0,205.0" stroke="black" stroke-width="2" fill="none" />
<polyline points="171.0,205.0,162.5,212.0,154.5,219.0,147.0,226.5,139.5,234.5,132.0,242.5,124.0,250.0,115.5,257.0" stroke="black" stroke-width="2" fill="none" />
<polyline points="115.5,257.5,107.0,258.0" stroke="black" stroke-width="2" fill="none" />
<polyline points="114.5,262.0,122.5,267.0,131.0,256.0,137.0,256.0" stroke="black" stroke-width="2" fill="none" />
<polyline points="132.5,259.5,125.0,267.0" stroke="black" stroke-width="2" fill="none" />
<polyline points="131.5,266.5,123.5,274.5" stroke="black" stroke-width="2" fill="none" />
<polyline points="122.0,277.5,130.5,277.0,139.0,276.5" stroke="black" stroke-width="2" fill="none" />
<polyline points="140.5,274.0,148.0,266.5" stroke="black" stroke-width="2" fill="none" />
<polyline points="155.0,260.5,147.5,260.5,139.5,260.5,132.0,260.5,124.0,261.0,116.5,261.5,108.5,262.5,101.0,263.0,93.0,263.5,85.0,263.5,77.0,264.0,69.0,264.5,61.0,265.0,53.0,266.0,45.0,267.0,37.0,267.0,29.0,267.5,21.0,268.0,13.5,269.5,5.5,270.0" stroke="black" stroke-width="2" fill="none" />
<polyline points="4.5,275.0,11.5,267.5,19.0,260.0" stroke="black" stroke-width="2" fill="none" />
<polyline points="27.0,260.5,19.5,268.0,12.0,275.5,4.5,282.5" stroke="black" stroke-width="2" fill="none" />
<polyline points="3.0,285.5,11.0,284.5,19.0,284.0,26.5,283.5,34.0,283.5,42.0,283.0,50.0,282.5,57.5,281.5" stroke="black" stroke-width="2" fill="none" />
<polyline points="57.5,282.0,65.0,274.0,73.5,266.5,81.5,259.5,89.5,252.0" stroke="black" stroke-width="2" fill="none" />
<polyline points="82.0,252.5,73.5,259.5" stroke="black" stroke-width="2" fill="none" />
<polyline points="67.0,259.0,75.5,252.0" stroke="black" stroke-width="2" fill="none" />
<polyline points="67.5,251.0,59.5,258.5,52.0,265.5,44.5,273.0,36.5,280.0,28.5,288.0" stroke="black" stroke-width="2" fill="none" />
<polyline points="34.5,290.5,42.0,283.0,50.0,275.0,58.0,267.5" stroke="black" stroke-width="2" fill="none" />
<polyline points="68.0,268.5,60.0,275.5,52.0,282.5" stroke="black" stroke-width="2" fill="none" />
<polyline points="75.0,274.5,83.5,267.0,91.0,260.0" stroke="black" stroke-width="2" fill="none" />
<polyline points="85.0,271.5,93.0,263.5,101.0,256.0,108.5,248.0,116.0,240.0,124.0,232.0,132.0,224.5,139.5,217.0,146.5,209.5,154.0,202.0,161.5,194.5" stroke="black" stroke-width="2" fill="none" />
<polyline points="156.5,197.0,148.0,204.5,140.0,212.0,132.0,219.5,123.5,227.0,116.0,234.5,108.0,242.0,100.5,249.0" stroke="black" stroke-width="2" fill="none" />
<polyline points="100.0,242.5,108.5,235.5,117.0,228.0,125.5,220.5" stroke="black" stroke-width="2" fill="none" />
<polyline points="125.0,213.5,117.0,221.5,109.0,229.0,100.5,236.5,91.5,244.0" stroke="black" stroke-width="2" fill="none" />
<polyline points="88.5,242.0,97.0,241.0" stroke="black" stroke-width="2" fill="none" />
<polyline points="106.0,242.0,114.0,241.5" stroke="black" stroke-width="2" fill="none" />
<polyline points="118.0,237.5,125.5,245.5" stroke="black" stroke-width="2" fill="none" />
<polyline points="122.5,242.5,115.0,250.0,106.5,257.5,98.5,266.0" stroke="black" stroke-width="2" fill="none" />
<polyline points="92.0,271.5,84.0,272.5,76.0,273.0,68.0,273.0,60.0,274.0,52.0,274.5,43.5,275.0,35.5,275.5,27.5,276.0,19.5,276.5,12.0,277.0,4.0,277.5" stroke="black" stroke-width="2" fill="none" />
<polyline points="3.5,289.5,11.0,282.5,19.0,275.5,27.5,268.0,35.5,260.5" stroke="black" stroke-width="2" fill="none" />
<polyline points="42.5,260.0,34.5,268.0,27.0,276.0,19.0,283.5,11.5,290.5" stroke="black" stroke-width="2" fill="none" />
<polyline points="11.5,291.5,19.0,291.0" stroke="black" stroke-width="2" fill="none" />
<polyline points="18.0,290.0,26.0,282.0,33.5,274.0,41.5,266.5,49.5,258.5,57.5,250.5" stroke="black" stroke-width="2" fill="none" />
<polyline points="66.5,246.5,74.5,246.0,82.5,246.0,90.5,245.5,98.5,244.5,107.0,244.0,114.5,243.0,122.0,242.5,130.0,242.0,138.0,241.5,146.0,240.5,154.5,240.0,163.0,239.5,171.0,239.0,179.0,239.0,187.0,238.5,194.5,238.5,202.5,238.0,210.5,238.0" stroke="black" stroke-width="2" fill="none" />
<polyline points="202.5,227.5,210.5,227.0,218.0,226.0" stroke="black" stroke-width="2" fill="none" />
<polyline points="227.5,226.5,235.5,226.0" stroke="black" stroke-width="2" fill="none" />
<polyline points="244.5,229.5,236.5,236.5" stroke="black" stroke-width="2" fill="none" />
<polyline points="230.0,235.0,237.5,227.5,245.5,220.5" stroke="black" stroke-width="2" fill="none" />
<polyline points="243.5,220.0,235.5,220.5,227.5,221.0,220.5,221.5,212.5,221.5,204.0,221.5,196.0,221.5,187.5,222.0,179.0,222.0,170.5,222.5,162.5,223.0,154.5,223.0,146.5,223.5,137.5,224.0,129.5,224.5,121.5,224.5,113.0,225.0,106.0,225.5,98.5,226.5,90.5,227.5,82.5,228.5,74.5,229.0" stroke="black" stroke-width="2" fill="none" />
<polyline points="74.5,232.0,82.0,231.5,90.0,230.5" stroke="black" stroke-width="2" fill="none" />
<polyline points="84.5,234.5,92.5,226.5,100.5,219.0,108.5,212.0,116.5,204.5" stroke="black" stroke-width="2" fill="none" />
<polyline points="125.0,204.5,117.0,212.0,109.0,219.0,100.5,226.5,92.0,234.0,84.0,241.5" stroke="black" stroke-width="2" fill="none" />
<polyline points="86.5,242.0,95.0,251.5" stroke="black" stroke-width="2" fill="none" />
<polyline points="106.0,235.5,114.0,234.5" stroke="black" stroke-width="2" fill="none" />
<polyline points="117.0,234.5,120.0,233.5,123.0,236.0,128.5,243.5" stroke="black" stroke-width="2" fill="none" />
<polyline points="131.5,241.5,139.5,241.5,147.5,241.5" stroke="black" stroke-width="2" fill="none" />
<polyline points="147.0,244.0,154.0,243.0,155.5,251.0,149.5,259.0,151.5,256.0" stroke="black" stroke-width="2" fill="none" />
<polyline points="156.5,250.5,148.5,251.0,140.0,252.0,132.0,253.0,124.0,253.5,116.0,254.0,108.5,254.5,101.0,255.0,92.5,255.5,84.5,256.0,76.5,256.5,68.0,256.5,59.5,256.5,51.0,257.0,43.0,257.0,35.5,258.0,28.0,259.0,20.0,259.5,12.0,260.0,4.5,260.5" stroke="black" stroke-width="2" fill="none" />
<polyline points="5.5,263.0,13.5,262.0,21.5,260.0,29.5,258.0,37.5,256.5,45.5,255.0,53.5,253.0,61.0,251.0,69.0,249.0,77.0,247.5,91.0,247.5,98.5,255.5" stroke="black" stroke-width="2" fill="none" />
<polyline points="106.5,245.0,104.5,256.0,96.5,251.0,89.0,243.0,80.0,241.0,72.5,230.5,71.5,217.5,84.0,211.5,91.5,205.5,95.0,199.5,88.0,196.5,93.5,194.5,96.0,186.5,94.0,178.5,99.0,181.5,88.0,178.5,83.5,182.0,79.0,177.5,80.0,163.5,77.0,161.0,83.0,160.0,75.0,168.5" stroke="black" stroke-width="2" fill="none" />
<polyline points="80.5,169.5,88.5,170.5,97.0,171.0,105.0,172.0,113.5,172.0,121.0,171.5,129.0,171.5,136.5,171.5,144.5,171.5,152.5,171.0,153.5,166.5,161.5,168.0,169.5,167.0,177.5,165.0,186.5,167.0" stroke="black" stroke-width="2" fill="none" />
<polyline points="186.0,163.0,178.5,170.5" stroke="black" stroke-width="2" fill="none" />
<polyline points="180.5,170.0,171.5,171.5,163.0,173.5,155.0,174.5,147.0,174.5,133.0,180.0,125.0,181.0" stroke="black" stroke-width="2" fill="none" />
<polyline points="123.5,180.5,115.0,180.5,107.0,180.5,99.0,181.0" stroke="black" stroke-width="2" fill="none" />
<polyline points="102.0,188.5,109.5,188.5,117.0,188.0,124.5,188.0" stroke="black" stroke-width="2" fill="none" />
<polyline points="116.5,187.0,108.5,195.0" stroke="black" stroke-width="2" fill="none" />
<polyline points="112.0,192.5,120.5,195.5,128.0,204.0" stroke="black" stroke-width="2" fill="none" />
<polyline points="140.0,201.5,148.0,201.5,156.5,201.0,165.0,200.0" stroke="black" stroke-width="2" fill="none" />
<polyline points="162.5,202.0,154.5,209.5,147.0,217.5,139.0,225.5,130.5,233.5" stroke="black" stroke-width="2" fill="none" />
<polyline points="130.5,236.5,131.5,230.0" stroke="black" stroke-width="2" fill="none" />
<polyline points="137.5,233.5,145.5,232.5,153.5,232.0,162.0,231.5,170.0,231.5" stroke="black" stroke-width="2" fill="none" />
<polyline points="171.0,241.0,163.5,241.5,155.5,241.5" stroke="black" stroke-width="2" fill="none" />
<polyline points="163.0,242.0,171.5,234.5,179.5,226.5,188.0,219.5,196.0,212.0" stroke="black" stroke-width="2" fill="none" />
<polyline points="195.0,219.5,187.0,227.0,178.5,235.0,170.5,243.0" stroke="black" stroke-width="2" fill="none" />
<polyline points="179.5,244.0,187.5,236.5,195.5,229.0,203.5,221.0" stroke="black" stroke-width="2" fill="none" />
<polyline points="220.5,212.5,212.0,220.0,204.0,228.0,196.0,235.5,188.0,242.5" stroke="black" stroke-width="2" fill="none" />
<polyline points="182.5,244.0,174.5,252.0,166.5,260.0,161.5,261.0,154.0,269.0,154.5,268.0,160.5,265.0,170.0,256.0,178.0,248.0" stroke="black" stroke-width="2" fill="none" />
<polyline points="181.0,254.5,173.5,254.5" stroke="black" stroke-width="2" fill="none" />
<polyline points="163.5,265.0,153.5,273.0,162.0,267.0" stroke="black" stroke-width="2" fill="none" />
<polyline points="156.0,245.0,148.5,246.0,141.0,246.5,133.0,247.0,125.5,248.0,117.0,249.0,109.0,250.0,101.0,250.5,93.5,251.0,86.0,251.5,77.5,252.0,69.5,252.0,61.5,252.5,53.0,252.5,44.5,252.5,36.0,252.5,28.0,252.5" stroke="black" stroke-width="2" fill="none" />
<polyline points="18.0,238.5,26.0,237.5,34.0,235.5,42.0,233.0,50.0,230.5,58.0,230.0,66.0,228.0" stroke="black" stroke-width="2" fill="none" />
<polyline points="65.5,225.5,74.0,218.5,81.5,211.5,89.5,204.0" stroke="black" stroke-width="2" fill="none" />
<polyline points="92.0,209.5,100.0,208.5" stroke="black" stroke-width="2" fill="none" />
<polyline points="100.5,203.0,92.0,210.5,84.0,217.5,75.5,225.0" stroke="black" stroke-width="2" fill="none" />
<polyline points="75.5,223.5,83.0,223.0,91.0,223.0" stroke="black" stroke-width="2" fill="none" />
<polyline points="99.0,215.0,91.0,215.0,82.5,215.0,74.5,215.5" stroke="black" stroke-width="2" fill="none" />
<polyline points="76.5,211.0,68.0,219.0" stroke="black" stroke-width="2" fill="none" />
<polyline points="67.0,223.5,74.5,223.0,83.0,222.5,91.0,221.5,99.0,220.5,107.0,220.0,114.5,219.0,122.0,218.5,129.5,218.0,137.5,217.0,145.5,216.0,153.5,216.0,162.5,216.0,170.5,215.5,179.0,214.5,187.0,213.5,195.0,213.0,202.5,212.5,210.5,212.0,218.5,211.5,226.0,211.0,234.5,210.5,242.5,210.5" stroke="black" stroke-width="2" fill="none" />
<polyline points="239.5,206.5,247.5,206.5,257.0,205.0" stroke="black" stroke-width="2" fill="none" />
<polyline points="253.5,203.5,245.5,203.5,237.0,204.0,229.0,204.0,221.0,204.5,213.0,205.5,205.0,205.5,197.0,205.5,189.0,205.5,180.5,205.5,173.0,205.0,165.0,205.0,156.5,205.5,148.0,205.5,140.0,206.0,132.0,206.5,124.0,207.5,116.0,208.0,107.5,209.0,99.0,210.0,91.0,210.0,83.0,210.0,75.0,211.0,67.5,211.5,59.5,212.0" stroke="black" stroke-width="2" fill="none" />
<polyline points="72.0,195.5,80.0,195.5,77.0,200.5,78.5,208.5,83.5,199.0" stroke="black" stroke-width="2" fill="none" />
<polyline points="85.0,196.5,93.0,196.5,101.0,196.0,108.5,195.5,116.5,194.5,124.0,194.0,132.0,193.5,139.5,193.5,147.5,193.5,155.0,193.5,162.5,193.0,171.0,192.5,180.0,191.5,188.5,191.0,197.0,190.5,205.0,190.0" stroke="black" stroke-width="2" fill="none" />
<polyline points="195.0,186.5,187.0,194.5,179.0,202.0,171.5,210.0,163.5,218.5,155.5,226.0,147.5,233.5,139.5,241.0,131.5,249.0,123.5,256.5" stroke="black" stroke-width="2" fill="none" />
<polyline points="120.0,254.0,122.0,262.0,130.5,264.5,134.5,277.5,136.5,288.5,138.0,296.5,141.5,304.5" stroke="black" stroke-width="2" fill="none" />
<polyline points="138.5,308.0,146.5,308.0" stroke="black" stroke-width="2" fill="none" />
<polyline points="147.5,316.0,139.5,316.5" stroke="black" stroke-width="2" fill="none" />
<polyline points="146.0,320.5,147.0,312.5,144.0,309.0,141.0,298.0,148.0,288.0,145.0,277.0,149.5,270.5,155.5,262.5,163.5,254.5,166.5,246.5,175.5,245.0,182.0,237.0,184.5,229.0,188.5,221.5,190.5,213.5,191.5,205.5,192.5,198.0,191.5,190.5,188.0,182.0,185.5,174.0,187.5,165.5,185.0,156.0,181.5,153.0,173.5,151.0,166.0,150.0,158.0,149.0,150.0,149.5,142.0,155.5" stroke="black" stroke-width="2" fill="none" />
<polyline points="139.5,157.0,131.5,164.5" stroke="black" stroke-width="2" fill="none" />
<polyline points="124.5,161.5,132.5,154.0,140.0,146.5,148.0,138.5,156.0,131.0" stroke="black" stroke-width="2" fill="none" />
<polyline points="155.5,128.0,142.5,135.5,131.0,146.5,139.0,145.5,146.5,145.5,154.5,146.5,162.5,146.5,171.0,148.5,179.0,150.0,187.0,153.0,194.0,162.0,202.0,177.0,210.0,184.5,218.0,189.5,226.0,189.0,231.5,181.0,239.5,181.0,245.5,164.5,253.5,168.5,256.5,164.0,260.5,168.0,268.5,177.0" stroke="black" stroke-width="2" fill="none" />
<polyline points="252.5,173.0,245.0,173.5,237.5,174.0,229.0,174.5" stroke="black" stroke-width="2" fill="none" />
<polyline points="231.5,178.5,234.5,186.5" stroke="black" stroke-width="2" fill="none" />
<polyline points="228.0,183.0,236.0,182.5,243.5,182.0,251.5,181.5,259.5,180.5,267.0,179.5,275.0,179.0,282.5,178.0,290.5,177.5" stroke="black" stroke-width="2" fill="none" />
<polyline points="282.5,194.5,274.5,195.0,266.0,195.0,258.0,196.0,250.0,196.0,242.0,196.5,234.0,197.0,225.5,197.0,217.0,197.5" stroke="black" stroke-width="2" fill="none" />
<polyline points="219.0,203.5,226.5,203.0,234.5,203.0,242.5,203.0" stroke="black" stroke-width="2" fill="none" />
<polyline points="243.5,201.5,235.5,201.5" stroke="black" stroke-width="2" fill="none" />
<polyline points="234.5,202.5,242.5,195.5,250.5,188.5" stroke="black" stroke-width="2" fill="none" />
<polyline points="245.5,190.0,253.5,190.5,261.5,189.0" stroke="black" stroke-width="2" fill="none" />
<polyline points="281.5,187.0,273.5,187.5,265.5,188.5,257.5,188.5,249.0,189.0,241.0,189.0,232.5,189.5,224.5,190.0,216.5,190.5" stroke="black" stroke-width="2" fill="none" />
<polyline points="204.5,172.5,213.0,165.0" stroke="black" stroke-width="2" fill="none" />
<polyline points="212.0,158.5,204.0,166.0" stroke="black" stroke-width="2" fill="none" />
<polyline points="202.5,164.0,211.0,179.0,219.0,182.0" stroke="black" stroke-width="2" fill="none" />
<polyline points="218.5,172.5,210.5,172.5,202.0,173.0" stroke="black" stroke-width="2" fill="none" />
<polyline points="196.5,171.0,189.0,171.5,181.5,172.0" stroke="black" stroke-width="2" fill="none" />
<polyline points="181.0,170.5,181.0,178.0,176.0,180.0" stroke="black" stroke-width="2" fill="none" />
<polyline points="180.5,180.0,188.5,179.5,196.0,179.0" stroke="black" stroke-width="2" fill="none" />
<polyline points="196.0,178.0,188.0,186.0" stroke="black" stroke-width="2" fill="none" />
<polyline points="187.5,187.0,195.5,186.5" stroke="black" stroke-width="2" fill="none" />
<polyline points="194.0,195.5,186.0,203.0,178.0,211.0,170.5,219.0,162.5,227.0,154.5,234.5,146.0,241.5,138.0,249.5" stroke="black" stroke-width="2" fill="none" />
<polyline points="133.5,247.5,126.0,248.0,118.5,248.5" stroke="black" stroke-width="2" fill="none" />
<polyline points="118.5,255.0,133.0,260.5,131.0,268.5" stroke="black" stroke-width="2" fill="none" />
<polyline points="127.5,269.0,127.0,261.0,137.5,256.5,137.5,249.5,128.0,249.5,121.0,242.0,118.0,234.5,117.5,220.5,123.5,212.0,120.5,209.0,121.5,204.5,114.5,198.5,116.5,195.5,121.5,187.5,133.5,187.5,135.5,180.5,139.5,178.0,141.0,163.5,142.0,155.5,141.0,149.5,133.5,151.5" stroke="black" stroke-width="2" fill="none" />
<polyline points="131.5,144.0,139.5,144.0,147.5,143.0,154.0,145.0,161.5,143.0" stroke="black" stroke-width="2" fill="none" />
<polyline points="163.5,138.0,155.5,145.5" stroke="black" stroke-width="2" fill="none" />
<polyline points="148.5,146.5,157.0,139.0,164.5,131.5" stroke="black" stroke-width="2" fill="none" />
<polyline points="162.0,129.5,165.0,137.5" stroke="black" stroke-width="2" fill="none" />
<polyline points="163.5,135.0,156.0,135.5,148.5,136.5" stroke="black" stroke-width="2" fill="none" />
<polyline points="141.0,140.0,133.0,147.5,124.5,154.5,116.5,162.0" stroke="black" stroke-width="2" fill="none" />
<polyline points="115.5,169.5,107.0,177.5" stroke="black" stroke-width="2" fill="none" />
<polyline points="100.5,173.0,108.5,172.5,116.0,172.0,124.0,171.5,132.0,171.5,140.0,171.0,148.5,170.5" stroke="black" stroke-width="2" fill="none" />
<polyline points="154.5,174.0,163.0,173.5" stroke="black" stroke-width="2" fill="none" />
<polyline points="159.5,175.5,167.0,177.5,174.0,176.5" stroke="black" stroke-width="2" fill="none" />
<polyline points="178.0,187.0,186.0,186.5,194.5,186.0,203.0,186.0" stroke="black" stroke-width="2" fill="none" />
<polyline points="196.0,194.0,188.0,194.5" stroke="black" stroke-width="2" fill="none" />
<polyline points="187.0,202.0,194.5,201.0" stroke="black" stroke-width="2" fill="none" />
<polyline points="194.5,202.5,186.5,210.0,179.0,218.0,171.0,225.5,163.0,233.0,155.0,240.0" stroke="black" stroke-width="2" fill="none" />
<polyline points="148.5,245.0,146.0,253.0,147.0,261.0,151.5,262.5,158.5,253.0,166.5,242.5,175.0,236.5" stroke="black" stroke-width="2" fill="none" />
<polyline points="182.0,232.0,176.0,240.0,171.0,253.0,179.0,244.0" stroke="black" stroke-width="2" fill="none" />
<polyline points="180.5,229.5,173.5,237.5,166.0,245.5,159.5,253.0,153.5,261.0,144.0,268.5" stroke="black" stroke-width="2" fill="none" />
<polyline points="143.5,266.5,143.0,258.5,140.0,264.0,132.5,260.0" stroke="black" stroke-width="2" fill="none" />
<polyline points="120.0,259.5,121.0,267.5,130.0,274.5,138.0,275.0" stroke="black" stroke-width="2" fill="none" />
<polyline points="136.5,289.0,145.0,292.0" stroke="black" stroke-width="2" fill="none" />
<polyline points="140.0,294.0,131.5,294.5" stroke="black" stroke-width="2" fill="none" />
<polyline points="133.5,294.0,134.5,302.0,137.5,310.0,140.5,318.0,142.0,326.0" stroke="black" stroke-width="2" fill="none" />
<polyline points="134.0,331.5,132.0,339.5" stroke="black" stroke-width="2" fill="none" />
<polyline points="121.0,340.0,121.0,332.0,119.5,324.5,120.0,317.0,119.0,309.5,120.0,301.5" stroke="black" stroke-width="2" fill="none" />
<polyline points="142.0,281.0,133.5,282.0,126.0,284.0,118.0,275.5,117.5,275.5,110.5,267.0,115.5,259.0" stroke="black" stroke-width="2" fill="none" />
<polyline points="106.0,227.0,114.0,226.0,122.0,225.5,130.0,224.5" stroke="black" stroke-width="2" fill="none" />
<polyline points="114.0,216.5,106.0,217.0" stroke="black" stroke-width="2" fill="none" />
<polyline points="101.5,215.0,102.5,223.0" stroke="black" stroke-width="2" fill="none" />
<polyline points="107.5,208.5,115.0,208.0" stroke="black" stroke-width="2" fill="none" />
<polyline points="117.0,200.0,108.5,201.0" stroke="black" stroke-width="2" fill="none" />
<polyline points="108.5,186.5,116.5,178.5,124.5,171.0" stroke="black" stroke-width="2" fill="none" />
<polyline points="123.5,176.0,131.5,175.0,129.0,176.5,124.5,180.0,123.5,189.5,127.5,184.5,130.0,191.0,143.0,194.0,151.0,187.0,159.0,191.0,167.0,198.0,174.5,198.0,179.0,209.0,164.0,216.5,166.0,216.0,174.0,214.0,182.0,205.0,179.0,214.0,166.0,219.0,174.0,216.5" stroke="black" stroke-width="2" fill="none" />
<polyline points="178.5,217.0,186.5,217.0,195.0,216.5" stroke="black" stroke-width="2" fill="none" />
<polyline points="195.0,209.5,187.5,210.0" stroke="black" stroke-width="2" fill="none" />
<polyline points="186.5,223.0,178.5,223.0,171.0,223.5,163.0,223.5,154.5,223.5" stroke="black" stroke-width="2" fill="none" />
<polyline points="156.0,216.5,164.0,216.0" stroke="black" stroke-width="2" fill="none" />
<polyline points="172.5,206.0,164.5,206.0,157.0,206.0,149.5,206.0,142.0,206.5" stroke="black" stroke-width="2" fill="none" />
<polyline points="147.5,213.5,144.0,221.5" stroke="black" stroke-width="2" fill="none" />
<polyline points="148.5,221.5,150.5,213.5" stroke="black" stroke-width="2" fill="none" />
<polyline points="141.5,190.0,149.0,189.5,157.0,189.0,164.5,188.5" stroke="black" stroke-width="2" fill="none" />
<polyline points="177.5,183.0,169.5,180.0,161.5,183.5,153.0,179.5" stroke="black" stroke-width="2" fill="none" />
<polyline points="148.0,184.5,145.0,192.5" stroke="black" stroke-width="2" fill="none" />
<polyline points="144.0,178.5,141.5,186.5,138.5,194.5,135.5,202.5,132.0,209.5,136.0,217.0,135.0,225.0,132.0,230.0,130.5,238.5,130.0,251.5" stroke="black" stroke-width="2" fill="none" />
<polyline points="196.0,242.5,203.5,235.5,211.0,228.5,218.5,221.0,226.5,213.5" stroke="black" stroke-width="2" fill="none" />
<polyline points="228.5,218.5,236.5,218.0" stroke="black" stroke-width="2" fill="none" />
<polyline points="243.0,216.0,251.0,218.0" stroke="black" stroke-width="2" fill="none" />
<polyline points="263.5,214.5,271.5,205.0,275.5,199.5,269.5,207.5,262.5,215.5,258.5,226.0,258.0,234.0,258.5,241.0,258.5,249.5,259.5,257.5,258.5,265.5,260.5,269.5,261.0,277.0,261.0,285.0,261.0,293.0,260.0,301.0" stroke="black" stroke-width="2" fill="none" />
<polyline points="258.0,265.0,256.0,260.5,255.0,253.0,255.5,245.0,252.0,240.0" stroke="black" stroke-width="2" fill="none" />
<polyline points="303.0,232.5,301.5,224.5,298.5,221.5,294.0,213.0,295.5,205.0,294.5,206.0" stroke="black" stroke-width="2" fill="none" />
<polyline points="267.0,162.5,257.0,154.5,249.0,159.5" stroke="black" stroke-width="2" fill="none" />
<polyline points="246.0,162.5,254.0,155.0,262.0,147.0" stroke="black" stroke-width="2" fill="none" />
<polyline points="258.0,148.0,250.5,148.0,242.5,148.5,234.5,149.0,226.5,149.5" stroke="black" stroke-width="2" fill="none" />
<polyline points="224.5,148.5,218.5,157.0,219.5,156.5,225.0,154.5,237.0,141.5,244.0,142.0,250.0,136.5,258.0,136.5,265.5,136.0" stroke="black" stroke-width="2" fill="none" />
<polyline points="260.5,139.0,252.5,146.0,244.5,153.0,236.5,160.5" stroke="black" stroke-width="2" fill="none" />
<polyline points="242.0,162.0,250.5,161.5" stroke="black" stroke-width="2" fill="none" />
<polyline points="259.0,158.5,251.5,158.5,243.5,159.0,235.5,159.5,227.0,160.5,219.5,161.0,211.5,162.0,203.5,162.5,196.0,163.0,188.5,164.0,181.0,165.0,173.5,165.5,166.0,166.0" stroke="black" stroke-width="2" fill="none" />
<polyline points="180.0,157.5,188.5,157.0,196.5,156.5,204.0,156.0,211.5,155.5,218.5,155.0,227.0,154.5,235.0,154.0,243.0,153.5,251.0,153.0,259.0,153.0,267.0,152.5,275.0,152.0,283.0,151.5,290.5,150.5,298.5,150.5,306.0,150.0" stroke="black" stroke-width="2" fill="none" />
<polyline points="299.5,125.0,291.5,125.0,283.5,125.5" stroke="black" stroke-width="2" fill="none" />
<polyline points="286.5,130.5,284.5,138.5,282.0,147.5,288.0,158.0,286.5,166.0,287.5,170.0,293.5,165.5,294.5,156.5,302.0,158.5" stroke="black" stroke-width="2" fill="none" />
<polyline points="302.5,139.5,303.5,137.5,305.5,129.5,298.5,124.0,290.5,126.0,290.0,124.0,282.0,125.5,273.5,127.0,264.5,131.5,255.5,123.5,258.5,128.0,251.5,126.5,259.0,118.5,258.0,119.5" stroke="black" stroke-width="2" fill="none" />
<polyline points="258.5,126.5,250.5,127.0,242.5,128.0" stroke="black" stroke-width="2" fill="none" />
<polyline points="237.5,132.0,245.0,131.0,253.0,131.0,261.0,131.0,269.5,130.5" stroke="black" stroke-width="2" fill="none" />
<polyline points="268.0,139.0,260.5,138.5,252.5,139.0,245.0,140.0,237.0,140.5" stroke="black" stroke-width="2" fill="none" />
<polyline points="228.0,139.0,220.0,140.0,211.5,140.5,203.5,141.5,195.5,142.0" stroke="black" stroke-width="2" fill="none" />
<polyline points="201.0,141.0,193.5,148.5" stroke="black" stroke-width="2" fill="none" />
<polyline points="197.0,150.5,205.0,150.0,213.0,150.0,221.5,149.5" stroke="black" stroke-width="2" fill="none" />
<polyline points="227.0,157.5,235.0,150.5" stroke="black" stroke-width="2" fill="none" />
<polyline points="238.0,146.0,228.0,138.5,220.5,137.5,213.0,135.0,201.0,129.0,193.0,127.0" stroke="black" stroke-width="2" fill="none" />
<polyline points="195.0,133.0,203.0,132.5,211.5,132.0,219.5,131.0" stroke="black" stroke-width="2" fill="none" />
<polyline points="225.0,138.5,230.0,146.0,234.0,155.0,224.5,164.0,215.5,165.0,218.0,171.5,218.0,177.0,217.5,176.0,218.5,183.5,222.5,189.5,230.5,193.5,234.5,188.5,245.0,193.5,245.0,192.0,249.0,197.5,255.5,199.5,264.0,199.0,265.0,192.5" stroke="black" stroke-width="2" fill="none" />
<polyline points="246.5,173.0,242.5,169.5,235.5,167.5,240.0,161.0,241.0,154.0,240.0,148.5,234.0,140.0,242.0,130.0,236.5,126.0,242.5,118.0,240.0,115.0" stroke="black" stroke-width="2" fill="none" />
<polyline points="252.5,139.5,244.5,147.5,236.5,155.0,228.0,163.0" stroke="black" stroke-width="2" fill="none" />
<polyline points="225.5,168.5,225.5,165.5,233.0,160.5,241.0,165.0,250.5,171.0,248.5,179.0,245.5,185.0,241.5,185.5,242.5,191.5,248.0,183.5" stroke="black" stroke-width="2" fill="none" />
<polyline points="268.0,172.0,272.5,165.0,268.0,157.0" stroke="black" stroke-width="2" fill="none" />
<polyline points="263.0,149.0,255.0,150.0" stroke="black" stroke-width="2" fill="none" />
<polyline points="250.0,141.5,257.5,139.5,265.5,139.0" stroke="black" stroke-width="2" fill="none" />
<polyline points="286.5,136.5,284.5,132.5,282.5,129.5,272.5,137.5,264.0,135.0,256.0,135.0,244.0,129.0,240.5,125.0,233.5,130.5,225.0,130.5,217.0,129.5,208.5,128.5" stroke="black" stroke-width="2" fill="none" />
<polyline points="207.5,118.5,200.0,130.5,198.0,138.5,190.5,146.5,191.5,154.0,190.0,159.0,194.0,167.5,195.5,175.5,196.5,183.5,198.0,192.0,199.0,200.0,198.5,208.0,196.0,216.0,198.0,220.0,206.0,217.5,214.0,216.0,222.0,214.0,230.0,212.0,238.0,213.0,248.0,212.5,257.0,216.0,258.0,213.5,264.0,208.5,272.0,196.5,278.0,189.5" stroke="black" stroke-width="2" fill="none" />
<polyline points="303.0,162.0,301.0,173.5,299.5,175.0,305.5,167.0,307.0,159.5,309.0,151.5,310.0,143.0,310.5,135.5,310.5,129.5,314.0,128.0,312.0,119.0,310.0,120.5,303.0,122.5,297.0,119.5,304.5,116.0,302.5,112.0,293.5,110.5,285.0,108.5,277.0,107.0,269.0,106.0,261.0,107.0,253.0,108.0,245.0,107.0,237.5,107.0,230.0,108.5,222.0,108.5,214.0,109.5,206.0,111.5,198.5,113.5,190.5,117.0" stroke="black" stroke-width="2" fill="none" />
<polyline points="191.5,119.5,199.5,117.0,207.5,115.0,215.5,114.0,223.5,112.0,232.0,112.0,240.0,111.0,248.0,111.0,256.5,111.5,264.5,110.0,272.5,110.0,280.5,111.0,288.5,111.5,296.0,113.5,304.0,115.5,312.0,116.0" stroke="black" stroke-width="2" fill="none" />
<polyline points="283.5,109.5,275.5,110.0,267.5,110.5" stroke="black" stroke-width="2" fill="none" />
<polyline points="267.5,114.0,268.5,122.0,273.0,135.0,273.0,143.0,273.0,151.0,277.0,151.0,275.5,157.0,279.5,158.0,278.5,166.0,275.5,173.0,279.5,177.0,267.5,185.0,270.5,193.0,267.5,196.5,266.5,204.5,259.0,208.5,255.5,208.5,250.5,219.0,253.5,225.0,255.5,233.5,251.5,241.5,251.5,249.5,252.5,257.5,252.0,266.0,253.0,274.0,255.0,282.0,256.0,290.0,257.0,298.0" stroke="black" stroke-width="2" fill="none" />
<polyline points="242.0,330.0,234.0,334.5,226.0,337.0,218.0,340.0,210.0,342.5" stroke="black" stroke-width="2" fill="none" />
<polyline points="204.5,192.0,196.5,192.0,188.5,192.0,181.0,192.0,173.5,192.0,166.0,192.5,157.5,193.0,149.0,193.5,140.5,194.0,132.5,195.0,124.5,195.5,117.0,196.5,108.5,197.5,100.0,198.0,92.0,198.0,84.0,198.5,76.0,199.0,68.0,200.0,59.5,200.5,51.5,200.5,43.5,201.0,35.0,201.5,26.5,202.5,18.5,203.0,10.5,203.5,2.0,204.0" stroke="black" stroke-width="2" fill="none" />
<polyline points="1.5,197.0,10.0,196.5,18.0,196.0,26.5,196.0,34.5,195.5,42.5,195.5,51.0,194.5,59.5,194.0,68.0,193.0,76.5,192.5" stroke="black" stroke-width="2" fill="none" />
<polyline points="86.5,192.5,82.5,200.5" stroke="black" stroke-width="2" fill="none" />
<polyline points="68.5,181.5,60.5,182.0" stroke="black" stroke-width="2" fill="none" />
<polyline points="67.0,187.5,58.5,187.5,50.0,187.0,41.5,187.0,34.0,187.5,26.0,188.0,18.5,188.0,10.5,188.0,2.5,188.5" stroke="black" stroke-width="2" fill="none" />
<polyline points="5.0,195.0,13.0,187.5" stroke="black" stroke-width="2" fill="none" />
<polyline points="11.0,180.0,3.0,187.5" stroke="black" stroke-width="2" fill="none" />
<polyline points="1.5,181.0,9.5,180.5,18.0,180.5,26.0,180.0,34.0,179.5,42.5,179.0" stroke="black" stroke-width="2" fill="none" />
<polyline points="45.5,174.5,37.0,175.5" stroke="black" stroke-width="2" fill="none" />
<polyline points="29.5,164.0,21.5,164.5" stroke="black" stroke-width="2" fill="none" />
<polyline points="18.5,158.0,11.0,159.0,3.5,159.5" stroke="black" stroke-width="2" fill="none" />
<polyline points="2.5,162.0,5.0,161.0,8.0,169.5,9.0,175.5,17.0,166.5,25.0,160.0,33.5,158.5" stroke="black" stroke-width="2" fill="none" />
<polyline points="34.0,158.5,31.5,167.0,29.0,173.0,34.0,172.5,46.5,166.5,55.0,165.5,63.0,156.5,73.0,155.0,81.0,152.0,89.0,152.0" stroke="black" stroke-width="2" fill="none" />
<polyline points="83.0,145.5,91.0,138.0" stroke="black" stroke-width="2" fill="none" />
<polyline points="82.0,132.5,74.0,140.0" stroke="black" stroke-width="2" fill="none" />
<polyline points="75.0,139.5,83.0,139.0" stroke="black" stroke-width="2" fill="none" />
<polyline points="76.5,140.5,84.5,140.5,91.5,140.0,99.5,139.5,107.5,139.0,116.0,138.5,124.0,138.0,132.5,137.5,140.5,137.5,148.0,137.0,156.0,136.5,164.0,136.5" stroke="black" stroke-width="2" fill="none" />
<polyline points="181.5,151.0,189.5,150.5" stroke="black" stroke-width="2" fill="none" />
<polyline points="195.0,155.0,203.0,147.5,211.0,140.0" stroke="black" stroke-width="2" fill="none" />
<polyline points="202.5,144.0,208.5,150.0,211.5,158.0,212.5,169.0,217.5,165.0,220.5,171.5,220.5,174.5,223.5,177.5,231.0,177.5,232.5,172.5,229.0,174.0,242.5,179.0,251.0,178.0,255.0,186.0,262.0,187.5,269.5,185.5,270.5,181.5" stroke="black" stroke-width="2" fill="none" />
<polyline points="263.0,172.5,257.5,168.5,258.5,160.5,258.0,152.0,254.0,150.0,251.0,147.0,245.0,146.0" stroke="black" stroke-width="2" fill="none" />
<polyline points="210.5,149.5,202.5,157.5,195.0,164.5" stroke="black" stroke-width="2" fill="none" />
<polyline points="192.0,164.5,192.0,172.5,193.0,186.5" stroke="black" stroke-width="2" fill="none" />
<polyline points="197.0,168.0,200.0,176.0,208.0,183.5,220.0,191.5,224.0,199.0,229.5,207.0,236.5,213.0,240.5,221.5,240.5,229.5,241.5,238.0,241.5,246.0,242.5,254.0,244.0,262.0,244.0,271.0,244.0,279.0,244.0,287.5,244.5,295.5,244.5,303.5,244.5,312.0,246.0,320.0,244.5,327.5,230.5,336.0" stroke="black" stroke-width="2" fill="none" />
<polyline points="211.0,162.5,203.5,160.5" stroke="black" stroke-width="2" fill="none" />
<polyline points="208.5,159.5,203.5,161.5,206.0,170.0,209.5,178.0" stroke="black" stroke-width="2" fill="none" />
<polyline points="203.5,154.0,195.5,155.0" stroke="black" stroke-width="2" fill="none" />
<polyline points="205.5,150.5,213.5,152.0" stroke="black" stroke-width="2" fill="none" />
<polyline points="182.0,152.5,184.0,161.0,179.0,171.0,184.0,177.5,182.5,186.0,179.5,193.5,174.5,201.0,170.5,199.5" stroke="black" stroke-width="2" fill="none" />
<polyline points="140.5,163.5,132.0,171.0" stroke="black" stroke-width="2" fill="none" />
<polyline points="134.0,167.0,134.0,159.0,135.0,150.5,125.0,150.5,117.0,150.0,109.0,150.0" stroke="black" stroke-width="2" fill="none" />
<polyline points="109.0,145.5,117.0,138.0" stroke="black" stroke-width="2" fill="none" />
<polyline points="117.0,133.5,125.0,133.0,132.5,132.5,140.0,132.0,147.5,132.0,155.0,131.5,162.5,130.5,171.0,129.5" stroke="black" stroke-width="2" fill="none" />
<polyline points="171.0,121.5,164.0,122.0,156.5,123.0,149.0,123.5,141.0,124.0,133.5,125.0,125.0,126.0,117.0,127.0" stroke="black" stroke-width="2" fill="none" />
<polyline points="120.0,126.0,117.5,134.5" stroke="black" stroke-width="2" fill="none" />
<polyline points="123.5,141.0,122.5,132.0,128.5,126.0,124.0,122.5,117.0,121.5" stroke="black" stroke-width="2" fill="none" />
<polyline points="118.0,117.5,126.5,122.5,135.0,120.5" stroke="black" stroke-width="2" fill="none" />
<polyline points="132.0,123.0,140.0,115.5" stroke="black" stroke-width="2" fill="none" />
<polyline points="132.5,116.0,124.5,123.0" stroke="black" stroke-width="2" fill="none" />
<polyline points="121.5,117.0,129.5,117.0,138.5,117.0,146.5,116.5" stroke="black" stroke-width="2" fill="none" />
<polyline points="157.0,112.0,165.0,119.0" stroke="black" stroke-width="2" fill="none" />
<polyline points="167.5,118.5,166.0,110.0,163.0,99.5,166.5,94.0,166.5,86.0,156.5,91.0,148.5,89.0" stroke="black" stroke-width="2" fill="none" />
<polyline points="149.5,87.5,157.0,89.5" stroke="black" stroke-width="2" fill="none" />
<polyline points="167.0,97.0,159.0,99.0,151.0,100.5,143.5,96.0" stroke="black" stroke-width="2" fill="none" />
<polyline points="153.0,106.0,151.0,114.0,145.5,120.0,137.5,119.0,134.5,126.5,133.5,129.5,137.0,126.5" stroke="black" stroke-width="2" fill="none" />
<polyline points="131.5,108.0,123.5,108.5" stroke="black" stroke-width="2" fill="none" />
<polyline points="108.0,106.0,99.5,105.5,91.5,105.5,83.0,103.5" stroke="black" stroke-width="2" fill="none" />
<polyline points="88.0,97.0,85.0,107.0,85.5,115.0,83.5,124.0,84.5,129.0,84.5,136.5,93.0,146.0,98.0,148.0,103.5,140.0,111.5,141.0,119.5,141.5" stroke="black" stroke-width="2" fill="none" />
<polyline points="123.0,149.5,125.0,158.0,120.0,160.0" stroke="black" stroke-width="2" fill="none" />
<polyline points="118.0,152.0,114.5,160.5,117.5,152.0" stroke="black" stroke-width="2" fill="none" />
<polyline points="124.5,151.0,128.5,152.5,127.5,160.5" stroke="black" stroke-width="2" fill="none" />
<polyline points="138.5,157.5,138.0,165.5" stroke="black" stroke-width="2" fill="none" />
<polyline points="148.5,163.0,140.0,162.5,132.0,163.0,124.5,163.5,117.0,163.5,109.5,164.0,101.5,164.5" stroke="black" stroke-width="2" fill="none" />
<polyline points="99.5,157.5,108.0,157.0,115.5,156.5,123.5,155.5,131.5,155.0,139.5,154.5,147.5,154.0" stroke="black" stroke-width="2" fill="none" />
<polyline points="149.5,142.0,141.0,142.5,132.5,143.0,124.5,144.0,116.5,144.5,109.0,145.5,100.5,146.5,92.0,147.0,84.0,147.0,76.0,147.5" stroke="black" stroke-width="2" fill="none" />
<polyline points="74.0,135.5,82.5,135.0,91.0,134.0" stroke="black" stroke-width="2" fill="none" />
<polyline points="91.0,126.0,83.0,126.5,75.5,127.0" stroke="black" stroke-width="2" fill="none" />
<polyline points="73.0,131.5,74.0,125.5,80.0,126.5,83.0,134.5,88.0,143.0,98.0,155.0,96.0,163.0,96.0,169.0,105.5,170.0,113.0,158.0,114.0,167.0,121.0,171.0,128.0,171.0,136.0,169.5" stroke="black" stroke-width="2" fill="none" />
<polyline points="111.5,145.5,103.5,142.0" stroke="black" stroke-width="2" fill="none" />
<polyline points="102.0,142.0,95.0,143.5,101.5,156.0,102.5,164.0,112.0,164.0,115.0,176.0,112.5,184.0,107.5,193.0,104.0,200.5,104.0,208.5,99.0,218.5,93.0,225.5,97.0,234.0,99.0,234.0,102.0,246.5,105.0,250.5,108.0,261.5,118.0,269.0,120.0,279.0,124.0,291.0,124.0,299.0,125.0,307.0,125.0,314.5,126.0,322.5,127.0,330.5,127.0,338.5" stroke="black" stroke-width="2" fill="none" />
<polyline points="19.5,332.0,11.0,332.0,3.0,332.0" stroke="black" stroke-width="2" fill="none" />
<polyline points="4.0,324.0,11.5,323.5" stroke="black" stroke-width="2" fill="none" />
<polyline points="11.5,316.0,3.5,316.5" stroke="black" stroke-width="2" fill="none" />
<polyline points="3.0,309.0,10.5,309.0" stroke="black" stroke-width="2" fill="none" />
<polyline points="10.0,302.0,1.5,303.0" stroke="black" stroke-width="2" fill="none" />
<polyline points="3.5,307.5,3.5,299.0,3.0,291.5,5.5,283.0,4.5,275.0,3.5,267.0,5.0,259.0,2.5,251.5,10.5,239.5,19.5,232.0,25.5,224.0,27.0,216.0,25.5,208.5,24.5,200.5,14.5,203.0" stroke="black" stroke-width="2" fill="none" />
<polyline points="18.0,204.0,26.0,196.5" stroke="black" stroke-width="2" fill="none" />
<polyline points="25.0,205.0,17.0,212.5" stroke="black" stroke-width="2" fill="none" />
<polyline points="12.5,212.0,4.5,219.5" stroke="black" stroke-width="2" fill="none" />
<polyline points="5.0,221.0,12.5,221.0,20.5,220.5,28.0,219.5" stroke="black" stroke-width="2" fill="none" />
<polyline points="27.0,219.0,19.0,226.5,11.5,234.5" stroke="black" stroke-width="2" fill="none" />
<polyline points="14.0,238.5,6.5,238.5" stroke="black" stroke-width="2" fill="none" />
<polyline points="0.0,235.5,4.0,231.5,6.5,228.5,14.5,227.5" stroke="black" stroke-width="2" fill="none" />
<polyline points="19.0,219.5,27.0,212.0" stroke="black" stroke-width="2" fill="none" />
<polyline points="28.5,227.0,20.5,228.0,12.5,229.0,4.0,230.0" stroke="black" stroke-width="2" fill="none" />
<polyline points="1.5,226.5,9.5,223.5" stroke="black" stroke-width="2" fill="none" />
<polyline points="3.5,212.5,11.5,212.0,19.5,211.5,27.5,211.0,35.5,210.0" stroke="black" stroke-width="2" fill="none" />
<polyline points="22.0,217.5,21.5,210.5,15.5,204.5,21.5,196.5,26.5,189.5,29.5,181.5,26.0,177.5,34.5,174.0,39.5,166.5,42.5,158.5,48.0,150.5,39.0,139.0" stroke="black" stroke-width="2" fill="none" />
<polyline points="28.0,124.5,20.0,125.0" stroke="black" stroke-width="2" fill="none" />
<polyline points="22.5,121.0,21.0,129.5,23.0,129.5" stroke="black" stroke-width="2" fill="none" />
<polyline points="25.0,123.5,29.0,131.5,29.0,126.0" stroke="black" stroke-width="2" fill="none" />
<polyline points="36.5,121.0,28.5,120.0,20.0,119.0" stroke="black" stroke-width="2" fill="none" />
<polyline points="18.0,116.5,10.5,116.5,2.5,116.5" stroke="black" stroke-width="2" fill="none" />
<polyline points="2.0,115.5,10.0,115.5,18.0,116.0,26.5,117.0,34.5,118.0,42.5,120.0,45.5,124.0,51.5,129.0,48.5,139.5,44.0,147.5,40.0,147.0,46.0,156.0,43.0,164.5,37.5,172.5,32.5,180.5,29.5,188.5,19.0,195.5,11.0,206.0,9.5,214.0,11.5,216.0,17.5,219.5,13.0,223.5" stroke="black" stroke-width="2" fill="none" />
<polyline points="19.5,216.0,11.5,211.0" stroke="black" stroke-width="2" fill="none" />
<polyline points="4.0,212.0,11.5,200.0,19.5,194.0,27.5,182.5" stroke="black" stroke-width="2" fill="none" />
<polyline points="26.0,173.0,18.5,173.5,10.5,174.5" stroke="black" stroke-width="2" fill="none" />
<polyline points="9.5,167.0,2.0,167.0" stroke="black" stroke-width="2" fill="none" />
<polyline points="1.0,179.5,9.5,181.0,15.5,173.0,23.5,168.0" stroke="black" stroke-width="2" fill="none" />
<polyline points="24.0,155.5,32.0,149.5,28.0,157.0,23.5,167.0,21.5,175.5,20.5,179.0,18.5,187.0,15.0,189.5,18.0,180.0,26.0,175.0,31.5,170.0,41.0,164.0" stroke="black" stroke-width="2" fill="none" />
<polyline points="30.5,161.0,22.5,164.0,31.0,157.5" stroke="black" stroke-width="2" fill="none" />
<polyline points="24.0,152.0,32.0,145.0,40.0,144.0,46.0,145.5,52.5,134.5" stroke="black" stroke-width="2" fill="none" />
<polyline points="52.5,128.0,44.0,133.0,36.0,137.0,28.0,137.5,20.0,140.0,11.5,141.0,3.5,142.0,1.5,139.0,7.5,129.0,10.5,121.0" stroke="black" stroke-width="2" fill="none" />
<polyline points="11.5,121.0,11.0,129.0,8.0,137.0,5.0,156.5,4.0,165.5,5.0,174.0,5.0,182.0,10.5,192.5,9.0,200.5,13.0,191.5,21.5,190.5,26.5,195.5,34.0,180.0,41.5,167.0" stroke="black" stroke-width="2" fill="none" />
<polyline points="27.0,149.5,19.0,150.0,11.0,151.0,3.0,151.5" stroke="black" stroke-width="2" fill="none" />
<polyline points="2.0,149.0,10.0,146.0,11.0,150.5" stroke="black" stroke-width="2" fill="none" />
<polyline points="11.0,141.5,18.5,141.5" stroke="black" stroke-width="2" fill="none" />
<polyline points="24.5,143.5,21.5,151.5,17.0,157.5,24.0,149.5" stroke="black" stroke-width="2" fill="none" />
<polyline points="3.0,119.0,11.0,120.0,19.0,120.0,19.0,122.0,19.5,130.5,14.5,139.0,20.5,138.0,27.0,135.0,30.0,135.5,37.5,133.5,41.5,123.0,40.5,131.5,36.5,127.5,36.5,138.0,36.5,143.0,26.0,151.0,21.0,161.0,17.5,167.5,14.5,175.5,10.0,175.5,12.0,180.5,8.0,185.0,5.0,193.0,3.0,196.5,9.0,201.0,5.5,209.0,4.0,217.5,4.0,226.0,12.5,224.0,18.5,230.0,6.5,233.0,3.5,244.0,10.0,242.0,18.0,234.5,25.5,226.5" stroke="black" stroke-width="2" fill="none" />
<polyline points="8.0,253.5,16.5,252.5,24.0,250.5,32.0,248.5,39.5,246.5,47.5,245.5,55.0,243.0,63.0,241.0,70.5,238.5" stroke="black" stroke-width="2" fill="none" />
<polyline points="102.5,193.0,100.0,203.5,100.5,195.5,102.0,191.5,98.0,191.0,97.5,182.5,92.5,174.5,84.5,174.0,76.5,175.5" stroke="black" stroke-width="2" fill="none" />
<polyline points="68.0,170.5,71.0,174.5,72.0,186.5,71.0,194.5,70.5,202.5,68.0,211.0" stroke="black" stroke-width="2" fill="none" />
<polyline points="84.5,210.0,76.0,212.0,68.0,213.0,66.0,207.0,66.5,199.0,67.5,191.5,67.5,184.0,68.5,176.5,72.5,169.5,64.5,165.5" stroke="black" stroke-width="2" fill="none" />
<polyline points="68.0,160.0,76.0,156.0,84.0,154.5,92.0,152.5,100.0,151.5,105.0,154.0,99.5,157.0,100.5,165.5" stroke="black" stroke-width="2" fill="none" />
<polyline points="87.0,176.0,90.0,184.0" stroke="black" stroke-width="2" fill="none" />
<polyline points="74.0,156.5,65.5,157.0" stroke="black" stroke-width="2" fill="none" />
<polyline points="65.0,153.5,60.0,161.5" stroke="black" stroke-width="2" fill="none" />
<polyline points="68.5,131.5,76.5,142.0,85.0,149.0,97.0,144.0,105.0,147.5,113.5,146.5,121.5,145.5,129.0,145.5,137.0,138.5,145.0,132.5,153.0,129.0,161.0,127.0" stroke="black" stroke-width="2" fill="none" />
<polyline points="150.5,122.0,141.5,120.0,142.0,113.5,134.0,112.0,126.0,113.0,118.0,115.5,107.5,115.0,106.5,118.0,98.5,120.0" stroke="black" stroke-width="2" fill="none" />
<polyline points="100.0,124.0,108.0,126.0,98.0,134.5,93.5,137.5" stroke="black" stroke-width="2" fill="none" />
<polyline points="81.5,126.5,90.5,126.5,88.0,131.0,89.0,133.0,102.0,128.0,109.0,122.0,118.0,129.0,126.0,125.5" stroke="black" stroke-width="2" fill="none" />
<polyline points="107.0,102.5,99.0,103.0,91.0,103.0,89.5,97.0,81.5,105.0,81.5,102.0,73.5,104.0" stroke="black" stroke-width="2" fill="none" />
<polyline points="71.5,114.5,72.5,122.5,69.0,130.0,74.0,137.5,81.0,146.0,72.0,155.0,65.0,158.0,66.0,165.5,67.0,173.5,66.0,181.5,65.0,189.5,65.0,197.5,64.0,205.5,65.0,213.5,68.5,221.5,70.5,229.5,76.5,237.5,82.0,246.0,87.0,247.0,94.5,255.5,106.5,262.5,114.0,267.5,122.5,278.0,134.0,272.0,146.0,277.0,151.0,269.0,159.5,260.0,168.5,246.0,174.5,234.5,182.0,230.5" stroke="black" stroke-width="2" fill="none" />
<polyline points="200.5,116.0,192.0,124.0,200.0,126.0,207.5,124.0,209.0,131.0,217.0,132.0,225.0,133.0,233.0,135.0,240.5,134.0,248.5,134.0,256.0,129.5" stroke="black" stroke-width="2" fill="none" />
<polyline points="258.0,86.0,266.5,85.0,275.0,84.5,283.5,83.5,291.5,82.5,300.0,82.0,308.0,81.5,315.5,81.0,323.5,80.5,331.0,80.5,339.0,80.5,347.5,80.0,356.0,79.0,364.0,78.5,372.0,78.5,380.5,78.0,388.0,78.0,395.5,78.0,403.5,77.5,411.0,77.0,419.0,75.5,427.0,75.5,435.0,75.5,443.0,75.0,451.0,74.5,459.5,74.0,467.5,73.5,475.5,72.0,484.0,71.5,493.0,71.0,501.0,70.5,509.0,69.5,516.5,68.5" stroke="black" stroke-width="2" fill="none" />
<polyline points="516.0,1.0,508.5,2.0,500.5,2.5,492.5,3.0,484.5,3.0,476.5,3.5,468.5,4.0,460.5,4.0,452.5,5.0,443.5,5.0,435.0,5.5,426.5,5.5,418.5,6.0,410.5,6.5,403.0,7.5,395.0,8.0,387.5,8.5,379.5,9.0" stroke="black" stroke-width="2" fill="none" />
<polyline points="380.5,2.0,372.5,9.5,363.5,17.0,355.0,25.0,347.0,32.5,339.5,41.0,331.5,48.5,323.5,56.5" stroke="black" stroke-width="2" fill="none" />
<polyline points="331.0,57.5,339.0,50.5,347.5,43.0,355.5,35.5,363.5,27.5,371.5,19.5,379.5,11.5,388.0,3.5" stroke="black" stroke-width="2" fill="none" />
<polyline points="362.5,34.5,354.5,35.0,346.0,36.0" stroke="black" stroke-width="2" fill="none" />
<polyline points="339.0,41.5,347.5,41.0,356.0,40.0" stroke="black" stroke-width="2" fill="none" />
<polyline points="365.5,51.0,357.5,58.5,349.0,66.5" stroke="black" stroke-width="2" fill="none" />
<polyline points="341.5,80.0,350.5,87.5,357.0,95.0,366.0,103.0,374.5,111.0,377.5,120.0,380.5,128.0,381.5,136.0,363.5,144.0,368.0,149.0,372.0,154.5,364.0,164.0,366.0,172.0,371.5,180.0,368.5,188.0,368.0,196.5,363.0,205.0,362.5,213.0,368.5,216.5,367.5,224.5,370.5,227.5,376.5,232.5,396.0,237.5,404.0,252.0,402.0,263.5,401.5,271.5,403.0,280.0,403.0,288.5,403.0,297.0,403.0,305.0,403.0,313.0,403.0,321.0,403.0,329.0,403.0,337.0" stroke="black" stroke-width="2" fill="none" />
<polyline points="427.0,120.5,427.0,128.5,427.0,120.5" stroke="black" stroke-width="2" fill="none" />
<polyline points="400.5,122.0,399.5,114.0,398.5,106.0,396.0,98.0" stroke="black" stroke-width="2" fill="none" />
<polyline points="394.0,81.0,386.5,81.0" stroke="black" stroke-width="2" fill="none" />
<polyline points="380.0,88.0,372.0,88.5,364.0,89.0,356.0,89.0" stroke="black" stroke-width="2" fill="none" />
<polyline points="356.0,90.5,364.0,82.5,372.5,74.5,381.0,67.0" stroke="black" stroke-width="2" fill="none" />
<polyline points="389.0,68.5,381.0,76.5,373.0,84.0,365.0,91.5,357.0,98.5" stroke="black" stroke-width="2" fill="none" />
<polyline points="357.0,101.0,365.0,101.0,372.5,100.0,380.5,99.5,387.5,99.0,395.5,98.5,403.0,98.0,411.5,97.5,419.5,97.0,427.5,97.0,436.0,96.5,443.5,96.0,451.5,95.5,459.5,95.0,466.5,94.5,474.0,93.5,482.5,93.0,491.0,93.5,499.0,93.0,507.0,92.5,515.0,92.0" stroke="black" stroke-width="2" fill="none" />
<polyline points="388.0,96.0,379.5,96.5,371.0,97.0,362.5,97.5" stroke="black" stroke-width="2" fill="none" />
<polyline points="349.5,92.5,357.0,92.0,364.5,91.5,372.5,91.0,380.5,90.5,388.5,90.0,396.0,89.5,403.5,88.5,411.0,87.5,418.5,87.5,426.5,87.0,434.5,86.0,442.0,86.0,450.0,86.0,459.0,85.5,467.5,85.0,475.5,84.5,484.0,84.0,492.0,83.5,500.0,83.0,508.0,82.5,516.5,82.0" stroke="black" stroke-width="2" fill="none" />
<polyline points="444.0,52.0,436.5,53.0,428.5,54.0,420.5,55.5,411.5,56.0,403.5,56.0,395.0,56.5,387.0,57.5,379.0,58.0,371.0,58.5,363.0,59.0,354.5,59.0,346.0,59.5,338.0,60.0,330.5,60.5,323.5,61.0,316.0,61.5,308.5,62.5,300.5,63.0" stroke="black" stroke-width="2" fill="none" />
<polyline points="302.0,60.5,306.0,68.5,311.5,76.0,310.5,84.5,310.5,91.5,317.0,100.0" stroke="black" stroke-width="2" fill="none" />
<polyline points="303.5,103.5,295.5,102.5,286.0,102.5,281.0,101.0,276.0,100.5,279.5,91.5,279.5,84.0,270.5,85.0,262.5,85.5" stroke="black" stroke-width="2" fill="none" />
<polyline points="268.5,77.0,276.5,77.0,284.5,76.5" stroke="black" stroke-width="2" fill="none" />
<polyline points="290.5,58.0,298.5,50.0,306.5,41.5,314.5,33.5,323.0,25.5,331.5,17.5" stroke="black" stroke-width="2" fill="none" />
<polyline points="321.0,20.0,313.5,27.0,305.5,34.5,298.0,41.5,291.0,49.5" stroke="black" stroke-width="2" fill="none" />
<polyline points="290.5,49.0,299.0,48.5,307.0,48.0,315.5,47.5" stroke="black" stroke-width="2" fill="none" />
<polyline points="315.5,40.5,307.0,41.0,298.5,41.5,290.0,42.0" stroke="black" stroke-width="2" fill="none" />
<polyline points="291.5,41.5,300.0,34.0,308.0,26.5,316.0,19.0" stroke="black" stroke-width="2" fill="none" />
<polyline points="307.0,20.5,299.5,28.0,292.0,35.5" stroke="black" stroke-width="2" fill="none" />
<polyline points="291.0,31.0,299.0,30.5,307.5,30.5,315.5,30.5" stroke="black" stroke-width="2" fill="none" />
<polyline points="307.5,11.5,300.0,19.0,292.0,26.0" stroke="black" stroke-width="2" fill="none" />
<polyline points="290.0,26.0,298.0,25.5,306.0,25.5" stroke="black" stroke-width="2" fill="none" />
<polyline points="298.5,11.5,290.5,19.0" stroke="black" stroke-width="2" fill="none" />
<polyline points="290.0,24.0,298.0,23.5,306.5,22.0,314.5,21.0,322.0,21.0,330.0,20.5,338.0,19.5,346.0,18.5,353.5,18.0,361.0,18.0,369.0,17.5,377.0,17.0,385.5,16.5,394.0,16.0,402.5,15.0,410.5,14.5,418.5,13.5,426.0,12.5,434.0,12.0,442.5,11.0,450.5,10.5,458.5,10.0,466.5,9.5,474.5,9.5,483.0,9.0,491.5,8.5,499.5,8.5,507.0,8.5,515.0,8.0" stroke="black" stroke-width="2" fill="none" />
<polyline points="361.5,25.0,354.0,25.5,346.5,26.0" stroke="black" stroke-width="2" fill="none" />
<polyline points="354.5,46.5,346.5,47.5,338.0,48.0" stroke="black" stroke-width="2" fill="none" />
<polyline points="332.5,63.5,324.5,60.5,315.5,67.5,315.5,59.5" stroke="black" stroke-width="2" fill="none" />
<polyline points="291.0,54.0,299.0,53.5,307.0,53.0,315.5,52.0,323.5,51.5,331.5,51.0,339.5,50.5,347.5,49.5,355.5,49.0,363.5,48.5,371.5,48.0,379.5,47.5,387.0,47.0,395.0,46.5,402.5,45.5" stroke="black" stroke-width="2" fill="none" />
<polyline points="402.5,39.5,394.5,40.0,386.5,40.0,378.5,40.5,370.5,41.5,362.5,42.5,354.5,42.5,346.5,43.0,338.5,43.5,331.0,43.0,323.5,43.0,315.5,43.0,307.5,43.0,299.0,43.0,290.5,43.0,282.5,43.5" stroke="black" stroke-width="2" fill="none" />
<polyline points="284.5,35.5,292.5,34.5,300.5,34.5,308.5,34.5,316.5,35.0,324.0,35.5,332.5,35.0,340.0,34.5,347.5,34.0,355.0,33.5,362.5,32.5,371.0,32.0,379.5,31.5,388.0,31.0,396.5,31.0,404.5,30.0" stroke="black" stroke-width="2" fill="none" />
<polyline points="376.5,83.5,377.5,92.0,382.5,88.0,390.5,92.0,392.5,95.0,399.0,100.0,404.5,107.0" stroke="black" stroke-width="2" fill="none" />
<polyline points="374.5,111.0,366.5,104.0,358.0,97.0,349.5,88.0,341.5,81.0" stroke="black" stroke-width="2" fill="none" />
<polyline points="338.0,78.0,336.0,86.0,335.0,94.0,330.0,102.0,341.0,103.0,349.0,103.0,357.0,107.0,364.5,112.0,372.5,116.0" stroke="black" stroke-width="2" fill="none" />
<polyline points="361.0,110.5,348.0,102.5" stroke="black" stroke-width="2" fill="none" />
<polyline points="261.0,101.0,259.0,93.0,253.0,80.0" stroke="black" stroke-width="2" fill="none" />
<polyline points="253.0,69.5,261.0,69.5,261.0,75.5,260.5,83.5,265.5,86.5,266.0,94.5" stroke="black" stroke-width="2" fill="none" />
<polyline points="259.5,104.5,256.5,96.5,254.5,82.5,254.0,75.0,256.0,67.0" stroke="black" stroke-width="2" fill="none" />
<polyline points="244.0,45.0,235.5,45.5" stroke="black" stroke-width="2" fill="none" />
<polyline points="283.5,27.0,292.0,26.5,300.5,26.5,308.5,26.0,317.5,25.5,326.0,25.0,334.0,25.0,341.5,25.5,349.5,26.0,357.5,25.5,365.5,25.0,373.5,24.5,381.5,24.0,389.5,23.0,397.5,22.5,405.5,22.0,413.0,22.0,420.5,21.5,428.0,21.5,435.5,21.0,443.0,20.5,451.0,20.0,459.5,19.5,468.0,19.0,476.0,18.5,483.5,18.0,491.5,17.0,499.5,15.5,506.5,14.5,513.5,13.5" stroke="black" stroke-width="2" fill="none" />
<polyline points="517.0,0.0,509.0,0.5,500.5,1.5,492.5,2.5,484.0,2.5,475.0,3.0,466.5,3.5,458.5,4.5,451.0,4.5,442.5,5.0,435.0,5.0,427.0,5.0,419.0,5.0,411.5,5.0,403.5,6.0,395.5,7.0,388.0,7.5,380.0,7.5,372.5,8.0,364.0,8.5,356.0,9.0,347.5,10.0,339.0,11.0,331.0,11.5,323.0,11.5,315.0,12.0,307.5,12.5,300.0,13.0,292.0,13.5" stroke="black" stroke-width="2" fill="none" />
<polyline points="291.5,5.0,300.0,4.5,307.5,4.0,315.5,3.5,323.5,2.5,331.5,2.0,339.5,1.5,347.5,0.0,356.0,-0.5,364.0,-1.0,372.0,-1.5,380.0,-2.0,387.5,-2.0,395.0,-2.0,402.5,-1.5,410.5,-1.0,418.0,-1.5,426.0,-2.0,433.5,-2.5,441.5,-3.0,449.5,-3.5,457.5,-4.0,466.0,-4.0,474.5,-4.5,482.5,-4.5,491.0,-5.0,499.5,-6.0,508.5,-7.0,517.0,-8.0" stroke="black" stroke-width="2" fill="none" />
<polyline points="283.5,176.5,279.5,172.0,274.5,175.5,264.5,167.5,260.5,160.0,254.5,152.5,246.5,146.0,241.0,154.5,239.0,156.0,237.0,152.0,229.0,150.5,220.5,153.5,218.5,148.5,218.0,143.0,210.0,145.0,201.0,139.0,193.0,144.0,190.5,138.5,190.5,130.5,191.5,120.5,199.5,112.5" stroke="black" stroke-width="2" fill="none" />
<polyline points="172.5,127.5,166.5,120.0,159.0,112.0" stroke="black" stroke-width="2" fill="none" />
<polyline points="140.5,82.5,132.0,82.5,124.0,83.0" stroke="black" stroke-width="2" fill="none" />
<polyline points="122.5,91.5,122.5,99.5,126.5,105.0" stroke="black" stroke-width="2" fill="none" />
<polyline points="115.0,90.5,113.0,98.5,110.0,106.0,118.5,115.0,112.5,123.0,108.0,131.0,110.0,136.0,119.5,137.0" stroke="black" stroke-width="2" fill="none" />
<polyline points="100.0,100.0,98.0,91.5" stroke="black" stroke-width="2" fill="none" />
<polyline points="111.0,91.5,108.0,99.0,113.5,106.0,121.5,105.0,133.5,104.5,141.5,104.5,149.0,104.5,157.0,103.0,165.0,101.0" stroke="black" stroke-width="2" fill="none" />
<polyline points="164.0,86.0,156.0,84.5,148.5,90.0,140.0,96.0,133.0,89.5,125.0,89.5,116.5,89.0,108.5,90.0,100.5,90.0,92.0,92.0,83.5,92.0,75.5,92.5,67.0,95.5" stroke="black" stroke-width="2" fill="none" />
<polyline points="75.0,93.0,67.0,94.0,62.0,96.0,70.0,92.0,78.0,90.0,86.0,89.5,94.5,89.0,102.5,87.0,110.5,86.0,119.0,85.0,127.0,86.0,135.0,87.0" stroke="black" stroke-width="2" fill="none" />
<polyline points="48.0,121.0,46.0,129.0,49.5,127.0" stroke="black" stroke-width="2" fill="none" />
<polyline points="27.5,100.5,19.5,101.5,11.0,102.0" stroke="black" stroke-width="2" fill="none" />
<polyline points="2.5,93.0,10.5,92.0,19.0,91.0" stroke="black" stroke-width="2" fill="none" />
<polyline points="13.0,69.0,5.0,69.5" stroke="black" stroke-width="2" fill="none" />
<polyline points="6.5,60.5,14.0,60.0,22.0,60.0" stroke="black" stroke-width="2" fill="none" />
<polyline points="20.5,52.0,12.5,52.5,5.0,53.5" stroke="black" stroke-width="2" fill="none" />
<polyline points="5.0,44.5,13.0,44.0,22.0,43.0" stroke="black" stroke-width="2" fill="none" />
<polyline points="20.5,37.0,12.0,37.5,4.0,38.0" stroke="black" stroke-width="2" fill="none" />
<polyline points="4.0,5.5,12.0,5.5" stroke="black" stroke-width="2" fill="none" />
<polyline points="33.5,291.5,25.5,292.5,17.5,293.0,9.5,293.5,1.5,294.0" stroke="black" stroke-width="2" fill="none" />
<polyline points="5.5,299.5,5.5,307.0,5.5,315.0,5.0,323.5,5.0,331.5" stroke="black" stroke-width="2" fill="none" />
</svg>