<svg xmlns="http://www.w3.org/2000/svg" version="1.1"><path d="M286.0,1.5,286.0,9.5,290.0,16.5,289.0,25.0,286.5,33.0,286.5,41.0,287.0,49.0,289.0,58.0,296.5,61.5,304.5,70.5,315.5,79.0,326.5,82.5" stroke="black" stroke-width="2" fill="none" />
<path d="M329.5,85.0,321.5,92.5" stroke="black" stroke-width="2" fill="none" />
<path d="M322.5,99.0,331.0,92.0,339.0,84.5" stroke="black" stroke-width="2" fill="none" />
<path d="M342.5,80.5,350.5,87.5,358.5,96.5,366.5,104.0,374.5,111.0" stroke="black" stroke-width="2" fill="none" />
<path d="M373.5,108.0,381.5,107.5,389.0,107.5,396.5,107.0,404.0,106.5,411.5,106.0,419.5,106.5,427.0,106.5,434.5,106.5,441.5,106.0,449.5,105.5,457.5,105.0,465.5,104.5,473.5,104.0,482.5,103.0,490.5,102.5,499.0,101.5,507.0,101.5,515.0,101.0" stroke="black" stroke-width="2" fill="none" />
<path d="M515.5,98.5,507.0,106.0,499.0,113.5,491.0,120.5,482.5,128.0,474.5,135.5" stroke="black" stroke-width="2" fill="none" />
<path d="M475.0,132.0,472.0,139.5,471.0,150.5,466.0,158.5,464.0,169.0,461.5,177.5,464.0,186.5,462.0,195.5,459.5,203.5,452.5,204.5,453.5,213.0,452.5,221.0,449.5,228.5,440.5,236.5,450.0,240.5,444.0,251.0,436.5,254.0,429.0,262.5,429.0,270.5,416.5,270.5,421.5,278.5,423.5,283.5,419.5,292.0,419.5,300.0,421.5,308.5,418.5,316.0,419.5,324.0,418.5,331.5,419.5,339.5" stroke="black" stroke-width="2" fill="none" />
<path d="M421.0,300.5,428.5,300.0" stroke="black" stroke-width="2" fill="none" />
<path d="M429.0,271.0,421.5,275.5,424.0,262.0,428.5,253.0,426.0,249.5,431.0,240.0,429.0,236.0,431.0,228.0,432.0,220.5,435.5,212.0,440.0,204.0,441.5,191.0,444.5,183.0,454.0,180.5,443.0,178.0,447.0,170.0,443.0,177.0" stroke="black" stroke-width="2" fill="none" />
<path d="M445.5,178.0,453.0,177.0" stroke="black" stroke-width="2" fill="none" />
<path d="M450.5,180.0,458.5,172.0" stroke="black" stroke-width="2" fill="none" />
<path d="M466.5,165.5,475.5,165.0" stroke="black" stroke-width="2" fill="none" />
<path d="M476.0,172.0,467.5,179.0,459.0,187.0,450.5,194.5,442.5,201.5,434.5,208.5" stroke="black" stroke-width="2" fill="none" />
<path d="M436.0,212.0,442.0,205.0,450.0,206.5" stroke="black" stroke-width="2" fill="none" />
<path d="M451.5,202.5,459.5,194.5,467.0,186.5,475.0,178.5" stroke="black" stroke-width="2" fill="none" />
<path d="M477.5,177.5,486.0,179.5,494.0,180.5,501.5,183.0,509.5,185.5" stroke="black" stroke-width="2" fill="none" />
<path d="M475.0,187.0,467.0,194.5,459.0,201.5" stroke="black" stroke-width="2" fill="none" />
<path d="M460.5,208.0,460.0,215.5,461.5,223.5,462.5,232.0" stroke="black" stroke-width="2" fill="none" />
<path d="M457.5,234.0,465.5,226.5,473.5,219.0" stroke="black" stroke-width="2" fill="none" />
<path d="M476.0,217.5,467.5,218.0" stroke="black" stroke-width="2" fill="none" />
<path d="M466.0,218.5,473.5,210.5" stroke="black" stroke-width="2" fill="none" />
<path d="M475.5,209.5,467.5,210.0" stroke="black" stroke-width="2" fill="none" />
<path d="M466.5,210.0,474.0,202.5" stroke="black" stroke-width="2" fill="none" />
<path d="M475.0,200.0,466.5,200.0" stroke="black" stroke-width="2" fill="none" />
<path d="M467.5,207.0,466.5,215.5,466.5,223.5,464.5,232.0,462.5,240.0" stroke="black" stroke-width="2" fill="none" />
<path d="M437.0,234.5,429.0,242.5" stroke="black" stroke-width="2" fill="none" />
<path d="M434.0,243.0,441.5,241.0" stroke="black" stroke-width="2" fill="none" />
<path d="M437.0,251.5,428.5,251.5,420.5,251.5,412.5,252.0,405.0,252.5" stroke="black" stroke-width="2" fill="none" />
<path d="M406.5,249.5,403.5,236.5,408.5,229.0,413.5,220.0,412.5,212.0,409.0,204.0,408.0,196.0,405.5,189.5,405.5,189.0" stroke="black" stroke-width="2" fill="none" />
<path d="M410.0,184.0,417.5,183.0,425.5,182.0,434.0,181.0,442.0,180.0,450.0,179.5,459.0,178.0,467.5,177.0,476.0,176.0" stroke="black" stroke-width="2" fill="none" />
<path d="M469.5,174.0,461.5,181.0,453.5,188.0,445.0,195.5,436.5,203.0" stroke="black" stroke-width="2" fill="none" />
<path d="M441.5,204.0,450.5,197.5,448.5,205.5,452.5,213.0,453.5,222.0,453.0,230.0,451.0,238.0" stroke="black" stroke-width="2" fill="none" />
<path d="M442.5,240.5,434.5,241.0,427.0,241.5,419.5,242.5,412.0,243.0,404.5,243.5" stroke="black" stroke-width="2" fill="none" />
<path d="M403.0,236.5,411.0,230.5" stroke="black" stroke-width="2" fill="none" />
<path d="M411.5,223.5,419.5,222.5" stroke="black" stroke-width="2" fill="none" />
<path d="M425.5,222.5,433.5,222.0,441.5,221.5,449.5,221.0,458.5,220.0,466.5,219.5,475.0,218.5" stroke="black" stroke-width="2" fill="none" />
<path d="M459.0,209.5,467.0,201.5,474.5,193.0" stroke="black" stroke-width="2" fill="none" />
<path d="M475.0,191.5,467.5,191.5" stroke="black" stroke-width="2" fill="none" />
<path d="M467.5,186.0,475.5,185.5" stroke="black" stroke-width="2" fill="none" />
<path d="M476.0,191.0,467.5,191.5,459.5,192.0,451.5,192.5,444.0,193.0,435.5,193.5,428.0,194.5,420.0,195.0,412.0,195.5,404.0,196.0,396.0,196.5,387.0,197.0,379.0,197.0,371.5,197.0,363.5,197.5" stroke="black" stroke-width="2" fill="none" />
<path d="M362.5,203.5,371.0,195.5,378.5,188.0,386.0,180.0" stroke="black" stroke-width="2" fill="none" />
<path d="M393.5,181.0,385.5,188.5,378.0,196.0,370.5,203.5,364.0,211.0" stroke="black" stroke-width="2" fill="none" />
<path d="M362.5,215.5,370.5,214.5,379.0,214.0,387.5,213.5,396.0,212.5" stroke="black" stroke-width="2" fill="none" />
<path d="M402.0,210.0,410.0,202.5" stroke="black" stroke-width="2" fill="none" />
<path d="M407.0,200.5,415.0,219.5" stroke="black" stroke-width="2" fill="none" />
<path d="M421.5,211.0,429.5,203.5,437.5,195.5" stroke="black" stroke-width="2" fill="none" />
<path d="M437.5,188.0,430.0,195.5,421.5,203.0" stroke="black" stroke-width="2" fill="none" />
<path d="M420.5,197.5,429.0,189.5" stroke="black" stroke-width="2" fill="none" />
<path d="M429.0,189.0,426.5,197.0,431.5,198.0,445.0,191.5,447.5,185.5" stroke="black" stroke-width="2" fill="none" />
<path d="M450.0,186.5,444.0,188.5,446.0,194.0,439.0,201.5,434.0,209.5,431.0,217.5,430.0,225.5,428.0,235.0,429.0,243.5,425.5,253.5,429.5,266.5" stroke="black" stroke-width="2" fill="none" />
<path d="M421.0,261.5,413.5,262.5" stroke="black" stroke-width="2" fill="none" />
<path d="M415.5,263.5,412.5,271.5,412.0,272.0" stroke="black" stroke-width="2" fill="none" />
<path d="M406.0,273.5,405.0,265.5" stroke="black" stroke-width="2" fill="none" />
<path d="M398.5,257.0,403.0,262.5,404.0,270.5,404.0,279.0,404.0,287.0,405.0,295.0,405.0,303.0,404.5,311.0,404.5,319.0,405.0,327.0" stroke="black" stroke-width="2" fill="none" />
<path d="M381.0,237.0,388.5,237.0,397.0,237.0,405.0,237.0,412.5,237.0,420.0,236.5,428.0,235.5,436.0,234.0,444.0,233.5,451.5,232.5,459.5,232.0,468.0,231.5" stroke="black" stroke-width="2" fill="none" />
<path d="M476.0,207.5,468.0,208.5,459.5,208.5,451.0,208.5,442.5,208.5,434.5,209.0,427.0,210.0,419.5,211.0,411.5,212.0,403.5,213.0" stroke="black" stroke-width="2" fill="none" />
<path d="M403.5,202.0,412.0,195.0,420.0,187.5" stroke="black" stroke-width="2" fill="none" />
<path d="M419.5,188.0,419.5,196.0" stroke="black" stroke-width="2" fill="none" />
<path d="M412.5,195.5,416.0,198.5,418.0,206.5,419.0,215.0" stroke="black" stroke-width="2" fill="none" />
<path d="M433.5,215.0,441.5,216.0,442.5,220.5" stroke="black" stroke-width="2" fill="none" />
<path d="M436.5,218.0,434.5,226.5,437.5,234.5" stroke="black" stroke-width="2" fill="none" />
<path d="M445.0,228.0,437.0,224.5" stroke="black" stroke-width="2" fill="none" />
<path d="M435.5,220.0,443.5,213.0" stroke="black" stroke-width="2" fill="none" />
<path d="M456.5,208.0,458.0,216.0,459.0,223.5,459.0,231.5,457.5,239.5" stroke="black" stroke-width="2" fill="none" />
<path d="M475.5,223.5,467.5,224.5,459.0,225.5,451.0,226.0,443.0,226.0,435.0,226.5,427.5,227.0,419.0,227.5,411.5,227.5,404.0,228.0,396.5,228.5,389.0,229.0,380.5,229.5,372.5,230.5" stroke="black" stroke-width="2" fill="none" />
<path d="M378.5,230.0,370.5,237.5" stroke="black" stroke-width="2" fill="none" />
<path d="M371.5,228.0,379.5,220.5" stroke="black" stroke-width="2" fill="none" />
<path d="M370.0,220.0,362.0,227.5" stroke="black" stroke-width="2" fill="none" />
<path d="M364.5,223.0,372.5,222.5,380.5,221.5,388.5,220.5,396.5,219.5,404.5,218.5" stroke="black" stroke-width="2" fill="none" />
<path d="M396.0,204.5,404.0,197.0" stroke="black" stroke-width="2" fill="none" />
<path d="M410.0,198.5,413.0,206.5,406.5,210.5,409.5,212.0,410.0,220.0,410.0,225.0" stroke="black" stroke-width="2" fill="none" />
<path d="M411.5,213.5,403.5,200.5,395.5,195.5" stroke="black" stroke-width="2" fill="none" />
<path d="M387.0,194.5,378.5,202.5" stroke="black" stroke-width="2" fill="none" />
<path d="M373.5,197.0,379.5,195.5,377.5,202.0,379.5,210.0,378.5,218.5" stroke="black" stroke-width="2" fill="none" />
<path d="M371.0,202.5,379.0,199.5" stroke="black" stroke-width="2" fill="none" />
<path d="M380.5,192.5,388.0,189.0,397.0,192.5,405.0,196.5,413.0,207.5" stroke="black" stroke-width="2" fill="none" />
<path d="M401.0,204.5,393.0,205.5" stroke="black" stroke-width="2" fill="none" />
<path d="M382.5,193.0,389.0,211.0,395.0,220.5,397.0,218.5,397.5,213.5,403.0,220.5,402.5,219.5,410.0,218.0,408.0,221.0,404.5,228.5,410.5,234.5" stroke="black" stroke-width="2" fill="none" />
<path d="M427.5,188.5,435.5,186.5,433.0,194.0,430.0,202.5,428.0,198.5,438.5,197.5,445.0,182.5,453.0,180.5,466.0,178.0" stroke="black" stroke-width="2" fill="none" />
<path d="M468.5,175.5,466.5,183.5,464.0,186.5" stroke="black" stroke-width="2" fill="none" />
<path d="M455.0,186.5,449.0,193.0,444.0,201.0,439.0,211.5,443.5,219.5,444.5,226.0,443.0,230.0,440.0,241.0" stroke="black" stroke-width="2" fill="none" />
<path d="M475.0,198.0,467.0,198.0,459.0,198.0,451.5,198.5,443.5,199.0,435.5,200.0,428.0,201.0,420.0,202.0,412.0,203.5,404.0,204.5,395.5,205.0,386.5,205.5,378.0,206.0,369.5,206.0,361.5,206.5" stroke="black" stroke-width="2" fill="none" />
<path d="M368.0,202.5,376.0,190.5,386.0,197.0,383.0,205.5,382.0,213.5,381.0,221.5,381.0,229.5" stroke="black" stroke-width="2" fill="none" />
<path d="M374.5,214.0,372.0,206.0,377.0,198.0,382.0,190.0,382.0,182.0,381.5,177.5,379.5,169.5,383.0,166.5,380.0,161.5,372.0,160.5,364.5,157.5" stroke="black" stroke-width="2" fill="none" />
<path d="M364.0,155.5,373.0,163.5,371.5,171.0,374.5,175.0,376.0,175.5,375.0,183.5,370.0,188.5,373.0,194.5,369.0,202.0,370.0,204.0,367.0,212.0,371.0,219.0,373.5,226.0,370.5,230.5,377.5,235.5,386.5,238.5" stroke="black" stroke-width="2" fill="none" />
<path d="M406.0,230.5,402.0,241.5,400.0,239.0,392.0,245.0,383.5,243.5,375.5,239.5,367.5,234.5,360.0,222.5" stroke="black" stroke-width="2" fill="none" />
<path d="M363.5,194.5,371.5,186.5" stroke="black" stroke-width="2" fill="none" />
<path d="M370.0,188.5,378.0,186.5" stroke="black" stroke-width="2" fill="none" />
<path d="M371.0,178.5,362.5,186.0" stroke="black" stroke-width="2" fill="none" />
<path d="M364.0,181.5,372.5,181.0,380.5,180.5,388.5,180.0,396.0,179.5" stroke="black" stroke-width="2" fill="none" />
<path d="M400.5,170.5,396.5,171.5,393.5,171.0,398.0,171.0,407.0,172.5,415.5,171.0,423.5,167.5" stroke="black" stroke-width="2" fill="none" />
<path d="M426.0,165.0,418.0,172.0" stroke="black" stroke-width="2" fill="none" />
<path d="M411.5,171.5,419.0,164.0" stroke="black" stroke-width="2" fill="none" />
<path d="M420.0,165.0,404.0,173.5,393.5,181.5,394.5,190.0,396.0,198.0,403.5,202.0,401.0,206.5,402.5,214.5,391.5,216.5,390.5,224.5,388.5,232.5,389.5,240.5,400.0,246.0,408.0,246.0,410.5,241.0" stroke="black" stroke-width="2" fill="none" />
<path d="M466.5,238.5,472.5,230.5,474.5,222.0,475.5,214.0,475.5,205.5,475.5,197.5,474.5,189.5,476.0,181.5,476.0,173.5,474.5,166.0,474.5,153.5,478.0,148.5,469.5,149.5,462.5,156.5,460.0,146.5,459.0,135.0,464.0,133.0,457.0,138.0" stroke="black" stroke-width="2" fill="none" />
<path d="M450.5,135.5,459.0,128.0,467.5,120.5,476.0,113.5,485.0,106.5,492.5,99.5,500.5,92.0,508.5,85.0,516.0,77.5" stroke="black" stroke-width="2" fill="none" />
<path d="M516.5,84.5,508.0,92.5,500.5,100.0,492.5,107.5,484.0,115.0,476.0,123.0,468.0,130.0" stroke="black" stroke-width="2" fill="none" />
<path d="M468.0,137.5,475.5,129.0,483.5,121.5,491.0,114.0,499.0,106.0,506.5,98.0,514.5,90.5" stroke="black" stroke-width="2" fill="none" />
<path d="M517.5,105.0,509.0,112.5,501.0,121.0,493.0,129.0,484.0,137.0" stroke="black" stroke-width="2" fill="none" />
<path d="M484.0,136.0,492.0,135.5,499.5,135.0,507.5,134.5" stroke="black" stroke-width="2" fill="none" />
<path d="M509.0,139.5,516.5,132.0" stroke="black" stroke-width="2" fill="none" />
<path d="M517.5,121.0,509.5,129.0,501.0,136.5" stroke="black" stroke-width="2" fill="none" />
<path d="M492.5,136.0,501.0,128.5,510.0,121.0,518.0,113.5" stroke="black" stroke-width="2" fill="none" />
<path d="M515.5,94.0,507.5,95.5,499.5,96.5,491.5,97.5,483.0,97.5" stroke="black" stroke-width="2" fill="none" />
<path d="M484.0,91.0,492.0,90.0,500.0,89.0,508.0,88.0,516.0,87.5" stroke="black" stroke-width="2" fill="none" />
<path d="M515.5,68.0,507.5,75.0,499.5,82.5,491.0,90.0,483.5,98.0,475.0,105.5,466.5,112.5,458.5,120.0,450.5,126.5" stroke="black" stroke-width="2" fill="none" />
<path d="M442.0,125.5,450.0,118.0,458.0,110.5,466.5,102.0,474.5,94.5,482.5,87.5,490.5,80.0,498.5,72.5,507.0,65.0,515.0,57.5" stroke="black" stroke-width="2" fill="none" />
<path d="M515.0,50.5,507.0,57.5,498.5,65.0,490.5,72.0,482.5,79.5,474.5,87.0,466.5,94.5,458.5,101.0,450.5,108.5,442.5,116.0,434.5,123.5,426.5,131.5" stroke="black" stroke-width="2" fill="none" />
<path d="M429.5,127.5,437.0,119.5,444.5,111.0,452.0,103.5,459.5,95.5,467.5,88.5,475.0,81.0,483.0,74.0,490.5,66.5" stroke="black" stroke-width="2" fill="none" />
<path d="M491.5,73.0,499.5,73.0,507.5,72.0,515.5,71.0" stroke="black" stroke-width="2" fill="none" />
<path d="M506.5,49.0,514.5,41.5" stroke="black" stroke-width="2" fill="none" />
<path d="M513.5,35.5,505.5,43.0" stroke="black" stroke-width="2" fill="none" />
<path d="M507.0,41.5,515.0,41.0" stroke="black" stroke-width="2" fill="none" />
<path d="M513.0,27.5,505.5,35.0,498.0,42.5" stroke="black" stroke-width="2" fill="none" />
<path d="M491.5,42.0,499.0,35.0,506.5,28.0,513.5,20.5" stroke="black" stroke-width="2" fill="none" />
<path d="M515.5,13.0,507.5,20.5,499.0,28.5,491.0,35.5,483.5,43.0" stroke="black" stroke-width="2" fill="none" />
<path d="M474.5,41.5,482.5,34.0,490.5,27.5,498.0,20.0,506.0,12.5,514.0,5.0" stroke="black" stroke-width="2" fill="none" />
<path d="M506.5,3.5,498.5,10.5,491.0,18.0,483.0,25.5,475.0,33.0,466.5,40.5" stroke="black" stroke-width="2" fill="none" />
<path d="M468.0,32.5,476.0,25.5,483.5,18.0,491.0,11.0,499.0,4.0" stroke="black" stroke-width="2" fill="none" />
<path d="M492.5,3.0,484.0,10.0,475.5,17.5,467.0,25.5,459.5,32.5,452.0,40.0" stroke="black" stroke-width="2" fill="none" />
<path d="M449.5,25.5,458.0,25.5,466.5,25.5,475.0,25.0,483.0,23.5,491.5,22.5,499.5,22.0,507.5,21.5,516.0,20.5" stroke="black" stroke-width="2" fill="none" />
<path d="M483.5,3.5,475.0,11.0,467.0,18.0,459.5,25.5,452.0,33.5,444.0,40.5,436.0,48.0" stroke="black" stroke-width="2" fill="none" />
<path d="M435.0,42.0,443.0,35.0,451.0,27.5,459.0,20.0,467.5,12.0,475.0,4.5" stroke="black" stroke-width="2" fill="none" />
<path d="M468.0,4.5,460.0,11.5,452.0,18.5,444.0,26.0,436.5,34.0" stroke="black" stroke-width="2" fill="none" />
<path d="M435.0,25.5,443.0,18.0,451.0,10.5,458.5,3.0" stroke="black" stroke-width="2" fill="none" />
<path d="M451.0,4.0,443.0,11.5,435.5,19.5,428.0,27.5" stroke="black" stroke-width="2" fill="none" />
<path d="M420.0,25.0,428.0,18.0,436.0,10.5,444.0,3.0" stroke="black" stroke-width="2" fill="none" />
<path d="M434.0,4.5,426.0,12.0,418.0,20.0,410.0,27.0" stroke="black" stroke-width="2" fill="none" />
<path d="M404.0,24.5,411.5,17.0,419.0,10.0,427.5,3.0" stroke="black" stroke-width="2" fill="none" />
<path d="M419.0,1.5,411.0,8.5,403.5,16.0,395.5,23.5,387.5,31.0" stroke="black" stroke-width="2" fill="none" />
<path d="M379.0,34.5,387.0,27.0,395.0,19.5,403.0,12.0,411.0,5.0" stroke="black" stroke-width="2" fill="none" />
<path d="M404.5,5.0,396.0,12.5,388.0,20.0,380.5,27.5,372.5,34.5" stroke="black" stroke-width="2" fill="none" />
<path d="M363.5,43.5,356.0,50.5,348.0,58.0" stroke="black" stroke-width="2" fill="none" />
<path d="M349.0,59.0,357.0,58.5" stroke="black" stroke-width="2" fill="none" />
<path d="M364.5,58.5,356.5,66.0,348.0,73.5" stroke="black" stroke-width="2" fill="none" />
<path d="M343.0,79.5,352.0,87.5,357.5,95.5,366.5,103.5,374.5,111.5,377.0,120.5,380.0,129.0,381.0,137.0,363.5,145.5,368.5,150.5,372.5,155.0,364.5,165.5,366.5,174.0,372.5,182.0,369.5,190.0,368.5,198.0,363.0,207.0,362.0,215.0,368.0,219.0,366.5,227.0,369.5,230.0,375.5,235.0,395.0,239.5,403.0,253.5,401.0,264.5,400.5,272.5,402.0,280.0,402.5,288.0,402.5,296.0,403.0,304.0,403.5,312.0,403.0,320.0,403.0,327.5,403.0,335.0" stroke="black" stroke-width="2" fill="none" />
<path d="M364.0,190.5,372.5,190.0,380.5,189.5,388.5,189.0,397.0,188.0,405.5,188.0,413.0,187.5,421.0,187.0,429.0,186.5,437.0,186.0,445.5,185.5,453.0,184.5,460.5,184.0,468.0,183.5,475.5,182.0" stroke="black" stroke-width="2" fill="none" />
<path d="M475.5,156.0,467.0,156.5,458.5,157.5" stroke="black" stroke-width="2" fill="none" />
<path d="M452.0,161.5,443.5,162.5,435.5,163.5,427.5,164.0,420.0,164.5,412.0,164.5,404.0,164.5,395.5,164.0,388.0,164.5,380.5,165.0,372.5,165.5" stroke="black" stroke-width="2" fill="none" />
<path d="M371.5,170.5,363.5,178.0" stroke="black" stroke-width="2" fill="none" />
<path d="M363.5,174.0,371.5,173.5,379.0,173.0,386.5,173.0,394.0,173.0,401.5,172.5,409.5,172.0,417.0,171.5,425.0,171.0,433.5,171.0,442.0,171.0,449.5,170.0,457.5,169.0,466.0,168.0,474.0,167.0" stroke="black" stroke-width="2" fill="none" />
<path d="M462.0,169.0,454.0,170.0,446.0,168.0" stroke="black" stroke-width="2" fill="none" />
<path d="M434.5,168.5,436.5,170.0,430.0,169.0,433.0,177.0,421.5,184.0,413.0,190.0,418.5,191.5,414.5,199.5,416.5,207.5,421.0,218.5,434.0,209.5,442.5,198.5,450.5,194.5,458.5,188.0" stroke="black" stroke-width="2" fill="none" />
<path d="M433.5,184.5,430.5,192.5,427.5,200.5,425.5,209.0,425.0,217.0,418.5,229.5,418.5,237.5,416.0,246.0" stroke="black" stroke-width="2" fill="none" />
<path d="M405.0,174.0,413.0,177.0,426.0,181.0,439.5,177.0,448.0,164.5,456.0,163.5,464.0,163.0" stroke="black" stroke-width="2" fill="none" />
<path d="M465.0,147.0,457.0,146.0" stroke="black" stroke-width="2" fill="none" />
<path d="M453.0,138.0,445.0,138.0,436.5,138.5,428.5,139.5,420.0,140.0,412.0,140.5,403.5,141.0" stroke="black" stroke-width="2" fill="none" />
<path d="M401.5,140.0,410.0,140.0,412.5,143.0,415.5,149.0,418.0,152.0,417.0,157.0,426.5,168.0,429.5,175.5,429.5,178.5,429.0,186.5,426.0,188.0,419.0,192.0,419.5,200.5,422.0,204.5,421.5,212.5,415.0,221.5,413.0,229.5,410.5,230.5,412.5,238.5,410.5,246.0,410.5,254.5,418.0,255.5,418.0,269.0,423.0,272.0,425.0,283.5,425.0,291.5,425.0,299.5,425.5,308.0,424.5,316.0,424.5,323.5,423.0,331.5,423.5,339.5" stroke="black" stroke-width="2" fill="none" />
<path d="M401.5,169.5,409.5,162.0" stroke="black" stroke-width="2" fill="none" />
<path d="M403.0,148.0,411.0,147.5,419.0,147.0,427.5,147.0,435.5,146.5,443.5,146.5" stroke="black" stroke-width="2" fill="none" />
<path d="M447.5,145.5,444.5,153.5,439.5,161.5,443.5,166.5,442.5,174.0,440.0,182.0,438.0,189.5,435.0,197.5,431.0,211.5,429.0,219.5,427.0,227.5,425.0,236.0,425.0,241.0,420.0,249.5,422.5,253.5,431.5,251.0,438.0,251.0,443.0,252.0" stroke="black" stroke-width="2" fill="none" />
<path d="M467.0,239.0,459.0,244.0,451.0,247.0,443.5,248.0,435.0,247.5,426.5,257.5,417.5,264.5,409.5,261.5,408.0,258.0,399.5,254.5,391.5,250.5,392.5,239.0,391.5,231.0,385.5,228.0,387.5,220.5,387.0,213.0,386.0,205.5,393.0,201.0,390.0,193.0,390.0,184.5,387.0,176.5,386.5,168.5,390.5,170.0" stroke="black" stroke-width="2" fill="none" />
<path d="M391.5,158.5,389.0,167.5,384.5,171.5,390.5,164.5,391.5,162.0,403.5,167.0,405.5,169.5,413.5,168.0,419.5,162.5,427.5,171.0,434.5,166.0" stroke="black" stroke-width="2" fill="none" />
<path d="M443.0,153.5,435.0,154.5,427.5,155.0,420.0,156.0,412.0,157.0,403.5,157.0,395.5,158.0,388.0,159.0,380.0,159.5" stroke="black" stroke-width="2" fill="none" />
<path d="M364.0,153.5,372.0,157.5,373.5,158.5,381.5,157.5,389.0,159.0,397.0,160.5,405.0,161.5,413.0,158.5,421.0,160.0" stroke="black" stroke-width="2" fill="none" />
<path d="M428.5,148.0,426.5,155.5,437.0,163.5,443.0,168.0,449.5,159.5,457.5,159.5,469.0,161.5,477.0,155.5" stroke="black" stroke-width="2" fill="none" />
<path d="M479.5,150.0,477.5,158.0,469.5,168.5,470.0,171.0,468.0,176.0,463.5,178.0,465.0,176.0,474.5,166.0" stroke="black" stroke-width="2" fill="none" />
<path d="M475.5,147.5,483.5,147.5" stroke="black" stroke-width="2" fill="none" />
<path d="M476.5,140.0,484.0,139.5,492.0,139.5,500.0,139.0,508.0,138.5,515.5,138.0" stroke="black" stroke-width="2" fill="none" />
<path d="M516.0,102.5,508.5,103.0,500.5,103.0,493.0,104.0,485.5,104.5,478.5,105.0" stroke="black" stroke-width="2" fill="none" />
<path d="M468.0,96.0,460.0,96.5" stroke="black" stroke-width="2" fill="none" />
<path d="M461.0,90.0,469.0,89.5" stroke="black" stroke-width="2" fill="none" />
<path d="M468.0,93.5,467.0,97.0,470.5,104.5" stroke="black" stroke-width="2" fill="none" />
<path d="M467.0,101.5,459.0,102.0,451.0,102.0,443.0,102.5,435.0,102.5,427.5,103.0,420.0,103.0,412.0,103.0,404.0,103.0" stroke="black" stroke-width="2" fill="none" />
<path d="M404.5,107.0,405.5,114.5,405.0,122.5" stroke="black" stroke-width="2" fill="none" />
<path d="M411.0,122.5,419.0,122.0,426.5,121.0,435.0,120.5,443.0,119.0,451.5,118.5,459.5,118.0,467.5,117.5,475.5,117.0,483.5,117.0,491.0,116.5,499.5,116.5,507.5,115.5,515.5,114.5" stroke="black" stroke-width="2" fill="none" />
<path d="M514.5,78.0,507.0,79.0,499.5,80.0,491.5,81.0,483.5,82.0" stroke="black" stroke-width="2" fill="none" />
<path d="M476.5,78.0,484.0,77.5,491.5,76.5,499.0,76.5,507.0,76.0,514.5,75.5" stroke="black" stroke-width="2" fill="none" />
<path d="M483.5,67.5,475.0,75.5" stroke="black" stroke-width="2" fill="none" />
<path d="M470.0,77.0,462.0,84.5,453.5,91.5,445.5,98.5,437.5,105.5,429.0,113.0,421.5,119.5,413.5,127.0,406.0,134.0" stroke="black" stroke-width="2" fill="none" />
<path d="M409.0,137.5,417.5,140.5,425.5,137.5,433.5,137.5,442.0,131.5" stroke="black" stroke-width="2" fill="none" />
<path d="M439.0,131.0,440.0,143.0,437.0,141.0,444.5,142.0,452.0,142.5,457.0,145.5,464.5,144.0,472.0,133.5,481.5,139.5,489.5,139.5,497.5,139.5,505.5,139.5" stroke="black" stroke-width="2" fill="none" />
<path d="M515.0,124.0,507.0,124.5,499.0,125.0,491.5,126.0,484.0,127.0,476.5,128.0,468.5,128.5,459.5,128.5,451.5,129.5,443.0,130.5,435.0,131.0" stroke="black" stroke-width="2" fill="none" />
<path d="M427.5,123.0,427.5,131.0,427.0,123.0" stroke="black" stroke-width="2" fill="none" />
<path d="M420.0,130.0,428.0,122.5,436.0,115.0,444.0,107.0,451.5,99.0,460.0,91.5,467.5,84.0" stroke="black" stroke-width="2" fill="none" />
<path d="M465.5,80.5,473.5,83.0" stroke="black" stroke-width="2" fill="none" />
<path d="M473.5,92.0,470.5,97.0,473.0,105.0" stroke="black" stroke-width="2" fill="none" />
<path d="M451.5,83.0,459.5,75.5" stroke="black" stroke-width="2" fill="none" />
<path d="M460.5,71.0,468.0,70.0,475.5,69.0,483.5,68.5,491.5,68.5,499.5,68.0,507.5,67.0,515.0,65.5" stroke="black" stroke-width="2" fill="none" />
<path d="M514.5,32.0,507.0,33.0,499.0,33.0,491.5,33.5,483.5,33.5,476.0,34.0" stroke="black" stroke-width="2" fill="none" />
<path d="M457.0,54.0,465.0,53.5,474.0,53.0,482.5,52.0,491.0,51.5,499.5,50.5,507.5,49.5,516.5,49.0" stroke="black" stroke-width="2" fill="none" />
<path d="M515.5,58.5,507.5,59.0,499.5,60.0,492.0,60.5,484.0,60.5,476.0,60.5,467.5,61.0" stroke="black" stroke-width="2" fill="none" />
<path d="M451.0,76.5,443.0,83.5,435.0,90.5,427.5,98.0,420.0,105.5,412.0,114.0,404.0,121.5,395.5,128.5" stroke="black" stroke-width="2" fill="none" />
<path d="M394.5,129.5,402.5,128.5" stroke="black" stroke-width="2" fill="none" />
<path d="M403.0,129.0,411.0,122.0,419.0,114.5,426.5,107.0,434.5,99.5,443.0,92.0" stroke="black" stroke-width="2" fill="none" />
<path d="M442.5,92.0,450.5,92.5" stroke="black" stroke-width="2" fill="none" />
<path d="M443.5,90.0,436.0,90.5" stroke="black" stroke-width="2" fill="none" />
<path d="M441.5,91.0,450.0,90.5" stroke="black" stroke-width="2" fill="none" />
<path d="M443.0,96.0,434.5,96.5,426.5,97.0" stroke="black" stroke-width="2" fill="none" />
<path d="M417.0,91.0,409.0,98.5,401.5,106.0,393.5,114.0,385.0,121.5" stroke="black" stroke-width="2" fill="none" />
<path d="M388.0,122.0,395.5,121.5,403.5,121.0" stroke="black" stroke-width="2" fill="none" />
<path d="M412.0,114.0,420.5,114.0,428.0,113.5,436.0,113.0,444.0,113.0,452.0,112.0,460.0,111.0,468.0,110.5,476.5,110.0,484.5,110.0,492.0,110.0,500.0,109.0,508.0,108.0,516.0,107.0" stroke="black" stroke-width="2" fill="none" />
<path d="M515.5,37.5,507.5,38.0,499.5,38.5,491.0,39.0,482.5,39.5,475.0,40.5,467.0,41.5,459.5,42.0,451.0,43.0,443.0,43.0,435.0,43.0,427.5,43.5,419.5,44.0" stroke="black" stroke-width="2" fill="none" />
<path d="M420.0,38.0,427.5,37.5,435.5,37.0,443.5,36.5,452.0,36.0,460.0,35.5,467.5,34.5,475.5,33.5,483.5,33.0,491.5,32.5,500.0,32.5,507.5,31.5,515.5,30.5" stroke="black" stroke-width="2" fill="none" />
<path d="M451.0,50.0,444.0,51.5,436.5,52.0,429.0,52.0,421.0,52.5" stroke="black" stroke-width="2" fill="none" />
<path d="M419.0,74.5,411.5,81.5,403.0,89.0,395.0,96.5,387.5,105.0,379.0,113.0" stroke="black" stroke-width="2" fill="none" />
<path d="M378.5,116.0,386.5,115.0,395.0,114.5,403.0,113.5" stroke="black" stroke-width="2" fill="none" />
<path d="M395.5,103.0,388.0,104.0,380.5,105.0,373.0,106.0" stroke="black" stroke-width="2" fill="none" />
<path d="M371.0,113.5,379.0,106.0,387.0,98.5,394.5,91.0,401.5,83.5,409.5,76.0" stroke="black" stroke-width="2" fill="none" />
<path d="M404.5,76.0,396.5,83.5,389.0,91.0,381.5,98.5,374.0,106.5" stroke="black" stroke-width="2" fill="none" />
<path d="M362.0,106.5,370.5,98.5,379.0,91.5,387.5,83.5,395.5,76.0" stroke="black" stroke-width="2" fill="none" />
<path d="M397.0,80.5,389.0,81.0" stroke="black" stroke-width="2" fill="none" />
<path d="M384.0,78.0,392.0,77.5,400.5,76.5,408.5,76.5,416.5,75.0,425.0,75.0,435.0,72.5,443.0,76.5,451.5,75.5,459.5,76.5,467.5,76.0,475.5,78.5" stroke="black" stroke-width="2" fill="none" />
<path d="M467.0,66.5,458.5,67.5,451.0,67.5,443.0,68.5,435.0,69.5,427.5,70.0,420.0,71.0,412.0,72.0,403.5,72.0,395.5,73.0,388.0,74.0,380.0,74.5,372.0,75.0,364.5,75.0,357.0,75.5,348.5,76.0,340.5,76.0,331.5,76.5,323.0,77.0,315.0,77.5,307.0,77.5,299.5,78.0" stroke="black" stroke-width="2" fill="none" />
<path d="M294.0,87.0,296.5,90.0,302.5,95.0,304.5,103.0" stroke="black" stroke-width="2" fill="none" />
<path d="M299.5,94.0,291.5,101.5" stroke="black" stroke-width="2" fill="none" />
<path d="M291.5,101.5,299.0,101.0,307.0,100.0" stroke="black" stroke-width="2" fill="none" />
<path d="M314.5,93.0,322.5,85.5" stroke="black" stroke-width="2" fill="none" />
<path d="M319.5,86.0,311.5,87.0" stroke="black" stroke-width="2" fill="none" />
<path d="M309.5,70.5,317.5,70.0,325.0,69.0,332.5,68.5,340.5,68.5,348.0,67.5,356.0,66.5,364.5,66.0,372.5,65.0,381.0,64.5,389.0,64.0,397.0,63.5,404.5,63.5,412.5,63.0,420.5,63.0,428.5,63.0,436.0,62.5,443.5,62.0" stroke="black" stroke-width="2" fill="none" />
<path d="M434.5,76.0,426.0,83.5" stroke="black" stroke-width="2" fill="none" />
<path d="M427.0,76.0,419.0,83.0,411.5,90.0,403.5,97.0,396.0,105.0,387.5,112.0,380.0,119.5" stroke="black" stroke-width="2" fill="none" />
<path d="M380.0,118.5,388.0,117.5,396.0,117.0,404.0,116.0,412.0,115.0,420.5,114.5,428.5,114.0,436.5,114.0,444.5,114.0,452.5,114.0,460.5,114.0,468.0,113.0,475.5,112.0,483.5,111.5,491.5,111.5,499.5,111.0,507.5,110.0,515.0,108.5" stroke="black" stroke-width="2" fill="none" />
<path d="M514.5,125.5,506.5,126.5,498.5,127.0,491.0,127.0,483.5,127.0,476.0,127.0,468.0,127.0,460.0,127.5,452.0,128.0,444.0,128.5,436.0,129.5,428.0,130.0,420.5,130.5,413.0,131.0,404.5,131.5,396.5,132.0,388.5,133.0,380.5,133.5" stroke="black" stroke-width="2" fill="none" />
<path d="M383.5,134.5,391.5,130.5,399.0,145.5,403.5,153.0,398.0,164.0,394.0,171.5,391.0,179.5,397.5,177.5,406.0,178.5,414.0,180.0,419.0,182.0,426.0,178.5,425.0,169.5,421.0,178.0,414.0,178.0" stroke="black" stroke-width="2" fill="none" />
<path d="M421.0,143.5,424.5,151.0,415.5,159.0,413.5,153.5,421.0,154.5,433.0,159.5,434.0,162.0,441.5,160.0,450.5,150.5,458.0,149.5,470.5,155.5" stroke="black" stroke-width="2" fill="none" />
<path d="M515.0,117.5,507.5,118.5,499.5,119.5,492.5,119.5,485.0,119.5,477.0,120.0,469.0,120.5,461.0,121.0,453.0,121.5,445.0,121.5,437.0,121.5,429.0,121.5,421.0,121.5,413.5,121.5,405.5,122.0,397.5,122.5,390.0,123.0,382.0,123.5" stroke="black" stroke-width="2" fill="none" />
<path d="M386.5,129.0,394.5,121.5,403.0,114.0,411.5,106.5,420.0,99.0,428.5,91.5,437.0,84.0" stroke="black" stroke-width="2" fill="none" />
<path d="M443.5,83.0,451.5,81.0" stroke="black" stroke-width="2" fill="none" />
<path d="M418.5,95.0,411.0,95.0,402.5,95.0" stroke="black" stroke-width="2" fill="none" />
<path d="M403.5,89.5,395.5,91.0" stroke="black" stroke-width="2" fill="none" />
<path d="M402.0,88.5,410.5,91.0,424.5,90.0,425.5,93.5" stroke="black" stroke-width="2" fill="none" />
<path d="M397.0,99.5,399.5,107.5,400.0,115.0,401.0,123.0" stroke="black" stroke-width="2" fill="none" />
<path d="M387.5,128.5,385.5,136.5,368.0,146.0,362.0,156.0,361.0,164.0,362.0,171.5,361.0,179.5,361.0,187.5,361.0,195.5,359.5,203.5,358.5,211.5,358.5,220.0,362.0,228.0,370.0,236.0,386.5,244.0,394.0,254.0,402.5,250.5,412.5,253.5,418.5,257.5,423.0,246.5,431.0,233.5,438.5,233.5,439.5,237.5,444.5,235.0,448.5,237.5" stroke="black" stroke-width="2" fill="none" />
<path d="M377.0,151.5,369.0,147.0,361.0,154.5" stroke="black" stroke-width="2" fill="none" />
<path d="M360.0,148.5,368.0,144.5,376.0,141.0,384.0,141.0,392.0,138.5,400.5,137.5,409.0,133.0,417.0,130.5,419.5,136.5,429.5,139.0,440.5,138.0,448.5,138.5" stroke="black" stroke-width="2" fill="none" />
<path d="M387.0,75.5,379.0,83.0,371.0,91.0,363.0,99.0" stroke="black" stroke-width="2" fill="none" />
<path d="M364.0,99.0,371.5,99.0,380.0,98.5,387.5,98.0" stroke="black" stroke-width="2" fill="none" />
<path d="M380.0,87.0,372.0,87.0,363.5,87.0,355.0,87.5" stroke="black" stroke-width="2" fill="none" />
<path d="M354.5,89.5,362.5,82.5,371.0,76.0,379.0,69.0" stroke="black" stroke-width="2" fill="none" />
<path d="M374.0,66.5,365.5,74.5,357.0,82.0" stroke="black" stroke-width="2" fill="none" />
<path d="M355.0,82.0,363.5,81.0,371.5,80.5,379.5,80.5" stroke="black" stroke-width="2" fill="none" />
<path d="M377.0,84.0,378.0,91.5,383.0,87.5,391.0,91.5,393.5,95.0,400.5,100.0,405.5,107.5" stroke="black" stroke-width="2" fill="none" />
<path d="M392.0,89.5,384.0,86.5,376.0,85.0" stroke="black" stroke-width="2" fill="none" />
<path d="M387.0,67.5,378.5,75.0,370.0,82.5,362.0,89.5,353.5,97.0" stroke="black" stroke-width="2" fill="none" />
<path d="M354.0,101.5,362.5,101.0,371.0,101.0,379.5,100.5,387.5,100.0,396.0,100.0,404.0,99.0,412.0,98.5,420.5,97.0,428.5,96.0,437.0,95.5,444.5,95.0,452.5,94.5,460.5,94.5,469.0,94.5,477.0,94.5,484.5,93.5,491.5,92.5,499.5,92.0,507.5,92.5,515.5,92.0" stroke="black" stroke-width="2" fill="none" />
<path d="M515.5,10.5,507.0,12.0,499.0,12.5,491.5,12.5,483.5,13.0,475.5,13.0,467.5,13.5,459.5,14.0,451.5,14.5,443.0,14.5,435.0,15.0,426.5,15.5,418.5,15.5,410.0,15.0,402.0,15.5" stroke="black" stroke-width="2" fill="none" />
<path d="M395.0,1.0,387.0,9.0,379.0,17.0,371.0,25.0,363.0,33.0,354.5,41.5,346.5,49.0,338.5,56.0" stroke="black" stroke-width="2" fill="none" />
<path d="M342.0,52.0,349.5,51.0,357.0,50.0" stroke="black" stroke-width="2" fill="none" />
<path d="M366.0,49.0,357.5,57.0,349.5,64.5" stroke="black" stroke-width="2" fill="none" />
<path d="M342.5,61.5,340.0,53.5,339.0,49.5" stroke="black" stroke-width="2" fill="none" />
<path d="M340.0,42.0,347.5,41.5,355.0,41.0" stroke="black" stroke-width="2" fill="none" />
<path d="M348.0,34.0,356.0,33.0,364.5,32.0" stroke="black" stroke-width="2" fill="none" />
<path d="M364.0,19.0,372.0,18.5,380.0,18.5,388.0,17.5,396.0,17.0" stroke="black" stroke-width="2" fill="none" />
<path d="M387.5,4.5,380.0,12.0,372.0,19.5,363.5,26.5,355.5,34.0,347.5,41.5,339.5,48.5,331.5,56.0" stroke="black" stroke-width="2" fill="none" />
<path d="M325.0,56.5,332.0,49.0,339.5,41.5,347.5,34.0,356.0,26.0,364.0,18.0,371.5,11.0,379.5,3.5" stroke="black" stroke-width="2" fill="none" />
<path d="M373.5,3.0,365.5,11.0,357.5,18.5,349.0,25.5,340.5,32.5,331.5,39.5,323.5,47.5,315.5,55.5,307.0,63.5" stroke="black" stroke-width="2" fill="none" />
<path d="M301.5,62.0,305.5,70.0,311.0,78.0,310.0,86.5,310.0,93.5,316.0,101.5" stroke="black" stroke-width="2" fill="none" />
<path d="M323.0,124.5,315.0,125.0,307.0,125.5" stroke="black" stroke-width="2" fill="none" />
<path d="M306.5,131.5,314.5,131.0" stroke="black" stroke-width="2" fill="none" />
<path d="M298.0,131.5,290.5,139.5,282.5,147.0" stroke="black" stroke-width="2" fill="none" />
<path d="M284.0,143.0,292.0,143.0" stroke="black" stroke-width="2" fill="none" />
<path d="M299.0,145.5,291.0,153.0" stroke="black" stroke-width="2" fill="none" />
<path d="M287.5,151.5,285.5,151.0,284.5,159.0,282.0,167.5" stroke="black" stroke-width="2" fill="none" />
<path d="M283.0,174.0,291.0,173.0" stroke="black" stroke-width="2" fill="none" />
<path d="M283.0,180.0,275.0,188.0,267.0,195.5,259.0,203.5" stroke="black" stroke-width="2" fill="none" />
<path d="M257.5,197.5,249.5,205.0" stroke="black" stroke-width="2" fill="none" />
<path d="M251.5,206.5,259.5,206.0,268.0,205.5,276.0,204.5" stroke="black" stroke-width="2" fill="none" />
<path d="M274.0,196.5,266.5,203.5" stroke="black" stroke-width="2" fill="none" />
<path d="M265.0,214.0,273.0,204.5,277.0,199.0,271.0,206.5,263.5,214.5,259.5,225.0,258.5,233.0,258.5,239.5,258.5,248.0,259.5,256.0,259.0,264.0,261.0,268.0,261.0,276.0,260.5,284.0,261.0,292.5,260.0,300.5" stroke="black" stroke-width="2" fill="none" />
<path d="M256.5,266.0,254.5,261.0,253.5,253.5,254.5,245.5,250.5,240.5" stroke="black" stroke-width="2" fill="none" />
<path d="M241.5,228.0,233.5,235.5" stroke="black" stroke-width="2" fill="none" />
<path d="M227.5,235.0,235.5,227.0,244.0,219.5" stroke="black" stroke-width="2" fill="none" />
<path d="M245.0,221.0,237.5,221.5,229.5,222.0,221.5,221.5,213.5,221.5,205.0,222.0,196.5,223.0,188.5,223.0,180.5,223.5,172.5,224.0,165.0,225.0,156.5,226.0,149.0,227.0,140.5,227.5,132.0,227.5,124.0,227.5,116.0,227.5,108.0,228.0,100.0,228.0,92.5,228.0,85.0,228.5,76.5,228.5" stroke="black" stroke-width="2" fill="none" />
<path d="M75.5,227.0,83.5,219.5,91.5,212.0,100.0,205.0" stroke="black" stroke-width="2" fill="none" />
<path d="M92.5,203.5,85.0,211.0,76.5,218.5,68.0,226.0" stroke="black" stroke-width="2" fill="none" />
<path d="M69.5,223.5,77.5,222.5,85.5,222.0,93.5,221.0,101.0,220.0,108.5,219.5,116.5,218.0,124.0,217.5,132.0,216.5,139.5,215.5,148.0,215.0,156.0,215.0,164.0,214.5,172.0,214.5,181.0,214.5,189.5,214.5,197.5,214.5,205.0,214.0,213.0,214.0,221.0,213.5,229.0,213.0,237.0,212.5,244.5,212.0" stroke="black" stroke-width="2" fill="none" />
<path d="M244.5,211.0,236.5,218.5,228.0,225.5,220.0,233.5,211.5,241.5" stroke="black" stroke-width="2" fill="none" />
<path d="M204.0,240.0,212.0,233.0,219.5,225.5,227.5,218.0,235.5,210.5,243.5,203.0,252.0,196.0" stroke="black" stroke-width="2" fill="none" />
<path d="M250.0,195.0,258.5,196.0,266.5,198.0,275.0,190.0,283.0,186.0,291.0,185.5" stroke="black" stroke-width="2" fill="none" />
<path d="M293.0,177.5,285.0,178.5,277.0,179.5,269.0,180.0,260.5,181.0,251.5,181.0,243.0,181.5,235.0,181.5,227.0,182.0" stroke="black" stroke-width="2" fill="none" />
<path d="M230.5,181.0,233.5,189.0" stroke="black" stroke-width="2" fill="none" />
<path d="M244.0,188.5,236.0,196.0,227.5,203.5" stroke="black" stroke-width="2" fill="none" />
<path d="M225.0,201.5,233.0,207.0,241.0,210.0,240.5,223.0,249.0,222.0,259.5,228.0" stroke="black" stroke-width="2" fill="none" />
<path d="M244.0,228.0,236.0,228.5,228.0,229.0,219.5,229.5,212.0,230.5,204.5,231.0,196.5,232.0,188.5,232.0,180.5,232.5,172.0,232.5,164.0,232.5,156.5,232.5,148.0,233.5,140.0,233.5,131.5,234.0,123.0,235.0,115.0,235.5,107.0,236.0,99.0,236.5,91.0,237.0,83.5,238.0,76.0,238.5" stroke="black" stroke-width="2" fill="none" />
<path d="M75.5,232.5,84.0,224.5,92.0,216.5,100.5,208.5,109.0,201.0,117.0,193.5" stroke="black" stroke-width="2" fill="none" />
<path d="M111.0,193.5,119.0,197.0,127.0,205.0" stroke="black" stroke-width="2" fill="none" />
<path d="M122.0,202.0,114.0,209.5,106.0,217.0,98.0,224.5,90.0,231.5,82.5,239.0" stroke="black" stroke-width="2" fill="none" />
<path d="M87.0,243.5,95.0,253.5" stroke="black" stroke-width="2" fill="none" />
<path d="M91.0,251.5,83.0,258.5,75.5,265.5,67.5,273.0,59.0,280.5" stroke="black" stroke-width="2" fill="none" />
<path d="M51.5,282.0,60.5,273.5,69.0,266.0" stroke="black" stroke-width="2" fill="none" />
<path d="M75.5,260.0,83.0,252.5" stroke="black" stroke-width="2" fill="none" />
<path d="M75.5,250.0,67.5,257.5" stroke="black" stroke-width="2" fill="none" />
<path d="M67.0,251.0,59.0,259.0,51.0,267.5,43.5,275.0,36.0,282.5,28.5,290.0" stroke="black" stroke-width="2" fill="none" />
<path d="M36.0,290.5,43.5,283.0,51.0,275.0,58.5,267.0" stroke="black" stroke-width="2" fill="none" />
<path d="M58.5,252.0,50.5,259.5,42.5,266.5,35.0,274.0,27.5,281.0,19.5,288.5" stroke="black" stroke-width="2" fill="none" />
<path d="M11.0,289.5,18.5,281.5,26.5,273.5,34.5,265.5,42.5,257.5" stroke="black" stroke-width="2" fill="none" />
<path d="M37.0,258.0,28.5,265.5,20.5,273.5,13.0,282.0,5.0,289.5" stroke="black" stroke-width="2" fill="none" />
<path d="M3.0,293.0,10.5,292.5,18.5,292.5,27.0,292.5,35.0,292.5" stroke="black" stroke-width="2" fill="none" />
<path d="M17.0,290.0,9.0,290.5" stroke="black" stroke-width="2" fill="none" />
<path d="M2.0,284.5,10.5,284.5,18.5,284.5,27.0,284.0,35.5,284.0,44.0,283.5,52.5,284.0,61.0,284.0" stroke="black" stroke-width="2" fill="none" />
<path d="M82.0,271.5,90.5,263.5,98.5,256.5,106.5,249.0,114.0,241.0,121.5,233.5,129.5,226.0,137.5,218.0,145.5,210.0,153.5,202.0,161.0,194.5" stroke="black" stroke-width="2" fill="none" />
<path d="M156.0,195.5,148.0,203.0,140.0,210.5,131.5,218.0,123.5,226.0,115.0,233.5,107.0,241.0,99.0,248.5" stroke="black" stroke-width="2" fill="none" />
<path d="M101.5,243.5,93.5,243.5" stroke="black" stroke-width="2" fill="none" />
<path d="M99.0,240.5,107.0,232.5,114.5,225.5,122.5,218.0" stroke="black" stroke-width="2" fill="none" />
<path d="M121.0,210.5,113.0,218.0,104.5,225.5,97.0,232.5,89.5,240.0" stroke="black" stroke-width="2" fill="none" />
<path d="M85.0,230.5,92.5,223.5,101.0,216.5,109.0,209.5,117.0,202.5" stroke="black" stroke-width="2" fill="none" />
<path d="M116.0,201.5,108.5,201.5" stroke="black" stroke-width="2" fill="none" />
<path d="M115.0,199.5,115.0,207.5,123.5,205.0,133.5,213.0,146.5,219.5" stroke="black" stroke-width="2" fill="none" />
<path d="M148.5,217.5,140.5,218.5" stroke="black" stroke-width="2" fill="none" />
<path d="M141.5,210.0,149.5,209.5,156.5,209.0,164.0,208.5,171.5,207.5" stroke="black" stroke-width="2" fill="none" />
<path d="M171.5,202.0,163.5,209.5,156.0,217.0,147.5,225.5,138.5,233.5,130.5,241.0,122.5,249.0,115.0,256.5" stroke="black" stroke-width="2" fill="none" />
<path d="M114.5,256.5,106.5,257.0" stroke="black" stroke-width="2" fill="none" />
<path d="M101.0,255.0,94.0,247.0,80.0,247.0,71.5,249.5,63.0,251.5,55.0,253.5,47.0,255.5,38.5,256.5,30.0,258.5,21.5,260.0,14.0,262.0,5.5,263.0" stroke="black" stroke-width="2" fill="none" />
<path d="M3.0,260.5,11.5,260.0,19.5,260.0,28.0,260.0,36.5,259.5,44.5,258.5,52.5,258.5,60.5,258.0,68.0,257.5,76.0,257.5,84.0,257.5,91.5,257.0,99.0,256.0,107.0,255.5,115.0,255.0,123.0,254.5,131.0,254.0,139.5,253.0,148.0,252.5,156.0,252.5" stroke="black" stroke-width="2" fill="none" />
<path d="M156.0,245.5,148.0,246.0,139.0,247.0,130.5,247.0,122.0,248.0,113.0,248.5,105.0,249.0,97.0,249.5,89.0,250.0,81.5,251.0,74.5,251.5,67.0,252.0,59.5,252.0,52.0,252.0,44.5,252.5,37.0,253.0,29.5,253.0" stroke="black" stroke-width="2" fill="none" />
<path d="M28.0,258.0,20.0,265.5,11.5,273.0,3.5,280.5" stroke="black" stroke-width="2" fill="none" />
<path d="M3.0,277.5,11.0,277.0,18.5,276.0,26.5,275.5,35.0,275.5,43.0,275.5,51.0,275.5,59.5,275.5,67.5,275.5,76.5,275.0,85.0,274.5,92.5,274.0" stroke="black" stroke-width="2" fill="none" />
<path d="M99.5,264.5,107.5,256.5,116.0,249.0,124.5,242.0" stroke="black" stroke-width="2" fill="none" />
<path d="M127.0,247.0,118.5,239.0" stroke="black" stroke-width="2" fill="none" />
<path d="M114.5,240.5,106.5,240.5" stroke="black" stroke-width="2" fill="none" />
<path d="M106.5,231.5,114.5,230.5" stroke="black" stroke-width="2" fill="none" />
<path d="M118.5,234.0,121.5,233.0,125.0,235.0,130.0,243.0" stroke="black" stroke-width="2" fill="none" />
<path d="M132.0,241.0,140.5,241.0,148.5,240.0" stroke="black" stroke-width="2" fill="none" />
<path d="M148.5,244.0,146.0,252.0,147.0,260.5,152.0,262.5,160.0,253.5,168.0,244.0,176.5,237.5" stroke="black" stroke-width="2" fill="none" />
<path d="M180.5,240.0,188.5,233.0,196.5,226.5,204.0,219.0" stroke="black" stroke-width="2" fill="none" />
<path d="M204.0,226.0,212.5,225.5,220.5,225.5" stroke="black" stroke-width="2" fill="none" />
<path d="M229.5,227.5,237.0,227.0" stroke="black" stroke-width="2" fill="none" />
<path d="M236.5,218.0,228.5,218.5" stroke="black" stroke-width="2" fill="none" />
<path d="M228.5,211.0,220.5,218.5,212.5,226.5,204.0,234.0,196.0,242.0" stroke="black" stroke-width="2" fill="none" />
<path d="M187.0,242.0,195.5,234.5,203.5,227.0,211.5,219.0,219.5,211.0" stroke="black" stroke-width="2" fill="none" />
<path d="M219.0,206.5,226.5,206.5,235.0,206.0,243.5,205.0" stroke="black" stroke-width="2" fill="none" />
<path d="M241.5,207.0,249.5,207.0,259.0,204.5" stroke="black" stroke-width="2" fill="none" />
<path d="M250.5,188.0,242.5,195.5,235.0,202.5" stroke="black" stroke-width="2" fill="none" />
<path d="M236.0,202.0,244.5,201.5" stroke="black" stroke-width="2" fill="none" />
<path d="M252.5,199.5,244.5,200.5,237.0,201.5,229.0,202.5,221.5,203.0,213.0,203.5,204.5,204.0,196.0,204.5,187.5,205.5,179.0,206.5,171.0,207.0,163.5,208.0,155.0,208.5,146.5,209.5,138.5,210.0,131.0,210.5,123.0,211.0,115.0,211.5,107.5,212.0,100.0,212.0,92.0,212.5,84.0,213.5,76.5,213.5,68.5,213.5,60.0,213.5" stroke="black" stroke-width="2" fill="none" />
<path d="M69.0,217.5,76.5,210.0" stroke="black" stroke-width="2" fill="none" />
<path d="M75.5,217.5,83.5,217.0,91.0,217.0,99.0,217.0" stroke="black" stroke-width="2" fill="none" />
<path d="M101.0,216.5,102.0,224.0" stroke="black" stroke-width="2" fill="none" />
<path d="M106.5,225.0,115.0,224.5,123.5,224.0,132.0,223.0" stroke="black" stroke-width="2" fill="none" />
<path d="M131.0,232.0,139.0,224.5,147.0,217.0,154.5,210.0,162.5,203.0" stroke="black" stroke-width="2" fill="none" />
<path d="M155.0,189.5,147.0,197.0,139.5,204.5,131.5,211.5" stroke="black" stroke-width="2" fill="none" />
<path d="M141.0,201.0,148.5,200.5,156.0,200.5,163.5,200.5" stroke="black" stroke-width="2" fill="none" />
<path d="M178.5,190.0,187.0,189.5,195.5,188.5,203.5,188.0" stroke="black" stroke-width="2" fill="none" />
<path d="M195.5,186.5,188.0,194.0,180.0,202.0,172.5,209.5,165.0,217.5,157.5,225.0,148.5,233.0,140.0,241.5,131.5,250.0,123.5,257.5" stroke="black" stroke-width="2" fill="none" />
<path d="M121.0,258.5,122.0,266.5,130.5,274.0,138.5,275.0" stroke="black" stroke-width="2" fill="none" />
<path d="M141.0,275.5,149.0,268.0" stroke="black" stroke-width="2" fill="none" />
<path d="M139.0,276.5,131.5,277.5,123.0,278.0" stroke="black" stroke-width="2" fill="none" />
<path d="M125.0,276.5,133.0,269.0" stroke="black" stroke-width="2" fill="none" />
<path d="M133.0,261.0,124.5,269.0" stroke="black" stroke-width="2" fill="none" />
<path d="M127.0,269.5,127.0,262.0,137.5,257.0,137.5,250.0,128.5,251.0,121.5,243.0,119.0,235.0,119.0,221.0,125.0,211.5,122.0,208.0,123.0,203.0,116.0,197.0,118.0,194.0,123.0,186.0,135.0,186.0,137.0,179.0,141.0,177.0,141.5,163.0,142.5,155.0,141.0,149.5,133.0,151.5" stroke="black" stroke-width="2" fill="none" />
<path d="M137.5,156.5,129.5,163.5" stroke="black" stroke-width="2" fill="none" />
<path d="M124.5,164.0,133.0,156.0,141.0,148.0,149.0,140.5,157.0,132.5" stroke="black" stroke-width="2" fill="none" />
<path d="M160.5,129.0,163.5,136.5" stroke="black" stroke-width="2" fill="none" />
<path d="M161.5,139.0,154.0,146.5" stroke="black" stroke-width="2" fill="none" />
<path d="M148.5,147.5,156.0,139.5,164.0,131.5" stroke="black" stroke-width="2" fill="none" />
<path d="M164.0,137.5,156.0,137.5,148.5,137.5" stroke="black" stroke-width="2" fill="none" />
<path d="M139.5,141.5,131.0,149.0,123.0,156.0,115.0,163.5" stroke="black" stroke-width="2" fill="none" />
<path d="M114.0,171.0,106.5,178.5" stroke="black" stroke-width="2" fill="none" />
<path d="M107.5,184.5,116.0,177.5,124.0,170.0" stroke="black" stroke-width="2" fill="none" />
<path d="M123.0,177.0,131.0,176.0,129.0,177.0,124.0,179.5,123.0,189.0,127.0,184.0,129.0,190.0,142.0,193.5,149.5,187.0,157.5,191.5,165.5,198.5,173.5,198.5,177.5,209.5,162.5,217.0,164.5,217.0,172.5,215.0,180.5,206.0,177.5,214.5,164.0,219.5,172.0,217.5" stroke="black" stroke-width="2" fill="none" />
<path d="M178.5,218.0,186.5,217.0,194.5,216.5" stroke="black" stroke-width="2" fill="none" />
<path d="M196.5,218.5,188.0,225.5,180.0,233.5,171.5,241.5" stroke="black" stroke-width="2" fill="none" />
<path d="M163.5,240.5,171.5,233.0,179.5,226.0,188.0,219.0,196.0,212.0" stroke="black" stroke-width="2" fill="none" />
<path d="M196.5,210.0,189.0,211.0" stroke="black" stroke-width="2" fill="none" />
<path d="M189.0,203.5,197.0,203.0" stroke="black" stroke-width="2" fill="none" />
<path d="M197.0,203.5,188.5,211.0,179.5,218.5,171.5,226.5,163.0,233.5,154.5,241.0" stroke="black" stroke-width="2" fill="none" />
<path d="M154.5,240.0,162.5,239.5,171.0,240.0" stroke="black" stroke-width="2" fill="none" />
<path d="M170.5,251.5,178.5,251.5" stroke="black" stroke-width="2" fill="none" />
<path d="M178.5,247.5,171.0,255.5,162.0,265.0,156.0,268.0,155.0,269.5,162.0,261.5,167.0,260.5,174.5,252.5,182.5,244.5" stroke="black" stroke-width="2" fill="none" />
<path d="M178.0,242.5,169.5,251.5,174.5,238.0,180.5,230.0" stroke="black" stroke-width="2" fill="none" />
<path d="M179.0,228.5,172.0,236.5,164.5,244.5,159.0,253.0,153.0,261.0,144.0,269.0" stroke="black" stroke-width="2" fill="none" />
<path d="M155.5,260.0,147.5,260.5,139.5,261.5,131.5,262.0,123.5,263.0,115.5,264.0,107.5,264.5,99.5,265.5,91.5,266.5,83.5,267.0,75.5,267.5,67.5,267.0,59.0,267.5,50.0,268.0,42.0,268.5,34.0,268.5,26.0,268.5,18.5,268.5,10.5,269.5,3.0,270.0" stroke="black" stroke-width="2" fill="none" />
<path d="M2.5,276.5,9.5,268.5,17.5,260.5" stroke="black" stroke-width="2" fill="none" />
<path d="M6.0,253.0,14.0,252.0,22.5,250.0,30.5,248.0,38.5,246.0,47.0,245.0,55.0,243.0,63.5,241.5,71.5,239.5" stroke="black" stroke-width="2" fill="none" />
<path d="M69.0,247.0,77.0,247.0,85.0,246.0,93.5,245.5,101.5,245.0,109.5,244.0,117.0,243.0,124.0,242.0,131.5,241.5,139.0,241.5,147.0,241.0,155.5,240.5,163.0,239.5,171.5,238.5,179.5,237.0,187.0,236.5,195.0,236.5,203.0,237.0,211.5,237.0" stroke="black" stroke-width="2" fill="none" />
<path d="M187.5,224.0,178.5,224.5,170.0,225.0,162.0,225.0,153.5,226.0" stroke="black" stroke-width="2" fill="none" />
<path d="M155.5,217.5,163.0,217.0" stroke="black" stroke-width="2" fill="none" />
<path d="M150.0,214.0,148.0,222.0" stroke="black" stroke-width="2" fill="none" />
<path d="M144.0,221.5,148.0,213.5" stroke="black" stroke-width="2" fill="none" />
<path d="M138.0,234.0,146.0,234.0,154.5,233.5,163.0,233.5,171.0,233.5" stroke="black" stroke-width="2" fill="none" />
<path d="M147.5,244.5,154.0,243.5,154.5,251.5,148.5,259.5,150.5,256.5" stroke="black" stroke-width="2" fill="none" />
<path d="M138.5,248.0,147.0,240.0,155.5,232.0,163.5,224.0,171.5,216.5,179.5,209.0,188.0,201.5,196.0,194.0" stroke="black" stroke-width="2" fill="none" />
<path d="M189.5,189.0,198.0,181.5" stroke="black" stroke-width="2" fill="none" />
<path d="M205.0,175.0,213.0,174.5,220.5,174.0" stroke="black" stroke-width="2" fill="none" />
<path d="M225.5,173.5,234.0,173.0,242.5,172.0,251.0,172.0" stroke="black" stroke-width="2" fill="none" />
<path d="M249.5,170.0,241.5,177.0" stroke="black" stroke-width="2" fill="none" />
<path d="M242.0,172.0,249.5,165.0,257.5,157.5" stroke="black" stroke-width="2" fill="none" />
<path d="M252.0,162.0,243.5,162.0" stroke="black" stroke-width="2" fill="none" />
<path d="M242.5,162.5,250.0,156.0,258.5,148.5" stroke="black" stroke-width="2" fill="none" />
<path d="M260.0,148.0,251.0,148.5,243.0,148.5,235.0,148.5,227.0,149.0" stroke="black" stroke-width="2" fill="none" />
<path d="M225.0,150.0,219.0,158.0,220.0,157.5,225.0,156.0,237.0,143.0,244.0,143.0,250.0,138.0,258.5,138.0,267.0,138.0" stroke="black" stroke-width="2" fill="none" />
<path d="M260.0,140.0,252.0,147.5,243.5,155.0,235.0,162.0" stroke="black" stroke-width="2" fill="none" />
<path d="M226.5,161.5,234.0,154.5,241.0,147.5,248.5,140.0" stroke="black" stroke-width="2" fill="none" />
<path d="M249.5,142.5,258.0,140.5,266.0,140.5" stroke="black" stroke-width="2" fill="none" />
<path d="M274.0,141.5,282.0,141.0,289.5,140.0,297.5,140.0,305.5,139.5,313.5,139.5" stroke="black" stroke-width="2" fill="none" />
<path d="M306.0,146.5,297.5,154.0" stroke="black" stroke-width="2" fill="none" />
<path d="M299.5,154.0,307.5,153.5" stroke="black" stroke-width="2" fill="none" />
<path d="M306.5,153.0,298.5,160.5" stroke="black" stroke-width="2" fill="none" />
<path d="M295.5,161.0,294.5,169.5,299.5,177.5" stroke="black" stroke-width="2" fill="none" />
<path d="M283.5,154.5,291.5,147.0,299.5,139.0" stroke="black" stroke-width="2" fill="none" />
<path d="M299.5,132.0,292.0,133.0,284.0,133.5,276.5,134.0" stroke="black" stroke-width="2" fill="none" />
<path d="M278.5,132.0,277.5,140.0,278.5,151.5,287.5,152.0,295.5,150.5" stroke="black" stroke-width="2" fill="none" />
<path d="M290.5,132.5,283.0,140.0,275.5,148.0" stroke="black" stroke-width="2" fill="none" />
<path d="M274.5,149.0,282.5,149.0,291.0,148.5,299.5,148.0,307.0,148.0,315.0,147.5" stroke="black" stroke-width="2" fill="none" />
<path d="M308.5,164.5,300.0,164.5,292.0,164.5,284.5,164.5,276.5,164.0,269.0,164.5" stroke="black" stroke-width="2" fill="none" />
<path d="M273.0,166.5,265.5,158.5" stroke="black" stroke-width="2" fill="none" />
<path d="M268.5,158.5,272.5,166.5,268.5,173.5" stroke="black" stroke-width="2" fill="none" />
<path d="M284.5,185.0,276.5,186.0,268.0,187.0,259.5,187.5,251.5,188.0,243.5,189.0,235.0,190.0,227.0,190.5,219.0,191.5" stroke="black" stroke-width="2" fill="none" />
<path d="M219.5,198.0,227.5,197.5,235.5,196.5,243.5,196.0,251.5,195.0,259.5,195.0,268.0,194.0,276.0,194.0,284.0,193.5" stroke="black" stroke-width="2" fill="none" />
<path d="M295.0,206.0,295.5,205.0,295.0,213.5,299.0,221.5,302.0,224.5,303.0,232.5" stroke="black" stroke-width="2" fill="none" />
<path d="M261.0,188.5,253.0,190.0,245.5,190.0" stroke="black" stroke-width="2" fill="none" />
<path d="M244.0,215.5,251.5,217.0" stroke="black" stroke-width="2" fill="none" />
<path d="M202.5,193.5,195.5,193.5,188.0,194.5,180.5,195.0,173.5,195.5,165.5,196.0,157.0,196.0,148.5,196.5,140.5,197.0,132.5,197.5,124.5,197.5,116.5,198.5,109.0,199.0,101.5,200.0,93.5,201.0,85.5,201.5,77.5,202.0,69.0,201.5,60.5,202.0,52.5,203.0,44.0,203.5,36.0,204.0,27.5,204.0,19.5,204.5,12.0,205.5,3.5,206.0" stroke="black" stroke-width="2" fill="none" />
<path d="M2.5,212.0,10.5,211.5,19.0,211.5,27.0,211.0,34.5,210.5" stroke="black" stroke-width="2" fill="none" />
<path d="M26.0,211.5,19.0,219.0" stroke="black" stroke-width="2" fill="none" />
<path d="M27.0,219.0,19.0,226.0,11.0,234.0" stroke="black" stroke-width="2" fill="none" />
<path d="M12.5,238.5,4.5,239.5" stroke="black" stroke-width="2" fill="none" />
<path d="M2.0,236.5,6.0,232.0,8.0,229.0,16.0,228.0" stroke="black" stroke-width="2" fill="none" />
<path d="M27.0,227.0,19.5,227.5,12.0,228.0,4.0,229.0" stroke="black" stroke-width="2" fill="none" />
<path d="M2.5,225.5,10.5,222.5" stroke="black" stroke-width="2" fill="none" />
<path d="M3.0,221.0,11.0,220.0,18.0,220.0,25.5,220.0" stroke="black" stroke-width="2" fill="none" />
<path d="M19.5,211.0,27.0,204.0" stroke="black" stroke-width="2" fill="none" />
<path d="M20.0,203.0,28.0,196.0" stroke="black" stroke-width="2" fill="none" />
<path d="M14.5,202.5,25.0,200.5,26.0,208.5,28.0,216.5,27.0,224.5,21.0,232.0,11.5,240.0,3.5,251.5,5.0,259.5,3.0,268.0,4.0,276.0,5.0,284.0,3.0,292.0,3.0,298.5,3.0,307.0" stroke="black" stroke-width="2" fill="none" />
<path d="M2.0,311.0,10.0,310.0" stroke="black" stroke-width="2" fill="none" />
<path d="M12.0,320.0,4.0,321.0" stroke="black" stroke-width="2" fill="none" />
<path d="M4.0,328.5,12.0,327.5" stroke="black" stroke-width="2" fill="none" />
<path d="M19.0,333.5,11.5,334.0,4.0,334.0" stroke="black" stroke-width="2" fill="none" />
<path d="M1.5,301.0,10.0,301.0" stroke="black" stroke-width="2" fill="none" />
<path d="M7.0,300.0,7.0,308.0,6.5,316.5,6.5,324.0,6.0,332.0" stroke="black" stroke-width="2" fill="none" />
<path d="M75.0,275.5,83.0,268.5,90.5,261.5" stroke="black" stroke-width="2" fill="none" />
<path d="M114.5,262.0,122.5,267.0,131.5,256.0,137.5,256.5" stroke="black" stroke-width="2" fill="none" />
<path d="M131.0,259.5,139.0,263.5,142.0,257.5,143.0,265.5" stroke="black" stroke-width="2" fill="none" />
<path d="M131.0,249.5,122.0,250.0,114.0,250.5" stroke="black" stroke-width="2" fill="none" />
<path d="M120.0,255.5,134.0,261.5,132.0,269.5" stroke="black" stroke-width="2" fill="none" />
<path d="M143.0,280.5,135.0,281.5,126.5,284.0,118.5,276.0,117.5,276.5,110.0,268.5,114.5,260.5" stroke="black" stroke-width="2" fill="none" />
<path d="M120.0,257.0,121.5,264.5,130.0,266.5,134.0,279.5,136.0,290.0,137.0,298.0,141.0,306.0" stroke="black" stroke-width="2" fill="none" />
<path d="M140.5,311.0,149.0,310.0" stroke="black" stroke-width="2" fill="none" />
<path d="M149.5,318.0,141.5,318.5" stroke="black" stroke-width="2" fill="none" />
<path d="M146.0,320.0,147.0,312.0,144.0,308.5,141.0,297.5,147.5,287.0,145.0,276.0,150.0,269.0,156.0,261.0,163.5,253.0,166.5,245.0,175.5,243.5,182.5,236.0,185.5,228.0,189.5,220.5,192.0,212.5,193.0,205.0,194.0,197.5,193.0,190.0,190.0,181.5,186.5,173.5,188.5,165.0,185.0,155.5,181.0,152.5,173.0,150.0,165.0,149.0,157.5,148.0,149.5,148.0,141.5,154.0" stroke="black" stroke-width="2" fill="none" />
<path d="M147.0,155.0,139.5,156.0,131.5,157.0,123.5,157.5,116.0,158.5,108.0,159.5,100.0,160.0" stroke="black" stroke-width="2" fill="none" />
<path d="M99.0,167.0,107.0,166.0,115.0,165.5,122.5,164.5,130.0,163.5,138.5,162.5,146.0,161.5" stroke="black" stroke-width="2" fill="none" />
<path d="M140.5,163.5,132.5,171.5" stroke="black" stroke-width="2" fill="none" />
<path d="M125.5,180.5,133.5,179.5,147.0,173.5,155.0,173.5,162.5,172.5,170.5,170.5,179.5,169.0" stroke="black" stroke-width="2" fill="none" />
<path d="M181.5,168.0,181.5,175.5,176.5,177.5" stroke="black" stroke-width="2" fill="none" />
<path d="M181.0,176.0,188.5,175.5,195.5,174.5" stroke="black" stroke-width="2" fill="none" />
<path d="M196.0,181.0,187.5,182.0,179.0,182.5" stroke="black" stroke-width="2" fill="none" />
<path d="M185.5,184.0,193.5,183.5" stroke="black" stroke-width="2" fill="none" />
<path d="M196.0,192.0,187.5,192.5" stroke="black" stroke-width="2" fill="none" />
<path d="M181.0,171.0,189.0,163.0" stroke="black" stroke-width="2" fill="none" />
<path d="M192.0,165.5,192.0,173.5,193.0,187.5" stroke="black" stroke-width="2" fill="none" />
<path d="M202.5,190.0,194.5,190.5,187.5,191.0,179.5,191.5,171.5,192.5,163.0,193.0,155.5,193.0,147.5,193.5,139.5,194.5,131.5,195.0,123.5,196.0,115.5,197.0,107.5,197.5,99.5,198.5,91.5,199.5,83.5,200.0" stroke="black" stroke-width="2" fill="none" />
<path d="M84.5,199.0,79.5,207.5,77.5,199.5,80.5,194.5,72.5,194.5" stroke="black" stroke-width="2" fill="none" />
<path d="M76.5,192.5,68.5,193.0,60.0,193.5,51.5,194.0,43.0,194.5,35.0,195.0,28.0,196.0,20.5,196.5,13.0,197.5,5.0,198.0" stroke="black" stroke-width="2" fill="none" />
<path d="M3.5,193.0,11.5,185.5" stroke="black" stroke-width="2" fill="none" />
<path d="M12.0,179.5,3.5,186.5" stroke="black" stroke-width="2" fill="none" />
<path d="M4.0,191.0,12.0,190.5,20.5,189.0,29.0,188.0,37.0,187.0,45.0,186.0,53.0,185.5,60.5,185.0,68.0,184.5" stroke="black" stroke-width="2" fill="none" />
<path d="M68.5,181.0,60.5,181.5" stroke="black" stroke-width="2" fill="none" />
<path d="M70.0,171.0,73.0,175.0,74.5,187.0,73.0,195.0,72.0,203.0,70.0,211.0" stroke="black" stroke-width="2" fill="none" />
<path d="M73.5,224.0,81.5,223.5,89.5,223.5" stroke="black" stroke-width="2" fill="none" />
<path d="M93.0,211.5,100.5,211.0" stroke="black" stroke-width="2" fill="none" />
<path d="M107.5,210.0,115.5,209.5" stroke="black" stroke-width="2" fill="none" />
<path d="M115.0,216.0,107.0,216.0" stroke="black" stroke-width="2" fill="none" />
<path d="M107.5,194.0,115.5,186.5" stroke="black" stroke-width="2" fill="none" />
<path d="M123.5,187.5,115.5,188.0,107.5,188.0,99.0,188.5" stroke="black" stroke-width="2" fill="none" />
<path d="M99.0,180.0,107.0,179.5,115.0,179.0,123.5,179.0" stroke="black" stroke-width="2" fill="none" />
<path d="M137.0,189.5,145.5,189.0,153.5,189.0,162.0,189.0" stroke="black" stroke-width="2" fill="none" />
<path d="M150.5,187.0,153.5,195.0,156.5,197.0,164.5,199.0,163.5,200.5,171.0,203.5" stroke="black" stroke-width="2" fill="none" />
<path d="M174.0,178.0,167.0,179.0,159.0,176.5" stroke="black" stroke-width="2" fill="none" />
<path d="M155.0,174.0,163.5,173.5" stroke="black" stroke-width="2" fill="none" />
<path d="M163.5,164.0,171.0,164.0,179.0,163.5,187.0,163.5,195.0,163.0,203.5,163.0,211.5,163.0,219.5,163.0,227.5,162.5,235.5,162.0,243.5,161.5,251.5,161.0,260.0,160.5" stroke="black" stroke-width="2" fill="none" />
<path d="M266.5,163.0,256.5,155.0,248.5,160.0" stroke="black" stroke-width="2" fill="none" />
<path d="M255.5,149.0,263.5,148.0" stroke="black" stroke-width="2" fill="none" />
<path d="M266.0,139.5,258.0,140.0,250.5,140.5,242.5,141.5,234.5,142.0" stroke="black" stroke-width="2" fill="none" />
<path d="M235.0,149.0,227.0,156.5" stroke="black" stroke-width="2" fill="none" />
<path d="M225.0,168.0,225.0,165.0,233.0,160.5,241.0,165.5,251.5,171.5,249.5,179.5,246.5,185.5,242.5,186.0,243.5,192.0,248.0,183.5" stroke="black" stroke-width="2" fill="none" />
<path d="M248.0,171.5,244.0,168.5,237.0,166.5,240.5,161.0,241.5,154.5,240.5,149.5,234.5,141.0,242.0,131.0,235.5,127.0,241.5,119.0,238.5,116.5" stroke="black" stroke-width="2" fill="none" />
<path d="M244.0,125.0,251.5,125.0,260.0,124.5" stroke="black" stroke-width="2" fill="none" />
<path d="M259.5,119.5,260.5,118.5,252.0,126.0,259.0,128.0,256.5,124.0,265.5,132.0,274.0,127.5,282.0,126.5,290.0,125.0,289.5,127.0,297.5,125.0,305.0,130.5,303.0,138.5,302.0,141.0" stroke="black" stroke-width="2" fill="none" />
<path d="M308.0,149.0,299.5,149.5,292.0,150.0,284.0,150.5,276.0,150.5,268.0,150.5,260.0,151.0,252.0,151.5,244.5,152.5,236.5,153.5,228.5,154.0,220.5,155.0,213.0,156.0,205.0,156.5,196.5,157.0,188.5,157.5,180.0,158.0" stroke="black" stroke-width="2" fill="none" />
<path d="M181.5,153.5,183.0,161.5,178.0,171.5,182.5,178.5,181.5,186.5,178.5,194.5,173.5,201.5,170.0,200.0" stroke="black" stroke-width="2" fill="none" />
<path d="M178.5,181.5,170.5,179.0,162.5,182.0,154.5,178.5" stroke="black" stroke-width="2" fill="none" />
<path d="M148.0,185.5,145.0,193.5" stroke="black" stroke-width="2" fill="none" />
<path d="M141.0,180.0,139.5,187.5,136.5,195.5,134.0,203.5,131.0,210.0,135.5,217.0,134.5,225.0,131.5,229.5,130.5,237.5,130.5,251.0" stroke="black" stroke-width="2" fill="none" />
<path d="M130.0,236.0,131.0,229.5" stroke="black" stroke-width="2" fill="none" />
<path d="M93.5,232.0,85.5,232.0,77.0,232.5" stroke="black" stroke-width="2" fill="none" />
<path d="M106.5,245.0,105.0,256.0,97.0,251.0,89.5,243.5,80.5,241.5,72.5,231.0,71.5,218.5,83.5,212.5,92.0,207.0,95.0,201.0,88.0,198.0,93.0,195.5,96.0,188.0,94.0,180.0,98.5,183.0,87.5,180.0,83.5,183.0,78.5,179.0,79.5,164.5,76.5,161.0,82.5,159.5,75.0,167.5" stroke="black" stroke-width="2" fill="none" />
<path d="M79.0,169.0,87.0,170.0,95.0,171.0,102.5,172.0,110.5,172.0,119.0,172.5,127.0,172.0,135.0,171.5,143.5,171.0,151.5,170.0,153.0,166.0,161.0,167.0,169.5,166.0,177.5,164.5,186.5,167.0" stroke="black" stroke-width="2" fill="none" />
<path d="M197.5,167.0,200.5,175.0,209.0,182.5,221.5,190.5,225.5,198.5,230.0,206.5,237.0,212.5,241.0,221.5,241.0,229.5,241.5,238.0,241.5,246.5,242.5,254.0,243.5,262.0,243.5,271.0,243.5,278.5,244.0,286.5,244.0,294.5,244.0,303.0,244.0,311.5,245.5,319.5,244.5,327.5,230.5,335.5" stroke="black" stroke-width="2" fill="none" />
<path d="M244.0,330.5,236.0,334.5,227.5,336.5,219.5,339.5,211.5,342.0" stroke="black" stroke-width="2" fill="none" />
<path d="M134.5,331.5,132.5,339.5" stroke="black" stroke-width="2" fill="none" />
<path d="M122.0,341.5,121.5,333.5,120.5,325.5,120.5,317.5,120.0,310.0,121.0,302.0" stroke="black" stroke-width="2" fill="none" />
<path d="M131.5,293.0,139.5,292.5" stroke="black" stroke-width="2" fill="none" />
<path d="M137.5,290.0,145.5,293.0" stroke="black" stroke-width="2" fill="none" />
<path d="M133.0,292.5,134.5,300.5,137.5,308.5,140.5,317.0,142.5,325.5" stroke="black" stroke-width="2" fill="none" />
<path d="M161.5,267.0,153.5,273.0,163.5,265.5" stroke="black" stroke-width="2" fill="none" />
<path d="M205.0,170.0,213.0,162.5" stroke="black" stroke-width="2" fill="none" />
<path d="M210.5,163.0,202.5,161.0" stroke="black" stroke-width="2" fill="none" />
<path d="M205.0,161.0,212.5,154.0" stroke="black" stroke-width="2" fill="none" />
<path d="M205.0,154.0,197.5,154.5" stroke="black" stroke-width="2" fill="none" />
<path d="M197.0,153.5,205.0,146.0,212.5,139.0" stroke="black" stroke-width="2" fill="none" />
<path d="M212.5,145.0,205.0,153.0,197.0,160.5" stroke="black" stroke-width="2" fill="none" />
<path d="M203.5,165.0,211.0,180.0,219.5,183.5" stroke="black" stroke-width="2" fill="none" />
<path d="M209.0,178.0,205.0,169.5,202.0,161.5,207.0,159.5" stroke="black" stroke-width="2" fill="none" />
<path d="M206.0,149.5,214.0,151.5" stroke="black" stroke-width="2" fill="none" />
<path d="M220.5,146.5,213.0,147.5,205.0,148.5,197.5,149.0" stroke="black" stroke-width="2" fill="none" />
<path d="M195.0,145.0,203.5,137.0" stroke="black" stroke-width="2" fill="none" />
<path d="M204.0,144.0,210.0,150.5,213.0,158.0,214.0,169.0,219.5,165.0,222.0,171.5,222.0,174.5,224.5,177.0,232.0,177.0,233.0,172.5,230.0,174.5,243.0,179.5,251.0,178.0,255.0,185.5,262.0,186.5,270.0,184.5,271.0,180.5" stroke="black" stroke-width="2" fill="none" />
<path d="M301.5,162.5,299.5,173.5,299.0,174.5,305.0,166.5,307.0,158.5,309.5,150.5,310.5,142.5,310.5,134.5,310.5,128.0,313.5,126.0,311.5,117.0,309.5,119.5,302.0,121.5,296.0,118.0,303.5,114.5,301.5,110.5,294.0,110.0,286.0,108.0,278.0,107.5,270.0,106.5,262.0,107.5,254.0,108.5,246.0,107.5,237.5,108.0,229.5,109.0,221.5,109.5,214.0,110.5,206.0,112.0,198.0,114.0,190.0,117.5" stroke="black" stroke-width="2" fill="none" />
<path d="M191.0,119.0,199.0,116.0,207.5,114.0,215.5,113.5,223.5,112.0,232.5,112.0,240.5,110.5,248.5,110.5,256.5,111.0,264.5,110.0,272.5,110.0,280.5,111.0,288.0,111.0,296.0,112.5,303.5,114.5,311.5,114.5" stroke="black" stroke-width="2" fill="none" />
<path d="M300.0,116.0,292.0,116.5" stroke="black" stroke-width="2" fill="none" />
<path d="M285.5,124.0,293.5,123.0,301.5,123.0" stroke="black" stroke-width="2" fill="none" />
<path d="M297.0,131.5,305.0,125.5,313.0,119.0,317.0,123.0,319.5,125.5,315.5,133.5,311.0,142.0,319.0,128.5,321.5,116.5,329.5,101.0" stroke="black" stroke-width="2" fill="none" />
<path d="M342.0,91.0,333.5,91.5,325.5,91.0,317.5,91.0,309.5,91.0,301.0,91.0,293.0,91.0,285.5,91.5,277.5,92.0,269.5,92.5,260.5,93.0" stroke="black" stroke-width="2" fill="none" />
<path d="M265.0,91.0,273.0,94.0,280.5,88.0" stroke="black" stroke-width="2" fill="none" />
<path d="M283.0,84.5,275.0,92.0" stroke="black" stroke-width="2" fill="none" />
<path d="M278.5,97.0,286.5,94.0,290.5,90.5,287.0,98.5,295.0,107.5" stroke="black" stroke-width="2" fill="none" />
<path d="M285.0,108.0,277.0,108.5,269.5,108.5" stroke="black" stroke-width="2" fill="none" />
<path d="M267.0,114.0,267.5,122.0,272.5,135.0,272.5,143.0,272.5,151.0,277.0,151.5,275.0,157.5,279.0,159.0,278.0,167.5,275.5,174.0,280.0,178.5,268.0,186.5,270.5,194.0,267.5,198.0,266.0,205.5,258.0,209.5,255.0,209.5,250.0,220.5,253.0,226.0,255.0,234.0,251.0,242.0,251.0,250.0,251.5,258.0,251.5,266.5,252.5,274.5,254.5,282.5,255.5,290.5,257.0,298.5" stroke="black" stroke-width="2" fill="none" />
<path d="M264.5,172.0,258.5,168.0,259.5,160.5,258.5,151.5,254.5,149.5,251.5,147.0,245.5,146.0" stroke="black" stroke-width="2" fill="none" />
<path d="M236.0,134.5,244.0,134.0,252.0,133.5,260.0,133.0,267.5,132.5" stroke="black" stroke-width="2" fill="none" />
<path d="M285.5,132.0,283.5,140.0,281.0,148.5,287.0,158.5,285.5,166.0,286.5,170.0,292.5,164.5,294.0,156.0,301.5,158.0" stroke="black" stroke-width="2" fill="none" />
<path d="M276.0,99.5,268.0,99.5,260.0,100.0" stroke="black" stroke-width="2" fill="none" />
<path d="M258.5,99.0,266.5,91.5,274.5,84.0" stroke="black" stroke-width="2" fill="none" />
<path d="M268.0,76.5,276.0,76.0,284.0,75.5" stroke="black" stroke-width="2" fill="none" />
<path d="M285.5,71.5,296.5,72.0,301.5,80.0" stroke="black" stroke-width="2" fill="none" />
<path d="M299.5,59.0,307.5,59.0,316.0,59.0,324.5,59.0,332.5,59.5,341.0,59.0,349.0,59.0,357.5,59.0,365.5,58.5,372.5,57.5,380.5,56.5,388.5,56.0,396.5,55.0,404.5,54.5,413.0,54.0,420.5,53.5,428.0,53.0,436.0,52.5,444.0,51.5" stroke="black" stroke-width="2" fill="none" />
<path d="M373.0,58.0,364.5,65.5,356.5,73.5,348.5,82.0" stroke="black" stroke-width="2" fill="none" />
<path d="M337.5,77.5,336.0,85.5,335.0,93.5,330.5,102.0,341.5,103.0,349.5,103.0,357.0,107.0,365.0,112.0,373.0,116.0" stroke="black" stroke-width="2" fill="none" />
<path d="M360.5,110.0,347.5,102.0" stroke="black" stroke-width="2" fill="none" />
<path d="M349.0,94.5,357.0,94.0,365.0,94.0,372.5,93.0,380.5,92.0,388.5,91.5,396.5,90.5,404.5,89.5,412.0,88.0,419.5,87.5,427.0,87.0,435.0,86.5,443.0,86.0,451.5,86.0,459.5,85.5,467.5,85.5,476.0,85.0,484.5,84.0,493.0,83.5,502.0,83.5,510.5,83.0,517.5,82.5" stroke="black" stroke-width="2" fill="none" />
<path d="M515.5,0.5,507.5,1.0,499.5,1.5,491.0,2.5,483.0,4.0,474.5,4.5,466.0,4.5,457.5,4.5,450.0,5.5,442.5,6.0,435.0,7.0,427.0,8.0,419.5,9.0,411.0,9.0,403.0,9.5,395.0,10.0,386.5,10.5,378.0,11.5" stroke="black" stroke-width="2" fill="none" />
<path d="M363.5,3.5,355.5,11.0,348.0,19.0,339.5,27.0,331.5,34.5,323.0,41.5,314.5,49.0,306.0,56.5" stroke="black" stroke-width="2" fill="none" />
<path d="M307.5,56.0,299.5,56.0" stroke="black" stroke-width="2" fill="none" />
<path d="M299.5,56.0,307.5,48.5,315.5,41.0,323.5,34.0,331.0,26.5,339.0,19.0,347.0,11.5,355.0,4.0" stroke="black" stroke-width="2" fill="none" />
<path d="M364.0,24.5,356.0,25.0,348.5,25.5" stroke="black" stroke-width="2" fill="none" />
<path d="M331.0,20.5,323.0,28.0,314.5,35.5,306.5,43.0,298.5,51.0,290.0,58.5" stroke="black" stroke-width="2" fill="none" />
<path d="M293.0,52.5,300.5,52.0,308.0,52.0,316.0,51.5,323.5,51.5,331.0,51.0,339.0,50.5,347.0,50.5,354.5,50.5,362.0,50.5,370.0,50.5,378.5,49.5,387.0,49.0,395.0,48.5,403.0,48.0" stroke="black" stroke-width="2" fill="none" />
<path d="M401.5,39.5,394.0,40.0,386.5,40.0,379.0,40.0,371.5,40.5,363.5,41.0,355.0,42.0,347.0,42.5,339.5,42.5,332.5,42.5,325.0,42.5,317.0,43.0,309.0,43.0,300.5,43.5,292.5,44.0,284.5,45.0" stroke="black" stroke-width="2" fill="none" />
<path d="M289.0,50.0,297.5,42.5,306.0,35.0,313.5,27.5,321.5,20.0" stroke="black" stroke-width="2" fill="none" />
<path d="M313.5,20.0,305.5,27.5,297.5,34.5,290.0,41.5" stroke="black" stroke-width="2" fill="none" />
<path d="M294.5,41.5,302.5,41.0,310.0,41.0,318.0,41.0" stroke="black" stroke-width="2" fill="none" />
<path d="M317.0,48.0,308.5,49.0,300.5,49.5,292.5,50.5" stroke="black" stroke-width="2" fill="none" />
<path d="M285.0,38.0,292.5,37.5,300.5,36.0,308.0,35.0,316.5,34.5,324.0,33.5,332.0,33.5,340.0,33.5,348.0,34.0,356.0,34.0,364.0,34.0,371.5,34.0,380.0,33.5,387.5,33.0,394.5,32.0,402.5,31.5" stroke="black" stroke-width="2" fill="none" />
<path d="M334.5,66.0,332.5,74.0,326.5,76.0,326.5,89.5,328.5,98.0,326.0,109.0,322.5,117.5,314.5,121.5,304.0,121.5,299.0,131.0,298.0,139.0,299.0,146.5,300.0,151.5,296.0,155.5,292.0,164.0,286.5,172.5,286.0,178.5,283.0,186.5,284.5,183.5,295.5,175.5,300.5,165.0" stroke="black" stroke-width="2" fill="none" />
<path d="M229.5,139.0,221.0,139.5,212.5,140.0,204.0,140.5,196.5,141.0" stroke="black" stroke-width="2" fill="none" />
<path d="M196.0,132.5,204.0,132.5,212.5,132.0,220.5,132.0" stroke="black" stroke-width="2" fill="none" />
<path d="M225.5,139.0,230.5,147.5,234.5,157.0,225.5,166.0,216.5,167.0,218.5,173.0,218.0,179.0,217.0,178.0,218.0,186.0,221.5,192.0,229.5,196.0,233.5,191.0,244.0,195.5,244.0,193.5,248.0,198.5,254.5,200.5,263.0,199.0,264.5,192.0" stroke="black" stroke-width="2" fill="none" />
<path d="M286.0,137.0,284.0,133.5,282.5,130.5,272.5,138.0,264.5,135.0,256.0,134.5,244.0,128.0,241.5,124.0,234.5,129.0,226.5,129.0,218.5,128.0,210.5,127.0" stroke="black" stroke-width="2" fill="none" />
<path d="M209.0,117.5,200.5,130.0,198.5,138.0,191.5,146.5,193.0,154.5,191.0,160.0,195.0,169.5,196.5,177.5,197.5,185.5,198.5,193.5,199.5,201.5,198.5,209.5,196.5,217.5,198.0,221.0,206.0,219.0,214.0,216.5,222.0,214.5,229.5,212.0,237.5,212.5,247.5,211.0,256.5,215.0,257.5,212.5,263.5,207.5,272.0,196.0,278.0,189.5" stroke="black" stroke-width="2" fill="none" />
<path d="M189.5,149.0,181.5,149.0" stroke="black" stroke-width="2" fill="none" />
<path d="M173.0,129.5,164.5,130.0,155.5,131.0,147.5,132.0,139.0,132.5,130.5,133.5,122.5,134.5,114.5,135.0" stroke="black" stroke-width="2" fill="none" />
<path d="M115.0,138.0,107.0,146.0" stroke="black" stroke-width="2" fill="none" />
<path d="M103.5,143.0,97.0,145.0,102.5,157.0,103.5,165.0,112.5,165.0,115.5,177.0,112.0,185.0,107.0,193.5,104.0,201.5,104.0,209.5,99.0,219.5,93.0,226.5,97.0,234.5,99.0,234.0,102.5,245.5,105.5,249.5,108.5,261.0,119.0,268.0,121.0,278.5,125.0,290.5,125.5,298.5,126.0,306.5,126.0,314.5,127.0,322.0,127.5,330.0,127.0,338.0" stroke="black" stroke-width="2" fill="none" />
<path d="M85.5,210.5,77.5,212.5,69.5,213.5,67.0,207.5,68.0,199.0,69.0,191.0,68.5,183.0,69.5,175.0,73.0,168.0,65.5,164.0" stroke="black" stroke-width="2" fill="none" />
<path d="M68.0,162.0,76.0,158.0,84.5,155.5,92.5,153.5,100.5,152.0,105.0,154.0,99.0,156.5,99.5,164.5" stroke="black" stroke-width="2" fill="none" />
<path d="M100.0,174.5,107.5,173.5,115.0,173.0,122.5,172.5,130.0,172.5,138.5,172.0,146.5,171.5" stroke="black" stroke-width="2" fill="none" />
<path d="M132.5,166.5,132.0,158.5,133.5,150.0,123.5,150.0,116.0,150.0,108.0,150.5" stroke="black" stroke-width="2" fill="none" />
<path d="M111.5,143.5,103.5,140.5" stroke="black" stroke-width="2" fill="none" />
<path d="M93.0,140.5,85.0,148.0" stroke="black" stroke-width="2" fill="none" />
<path d="M77.5,150.5,85.5,150.0,93.5,149.0,101.0,148.0,108.5,147.5,116.5,146.5,124.5,146.5,132.5,146.0,140.5,145.5,149.0,145.0" stroke="black" stroke-width="2" fill="none" />
<path d="M164.5,135.5,157.0,136.0,148.5,136.5,140.0,137.5,131.5,138.5,123.5,139.0,116.0,139.5,108.5,140.0,100.5,140.0,92.5,140.0,84.5,140.5,76.5,141.0" stroke="black" stroke-width="2" fill="none" />
<path d="M74.5,138.5,83.0,131.5" stroke="black" stroke-width="2" fill="none" />
<path d="M84.0,136.0,75.5,136.0" stroke="black" stroke-width="2" fill="none" />
<path d="M76.5,134.0,84.5,133.5,92.5,133.5" stroke="black" stroke-width="2" fill="none" />
<path d="M92.0,125.5,84.0,126.0,76.0,127.0" stroke="black" stroke-width="2" fill="none" />
<path d="M74.5,130.5,75.0,124.5,81.0,126.0,84.0,133.5,89.5,141.5,99.0,154.0,97.0,162.0,97.0,168.5,106.0,170.0,114.0,158.0,115.0,167.0,122.0,171.0,128.5,171.0,136.5,170.0" stroke="black" stroke-width="2" fill="none" />
<path d="M137.0,167.0,137.0,159.0" stroke="black" stroke-width="2" fill="none" />
<path d="M128.5,161.0,130.0,153.0,126.0,150.5" stroke="black" stroke-width="2" fill="none" />
<path d="M122.0,150.5,124.0,158.5,119.0,160.5" stroke="black" stroke-width="2" fill="none" />
<path d="M119.0,152.5,116.0,160.5,120.5,152.5" stroke="black" stroke-width="2" fill="none" />
<path d="M131.0,141.5,139.0,142.0,147.5,141.0,154.5,143.5,162.5,142.0" stroke="black" stroke-width="2" fill="none" />
<path d="M161.0,127.5,153.5,129.5,145.5,133.5,137.5,139.0,129.5,145.5,122.0,145.5,114.0,146.5,105.5,147.5,97.5,144.0,85.5,149.0,78.0,142.0,70.0,131.5" stroke="black" stroke-width="2" fill="none" />
<path d="M80.5,127.0,89.5,127.0,87.0,131.0,88.0,133.0,101.0,128.5,108.0,122.5,117.0,129.5,124.5,125.5" stroke="black" stroke-width="2" fill="none" />
<path d="M124.5,122.0,132.5,114.5" stroke="black" stroke-width="2" fill="none" />
<path d="M140.5,116.0,132.5,123.5" stroke="black" stroke-width="2" fill="none" />
<path d="M124.0,116.0,132.0,116.0,140.0,115.5,148.0,115.5" stroke="black" stroke-width="2" fill="none" />
<path d="M151.0,121.5,142.0,119.5,142.5,113.0,135.0,112.0,127.0,113.0,119.0,115.5,109.0,115.5,107.5,118.5,99.5,120.5" stroke="black" stroke-width="2" fill="none" />
<path d="M101.0,123.0,109.5,125.0,99.0,133.0,95.0,136.5" stroke="black" stroke-width="2" fill="none" />
<path d="M113.0,126.0,121.0,125.5,130.0,125.0,138.5,124.0,147.0,124.0,156.0,123.0,164.0,122.5,172.5,122.5" stroke="black" stroke-width="2" fill="none" />
<path d="M166.0,119.0,158.0,112.0" stroke="black" stroke-width="2" fill="none" />
<path d="M158.0,112.5,165.5,120.0,172.0,128.5" stroke="black" stroke-width="2" fill="none" />
<path d="M168.0,118.0,167.0,110.5,164.5,100.5,168.0,96.0,168.0,88.0,158.5,93.5,150.5,91.5" stroke="black" stroke-width="2" fill="none" />
<path d="M150.5,87.0,158.5,89.0" stroke="black" stroke-width="2" fill="none" />
<path d="M166.0,95.5,158.0,98.0,149.5,100.0,141.5,95.0" stroke="black" stroke-width="2" fill="none" />
<path d="M139.0,85.5,130.5,86.5,122.5,87.0" stroke="black" stroke-width="2" fill="none" />
<path d="M123.5,93.0,123.5,101.0,128.0,105.5" stroke="black" stroke-width="2" fill="none" />
<path d="M131.5,109.5,123.5,110.5" stroke="black" stroke-width="2" fill="none" />
<path d="M121.0,117.0,129.0,122.0,136.5,120.5" stroke="black" stroke-width="2" fill="none" />
<path d="M118.5,120.0,126.0,121.0,130.0,125.0,124.0,131.5,125.0,141.0" stroke="black" stroke-width="2" fill="none" />
<path d="M117.0,133.5,119.0,125.5" stroke="black" stroke-width="2" fill="none" />
<path d="M107.0,107.5,99.5,107.0,91.5,107.0,83.5,105.0" stroke="black" stroke-width="2" fill="none" />
<path d="M90.0,97.5,87.0,107.5,86.5,115.0,84.5,124.0,85.0,129.0,85.0,135.5,93.0,145.5,98.5,148.0,103.5,139.5,111.5,140.5,119.5,142.0" stroke="black" stroke-width="2" fill="none" />
<path d="M89.0,151.0,81.0,151.0,73.0,154.5,62.5,156.0,54.5,165.0,46.0,165.5,34.0,171.5,29.0,172.5,31.5,166.0,34.0,158.5" stroke="black" stroke-width="2" fill="none" />
<path d="M34.5,158.5,25.5,165.5,33.0,162.5" stroke="black" stroke-width="2" fill="none" />
<path d="M28.0,166.0,20.0,167.5" stroke="black" stroke-width="2" fill="none" />
<path d="M26.0,171.5,17.5,171.5,9.5,172.5" stroke="black" stroke-width="2" fill="none" />
<path d="M10.5,164.5,2.5,165.0" stroke="black" stroke-width="2" fill="none" />
<path d="M4.0,162.5,6.0,161.5,9.0,169.0,10.0,175.0,18.0,166.0,26.0,159.0,34.5,158.0" stroke="black" stroke-width="2" fill="none" />
<path d="M27.0,149.5,18.5,150.0,10.0,150.5,2.0,151.0" stroke="black" stroke-width="2" fill="none" />
<path d="M3.5,148.5,11.0,145.5,12.0,150.5" stroke="black" stroke-width="2" fill="none" />
<path d="M10.0,141.0,18.0,140.0" stroke="black" stroke-width="2" fill="none" />
<path d="M25.5,141.5,22.5,149.5,17.5,155.5,24.0,147.0" stroke="black" stroke-width="2" fill="none" />
<path d="M23.5,154.0,31.5,146.5,39.5,145.5,45.5,146.5,51.0,135.5" stroke="black" stroke-width="2" fill="none" />
<path d="M39.5,139.5,49.0,150.5,43.0,158.5,40.0,166.0,35.0,173.0,27.0,177.5,30.0,181.0,27.0,189.0,21.5,196.5,15.5,204.5,21.0,210.5,22.0,217.5" stroke="black" stroke-width="2" fill="none" />
<path d="M11.5,211.5,3.0,219.0" stroke="black" stroke-width="2" fill="none" />
<path d="M3.5,214.0,11.5,202.0,20.0,196.0,28.0,184.0" stroke="black" stroke-width="2" fill="none" />
<path d="M37.0,174.5,45.0,174.0" stroke="black" stroke-width="2" fill="none" />
<path d="M44.5,180.0,36.5,180.5,28.0,180.5,19.5,181.0,11.0,181.5,2.5,182.0" stroke="black" stroke-width="2" fill="none" />
<path d="M3.0,181.0,11.0,182.0,16.5,174.0,24.0,169.0" stroke="black" stroke-width="2" fill="none" />
<path d="M19.0,157.5,11.0,157.5,3.0,157.5" stroke="black" stroke-width="2" fill="none" />
<path d="M22.5,156.5,30.5,150.5,26.5,158.0,22.0,168.0,20.0,176.0,19.0,179.5,17.0,187.0,13.5,189.0,16.5,179.5,25.0,174.5,30.0,169.5,40.0,163.5" stroke="black" stroke-width="2" fill="none" />
<path d="M59.0,163.5,64.0,155.5" stroke="black" stroke-width="2" fill="none" />
<path d="M68.5,159.0,76.5,158.5" stroke="black" stroke-width="2" fill="none" />
<path d="M76.5,175.5,84.5,173.5,92.5,174.5,97.0,182.0,97.0,189.5,101.5,191.0,100.0,195.0,99.0,203.0,102.0,193.0" stroke="black" stroke-width="2" fill="none" />
<path d="M86.5,194.5,82.0,202.5" stroke="black" stroke-width="2" fill="none" />
<path d="M88.5,185.0,85.5,177.0" stroke="black" stroke-width="2" fill="none" />
<path d="M66.0,227.5,58.0,230.0,50.5,231.0,43.0,233.5,35.0,236.0,27.0,238.0,19.5,239.5" stroke="black" stroke-width="2" fill="none" />
<path d="M19.0,215.5,11.0,210.5" stroke="black" stroke-width="2" fill="none" />
<path d="M18.5,124.5,26.5,124.5" stroke="black" stroke-width="2" fill="none" />
<path d="M28.5,126.0,28.0,131.0,24.0,123.0" stroke="black" stroke-width="2" fill="none" />
<path d="M23.5,122.5,21.0,130.5,23.0,130.5" stroke="black" stroke-width="2" fill="none" />
<path d="M20.5,120.5,28.5,121.0,36.0,122.0" stroke="black" stroke-width="2" fill="none" />
<path d="M48.0,120.0,46.0,128.0,49.5,126.5" stroke="black" stroke-width="2" fill="none" />
<path d="M52.5,129.0,44.0,133.5,36.0,137.5,28.0,139.0,20.0,141.0,11.5,142.0,3.5,142.5,1.5,139.5,7.5,130.0,10.0,122.0" stroke="black" stroke-width="2" fill="none" />
<path d="M11.5,124.0,11.5,132.0,8.5,139.5,5.0,158.5,4.0,167.0,5.0,175.0,5.0,182.5,10.0,193.5,8.0,201.5,12.0,192.0,20.0,190.5,25.0,195.5,33.0,179.5,41.0,167.0" stroke="black" stroke-width="2" fill="none" />
<path d="M19.5,115.5,11.5,116.5,3.5,117.5" stroke="black" stroke-width="2" fill="none" />
<path d="M3.5,118.0,11.0,119.0,19.0,118.5,19.0,120.0,18.5,128.0,13.5,136.5,19.5,135.5,26.5,132.5,29.5,133.5,37.5,131.5,41.5,121.5,40.5,129.5,37.0,126.0,37.0,136.0,37.0,141.5,27.0,150.0,22.0,160.0,19.0,166.0,15.5,174.5,11.5,174.5,13.5,180.0,9.5,184.5,6.5,192.5,5.0,196.5,11.0,201.5,7.0,209.5,5.0,217.5,5.0,225.5,13.0,223.5,19.0,229.5,7.0,232.5,4.0,243.5,9.5,241.5,17.5,234.5,25.0,226.0" stroke="black" stroke-width="2" fill="none" />
<path d="M14.5,222.0,19.5,218.0,13.5,215.0,11.5,213.0,12.5,205.0,20.5,195.0,30.5,188.0,33.5,179.5,39.0,171.5,44.0,163.0,47.5,155.0,41.0,146.0,45.5,146.0,49.5,138.0,52.5,128.0,46.5,123.5,43.0,119.5,35.5,117.5,27.0,116.5,18.5,116.0,10.5,115.0,2.5,115.0" stroke="black" stroke-width="2" fill="none" />
<path d="M9.5,101.0,18.0,100.5,26.5,100.0" stroke="black" stroke-width="2" fill="none" />
<path d="M20.0,91.0,13.0,91.5,5.0,92.0" stroke="black" stroke-width="2" fill="none" />
<path d="M4.5,68.5,12.5,68.0" stroke="black" stroke-width="2" fill="none" />
<path d="M5.5,59.5,13.5,59.0,21.5,59.0" stroke="black" stroke-width="2" fill="none" />
<path d="M20.5,52.0,12.0,52.5,4.0,53.5" stroke="black" stroke-width="2" fill="none" />
<path d="M4.0,46.5,12.0,46.5,21.0,46.5" stroke="black" stroke-width="2" fill="none" />
<path d="M22.0,36.5,14.0,37.5,5.5,38.0" stroke="black" stroke-width="2" fill="none" />
<path d="M5.0,4.5,13.0,4.0" stroke="black" stroke-width="2" fill="none" />
<path d="M68.0,95.5,76.5,93.0,84.5,92.5,92.5,93.0,100.5,91.0,108.5,90.5,116.5,89.0,124.5,89.0,132.0,89.0,138.5,95.0,146.5,89.0,154.5,84.0,163.0,85.0" stroke="black" stroke-width="2" fill="none" />
<path d="M152.0,105.5,149.5,113.5,144.0,119.5,135.5,119.0,132.5,127.5,131.5,130.5,135.5,127.5" stroke="black" stroke-width="2" fill="none" />
<path d="M155.0,126.5,142.0,134.0,131.0,145.5,139.5,144.5,147.5,144.5,155.5,145.5,163.5,145.5,171.5,147.5,179.5,149.0,187.5,152.0,194.5,161.0,202.5,176.0,211.0,183.5,219.5,188.5,227.5,188.5,232.0,180.5,240.0,180.5,246.0,164.5,254.0,168.5,256.5,164.0,260.5,168.5,268.5,177.0" stroke="black" stroke-width="2" fill="none" />
<path d="M261.0,86.0,268.5,85.0,276.5,84.5,284.5,83.5,292.5,83.0,301.0,82.0,308.5,81.5,316.5,81.5,324.5,81.5,332.5,81.5,340.0,81.0,347.5,80.5,355.0,80.0,362.5,79.5,370.5,79.0,378.5,78.5,386.0,77.5,394.0,77.0,402.5,76.5,410.5,76.0,418.5,75.5,426.5,74.5,435.0,74.0,443.0,73.5,451.5,72.5,459.5,72.0,468.0,71.5,476.0,71.5,483.5,71.0,491.0,69.5,498.5,69.0,507.0,69.0,515.0,69.0" stroke="black" stroke-width="2" fill="none" />
<path d="M513.5,9.0,506.0,9.5,498.5,9.0,491.0,9.0,483.5,9.0,476.0,9.0,468.5,9.5,460.5,10.0,453.0,10.5,445.0,11.5,437.0,12.0,429.0,12.5,420.5,13.0,412.5,13.5,404.5,14.5,396.5,15.5,388.5,16.5,380.5,17.5,372.5,18.0,364.5,18.5,356.5,18.5,348.5,19.0,341.0,19.5,333.0,20.5,325.0,21.0,317.0,20.5,309.0,20.5,300.5,20.5,292.0,21.0" stroke="black" stroke-width="2" fill="none" />
<path d="M291.5,20.5,299.5,13.0" stroke="black" stroke-width="2" fill="none" />
<path d="M292.0,13.0,300.0,13.0,308.0,12.5,316.0,12.5,324.0,12.5,331.5,12.5,339.0,12.0,346.5,11.5,354.0,11.5,362.5,11.0,370.5,10.5,378.5,9.5,387.0,9.0,395.5,8.5,404.0,7.5,412.0,7.0,420.0,6.0,428.5,5.0,437.0,4.0,445.0,3.0,453.0,2.5,461.0,2.0,468.5,2.0,476.0,1.5,483.0,0.0,490.5,-0.5,498.5,0.0,506.5,0.0,515.0,-0.5" stroke="black" stroke-width="2" fill="none" />
<path d="M317.5,32.0,309.0,32.5,301.0,33.0,292.5,33.0" stroke="black" stroke-width="2" fill="none" />
<path d="M290.5,35.5,298.0,27.0,305.5,19.5" stroke="black" stroke-width="2" fill="none" />
<path d="M306.5,10.0,298.0,17.5,290.5,25.5" stroke="black" stroke-width="2" fill="none" />
<path d="M292.0,25.0,300.5,25.0,309.0,24.0" stroke="black" stroke-width="2" fill="none" />
<path d="M284.5,29.0,292.0,29.0,300.0,28.5,307.5,28.5,315.5,28.5,323.5,28.0,331.0,28.0,339.5,28.0,348.0,27.5,356.0,26.5,364.0,26.0,372.0,25.5,380.0,25.5,388.0,24.5,396.0,24.0,404.5,23.0,412.5,22.5,420.5,22.0,428.0,21.0,436.0,20.5,444.0,20.0,452.5,20.0,460.0,19.5,468.0,19.0,476.0,19.0,484.0,18.0,492.0,17.0,500.0,16.5,508.5,16.0,516.5,16.0" stroke="black" stroke-width="2" fill="none" />
<path d="M514.5,-10.5,507.0,-9.5,499.0,-8.5,491.5,-8.0,483.0,-7.0,475.0,-7.0,467.0,-7.0,459.5,-6.5,451.5,-6.0,443.5,-5.0,436.0,-4.0,428.0,-3.0,420.0,-1.5,412.0,-0.5,403.5,0.0,394.5,0.5,386.0,1.0,377.5,1.0,369.5,1.5,361.5,2.0,353.5,2.5,346.0,3.0,338.0,3.5,330.0,4.0,322.0,4.5,314.0,5.5,306.0,6.0,298.0,6.0,290.0,6.5" stroke="black" stroke-width="2" fill="none" />
<path d="M316.5,59.5,316.5,67.5,325.5,60.0,333.5,63.0" stroke="black" stroke-width="2" fill="none" />
<path d="M315.5,98.0,311.5,86.5,298.5,72.5,290.5,68.0,282.0,70.0" stroke="black" stroke-width="2" fill="none" />
<path d="M264.0,84.0,272.0,84.0,281.0,83.5,281.0,92.0,277.0,101.0,281.5,102.0,286.5,104.0,295.5,103.0,303.5,104.0" stroke="black" stroke-width="2" fill="none" />
<path d="M262.5,99.0,260.5,91.0,254.5,78.0" stroke="black" stroke-width="2" fill="none" />
<path d="M253.5,69.5,261.5,69.5,261.5,75.5,260.5,83.0,265.5,85.5,266.0,93.5" stroke="black" stroke-width="2" fill="none" />
<path d="M260.0,104.5,257.0,96.5,254.5,82.5,253.5,75.0,255.5,67.0" stroke="black" stroke-width="2" fill="none" />
<path d="M244.0,47.0,236.0,47.5" stroke="black" stroke-width="2" fill="none" />
<path d="M199.0,112.5,191.0,120.5,190.0,131.0,190.5,139.0,193.5,145.0,201.5,140.0,210.5,146.0,218.5,144.0,218.5,149.0,220.5,154.5,228.5,151.5,236.0,152.5,238.0,156.5,239.5,155.5,245.5,146.5,253.5,153.5,259.5,160.5,264.0,168.0,274.5,176.0,279.5,173.5,283.5,177.0" stroke="black" stroke-width="2" fill="none" />
<path d="M238.5,146.5,228.0,139.5,220.0,138.5,212.0,135.5,199.5,129.0,191.0,127.0" stroke="black" stroke-width="2" fill="none" />
<path d="M200.0,115.5,191.5,123.5,199.5,126.0,208.0,124.0,210.0,131.5,218.5,132.5,227.0,134.0,235.0,136.5,243.0,135.5,251.5,135.5,259.5,130.5" stroke="black" stroke-width="2" fill="none" />
<path d="M180.5,231.5,172.5,235.5,166.5,246.0,157.5,260.0,149.5,269.0,144.5,277.0,133.0,272.0,122.0,278.0,114.0,267.5,107.0,262.5,95.0,255.0,87.0,247.0,82.0,246.5,76.0,238.5,70.0,230.5,68.0,223.0,64.0,215.0,63.0,207.5,64.0,199.5,64.0,191.5,65.0,183.5,66.0,175.0,64.5,167.0,63.5,159.0,70.0,156.0,79.0,147.0,72.0,138.5,67.5,130.0,70.5,122.5,70.0,114.5" stroke="black" stroke-width="2" fill="none" />
<path d="M73.5,103.5,81.5,101.5,81.5,104.5,89.0,96.5,91.0,102.0,98.5,102.0,107.0,101.5" stroke="black" stroke-width="2" fill="none" />
<path d="M100.5,100.5,98.5,92.5" stroke="black" stroke-width="2" fill="none" />
<path d="M111.0,90.0,108.0,98.5,114.0,105.5,122.0,105.0,133.5,104.5,141.5,105.0,150.0,105.0,158.0,103.0,166.5,101.0" stroke="black" stroke-width="2" fill="none" />
<path d="M135.5,87.0,127.5,86.0,119.5,85.0,111.5,86.0,103.5,87.0,95.5,89.0,87.5,90.0,79.0,89.5,71.0,91.5,62.5,95.0,67.5,93.0,75.5,92.0" stroke="black" stroke-width="2" fill="none" />
<path d="M114.0,90.0,112.0,98.0,109.5,106.0,119.0,115.0,112.5,122.5,108.5,131.0,111.0,136.0,120.5,137.5" stroke="black" stroke-width="2" fill="none" />
</svg>