<svg xmlns="http://www.w3.org/2000/svg" version="1.1"><polyline points="2.0,1.5,2.5,9.5,2.5,17.5,2.5,25.5,2.5,33.5,2.5,41.5,3.0,49.5,4.0,57.0,4.5,65.0,4.5,72.5,4.5,81.0,4.5,89.0,4.0,97.0,3.5,105.5,3.5,114.5,3.5,123.0,3.5,131.0,3.0,138.5,3.0,146.5,3.0,154.5,3.0,162.5,2.5,170.5,2.5,178.5,2.5,186.0,2.5,194.0,3.0,202.0,3.0,210.0,3.0,218.0,3.5,226.0,4.0,234.5,4.0,242.5,4.0,250.5,4.0,258.5,3.5,266.5,3.0,275.0,3.0,283.0,3.0,291.0,3.0,298.5,3.5,306.5,3.0,314.5,3.0,322.5,3.0,330.5,2.5,338.5,2.5,346.5,2.5,354.0,2.5,361.5,2.0,369.5,2.0,377.5,1.5,385.5,1.0,394.0,1.0,402.0,1.0,410.0,2.0,417.5,2.0,425.5,2.0,434.0,2.0,442.5,2.5,450.5,2.5,459.0,3.0,467.5,3.5,475.5,3.5,484.0,3.5,492.0,3.0,500.0,3.0,507.5,3.5,515.0,3.5,523.0,3.0,531.0,3.0,538.5,2.5,546.0,2.5,553.5,3.0,561.5,2.5,569.5,2.5,578.0,2.5,586.0,3.0,594.5,3.0,603.0,3.5,611.0,4.0,619.0,4.0,627.0,4.5,635.0,5.0,643.0,5.0,651.0,4.5,658.5,4.5,666.5,4.0,674.0,4.0,682.0,11.0,683.5,19.0,684.0,27.0,684.0,35.0,684.5,43.0,684.5,51.0,684.0,58.5,684.0,66.5,683.5,74.0,683.5,82.0,683.5,89.5,683.5,97.5,683.0,105.0,682.5,113.0,682.5,121.0,682.5,129.0,682.5,137.5,683.0,145.5,683.0,153.5,683.5,161.5,684.0,169.5,684.0,177.5,684.0,185.5,684.0,193.5,683.5,201.5,683.0,209.5,683.0,217.5,683.5,225.5,684.0,233.5,684.0,241.5,684.5,249.5,684.5,257.5,685.0,266.0,685.0,274.0,685.0,282.0,685.0,290.0,685.0,298.0,685.0,305.5,684.5,313.5,684.5,321.0,684.5,329.0,684.5,337.0,684.5,345.0,684.5,353.0,685.0,361.5,685.5,369.5,685.5,377.5,684.5,385.5,684.0,394.0,684.0,402.0,684.0,410.0,683.5,418.5,683.5,426.5,683.0,434.0,683.5,442.0,683.5,450.0,683.5,458.0,683.0,465.5,683.0,473.5,682.5,481.0,683.0,489.0,683.0,497.0,683.0,505.0,683.5" stroke="black" stroke-width="2" fill="none" />
<polyline points="330.0,603.0,322.0,610.5,314.5,618.5" stroke="black" stroke-width="2" fill="none" />
<polyline points="309.0,610.5,316.5,610.0,324.0,609.0" stroke="black" stroke-width="2" fill="none" />
<polyline points="323.5,602.0,315.0,602.0" stroke="black" stroke-width="2" fill="none" />
<polyline points="315.0,608.5,311.0,603.0,314.5,595.0,311.5,587.0,314.0,579.5,319.0,572.0,326.5,570.0,319.5,568.0,311.5,570.5,309.0,574.5,312.5,568.0,320.5,559.5,321.0,558.5,313.0,552.0,305.0,559.5,305.0,559.5,311.0,552.0,309.0,559.0" stroke="black" stroke-width="2" fill="none" />
<polyline points="315.0,554.0,323.5,554.0,332.0,553.0,340.0,552.0" stroke="black" stroke-width="2" fill="none" />
<polyline points="339.5,549.0,331.5,556.5,323.5,563.5,315.5,570.5,308.0,577.5,300.0,585.0,292.5,592.5" stroke="black" stroke-width="2" fill="none" />
<polyline points="284.5,596.0,276.0,603.5,267.0,611.0,259.0,619.0,251.0,626.5,243.0,634.0" stroke="black" stroke-width="2" fill="none" />
<polyline points="253.5,634.5,261.0,626.5,268.0,619.0,276.0,611.0,284.0,603.5" stroke="black" stroke-width="2" fill="none" />
<polyline points="283.5,611.0,276.0,618.5,267.5,626.5" stroke="black" stroke-width="2" fill="none" />
<polyline points="277.0,626.5,285.0,618.0,293.5,610.5" stroke="black" stroke-width="2" fill="none" />
<polyline points="301.0,616.5,309.0,615.5,317.0,615.5" stroke="black" stroke-width="2" fill="none" />
<polyline points="306.0,619.0,298.5,619.5,290.5,620.5,283.0,621.0,275.0,621.0,267.0,621.5,259.0,622.0,251.0,622.5,243.0,623.5,236.0,624.5,228.0,625.5,219.5,626.5,211.5,627.0,203.5,627.5,196.0,627.5,188.0,627.5,180.0,627.5,172.0,627.5,164.0,628.0,156.0,628.0,148.5,628.5,140.5,628.0,132.0,628.5" stroke="black" stroke-width="2" fill="none" />
<polyline points="155.5,638.5,163.5,638.0,172.0,637.5,180.0,637.0,187.5,636.0,195.5,635.5,203.5,635.0,211.0,634.5,218.5,634.0,226.0,634.0,233.5,633.5,242.0,633.0,250.5,632.5,259.0,632.0,267.0,632.0,275.0,631.5" stroke="black" stroke-width="2" fill="none" />
<polyline points="281.5,624.0,290.5,616.5,299.0,609.0,308.0,601.5,316.5,594.0,325.5,586.0,334.0,578.5" stroke="black" stroke-width="2" fill="none" />
<polyline points="332.5,585.5,324.5,593.0,316.5,601.0,308.5,608.5,300.5,616.0,292.0,624.0" stroke="black" stroke-width="2" fill="none" />
<polyline points="301.0,625.5,309.0,618.0,317.0,610.5,325.0,603.5,333.0,596.0" stroke="black" stroke-width="2" fill="none" />
<polyline points="315.5,585.5,322.5,578.5,329.5,571.0,337.5,563.5" stroke="black" stroke-width="2" fill="none" />
<polyline points="337.5,556.5,329.5,564.0,321.5,571.0" stroke="black" stroke-width="2" fill="none" />
<polyline points="319.5,575.5,315.5,584.5,320.0,576.5" stroke="black" stroke-width="2" fill="none" />
<polyline points="321.0,577.0,329.0,576.5" stroke="black" stroke-width="2" fill="none" />
<polyline points="316.0,580.5,308.5,588.0" stroke="black" stroke-width="2" fill="none" />
<polyline points="293.0,583.5,301.5,576.5,309.5,569.5,317.5,561.5,325.5,553.5,333.5,546.0,341.5,538.5,349.5,531.5" stroke="black" stroke-width="2" fill="none" />
<polyline points="341.5,528.5,350.0,520.5,358.0,513.5" stroke="black" stroke-width="2" fill="none" />
<polyline points="355.0,506.0,363.0,498.5" stroke="black" stroke-width="2" fill="none" />
<polyline points="365.0,498.0,357.0,498.5" stroke="black" stroke-width="2" fill="none" />
<polyline points="356.0,500.0,364.0,492.5" stroke="black" stroke-width="2" fill="none" />
<polyline points="365.0,488.5,357.5,488.5" stroke="black" stroke-width="2" fill="none" />
<polyline points="356.5,490.0,364.5,482.5" stroke="black" stroke-width="2" fill="none" />
<polyline points="370.5,481.0,374.5,471.0,371.0,479.0,366.0,479.5,374.0,462.5" stroke="black" stroke-width="2" fill="none" />
<polyline points="371.0,466.0,363.0,473.5,354.5,480.5" stroke="black" stroke-width="2" fill="none" />
<polyline points="356.5,483.5,364.5,483.0,372.0,483.0" stroke="black" stroke-width="2" fill="none" />
<polyline points="363.0,472.5,354.5,473.5,346.5,474.0" stroke="black" stroke-width="2" fill="none" />
<polyline points="348.0,480.0,339.5,480.5" stroke="black" stroke-width="2" fill="none" />
<polyline points="346.0,482.5,338.5,490.0,330.5,497.0,322.5,504.5,315.0,512.5,307.5,520.0,299.0,527.5,291.5,535.0" stroke="black" stroke-width="2" fill="none" />
<polyline points="297.5,540.0,290.5,548.0,284.5,552.0,289.5,560.0,281.0,569.5,284.0,577.5,278.0,585.5,280.0,598.5,280.0,596.0,286.5,598.0" stroke="black" stroke-width="2" fill="none" />
<polyline points="274.0,595.5,266.0,603.0,259.0,610.5,251.5,618.5,244.0,626.5,236.0,634.5" stroke="black" stroke-width="2" fill="none" />
<polyline points="235.0,625.5,243.0,618.0,251.0,609.5,259.0,601.5,267.0,593.5,275.0,586.0" stroke="black" stroke-width="2" fill="none" />
<polyline points="273.0,577.5,265.0,585.0" stroke="black" stroke-width="2" fill="none" />
<polyline points="265.5,580.0,273.0,573.0" stroke="black" stroke-width="2" fill="none" />
<polyline points="274.0,565.5,266.0,573.5,258.0,580.5,249.5,587.5,242.0,594.5,234.5,602.5,227.0,609.5,220.0,617.0,212.5,625.0" stroke="black" stroke-width="2" fill="none" />
<polyline points="219.0,625.0,227.0,625.0,235.0,625.0,243.5,624.5,252.0,624.0,260.0,623.5,268.0,623.0,276.0,622.5,283.5,622.0" stroke="black" stroke-width="2" fill="none" />
<polyline points="260.0,617.0,252.5,618.0" stroke="black" stroke-width="2" fill="none" />
<polyline points="256.5,617.0,264.5,619.0,273.0,617.5" stroke="black" stroke-width="2" fill="none" />
<polyline points="276.5,608.0,268.0,609.0,260.5,609.5,252.5,610.0,244.5,610.5" stroke="black" stroke-width="2" fill="none" />
<polyline points="244.0,592.0,236.0,593.5,228.0,594.0,220.0,594.5,212.0,595.0" stroke="black" stroke-width="2" fill="none" />
<polyline points="218.5,600.5,226.5,592.5,234.5,584.5,243.0,577.0,252.0,569.0,260.5,561.0,269.0,553.0,277.0,545.5" stroke="black" stroke-width="2" fill="none" />
<polyline points="276.0,542.5,284.0,542.0,292.0,541.0,300.0,541.0,308.0,540.5,316.0,540.0,324.0,539.5,332.5,539.5,340.5,539.0,349.0,538.0" stroke="black" stroke-width="2" fill="none" />
<polyline points="332.0,539.0,324.0,546.5,316.0,553.5,308.0,561.0,300.0,569.0,292.0,576.5" stroke="black" stroke-width="2" fill="none" />
<polyline points="292.0,571.5,300.0,571.0,308.0,570.5" stroke="black" stroke-width="2" fill="none" />
<polyline points="309.0,562.0,301.0,562.5" stroke="black" stroke-width="2" fill="none" />
<polyline points="292.5,560.0,300.5,553.0,308.5,545.5" stroke="black" stroke-width="2" fill="none" />
<polyline points="313.0,544.5,321.5,544.0,329.5,544.0,338.0,543.5" stroke="black" stroke-width="2" fill="none" />
<polyline points="339.5,546.5,332.0,547.0,324.5,547.5,317.0,548.5,309.0,549.5,301.0,550.0,292.5,550.5,284.0,550.5,276.0,551.0,268.0,551.5,260.0,552.0,252.0,553.0,243.5,553.5,235.5,554.0,227.0,554.5,219.0,555.0,210.5,555.0,203.0,555.5,195.0,556.0,187.5,557.0,180.0,557.5" stroke="black" stroke-width="2" fill="none" />
<polyline points="179.5,561.5,187.0,553.5,195.0,546.0,203.5,538.5,211.5,531.5" stroke="black" stroke-width="2" fill="none" />
<polyline points="212.0,537.0,220.0,537.0" stroke="black" stroke-width="2" fill="none" />
<polyline points="220.0,532.0,212.0,540.0,204.5,547.5,196.5,555.0,188.0,562.5" stroke="black" stroke-width="2" fill="none" />
<polyline points="187.0,561.0,194.5,561.0,202.0,561.0" stroke="black" stroke-width="2" fill="none" />
<polyline points="203.0,563.5,195.5,571.0,187.5,578.5" stroke="black" stroke-width="2" fill="none" />
<polyline points="186.5,585.0,195.0,578.0,203.0,570.5,211.5,563.0,219.5,555.5,227.0,548.0,234.5,540.0" stroke="black" stroke-width="2" fill="none" />
<polyline points="225.5,540.5,217.5,548.0,209.5,555.0" stroke="black" stroke-width="2" fill="none" />
<polyline points="213.5,555.0,221.5,554.5,229.0,554.0,236.5,554.0,244.0,554.0,251.0,553.5,259.0,552.5" stroke="black" stroke-width="2" fill="none" />
<polyline points="259.5,546.5,251.0,554.0,242.5,561.5,234.5,569.0" stroke="black" stroke-width="2" fill="none" />
<polyline points="229.0,570.5,223.0,578.5,233.5,581.5" stroke="black" stroke-width="2" fill="none" />
<polyline points="236.0,578.5,244.0,577.5,252.0,576.5,259.5,576.0,267.0,575.5" stroke="black" stroke-width="2" fill="none" />
<polyline points="264.5,568.5,256.5,569.5" stroke="black" stroke-width="2" fill="none" />
<polyline points="252.0,561.5,260.0,561.0" stroke="black" stroke-width="2" fill="none" />
<polyline points="251.5,563.0,243.5,564.5" stroke="black" stroke-width="2" fill="none" />
<polyline points="244.0,568.0,236.0,568.5,227.5,568.5,219.5,568.5" stroke="black" stroke-width="2" fill="none" />
<polyline points="219.0,561.5,227.5,560.5,235.5,560.5,244.0,560.0" stroke="black" stroke-width="2" fill="none" />
<polyline points="246.5,560.0,243.5,568.0,248.5,586.0,244.5,594.0" stroke="black" stroke-width="2" fill="none" />
<polyline points="241.5,586.5,249.5,586.0" stroke="black" stroke-width="2" fill="none" />
<polyline points="258.5,590.0,250.5,597.5,243.0,604.5,235.0,611.5,227.0,618.5,219.5,625.0" stroke="black" stroke-width="2" fill="none" />
<polyline points="219.5,625.5,227.5,627.0" stroke="black" stroke-width="2" fill="none" />
<polyline points="227.0,626.5,235.5,619.5,244.0,612.5,252.0,605.0,259.5,597.5" stroke="black" stroke-width="2" fill="none" />
<polyline points="259.0,594.0,260.0,590.0,260.0,582.0" stroke="black" stroke-width="2" fill="none" />
<polyline points="284.0,578.0,292.0,571.0,300.5,563.0,308.5,555.5,316.5,548.5,324.5,541.0" stroke="black" stroke-width="2" fill="none" />
<polyline points="331.5,538.0,335.0,546.0" stroke="black" stroke-width="2" fill="none" />
<polyline points="332.0,529.5,340.0,522.0,348.5,514.5" stroke="black" stroke-width="2" fill="none" />
<polyline points="349.5,508.5,357.5,508.0,365.0,507.5" stroke="black" stroke-width="2" fill="none" />
<polyline points="364.0,501.0,355.5,501.5,347.5,502.5" stroke="black" stroke-width="2" fill="none" />
<polyline points="353.0,507.0,361.0,494.5" stroke="black" stroke-width="2" fill="none" />
<polyline points="363.0,491.0,354.5,491.5,346.0,491.5,338.0,492.5,330.5,493.5,322.5,494.5" stroke="black" stroke-width="2" fill="none" />
<polyline points="325.5,497.5,333.5,490.0,341.5,482.5,349.5,475.0,357.5,467.5" stroke="black" stroke-width="2" fill="none" />
<polyline points="358.5,471.5,347.5,479.5,341.0,487.5,341.0,495.5,335.0,503.5,328.0,511.5,323.0,520.0,318.0,528.0,315.5,536.5,308.5,547.5,305.5,550.5" stroke="black" stroke-width="2" fill="none" />
<polyline points="297.0,554.5,305.5,544.5,303.5,546.5,297.5,555.0,297.0,563.0,296.0,571.0,294.5,578.5,289.0,586.5,290.5,595.5" stroke="black" stroke-width="2" fill="none" />
<polyline points="276.5,599.0,269.0,599.0,261.0,599.5,252.5,600.0,244.0,601.0,236.0,601.5,228.0,602.0,220.0,602.5" stroke="black" stroke-width="2" fill="none" />
<polyline points="213.5,603.5,205.5,610.5,197.5,617.5" stroke="black" stroke-width="2" fill="none" />
<polyline points="197.5,619.0,205.0,618.0,212.5,617.0,220.0,616.5" stroke="black" stroke-width="2" fill="none" />
<polyline points="219.0,613.0,211.0,620.5,202.5,628.0" stroke="black" stroke-width="2" fill="none" />
<polyline points="196.0,626.5,203.5,619.5,211.5,612.0" stroke="black" stroke-width="2" fill="none" />
<polyline points="203.5,601.5,195.0,601.5" stroke="black" stroke-width="2" fill="none" />
<polyline points="194.0,594.5,200.0,595.5,201.0,596.5,205.0,604.0,208.0,602.0,212.0,610.0,217.0,602.0,213.0,610.0,221.0,612.5,229.5,615.5" stroke="black" stroke-width="2" fill="none" />
<polyline points="221.0,616.0,210.5,607.5,207.5,604.5,195.0,598.0,198.5,590.0,190.0,584.0,186.0,576.5,182.5,568.5,177.5,561.5" stroke="black" stroke-width="2" fill="none" />
<polyline points="179.0,565.5,187.0,565.5,195.0,565.0,203.5,564.5,212.5,563.5,220.5,563.0,229.0,562.5,237.0,562.5,244.5,562.0,252.0,560.5,260.0,560.0,268.0,560.0,276.0,559.5,284.0,559.5,292.0,559.0,300.5,558.5,308.0,558.0,315.5,557.5,323.5,557.0,332.0,556.5,340.0,555.5" stroke="black" stroke-width="2" fill="none" />
<polyline points="342.5,560.5,334.5,561.5,326.5,562.5,318.0,563.0" stroke="black" stroke-width="2" fill="none" />
<polyline points="316.5,538.0,308.0,539.0,300.0,539.0" stroke="black" stroke-width="2" fill="none" />
<polyline points="299.5,537.0,307.5,530.5,316.0,523.0,324.0,515.5,332.0,508.0,340.5,501.0" stroke="black" stroke-width="2" fill="none" />
<polyline points="339.5,497.5,332.0,497.5" stroke="black" stroke-width="2" fill="none" />
<polyline points="330.5,504.0,322.5,505.0" stroke="black" stroke-width="2" fill="none" />
<polyline points="329.5,509.0,337.5,502.0,344.5,485.0,352.5,477.0,360.0,471.5" stroke="black" stroke-width="2" fill="none" />
<polyline points="357.0,472.5,365.5,465.5,373.0,458.5,381.5,451.0" stroke="black" stroke-width="2" fill="none" />
<polyline points="381.0,444.0,373.0,451.0" stroke="black" stroke-width="2" fill="none" />
<polyline points="370.0,446.5,378.0,446.5" stroke="black" stroke-width="2" fill="none" />
<polyline points="372.0,437.5,379.5,437.0,387.0,437.0" stroke="black" stroke-width="2" fill="none" />
<polyline points="388.0,428.5,380.0,429.0" stroke="black" stroke-width="2" fill="none" />
<polyline points="378.0,428.5,386.0,421.0" stroke="black" stroke-width="2" fill="none" />
<polyline points="389.0,421.5,381.5,422.5" stroke="black" stroke-width="2" fill="none" />
<polyline points="379.0,414.0,386.5,414.0" stroke="black" stroke-width="2" fill="none" />
<polyline points="387.5,403.0,395.5,395.5" stroke="black" stroke-width="2" fill="none" />
<polyline points="395.5,388.0,388.0,395.5" stroke="black" stroke-width="2" fill="none" />
<polyline points="355.5,389.5,348.0,397.0,340.0,405.0,332.5,412.5,324.0,420.0,316.0,427.5" stroke="black" stroke-width="2" fill="none" />
<polyline points="315.0,426.5,323.0,426.0" stroke="black" stroke-width="2" fill="none" />
<polyline points="322.5,415.5,314.5,415.5,306.5,416.0,298.5,417.0" stroke="black" stroke-width="2" fill="none" />
<polyline points="300.0,418.0,308.0,410.5,316.0,402.5,323.5,394.5,331.5,386.5,339.0,379.5" stroke="black" stroke-width="2" fill="none" />
<polyline points="332.5,376.0,340.5,375.0,348.5,374.0,356.5,373.0,363.5,372.0,371.5,371.0,379.5,370.0,388.0,369.0,396.5,368.0,404.5,368.0" stroke="black" stroke-width="2" fill="none" />
<polyline points="403.0,360.5,395.0,361.0,387.5,361.5,379.5,362.5,371.5,363.5,363.5,364.0,355.5,364.5,348.0,365.5,340.5,366.0,333.0,366.5" stroke="black" stroke-width="2" fill="none" />
<polyline points="324.5,364.0,316.5,365.0,308.0,366.0,299.5,366.5,292.0,367.0,284.0,367.5,276.5,368.0,269.0,369.0,261.5,370.0,253.5,370.0,245.5,370.5,237.5,371.5,229.5,372.0,221.5,373.0,213.5,373.5,205.5,373.5,197.0,374.0,188.5,374.0,180.5,374.5" stroke="black" stroke-width="2" fill="none" />
<polyline points="177.0,375.5,185.5,368.0,193.5,361.0,202.0,354.0,210.0,346.5" stroke="black" stroke-width="2" fill="none" />
<polyline points="210.0,342.0,218.0,341.0" stroke="black" stroke-width="2" fill="none" />
<polyline points="219.0,346.0,211.0,353.5,203.0,362.0,194.5,369.5,186.5,377.5,178.5,385.5" stroke="black" stroke-width="2" fill="none" />
<polyline points="179.0,386.5,187.0,386.0,195.0,385.5,203.5,384.5,212.0,383.5,220.0,383.0" stroke="black" stroke-width="2" fill="none" />
<polyline points="216.5,385.0,224.5,385.5" stroke="black" stroke-width="2" fill="none" />
<polyline points="226.5,386.0,234.0,378.0,242.5,370.0,250.0,362.5" stroke="black" stroke-width="2" fill="none" />
<polyline points="253.0,360.5,261.0,353.0" stroke="black" stroke-width="2" fill="none" />
<polyline points="259.0,361.0,251.0,368.5" stroke="black" stroke-width="2" fill="none" />
<polyline points="245.0,379.0,237.0,386.5" stroke="black" stroke-width="2" fill="none" />
<polyline points="241.0,395.0,249.5,387.5,257.5,379.5,265.5,373.0,274.0,365.5,282.5,358.5,291.0,351.0,299.5,343.5,307.5,336.5,315.5,329.5,323.5,322.0,331.5,314.5,339.5,307.0" stroke="black" stroke-width="2" fill="none" />
<polyline points="331.0,308.5,323.0,316.0,315.0,323.5" stroke="black" stroke-width="2" fill="none" />
<polyline points="316.0,319.5,323.5,319.0,331.5,318.5" stroke="black" stroke-width="2" fill="none" />
<polyline points="329.5,317.5,337.5,311.5,337.0,323.5" stroke="black" stroke-width="2" fill="none" />
<polyline points="339.0,322.5,331.5,330.0,323.0,337.0,315.0,344.0,306.0,351.5,298.0,359.0,290.0,366.5,281.5,374.5,273.5,382.0,265.5,389.5,257.0,396.5,249.0,404.5" stroke="black" stroke-width="2" fill="none" />
<polyline points="249.5,400.0,255.0,408.0,254.0,415.5,262.0,414.5,269.5,413.5,272.0,408.5,280.0,405.5" stroke="black" stroke-width="2" fill="none" />
<polyline points="277.5,408.5,269.5,409.0" stroke="black" stroke-width="2" fill="none" />
<polyline points="274.0,401.5,265.0,402.5,257.0,403.5" stroke="black" stroke-width="2" fill="none" />
<polyline points="253.5,405.5,261.5,404.5" stroke="black" stroke-width="2" fill="none" />
<polyline points="253.5,398.5,261.5,391.0,269.5,383.5,276.5,376.5,283.5,369.5,291.5,362.0,299.0,355.0,307.0,348.0,315.5,340.5,323.5,333.0,332.0,326.0" stroke="black" stroke-width="2" fill="none" />
<polyline points="340.0,330.0,348.0,329.5,356.0,329.0" stroke="black" stroke-width="2" fill="none" />
<polyline points="364.0,322.5,356.0,330.0,347.5,337.5,339.5,345.5" stroke="black" stroke-width="2" fill="none" />
<polyline points="330.5,343.5,337.5,336.5,346.0,329.5,353.5,322.0,361.5,315.0,369.5,307.5,377.5,299.5,386.5,292.0" stroke="black" stroke-width="2" fill="none" />
<polyline points="388.0,294.5,380.0,295.0,372.0,295.0" stroke="black" stroke-width="2" fill="none" />
<polyline points="364.5,297.5,372.5,290.0,380.5,282.5,389.0,275.0" stroke="black" stroke-width="2" fill="none" />
<polyline points="388.0,283.0,386.5,291.0,391.5,299.0" stroke="black" stroke-width="2" fill="none" />
<polyline points="393.5,300.0,386.0,307.5,378.5,315.0" stroke="black" stroke-width="2" fill="none" />
<polyline points="371.0,312.5,379.5,305.0,387.5,297.5,395.0,290.0,403.5,282.5" stroke="black" stroke-width="2" fill="none" />
<polyline points="409.0,282.5,401.0,290.0" stroke="black" stroke-width="2" fill="none" />
<polyline points="402.5,298.5,410.5,291.5" stroke="black" stroke-width="2" fill="none" />
<polyline points="411.5,308.0,403.5,316.0,395.0,323.5" stroke="black" stroke-width="2" fill="none" />
<polyline points="394.5,314.5,402.5,306.5" stroke="black" stroke-width="2" fill="none" />
<polyline points="395.0,309.0,387.0,316.5" stroke="black" stroke-width="2" fill="none" />
<polyline points="388.5,313.0,396.0,312.5,404.0,312.5" stroke="black" stroke-width="2" fill="none" />
<polyline points="394.5,302.5,387.0,303.5,379.0,304.0,371.0,304.0,363.0,305.0" stroke="black" stroke-width="2" fill="none" />
<polyline points="356.5,307.0,348.5,314.5" stroke="black" stroke-width="2" fill="none" />
<polyline points="356.0,310.5,364.0,303.0,372.0,295.5,380.0,288.5,388.0,281.0,396.0,273.5,404.5,266.0" stroke="black" stroke-width="2" fill="none" />
<polyline points="403.5,274.5,396.0,282.0" stroke="black" stroke-width="2" fill="none" />
<polyline points="388.5,286.0,380.0,286.5,372.0,286.5,363.5,287.0,355.0,288.0,347.0,288.0" stroke="black" stroke-width="2" fill="none" />
<polyline points="345.5,285.5,337.5,293.0" stroke="black" stroke-width="2" fill="none" />
<polyline points="334.5,292.5,342.0,287.5" stroke="black" stroke-width="2" fill="none" />
<polyline points="347.0,295.5,354.5,295.0" stroke="black" stroke-width="2" fill="none" />
<polyline points="351.5,296.0,353.5,303.5,356.5,313.5,356.0,321.0,355.5,329.5,357.0,334.5,354.5,342.0,346.5,347.0,348.5,355.5,351.0,363.0,350.5,371.5,342.0,379.5,333.0,384.0,327.5,391.0,329.0,391.0" stroke="black" stroke-width="2" fill="none" />
<polyline points="331.0,380.5,323.0,388.5,315.0,396.0,307.0,403.5,300.0,410.5,292.5,417.5" stroke="black" stroke-width="2" fill="none" />
<polyline points="293.0,411.0,301.0,404.0,309.0,396.5,317.0,389.0" stroke="black" stroke-width="2" fill="none" />
<polyline points="315.0,395.0,323.0,395.0,331.5,394.0" stroke="black" stroke-width="2" fill="none" />
<polyline points="340.0,394.0,347.5,393.5" stroke="black" stroke-width="2" fill="none" />
<polyline points="346.5,385.0,354.5,384.5" stroke="black" stroke-width="2" fill="none" />
<polyline points="356.5,380.5,348.5,388.0,340.0,395.0,332.0,403.0,324.0,411.0,316.0,419.0,307.5,426.0" stroke="black" stroke-width="2" fill="none" />
<polyline points="308.5,422.0,309.0,430.0" stroke="black" stroke-width="2" fill="none" />
<polyline points="299.0,427.5,307.5,427.0,315.5,426.5,324.0,426.5,332.0,427.0,340.0,426.5,348.5,426.5,356.5,426.5,364.5,426.0" stroke="black" stroke-width="2" fill="none" />
<polyline points="364.5,452.5,372.5,452.0,380.0,451.0" stroke="black" stroke-width="2" fill="none" />
<polyline points="373.5,464.5,366.0,465.0" stroke="black" stroke-width="2" fill="none" />
<polyline points="347.5,465.5,339.5,473.0" stroke="black" stroke-width="2" fill="none" />
<polyline points="341.5,469.0,350.0,468.5,358.0,468.0,366.0,468.0,374.0,468.0" stroke="black" stroke-width="2" fill="none" />
<polyline points="380.5,458.5,373.0,459.5,365.5,460.5,358.0,461.0,350.5,462.0,342.5,462.5" stroke="black" stroke-width="2" fill="none" />
<polyline points="339.5,454.0,347.5,453.5,355.5,453.0" stroke="black" stroke-width="2" fill="none" />
<polyline points="362.5,444.5,354.0,445.0,346.0,445.0,338.0,445.0" stroke="black" stroke-width="2" fill="none" />
<polyline points="331.5,438.5,339.5,437.5,347.5,437.0,355.5,436.0,363.5,435.0" stroke="black" stroke-width="2" fill="none" />
<polyline points="341.0,410.0,349.0,402.5" stroke="black" stroke-width="2" fill="none" />
<polyline points="349.0,399.5,340.0,400.0,331.5,400.5,323.0,401.0,315.0,401.5,307.0,401.5" stroke="black" stroke-width="2" fill="none" />
<polyline points="307.5,417.5,315.5,410.0,323.5,402.0,331.0,394.0,338.5,386.0,346.5,378.5,354.5,371.0" stroke="black" stroke-width="2" fill="none" />
<polyline points="357.0,362.5,365.0,354.5" stroke="black" stroke-width="2" fill="none" />
<polyline points="364.0,346.5,356.0,354.0,347.5,362.0" stroke="black" stroke-width="2" fill="none" />
<polyline points="341.0,358.0,349.0,357.5,358.0,357.5,366.0,356.5,373.5,355.5,381.0,355.0,389.0,354.5,397.5,353.5,405.0,353.0" stroke="black" stroke-width="2" fill="none" />
<polyline points="403.5,343.0,395.5,343.5,387.5,343.5,379.5,344.0,372.0,344.5,364.0,345.0,357.0,345.5,349.5,346.0,341.0,346.5,333.5,346.5,326.0,346.5,317.5,346.5,309.5,346.5,301.5,346.5,293.5,346.5,285.5,346.5,277.5,347.0,269.5,347.5" stroke="black" stroke-width="2" fill="none" />
<polyline points="268.5,341.5,276.5,345.5" stroke="black" stroke-width="2" fill="none" />
<polyline points="276.0,340.0,283.5,340.0,291.0,340.0,299.0,340.0,306.5,339.5,314.0,339.5,322.0,338.5,330.0,337.5,338.0,337.0,346.5,336.5,354.5,336.0,362.5,335.0,370.5,334.5,378.5,334.5,387.0,334.0,396.0,334.0,404.5,333.5" stroke="black" stroke-width="2" fill="none" />
<polyline points="412.5,308.0,404.5,308.5,396.0,309.5,388.0,311.0,379.5,311.5,372.0,311.5,364.5,311.5,356.5,311.5,348.5,311.5,340.0,312.0,332.0,312.5,324.5,312.5,317.0,313.0,310.0,313.0,302.0,313.5,294.0,314.0,285.5,315.0,277.5,316.0,269.5,317.0,261.0,317.5" stroke="black" stroke-width="2" fill="none" />
<polyline points="259.0,321.5,251.0,329.0" stroke="black" stroke-width="2" fill="none" />
<polyline points="253.5,333.5,261.5,333.0,269.5,332.5,277.5,332.0,285.5,332.0,294.0,331.5,302.5,331.0,310.5,330.5,318.5,330.5,326.5,330.0,334.5,329.5,342.0,328.5,349.5,328.5,356.5,327.5,363.5,327.0,371.0,326.0,378.5,325.0,386.5,324.0,395.0,323.0,403.0,322.0,411.0,321.5" stroke="black" stroke-width="2" fill="none" />
<polyline points="413.0,302.5,405.0,303.0,396.5,303.0,388.5,303.0,380.5,303.0,372.5,303.5,364.0,304.5,356.0,305.0,348.0,305.0,340.0,305.5,332.0,306.0,324.5,305.5,316.5,305.5,308.5,305.5,301.0,306.0,293.5,306.5,285.0,306.5,277.0,307.0,268.5,308.0,260.0,308.5" stroke="black" stroke-width="2" fill="none" />
<polyline points="260.5,311.0,268.5,305.0,261.0,311.0,259.0,319.0,263.0,326.0" stroke="black" stroke-width="2" fill="none" />
<polyline points="268.0,322.5,276.5,321.5,284.5,321.5,292.5,321.0,300.0,321.0,308.5,320.0" stroke="black" stroke-width="2" fill="none" />
<polyline points="309.0,323.5,317.0,315.5,325.0,308.5,332.5,301.5" stroke="black" stroke-width="2" fill="none" />
<polyline points="341.0,298.0,349.5,290.5,357.5,283.0" stroke="black" stroke-width="2" fill="none" />
<polyline points="364.0,281.5,371.5,281.0,379.5,280.0" stroke="black" stroke-width="2" fill="none" />
<polyline points="381.0,276.0,373.0,283.5,364.0,291.0,356.0,298.5,348.5,306.0" stroke="black" stroke-width="2" fill="none" />
<polyline points="347.0,297.0,355.0,289.0,363.0,281.0,371.0,273.5,379.5,266.0" stroke="black" stroke-width="2" fill="none" />
<polyline points="377.0,257.5,369.0,265.5,361.0,273.0" stroke="black" stroke-width="2" fill="none" />
<polyline points="361.5,268.5,370.0,268.0,378.5,268.0,387.0,268.0,395.0,268.5,403.0,268.5" stroke="black" stroke-width="2" fill="none" />
<polyline points="404.0,262.0,395.5,262.5" stroke="black" stroke-width="2" fill="none" />
<polyline points="398.0,258.5,400.5,266.5,402.5,274.5,406.0,282.5,408.0,290.5,407.5,298.5,408.5,308.5,407.5,316.5,407.0,324.0,402.0,326.5,402.0,334.5,401.0,342.5,399.5,350.5,397.5,359.0,394.0,367.5,391.0,375.5,389.5,384.0,387.5,392.0,384.0,400.5,381.5,408.5,379.5,416.5,377.5,424.5,377.0,432.0,375.0,440.0,370.5,447.5,367.0,455.5,355.5,463.5,339.5,470.5,335.5,478.0,330.5,486.0,323.5,493.5,316.5,502.0,313.5,510.0,308.5,518.0,307.5,506.5" stroke="black" stroke-width="2" fill="none" />
<polyline points="310.5,505.0,305.0,513.0,302.0,521.0,294.0,530.0,289.5,538.0,276.5,549.0,272.0,557.5,269.0,565.5,269.0,574.0,273.0,580.0" stroke="black" stroke-width="2" fill="none" />
<polyline points="284.5,574.5,292.0,574.0,299.5,574.0,307.0,573.0,314.5,571.5,322.5,570.5,330.5,570.0,338.5,570.0" stroke="black" stroke-width="2" fill="none" />
<polyline points="347.0,529.0,339.0,529.5,331.5,530.0,323.0,530.0,314.5,530.0,306.0,530.5,297.5,531.0,289.0,531.5,281.0,532.0,273.5,532.5,265.5,533.0" stroke="black" stroke-width="2" fill="none" />
<polyline points="266.5,526.5,275.0,525.5,283.0,525.0,291.0,524.0,298.5,523.0,306.0,522.5,314.5,522.0,323.0,521.5,331.0,521.5,339.5,521.5,347.5,520.5,356.0,520.0" stroke="black" stroke-width="2" fill="none" />
<polyline points="354.5,512.0,347.0,513.5,339.0,514.5,331.5,515.5,324.5,516.0,316.0,517.5,307.5,518.5,299.5,519.5,292.0,519.5,284.0,520.0" stroke="black" stroke-width="2" fill="none" />
<polyline points="282.5,530.0,290.5,523.0,298.5,516.0" stroke="black" stroke-width="2" fill="none" />
<polyline points="305.5,515.0,298.0,522.5,290.5,530.0,283.0,537.5" stroke="black" stroke-width="2" fill="none" />
<polyline points="280.0,534.5,287.5,535.5,296.0,527.0,304.5,524.0" stroke="black" stroke-width="2" fill="none" />
<polyline points="308.5,529.0,316.5,528.5" stroke="black" stroke-width="2" fill="none" />
<polyline points="316.0,531.0,324.0,519.5" stroke="black" stroke-width="2" fill="none" />
<polyline points="323.0,524.0,315.0,531.5,307.0,539.5,299.5,547.0,291.5,554.5,283.5,561.5" stroke="black" stroke-width="2" fill="none" />
<polyline points="275.5,555.5,267.5,563.0,260.0,570.0,252.0,577.5,244.0,585.5,236.0,593.5,228.0,601.0" stroke="black" stroke-width="2" fill="none" />
<polyline points="226.0,607.0,230.0,615.0,232.5,616.5,238.5,614.5" stroke="black" stroke-width="2" fill="none" />
<polyline points="257.0,628.5,265.0,628.5,273.5,628.0,281.0,626.0,289.0,625.0,297.0,623.0,305.0,621.0,313.5,617.5,321.5,613.5,329.5,609.5" stroke="black" stroke-width="2" fill="none" />
<polyline points="324.0,609.0,315.5,609.0,307.5,609.0,299.5,609.5,292.0,610.0,284.0,610.5,276.0,610.5,268.0,610.5,259.5,611.0,251.0,611.5,243.0,612.5,235.0,613.0,227.0,614.0,219.0,614.0,211.0,614.5,203.0,615.0,195.0,615.0,186.5,615.5,179.0,615.5,171.0,616.0,163.0,616.5,155.0,617.5,147.0,618.5,139.0,618.5,131.5,619.0,123.5,619.5,115.5,620.5,107.5,621.0" stroke="black" stroke-width="2" fill="none" />
<polyline points="102.0,614.5,110.0,614.5,117.5,613.5,125.0,612.5,132.5,611.5,140.0,610.0,148.0,609.5,156.0,609.0,164.0,608.5,172.5,608.5,180.5,608.0,188.5,607.0,196.0,606.0,203.5,606.0,211.5,605.5,219.5,605.5,227.5,605.0,235.0,604.5,242.5,604.0,251.0,603.5,259.0,603.0,266.5,602.0,275.0,602.0,283.0,601.5,290.5,601.5,298.0,601.0,306.5,601.0,315.0,600.5,323.0,600.0,330.5,599.0" stroke="black" stroke-width="2" fill="none" />
<polyline points="338.5,590.5,330.5,591.0,322.5,591.5,314.5,592.0,307.0,592.5,299.0,593.0,291.5,594.0,283.5,594.5,276.0,595.0,268.5,596.0,260.5,596.5,252.0,597.0,244.5,597.5,237.0,597.5,229.0,597.5,220.5,597.0,212.5,597.5,204.5,597.0,197.0,597.5,188.5,597.5,180.5,597.0,172.5,597.5,164.5,598.5,156.5,600.0,148.0,601.0,140.0,602.0,132.0,603.0,124.0,604.0,116.0,604.0,108.0,604.5,101.0,605.0,93.0,606.0" stroke="black" stroke-width="2" fill="none" />
<polyline points="91.5,598.5,99.5,597.5,107.5,597.0,115.5,596.5,123.0,595.5,130.5,595.0,139.5,594.5,148.0,594.0,156.5,593.0,165.5,592.5,173.5,592.0,181.5,591.5,189.5,591.0,197.0,590.5,204.5,589.5,212.5,589.0,220.0,589.5,227.5,589.0,235.5,589.0,243.0,589.0,251.0,589.0,259.0,588.5,267.0,588.0,275.0,587.5,282.5,587.0,290.0,586.0,298.5,585.5,306.5,584.5,315.0,583.5,323.0,582.5,331.0,582.5,338.5,582.0,346.5,581.5" stroke="black" stroke-width="2" fill="none" />
<polyline points="349.5,538.5,341.5,539.0,333.5,539.5,325.5,540.5,317.0,541.0,308.5,541.0,299.5,541.0,291.5,541.0,283.5,541.5,276.0,542.5,267.5,543.0,259.5,544.5,251.0,544.5,243.0,545.5,235.0,545.5,228.0,545.5,220.5,545.5,213.0,546.0,205.0,547.0,197.5,547.5,189.5,548.5,181.0,548.5,172.0,549.0" stroke="black" stroke-width="2" fill="none" />
<polyline points="170.5,542.5,178.5,541.5,187.0,541.0,195.5,540.0,204.0,540.0,212.5,539.0,220.5,538.5,228.5,537.5,236.5,536.5,244.5,536.5,252.5,536.0,260.5,535.5,268.5,535.5" stroke="black" stroke-width="2" fill="none" />
<polyline points="269.5,539.0,278.0,531.0" stroke="black" stroke-width="2" fill="none" />
<polyline points="284.0,520.5,292.0,513.0,300.0,505.5" stroke="black" stroke-width="2" fill="none" />
<polyline points="299.0,499.5,291.0,507.0,283.5,514.0" stroke="black" stroke-width="2" fill="none" />
<polyline points="286.0,509.0,293.5,508.5,300.5,507.5,308.0,507.0,315.5,506.5,323.0,506.5,331.0,506.0,339.0,505.5" stroke="black" stroke-width="2" fill="none" />
<polyline points="339.5,500.5,331.5,500.5,324.0,500.5,316.0,501.0,308.0,501.5" stroke="black" stroke-width="2" fill="none" />
<polyline points="310.0,500.5,301.0,508.0,301.0,508.0,309.0,501.0,317.0,500.0,325.5,492.5,333.5,481.5,341.5,468.5,350.0,464.5,357.5,461.5,365.5,456.5,374.0,442.0" stroke="black" stroke-width="2" fill="none" />
<polyline points="347.5,485.0,340.0,485.0,332.0,485.5" stroke="black" stroke-width="2" fill="none" />
<polyline points="332.5,477.0,340.5,477.0,348.5,476.5,356.5,476.0,364.0,475.5,372.0,475.0" stroke="black" stroke-width="2" fill="none" />
<polyline points="351.0,489.5,355.0,480.5,351.5,489.0,349.5,497.0,351.0,504.5,350.5,512.5" stroke="black" stroke-width="2" fill="none" />
<polyline points="335.5,517.0,327.5,525.0,323.0,533.0,331.0,531.0,337.0,531.0" stroke="black" stroke-width="2" fill="none" />
<polyline points="324.5,526.5,332.5,520.0,340.0,516.0,348.0,514.0,344.5,524.5,343.5,533.0,342.5,541.0,341.5,549.0,339.5,557.0,336.5,565.0,333.5,574.0,328.5,582.5,329.0,583.5,324.0,591.5,320.0,595.0,326.0,605.5,318.0,617.5" stroke="black" stroke-width="2" fill="none" />
<polyline points="305.5,605.0,301.5,607.0,296.5,615.0" stroke="black" stroke-width="2" fill="none" />
<polyline points="267.5,549.0,259.5,556.5,251.5,563.5,242.5,571.0,234.0,578.5,226.0,585.5,217.5,593.0" stroke="black" stroke-width="2" fill="none" />
<polyline points="227.0,581.0,219.5,588.5,212.0,595.5,203.5,602.5,195.0,609.0,187.0,616.0" stroke="black" stroke-width="2" fill="none" />
<polyline points="188.0,611.0,196.5,610.0,204.5,609.5" stroke="black" stroke-width="2" fill="none" />
<polyline points="180.5,607.5,189.0,599.5,197.0,591.5,205.0,583.5,213.5,576.5,222.0,569.5,230.0,562.0,237.5,554.5,245.0,547.0" stroke="black" stroke-width="2" fill="none" />
<polyline points="244.5,539.5,252.0,532.0" stroke="black" stroke-width="2" fill="none" />
<polyline points="244.5,531.0,253.0,523.0" stroke="black" stroke-width="2" fill="none" />
<polyline points="258.0,532.0,250.0,533.0,242.0,533.0" stroke="black" stroke-width="2" fill="none" />
<polyline points="236.5,524.5,244.5,524.0,252.0,523.5" stroke="black" stroke-width="2" fill="none" />
<polyline points="252.0,514.5,244.5,516.0,236.5,516.5" stroke="black" stroke-width="2" fill="none" />
<polyline points="233.0,516.5,241.0,526.0,242.0,536.0,250.0,545.5" stroke="black" stroke-width="2" fill="none" />
<polyline points="258.5,538.5,250.0,546.0,243.0,553.5,235.0,561.0,227.0,569.0,219.0,577.0,210.5,584.5,202.0,592.0,193.5,599.0,185.0,606.0,177.0,613.0" stroke="black" stroke-width="2" fill="none" />
<polyline points="186.5,592.0,195.0,584.5,203.0,578.0,210.5,571.0,218.0,564.0,226.5,557.0,234.5,550.0" stroke="black" stroke-width="2" fill="none" />
<polyline points="235.0,545.5,227.5,546.0,219.5,546.5" stroke="black" stroke-width="2" fill="none" />
<polyline points="211.0,547.5,219.5,540.0,228.0,532.5" stroke="black" stroke-width="2" fill="none" />
<polyline points="236.0,530.0,228.0,531.0,220.0,531.5,212.0,532.0,203.5,533.0,195.5,533.5,187.0,534.0,179.0,534.5,171.0,535.0" stroke="black" stroke-width="2" fill="none" />
<polyline points="170.5,538.5,178.5,531.0,187.0,523.0,195.0,515.5" stroke="black" stroke-width="2" fill="none" />
<polyline points="189.5,514.5,181.5,522.0,173.0,530.0" stroke="black" stroke-width="2" fill="none" />
<polyline points="169.0,532.0,177.5,531.0,185.5,530.5" stroke="black" stroke-width="2" fill="none" />
<polyline points="189.5,530.0,193.5,538.5,191.5,546.5,188.0,552.5" stroke="black" stroke-width="2" fill="none" />
<polyline points="187.0,547.5,179.0,555.0" stroke="black" stroke-width="2" fill="none" />
<polyline points="178.5,553.0,186.5,552.5" stroke="black" stroke-width="2" fill="none" />
<polyline points="181.0,547.5,189.0,539.5" stroke="black" stroke-width="2" fill="none" />
<polyline points="195.0,539.5,203.0,532.5" stroke="black" stroke-width="2" fill="none" />
<polyline points="206.0,533.5,198.0,527.5" stroke="black" stroke-width="2" fill="none" />
<polyline points="200.5,527.5,203.0,535.5,207.0,543.0,208.5,553.0,209.0,561.0,210.5,559.0,213.5,565.5,223.0,569.0,228.0,572.5,229.0,577.5,239.0,592.5,249.0,587.5,257.0,586.5,264.5,582.5,272.0,587.5,274.5,588.5,282.5,583.5" stroke="black" stroke-width="2" fill="none" />
<polyline points="273.5,564.0,266.0,564.5,258.0,566.0,249.5,566.5,241.5,567.0,233.5,568.0,226.0,568.5,218.0,568.5,210.5,569.0,203.0,569.5,195.0,570.5,187.5,571.0,180.0,571.5,172.0,571.5,164.0,571.0,156.0,571.5,148.5,572.0,140.5,572.5,132.5,573.0,124.5,573.5" stroke="black" stroke-width="2" fill="none" />
<polyline points="100.5,582.5,108.5,582.0,116.0,581.0,124.0,580.0,132.5,579.0,140.5,578.0,148.5,577.5,156.0,577.0,164.0,576.5,171.5,576.0,179.5,575.5,187.5,574.5,196.0,574.5,204.0,574.0,212.0,573.5,220.0,573.5,228.0,573.0,235.5,573.0,243.5,572.5,251.5,572.5,259.5,571.5,267.5,571.0,275.0,571.0,282.5,570.5,290.0,570.5,297.5,570.0,305.5,569.0,313.5,568.0,322.0,567.5,330.5,567.5,339.0,567.0" stroke="black" stroke-width="2" fill="none" />
<polyline points="322.5,520.5,314.5,521.0" stroke="black" stroke-width="2" fill="none" />
<polyline points="321.5,513.5,329.0,513.0" stroke="black" stroke-width="2" fill="none" />
<polyline points="297.0,490.0,289.0,498.0,280.5,505.5" stroke="black" stroke-width="2" fill="none" />
<polyline points="285.0,503.0,293.0,503.0" stroke="black" stroke-width="2" fill="none" />
<polyline points="301.0,498.5,292.5,499.0,284.5,499.5" stroke="black" stroke-width="2" fill="none" />
<polyline points="284.0,498.0,292.5,490.5" stroke="black" stroke-width="2" fill="none" />
<polyline points="293.5,487.0,301.0,486.5,308.0,486.0" stroke="black" stroke-width="2" fill="none" />
<polyline points="309.0,478.0,301.0,478.5" stroke="black" stroke-width="2" fill="none" />
<polyline points="299.0,486.5,297.5,479.5,293.5,487.5,289.0,489.5,297.0,481.5,305.0,476.5,303.0,483.5,299.0,491.0,296.0,499.0,295.0,507.0,298.5,515.5" stroke="black" stroke-width="2" fill="none" />
<polyline points="299.5,492.0,292.0,492.0,283.5,492.0,275.5,493.0" stroke="black" stroke-width="2" fill="none" />
<polyline points="273.5,497.5,281.0,490.0" stroke="black" stroke-width="2" fill="none" />
<polyline points="274.5,490.5,282.5,482.5" stroke="black" stroke-width="2" fill="none" />
<polyline points="284.5,484.5,276.5,485.0" stroke="black" stroke-width="2" fill="none" />
<polyline points="274.5,482.5,282.5,475.0" stroke="black" stroke-width="2" fill="none" />
<polyline points="278.0,470.0,269.5,476.5" stroke="black" stroke-width="2" fill="none" />
<polyline points="267.5,476.5,275.5,476.5,283.5,475.5" stroke="black" stroke-width="2" fill="none" />
<polyline points="284.5,468.0,277.5,468.0,269.5,468.5" stroke="black" stroke-width="2" fill="none" />
<polyline points="273.0,473.0,273.0,465.0,276.5,456.5,273.5,461.5" stroke="black" stroke-width="2" fill="none" />
<polyline points="278.5,462.5,280.0,470.5,280.0,478.5,282.0,487.0,283.5,495.0,285.0,503.5,288.0,513.5,287.0,524.0,277.5,532.0,275.5,540.0,272.5,544.0,265.5,550.0,278.0,548.0,286.0,551.0,294.0,546.0,296.5,538.0,309.5,541.0,322.5,537.5,330.5,536.5,338.5,537.5" stroke="black" stroke-width="2" fill="none" />
<polyline points="341.5,574.5,333.0,575.0,325.0,575.5,316.0,575.5,307.5,576.0,299.0,576.0,291.0,576.5,282.5,577.5,274.0,578.0,266.5,579.0,259.0,580.0,251.0,580.5,243.0,581.0,235.5,581.5,227.5,582.0,220.0,582.5,212.0,583.0,204.5,583.0,196.5,582.0,189.0,582.0,181.5,582.0,173.5,582.5,165.5,583.0,157.5,583.5,149.0,584.5,139.5,585.5,130.5,586.0,122.5,586.5,114.5,587.5,106.5,587.5,98.0,587.5,90.0,588.5" stroke="black" stroke-width="2" fill="none" />
<polyline points="182.0,565.5,190.0,581.5,197.0,584.5,204.5,595.5" stroke="black" stroke-width="2" fill="none" />
<polyline points="196.5,585.0,204.5,584.5,212.5,584.5,220.0,584.0,228.0,584.0" stroke="black" stroke-width="2" fill="none" />
<polyline points="232.0,576.5,239.0,586.5,237.0,594.0" stroke="black" stroke-width="2" fill="none" />
<polyline points="219.5,576.5,212.0,577.0,204.0,577.5,196.5,577.5" stroke="black" stroke-width="2" fill="none" />
<polyline points="194.5,569.0,202.0,569.0" stroke="black" stroke-width="2" fill="none" />
<polyline points="204.0,555.5,196.0,563.0,188.0,571.0" stroke="black" stroke-width="2" fill="none" />
<polyline points="194.0,553.5,202.5,553.0" stroke="black" stroke-width="2" fill="none" />
<polyline points="199.0,549.0,199.0,549.0,202.5,557.0,206.0,564.5" stroke="black" stroke-width="2" fill="none" />
<polyline points="202.0,544.5,194.0,545.5" stroke="black" stroke-width="2" fill="none" />
<polyline points="194.5,531.5,202.0,524.0" stroke="black" stroke-width="2" fill="none" />
<polyline points="196.0,524.5,188.5,532.0,181.0,539.0" stroke="black" stroke-width="2" fill="none" />
<polyline points="178.0,538.0,186.5,537.5" stroke="black" stroke-width="2" fill="none" />
<polyline points="194.0,528.0,202.0,527.0" stroke="black" stroke-width="2" fill="none" />
<polyline points="194.0,520.5,186.5,521.0,179.0,522.0,171.5,522.5" stroke="black" stroke-width="2" fill="none" />
<polyline points="173.0,522.5,181.0,514.5,189.5,506.5" stroke="black" stroke-width="2" fill="none" />
<polyline points="179.5,509.5,172.0,516.5" stroke="black" stroke-width="2" fill="none" />
<polyline points="165.0,518.5,172.5,518.0,180.5,517.0,188.5,516.5,196.0,515.5,204.0,515.0" stroke="black" stroke-width="2" fill="none" />
<polyline points="219.5,523.5,211.5,524.5,203.0,525.0,194.0,526.0,185.5,526.0,177.0,526.0,169.5,526.5" stroke="black" stroke-width="2" fill="none" />
<polyline points="164.5,515.5,172.5,508.0,180.0,500.5" stroke="black" stroke-width="2" fill="none" />
<polyline points="177.5,500.0,185.5,505.5,194.0,514.5,202.0,523.5,210.5,527.0,218.5,530.0,227.0,533.0,235.0,537.5" stroke="black" stroke-width="2" fill="none" />
<polyline points="231.5,513.0,239.5,511.5,242.5,515.5,244.5,523.5,247.5,532.0,254.5,540.0,256.5,548.0,251.5,550.5,256.5,556.5,264.5,558.0,274.5,551.0,286.5,562.0,285.5,575.0,290.5,581.0,299.5,585.0,303.0,585.5,311.0,586.0,315.5,578.0,317.5,571.5,329.5,569.5,336.5,560.5,346.5,543.5" stroke="black" stroke-width="2" fill="none" />
<polyline points="287.5,522.5,274.5,526.5,266.5,523.5" stroke="black" stroke-width="2" fill="none" />
<polyline points="268.5,522.0,265.5,530.0,260.5,538.0,260.0,538.0" stroke="black" stroke-width="2" fill="none" />
<polyline points="263.0,540.0,271.0,535.0" stroke="black" stroke-width="2" fill="none" />
<polyline points="287.0,505.0,275.0,494.0,275.5,485.0,267.5,474.5,266.5,461.5" stroke="black" stroke-width="2" fill="none" />
<polyline points="265.0,462.0,257.0,462.5" stroke="black" stroke-width="2" fill="none" />
<polyline points="264.0,459.5,267.0,467.5,271.5,475.5" stroke="black" stroke-width="2" fill="none" />
<polyline points="278.5,462.5,286.0,461.5" stroke="black" stroke-width="2" fill="none" />
<polyline points="259.0,452.5,259.5,453.0,260.0,461.0,263.0,468.5,266.0,476.5,271.0,484.0,271.0,492.0,279.0,500.0,282.0,508.0,281.0,516.0,278.5,524.0,271.5,535.0,264.5,543.0,264.5,551.0,257.0,559.5,258.0,573.0,270.5,576.0,273.5,583.5,275.5,589.5,273.0,597.0,278.0,605.0,277.0,613.0,285.5,615.0" stroke="black" stroke-width="2" fill="none" />
<polyline points="188.0,568.5,180.0,557.5,172.0,540.5" stroke="black" stroke-width="2" fill="none" />
<polyline points="179.5,548.0,187.5,547.5" stroke="black" stroke-width="2" fill="none" />
<polyline points="191.5,530.0,183.5,525.0" stroke="black" stroke-width="2" fill="none" />
<polyline points="184.5,525.5,186.5,534.0,186.5,542.0,185.5,549.5" stroke="black" stroke-width="2" fill="none" />
<polyline points="187.5,511.5,179.5,511.5,171.5,511.5,164.0,512.5" stroke="black" stroke-width="2" fill="none" />
<polyline points="164.0,508.5,172.0,508.5,180.0,508.5,188.0,508.0,195.5,507.5" stroke="black" stroke-width="2" fill="none" />
<polyline points="178.5,493.0,170.5,500.0,162.5,507.5" stroke="black" stroke-width="2" fill="none" />
<polyline points="163.0,505.0,170.5,504.0,179.0,504.0" stroke="black" stroke-width="2" fill="none" />
<polyline points="170.0,492.5,162.0,500.0" stroke="black" stroke-width="2" fill="none" />
<polyline points="161.5,498.0,161.5,497.5" stroke="black" stroke-width="2" fill="none" />
<polyline points="163.5,497.5,171.5,497.0" stroke="black" stroke-width="2" fill="none" />
<polyline points="169.5,483.5,161.5,491.5,153.5,499.0" stroke="black" stroke-width="2" fill="none" />
<polyline points="154.5,501.0,162.5,500.5,170.5,500.5,178.5,499.5,186.0,499.0" stroke="black" stroke-width="2" fill="none" />
<polyline points="162.5,483.0,154.5,491.0" stroke="black" stroke-width="2" fill="none" />
<polyline points="153.5,489.5,161.5,489.0,170.0,489.0" stroke="black" stroke-width="2" fill="none" />
<polyline points="178.5,492.0,170.5,492.5,162.5,493.0,154.5,493.0" stroke="black" stroke-width="2" fill="none" />
<polyline points="153.5,488.0,161.5,511.0,170.0,531.0" stroke="black" stroke-width="2" fill="none" />
<polyline points="179.5,484.5,172.0,485.0,164.5,485.5,156.0,485.5" stroke="black" stroke-width="2" fill="none" />
<polyline points="154.0,485.5,161.5,477.5" stroke="black" stroke-width="2" fill="none" />
<polyline points="164.0,478.5,172.5,484.5" stroke="black" stroke-width="2" fill="none" />
<polyline points="165.0,481.5,157.5,482.0" stroke="black" stroke-width="2" fill="none" />
<polyline points="156.0,478.5,164.0,478.0,172.0,477.5" stroke="black" stroke-width="2" fill="none" />
<polyline points="161.5,469.5,153.5,477.0" stroke="black" stroke-width="2" fill="none" />
<polyline points="155.0,474.5,162.5,474.0" stroke="black" stroke-width="2" fill="none" />
<polyline points="155.0,467.5,162.5,460.0" stroke="black" stroke-width="2" fill="none" />
<polyline points="164.5,461.0,156.5,461.5,149.0,462.0" stroke="black" stroke-width="2" fill="none" />
<polyline points="145.5,466.0,154.0,458.5,162.0,451.0" stroke="black" stroke-width="2" fill="none" />
<polyline points="156.0,450.5,148.0,457.5" stroke="black" stroke-width="2" fill="none" />
<polyline points="148.0,453.5,155.5,452.5,163.0,452.0" stroke="black" stroke-width="2" fill="none" />
<polyline points="163.0,457.0,163.0,461.0,176.0,462.5" stroke="black" stroke-width="2" fill="none" />
<polyline points="163.0,470.0,154.5,470.5,146.5,471.0" stroke="black" stroke-width="2" fill="none" />
<polyline points="147.0,450.0,155.0,442.5" stroke="black" stroke-width="2" fill="none" />
<polyline points="156.5,443.5,149.0,444.5,141.0,444.5" stroke="black" stroke-width="2" fill="none" />
<polyline points="141.5,442.0,144.5,450.0,149.5,462.5" stroke="black" stroke-width="2" fill="none" />
<polyline points="149.5,442.5,157.5,452.5,166.0,457.0,174.0,458.0,182.5,460.5" stroke="black" stroke-width="2" fill="none" />
<polyline points="190.0,448.5,197.5,441.0,206.0,434.0,214.5,427.0,222.5,419.0" stroke="black" stroke-width="2" fill="none" />
<polyline points="219.5,411.0,211.5,418.5,203.5,426.5,196.0,433.5,189.0,441.0" stroke="black" stroke-width="2" fill="none" />
<polyline points="186.5,442.0,194.5,441.5" stroke="black" stroke-width="2" fill="none" />
<polyline points="196.0,448.5,204.0,448.0" stroke="black" stroke-width="2" fill="none" />
<polyline points="202.5,443.0,194.5,450.5" stroke="black" stroke-width="2" fill="none" />
<polyline points="187.0,446.0,194.5,445.0,203.0,444.0" stroke="black" stroke-width="2" fill="none" />
<polyline points="203.5,436.0,195.5,436.5,188.0,437.0,180.5,438.0,172.5,438.5,164.0,439.0" stroke="black" stroke-width="2" fill="none" />
<polyline points="163.5,442.5,171.0,435.0,179.0,427.5,187.0,420.5,194.5,413.5" stroke="black" stroke-width="2" fill="none" />
<polyline points="188.5,411.5,180.5,420.0,172.0,428.0,163.5,436.0" stroke="black" stroke-width="2" fill="none" />
<polyline points="163.0,435.0,171.0,434.5,179.0,434.0,187.0,433.5,194.5,433.0,202.0,432.0" stroke="black" stroke-width="2" fill="none" />
<polyline points="203.5,432.5,211.5,430.5" stroke="black" stroke-width="2" fill="none" />
<polyline points="203.5,414.0,196.0,421.5,188.0,429.0,180.0,436.0,172.0,442.5" stroke="black" stroke-width="2" fill="none" />
<polyline points="177.5,440.0,185.5,433.5,194.5,426.0,203.5,419.0,212.5,412.0,221.0,405.0,229.0,398.0" stroke="black" stroke-width="2" fill="none" />
<polyline points="226.0,407.0,234.0,400.0,242.0,393.0,251.0,385.0,259.5,377.5,267.0,369.5,275.0,362.0,283.5,354.0,291.0,346.0,299.0,338.5" stroke="black" stroke-width="2" fill="none" />
<polyline points="298.5,334.5,306.5,331.5" stroke="black" stroke-width="2" fill="none" />
<polyline points="315.5,329.0,323.5,328.0,331.5,328.0" stroke="black" stroke-width="2" fill="none" />
<polyline points="347.5,323.0,340.0,330.5,331.5,338.5,324.0,346.5,316.5,354.0,308.5,361.5,300.5,369.0,292.0,377.0,283.5,385.0,275.0,392.5,267.0,400.0,259.0,407.5,251.0,415.0" stroke="black" stroke-width="2" fill="none" />
<polyline points="253.5,412.0,262.0,412.0,269.5,411.5,277.0,411.0" stroke="black" stroke-width="2" fill="none" />
<polyline points="285.5,412.0,293.0,412.0,301.0,411.5,308.5,411.0,316.5,410.5,324.0,410.0,332.0,409.5,339.5,409.5,347.0,409.0,355.0,409.0,363.0,408.5,371.0,408.5" stroke="black" stroke-width="2" fill="none" />
<polyline points="372.5,419.0,364.0,418.5,355.5,418.5,347.5,418.5,339.5,419.0,331.0,419.0,322.5,419.5,314.5,420.0,307.0,420.0,299.0,420.5" stroke="black" stroke-width="2" fill="none" />
<polyline points="301.0,421.5,304.0,429.5,305.5,437.5" stroke="black" stroke-width="2" fill="none" />
<polyline points="292.0,409.5,300.5,409.5,309.0,409.0,317.0,409.0,325.5,409.0,333.0,409.0,341.0,409.0" stroke="black" stroke-width="2" fill="none" />
<polyline points="349.0,393.5,342.0,407.5,334.0,411.5,325.5,415.0,318.5,421.0,322.5,418.5,332.5,410.5,342.5,402.5,346.5,395.0,350.0,387.0,352.5,379.0,355.0,370.5,355.0,362.5,357.0,354.5,361.5,346.5,358.5,342.5,357.5,349.5" stroke="black" stroke-width="2" fill="none" />
<polyline points="357.0,341.0,349.0,348.0" stroke="black" stroke-width="2" fill="none" />
<polyline points="344.5,354.5,353.0,347.5,360.5,340.5" stroke="black" stroke-width="2" fill="none" />
<polyline points="357.0,313.5,365.0,313.0,372.5,312.5,380.5,312.0" stroke="black" stroke-width="2" fill="none" />
<polyline points="386.0,310.5,393.5,319.5,401.5,319.5" stroke="black" stroke-width="2" fill="none" />
<polyline points="413.0,294.0,405.0,295.0,397.5,296.0,389.5,297.0,381.5,297.5,373.0,298.0,365.0,299.0,357.0,299.5,349.0,300.0,340.5,300.0,332.5,300.0,324.5,300.0,316.5,300.5,308.0,301.5,300.0,302.0,292.0,302.0,284.0,302.5" stroke="black" stroke-width="2" fill="none" />
<polyline points="287.0,301.5,288.0,309.5,293.0,296.5,300.5,288.0" stroke="black" stroke-width="2" fill="none" />
<polyline points="301.0,287.5,309.0,287.0,317.5,287.0,325.5,286.5,334.0,285.5,341.5,285.0,350.0,284.5,358.5,284.0,366.5,283.5,374.5,282.5,382.0,282.0,390.5,281.5,398.5,280.5,406.5,279.5,414.0,278.5" stroke="black" stroke-width="2" fill="none" />
<polyline points="404.0,254.5,396.0,255.5" stroke="black" stroke-width="2" fill="none" />
<polyline points="377.5,248.5,369.5,256.5" stroke="black" stroke-width="2" fill="none" />
<polyline points="362.5,252.5,370.0,252.5,378.5,251.5" stroke="black" stroke-width="2" fill="none" />
<polyline points="379.5,260.0,371.0,260.5,362.5,261.0" stroke="black" stroke-width="2" fill="none" />
<polyline points="355.5,260.0,348.0,260.0,340.0,260.5" stroke="black" stroke-width="2" fill="none" />
<polyline points="339.0,267.0,347.0,259.5" stroke="black" stroke-width="2" fill="none" />
<polyline points="353.5,264.0,353.5,271.5" stroke="black" stroke-width="2" fill="none" />
<polyline points="347.0,276.0,339.0,283.5,331.5,291.0,323.5,298.5,315.5,306.0,307.5,314.0,299.0,321.5,291.0,329.0,282.5,337.0" stroke="black" stroke-width="2" fill="none" />
<polyline points="283.0,336.0,275.0,336.5" stroke="black" stroke-width="2" fill="none" />
<polyline points="274.5,334.0,283.0,326.5,291.5,319.5,300.0,312.5,308.0,305.5,316.5,298.5,324.5,292.0,332.0,285.0,339.5,277.5" stroke="black" stroke-width="2" fill="none" />
<polyline points="339.5,281.5,331.5,282.0" stroke="black" stroke-width="2" fill="none" />
<polyline points="323.5,283.0,315.0,290.5,307.0,298.0,299.0,305.0,290.5,312.5,282.5,320.0,274.5,327.5,267.0,334.5" stroke="black" stroke-width="2" fill="none" />
<polyline points="268.0,330.0,275.5,322.0,283.0,314.5,291.0,307.5" stroke="black" stroke-width="2" fill="none" />
<polyline points="283.0,307.5,275.0,315.0,266.5,321.5,258.0,328.5,250.0,335.5" stroke="black" stroke-width="2" fill="none" />
<polyline points="252.0,341.0,260.5,340.5" stroke="black" stroke-width="2" fill="none" />
<polyline points="260.5,345.0,252.0,345.5,244.0,345.5,235.5,346.0,227.0,347.0,218.5,348.0,210.0,349.0,202.5,349.5,194.5,350.5" stroke="black" stroke-width="2" fill="none" />
<polyline points="195.5,357.0,203.5,356.5,211.5,355.5,220.0,355.0,228.5,355.5,237.0,355.0,245.0,354.5,253.0,353.0,261.0,352.5,268.5,351.5,276.5,351.0,285.0,350.5,292.5,350.0,300.5,350.0,308.5,350.0,316.5,350.0,324.5,349.5,332.5,349.0" stroke="black" stroke-width="2" fill="none" />
<polyline points="322.0,351.5,314.0,351.5,305.5,351.5,297.5,352.0" stroke="black" stroke-width="2" fill="none" />
<polyline points="299.0,346.0,307.0,345.5,315.0,344.5,323.0,343.5,331.0,343.0,339.0,342.0" stroke="black" stroke-width="2" fill="none" />
<polyline points="356.0,335.0,348.0,335.5,341.0,336.5,333.0,337.0,325.0,338.0,317.0,338.5" stroke="black" stroke-width="2" fill="none" />
<polyline points="320.0,350.0,328.0,347.0,335.5,348.0,340.5,342.5,348.0,340.5" stroke="black" stroke-width="2" fill="none" />
<polyline points="322.0,356.5,314.0,364.0,306.0,371.5,298.5,379.0" stroke="black" stroke-width="2" fill="none" />
<polyline points="297.0,376.0,304.5,376.0" stroke="black" stroke-width="2" fill="none" />
<polyline points="307.5,368.5,299.5,369.0,291.5,369.0,283.5,369.0,276.0,368.5,268.5,368.5" stroke="black" stroke-width="2" fill="none" />
<polyline points="268.0,360.0,276.0,360.0,285.0,360.0,293.0,360.0" stroke="black" stroke-width="2" fill="none" />
<polyline points="299.0,360.5,306.0,360.0,313.5,359.5" stroke="black" stroke-width="2" fill="none" />
<polyline points="313.0,359.0,306.0,367.0,305.5,375.0,309.5,384.0,305.5,389.0,299.0,397.0,282.5,407.5,285.5,415.5,287.5,423.5" stroke="black" stroke-width="2" fill="none" />
<polyline points="290.5,399.0,298.5,398.5,306.5,398.0,315.0,397.0,324.0,396.0,332.0,395.5,340.5,395.0,348.5,394.5,357.0,394.5,365.0,394.0,373.0,393.5,381.0,393.0,389.0,392.0,397.0,391.5" stroke="black" stroke-width="2" fill="none" />
<polyline points="396.0,394.0,388.5,394.5,380.5,395.5,372.0,396.5,364.0,397.0,356.0,397.5,348.5,397.5,340.5,397.5,332.5,398.0,325.0,398.0,317.0,398.5,308.5,399.0,300.0,399.0,292.0,399.0,283.5,399.5,276.0,400.0,267.5,400.0,259.5,400.5,251.5,401.0,243.0,402.0,235.0,402.5,227.0,403.5,219.0,404.5,211.0,405.5,203.0,406.0" stroke="black" stroke-width="2" fill="none" />
<polyline points="204.0,399.5,211.5,392.5,219.0,385.0,227.0,377.5,235.0,370.0,242.5,363.0,250.0,355.0" stroke="black" stroke-width="2" fill="none" />
<polyline points="251.0,346.5,242.5,354.5,234.5,362.0,226.5,369.5,218.5,377.0,211.0,384.5,203.0,392.0" stroke="black" stroke-width="2" fill="none" />
<polyline points="203.5,396.5,211.5,396.0,219.5,396.0,227.5,396.0,235.5,395.5,243.0,395.5,251.5,395.0,260.0,394.0,268.5,393.5,276.5,393.0,284.5,393.0" stroke="black" stroke-width="2" fill="none" />
<polyline points="284.5,393.0,276.5,393.0,268.5,393.0,260.0,393.5" stroke="black" stroke-width="2" fill="none" />
<polyline points="259.5,384.5,268.0,384.0,276.0,384.0,284.5,383.0" stroke="black" stroke-width="2" fill="none" />
<polyline points="282.5,381.5,291.0,379.0,298.5,379.0,306.5,378.5,313.5,369.5" stroke="black" stroke-width="2" fill="none" />
<polyline points="304.5,366.5,312.5,359.5,320.5,360.5" stroke="black" stroke-width="2" fill="none" />
<polyline points="315.5,357.0,307.5,358.0,300.0,358.5,292.0,359.0,283.5,359.5,275.5,359.5,267.0,360.5,259.0,361.0,251.0,362.0,242.5,362.5,234.5,363.0,226.5,362.5,218.0,363.5,210.0,364.5,202.5,364.5,194.5,365.0,187.0,365.5" stroke="black" stroke-width="2" fill="none" />
<polyline points="195.5,361.5,203.5,361.0,212.0,360.0" stroke="black" stroke-width="2" fill="none" />
<polyline points="214.5,363.0,222.5,361.0,231.0,367.5,226.0,375.5" stroke="black" stroke-width="2" fill="none" />
<polyline points="228.0,377.5,236.5,376.5" stroke="black" stroke-width="2" fill="none" />
<polyline points="238.5,370.0,246.5,363.0" stroke="black" stroke-width="2" fill="none" />
<polyline points="243.5,348.5,235.5,355.5,227.5,363.0,220.0,370.5,211.5,378.0,203.0,385.0,195.0,392.5" stroke="black" stroke-width="2" fill="none" />
<polyline points="197.5,391.5,205.5,399.5" stroke="black" stroke-width="2" fill="none" />
<polyline points="211.0,401.0,219.0,400.5" stroke="black" stroke-width="2" fill="none" />
<polyline points="219.0,395.5,210.5,403.0" stroke="black" stroke-width="2" fill="none" />
<polyline points="212.0,409.0,220.0,408.5" stroke="black" stroke-width="2" fill="none" />
<polyline points="219.5,406.5,212.0,407.5,204.0,408.0,196.0,408.5,188.0,409.0,180.0,410.0,171.5,410.5,163.0,411.5,154.5,412.0,146.5,412.5,138.0,413.0,130.0,413.0" stroke="black" stroke-width="2" fill="none" />
<polyline points="130.5,411.5,138.5,404.0" stroke="black" stroke-width="2" fill="none" />
<polyline points="140.5,400.0,132.5,401.0" stroke="black" stroke-width="2" fill="none" />
<polyline points="129.5,402.0,137.5,394.0" stroke="black" stroke-width="2" fill="none" />
<polyline points="138.5,388.0,131.0,395.5" stroke="black" stroke-width="2" fill="none" />
<polyline points="131.5,396.5,139.5,395.5,148.0,395.5,156.0,395.0,164.0,394.5" stroke="black" stroke-width="2" fill="none" />
<polyline points="164.0,394.5,155.5,402.0,148.0,409.0,140.0,416.5" stroke="black" stroke-width="2" fill="none" />
<polyline points="140.5,417.5,148.5,417.0,157.0,417.0" stroke="black" stroke-width="2" fill="none" />
<polyline points="155.0,419.5,147.0,427.0,138.5,434.5" stroke="black" stroke-width="2" fill="none" />
<polyline points="137.0,432.5,145.0,449.5" stroke="black" stroke-width="2" fill="none" />
<polyline points="141.0,438.5,149.0,438.0,157.0,437.0" stroke="black" stroke-width="2" fill="none" />
<polyline points="163.0,430.5,171.0,430.0,178.5,429.0,186.0,428.0,194.5,427.5,203.0,426.5,211.0,426.0,219.5,426.0" stroke="black" stroke-width="2" fill="none" />
<polyline points="218.0,421.0,210.5,421.5,202.5,422.0,194.5,422.5,187.0,423.0,179.5,423.5,171.0,424.5" stroke="black" stroke-width="2" fill="none" />
<polyline points="171.0,418.0,179.0,417.5,187.0,416.5,195.0,415.5,203.5,415.0,212.0,414.0" stroke="black" stroke-width="2" fill="none" />
<polyline points="220.5,417.0,213.0,417.5,204.5,418.0,196.0,418.5,187.5,419.0,179.0,419.5,170.5,419.5,162.5,420.0,154.5,420.0,146.0,420.0,138.0,420.0,130.0,420.0" stroke="black" stroke-width="2" fill="none" />
<polyline points="138.5,424.5,146.5,416.5,154.0,408.5,161.5,401.0" stroke="black" stroke-width="2" fill="none" />
<polyline points="155.0,397.5,146.5,405.0,138.5,412.5" stroke="black" stroke-width="2" fill="none" />
<polyline points="130.5,404.5,139.0,404.0,147.0,404.0,155.0,403.5,163.0,403.0,171.0,403.0,179.0,402.0,187.0,401.5" stroke="black" stroke-width="2" fill="none" />
<polyline points="178.5,402.5,170.5,392.5,162.5,389.5" stroke="black" stroke-width="2" fill="none" />
<polyline points="153.5,388.0,146.0,395.5" stroke="black" stroke-width="2" fill="none" />
<polyline points="146.0,385.0,154.0,377.0" stroke="black" stroke-width="2" fill="none" />
<polyline points="155.5,379.5,147.5,380.0,139.5,381.0,131.5,381.0" stroke="black" stroke-width="2" fill="none" />
<polyline points="131.0,381.0,139.0,373.5" stroke="black" stroke-width="2" fill="none" />
<polyline points="140.5,381.5,132.0,389.0" stroke="black" stroke-width="2" fill="none" />
<polyline points="133.5,389.0,141.5,388.5,149.5,388.0,157.0,387.5,164.5,386.5" stroke="black" stroke-width="2" fill="none" />
<polyline points="170.0,381.5,178.0,381.5,186.0,381.0,194.5,381.0,203.0,380.5,211.5,379.5,220.0,379.0,228.0,378.0,236.0,377.5,243.5,377.0,251.5,376.5,259.5,376.0,268.0,375.0,276.5,374.0,285.0,373.5,293.5,373.0,301.5,372.0,309.0,372.0,317.0,372.0,325.0,372.0,333.5,372.0,341.0,371.5,349.0,371.0,357.0,370.5,364.5,369.5,372.5,369.0,381.0,369.0,389.0,368.0,397.5,367.5" stroke="black" stroke-width="2" fill="none" />
<polyline points="399.5,361.5,398.5,369.5,396.5,378.0,394.5,386.0,392.5,394.5,390.5,402.5,388.5,410.5,386.5,419.0,384.5,427.5,382.0,435.5,380.0,443.5,376.0,451.5,375.5,459.5,371.5,467.0,367.0,474.5,364.0,482.5,363.5,490.5,361.0,498.5,359.0,506.5,354.0,515.5,348.5,526.5,350.5,529.5" stroke="black" stroke-width="2" fill="none" />
<polyline points="245.5,544.5,241.5,536.5,234.0,528.5,237.0,520.5,233.0,512.5" stroke="black" stroke-width="2" fill="none" />
<polyline points="199.5,447.5,198.0,440.0,203.0,432.0,217.5,424.0,217.5,416.5,219.5,408.5,220.5,400.5,219.0,392.5,216.0,384.5,215.0,373.0,215.5,365.0,215.5,356.5,216.0,348.5,218.0,343.5,210.0,342.5,201.5,343.5" stroke="black" stroke-width="2" fill="none" />
<polyline points="204.5,350.0,196.5,357.5" stroke="black" stroke-width="2" fill="none" />
<polyline points="204.0,353.0,212.0,352.0,220.0,351.5" stroke="black" stroke-width="2" fill="none" />
<polyline points="219.5,351.0,228.0,345.5,235.0,347.0,243.5,344.5" stroke="black" stroke-width="2" fill="none" />
<polyline points="244.5,330.0,252.5,322.5" stroke="black" stroke-width="2" fill="none" />
<polyline points="252.0,315.0,244.0,322.5" stroke="black" stroke-width="2" fill="none" />
<polyline points="242.5,323.0,250.0,322.5,258.0,322.5,265.5,322.5,273.0,322.5,281.0,322.5,289.0,321.5,297.5,320.5,305.5,319.5,313.5,319.0,321.0,319.0,329.0,318.5,337.5,318.0,346.0,318.0,354.5,317.5,362.5,317.5,370.5,317.0,378.0,317.0,386.0,316.5,394.5,315.5,403.0,314.5,410.0,314.0" stroke="black" stroke-width="2" fill="none" />
<polyline points="412.0,286.5,404.0,286.5,396.0,286.5,387.5,287.0,379.5,287.0,371.5,288.0,364.0,288.5,355.5,289.5,348.0,290.0,340.5,290.5,332.5,291.0,324.5,292.0,316.0,293.0,308.5,293.5,300.5,294.5,293.0,295.0" stroke="black" stroke-width="2" fill="none" />
<polyline points="300.0,300.0,308.0,299.0,316.5,297.5,325.0,296.5,333.0,296.0" stroke="black" stroke-width="2" fill="none" />
<polyline points="339.5,287.5,332.0,288.5,324.5,289.0,316.5,289.0,308.5,289.5" stroke="black" stroke-width="2" fill="none" />
<polyline points="315.5,286.0,307.5,293.5,300.0,300.5" stroke="black" stroke-width="2" fill="none" />
<polyline points="299.5,306.0,308.0,305.5,315.5,305.0,323.5,305.0,331.5,305.0" stroke="black" stroke-width="2" fill="none" />
<polyline points="329.5,310.5,337.5,306.5,344.0,299.5,351.0,305.0" stroke="black" stroke-width="2" fill="none" />
<polyline points="351.5,297.0,358.0,293.5,360.0,301.5,359.5,301.0" stroke="black" stroke-width="2" fill="none" />
<polyline points="369.5,285.5,364.0,294.0,367.0,287.0,375.5,278.0,379.5,271.0,375.5,262.5,375.0,254.5,375.0,246.0,362.5,240.0,354.5,243.0" stroke="black" stroke-width="2" fill="none" />
<polyline points="356.5,241.5,358.5,249.0,360.5,257.0,362.5,265.5,362.0,273.5" stroke="black" stroke-width="2" fill="none" />
<polyline points="371.5,272.0,379.5,271.5" stroke="black" stroke-width="2" fill="none" />
<polyline points="386.0,287.0,393.5,283.0,401.5,285.5" stroke="black" stroke-width="2" fill="none" />
<polyline points="412.0,270.0,404.0,270.5,396.0,271.0,388.5,271.0,380.5,271.5,373.0,271.5,365.0,272.5,357.0,272.5,349.0,273.0,341.0,273.5,332.5,274.5,324.0,276.0,316.0,276.0,308.5,276.5,300.5,277.5,292.0,278.5,284.0,279.0" stroke="black" stroke-width="2" fill="none" />
<polyline points="284.5,274.0,292.5,268.0,300.5,261.0,293.5,267.0,285.5,275.5,285.5,283.5,295.0,279.5,303.0,281.5" stroke="black" stroke-width="2" fill="none" />
<polyline points="306.5,277.5,298.5,285.0" stroke="black" stroke-width="2" fill="none" />
<polyline points="297.0,282.0,298.0,290.0,291.0,298.0,284.0,299.0,275.0,307.0,268.0,313.0,273.5,320.0,276.0,314.5" stroke="black" stroke-width="2" fill="none" />
<polyline points="269.5,310.0,277.0,302.0,285.0,297.5" stroke="black" stroke-width="2" fill="none" />
<polyline points="284.0,313.0,292.5,312.5" stroke="black" stroke-width="2" fill="none" />
<polyline points="299.5,313.5,308.0,313.0,315.5,313.0,323.5,313.0" stroke="black" stroke-width="2" fill="none" />
<polyline points="315.5,316.0,304.5,324.0" stroke="black" stroke-width="2" fill="none" />
<polyline points="291.5,327.5,283.5,328.0,276.5,328.5,268.5,329.0" stroke="black" stroke-width="2" fill="none" />
<polyline points="270.0,339.5,268.5,347.5,259.5,352.0,261.0,360.5,259.0,368.5,257.0,370.0,264.0,372.0,260.5,380.0,261.5,377.5" stroke="black" stroke-width="2" fill="none" />
<polyline points="269.5,378.0,277.0,377.5,285.0,377.0,293.0,377.0" stroke="black" stroke-width="2" fill="none" />
<polyline points="291.0,376.5,282.0,388.5,281.5,397.0,275.5,406.0,285.5,414.5,293.5,418.5,301.0,422.0,311.0,426.5,319.0,429.5,325.0,424.5" stroke="black" stroke-width="2" fill="none" />
<polyline points="305.5,382.0,297.5,384.0,289.5,382.0" stroke="black" stroke-width="2" fill="none" />
<polyline points="293.0,387.0,285.0,394.5,276.5,402.5,268.0,411.0,260.0,419.0" stroke="black" stroke-width="2" fill="none" />
<polyline points="274.5,400.0,282.5,401.0,290.5,401.0,298.5,396.5" stroke="black" stroke-width="2" fill="none" />
<polyline points="294.0,388.5,285.5,390.0,284.5,394.0" stroke="black" stroke-width="2" fill="none" />
<polyline points="285.5,353.0,277.5,353.0" stroke="black" stroke-width="2" fill="none" />
<polyline points="282.5,346.0,274.5,354.0,266.0,362.0,258.5,370.0,250.5,377.5,242.5,385.5,234.5,393.0,227.0,400.0" stroke="black" stroke-width="2" fill="none" />
<polyline points="226.5,408.0,234.5,411.0,242.5,409.0,250.5,412.5,249.5,417.5,255.5,425.5" stroke="black" stroke-width="2" fill="none" />
<polyline points="219.5,376.5,211.0,377.0,203.0,377.5,195.0,378.0" stroke="black" stroke-width="2" fill="none" />
<polyline points="195.5,386.5,203.0,379.5,210.5,372.0,218.5,364.0,226.5,356.5" stroke="black" stroke-width="2" fill="none" />
<polyline points="228.5,360.5,236.5,360.0,244.0,359.0" stroke="black" stroke-width="2" fill="none" />
<polyline points="219.0,353.5,211.0,361.5,203.5,369.5,195.5,377.0,187.5,385.0" stroke="black" stroke-width="2" fill="none" />
<polyline points="188.0,379.0,180.0,379.5" stroke="black" stroke-width="2" fill="none" />
<polyline points="173.5,386.0,181.5,390.0,190.0,389.0,194.0,392.0,196.0,399.5" stroke="black" stroke-width="2" fill="none" />
<polyline points="203.5,407.0,195.5,404.0,184.5,411.5,176.0,403.0,167.0,400.5,163.5,392.5,155.5,382.5" stroke="black" stroke-width="2" fill="none" />
<polyline points="147.0,378.5,155.0,371.0" stroke="black" stroke-width="2" fill="none" />
<polyline points="154.5,364.0,147.0,372.0" stroke="black" stroke-width="2" fill="none" />
<polyline points="146.5,362.5,154.5,355.0" stroke="black" stroke-width="2" fill="none" />
<polyline points="147.0,357.5,139.5,364.5,131.0,371.0" stroke="black" stroke-width="2" fill="none" />
<polyline points="131.5,369.0,139.5,368.5" stroke="black" stroke-width="2" fill="none" />
<polyline points="141.0,367.5,139.5,359.5" stroke="black" stroke-width="2" fill="none" />
<polyline points="139.0,357.5,130.5,365.0" stroke="black" stroke-width="2" fill="none" />
<polyline points="122.5,365.0,131.0,365.0,139.5,364.5,147.5,364.5,155.5,363.5" stroke="black" stroke-width="2" fill="none" />
<polyline points="155.0,371.5,147.5,372.0,139.5,372.5,131.5,373.0,123.5,373.5" stroke="black" stroke-width="2" fill="none" />
<polyline points="130.5,379.0,138.5,378.0" stroke="black" stroke-width="2" fill="none" />
<polyline points="141.5,383.0,133.5,383.5" stroke="black" stroke-width="2" fill="none" />
<polyline points="132.5,390.5,140.5,390.0" stroke="black" stroke-width="2" fill="none" />
<polyline points="140.0,386.5,144.0,395.5,145.0,403.0" stroke="black" stroke-width="2" fill="none" />
<polyline points="157.5,409.5,164.0,411.0,162.0,418.0,160.0,426.0,160.0,433.5,162.0,441.5,166.5,442.5,174.5,441.0,182.0,444.0,189.5,448.5,197.5,452.0" stroke="black" stroke-width="2" fill="none" />
<polyline points="187.0,453.0,180.0,445.0" stroke="black" stroke-width="2" fill="none" />
<polyline points="162.5,428.5,170.5,420.5,178.5,413.0" stroke="black" stroke-width="2" fill="none" />
<polyline points="179.5,409.0,171.5,409.5" stroke="black" stroke-width="2" fill="none" />
<polyline points="177.0,405.0,169.0,413.0,161.0,421.0" stroke="black" stroke-width="2" fill="none" />
<polyline points="154.0,426.0,146.0,433.5,137.5,440.5" stroke="black" stroke-width="2" fill="none" />
<polyline points="141.5,433.5,149.5,433.0" stroke="black" stroke-width="2" fill="none" />
<polyline points="141.5,429.0,149.0,429.0,157.0,428.0" stroke="black" stroke-width="2" fill="none" />
<polyline points="158.0,425.0,150.5,425.5,142.5,426.5" stroke="black" stroke-width="2" fill="none" />
<polyline points="170.0,398.5,178.0,398.0" stroke="black" stroke-width="2" fill="none" />
<polyline points="177.5,389.5,185.5,389.0,194.0,389.0,202.5,388.5,210.5,388.5,218.5,387.5,226.5,387.0,234.5,386.0,242.5,385.0,251.0,384.0,259.5,383.5,267.5,383.0,275.5,383.0,283.5,383.0,291.5,382.5,299.0,382.5,307.5,382.0,316.0,381.0,324.5,380.5,332.5,380.0,340.5,380.0,348.0,379.0,355.5,378.5,363.5,377.5,371.5,376.5,380.0,376.0,387.5,376.0,395.0,377.0" stroke="black" stroke-width="2" fill="none" />
<polyline points="345.0,377.5,337.0,378.5,330.5,377.5,322.5,384.0,321.5,384.0,331.5,376.0" stroke="black" stroke-width="2" fill="none" />
<polyline points="291.0,358.5,286.0,350.5,285.5,342.5,284.5,334.5,286.5,334.0" stroke="black" stroke-width="2" fill="none" />
<polyline points="242.0,316.5,234.0,324.5" stroke="black" stroke-width="2" fill="none" />
<polyline points="235.5,321.0,244.0,320.0" stroke="black" stroke-width="2" fill="none" />
<polyline points="239.5,325.0,246.5,333.5,248.0,341.5,246.0,356.0,245.0,349.5" stroke="black" stroke-width="2" fill="none" />
<polyline points="237.5,325.0,229.5,325.0" stroke="black" stroke-width="2" fill="none" />
<polyline points="225.0,322.0,233.0,318.0,224.5,323.5,224.5,331.5,231.5,326.5,239.0,325.5,247.5,332.5,260.5,334.0,269.0,336.0,276.5,336.5,288.5,333.0,289.5,329.0,298.0,325.5,306.0,319.5,314.5,316.5" stroke="black" stroke-width="2" fill="none" />
<polyline points="321.5,300.5,329.5,297.5,331.5,303.5,325.5,312.0,331.5,324.0,336.5,325.0,344.5,318.0,350.0,322.0,362.0,316.0,369.5,314.0,377.5,315.0,380.5,307.0,392.5,301.0" stroke="black" stroke-width="2" fill="none" />
<polyline points="382.0,297.5,380.0,305.5,387.0,313.5" stroke="black" stroke-width="2" fill="none" />
<polyline points="354.0,278.5,346.0,278.5" stroke="black" stroke-width="2" fill="none" />
<polyline points="347.5,268.0,340.0,268.0" stroke="black" stroke-width="2" fill="none" />
<polyline points="339.5,253.5,347.5,253.0,356.0,252.0" stroke="black" stroke-width="2" fill="none" />
<polyline points="363.0,244.5,371.0,244.5,379.0,244.5" stroke="black" stroke-width="2" fill="none" />
<polyline points="377.0,237.5,369.5,234.0" stroke="black" stroke-width="2" fill="none" />
<polyline points="370.5,234.0,373.5,242.0,367.5,247.5,364.5,257.5,365.5,262.0,378.5,261.5,386.5,274.5,395.0,275.5" stroke="black" stroke-width="2" fill="none" />
<polyline points="349.0,315.5,347.0,307.5,340.0,301.5,334.0,295.5,343.0,287.0,344.0,279.0,343.0,270.0,350.0,261.5,351.0,254.0,343.5,252.0,335.5,253.0" stroke="black" stroke-width="2" fill="none" />
<polyline points="337.0,248.5,334.5,256.5,338.5,264.5,331.5,272.5,318.5,279.0,326.5,275.0,335.0,270.0,347.0,265.0,356.0,266.0" stroke="black" stroke-width="2" fill="none" />
<polyline points="346.5,219.5,338.5,219.5" stroke="black" stroke-width="2" fill="none" />
<polyline points="339.5,196.0,332.0,196.5,324.0,197.0,316.0,197.5" stroke="black" stroke-width="2" fill="none" />
<polyline points="314.0,193.5,322.0,186.0" stroke="black" stroke-width="2" fill="none" />
<polyline points="321.0,189.0,336.0,197.0,339.5,205.0,347.5,216.0,361.5,225.0,375.5,232.5,386.0,240.5,391.0,248.5,394.5,256.5,395.5,265.0,397.5,273.0,395.5,279.0,401.5,291.0,402.5,299.5,398.0,301.5,400.0,309.5" stroke="black" stroke-width="2" fill="none" />
<polyline points="300.5,275.5,292.5,283.5" stroke="black" stroke-width="2" fill="none" />
<polyline points="292.5,275.5,300.0,268.0" stroke="black" stroke-width="2" fill="none" />
<polyline points="300.5,268.0,308.5,278.0,316.5,274.5" stroke="black" stroke-width="2" fill="none" />
<polyline points="299.5,269.5,291.0,270.5" stroke="black" stroke-width="2" fill="none" />
<polyline points="297.5,265.0,299.0,273.0,307.0,281.0" stroke="black" stroke-width="2" fill="none" />
<polyline points="245.0,309.5,237.5,310.0" stroke="black" stroke-width="2" fill="none" />
<polyline points="234.0,306.0,233.0,314.0,247.0,317.0,253.0,325.0,253.5,333.0,253.5,341.0,254.5,347.0,250.0,355.0,245.0,363.0,234.5,365.0,238.5,373.0,236.5,381.0,226.5,383.0,232.5,386.0" stroke="black" stroke-width="2" fill="none" />
<polyline points="220.5,367.0,212.5,367.5,205.0,368.0,197.0,368.0" stroke="black" stroke-width="2" fill="none" />
<polyline points="214.5,372.5,222.5,373.0,227.5,369.0" stroke="black" stroke-width="2" fill="none" />
<polyline points="181.5,366.0,173.5,379.0,171.5,383.5,175.5,376.0,178.5,368.5,187.0,360.5,192.0,354.5,194.0,347.0,194.0,339.0,198.5,333.0" stroke="black" stroke-width="2" fill="none" />
<polyline points="195.0,320.0,198.0,311.0" stroke="black" stroke-width="2" fill="none" />
<polyline points="179.5,309.5,172.0,310.5" stroke="black" stroke-width="2" fill="none" />
<polyline points="165.5,309.0,164.5,316.5,170.5,325.5,175.5,328.0,183.5,325.5,191.5,321.5" stroke="black" stroke-width="2" fill="none" />
<polyline points="164.0,330.0,155.5,330.5,147.5,331.5,139.0,332.0,131.0,333.0" stroke="black" stroke-width="2" fill="none" />
<polyline points="139.0,330.0,146.5,322.0,154.5,314.0" stroke="black" stroke-width="2" fill="none" />
<polyline points="155.5,307.5,147.5,315.0" stroke="black" stroke-width="2" fill="none" />
<polyline points="148.0,320.0,156.0,320.0" stroke="black" stroke-width="2" fill="none" />
<polyline points="153.5,323.5,146.0,331.0,138.5,338.5,130.5,346.5" stroke="black" stroke-width="2" fill="none" />
<polyline points="132.5,345.0,140.5,344.5" stroke="black" stroke-width="2" fill="none" />
<polyline points="144.0,346.0,151.5,361.0" stroke="black" stroke-width="2" fill="none" />
<polyline points="156.0,354.5,148.5,355.0,140.5,355.5,132.0,356.0,124.0,357.0" stroke="black" stroke-width="2" fill="none" />
<polyline points="130.0,354.0,137.5,345.5,145.0,337.5,153.0,330.5" stroke="black" stroke-width="2" fill="none" />
<polyline points="155.5,327.5,147.5,328.0" stroke="black" stroke-width="2" fill="none" />
<polyline points="141.0,337.0,149.0,336.5,156.5,336.5" stroke="black" stroke-width="2" fill="none" />
<polyline points="149.5,347.5,141.5,347.5,133.5,347.5,125.0,348.0" stroke="black" stroke-width="2" fill="none" />
<polyline points="125.0,340.5,133.0,340.0,141.0,340.0,148.5,339.5" stroke="black" stroke-width="2" fill="none" />
<polyline points="150.0,340.5,142.0,340.5" stroke="black" stroke-width="2" fill="none" />
<polyline points="143.0,338.5,144.0,346.0,148.5,354.5,152.5,362.5,152.5,370.5,153.5,378.5,157.5,387.0,157.0,395.0,159.0,403.0,157.0,411.5,156.0,419.0,155.0,427.0,148.5,435.5,148.5,443.5,151.0,451.5,157.0,457.5,158.0,465.5,161.0,473.0,164.0,481.0,172.5,489.5,174.5,497.5,177.5,505.0,189.5,512.0,194.0,519.5,206.0,528.0,222.0,534.0,239.5,542.0,241.5,550.0" stroke="black" stroke-width="2" fill="none" />
<polyline points="183.0,401.0,185.0,393.0" stroke="black" stroke-width="2" fill="none" />
<polyline points="129.5,389.5,127.0,381.5,124.0,373.5,125.0,365.5,126.0,358.0,126.5,352.0,126.0,344.0,132.0,336.0,130.5,328.0,127.5,320.5,128.5,312.5,141.5,304.5,137.0,307.5,129.5,313.0" stroke="black" stroke-width="2" fill="none" />
<polyline points="134.0,315.0,142.5,314.5,134.5,318.5,134.5,326.0,140.5,323.5" stroke="black" stroke-width="2" fill="none" />
<polyline points="133.0,324.0,141.0,316.0,149.0,308.5" stroke="black" stroke-width="2" fill="none" />
<polyline points="147.0,300.5,139.0,301.0" stroke="black" stroke-width="2" fill="none" />
<polyline points="131.5,299.0,139.5,291.5" stroke="black" stroke-width="2" fill="none" />
<polyline points="133.0,289.5,141.0,282.0" stroke="black" stroke-width="2" fill="none" />
<polyline points="133.5,283.0,125.5,291.0,117.5,298.5" stroke="black" stroke-width="2" fill="none" />
<polyline points="115.0,300.5,123.0,300.0" stroke="black" stroke-width="2" fill="none" />
<polyline points="125.0,301.0,116.5,308.0" stroke="black" stroke-width="2" fill="none" />
<polyline points="116.0,308.5,124.0,308.0,132.5,307.5,140.5,307.5,149.0,308.0,157.0,308.0" stroke="black" stroke-width="2" fill="none" />
<polyline points="164.0,311.5,172.0,308.5,176.0,314.5,174.0,322.5,179.5,321.0,187.5,319.0,195.5,315.0,203.5,311.0" stroke="black" stroke-width="2" fill="none" />
<polyline points="227.0,318.0,235.0,317.5,244.0,316.5,251.5,315.5" stroke="black" stroke-width="2" fill="none" />
<polyline points="256.0,322.0,248.0,314.5,240.0,311.5,232.0,309.5" stroke="black" stroke-width="2" fill="none" />
<polyline points="181.0,314.5,172.5,315.0,164.5,315.0,156.5,315.5,148.0,315.5,140.0,316.5,132.0,317.0,124.0,317.0,116.5,317.0" stroke="black" stroke-width="2" fill="none" />
<polyline points="115.0,326.0,122.5,325.0,130.5,324.5,139.0,324.5,147.5,324.0,156.5,324.0,165.0,323.0" stroke="black" stroke-width="2" fill="none" />
<polyline points="171.5,323.5,164.0,323.5,161.0,318.5,153.5,313.0,145.5,298.5,137.0,286.5,129.0,280.5" stroke="black" stroke-width="2" fill="none" />
<polyline points="133.0,276.0,125.0,283.0,116.5,290.0" stroke="black" stroke-width="2" fill="none" />
<polyline points="115.5,289.5,123.5,288.5,130.5,288.0" stroke="black" stroke-width="2" fill="none" />
<polyline points="140.0,285.0,132.0,285.5,124.0,286.5,116.5,287.0" stroke="black" stroke-width="2" fill="none" />
<polyline points="116.0,282.0,123.5,275.0,131.0,268.0,139.0,260.0,147.0,252.0" stroke="black" stroke-width="2" fill="none" />
<polyline points="139.5,250.0,131.5,257.5,123.5,265.5,115.5,273.5" stroke="black" stroke-width="2" fill="none" />
<polyline points="116.0,276.5,124.0,276.0,132.0,275.5" stroke="black" stroke-width="2" fill="none" />
<polyline points="127.0,267.5,135.0,266.5,143.0,273.5,153.5,273.5,161.5,269.0,169.5,263.0,177.0,262.0,185.0,261.0,193.0,260.0,201.5,264.0" stroke="black" stroke-width="2" fill="none" />
<polyline points="197.5,271.0,189.5,266.0,176.0,268.0,168.5,279.5,160.5,283.0,152.5,284.0,147.5,284.0,141.5,276.0,131.0,268.0,132.0,255.0,131.0,248.0,131.0,242.0,138.0,234.0,147.0,231.0,162.0,223.0,176.5,215.0,175.0,206.5,179.0,216.0" stroke="black" stroke-width="2" fill="none" />
<polyline points="179.5,215.5,171.5,216.0" stroke="black" stroke-width="2" fill="none" />
<polyline points="182.0,214.0,189.5,215.0,198.5,218.0" stroke="black" stroke-width="2" fill="none" />
<polyline points="190.5,207.0,198.5,204.0,200.5,209.5,208.5,202.5,216.5,198.5,224.5,198.0,232.5,194.5,240.5,194.0" stroke="black" stroke-width="2" fill="none" />
<polyline points="246.5,183.0,254.5,186.0,262.0,187.0" stroke="black" stroke-width="2" fill="none" />
<polyline points="268.0,181.5,276.5,181.0,284.5,180.0,293.0,179.5,301.0,179.5,308.5,179.5,316.5,179.0,324.5,179.0,332.5,178.5" stroke="black" stroke-width="2" fill="none" />
<polyline points="333.5,173.0,325.5,180.0" stroke="black" stroke-width="2" fill="none" />
<polyline points="324.0,172.5,315.5,180.0" stroke="black" stroke-width="2" fill="none" />
<polyline points="316.5,173.5,324.5,165.5" stroke="black" stroke-width="2" fill="none" />
<polyline points="325.0,157.0,317.0,164.5,308.5,171.5,300.0,178.5" stroke="black" stroke-width="2" fill="none" />
<polyline points="298.5,171.0,306.5,170.5,315.5,169.0,323.5,168.5" stroke="black" stroke-width="2" fill="none" />
<polyline points="322.5,160.0,315.0,160.5" stroke="black" stroke-width="2" fill="none" />
<polyline points="309.0,148.0,317.0,147.0,325.5,146.5,333.5,146.0" stroke="black" stroke-width="2" fill="none" />
<polyline points="330.5,146.5,338.5,139.0" stroke="black" stroke-width="2" fill="none" />
<polyline points="337.5,131.5,329.0,139.0,321.5,147.0,314.0,154.0,306.0,161.5,298.0,169.0,290.5,176.5,283.0,184.0" stroke="black" stroke-width="2" fill="none" />
<polyline points="277.5,190.5,267.0,197.5,275.0,192.5,283.0,189.5,291.0,186.5,299.0,176.0,307.5,174.0,315.5,172.0,323.5,174.5,336.0,185.5,344.0,199.0" stroke="black" stroke-width="2" fill="none" />
<polyline points="332.5,187.5,324.5,188.0,316.5,189.0,308.5,190.0,300.0,191.0" stroke="black" stroke-width="2" fill="none" />
<polyline points="300.0,189.0,308.5,195.0,314.5,205.0,325.5,209.5" stroke="black" stroke-width="2" fill="none" />
<polyline points="321.5,201.5,338.5,209.5" stroke="black" stroke-width="2" fill="none" />
<polyline points="313.5,189.0,306.0,196.0" stroke="black" stroke-width="2" fill="none" />
<polyline points="304.5,193.0,312.5,200.0,321.0,201.0,329.5,203.5,337.5,207.0" stroke="black" stroke-width="2" fill="none" />
<polyline points="292.0,169.5,300.0,162.0,308.5,155.0,317.0,147.5,325.5,140.5,333.0,133.5" stroke="black" stroke-width="2" fill="none" />
<polyline points="325.0,131.5,317.0,139.5,309.0,147.5,301.0,155.5,293.0,163.0,285.0,170.5" stroke="black" stroke-width="2" fill="none" />
<polyline points="283.5,161.5,291.5,153.5,299.0,145.5,306.5,138.0,314.0,130.5" stroke="black" stroke-width="2" fill="none" />
<polyline points="309.0,125.5,317.0,124.5,324.5,124.5,332.5,124.0,340.0,124.0,348.0,123.5" stroke="black" stroke-width="2" fill="none" />
<polyline points="339.0,137.0,331.5,137.5,324.0,138.5" stroke="black" stroke-width="2" fill="none" />
<polyline points="321.5,148.0,329.5,145.0,338.0,140.0" stroke="black" stroke-width="2" fill="none" />
<polyline points="323.5,151.5,315.5,152.0,307.5,153.0,299.5,154.0,292.0,154.5,283.5,155.5" stroke="black" stroke-width="2" fill="none" />
<polyline points="277.0,162.0,285.0,154.5,292.5,147.0,300.0,139.0" stroke="black" stroke-width="2" fill="none" />
<polyline points="288.0,147.0,280.5,147.0,270.5,151.0,262.0,151.0,254.0,150.5,246.0,150.5,238.5,151.0,230.5,151.0,222.5,151.0,214.0,151.0,206.0,150.0,200.5,149.0,192.5,148.5,184.5,142.5,182.5,136.5" stroke="black" stroke-width="2" fill="none" />
<polyline points="185.0,142.5,193.0,142.0" stroke="black" stroke-width="2" fill="none" />
<polyline points="196.5,150.0,204.5,149.5,213.0,149.0,221.0,148.0" stroke="black" stroke-width="2" fill="none" />
<polyline points="220.0,153.0,212.0,153.0" stroke="black" stroke-width="2" fill="none" />
<polyline points="209.0,155.0,208.5,163.0,199.5,167.5,198.5,175.0,204.5,175.5,212.5,179.5" stroke="black" stroke-width="2" fill="none" />
<polyline points="210.5,178.5,213.5,186.5,211.5,198.5,209.5,205.5,218.0,209.0,223.0,207.0" stroke="black" stroke-width="2" fill="none" />
<polyline points="204.5,197.0,197.5,197.5,189.0,198.0" stroke="black" stroke-width="2" fill="none" />
<polyline points="185.5,190.5,194.0,190.0,202.5,189.5" stroke="black" stroke-width="2" fill="none" />
<polyline points="198.5,189.5,193.5,190.5,189.0,196.5,197.0,208.5,203.5,210.5" stroke="black" stroke-width="2" fill="none" />
<polyline points="217.0,205.0,209.0,209.0,200.0,213.5,193.5,216.0,189.5,208.0,182.5,204.5" stroke="black" stroke-width="2" fill="none" />
<polyline points="196.0,173.0,203.5,172.5" stroke="black" stroke-width="2" fill="none" />
<polyline points="205.0,170.0,213.5,172.0,221.5,178.0,229.5,178.0,238.0,179.5,243.0,185.5,238.5,187.5" stroke="black" stroke-width="2" fill="none" />
<polyline points="250.5,185.0,251.5,193.0" stroke="black" stroke-width="2" fill="none" />
<polyline points="264.0,208.5,272.0,208.5,280.0,209.5,288.0,210.5,295.5,205.0,304.0,204.0,312.0,208.5,321.0,206.0,329.5,209.0,337.5,211.0" stroke="black" stroke-width="2" fill="none" />
<polyline points="331.5,162.0,323.5,162.5,316.0,162.5,308.5,162.0,300.5,162.5,293.5,163.0,286.0,163.0,278.5,163.5,270.0,163.5" stroke="black" stroke-width="2" fill="none" />
<polyline points="266.0,161.5,274.0,154.0,282.0,146.0" stroke="black" stroke-width="2" fill="none" />
<polyline points="276.5,148.0,269.0,155.5,261.0,163.5" stroke="black" stroke-width="2" fill="none" />
<polyline points="260.5,155.5,252.5,162.5" stroke="black" stroke-width="2" fill="none" />
<polyline points="252.0,161.0,260.0,158.0,268.0,160.0,276.5,163.0,284.5,161.0,292.0,157.0,300.0,155.0,308.0,156.5" stroke="black" stroke-width="2" fill="none" />
<polyline points="307.0,162.0,299.5,160.0,291.5,161.5" stroke="black" stroke-width="2" fill="none" />
<polyline points="293.5,163.0,292.0,171.0,292.5,181.5,298.0,186.5,304.5,181.0,312.5,182.0,320.5,184.5,328.5,191.0,337.5,197.0,345.0,213.0,355.0,220.0,363.0,225.0,371.5,230.0,379.5,234.0,387.5,241.0,396.0,246.0,404.5,262.5" stroke="black" stroke-width="2" fill="none" />
<polyline points="346.0,127.5,338.0,128.0,330.5,128.5,323.5,129.0,315.5,129.5,307.0,130.0,298.5,131.0,290.0,131.0,281.5,131.5,273.5,132.0" stroke="black" stroke-width="2" fill="none" />
<polyline points="267.5,140.0,275.5,139.5,283.5,139.5,291.5,140.0,299.0,140.0,307.5,139.5,315.5,139.5,324.0,139.0,332.0,138.5,340.5,138.0" stroke="black" stroke-width="2" fill="none" />
<polyline points="329.5,150.5,321.5,151.0,313.5,151.5,305.0,152.5,297.0,153.5,289.5,154.5,282.0,154.5,274.0,155.0,267.0,155.0,259.5,155.0,251.5,155.5,244.0,155.5" stroke="black" stroke-width="2" fill="none" />
<polyline points="248.5,156.0,251.5,161.0,245.5,169.0,254.5,175.0,264.5,182.5" stroke="black" stroke-width="2" fill="none" />
<polyline points="259.5,172.5,268.0,172.0,276.0,172.0,284.5,172.0,293.0,171.5,301.0,171.0,308.5,171.0,316.5,170.5,324.5,170.5,332.0,170.5" stroke="black" stroke-width="2" fill="none" />
<polyline points="333.0,144.0,325.0,144.5,317.5,145.0,309.0,145.5,301.0,146.0,292.5,146.0,284.5,146.5,276.5,147.0,268.5,147.0,260.5,147.0,252.5,147.0,245.0,147.5,236.5,148.0" stroke="black" stroke-width="2" fill="none" />
<polyline points="237.0,153.5,236.0,157.5,236.0,166.0" stroke="black" stroke-width="2" fill="none" />
<polyline points="249.0,165.5,257.0,168.5,264.5,167.5,272.5,169.5,280.5,171.0,288.5,173.5" stroke="black" stroke-width="2" fill="none" />
<polyline points="289.5,159.0,281.0,159.5,273.0,160.0" stroke="black" stroke-width="2" fill="none" />
<polyline points="279.0,179.5,283.0,171.5,283.0,163.5,294.0,155.5" stroke="black" stroke-width="2" fill="none" />
<polyline points="275.5,173.5,263.5,178.5,255.5,171.5,247.5,168.5,245.5,163.5,238.5,168.0,230.0,165.5,222.5,163.0,217.5,163.0,216.5,155.0" stroke="black" stroke-width="2" fill="none" />
<polyline points="213.5,158.5,205.5,159.0" stroke="black" stroke-width="2" fill="none" />
<polyline points="201.0,157.0,209.0,165.5" stroke="black" stroke-width="2" fill="none" />
<polyline points="184.0,120.0,176.5,121.0" stroke="black" stroke-width="2" fill="none" />
<polyline points="177.0,120.5,177.0,128.5,179.0,136.5,184.0,144.5,195.0,152.0,193.5,160.0,193.0,168.0,191.5,176.0,189.0,184.0,185.5,192.0,178.5,200.0,167.5,208.0,155.5,215.5,145.0,223.5,136.0,231.5,128.5,239.5,123.5,248.0,119.0,256.0,116.0,264.5,114.0,273.0,112.0,281.0,111.0,289.0,111.0,297.0,111.0,305.0,110.5,313.0,111.0,321.0,112.5,328.5,113.5,336.5,115.5,344.0,117.0,352.0,118.0,360.0,119.5,368.0,120.5,376.0,122.5,384.5,124.0,392.0,125.5,400.0,127.5,408.5,129.5,416.5,131.5,424.5,134.0,432.0,136.0,440.0,138.0,448.0,141.0,456.0,143.5,464.0,146.5,472.0,148.0,480.0,151.0,488.0,154.0,495.5,156.0,503.5,159.0,511.0,162.0,519.0,165.0,527.5,168.0,535.5,171.0,544.0,174.0,552.5,177.0,560.5,180.0,568.5,183.5,576.5,187.5,584.5,189.5,592.5,192.0,593.5,194.5,586.0,202.0,589.0,209.5,593.5,216.5,598.0,220.5,606.5,228.5,604.0,236.5,605.0,245.0,609.5,250.5,611.5,260.5,614.0,268.5,615.0,276.5,615.0,279.0,604.0,286.5,616.0,294.5,615.0,303.0,609.0,307.0,605.5,313.5,602.5,317.5,592.5,325.5,587.5,330.5,578.5" stroke="black" stroke-width="2" fill="none" />
<polyline points="512.5,675.5,512.5,667.5,512.5,660.0,512.5,652.0,513.0,644.0,513.5,636.0,514.0,628.0,514.0,619.5,514.0,611.5,514.0,603.5,514.0,595.5,514.0,587.5,513.5,579.5,513.5,571.5,513.5,564.0,514.0,556.0,514.5,548.5,514.0,540.5,514.0,533.0,514.0,525.0,514.0,517.0,513.5,509.0,513.0,501.0,512.5,493.0,512.5,485.0,512.0,477.5,512.0,469.5,511.5,461.5,511.5,453.5,511.5,445.5,512.0,437.0,512.5,429.0,512.5,421.0,512.0,413.0,512.5,405.5,512.5,397.5,512.5,390.0,512.0,382.0,512.0,374.0,512.0,365.5,512.5,357.5,512.5,349.5,512.5,341.0,512.5,333.0,513.0,324.5,513.5,316.5,513.5,308.5,514.0,300.0,514.0,292.0,514.0,284.0,514.0,276.0,514.0,268.0,514.5,260.0,514.5,252.0,514.5,244.5,514.5,236.5,514.5,228.5,515.0,221.0,515.0,212.5,515.0,205.0,514.5,197.0,514.0,189.5,513.5,181.5,513.0,174.0,513.0,166.0,512.5,158.5,512.5,150.5,512.0,142.5,512.0,134.5,512.0,126.5,512.0,118.0,512.0,109.5,512.0,101.0,512.5,93.0,512.5,84.5,513.5,76.0,513.5,68.0,514.0,60.0,514.0,52.0,514.0,44.0,514.0,36.0,514.0,28.0,514.0,20.0,514.0,12.0,513.5,4.0,506.0,2.0,497.5,2.0,489.5,2.0,482.0,2.0,473.5,2.0,465.5,2.0,458.0,2.5,450.0,2.5,442.5,3.0,434.5,3.0,427.0,3.5,419.0,3.5,411.0,3.5,403.0,3.5,395.0,4.0,387.0,3.5,379.0,3.5,370.5,3.5,362.5,3.5,354.5,3.5,346.0,4.0,337.5,4.0,329.5,4.0,321.5,4.0,313.5,4.0,306.0,4.0,298.0,4.0,290.5,4.0,282.5,4.0,274.5,4.0,266.5,4.0,258.5,3.5,250.5,3.5,242.5,3.5,234.5,3.5,226.0,3.5,218.5,3.5,210.5,3.5,202.5,3.5,194.5,3.5,186.0,3.5,178.0,3.5,169.5,3.0,161.5,3.0,154.0,3.0,146.0,3.0,138.0,3.5,129.5,4.0,121.0,4.0,113.0,4.0,105.0,3.5,97.5,3.5,89.5,3.0,81.5,3.0,73.5,3.0,66.0,3.5,57.5,3.5,49.5,3.5,41.0,3.0,33.5,3.0,25.5,3.0,17.5,2.5,9.5,2.5,2.0,3.0" stroke="black" stroke-width="2" fill="none" />
<polyline points="140.5,229.0,148.0,229.0,156.0,228.5" stroke="black" stroke-width="2" fill="none" />
<polyline points="140.5,243.5,132.5,251.0,124.5,258.0" stroke="black" stroke-width="2" fill="none" />
<polyline points="123.5,262.0,132.0,261.5,140.5,261.0,148.5,260.5,157.0,260.0" stroke="black" stroke-width="2" fill="none" />
<polyline points="148.0,260.0,140.0,267.5" stroke="black" stroke-width="2" fill="none" />
<polyline points="142.0,274.0,150.0,267.0" stroke="black" stroke-width="2" fill="none" />
<polyline points="148.5,276.5,157.0,276.0,165.0,276.0" stroke="black" stroke-width="2" fill="none" />
<polyline points="169.0,278.5,174.0,270.5,187.0,262.5" stroke="black" stroke-width="2" fill="none" />
<polyline points="195.0,254.5,186.5,254.5,178.5,257.0,171.0,258.0,166.5,252.5,156.5,263.5,147.0,265.5,144.5,268.5,147.0,260.0,146.0,252.0,144.0,247.0,136.0,247.0" stroke="black" stroke-width="2" fill="none" />
<polyline points="131.0,245.0,131.0,239.5,137.0,236.5,146.5,233.5,149.0,229.5,152.0,223.5,160.5,223.5,173.5,218.0,178.5,205.0,184.0,197.0,196.0,196.0" stroke="black" stroke-width="2" fill="none" />
<polyline points="210.5,191.5,203.5,190.0,199.5,188.0,187.5,186.0,179.5,198.0,171.5,204.5,163.0,210.5,155.0,216.0,147.0,222.0,139.5,228.0,131.5,236.0,123.5,246.5,115.5,264.5" stroke="black" stroke-width="2" fill="none" />
<polyline points="114.0,269.0,122.0,268.5,131.0,268.0,139.0,267.0,147.0,266.0" stroke="black" stroke-width="2" fill="none" />
<polyline points="148.5,263.5,140.0,265.0,132.0,265.5,124.5,266.5" stroke="black" stroke-width="2" fill="none" />
<polyline points="128.0,263.0,127.0,271.0,128.0,279.5,137.5,287.5,142.5,296.0,149.5,306.5,153.0,314.5,153.5,322.0,160.0,330.0,154.0,338.0" stroke="black" stroke-width="2" fill="none" />
<polyline points="136.5,343.5,136.0,351.5,136.0,359.5,137.0,368.0,139.0,376.0,138.0,384.0,140.0,391.5,139.5,399.5,142.0,407.5" stroke="black" stroke-width="2" fill="none" />
<polyline points="124.5,332.0,117.0,332.5" stroke="black" stroke-width="2" fill="none" />
<polyline points="143.5,322.0,141.5,314.0" stroke="black" stroke-width="2" fill="none" />
<polyline points="145.5,291.0,137.5,291.0,129.5,291.5,121.0,292.0,113.0,292.5" stroke="black" stroke-width="2" fill="none" />
<polyline points="117.5,292.5,125.0,292.0,133.0,296.5,141.0,300.0" stroke="black" stroke-width="2" fill="none" />
<polyline points="118.5,293.0,118.5,301.0,118.0,309.5" stroke="black" stroke-width="2" fill="none" />
<polyline points="124.0,252.5,132.0,252.0,141.0,251.0,149.5,250.5,157.5,250.0" stroke="black" stroke-width="2" fill="none" />
<polyline points="169.5,249.5,162.5,251.5,160.0,258.0,151.5,257.0,159.5,254.0,167.0,247.0,175.0,249.5,182.0,251.5,190.0,251.0" stroke="black" stroke-width="2" fill="none" />
<polyline points="169.5,263.5,159.5,271.5,154.5,280.5" stroke="black" stroke-width="2" fill="none" />
<polyline points="145.0,245.0,137.0,246.0,129.0,246.5" stroke="black" stroke-width="2" fill="none" />
<polyline points="130.5,237.5,138.5,237.0,147.0,237.0" stroke="black" stroke-width="2" fill="none" />
<polyline points="265.0,215.5,273.5,213.5,281.5,214.5,289.0,222.5,297.0,220.0,299.0,210.5,307.0,209.5" stroke="black" stroke-width="2" fill="none" />
<polyline points="348.5,205.5,340.5,197.5,334.5,194.5,332.0,186.0,329.0,177.0,327.0,169.0,326.0,160.5,325.0,152.5,332.0,144.0,341.0,135.5,342.5,127.5,340.5,119.5,332.5,120.5,324.5,120.5,316.5,122.0,308.5,122.0,300.5,122.0,292.5,121.5,284.5,121.5,276.5,121.0,268.5,121.5,260.5,121.5" stroke="black" stroke-width="2" fill="none" />
<polyline points="323.0,132.0,325.0,124.5" stroke="black" stroke-width="2" fill="none" />
</svg>