<svg xmlns="http://www.w3.org/2000/svg" version="1.1"><path d="M179.0,120.5,179.0,128.5,182.0,136.5,187.0,145.0,197.5,152.0,195.5,160.0,195.0,168.0,192.0,176.0,189.5,184.5,182.5,192.5,183.5,197.0,170.5,204.5,159.5,212.0,147.5,219.5,136.5,229.0,129.0,237.0,123.0,244.5,130.0,235.5,138.0,227.5,146.5,223.5,148.5,230.0" stroke="black" stroke-width="2" fill="none" />
<path d="M141.0,231.0,149.0,231.0,157.0,230.0" stroke="black" stroke-width="2" fill="none" />
<path d="M146.5,237.5,138.0,238.0,130.0,239.0" stroke="black" stroke-width="2" fill="none" />
<path d="M132.0,249.0,140.0,248.0,147.5,247.5" stroke="black" stroke-width="2" fill="none" />
<path d="M145.5,252.0,137.5,259.5,129.5,267.0,121.5,274.0,114.0,281.0" stroke="black" stroke-width="2" fill="none" />
<path d="M115.5,277.5,123.5,276.5,131.5,275.5" stroke="black" stroke-width="2" fill="none" />
<path d="M131.5,273.0,123.0,281.0,114.5,288.0" stroke="black" stroke-width="2" fill="none" />
<path d="M114.0,287.0,122.0,286.5,130.5,286.0,139.0,285.5" stroke="black" stroke-width="2" fill="none" />
<path d="M140.5,282.0,133.0,289.0" stroke="black" stroke-width="2" fill="none" />
<path d="M132.0,283.0,124.5,290.5,116.5,297.0" stroke="black" stroke-width="2" fill="none" />
<path d="M114.5,293.0,122.5,292.5,131.0,292.5,139.5,292.5,147.5,292.5" stroke="black" stroke-width="2" fill="none" />
<path d="M141.0,290.5,133.0,298.0" stroke="black" stroke-width="2" fill="none" />
<path d="M136.0,299.5,136.0,307.0,129.0,315.5,129.5,323.5,133.5,331.5,129.5,339.5,125.5,347.5,126.5,355.5,125.5,364.0,125.5,372.0,127.5,380.0,128.5,388.0,129.0,395.5,128.5,403.5,131.5,404.5,132.0,412.5,134.0,420.5,134.0,428.5,137.0,436.5,137.5,445.0,139.5,453.5,142.5,461.0,144.5,469.0,147.5,477.0" stroke="black" stroke-width="2" fill="none" />
<path d="M148.0,472.0,156.0,471.5,164.0,470.5" stroke="black" stroke-width="2" fill="none" />
<path d="M161.5,468.0,153.5,475.5" stroke="black" stroke-width="2" fill="none" />
<path d="M155.0,475.0,163.0,474.0" stroke="black" stroke-width="2" fill="none" />
<path d="M161.5,476.0,153.5,483.5" stroke="black" stroke-width="2" fill="none" />
<path d="M155.0,484.5,163.5,484.0,171.5,484.0,179.5,483.5" stroke="black" stroke-width="2" fill="none" />
<path d="M179.5,491.5,171.5,499.0,164.0,507.0" stroke="black" stroke-width="2" fill="none" />
<path d="M162.5,507.0,170.5,506.5,178.5,505.5" stroke="black" stroke-width="2" fill="none" />
<path d="M182.0,505.0,173.5,513.0" stroke="black" stroke-width="2" fill="none" />
<path d="M173.5,522.5,181.5,515.0,189.5,507.0" stroke="black" stroke-width="2" fill="none" />
<path d="M189.0,514.0,180.5,521.5,172.5,529.5" stroke="black" stroke-width="2" fill="none" />
<path d="M172.5,531.0,181.0,530.0,188.5,529.0" stroke="black" stroke-width="2" fill="none" />
<path d="M186.5,526.0,192.5,534.0,193.0,541.5,190.5,549.5" stroke="black" stroke-width="2" fill="none" />
<path d="M187.5,546.5,179.5,554.0" stroke="black" stroke-width="2" fill="none" />
<path d="M180.0,554.0,188.5,553.5" stroke="black" stroke-width="2" fill="none" />
<path d="M188.0,560.5,196.0,560.5,204.5,560.0" stroke="black" stroke-width="2" fill="none" />
<path d="M205.0,560.0,213.0,565.0" stroke="black" stroke-width="2" fill="none" />
<path d="M218.5,561.0,226.5,561.0,235.0,560.5,243.5,560.0" stroke="black" stroke-width="2" fill="none" />
<path d="M251.0,561.5,259.0,561.0" stroke="black" stroke-width="2" fill="none" />
<path d="M259.0,567.5,267.5,567.0" stroke="black" stroke-width="2" fill="none" />
<path d="M274.5,569.0,267.0,577.5" stroke="black" stroke-width="2" fill="none" />
<path d="M269.0,575.0,261.0,576.0,252.5,577.0,244.5,577.5,236.5,578.5" stroke="black" stroke-width="2" fill="none" />
<path d="M243.5,584.0,251.5,584.0" stroke="black" stroke-width="2" fill="none" />
<path d="M254.0,589.5,263.0,597.5" stroke="black" stroke-width="2" fill="none" />
<path d="M260.0,596.5,252.0,603.5,244.0,610.5,236.0,618.0,228.5,626.0" stroke="black" stroke-width="2" fill="none" />
<path d="M234.0,624.5,242.0,617.0,250.0,609.0,258.0,601.5,266.0,594.5,273.5,586.5" stroke="black" stroke-width="2" fill="none" />
<path d="M269.0,585.0,269.5,592.5,277.5,598.5,286.0,596.5,299.0,588.0,307.5,587.0,313.5,583.0" stroke="black" stroke-width="2" fill="none" />
<path d="M315.5,585.0,323.5,577.5,331.0,570.0,339.0,562.5" stroke="black" stroke-width="2" fill="none" />
<path d="M340.0,555.0,332.0,563.0,324.5,570.5" stroke="black" stroke-width="2" fill="none" />
<path d="M325.0,576.0,332.5,575.5" stroke="black" stroke-width="2" fill="none" />
<path d="M330.0,579.0,322.0,586.0,314.0,593.5,306.0,600.5,298.0,608.0,291.0,615.5,283.5,623.0" stroke="black" stroke-width="2" fill="none" />
<path d="M291.5,623.5,299.0,616.0,306.0,608.5,313.5,601.0,321.5,593.0,329.0,585.5" stroke="black" stroke-width="2" fill="none" />
<path d="M327.0,594.0,330.0,586.5,327.0,594.0,325.0,601.5,324.5,611.5,308.5,619.0" stroke="black" stroke-width="2" fill="none" />
<path d="M315.5,618.5,324.0,611.0,332.0,603.5" stroke="black" stroke-width="2" fill="none" />
<path d="M330.0,595.0,322.0,602.5,315.0,609.5,307.5,616.5,299.5,623.5" stroke="black" stroke-width="2" fill="none" />
<path d="M299.5,615.5,307.0,615.5,315.0,615.0" stroke="black" stroke-width="2" fill="none" />
<path d="M308.5,608.0,316.0,607.5,324.0,607.5" stroke="black" stroke-width="2" fill="none" />
<path d="M324.0,601.0,316.0,602.0" stroke="black" stroke-width="2" fill="none" />
<path d="M307.5,585.5,315.5,578.0" stroke="black" stroke-width="2" fill="none" />
<path d="M310.5,576.5,319.0,572.5,315.0,579.5,311.0,581.5,318.5,575.5,328.0,569.5,338.0,560.5" stroke="black" stroke-width="2" fill="none" />
<path d="M340.5,547.0,332.5,554.5,324.5,562.5,316.5,569.5,308.5,577.0,301.0,584.0,293.0,591.5" stroke="black" stroke-width="2" fill="none" />
<path d="M293.0,584.0,301.0,576.5,308.5,569.5,316.5,562.0,324.5,554.5,332.5,547.5,340.5,540.5,348.5,533.0" stroke="black" stroke-width="2" fill="none" />
<path d="M339.0,532.5,347.0,525.0,355.0,517.5" stroke="black" stroke-width="2" fill="none" />
<path d="M347.5,515.5,339.5,523.5,331.5,531.0" stroke="black" stroke-width="2" fill="none" />
<path d="M330.5,536.5,322.5,544.5,315.0,552.5,307.5,560.0,299.5,567.5,291.5,575.5" stroke="black" stroke-width="2" fill="none" />
<path d="M292.0,570.0,299.5,569.5,307.5,569.0" stroke="black" stroke-width="2" fill="none" />
<path d="M307.5,564.0,315.5,557.0,313.0,559.5,310.5,572.5,313.0,569.0,321.0,566.0,323.0,557.5,323.0,568.0,322.0,576.0,318.0,583.5,318.0,591.5,313.0,599.5,300.5,611.5" stroke="black" stroke-width="2" fill="none" />
<path d="M291.0,610.5,283.0,617.5,274.5,625.0" stroke="black" stroke-width="2" fill="none" />
<path d="M267.0,627.0,274.5,620.0,281.5,612.5" stroke="black" stroke-width="2" fill="none" />
<path d="M283.5,605.0,275.5,612.5,267.0,620.5,259.0,627.5,251.5,635.0" stroke="black" stroke-width="2" fill="none" />
<path d="M256.5,628.0,265.0,628.0,273.0,629.0,281.5,627.0,289.5,626.5,297.5,624.5,305.0,622.5,313.5,619.0,321.5,615.5,329.5,609.0" stroke="black" stroke-width="2" fill="none" />
<path d="M282.0,597.0,274.0,604.5,266.0,612.0,258.5,619.5,250.5,626.0,242.5,633.5" stroke="black" stroke-width="2" fill="none" />
<path d="M233.5,632.5,241.0,625.0,249.5,617.0,257.5,610.0,265.5,602.5,273.5,595.0" stroke="black" stroke-width="2" fill="none" />
<path d="M276.0,597.5,268.0,597.5,260.0,597.5,252.5,598.5,244.0,599.0,236.5,600.0,228.5,601.5,221.0,602.0" stroke="black" stroke-width="2" fill="none" />
<path d="M227.5,601.0,235.0,593.5,243.0,586.0,251.5,578.5,259.5,570.5,267.0,562.5,275.0,554.5" stroke="black" stroke-width="2" fill="none" />
<path d="M271.0,558.5,279.0,557.5,275.5,565.0,281.5,563.0,286.0,562.0,288.0,569.0,285.0,576.0,283.0,584.0" stroke="black" stroke-width="2" fill="none" />
<path d="M282.0,576.5,289.5,569.0,297.5,562.0,305.5,554.5,313.5,547.0,321.5,540.0" stroke="black" stroke-width="2" fill="none" />
<path d="M325.5,535.5,333.5,531.5" stroke="black" stroke-width="2" fill="none" />
<path d="M340.0,533.5,340.5,521.0,339.0,523.0" stroke="black" stroke-width="2" fill="none" />
<path d="M344.0,531.5,345.0,523.5,346.0,515.5" stroke="black" stroke-width="2" fill="none" />
<path d="M348.5,508.0,356.0,507.0,363.5,506.5" stroke="black" stroke-width="2" fill="none" />
<path d="M362.5,499.5,355.0,507.0" stroke="black" stroke-width="2" fill="none" />
<path d="M355.5,498.5,363.5,490.5" stroke="black" stroke-width="2" fill="none" />
<path d="M365.0,490.5,357.0,491.0" stroke="black" stroke-width="2" fill="none" />
<path d="M356.5,489.5,364.5,482.0" stroke="black" stroke-width="2" fill="none" />
<path d="M369.0,481.5,373.0,470.5,370.0,478.0,366.0,478.5,374.0,463.5" stroke="black" stroke-width="2" fill="none" />
<path d="M372.0,467.5,364.0,475.0,356.5,482.5" stroke="black" stroke-width="2" fill="none" />
<path d="M357.0,487.0,364.5,487.0,372.5,486.5" stroke="black" stroke-width="2" fill="none" />
<path d="M364.5,497.5,356.5,498.0" stroke="black" stroke-width="2" fill="none" />
<path d="M363.0,498.5,354.5,499.5,346.5,500.0" stroke="black" stroke-width="2" fill="none" />
<path d="M339.5,499.5,331.0,506.5,322.5,514.0,314.5,521.0,306.5,528.5,299.0,536.0" stroke="black" stroke-width="2" fill="none" />
<path d="M298.5,537.5,307.5,537.0,316.0,536.5" stroke="black" stroke-width="2" fill="none" />
<path d="M316.5,533.5,324.5,522.5,334.5,520.5,324.5,528.0,330.5,537.0,335.5,545.0" stroke="black" stroke-width="2" fill="none" />
<path d="M339.0,562.5,330.5,562.5,321.5,562.5,313.5,562.5" stroke="black" stroke-width="2" fill="none" />
<path d="M307.5,561.5,299.5,562.0" stroke="black" stroke-width="2" fill="none" />
<path d="M305.0,561.0,313.0,553.0,313.0,553.5,305.0,561.5,295.5,570.5" stroke="black" stroke-width="2" fill="none" />
<path d="M291.5,564.0,300.0,557.0,307.5,549.5" stroke="black" stroke-width="2" fill="none" />
<path d="M315.5,553.5,323.0,553.0,331.0,552.5,339.0,552.5" stroke="black" stroke-width="2" fill="none" />
<path d="M339.5,542.0,331.5,542.5,323.5,543.0,315.5,543.5" stroke="black" stroke-width="2" fill="none" />
<path d="M306.5,540.5,301.5,549.0,305.0,552.0" stroke="black" stroke-width="2" fill="none" />
<path d="M293.0,536.5,301.0,528.5,308.5,520.5,316.0,513.0,323.5,505.5,331.0,497.5,339.5,490.0,347.5,482.5" stroke="black" stroke-width="2" fill="none" />
<path d="M349.0,479.0,341.0,479.5" stroke="black" stroke-width="2" fill="none" />
<path d="M338.5,476.0,346.5,468.5" stroke="black" stroke-width="2" fill="none" />
<path d="M345.0,472.5,353.0,472.0,360.5,471.5" stroke="black" stroke-width="2" fill="none" />
<path d="M355.5,473.5,364.0,466.0,372.0,459.0,380.0,451.5" stroke="black" stroke-width="2" fill="none" />
<path d="M373.0,450.0,381.5,442.5" stroke="black" stroke-width="2" fill="none" />
<path d="M379.5,443.5,371.5,444.0" stroke="black" stroke-width="2" fill="none" />
<path d="M370.5,437.0,378.5,436.0,387.0,435.0" stroke="black" stroke-width="2" fill="none" />
<path d="M388.0,428.0,379.5,428.5" stroke="black" stroke-width="2" fill="none" />
<path d="M381.0,426.0,388.5,418.5" stroke="black" stroke-width="2" fill="none" />
<path d="M389.5,423.0,382.0,423.5" stroke="black" stroke-width="2" fill="none" />
<path d="M381.0,413.0,389.0,413.0" stroke="black" stroke-width="2" fill="none" />
<path d="M387.0,405.0,395.5,397.5" stroke="black" stroke-width="2" fill="none" />
<path d="M393.0,390.0,385.0,397.5" stroke="black" stroke-width="2" fill="none" />
<path d="M357.0,379.0,349.0,386.5,341.0,394.0,333.0,402.0,325.0,409.5,317.0,417.0,309.0,424.5" stroke="black" stroke-width="2" fill="none" />
<path d="M307.0,424.5,309.0,432.5" stroke="black" stroke-width="2" fill="none" />
<path d="M306.5,424.5,314.5,431.0,322.5,431.0" stroke="black" stroke-width="2" fill="none" />
<path d="M323.0,425.0,315.0,425.5" stroke="black" stroke-width="2" fill="none" />
<path d="M314.5,424.5,322.5,417.0,330.0,408.5,338.0,401.0,346.0,393.0,353.5,385.5" stroke="black" stroke-width="2" fill="none" />
<path d="M354.0,383.5,346.0,384.0" stroke="black" stroke-width="2" fill="none" />
<path d="M338.5,381.0,331.0,388.5,323.0,395.5,315.0,402.5,307.5,409.5,299.5,417.0" stroke="black" stroke-width="2" fill="none" />
<path d="M301.0,418.0,309.0,417.5,317.0,417.0,325.0,416.5" stroke="black" stroke-width="2" fill="none" />
<path d="M323.5,416.0,331.5,413.0,340.0,409.0,347.0,397.5" stroke="black" stroke-width="2" fill="none" />
<path d="M348.0,402.5,340.0,410.5" stroke="black" stroke-width="2" fill="none" />
<path d="M338.5,395.5,347.0,394.5" stroke="black" stroke-width="2" fill="none" />
<path d="M331.5,392.0,323.5,393.0,315.5,393.0" stroke="black" stroke-width="2" fill="none" />
<path d="M317.0,387.5,308.5,394.5,300.0,402.0,291.5,409.5" stroke="black" stroke-width="2" fill="none" />
<path d="M291.5,411.5,299.5,410.5,307.5,409.0,315.5,408.0,323.5,407.0,331.5,406.0,339.5,405.5" stroke="black" stroke-width="2" fill="none" />
<path d="M346.5,400.0,339.0,401.0,331.0,401.0,323.5,401.5,315.5,401.5,308.0,402.0" stroke="black" stroke-width="2" fill="none" />
<path d="M308.0,416.5,316.0,409.5,324.0,402.0,332.0,394.5,340.5,387.0,348.5,380.0,356.5,373.0" stroke="black" stroke-width="2" fill="none" />
<path d="M356.5,361.0,364.5,353.0" stroke="black" stroke-width="2" fill="none" />
<path d="M365.0,346.5,357.0,354.0,349.5,362.0" stroke="black" stroke-width="2" fill="none" />
<path d="M348.0,353.0,357.0,345.0,365.5,337.5" stroke="black" stroke-width="2" fill="none" />
<path d="M356.0,340.5,348.0,348.0" stroke="black" stroke-width="2" fill="none" />
<path d="M340.0,346.0,348.0,338.0,356.5,330.0,364.5,322.5" stroke="black" stroke-width="2" fill="none" />
<path d="M373.0,314.5,381.5,306.0,389.5,298.5,397.5,291.0,405.5,283.5" stroke="black" stroke-width="2" fill="none" />
<path d="M412.0,283.0,404.0,290.5" stroke="black" stroke-width="2" fill="none" />
<path d="M404.5,299.0,413.0,292.0" stroke="black" stroke-width="2" fill="none" />
<path d="M411.5,306.0,403.5,313.5,395.0,321.5" stroke="black" stroke-width="2" fill="none" />
<path d="M395.5,314.5,404.0,307.0" stroke="black" stroke-width="2" fill="none" />
<path d="M395.5,308.5,387.5,316.0" stroke="black" stroke-width="2" fill="none" />
<path d="M388.0,312.0,396.0,311.5,403.5,311.0" stroke="black" stroke-width="2" fill="none" />
<path d="M395.5,299.0,387.0,307.0,379.0,314.0" stroke="black" stroke-width="2" fill="none" />
<path d="M380.0,311.5,372.0,312.0,364.5,312.0,356.5,312.5" stroke="black" stroke-width="2" fill="none" />
<path d="M355.5,311.5,363.5,304.5,372.0,297.5,380.0,291.0,388.0,283.5,396.5,276.0,405.0,268.5" stroke="black" stroke-width="2" fill="none" />
<path d="M405.0,276.0,397.0,283.5" stroke="black" stroke-width="2" fill="none" />
<path d="M388.5,284.0,381.0,284.5,372.5,285.5,365.0,286.5,357.0,287.5,349.0,288.5" stroke="black" stroke-width="2" fill="none" />
<path d="M345.5,283.5,337.5,291.0" stroke="black" stroke-width="2" fill="none" />
<path d="M333.5,290.5,341.5,286.0,345.5,281.0,353.0,280.5" stroke="black" stroke-width="2" fill="none" />
<path d="M356.0,285.0,348.0,292.5,340.0,299.5" stroke="black" stroke-width="2" fill="none" />
<path d="M347.0,303.0,355.0,295.5,363.0,288.5,371.0,281.0,379.0,273.5" stroke="black" stroke-width="2" fill="none" />
<path d="M380.0,267.5,372.0,274.5,364.0,282.0,356.0,289.5,348.5,297.5" stroke="black" stroke-width="2" fill="none" />
<path d="M348.0,296.0,356.0,295.5" stroke="black" stroke-width="2" fill="none" />
<path d="M352.0,295.5,355.0,303.5" stroke="black" stroke-width="2" fill="none" />
<path d="M355.0,308.0,347.0,315.5" stroke="black" stroke-width="2" fill="none" />
<path d="M343.5,319.0,341.0,320.0,332.5,323.0,340.5,320.0,348.5,323.0" stroke="black" stroke-width="2" fill="none" />
<path d="M346.5,323.5,338.5,331.0,330.5,338.5,322.5,346.5,314.5,354.0,306.5,362.0,298.5,369.5,291.5,377.0,283.5,384.5,275.0,392.0,267.5,399.5,259.5,407.0,252.0,415.0" stroke="black" stroke-width="2" fill="none" />
<path d="M253.5,414.5,261.5,414.0,269.0,413.0,276.5,412.5" stroke="black" stroke-width="2" fill="none" />
<path d="M284.0,411.0,292.0,411.0,300.0,411.0,307.5,411.0,315.0,410.5,323.0,410.5,331.0,410.0,339.0,410.0,347.0,409.5,355.5,409.0,364.0,409.0,371.5,408.5" stroke="black" stroke-width="2" fill="none" />
<path d="M380.0,452.5,372.0,453.0,364.0,453.5" stroke="black" stroke-width="2" fill="none" />
<path d="M364.0,465.5,372.0,465.5" stroke="black" stroke-width="2" fill="none" />
<path d="M355.0,467.5,347.0,475.5,338.5,483.0,331.0,490.5,323.5,498.0" stroke="black" stroke-width="2" fill="none" />
<path d="M322.0,493.5,331.0,493.0,339.5,492.5,347.5,492.5,355.0,493.0,362.5,493.0" stroke="black" stroke-width="2" fill="none" />
<path d="M353.5,490.5,357.5,479.5,354.5,487.5,352.5,496.0,352.5,504.0,352.5,512.0,350.5,519.5,347.5,527.5,343.5,541.5,342.5,549.5" stroke="black" stroke-width="2" fill="none" />
<path d="M322.5,522.0,315.0,529.5,307.0,537.5,299.0,545.5,291.5,554.0,284.0,561.5" stroke="black" stroke-width="2" fill="none" />
<path d="M275.0,563.0,267.0,570.5,259.0,577.5,251.5,585.0,244.0,592.0,236.0,600.0,228.0,607.5,220.5,615.0,213.0,623.0" stroke="black" stroke-width="2" fill="none" />
<path d="M219.0,625.0,226.5,617.5,234.5,610.0,242.5,603.0,250.5,596.0,258.5,588.0" stroke="black" stroke-width="2" fill="none" />
<path d="M258.0,594.5,259.5,590.5,262.5,582.5" stroke="black" stroke-width="2" fill="none" />
<path d="M262.5,580.5,256.5,588.5,248.5,591.0,245.0,594.0" stroke="black" stroke-width="2" fill="none" />
<path d="M243.5,591.0,235.5,592.0,228.0,593.0,220.0,593.5,212.5,594.0" stroke="black" stroke-width="2" fill="none" />
<path d="M211.0,601.0,203.0,609.0,195.0,617.0" stroke="black" stroke-width="2" fill="none" />
<path d="M196.0,618.0,204.5,617.5,213.0,617.0,221.0,616.0" stroke="black" stroke-width="2" fill="none" />
<path d="M217.5,610.0,209.5,617.5,202.0,625.5" stroke="black" stroke-width="2" fill="none" />
<path d="M195.0,627.5,203.5,619.5,211.5,612.0" stroke="black" stroke-width="2" fill="none" />
<path d="M220.0,600.0,227.0,592.5,234.5,584.5,242.5,577.5,250.5,570.5,259.0,563.0,267.5,555.0,276.0,548.0" stroke="black" stroke-width="2" fill="none" />
<path d="M276.0,542.0,283.5,541.5,291.5,541.0,299.0,540.5,307.0,540.0,315.0,539.5,323.0,539.0,331.0,538.0,339.0,538.0,347.5,537.5" stroke="black" stroke-width="2" fill="none" />
<path d="M332.0,511.5,324.0,512.0" stroke="black" stroke-width="2" fill="none" />
<path d="M328.0,511.0,337.5,521.0,328.5,531.5,329.5,524.5,337.5,517.0,346.0,515.0,349.0,520.0,350.0,526.0,352.0,529.0" stroke="black" stroke-width="2" fill="none" />
<path d="M323.5,520.5,316.0,521.5" stroke="black" stroke-width="2" fill="none" />
<path d="M317.5,528.5,310.5,529.0" stroke="black" stroke-width="2" fill="none" />
<path d="M308.5,516.0,301.0,523.5,293.0,531.0,284.5,538.5" stroke="black" stroke-width="2" fill="none" />
<path d="M284.5,532.0,291.5,519.0,296.0,512.0,296.0,504.0,297.5,495.5,301.0,487.5,306.0,479.5,298.0,494.5" stroke="black" stroke-width="2" fill="none" />
<path d="M298.5,490.5,290.5,498.0,283.0,506.0" stroke="black" stroke-width="2" fill="none" />
<path d="M283.0,504.0,291.0,503.5" stroke="black" stroke-width="2" fill="none" />
<path d="M283.5,501.0,292.0,500.5,300.0,500.0" stroke="black" stroke-width="2" fill="none" />
<path d="M299.5,498.5,291.0,506.0,283.0,513.5" stroke="black" stroke-width="2" fill="none" />
<path d="M284.5,515.5,292.0,515.0,299.5,514.5,307.0,513.5,314.5,513.0,322.5,512.5,330.5,512.5,339.0,512.0,347.0,511.5,355.5,511.5" stroke="black" stroke-width="2" fill="none" />
<path d="M339.5,495.5,331.5,496.0" stroke="black" stroke-width="2" fill="none" />
<path d="M332.5,484.0,341.0,483.5,348.0,483.5" stroke="black" stroke-width="2" fill="none" />
<path d="M342.0,487.5,350.0,478.5,358.0,473.0,350.0,478.0,342.5,485.5,341.5,493.5,337.0,502.0,330.0,510.5,329.5,518.5,319.5,526.0,317.5,534.0,311.5,545.0,302.5,548.5,310.5,540.5,323.5,538.5,331.0,535.5,339.0,537.5,340.0,543.5,342.5,540.5,348.5,526.5,358.0,511.5" stroke="black" stroke-width="2" fill="none" />
<path d="M331.0,504.0,323.0,505.0" stroke="black" stroke-width="2" fill="none" />
<path d="M328.5,510.0,336.5,503.0" stroke="black" stroke-width="2" fill="none" />
<path d="M339.0,500.0,331.0,500.5,323.5,500.5,316.0,501.5,308.5,502.0" stroke="black" stroke-width="2" fill="none" />
<path d="M310.0,501.5,301.5,509.0,302.0,508.5,310.0,501.5" stroke="black" stroke-width="2" fill="none" />
<path d="M301.5,505.0,293.0,512.5,285.0,521.0" stroke="black" stroke-width="2" fill="none" />
<path d="M285.0,528.5,294.0,521.0,302.0,513.5" stroke="black" stroke-width="2" fill="none" />
<path d="M310.0,514.0,308.5,508.0,305.5,516.0,297.0,528.0,290.0,536.0,285.0,538.5,281.5,546.0,274.5,554.0,279.5,554.5,288.0,557.5,280.0,563.0,273.0,571.5,270.5,579.5,274.5,584.5,272.5,592.0,274.0,596.0,276.0,589.5,284.0,587.5,288.5,586.5,295.5,582.5" stroke="black" stroke-width="2" fill="none" />
<path d="M285.0,572.5,292.5,572.0,300.5,571.5,308.5,571.5,317.0,571.5,325.0,571.5,332.5,570.5,339.5,569.5" stroke="black" stroke-width="2" fill="none" />
<path d="M274.0,578.5,266.5,586.0" stroke="black" stroke-width="2" fill="none" />
<path d="M267.5,584.0,266.5,592.0" stroke="black" stroke-width="2" fill="none" />
<path d="M278.5,600.0,286.5,598.0,295.0,586.0,290.0,583.5,289.0,591.5" stroke="black" stroke-width="2" fill="none" />
<path d="M258.5,615.0,250.5,615.5" stroke="black" stroke-width="2" fill="none" />
<path d="M259.0,618.0,267.0,619.0,274.5,618.5" stroke="black" stroke-width="2" fill="none" />
<path d="M276.5,607.5,268.5,607.0,260.0,607.0,251.5,607.0,243.5,607.0" stroke="black" stroke-width="2" fill="none" />
<path d="M236.0,606.5,236.0,614.5" stroke="black" stroke-width="2" fill="none" />
<path d="M233.5,613.5,233.5,605.5" stroke="black" stroke-width="2" fill="none" />
<path d="M221.5,591.5,229.0,585.0,237.5,577.5,245.5,570.5,253.5,563.5,262.0,556.5,270.0,549.0" stroke="black" stroke-width="2" fill="none" />
<path d="M265.0,550.5,263.5,542.5,272.0,546.5,264.0,549.0" stroke="black" stroke-width="2" fill="none" />
<path d="M259.5,547.5,251.5,555.0,243.5,562.0,235.5,569.5" stroke="black" stroke-width="2" fill="none" />
<path d="M227.0,580.0,219.5,587.5,212.0,595.0,203.5,602.0,195.0,610.0,187.0,617.5" stroke="black" stroke-width="2" fill="none" />
<path d="M188.5,609.0,196.0,608.5,204.5,608.0" stroke="black" stroke-width="2" fill="none" />
<path d="M202.5,601.5,194.5,602.0" stroke="black" stroke-width="2" fill="none" />
<path d="M200.0,602.5,203.5,604.0,211.5,605.5,208.5,609.0,214.5,612.0,222.5,615.5" stroke="black" stroke-width="2" fill="none" />
<path d="M220.5,625.0,228.5,624.0,236.5,623.5,245.0,623.0,253.0,623.0,261.0,622.5,268.5,622.5,275.5,622.5,283.0,622.5" stroke="black" stroke-width="2" fill="none" />
<path d="M275.0,629.0,267.0,630.0,259.0,630.5,250.5,631.5,242.5,632.0,234.5,633.0,226.5,633.0,219.0,633.0,211.5,633.0,203.5,633.5,195.5,634.0,188.0,634.5,180.0,635.0,171.5,636.0,163.0,636.5,154.5,637.0" stroke="black" stroke-width="2" fill="none" />
<path d="M133.5,631.5,141.5,630.5,149.5,630.0,157.5,629.0,165.0,628.0,172.5,627.5,180.5,626.0,188.0,625.5,196.0,624.5,203.5,623.5,212.0,623.0,220.0,623.0,228.0,622.5,236.0,622.5,245.0,622.5,253.5,622.5,261.5,622.5,269.0,622.0,277.0,622.0,285.0,621.5,293.0,621.0,301.0,620.5,308.5,620.0" stroke="black" stroke-width="2" fill="none" />
<path d="M341.0,557.0,333.0,557.5,325.0,558.0,317.0,558.0,309.0,557.5,301.0,557.5,293.5,558.0,285.0,558.5,277.0,559.0,269.0,559.5,261.5,559.5,253.0,560.0,244.5,561.0,236.5,561.5,229.0,561.5,220.5,562.5,212.5,563.0,204.0,564.0,196.0,565.0,187.5,566.0,179.0,566.5" stroke="black" stroke-width="2" fill="none" />
<path d="M183.0,566.5,191.0,582.0" stroke="black" stroke-width="2" fill="none" />
<path d="M188.0,583.5,195.5,576.0,204.0,569.0,211.5,561.5,219.5,554.0,228.0,547.0,236.0,539.5" stroke="black" stroke-width="2" fill="none" />
<path d="M242.5,539.5,251.0,532.0" stroke="black" stroke-width="2" fill="none" />
<path d="M244.0,532.5,252.0,532.0,259.5,531.5" stroke="black" stroke-width="2" fill="none" />
<path d="M258.5,539.0,251.0,546.5,243.0,554.0,235.0,561.5,226.5,569.0,218.0,577.0,209.5,584.5,202.0,591.5,194.0,599.0,186.5,606.5,178.5,613.5" stroke="black" stroke-width="2" fill="none" />
<path d="M177.5,608.5,185.5,600.5,193.5,592.5,201.5,585.0,209.5,578.0,218.0,571.0,226.0,564.0,234.0,556.0,242.0,548.5" stroke="black" stroke-width="2" fill="none" />
<path d="M235.5,547.0,227.0,554.0,219.5,561.0,212.0,568.5,204.5,576.5,197.0,584.0,188.5,591.5" stroke="black" stroke-width="2" fill="none" />
<path d="M196.0,586.5,204.0,586.0,212.0,585.5,220.0,585.0,227.5,584.5" stroke="black" stroke-width="2" fill="none" />
<path d="M224.5,578.0,226.5,573.0,240.0,569.0,248.0,562.0,248.0,567.5" stroke="black" stroke-width="2" fill="none" />
<path d="M243.5,568.5,236.0,568.5,228.0,569.0,220.5,569.0" stroke="black" stroke-width="2" fill="none" />
<path d="M213.0,552.5,220.5,552.0,228.5,552.5,236.0,552.5,244.0,552.5,252.5,552.5,260.0,552.0" stroke="black" stroke-width="2" fill="none" />
<path d="M267.5,540.0,275.0,532.5" stroke="black" stroke-width="2" fill="none" />
<path d="M279.5,532.0,278.5,539.5,276.5,547.5,284.5,539.5,292.0,537.5,292.0,533.0,300.0,526.5" stroke="black" stroke-width="2" fill="none" />
<path d="M283.5,509.0,291.5,508.0,299.5,507.0,307.0,506.0,314.5,505.0,322.5,504.5,331.0,504.5,339.5,504.5" stroke="black" stroke-width="2" fill="none" />
<path d="M333.0,476.0,340.5,475.5,347.5,476.0,355.0,475.5,363.0,475.0,371.0,474.5" stroke="black" stroke-width="2" fill="none" />
<path d="M372.5,466.0,364.5,466.5,356.0,467.0,347.5,468.0,339.5,468.5" stroke="black" stroke-width="2" fill="none" />
<path d="M338.0,461.0,346.5,460.5,355.5,460.5,363.5,459.0,371.0,457.5,379.0,457.0" stroke="black" stroke-width="2" fill="none" />
<path d="M355.0,452.0,347.0,452.0,339.0,452.0" stroke="black" stroke-width="2" fill="none" />
<path d="M340.0,447.0,347.5,446.0,355.5,445.5,363.5,445.0" stroke="black" stroke-width="2" fill="none" />
<path d="M364.0,436.5,355.5,437.0,347.0,437.5,339.0,437.0,331.0,437.0" stroke="black" stroke-width="2" fill="none" />
<path d="M298.5,429.5,307.0,428.5,315.5,428.0,323.5,427.5,331.5,427.0,339.5,426.5,347.5,426.5,355.0,426.0,363.0,425.5" stroke="black" stroke-width="2" fill="none" />
<path d="M370.5,416.5,362.5,418.0,354.5,418.5,346.5,419.5,338.5,420.0,331.0,420.0,323.5,420.0,316.0,420.0,308.0,420.0,300.0,420.5" stroke="black" stroke-width="2" fill="none" />
<path d="M299.5,420.5,303.0,428.5,304.0,436.5,308.5,437.5,310.5,439.5" stroke="black" stroke-width="2" fill="none" />
<path d="M291.0,416.5,299.0,409.0,307.0,401.5,315.5,394.0,323.5,385.5,331.5,378.0" stroke="black" stroke-width="2" fill="none" />
<path d="M336.0,379.5,329.0,380.5,323.0,382.5" stroke="black" stroke-width="2" fill="none" />
<path d="M330.5,373.0,339.0,373.0,347.5,373.0,356.0,372.5,364.5,372.5,372.5,372.0,380.5,371.5,388.5,370.5,396.5,369.5,404.5,369.0" stroke="black" stroke-width="2" fill="none" />
<path d="M403.5,351.5,395.0,352.0,386.5,352.5,378.5,353.5,371.0,354.5,363.5,355.0,355.5,355.5,347.0,356.5,339.0,357.5" stroke="black" stroke-width="2" fill="none" />
<path d="M330.5,366.0,338.5,365.5,346.5,364.5,355.0,364.0,363.5,363.0,371.5,362.5,379.5,362.5,387.0,362.0,395.0,362.0,403.0,362.5" stroke="black" stroke-width="2" fill="none" />
<path d="M395.5,389.5,387.5,390.0,380.0,390.5,372.0,391.0,364.0,391.5,356.0,392.0,347.5,393.0,339.0,394.0,330.0,395.5,322.0,396.0,314.0,397.0,305.5,398.0,297.5,399.0,290.0,400.0" stroke="black" stroke-width="2" fill="none" />
<path d="M284.5,395.5,292.5,394.5,300.0,391.0" stroke="black" stroke-width="2" fill="none" />
<path d="M289.5,387.5,281.5,395.0,274.5,402.0,266.5,409.5,259.0,416.5" stroke="black" stroke-width="2" fill="none" />
<path d="M250.0,415.5,258.0,415.0,266.0,415.0,274.0,412.0,275.0,410.5,270.0,408.5,271.0,412.0,283.0,406.0,287.0,406.0" stroke="black" stroke-width="2" fill="none" />
<path d="M276.5,410.5,268.5,411.0" stroke="black" stroke-width="2" fill="none" />
<path d="M261.0,402.5,269.0,402.0,277.0,402.0" stroke="black" stroke-width="2" fill="none" />
<path d="M284.0,393.0,276.0,394.0,269.0,394.5,261.0,395.0" stroke="black" stroke-width="2" fill="none" />
<path d="M260.0,386.0,268.0,385.0,276.5,384.0,284.5,383.0" stroke="black" stroke-width="2" fill="none" />
<path d="M285.0,384.0,293.0,385.0,300.5,386.0" stroke="black" stroke-width="2" fill="none" />
<path d="M300.5,379.0,308.0,378.0" stroke="black" stroke-width="2" fill="none" />
<path d="M306.0,375.5,314.0,372.0" stroke="black" stroke-width="2" fill="none" />
<path d="M317.5,376.0,309.5,375.0" stroke="black" stroke-width="2" fill="none" />
<path d="M309.0,369.5,316.5,369.0" stroke="black" stroke-width="2" fill="none" />
<path d="M310.5,364.0,318.0,359.0,326.0,358.5,322.0,360.5,309.5,366.5,312.0,378.5,309.0,387.0,317.0,383.5,319.5,387.0,327.0,380.0,331.0,381.0,340.0,378.5,345.0,376.5" stroke="black" stroke-width="2" fill="none" />
<path d="M325.5,355.5,317.0,363.0,309.0,370.0,300.5,377.5" stroke="black" stroke-width="2" fill="none" />
<path d="M297.0,362.0,305.0,361.5,314.0,361.0" stroke="black" stroke-width="2" fill="none" />
<path d="M323.0,353.0,314.5,353.5,306.0,353.5,297.5,353.5" stroke="black" stroke-width="2" fill="none" />
<path d="M299.0,347.0,307.0,346.5,315.5,345.5,323.5,344.5,332.5,344.5,340.5,344.0" stroke="black" stroke-width="2" fill="none" />
<path d="M331.0,346.0,339.0,338.0,347.5,330.0,356.0,322.5,364.5,314.5,372.5,306.5,380.5,298.5,389.0,291.0" stroke="black" stroke-width="2" fill="none" />
<path d="M386.0,291.0,394.0,305.5" stroke="black" stroke-width="2" fill="none" />
<path d="M385.5,296.0,377.5,296.0,369.0,296.5" stroke="black" stroke-width="2" fill="none" />
<path d="M364.5,296.5,373.0,289.0,381.5,282.0,389.5,275.0" stroke="black" stroke-width="2" fill="none" />
<path d="M381.0,282.0,373.0,282.5,365.0,282.5" stroke="black" stroke-width="2" fill="none" />
<path d="M364.5,274.5,371.5,267.0,379.5,259.5" stroke="black" stroke-width="2" fill="none" />
<path d="M372.0,259.0,380.5,252.0" stroke="black" stroke-width="2" fill="none" />
<path d="M380.0,261.5,372.5,261.5,364.5,261.5" stroke="black" stroke-width="2" fill="none" />
<path d="M362.5,262.5,370.0,264.5" stroke="black" stroke-width="2" fill="none" />
<path d="M365.0,270.0,373.0,269.5,381.0,269.0,388.5,268.5,396.5,268.0,404.5,267.5" stroke="black" stroke-width="2" fill="none" />
<path d="M404.0,261.0,396.0,262.0" stroke="black" stroke-width="2" fill="none" />
<path d="M397.0,253.5,404.5,253.0" stroke="black" stroke-width="2" fill="none" />
<path d="M400.5,259.5,393.0,246.5,385.0,238.5,377.0,232.5,369.0,228.5,361.0,223.5,353.0,218.5,345.0,210.5,337.0,195.5,330.0,192.5,321.5,187.5,313.5,184.5,305.5,185.0" stroke="black" stroke-width="2" fill="none" />
<path d="M301.0,188.5,309.0,188.0,316.5,188.0,324.0,187.5,331.0,186.0" stroke="black" stroke-width="2" fill="none" />
<path d="M325.0,184.5,317.0,193.0" stroke="black" stroke-width="2" fill="none" />
<path d="M319.5,189.5,326.5,203.5,341.5,211.5" stroke="black" stroke-width="2" fill="none" />
<path d="M339.0,195.0,331.5,196.0,323.5,197.0,315.5,198.0" stroke="black" stroke-width="2" fill="none" />
<path d="M310.0,195.0,318.0,188.0" stroke="black" stroke-width="2" fill="none" />
<path d="M324.0,177.0,331.5,169.5" stroke="black" stroke-width="2" fill="none" />
<path d="M330.5,169.0,322.5,169.5,314.0,170.0,306.0,170.5,298.5,171.5,290.5,172.0,282.5,172.5,275.0,173.0,267.5,173.5,260.0,174.0" stroke="black" stroke-width="2" fill="none" />
<path d="M268.0,172.5,276.0,179.5" stroke="black" stroke-width="2" fill="none" />
<path d="M283.5,183.5,292.0,176.5,301.0,169.5,309.0,162.0,316.5,155.0,324.5,148.0,333.0,141.5,341.0,134.5" stroke="black" stroke-width="2" fill="none" />
<path d="M340.0,139.5,331.5,147.5" stroke="black" stroke-width="2" fill="none" />
<path d="M331.0,145.0,323.0,145.5,315.5,145.5,307.5,146.0" stroke="black" stroke-width="2" fill="none" />
<path d="M299.0,137.5,291.0,145.0,282.5,152.5,274.5,160.0" stroke="black" stroke-width="2" fill="none" />
<path d="M274.5,164.0,282.5,163.0,291.0,162.5" stroke="black" stroke-width="2" fill="none" />
<path d="M284.5,164.0,292.5,162.0,298.5,162.0,283.0,163.0,287.0,173.0,288.5,176.0" stroke="black" stroke-width="2" fill="none" />
<path d="M291.0,170.0,299.0,161.5,307.0,154.0,315.0,146.5,323.0,139.0,331.5,132.0" stroke="black" stroke-width="2" fill="none" />
<path d="M322.5,129.5,314.5,137.0,306.5,145.5,298.5,153.5,290.5,161.0,282.5,169.5" stroke="black" stroke-width="2" fill="none" />
<path d="M284.0,161.5,292.5,154.0,301.0,146.5,309.5,139.0,318.0,131.5" stroke="black" stroke-width="2" fill="none" />
<path d="M323.0,138.0,331.5,137.0,340.0,136.0" stroke="black" stroke-width="2" fill="none" />
<path d="M346.0,129.5,338.5,130.0,331.0,131.0,323.0,132.0,315.5,133.0,307.0,133.0,299.0,133.5,291.0,134.0,282.5,134.5,274.0,135.5" stroke="black" stroke-width="2" fill="none" />
<path d="M266.0,141.5,274.5,141.0,283.0,141.0,291.5,140.5,299.5,140.0,308.0,140.0,316.0,139.0,324.0,138.5,332.5,137.0,340.5,136.0" stroke="black" stroke-width="2" fill="none" />
<path d="M343.0,134.5,335.0,146.0,327.0,152.0" stroke="black" stroke-width="2" fill="none" />
<path d="M323.0,155.5,315.0,163.0,307.0,170.5,299.0,177.5" stroke="black" stroke-width="2" fill="none" />
<path d="M298.0,178.0,291.0,186.0,295.5,181.0,304.0,177.0,311.5,173.5,319.5,177.0,328.0,182.0,334.5,187.5,344.0,201.5,352.0,208.5" stroke="black" stroke-width="2" fill="none" />
<path d="M371.0,234.5,371.0,235.5,375.0,243.5,366.5,253.5,369.0,256.5,368.5,263.5,368.5,267.5,377.5,272.0" stroke="black" stroke-width="2" fill="none" />
<path d="M378.0,272.5,369.5,273.0" stroke="black" stroke-width="2" fill="none" />
<path d="M362.0,275.5,354.0,266.5" stroke="black" stroke-width="2" fill="none" />
<path d="M354.0,267.0,358.0,275.0" stroke="black" stroke-width="2" fill="none" />
<path d="M346.5,273.5,338.0,281.5,330.0,289.0,322.5,296.5,315.0,303.5,307.5,311.0,299.5,318.5,292.0,326.5,284.0,334.5" stroke="black" stroke-width="2" fill="none" />
<path d="M284.5,336.5,292.5,334.0,296.5,333.0,293.5,338.5,288.5,346.5,291.0,344.0" stroke="black" stroke-width="2" fill="none" />
<path d="M284.5,347.0,276.0,354.0,267.5,361.5,259.0,369.5,251.5,376.5,244.0,384.0,236.0,391.5,228.0,398.5" stroke="black" stroke-width="2" fill="none" />
<path d="M227.0,393.5,219.0,400.5,211.5,408.0,203.5,415.5,195.5,423.0,187.0,430.5,178.5,438.5" stroke="black" stroke-width="2" fill="none" />
<path d="M180.0,444.5,187.0,452.5,192.5,453.0" stroke="black" stroke-width="2" fill="none" />
<path d="M195.5,452.0,203.5,444.5" stroke="black" stroke-width="2" fill="none" />
<path d="M203.0,448.5,195.0,449.0" stroke="black" stroke-width="2" fill="none" />
<path d="M189.0,447.0,196.5,446.0,204.5,445.5" stroke="black" stroke-width="2" fill="none" />
<path d="M197.0,443.0,189.0,443.5" stroke="black" stroke-width="2" fill="none" />
<path d="M187.0,450.5,195.0,443.0,203.0,435.5,211.0,428.0,219.0,421.0" stroke="black" stroke-width="2" fill="none" />
<path d="M220.0,413.0,212.0,420.5,204.0,427.5,196.0,435.0,188.5,442.5" stroke="black" stroke-width="2" fill="none" />
<path d="M171.0,441.0,178.5,433.5,186.5,426.5,195.0,420.0,203.0,413.0" stroke="black" stroke-width="2" fill="none" />
<path d="M205.0,406.0,212.5,405.0,220.5,404.5,228.5,403.5,236.5,403.0,245.0,402.0,252.5,401.5,260.5,401.5,268.5,401.5,276.5,401.5,284.0,401.0,291.5,400.5,299.0,400.0,306.5,399.5,314.5,399.0,322.5,398.5,330.0,397.5,338.0,397.0,346.5,396.5,354.5,396.0,362.5,395.5,370.5,394.5,379.0,394.0,387.0,393.5,395.5,392.5" stroke="black" stroke-width="2" fill="none" />
<path d="M403.5,334.5,395.5,335.5,388.5,335.5,381.0,335.5,373.0,336.0,365.0,336.5,357.0,337.0,349.0,337.5,341.0,337.5,333.0,337.5,325.0,337.5,317.0,337.5,309.5,337.5,301.5,338.0,293.5,338.5,286.0,339.0,278.0,339.5" stroke="black" stroke-width="2" fill="none" />
<path d="M276.0,338.5,284.0,337.5" stroke="black" stroke-width="2" fill="none" />
<path d="M285.0,337.0,286.0,345.5,287.0,353.0,290.0,356.0" stroke="black" stroke-width="2" fill="none" />
<path d="M284.5,353.0,276.5,353.5" stroke="black" stroke-width="2" fill="none" />
<path d="M268.0,350.5,276.5,350.0,284.5,349.5,292.5,349.0,301.0,348.0,309.5,348.0,317.0,347.5,325.0,347.0,333.0,346.5,341.0,346.0,349.5,345.5,357.0,344.5,364.5,344.0,372.0,343.5,379.5,342.0,387.0,341.0,395.0,340.5,403.5,340.5" stroke="black" stroke-width="2" fill="none" />
<path d="M395.0,305.0,387.5,305.5,379.5,306.5,371.0,307.0,363.0,307.5" stroke="black" stroke-width="2" fill="none" />
<path d="M349.5,306.0,347.5,303.0,347.0,311.0,353.0,318.5" stroke="black" stroke-width="2" fill="none" />
<path d="M339.0,323.0,330.5,330.5,323.0,338.0,315.0,346.0,307.5,354.0,299.5,361.5,291.5,369.0,284.0,376.0,276.0,383.5,267.5,391.0,259.5,398.5,251.5,406.0" stroke="black" stroke-width="2" fill="none" />
<path d="M254.5,405.0,262.5,405.0" stroke="black" stroke-width="2" fill="none" />
<path d="M263.5,408.0,255.5,407.0" stroke="black" stroke-width="2" fill="none" />
<path d="M244.0,397.0,252.0,390.0,260.5,383.0,268.0,375.5,276.0,368.0,284.0,360.5,292.0,353.5,299.5,346.0,307.5,338.5,315.5,330.5,323.0,322.5,331.0,315.0,339.0,308.0" stroke="black" stroke-width="2" fill="none" />
<path d="M331.0,306.5,323.5,314.0,315.0,321.5" stroke="black" stroke-width="2" fill="none" />
<path d="M316.0,323.0,324.0,322.0,332.0,321.0" stroke="black" stroke-width="2" fill="none" />
<path d="M332.0,320.5,323.5,328.5,315.5,336.5,307.0,344.5,298.5,352.5,290.5,360.0,282.5,367.5,275.0,375.0,267.0,383.0,259.0,391.0,251.0,398.5" stroke="black" stroke-width="2" fill="none" />
<path d="M236.5,389.5,245.0,381.5" stroke="black" stroke-width="2" fill="none" />
<path d="M251.0,371.5,259.0,364.5" stroke="black" stroke-width="2" fill="none" />
<path d="M253.0,362.5,245.0,370.5,236.5,378.0,228.5,386.0" stroke="black" stroke-width="2" fill="none" />
<path d="M226.0,378.5,234.0,378.0" stroke="black" stroke-width="2" fill="none" />
<path d="M219.5,377.0,211.0,378.0,202.5,378.5,195.0,378.5" stroke="black" stroke-width="2" fill="none" />
<path d="M195.0,383.5,202.5,377.0,210.5,369.5,218.0,362.0,226.0,354.5" stroke="black" stroke-width="2" fill="none" />
<path d="M220.5,357.0,212.0,364.5,204.0,372.0,196.5,379.5,188.5,386.5" stroke="black" stroke-width="2" fill="none" />
<path d="M195.0,392.0,203.5,385.0,211.5,378.0,219.0,370.5,226.5,363.0,234.0,356.0,242.0,349.0" stroke="black" stroke-width="2" fill="none" />
<path d="M253.5,348.0,246.0,355.5,237.5,363.0,229.5,370.5,221.5,377.5,213.0,385.5,204.5,392.5" stroke="black" stroke-width="2" fill="none" />
<path d="M200.0,391.5,201.0,400.0,205.5,400.0,203.5,408.0" stroke="black" stroke-width="2" fill="none" />
<path d="M203.5,399.5,212.0,392.0,220.5,385.0,229.0,378.0,237.5,371.0,245.5,363.5,253.5,355.5" stroke="black" stroke-width="2" fill="none" />
<path d="M255.0,353.5,247.0,363.5,244.0,373.5,241.5,380.5,244.5,371.5,243.5,365.5,253.0,357.0,256.0,349.0,255.0,340.5,256.0,333.0,258.0,322.0,262.0,314.5,267.0,306.5,262.0,311.5" stroke="black" stroke-width="2" fill="none" />
<path d="M262.0,312.0,269.5,311.0,277.0,310.0,284.5,309.0,292.0,308.5,299.5,307.5,307.5,306.5,315.0,305.0,322.5,304.0,330.5,303.0,338.0,302.5,346.0,302.0,354.5,302.5,362.5,302.5,371.0,302.0,379.0,301.5,387.5,301.5,395.5,301.0,403.5,300.5,411.5,300.0" stroke="black" stroke-width="2" fill="none" />
<path d="M411.0,281.0,403.0,281.5,394.5,281.5,385.5,281.5,377.5,281.5,369.5,282.0,361.5,283.0,354.0,283.5,346.5,283.0,339.0,283.0,331.5,283.0,324.0,283.0,316.5,283.5,308.5,284.0,301.0,284.5" stroke="black" stroke-width="2" fill="none" />
<path d="M301.5,281.0,309.5,273.0" stroke="black" stroke-width="2" fill="none" />
<path d="M300.5,271.0,308.5,280.0,316.5,279.0,324.5,280.0" stroke="black" stroke-width="2" fill="none" />
<path d="M324.0,281.0,316.5,288.5,309.0,296.0,301.0,304.0,293.0,312.5,285.0,320.0,276.5,328.0,268.0,336.0" stroke="black" stroke-width="2" fill="none" />
<path d="M271.0,341.0,269.5,341.5,268.5,349.5,266.5,357.5,251.5,361.5,240.0,370.5,238.0,379.0" stroke="black" stroke-width="2" fill="none" />
<path d="M220.0,384.0,211.5,384.0,203.0,384.0,195.0,384.0,186.5,383.5,178.5,384.0" stroke="black" stroke-width="2" fill="none" />
<path d="M181.0,386.5,188.0,379.0,194.5,371.5,202.0,364.0,209.5,356.5,217.5,349.0" stroke="black" stroke-width="2" fill="none" />
<path d="M216.5,344.0,218.5,351.5,216.0,362.5,218.0,371.0,222.5,373.5,230.5,372.5" stroke="black" stroke-width="2" fill="none" />
<path d="M227.0,362.0,235.0,361.0,243.0,360.5" stroke="black" stroke-width="2" fill="none" />
<path d="M251.0,362.5,259.0,355.0,266.5,354.0" stroke="black" stroke-width="2" fill="none" />
<path d="M267.5,361.5,275.5,361.0,283.0,361.0,291.0,361.0" stroke="black" stroke-width="2" fill="none" />
<path d="M291.5,377.5,283.0,378.0,274.5,378.5,266.5,379.5" stroke="black" stroke-width="2" fill="none" />
<path d="M265.5,370.5,273.5,370.0,282.0,370.0,290.5,369.5,299.5,369.0,308.0,368.5" stroke="black" stroke-width="2" fill="none" />
<path d="M315.0,358.0,307.0,358.5,299.0,359.0,291.5,359.0,283.0,359.5,274.5,360.0,266.5,360.0,259.0,360.5,251.5,361.5,243.5,362.0,235.5,363.0,228.0,363.5,220.0,364.0,212.0,363.5,204.0,363.5,196.0,364.0,187.5,364.5" stroke="black" stroke-width="2" fill="none" />
<path d="M195.0,363.5,203.0,362.5,211.0,362.0" stroke="black" stroke-width="2" fill="none" />
<path d="M215.5,362.5,223.5,361.5,234.5,360.5,231.0,368.5,225.0,373.0" stroke="black" stroke-width="2" fill="none" />
<path d="M219.5,368.0,211.5,368.5,203.5,369.5,195.5,370.0" stroke="black" stroke-width="2" fill="none" />
<path d="M196.0,358.0,204.5,357.5,212.5,357.5,220.0,357.0,227.5,356.5,236.0,356.0,243.5,355.0,251.0,354.5,259.0,353.5,267.5,353.0,276.0,352.0,284.0,352.0,292.0,351.5,300.0,351.5,308.0,351.5,315.5,351.5,323.0,351.0,330.5,350.5" stroke="black" stroke-width="2" fill="none" />
<path d="M320.5,350.0,328.5,348.0,336.5,349.0,338.5,343.0,346.0,341.0" stroke="black" stroke-width="2" fill="none" />
<path d="M355.0,343.5,362.5,345.5,358.5,351.5,356.5,359.5,356.0,367.0,355.0,375.0,353.0,382.5,351.0,390.5,345.0,399.0,343.0,407.0,325.5,415.0,321.0,423.5,322.0,424.0" stroke="black" stroke-width="2" fill="none" />
<path d="M282.5,390.5,274.5,391.0,266.5,392.0,259.0,393.0,251.0,393.5,243.5,394.5,236.0,395.5,228.0,396.5,220.0,397.5,211.5,398.0,203.5,398.5" stroke="black" stroke-width="2" fill="none" />
<path d="M212.0,400.0,220.0,399.5" stroke="black" stroke-width="2" fill="none" />
<path d="M220.5,396.0,212.5,403.5" stroke="black" stroke-width="2" fill="none" />
<path d="M212.0,408.5,220.0,408.0" stroke="black" stroke-width="2" fill="none" />
<path d="M218.5,409.5,210.5,410.0,203.0,410.5,195.0,411.0,187.0,411.5,179.5,412.0,172.0,412.0,164.0,412.5,156.0,413.5,148.5,413.5,140.5,413.5,132.0,413.5" stroke="black" stroke-width="2" fill="none" />
<path d="M138.0,417.0,146.5,409.5,154.0,401.5,162.5,394.0" stroke="black" stroke-width="2" fill="none" />
<path d="M155.5,397.0,147.5,404.5,139.5,412.0" stroke="black" stroke-width="2" fill="none" />
<path d="M139.5,416.0,148.0,416.0,156.0,415.5" stroke="black" stroke-width="2" fill="none" />
<path d="M155.5,422.0,147.5,429.5,139.0,436.5" stroke="black" stroke-width="2" fill="none" />
<path d="M137.5,436.0,145.5,435.5,153.5,435.5" stroke="black" stroke-width="2" fill="none" />
<path d="M148.5,437.0,157.5,450.5,165.5,454.5,174.0,459.0,182.0,460.5" stroke="black" stroke-width="2" fill="none" />
<path d="M162.5,457.0,154.5,464.5" stroke="black" stroke-width="2" fill="none" />
<path d="M149.5,463.5,157.5,463.5,165.0,462.5" stroke="black" stroke-width="2" fill="none" />
<path d="M160.0,457.0,167.5,463.5,175.0,464.5,183.0,464.5" stroke="black" stroke-width="2" fill="none" />
<path d="M171.0,484.5,163.0,492.0,154.5,499.5" stroke="black" stroke-width="2" fill="none" />
<path d="M155.0,500.0,163.0,500.0,171.0,499.5,179.0,499.5,187.5,499.5" stroke="black" stroke-width="2" fill="none" />
<path d="M179.5,499.5,172.0,506.5,164.0,514.0" stroke="black" stroke-width="2" fill="none" />
<path d="M162.5,515.0,170.5,514.5,179.0,513.5,187.5,513.0" stroke="black" stroke-width="2" fill="none" />
<path d="M195.5,514.5,187.5,522.5,179.5,530.5,171.5,538.5" stroke="black" stroke-width="2" fill="none" />
<path d="M170.5,540.5,179.5,557.0,182.5,565.0,186.5,573.0,188.5,580.5,197.0,584.5,197.0,586.5,205.0,592.0,213.0,594.5" stroke="black" stroke-width="2" fill="none" />
<path d="M209.0,604.0,201.0,600.0" stroke="black" stroke-width="2" fill="none" />
<path d="M198.5,596.5,206.5,598.5,214.5,598.0,219.0,608.0,227.0,604.0" stroke="black" stroke-width="2" fill="none" />
<path d="M207.5,596.5,199.5,594.0" stroke="black" stroke-width="2" fill="none" />
<path d="M196.0,579.5,204.0,579.0,211.5,578.0,219.5,577.0" stroke="black" stroke-width="2" fill="none" />
<path d="M203.0,563.5,195.0,571.0,187.0,579.0" stroke="black" stroke-width="2" fill="none" />
<path d="M186.0,570.5,194.5,563.0,203.0,555.5" stroke="black" stroke-width="2" fill="none" />
<path d="M204.5,554.0,196.5,554.5" stroke="black" stroke-width="2" fill="none" />
<path d="M200.5,550.0,208.0,545.0,210.5,545.0,209.5,553.0,210.0,561.0,217.0,567.0,229.0,572.5,227.5,580.5,232.5,586.5,240.5,585.5,251.5,592.0,261.5,584.0,263.0,587.5,267.0,597.5,269.5,583.5,277.5,586.5,285.5,582.0" stroke="black" stroke-width="2" fill="none" />
<path d="M275.0,562.5,266.5,563.0,258.0,563.5,250.0,564.5,242.5,565.5,234.0,566.5,226.5,567.5,219.0,568.5,211.0,569.0,203.0,570.0,195.0,570.5,187.5,571.0,179.5,571.5,171.0,572.0,163.0,572.5,155.0,572.5,147.0,573.0,138.5,573.0,130.0,573.0,121.5,573.0" stroke="black" stroke-width="2" fill="none" />
<path d="M100.0,581.5,108.0,580.5,116.5,580.0,124.5,579.0,133.0,578.5,141.0,578.0,149.0,577.5,157.0,578.0,165.0,577.5,173.5,577.0,181.5,576.0,189.0,576.0,196.5,575.5,204.0,575.0,211.5,575.0,219.0,575.0,226.5,574.5,233.5,574.0,241.0,573.0,249.0,572.5,257.0,572.0,265.0,571.5,274.0,571.0,282.5,570.0,291.0,570.0,300.0,569.0,308.0,568.5,316.5,568.5,324.5,568.5,332.5,568.5,341.0,568.0" stroke="black" stroke-width="2" fill="none" />
<path d="M347.0,530.0,339.0,530.0,331.0,530.5,323.5,531.0,315.0,531.5,307.5,531.5,300.0,532.0,292.5,532.5,285.0,533.0,276.5,533.5,268.5,534.5" stroke="black" stroke-width="2" fill="none" />
<path d="M268.5,525.5,276.5,525.0,284.0,524.5,291.5,524.0,300.0,524.5,308.0,524.5,316.0,524.5,323.5,524.0,331.5,523.5,339.5,522.5,348.0,521.5,355.5,521.0" stroke="black" stroke-width="2" fill="none" />
<path d="M308.0,476.5,299.5,477.0" stroke="black" stroke-width="2" fill="none" />
<path d="M293.5,486.5,301.0,485.5,308.5,485.0" stroke="black" stroke-width="2" fill="none" />
<path d="M300.5,492.0,292.5,492.5,285.0,492.5,277.0,493.0" stroke="black" stroke-width="2" fill="none" />
<path d="M282.5,491.5,274.5,498.5" stroke="black" stroke-width="2" fill="none" />
<path d="M282.5,497.0,290.5,489.5" stroke="black" stroke-width="2" fill="none" />
<path d="M292.0,490.0,300.5,478.0,298.0,480.5,294.0,488.5,287.0,493.5,288.5,501.5" stroke="black" stroke-width="2" fill="none" />
<path d="M275.0,491.0,283.0,484.0" stroke="black" stroke-width="2" fill="none" />
<path d="M284.5,485.0,277.0,485.0" stroke="black" stroke-width="2" fill="none" />
<path d="M275.0,482.0,282.5,474.5" stroke="black" stroke-width="2" fill="none" />
<path d="M277.5,470.0,269.5,477.0" stroke="black" stroke-width="2" fill="none" />
<path d="M269.5,476.0,277.5,475.5,285.0,475.5" stroke="black" stroke-width="2" fill="none" />
<path d="M284.0,463.0,276.0,463.5" stroke="black" stroke-width="2" fill="none" />
<path d="M276.5,464.0,277.5,462.0,276.0,469.5,276.0,477.5" stroke="black" stroke-width="2" fill="none" />
<path d="M269.0,470.0,276.5,469.0,284.0,468.0" stroke="black" stroke-width="2" fill="none" />
<path d="M279.5,460.5,280.0,468.5,278.5,476.5,280.5,484.5,282.5,493.0,284.5,501.0,285.5,512.5,289.5,519.0,285.5,526.5,275.5,535.0,271.5,537.0,272.5,545.0,271.5,558.5,273.0,566.5,270.0,567.5,264.5,575.5" stroke="black" stroke-width="2" fill="none" />
<path d="M241.5,587.0,238.5,589.0" stroke="black" stroke-width="2" fill="none" />
<path d="M205.0,571.0,197.5,571.5" stroke="black" stroke-width="2" fill="none" />
<path d="M187.0,562.0,195.0,554.5,202.5,547.0,209.5,539.5,217.5,532.0" stroke="black" stroke-width="2" fill="none" />
<path d="M221.0,536.5,213.5,536.5" stroke="black" stroke-width="2" fill="none" />
<path d="M211.0,530.5,202.5,538.5,194.0,546.0,186.0,554.0,178.0,561.5" stroke="black" stroke-width="2" fill="none" />
<path d="M181.0,560.0,188.5,559.5,195.5,558.5,203.5,558.0,211.5,557.0,219.5,556.0,227.5,555.5,235.5,554.5,244.0,553.5,252.5,552.5,260.0,551.5,268.0,551.0,276.0,550.5,283.5,550.0,291.0,549.0,299.0,548.5,307.0,548.0,315.5,548.0,323.5,548.0,332.0,548.0,340.0,548.0" stroke="black" stroke-width="2" fill="none" />
<path d="M347.0,539.5,339.0,539.5,331.5,540.0,323.0,540.5,314.5,541.0,306.5,541.0,298.0,541.5,290.0,542.5,282.0,542.5,274.0,543.0,266.5,543.5,258.5,544.5,250.5,545.0,242.5,546.0,235.0,546.0,227.0,546.0,218.5,546.5,210.5,547.0,202.5,547.5,195.5,548.0,187.5,548.5,179.5,549.5,171.0,550.0" stroke="black" stroke-width="2" fill="none" />
<path d="M172.5,541.5,180.0,541.5,188.0,541.5,196.5,541.5,204.5,541.0,212.5,541.0,220.5,540.0,228.0,539.5,235.5,538.5,244.0,538.0,252.0,537.5,260.0,537.0,268.0,536.5" stroke="black" stroke-width="2" fill="none" />
<path d="M267.0,522.5,267.0,524.0,267.5,532.0,257.5,540.5,255.5,543.0,261.0,539.0,265.0,540.5,273.5,538.0,283.0,538.0,294.0,532.5,301.5,526.0,306.5,528.0,295.0,534.0,295.0,544.5,292.0,553.0,296.5,561.5,295.5,571.0,295.5,578.5,295.5,585.5,291.5,593.5,280.5,595.5,278.5,602.5,285.5,610.5,280.0,614.0,285.0,610.5,290.5,616.5,298.5,613.5,301.5,604.5,309.5,606.5,316.5,592.0" stroke="black" stroke-width="2" fill="none" />
<path d="M252.0,523.0,244.0,530.5" stroke="black" stroke-width="2" fill="none" />
<path d="M238.5,525.5,246.5,525.0,254.0,525.0" stroke="black" stroke-width="2" fill="none" />
<path d="M253.0,516.5,245.0,517.0,236.5,517.0" stroke="black" stroke-width="2" fill="none" />
<path d="M234.0,516.5,242.0,525.5,241.5,530.0,243.5,536.5" stroke="black" stroke-width="2" fill="none" />
<path d="M227.0,530.5,219.5,537.5,211.0,545.0" stroke="black" stroke-width="2" fill="none" />
<path d="M218.0,545.5,226.0,545.0,233.5,544.0" stroke="black" stroke-width="2" fill="none" />
<path d="M225.0,539.0,217.0,546.5,209.5,554.0" stroke="black" stroke-width="2" fill="none" />
<path d="M203.0,545.5,195.0,546.0" stroke="black" stroke-width="2" fill="none" />
<path d="M196.0,540.0,203.5,532.5" stroke="black" stroke-width="2" fill="none" />
<path d="M202.0,529.0,193.5,529.5" stroke="black" stroke-width="2" fill="none" />
<path d="M194.5,533.5,202.5,526.0" stroke="black" stroke-width="2" fill="none" />
<path d="M199.5,529.5,200.5,532.0,203.0,532.0,206.0,539.5,208.5,547.5,203.0,555.0,205.0,562.5" stroke="black" stroke-width="2" fill="none" />
<path d="M189.5,545.0,181.5,545.0" stroke="black" stroke-width="2" fill="none" />
<path d="M178.0,539.5,186.0,531.5,194.0,524.0" stroke="black" stroke-width="2" fill="none" />
<path d="M196.0,521.0,188.5,521.5,180.5,521.5,172.5,522.5" stroke="black" stroke-width="2" fill="none" />
<path d="M170.0,526.0,178.0,526.0,186.5,525.5,195.0,525.5,203.0,525.5,211.0,525.0,219.5,524.0" stroke="black" stroke-width="2" fill="none" />
<path d="M232.0,512.5,238.0,520.5,235.0,525.5,239.0,534.0,248.5,542.0" stroke="black" stroke-width="2" fill="none" />
<path d="M236.5,532.0,229.0,532.5,221.5,532.5,214.0,533.0,205.5,533.0,198.0,533.0,189.5,533.5,181.5,534.0,173.5,534.5" stroke="black" stroke-width="2" fill="none" />
<path d="M178.5,535.5,186.5,535.5" stroke="black" stroke-width="2" fill="none" />
<path d="M190.0,538.5,181.5,546.5" stroke="black" stroke-width="2" fill="none" />
<path d="M180.5,555.5,188.0,566.5,191.0,569.5,193.0,577.0,196.5,585.0,198.0,593.0,210.0,594.0,215.0,604.0,222.0,607.0,230.0,613.5,234.0,612.5,239.0,606.0,239.5,614.0,247.5,612.0,258.0,615.5,266.5,615.5,274.5,615.5,279.5,610.5" stroke="black" stroke-width="2" fill="none" />
<path d="M324.0,607.0,316.0,608.0,308.5,608.5,299.5,609.5,291.5,610.5,283.0,611.5,274.0,612.0,266.0,612.5,258.0,613.0,250.5,613.5,243.0,614.5,236.0,615.0,228.5,615.0,220.0,615.5,212.0,616.0,204.0,616.5,196.5,616.0,188.5,616.5,180.5,617.0,172.5,617.5,165.0,618.0,157.0,618.5,149.5,619.0,141.5,619.5,133.5,619.5,125.0,620.0,116.5,620.0,108.5,620.5" stroke="black" stroke-width="2" fill="none" />
<path d="M101.5,611.5,109.5,611.0,117.5,611.0,125.5,611.5,134.0,611.5,142.5,611.0,150.0,611.0,157.5,610.5,165.5,610.0,173.0,610.0,181.0,609.5,189.0,609.0,197.0,608.0,205.0,608.0,213.0,608.0,220.5,608.0,227.5,607.5,235.0,607.0,242.5,606.5,250.5,606.0,258.5,605.0,266.5,604.5,274.5,603.5,283.0,602.5,291.5,602.0,299.5,601.0,308.5,600.0,317.0,599.5,325.0,598.5,332.5,598.0" stroke="black" stroke-width="2" fill="none" />
<path d="M341.0,592.0,333.0,592.5,324.5,593.0,316.5,593.0,308.5,593.0,300.0,593.5,292.0,594.0,283.5,594.5,275.0,594.0,266.5,594.0,258.5,594.5,250.5,595.0,242.5,595.0,235.0,596.0,227.0,596.5,219.0,597.0,210.5,597.5,203.0,598.0,195.0,599.5,187.5,600.5,180.0,601.0,172.0,602.5,164.5,603.0,156.5,603.5,148.5,604.0,140.5,604.5,133.0,605.0,124.5,605.5,117.0,606.0,109.0,606.5,100.0,606.5,92.0,606.5" stroke="black" stroke-width="2" fill="none" />
<path d="M93.5,598.0,102.0,597.5,110.0,596.5,117.5,596.0,125.5,595.5,133.0,595.0,140.0,594.0,147.0,593.5,154.5,593.0,162.5,592.0,170.5,591.5,178.5,591.5,187.0,591.0,195.5,590.5,203.5,590.0,211.5,589.0,219.5,589.0,227.5,588.0,235.0,587.5,243.0,587.0,250.5,586.5,258.5,586.5,267.0,586.0,275.5,586.0,284.0,585.5,291.5,584.5,300.0,584.0,308.0,583.0,316.0,582.5,323.5,582.0,331.5,581.5,340.0,581.0,348.0,580.5" stroke="black" stroke-width="2" fill="none" />
<path d="M337.5,572.5,329.5,573.0,322.0,573.5,314.5,573.5,306.5,573.5,298.0,573.5,289.5,574.0,282.0,574.5,274.5,575.0,266.5,576.0,258.5,576.5,250.5,577.5,242.5,577.5,234.0,578.0,226.0,578.5,217.5,579.0,210.0,580.0,201.5,580.5,193.0,582.5,185.0,583.5,177.0,585.0,169.0,585.5,161.0,586.0,153.5,586.0,146.0,586.0,139.5,586.0,132.5,587.0,124.5,587.5,116.5,587.5,109.0,588.0,101.0,588.0,93.0,588.5" stroke="black" stroke-width="2" fill="none" />
<path d="M177.5,557.5,185.5,575.5" stroke="black" stroke-width="2" fill="none" />
<path d="M208.0,537.0,199.5,532.0,186.5,526.0" stroke="black" stroke-width="2" fill="none" />
<path d="M187.0,524.0,187.0,532.5,186.5,540.5,185.5,549.0,187.0,551.0" stroke="black" stroke-width="2" fill="none" />
<path d="M163.5,518.5,171.5,517.5,179.0,517.0,187.5,516.0,196.0,515.0,204.5,514.0" stroke="black" stroke-width="2" fill="none" />
<path d="M195.5,507.5,187.5,508.5,179.0,509.5,170.0,510.0,162.0,510.5" stroke="black" stroke-width="2" fill="none" />
<path d="M161.5,500.5,169.5,493.0" stroke="black" stroke-width="2" fill="none" />
<path d="M169.0,497.5,161.0,498.0" stroke="black" stroke-width="2" fill="none" />
<path d="M155.5,494.0,163.5,493.5,171.5,493.0,180.0,492.0" stroke="black" stroke-width="2" fill="none" />
<path d="M172.0,489.0,164.0,489.5,156.5,489.5" stroke="black" stroke-width="2" fill="none" />
<path d="M154.5,493.0,162.5,485.5" stroke="black" stroke-width="2" fill="none" />
<path d="M163.0,479.5,155.0,480.0" stroke="black" stroke-width="2" fill="none" />
<path d="M156.0,478.5,163.5,477.5,171.0,477.0" stroke="black" stroke-width="2" fill="none" />
<path d="M171.5,484.5,163.5,478.5" stroke="black" stroke-width="2" fill="none" />
<path d="M152.0,485.5,160.0,508.5,167.5,528.5" stroke="black" stroke-width="2" fill="none" />
<path d="M178.0,501.0,186.0,506.0,193.5,514.5,201.5,523.5,209.5,529.5,218.0,530.5,226.0,534.0,234.0,537.0" stroke="black" stroke-width="2" fill="none" />
<path d="M248.5,530.0,240.5,513.0,232.5,513.0" stroke="black" stroke-width="2" fill="none" />
<path d="M242.5,514.0,245.5,522.5,248.5,530.5,254.0,538.5,256.0,546.5" stroke="black" stroke-width="2" fill="none" />
<path d="M259.0,462.0,267.5,461.0" stroke="black" stroke-width="2" fill="none" />
<path d="M263.0,457.0,271.0,469.0,272.0,484.0,274.0,490.5,278.0,499.0" stroke="black" stroke-width="2" fill="none" />
<path d="M275.0,477.0,272.0,477.0,269.5,469.5,264.5,461.5,261.5,453.5" stroke="black" stroke-width="2" fill="none" />
<path d="M262.5,452.5,260.5,460.5,263.0,468.5,266.0,476.0,270.5,484.0,271.0,492.0,277.0,499.5,281.0,507.5,284.0,515.5,281.5,523.5,288.0,521.5" stroke="black" stroke-width="2" fill="none" />
<path d="M311.0,430.5,310.0,433.5,301.5,429.5,295.5,419.0,287.5,423.0,288.5,422.0,283.5,414.0,286.5,406.0,298.0,398.0,305.5,390.5,302.5,386.5,306.5,379.5,298.5,379.5,291.0,378.5,283.5,381.5" stroke="black" stroke-width="2" fill="none" />
<path d="M281.5,389.0,281.5,390.0,276.5,401.0,279.0,400.0,287.0,401.0,295.0,398.5,303.0,395.5" stroke="black" stroke-width="2" fill="none" />
<path d="M300.5,340.5,292.0,348.5,284.5,356.0,276.5,363.5,268.0,371.0,260.0,379.0,252.0,386.0,244.0,393.0,236.0,400.0,228.0,407.0" stroke="black" stroke-width="2" fill="none" />
<path d="M222.5,405.5,230.5,411.5,238.5,410.5,246.0,409.0,248.0,412.5,251.5,421.0,256.0,422.0,255.0,424.0,259.0,420.0,261.0,417.0" stroke="black" stroke-width="2" fill="none" />
<path d="M219.5,416.5,211.5,417.5,203.5,418.0,195.5,418.5,187.5,419.0,179.5,419.5,172.0,420.5,164.0,420.5,156.5,421.5,148.5,422.0,140.5,422.5,132.5,423.0" stroke="black" stroke-width="2" fill="none" />
<path d="M134.5,430.0,143.0,445.0,145.0,449.5,148.0,457.5,149.5,465.5,151.0,473.5,153.0,481.5,154.0,489.5,156.0,498.0,159.0,506.5,162.5,514.5,165.0,522.0,169.0,530.0,171.0,537.5,173.5,545.0,175.0,553.0,178.0,560.5,181.5,568.5,185.5,576.5,187.5,584.5,190.5,592.5,189.5,600.5,187.0,605.5" stroke="black" stroke-width="2" fill="none" />
<path d="M145.0,465.5,153.5,458.0,162.0,450.5" stroke="black" stroke-width="2" fill="none" />
<path d="M164.5,454.0,156.5,455.0,149.0,455.5" stroke="black" stroke-width="2" fill="none" />
<path d="M147.0,457.0,155.0,449.5" stroke="black" stroke-width="2" fill="none" />
<path d="M155.5,443.0,147.5,451.0" stroke="black" stroke-width="2" fill="none" />
<path d="M140.5,444.5,149.0,444.5,156.5,444.0" stroke="black" stroke-width="2" fill="none" />
<path d="M161.5,441.0,170.0,433.0,178.5,425.5,186.5,418.0,195.0,410.5" stroke="black" stroke-width="2" fill="none" />
<path d="M188.5,410.5,180.5,418.0,172.0,425.5,164.0,433.0" stroke="black" stroke-width="2" fill="none" />
<path d="M162.5,432.5,170.5,432.5,179.0,432.0,187.5,432.0,196.0,431.5,203.5,430.5" stroke="black" stroke-width="2" fill="none" />
<path d="M205.5,435.5,207.5,431.5,215.5,429.5" stroke="black" stroke-width="2" fill="none" />
<path d="M218.0,423.0,210.5,423.5,203.5,423.5,196.0,424.5,188.5,425.0,181.5,425.5,173.5,426.0" stroke="black" stroke-width="2" fill="none" />
<path d="M173.0,417.0,180.5,416.5,188.0,416.5,195.5,416.5,202.5,416.0,210.0,415.0" stroke="black" stroke-width="2" fill="none" />
<path d="M218.5,423.5,210.0,423.5,201.5,424.0,194.0,424.5,186.5,425.0,178.5,426.0,170.5,426.5,162.5,427.5" stroke="black" stroke-width="2" fill="none" />
<path d="M163.0,427.0,171.0,419.5,179.0,412.0" stroke="black" stroke-width="2" fill="none" />
<path d="M179.0,404.5,171.0,412.0,162.5,419.0" stroke="black" stroke-width="2" fill="none" />
<path d="M156.5,424.0,148.5,424.5,140.5,425.0" stroke="black" stroke-width="2" fill="none" />
<path d="M139.0,427.0,146.5,419.5,154.0,411.0,161.5,403.5" stroke="black" stroke-width="2" fill="none" />
<path d="M162.5,402.5,164.0,409.5" stroke="black" stroke-width="2" fill="none" />
<path d="M159.0,409.5,159.0,417.5,156.5,425.5,151.0,433.5,151.0,441.5,153.0,450.0,166.0,455.0" stroke="black" stroke-width="2" fill="none" />
<path d="M159.0,456.0,160.0,464.0,162.5,472.0,163.5,479.5,172.5,487.0,175.5,494.5,177.5,502.5,187.0,508.0,193.5,516.0,202.5,524.5,217.0,530.5,235.0,538.5,237.5,546.5,244.0,546.0,255.0,551.0,257.0,557.0,257.0,559.5,269.0,565.5,279.0,562.0,279.0,551.0,287.0,552.0" stroke="black" stroke-width="2" fill="none" />
<path d="M204.0,436.0,195.5,436.5,187.0,436.0,178.5,436.0,170.5,436.5,162.5,437.0" stroke="black" stroke-width="2" fill="none" />
<path d="M159.5,435.5,167.5,443.5,176.0,442.5,184.0,446.5,192.0,449.5,200.0,453.0" stroke="black" stroke-width="2" fill="none" />
<path d="M154.0,427.5,146.5,435.5,138.5,443.0" stroke="black" stroke-width="2" fill="none" />
<path d="M139.5,433.5,147.5,433.0" stroke="black" stroke-width="2" fill="none" />
<path d="M141.5,430.5,149.5,430.0,157.5,429.0" stroke="black" stroke-width="2" fill="none" />
<path d="M169.0,409.5,177.5,409.0" stroke="black" stroke-width="2" fill="none" />
<path d="M179.5,396.5,171.5,397.0" stroke="black" stroke-width="2" fill="none" />
<path d="M163.5,396.0,156.0,396.0,148.5,396.5,141.0,397.0,133.5,397.0" stroke="black" stroke-width="2" fill="none" />
<path d="M132.0,396.0,140.0,388.5" stroke="black" stroke-width="2" fill="none" />
<path d="M140.5,395.0,132.5,402.5" stroke="black" stroke-width="2" fill="none" />
<path d="M133.0,402.5,141.0,402.0" stroke="black" stroke-width="2" fill="none" />
<path d="M140.0,403.5,131.5,411.0" stroke="black" stroke-width="2" fill="none" />
<path d="M132.5,405.5,140.5,405.0,148.0,405.5,156.0,405.0,164.0,404.5,172.5,404.0,180.0,404.0,187.0,403.5" stroke="black" stroke-width="2" fill="none" />
<path d="M192.0,405.0,183.0,406.0,182.0,402.0,185.0,394.5,184.0,397.5" stroke="black" stroke-width="2" fill="none" />
<path d="M179.5,388.0,187.0,388.0,195.0,387.5,203.0,387.5,211.0,387.0,219.5,387.0,227.5,387.0,235.5,387.0,243.5,386.5,251.5,386.0,259.5,385.5,267.5,385.0,276.0,384.5,284.0,383.5,292.0,382.5,299.5,381.5,307.0,380.5,315.0,380.0,322.5,379.0,330.5,378.0,338.5,377.5,346.5,377.0,354.0,377.0,362.0,376.5,370.0,376.0,378.0,376.0,386.0,376.0,394.5,376.0" stroke="black" stroke-width="2" fill="none" />
<path d="M356.5,328.5,349.0,329.0,340.5,329.5" stroke="black" stroke-width="2" fill="none" />
<path d="M355.5,332.5,347.5,333.0,339.5,334.5,331.5,335.0,324.0,335.5,316.0,336.0" stroke="black" stroke-width="2" fill="none" />
<path d="M315.0,329.5,323.5,329.5,331.5,328.5" stroke="black" stroke-width="2" fill="none" />
<path d="M326.5,312.5,334.0,310.5" stroke="black" stroke-width="2" fill="none" />
<path d="M323.0,313.0,315.5,313.5,307.5,314.0,300.0,314.5" stroke="black" stroke-width="2" fill="none" />
<path d="M297.5,306.5,305.5,306.0,313.5,305.5,321.5,305.0,330.5,304.0" stroke="black" stroke-width="2" fill="none" />
<path d="M327.0,300.0,329.0,297.0,331.5,298.0,330.5,306.0,329.5,307.5,344.0,301.5,355.5,296.5,358.0,308.0" stroke="black" stroke-width="2" fill="none" />
<path d="M360.0,292.5,363.0,297.5,360.5,305.5,358.5,317.5,357.0,325.0,352.0,332.5,354.0,340.5,347.0,346.5,349.0,355.0,350.5,363.0,349.5,371.0,344.5,379.0,340.5,379.5,338.0,387.5,335.0,389.0,326.0,392.0,330.5,389.0,331.5,392.0" stroke="black" stroke-width="2" fill="none" />
<path d="M324.5,365.0,316.5,365.0,309.0,365.5,300.5,366.5,293.0,366.5,285.0,367.0,277.0,368.0,268.5,368.5,260.0,369.0,252.5,369.5,244.0,370.0,235.5,370.5,227.0,371.0,218.5,372.0,210.5,372.5,202.5,372.5,194.5,372.5,187.0,373.0,179.5,373.5" stroke="black" stroke-width="2" fill="none" />
<path d="M177.0,374.0,185.0,368.0,177.5,372.5,174.5,380.0,173.0,388.0,171.5,392.5,173.5,394.5,176.5,402.5,186.5,405.0,191.0,408.0,197.5,409.0,206.5,406.0" stroke="black" stroke-width="2" fill="none" />
<path d="M221.0,404.5,221.5,391.5,223.5,386.0,230.5,385.5,227.5,394.0,223.5,408.0" stroke="black" stroke-width="2" fill="none" />
<path d="M220.5,386.5,219.0,386.5,221.0,395.0,222.0,402.5,220.5,411.5,219.0,420.0,217.0,428.0,205.0,436.5,204.0,446.0,205.0,455.0" stroke="black" stroke-width="2" fill="none" />
<path d="M200.0,404.0,203.0,397.0,198.0,398.5,195.0,398.0,193.0,390.0,188.0,389.0,180.0,390.5,172.0,385.5" stroke="black" stroke-width="2" fill="none" />
<path d="M172.0,381.0,180.5,381.0,188.5,380.0,196.5,379.5,204.5,378.5,212.5,378.0,220.0,378.5,228.0,378.5,235.5,378.5,243.5,378.5,251.0,378.5,259.0,377.5,267.0,377.0,275.5,376.0,283.5,375.0,291.5,374.5,300.0,374.0,308.5,373.0,316.5,372.0,324.5,371.5,332.0,371.0,340.5,370.5,349.0,370.5,357.0,370.5,365.0,371.0,373.0,370.5,381.0,369.5,388.5,369.0,396.5,368.5" stroke="black" stroke-width="2" fill="none" />
<path d="M411.5,308.5,403.5,309.0,395.0,308.5,387.0,308.5,378.5,309.0,370.5,309.0,362.5,309.5,354.5,310.0,347.0,310.0,338.5,310.0,330.5,310.5,322.5,311.0,315.0,312.5,307.5,314.0,300.0,315.0,291.5,315.5,283.5,316.0,276.0,316.5,268.0,317.0,260.5,317.5" stroke="black" stroke-width="2" fill="none" />
<path d="M259.0,324.0,251.0,331.5" stroke="black" stroke-width="2" fill="none" />
<path d="M251.5,334.0,259.0,333.5,267.0,333.5,275.0,333.0,283.5,332.5,292.5,332.0,300.5,332.0,309.0,331.5,316.5,331.0,324.0,331.0,332.0,330.5,340.0,330.0,347.5,329.0,355.5,328.0,364.0,328.0,372.0,327.0,379.5,326.0,387.0,325.5,395.0,324.5,403.0,323.5,410.5,323.5" stroke="black" stroke-width="2" fill="none" />
<path d="M412.0,293.5,403.5,294.0,395.5,294.5,387.0,296.0,379.0,296.5,371.5,296.5,363.5,297.0,355.5,297.0,347.5,297.5,339.5,298.0,331.5,298.5,323.0,298.5,315.0,299.0,306.5,299.5,298.5,299.5,290.0,299.0,282.0,299.5" stroke="black" stroke-width="2" fill="none" />
<path d="M283.5,307.5,275.0,315.5,267.5,322.0,260.0,329.0,252.5,336.5" stroke="black" stroke-width="2" fill="none" />
<path d="M251.5,342.0,259.5,341.5" stroke="black" stroke-width="2" fill="none" />
<path d="M266.5,330.0,274.0,322.5,281.5,315.0,289.0,307.5" stroke="black" stroke-width="2" fill="none" />
<path d="M291.0,311.0,282.5,311.0" stroke="black" stroke-width="2" fill="none" />
<path d="M295.5,307.0,287.5,309.0,287.0,303.0,289.0,295.0" stroke="black" stroke-width="2" fill="none" />
<path d="M288.5,294.5,282.0,302.5,276.0,307.5,266.5,309.5,269.5,313.0,277.5,302.0,285.0,299.5,293.0,298.5,301.5,289.5" stroke="black" stroke-width="2" fill="none" />
<path d="M307.5,290.0,316.0,289.5,324.0,289.0,332.5,288.5,341.0,288.0" stroke="black" stroke-width="2" fill="none" />
<path d="M337.0,276.0,329.0,283.0,321.5,290.0,314.0,297.5,307.0,305.5,299.5,313.0,292.0,321.0,283.5,328.0,276.0,335.5" stroke="black" stroke-width="2" fill="none" />
<path d="M275.5,339.0,279.5,347.0" stroke="black" stroke-width="2" fill="none" />
<path d="M287.0,336.5,295.0,338.0,303.0,334.0,305.0,326.5,305.5,320.5,313.5,317.0" stroke="black" stroke-width="2" fill="none" />
<path d="M313.5,317.0,311.5,325.5,305.5,334.0,294.5,332.0" stroke="black" stroke-width="2" fill="none" />
<path d="M292.5,328.0,284.5,328.5,276.5,329.0,268.0,329.5" stroke="black" stroke-width="2" fill="none" />
<path d="M267.5,322.0,275.5,321.5,283.0,321.0,290.5,321.0,298.0,321.0,305.5,320.5" stroke="black" stroke-width="2" fill="none" />
<path d="M308.0,320.5,315.5,313.0,323.5,305.5,331.0,298.0" stroke="black" stroke-width="2" fill="none" />
<path d="M330.5,279.5,338.5,279.5" stroke="black" stroke-width="2" fill="none" />
<path d="M341.0,270.5,349.0,270.0" stroke="black" stroke-width="2" fill="none" />
<path d="M353.5,272.5,353.0,264.5" stroke="black" stroke-width="2" fill="none" />
<path d="M345.5,257.0,338.0,265.0" stroke="black" stroke-width="2" fill="none" />
<path d="M339.0,262.5,347.5,262.0,356.0,261.0" stroke="black" stroke-width="2" fill="none" />
<path d="M361.5,254.5,369.5,253.5,378.0,253.0" stroke="black" stroke-width="2" fill="none" />
<path d="M379.0,246.0,371.0,247.0,363.5,247.5" stroke="black" stroke-width="2" fill="none" />
<path d="M359.0,245.5,366.0,245.0,369.0,256.5,382.0,272.0,390.0,274.0" stroke="black" stroke-width="2" fill="none" />
<path d="M393.5,282.5,385.5,287.0" stroke="black" stroke-width="2" fill="none" />
<path d="M387.5,286.0,388.5,294.0,392.0,302.0,399.0,305.5,400.5,313.0,402.0,326.0,401.5,333.0,400.5,340.5,399.5,348.5,397.5,356.0,395.0,364.5,392.5,372.0,391.0,380.5,389.0,388.5,386.0,396.5,384.5,405.0,382.5,413.0,382.0,421.5,380.0,429.0,379.0,437.0,374.5,445.0,370.0,453.0,360.0,461.5,344.0,468.5,339.0,476.5,334.0,485.0,327.5,492.5,320.0,500.5,317.0,508.0,312.0,516.0,306.0,517.0,307.0,512.0,317.5,505.0,325.0,495.0,333.0,485.0,341.0,471.0,349.0,466.5,357.5,464.5,365.5,459.0,373.5,447.5" stroke="black" stroke-width="2" fill="none" />
<path d="M409.0,315.5,401.0,316.0,393.5,316.5,386.0,317.5,378.5,318.0,370.5,318.5,363.0,319.0,355.0,319.5,347.0,320.5,339.0,321.5,330.5,322.0,322.5,323.0,315.0,323.5,307.0,323.0,299.0,322.5,291.0,322.5,283.0,323.0,275.5,323.0,267.0,323.5,259.0,324.0,251.0,325.0,243.5,325.5" stroke="black" stroke-width="2" fill="none" />
<path d="M242.0,323.5,250.5,316.0" stroke="black" stroke-width="2" fill="none" />
<path d="M243.0,316.0,235.0,323.0" stroke="black" stroke-width="2" fill="none" />
<path d="M236.0,321.0,244.5,321.0" stroke="black" stroke-width="2" fill="none" />
<path d="M240.0,327.5,247.5,335.0,249.5,343.0,238.5,345.5,229.0,347.5,228.0,345.5,233.0,351.0,240.5,346.0,244.5,346.5" stroke="black" stroke-width="2" fill="none" />
<path d="M244.5,331.5,253.0,324.0" stroke="black" stroke-width="2" fill="none" />
<path d="M244.5,308.5,236.0,309.0" stroke="black" stroke-width="2" fill="none" />
<path d="M236.0,309.0,249.0,317.0,254.0,325.0,256.5,330.0,264.0,327.5" stroke="black" stroke-width="2" fill="none" />
<path d="M253.0,314.5,245.5,315.0,237.5,315.0,229.5,316.0" stroke="black" stroke-width="2" fill="none" />
<path d="M228.0,323.0,236.0,323.0" stroke="black" stroke-width="2" fill="none" />
<path d="M232.0,318.0,224.0,321.0" stroke="black" stroke-width="2" fill="none" />
<path d="M234.5,307.5,234.5,315.5,225.0,324.0,225.0,332.0,232.0,326.0,240.0,325.5,248.0,335.5,261.0,335.5,269.0,336.5,276.5,338.5,277.5,346.5" stroke="black" stroke-width="2" fill="none" />
<path d="M258.5,347.0,250.5,347.5,242.5,348.0,234.5,348.0,227.0,349.0,219.5,349.5,212.5,350.0,205.0,350.5,197.0,351.0" stroke="black" stroke-width="2" fill="none" />
<path d="M195.5,355.0,203.5,347.5" stroke="black" stroke-width="2" fill="none" />
<path d="M203.5,354.0,212.0,354.0,220.5,353.5" stroke="black" stroke-width="2" fill="none" />
<path d="M210.0,348.0,202.5,356.0,195.0,363.5,186.5,371.5,178.5,379.0" stroke="black" stroke-width="2" fill="none" />
<path d="M177.5,378.0,186.0,377.0" stroke="black" stroke-width="2" fill="none" />
<path d="M163.5,387.0,155.5,387.5,147.0,388.0,138.5,388.5,130.5,388.5" stroke="black" stroke-width="2" fill="none" />
<path d="M131.0,388.5,139.0,381.0" stroke="black" stroke-width="2" fill="none" />
<path d="M147.0,380.0,155.0,372.5" stroke="black" stroke-width="2" fill="none" />
<path d="M155.0,380.0,147.0,388.0" stroke="black" stroke-width="2" fill="none" />
<path d="M154.5,388.5,147.0,396.0" stroke="black" stroke-width="2" fill="none" />
<path d="M140.0,394.0,132.0,395.5" stroke="black" stroke-width="2" fill="none" />
<path d="M129.0,386.5,137.0,386.0" stroke="black" stroke-width="2" fill="none" />
<path d="M132.5,378.5,140.5,371.0" stroke="black" stroke-width="2" fill="none" />
<path d="M146.5,371.5,154.0,364.5" stroke="black" stroke-width="2" fill="none" />
<path d="M146.5,363.5,154.5,356.0" stroke="black" stroke-width="2" fill="none" />
<path d="M148.0,356.0,139.5,363.0,131.5,370.5" stroke="black" stroke-width="2" fill="none" />
<path d="M129.5,369.0,138.0,368.5" stroke="black" stroke-width="2" fill="none" />
<path d="M131.5,363.0,139.5,355.0" stroke="black" stroke-width="2" fill="none" />
<path d="M136.5,348.0,143.5,343.5,147.5,351.5,151.5,360.0,153.5,368.0,153.5,376.0,155.5,384.0,157.5,392.0,160.0,400.0,161.5,408.0,166.5,416.0,162.5,417.5,160.5,425.5,160.5,433.5,161.0,441.5" stroke="black" stroke-width="2" fill="none" />
<path d="M169.0,413.5,165.0,405.5,169.0,400.5,165.0,392.0,156.5,382.0" stroke="black" stroke-width="2" fill="none" />
<path d="M154.5,379.0,146.0,379.5,137.5,379.5,129.5,380.5" stroke="black" stroke-width="2" fill="none" />
<path d="M130.0,377.0,138.0,376.0" stroke="black" stroke-width="2" fill="none" />
<path d="M123.0,373.0,130.5,372.5,138.5,372.5,147.0,372.5,155.0,372.5" stroke="black" stroke-width="2" fill="none" />
<path d="M130.5,355.5,138.0,348.0,145.5,341.0,153.5,333.5" stroke="black" stroke-width="2" fill="none" />
<path d="M155.5,331.5,147.5,332.0" stroke="black" stroke-width="2" fill="none" />
<path d="M153.5,325.5,145.5,333.0,138.0,340.0,130.5,347.5" stroke="black" stroke-width="2" fill="none" />
<path d="M132.0,346.0,139.5,346.0" stroke="black" stroke-width="2" fill="none" />
<path d="M139.0,346.0,141.0,354.0,141.0,362.5,143.0,371.0,144.0,379.0,146.0,387.0,144.0,395.0,146.5,403.0,147.0,411.0" stroke="black" stroke-width="2" fill="none" />
<path d="M155.5,364.0,147.0,364.0,138.5,364.5,130.5,364.5,122.0,364.5" stroke="black" stroke-width="2" fill="none" />
<path d="M123.0,357.5,131.0,357.0,138.5,356.0,146.5,355.5,155.0,355.5" stroke="black" stroke-width="2" fill="none" />
<path d="M146.0,348.5,138.5,348.5,130.5,349.5,123.0,350.0" stroke="black" stroke-width="2" fill="none" />
<path d="M123.0,340.5,131.5,340.0,139.5,340.0,148.0,340.0" stroke="black" stroke-width="2" fill="none" />
<path d="M151.0,341.5,143.0,340.5" stroke="black" stroke-width="2" fill="none" />
<path d="M140.5,338.0,148.5,337.5,156.5,337.5" stroke="black" stroke-width="2" fill="none" />
<path d="M163.0,333.0,155.5,334.0,148.0,334.5,140.0,335.5,132.0,336.5" stroke="black" stroke-width="2" fill="none" />
<path d="M138.5,330.5,146.0,324.0,154.5,316.5" stroke="black" stroke-width="2" fill="none" />
<path d="M152.5,317.0,160.5,323.0,168.5,320.5,177.0,328.5,185.0,325.5,193.5,321.5,196.5,314.0,195.0,321.0" stroke="black" stroke-width="2" fill="none" />
<path d="M194.0,319.0,202.0,314.0" stroke="black" stroke-width="2" fill="none" />
<path d="M180.5,313.0,172.0,313.5,163.5,314.0,155.0,314.5,147.0,315.0,140.0,316.0,132.5,316.5,125.0,317.5,117.0,318.0" stroke="black" stroke-width="2" fill="none" />
<path d="M115.5,314.0,115.5,322.0,116.5,330.5,118.5,339.0,119.5,346.5,118.5,355.0,119.5,363.0,121.0,371.0,121.5,379.0,123.0,386.5,125.0,395.0" stroke="black" stroke-width="2" fill="none" />
<path d="M152.0,360.0,144.0,344.0" stroke="black" stroke-width="2" fill="none" />
<path d="M138.5,346.0,138.5,354.0,138.5,361.5,140.0,369.0,141.0,377.0,139.5,385.0,142.0,393.0,141.5,401.0,144.0,409.0" stroke="black" stroke-width="2" fill="none" />
<path d="M122.5,331.5,114.5,332.0" stroke="black" stroke-width="2" fill="none" />
<path d="M115.5,326.0,124.0,325.5,131.5,324.5,139.5,324.0,148.0,324.0,156.0,323.5,164.5,323.0" stroke="black" stroke-width="2" fill="none" />
<path d="M155.5,322.0,148.0,322.5" stroke="black" stroke-width="2" fill="none" />
<path d="M148.0,315.5,156.0,308.0" stroke="black" stroke-width="2" fill="none" />
<path d="M146.5,308.0,138.5,315.5,131.0,322.5" stroke="black" stroke-width="2" fill="none" />
<path d="M137.5,315.0,137.0,314.5,137.5,322.5,139.5,329.0" stroke="black" stroke-width="2" fill="none" />
<path d="M142.5,325.0,142.5,316.5,139.0,308.5,131.0,312.5" stroke="black" stroke-width="2" fill="none" />
<path d="M140.0,303.0,148.0,302.0" stroke="black" stroke-width="2" fill="none" />
<path d="M157.0,306.0,149.0,307.0,141.0,308.0,132.5,309.0,124.0,310.5,116.0,311.0" stroke="black" stroke-width="2" fill="none" />
<path d="M115.0,313.5,121.0,294.0,129.0,292.0,137.0,299.5" stroke="black" stroke-width="2" fill="none" />
<path d="M124.5,298.5,116.0,305.5" stroke="black" stroke-width="2" fill="none" />
<path d="M114.5,302.0,123.0,301.5" stroke="black" stroke-width="2" fill="none" />
<path d="M121.5,296.0,120.5,304.0,117.5,311.5,118.0,319.5,119.0,327.0,120.0,335.0,121.0,342.5" stroke="black" stroke-width="2" fill="none" />
<path d="M115.0,289.5,123.0,289.5,131.0,289.5" stroke="black" stroke-width="2" fill="none" />
<path d="M129.0,279.0,136.5,286.0,144.5,297.0,152.0,312.5,159.5,318.5,165.0,309.0,173.5,309.0" stroke="black" stroke-width="2" fill="none" />
<path d="M175.0,311.0,177.0,318.5" stroke="black" stroke-width="2" fill="none" />
<path d="M179.5,309.5,171.0,310.0" stroke="black" stroke-width="2" fill="none" />
<path d="M166.5,310.0,166.5,318.0,174.0,328.5,182.0,322.5,189.5,320.0,197.5,312.0,205.5,309.5" stroke="black" stroke-width="2" fill="none" />
<path d="M199.5,335.5,202.0,340.0,202.0,348.0,199.0,347.5,203.5,346.0,209.0,345.0,217.0,343.5,222.5,353.5,224.5,350.5" stroke="black" stroke-width="2" fill="none" />
<path d="M221.5,340.5,212.5,341.0" stroke="black" stroke-width="2" fill="none" />
<path d="M194.5,340.5,194.5,348.5,193.5,356.5,193.5,364.5,188.5,365.0,191.0,365.0" stroke="black" stroke-width="2" fill="none" />
<path d="M235.5,307.5,243.5,313.5,252.0,318.5" stroke="black" stroke-width="2" fill="none" />
<path d="M290.0,328.0,298.0,326.0" stroke="black" stroke-width="2" fill="none" />
<path d="M300.5,297.5,309.0,290.5,317.0,283.0" stroke="black" stroke-width="2" fill="none" />
<path d="M300.0,277.5,292.5,285.0" stroke="black" stroke-width="2" fill="none" />
<path d="M296.0,282.0,298.5,291.0,291.5,298.5,292.5,306.5,292.5,313.0" stroke="black" stroke-width="2" fill="none" />
<path d="M298.5,297.0,306.5,296.5,315.0,296.0,323.0,296.0,331.0,296.0" stroke="black" stroke-width="2" fill="none" />
<path d="M291.0,294.5,299.0,294.0,306.5,293.0,315.0,292.5,323.0,291.0,331.5,290.5,339.5,290.0,347.5,289.5,355.5,289.0,363.5,289.0,371.0,288.5,379.5,288.5,387.5,287.5,395.5,286.5,403.5,285.0,412.0,284.5" stroke="black" stroke-width="2" fill="none" />
<path d="M412.0,269.5,404.5,270.0,396.0,270.0,387.5,271.0,379.0,271.0,371.0,271.0,362.5,271.0,355.0,271.5,347.5,273.0,340.0,273.5,332.0,273.5,323.5,274.0,315.5,274.5,307.0,275.5,299.0,276.0,290.5,276.5,282.5,277.5" stroke="black" stroke-width="2" fill="none" />
<path d="M286.0,281.5,294.0,281.0,302.0,284.0" stroke="black" stroke-width="2" fill="none" />
<path d="M291.5,275.0,299.5,268.0" stroke="black" stroke-width="2" fill="none" />
<path d="M300.5,270.0,292.0,270.0" stroke="black" stroke-width="2" fill="none" />
<path d="M296.5,265.0,288.5,274.5,285.0,279.5,292.5,271.0,297.0,263.5" stroke="black" stroke-width="2" fill="none" />
<path d="M299.0,263.5,298.5,271.5,305.5,279.0,308.0,279.5" stroke="black" stroke-width="2" fill="none" />
<path d="M335.0,253.0,343.5,254.0,351.5,255.0,350.5,262.0,345.0,269.5,345.0,277.5,341.0,288.5,341.0,293.0,341.0,301.0,341.5,305.0,337.5,313.5,331.5,321.5,332.0,319.0,340.0,308.5,354.0,315.5,363.5,315.5,372.0,317.5,384.0,310.5,392.0,320.0,399.5,320.0" stroke="black" stroke-width="2" fill="none" />
<path d="M404.0,308.0,404.0,300.0,402.0,292.0,398.0,284.5,398.5,273.5,396.5,265.5,395.5,257.5,394.0,249.5,387.0,241.5,376.0,233.5,362.0,225.0,349.5,216.5,342.5,208.5,338.5,200.5,328.5,192.0,318.5,191.0,325.5,188.0,329.5,176.5" stroke="black" stroke-width="2" fill="none" />
<path d="M324.5,171.5,316.5,178.5" stroke="black" stroke-width="2" fill="none" />
<path d="M316.0,170.5,324.0,163.5" stroke="black" stroke-width="2" fill="none" />
<path d="M323.5,159.5,315.5,159.5" stroke="black" stroke-width="2" fill="none" />
<path d="M323.0,167.0,315.0,167.0,307.5,167.5,299.5,168.0" stroke="black" stroke-width="2" fill="none" />
<path d="M298.5,161.0,306.0,163.0" stroke="black" stroke-width="2" fill="none" />
<path d="M322.5,149.0,315.0,150.5,307.0,151.5,299.5,152.5,291.5,153.5,283.5,155.0" stroke="black" stroke-width="2" fill="none" />
<path d="M283.5,147.5,275.0,155.0,267.0,162.0" stroke="black" stroke-width="2" fill="none" />
<path d="M268.0,167.0,276.0,166.5,284.0,166.5,292.0,165.5,300.0,165.0,308.5,164.0,316.5,163.5,324.5,163.0,332.0,162.0" stroke="black" stroke-width="2" fill="none" />
<path d="M331.0,178.5,323.0,179.0,314.5,180.0,306.5,180.5,298.5,181.0,291.5,182.0,284.0,182.5,275.5,183.0,268.0,183.0" stroke="black" stroke-width="2" fill="none" />
<path d="M262.0,179.0,253.5,170.5,245.5,168.5" stroke="black" stroke-width="2" fill="none" />
<path d="M245.0,164.0,253.5,161.0,261.0,158.0,269.0,160.5,276.5,163.5,284.5,161.0,292.5,158.0,300.5,156.0,308.5,157.0" stroke="black" stroke-width="2" fill="none" />
<path d="M330.5,153.5,322.0,154.5,314.0,154.5,306.5,154.5,299.0,154.5,291.0,154.5,283.0,155.0,275.5,155.5,268.0,155.5,260.0,156.0,252.5,156.0,245.0,156.5" stroke="black" stroke-width="2" fill="none" />
<path d="M251.5,164.0,259.5,157.0" stroke="black" stroke-width="2" fill="none" />
<path d="M259.5,163.0,268.0,155.5,275.5,148.0" stroke="black" stroke-width="2" fill="none" />
<path d="M275.0,151.0,267.0,153.0,259.0,152.5,251.5,153.0,243.5,153.0,235.5,153.0,227.5,152.0,219.5,152.0,212.0,151.0,204.0,151.0,196.5,154.0,189.0,147.0,181.0,135.0" stroke="black" stroke-width="2" fill="none" />
<path d="M182.5,127.5,190.5,139.5" stroke="black" stroke-width="2" fill="none" />
<path d="M186.5,142.0,195.0,141.5" stroke="black" stroke-width="2" fill="none" />
<path d="M197.5,149.0,205.0,148.5,213.0,147.5,220.5,146.5" stroke="black" stroke-width="2" fill="none" />
<path d="M216.5,156.0,217.5,164.0" stroke="black" stroke-width="2" fill="none" />
<path d="M211.5,157.0,204.0,157.0" stroke="black" stroke-width="2" fill="none" />
<path d="M200.5,153.5,209.0,153.5,217.0,153.5,225.0,153.0,233.0,154.0,241.0,154.5,249.0,155.0" stroke="black" stroke-width="2" fill="none" />
<path d="M236.0,149.0,244.0,149.0,252.0,148.5,260.0,148.5,268.0,148.5,275.5,148.5,283.0,148.0,290.5,147.5,298.0,147.5,306.5,147.0,314.5,146.5,322.5,145.5,331.0,145.0" stroke="black" stroke-width="2" fill="none" />
<path d="M333.5,132.0,340.5,126.0" stroke="black" stroke-width="2" fill="none" />
<path d="M348.5,123.0,340.0,123.0,331.5,124.0,323.0,124.0,315.0,124.0,306.5,124.0" stroke="black" stroke-width="2" fill="none" />
<path d="M277.5,163.0,285.5,171.0,282.5,177.0,281.5,174.5" stroke="black" stroke-width="2" fill="none" />
<path d="M283.0,173.0,275.0,171.0,267.0,168.0,259.0,168.0,251.0,165.5,243.5,169.5,235.5,169.0,228.0,164.0,220.0,163.5,212.0,166.5,204.0,170.5,206.0,163.5,197.5,158.5" stroke="black" stroke-width="2" fill="none" />
<path d="M196.0,168.5,204.0,165.5,199.0,167.5,198.0,177.0,193.5,185.0,199.0,190.0,204.0,192.5,207.0,196.5,212.0,192.0,217.0,197.5,202.0,205.5,210.0,205.5,209.5,210.0,215.5,208.0,218.0,208.0,216.0,212.0" stroke="black" stroke-width="2" fill="none" />
<path d="M201.5,195.0,193.5,195.5,185.5,196.0" stroke="black" stroke-width="2" fill="none" />
<path d="M186.5,190.0,194.5,189.0,202.5,188.5" stroke="black" stroke-width="2" fill="none" />
<path d="M205.0,174.0,197.5,174.5" stroke="black" stroke-width="2" fill="none" />
<path d="M204.0,172.5,212.0,172.0,219.5,176.0,227.5,178.0,235.5,179.5,245.0,184.5,251.0,184.5,258.5,184.5" stroke="black" stroke-width="2" fill="none" />
<path d="M252.0,185.0,248.0,187.5,241.0,189.5" stroke="black" stroke-width="2" fill="none" />
<path d="M251.0,198.5,243.0,195.5,235.0,194.5,226.5,197.5,218.0,198.5,209.5,201.0,202.0,205.0,193.5,204.0" stroke="black" stroke-width="2" fill="none" />
<path d="M179.5,198.0,187.0,191.0,194.0,183.5,202.0,175.0,209.5,177.0,217.5,188.5" stroke="black" stroke-width="2" fill="none" />
<path d="M215.5,187.5,212.0,179.5,208.0,170.5" stroke="black" stroke-width="2" fill="none" />
<path d="M250.0,171.0,258.0,178.5,264.0,186.5" stroke="black" stroke-width="2" fill="none" />
<path d="M277.5,192.0,265.5,199.0,273.5,194.0,282.0,191.5,290.0,189.5,299.5,191.0,306.5,194.0,314.5,201.0,322.5,202.0,330.5,205.0,338.5,209.0" stroke="black" stroke-width="2" fill="none" />
<path d="M357.0,243.5,365.0,244.5,373.0,245.0" stroke="black" stroke-width="2" fill="none" />
<path d="M373.5,237.0,376.5,245.0,380.0,252.5,377.0,260.0,381.0,268.0,381.0,275.5,378.0,277.5" stroke="black" stroke-width="2" fill="none" />
<path d="M382.0,298.5,381.0,302.5,378.5,310.5,374.5,318.5,372.0,319.5" stroke="black" stroke-width="2" fill="none" />
<path d="M387.5,316.0,380.5,308.5,381.5,301.0" stroke="black" stroke-width="2" fill="none" />
<path d="M395.0,250.5,398.5,258.5,402.0,266.5,403.5,275.0,405.5,283.5,406.5,291.5,406.5,299.5,406.5,307.0,406.5,315.0,405.5,322.5,405.0,330.5,404.0,338.5,402.0,346.5,401.0,355.0,399.5,363.0,398.5,371.5,396.5,379.5,394.5,387.5,392.5,395.5,390.0,403.5,388.0,411.5,386.0,419.5,385.5,428.0,382.5,436.0,380.5,444.5,376.5,452.5,376.0,460.0,371.0,468.0,368.5,475.5,365.5,483.5,366.5,491.5,364.0,499.5,361.0,507.5,358.0,515.5,356.0,523.5,352.0,531.0,348.5,539.0,345.5,546.5,342.0,554.5,340.0,561.0,336.0,569.0,333.0,577.0,326.0,585.0,323.0,592.5" stroke="black" stroke-width="2" fill="none" />
<path d="M339.0,253.5,346.5,252.5,354.5,251.5" stroke="black" stroke-width="2" fill="none" />
<path d="M350.5,258.5,337.5,269.5,329.5,275.5,332.5,273.5,338.5,265.5,335.5,257.0,335.5,249.0" stroke="black" stroke-width="2" fill="none" />
<path d="M359.0,242.5,361.0,250.5,361.5,258.0,364.5,266.0,363.0,274.0" stroke="black" stroke-width="2" fill="none" />
<path d="M340.5,213.5,332.5,212.5,328.5,209.5,316.5,207.5,312.5,201.0,303.5,193.0,302.5,185.0,303.5,185.0,295.5,185.0" stroke="black" stroke-width="2" fill="none" />
<path d="M302.0,200.0,302.0,206.0,294.0,206.0,286.5,210.0,278.5,209.0,271.0,207.5,263.0,208.5" stroke="black" stroke-width="2" fill="none" />
<path d="M264.5,215.5,272.5,214.5,280.0,214.5" stroke="black" stroke-width="2" fill="none" />
<path d="M296.5,205.5,292.5,210.5,301.0,210.5,314.5,205.5,323.0,208.5" stroke="black" stroke-width="2" fill="none" />
<path d="M350.5,206.5,343.0,198.5,338.0,190.5,333.0,182.5,330.0,175.0,328.0,167.0,327.0,158.5,328.0,151.0,338.0,143.0,342.5,135.5,345.0,127.5,343.5,123.0,335.5,123.0,327.5,123.0,320.0,123.0,312.0,124.0,304.0,123.0,296.0,123.0,288.0,123.0,280.0,122.5,272.0,122.0,264.0,123.0,255.5,123.0" stroke="black" stroke-width="2" fill="none" />
<path d="M273.5,169.5,276.0,177.5,273.0,178.5" stroke="black" stroke-width="2" fill="none" />
<path d="M180.0,212.0,172.0,212.0" stroke="black" stroke-width="2" fill="none" />
<path d="M176.0,206.5,184.5,204.5,192.5,204.5,192.5,206.0,194.5,214.5" stroke="black" stroke-width="2" fill="none" />
<path d="M205.5,215.0,197.0,215.0,191.5,216.0,182.5,214.0,183.5,218.0,179.5,213.5,179.5,205.5,190.5,195.5,181.0,202.5,172.5,204.5,164.5,210.5,156.0,214.0,148.0,220.5" stroke="black" stroke-width="2" fill="none" />
<path d="M140.5,243.0,133.0,250.0,125.0,257.5" stroke="black" stroke-width="2" fill="none" />
<path d="M124.0,261.0,132.0,260.0,139.5,259.5,147.0,259.0,155.5,258.5" stroke="black" stroke-width="2" fill="none" />
<path d="M144.5,260.0,137.0,267.5" stroke="black" stroke-width="2" fill="none" />
<path d="M137.5,273.0,145.5,266.0" stroke="black" stroke-width="2" fill="none" />
<path d="M149.0,276.5,157.5,276.0,165.5,276.0" stroke="black" stroke-width="2" fill="none" />
<path d="M162.5,282.0,171.5,274.0,178.0,265.5" stroke="black" stroke-width="2" fill="none" />
<path d="M170.0,262.5,159.0,270.5,157.0,279.0,158.5,277.0" stroke="black" stroke-width="2" fill="none" />
<path d="M149.5,266.0,141.0,266.5,132.5,266.5,124.5,267.5" stroke="black" stroke-width="2" fill="none" />
<path d="M125.5,267.0,133.5,268.0,142.0,274.5,148.0,276.5,156.5,274.5,165.0,266.5,173.0,263.5,180.5,262.5,188.5,261.5,196.5,264.5" stroke="black" stroke-width="2" fill="none" />
<path d="M197.0,255.5,188.5,254.5,180.5,257.5,172.5,258.5,165.0,255.0,157.0,264.0,148.5,268.5,147.5,263.5,146.5,255.0,146.5,249.0,138.0,249.5,130.0,252.5" stroke="black" stroke-width="2" fill="none" />
<path d="M131.5,249.5,139.0,240.5,146.5,235.5,135.5,239.5,128.0,247.0,121.5,255.5,122.0,262.5,117.0,265.5,114.0,273.5,112.0,281.5,111.0,289.0,112.0,297.0,112.5,305.0,113.5,313.0,112.5,321.0" stroke="black" stroke-width="2" fill="none" />
<path d="M114.5,275.0,122.5,255.0,130.5,243.0,138.5,237.0,148.5,231.5,139.0,239.5,131.5,248.0,132.5,251.5,133.0,254.5,134.0,257.0,148.0,260.5,156.0,257.0,164.0,251.0,172.0,251.0,178.0,254.5,186.0,250.5,194.5,252.5" stroke="black" stroke-width="2" fill="none" />
<path d="M198.0,271.0,190.0,264.5,182.0,266.0,173.5,270.5,165.5,280.5,157.0,282.5,149.0,282.0,146.0,279.5,144.0,271.5,156.0,263.5,164.5,255.5,167.5,254.0" stroke="black" stroke-width="2" fill="none" />
<path d="M165.0,249.5,153.5,257.5" stroke="black" stroke-width="2" fill="none" />
<path d="M140.5,249.0,133.0,257.0,125.0,264.5,116.5,272.5" stroke="black" stroke-width="2" fill="none" />
<path d="M117.0,268.0,125.0,267.5,132.0,267.0,140.0,266.5,148.0,266.5" stroke="black" stroke-width="2" fill="none" />
<path d="M153.0,252.0,145.5,252.0,138.0,252.0,131.0,252.0,123.0,253.0" stroke="black" stroke-width="2" fill="none" />
<path d="M128.0,265.0,126.5,273.0,127.5,281.0,137.5,289.0,142.5,297.0,148.0,305.5,152.0,313.5,153.0,321.0,159.0,329.5,157.5,337.0,161.0,333.5" stroke="black" stroke-width="2" fill="none" />
<path d="M190.5,139.0,184.5,131.5,182.5,123.5" stroke="black" stroke-width="2" fill="none" />
<path d="M178.5,121.0,186.5,121.0" stroke="black" stroke-width="2" fill="none" />
</svg>