<svg xmlns="http://www.w3.org/2000/svg" version="1.1"><polyline points="225.5,48.0,224.5,56.5,225.5,64.5,227.5,73.0,229.5,81.0,231.5,89.0,233.0,97.0,234.0,105.5,235.0,113.5,235.0,121.5,236.0,129.5,237.0,137.5,237.0,145.0,237.0,153.0,236.0,161.0,234.0,168.5,231.5,176.5,228.5,185.0,210.5,193.0,200.5,201.0,193.0,209.5,189.0,217.0,185.0,225.0,183.0,233.0,181.5,241.5,181.5,249.5,182.0,257.5,184.0,265.0,187.5,273.0,191.5,281.0,198.0,289.0,206.0,297.0,208.5,305.0,214.5,313.0" stroke="black" stroke-width="2" fill="none" />
<polyline points="219.5,309.5,228.0,302.0,236.0,294.5,244.0,287.5,251.5,280.5,259.0,273.5,266.5,266.5,274.0,259.0,282.0,251.5,290.0,244.0,298.0,236.0,306.5,229.0,314.5,221.5" stroke="black" stroke-width="2" fill="none" />
<polyline points="312.5,228.5,304.5,236.0,296.5,243.5,289.0,251.0,281.0,259.0,273.5,266.5,265.5,274.5,257.5,281.5,249.5,289.0,242.0,297.0,234.0,305.0,226.0,312.5" stroke="black" stroke-width="2" fill="none" />
<polyline points="225.5,313.0,234.0,312.5,242.5,312.0,251.0,311.5,259.5,311.5,267.5,311.0,276.0,310.5" stroke="black" stroke-width="2" fill="none" />
<polyline points="267.0,313.0,275.0,305.5,283.5,298.5,291.5,291.5,299.5,284.0,308.0,276.5,316.0,269.0" stroke="black" stroke-width="2" fill="none" />
<polyline points="318.0,264.0,310.5,264.5" stroke="black" stroke-width="2" fill="none" />
<polyline points="317.0,260.5,309.5,268.0,301.0,275.5,292.5,283.0,284.5,290.0,276.0,297.5,267.5,304.5,259.0,311.5" stroke="black" stroke-width="2" fill="none" />
<polyline points="250.0,311.5,258.0,304.0,266.5,296.5,274.5,289.0,282.0,282.0,290.5,274.0,298.5,266.5,306.5,259.0,314.5,251.5" stroke="black" stroke-width="2" fill="none" />
<polyline points="315.0,241.5,306.5,249.0,298.5,257.0,290.5,265.0,283.0,272.0,275.0,279.0,267.0,287.0,259.0,294.5,251.0,301.5,243.0,309.0" stroke="black" stroke-width="2" fill="none" />
<polyline points="234.0,311.0,242.0,303.5,250.5,296.5,258.5,289.0,266.0,281.0,274.0,274.0,282.0,266.0,290.0,258.5,298.0,251.0,305.5,243.0,313.0,235.5" stroke="black" stroke-width="2" fill="none" />
<polyline points="306.0,219.0,298.5,226.5,290.5,234.5,283.0,241.5,275.5,249.0,268.0,256.5,260.0,263.5,252.0,271.5,244.0,279.0,235.5,286.5,227.5,294.0,220.0,301.5,211.5,309.0" stroke="black" stroke-width="2" fill="none" />
<polyline points="211.0,305.5,218.5,305.5,226.5,305.0,234.5,304.5,242.5,303.5,250.0,303.0,258.0,302.5,266.0,302.5,274.0,301.5,282.0,300.5,290.0,300.0" stroke="black" stroke-width="2" fill="none" />
<polyline points="299.5,300.0,291.5,307.5,283.5,314.5" stroke="black" stroke-width="2" fill="none" />
<polyline points="275.5,313.0,283.5,306.0,291.0,298.5,299.0,291.0" stroke="black" stroke-width="2" fill="none" />
<polyline points="291.5,291.5,283.0,292.0,275.0,292.5,267.5,293.0,260.0,293.5,252.5,294.0,244.5,294.5,236.0,295.5,227.5,296.5,219.5,297.5,211.0,298.0" stroke="black" stroke-width="2" fill="none" />
<polyline points="213.0,302.0,221.0,294.0,229.0,286.0,237.0,279.0,245.0,271.5,252.5,264.0,260.0,257.0,267.5,249.5,275.5,242.5,283.5,235.0,291.5,227.5,299.5,220.0,307.5,213.0" stroke="black" stroke-width="2" fill="none" />
<polyline points="307.0,213.5,298.5,214.5,291.0,215.5,283.5,216.0,276.0,216.0,268.5,216.5,261.0,217.0,253.0,217.5" stroke="black" stroke-width="2" fill="none" />
<polyline points="236.5,185.0,244.5,184.5,252.0,184.0,260.0,183.5,268.0,183.5" stroke="black" stroke-width="2" fill="none" />
<polyline points="267.5,179.5,259.5,187.5,251.0,195.0,243.0,202.5,235.0,210.0,227.0,217.5,218.5,225.0,210.0,232.5,202.0,240.0,194.0,247.5,186.0,255.0" stroke="black" stroke-width="2" fill="none" />
<polyline points="187.0,251.5,195.0,251.0,203.0,250.0,211.0,249.5,218.5,249.0,226.0,248.5,234.0,247.5,242.5,247.5,250.5,247.5,258.5,247.0,267.0,246.5,274.5,246.0,283.0,245.5,291.0,244.5,299.0,243.5,307.0,243.0" stroke="black" stroke-width="2" fill="none" />
<polyline points="306.5,265.5,299.0,265.5,291.0,266.0,283.0,266.0,275.5,266.5,267.5,267.0,259.5,267.5,251.5,268.5,243.5,269.5,236.0,270.5,228.0,271.0,220.0,271.5,212.5,272.5,204.5,273.0,197.0,273.0" stroke="black" stroke-width="2" fill="none" />
<polyline points="196.5,277.5,204.5,270.5,212.0,263.0,220.5,255.5,229.0,248.0,237.0,241.0,245.5,233.5,253.5,226.0,261.0,219.0,268.5,211.0,276.0,203.5,283.5,196.5,291.5,189.0" stroke="black" stroke-width="2" fill="none" />
<polyline points="292.0,196.5,284.0,204.0,276.0,212.0,268.0,219.5,259.0,227.0,251.0,234.0,243.0,241.0,235.5,248.0,228.0,255.0,220.5,262.0,212.5,270.0,204.5,277.5" stroke="black" stroke-width="2" fill="none" />
<polyline points="204.5,283.5,212.0,275.5,219.5,268.0,228.0,261.0,235.5,254.5,243.0,247.5,250.5,240.0,258.0,233.0,266.0,226.0,274.0,218.5,282.0,210.5,290.5,203.0,299.0,196.0" stroke="black" stroke-width="2" fill="none" />
<polyline points="299.5,204.0,291.0,211.5,283.0,218.5,275.0,225.0,267.0,232.0,259.5,239.0,251.0,246.0,243.5,254.0,235.5,261.5,228.0,268.5,220.5,276.5,212.5,283.5,204.5,291.5" stroke="black" stroke-width="2" fill="none" />
<polyline points="203.0,289.0,210.5,289.0,218.5,288.5,226.5,288.0,235.0,287.0,243.0,286.5,251.5,286.0,259.5,285.5,267.5,285.0,276.0,284.5,284.5,284.0,292.5,283.5,300.0,283.0" stroke="black" stroke-width="2" fill="none" />
<polyline points="299.0,311.5,291.0,311.5,283.0,312.0,275.0,312.5,267.5,313.0,259.5,313.5,251.5,314.5,244.0,315.0,236.0,315.0,227.5,315.5,219.5,315.5,211.5,316.0,203.5,316.5" stroke="black" stroke-width="2" fill="none" />
<polyline points="195.0,309.5,203.0,308.5,211.0,308.0,218.5,307.5,226.0,307.5,234.0,307.0,242.0,306.5,249.5,305.5,257.0,305.0,264.5,305.0,272.5,305.0,281.0,304.0,289.0,303.0,297.0,302.0,305.0,301.5" stroke="black" stroke-width="2" fill="none" />
<polyline points="308.5,293.5,300.5,294.5,292.0,295.0,284.0,295.5,276.0,296.5,268.0,297.0,260.0,297.0,252.0,298.0,244.0,298.5,235.5,299.0,227.5,299.5,219.5,300.0,211.5,300.5,204.0,301.0,196.0,301.5" stroke="black" stroke-width="2" fill="none" />
<polyline points="197.5,294.0,205.5,293.5,213.0,292.0,221.0,291.5,229.0,291.0,237.0,291.0,245.0,290.0,253.0,289.0,261.0,288.5,269.0,288.0,277.0,287.5,285.0,287.5,293.0,287.0,300.5,286.5,308.5,285.5" stroke="black" stroke-width="2" fill="none" />
<polyline points="308.0,278.0,300.5,278.5,293.0,279.0,284.5,279.5,276.5,280.0,268.5,280.5,260.0,280.5,251.5,280.5,243.0,281.0,235.0,281.0,227.5,282.0,220.0,283.0,212.0,283.5,204.0,284.0,196.5,284.5" stroke="black" stroke-width="2" fill="none" />
<polyline points="198.5,282.5,206.0,282.5,214.0,281.0,221.5,280.0,229.0,279.5,236.0,278.5,243.5,277.5,251.5,277.0,259.0,276.5,266.0,276.0,274.5,275.0,282.0,274.5,290.0,273.5,298.0,273.0,305.5,272.5" stroke="black" stroke-width="2" fill="none" />
<polyline points="313.0,268.0,306.0,268.5,298.5,269.5,290.5,270.5,282.5,271.5,274.5,272.0,267.0,272.0,259.5,272.5,251.5,272.5,243.5,273.0,236.0,273.5,228.0,274.5,220.5,275.0,212.5,276.0,204.5,277.0,196.0,278.0" stroke="black" stroke-width="2" fill="none" />
<polyline points="196.5,271.0,204.5,263.5,212.5,256.5,220.5,248.5,228.0,241.0,236.0,233.5,243.5,225.5,251.5,217.5,259.0,210.0,267.0,202.5,274.5,195.0,282.5,187.0" stroke="black" stroke-width="2" fill="none" />
<polyline points="282.0,186.5,296.5,194.5,304.5,203.0,309.5,211.5,314.0,220.0,318.0,228.0,319.5,236.0,321.5,244.0,321.5,252.0,320.5,260.0,317.0,268.0,314.0,276.0,308.0,284.0,300.0,292.0,294.0,300.0,290.0,308.0,277.0,316.0" stroke="black" stroke-width="2" fill="none" />
<polyline points="204.0,302.0,212.0,294.5,220.0,286.5,228.0,278.5,236.0,271.5,244.5,264.5,253.0,257.0,261.5,250.0,269.5,242.5,277.5,235.5,285.5,227.5,293.0,220.0,301.0,212.0,309.0,204.5" stroke="black" stroke-width="2" fill="none" />
<polyline points="301.0,195.0,292.5,196.0,285.0,196.5,277.0,197.0,269.0,197.5,261.0,197.5,252.5,198.0,244.5,198.5,236.0,199.5,227.5,200.0,219.0,200.0,211.0,200.0" stroke="black" stroke-width="2" fill="none" />
<polyline points="212.0,193.0,204.0,200.5,196.5,208.5" stroke="black" stroke-width="2" fill="none" />
<polyline points="193.5,205.0,202.0,204.5,210.0,204.0,218.5,204.0,226.5,203.5,234.5,203.5,243.0,202.5,251.5,202.0,260.0,201.0,268.5,200.5,276.5,199.5,284.5,199.5,291.5,199.0,299.5,198.5,307.5,198.0" stroke="black" stroke-width="2" fill="none" />
<polyline points="294.0,183.5,285.5,184.5,276.5,185.0,268.0,185.5,259.5,186.0,251.0,186.5,243.0,187.0,235.0,187.0,227.0,187.0,219.5,187.5,212.0,188.0" stroke="black" stroke-width="2" fill="none" />
<polyline points="218.5,194.5,226.5,193.5,234.0,193.0,241.5,192.5,249.5,192.0,257.0,191.5,265.0,191.0,273.5,191.0,282.0,191.0" stroke="black" stroke-width="2" fill="none" />
<polyline points="276.5,186.0,268.5,193.5,260.0,201.0,251.5,209.0,243.0,217.0,235.0,224.5,227.0,232.5,219.0,240.5,211.0,248.0,203.5,256.0,195.5,263.5" stroke="black" stroke-width="2" fill="none" />
<polyline points="188.5,262.0,196.5,254.0,204.5,247.0,212.0,240.0,220.0,232.0,228.0,224.0,236.5,216.0,244.5,208.5,252.0,200.5,260.5,193.0,269.0,185.5,277.5,178.0" stroke="black" stroke-width="2" fill="none" />
<polyline points="266.5,169.5,259.0,177.5,251.0,185.5,242.5,193.0,234.5,201.0,226.0,209.0,218.0,217.0,210.0,225.0,202.0,233.0,194.5,241.5,186.5,249.0" stroke="black" stroke-width="2" fill="none" />
<polyline points="181.0,252.5,189.0,252.0,198.0,251.0,206.0,251.0,214.0,251.0,222.5,250.5,230.0,250.0,238.0,249.5,246.0,248.5,254.0,248.0,261.5,247.5,269.5,247.0,277.5,247.0,285.0,247.0,292.5,246.5,300.5,246.0,308.0,246.0,316.0,245.5,323.5,245.0" stroke="black" stroke-width="2" fill="none" />
<polyline points="315.5,263.0,307.0,264.0,299.0,264.5,291.0,265.0,283.0,265.5,275.0,266.0,267.0,266.5,259.0,267.0,251.0,267.5,242.5,267.5,234.0,267.0,225.5,267.0,218.0,267.5,210.0,268.0,202.5,268.0,194.5,268.0,186.5,268.5" stroke="black" stroke-width="2" fill="none" />
<polyline points="185.5,265.0,193.5,264.5,202.0,264.5,210.0,264.0,218.0,263.5,226.5,263.0,234.5,263.0,242.0,262.5,250.0,262.5,258.0,263.0,266.0,262.5,274.5,262.0,283.0,261.0,291.5,260.5,300.0,260.0" stroke="black" stroke-width="2" fill="none" />
<polyline points="322.5,254.0,314.0,254.0,306.5,254.5,298.5,255.5,291.0,256.0,283.0,257.0,275.0,257.5,267.5,258.0,259.0,258.5,251.0,259.0,242.5,259.5,234.5,259.5,226.0,260.0,217.5,261.0,210.0,261.5,202.0,262.0,193.5,263.0,186.0,263.0" stroke="black" stroke-width="2" fill="none" />
<polyline points="187.5,259.5,195.0,259.0,202.5,258.0,210.5,257.5,218.0,256.5,226.0,255.5,234.0,255.5,242.0,255.0,250.0,254.5,258.5,254.0,266.5,253.5,274.5,253.0,282.5,253.0,290.5,252.5,298.5,251.5" stroke="black" stroke-width="2" fill="none" />
<polyline points="307.5,234.0,299.5,234.5,291.0,234.5,282.5,235.0,274.0,235.5,265.5,236.0,257.5,236.5,250.0,237.5,242.0,238.0,234.5,238.5,226.0,238.5,218.5,239.0,210.0,240.0,202.0,240.5,194.5,240.5,186.5,240.5" stroke="black" stroke-width="2" fill="none" />
<polyline points="187.5,238.5,196.0,231.0,203.5,223.5,211.5,216.0,219.0,208.5,227.0,201.0,235.0,193.5,243.5,185.5,252.0,178.0,260.0,170.0,268.0,162.5" stroke="black" stroke-width="2" fill="none" />
<polyline points="266.5,156.0,259.0,163.5,252.0,170.5,244.5,178.0,237.0,185.5,229.0,193.0,221.5,200.0,214.0,207.5,206.0,214.5,197.5,222.0,189.0,229.5" stroke="black" stroke-width="2" fill="none" />
<polyline points="189.0,229.5,197.0,229.0,205.0,228.5,213.0,228.0,221.0,227.5,229.0,226.5,237.0,226.0,244.5,226.0,252.5,225.5,260.5,225.5,268.5,225.0,276.5,224.5,285.0,223.5,293.0,223.0,301.0,222.5,309.0,222.0,317.5,221.5,326.0,220.5" stroke="black" stroke-width="2" fill="none" />
<polyline points="307.0,225.0,299.0,225.0,291.0,225.0,283.0,226.0,275.5,226.5,267.5,227.0,259.5,227.5,252.0,227.5,244.0,228.0,236.0,228.5,228.0,229.5,220.0,229.5,211.5,230.0,203.0,231.0,194.5,232.0,186.5,233.0" stroke="black" stroke-width="2" fill="none" />
<polyline points="185.0,228.5,193.0,211.5,201.0,201.0,208.5,194.0,216.5,189.0,224.0,187.0" stroke="black" stroke-width="2" fill="none" />
<polyline points="227.5,186.5,219.5,194.0,211.0,202.0,203.0,210.0,195.0,218.0,187.5,225.5" stroke="black" stroke-width="2" fill="none" />
<polyline points="190.5,220.5,198.0,220.0,206.0,220.0,214.0,220.5,222.0,220.5,230.5,220.5,238.0,220.0,245.5,219.0,253.5,218.5,261.5,218.5,269.0,218.5,277.5,217.5,285.0,217.0,293.0,216.0,301.0,215.5,309.0,215.5,317.0,215.0" stroke="black" stroke-width="2" fill="none" />
<polyline points="317.5,207.0,309.5,207.0,301.5,207.5,293.0,207.5,284.5,207.5,276.0,207.5,268.0,207.5,260.0,208.0,252.5,208.5,244.5,209.0,236.5,209.5,228.5,210.0,220.5,210.5,212.5,211.0,204.5,212.0,196.5,212.5,189.0,213.5" stroke="black" stroke-width="2" fill="none" />
<polyline points="194.0,216.0,202.5,215.5,210.5,215.0,218.5,214.5,227.0,213.5,235.5,213.0,243.5,212.5" stroke="black" stroke-width="2" fill="none" />
<polyline points="236.5,177.0,244.0,169.0,251.5,161.0,260.0,153.5,268.5,146.5" stroke="black" stroke-width="2" fill="none" />
<polyline points="267.5,138.5,259.5,146.0,251.5,153.5,244.0,160.5,236.0,168.5" stroke="black" stroke-width="2" fill="none" />
<polyline points="232.5,166.0,241.0,165.0,249.0,164.0,257.0,163.0,265.0,162.5" stroke="black" stroke-width="2" fill="none" />
<polyline points="268.0,168.5,259.5,169.0,251.5,169.5,243.0,170.0" stroke="black" stroke-width="2" fill="none" />
<polyline points="242.0,162.0,250.0,161.5,258.0,161.5,266.5,161.0" stroke="black" stroke-width="2" fill="none" />
<polyline points="243.0,153.0,250.5,145.5,258.5,138.0,266.5,130.0" stroke="black" stroke-width="2" fill="none" />
<polyline points="265.5,123.5,257.5,130.5,249.5,138.0,242.0,145.5" stroke="black" stroke-width="2" fill="none" />
<polyline points="242.0,147.0,250.0,146.0,258.0,145.5" stroke="black" stroke-width="2" fill="none" />
<polyline points="253.0,131.0,261.0,130.0" stroke="black" stroke-width="2" fill="none" />
<polyline points="265.5,129.5,258.0,130.0,250.0,130.5,242.0,131.5,234.5,132.0" stroke="black" stroke-width="2" fill="none" />
<polyline points="234.5,125.0,242.5,124.5,250.5,123.5,258.5,122.5,266.0,121.5" stroke="black" stroke-width="2" fill="none" />
<polyline points="267.5,119.5,259.5,120.0,251.0,120.0,243.5,120.5" stroke="black" stroke-width="2" fill="none" />
<polyline points="245.0,122.0,252.5,115.0,260.0,107.5,268.0,99.5" stroke="black" stroke-width="2" fill="none" />
<polyline points="270.0,104.5,261.5,112.0,253.0,120.0,244.5,128.0" stroke="black" stroke-width="2" fill="none" />
<polyline points="243.0,136.5,251.0,128.5,259.0,121.0,266.5,113.5" stroke="black" stroke-width="2" fill="none" />
<polyline points="269.0,110.0,261.0,111.0,253.0,112.0,244.5,113.0" stroke="black" stroke-width="2" fill="none" />
<polyline points="243.5,113.5,252.0,106.0,260.5,98.5,268.5,91.0,276.0,83.5" stroke="black" stroke-width="2" fill="none" />
<polyline points="277.5,77.0,269.5,84.5,260.5,91.5,252.0,98.5,242.5,105.0,234.0,112.0" stroke="black" stroke-width="2" fill="none" />
<polyline points="235.5,115.5,243.0,115.0,251.0,115.0,259.0,114.5,266.5,114.5" stroke="black" stroke-width="2" fill="none" />
<polyline points="268.5,104.0,261.0,104.0,253.5,104.5,246.0,104.5" stroke="black" stroke-width="2" fill="none" />
<polyline points="243.0,97.0,251.0,96.5,259.0,96.5,267.5,96.5" stroke="black" stroke-width="2" fill="none" />
<polyline points="275.5,106.5,267.5,107.0,259.0,107.0,251.0,107.0,242.5,107.0,234.5,107.5" stroke="black" stroke-width="2" fill="none" />
<polyline points="236.5,106.5,244.5,99.0,252.5,91.0,261.0,84.0,269.0,76.5,277.5,68.5" stroke="black" stroke-width="2" fill="none" />
<polyline points="278.0,52.0,269.5,59.5,261.0,67.0,252.5,74.0,244.0,81.0,235.5,88.5" stroke="black" stroke-width="2" fill="none" />
<polyline points="234.0,87.5,242.5,87.0,251.0,86.0,259.5,85.5,268.0,85.0,276.5,84.0" stroke="black" stroke-width="2" fill="none" />
<polyline points="269.5,52.0,261.0,59.5,253.0,67.0,244.5,74.5,236.5,81.0" stroke="black" stroke-width="2" fill="none" />
<polyline points="234.5,80.5,234.5,88.5,240.5,94.5,239.5,93.5" stroke="black" stroke-width="2" fill="none" />
<polyline points="236.5,92.5,244.5,92.5,251.5,92.0,259.5,91.5,267.5,91.0,276.0,90.5" stroke="black" stroke-width="2" fill="none" />
<polyline points="276.5,96.5,269.0,97.5,260.5,98.5,252.0,99.0,244.0,99.0,236.0,99.5" stroke="black" stroke-width="2" fill="none" />
<polyline points="236.5,96.0,244.0,88.0,252.0,80.0,259.0,72.0,266.5,64.0,274.0,56.5,282.0,49.0" stroke="black" stroke-width="2" fill="none" />
<polyline points="259.5,52.5,252.0,60.0,244.0,67.5,236.0,75.0" stroke="black" stroke-width="2" fill="none" />
<polyline points="234.5,74.5,242.5,74.0,250.5,74.0,258.5,73.5,266.5,72.5,275.0,72.0" stroke="black" stroke-width="2" fill="none" />
<polyline points="251.5,51.5,243.5,59.5,235.5,67.5,227.5,75.0" stroke="black" stroke-width="2" fill="none" />
<polyline points="228.5,78.0,236.5,77.5,245.0,76.5,253.0,76.0,261.0,75.5,269.0,75.0,277.5,74.5" stroke="black" stroke-width="2" fill="none" />
<polyline points="242.0,51.5,234.5,59.0,227.0,66.5" stroke="black" stroke-width="2" fill="none" />
<polyline points="228.0,64.5,236.0,64.5,244.5,64.5,253.0,64.5,261.5,64.5,269.5,64.0,277.5,64.0" stroke="black" stroke-width="2" fill="none" />
<polyline points="267.0,89.5,259.0,90.0,251.0,90.5,243.0,91.0,235.0,91.5" stroke="black" stroke-width="2" fill="none" />
<polyline points="235.5,83.0,243.0,82.5,251.0,82.0,259.0,81.0,266.5,80.5,274.5,79.5" stroke="black" stroke-width="2" fill="none" />
<polyline points="275.0,44.0,267.0,44.5,259.0,45.5,251.0,46.5,242.5,47.0,235.0,47.5" stroke="black" stroke-width="2" fill="none" />
<polyline points="233.5,51.0,225.5,59.0" stroke="black" stroke-width="2" fill="none" />
<polyline points="228.0,57.0,236.0,56.5,244.5,56.5,252.0,57.0,260.0,57.0,267.5,57.0,275.5,56.5" stroke="black" stroke-width="2" fill="none" />
<polyline points="277.0,68.0,269.0,68.5,261.0,68.5,253.0,69.0,245.0,70.0,237.5,70.5,229.0,71.5" stroke="black" stroke-width="2" fill="none" />
<polyline points="229.5,60.5,237.5,60.0,245.5,60.0,253.0,60.0,260.5,59.5,268.5,59.0,276.0,59.0,284.0,58.5" stroke="black" stroke-width="2" fill="none" />
<polyline points="282.5,51.0,274.5,51.5,267.0,52.0,259.0,52.5,251.5,53.5,243.5,54.0,235.0,55.0,227.5,55.5" stroke="black" stroke-width="2" fill="none" />
<polyline points="223.0,51.5,231.0,48.0,238.5,48.0,246.5,47.0,254.5,46.5,262.5,47.5,270.0,47.5,278.0,50.0,279.0,55.0,277.5,62.5,275.5,71.0,273.5,79.0,271.5,87.0,269.5,95.0,269.5,103.0,268.5,110.5,267.5,118.5,266.5,126.5,265.0,134.5,265.5,142.5,265.0,150.0,265.5,158.0,268.0,166.0,270.0,174.0,271.0,182.5,275.5,186.5,283.5,188.5,291.5,193.0,299.5,199.0,307.5,210.0,315.5,228.5" stroke="black" stroke-width="2" fill="none" />
<polyline points="323.0,237.5,315.5,238.5,307.5,239.5,299.5,240.0,292.0,240.0,284.0,240.0,276.5,239.5,268.0,239.5,260.0,240.0,252.0,240.5,244.0,241.0,236.0,241.5,228.0,243.0,219.5,243.5,212.0,244.0,204.0,244.5,196.5,245.0,188.0,245.5,180.0,246.0" stroke="black" stroke-width="2" fill="none" />
<polyline points="180.0,237.5,188.0,237.5,196.5,237.0,204.5,237.0,212.5,237.0,220.0,236.5,227.5,236.0,235.0,236.0,243.0,235.5,251.0,235.0,259.5,234.5,267.0,234.0,275.5,233.0,283.5,232.5,291.0,231.5,299.0,231.0,306.5,230.5,314.5,230.0,322.5,230.0" stroke="black" stroke-width="2" fill="none" />
<polyline points="308.0,225.0,300.0,219.0" stroke="black" stroke-width="2" fill="none" />
<polyline points="299.0,218.0,291.0,218.0,282.5,218.0,274.5,218.5,266.0,218.5,258.5,219.0,250.5,220.0,243.0,220.5,235.0,221.5,227.5,222.0,219.5,223.0,211.5,223.5,203.5,224.0,195.5,224.5" stroke="black" stroke-width="2" fill="none" />
<polyline points="201.5,211.0,210.0,210.0,218.5,210.0,227.0,209.5,235.0,208.5,243.5,208.0,252.0,207.0,260.5,206.0,269.0,205.0,277.0,204.0,285.5,203.5,293.5,203.0,301.0,202.5" stroke="black" stroke-width="2" fill="none" />
<polyline points="307.5,190.5,299.5,191.5,292.0,192.0,283.5,192.5,275.5,192.5,267.0,193.0,258.5,193.5,249.5,194.0,241.5,194.5,233.5,195.5,225.5,196.5,217.5,197.0,209.5,197.5,201.5,198.0" stroke="black" stroke-width="2" fill="none" />
<polyline points="227.5,180.0,235.5,179.5,243.0,179.0,251.0,178.0,259.0,178.0,267.0,178.0,275.5,177.0" stroke="black" stroke-width="2" fill="none" />
<polyline points="258.0,154.0,250.0,154.5,242.0,155.5" stroke="black" stroke-width="2" fill="none" />
<polyline points="241.0,155.0,239.0,150.5" stroke="black" stroke-width="2" fill="none" />
<polyline points="237.0,148.5,245.0,148.5,253.0,148.0,260.5,147.5,268.5,146.5" stroke="black" stroke-width="2" fill="none" />
<polyline points="258.0,135.5,250.0,136.5,242.0,137.0" stroke="black" stroke-width="2" fill="none" />
<polyline points="236.5,141.0,244.5,140.5,253.0,140.0,260.5,139.5,268.0,139.0" stroke="black" stroke-width="2" fill="none" />
<polyline points="268.5,154.5,260.5,155.5,252.0,156.0,244.0,156.5,236.0,157.5" stroke="black" stroke-width="2" fill="none" />
<polyline points="235.5,173.5,244.0,173.0,251.5,172.5,259.5,171.5,267.5,171.0,275.5,170.5" stroke="black" stroke-width="2" fill="none" />
<polyline points="268.0,175.0,260.5,175.5,253.0,175.5,245.5,176.0,237.5,176.5" stroke="black" stroke-width="2" fill="none" />
<polyline points="258.5,135.0,257.5,126.5,257.5,123.5" stroke="black" stroke-width="2" fill="none" />
<polyline points="261.0,125.0,262.0,133.0" stroke="black" stroke-width="2" fill="none" />
<polyline points="244.0,128.0,239.0,120.0,237.0,117.0" stroke="black" stroke-width="2" fill="none" />
<polyline points="239.0,115.5,240.0,123.5" stroke="black" stroke-width="2" fill="none" />
<polyline points="302.0,219.0,305.0,227.0,306.0,235.0,306.0,243.0,305.0,251.0,300.0,259.0,297.0,267.0,297.5,265.0" stroke="black" stroke-width="2" fill="none" />
<polyline points="311.5,277.0,303.0,287.0,295.0,296.0,286.5,309.0,278.5,314.0,270.0,316.5,262.0,319.0,254.0,320.0,246.0,320.0,238.0,319.0,230.5,317.0,222.0,315.0,214.5,312.0,206.5,297.0,198.5,288.0,190.5,278.0,182.5,260.5" stroke="black" stroke-width="2" fill="none" />
<polyline points="309.0,244.0,309.0,236.0,310.5,227.5,303.5,220.0" stroke="black" stroke-width="2" fill="none" />
</svg>