<svg xmlns="http://www.w3.org/2000/svg" version="1.1"><path d="M226.0,47.5,225.0,55.5,226.0,63.5,228.0,72.0,229.5,80.0,231.5,88.0,233.0,96.0,233.0,104.0,233.5,112.5,233.5,120.5,234.5,129.0,235.5,136.5,235.5,144.0,235.5,151.5,234.5,159.0,233.0,167.0,231.0,174.5,228.0,182.5,210.0,190.5,200.5,198.5,193.5,207.0,189.5,214.5,185.5,222.5,183.5,230.5,181.0,238.5,181.0,246.0,181.0,254.5,183.5,262.5,186.5,271.0,190.0,279.0,197.0,287.5,205.0,295.5,207.0,303.0,213.0,311.0" stroke="black" stroke-width="2" fill="none" />
<path d="M210.0,311.0,218.0,303.0,226.0,295.5,234.5,288.5,242.5,281.0,250.5,273.5,258.5,266.0,266.5,258.0,275.0,251.0,283.5,243.5,292.5,236.0,301.0,228.5,309.0,221.0" stroke="black" stroke-width="2" fill="none" />
<path d="M305.0,219.5,312.0,227.5,309.5,236.5,309.5,244.5" stroke="black" stroke-width="2" fill="none" />
<path d="M315.0,244.5,306.5,252.5,299.0,260.0,291.5,267.0,284.5,274.0,276.5,281.5,268.5,289.0,260.5,296.5,252.5,304.0,244.5,311.0" stroke="black" stroke-width="2" fill="none" />
<path d="M260.0,312.5,267.5,304.5,275.5,297.0,282.5,289.5,291.0,282.0,298.5,274.0,306.0,267.0,313.5,259.5" stroke="black" stroke-width="2" fill="none" />
<path d="M315.0,251.0,307.0,258.5,299.0,266.5,291.0,274.5,284.0,282.0,276.5,289.5,269.0,297.0,261.5,304.5,253.5,312.0" stroke="black" stroke-width="2" fill="none" />
<path d="M269.0,313.5,277.0,306.0,284.5,299.0,291.5,291.0,299.0,283.5,307.0,275.5,315.0,268.0" stroke="black" stroke-width="2" fill="none" />
<path d="M314.0,266.0,306.0,266.5" stroke="black" stroke-width="2" fill="none" />
<path d="M300.0,290.5,292.0,298.5,284.5,306.0,276.5,314.0" stroke="black" stroke-width="2" fill="none" />
<path d="M284.5,314.0,292.0,306.5,300.5,299.0" stroke="black" stroke-width="2" fill="none" />
<path d="M315.5,236.0,307.5,243.5,299.5,250.5,291.5,258.0,283.5,265.0,275.5,273.0,268.0,280.0,260.0,288.0,252.0,295.5,244.0,303.0,236.0,310.0" stroke="black" stroke-width="2" fill="none" />
<path d="M228.5,309.5,236.0,302.0,244.5,294.5,252.5,287.0,260.5,280.0,268.0,273.0,275.5,265.5,283.5,258.0,291.5,251.0,299.0,244.0,307.0,236.5,315.0,229.5" stroke="black" stroke-width="2" fill="none" />
<path d="M316.0,220.0,308.5,227.5,300.5,235.5,292.0,243.0,283.5,250.5,276.0,258.0,267.5,265.0,259.0,272.5,251.0,279.5,243.5,287.0,236.0,294.0,228.0,302.0,220.0,309.5" stroke="black" stroke-width="2" fill="none" />
<path d="M228.5,315.0,236.5,314.5,244.5,314.0,252.5,313.5,260.0,312.5,268.0,312.5,275.5,311.5" stroke="black" stroke-width="2" fill="none" />
<path d="M211.0,301.5,219.0,294.0,227.0,287.0,235.5,279.5,243.5,271.5,251.5,264.0,259.0,256.5,267.5,248.5,276.0,241.5,284.5,234.0,293.0,227.0,301.0,220.0,309.5,212.5" stroke="black" stroke-width="2" fill="none" />
<path d="M309.5,203.0,301.0,210.5,293.0,217.5,284.5,224.5,276.5,231.5,268.5,238.5,260.0,246.0,252.0,253.5,244.0,261.0,236.0,268.5,228.0,276.0,220.0,284.0,212.5,291.5,205.0,299.5" stroke="black" stroke-width="2" fill="none" />
<path d="M209.5,297.0,218.0,296.5,226.5,296.0,234.5,295.5,243.0,295.0,251.0,295.0,259.5,294.0,268.0,293.5,276.0,293.5,284.0,293.5,291.5,293.0" stroke="black" stroke-width="2" fill="none" />
<path d="M291.0,299.0,283.5,300.0,276.0,300.0,268.0,301.0,260.0,302.0,252.0,303.0,243.5,303.5,235.0,303.0,226.5,303.0,218.0,304.0,210.0,305.0" stroke="black" stroke-width="2" fill="none" />
<path d="M204.5,293.0,212.5,286.5,221.0,279.0,229.0,271.0,237.0,263.5,245.0,256.0,253.0,248.5,261.0,241.5,268.5,234.0,276.0,226.5,284.5,219.5,292.5,212.0,301.0,205.0" stroke="black" stroke-width="2" fill="none" />
<path d="M301.0,197.5,293.0,205.0,284.5,212.5,276.0,219.5,267.5,226.5,260.0,234.0,252.0,241.0,244.0,248.5,236.0,255.5,228.5,263.0,220.5,270.0,212.0,278.0,204.0,285.5" stroke="black" stroke-width="2" fill="none" />
<path d="M202.0,291.0,210.0,290.0,218.5,289.5,226.5,289.0,235.0,289.0,243.0,288.0,251.0,288.0,259.5,287.0,267.5,286.5,276.0,286.0,284.0,285.5,291.5,284.5,299.0,284.0" stroke="black" stroke-width="2" fill="none" />
<path d="M299.0,310.0,291.0,310.5,283.0,311.0,275.0,311.5,266.5,312.5,259.0,313.5,251.0,314.5,243.0,316.0,235.0,317.0,227.0,318.5,219.5,319.5,212.0,320.0,204.0,321.0" stroke="black" stroke-width="2" fill="none" />
<path d="M194.0,308.5,202.5,308.5,210.5,308.5,219.0,308.0,227.5,308.0,236.0,307.5,244.5,308.0,253.0,308.0,261.5,308.0,269.5,307.5,277.5,306.5,285.5,306.5,293.0,305.5,301.0,305.0,308.5,304.0" stroke="black" stroke-width="2" fill="none" />
<path d="M307.5,295.0,300.0,296.0,292.5,297.0,284.5,298.0,277.0,298.5,268.5,299.0,259.5,299.5,251.5,299.5,243.0,299.5,235.0,299.5,227.0,299.5,218.5,299.5,210.5,300.0,203.0,301.0,195.0,301.5" stroke="black" stroke-width="2" fill="none" />
<path d="M195.0,294.0,202.5,293.5,210.5,292.5,218.0,292.5,226.0,292.5,234.0,292.5,242.0,292.0,251.0,291.5,259.5,291.0,267.5,291.5,275.5,291.0,283.5,290.5,291.5,289.5,299.5,288.5,307.5,288.0" stroke="black" stroke-width="2" fill="none" />
<path d="M307.0,279.0,299.0,279.5,291.0,280.0,283.5,281.0,276.0,281.5,268.0,281.5,260.0,281.5,252.5,282.0,244.5,282.5,236.5,282.5,228.5,283.5,220.0,284.0,211.5,284.0,203.5,284.0,195.0,284.5" stroke="black" stroke-width="2" fill="none" />
<path d="M196.5,283.5,204.5,282.5,213.0,282.5,221.5,282.0,229.5,281.0,237.5,280.5,245.5,279.5,253.5,278.5,261.0,277.5,269.0,276.0,277.0,275.5,285.5,275.0,293.5,275.0,301.0,274.5,309.0,273.5" stroke="black" stroke-width="2" fill="none" />
<path d="M316.0,270.5,308.0,271.0,300.0,271.0,292.5,271.0,285.0,271.5,276.5,271.5,268.5,272.5,260.5,273.0,252.0,273.0,243.5,273.5,235.5,273.5,227.5,274.5,219.0,275.0,211.5,275.5,204.0,276.0,196.0,277.0" stroke="black" stroke-width="2" fill="none" />
<path d="M193.5,277.0,202.0,270.0,210.0,262.5,218.0,255.0,225.5,247.5,233.5,240.0,241.5,232.0,249.5,224.0,257.5,216.0,265.5,208.5,273.5,201.0,281.5,193.5,289.5,186.0" stroke="black" stroke-width="2" fill="none" />
<path d="M282.5,188.0,274.5,195.0,266.5,202.5,259.0,209.5,251.0,217.0,243.0,224.0,235.0,232.0,227.0,240.0,219.5,248.0,212.0,256.0,204.5,263.0,196.0,270.5" stroke="black" stroke-width="2" fill="none" />
<path d="M195.0,273.0,203.0,272.0,210.0,272.0,217.5,272.0,225.0,272.0,233.5,272.0,241.0,271.0,249.0,270.0,257.0,269.0,265.5,268.0,273.5,267.0,281.5,266.5,289.5,266.5,298.0,266.5,306.5,266.5" stroke="black" stroke-width="2" fill="none" />
<path d="M299.0,220.0,291.0,220.0,283.5,220.0,275.5,220.5,267.5,221.0,259.5,221.5,251.0,221.5,243.0,221.5,234.5,222.0,226.5,222.5,219.0,223.0,211.0,223.5,202.5,223.5,194.5,224.0" stroke="black" stroke-width="2" fill="none" />
<path d="M188.5,224.0,196.0,217.0,203.5,210.0,211.0,203.0,219.5,195.5,227.5,188.5" stroke="black" stroke-width="2" fill="none" />
<path d="M228.0,181.5,236.5,181.5,244.5,181.5,252.0,181.5,260.0,180.5,268.0,180.0,275.5,180.0" stroke="black" stroke-width="2" fill="none" />
<path d="M277.0,182.0,268.5,189.5,259.5,196.5,251.5,204.0,243.5,211.0,235.5,218.0,227.5,225.5,219.5,232.5,212.0,239.5,204.5,246.5,196.0,253.5,188.0,261.0" stroke="black" stroke-width="2" fill="none" />
<path d="M186.5,261.0,194.5,260.5,203.0,260.5,211.5,260.5,219.5,260.5,228.0,260.5,236.5,260.0,244.0,259.5,252.0,259.0,260.0,258.5,268.0,258.0,276.0,257.0,284.0,256.5,292.0,255.5,300.0,255.0,308.0,254.0,316.0,253.5,324.0,252.5" stroke="black" stroke-width="2" fill="none" />
<path d="M315.5,261.0,307.5,261.0,300.0,262.0,292.0,262.0,284.0,262.5,276.0,263.0,267.5,263.0,259.5,263.5,252.0,264.5,244.5,265.0,237.0,265.5,229.0,266.0,221.0,267.0,213.0,268.0,204.5,269.0,196.0,270.5,188.0,271.0" stroke="black" stroke-width="2" fill="none" />
<path d="M186.5,266.0,195.0,265.5,203.5,265.0,212.0,264.5,220.5,264.5,228.5,264.0,237.0,263.5,245.0,262.5,252.5,262.0,260.5,262.0,268.5,261.0,276.5,260.5,284.5,260.5,292.0,259.5,300.0,258.5" stroke="black" stroke-width="2" fill="none" />
<path d="M301.5,252.0,293.5,252.5,285.0,253.0,277.0,254.0,269.0,254.0,260.5,255.0,252.0,255.0,243.5,255.0,235.0,255.5,226.5,256.0,219.0,256.5,211.0,257.0,203.0,257.5,195.0,257.5,187.0,257.5" stroke="black" stroke-width="2" fill="none" />
<path d="M187.5,255.0,195.5,247.5,204.0,240.0,212.0,233.0,220.0,225.5,228.0,218.0,235.5,210.0,243.0,202.0,251.0,194.0,258.5,185.5,266.5,178.0" stroke="black" stroke-width="2" fill="none" />
<path d="M265.5,172.0,258.0,179.0,250.0,187.0,242.5,194.5,235.5,202.0,228.0,209.5,220.0,217.5,212.0,224.5,204.0,231.5,196.0,239.0,188.0,246.0" stroke="black" stroke-width="2" fill="none" />
<path d="M187.5,241.5,195.5,240.5,203.5,239.5,211.5,239.0,220.0,239.0,228.5,239.0,236.0,239.0,244.0,239.0,252.5,239.0,260.5,238.5,268.5,238.0,276.5,237.5,284.5,237.0,292.5,236.5,300.0,235.5,308.0,235.5" stroke="black" stroke-width="2" fill="none" />
<path d="M308.5,242.5,301.0,243.0,293.5,244.0,285.5,245.0,277.5,245.5,269.5,246.5,261.5,247.0,253.0,247.5,244.5,248.0,235.5,248.0,227.0,248.5,219.0,248.5,211.0,249.5,202.5,250.0,194.0,250.5,186.0,251.0" stroke="black" stroke-width="2" fill="none" />
<path d="M181.5,246.0,190.0,245.5,198.0,244.5,205.5,244.0,213.5,243.5,221.0,243.0,228.0,242.0,235.0,241.5,242.5,241.0,250.5,240.0,258.5,239.5,266.5,239.5,275.0,239.0,283.5,238.5,291.5,238.0,299.5,237.0,307.5,237.0,315.5,236.0,323.0,235.5" stroke="black" stroke-width="2" fill="none" />
<path d="M309.0,213.5,300.5,214.0,291.5,215.0,283.5,216.0,275.0,216.5,266.5,217.5,258.5,218.5,250.5,219.0" stroke="black" stroke-width="2" fill="none" />
<path d="M236.0,186.5,243.5,185.5,251.0,185.0,258.5,184.5,266.0,184.5" stroke="black" stroke-width="2" fill="none" />
<path d="M275.0,188.5,267.5,196.0,260.0,203.0,252.0,210.0,244.5,217.0,236.5,224.5,229.0,231.5,220.5,239.5,212.5,247.0,205.0,254.0,197.5,261.5" stroke="black" stroke-width="2" fill="none" />
<path d="M183.0,261.0,191.0,277.5,199.0,287.5,207.0,296.5,215.5,312.0,223.5,315.0,231.5,317.5,239.5,320.0,247.5,321.0,256.0,321.0,263.5,320.0,272.0,318.0,279.5,315.0,287.5,310.0,295.5,297.0,303.5,288.0,311.0,278.0" stroke="black" stroke-width="2" fill="none" />
<path d="M308.0,227.0,300.0,227.5,292.0,228.5,284.5,228.5,276.5,228.5,268.0,228.5,260.0,229.5,252.0,230.0,243.5,230.0,235.5,230.0,227.5,230.0,220.0,230.5,212.0,230.5,204.0,231.0,197.0,231.5,189.0,232.0" stroke="black" stroke-width="2" fill="none" />
<path d="M186.5,231.0,194.5,224.0,203.0,216.0,211.0,208.0,218.5,200.5,226.5,193.0,234.5,185.5,243.5,178.0,251.5,170.5,259.5,163.5,267.0,156.0" stroke="black" stroke-width="2" fill="none" />
<path d="M267.5,163.5,259.0,171.0,250.5,178.5,242.5,186.5,234.5,194.5,226.5,202.0,219.0,209.0,211.5,216.5,204.0,224.0,196.5,231.5,188.0,239.0" stroke="black" stroke-width="2" fill="none" />
<path d="M181.0,236.5,189.0,236.0,197.0,236.0,204.5,235.5,212.5,235.5,220.5,235.0,227.5,234.0,234.0,234.0,241.5,234.0,249.0,234.0,257.0,233.5,265.0,233.0,273.0,231.5,281.0,230.5,289.5,228.5,298.0,228.0,305.5,227.0,314.0,226.5,322.0,226.0" stroke="black" stroke-width="2" fill="none" />
<path d="M323.0,222.5,316.0,223.0,308.5,223.0,300.0,223.5,292.0,224.0,284.0,224.5,276.5,224.0,268.5,224.5,260.5,225.0,252.5,225.5,245.0,226.0,237.0,226.5,229.5,227.0,221.5,227.5,213.5,227.5,205.0,228.0,196.5,228.0,188.5,228.5" stroke="black" stroke-width="2" fill="none" />
<path d="M184.0,228.0,192.0,211.0,200.5,201.0,209.0,194.0,216.5,188.5,224.5,187.0" stroke="black" stroke-width="2" fill="none" />
<path d="M217.5,192.5,225.5,191.5,234.0,191.5,242.5,191.0,250.5,191.0,258.5,190.0,266.5,189.5,274.5,189.0,282.5,189.0" stroke="black" stroke-width="2" fill="none" />
<path d="M281.5,186.0,296.5,194.0,304.5,202.0,309.5,210.5,313.5,219.0,318.0,227.0,319.5,235.5,321.5,243.5,321.0,251.5,320.0,260.0,317.0,268.0,314.0,275.5,308.0,283.5,300.0,291.5,294.0,300.0,289.5,308.5,276.0,316.5" stroke="black" stroke-width="2" fill="none" />
<path d="M202.5,278.0,210.5,270.0,219.0,262.5,227.5,255.5,235.5,248.0,243.5,241.0,252.0,233.5,260.0,226.0,268.0,217.5,276.0,209.5,284.0,202.0,291.5,194.5" stroke="black" stroke-width="2" fill="none" />
<path d="M300.0,196.5,292.5,196.5,284.0,197.5,276.0,198.0,267.5,198.5,259.0,199.0,251.0,199.0,242.5,199.5,234.5,200.5,227.0,201.5,219.5,202.0,212.0,202.0" stroke="black" stroke-width="2" fill="none" />
<path d="M210.5,197.0,202.5,204.5,195.0,211.5" stroke="black" stroke-width="2" fill="none" />
<path d="M197.0,206.0,205.0,205.5,212.5,204.5,220.0,204.0,227.0,203.0,235.0,202.5,243.5,202.0,252.0,201.5,260.5,201.0,268.5,200.5,276.5,200.0,284.5,199.5,292.5,199.0,300.5,199.0,308.5,199.0" stroke="black" stroke-width="2" fill="none" />
<path d="M299.0,204.5,291.0,205.0,283.0,206.0,275.0,206.5,267.5,207.0,259.5,207.5,251.0,208.0,243.0,208.5,235.0,208.5,227.0,209.0,218.5,209.0,210.0,209.0,201.5,209.0" stroke="black" stroke-width="2" fill="none" />
<path d="M195.5,218.0,204.0,217.5,211.5,216.5,219.5,216.0,228.0,216.0,236.0,215.5,244.5,215.0" stroke="black" stroke-width="2" fill="none" />
<path d="M236.5,179.0,244.5,171.5,252.0,163.5,260.0,155.5,268.5,147.5" stroke="black" stroke-width="2" fill="none" />
<path d="M269.5,140.5,261.5,148.0,253.5,155.5,246.0,163.0,237.5,171.0" stroke="black" stroke-width="2" fill="none" />
<path d="M237.5,167.5,245.5,167.5,253.0,166.5,261.0,166.0,268.5,165.0" stroke="black" stroke-width="2" fill="none" />
<path d="M244.5,154.5,252.5,147.0,261.0,140.0,268.5,133.0" stroke="black" stroke-width="2" fill="none" />
<path d="M266.0,124.0,258.0,132.0,250.5,139.5,243.0,147.5" stroke="black" stroke-width="2" fill="none" />
<path d="M242.5,145.0,251.0,144.5,259.5,144.0" stroke="black" stroke-width="2" fill="none" />
<path d="M244.0,139.0,252.5,131.5,260.5,123.5,268.5,116.5" stroke="black" stroke-width="2" fill="none" />
<path d="M269.5,108.0,261.5,115.5,252.5,123.0,244.0,130.5" stroke="black" stroke-width="2" fill="none" />
<path d="M249.0,130.0,257.0,129.5" stroke="black" stroke-width="2" fill="none" />
<path d="M258.5,125.0,258.5,128.0,260.0,135.5" stroke="black" stroke-width="2" fill="none" />
<path d="M259.0,135.5,251.0,136.0,243.0,136.0" stroke="black" stroke-width="2" fill="none" />
<path d="M237.0,132.5,245.5,132.0,253.5,132.0,261.0,131.5,269.0,130.5" stroke="black" stroke-width="2" fill="none" />
<path d="M267.0,140.0,259.0,140.5,251.0,141.0,243.5,142.0,236.0,142.5" stroke="black" stroke-width="2" fill="none" />
<path d="M235.5,152.0,243.5,151.5,251.5,150.5,259.5,149.5,267.5,149.0" stroke="black" stroke-width="2" fill="none" />
<path d="M267.0,168.0,258.5,168.0,250.5,168.5,242.5,169.0" stroke="black" stroke-width="2" fill="none" />
<path d="M242.5,160.5,250.5,160.5,259.0,160.0,267.5,160.0" stroke="black" stroke-width="2" fill="none" />
<path d="M258.5,150.0,250.5,150.5,242.5,151.5" stroke="black" stroke-width="2" fill="none" />
<path d="M239.5,151.5,241.5,155.5" stroke="black" stroke-width="2" fill="none" />
<path d="M237.0,159.5,244.5,159.0,252.5,158.0,260.0,157.0,267.5,156.0" stroke="black" stroke-width="2" fill="none" />
<path d="M266.0,175.5,258.5,176.5,251.0,177.5,243.0,178.0,235.0,179.0" stroke="black" stroke-width="2" fill="none" />
<path d="M236.0,176.0,244.0,175.5,252.0,174.5,259.5,173.5,267.5,173.0,275.5,172.0" stroke="black" stroke-width="2" fill="none" />
<path d="M268.0,124.0,260.0,124.0,252.5,124.0,245.0,124.5,236.5,124.5" stroke="black" stroke-width="2" fill="none" />
<path d="M243.5,122.5,252.0,114.5,260.5,106.5,269.0,99.0" stroke="black" stroke-width="2" fill="none" />
<path d="M276.0,84.0,268.5,91.5,260.5,99.0,253.0,106.5,245.0,114.0" stroke="black" stroke-width="2" fill="none" />
<path d="M244.5,113.5,252.0,113.5,260.0,113.0,267.5,112.5" stroke="black" stroke-width="2" fill="none" />
<path d="M268.0,120.0,259.5,121.0,251.5,121.5,243.5,122.0" stroke="black" stroke-width="2" fill="none" />
<path d="M244.5,127.0,239.5,119.0,237.5,116.0" stroke="black" stroke-width="2" fill="none" />
<path d="M238.5,117.0,239.5,125.0" stroke="black" stroke-width="2" fill="none" />
<path d="M233.5,116.0,241.5,115.5,249.5,115.5,258.0,115.5,266.5,115.5" stroke="black" stroke-width="2" fill="none" />
<path d="M260.5,125.0,261.5,133.0" stroke="black" stroke-width="2" fill="none" />
<path d="M236.5,114.0,245.0,106.5,253.0,98.5,261.0,91.0,269.5,83.0,277.5,75.0" stroke="black" stroke-width="2" fill="none" />
<path d="M274.5,65.5,266.5,73.5,258.5,81.5,251.0,89.5,243.5,97.0,236.0,104.5" stroke="black" stroke-width="2" fill="none" />
<path d="M237.5,102.5,245.5,102.0,253.5,101.0,261.0,100.0,268.5,99.5,276.5,98.5" stroke="black" stroke-width="2" fill="none" />
<path d="M267.5,103.5,259.5,104.0,251.5,104.0,243.0,104.5" stroke="black" stroke-width="2" fill="none" />
<path d="M243.0,96.0,251.0,95.5,259.0,95.0,267.5,95.0" stroke="black" stroke-width="2" fill="none" />
<path d="M237.0,95.5,244.5,88.5,252.0,81.5,259.5,74.0,267.5,66.5,275.0,59.5,282.5,52.0" stroke="black" stroke-width="2" fill="none" />
<path d="M275.5,50.0,267.0,58.0,259.0,65.5,251.0,73.5,243.0,81.0,235.5,89.0" stroke="black" stroke-width="2" fill="none" />
<path d="M235.5,88.0,244.0,88.0,252.0,87.5,260.0,87.0,268.0,87.0" stroke="black" stroke-width="2" fill="none" />
<path d="M275.5,108.5,267.0,109.0,259.0,109.0,251.0,109.0,243.5,109.0,235.5,109.5" stroke="black" stroke-width="2" fill="none" />
<path d="M236.5,93.0,244.5,92.5,252.5,92.0,260.5,92.0,268.5,92.0,276.0,91.5" stroke="black" stroke-width="2" fill="none" />
<path d="M275.5,82.5,268.0,83.5,260.0,84.5,252.5,85.5,244.5,85.5,236.5,86.0" stroke="black" stroke-width="2" fill="none" />
<path d="M236.0,83.0,244.0,82.0,252.0,81.5,260.0,80.5,268.0,80.0,276.0,79.0" stroke="black" stroke-width="2" fill="none" />
<path d="M265.0,51.5,257.5,59.0,249.5,67.0,242.0,75.0,235.0,82.5" stroke="black" stroke-width="2" fill="none" />
<path d="M235.5,80.5,235.5,88.5,241.5,94.0,240.5,93.0" stroke="black" stroke-width="2" fill="none" />
<path d="M237.0,75.0,245.0,75.0,253.0,74.0,261.5,73.5,269.5,73.0,277.5,72.0" stroke="black" stroke-width="2" fill="none" />
<path d="M259.5,51.0,251.5,58.5,243.5,66.0,235.0,73.5" stroke="black" stroke-width="2" fill="none" />
<path d="M228.5,73.5,236.5,66.0,244.5,59.0,252.0,51.0" stroke="black" stroke-width="2" fill="none" />
<path d="M243.0,52.0,235.5,59.5,227.0,66.5" stroke="black" stroke-width="2" fill="none" />
<path d="M229.5,65.0,237.0,65.0,244.5,64.5,252.0,64.0,259.5,64.0,267.0,64.0,274.5,63.5" stroke="black" stroke-width="2" fill="none" />
<path d="M276.5,43.5,269.0,44.0,261.5,45.0,253.5,46.0,245.5,46.5,237.5,47.5" stroke="black" stroke-width="2" fill="none" />
<path d="M236.0,50.0,228.0,58.0" stroke="black" stroke-width="2" fill="none" />
<path d="M226.5,56.5,234.5,56.5,243.0,56.0,251.5,55.5,259.5,55.0,267.5,54.0,275.5,54.0" stroke="black" stroke-width="2" fill="none" />
<path d="M276.0,76.0,268.5,76.0,260.0,76.5,252.0,77.0,244.0,77.5,236.5,77.0,228.5,77.5" stroke="black" stroke-width="2" fill="none" />
<path d="M229.0,70.5,237.0,70.0,245.0,69.0,253.0,69.0,261.0,69.0,268.5,69.0,275.5,68.5" stroke="black" stroke-width="2" fill="none" />
<path d="M283.0,57.5,275.0,58.0,266.5,58.5,259.0,59.0,251.0,60.5,243.5,61.5,236.0,62.0,228.0,63.5" stroke="black" stroke-width="2" fill="none" />
<path d="M225.0,54.5,233.0,54.0,241.0,52.5,249.0,51.5,257.5,49.5,266.0,49.0,273.5,48.0,282.0,47.5" stroke="black" stroke-width="2" fill="none" />
<path d="M223.0,50.0,231.0,47.5,239.0,47.5,247.0,47.0,254.5,46.5,262.5,48.0,271.0,48.0,279.0,50.0,280.5,55.0,279.0,63.0,277.0,71.0,275.0,79.5,273.0,87.0,271.0,95.0,271.5,103.0,270.0,110.5,269.0,118.5,267.5,126.0,266.0,134.0,266.0,142.5,266.0,150.5,266.0,158.5,268.0,166.0,270.0,173.5,271.0,181.5,276.0,185.5,284.0,187.5,292.0,192.0,300.0,198.5,308.5,209.5,316.5,227.5" stroke="black" stroke-width="2" fill="none" />
<path d="M315.5,215.5,308.5,216.0,301.0,216.0,293.0,216.0,285.0,216.0,277.0,217.0,269.0,217.5,261.0,218.0,253.5,218.0,245.5,218.5,238.0,219.0,230.5,219.0,222.0,219.5,213.5,219.5,205.5,219.0,197.5,219.0,189.5,219.5" stroke="black" stroke-width="2" fill="none" />
<path d="M188.0,213.5,196.0,212.5,204.5,212.0,212.5,211.0,221.0,210.5,229.0,210.0,237.0,209.5,245.0,210.0,253.0,209.5,261.5,209.0,269.5,208.0,277.0,208.0,284.5,207.5,292.0,207.0,299.5,207.0,307.0,207.0,314.5,206.5" stroke="black" stroke-width="2" fill="none" />
<path d="M307.5,192.5,300.0,193.5,292.0,194.5,284.0,195.0,276.0,195.0,268.0,195.5,260.0,196.0,251.5,196.5,243.5,196.5,235.0,196.5,227.0,196.5,218.5,196.5,210.5,196.5,203.0,197.0" stroke="black" stroke-width="2" fill="none" />
<path d="M212.0,192.5,220.0,191.5,228.0,190.5,235.5,190.0,243.0,189.0,251.5,188.0,259.0,187.5,267.5,186.5,275.5,186.0,283.5,184.5,291.0,183.5" stroke="black" stroke-width="2" fill="none" />
<path d="M301.5,218.5,305.0,226.5,306.0,234.5,306.5,243.0,305.5,251.0,300.5,259.0,297.0,267.0,298.0,265.0" stroke="black" stroke-width="2" fill="none" />
<path d="M323.0,244.0,315.0,244.5,307.0,245.0,298.5,245.5,291.0,246.0,283.0,247.5,275.5,248.5,268.0,249.0,260.0,250.5,252.5,251.0,244.5,251.5,236.5,252.0,228.5,252.5,221.0,253.0,212.5,253.5,205.0,254.0,197.0,254.5,188.0,254.5,180.0,254.5" stroke="black" stroke-width="2" fill="none" />
<path d="M302.0,219.5,310.0,225.5" stroke="black" stroke-width="2" fill="none" />
</svg>