<svg xmlns="http://www.w3.org/2000/svg" version="1.1"><path d="M237.0,172.5,233.0,180.5,234.0,188.5,235.0,197.0,236.5,205.0,235.5,213.0,233.0,221.0,231.0,229.0,229.5,237.5,226.5,245.5,222.5,254.0,216.5,261.5,212.5,269.0,205.5,276.5,212.5,280.0,208.0,282.0,201.0,289.5,200.0,297.5,199.0,305.5,198.5,313.5,196.5,322.0,195.5,329.5,193.5,337.5,193.5,345.5,193.0,353.5,192.0,361.0,191.0,369.5,190.5,377.5,189.5,386.0,188.0,394.0,189.0,402.5,186.0,410.5,185.0,418.0,186.0,420.0,184.0,428.0,184.0,436.5,183.0,445.0,183.0,453.0,182.0,461.0,181.0,469.0,181.0,477.0,180.0,485.0,179.0,493.0,180.5,501.0,180.5,507.0,181.0,515.5,181.0,523.0,181.0,530.5,182.5,538.0,183.5,546.0,188.0,554.0,191.0,560.0,196.5,568.0,200.5,576.5,211.5,585.0" stroke="black" stroke-width="2" fill="none" />
<path d="M210.0,584.0,218.0,587.5,226.0,589.5,234.0,591.5,242.0,593.0,249.5,594.5,257.0,594.5,265.0,594.5,272.5,593.5,280.5,592.5,288.5,591.0,296.5,589.0,304.5,585.5,312.5,580.5,321.0,567.5,329.0,556.0" stroke="black" stroke-width="2" fill="none" />
<path d="M331.5,555.0,323.5,563.0,315.5,570.0,307.5,577.0,300.5,584.0" stroke="black" stroke-width="2" fill="none" />
<path d="M291.5,582.5,299.5,575.0,307.5,568.5,315.5,561.0,324.0,553.5,332.0,546.0" stroke="black" stroke-width="2" fill="none" />
<path d="M333.0,530.0,325.0,530.5" stroke="black" stroke-width="2" fill="none" />
<path d="M325.0,523.0,333.0,522.5" stroke="black" stroke-width="2" fill="none" />
<path d="M341.0,522.0,332.5,529.5,324.5,537.5,317.0,546.0,309.0,553.5,301.0,561.5,293.5,569.5,286.0,577.5,278.0,585.0,269.5,591.5" stroke="black" stroke-width="2" fill="none" />
<path d="M271.5,587.5,279.5,588.0,288.0,587.0,296.0,585.0" stroke="black" stroke-width="2" fill="none" />
<path d="M305.0,587.5,313.0,580.0" stroke="black" stroke-width="2" fill="none" />
<path d="M308.0,570.0,315.5,569.5,323.0,569.0" stroke="black" stroke-width="2" fill="none" />
<path d="M331.0,574.0,339.5,573.0" stroke="black" stroke-width="2" fill="none" />
<path d="M338.5,529.5,330.5,537.5,322.5,545.5,314.5,553.5,307.0,561.5,300.0,569.5,292.0,577.0,284.5,584.5,277.0,592.5" stroke="black" stroke-width="2" fill="none" />
<path d="M271.5,585.0,279.5,583.5,287.5,581.5,295.5,580.5" stroke="black" stroke-width="2" fill="none" />
<path d="M291.5,559.0,299.5,559.0,308.0,559.0,316.5,559.0,324.5,559.5" stroke="black" stroke-width="2" fill="none" />
<path d="M330.0,542.5,322.0,543.0,314.5,543.0,306.5,543.5" stroke="black" stroke-width="2" fill="none" />
<path d="M307.0,537.5,315.0,537.0,323.0,536.5,331.0,535.5" stroke="black" stroke-width="2" fill="none" />
<path d="M333.0,549.5,325.0,550.0,316.5,551.0,308.0,552.0,299.5,552.0,291.5,552.0" stroke="black" stroke-width="2" fill="none" />
<path d="M289.5,540.5,281.5,541.5,274.0,542.0,266.0,542.5,258.0,543.0,250.5,543.5,243.5,543.5,236.0,544.5,228.5,545.0,221.5,545.5,213.5,546.0" stroke="black" stroke-width="2" fill="none" />
<path d="M204.0,542.0,203.0,550.0" stroke="black" stroke-width="2" fill="none" />
<path d="M196.5,554.0,204.5,546.0,212.5,538.5,220.5,531.0,228.5,523.5,236.0,516.0,243.5,509.0,251.5,501.5,259.0,494.0,266.5,486.0,274.5,478.5,282.5,470.5,290.5,463.0,298.5,456.0,307.0,449.0,315.5,442.0,323.5,435.0,331.5,428.0" stroke="black" stroke-width="2" fill="none" />
<path d="M332.0,433.0,324.5,433.5" stroke="black" stroke-width="2" fill="none" />
<path d="M332.0,437.0,324.0,444.0,316.0,451.0,308.0,458.0,300.0,465.5,292.5,473.0,284.5,480.0,277.0,487.0,269.5,494.0,261.5,501.0,253.0,508.5,245.0,516.0,236.5,523.5,228.0,531.5,220.0,539.5,211.5,547.5,204.0,555.0,196.5,562.5" stroke="black" stroke-width="2" fill="none" />
<path d="M193.5,560.0,201.5,559.5,209.5,559.5,218.0,559.5,226.5,559.5,234.5,559.5,242.5,559.0,251.0,559.0,258.5,558.5,266.0,558.0,274.0,557.0" stroke="black" stroke-width="2" fill="none" />
<path d="M279.0,558.0,287.5,557.5" stroke="black" stroke-width="2" fill="none" />
<path d="M276.5,567.0,268.5,567.0,260.5,567.0,252.0,567.5,244.0,568.0,235.5,568.5,227.0,568.0,218.5,568.0,210.5,568.5,202.5,569.0" stroke="black" stroke-width="2" fill="none" />
<path d="M203.0,570.5,211.0,562.5,218.5,554.5,225.5,547.0,233.0,539.5,240.5,532.5,249.0,525.0,257.0,517.5,265.0,510.0,273.5,503.0,282.0,495.5,291.0,488.0,299.0,481.0,307.5,473.5,315.0,466.5,323.0,459.0,331.0,451.0,339.0,443.5" stroke="black" stroke-width="2" fill="none" />
<path d="M331.0,443.5,323.5,451.5,315.5,458.5,307.5,465.5,299.5,472.0,292.0,479.5,284.0,487.0,276.5,494.5,269.0,502.0,261.0,509.5,253.0,517.5,245.0,524.5,237.0,531.5,228.5,538.5,221.0,545.5,212.5,553.0,204.5,561.0" stroke="black" stroke-width="2" fill="none" />
<path d="M195.5,553.5,203.5,553.0,211.0,553.0,219.0,553.0,227.0,553.0,235.5,552.5,243.5,552.0,252.5,551.5,261.0,550.5,269.0,550.0,276.5,549.5,284.5,548.5" stroke="black" stroke-width="2" fill="none" />
<path d="M298.0,562.0,289.5,563.0,281.5,564.5,273.5,565.5" stroke="black" stroke-width="2" fill="none" />
<path d="M274.5,568.5,282.5,567.5,291.0,566.5,299.5,565.0" stroke="black" stroke-width="2" fill="none" />
<path d="M260.5,590.5,268.0,583.0,276.0,576.0,283.5,568.0,291.5,560.5,300.0,552.0,307.5,544.0,315.5,536.5,323.5,529.0,332.0,521.5,340.0,514.0" stroke="black" stroke-width="2" fill="none" />
<path d="M339.0,507.0,331.0,514.0,323.0,522.0,315.0,530.0,307.0,538.0,298.5,545.5,290.5,553.5,282.0,561.0,274.0,568.5,265.5,576.0,257.5,583.5,249.5,590.5" stroke="black" stroke-width="2" fill="none" />
<path d="M243.0,591.0,251.0,584.0,259.5,576.5,267.5,569.0,275.5,561.5,283.5,553.5,291.0,546.5,298.5,539.0,307.0,531.0,315.5,522.5,323.5,514.5,331.0,507.0,338.0,499.5" stroke="black" stroke-width="2" fill="none" />
<path d="M339.0,492.0,331.5,499.0,324.0,506.0,316.5,513.0,308.5,521.0,301.0,529.5,293.0,536.5,285.5,544.0,277.5,552.0,269.0,560.0,260.5,567.0,252.5,574.5,244.5,582.0,236.0,590.0" stroke="black" stroke-width="2" fill="none" />
<path d="M236.0,582.0,244.5,574.5,253.0,567.5,261.0,560.0,269.0,552.5,277.0,545.0,285.0,537.0,293.5,529.5,301.0,522.0,309.0,514.5,316.5,506.5,324.0,498.5,332.0,491.0,340.0,484.0" stroke="black" stroke-width="2" fill="none" />
<path d="M337.5,476.5,329.5,484.5,322.5,492.5,315.0,500.5,307.0,508.0,299.5,515.5,292.0,523.0,284.5,530.0,276.5,537.5,268.5,544.5,261.0,552.0,252.5,560.0,244.5,567.5,236.5,575.0,228.5,582.5" stroke="black" stroke-width="2" fill="none" />
<path d="M219.5,580.0,228.0,572.5,236.0,565.0,244.0,557.5,252.0,550.5,259.5,543.5,267.5,536.0,275.5,528.5,283.0,521.5,291.0,515.0,298.5,507.5,306.0,499.5,313.5,491.5" stroke="black" stroke-width="2" fill="none" />
<path d="M308.0,488.5,300.0,488.5,292.0,488.5,284.0,489.0,276.0,489.0" stroke="black" stroke-width="2" fill="none" />
<path d="M274.0,482.5,282.0,482.0,290.0,482.0,298.0,481.5,306.0,480.5,314.0,480.0,322.0,479.5,330.0,479.0" stroke="black" stroke-width="2" fill="none" />
<path d="M323.0,482.5,331.0,475.0,339.5,467.5" stroke="black" stroke-width="2" fill="none" />
<path d="M339.5,457.5,331.5,465.0,323.5,472.5,315.5,480.0,307.5,487.5,299.0,495.0,291.0,502.0,283.0,509.5,275.0,517.0,268.0,525.0,260.5,533.0,252.0,540.0,243.5,547.5,235.5,555.5,227.5,563.5,219.5,572.0,211.5,579.5" stroke="black" stroke-width="2" fill="none" />
<path d="M209.0,577.0,217.0,580.0,225.0,582.0" stroke="black" stroke-width="2" fill="none" />
<path d="M218.0,586.0,226.0,586.0,234.5,585.5,243.0,585.5,251.0,585.5,259.0,585.0,267.5,584.0,275.5,583.0,284.0,582.0,292.5,581.5,300.5,581.5,308.5,581.0" stroke="black" stroke-width="2" fill="none" />
<path d="M315.0,527.0,307.0,527.5,299.0,528.0,291.5,528.0,283.0,528.5,274.5,529.0,266.5,529.0" stroke="black" stroke-width="2" fill="none" />
<path d="M276.0,513.0,284.5,512.5,293.0,512.5,301.0,512.5" stroke="black" stroke-width="2" fill="none" />
<path d="M297.5,503.5,289.5,504.0,281.5,504.0,274.0,505.0,266.0,505.5" stroke="black" stroke-width="2" fill="none" />
<path d="M268.0,512.0,260.5,512.0,252.5,512.0,244.0,512.5,236.0,512.5" stroke="black" stroke-width="2" fill="none" />
<path d="M228.5,512.0,220.5,512.0,212.5,512.0,204.5,512.5,196.5,513.0" stroke="black" stroke-width="2" fill="none" />
<path d="M187.5,512.5,195.0,505.0,202.5,497.5,210.5,490.5,219.0,483.5,227.5,476.0,235.5,468.5,243.0,461.5,251.0,454.5,259.0,446.5,267.0,439.0,275.0,432.0,282.5,425.0,290.5,418.0,299.0,411.0,307.0,403.0,315.5,395.5,323.5,387.5,332.0,380.0" stroke="black" stroke-width="2" fill="none" />
<path d="M331.5,372.0,324.0,379.5,316.0,387.0,308.5,394.5,301.0,402.0,293.0,409.0,284.5,416.5,276.5,423.5,268.5,431.5,261.0,439.0,252.5,446.5,245.0,454.0,236.5,461.5,228.0,469.0,220.0,476.5,212.0,484.0,204.0,491.0,196.0,498.5,188.0,506.0" stroke="black" stroke-width="2" fill="none" />
<path d="M186.5,503.5,193.0,514.5" stroke="black" stroke-width="2" fill="none" />
<path d="M197.5,522.5,205.5,522.0,213.5,521.0,221.0,520.0,228.5,519.5,236.5,518.5,244.5,518.5,252.5,518.0,260.5,517.5,269.0,517.0,277.5,517.0,285.5,516.5,292.5,516.0,300.0,515.5,307.5,514.5,314.5,514.5" stroke="black" stroke-width="2" fill="none" />
<path d="M326.0,517.5,326.5,525.5,325.5,525.0" stroke="black" stroke-width="2" fill="none" />
<path d="M324.0,506.0,332.0,505.0" stroke="black" stroke-width="2" fill="none" />
<path d="M337.0,507.5,329.5,508.0,322.0,508.0,314.5,508.5,307.5,509.0,299.5,509.0,292.0,510.0,284.0,510.0,276.0,510.5,268.0,511.0,259.5,511.0,251.5,511.5,244.0,512.5,236.5,513.0,229.0,513.5,221.0,514.0,213.0,515.0,205.0,516.0,196.5,517.0,188.0,518.5,180.0,519.0" stroke="black" stroke-width="2" fill="none" />
<path d="M181.0,526.0,189.0,525.5,196.5,524.5,204.0,524.0,211.0,523.0,219.0,522.5,227.5,522.0,236.0,521.5,244.5,521.0,252.5,520.5,260.5,520.0,268.5,519.5,276.5,519.0,284.5,519.0,292.5,519.0,300.0,518.5,307.5,518.0,315.5,517.5,324.0,516.5,332.5,515.5,341.0,515.0" stroke="black" stroke-width="2" fill="none" />
<path d="M339.5,499.0,331.5,499.5,323.0,500.0,315.5,500.5,307.5,501.0,299.5,501.5,292.0,502.5,284.0,503.5,276.5,504.5,268.5,504.5,260.5,505.0,252.5,506.0,244.5,506.0,237.0,506.5,229.0,507.5,220.5,508.0,212.5,508.5,204.0,508.5,195.5,509.0,187.0,509.5,178.5,510.0" stroke="black" stroke-width="2" fill="none" />
<path d="M184.0,503.0,195.5,498.0" stroke="black" stroke-width="2" fill="none" />
<path d="M196.5,498.0,204.5,497.5,212.5,497.5,220.0,496.5,228.0,495.5,235.5,494.5" stroke="black" stroke-width="2" fill="none" />
<path d="M243.0,497.0,251.0,496.5,259.0,496.5,267.0,496.5,276.0,496.0,284.5,495.5,293.0,495.0,301.5,494.5,309.5,494.0" stroke="black" stroke-width="2" fill="none" />
<path d="M306.5,500.0,302.5,508.0,299.5,508.0,304.0,500.0" stroke="black" stroke-width="2" fill="none" />
<path d="M317.5,488.0,313.5,493.0,313.5,486.0,313.5,483.0" stroke="black" stroke-width="2" fill="none" />
<path d="M329.5,493.5,331.0,489.5,329.5,497.5,329.5,505.5,326.0,506.0,325.5,504.5" stroke="black" stroke-width="2" fill="none" />
<path d="M340.0,451.5,331.5,458.5,323.5,465.5,315.0,473.0,307.0,480.0,299.0,487.5,291.0,494.5,283.5,502.0,275.5,510.0,266.5,517.5,258.5,525.0,250.5,532.5,243.0,539.5,235.0,547.5,227.0,555.5,219.0,564.0,211.5,571.5" stroke="black" stroke-width="2" fill="none" />
<path d="M201.0,578.0,209.0,577.5,218.0,577.0,226.5,576.0,235.0,576.0,244.0,575.0,252.0,574.5,260.5,574.5,268.5,574.5,276.5,574.5,285.0,574.0,292.5,573.0,300.5,572.5,308.0,571.5,316.5,571.0" stroke="black" stroke-width="2" fill="none" />
<path d="M332.0,582.5,324.5,583.5,317.0,584.5,309.0,586.0,301.5,586.5,293.5,587.0,285.5,586.5,277.5,586.5,269.0,587.0,260.5,588.0,252.5,588.0,244.5,588.5,236.5,589.0,229.0,590.0,220.5,591.0" stroke="black" stroke-width="2" fill="none" />
<path d="M196.5,580.5,205.0,580.5,212.5,580.0,220.0,580.0,228.0,580.0,236.0,579.5,244.0,579.5,252.0,579.5,260.5,579.5,269.0,579.0,276.5,578.0,285.0,577.0,292.5,576.0,300.5,575.5,308.5,575.0,316.5,575.0,325.0,574.0,333.5,573.5,341.5,573.5" stroke="black" stroke-width="2" fill="none" />
<path d="M331.5,466.0,323.5,466.0,315.5,467.0,307.5,467.5,299.5,468.5,291.5,469.0,284.0,469.5,276.0,470.0,267.5,470.0,259.5,470.0,251.0,470.5,243.0,471.0,235.0,471.5,227.5,472.0,219.5,472.5,211.5,473.0" stroke="black" stroke-width="2" fill="none" />
<path d="M209.0,481.5,217.5,481.0,225.5,481.0,234.0,481.0,243.0,480.5,251.5,480.0,259.0,479.5" stroke="black" stroke-width="2" fill="none" />
<path d="M263.5,482.5,264.0,477.5,263.5,485.5,268.5,477.5" stroke="black" stroke-width="2" fill="none" />
<path d="M275.0,442.0,283.0,441.0,291.0,440.5,298.5,440.0,306.0,440.0,314.0,440.0" stroke="black" stroke-width="2" fill="none" />
<path d="M315.0,437.0,307.0,444.5,299.5,451.5,291.5,458.5,284.5,466.5,276.5,474.0,268.0,481.0,259.5,488.0,251.0,495.0,243.0,502.5,235.0,510.0,227.0,517.0,219.0,525.0,211.0,533.0,203.0,541.0,194.5,548.5" stroke="black" stroke-width="2" fill="none" />
<path d="M187.0,544.5,195.0,537.0,203.0,529.5,211.0,522.0,219.0,514.5,227.5,508.0,235.5,501.5,242.5,493.5,250.0,486.0,258.5,478.5,266.5,471.0,274.5,463.0,282.5,455.5,291.0,448.0,299.0,440.5,307.5,433.0,315.5,425.0,323.5,417.5,331.5,409.5" stroke="black" stroke-width="2" fill="none" />
<path d="M332.5,402.0,324.0,409.5,316.0,417.5,308.0,425.0,300.0,432.5,291.5,440.0,283.5,447.5,275.0,455.0,266.5,462.5,258.5,469.5,251.0,477.0,243.0,485.0,235.0,493.0,227.5,500.0,220.0,507.5,212.5,514.5,204.0,522.0,196.0,530.5,188.0,538.0" stroke="black" stroke-width="2" fill="none" />
<path d="M185.5,537.0,194.0,536.5" stroke="black" stroke-width="2" fill="none" />
<path d="M196.0,535.5,196.0,538.5" stroke="black" stroke-width="2" fill="none" />
<path d="M202.5,536.5,210.5,536.5,219.0,536.0,227.5,536.0,236.0,535.5,243.5,534.5,252.0,534.0,260.0,533.0,268.0,532.5,275.5,532.0,283.5,531.5,292.0,531.0,300.0,530.5" stroke="black" stroke-width="2" fill="none" />
<path d="M266.5,486.0,258.5,486.5,250.0,487.0,242.5,488.0,235.5,488.5,228.0,488.5,220.5,488.5,213.0,489.0" stroke="black" stroke-width="2" fill="none" />
<path d="M195.5,504.0,204.0,504.0,212.0,503.5,220.0,503.0,228.0,503.0,235.5,502.0,243.5,502.0,250.5,501.5,258.0,501.0" stroke="black" stroke-width="2" fill="none" />
<path d="M244.0,518.5,240.5,527.0" stroke="black" stroke-width="2" fill="none" />
<path d="M194.0,544.0,186.0,545.0" stroke="black" stroke-width="2" fill="none" />
<path d="M185.5,550.0,193.5,558.0,197.0,568.0,200.0,577.5,207.5,583.0,216.0,584.0,223.5,585.0" stroke="black" stroke-width="2" fill="none" />
<path d="M172.5,572.5,180.5,572.0,189.0,572.0,197.5,571.5,205.5,571.5,213.5,571.0,221.0,570.5,229.0,570.0,236.5,569.5,244.5,569.0,252.5,568.5,260.5,568.0,268.0,568.5,276.0,568.0,284.0,567.5,292.5,567.0,300.0,567.0,307.0,566.5,314.5,565.5,322.0,565.0" stroke="black" stroke-width="2" fill="none" />
<path d="M316.5,430.5,308.5,430.5,301.0,430.5,292.5,430.5,284.0,431.0,276.0,431.0" stroke="black" stroke-width="2" fill="none" />
<path d="M277.5,424.0,285.5,423.0,293.5,423.0,301.0,422.5,308.5,422.5,316.0,422.5,324.0,422.0" stroke="black" stroke-width="2" fill="none" />
<path d="M326.0,420.0,333.5,419.0" stroke="black" stroke-width="2" fill="none" />
<path d="M339.0,428.0,331.5,428.5,323.5,429.5,315.0,430.0,307.0,431.0,299.5,431.0,292.0,432.0,284.5,433.0,276.5,434.0,269.0,434.5,260.5,435.0,251.5,435.5,243.5,435.5,235.0,435.5,227.0,435.5,219.0,435.5,210.5,435.5,202.5,436.0,195.0,437.0,187.0,437.5" stroke="black" stroke-width="2" fill="none" />
<path d="M188.5,444.0,196.5,436.5,204.5,429.0,212.0,421.5,219.5,414.0,227.0,406.5,235.0,398.0,243.0,390.0,251.0,382.5,259.0,375.5,267.0,368.0,275.5,360.5,283.5,352.5,291.5,345.0,299.5,337.5,307.5,330.0,315.0,322.5,322.5,315.5" stroke="black" stroke-width="2" fill="none" />
<path d="M323.5,323.0,316.0,330.5,308.0,338.5,300.0,346.5,291.5,354.0,283.5,361.0,275.5,368.5,267.5,376.0,260.0,383.0,253.0,389.5,245.0,397.0,236.5,404.5,227.5,413.0,219.0,420.5,211.0,428.0,203.0,435.5,194.5,443.5,186.5,451.0" stroke="black" stroke-width="2" fill="none" />
<path d="M187.0,453.0,194.5,452.5,202.5,452.5,211.0,452.5,219.0,452.5,227.5,452.5,235.5,452.5,244.0,452.0,252.0,451.5,260.0,451.0,268.0,451.0,276.0,450.5,284.0,449.5,291.5,448.5,299.5,448.0,307.5,447.0,315.0,446.0,322.5,445.0,330.0,443.5,338.5,442.5" stroke="black" stroke-width="2" fill="none" />
<path d="M331.5,450.5,323.5,451.0,315.5,452.0,307.0,453.0,299.0,453.5,291.0,454.5,283.5,454.5,275.5,454.5,268.0,454.5,260.0,454.5,252.5,454.0,244.5,454.5,236.5,455.5,228.5,456.0,220.5,457.0,212.0,457.0" stroke="black" stroke-width="2" fill="none" />
<path d="M211.0,450.0,219.5,449.5,227.0,448.5,235.5,447.5,243.5,446.0,251.0,445.5,259.0,445.5,267.0,446.0,275.5,446.0,284.0,445.5,292.0,445.0,300.5,444.5,308.5,444.5,316.0,444.0,323.5,443.5" stroke="black" stroke-width="2" fill="none" />
<path d="M329.5,457.0,321.5,457.0,313.5,457.0,305.5,457.5,297.5,458.0,289.5,458.5,281.5,459.0,274.0,459.5,266.5,459.5,258.5,459.5,250.0,459.5,241.5,460.0,234.0,460.5,226.5,461.0,218.5,462.0,210.5,462.5,202.5,463.5" stroke="black" stroke-width="2" fill="none" />
<path d="M203.0,457.5,195.5,465.0,188.0,473.0" stroke="black" stroke-width="2" fill="none" />
<path d="M187.0,473.0,194.5,466.0,203.0,459.0,211.0,451.5,220.0,443.5,228.0,436.0,235.5,428.5,243.5,421.0,251.5,414.0,259.5,406.5,268.0,399.5,276.0,392.5,284.5,385.5,292.0,377.5,300.0,370.0,308.0,362.5,315.5,355.5,323.5,348.0" stroke="black" stroke-width="2" fill="none" />
<path d="M323.5,353.5,315.0,361.5,307.0,369.0,299.0,376.5,291.0,384.0,283.5,392.5,275.5,400.0,267.5,408.0,259.5,415.5,251.0,423.0,243.0,430.5,234.5,437.5,226.5,444.5,218.5,452.0,211.5,460.0,204.0,467.5,195.5,474.0,187.0,481.5" stroke="black" stroke-width="2" fill="none" />
<path d="M188.0,485.0,196.0,484.0" stroke="black" stroke-width="2" fill="none" />
<path d="M196.0,491.5,188.0,492.5" stroke="black" stroke-width="2" fill="none" />
<path d="M188.0,490.0,196.5,482.5,204.5,475.0,212.5,468.0,220.5,461.0,228.0,454.0,235.5,447.0,243.0,439.5,251.5,432.0,260.0,424.0,268.0,416.5,276.0,408.5,284.5,401.0,292.0,393.0,299.5,386.0,307.0,378.0,315.0,370.0,322.5,362.0" stroke="black" stroke-width="2" fill="none" />
<path d="M323.5,372.0,315.5,379.5,307.0,387.5,299.0,395.0,291.5,401.5,283.5,409.0,276.0,416.5,268.5,425.0,261.0,432.5,253.0,440.0,245.0,447.5,237.0,455.0,229.0,462.5,221.0,470.0,213.0,477.0,205.0,484.5,197.0,492.5,189.0,500.5" stroke="black" stroke-width="2" fill="none" />
<path d="M178.5,501.0,186.5,500.5,195.0,500.5,203.5,500.5,211.5,500.5,220.0,500.5,228.5,500.0,236.0,499.5,244.0,499.0,252.0,498.5,260.0,498.0,268.0,497.0,276.0,496.5,284.0,495.5,292.0,495.0,300.0,494.0,308.0,493.5,316.0,492.5,324.0,492.0,332.0,491.5,340.0,491.0" stroke="black" stroke-width="2" fill="none" />
<path d="M339.0,450.5,330.5,451.0,322.0,451.5,314.0,452.5,306.5,453.5,298.0,454.5,290.5,455.5,283.0,456.5,275.0,457.0,267.0,458.0,259.0,458.5,251.5,459.0,243.5,459.5,235.0,460.0,227.0,460.5,219.0,460.5,211.0,461.0,202.5,461.0,194.0,461.0,185.5,461.0" stroke="black" stroke-width="2" fill="none" />
<path d="M189.0,459.5,197.0,452.5,204.5,444.0,212.5,436.0,220.0,429.0,227.5,422.0,235.0,415.0,243.0,407.5,251.0,400.0,259.0,392.5,267.0,384.5,274.5,377.5,282.5,370.0,289.5,363.0,297.5,355.5,305.5,348.0,313.5,340.5" stroke="black" stroke-width="2" fill="none" />
<path d="M322.5,339.5,315.5,347.0,308.0,354.5,300.0,362.0,291.5,369.5,283.5,377.0,276.0,384.0,268.0,391.5,260.5,398.5,253.0,406.0,244.5,413.0,237.0,420.5,228.0,428.5,219.5,435.5,210.5,443.0" stroke="black" stroke-width="2" fill="none" />
<path d="M206.0,448.5,203.5,456.5" stroke="black" stroke-width="2" fill="none" />
<path d="M195.0,451.0,199.0,449.0,196.5,449.0,196.5,457.0,190.5,461.0,197.5,464.0,196.0,471.5,199.5,483.5,199.5,481.0,206.5,467.5,199.0,469.5,201.0,462.5,203.0,473.5,207.5,473.0" stroke="black" stroke-width="2" fill="none" />
<path d="M194.0,474.0,186.0,475.0" stroke="black" stroke-width="2" fill="none" />
<path d="M179.5,477.5,187.5,476.5,195.5,475.5,203.5,475.0,212.0,475.0,220.5,475.0,228.0,475.0,236.0,475.0,244.5,475.0,252.5,474.5,260.5,474.0,268.5,473.5,276.5,473.0,284.5,472.5,292.0,471.5,300.0,471.5,307.5,470.5,315.5,470.0,323.5,469.5,331.5,469.0,339.5,468.5" stroke="black" stroke-width="2" fill="none" />
<path d="M338.0,436.5,331.0,437.0,323.5,437.5,315.5,438.5,307.5,439.0,300.5,440.0,293.0,441.0,285.0,441.5,277.5,442.5,269.5,442.5,261.5,443.5,253.5,444.0,245.0,444.0,236.5,444.0,228.0,443.5,219.5,444.0,211.0,444.0,202.5,444.5,194.5,444.5,186.0,444.5" stroke="black" stroke-width="2" fill="none" />
<path d="M185.5,438.5,194.0,431.5,202.5,424.0,211.0,417.0,219.0,410.0,227.5,403.0,235.0,395.0,243.0,387.5,251.0,380.0,258.5,372.5,266.0,365.5" stroke="black" stroke-width="2" fill="none" />
<path d="M260.0,368.5,268.0,368.0,276.0,367.5,283.5,367.0,291.0,366.0,299.0,365.5,307.0,365.0,315.5,365.0,323.5,365.0" stroke="black" stroke-width="2" fill="none" />
<path d="M316.0,357.5,308.5,358.5,300.0,359.0,292.5,360.0,284.5,361.5,277.0,362.0" stroke="black" stroke-width="2" fill="none" />
<path d="M274.5,353.5,282.5,346.0,291.0,338.0,299.5,330.0,308.0,322.0,316.0,314.0,324.0,306.5" stroke="black" stroke-width="2" fill="none" />
<path d="M325.0,300.0,317.0,307.5,309.0,315.0,301.0,322.5,292.5,330.5,283.5,338.5,275.5,345.5,267.0,352.5,258.5,359.5,250.5,367.5,242.5,375.0,234.5,382.5,226.5,389.5,219.0,397.0,211.5,404.0,203.5,411.5,195.5,419.5,187.0,427.0" stroke="black" stroke-width="2" fill="none" />
<path d="M187.0,430.0,194.5,429.5,202.5,428.5,210.0,428.5,218.0,428.5,226.0,428.5,234.0,428.0,243.0,427.5,251.5,427.0,259.5,427.5,267.5,427.0,275.5,426.5,283.5,425.5,291.5,424.5,299.5,424.0,307.5,423.0,315.5,422.0,323.5,421.5,331.5,420.5,339.5,420.0" stroke="black" stroke-width="2" fill="none" />
<path d="M340.0,412.5,332.0,412.5,323.5,413.0,315.0,414.0,307.0,414.5,299.0,415.0,291.0,415.5,283.0,416.0,275.5,417.0,268.0,417.5,260.0,417.5,252.0,417.5,244.5,418.0,236.5,418.5,228.5,418.5,220.5,419.5,212.0,420.0,203.5,420.0,195.5,420.0,187.0,420.5" stroke="black" stroke-width="2" fill="none" />
<path d="M188.5,415.5,196.5,414.5,205.0,414.5,213.5,414.0,221.5,413.0,229.5,412.5,237.5,411.5,245.5,410.5,253.0,409.5,261.0,408.0,269.0,407.5,277.5,407.0,285.5,407.0,293.0,406.5,301.0,405.5,309.0,405.5,316.5,405.0,325.0,405.0,333.0,405.0,341.5,405.0" stroke="black" stroke-width="2" fill="none" />
<path d="M334.5,395.0,325.5,402.5" stroke="black" stroke-width="2" fill="none" />
<path d="M326.5,402.5,328.0,394.5" stroke="black" stroke-width="2" fill="none" />
<path d="M325.5,392.0,324.5,400.0,321.5,404.5,321.5,416.5,321.5,424.5,327.5,426.5,329.5,426.5" stroke="black" stroke-width="2" fill="none" />
<path d="M331.5,437.0,328.0,440.0,325.5,439.5,322.0,439.5,319.5,431.0,326.5,420.0,323.0,417.0" stroke="black" stroke-width="2" fill="none" />
<path d="M316.0,412.5,307.5,420.0,299.5,427.5,291.0,435.0,283.0,442.5,275.0,450.0,267.0,457.5,258.5,464.5,250.5,471.5,242.5,479.5,234.0,486.5,227.0,494.0,219.5,501.5,211.5,509.5,203.0,518.0,194.5,526.0,187.0,533.5" stroke="black" stroke-width="2" fill="none" />
<path d="M188.0,530.0,195.5,530.0,203.0,529.5,210.5,528.5,218.5,527.5,227.0,527.0,235.0,527.0,243.5,526.5,252.0,526.0,260.0,525.5" stroke="black" stroke-width="2" fill="none" />
<path d="M187.5,522.0,195.0,514.5,203.0,507.5,211.5,500.5,219.0,493.5,227.0,486.0,235.0,478.5,243.0,471.5,250.5,464.5,258.5,456.5,267.0,448.5,275.5,440.5,283.0,433.0,290.5,425.5,299.0,418.0,307.0,410.5,315.5,402.5,324.0,395.5,332.5,388.0" stroke="black" stroke-width="2" fill="none" />
<path d="M316.5,398.0,308.5,398.0,301.0,398.5,292.5,399.5,285.0,399.5,277.0,400.0,269.0,401.0,260.5,401.5,252.0,402.0" stroke="black" stroke-width="2" fill="none" />
<path d="M256.0,406.5,249.5,414.0,255.0,407.5" stroke="black" stroke-width="2" fill="none" />
<path d="M259.0,405.5,255.0,413.5,257.0,412.0" stroke="black" stroke-width="2" fill="none" />
<path d="M261.5,408.5,269.0,408.5,277.0,408.0,285.0,407.5,293.5,407.0,301.0,406.5,309.0,406.5,317.0,407.0" stroke="black" stroke-width="2" fill="none" />
<path d="M316.0,410.5,315.5,402.0,315.5,401.0" stroke="black" stroke-width="2" fill="none" />
<path d="M317.0,414.5,309.0,415.0,301.0,415.0,292.5,415.5,284.5,416.0,276.5,417.0" stroke="black" stroke-width="2" fill="none" />
<path d="M268.0,424.5,259.5,425.0,252.0,425.0" stroke="black" stroke-width="2" fill="none" />
<path d="M252.5,417.5,244.5,418.0,237.0,419.0" stroke="black" stroke-width="2" fill="none" />
<path d="M237.5,422.5,245.0,423.5" stroke="black" stroke-width="2" fill="none" />
<path d="M235.5,431.5,227.0,431.5,219.0,431.5,211.0,432.0,203.0,432.0" stroke="black" stroke-width="2" fill="none" />
<path d="M202.5,441.0,211.0,440.5,219.5,440.0,228.0,439.0,236.0,438.5,243.5,438.0,251.5,437.5,259.5,437.0,267.0,437.0" stroke="black" stroke-width="2" fill="none" />
<path d="M267.0,436.5,267.0,433.5,271.0,435.5" stroke="black" stroke-width="2" fill="none" />
<path d="M235.5,408.5,227.5,408.5,220.0,409.0,212.0,409.5,204.5,409.5" stroke="black" stroke-width="2" fill="none" />
<path d="M203.5,418.0,211.5,417.5,219.5,417.0" stroke="black" stroke-width="2" fill="none" />
<path d="M225.5,415.5,225.5,419.5,226.5,424.5" stroke="black" stroke-width="2" fill="none" />
<path d="M220.0,424.0,212.0,424.0" stroke="black" stroke-width="2" fill="none" />
<path d="M201.5,419.5,204.5,425.5,197.0,429.0,189.0,437.0,193.0,435.0,200.0,429.5,194.0,437.5,199.0,430.5" stroke="black" stroke-width="2" fill="none" />
<path d="M196.0,412.0,204.0,404.5,211.0,396.5,218.5,388.5,226.5,380.5,234.5,372.5,242.5,364.5,250.5,357.5,259.0,350.5,267.0,343.5,275.5,337.0,283.5,330.0,291.5,322.5,299.5,314.5,307.5,307.0,316.0,300.0,324.5,293.0" stroke="black" stroke-width="2" fill="none" />
<path d="M314.5,291.0,306.5,298.5,299.0,306.0,291.0,314.0,283.0,322.0,274.5,329.5,267.0,337.0,259.0,344.5,251.5,352.0,244.0,359.5,236.0,367.0,228.0,374.0,220.0,381.5,212.5,389.5,205.0,397.5,197.0,405.0" stroke="black" stroke-width="2" fill="none" />
<path d="M196.0,403.0,204.0,402.0,212.0,401.5,220.0,400.5,228.0,400.0,236.0,399.0" stroke="black" stroke-width="2" fill="none" />
<path d="M237.5,398.0,238.5,405.5,244.0,404.5" stroke="black" stroke-width="2" fill="none" />
<path d="M246.0,399.5,238.0,397.5" stroke="black" stroke-width="2" fill="none" />
<path d="M250.5,362.0,258.5,361.5,266.5,360.5" stroke="black" stroke-width="2" fill="none" />
<path d="M268.0,351.5,260.0,352.0" stroke="black" stroke-width="2" fill="none" />
<path d="M260.5,345.0,269.5,344.5" stroke="black" stroke-width="2" fill="none" />
<path d="M276.5,353.0,284.0,353.0,292.0,352.5,299.5,352.5,307.5,352.5,315.5,352.0" stroke="black" stroke-width="2" fill="none" />
<path d="M314.0,352.5,316.0,349.0,314.0,355.0" stroke="black" stroke-width="2" fill="none" />
<path d="M315.5,343.5,308.0,343.5,300.0,344.0,292.5,344.0,285.0,344.5" stroke="black" stroke-width="2" fill="none" />
<path d="M284.5,338.5,292.5,337.5,300.5,337.0,309.0,336.0" stroke="black" stroke-width="2" fill="none" />
<path d="M313.0,338.0,313.0,330.5,313.0,328.5" stroke="black" stroke-width="2" fill="none" />
<path d="M315.5,328.0,316.5,336.0" stroke="black" stroke-width="2" fill="none" />
<path d="M321.5,336.5,321.5,328.5" stroke="black" stroke-width="2" fill="none" />
<path d="M324.0,325.0,325.0,333.5,323.0,341.5,322.0,350.0,317.5,356.5,320.5,362.0,324.0,362.0,323.0,365.0" stroke="black" stroke-width="2" fill="none" />
<path d="M315.5,326.0,308.0,326.5,299.5,327.0,291.5,328.0,284.0,329.0,276.0,329.5,268.5,330.0" stroke="black" stroke-width="2" fill="none" />
<path d="M273.0,333.5,269.0,341.5,272.5,333.0,275.5,337.0" stroke="black" stroke-width="2" fill="none" />
<path d="M276.0,335.5,274.5,343.5,276.0,340.0" stroke="black" stroke-width="2" fill="none" />
<path d="M268.0,337.5,260.0,338.0,252.0,338.5" stroke="black" stroke-width="2" fill="none" />
<path d="M250.0,341.5,242.5,342.5,234.0,343.5,226.5,344.5,219.0,345.5,211.0,346.0,203.0,347.0" stroke="black" stroke-width="2" fill="none" />
<path d="M205.0,343.5,212.5,336.0,220.5,328.5,228.5,321.5,236.5,314.5,244.5,307.5,252.5,300.5,260.5,293.0" stroke="black" stroke-width="2" fill="none" />
<path d="M269.0,296.5,276.5,296.0" stroke="black" stroke-width="2" fill="none" />
<path d="M276.0,300.0,267.5,307.5,259.5,315.0,251.0,322.5,243.0,330.0,235.0,337.5,227.0,345.0,219.0,352.0,211.0,360.0,203.5,367.5,195.5,375.0" stroke="black" stroke-width="2" fill="none" />
<path d="M196.0,373.5,204.5,373.5,212.5,373.5,220.0,373.5,228.0,372.5,236.0,372.0,243.5,372.0,251.0,371.5,259.0,371.0,267.0,370.5,274.5,370.0,282.5,369.5,291.0,368.5,299.5,368.0,307.0,367.0,315.0,366.5,323.5,365.5,332.0,364.5" stroke="black" stroke-width="2" fill="none" />
<path d="M316.0,304.5,307.5,305.5,299.5,306.0" stroke="black" stroke-width="2" fill="none" />
<path d="M301.0,298.0,309.0,290.5" stroke="black" stroke-width="2" fill="none" />
<path d="M309.5,298.5,317.5,298.0" stroke="black" stroke-width="2" fill="none" />
<path d="M308.5,282.0,317.0,274.5" stroke="black" stroke-width="2" fill="none" />
<path d="M307.5,274.0,299.5,281.5" stroke="black" stroke-width="2" fill="none" />
<path d="M299.5,286.0,307.0,285.5,315.0,285.5,323.0,285.0" stroke="black" stroke-width="2" fill="none" />
<path d="M308.0,268.0,299.5,275.5,291.5,283.0" stroke="black" stroke-width="2" fill="none" />
<path d="M291.5,277.5,299.0,277.0,307.0,276.0,315.0,275.5" stroke="black" stroke-width="2" fill="none" />
<path d="M309.5,260.5,301.0,267.5,292.5,275.0" stroke="black" stroke-width="2" fill="none" />
<path d="M283.5,275.0,291.5,268.5,299.5,261.5" stroke="black" stroke-width="2" fill="none" />
<path d="M298.0,254.0,289.5,261.0" stroke="black" stroke-width="2" fill="none" />
<path d="M286.5,261.5,294.5,261.0,302.0,261.0,310.0,261.0" stroke="black" stroke-width="2" fill="none" />
<path d="M301.0,252.5,293.0,253.0,284.5,253.0" stroke="black" stroke-width="2" fill="none" />
<path d="M282.0,257.5,290.0,264.5" stroke="black" stroke-width="2" fill="none" />
<path d="M276.5,267.5,268.5,275.0,260.5,282.0,252.5,289.5,245.0,297.0,236.5,304.5,228.0,312.0,220.0,319.5,212.0,326.5,204.0,334.0" stroke="black" stroke-width="2" fill="none" />
<path d="M203.0,328.5,211.5,321.0,219.0,313.5,227.5,305.5,236.0,298.0,244.5,290.5,253.0,283.0,260.5,275.5,268.5,268.5" stroke="black" stroke-width="2" fill="none" />
<path d="M267.5,266.0,260.0,267.0,252.0,267.5" stroke="black" stroke-width="2" fill="none" />
<path d="M244.5,265.0,253.0,257.5,261.5,249.5,269.5,242.0" stroke="black" stroke-width="2" fill="none" />
<path d="M269.0,241.5,261.0,243.0,253.5,243.5" stroke="black" stroke-width="2" fill="none" />
<path d="M252.5,241.0,250.5,243.0,249.5,250.5,253.0,258.5,246.0,262.5,242.0,270.5,241.0,274.5,249.0,274.0,250.0,276.0,258.0,271.0,268.0,269.0,276.0,275.0,284.0,281.0,291.5,279.0,299.0,281.5,307.0,282.5,312.5,286.0,298.0,293.5,295.5,302.5,289.5,304.5" stroke="black" stroke-width="2" fill="none" />
<path d="M291.0,308.5,283.0,316.0,274.5,323.0,267.0,330.5,259.0,337.0,251.5,344.5,243.5,352.0,235.5,359.5,227.5,367.0,219.5,375.0,211.0,382.5,203.5,390.5,195.5,397.5" stroke="black" stroke-width="2" fill="none" />
<path d="M197.0,395.0,205.0,395.0,213.0,394.0,221.5,393.5,229.5,393.0,237.5,392.0,245.0,391.0,252.0,390.0,259.5,389.5,267.0,389.5,275.0,389.0,283.5,388.5,291.0,387.5,299.5,386.5,307.5,385.0,315.0,384.5,323.0,384.5,331.0,385.0" stroke="black" stroke-width="2" fill="none" />
<path d="M250.5,354.5,243.0,354.5" stroke="black" stroke-width="2" fill="none" />
<path d="M244.0,358.5,235.5,359.0,227.5,359.0,219.0,359.0,211.0,359.5,203.0,360.0" stroke="black" stroke-width="2" fill="none" />
<path d="M204.0,354.5,211.5,353.5,219.0,353.0,226.5,352.5" stroke="black" stroke-width="2" fill="none" />
<path d="M233.5,353.5,233.5,345.5,236.5,343.5,228.0,344.0" stroke="black" stroke-width="2" fill="none" />
<path d="M211.5,338.5,219.5,337.5,227.0,337.0,235.5,336.0,244.0,335.0" stroke="black" stroke-width="2" fill="none" />
<path d="M251.5,345.5,259.5,345.5,251.0,346.5,252.0,352.0,257.5,348.0" stroke="black" stroke-width="2" fill="none" />
<path d="M258.5,329.5,257.5,328.5" stroke="black" stroke-width="2" fill="none" />
<path d="M237.0,307.5,245.0,307.0,252.5,306.5,260.0,305.5,267.5,304.5,276.0,304.0" stroke="black" stroke-width="2" fill="none" />
<path d="M277.5,301.0,285.5,304.0,293.5,300.5" stroke="black" stroke-width="2" fill="none" />
<path d="M292.0,292.5,300.0,292.0,307.5,291.5,315.5,291.0,323.0,290.5" stroke="black" stroke-width="2" fill="none" />
<path d="M282.5,299.5,274.5,306.5,267.0,314.0,259.0,321.5,251.5,328.5,243.5,336.0,236.0,343.5,228.0,351.5,219.5,359.0,211.0,365.5,202.5,373.0,195.0,381.0" stroke="black" stroke-width="2" fill="none" />
<path d="M196.5,379.0,204.5,378.5,212.5,378.0,220.5,377.5,228.0,376.5,236.0,376.5,243.5,375.5,251.5,375.0,259.5,374.5,267.5,374.0,275.5,373.5,283.5,372.5,291.0,372.0,299.5,371.0,308.0,370.0,316.5,369.0,324.5,369.0" stroke="black" stroke-width="2" fill="none" />
<path d="M282.0,305.5,274.0,313.0,266.5,321.5,258.5,329.5,251.0,337.0,243.0,344.5,235.5,352.5,227.5,360.0,219.5,367.5,211.5,375.0,203.5,383.0,195.5,390.5" stroke="black" stroke-width="2" fill="none" />
<path d="M197.5,387.5,205.5,386.5,213.5,386.0,221.5,385.0,229.0,384.0,236.5,383.5,244.5,382.0,252.0,381.5,260.0,380.5,267.5,379.5,276.0,379.0,284.0,379.0,292.0,378.5,300.0,378.5,309.0,378.5,317.5,378.5,325.5,378.5,333.0,378.0" stroke="black" stroke-width="2" fill="none" />
<path d="M277.0,291.0,269.0,298.5,260.5,306.5,252.5,314.0,244.5,322.0,236.5,330.0,228.0,337.5,219.5,345.0,211.0,352.5,203.0,359.5,194.5,366.5" stroke="black" stroke-width="2" fill="none" />
<path d="M196.5,365.5,204.5,365.0,212.0,365.5,220.0,365.0,228.0,364.5,236.5,364.0,244.0,364.0,251.0,363.5,258.5,362.5,266.0,362.0,274.0,361.5,282.0,361.0,291.0,360.5,299.5,359.5,307.5,358.5,316.5,357.5,324.0,357.0,332.0,356.0" stroke="black" stroke-width="2" fill="none" />
<path d="M277.0,283.0,268.5,291.0,261.0,299.0,253.0,307.0,244.5,315.0,236.0,322.5,228.0,329.5,220.0,336.0,212.0,343.5,203.5,350.5,195.5,358.0" stroke="black" stroke-width="2" fill="none" />
<path d="M197.0,358.5,205.0,358.0,213.0,357.0,221.0,357.0,229.0,357.0,236.5,357.0,243.5,356.5,251.0,356.0,258.5,355.5,266.5,355.0,274.5,354.0,282.5,353.5,290.5,352.5,299.0,351.5,307.5,351.0,315.5,350.0,324.5,349.0,333.0,348.5" stroke="black" stroke-width="2" fill="none" />
<path d="M268.0,285.0,276.0,277.5" stroke="black" stroke-width="2" fill="none" />
<path d="M276.5,280.5,268.5,281.0,261.0,282.0" stroke="black" stroke-width="2" fill="none" />
<path d="M268.0,284.5,277.0,295.5,284.5,297.5,292.5,297.5" stroke="black" stroke-width="2" fill="none" />
<path d="M314.0,264.5,306.0,265.0,297.5,265.5,289.5,266.0,281.5,266.0,273.5,266.0,265.5,266.0,257.5,266.5,249.5,267.0,241.5,267.5,233.5,268.0" stroke="black" stroke-width="2" fill="none" />
<path d="M228.0,276.5,220.5,284.0" stroke="black" stroke-width="2" fill="none" />
<path d="M227.0,286.0,235.5,285.5,243.5,284.5,251.5,284.0,258.5,283.5,266.5,283.0,274.5,282.5" stroke="black" stroke-width="2" fill="none" />
<path d="M283.5,290.5,275.0,291.0,266.5,292.0,258.5,292.5,250.5,292.5,242.5,292.5,235.0,293.0,227.5,293.5" stroke="black" stroke-width="2" fill="none" />
<path d="M235.5,296.5,244.0,296.0,252.0,295.5" stroke="black" stroke-width="2" fill="none" />
<path d="M237.0,287.5,245.5,279.5,253.5,272.0,261.5,264.5,270.0,257.0,278.0,249.5" stroke="black" stroke-width="2" fill="none" />
<path d="M284.0,245.0,292.5,245.0,301.0,244.0" stroke="black" stroke-width="2" fill="none" />
<path d="M292.5,248.0,298.5,256.0,297.5,255.0" stroke="black" stroke-width="2" fill="none" />
<path d="M284.5,244.0,292.0,236.0" stroke="black" stroke-width="2" fill="none" />
<path d="M284.5,234.0,293.0,226.5" stroke="black" stroke-width="2" fill="none" />
<path d="M292.5,217.5,284.0,225.0" stroke="black" stroke-width="2" fill="none" />
<path d="M280.5,231.0,287.5,231.0,290.0,243.5,300.0,254.5,308.0,266.5" stroke="black" stroke-width="2" fill="none" />
<path d="M275.5,251.0,267.5,252.0,259.5,252.5,251.5,253.5,243.5,254.0" stroke="black" stroke-width="2" fill="none" />
<path d="M244.0,248.0,251.5,240.5,259.5,232.5,267.5,225.0,275.0,217.0,283.0,209.5,291.0,202.0" stroke="black" stroke-width="2" fill="none" />
<path d="M291.5,195.0,284.0,202.5,276.0,210.0,268.5,217.5,260.5,224.5,253.0,232.0" stroke="black" stroke-width="2" fill="none" />
<path d="M252.5,234.5,260.5,234.0,268.5,233.5" stroke="black" stroke-width="2" fill="none" />
<path d="M270.0,237.0,274.0,231.5,274.5,243.5,275.5,248.0,272.0,258.0,268.5,265.0,266.0,267.5,273.5,275.5" stroke="black" stroke-width="2" fill="none" />
<path d="M269.5,265.0,277.5,267.0,291.0,267.5" stroke="black" stroke-width="2" fill="none" />
<path d="M268.5,251.5,260.5,259.0,252.0,266.5,243.5,274.0,236.0,282.5" stroke="black" stroke-width="2" fill="none" />
<path d="M235.5,283.5,244.0,284.5,240.0,287.5,214.5,294.0,221.5,304.0,215.5,314.0,215.0,316.0,212.0,319.0" stroke="black" stroke-width="2" fill="none" />
<path d="M213.5,315.5,205.5,315.5" stroke="black" stroke-width="2" fill="none" />
<path d="M203.5,317.0,212.0,309.0" stroke="black" stroke-width="2" fill="none" />
<path d="M205.0,311.5,212.5,311.0,220.5,310.0,228.0,309.0,235.5,308.0,243.0,308.0,251.0,307.0,259.5,306.5,267.5,305.5,275.0,305.0,283.5,304.5,291.0,304.0,298.5,303.5,306.5,303.5,314.5,303.5,322.5,303.0" stroke="black" stroke-width="2" fill="none" />
<path d="M267.5,258.0,259.5,258.5" stroke="black" stroke-width="2" fill="none" />
<path d="M259.5,250.0,268.0,250.0" stroke="black" stroke-width="2" fill="none" />
<path d="M276.0,228.5,268.0,235.5,260.0,243.0,252.0,250.0,244.0,257.0" stroke="black" stroke-width="2" fill="none" />
<path d="M243.0,247.5,251.0,246.5,259.0,246.0,267.5,245.0,275.5,244.0" stroke="black" stroke-width="2" fill="none" />
<path d="M283.5,218.0,291.5,211.0" stroke="black" stroke-width="2" fill="none" />
<path d="M293.5,216.5,285.0,217.5,276.5,218.5,268.0,219.5,259.5,220.0,251.5,220.5,243.0,221.5,234.5,222.0" stroke="black" stroke-width="2" fill="none" />
<path d="M235.0,222.5,242.5,215.0,251.0,208.5,259.0,201.5,267.5,194.5,275.5,187.5,283.5,181.0" stroke="black" stroke-width="2" fill="none" />
<path d="M290.5,177.0,283.0,185.0,274.5,193.0,266.5,200.5,258.5,208.0,250.5,216.0,243.0,223.5" stroke="black" stroke-width="2" fill="none" />
<path d="M242.0,224.5,250.0,227.5" stroke="black" stroke-width="2" fill="none" />
<path d="M251.0,226.0,259.0,225.5,267.0,225.5" stroke="black" stroke-width="2" fill="none" />
<path d="M269.0,216.5,277.0,217.5,275.0,217.5,277.5,225.0,283.5,236.0,286.0,244.0,283.5,252.5,283.5,260.5,282.5,269.0,291.0,271.0,277.5,272.5,280.0,275.5,287.5,273.5,294.5,274.0,298.5,273.0,302.0,264.5,305.0,271.5,301.0,271.5" stroke="black" stroke-width="2" fill="none" />
<path d="M291.5,235.0,284.0,236.0,275.5,236.5,268.0,237.0,260.5,237.5,252.5,237.5,244.0,238.0" stroke="black" stroke-width="2" fill="none" />
<path d="M234.5,230.0,242.5,229.0,250.5,228.5,259.0,227.5,267.0,227.0,275.0,226.0,283.0,226.0,291.0,226.0" stroke="black" stroke-width="2" fill="none" />
<path d="M282.5,216.0,275.0,217.0,267.5,217.5,260.5,218.0,253.0,218.5,245.0,219.0" stroke="black" stroke-width="2" fill="none" />
<path d="M251.0,224.5,259.0,216.5,267.5,209.0,276.0,201.0,284.0,193.0,292.0,185.0" stroke="black" stroke-width="2" fill="none" />
<path d="M292.5,186.5,284.5,187.5,276.5,188.0,269.0,188.5,261.0,188.5,253.0,189.0,245.5,189.0,237.5,189.0" stroke="black" stroke-width="2" fill="none" />
<path d="M236.0,187.0,240.0,185.0,238.0,193.5,240.0,195.0" stroke="black" stroke-width="2" fill="none" />
<path d="M244.5,193.0,252.0,192.5,260.5,192.0,269.0,191.5,277.5,191.0,285.0,190.5" stroke="black" stroke-width="2" fill="none" />
<path d="M286.5,195.0,287.5,187.5,290.5,187.5" stroke="black" stroke-width="2" fill="none" />
<path d="M274.5,182.0,266.5,189.0,259.0,196.5,251.0,203.5,243.0,210.5" stroke="black" stroke-width="2" fill="none" />
<path d="M245.5,210.5,253.0,210.0,261.0,209.0,268.5,208.0,276.0,207.5,283.5,206.5" stroke="black" stroke-width="2" fill="none" />
<path d="M284.5,213.5,283.5,222.5,285.5,223.5,287.5,232.0,289.0,240.0,293.5,246.5,291.5,254.5,293.0,263.0,296.0,271.0,291.0,279.0,284.0,290.0,280.0,295.0,287.5,292.0,295.0,289.0,303.0,290.0,310.5,288.0,312.5,281.0" stroke="black" stroke-width="2" fill="none" />
<path d="M292.5,209.5,285.0,209.5,276.5,210.5,268.5,211.0,260.0,212.0,252.0,213.0,243.5,214.0,235.0,214.5" stroke="black" stroke-width="2" fill="none" />
<path d="M238.0,208.5,240.0,212.5,242.0,211.5,240.0,219.0,242.0,227.0,244.0,228.5,244.0,236.5,242.0,244.5,241.0,252.0,240.0,260.0,233.0,258.5,232.0,266.5,238.0,266.0,237.0,274.0,229.5,285.0,221.5,289.0,226.5,289.0,234.5,286.0,238.5,286.5,240.5,289.5,250.5,291.5,256.5,288.5,257.5,292.0,261.0,287.0,263.0,290.0,272.0,287.5,280.0,291.0,286.5,294.0,294.5,293.5" stroke="black" stroke-width="2" fill="none" />
<path d="M324.5,308.5,316.0,309.0,307.5,309.0,299.5,309.5,292.0,310.0,284.0,311.0,276.0,311.5,268.0,312.0,259.5,312.0,251.0,312.0,243.0,312.0,234.5,311.5,226.5,312.0" stroke="black" stroke-width="2" fill="none" />
<path d="M220.0,307.5,212.5,315.0,204.5,322.5" stroke="black" stroke-width="2" fill="none" />
<path d="M204.0,324.0,212.0,323.5,220.0,322.5,227.5,321.5,235.5,321.0,243.5,320.0,251.0,319.0,258.5,318.0,266.0,316.5,274.5,315.5,282.5,315.0,290.5,314.5,299.0,315.0,307.0,315.0,315.5,315.0,324.0,315.0" stroke="black" stroke-width="2" fill="none" />
<path d="M324.0,295.5,315.5,296.0,308.0,296.0,300.0,297.0,292.0,297.5,284.0,298.5,276.0,299.5,268.0,299.5,259.5,300.0,250.5,300.5,242.0,301.0,234.0,301.0,225.5,302.0" stroke="black" stroke-width="2" fill="none" />
<path d="M219.5,302.5,211.5,303.5,203.5,304.0" stroke="black" stroke-width="2" fill="none" />
<path d="M204.0,308.5,212.0,301.0" stroke="black" stroke-width="2" fill="none" />
<path d="M213.5,300.0,221.5,301.0,221.5,298.5,229.5,297.0" stroke="black" stroke-width="2" fill="none" />
<path d="M219.0,293.0,211.5,294.0,204.0,294.5" stroke="black" stroke-width="2" fill="none" />
<path d="M200.5,292.0,208.5,283.5,217.5,282.0,220.5,278.5,227.5,275.0,236.0,273.0" stroke="black" stroke-width="2" fill="none" />
<path d="M226.5,269.5,218.5,270.5,210.5,271.0" stroke="black" stroke-width="2" fill="none" />
<path d="M210.0,278.5,218.0,278.0,227.0,277.5,235.5,276.5,243.5,275.5,252.5,274.5,260.0,274.0,268.0,273.0,276.5,273.0,284.5,272.5" stroke="black" stroke-width="2" fill="none" />
<path d="M236.0,253.5,228.5,253.5" stroke="black" stroke-width="2" fill="none" />
<path d="M229.5,246.5,237.5,246.0" stroke="black" stroke-width="2" fill="none" />
<path d="M233.5,230.0,241.5,229.0,238.5,238.5,235.0,246.0,231.0,254.0,225.5,262.0,229.0,266.0,223.5,273.0,224.0,276.0,212.0,284.0,217.5,292.5,215.0,297.5,216.5,305.5,219.5,313.5,222.0,315.0,218.5,312.5" stroke="black" stroke-width="2" fill="none" />
<path d="M220.0,307.0,228.0,304.5" stroke="black" stroke-width="2" fill="none" />
<path d="M227.0,292.0,218.5,293.0" stroke="black" stroke-width="2" fill="none" />
<path d="M216.5,296.0,224.5,295.5" stroke="black" stroke-width="2" fill="none" />
<path d="M210.0,291.5,202.5,299.0" stroke="black" stroke-width="2" fill="none" />
<path d="M209.0,301.0,209.0,308.5,211.0,301.5,214.0,287.5,220.5,286.0,228.5,282.0,236.5,282.5,244.5,286.0,249.5,281.0,258.0,284.0,265.5,282.0,274.0,285.0,281.5,285.0,289.5,284.0" stroke="black" stroke-width="2" fill="none" />
<path d="M275.0,259.5,267.0,260.5,259.0,261.0,251.0,261.0,244.0,261.0,236.5,261.5,228.5,261.5,220.5,262.5" stroke="black" stroke-width="2" fill="none" />
<path d="M225.5,261.0,233.5,249.0" stroke="black" stroke-width="2" fill="none" />
<path d="M236.0,255.5,238.5,257.5,230.5,264.0,228.5,271.0,220.0,273.5" stroke="black" stroke-width="2" fill="none" />
<path d="M219.5,276.0,211.5,283.5" stroke="black" stroke-width="2" fill="none" />
<path d="M205.5,282.0,213.5,271.0,221.0,257.5" stroke="black" stroke-width="2" fill="none" />
<path d="M221.5,284.0,213.5,284.0,205.0,284.5" stroke="black" stroke-width="2" fill="none" />
<path d="M199.0,317.0,199.0,325.0,200.5,332.0" stroke="black" stroke-width="2" fill="none" />
<path d="M198.5,332.0,198.5,340.0,200.0,347.5,203.0,360.0,195.0,368.0,203.0,359.5" stroke="black" stroke-width="2" fill="none" />
<path d="M203.0,368.5,211.5,368.0,219.5,368.0,227.5,367.5,236.0,367.5,244.5,367.0" stroke="black" stroke-width="2" fill="none" />
<path d="M259.5,326.5,251.0,327.5,243.0,328.0,235.5,329.0,227.0,329.5,218.5,330.5,210.5,331.0" stroke="black" stroke-width="2" fill="none" />
<path d="M203.0,336.5,204.0,328.0,200.0,329.5" stroke="black" stroke-width="2" fill="none" />
<path d="M194.5,332.5,202.5,332.5,211.0,332.0,219.5,331.5,227.5,331.0,235.5,330.0,243.5,330.0,251.5,329.0,259.0,328.5,267.0,328.0,274.5,327.5,282.5,327.5,291.0,327.0,299.5,327.0,308.0,326.5,315.5,325.5,324.0,325.0,332.0,324.0" stroke="black" stroke-width="2" fill="none" />
<path d="M332.5,341.5,324.0,341.5,316.0,342.0,307.0,343.0,298.5,343.0,290.0,344.0,281.0,344.5,273.0,345.0,265.0,345.5,257.0,346.0,249.5,347.0,242.5,347.5,235.0,348.0,227.5,348.0,220.0,348.0,212.5,348.5,205.0,349.0,197.5,349.0" stroke="black" stroke-width="2" fill="none" />
<path d="M196.0,343.5,204.0,342.0,211.5,341.5,219.0,340.5,227.0,339.0,234.5,338.5,243.0,338.0,251.0,337.5,259.0,337.0,266.5,336.0,274.5,336.0,282.5,335.5,290.5,335.0,299.0,335.0,307.5,335.5,316.0,335.0,324.0,334.5,332.5,334.0" stroke="black" stroke-width="2" fill="none" />
<path d="M330.5,314.5,322.0,314.5,313.5,315.0,306.0,315.5,298.5,316.0,290.5,317.0,282.5,317.5,274.5,318.5,266.5,318.5,258.0,319.0,250.0,319.5,241.5,320.0,234.0,321.0,225.5,321.5,217.0,323.5,209.0,324.5,201.0,326.0,193.0,326.5" stroke="black" stroke-width="2" fill="none" />
<path d="M193.5,316.5,201.5,315.5,210.0,315.5,218.5,315.0,226.5,315.0,234.5,314.0,242.5,313.5,250.5,313.0,258.5,313.0,266.5,312.5,274.5,312.0,283.0,311.5,291.5,311.0,300.0,310.0,308.0,309.5,315.5,309.0,323.5,308.5" stroke="black" stroke-width="2" fill="none" />
<path d="M341.0,398.0,332.5,398.5,324.0,398.5,316.0,398.5,308.0,398.5,300.0,399.0,292.0,399.0,284.5,399.0,277.0,399.5,268.5,399.5,260.5,400.5,252.5,401.0,244.0,401.0,235.5,401.5,227.5,401.5,219.5,402.5,211.0,403.0,203.5,403.5,196.0,404.0,188.0,405.0" stroke="black" stroke-width="2" fill="none" />
<path d="M187.0,397.0,195.0,396.0,202.0,396.0,209.5,396.0,217.0,396.0,225.5,396.0,233.0,395.0,241.0,394.0,249.0,393.0,257.5,392.0,265.5,391.0,273.5,390.5,281.5,390.5,290.0,390.5,298.5,390.5,306.5,390.5,314.5,390.0,323.0,390.0,330.5,389.5" stroke="black" stroke-width="2" fill="none" />
<path d="M333.0,381.5,324.5,382.5,315.5,383.0,307.5,383.5,299.0,384.0,291.0,384.0,283.0,384.0,275.5,384.0,267.5,384.5,259.5,385.0,251.5,385.5,243.0,385.5,235.0,385.5,226.5,386.0,218.5,386.5,211.0,387.0,203.0,387.5,194.5,387.5,186.5,388.0" stroke="black" stroke-width="2" fill="none" />
<path d="M187.5,382.0,196.0,381.5,203.5,380.5,211.5,380.0,220.0,380.0,228.0,379.5,236.5,379.0,244.5,378.0,253.0,377.5,261.5,378.0,269.5,377.5,277.5,377.0,285.5,376.0,293.0,375.0,300.5,374.5,308.5,373.5,316.5,373.5,324.5,373.0,332.5,372.5" stroke="black" stroke-width="2" fill="none" />
<path d="M339.0,484.0,331.0,484.5,323.5,484.5,316.0,485.0,309.0,486.0,301.5,487.0,293.5,488.0,285.5,488.5,277.0,489.0,269.0,490.0,261.0,490.0,252.5,491.0,244.0,491.0,235.5,491.0,227.0,491.5,218.5,492.0,211.0,492.5,203.0,493.0,195.0,493.5,187.0,493.5,179.0,493.5" stroke="black" stroke-width="2" fill="none" />
<path d="M178.0,487.0,186.0,486.5,194.5,486.0,203.0,485.5,211.0,484.5,219.0,484.5,227.5,484.0,236.5,484.0,245.0,483.5,253.5,483.0,261.5,482.5,269.5,481.5,277.5,481.0,285.5,480.0,293.0,479.0,300.5,478.5,308.5,477.0,316.0,476.5,324.0,475.5,331.5,474.5,340.0,474.0" stroke="black" stroke-width="2" fill="none" />
<path d="M338.5,461.0,331.0,461.5,323.0,462.0,315.0,462.5,307.5,463.0,300.0,463.0,292.0,463.5,284.0,464.5,276.5,464.5,268.5,464.5,260.0,464.5,252.0,465.5,244.0,466.0,235.5,466.0,227.5,466.0,219.5,466.0,212.0,466.5,204.0,466.5,196.0,467.0,189.0,467.5,181.0,468.0" stroke="black" stroke-width="2" fill="none" />
<path d="M186.5,487.0,194.5,495.0,193.5,496.5,196.0,500.5,186.0,504.0,184.0,509.0,186.0,510.5,190.0,514.5,190.0,522.5" stroke="black" stroke-width="2" fill="none" />
<path d="M157.5,563.5,165.5,563.0,173.5,563.0,181.5,563.5,190.0,563.5,198.5,563.0,206.0,563.0,213.5,562.5,221.5,562.0,229.0,562.0,237.0,561.5,245.0,561.0,253.0,560.0,261.0,560.0,269.0,560.0,276.5,560.0,283.5,559.5,291.0,559.0,298.5,558.5,306.5,558.0,314.5,557.0,322.5,556.5,330.5,555.5" stroke="black" stroke-width="2" fill="none" />
<path d="M340.0,545.0,331.0,546.0,322.5,546.0,314.0,547.0,305.0,547.5,297.0,548.0,289.0,548.5,281.0,549.0,273.5,550.0,266.5,550.5,259.0,551.0,251.5,551.0,244.0,551.0,236.5,551.5,229.0,552.0,221.5,552.0,213.5,553.0,205.0,553.5,197.0,554.0,189.0,553.5,181.0,554.0,173.0,554.5,164.5,555.0,156.5,556.0,148.0,556.5,140.0,557.5" stroke="black" stroke-width="2" fill="none" />
<path d="M132.0,550.5,140.0,550.5,149.0,550.5,157.0,550.0,164.5,549.5,173.0,549.0,180.5,548.5,188.5,548.0,196.5,547.5,204.5,547.0,212.0,546.5,220.0,545.0,227.5,544.5,235.0,543.5,243.0,542.0,250.5,541.5,259.0,541.0,267.0,540.5,275.0,540.0,282.5,539.0,290.5,539.0,298.5,538.5,306.5,538.0,315.0,538.0,323.5,538.5,332.0,538.0,340.0,537.5" stroke="black" stroke-width="2" fill="none" />
<path d="M340.0,527.0,332.0,528.0,323.5,528.5,316.0,529.5,307.5,530.0,299.0,530.0,290.5,530.5,282.5,530.5,275.0,531.0,267.0,531.5,259.5,532.0,251.5,533.0,243.5,533.0,235.5,534.0,227.5,534.5,219.0,535.0,210.5,535.5,202.5,535.5,194.5,536.0,186.5,537.0,179.0,537.5,172.0,538.0,165.0,539.0,157.5,539.5,149.5,540.0,142.0,540.5,134.0,541.5,125.5,542.0" stroke="black" stroke-width="2" fill="none" />
<path d="M125.0,532.5,133.0,532.0,141.0,532.0,148.5,531.5,156.5,531.5,164.5,531.0,171.5,530.0,178.0,530.0,185.5,530.0,193.0,530.0,201.0,529.5,209.0,529.0,217.0,527.5,225.0,526.5,233.5,524.5,242.0,524.0,249.5,523.0,258.0,522.5,266.0,522.0,274.5,521.5,282.5,521.5,290.5,520.5,298.5,520.0,306.5,519.0,314.0,518.5,321.5,518.0,330.0,517.5,338.5,517.5" stroke="black" stroke-width="2" fill="none" />
<path d="M263.5,256.5,271.0,253.5,271.0,245.0,267.0,239.5,273.0,235.5,270.0,230.5,272.5,222.5,269.5,214.5,269.5,214.0" stroke="black" stroke-width="2" fill="none" />
<path d="M276.5,197.5,268.5,198.5,261.0,199.5,253.0,200.5,245.5,201.0" stroke="black" stroke-width="2" fill="none" />
<path d="M243.5,201.0,252.0,194.0,260.5,187.0,269.0,180.0" stroke="black" stroke-width="2" fill="none" />
<path d="M265.0,178.5,272.5,178.0,284.0,179.5" stroke="black" stroke-width="2" fill="none" />
<path d="M266.5,184.0,258.0,185.0,249.5,185.5" stroke="black" stroke-width="2" fill="none" />
<path d="M249.5,180.5,241.5,188.0,234.0,196.0" stroke="black" stroke-width="2" fill="none" />
<path d="M236.0,198.0,244.5,197.5,252.5,197.0,261.0,196.5,269.0,196.0,276.5,195.0,284.5,194.0,292.5,193.5" stroke="black" stroke-width="2" fill="none" />
<path d="M291.5,202.5,283.5,203.5,275.5,204.0,267.5,205.0,259.5,206.0,251.5,206.5,244.5,207.5,237.0,208.0" stroke="black" stroke-width="2" fill="none" />
<path d="M235.5,203.5,243.0,196.0,250.5,188.5,258.5,181.5" stroke="black" stroke-width="2" fill="none" />
<path d="M262.0,180.0,270.0,178.0,277.5,178.0,285.5,177.5" stroke="black" stroke-width="2" fill="none" />
<path d="M292.5,178.0,284.5,178.5,276.0,178.5,267.5,179.0,259.0,179.5,250.5,179.5,242.5,179.5,234.5,179.5" stroke="black" stroke-width="2" fill="none" />
<path d="M236.0,176.5,244.0,176.5" stroke="black" stroke-width="2" fill="none" />
<path d="M243.5,179.5,235.5,187.0" stroke="black" stroke-width="2" fill="none" />
<path d="M238.0,179.5,246.0,179.0" stroke="black" stroke-width="2" fill="none" />
<path d="M235.5,172.0,243.0,172.0,251.0,171.5,259.0,171.5,267.0,171.0,275.5,171.0,283.5,171.0,291.5,171.0" stroke="black" stroke-width="2" fill="none" />
<path d="M275.5,197.0,274.5,205.0,276.0,205.0" stroke="black" stroke-width="2" fill="none" />
<path d="M232.5,175.0,240.5,172.5,249.0,171.5,257.0,172.0,264.5,172.5,272.5,172.5,280.0,173.5,288.0,174.5,293.5,180.0,292.5,188.0,291.0,196.0,289.5,204.0,289.5,207.0,289.0,215.5,288.5,223.5,290.0,231.0,292.5,239.0,295.5,247.0,299.5,255.0,304.5,263.0,309.5,271.0,309.0,279.0,310.5,282.0,316.0,284.5,319.5,292.5,322.0,300.5,323.0,308.5,324.0,316.5,325.5,323.5,322.0,331.0,328.0,341.0,329.0,349.0,328.5,356.5,329.5,364.5,327.5,372.5,330.5,372.5,331.5,380.5,332.0,388.5,332.5,396.5,332.5,404.5,333.5,412.0,334.5,420.0,335.5,428.0,336.0,436.0,336.5,444.5,336.5,453.0,338.5,461.0,338.0,469.5,339.0,474.0,339.0,482.0,338.5,489.5,338.0,498.0,337.0,505.5,338.0,513.5,336.0,521.5,337.0,529.5,334.5,537.5,333.5,545.5,330.5,553.0,325.5,561.5,319.5,569.0,315.5,577.0,304.0,585.0" stroke="black" stroke-width="2" fill="none" />
</svg>