<svg xmlns="http://www.w3.org/2000/svg" version="1.1"><polyline points="2.0,1.5,2.5,9.5,2.5,17.5,2.5,25.5,2.5,33.5,2.5,41.5,3.0,49.5,4.0,57.0,4.5,65.0,4.5,72.5,4.5,81.0,4.5,89.0,4.0,97.0,3.5,105.5,3.5,114.5,3.5,123.0,3.5,131.0,3.0,138.5,3.0,146.5,3.0,154.5,3.0,162.5,2.5,170.5,2.5,178.5,2.5,186.0,2.5,194.0,3.0,202.0,3.0,210.0,3.0,218.0,3.5,226.0,4.0,234.5,4.0,242.5,4.0,250.5,4.0,258.5,3.5,266.5,3.0,275.0,3.0,283.0,3.0,291.0,3.0,298.5,3.5,306.5,3.0,314.5,3.0,322.5,3.0,330.5,2.5,338.5,7.5,342.5,15.5,342.0,23.5,341.5,31.0,341.5,39.0,341.5,46.5,341.5,54.0,342.0,62.0,342.0,70.0,342.0,79.0,341.5,87.0,341.5,95.0,342.0,103.0,342.5,111.5,342.5,119.5,343.0,128.0,343.5,136.5,343.5,144.5,344.0,152.5,344.0,160.0,344.0,168.0,343.5,176.5,343.0,184.5,343.0,192.0,343.0,200.0,342.5,207.5,342.0,215.5,341.5,224.0,341.5,231.5,341.5,239.5,342.0,247.5,342.0,256.0,342.5,264.0,343.0,272.5,343.0,281.0,343.0,289.0,343.0,297.5,343.0,306.0,343.0,314.0,343.0,321.5,342.5,329.5,342.5,337.0,342.0,345.0,342.0,353.0,341.5,361.0,342.0,369.0,342.0,377.0,342.5,385.0,342.5,393.0,342.0,400.5,342.0,408.5,341.5,416.0,341.5,424.0,341.5,431.5,341.5,439.5,341.0,447.0,340.5,455.0,340.5,463.0,340.5,471.0,340.5,479.5,341.0,487.5,341.0,495.5,341.5,503.5,342.0,511.5,342.0" stroke="black" stroke-width="2" fill="none" />
<polyline points="308.5,258.5,300.5,266.0,292.0,273.0,284.0,281.0,276.0,289.0,268.0,296.5,260.0,304.0,252.0,311.5,244.0,318.5" stroke="black" stroke-width="2" fill="none" />
<polyline points="237.0,317.0,244.5,309.5,253.0,302.0,261.0,294.5,269.0,287.0,277.5,280.0,285.0,273.5,293.0,266.5,301.5,259.0,309.5,251.0" stroke="black" stroke-width="2" fill="none" />
<polyline points="307.0,244.0,299.0,251.5,292.0,258.5,283.5,265.5,275.5,273.0,267.0,280.5,259.5,288.0,252.0,295.0,244.5,302.5,236.5,310.0,228.5,318.0" stroke="black" stroke-width="2" fill="none" />
<polyline points="228.0,321.5,236.5,321.5,244.0,321.0,251.5,320.5,259.5,320.0,266.5,319.5,274.5,319.5,282.5,318.5" stroke="black" stroke-width="2" fill="none" />
<polyline points="275.0,322.0,283.0,314.5,291.0,307.0" stroke="black" stroke-width="2" fill="none" />
<polyline points="290.5,310.5,283.0,311.0,275.0,311.0,267.5,311.5,259.5,311.5,252.0,311.5,244.5,312.0,237.0,312.0,229.0,312.0,220.5,312.5" stroke="black" stroke-width="2" fill="none" />
<polyline points="220.0,316.0,228.0,316.0,235.5,315.5,243.5,315.0,251.5,314.5,259.5,314.5,267.5,314.0,275.0,314.0,282.5,314.0,290.5,314.0" stroke="black" stroke-width="2" fill="none" />
<polyline points="287.5,309.5,289.5,317.5,280.0,325.0" stroke="black" stroke-width="2" fill="none" />
<polyline points="258.5,330.0,266.0,322.5,273.5,314.5,282.0,307.0,290.0,300.0" stroke="black" stroke-width="2" fill="none" />
<polyline points="291.0,292.0,283.0,299.5,275.0,306.5,267.0,313.5,259.0,320.5,251.0,328.0" stroke="black" stroke-width="2" fill="none" />
<polyline points="243.0,327.5,251.5,320.0,259.5,313.0,268.0,305.5,276.0,298.0,283.5,290.5,291.5,282.5,299.0,275.5" stroke="black" stroke-width="2" fill="none" />
<polyline points="307.5,247.5,299.0,248.5,290.5,248.5,282.5,249.0" stroke="black" stroke-width="2" fill="none" />
<polyline points="283.5,244.0,291.5,243.5,299.0,243.0,306.5,242.5" stroke="black" stroke-width="2" fill="none" />
<polyline points="307.0,232.0,299.5,233.0,292.0,233.5" stroke="black" stroke-width="2" fill="none" />
<polyline points="287.0,228.5,275.5,238.5" stroke="black" stroke-width="2" fill="none" />
<polyline points="277.0,240.5,268.0,241.0" stroke="black" stroke-width="2" fill="none" />
<polyline points="266.5,234.5,274.5,233.5" stroke="black" stroke-width="2" fill="none" />
<polyline points="276.5,250.0,268.5,250.5" stroke="black" stroke-width="2" fill="none" />
<polyline points="268.0,259.5,276.0,259.0,284.5,258.5,292.5,258.0,301.0,257.0" stroke="black" stroke-width="2" fill="none" />
<polyline points="300.0,263.5,291.5,264.5,283.0,265.5,275.0,266.0,267.0,266.5" stroke="black" stroke-width="2" fill="none" />
<polyline points="260.5,262.0,252.5,262.5,244.5,262.0,237.0,262.5,228.5,262.5,220.5,262.0,212.5,262.5" stroke="black" stroke-width="2" fill="none" />
<polyline points="212.0,262.5,220.0,254.5,228.0,247.0,236.0,239.0,244.0,232.0,252.0,225.0,260.0,217.0,268.0,209.0,276.0,201.5,284.0,194.0,292.0,187.0" stroke="black" stroke-width="2" fill="none" />
<polyline points="298.0,187.5,303.0,193.0,298.0,188.0,298.0,194.0,303.0,202.0,305.5,207.5,309.5,215.5,305.5,222.5,306.0,230.5,304.5,238.5,303.5,246.5,303.0,255.0,301.0,268.0" stroke="black" stroke-width="2" fill="none" />
<polyline points="291.5,290.0,284.0,290.5,276.5,291.0,268.5,291.5,260.5,292.0,253.0,292.5,245.0,292.5,237.5,293.0,229.5,293.0,221.5,293.5" stroke="black" stroke-width="2" fill="none" />
<polyline points="219.5,292.5,227.5,285.5,235.5,277.5,243.5,270.0,251.0,262.5,259.0,254.5,266.5,247.0,274.5,239.0,283.0,231.5,291.5,224.0,300.0,216.5,308.5,210.0,316.5,202.5" stroke="black" stroke-width="2" fill="none" />
<polyline points="315.5,195.0,308.0,202.0,300.5,209.5,292.5,217.5,285.0,225.5,276.5,233.5,269.0,241.0,261.0,248.0,253.0,255.5,245.5,262.0,237.5,269.5,229.5,277.0,220.5,285.0" stroke="black" stroke-width="2" fill="none" />
<polyline points="222.5,282.5,230.5,281.5,238.0,281.0,245.5,280.5,253.0,279.5,260.5,279.0,268.0,278.5,276.5,278.0,284.0,277.5,291.5,277.5" stroke="black" stroke-width="2" fill="none" />
<polyline points="283.5,303.5,276.0,303.0,268.0,303.0,260.5,303.5,252.5,304.0,244.5,304.5,237.0,305.5,229.5,306.0" stroke="black" stroke-width="2" fill="none" />
<polyline points="226.0,312.5,241.5,318.5" stroke="black" stroke-width="2" fill="none" />
<polyline points="225.5,325.5,233.5,325.0,242.0,325.0,250.0,324.5,258.0,323.5,266.5,322.5,274.5,322.0,282.0,321.5" stroke="black" stroke-width="2" fill="none" />
<polyline points="289.5,299.0,282.0,299.5,274.5,300.0,266.5,299.5,259.0,300.0,251.5,300.0,244.0,299.5,236.5,299.5,229.0,300.5,221.0,300.5" stroke="black" stroke-width="2" fill="none" />
<polyline points="221.0,298.5,229.0,298.0,237.0,297.0,245.0,296.5,252.0,296.0,259.5,295.5,267.0,295.5,274.0,295.0,281.5,294.5" stroke="black" stroke-width="2" fill="none" />
<polyline points="291.5,284.0,284.0,285.0,276.0,285.5,268.0,286.5,260.5,287.0,253.0,287.5,245.0,287.5,237.0,288.0,229.0,289.0,221.5,289.0" stroke="black" stroke-width="2" fill="none" />
<polyline points="210.5,284.5,219.0,284.0,227.0,284.0,235.0,283.5,243.0,283.0,251.0,283.0,259.0,282.0,267.0,281.5,275.0,280.5,283.5,280.0,292.0,279.5,300.0,279.5" stroke="black" stroke-width="2" fill="none" />
<polyline points="292.0,303.5,284.0,304.0,276.0,304.5,268.0,305.0,260.0,306.0,251.5,306.5,243.0,307.5,234.5,308.0,226.5,308.5,218.0,309.0,210.0,309.0" stroke="black" stroke-width="2" fill="none" />
<polyline points="218.0,316.0,225.5,308.5,233.5,301.0,241.5,293.5,249.0,286.5,257.0,279.5,265.5,272.5,274.0,264.5,282.0,257.0,291.0,249.0,299.5,241.0,307.5,233.5,316.0,225.5" stroke="black" stroke-width="2" fill="none" />
<polyline points="316.0,220.5,308.0,227.5,300.0,234.5,291.5,242.0,283.0,249.5,274.5,257.0,266.0,264.5,258.0,272.0,250.0,279.0,241.5,286.5,233.5,294.0,225.5,301.5,217.0,309.0" stroke="black" stroke-width="2" fill="none" />
<polyline points="219.0,302.0,227.0,294.5,234.5,287.5,243.5,280.0,251.5,271.5,260.0,263.5,268.0,255.5,276.5,247.5,284.0,240.5,292.0,233.0,300.0,225.5,308.5,218.0,316.5,210.5" stroke="black" stroke-width="2" fill="none" />
<polyline points="299.5,196.5,291.5,204.0,283.0,211.5,274.5,218.5,266.5,225.0,258.5,232.0,250.0,239.0,241.5,247.0,233.0,255.0,224.5,262.5,216.5,270.5,208.5,277.5" stroke="black" stroke-width="2" fill="none" />
<polyline points="212.5,277.0,220.5,276.0,228.0,275.0,235.5,275.0,243.5,274.5,251.5,274.5,259.5,274.0,267.0,273.5,274.5,273.0,283.0,272.5,291.0,272.0,298.5,271.0" stroke="black" stroke-width="2" fill="none" />
<polyline points="299.5,268.0,291.5,268.5,283.5,269.5,275.5,269.5,267.5,270.0,260.0,270.0,252.0,270.5,244.0,270.5,236.0,271.0,228.0,271.5,219.5,271.5,211.5,272.5" stroke="black" stroke-width="2" fill="none" />
<polyline points="221.0,277.0,229.5,269.5,237.5,262.0,246.0,255.0,253.5,247.5,261.0,240.0,269.0,233.0,276.5,225.0,284.5,217.5,293.0,210.5,301.0,203.0,309.0,195.5,317.5,188.0" stroke="black" stroke-width="2" fill="none" />
<polyline points="309.0,185.5,316.5,178.0" stroke="black" stroke-width="2" fill="none" />
<polyline points="316.0,171.5,308.5,178.5" stroke="black" stroke-width="2" fill="none" />
<polyline points="299.0,171.0,307.0,163.0" stroke="black" stroke-width="2" fill="none" />
<polyline points="308.0,156.5,300.0,164.0" stroke="black" stroke-width="2" fill="none" />
<polyline points="299.5,154.5,307.5,146.5" stroke="black" stroke-width="2" fill="none" />
<polyline points="304.5,143.5,304.5,151.5,307.5,160.5,311.0,168.5,305.0,171.5,314.0,178.0,307.0,178.0,303.0,186.0,311.0,190.0,314.0,192.0,315.5,196.0,315.0,204.0,313.0,212.5,316.0,218.5,314.5,226.5,309.0,227.5,310.0,234.5,309.5,242.5,303.5,260.5,302.0,267.0,297.0,270.0,300.0,273.0,297.0,280.0,293.0,288.0,289.5,296.5,286.0,304.5,279.5,311.5,275.5,313.5,283.0,308.0,288.5,296.0,296.5,280.5,300.0,261.5" stroke="black" stroke-width="2" fill="none" />
<polyline points="300.5,263.5,293.0,264.5,285.5,265.0,277.5,265.0,268.5,266.0,260.0,266.0,252.0,266.5,243.5,267.5,234.5,268.0,225.5,268.0,217.0,269.0,209.0,270.0,201.0,270.5" stroke="black" stroke-width="2" fill="none" />
<polyline points="202.5,261.5,210.5,261.0,219.0,261.0,227.5,260.5,236.0,260.0,244.5,260.0,252.5,259.5,260.5,259.0,268.5,259.0,276.0,258.5,284.0,257.5,292.0,257.0,300.0,256.5,308.0,256.0" stroke="black" stroke-width="2" fill="none" />
<polyline points="306.0,248.5,298.0,248.5,290.5,249.0,283.0,249.5,275.0,250.5,267.5,251.0,260.0,251.5,252.0,251.5,244.0,251.0,236.0,251.5,228.5,252.0,220.5,252.5,212.5,253.0,204.5,253.5" stroke="black" stroke-width="2" fill="none" />
<polyline points="204.5,253.5,212.0,246.0,220.5,238.5,228.5,231.0,236.5,224.0,244.0,217.0,251.5,209.5,260.0,202.0,268.0,194.5,276.5,187.0,285.0,180.0,293.5,173.0" stroke="black" stroke-width="2" fill="none" />
<polyline points="293.5,181.0,285.5,188.5,277.5,196.0,269.5,203.0,261.5,210.0,253.5,217.5,245.5,225.0,237.5,232.0,229.5,239.0,222.0,246.0,213.5,253.0,206.0,261.0" stroke="black" stroke-width="2" fill="none" />
<polyline points="213.5,257.0,221.5,256.5,229.5,256.0,237.0,255.5,244.5,254.5,252.5,254.0,260.0,254.5" stroke="black" stroke-width="2" fill="none" />
<polyline points="259.0,242.0,251.5,242.5" stroke="black" stroke-width="2" fill="none" />
<polyline points="256.0,238.0,260.0,241.0,259.5,250.0,261.5,255.0" stroke="black" stroke-width="2" fill="none" />
<polyline points="259.0,246.5,251.0,246.5,243.0,246.5,235.0,247.5,227.5,248.0,219.5,248.5,211.5,249.0,203.5,249.5" stroke="black" stroke-width="2" fill="none" />
<polyline points="202.0,246.0,210.5,238.5,218.5,231.0,226.5,223.5,234.5,215.5,242.5,208.0,250.5,201.0,258.5,194.0,266.5,186.5,274.0,179.0,282.5,171.0" stroke="black" stroke-width="2" fill="none" />
<polyline points="282.0,163.5,274.5,171.0,267.0,178.0,259.5,185.0,251.5,192.0,243.0,200.0,235.0,207.0,226.5,214.5,218.0,222.0,210.5,228.5,202.5,236.0" stroke="black" stroke-width="2" fill="none" />
<polyline points="204.0,233.0,212.0,232.0,220.5,231.5,228.5,231.0,236.0,230.5,244.0,230.0,252.5,230.0,260.5,229.5" stroke="black" stroke-width="2" fill="none" />
<polyline points="251.0,224.5,259.5,223.5,267.0,223.0,274.5,222.5,282.5,222.0" stroke="black" stroke-width="2" fill="none" />
<polyline points="290.5,219.5,284.5,226.5,276.0,234.5,280.0,230.5,289.0,218.5,297.0,210.5,297.0,221.0" stroke="black" stroke-width="2" fill="none" />
<polyline points="291.5,194.5,283.5,202.0,275.5,210.0,267.5,218.0,259.5,225.5,251.0,233.5,243.5,241.0,236.0,248.0,228.5,255.5,220.5,263.0,212.5,271.0" stroke="black" stroke-width="2" fill="none" />
<polyline points="196.0,244.5,204.0,244.0,213.0,243.0,221.5,242.5,229.5,242.0,237.5,241.5,245.0,241.5,253.0,241.0,260.5,241.5,269.0,242.0,277.0,241.5,285.0,241.0,293.0,240.0,301.0,239.5,308.0,239.0,315.5,238.5" stroke="black" stroke-width="2" fill="none" />
<polyline points="292.0,214.0,283.5,215.0,275.0,215.5,267.0,216.5,259.0,217.5,251.0,218.0" stroke="black" stroke-width="2" fill="none" />
<polyline points="246.0,214.5,253.5,224.5,261.5,219.0" stroke="black" stroke-width="2" fill="none" />
<polyline points="243.5,212.0,251.5,211.5,260.0,210.5,268.0,209.5,275.0,208.5,283.0,207.5,291.0,207.0" stroke="black" stroke-width="2" fill="none" />
<polyline points="259.5,185.0,251.5,185.5" stroke="black" stroke-width="2" fill="none" />
<polyline points="250.0,178.5,258.0,178.0" stroke="black" stroke-width="2" fill="none" />
<polyline points="261.5,172.5,262.5,180.0,271.5,180.0,272.5,176.5,278.0,181.5,286.5,177.5" stroke="black" stroke-width="2" fill="none" />
<polyline points="276.0,191.5,267.5,191.5,259.5,191.5,251.5,191.5,244.0,192.5" stroke="black" stroke-width="2" fill="none" />
<polyline points="245.0,202.5,252.5,202.0,260.5,201.0,268.5,200.5,276.0,199.5,284.0,199.0,291.5,198.5" stroke="black" stroke-width="2" fill="none" />
<polyline points="266.0,169.0,258.0,169.5,250.0,169.5" stroke="black" stroke-width="2" fill="none" />
<polyline points="259.0,163.0,267.0,162.5" stroke="black" stroke-width="2" fill="none" />
<polyline points="271.5,163.0,279.0,162.0" stroke="black" stroke-width="2" fill="none" />
<polyline points="271.0,154.5,279.0,154.5,285.5,157.5,287.5,165.5,291.0,173.0,285.5,178.0,282.5,183.0,287.5,187.0,280.5,191.0" stroke="black" stroke-width="2" fill="none" />
<polyline points="297.0,179.0,291.0,190.0,276.5,191.5,274.0,189.5,270.0,177.5,270.5,170.5,271.0,162.5,280.0,154.5,284.0,146.5,287.5,139.0,293.5,130.0,296.5,127.5,290.0,123.5,289.0,115.5,279.0,115.5,280.5,107.5,286.5,99.0,279.5,88.0" stroke="black" stroke-width="2" fill="none" />
<polyline points="284.0,90.5,276.0,98.0,267.5,106.0,259.5,113.0,251.0,120.0,243.0,127.5,235.0,135.0,227.0,143.0,219.5,150.5,212.0,158.5,204.5,165.5,196.5,173.0" stroke="black" stroke-width="2" fill="none" />
<polyline points="196.5,175.0,204.0,174.5,212.0,173.5,220.0,173.0,228.5,172.0,237.0,171.0,244.5,170.5,252.0,169.5,260.0,169.0,268.0,168.0,276.0,167.5,284.5,167.0,292.5,167.5,300.0,167.0,308.0,167.0,316.0,166.5" stroke="black" stroke-width="2" fill="none" />
<polyline points="300.0,149.0,292.0,156.5" stroke="black" stroke-width="2" fill="none" />
<polyline points="282.0,142.0,290.5,141.5,298.5,141.0,306.5,141.0" stroke="black" stroke-width="2" fill="none" />
<polyline points="301.5,141.0,293.5,148.5,285.0,156.0,276.5,164.0,268.0,172.0,259.0,179.5,251.0,186.5,242.5,193.5,234.0,201.0,225.5,208.5,217.0,216.5,209.0,223.5,202.0,230.5,194.0,237.5" stroke="black" stroke-width="2" fill="none" />
<polyline points="197.0,236.5,204.5,236.0,212.0,235.5,220.0,235.5,228.0,235.0,236.5,235.0,244.5,234.5,253.0,234.0,261.0,233.0,269.5,233.0,277.5,232.5,285.5,232.0,293.5,232.0,301.0,231.5,309.0,231.5,316.5,231.0" stroke="black" stroke-width="2" fill="none" />
<polyline points="316.5,222.0,309.0,222.5,301.0,222.5,293.0,223.0,285.0,224.0,277.5,224.0,269.0,224.5,261.0,225.0,253.0,226.0,245.0,227.0,236.5,228.0,227.5,228.0,219.0,228.5,210.5,228.5,202.5,229.0,195.0,230.0" stroke="black" stroke-width="2" fill="none" />
<polyline points="196.5,230.0,204.5,222.0,212.5,214.0,220.0,206.5,228.0,199.5,235.5,192.0,243.5,184.5,252.0,177.0,260.5,169.5,268.0,162.0,276.0,154.5,284.0,146.5,292.0,139.0,300.0,131.0" stroke="black" stroke-width="2" fill="none" />
<polyline points="300.0,123.0,292.0,130.5,284.0,138.0" stroke="black" stroke-width="2" fill="none" />
<polyline points="281.5,133.5,289.5,133.0,298.0,133.0" stroke="black" stroke-width="2" fill="none" />
<polyline points="291.0,123.5,283.5,131.5" stroke="black" stroke-width="2" fill="none" />
<polyline points="281.0,126.5,289.0,130.5,296.5,131.5" stroke="black" stroke-width="2" fill="none" />
<polyline points="284.5,122.5,292.5,115.0" stroke="black" stroke-width="2" fill="none" />
<polyline points="289.5,112.5,298.0,124.5,306.0,140.5" stroke="black" stroke-width="2" fill="none" />
<polyline points="298.5,120.0,290.5,120.0,283.0,120.5,275.5,121.0,267.5,121.5,260.0,122.0,252.0,122.5,244.0,123.0,235.5,124.0,227.0,124.5,219.5,124.5,211.5,125.0" stroke="black" stroke-width="2" fill="none" />
<polyline points="212.5,126.0,220.5,121.5,228.5,119.5,238.5,126.5,231.5,127.5,234.5,129.5,230.5,138.5,227.5,140.5,222.5,152.0,219.5,152.0,232.5,152.0,239.0,156.0,244.0,139.0,252.0,130.0,256.5,128.0,250.5,135.0,240.0,141.5,240.0,149.5,230.0,154.0,228.0,162.0,219.5,165.5,214.5,170.0,217.0,175.0,211.5,176.0,218.5,176.5,226.5,169.5" stroke="black" stroke-width="2" fill="none" />
<polyline points="228.5,161.0,220.5,161.5" stroke="black" stroke-width="2" fill="none" />
<polyline points="219.5,169.0,211.5,169.0" stroke="black" stroke-width="2" fill="none" />
<polyline points="213.5,175.5,221.5,175.0,229.0,175.0,236.5,175.0" stroke="black" stroke-width="2" fill="none" />
<polyline points="237.5,191.0,229.5,191.5,221.5,191.5,213.5,191.5,205.0,192.0" stroke="black" stroke-width="2" fill="none" />
<polyline points="205.0,184.5,213.0,184.0,221.0,184.0,228.5,183.5,236.0,183.0" stroke="black" stroke-width="2" fill="none" />
<polyline points="234.5,198.5,227.0,199.0,218.5,199.5,210.5,200.0,203.5,200.5,195.5,201.5" stroke="black" stroke-width="2" fill="none" />
<polyline points="195.5,196.5,204.0,188.5,212.0,181.5,220.0,175.0,227.5,167.5,235.0,160.0,242.5,152.0,250.5,144.5,258.5,137.5,266.0,130.0,274.0,122.5,282.0,115.5" stroke="black" stroke-width="2" fill="none" />
<polyline points="282.0,114.0,273.5,114.0,265.0,114.0,257.5,114.5" stroke="black" stroke-width="2" fill="none" />
<polyline points="252.0,113.0,244.0,113.5,236.0,114.0,228.0,114.5" stroke="black" stroke-width="2" fill="none" />
<polyline points="229.0,120.5,237.0,113.0,245.0,106.0,253.0,99.0,260.5,91.5,268.5,84.0" stroke="black" stroke-width="2" fill="none" />
<polyline points="268.0,77.0,260.5,84.0,252.5,91.5,244.5,99.0,236.5,106.5,228.5,114.5,220.5,121.0,212.0,128.0" stroke="black" stroke-width="2" fill="none" />
<polyline points="210.5,131.0,218.5,130.0" stroke="black" stroke-width="2" fill="none" />
<polyline points="219.0,131.5,211.0,139.5,203.0,147.0" stroke="black" stroke-width="2" fill="none" />
<polyline points="203.0,144.0,203.0,147.0,203.0,155.5,196.5,163.5,206.5,159.0,214.5,157.5,222.0,163.5,230.5,162.0,238.0,161.0,247.0,165.0,254.0,154.5,260.0,138.0,267.0,132.0" stroke="black" stroke-width="2" fill="none" />
<polyline points="266.5,133.5,266.0,141.5,273.0,144.5" stroke="black" stroke-width="2" fill="none" />
<polyline points="275.5,147.5,267.5,155.0,260.0,162.0,252.5,169.0,245.0,176.5,237.5,184.0,229.5,191.0,221.0,199.0,213.0,207.0,205.0,215.0,197.5,223.0" stroke="black" stroke-width="2" fill="none" />
<polyline points="196.5,225.0,204.0,225.0,212.0,225.0,220.0,224.5,228.0,223.5,236.5,223.5,244.5,223.0" stroke="black" stroke-width="2" fill="none" />
<polyline points="243.5,239.0,235.5,239.5,227.5,240.5,219.5,240.5,211.0,241.0,202.5,241.0" stroke="black" stroke-width="2" fill="none" />
<polyline points="196.0,220.5,204.0,220.0,212.5,219.5,220.5,219.5,229.0,220.0,237.0,220.0,245.0,220.0,253.0,219.5,261.0,218.5,268.5,217.0,276.5,216.5,284.5,216.0,293.0,216.0,300.5,216.0,308.0,215.5,315.5,215.0" stroke="black" stroke-width="2" fill="none" />
<polyline points="315.5,205.0,307.5,205.5,299.5,205.5,291.5,206.0,284.0,206.0,276.5,207.0,268.5,208.0,260.5,208.5,252.0,208.5,244.0,209.0,236.0,209.5,228.0,210.0,220.5,211.5,213.0,212.5,205.5,213.5,198.0,214.5,190.0,214.5" stroke="black" stroke-width="2" fill="none" />
<polyline points="195.0,216.5,203.0,216.0,211.0,215.5,219.0,215.5,227.5,215.0,235.5,214.5,244.0,214.0" stroke="black" stroke-width="2" fill="none" />
<polyline points="233.5,206.5,225.5,207.0,217.5,207.0,209.5,207.5,201.0,208.0,193.0,208.5" stroke="black" stroke-width="2" fill="none" />
<polyline points="196.5,205.5,204.0,197.5,212.0,190.0,220.0,182.5,228.0,175.5,235.5,168.5,243.5,161.5,251.5,154.0,259.5,146.5,268.0,139.0" stroke="black" stroke-width="2" fill="none" />
<polyline points="265.0,141.0,268.0,148.0,274.0,147.0,282.5,148.0,288.5,149.5,296.5,151.5,294.5,154.5,290.0,155.5,286.5,164.5,292.5,158.0" stroke="black" stroke-width="2" fill="none" />
<polyline points="266.5,148.5,258.5,155.5,250.0,163.0,242.5,170.0,235.0,177.0,227.5,184.0,220.0,191.5,212.0,199.5,204.5,207.0,196.5,214.5" stroke="black" stroke-width="2" fill="none" />
<polyline points="188.5,206.5,196.5,206.0,204.0,205.0,212.0,204.0,220.5,203.0,228.5,202.0,236.5,201.5,244.0,201.0,252.0,200.5,259.5,200.0,267.5,199.5,275.5,198.5,284.0,198.5,292.0,198.0,300.0,197.5,308.0,197.5,316.0,197.0" stroke="black" stroke-width="2" fill="none" />
<polyline points="314.5,158.5,306.5,159.0,298.5,159.0,290.0,159.0,282.0,159.0,274.0,159.0,266.5,160.0,258.5,161.0,251.0,161.5,243.0,162.0,235.0,162.5,227.5,163.0,220.0,163.5,212.0,163.5,204.0,164.0,196.0,164.5" stroke="black" stroke-width="2" fill="none" />
<polyline points="196.5,165.0,204.5,157.5,212.0,150.0,219.5,142.5,227.5,135.0,235.5,128.0,244.0,121.0,252.0,114.0,259.5,106.5,267.0,99.0,275.0,91.5,283.0,84.0" stroke="black" stroke-width="2" fill="none" />
<polyline points="285.0,74.0,277.0,82.0,268.5,89.5,260.5,97.0,252.5,104.5,244.5,111.5,236.5,119.0,228.5,127.0,220.5,135.0,211.5,142.5,203.5,150.0,196.0,157.0" stroke="black" stroke-width="2" fill="none" />
<polyline points="194.0,157.0,202.0,156.5,211.0,156.0,219.0,155.0,227.0,154.0,234.0,153.5,242.5,153.5,250.5,153.5,258.0,153.5,266.0,153.0,274.0,152.0,282.0,152.0,290.5,151.5,298.5,151.0,307.0,150.5,315.5,149.5" stroke="black" stroke-width="2" fill="none" />
<polyline points="276.5,136.0,268.5,136.5,260.5,137.0,252.0,137.0,244.5,137.5,236.5,138.5,228.5,139.5,220.0,141.0,212.0,141.5,204.5,142.5" stroke="black" stroke-width="2" fill="none" />
<polyline points="203.5,134.0,212.0,133.5,220.5,133.0,228.5,132.5,237.0,132.0,245.5,131.5,253.5,131.0,261.5,130.5,269.0,129.5,277.0,128.5" stroke="black" stroke-width="2" fill="none" />
<polyline points="280.5,125.0,284.5,138.0,292.5,139.0,295.5,141.5,303.5,150.5" stroke="black" stroke-width="2" fill="none" />
<polyline points="283.5,119.0,275.5,119.5,267.5,120.0,260.0,121.0,252.0,121.5,243.5,122.0,235.5,122.5" stroke="black" stroke-width="2" fill="none" />
<polyline points="229.0,120.5,221.0,121.0" stroke="black" stroke-width="2" fill="none" />
<polyline points="222.0,125.0,225.0,133.0,216.5,141.0,220.5,128.0,227.5,123.0,239.5,124.5,248.0,124.5" stroke="black" stroke-width="2" fill="none" />
<polyline points="244.5,129.5,243.5,137.5,244.0,146.5" stroke="black" stroke-width="2" fill="none" />
<polyline points="244.0,152.5,252.0,152.5" stroke="black" stroke-width="2" fill="none" />
<polyline points="252.0,146.5,259.5,145.5" stroke="black" stroke-width="2" fill="none" />
<polyline points="262.0,149.5,262.0,152.5,252.5,157.0,247.5,165.0" stroke="black" stroke-width="2" fill="none" />
<polyline points="258.5,156.5,262.0,158.5,264.5,167.0,259.5,175.0,259.5,183.5,262.5,188.5" stroke="black" stroke-width="2" fill="none" />
<polyline points="265.5,168.0,266.5,176.0,269.5,184.5,267.5,198.5,262.5,212.0,259.5,220.5,256.5,226.5,257.0,233.5,258.0,241.5,258.5,249.5,259.0,257.5,258.0,267.5,262.5,269.5,259.5,277.5,260.0,273.0" stroke="black" stroke-width="2" fill="none" />
<polyline points="279.0,253.0,283.0,243.0" stroke="black" stroke-width="2" fill="none" />
<polyline points="298.0,228.5,285.5,229.5,290.5,231.0,296.0,224.0,300.5,217.5,295.5,214.5,295.0,204.5,291.5,196.5,295.0,192.0,296.0,184.0,299.0,177.0,299.0,168.0,291.0,165.0,295.5,162.5,297.5,154.5,297.0,147.5,296.0,143.5,293.5,135.5,290.0,128.5,286.0,122.5,278.0,120.0,269.5,122.0" stroke="black" stroke-width="2" fill="none" />
<polyline points="265.5,131.0,257.0,132.0" stroke="black" stroke-width="2" fill="none" />
<polyline points="254.0,133.5,245.5,138.5" stroke="black" stroke-width="2" fill="none" />
<polyline points="236.0,144.0,228.0,148.0" stroke="black" stroke-width="2" fill="none" />
<polyline points="220.5,142.0,228.5,141.0,228.0,132.5,242.0,131.5" stroke="black" stroke-width="2" fill="none" />
<polyline points="213.5,132.0,222.0,127.0,218.0,128.0,215.0,138.5,219.0,147.0,216.0,155.0,212.5,159.0,208.5,167.5,207.0,167.5,199.5,176.5,200.0,183.5,201.0,191.5,200.0,199.5,195.5,211.5" stroke="black" stroke-width="2" fill="none" />
<polyline points="189.0,198.0,197.0,197.0,204.0,196.5,212.0,196.0,220.0,196.0,228.0,195.0,236.0,194.0,244.0,193.0,252.5,192.0,260.5,190.5,268.5,189.5,276.5,189.0,284.5,189.5,293.0,189.5,300.5,189.0,308.5,189.5,316.5,189.0" stroke="black" stroke-width="2" fill="none" />
<polyline points="307.0,142.0,299.0,142.5,291.0,143.0,283.0,143.0,274.5,143.5,267.0,143.5,259.0,144.0,251.0,144.5,243.0,145.5,235.0,146.5,227.0,146.5,219.5,147.0,211.5,147.5,203.5,148.5,195.5,149.0" stroke="black" stroke-width="2" fill="none" />
<polyline points="195.0,154.5,203.0,134.5,211.0,116.5" stroke="black" stroke-width="2" fill="none" />
<polyline points="212.5,117.0,220.5,116.5,228.5,115.5,236.5,114.5,243.5,113.5,251.0,113.0,259.0,113.0,266.5,113.0,274.5,113.0,282.0,113.0,289.5,112.5" stroke="black" stroke-width="2" fill="none" />
<polyline points="292.5,99.5,284.0,107.5,276.0,115.0,267.5,122.5,258.5,129.5,250.0,137.0,242.0,145.0,234.0,153.0,225.5,160.5,217.5,168.0,209.5,175.5,201.5,183.0,194.0,189.5" stroke="black" stroke-width="2" fill="none" />
<polyline points="187.5,190.5,195.5,189.5,203.5,189.0,211.5,188.5,219.0,187.5,226.5,187.0,235.5,186.5,244.0,186.0,252.5,185.0,261.5,184.5,269.5,184.0,277.5,183.5,285.5,183.0,293.0,182.5,300.5,181.5,308.5,181.0,316.0,181.5" stroke="black" stroke-width="2" fill="none" />
<polyline points="290.0,105.5,281.5,106.0,273.5,107.0,266.0,107.5,258.5,108.0,250.5,108.0,242.5,108.0,234.5,108.0,227.0,108.5,219.0,109.0" stroke="black" stroke-width="2" fill="none" />
<polyline points="220.0,104.5,227.5,96.5,235.5,89.0,243.0,81.5,251.0,74.0,258.5,67.0,267.0,60.0" stroke="black" stroke-width="2" fill="none" />
<polyline points="267.0,67.0,258.5,75.0,250.0,83.0,242.0,91.0,234.0,99.0,226.0,106.0,218.5,114.0,211.0,120.5" stroke="black" stroke-width="2" fill="none" />
<polyline points="211.0,101.0,219.0,100.0,227.5,99.5,235.5,98.5,244.0,98.0,252.5,98.0,260.5,97.5,268.5,97.5,276.5,97.0,284.5,97.0,292.0,96.5" stroke="black" stroke-width="2" fill="none" />
<polyline points="282.0,98.0,274.0,105.0,266.5,112.5,258.5,120.5,251.0,128.5,243.5,136.0,236.0,144.0,228.0,151.5,220.0,159.5,212.0,168.0,204.0,175.5,196.0,182.5" stroke="black" stroke-width="2" fill="none" />
<polyline points="186.0,180.5,194.0,179.5,202.5,179.5,210.5,179.5,218.5,178.5,226.5,178.0,235.5,177.5,245.0,176.5,253.5,175.5,261.5,175.0,269.5,174.5,277.5,174.0,285.0,174.0,292.5,174.0,300.5,175.0,308.0,175.0,316.0,174.5" stroke="black" stroke-width="2" fill="none" />
<polyline points="258.0,226.5,247.0,224.0,245.5,219.0,242.0,212.5,243.0,204.0,244.0,195.5,243.5,192.5,236.5,200.0" stroke="black" stroke-width="2" fill="none" />
<polyline points="226.0,165.0,235.0,158.5,233.0,158.5,233.0,155.0,229.0,159.0" stroke="black" stroke-width="2" fill="none" />
<polyline points="228.5,97.0,236.5,87.5,234.5,88.5,240.5,97.0" stroke="black" stroke-width="2" fill="none" />
<polyline points="250.5,99.5,247.5,94.5,250.5,86.5" stroke="black" stroke-width="2" fill="none" />
<polyline points="249.5,84.0,245.0,84.0,243.5,91.5,239.0,99.5,242.5,102.0" stroke="black" stroke-width="2" fill="none" />
<polyline points="260.5,100.5,268.5,101.5" stroke="black" stroke-width="2" fill="none" />
<polyline points="259.0,80.0,250.5,80.0,243.0,81.0" stroke="black" stroke-width="2" fill="none" />
<polyline points="243.5,73.5,251.5,73.0,259.0,73.0" stroke="black" stroke-width="2" fill="none" />
<polyline points="259.5,68.0,259.5,76.0,273.5,83.0" stroke="black" stroke-width="2" fill="none" />
<polyline points="284.0,83.5,276.0,83.5,268.0,83.5,260.0,83.5,252.0,84.0,244.0,84.0,236.5,84.5,228.5,84.0,220.0,84.5" stroke="black" stroke-width="2" fill="none" />
<polyline points="221.0,91.0,228.5,73.0" stroke="black" stroke-width="2" fill="none" />
<polyline points="226.5,72.5,234.0,65.5,242.0,58.5,250.5,50.5,258.5,43.0,267.0,35.5" stroke="black" stroke-width="2" fill="none" />
<polyline points="262.5,35.0,265.5,41.0,270.5,46.0,264.5,52.5,265.0,58.5,265.0,63.5" stroke="black" stroke-width="2" fill="none" />
<polyline points="260.5,66.0,252.5,66.5,244.0,67.0" stroke="black" stroke-width="2" fill="none" />
<polyline points="244.5,64.0,236.5,66.0" stroke="black" stroke-width="2" fill="none" />
<polyline points="227.0,66.5,235.5,58.5,244.0,51.0,252.5,43.0,261.5,35.5,269.0,28.0" stroke="black" stroke-width="2" fill="none" />
<polyline points="274.0,28.0,266.0,28.0,258.5,28.0,250.5,28.5,242.5,29.0,234.5,29.0" stroke="black" stroke-width="2" fill="none" />
<polyline points="232.0,27.5,228.0,35.5,228.0,43.5,227.0,51.5,226.0,59.0,223.5,67.0,222.0,75.0,220.5,83.0,216.0,91.0,214.5,99.0,214.5,107.0,213.5,115.0,209.5,122.5,206.0,130.5,202.0,138.5,197.5,146.5,194.5,155.0,192.0,163.0,190.0,171.5,189.0,180.0,188.0,188.0,188.0,196.0,188.0,204.0,188.0,212.0,188.5,220.0,189.0,228.0,191.5,235.5,193.5,243.5,195.5,251.0,199.0,259.0,202.0,267.0,204.5,275.0,207.5,283.0,211.5,291.5,215.0,299.0,216.5,307.0,214.5,315.5,217.5,323.5,232.5,331.5" stroke="black" stroke-width="2" fill="none" />
<polyline points="241.0,315.5,233.0,313.5,225.0,312.5" stroke="black" stroke-width="2" fill="none" />
<polyline points="218.0,320.0,226.0,326.0,234.0,329.0,242.0,331.0,250.0,331.0,258.0,331.0,265.5,330.0,274.0,328.5,281.5,325.5" stroke="black" stroke-width="2" fill="none" />
<polyline points="220.0,96.0,227.5,88.5,235.0,81.5,242.5,74.0,250.5,67.0,258.5,59.5,266.5,52.0" stroke="black" stroke-width="2" fill="none" />
<polyline points="259.0,58.0,251.0,58.5,243.0,59.0" stroke="black" stroke-width="2" fill="none" />
<polyline points="243.0,50.5,251.0,50.0,258.5,49.0" stroke="black" stroke-width="2" fill="none" />
<polyline points="258.5,39.5,250.5,40.5,242.5,40.5,234.5,41.0" stroke="black" stroke-width="2" fill="none" />
<polyline points="233.5,43.5,241.0,36.0,249.0,28.5" stroke="black" stroke-width="2" fill="none" />
<polyline points="241.0,29.5,249.0,29.0,251.5,31.5,261.5,29.5,269.5,29.5" stroke="black" stroke-width="2" fill="none" />
<polyline points="276.0,33.0,268.0,34.0,259.5,34.0,251.0,34.5,243.0,35.0,235.5,35.5,227.5,36.0" stroke="black" stroke-width="2" fill="none" />
<polyline points="229.0,31.5,237.0,25.5,245.0,25.5,252.5,25.0,260.0,25.0,268.0,24.5,269.5,28.0,267.5,36.5,261.5,38.0,257.0,46.0,259.5,54.0,260.0,62.0,261.0,70.5,261.5,78.5,264.5,91.0,266.5,99.0,270.5,109.0,269.5,120.5,267.5,129.0,263.0,137.0,260.5,145.0,256.0,149.0,248.0,151.0,245.0,158.5,241.5,167.0,233.5,170.0,234.0,178.0,240.0,179.0,234.0,187.0,238.5,190.0,234.5,194.0,235.5,202.0,238.5,210.0,241.5,218.0,246.5,226.0,246.0,232.0,249.0,235.0,245.0,243.0,250.0,237.5,248.5,245.5,249.0,250.5,246.5,258.5,248.5,265.5,251.0,279.5,249.0,287.5,251.0,288.5" stroke="black" stroke-width="2" fill="none" />
<polyline points="214.0,291.5,209.5,270.5,206.5,262.0,203.5,260.5,202.5,247.5,197.0,241.5,200.0,233.5,194.0,226.5,193.5,217.5,192.0,207.5,195.0,199.0,194.0,191.0,195.0,183.0,194.5,174.5,201.0,168.5,202.0,161.5,206.0,159.5,210.0,154.5,208.5,146.0,211.0,138.0,212.0,130.0,215.0,122.0,219.5,116.0,218.5,109.0,218.5,99.5,230.5,92.5,232.0,84.5,233.0,80.5,237.0,82.5,238.0,74.5,235.5,71.0,227.5,71.0,230.5,62.5,232.5,53.5,234.0,45.0,238.5,42.0,235.5,38.0" stroke="black" stroke-width="2" fill="none" />
<polyline points="228.0,45.5,235.5,44.5,243.0,44.0,251.5,43.5,260.0,43.5,268.5,43.0,276.5,43.0" stroke="black" stroke-width="2" fill="none" />
<polyline points="274.0,35.5,275.0,43.0,275.5,51.0,276.5,59.0,277.5,67.5,272.5,66.0,268.5,74.0,269.5,77.5,268.5,85.0,274.5,94.5,283.5,103.0,284.5,92.5" stroke="black" stroke-width="2" fill="none" />
<polyline points="291.5,90.0,283.5,91.0,275.5,91.5,267.5,92.0,259.5,92.0,251.5,92.5,244.0,92.5,236.0,92.5,228.0,93.0,220.5,93.0" stroke="black" stroke-width="2" fill="none" />
<polyline points="220.5,93.0,219.5,89.5,212.5,93.5,221.0,75.0" stroke="black" stroke-width="2" fill="none" />
<polyline points="218.0,76.0,226.0,76.0,234.0,76.0,242.5,76.0,250.5,76.0,258.5,75.5,267.0,75.5,275.5,75.0,284.0,74.5" stroke="black" stroke-width="2" fill="none" />
<polyline points="282.0,67.0,273.5,67.5,265.5,68.0,257.5,69.0,250.0,69.5,242.0,69.5,234.5,70.0,227.0,70.5" stroke="black" stroke-width="2" fill="none" />
<polyline points="226.5,63.0,234.5,62.5,243.0,62.0,251.5,61.5,259.5,61.0,268.0,60.5,275.5,60.0,283.5,59.0" stroke="black" stroke-width="2" fill="none" />
<polyline points="275.5,51.5,268.0,52.0,260.0,52.5,252.5,53.0,244.5,53.0,236.5,53.5,229.0,54.0" stroke="black" stroke-width="2" fill="none" />
<polyline points="229.0,80.5,237.0,73.0,244.5,65.5,252.0,57.0,259.5,49.5,267.5,42.5,275.5,35.0" stroke="black" stroke-width="2" fill="none" />
<polyline points="257.5,28.5,250.0,36.0,242.5,43.5,235.0,51.0" stroke="black" stroke-width="2" fill="none" />
<polyline points="257.0,68.0,256.5,76.0,254.5,83.5,254.5,91.0,253.5,98.5,249.5,109.5,248.5,110.5,256.5,105.5,259.5,111.5" stroke="black" stroke-width="2" fill="none" />
<polyline points="275.0,99.5,275.0,91.5,274.0,85.5,278.0,76.5,278.0,68.5" stroke="black" stroke-width="2" fill="none" />
<polyline points="2.5,3.5,10.5,3.5,18.5,3.5,26.5,3.0,34.5,2.5,42.5,2.0,50.5,2.0,58.5,2.5,67.0,2.5,75.0,2.5,82.5,2.5,91.0,2.5,99.0,2.5,107.0,3.0,114.5,3.0,122.0,3.5,130.0,3.5,138.0,4.0,145.5,4.0,153.5,4.0,161.5,4.0,169.5,4.0,178.0,4.0,186.0,4.0,194.0,4.0,202.5,4.0,210.5,4.0,218.5,3.5,226.5,3.5,234.5,3.5,242.5,3.0,250.5,3.5,258.5,3.5,266.0,3.5,273.5,3.0,281.5,3.0,289.0,3.5,297.0,3.5,305.0,3.5,312.5,3.5,321.0,3.5,328.5,3.5,337.0,3.0,345.5,3.0,354.0,2.5,362.5,2.5,371.0,2.5,378.5,2.5,386.5,2.5,394.5,2.5,402.5,2.0,410.0,2.5,418.0,3.0,425.5,3.0,433.5,3.0,441.0,3.5,449.0,3.0,457.0,3.0,465.5,2.5,473.5,2.5,481.5,2.5,489.5,2.5,497.5,2.5,505.5,2.5,513.0,4.5,513.5,13.0,513.5,21.0,513.5,29.5,514.0,37.5,514.0,46.0,514.0,53.5,514.0,61.5,513.5,69.5,513.0,77.5,513.0,85.5,513.0,93.5,513.0,101.0,513.0,109.0,513.0,116.5,513.0,124.5,512.5,132.5,513.0,140.5,513.0,149.0,512.5,156.5,512.5,164.5,512.5,172.5,512.5,180.5,512.5,188.5,512.5,196.5,512.5,204.5,512.5,212.5,512.5,220.5,513.0,228.5,513.0,237.0,513.0,245.0,513.0,253.0,513.0,261.5,513.0,269.5,513.0,278.0,512.5,286.0,512.5,294.0,512.5,302.0,512.5,309.5,513.0,317.5,513.0,325.5,513.5,333.5,513.5,341.5" stroke="black" stroke-width="2" fill="none" />
</svg>