<svg xmlns="http://www.w3.org/2000/svg" version="1.1"><path d="M232.0,27.5,230.0,35.5,229.0,43.5,229.0,52.0,226.5,60.0,225.5,68.0,223.0,76.0,219.0,84.0,214.5,92.5,212.5,100.5,212.5,109.0,209.5,117.5,205.5,125.0,203.5,132.5,199.5,140.0,197.0,148.0,194.0,155.5,192.0,163.5,190.0,171.5,189.5,179.5,188.5,188.0,188.5,195.5,188.5,203.5,188.5,211.5,189.0,219.5,190.0,227.0,192.0,235.5,194.5,243.5,197.5,252.0,199.0,260.0,202.0,268.5,206.0,276.5,209.0,284.0,213.0,292.0,216.0,300.0,217.0,308.5,215.0,317.0,220.0,325.0" stroke="black" stroke-width="2" fill="none" />
<path d="M219.0,319.0,226.5,311.5,234.0,304.5,242.0,296.5,250.5,288.5,259.0,280.5,267.0,272.5,275.0,265.0,283.5,257.5,292.0,249.5,300.0,242.0,308.5,234.0,317.0,226.5" stroke="black" stroke-width="2" fill="none" />
<path d="M316.5,220.5,308.5,227.5,300.5,235.0,293.0,242.0,285.0,249.0,277.0,256.0,269.0,264.0,260.5,272.0,252.5,280.0,244.5,287.5,236.5,295.5,228.5,302.5,221.0,310.0" stroke="black" stroke-width="2" fill="none" />
<path d="M221.0,312.5,229.5,312.0,237.5,312.0,245.0,311.5,253.0,310.5,261.0,310.5,268.5,310.0,277.0,310.0,285.0,310.0,293.5,310.0" stroke="black" stroke-width="2" fill="none" />
<path d="M292.0,306.0,284.0,313.5,276.0,321.5" stroke="black" stroke-width="2" fill="none" />
<path d="M283.5,324.0,275.5,324.0,267.0,324.0,259.5,324.5,251.5,324.5,244.0,325.0,236.0,325.5,228.5,325.5" stroke="black" stroke-width="2" fill="none" />
<path d="M227.0,320.5,235.5,320.0,243.5,320.0,251.5,319.5,260.0,319.5,268.5,319.0,276.5,319.0,284.5,318.5" stroke="black" stroke-width="2" fill="none" />
<path d="M292.0,313.5,284.0,313.5,275.5,314.0,267.0,315.0,259.0,315.5,251.0,316.0,243.0,316.5,235.0,317.0,227.5,318.0,220.0,318.5" stroke="black" stroke-width="2" fill="none" />
<path d="M216.0,318.5,224.0,325.0,232.0,329.5,240.5,330.5,248.5,331.5,256.5,331.5,264.5,330.5,272.5,328.5,280.5,326.0,288.5,319.0" stroke="black" stroke-width="2" fill="none" />
<path d="M281.5,325.5,289.0,317.0,287.0,309.0" stroke="black" stroke-width="2" fill="none" />
<path d="M284.0,306.5,274.5,315.0,279.5,313.0" stroke="black" stroke-width="2" fill="none" />
<path d="M292.5,299.0,285.5,306.5,277.5,314.0,269.5,321.5,261.0,329.0" stroke="black" stroke-width="2" fill="none" />
<path d="M243.0,320.0,250.5,313.0,258.5,305.5,266.0,298.0,274.0,290.0,282.5,282.0,291.0,274.5,299.0,267.0,307.0,260.0" stroke="black" stroke-width="2" fill="none" />
<path d="M308.0,249.0,300.0,257.0,292.5,264.5,285.0,272.5,276.5,280.5,268.5,288.5,261.0,296.5,252.5,304.0,244.5,312.0,236.5,320.0" stroke="black" stroke-width="2" fill="none" />
<path d="M228.0,318.5,236.5,311.0,244.5,303.0,252.0,295.5,260.0,288.0,268.0,280.5,276.5,272.5,285.0,264.5,293.5,257.0,301.5,249.0,309.5,242.0" stroke="black" stroke-width="2" fill="none" />
<path d="M307.5,234.5,300.5,235.5,293.0,236.0" stroke="black" stroke-width="2" fill="none" />
<path d="M285.5,241.0,293.5,241.0,301.0,241.0,309.0,240.5" stroke="black" stroke-width="2" fill="none" />
<path d="M309.0,248.5,300.5,249.0,292.5,249.5,284.0,250.0" stroke="black" stroke-width="2" fill="none" />
<path d="M275.0,249.0,267.5,249.5" stroke="black" stroke-width="2" fill="none" />
<path d="M267.0,242.0,275.5,241.5" stroke="black" stroke-width="2" fill="none" />
<path d="M276.0,233.5,268.5,233.5" stroke="black" stroke-width="2" fill="none" />
<path d="M263.0,228.5,261.5,236.5,261.5,244.0" stroke="black" stroke-width="2" fill="none" />
<path d="M260.5,241.5,252.5,242.5" stroke="black" stroke-width="2" fill="none" />
<path d="M253.5,226.0,261.5,225.5,268.5,225.0,276.0,224.5,283.5,223.5" stroke="black" stroke-width="2" fill="none" />
<path d="M286.0,222.5,280.0,230.5,283.0,229.0" stroke="black" stroke-width="2" fill="none" />
<path d="M286.0,229.0,279.5,236.0" stroke="black" stroke-width="2" fill="none" />
<path d="M265.5,258.0,274.0,257.0,282.0,257.0,290.5,256.5,299.5,256.0" stroke="black" stroke-width="2" fill="none" />
<path d="M298.5,275.0,290.5,283.0,283.0,290.5,275.5,298.0,267.0,306.0,259.0,313.5,251.0,321.0,243.0,328.5" stroke="black" stroke-width="2" fill="none" />
<path d="M253.0,328.0,260.5,321.0,268.5,313.5,276.5,306.5,284.5,299.0,293.0,292.0" stroke="black" stroke-width="2" fill="none" />
<path d="M299.5,264.0,291.0,264.0,283.0,264.0,274.5,263.5,266.5,264.0" stroke="black" stroke-width="2" fill="none" />
<path d="M220.5,278.5,228.5,271.5,236.5,264.0,244.5,256.5,252.5,248.5,260.5,241.0,269.0,233.5,277.0,226.5,285.0,219.0,293.0,210.5,301.0,202.5,308.5,194.5,316.0,187.0" stroke="black" stroke-width="2" fill="none" />
<path d="M316.0,179.0,308.0,187.0" stroke="black" stroke-width="2" fill="none" />
<path d="M316.0,195.0,308.5,203.0,301.0,210.0,293.0,217.5,285.0,225.0,277.0,232.5,268.5,240.5,260.5,248.0,252.0,255.5,244.5,263.5,237.0,271.0,228.5,278.0,220.0,285.0" stroke="black" stroke-width="2" fill="none" />
<path d="M220.5,281.0,228.5,280.5,236.5,280.0,244.5,280.0,252.5,280.0,260.0,279.5,267.5,279.0,275.5,278.5,284.0,277.5,292.5,276.5" stroke="black" stroke-width="2" fill="none" />
<path d="M318.5,211.5,310.5,219.0,302.0,227.0,294.0,235.0,286.0,242.5,277.5,249.5,269.5,257.0,260.5,264.5,252.5,272.0,244.5,279.5,236.5,286.5,228.5,294.0,220.0,301.5" stroke="black" stroke-width="2" fill="none" />
<path d="M220.5,300.5,229.0,300.5,236.5,300.0,244.0,300.0,252.0,300.0,260.0,299.5,268.0,299.5,276.0,299.5,284.5,299.5,293.0,299.0" stroke="black" stroke-width="2" fill="none" />
<path d="M285.0,302.5,276.5,302.5,268.0,302.5,259.5,303.0,251.5,303.0,243.0,303.0,235.0,303.5,227.0,304.0" stroke="black" stroke-width="2" fill="none" />
<path d="M225.5,315.0,233.5,315.0,241.0,316.5" stroke="black" stroke-width="2" fill="none" />
<path d="M238.5,318.5,230.5,317.0,224.0,315.0" stroke="black" stroke-width="2" fill="none" />
<path d="M212.0,309.5,220.5,309.5,228.5,309.5,236.0,309.5,244.0,308.5,252.0,308.0,259.5,308.0,267.0,307.5,275.0,307.0,283.0,306.5,290.5,306.0" stroke="black" stroke-width="2" fill="none" />
<path d="M282.5,294.5,275.0,295.0,266.5,295.0,258.5,295.5,250.5,295.5,242.0,295.5,233.5,295.5,225.5,295.5,217.5,296.0" stroke="black" stroke-width="2" fill="none" />
<path d="M219.5,293.5,227.5,293.0,235.0,293.0,243.0,293.0,251.0,293.0,259.5,292.5,267.5,292.0,276.5,291.5,285.0,290.5,293.0,290.0" stroke="black" stroke-width="2" fill="none" />
<path d="M293.0,285.0,284.5,285.5,276.5,286.0,268.5,286.5,260.5,286.5,252.5,287.5,245.0,288.0,237.5,289.0,229.5,290.0,221.5,290.5" stroke="black" stroke-width="2" fill="none" />
<path d="M221.0,292.5,229.5,284.5,237.5,277.0,245.5,269.5,253.5,262.5,261.5,255.5,269.5,249.0,277.5,241.5,285.5,234.0,293.5,226.0,301.0,218.5,309.0,211.0,316.5,203.0" stroke="black" stroke-width="2" fill="none" />
<path d="M315.5,213.0,308.0,214.0,300.0,214.0,292.0,214.5,284.0,215.0,275.5,215.0,267.5,215.5,260.0,216.5,252.5,217.0,245.0,217.5,237.0,218.0,229.0,219.0,221.0,220.0,212.5,221.0,204.0,222.5,196.0,223.0" stroke="black" stroke-width="2" fill="none" />
<path d="M196.0,222.0,204.5,214.5,212.5,207.0,220.5,200.0,228.0,193.0,235.5,185.5,243.5,178.0,251.5,171.0,259.0,164.0,267.0,156.5,275.0,149.5" stroke="black" stroke-width="2" fill="none" />
<path d="M269.0,149.0,261.0,156.5,252.5,164.0,243.5,171.5,235.0,179.0,226.5,186.0,218.5,194.0,210.5,201.5,202.5,209.0,194.5,216.5" stroke="black" stroke-width="2" fill="none" />
<path d="M194.5,218.0,203.0,217.5,211.5,217.0,220.0,216.5,228.5,216.5,236.5,216.0,245.0,215.5" stroke="black" stroke-width="2" fill="none" />
<path d="M245.0,215.0,253.5,224.5,261.5,213.5" stroke="black" stroke-width="2" fill="none" />
<path d="M265.0,208.5,261.5,216.0,258.0,224.5" stroke="black" stroke-width="2" fill="none" />
<path d="M253.0,217.0,260.5,216.5,268.0,216.5,275.5,216.5,282.5,216.0,290.0,215.0" stroke="black" stroke-width="2" fill="none" />
<path d="M293.5,207.5,285.5,207.5,277.0,207.5,268.0,207.5,260.0,207.5,252.0,208.0,244.0,208.0" stroke="black" stroke-width="2" fill="none" />
<path d="M243.5,202.5,251.5,201.5,259.0,201.0,267.5,200.0,276.0,199.0,284.5,198.0,292.5,198.0" stroke="black" stroke-width="2" fill="none" />
<path d="M291.5,196.5,283.5,204.0,276.0,211.5,268.0,218.5,260.0,225.5,251.5,232.5,243.0,239.5,235.0,247.0,226.5,254.0,218.5,261.0,210.5,268.5" stroke="black" stroke-width="2" fill="none" />
<path d="M212.0,267.5,220.0,266.0,227.5,265.5,235.0,264.5,243.0,263.0,250.5,262.5,259.0,262.0" stroke="black" stroke-width="2" fill="none" />
<path d="M298.0,281.0,290.0,281.5,282.0,282.0,274.5,282.5,267.0,283.5,260.0,284.0,252.5,284.0,244.0,284.5,236.0,285.0,228.0,285.5,220.5,285.0,212.5,285.5" stroke="black" stroke-width="2" fill="none" />
<path d="M213.0,278.5,221.0,278.0,229.0,277.0,237.0,277.0,245.0,277.0,252.5,277.0,259.5,276.5,267.0,276.0,274.5,275.5,282.5,275.0,290.5,274.0,298.5,273.5" stroke="black" stroke-width="2" fill="none" />
<path d="M297.0,268.5,289.0,269.0,281.0,269.5,273.0,270.0,265.5,271.0,258.5,271.5,251.0,272.0,243.5,272.0,236.0,272.0,228.5,272.5,221.0,273.0,213.5,273.0" stroke="black" stroke-width="2" fill="none" />
<path d="M211.5,276.0,219.0,268.5,227.0,261.5,234.5,254.0,242.0,247.5,249.5,240.5,257.5,233.5,265.5,225.5,273.5,218.0,281.5,210.0,290.0,203.0,298.0,195.5" stroke="black" stroke-width="2" fill="none" />
<path d="M291.5,188.0,284.0,196.0,276.5,203.5,268.5,211.0,260.5,218.5,252.5,226.0,244.0,232.5,236.0,240.0,227.5,247.0,219.0,255.0,211.0,262.5" stroke="black" stroke-width="2" fill="none" />
<path d="M205.5,263.0,213.5,255.5,222.0,248.0,230.0,240.0,238.0,232.5,245.5,225.0,253.0,217.0,260.5,209.5,268.5,202.0,276.0,194.5,283.5,187.0,292.0,179.0" stroke="black" stroke-width="2" fill="none" />
<path d="M292.0,172.0,284.5,179.5,277.0,187.0,269.0,194.0,261.0,201.5,252.5,209.5,245.0,216.5,236.5,224.0,228.5,232.0,220.0,239.5,211.5,247.0,203.5,254.5" stroke="black" stroke-width="2" fill="none" />
<path d="M201.5,253.0,210.0,253.0,218.5,253.0,227.0,253.0,235.0,252.5,243.0,252.5,251.0,252.0,259.5,251.5,267.5,251.0,275.0,250.5,283.0,250.0,291.0,249.0,299.0,248.5,306.5,247.5" stroke="black" stroke-width="2" fill="none" />
<path d="M299.0,262.0,291.0,262.5,283.0,263.0,275.0,263.5,266.5,264.5,259.0,265.5,251.0,266.5,243.0,268.0,235.0,269.0,227.0,270.5,219.5,271.5,212.0,272.0,204.0,273.0" stroke="black" stroke-width="2" fill="none" />
<path d="M202.0,263.0,210.0,262.0,218.5,261.5,226.5,261.0,235.0,261.0,243.0,260.0,251.0,260.0,259.5,259.0,267.5,258.5,276.0,258.0,284.0,257.5,291.5,256.5,299.0,256.0,306.5,255.5" stroke="black" stroke-width="2" fill="none" />
<path d="M259.5,254.0,251.5,254.0,243.5,255.0,235.5,255.5,227.0,256.0,218.5,256.5,210.5,256.5" stroke="black" stroke-width="2" fill="none" />
<path d="M203.0,249.0,210.5,248.5,218.5,248.5,227.0,248.5,235.0,248.5,243.5,248.5,251.5,248.5,260.0,248.0" stroke="black" stroke-width="2" fill="none" />
<path d="M244.0,239.5,235.5,240.0,227.0,240.0,218.5,240.5,210.5,240.5,202.0,240.5" stroke="black" stroke-width="2" fill="none" />
<path d="M196.5,238.0,205.0,231.0,213.0,223.0,221.0,215.5,229.0,208.5,236.5,201.5,244.0,194.0,252.0,186.0,260.5,178.5,268.0,170.5,276.0,162.5,284.5,154.5,292.5,146.0,301.0,138.5" stroke="black" stroke-width="2" fill="none" />
<path d="M301.5,130.5,293.0,138.5,285.0,146.0,277.0,153.5,269.5,161.0,261.0,168.5,253.0,176.5,245.0,185.0,237.0,193.0,229.0,200.5,221.0,208.0,213.0,215.5,204.0,223.0,196.0,230.0" stroke="black" stroke-width="2" fill="none" />
<path d="M195.5,230.0,204.0,229.5,211.5,228.5,219.5,228.0,228.0,228.0,236.0,227.5,244.5,227.0,252.5,226.0,261.0,225.5,269.5,226.0,277.5,225.5,285.5,225.0,293.5,224.0,301.0,223.0,308.5,222.5,316.5,221.5" stroke="black" stroke-width="2" fill="none" />
<path d="M314.5,238.5,306.5,238.5,298.0,238.5,289.5,238.5,281.5,238.5,273.5,239.0,265.5,240.0,257.0,241.0,249.0,242.0,241.0,243.0,233.5,244.0,225.0,244.0,217.5,244.0,210.0,244.0,203.0,244.0,195.0,245.0" stroke="black" stroke-width="2" fill="none" />
<path d="M194.5,236.0,202.5,235.5,211.0,235.5,219.0,235.0,226.5,234.5,234.5,234.0,243.0,233.5,251.0,233.5,259.5,233.5,267.5,233.0,275.5,232.5,283.5,232.0,291.0,232.0,299.0,232.0,307.0,232.0,315.5,231.5" stroke="black" stroke-width="2" fill="none" />
<path d="M315.5,207.5,308.5,208.0,301.0,208.0,293.0,208.0,285.0,208.0,277.0,209.0,269.0,209.5,261.0,210.0,253.5,210.0,245.5,210.5,238.0,211.0,230.5,211.0,222.0,211.5,213.5,211.5,205.5,211.0,197.5,211.0,189.5,211.5" stroke="black" stroke-width="2" fill="none" />
<path d="M194.5,209.0,202.5,208.5,211.0,208.5,219.5,208.5,227.5,208.5,236.0,208.5" stroke="black" stroke-width="2" fill="none" />
<path d="M234.5,200.0,227.0,200.5,219.0,201.0,211.0,201.5,203.0,201.5,195.0,201.5" stroke="black" stroke-width="2" fill="none" />
<path d="M192.5,204.0,193.5,211.5,193.0,219.5,194.0,227.5,196.0,235.5,198.0,235.0,200.0,243.5,202.5,251.5,204.5,269.5,213.0,288.0" stroke="black" stroke-width="2" fill="none" />
<path d="M204.0,245.5,212.0,238.0,220.0,230.5,228.0,223.0,235.5,216.0,243.5,208.5,252.0,201.5,260.5,194.5,269.0,187.5,277.0,181.0,285.5,173.5" stroke="black" stroke-width="2" fill="none" />
<path d="M284.5,164.5,276.5,172.0,268.5,179.5,260.5,186.5,253.0,194.0,244.5,201.0,236.5,208.0,228.0,215.0,219.5,222.5,211.5,230.5,203.5,238.5" stroke="black" stroke-width="2" fill="none" />
<path d="M203.0,233.5,211.0,233.0,218.5,232.0,226.5,231.5,235.0,231.5,243.0,231.5,251.0,231.5,259.5,231.5" stroke="black" stroke-width="2" fill="none" />
<path d="M243.5,222.0,235.0,222.5,227.0,223.0,220.0,224.0,212.5,224.5,205.0,225.5,197.0,226.0" stroke="black" stroke-width="2" fill="none" />
<path d="M199.0,232.5,201.5,240.5,203.5,249.0,206.0,257.0,208.0,265.5,210.5,273.5" stroke="black" stroke-width="2" fill="none" />
<path d="M257.5,257.0,257.5,249.0,257.5,241.0,256.5,233.0,258.5,225.0,263.5,217.5,266.5,209.5,256.5,227.5,248.5,228.0,240.5,216.0" stroke="black" stroke-width="2" fill="none" />
<path d="M242.5,195.0,250.5,194.5,259.0,193.5,267.5,193.0,275.0,192.0" stroke="black" stroke-width="2" fill="none" />
<path d="M257.5,185.0,249.0,185.5" stroke="black" stroke-width="2" fill="none" />
<path d="M251.5,177.0,259.5,176.5" stroke="black" stroke-width="2" fill="none" />
<path d="M263.5,177.5,262.0,169.5" stroke="black" stroke-width="2" fill="none" />
<path d="M260.5,167.0,258.5,175.0,259.5,183.5" stroke="black" stroke-width="2" fill="none" />
<path d="M252.0,169.0,260.5,169.0,268.5,168.0" stroke="black" stroke-width="2" fill="none" />
<path d="M269.5,162.0,261.5,162.5" stroke="black" stroke-width="2" fill="none" />
<path d="M260.0,155.5,266.0,165.5,268.0,173.5,268.0,182.0,274.5,190.0,278.5,192.5,278.5,186.5,278.5,188.5,285.5,189.5,292.0,186.5,301.0,192.5" stroke="black" stroke-width="2" fill="none" />
<path d="M304.5,204.5,310.0,213.5" stroke="black" stroke-width="2" fill="none" />
<path d="M306.0,180.0,314.0,172.5" stroke="black" stroke-width="2" fill="none" />
<path d="M308.5,163.0,300.5,170.0" stroke="black" stroke-width="2" fill="none" />
<path d="M300.5,163.5,309.0,156.0" stroke="black" stroke-width="2" fill="none" />
<path d="M308.5,147.0,300.0,155.0" stroke="black" stroke-width="2" fill="none" />
<path d="M300.5,148.0,292.0,155.5" stroke="black" stroke-width="2" fill="none" />
<path d="M296.0,150.5,285.5,150.5,277.0,153.5,269.0,157.5" stroke="black" stroke-width="2" fill="none" />
<path d="M264.0,151.5,266.5,159.5,272.0,166.0,271.0,174.0,278.5,175.5" stroke="black" stroke-width="2" fill="none" />
<path d="M282.5,145.0,281.5,141.0,278.0,133.5,274.0,135.5" stroke="black" stroke-width="2" fill="none" />
<path d="M277.0,136.0,269.0,137.5,261.5,138.5,253.5,139.5,245.5,140.5,237.5,141.0,229.5,142.0,221.0,142.5,212.5,142.5,204.5,143.5" stroke="black" stroke-width="2" fill="none" />
<path d="M204.0,147.0,211.5,140.0,219.0,132.5" stroke="black" stroke-width="2" fill="none" />
<path d="M218.0,128.0,210.0,129.0" stroke="black" stroke-width="2" fill="none" />
<path d="M206.5,129.0,214.5,116.0" stroke="black" stroke-width="2" fill="none" />
<path d="M212.0,118.0,219.5,118.0,227.0,117.5,234.5,116.5,242.5,115.5,251.0,115.0,259.0,115.0,267.5,114.5,276.0,114.0,284.0,113.5,292.5,112.5" stroke="black" stroke-width="2" fill="none" />
<path d="M292.0,116.5,284.0,124.0" stroke="black" stroke-width="2" fill="none" />
<path d="M285.5,124.0,291.5,132.0,292.5,143.0,291.0,151.5,288.0,153.5,291.5,167.0,293.5,175.0,296.5,183.0,291.5,187.0,295.5,192.0,298.5,193.0,298.5,201.0,297.5,212.5,301.5,220.5,300.5,228.5" stroke="black" stroke-width="2" fill="none" />
<path d="M234.0,192.5,226.0,192.5,218.5,192.5,210.5,193.5,203.0,194.0" stroke="black" stroke-width="2" fill="none" />
<path d="M196.0,189.0,203.5,181.0,211.5,173.0,219.5,165.5,227.0,158.0,235.0,151.0,243.5,143.5,251.5,136.5,260.0,130.0,267.5,123.0,275.5,116.0,284.0,109.0,292.0,101.5" stroke="black" stroke-width="2" fill="none" />
<path d="M281.5,99.5,274.0,107.0,266.5,114.0,259.0,122.0,250.5,129.5,243.5,137.0,235.5,144.5,228.0,152.5,220.0,160.5,212.5,168.0,204.5,175.5,196.5,182.5" stroke="black" stroke-width="2" fill="none" />
<path d="M203.0,184.5,211.5,184.0,219.5,184.0,228.0,184.0,236.5,183.5" stroke="black" stroke-width="2" fill="none" />
<path d="M228.0,160.0,219.5,160.0" stroke="black" stroke-width="2" fill="none" />
<path d="M217.5,167.5,209.5,168.5" stroke="black" stroke-width="2" fill="none" />
<path d="M209.0,178.5,217.0,178.0,225.0,176.5,233.0,175.5" stroke="black" stroke-width="2" fill="none" />
<path d="M229.0,155.0,237.0,151.0" stroke="black" stroke-width="2" fill="none" />
<path d="M242.0,154.5,250.0,154.0" stroke="black" stroke-width="2" fill="none" />
<path d="M251.0,146.0,259.5,145.5" stroke="black" stroke-width="2" fill="none" />
<path d="M262.5,146.0,256.5,154.0,252.0,161.5,248.0,169.0,243.0,177.0,242.0,184.5,244.0,192.5,239.5,201.5,243.5,203.5,244.0,211.0,246.0,219.0,259.5,228.5" stroke="black" stroke-width="2" fill="none" />
<path d="M196.5,197.0,205.0,189.5,213.0,182.0,221.0,175.5,229.0,168.5,237.0,161.5,245.0,154.0,252.5,147.0,259.5,139.0,267.0,131.5,275.0,123.5,283.0,116.0" stroke="black" stroke-width="2" fill="none" />
<path d="M283.0,113.5,274.5,113.5,266.0,114.0,258.0,114.0" stroke="black" stroke-width="2" fill="none" />
<path d="M250.5,112.5,243.0,113.0,235.5,113.5,228.0,114.5" stroke="black" stroke-width="2" fill="none" />
<path d="M228.5,118.5,236.5,111.5,244.5,104.5,253.0,97.5,261.0,90.5,269.5,83.0" stroke="black" stroke-width="2" fill="none" />
<path d="M268.5,75.0,260.0,82.5,252.5,90.0,245.0,97.5,237.5,105.0,229.0,112.5,221.5,119.5,214.0,126.5" stroke="black" stroke-width="2" fill="none" />
<path d="M213.5,125.5,215.0,127.5,216.0,135.5,218.5,130.5,226.5,124.0,236.5,122.0,244.0,124.5,249.0,131.5,257.5,128.5,255.5,133.5,246.5,135.0,243.5,143.5,242.5,149.5,235.0,155.5,235.0,158.5,239.0,160.5" stroke="black" stroke-width="2" fill="none" />
<path d="M235.0,139.0,233.0,140.0,224.5,142.5,222.5,138.5" stroke="black" stroke-width="2" fill="none" />
<path d="M216.0,141.5,224.0,133.5,223.5,134.5,216.5,142.5,220.0,146.0,228.5,148.0,240.5,143.0,241.5,132.5,248.5,137.0" stroke="black" stroke-width="2" fill="none" />
<path d="M253.5,132.5,244.5,142.0,232.5,156.5,228.0,161.5,218.0,165.5,217.0,160.5,212.0,159.0,210.5,149.0,211.5,141.5,218.5,129.0,225.5,121.5,217.5,125.0" stroke="black" stroke-width="2" fill="none" />
<path d="M220.5,122.0,228.5,121.5" stroke="black" stroke-width="2" fill="none" />
<path d="M229.0,125.0,222.0,133.0,217.5,137.0,226.0,129.0" stroke="black" stroke-width="2" fill="none" />
<path d="M234.5,121.0,243.0,120.5,251.5,120.0,260.0,119.0,268.0,118.5,275.5,118.0,283.5,117.5" stroke="black" stroke-width="2" fill="none" />
<path d="M279.5,121.5,287.5,125.5,295.0,130.5" stroke="black" stroke-width="2" fill="none" />
<path d="M290.5,124.0,282.5,131.5" stroke="black" stroke-width="2" fill="none" />
<path d="M283.5,132.0,291.0,132.0,299.0,131.5" stroke="black" stroke-width="2" fill="none" />
<path d="M300.0,122.5,292.0,130.0,284.0,137.5" stroke="black" stroke-width="2" fill="none" />
<path d="M282.5,139.5,290.5,139.5,298.5,139.5,307.0,139.5" stroke="black" stroke-width="2" fill="none" />
<path d="M308.0,143.5,300.0,144.0,292.0,144.5,284.5,144.0,276.5,144.5,268.5,145.0,260.5,145.5,253.0,146.0,245.0,146.5,237.5,147.0,229.5,147.5,221.5,147.5,213.0,148.0,204.5,148.0,196.5,148.5" stroke="black" stroke-width="2" fill="none" />
<path d="M197.0,156.0,205.0,155.5,212.0,155.0,220.0,154.5,228.0,154.5,235.5,154.0,243.5,154.0,251.5,154.0,260.0,154.0,268.0,153.5,276.0,152.5,284.5,152.5,292.5,152.5,300.0,152.5,308.0,151.5,316.0,151.0" stroke="black" stroke-width="2" fill="none" />
<path d="M316.5,166.5,309.0,167.0,301.5,168.0,293.5,169.0,285.5,169.5,277.5,170.5,269.5,171.0,261.0,171.5,252.5,172.0,243.5,172.0,235.0,172.5,227.0,172.5,219.0,173.5,210.5,174.0,202.0,174.5,194.0,175.0" stroke="black" stroke-width="2" fill="none" />
<path d="M198.5,174.0,206.5,166.5,214.5,159.0,221.5,152.0,229.5,144.5,237.0,137.0,244.5,129.5,252.0,122.0,259.0,114.5,267.0,106.5,275.0,98.5,283.0,91.0" stroke="black" stroke-width="2" fill="none" />
<path d="M283.0,84.5,274.5,92.5,267.0,100.0,259.5,107.0,252.5,114.0,244.5,121.5,236.5,129.0,228.5,136.5,220.5,144.0,212.5,151.0,204.5,158.0,197.0,166.0" stroke="black" stroke-width="2" fill="none" />
<path d="M195.5,165.5,203.5,164.5,211.5,163.5,219.5,163.0,228.0,163.0,236.5,163.0,244.0,163.0,252.0,163.0,260.5,163.0,268.5,162.5,276.5,162.0,284.5,161.5,292.5,161.0,300.5,160.5,308.0,159.5,316.0,159.5" stroke="black" stroke-width="2" fill="none" />
<path d="M315.5,181.0,307.5,181.0,299.5,182.0,291.5,182.5,283.0,183.0,274.5,183.5,266.5,183.5,258.5,184.0,250.5,185.0,243.0,185.5,236.0,186.0,229.0,187.0,221.5,187.5,213.5,188.0,206.0,188.5,198.0,189.5,189.5,190.0" stroke="black" stroke-width="2" fill="none" />
<path d="M188.0,198.5,196.0,198.5,205.0,198.5,213.0,198.0,220.5,197.5,229.0,197.0,236.5,196.5,244.5,196.0,252.5,195.5,260.5,195.0,268.0,194.5,276.0,193.0,283.5,192.5,291.0,191.5,299.0,190.0,306.5,189.5,315.0,189.0" stroke="black" stroke-width="2" fill="none" />
<path d="M314.5,198.5,307.0,199.0,299.5,199.0,292.0,199.0,284.5,199.5,277.0,200.0,269.5,200.0,261.5,201.0,253.0,201.5,245.0,202.0,237.0,201.5,229.0,202.0,221.0,202.5,212.5,203.0,204.5,204.0,196.0,204.5,188.0,205.5" stroke="black" stroke-width="2" fill="none" />
<path d="M195.5,207.5,203.5,199.5,211.5,192.0,219.0,184.5,227.5,176.5,236.0,169.5,244.5,162.0,253.0,155.0,261.0,148.0,269.5,140.5" stroke="black" stroke-width="2" fill="none" />
<path d="M271.0,139.5,279.0,142.5" stroke="black" stroke-width="2" fill="none" />
<path d="M269.0,130.0,260.5,131.0" stroke="black" stroke-width="2" fill="none" />
<path d="M269.5,123.5,277.0,124.5,285.0,132.5,289.5,136.5,296.5,139.5" stroke="black" stroke-width="2" fill="none" />
<path d="M298.0,147.5,298.0,155.5,298.5,163.0,295.5,171.0,297.0,179.0,301.0,192.5,303.0,200.5,305.5,209.0,308.5,216.5,306.5,224.5,305.5,233.0,304.5,240.5,304.0,248.5,302.0,257.0" stroke="black" stroke-width="2" fill="none" />
<path d="M276.5,128.5,268.5,129.0,260.0,129.0,251.5,129.5,243.5,129.5,235.5,130.5,227.0,131.0,219.5,131.5,212.0,132.0,204.0,133.0" stroke="black" stroke-width="2" fill="none" />
<path d="M209.5,125.0,218.0,124.5,226.5,124.0,234.5,123.5,243.0,123.0,251.0,123.0,259.5,122.0,268.0,121.5,276.0,121.5,284.0,121.5,291.5,121.0,299.5,120.5" stroke="black" stroke-width="2" fill="none" />
<path d="M292.0,104.5,284.0,105.0,276.0,105.5,268.0,106.5,260.0,107.0,252.0,108.0,244.0,108.5,236.0,109.5,228.0,110.0,220.0,111.0" stroke="black" stroke-width="2" fill="none" />
<path d="M221.0,104.5,229.0,97.5,236.5,90.0,244.0,82.5,252.5,75.5,260.5,68.0,269.0,61.0" stroke="black" stroke-width="2" fill="none" />
<path d="M268.0,66.5,260.0,74.5,252.5,82.0,244.5,90.0,236.0,98.0,228.0,105.0,220.5,112.5,212.0,119.5" stroke="black" stroke-width="2" fill="none" />
<path d="M212.0,104.5,220.0,103.5,228.0,102.5,235.5,102.0,243.0,101.0,251.5,100.0,259.0,99.5,267.5,98.5,275.5,98.0,283.5,96.5,291.0,95.5" stroke="black" stroke-width="2" fill="none" />
<path d="M291.0,89.5,283.5,89.5,276.0,90.0,269.0,91.0,261.5,92.0,253.5,93.0,245.5,93.5,237.0,94.0,229.0,95.0,221.0,95.0" stroke="black" stroke-width="2" fill="none" />
<path d="M220.0,97.0,228.0,90.0,235.5,82.5,244.0,75.5,252.5,68.5,261.0,61.0,269.0,53.5" stroke="black" stroke-width="2" fill="none" />
<path d="M258.5,64.0,250.5,64.5,242.5,65.0" stroke="black" stroke-width="2" fill="none" />
<path d="M240.0,62.0,243.0,58.5,235.0,63.0,234.0,71.0,232.5,79.0,230.0,86.5,228.0,94.5,221.5,106.0,224.0,101.0,233.0,99.5,234.0,93.5,236.0,87.5" stroke="black" stroke-width="2" fill="none" />
<path d="M242.5,83.0,250.5,82.5,258.5,81.5" stroke="black" stroke-width="2" fill="none" />
<path d="M258.0,73.0,249.0,73.5,241.0,74.0" stroke="black" stroke-width="2" fill="none" />
<path d="M236.5,70.0,240.0,67.0,238.5,74.0,240.5,82.0,238.5,90.0,231.5,100.0,240.0,101.0,240.0,104.5,238.0,102.5" stroke="black" stroke-width="2" fill="none" />
<path d="M247.5,112.0,255.5,106.5" stroke="black" stroke-width="2" fill="none" />
<path d="M237.0,106.5,228.5,106.0,226.5,105.0,222.5,100.0,225.0,92.0,232.0,91.0,233.0,83.0,240.5,80.0,241.5,72.0,241.5,64.0,242.5,59.0,237.5,57.5,233.5,51.0" stroke="black" stroke-width="2" fill="none" />
<path d="M235.0,49.5,242.5,42.5,250.5,35.0,258.5,28.0" stroke="black" stroke-width="2" fill="none" />
<path d="M260.5,35.0,266.5,36.0,260.5,43.5,261.0,51.0,263.0,59.0,263.5,67.0,264.0,75.0,264.5,83.0,270.0,91.0,274.0,97.0,276.5,102.5,278.0,101.5,271.5,108.5,277.5,104.5,284.0,107.0,292.5,120.5,300.0,135.5,308.0,154.5,308.0,171.5,305.0,177.5,303.0,185.0" stroke="black" stroke-width="2" fill="none" />
<path d="M313.5,171.0,306.0,172.0,297.5,172.5,289.0,174.5,281.0,175.5,273.0,177.0,265.0,177.5,257.0,178.0,249.5,178.0,242.0,178.0,235.5,178.0,228.5,179.0,220.5,179.5,212.5,179.5,205.0,180.0,197.0,180.0,189.0,180.5" stroke="black" stroke-width="2" fill="none" />
<path d="M194.5,161.0,202.5,140.0,206.0,144.0,203.0,147.5,201.5,155.0,198.0,163.0,196.5,165.0,202.5,165.5,201.5,173.5,200.5,181.0,201.0,189.5,198.5,197.0,199.0,209.5" stroke="black" stroke-width="2" fill="none" />
<path d="M196.5,158.0,204.0,150.0,212.0,143.0,220.0,135.5,228.0,128.0,236.0,120.0,243.5,113.0,251.5,105.0,259.5,98.0,267.5,90.5,275.5,83.5,283.5,76.0" stroke="black" stroke-width="2" fill="none" />
<path d="M283.5,74.5,275.5,75.0,267.5,75.5,260.0,76.5,252.0,76.5,244.5,77.5,236.5,78.0,228.5,78.5,220.5,79.0" stroke="black" stroke-width="2" fill="none" />
<path d="M227.5,81.0,236.0,74.0,243.5,66.5,252.0,59.0,260.5,51.5,268.5,43.5,276.0,36.0" stroke="black" stroke-width="2" fill="none" />
<path d="M275.5,35.0,267.5,36.0,259.5,37.0,251.5,37.5,243.5,38.5,235.5,39.5,227.5,40.0" stroke="black" stroke-width="2" fill="none" />
<path d="M230.0,33.0,238.0,27.5,246.0,27.5,254.0,27.5,262.0,28.0,269.5,28.5,273.0,31.5,275.0,39.5,274.5,47.5,275.5,55.5,276.5,63.0,278.5,71.0,280.5,78.5,282.5,86.5,288.0,94.5,289.0,102.0,288.5,110.0,292.0,117.5,297.0,125.5,300.5,133.5,303.5,141.5,307.5,149.5,310.5,158.0,312.5,166.0,313.5,174.5,315.5,182.0,316.5,190.0,316.5,197.5,316.5,205.5,317.5,209.5,316.5,217.5,315.5,225.5,314.0,233.5,312.0,241.5,310.0,250.0,308.0,258.0,304.5,266.0,300.0,274.5,297.0,282.5,293.0,290.5,289.0,298.5,288.0,306.5,278.0,314.5,278.5,311.5,288.0,299.0,296.0,282.0,303.5,263.0" stroke="black" stroke-width="2" fill="none" />
<path d="M297.0,225.5,298.0,217.0,288.5,205.5,292.5,197.5,285.5,189.0,286.5,187.0,284.5,179.5,290.5,175.0,287.0,167.5,285.0,159.5,282.0,153.0,286.0,146.0,284.5,135.5,278.5,127.5,279.5,123.5" stroke="black" stroke-width="2" fill="none" />
<path d="M272.0,124.0,271.0,132.5,271.0,140.5,266.0,145.0,261.5,151.5,262.5,160.0,265.0,168.0,266.0,176.0,267.5,184.0,262.0,180.0" stroke="black" stroke-width="2" fill="none" />
<path d="M303.5,153.0,295.5,145.5,283.5,148.5,275.5,150.5,267.5,147.5,259.5,145.5,251.5,153.5,244.0,165.5,235.0,179.5,236.0,172.0,237.0,163.5,238.5,155.5,240.0,147.5,237.5,139.5,243.5,131.5" stroke="black" stroke-width="2" fill="none" />
<path d="M241.5,127.5,249.5,128.5,235.5,127.5,234.5,122.5,232.5,130.0,234.0,138.0,221.0,141.5,232.0,145.5,228.0,155.5,227.0,163.5,238.0,166.5,244.0,173.0,252.0,159.0,260.0,146.5,263.5,136.5,273.5,127.0,282.0,136.0,289.0,140.0,297.5,143.5,305.5,153.5,301.0,160.5,299.0,165.5,300.0,173.0,302.0,173.0,298.0,175.0,302.0,177.0,302.5,187.0,308.5,188.0,309.5,196.0,310.5,204.0,310.5,218.0,309.5,226.0,309.0,234.0,308.0,242.0,306.0,250.0" stroke="black" stroke-width="2" fill="none" />
<path d="M313.0,226.0,314.0,218.5,309.0,210.5,307.0,202.0,303.5,194.0,306.0,193.0,310.0,190.5,312.0,182.5,310.0,174.5,305.0,166.5,306.0,159.5,305.0,154.0,298.0,146.0,294.0,138.0,290.0,137.0,285.5,129.0,285.5,123.5,279.0,120.5,281.0,111.5,286.0,105.5,277.0,94.0,274.5,86.0,272.0,78.0,271.0,76.0,273.0,68.0,266.0,59.0,266.0,50.5,265.0,42.0,259.0,39.0" stroke="black" stroke-width="2" fill="none" />
<path d="M267.5,34.5,260.0,42.0,252.0,49.5,244.0,57.5,236.0,66.0,228.0,73.5" stroke="black" stroke-width="2" fill="none" />
<path d="M227.0,71.0,235.0,70.0,243.0,69.5,250.5,68.5,258.0,67.5,266.5,66.5,274.0,65.5,282.0,64.5" stroke="black" stroke-width="2" fill="none" />
<path d="M282.5,58.0,275.0,59.0,267.5,60.0,259.5,61.0,251.5,61.5,244.0,62.5,236.0,63.5,228.0,64.0" stroke="black" stroke-width="2" fill="none" />
<path d="M225.5,64.0,233.5,56.0,241.5,48.5,249.5,41.0,257.5,33.5,265.5,26.0" stroke="black" stroke-width="2" fill="none" />
<path d="M268.5,31.5,260.5,32.0,249.5,30.5,241.5,30.0,233.5,31.0" stroke="black" stroke-width="2" fill="none" />
<path d="M234.5,31.5,235.5,39.5,235.5,47.0,234.5,55.0,233.0,63.0,231.0,71.0,229.5,79.0,224.0,86.5,221.5,94.5,218.5,100.5,218.5,104.5,219.5,112.5,222.0,122.0,214.0,124.0,213.0,132.0,210.0,139.5,209.0,147.5,209.0,155.5,204.0,157.5,199.5,167.5,198.5,175.5,198.5,183.0,196.0,191.0,195.0,199.0,196.5,207.0,195.0,215.0" stroke="black" stroke-width="2" fill="none" />
<path d="M216.0,98.0,221.0,87.0,217.5,95.0,218.5,87.0" stroke="black" stroke-width="2" fill="none" />
<path d="M221.5,87.5,229.5,86.5,237.5,86.0,245.5,85.0,253.0,84.0,260.5,83.5,268.5,82.0,276.0,81.5,284.0,80.5" stroke="black" stroke-width="2" fill="none" />
<path d="M281.0,79.0,289.0,98.0" stroke="black" stroke-width="2" fill="none" />
<path d="M281.5,110.5,280.5,115.5,281.5,97.0,278.5,89.0,276.0,81.0,267.0,68.5" stroke="black" stroke-width="2" fill="none" />
<path d="M259.5,66.0,259.5,74.0,259.5,82.0,259.5,90.5,259.5,99.0,259.0,109.0,254.5,112.5,260.5,112.5" stroke="black" stroke-width="2" fill="none" />
<path d="M270.0,122.0,268.0,129.5,262.0,137.5,258.0,145.5,250.5,154.0,244.5,162.0,241.5,170.5,238.5,179.0,238.5,187.0,236.0,197.0,236.5,205.0,240.0,213.0,242.5,221.0,250.5,229.0,248.5,235.0,249.5,243.0,249.0,251.0,249.0,258.5,250.0,266.5" stroke="black" stroke-width="2" fill="none" />
<path d="M250.5,96.5,251.0,88.5,250.0,80.5" stroke="black" stroke-width="2" fill="none" />
<path d="M247.5,79.5,247.0,87.5,245.0,95.5,247.5,99.0,264.5,101.0,272.5,104.0" stroke="black" stroke-width="2" fill="none" />
<path d="M263.0,102.5,266.0,104.5,256.0,98.5,256.0,90.5,255.5,82.5,256.5,75.0,256.5,67.0" stroke="black" stroke-width="2" fill="none" />
<path d="M259.0,56.0,250.5,56.5,242.5,56.5" stroke="black" stroke-width="2" fill="none" />
<path d="M242.5,47.5,250.5,46.5,258.5,46.0" stroke="black" stroke-width="2" fill="none" />
<path d="M259.0,39.5,251.0,39.5,243.0,40.0,235.0,40.0" stroke="black" stroke-width="2" fill="none" />
<path d="M235.5,42.5,243.0,35.5,250.5,28.0" stroke="black" stroke-width="2" fill="none" />
<path d="M248.5,33.0,240.0,36.5" stroke="black" stroke-width="2" fill="none" />
<path d="M235.5,30.0,243.5,29.5,251.5,29.0,260.0,28.0,268.5,27.5,277.0,27.0" stroke="black" stroke-width="2" fill="none" />
<path d="M270.5,33.0,270.5,41.0,272.0,49.0,271.0,57.5,273.0,64.5,270.0,72.5,270.5,80.0,271.5,88.5,271.0,97.5" stroke="black" stroke-width="2" fill="none" />
<path d="M275.5,51.5,267.5,52.0,260.5,53.0,253.0,54.0,245.0,54.5,237.5,55.5,229.5,55.5" stroke="black" stroke-width="2" fill="none" />
<path d="M229.0,47.5,236.5,47.0,244.5,46.0,252.0,45.0,259.5,44.0,267.0,44.0,275.0,43.0" stroke="black" stroke-width="2" fill="none" />
</svg>