<svg xmlns="http://www.w3.org/2000/svg" version="1.1"><polyline points="302.5,132.0,303.5,140.5,303.5,148.5,302.5,157.0,302.5,165.0,302.5,173.0,301.0,181.0,295.0,189.5" stroke="black" stroke-width="2" fill="none" />
<polyline points="292.5,188.5,301.0,181.0" stroke="black" stroke-width="2" fill="none" />
<polyline points="300.0,174.5,292.0,182.0,284.5,189.0" stroke="black" stroke-width="2" fill="none" />
<polyline points="283.0,186.0,291.0,185.5,299.0,185.0" stroke="black" stroke-width="2" fill="none" />
<polyline points="298.5,165.5,290.5,173.5,283.0,180.5,275.0,187.5" stroke="black" stroke-width="2" fill="none" />
<polyline points="266.5,190.5,258.5,191.0,250.5,192.0" stroke="black" stroke-width="2" fill="none" />
<polyline points="252.5,193.5,260.0,186.5,268.0,179.5,275.5,172.0,283.5,164.5,291.5,157.0,299.5,149.0" stroke="black" stroke-width="2" fill="none" />
<polyline points="299.0,156.0,291.0,163.5,283.0,171.0,275.5,178.5,267.5,186.5,260.0,193.5,252.5,201.5" stroke="black" stroke-width="2" fill="none" />
<polyline points="251.5,204.0,259.5,203.5,267.0,203.5" stroke="black" stroke-width="2" fill="none" />
<polyline points="261.5,204.5,253.0,212.0" stroke="black" stroke-width="2" fill="none" />
<polyline points="250.0,212.5,258.0,212.0,266.0,211.5" stroke="black" stroke-width="2" fill="none" />
<polyline points="258.5,210.5,251.0,218.0" stroke="black" stroke-width="2" fill="none" />
<polyline points="251.0,218.0,259.0,217.5" stroke="black" stroke-width="2" fill="none" />
<polyline points="260.5,220.0,252.5,227.0" stroke="black" stroke-width="2" fill="none" />
<polyline points="251.5,226.5,259.5,226.0" stroke="black" stroke-width="2" fill="none" />
<polyline points="260.5,227.5,253.0,235.0" stroke="black" stroke-width="2" fill="none" />
<polyline points="252.5,234.5,260.5,234.0" stroke="black" stroke-width="2" fill="none" />
<polyline points="259.5,234.5,251.5,242.5" stroke="black" stroke-width="2" fill="none" />
<polyline points="251.5,243.0,260.0,242.5,268.5,242.5" stroke="black" stroke-width="2" fill="none" />
<polyline points="260.0,243.5,252.0,251.0" stroke="black" stroke-width="2" fill="none" />
<polyline points="250.5,251.5,258.5,251.0,267.0,251.0" stroke="black" stroke-width="2" fill="none" />
<polyline points="261.0,252.0,253.0,259.5" stroke="black" stroke-width="2" fill="none" />
<polyline points="252.0,261.5,260.0,261.5,268.0,261.5" stroke="black" stroke-width="2" fill="none" />
<polyline points="259.5,261.0,251.5,268.5" stroke="black" stroke-width="2" fill="none" />
<polyline points="251.5,269.0,260.0,268.5,267.5,268.0" stroke="black" stroke-width="2" fill="none" />
<polyline points="260.5,267.5,252.0,275.0" stroke="black" stroke-width="2" fill="none" />
<polyline points="252.0,273.5,260.0,273.0" stroke="black" stroke-width="2" fill="none" />
<polyline points="260.0,274.5,252.5,282.0" stroke="black" stroke-width="2" fill="none" />
<polyline points="251.0,283.0,259.0,282.5,267.5,282.5" stroke="black" stroke-width="2" fill="none" />
<polyline points="268.5,291.5,261.0,299.0,252.5,306.5,244.5,314.5,237.0,322.5,229.0,330.5,221.0,338.0,213.0,345.0,205.5,352.0,197.5,359.0,190.0,366.5" stroke="black" stroke-width="2" fill="none" />
<polyline points="188.5,364.5,196.0,363.5,203.5,363.0,212.0,363.0,220.5,363.0,229.0,363.0,237.0,362.5,245.0,361.5,253.0,360.5,261.0,359.5,269.5,359.0,277.0,358.0" stroke="black" stroke-width="2" fill="none" />
<polyline points="325.5,352.5,333.5,345.5,341.5,338.5,349.0,331.0,357.0,323.5" stroke="black" stroke-width="2" fill="none" />
<polyline points="364.0,324.0,356.0,331.5,348.0,339.0,340.0,346.5,332.0,354.0" stroke="black" stroke-width="2" fill="none" />
<polyline points="332.0,357.0,338.0,365.0,340.0,373.0,340.0,381.0,340.0,389.0,339.0,396.5,339.5,405.0,339.5,413.0,339.5,421.0,339.0,429.0,339.0,437.0,339.0,445.0,339.0,453.0,338.0,461.0,337.5,468.5,337.5,476.5,337.0,484.5,336.5,492.5,336.5,500.5,337.0,508.5,337.0,516.0,336.0,524.5" stroke="black" stroke-width="2" fill="none" />
<polyline points="334.0,523.0,326.0,530.5" stroke="black" stroke-width="2" fill="none" />
<polyline points="324.0,537.5,332.0,530.0,340.0,523.0,347.5,515.5" stroke="black" stroke-width="2" fill="none" />
<polyline points="341.0,515.0,349.0,507.5" stroke="black" stroke-width="2" fill="none" />
<polyline points="347.0,500.0,339.0,507.5" stroke="black" stroke-width="2" fill="none" />
<polyline points="341.0,509.0,349.0,508.0,357.0,507.5" stroke="black" stroke-width="2" fill="none" />
<polyline points="356.5,515.0,348.5,515.5,340.5,516.5" stroke="black" stroke-width="2" fill="none" />
<polyline points="341.0,531.5,333.0,539.5" stroke="black" stroke-width="2" fill="none" />
<polyline points="331.5,538.0,339.5,537.5" stroke="black" stroke-width="2" fill="none" />
<polyline points="347.0,532.5,339.5,540.0,332.0,547.5" stroke="black" stroke-width="2" fill="none" />
<polyline points="331.0,541.5,339.5,541.0,348.0,540.0,356.0,539.5" stroke="black" stroke-width="2" fill="none" />
<polyline points="353.0,540.0,345.5,547.0" stroke="black" stroke-width="2" fill="none" />
<polyline points="339.5,549.0,347.5,548.5,355.0,548.0,363.0,547.5,370.5,546.5" stroke="black" stroke-width="2" fill="none" />
<polyline points="364.0,548.0,356.5,555.0" stroke="black" stroke-width="2" fill="none" />
<polyline points="355.0,555.0,363.0,554.5" stroke="black" stroke-width="2" fill="none" />
<polyline points="364.0,554.5,356.0,562.0" stroke="black" stroke-width="2" fill="none" />
<polyline points="359.0,564.0,351.0,558.5" stroke="black" stroke-width="2" fill="none" />
<polyline points="350.5,559.0,351.5,567.0,355.0,570.0" stroke="black" stroke-width="2" fill="none" />
<polyline points="355.5,569.5,347.0,577.5" stroke="black" stroke-width="2" fill="none" />
<polyline points="354.0,580.0,362.0,579.5,370.0,578.5,378.5,577.5" stroke="black" stroke-width="2" fill="none" />
<polyline points="373.0,578.0,381.5,570.5" stroke="black" stroke-width="2" fill="none" />
<polyline points="379.0,562.0,371.0,570.0,362.5,577.5" stroke="black" stroke-width="2" fill="none" />
<polyline points="356.0,579.0,364.0,571.5,371.5,564.0" stroke="black" stroke-width="2" fill="none" />
<polyline points="365.5,562.5,373.5,555.0" stroke="black" stroke-width="2" fill="none" />
<polyline points="370.0,561.0,362.5,561.0" stroke="black" stroke-width="2" fill="none" />
<polyline points="361.0,570.0,369.0,569.0,377.5,568.5" stroke="black" stroke-width="2" fill="none" />
<polyline points="370.5,582.0,362.5,583.0,354.5,583.5" stroke="black" stroke-width="2" fill="none" />
<polyline points="339.5,575.0,347.5,574.0,355.5,573.5,363.5,573.0,371.0,572.5,379.5,572.0" stroke="black" stroke-width="2" fill="none" />
<polyline points="380.5,563.5,372.5,564.0,364.0,564.5,355.5,565.0,347.0,566.0,339.0,566.5" stroke="black" stroke-width="2" fill="none" />
<polyline points="337.0,565.5,345.0,578.0,353.0,585.0,360.5,585.0,368.5,583.5,376.5,578.0" stroke="black" stroke-width="2" fill="none" />
<polyline points="381.5,554.5,373.5,555.5,365.0,556.5,357.0,558.0,348.5,558.5,340.5,559.5" stroke="black" stroke-width="2" fill="none" />
<polyline points="346.5,555.5,354.0,548.0" stroke="black" stroke-width="2" fill="none" />
<polyline points="352.5,540.0,360.5,547.0,368.5,553.0,376.5,558.5" stroke="black" stroke-width="2" fill="none" />
<polyline points="366.5,578.5,358.0,578.5,350.0,573.5,340.0,568.5,339.0,560.5,339.5,552.5,340.5,545.0,340.5,537.0,341.5,529.0,341.0,521.0,343.0,513.0,343.0,505.0,342.5,496.5,342.5,488.5,342.5,480.5,342.5,472.5,342.5,464.5,343.0,456.5,343.0,448.5,343.0,440.5,343.0,432.5,344.0,424.0,343.5,416.0,343.0,408.0,343.0,400.0,343.0,392.0,343.0,383.5,350.0,373.0,349.5,365.5,345.5,362.0" stroke="black" stroke-width="2" fill="none" />
<polyline points="340.0,362.5,348.0,354.0,356.5,346.5,365.0,339.5,373.5,332.0" stroke="black" stroke-width="2" fill="none" />
<polyline points="377.0,332.5,369.0,340.5,362.0,348.0" stroke="black" stroke-width="2" fill="none" />
<polyline points="371.0,346.5,379.0,339.0" stroke="black" stroke-width="2" fill="none" />
<polyline points="389.0,342.0,381.0,349.5" stroke="black" stroke-width="2" fill="none" />
<polyline points="364.0,333.5,355.5,340.5,348.0,347.5,340.0,355.0" stroke="black" stroke-width="2" fill="none" />
<polyline points="338.0,356.0,346.5,355.5,354.5,354.5" stroke="black" stroke-width="2" fill="none" />
<polyline points="352.0,354.5,354.0,362.0,354.5,370.0,355.5,378.0,355.5,385.5,354.5,393.5,354.0,401.5,354.0,410.0,353.0,418.0,353.5,425.5,353.5,434.0,353.5,442.0,352.5,450.0,352.5,458.0,352.5,466.0,352.5,473.5,351.5,481.5,351.5,489.5,351.0,497.5,351.5,505.5,350.0,513.0,350.5,521.0,351.0,529.0,351.0,537.0,357.0,545.5,366.5,553.5,376.5,561.5,379.5,570.0,377.5,578.0" stroke="black" stroke-width="2" fill="none" />
<polyline points="349.0,573.0,347.0,564.5,347.0,557.0,347.0,549.5,347.0,541.5,347.0,533.5,348.0,526.0,348.5,518.0,348.5,509.5,348.5,501.0,348.5,493.0,349.0,485.0,348.5,476.5,348.5,468.5,348.5,460.5,349.5,452.0,349.5,444.0,349.0,436.0,348.5,428.0,350.0,420.0,349.5,412.0,350.0,404.0,350.5,396.0,351.5,388.5,351.5,384.5,343.5,382.0" stroke="black" stroke-width="2" fill="none" />
<polyline points="339.5,382.5,347.5,382.0,355.5,382.0" stroke="black" stroke-width="2" fill="none" />
<polyline points="348.0,378.5,356.0,371.0" stroke="black" stroke-width="2" fill="none" />
<polyline points="349.0,364.0,357.5,356.5" stroke="black" stroke-width="2" fill="none" />
<polyline points="353.0,352.5,361.0,351.5,369.0,350.5,377.0,348.5,384.5,347.5" stroke="black" stroke-width="2" fill="none" />
<polyline points="348.0,323.5,340.0,331.0,332.0,339.0,323.5,346.5,315.0,354.0" stroke="black" stroke-width="2" fill="none" />
<polyline points="298.0,361.0,306.5,353.5,314.5,346.5,322.5,339.0,330.5,331.0,339.5,323.0,347.5,315.5" stroke="black" stroke-width="2" fill="none" />
<polyline points="341.0,316.5,333.5,323.5,325.5,330.5,317.5,337.5,310.0,344.5,301.5,351.5,293.5,359.0" stroke="black" stroke-width="2" fill="none" />
<polyline points="282.5,360.5,290.5,353.5,299.0,346.0,308.0,338.5,317.0,331.0,325.5,323.0,334.0,315.5" stroke="black" stroke-width="2" fill="none" />
<polyline points="333.0,307.0,325.5,314.5,317.5,322.5,309.5,330.0,301.0,337.5,293.0,344.5,285.0,352.0,276.0,359.5" stroke="black" stroke-width="2" fill="none" />
<polyline points="267.0,358.0,274.5,350.5,282.0,343.0,290.5,335.5,298.0,328.0,306.0,320.0,313.5,312.5,321.0,305.0" stroke="black" stroke-width="2" fill="none" />
<polyline points="316.5,307.5,308.5,315.5,300.5,323.0,292.0,331.0,284.0,339.0,275.5,346.5,267.5,354.0,259.0,361.5,251.0,369.0" stroke="black" stroke-width="2" fill="none" />
<polyline points="245.5,367.0,253.0,360.0,260.0,353.0,268.0,346.0,276.0,338.5,284.0,331.0,292.5,323.5,301.0,316.0,308.5,308.5,316.5,301.5" stroke="black" stroke-width="2" fill="none" />
<polyline points="309.5,299.5,301.5,307.0,293.0,314.0,284.5,321.0,276.5,328.5,268.5,335.5,260.5,343.0,252.5,351.0,244.5,358.5,236.0,366.0" stroke="black" stroke-width="2" fill="none" />
<polyline points="235.0,371.0,227.0,371.5,219.5,371.5,212.0,372.0,204.0,372.0,196.0,372.5" stroke="black" stroke-width="2" fill="none" />
<polyline points="194.5,370.0,203.0,369.5,212.0,368.5,220.5,368.0,229.0,367.5,237.0,367.0,245.5,366.0" stroke="black" stroke-width="2" fill="none" />
<polyline points="236.5,380.5,228.5,381.0,220.0,381.5" stroke="black" stroke-width="2" fill="none" />
<polyline points="221.5,379.0,229.5,378.5" stroke="black" stroke-width="2" fill="none" />
<polyline points="226.0,380.5,217.5,387.5" stroke="black" stroke-width="2" fill="none" />
<polyline points="221.5,388.0,229.0,387.5,236.5,387.0" stroke="black" stroke-width="2" fill="none" />
<polyline points="235.5,393.5,227.0,401.5" stroke="black" stroke-width="2" fill="none" />
<polyline points="225.5,396.0,217.5,403.5" stroke="black" stroke-width="2" fill="none" />
<polyline points="218.0,403.0,226.0,402.5,234.5,402.0" stroke="black" stroke-width="2" fill="none" />
<polyline points="235.0,412.5,226.5,413.0,218.5,413.0" stroke="black" stroke-width="2" fill="none" />
<polyline points="219.5,423.0,227.5,422.5,236.0,421.5" stroke="black" stroke-width="2" fill="none" />
<polyline points="234.0,436.5,226.5,437.0,219.0,438.0" stroke="black" stroke-width="2" fill="none" />
<polyline points="220.0,430.5,228.0,430.0,236.0,430.0" stroke="black" stroke-width="2" fill="none" />
<polyline points="235.5,452.0,227.0,452.5,219.0,453.0" stroke="black" stroke-width="2" fill="none" />
<polyline points="219.5,446.0,227.0,445.5,235.0,444.5" stroke="black" stroke-width="2" fill="none" />
<polyline points="235.5,460.5,227.5,461.5,219.5,462.0" stroke="black" stroke-width="2" fill="none" />
<polyline points="221.0,470.5,229.0,470.0,237.0,470.0" stroke="black" stroke-width="2" fill="none" />
<polyline points="234.5,484.5,226.5,484.5,218.0,485.0" stroke="black" stroke-width="2" fill="none" />
<polyline points="219.5,479.0,227.5,478.0,235.5,477.5" stroke="black" stroke-width="2" fill="none" />
<polyline points="250.0,494.0,258.5,493.5,267.0,493.0,275.5,492.5,283.5,491.5,291.5,491.0" stroke="black" stroke-width="2" fill="none" />
<polyline points="291.0,496.0,305.0,504.0,314.5,512.0,325.5,520.0,334.5,527.5" stroke="black" stroke-width="2" fill="none" />
<polyline points="326.0,523.0,318.0,531.0" stroke="black" stroke-width="2" fill="none" />
<polyline points="316.5,529.0,324.5,529.0,332.5,528.5" stroke="black" stroke-width="2" fill="none" />
<polyline points="324.5,515.0,316.5,522.0" stroke="black" stroke-width="2" fill="none" />
<polyline points="314.5,516.5,306.5,523.5" stroke="black" stroke-width="2" fill="none" />
<polyline points="308.0,526.0,315.5,525.5,323.0,525.0,331.0,525.0,339.0,524.5,346.5,525.0,355.0,524.5" stroke="black" stroke-width="2" fill="none" />
<polyline points="358.0,500.0,350.0,500.0,342.0,500.0" stroke="black" stroke-width="2" fill="none" />
<polyline points="337.5,500.5,345.5,493.0" stroke="black" stroke-width="2" fill="none" />
<polyline points="339.5,493.0,347.5,485.5" stroke="black" stroke-width="2" fill="none" />
<polyline points="338.5,483.0,346.5,475.5" stroke="black" stroke-width="2" fill="none" />
<polyline points="340.5,477.0,348.0,476.5,356.0,476.5" stroke="black" stroke-width="2" fill="none" />
<polyline points="356.0,494.0,347.5,494.5,339.0,495.0" stroke="black" stroke-width="2" fill="none" />
<polyline points="337.0,486.5,345.0,486.0,353.5,485.5" stroke="black" stroke-width="2" fill="none" />
<polyline points="355.5,467.0,348.0,467.0,340.0,467.5" stroke="black" stroke-width="2" fill="none" />
<polyline points="340.0,462.0,348.0,461.5,355.5,461.0" stroke="black" stroke-width="2" fill="none" />
<polyline points="354.0,453.5,345.5,454.5,337.5,455.5" stroke="black" stroke-width="2" fill="none" />
<polyline points="337.0,448.0,345.5,447.5,354.0,447.0" stroke="black" stroke-width="2" fill="none" />
<polyline points="354.5,437.5,346.5,438.5,338.5,439.5" stroke="black" stroke-width="2" fill="none" />
<polyline points="338.5,429.5,347.0,429.0,355.5,428.5" stroke="black" stroke-width="2" fill="none" />
<polyline points="357.5,421.0,349.5,421.5,341.5,422.0" stroke="black" stroke-width="2" fill="none" />
<polyline points="341.0,413.0,349.0,413.0,356.5,412.0" stroke="black" stroke-width="2" fill="none" />
<polyline points="356.0,404.5,348.0,405.0,340.0,405.0" stroke="black" stroke-width="2" fill="none" />
<polyline points="340.5,397.0,348.0,396.5,355.5,395.5" stroke="black" stroke-width="2" fill="none" />
<polyline points="356.5,387.5,349.0,388.0,341.5,388.5" stroke="black" stroke-width="2" fill="none" />
<polyline points="338.0,376.0,346.5,375.0,354.5,374.5" stroke="black" stroke-width="2" fill="none" />
<polyline points="353.5,365.0,346.0,365.5,338.5,366.0" stroke="black" stroke-width="2" fill="none" />
<polyline points="308.5,291.5,300.5,299.0,292.5,306.5,285.0,314.0,277.0,321.5,269.0,328.5,261.0,336.5,253.0,344.5,244.5,352.0,236.0,359.0,228.0,367.0,220.5,374.0" stroke="black" stroke-width="2" fill="none" />
<polyline points="228.0,372.5,230.0,381.0,231.0,389.0,232.0,397.0,232.0,405.0,232.5,413.0,233.5,421.5,233.5,429.5,233.0,438.0,233.0,446.0,233.0,454.5,234.5,462.5,234.5,470.0,235.0,478.0,235.5,486.0,236.0,493.5,236.5,506.0,244.5,504.0,252.0,503.0" stroke="black" stroke-width="2" fill="none" />
<polyline points="253.0,500.5,245.0,508.0,237.0,515.0" stroke="black" stroke-width="2" fill="none" />
<polyline points="238.0,515.0,237.5,523.0,237.5,530.5,237.5,538.0,237.0,546.0,236.5,554.0,236.0,561.5,236.0,569.5,235.5,577.5,235.5,585.5,233.5,593.0,228.5,601.5,220.0,599.0" stroke="black" stroke-width="2" fill="none" />
<polyline points="221.0,598.0,218.0,606.0" stroke="black" stroke-width="2" fill="none" />
<polyline points="213.5,598.5,221.0,598.5,229.0,598.0,236.5,597.0" stroke="black" stroke-width="2" fill="none" />
<polyline points="236.0,588.5,228.0,589.0,219.5,589.5" stroke="black" stroke-width="2" fill="none" />
<polyline points="219.5,595.0,227.0,588.0" stroke="black" stroke-width="2" fill="none" />
<polyline points="219.5,582.5,227.5,582.0,235.5,581.0" stroke="black" stroke-width="2" fill="none" />
<polyline points="236.0,573.0,228.5,574.0,220.5,574.5" stroke="black" stroke-width="2" fill="none" />
<polyline points="220.0,567.0,228.0,566.5,235.5,566.0" stroke="black" stroke-width="2" fill="none" />
<polyline points="237.0,557.5,229.5,558.0,221.0,558.5" stroke="black" stroke-width="2" fill="none" />
<polyline points="218.5,549.5,226.5,549.0,234.5,548.5" stroke="black" stroke-width="2" fill="none" />
<polyline points="234.5,539.0,226.5,539.0,219.0,539.5" stroke="black" stroke-width="2" fill="none" />
<polyline points="217.0,533.5,225.5,533.0,234.0,533.0" stroke="black" stroke-width="2" fill="none" />
<polyline points="232.5,525.5,224.5,526.0,216.5,526.5" stroke="black" stroke-width="2" fill="none" />
<polyline points="217.5,515.5,225.5,508.0" stroke="black" stroke-width="2" fill="none" />
<polyline points="220.5,507.0,212.0,515.0" stroke="black" stroke-width="2" fill="none" />
<polyline points="210.0,507.5,202.0,515.0" stroke="black" stroke-width="2" fill="none" />
<polyline points="195.5,516.0,203.5,508.5" stroke="black" stroke-width="2" fill="none" />
<polyline points="195.0,508.0,187.0,515.5,179.0,523.5" stroke="black" stroke-width="2" fill="none" />
<polyline points="179.0,516.0,171.0,523.5" stroke="black" stroke-width="2" fill="none" />
<polyline points="171.0,516.0,162.5,524.0" stroke="black" stroke-width="2" fill="none" />
<polyline points="156.0,522.0,164.0,514.5" stroke="black" stroke-width="2" fill="none" />
<polyline points="162.0,509.5,170.5,509.0,179.0,508.5,187.0,508.0,195.0,508.0,203.0,507.5,210.5,507.5,218.5,507.0,226.5,507.0,234.5,507.0,242.5,506.5,250.5,506.0,258.0,505.0,266.0,505.0" stroke="black" stroke-width="2" fill="none" />
<polyline points="266.5,508.0,275.0,501.0" stroke="black" stroke-width="2" fill="none" />
<polyline points="275.0,506.5,283.0,498.5" stroke="black" stroke-width="2" fill="none" />
<polyline points="284.0,504.0,292.0,503.5,299.5,503.5" stroke="black" stroke-width="2" fill="none" />
<polyline points="298.5,501.5,290.5,509.0" stroke="black" stroke-width="2" fill="none" />
<polyline points="292.5,512.5,300.0,512.5,307.5,513.0" stroke="black" stroke-width="2" fill="none" />
<polyline points="309.5,508.5,301.5,515.5" stroke="black" stroke-width="2" fill="none" />
<polyline points="300.5,519.0,308.5,518.5,316.0,517.5,323.5,517.0,330.5,516.5" stroke="black" stroke-width="2" fill="none" />
<polyline points="316.0,510.0,308.5,517.0,300.5,524.5" stroke="black" stroke-width="2" fill="none" />
<polyline points="309.5,523.0,317.5,522.5,324.5,523.0" stroke="black" stroke-width="2" fill="none" />
<polyline points="317.5,534.5,325.0,534.0,333.0,534.0,341.0,533.5,348.5,532.5,356.0,532.0" stroke="black" stroke-width="2" fill="none" />
<polyline points="333.0,544.5,325.0,537.5,317.5,532.5,309.0,526.0,301.0,519.5,292.5,514.5,284.0,510.0,276.0,508.0,268.0,509.5,259.5,511.5,251.5,512.5,244.0,514.5,236.0,515.5" stroke="black" stroke-width="2" fill="none" />
<polyline points="236.5,508.0,244.5,500.5" stroke="black" stroke-width="2" fill="none" />
<polyline points="245.0,504.5,253.0,504.0,260.5,503.0,268.5,502.5,276.0,503.0" stroke="black" stroke-width="2" fill="none" />
<polyline points="278.5,497.0,270.5,497.5" stroke="black" stroke-width="2" fill="none" />
<polyline points="267.5,498.0,259.5,505.5" stroke="black" stroke-width="2" fill="none" />
<polyline points="258.5,501.5,250.5,508.5" stroke="black" stroke-width="2" fill="none" />
<polyline points="245.5,504.5,237.5,506.5" stroke="black" stroke-width="2" fill="none" />
<polyline points="236.0,510.5,228.5,511.0,221.0,511.0,213.5,511.5,206.0,511.5,197.5,512.5,188.5,513.0,180.0,513.5,171.5,514.0,163.0,514.5,155.0,515.0,147.0,515.0,139.0,515.0,131.5,515.5,124.0,516.0" stroke="black" stroke-width="2" fill="none" />
<polyline points="125.0,524.0,117.0,532.0,109.0,539.0,101.0,546.0" stroke="black" stroke-width="2" fill="none" />
<polyline points="100.0,542.0,108.0,541.5,116.5,541.0,124.0,540.5" stroke="black" stroke-width="2" fill="none" />
<polyline points="119.5,536.5,120.5,544.5,129.0,552.0,137.0,559.5,145.0,568.0,154.0,576.0,162.0,584.0,171.0,591.5,180.0,599.5,183.0,605.5,191.0,606.5,199.0,606.5,207.0,607.5,215.0,604.5,222.5,596.5" stroke="black" stroke-width="2" fill="none" />
<polyline points="218.5,596.5,214.0,604.5" stroke="black" stroke-width="2" fill="none" />
<polyline points="186.0,604.5,178.0,612.0" stroke="black" stroke-width="2" fill="none" />
<polyline points="178.5,612.0,186.5,612.0,194.5,611.5,203.0,611.0,211.5,611.0" stroke="black" stroke-width="2" fill="none" />
<polyline points="226.0,602.0,218.5,602.5,211.0,602.5,203.0,603.5,195.5,604.0,188.0,605.0,180.0,605.5,172.0,606.0,163.5,606.5" stroke="black" stroke-width="2" fill="none" />
<polyline points="163.5,601.5,171.5,601.5" stroke="black" stroke-width="2" fill="none" />
<polyline points="171.0,603.5,179.0,596.0" stroke="black" stroke-width="2" fill="none" />
<polyline points="181.0,603.5,173.0,611.0" stroke="black" stroke-width="2" fill="none" />
<polyline points="174.0,606.5,181.5,606.0" stroke="black" stroke-width="2" fill="none" />
<polyline points="181.0,594.0,172.5,594.5,164.0,594.5,156.0,595.0" stroke="black" stroke-width="2" fill="none" />
<polyline points="156.5,596.0,165.0,589.0" stroke="black" stroke-width="2" fill="none" />
<polyline points="169.5,586.0,161.0,593.0" stroke="black" stroke-width="2" fill="none" />
<polyline points="158.5,592.5,166.0,592.0" stroke="black" stroke-width="2" fill="none" />
<polyline points="172.0,592.5,164.0,600.5" stroke="black" stroke-width="2" fill="none" />
<polyline points="168.5,608.5,176.5,611.5,184.5,613.0,193.0,614.0,201.0,614.0,209.0,614.5" stroke="black" stroke-width="2" fill="none" />
<polyline points="188.5,620.0,196.5,621.0,204.5,620.0,212.5,617.0,220.5,612.0,228.5,602.5" stroke="black" stroke-width="2" fill="none" />
<polyline points="216.0,607.0,207.5,610.5,200.0,609.5,192.0,608.5,184.0,607.0,180.0,613.0,172.0,613.0,163.0,605.0,155.0,597.5,147.0,589.5,139.0,582.0,130.0,573.5,122.0,565.5,114.0,557.5,105.0,549.5,101.0,541.5,99.5,533.5,104.0,525.5,114.0,525.5,112.5,526.0" stroke="black" stroke-width="2" fill="none" />
<polyline points="112.5,525.5,104.5,532.5,97.0,539.5" stroke="black" stroke-width="2" fill="none" />
<polyline points="100.5,541.0,108.0,552.0,116.0,559.0,124.0,567.5,132.0,575.5,140.0,583.0,148.0,591.0,156.5,598.5,165.0,606.5,173.0,613.5,181.5,617.5,189.5,618.5,197.0,617.0" stroke="black" stroke-width="2" fill="none" />
<polyline points="172.0,588.5,163.5,589.0,155.5,589.5,147.0,590.0" stroke="black" stroke-width="2" fill="none" />
<polyline points="146.0,586.0,154.0,585.5" stroke="black" stroke-width="2" fill="none" />
<polyline points="148.5,585.0,157.0,577.5" stroke="black" stroke-width="2" fill="none" />
<polyline points="157.0,571.5,149.0,578.5,140.5,585.5" stroke="black" stroke-width="2" fill="none" />
<polyline points="138.0,581.0,146.0,580.5,154.0,579.5,162.0,578.5" stroke="black" stroke-width="2" fill="none" />
<polyline points="164.0,578.5,156.5,586.0,148.5,594.0" stroke="black" stroke-width="2" fill="none" />
<polyline points="140.0,577.5,148.0,570.0" stroke="black" stroke-width="2" fill="none" />
<polyline points="148.0,561.5,140.5,568.5,132.0,575.5" stroke="black" stroke-width="2" fill="none" />
<polyline points="132.0,571.5,140.0,571.0,148.0,571.0,156.5,570.5" stroke="black" stroke-width="2" fill="none" />
<polyline points="147.0,576.0,139.5,576.5" stroke="black" stroke-width="2" fill="none" />
<polyline points="131.0,571.0,139.0,564.0" stroke="black" stroke-width="2" fill="none" />
<polyline points="132.0,563.5,123.5,571.0" stroke="black" stroke-width="2" fill="none" />
<polyline points="123.0,566.0,131.5,565.5,139.5,564.5,148.0,563.5" stroke="black" stroke-width="2" fill="none" />
<polyline points="140.5,568.5,132.5,568.5" stroke="black" stroke-width="2" fill="none" />
<polyline points="124.0,561.5,132.0,553.5" stroke="black" stroke-width="2" fill="none" />
<polyline points="124.0,554.5,116.0,562.0" stroke="black" stroke-width="2" fill="none" />
<polyline points="115.5,559.5,123.0,559.0,130.5,558.0,138.5,557.5" stroke="black" stroke-width="2" fill="none" />
<polyline points="131.0,560.0,123.0,560.0" stroke="black" stroke-width="2" fill="none" />
<polyline points="118.5,554.0,126.5,546.5" stroke="black" stroke-width="2" fill="none" />
<polyline points="116.0,549.5,107.5,557.0" stroke="black" stroke-width="2" fill="none" />
<polyline points="109.0,549.5,117.0,549.0,125.0,548.5,133.0,548.0" stroke="black" stroke-width="2" fill="none" />
<polyline points="139.5,530.5,146.5,523.5,154.5,516.0" stroke="black" stroke-width="2" fill="none" />
<polyline points="145.0,527.0,153.0,524.5,161.5,524.0,169.5,522.0" stroke="black" stroke-width="2" fill="none" />
<polyline points="194.5,511.5,203.0,511.5,211.0,511.5,218.5,511.0" stroke="black" stroke-width="2" fill="none" />
<polyline points="221.0,517.0,213.0,518.0,205.0,520.0,197.0,521.5,187.0,516.5,179.0,519.0,171.0,520.0,163.0,522.0,155.0,523.0,147.0,525.0,139.0,526.0,131.0,528.0,123.0,530.0" stroke="black" stroke-width="2" fill="none" />
<polyline points="121.5,529.5,129.5,522.0" stroke="black" stroke-width="2" fill="none" />
<polyline points="121.5,526.5,129.5,524.5,137.0,522.5,145.0,522.0,152.5,520.0,160.5,519.0,168.5,517.5,176.5,515.5,184.0,514.5,192.0,515.5,201.0,511.5,209.0,509.5,217.0,508.5" stroke="black" stroke-width="2" fill="none" />
<polyline points="214.0,502.0,221.5,501.5,229.0,501.0,236.5,500.0,244.0,499.0,251.5,498.5,259.5,498.0,267.5,497.0,275.0,496.5,283.5,495.5,291.5,495.0,299.5,494.5,307.0,494.5" stroke="black" stroke-width="2" fill="none" />
<polyline points="292.0,500.0,284.0,507.5" stroke="black" stroke-width="2" fill="none" />
<polyline points="283.5,509.5,295.5,517.0,306.5,524.5,317.5,532.5,327.5,540.5,335.5,548.0,335.0,556.0,336.0,564.0,339.0,572.5,345.5,580.5" stroke="black" stroke-width="2" fill="none" />
<polyline points="360.0,568.0,351.5,560.0" stroke="black" stroke-width="2" fill="none" />
<polyline points="299.0,510.5,291.0,517.5" stroke="black" stroke-width="2" fill="none" />
<polyline points="283.5,509.5,291.5,509.0,299.5,509.0,307.5,509.0,315.5,508.5" stroke="black" stroke-width="2" fill="none" />
<polyline points="332.5,526.0,324.5,519.5,316.0,512.5,308.0,507.0,300.0,501.0,292.5,497.0,284.5,495.0,277.0,494.5,268.5,495.0,260.0,496.0,251.5,498.0,243.5,499.5,235.0,499.5" stroke="black" stroke-width="2" fill="none" />
<polyline points="234.0,494.0,226.5,495.0,218.5,495.5" stroke="black" stroke-width="2" fill="none" />
<polyline points="214.0,510.5,203.0,515.5,195.0,516.5,187.0,522.5,179.0,523.5,171.0,525.5,163.5,526.5,155.5,528.5,147.5,529.5,139.5,531.5,131.0,534.0,123.0,535.5,115.0,538.5" stroke="black" stroke-width="2" fill="none" />
<polyline points="115.0,539.5,107.0,547.5" stroke="black" stroke-width="2" fill="none" />
<polyline points="110.5,544.5,118.0,544.0" stroke="black" stroke-width="2" fill="none" />
<polyline points="115.5,541.0,123.5,548.5,131.0,555.5,139.0,563.5,146.5,570.5,154.5,578.5,162.5,585.5,171.0,593.5,179.0,601.0,187.0,604.0,195.0,604.0,203.0,604.0,211.0,599.5,219.0,587.5" stroke="black" stroke-width="2" fill="none" />
<polyline points="244.5,605.0,227.5,613.0,222.5,615.0,230.5,612.0,238.5,608.0,247.0,605.0" stroke="black" stroke-width="2" fill="none" />
<polyline points="216.0,614.0,227.0,606.0,227.0,597.5,225.5,589.5,225.5,581.5,225.0,573.0,225.0,565.0,224.0,557.0,224.0,549.0,224.5,541.5,223.5,533.5,223.5,525.5,223.5,517.5" stroke="black" stroke-width="2" fill="none" />
<polyline points="140.5,525.0,132.0,532.0" stroke="black" stroke-width="2" fill="none" />
<polyline points="122.5,528.5,114.5,528.5" stroke="black" stroke-width="2" fill="none" />
<polyline points="109.0,524.5,117.0,524.0,126.0,523.0,134.0,523.0,142.0,523.0,150.5,522.5,158.0,522.0,166.0,521.5,174.0,520.5" stroke="black" stroke-width="2" fill="none" />
<polyline points="123.0,555.0,115.0,555.5" stroke="black" stroke-width="2" fill="none" />
<polyline points="109.0,537.5,116.5,536.5" stroke="black" stroke-width="2" fill="none" />
<polyline points="132.5,533.0,124.5,533.0,116.5,533.0,108.0,533.5,100.0,533.5" stroke="black" stroke-width="2" fill="none" />
<polyline points="99.0,533.5,107.0,524.5,115.0,521.5,123.0,519.5,131.5,519.0,139.5,517.0,147.0,516.0,155.0,514.0,163.0,513.0,171.0,511.0,179.0,508.5,186.5,508.0,195.0,506.0,203.0,505.5,211.5,504.5,220.0,502.5" stroke="black" stroke-width="2" fill="none" />
<polyline points="212.5,598.0,218.5,589.5,220.5,581.0,221.0,573.0,220.5,565.0,220.5,556.5,220.5,549.0,220.5,541.0,221.0,533.5,220.0,525.5,220.0,518.0,223.0,509.5,223.0,502.5,222.5,494.5,222.5,486.0,222.5,477.5,222.5,469.5,222.5,461.5,221.5,453.5,221.5,446.0,221.0,438.5,221.0,430.5,221.0,422.5,221.0,414.5,221.0,406.5,221.0,398.5" stroke="black" stroke-width="2" fill="none" />
<polyline points="220.5,396.0,228.5,395.5,236.0,395.0" stroke="black" stroke-width="2" fill="none" />
<polyline points="227.0,386.0,219.0,393.5" stroke="black" stroke-width="2" fill="none" />
<polyline points="222.0,384.0,212.0,378.0,204.0,378.0,196.0,376.5,188.5,371.0,180.5,366.0,172.5,360.0,164.5,354.5,157.0,348.5,149.0,344.0,141.0,339.0,133.0,333.0,125.0,328.5,117.0,322.5" stroke="black" stroke-width="2" fill="none" />
<polyline points="122.5,321.0,130.5,314.0" stroke="black" stroke-width="2" fill="none" />
<polyline points="132.5,321.5,140.0,313.5,147.5,306.0" stroke="black" stroke-width="2" fill="none" />
<polyline points="142.0,308.0,150.0,300.5" stroke="black" stroke-width="2" fill="none" />
<polyline points="149.5,300.5,142.0,300.5" stroke="black" stroke-width="2" fill="none" />
<polyline points="140.5,298.5,148.0,291.0" stroke="black" stroke-width="2" fill="none" />
<polyline points="141.0,290.5,149.0,283.0" stroke="black" stroke-width="2" fill="none" />
<polyline points="148.5,288.5,140.5,289.0" stroke="black" stroke-width="2" fill="none" />
<polyline points="140.5,283.0,148.5,275.0" stroke="black" stroke-width="2" fill="none" />
<polyline points="146.5,266.5,138.5,273.5" stroke="black" stroke-width="2" fill="none" />
<polyline points="139.5,273.5,148.0,273.0" stroke="black" stroke-width="2" fill="none" />
<polyline points="149.5,280.0,141.5,280.5" stroke="black" stroke-width="2" fill="none" />
<polyline points="147.0,286.0,139.0,286.5,131.5,287.0" stroke="black" stroke-width="2" fill="none" />
<polyline points="130.5,278.5,138.5,278.0,146.5,278.0" stroke="black" stroke-width="2" fill="none" />
<polyline points="138.5,266.0,147.0,259.0" stroke="black" stroke-width="2" fill="none" />
<polyline points="148.0,256.5,140.0,257.5" stroke="black" stroke-width="2" fill="none" />
<polyline points="140.5,258.0,148.5,250.5" stroke="black" stroke-width="2" fill="none" />
<polyline points="149.0,248.5,141.0,248.5" stroke="black" stroke-width="2" fill="none" />
<polyline points="139.0,249.5,147.5,242.0" stroke="black" stroke-width="2" fill="none" />
<polyline points="148.5,240.5,140.5,241.0" stroke="black" stroke-width="2" fill="none" />
<polyline points="138.5,242.0,146.5,234.5" stroke="black" stroke-width="2" fill="none" />
<polyline points="147.0,228.5,138.5,236.5" stroke="black" stroke-width="2" fill="none" />
<polyline points="138.5,232.0,146.0,231.5" stroke="black" stroke-width="2" fill="none" />
<polyline points="137.5,228.0,145.5,220.5" stroke="black" stroke-width="2" fill="none" />
<polyline points="139.5,220.0,147.0,212.5" stroke="black" stroke-width="2" fill="none" />
<polyline points="140.5,212.5,148.0,205.0" stroke="black" stroke-width="2" fill="none" />
<polyline points="146.5,207.0,138.5,207.5" stroke="black" stroke-width="2" fill="none" />
<polyline points="132.0,206.0,140.0,199.0,148.0,192.5,156.0,185.5,164.0,177.5,171.5,169.5,179.5,162.5,187.0,155.5,195.0,148.0,202.5,140.0,210.5,132.0" stroke="black" stroke-width="2" fill="none" />
<polyline points="203.0,131.0,195.0,138.5,187.5,146.5,180.0,154.0,172.0,162.0,164.0,170.0,156.0,178.0,148.0,185.5,140.0,193.0,132.0,201.0" stroke="black" stroke-width="2" fill="none" />
<polyline points="130.5,202.5,138.5,201.5" stroke="black" stroke-width="2" fill="none" />
<polyline points="131.5,207.5,139.0,207.0,147.5,206.0" stroke="black" stroke-width="2" fill="none" />
<polyline points="147.0,215.0,139.5,215.5" stroke="black" stroke-width="2" fill="none" />
<polyline points="133.5,220.5,141.5,220.0,149.5,220.0" stroke="black" stroke-width="2" fill="none" />
<polyline points="146.5,224.5,138.5,225.0" stroke="black" stroke-width="2" fill="none" />
<polyline points="132.0,228.5,140.0,228.5,148.5,228.5" stroke="black" stroke-width="2" fill="none" />
<polyline points="149.0,244.5,140.5,245.5,132.5,246.0" stroke="black" stroke-width="2" fill="none" />
<polyline points="131.5,252.0,139.5,251.5,147.0,251.0" stroke="black" stroke-width="2" fill="none" />
<polyline points="144.0,252.0,144.0,260.0,141.5,267.5,141.5,275.5,141.5,283.5,143.0,291.5,142.5,300.5,140.5,308.5" stroke="black" stroke-width="2" fill="none" />
<polyline points="139.0,297.0,147.0,296.5" stroke="black" stroke-width="2" fill="none" />
<polyline points="155.0,307.0,147.0,315.0,139.0,322.5,131.0,330.0" stroke="black" stroke-width="2" fill="none" />
<polyline points="131.0,331.5,139.0,331.0,147.0,330.5,155.0,330.0,163.0,329.5,171.0,329.0,179.5,328.0,188.0,327.0,196.5,326.0,205.0,325.0,213.5,325.0,221.0,324.5,229.0,324.0,236.5,323.5,244.5,322.0,252.5,321.0,260.0,320.0,267.0,319.5,274.5,318.5,282.5,318.0,291.0,317.5,298.5,317.0,306.5,317.0,314.5,317.0,323.0,316.0,331.0,315.0,339.0,315.0,347.0,314.5,355.0,313.5,363.0,313.0" stroke="black" stroke-width="2" fill="none" />
<polyline points="300.5,292.5,292.0,300.0,284.0,308.0,276.0,315.5,268.0,322.5,259.5,330.0,252.0,336.5,244.0,343.0,236.0,350.0,228.0,357.0,219.5,364.5,211.0,372.5" stroke="black" stroke-width="2" fill="none" />
<polyline points="209.5,375.5,215.5,383.5,216.5,392.0,217.5,400.0,217.0,408.0,217.0,416.0,217.0,424.5,217.5,433.0,218.5,441.5,219.0,449.0,219.0,457.5,219.0,465.5,218.5,473.5,219.5,481.5,220.0,489.5,220.0,497.0" stroke="black" stroke-width="2" fill="none" />
<polyline points="225.5,401.0,227.5,390.0,225.0,382.0" stroke="black" stroke-width="2" fill="none" />
<polyline points="223.0,382.0,223.0,390.0,225.5,398.0,228.5,400.0,228.5,408.0,229.5,416.5,230.0,424.0,230.0,432.0,230.5,440.0,231.5,448.0,231.5,455.5,231.5,463.5,231.0,472.0,231.0,480.0,232.0,487.5,232.5,495.5,232.5,503.5,232.5,512.0,232.5,520.0,233.5,528.0,232.5,536.0,233.5,544.5,233.5,552.5,234.0,560.0,235.0,568.0,234.0,576.0,234.0,584.0,231.5,592.0" stroke="black" stroke-width="2" fill="none" />
<polyline points="229.0,374.0,237.0,373.0,245.0,371.0,253.0,370.0,260.5,368.5,268.5,366.5,276.0,365.5,284.5,364.5,292.5,363.5,301.0,361.5,309.0,360.0,317.0,359.5,325.0,358.5,333.0,357.0,346.0,365.0,348.0,373.0,348.0,384.0,347.5,392.0" stroke="black" stroke-width="2" fill="none" />
<polyline points="290.5,290.5,282.5,298.0,275.0,306.0,267.0,313.5,259.0,321.0,251.0,328.0,243.0,336.0,235.0,343.5,227.0,351.5,218.5,359.5,211.0,367.0,203.0,374.5" stroke="black" stroke-width="2" fill="none" />
<polyline points="202.5,366.5,210.5,359.5,219.0,352.0,227.5,345.0,236.0,337.5,244.0,329.5,252.0,322.0,260.5,314.0,268.5,306.0,276.0,298.0,284.0,290.0" stroke="black" stroke-width="2" fill="none" />
<polyline points="292.5,287.5,307.5,296.0,322.5,304.0,338.5,312.0,353.5,320.0,368.0,328.0,383.5,336.0,389.0,344.0" stroke="black" stroke-width="2" fill="none" />
<polyline points="274.5,290.0,266.5,297.5,259.0,305.5,251.0,313.5,242.5,321.5,234.5,329.5,227.0,337.0,219.5,344.5,212.0,352.0,205.0,359.5,197.0,366.5" stroke="black" stroke-width="2" fill="none" />
<polyline points="188.5,358.5,196.5,351.5,204.5,344.0,213.0,336.5,220.5,329.0,228.5,321.5,236.5,314.0,244.0,306.5,252.0,298.5,260.0,291.0" stroke="black" stroke-width="2" fill="none" />
<polyline points="258.5,297.0,267.0,296.5,275.0,296.0,283.5,295.5,291.5,294.5,300.0,294.0" stroke="black" stroke-width="2" fill="none" />
<polyline points="258.0,281.5,250.0,282.0" stroke="black" stroke-width="2" fill="none" />
<polyline points="250.0,280.0,258.0,279.5,266.5,278.0" stroke="black" stroke-width="2" fill="none" />
<polyline points="256.5,281.5,256.5,274.0" stroke="black" stroke-width="2" fill="none" />
<polyline points="256.0,273.0,256.0,281.0,253.0,289.0" stroke="black" stroke-width="2" fill="none" />
<polyline points="244.0,299.5,235.5,306.5,227.0,314.0,219.0,322.0,211.0,329.5,203.0,337.5,194.5,345.0,186.5,352.5,178.5,359.5" stroke="black" stroke-width="2" fill="none" />
<polyline points="177.5,361.5,185.5,360.5,193.5,360.0,202.0,359.5,210.0,359.5,218.0,359.5,226.5,359.0,235.0,358.5,243.5,358.0,252.5,358.0,260.5,357.5,268.5,357.0,276.0,356.0,283.5,355.0,291.0,354.0" stroke="black" stroke-width="2" fill="none" />
<polyline points="237.0,298.0,229.0,305.5,220.5,313.0,212.5,321.0,203.5,328.5,195.0,336.5,187.0,344.0,178.5,351.5" stroke="black" stroke-width="2" fill="none" />
<polyline points="173.5,354.0,181.0,353.5,189.0,353.0,196.5,352.5,204.5,351.0,212.5,350.0,220.0,349.0,227.0,348.5,234.5,347.5,242.5,347.0,251.0,346.5,258.5,346.0,266.5,346.0,274.5,346.0,283.0,345.0,291.0,344.0,299.0,344.0,307.0,343.5,315.0,342.5,323.0,342.0,331.0,341.0,339.0,340.5,347.5,340.5,355.5,340.5" stroke="black" stroke-width="2" fill="none" />
<polyline points="261.0,265.0,253.0,265.0" stroke="black" stroke-width="2" fill="none" />
<polyline points="251.5,257.5,259.5,257.0" stroke="black" stroke-width="2" fill="none" />
<polyline points="260.5,246.5,252.5,247.5" stroke="black" stroke-width="2" fill="none" />
<polyline points="252.5,241.0,260.5,240.5" stroke="black" stroke-width="2" fill="none" />
<polyline points="252.0,238.0,260.5,237.5,268.5,236.5" stroke="black" stroke-width="2" fill="none" />
<polyline points="268.5,228.0,260.5,229.0,253.0,230.0" stroke="black" stroke-width="2" fill="none" />
<polyline points="252.5,221.0,260.5,221.0,268.5,220.5" stroke="black" stroke-width="2" fill="none" />
<polyline points="258.5,209.0,250.0,210.0" stroke="black" stroke-width="2" fill="none" />
<polyline points="250.0,198.0,258.5,197.5,267.0,196.5" stroke="black" stroke-width="2" fill="none" />
<polyline points="265.5,185.5,264.5,193.5,263.5,201.5,263.5,209.5,263.5,217.5,263.0,225.5,262.5,233.5,262.5,241.0,262.5,248.5,262.5,257.0,261.5,265.0,261.5,273.0,261.5,281.0,260.5,289.5,255.5,292.0" stroke="black" stroke-width="2" fill="none" />
<polyline points="237.5,292.0,245.0,291.0,253.0,291.0,261.0,291.0,269.5,290.5,277.5,290.5,285.5,290.0,293.0,290.0,301.0,290.0,308.5,290.0" stroke="black" stroke-width="2" fill="none" />
<polyline points="226.0,300.5,218.0,308.0,210.5,315.0,202.0,323.0,193.5,330.5,185.5,338.0,178.0,345.0,170.0,352.5" stroke="black" stroke-width="2" fill="none" />
<polyline points="172.0,357.5,180.0,357.5,188.5,357.0,197.0,356.0,205.5,355.0,213.0,354.5,221.0,354.0,228.0,353.5,235.5,353.5,243.0,353.0,250.5,352.5,258.5,352.0,266.5,351.5,274.5,351.0,282.0,351.0,290.5,350.0,298.5,349.5,306.0,349.0,314.0,348.5,322.0,348.5" stroke="black" stroke-width="2" fill="none" />
<polyline points="220.0,300.5,212.0,307.5,204.0,314.5,196.0,321.5,188.0,329.0,180.0,336.5,172.5,344.0,164.5,351.5" stroke="black" stroke-width="2" fill="none" />
<polyline points="161.5,349.0,169.5,349.0,178.5,349.0,186.5,348.5,195.0,347.5,203.0,346.5,211.0,346.0,218.5,345.5,226.5,345.0,234.5,344.5,242.0,344.0,250.5,343.5,258.5,343.5,267.0,342.5,275.5,342.0,284.0,341.5,292.0,340.5,300.0,340.5,308.0,340.0,315.5,339.5,323.5,339.0,332.0,338.5,339.5,338.0,347.5,337.5,355.5,336.5,363.5,336.0,371.5,335.5,379.5,334.0" stroke="black" stroke-width="2" fill="none" />
<polyline points="315.5,299.0,307.0,299.5,298.5,300.5,290.0,301.0,282.0,301.5,274.0,302.0,266.0,302.5,258.5,303.0,251.0,303.5,243.0,304.0,235.0,304.5,227.0,305.0,219.5,305.5,211.5,305.5" stroke="black" stroke-width="2" fill="none" />
<polyline points="209.5,298.5,201.5,306.5,193.5,314.5,185.5,322.0,178.0,330.0,170.0,338.0,162.0,345.5" stroke="black" stroke-width="2" fill="none" />
<polyline points="157.0,345.5,165.0,345.0,172.5,344.5,180.0,344.0,187.5,344.0,195.0,343.5,202.5,342.5,211.0,341.5,219.5,340.5,227.0,340.5,235.0,340.0,243.0,339.5,251.5,339.0,259.5,338.0,267.0,337.5,274.5,337.0,282.5,336.0,290.5,335.0,298.0,334.0,306.0,334.0,314.5,333.5,322.5,333.0,331.0,333.0,339.5,333.0,347.5,333.0,355.5,333.0,363.0,333.0,370.5,333.5,378.5,333.0,386.5,332.5" stroke="black" stroke-width="2" fill="none" />
<polyline points="203.0,300.5,195.5,308.0,188.0,315.5,180.5,322.5,172.5,329.5,165.0,337.0,157.0,344.5" stroke="black" stroke-width="2" fill="none" />
<polyline points="157.0,338.0,165.0,330.0,172.5,323.0,179.5,315.5,187.0,308.0" stroke="black" stroke-width="2" fill="none" />
<polyline points="180.0,305.5,172.0,313.0,164.5,321.5,156.5,330.0,148.5,338.0" stroke="black" stroke-width="2" fill="none" />
<polyline points="146.0,339.0,154.0,338.0,162.0,337.5,170.0,336.5,178.0,335.5,186.0,334.5,194.5,334.0,203.0,333.0,210.5,332.5,218.5,332.5,226.5,332.0,234.5,332.0,243.0,331.5,251.0,331.0,259.5,330.5,267.5,330.5,276.0,330.5,284.0,330.0,292.5,329.5,300.5,329.5,308.5,328.5,316.5,328.0,324.5,327.5,332.5,327.0,340.5,326.5,349.0,326.0,356.5,325.5,364.5,324.5,372.5,323.5,380.0,322.5" stroke="black" stroke-width="2" fill="none" />
<polyline points="268.0,185.0,259.5,185.5,251.5,185.5" stroke="black" stroke-width="2" fill="none" />
<polyline points="251.0,185.0,258.0,177.5,266.5,170.5,274.5,163.5,282.0,156.5,289.5,148.5,297.0,141.0" stroke="black" stroke-width="2" fill="none" />
<polyline points="299.0,131.5,291.0,139.0,282.5,147.0,274.5,155.0,267.0,163.0,258.5,170.5,251.0,177.5,243.5,184.5" stroke="black" stroke-width="2" fill="none" />
<polyline points="234.0,185.5,242.0,177.5,250.5,170.5,258.5,163.0,266.5,155.0,274.0,147.0,282.0,139.0,290.0,131.5" stroke="black" stroke-width="2" fill="none" />
<polyline points="282.0,131.0,274.5,138.5,267.0,146.0,259.5,153.5,252.0,161.5,244.0,169.0,236.0,176.5,228.0,184.0" stroke="black" stroke-width="2" fill="none" />
<polyline points="220.5,184.0,228.0,176.0,236.0,168.0,244.0,160.5,251.5,153.0,258.5,145.5,266.0,138.0,273.5,130.5" stroke="black" stroke-width="2" fill="none" />
<polyline points="268.5,133.0,260.0,140.5,252.0,148.0,244.0,155.5,235.5,163.0,228.0,170.5,220.0,178.0,212.5,185.0" stroke="black" stroke-width="2" fill="none" />
<polyline points="204.0,186.5,211.5,179.0,219.5,171.5,227.5,164.0,236.5,156.5,245.0,149.0,253.0,141.5,261.0,133.5" stroke="black" stroke-width="2" fill="none" />
<polyline points="252.5,131.0,244.5,138.5,236.5,146.5,228.0,154.0,219.5,162.0,212.0,169.5,204.0,177.5,196.0,185.0" stroke="black" stroke-width="2" fill="none" />
<polyline points="187.0,184.5,195.5,176.5,203.5,168.5,212.0,161.0,220.0,154.0,228.5,146.5,236.5,139.0,244.5,131.0" stroke="black" stroke-width="2" fill="none" />
<polyline points="236.5,131.0,228.0,138.5,220.0,145.5,211.5,153.0,203.0,161.0,195.0,168.5,186.5,176.0,178.5,183.5" stroke="black" stroke-width="2" fill="none" />
<polyline points="171.5,184.5,180.0,177.5,188.0,170.0,196.0,162.5,203.5,154.5,211.5,147.0,219.0,139.0,227.5,132.0" stroke="black" stroke-width="2" fill="none" />
<polyline points="219.5,131.0,211.5,138.5,204.0,145.5,196.5,153.0,188.5,160.0,180.5,168.0,173.0,176.0,165.0,183.5" stroke="black" stroke-width="2" fill="none" />
<polyline points="146.5,191.5,139.0,192.0,131.0,192.5,123.0,193.5" stroke="black" stroke-width="2" fill="none" />
<polyline points="124.0,191.0,131.5,183.5,139.5,177.0,148.0,170.0,156.0,162.5,164.5,154.5,172.5,146.5,180.5,139.5,188.5,132.0" stroke="black" stroke-width="2" fill="none" />
<polyline points="187.5,136.5,195.5,136.0,203.5,135.5,212.0,134.5,220.0,134.5,228.0,134.0,236.0,133.5,244.0,133.0,251.5,133.0,259.5,133.0,267.5,132.5,276.0,132.0,284.0,131.5" stroke="black" stroke-width="2" fill="none" />
<polyline points="308.0,121.5,299.5,122.5,291.5,123.0,283.0,123.0,275.5,124.0,267.0,125.0,259.0,126.0,251.0,127.5,243.0,128.5,235.5,129.0,227.5,129.0,219.0,129.5,211.0,129.5,204.0,130.0,196.5,131.0,189.0,131.5,181.0,132.0,173.5,133.0,165.0,134.0,157.0,135.0" stroke="black" stroke-width="2" fill="none" />
<polyline points="156.5,137.5,148.0,145.5,140.0,153.0,132.0,160.5,124.0,169.0" stroke="black" stroke-width="2" fill="none" />
<polyline points="125.0,169.0,132.5,169.0,140.5,168.5,148.0,167.5,156.0,167.0,164.0,166.5,171.5,165.5,179.5,164.5,187.5,163.5,195.5,163.0,203.5,162.5,211.0,162.0,219.0,162.0,227.0,161.5,234.5,161.5,242.0,161.5,250.0,160.5,257.5,160.0,265.5,159.5,273.5,159.5,281.5,159.5,289.5,158.5,297.5,158.0" stroke="black" stroke-width="2" fill="none" />
<polyline points="298.0,132.5,290.0,133.0,282.5,133.5,274.0,134.0,266.5,134.5,259.0,135.0,251.5,136.0,243.0,136.5,234.0,137.5,226.0,138.5,218.0,139.5,210.0,140.0,202.0,140.5,194.0,141.5,186.0,142.5,178.0,142.5,170.0,143.0,162.5,143.5,154.5,144.5,146.5,145.0,138.5,145.5,131.0,145.5" stroke="black" stroke-width="2" fill="none" />
<polyline points="134.5,137.5,131.0,137.5,121.0,145.0,121.0,153.0,121.0,161.0,122.0,169.0,122.0,177.0,122.5,185.0,122.5,192.5,124.0,200.5,134.0,208.5,133.5,216.5,133.5,224.5,133.5,232.5,133.0,240.5,134.0,249.0,134.0,257.0,134.0,265.0,133.5,273.5,133.0,281.5,134.0,289.5,134.0,297.5,135.0,305.0,143.5,307.0,154.5,307.0,162.5,305.0,170.5,304.0,178.5,303.0,186.5,302.5,194.0,301.5,202.0,300.0,210.0,298.0,218.0,297.5,225.5,296.5,233.5,295.5,241.5,294.5,252.0,291.5,265.0,291.0,272.5,290.0,280.5,289.0,288.5,288.5,297.0,291.5,305.0,295.5,313.5,299.5,321.5,304.0,330.0,308.0,338.0,312.0,346.0,316.0,354.5,319.5,362.5,324.5,370.5,328.5,378.5,332.5,386.5,336.5" stroke="black" stroke-width="2" fill="none" />
<polyline points="322.5,292.5,314.5,293.0,307.0,294.0,299.0,294.5,291.5,295.5,283.5,296.5,275.5,297.0,268.0,297.5,260.0,298.0,251.5,298.0,243.5,298.5,235.5,298.5,227.0,298.5,219.0,298.5,210.5,298.5,203.0,298.5,195.0,298.5,187.0,299.0,178.5,299.5" stroke="black" stroke-width="2" fill="none" />
<polyline points="172.0,309.0,163.5,316.5,155.0,324.0,146.5,331.0,138.5,338.0" stroke="black" stroke-width="2" fill="none" />
<polyline points="140.5,333.0,149.0,332.0,157.0,331.0,165.0,330.0,173.5,329.5,181.0,329.5,189.0,329.0,196.5,329.0,204.5,328.5,213.0,327.5,221.5,327.0,229.0,326.5,236.5,326.0,244.0,325.5,252.5,325.5,260.5,325.0,268.0,325.0,276.0,325.0,284.0,325.0,292.5,324.0,300.5,323.0,308.5,323.0,316.5,322.5,324.0,322.0,331.5,321.5,339.5,321.0,347.0,321.0,355.0,320.5,363.0,320.5,370.5,321.0,378.0,321.0,386.5,320.0" stroke="black" stroke-width="2" fill="none" />
<polyline points="333.0,303.0,325.0,303.0,317.0,304.0,309.0,304.5,300.5,305.0,292.0,306.0,283.5,306.5,275.5,307.5,267.5,308.0,259.5,308.5,251.5,309.0,243.5,310.0,235.5,310.5,227.0,311.0,219.0,311.0,211.0,311.5,203.5,311.5,195.0,312.0,187.0,312.0,179.0,312.0,171.5,312.0,163.5,312.5" stroke="black" stroke-width="2" fill="none" />
<polyline points="165.0,308.5,157.5,316.5,149.0,324.0,140.5,331.5" stroke="black" stroke-width="2" fill="none" />
<polyline points="146.0,343.5,154.0,342.5,162.0,342.0,170.0,341.5,178.5,341.5,187.0,341.5,195.5,340.5,203.5,339.5,212.0,339.0,220.0,338.5,227.5,338.0,235.5,337.5,244.0,336.5,252.5,336.0,261.0,336.0,269.5,335.0,277.5,334.5,285.0,334.0,293.0,333.0,300.5,332.5,308.0,332.0,316.5,331.5,324.5,330.5,333.0,329.5,341.5,329.0,349.5,328.5,357.0,327.5,364.5,327.0,372.0,327.0,380.0,326.5,388.0,326.0,396.0,326.0" stroke="black" stroke-width="2" fill="none" />
<polyline points="370.0,309.0,362.0,309.5,354.0,310.0,346.0,310.0,337.5,311.0,329.5,311.5,322.0,312.0,314.5,313.0,308.0,314.5,300.5,315.5,293.5,316.5,285.5,317.0,277.0,317.5,269.0,318.0,261.0,318.0,253.0,318.5,244.5,318.5,236.5,319.0,227.5,319.5,219.0,319.5,211.0,319.5,203.0,320.0,195.0,320.5,187.5,321.0,179.5,321.5,171.5,322.5,164.0,323.0,156.0,323.0,147.5,323.5,139.5,323.5,131.5,324.0,123.5,324.5" stroke="black" stroke-width="2" fill="none" />
<polyline points="123.0,321.0,130.5,321.0,138.5,320.5,146.5,320.0,155.0,319.0,163.0,318.5,171.5,318.0,179.5,317.5,187.5,317.0,196.0,316.5,204.5,316.0,212.5,315.5,220.0,315.0,228.0,314.5,236.0,314.5,244.0,314.0,252.5,313.5,261.0,313.0,269.5,313.0,277.5,313.0,285.5,312.5,293.0,312.5,301.0,312.0,308.5,311.0,316.5,311.0,324.5,310.5,331.5,309.5,339.0,308.5,346.5,307.5" stroke="black" stroke-width="2" fill="none" />
<polyline points="339.5,295.0,331.5,296.0,323.5,296.5,316.0,297.0,308.5,298.0,301.0,299.0,293.5,299.5,286.0,300.0,277.5,300.5,269.5,301.5,261.0,302.0,252.5,302.0,244.0,301.5,236.0,302.0,228.5,302.5,221.0,302.5,213.5,303.0,205.5,303.5,197.0,304.0,189.0,305.0,180.5,306.0,172.0,307.0,163.5,308.0,155.0,308.5,147.0,309.5,138.5,310.0,130.0,310.0,121.5,311.0" stroke="black" stroke-width="2" fill="none" />
<polyline points="118.0,313.5,116.0,321.5,125.0,329.0,136.5,337.0,148.5,345.0,160.0,353.0,172.0,361.0,184.5,369.0,196.5,377.0" stroke="black" stroke-width="2" fill="none" />
<polyline points="147.0,294.0,138.5,295.0,130.0,295.5" stroke="black" stroke-width="2" fill="none" />
<polyline points="131.5,310.5,123.5,311.5,116.0,313.0" stroke="black" stroke-width="2" fill="none" />
<polyline points="114.5,317.0,122.5,316.0,131.0,315.0,139.5,314.0,148.0,313.5,156.0,313.5,164.0,312.5,172.0,312.0,180.0,311.5,187.5,311.5,195.5,311.0,203.5,310.5,211.0,310.0,219.0,309.0,227.0,309.0,235.0,309.0,243.5,308.0,252.0,307.0,260.0,306.5,268.0,305.5,276.0,305.0,284.0,304.5,292.5,304.5,301.0,304.0,309.0,304.0,316.5,304.5,325.0,304.5,333.0,304.5,341.0,304.5,349.0,304.5,357.0,303.5" stroke="black" stroke-width="2" fill="none" />
<polyline points="308.0,169.0,299.5,169.0,292.0,169.5,284.5,170.5,276.5,170.5,268.5,171.0,260.0,172.0,252.0,173.0,244.0,173.5,236.0,174.0,228.5,174.5,221.0,175.0,212.5,175.5,204.5,176.0,196.5,176.5,188.0,176.5,179.5,176.5,171.0,177.0,163.0,177.0,155.5,178.0,148.0,179.0,140.0,179.5,132.0,180.0,124.5,180.5" stroke="black" stroke-width="2" fill="none" />
<polyline points="126.5,178.5,134.0,178.5,142.0,177.0,149.5,176.0,157.0,175.5,164.0,174.5,171.5,173.5,179.5,173.0,187.0,172.5,194.0,172.0,202.5,171.0,210.0,170.5,218.0,169.5,226.0,169.0,233.5,168.5,241.5,168.0,250.0,167.5,258.5,167.0,267.0,166.5,275.5,166.5,283.5,166.5,291.5,166.0,299.5,165.5" stroke="black" stroke-width="2" fill="none" />
<polyline points="307.0,161.0,298.5,161.5,290.5,162.0,282.5,162.0,274.5,162.5,265.5,163.0,257.5,163.5,249.5,163.5,241.0,164.0,234.0,164.5,226.5,165.5,218.5,166.5,210.5,167.5,202.5,168.0,195.0,168.0,187.5,168.5,179.5,168.5,171.5,169.0,164.0,169.5,156.0,170.5,148.5,171.0,140.5,172.0,132.5,173.0,124.0,174.0" stroke="black" stroke-width="2" fill="none" />
<polyline points="122.0,176.5,131.0,169.0,139.0,161.0,147.5,153.5,156.5,147.0,164.5,139.5" stroke="black" stroke-width="2" fill="none" />
<polyline points="148.0,140.0,140.0,147.5,132.0,155.0,124.0,162.5" stroke="black" stroke-width="2" fill="none" />
<polyline points="123.5,164.5,131.5,164.0,139.5,163.5,147.5,163.0,155.5,162.0,163.0,161.5,171.0,160.5,178.5,160.0,186.5,159.0,194.0,158.5,202.5,158.5,210.5,158.0,219.0,158.0,227.0,158.0,235.5,158.0,243.5,157.5,251.5,156.5,259.0,155.5,267.0,155.0,274.5,154.0,282.5,153.5,291.0,153.0,299.0,152.5,307.0,152.5" stroke="black" stroke-width="2" fill="none" />
<polyline points="301.0,148.0,293.5,148.0,286.0,148.5,277.5,149.0,269.0,149.5,260.5,150.0,252.5,151.0,244.5,151.5,237.0,152.5,228.5,153.5,220.0,154.0,212.0,154.0,204.0,154.5,196.0,155.0,188.0,156.0,179.5,156.5,171.5,156.5,163.5,157.0,155.0,157.5,146.5,158.5,138.5,159.0,130.5,159.5,122.0,160.0" stroke="black" stroke-width="2" fill="none" />
<polyline points="121.5,157.0,130.0,156.5,138.0,156.0,146.5,156.0,154.5,155.5,162.5,155.5,171.0,154.5,179.5,154.0,188.0,153.0,196.5,152.5,204.5,151.5,212.5,151.5,219.5,151.0,227.5,150.5,235.5,150.0,244.0,149.5,252.0,149.0,260.5,148.5,268.5,148.5,276.0,148.0,284.0,147.5,292.0,147.5,300.5,147.0,309.0,146.0" stroke="black" stroke-width="2" fill="none" />
<polyline points="301.0,143.0,293.0,143.5,285.5,144.0,277.0,144.0,268.5,145.0,260.0,146.0,251.5,147.0,243.0,148.0,235.0,148.5,227.0,149.0,219.0,149.5,211.0,150.0,203.0,150.5,195.0,151.0,187.0,151.5,178.5,151.5,170.0,151.0,161.5,151.0,154.0,151.5,146.0,152.0,138.5,152.0,130.5,152.0,122.5,152.5" stroke="black" stroke-width="2" fill="none" />
<polyline points="123.5,155.5,131.0,148.0,139.0,140.5" stroke="black" stroke-width="2" fill="none" />
<polyline points="122.0,143.0,129.5,143.0,138.0,142.0,146.0,141.5,153.5,141.0,162.0,140.0,170.5,139.5,178.5,139.5,187.0,139.0,195.0,138.5,203.5,138.0,211.0,137.5,219.0,137.0,227.0,136.0,234.5,135.5,242.5,134.5,250.0,134.0,258.5,134.0,267.0,133.0,275.5,132.5,283.5,131.5,291.5,131.5,299.5,131.5,307.5,131.0" stroke="black" stroke-width="2" fill="none" />
<polyline points="308.0,139.0,300.0,139.5,292.0,140.0,283.5,140.5,275.5,141.0,267.5,141.5,260.0,142.0,252.5,142.5,244.5,143.0,236.0,144.0,227.5,144.5,219.0,145.0,210.5,146.0,202.0,146.5,194.0,147.0,186.0,146.5,178.0,146.5,170.5,147.0,162.5,147.0,154.0,147.5,146.0,148.0,138.0,148.5,129.5,148.5,121.5,149.0" stroke="black" stroke-width="2" fill="none" />
<polyline points="120.5,145.0,128.5,140.0,136.5,134.0,144.5,135.5,152.5,135.0,160.0,134.5,168.0,133.5,176.0,132.0,184.0,130.5,191.5,129.5,199.0,129.5,207.0,128.5,215.0,128.5,223.5,128.5,232.0,128.5,240.0,128.5,248.0,129.0,256.0,129.0,261.0,129.0,269.0,130.0,277.5,130.0,285.5,131.0,293.5,131.0,301.5,132.0" stroke="black" stroke-width="2" fill="none" />
<polyline points="297.0,187.0,288.5,186.0,280.5,185.0,272.5,184.0,264.5,185.0" stroke="black" stroke-width="2" fill="none" />
<polyline points="193.0,133.0,185.0,140.5,177.5,148.0,170.0,155.5,162.5,163.0,155.5,170.0,147.5,177.0,139.5,184.5,131.5,191.5,124.0,199.0" stroke="black" stroke-width="2" fill="none" />
<polyline points="122.5,198.5,130.5,201.5" stroke="black" stroke-width="2" fill="none" />
<polyline points="121.5,198.0,129.5,197.5,137.5,197.0,145.5,196.5" stroke="black" stroke-width="2" fill="none" />
<polyline points="146.0,193.5,154.0,191.0,162.0,189.0,169.5,188.0,177.5,187.0,186.0,186.5,194.0,185.0,202.5,184.0,210.5,183.5,218.5,182.5,226.5,182.5,234.5,182.5,243.0,182.5,251.0,184.0,251.0,191.5,250.5,199.5,250.0,208.0,250.0,216.5,250.0,225.0,250.0,233.0,249.0,241.0,249.0,249.0,249.0,257.0,249.0,265.0,249.5,273.5,248.5,281.0,249.5,289.0" stroke="black" stroke-width="2" fill="none" />
<polyline points="145.0,265.0,136.5,266.0" stroke="black" stroke-width="2" fill="none" />
<polyline points="131.0,271.5,138.5,271.0,147.0,270.5" stroke="black" stroke-width="2" fill="none" />
<polyline points="145.0,261.5,144.5,269.5,144.5,278.0,145.5,286.5,146.0,295.0" stroke="black" stroke-width="2" fill="none" />
<polyline points="146.5,260.0,138.0,260.5,129.5,261.0" stroke="black" stroke-width="2" fill="none" />
<polyline points="133.0,239.5,141.5,238.5,149.0,238.0" stroke="black" stroke-width="2" fill="none" />
<polyline points="148.5,212.5,140.0,212.5,132.0,213.0" stroke="black" stroke-width="2" fill="none" />
<polyline points="147.0,193.5,147.0,201.5,147.5,209.0,147.5,217.5,147.5,225.5,148.0,234.0,148.5,242.0,148.5,249.5,148.5,257.5,148.5,265.5,148.5,273.5,148.5,281.5,149.0,289.5,149.0,298.0,150.5,306.0,142.5,308.0" stroke="black" stroke-width="2" fill="none" />
<polyline points="124.0,189.5,132.0,189.0,139.5,188.5,147.5,188.0,155.5,187.5,163.5,187.0,172.0,186.5" stroke="black" stroke-width="2" fill="none" />
<polyline points="197.0,180.0,189.0,180.5,181.0,181.0,173.0,182.0,165.0,183.0,157.0,183.0,149.0,183.5,141.0,184.0,133.5,185.5,125.5,186.0" stroke="black" stroke-width="2" fill="none" />
<polyline points="125.0,183.5,132.5,176.5,141.0,168.5,148.5,160.5,156.5,152.5,164.5,144.5,172.5,137.0,181.0,129.5" stroke="black" stroke-width="2" fill="none" />
</svg>