<svg xmlns="http://www.w3.org/2000/svg" version="1.1"><path d="M303.0,131.5,304.0,139.5,304.0,147.5,303.0,156.0,302.5,164.0,302.5,172.0,301.0,180.0,294.0,188.0" stroke="black" stroke-width="2" fill="none" />
<path d="M293.0,186.0,301.0,178.5" stroke="black" stroke-width="2" fill="none" />
<path d="M300.5,170.0,293.0,177.0,284.5,184.5" stroke="black" stroke-width="2" fill="none" />
<path d="M285.0,184.5,292.5,184.0,300.0,184.0" stroke="black" stroke-width="2" fill="none" />
<path d="M300.5,161.0,293.0,169.0,285.0,176.5,276.5,184.5" stroke="black" stroke-width="2" fill="none" />
<path d="M268.0,188.5,259.5,189.0,252.0,189.0" stroke="black" stroke-width="2" fill="none" />
<path d="M252.0,191.0,260.5,183.5,268.5,176.0,276.5,168.0,284.5,161.0,292.5,154.5,300.0,147.0" stroke="black" stroke-width="2" fill="none" />
<path d="M300.5,155.0,293.0,162.0,285.0,169.5,276.5,177.0,268.5,184.5,260.0,191.5,251.0,199.0" stroke="black" stroke-width="2" fill="none" />
<path d="M251.5,198.0,260.0,198.0,268.5,197.5" stroke="black" stroke-width="2" fill="none" />
<path d="M268.0,205.5,259.5,206.0,251.5,206.5" stroke="black" stroke-width="2" fill="none" />
<path d="M250.5,209.5,258.5,202.0" stroke="black" stroke-width="2" fill="none" />
<path d="M260.5,210.0,252.0,217.0" stroke="black" stroke-width="2" fill="none" />
<path d="M252.0,216.0,260.0,215.5" stroke="black" stroke-width="2" fill="none" />
<path d="M260.5,218.5,252.5,226.0" stroke="black" stroke-width="2" fill="none" />
<path d="M253.5,224.5,261.0,224.5" stroke="black" stroke-width="2" fill="none" />
<path d="M261.0,229.0,252.5,237.0" stroke="black" stroke-width="2" fill="none" />
<path d="M250.0,237.5,258.0,237.0,265.5,236.0" stroke="black" stroke-width="2" fill="none" />
<path d="M261.0,237.0,253.0,244.5" stroke="black" stroke-width="2" fill="none" />
<path d="M252.5,245.0,260.0,245.0,268.0,244.5" stroke="black" stroke-width="2" fill="none" />
<path d="M260.5,244.0,252.5,251.5" stroke="black" stroke-width="2" fill="none" />
<path d="M252.5,253.0,260.5,252.0,268.5,251.5" stroke="black" stroke-width="2" fill="none" />
<path d="M259.5,253.5,251.0,261.0" stroke="black" stroke-width="2" fill="none" />
<path d="M252.0,259.0,260.0,259.0,268.5,258.5" stroke="black" stroke-width="2" fill="none" />
<path d="M257.5,260.5,249.5,267.5" stroke="black" stroke-width="2" fill="none" />
<path d="M251.0,266.0,259.0,265.0" stroke="black" stroke-width="2" fill="none" />
<path d="M260.5,267.5,252.5,275.5" stroke="black" stroke-width="2" fill="none" />
<path d="M252.0,277.0,260.5,276.5,269.0,276.5" stroke="black" stroke-width="2" fill="none" />
<path d="M261.0,276.0,253.0,283.5" stroke="black" stroke-width="2" fill="none" />
<path d="M252.5,285.0,261.0,285.0,269.0,284.5" stroke="black" stroke-width="2" fill="none" />
<path d="M268.0,291.5,260.0,299.5,252.5,307.5,244.0,315.0,235.5,323.0,227.0,330.5,219.0,337.5,210.5,345.5,202.0,353.0,193.5,361.0,185.5,368.5" stroke="black" stroke-width="2" fill="none" />
<path d="M188.5,365.5,196.0,365.5,204.0,365.5,212.5,365.5,220.5,365.0,228.5,365.0,236.5,364.0,244.0,363.5,251.5,362.5,260.0,362.0,268.0,361.5,276.0,361.0" stroke="black" stroke-width="2" fill="none" />
<path d="M321.5,353.5,329.0,345.5,337.0,337.5,345.5,330.0,354.0,322.5" stroke="black" stroke-width="2" fill="none" />
<path d="M346.5,324.5,339.0,332.0,331.5,340.0,323.5,347.5,315.5,354.5" stroke="black" stroke-width="2" fill="none" />
<path d="M330.5,354.0,338.5,347.0,346.0,339.5,353.5,332.5,361.5,325.0" stroke="black" stroke-width="2" fill="none" />
<path d="M363.0,332.5,355.0,340.0,346.5,347.0,338.0,354.5" stroke="black" stroke-width="2" fill="none" />
<path d="M332.5,356.0,338.5,364.0,340.5,372.0,341.0,380.5,341.0,388.5,340.5,397.0,340.5,405.0,340.5,413.0,340.5,421.0,339.5,429.0,339.5,437.0,339.5,445.0,339.5,452.5,338.5,460.5,338.5,468.5,338.5,476.0,338.5,484.0,337.5,492.0,337.5,500.0,337.5,508.0,337.5,516.0,336.5,524.0" stroke="black" stroke-width="2" fill="none" />
<path d="M330.5,524.0,322.5,531.5" stroke="black" stroke-width="2" fill="none" />
<path d="M317.5,530.5,325.5,530.0,333.0,529.0" stroke="black" stroke-width="2" fill="none" />
<path d="M339.0,532.5,331.0,540.0" stroke="black" stroke-width="2" fill="none" />
<path d="M332.0,542.0,339.5,541.5,347.0,541.0,354.5,540.5" stroke="black" stroke-width="2" fill="none" />
<path d="M353.5,540.0,345.5,547.5" stroke="black" stroke-width="2" fill="none" />
<path d="M338.0,551.5,346.5,550.5,355.0,550.0,363.0,549.5,371.0,549.0" stroke="black" stroke-width="2" fill="none" />
<path d="M374.0,553.0,365.5,561.0" stroke="black" stroke-width="2" fill="none" />
<path d="M365.0,561.0,373.0,560.5" stroke="black" stroke-width="2" fill="none" />
<path d="M372.5,562.5,364.5,570.0,356.0,577.5" stroke="black" stroke-width="2" fill="none" />
<path d="M356.0,579.5,364.0,579.0,371.5,578.0,379.5,577.0" stroke="black" stroke-width="2" fill="none" />
<path d="M379.5,570.5,371.5,578.0" stroke="black" stroke-width="2" fill="none" />
<path d="M365.0,578.0,373.5,570.5,382.0,562.5" stroke="black" stroke-width="2" fill="none" />
<path d="M379.5,569.0,371.5,569.5,364.0,570.0" stroke="black" stroke-width="2" fill="none" />
<path d="M355.0,572.5,347.0,580.0" stroke="black" stroke-width="2" fill="none" />
<path d="M342.0,571.5,350.0,571.0,357.5,570.5,365.5,570.0,373.5,569.5,381.0,569.5" stroke="black" stroke-width="2" fill="none" />
<path d="M363.5,555.5,355.5,563.0" stroke="black" stroke-width="2" fill="none" />
<path d="M358.0,564.5,350.5,559.5" stroke="black" stroke-width="2" fill="none" />
<path d="M351.0,559.5,359.5,567.5" stroke="black" stroke-width="2" fill="none" />
<path d="M349.0,573.0,347.5,565.0,348.0,557.5,348.0,550.0,348.0,542.0,348.5,534.5,349.0,526.5,349.0,518.0,349.0,509.5,349.0,501.5,349.0,493.5,349.5,485.5,350.0,477.5,350.0,469.5,350.0,462.0,350.5,454.0,351.0,446.5,350.5,438.0,350.5,430.0,351.5,422.0,351.5,413.5,351.5,405.5,351.5,397.0,352.5,389.0,353.0,385.0,345.0,381.5" stroke="black" stroke-width="2" fill="none" />
<path d="M345.5,379.5,353.5,372.0" stroke="black" stroke-width="2" fill="none" />
<path d="M356.0,382.0,349.0,382.5,341.0,383.0" stroke="black" stroke-width="2" fill="none" />
<path d="M341.0,390.5,349.0,390.0,357.0,390.0" stroke="black" stroke-width="2" fill="none" />
<path d="M356.0,403.0,347.5,403.0,339.0,403.5" stroke="black" stroke-width="2" fill="none" />
<path d="M339.0,398.0,347.5,397.0,355.5,396.5" stroke="black" stroke-width="2" fill="none" />
<path d="M355.0,413.0,346.5,413.0,338.0,413.5" stroke="black" stroke-width="2" fill="none" />
<path d="M340.0,423.0,348.0,422.5,356.0,422.5" stroke="black" stroke-width="2" fill="none" />
<path d="M355.0,437.0,347.5,437.5,339.5,438.0" stroke="black" stroke-width="2" fill="none" />
<path d="M340.0,431.0,347.5,431.0,356.0,430.5" stroke="black" stroke-width="2" fill="none" />
<path d="M356.5,444.5,348.5,445.0,340.0,445.5" stroke="black" stroke-width="2" fill="none" />
<path d="M340.0,454.5,348.5,454.0,356.5,453.5" stroke="black" stroke-width="2" fill="none" />
<path d="M354.0,470.0,345.5,470.0,337.5,470.5" stroke="black" stroke-width="2" fill="none" />
<path d="M338.5,479.5,346.5,478.5,355.0,478.0" stroke="black" stroke-width="2" fill="none" />
<path d="M347.5,477.0,339.5,484.5" stroke="black" stroke-width="2" fill="none" />
<path d="M340.5,487.0,348.5,486.5,356.5,485.5" stroke="black" stroke-width="2" fill="none" />
<path d="M347.5,486.0,339.5,493.5" stroke="black" stroke-width="2" fill="none" />
<path d="M341.0,494.0,348.5,493.0,356.0,492.0" stroke="black" stroke-width="2" fill="none" />
<path d="M346.0,491.5,338.5,499.5" stroke="black" stroke-width="2" fill="none" />
<path d="M341.5,500.0,349.5,499.5,357.0,499.5" stroke="black" stroke-width="2" fill="none" />
<path d="M347.5,499.0,339.5,507.0" stroke="black" stroke-width="2" fill="none" />
<path d="M340.5,509.5,348.5,509.0,356.0,508.5" stroke="black" stroke-width="2" fill="none" />
<path d="M347.0,505.5,339.0,513.0" stroke="black" stroke-width="2" fill="none" />
<path d="M340.5,518.5,348.5,517.5,357.0,517.0" stroke="black" stroke-width="2" fill="none" />
<path d="M346.5,514.0,338.0,521.5,330.5,529.5,322.0,537.0" stroke="black" stroke-width="2" fill="none" />
<path d="M315.0,533.5,323.0,533.0,331.0,532.5,339.0,531.5,347.5,530.0,355.5,529.5" stroke="black" stroke-width="2" fill="none" />
<path d="M345.5,531.5,338.0,539.0,330.5,547.5" stroke="black" stroke-width="2" fill="none" />
<path d="M330.5,535.5,338.5,535.0" stroke="black" stroke-width="2" fill="none" />
<path d="M353.0,541.5,361.0,548.5,368.5,554.0,376.5,560.0" stroke="black" stroke-width="2" fill="none" />
<path d="M363.0,548.0,355.0,555.5" stroke="black" stroke-width="2" fill="none" />
<path d="M356.5,553.5,364.5,553.0" stroke="black" stroke-width="2" fill="none" />
<path d="M354.5,549.5,346.5,557.0" stroke="black" stroke-width="2" fill="none" />
<path d="M350.0,559.0,350.5,567.0,354.5,570.0" stroke="black" stroke-width="2" fill="none" />
<path d="M357.0,581.0,364.5,581.0,373.0,581.0" stroke="black" stroke-width="2" fill="none" />
<path d="M380.5,562.5,372.0,563.0,364.0,564.0,356.0,565.0,348.0,565.5,340.0,566.5" stroke="black" stroke-width="2" fill="none" />
<path d="M336.0,566.5,344.0,578.5,352.0,585.5,360.0,586.0,368.5,584.0,376.5,578.5" stroke="black" stroke-width="2" fill="none" />
<path d="M379.0,556.0,371.0,556.5,363.0,557.5,355.0,558.5,346.5,559.0,338.5,560.0" stroke="black" stroke-width="2" fill="none" />
<path d="M314.0,532.0,322.5,524.5" stroke="black" stroke-width="2" fill="none" />
<path d="M316.0,523.5,324.0,516.0" stroke="black" stroke-width="2" fill="none" />
<path d="M314.5,516.0,306.5,523.5" stroke="black" stroke-width="2" fill="none" />
<path d="M307.5,522.0,315.0,521.5,323.0,521.5" stroke="black" stroke-width="2" fill="none" />
<path d="M307.5,526.0,315.5,525.5,324.0,524.5,332.5,524.0,340.5,523.5,348.5,523.0,357.0,522.5" stroke="black" stroke-width="2" fill="none" />
<path d="M313.5,506.0,305.5,513.0,297.5,520.5" stroke="black" stroke-width="2" fill="none" />
<path d="M299.5,515.0,307.5,515.0,316.0,515.0,324.5,515.0,332.5,515.5" stroke="black" stroke-width="2" fill="none" />
<path d="M308.0,507.5,299.5,515.0" stroke="black" stroke-width="2" fill="none" />
<path d="M299.0,509.0,291.0,516.5" stroke="black" stroke-width="2" fill="none" />
<path d="M291.5,512.0,299.5,512.0,308.0,512.0" stroke="black" stroke-width="2" fill="none" />
<path d="M300.5,499.0,292.5,506.5" stroke="black" stroke-width="2" fill="none" />
<path d="M292.0,500.0,284.0,507.0" stroke="black" stroke-width="2" fill="none" />
<path d="M284.0,508.5,292.0,508.0,299.5,507.5,307.5,507.0,315.0,506.5" stroke="black" stroke-width="2" fill="none" />
<path d="M299.0,504.0,291.0,505.0,283.5,505.5" stroke="black" stroke-width="2" fill="none" />
<path d="M283.5,509.0,295.5,516.5,306.0,524.5,317.0,532.5,327.0,540.5,335.0,548.0,335.0,556.5,336.5,564.5,339.5,572.5,347.0,581.0" stroke="black" stroke-width="2" fill="none" />
<path d="M308.0,496.5,299.5,497.0,291.5,497.5,283.5,498.0,275.5,498.5,267.5,499.0,259.5,499.0,251.5,499.0,243.0,499.0,235.0,499.5,227.0,499.5,219.0,500.0,211.5,500.0" stroke="black" stroke-width="2" fill="none" />
<path d="M210.5,507.0,203.0,515.0" stroke="black" stroke-width="2" fill="none" />
<path d="M196.5,513.5,205.0,506.0" stroke="black" stroke-width="2" fill="none" />
<path d="M213.0,513.5,220.5,506.0" stroke="black" stroke-width="2" fill="none" />
<path d="M227.0,507.5,219.0,514.5" stroke="black" stroke-width="2" fill="none" />
<path d="M218.5,512.5,210.0,513.0,202.0,513.0,193.5,514.0" stroke="black" stroke-width="2" fill="none" />
<path d="M194.0,507.5,187.0,515.0,179.5,522.5" stroke="black" stroke-width="2" fill="none" />
<path d="M179.0,515.5,171.0,523.0" stroke="black" stroke-width="2" fill="none" />
<path d="M171.5,516.0,163.5,523.0" stroke="black" stroke-width="2" fill="none" />
<path d="M164.5,516.0,156.0,523.5" stroke="black" stroke-width="2" fill="none" />
<path d="M155.5,513.5,147.0,521.5,139.0,529.0" stroke="black" stroke-width="2" fill="none" />
<path d="M139.0,524.5,131.0,532.0" stroke="black" stroke-width="2" fill="none" />
<path d="M123.5,530.0,131.5,523.0" stroke="black" stroke-width="2" fill="none" />
<path d="M124.0,520.5,132.0,519.5,140.0,518.5,147.5,518.0,155.0,517.0,163.5,516.0,171.0,515.5,179.5,514.5,187.5,514.0,195.5,512.5,203.0,511.5,211.5,511.0,219.5,511.0,227.5,510.5,236.0,510.5" stroke="black" stroke-width="2" fill="none" />
<path d="M236.0,513.0,244.5,512.5,252.5,510.5,260.5,509.5,268.5,507.5,276.0,506.5,284.0,509.0,291.5,514.0,299.0,519.0,307.0,526.0,314.5,532.0,322.5,537.0,331.0,544.5" stroke="black" stroke-width="2" fill="none" />
<path d="M366.0,578.5,358.0,578.5,350.0,573.5,340.0,568.5,339.0,561.0,339.5,553.5,340.0,545.5,340.0,538.0,341.5,530.0,341.5,522.5,343.5,514.5,343.5,506.5,343.0,498.5,343.5,490.5,343.5,482.5,343.5,474.0,343.5,466.0,344.5,457.5,344.0,449.5,344.5,442.0,344.5,434.0,345.0,425.5,345.0,417.0,345.0,409.0,345.0,401.0,345.0,392.5,345.0,384.5,352.5,373.5,351.0,365.5,347.0,362.5" stroke="black" stroke-width="2" fill="none" />
<path d="M346.5,360.5,354.5,353.0" stroke="black" stroke-width="2" fill="none" />
<path d="M352.0,353.0,354.0,361.5,355.0,369.5,356.0,378.0,355.5,385.5,354.5,394.0,355.0,402.0,355.0,410.0,354.5,418.0,355.0,426.0,355.0,434.0,355.0,442.5,354.0,450.0,354.0,458.0,354.5,466.0,354.0,473.5,353.0,481.5,352.5,489.0,352.0,497.0,352.0,505.5,351.0,513.5,351.0,521.5,351.0,529.0,351.0,536.5,357.0,544.5,367.0,552.5,377.0,560.5,380.0,569.0,378.0,577.5" stroke="black" stroke-width="2" fill="none" />
<path d="M355.0,461.0,347.5,461.0,339.5,461.5" stroke="black" stroke-width="2" fill="none" />
<path d="M293.5,491.5,286.0,492.5,278.0,493.0,270.0,493.0,262.5,493.0,254.5,493.5" stroke="black" stroke-width="2" fill="none" />
<path d="M250.0,498.0,242.0,505.5,234.0,513.0" stroke="black" stroke-width="2" fill="none" />
<path d="M237.0,515.5,236.5,523.0,237.0,531.5,237.5,539.5,237.5,547.0,237.5,555.0,237.5,562.5,237.5,570.5,237.0,578.0,237.0,585.5,235.0,593.5,230.0,601.5,222.5,599.5" stroke="black" stroke-width="2" fill="none" />
<path d="M221.0,597.0,218.0,605.0" stroke="black" stroke-width="2" fill="none" />
<path d="M219.0,596.5,226.5,589.5" stroke="black" stroke-width="2" fill="none" />
<path d="M220.0,591.5,228.0,591.0,235.5,590.0" stroke="black" stroke-width="2" fill="none" />
<path d="M237.0,581.5,229.0,583.0,221.5,583.5" stroke="black" stroke-width="2" fill="none" />
<path d="M220.5,574.5,228.5,574.0,236.5,573.5" stroke="black" stroke-width="2" fill="none" />
<path d="M235.0,565.5,227.0,565.5,219.0,566.0" stroke="black" stroke-width="2" fill="none" />
<path d="M217.5,557.5,226.0,557.0,234.5,556.0" stroke="black" stroke-width="2" fill="none" />
<path d="M235.0,548.5,227.0,548.5,219.0,549.0" stroke="black" stroke-width="2" fill="none" />
<path d="M219.0,542.5,226.5,542.5,235.0,542.0" stroke="black" stroke-width="2" fill="none" />
<path d="M235.5,532.5,227.5,533.5,219.5,534.0" stroke="black" stroke-width="2" fill="none" />
<path d="M219.0,527.5,227.0,526.5,235.0,526.0" stroke="black" stroke-width="2" fill="none" />
<path d="M223.0,517.5,223.0,525.5,223.0,534.0,224.5,542.0,224.5,550.0,224.5,558.0,225.5,566.0,225.5,574.0,225.5,582.0,225.5,590.5,226.5,598.5,226.0,606.5,215.0,614.5" stroke="black" stroke-width="2" fill="none" />
<path d="M210.5,595.5,218.5,595.5,226.5,595.5,235.0,595.5" stroke="black" stroke-width="2" fill="none" />
<path d="M228.0,602.0,219.5,602.0,211.5,602.0,203.0,602.5,195.0,603.0,187.0,603.5,179.5,604.0,171.5,604.5,163.5,605.0" stroke="black" stroke-width="2" fill="none" />
<path d="M163.5,603.5,171.0,595.5" stroke="black" stroke-width="2" fill="none" />
<path d="M172.0,589.0,164.0,596.0" stroke="black" stroke-width="2" fill="none" />
<path d="M164.0,601.0,172.5,601.0" stroke="black" stroke-width="2" fill="none" />
<path d="M179.5,601.5,171.5,609.0" stroke="black" stroke-width="2" fill="none" />
<path d="M170.0,608.5,178.5,611.0,186.5,613.0,194.5,613.5,202.0,613.5,210.0,614.5" stroke="black" stroke-width="2" fill="none" />
<path d="M212.5,612.0,204.5,612.5,196.5,613.0,189.0,614.0,180.5,615.0" stroke="black" stroke-width="2" fill="none" />
<path d="M180.0,611.0,188.0,604.0" stroke="black" stroke-width="2" fill="none" />
<path d="M180.0,595.5,171.5,602.5" stroke="black" stroke-width="2" fill="none" />
<path d="M173.5,610.0,181.5,609.5" stroke="black" stroke-width="2" fill="none" />
<path d="M179.5,597.0,171.0,597.5,162.5,598.5,154.5,599.0" stroke="black" stroke-width="2" fill="none" />
<path d="M154.0,594.5,162.0,594.0" stroke="black" stroke-width="2" fill="none" />
<path d="M156.0,593.5,164.5,586.0" stroke="black" stroke-width="2" fill="none" />
<path d="M166.5,579.0,157.5,586.5,149.0,594.0" stroke="black" stroke-width="2" fill="none" />
<path d="M146.5,589.0,154.5,588.5,162.5,588.0,171.0,588.0" stroke="black" stroke-width="2" fill="none" />
<path d="M155.5,580.0,147.5,587.5" stroke="black" stroke-width="2" fill="none" />
<path d="M146.5,584.5,154.5,584.5" stroke="black" stroke-width="2" fill="none" />
<path d="M154.5,570.0,147.0,578.0,139.0,586.0" stroke="black" stroke-width="2" fill="none" />
<path d="M139.0,580.0,147.0,580.0,155.0,579.5,163.0,579.5" stroke="black" stroke-width="2" fill="none" />
<path d="M147.5,571.0,140.0,578.5" stroke="black" stroke-width="2" fill="none" />
<path d="M139.5,578.0,147.5,577.5" stroke="black" stroke-width="2" fill="none" />
<path d="M146.5,563.5,139.0,570.5,131.5,578.0" stroke="black" stroke-width="2" fill="none" />
<path d="M133.5,574.5,141.5,574.0,149.5,573.0,157.0,572.0" stroke="black" stroke-width="2" fill="none" />
<path d="M138.0,566.0,129.5,573.0" stroke="black" stroke-width="2" fill="none" />
<path d="M132.5,569.0,140.5,568.5" stroke="black" stroke-width="2" fill="none" />
<path d="M133.0,562.5,124.5,570.0" stroke="black" stroke-width="2" fill="none" />
<path d="M121.5,565.0,130.0,564.5,138.5,564.0,146.5,563.5" stroke="black" stroke-width="2" fill="none" />
<path d="M132.5,553.5,124.0,561.0" stroke="black" stroke-width="2" fill="none" />
<path d="M124.0,562.0,131.5,562.0" stroke="black" stroke-width="2" fill="none" />
<path d="M123.5,555.0,116.0,562.5" stroke="black" stroke-width="2" fill="none" />
<path d="M115.0,557.5,123.0,557.5,131.0,557.5,139.0,557.0" stroke="black" stroke-width="2" fill="none" />
<path d="M124.0,545.0,116.0,553.0" stroke="black" stroke-width="2" fill="none" />
<path d="M114.0,555.0,122.0,554.5" stroke="black" stroke-width="2" fill="none" />
<path d="M114.0,545.5,106.0,553.0" stroke="black" stroke-width="2" fill="none" />
<path d="M108.5,548.5,116.5,548.0,125.0,548.0,133.5,547.5" stroke="black" stroke-width="2" fill="none" />
<path d="M117.5,543.0,109.5,543.5" stroke="black" stroke-width="2" fill="none" />
<path d="M106.5,546.5,114.5,539.5" stroke="black" stroke-width="2" fill="none" />
<path d="M115.0,539.5,123.0,547.0,131.0,554.5,139.5,562.5,147.5,569.5,155.5,577.5,163.5,584.5,171.5,592.5,179.5,600.0,187.5,603.0,195.5,603.0,203.5,603.0,212.0,598.5,220.5,586.5" stroke="black" stroke-width="2" fill="none" />
<path d="M220.0,595.5,214.5,604.0" stroke="black" stroke-width="2" fill="none" />
<path d="M230.0,602.5,222.5,612.0,214.0,617.0,206.0,620.0,198.0,621.5,190.0,620.0" stroke="black" stroke-width="2" fill="none" />
<path d="M216.0,610.0,207.5,612.5,199.0,611.5,191.0,610.0,183.0,608.5,179.0,614.5,171.0,614.5,162.5,606.5,154.5,598.5,146.5,590.0,138.5,582.5,129.5,574.5,121.0,566.5,113.0,558.5,103.5,550.0,99.5,542.0,98.5,534.5,104.0,526.5,114.0,526.5,113.5,527.5" stroke="black" stroke-width="2" fill="none" />
<path d="M115.5,529.5,123.5,528.5" stroke="black" stroke-width="2" fill="none" />
<path d="M123.0,530.0,131.0,527.5,139.0,525.5,147.0,524.5,155.0,523.0,162.5,522.5,170.0,520.5,178.0,519.5,185.5,517.5,195.5,522.5,203.5,521.0,211.5,519.0,219.5,517.5" stroke="black" stroke-width="2" fill="none" />
<path d="M237.5,507.0,245.5,504.5" stroke="black" stroke-width="2" fill="none" />
<path d="M242.5,506.0,250.5,505.5,258.5,504.5,266.0,504.0,274.0,503.5" stroke="black" stroke-width="2" fill="none" />
<path d="M276.0,506.0,283.5,498.5" stroke="black" stroke-width="2" fill="none" />
<path d="M279.0,498.0,271.0,499.0" stroke="black" stroke-width="2" fill="none" />
<path d="M275.5,498.0,267.5,505.5" stroke="black" stroke-width="2" fill="none" />
<path d="M265.5,499.0,258.0,506.5" stroke="black" stroke-width="2" fill="none" />
<path d="M259.0,501.5,251.0,509.0" stroke="black" stroke-width="2" fill="none" />
<path d="M245.0,498.5,237.0,505.5" stroke="black" stroke-width="2" fill="none" />
<path d="M236.5,498.5,244.5,498.5,252.5,497.5,260.5,495.5,268.5,494.0,276.0,494.0,284.0,493.5,292.0,495.5,300.0,499.5,308.0,505.5,316.0,511.5,324.0,519.0,332.0,525.0" stroke="black" stroke-width="2" fill="none" />
<path d="M332.5,528.5,323.5,520.0,313.0,511.5,303.5,503.5,290.0,495.5" stroke="black" stroke-width="2" fill="none" />
<path d="M236.5,493.5,228.5,493.5,220.0,494.0" stroke="black" stroke-width="2" fill="none" />
<path d="M221.0,487.0,229.0,486.5,236.5,486.0" stroke="black" stroke-width="2" fill="none" />
<path d="M237.0,477.0,229.0,478.0,221.5,478.5" stroke="black" stroke-width="2" fill="none" />
<path d="M221.5,469.0,229.0,468.5,237.0,467.5" stroke="black" stroke-width="2" fill="none" />
<path d="M236.5,460.0,228.0,460.5,220.5,461.0" stroke="black" stroke-width="2" fill="none" />
<path d="M220.0,452.5,228.0,452.5,236.5,452.0" stroke="black" stroke-width="2" fill="none" />
<path d="M236.5,445.5,228.5,446.0,221.0,447.0" stroke="black" stroke-width="2" fill="none" />
<path d="M221.0,439.5,229.0,439.0,236.5,438.5" stroke="black" stroke-width="2" fill="none" />
<path d="M236.0,427.5,228.0,428.0,219.5,428.5" stroke="black" stroke-width="2" fill="none" />
<path d="M217.5,420.0,225.5,419.5,233.5,419.0" stroke="black" stroke-width="2" fill="none" />
<path d="M234.5,412.5,226.5,413.0,218.5,414.0" stroke="black" stroke-width="2" fill="none" />
<path d="M218.5,406.0,227.0,405.5,235.5,404.5" stroke="black" stroke-width="2" fill="none" />
<path d="M226.5,402.5,234.0,395.0" stroke="black" stroke-width="2" fill="none" />
<path d="M228.5,395.5,221.0,403.0" stroke="black" stroke-width="2" fill="none" />
<path d="M219.0,398.5,227.5,398.0,236.0,397.0" stroke="black" stroke-width="2" fill="none" />
<path d="M229.0,388.5,221.0,396.0" stroke="black" stroke-width="2" fill="none" />
<path d="M220.5,398.0,220.5,406.0,220.5,414.5,220.5,422.5,220.5,430.5,220.5,438.5,221.5,446.5,222.0,454.5,223.0,463.0,223.0,471.0,223.0,479.0,223.0,487.0,223.0,495.5,223.0,504.0,223.0,511.0,220.0,519.0,220.0,527.0,221.5,535.0,222.0,543.0,222.0,550.5,222.0,558.5,222.0,566.5,221.5,574.5,221.5,583.0,219.0,591.0,213.0,599.0" stroke="black" stroke-width="2" fill="none" />
<path d="M196.0,616.5,188.0,618.5,180.0,617.5,172.0,614.0,164.0,607.5,156.0,599.5,148.0,591.5,140.0,584.0,132.0,577.0,124.0,569.5,116.5,561.5,108.5,555.0,100.5,544.0" stroke="black" stroke-width="2" fill="none" />
<path d="M98.5,544.5,106.5,537.0,115.0,529.0,122.5,521.0" stroke="black" stroke-width="2" fill="none" />
<path d="M120.5,528.0,128.5,526.0,136.0,523.5,144.0,522.5,151.5,520.0,159.5,519.0,167.5,516.5,176.0,515.0,183.5,514.0,191.5,514.5,200.5,510.5,208.5,508.5,216.5,508.0" stroke="black" stroke-width="2" fill="none" />
<path d="M268.0,504.0,260.5,504.5,252.5,504.5,244.0,505.0,236.0,505.5,227.5,506.0,219.0,506.0,211.0,505.5,203.0,505.5,195.5,506.0,187.5,507.5,179.0,508.5,171.5,509.5,163.0,510.0" stroke="black" stroke-width="2" fill="none" />
<path d="M172.5,523.5,164.5,524.0,156.5,524.5,149.0,525.0,140.5,525.5,133.0,526.0,125.0,526.5,116.0,526.5,108.0,526.5" stroke="black" stroke-width="2" fill="none" />
<path d="M115.5,525.0,107.5,531.5,99.5,538.5" stroke="black" stroke-width="2" fill="none" />
<path d="M99.5,536.0,107.5,527.0,115.0,524.0,123.0,521.5,130.5,520.0,139.0,518.0,146.5,516.0,154.5,513.5,162.5,512.5,170.5,510.0,179.0,508.5,186.5,507.0,195.0,505.5,203.0,504.5,211.0,503.5,219.5,502.0" stroke="black" stroke-width="2" fill="none" />
<path d="M170.5,523.0,162.5,525.0,155.0,526.0,146.5,528.0" stroke="black" stroke-width="2" fill="none" />
<path d="M125.5,540.0,118.0,540.5,110.0,541.5,101.5,542.0" stroke="black" stroke-width="2" fill="none" />
<path d="M108.0,537.5,116.0,536.5" stroke="black" stroke-width="2" fill="none" />
<path d="M118.0,536.5,118.5,544.5,127.5,552.0,135.0,560.5,143.0,569.0,152.0,577.0,160.5,585.0,169.5,593.0,179.0,601.0,182.0,607.5,190.0,608.5,198.0,608.5,206.0,609.5,214.0,606.0,222.0,598.0" stroke="black" stroke-width="2" fill="none" />
<path d="M244.0,606.0,227.5,614.0,222.5,615.5,230.5,612.5,238.5,609.0,247.0,606.0" stroke="black" stroke-width="2" fill="none" />
<path d="M132.5,531.5,124.5,531.5,117.0,532.0,109.0,532.0,101.0,532.5" stroke="black" stroke-width="2" fill="none" />
<path d="M114.0,538.0,122.0,535.0,130.5,534.0,138.5,532.0,146.5,530.0,154.5,529.0,163.0,526.5,171.5,525.5,179.5,524.0,187.5,523.5,195.0,517.5,203.0,516.5,214.0,511.5" stroke="black" stroke-width="2" fill="none" />
<path d="M221.0,392.0,228.5,391.5,235.5,390.5" stroke="black" stroke-width="2" fill="none" />
<path d="M236.5,381.0,228.5,381.5,220.0,382.0" stroke="black" stroke-width="2" fill="none" />
<path d="M222.5,381.5,212.5,375.5,204.5,375.5,196.5,374.0,188.5,368.5,180.0,363.5,172.0,357.5,164.0,352.5,156.0,347.0,147.5,342.0,139.5,337.5,131.5,332.0,123.5,327.5,115.5,322.0" stroke="black" stroke-width="2" fill="none" />
<path d="M117.0,316.0,125.0,315.5,132.0,315.0,140.0,314.5,148.0,314.5,155.5,314.0,163.5,314.0,171.5,314.0,180.0,314.0,188.0,313.5,196.0,312.5,204.5,312.5,212.5,312.5,220.0,312.5,228.0,311.5,236.0,311.0,243.5,311.0,251.0,310.5,259.0,310.0,267.0,309.5,274.5,309.0,282.5,308.5,291.0,307.5,299.5,307.0,307.0,306.0,315.0,305.5,323.5,304.5,332.0,303.5,340.5,303.0,349.0,302.5,357.5,302.0" stroke="black" stroke-width="2" fill="none" />
<path d="M347.0,316.0,339.0,324.0,331.0,331.5,323.0,339.5,315.5,347.5,308.0,355.0,300.5,362.5" stroke="black" stroke-width="2" fill="none" />
<path d="M340.5,360.5,348.0,353.5,356.0,346.0,364.0,338.5,371.5,331.5" stroke="black" stroke-width="2" fill="none" />
<path d="M381.5,331.0,373.5,339.0,365.5,346.5" stroke="black" stroke-width="2" fill="none" />
<path d="M378.5,346.0,387.0,338.5" stroke="black" stroke-width="2" fill="none" />
<path d="M381.0,338.0,372.5,345.5" stroke="black" stroke-width="2" fill="none" />
<path d="M357.0,358.0,349.5,359.0,342.0,360.0" stroke="black" stroke-width="2" fill="none" />
<path d="M340.5,365.5,348.0,365.0,356.0,364.5" stroke="black" stroke-width="2" fill="none" />
<path d="M356.5,372.0,348.0,373.0,340.0,374.0" stroke="black" stroke-width="2" fill="none" />
<path d="M352.0,354.5,360.0,353.5,368.0,352.5,376.0,350.0,384.0,349.0" stroke="black" stroke-width="2" fill="none" />
<path d="M338.0,316.5,330.5,323.5,322.5,330.5,315.0,337.5,307.5,345.0,299.5,352.5,291.5,360.0" stroke="black" stroke-width="2" fill="none" />
<path d="M282.5,361.0,290.5,354.0,299.0,347.0,306.5,339.5,314.0,332.0,321.5,325.0,329.5,317.5" stroke="black" stroke-width="2" fill="none" />
<path d="M329.5,309.5,321.5,317.0,314.0,324.0,306.5,331.5,298.5,339.0,290.5,346.0,282.5,353.5,274.5,360.0" stroke="black" stroke-width="2" fill="none" />
<path d="M269.0,359.5,276.0,352.0,284.0,345.0,291.5,337.5,299.5,330.0,307.5,322.5,315.5,315.0,324.0,308.0" stroke="black" stroke-width="2" fill="none" />
<path d="M312.5,308.0,305.0,315.5,298.0,322.5,290.5,329.5,283.0,337.0,275.5,344.0,268.5,352.0,260.5,359.5,252.5,366.5" stroke="black" stroke-width="2" fill="none" />
<path d="M245.0,365.0,252.5,357.5,260.0,350.5,267.5,343.5,274.5,336.0,282.0,329.0,289.5,322.0,297.5,315.0,305.5,307.5,313.5,300.0" stroke="black" stroke-width="2" fill="none" />
<path d="M308.5,299.0,300.5,306.5,292.0,313.5,284.0,321.5,275.5,329.5,267.5,337.0,259.5,344.5,251.5,352.5,243.5,360.0,235.5,367.0" stroke="black" stroke-width="2" fill="none" />
<path d="M234.5,372.0,226.5,372.5,218.5,372.5,210.5,372.5,203.0,373.0,195.5,373.5" stroke="black" stroke-width="2" fill="none" />
<path d="M195.0,370.0,203.5,369.5,211.5,368.5,219.5,368.0,226.5,367.5,234.5,367.0,242.5,366.5" stroke="black" stroke-width="2" fill="none" />
<path d="M229.5,374.0,237.5,373.0,245.5,370.5,253.5,369.5,261.5,368.5,269.5,366.0,277.5,365.0,285.5,364.0,293.5,363.0,301.5,361.0,309.5,360.0,317.5,359.0,325.5,358.0,333.5,356.0,346.5,363.5,349.0,371.5,348.5,383.0,348.5,391.5" stroke="black" stroke-width="2" fill="none" />
<path d="M308.0,292.5,300.0,300.0,291.5,307.5,283.5,314.5,275.0,322.0,267.0,329.0,259.0,336.5,251.5,344.5,243.5,352.0,235.0,359.5,227.0,367.0,219.0,374.5" stroke="black" stroke-width="2" fill="none" />
<path d="M221.5,377.0,229.5,377.0" stroke="black" stroke-width="2" fill="none" />
<path d="M228.5,373.5,230.5,381.5,232.0,389.5,233.5,397.5,234.0,405.5,234.0,414.0,235.0,421.5,235.0,429.5,234.5,437.5,234.5,445.5,234.5,453.5,235.5,461.5,235.5,469.5,235.5,477.5,235.5,485.0,235.0,493.0,236.0,504.5,244.0,502.5,252.0,501.5" stroke="black" stroke-width="2" fill="none" />
<path d="M219.5,388.0,227.0,380.5" stroke="black" stroke-width="2" fill="none" />
<path d="M225.0,382.5,225.0,390.5,226.5,398.0,229.5,400.0,229.0,408.0,230.0,415.5,230.0,423.5,230.5,432.0,230.5,439.5,231.5,447.5,231.5,456.0,231.5,463.5,232.0,471.5,232.0,480.0,232.5,488.5,232.5,496.5,232.0,504.5,232.0,512.5,232.5,520.0,233.5,528.0,233.0,536.0,233.5,544.0,233.5,552.0,233.0,560.5,233.5,568.5,232.0,576.0,232.5,584.0,230.5,592.0" stroke="black" stroke-width="2" fill="none" />
<path d="M226.0,402.0,228.5,391.5,226.0,383.5" stroke="black" stroke-width="2" fill="none" />
<path d="M210.5,377.0,216.5,385.0,218.0,392.5,219.0,400.0,219.0,408.0,219.0,415.5,219.0,423.5,218.5,431.5,219.5,439.5,219.0,447.0,219.0,455.0,219.5,463.5,219.5,471.5,220.5,479.5,220.5,487.5,220.0,495.5" stroke="black" stroke-width="2" fill="none" />
<path d="M211.0,375.0,219.0,367.5,227.0,360.0,234.5,352.5,242.5,345.0,251.0,337.5,258.5,330.0,267.0,322.0,275.5,314.5,283.5,307.0,291.5,299.0,299.5,291.0" stroke="black" stroke-width="2" fill="none" />
<path d="M293.0,291.5,284.5,299.0,275.5,306.5,267.5,314.5,259.0,321.5,250.5,329.0,243.0,336.5,235.5,344.0,227.5,351.0,219.5,358.5,211.5,366.0,203.5,374.0" stroke="black" stroke-width="2" fill="none" />
<path d="M203.5,368.0,211.5,360.5,220.0,353.0,228.5,345.5,237.0,338.5,245.0,330.5,253.5,323.0,261.5,316.0,269.5,308.5,277.5,301.0,286.0,293.5" stroke="black" stroke-width="2" fill="none" />
<path d="M293.0,288.0,308.0,295.5,323.0,303.5,339.0,311.5,354.5,320.0,369.5,328.0,384.5,336.5,390.5,345.0" stroke="black" stroke-width="2" fill="none" />
<path d="M274.5,291.0,266.5,298.0,259.0,305.0,251.0,312.5,243.0,320.0,235.0,328.0,227.5,336.0,219.5,344.0,211.5,352.0,203.5,359.5,195.0,367.5" stroke="black" stroke-width="2" fill="none" />
<path d="M188.0,359.5,196.0,352.0,204.0,345.0,212.0,338.5,220.0,331.5,228.5,324.0,237.0,316.0,245.0,308.0,253.0,300.5,261.0,292.5" stroke="black" stroke-width="2" fill="none" />
<path d="M260.5,298.5,268.5,297.5,276.5,297.0,285.0,296.0,293.0,295.0,301.0,294.0" stroke="black" stroke-width="2" fill="none" />
<path d="M260.5,281.0,252.0,281.0" stroke="black" stroke-width="2" fill="none" />
<path d="M252.0,273.0,260.0,273.0" stroke="black" stroke-width="2" fill="none" />
<path d="M258.0,273.5,258.0,281.5" stroke="black" stroke-width="2" fill="none" />
<path d="M253.0,288.5,256.0,280.5,255.5,272.5" stroke="black" stroke-width="2" fill="none" />
<path d="M250.0,270.5,258.0,270.0,266.0,270.0" stroke="black" stroke-width="2" fill="none" />
<path d="M261.5,255.0,253.5,256.0" stroke="black" stroke-width="2" fill="none" />
<path d="M253.0,250.0,260.5,249.5" stroke="black" stroke-width="2" fill="none" />
<path d="M258.5,241.0,250.5,241.0" stroke="black" stroke-width="2" fill="none" />
<path d="M252.5,234.0,260.0,233.5" stroke="black" stroke-width="2" fill="none" />
<path d="M253.0,228.5,260.5,228.0,268.5,228.5" stroke="black" stroke-width="2" fill="none" />
<path d="M268.0,219.5,260.0,220.0,252.0,220.5" stroke="black" stroke-width="2" fill="none" />
<path d="M252.5,213.0,261.5,212.5,269.5,212.0" stroke="black" stroke-width="2" fill="none" />
<path d="M260.5,209.0,253.0,210.0" stroke="black" stroke-width="2" fill="none" />
<path d="M252.0,186.0,260.5,185.5,269.0,185.0" stroke="black" stroke-width="2" fill="none" />
<path d="M266.5,185.5,265.5,193.5,264.5,201.0,264.5,209.0,264.0,217.0,264.0,225.0,262.5,233.0,262.0,240.5,261.5,248.5,261.5,256.5,260.5,264.5,260.5,272.5,261.0,281.0,260.0,289.0,255.0,291.0" stroke="black" stroke-width="2" fill="none" />
<path d="M245.0,297.5,237.0,305.0,228.5,312.5,220.0,320.5,212.0,328.5,203.5,336.5,196.0,344.0,188.5,351.5,180.5,358.5" stroke="black" stroke-width="2" fill="none" />
<path d="M178.0,362.0,186.0,362.0,194.5,361.5,203.0,361.5,211.0,361.5,219.0,361.0,227.5,360.0,235.5,359.0,244.0,358.0,252.5,357.5,260.5,357.5,268.5,357.0,276.5,356.5,284.5,355.5,293.0,355.0" stroke="black" stroke-width="2" fill="none" />
<path d="M235.0,298.0,227.0,306.0,219.0,314.0,211.5,321.0,204.0,328.5,196.5,335.5,188.0,343.0,180.0,351.5" stroke="black" stroke-width="2" fill="none" />
<path d="M173.0,357.0,180.5,356.5,188.0,356.5,195.5,356.5,202.5,356.0,210.0,355.0,218.5,354.5,226.5,354.0,234.5,353.0,242.5,352.5,251.0,352.0,259.0,351.5,267.0,351.5,275.0,351.5,284.0,351.0,292.5,350.5,301.0,350.0,309.5,349.5,317.5,349.0,326.5,348.0" stroke="black" stroke-width="2" fill="none" />
<path d="M307.5,287.0,299.0,288.5,291.0,289.5,283.0,291.0,275.5,292.0,267.5,292.5,260.0,293.0,252.0,293.5,244.0,294.0,236.0,294.5" stroke="black" stroke-width="2" fill="none" />
<path d="M227.0,299.5,218.5,306.5,210.5,313.5,202.5,321.0,195.5,329.0,188.0,336.5,179.5,343.0,171.0,350.5" stroke="black" stroke-width="2" fill="none" />
<path d="M169.0,353.5,177.5,353.0,185.5,353.0,194.0,353.0,203.0,352.5,211.5,352.0,219.0,351.5,226.5,351.0,234.5,350.5,242.5,350.0,251.0,349.5,258.5,349.5,267.0,349.0,275.5,348.0,284.5,347.0,292.5,346.5,300.5,346.0,308.5,345.5,316.5,345.0,324.5,344.0,332.5,343.0,341.0,343.0,349.0,342.5,357.5,342.0" stroke="black" stroke-width="2" fill="none" />
<path d="M221.0,298.0,212.5,305.5,203.5,314.0,195.0,321.5,187.0,329.0,179.0,336.5,170.5,344.5,162.5,352.0" stroke="black" stroke-width="2" fill="none" />
<path d="M164.0,348.0,172.0,348.0,180.0,347.5,188.0,347.5,197.0,347.5,205.5,347.5,213.5,347.5,221.0,347.0,229.0,347.0,237.0,346.5,245.0,346.0,253.0,345.5,260.5,345.0,267.5,344.5,275.0,344.0,282.5,343.0,290.5,343.0,298.5,342.5,306.5,342.0,314.5,341.5,322.0,340.5,330.0,340.0,338.0,340.0,346.0,339.5,354.0,338.5,362.0,338.0,370.0,337.5,378.0,337.0" stroke="black" stroke-width="2" fill="none" />
<path d="M316.5,300.0,308.5,300.5,300.0,301.0,291.5,301.0,283.5,301.5,276.0,302.0,268.0,303.0,260.0,303.5,252.0,304.0,243.5,304.0,235.0,304.0,227.0,304.0,218.5,303.5,210.5,304.0" stroke="black" stroke-width="2" fill="none" />
<path d="M210.5,300.0,202.5,307.5,194.5,314.5,187.0,322.0,179.5,329.0,171.5,336.5,163.5,344.5" stroke="black" stroke-width="2" fill="none" />
<path d="M155.5,344.5,164.0,336.0,171.5,328.0,179.5,320.5,187.5,313.0,196.0,305.5,204.0,298.0" stroke="black" stroke-width="2" fill="none" />
<path d="M185.5,308.5,177.5,316.5,170.5,324.5,163.0,332.5,155.0,340.0" stroke="black" stroke-width="2" fill="none" />
<path d="M154.5,347.0,162.5,346.5,170.5,345.5,179.0,344.5,187.5,344.0,195.5,343.0,204.5,342.0,213.0,341.5,221.0,340.5,228.5,340.0,236.0,339.5,244.0,339.5,252.5,339.0,260.5,339.0,268.0,339.0,276.0,338.0,284.5,337.5,292.0,336.5,300.0,335.5,308.0,335.0,316.5,335.0,324.5,334.0,332.5,333.5,341.0,333.0,349.0,333.0,357.0,332.5,364.5,332.5,371.5,332.5,379.0,332.5,387.0,332.0" stroke="black" stroke-width="2" fill="none" />
<path d="M325.0,292.5,317.0,293.5,309.0,294.5,301.0,295.0,292.5,296.0,283.5,296.0,275.0,296.5,267.0,296.5,259.0,297.0,251.0,297.5,243.0,298.5,235.0,299.5,227.0,300.5,219.0,301.0,211.0,301.0,204.0,301.0,196.5,301.5,188.5,301.5,180.5,302.5" stroke="black" stroke-width="2" fill="none" />
<path d="M179.5,307.0,171.5,315.0,163.5,322.0,155.5,329.0,148.5,336.0" stroke="black" stroke-width="2" fill="none" />
<path d="M146.5,337.0,155.0,336.5,163.5,336.0,172.0,335.0,180.0,334.5,187.5,334.0,195.5,333.5,203.5,333.0,211.0,333.0,218.5,333.0,226.5,333.0,234.5,332.0,242.5,331.5,251.0,330.5,259.0,330.0,267.0,329.0,275.0,329.0,283.0,329.0,291.5,329.0,300.0,329.0,308.5,328.0,316.0,327.5,324.0,327.0,331.5,326.0,339.5,325.0,348.0,324.5,355.5,324.0,363.5,324.0,371.5,323.5,379.0,323.0" stroke="black" stroke-width="2" fill="none" />
<path d="M331.0,303.0,323.0,304.0,315.5,304.5,307.5,304.5,299.5,305.0,291.0,305.5,283.5,305.5,276.0,306.5,268.5,307.0,261.0,308.0,253.0,309.0,245.5,309.5,237.5,310.0,229.0,310.0,221.0,310.0,212.5,310.0,204.5,310.0,196.0,311.0,187.5,312.0,179.0,313.0,171.5,313.5,163.5,314.5" stroke="black" stroke-width="2" fill="none" />
<path d="M164.0,308.0,155.5,315.5,147.5,323.5,139.0,331.0" stroke="black" stroke-width="2" fill="none" />
<path d="M140.5,333.5,148.0,333.5,156.0,333.0,163.5,332.5,171.5,332.5,179.0,332.0,187.5,332.0,195.5,332.0,204.0,332.0,212.5,331.5,221.0,331.0,228.5,330.5,235.5,329.5,243.5,329.0,251.5,328.0,259.5,327.0,267.5,326.5,275.5,325.5,284.0,324.5,292.5,323.5,300.0,322.5,308.0,322.0,316.0,321.5,323.5,321.0,331.0,320.0,339.0,319.5,347.0,319.0,355.5,319.0,363.5,319.0,372.0,319.0,380.0,319.0,388.0,318.0" stroke="black" stroke-width="2" fill="none" />
<path d="M395.5,324.0,387.0,324.5,379.0,325.5,370.5,326.0,362.0,327.5,353.5,328.5,345.5,329.5,337.5,329.5,329.5,330.0,321.5,330.0,314.0,331.0,306.0,331.5,298.0,332.0,289.5,332.5,281.5,333.0,273.5,333.0,265.5,333.0,257.5,333.0,249.5,333.5,241.5,334.0,233.5,334.5,225.5,335.0,218.0,335.5,210.5,335.5,202.5,335.5,194.0,335.5,185.5,336.0,178.0,336.5,170.5,337.0,162.5,338.0,154.5,338.5,146.5,339.5" stroke="black" stroke-width="2" fill="none" />
<path d="M139.0,336.5,147.5,329.0,155.5,321.0,163.5,313.5,171.5,305.5" stroke="black" stroke-width="2" fill="none" />
<path d="M155.5,308.0,147.5,315.5,140.0,322.5,132.0,330.0" stroke="black" stroke-width="2" fill="none" />
<path d="M131.5,328.0,140.0,328.0,148.0,327.5,156.0,327.0,164.0,327.0,171.5,326.0,179.5,326.0,186.5,325.5,194.0,325.0,201.5,325.0,209.0,324.5,217.5,324.0,225.5,324.0,234.0,324.0,243.0,323.5,251.5,323.0,259.0,322.5,266.5,322.0,274.5,321.5,282.5,321.0,291.0,320.5,298.5,320.5,307.0,320.0,315.5,319.0,324.5,318.0,332.5,317.5,340.5,317.0,348.5,316.5,356.5,316.0,364.5,315.0" stroke="black" stroke-width="2" fill="none" />
<path d="M373.5,309.5,364.5,310.0,357.0,310.5,349.0,311.5,340.5,312.5,332.5,313.5,324.5,314.0,317.0,314.5,309.0,314.5,301.0,315.0,293.5,315.0,285.5,315.0,277.5,315.5,269.0,316.5,261.0,317.5,252.5,317.5,244.0,317.5,235.5,318.0,227.5,318.0,219.0,318.0,211.0,318.5,203.0,319.0,195.0,319.5,186.5,320.5,179.0,321.5,171.0,322.5,163.0,324.0,155.0,325.0,147.0,326.5,139.5,327.5,132.0,328.0,124.0,329.0" stroke="black" stroke-width="2" fill="none" />
<path d="M122.0,323.0,130.0,322.0,138.5,321.5,146.5,321.0,155.0,321.0,163.0,320.0,171.0,320.0,179.5,319.0,187.5,318.5,196.0,318.0,204.0,317.5,211.5,316.5,219.0,316.0,226.5,315.5,234.0,315.5,242.5,315.0,250.5,314.5,258.5,313.0,266.5,311.5,275.0,310.5,282.5,309.5,290.5,309.5,298.5,309.5,307.0,309.5,315.5,309.0,324.0,308.5,332.5,308.5,340.5,308.0,349.0,308.0" stroke="black" stroke-width="2" fill="none" />
<path d="M339.5,297.0,331.5,297.0,323.5,297.0,315.0,297.0,307.0,297.5,299.0,297.5,291.0,298.0,283.5,298.0,275.0,298.5,266.5,299.0,258.0,299.5,250.0,300.5,242.5,301.5,234.0,302.5,226.5,303.5,219.0,304.5,211.0,305.0,203.0,306.0,195.0,306.5,187.5,307.0,179.5,307.5,171.0,308.0,163.0,308.5,155.0,308.5,147.0,309.0,138.5,309.0,130.0,309.0,121.5,309.0" stroke="black" stroke-width="2" fill="none" />
<path d="M117.0,313.0,115.0,321.0,124.5,329.0,137.0,337.0,148.5,344.5,160.5,353.0,173.0,361.0,185.5,369.5,198.0,377.5" stroke="black" stroke-width="2" fill="none" />
<path d="M132.0,322.0,140.0,314.0,148.0,306.5" stroke="black" stroke-width="2" fill="none" />
<path d="M149.0,300.0,141.0,307.5" stroke="black" stroke-width="2" fill="none" />
<path d="M139.0,300.5,147.5,300.0" stroke="black" stroke-width="2" fill="none" />
<path d="M148.5,293.0,140.0,300.0" stroke="black" stroke-width="2" fill="none" />
<path d="M139.0,296.0,147.0,295.5" stroke="black" stroke-width="2" fill="none" />
<path d="M147.5,289.5,140.0,290.5" stroke="black" stroke-width="2" fill="none" />
<path d="M137.0,291.5,145.0,284.0" stroke="black" stroke-width="2" fill="none" />
<path d="M147.0,282.0,139.0,283.0" stroke="black" stroke-width="2" fill="none" />
<path d="M138.0,283.5,145.5,275.5" stroke="black" stroke-width="2" fill="none" />
<path d="M148.0,275.5,140.0,276.0" stroke="black" stroke-width="2" fill="none" />
<path d="M139.0,276.5,147.0,269.0" stroke="black" stroke-width="2" fill="none" />
<path d="M149.5,267.5,141.5,267.5" stroke="black" stroke-width="2" fill="none" />
<path d="M139.5,268.0,148.0,260.5" stroke="black" stroke-width="2" fill="none" />
<path d="M148.5,259.0,141.0,259.5" stroke="black" stroke-width="2" fill="none" />
<path d="M137.5,260.0,145.5,252.5" stroke="black" stroke-width="2" fill="none" />
<path d="M143.5,252.0,143.5,260.0,141.5,267.5,142.0,275.5,142.0,283.5,143.0,291.5,143.0,300.5,141.0,309.0" stroke="black" stroke-width="2" fill="none" />
<path d="M131.0,314.0,123.0,321.5" stroke="black" stroke-width="2" fill="none" />
<path d="M115.0,312.5,123.0,310.5,131.5,309.5" stroke="black" stroke-width="2" fill="none" />
<path d="M132.5,294.0,140.5,293.5,148.5,293.5" stroke="black" stroke-width="2" fill="none" />
<path d="M148.0,285.5,140.0,286.0,132.0,287.0" stroke="black" stroke-width="2" fill="none" />
<path d="M133.0,279.0,141.0,279.0,149.0,278.0" stroke="black" stroke-width="2" fill="none" />
<path d="M149.5,270.0,141.5,270.5,133.5,271.5" stroke="black" stroke-width="2" fill="none" />
<path d="M132.5,263.0,140.5,262.5,148.5,262.0" stroke="black" stroke-width="2" fill="none" />
<path d="M144.5,261.0,144.5,269.0,144.5,277.0,145.5,285.5,145.5,294.0" stroke="black" stroke-width="2" fill="none" />
<path d="M139.5,252.0,147.5,251.5" stroke="black" stroke-width="2" fill="none" />
<path d="M146.5,243.0,138.5,250.5" stroke="black" stroke-width="2" fill="none" />
<path d="M132.0,253.5,140.5,253.5,148.5,253.5" stroke="black" stroke-width="2" fill="none" />
<path d="M147.5,242.0,140.0,242.5" stroke="black" stroke-width="2" fill="none" />
<path d="M140.5,242.0,149.0,234.5" stroke="black" stroke-width="2" fill="none" />
<path d="M149.0,226.5,141.0,234.0" stroke="black" stroke-width="2" fill="none" />
<path d="M141.0,232.5,149.5,232.0" stroke="black" stroke-width="2" fill="none" />
<path d="M149.0,224.5,140.5,224.5" stroke="black" stroke-width="2" fill="none" />
<path d="M139.5,225.5,147.5,218.0" stroke="black" stroke-width="2" fill="none" />
<path d="M148.0,212.0,139.5,219.5" stroke="black" stroke-width="2" fill="none" />
<path d="M137.5,216.0,145.5,215.5" stroke="black" stroke-width="2" fill="none" />
<path d="M141.0,211.5,149.5,204.5" stroke="black" stroke-width="2" fill="none" />
<path d="M147.5,209.0,139.5,209.5" stroke="black" stroke-width="2" fill="none" />
<path d="M133.0,207.5,141.5,200.0,149.0,192.5,156.5,184.5,164.0,177.0,172.0,169.5,179.0,161.5,186.5,153.5,194.5,145.5,202.5,137.5,210.5,129.5" stroke="black" stroke-width="2" fill="none" />
<path d="M203.0,131.0,195.0,138.0,187.0,146.0,179.0,154.0,171.0,162.0,162.5,169.5,154.5,177.5,146.0,185.0,138.0,192.5,129.5,200.0" stroke="black" stroke-width="2" fill="none" />
<path d="M129.5,200.5,137.5,199.5" stroke="black" stroke-width="2" fill="none" />
<path d="M145.0,204.5,137.0,206.0,129.0,206.5" stroke="black" stroke-width="2" fill="none" />
<path d="M130.5,212.5,138.5,212.5,147.0,212.0" stroke="black" stroke-width="2" fill="none" />
<path d="M148.5,228.5,141.0,229.0,133.5,229.0" stroke="black" stroke-width="2" fill="none" />
<path d="M132.0,223.5,140.0,222.0,147.5,221.5" stroke="black" stroke-width="2" fill="none" />
<path d="M149.0,237.0,141.0,238.0,133.0,238.5" stroke="black" stroke-width="2" fill="none" />
<path d="M132.5,245.5,140.5,245.0,148.0,245.5" stroke="black" stroke-width="2" fill="none" />
<path d="M147.0,196.5,138.5,196.5,130.5,196.5,123.0,197.0" stroke="black" stroke-width="2" fill="none" />
<path d="M123.0,199.0,131.0,202.0" stroke="black" stroke-width="2" fill="none" />
<path d="M125.0,200.0,133.5,192.0,141.5,184.0,149.0,176.5,157.0,169.5,164.5,161.0,172.5,153.0,180.0,146.0,187.5,139.0,195.0,132.0" stroke="black" stroke-width="2" fill="none" />
<path d="M187.5,131.5,179.0,139.0,171.0,146.5,163.0,154.5,155.0,162.0,146.5,170.0,139.0,177.0,132.0,184.5,124.5,191.5" stroke="black" stroke-width="2" fill="none" />
<path d="M123.0,189.5,131.0,189.0,138.5,188.0,146.5,187.5,155.0,187.5,163.0,187.5,171.0,187.5" stroke="black" stroke-width="2" fill="none" />
<path d="M188.5,183.0,196.5,175.0,204.5,167.5,212.5,160.0,220.5,152.5,228.0,145.0,235.5,138.0,243.5,130.5" stroke="black" stroke-width="2" fill="none" />
<path d="M236.0,133.0,227.5,140.0,219.5,147.5,211.5,155.0,203.5,162.0,195.0,169.5,187.5,176.5,180.0,184.0" stroke="black" stroke-width="2" fill="none" />
<path d="M211.0,184.5,219.0,177.0,227.0,169.5,235.5,162.0,243.5,154.0,252.0,146.5,260.0,139.0,268.0,131.5" stroke="black" stroke-width="2" fill="none" />
<path d="M273.0,130.5,265.5,138.0,257.5,146.0,249.5,154.0,241.5,162.0,233.5,169.5,226.0,177.0,218.5,185.0" stroke="black" stroke-width="2" fill="none" />
<path d="M250.5,183.0,258.5,175.5,266.5,168.0,274.5,160.0,282.5,152.0,291.0,145.0,299.5,137.0" stroke="black" stroke-width="2" fill="none" />
<path d="M300.5,130.5,292.0,137.5,284.0,145.5,275.5,153.5,267.5,161.0,259.0,169.0,251.0,176.5,243.0,183.5" stroke="black" stroke-width="2" fill="none" />
<path d="M234.5,184.0,243.0,176.0,251.5,168.0,259.5,160.0,267.5,152.5,275.5,145.0,284.0,137.5,292.0,130.0" stroke="black" stroke-width="2" fill="none" />
<path d="M285.0,131.0,277.0,139.0,269.0,147.0,260.5,155.0,252.5,162.5,244.5,170.5,236.0,178.0,227.5,186.0" stroke="black" stroke-width="2" fill="none" />
<path d="M203.0,183.5,211.0,175.5,218.5,167.5,225.5,160.0,233.0,152.5,240.5,145.5,249.0,138.0,257.0,130.5" stroke="black" stroke-width="2" fill="none" />
<path d="M252.0,130.0,244.0,137.5,235.5,144.5,227.5,151.5,219.5,159.0,212.0,166.0,204.5,174.0,197.0,182.0" stroke="black" stroke-width="2" fill="none" />
<path d="M171.0,182.0,178.5,175.0,187.0,168.0,195.0,160.5,204.0,152.5,212.0,145.0,219.5,137.5,227.5,130.0" stroke="black" stroke-width="2" fill="none" />
<path d="M219.0,131.0,211.0,139.0,203.0,147.5,195.5,155.0,188.0,162.5,180.5,170.0,172.5,177.5,164.5,185.0" stroke="black" stroke-width="2" fill="none" />
<path d="M147.0,192.0,138.5,192.5,130.5,192.5,122.0,192.5" stroke="black" stroke-width="2" fill="none" />
<path d="M123.0,186.0,130.5,185.5,138.5,184.5,146.0,184.5,154.0,184.5,162.0,184.5,170.0,184.0,179.0,183.5,187.5,183.0,195.5,183.5" stroke="black" stroke-width="2" fill="none" />
<path d="M189.5,138.5,197.5,138.0,205.5,137.5,214.0,137.0,221.5,137.0,230.0,137.0,237.5,136.5,245.0,136.5,252.5,136.0,260.0,135.0,268.0,134.5,276.0,134.0,283.5,133.0" stroke="black" stroke-width="2" fill="none" />
<path d="M309.0,124.0,301.0,124.5,293.0,125.0,285.0,125.5,277.0,126.5,268.5,127.0,260.0,127.5,252.5,128.5,244.5,129.0,237.0,130.0,228.5,130.5,220.5,130.5,212.5,130.5,204.0,130.5,196.0,131.0,187.0,132.0,178.5,132.0,170.0,133.0,161.0,133.5,153.0,134.0" stroke="black" stroke-width="2" fill="none" />
<path d="M154.5,139.5,147.5,147.0,140.0,154.5,132.0,162.0,123.5,169.5" stroke="black" stroke-width="2" fill="none" />
<path d="M123.0,169.0,131.0,168.0,138.0,168.0,145.5,168.0,153.0,168.0,161.5,168.0,169.0,167.0,177.0,166.0,185.0,165.0,193.5,164.0,201.5,163.0,209.5,162.5,217.5,162.5,226.0,162.5,234.5,162.5,242.5,162.5,250.5,162.0,259.0,162.0,266.5,161.5,274.0,161.0,282.0,160.0,290.0,160.0,298.5,159.5" stroke="black" stroke-width="2" fill="none" />
<path d="M299.0,135.5,290.5,136.0,282.5,136.5,274.5,137.0,267.0,137.5,259.5,138.0,252.0,138.0,243.5,138.5,235.0,138.5,227.0,138.5,219.0,139.0,211.0,139.0,203.5,140.0,196.0,140.0,188.0,141.0,180.0,142.0,172.0,143.0,163.5,143.5,155.0,143.0,146.5,143.0,138.0,144.0,130.0,145.0" stroke="black" stroke-width="2" fill="none" />
<path d="M122.5,141.0,130.5,140.5,139.0,140.5,147.5,140.5,155.5,140.5,164.0,140.5,172.5,140.0,180.0,139.5,188.0,139.0,196.0,138.5,204.0,138.0,212.0,137.0,220.0,136.5,228.0,135.5,236.0,135.0,244.0,134.0,252.0,133.5,260.0,132.5,268.0,132.0,276.0,131.5,284.0,131.0,292.5,131.0,300.5,130.0,308.5,129.5" stroke="black" stroke-width="2" fill="none" />
<path d="M308.5,171.5,300.0,171.5,292.0,171.5,284.5,171.5,276.0,172.5,268.0,172.5,259.5,173.0,251.0,174.0,243.0,174.5,235.0,175.0,227.0,175.5,219.0,176.0,211.5,177.0,204.0,177.5,196.0,177.5,188.0,177.5,180.5,178.0,172.5,178.5,164.5,178.5,156.5,179.5,148.0,180.0,139.5,180.0,131.5,180.0,123.0,180.5" stroke="black" stroke-width="2" fill="none" />
<path d="M124.5,179.5,132.5,178.5,141.0,178.5,149.5,178.0,157.5,177.0,165.5,176.5,173.5,175.5,181.5,174.5,189.0,173.5,197.0,172.0,205.0,171.5,213.5,171.0,221.5,171.0,229.0,170.5,237.0,169.5,245.0,169.5,252.5,169.0,261.0,169.0,269.0,169.0,277.5,169.0,285.5,168.5,293.5,168.0,301.5,167.5" stroke="black" stroke-width="2" fill="none" />
<path d="M308.5,162.5,300.5,163.0,293.0,164.0,284.5,165.0,277.0,166.0,268.5,166.5,260.0,166.5,252.0,166.5,244.0,166.5,236.0,167.0,228.0,167.0,220.5,167.0,213.0,167.5,204.5,167.5,196.5,168.5,188.5,169.0,180.0,169.0,171.5,169.5,163.5,169.5,155.5,170.5,147.0,171.0,139.5,171.5,132.0,172.0,124.0,173.0" stroke="black" stroke-width="2" fill="none" />
<path d="M125.0,177.0,133.0,170.0,140.5,162.5,148.0,155.0,156.0,147.5,163.5,140.0" stroke="black" stroke-width="2" fill="none" />
<path d="M147.5,141.5,139.5,148.5,131.5,155.0,123.5,162.0" stroke="black" stroke-width="2" fill="none" />
<path d="M123.5,162.0,132.0,161.5,139.5,160.5,147.5,160.0,156.0,160.0,164.0,159.5,172.5,159.0,180.5,158.0,189.0,157.5,197.5,158.0,205.5,157.5,213.5,157.0,221.5,156.0,229.0,155.0,236.5,154.5,244.5,153.5,252.5,153.5,260.5,153.0,268.5,152.5,277.0,152.0,285.5,152.0,293.5,151.5,300.5,151.0" stroke="black" stroke-width="2" fill="none" />
<path d="M308.0,155.0,300.5,155.5,292.5,155.5,284.5,156.5,277.0,157.0,269.0,157.5,260.5,158.5,251.5,159.0,243.5,159.5,235.0,160.0,227.0,160.0,219.0,160.0,211.5,160.0,203.5,160.5,195.5,161.0,187.5,161.5,179.0,161.5,171.0,161.5,162.5,162.0,154.5,162.5,147.0,163.0,139.0,163.5,130.5,163.5,122.5,164.0" stroke="black" stroke-width="2" fill="none" />
<path d="M125.0,158.0,133.0,157.5,140.5,156.5,148.0,156.0,155.0,155.0,163.0,154.5,171.5,154.0,180.0,153.5,188.5,153.0,196.5,152.5,204.5,152.0,212.5,151.5,220.5,151.0,228.5,151.0,236.5,151.0,244.0,150.5,251.5,150.0,259.5,149.5,268.0,148.5,276.5,147.5,285.0,147.0,292.5,146.5,300.0,146.5,307.5,146.5" stroke="black" stroke-width="2" fill="none" />
<path d="M297.5,143.0,289.5,143.0,281.0,143.5,273.5,144.0,266.0,144.0,258.5,144.5,251.5,145.0,243.5,145.0,236.0,146.0,228.0,146.0,220.0,146.5,212.0,147.0,203.5,147.0,195.5,147.5,188.0,148.5,180.5,149.0,173.0,149.5,165.0,150.0,157.0,151.0,149.0,152.0,140.5,153.0,132.0,154.5,124.0,155.0" stroke="black" stroke-width="2" fill="none" />
<path d="M124.0,155.5,132.5,148.0,140.0,140.0" stroke="black" stroke-width="2" fill="none" />
<path d="M134.5,137.0,130.5,137.0,120.5,145.5,120.5,154.0,120.5,161.5,121.5,170.0,121.5,178.0,121.0,186.0,120.5,194.0,121.0,201.5,131.0,210.0,131.5,217.5,131.5,225.5,132.0,233.5,132.0,241.0,133.5,249.0,133.5,257.0,133.5,264.5,133.5,272.5,133.5,281.0,134.5,289.0,134.5,297.0,135.5,305.0,144.0,306.5,155.5,306.5,163.0,304.5,171.5,303.5,179.5,302.0,187.5,301.0,195.5,300.0,203.0,299.0,211.5,297.0,219.0,296.0,227.0,295.5,234.5,294.5,242.5,294.0,253.5,291.0,266.5,290.0,274.5,289.0,282.5,288.0,290.5,287.0,298.5,290.0,306.5,294.0,314.5,298.0,322.5,303.0,330.0,307.0,338.0,311.5,346.5,316.0,354.5,320.0,362.5,325.5,370.0,329.5,378.0,333.0,386.0,336.5" stroke="black" stroke-width="2" fill="none" />
<path d="M297.0,188.0,289.0,187.0,281.5,186.5,273.5,186.0,265.5,187.0" stroke="black" stroke-width="2" fill="none" />
<path d="M180.0,130.0,172.0,137.5,163.5,145.0,155.5,152.5,147.5,159.0,139.5,166.5,131.0,174.0,123.0,182.5" stroke="black" stroke-width="2" fill="none" />
<path d="M146.5,194.0,154.5,192.5,162.5,191.0,170.5,190.0,178.5,189.0,186.5,188.0,194.0,187.0,202.0,186.0,210.0,186.0,217.5,185.0,225.5,185.0,233.5,185.0,242.0,184.5,250.0,185.5,250.0,192.5,249.5,200.5,249.0,208.0,249.5,216.0,249.5,224.0,250.0,232.0,249.5,240.0,249.0,248.0,249.0,255.5,249.0,263.0,248.5,271.0,247.5,278.5,248.5,286.5" stroke="black" stroke-width="2" fill="none" />
<path d="M141.5,308.0,149.5,306.0,148.0,298.5,148.0,290.5,147.5,283.0,147.5,275.0,147.5,267.0,148.0,259.5,147.5,251.5,147.5,243.0,147.0,235.5,147.0,227.5,147.0,219.5,147.0,211.0,146.5,203.0,146.5,195.0" stroke="black" stroke-width="2" fill="none" />
<path d="M122.5,150.0,131.0,149.5,139.5,149.0,148.0,148.5,156.5,148.5,164.5,148.0,173.0,147.5,181.0,146.5,188.5,146.0,196.5,146.0,204.5,145.0,212.5,144.5,220.5,144.5,228.0,143.5,236.0,142.5,243.5,141.5,251.5,141.0,259.5,140.5,267.0,140.0,275.5,139.5,283.5,139.0,291.5,138.5,299.5,138.0,307.0,137.5" stroke="black" stroke-width="2" fill="none" />
<path d="M301.5,131.0,293.5,129.5,285.5,129.5,277.0,128.5,269.0,128.5,261.5,127.5,256.5,127.5,248.5,127.5,240.0,128.0,232.5,128.0,224.0,128.0,216.0,128.0,207.5,128.0,199.5,128.5,191.5,128.5,184.0,129.5,176.0,130.5,168.0,131.5,160.0,132.5,152.0,134.0,144.0,135.0,136.0,134.0,127.5,139.5,119.5,144.5" stroke="black" stroke-width="2" fill="none" />
</svg>