<svg xmlns="http://www.w3.org/2000/svg" version="1.1"><path d="M180.0,77.5,163.0,85.5,155.0,93.5,148.0,102.0,143.5,110.0,142.5,118.0,124.0,126.0,110.0,134.0,98.5,142.5,87.5,150.5,76.5,159.0,66.5,166.5,56.5,174.0,52.5,181.5,57.5,172.0,66.0,166.0,74.0,159.5,82.0,152.5,90.0,146.5,98.5,141.5,106.5,136.0,114.5,130.5,122.5,125.5,130.5,121.5,138.0,118.5" stroke="black" stroke-width="2" fill="none" />
<path d="M137.0,118.5,145.0,118.0,153.0,116.5,161.0,115.5,169.5,113.5,178.0,113.0,185.5,112.0,194.0,111.5,202.0,111.0,210.5,110.5,218.5,110.5,226.5,109.5,234.5,109.0,242.5,108.0,250.0,107.5,257.5,107.0" stroke="black" stroke-width="2" fill="none" />
<path d="M250.5,107.0,242.5,114.5,235.0,122.0,227.0,130.0" stroke="black" stroke-width="2" fill="none" />
<path d="M233.5,131.5,241.5,124.0,249.5,116.5" stroke="black" stroke-width="2" fill="none" />
<path d="M252.0,124.5,243.5,132.0" stroke="black" stroke-width="2" fill="none" />
<path d="M244.5,137.5,252.0,137.5" stroke="black" stroke-width="2" fill="none" />
<path d="M251.0,133.0,243.0,140.5" stroke="black" stroke-width="2" fill="none" />
<path d="M243.0,142.0,251.5,141.5,259.5,140.5,267.5,140.0,274.5,139.5,282.5,139.0,290.5,138.5,299.0,138.0,307.0,138.0" stroke="black" stroke-width="2" fill="none" />
<path d="M307.5,140.0,300.0,147.5" stroke="black" stroke-width="2" fill="none" />
<path d="M299.0,154.0,307.0,153.5" stroke="black" stroke-width="2" fill="none" />
<path d="M308.5,156.0,300.0,163.5" stroke="black" stroke-width="2" fill="none" />
<path d="M300.5,158.5,308.5,158.0,316.5,157.5,324.5,156.5,333.0,156.0,340.5,155.0,348.5,154.0,356.0,153.0,363.5,152.5" stroke="black" stroke-width="2" fill="none" />
<path d="M363.5,153.5,355.5,161.0" stroke="black" stroke-width="2" fill="none" />
<path d="M354.0,160.0,349.0,168.5,350.0,176.5,343.0,185.0,328.5,192.5,319.5,201.0,311.0,209.0,302.0,217.0,294.5,225.0,286.0,233.0,279.0,241.0,272.0,249.5,270.0,253.0,278.0,242.0,286.5,233.0,294.0,225.5,302.0,217.5,309.5,210.0,317.0,203.0,325.0,196.5,333.0,189.5,341.0,185.5,349.0,181.0" stroke="black" stroke-width="2" fill="none" />
<path d="M355.5,177.5,363.0,177.0,371.0,176.0,379.0,175.5,387.5,175.0" stroke="black" stroke-width="2" fill="none" />
<path d="M388.5,177.5,396.5,169.5,405.0,162.0" stroke="black" stroke-width="2" fill="none" />
<path d="M410.5,164.0,402.5,171.5" stroke="black" stroke-width="2" fill="none" />
<path d="M403.0,179.0,410.5,171.0" stroke="black" stroke-width="2" fill="none" />
<path d="M414.5,173.5,411.5,174.5,406.0,182.5,405.5,190.5,408.0,198.5,393.0,207.0,382.0,214.5,374.0,222.5,364.5,230.5,356.5,238.5,347.5,246.5,339.5,254.5,332.5,262.5,326.5,270.5,327.5,268.0,335.0,259.0,343.0,249.5,351.0,241.5,359.0,234.5,367.0,226.5,375.0,219.5,383.0,213.0,391.0,207.0,399.0,202.5,406.5,197.5" stroke="black" stroke-width="2" fill="none" />
<path d="M404.0,198.5,412.5,198.0,420.5,197.5,428.5,197.0,437.0,196.0,445.5,196.0,453.0,195.5" stroke="black" stroke-width="2" fill="none" />
<path d="M451.0,188.5,443.5,196.0" stroke="black" stroke-width="2" fill="none" />
<path d="M436.5,186.5,444.5,185.5,453.0,185.0" stroke="black" stroke-width="2" fill="none" />
<path d="M451.5,185.0,450.5,193.0,454.0,197.5,462.0,193.0,471.0,190.0" stroke="black" stroke-width="2" fill="none" />
<path d="M473.0,186.5,463.5,192.5" stroke="black" stroke-width="2" fill="none" />
<path d="M459.0,171.5,451.0,178.5,443.5,185.5,435.5,193.0,427.0,200.5" stroke="black" stroke-width="2" fill="none" />
<path d="M420.0,201.0,428.0,193.5,436.0,186.0,444.5,178.5,453.0,171.0,460.5,163.5" stroke="black" stroke-width="2" fill="none" />
<path d="M461.0,156.5,453.0,164.0,445.0,171.5,437.0,179.0,429.0,186.0,421.0,193.5,413.0,201.5,405.0,209.5,397.0,217.5,389.5,225.0,382.0,232.5,373.5,240.0,365.5,247.5,357.5,255.0" stroke="black" stroke-width="2" fill="none" />
<path d="M350.5,249.5,358.5,249.0,366.0,249.0,374.0,249.0" stroke="black" stroke-width="2" fill="none" />
<path d="M379.0,241.5,371.0,241.5,363.5,242.0" stroke="black" stroke-width="2" fill="none" />
<path d="M355.5,236.0,363.5,236.0,372.0,236.0,380.5,235.0,389.0,234.0" stroke="black" stroke-width="2" fill="none" />
<path d="M387.5,235.0,395.0,227.5,403.0,219.0,411.0,211.0" stroke="black" stroke-width="2" fill="none" />
<path d="M410.5,203.5,418.5,202.5,427.0,202.0" stroke="black" stroke-width="2" fill="none" />
<path d="M428.0,204.0,419.5,204.0,411.5,204.5,403.0,205.0,394.5,205.0,386.0,205.5" stroke="black" stroke-width="2" fill="none" />
<path d="M388.0,212.0,380.0,219.0,372.0,226.5,364.5,234.5,357.0,242.5,349.0,250.0,341.5,257.5,333.0,265.0" stroke="black" stroke-width="2" fill="none" />
<path d="M333.0,262.0,340.5,261.5,348.5,260.0,356.0,259.0" stroke="black" stroke-width="2" fill="none" />
<path d="M348.5,245.0,357.0,245.0,365.0,244.5,373.5,244.0,381.5,244.0" stroke="black" stroke-width="2" fill="none" />
<path d="M373.5,234.5,381.5,234.0,389.0,233.0" stroke="black" stroke-width="2" fill="none" />
<path d="M396.0,226.0,389.0,226.5,381.0,227.0" stroke="black" stroke-width="2" fill="none" />
<path d="M388.0,219.0,396.0,218.5,404.0,218.5" stroke="black" stroke-width="2" fill="none" />
<path d="M396.0,211.0,403.5,211.0,412.0,210.5" stroke="black" stroke-width="2" fill="none" />
<path d="M420.5,209.5,412.5,210.0,404.5,211.0,396.5,212.0,388.0,213.0,380.0,214.0" stroke="black" stroke-width="2" fill="none" />
<path d="M371.5,222.0,379.5,221.5,388.0,220.5,396.5,220.0,404.5,219.5,412.5,219.0" stroke="black" stroke-width="2" fill="none" />
<path d="M415.5,213.5,407.5,223.0,408.0,222.5,415.5,214.5,423.0,206.5" stroke="black" stroke-width="2" fill="none" />
<path d="M419.5,202.0,406.5,210.0,402.5,218.5,397.5,228.5,390.5,236.5,382.5,241.5,371.5,249.5,360.0,257.5,348.0,266.0,335.0,274.0,336.0,270.0" stroke="black" stroke-width="2" fill="none" />
<path d="M332.5,269.0,340.5,268.0" stroke="black" stroke-width="2" fill="none" />
<path d="M340.0,265.0,348.0,265.0" stroke="black" stroke-width="2" fill="none" />
<path d="M341.0,264.5,348.5,256.5,356.0,249.0,364.0,241.5,371.0,233.5,378.5,225.5,386.5,217.5,394.5,209.5,402.5,201.5" stroke="black" stroke-width="2" fill="none" />
<path d="M409.5,194.5,417.5,194.0,426.0,194.0,434.5,193.5,443.5,193.0,452.0,192.5" stroke="black" stroke-width="2" fill="none" />
<path d="M452.0,176.5,444.5,177.0,436.5,177.5" stroke="black" stroke-width="2" fill="none" />
<path d="M437.5,172.0,445.5,171.5,453.0,171.5,460.5,171.0,468.0,170.5,475.5,170.0" stroke="black" stroke-width="2" fill="none" />
<path d="M460.0,169.0,452.0,169.5,444.0,170.5" stroke="black" stroke-width="2" fill="none" />
<path d="M442.5,164.0,450.5,163.0,459.0,162.5" stroke="black" stroke-width="2" fill="none" />
<path d="M459.5,163.0,452.0,164.0,444.5,165.0,437.0,166.0" stroke="black" stroke-width="2" fill="none" />
<path d="M434.0,166.0,439.0,160.5,434.0,169.0,433.0,177.0" stroke="black" stroke-width="2" fill="none" />
<path d="M434.5,169.5,442.5,162.5,451.0,155.5" stroke="black" stroke-width="2" fill="none" />
<path d="M452.0,155.0,458.0,163.0,457.5,171.0,454.0,179.0,444.5,186.5,433.5,194.0,442.0,189.0,450.5,183.5,459.0,169.5" stroke="black" stroke-width="2" fill="none" />
<path d="M450.5,150.5,442.0,151.5" stroke="black" stroke-width="2" fill="none" />
<path d="M436.5,159.0,444.5,158.5,452.5,157.5,460.5,156.5" stroke="black" stroke-width="2" fill="none" />
<path d="M468.0,187.0,460.0,187.0,451.5,187.0,443.5,187.0,436.0,187.5,428.5,188.0,420.5,188.5,412.5,189.0,404.0,189.5" stroke="black" stroke-width="2" fill="none" />
<path d="M403.5,182.0,411.5,181.5,419.0,181.0,426.5,181.0,434.0,181.0,441.5,180.5,449.5,180.0,457.0,179.5,465.0,179.0,473.5,179.0" stroke="black" stroke-width="2" fill="none" />
<path d="M431.5,177.0,424.0,183.0,419.0,180.5,421.0,172.5,425.5,164.5,433.5,157.0,435.5,159.0,427.0,164.5" stroke="black" stroke-width="2" fill="none" />
<path d="M420.5,162.5,412.5,162.5,404.5,163.0,397.0,163.5,389.0,164.5,381.0,165.0,373.0,164.5,365.0,164.5,356.5,164.5,348.0,165.0" stroke="black" stroke-width="2" fill="none" />
<path d="M347.5,161.5,355.5,154.5,364.0,147.5" stroke="black" stroke-width="2" fill="none" />
<path d="M355.5,147.0,347.5,155.0" stroke="black" stroke-width="2" fill="none" />
<path d="M348.0,146.0,340.0,153.5,331.5,161.0" stroke="black" stroke-width="2" fill="none" />
<path d="M323.5,161.5,331.5,154.5,339.5,147.5,347.0,139.5" stroke="black" stroke-width="2" fill="none" />
<path d="M348.0,133.0,340.0,140.0,332.0,147.0,324.0,154.0,316.0,161.5,308.5,169.0" stroke="black" stroke-width="2" fill="none" />
<path d="M308.5,171.0,299.5,179.0,298.5,183.0,287.0,191.5,275.0,199.5,264.5,208.0,252.5,216.0,241.5,224.0,229.5,232.0" stroke="black" stroke-width="2" fill="none" />
<path d="M228.5,226.5,236.5,225.5" stroke="black" stroke-width="2" fill="none" />
<path d="M237.5,218.5,245.5,218.0" stroke="black" stroke-width="2" fill="none" />
<path d="M244.0,216.0,251.5,209.0,259.5,201.5,268.0,194.0,276.0,186.5,283.5,179.0,290.5,171.5" stroke="black" stroke-width="2" fill="none" />
<path d="M291.0,166.5,298.5,166.5,307.0,166.0,315.5,165.0,324.5,164.0" stroke="black" stroke-width="2" fill="none" />
<path d="M324.5,154.0,332.0,153.5,340.0,153.0" stroke="black" stroke-width="2" fill="none" />
<path d="M340.5,144.5,332.5,144.0,325.0,144.5" stroke="black" stroke-width="2" fill="none" />
<path d="M324.0,137.5,332.0,129.5,340.5,122.0" stroke="black" stroke-width="2" fill="none" />
<path d="M334.5,123.0,325.5,130.5" stroke="black" stroke-width="2" fill="none" />
<path d="M324.0,132.5,332.0,132.0,340.0,131.5,347.5,131.0" stroke="black" stroke-width="2" fill="none" />
<path d="M347.5,124.0,339.5,131.0,331.5,138.0,323.0,145.0,314.5,152.0,306.5,159.0,298.5,166.5,290.5,174.5,282.5,182.0,275.0,190.0,267.5,197.5" stroke="black" stroke-width="2" fill="none" />
<path d="M265.5,192.0,273.5,191.5,281.5,191.0" stroke="black" stroke-width="2" fill="none" />
<path d="M276.5,185.0,284.0,184.5,292.5,184.0" stroke="black" stroke-width="2" fill="none" />
<path d="M291.0,185.5,299.5,177.5" stroke="black" stroke-width="2" fill="none" />
<path d="M301.5,171.5,309.0,171.0" stroke="black" stroke-width="2" fill="none" />
<path d="M306.5,162.0,314.5,161.5,322.5,160.5,330.0,160.0" stroke="black" stroke-width="2" fill="none" />
<path d="M348.0,173.0,356.5,173.0,365.0,172.0,373.0,171.5,381.0,171.0,389.0,170.5,396.5,170.5,404.5,170.0,412.0,169.5,420.5,169.5" stroke="black" stroke-width="2" fill="none" />
<path d="M420.5,169.0,429.0,159.0,436.5,156.0,444.5,154.0,452.5,154.0" stroke="black" stroke-width="2" fill="none" />
<path d="M421.0,170.0,412.5,177.5" stroke="black" stroke-width="2" fill="none" />
<path d="M420.5,178.0,413.0,185.5" stroke="black" stroke-width="2" fill="none" />
<path d="M411.5,185.5,419.5,185.0" stroke="black" stroke-width="2" fill="none" />
<path d="M419.5,186.0,411.5,193.5" stroke="black" stroke-width="2" fill="none" />
<path d="M379.5,176.5,387.5,169.0,396.0,161.5,404.0,154.0" stroke="black" stroke-width="2" fill="none" />
<path d="M403.0,147.0,395.0,154.0,387.0,162.0,379.0,170.0,371.0,178.0,362.5,185.5" stroke="black" stroke-width="2" fill="none" />
<path d="M364.0,184.0,356.0,184.5" stroke="black" stroke-width="2" fill="none" />
<path d="M356.5,190.5,348.0,191.0,340.0,191.0" stroke="black" stroke-width="2" fill="none" />
<path d="M339.5,185.5,331.5,193.5,323.5,201.0,315.5,209.0,307.0,216.5,299.0,224.0,290.5,231.5,282.5,239.0,274.5,247.0" stroke="black" stroke-width="2" fill="none" />
<path d="M277.5,250.5,285.0,250.0" stroke="black" stroke-width="2" fill="none" />
<path d="M285.0,248.0,292.5,240.5,300.5,233.5,308.5,226.0,316.0,219.0,323.5,211.5,331.0,204.0,339.0,196.5,346.5,188.5,353.5,180.5,361.5,172.5" stroke="black" stroke-width="2" fill="none" />
<path d="M364.5,168.0,357.0,168.5" stroke="black" stroke-width="2" fill="none" />
<path d="M355.0,171.0,363.5,163.5" stroke="black" stroke-width="2" fill="none" />
<path d="M364.5,161.5,356.5,162.5" stroke="black" stroke-width="2" fill="none" />
<path d="M363.0,160.0,367.0,149.0,375.0,140.0,382.5,138.0,390.0,136.5,398.0,138.5" stroke="black" stroke-width="2" fill="none" />
<path d="M395.5,136.5,403.0,144.5,402.0,152.5,398.5,161.0,389.5,169.0,386.5,171.0,394.0,165.0,402.0,152.0" stroke="black" stroke-width="2" fill="none" />
<path d="M402.0,139.5,395.0,147.0,387.5,154.5,379.5,162.5,371.0,171.0,362.5,179.0,355.0,186.5,347.5,193.5,339.5,201.5,331.5,209.0,323.5,216.5,315.0,224.0" stroke="black" stroke-width="2" fill="none" />
<path d="M308.0,217.0,315.5,217.0,324.0,216.5,332.5,216.0" stroke="black" stroke-width="2" fill="none" />
<path d="M339.0,211.0,347.0,203.0,355.0,195.5" stroke="black" stroke-width="2" fill="none" />
<path d="M363.0,193.5,355.5,194.5,348.0,195.5,340.0,196.5,332.0,197.5,323.5,198.0,315.5,198.5" stroke="black" stroke-width="2" fill="none" />
<path d="M322.0,201.5,330.0,201.0,337.5,200.0,345.5,200.0" stroke="black" stroke-width="2" fill="none" />
<path d="M346.5,200.0,354.5,190.0,362.0,185.5,370.0,185.5,377.5,183.0,385.5,181.0,393.5,178.5,402.0,177.0,409.5,176.0" stroke="black" stroke-width="2" fill="none" />
<path d="M404.0,151.0,395.5,151.0,387.0,151.5" stroke="black" stroke-width="2" fill="none" />
<path d="M387.0,146.0,395.5,145.0" stroke="black" stroke-width="2" fill="none" />
<path d="M395.0,140.0,387.5,147.0,380.0,154.0" stroke="black" stroke-width="2" fill="none" />
<path d="M380.0,158.0,387.5,157.5,395.0,157.0,402.5,156.5,410.5,156.0,418.5,155.5" stroke="black" stroke-width="2" fill="none" />
<path d="M397.0,134.0,389.0,134.5" stroke="black" stroke-width="2" fill="none" />
<path d="M379.0,141.5,387.0,141.0,395.0,140.5,403.0,139.5" stroke="black" stroke-width="2" fill="none" />
<path d="M397.0,162.0,389.5,163.0,382.0,164.0" stroke="black" stroke-width="2" fill="none" />
<path d="M380.5,169.5,388.0,169.0,396.0,168.5" stroke="black" stroke-width="2" fill="none" />
<path d="M402.0,146.5,394.0,147.0,386.5,147.0,378.5,147.5" stroke="black" stroke-width="2" fill="none" />
<path d="M373.5,144.0,381.5,140.5,370.5,144.0,366.5,152.0,363.5,159.0,367.5,167.0,369.0,166.0,372.0,166.0,378.0,147.0,378.5,146.0,377.5,154.0,373.5,162.0" stroke="black" stroke-width="2" fill="none" />
<path d="M376.0,176.5,368.0,177.0" stroke="black" stroke-width="2" fill="none" />
<path d="M368.5,178.0,376.5,178.0,389.5,172.5" stroke="black" stroke-width="2" fill="none" />
<path d="M388.0,178.0,380.0,178.5,372.5,178.5,365.0,178.5,357.5,179.0,349.5,179.0,341.5,180.0" stroke="black" stroke-width="2" fill="none" />
<path d="M332.5,189.0,340.0,189.0,348.0,188.5,355.5,188.5,363.5,188.5" stroke="black" stroke-width="2" fill="none" />
<path d="M365.0,186.5,363.0,194.5,356.5,202.0" stroke="black" stroke-width="2" fill="none" />
<path d="M363.5,227.0,371.5,227.0,380.0,227.0,388.5,227.0,396.5,227.5" stroke="black" stroke-width="2" fill="none" />
<path d="M354.0,258.0,346.0,258.0,338.0,258.5" stroke="black" stroke-width="2" fill="none" />
<path d="M339.0,254.0,347.0,253.0,355.0,252.5,362.5,252.0" stroke="black" stroke-width="2" fill="none" />
<path d="M325.5,272.5,333.5,274.5,342.0,271.0,350.0,265.0,358.0,260.0,366.0,253.5,374.0,248.5,382.0,242.5,391.0,236.5,398.5,227.5,404.5,213.5,412.5,206.0,421.0,203.0,429.0,203.0,437.5,201.0,445.0,198.0" stroke="black" stroke-width="2" fill="none" />
<path d="M347.0,128.5,338.5,129.0,330.5,129.0" stroke="black" stroke-width="2" fill="none" />
<path d="M324.0,124.0,332.0,123.5,340.0,123.5,348.0,123.5" stroke="black" stroke-width="2" fill="none" />
<path d="M341.0,136.0,333.0,136.5,325.5,136.5" stroke="black" stroke-width="2" fill="none" />
<path d="M315.5,142.0,324.0,142.0,332.5,141.5,340.5,141.0,348.5,140.5,356.5,140.0,364.0,138.5,372.0,138.0" stroke="black" stroke-width="2" fill="none" />
<path d="M341.5,116.0,333.5,116.5,324.5,117.0" stroke="black" stroke-width="2" fill="none" />
<path d="M333.5,116.0,320.5,124.0,312.5,132.0,309.5,140.5,309.5,149.0,315.0,150.0,319.5,135.5" stroke="black" stroke-width="2" fill="none" />
<path d="M307.5,132.0,299.5,139.5,291.0,147.5" stroke="black" stroke-width="2" fill="none" />
<path d="M291.5,150.0,299.5,149.5,307.5,148.5,315.5,148.0,323.5,147.0,331.5,147.0,340.0,146.0,348.0,146.0,356.0,145.5,364.0,145.0" stroke="black" stroke-width="2" fill="none" />
<path d="M308.0,148.0,299.5,155.5" stroke="black" stroke-width="2" fill="none" />
<path d="M283.5,146.0,291.0,138.0,299.0,130.0,306.5,122.0" stroke="black" stroke-width="2" fill="none" />
<path d="M299.5,124.0,291.5,131.5,284.0,138.5,276.0,146.0" stroke="black" stroke-width="2" fill="none" />
<path d="M268.0,146.5,276.0,138.5,284.0,130.5,291.5,123.0" stroke="black" stroke-width="2" fill="none" />
<path d="M290.5,115.5,283.0,122.5,275.5,130.0,267.5,137.5,259.5,145.0,251.5,152.5,243.5,160.5,235.0,168.0" stroke="black" stroke-width="2" fill="none" />
<path d="M229.0,161.0,236.5,160.5,244.0,160.5" stroke="black" stroke-width="2" fill="none" />
<path d="M241.5,154.0,250.0,153.0" stroke="black" stroke-width="2" fill="none" />
<path d="M250.0,152.5,239.0,160.5,245.5,154.5" stroke="black" stroke-width="2" fill="none" />
<path d="M243.5,145.5,251.0,145.0,258.5,144.5,266.5,144.5,274.5,144.5" stroke="black" stroke-width="2" fill="none" />
<path d="M266.5,138.0,275.0,137.5,283.5,136.5,291.5,136.0,300.0,135.5" stroke="black" stroke-width="2" fill="none" />
<path d="M306.5,135.0,314.5,128.5,322.5,120.0,330.5,116.5,338.5,116.0,342.0,119.0,345.0,126.5,343.0,134.5,338.0,142.5,330.5,150.5,328.5,153.0,336.5,145.5,344.5,131.5" stroke="black" stroke-width="2" fill="none" />
<path d="M292.0,106.5,284.0,114.0,276.0,122.0,267.5,130.0,259.0,138.0,250.5,146.0,242.5,153.5,234.5,160.5,226.5,168.0,218.5,174.5,210.5,182.0" stroke="black" stroke-width="2" fill="none" />
<path d="M202.5,177.0,210.5,176.5,218.5,176.0,227.0,176.0" stroke="black" stroke-width="2" fill="none" />
<path d="M235.5,168.5,227.0,169.5,218.0,170.0,210.0,170.5" stroke="black" stroke-width="2" fill="none" />
<path d="M202.5,164.5,210.5,164.5,219.0,164.0,227.5,164.0,236.0,163.5,243.5,162.5,252.0,162.0" stroke="black" stroke-width="2" fill="none" />
<path d="M252.5,154.5,244.5,155.5,236.5,156.0,228.5,157.0,220.0,157.0" stroke="black" stroke-width="2" fill="none" />
<path d="M227.5,157.5,219.5,164.5,211.5,171.0,203.5,178.0,195.5,185.0,187.5,192.0,179.5,199.5,172.0,207.5" stroke="black" stroke-width="2" fill="none" />
<path d="M173.5,203.5,181.5,203.5,189.0,202.5" stroke="black" stroke-width="2" fill="none" />
<path d="M188.0,197.5,196.0,190.5,203.5,183.5,211.5,176.0,219.5,168.5,227.0,161.5,235.0,155.0,242.5,147.5,250.0,139.5,257.5,131.5" stroke="black" stroke-width="2" fill="none" />
<path d="M267.0,130.5,275.5,130.0,284.0,129.0" stroke="black" stroke-width="2" fill="none" />
<path d="M277.0,123.0,284.5,122.0,292.5,121.5" stroke="black" stroke-width="2" fill="none" />
<path d="M285.0,108.0,277.0,115.5,269.0,123.0" stroke="black" stroke-width="2" fill="none" />
<path d="M269.0,128.0,276.5,127.5,283.5,126.5,291.5,126.0,299.5,125.0,307.5,124.0,315.5,123.5" stroke="black" stroke-width="2" fill="none" />
<path d="M285.0,115.0,277.0,115.5" stroke="black" stroke-width="2" fill="none" />
<path d="M274.5,108.0,262.5,116.0,255.0,124.0,253.0,132.5,255.0,132.5,260.0,136.5" stroke="black" stroke-width="2" fill="none" />
<path d="M250.0,125.5,258.0,117.5,266.5,109.5,274.5,106.5,283.0,106.0,286.5,107.0,290.5,115.0,289.5,122.5,283.5,130.0,273.0,138.5,278.0,134.0,286.0,126.5,294.5,122.5,302.5,123.0,311.0,125.0,325.5,125.0,319.0,133.5,318.5,141.5,314.5,149.5" stroke="black" stroke-width="2" fill="none" />
<path d="M300.5,178.0,293.0,178.5,285.0,179.0" stroke="black" stroke-width="2" fill="none" />
<path d="M276.5,181.0,268.0,188.0,259.5,195.0,251.5,202.5,243.5,210.5,235.5,218.0,227.5,225.0,219.0,231.5" stroke="black" stroke-width="2" fill="none" />
<path d="M214.5,236.0,222.5,236.0,230.5,231.5,238.0,226.5,246.0,221.0,254.0,215.0,262.0,209.5,270.0,203.5,278.0,197.5,286.0,192.0,294.0,186.5,296.0,176.5,303.0,175.5,308.0,169.0,316.5,167.0,324.5,165.0,332.5,163.5,340.5,161.5,348.5,159.5,353.5,161.5" stroke="black" stroke-width="2" fill="none" />
<path d="M340.5,207.5,332.5,208.5,324.5,209.0,317.0,210.0" stroke="black" stroke-width="2" fill="none" />
<path d="M308.0,206.0,316.5,205.5,325.0,205.0,333.0,204.0,341.0,203.5,348.5,203.5" stroke="black" stroke-width="2" fill="none" />
<path d="M316.0,225.5,308.0,226.0,300.0,226.5" stroke="black" stroke-width="2" fill="none" />
<path d="M306.5,232.0,298.0,233.0,289.5,233.5" stroke="black" stroke-width="2" fill="none" />
<path d="M284.0,230.0,292.5,229.5,300.5,229.5,308.0,229.0,315.5,228.5" stroke="black" stroke-width="2" fill="none" />
<path d="M300.0,215.5,308.0,215.0,315.5,214.0,323.5,213.0,332.0,212.0,339.5,210.5" stroke="black" stroke-width="2" fill="none" />
<path d="M332.5,219.5,324.0,220.0,315.0,220.5,307.0,220.5,299.0,220.5,291.0,221.0" stroke="black" stroke-width="2" fill="none" />
<path d="M300.5,234.5,293.0,235.5,285.0,236.5,277.5,237.0" stroke="black" stroke-width="2" fill="none" />
<path d="M283.0,243.5,291.0,242.5" stroke="black" stroke-width="2" fill="none" />
<path d="M292.0,243.5,284.0,243.5,276.0,244.0,267.5,244.5" stroke="black" stroke-width="2" fill="none" />
<path d="M269.0,252.5,277.0,253.0,285.0,249.5,293.5,243.5,301.5,237.5,309.5,232.5,317.5,227.5,325.5,221.5,333.5,216.0,341.5,211.0,349.5,206.0,357.5,198.0,362.0,184.5,350.5,192.5,346.5,200.5,335.0,214.5,324.0,222.5,313.0,230.5,300.0,238.5,290.5,247.0" stroke="black" stroke-width="2" fill="none" />
<path d="M269.0,201.0,261.5,201.0,253.5,201.0" stroke="black" stroke-width="2" fill="none" />
<path d="M259.0,207.5,251.0,208.0,243.5,208.0" stroke="black" stroke-width="2" fill="none" />
<path d="M236.5,207.0,245.0,206.0,252.5,205.0,260.5,204.5,268.5,204.0" stroke="black" stroke-width="2" fill="none" />
<path d="M266.5,182.0,274.5,181.0,282.5,180.5,291.0,179.5,299.0,179.0" stroke="black" stroke-width="2" fill="none" />
<path d="M308.0,172.0,300.5,172.0,292.5,172.0,284.0,172.5,276.0,172.5" stroke="black" stroke-width="2" fill="none" />
<path d="M292.0,186.5,283.5,187.0,275.0,187.5,266.5,187.5,258.5,187.5,250.5,187.5" stroke="black" stroke-width="2" fill="none" />
<path d="M242.5,196.0,250.5,195.5,259.0,196.0,267.0,196.0,275.5,196.0,284.0,196.0" stroke="black" stroke-width="2" fill="none" />
<path d="M235.5,210.0,227.5,217.5,219.0,225.0" stroke="black" stroke-width="2" fill="none" />
<path d="M219.5,221.0,227.5,220.5,235.5,220.0,243.0,219.5" stroke="black" stroke-width="2" fill="none" />
<path d="M229.5,214.0,237.5,213.5,244.5,213.0,252.0,212.5,259.5,211.5" stroke="black" stroke-width="2" fill="none" />
<path d="M227.0,229.5,218.5,230.5,210.5,231.0" stroke="black" stroke-width="2" fill="none" />
<path d="M203.5,192.0,195.5,192.0,187.0,192.5" stroke="black" stroke-width="2" fill="none" />
<path d="M179.0,191.0,187.0,190.0,195.0,189.5,202.5,188.5,210.0,187.5" stroke="black" stroke-width="2" fill="none" />
<path d="M210.5,182.0,202.5,182.5,194.5,183.5" stroke="black" stroke-width="2" fill="none" />
<path d="M196.5,177.5,188.0,185.0,179.5,192.5,171.0,199.5,162.5,207.0" stroke="black" stroke-width="2" fill="none" />
<path d="M161.5,208.0,169.5,207.5" stroke="black" stroke-width="2" fill="none" />
<path d="M163.5,197.5,171.5,197.0,179.0,197.0,187.0,197.0,195.0,197.0" stroke="black" stroke-width="2" fill="none" />
<path d="M187.0,180.0,195.0,179.5,203.0,179.0,211.5,179.0,219.5,179.0,228.0,178.5" stroke="black" stroke-width="2" fill="none" />
<path d="M225.0,149.5,233.5,149.0,241.5,149.0,250.0,149.0,259.0,148.5,267.5,148.0,275.0,147.5" stroke="black" stroke-width="2" fill="none" />
<path d="M255.0,154.0,248.0,161.5,240.0,169.5,226.0,177.5,214.5,186.0,202.5,194.0,189.5,202.5,177.5,211.0" stroke="black" stroke-width="2" fill="none" />
<path d="M173.0,214.0,165.0,215.0,157.0,215.0" stroke="black" stroke-width="2" fill="none" />
<path d="M157.0,215.0,164.5,216.0,172.5,212.0,180.5,207.0,188.5,202.0,197.0,197.5,205.0,192.5,213.0,188.0,221.0,183.5,229.5,178.0,238.0,173.5,246.0,165.5,253.5,159.0,261.5,153.0,269.0,150.5,277.0,148.5,285.0,146.5,293.0,143.5,297.0,147.0,296.0,155.0,299.0,163.0,285.0,171.0,271.5,179.0,261.5,187.5,251.5,195.5,242.5,203.5,232.5,211.5,224.0,219.5,216.5,227.5,216.5,235.5,219.5,224.5,228.0,217.5,236.0,210.5,244.0,203.0,252.0,196.0,260.0,190.5,268.0,183.0,276.0,177.0,283.5,172.5,291.5,168.5,297.0,157.5" stroke="black" stroke-width="2" fill="none" />
<path d="M293.0,116.5,284.5,117.0,276.5,117.5,268.0,118.0" stroke="black" stroke-width="2" fill="none" />
<path d="M265.5,116.0,265.5,124.0,261.5,131.5" stroke="black" stroke-width="2" fill="none" />
<path d="M265.0,115.5,273.0,108.0" stroke="black" stroke-width="2" fill="none" />
<path d="M245.0,106.5,236.5,114.0,228.5,121.5,220.0,129.0" stroke="black" stroke-width="2" fill="none" />
<path d="M210.5,123.0,218.5,122.5,226.5,121.5,235.0,120.5,243.5,120.0,251.5,119.0" stroke="black" stroke-width="2" fill="none" />
<path d="M245.0,98.5,237.0,106.0,228.5,114.0,220.0,121.5,211.0,128.0,202.5,135.5" stroke="black" stroke-width="2" fill="none" />
<path d="M203.0,136.0,195.0,136.0" stroke="black" stroke-width="2" fill="none" />
<path d="M195.5,130.0,203.5,129.5,211.5,129.0,220.0,128.0,228.5,127.5" stroke="black" stroke-width="2" fill="none" />
<path d="M234.0,134.0,242.0,134.0,250.5,133.5,259.0,133.5,267.0,133.5,275.0,133.0,283.5,132.0,291.5,131.0,300.0,130.0,308.5,129.5" stroke="black" stroke-width="2" fill="none" />
<path d="M293.0,106.0,284.5,106.5,276.5,106.5,268.5,106.5,260.0,106.5,252.0,107.0,243.0,108.0,234.5,108.0,226.0,109.0,217.0,109.5,209.0,110.0" stroke="black" stroke-width="2" fill="none" />
<path d="M204.0,108.0,196.5,116.0,188.0,123.5" stroke="black" stroke-width="2" fill="none" />
<path d="M188.0,126.5,195.5,125.5,203.0,125.0,210.5,124.5,218.0,124.5,226.5,124.0,234.5,123.5,242.5,122.0,250.5,120.5" stroke="black" stroke-width="2" fill="none" />
<path d="M235.0,112.5,227.5,113.5,219.0,114.0" stroke="black" stroke-width="2" fill="none" />
<path d="M220.5,107.0,229.0,99.5,237.5,92.5" stroke="black" stroke-width="2" fill="none" />
<path d="M231.5,93.5,239.0,97.5,239.0,105.5,234.5,113.5,240.5,110.0,248.5,107.0" stroke="black" stroke-width="2" fill="none" />
<path d="M236.0,100.0,227.5,107.5,219.5,115.0,211.5,122.5,204.0,130.0,196.0,137.5,187.5,144.5,179.5,151.5,171.5,159.0" stroke="black" stroke-width="2" fill="none" />
<path d="M165.5,154.5,173.5,154.0,181.5,153.0,189.0,152.0" stroke="black" stroke-width="2" fill="none" />
<path d="M195.5,148.0,188.0,148.0,180.0,148.5,172.0,149.5,164.5,149.5,156.5,149.5,148.0,149.5" stroke="black" stroke-width="2" fill="none" />
<path d="M138.5,156.5,146.5,156.5,155.0,156.0,163.5,155.5,171.5,155.0,179.5,154.0,187.5,154.0" stroke="black" stroke-width="2" fill="none" />
<path d="M188.0,143.5,193.5,138.0,187.5,142.0,195.5,138.5" stroke="black" stroke-width="2" fill="none" />
<path d="M196.0,145.0,188.5,146.0,180.5,147.0,173.0,147.5" stroke="black" stroke-width="2" fill="none" />
<path d="M162.5,147.5,154.5,154.5,147.0,162.0,139.0,169.5,131.5,176.5,123.5,184.0,116.0,191.5" stroke="black" stroke-width="2" fill="none" />
<path d="M109.0,195.0,117.0,187.0,124.5,179.0,133.0,171.0" stroke="black" stroke-width="2" fill="none" />
<path d="M132.0,166.0,139.5,166.0,147.0,165.5,154.5,164.5,162.5,163.5,171.0,163.0" stroke="black" stroke-width="2" fill="none" />
<path d="M172.5,161.5,164.5,162.0,156.5,162.5,148.5,163.0" stroke="black" stroke-width="2" fill="none" />
<path d="M140.0,171.5,148.0,170.0,155.5,169.5,163.0,168.5" stroke="black" stroke-width="2" fill="none" />
<path d="M147.5,175.0,155.0,168.0,162.0,161.5,170.0,154.0,178.0,147.0,185.5,140.0,193.5,133.0,202.0,126.0" stroke="black" stroke-width="2" fill="none" />
<path d="M204.0,121.5,196.5,121.5" stroke="black" stroke-width="2" fill="none" />
<path d="M195.0,124.0,203.0,116.5" stroke="black" stroke-width="2" fill="none" />
<path d="M195.5,112.5,188.5,113.0,181.0,113.0,173.0,113.0,165.0,113.0,157.0,114.0,149.0,114.5" stroke="black" stroke-width="2" fill="none" />
<path d="M147.5,115.5,155.5,109.0" stroke="black" stroke-width="2" fill="none" />
<path d="M156.0,115.5,150.5,128.5,141.5,136.0,130.0,144.5,116.0,153.0,102.0,161.0,88.5,169.0,74.5,177.0" stroke="black" stroke-width="2" fill="none" />
<path d="M68.5,176.5,77.0,169.0,84.5,161.5,92.5,154.0,100.5,147.0,108.5,139.5" stroke="black" stroke-width="2" fill="none" />
<path d="M107.0,146.0,114.5,145.5,122.5,144.5" stroke="black" stroke-width="2" fill="none" />
<path d="M123.0,143.5,131.0,136.0,139.0,128.0,147.0,120.5,155.0,112.5,163.5,105.0,172.0,97.0,180.0,89.0,188.0,81.0" stroke="black" stroke-width="2" fill="none" />
<path d="M195.5,83.0,188.0,90.5,180.0,98.0,172.5,105.5,164.5,112.5,157.0,120.0,149.0,128.0,141.0,135.5" stroke="black" stroke-width="2" fill="none" />
<path d="M148.0,130.5,140.0,131.5,132.0,132.5" stroke="black" stroke-width="2" fill="none" />
<path d="M132.0,125.5,124.0,133.0,115.5,140.0,107.5,147.0,100.0,155.0,92.0,162.0,83.5,169.0" stroke="black" stroke-width="2" fill="none" />
<path d="M83.0,161.0,91.0,160.0,98.0,160.0" stroke="black" stroke-width="2" fill="none" />
<path d="M100.5,162.0,108.5,154.0,116.5,146.0,124.5,138.5,133.0,130.5,141.0,123.0" stroke="black" stroke-width="2" fill="none" />
<path d="M148.5,121.5,156.5,121.0,164.0,121.5" stroke="black" stroke-width="2" fill="none" />
<path d="M171.0,120.0,179.5,113.0,187.5,106.0,195.5,99.0" stroke="black" stroke-width="2" fill="none" />
<path d="M188.0,98.0,196.0,96.0,206.5,95.5,214.5,95.5" stroke="black" stroke-width="2" fill="none" />
<path d="M219.5,102.5,227.5,101.5,235.0,101.0,243.5,100.0" stroke="black" stroke-width="2" fill="none" />
<path d="M236.0,103.5,228.0,104.0,220.0,104.0" stroke="black" stroke-width="2" fill="none" />
<path d="M211.5,98.0,203.5,98.0,196.0,99.0,188.0,99.0,180.0,99.5,172.0,100.0,163.5,100.0" stroke="black" stroke-width="2" fill="none" />
<path d="M164.5,94.0,172.5,93.5,180.5,93.5,188.0,92.5,196.0,91.5,203.5,90.5,211.5,90.0,219.5,89.5,227.0,89.0,235.5,88.5,243.5,88.0" stroke="black" stroke-width="2" fill="none" />
<path d="M237.5,93.5,230.0,90.5,222.5,93.0,215.0,103.0,208.0,119.0,211.5,116.0,216.5,108.0,218.5,100.5,225.5,92.5" stroke="black" stroke-width="2" fill="none" />
<path d="M205.0,98.5,196.5,106.0,188.5,113.5" stroke="black" stroke-width="2" fill="none" />
<path d="M200.5,115.0,203.5,106.5,213.5,98.5,211.5,100.0,203.0,107.0" stroke="black" stroke-width="2" fill="none" />
<path d="M195.0,90.0,187.0,97.5,179.0,105.0,171.5,113.0,163.5,120.5" stroke="black" stroke-width="2" fill="none" />
<path d="M171.5,108.0,179.5,107.5,187.5,106.5,195.5,105.5,203.5,105.0" stroke="black" stroke-width="2" fill="none" />
<path d="M187.0,97.0,179.5,98.0,172.0,98.5" stroke="black" stroke-width="2" fill="none" />
<path d="M170.0,89.0,178.0,81.5" stroke="black" stroke-width="2" fill="none" />
<path d="M172.5,76.5,181.0,76.5,188.5,76.0,196.0,76.0" stroke="black" stroke-width="2" fill="none" />
<path d="M189.5,88.0,181.5,88.0,173.0,88.5" stroke="black" stroke-width="2" fill="none" />
<path d="M164.0,87.0,172.0,86.0,180.0,85.5,188.0,84.5,196.0,84.0" stroke="black" stroke-width="2" fill="none" />
<path d="M157.0,93.0,149.5,93.0" stroke="black" stroke-width="2" fill="none" />
<path d="M154.5,99.0,146.0,100.0,138.0,101.0" stroke="black" stroke-width="2" fill="none" />
<path d="M144.0,105.5,152.0,95.5,160.0,88.0,168.5,83.0,176.5,80.0,184.5,77.0,192.5,81.0,193.5,84.0,192.5,92.0,189.5,95.5" stroke="black" stroke-width="2" fill="none" />
<path d="M202.5,105.0,194.5,105.0,186.5,105.5,178.5,106.0,170.5,107.0,162.5,107.0,154.0,107.5,145.5,107.5,137.5,108.5" stroke="black" stroke-width="2" fill="none" />
<path d="M147.5,107.5,156.0,100.0" stroke="black" stroke-width="2" fill="none" />
<path d="M157.0,95.5,165.5,88.5,166.5,91.0,163.0,91.0,159.0,92.5,153.5,100.5,157.0,105.0,165.0,101.5,163.0,90.5,168.5,95.5,164.5,103.5" stroke="black" stroke-width="2" fill="none" />
<path d="M180.0,136.0,188.0,135.5,196.0,134.5,203.5,133.5,211.5,133.0,219.5,132.0,227.0,131.0" stroke="black" stroke-width="2" fill="none" />
<path d="M239.0,138.0,246.0,128.0,240.5,136.0,240.5,144.0,230.5,152.0,216.5,160.0,206.0,167.5,196.5,175.5,186.5,184.0,177.5,192.5,168.0,200.5,160.0,208.5,157.0,216.5,163.5,205.0,171.5,197.0,180.0,190.0,187.5,184.5,195.5,177.5,203.5,172.0,211.0,165.0,218.5,158.5,227.0,154.5,235.5,151.5" stroke="black" stroke-width="2" fill="none" />
<path d="M235.5,170.0,228.0,170.5,220.0,171.0,211.5,172.0,203.0,172.5,194.5,173.0" stroke="black" stroke-width="2" fill="none" />
<path d="M178.5,137.0,171.0,145.0,162.5,153.0,154.5,160.5,146.5,168.0,138.5,176.0,131.0,183.5" stroke="black" stroke-width="2" fill="none" />
<path d="M129.5,177.0,138.0,176.5,146.5,176.0" stroke="black" stroke-width="2" fill="none" />
<path d="M132.0,188.0,124.0,189.0" stroke="black" stroke-width="2" fill="none" />
<path d="M122.0,175.0,130.0,174.0,138.5,173.5,146.5,173.0,155.0,173.0" stroke="black" stroke-width="2" fill="none" />
<path d="M164.5,141.0,172.5,140.5,180.5,140.0,188.5,140.0,196.5,140.0,204.0,139.5" stroke="black" stroke-width="2" fill="none" />
<path d="M204.5,131.0,202.5,142.0,194.0,150.0,183.0,157.5,169.5,165.0,157.0,173.0,143.5,180.0,129.5,187.5,115.5,195.5" stroke="black" stroke-width="2" fill="none" />
<path d="M106.0,188.5,114.5,188.5,122.5,188.5,131.0,188.0" stroke="black" stroke-width="2" fill="none" />
<path d="M147.0,179.5,139.0,179.5,130.5,179.5,122.5,180.0,115.0,181.0,107.0,181.5" stroke="black" stroke-width="2" fill="none" />
<path d="M104.0,198.5,111.5,199.0,120.0,196.5,128.5,191.5,136.5,187.0,144.5,182.0,152.5,176.5,160.5,171.5,168.0,166.0,176.0,160.5,184.0,155.5,192.0,149.5,200.5,142.5,208.0,137.5,216.0,134.5,224.0,133.0,232.0,131.0,240.0,128.0,244.0,126.5" stroke="black" stroke-width="2" fill="none" />
<path d="M189.0,204.0,181.5,205.0,173.5,206.0,165.5,206.5,157.5,207.5" stroke="black" stroke-width="2" fill="none" />
<path d="M139.0,136.5,130.5,136.5,122.5,136.5,115.0,137.0" stroke="black" stroke-width="2" fill="none" />
<path d="M107.0,132.5,115.5,132.0,123.5,132.0,132.0,132.0,140.5,131.5,148.5,130.5" stroke="black" stroke-width="2" fill="none" />
<path d="M163.0,124.5,155.0,124.5,147.0,125.0,138.5,125.0,130.0,125.0,121.5,125.0" stroke="black" stroke-width="2" fill="none" />
<path d="M117.5,154.0,109.0,154.5,100.5,154.5,92.5,155.5" stroke="black" stroke-width="2" fill="none" />
<path d="M86.0,153.5,78.0,161.0,69.5,168.5,61.5,176.0" stroke="black" stroke-width="2" fill="none" />
<path d="M58.5,177.0,66.5,176.5" stroke="black" stroke-width="2" fill="none" />
<path d="M68.0,167.0,76.0,166.5,84.5,165.0,93.0,164.0,101.0,163.0" stroke="black" stroke-width="2" fill="none" />
<path d="M92.0,141.0,100.0,140.0,107.5,139.5,115.0,139.0,123.5,138.5,131.5,137.5,139.5,137.5" stroke="black" stroke-width="2" fill="none" />
<path d="M122.5,146.0,114.5,146.5,107.0,147.0,99.0,147.5,90.5,147.5,82.5,148.0" stroke="black" stroke-width="2" fill="none" />
<path d="M77.0,158.0,85.0,157.5,92.5,156.5,100.0,156.0,107.0,155.0,115.0,154.5" stroke="black" stroke-width="2" fill="none" />
<path d="M84.0,169.5,75.5,170.0" stroke="black" stroke-width="2" fill="none" />
<path d="M67.0,181.5,58.5,182.0" stroke="black" stroke-width="2" fill="none" />
<path d="M54.5,181.0,62.5,181.5,70.0,178.5,78.0,173.5,86.0,169.5,94.0,164.0,102.0,160.5,110.5,155.5,118.5,151.5,127.0,147.0,135.0,141.5,143.0,136.0,150.5,129.0,158.5,124.0,166.5,122.5,174.5,120.5,182.5,119.0,190.5,118.0,188.5,127.0,184.0,135.5,167.5,143.0,156.0,151.0,146.0,158.5,136.0,166.5,125.5,174.5,117.0,182.5,108.0,190.5,104.0,198.5,110.0,189.0,118.0,182.5,126.5,175.5,134.0,169.0,142.0,162.0,150.0,155.5,157.5,149.0,165.0,143.0,173.0,138.5,181.5,135.5,189.5,130.5" stroke="black" stroke-width="2" fill="none" />
<path d="M83.0,172.5,75.0,173.0,67.0,173.5,59.0,173.5,51.0,173.5" stroke="black" stroke-width="2" fill="none" />
<path d="M10.0,70.5,2.0,71.0" stroke="black" stroke-width="2" fill="none" />
<path d="M3.5,61.5,11.5,60.5,19.5,59.5,27.5,59.0" stroke="black" stroke-width="2" fill="none" />
<path d="M36.0,50.5,28.0,50.5,20.0,51.0,13.0,51.5,5.0,52.0" stroke="black" stroke-width="2" fill="none" />
<path d="M4.5,44.5,12.5,44.0,21.0,44.0,29.5,43.5,37.5,43.5,45.5,43.0,53.0,42.5,61.0,42.0" stroke="black" stroke-width="2" fill="none" />
<path d="M69.5,34.0,61.5,34.5,54.0,35.0,46.5,35.0,38.0,35.5,29.5,35.5,21.5,35.0,13.5,35.0,5.5,35.5" stroke="black" stroke-width="2" fill="none" />
<path d="M4.0,29.5,12.0,28.5,20.5,28.0,28.5,27.0,37.0,26.5,45.0,26.0,53.0,25.5,61.0,26.0,69.0,25.5,77.5,25.0,85.5,24.0,93.0,24.0" stroke="black" stroke-width="2" fill="none" />
<path d="M115.0,14.0,107.0,15.5,99.5,16.5,92.0,17.0,84.0,18.5,76.5,19.0,68.5,19.5,60.5,20.0,52.5,20.5,45.0,21.0,36.5,21.5,29.0,22.0,21.0,22.5,12.0,22.5,4.0,22.5" stroke="black" stroke-width="2" fill="none" />
<path d="M5.5,14.0,14.0,13.5,22.0,12.5,29.5,12.0,37.5,11.5,45.0,11.0,52.0,10.0,59.0,9.5,66.5,9.0,74.5,8.0,82.5,7.5,90.5,7.5,99.0,7.0,107.5,6.5,115.5,6.0,123.5,5.0,131.5,5.0" stroke="black" stroke-width="2" fill="none" />
<path d="M162.5,-6.5,154.5,-6.5,146.0,-6.0,138.0,-5.5,129.5,-5.0,122.0,-4.0,113.5,-3.5,105.0,-1.5,97.0,-0.5,89.0,1.0,81.0,1.5,73.0,2.0,65.5,2.0,58.0,2.0,51.5,2.0,44.5,3.0,36.5,3.5,28.5,3.5,21.0,4.0,13.0,4.0,5.0,4.5" stroke="black" stroke-width="2" fill="none" />
</svg>