<svg xmlns="http://www.w3.org/2000/svg" version="1.1"><polyline points="180.0,78.5,162.5,86.5,154.5,94.5,147.0,102.5,143.0,110.0,141.5,118.0,123.0,126.0,110.0,134.0,98.5,142.0,87.5,150.0,76.5,158.0,66.5,166.0,57.0,173.5,53.0,181.0,58.5,172.5,67.0,166.5,75.0,160.0,83.5,153.0,92.0,147.0,100.5,142.5,108.5,136.5,116.5,131.5,124.5,126.5,132.5,122.5,140.5,119.5" stroke="black" stroke-width="2" fill="none" />
<polyline points="137.0,117.5,145.0,116.5,153.5,115.5,162.0,114.5,170.0,114.5,179.0,114.0,187.5,113.0,196.5,112.5,205.0,112.0,213.5,112.0,221.5,111.5,229.5,111.0,237.5,110.5,245.5,110.0,253.5,109.5,261.5,109.0" stroke="black" stroke-width="2" fill="none" />
<polyline points="264.5,115.5,264.5,123.5,261.0,131.5" stroke="black" stroke-width="2" fill="none" />
<polyline points="259.0,132.0,251.0,139.5,243.0,147.0,235.5,154.5,227.5,162.0,219.5,169.5,211.5,177.0,204.0,184.5,196.5,192.0,189.0,199.0" stroke="black" stroke-width="2" fill="none" />
<polyline points="185.5,193.5,194.0,193.0,203.0,193.0" stroke="black" stroke-width="2" fill="none" />
<polyline points="197.5,184.5,205.5,184.0,213.5,183.5" stroke="black" stroke-width="2" fill="none" />
<polyline points="210.5,182.5,218.5,174.5,226.5,167.0,234.5,159.0,242.5,152.0,250.5,144.5,258.5,137.0,266.5,129.5,274.5,122.5,282.5,115.5,290.5,108.0" stroke="black" stroke-width="2" fill="none" />
<polyline points="290.0,115.5,282.0,123.0,273.5,130.5,266.0,138.0,258.5,145.5,251.0,153.5,243.0,160.5,235.0,167.5" stroke="black" stroke-width="2" fill="none" />
<polyline points="227.0,163.0,235.0,162.0,243.0,161.0" stroke="black" stroke-width="2" fill="none" />
<polyline points="245.5,153.5,253.5,153.5" stroke="black" stroke-width="2" fill="none" />
<polyline points="255.0,155.0,248.0,162.5,240.0,170.5,226.5,178.5,214.0,186.0,202.5,194.0,189.5,202.0,177.5,210.0" stroke="black" stroke-width="2" fill="none" />
<polyline points="173.0,209.0,181.0,201.5,189.0,194.0,196.5,186.5,204.0,179.5,211.5,171.5,219.5,163.5,227.0,156.5" stroke="black" stroke-width="2" fill="none" />
<polyline points="228.5,150.5,236.5,149.5,244.5,149.5,252.5,149.0,260.5,148.5,268.5,148.0,276.5,147.0" stroke="black" stroke-width="2" fill="none" />
<polyline points="283.5,144.0,291.5,136.5,299.5,129.0,307.5,121.5" stroke="black" stroke-width="2" fill="none" />
<polyline points="300.5,123.5,292.0,131.0,283.5,138.0,275.0,145.5" stroke="black" stroke-width="2" fill="none" />
<polyline points="266.5,147.0,274.5,140.0,283.0,132.5,291.0,124.5" stroke="black" stroke-width="2" fill="none" />
<polyline points="292.5,119.0,284.5,118.5,276.5,118.5" stroke="black" stroke-width="2" fill="none" />
<polyline points="276.5,112.0,284.5,111.5" stroke="black" stroke-width="2" fill="none" />
<polyline points="282.0,109.0,274.0,116.0,266.0,123.5" stroke="black" stroke-width="2" fill="none" />
<polyline points="267.5,125.5,275.5,124.5,283.5,124.0,291.0,123.5,298.5,123.0,306.0,122.0,314.0,122.0" stroke="black" stroke-width="2" fill="none" />
<polyline points="321.5,117.0,329.5,117.0,337.5,116.5" stroke="black" stroke-width="2" fill="none" />
<polyline points="332.0,116.0,319.0,124.5,311.0,132.5,307.5,140.5,308.0,149.0,312.5,150.0,318.0,135.5" stroke="black" stroke-width="2" fill="none" />
<polyline points="322.5,134.0,330.5,134.0,338.0,133.5,345.5,133.0" stroke="black" stroke-width="2" fill="none" />
<polyline points="346.5,131.0,338.5,138.5,330.5,146.5,323.0,154.0,316.5,162.0,309.0,170.0" stroke="black" stroke-width="2" fill="none" />
<polyline points="309.0,171.0,301.0,171.5" stroke="black" stroke-width="2" fill="none" />
<polyline points="300.5,177.5,292.5,185.0" stroke="black" stroke-width="2" fill="none" />
<polyline points="285.5,175.5,293.5,175.0,301.0,174.5" stroke="black" stroke-width="2" fill="none" />
<polyline points="299.5,178.5,292.0,178.5,284.5,178.5,277.0,179.5,269.0,180.5" stroke="black" stroke-width="2" fill="none" />
<polyline points="275.0,180.0,267.0,187.5,259.5,195.5,252.0,202.5,244.5,209.5,237.0,216.5,228.5,224.0,220.0,232.0" stroke="black" stroke-width="2" fill="none" />
<polyline points="221.0,225.5,229.5,218.0,237.0,210.5" stroke="black" stroke-width="2" fill="none" />
<polyline points="236.0,204.5,244.0,204.5,252.0,204.5,260.0,204.5,268.0,205.0" stroke="black" stroke-width="2" fill="none" />
<polyline points="269.5,199.5,277.5,191.5,285.0,184.0,293.0,176.0,300.5,168.5,308.5,160.5,316.5,153.0,324.5,145.5,332.5,137.5,341.0,129.5,349.5,121.5" stroke="black" stroke-width="2" fill="none" />
<polyline points="339.0,123.0,330.5,130.5,322.5,138.0" stroke="black" stroke-width="2" fill="none" />
<polyline points="322.0,138.5,330.0,138.0,338.5,137.0" stroke="black" stroke-width="2" fill="none" />
<polyline points="348.0,138.0,340.0,145.5,332.5,153.0,324.5,161.0" stroke="black" stroke-width="2" fill="none" />
<polyline points="323.5,154.5,331.0,153.5,339.5,153.0" stroke="black" stroke-width="2" fill="none" />
<polyline points="348.0,154.5,356.0,147.0" stroke="black" stroke-width="2" fill="none" />
<polyline points="349.0,147.5,341.0,155.0,333.0,162.0" stroke="black" stroke-width="2" fill="none" />
<polyline points="348.0,164.5,356.0,164.0,364.0,163.0,371.5,162.0,378.5,161.0,386.0,161.0,394.0,160.5,402.5,159.5,410.5,159.0,418.5,159.0" stroke="black" stroke-width="2" fill="none" />
<polyline points="411.0,164.5,402.5,171.5" stroke="black" stroke-width="2" fill="none" />
<polyline points="402.5,178.5,410.5,171.5" stroke="black" stroke-width="2" fill="none" />
<polyline points="410.5,177.0,402.0,178.0,394.0,179.5,386.0,181.0,378.0,183.0,370.5,184.5,362.5,184.5,355.0,188.5,347.0,198.5" stroke="black" stroke-width="2" fill="none" />
<polyline points="341.5,196.5,350.0,196.0,358.0,195.5" stroke="black" stroke-width="2" fill="none" />
<polyline points="357.5,197.5,349.5,205.0,341.0,212.5" stroke="black" stroke-width="2" fill="none" />
<polyline points="345.5,200.0,338.0,200.0,330.5,201.0,323.5,201.5" stroke="black" stroke-width="2" fill="none" />
<polyline points="317.5,196.5,326.0,195.5,334.0,195.0,341.5,194.5,348.5,194.5,355.5,194.0,363.5,194.0" stroke="black" stroke-width="2" fill="none" />
<polyline points="363.0,187.0,355.0,187.5,347.0,187.5,338.5,187.5,330.5,188.0" stroke="black" stroke-width="2" fill="none" />
<polyline points="340.0,183.5,347.5,183.0,355.5,182.5,363.5,182.0,371.5,181.5,380.0,180.5,387.5,179.5" stroke="black" stroke-width="2" fill="none" />
<polyline points="388.5,179.5,397.0,172.0,405.0,164.0" stroke="black" stroke-width="2" fill="none" />
<polyline points="405.0,155.5,397.5,163.5,389.5,171.5,381.5,179.0" stroke="black" stroke-width="2" fill="none" />
<polyline points="379.5,167.5,387.5,167.0,395.0,166.5" stroke="black" stroke-width="2" fill="none" />
<polyline points="387.5,154.5,395.5,154.0,403.0,154.0" stroke="black" stroke-width="2" fill="none" />
<polyline points="405.0,148.0,397.0,155.5,388.0,163.5,379.5,171.0,371.0,178.5,363.0,186.5" stroke="black" stroke-width="2" fill="none" />
<polyline points="363.0,185.0,355.0,185.0" stroke="black" stroke-width="2" fill="none" />
<polyline points="353.5,179.0,361.5,178.5,370.0,177.5,378.5,176.5,387.5,176.0" stroke="black" stroke-width="2" fill="none" />
<polyline points="379.0,160.0,387.5,159.0,396.0,158.5" stroke="black" stroke-width="2" fill="none" />
<polyline points="395.5,146.0,387.5,146.5" stroke="black" stroke-width="2" fill="none" />
<polyline points="379.5,143.0,388.0,142.5,396.0,141.5,404.5,141.5" stroke="black" stroke-width="2" fill="none" />
<polyline points="404.0,139.5,395.5,147.0,388.0,154.5,380.0,162.5,371.5,170.5,362.5,178.0,354.5,186.0,346.0,194.0,338.0,201.5,330.0,209.0,322.0,216.5,314.0,224.0" stroke="black" stroke-width="2" fill="none" />
<polyline points="308.5,215.5,317.0,215.0,325.0,215.5,333.0,215.5" stroke="black" stroke-width="2" fill="none" />
<polyline points="339.5,207.5,331.5,208.0,323.5,209.0,316.0,209.0" stroke="black" stroke-width="2" fill="none" />
<polyline points="306.5,205.5,314.5,205.0,322.0,204.5,330.0,204.0,338.5,204.0,346.5,203.5" stroke="black" stroke-width="2" fill="none" />
<polyline points="341.0,186.5,333.0,194.0,325.0,201.5,317.0,209.5,308.5,217.5,300.5,225.5,292.5,233.5,284.0,241.5,276.0,249.5" stroke="black" stroke-width="2" fill="none" />
<polyline points="276.0,247.5,284.5,247.5" stroke="black" stroke-width="2" fill="none" />
<polyline points="284.0,245.5,292.0,237.5,300.5,230.0,308.0,222.5,316.0,215.0,323.5,207.0,332.0,200.0,340.5,193.0,348.5,185.5,356.0,178.0,364.0,170.5" stroke="black" stroke-width="2" fill="none" />
<polyline points="363.0,164.0,355.5,171.5" stroke="black" stroke-width="2" fill="none" />
<polyline points="355.5,169.5,363.0,169.5" stroke="black" stroke-width="2" fill="none" />
<polyline points="357.5,165.0,365.5,157.5" stroke="black" stroke-width="2" fill="none" />
<polyline points="362.5,159.5,366.5,148.5,374.0,139.5,382.0,138.0,390.0,136.0,397.5,138.5" stroke="black" stroke-width="2" fill="none" />
<polyline points="395.0,137.5,402.0,145.5,401.0,153.0,397.0,161.0,388.0,169.0,385.0,171.5,393.0,165.5,401.5,152.5" stroke="black" stroke-width="2" fill="none" />
<polyline points="394.0,140.5,386.0,148.5,378.5,156.5" stroke="black" stroke-width="2" fill="none" />
<polyline points="378.5,156.5,387.0,156.5,395.5,156.0,404.0,156.0,412.0,155.5,420.0,155.0" stroke="black" stroke-width="2" fill="none" />
<polyline points="427.0,163.0,434.5,158.5,433.0,156.5,425.0,164.0,420.5,171.5,418.5,179.5,423.5,182.5,431.5,176.5" stroke="black" stroke-width="2" fill="none" />
<polyline points="435.5,178.0,443.5,178.0,451.5,177.5" stroke="black" stroke-width="2" fill="none" />
<polyline points="451.0,184.0,450.5,192.5,453.5,197.5,462.0,194.0,470.5,191.0" stroke="black" stroke-width="2" fill="none" />
<polyline points="473.0,187.0,463.0,193.0" stroke="black" stroke-width="2" fill="none" />
<polyline points="452.0,185.5,444.0,193.0" stroke="black" stroke-width="2" fill="none" />
<polyline points="451.0,185.5,443.0,186.0,435.0,186.5" stroke="black" stroke-width="2" fill="none" />
<polyline points="437.0,173.5,445.0,173.0,453.5,172.5,461.5,171.5,469.0,171.0,476.5,170.0" stroke="black" stroke-width="2" fill="none" />
<polyline points="460.0,174.5,452.0,181.5,443.5,187.5,435.5,194.5,427.5,201.0" stroke="black" stroke-width="2" fill="none" />
<polyline points="420.0,201.0,428.0,193.5,436.0,186.0,443.5,178.0,451.5,170.5,459.5,162.5" stroke="black" stroke-width="2" fill="none" />
<polyline points="459.5,153.5,452.0,161.5,444.0,169.5,436.0,177.0,427.5,185.0,419.0,193.0,411.0,200.0,402.5,207.5,394.5,215.0,386.5,222.5,378.5,230.0,371.0,237.5,363.5,245.0,355.5,253.0" stroke="black" stroke-width="2" fill="none" />
<polyline points="347.5,248.5,355.5,248.0,364.0,248.0,372.5,248.0" stroke="black" stroke-width="2" fill="none" />
<polyline points="379.5,241.0,371.5,241.5,363.5,242.5" stroke="black" stroke-width="2" fill="none" />
<polyline points="354.0,236.5,362.0,236.0,369.5,236.0,377.5,235.5,385.5,234.5" stroke="black" stroke-width="2" fill="none" />
<polyline points="386.5,233.0,394.5,225.5,402.5,217.5,410.5,210.0" stroke="black" stroke-width="2" fill="none" />
<polyline points="411.5,202.0,419.5,201.5,427.5,201.0" stroke="black" stroke-width="2" fill="none" />
<polyline points="427.0,202.0,419.0,203.0,411.0,203.5,403.0,205.0,395.5,206.0,387.5,206.5" stroke="black" stroke-width="2" fill="none" />
<polyline points="388.5,211.5,380.0,219.0,371.5,226.5,363.5,233.5,355.5,240.0,347.5,247.5,340.0,256.0,332.0,264.0" stroke="black" stroke-width="2" fill="none" />
<polyline points="332.5,263.0,340.0,262.5,347.0,262.0,354.5,261.0" stroke="black" stroke-width="2" fill="none" />
<polyline points="347.5,263.5,339.5,264.0" stroke="black" stroke-width="2" fill="none" />
<polyline points="340.5,264.5,348.5,257.0,356.5,249.0,365.0,241.5,372.5,233.5,380.0,225.5,388.0,218.0,396.0,210.5,403.5,203.0" stroke="black" stroke-width="2" fill="none" />
<polyline points="403.0,196.0,411.0,196.0,419.0,195.5,427.0,195.0,435.0,195.0,443.0,194.5,451.0,194.5" stroke="black" stroke-width="2" fill="none" />
<polyline points="458.0,168.5,450.0,167.5,442.0,168.0" stroke="black" stroke-width="2" fill="none" />
<polyline points="437.0,166.0,445.0,165.0,452.5,164.0,460.5,163.0" stroke="black" stroke-width="2" fill="none" />
<polyline points="459.0,160.5,450.5,161.5,441.5,162.0" stroke="black" stroke-width="2" fill="none" />
<polyline points="433.0,166.0,438.0,160.0,433.0,169.0,432.0,177.0" stroke="black" stroke-width="2" fill="none" />
<polyline points="435.0,169.5,442.5,162.0,450.5,154.5" stroke="black" stroke-width="2" fill="none" />
<polyline points="452.0,154.0,444.0,153.5,436.0,155.5,428.0,158.5,420.0,168.5" stroke="black" stroke-width="2" fill="none" />
<polyline points="420.5,171.0,412.5,178.5" stroke="black" stroke-width="2" fill="none" />
<polyline points="416.0,173.0,412.5,174.0,406.5,182.0,405.0,190.0,407.0,198.0,392.0,206.0,381.0,214.5,373.0,222.5,364.0,230.5,355.5,238.0,346.5,246.0,338.5,254.0,331.5,262.5,325.0,270.5,326.0,268.5,334.0,259.5,342.5,251.0,351.0,243.5,359.5,236.5,368.0,228.5,376.0,221.5,383.5,214.5,391.5,208.5,399.5,204.5,407.5,199.5" stroke="black" stroke-width="2" fill="none" />
<polyline points="412.0,195.5,420.0,194.5,427.5,194.0,435.0,193.0,443.5,191.5,452.0,190.0" stroke="black" stroke-width="2" fill="none" />
<polyline points="421.0,182.0,413.0,189.5" stroke="black" stroke-width="2" fill="none" />
<polyline points="412.0,186.5,420.0,186.5" stroke="black" stroke-width="2" fill="none" />
<polyline points="420.0,187.5,412.5,195.5" stroke="black" stroke-width="2" fill="none" />
<polyline points="403.5,190.5,411.5,189.5,419.5,189.0,427.0,188.5,435.0,188.5,443.0,188.0,451.5,187.5,459.5,187.0,467.5,186.5" stroke="black" stroke-width="2" fill="none" />
<polyline points="458.5,155.5,450.5,155.5,442.5,155.0,434.5,155.5" stroke="black" stroke-width="2" fill="none" />
<polyline points="443.5,150.0,451.5,150.0" stroke="black" stroke-width="2" fill="none" />
<polyline points="452.5,155.5,458.5,163.5,457.5,171.5,453.5,179.0,444.5,186.5,434.0,193.5,442.0,188.5,450.5,182.5,458.5,168.5" stroke="black" stroke-width="2" fill="none" />
<polyline points="478.0,177.5,469.0,178.0,461.0,178.5,453.0,179.0,445.5,180.0,437.0,180.5,429.0,181.5,421.0,182.5,413.0,183.5,405.0,183.5" stroke="black" stroke-width="2" fill="none" />
<polyline points="421.0,169.0,412.0,168.5,403.5,168.5,395.5,169.0,388.0,169.5,379.5,170.0,371.5,170.0,364.0,170.5,356.5,171.0,348.5,172.0" stroke="black" stroke-width="2" fill="none" />
<polyline points="348.5,162.5,356.0,155.0,364.0,148.0" stroke="black" stroke-width="2" fill="none" />
<polyline points="362.0,154.0,354.5,154.5,347.5,155.0,341.0,155.5,333.0,156.0,325.0,157.0,317.0,158.0,308.5,158.0,300.5,158.5" stroke="black" stroke-width="2" fill="none" />
<polyline points="299.0,163.0,306.5,156.0" stroke="black" stroke-width="2" fill="none" />
<polyline points="306.5,149.5,298.5,157.0" stroke="black" stroke-width="2" fill="none" />
<polyline points="299.5,153.0,308.0,152.5" stroke="black" stroke-width="2" fill="none" />
<polyline points="307.0,162.5,314.5,162.5,322.5,162.0,330.0,161.0" stroke="black" stroke-width="2" fill="none" />
<polyline points="324.0,145.0,331.5,145.0,338.5,144.5" stroke="black" stroke-width="2" fill="none" />
<polyline points="330.5,129.0,338.5,128.0,347.0,127.5" stroke="black" stroke-width="2" fill="none" />
<polyline points="330.5,122.5,323.0,130.5" stroke="black" stroke-width="2" fill="none" />
<polyline points="323.5,125.0,332.0,125.0,340.0,124.5,348.0,124.0" stroke="black" stroke-width="2" fill="none" />
<polyline points="372.0,139.0,364.0,139.5,356.5,140.0,348.5,139.5,341.0,140.0,333.0,140.0,325.0,140.0,317.0,141.0" stroke="black" stroke-width="2" fill="none" />
<polyline points="307.5,139.0,299.5,146.5" stroke="black" stroke-width="2" fill="none" />
<polyline points="293.5,150.5,301.5,149.5,309.5,148.5,317.5,148.0,325.5,147.0,333.5,145.5,341.5,145.5,349.5,144.5,357.5,144.0,365.0,144.0" stroke="black" stroke-width="2" fill="none" />
<polyline points="374.0,144.0,382.0,140.0,371.0,143.5,367.0,151.5,363.5,158.5,367.5,167.0,369.5,166.0,372.0,166.0,378.0,147.0,379.5,146.0,378.5,154.0,374.5,162.0" stroke="black" stroke-width="2" fill="none" />
<polyline points="378.5,149.5,387.0,149.0,395.5,148.5,403.5,148.0" stroke="black" stroke-width="2" fill="none" />
<polyline points="397.0,133.5,388.0,133.5" stroke="black" stroke-width="2" fill="none" />
<polyline points="362.0,162.5,354.0,163.0" stroke="black" stroke-width="2" fill="none" />
<polyline points="353.5,161.5,348.5,159.5,340.5,161.5,332.5,163.5,324.5,165.5,316.5,167.5,308.5,169.5,303.0,176.5,295.5,177.0,293.0,187.0,285.0,192.0,277.5,197.0,269.5,203.0,262.0,208.5,253.5,213.5,245.5,219.5,238.0,224.5,230.0,229.5,222.0,233.5,213.5,233.5" stroke="black" stroke-width="2" fill="none" />
<polyline points="212.0,231.0,220.0,230.5,227.5,229.5" stroke="black" stroke-width="2" fill="none" />
<polyline points="228.0,225.5,236.5,224.5" stroke="black" stroke-width="2" fill="none" />
<polyline points="237.0,218.0,244.5,217.5" stroke="black" stroke-width="2" fill="none" />
<polyline points="244.5,218.5,252.5,211.0,260.0,203.0,267.0,195.5,274.0,188.0,282.0,181.0,290.0,173.0" stroke="black" stroke-width="2" fill="none" />
<polyline points="291.5,164.0,300.0,164.0,308.5,163.5,316.5,163.0,324.0,162.5" stroke="black" stroke-width="2" fill="none" />
<polyline points="309.0,171.0,300.0,171.0,291.5,170.5,283.5,171.0,275.5,171.0" stroke="black" stroke-width="2" fill="none" />
<polyline points="276.5,183.0,284.5,182.5,292.5,182.5" stroke="black" stroke-width="2" fill="none" />
<polyline points="284.5,191.5,277.0,192.0,269.0,193.0" stroke="black" stroke-width="2" fill="none" />
<polyline points="268.5,201.0,260.5,202.0,252.5,202.5" stroke="black" stroke-width="2" fill="none" />
<polyline points="246.0,197.5,253.5,197.0,261.0,197.0,268.5,196.0,276.0,194.5,283.5,193.5" stroke="black" stroke-width="2" fill="none" />
<polyline points="301.5,215.0,309.0,214.5,316.5,213.5,324.5,212.0,332.0,211.0,339.5,210.0" stroke="black" stroke-width="2" fill="none" />
<polyline points="362.0,229.5,370.0,229.0,379.0,229.0,387.5,228.0,396.0,227.5" stroke="black" stroke-width="2" fill="none" />
<polyline points="402.0,216.5,394.5,217.0,386.5,217.5" stroke="black" stroke-width="2" fill="none" />
<polyline points="381.0,226.5,389.0,225.5,396.5,224.5" stroke="black" stroke-width="2" fill="none" />
<polyline points="396.5,210.0,404.5,209.5,413.0,209.5" stroke="black" stroke-width="2" fill="none" />
<polyline points="418.5,209.0,410.5,210.0,402.5,210.5,394.5,211.0,386.0,211.0,378.0,211.0" stroke="black" stroke-width="2" fill="none" />
<polyline points="371.5,223.0,379.5,222.5,387.5,222.5,396.0,222.0,404.0,221.0,412.0,220.0" stroke="black" stroke-width="2" fill="none" />
<polyline points="417.5,213.5,409.5,223.5,409.5,223.5,417.0,215.5,424.0,208.0" stroke="black" stroke-width="2" fill="none" />
<polyline points="420.5,204.0,407.0,212.0,403.0,220.0,398.5,229.5,391.5,237.5,383.5,242.5,372.5,250.5,360.5,259.0,348.5,267.0,335.5,275.0,336.5,271.0" stroke="black" stroke-width="2" fill="none" />
<polyline points="338.5,271.0,330.5,272.0" stroke="black" stroke-width="2" fill="none" />
<polyline points="326.5,272.0,334.0,274.5,342.0,270.5,350.0,265.0,357.5,260.5,365.5,254.5,374.0,249.5,382.5,243.0,391.5,237.0,399.5,228.0,405.0,214.0,413.5,206.0,421.5,202.5,429.5,202.5,437.5,200.0,445.5,196.5" stroke="black" stroke-width="2" fill="none" />
<polyline points="387.5,234.0,380.0,235.5,373.0,236.0" stroke="black" stroke-width="2" fill="none" />
<polyline points="380.0,242.5,371.5,243.5,363.5,244.5,355.5,244.5,347.5,245.0" stroke="black" stroke-width="2" fill="none" />
<polyline points="341.0,256.0,348.5,255.0,356.5,254.5,364.5,253.5" stroke="black" stroke-width="2" fill="none" />
<polyline points="355.5,257.5,347.5,257.0,339.0,257.5" stroke="black" stroke-width="2" fill="none" />
<polyline points="317.0,226.0,308.5,226.5,300.5,227.0" stroke="black" stroke-width="2" fill="none" />
<polyline points="308.0,231.5,300.5,232.5,292.0,233.0" stroke="black" stroke-width="2" fill="none" />
<polyline points="285.5,230.5,293.5,230.0,301.0,229.0,309.0,228.5,317.0,228.0" stroke="black" stroke-width="2" fill="none" />
<polyline points="331.0,219.0,323.0,219.0,315.5,220.0,307.5,220.5,299.5,221.0,291.5,221.5" stroke="black" stroke-width="2" fill="none" />
<polyline points="302.0,235.0,293.5,235.5,285.5,235.5,277.0,236.0" stroke="black" stroke-width="2" fill="none" />
<polyline points="285.0,243.0,293.0,242.0" stroke="black" stroke-width="2" fill="none" />
<polyline points="292.0,244.0,284.0,244.0,275.5,244.5,267.5,245.0" stroke="black" stroke-width="2" fill="none" />
<polyline points="270.0,252.5,278.0,253.5,286.0,250.0,294.0,244.0,302.0,238.0,310.0,233.0,318.0,228.0,326.0,221.5,334.0,215.5,342.0,210.5,350.0,205.5,358.0,197.5,362.5,184.5,350.5,193.0,346.5,201.0,335.5,215.0,324.5,222.5,314.0,230.5,301.5,238.5,292.0,246.5" stroke="black" stroke-width="2" fill="none" />
<polyline points="293.0,187.5,284.5,187.5,276.5,188.0,268.0,188.0,260.0,188.0,252.0,188.5" stroke="black" stroke-width="2" fill="none" />
<polyline points="245.5,208.5,253.0,208.0,261.5,207.5" stroke="black" stroke-width="2" fill="none" />
<polyline points="258.0,210.0,250.5,210.0,242.5,210.5,234.5,211.0,226.0,212.0" stroke="black" stroke-width="2" fill="none" />
<polyline points="221.0,224.0,228.5,223.5,236.0,223.0,244.0,222.0" stroke="black" stroke-width="2" fill="none" />
<polyline points="234.5,168.5,226.5,170.0,218.5,170.5,211.0,171.0" stroke="black" stroke-width="2" fill="none" />
<polyline points="203.5,165.5,212.0,165.0,220.0,164.0,228.5,162.5,236.5,161.5,244.5,160.5,252.5,160.0" stroke="black" stroke-width="2" fill="none" />
<polyline points="252.0,157.5,244.0,158.0,236.0,158.5,227.5,159.0,219.5,159.5" stroke="black" stroke-width="2" fill="none" />
<polyline points="228.5,176.5,220.5,177.5,212.5,178.5,205.0,179.0" stroke="black" stroke-width="2" fill="none" />
<polyline points="197.5,179.5,189.5,187.5,181.0,195.0,173.0,202.5,165.0,209.5" stroke="black" stroke-width="2" fill="none" />
<polyline points="163.5,210.0,171.0,209.0" stroke="black" stroke-width="2" fill="none" />
<polyline points="169.5,202.5,178.0,202.0,186.0,201.5" stroke="black" stroke-width="2" fill="none" />
<polyline points="180.5,191.0,188.5,190.5,196.0,190.0,204.5,189.0,212.5,187.5" stroke="black" stroke-width="2" fill="none" />
<polyline points="195.5,172.5,203.5,172.0,212.0,172.0,220.5,171.5,228.5,171.5,236.0,171.0" stroke="black" stroke-width="2" fill="none" />
<polyline points="227.5,180.0,219.0,180.5,211.0,181.0,203.0,182.0,195.0,182.5,187.0,183.0" stroke="black" stroke-width="2" fill="none" />
<polyline points="172.0,160.0,180.5,153.0,189.0,145.5,197.0,137.5,204.5,130.0,212.5,122.5,220.0,115.0,227.5,107.5,235.5,100.5" stroke="black" stroke-width="2" fill="none" />
<polyline points="235.5,92.5,227.0,99.5,218.5,107.0" stroke="black" stroke-width="2" fill="none" />
<polyline points="220.5,104.0,228.0,103.5,236.0,103.0" stroke="black" stroke-width="2" fill="none" />
<polyline points="243.5,107.0,235.5,114.5,228.0,122.5,220.0,130.0" stroke="black" stroke-width="2" fill="none" />
<polyline points="228.5,129.0,236.5,122.0,245.0,114.0,253.0,107.0" stroke="black" stroke-width="2" fill="none" />
<polyline points="253.0,115.0,245.0,122.5,237.0,130.5" stroke="black" stroke-width="2" fill="none" />
<polyline points="237.5,134.5,245.5,134.0,253.5,133.5,261.5,133.0,269.0,133.0,277.0,132.5,285.5,131.5,293.0,131.0,301.0,130.5,308.5,130.0" stroke="black" stroke-width="2" fill="none" />
<polyline points="307.5,131.5,299.5,138.5,291.5,146.0" stroke="black" stroke-width="2" fill="none" />
<polyline points="301.0,136.0,292.5,136.0,284.0,136.5,275.5,137.5,267.0,138.5" stroke="black" stroke-width="2" fill="none" />
<polyline points="268.5,129.5,276.0,128.5,284.0,128.5" stroke="black" stroke-width="2" fill="none" />
<polyline points="292.5,115.5,284.5,116.5,276.0,117.5,268.0,118.0" stroke="black" stroke-width="2" fill="none" />
<polyline points="268.0,116.0,276.0,108.5" stroke="black" stroke-width="2" fill="none" />
<polyline points="272.5,106.5,261.0,114.5,253.0,122.5,251.5,130.5,254.0,130.5,259.5,134.5" stroke="black" stroke-width="2" fill="none" />
<polyline points="250.5,129.0,243.0,136.5" stroke="black" stroke-width="2" fill="none" />
<polyline points="240.5,137.0,247.5,127.0,241.5,135.5,241.0,143.5,231.0,152.0,217.0,160.0,206.0,168.0,195.5,176.5,185.5,184.5,176.5,192.5,167.5,200.5,159.5,208.5,156.5,216.5,162.5,205.5,170.5,198.0,178.5,191.0,186.5,185.0,194.5,177.5,203.0,171.5,211.5,164.0,219.5,158.0,227.5,154.0,235.5,151.0" stroke="black" stroke-width="2" fill="none" />
<polyline points="244.0,146.5,252.0,146.0,260.5,145.0,268.5,144.5,276.0,143.5" stroke="black" stroke-width="2" fill="none" />
<polyline points="251.5,138.5,243.5,139.0" stroke="black" stroke-width="2" fill="none" />
<polyline points="245.0,143.5,253.0,143.0,260.0,142.5,267.0,142.0,274.5,141.0,282.5,139.5,290.0,139.0,298.0,138.5,306.0,138.0" stroke="black" stroke-width="2" fill="none" />
<polyline points="306.5,134.0,314.5,128.0,323.0,119.5,331.0,116.0,339.5,116.5,343.0,119.5,346.0,127.0,344.5,135.0,340.0,143.0,332.5,151.5,330.5,153.5,338.5,146.5,346.5,132.5" stroke="black" stroke-width="2" fill="none" />
<polyline points="353.5,161.0,348.5,169.0,350.0,176.5,343.0,184.0,329.5,192.0,320.5,200.0,311.5,208.0,302.5,216.0,294.5,224.5,285.5,233.0,278.0,241.0,271.0,249.0,269.0,253.0,277.0,242.0,285.5,232.5,293.5,225.0,301.5,217.0,309.0,210.0,316.5,203.0,324.5,196.0,332.5,189.0,341.0,185.0,349.0,181.0" stroke="black" stroke-width="2" fill="none" />
<polyline points="364.5,187.0,362.0,195.0,356.0,202.5" stroke="black" stroke-width="2" fill="none" />
<polyline points="366.0,177.5,374.0,177.5" stroke="black" stroke-width="2" fill="none" />
<polyline points="369.0,178.5,377.0,178.5,390.0,173.0" stroke="black" stroke-width="2" fill="none" />
<polyline points="315.0,149.0,319.0,141.0,318.5,133.0,324.0,125.0,310.0,125.5,302.0,123.5,294.5,123.5,285.5,127.5,277.0,135.5,272.0,139.5,282.0,131.5,288.0,123.0,289.5,114.5,285.5,106.5,282.5,105.0,275.0,106.0,267.0,109.5,259.5,117.5,251.0,125.5" stroke="black" stroke-width="2" fill="none" />
<polyline points="252.0,123.0,244.0,130.0" stroke="black" stroke-width="2" fill="none" />
<polyline points="235.0,112.0,227.0,113.0,219.0,113.5" stroke="black" stroke-width="2" fill="none" />
<polyline points="212.5,110.0,220.5,109.0,228.0,108.5,235.5,108.5,243.0,108.0,251.0,107.0,259.5,106.0,267.5,105.0,276.0,103.5,284.0,102.5,292.5,101.5" stroke="black" stroke-width="2" fill="none" />
<polyline points="244.5,98.0,236.0,105.5,228.0,113.0,220.0,120.0,211.5,128.0,204.0,136.0" stroke="black" stroke-width="2" fill="none" />
<polyline points="202.0,137.5,194.0,138.0" stroke="black" stroke-width="2" fill="none" />
<polyline points="195.0,145.0,187.5,145.0,180.0,145.5,172.0,146.5" stroke="black" stroke-width="2" fill="none" />
<polyline points="164.0,148.5,156.0,156.0,148.0,163.0,139.5,170.5,132.0,177.5,124.0,184.5,116.0,191.5" stroke="black" stroke-width="2" fill="none" />
<polyline points="109.0,191.0,117.0,190.0,124.5,189.5,132.5,188.5" stroke="black" stroke-width="2" fill="none" />
<polyline points="132.0,184.5,140.0,177.0,148.0,169.5,155.5,161.5,163.0,154.0,171.0,146.0,178.5,138.0" stroke="black" stroke-width="2" fill="none" />
<polyline points="179.0,135.5,186.5,135.0,194.5,134.5,203.5,133.5,212.0,132.5,221.0,131.5,229.0,131.0" stroke="black" stroke-width="2" fill="none" />
<polyline points="210.5,122.5,219.0,122.0,227.5,121.0,235.5,120.0,244.0,119.5,252.5,118.5" stroke="black" stroke-width="2" fill="none" />
<polyline points="244.0,100.0,236.0,100.5,228.5,101.0,220.5,101.5" stroke="black" stroke-width="2" fill="none" />
<polyline points="216.5,95.0,208.5,95.0,198.5,95.0,190.5,97.0" stroke="black" stroke-width="2" fill="none" />
<polyline points="196.0,100.0,188.0,107.5,180.0,115.5,172.0,123.5" stroke="black" stroke-width="2" fill="none" />
<polyline points="187.5,121.0,195.5,113.5,203.5,106.0" stroke="black" stroke-width="2" fill="none" />
<polyline points="203.5,104.5,195.5,105.5,187.5,106.0,179.5,106.5,171.0,107.0,163.0,108.0,155.0,108.5,147.0,108.5,139.0,108.5" stroke="black" stroke-width="2" fill="none" />
<polyline points="144.0,105.0,152.0,95.0,160.0,87.0,168.5,82.0,176.5,79.5,184.5,76.5,192.0,80.5,193.0,84.0,191.5,92.0,189.0,95.5" stroke="black" stroke-width="2" fill="none" />
<polyline points="196.0,92.0,188.0,99.5,180.0,107.0,172.0,114.5,163.5,121.5" stroke="black" stroke-width="2" fill="none" />
<polyline points="165.0,121.5,157.0,122.0,148.5,122.5" stroke="black" stroke-width="2" fill="none" />
<polyline points="146.0,116.0,154.0,115.5,162.0,114.5,170.0,114.0,178.0,113.0,186.0,112.0,194.0,111.5" stroke="black" stroke-width="2" fill="none" />
<polyline points="188.0,114.5,195.5,107.5,203.5,100.0" stroke="black" stroke-width="2" fill="none" />
<polyline points="204.5,104.5,196.5,104.5,188.0,104.5,179.5,105.0,171.5,105.5" stroke="black" stroke-width="2" fill="none" />
<polyline points="170.5,98.5,179.0,97.5,187.5,97.0" stroke="black" stroke-width="2" fill="none" />
<polyline points="195.0,84.5,187.0,92.0,178.5,99.0,171.0,106.5,163.0,114.0,155.0,122.0,147.0,129.0,139.0,136.0" stroke="black" stroke-width="2" fill="none" />
<polyline points="131.0,128.0,139.0,128.0,147.0,128.0" stroke="black" stroke-width="2" fill="none" />
<polyline points="141.0,124.0,133.0,131.5,125.0,139.0,116.5,146.5,108.5,154.5,100.5,162.5" stroke="black" stroke-width="2" fill="none" />
<polyline points="92.5,152.5,100.0,152.0,107.5,152.0,115.5,152.0" stroke="black" stroke-width="2" fill="none" />
<polyline points="123.5,145.5,131.5,137.5,139.0,129.0,147.0,121.0,155.0,113.0,163.0,105.0,171.0,97.0,178.0,88.5,185.5,81.0" stroke="black" stroke-width="2" fill="none" />
<polyline points="178.5,85.0,170.5,92.0" stroke="black" stroke-width="2" fill="none" />
<polyline points="169.5,91.5,178.0,91.5,186.5,91.0" stroke="black" stroke-width="2" fill="none" />
<polyline points="195.0,77.5,187.0,78.0,178.5,79.0,170.0,79.5" stroke="black" stroke-width="2" fill="none" />
<polyline points="163.5,85.0,171.5,85.0,179.0,85.0,187.0,85.0,195.0,85.0" stroke="black" stroke-width="2" fill="none" />
<polyline points="210.5,99.5,202.5,99.5,194.0,100.0,185.5,101.0,177.5,102.0,169.5,103.0,161.5,103.5" stroke="black" stroke-width="2" fill="none" />
<polyline points="157.0,107.0,149.0,114.5" stroke="black" stroke-width="2" fill="none" />
<polyline points="148.0,109.0,156.0,101.5" stroke="black" stroke-width="2" fill="none" />
<polyline points="155.5,99.5,148.0,100.0,139.5,101.0" stroke="black" stroke-width="2" fill="none" />
<polyline points="148.5,93.0,156.0,92.0" stroke="black" stroke-width="2" fill="none" />
<polyline points="159.0,97.0,167.0,90.0,167.5,91.5,163.5,91.5,159.5,92.0,153.0,99.5,156.0,104.0,164.0,100.0,161.5,89.0,166.0,94.5,162.0,102.5" stroke="black" stroke-width="2" fill="none" />
<polyline points="162.5,93.5,170.5,93.0,178.5,93.0,186.0,92.5,194.0,92.0,202.0,91.5,210.5,91.5,219.5,92.0,228.5,91.5,237.0,91.0,245.0,91.0" stroke="black" stroke-width="2" fill="none" />
<polyline points="231.0,92.5,239.0,97.0,239.0,105.0,234.5,113.0,240.5,110.0,248.5,107.5" stroke="black" stroke-width="2" fill="none" />
<polyline points="252.0,120.5,244.0,121.5,235.5,122.5,227.0,123.5,219.0,124.0,210.5,125.0,203.0,125.5,195.5,126.0,188.0,126.5" stroke="black" stroke-width="2" fill="none" />
<polyline points="194.5,130.0,202.5,129.5,211.0,129.0,219.0,128.5,226.5,128.5" stroke="black" stroke-width="2" fill="none" />
<polyline points="206.0,124.0,197.5,131.5,189.5,138.5,181.0,146.0,172.5,153.5,165.0,161.0,156.5,168.0,148.5,175.5" stroke="black" stroke-width="2" fill="none" />
<polyline points="141.0,168.5,149.0,168.0,156.5,167.5,164.0,167.0" stroke="black" stroke-width="2" fill="none" />
<polyline points="164.0,154.0,171.5,153.5,179.5,153.5,187.5,153.0" stroke="black" stroke-width="2" fill="none" />
<polyline points="187.5,155.0,179.0,155.5,171.0,156.0,163.0,156.0,155.0,155.5,147.5,156.0,140.0,156.0" stroke="black" stroke-width="2" fill="none" />
<polyline points="147.5,162.0,155.5,161.5,163.5,161.0,171.5,161.0" stroke="black" stroke-width="2" fill="none" />
<polyline points="163.5,143.0,171.0,142.5,179.0,142.0,187.0,141.5,195.0,141.0,203.0,140.0" stroke="black" stroke-width="2" fill="none" />
<polyline points="196.0,148.0,188.0,148.5,180.0,148.5,172.5,148.5,165.0,149.0,157.0,149.0,149.0,149.5" stroke="black" stroke-width="2" fill="none" />
<polyline points="131.5,165.0,139.5,165.0,147.0,164.5,154.5,164.0,162.5,163.5,170.5,163.5" stroke="black" stroke-width="2" fill="none" />
<polyline points="148.0,175.0,140.0,175.5,132.5,175.5" stroke="black" stroke-width="2" fill="none" />
<polyline points="131.5,172.5,124.0,180.5,116.0,188.0,108.0,195.5" stroke="black" stroke-width="2" fill="none" />
<polyline points="103.5,196.5,111.5,197.5,119.0,195.0,127.0,190.0,135.0,186.5,143.0,181.5,151.0,176.5,158.5,172.0,166.5,167.0,174.0,162.5,182.0,157.5,190.0,151.5,198.5,145.0,207.0,139.5,215.5,136.5,223.5,134.5,231.5,132.0,239.5,129.0,243.5,127.0" stroke="black" stroke-width="2" fill="none" />
<polyline points="249.0,153.5,238.0,162.0,245.5,156.0" stroke="black" stroke-width="2" fill="none" />
<polyline points="203.5,129.0,201.5,140.0,193.5,148.0,183.0,156.0,170.0,163.5,157.0,171.5,144.0,180.0,129.5,188.5,115.5,196.5" stroke="black" stroke-width="2" fill="none" />
<polyline points="122.5,185.5,130.5,185.0" stroke="black" stroke-width="2" fill="none" />
<polyline points="125.0,172.0,133.0,171.5,141.0,171.5,148.5,172.0,156.0,172.5" stroke="black" stroke-width="2" fill="none" />
<polyline points="164.0,198.5,172.0,198.0,180.0,197.5,188.0,196.5,195.5,195.5" stroke="black" stroke-width="2" fill="none" />
<polyline points="171.5,214.0,163.5,214.5,155.5,215.0" stroke="black" stroke-width="2" fill="none" />
<polyline points="157.0,215.0,165.5,216.0,173.5,211.5,181.5,206.5,189.5,201.5,197.5,197.0,205.5,192.0,214.0,187.0,221.5,182.5,229.5,177.5,237.5,172.5,245.5,164.5,253.0,158.5,261.0,152.5,269.0,150.5,277.0,149.0,285.0,147.0,293.0,144.5,297.0,148.0,296.0,155.5,299.5,163.5,285.5,171.5,273.0,179.5,262.5,187.5,252.5,195.0,243.0,203.0,233.0,210.5,224.0,218.5,215.5,226.5,215.5,235.0,218.5,224.0,226.5,217.0,234.0,210.0,242.5,203.0,250.5,196.5,258.5,190.5,266.5,183.5,274.5,177.5,282.5,173.0,291.0,169.0,297.0,158.0" stroke="black" stroke-width="2" fill="none" />
<polyline points="309.0,171.5,300.0,179.0,299.5,183.0,287.5,191.0,275.0,199.5,264.0,207.5,252.0,215.5,241.0,223.5,229.0,231.0" stroke="black" stroke-width="2" fill="none" />
<polyline points="188.5,203.0,180.5,204.0,172.5,205.0,164.5,205.5,156.5,205.5" stroke="black" stroke-width="2" fill="none" />
<polyline points="148.5,178.5,140.5,179.0,132.5,179.5,124.5,180.0,116.0,180.5,107.5,181.0" stroke="black" stroke-width="2" fill="none" />
<polyline points="83.5,168.5,92.5,161.5,100.5,153.5,108.5,146.0,116.5,138.5,125.0,131.0,133.0,123.5" stroke="black" stroke-width="2" fill="none" />
<polyline points="125.5,124.0,133.5,123.5,141.5,124.0,149.5,124.0,157.5,123.5,165.0,123.5" stroke="black" stroke-width="2" fill="none" />
<polyline points="156.0,114.5,151.0,127.5,142.0,135.5,130.5,144.0,116.5,152.5,102.5,160.5,89.0,168.5,75.0,176.5" stroke="black" stroke-width="2" fill="none" />
<polyline points="75.0,171.0,83.5,170.5" stroke="black" stroke-width="2" fill="none" />
<polyline points="85.5,162.5,93.0,162.0,100.5,161.5" stroke="black" stroke-width="2" fill="none" />
<polyline points="107.0,145.0,115.5,144.5,123.0,144.0" stroke="black" stroke-width="2" fill="none" />
<polyline points="117.0,136.0,125.0,135.5,133.0,135.5,140.0,135.5" stroke="black" stroke-width="2" fill="none" />
<polyline points="108.0,139.0,100.0,146.5,92.0,154.5,84.0,162.0,76.5,170.0,68.0,177.5" stroke="black" stroke-width="2" fill="none" />
<polyline points="68.5,180.5,61.0,181.5" stroke="black" stroke-width="2" fill="none" />
<polyline points="59.5,178.0,67.5,177.0" stroke="black" stroke-width="2" fill="none" />
<polyline points="58.5,177.0,66.0,169.5,73.5,161.5,81.5,154.0" stroke="black" stroke-width="2" fill="none" />
<polyline points="84.0,151.0,91.5,150.5,99.5,149.5,108.0,149.0,116.5,148.0,124.0,148.0" stroke="black" stroke-width="2" fill="none" />
<polyline points="107.0,131.5,115.5,131.0,123.5,130.5,132.0,130.5,140.0,130.5,148.0,130.0" stroke="black" stroke-width="2" fill="none" />
<polyline points="140.0,138.5,132.5,138.5,124.5,139.0,116.5,139.5,108.0,140.5,99.5,141.0,91.5,142.0" stroke="black" stroke-width="2" fill="none" />
<polyline points="76.0,158.5,83.5,158.0,91.5,157.5,99.5,156.5,108.0,156.0,116.5,155.0" stroke="black" stroke-width="2" fill="none" />
<polyline points="100.5,164.5,92.5,165.0,84.5,165.0,76.0,165.5,67.5,165.5" stroke="black" stroke-width="2" fill="none" />
<polyline points="84.0,171.5,75.5,172.0,67.0,173.0,59.0,174.5,50.5,175.0" stroke="black" stroke-width="2" fill="none" />
<polyline points="54.0,181.5,62.0,182.0,70.5,179.0,78.5,174.0,86.5,170.0,94.5,165.0,102.5,161.0,110.0,156.5,117.5,153.0,125.5,148.5,133.5,143.5,141.5,137.5,149.5,130.0,158.0,125.0,165.5,123.0,173.5,121.0,182.0,119.0,190.0,117.5,188.5,126.0,183.5,134.0,167.5,141.5,155.5,149.5,145.5,158.0,135.5,166.5,125.5,175.0,116.5,183.0,107.5,191.0,104.0,199.5,110.0,189.5,118.0,182.5,126.0,175.5,134.0,169.5,142.0,162.0,150.0,156.0,157.5,149.5,165.5,143.0,173.0,139.0,181.0,135.5,188.5,130.5" stroke="black" stroke-width="2" fill="none" />
<polyline points="197.5,123.5,205.5,116.0" stroke="black" stroke-width="2" fill="none" />
<polyline points="202.5,120.5,195.0,120.5" stroke="black" stroke-width="2" fill="none" />
<polyline points="201.5,114.5,204.5,106.0,215.0,97.5,213.0,98.0,205.0,105.0" stroke="black" stroke-width="2" fill="none" />
<polyline points="223.5,92.0,216.5,100.0,214.5,108.5,209.5,116.5,206.5,119.5,213.5,103.0,221.5,93.0,230.0,90.5,238.0,93.5" stroke="black" stroke-width="2" fill="none" />
<polyline points="196.5,137.5,189.0,141.5,195.0,137.0,189.0,143.5" stroke="black" stroke-width="2" fill="none" />
<polyline points="10.5,71.0,2.5,72.0" stroke="black" stroke-width="2" fill="none" />
<polyline points="3.5,62.5,11.5,62.0,19.5,61.0,28.0,60.5" stroke="black" stroke-width="2" fill="none" />
<polyline points="37.0,54.0,28.5,54.0,20.0,54.0,11.5,54.0,3.5,54.0" stroke="black" stroke-width="2" fill="none" />
<polyline points="3.0,46.0,11.0,45.5,19.5,44.5,27.5,44.0,35.5,43.5,43.5,43.5,51.5,43.0,60.5,42.5" stroke="black" stroke-width="2" fill="none" />
<polyline points="66.5,35.0,58.5,35.0,51.0,35.0,43.0,35.0,35.0,35.5,27.0,35.5,19.0,35.5,11.5,35.5,3.5,35.5" stroke="black" stroke-width="2" fill="none" />
<polyline points="2.5,28.5,11.0,28.5,19.5,27.5,27.5,27.0,35.0,26.0,43.0,25.5,51.5,25.5,60.0,25.0,68.0,24.5,76.5,24.5,84.5,24.0,92.0,23.0" stroke="black" stroke-width="2" fill="none" />
<polyline points="115.5,14.5,108.0,14.0,100.5,14.5,93.0,15.0,85.0,15.5,77.0,16.5,69.0,17.0,61.0,17.5,52.5,17.5,44.5,18.0,35.5,18.5,26.5,19.5,18.0,20.0,9.5,20.0,1.0,20.5" stroke="black" stroke-width="2" fill="none" />
<polyline points="2.5,13.5,10.5,13.0,18.5,13.5,26.5,13.0,35.0,12.0,42.5,11.0,50.5,10.0,59.0,9.5,67.5,8.5,76.0,7.5,84.0,7.0,91.5,7.0,99.0,6.5,107.0,7.0,115.0,7.0,123.0,6.5,131.5,6.0" stroke="black" stroke-width="2" fill="none" />
<polyline points="165.5,-5.5,157.5,-5.0,149.0,-5.0,140.5,-4.5,131.5,-4.0,123.0,-3.0,114.0,-2.5,106.0,-2.5,97.5,-1.5,89.0,-0.5,81.0,0.5,73.0,0.5,65.0,1.0,57.5,1.5,50.0,2.5,43.0,3.0,35.0,3.5,27.5,4.5,20.0,5.0,12.5,5.5,4.5,6.0" stroke="black" stroke-width="2" fill="none" />
</svg>