<svg xmlns="http://www.w3.org/2000/svg" version="1.1"><path d="M336.0,26.5,329.0,34.5,323.0,42.5,317.0,51.0,309.5,59.0,303.5,67.0,296.0,75.0,289.0,83.0,281.5,91.5,275.5,99.5,269.5,108.0,263.5,115.5,256.5,123.0,250.5,130.5,244.5,138.0,239.0,146.0,233.0,153.5,232.0,161.5,230.0,169.5,230.5,177.5,230.5,186.0,230.5,193.5,230.5,201.5,230.5,209.5,230.0,217.5,231.0,225.0,231.0,233.5,222.5,241.5" stroke="black" stroke-width="2" fill="none" />
<path d="M225.5,237.0,233.5,229.5" stroke="black" stroke-width="2" fill="none" />
<path d="M237.0,232.5,229.5,233.0" stroke="black" stroke-width="2" fill="none" />
<path d="M218.5,234.5,226.0,228.0,234.5,220.5" stroke="black" stroke-width="2" fill="none" />
<path d="M228.0,219.5,236.0,212.0" stroke="black" stroke-width="2" fill="none" />
<path d="M236.0,204.0,227.5,211.0" stroke="black" stroke-width="2" fill="none" />
<path d="M226.5,203.5,234.5,196.0" stroke="black" stroke-width="2" fill="none" />
<path d="M225.5,193.0,233.5,186.0" stroke="black" stroke-width="2" fill="none" />
<path d="M232.5,180.0,225.0,187.5" stroke="black" stroke-width="2" fill="none" />
<path d="M217.5,187.0,225.5,179.5,233.5,172.0" stroke="black" stroke-width="2" fill="none" />
<path d="M227.5,171.0,236.0,163.5" stroke="black" stroke-width="2" fill="none" />
<path d="M234.5,162.0,237.0,165.5,237.5,173.5,237.5,182.0,237.5,190.0" stroke="black" stroke-width="2" fill="none" />
<path d="M244.5,186.5,236.0,187.5,227.5,188.0,219.5,188.5,211.0,189.5,202.5,190.0" stroke="black" stroke-width="2" fill="none" />
<path d="M204.0,195.5,196.0,203.5" stroke="black" stroke-width="2" fill="none" />
<path d="M204.0,202.0,211.5,194.5" stroke="black" stroke-width="2" fill="none" />
<path d="M203.0,182.5,211.5,182.0,220.0,181.0,228.0,180.0,236.5,179.0,244.5,178.5" stroke="black" stroke-width="2" fill="none" />
<path d="M243.5,171.5,235.5,172.0,227.5,173.0,219.5,174.0,211.5,174.5,204.5,175.5,197.0,176.0" stroke="black" stroke-width="2" fill="none" />
<path d="M195.5,169.5,204.0,162.0,212.0,154.0,220.5,146.5,228.5,138.5,236.5,131.0" stroke="black" stroke-width="2" fill="none" />
<path d="M235.5,123.0,227.5,131.0,219.5,139.0,211.5,146.5,203.0,154.0,194.5,162.0" stroke="black" stroke-width="2" fill="none" />
<path d="M189.0,165.0,180.5,173.0,172.5,180.5,164.5,188.0" stroke="black" stroke-width="2" fill="none" />
<path d="M165.5,185.0,173.5,185.0" stroke="black" stroke-width="2" fill="none" />
<path d="M180.0,186.0,172.0,193.5,163.5,200.5" stroke="black" stroke-width="2" fill="none" />
<path d="M168.5,204.5,172.5,196.5,170.0,198.0" stroke="black" stroke-width="2" fill="none" />
<path d="M171.5,195.5,163.5,196.0,156.0,196.5,148.0,197.0,139.5,197.0,131.5,197.0,123.0,197.5,115.0,198.0,107.0,198.5,99.5,199.0,91.5,199.5,83.5,200.0,75.5,200.5,67.0,201.0,59.5,201.5,51.5,202.0,43.5,202.5,36.0,203.5,28.0,204.5,20.5,205.5,12.5,205.5,4.5,206.0" stroke="black" stroke-width="2" fill="none" />
<path d="M3.5,203.5,11.5,196.0,19.5,188.5,27.0,181.0,34.5,173.5,43.0,166.5,51.0,159.5,59.5,152.0,67.0,145.0,75.0,137.0,83.0,129.0,91.5,121.5,99.5,114.0" stroke="black" stroke-width="2" fill="none" />
<path d="M107.0,117.0,99.0,124.5,91.5,131.5,83.5,138.5,76.5,146.5,68.5,154.0,60.0,161.0,51.5,168.0,43.0,175.0,35.0,182.5,27.0,190.0,19.0,197.0,11.0,205.0,3.0,213.0" stroke="black" stroke-width="2" fill="none" />
<path d="M3.5,212.0,12.0,212.0,20.0,211.5,28.0,211.0,36.0,211.0,43.5,210.0,51.5,210.0,58.5,209.5,66.0,209.0,73.5,209.0,81.0,208.5,89.5,208.0" stroke="black" stroke-width="2" fill="none" />
<path d="M92.0,202.0,100.0,194.0,108.0,186.5" stroke="black" stroke-width="2" fill="none" />
<path d="M109.0,180.0,101.0,187.5,93.0,195.0,85.0,202.5,76.5,210.5,67.5,218.5,59.5,225.5,51.0,232.5,42.5,239.5,34.5,247.5,26.5,255.0,18.5,262.5,10.5,269.5,3.0,277.0" stroke="black" stroke-width="2" fill="none" />
<path d="M4.0,276.0,12.0,275.5,20.0,274.5" stroke="black" stroke-width="2" fill="none" />
<path d="M19.0,281.0,11.5,281.5,4.0,282.5" stroke="black" stroke-width="2" fill="none" />
<path d="M3.0,284.0,11.0,283.5,19.0,283.0,27.5,283.0,35.5,283.0,44.0,282.5,52.5,282.5,61.0,282.5,69.0,281.5,77.5,280.5,85.5,280.0,93.5,280.0,101.0,280.0,109.0,279.5,117.0,279.5,124.5,279.0,132.5,278.5,140.5,277.5,149.0,276.5,157.0,275.5,164.5,275.0,173.5,274.5,181.5,274.0,189.5,273.5,197.0,273.0,205.0,273.0,213.5,273.0,221.5,273.0,229.5,273.0,237.5,273.5,246.0,273.0" stroke="black" stroke-width="2" fill="none" />
<path d="M260.0,278.0,268.5,277.5,276.5,277.5,284.0,277.0" stroke="black" stroke-width="2" fill="none" />
<path d="M280.0,278.5,288.0,269.5,296.5,275.5,296.0,284.0" stroke="black" stroke-width="2" fill="none" />
<path d="M290.5,285.5,282.5,293.0,274.5,299.5,266.5,306.5" stroke="black" stroke-width="2" fill="none" />
<path d="M267.0,306.0,275.0,305.5" stroke="black" stroke-width="2" fill="none" />
<path d="M280.5,304.0,288.5,304.0,296.5,301.5,305.0,298.5,313.0,297.5,321.5,297.5" stroke="black" stroke-width="2" fill="none" />
<path d="M308.0,279.0,300.0,279.5" stroke="black" stroke-width="2" fill="none" />
<path d="M291.0,292.5,283.0,300.0" stroke="black" stroke-width="2" fill="none" />
<path d="M285.0,299.0,277.5,299.5" stroke="black" stroke-width="2" fill="none" />
<path d="M276.5,290.5,284.5,290.0" stroke="black" stroke-width="2" fill="none" />
<path d="M281.5,284.0,273.5,291.5,265.5,298.5,258.0,305.5" stroke="black" stroke-width="2" fill="none" />
<path d="M259.0,302.5,266.5,302.5,275.0,302.0,283.5,301.0,292.5,300.0" stroke="black" stroke-width="2" fill="none" />
<path d="M297.5,305.0,305.0,305.0,313.0,304.5,321.0,305.5,329.0,306.5,337.0,306.0,344.5,305.5,353.0,305.5,361.0,305.0,369.0,304.0,377.0,304.0,385.0,304.0" stroke="black" stroke-width="2" fill="none" />
<path d="M379.5,302.0,388.0,302.0,396.5,301.5" stroke="black" stroke-width="2" fill="none" />
<path d="M409.5,298.5,417.0,296.5,425.0,294.5" stroke="black" stroke-width="2" fill="none" />
<path d="M412.0,292.0,420.0,291.5,428.0,291.5,436.0,291.5,444.0,291.0,451.5,290.5,460.0,290.0,468.5,289.5,476.5,289.0,484.5,289.0,492.5,288.5,500.0,288.0,508.0,287.5,515.5,287.0" stroke="black" stroke-width="2" fill="none" />
<path d="M514.5,284.0,506.0,291.5,498.0,299.0,490.0,306.5,482.5,314.5,475.0,322.5,467.5,330.0,460.0,337.0" stroke="black" stroke-width="2" fill="none" />
<path d="M466.5,337.0,474.5,329.5,483.0,322.0,491.5,314.5,500.0,307.0,508.5,299.5,517.0,292.0" stroke="black" stroke-width="2" fill="none" />
<path d="M517.5,300.0,510.0,307.5,501.5,315.0,493.5,322.5,485.5,329.5,477.0,337.5" stroke="black" stroke-width="2" fill="none" />
<path d="M476.5,337.5,484.0,337.0,492.0,336.5,499.5,336.0,507.5,335.5,516.0,335.0" stroke="black" stroke-width="2" fill="none" />
<path d="M515.0,332.0,506.5,339.5" stroke="black" stroke-width="2" fill="none" />
<path d="M500.0,338.0,508.0,330.5,516.0,323.0" stroke="black" stroke-width="2" fill="none" />
<path d="M517.0,314.5,509.0,322.5,500.5,330.0,492.5,338.0" stroke="black" stroke-width="2" fill="none" />
<path d="M484.5,337.0,493.0,330.0,501.5,323.0,509.5,315.5,517.5,307.5" stroke="black" stroke-width="2" fill="none" />
<path d="M516.0,314.5,508.0,314.5,500.0,315.0" stroke="black" stroke-width="2" fill="none" />
<path d="M491.0,319.5,499.5,319.0,508.0,319.0,516.0,319.0" stroke="black" stroke-width="2" fill="none" />
<path d="M516.5,328.0,508.5,329.0,501.0,330.0,493.0,330.0,485.0,330.5" stroke="black" stroke-width="2" fill="none" />
<path d="M449.5,336.5,457.5,328.5,465.5,320.5,473.5,313.0,481.5,306.0,490.0,299.0,498.0,292.0,506.0,284.0,514.0,276.5" stroke="black" stroke-width="2" fill="none" />
<path d="M517.0,269.5,508.5,277.5,500.5,285.0,492.0,292.0,483.5,299.5,475.5,306.5,467.0,314.0,458.5,321.0,450.5,328.0,442.5,335.0" stroke="black" stroke-width="2" fill="none" />
<path d="M435.0,335.0,443.0,327.0,451.0,319.0,459.0,311.0,467.0,304.0,475.5,297.0,483.5,290.0,491.0,282.5,498.5,275.0,506.0,268.0,514.0,261.0" stroke="black" stroke-width="2" fill="none" />
<path d="M515.0,252.0,507.0,259.0,499.5,266.0,491.5,273.0,484.0,281.0,475.5,288.0,468.0,295.5,459.5,303.0,451.0,310.0,443.0,318.0,434.5,325.5,427.0,333.0" stroke="black" stroke-width="2" fill="none" />
<path d="M430.0,330.5,421.5,338.5" stroke="black" stroke-width="2" fill="none" />
<path d="M413.5,308.5,421.0,308.5,429.0,308.0,437.0,307.5,445.5,307.0,453.0,306.5,461.0,306.5,469.0,307.0,477.0,307.0,485.0,306.5,493.0,306.0,501.0,305.5,508.0,305.0,516.0,304.0" stroke="black" stroke-width="2" fill="none" />
<path d="M484.5,272.5,492.0,264.5,499.5,257.0,507.0,250.0,515.5,243.0" stroke="black" stroke-width="2" fill="none" />
<path d="M516.0,235.5,508.0,243.0,499.5,250.0" stroke="black" stroke-width="2" fill="none" />
<path d="M516.5,234.0,509.0,234.0,501.0,234.0,493.0,235.0,485.0,236.0,476.5,237.0,468.5,237.5,460.5,238.5" stroke="black" stroke-width="2" fill="none" />
<path d="M462.5,229.5,470.5,229.0,478.0,229.0,486.0,229.0,494.0,228.5,501.5,227.5,509.5,227.0,516.5,226.5" stroke="black" stroke-width="2" fill="none" />
<path d="M515.5,209.5,507.5,209.5,499.5,210.0,491.0,211.5,483.0,212.5,475.0,213.0,467.0,213.5" stroke="black" stroke-width="2" fill="none" />
<path d="M469.5,206.5,477.5,206.0,485.0,205.0,492.5,204.5,500.5,204.5,508.0,203.5,516.0,202.5" stroke="black" stroke-width="2" fill="none" />
<path d="M515.5,155.5,508.0,156.5,500.5,157.0,493.0,158.0,485.5,159.0,478.0,160.0" stroke="black" stroke-width="2" fill="none" />
<path d="M476.0,150.0,483.5,149.5,491.0,149.0,498.5,148.5,506.5,148.0,514.5,147.5" stroke="black" stroke-width="2" fill="none" />
<path d="M507.5,139.5,515.0,132.0" stroke="black" stroke-width="2" fill="none" />
<path d="M513.0,123.0,505.0,130.5" stroke="black" stroke-width="2" fill="none" />
<path d="M499.0,129.0,507.5,121.5,515.0,114.5" stroke="black" stroke-width="2" fill="none" />
<path d="M515.0,105.5,507.0,112.5,499.5,120.0" stroke="black" stroke-width="2" fill="none" />
<path d="M490.5,121.0,498.5,113.5,506.0,106.0,514.0,98.5" stroke="black" stroke-width="2" fill="none" />
<path d="M513.5,90.0,505.5,97.5,498.0,105.5,490.0,113.0" stroke="black" stroke-width="2" fill="none" />
<path d="M491.0,106.5,498.5,99.0,505.5,91.5,513.5,84.0" stroke="black" stroke-width="2" fill="none" />
<path d="M515.0,77.0,507.0,84.0,499.0,91.5,491.0,99.0,483.0,106.5" stroke="black" stroke-width="2" fill="none" />
<path d="M484.5,98.5,492.0,91.0,500.0,83.5,508.0,76.5,516.0,69.0" stroke="black" stroke-width="2" fill="none" />
<path d="M516.5,60.0,508.5,67.5,501.0,75.0,493.5,82.5,486.0,90.5,478.0,98.0" stroke="black" stroke-width="2" fill="none" />
<path d="M476.0,89.5,484.5,82.5,492.5,75.5,500.0,68.0,508.0,60.5,516.5,53.0" stroke="black" stroke-width="2" fill="none" />
<path d="M513.5,45.0,505.5,52.5,498.0,60.0,490.5,67.5,484.0,75.0,477.0,82.5" stroke="black" stroke-width="2" fill="none" />
<path d="M466.5,81.0,474.0,74.0,482.0,66.5,490.5,58.5,499.0,51.5,507.5,43.5,515.5,36.0" stroke="black" stroke-width="2" fill="none" />
<path d="M515.0,25.0,507.0,33.0,499.0,41.0,491.0,49.0,483.0,57.0,474.5,65.5,466.5,73.0" stroke="black" stroke-width="2" fill="none" />
<path d="M458.5,71.5,466.0,64.5,474.5,57.5,482.0,49.5,490.0,42.0,498.0,34.0,506.5,26.5,515.0,18.5" stroke="black" stroke-width="2" fill="none" />
<path d="M514.0,12.0,506.5,20.0,499.0,27.5,490.5,35.5,482.5,43.0,474.0,50.5,466.5,57.5,458.0,65.0" stroke="black" stroke-width="2" fill="none" />
<path d="M459.5,57.0,467.0,49.5,474.5,42.0,483.0,34.5,491.0,27.0,499.0,19.0,507.0,11.0,515.0,3.5" stroke="black" stroke-width="2" fill="none" />
<path d="M507.0,3.5,498.5,11.0,490.0,18.5,482.0,25.5,473.5,33.0,466.0,40.0,458.0,48.0,451.0,55.5" stroke="black" stroke-width="2" fill="none" />
<path d="M451.5,48.5,459.5,41.5,467.5,34.0,475.5,26.5,484.0,19.5,492.0,12.0,499.5,4.5" stroke="black" stroke-width="2" fill="none" />
<path d="M490.5,6.0,482.5,13.5,475.0,20.5,467.5,27.5,458.5,34.5,450.0,42.0,442.0,49.5" stroke="black" stroke-width="2" fill="none" />
<path d="M443.0,42.0,451.0,34.5,459.5,26.5,467.5,19.5,475.5,12.0,483.5,4.5" stroke="black" stroke-width="2" fill="none" />
<path d="M475.0,5.0,467.0,12.0,458.5,18.5,450.5,25.5,443.0,33.0,435.5,40.0" stroke="black" stroke-width="2" fill="none" />
<path d="M427.5,41.5,435.5,34.0,444.0,26.0,452.0,18.0,459.5,11.0,467.5,3.5" stroke="black" stroke-width="2" fill="none" />
<path d="M469.0,8.5,476.5,8.0,484.0,8.0,492.0,7.5,499.5,7.5,507.0,7.0,515.0,6.5" stroke="black" stroke-width="2" fill="none" />
<path d="M516.0,40.0,508.0,41.0,500.0,42.0,493.0,42.5,485.0,43.0" stroke="black" stroke-width="2" fill="none" />
<path d="M484.0,34.0,492.0,33.0,500.5,32.0,508.5,31.0,516.5,30.0" stroke="black" stroke-width="2" fill="none" />
<path d="M515.0,57.0,506.5,57.0,498.0,57.5" stroke="black" stroke-width="2" fill="none" />
<path d="M491.0,50.0,499.5,49.0,507.5,48.5,515.5,48.5" stroke="black" stroke-width="2" fill="none" />
<path d="M514.0,22.0,506.0,22.0,498.0,22.5,490.0,23.0,482.5,23.0,474.5,23.5" stroke="black" stroke-width="2" fill="none" />
<path d="M467.5,17.5,475.0,17.0,483.0,16.0,491.0,15.5,499.5,15.0,507.0,15.0,515.0,14.5" stroke="black" stroke-width="2" fill="none" />
<path d="M458.0,4.0,450.0,11.5,442.0,19.5,435.0,27.0,428.0,34.5" stroke="black" stroke-width="2" fill="none" />
<path d="M419.5,34.0,427.5,26.5,435.5,18.5,443.5,10.5,451.5,2.5" stroke="black" stroke-width="2" fill="none" />
<path d="M443.0,2.5,434.5,10.0,426.5,17.5,418.0,25.0,409.5,33.0" stroke="black" stroke-width="2" fill="none" />
<path d="M412.0,25.5,419.5,17.5,427.5,10.0,435.5,2.5" stroke="black" stroke-width="2" fill="none" />
<path d="M429.0,2.0,420.5,9.5,412.5,17.5,404.5,26.0" stroke="black" stroke-width="2" fill="none" />
<path d="M405.5,18.5,413.5,11.0,421.5,3.0" stroke="black" stroke-width="2" fill="none" />
<path d="M412.5,2.5,404.5,10.0,396.0,17.5" stroke="black" stroke-width="2" fill="none" />
<path d="M389.5,16.5,397.5,9.0,406.0,1.0" stroke="black" stroke-width="2" fill="none" />
<path d="M395.5,3.5,388.0,10.5" stroke="black" stroke-width="2" fill="none" />
<path d="M387.5,3.5,379.5,11.0" stroke="black" stroke-width="2" fill="none" />
<path d="M379.0,4.0,371.0,11.5" stroke="black" stroke-width="2" fill="none" />
<path d="M371.0,4.5,363.0,12.0" stroke="black" stroke-width="2" fill="none" />
<path d="M348.0,30.5,356.0,30.0,364.0,29.5,372.0,29.0,379.5,28.5,387.5,28.0,395.0,27.0,403.0,25.5,411.0,24.5,419.5,23.0,427.5,22.0,435.5,22.0,444.0,22.0,452.5,22.0,460.5,22.5,469.0,22.0,477.0,22.0,485.5,22.0,493.5,21.5,500.5,20.5,508.5,19.5,516.5,19.0" stroke="black" stroke-width="2" fill="none" />
<path d="M515.0,122.5,506.5,122.5,499.0,122.5,491.5,123.0,483.5,123.5,476.0,124.0,468.0,124.5" stroke="black" stroke-width="2" fill="none" />
<path d="M460.0,117.0,468.0,117.0,476.0,116.5,484.0,116.5,492.0,116.5,499.5,116.5,507.0,116.0,514.5,115.5" stroke="black" stroke-width="2" fill="none" />
<path d="M517.0,163.0,509.0,163.0,500.5,163.5,492.5,163.0,484.0,163.0,475.5,163.0,467.5,163.0" stroke="black" stroke-width="2" fill="none" />
<path d="M468.0,159.5,460.0,168.5" stroke="black" stroke-width="2" fill="none" />
<path d="M467.5,174.0,475.0,173.5,483.0,173.5,491.0,173.0,499.5,172.5,508.5,172.0,516.5,172.0" stroke="black" stroke-width="2" fill="none" />
<path d="M517.0,178.5,508.5,179.0,500.5,179.5,492.5,180.0,484.0,180.5,475.5,181.5,467.5,182.0" stroke="black" stroke-width="2" fill="none" />
<path d="M460.0,189.0,468.5,189.0,477.0,188.0,485.0,187.5,493.0,187.0,501.0,186.5,508.5,186.5,516.5,186.0" stroke="black" stroke-width="2" fill="none" />
<path d="M517.0,137.5,509.0,137.5,501.0,138.0,492.5,139.0,484.0,140.0,475.5,140.0,467.5,140.0" stroke="black" stroke-width="2" fill="none" />
<path d="M460.0,133.0,468.5,132.5,477.0,132.5,485.0,132.5,493.0,133.0,501.0,132.5,509.0,131.5,516.5,131.0" stroke="black" stroke-width="2" fill="none" />
<path d="M517.5,193.5,509.5,195.0,501.5,195.5,493.5,196.0,485.5,196.0,477.0,196.5,469.0,197.0,460.5,197.0" stroke="black" stroke-width="2" fill="none" />
<path d="M462.5,212.0,455.0,196.0,444.5,181.0" stroke="black" stroke-width="2" fill="none" />
<path d="M443.5,180.0,451.5,177.0,454.0,175.0,444.0,180.0,449.5,187.5,455.5,193.5,463.5,186.5" stroke="black" stroke-width="2" fill="none" />
<path d="M443.5,207.0,446.5,215.5,451.5,223.0,459.5,217.0" stroke="black" stroke-width="2" fill="none" />
<path d="M453.5,220.0,461.5,219.0,469.5,219.0,477.0,218.5,484.5,218.5,492.0,218.5,500.0,218.0,508.0,217.5,516.5,217.0" stroke="black" stroke-width="2" fill="none" />
<path d="M513.5,258.5,506.0,259.0,498.0,259.5,490.0,260.0,482.0,260.5,474.0,261.5,466.0,262.0,458.0,262.0,450.0,262.5" stroke="black" stroke-width="2" fill="none" />
<path d="M445.5,264.5,437.5,268.5,432.5,267.5,445.0,259.0" stroke="black" stroke-width="2" fill="none" />
<path d="M451.0,254.0,459.0,253.0,467.0,252.5,474.5,252.0,482.0,252.0,490.0,252.0,498.5,251.5,506.5,251.0,515.0,250.0" stroke="black" stroke-width="2" fill="none" />
<path d="M516.5,242.0,508.5,242.0,501.0,242.5,492.5,242.5,484.5,242.5,477.0,242.5,468.5,242.5,460.0,243.0,452.0,243.0" stroke="black" stroke-width="2" fill="none" />
<path d="M452.0,244.0,444.0,248.0" stroke="black" stroke-width="2" fill="none" />
<path d="M452.0,230.5,443.0,207.5" stroke="black" stroke-width="2" fill="none" />
<path d="M425.0,257.0,411.0,262.5,411.0,270.0,412.0,278.0,409.5,287.0,409.0,294.5,409.0,304.5,407.5,312.0" stroke="black" stroke-width="2" fill="none" />
<path d="M412.0,300.5,420.0,300.0,428.0,299.5,435.5,299.0,443.0,298.0,451.0,297.5,459.0,297.0,467.5,297.0,475.5,297.0,484.0,297.0,492.0,297.0,500.0,296.0,508.5,295.0,516.5,294.0" stroke="black" stroke-width="2" fill="none" />
<path d="M516.0,282.0,508.0,282.0,500.0,282.0,492.0,281.5,484.0,281.5,476.0,281.5,468.5,282.5,460.0,283.0,452.5,284.0,444.5,285.5,437.0,286.0" stroke="black" stroke-width="2" fill="none" />
<path d="M436.5,277.0,444.0,277.0,452.0,276.5,459.5,276.5,467.5,276.5,475.5,276.0,483.0,276.0,491.5,276.0,500.0,275.5,508.0,274.5,516.0,274.0" stroke="black" stroke-width="2" fill="none" />
<path d="M514.0,264.5,506.0,265.0,498.5,265.5,491.0,266.5,483.0,267.0,475.0,267.5,467.0,268.0,459.5,268.0,451.0,268.5,442.5,269.0,434.5,269.0" stroke="black" stroke-width="2" fill="none" />
<path d="M429.5,289.0,431.5,281.0,430.5,273.0,445.5,265.5,444.0,259.5,445.0,251.5,438.0,252.0,430.0,256.0,422.0,258.0,414.0,261.5" stroke="black" stroke-width="2" fill="none" />
<path d="M412.5,260.0,412.5,268.0,413.5,275.5,410.5,283.5" stroke="black" stroke-width="2" fill="none" />
<path d="M410.0,295.0,418.0,294.0,425.5,292.0" stroke="black" stroke-width="2" fill="none" />
<path d="M401.0,320.0,393.0,320.0,385.0,319.5,377.0,319.0,369.0,319.0,361.0,319.0,353.0,320.5,345.0,320.5" stroke="black" stroke-width="2" fill="none" />
<path d="M327.5,322.5,335.5,321.5,344.0,321.0,352.0,318.0,360.5,318.0,368.5,317.5" stroke="black" stroke-width="2" fill="none" />
<path d="M290.5,292.0,283.0,293.0,275.5,293.5,268.5,294.0,261.0,294.5,253.0,295.0" stroke="black" stroke-width="2" fill="none" />
<path d="M259.0,291.5,267.0,290.5" stroke="black" stroke-width="2" fill="none" />
<path d="M258.5,289.5,266.0,281.5,274.5,274.0" stroke="black" stroke-width="2" fill="none" />
<path d="M274.0,281.0,265.5,281.5" stroke="black" stroke-width="2" fill="none" />
<path d="M273.5,283.5,266.0,291.0,258.5,299.5" stroke="black" stroke-width="2" fill="none" />
<path d="M259.5,298.0,267.5,297.5" stroke="black" stroke-width="2" fill="none" />
<path d="M255.5,302.0,263.5,309.5,271.5,310.5,279.5,305.0,287.5,299.0" stroke="black" stroke-width="2" fill="none" />
<path d="M274.0,330.5,265.5,338.0" stroke="black" stroke-width="2" fill="none" />
<path d="M259.5,339.0,267.5,331.0" stroke="black" stroke-width="2" fill="none" />
<path d="M259.5,334.0,251.5,341.5" stroke="black" stroke-width="2" fill="none" />
<path d="M243.0,340.0,250.5,332.5" stroke="black" stroke-width="2" fill="none" />
<path d="M251.0,324.0,243.0,332.0,235.0,339.5" stroke="black" stroke-width="2" fill="none" />
<path d="M226.5,338.5,234.5,331.5,242.0,324.5" stroke="black" stroke-width="2" fill="none" />
<path d="M233.5,325.5,225.5,333.0,218.0,340.0" stroke="black" stroke-width="2" fill="none" />
<path d="M212.5,336.5,221.0,329.0,228.5,322.0" stroke="black" stroke-width="2" fill="none" />
<path d="M219.5,321.0,211.0,329.0,202.5,336.0" stroke="black" stroke-width="2" fill="none" />
<path d="M195.5,338.5,204.5,331.0,213.0,323.5" stroke="black" stroke-width="2" fill="none" />
<path d="M201.0,322.5,193.5,330.0,185.5,338.0" stroke="black" stroke-width="2" fill="none" />
<path d="M181.0,340.0,189.0,332.5,197.0,324.5" stroke="black" stroke-width="2" fill="none" />
<path d="M197.0,316.0,189.0,323.5,181.0,331.0,172.5,338.5" stroke="black" stroke-width="2" fill="none" />
<path d="M164.0,339.0,172.5,331.0,180.5,323.5,188.5,316.0" stroke="black" stroke-width="2" fill="none" />
<path d="M177.0,314.5,169.0,322.0,160.5,329.5,153.0,336.5" stroke="black" stroke-width="2" fill="none" />
<path d="M147.5,339.0,155.5,331.5,163.5,324.0,172.0,317.0" stroke="black" stroke-width="2" fill="none" />
<path d="M170.5,309.5,163.0,316.5,155.0,323.5,147.0,331.0,139.0,338.5" stroke="black" stroke-width="2" fill="none" />
<path d="M133.0,338.0,141.0,331.0,149.0,323.5,157.0,316.0,165.0,308.5" stroke="black" stroke-width="2" fill="none" />
<path d="M155.5,306.0,147.5,313.5,140.0,321.0,132.0,328.5,123.0,336.5" stroke="black" stroke-width="2" fill="none" />
<path d="M116.0,338.5,123.5,331.0,131.0,323.5,139.0,315.0,147.0,307.0" stroke="black" stroke-width="2" fill="none" />
<path d="M139.0,307.0,131.0,314.0,123.0,322.0,115.0,330.0,107.0,338.0" stroke="black" stroke-width="2" fill="none" />
<path d="M99.5,335.5,107.5,328.0,115.5,320.5,123.5,313.0,131.5,305.5" stroke="black" stroke-width="2" fill="none" />
<path d="M132.0,299.5,123.5,306.5,115.5,313.5,107.0,321.0,99.0,328.0,91.0,335.5" stroke="black" stroke-width="2" fill="none" />
<path d="M84.5,337.0,92.0,329.5,100.0,322.0,108.0,315.0,116.0,308.0,124.0,301.0" stroke="black" stroke-width="2" fill="none" />
<path d="M116.5,300.0,108.0,307.5,99.5,314.5,91.0,322.5,83.0,330.0,74.5,337.5" stroke="black" stroke-width="2" fill="none" />
<path d="M66.5,337.0,74.5,330.0,83.0,323.0,91.0,315.0,99.5,307.5,107.5,299.5,116.0,292.0" stroke="black" stroke-width="2" fill="none" />
<path d="M106.5,291.5,99.5,299.0,92.0,306.5,84.0,314.0,75.5,321.5,67.5,329.0,60.0,336.0" stroke="black" stroke-width="2" fill="none" />
<path d="M51.5,336.0,59.5,328.5,67.5,321.0,75.5,314.0,84.0,306.5,92.0,298.5,100.0,290.5,107.5,283.0" stroke="black" stroke-width="2" fill="none" />
<path d="M97.5,284.5,89.5,292.0,81.5,299.5,73.5,307.0,66.5,314.0,58.5,321.5,51.0,328.5,43.0,336.5" stroke="black" stroke-width="2" fill="none" />
<path d="M35.5,336.0,43.0,328.5,51.0,321.0,58.5,313.5,67.0,306.0,75.0,298.0,83.0,290.0,90.5,282.5,98.5,275.0" stroke="black" stroke-width="2" fill="none" />
<path d="M93.5,276.5,85.0,283.5,76.5,291.0,68.0,298.5,59.5,305.0,51.0,312.0,43.0,319.5,35.5,327.5,27.5,335.0" stroke="black" stroke-width="2" fill="none" />
<path d="M19.5,335.0,27.5,327.5,36.5,320.5,45.0,313.5,53.0,305.5,60.5,297.5,68.5,289.5,76.5,282.0,85.0,274.5" stroke="black" stroke-width="2" fill="none" />
<path d="M84.5,265.5,76.0,273.0,67.5,280.5,59.0,287.5,50.5,295.0,42.5,302.5,34.5,310.5,27.0,318.0,19.0,325.5,11.5,333.5" stroke="black" stroke-width="2" fill="none" />
<path d="M3.0,333.5,11.0,325.5,19.0,318.0,27.0,310.5,34.5,303.0,43.0,296.5,51.0,289.5,59.5,282.5,67.5,275.5,75.5,269.0" stroke="black" stroke-width="2" fill="none" />
<path d="M76.0,260.0,67.5,267.5,59.5,275.0,51.0,282.5,43.0,290.0,35.0,297.5,27.0,305.0,19.0,312.0,11.0,320.0,3.5,327.5" stroke="black" stroke-width="2" fill="none" />
<path d="M2.5,327.0,10.5,326.5,18.5,325.5,27.0,324.5,35.5,324.0,43.5,323.0,52.5,322.0,61.0,321.5,69.0,320.5,76.5,320.0,84.0,319.5,92.0,319.5,100.5,319.0,108.5,319.0,116.0,319.0,124.0,318.0,132.5,317.5,140.0,316.5,148.0,315.5,156.0,315.0,164.5,315.0,172.5,314.0,180.5,313.5,189.0,313.0,197.0,313.0,205.0,312.5,212.5,312.5,219.5,312.5,227.0,312.5,235.0,312.0,243.5,311.0,251.5,310.5,259.0,310.0,266.5,310.0,274.0,310.0,281.5,309.5,289.5,309.0,297.0,308.5,305.0,308.0,313.5,308.0,322.0,308.0,329.5,307.0,337.5,306.0,346.0,305.0,354.0,304.0,362.0,303.5,371.0,302.0,379.5,301.0,388.0,300.0,396.0,299.5,404.0,299.0,412.0,298.5,419.5,298.0,427.5,297.5,435.5,296.0,443.5,295.5,451.0,295.0,459.0,295.5,467.0,295.5,475.5,294.5,484.0,294.0,492.0,293.5,499.5,292.5,507.5,291.5,515.5,291.0" stroke="black" stroke-width="2" fill="none" />
<path d="M515.0,106.0,507.0,106.5,499.5,106.5,492.5,106.5,485.0,106.5,477.0,107.0,469.0,107.0,460.5,107.5,452.5,108.0,444.5,109.0" stroke="black" stroke-width="2" fill="none" />
<path d="M434.0,101.5,442.0,101.0,449.5,100.0,457.5,100.0,465.5,99.5,473.5,99.5,481.5,98.5,490.0,97.5,498.5,96.0,507.0,95.5,515.0,94.5" stroke="black" stroke-width="2" fill="none" />
<path d="M515.5,88.0,507.0,89.0,499.0,89.0,491.5,89.5,483.5,90.0,475.5,90.0,468.0,90.5,459.5,91.0,451.5,92.0,444.0,93.0,436.0,93.5,428.5,94.0" stroke="black" stroke-width="2" fill="none" />
<path d="M421.0,84.5,428.5,84.0,436.5,84.5,444.0,84.5,452.0,84.5,460.5,84.5,468.0,84.0,476.0,84.0,484.5,83.5,493.0,82.5,501.0,81.5,509.0,81.0,517.0,81.0" stroke="black" stroke-width="2" fill="none" />
<path d="M516.0,71.5,508.5,72.0,501.0,73.0,493.5,74.0,486.0,75.0,477.5,75.5,469.5,75.0,461.5,75.0,453.5,75.0,445.0,75.0,437.0,75.0,429.5,75.5,421.5,76.0,413.5,76.5,404.5,77.0" stroke="black" stroke-width="2" fill="none" />
<path d="M397.0,70.0,404.5,69.0,412.5,68.5,420.5,67.5,428.5,67.0,437.0,66.0,444.5,65.5,452.5,65.5,460.5,65.5,468.5,65.5,476.0,65.0,483.5,64.5,491.0,64.0,498.5,63.5,506.5,63.0,514.5,62.5" stroke="black" stroke-width="2" fill="none" />
<path d="M514.0,53.0,506.0,53.0,498.0,53.0,490.0,53.5,482.0,54.0,474.5,54.0,466.5,54.5,458.5,55.0,450.5,56.0,443.0,57.0,435.0,57.5,427.5,58.5,420.0,59.5,412.0,60.5,404.0,61.5,395.5,62.0,387.5,62.5" stroke="black" stroke-width="2" fill="none" />
<path d="M392.5,73.0,400.5,81.0,409.5,89.0,415.5,97.5,424.5,106.0,432.0,114.0,439.5,122.5,447.5,130.5,455.0,138.5" stroke="black" stroke-width="2" fill="none" />
<path d="M418.5,130.5,412.5,120.5" stroke="black" stroke-width="2" fill="none" />
<path d="M411.5,120.0,415.5,128.0,420.5,136.0,418.0,148.5" stroke="black" stroke-width="2" fill="none" />
<path d="M425.0,120.5,417.0,110.0,409.5,99.0" stroke="black" stroke-width="2" fill="none" />
<path d="M403.5,94.0,405.5,96.0,411.5,104.0,418.0,111.5,422.5,119.5" stroke="black" stroke-width="2" fill="none" />
<path d="M393.0,136.5,384.5,137.5,376.5,140.5,368.5,142.5,361.0,146.0,353.0,148.0" stroke="black" stroke-width="2" fill="none" />
<path d="M347.0,144.5,355.5,143.5,363.5,140.5,371.5,139.0,379.5,136.5,387.5,134.5" stroke="black" stroke-width="2" fill="none" />
<path d="M392.0,153.5,384.0,155.5,375.5,156.5,367.5,158.0,359.5,160.0,351.5,161.0,343.5,161.5" stroke="black" stroke-width="2" fill="none" />
<path d="M348.0,164.0,356.0,164.0,363.5,163.5,371.5,161.0,379.0,160.0,387.5,158.5,395.5,157.5" stroke="black" stroke-width="2" fill="none" />
<path d="M384.0,119.0,375.5,121.0,367.5,124.5,360.0,128.0,352.0,130.5,369.0,123.5,384.0,115.0" stroke="black" stroke-width="2" fill="none" />
<path d="M381.0,115.0,363.0,123.0,349.5,131.0,355.0,127.0,362.5,123.5,370.5,120.0,379.0,116.0" stroke="black" stroke-width="2" fill="none" />
<path d="M376.5,98.0,368.5,103.0,360.0,106.5,352.0,110.5,362.0,105.5,376.0,98.0" stroke="black" stroke-width="2" fill="none" />
<path d="M376.5,95.5,368.0,100.0,360.0,104.0,352.0,108.5,344.5,111.5,336.5,114.5,348.5,109.5,364.0,101.5,378.0,93.5" stroke="black" stroke-width="2" fill="none" />
<path d="M377.0,75.5,365.5,78.0,358.0,84.0,350.0,90.5,342.5,96.5,334.5,101.5,342.5,96.5,352.5,88.5,363.5,81.0,365.0,76.5,357.0,83.0,349.0,89.0,341.0,95.0,333.0,101.5,325.0,105.5,317.5,110.5,310.0,114.0" stroke="black" stroke-width="2" fill="none" />
<path d="M308.5,111.5,316.5,102.5,324.0,96.5,315.0,104.5,310.0,112.5,318.0,121.0,302.0,132.0,288.0,139.5,286.5,147.5,294.5,143.0,296.5,142.5,286.5,140.5,294.5,135.5,302.5,131.5,310.5,128.0" stroke="black" stroke-width="2" fill="none" />
<path d="M298.0,130.5,284.5,138.5,267.5,146.0,272.0,144.5,280.0,141.0,288.0,137.0,296.5,132.0" stroke="black" stroke-width="2" fill="none" />
<path d="M294.5,121.5,283.5,129.5,294.0,125.5,302.5,120.5,311.0,116.5,319.0,112.0" stroke="black" stroke-width="2" fill="none" />
<path d="M302.5,87.0,294.5,94.0,290.0,97.5,293.0,94.5,301.5,86.5" stroke="black" stroke-width="2" fill="none" />
<path d="M285.0,76.0,276.5,76.5,268.5,77.0,260.0,77.5,251.5,78.0,244.0,78.0,236.0,79.0,228.0,79.5,220.0,80.5,212.0,81.5,204.0,81.5,195.5,82.0,186.5,82.5,178.0,83.0,170.0,83.0,161.5,84.0,154.0,84.5,147.0,85.0,139.5,85.5,131.5,86.5,123.5,87.0,116.5,88.0,109.0,89.0,101.0,89.5,93.5,90.5,85.5,90.5,77.5,91.5,69.5,92.0,61.0,92.0,52.5,92.0,44.0,91.5,35.5,92.0,27.0,92.0,18.5,92.5,10.5,92.5,2.0,92.5" stroke="black" stroke-width="2" fill="none" />
<path d="M3.5,92.5,11.5,85.5,20.0,78.5,27.5,70.5,35.5,63.0,43.5,55.5,51.5,48.5,60.0,41.5,68.0,34.0,75.5,26.5,83.5,19.0,91.5,11.5,100.0,4.0" stroke="black" stroke-width="2" fill="none" />
<path d="M92.0,4.0,84.5,12.0,76.0,19.5,68.0,27.0,60.0,35.0,52.0,42.0,44.0,49.0,36.0,56.5,28.5,64.0,20.5,72.0,12.0,80.0,4.0,87.0" stroke="black" stroke-width="2" fill="none" />
<path d="M3.0,86.0,10.5,85.5,18.5,84.5,26.0,84.5,34.0,84.5,42.0,84.5,50.0,84.0,59.0,83.5,67.5,83.0,75.5,83.5,83.5,83.0,91.5,82.5,99.5,81.5,107.5,80.5,115.5,80.0,123.5,79.0,131.5,78.0,139.5,77.5,147.5,76.5,155.5,76.0,163.0,76.0,171.5,75.5,179.5,74.5,187.5,74.0,194.5,73.5,202.5,73.0,210.5,72.5,219.0,72.0,227.0,72.0,234.5,72.0,242.5,71.0,250.5,70.5,258.5,69.5,266.0,69.0,274.0,68.5,282.0,68.5,290.0,67.5" stroke="black" stroke-width="2" fill="none" />
<path d="M276.0,84.5,268.0,85.5,260.0,86.5,251.5,87.0,243.5,87.5,235.5,88.0,227.5,88.5,219.5,89.0,211.5,89.0,203.5,89.0,195.0,89.0,187.0,89.5,179.0,89.5,171.0,90.0,163.5,90.0,155.0,90.5,146.5,91.0,138.0,91.5,130.0,92.5,122.5,93.5,114.0,94.5,106.5,95.5,99.0,96.5,91.0,97.0,83.0,98.0,75.0,98.5,67.5,99.0,59.5,99.5,51.0,100.0,43.0,100.5,35.0,100.5,27.0,101.0,18.5,101.0,10.0,101.0,1.5,101.0" stroke="black" stroke-width="2" fill="none" />
<path d="M3.5,101.5,11.5,93.5,19.0,86.0,26.0,78.5,34.5,71.5,42.5,63.5,50.5,56.5,59.0,49.5,67.0,42.0,75.0,34.5,83.0,27.0,91.5,19.5,99.5,12.0,108.0,4.5" stroke="black" stroke-width="2" fill="none" />
<path d="M115.5,4.0,107.5,11.5,100.0,18.5,92.0,26.0,84.0,33.5,76.5,41.5,68.0,48.5,60.0,55.5,51.5,62.5,43.5,70.0,35.5,77.0,27.5,84.5,20.0,92.0,12.0,99.5,3.0,107.5" stroke="black" stroke-width="2" fill="none" />
<path d="M2.0,107.0,10.0,106.0,18.5,105.5" stroke="black" stroke-width="2" fill="none" />
<path d="M18.5,120.0,10.0,120.5,1.5,121.0" stroke="black" stroke-width="2" fill="none" />
<path d="M4.5,121.0,12.5,113.0,21.0,105.5,28.5,98.5,37.0,91.5,45.0,84.5,53.0,77.5,61.0,69.5,69.0,62.0,76.5,54.5,84.0,47.0,92.0,39.5,99.5,32.0,107.5,25.5,115.5,18.5,123.5,11.5,131.0,3.5" stroke="black" stroke-width="2" fill="none" />
<path d="M126.5,3.0,117.5,10.5,109.0,18.0,100.5,25.0,92.5,33.0,84.0,40.5,76.5,48.5,68.0,56.0,60.0,64.0,52.0,72.0,44.0,80.0,35.5,87.0,27.5,94.5,19.5,102.0,11.5,109.0,3.0,116.5" stroke="black" stroke-width="2" fill="none" />
<path d="M4.0,116.5,12.0,115.5,20.0,114.5" stroke="black" stroke-width="2" fill="none" />
<path d="M4.0,113.0,12.0,112.0,19.5,111.5,27.0,110.5,35.0,109.0,43.0,108.0,51.0,106.5,59.0,105.5,66.5,104.5,75.0,103.5,83.0,103.0,91.0,102.5,99.0,102.0,107.5,102.0,115.5,102.0,124.0,101.5,132.5,101.5,141.0,101.5,149.0,100.5,157.5,99.5,165.5,99.0,173.5,99.0,181.0,99.0,189.0,98.5,197.0,98.5,204.5,98.0,212.5,97.5,220.5,96.5,229.0,95.5,237.0,94.5,244.5,94.0,253.5,93.5,261.5,93.0,269.5,92.5" stroke="black" stroke-width="2" fill="none" />
<path d="M228.5,115.0,221.0,122.0,213.0,129.5,204.5,137.0" stroke="black" stroke-width="2" fill="none" />
<path d="M211.5,136.5,220.0,136.0,228.0,135.5" stroke="black" stroke-width="2" fill="none" />
<path d="M228.5,130.0,221.0,131.0" stroke="black" stroke-width="2" fill="none" />
<path d="M228.5,121.0,221.0,129.0,213.0,136.5,204.5,144.5" stroke="black" stroke-width="2" fill="none" />
<path d="M202.0,151.5,210.0,152.5" stroke="black" stroke-width="2" fill="none" />
<path d="M208.5,156.0,217.0,156.0,216.0,163.5,219.0,165.5" stroke="black" stroke-width="2" fill="none" />
<path d="M219.5,163.5,228.0,156.0,236.0,148.5" stroke="black" stroke-width="2" fill="none" />
<path d="M236.5,155.0,228.5,162.5" stroke="black" stroke-width="2" fill="none" />
<path d="M219.5,156.0,227.0,148.5,235.0,141.0" stroke="black" stroke-width="2" fill="none" />
<path d="M228.0,152.5,220.0,152.5" stroke="black" stroke-width="2" fill="none" />
<path d="M213.0,147.5,221.0,147.0,228.5,146.5" stroke="black" stroke-width="2" fill="none" />
<path d="M213.0,163.0,205.0,171.0" stroke="black" stroke-width="2" fill="none" />
<path d="M206.5,178.0,208.5,186.0,207.0,194.0,198.0,206.5,203.5,206.0,206.0,218.0" stroke="black" stroke-width="2" fill="none" />
<path d="M209.5,219.5,201.5,220.0" stroke="black" stroke-width="2" fill="none" />
<path d="M202.5,214.0,210.5,213.0,218.5,212.5,227.0,211.5,235.0,211.0" stroke="black" stroke-width="2" fill="none" />
<path d="M236.5,220.0,228.0,220.5,220.5,221.0" stroke="black" stroke-width="2" fill="none" />
<path d="M212.0,226.0,204.0,233.5" stroke="black" stroke-width="2" fill="none" />
<path d="M201.5,227.0,194.0,234.5" stroke="black" stroke-width="2" fill="none" />
<path d="M188.5,235.5,196.5,227.5" stroke="black" stroke-width="2" fill="none" />
<path d="M189.0,229.0,181.0,236.5" stroke="black" stroke-width="2" fill="none" />
<path d="M181.0,228.5,189.0,225.5,197.0,225.0,197.0,227.5" stroke="black" stroke-width="2" fill="none" />
<path d="M192.5,214.5,200.0,214.5,207.5,216.5" stroke="black" stroke-width="2" fill="none" />
<path d="M211.0,225.5,210.0,223.5,207.0,228.5,214.0,224.5,203.5,227.5,206.5,219.5,210.5,215.5,207.0,208.0,212.0,203.0,209.5,195.5,210.5,187.5,211.5,180.0,211.5,174.0,210.0,165.5,206.0,157.5" stroke="black" stroke-width="2" fill="none" />
<path d="M188.5,154.5,180.5,162.0,172.0,170.0,164.0,177.5,156.0,185.0" stroke="black" stroke-width="2" fill="none" />
<path d="M155.5,185.0,146.5,192.5" stroke="black" stroke-width="2" fill="none" />
<path d="M146.5,188.0,138.5,195.5,130.5,202.5" stroke="black" stroke-width="2" fill="none" />
<path d="M124.0,202.0,131.5,195.0,139.0,188.0" stroke="black" stroke-width="2" fill="none" />
<path d="M131.5,187.0,123.5,195.0,115.5,202.0" stroke="black" stroke-width="2" fill="none" />
<path d="M116.0,202.5,113.0,200.5" stroke="black" stroke-width="2" fill="none" />
<path d="M107.0,204.0,105.0,211.5" stroke="black" stroke-width="2" fill="none" />
<path d="M99.5,209.0,107.5,201.0,115.5,193.5,123.5,185.5" stroke="black" stroke-width="2" fill="none" />
<path d="M121.5,187.5,129.5,186.0,123.0,194.0,129.0,202.0,118.5,203.0,123.0,203.0,131.5,201.5" stroke="black" stroke-width="2" fill="none" />
<path d="M131.5,192.5,139.5,191.5,147.5,192.0" stroke="black" stroke-width="2" fill="none" />
<path d="M148.0,199.0,138.0,198.0,131.0,206.0,130.5,203.5,128.0,197.5,134.0,189.5,134.5,181.5,134.5,173.0,132.0,165.0,132.5,159.5,128.5,153.5,127.5,146.0,120.5,138.5,118.5,135.0,109.0,134.0,101.0,128.0" stroke="black" stroke-width="2" fill="none" />
<path d="M101.5,129.5,101.0,129.5,102.5,137.5,99.5,146.5,95.5,156.0,94.5,162.0,92.5,169.5,96.5,177.0,88.5,185.5,93.5,186.0,95.5,180.0,101.5,177.0" stroke="black" stroke-width="2" fill="none" />
<path d="M99.0,178.0,107.0,170.0,114.5,162.0" stroke="black" stroke-width="2" fill="none" />
<path d="M116.0,166.0,107.5,167.0,99.0,168.0,91.5,168.5,83.5,169.5,75.5,170.0,67.5,170.5,59.5,171.0,51.5,171.5,44.0,172.5,36.0,172.5,28.5,173.5,20.5,174.0,12.5,174.5,4.5,175.0" stroke="black" stroke-width="2" fill="none" />
<path d="M2.5,177.0,10.0,169.5,17.5,162.5,25.5,155.0,33.5,147.0,41.5,139.0,50.5,131.5,59.0,124.5,67.5,116.5,76.0,109.0,84.0,101.0,92.5,93.5,100.5,85.5,108.5,78.0,116.0,70.5,124.0,63.0,132.0,55.5,139.5,48.5,147.0,41.0,155.0,32.5,163.0,24.5,171.0,16.5,178.5,9.5,186.5,2.0" stroke="black" stroke-width="2" fill="none" />
<path d="M179.0,2.0,171.0,10.0,163.0,18.0,155.5,25.0,148.0,32.5,140.5,39.5,132.0,47.0,124.0,55.5,116.0,63.0,108.0,70.0,100.5,77.5,92.0,84.5,84.0,92.5,75.5,100.5,67.5,108.0,59.0,116.0,51.0,123.5,43.0,130.5,35.0,138.0,26.5,145.0,18.5,152.0,10.0,159.5,2.5,167.5" stroke="black" stroke-width="2" fill="none" />
<path d="M4.0,165.5,12.5,165.5,20.5,165.5,28.0,165.5,36.0,164.5,44.0,164.0,51.5,164.0,59.0,163.5,67.0,163.0,75.0,162.5,82.5,162.0,90.5,161.5,99.0,160.5,107.5,160.0,115.0,159.0,123.0,158.5" stroke="black" stroke-width="2" fill="none" />
<path d="M131.0,158.5,139.0,151.0,147.0,143.5,155.5,137.0,163.5,130.5,170.5,122.5,178.0,115.0" stroke="black" stroke-width="2" fill="none" />
<path d="M171.0,115.5,163.0,122.5,155.5,129.5,147.5,137.0" stroke="black" stroke-width="2" fill="none" />
<path d="M140.5,135.5,128.5,145.5,119.0,137.5,116.5,135.5,110.5,146.5,106.0,154.0,98.0,162.5,94.5,169.5,87.0,171.5,86.0,169.5,81.0,161.5,90.0,153.0,93.5,151.0,95.0,143.0,94.0,135.5,97.5,127.5,93.5,131.5" stroke="black" stroke-width="2" fill="none" />
<path d="M93.5,134.5,98.5,132.5,95.5,140.5,97.0,142.0" stroke="black" stroke-width="2" fill="none" />
<path d="M100.0,137.0,108.0,129.5,116.0,121.5,124.5,114.0" stroke="black" stroke-width="2" fill="none" />
<path d="M132.0,114.0,124.0,121.5,115.5,129.0,107.5,136.5" stroke="black" stroke-width="2" fill="none" />
<path d="M109.0,140.5,101.0,144.5,97.0,151.5,93.0,145.0,87.0,145.0,89.0,139.5,88.0,131.5,84.0,128.5" stroke="black" stroke-width="2" fill="none" />
<path d="M84.0,127.5,76.0,128.0,68.0,128.0" stroke="black" stroke-width="2" fill="none" />
<path d="M72.0,120.5,80.0,119.5,88.0,118.5,96.0,119.0,104.5,120.0,112.5,120.5,120.5,120.5,128.5,120.5,136.5,120.5,144.0,120.5,152.0,119.5,160.0,119.5,168.5,120.0,176.5,120.0,184.5,120.5,192.5,120.5,201.0,120.0,209.0,120.0,217.5,119.5,225.5,119.5,229.5,121.5,232.0,129.5,232.0,137.5,233.0,145.5,233.0,153.5,238.0,151.0,245.5,140.0,253.5,129.5,261.0,119.5,269.0,109.0,277.0,99.0,281.0,90.0,289.0,84.0,297.0,73.5,305.0,64.0,313.0,54.0,321.0,44.0,329.0,34.5,336.5,28.0,344.5,32.5,352.5,38.5,360.5,44.5,368.5,52.5,376.5,59.0,384.5,65.0,392.5,72.0,400.5,78.0,408.5,83.5,416.0,90.5,424.0,97.5,431.5,104.5,439.5,110.5,448.0,116.5,456.5,123.0" stroke="black" stroke-width="2" fill="none" />
<path d="M466.5,147.5,458.5,139.5,447.5,129.5,439.5,122.0,431.5,114.0,423.5,105.5,415.5,98.0,407.5,88.0,399.5,80.5,391.5,73.5" stroke="black" stroke-width="2" fill="none" />
<path d="M381.5,74.0,362.5,78.0,352.5,85.5,342.0,93.5,330.0,101.5,316.0,109.5,310.0,115.5,296.0,124.0,286.0,128.0,294.0,122.0" stroke="black" stroke-width="2" fill="none" />
<path d="M244.5,126.0,236.5,127.0,228.0,127.5,220.0,128.5,212.0,129.0,204.0,130.0,195.5,130.5,188.0,131.5,180.5,132.5,173.0,133.0,165.0,133.5,156.5,134.0,148.5,134.0,140.5,134.0,132.0,134.5,124.0,135.0,115.5,135.5,107.0,135.0,98.5,135.0,90.5,135.5,82.5,136.0,74.5,136.0,67.0,137.0,59.0,137.5,51.0,138.0,42.5,138.5,35.0,139.0,27.0,140.5,19.5,141.5,12.0,142.0,4.0,143.5" stroke="black" stroke-width="2" fill="none" />
<path d="M5.5,145.0,13.0,145.0" stroke="black" stroke-width="2" fill="none" />
<path d="M5.0,150.5,13.0,150.0,21.0,149.0,29.0,149.0,37.0,149.0,44.5,149.0,51.5,148.5,59.0,148.0,66.5,147.5,74.5,147.0,82.5,146.0,90.5,145.5,98.5,144.5,107.0,143.5,115.5,143.0,123.5,142.0,132.5,141.0,141.0,140.5,149.0,139.5,156.5,139.0,164.0,138.5,172.0,138.5,180.5,138.0,188.5,138.0,196.0,138.0,204.0,137.0,212.5,136.5,220.0,135.5,228.0,134.5,236.0,134.0" stroke="black" stroke-width="2" fill="none" />
<path d="M220.5,114.5,212.0,121.5,204.0,129.5,195.5,137.5" stroke="black" stroke-width="2" fill="none" />
<path d="M187.5,137.5,196.0,129.0,203.5,121.5,211.5,114.0" stroke="black" stroke-width="2" fill="none" />
<path d="M204.0,115.5,196.0,123.0,188.0,130.5,179.5,138.0,171.5,146.0,163.0,153.5,155.0,161.0" stroke="black" stroke-width="2" fill="none" />
<path d="M155.0,158.0,163.5,157.5,171.5,156.5,179.5,156.0,186.5,155.5,194.5,155.0,202.5,154.5,211.0,154.0,219.0,154.0,226.5,154.0,234.5,153.0" stroke="black" stroke-width="2" fill="none" />
<path d="M236.0,161.0,228.5,161.5,220.0,162.0,211.5,162.5,203.0,163.0,194.5,164.0,186.5,164.5,178.5,164.5,170.5,164.5,163.0,165.0,155.5,165.5" stroke="black" stroke-width="2" fill="none" />
<path d="M156.5,168.5,164.0,161.0,171.5,154.0,179.5,146.5" stroke="black" stroke-width="2" fill="none" />
<path d="M176.0,145.0,177.0,153.0,183.5,161.5,182.5,169.5,182.0,178.0,182.0,186.0,187.0,193.0,190.0,201.0,190.0,209.0,186.0,213.0" stroke="black" stroke-width="2" fill="none" />
<path d="M187.0,213.5,195.0,205.0,203.0,204.0,211.0,209.5,216.5,218.5" stroke="black" stroke-width="2" fill="none" />
<path d="M236.5,202.0,228.5,203.0,221.0,204.0,213.0,204.5,204.5,205.0,196.5,205.5,188.0,206.0" stroke="black" stroke-width="2" fill="none" />
<path d="M178.0,226.0,170.0,233.5" stroke="black" stroke-width="2" fill="none" />
<path d="M162.5,215.5,154.5,218.5" stroke="black" stroke-width="2" fill="none" />
<path d="M146.5,227.0,139.0,235.0" stroke="black" stroke-width="2" fill="none" />
<path d="M138.0,227.5,131.0,235.0" stroke="black" stroke-width="2" fill="none" />
<path d="M131.0,227.5,123.0,235.0" stroke="black" stroke-width="2" fill="none" />
<path d="M123.5,228.0,115.5,235.0" stroke="black" stroke-width="2" fill="none" />
<path d="M115.5,228.0,108.0,235.5" stroke="black" stroke-width="2" fill="none" />
<path d="M106.5,227.5,99.0,234.5" stroke="black" stroke-width="2" fill="none" />
<path d="M92.5,234.0,101.0,226.5" stroke="black" stroke-width="2" fill="none" />
<path d="M114.5,222.0,117.5,220.0,121.0,221.5,127.5,225.5,137.5,233.5,150.0,233.5,159.0,232.5,168.0,232.5" stroke="black" stroke-width="2" fill="none" />
<path d="M165.0,192.5,173.0,185.5,181.0,178.5" stroke="black" stroke-width="2" fill="none" />
<path d="M175.5,177.0,174.5,175.0,178.0,176.5,178.0,184.5,183.0,193.5,190.5,197.5,199.0,196.0,207.5,191.0" stroke="black" stroke-width="2" fill="none" />
<path d="M205.5,181.0,214.0,173.5" stroke="black" stroke-width="2" fill="none" />
<path d="M236.5,182.5,228.5,183.0,220.5,184.0,212.0,185.0,203.5,185.5,195.5,186.0,187.5,187.0,179.0,188.0,171.0,188.5,163.0,189.5,155.5,189.5,147.5,189.5,140.0,189.5,132.0,189.5,124.5,189.0,116.5,189.5,108.5,190.5,100.5,191.0,92.5,192.0,84.0,192.0,76.0,192.5,68.0,193.0,60.0,193.5,52.0,194.5,44.0,195.0,36.0,196.0,28.0,196.5,20.0,197.5,12.0,198.0,4.0,199.0" stroke="black" stroke-width="2" fill="none" />
<path d="M3.5,198.5,11.0,190.5,19.5,183.0,27.5,175.0,35.5,167.5,43.5,160.0,51.5,152.5,59.0,145.0,67.0,138.5,74.5,131.0,83.0,124.0,91.0,116.5" stroke="black" stroke-width="2" fill="none" />
<path d="M82.0,113.5,74.0,121.0,66.5,129.5,58.5,137.5,51.0,145.0,43.0,152.5,35.5,160.5,27.5,168.0,19.5,175.5,11.5,183.0,3.5,191.0" stroke="black" stroke-width="2" fill="none" />
<path d="M5.0,191.0,13.0,191.0,21.0,190.0,29.5,189.5,37.5,189.0,45.5,188.0,53.0,187.0,60.0,186.0,67.5,185.5,75.0,185.5,83.0,185.0,91.5,184.5,99.0,183.5,107.5,182.5,115.5,181.0,123.0,180.5,131.0,180.5,139.0,181.0,147.5,181.0,156.0,180.5,164.0,180.0,172.5,179.5,180.5,179.5,188.0,179.0" stroke="black" stroke-width="2" fill="none" />
<path d="M184.5,174.0,192.5,163.0,197.5,173.0,208.5,175.0,213.5,176.5,220.0,185.5" stroke="black" stroke-width="2" fill="none" />
<path d="M203.5,183.0,203.5,175.0,205.5,169.0,203.5,161.0,200.5,152.0,206.0,148.0,202.5,148.5,204.0,140.5,199.5,135.0,198.5,127.0,190.0,128.0" stroke="black" stroke-width="2" fill="none" />
<path d="M186.5,124.0,194.5,123.0,188.0,130.5,188.0,138.5,189.5,146.5,188.0,156.5,191.0,164.5,194.5,168.5,197.5,176.5,198.5,184.5,204.5,188.0" stroke="black" stroke-width="2" fill="none" />
<path d="M178.5,167.5,170.5,167.5,162.5,167.5" stroke="black" stroke-width="2" fill="none" />
<path d="M163.5,160.0,171.0,160.0" stroke="black" stroke-width="2" fill="none" />
<path d="M181.0,153.5,173.0,161.0,164.5,168.5,156.0,176.5" stroke="black" stroke-width="2" fill="none" />
<path d="M154.5,176.0,162.5,175.5,171.0,176.0" stroke="black" stroke-width="2" fill="none" />
<path d="M168.5,191.0,182.5,196.0,184.5,203.5,192.5,207.5,192.0,219.5,195.0,219.0,203.5,219.0" stroke="black" stroke-width="2" fill="none" />
<path d="M243.5,230.5,235.5,230.5,227.5,230.5,220.0,231.0,212.5,232.0,204.5,233.0,197.0,234.0,188.5,234.5,180.5,235.5,172.5,236.0,164.5,236.5,156.5,236.5,148.0,237.0,139.5,238.0,131.5,239.0,123.0,240.0,115.0,240.5,107.0,240.5,98.5,240.5,90.0,241.0,82.0,241.0,74.0,242.0,66.5,242.5,59.0,243.0,50.5,243.0,42.5,243.5,34.5,243.5,26.0,243.5,17.5,243.5,9.5,243.5,1.5,244.0" stroke="black" stroke-width="2" fill="none" />
<path d="M3.5,248.5,11.5,240.0,20.0,232.5,28.5,225.0,37.0,217.5,45.5,209.5,53.5,202.0" stroke="black" stroke-width="2" fill="none" />
<path d="M53.0,196.0,44.5,203.0,36.0,210.0,27.5,217.0,19.5,224.5,11.5,232.0,3.5,240.0" stroke="black" stroke-width="2" fill="none" />
<path d="M3.5,237.5,11.5,237.0,19.0,237.0,27.0,237.0,35.0,237.0,43.5,236.5,51.5,236.0,60.5,235.5,69.0,234.5,77.0,234.0,84.5,233.5,92.5,232.5,100.5,232.5,108.0,232.0,115.0,232.0,123.0,232.0,131.0,231.5,139.0,230.5,147.0,229.5,155.0,228.5,163.0,228.0,171.0,227.5,179.0,227.5,187.5,227.0,196.5,227.0,205.0,226.0,213.0,225.5,221.0,224.5,229.0,223.5,237.0,222.0,245.0,221.5" stroke="black" stroke-width="2" fill="none" />
<path d="M243.5,237.0,235.5,237.5,227.0,238.0,219.0,239.0,211.5,239.5,203.5,240.5,196.0,242.0,187.5,243.0,179.5,244.0,172.0,245.0,164.0,245.5,156.0,246.0,148.5,247.0,141.0,247.5,133.5,247.5,126.0,248.0,117.5,248.0,110.0,248.0,101.5,248.5,93.5,249.0,85.5,249.5,77.5,250.0,69.0,250.0,61.0,250.0,52.5,250.0,45.0,250.5,37.0,250.5,29.0,251.5,21.5,252.0,13.5,252.0,5.0,252.5" stroke="black" stroke-width="2" fill="none" />
<path d="M4.5,248.5,13.0,248.5" stroke="black" stroke-width="2" fill="none" />
<path d="M11.5,258.0,4.0,258.5" stroke="black" stroke-width="2" fill="none" />
<path d="M4.0,258.5,12.0,250.5,20.0,242.5,27.5,234.0,36.0,226.5,44.5,219.0,52.5,211.5" stroke="black" stroke-width="2" fill="none" />
<path d="M59.5,209.0,67.0,201.0,75.0,193.5,83.0,186.0" stroke="black" stroke-width="2" fill="none" />
<path d="M82.0,180.5,90.0,181.5,98.5,174.5,96.0,184.5,105.0,192.5,115.0,192.0,111.0,198.0,114.0,203.0,110.0,206.5,108.5,213.0,115.5,211.0" stroke="black" stroke-width="2" fill="none" />
<path d="M98.5,205.0,93.5,206.0,93.5,212.5,97.5,214.0" stroke="black" stroke-width="2" fill="none" />
<path d="M99.0,203.5,107.5,195.5,115.5,188.0" stroke="black" stroke-width="2" fill="none" />
<path d="M109.0,172.5,117.0,168.5,126.0,164.5,134.0,173.0" stroke="black" stroke-width="2" fill="none" />
<path d="M132.5,173.5,140.0,173.5,148.0,173.5" stroke="black" stroke-width="2" fill="none" />
<path d="M153.5,174.0,162.0,173.0,170.0,173.0,178.5,172.5,187.5,172.0" stroke="black" stroke-width="2" fill="none" />
<path d="M187.5,171.5,180.5,172.0,173.0,172.5,165.0,173.0,157.0,173.5,149.0,174.0,141.0,174.0,133.5,174.5,125.5,174.5,117.0,174.5,108.0,174.5,100.0,174.5,92.0,175.0,84.0,175.0,75.5,175.5,68.0,176.5,60.0,177.5,52.5,178.0,44.5,179.5,37.0,180.0,29.5,181.0,21.5,182.0,13.5,182.5,5.5,183.5" stroke="black" stroke-width="2" fill="none" />
<path d="M3.5,163.5,11.5,156.0,19.5,148.5,27.5,141.0,36.0,132.5,44.5,124.0,53.5,116.0,61.0,108.5,68.5,100.5,76.0,93.0,84.0,85.0,91.5,77.5,100.0,70.0,108.0,63.0,116.0,55.5,124.0,48.0,132.0,41.0,140.0,33.5,148.0,26.0,156.5,18.5,165.0,11.0,172.5,3.5" stroke="black" stroke-width="2" fill="none" />
<path d="M163.0,3.5,154.5,10.5,146.5,17.5,138.5,25.0,131.5,33.0,124.0,40.5,115.5,47.0,107.0,54.5,99.0,61.5,91.5,69.0,83.5,77.0,75.5,84.5,68.0,92.0,59.5,100.5,50.5,108.5,42.5,116.0,34.5,124.0,27.0,131.5,19.0,139.0,11.0,146.5,3.0,154.0" stroke="black" stroke-width="2" fill="none" />
<path d="M4.5,157.5,12.5,157.0,20.0,157.5,28.0,157.0,36.0,156.5,44.5,156.0,52.0,156.0,59.0,155.5,66.5,154.5,74.0,154.0,82.0,153.5,90.0,153.0,99.0,152.5,107.5,151.5,115.5,150.5,124.5,149.5,132.0,149.0,140.0,148.0,148.5,148.0" stroke="black" stroke-width="2" fill="none" />
<path d="M154.0,153.0,162.5,146.0,170.5,138.5,178.0,131.0,185.5,123.5,193.5,116.5" stroke="black" stroke-width="2" fill="none" />
<path d="M188.5,114.0,180.0,121.0,171.5,128.5,163.5,136.5,155.5,144.5,147.5,153.0,139.5,160.5,132.0,169.0" stroke="black" stroke-width="2" fill="none" />
<path d="M133.5,166.5,141.5,166.0,149.5,165.5" stroke="black" stroke-width="2" fill="none" />
<path d="M146.5,161.5,138.5,169.5" stroke="black" stroke-width="2" fill="none" />
<path d="M132.0,155.0,140.0,148.0" stroke="black" stroke-width="2" fill="none" />
<path d="M141.0,143.0,137.5,151.0,147.5,156.0,155.5,155.0" stroke="black" stroke-width="2" fill="none" />
<path d="M151.0,147.0,143.0,149.5,133.5,151.5,134.5,143.5,128.5,138.5,120.5,145.0" stroke="black" stroke-width="2" fill="none" />
<path d="M132.5,145.0,140.5,138.0,148.0,131.0,155.5,124.0,163.0,116.5" stroke="black" stroke-width="2" fill="none" />
<path d="M156.5,114.0,149.0,121.5,140.0,129.5,131.5,136.5,122.5,144.0" stroke="black" stroke-width="2" fill="none" />
<path d="M125.0,138.0,132.5,129.5,140.5,121.5,149.0,114.0" stroke="black" stroke-width="2" fill="none" />
<path d="M151.0,125.5,151.0,133.5,151.5,141.0,157.5,145.0,155.0,145.0,155.0,157.5,155.0,165.5,150.5,174.0,153.5,176.5,148.5,184.5,155.5,190.0,152.5,196.5,150.0,199.5,143.0,218.0,132.5,221.5,138.5,219.5,147.0,212.5,150.0,212.5,158.5,210.0,165.5,210.0,175.0,209.0,173.5,204.0,178.5,205.0,180.0,205.5" stroke="black" stroke-width="2" fill="none" />
<path d="M161.0,205.5,161.5,198.0,161.5,190.0" stroke="black" stroke-width="2" fill="none" />
<path d="M156.5,184.5,157.5,192.5,159.0,201.0" stroke="black" stroke-width="2" fill="none" />
<path d="M152.0,206.5,143.5,206.0,136.0,208.0,128.0,209.5,119.5,207.5,118.5,202.5,113.5,194.5,109.5,209.5,101.5,201.0,92.0,208.5,82.0,205.0,78.0,208.0,77.0,212.0,74.0,210.5,86.0,207.5,95.5,197.5,99.0,198.0,104.0,190.0,105.5,183.5,107.0,175.5,107.0,167.0,103.0,157.5,104.0,149.5,109.0,148.5,112.5,137.5,110.5,129.5,110.5,129.0" stroke="black" stroke-width="2" fill="none" />
<path d="M107.0,129.5,109.5,137.0,106.0,139.5,114.5,148.5,117.5,157.0,125.5,157.0" stroke="black" stroke-width="2" fill="none" />
<path d="M123.5,159.0,115.5,161.0,107.0,162.5,117.0,168.5,125.0,162.5,116.5,162.0,109.0,164.5" stroke="black" stroke-width="2" fill="none" />
<path d="M108.5,165.0,100.0,172.0" stroke="black" stroke-width="2" fill="none" />
<path d="M98.0,170.0,106.0,170.0" stroke="black" stroke-width="2" fill="none" />
<path d="M97.0,163.5,105.0,156.0" stroke="black" stroke-width="2" fill="none" />
<path d="M98.0,155.5,105.5,147.5" stroke="black" stroke-width="2" fill="none" />
<path d="M101.0,146.5,93.0,154.0" stroke="black" stroke-width="2" fill="none" />
<path d="M90.0,150.0,81.5,157.0,73.5,164.0,66.0,171.0,58.0,178.0" stroke="black" stroke-width="2" fill="none" />
<path d="M58.5,184.5,66.5,177.0,75.0,169.0,82.5,161.0" stroke="black" stroke-width="2" fill="none" />
<path d="M89.0,158.5,97.0,156.5,110.5,158.0,118.5,154.0" stroke="black" stroke-width="2" fill="none" />
<path d="M115.0,140.5,122.5,132.5,129.5,124.5,137.5,116.5" stroke="black" stroke-width="2" fill="none" />
<path d="M142.5,126.0,132.5,133.0,134.0,135.5,133.0,143.0,122.0,147.0,125.0,146.5,123.0,160.5,125.5,155.5,133.5,153.5,137.0,142.0" stroke="black" stroke-width="2" fill="none" />
<path d="M125.0,130.0,116.5,131.0" stroke="black" stroke-width="2" fill="none" />
<path d="M115.0,131.0,123.0,133.5,132.5,131.5,140.5,131.0,149.0,127.0,159.5,132.0,171.0,130.5" stroke="black" stroke-width="2" fill="none" />
<path d="M170.0,128.5,173.0,130.5,177.0,139.0,167.5,143.0,167.5,151.0,169.5,150.0,177.5,141.0" stroke="black" stroke-width="2" fill="none" />
<path d="M177.0,149.5,185.0,153.5,197.0,144.5" stroke="black" stroke-width="2" fill="none" />
<path d="M192.5,156.5,190.5,154.5,196.5,151.5,195.5,143.5,191.5,135.5,194.5,132.0,194.5,124.0" stroke="black" stroke-width="2" fill="none" />
<path d="M181.5,123.5,185.5,126.5,186.5,134.5,186.5,143.0,188.0,151.0,184.5,156.5,191.5,160.5,193.0,154.0,201.0,149.0,201.0,143.0,211.0,144.0,211.0,152.0,221.5,160.0,217.0,165.0,221.0,167.0,220.5,174.0,219.5,182.0,220.5,189.0,220.5,197.0,221.5,205.0,221.0,212.5,221.0,220.0,221.0,228.0" stroke="black" stroke-width="2" fill="none" />
<path d="M221.5,245.0,213.5,244.0,201.5,243.0,193.5,242.0,185.5,242.0,177.5,241.5,169.5,241.5,161.5,241.0,153.5,241.5,145.5,241.0,137.0,241.0,128.5,241.5,120.5,241.5,112.5,241.5,104.5,242.5,97.0,242.5,89.0,242.5,81.5,243.5" stroke="black" stroke-width="2" fill="none" />
<path d="M75.5,242.0,83.5,235.0" stroke="black" stroke-width="2" fill="none" />
<path d="M77.0,235.0,68.5,243.0,61.0,251.0,53.0,259.0,44.5,267.0,36.0,274.5,28.0,281.5,20.0,288.0,12.0,295.5,3.5,302.5" stroke="black" stroke-width="2" fill="none" />
<path d="M3.0,300.0,11.0,300.0,19.0,299.5,27.0,299.5,35.5,299.5,44.0,299.0,51.5,299.0,59.0,298.5,66.5,298.0,74.5,297.5,82.5,297.0,91.0,296.5,99.5,295.5,107.5,295.0,116.0,294.5,124.5,293.5,133.0,292.5,141.5,291.5,149.5,291.0,157.0,291.0,165.0,290.5,172.5,290.0,180.5,290.5,188.0,290.5,196.0,290.5,204.5,290.5,212.0,290.0,220.0,290.0,228.5,289.5,237.0,288.5,245.0,287.5" stroke="black" stroke-width="2" fill="none" />
<path d="M253.5,286.5,261.0,286.0,269.0,285.0,276.5,284.0,284.0,283.5,291.5,282.5,299.0,282.5,307.5,282.0" stroke="black" stroke-width="2" fill="none" />
<path d="M300.0,285.0,299.0,287.5,291.0,290.5,287.0,290.5,281.0,285.5,268.0,288.5,265.0,296.0,269.5,285.0,276.5,277.5,283.5,276.5,290.5,268.5,292.5,260.5" stroke="black" stroke-width="2" fill="none" />
<path d="M277.5,264.0,276.5,271.5,278.0,281.5,289.0,288.0,289.5,296.5,279.5,304.5,281.0,307.5,289.0,307.5,297.5,307.0,305.5,307.0,314.0,307.0,321.5,308.0,329.5,308.0,337.0,308.5,344.5,308.5,352.0,307.0,360.5,307.0,368.5,307.0,376.5,306.0,384.5,306.0" stroke="black" stroke-width="2" fill="none" />
<path d="M275.0,268.5,267.0,269.0" stroke="black" stroke-width="2" fill="none" />
<path d="M274.5,262.0,274.5,262.5,271.5,270.5,264.0,279.0" stroke="black" stroke-width="2" fill="none" />
<path d="M243.0,292.5,235.0,293.5,226.5,294.0,218.0,295.5,209.5,296.5,201.5,297.5,193.5,297.5,185.5,298.0,177.5,298.0,170.0,299.0,162.0,299.5,154.0,300.0,145.5,300.5,137.5,301.0,129.5,301.0,121.5,301.0,113.5,301.0,105.5,301.5,97.5,302.0,89.5,302.5,81.5,303.0,74.0,303.5,66.5,303.5,58.5,303.5,50.0,303.5,41.5,304.0,34.0,304.5,26.5,305.0,18.5,306.0,10.5,306.5,2.5,307.5" stroke="black" stroke-width="2" fill="none" />
<path d="M2.5,305.0,11.0,304.5,19.5,304.0,28.0,303.0,36.0,302.5" stroke="black" stroke-width="2" fill="none" />
<path d="M5.0,311.5,13.0,303.5,21.0,295.5,29.0,287.5,37.5,279.5,45.5,272.0,53.5,264.5,62.0,257.0,70.0,249.5" stroke="black" stroke-width="2" fill="none" />
<path d="M77.0,251.0,69.0,258.5,60.5,266.5,52.5,274.0,44.5,282.0,36.5,290.0,28.0,297.5,19.5,305.0,11.0,312.5,3.0,319.5" stroke="black" stroke-width="2" fill="none" />
<path d="M2.5,317.0,10.5,316.5,18.5,316.0,27.0,316.0,35.5,316.5,44.0,316.0,52.0,315.5,60.5,315.0,68.5,315.0,76.5,315.0,85.0,314.5,93.0,314.0,100.5,313.5,108.0,312.5,115.5,311.5,124.0,311.0,132.0,310.0,140.0,309.5,148.0,308.5,156.5,308.0,164.5,307.0,172.0,307.0,180.0,306.5,187.5,306.5,195.5,306.5,203.5,306.0,211.0,306.0,219.5,306.0,228.0,305.5,236.0,304.5,244.0,304.0,252.0,303.5,260.0,303.5,268.0,302.5,276.0,302.0,284.5,301.0,292.5,300.5,300.5,300.0,308.0,299.0,316.0,298.5,324.0,298.0,332.5,298.0,340.0,297.5,348.0,297.0,356.0,297.0,364.0,296.0,372.0,295.0,380.0,294.5,388.5,294.0,396.5,294.0,404.0,294.0,412.0,293.0,420.0,292.0,428.0,291.0,436.0,290.5,444.5,290.0,452.5,289.0,461.0,288.0,469.5,287.0,477.5,286.0,485.0,285.5,493.0,285.0,500.5,284.5,508.0,284.5,516.0,284.5" stroke="black" stroke-width="2" fill="none" />
<path d="M516.5,45.0,508.0,45.5,500.0,46.5,492.5,47.5,484.5,47.5,477.0,48.0,469.5,49.0,461.5,49.5,454.0,50.0,446.0,50.0,438.0,50.5,429.5,51.0,421.0,51.0,412.5,51.5,404.5,52.0,396.0,52.5,387.5,53.0,380.0,53.0" stroke="black" stroke-width="2" fill="none" />
<path d="M364.0,46.0,372.5,45.5,381.0,45.0,389.0,44.0,397.0,43.5,404.5,43.5,413.0,42.5,420.5,42.0,428.5,42.0,436.0,41.5,443.5,41.0,451.5,40.5,460.0,39.5,468.5,39.0,476.5,38.5,484.5,38.0,493.0,37.5,501.0,37.0,509.0,36.0,517.0,35.5" stroke="black" stroke-width="2" fill="none" />
<path d="M516.0,29.5,508.0,30.0,500.5,30.0,493.0,30.5,484.5,31.0,476.5,31.0,467.5,31.5,459.0,32.0,451.0,32.5,443.0,32.5,435.5,33.0,427.0,33.5,418.5,34.0,410.5,34.0,402.0,34.5,394.0,35.5,386.0,35.5,378.0,36.0,370.5,36.5,362.5,37.5,354.5,38.0" stroke="black" stroke-width="2" fill="none" />
<path d="M340.5,28.5,351.5,36.5,362.5,44.0,371.5,52.0,379.0,60.0,390.0,68.0,399.5,76.0,409.0,83.5,417.5,91.5,426.5,99.5,436.5,107.5,446.5,115.5,457.0,124.0,461.0,132.0,456.0,140.0,465.0,147.5,470.0,155.5,464.0,163.5,461.0,171.5,465.5,179.5,460.5,187.5,453.5,196.0,458.0,204.0,462.0,212.0,453.5,220.0,451.0,228.0,454.5,235.5,452.5,243.5,437.5,250.5,428.0,253.5,429.0,261.5,430.5,268.5,438.5,265.5" stroke="black" stroke-width="2" fill="none" />
<path d="M513.5,300.0,505.0,300.5,496.5,301.5,489.0,302.0,481.0,302.5,473.0,303.0,465.5,304.0,458.0,304.5,451.0,305.0,443.0,306.0,435.5,306.5,427.0,307.5,419.0,308.0,411.0,308.0,403.0,308.5,395.0,309.0,387.5,309.0,379.5,309.5,371.0,309.5,363.0,310.0,355.5,311.0,348.0,312.5,340.5,313.0,333.0,313.5,325.5,314.5,317.0,315.0,309.0,315.5,301.0,316.0,293.0,316.5,285.5,317.0,277.0,317.0,268.5,318.0,260.5,318.5,252.5,319.0,244.0,319.5,236.5,320.0,228.5,320.0,220.5,320.0,213.0,320.5,204.5,320.5,196.5,320.5,189.0,320.5,180.5,320.5,172.0,321.0,164.0,321.0,156.0,321.5,148.0,322.0,140.0,322.5,132.0,323.0,124.5,323.5,116.5,324.5,108.5,325.5,101.0,326.5,93.0,327.5,85.5,328.0,77.0,328.5,68.5,329.0,60.0,329.5,51.5,330.5,43.0,331.5,35.0,332.0,27.5,333.0,19.0,333.5,10.5,334.5,2.5,335.0" stroke="black" stroke-width="2" fill="none" />
<path d="M3.5,338.5,11.5,337.5,19.0,337.0,27.5,336.0,36.0,335.0,44.5,334.0,52.5,334.0,61.0,334.0,69.0,334.0" stroke="black" stroke-width="2" fill="none" />
<path d="M60.0,325.0,52.0,326.0,44.5,326.5,35.5,327.5,27.5,328.5,19.0,329.5,10.0,330.0,2.0,330.5" stroke="black" stroke-width="2" fill="none" />
<path d="M1.0,322.0,9.0,321.5,18.0,321.0,26.5,320.0,35.0,320.0,44.0,319.0,52.0,318.5" stroke="black" stroke-width="2" fill="none" />
<path d="M36.0,311.5,27.5,312.0,19.0,312.0,10.5,312.5,2.5,312.5" stroke="black" stroke-width="2" fill="none" />
<path d="M3.5,298.0,11.5,297.5,19.5,297.0,28.0,296.0" stroke="black" stroke-width="2" fill="none" />
<path d="M4.5,293.5,12.0,293.5,20.0,293.0,27.5,292.5,35.5,292.5,43.0,292.0,51.5,292.0,59.5,292.0,68.0,292.0,76.5,291.5,85.0,291.0,92.5,290.5,99.5,289.5,107.5,289.0,115.5,288.0,123.5,287.0,131.5,286.5,139.5,285.5,148.0,284.5,156.5,283.5,164.0,282.5,172.0,282.0,180.0,281.5,187.5,281.0,195.0,280.0,203.0,279.5,211.0,279.0,219.5,279.0,227.5,279.0,236.0,279.0,244.0,279.0" stroke="black" stroke-width="2" fill="none" />
<path d="M242.5,260.5,234.5,261.0,226.5,262.0,219.0,263.0,211.0,263.5,203.5,264.5,196.0,265.5,188.0,266.5,180.0,267.5,171.5,268.0,163.5,268.5,155.5,269.0,147.5,269.5,139.5,270.0,131.5,270.0,123.5,270.0,115.0,270.0,107.0,270.5,99.0,270.5,91.0,271.0,83.5,271.0,75.0,271.5,66.5,272.0,58.0,272.5,50.0,273.5,42.5,274.5,34.0,275.5,26.5,276.5,19.0,277.5,11.0,278.0,3.0,279.0" stroke="black" stroke-width="2" fill="none" />
<path d="M5.5,271.5,13.5,271.5,21.0,270.5,29.0,270.0,36.5,269.0,43.5,268.0,51.5,267.5,59.5,266.5,67.0,266.0,74.0,265.5,81.5,265.0,90.0,264.0,98.0,264.0,106.5,263.5,115.5,263.0,124.0,262.5,132.0,262.5,140.0,261.5,148.0,260.5,156.0,260.0,164.0,259.0,171.5,259.0,180.0,258.5,188.5,258.0,196.5,257.5,205.0,257.0,213.5,257.0,222.0,256.5,230.0,256.0,238.0,256.0,245.5,255.5" stroke="black" stroke-width="2" fill="none" />
<path d="M243.5,247.0,235.0,247.5,226.5,248.0,218.5,248.0,210.0,248.5,202.0,249.5,194.0,249.5,186.0,250.0,178.5,250.5,170.5,251.5,162.5,252.0,154.5,253.0,147.0,253.0,139.0,253.0,130.5,253.5,122.5,254.0,114.5,254.5,107.5,255.0,99.5,255.5,91.5,256.5,83.0,257.0,75.5,257.0,67.5,257.5,59.5,258.5,51.5,259.0,43.5,260.0,35.5,261.0,27.5,261.5,19.5,262.5,11.5,263.5,3.5,264.0" stroke="black" stroke-width="2" fill="none" />
<path d="M3.0,265.5,11.5,257.5,20.0,250.0,28.5,242.5,37.0,235.0,44.5,227.5,52.5,220.5" stroke="black" stroke-width="2" fill="none" />
<path d="M68.0,228.5,60.0,235.5,52.0,243.0,44.0,250.0,36.0,257.0,28.5,264.5,20.5,272.0,12.5,280.0,4.5,288.0" stroke="black" stroke-width="2" fill="none" />
<path d="M3.0,288.5,11.5,288.0,19.5,288.0,27.5,287.5" stroke="black" stroke-width="2" fill="none" />
<path d="M3.5,270.0,11.5,262.0,19.5,255.0,28.0,247.0,36.0,239.5,43.5,231.5,51.5,224.0,59.5,217.0,67.5,210.0,75.5,203.0,83.5,196.5,91.5,189.5" stroke="black" stroke-width="2" fill="none" />
<path d="M83.5,179.0,76.0,186.5,68.0,194.0,60.5,201.5" stroke="black" stroke-width="2" fill="none" />
<path d="M68.5,202.5,76.5,201.5" stroke="black" stroke-width="2" fill="none" />
<path d="M70.5,209.0,72.0,217.0,71.5,225.0,71.5,233.0,69.5,239.0,77.5,241.0,85.0,241.0,93.0,239.5,101.0,239.5,109.0,239.5,117.0,239.5,125.0,238.5,133.0,234.5,139.0,239.0,147.5,238.5,155.5,238.5,163.5,239.0,172.0,238.0,180.0,238.5,188.0,239.5,196.5,239.5,204.0,239.5,212.0,241.5,220.0,241.0,227.5,240.0" stroke="black" stroke-width="2" fill="none" />
<path d="M217.0,233.5,210.0,230.0,201.0,232.0,193.0,232.0,184.0,232.0,176.5,231.0,168.5,230.5,161.0,230.5,153.0,231.5,145.0,231.5,137.0,232.0,128.5,232.0,120.0,232.0,112.0,232.0,104.0,232.0,96.0,232.0,88.0,232.5,80.0,232.0,72.0,232.0" stroke="black" stroke-width="2" fill="none" />
<path d="M76.0,229.5,68.0,237.0,59.5,244.0,51.5,251.0,44.0,259.0,36.0,266.0,27.5,273.0,19.0,280.5,11.0,287.5,3.0,294.5" stroke="black" stroke-width="2" fill="none" />
<path d="M5.0,267.5,12.5,267.0,20.5,266.0" stroke="black" stroke-width="2" fill="none" />
<path d="M4.5,232.0,12.5,224.5,20.5,217.5,28.5,210.5,36.5,203.5,44.5,196.5,52.5,189.0" stroke="black" stroke-width="2" fill="none" />
<path d="M50.5,181.5,42.5,188.5,35.0,196.0,27.5,203.5,20.0,210.5,12.0,218.0,4.0,225.0" stroke="black" stroke-width="2" fill="none" />
<path d="M4.5,221.0,12.5,220.5,20.5,220.0,28.5,220.0,36.5,220.0,44.0,219.5,51.5,219.0,59.5,218.5,68.0,217.5,76.5,216.5" stroke="black" stroke-width="2" fill="none" />
<path d="M72.5,220.0,80.5,221.0,88.5,215.5" stroke="black" stroke-width="2" fill="none" />
<path d="M59.5,193.0,68.0,185.0,76.0,177.0,84.0,169.0" stroke="black" stroke-width="2" fill="none" />
<path d="M84.5,177.0,77.5,177.5,69.5,178.0" stroke="black" stroke-width="2" fill="none" />
<path d="M72.0,180.5,73.0,188.5" stroke="black" stroke-width="2" fill="none" />
<path d="M72.5,180.0,71.5,188.0,78.5,191.5,86.0,187.5,94.0,187.0,103.0,186.0,113.0,183.5,121.0,184.5,119.0,190.5,125.0,197.0,133.0,190.5,144.0,188.5,152.0,180.5" stroke="black" stroke-width="2" fill="none" />
<path d="M140.0,196.0,144.0,204.0" stroke="black" stroke-width="2" fill="none" />
<path d="M89.5,200.0,88.5,198.5,84.0,192.5,77.0,187.5,78.5,179.5" stroke="black" stroke-width="2" fill="none" />
<path d="M76.5,168.5,69.0,169.0" stroke="black" stroke-width="2" fill="none" />
<path d="M65.0,161.5,73.5,161.0" stroke="black" stroke-width="2" fill="none" />
<path d="M67.5,153.0,75.5,152.5,83.5,152.0" stroke="black" stroke-width="2" fill="none" />
<path d="M84.5,144.0,76.5,145.0,68.0,145.0" stroke="black" stroke-width="2" fill="none" />
<path d="M67.0,138.0,75.5,137.5,83.0,136.5" stroke="black" stroke-width="2" fill="none" />
<path d="M81.0,122.5,86.0,129.0,86.5,137.0,87.5,145.0,87.5,153.5,78.5,162.5,81.5,171.0,82.5,179.0,81.5,187.0,84.0,198.5,82.5,206.0,82.0,214.0" stroke="black" stroke-width="2" fill="none" />
<path d="M59.5,168.0,67.5,160.0,75.5,152.5,83.0,144.0,91.0,136.5,99.0,129.0,107.0,121.5,115.5,113.5" stroke="black" stroke-width="2" fill="none" />
<path d="M144.0,125.5,145.5,133.5,145.0,141.5,144.5,150.0,139.5,161.5,143.5,169.5,140.5,177.5,140.5,185.0,137.5,188.0,142.5,202.5,151.0,203.5" stroke="black" stroke-width="2" fill="none" />
<path d="M170.5,166.5,169.5,161.0,164.5,153.0,163.0,144.5" stroke="black" stroke-width="2" fill="none" />
<path d="M168.0,143.5,171.5,151.5,171.5,160.0,173.0,171.0,172.0,179.5,175.5,184.5,170.0,193.0,165.0,196.5,165.0,204.5,156.5,209.5" stroke="black" stroke-width="2" fill="none" />
<path d="M150.0,148.5,152.0,142.5,157.0,134.5,154.5,133.5,153.5,126.0" stroke="black" stroke-width="2" fill="none" />
<path d="M167.0,125.5,163.5,133.5,160.0,135.0,159.0,143.0,160.5,151.5,164.5,139.5,174.5,139.5" stroke="black" stroke-width="2" fill="none" />
<path d="M239.0,169.0,238.5,177.0,238.5,184.5,238.5,192.5,238.5,201.0,239.0,209.0,239.0,217.0,240.0,224.5,240.0,232.5,237.5,241.0,243.5,249.5,251.0,249.5,264.5,248.5,272.5,249.5,280.5,250.0,288.5,250.0,296.5,249.5,304.5,249.0" stroke="black" stroke-width="2" fill="none" />
<path d="M325.5,245.0,317.5,245.5,309.5,245.5,301.5,244.5,293.0,244.5,284.5,245.5,276.5,245.5,268.0,245.0,260.0,245.5" stroke="black" stroke-width="2" fill="none" />
<path d="M241.0,237.5,241.5,245.0,241.5,253.0,242.5,260.5,242.0,268.5,242.0,276.5,242.0,284.0,241.5,292.0,242.5,299.5,242.0,307.5,242.5,315.5,248.5,316.5,250.5,319.5,258.5,320.0,267.0,321.0,275.5,321.5,283.5,321.5,291.0,322.0,299.0,322.0,307.0,322.0,315.0,322.0,323.0,323.0,330.5,320.0" stroke="black" stroke-width="2" fill="none" />
<path d="M244.5,215.5,236.5,216.0,228.0,216.5,220.0,216.5,211.5,216.5,203.5,217.0,194.5,217.5,187.0,218.0,178.5,218.0,170.0,219.0,161.5,219.5,153.5,220.5,146.0,221.0,138.0,221.5,130.0,222.0,122.5,222.5,115.5,222.5,108.0,223.5,100.5,224.0,93.5,224.5,85.5,225.0,77.0,225.0,68.5,225.5,60.5,226.0,52.5,226.5,44.5,226.5,36.5,227.5,29.0,228.0,21.5,229.0,13.5,230.0,5.5,230.5" stroke="black" stroke-width="2" fill="none" />
<path d="M2.5,146.5,10.5,139.5,18.5,132.0,27.0,124.5,35.0,117.0,43.5,109.5,51.5,101.5,59.0,93.5,66.0,85.5,73.5,78.0,82.0,70.5,90.5,63.5,98.5,56.0,106.5,48.5,115.0,40.5,123.0,33.0,131.0,25.5,139.5,18.0,148.5,9.5,157.0,2.0" stroke="black" stroke-width="2" fill="none" />
<path d="M148.0,2.0,140.0,9.5,131.5,17.0,123.5,24.5,115.5,32.0,108.0,40.0,99.5,48.5,91.5,56.0,84.0,64.0,76.0,71.0,68.5,78.5,60.5,86.5,52.0,94.5,43.5,102.0,35.5,109.0,28.0,116.0,19.5,123.5,11.0,131.0,3.0,138.5" stroke="black" stroke-width="2" fill="none" />
<path d="M2.5,136.5,10.5,136.5" stroke="black" stroke-width="2" fill="none" />
<path d="M4.0,131.5,12.5,124.0,20.5,116.0,28.0,108.0,36.0,100.5,44.0,93.0,52.5,85.0,60.5,77.5,68.5,70.5,76.5,63.5,84.0,56.5,91.0,49.0,98.5,42.0,107.0,34.0,115.0,26.5,123.0,18.5,131.0,11.0,139.5,3.5" stroke="black" stroke-width="2" fill="none" />
<path d="M171.0,40.0,179.0,32.0,187.0,24.5,195.0,17.0,202.5,10.0,210.5,3.0" stroke="black" stroke-width="2" fill="none" />
<path d="M203.0,5.5,195.0,13.0,187.5,20.5,179.5,27.5,171.0,35.0,163.0,43.0,155.0,50.5" stroke="black" stroke-width="2" fill="none" />
<path d="M196.5,32.0,204.5,24.0,212.5,17.0,220.5,10.5,228.0,3.0" stroke="black" stroke-width="2" fill="none" />
<path d="M220.0,4.0,212.0,11.0,203.5,18.0,195.5,25.0,187.5,32.5" stroke="black" stroke-width="2" fill="none" />
<path d="M212.0,25.0,220.5,17.5,229.0,10.0,237.0,2.5" stroke="black" stroke-width="2" fill="none" />
<path d="M242.5,4.0,234.5,11.5,226.5,19.0,218.5,27.0" stroke="black" stroke-width="2" fill="none" />
<path d="M235.5,27.0,243.5,20.0,251.5,12.5,259.5,5.0" stroke="black" stroke-width="2" fill="none" />
<path d="M266.0,3.5,258.5,11.5,250.5,19.0" stroke="black" stroke-width="2" fill="none" />
<path d="M259.5,17.0,267.0,9.0,275.0,1.5" stroke="black" stroke-width="2" fill="none" />
<path d="M282.5,1.0,274.5,8.5,266.5,16.5" stroke="black" stroke-width="2" fill="none" />
<path d="M281.5,11.5,289.5,4.0" stroke="black" stroke-width="2" fill="none" />
<path d="M297.5,5.0,289.5,12.5" stroke="black" stroke-width="2" fill="none" />
<path d="M251.0,4.5,243.0,12.0,234.5,19.0,226.0,26.5" stroke="black" stroke-width="2" fill="none" />
<path d="M195.5,5.5,187.0,13.0,179.0,20.0,171.0,27.5,163.5,35.0,155.5,42.5,147.0,50.0,138.0,57.0" stroke="black" stroke-width="2" fill="none" />
<path d="M82.5,3.5,74.5,10.5,67.0,18.0,59.0,25.5,51.5,32.5,43.5,40.0,36.0,47.5,28.0,55.5,19.5,63.0,11.0,69.5,2.5,77.0" stroke="black" stroke-width="2" fill="none" />
<path d="M4.5,79.5,12.5,78.5,21.0,78.5,29.5,78.0,37.5,77.0,45.5,76.5,53.5,75.5,61.5,74.5,69.0,73.5,77.0,72.0,85.0,71.5,93.5,71.0,101.5,71.0,109.0,70.5,117.0,69.5,125.0,69.5,132.5,69.0,141.0,69.0,149.0,69.0,157.5,69.0,165.5,68.5,173.5,68.0,181.5,67.5,190.0,67.0,197.5,67.0,206.0,67.0,213.5,66.5,221.0,66.5,228.5,66.0,236.0,65.0,244.0,64.5,252.0,64.0,259.5,63.0,267.5,62.0,276.0,61.0,283.5,59.5,291.5,58.5" stroke="black" stroke-width="2" fill="none" />
<path d="M300.0,50.0,292.5,51.0,284.5,52.0,277.0,53.0,268.5,53.5,260.5,54.5,252.5,55.0,244.5,55.5,236.5,55.5,228.0,56.0,219.5,57.0,211.5,58.0,203.0,59.0,195.0,59.5,187.0,59.5,178.5,59.5,170.0,60.0,162.0,60.0,154.0,61.0,146.5,61.5,139.0,62.0,130.5,62.0,122.5,62.5,114.5,62.5,106.0,62.5,97.5,62.5,89.5,62.5,81.5,63.0,73.5,64.0,65.0,65.0,57.0,66.0,49.0,67.0,41.5,68.0,33.0,68.0,25.5,68.0,18.0,68.0,11.0,68.0,3.0,69.0" stroke="black" stroke-width="2" fill="none" />
<path d="M4.0,70.0,12.0,62.5,20.0,55.5,28.0,48.0,36.5,40.5,45.0,33.0,52.5,25.5,60.5,18.0,68.5,11.0,76.5,3.5" stroke="black" stroke-width="2" fill="none" />
<path d="M66.5,6.0,58.5,13.0,51.0,20.5,43.0,27.5,35.0,34.5,27.0,42.0,18.5,49.5,10.5,57.0,2.0,64.5" stroke="black" stroke-width="2" fill="none" />
<path d="M2.5,64.0,10.5,63.5,19.0,63.5,27.0,63.0,34.5,62.5,42.5,62.0" stroke="black" stroke-width="2" fill="none" />
<path d="M26.5,87.5,18.5,88.0,11.0,89.0,3.0,89.5" stroke="black" stroke-width="2" fill="none" />
<path d="M3.0,97.0,10.5,96.5,18.5,96.5" stroke="black" stroke-width="2" fill="none" />
<path d="M3.0,80.5,11.5,80.0,19.5,80.0,28.0,80.0,36.5,79.5" stroke="black" stroke-width="2" fill="none" />
<path d="M43.5,69.5,35.5,70.5,27.0,71.0,19.5,71.5,12.0,72.0,4.0,73.0" stroke="black" stroke-width="2" fill="none" />
<path d="M3.5,62.0,12.0,61.5,19.5,60.5,27.5,60.0,36.0,60.0,44.0,59.5,52.5,59.0,60.5,58.0,69.0,57.5,77.5,58.0,85.5,57.5,93.5,57.0,101.5,56.0,109.0,55.0,116.5,54.5,124.5,53.5,132.5,53.5,140.5,53.0,148.5,52.5,157.0,52.0,165.5,52.0,173.5,51.5,180.5,51.0,188.0,50.5,195.5,49.5,202.5,49.5,210.0,49.0,218.0,48.5,226.0,48.0,233.5,47.5,241.5,46.5,250.0,46.0,258.5,45.0,267.0,45.0,274.5,44.5,283.5,44.0,291.5,43.5,300.0,43.5,308.0,43.5" stroke="black" stroke-width="2" fill="none" />
<path d="M316.5,34.0,308.5,35.0,300.5,35.5,292.5,36.0,284.5,36.5,276.5,37.0,267.5,38.0,259.0,39.0,250.5,39.5,243.0,39.5,234.5,40.0,226.5,40.5,218.5,41.0,211.0,41.5,203.5,42.0,195.0,42.5,186.0,43.0,177.5,43.0,169.5,43.0,161.0,43.5,153.5,44.0,146.0,44.0,138.5,44.5,131.5,45.0,123.5,45.0,116.0,46.0,108.0,46.0,100.0,46.5,92.0,47.0,83.5,47.0,75.5,47.5,68.0,48.5,60.5,49.0,53.0,49.5,45.0,50.0,37.0,51.0,29.0,52.0,20.5,53.0,12.0,54.5,4.0,55.0" stroke="black" stroke-width="2" fill="none" />
<path d="M3.0,57.0,11.0,50.0,19.5,43.0,27.0,35.0,35.0,27.5,43.0,20.0,50.5,12.5,58.0,5.5" stroke="black" stroke-width="2" fill="none" />
<path d="M49.5,4.5,41.5,12.0,34.0,20.0,26.5,27.5,19.5,35.0,12.0,42.5,4.0,49.5" stroke="black" stroke-width="2" fill="none" />
<path d="M2.5,50.0,11.0,49.5,19.5,49.0,28.0,48.5,36.5,48.5,44.5,48.0,53.0,47.5,61.0,46.5" stroke="black" stroke-width="2" fill="none" />
<path d="M43.5,3.5,35.5,11.0,27.0,19.0,19.0,27.0,12.0,34.5,4.0,42.0" stroke="black" stroke-width="2" fill="none" />
<path d="M3.0,41.5,11.0,41.5,19.0,41.5,27.0,41.0,35.0,40.5,42.5,40.0,51.0,39.5,59.5,39.0,68.0,39.0" stroke="black" stroke-width="2" fill="none" />
<path d="M36.0,4.5,28.5,12.0,20.5,19.5,12.5,27.0,5.0,34.0" stroke="black" stroke-width="2" fill="none" />
<path d="M3.5,33.5,11.5,32.5,19.5,31.5,27.5,31.0,36.0,31.0,44.5,31.0,52.0,31.0,60.0,31.0,68.5,31.0,76.5,30.5" stroke="black" stroke-width="2" fill="none" />
<path d="M28.0,3.5,20.5,11.0,12.5,18.5,4.5,26.0" stroke="black" stroke-width="2" fill="none" />
<path d="M4.5,24.5,12.5,24.0,21.0,24.0,29.5,23.5,37.5,23.5,45.5,23.0,53.0,22.5,61.0,22.0,68.5,21.5,76.5,21.0,84.5,20.5" stroke="black" stroke-width="2" fill="none" />
<path d="M19.5,4.0,11.5,11.5,3.0,19.0" stroke="black" stroke-width="2" fill="none" />
<path d="M4.0,17.5,12.0,16.5,20.5,16.0,28.5,15.0,37.0,14.5,45.0,14.0,53.0,13.5,61.0,14.0,69.0,13.5,77.5,13.0,85.5,12.0,93.0,12.0,100.5,11.5" stroke="black" stroke-width="2" fill="none" />
<path d="M12.0,5.0,3.5,13.0" stroke="black" stroke-width="2" fill="none" />
<path d="M4.0,14.5,12.0,14.5,21.0,14.5,29.0,14.0,36.5,13.5,45.0,13.0,52.5,12.5,60.5,12.0,68.5,11.5,76.5,11.0,84.0,10.5,92.0,9.0,99.5,8.5,107.0,7.5,115.0,6.0,122.5,5.5,131.0,5.0,139.0,4.5,147.0,4.0,154.5,3.0,162.5,3.0,170.5,2.5,178.5,2.0,187.0,2.0,195.5,2.5,204.0,2.0,212.0,1.5,220.5,1.0,228.5,1.0,236.5,1.0,245.0,0.5,253.0,0.0,260.5,-0.5,268.0,-1.5,275.5,-2.5,284.0,-3.0,292.0,-4.0,300.0,-4.5,308.0,-5.5,316.5,-6.0,324.5,-7.0,332.0,-7.0,340.0,-7.5,347.5,-7.5,355.5,-7.5,363.5,-8.0,371.0,-8.0,379.5,-8.0,388.0,-8.5,396.0,-9.5,404.0,-10.0,412.0,-10.5,420.0,-10.5,428.0,-11.5,436.0,-12.0,444.5,-13.0,452.5,-13.5,460.5,-14.0,468.0,-15.0,476.0,-15.5,484.0,-16.0,492.5,-16.0,500.0,-16.5,508.0,-17.0,516.0,-17.0" stroke="black" stroke-width="2" fill="none" />
<path d="M514.0,-10.0,506.0,-9.0,497.5,-8.0,489.5,-7.0,482.0,-6.0,473.5,-6.0,465.0,-6.0,457.0,-5.5,449.5,-5.0,441.5,-4.5,434.0,-4.0,426.5,-4.0,419.0,-4.0,411.5,-3.5,403.5,-3.0,395.0,-2.0,387.0,-1.5,379.5,-1.5,372.5,-1.5,365.0,-1.5,357.0,-1.0,349.0,-1.0,340.5,-0.5,332.5,0.0,324.5,1.0,316.0,1.0,308.0,1.5,300.0,2.5,292.5,3.5,284.0,4.0,276.0,5.0,268.5,5.0,260.5,5.0,252.0,5.5,244.0,5.5,236.5,6.0,229.0,6.5,221.0,7.5,212.5,8.0,203.5,9.0,195.5,10.0,187.0,10.5,178.5,11.5,170.5,12.5,162.5,13.0,154.5,14.0,146.5,14.5,139.0,15.0,131.5,15.5,124.5,16.0,117.0,16.0,109.0,16.0,101.0,16.0,93.0,17.0,85.0,17.5,77.0,18.0,69.5,18.0,61.5,18.5,54.0,19.0,46.5,19.0,38.0,19.5,29.5,19.5,21.5,19.0,13.5,19.0,5.5,19.5" stroke="black" stroke-width="2" fill="none" />
<path d="M5.0,28.0,13.0,27.5,20.0,27.0,28.0,26.5,36.0,26.5,43.5,26.0,51.5,26.0,59.5,26.0,68.0,26.0,76.0,25.5,84.0,24.5,92.5,24.5,100.5,24.5,108.0,24.5,116.0,23.5,124.0,23.0,131.5,23.0,139.0,22.5,147.0,22.0,155.0,21.5,162.5,21.0,170.5,20.5,179.0,19.5,187.5,19.0,195.0,18.0,203.0,17.5,211.5,16.5,220.0,15.5,228.5,15.0,237.0,14.5,245.5,14.0,253.0,13.5,261.0,12.5,268.5,11.5,276.5,10.5,284.5,9.5,292.0,9.0,300.0,8.5,308.0,8.0,316.0,7.5,324.0,7.0,332.0,7.0" stroke="black" stroke-width="2" fill="none" />
<path d="M324.0,25.0,316.5,25.5,308.5,26.0,300.5,27.0,292.0,28.0,283.5,28.5,275.5,29.0,267.5,30.0,259.0,31.0,251.0,31.5,243.0,32.5,235.5,32.5,227.5,32.5,220.0,32.5,212.0,32.5,204.5,32.0,196.5,32.5,188.5,33.5,180.5,34.0,172.5,35.0,164.0,35.0,156.0,35.5,148.0,36.0,140.0,36.5,132.0,37.5,124.0,38.0,116.0,39.0,108.0,39.5,100.0,40.5,92.0,41.0,84.0,42.0,76.0,42.5,68.0,43.0,60.0,43.5,52.5,44.0,44.0,44.5,35.5,44.5,27.5,44.5,19.0,44.5,10.5,44.5,2.5,45.0" stroke="black" stroke-width="2" fill="none" />
<path d="M2.0,39.0,10.0,38.5,18.5,38.0,27.0,37.5,35.0,36.5,43.0,36.5,51.5,36.0,60.5,36.0,69.0,35.5,77.5,35.0,85.5,34.5,93.5,33.5,101.5,33.0,109.5,32.0,117.0,31.0,124.5,30.5,132.5,29.0,140.0,28.5,148.0,27.5,155.5,26.5,164.0,26.0,172.0,26.0,180.0,25.5,188.0,25.5,197.0,25.5,205.5,25.5,213.5,25.5,221.0,25.0,229.0,25.0,237.0,24.5,245.0,24.0,253.0,23.5,260.5,23.0,267.5,22.5,275.0,22.0,282.5,21.0,290.5,21.0,298.5,20.5,306.5,20.0,314.5,19.5,322.0,18.5,330.0,18.0" stroke="black" stroke-width="2" fill="none" />
<path d="M352.5,66.0,344.5,74.0,337.0,82.0,328.0,90.5,329.0,89.5,337.0,82.5,344.5,74.0,352.5,66.5" stroke="black" stroke-width="2" fill="none" />
<path d="M317.5,70.5,326.0,61.5,334.5,51.5,337.5,48.0,330.5,56.0,325.0,63.5,317.0,74.5,325.0,66.5,333.0,57.5,340.0,48.5,334.5,56.5,327.0,64.5,319.0,73.0,309.0,82.5,301.5,90.5,293.0,99.0,285.0,107.0,277.0,115.5,270.0,124.0,262.0,132.0,255.0,140.0,247.0,148.0,251.5,142.0,259.5,134.0,267.5,125.5,275.0,117.0,283.0,108.0,291.0,99.5,293.0,97.5,301.0,89.5,309.0,82.0" stroke="black" stroke-width="2" fill="none" />
<path d="M250.0,118.0,242.0,118.5,234.0,119.0,225.5,119.5,217.5,120.0,209.5,120.0,201.5,120.0,193.5,120.0,185.5,120.5,177.5,121.0,169.5,121.5,161.5,122.0,154.0,122.5,146.5,122.5,138.5,122.5,130.0,122.5,121.5,123.0,114.0,123.5,106.5,124.0,98.5,125.0,90.5,125.5,82.5,126.5,74.5,126.5,66.0,127.0,58.0,127.5,49.5,128.0,42.0,129.0,33.5,129.5,25.0,131.5,17.0,132.5,9.0,134.0,1.0,134.5" stroke="black" stroke-width="2" fill="none" />
<path d="M1.5,128.5,9.5,127.5" stroke="black" stroke-width="2" fill="none" />
<path d="M2.0,125.0,10.0,124.0,18.5,123.0,27.0,123.0,35.5,123.5,44.0,123.0,52.0,122.0,60.0,121.0,68.0,120.0,75.5,120.0,83.0,119.0,91.0,119.0,99.0,118.5,107.0,118.5,115.5,118.5,124.0,118.0,131.5,118.0,139.0,117.5,146.5,117.0,154.5,116.5,162.5,116.0,171.0,115.5,179.5,114.5,187.5,114.0,196.0,113.5,204.5,112.5,213.0,111.5,221.5,110.5,229.5,110.0,237.0,110.0,245.0,109.5,252.5,109.0" stroke="black" stroke-width="2" fill="none" />
<path d="M260.0,100.5,252.0,101.0,244.0,101.5,236.5,102.5,228.0,103.5,219.5,104.5,211.5,105.5,203.5,106.0,195.5,107.0,187.5,108.0,179.5,108.5,172.5,109.5,165.0,110.0,156.5,110.5,148.0,111.0,139.5,111.0,131.5,111.0,123.0,111.0,115.5,111.5,107.5,111.5,100.0,112.0,92.0,112.5,84.5,112.5,76.0,113.5,68.0,114.0,59.5,114.5,51.0,115.0,43.0,115.0,34.5,115.5,26.5,116.5,19.0,117.5,11.5,118.0,4.0,118.0" stroke="black" stroke-width="2" fill="none" />
<path d="M5.0,58.0,13.0,57.5,20.5,56.5,28.0,56.0,35.0,55.0,43.0,54.5,51.5,54.0" stroke="black" stroke-width="2" fill="none" />
<path d="M5.5,10.0,14.0,9.5,22.0,8.5,29.5,8.0,37.5,7.5,45.0,7.0,52.0,6.0,59.0,5.5,66.5,5.0,74.5,4.0,82.5,3.5,90.5,3.5,99.0,3.0,107.5,2.5,115.5,2.0" stroke="black" stroke-width="2" fill="none" />
<path d="M5.0,4.5,13.0,4.0,21.0,4.0,28.5,3.5,36.5,3.5,44.5,3.0,51.5,2.0,58.0,2.0,65.5,2.0,73.0,2.0,81.0,1.5,89.0,1.0,97.0,-0.5,105.0,-1.5,113.5,-3.5,122.0,-4.0,129.5,-5.0,138.0,-5.5,146.0,-6.0,154.5,-6.5,162.5,-6.5,170.5,-7.5,178.5,-8.0,186.5,-9.0,194.0,-9.5,201.5,-10.0,210.0,-10.5,218.5,-10.5,226.5,-10.5,234.0,-10.5,241.5,-11.0,249.5,-11.5,257.5,-12.0,265.5,-12.5,273.5,-13.0,281.5,-13.0,289.5,-13.0,297.5,-13.0,305.5,-13.5,314.0,-14.0,322.0,-14.5,330.0,-15.0,337.5,-16.0,345.5,-16.0,353.5,-16.5,361.5,-16.5,369.5,-17.5,378.0,-18.5,386.5,-20.0,395.0,-20.5,403.0,-21.5,411.5,-22.0,420.0,-22.0,428.0,-22.0,436.0,-22.0,444.0,-22.5,452.0,-23.5,460.5,-24.0,468.5,-25.0,476.5,-26.0,484.5,-26.5,492.0,-27.0,499.5,-27.5,507.0,-28.5,514.5,-29.0" stroke="black" stroke-width="2" fill="none" />
<path d="M257.0,180.5,265.0,180.5,273.0,179.0,281.0,179.0,288.5,179.0,296.5,179.0,304.5,179.0,312.5,179.0,320.5,179.5,328.5,179.5,336.5,179.5,344.5,178.5,352.5,178.0,360.0,179.0,368.0,178.0,376.0,178.5,384.0,178.0,392.5,179.0,391.5,184.5,392.0,192.5,393.0,200.5,392.0,208.5,392.0,216.5,392.0,224.5,392.0,233.0,391.5,241.0,391.5,249.0,392.0,257.0,391.0,265.0,390.5,273.5,389.5,281.5,389.5,289.5,389.0,297.0" stroke="black" stroke-width="2" fill="none" />
<path d="M392.0,304.5,392.0,296.0,393.0,288.0,393.0,280.0,393.0,272.0,394.0,264.0,395.0,256.0,395.0,248.0,394.0,240.0,394.5,232.0,395.5,224.0,394.0,216.5,395.0,208.5,395.5,200.5,395.5,192.5,396.0,184.0,388.0,181.0,380.0,181.5,372.0,181.0,364.0,181.0,356.0,181.5,348.0,181.5,339.5,181.5,331.5,181.5,323.5,181.5,315.0,181.5,306.5,181.5,298.5,182.5,290.5,182.5,282.5,182.5,274.5,182.0,267.0,182.0,259.0,183.0" stroke="black" stroke-width="2" fill="none" />
<path d="M258.0,182.5,258.0,190.0,258.0,198.5,258.5,206.5,258.5,214.5,258.5,222.5,258.5,230.5,258.5,238.5,258.5,247.0,258.5,255.0,258.5,263.0,258.5,271.0,259.0,278.5,261.5,281.5,269.5,274.5,277.0,267.5" stroke="black" stroke-width="2" fill="none" />
<path d="M259.5,308.5,255.0,300.0,254.5,292.0,257.5,284.0,257.0,276.5,256.0,268.5,256.0,260.5,256.5,252.5,256.5,244.0,256.5,235.5,256.0,227.5,255.5,220.0,255.5,212.0,255.5,204.0,255.5,196.0,256.0,188.0,256.0,180.0" stroke="black" stroke-width="2" fill="none" />
</svg>