<svg xmlns="http://www.w3.org/2000/svg" version="1.1"><polyline points="335.5,27.0,328.5,35.5,322.5,43.5,316.5,52.0,309.5,60.0,303.5,68.0,296.0,76.0,290.0,84.5,283.0,92.5,277.0,100.5,271.0,108.5,265.0,116.5,258.0,124.0,252.0,132.0,246.0,140.0,240.0,147.5,233.5,155.5,232.5,164.0,230.5,172.0,230.5,180.0,230.0,188.5,230.0,196.0,230.0,204.0,230.0,212.0,230.5,220.5,231.5,228.5,232.0,236.5,223.0,244.0" stroke="black" stroke-width="2" fill="none" />
<polyline points="222.0,234.5,230.0,227.0,238.0,219.0" stroke="black" stroke-width="2" fill="none" />
<polyline points="237.0,227.0,229.5,234.5" stroke="black" stroke-width="2" fill="none" />
<polyline points="229.0,234.5,237.0,234.0" stroke="black" stroke-width="2" fill="none" />
<polyline points="239.5,237.5,239.5,245.5,239.5,253.0,241.0,261.0,241.0,269.0,241.0,276.5,240.5,284.5,240.5,292.5,241.0,300.5,240.5,308.0,240.5,316.0,247.0,317.0,249.5,320.5,257.5,320.5,266.0,321.0,274.0,321.0,282.0,320.5,289.5,321.0,297.5,321.0,305.5,320.5,313.0,320.5,321.5,322.0,329.5,319.0" stroke="black" stroke-width="2" fill="none" />
<polyline points="327.5,320.5,335.5,319.5,343.5,319.5,352.0,317.0,360.5,317.0,368.5,317.5" stroke="black" stroke-width="2" fill="none" />
<polyline points="378.0,302.0,386.5,301.5,395.0,300.5" stroke="black" stroke-width="2" fill="none" />
<polyline points="408.0,299.0,416.0,297.0,424.0,294.5" stroke="black" stroke-width="2" fill="none" />
<polyline points="411.0,294.0,419.0,293.5,427.0,293.0,435.0,292.5,442.5,291.5,450.5,291.5,458.0,291.0,466.0,291.0,474.0,290.5,482.5,289.5,490.5,289.0,498.0,288.5,505.5,288.0,514.0,287.5" stroke="black" stroke-width="2" fill="none" />
<polyline points="514.0,285.0,506.0,291.5,498.0,299.0,490.5,306.5,483.5,314.0,476.0,321.5,468.0,328.5,459.5,336.0" stroke="black" stroke-width="2" fill="none" />
<polyline points="468.0,337.0,476.0,329.0,484.0,322.0,492.0,315.0,500.5,307.5,508.5,299.5,516.0,292.0" stroke="black" stroke-width="2" fill="none" />
<polyline points="516.0,299.5,508.5,307.0,501.0,314.0,493.0,321.0,485.0,328.0,476.5,335.5" stroke="black" stroke-width="2" fill="none" />
<polyline points="474.5,338.0,482.0,337.5,489.5,337.0,498.0,336.5,506.5,336.5,515.0,336.0" stroke="black" stroke-width="2" fill="none" />
<polyline points="515.0,334.0,507.0,341.5" stroke="black" stroke-width="2" fill="none" />
<polyline points="498.5,339.5,506.5,332.5,514.0,325.0" stroke="black" stroke-width="2" fill="none" />
<polyline points="515.5,317.0,507.0,324.0,498.5,331.5,490.5,339.0" stroke="black" stroke-width="2" fill="none" />
<polyline points="483.5,338.0,492.0,330.5,499.5,323.5,508.0,316.5,516.0,308.5" stroke="black" stroke-width="2" fill="none" />
<polyline points="517.5,313.0,509.5,313.5,501.5,314.0" stroke="black" stroke-width="2" fill="none" />
<polyline points="492.0,321.0,500.0,321.0,508.0,320.5,516.0,320.0" stroke="black" stroke-width="2" fill="none" />
<polyline points="516.5,326.5,508.5,327.0,500.5,327.5,493.0,328.0,485.5,328.5" stroke="black" stroke-width="2" fill="none" />
<polyline points="451.0,335.0,459.5,327.5,467.5,320.0,475.5,313.0,483.5,305.0,491.0,297.0,499.0,289.5,507.0,282.0,515.0,275.0" stroke="black" stroke-width="2" fill="none" />
<polyline points="515.5,265.5,507.0,273.0,499.0,280.5,491.5,288.0,483.5,295.5,476.0,303.5,468.0,311.0,460.5,318.5,452.5,326.0,444.5,333.5" stroke="black" stroke-width="2" fill="none" />
<polyline points="436.5,334.0,444.5,326.0,452.5,318.5,460.5,311.0,468.5,303.0,476.5,295.5,484.5,288.0,492.5,280.5,500.0,273.0,508.0,265.5,516.0,258.0" stroke="black" stroke-width="2" fill="none" />
<polyline points="517.5,249.0,509.5,257.0,501.5,264.5,493.0,272.0,484.5,279.5,476.0,287.5,468.0,295.5,460.5,303.5,452.0,311.0,444.0,318.5,436.0,326.0,427.5,333.5" stroke="black" stroke-width="2" fill="none" />
<polyline points="427.0,330.0,419.0,338.0" stroke="black" stroke-width="2" fill="none" />
<polyline points="411.5,310.5,419.5,310.0,427.5,309.5,435.5,309.0,443.5,309.0,451.0,308.5,459.5,308.0,467.5,307.5,476.0,307.0,483.5,306.5,491.5,305.5,499.5,305.0,507.5,305.0,515.5,304.0" stroke="black" stroke-width="2" fill="none" />
<polyline points="484.5,272.5,493.0,264.5,501.5,257.0,509.0,249.5,516.5,242.0" stroke="black" stroke-width="2" fill="none" />
<polyline points="515.0,234.5,507.5,242.0,499.5,249.0" stroke="black" stroke-width="2" fill="none" />
<polyline points="515.5,211.5,508.0,212.0,500.5,212.5,493.0,213.5,485.0,214.0,477.0,214.0,469.5,214.5" stroke="black" stroke-width="2" fill="none" />
<polyline points="468.5,205.0,476.5,205.0,484.5,204.5,492.0,204.5,499.5,204.0,507.0,203.5,515.0,203.0" stroke="black" stroke-width="2" fill="none" />
<polyline points="514.0,154.5,506.0,154.5,498.5,154.5,490.5,154.5,482.5,155.5,474.0,156.0" stroke="black" stroke-width="2" fill="none" />
<polyline points="475.0,149.5,483.5,149.0,492.0,148.0,500.0,147.5,508.0,147.5,516.5,147.0" stroke="black" stroke-width="2" fill="none" />
<polyline points="506.0,137.5,514.0,130.0" stroke="black" stroke-width="2" fill="none" />
<polyline points="508.0,131.5,516.0,123.5" stroke="black" stroke-width="2" fill="none" />
<polyline points="515.0,116.5,507.0,124.0,499.0,131.0" stroke="black" stroke-width="2" fill="none" />
<polyline points="500.0,123.5,508.0,115.5,516.0,108.0" stroke="black" stroke-width="2" fill="none" />
<polyline points="515.0,100.0,507.0,107.5,498.5,115.0,490.5,122.5" stroke="black" stroke-width="2" fill="none" />
<polyline points="491.5,115.5,499.0,108.0,506.5,101.0,514.5,93.5" stroke="black" stroke-width="2" fill="none" />
<polyline points="515.5,85.0,507.5,92.5,499.5,100.0,491.5,107.5" stroke="black" stroke-width="2" fill="none" />
<polyline points="483.5,107.0,491.5,100.0,500.0,92.5,508.5,85.0,516.5,77.0" stroke="black" stroke-width="2" fill="none" />
<polyline points="516.0,68.5,508.0,76.0,500.0,83.0,492.5,90.5,484.5,97.5" stroke="black" stroke-width="2" fill="none" />
<polyline points="476.0,97.0,484.0,88.5,492.0,80.5,500.0,73.0,507.5,65.5,516.0,58.5" stroke="black" stroke-width="2" fill="none" />
<polyline points="516.5,51.0,508.5,58.5,500.5,66.0,492.5,74.0,484.0,81.5,476.0,89.0" stroke="black" stroke-width="2" fill="none" />
<polyline points="475.5,81.5,483.5,73.5,491.5,65.5,499.5,57.5,508.0,50.0,516.0,42.5" stroke="black" stroke-width="2" fill="none" />
<polyline points="517.5,35.0,509.5,42.0,501.5,50.0,493.0,57.5,484.5,65.5,476.0,73.0,467.5,80.5" stroke="black" stroke-width="2" fill="none" />
<polyline points="469.0,70.5,477.0,62.5,485.0,55.0,492.5,48.0,500.5,41.0,508.0,34.0,515.5,27.0" stroke="black" stroke-width="2" fill="none" />
<polyline points="516.5,19.0,508.5,26.5,501.5,34.0,493.5,42.0,485.5,49.5,477.0,57.0,469.5,64.5,461.5,71.5" stroke="black" stroke-width="2" fill="none" />
<polyline points="460.0,65.5,468.5,58.5,476.5,51.5,484.5,44.0,492.5,36.5,500.5,29.0,509.0,21.5,517.5,14.0" stroke="black" stroke-width="2" fill="none" />
<polyline points="517.0,6.5,508.5,13.5,500.5,20.5,492.0,28.0,483.5,35.0,475.5,42.0,467.0,49.0,459.0,56.5" stroke="black" stroke-width="2" fill="none" />
<polyline points="452.0,57.5,460.5,50.0,469.0,42.0,477.0,34.5,485.0,27.5,493.0,20.0,501.0,12.5,509.0,4.5" stroke="black" stroke-width="2" fill="none" />
<polyline points="500.0,3.5,491.5,11.5,483.5,19.5,475.5,27.5,467.5,35.5,459.5,43.0,451.0,50.5" stroke="black" stroke-width="2" fill="none" />
<polyline points="444.0,50.0,451.5,42.5,459.5,35.0,467.5,27.0,475.0,19.5,482.5,12.0,490.5,4.5" stroke="black" stroke-width="2" fill="none" />
<polyline points="484.0,4.0,476.0,11.0,467.5,18.5,459.5,25.5,451.0,33.5,443.0,41.5" stroke="black" stroke-width="2" fill="none" />
<polyline points="435.0,41.5,443.5,34.0,452.0,26.5,460.0,18.5,468.5,10.5,477.0,3.0" stroke="black" stroke-width="2" fill="none" />
<polyline points="468.5,2.0,460.5,9.5,451.5,17.0,443.0,25.0,435.0,32.5,427.5,41.0" stroke="black" stroke-width="2" fill="none" />
<polyline points="427.5,32.5,435.0,25.0,442.5,17.0,450.0,9.5,457.5,2.0" stroke="black" stroke-width="2" fill="none" />
<polyline points="450.5,3.0,442.5,11.0,435.0,19.5,427.0,27.5,419.0,35.0" stroke="black" stroke-width="2" fill="none" />
<polyline points="411.5,35.0,420.0,27.5,429.0,20.5,437.0,13.5,445.0,6.0" stroke="black" stroke-width="2" fill="none" />
<polyline points="437.5,2.5,429.0,10.0,420.5,18.0,412.0,25.5" stroke="black" stroke-width="2" fill="none" />
<polyline points="404.0,26.0,411.5,18.5,419.0,10.5,427.0,3.0" stroke="black" stroke-width="2" fill="none" />
<polyline points="417.0,4.5,409.0,12.5,402.0,20.0" stroke="black" stroke-width="2" fill="none" />
<polyline points="396.0,19.0,404.0,11.5,411.5,4.0" stroke="black" stroke-width="2" fill="none" />
<polyline points="405.5,3.0,397.5,10.5,389.0,18.5" stroke="black" stroke-width="2" fill="none" />
<polyline points="389.0,11.5,397.5,4.0" stroke="black" stroke-width="2" fill="none" />
<polyline points="388.0,2.5,380.0,10.0" stroke="black" stroke-width="2" fill="none" />
<polyline points="380.0,4.0,372.5,11.0" stroke="black" stroke-width="2" fill="none" />
<polyline points="372.0,5.5,363.5,12.5" stroke="black" stroke-width="2" fill="none" />
<polyline points="349.5,28.0,357.0,27.0,365.0,27.0,373.0,27.0,381.5,26.5,389.5,26.5,397.5,26.0,405.0,26.0,413.0,26.0,420.5,26.0,428.5,26.0,436.5,25.5,444.0,24.5,451.5,24.0,458.5,23.5,466.0,23.0,474.0,22.5,482.5,22.0,491.0,22.0,499.0,21.5,507.0,21.0,515.0,20.5" stroke="black" stroke-width="2" fill="none" />
<polyline points="516.5,56.0,509.0,57.0,501.0,57.0" stroke="black" stroke-width="2" fill="none" />
<polyline points="492.5,49.0,500.0,48.5,507.5,47.5,515.5,47.0" stroke="black" stroke-width="2" fill="none" />
<polyline points="516.0,40.0,507.5,41.0,499.5,42.0,491.5,42.0,483.5,42.5" stroke="black" stroke-width="2" fill="none" />
<polyline points="482.0,36.0,490.5,35.0,498.5,34.5,507.0,33.5,515.5,32.0" stroke="black" stroke-width="2" fill="none" />
<polyline points="514.5,23.0,507.0,23.5,499.0,24.0,491.5,24.5,483.5,25.5,475.5,26.0" stroke="black" stroke-width="2" fill="none" />
<polyline points="468.0,16.0,476.0,15.5,483.5,15.5,492.0,16.0,500.0,16.0,508.5,15.5,516.5,15.5" stroke="black" stroke-width="2" fill="none" />
<polyline points="515.5,6.5,507.5,7.0,499.5,7.5,491.5,8.0,483.0,9.0,475.0,9.5,467.0,10.0" stroke="black" stroke-width="2" fill="none" />
<polyline points="516.5,78.5,509.0,79.0,501.5,79.5,493.5,80.0,485.0,80.5,477.0,81.0,469.0,81.5,460.5,82.5,452.5,83.0,444.5,83.5,436.5,84.0,428.5,85.0,421.0,86.0" stroke="black" stroke-width="2" fill="none" />
<polyline points="428.5,94.5,436.5,94.0,444.5,93.5,452.5,93.0,460.5,92.5,469.0,92.0,476.5,91.5,484.5,90.5,492.5,89.5,500.0,88.5,508.5,88.0,516.0,87.5" stroke="black" stroke-width="2" fill="none" />
<polyline points="514.5,140.0,507.0,140.5,499.0,141.0,491.0,141.0,483.5,141.0,476.0,140.5,468.5,140.5" stroke="black" stroke-width="2" fill="none" />
<polyline points="458.0,136.0,466.0,135.5,474.5,134.0,482.5,133.0,490.0,133.0,498.0,132.5,506.0,131.5,514.0,130.5" stroke="black" stroke-width="2" fill="none" />
<polyline points="515.0,172.5,508.0,173.5,500.5,173.5,492.5,174.0,484.5,175.0,477.5,174.5,469.5,175.0" stroke="black" stroke-width="2" fill="none" />
<polyline points="468.0,182.0,475.5,181.5,483.0,181.0,491.0,181.0,499.0,180.5,506.5,181.0,515.0,180.5" stroke="black" stroke-width="2" fill="none" />
<polyline points="514.0,163.5,506.0,164.0,498.5,164.5,491.5,165.0,484.0,165.5,476.5,166.5,468.5,167.0" stroke="black" stroke-width="2" fill="none" />
<polyline points="468.5,160.0,460.5,169.0" stroke="black" stroke-width="2" fill="none" />
<polyline points="463.0,185.0,455.0,192.0,448.5,186.0,443.5,178.5,453.5,173.0,451.5,175.0,444.0,178.0" stroke="black" stroke-width="2" fill="none" />
<polyline points="444.5,181.0,454.5,196.0,462.5,212.0" stroke="black" stroke-width="2" fill="none" />
<polyline points="451.5,221.5,459.5,221.0,467.5,221.0,475.0,220.5,483.0,220.0,490.5,219.5,498.0,219.5,505.5,219.0,513.0,219.0" stroke="black" stroke-width="2" fill="none" />
<polyline points="515.5,232.5,508.0,233.0,500.0,234.0,491.5,234.5,483.5,235.5,475.0,236.0,467.0,236.5,458.5,237.0" stroke="black" stroke-width="2" fill="none" />
<polyline points="458.0,230.0,466.5,229.5,475.0,229.0,483.5,228.5,491.5,227.5,499.5,227.0,508.0,226.0,516.0,226.0" stroke="black" stroke-width="2" fill="none" />
<polyline points="517.0,193.5,508.5,194.0,500.0,195.0,492.0,194.5,483.5,194.5,475.5,194.5,467.0,194.5,459.0,195.0" stroke="black" stroke-width="2" fill="none" />
<polyline points="458.0,190.0,466.0,189.5,474.0,189.5,482.5,189.0,491.0,188.0,499.5,187.5,507.0,187.0,514.5,186.5" stroke="black" stroke-width="2" fill="none" />
<polyline points="516.0,123.5,508.0,124.0,499.5,124.5,491.5,125.0,483.5,125.0,475.5,125.0,467.5,125.5" stroke="black" stroke-width="2" fill="none" />
<polyline points="460.0,117.5,468.0,117.0,475.5,116.5,483.0,116.0,491.0,115.5,499.0,115.5,507.0,115.0,515.5,114.0" stroke="black" stroke-width="2" fill="none" />
<polyline points="514.5,106.5,506.5,107.0,498.5,107.5,491.0,107.0,483.5,107.0,475.5,107.0,467.5,107.0,459.0,107.0,450.5,107.0,442.5,107.5" stroke="black" stroke-width="2" fill="none" />
<polyline points="436.0,102.0,444.5,101.5,452.5,100.5,461.0,99.5,469.5,99.0,477.5,98.5,485.0,97.5,492.5,97.0,500.0,97.0,508.0,96.5,516.0,96.0" stroke="black" stroke-width="2" fill="none" />
<polyline points="514.0,69.5,506.5,69.5,498.5,69.5,490.5,70.5,482.0,71.0,474.5,71.5,467.0,71.5,459.0,72.5,450.0,74.0,442.0,74.5,434.0,75.0,426.0,75.0,418.0,75.5,410.0,76.0,402.0,76.5" stroke="black" stroke-width="2" fill="none" />
<polyline points="393.0,73.5,400.5,81.5,409.5,90.0,415.5,98.5,425.0,107.0,432.0,115.0,439.5,123.0,447.5,131.0,455.5,139.0" stroke="black" stroke-width="2" fill="none" />
<polyline points="417.5,131.5,411.5,121.5" stroke="black" stroke-width="2" fill="none" />
<polyline points="411.0,121.0,415.0,129.0,420.0,137.0,417.0,149.0" stroke="black" stroke-width="2" fill="none" />
<polyline points="425.0,122.0,417.0,111.0,409.0,100.0" stroke="black" stroke-width="2" fill="none" />
<polyline points="403.0,94.5,405.0,96.5,411.0,104.0,417.5,112.0,421.5,120.0" stroke="black" stroke-width="2" fill="none" />
<polyline points="392.0,135.0,384.0,136.0,375.5,139.5,368.0,142.0,360.0,145.5,352.0,147.5" stroke="black" stroke-width="2" fill="none" />
<polyline points="347.5,146.0,355.5,145.0,363.5,142.0,371.5,140.0,379.0,137.0,387.0,134.5" stroke="black" stroke-width="2" fill="none" />
<polyline points="383.0,118.5,375.5,120.5,367.5,124.5,359.5,128.0,351.5,131.0,369.0,124.0,384.0,116.5" stroke="black" stroke-width="2" fill="none" />
<polyline points="382.0,115.5,364.0,123.5,350.0,131.0,354.5,127.0,362.5,124.0,370.0,120.0,378.0,116.0" stroke="black" stroke-width="2" fill="none" />
<polyline points="375.0,98.0,367.5,103.0,359.5,107.0,351.5,111.0,361.5,106.0,375.5,97.5" stroke="black" stroke-width="2" fill="none" />
<polyline points="376.5,94.0,362.5,101.5,348.0,109.0,336.0,114.0,344.5,111.0,352.5,108.0,360.5,103.0,368.5,99.0,376.5,94.0" stroke="black" stroke-width="2" fill="none" />
<polyline points="377.0,76.5,366.0,79.0,358.0,85.0,350.5,91.0,342.5,97.0,334.5,102.0,342.5,97.0,352.5,89.0,363.5,81.5,365.5,76.0,357.5,81.5,350.0,87.5,341.5,93.5,333.5,99.5,325.5,103.5,318.0,108.0,310.0,111.0" stroke="black" stroke-width="2" fill="none" />
<polyline points="308.5,111.0,316.5,102.0,323.5,96.0,314.5,104.0,309.0,112.0,316.5,121.0,300.5,132.0,287.0,140.0,286.0,148.0,293.5,144.0,296.0,143.5,286.0,141.5,294.0,136.5,301.5,132.5,309.5,128.0" stroke="black" stroke-width="2" fill="none" />
<polyline points="299.5,130.5,286.5,138.5,269.0,146.0,274.0,143.5,282.0,140.0,290.0,136.0,298.0,131.0" stroke="black" stroke-width="2" fill="none" />
<polyline points="294.0,120.5,283.0,129.0,293.0,125.0,301.0,120.0,309.0,116.0,317.5,111.0" stroke="black" stroke-width="2" fill="none" />
<polyline points="302.0,87.0,293.0,95.0,290.0,98.0,294.0,94.0,302.0,87.0" stroke="black" stroke-width="2" fill="none" />
<polyline points="283.0,76.0,274.5,77.0,266.5,78.5,258.5,79.5,250.5,80.0,242.5,81.0,234.5,81.5,226.0,81.0,218.0,81.0,210.0,81.0,202.0,81.0,194.5,81.0,186.5,81.0,179.0,81.5,171.0,81.5,162.5,81.5,155.0,82.0,147.0,82.5,138.5,83.0,129.5,83.5,121.0,84.5,113.0,85.5,105.0,86.0,97.0,87.0,89.0,88.0,80.5,89.0,72.5,89.0,65.0,89.0,57.5,89.5,50.0,90.5,42.0,91.0,34.0,91.5,26.5,91.5,19.0,92.0,11.0,92.5,3.0,93.5" stroke="black" stroke-width="2" fill="none" />
<polyline points="3.0,94.0,11.0,86.5,19.0,79.0,27.0,71.5,35.5,64.5,43.5,57.5,51.5,50.0,59.5,42.5,67.5,35.0,75.5,27.5,83.5,19.5,91.5,12.0,99.0,4.5" stroke="black" stroke-width="2" fill="none" />
<polyline points="91.0,4.5,83.0,12.0,75.5,19.5,68.0,27.0,60.0,34.5,51.5,42.0,43.5,49.0,35.5,55.5,26.5,62.5,17.5,69.5,9.5,77.0,1.0,84.0" stroke="black" stroke-width="2" fill="none" />
<polyline points="5.5,86.0,13.5,85.5,21.0,84.0,29.0,83.5,37.0,83.0,45.0,83.0,53.0,82.0,61.0,81.0,69.0,80.5,77.0,80.0,85.0,79.5,93.0,79.5,101.0,79.0,108.5,78.5,116.5,77.5,124.0,77.0,132.0,76.5,139.5,76.5,147.5,76.5,155.0,76.5,162.5,76.0,171.0,75.5,180.0,74.5,188.5,74.0,197.0,73.5,205.0,73.0,213.5,72.0,222.0,71.5,230.0,70.5,237.5,70.0,245.0,69.5,253.0,69.0,260.5,68.0,268.5,67.5,276.0,68.0,284.0,68.0,292.0,67.5" stroke="black" stroke-width="2" fill="none" />
<polyline points="275.0,84.0,267.0,84.5,259.0,84.5,251.5,84.5,243.5,85.0,235.5,85.5,227.0,86.5,219.5,87.0,211.5,88.0,203.5,88.5,196.0,89.0,188.5,90.0,181.0,91.0,173.5,91.5,166.0,92.0,157.5,92.5,149.5,93.5,141.0,94.0,132.5,94.0,124.0,93.5,116.0,94.0,108.5,94.5,101.0,94.5,93.5,95.0,85.5,95.5,77.0,96.0,69.0,97.0,60.5,98.0,52.0,99.0,43.5,100.0,35.0,100.5,27.0,101.5,18.5,102.0,10.0,102.0,1.5,103.0" stroke="black" stroke-width="2" fill="none" />
<polyline points="3.5,102.0,11.0,94.5,19.0,86.5,27.0,79.0,34.5,71.0,42.5,63.0,50.5,55.0,58.5,47.0,66.5,39.5,74.5,32.0,83.0,24.5,91.0,17.0,98.5,10.0,107.0,3.0" stroke="black" stroke-width="2" fill="none" />
<polyline points="115.0,3.0,107.0,11.0,99.0,18.5,91.0,26.0,82.5,33.5,74.5,41.0,66.0,49.0,58.5,57.0,50.5,64.5,43.5,71.5,35.5,79.0,27.0,86.0,19.5,94.0,11.5,101.5,4.0,109.5" stroke="black" stroke-width="2" fill="none" />
<polyline points="3.5,108.5,11.5,108.0,19.5,107.5,27.5,107.5,36.0,107.0,44.0,107.0,51.5,106.5,59.5,105.5,67.5,105.0,75.0,104.5,83.0,104.0,91.0,103.5,99.0,103.5,107.5,103.5,116.5,103.0,124.5,102.5,133.0,102.5,141.0,102.0,149.0,102.0,157.0,101.5,165.5,101.0,173.5,100.5,180.5,99.5,188.0,98.5,194.5,97.0,202.0,96.0,209.5,95.5,217.5,95.0,226.0,94.0,234.0,94.0,242.0,93.5,250.0,93.0,258.0,92.5,266.0,92.0" stroke="black" stroke-width="2" fill="none" />
<polyline points="236.5,124.5,228.0,132.0,220.0,140.0,212.0,147.5,204.0,154.5,195.5,162.0" stroke="black" stroke-width="2" fill="none" />
<polyline points="188.5,163.5,181.0,171.0,173.0,178.5,165.0,186.0" stroke="black" stroke-width="2" fill="none" />
<polyline points="165.5,187.0,173.5,186.5" stroke="black" stroke-width="2" fill="none" />
<polyline points="170.0,190.0,184.0,195.0,186.0,203.0,193.5,207.0,192.0,219.5,194.5,219.5,202.5,219.0" stroke="black" stroke-width="2" fill="none" />
<polyline points="203.5,223.0,211.5,222.5" stroke="black" stroke-width="2" fill="none" />
<polyline points="210.0,227.5,202.0,235.0" stroke="black" stroke-width="2" fill="none" />
<polyline points="195.5,233.5,203.5,226.0" stroke="black" stroke-width="2" fill="none" />
<polyline points="196.5,227.5,188.0,235.0" stroke="black" stroke-width="2" fill="none" />
<polyline points="187.5,226.5,179.5,234.5" stroke="black" stroke-width="2" fill="none" />
<polyline points="181.0,228.5,173.0,236.0" stroke="black" stroke-width="2" fill="none" />
<polyline points="180.0,228.0,188.5,225.0,197.0,225.0,197.0,228.0" stroke="black" stroke-width="2" fill="none" />
<polyline points="202.5,213.0,210.5,213.0,219.0,212.5,227.0,212.0,235.5,211.5" stroke="black" stroke-width="2" fill="none" />
<polyline points="236.5,211.0,228.5,218.0" stroke="black" stroke-width="2" fill="none" />
<polyline points="235.5,220.5,227.5,221.5,219.5,222.0" stroke="black" stroke-width="2" fill="none" />
<polyline points="225.5,208.5,233.0,201.0" stroke="black" stroke-width="2" fill="none" />
<polyline points="234.5,196.5,226.5,203.5" stroke="black" stroke-width="2" fill="none" />
<polyline points="228.5,197.0,236.0,190.0" stroke="black" stroke-width="2" fill="none" />
<polyline points="228.5,187.5,236.5,179.5" stroke="black" stroke-width="2" fill="none" />
<polyline points="236.5,173.5,228.5,180.5,221.0,188.0" stroke="black" stroke-width="2" fill="none" />
<polyline points="211.0,194.5,203.0,202.5" stroke="black" stroke-width="2" fill="none" />
<polyline points="197.0,203.0,204.5,195.5" stroke="black" stroke-width="2" fill="none" />
<polyline points="202.0,187.0,210.0,186.5,218.5,186.0,227.0,186.0,236.0,186.0,244.0,186.0" stroke="black" stroke-width="2" fill="none" />
<polyline points="243.0,178.5,235.0,179.0,227.5,179.0,220.0,179.0,212.5,179.5,204.5,180.0" stroke="black" stroke-width="2" fill="none" />
<polyline points="204.0,178.0,212.0,170.0" stroke="black" stroke-width="2" fill="none" />
<polyline points="210.0,163.0,202.5,170.5" stroke="black" stroke-width="2" fill="none" />
<polyline points="197.5,172.0,205.0,171.5,212.5,171.0,220.0,170.5,228.5,170.5,236.5,170.0,244.0,170.0" stroke="black" stroke-width="2" fill="none" />
<polyline points="239.5,168.0,238.5,176.0,238.5,184.0,238.5,192.0,238.5,200.0,239.0,208.0,239.0,215.5,240.0,224.0,240.0,232.0,237.5,240.0,243.5,248.5,251.5,248.5,265.5,248.0,273.5,249.0,281.5,249.0,289.5,249.0,298.0,249.0,306.0,249.0" stroke="black" stroke-width="2" fill="none" />
<polyline points="324.0,246.0,316.0,245.5,308.0,245.5,300.0,244.0,292.5,244.0,284.5,244.5,276.5,244.5,268.5,244.0,260.5,244.0" stroke="black" stroke-width="2" fill="none" />
<polyline points="244.5,254.0,236.5,254.5,227.5,255.0,219.5,256.0,211.0,256.0,203.0,257.0,194.5,258.0,186.5,259.5,178.5,260.5,170.5,261.0,162.5,262.0,154.5,262.5,146.0,262.0,138.0,262.0,130.0,262.0,122.0,262.0,114.5,262.0,106.5,262.0,99.0,262.5,91.0,262.5,82.5,262.5,75.0,263.0,67.0,263.5,58.5,264.0,49.5,264.5,41.0,265.5,33.0,266.5,25.0,267.0,17.0,268.0,9.0,269.0,0.5,270.0" stroke="black" stroke-width="2" fill="none" />
<polyline points="4.0,268.0,12.0,260.5,20.5,253.0,28.0,246.0,35.5,239.5,44.0,232.5,52.0,225.0,60.0,218.0,68.0,210.5,76.0,203.0,84.0,195.5,92.0,188.0" stroke="black" stroke-width="2" fill="none" />
<polyline points="82.5,186.0,74.5,193.0,66.0,201.0,58.0,209.0" stroke="black" stroke-width="2" fill="none" />
<polyline points="53.0,211.0,45.0,218.0,37.0,225.5,29.0,233.0,20.5,240.5,12.0,248.0,4.0,256.0" stroke="black" stroke-width="2" fill="none" />
<polyline points="4.5,257.0,12.5,256.5" stroke="black" stroke-width="2" fill="none" />
<polyline points="5.0,260.5,13.0,260.5,21.0,260.0,28.5,259.5,36.5,258.5,44.0,258.0,52.0,257.5,59.5,257.5,67.5,257.5,75.0,257.5,82.5,257.0,91.0,256.5,100.0,255.5,108.5,255.0,117.0,254.5,125.0,254.0,133.5,253.0,142.0,252.5,150.0,251.5,157.5,251.0,165.0,250.5,173.0,250.0,180.5,249.0,188.5,248.5,196.0,249.0,204.0,249.0,212.0,248.5,220.5,249.0,229.0,249.0,237.0,248.5,245.5,248.0" stroke="black" stroke-width="2" fill="none" />
<polyline points="266.5,269.5,274.5,269.0" stroke="black" stroke-width="2" fill="none" />
<polyline points="275.0,263.0,275.0,263.5,272.0,271.5,264.0,279.5" stroke="black" stroke-width="2" fill="none" />
<polyline points="258.5,279.5,266.5,279.0,274.0,278.0,282.0,278.0" stroke="black" stroke-width="2" fill="none" />
<polyline points="281.5,279.5,289.5,270.5,298.0,276.5,296.5,284.0" stroke="black" stroke-width="2" fill="none" />
<polyline points="290.0,284.0,282.5,291.5,274.5,298.0,267.0,305.5" stroke="black" stroke-width="2" fill="none" />
<polyline points="268.0,307.0,276.0,306.5" stroke="black" stroke-width="2" fill="none" />
<polyline points="282.0,306.0,290.0,306.0,298.0,303.0,306.0,300.0,313.5,299.0,321.5,299.0" stroke="black" stroke-width="2" fill="none" />
<polyline points="308.5,282.0,300.0,283.0,291.5,283.5,283.5,284.5,275.5,285.0,267.5,285.5,259.5,286.0,251.5,287.0" stroke="black" stroke-width="2" fill="none" />
<polyline points="256.5,290.5,264.5,290.0" stroke="black" stroke-width="2" fill="none" />
<polyline points="260.0,290.0,268.0,283.0,275.5,275.5" stroke="black" stroke-width="2" fill="none" />
<polyline points="275.0,284.5,267.5,292.0,260.0,299.5" stroke="black" stroke-width="2" fill="none" />
<polyline points="259.0,299.5,266.5,299.0,274.5,299.0,282.5,299.0,291.0,298.0" stroke="black" stroke-width="2" fill="none" />
<polyline points="283.0,297.5,291.5,289.5" stroke="black" stroke-width="2" fill="none" />
<polyline points="284.0,283.0,276.0,290.5,268.0,298.0,259.5,305.5" stroke="black" stroke-width="2" fill="none" />
<polyline points="255.5,301.5,263.5,308.0,271.0,309.5,279.5,303.5,287.5,298.0" stroke="black" stroke-width="2" fill="none" />
<polyline points="283.5,298.0,275.5,298.5" stroke="black" stroke-width="2" fill="none" />
<polyline points="276.5,290.5,284.5,290.0" stroke="black" stroke-width="2" fill="none" />
<polyline points="277.5,282.0,269.0,282.5" stroke="black" stroke-width="2" fill="none" />
<polyline points="265.5,297.0,257.0,297.5" stroke="black" stroke-width="2" fill="none" />
<polyline points="250.0,293.0,258.5,292.5,266.5,292.5,275.0,291.5,283.5,291.0,292.0,290.5" stroke="black" stroke-width="2" fill="none" />
<polyline points="299.5,277.5,308.0,277.0" stroke="black" stroke-width="2" fill="none" />
<polyline points="300.5,285.5,299.0,288.5,291.0,292.0,287.0,292.0,281.5,287.0,268.5,290.0,266.0,296.5,269.5,286.0,276.0,278.0,282.5,277.0,289.5,269.5,291.0,261.5" stroke="black" stroke-width="2" fill="none" />
<polyline points="277.5,263.5,276.5,271.5,277.0,282.0,288.0,288.0,289.0,295.5,279.5,303.5,281.5,306.5,289.5,307.0,297.5,307.0,305.5,307.0,313.5,307.0,321.5,308.5,329.5,308.5,338.0,308.0,346.0,308.0,354.0,307.0,362.0,307.0,369.5,307.0,377.0,306.0,385.0,306.0" stroke="black" stroke-width="2" fill="none" />
<polyline points="408.0,293.5,416.5,293.0,424.5,291.0" stroke="black" stroke-width="2" fill="none" />
<polyline points="436.5,283.5,444.5,282.5,452.5,282.5,460.5,282.5,468.5,283.0,476.0,283.5,484.5,283.0,492.0,282.5,499.5,282.0,507.0,281.5,514.5,280.5" stroke="black" stroke-width="2" fill="none" />
<polyline points="516.0,255.5,507.5,256.0,499.5,257.5,491.5,258.0,483.5,258.5,475.5,259.5,467.5,260.0,460.0,260.5,451.5,261.0" stroke="black" stroke-width="2" fill="none" />
<polyline points="445.0,261.5,432.0,269.5,436.5,270.5,444.5,266.5" stroke="black" stroke-width="2" fill="none" />
<polyline points="436.5,269.0,444.5,268.5,452.5,268.0,461.0,268.0,469.0,267.5,477.0,267.0,485.0,266.5,493.0,266.5,501.0,266.0,509.0,265.0,517.0,264.0" stroke="black" stroke-width="2" fill="none" />
<polyline points="516.0,250.5,508.5,251.5,500.5,251.5,493.0,252.5,485.0,253.0,477.0,253.0,469.0,253.0,461.0,253.0,453.0,253.0" stroke="black" stroke-width="2" fill="none" />
<polyline points="452.0,245.5,460.0,245.5,468.0,245.5,476.0,245.0,484.0,245.0,491.5,244.5,499.5,244.5,507.0,244.0,514.5,243.5" stroke="black" stroke-width="2" fill="none" />
<polyline points="517.5,273.0,509.5,273.5,501.5,274.0,493.5,273.5,486.0,273.0,478.0,273.0,469.5,273.5,460.5,274.0,452.5,274.5,444.0,274.5,435.5,275.0" stroke="black" stroke-width="2" fill="none" />
<polyline points="428.0,290.5,430.0,282.0,428.5,274.0,444.0,266.0,443.0,260.0,443.5,252.0,436.5,251.5,428.5,255.5,420.0,257.5,412.0,260.5" stroke="black" stroke-width="2" fill="none" />
<polyline points="412.0,260.0,412.0,268.0,413.0,276.0,410.0,284.0" stroke="black" stroke-width="2" fill="none" />
<polyline points="412.5,301.0,420.5,301.0,428.5,300.5,436.0,300.0,443.5,299.5,451.5,299.0,459.0,299.0,467.0,298.5,475.0,298.5,482.5,299.0,490.0,299.0,498.5,298.0,506.5,297.5,515.0,296.5" stroke="black" stroke-width="2" fill="none" />
<polyline points="515.5,304.0,508.5,304.5,501.0,305.0,493.0,305.5,485.0,305.5,477.0,306.5,468.5,306.5,460.5,306.5,452.0,306.5,444.0,306.5,435.5,306.5,427.0,307.0,419.0,307.5,411.0,308.5,403.0,309.0,395.0,309.5,387.5,310.0,379.5,310.5,372.0,311.0,364.5,311.5,356.5,312.0,348.5,313.0,340.5,313.5,332.5,314.5,324.0,315.0,316.0,315.5,308.0,316.0,299.5,316.0,291.0,316.0,282.5,316.0,274.0,316.5,266.0,317.5,258.0,318.5,249.5,319.5,241.5,320.5,234.0,321.0,226.5,321.5,219.0,322.0,211.5,322.5,203.5,322.5,196.0,323.0,188.0,323.0,180.0,323.5,172.0,323.5,164.0,323.5,156.0,324.5,148.5,325.5,141.0,326.0,133.5,327.0,125.5,327.5,117.5,328.5,109.5,328.5,101.0,329.0,93.0,329.0,85.0,329.5,77.0,330.5,69.0,330.5,61.0,330.5,53.0,330.5,44.5,330.5,37.0,330.0,29.0,330.0,20.5,330.5,12.0,330.5,4.0,331.0" stroke="black" stroke-width="2" fill="none" />
<polyline points="6.5,328.5,14.0,328.0,21.5,327.5,29.5,327.0,37.0,327.0,45.0,326.5,53.0,326.0,60.5,326.0" stroke="black" stroke-width="2" fill="none" />
<polyline points="108.0,338.0,116.0,330.0,123.5,322.5,131.0,314.5,139.0,307.0" stroke="black" stroke-width="2" fill="none" />
<polyline points="133.0,307.5,125.0,315.0,117.0,322.0,109.0,329.5,100.5,336.5" stroke="black" stroke-width="2" fill="none" />
<polyline points="139.5,337.0,147.0,330.0,155.0,322.5,163.5,315.0,171.0,308.0" stroke="black" stroke-width="2" fill="none" />
<polyline points="172.5,315.0,164.0,322.5,156.0,329.5,147.5,337.0" stroke="black" stroke-width="2" fill="none" />
<polyline points="172.0,337.5,180.5,330.0,188.5,322.0,196.0,314.5" stroke="black" stroke-width="2" fill="none" />
<polyline points="188.0,315.5,180.0,323.0,172.0,330.5,164.0,338.5" stroke="black" stroke-width="2" fill="none" />
<polyline points="186.5,337.5,194.0,330.0,201.5,322.5" stroke="black" stroke-width="2" fill="none" />
<polyline points="196.0,323.0,188.0,330.5,180.0,338.5" stroke="black" stroke-width="2" fill="none" />
<polyline points="195.0,338.0,202.5,330.0,210.5,322.5" stroke="black" stroke-width="2" fill="none" />
<polyline points="217.0,325.0,209.5,332.5,202.0,340.5" stroke="black" stroke-width="2" fill="none" />
<polyline points="229.5,338.5,237.5,331.5,245.0,324.5" stroke="black" stroke-width="2" fill="none" />
<polyline points="251.5,323.5,243.5,331.0,234.5,339.0" stroke="black" stroke-width="2" fill="none" />
<polyline points="244.0,339.0,252.0,331.5" stroke="black" stroke-width="2" fill="none" />
<polyline points="259.5,333.5,251.5,341.0" stroke="black" stroke-width="2" fill="none" />
<polyline points="269.0,339.0,277.0,331.5" stroke="black" stroke-width="2" fill="none" />
<polyline points="267.0,332.0,259.0,339.5" stroke="black" stroke-width="2" fill="none" />
<polyline points="238.0,323.5,229.5,331.0,221.0,339.0" stroke="black" stroke-width="2" fill="none" />
<polyline points="212.5,341.0,220.0,334.0,228.0,326.5" stroke="black" stroke-width="2" fill="none" />
<polyline points="181.0,317.5,173.0,325.5,165.0,333.0,156.5,340.5" stroke="black" stroke-width="2" fill="none" />
<polyline points="131.5,336.0,139.5,329.0,147.5,321.5,155.0,313.5,163.0,306.0" stroke="black" stroke-width="2" fill="none" />
<polyline points="155.5,308.0,147.0,315.0,139.5,323.0,131.5,330.5,124.0,338.5" stroke="black" stroke-width="2" fill="none" />
<polyline points="116.5,336.0,124.5,329.0,132.0,321.5,139.5,314.5,147.5,307.0" stroke="black" stroke-width="2" fill="none" />
<polyline points="131.0,300.0,123.0,307.5,115.0,315.0,107.5,322.5,100.0,329.5,92.0,337.0" stroke="black" stroke-width="2" fill="none" />
<polyline points="82.5,336.0,90.0,328.5,97.5,320.5,105.5,312.5,113.0,305.0,121.5,298.0" stroke="black" stroke-width="2" fill="none" />
<polyline points="116.0,298.5,108.0,306.0,100.0,314.0,92.0,321.5,84.0,329.5,76.0,337.5" stroke="black" stroke-width="2" fill="none" />
<polyline points="65.5,337.5,74.0,330.0,83.0,323.0,92.5,315.5,101.0,308.0,109.5,300.5,117.0,292.5" stroke="black" stroke-width="2" fill="none" />
<polyline points="108.5,289.5,100.0,297.5,92.0,305.0,84.0,312.5,76.0,321.0,67.5,328.5,60.0,336.5" stroke="black" stroke-width="2" fill="none" />
<polyline points="52.0,335.0,60.0,326.5,68.0,318.5,76.0,311.0,84.0,304.0,91.5,296.5,100.0,289.5,108.0,282.0" stroke="black" stroke-width="2" fill="none" />
<polyline points="100.5,282.5,92.5,290.0,84.5,298.0,76.5,305.5,68.5,313.0,60.0,320.5,52.0,329.0,43.5,337.0" stroke="black" stroke-width="2" fill="none" />
<polyline points="34.5,335.5,42.5,328.0,51.0,321.0,59.0,313.0,67.0,305.0,75.0,297.0,83.0,289.0,91.0,281.5,99.5,274.0" stroke="black" stroke-width="2" fill="none" />
<polyline points="92.0,277.0,84.5,284.5,76.5,291.5,68.5,299.0,60.5,306.0,52.5,313.5,44.0,321.0,35.5,328.5,27.5,336.0" stroke="black" stroke-width="2" fill="none" />
<polyline points="19.0,336.0,27.0,328.5,34.5,320.0,42.0,312.5,50.5,305.5,59.5,298.0,67.5,290.5,75.5,283.0,84.0,275.5" stroke="black" stroke-width="2" fill="none" />
<polyline points="84.0,265.5,76.0,273.5,68.0,281.5,59.5,289.0,51.5,296.5,43.5,304.5,35.5,312.5,27.5,320.5,19.5,328.5,11.5,336.0" stroke="black" stroke-width="2" fill="none" />
<polyline points="3.5,336.5,11.5,336.0,19.0,336.0,27.0,336.0,35.0,336.0,43.5,335.5,51.0,335.5,59.0,335.0,67.0,335.0" stroke="black" stroke-width="2" fill="none" />
<polyline points="5.0,325.5,13.0,325.0,20.5,324.5,28.0,324.0,35.5,324.0,43.0,323.5,50.5,322.5,59.0,321.5,67.5,320.5,75.0,320.5,83.0,320.0,91.0,319.5,99.5,319.0,107.5,318.0,115.0,317.5,122.5,317.0,130.5,316.0,138.5,315.0,146.0,314.0,154.0,314.0,162.5,313.5,170.5,313.0,179.0,313.0,187.5,313.0,195.5,313.0,203.5,313.0,211.0,313.0,218.5,313.5,226.5,313.0,234.5,312.5,242.5,312.5,250.5,311.5,258.5,310.5,266.5,310.0,274.5,310.0,282.5,309.5,291.0,308.5,299.5,308.0,307.5,307.0,315.5,306.5,323.0,306.0,331.0,305.0,339.0,304.5,347.5,303.5,356.0,302.5,364.0,302.0,372.5,300.5,380.5,299.5,388.5,299.0,396.5,299.0,405.0,298.5,412.5,298.0,420.5,297.5,428.5,297.5,436.5,297.5,445.0,297.5,452.5,297.5,461.0,296.5,469.0,296.0,477.0,295.5,484.5,295.0,492.5,294.5,500.5,294.5,508.0,294.0,515.5,294.0" stroke="black" stroke-width="2" fill="none" />
<polyline points="515.0,285.5,507.0,286.0,499.0,286.0,491.5,286.5,484.0,287.5,475.5,288.0,467.0,288.5,458.5,288.5,451.0,288.5,442.5,289.0,434.0,289.5,425.5,289.5,417.5,289.5,409.0,290.0,401.5,291.0,393.5,291.5,386.5,292.5,379.5,293.5,371.5,295.0,363.5,296.0,356.0,296.5,348.0,297.0,339.5,297.5,331.0,298.0,323.0,298.5,315.5,299.0,308.0,299.5,300.5,299.5,293.0,300.0,285.5,300.0,277.5,300.5,269.5,301.0,261.5,302.0,253.5,302.5,245.5,303.0,237.5,303.5,229.5,304.0,221.5,303.5,214.0,303.0,206.0,303.0,197.5,303.5,188.5,304.0,180.5,304.5,172.0,304.5,163.5,305.0,156.0,306.0,147.5,307.5,139.0,308.5,130.5,309.0,122.0,310.0,114.0,311.0,106.0,311.5,98.0,311.5,90.5,312.0,83.0,313.0,75.0,313.5,67.5,314.0,59.5,315.0,51.5,315.5,44.0,316.0,36.5,316.5,28.0,316.5,19.5,317.0,11.5,317.5,3.0,318.0" stroke="black" stroke-width="2" fill="none" />
<polyline points="4.0,317.0,12.5,310.0,20.0,303.0,27.5,296.0,34.5,289.0,42.5,282.0,50.5,274.5,58.5,267.0,66.0,259.0,74.5,251.0" stroke="black" stroke-width="2" fill="none" />
<polyline points="67.5,253.0,59.5,260.0,51.5,267.5,43.5,275.0,35.0,282.5,27.5,290.0,20.0,297.0,13.0,305.0,5.5,312.5" stroke="black" stroke-width="2" fill="none" />
<polyline points="2.0,311.5,10.0,310.5,18.0,310.0,26.0,309.5,34.5,309.5,43.0,309.5,51.5,308.5,59.5,307.5,68.0,307.0,76.0,306.5,83.5,306.0,91.5,305.5,100.0,304.5,108.5,304.0,117.0,304.0,125.5,303.0,133.5,302.5,141.0,302.0,149.0,301.0,156.5,300.5,164.0,300.0,172.5,299.5,180.5,298.5,189.0,297.5,197.5,297.0,205.5,296.5,213.0,295.5,220.5,295.0,228.0,295.0,236.0,294.5,244.0,294.0" stroke="black" stroke-width="2" fill="none" />
<polyline points="245.5,285.5,237.5,286.0,229.0,286.5,221.0,287.0,213.0,287.5,204.5,288.5,196.5,289.0,188.5,289.5,180.5,290.0,172.5,291.0,165.0,292.0,157.0,292.0,149.0,292.5,141.0,293.0,132.5,293.0,124.0,293.0,116.0,293.0,107.0,293.0,98.5,293.0,90.0,293.5,82.0,294.0,74.5,294.5,66.0,295.0,58.5,295.5,51.0,296.0,43.5,297.0,35.0,297.5,26.0,298.5,18.0,299.5,10.0,300.5,2.0,301.0" stroke="black" stroke-width="2" fill="none" />
<polyline points="3.5,301.5,12.0,294.5,20.0,287.0,27.5,280.0,35.0,273.0,43.0,266.0,50.5,259.0,58.5,252.0,66.5,245.0,74.5,237.5" stroke="black" stroke-width="2" fill="none" />
<polyline points="73.5,241.5,81.5,234.0" stroke="black" stroke-width="2" fill="none" />
<polyline points="74.0,230.0,66.0,237.5,58.0,244.5,50.5,251.5,42.5,258.5,34.5,265.5,27.0,272.0,19.0,279.0,11.5,285.5,4.0,293.0" stroke="black" stroke-width="2" fill="none" />
<polyline points="4.5,293.0,13.0,292.0,21.0,291.0,29.0,290.0,37.5,289.5,45.0,289.5,53.0,289.0,60.5,289.0,68.5,288.5,77.0,287.5,85.5,287.0,93.0,286.5,100.5,286.0,108.0,285.5,116.5,285.5,124.5,285.0,132.0,285.0,140.0,285.0,148.0,285.0,156.5,284.0,164.5,283.0,172.5,283.0,180.5,282.5,188.0,282.0,195.5,281.5,203.5,281.0,211.0,281.0,219.0,280.5,227.0,280.5,234.5,281.0,242.0,281.0" stroke="black" stroke-width="2" fill="none" />
<polyline points="242.0,269.0,234.5,269.5,227.0,269.5,219.0,270.5,210.0,272.0,202.0,272.5,194.0,273.0,186.0,273.0,178.0,273.5,170.0,274.0,162.0,274.5,154.0,275.0,146.0,275.0,137.5,276.0,129.5,276.5,122.0,277.0,114.5,278.0,108.0,279.5,100.5,280.5,93.5,281.5,85.5,282.0,77.0,282.5,69.0,283.0,61.0,283.0,53.0,283.5,44.5,283.5,36.5,284.0,27.5,284.5,19.0,284.5,11.0,284.5,3.0,285.0" stroke="black" stroke-width="2" fill="none" />
<polyline points="5.0,287.5,13.0,280.0,20.5,272.5,28.5,265.5,36.5,258.0,44.0,250.5,51.5,243.0,59.0,236.0,67.0,228.5" stroke="black" stroke-width="2" fill="none" />
<polyline points="71.5,230.5,79.5,231.0,87.5,231.5,96.0,230.5,104.0,230.5,112.0,231.0,120.0,230.5,128.0,230.5,135.5,230.0,143.5,230.0,151.5,229.5,159.5,229.0,168.0,229.0,175.5,229.0,183.5,230.5,192.5,231.0,201.0,231.0,210.0,229.5,217.0,234.0" stroke="black" stroke-width="2" fill="none" />
<polyline points="244.5,237.5,236.0,238.5,227.5,239.0,219.5,239.5,211.5,239.5,203.5,240.0,196.0,241.0,188.5,242.0,180.0,242.5,172.0,243.0,163.5,243.5,155.5,244.0,147.5,244.0,140.0,244.0,132.0,244.5,124.0,245.0,116.0,245.5,108.0,245.5,99.5,246.5,91.5,247.0,83.5,247.5,75.5,247.5,67.0,247.5,58.5,248.0,50.0,248.5,41.5,249.0,33.5,249.5,26.0,250.0,18.0,250.5,10.0,251.5,2.5,252.0" stroke="black" stroke-width="2" fill="none" />
<polyline points="2.5,249.0,10.5,248.5" stroke="black" stroke-width="2" fill="none" />
<polyline points="6.0,248.0,14.0,240.5,22.0,233.0,30.0,225.5,38.0,218.0,46.0,210.0,54.0,202.0" stroke="black" stroke-width="2" fill="none" />
<polyline points="59.5,201.5,67.5,194.0,76.0,186.0,84.0,178.5" stroke="black" stroke-width="2" fill="none" />
<polyline points="80.5,180.0,88.5,181.5,96.0,174.0,94.0,183.5,103.0,192.0,113.0,191.0,109.0,197.0,112.5,202.0,109.0,205.0,107.0,211.5,114.0,209.5" stroke="black" stroke-width="2" fill="none" />
<polyline points="116.5,201.5,124.0,193.0,132.0,185.5" stroke="black" stroke-width="2" fill="none" />
<polyline points="137.0,189.0,129.0,196.5,121.5,204.0" stroke="black" stroke-width="2" fill="none" />
<polyline points="129.5,202.5,137.5,194.5,145.5,186.5" stroke="black" stroke-width="2" fill="none" />
<polyline points="155.0,185.0,163.5,177.5,172.0,170.0,180.5,163.0,188.5,156.0" stroke="black" stroke-width="2" fill="none" />
<polyline points="180.0,155.5,171.5,162.5,163.0,170.0,155.0,178.0" stroke="black" stroke-width="2" fill="none" />
<polyline points="155.5,177.5,163.5,177.5,171.0,177.0" stroke="black" stroke-width="2" fill="none" />
<polyline points="176.5,174.5,175.5,172.5,179.0,174.5,179.0,183.0,184.0,192.5,191.5,196.5,200.0,196.0,208.0,191.5" stroke="black" stroke-width="2" fill="none" />
<polyline points="203.5,183.0,204.0,175.0,206.0,169.0,204.5,161.0,202.0,152.0,208.0,148.0,204.0,148.0,205.0,140.0,199.5,135.5,198.5,127.5,189.5,128.0" stroke="black" stroke-width="2" fill="none" />
<polyline points="189.5,124.5,197.0,123.5,190.0,130.5,190.0,138.5,191.0,146.0,189.0,155.5,191.5,163.5,195.0,167.0,197.5,175.0,198.5,183.0,205.0,186.0" stroke="black" stroke-width="2" fill="none" />
<polyline points="206.0,175.5,208.0,183.5,207.0,191.5,198.0,204.5,204.5,205.0,206.5,217.0" stroke="black" stroke-width="2" fill="none" />
<polyline points="209.5,225.0,209.0,223.0,206.5,228.5,213.5,224.5,203.5,228.0,206.5,220.0,210.0,215.5,207.0,207.5,211.5,202.5,209.0,194.5,210.0,186.0,211.0,179.0,211.0,172.5,210.0,165.0,206.0,157.0" stroke="black" stroke-width="2" fill="none" />
<polyline points="207.5,154.0,215.5,154.5,214.5,162.5,217.5,164.5" stroke="black" stroke-width="2" fill="none" />
<polyline points="220.5,162.5,228.5,155.0,236.5,147.5" stroke="black" stroke-width="2" fill="none" />
<polyline points="235.0,142.5,227.0,149.5,218.5,156.5" stroke="black" stroke-width="2" fill="none" />
<polyline points="219.0,153.0,227.0,152.5" stroke="black" stroke-width="2" fill="none" />
<polyline points="226.0,144.5,218.5,145.0,211.0,146.0" stroke="black" stroke-width="2" fill="none" />
<polyline points="212.0,138.5,220.0,138.0,228.0,138.0" stroke="black" stroke-width="2" fill="none" />
<polyline points="234.5,133.5,226.5,141.0,219.0,148.5,211.5,155.5,204.0,162.5,196.0,169.5" stroke="black" stroke-width="2" fill="none" />
<polyline points="186.5,171.0,178.5,171.0,171.0,171.5,163.0,171.5,154.5,171.5" stroke="black" stroke-width="2" fill="none" />
<polyline points="156.0,170.0,164.5,162.5,172.5,155.0,180.5,147.0" stroke="black" stroke-width="2" fill="none" />
<polyline points="177.0,148.5,185.0,152.5,197.0,144.0" stroke="black" stroke-width="2" fill="none" />
<polyline points="194.5,139.0,202.5,131.0,211.0,123.0,219.0,115.5" stroke="black" stroke-width="2" fill="none" />
<polyline points="227.0,116.0,219.0,123.5,211.0,131.0,203.5,138.5" stroke="black" stroke-width="2" fill="none" />
<polyline points="203.0,147.5,211.0,140.5,218.5,133.5,226.5,125.5" stroke="black" stroke-width="2" fill="none" />
<polyline points="227.0,129.5,219.5,130.0" stroke="black" stroke-width="2" fill="none" />
<polyline points="211.0,117.0,202.5,124.0,194.5,131.0,187.0,138.5" stroke="black" stroke-width="2" fill="none" />
<polyline points="176.0,146.0,177.0,154.0,183.5,162.0,182.5,170.0,182.0,178.0,182.0,185.5,187.5,192.5,190.5,200.0,191.0,208.0,187.0,211.5" stroke="black" stroke-width="2" fill="none" />
<polyline points="187.0,214.5,195.5,205.5,203.5,205.0,211.5,211.0,217.0,219.5" stroke="black" stroke-width="2" fill="none" />
<polyline points="235.0,202.5,226.5,203.0,219.5,203.5,212.0,204.0,204.5,204.5,196.5,205.0,188.0,205.5" stroke="black" stroke-width="2" fill="none" />
<polyline points="192.5,212.5,200.5,212.5,208.0,214.5" stroke="black" stroke-width="2" fill="none" />
<polyline points="180.5,187.0,172.5,194.5,164.5,202.5" stroke="black" stroke-width="2" fill="none" />
<polyline points="164.5,195.0,172.5,188.0,180.5,180.5" stroke="black" stroke-width="2" fill="none" />
<polyline points="186.0,180.0,178.0,180.0,170.5,181.0,162.5,181.5,154.5,182.0,146.5,182.0,138.5,182.0,130.5,182.5,123.0,182.5,115.0,183.0,107.0,183.0,99.0,183.5,90.5,184.0,82.0,184.5,74.0,185.5,66.0,186.0,58.0,186.5,50.5,187.0,43.0,188.0,34.5,188.5,26.5,189.5,18.5,190.0,10.5,190.0,2.5,190.5" stroke="black" stroke-width="2" fill="none" />
<polyline points="4.0,195.5,12.0,187.5,20.0,181.0,27.5,174.0,35.0,166.5,42.5,159.0,50.5,151.5,58.5,144.5,67.0,138.0,76.0,131.5,84.0,124.0,92.5,117.0" stroke="black" stroke-width="2" fill="none" />
<polyline points="97.5,116.5,89.5,124.0,82.0,132.0,74.5,139.5,66.5,147.5,59.0,155.0,51.5,162.0,44.5,169.0,37.0,176.0,29.5,183.0,21.0,190.5,13.0,198.0,5.0,205.0" stroke="black" stroke-width="2" fill="none" />
<polyline points="2.0,207.5,10.5,207.0,19.0,206.0,27.5,205.5,36.0,205.0,44.5,204.0,52.5,203.5,60.0,203.0,67.5,202.5,75.5,202.0,83.5,201.5,92.0,201.0,100.0,200.5,108.0,200.0,115.5,199.0,123.0,198.5,131.0,197.5,138.5,197.5,146.0,197.0,153.5,196.5,161.0,195.5,169.5,195.0" stroke="black" stroke-width="2" fill="none" />
<polyline points="173.0,196.5,174.5,195.5,170.5,203.5" stroke="black" stroke-width="2" fill="none" />
<polyline points="165.0,216.0,157.0,219.0" stroke="black" stroke-width="2" fill="none" />
<polyline points="146.0,227.5,138.0,235.0" stroke="black" stroke-width="2" fill="none" />
<polyline points="131.0,235.5,139.0,228.0" stroke="black" stroke-width="2" fill="none" />
<polyline points="131.0,228.0,123.0,235.5" stroke="black" stroke-width="2" fill="none" />
<polyline points="123.0,228.0,114.5,236.0" stroke="black" stroke-width="2" fill="none" />
<polyline points="108.5,235.0,116.5,227.5" stroke="black" stroke-width="2" fill="none" />
<polyline points="114.0,223.0,117.0,221.0,120.0,222.5,126.0,226.5,136.0,234.0,149.5,234.0,158.5,233.0,167.5,232.5" stroke="black" stroke-width="2" fill="none" />
<polyline points="152.0,207.5,144.0,207.0,136.0,209.0,128.5,210.0,119.5,208.0,118.5,203.0,113.5,195.0,109.5,210.0,101.5,201.5,92.5,208.0,82.5,203.5,79.0,206.5,77.5,210.5,74.5,208.5,86.5,205.5,96.0,195.0,99.0,195.0,104.0,187.0,105.5,181.5,108.0,173.5,108.0,165.5,104.0,156.0,105.0,148.0,110.0,147.0,113.0,136.0,111.0,128.5,111.0,128.5" stroke="black" stroke-width="2" fill="none" />
<polyline points="108.0,129.0,110.5,137.0,106.5,138.5,114.5,147.0,117.0,156.0,124.5,156.0" stroke="black" stroke-width="2" fill="none" />
<polyline points="130.5,161.5,138.5,153.0,147.0,145.0,155.5,137.0,163.0,129.0,171.0,121.5,179.5,113.5" stroke="black" stroke-width="2" fill="none" />
<polyline points="186.5,114.5,179.0,122.0,170.5,129.5,162.5,138.0,155.0,146.0,147.0,154.5,138.5,162.0,130.5,169.5" stroke="black" stroke-width="2" fill="none" />
<polyline points="132.5,172.5,140.0,171.5,147.5,171.0" stroke="black" stroke-width="2" fill="none" />
<polyline points="146.5,164.0,138.5,172.0" stroke="black" stroke-width="2" fill="none" />
<polyline points="131.5,164.5,139.5,164.0,147.5,163.5" stroke="black" stroke-width="2" fill="none" />
<polyline points="156.0,164.5,164.0,164.0,172.0,164.0,179.5,163.5,187.0,163.5,195.0,163.0,203.0,162.5,211.5,162.0,219.5,161.5,228.0,161.0,235.5,160.5" stroke="black" stroke-width="2" fill="none" />
<polyline points="233.0,160.5,236.0,164.5,236.0,172.5,236.5,180.5,236.5,188.5" stroke="black" stroke-width="2" fill="none" />
<polyline points="229.5,171.5,237.5,164.5" stroke="black" stroke-width="2" fill="none" />
<polyline points="229.5,163.0,237.5,155.5" stroke="black" stroke-width="2" fill="none" />
<polyline points="237.0,151.5,229.5,152.0,222.0,152.5,214.0,153.5,205.5,154.0,197.0,155.0,189.0,155.5,180.5,156.0,172.0,156.5,163.0,157.5,154.5,158.0" stroke="black" stroke-width="2" fill="none" />
<polyline points="156.0,162.0,164.0,154.5,171.5,147.0,180.0,139.5,188.0,132.0,196.0,124.5,204.5,117.0" stroke="black" stroke-width="2" fill="none" />
<polyline points="195.5,117.0,187.5,124.5,180.0,132.5,172.5,140.0,165.0,147.5,157.5,155.5" stroke="black" stroke-width="2" fill="none" />
<polyline points="166.0,162.0,173.5,161.5" stroke="black" stroke-width="2" fill="none" />
<polyline points="181.0,170.0,173.0,170.5,165.5,170.5" stroke="black" stroke-width="2" fill="none" />
<polyline points="157.5,185.0,158.5,193.0,159.5,201.0" stroke="black" stroke-width="2" fill="none" />
<polyline points="148.0,198.5,138.5,198.0,131.5,206.0,132.0,204.5,129.5,198.5,135.5,190.5,136.5,182.5,136.5,175.0,134.0,166.5,133.5,160.5,129.5,154.0,128.5,145.5,121.5,137.5,120.0,133.5,110.0,132.5,102.5,126.5" stroke="black" stroke-width="2" fill="none" />
<polyline points="101.5,128.5,101.5,128.5,103.5,137.0,100.5,146.0,96.5,155.0,95.5,161.0,94.0,169.0,98.0,177.0,90.5,186.5,95.5,188.0,97.0,182.0,103.0,179.0" stroke="black" stroke-width="2" fill="none" />
<polyline points="100.5,177.5,109.0,170.5,117.0,163.5" stroke="black" stroke-width="2" fill="none" />
<polyline points="115.0,167.0,107.0,167.0,99.0,167.0,91.5,167.0,83.5,167.5,75.5,168.0,67.5,169.0,60.0,169.5,52.0,170.5,43.5,171.0,35.5,171.5,27.0,171.5,18.5,172.0,10.0,172.5,1.5,173.0" stroke="black" stroke-width="2" fill="none" />
<polyline points="4.0,176.5,12.0,169.0,20.0,161.5,28.0,154.0,36.0,146.5,44.0,139.5,52.5,132.0,60.5,124.5,68.0,116.5,76.0,109.5,83.5,102.5,91.0,95.5,98.5,88.0,106.5,80.5,114.5,73.0,123.5,65.0,131.5,57.0,139.5,49.0,147.5,41.0,156.0,33.5,164.0,26.5,172.5,19.5,181.0,12.0,189.5,4.5" stroke="black" stroke-width="2" fill="none" />
<polyline points="197.0,4.0,189.0,11.5,180.5,18.5,172.5,26.0,164.5,33.5,156.0,41.0,148.0,48.5,140.5,56.5" stroke="black" stroke-width="2" fill="none" />
<polyline points="187.0,34.0,195.5,26.5,203.5,18.5,212.0,11.5,220.0,4.0" stroke="black" stroke-width="2" fill="none" />
<polyline points="227.5,5.0,219.5,13.0,211.5,20.5,203.5,28.0,196.0,35.5" stroke="black" stroke-width="2" fill="none" />
<polyline points="221.5,26.0,230.0,18.0,238.0,10.5,246.0,3.0" stroke="black" stroke-width="2" fill="none" />
<polyline points="253.0,3.5,245.0,11.5,237.0,19.5,228.5,27.0" stroke="black" stroke-width="2" fill="none" />
<polyline points="250.0,20.0,257.5,12.5,265.5,5.0" stroke="black" stroke-width="2" fill="none" />
<polyline points="258.5,3.5,250.5,11.0,242.5,19.0,235.0,26.5" stroke="black" stroke-width="2" fill="none" />
<polyline points="237.0,5.0,228.5,12.5,220.5,19.5,212.5,26.5" stroke="black" stroke-width="2" fill="none" />
<polyline points="202.5,5.5,194.5,12.5,186.5,20.0,179.5,26.5,172.5,34.0,165.0,41.0,157.5,48.0" stroke="black" stroke-width="2" fill="none" />
<polyline points="170.5,41.5,178.5,33.5,187.0,25.5,195.0,17.5,202.5,9.5,210.5,2.0" stroke="black" stroke-width="2" fill="none" />
<polyline points="181.0,2.0,173.0,9.5,164.5,17.0,156.5,25.0,147.5,32.5,139.0,40.5,131.0,48.0,122.5,55.5,114.5,63.0,107.0,70.5,99.0,78.5,91.0,86.0,82.5,94.0,74.5,102.0,67.0,110.0,58.5,117.5,51.0,124.5,43.5,131.5,35.5,138.5,28.0,146.0,19.5,153.5,12.0,161.0,4.0,168.0" stroke="black" stroke-width="2" fill="none" />
<polyline points="3.5,164.0,11.5,163.5,19.0,163.0,27.0,162.0,35.0,162.0,43.0,162.0,51.5,161.0,60.0,160.0,68.0,159.5,76.0,158.5,84.0,158.0,92.0,157.5,100.5,157.5,109.0,157.0,117.0,157.0,124.5,157.5" stroke="black" stroke-width="2" fill="none" />
<polyline points="130.0,156.0,138.0,148.5" stroke="black" stroke-width="2" fill="none" />
<polyline points="141.5,143.0,138.5,151.0,148.0,156.0,156.0,155.0" stroke="black" stroke-width="2" fill="none" />
<polyline points="148.0,149.0,140.5,149.0,133.0,149.0,125.0,149.5,117.0,150.0,109.5,150.0,101.5,150.5,94.0,151.0,86.5,151.5,78.0,152.5,70.0,153.0,62.0,153.5,53.5,154.5,45.0,155.0,37.0,155.5,29.0,156.0,21.0,156.5,12.5,157.5,4.5,158.0" stroke="black" stroke-width="2" fill="none" />
<polyline points="3.5,163.0,11.5,155.5,19.5,147.5,27.5,140.0,35.5,132.0,43.5,124.5,51.5,117.0,59.5,109.5,67.5,101.0,75.0,93.0,83.0,85.5,91.0,77.5,98.5,70.0,106.5,62.5,114.0,55.0,122.0,47.0,129.5,39.5,137.5,32.5,145.5,25.5,154.0,18.5,161.5,11.5,169.5,4.0" stroke="black" stroke-width="2" fill="none" />
<polyline points="162.0,4.5,154.0,12.0,146.5,19.0,138.0,27.0,129.5,34.5,121.5,42.0,114.0,49.0,106.0,56.5,98.0,64.0,90.5,72.0,83.0,80.0,74.5,87.0,66.5,94.0,59.0,101.5,51.5,109.5,44.0,117.5,36.0,125.0,27.5,132.0,19.5,139.0,11.5,146.0,3.5,153.5" stroke="black" stroke-width="2" fill="none" />
<polyline points="5.0,151.5,13.5,150.5,21.0,150.0,29.0,149.0,37.0,148.5,45.0,148.5,53.0,148.0,61.0,147.0,69.0,146.5,77.0,145.5,85.0,144.5,93.0,144.0,100.5,143.5,108.0,143.0,115.5,143.0,123.0,142.5,130.5,141.5,139.0,140.5,147.5,139.5,155.0,139.5,163.0,139.0,171.0,138.5,179.5,138.0,187.5,137.0,195.0,136.5,202.5,136.0,210.5,135.0,218.5,134.0,226.0,133.0,234.0,133.0" stroke="black" stroke-width="2" fill="none" />
<polyline points="243.5,124.0,236.0,125.0,227.5,126.5,219.0,127.5,210.5,128.0,202.0,129.0,194.0,130.0,186.0,130.5,178.0,130.5,170.5,131.0,163.0,132.0,155.0,132.5,147.5,133.0,139.5,134.0,131.5,134.5,124.0,135.0,116.5,135.5,108.0,135.5,99.5,136.0,91.5,136.5,83.0,137.0,75.0,137.5,67.5,138.0,60.0,138.5,52.0,139.0,44.5,139.0,36.5,139.5,29.0,140.0,21.5,140.0,13.5,140.0,5.5,140.5" stroke="black" stroke-width="2" fill="none" />
<polyline points="2.5,139.0,11.0,131.0,20.0,123.0,28.0,115.5,36.0,107.5,44.0,100.5,52.0,93.0,60.0,86.0,68.5,78.5,76.5,71.0,85.0,63.5,93.0,56.0,101.0,48.5,109.0,41.0,116.5,33.5,124.5,26.5,132.0,19.5,139.5,12.0,147.0,4.5" stroke="black" stroke-width="2" fill="none" />
<polyline points="140.5,4.0,132.5,11.5,124.5,18.5,116.5,26.5,108.0,34.5,100.0,42.0,91.5,49.0,83.5,55.5,76.0,63.0,68.5,71.0,60.5,79.0,52.5,86.0,44.0,93.0,35.5,100.5,27.0,108.0,19.0,116.0,11.0,123.5,3.5,131.0" stroke="black" stroke-width="2" fill="none" />
<polyline points="2.5,130.5,10.5,129.5" stroke="black" stroke-width="2" fill="none" />
<polyline points="4.0,124.5,12.5,117.0,20.5,109.5,28.5,101.5,36.5,94.0,44.5,87.0,52.5,79.5,60.0,72.0,67.5,64.0,75.5,56.5,83.5,48.5,91.0,41.0,98.5,33.0,107.0,25.0,115.5,17.0,124.0,8.5,132.0,0.5" stroke="black" stroke-width="2" fill="none" />
<polyline points="124.0,2.5,116.5,10.0,108.5,18.0,100.5,25.5,92.5,32.5,84.5,40.0,76.5,47.5,69.0,55.5,61.0,63.0,52.5,70.5,44.5,78.0,36.0,85.5,28.0,92.5,19.5,100.0,11.0,108.0,3.0,115.5" stroke="black" stroke-width="2" fill="none" />
<polyline points="3.0,116.0,11.0,116.0,19.5,116.0,28.0,115.5,36.5,114.5,44.5,114.0,53.0,113.5,61.0,113.5,69.0,113.0,77.0,112.5,84.5,112.0,93.0,111.0,101.0,110.0,109.0,109.0,117.5,108.5,125.0,108.5,133.0,108.0,140.5,108.0,148.5,107.5,157.0,106.5,165.5,106.0,173.0,105.5,180.5,105.0,188.0,104.5,196.5,104.5,204.5,104.0,212.0,104.0,220.0,104.0,228.0,104.0,236.5,103.0,244.5,102.0,252.5,102.0,260.5,101.5" stroke="black" stroke-width="2" fill="none" />
<polyline points="252.5,118.5,244.0,119.0,236.5,119.5,229.0,120.0,221.0,121.0,213.5,121.5,205.5,122.0,197.0,123.0,188.5,123.0,180.0,123.5,171.5,124.5,163.5,125.0,156.0,125.5,148.0,126.0,139.5,126.5,131.5,127.5,123.0,128.5,114.5,128.5,106.0,128.5,98.0,129.0,90.0,129.5,82.0,130.5,74.0,130.5,66.5,131.0,58.5,131.0,50.5,131.5,43.0,132.0,35.0,132.5,27.5,133.5,19.5,134.0,11.0,135.0,3.5,135.5" stroke="black" stroke-width="2" fill="none" />
<polyline points="4.0,137.0,12.0,136.5" stroke="black" stroke-width="2" fill="none" />
<polyline points="6.0,145.5,13.5,138.0,21.0,130.5,29.0,123.5,37.0,116.0,44.5,108.0,52.0,100.0,59.5,92.0,67.5,84.5,75.5,77.0,83.5,69.5,92.0,62.5,100.5,55.5,108.5,48.0,116.0,40.5,124.0,33.0,132.0,25.5,140.0,18.5,148.0,11.5,156.0,4.5" stroke="black" stroke-width="2" fill="none" />
<polyline points="83.0,3.5,75.0,11.5,67.0,19.5,59.0,27.0,51.0,34.5,43.5,42.0,35.5,49.5,27.5,56.0,20.0,63.5,13.0,71.0,5.0,78.5" stroke="black" stroke-width="2" fill="none" />
<polyline points="6.5,78.5,14.0,78.5,22.0,77.0,29.5,76.0,37.0,75.5,44.0,74.5,51.5,73.5,59.5,73.0,67.0,72.5,74.0,72.0,82.5,71.0,90.0,70.5,98.0,69.5,106.0,69.0,113.5,68.5,121.5,68.0,130.0,67.5,138.5,67.0,147.0,66.5,155.5,66.5,163.5,66.5,171.5,66.0,179.5,65.5,188.0,64.5,196.0,64.5,204.0,64.0,212.0,63.5,220.0,63.0,227.5,63.0,235.5,63.0,243.5,62.5,252.0,62.0,260.0,61.5,268.5,61.0,276.0,60.0,283.5,59.0,291.5,58.5" stroke="black" stroke-width="2" fill="none" />
<polyline points="299.0,49.5,290.5,50.5,282.5,51.5,275.0,52.0,267.5,53.0,260.0,54.0,252.5,55.0,244.5,55.5,236.5,56.0,227.5,56.0,219.0,56.5,210.5,57.0,202.0,57.5,194.0,57.5,186.0,57.5,177.5,58.0,169.5,58.5,161.5,59.5,153.5,59.5,145.5,59.5,137.5,60.0,130.0,60.5,122.0,61.5,114.5,61.5,107.0,61.5,99.0,62.0,91.0,62.0,83.5,62.5,75.5,63.0,67.5,63.5,59.5,64.5,51.5,65.5,44.0,66.5,36.0,67.0,28.0,67.5,20.5,68.5,12.5,69.0,5.0,69.0" stroke="black" stroke-width="2" fill="none" />
<polyline points="3.5,69.5,12.0,63.0,20.5,56.0,28.5,49.0,36.5,42.5,43.5,35.0,51.5,27.0,59.0,19.5,67.0,12.5,75.0,5.0" stroke="black" stroke-width="2" fill="none" />
<polyline points="68.5,5.5,60.5,12.5,53.0,20.0,45.0,26.5,37.5,33.5,29.5,40.5,21.0,48.0,13.0,55.5,4.5,63.0" stroke="black" stroke-width="2" fill="none" />
<polyline points="3.5,64.5,11.5,64.0,19.5,63.5,27.5,63.0,35.5,62.0,43.0,61.5" stroke="black" stroke-width="2" fill="none" />
<polyline points="3.0,55.5,10.5,47.5,18.5,40.0,26.5,32.5,35.0,25.5,43.0,18.0,51.5,10.5,59.5,3.0" stroke="black" stroke-width="2" fill="none" />
<polyline points="52.0,1.5,44.0,9.0,35.5,17.0,27.0,25.0,18.5,33.5,10.5,42.0,2.0,49.5" stroke="black" stroke-width="2" fill="none" />
<polyline points="1.5,49.0,9.5,48.5,18.0,48.5,26.0,48.0,34.0,47.5,42.5,47.0,50.5,47.0,58.0,46.5" stroke="black" stroke-width="2" fill="none" />
<polyline points="44.0,4.0,36.0,11.5,27.5,19.0,19.0,26.0,10.5,33.5,2.0,41.0" stroke="black" stroke-width="2" fill="none" />
<polyline points="3.0,39.5,11.0,39.0,19.0,38.0,27.0,37.5,34.5,37.0,42.0,36.5,50.0,35.5,58.5,35.5,66.5,35.5,74.5,35.0,83.0,34.5,90.5,34.0,99.0,33.5,107.0,32.5,115.0,31.5,123.0,31.0,130.5,30.0,138.0,29.5,145.5,29.0,153.5,28.0,161.5,27.0,169.5,27.0,178.5,27.0,186.5,26.5,195.0,25.5,203.0,24.5,211.0,24.0,218.5,23.5,226.5,23.0,234.5,22.5,242.0,22.0,250.5,21.5,258.5,21.5,267.0,20.5,275.5,20.0,284.0,19.5,292.0,18.5,300.0,18.5,308.0,18.0,315.5,17.5,323.5,17.0,332.0,16.5" stroke="black" stroke-width="2" fill="none" />
<polyline points="332.0,9.5,324.0,9.5,316.0,10.5,308.5,11.5,301.0,12.0,293.5,13.0,285.5,13.5,277.5,14.5,269.5,14.5,261.0,15.0,253.0,15.0,245.0,15.5,237.0,16.5,229.0,16.5,221.0,16.5,213.0,16.5,204.5,16.5,197.0,16.0,189.0,16.0,180.5,16.5,172.0,16.5,164.0,17.0,156.0,17.5,148.0,18.5,140.0,19.0,131.5,20.0,123.0,21.0,115.0,21.0,107.0,21.0,99.0,22.0,91.5,22.5,83.5,23.0,75.5,23.5,68.0,23.5,60.0,24.0,52.0,24.5,44.0,25.5,36.0,25.5,27.5,26.0,19.0,27.0,10.5,28.0,2.5,29.0" stroke="black" stroke-width="2" fill="none" />
<polyline points="2.0,28.0,10.0,21.0,17.5,13.5,25.0,6.0" stroke="black" stroke-width="2" fill="none" />
<polyline points="18.5,5.5,10.5,12.5,2.5,19.5" stroke="black" stroke-width="2" fill="none" />
<polyline points="5.0,17.5,12.5,16.5,20.5,16.0,28.5,15.0,36.5,14.5,44.5,14.0,52.5,13.5,60.5,13.0,68.5,12.5,76.0,12.0,84.0,11.5,92.0,11.5,100.5,11.5" stroke="black" stroke-width="2" fill="none" />
<polyline points="33.5,5.5,25.5,12.5,18.0,19.5,10.0,26.5,2.0,33.5" stroke="black" stroke-width="2" fill="none" />
<polyline points="2.5,32.5,10.5,32.5,18.0,32.5,26.0,32.0,34.5,31.0,42.0,30.5,50.5,30.5,58.0,30.0,66.0,29.5,73.5,28.5" stroke="black" stroke-width="2" fill="none" />
<polyline points="35.5,78.0,28.0,79.0,20.0,79.5,12.0,80.0,4.5,80.5" stroke="black" stroke-width="2" fill="none" />
<polyline points="4.0,74.0,12.5,73.0,20.5,72.0,28.5,71.0,36.0,70.5,44.0,69.5" stroke="black" stroke-width="2" fill="none" />
<polyline points="17.5,97.0,9.5,97.5,1.5,98.0" stroke="black" stroke-width="2" fill="none" />
<polyline points="3.0,105.0,10.5,105.0,18.5,104.5" stroke="black" stroke-width="2" fill="none" />
<polyline points="19.5,120.5,11.5,121.5,3.0,122.0" stroke="black" stroke-width="2" fill="none" />
<polyline points="3.0,125.5,10.5,125.5,18.5,125.0,26.5,124.5,34.5,123.5,42.0,123.0,50.0,122.5,58.0,122.5,66.0,121.5,74.0,120.5,82.0,120.0,90.0,119.5,98.0,118.5,106.0,117.5,115.0,116.5,123.5,116.0,131.0,115.0,138.5,114.5,146.0,114.0,154.5,113.5,162.0,113.0,170.0,112.5,178.5,112.0,187.0,112.0,196.0,112.0,204.0,112.0,212.5,112.0,221.0,112.0,229.0,111.5,237.0,111.0,245.0,111.0,252.5,110.0" stroke="black" stroke-width="2" fill="none" />
<polyline points="195.0,124.5,195.0,132.5,192.0,135.5,196.0,143.5,197.0,151.5,191.0,154.5,192.5,156.0" stroke="black" stroke-width="2" fill="none" />
<polyline points="200.5,149.5,208.5,151.0" stroke="black" stroke-width="2" fill="none" />
<polyline points="187.0,169.5,178.5,170.5,170.5,170.5,162.0,171.0,154.5,171.5,146.5,172.0,138.5,172.5,131.0,173.0,123.0,173.5,115.0,174.5,106.5,175.5,98.5,176.0,89.5,176.0,81.5,176.0,73.5,177.0,65.5,178.0,58.0,178.5,50.5,179.0,43.0,180.0,35.0,180.5,27.0,181.5,19.0,182.5,10.5,183.0,3.0,183.5" stroke="black" stroke-width="2" fill="none" />
<polyline points="5.0,188.5,13.0,181.5,20.0,174.0,28.0,167.0,36.0,160.0,44.0,153.0,51.5,146.0,59.0,139.0,67.0,132.0,75.5,125.0,84.0,117.5" stroke="black" stroke-width="2" fill="none" />
<polyline points="79.5,123.0,84.5,128.5,85.5,136.5,86.5,144.0,86.0,152.0,76.5,161.0,80.0,169.0,80.5,177.0,80.0,185.0,82.5,196.0,81.5,204.0,80.5,212.5" stroke="black" stroke-width="2" fill="none" />
<polyline points="76.0,217.0,68.5,217.5,60.5,217.5,52.0,218.0,44.0,218.5,35.5,219.0,27.5,219.5,19.5,220.0,12.5,220.5,4.5,220.5" stroke="black" stroke-width="2" fill="none" />
<polyline points="3.0,224.0,11.5,216.0,19.5,209.0,27.5,202.0,36.0,194.5,44.0,186.5,52.5,179.0" stroke="black" stroke-width="2" fill="none" />
<polyline points="60.0,176.5,67.5,169.5,75.0,162.5,83.0,155.0,91.0,148.0" stroke="black" stroke-width="2" fill="none" />
<polyline points="99.0,148.5,90.5,156.5" stroke="black" stroke-width="2" fill="none" />
<polyline points="88.5,157.0,96.5,155.0,110.5,157.0,118.5,152.5" stroke="black" stroke-width="2" fill="none" />
<polyline points="120.0,147.5,128.0,141.0,134.0,146.0,133.0,154.0,143.5,152.5,151.5,150.5" stroke="black" stroke-width="2" fill="none" />
<polyline points="161.5,145.5,164.0,153.5,169.0,161.5,169.5,166.5" stroke="black" stroke-width="2" fill="none" />
<polyline points="184.0,174.0,192.0,163.5,197.0,173.5,208.0,176.0,213.0,178.0,219.0,187.0" stroke="black" stroke-width="2" fill="none" />
<polyline points="242.5,214.0,234.5,214.5,227.0,215.0,219.0,215.5,211.5,216.5,204.0,217.5,196.5,218.0,188.5,219.0,181.0,219.5,173.5,220.0,165.0,220.5,157.5,220.5,149.0,221.0,140.5,221.0,132.5,221.0,124.5,221.0,116.5,221.0,108.5,221.0,101.0,221.0,93.5,221.0,86.0,221.5,77.5,222.0,69.0,222.5,60.5,223.0,52.5,224.0,44.5,224.5,37.0,225.5,28.5,226.5,20.0,227.0,12.0,227.0,4.0,227.5" stroke="black" stroke-width="2" fill="none" />
<polyline points="2.5,232.5,10.5,225.5,18.5,218.0,26.0,211.0,33.5,203.5,41.0,196.0,49.0,188.5" stroke="black" stroke-width="2" fill="none" />
<polyline points="51.0,197.0,43.5,204.5,36.0,212.0,28.0,219.0,20.5,226.0,12.5,233.0,4.0,240.5" stroke="black" stroke-width="2" fill="none" />
<polyline points="3.5,243.5,11.0,243.0,19.0,243.0,27.0,242.5,34.5,242.5,42.0,242.5,50.0,241.5,57.5,241.0,65.5,240.5,73.5,240.5,81.5,240.5,89.5,239.5,97.5,239.0,106.0,238.5,114.0,238.5,122.0,238.5,130.5,238.0,139.0,237.5,147.5,237.0,156.5,237.0,164.5,236.5,172.5,236.0,180.0,235.0,187.5,234.0,195.0,233.0,202.5,232.5,210.5,231.5,219.0,230.5,227.5,230.0,236.0,229.5,244.0,229.0" stroke="black" stroke-width="2" fill="none" />
<polyline points="243.5,263.0,236.0,263.5,228.0,264.0,220.0,264.5,212.0,264.5,203.0,264.5,195.0,265.0,187.0,265.5,179.0,265.5,171.5,265.5,163.5,266.0,155.5,266.5,147.0,267.5,139.5,268.0,131.5,269.0,123.5,269.5,116.0,270.0,108.5,271.0,101.0,272.0,93.5,272.5,86.0,273.0,77.5,273.5,69.5,274.5,61.0,275.0,52.5,275.0,44.0,274.5,36.0,275.0,28.5,275.5,21.0,275.5,13.5,276.0,5.5,276.5" stroke="black" stroke-width="2" fill="none" />
<polyline points="3.5,273.5,12.0,273.0,19.5,272.5" stroke="black" stroke-width="2" fill="none" />
<polyline points="20.0,280.0,12.5,280.5,4.5,281.0" stroke="black" stroke-width="2" fill="none" />
<polyline points="1.5,277.0,9.5,269.5,17.5,261.5,25.5,253.5,33.5,246.5,41.5,238.5,49.5,231.0,58.0,223.5,67.0,216.5,75.5,209.0,85.0,202.0,94.0,195.0,102.0,188.0,110.0,180.5" stroke="black" stroke-width="2" fill="none" />
<polyline points="107.5,186.0,100.0,193.5,92.5,201.5" stroke="black" stroke-width="2" fill="none" />
<polyline points="93.0,208.5,85.5,209.0,77.0,209.0,68.5,210.0,60.0,211.0,51.5,212.0,43.0,213.0,35.0,213.5,27.0,214.0,19.0,214.5,11.0,215.0,3.0,215.5" stroke="black" stroke-width="2" fill="none" />
<polyline points="4.0,213.0,11.5,205.5,19.0,197.5,27.0,190.0,35.0,182.5,43.0,175.0,50.5,167.5,58.5,159.5,66.0,151.5,74.0,144.5,82.5,136.5,90.5,129.0,98.5,121.5,106.5,114.5" stroke="black" stroke-width="2" fill="none" />
<polyline points="114.5,116.0,106.5,123.5,99.5,130.5,91.5,138.0,83.5,145.5,75.5,153.0,67.0,161.0,59.0,168.5" stroke="black" stroke-width="2" fill="none" />
<polyline points="68.0,169.5,76.0,169.5" stroke="black" stroke-width="2" fill="none" />
<polyline points="70.0,174.5,77.5,174.0,85.0,174.0" stroke="black" stroke-width="2" fill="none" />
<polyline points="86.5,170.5,78.5,178.0,70.0,185.5,61.5,193.5" stroke="black" stroke-width="2" fill="none" />
<polyline points="61.0,186.0,69.0,179.0,77.0,172.0,85.0,164.0" stroke="black" stroke-width="2" fill="none" />
<polyline points="97.5,169.5,105.5,168.5" stroke="black" stroke-width="2" fill="none" />
<polyline points="109.0,164.5,116.5,163.0,125.0,163.0,117.0,169.5,107.5,163.5,116.0,161.5,124.0,159.5" stroke="black" stroke-width="2" fill="none" />
<polyline points="131.0,146.0,138.5,138.0,146.0,130.5,153.5,123.5,162.0,116.5" stroke="black" stroke-width="2" fill="none" />
<polyline points="156.5,115.0,148.0,123.0,140.0,130.5,132.0,138.0,124.0,146.0" stroke="black" stroke-width="2" fill="none" />
<polyline points="123.0,138.5,131.0,131.5,139.5,124.0,147.5,116.5" stroke="black" stroke-width="2" fill="none" />
<polyline points="139.0,116.0,131.5,123.5,124.5,131.0,117.0,138.0" stroke="black" stroke-width="2" fill="none" />
<polyline points="114.0,132.0,122.0,133.5,132.0,131.5,140.5,130.0,148.5,126.0,159.0,131.0,171.0,128.5" stroke="black" stroke-width="2" fill="none" />
<polyline points="170.5,128.5,173.5,130.5,177.5,138.5,167.5,142.5,167.0,150.0,169.0,149.0,177.0,140.0" stroke="black" stroke-width="2" fill="none" />
<polyline points="168.5,144.0,172.0,152.0,172.0,160.0,172.5,171.0,171.0,179.0,174.0,184.0,168.0,192.0,163.0,195.0,162.5,203.0,153.5,208.0" stroke="black" stroke-width="2" fill="none" />
<polyline points="148.0,192.5,140.0,192.5,132.0,193.5" stroke="black" stroke-width="2" fill="none" />
<polyline points="139.5,195.5,143.5,203.5" stroke="black" stroke-width="2" fill="none" />
<polyline points="131.0,203.0,123.0,203.5,118.0,203.5,128.5,202.5,122.0,194.5,129.0,186.5,121.0,188.5" stroke="black" stroke-width="2" fill="none" />
<polyline points="124.0,189.0,115.5,196.5,107.0,204.0,98.5,211.0" stroke="black" stroke-width="2" fill="none" />
<polyline points="98.0,213.0,94.0,212.0,94.0,206.5,98.5,205.5" stroke="black" stroke-width="2" fill="none" />
<polyline points="100.0,200.5,108.5,193.0,117.0,185.5" stroke="black" stroke-width="2" fill="none" />
<polyline points="110.5,172.5,118.5,168.5,127.0,165.0,134.5,173.0" stroke="black" stroke-width="2" fill="none" />
<polyline points="148.0,193.5,157.0,185.5" stroke="black" stroke-width="2" fill="none" />
<polyline points="162.5,188.5,162.5,196.5,162.0,204.5" stroke="black" stroke-width="2" fill="none" />
<polyline points="116.0,201.5,113.0,199.5" stroke="black" stroke-width="2" fill="none" />
<polyline points="107.0,204.0,105.0,212.0" stroke="black" stroke-width="2" fill="none" />
<polyline points="108.0,225.5,100.5,232.5" stroke="black" stroke-width="2" fill="none" />
<polyline points="98.5,226.5,90.5,234.0" stroke="black" stroke-width="2" fill="none" />
<polyline points="82.0,242.5,90.0,242.0,98.0,242.0,106.0,241.5,113.5,241.0,121.5,240.5,129.5,241.0,137.5,240.5,145.5,240.5,153.5,240.0,161.5,240.5,169.5,240.0,177.0,240.5,185.5,240.5,193.5,241.0,202.0,242.0,214.0,243.0,222.0,243.5" stroke="black" stroke-width="2" fill="none" />
<polyline points="243.0,223.0,235.0,223.5,226.5,223.5,218.5,224.0,211.0,225.0,203.0,225.5,195.5,226.5,187.5,227.5,179.5,228.0,172.0,228.5,164.0,229.0,155.5,229.0,147.5,229.5,139.5,229.5,131.0,229.5,123.0,229.5,114.5,229.5,107.0,229.5,99.0,229.5,91.0,230.0,82.5,230.5,74.5,231.0,67.0,232.0,59.0,232.5,51.5,233.5,43.5,234.5,35.5,235.0,27.0,235.0,19.0,235.0,10.5,235.0,2.5,235.5" stroke="black" stroke-width="2" fill="none" />
<polyline points="3.5,263.0,11.5,255.5,19.5,248.0,28.0,240.5,36.5,233.0,44.5,225.5,52.5,218.5" stroke="black" stroke-width="2" fill="none" />
<polyline points="71.5,218.0,79.5,219.0,87.5,214.0" stroke="black" stroke-width="2" fill="none" />
<polyline points="69.0,208.0,70.0,215.5,70.5,224.0,70.5,232.0,69.0,238.0,77.0,240.0,85.5,240.0,93.5,239.0,101.0,238.5,109.0,238.5,117.0,238.5,125.0,237.5,133.0,234.0,139.0,239.0,147.0,239.5,155.0,239.5,163.0,239.5,171.0,239.0,179.0,239.0,187.0,240.0,195.0,240.0,203.0,240.0,211.0,241.5,219.0,241.5,227.0,240.5" stroke="black" stroke-width="2" fill="none" />
<polyline points="234.0,185.0,225.5,185.0,217.5,185.5,209.5,186.5,201.5,186.5,193.0,187.0,185.0,187.0,176.5,187.5,168.5,188.0,160.5,188.5,153.0,189.0,145.5,190.0,138.5,190.5,131.0,191.5,123.5,191.5,115.0,192.0,107.5,192.0,99.5,192.5,91.5,192.5,83.5,192.5,75.5,193.5,67.0,194.0,58.5,195.0,50.0,195.0,42.5,195.5,34.5,196.5,27.0,197.0,19.0,198.0,11.0,198.5,3.5,199.0" stroke="black" stroke-width="2" fill="none" />
<polyline points="4.0,144.5,12.0,144.5" stroke="black" stroke-width="2" fill="none" />
<polyline points="4.0,112.0,11.5,111.5,19.0,111.0" stroke="black" stroke-width="2" fill="none" />
<polyline points="27.5,88.0,19.5,88.5,12.0,89.0,4.0,89.5" stroke="black" stroke-width="2" fill="none" />
<polyline points="2.0,60.0,10.5,59.5,18.5,59.0,26.5,58.5,35.0,57.5,43.5,57.0,51.5,56.5,59.5,56.5,68.0,56.0,76.0,55.0,84.0,54.5,92.0,54.0,100.0,54.0,108.5,53.5,117.0,52.5,124.5,51.5,132.5,51.0,140.5,50.0,149.0,49.5,157.5,49.0,166.0,48.5,173.5,48.0,181.0,48.0,188.5,48.0,196.5,48.0,204.5,48.0,212.5,48.0,220.5,48.0,229.0,48.0,237.5,47.5,245.0,47.5,253.5,47.0,261.0,46.5,268.5,46.0,276.5,45.0,284.0,44.5,291.5,43.5,299.0,42.5,307.0,42.0" stroke="black" stroke-width="2" fill="none" />
<polyline points="315.0,32.0,307.0,32.5,299.0,33.5,291.0,34.0,283.0,34.0,275.0,35.0,266.5,36.0,258.5,36.0,250.5,36.0,243.0,36.5,234.5,37.0,226.5,37.5,219.0,38.5,212.0,39.0,204.5,40.0,196.5,41.0,188.5,42.5,181.0,43.0,173.0,43.5,165.5,44.0,157.0,44.0,148.5,45.0,140.0,46.0,131.5,47.0,123.0,48.0,115.0,48.5,107.0,49.0,99.0,49.5,91.0,50.0,83.0,50.5,75.0,51.0,67.0,51.5,58.5,51.5,50.0,51.0,41.5,51.0,34.0,51.5,26.0,52.0,18.5,52.0,10.5,52.0,2.5,52.5" stroke="black" stroke-width="2" fill="none" />
<polyline points="1.5,57.0,10.0,56.5,18.0,56.0,26.5,56.0,34.5,55.5,42.5,55.5,51.0,54.5" stroke="black" stroke-width="2" fill="none" />
<polyline points="66.0,38.5,58.0,39.0,50.0,39.5,42.0,39.5,34.0,40.5,26.5,41.5,18.5,42.0,11.0,43.0,3.5,43.5" stroke="black" stroke-width="2" fill="none" />
<polyline points="2.0,47.0,9.5,47.0,18.0,46.0,26.0,45.5,33.5,45.0,42.0,44.0,50.5,43.5,58.5,43.5,67.0,43.0,75.0,42.5,83.5,42.0,91.0,41.5,99.0,41.0,107.0,40.0,114.5,39.5,122.5,38.5,130.0,38.0,138.5,38.0,147.0,37.0,155.5,36.5,163.5,35.5,171.5,35.5,179.5,35.5,187.5,35.0,195.0,35.0,203.5,34.5,211.0,34.5,218.5,33.5,225.5,33.0,233.0,32.0,240.5,31.5,248.5,31.0,256.5,30.5,265.0,30.0,273.0,30.0,281.5,29.5,289.5,29.5,297.5,28.5,305.5,28.0,314.0,28.0,322.0,28.0" stroke="black" stroke-width="2" fill="none" />
<polyline points="339.5,28.5,350.5,36.5,361.5,44.5,370.5,52.5,378.5,60.5,389.0,68.5,399.5,76.5,409.5,84.0,418.5,91.5,427.5,100.0,437.5,108.0,447.5,116.0,457.5,124.0,461.5,132.5,456.5,141.0,465.0,149.5,470.0,157.5,464.0,165.0,461.0,172.5,465.5,180.5,460.0,188.5,453.0,196.5,457.0,204.5,461.5,212.5,453.0,220.5,451.0,228.5,454.0,237.0,452.0,245.0,437.0,252.0,428.0,255.0,429.5,263.0,430.5,270.0,438.5,267.0" stroke="black" stroke-width="2" fill="none" />
<polyline points="423.5,257.0,409.5,262.0,409.5,270.0,410.5,278.0,407.5,287.0,407.5,294.5,407.5,304.5,406.5,312.5" stroke="black" stroke-width="2" fill="none" />
<polyline points="403.0,320.5,395.5,321.0,387.0,321.0,379.0,321.0,370.5,321.0,362.5,321.0,354.0,322.0,346.0,322.0" stroke="black" stroke-width="2" fill="none" />
<polyline points="383.0,303.5,375.0,303.5,367.0,303.5,359.0,304.0,351.0,304.5,343.0,304.5,335.5,304.5,327.5,306.0,320.5,305.5,313.0,305.0,305.0,306.0,297.5,306.0" stroke="black" stroke-width="2" fill="none" />
<polyline points="390.5,305.0,390.5,297.0,391.5,289.5,391.5,281.5,391.5,273.5,392.5,265.5,393.5,257.5,393.5,249.5,392.5,241.0,394.0,232.5,395.0,224.5,394.0,216.5,395.5,208.5,395.5,200.5,395.5,192.5,395.5,184.5,387.5,181.5,379.0,181.5,371.5,182.0,363.5,181.5,355.5,181.5,347.0,181.5,339.0,181.0,331.5,181.0,323.0,181.0,315.0,181.0,307.0,181.0,299.0,182.0,291.0,182.0,283.0,182.0,275.5,181.5,267.5,181.5,259.5,182.5" stroke="black" stroke-width="2" fill="none" />
<polyline points="258.5,184.0,258.5,191.5,258.0,199.5,258.0,207.5,257.5,215.5,257.5,223.5,257.5,231.5,258.0,239.5,258.0,248.0,258.0,256.0,258.0,264.0,258.0,272.0,258.0,279.5,260.0,282.5,268.0,275.0,276.5,268.0" stroke="black" stroke-width="2" fill="none" />
<polyline points="222.0,227.0,222.5,218.5,222.0,211.5,222.0,204.0,221.5,196.0,221.5,187.5,220.5,180.5,221.5,172.5,221.0,166.0,216.5,164.0,220.5,159.0,209.5,151.0,209.0,142.5,199.5,141.5,199.5,148.0,191.5,153.0,190.0,159.5,183.0,156.0,187.0,151.0,185.5,143.5,185.5,135.5,184.0,127.0,179.5,124.0" stroke="black" stroke-width="2" fill="none" />
<polyline points="169.5,116.0,161.5,123.5,153.5,130.5,145.0,138.0" stroke="black" stroke-width="2" fill="none" />
<polyline points="139.0,135.5,127.0,145.0,118.5,137.0,116.5,134.5,110.5,145.5,106.5,153.0,98.5,161.0,94.5,168.0,86.5,170.0,85.5,168.0,80.0,160.0,88.5,151.0,91.5,149.5,92.5,141.5,91.5,134.0,94.5,126.0,90.0,130.5" stroke="black" stroke-width="2" fill="none" />
<polyline points="93.0,133.0,98.5,131.0,95.0,139.0,97.0,141.0" stroke="black" stroke-width="2" fill="none" />
<polyline points="108.5,136.5,116.5,128.5,124.5,121.0,133.0,113.5" stroke="black" stroke-width="2" fill="none" />
<polyline points="125.0,117.0,116.5,124.0,108.0,131.0,99.5,138.0" stroke="black" stroke-width="2" fill="none" />
<polyline points="108.5,147.0,100.5,155.0" stroke="black" stroke-width="2" fill="none" />
<polyline points="101.0,162.5,109.0,155.0" stroke="black" stroke-width="2" fill="none" />
<polyline points="108.0,163.0,100.5,170.5" stroke="black" stroke-width="2" fill="none" />
<polyline points="84.0,153.5,76.0,154.0,67.5,154.5" stroke="black" stroke-width="2" fill="none" />
<polyline points="69.5,162.0,77.0,161.5" stroke="black" stroke-width="2" fill="none" />
<polyline points="72.5,177.0,71.0,185.0,78.0,189.0,86.0,185.5,94.0,185.5,103.0,185.0,113.0,183.0,121.5,183.5,120.0,189.5,126.0,196.5,134.5,190.5,145.5,188.5,153.0,181.0" stroke="black" stroke-width="2" fill="none" />
<polyline points="150.5,148.5,152.5,142.5,157.5,134.5,154.5,134.0,153.5,126.5" stroke="black" stroke-width="2" fill="none" />
<polyline points="149.0,125.0,149.0,133.0,150.5,141.0,156.5,145.0,154.5,145.0,154.5,158.5,155.0,166.0,150.0,174.0,153.5,177.0,148.5,185.0,155.5,189.5,152.5,196.5,149.0,200.0,142.0,218.0,132.0,220.5,138.5,218.5,147.5,211.5,150.5,212.0,158.5,210.0,165.5,210.0,174.5,209.0,173.5,204.5,178.5,205.5,181.0,205.0" stroke="black" stroke-width="2" fill="none" />
<polyline points="256.5,180.5,265.0,180.5,273.5,179.0,282.0,179.0,290.0,179.0,298.0,179.0,306.5,179.0,314.5,179.0,322.5,178.5,330.0,178.5,338.0,178.5,346.0,177.5,354.0,177.0,361.5,178.0,369.5,177.5,377.5,178.0,385.5,178.0,394.0,179.5,393.0,185.0,393.0,193.0,394.5,201.0,393.0,209.0,393.0,217.5,392.5,225.5,392.5,233.5,391.5,241.5,391.0,249.5,390.5,257.0,389.5,265.5,389.0,273.5,388.0,281.5,388.0,289.5,388.5,297.5" stroke="black" stroke-width="2" fill="none" />
<polyline points="446.0,248.5,454.5,244.5" stroke="black" stroke-width="2" fill="none" />
<polyline points="451.0,230.0,441.5,207.0" stroke="black" stroke-width="2" fill="none" />
<polyline points="443.0,206.5,446.0,214.0,451.0,221.0,458.5,215.0" stroke="black" stroke-width="2" fill="none" />
<polyline points="465.0,147.0,457.0,138.5,446.5,128.5,438.5,121.5,430.5,113.5,422.5,104.5,415.0,97.5,407.0,87.5,399.0,80.5,391.0,73.5" stroke="black" stroke-width="2" fill="none" />
<polyline points="394.0,70.0,402.5,69.0,411.0,68.5,419.5,67.5,427.5,66.5,436.0,66.0,444.0,65.5,451.5,65.0,459.5,64.5,467.0,64.5,475.0,64.5,483.5,64.0,492.0,63.0,500.0,62.5,508.0,62.5,516.5,62.0" stroke="black" stroke-width="2" fill="none" />
<polyline points="514.0,53.5,506.5,54.0,499.0,54.5,491.0,55.0,483.5,55.5,475.5,56.5,467.5,57.0,460.0,57.5,452.0,58.0,444.0,58.5,436.0,58.5,427.0,58.5,419.0,59.0,411.0,59.5,403.0,59.5,395.5,59.5,387.5,60.0" stroke="black" stroke-width="2" fill="none" />
<polyline points="378.5,56.0,386.5,55.0,394.5,54.5,402.5,53.5,410.5,52.0,419.0,51.0,427.0,50.0,435.5,50.0,443.5,49.0,452.5,48.5,460.5,48.0,468.5,48.0,476.5,47.5,484.0,47.5,491.5,47.0,499.0,46.5,507.0,46.0,515.0,45.5" stroke="black" stroke-width="2" fill="none" />
<polyline points="514.5,38.0,506.5,39.0,498.5,39.5,491.0,39.5,482.5,40.0,475.0,39.5,467.0,40.0,459.0,40.0,451.5,40.5,444.0,41.0,436.0,41.5,428.0,42.5,420.0,43.0,412.0,43.5,403.5,44.0,396.0,44.5,388.0,45.0,380.0,45.0,371.5,45.5,363.5,45.5" stroke="black" stroke-width="2" fill="none" />
<polyline points="357.0,36.5,365.0,36.0,372.5,35.0,380.5,34.5,388.0,35.0,396.0,35.0,404.0,34.5,412.5,35.0,421.0,35.0,429.0,34.5,437.5,34.0,445.5,33.5,452.5,34.0,460.5,33.0,468.5,32.5,476.0,32.5,483.0,31.5,490.5,31.0,498.5,30.5,506.0,30.5,514.0,30.0" stroke="black" stroke-width="2" fill="none" />
<polyline points="516.0,-11.5,507.5,-10.5,499.0,-9.5,491.0,-9.0,483.0,-8.0,475.5,-7.5,467.5,-7.0,459.5,-6.0,451.0,-5.5,442.5,-4.5,434.5,-4.0,426.5,-4.0,418.5,-3.5,410.5,-2.5,402.5,-1.5,394.5,-1.5,386.5,-1.0,378.5,-0.5,371.0,-1.0,363.5,-1.0,355.5,-1.0,347.5,-1.0,339.0,-1.0,330.5,-1.0,322.5,-0.5,314.0,0.0,306.0,0.0,298.5,1.0,290.5,2.0,282.5,3.0,275.0,3.5,267.5,4.0,259.5,5.0,251.0,5.5,243.0,6.0,235.0,6.5,227.5,6.5,219.0,7.5,210.5,8.5,203.0,9.5,195.5,10.0,188.0,10.0,180.5,10.5,173.0,11.0,165.0,11.5,157.0,12.5,149.0,13.5,141.0,14.0,133.0,15.0,125.0,15.5,117.0,15.5,109.0,16.0,101.0,17.0,93.5,17.5,85.0,18.5,77.5,18.5,69.5,18.5,61.5,19.0,54.0,20.0,46.5,20.5,38.0,20.5,30.0,20.5,22.0,20.0,14.0,20.0,6.5,20.5" stroke="black" stroke-width="2" fill="none" />
<polyline points="5.0,25.5,13.0,25.0,21.0,24.5,29.0,24.0,37.0,23.5,45.0,22.5,53.0,22.0,60.5,22.0,68.5,21.5,76.5,21.5,84.5,21.0" stroke="black" stroke-width="2" fill="none" />
<polyline points="10.5,3.5,3.0,11.0" stroke="black" stroke-width="2" fill="none" />
<polyline points="4.0,10.0,12.0,9.5,20.5,9.0,28.0,8.5,36.0,8.0,43.5,7.5,52.0,7.0,60.0,5.5,68.0,5.0,76.0,4.5,84.0,4.0,92.0,3.5,100.5,3.5,108.0,4.0,116.0,4.0" stroke="black" stroke-width="2" fill="none" />
<polyline points="5.0,12.5,13.0,12.0,22.0,11.0,30.0,11.0,38.0,11.0,46.5,10.5,54.0,10.0,62.0,9.5,70.0,8.5,78.0,8.0,85.5,7.5,93.5,7.0,101.5,7.0,109.0,7.0,116.5,6.5,124.5,6.0,132.0,6.0,140.0,5.5,147.5,5.0,155.0,4.5,163.0,4.0,171.5,3.5,179.5,3.0,188.0,2.5,196.5,2.5,204.0,2.0,211.5,1.5,219.5,1.0,227.5,0.0,235.0,-0.5,243.0,-1.0,250.5,-2.0,258.0,-2.5,266.0,-2.5,274.0,-3.0,282.0,-4.0,290.5,-5.0,299.0,-5.5,307.5,-6.5,316.0,-8.0,323.5,-9.0,332.0,-9.5,340.5,-9.5,348.5,-10.0,357.5,-10.5,366.0,-11.0,374.0,-11.0,381.5,-10.5,389.5,-10.0,397.5,-10.5,405.5,-11.0,413.5,-11.5,421.5,-12.0,429.5,-13.0,437.5,-13.5,445.5,-14.0,453.0,-14.0,460.5,-14.5,468.0,-14.5,475.5,-15.0,483.0,-15.5,491.0,-16.0,499.5,-16.5,508.0,-17.0,516.0,-17.5" stroke="black" stroke-width="2" fill="none" />
<polyline points="515.5,-27.5,507.5,-27.0,500.0,-26.5,492.0,-26.5,484.0,-26.5,476.0,-25.5,468.0,-24.5,459.5,-23.0,451.0,-22.5,443.5,-22.0,436.0,-21.5,428.0,-21.0,420.0,-20.5,412.0,-20.0,404.0,-20.0,396.0,-19.5,388.0,-19.0,380.5,-19.0,373.0,-18.5,365.5,-17.5,357.5,-17.0,349.0,-16.5,340.5,-15.5,332.5,-14.5,324.0,-14.0,316.5,-13.5,309.0,-13.0,301.0,-12.0,293.5,-11.5,285.5,-11.0,277.0,-10.0,268.5,-10.0,260.0,-9.5,251.5,-8.5,243.5,-8.0,236.0,-7.5,228.0,-7.0,219.5,-6.5,211.5,-5.5,203.0,-4.5,194.5,-4.5,186.0,-4.5,178.0,-4.0,170.0,-3.5,162.0,-2.5,154.0,-2.5,146.5,-2.0,138.5,-2.0,130.5,-1.5,123.0,-1.0,115.0,-0.5,107.5,0.5,99.5,1.0,91.0,2.0,83.5,2.5,75.0,3.0,67.0,3.5,59.0,4.0,51.5,4.0,44.0,4.5,36.5,5.0,28.5,5.0,20.5,5.0,12.0,5.5,4.0,5.5" stroke="black" stroke-width="2" fill="none" />
<polyline points="73.0,119.5,81.0,119.0,89.0,118.0,96.5,118.0,104.5,119.5,112.5,120.0,120.0,119.5,128.0,119.5,135.5,119.5,144.0,120.0,152.0,119.0,160.0,119.0,168.0,118.5,176.0,119.0,184.0,119.0,192.0,119.5,200.5,119.5,209.0,119.5,217.0,119.5,225.5,120.0,229.5,122.0,231.5,129.5,231.5,137.5,232.0,145.0,231.5,153.0,236.5,151.0,244.5,139.5,252.5,129.5,261.0,119.0,269.5,108.0,277.5,98.0,281.5,89.0,289.0,83.5,297.5,74.0,305.5,64.5,313.5,54.5,322.0,45.0,330.0,35.0,338.0,28.0,346.0,32.0,354.0,38.0,361.5,44.0,370.0,52.0,378.0,58.5,386.0,64.0,394.0,71.0,402.0,77.0,410.0,83.0,418.0,90.0,426.0,96.5,434.0,103.5,442.0,110.0,450.0,116.0,458.0,123.0" stroke="black" stroke-width="2" fill="none" />
<polyline points="394.5,157.0,386.5,158.0,378.0,159.5,370.0,160.5,362.5,162.0,354.5,163.0,346.5,163.5" stroke="black" stroke-width="2" fill="none" />
<polyline points="343.5,161.0,351.5,161.0,360.0,160.0,368.0,158.0,376.0,157.0,384.0,156.5,392.5,154.5" stroke="black" stroke-width="2" fill="none" />
<polyline points="382.0,74.0,363.0,78.0,352.5,85.5,341.5,93.5,329.5,101.5,316.0,109.5,309.5,115.5,295.5,123.5,285.5,127.5,293.5,121.5" stroke="black" stroke-width="2" fill="none" />
<polyline points="309.5,81.5,301.5,89.0,293.5,97.5,291.5,99.5,283.5,107.5,275.5,117.0,267.5,125.5,259.0,133.5,251.0,142.0,246.0,148.0,254.0,140.0,261.0,132.0,269.5,124.0,276.0,116.0,284.0,108.0,292.0,100.0,300.0,92.0,308.0,83.5,318.0,73.5,326.0,65.5,333.0,57.5,339.0,49.5,332.0,58.5,324.0,67.5,316.0,75.0,323.5,64.0,330.0,56.0,337.0,47.5,334.5,50.5,326.5,60.0,318.5,69.0" stroke="black" stroke-width="2" fill="none" />
<polyline points="353.0,64.5,345.0,72.5,337.5,80.0,328.5,88.5,329.5,87.5,338.0,81.0,345.5,73.0,353.5,64.5" stroke="black" stroke-width="2" fill="none" />
<polyline points="300.0,4.0,292.0,11.5" stroke="black" stroke-width="2" fill="none" />
<polyline points="289.0,4.0,281.5,11.0" stroke="black" stroke-width="2" fill="none" />
<polyline points="285.5,4.5,277.0,12.0,269.0,19.0" stroke="black" stroke-width="2" fill="none" />
<polyline points="260.5,18.5,269.0,11.0,277.0,3.5" stroke="black" stroke-width="2" fill="none" />
<polyline points="166.0,124.0,162.5,132.0,159.5,134.0,158.5,142.0,160.0,150.0,164.0,138.0,174.0,138.0" stroke="black" stroke-width="2" fill="none" />
<polyline points="145.0,126.0,147.0,134.0,146.5,142.0,146.5,150.0,141.5,160.5,145.5,168.5,142.0,176.5,142.0,184.0,139.0,187.0,144.0,202.0,152.0,202.5" stroke="black" stroke-width="2" fill="none" />
<polyline points="75.0,199.0,66.5,199.5" stroke="black" stroke-width="2" fill="none" />
<polyline points="73.5,189.5,73.0,181.0" stroke="black" stroke-width="2" fill="none" />
<polyline points="77.5,178.0,77.0,186.5,84.0,191.5,89.5,197.5,91.0,199.5" stroke="black" stroke-width="2" fill="none" />
<polyline points="83.5,145.5,75.5,145.5,67.5,145.5" stroke="black" stroke-width="2" fill="none" />
<polyline points="66.0,137.5,74.5,137.0,83.0,136.5" stroke="black" stroke-width="2" fill="none" />
<polyline points="82.5,129.0,73.5,129.0,65.5,129.0" stroke="black" stroke-width="2" fill="none" />
<polyline points="85.0,126.5,89.0,129.5,90.0,137.5,88.0,143.5,93.5,143.5,97.5,150.5,101.5,143.5,109.0,140.0" stroke="black" stroke-width="2" fill="none" />
<polyline points="114.5,128.0,122.5,128.0" stroke="black" stroke-width="2" fill="none" />
<polyline points="141.5,124.5,131.5,131.5,132.5,135.0,131.5,143.0,120.0,147.0,123.0,147.0,121.0,161.5,124.5,157.0,132.5,155.5,137.0,144.0" stroke="black" stroke-width="2" fill="none" />
<polyline points="257.0,180.5,257.0,188.5,256.0,196.0,256.5,203.5,256.5,211.5,256.5,219.5,256.5,227.5,256.0,235.5,256.0,243.5,256.0,251.5,256.0,259.5,256.0,267.5,257.0,275.5,257.0,284.0,253.5,292.0,253.5,300.0,258.5,308.0" stroke="black" stroke-width="2" fill="none" />
<polyline points="72.5,269.5,64.5,276.5,57.0,283.5,49.0,290.5,41.5,298.0,33.5,305.0,26.0,312.5,18.0,320.0,10.5,328.0,2.5,335.5" stroke="black" stroke-width="2" fill="none" />
<polyline points="3.0,326.5,11.5,319.0,19.5,311.5,27.0,304.0,34.5,296.5,42.5,289.5,50.0,282.0,57.5,274.5,65.0,267.0,73.0,260.0" stroke="black" stroke-width="2" fill="none" />
<polyline points="52.0,318.0,44.5,319.0,37.0,319.5,29.0,320.0,21.5,321.0,13.0,322.0,5.0,323.0" stroke="black" stroke-width="2" fill="none" />
<polyline points="2.0,314.0,10.0,313.5,18.0,313.5,26.5,313.0,35.5,312.5" stroke="black" stroke-width="2" fill="none" />
<polyline points="34.0,303.5,26.0,304.5,18.0,305.5,10.0,306.0,2.0,307.0" stroke="black" stroke-width="2" fill="none" />
<polyline points="3.5,296.5,11.0,296.0,19.5,296.0,27.5,295.5" stroke="black" stroke-width="2" fill="none" />
<polyline points="28.5,288.0,21.0,288.0,13.5,288.5,6.0,288.5" stroke="black" stroke-width="2" fill="none" />
<polyline points="4.0,265.5,12.0,264.5,20.0,264.0" stroke="black" stroke-width="2" fill="none" />
</svg>