<svg xmlns="http://www.w3.org/2000/svg" version="1.1"><polyline points="327.5,20.0,322.5,28.5,318.5,36.5,313.5,45.0,308.5,53.0,303.5,61.0,298.0,69.0,293.0,77.5,286.0,85.5,287.0,87.5,283.0,95.5,278.0,103.5,273.0,111.0,268.0,119.0,264.0,127.0,259.0,134.5,254.5,142.5,249.5,151.0,248.5,159.0,249.5,167.0,249.0,175.5,250.0,183.0" stroke="black" stroke-width="2" fill="none" />
<polyline points="243.5,189.0,235.5,197.0" stroke="black" stroke-width="2" fill="none" />
<polyline points="235.0,203.5,243.0,196.0" stroke="black" stroke-width="2" fill="none" />
<polyline points="242.5,205.5,234.5,213.5" stroke="black" stroke-width="2" fill="none" />
<polyline points="236.5,214.5,244.5,214.0,252.0,213.0" stroke="black" stroke-width="2" fill="none" />
<polyline points="251.5,221.0,243.5,222.0,235.5,222.5" stroke="black" stroke-width="2" fill="none" />
<polyline points="236.0,226.0,228.0,234.0" stroke="black" stroke-width="2" fill="none" />
<polyline points="236.0,238.0,244.0,230.5" stroke="black" stroke-width="2" fill="none" />
<polyline points="252.0,229.5,244.5,229.5,236.0,230.5,227.5,231.0,219.5,231.5,211.5,231.5,203.5,232.0,196.0,233.0,188.5,234.0,180.0,234.5,172.0,235.0,163.5,235.5,155.5,236.0,147.5,236.0,140.0,236.0,132.0,236.5,124.0,237.0,116.0,237.5,108.0,237.5,99.5,238.5,91.5,239.0,83.5,239.5,75.5,239.5,67.0,239.5,58.5,240.0,50.0,240.5,41.5,241.0,33.5,241.5,26.0,242.0,18.0,242.5,10.0,243.5,2.5,244.0" stroke="black" stroke-width="2" fill="none" />
<polyline points="2.5,249.0,10.5,242.0,18.5,234.5,26.5,227.0,34.0,219.0,42.5,211.0" stroke="black" stroke-width="2" fill="none" />
<polyline points="42.5,205.5,34.5,213.0,26.5,220.0,18.5,227.0,11.0,234.0,3.0,241.0" stroke="black" stroke-width="2" fill="none" />
<polyline points="2.5,237.0,10.5,236.5,18.5,235.5,26.5,234.5,34.0,233.5,41.0,233.0,49.5,232.5,57.5,232.5,65.5,232.0,74.5,231.5,82.5,231.0,90.5,231.0,98.5,230.5,107.0,230.0,115.5,230.0,124.0,229.5,132.0,229.5,140.5,229.5,148.5,229.5,155.5,229.0,163.5,228.5,171.5,228.0,179.5,227.0,187.5,226.0,195.5,225.0,203.5,224.5,211.5,224.0,219.5,224.0,227.5,223.5,235.0,223.5,243.5,222.5,251.5,222.0" stroke="black" stroke-width="2" fill="none" />
<polyline points="252.5,231.0,252.5,239.0,252.5,247.0,252.5,255.0,253.0,263.0,253.0,270.5,253.0,278.5,253.0,286.5,253.0,294.0,253.0,302.0,254.5,310.5,255.5,318.5,261.0,319.5,268.5,320.0,276.5,317.0,284.5,317.5,292.5,318.0,301.0,318.0,309.0,318.5,317.0,318.5,325.0,318.5,336.5,319.5,347.0,321.5,355.0,320.5,362.5,320.5,370.5,317.5,371.0,320.0,379.0,320.0,386.5,319.5,394.5,320.5,402.5,321.0,411.0,320.5" stroke="black" stroke-width="2" fill="none" />
<polyline points="413.5,322.5,405.0,330.0,396.5,338.0" stroke="black" stroke-width="2" fill="none" />
<polyline points="403.0,334.5,411.0,326.0,419.5,318.5,428.0,311.0,436.5,304.0,444.5,296.5,452.5,288.5,460.5,281.0,468.5,273.0,476.0,265.5,484.0,257.5,492.0,249.5,500.0,242.0,507.5,234.5,515.5,227.0" stroke="black" stroke-width="2" fill="none" />
<polyline points="515.0,236.5,507.0,244.0,499.0,251.5,491.0,259.0,483.5,266.5,475.5,273.0,467.5,281.0,459.0,288.5,451.5,296.5,443.5,304.0,436.0,311.0,428.0,319.0,420.0,326.0,412.0,333.5" stroke="black" stroke-width="2" fill="none" />
<polyline points="419.0,333.5,426.5,325.5,434.5,318.0,442.5,311.0,450.5,304.0,459.0,297.0,467.0,289.0,475.0,281.5,482.5,274.0,490.5,267.0,499.0,259.5,507.5,252.0,515.5,245.0" stroke="black" stroke-width="2" fill="none" />
<polyline points="517.0,252.0,509.0,259.5,500.0,267.0,492.0,274.5,484.0,282.0,476.0,289.5,468.0,296.5,459.5,303.5,451.0,310.5,442.5,317.5,435.0,324.5,427.0,332.5" stroke="black" stroke-width="2" fill="none" />
<polyline points="450.0,336.0,458.0,328.5,466.0,320.5,474.5,313.0,482.5,305.5,491.0,298.0,499.0,290.5,507.0,283.5,515.5,276.0" stroke="black" stroke-width="2" fill="none" />
<polyline points="515.0,285.5,506.5,293.0,499.0,300.0,490.5,307.0,482.0,314.0,474.0,321.0,465.5,328.0,457.5,335.0" stroke="black" stroke-width="2" fill="none" />
<polyline points="459.5,329.5,467.5,329.0,475.5,329.0,483.5,329.0,491.5,328.5,500.0,328.0,508.0,327.5,516.0,327.0" stroke="black" stroke-width="2" fill="none" />
<polyline points="517.0,330.0,509.0,337.5" stroke="black" stroke-width="2" fill="none" />
<polyline points="501.0,338.0,508.5,331.0,516.0,323.5" stroke="black" stroke-width="2" fill="none" />
<polyline points="516.0,315.5,508.5,323.0,500.5,331.0,493.0,338.5" stroke="black" stroke-width="2" fill="none" />
<polyline points="484.0,338.0,492.0,330.0,499.5,322.0,507.5,314.0,515.5,307.0" stroke="black" stroke-width="2" fill="none" />
<polyline points="514.5,299.0,506.5,306.5,498.5,313.5,490.0,321.0,481.0,329.0,473.0,337.0" stroke="black" stroke-width="2" fill="none" />
<polyline points="466.5,336.0,474.5,328.5,482.5,321.0,490.5,313.5,498.5,306.0,506.5,298.5,514.5,291.0" stroke="black" stroke-width="2" fill="none" />
<polyline points="515.5,290.5,507.0,291.0" stroke="black" stroke-width="2" fill="none" />
<polyline points="514.5,295.5,507.0,296.0,499.5,297.0,492.0,297.5,484.0,298.0" stroke="black" stroke-width="2" fill="none" />
<polyline points="473.5,307.5,481.5,306.5,490.0,305.5,498.0,304.5,506.0,303.5,514.5,303.0" stroke="black" stroke-width="2" fill="none" />
<polyline points="516.0,266.0,508.5,273.5,501.0,281.5,493.5,289.5,485.5,297.5,477.0,305.5,469.0,313.5,460.5,321.5,452.0,329.0,444.0,336.0" stroke="black" stroke-width="2" fill="none" />
<polyline points="450.0,338.0,458.0,337.5,466.0,337.5,474.5,337.0,483.0,336.0,491.5,335.5,499.0,335.0,506.5,334.5,514.5,334.5" stroke="black" stroke-width="2" fill="none" />
<polyline points="516.0,317.5,508.5,318.0,500.5,318.5,492.5,319.0,484.5,319.5,477.0,320.0,469.5,320.5" stroke="black" stroke-width="2" fill="none" />
<polyline points="467.5,314.5,475.5,314.0,483.5,314.0,491.5,313.0,500.0,312.0,508.0,311.0,516.0,310.0" stroke="black" stroke-width="2" fill="none" />
<polyline points="516.0,259.5,508.0,267.5,500.0,275.5,492.5,283.0,485.0,290.0,477.0,297.5,468.5,305.0,460.0,313.0,451.5,320.5,443.5,327.5,435.5,335.0" stroke="black" stroke-width="2" fill="none" />
<polyline points="419.5,315.5,427.5,307.5,435.5,299.5,443.5,291.5,452.0,283.5" stroke="black" stroke-width="2" fill="none" />
<polyline points="444.5,284.5,452.5,277.5,461.0,270.5" stroke="black" stroke-width="2" fill="none" />
<polyline points="460.5,273.0,468.5,264.5,476.5,256.0,484.0,248.5,492.0,240.5,500.0,232.5,507.5,224.5,515.5,217.0" stroke="black" stroke-width="2" fill="none" />
<polyline points="516.5,211.0,508.0,219.0,500.0,226.0,491.5,233.5,483.0,241.0,475.0,248.0,467.5,256.0" stroke="black" stroke-width="2" fill="none" />
<polyline points="467.0,248.0,475.0,241.0,483.0,233.5,491.0,226.5,499.5,219.5,508.5,212.5,516.5,205.0" stroke="black" stroke-width="2" fill="none" />
<polyline points="516.0,197.0,508.0,204.0,499.5,211.0" stroke="black" stroke-width="2" fill="none" />
<polyline points="499.5,203.0,507.5,196.0,515.0,188.0" stroke="black" stroke-width="2" fill="none" />
<polyline points="508.0,188.0,515.5,180.5" stroke="black" stroke-width="2" fill="none" />
<polyline points="515.0,174.0,507.0,181.5" stroke="black" stroke-width="2" fill="none" />
<polyline points="506.5,172.5,514.0,165.0" stroke="black" stroke-width="2" fill="none" />
<polyline points="507.0,164.0,515.5,157.0" stroke="black" stroke-width="2" fill="none" />
<polyline points="508.0,156.5,516.0,148.5" stroke="black" stroke-width="2" fill="none" />
<polyline points="516.0,139.5,508.5,147.0,501.0,154.0" stroke="black" stroke-width="2" fill="none" />
<polyline points="500.5,147.5,508.5,139.5,516.0,132.0" stroke="black" stroke-width="2" fill="none" />
<polyline points="514.0,125.0,506.0,131.5,498.0,139.0" stroke="black" stroke-width="2" fill="none" />
<polyline points="491.0,137.0,499.0,129.5,507.0,122.0,515.0,115.0" stroke="black" stroke-width="2" fill="none" />
<polyline points="515.5,105.5,507.0,113.0,499.0,120.5,491.5,128.0,483.5,135.5" stroke="black" stroke-width="2" fill="none" />
<polyline points="484.5,128.0,492.5,120.5,500.0,113.0,508.0,105.5,516.0,98.0" stroke="black" stroke-width="2" fill="none" />
<polyline points="517.5,89.0,509.5,97.0,501.5,104.5,493.0,112.0,484.5,119.5" stroke="black" stroke-width="2" fill="none" />
<polyline points="477.0,120.0,484.5,112.5,493.0,104.5,501.5,97.0,509.0,89.5,516.5,82.0" stroke="black" stroke-width="2" fill="none" />
<polyline points="515.0,74.5,507.5,82.0,499.5,89.0,491.5,96.5,484.5,104.5,476.5,112.0,469.0,119.5" stroke="black" stroke-width="2" fill="none" />
<polyline points="468.0,126.0,475.5,125.5,483.0,125.0,491.0,125.0,499.0,124.5,506.5,125.0,515.0,124.5" stroke="black" stroke-width="2" fill="none" />
<polyline points="517.5,163.0,509.5,163.5,501.5,164.0,493.5,165.0,485.5,165.5,477.5,166.0" stroke="black" stroke-width="2" fill="none" />
<polyline points="474.5,173.5,483.0,173.0,491.5,172.5,500.0,172.0,508.5,172.0,516.5,171.0" stroke="black" stroke-width="2" fill="none" />
<polyline points="515.0,197.0,506.5,197.5,498.0,198.0,490.0,199.0,481.5,199.5,473.0,200.0" stroke="black" stroke-width="2" fill="none" />
<polyline points="467.0,205.5,475.5,205.0,484.0,204.0,492.0,203.5,500.0,203.5,508.5,203.0,516.0,203.0" stroke="black" stroke-width="2" fill="none" />
<polyline points="485.5,227.0,477.5,234.0" stroke="black" stroke-width="2" fill="none" />
<polyline points="466.0,232.0,474.5,231.0,482.5,230.5,491.0,229.5,499.5,228.0,508.0,226.5,516.5,226.0" stroke="black" stroke-width="2" fill="none" />
<polyline points="514.5,188.5,506.5,189.0,498.5,189.0,490.5,189.5,482.5,190.5,474.5,191.5" stroke="black" stroke-width="2" fill="none" />
<polyline points="467.5,182.0,475.5,181.5,483.5,180.5,491.0,180.0,499.0,179.5,506.5,179.0,514.0,178.5" stroke="black" stroke-width="2" fill="none" />
<polyline points="515.5,138.5,507.5,139.0,500.5,139.5,492.5,140.0,485.0,141.0,477.0,141.0" stroke="black" stroke-width="2" fill="none" />
<polyline points="476.0,133.0,484.0,133.0,492.0,132.5,500.0,132.0,508.0,131.5,515.5,131.0" stroke="black" stroke-width="2" fill="none" />
<polyline points="476.5,105.0,484.0,97.0,491.0,89.0,498.5,81.0,506.0,73.5,514.0,66.0" stroke="black" stroke-width="2" fill="none" />
<polyline points="516.0,59.5,508.0,67.5,500.0,75.5,492.0,82.5,484.0,89.5,476.0,97.0" stroke="black" stroke-width="2" fill="none" />
<polyline points="467.5,96.0,475.0,88.5,483.5,81.0,491.0,74.0,499.0,67.0,507.0,60.0,515.0,52.5" stroke="black" stroke-width="2" fill="none" />
<polyline points="516.0,44.0,508.0,51.5,500.0,59.5,491.0,67.0,482.0,74.0,474.0,81.5,465.5,88.5" stroke="black" stroke-width="2" fill="none" />
<polyline points="458.0,88.0,466.0,81.0,474.0,73.5,482.0,66.0,490.5,58.5,498.5,51.0,507.0,43.5,515.0,36.0" stroke="black" stroke-width="2" fill="none" />
<polyline points="514.5,29.5,506.5,37.0,499.0,44.0,491.5,51.5,484.0,59.0,476.0,66.5,467.5,74.0,459.0,81.5,450.5,89.0" stroke="black" stroke-width="2" fill="none" />
<polyline points="452.0,93.5,460.0,93.0,467.5,92.5,475.0,92.0,483.0,91.5,491.0,91.5,499.0,91.0,507.5,90.0,516.0,89.0" stroke="black" stroke-width="2" fill="none" />
<polyline points="513.0,50.0,505.0,50.5" stroke="black" stroke-width="2" fill="none" />
<polyline points="500.5,41.0,508.0,40.5,516.0,40.5" stroke="black" stroke-width="2" fill="none" />
<polyline points="515.5,21.0,507.5,28.5,499.5,36.0,491.5,43.5,484.0,51.0,476.0,58.5,467.5,66.0,459.5,73.5,451.5,80.5" stroke="black" stroke-width="2" fill="none" />
<polyline points="444.5,77.5,452.0,70.5,460.0,64.0,467.5,57.0,475.0,50.0,483.5,43.0,491.5,36.0,500.0,28.5,508.5,21.0,516.5,13.0" stroke="black" stroke-width="2" fill="none" />
<polyline points="516.0,4.5,508.0,12.0,500.0,19.0,492.5,26.5,484.5,33.5,476.5,41.0,469.0,49.0,460.5,57.0,452.5,64.5,444.0,71.5" stroke="black" stroke-width="2" fill="none" />
<polyline points="436.5,71.5,444.0,63.5,452.0,55.5,460.0,48.0,468.0,41.0,476.0,32.5,484.0,24.5,492.0,17.0,499.5,9.5,508.0,2.5" stroke="black" stroke-width="2" fill="none" />
<polyline points="500.5,3.0,492.5,10.5,484.5,18.0,476.5,26.0,468.0,33.5,460.0,41.0,452.0,48.5,443.5,56.5,435.5,64.0,427.5,72.0" stroke="black" stroke-width="2" fill="none" />
<polyline points="427.5,75.0,436.0,74.5,444.5,74.5,452.5,74.0,461.5,73.5,470.0,73.0,478.0,73.0,485.5,73.5,493.5,74.0,501.5,73.5,509.5,73.0,517.5,72.5" stroke="black" stroke-width="2" fill="none" />
<polyline points="515.0,31.0,507.5,31.0,500.0,31.0,492.0,31.5" stroke="black" stroke-width="2" fill="none" />
<polyline points="476.5,25.0,484.0,24.5,491.5,23.5,499.5,23.0,507.0,22.5,515.0,22.0" stroke="black" stroke-width="2" fill="none" />
<polyline points="492.0,2.5,484.0,10.0,475.5,17.5,467.5,25.5,459.5,33.5,451.5,41.5,442.5,49.0,434.5,57.0,426.5,64.5" stroke="black" stroke-width="2" fill="none" />
<polyline points="429.0,53.5,437.0,46.5,445.0,38.5,453.0,31.0,460.5,24.0,468.5,17.0,476.0,10.0,483.5,3.0" stroke="black" stroke-width="2" fill="none" />
<polyline points="476.5,3.0,468.5,10.5,461.5,18.0,453.5,26.0,445.5,33.5,437.0,41.0,429.5,48.5,421.5,55.5" stroke="black" stroke-width="2" fill="none" />
<polyline points="420.5,50.5,428.5,43.5,436.5,36.0,444.5,28.5,452.5,21.0,461.0,13.5,469.5,6.0" stroke="black" stroke-width="2" fill="none" />
<polyline points="461.0,4.5,453.0,12.5,445.0,20.0,437.0,27.5,429.0,34.5,421.0,42.0,412.5,50.0" stroke="black" stroke-width="2" fill="none" />
<polyline points="411.0,41.5,419.0,33.5,427.5,25.5,435.5,18.5,444.0,11.0,452.0,4.0" stroke="black" stroke-width="2" fill="none" />
<polyline points="445.0,3.0,436.5,10.5,428.0,18.5,420.0,26.5,411.5,34.0,403.0,41.5" stroke="black" stroke-width="2" fill="none" />
<polyline points="403.0,32.5,411.0,25.0,419.5,17.0,428.5,9.5,436.5,2.0" stroke="black" stroke-width="2" fill="none" />
<polyline points="426.5,3.0,418.5,11.0,411.0,19.5,403.0,27.5,395.0,35.0" stroke="black" stroke-width="2" fill="none" />
<polyline points="387.5,35.0,396.0,27.5,405.0,20.5,413.0,13.5,421.0,6.0" stroke="black" stroke-width="2" fill="none" />
<polyline points="411.0,2.0,403.0,10.0,394.5,17.5,386.5,24.5" stroke="black" stroke-width="2" fill="none" />
<polyline points="378.0,27.0,386.0,20.0,393.0,12.5,401.0,4.5" stroke="black" stroke-width="2" fill="none" />
<polyline points="397.5,3.0,389.5,10.5,381.0,18.5" stroke="black" stroke-width="2" fill="none" />
<polyline points="372.0,18.5,380.0,10.0,388.0,2.5" stroke="black" stroke-width="2" fill="none" />
<polyline points="380.0,5.5,371.5,12.5,364.0,19.5" stroke="black" stroke-width="2" fill="none" />
<polyline points="354.5,17.5,363.0,9.5,371.5,1.5" stroke="black" stroke-width="2" fill="none" />
<polyline points="361.0,4.0,353.5,11.0" stroke="black" stroke-width="2" fill="none" />
<polyline points="357.5,4.5,349.0,12.0,341.0,19.0" stroke="black" stroke-width="2" fill="none" />
<polyline points="332.0,19.5,339.5,12.0,347.0,4.5" stroke="black" stroke-width="2" fill="none" />
<polyline points="341.0,3.5,333.0,11.0" stroke="black" stroke-width="2" fill="none" />
<polyline points="329.5,5.0,321.5,12.5" stroke="black" stroke-width="2" fill="none" />
<polyline points="314.5,11.0,322.5,3.5" stroke="black" stroke-width="2" fill="none" />
<polyline points="315.5,3.5,307.5,11.0,298.5,19.0" stroke="black" stroke-width="2" fill="none" />
<polyline points="293.5,18.5,301.5,11.5,309.0,4.5" stroke="black" stroke-width="2" fill="none" />
<polyline points="301.0,3.0,293.5,10.5,285.5,18.5,277.5,26.0" stroke="black" stroke-width="2" fill="none" />
<polyline points="260.5,32.5,268.5,24.5,276.5,17.0,284.5,10.0,292.5,3.0" stroke="black" stroke-width="2" fill="none" />
<polyline points="282.5,4.5,274.5,11.5,266.5,18.5,259.0,25.5,251.0,33.0" stroke="black" stroke-width="2" fill="none" />
<polyline points="244.0,35.0,252.0,27.0,260.5,19.0,268.5,11.5,276.5,3.5" stroke="black" stroke-width="2" fill="none" />
<polyline points="269.5,4.5,261.5,11.5,254.0,19.0,246.0,26.5,238.0,34.5" stroke="black" stroke-width="2" fill="none" />
<polyline points="229.0,33.5,237.0,26.0,244.5,18.5,252.5,11.0,260.5,3.5" stroke="black" stroke-width="2" fill="none" />
<polyline points="253.0,5.0,244.5,12.5,236.5,19.5,228.5,26.5,220.5,33.5,212.5,40.5" stroke="black" stroke-width="2" fill="none" />
<polyline points="202.5,42.5,210.5,35.0,218.5,27.0,226.0,19.0,234.0,11.0,242.0,3.5" stroke="black" stroke-width="2" fill="none" />
<polyline points="234.0,3.0,226.5,10.5,219.0,18.0,211.5,25.5,204.0,33.5,196.0,41.0" stroke="black" stroke-width="2" fill="none" />
<polyline points="180.0,48.0,188.0,40.0,196.0,32.5,203.5,25.0,210.5,17.5,218.0,10.0,225.5,2.5" stroke="black" stroke-width="2" fill="none" />
<polyline points="220.0,2.5,212.5,10.0,204.5,18.0,196.0,25.5,186.5,32.5,178.0,39.5,169.5,47.0" stroke="black" stroke-width="2" fill="none" />
<polyline points="157.0,56.0,164.5,48.5,172.5,40.5,180.0,33.0,188.0,25.5,195.5,18.0,203.5,10.5,211.5,2.5" stroke="black" stroke-width="2" fill="none" />
<polyline points="205.5,4.5,197.0,12.0,188.5,19.5,180.0,26.5,172.0,33.5,163.5,41.0,155.5,49.0,147.5,57.0,139.5,65.0" stroke="black" stroke-width="2" fill="none" />
<polyline points="99.0,94.0,107.0,86.5,115.0,79.0,123.0,71.0,130.5,63.5,138.5,56.5,146.5,49.0,155.0,41.5,163.0,33.5,171.0,26.0,179.0,18.0,187.5,10.5,196.0,3.5" stroke="black" stroke-width="2" fill="none" />
<polyline points="188.5,3.0,180.0,10.5,172.0,17.5,163.5,25.0,155.0,33.0,147.0,40.5,138.5,48.0,130.5,55.5,123.0,63.5,116.0,71.5,108.0,79.0,100.0,86.5,91.5,93.5,83.5,101.5,75.0,109.0,67.5,117.0,59.5,124.0,52.0,131.5,44.5,139.0,37.0,146.0,29.0,153.5,21.0,161.0,12.5,168.5,4.0,175.5" stroke="black" stroke-width="2" fill="none" />
<polyline points="2.5,174.5,10.5,174.0,18.5,174.0,26.5,173.5,34.5,172.5,43.0,172.0,50.5,171.0,58.0,170.5,66.0,170.0,74.0,169.5,82.0,168.5" stroke="black" stroke-width="2" fill="none" />
<polyline points="85.5,166.5,93.5,169.5,101.0,167.0" stroke="black" stroke-width="2" fill="none" />
<polyline points="107.5,166.5,116.0,166.0,124.0,165.5,132.0,165.0,139.5,164.0,147.0,163.5" stroke="black" stroke-width="2" fill="none" />
<polyline points="147.5,164.5,139.5,172.0,131.0,179.5" stroke="black" stroke-width="2" fill="none" />
<polyline points="131.5,176.5,130.5,184.5,126.0,192.5,128.0,201.0,135.5,202.0,133.5,205.0,140.5,203.5" stroke="black" stroke-width="2" fill="none" />
<polyline points="143.0,208.5,139.5,209.5,134.5,216.0,136.0,222.0" stroke="black" stroke-width="2" fill="none" />
<polyline points="131.0,212.0,123.0,219.5" stroke="black" stroke-width="2" fill="none" />
<polyline points="124.0,213.0,115.5,220.5" stroke="black" stroke-width="2" fill="none" />
<polyline points="116.0,226.5,108.0,234.0" stroke="black" stroke-width="2" fill="none" />
<polyline points="108.5,227.5,100.5,235.0" stroke="black" stroke-width="2" fill="none" />
<polyline points="99.0,227.0,91.0,235.0" stroke="black" stroke-width="2" fill="none" />
<polyline points="85.0,236.5,93.0,236.5,101.0,236.0,109.0,237.0,117.0,237.0,125.0,237.0,133.0,237.5,141.0,237.5,148.5,237.5,157.0,237.0,165.0,237.0,173.0,237.0,180.5,238.5,188.5,238.5,196.5,238.5,205.0,238.5,212.5,238.5,220.5,239.0,228.5,239.5" stroke="black" stroke-width="2" fill="none" />
<polyline points="220.5,229.0,212.0,236.5" stroke="black" stroke-width="2" fill="none" />
<polyline points="205.0,235.5,213.0,228.0" stroke="black" stroke-width="2" fill="none" />
<polyline points="204.5,228.0,196.5,235.0" stroke="black" stroke-width="2" fill="none" />
<polyline points="196.5,227.0,188.5,234.5" stroke="black" stroke-width="2" fill="none" />
<polyline points="187.5,225.5,179.0,233.5" stroke="black" stroke-width="2" fill="none" />
<polyline points="164.5,227.0,156.0,235.0" stroke="black" stroke-width="2" fill="none" />
<polyline points="146.5,227.5,138.5,227.0,130.5,227.5,133.0,221.5,126.5,226.0,127.5,218.0,132.5,204.5,129.0,196.5" stroke="black" stroke-width="2" fill="none" />
<polyline points="131.0,196.0,123.0,196.0,115.0,196.5,106.5,197.0,98.0,197.5" stroke="black" stroke-width="2" fill="none" />
<polyline points="103.5,196.5,111.5,195.5" stroke="black" stroke-width="2" fill="none" />
<polyline points="109.5,190.0,117.0,189.5,125.0,189.0,132.5,188.5" stroke="black" stroke-width="2" fill="none" />
<polyline points="136.5,189.0,144.5,191.5" stroke="black" stroke-width="2" fill="none" />
<polyline points="147.5,196.5,140.0,196.5,133.0,197.0,125.0,197.5,117.5,198.0,109.0,199.0,100.5,200.0,92.0,200.5,84.0,200.5,76.0,201.0,68.5,201.5,60.5,201.5,52.0,202.0,44.0,202.5,35.5,203.0,27.5,203.5,19.5,204.0,12.5,204.5,4.5,204.5" stroke="black" stroke-width="2" fill="none" />
<polyline points="3.0,199.5,11.0,199.0,19.0,198.5,27.0,198.0,35.0,197.5,43.0,197.0,51.5,196.0,60.0,195.0,68.5,194.0,77.0,193.0,85.5,193.0" stroke="black" stroke-width="2" fill="none" />
<polyline points="92.0,195.5,99.0,195.5,94.0,203.5,101.5,213.5,100.0,221.5,104.0,227.5,104.0,230.0,107.0,228.0,115.0,228.0,124.0,231.0,132.5,231.0,140.5,231.0,148.5,231.0,156.5,231.0,164.0,228.0,171.0,224.5" stroke="black" stroke-width="2" fill="none" />
<polyline points="188.0,206.5,196.0,206.0,204.0,206.0" stroke="black" stroke-width="2" fill="none" />
<polyline points="203.5,201.5,213.5,207.5,208.0,212.5,200.5,219.0,194.5,226.0,200.0,225.5" stroke="black" stroke-width="2" fill="none" />
<polyline points="189.0,221.5,188.5,213.5,187.5,197.5,191.0,188.5,194.0,187.5,195.0,175.5,198.0,184.5,196.0,188.0" stroke="black" stroke-width="2" fill="none" />
<polyline points="195.5,194.0,203.0,193.5" stroke="black" stroke-width="2" fill="none" />
<polyline points="203.0,201.5,211.0,193.5,218.5,185.5,226.5,178.0" stroke="black" stroke-width="2" fill="none" />
<polyline points="226.5,181.0,227.5,179.0,226.0,181.0,224.0,189.0,227.0,189.0,229.0,198.5,235.5,201.5,235.5,209.5" stroke="black" stroke-width="2" fill="none" />
<polyline points="236.0,207.0,244.0,206.5,251.5,206.0" stroke="black" stroke-width="2" fill="none" />
<polyline points="251.5,197.0,243.5,197.5,235.5,198.0,227.5,199.0" stroke="black" stroke-width="2" fill="none" />
<polyline points="226.0,196.5,233.5,188.5,241.0,181.0" stroke="black" stroke-width="2" fill="none" />
<polyline points="243.0,171.5,235.0,179.0,226.5,187.0,218.5,195.0" stroke="black" stroke-width="2" fill="none" />
<polyline points="218.5,195.5,215.5,203.5,221.5,211.0,212.0,219.0,206.0,221.0,209.0,228.5,216.5,228.5,217.5,226.5,222.0,228.5" stroke="black" stroke-width="2" fill="none" />
<polyline points="216.0,224.0,219.5,215.5,222.0,208.5,214.0,215.5,213.0,219.5,205.0,227.5,197.0,227.5,188.0,224.0,187.0,219.5,193.0,215.5,199.5,214.5,196.5,209.0,198.5,201.5,214.0,194.0,211.0,186.0,208.5,184.0" stroke="black" stroke-width="2" fill="none" />
<polyline points="211.5,186.0,219.5,185.5,227.5,184.5" stroke="black" stroke-width="2" fill="none" />
<polyline points="223.5,186.5,230.5,182.5,232.5,190.5" stroke="black" stroke-width="2" fill="none" />
<polyline points="220.5,194.0,212.0,194.0,204.0,194.0,195.0,194.0,186.5,194.0,178.0,194.5,170.0,195.0" stroke="black" stroke-width="2" fill="none" />
<polyline points="172.5,194.5,180.5,187.0,188.5,180.0,196.5,172.5" stroke="black" stroke-width="2" fill="none" />
<polyline points="202.5,170.5,195.0,178.0,186.5,185.5,178.5,194.0" stroke="black" stroke-width="2" fill="none" />
<polyline points="178.5,193.0,186.5,193.0" stroke="black" stroke-width="2" fill="none" />
<polyline points="188.5,201.5,196.5,194.0,204.0,186.5,212.0,178.5,220.0,171.0" stroke="black" stroke-width="2" fill="none" />
<polyline points="212.0,171.5,204.0,179.0,196.0,186.5,188.0,194.5" stroke="black" stroke-width="2" fill="none" />
<polyline points="189.5,201.5,197.5,204.5,203.5,197.5,210.0,187.0,217.0,192.0,220.0,194.0,228.0,196.0" stroke="black" stroke-width="2" fill="none" />
<polyline points="223.0,200.0,215.0,198.0" stroke="black" stroke-width="2" fill="none" />
<polyline points="220.5,196.0,229.5,204.0,234.5,212.0,234.5,220.0,234.5,228.0,229.5,229.5" stroke="black" stroke-width="2" fill="none" />
<polyline points="229.0,206.0,221.0,206.0,213.0,206.5" stroke="black" stroke-width="2" fill="none" />
<polyline points="208.5,211.0,204.5,209.5,191.0,208.5,183.5,201.0,175.5,194.5" stroke="black" stroke-width="2" fill="none" />
<polyline points="171.0,186.5,175.0,194.0,176.0,202.0,179.5,209.0" stroke="black" stroke-width="2" fill="none" />
<polyline points="187.5,203.0,195.5,202.5" stroke="black" stroke-width="2" fill="none" />
<polyline points="195.5,202.5,202.5,196.0,210.5,188.5,218.5,181.5" stroke="black" stroke-width="2" fill="none" />
<polyline points="211.0,176.5,203.0,177.0" stroke="black" stroke-width="2" fill="none" />
<polyline points="207.0,166.0,215.0,170.0,223.0,176.0,231.0,177.0" stroke="black" stroke-width="2" fill="none" />
<polyline points="237.0,166.5,245.5,166.0,253.0,165.5" stroke="black" stroke-width="2" fill="none" />
<polyline points="250.5,168.0,242.0,169.0,234.0,169.0,226.5,169.5,219.0,170.5,211.5,171.5,204.5,172.5,196.5,173.0,188.5,173.0,181.0,174.0,173.0,174.5,165.5,174.5" stroke="black" stroke-width="2" fill="none" />
<polyline points="164.0,174.0,162.5,182.5,163.5,190.5,168.5,198.5,172.5,206.0,178.0,214.0,174.0,216.0,178.0,220.5,173.0,223.0,176.5,226.0,179.0,230.0,186.0,229.5,191.0,222.5,199.5,218.0,208.5,219.0,215.0,211.0,225.0,216.5" stroke="black" stroke-width="2" fill="none" />
<polyline points="228.5,230.5,223.0,225.0,220.0,229.5,211.5,229.5,204.0,228.5,195.5,228.5,186.5,227.0,179.0,223.0,172.0,229.0,164.0,229.0,154.5,220.0,151.5,217.5,143.5,209.0,139.5,215.0,139.0,222.0,140.5,214.0,133.5,207.0,143.0,199.0,146.5,185.5,148.0,180.5,165.0,174.0,157.0,175.5,149.0,180.5,141.0,186.5,133.5,192.5" stroke="black" stroke-width="2" fill="none" />
<polyline points="134.0,195.0,142.0,195.0,154.0,190.5,162.0,197.0" stroke="black" stroke-width="2" fill="none" />
<polyline points="164.0,189.5,172.5,189.0,180.5,188.5,188.0,188.0,195.5,187.5,202.5,187.0,211.0,186.5,219.0,186.0,227.0,185.5,235.0,185.0,243.0,185.0,251.0,184.5" stroke="black" stroke-width="2" fill="none" />
<polyline points="250.0,175.0,242.0,175.5,234.0,176.0,226.0,176.0,217.5,177.0,209.5,177.5,202.0,178.0,194.5,179.0,188.0,180.5,180.5,181.5,173.5,182.5,165.5,183.0" stroke="black" stroke-width="2" fill="none" />
<polyline points="169.5,186.5,171.0,194.5,183.0,202.0,188.0,210.0,188.0,218.0" stroke="black" stroke-width="2" fill="none" />
<polyline points="195.5,210.5,187.5,211.5,179.5,212.0,172.0,212.5,164.0,213.0,155.5,213.0,147.5,213.5,139.5,213.5,131.0,213.5,123.0,213.5,114.5,213.5,107.0,213.5,99.0,213.5,91.0,214.0,82.5,214.5,74.5,215.0,67.0,216.0,59.0,216.5,51.5,217.5,43.5,218.5,35.5,219.0,27.0,219.0,19.0,219.0,10.5,219.0,2.5,219.5" stroke="black" stroke-width="2" fill="none" />
<polyline points="4.5,218.5,11.5,211.0,19.5,203.0,27.0,195.5,35.0,188.5,43.0,181.0" stroke="black" stroke-width="2" fill="none" />
<polyline points="43.5,173.0,35.5,180.0,27.5,187.5,19.5,195.0,11.0,202.5,3.5,210.0" stroke="black" stroke-width="2" fill="none" />
<polyline points="4.0,211.5,12.0,211.0,20.0,211.0,28.5,210.5,37.0,209.5,44.5,208.5,52.5,208.0,60.5,207.0,69.0,206.5,77.5,206.0,86.0,205.5,93.5,205.0,101.0,205.0,108.5,205.0,116.5,205.0,124.5,205.0,132.5,205.0,140.5,205.0,149.0,205.0,157.5,204.5,165.0,204.5,173.5,204.0" stroke="black" stroke-width="2" fill="none" />
<polyline points="172.5,185.0,181.0,177.5,189.0,170.0" stroke="black" stroke-width="2" fill="none" />
<polyline points="188.5,175.0,181.0,175.5,173.5,176.0" stroke="black" stroke-width="2" fill="none" />
<polyline points="170.0,172.5,161.5,179.5" stroke="black" stroke-width="2" fill="none" />
<polyline points="161.5,186.5,169.5,179.5,177.5,172.0" stroke="black" stroke-width="2" fill="none" />
<polyline points="185.5,162.5,194.0,165.5,194.5,167.0" stroke="black" stroke-width="2" fill="none" />
<polyline points="195.0,150.0,202.5,149.0" stroke="black" stroke-width="2" fill="none" />
<polyline points="215.5,146.5,221.5,145.0,220.5,142.0" stroke="black" stroke-width="2" fill="none" />
<polyline points="233.0,141.5,241.5,141.0,250.0,141.0" stroke="black" stroke-width="2" fill="none" />
<polyline points="250.5,147.0,242.5,147.0,235.0,147.5" stroke="black" stroke-width="2" fill="none" />
<polyline points="234.5,157.5,242.5,157.0,250.5,156.5" stroke="black" stroke-width="2" fill="none" />
<polyline points="249.5,158.0,250.5,151.0,258.5,137.0,266.5,123.0,274.0,109.0,282.0,95.5,286.0,84.5,294.0,75.0,302.5,61.0,310.5,47.5,318.5,34.5,326.5,20.5,335.0,22.0,343.0,26.0,351.0,30.0,359.0,35.0,367.0,40.0,375.0,45.5,383.0,50.5,391.0,55.0,399.0,60.0,407.0,65.0,415.0,70.0,422.5,74.5,430.0,79.5,438.0,85.0,446.0,90.0,454.0,94.5,462.0,100.0" stroke="black" stroke-width="2" fill="none" />
<polyline points="468.5,103.0,476.5,102.5,484.0,101.5,491.5,101.0,498.5,100.5,506.0,100.0,514.0,99.5" stroke="black" stroke-width="2" fill="none" />
<polyline points="515.0,108.5,508.0,109.5,500.5,109.5,492.5,110.0,484.5,111.0,477.5,110.5,469.5,111.0" stroke="black" stroke-width="2" fill="none" />
<polyline points="458.0,118.0,466.5,117.5,475.0,117.0,483.5,116.5,491.5,115.5,499.5,115.0,508.0,114.0,516.0,114.0" stroke="black" stroke-width="2" fill="none" />
<polyline points="515.5,155.5,508.0,156.0,500.5,156.5,493.0,157.5,485.0,158.0,477.0,158.0,469.5,158.5" stroke="black" stroke-width="2" fill="none" />
<polyline points="468.5,149.0,476.5,149.0,484.5,148.5,492.0,148.5,499.5,148.0,507.0,147.5,515.0,147.0" stroke="black" stroke-width="2" fill="none" />
<polyline points="476.5,173.5,472.5,165.5,466.5,157.5,465.5,148.5,471.0,140.0,472.0,138.0,468.0,129.5,465.5,129.0" stroke="black" stroke-width="2" fill="none" />
<polyline points="452.0,125.5,444.0,125.5" stroke="black" stroke-width="2" fill="none" />
<polyline points="439.5,120.0,447.5,127.0,455.5,135.0" stroke="black" stroke-width="2" fill="none" />
<polyline points="446.0,136.5,454.0,145.5,462.0,157.5,470.0,170.5" stroke="black" stroke-width="2" fill="none" />
<polyline points="464.5,180.5,456.5,166.0,447.0,156.0,443.0,147.5,448.0,139.5,445.0,143.5,437.0,142.0,429.0,134.0" stroke="black" stroke-width="2" fill="none" />
<polyline points="420.5,112.5,428.5,115.5,436.5,123.5,444.5,130.0,452.5,138.5,458.5,147.0,469.0,160.0,477.0,170.0" stroke="black" stroke-width="2" fill="none" />
<polyline points="469.0,185.5,461.0,174.5,456.0,166.5" stroke="black" stroke-width="2" fill="none" />
<polyline points="454.5,167.0,459.0,175.0,463.0,183.0,469.0,191.5,473.0,199.5" stroke="black" stroke-width="2" fill="none" />
<polyline points="466.0,212.0,474.5,211.5,482.5,210.5,490.5,210.5,498.0,210.5,506.0,210.5,514.5,211.0" stroke="black" stroke-width="2" fill="none" />
<polyline points="515.5,220.0,507.0,220.0,498.5,220.5,490.0,220.5,481.5,221.0,474.0,221.5,466.5,222.0" stroke="black" stroke-width="2" fill="none" />
<polyline points="460.0,211.5,468.5,205.5,476.5,197.5" stroke="black" stroke-width="2" fill="none" />
<polyline points="455.5,212.5,457.5,216.5,460.0,225.0,463.0,233.0" stroke="black" stroke-width="2" fill="none" />
<polyline points="458.5,237.0,467.0,236.5,475.0,236.0,483.5,235.5,491.5,234.5,500.0,234.0,508.0,233.0,515.5,232.5" stroke="black" stroke-width="2" fill="none" />
<polyline points="517.0,251.5,508.5,251.5,500.5,251.5,492.0,252.0,484.0,252.0,475.5,251.5,468.0,251.5,460.0,252.0" stroke="black" stroke-width="2" fill="none" />
<polyline points="459.0,246.0,467.0,245.5,475.0,245.0,483.5,244.0,491.5,243.5,499.5,243.0,507.5,242.5,515.5,241.5" stroke="black" stroke-width="2" fill="none" />
<polyline points="513.5,258.0,506.0,258.5,498.0,259.5,490.0,260.5,482.0,261.0,474.5,261.0,466.5,262.0,458.0,263.5,450.0,264.0" stroke="black" stroke-width="2" fill="none" />
<polyline points="450.5,268.5,442.5,276.0" stroke="black" stroke-width="2" fill="none" />
<polyline points="443.5,277.0,452.0,276.5,459.5,276.0,467.5,275.5,475.5,274.5,483.5,274.0,491.5,273.5,499.5,272.0,508.0,271.5,516.0,271.0" stroke="black" stroke-width="2" fill="none" />
<polyline points="516.0,266.0,508.0,266.5,500.5,267.5,492.5,267.5,485.0,268.5,477.0,269.0,469.0,269.0,461.0,269.0,453.0,269.0,445.0,269.0" stroke="black" stroke-width="2" fill="none" />
<polyline points="434.5,283.5,442.5,283.0,451.0,283.0,459.5,283.0,467.5,283.0,475.5,283.0,483.0,283.0,490.5,283.5,498.5,283.0,506.5,282.5,514.5,282.5" stroke="black" stroke-width="2" fill="none" />
<polyline points="516.5,303.0,509.0,304.0,501.0,304.0,493.0,305.0,485.0,306.0,477.0,306.5,469.0,306.5,461.0,307.0,453.0,307.5,445.0,308.0,436.5,308.0,428.5,308.5,420.5,309.0" stroke="black" stroke-width="2" fill="none" />
<polyline points="418.0,305.5,425.5,298.0" stroke="black" stroke-width="2" fill="none" />
<polyline points="420.5,294.5,428.5,294.0,436.5,293.5,444.5,293.0,452.5,292.5,461.0,292.0,468.5,291.5,476.5,290.5,484.5,289.5,492.0,288.5,500.5,288.0,508.0,287.5,515.5,286.5" stroke="black" stroke-width="2" fill="none" />
<polyline points="516.0,295.5,508.0,296.0,500.0,296.0,492.0,296.5,484.0,297.0,476.5,297.0,469.0,297.5,461.5,298.5,453.5,299.0,445.0,299.5,436.5,300.5,428.5,301.5,420.0,302.0" stroke="black" stroke-width="2" fill="none" />
<polyline points="416.0,297.0,424.0,294.5,432.5,292.5" stroke="black" stroke-width="2" fill="none" />
<polyline points="417.5,295.0,416.5,303.0,416.5,311.0,415.5,318.5" stroke="black" stroke-width="2" fill="none" />
<polyline points="403.0,323.0,395.0,330.5,387.5,338.5" stroke="black" stroke-width="2" fill="none" />
<polyline points="380.0,339.0,388.0,331.5,395.5,324.0" stroke="black" stroke-width="2" fill="none" />
<polyline points="389.5,324.0,381.0,331.5,372.5,338.5" stroke="black" stroke-width="2" fill="none" />
<polyline points="364.5,338.5,372.5,331.0,380.0,324.0" stroke="black" stroke-width="2" fill="none" />
<polyline points="372.0,324.0,364.0,331.5,356.0,339.0" stroke="black" stroke-width="2" fill="none" />
<polyline points="346.5,338.0,354.5,331.5,362.0,324.0" stroke="black" stroke-width="2" fill="none" />
<polyline points="356.0,323.0,348.0,330.5,340.0,338.0" stroke="black" stroke-width="2" fill="none" />
<polyline points="333.5,338.5,341.0,331.0,349.0,323.5" stroke="black" stroke-width="2" fill="none" />
<polyline points="339.5,323.5,332.0,331.0,324.0,338.0" stroke="black" stroke-width="2" fill="none" />
<polyline points="315.0,339.5,323.0,331.5,331.0,324.0" stroke="black" stroke-width="2" fill="none" />
<polyline points="323.5,325.5,315.5,333.0,307.5,340.0" stroke="black" stroke-width="2" fill="none" />
<polyline points="300.0,339.0,308.0,331.0,316.0,323.5" stroke="black" stroke-width="2" fill="none" />
<polyline points="309.0,323.5,301.0,331.5,293.0,339.5" stroke="black" stroke-width="2" fill="none" />
<polyline points="286.0,338.0,294.0,330.5,302.0,323.0" stroke="black" stroke-width="2" fill="none" />
<polyline points="294.0,323.0,286.0,331.0,278.0,338.5" stroke="black" stroke-width="2" fill="none" />
<polyline points="266.0,336.0,273.5,328.5,281.0,321.0" stroke="black" stroke-width="2" fill="none" />
<polyline points="276.0,326.0,268.5,333.0,260.5,340.5" stroke="black" stroke-width="2" fill="none" />
<polyline points="253.0,340.0,260.5,332.5,268.5,325.5" stroke="black" stroke-width="2" fill="none" />
<polyline points="273.0,322.0,281.0,322.0,289.0,322.0,297.0,322.0,305.5,322.5,313.5,322.0,321.5,322.0,329.0,322.0,337.0,322.5,344.5,318.5" stroke="black" stroke-width="2" fill="none" />
<polyline points="339.5,316.0,339.0,308.0" stroke="black" stroke-width="2" fill="none" />
<polyline points="331.0,308.5,331.5,316.0" stroke="black" stroke-width="2" fill="none" />
<polyline points="330.5,304.0,338.5,303.0,346.5,302.5" stroke="black" stroke-width="2" fill="none" />
<polyline points="362.0,302.0,370.5,301.0,379.0,300.5,387.5,299.5,395.5,298.5" stroke="black" stroke-width="2" fill="none" />
<polyline points="421.0,270.0,428.5,269.0" stroke="black" stroke-width="2" fill="none" />
<polyline points="422.0,280.5,420.5,276.0,419.5,268.0,418.5,259.5,418.5,251.0,419.0,243.0,416.0,238.5,408.0,238.5" stroke="black" stroke-width="2" fill="none" />
<polyline points="419.5,247.0,419.5,254.5,420.5,262.5,421.5,270.0,421.0,278.0" stroke="black" stroke-width="2" fill="none" />
<polyline points="436.5,243.5,444.5,242.5" stroke="black" stroke-width="2" fill="none" />
<polyline points="453.5,243.5,461.5,237.5" stroke="black" stroke-width="2" fill="none" />
<polyline points="449.0,220.0,448.0,216.5" stroke="black" stroke-width="2" fill="none" />
<polyline points="432.5,226.5,433.5,234.5,434.0,243.0,437.0,251.0,436.0,259.5,437.5,270.5,445.5,266.5,452.5,264.0" stroke="black" stroke-width="2" fill="none" />
<polyline points="443.0,261.5,439.5,250.5,436.5,242.0,434.5,233.5" stroke="black" stroke-width="2" fill="none" />
<polyline points="450.0,190.5,442.0,176.5,434.0,161.5" stroke="black" stroke-width="2" fill="none" />
<polyline points="434.0,160.0,439.0,168.0,443.5,176.0,448.5,184.0,454.0,192.0" stroke="black" stroke-width="2" fill="none" />
<polyline points="457.0,194.0,449.0,182.0,440.5,167.0,432.5,159.5" stroke="black" stroke-width="2" fill="none" />
<polyline points="433.5,158.5,436.0,166.5,440.0,174.5,443.5,182.5,448.5,190.0,452.0,198.0" stroke="black" stroke-width="2" fill="none" />
<polyline points="435.5,188.5,427.0,186.5" stroke="black" stroke-width="2" fill="none" />
<polyline points="434.0,185.0,438.0,193.0,441.0,201.0,443.0,209.0,445.0,217.0,448.0,225.0" stroke="black" stroke-width="2" fill="none" />
<polyline points="438.0,198.5,434.5,190.0,426.5,184.5,424.5,176.5" stroke="black" stroke-width="2" fill="none" />
<polyline points="426.0,121.5,418.0,110.0,410.0,98.0,402.0,89.0" stroke="black" stroke-width="2" fill="none" />
<polyline points="400.0,91.0,406.0,99.0,412.0,107.0,417.0,115.0,423.0,123.0,428.0,135.5,435.5,144.0,441.5,152.0,449.5,159.0,455.0,167.0,447.0,175.0,454.0,169.0,462.0,182.0,470.0,195.0" stroke="black" stroke-width="2" fill="none" />
<polyline points="464.5,105.5,456.5,104.0,448.5,96.5" stroke="black" stroke-width="2" fill="none" />
<polyline points="447.0,96.0,456.0,104.0,460.5,107.0" stroke="black" stroke-width="2" fill="none" />
<polyline points="444.0,108.5,436.0,102.5" stroke="black" stroke-width="2" fill="none" />
<polyline points="436.0,99.5,447.0,107.5" stroke="black" stroke-width="2" fill="none" />
<polyline points="446.5,106.5,438.5,101.5,430.5,98.0,422.5,94.0,415.0,88.0,407.5,81.5,399.5,77.5,391.5,75.0" stroke="black" stroke-width="2" fill="none" />
<polyline points="390.5,73.5,398.5,82.0,406.5,90.0,413.5,98.0,422.5,105.0,420.0,113.0,432.5,115.0,440.0,123.0,449.0,131.0,450.0,142.0,454.0,148.0,460.0,155.5,464.5,164.0,470.5,172.0,468.0,180.0,469.0,188.0,474.5,196.0,472.5,204.0,466.0,207.5,461.0,215.5,464.0,223.5,467.0,231.5,456.0,240.0,455.0,248.0,457.0,256.5,452.0,264.5,441.0,268.5,438.0,277.0,439.0,285.0" stroke="black" stroke-width="2" fill="none" />
<polyline points="516.0,301.5,508.0,302.5,500.5,303.5,493.0,304.0,485.5,304.5,477.0,305.0,468.5,304.5,460.5,304.5,452.0,305.0,444.0,306.0,436.0,306.5,427.5,307.5,419.0,308.0,411.0,308.5,403.0,309.0,395.0,309.5,387.5,310.5,379.5,311.5,371.5,312.0,363.5,312.5,355.5,313.0,347.5,313.5,339.5,313.5,331.5,314.0,323.0,314.5,315.5,315.0,307.0,315.0,298.5,315.5,290.5,315.5,282.0,316.0,274.5,316.5,267.0,317.0,259.5,318.0,252.0,318.5,244.0,319.0,236.0,320.0,228.0,320.5,220.5,321.5,212.5,321.5,205.0,322.5,197.0,323.0,189.0,323.0,181.0,323.0,173.0,323.0,165.0,323.0,157.0,324.0,149.0,324.5,140.5,325.0,132.0,326.0,123.5,326.5,115.5,327.5,107.5,328.0,99.5,328.5,91.5,329.0,83.5,330.0,75.5,330.5,67.0,331.0,59.0,331.0,51.0,331.5,43.5,331.5,35.0,332.0,27.0,332.0,19.0,332.0,11.5,332.0,3.5,332.5" stroke="black" stroke-width="2" fill="none" />
<polyline points="4.0,334.0,11.5,327.5,20.0,320.5,28.0,313.0,36.0,306.0,44.0,298.5,52.0,291.0,60.0,283.5,68.0,276.0" stroke="black" stroke-width="2" fill="none" />
<polyline points="75.0,276.5,67.5,284.0,59.5,291.5,51.5,299.5,43.5,307.0,35.5,314.5,27.5,322.0,19.5,329.5,11.5,336.5" stroke="black" stroke-width="2" fill="none" />
<polyline points="20.0,336.5,28.5,328.5,37.5,321.0,45.5,313.0,53.0,305.5,61.0,298.0,69.0,290.0,77.0,282.5,85.0,275.0" stroke="black" stroke-width="2" fill="none" />
<polyline points="84.0,283.0,76.5,290.5,69.0,299.0,61.0,306.5,53.0,314.0,44.5,321.5,36.0,329.5,27.0,337.0" stroke="black" stroke-width="2" fill="none" />
<polyline points="43.0,336.5,51.0,329.0,59.5,321.0,67.5,313.5,75.5,306.0,83.5,298.5,90.5,291.5,98.5,284.0" stroke="black" stroke-width="2" fill="none" />
<polyline points="92.0,282.0,84.0,289.5,75.5,296.5,68.0,304.0,60.0,311.0,52.0,318.5,44.0,326.5,36.0,335.0" stroke="black" stroke-width="2" fill="none" />
<polyline points="61.0,335.5,68.5,327.5,76.5,320.0,84.5,312.5,92.5,305.5,100.5,298.0,108.5,290.0,116.0,282.5" stroke="black" stroke-width="2" fill="none" />
<polyline points="123.0,284.0,114.5,292.0,106.5,299.5,98.0,306.5,90.0,314.0,82.5,321.0,75.0,328.5,67.5,336.5" stroke="black" stroke-width="2" fill="none" />
<polyline points="116.5,336.0,124.5,328.0,132.5,321.0,140.0,313.5,147.5,306.5,155.5,299.0" stroke="black" stroke-width="2" fill="none" />
<polyline points="163.5,300.0,155.0,307.0,147.5,315.0,139.5,322.5,132.0,330.5,124.0,338.0" stroke="black" stroke-width="2" fill="none" />
<polyline points="163.5,340.0,172.5,332.5,181.0,325.0,189.0,317.5,197.0,309.5" stroke="black" stroke-width="2" fill="none" />
<polyline points="204.5,307.5,197.0,315.0,189.0,322.5,181.0,330.0,173.0,337.5" stroke="black" stroke-width="2" fill="none" />
<polyline points="210.5,339.0,218.5,332.0,227.0,325.0" stroke="black" stroke-width="2" fill="none" />
<polyline points="219.5,322.0,211.5,329.5,203.5,337.0" stroke="black" stroke-width="2" fill="none" />
<polyline points="219.0,338.0,227.0,330.5,235.0,322.5" stroke="black" stroke-width="2" fill="none" />
<polyline points="244.0,316.0,252.5,308.5" stroke="black" stroke-width="2" fill="none" />
<polyline points="250.5,317.5,242.5,325.0,235.0,332.5,227.5,339.5" stroke="black" stroke-width="2" fill="none" />
<polyline points="245.0,338.0,253.5,331.0,261.5,323.5" stroke="black" stroke-width="2" fill="none" />
<polyline points="251.0,326.5,243.0,333.5,234.5,340.5" stroke="black" stroke-width="2" fill="none" />
<polyline points="220.5,315.5,213.0,323.0,204.5,330.5,196.5,338.5" stroke="black" stroke-width="2" fill="none" />
<polyline points="188.0,337.5,196.0,330.0,204.0,323.0,212.5,315.5" stroke="black" stroke-width="2" fill="none" />
<polyline points="211.5,309.0,203.5,316.5,196.0,324.5,188.5,332.0,181.0,339.5" stroke="black" stroke-width="2" fill="none" />
<polyline points="156.0,337.5,164.0,330.0,172.5,322.5,181.0,315.0,189.0,308.0,197.0,300.5" stroke="black" stroke-width="2" fill="none" />
<polyline points="188.5,299.0,180.5,307.0,172.5,314.5,164.0,322.0,156.0,329.0,147.5,336.5" stroke="black" stroke-width="2" fill="none" />
<polyline points="139.5,336.5,147.5,329.0,155.0,322.0,163.0,314.5,171.5,307.0,179.0,300.0" stroke="black" stroke-width="2" fill="none" />
<polyline points="171.0,298.0,163.0,305.5,155.5,313.5,147.5,321.0,139.5,328.0,131.0,335.5" stroke="black" stroke-width="2" fill="none" />
<polyline points="106.0,338.0,114.0,330.0,121.5,322.0,129.5,314.5,137.5,306.5,145.5,298.5" stroke="black" stroke-width="2" fill="none" />
<polyline points="146.5,292.0,138.5,300.0,131.0,308.0,123.0,315.5,115.5,322.5,107.5,329.5,100.0,337.5" stroke="black" stroke-width="2" fill="none" />
<polyline points="91.5,337.0,99.5,330.0,106.5,323.0,114.0,315.5,121.5,308.0,129.0,300.5,137.0,293.0" stroke="black" stroke-width="2" fill="none" />
<polyline points="131.0,292.0,123.0,299.5,115.0,307.0,107.5,314.5,100.0,321.5,92.0,329.0,84.0,336.0" stroke="black" stroke-width="2" fill="none" />
<polyline points="75.0,335.5,82.5,328.0,90.0,320.5,97.5,312.5,105.5,304.5,113.0,297.0,121.5,290.0" stroke="black" stroke-width="2" fill="none" />
<polyline points="101.0,291.5,93.0,298.5,84.5,305.5,76.5,313.0,67.5,321.0,59.5,328.5,51.0,336.0" stroke="black" stroke-width="2" fill="none" />
<polyline points="74.5,332.5,66.5,333.0,58.5,333.5,51.0,334.0,43.0,334.5,35.0,335.5,26.5,336.5,18.5,337.0,9.5,337.0,1.5,337.0" stroke="black" stroke-width="2" fill="none" />
<polyline points="4.0,327.0,12.0,326.5,20.5,326.5,29.0,326.0,37.0,326.0,44.5,326.5,53.0,326.5,61.0,326.5,69.0,326.5" stroke="black" stroke-width="2" fill="none" />
<polyline points="67.0,268.0,59.0,275.0,51.0,282.5,43.5,289.5,36.0,296.5,28.0,304.0,20.5,310.5,12.5,317.5,4.5,325.0" stroke="black" stroke-width="2" fill="none" />
<polyline points="6.5,324.5,14.0,324.0,21.5,323.5,29.5,323.0,37.0,323.0,45.0,322.5,53.0,322.0,60.5,322.0,68.0,322.0,75.5,321.5,83.5,321.0,91.5,320.5,99.5,319.5,108.0,319.0,116.0,318.0,124.0,317.5,132.0,317.5,140.0,317.0,148.0,317.0,155.5,316.5,163.5,315.5,171.5,315.0,179.5,315.0,187.0,314.5,195.0,314.0,202.5,313.5,210.0,313.5,217.5,313.0,225.0,313.0,233.0,313.0,241.0,313.0,249.5,312.5,258.0,312.0,266.0,311.0,274.5,310.5,283.0,310.0,291.5,309.0,299.5,308.0,308.0,307.5,316.0,307.0,324.0,306.0,332.0,305.5,340.0,305.0,348.0,304.5,356.0,304.0,364.0,303.0,372.0,302.5,379.5,301.5,388.0,300.0,396.5,299.0,404.0,298.5,412.0,298.0,420.5,298.5,428.5,299.0,436.5,299.0,444.5,299.5,452.5,298.5,460.5,298.0,468.5,297.0,477.0,296.5,485.0,296.5,493.0,296.0,501.0,295.0,508.5,294.5,516.0,294.0" stroke="black" stroke-width="2" fill="none" />
<polyline points="516.5,286.5,508.5,286.5,500.5,287.0,492.5,288.0,484.5,288.5,476.0,289.0,467.5,289.0,459.5,289.5,451.5,289.5,443.0,290.0,434.5,290.0,427.0,290.0,419.5,290.0,412.0,289.5,404.0,289.5,396.0,291.0,387.5,292.0,379.0,292.5,370.5,293.0,362.5,293.5,354.5,294.5,347.0,296.0,340.0,297.5,332.0,298.0,324.5,299.0,316.0,299.0,308.0,299.0,300.5,299.0,292.5,300.0,284.5,300.0,276.5,301.0,268.0,301.0,259.5,301.5,251.0,302.0,242.5,302.5,235.0,303.5,227.5,304.0,220.0,304.5,212.5,305.0,204.0,305.5,196.5,305.0,188.5,304.5,180.5,304.5,172.5,304.5,164.5,305.5,156.0,305.5,147.5,306.5,139.5,307.0,131.0,307.0,123.5,308.0,115.0,309.0,107.0,310.0,99.0,311.5,91.0,312.5,83.5,313.0,75.5,313.0,67.0,313.5,59.0,313.5,52.0,314.0,44.5,315.0,37.0,315.5,29.0,316.0,21.5,317.0,13.0,318.0,5.0,319.0" stroke="black" stroke-width="2" fill="none" />
<polyline points="3.5,319.5,11.5,313.0,19.5,306.0,28.0,298.5,36.0,291.0,43.5,283.5,51.0,276.0,59.0,268.5" stroke="black" stroke-width="2" fill="none" />
<polyline points="60.0,259.5,51.5,267.0,43.5,274.5,35.5,282.0,26.5,289.5,18.0,296.5,10.5,304.0,3.0,312.5" stroke="black" stroke-width="2" fill="none" />
<polyline points="3.0,314.0,11.5,313.5,19.5,313.0,28.0,312.5,36.5,312.5,44.0,312.0,51.5,311.5" stroke="black" stroke-width="2" fill="none" />
<polyline points="59.0,317.5,50.5,318.5,43.0,319.5,35.5,320.0,28.0,320.0,20.5,320.5,13.0,321.0,5.0,321.5" stroke="black" stroke-width="2" fill="none" />
<polyline points="2.0,310.0,10.0,309.5,18.0,309.5,26.5,309.0,35.5,308.5,43.5,308.0,51.5,307.5,59.5,307.5,67.5,307.0,75.5,306.5,84.0,305.5,92.0,305.0,100.0,305.0,108.0,304.5,115.0,304.0,123.0,303.0,131.0,302.0,139.5,301.0,148.0,300.0,156.5,299.0,164.5,299.0,172.5,298.5,180.5,298.0,189.0,298.0,197.0,297.5,205.0,297.0,213.0,296.5,221.0,296.5,229.0,296.0,237.0,295.0,245.0,294.0,253.0,294.0" stroke="black" stroke-width="2" fill="none" />
<polyline points="283.5,285.5,292.0,285.0,300.0,284.5" stroke="black" stroke-width="2" fill="none" />
<polyline points="293.5,283.0,302.0,275.5" stroke="black" stroke-width="2" fill="none" />
<polyline points="299.5,281.5,291.5,281.5" stroke="black" stroke-width="2" fill="none" />
<polyline points="293.0,276.5,301.0,276.0,308.5,275.0" stroke="black" stroke-width="2" fill="none" />
<polyline points="301.0,267.0,293.5,268.0" stroke="black" stroke-width="2" fill="none" />
<polyline points="295.0,271.5,300.0,279.5,297.0,287.5" stroke="black" stroke-width="2" fill="none" />
<polyline points="298.0,288.0,290.0,291.0,283.5,297.0,281.5,292.5,282.0,293.5,283.0,291.0,286.0,283.0,290.5,275.5,290.5,273.5" stroke="black" stroke-width="2" fill="none" />
<polyline points="304.0,263.5,312.0,269.5" stroke="black" stroke-width="2" fill="none" />
<polyline points="310.0,262.5,317.0,271.0,314.0,279.0" stroke="black" stroke-width="2" fill="none" />
<polyline points="313.0,276.0,304.0,281.5,296.0,276.0,305.5,269.5,306.5,261.0" stroke="black" stroke-width="2" fill="none" />
<polyline points="325.0,237.0,317.0,237.0,309.0,236.5,301.0,238.0,293.0,238.0,284.5,238.5,277.0,239.0,263.0,239.5,255.0,239.5" stroke="black" stroke-width="2" fill="none" />
<polyline points="252.0,285.5,244.5,286.0,236.0,286.5,228.5,287.5,220.5,288.5,212.5,289.5,205.0,290.0,196.5,290.5,188.5,291.0,180.5,291.5,172.5,292.0,164.5,292.5,156.5,293.5,148.5,293.5,140.0,294.0,132.0,294.5,123.5,294.5,115.5,294.5,107.0,295.0,99.0,295.5,90.5,296.0,82.5,296.0,74.5,296.5,66.5,296.5,59.0,297.0,50.5,298.0,42.0,298.5,34.0,299.5,26.0,300.5,18.0,301.5,10.0,302.0,2.0,303.0" stroke="black" stroke-width="2" fill="none" />
<polyline points="3.5,304.5,11.5,296.5,19.5,288.5,27.5,280.5,35.5,273.0,44.0,265.5,52.0,257.5,60.0,249.5" stroke="black" stroke-width="2" fill="none" />
<polyline points="57.5,242.0,49.5,249.5,42.0,257.5,35.0,265.5,28.0,273.0,20.5,280.5,12.5,289.0,4.5,296.5" stroke="black" stroke-width="2" fill="none" />
<polyline points="2.0,297.0,10.0,296.5,18.0,295.5,26.0,294.5,35.0,293.5" stroke="black" stroke-width="2" fill="none" />
<polyline points="43.0,305.5,34.5,305.5,26.0,305.5,18.0,306.0,10.0,306.5,2.0,307.5" stroke="black" stroke-width="2" fill="none" />
<polyline points="3.5,292.5,11.0,292.0,19.5,292.0,27.5,291.5,34.5,291.0,42.5,290.5,50.5,290.0,59.0,289.5,67.5,288.5,76.5,287.5,84.5,287.0,92.5,286.5,100.0,286.0,107.5,286.0,115.0,286.0,123.0,285.5,131.0,285.5,139.0,285.5,147.0,285.0,155.5,285.0,163.5,284.5,171.5,284.0,179.5,283.5,187.5,283.0,195.5,283.0,203.0,282.5,211.5,282.0,219.5,281.5,228.0,281.0,235.5,280.5,243.5,279.5,251.5,279.0" stroke="black" stroke-width="2" fill="none" />
<polyline points="250.0,270.5,242.5,271.0,234.5,271.5,226.0,272.5,218.0,273.0,210.0,273.0,202.5,273.5,194.5,273.5,187.0,274.5,179.0,275.0,171.0,275.5,163.0,276.0,155.0,276.0,147.0,276.5,139.0,277.0,131.0,277.5,122.5,278.0,115.5,278.5,108.0,279.0,100.5,279.5,92.5,280.0,84.0,280.5,76.5,281.0,68.5,282.0,60.5,282.5,52.5,282.5,44.0,283.0,36.0,283.5,28.5,284.0,21.0,284.0,13.5,284.5,6.0,284.5" stroke="black" stroke-width="2" fill="none" />
<polyline points="3.0,281.0,11.0,280.5,19.0,280.5" stroke="black" stroke-width="2" fill="none" />
<polyline points="29.0,286.0,21.0,287.0,13.0,288.0,4.5,289.0" stroke="black" stroke-width="2" fill="none" />
<polyline points="4.5,289.0,13.0,281.0,21.0,273.0,29.5,265.5,38.0,257.5,46.5,250.0,54.5,242.5" stroke="black" stroke-width="2" fill="none" />
<polyline points="53.0,236.0,45.0,244.0,37.0,251.0,29.0,258.0,20.5,265.0,12.5,272.5,4.0,280.0" stroke="black" stroke-width="2" fill="none" />
<polyline points="4.5,277.0,12.5,276.5,20.0,276.0,28.0,275.5,36.0,275.5,44.0,275.0,52.5,274.5,61.0,274.0,69.5,274.0,77.5,274.0,85.5,273.5,93.0,273.5,101.0,273.0,108.5,272.0,116.5,272.0,124.5,271.5,131.5,270.5,139.0,269.5,146.5,268.5,154.0,268.0,162.0,268.0,170.5,267.0,179.0,266.5,187.5,265.5,195.5,264.5,204.0,264.0,212.0,263.5,219.5,263.0,227.5,262.5,235.0,262.5,243.0,262.5,251.5,262.0" stroke="black" stroke-width="2" fill="none" />
<polyline points="253.0,255.0,245.5,255.5,237.0,256.0,229.0,256.5,221.0,256.5,212.5,256.5,204.0,256.5,196.0,257.5,187.5,258.0,179.0,258.5,170.5,259.5,162.0,260.0,154.0,260.5,146.0,261.0,138.0,261.5,130.5,262.0,123.0,262.5,115.0,263.0,107.0,263.5,99.0,264.0,91.5,264.5,83.5,264.5,75.5,265.5,67.5,265.5,59.5,266.0,51.5,266.0,43.5,266.5,35.5,267.0,27.5,267.5,19.5,268.5,12.0,269.0,3.5,269.5" stroke="black" stroke-width="2" fill="none" />
<polyline points="4.0,272.0,12.0,265.0,19.5,258.0,27.0,251.0,35.0,244.0,43.5,237.0,52.0,229.5" stroke="black" stroke-width="2" fill="none" />
<polyline points="40.5,229.5,32.5,236.5,25.0,243.5,17.0,250.5,9.5,258.0,1.5,265.0" stroke="black" stroke-width="2" fill="none" />
<polyline points="0.5,266.0,9.0,265.0" stroke="black" stroke-width="2" fill="none" />
<polyline points="4.0,261.5,12.0,260.5,20.0,260.0,28.5,259.5,36.5,258.5,45.0,258.0,52.5,257.5,60.0,256.5,68.0,256.0,76.0,256.0,84.0,255.5,92.0,255.0,100.0,255.0,107.5,254.5,115.0,254.5,123.0,254.0,131.0,253.5,139.5,253.0,147.5,252.5,156.0,252.0,163.5,251.5,171.5,251.5,180.0,251.0,188.0,251.0,196.0,250.5,203.5,250.0,212.0,249.5,220.0,249.0,228.0,248.5,236.0,247.5,244.0,247.0,251.5,246.5" stroke="black" stroke-width="2" fill="none" />
<polyline points="252.5,239.5,244.5,240.0,236.5,240.0,229.0,240.0,221.0,240.0,213.5,240.0,205.5,240.5,197.5,240.5,189.0,241.0,181.0,241.0,173.0,241.0,165.5,242.0,157.0,242.5,149.0,243.5,141.0,244.5,133.0,245.5,125.0,246.0,116.5,246.0,108.0,246.0,99.5,246.0,92.0,246.5,84.5,247.5,76.5,247.5,68.5,248.0,60.0,249.0,52.0,250.0,44.0,250.5,36.0,251.0,28.5,251.5,21.0,252.0,12.5,252.5,4.5,253.0" stroke="black" stroke-width="2" fill="none" />
<polyline points="5.0,256.5,13.0,256.5" stroke="black" stroke-width="2" fill="none" />
<polyline points="2.5,256.5,10.5,249.5,18.0,242.0,25.5,234.5,33.0,227.0,41.0,220.0" stroke="black" stroke-width="2" fill="none" />
<polyline points="42.0,198.0,34.0,205.5,26.0,212.5,18.5,219.5,10.5,226.5,2.5,233.5" stroke="black" stroke-width="2" fill="none" />
<polyline points="3.5,227.5,11.0,227.0,19.0,227.0,27.0,226.5,34.5,226.5,42.0,226.5,50.0,225.5,57.5,225.0,65.5,224.5,73.5,224.5,81.5,224.5,89.5,223.5,97.5,223.0,106.0,222.5,114.0,222.5,122.0,222.5,130.5,222.0,139.0,221.5,147.5,221.0,156.5,221.0,164.5,220.5,172.5,220.0,180.0,219.0,187.5,218.0,195.0,217.0,202.5,216.5,210.5,215.5,219.0,214.5,227.5,214.0,236.0,213.5,244.0,213.0,252.0,212.5" stroke="black" stroke-width="2" fill="none" />
<polyline points="272.0,175.5,280.0,174.5,288.0,174.0,296.5,174.0,304.5,174.0,312.5,173.0,320.5,173.0,328.5,173.0,336.5,173.5,344.0,173.5,352.0,173.0,360.0,173.0,368.0,173.5,375.5,173.5,383.5,173.5,391.5,173.5,399.0,173.5,403.0,181.0,402.5,189.0,402.5,197.0,403.5,205.5,404.0,213.5,404.0,221.5,404.5,229.5,404.5,237.0,406.0,245.0,406.0,253.0,406.0,261.0,405.5,268.5,405.5,276.5,405.5,284.5,404.5,292.5,404.5,300.5" stroke="black" stroke-width="2" fill="none" />
<polyline points="401.0,299.5,401.0,292.0,402.0,284.0,402.0,276.5,403.0,268.5,403.0,260.5,403.0,252.5,403.0,245.0,401.5,237.0,402.5,229.0,401.5,220.5,401.5,212.5,401.5,205.0,401.5,197.5,400.5,189.0,400.5,181.0,402.5,173.0,398.0,170.5,390.0,170.0,382.0,170.0,374.0,169.5,365.5,169.0,357.5,169.0,349.5,169.0,341.0,169.0,333.0,168.5,325.5,168.5,317.5,169.5,309.5,170.5,301.5,170.5,294.0,170.5,286.0,170.5,278.0,170.5,270.0,171.5" stroke="black" stroke-width="2" fill="none" />
<polyline points="272.5,170.0,270.0,178.5,270.0,186.5,270.5,194.5,271.0,202.5,271.0,210.5,271.0,218.5,271.0,226.5,271.0,234.5,271.0,243.0,271.0,250.5,271.0,258.5,272.0,266.0,272.0,274.0,272.0,282.0,272.0,290.0,272.0,298.5,274.0,304.5,281.5,304.5,290.0,304.0,298.0,304.0,306.0,304.0,313.5,304.5,321.5,304.5,329.5,304.5,338.0,305.5,345.5,304.5,353.5,305.0,361.5,305.5,369.5,305.0,377.5,304.0,385.5,304.0,393.5,304.0,401.5,304.0" stroke="black" stroke-width="2" fill="none" />
<polyline points="340.5,288.5,337.0,296.5,337.0,288.5,337.5,281.0,337.5,272.5,337.5,264.0,337.0,256.0,337.0,248.0,337.0,239.5" stroke="black" stroke-width="2" fill="none" />
<polyline points="353.5,155.0,361.5,155.0,369.5,154.0,377.5,153.0,385.5,151.5,393.5,150.0" stroke="black" stroke-width="2" fill="none" />
<polyline points="403.0,142.5,396.0,131.0,388.0,133.0,380.0,136.0,372.5,138.0,364.5,139.0" stroke="black" stroke-width="2" fill="none" />
<polyline points="364.0,136.5,372.5,135.5,380.0,132.5,388.0,130.5,395.5,127.5" stroke="black" stroke-width="2" fill="none" />
<polyline points="396.0,117.0,399.5,125.0,401.5,137.5,405.5,145.0,401.0,151.0" stroke="black" stroke-width="2" fill="none" />
<polyline points="400.0,146.0,392.0,147.0,383.5,148.0,375.5,149.5,367.5,151.0,359.5,152.0,352.0,152.0" stroke="black" stroke-width="2" fill="none" />
<polyline points="333.5,141.0,330.5,126.0,336.0,113.5,353.0,105.5,363.5,97.5,375.5,89.5,382.0,86.5,374.0,91.0,366.0,97.0,358.0,103.0,350.0,108.0,342.0,112.0,334.0,115.0,330.0,125.0,326.0,131.0,324.0,125.5,327.0,117.5,322.5,109.5,327.5,100.5,339.5,92.0,349.5,84.0,358.5,76.0,371.0,71.0,363.0,72.5,355.5,80.5,347.5,87.5,339.5,93.5,331.5,99.0,323.5,104.0,315.5,106.0,312.0,106.0,302.0,99.0,301.0,88.5,308.0,80.5,314.0,72.0,320.0,64.0,325.0,56.0,329.0,48.0,333.5,40.0,333.5,40.5,325.0,54.5,317.0,67.5,309.0,77.5,301.0,87.5,293.0,87.0,289.0,90.0" stroke="black" stroke-width="2" fill="none" />
<polyline points="290.0,87.5,298.5,92.0,311.5,101.0,314.5,109.0,321.0,110.0,326.5,103.5,335.5,98.5,343.5,92.5,352.5,86.0,360.0,79.0,368.0,72.5" stroke="black" stroke-width="2" fill="none" />
<polyline points="362.5,59.0,371.5,66.5,371.0,71.0,361.0,77.0,352.5,85.0,343.5,92.0,331.5,100.0,318.5,108.0,320.5,116.0,330.0,126.0,330.0,134.5,338.0,141.0,334.0,147.0,332.5,156.0,332.5,164.0" stroke="black" stroke-width="2" fill="none" />
<polyline points="338.0,162.0,339.0,152.0,336.5,140.0,334.5,132.0" stroke="black" stroke-width="2" fill="none" />
<polyline points="378.5,131.5,392.5,122.0,393.5,114.5" stroke="black" stroke-width="2" fill="none" />
<polyline points="388.0,110.0,380.0,113.0,372.0,117.0,364.0,120.0,366.5,119.0,383.5,111.0,382.5,104.0,378.0,96.0" stroke="black" stroke-width="2" fill="none" />
<polyline points="377.5,95.5,373.5,97.5,381.5,97.0" stroke="black" stroke-width="2" fill="none" />
<polyline points="382.0,93.5,384.0,102.0,379.0,111.0,362.0,119.0,361.0,120.0,369.5,116.0,377.5,112.5,385.5,109.5,393.0,116.0" stroke="black" stroke-width="2" fill="none" />
<polyline points="380.0,90.0,372.0,95.0,364.0,100.5,356.5,106.5,348.5,110.5,346.5,112.0,360.5,104.0,372.0,96.0,383.0,88.5" stroke="black" stroke-width="2" fill="none" />
<polyline points="395.0,77.5,403.0,85.5" stroke="black" stroke-width="2" fill="none" />
<polyline points="414.0,83.0,406.0,75.0,398.0,69.0,391.5,63.5,383.5,59.0,375.5,53.0,367.5,47.0,359.5,41.5,345.5,36.0,335.5,44.0,327.0,56.0,319.0,70.0,311.0,79.0,299.5,90.5,294.5,97.5,287.0,107.5,279.0,116.5,271.0,126.5,262.5,137.5,263.0,136.0,269.0,127.5,276.0,119.5,282.0,111.5,289.5,103.5,296.5,95.5,304.5,86.5,310.0,79.0,317.0,70.5,322.0,62.5,327.0,54.5,332.0,46.0,331.5,51.0" stroke="black" stroke-width="2" fill="none" />
<polyline points="353.0,55.5,346.5,63.5,340.5,72.0,333.5,80.5,326.0,89.0,317.0,96.0,324.5,92.0,331.5,83.0,339.5,74.0,347.5,64.0,355.0,56.0,369.0,63.0,377.0,71.0" stroke="black" stroke-width="2" fill="none" />
<polyline points="395.0,75.5,407.0,83.5,409.0,93.0,416.5,101.0,425.5,110.0,433.0,117.0,441.0,113.0,449.5,114.0,457.5,118.0,467.5,129.5,475.5,136.5" stroke="black" stroke-width="2" fill="none" />
<polyline points="470.0,143.5,461.5,150.5,455.5,142.5,450.5,135.0,442.5,127.0,434.0,119.0,425.0,111.0" stroke="black" stroke-width="2" fill="none" />
<polyline points="443.5,85.5,451.5,85.0,459.5,85.0,467.0,84.5,475.0,84.0,482.5,83.5,490.0,83.5,497.5,83.0,505.0,83.0,513.0,83.0" stroke="black" stroke-width="2" fill="none" />
<polyline points="514.5,16.0,507.0,16.5,499.0,17.0,491.0,17.0,483.5,17.0,476.0,16.5,468.5,16.5" stroke="black" stroke-width="2" fill="none" />
<polyline points="459.0,7.0,467.0,6.5,475.5,6.5,483.5,6.5,492.0,6.5,500.0,7.0,508.5,6.0,517.0,5.5" stroke="black" stroke-width="2" fill="none" />
<polyline points="515.5,64.0,507.5,65.0,499.5,65.0,491.5,65.5,483.5,66.5,476.0,67.0,467.5,67.5,459.5,68.0,451.0,68.5,443.5,69.0,435.5,69.0,427.5,69.5,419.5,70.0,411.5,70.5" stroke="black" stroke-width="2" fill="none" />
<polyline points="404.5,61.0,412.5,61.0,420.5,60.5,428.0,60.0,435.5,59.5,443.5,59.0,451.0,59.0,459.0,58.5,467.0,58.5,474.5,59.0,482.0,59.0,490.5,58.0,498.5,57.5,507.0,56.5,515.5,55.0" stroke="black" stroke-width="2" fill="none" />
<polyline points="515.5,47.0,507.0,47.0,498.5,47.5,490.0,47.5,481.5,48.0,474.0,48.5,466.5,49.0,458.5,49.5,450.0,50.5,442.0,51.0,434.0,51.0,426.5,51.5,418.5,51.5,411.0,52.5,403.0,53.0,395.0,53.5,387.0,54.0" stroke="black" stroke-width="2" fill="none" />
<polyline points="378.0,44.5,386.0,44.0,394.0,43.5,402.0,43.0,410.0,43.0,418.0,42.5,426.0,42.0,435.0,40.5,443.0,39.5,450.5,39.5,458.0,39.0,466.5,38.5,474.5,37.5,482.5,37.5,490.0,37.5,498.0,37.5,506.5,38.0,515.0,38.0" stroke="black" stroke-width="2" fill="none" />
<polyline points="512.5,29.5,504.5,29.5,497.0,29.5,490.0,29.5,482.5,30.0,475.0,30.5,467.0,31.0,459.5,31.5,451.5,32.5,443.5,33.0,436.0,33.5,428.0,34.0,420.0,34.5,412.0,34.5,403.0,34.5,395.0,35.0,387.0,35.5,379.0,35.5,371.5,35.5,363.5,36.0" stroke="black" stroke-width="2" fill="none" />
<polyline points="354.0,36.5,365.0,44.5,376.5,52.0,386.5,60.5,397.5,68.5,408.0,77.0,415.5,85.0,421.5,91.5,431.5,99.5,436.5,101.5,446.5,109.5,440.5,117.5,451.0,113.5,457.0,114.0,463.5,114.0" stroke="black" stroke-width="2" fill="none" />
<polyline points="406.5,71.0,405.5,68.0,397.0,63.0" stroke="black" stroke-width="2" fill="none" />
<polyline points="356.0,59.0,348.0,67.0,355.0,60.0" stroke="black" stroke-width="2" fill="none" />
<polyline points="355.0,53.0,350.0,55.0,342.5,62.5,336.5,70.5,330.5,78.5,322.0,86.5,311.5,94.5,307.5,101.5,299.5,109.5,290.5,117.5,283.5,124.5,291.5,116.5,299.5,110.0,308.0,102.5,316.5,92.5,324.5,86.0,332.5,79.0,340.5,68.0,348.5,58.0,356.0,54.0,365.0,52.0" stroke="black" stroke-width="2" fill="none" />
<polyline points="354.0,30.0,362.5,29.5,371.0,28.5,379.5,28.0,388.0,27.5,396.0,26.5,404.5,26.5,413.0,26.5,421.0,26.5,429.0,26.0,437.5,25.5,445.0,25.0,453.0,25.0,461.0,24.5,468.5,23.5,476.0,23.0,483.5,22.5,491.0,22.0,498.5,21.0,505.5,20.5,513.0,20.0" stroke="black" stroke-width="2" fill="none" />
<polyline points="516.0,-11.5,507.5,-10.5,499.0,-9.5,491.0,-9.0,483.0,-8.0,475.5,-7.5,467.5,-7.0,459.5,-6.0,451.0,-5.5,442.5,-4.5,434.5,-4.0,426.5,-4.0,418.5,-3.5,410.5,-2.5,402.5,-1.5,394.5,-1.5,386.5,-1.0,378.5,-0.5,371.0,-1.0,363.5,-1.0,355.5,-1.0,347.5,-1.0,339.0,-1.0,330.5,-1.0,322.5,-0.5,314.0,0.0,306.0,0.0,298.5,1.0,290.5,2.0,282.5,3.0,275.0,3.5,267.5,4.0,259.5,5.0,251.0,5.5,243.0,6.0,235.0,6.5,227.5,6.5,219.0,7.5,210.5,8.5,203.0,9.5,195.5,10.0,188.0,10.0,180.5,10.5,173.0,11.0,165.0,11.5,157.0,12.5,149.0,13.5,141.0,14.0,133.0,15.0,125.0,15.5,117.0,15.5,109.0,16.0,101.0,17.0,93.5,17.5,85.0,18.5,77.5,18.5,69.5,18.5,61.5,19.0,54.0,20.0,46.5,20.5,38.0,20.5,30.0,20.5,22.0,20.0,14.0,20.0,6.5,20.5" stroke="black" stroke-width="2" fill="none" />
<polyline points="5.0,17.5,12.5,16.5,20.5,16.0,28.5,15.0,36.5,14.5,44.5,14.0,52.5,13.5,60.5,13.0,68.5,12.5,76.0,12.0,84.0,11.5,92.0,11.5,100.5,11.5,109.0,11.5,117.5,11.5" stroke="black" stroke-width="2" fill="none" />
<polyline points="117.0,4.5,109.5,12.5,101.0,20.0,92.5,27.5,83.0,35.0,74.0,42.0,65.5,49.5,57.5,57.0,49.5,64.5,41.5,72.0,33.5,79.0,25.5,86.5,17.5,93.5,9.0,101.0,1.5,109.0" stroke="black" stroke-width="2" fill="none" />
<polyline points="3.5,108.5,11.5,108.0,19.5,107.5,27.5,107.5,36.0,107.0,44.0,107.0,51.5,106.5,59.5,105.5,67.5,105.0,75.0,104.5,83.0,104.0,91.0,103.5,99.0,103.5,107.5,103.5,116.5,103.0,124.5,102.5,133.0,102.5,141.0,102.0,149.0,102.0,157.0,101.5,165.5,101.0,173.5,100.5,180.5,99.5,188.0,98.5,194.5,97.0,202.0,96.0,209.5,95.5,217.5,95.0,226.0,94.0,234.0,94.0,242.0,93.5,250.0,93.0,258.0,92.5,266.0,92.0,274.0,92.0" stroke="black" stroke-width="2" fill="none" />
<polyline points="242.5,114.5,234.5,122.0" stroke="black" stroke-width="2" fill="none" />
<polyline points="234.0,117.0,242.5,116.5,250.5,116.5,259.0,115.5,267.5,115.0" stroke="black" stroke-width="2" fill="none" />
<polyline points="244.0,124.0,236.0,131.5" stroke="black" stroke-width="2" fill="none" />
<polyline points="234.5,127.5,242.5,127.0,250.0,126.0,258.0,126.0,266.0,125.5" stroke="black" stroke-width="2" fill="none" />
<polyline points="257.0,133.0,248.5,133.5,240.5,134.0,232.5,134.5" stroke="black" stroke-width="2" fill="none" />
<polyline points="229.0,117.0,234.0,120.0,234.5,128.0,235.5,136.0,236.0,144.0,236.0,152.0,236.5,158.0,236.0,165.5,236.0,173.5" stroke="black" stroke-width="2" fill="none" />
<polyline points="251.5,154.5,255.5,151.0,256.5,153.0,253.0,163.5,252.0,171.5,252.5,179.0,252.5,187.0,253.0,194.5,253.0,202.5,252.5,210.0,252.0,217.5,252.5,225.5,249.5,233.5,250.0,242.0" stroke="black" stroke-width="2" fill="none" />
<polyline points="230.5,202.5,223.0,205.0,217.0,210.5,211.5,204.5,203.5,208.0,197.0,218.0,194.0,217.0,184.5,224.0,180.0,218.0,177.0,204.5,169.0,199.5,160.0,205.5,156.5,202.5,151.5,205.0,147.0,199.5,146.0,203.0,138.5,208.5,130.5,217.5,134.5,212.0,126.5,209.5,120.0,212.0,108.0,214.5,111.0,210.5,103.0,207.5,96.0,220.5,94.0,218.0,86.5,220.5,89.0,221.5,88.0,218.0,99.5,217.0,99.5,210.5,98.5,202.5,104.5,195.5,105.0,190.0,98.5,177.0,92.5,176.0,91.5,166.0,88.0,159.5,91.5,155.5,99.5,146.0,98.5,144.0,104.0,143.5,110.0,136.0,107.0,135.0,116.5,131.5,116.5,123.5,120.0,119.0,115.5,131.0" stroke="black" stroke-width="2" fill="none" />
<polyline points="118.0,130.5,125.5,130.0,133.0,130.0,140.5,130.0,148.5,130.0" stroke="black" stroke-width="2" fill="none" />
<polyline points="140.5,132.0,132.5,139.5,124.5,146.5" stroke="black" stroke-width="2" fill="none" />
<polyline points="125.5,145.5,115.5,142.5,106.0,136.0,103.0,148.0,100.0,154.0,92.0,154.5" stroke="black" stroke-width="2" fill="none" />
<polyline points="88.0,155.0,96.0,141.5,100.0,135.5,95.5,143.0,90.5,151.0,86.0,156.0,90.0,163.5,97.5,162.5" stroke="black" stroke-width="2" fill="none" />
<polyline points="107.5,157.5,115.5,157.5,123.5,157.5,131.5,157.0,139.0,157.0,147.5,156.5,155.0,156.5" stroke="black" stroke-width="2" fill="none" />
<polyline points="147.0,148.5,139.5,156.0,132.0,163.5,124.5,170.5" stroke="black" stroke-width="2" fill="none" />
<polyline points="128.0,167.0,141.0,170.5,141.0,167.5,149.0,166.0,157.0,166.0" stroke="black" stroke-width="2" fill="none" />
<polyline points="156.0,166.5,148.0,166.5" stroke="black" stroke-width="2" fill="none" />
<polyline points="138.0,164.5,130.0,172.0,122.5,180.0" stroke="black" stroke-width="2" fill="none" />
<polyline points="120.5,177.5,115.0,175.5,102.0,176.5,94.0,177.5" stroke="black" stroke-width="2" fill="none" />
<polyline points="99.0,180.0,107.0,180.0" stroke="black" stroke-width="2" fill="none" />
<polyline points="114.5,182.0,123.0,181.5,132.0,180.5,140.5,180.0" stroke="black" stroke-width="2" fill="none" />
<polyline points="148.5,171.0,140.0,171.0,131.5,171.0,124.0,171.5,116.5,172.5" stroke="black" stroke-width="2" fill="none" />
<polyline points="116.0,174.5,113.0,182.5,113.0,190.0,120.5,188.5,124.5,176.5,127.5,182.5,138.5,182.5,143.0,180.5" stroke="black" stroke-width="2" fill="none" />
<polyline points="156.0,190.0,154.0,196.5,155.5,203.0,154.5,211.0,158.0,212.0,163.0,215.0,161.5,217.0,158.5,225.0,165.0,221.5,166.0,216.5,174.0,214.5" stroke="black" stroke-width="2" fill="none" />
<polyline points="164.5,217.0,163.5,214.0,150.0,220.0,142.0,225.0,128.0,228.0,124.0,228.0,116.5,230.0,108.5,229.5,97.0,229.0,89.0,229.0,87.5,227.0,83.5,230.0,81.5,221.0,82.5,213.0,83.5,204.5,81.5,203.5" stroke="black" stroke-width="2" fill="none" />
<polyline points="83.0,203.0,74.5,210.0" stroke="black" stroke-width="2" fill="none" />
<polyline points="81.0,210.5,88.5,210.0,98.0,198.0,104.0,202.5,112.5,202.5,121.0,208.5,129.0,207.5" stroke="black" stroke-width="2" fill="none" />
<polyline points="118.0,213.5,125.0,206.5,138.0,202.5,134.0,193.0,136.5,185.0,142.5,175.5,146.5,171.0,144.5,163.0,142.0,154.5,140.5,152.5,135.5,145.5" stroke="black" stroke-width="2" fill="none" />
<polyline points="139.0,140.0,131.5,147.5,124.5,155.0,117.0,162.0" stroke="black" stroke-width="2" fill="none" />
<polyline points="114.5,160.0,122.5,160.0,130.5,159.5" stroke="black" stroke-width="2" fill="none" />
<polyline points="131.5,153.5,123.5,153.5" stroke="black" stroke-width="2" fill="none" />
<polyline points="124.5,149.0,124.0,157.0,130.0,156.0,138.5,158.0,145.0,159.0,148.0,161.0" stroke="black" stroke-width="2" fill="none" />
<polyline points="147.0,139.0,139.0,146.5,131.5,154.5,124.0,162.0,116.0,170.0" stroke="black" stroke-width="2" fill="none" />
<polyline points="115.5,168.5,123.5,168.0,131.5,167.5" stroke="black" stroke-width="2" fill="none" />
<polyline points="126.5,176.0,121.5,184.0,124.5,187.0" stroke="black" stroke-width="2" fill="none" />
<polyline points="134.0,182.5,127.0,190.0,121.0,194.0,119.0,186.0,117.0,184.5,118.0,176.5" stroke="black" stroke-width="2" fill="none" />
<polyline points="110.5,166.0,110.5,174.0,109.5,182.0,101.5,184.0,105.5,189.0" stroke="black" stroke-width="2" fill="none" />
<polyline points="104.0,173.0,108.0,168.0,101.0,166.5,97.0,156.5,103.0,150.5,108.0,142.0,111.0,148.0,114.0,143.5,106.0,148.5" stroke="black" stroke-width="2" fill="none" />
<polyline points="113.5,149.5,121.5,148.5,129.5,148.0,138.0,147.5,146.0,147.5,154.0,147.5" stroke="black" stroke-width="2" fill="none" />
<polyline points="146.5,138.5,139.0,138.5,131.0,138.5,123.0,139.0,114.5,139.5" stroke="black" stroke-width="2" fill="none" />
<polyline points="116.5,136.5,124.5,129.0,133.0,121.5" stroke="black" stroke-width="2" fill="none" />
<polyline points="132.5,117.0,124.0,117.5,116.0,117.5" stroke="black" stroke-width="2" fill="none" />
<polyline points="117.0,125.0,126.5,123.0,139.0,132.0,132.0,143.0,135.0,148.5,135.5,156.5,136.5,165.5,138.5,174.0,134.5,182.0,129.5,190.0,126.5,198.5,114.5,204.5,111.0,209.0,105.0,211.0,114.0,211.5,111.5,219.5,114.5,216.0,111.0,227.0,106.0,223.0,114.5,218.5" stroke="black" stroke-width="2" fill="none" />
<polyline points="92.0,225.5,84.5,232.5" stroke="black" stroke-width="2" fill="none" />
<polyline points="84.5,227.0,76.5,235.0" stroke="black" stroke-width="2" fill="none" />
<polyline points="74.5,217.5,82.5,210.5" stroke="black" stroke-width="2" fill="none" />
<polyline points="83.5,185.5,75.5,186.0,67.5,186.5,60.0,187.0,52.5,187.5,44.5,188.0,36.0,189.0,27.5,189.5,19.0,190.0,10.5,191.0,2.0,191.5" stroke="black" stroke-width="2" fill="none" />
<polyline points="2.0,190.0,10.0,182.5,17.5,175.0,26.5,167.0,35.0,159.0,43.5,151.0,52.0,143.0,60.5,136.0,68.5,129.0,76.5,121.5,84.0,113.5,91.5,106.0" stroke="black" stroke-width="2" fill="none" />
<polyline points="93.0,111.0,84.5,112.0,77.0,112.5,69.0,113.0,61.0,113.5,53.0,113.5,44.5,114.0,36.5,114.5,28.0,115.5,19.5,116.0,11.0,116.0,3.0,116.0" stroke="black" stroke-width="2" fill="none" />
<polyline points="3.0,115.5,11.5,107.5,20.5,100.0,28.5,92.0,37.0,84.5,45.0,77.0,53.0,69.5,60.5,62.5,68.5,55.5,76.0,48.5,83.0,41.5,91.0,34.0,99.5,26.0,108.0,19.0,116.5,12.0,125.0,5.0" stroke="black" stroke-width="2" fill="none" />
<polyline points="132.0,0.5,124.0,8.5,115.5,17.0,107.0,25.0,98.5,33.0,91.0,41.0,83.5,48.5,75.5,56.5,67.5,64.0,60.0,72.0,52.5,79.5,44.5,87.0,36.5,94.0,28.5,101.5,20.5,109.5,12.5,117.0,4.0,124.5" stroke="black" stroke-width="2" fill="none" />
<polyline points="3.0,125.5,10.5,125.5,18.5,125.0,26.5,124.5,34.5,123.5,42.0,123.0,50.0,122.5,58.0,122.5,66.0,121.5,74.0,120.5,82.0,120.0" stroke="black" stroke-width="2" fill="none" />
<polyline points="82.5,117.5,90.0,113.5,98.0,113.5,105.5,113.5,113.5,113.5,121.5,114.0,129.5,114.5,138.0,114.5,146.5,115.0,154.5,114.5,162.5,114.5,170.5,114.5,178.0,114.5,185.5,114.0,193.5,114.0,201.0,113.5,209.0,113.5" stroke="black" stroke-width="2" fill="none" />
<polyline points="212.5,132.0,211.5,145.0,205.5,148.0,188.5,154.0,194.0,154.0,196.5,154.0,206.5,150.0,209.0,151.0,217.0,150.0,223.5,148.0,229.0,153.5" stroke="black" stroke-width="2" fill="none" />
<polyline points="226.0,142.0,218.5,141.0,213.5,141.5,201.5,144.5,198.5,144.0,189.5,140.0" stroke="black" stroke-width="2" fill="none" />
<polyline points="188.0,183.0,180.5,183.5,172.5,184.0" stroke="black" stroke-width="2" fill="none" />
<polyline points="151.0,206.0,149.0,214.0,143.0,217.0,141.0,225.0" stroke="black" stroke-width="2" fill="none" />
<polyline points="102.0,172.0,107.0,164.0,114.0,155.5,121.5,147.5,117.5,134.5,109.5,130.5,102.0,132.5" stroke="black" stroke-width="2" fill="none" />
<polyline points="109.0,138.5,101.0,147.0,97.0,149.0" stroke="black" stroke-width="2" fill="none" />
<polyline points="84.5,146.5,76.5,154.0" stroke="black" stroke-width="2" fill="none" />
<polyline points="75.0,145.5,83.5,138.0" stroke="black" stroke-width="2" fill="none" />
<polyline points="82.5,130.5,74.5,138.0" stroke="black" stroke-width="2" fill="none" />
<polyline points="74.5,132.5,83.0,124.5" stroke="black" stroke-width="2" fill="none" />
<polyline points="82.0,130.5,74.0,130.5,66.5,131.0,58.5,131.0,50.5,131.5,43.0,132.0,35.0,132.5,27.5,133.5,19.5,134.0,11.0,135.0,3.5,135.5" stroke="black" stroke-width="2" fill="none" />
<polyline points="4.0,137.0,12.0,136.5,20.5,136.5" stroke="black" stroke-width="2" fill="none" />
<polyline points="12.0,144.5,4.0,144.5" stroke="black" stroke-width="2" fill="none" />
<polyline points="5.0,146.0,13.0,139.0,20.5,132.0,28.0,125.0,36.0,117.5,43.5,110.0,52.0,102.5,60.0,95.0,68.0,87.5,76.5,80.0,84.5,72.5,92.5,64.5,100.0,57.0,108.0,50.0,115.5,42.0,123.0,34.5,130.5,26.5,138.0,19.0,146.0,11.0,154.0,3.5" stroke="black" stroke-width="2" fill="none" />
<polyline points="147.0,4.0,139.0,11.5,131.0,19.5,123.5,27.0,115.5,35.0,108.0,42.5,100.5,50.0,92.5,57.5,84.5,64.5,77.0,72.0,69.0,79.0,61.0,86.5,52.5,93.5,44.5,101.0,36.5,108.5,28.0,116.0,20.0,123.5,12.5,131.5,5.0,139.5" stroke="black" stroke-width="2" fill="none" />
<polyline points="5.5,140.5,13.5,140.0,21.5,140.0,29.0,140.0,36.5,139.5,44.5,139.0,52.0,139.0,60.0,138.5,67.5,138.0,75.0,137.5,83.0,137.0" stroke="black" stroke-width="2" fill="none" />
<polyline points="84.0,150.0,76.0,150.5,68.0,151.5,60.0,152.0,51.5,153.0,43.0,154.0,35.0,154.0,27.0,154.0,19.0,155.0,11.5,155.5,3.5,156.0" stroke="black" stroke-width="2" fill="none" />
<polyline points="4.5,154.0,12.5,153.5" stroke="black" stroke-width="2" fill="none" />
<polyline points="6.0,153.0,14.0,145.5,21.5,138.0,29.0,130.5,37.0,123.5,45.0,116.0,52.5,108.0,60.0,100.0,67.5,92.0,75.5,84.5,83.5,77.0,91.5,69.5,100.0,62.5,108.5,55.5,116.5,48.0,124.0,40.5,132.0,33.0,140.0,25.5,148.0,18.5,156.0,11.5,164.0,4.5" stroke="black" stroke-width="2" fill="none" />
<polyline points="170.0,4.5,162.0,12.0,154.5,19.0,146.0,27.0,137.5,34.5,129.5,42.0,122.0,49.0,114.0,56.5,106.0,64.0,98.5,72.0,91.0,80.0,82.5,87.0,74.5,94.0,67.0,101.5,59.5,109.5,52.0,117.5,44.0,125.0,35.5,132.0,27.5,139.0,19.5,146.0,11.5,153.5,3.5,161.0" stroke="black" stroke-width="2" fill="none" />
<polyline points="1.5,161.0,10.0,160.5" stroke="black" stroke-width="2" fill="none" />
<polyline points="3.0,167.5,10.5,167.0,19.0,166.5,27.0,165.5,35.0,164.5,43.0,164.0,50.5,163.0,58.0,162.5,65.5,162.0,73.5,161.0,81.5,160.0" stroke="black" stroke-width="2" fill="none" />
<polyline points="83.5,176.5,75.5,177.5,67.0,178.0,58.5,179.0,50.0,179.0,42.5,179.5,34.5,180.5,27.0,181.0,19.0,182.0,11.0,182.5,3.5,183.0" stroke="black" stroke-width="2" fill="none" />
<polyline points="3.5,170.0,11.5,163.0,19.5,155.5,27.5,147.5,35.5,140.0,43.5,132.0,51.5,124.5,59.5,117.0,67.5,109.5,75.5,101.0,83.0,93.0,91.0,85.5,99.0,77.5,106.5,70.0,114.5,62.5,122.0,55.0,130.0,47.0,137.5,39.5,145.5,32.5,153.5,25.5,162.0,18.5,169.5,11.5,177.5,4.0" stroke="black" stroke-width="2" fill="none" />
<polyline points="141.0,3.5,133.0,11.0,125.0,18.0,117.0,25.5,108.5,32.5,100.0,40.0,92.0,47.0,84.0,54.0,75.5,62.0,67.0,70.0,58.5,77.5,51.0,85.0,42.5,92.5,34.5,101.0,27.0,109.0,19.0,117.5,10.5,125.0,2.5,132.5" stroke="black" stroke-width="2" fill="none" />
<polyline points="2.5,130.5,10.5,129.5,18.0,129.0" stroke="black" stroke-width="2" fill="none" />
<polyline points="28.0,119.5,19.5,120.5,11.5,121.5,3.0,122.0" stroke="black" stroke-width="2" fill="none" />
<polyline points="4.0,112.0,11.5,111.5,19.0,111.0,27.0,111.0,35.0,111.0" stroke="black" stroke-width="2" fill="none" />
<polyline points="35.0,103.0,26.5,104.0,18.5,104.5,10.5,105.0,3.0,105.0" stroke="black" stroke-width="2" fill="none" />
<polyline points="1.5,103.0,10.0,102.0,18.5,102.0,27.0,101.5,35.0,100.5,43.5,100.0,52.0,99.0,60.5,98.0,69.0,97.0,77.0,96.0,85.5,95.5,93.5,95.0,101.0,94.5,108.5,94.5,116.0,94.0,124.0,93.5,132.5,94.0,141.0,94.0,149.5,93.5,157.5,92.5,166.0,92.0,173.5,91.5,181.0,91.0,188.5,90.0,196.0,89.0,203.5,88.5,211.5,88.0,219.5,87.0,227.0,86.5,235.5,85.5,243.5,85.0,251.5,84.5,259.0,84.5,267.0,84.5,275.0,84.0" stroke="black" stroke-width="2" fill="none" />
<polyline points="283.0,76.0,274.5,77.0,266.5,78.5,258.5,79.5,250.5,80.0,242.5,81.0,234.5,81.5,226.0,81.0,218.0,81.0,210.0,81.0,202.0,81.0,194.5,81.0,186.5,81.0,179.0,81.5,171.0,81.5,162.5,81.5,155.0,82.0,147.0,82.5,138.5,83.0,129.5,83.5,121.0,84.5,113.0,85.5,105.0,86.0,97.0,87.0,89.0,88.0,80.5,89.0,72.5,89.0,65.0,89.0,57.5,89.5,50.0,90.5,42.0,91.0,34.0,91.5,26.5,91.5,19.0,92.0,11.0,92.5,3.0,93.5" stroke="black" stroke-width="2" fill="none" />
<polyline points="4.0,93.5,12.0,86.0,20.5,78.0,28.0,70.5,35.5,63.0,43.5,55.5,52.0,48.5,59.5,40.5,68.0,33.0,76.0,24.5,84.0,17.0,92.0,9.5,100.5,1.5" stroke="black" stroke-width="2" fill="none" />
<polyline points="94.0,4.5,86.0,12.0,78.0,19.0,69.0,26.0,59.5,33.0,51.0,40.5,42.0,47.5,33.5,55.0,25.5,62.5,17.5,70.5,9.5,77.5,1.5,85.5" stroke="black" stroke-width="2" fill="none" />
<polyline points="5.5,86.0,13.5,85.5,21.0,84.0,29.0,83.5,37.0,83.0,45.0,83.0,53.0,82.0,61.0,81.0,69.0,80.5,77.0,80.0,85.0,79.5,93.0,79.5,101.0,79.0,108.5,78.5,116.5,77.5,124.0,77.0,132.0,76.5,139.5,76.5,147.5,76.5,155.0,76.5,162.5,76.0,171.0,75.5,180.0,74.5,188.5,74.0,197.0,73.5,205.0,73.0,213.5,72.0,222.0,71.5,230.0,70.5,237.5,70.0,245.0,69.5,253.0,69.0,260.5,68.0,268.5,67.5,276.0,68.0,284.0,68.0,292.0,67.5" stroke="black" stroke-width="2" fill="none" />
<polyline points="291.5,58.5,283.5,59.0,276.0,60.0,268.5,61.0,260.0,61.5,252.0,62.0,243.5,62.5,235.5,63.0,227.5,63.0,220.0,63.0,212.0,63.5,204.0,64.0,196.0,64.5,188.0,64.5,179.5,65.5,171.5,66.0,163.5,66.5,155.5,66.5,147.0,66.5,138.5,67.0,130.0,67.5,121.5,68.0,113.5,68.5,106.0,69.0,98.0,69.5,90.0,70.5,82.5,71.0,74.0,72.0,67.0,72.5,59.5,73.0,51.5,73.5,44.0,74.5,37.0,75.5,29.5,76.0,22.0,77.0,14.0,78.5,6.5,78.5" stroke="black" stroke-width="2" fill="none" />
<polyline points="5.0,78.5,13.5,71.0,21.0,64.0,28.5,57.0,35.5,50.0,43.0,43.0,50.5,35.5,58.5,27.5,66.0,20.0,73.5,12.0,81.5,4.5" stroke="black" stroke-width="2" fill="none" />
<polyline points="76.0,5.0,68.5,12.5,60.5,19.5,52.5,27.0,44.5,34.0,36.5,41.5,28.0,49.0,19.5,56.5,11.5,64.0,3.0,71.5" stroke="black" stroke-width="2" fill="none" />
<polyline points="4.0,74.0,12.5,73.0,20.5,72.0,28.5,71.0,36.0,70.5,44.0,69.5,51.5,69.0,59.5,68.5" stroke="black" stroke-width="2" fill="none" />
<polyline points="41.5,94.5,33.5,95.5,25.5,96.5,17.5,97.0,9.5,97.5,1.5,98.0" stroke="black" stroke-width="2" fill="none" />
<polyline points="3.5,100.0,11.5,92.5,19.0,84.5,27.0,77.0,35.0,69.0,43.0,61.5,51.0,54.0,58.5,46.5,66.5,39.0,75.0,31.5,83.5,24.0,92.0,16.5,100.5,9.0,109.0,1.5" stroke="black" stroke-width="2" fill="none" />
<polyline points="68.5,5.0,60.0,12.0,52.0,19.5,43.0,26.0,34.5,32.5,26.5,39.5,18.5,47.0,11.0,54.5,3.5,62.0" stroke="black" stroke-width="2" fill="none" />
<polyline points="2.0,60.0,10.5,59.5,18.5,59.0,26.5,58.5,35.0,57.5,43.5,57.0,51.5,56.5,59.5,56.5,68.0,56.0,76.0,55.0,84.0,54.5,92.0,54.0,100.0,54.0,108.5,53.5,117.0,52.5,124.5,51.5,132.5,51.0,140.5,50.0,149.0,49.5,157.5,49.0,166.0,48.5,173.5,48.0,181.0,48.0,188.5,48.0,196.5,48.0,204.5,48.0,212.5,48.0,220.5,48.0,229.0,48.0,237.5,47.5,245.0,47.5,253.5,47.0,261.0,46.5,268.5,46.0,276.5,45.0,284.0,44.5,291.5,43.5,299.0,42.5" stroke="black" stroke-width="2" fill="none" />
<polyline points="299.0,49.5,290.5,50.5,282.5,51.5,275.0,52.0,267.5,53.0,260.0,54.0,252.5,55.0,244.5,55.5,236.5,56.0,227.5,56.0,219.0,56.5,210.5,57.0,202.0,57.5,194.0,57.5,186.0,57.5,177.5,58.0,169.5,58.5,161.5,59.5,153.5,59.5,145.5,59.5,137.5,60.0,130.0,60.5,122.0,61.5,114.5,61.5,107.0,61.5,99.0,62.0,91.0,62.0,83.5,62.5,75.5,63.0,67.5,63.5,59.5,64.5,51.5,65.5,44.0,66.5,36.0,67.0,28.0,67.5,20.5,68.5,12.5,69.0,5.0,69.0" stroke="black" stroke-width="2" fill="none" />
<polyline points="3.5,64.5,11.5,64.0,19.5,63.5,27.5,63.0,35.5,62.0,43.0,61.5,51.0,60.5,58.5,60.0,66.5,59.0" stroke="black" stroke-width="2" fill="none" />
<polyline points="60.0,2.5,52.0,10.0,43.5,18.0,35.5,25.5,27.5,33.0,19.5,41.0,11.5,48.0,4.0,55.5" stroke="black" stroke-width="2" fill="none" />
<polyline points="1.5,57.0,10.0,56.5,18.0,56.0,26.5,56.0,34.5,55.5,42.5,55.5,51.0,54.5,59.5,54.0,68.0,53.0" stroke="black" stroke-width="2" fill="none" />
<polyline points="51.0,3.5,43.0,11.5,35.0,19.5,27.0,27.0,19.0,34.5,11.5,42.0,3.5,49.5" stroke="black" stroke-width="2" fill="none" />
<polyline points="1.5,49.0,9.5,48.5,18.0,48.5,26.0,48.0,34.0,47.5,42.5,47.0,50.5,47.0,58.0,46.5,66.0,46.5,74.0,47.0" stroke="black" stroke-width="2" fill="none" />
<polyline points="43.0,4.5,35.0,12.0,27.5,19.0,20.0,26.5,12.5,34.0,4.5,41.5" stroke="black" stroke-width="2" fill="none" />
<polyline points="3.5,43.5,11.0,43.0,18.5,42.0,26.5,41.5,34.0,40.5,42.0,39.5,50.0,39.5,58.0,39.0,66.0,38.5,74.5,38.0,82.5,37.5" stroke="black" stroke-width="2" fill="none" />
<polyline points="35.5,3.0,27.5,10.5,19.0,18.0,11.0,25.5,2.5,32.5" stroke="black" stroke-width="2" fill="none" />
<polyline points="2.5,32.5,10.5,32.5,18.0,32.5,26.0,32.0,34.5,31.0,42.0,30.5,50.5,30.5,58.0,30.0,66.0,29.5,73.5,28.5,81.5,28.0,90.0,27.5" stroke="black" stroke-width="2" fill="none" />
<polyline points="28.5,2.5,20.5,9.5,12.5,17.0,4.0,24.5" stroke="black" stroke-width="2" fill="none" />
<polyline points="5.0,25.5,13.0,25.0,21.0,24.5,29.0,24.0,37.0,23.5,45.0,22.5,53.0,22.0,60.5,22.0,68.5,21.5,76.5,21.5,84.5,21.0,92.5,20.5,101.0,19.5" stroke="black" stroke-width="2" fill="none" />
<polyline points="21.0,3.0,13.0,10.0,5.0,17.5" stroke="black" stroke-width="2" fill="none" />
<polyline points="5.0,12.5,13.0,12.0,22.0,11.0,30.0,11.0,38.0,11.0,46.5,10.5,54.0,10.0,62.0,9.5,70.0,8.5,78.0,8.0,85.5,7.5,93.5,7.0,101.5,7.0,109.0,7.0,116.5,6.5,124.5,6.0,132.0,6.0,140.0,5.5,147.5,5.0,155.0,4.5,163.0,4.0,171.5,3.5,179.5,3.0,188.0,2.5,196.5,2.5,204.0,2.0,211.5,1.5,219.5,1.0,227.5,0.0,235.0,-0.5,243.0,-1.0,250.5,-2.0,258.0,-2.5,266.0,-2.5,274.0,-3.0,282.0,-4.0,290.5,-5.0,299.0,-5.5,307.5,-6.5,316.0,-8.0,323.5,-9.0,332.0,-9.5,340.5,-9.5,348.5,-10.0,357.5,-10.5,366.0,-11.0,374.0,-11.0,381.5,-10.5,389.5,-10.0,397.5,-10.5,405.5,-11.0,413.5,-11.5,421.5,-12.0,429.5,-13.0,437.5,-13.5,445.5,-14.0,453.0,-14.0,460.5,-14.5,468.0,-14.5,475.5,-15.0,483.0,-15.5,491.0,-16.0,499.5,-16.5,508.0,-17.0,516.0,-17.5" stroke="black" stroke-width="2" fill="none" />
<polyline points="515.5,-27.5,507.5,-27.0,500.0,-26.5,492.0,-26.5,484.0,-26.5,476.0,-25.5,468.0,-24.5,459.5,-23.0,451.0,-22.5,443.5,-22.0,436.0,-21.5,428.0,-21.0,420.0,-20.5,412.0,-20.0,404.0,-20.0,396.0,-19.5,388.0,-19.0,380.5,-19.0,373.0,-18.5,365.5,-17.5,357.5,-17.0,349.0,-16.5,340.5,-15.5,332.5,-14.5,324.0,-14.0,316.5,-13.5,309.0,-13.0,301.0,-12.0,293.5,-11.5,285.5,-11.0,277.0,-10.0,268.5,-10.0,260.0,-9.5,251.5,-8.5,243.5,-8.0,236.0,-7.5,228.0,-7.0,219.5,-6.5,211.5,-5.5,203.0,-4.5,194.5,-4.5,186.0,-4.5,178.0,-4.0,170.0,-3.5,162.0,-2.5,154.0,-2.5,146.5,-2.0,138.5,-2.0,130.5,-1.5,123.0,-1.0,115.0,-0.5,107.5,0.5,99.5,1.0,91.0,2.0,83.5,2.5,75.0,3.0,67.0,3.5,59.0,4.0,51.5,4.0,44.0,4.5,36.5,5.0,28.5,5.0,20.5,5.0,12.0,5.5,4.0,5.5" stroke="black" stroke-width="2" fill="none" />
<polyline points="4.0,10.0,12.0,9.5,20.5,9.0,28.0,8.5,36.0,8.0,43.5,7.5,52.0,7.0,60.0,5.5,68.0,5.0,76.0,4.5,84.0,4.0,92.0,3.5,100.5,3.5,108.0,4.0,116.0,4.0,123.5,4.0" stroke="black" stroke-width="2" fill="none" />
<polyline points="14.0,2.0,6.0,10.0" stroke="black" stroke-width="2" fill="none" />
<polyline points="2.5,29.0,10.5,28.0,19.0,27.0,27.5,26.0,36.0,25.5,44.0,25.5,52.0,24.5,60.0,24.0,68.0,23.5,75.5,23.5,83.5,23.0,91.5,22.5,99.0,22.0,107.0,21.0,115.0,21.0,123.0,21.0,131.5,20.0,140.0,19.0,148.0,18.5,156.0,17.5,164.0,17.0,172.0,16.5,180.5,16.5,189.0,16.0,197.0,16.0,204.5,16.5,213.0,16.5,221.0,16.5,229.0,16.5,237.0,16.5,245.0,15.5,253.0,15.0,261.0,15.0,269.5,14.5,277.5,14.5,285.5,13.5,293.5,13.0,301.0,12.0,308.5,11.5,316.0,10.5,324.0,9.5" stroke="black" stroke-width="2" fill="none" />
<polyline points="315.5,17.5,308.0,18.0,300.0,18.5,292.0,18.5,284.0,19.5,275.5,20.0,267.0,20.5,258.5,21.5,250.5,21.5,242.0,22.0,234.5,22.5,226.5,23.0,218.5,23.5,211.0,24.0,203.0,24.5,195.0,25.5,186.5,26.5,178.5,27.0,169.5,27.0,161.5,27.0,153.5,28.0,145.5,29.0,138.0,29.5,130.5,30.0,123.0,31.0,115.0,31.5,107.0,32.5,99.0,33.5,90.5,34.0,83.0,34.5,74.5,35.0,66.5,35.5,58.5,35.5,50.0,35.5,42.0,36.5,34.5,37.0,27.0,37.5,19.0,38.0,11.0,39.0,3.0,39.5" stroke="black" stroke-width="2" fill="none" />
<polyline points="2.0,47.0,9.5,47.0,18.0,46.0,26.0,45.5,33.5,45.0,42.0,44.0,50.5,43.5,58.5,43.5,67.0,43.0,75.0,42.5,83.5,42.0,91.0,41.5,99.0,41.0,107.0,40.0,114.5,39.5,122.5,38.5,130.0,38.0,138.5,38.0,147.0,37.0,155.5,36.5,163.5,35.5,171.5,35.5,179.5,35.5,187.5,35.0,195.0,35.0,203.5,34.5,211.0,34.5,218.5,33.5,225.5,33.0,233.0,32.0,240.5,31.5,248.5,31.0,256.5,30.5,265.0,30.0,273.0,30.0,281.5,29.5,289.5,29.5,297.5,28.5,305.5,28.0,314.0,28.0" stroke="black" stroke-width="2" fill="none" />
<polyline points="307.0,32.5,299.0,33.5,291.0,34.0,283.0,34.0,275.0,35.0,266.5,36.0,258.5,36.0,250.5,36.0,243.0,36.5,234.5,37.0,226.5,37.5,219.0,38.5,212.0,39.0,204.5,40.0,196.5,41.0,188.5,42.5,181.0,43.0,173.0,43.5,165.5,44.0,157.0,44.0,148.5,45.0,140.0,46.0,131.5,47.0,123.0,48.0,115.0,48.5,107.0,49.0,99.0,49.5,91.0,50.0,83.0,50.5,75.0,51.0,67.0,51.5,58.5,51.5,50.0,51.0,41.5,51.0,34.0,51.5,26.0,52.0,18.5,52.0,10.5,52.0,2.5,52.5" stroke="black" stroke-width="2" fill="none" />
<polyline points="4.5,80.5,12.0,80.0,20.0,79.5,28.0,79.0,35.5,78.0,43.0,77.0,51.0,77.0" stroke="black" stroke-width="2" fill="none" />
<polyline points="52.0,86.5,43.5,87.0,35.5,87.5,27.5,88.0,19.5,88.5,12.0,89.0,4.0,89.5" stroke="black" stroke-width="2" fill="none" />
<polyline points="5.0,151.5,13.5,150.5,21.0,150.0,29.0,149.0,37.0,148.5,45.0,148.5,53.0,148.0,61.0,147.0,69.0,146.5,77.0,145.5,85.0,144.5" stroke="black" stroke-width="2" fill="none" />
<polyline points="58.5,146.0,50.5,153.0,42.0,161.0,34.0,169.0,27.0,176.5,19.5,184.0,11.5,191.5,4.0,199.0" stroke="black" stroke-width="2" fill="none" />
<polyline points="5.5,225.5,13.0,218.5,21.0,212.0,28.5,204.5,36.5,197.5" stroke="black" stroke-width="2" fill="none" />
<polyline points="88.0,177.0,96.0,175.0,104.0,165.5,106.0,152.5,112.0,155.0,124.5,149.0,132.5,145.0,140.5,143.5,142.5,137.5,150.5,152.0,160.5,142.0" stroke="black" stroke-width="2" fill="none" />
<polyline points="152.0,132.0,149.5,130.0,139.5,130.5,142.5,127.0,145.0,129.0,136.5,135.0,134.5,137.5" stroke="black" stroke-width="2" fill="none" />
<polyline points="132.0,129.5,124.0,137.0" stroke="black" stroke-width="2" fill="none" />
<polyline points="122.5,135.5,131.0,135.5" stroke="black" stroke-width="2" fill="none" />
<polyline points="134.5,126.0,142.5,123.5,132.5,125.5,132.0,129.0,136.0,122.0,144.0,120.0,148.0,124.0,144.5,132.0,142.0,138.0,149.0,146.0,150.5,154.0,146.5,160.0,149.5,171.0,151.5,174.0,159.5,172.5,167.5,172.0,175.5,169.0,183.0,170.0,191.0,169.0,199.0,171.5,207.0,170.5,213.5,170.5,214.0,171.5" stroke="black" stroke-width="2" fill="none" />
<polyline points="209.0,215.5,204.0,223.5" stroke="black" stroke-width="2" fill="none" />
<polyline points="239.5,235.5,239.0,227.5,239.0,220.0,239.0,212.0,239.0,204.0,239.0,196.0,239.5,188.0,239.0,180.0,239.0,172.0,239.0,164.0,239.0,156.0,239.0,147.5,239.0,139.5,239.0,131.5,239.0,123.5,235.0,115.5,232.0,114.5,224.0,116.5,216.0,116.0,207.5,116.0,200.0,117.0,192.0,116.5,184.5,116.5,176.5,116.0,168.5,116.0,160.5,116.0,152.0,116.5,144.0,117.0,135.5,117.0,127.5,117.0,119.5,117.0,112.0,117.0,104.0,116.5,96.0,116.5,88.0,116.5" stroke="black" stroke-width="2" fill="none" />
<polyline points="83.5,117.5,82.5,125.5,82.0,133.0,82.0,140.5,82.0,149.0,82.0,157.0,81.0,165.0,82.0,172.5,81.0,180.5,81.0,188.5,82.0,196.5,86.0,197.5,89.0,205.5,93.0,204.5,85.5,211.5,87.5,213.5,93.5,213.5,94.0,211.0" stroke="black" stroke-width="2" fill="none" />
<polyline points="124.0,124.5,132.0,124.0,140.0,124.0" stroke="black" stroke-width="2" fill="none" />
<polyline points="142.0,118.0,149.5,117.5" stroke="black" stroke-width="2" fill="none" />
<polyline points="78.5,116.5,77.5,124.5,77.5,132.5,77.5,140.5,77.0,148.0,77.0,156.0,77.0,164.0,77.0,172.0,77.5,180.5,77.5,188.5,78.0,196.5,78.0,205.0,78.0,213.0,78.0,220.5,77.5,229.0,78.5,232.5,86.5,235.0,94.5,234.5,102.5,234.5,110.5,234.0,118.5,234.5,126.5,234.0,134.0,234.5,142.5,234.5,150.5,235.0,159.0,235.0,167.0,235.0,175.0,235.5,183.0,235.5,191.0,235.0,199.0,235.0,207.0,235.0,215.0,235.0,223.0,235.5,231.5,236.5,239.5,236.0" stroke="black" stroke-width="2" fill="none" />
<polyline points="272.5,175.0,271.5,182.5,271.0,190.5,271.0,198.5,270.5,206.5,270.5,214.5,270.5,222.5,271.0,230.5,272.0,239.0,272.0,247.0,272.0,255.0,272.0,263.0,272.0,270.5,272.0,278.5,272.0,286.0,272.5,294.0,273.5,302.0,279.5,302.5,287.5,301.5,295.5,302.0,303.5,302.0,311.5,302.0,320.0,303.0,328.0,303.0,336.0,303.0,344.0,302.5,352.5,302.5,360.5,303.5,368.5,303.0,377.0,303.0,384.5,302.5,392.5,302.0,400.5,301.5" stroke="black" stroke-width="2" fill="none" />
<polyline points="474.0,140.5,471.0,132.5,461.5,124.0,462.5,115.5,467.5,107.0,464.5,106.0,457.5,98.0,445.5,90.0,432.5,81.5,419.5,74.0,406.5,66.5,398.0,61.5,386.5,53.5,373.5,45.5,360.5,37.5,346.5,29.5,330.5,21.5" stroke="black" stroke-width="2" fill="none" />
<polyline points="13.5,272.0,5.5,272.5" stroke="black" stroke-width="2" fill="none" />
</svg>