<svg xmlns="http://www.w3.org/2000/svg" version="1.1"><path d="M328.0,19.5,323.0,27.5,319.0,35.5,314.0,44.0,308.5,52.0,303.5,60.0,298.0,68.0,292.0,76.0,284.5,84.5,285.5,86.5,281.5,95.0,276.5,102.5,271.5,110.0,266.5,117.5,262.5,125.0,258.0,133.0,254.0,140.5,249.0,148.5,248.0,156.5,249.5,164.5,249.5,173.0,250.5,180.5" stroke="black" stroke-width="2" fill="none" />
<path d="M243.5,177.0,235.0,185.0,226.5,192.0" stroke="black" stroke-width="2" fill="none" />
<path d="M223.5,188.5,230.5,184.5,233.0,192.0" stroke="black" stroke-width="2" fill="none" />
<path d="M236.5,194.5,244.0,187.0" stroke="black" stroke-width="2" fill="none" />
<path d="M244.5,195.0,237.0,202.0" stroke="black" stroke-width="2" fill="none" />
<path d="M235.0,206.0,243.0,205.5,251.0,205.5" stroke="black" stroke-width="2" fill="none" />
<path d="M244.5,201.0,237.0,209.0" stroke="black" stroke-width="2" fill="none" />
<path d="M236.5,214.5,244.5,214.0,252.5,213.5" stroke="black" stroke-width="2" fill="none" />
<path d="M244.5,226.0,237.0,233.0" stroke="black" stroke-width="2" fill="none" />
<path d="M238.0,229.5,229.5,237.0" stroke="black" stroke-width="2" fill="none" />
<path d="M220.0,227.5,212.0,235.0" stroke="black" stroke-width="2" fill="none" />
<path d="M211.5,229.5,203.0,237.0" stroke="black" stroke-width="2" fill="none" />
<path d="M196.5,234.0,204.5,226.5" stroke="black" stroke-width="2" fill="none" />
<path d="M196.0,226.0,188.0,233.5" stroke="black" stroke-width="2" fill="none" />
<path d="M186.0,227.0,178.5,234.5" stroke="black" stroke-width="2" fill="none" />
<path d="M164.5,226.0,157.0,233.5" stroke="black" stroke-width="2" fill="none" />
<path d="M147.0,227.0,139.0,227.0,130.5,227.0,132.5,220.5,126.0,224.5,127.0,217.0,132.0,204.0,129.0,195.5" stroke="black" stroke-width="2" fill="none" />
<path d="M131.5,194.0,123.5,195.5,115.0,196.5,107.5,197.5,99.0,198.0" stroke="black" stroke-width="2" fill="none" />
<path d="M102.5,199.0,110.5,198.0" stroke="black" stroke-width="2" fill="none" />
<path d="M105.0,189.5,113.5,189.0,121.5,189.0,130.0,189.0" stroke="black" stroke-width="2" fill="none" />
<path d="M130.5,192.0,138.5,186.0,147.0,180.5,155.0,175.5,163.5,174.5,147.0,181.5,146.0,186.5,142.5,200.5,133.5,208.5,140.5,215.5,138.5,224.0,139.5,217.0,144.0,211.0,152.0,219.0,155.5,221.5,164.5,230.5,172.5,230.5,180.0,224.5,188.0,228.5,196.5,230.0,204.5,230.0,213.0,231.0,221.0,231.0,224.5,226.0,229.5,231.5" stroke="black" stroke-width="2" fill="none" />
<path d="M237.5,223.5,245.0,223.0,253.0,221.5" stroke="black" stroke-width="2" fill="none" />
<path d="M251.5,229.0,243.5,229.0,235.5,229.5,227.0,230.0,219.0,231.0,211.5,231.5,203.5,232.5,196.0,234.0,187.5,235.0,179.5,236.0,172.0,237.0,164.0,237.5,156.0,238.0,148.5,239.0,141.0,239.5,133.5,239.5,126.0,240.0,117.5,240.0,110.0,240.0,101.5,240.5,93.5,241.0,85.5,241.5,77.5,242.0,69.0,242.0,61.0,242.0,52.5,242.0,45.0,242.5,37.0,242.5,29.0,243.5,21.5,244.0,13.5,244.0,5.0,244.5" stroke="black" stroke-width="2" fill="none" />
<path d="M4.5,250.0,12.5,242.0,20.5,234.0,28.5,226.5,37.0,218.5,45.0,211.0" stroke="black" stroke-width="2" fill="none" />
<path d="M45.0,203.0,36.5,211.0,29.0,219.0,21.0,227.0,12.5,235.0,4.0,242.5" stroke="black" stroke-width="2" fill="none" />
<path d="M4.5,236.5,13.0,236.5,20.5,236.0,28.0,236.0,36.0,236.0,44.0,235.5,52.0,235.5,60.0,235.5,68.5,235.5,77.0,235.0,84.5,234.0,93.0,233.0,100.5,232.0,108.5,231.5,116.5,231.0,124.5,231.0,133.0,230.0,141.5,229.5,149.5,229.5,157.5,230.0,165.5,229.5,173.0,229.0,181.0,227.5,188.5,226.5,196.0,225.5,203.5,224.5,211.5,224.0,220.0,223.0,228.0,222.5,236.0,222.0,244.0,221.5,252.0,221.0" stroke="black" stroke-width="2" fill="none" />
<path d="M251.0,214.0,243.5,214.5,235.5,214.5,227.5,214.5,220.0,215.0,212.5,216.0,204.5,217.0,197.0,218.0,188.5,218.5,180.5,219.5,172.5,220.0,164.5,220.5,156.5,220.5,148.0,221.0,139.5,222.0,131.5,223.0,123.0,224.0,115.0,224.5,107.0,224.5,98.5,224.5,90.0,225.0,82.0,225.0,74.0,226.0,66.5,226.5,59.0,227.0,50.5,227.0,42.5,227.5,34.5,227.5,26.0,227.5,17.5,227.5,9.5,227.5,1.5,228.0" stroke="black" stroke-width="2" fill="none" />
<path d="M4.0,234.0,12.0,227.0,19.5,219.0,27.5,212.0,36.0,205.0,44.0,197.5" stroke="black" stroke-width="2" fill="none" />
<path d="M34.5,198.0,26.5,205.0,19.0,212.5,11.0,219.5,3.0,226.5" stroke="black" stroke-width="2" fill="none" />
<path d="M3.5,221.5,11.5,221.0,19.0,221.0,27.0,221.0,35.0,221.0,43.5,220.5,51.5,220.0,60.5,219.5,69.0,218.5,77.0,218.0,84.5,217.5,92.5,216.5,100.5,216.5,108.0,216.0,115.0,216.0,123.0,216.0,131.0,215.5,139.0,214.5,147.0,213.5,155.0,212.5,163.0,212.0,171.0,211.5,179.0,211.5,187.5,211.0,196.5,211.0" stroke="black" stroke-width="2" fill="none" />
<path d="M195.5,203.5,203.5,196.5,211.0,189.0,219.0,181.5" stroke="black" stroke-width="2" fill="none" />
<path d="M212.5,185.0,220.0,184.5,228.5,184.0" stroke="black" stroke-width="2" fill="none" />
<path d="M226.5,181.5,227.5,179.0,225.5,181.0,223.5,189.0,226.5,188.5,229.0,197.5,235.0,200.5,235.0,209.0" stroke="black" stroke-width="2" fill="none" />
<path d="M229.5,198.5,237.0,198.0,245.0,197.0,252.5,196.0" stroke="black" stroke-width="2" fill="none" />
<path d="M244.5,170.5,236.0,177.5,228.0,185.5,219.5,193.5" stroke="black" stroke-width="2" fill="none" />
<path d="M221.0,193.5,212.5,194.5,204.0,195.5,195.5,196.0,187.5,196.5,179.0,197.5,170.5,198.0" stroke="black" stroke-width="2" fill="none" />
<path d="M170.0,203.0,161.5,203.5,153.5,204.5,146.0,205.0,138.0,205.5,130.0,206.0,122.5,206.5,115.5,206.5,108.0,207.5,100.5,208.0,93.5,208.5,85.5,209.0,77.0,209.0,68.5,209.5,60.5,210.0,52.5,210.5,44.5,210.5,36.5,211.5,29.0,212.0,21.5,213.0,13.5,214.0,5.5,214.5" stroke="black" stroke-width="2" fill="none" />
<path d="M4.5,216.5,13.0,209.0,20.5,201.5,28.5,194.0,36.5,187.0,44.5,179.5" stroke="black" stroke-width="2" fill="none" />
<path d="M46.0,169.5,38.0,177.0,29.5,184.5,21.5,192.0,13.5,199.5,5.0,207.5" stroke="black" stroke-width="2" fill="none" />
<path d="M4.5,205.0,12.5,204.5,20.5,204.0,28.5,204.0,36.5,204.0,44.0,203.5,51.5,203.0,59.5,202.5,68.0,201.5,76.5,200.5,85.0,200.0,92.5,199.5,100.0,199.5,107.5,199.5,114.5,199.0,122.0,198.0,130.5,197.5,138.5,197.0,146.5,196.0" stroke="black" stroke-width="2" fill="none" />
<path d="M146.0,193.0,137.5,191.0" stroke="black" stroke-width="2" fill="none" />
<path d="M134.0,195.5,142.0,195.5,154.5,192.0,162.5,198.0" stroke="black" stroke-width="2" fill="none" />
<path d="M164.0,190.0,172.5,189.5,180.5,189.0,189.0,188.5,197.0,188.0,204.5,187.0,212.5,186.0,220.5,185.5,228.5,184.5,236.0,183.5,244.0,183.0,252.0,182.5" stroke="black" stroke-width="2" fill="none" />
<path d="M250.5,164.0,242.0,165.0,233.5,165.5" stroke="black" stroke-width="2" fill="none" />
<path d="M235.0,157.0,243.0,156.5,251.0,156.5" stroke="black" stroke-width="2" fill="none" />
<path d="M249.0,156.5,250.5,149.5,258.5,135.5,266.5,122.0,274.5,108.5,282.5,95.5,286.0,84.5,294.0,75.0,302.0,61.0,310.0,48.0,317.5,35.0,325.5,21.0,334.0,22.0,342.0,26.0,350.0,30.5,358.0,35.5,366.0,40.5,373.5,45.5,381.5,50.0,389.5,55.0,397.0,60.0,405.5,65.0,414.0,70.5,422.0,75.5,430.0,80.5,438.5,85.5,446.5,90.5,454.5,95.5,462.5,100.0" stroke="black" stroke-width="2" fill="none" />
<path d="M467.5,99.0,475.5,99.0,484.0,99.0,492.5,99.0,500.5,99.5,509.0,99.0,517.0,99.0" stroke="black" stroke-width="2" fill="none" />
<path d="M514.0,101.0,506.0,108.0,498.5,115.0,491.0,122.5,483.5,130.0" stroke="black" stroke-width="2" fill="none" />
<path d="M475.0,131.5,483.5,131.0,492.0,131.0,500.0,131.0,508.0,131.0,516.0,130.5" stroke="black" stroke-width="2" fill="none" />
<path d="M517.0,132.0,508.5,139.5,500.0,147.0" stroke="black" stroke-width="2" fill="none" />
<path d="M509.5,155.5,517.5,147.5" stroke="black" stroke-width="2" fill="none" />
<path d="M517.0,154.5,509.0,162.5" stroke="black" stroke-width="2" fill="none" />
<path d="M516.0,163.0,508.0,170.5" stroke="black" stroke-width="2" fill="none" />
<path d="M515.0,172.0,506.5,179.5" stroke="black" stroke-width="2" fill="none" />
<path d="M507.5,188.0,515.5,181.0" stroke="black" stroke-width="2" fill="none" />
<path d="M515.0,188.0,507.0,195.5,499.5,203.5" stroke="black" stroke-width="2" fill="none" />
<path d="M514.5,203.0,507.0,210.5,499.0,218.0,491.0,225.5,482.5,233.0,474.0,241.0,465.5,248.5" stroke="black" stroke-width="2" fill="none" />
<path d="M461.0,244.5,468.5,244.0,476.0,244.0,484.0,243.5,491.5,243.5,499.0,243.0,507.0,242.5,515.0,242.5" stroke="black" stroke-width="2" fill="none" />
<path d="M515.5,244.0,508.0,251.5,499.5,259.0,492.0,267.0,484.0,275.0,476.0,282.5,468.0,290.0,460.0,297.5,452.0,304.5,444.0,311.5,436.5,319.0,429.0,326.5,421.0,334.0" stroke="black" stroke-width="2" fill="none" />
<path d="M428.0,336.0,435.5,328.5,444.0,321.0,451.5,313.5,460.0,306.0,468.0,298.0,476.5,290.5,484.5,283.0,493.0,275.5,501.5,268.0,509.5,261.0,517.5,254.0" stroke="black" stroke-width="2" fill="none" />
<path d="M515.0,260.5,507.5,268.0,499.0,276.0,491.0,283.5,483.0,291.0,475.0,298.0,467.5,305.5,460.5,312.5,453.0,319.5,445.5,327.0,438.0,334.5" stroke="black" stroke-width="2" fill="none" />
<path d="M445.5,335.0,452.5,327.5,460.0,320.0,467.0,312.5,474.5,304.5,482.5,297.5,490.5,290.5,499.0,283.0,507.5,275.0,516.0,268.0" stroke="black" stroke-width="2" fill="none" />
<path d="M515.0,274.5,507.0,282.5,499.5,290.5,491.5,298.5,483.0,306.0,475.0,313.5,467.5,321.0,460.5,328.0,452.5,335.5" stroke="black" stroke-width="2" fill="none" />
<path d="M452.0,337.0,460.5,337.0,469.0,336.0,477.0,335.5,485.0,335.0,493.0,334.5,500.5,334.5,508.5,334.0,516.0,333.5" stroke="black" stroke-width="2" fill="none" />
<path d="M515.5,331.5,507.0,339.5" stroke="black" stroke-width="2" fill="none" />
<path d="M499.0,338.0,507.0,331.0,515.5,323.5" stroke="black" stroke-width="2" fill="none" />
<path d="M513.5,315.0,505.5,322.5,497.5,330.0,489.5,337.0" stroke="black" stroke-width="2" fill="none" />
<path d="M482.0,337.0,490.0,329.0,498.0,321.5,506.0,314.5,513.5,306.5" stroke="black" stroke-width="2" fill="none" />
<path d="M514.0,298.5,506.5,306.0,498.0,313.0,490.0,320.5,482.0,327.5,474.0,335.5" stroke="black" stroke-width="2" fill="none" />
<path d="M467.5,336.0,475.5,328.5,483.0,321.0,491.0,313.5,499.0,305.5,507.0,297.5,514.5,289.0" stroke="black" stroke-width="2" fill="none" />
<path d="M516.5,289.0,509.0,290.0" stroke="black" stroke-width="2" fill="none" />
<path d="M515.0,283.0,507.0,290.5,499.0,297.5,491.5,305.0,484.0,312.0,476.0,320.0,468.0,327.5,460.5,335.0" stroke="black" stroke-width="2" fill="none" />
<path d="M460.0,328.5,468.0,328.0,475.5,327.5,483.5,327.0,491.0,326.5,498.5,326.5,507.0,326.5,515.5,326.0" stroke="black" stroke-width="2" fill="none" />
<path d="M516.0,296.5,507.0,297.0,499.0,297.0,491.5,297.0,483.5,297.5" stroke="black" stroke-width="2" fill="none" />
<path d="M476.0,306.5,484.5,306.0,492.5,305.5,500.5,305.0,509.0,304.0,517.5,304.0" stroke="black" stroke-width="2" fill="none" />
<path d="M516.5,318.5,508.5,319.5,500.5,320.0,492.5,321.0,485.0,322.0,477.0,322.0,469.0,322.5" stroke="black" stroke-width="2" fill="none" />
<path d="M469.0,315.0,477.0,314.5,484.0,314.0,492.0,313.0,500.0,312.0,507.5,311.0,515.5,310.0" stroke="black" stroke-width="2" fill="none" />
<path d="M460.5,270.5,468.0,263.5,475.0,257.0,482.5,249.5,490.5,242.0,498.5,235.0,506.5,228.0,514.5,220.0" stroke="black" stroke-width="2" fill="none" />
<path d="M515.5,211.5,507.5,219.0,499.5,226.0,491.5,233.5,483.5,241.0,476.0,248.5,467.5,256.0" stroke="black" stroke-width="2" fill="none" />
<path d="M459.5,253.5,467.0,253.0,475.0,252.0,483.0,251.5,491.5,251.0,499.0,251.0,507.0,250.5,515.0,250.5" stroke="black" stroke-width="2" fill="none" />
<path d="M518.0,237.0,510.0,244.5,501.5,251.5,493.5,258.5,485.5,265.5,477.0,273.0,469.5,279.5,461.5,287.0,454.0,294.0,446.0,301.0,437.5,308.0,429.5,316.0,421.0,323.5,413.0,331.0" stroke="black" stroke-width="2" fill="none" />
<path d="M411.5,322.5,403.5,330.0,395.5,337.5" stroke="black" stroke-width="2" fill="none" />
<path d="M404.0,330.5,412.5,323.0,421.0,315.5,430.0,308.0,438.0,300.5,446.0,293.0,454.0,286.0,461.5,279.5,469.0,272.5,476.5,265.5,484.5,258.0,492.0,250.0,500.0,242.5,508.0,235.5,516.0,228.5" stroke="black" stroke-width="2" fill="none" />
<path d="M499.0,210.5,507.0,203.5,515.0,196.5" stroke="black" stroke-width="2" fill="none" />
<path d="M515.5,195.0,508.0,195.5,500.5,196.0,492.5,196.5,484.5,197.0,476.0,197.5" stroke="black" stroke-width="2" fill="none" />
<path d="M475.5,190.0,483.5,189.5,491.0,189.0,498.5,189.0,506.0,189.0,513.5,188.5" stroke="black" stroke-width="2" fill="none" />
<path d="M501.5,155.0,510.0,147.5,517.5,140.0" stroke="black" stroke-width="2" fill="none" />
<path d="M514.5,124.0,506.0,131.5,498.0,139.0" stroke="black" stroke-width="2" fill="none" />
<path d="M490.0,139.0,498.0,132.0,506.0,124.0,514.0,116.5" stroke="black" stroke-width="2" fill="none" />
<path d="M517.0,109.5,508.5,117.5,500.5,125.0,492.0,132.0,483.5,139.5" stroke="black" stroke-width="2" fill="none" />
<path d="M474.0,141.5,482.5,141.0,491.0,141.0,499.5,140.5,507.5,140.0,516.0,140.0" stroke="black" stroke-width="2" fill="none" />
<path d="M484.0,121.0,491.5,113.0,499.5,106.0,507.0,99.0,515.0,92.0" stroke="black" stroke-width="2" fill="none" />
<path d="M515.5,83.0,507.0,90.0,499.5,97.0,492.0,104.5,484.5,112.5,477.0,120.0" stroke="black" stroke-width="2" fill="none" />
<path d="M468.0,119.5,475.5,112.0,484.0,105.0,491.5,97.5,499.5,90.0,508.0,83.0,516.0,75.5" stroke="black" stroke-width="2" fill="none" />
<path d="M515.0,68.0,507.5,75.5,500.0,83.0,491.5,90.0,483.0,98.0,475.0,105.5" stroke="black" stroke-width="2" fill="none" />
<path d="M473.0,97.0,481.0,89.5,489.5,82.0,497.5,74.0,505.0,66.5,513.0,59.0" stroke="black" stroke-width="2" fill="none" />
<path d="M515.0,50.5,507.5,57.5,499.0,65.0,491.0,72.5,483.5,81.0,475.0,89.0,466.5,96.0" stroke="black" stroke-width="2" fill="none" />
<path d="M466.5,86.5,475.0,78.5,483.5,71.0,491.5,63.5,499.5,56.0,507.0,48.5,515.0,41.5" stroke="black" stroke-width="2" fill="none" />
<path d="M514.0,34.5,506.0,42.0,498.5,49.5,490.5,57.0,483.0,63.5,475.0,71.0,467.0,79.0,459.0,86.5" stroke="black" stroke-width="2" fill="none" />
<path d="M450.5,87.5,458.5,80.0,467.0,72.0,474.5,64.0,482.5,57.0,490.0,49.0,498.0,41.5,505.5,33.5,513.5,26.0" stroke="black" stroke-width="2" fill="none" />
<path d="M513.5,20.0,505.5,27.5,498.5,35.0,491.0,42.5,483.0,50.0,475.0,57.5,467.0,65.0,459.5,73.0,451.0,80.0" stroke="black" stroke-width="2" fill="none" />
<path d="M445.5,84.0,453.5,83.0,461.5,83.0,469.0,82.5,476.5,82.5,484.0,82.5,492.0,82.0,500.0,81.5,508.5,81.0,516.5,81.0" stroke="black" stroke-width="2" fill="none" />
<path d="M516.5,50.5,508.5,51.0" stroke="black" stroke-width="2" fill="none" />
<path d="M515.0,42.0,506.5,42.5,498.5,43.5" stroke="black" stroke-width="2" fill="none" />
<path d="M489.5,34.5,497.5,34.0,506.0,34.0,514.5,33.5" stroke="black" stroke-width="2" fill="none" />
<path d="M515.0,13.0,507.0,20.0,499.0,27.5,491.0,35.0,483.0,42.5,475.0,50.0,467.5,57.5,459.5,64.5,451.5,72.0,444.0,79.0" stroke="black" stroke-width="2" fill="none" />
<path d="M443.5,72.0,452.0,64.5,460.5,57.0,469.0,49.5,477.5,42.0,484.5,34.5,492.0,27.0,500.0,19.5,508.0,12.5,516.0,5.0" stroke="black" stroke-width="2" fill="none" />
<path d="M508.5,4.0,500.5,11.5,493.0,19.0,485.5,26.5,478.0,34.5,470.0,42.0,461.5,49.5,453.0,57.0,445.0,65.0,437.0,73.0" stroke="black" stroke-width="2" fill="none" />
<path d="M428.0,72.0,436.5,65.0,444.5,57.5,452.5,49.5,460.0,41.5,468.5,34.5,476.5,27.5,484.0,20.0,492.0,12.5,500.5,5.0" stroke="black" stroke-width="2" fill="none" />
<path d="M489.5,5.0,481.5,12.5,474.0,20.0,466.5,27.5,460.0,35.0,453.0,42.5,445.5,50.5,438.0,58.0,430.0,65.0" stroke="black" stroke-width="2" fill="none" />
<path d="M426.5,56.0,434.5,49.0,442.5,41.5,451.0,33.0,459.0,25.0,467.0,17.0,475.0,9.0,483.0,1.0" stroke="black" stroke-width="2" fill="none" />
<path d="M475.0,2.5,466.5,10.5,458.0,18.0,450.0,26.0,442.0,33.5,434.5,41.5,426.0,48.5,418.5,55.5" stroke="black" stroke-width="2" fill="none" />
<path d="M418.5,49.5,426.0,42.5,434.5,35.0,442.5,27.5,451.0,19.5,458.5,12.0,466.0,4.0" stroke="black" stroke-width="2" fill="none" />
<path d="M459.0,3.5,450.5,11.0,442.0,18.5,434.0,25.5,425.5,33.0,418.0,40.0,410.0,48.0" stroke="black" stroke-width="2" fill="none" />
<path d="M411.0,42.0,419.0,34.5,427.5,26.5,435.5,19.5,443.5,12.0,451.5,4.5" stroke="black" stroke-width="2" fill="none" />
<path d="M443.0,5.0,435.0,12.0,426.5,18.5,418.5,25.5,411.0,33.0,403.5,40.0" stroke="black" stroke-width="2" fill="none" />
<path d="M403.5,34.0,412.0,26.0,420.0,18.0,427.5,11.0,435.5,3.5" stroke="black" stroke-width="2" fill="none" />
<path d="M427.5,2.5,419.5,10.5,411.5,18.5,403.5,26.5,395.5,34.0" stroke="black" stroke-width="2" fill="none" />
<path d="M385.5,33.0,394.0,25.0,402.5,17.5,410.5,10.0,419.0,2.5" stroke="black" stroke-width="2" fill="none" />
<path d="M414.0,2.5,405.5,10.5,397.0,18.0,388.0,26.0" stroke="black" stroke-width="2" fill="none" />
<path d="M381.0,25.5,389.5,18.5,397.5,11.0,405.5,3.0" stroke="black" stroke-width="2" fill="none" />
<path d="M398.0,1.0,389.5,9.0,381.5,16.5" stroke="black" stroke-width="2" fill="none" />
<path d="M372.0,19.0,379.5,11.0,387.5,3.5" stroke="black" stroke-width="2" fill="none" />
<path d="M379.0,4.5,371.0,12.0,362.5,19.0" stroke="black" stroke-width="2" fill="none" />
<path d="M354.5,19.5,363.0,12.0,371.0,4.5" stroke="black" stroke-width="2" fill="none" />
<path d="M361.5,4.0,353.5,11.5" stroke="black" stroke-width="2" fill="none" />
<path d="M354.5,1.0,346.5,8.5,338.5,16.5" stroke="black" stroke-width="2" fill="none" />
<path d="M330.5,19.5,338.0,11.0,345.5,3.5" stroke="black" stroke-width="2" fill="none" />
<path d="M339.0,1.5,331.0,9.0" stroke="black" stroke-width="2" fill="none" />
<path d="M330.0,3.5,322.5,11.5" stroke="black" stroke-width="2" fill="none" />
<path d="M323.5,5.0,315.5,12.5" stroke="black" stroke-width="2" fill="none" />
<path d="M315.0,4.0,307.0,12.0,299.0,19.5" stroke="black" stroke-width="2" fill="none" />
<path d="M290.5,18.5,298.5,11.5,306.0,4.5" stroke="black" stroke-width="2" fill="none" />
<path d="M297.5,5.5,289.5,13.0,282.0,20.0,274.5,27.5" stroke="black" stroke-width="2" fill="none" />
<path d="M259.0,33.0,267.0,26.0,275.5,19.0,284.0,11.5,292.0,4.0" stroke="black" stroke-width="2" fill="none" />
<path d="M282.5,4.0,274.5,11.5,267.0,18.5,259.0,25.5,251.0,32.5" stroke="black" stroke-width="2" fill="none" />
<path d="M243.0,33.0,250.5,25.5,258.0,18.5,265.0,11.5,272.5,4.0" stroke="black" stroke-width="2" fill="none" />
<path d="M268.0,3.5,259.5,11.0,251.5,19.0,243.0,27.0,235.5,34.5" stroke="black" stroke-width="2" fill="none" />
<path d="M227.0,34.0,235.5,26.5,243.5,19.5,252.0,12.0,260.0,4.5" stroke="black" stroke-width="2" fill="none" />
<path d="M253.0,2.5,245.0,10.0,236.5,17.5,228.0,25.0,219.5,33.0,211.5,40.5" stroke="black" stroke-width="2" fill="none" />
<path d="M203.5,40.0,211.5,32.0,219.5,24.5,227.5,17.0,236.0,9.5,244.0,2.0" stroke="black" stroke-width="2" fill="none" />
<path d="M237.0,3.0,229.0,11.0,221.0,19.0,212.5,27.0,204.5,34.5,196.5,42.5" stroke="black" stroke-width="2" fill="none" />
<path d="M178.0,49.0,185.5,41.5,193.5,34.0,201.5,26.0,209.5,18.0,217.5,10.0,225.0,2.5" stroke="black" stroke-width="2" fill="none" />
<path d="M221.0,4.0,213.0,11.5,205.0,19.0,196.5,26.5,188.5,34.0,180.5,41.5,172.0,49.0" stroke="black" stroke-width="2" fill="none" />
<path d="M155.0,56.0,163.0,48.5,171.0,41.5,179.5,34.0,188.0,27.0,196.5,19.5,205.0,12.5,213.0,5.0" stroke="black" stroke-width="2" fill="none" />
<path d="M202.5,2.0,194.5,9.5,187.0,16.5,179.0,24.5,171.0,32.5,163.0,41.0,155.5,48.5,148.0,55.5,140.0,63.0" stroke="black" stroke-width="2" fill="none" />
<path d="M101.0,92.5,109.0,85.0,116.5,78.0,124.5,70.0,132.5,62.5,140.5,55.5,148.0,48.0,155.5,40.5,164.0,32.5,172.0,24.5,180.5,16.5,189.0,9.0,197.0,1.5" stroke="black" stroke-width="2" fill="none" />
<path d="M188.0,5.0,179.5,12.0,171.5,19.5,163.5,27.0,155.5,34.0,147.0,41.5,139.5,48.5,132.0,56.0,124.0,63.5,116.5,71.5,108.0,79.0,100.0,86.0,91.5,93.0,83.5,100.0,75.5,107.5,67.5,115.0,59.5,122.0,51.0,129.5,43.0,137.0,35.0,144.0,27.0,151.5,19.0,159.0,11.5,167.0,3.5,175.0" stroke="black" stroke-width="2" fill="none" />
<path d="M5.0,175.0,13.0,175.0,21.0,174.0,29.5,173.5,37.5,173.0,45.5,172.0,53.0,171.0,60.0,170.0,67.5,169.5,75.0,169.5,83.0,169.0" stroke="black" stroke-width="2" fill="none" />
<path d="M84.0,166.5,92.0,169.5,100.0,166.5" stroke="black" stroke-width="2" fill="none" />
<path d="M107.5,165.0,115.5,164.5,123.5,164.0,131.0,163.5,139.0,163.0,147.0,162.5" stroke="black" stroke-width="2" fill="none" />
<path d="M149.0,162.0,140.5,169.5,132.5,177.5" stroke="black" stroke-width="2" fill="none" />
<path d="M130.5,178.0,129.5,186.0,125.0,193.5,127.0,201.5,134.5,202.0,132.5,205.0,139.5,202.5" stroke="black" stroke-width="2" fill="none" />
<path d="M144.5,207.5,140.5,208.5,135.5,215.5,136.5,221.5" stroke="black" stroke-width="2" fill="none" />
<path d="M131.0,211.5,123.0,219.0" stroke="black" stroke-width="2" fill="none" />
<path d="M115.5,217.5,123.5,209.5" stroke="black" stroke-width="2" fill="none" />
<path d="M116.5,228.0,108.0,235.5" stroke="black" stroke-width="2" fill="none" />
<path d="M107.5,228.0,100.0,235.5" stroke="black" stroke-width="2" fill="none" />
<path d="M99.5,228.0,91.5,235.5" stroke="black" stroke-width="2" fill="none" />
<path d="M84.5,237.0,92.5,237.5,100.5,237.5,108.0,238.5,116.0,238.5,124.0,238.5,132.0,239.0,140.0,239.5,148.5,239.5,157.0,240.0,165.0,240.0,172.5,239.5,180.0,240.5,188.0,240.5,196.0,240.0,204.0,240.0,212.0,240.0,220.0,239.5,228.5,239.0" stroke="black" stroke-width="2" fill="none" />
<path d="M251.5,246.5,243.5,247.0,236.0,247.5,228.5,248.0,220.5,248.0,213.0,248.5,204.5,249.5,197.0,249.5,189.0,250.0,181.0,251.0,172.5,251.5,164.0,252.0,156.5,252.5,148.0,253.0,139.5,253.5,131.0,254.0,122.5,255.0,114.5,255.5,106.5,255.5,98.5,255.5,91.0,256.0,83.5,256.5,75.0,257.0,67.5,257.5,59.5,258.5,51.0,259.0,43.0,260.0,35.5,260.0,28.0,261.0,20.5,262.0,12.5,263.0,5.0,263.5" stroke="black" stroke-width="2" fill="none" />
<path d="M2.5,263.0,11.0,256.5,19.0,249.5,27.5,242.5,35.5,235.5,43.5,229.0" stroke="black" stroke-width="2" fill="none" />
<path d="M50.0,225.5,42.0,233.0,34.5,241.5,26.5,249.5,19.0,257.0,11.0,264.5,3.5,272.5" stroke="black" stroke-width="2" fill="none" />
<path d="M4.0,272.0,12.0,271.5,20.0,270.5,27.5,269.5,35.5,269.0,43.5,268.0,51.0,267.0,58.5,266.0,66.0,264.5,74.5,263.5,82.5,263.0,90.5,262.5,99.0,263.0,107.0,263.0,115.5,263.0,124.0,263.0,132.0,262.5,140.0,262.0,148.0,261.0,155.5,260.5,163.5,260.0,172.0,260.0,180.5,259.5,188.5,259.0,196.5,258.5,204.5,258.0,212.0,256.5,220.0,256.0,227.5,255.0,235.0,255.0,243.0,254.5,251.0,254.0" stroke="black" stroke-width="2" fill="none" />
<path d="M251.5,262.5,244.0,263.0,236.5,263.5,228.5,263.5,220.5,263.5,212.5,263.5,205.0,264.0,196.5,265.0,188.5,265.5,180.5,266.5,172.5,267.0,165.0,268.0,156.5,268.5,149.0,269.0,140.5,269.0,132.5,269.5,124.0,269.5,115.5,270.0,107.0,270.5,98.5,270.5,90.5,270.5,82.5,270.5,75.0,271.5,66.5,272.5,58.5,274.0,50.5,275.5,42.5,276.0,34.0,276.5,26.5,276.5,19.0,277.0,11.5,277.5,4.0,278.5" stroke="black" stroke-width="2" fill="none" />
<path d="M3.0,279.5,10.5,272.0,18.5,264.0,26.5,256.5,34.5,249.0,43.0,241.0,50.5,233.0" stroke="black" stroke-width="2" fill="none" />
<path d="M52.0,241.0,44.0,249.0,36.0,257.0,27.5,265.0,19.0,272.5,11.0,280.5,3.0,288.0" stroke="black" stroke-width="2" fill="none" />
<path d="M4.5,289.5,12.0,289.5,20.0,289.0,27.5,288.5" stroke="black" stroke-width="2" fill="none" />
<path d="M41.5,300.0,34.0,300.5,26.5,301.0,18.5,302.0,10.5,302.5,2.5,303.5" stroke="black" stroke-width="2" fill="none" />
<path d="M3.0,302.0,10.5,294.5,18.5,286.5,26.5,279.0,35.0,271.5,43.5,264.5,52.0,257.0,60.5,249.5" stroke="black" stroke-width="2" fill="none" />
<path d="M59.5,243.0,51.5,250.0,43.5,257.0,35.0,264.0,26.5,271.0,18.5,278.5,11.0,286.5,3.5,294.5" stroke="black" stroke-width="2" fill="none" />
<path d="M3.5,294.0,11.5,293.5,19.5,293.0,28.0,292.0,36.5,291.5,45.0,291.0,52.5,291.0,60.5,291.0,68.0,290.5,75.0,290.0,83.0,289.5,91.5,289.0,100.0,288.0,108.0,287.0,116.5,286.0,124.5,285.5,133.0,284.5,140.5,284.5,148.5,284.0,157.0,283.0,165.5,282.5,173.0,282.5,181.0,282.0,189.0,281.5,197.5,281.0,205.0,280.5,213.0,280.5,221.0,281.0,229.0,281.0,237.0,280.5,245.0,280.0,253.0,279.5" stroke="black" stroke-width="2" fill="none" />
<path d="M251.5,307.0,243.5,315.0" stroke="black" stroke-width="2" fill="none" />
<path d="M252.5,315.0,244.5,322.5,236.5,330.5,228.0,338.0" stroke="black" stroke-width="2" fill="none" />
<path d="M235.5,340.0,243.0,332.5,251.0,325.0" stroke="black" stroke-width="2" fill="none" />
<path d="M260.5,323.0,252.5,330.5,244.0,337.5" stroke="black" stroke-width="2" fill="none" />
<path d="M257.5,336.5,265.5,329.0,273.5,322.0" stroke="black" stroke-width="2" fill="none" />
<path d="M273.5,321.0,281.0,321.0,289.0,320.5,297.0,320.0,304.5,320.0,312.5,319.5,320.5,319.5,328.5,319.5,336.5,320.5,344.5,316.5" stroke="black" stroke-width="2" fill="none" />
<path d="M346.0,322.5,337.5,330.0,329.0,337.5" stroke="black" stroke-width="2" fill="none" />
<path d="M337.5,338.5,345.5,331.5,353.5,324.0" stroke="black" stroke-width="2" fill="none" />
<path d="M362.5,325.5,354.5,333.0,346.5,339.5" stroke="black" stroke-width="2" fill="none" />
<path d="M363.0,339.0,371.0,331.5,379.0,324.0" stroke="black" stroke-width="2" fill="none" />
<path d="M387.5,323.5,380.0,330.5,372.0,338.0" stroke="black" stroke-width="2" fill="none" />
<path d="M380.0,337.5,388.5,330.0,396.5,322.5" stroke="black" stroke-width="2" fill="none" />
<path d="M405.0,322.0,396.5,329.5,388.5,337.5" stroke="black" stroke-width="2" fill="none" />
<path d="M369.5,325.0,361.5,332.5,354.0,339.5" stroke="black" stroke-width="2" fill="none" />
<path d="M338.5,322.0,330.0,329.5,322.5,337.5" stroke="black" stroke-width="2" fill="none" />
<path d="M315.5,338.5,323.5,331.0,331.5,323.0" stroke="black" stroke-width="2" fill="none" />
<path d="M323.5,326.0,315.5,333.5,307.0,340.5" stroke="black" stroke-width="2" fill="none" />
<path d="M299.5,340.0,307.0,332.0,314.5,324.5" stroke="black" stroke-width="2" fill="none" />
<path d="M307.0,324.5,299.0,332.0,290.5,339.0" stroke="black" stroke-width="2" fill="none" />
<path d="M282.5,339.0,290.5,331.5,298.5,324.0" stroke="black" stroke-width="2" fill="none" />
<path d="M290.5,324.5,282.0,332.0,274.5,338.5" stroke="black" stroke-width="2" fill="none" />
<path d="M267.5,338.5,275.5,331.0,284.0,324.0" stroke="black" stroke-width="2" fill="none" />
<path d="M265.5,324.0,257.5,331.5,249.5,339.0" stroke="black" stroke-width="2" fill="none" />
<path d="M235.5,322.5,228.0,330.0,220.0,338.0" stroke="black" stroke-width="2" fill="none" />
<path d="M212.0,337.0,219.5,329.5,227.5,322.0" stroke="black" stroke-width="2" fill="none" />
<path d="M220.0,315.5,212.0,323.5,204.5,331.5,196.0,339.0" stroke="black" stroke-width="2" fill="none" />
<path d="M203.0,338.5,210.0,330.5,217.5,323.0" stroke="black" stroke-width="2" fill="none" />
<path d="M212.5,315.5,204.5,323.5,196.0,331.5,187.5,339.0" stroke="black" stroke-width="2" fill="none" />
<path d="M178.5,338.0,186.5,330.5,194.0,323.0,201.5,315.5,209.5,308.5" stroke="black" stroke-width="2" fill="none" />
<path d="M205.0,309.0,196.5,317.0,188.5,324.5,180.5,332.0,172.5,339.5" stroke="black" stroke-width="2" fill="none" />
<path d="M161.5,336.0,169.0,328.5,176.5,321.5,185.0,314.0,193.0,306.5" stroke="black" stroke-width="2" fill="none" />
<path d="M194.0,298.0,186.0,305.5,178.0,313.0,170.0,320.5,162.0,327.5,154.5,335.0" stroke="black" stroke-width="2" fill="none" />
<path d="M148.5,335.5,156.5,328.0,164.5,320.5,172.0,313.0,179.5,306.0,187.5,298.5" stroke="black" stroke-width="2" fill="none" />
<path d="M178.5,301.5,171.0,308.5,163.0,315.5,155.0,323.0,147.0,330.5,139.5,337.5" stroke="black" stroke-width="2" fill="none" />
<path d="M133.0,337.5,141.0,330.0,149.0,323.0,157.0,315.5,165.0,308.0,173.0,300.5" stroke="black" stroke-width="2" fill="none" />
<path d="M163.5,298.0,155.5,305.5,148.0,313.0,140.0,320.5,131.0,328.5,123.0,336.0" stroke="black" stroke-width="2" fill="none" />
<path d="M116.5,338.0,124.0,330.5,131.5,323.0,139.0,315.5,147.0,307.0,155.0,299.0" stroke="black" stroke-width="2" fill="none" />
<path d="M146.5,300.0,138.5,307.5,130.5,314.5,123.0,322.0,115.5,329.0,107.5,336.5" stroke="black" stroke-width="2" fill="none" />
<path d="M100.0,337.0,108.0,329.5,115.0,321.5,122.5,313.5,130.5,305.5,138.5,297.5,146.5,289.5" stroke="black" stroke-width="2" fill="none" />
<path d="M139.0,292.0,131.5,299.0,124.0,306.0,116.5,313.0,108.5,321.0,101.0,329.5,93.0,336.5" stroke="black" stroke-width="2" fill="none" />
<path d="M83.0,334.5,91.0,327.5,99.0,320.0,107.0,313.0,115.5,305.5,123.5,298.5,132.0,291.5" stroke="black" stroke-width="2" fill="none" />
<path d="M124.0,293.0,116.0,300.0,108.0,307.0,100.0,314.0,92.0,321.5,84.5,329.0,76.5,336.0" stroke="black" stroke-width="2" fill="none" />
<path d="M66.5,334.5,74.5,326.5,82.5,319.0,90.5,312.0,99.0,305.0,107.5,298.0,115.5,291.0,123.5,284.0" stroke="black" stroke-width="2" fill="none" />
<path d="M118.5,283.0,109.5,290.5,101.0,298.0,92.5,305.0,84.5,313.0,76.0,320.5,68.5,328.5,60.0,336.0" stroke="black" stroke-width="2" fill="none" />
<path d="M52.0,336.5,60.5,329.0,68.0,321.0,75.5,314.0,83.0,306.0,91.0,298.0,98.5,290.0" stroke="black" stroke-width="2" fill="none" />
<path d="M99.5,281.5,91.0,289.5,83.0,297.0,75.0,304.5,67.0,312.0,59.5,320.5,51.5,328.0,43.5,336.0" stroke="black" stroke-width="2" fill="none" />
<path d="M35.5,336.0,43.5,328.5,51.5,321.0,59.5,314.0,68.0,306.5,76.0,298.5,84.0,290.5,91.5,283.0" stroke="black" stroke-width="2" fill="none" />
<path d="M84.5,285.0,76.0,292.0,67.5,299.0,59.5,306.5,51.5,314.5,43.5,322.0,35.5,329.0,27.0,335.5" stroke="black" stroke-width="2" fill="none" />
<path d="M20.5,334.0,28.5,327.0,35.5,319.5,43.5,312.5,51.0,305.5,58.5,298.0,66.0,291.0,73.0,283.5,81.0,276.0" stroke="black" stroke-width="2" fill="none" />
<path d="M76.0,276.0,67.5,283.5,59.5,291.0,51.5,298.5,44.0,306.0,36.0,313.5,27.5,320.5,19.5,327.5,11.5,335.0" stroke="black" stroke-width="2" fill="none" />
<path d="M4.0,335.0,12.0,327.5,19.5,319.5,27.5,312.0,35.5,305.0,43.5,298.0,51.5,291.0,59.5,284.5,67.5,277.5" stroke="black" stroke-width="2" fill="none" />
<path d="M66.0,270.0,57.5,277.0,49.5,284.0,42.0,291.0,34.0,298.0,26.0,305.5,19.0,312.0,11.5,319.0,4.0,326.0" stroke="black" stroke-width="2" fill="none" />
<path d="M2.0,326.5,10.0,326.0,19.0,325.5,27.5,324.5,35.5,323.5,44.5,322.5,52.0,322.0,60.0,321.0,68.5,321.0,76.5,320.5,84.5,320.0,92.0,319.5,100.5,319.0,109.0,318.5,117.5,318.0,125.0,317.5,133.5,316.5,142.0,315.5,150.0,315.0,157.5,314.5,165.5,314.0,173.5,313.0,181.5,313.0,189.0,312.5,196.5,312.5,204.0,312.5,212.0,312.0,220.0,311.5,228.5,311.0,236.5,311.0,244.0,310.5,252.5,310.0,260.5,309.5,268.5,309.0,276.0,308.5,283.5,308.0,291.5,308.0,300.0,308.0,308.0,308.0,316.0,308.0,323.5,307.5,331.5,306.5,339.5,305.0,347.5,304.0,355.5,303.0,363.5,302.0,371.5,301.5,380.0,301.5,388.0,301.0,395.5,301.0,403.5,300.0,411.5,300.0,419.5,299.0,427.5,298.0,436.5,297.0,444.5,296.0,451.5,295.5,458.5,295.5,466.0,295.0,474.0,294.5,482.0,294.0,490.0,293.5,498.0,293.0,506.0,292.5,514.0,291.5" stroke="black" stroke-width="2" fill="none" />
<path d="M459.0,267.5,451.0,275.0,443.0,283.0" stroke="black" stroke-width="2" fill="none" />
<path d="M442.0,278.5,450.0,278.0,458.0,278.0,466.0,277.5,474.0,276.5,482.0,276.0,490.0,275.5,498.0,275.0,505.5,274.5,513.5,274.0" stroke="black" stroke-width="2" fill="none" />
<path d="M475.5,235.5,483.5,228.0" stroke="black" stroke-width="2" fill="none" />
<path d="M468.0,230.0,476.0,229.0,484.5,228.0,492.5,227.0,500.5,226.0,508.5,225.5,516.5,225.0" stroke="black" stroke-width="2" fill="none" />
<path d="M515.5,218.0,508.0,219.0,499.5,219.5,491.5,220.0,484.0,220.5,476.0,221.0,468.5,221.5" stroke="black" stroke-width="2" fill="none" />
<path d="M470.0,216.0,477.5,215.0,485.0,214.0,492.5,213.0,500.0,212.5,507.5,211.5,515.5,210.5" stroke="black" stroke-width="2" fill="none" />
<path d="M514.5,172.5,506.5,173.0,499.5,174.0,492.0,174.5,483.5,175.0,476.0,175.0" stroke="black" stroke-width="2" fill="none" />
<path d="M476.0,167.0,484.0,166.5,492.0,166.5,500.0,165.5,508.0,165.0,516.5,164.0" stroke="black" stroke-width="2" fill="none" />
<path d="M514.0,202.5,506.5,203.5,498.5,204.0,490.5,204.5,483.0,205.0,475.5,205.5,468.0,206.0" stroke="black" stroke-width="2" fill="none" />
<path d="M460.5,213.0,468.5,207.0,476.5,199.0" stroke="black" stroke-width="2" fill="none" />
<path d="M466.5,179.5,474.5,179.0,482.0,179.0,490.0,178.5,498.0,178.0,506.0,178.0,514.0,178.0" stroke="black" stroke-width="2" fill="none" />
<path d="M515.5,153.5,507.5,153.5,499.5,154.0,491.0,155.5,483.0,156.5,475.0,157.0,467.0,157.5" stroke="black" stroke-width="2" fill="none" />
<path d="M469.5,150.5,477.5,150.0,485.0,149.0,492.5,148.5,500.5,148.5,508.0,147.5,516.0,146.5" stroke="black" stroke-width="2" fill="none" />
<path d="M517.0,122.5,508.5,123.0,500.5,123.5,492.5,124.0,484.0,124.5,475.5,125.5,467.5,126.0" stroke="black" stroke-width="2" fill="none" />
<path d="M466.0,130.5,468.0,131.5,471.5,139.0,470.5,140.5,465.5,148.5,466.5,156.0,472.5,164.5,476.5,173.0" stroke="black" stroke-width="2" fill="none" />
<path d="M471.0,169.5,463.0,157.0,455.0,144.5,447.5,135.5" stroke="black" stroke-width="2" fill="none" />
<path d="M444.0,123.0,452.0,123.0" stroke="black" stroke-width="2" fill="none" />
<path d="M462.5,117.5,470.5,117.0,478.0,117.0,486.0,117.0,494.0,116.5,501.5,115.5,509.5,115.0,516.5,114.5" stroke="black" stroke-width="2" fill="none" />
<path d="M516.5,108.0,508.5,108.0,499.5,108.5,491.0,109.0,483.0,109.5,475.0,109.5,467.5,110.0" stroke="black" stroke-width="2" fill="none" />
<path d="M464.5,105.5,456.5,103.5,448.5,96.5" stroke="black" stroke-width="2" fill="none" />
<path d="M449.0,96.5,458.0,104.5,461.5,107.0" stroke="black" stroke-width="2" fill="none" />
<path d="M452.0,93.0,460.0,93.0,468.0,92.5,476.0,92.5,484.0,92.5,491.5,92.5,499.0,92.0,506.5,91.5,514.0,91.5" stroke="black" stroke-width="2" fill="none" />
<path d="M514.5,23.0,507.0,24.0,499.5,24.5,491.5,24.5,483.5,25.0,475.0,26.0" stroke="black" stroke-width="2" fill="none" />
<path d="M467.5,16.0,475.5,16.0,484.0,16.0,492.5,15.0,501.0,14.0,509.0,13.5,517.0,13.5" stroke="black" stroke-width="2" fill="none" />
<path d="M517.5,5.5,509.5,7.0,501.5,7.5,493.5,8.0,485.5,8.0,477.0,8.5,469.0,9.0,460.5,9.0" stroke="black" stroke-width="2" fill="none" />
<path d="M428.5,77.0,436.0,77.0,444.0,76.5,451.5,76.5,459.5,76.5,467.5,76.0,475.0,76.0,483.5,76.0,492.0,75.5,500.0,74.5,508.0,74.0,516.0,73.5" stroke="black" stroke-width="2" fill="none" />
<path d="M516.0,64.0,508.0,65.0,501.0,65.5,493.0,66.0,485.0,66.5,477.0,67.0,469.0,67.0,461.0,66.5,453.0,66.5,445.5,67.0,437.0,67.5,429.0,68.0,421.0,68.5,413.5,68.5" stroke="black" stroke-width="2" fill="none" />
<path d="M404.0,60.5,412.0,60.0,420.0,59.5,427.5,59.0,435.0,58.0,443.0,57.5,451.0,57.0,459.5,57.0,467.5,57.0,476.0,57.0,484.0,57.0,492.0,56.0,500.5,55.0,508.5,54.0,516.5,53.0" stroke="black" stroke-width="2" fill="none" />
<path d="M515.5,45.0,508.0,46.0,499.5,46.5,491.5,47.0,484.0,47.5,476.0,48.0,468.5,48.5,460.5,49.0,452.5,49.0,444.5,49.5,436.0,50.0,427.5,50.5,420.0,51.0,412.0,51.5,404.0,51.5,396.0,51.5,388.0,52.0" stroke="black" stroke-width="2" fill="none" />
<path d="M380.5,45.0,389.5,44.5,397.5,44.0,405.5,43.5,413.0,43.0,421.0,43.0,429.5,43.0,437.5,43.0,445.5,43.0,453.5,43.5,462.0,43.0,469.5,42.0,477.0,41.0,484.5,40.0,492.0,39.5,499.5,38.5,507.5,37.5,515.0,36.0" stroke="black" stroke-width="2" fill="none" />
<path d="M515.5,29.0,506.5,29.0,498.5,29.0,490.0,29.0,482.0,29.0,474.0,29.0,466.0,29.5,458.0,30.0,450.5,30.0,442.5,30.5,434.5,31.0,426.5,32.0,419.0,33.0,411.0,33.5,403.5,34.5,396.0,35.5,388.0,36.5,380.0,37.5,371.5,38.0,363.5,38.5" stroke="black" stroke-width="2" fill="none" />
<path d="M353.5,38.0,364.5,46.0,376.0,54.0,386.0,62.5,397.0,70.5,407.0,78.5,414.5,86.0,420.5,93.5,431.0,101.5,435.5,103.0,445.5,111.0,439.5,119.0,450.0,114.5,456.0,114.5,462.5,114.0" stroke="black" stroke-width="2" fill="none" />
<path d="M455.5,134.5,447.5,126.5,439.5,119.5" stroke="black" stroke-width="2" fill="none" />
<path d="M444.5,107.5,436.5,101.5" stroke="black" stroke-width="2" fill="none" />
<path d="M435.5,99.0,446.5,107.0" stroke="black" stroke-width="2" fill="none" />
<path d="M447.5,106.5,439.5,102.0,432.0,98.0,424.0,94.5,416.0,88.5,408.0,81.5,400.0,77.5,391.5,74.5" stroke="black" stroke-width="2" fill="none" />
<path d="M391.0,74.0,399.0,81.5,407.0,89.5,414.0,97.5,423.5,105.0,421.5,113.0,433.5,115.5,441.5,124.0,450.5,132.0,452.0,143.0,455.5,149.0,462.0,157.0,465.5,165.0,471.5,173.0,468.5,181.0,469.5,189.0,474.0,197.0,472.0,204.5,466.0,208.5,461.0,216.5,464.0,224.5,467.0,232.5,456.0,240.5,455.0,248.0,457.5,255.5,452.5,263.5,441.5,268.0,439.0,276.0,440.0,284.5" stroke="black" stroke-width="2" fill="none" />
<path d="M436.5,285.0,444.5,284.0,452.5,283.5,461.0,283.0,469.0,283.0,477.0,282.5,484.5,282.5,491.5,282.5,499.0,282.5,507.0,282.0,515.5,281.0" stroke="black" stroke-width="2" fill="none" />
<path d="M451.5,284.5,444.0,292.0,436.0,299.5,427.5,306.5,419.5,314.0" stroke="black" stroke-width="2" fill="none" />
<path d="M418.5,309.0,426.5,309.0,435.0,308.5,443.5,308.0,451.0,308.0,459.0,307.5,467.0,307.0,475.0,306.5,482.5,305.5,490.0,305.0,498.0,304.5,506.5,304.0,515.0,304.0" stroke="black" stroke-width="2" fill="none" />
<path d="M450.5,270.0,442.5,277.5" stroke="black" stroke-width="2" fill="none" />
<path d="M443.0,270.0,451.0,269.0,459.0,268.5,466.5,268.0,474.0,268.0,482.0,268.0,490.5,267.5,498.5,267.0,507.0,266.0,515.5,265.0" stroke="black" stroke-width="2" fill="none" />
<path d="M516.5,234.0,509.0,234.0,501.0,234.0,493.0,235.0,485.0,236.0,476.5,237.0,468.5,237.5,460.5,238.5" stroke="black" stroke-width="2" fill="none" />
<path d="M462.0,233.0,459.0,225.0,456.5,217.0,454.5,213.0" stroke="black" stroke-width="2" fill="none" />
<path d="M448.0,215.5,448.5,219.5" stroke="black" stroke-width="2" fill="none" />
<path d="M432.5,227.0,433.5,234.5,435.0,242.5,438.0,251.0,436.5,260.5,437.5,271.5,445.0,267.5,452.0,264.5" stroke="black" stroke-width="2" fill="none" />
<path d="M452.0,261.0,460.5,260.5,469.0,260.5,477.0,260.5,485.0,261.0,493.0,260.5,501.0,259.5,508.5,259.0,516.5,258.5" stroke="black" stroke-width="2" fill="none" />
<path d="M516.0,294.0,507.5,294.0,499.0,294.5,491.0,295.5,482.5,296.0,474.0,297.5,465.5,298.5,457.5,299.5,449.5,299.5,441.5,300.0,433.5,300.0,426.0,301.0,418.0,301.5" stroke="black" stroke-width="2" fill="none" />
<path d="M416.5,297.5,425.0,294.5,433.0,292.5" stroke="black" stroke-width="2" fill="none" />
<path d="M426.0,300.0,418.0,307.5" stroke="black" stroke-width="2" fill="none" />
<path d="M418.0,296.5,417.0,304.5,416.5,312.0,415.5,320.0" stroke="black" stroke-width="2" fill="none" />
<path d="M420.5,294.0,428.0,293.5,436.0,293.0,443.5,292.0,451.5,291.0,460.0,290.5,467.5,290.0,475.5,290.0,483.5,289.5,491.0,289.0,499.0,289.0,507.5,288.0,515.5,287.5" stroke="black" stroke-width="2" fill="none" />
<path d="M515.0,300.5,507.0,300.5,499.0,300.5,490.5,301.5,482.5,302.0,474.5,302.5,467.5,303.0,459.5,303.0,451.0,303.5,443.0,304.5,435.0,305.0,427.0,306.0,419.5,306.5,411.5,307.5,404.0,308.5,395.5,308.5,387.5,309.0,379.5,309.5,371.5,310.5,364.0,311.5,356.0,312.0,347.5,312.5,339.5,313.0,331.5,313.5,324.0,314.0,315.5,314.5,308.0,315.5,300.0,316.0,292.0,316.5,284.0,317.0,276.0,317.5,267.0,318.0,259.0,318.0,251.5,318.0,243.5,318.5,235.5,319.0,227.0,320.0,218.5,321.0,210.5,321.5,202.0,322.0,194.0,322.0,186.5,322.0,179.0,322.5,171.0,323.0,163.0,324.0,155.5,324.5,147.5,324.5,139.5,325.0,131.0,325.5,123.5,325.5,116.0,326.5,108.5,327.0,101.0,328.0,93.0,329.0,85.5,329.5,77.5,330.0,69.0,330.0,61.0,330.0,52.5,330.0,44.5,330.0,36.0,331.0,27.5,332.0,19.0,333.0,11.5,333.5,3.5,334.5" stroke="black" stroke-width="2" fill="none" />
<path d="M4.0,336.0,12.0,336.0,20.0,335.5,28.0,335.5,37.0,335.5,45.5,335.5,53.5,335.5,61.0,335.0,69.0,335.0,77.0,334.5" stroke="black" stroke-width="2" fill="none" />
<path d="M60.0,268.0,52.5,276.0,44.0,283.5,36.0,291.0,28.0,299.0,20.0,306.0,12.0,313.0,4.0,320.5" stroke="black" stroke-width="2" fill="none" />
<path d="M2.5,323.0,10.5,322.5,18.5,321.5,27.0,320.5,35.5,320.0,43.5,319.0,52.5,318.0,61.0,317.5" stroke="black" stroke-width="2" fill="none" />
<path d="M3.5,311.5,12.5,304.5,21.0,297.5,29.0,289.5,36.5,281.5,44.5,273.5,52.5,266.0,61.0,258.5" stroke="black" stroke-width="2" fill="none" />
<path d="M83.0,234.5,90.5,227.5" stroke="black" stroke-width="2" fill="none" />
<path d="M81.5,227.5,74.0,235.5" stroke="black" stroke-width="2" fill="none" />
<path d="M75.0,220.5,83.0,213.0" stroke="black" stroke-width="2" fill="none" />
<path d="M81.0,210.5,88.5,209.0,98.0,197.5,104.0,201.5,112.0,201.5,120.5,208.0,128.5,207.0" stroke="black" stroke-width="2" fill="none" />
<path d="M116.0,213.0,123.0,206.5,136.0,202.5,132.0,193.5,135.0,185.5,141.5,176.5,146.0,172.0,144.5,164.5,141.5,156.5,140.0,154.5,135.5,147.5" stroke="black" stroke-width="2" fill="none" />
<path d="M137.5,140.5,129.5,148.5,122.5,156.5,115.0,164.5" stroke="black" stroke-width="2" fill="none" />
<path d="M116.5,163.0,125.0,162.0,132.5,161.0" stroke="black" stroke-width="2" fill="none" />
<path d="M128.5,167.0,141.5,170.0,141.5,167.0,149.5,165.0,157.5,164.5" stroke="black" stroke-width="2" fill="none" />
<path d="M162.5,171.5,170.5,171.5,178.5,171.5,187.0,171.5,195.5,171.0,204.0,170.5,212.5,170.5,220.5,170.0,229.0,170.0,236.5,169.5,245.0,169.0,252.5,168.0" stroke="black" stroke-width="2" fill="none" />
<path d="M253.5,175.5,244.5,176.0,237.0,176.5,229.0,177.5,220.5,178.5,212.5,179.5,204.5,180.0,197.0,180.5,189.0,180.5,181.0,181.0,173.5,181.0,165.5,181.0" stroke="black" stroke-width="2" fill="none" />
<path d="M163.5,185.5,171.0,178.5,179.0,171.5" stroke="black" stroke-width="2" fill="none" />
<path d="M171.0,172.5,163.5,180.0" stroke="black" stroke-width="2" fill="none" />
<path d="M163.0,173.5,162.0,181.5,163.5,189.5,168.5,197.5,173.0,206.0,179.5,214.0,175.5,216.0,179.5,219.5,174.5,222.0,177.0,225.5,180.0,229.0,187.0,229.5,191.5,222.5,199.5,219.0,209.0,220.0,215.5,212.0,225.0,218.5" stroke="black" stroke-width="2" fill="none" />
<path d="M229.0,203.5,221.0,204.5,213.5,205.0" stroke="black" stroke-width="2" fill="none" />
<path d="M215.0,201.0,222.5,202.5" stroke="black" stroke-width="2" fill="none" />
<path d="M222.0,196.0,231.0,204.5,236.0,212.0,236.0,220.0,236.5,228.0,231.0,229.5" stroke="black" stroke-width="2" fill="none" />
<path d="M251.5,236.0,243.5,236.0,235.5,237.0,227.0,238.5,219.0,239.5,211.0,241.0,203.5,242.0,195.5,242.5,188.0,243.0,180.0,243.5,172.0,244.0,164.0,244.5,156.0,245.0,147.5,245.5,140.0,246.5,132.5,247.0,124.5,248.0,116.5,248.0,108.5,248.5,100.0,248.5,92.0,248.5,84.5,248.5,76.0,249.5,68.0,249.5,59.5,250.0,51.0,251.0,43.0,251.5,35.0,252.0,27.0,252.5,19.0,253.0,11.5,254.0,4.0,254.5" stroke="black" stroke-width="2" fill="none" />
<path d="M3.0,257.5,11.0,250.0,19.0,242.5,27.5,235.0,35.5,227.5,44.0,220.0" stroke="black" stroke-width="2" fill="none" />
<path d="M75.5,212.0,84.0,204.5" stroke="black" stroke-width="2" fill="none" />
<path d="M81.5,204.5,83.0,205.5,81.5,213.5,80.5,221.5,82.5,231.0,86.5,228.0,87.5,229.5,95.5,229.0,106.5,228.5,114.5,228.0,122.5,226.0,126.5,226.0,140.5,223.5,149.0,218.5,163.0,212.5,164.5,215.5" stroke="black" stroke-width="2" fill="none" />
<path d="M171.5,224.5,164.5,227.5,156.5,230.0,148.5,229.5,140.5,229.5,132.0,229.5,124.0,229.5,115.5,226.5,107.5,226.5,104.5,228.5,104.0,227.0,100.5,221.0,102.0,213.0,95.0,203.0,99.5,195.0,92.5,194.5" stroke="black" stroke-width="2" fill="none" />
<path d="M81.0,192.5,73.5,193.0,66.0,193.0,58.5,193.5,51.5,194.0,43.5,194.0,36.0,195.0,28.0,195.0,20.0,195.5,12.0,196.0,3.5,196.0" stroke="black" stroke-width="2" fill="none" />
<path d="M3.0,190.0,10.5,182.0,18.5,174.5,26.5,168.0,34.5,160.5,42.5,153.5,50.5,146.0,59.0,138.0,67.5,130.0,76.0,122.0,84.0,114.0,92.0,106.5" stroke="black" stroke-width="2" fill="none" />
<path d="M92.0,112.5,84.5,112.5,76.0,113.5,68.0,114.0,59.5,114.5,51.0,115.0,43.0,115.0,34.5,115.5,26.5,116.5,19.0,117.5,11.5,118.0,4.0,118.0" stroke="black" stroke-width="2" fill="none" />
<path d="M4.0,116.5,12.0,115.5,20.0,114.5,27.5,114.0,35.0,113.0" stroke="black" stroke-width="2" fill="none" />
<path d="M4.5,114.5,12.0,107.5,19.5,100.0,27.0,93.0,35.0,85.0,43.0,77.0,50.5,69.5,58.5,62.5,67.0,55.0,75.5,47.5,83.5,40.0,92.0,32.5,100.0,25.0,108.0,17.5,116.0,9.5,124.5,2.0" stroke="black" stroke-width="2" fill="none" />
<path d="M131.0,3.5,123.5,11.5,115.5,18.5,107.5,25.5,99.5,32.0,92.0,39.5,84.0,47.0,76.5,54.5,69.0,62.0,61.0,69.5,53.0,77.5,45.0,84.5,37.0,91.5,28.5,98.5,21.0,105.5,12.5,113.0,4.5,121.0" stroke="black" stroke-width="2" fill="none" />
<path d="M1.5,121.0,10.0,120.5,18.5,120.0,26.5,119.5" stroke="black" stroke-width="2" fill="none" />
<path d="M19.0,136.0,10.5,136.5,2.5,136.5" stroke="black" stroke-width="2" fill="none" />
<path d="M1.0,134.5,9.0,134.0,17.0,132.5,25.0,131.5,33.5,129.5,42.0,129.0,49.5,128.0,58.0,127.5,66.0,127.0,74.5,126.5,82.5,126.5" stroke="black" stroke-width="2" fill="none" />
<path d="M85.0,122.5,77.0,130.0" stroke="black" stroke-width="2" fill="none" />
<path d="M85.0,130.5,76.5,138.0" stroke="black" stroke-width="2" fill="none" />
<path d="M82.5,139.0,74.5,146.5" stroke="black" stroke-width="2" fill="none" />
<path d="M81.5,148.5,73.5,156.0" stroke="black" stroke-width="2" fill="none" />
<path d="M84.0,159.0,75.5,159.5,68.0,160.5,60.0,161.5,52.5,162.0,44.5,163.5,37.0,164.0,29.5,165.0,21.5,166.0,13.5,166.5,5.5,167.5" stroke="black" stroke-width="2" fill="none" />
<path d="M3.0,170.5,11.5,163.5,19.5,156.0,27.5,148.5,35.5,141.0,44.0,132.5,52.5,124.0,61.5,116.0,69.0,108.5,76.5,100.5,84.0,93.0,92.0,85.0,99.5,77.5,108.0,70.0,116.0,63.0,124.0,55.5,132.0,48.0,140.0,41.0,148.0,33.5,156.0,26.0,164.5,18.5,173.0,11.0,180.5,3.5" stroke="black" stroke-width="2" fill="none" />
<path d="M171.0,3.5,162.5,10.5,154.5,17.5,146.5,25.0,139.5,33.0,132.0,40.5,123.5,47.0,115.0,54.5,107.0,61.5,99.5,69.0,91.5,77.0,83.5,84.5,76.0,92.0,67.5,100.5,58.5,108.5,50.5,116.0,42.5,124.0,35.0,131.5,27.0,139.0,19.0,146.5,11.0,154.0,3.0,162.0" stroke="black" stroke-width="2" fill="none" />
<path d="M4.5,163.0,12.5,162.5" stroke="black" stroke-width="2" fill="none" />
<path d="M4.0,157.5,12.5,157.5,20.5,157.5,28.0,157.5,36.0,156.5,44.0,156.0,51.5,156.0,59.0,155.5,67.0,155.0,75.0,154.5,82.5,154.0" stroke="black" stroke-width="2" fill="none" />
<path d="M89.0,154.0,97.0,141.5,100.5,135.5,95.5,144.0,91.0,152.0,86.5,157.0,90.0,165.5,97.5,164.5" stroke="black" stroke-width="2" fill="none" />
<path d="M105.0,172.5,109.0,167.0,101.5,166.0,97.5,155.5,103.5,149.5,108.0,142.0,111.0,148.5,114.0,144.5,106.0,149.5" stroke="black" stroke-width="2" fill="none" />
<path d="M108.0,157.0,116.5,157.0,124.5,156.0,132.5,155.5,140.5,154.5,148.5,154.0,156.0,154.5" stroke="black" stroke-width="2" fill="none" />
<path d="M148.0,146.0,140.0,153.5,131.5,161.0,123.5,168.5" stroke="black" stroke-width="2" fill="none" />
<path d="M117.5,170.5,125.5,170.0,133.5,169.5" stroke="black" stroke-width="2" fill="none" />
<path d="M140.0,164.0,132.0,171.0,124.0,178.5" stroke="black" stroke-width="2" fill="none" />
<path d="M125.5,175.5,120.5,183.5,124.0,187.0" stroke="black" stroke-width="2" fill="none" />
<path d="M115.0,182.0,123.5,181.5,131.5,180.5,139.5,180.0" stroke="black" stroke-width="2" fill="none" />
<path d="M148.5,173.0,140.5,173.5,132.0,173.5,124.0,173.5,116.5,173.5" stroke="black" stroke-width="2" fill="none" />
<path d="M115.0,174.0,112.0,182.0,112.5,190.0,119.5,189.0,123.5,177.0,126.5,183.0,138.0,182.5,143.5,180.5" stroke="black" stroke-width="2" fill="none" />
<path d="M149.5,168.0,157.0,167.5" stroke="black" stroke-width="2" fill="none" />
<path d="M173.0,180.0,180.5,179.5,187.5,178.5" stroke="black" stroke-width="2" fill="none" />
<path d="M187.0,170.0,179.0,178.0,171.0,186.0" stroke="black" stroke-width="2" fill="none" />
<path d="M171.0,186.5,179.5,186.0,188.0,185.0" stroke="black" stroke-width="2" fill="none" />
<path d="M195.5,187.0,197.5,183.5,194.5,174.5,194.0,187.0,191.0,188.5,188.5,197.5,189.5,213.5,190.5,221.5" stroke="black" stroke-width="2" fill="none" />
<path d="M187.5,204.5,196.0,204.0,204.0,203.5" stroke="black" stroke-width="2" fill="none" />
<path d="M203.0,200.5,211.0,193.0,218.5,186.0,226.5,179.0" stroke="black" stroke-width="2" fill="none" />
<path d="M221.0,172.5,213.0,180.5,205.0,188.0,197.0,196.0,188.5,204.0" stroke="black" stroke-width="2" fill="none" />
<path d="M189.0,202.0,197.0,205.0,202.5,198.0,209.5,187.5,216.5,192.5,219.5,194.5,227.5,196.5" stroke="black" stroke-width="2" fill="none" />
<path d="M229.5,201.0,223.0,203.5,217.0,208.5,212.0,202.5,204.0,206.5,198.0,216.0,195.0,215.5,186.0,222.5,181.0,216.5,178.5,204.0,170.5,199.0,161.5,205.5,157.5,203.0,152.0,206.0,146.5,201.0,145.0,205.0,137.0,211.0,129.0,219.5,133.0,213.5,125.0,212.0,119.0,214.0,107.0,216.0,110.0,211.5,102.0,208.5,95.0,222.0,93.0,219.0,85.0,222.0,88.0,222.5,87.5,219.0,98.5,218.0,98.5,212.0,97.5,204.0,103.5,197.0,105.0,191.0,99.0,178.0,93.5,177.0,93.0,167.0,90.0,161.0,93.0,157.0,101.0,147.0,100.0,145.0,105.5,144.5,111.5,136.5,108.0,135.0,117.5,131.0,117.5,122.5,121.5,118.5,117.5,130.5" stroke="black" stroke-width="2" fill="none" />
<path d="M117.5,134.0,125.5,133.5,132.5,133.0,140.0,132.5,147.5,131.5" stroke="black" stroke-width="2" fill="none" />
<path d="M147.0,139.0,139.0,146.0,131.0,154.0,123.0,162.0,115.0,170.0" stroke="black" stroke-width="2" fill="none" />
<path d="M110.0,167.0,110.5,175.0,109.5,182.5,101.5,184.5,105.5,190.0" stroke="black" stroke-width="2" fill="none" />
<path d="M105.5,181.0,97.5,181.0" stroke="black" stroke-width="2" fill="none" />
<path d="M93.5,176.5,101.5,175.5,114.5,175.0,120.0,177.0" stroke="black" stroke-width="2" fill="none" />
<path d="M116.5,176.0,115.5,183.5,117.5,185.0,119.5,192.5,125.5,188.0,133.0,181.0" stroke="black" stroke-width="2" fill="none" />
<path d="M157.5,191.0,156.0,198.0,156.5,204.0,155.5,212.0,158.5,213.0,163.5,216.0,161.0,218.0,158.0,225.5,165.0,222.5,166.0,217.5,174.0,215.5" stroke="black" stroke-width="2" fill="none" />
<path d="M185.5,200.0,193.5,199.5" stroke="black" stroke-width="2" fill="none" />
<path d="M197.0,195.0,204.5,194.0" stroke="black" stroke-width="2" fill="none" />
<path d="M202.0,200.5,212.0,206.5,206.5,211.5,200.0,219.0,194.0,226.0,200.0,226.0" stroke="black" stroke-width="2" fill="none" />
<path d="M204.5,221.5,209.0,213.0" stroke="black" stroke-width="2" fill="none" />
<path d="M218.0,224.0,221.0,216.0,224.0,209.0,216.5,216.0,215.0,220.0,207.0,228.0,199.0,228.0,190.0,225.0,189.0,220.5,194.5,216.5,201.0,216.0,198.0,209.5,199.0,201.5,214.0,193.5,211.0,185.0,208.5,183.0" stroke="black" stroke-width="2" fill="none" />
<path d="M212.0,176.5,204.0,176.5" stroke="black" stroke-width="2" fill="none" />
<path d="M204.5,170.0,196.0,177.0,187.5,184.5,179.5,192.5" stroke="black" stroke-width="2" fill="none" />
<path d="M178.5,194.0,186.5,193.0" stroke="black" stroke-width="2" fill="none" />
<path d="M188.0,195.0,196.5,187.0,204.5,179.5,212.5,172.0" stroke="black" stroke-width="2" fill="none" />
<path d="M205.5,164.0,213.5,168.0,221.5,174.5,230.0,175.5" stroke="black" stroke-width="2" fill="none" />
<path d="M234.0,173.0,234.0,165.0,234.0,157.0,234.0,150.5,234.0,142.0,234.0,134.0,233.0,126.0,233.0,118.5,228.0,115.5" stroke="black" stroke-width="2" fill="none" />
<path d="M237.0,119.0,245.0,118.5,252.5,118.0,259.5,117.5,267.0,117.0" stroke="black" stroke-width="2" fill="none" />
<path d="M245.0,115.5,236.5,123.0" stroke="black" stroke-width="2" fill="none" />
<path d="M236.0,126.0,244.5,125.5,252.5,125.5,260.0,125.0,267.5,124.5" stroke="black" stroke-width="2" fill="none" />
<path d="M244.0,124.0,236.0,131.0" stroke="black" stroke-width="2" fill="none" />
<path d="M235.0,135.5,243.0,134.5,251.0,134.0,259.5,133.0" stroke="black" stroke-width="2" fill="none" />
<path d="M251.0,150.0,242.5,150.5,235.0,150.5" stroke="black" stroke-width="2" fill="none" />
<path d="M235.5,142.0,243.5,141.5,251.5,140.5" stroke="black" stroke-width="2" fill="none" />
<path d="M253.0,155.0,257.0,152.0,257.5,154.5,254.5,164.0,253.0,172.0,253.5,179.5,253.5,187.5,253.5,195.5,253.5,203.0,253.0,211.0,252.5,219.0,252.5,227.0,249.5,235.0,249.0,243.5" stroke="black" stroke-width="2" fill="none" />
<path d="M256.0,240.0,264.0,240.0,277.5,239.5,285.5,239.5,293.5,239.5,302.0,239.5,310.0,238.0,318.0,238.0,326.0,238.0" stroke="black" stroke-width="2" fill="none" />
<path d="M336.0,240.5,336.0,248.5,336.0,256.5,337.0,265.0,337.5,273.0,337.5,281.5,337.5,289.5,337.5,297.5,341.5,289.5" stroke="black" stroke-width="2" fill="none" />
<path d="M348.0,300.5,339.5,301.0,332.0,301.0" stroke="black" stroke-width="2" fill="none" />
<path d="M334.5,309.5,334.5,317.5" stroke="black" stroke-width="2" fill="none" />
<path d="M339.5,317.5,339.5,309.5" stroke="black" stroke-width="2" fill="none" />
<path d="M365.0,302.0,372.5,301.0,380.5,300.5,388.5,299.5,396.5,299.0" stroke="black" stroke-width="2" fill="none" />
<path d="M421.0,268.5,428.5,268.0" stroke="black" stroke-width="2" fill="none" />
<path d="M420.5,280.0,419.0,276.0,418.0,268.5,417.0,260.0,417.0,252.0,417.5,244.0,414.5,239.5,406.5,239.5" stroke="black" stroke-width="2" fill="none" />
<path d="M421.0,246.5,421.0,255.0,421.5,263.0,422.5,271.0,422.5,279.5" stroke="black" stroke-width="2" fill="none" />
<path d="M437.0,246.0,444.5,245.5" stroke="black" stroke-width="2" fill="none" />
<path d="M452.0,243.0,460.0,237.0" stroke="black" stroke-width="2" fill="none" />
<path d="M435.0,235.0,437.0,243.0,440.0,251.5,443.0,263.0" stroke="black" stroke-width="2" fill="none" />
<path d="M517.0,282.5,508.5,283.5,501.0,284.5,493.0,285.5,485.0,286.5,477.0,286.5,469.0,287.0,460.5,287.5,452.0,288.0,444.0,288.5,435.5,289.0,427.5,290.5,419.5,291.5,411.5,292.5,403.0,292.5,395.5,293.0,387.5,293.0,379.5,293.5,371.5,294.0,363.5,294.5,355.0,295.0,347.0,296.5,338.5,297.0,331.0,298.0,323.0,298.5,315.0,299.0,307.0,299.5,299.0,300.0,290.5,301.0,282.5,301.5,274.5,302.0,267.5,303.0,260.0,303.5,251.5,304.0,244.0,304.0,236.0,304.0,228.0,304.0,220.0,303.5,212.0,303.5,204.0,303.5,196.5,304.5,188.0,305.0,180.5,306.0,172.5,307.5,165.0,308.0,157.0,308.0,149.0,308.5,141.0,309.0,133.0,309.5,125.0,310.5,116.5,311.0,108.0,311.5,100.5,312.5,92.5,313.0,85.0,314.0,76.5,314.5,68.5,314.5,60.5,314.5,52.0,314.5,44.0,315.0,35.0,316.0,26.5,316.0,18.0,317.0,9.0,317.5,1.0,318.0" stroke="black" stroke-width="2" fill="none" />
<path d="M2.5,313.0,10.5,312.5,18.5,312.0,27.0,312.0,35.5,312.5,44.0,312.0,52.0,311.5" stroke="black" stroke-width="2" fill="none" />
<path d="M68.5,325.0,60.0,325.5,51.5,326.5,43.0,327.5,35.0,328.0,27.5,329.0,19.0,329.5,10.5,330.5,2.5,331.0" stroke="black" stroke-width="2" fill="none" />
<path d="M2.5,308.5,10.5,308.5,19.0,308.0,27.5,308.0,36.0,307.5,43.5,306.5,52.0,306.0,60.0,305.0,68.0,304.5,75.5,304.0,83.5,303.5,92.0,303.0,100.0,302.5,108.0,302.5,116.0,303.0,124.0,302.5,131.5,302.0,139.5,301.0,147.5,300.5,155.0,299.5,162.5,299.0,170.5,299.0,179.0,298.5,187.5,298.0,195.0,298.0,203.0,297.5,211.0,297.0,219.0,296.5,226.5,295.5,234.0,295.0,242.0,294.5,250.5,294.0" stroke="black" stroke-width="2" fill="none" />
<path d="M284.0,287.5,292.0,287.0,299.5,286.0" stroke="black" stroke-width="2" fill="none" />
<path d="M300.5,281.5,292.0,282.0" stroke="black" stroke-width="2" fill="none" />
<path d="M289.5,285.0,297.5,277.5" stroke="black" stroke-width="2" fill="none" />
<path d="M294.0,273.5,299.0,281.5,296.0,289.5" stroke="black" stroke-width="2" fill="none" />
<path d="M290.5,278.0,298.5,277.5,306.5,276.5" stroke="black" stroke-width="2" fill="none" />
<path d="M300.0,270.0,292.0,270.5" stroke="black" stroke-width="2" fill="none" />
<path d="M291.5,272.5,291.5,274.5,287.5,282.5,284.5,290.5,283.0,292.5,282.5,291.5,284.0,296.5,290.0,290.5,298.0,287.0" stroke="black" stroke-width="2" fill="none" />
<path d="M314.0,270.0,306.0,264.5" stroke="black" stroke-width="2" fill="none" />
<path d="M308.0,261.5,307.0,269.5,298.5,276.5,306.0,282.5,315.0,276.5" stroke="black" stroke-width="2" fill="none" />
<path d="M313.0,279.5,316.0,271.5,309.5,263.5" stroke="black" stroke-width="2" fill="none" />
<path d="M251.5,286.0,243.0,287.0,235.0,287.0,227.5,287.5,219.5,288.0,211.5,288.0,204.0,288.5,195.5,289.0,187.5,290.0,180.0,291.0,172.0,291.5,164.5,292.0,156.0,293.0,147.5,293.0,139.0,293.0,131.0,293.0,123.0,293.0,115.0,294.0,107.0,294.5,98.5,295.5,90.5,296.0,82.5,297.0,74.5,297.0,67.0,297.0,59.5,297.0,51.5,297.5,43.5,298.0,36.0,298.5,28.0,299.0,19.5,300.0,11.0,300.5,2.5,301.0" stroke="black" stroke-width="2" fill="none" />
<path d="M3.0,296.0,11.0,296.0,19.0,295.5,27.0,295.5,35.5,295.5" stroke="black" stroke-width="2" fill="none" />
<path d="M3.0,284.5,11.5,284.0,19.5,284.0,27.5,283.5,36.0,283.5,44.5,283.0,52.5,283.0,60.5,282.5,68.5,282.0,76.0,281.5,84.0,281.0,92.5,280.5,100.5,280.0,109.0,279.5,117.0,279.0,124.5,278.0,132.5,277.0,140.5,276.5,148.5,275.5,156.0,274.5,164.0,274.0,172.0,273.5,180.0,273.5,188.0,273.5,196.0,273.0,203.5,272.5,212.0,272.0,220.5,271.5,228.5,271.0,236.5,271.0,244.5,270.5,252.0,270.0" stroke="black" stroke-width="2" fill="none" />
<path d="M239.5,235.5,239.5,228.0,239.5,220.0,240.0,212.0,240.0,204.0,240.0,196.0,240.0,188.0,240.0,179.5,240.0,171.0,240.0,163.0,240.5,154.5,240.0,146.5,240.0,139.0,240.0,130.5,240.5,122.5,236.0,114.5,233.0,113.5,225.0,115.5,217.0,115.5,209.0,115.5,200.5,117.0,192.5,117.0,184.5,117.5,176.0,117.5,167.5,117.5,160.0,118.0,152.5,118.0,144.5,117.5,136.5,117.5,129.0,117.0,120.5,117.0,112.5,117.0,104.0,117.5,96.0,117.5,88.0,117.5" stroke="black" stroke-width="2" fill="none" />
<path d="M83.0,119.0,75.5,120.0,68.0,120.0,60.0,121.0,52.0,122.0,44.0,123.0,35.5,123.5,27.0,123.0,18.5,123.0,10.0,124.0,2.0,125.0" stroke="black" stroke-width="2" fill="none" />
<path d="M1.5,128.5,9.5,127.5,18.0,127.5" stroke="black" stroke-width="2" fill="none" />
<path d="M4.0,132.0,11.5,123.5,19.5,116.0,27.5,107.5,35.5,99.5,43.5,91.5,52.0,84.0,60.5,77.0,68.0,69.0,75.0,61.0,83.0,53.5,91.0,46.0,99.0,39.0,107.5,31.5,115.5,24.0,123.5,16.5,131.5,9.0,139.5,1.5" stroke="black" stroke-width="2" fill="none" />
<path d="M146.0,3.5,139.0,11.0,131.5,18.5,123.5,26.5,115.0,35.0,106.5,43.0,99.0,50.5,91.5,57.5,83.5,65.5,75.5,73.0,67.5,80.5,59.0,88.0,51.0,95.0,43.0,102.5,35.5,110.0,27.5,117.5,19.0,125.0,10.0,132.0,1.5,139.5" stroke="black" stroke-width="2" fill="none" />
<path d="M4.0,143.5,12.0,142.0,19.5,141.5,27.0,140.5,35.0,139.0,42.5,138.5,51.0,138.0,59.0,137.5,67.0,137.0,74.5,136.0,82.5,136.0" stroke="black" stroke-width="2" fill="none" />
<path d="M82.5,146.0,74.5,147.0,66.5,147.5,59.0,148.0,51.5,148.5,44.5,149.0,37.0,149.0,29.0,149.0,21.0,149.0,13.0,150.0,5.0,150.5" stroke="black" stroke-width="2" fill="none" />
<path d="M4.5,153.5,12.5,153.0" stroke="black" stroke-width="2" fill="none" />
<path d="M2.5,154.0,10.5,146.5,18.5,139.5,26.5,132.0,35.0,124.5,43.0,117.0,51.5,109.5,59.5,101.5,67.0,93.5,74.0,85.5,81.5,78.0,90.0,70.5,98.5,63.5,106.5,56.0,114.5,48.5,123.0,40.5,131.0,33.0,139.0,25.5,147.5,18.0,156.5,9.5,165.0,2.0" stroke="black" stroke-width="2" fill="none" />
<path d="M154.5,3.0,147.0,11.0,139.5,19.0,132.0,26.5,124.5,34.5,116.5,42.0,108.5,49.5,100.5,56.5,92.5,63.5,84.5,71.0,76.0,78.5,68.0,86.0,60.0,93.5,51.5,101.0,43.5,109.0,35.0,116.5,27.0,124.0,19.0,131.5,10.5,139.5,2.0,147.5" stroke="black" stroke-width="2" fill="none" />
<path d="M5.5,145.0,13.0,145.0" stroke="black" stroke-width="2" fill="none" />
<path d="M4.0,113.0,12.0,112.0,19.5,111.5,27.0,110.5,35.0,109.0,43.0,108.0,51.0,106.5,59.0,105.5,66.5,104.5,75.0,103.5,83.0,103.0,91.0,102.5,99.0,102.0,107.5,102.0,115.5,102.0,124.0,101.5,132.5,101.5,141.0,101.5,149.0,100.5,157.5,99.5,165.5,99.0,173.5,99.0,181.0,99.0,189.0,98.5,197.0,98.5,204.5,98.0,212.5,97.5,220.5,96.5,229.0,95.5,237.0,94.5,244.5,94.0,253.5,93.5,261.5,93.0,269.5,92.5,277.0,92.0" stroke="black" stroke-width="2" fill="none" />
<path d="M276.0,84.5,268.0,85.5,260.0,86.5,251.5,87.0,243.5,87.5,235.5,88.0,227.5,88.5,219.5,89.0,211.5,89.0,203.5,89.0,195.0,89.0,187.0,89.5,179.0,89.5,171.0,90.0,163.5,90.0,155.0,90.5,146.5,91.0,138.0,91.5,130.0,92.5,122.5,93.5,114.0,94.5,106.5,95.5,99.0,96.5,91.0,97.0,83.0,98.0,75.0,98.5,67.5,99.0,59.5,99.5,51.0,100.0,43.0,100.5,35.0,100.5,27.0,101.0,18.5,101.0,10.0,101.0,1.5,101.0" stroke="black" stroke-width="2" fill="none" />
<path d="M5.0,102.0,13.0,94.5,21.0,87.0,29.0,79.5,37.0,72.0,45.0,64.5,52.5,57.0,60.0,48.5,67.5,41.0,75.5,33.5,83.0,27.0,91.0,19.5,99.5,11.5,107.5,4.0" stroke="black" stroke-width="2" fill="none" />
<path d="M116.0,4.0,107.5,11.5,99.5,19.5,91.0,27.0,83.0,35.0,74.5,42.0,66.5,49.0,59.0,56.0,51.0,63.0,43.0,70.5,35.0,78.5,27.0,85.5,19.5,92.5,11.5,100.0,3.0,107.5" stroke="black" stroke-width="2" fill="none" />
<path d="M2.0,107.0,10.0,106.0,18.5,105.5,26.5,105.0,35.0,105.0" stroke="black" stroke-width="2" fill="none" />
<path d="M43.5,96.5,35.0,96.5,27.0,96.5,18.5,96.5,10.5,96.5,3.0,97.0" stroke="black" stroke-width="2" fill="none" />
<path d="M2.0,92.5,10.5,92.5,18.5,92.5,27.0,92.0,35.5,92.0,44.0,91.5,52.5,92.0,61.0,92.0,69.5,92.0,77.5,91.5,85.5,90.5,93.5,90.5,101.0,89.5,109.0,89.0,116.5,88.0,123.5,87.0,131.5,86.5,139.5,85.5,147.0,85.0,154.0,84.5,161.5,84.0,170.0,83.0,178.0,83.0,186.5,82.5,195.5,82.0,204.0,81.5,212.0,81.5,220.0,80.5,228.0,79.5,236.0,79.0,244.0,78.0,251.5,78.0,260.0,77.5,268.5,77.0,276.5,76.5,285.0,76.0" stroke="black" stroke-width="2" fill="none" />
<path d="M290.0,67.5,282.0,68.5,274.0,68.5,266.0,69.0,258.5,69.5,250.5,70.5,242.5,71.0,234.5,72.0,227.0,72.0,219.0,72.0,210.5,72.5,202.5,73.0,194.5,73.5,187.5,74.0,179.5,74.5,171.5,75.5,163.0,76.0,155.5,76.0,147.5,76.5,139.5,77.5,131.5,78.0,123.5,79.0,115.5,80.0,107.5,80.5,99.5,81.5,91.5,82.5,83.5,83.0,75.5,83.5,67.5,83.0,59.0,83.5,50.0,84.0,42.0,84.5,34.0,84.5,26.0,84.5,18.5,84.5,10.5,85.5,3.0,86.0" stroke="black" stroke-width="2" fill="none" />
<path d="M2.5,86.5,10.5,79.0,18.5,71.5,26.5,63.5,35.0,56.5,43.5,49.5,51.5,42.5,60.5,34.5,69.0,26.5,77.0,19.0,85.0,11.5,93.0,4.0" stroke="black" stroke-width="2" fill="none" />
<path d="M98.5,3.5,91.5,11.0,84.0,18.5,76.0,26.0,67.5,33.5,59.5,41.0,52.0,48.0,44.0,55.5,36.5,62.5,29.0,70.0,20.5,77.0,13.0,84.5,4.0,92.5" stroke="black" stroke-width="2" fill="none" />
<path d="M3.0,89.5,11.0,89.0,18.5,88.0,26.5,87.5,35.0,87.5,43.0,87.5,51.0,87.5" stroke="black" stroke-width="2" fill="none" />
<path d="M52.5,78.5,44.5,78.5,36.5,79.5,28.0,80.0,19.5,80.0,11.5,80.0,3.0,80.5" stroke="black" stroke-width="2" fill="none" />
<path d="M4.5,79.5,12.5,78.5,21.0,78.5,29.5,78.0,37.5,77.0,45.5,76.5,53.5,75.5,61.5,74.5,69.0,73.5,77.0,72.0,85.0,71.5,93.5,71.0,101.5,71.0,109.0,70.5,117.0,69.5,125.0,69.5,132.5,69.0,141.0,69.0,149.0,69.0,157.5,69.0,165.5,68.5,173.5,68.0,181.5,67.5,190.0,67.0,197.5,67.0,206.0,67.0,213.5,66.5,221.0,66.5,228.5,66.0,236.0,65.0,244.0,64.5,252.0,64.0,259.5,63.0,267.5,62.0,276.0,61.0,283.5,59.5,291.5,58.5" stroke="black" stroke-width="2" fill="none" />
<path d="M300.0,50.0,292.5,51.0,284.5,52.0,277.0,53.0,268.5,53.5,260.5,54.5,252.5,55.0,244.5,55.5,236.5,55.5,228.0,56.0,219.5,57.0,211.5,58.0,203.0,59.0,195.0,59.5,187.0,59.5,178.5,59.5,170.0,60.0,162.0,60.0,154.0,61.0,146.5,61.5,139.0,62.0,130.5,62.0,122.5,62.5,114.5,62.5,106.0,62.5,97.5,62.5,89.5,62.5,81.5,63.0,73.5,64.0,65.0,65.0,57.0,66.0,49.0,67.0,41.5,68.0,33.0,68.0,25.5,68.0,18.0,68.0,11.0,68.0,3.0,69.0" stroke="black" stroke-width="2" fill="none" />
<path d="M3.0,71.0,11.5,63.0,19.5,55.5,27.0,47.5,35.0,40.0,43.5,33.0,52.0,26.5,60.5,19.0,69.0,11.5,77.5,4.5" stroke="black" stroke-width="2" fill="none" />
<path d="M83.5,2.0,75.5,9.5,67.0,17.0,59.0,25.0,51.0,33.0,43.5,40.0,35.0,47.5,27.0,54.5,18.5,61.5,11.0,69.0,3.5,76.5" stroke="black" stroke-width="2" fill="none" />
<path d="M4.0,73.0,12.0,72.0,19.5,71.5,27.0,71.0,35.5,70.5,43.5,69.5,51.5,69.5,60.0,69.0" stroke="black" stroke-width="2" fill="none" />
<path d="M67.5,61.5,59.0,61.5,51.0,61.5,42.5,62.0,34.5,62.5,27.0,63.0,19.0,63.5,10.5,63.5,2.5,64.0" stroke="black" stroke-width="2" fill="none" />
<path d="M3.5,63.0,11.5,55.5,19.5,48.0,27.5,40.5,35.0,33.0,43.0,26.5,50.5,19.0,59.0,12.0,67.0,4.5" stroke="black" stroke-width="2" fill="none" />
<path d="M59.5,3.0,52.0,10.5,44.0,18.0,36.5,25.5,28.5,32.5,21.0,40.0,13.0,48.0,5.0,55.5" stroke="black" stroke-width="2" fill="none" />
<path d="M4.0,55.0,12.0,54.5,20.5,53.0,29.0,52.0,37.0,51.0,45.0,50.0,53.0,49.5,60.5,49.0,68.0,48.5,75.5,47.5,83.5,47.0,92.0,47.0,100.0,46.5,108.0,46.0,116.0,46.0,123.5,45.0,131.5,45.0,138.5,44.5,146.0,44.0,153.5,44.0,161.0,43.5,169.5,43.0,177.5,43.0,186.0,43.0,195.0,42.5,203.5,42.0,211.0,41.5,218.5,41.0,226.5,40.5,234.5,40.0,243.0,39.5,250.5,39.5,259.0,39.0,267.5,38.0,276.5,37.0,284.5,36.5,292.5,36.0,300.5,35.5,308.5,35.0" stroke="black" stroke-width="2" fill="none" />
<path d="M300.0,43.5,291.5,43.5,283.5,44.0,274.5,44.5,267.0,45.0,258.5,45.0,250.0,46.0,241.5,46.5,233.5,47.5,226.0,48.0,218.0,48.5,210.0,49.0,202.5,49.5,195.5,49.5,188.0,50.5,180.5,51.0,173.5,51.5,165.5,52.0,157.0,52.0,148.5,52.5,140.5,53.0,132.5,53.5,124.5,53.5,116.5,54.5,109.0,55.0,101.5,56.0,93.5,57.0,85.5,57.5,77.5,58.0,69.0,57.5,60.5,58.0,52.5,59.0,44.0,59.5,36.0,60.0,27.5,60.0,19.5,60.5,12.0,61.5,3.5,62.0" stroke="black" stroke-width="2" fill="none" />
<path d="M5.0,58.0,13.0,57.5,20.5,56.5,28.0,56.0,35.0,55.0,43.0,54.5,51.5,54.0,60.0,53.5,68.5,53.0" stroke="black" stroke-width="2" fill="none" />
<path d="M50.5,3.5,42.5,10.5,35.0,18.0,27.0,25.5,19.5,32.5,11.5,40.0,4.0,47.5" stroke="black" stroke-width="2" fill="none" />
<path d="M2.5,45.0,10.5,44.5,19.0,44.5,27.5,44.5,35.5,44.5,44.0,44.5,52.5,44.0,60.0,43.5,68.0,43.0,76.0,42.5,84.0,42.0,92.0,41.0,100.0,40.5,108.0,39.5,116.0,39.0,124.0,38.0,132.0,37.5,140.0,36.5,148.0,36.0,156.0,35.5,164.0,35.0,172.5,35.0,180.5,34.0,188.5,33.5,196.5,32.5,204.5,32.0,212.0,32.5,220.0,32.5,227.5,32.5,235.5,32.5,243.0,32.5,251.0,31.5,259.0,31.0,267.5,30.0,275.5,29.0,283.5,28.5,292.0,28.0,300.5,27.0,308.5,26.0,316.5,25.5" stroke="black" stroke-width="2" fill="none" />
<path d="M314.5,19.5,306.5,20.0,298.5,20.5,290.5,21.0,282.5,21.0,275.0,22.0,267.5,22.5,260.5,23.0,253.0,23.5,245.0,24.0,237.0,24.5,229.0,25.0,221.0,25.0,213.5,25.5,205.5,25.5,197.0,25.5,188.0,25.5,180.0,25.5,172.0,26.0,164.0,26.0,155.5,26.5,148.0,27.5,140.0,28.5,132.5,29.0,124.5,30.5,117.0,31.0,109.5,32.0,101.5,33.0,93.5,33.5,85.5,34.5,77.5,35.0,69.0,35.5,60.5,36.0,51.5,36.0,43.0,36.5,35.0,36.5,27.0,37.5,18.5,38.0,10.0,38.5,2.0,39.0" stroke="black" stroke-width="2" fill="none" />
<path d="M3.0,41.5,11.0,41.5,19.0,41.5,27.0,41.0,35.0,40.5,42.5,40.0,51.0,39.5,59.5,39.0,68.0,39.0,76.5,39.0,85.0,38.0" stroke="black" stroke-width="2" fill="none" />
<path d="M44.0,4.5,36.0,11.5,28.0,19.0,20.0,26.0,12.0,33.0,4.5,40.5" stroke="black" stroke-width="2" fill="none" />
<path d="M3.0,35.0,11.0,27.5,19.0,20.0,26.5,12.5,34.0,5.5" stroke="black" stroke-width="2" fill="none" />
<path d="M28.5,4.5,20.5,11.5,13.0,19.0,4.5,26.5" stroke="black" stroke-width="2" fill="none" />
<path d="M5.0,28.0,13.0,27.5,20.0,27.0,28.0,26.5,36.0,26.5,43.5,26.0,51.5,26.0,59.5,26.0,68.0,26.0,76.0,25.5,84.0,24.5,92.5,24.5,100.5,24.5,108.0,24.5,116.0,23.5,124.0,23.0,131.5,23.0,139.0,22.5,147.0,22.0,155.0,21.5,162.5,21.0,170.5,20.5,179.0,19.5,187.5,19.0,195.0,18.0,203.0,17.5,211.5,16.5,220.0,15.5,228.5,15.0,237.0,14.5,245.5,14.0,253.0,13.5,261.0,12.5,268.5,11.5,276.5,10.5,284.5,9.5,292.0,9.0,300.0,8.5,308.0,8.0,316.0,7.5,324.0,7.0" stroke="black" stroke-width="2" fill="none" />
<path d="M331.5,21.5,347.5,29.5,361.5,37.0,374.5,45.0,387.0,53.0,399.0,61.0,406.5,66.0,419.0,73.5,431.5,81.5,444.5,89.5,456.5,97.5,463.5,105.5,467.0,107.0,462.0,115.0,461.0,123.0,471.0,130.5,474.0,138.5" stroke="black" stroke-width="2" fill="none" />
<path d="M478.5,170.5,470.0,160.5,460.0,147.0,454.0,138.0,445.5,129.0,437.5,122.0,429.0,114.0,421.5,111.0" stroke="black" stroke-width="2" fill="none" />
<path d="M424.0,110.5,432.5,118.5,441.0,126.5,448.5,135.0,453.5,143.5,459.5,151.5,468.5,144.5" stroke="black" stroke-width="2" fill="none" />
<path d="M456.5,169.0,461.5,177.0,469.0,188.0" stroke="black" stroke-width="2" fill="none" />
<path d="M452.5,191.0,444.0,177.0,436.0,162.0" stroke="black" stroke-width="2" fill="none" />
<path d="M434.0,159.5,442.0,167.0,449.5,182.0,457.5,194.0" stroke="black" stroke-width="2" fill="none" />
<path d="M463.5,179.5,456.0,165.5,447.0,156.0,443.5,148.0,448.5,140.5,445.5,144.5,437.0,144.0,429.0,136.0" stroke="black" stroke-width="2" fill="none" />
<path d="M425.5,122.5,417.5,111.5,409.5,99.5,401.5,91.0" stroke="black" stroke-width="2" fill="none" />
<path d="M400.5,90.0,406.5,98.0,412.5,106.0,418.0,114.5,424.0,122.5,429.5,136.0,436.5,144.0,442.5,152.0,450.5,159.0,455.5,167.0,447.5,175.0,454.5,169.0,462.5,181.5,470.5,194.5" stroke="black" stroke-width="2" fill="none" />
<path d="M473.0,201.0,469.0,193.5,463.5,185.5,459.5,178.0,454.5,170.0" stroke="black" stroke-width="2" fill="none" />
<path d="M454.0,192.0,448.5,183.5,443.5,175.5,439.0,167.0,434.0,159.0" stroke="black" stroke-width="2" fill="none" />
<path d="M435.0,157.5,436.5,166.0,440.5,174.0,444.5,182.5,450.0,190.5,453.0,199.0" stroke="black" stroke-width="2" fill="none" />
<path d="M436.5,189.0,428.0,186.5" stroke="black" stroke-width="2" fill="none" />
<path d="M434.0,185.0,438.0,192.5,441.0,200.5,443.0,208.5,445.0,217.0,447.5,225.5" stroke="black" stroke-width="2" fill="none" />
<path d="M437.5,198.0,435.0,190.0,427.0,185.0,425.0,177.0" stroke="black" stroke-width="2" fill="none" />
<path d="M404.0,143.0,396.5,131.0,388.0,133.0,380.0,135.5,372.0,137.5,364.0,138.5" stroke="black" stroke-width="2" fill="none" />
<path d="M362.0,136.0,370.0,135.0,378.5,132.0,386.5,130.0,394.5,127.0" stroke="black" stroke-width="2" fill="none" />
<path d="M395.0,117.5,398.5,125.0,401.0,138.5,405.5,146.5,401.5,152.0" stroke="black" stroke-width="2" fill="none" />
<path d="M395.0,150.5,386.5,151.5,378.0,153.5,369.5,154.0,362.0,155.0,353.5,155.0" stroke="black" stroke-width="2" fill="none" />
<path d="M351.5,154.0,359.5,154.0,368.0,153.0,376.0,151.0,384.5,149.5,392.5,148.5,400.5,147.5" stroke="black" stroke-width="2" fill="none" />
<path d="M378.0,131.5,392.5,121.5,393.5,114.0" stroke="black" stroke-width="2" fill="none" />
<path d="M389.0,111.0,380.5,114.5,372.5,118.5,364.5,121.5,367.0,120.0,384.0,112.0,383.5,105.5,379.0,97.5" stroke="black" stroke-width="2" fill="none" />
<path d="M378.5,97.0,374.5,99.0,383.0,97.5" stroke="black" stroke-width="2" fill="none" />
<path d="M382.5,94.5,384.5,102.5,380.0,111.5,363.5,119.5,363.0,120.5,371.0,117.0,379.0,112.5,387.0,109.5,394.5,115.5" stroke="black" stroke-width="2" fill="none" />
<path d="M381.5,90.0,373.0,95.0,365.0,101.0,356.5,107.0,348.5,110.5,347.0,112.0,361.0,103.5,372.0,95.5,383.0,87.0" stroke="black" stroke-width="2" fill="none" />
<path d="M396.5,78.5,404.0,86.0" stroke="black" stroke-width="2" fill="none" />
<path d="M406.0,72.0,405.5,69.0,397.5,64.5" stroke="black" stroke-width="2" fill="none" />
<path d="M394.0,75.0,406.0,83.0,408.5,93.0,417.0,101.0,425.5,109.5,433.5,117.0,442.0,113.0,450.5,114.5,459.0,118.5,469.0,129.5,477.0,136.5" stroke="black" stroke-width="2" fill="none" />
<path d="M516.0,20.0,507.5,20.0,499.0,20.0,491.0,20.0,483.5,20.5,475.5,20.5,467.5,21.0,459.0,22.5,451.0,23.5,443.0,24.0,435.0,24.5,427.0,25.0,419.5,25.0,412.0,26.0,404.0,26.5,396.5,28.0,388.5,28.5,380.5,29.0,372.5,29.5,364.0,30.0,355.5,30.0" stroke="black" stroke-width="2" fill="none" />
<path d="M362.5,51.5,353.5,53.5,345.5,57.5,338.0,67.5,330.5,79.0,323.0,85.5,315.0,92.5,307.5,102.0,300.0,110.0,292.0,117.0,284.0,125.0,291.0,118.0,300.0,110.0,308.0,102.0,312.0,94.5,322.0,86.5,331.0,78.5,337.0,70.5,342.5,62.5,349.5,55.0,354.5,53.0" stroke="black" stroke-width="2" fill="none" />
<path d="M352.5,55.0,346.5,63.0,340.5,71.0,333.5,79.5,325.5,88.0,317.0,95.0,324.5,91.5,331.5,82.5,339.0,73.5,347.0,64.0,355.0,56.0,369.0,62.5,377.0,70.5" stroke="black" stroke-width="2" fill="none" />
<path d="M367.0,73.5,359.5,80.0,351.5,87.0,342.5,94.0,334.5,100.0,325.5,105.0,321.0,111.0,315.0,110.0,312.5,102.0,300.0,93.0,292.0,89.0" stroke="black" stroke-width="2" fill="none" />
<path d="M290.5,89.5,294.0,86.5,302.0,87.5,310.0,77.0,317.5,67.0,325.0,54.0,333.0,40.0,333.0,40.0,328.0,48.0,324.0,56.5,319.0,64.5,313.0,72.0,306.5,80.0,299.5,88.0,300.0,98.5,310.5,105.5,314.5,105.5,322.5,103.5,330.5,98.5,339.0,93.0,347.0,87.0,355.0,80.0,363.0,72.5,371.0,71.5,359.5,76.5,350.5,84.5,340.5,92.5,328.5,101.0,323.5,110.0,327.0,117.5,324.5,125.5,326.0,130.5,330.0,124.5,334.0,114.5,342.5,111.5,350.5,107.5,358.0,102.0,366.0,96.0,374.0,90.0,382.0,86.0,376.5,89.0,364.0,97.0,353.0,104.5,336.0,112.5,330.0,125.0,333.0,140.0" stroke="black" stroke-width="2" fill="none" />
<path d="M334.0,132.0,335.5,140.0,338.5,152.0,337.5,162.0" stroke="black" stroke-width="2" fill="none" />
<path d="M273.5,171.5,270.0,179.5,270.0,187.5,269.5,195.5,269.5,203.0,269.5,211.0,270.0,219.5,270.0,227.5,270.5,235.5,270.5,243.5,270.5,251.0,270.5,259.5,271.5,267.5,271.0,275.5,271.0,283.5,271.0,291.5,271.0,300.0,273.0,306.5,281.5,306.5,290.0,307.0,298.0,307.0,305.5,306.5,313.0,306.5,321.0,306.5,329.0,306.0,337.0,307.0,345.0,306.0,353.0,305.5,361.5,305.0,369.5,304.5,377.5,303.5,385.5,303.5,393.5,303.5,401.0,303.5" stroke="black" stroke-width="2" fill="none" />
<path d="M404.0,300.5,404.0,293.0,405.0,285.5,405.5,277.5,405.5,269.0,406.5,261.0,406.0,252.5,406.0,244.0,405.5,236.0,405.5,228.0,405.5,220.0,405.5,212.0,405.5,204.0,404.5,196.0,404.5,188.0,404.5,180.0,400.5,173.0,392.5,173.0,384.5,172.5,377.0,172.5,369.0,172.0,361.5,172.0,353.0,172.0,345.5,172.0,337.5,172.0,329.5,172.0,321.5,172.5,313.0,172.5,305.5,173.5,297.0,173.5,288.5,174.0,280.5,174.0,272.5,175.0" stroke="black" stroke-width="2" fill="none" />
<path d="M272.0,173.5,271.0,181.0,271.0,189.5,271.5,197.5,271.5,205.5,271.5,213.5,271.5,221.5,271.5,229.5,272.5,238.0,272.5,246.0,272.5,254.0,272.5,262.0,273.0,269.5,273.5,277.5,273.5,285.5,273.0,293.5,274.0,301.5,280.0,302.5,288.0,301.5,295.5,302.0,303.5,302.5,311.5,302.0,319.5,303.0,327.5,303.0,335.5,302.5,344.0,301.5,352.0,301.5,360.0,303.0,368.0,302.5,376.5,302.5,384.5,302.5,392.5,301.5,400.5,301.5" stroke="black" stroke-width="2" fill="none" />
<path d="M400.0,301.0,400.0,293.0,401.0,285.5,401.0,277.5,402.0,269.5,401.5,261.0,401.5,253.0,401.5,245.0,401.0,237.0,402.0,229.0,401.5,220.5,402.0,212.5,402.0,204.5,402.0,196.5,401.0,188.5,401.0,180.5,403.0,172.5,398.5,170.0,391.0,170.0,383.0,170.0,375.0,169.5,367.0,169.5,358.5,169.5,350.5,169.5,342.5,169.5,334.5,169.5,326.5,169.5,318.5,170.0,310.5,171.0,302.5,171.5,294.5,171.0,286.5,171.0,278.5,170.5,270.5,171.5" stroke="black" stroke-width="2" fill="none" />
<path d="M229.5,152.5,224.5,147.0,217.5,149.5,210.0,150.5,208.0,150.0,198.0,154.0,195.0,154.5,189.0,154.5,206.0,148.5,211.5,145.5,212.5,132.5" stroke="black" stroke-width="2" fill="none" />
<path d="M219.5,143.5,221.0,146.5,215.5,147.5" stroke="black" stroke-width="2" fill="none" />
<path d="M205.0,151.0,197.0,151.5" stroke="black" stroke-width="2" fill="none" />
<path d="M189.0,141.5,198.0,145.0,201.5,145.5,213.5,142.5,219.0,141.5,227.5,142.5" stroke="black" stroke-width="2" fill="none" />
<path d="M197.0,170.5,189.0,177.5,181.0,184.5,172.5,191.5" stroke="black" stroke-width="2" fill="none" />
<path d="M171.5,187.0,175.5,195.5,176.5,204.0,180.5,211.0" stroke="black" stroke-width="2" fill="none" />
<path d="M175.5,195.0,183.5,202.5,191.5,209.5,204.5,211.0,208.5,212.0" stroke="black" stroke-width="2" fill="none" />
<path d="M220.0,195.5,217.5,203.0,223.5,211.0,213.5,218.5,207.0,220.5,210.0,228.5,218.0,228.0,218.5,226.0,223.5,227.5" stroke="black" stroke-width="2" fill="none" />
<path d="M253.5,233.0,253.5,241.0,253.5,248.5,253.0,256.0,253.0,264.0,252.5,272.0,253.0,280.0,252.5,288.0,253.0,296.0,253.0,304.0,254.5,312.5,255.0,320.5,260.5,321.5,268.5,321.5,276.0,318.0,283.5,318.5,291.0,318.5,299.0,318.5,307.0,318.5,315.0,318.5,323.0,318.0,334.0,319.0,345.5,321.0,353.5,320.0,361.5,320.0,370.0,317.0,371.0,320.0,379.5,320.5,387.5,320.5,395.5,321.5,404.0,321.5,412.0,321.5" stroke="black" stroke-width="2" fill="none" />
<path d="M413.5,83.5,405.5,76.0,397.5,70.0,391.0,64.0,383.0,59.0,375.0,53.0,367.0,46.5,359.0,40.5,345.0,34.5,335.5,43.0,327.5,55.0,320.0,69.5,311.5,78.5,300.5,90.0,295.5,97.0,288.0,107.0,280.0,116.0,272.0,126.0,264.0,137.0,265.0,135.0,270.5,127.0,277.5,119.0,283.5,111.0,290.5,103.0,297.5,95.0,305.5,86.0,311.0,78.0,318.0,70.0,323.0,62.0,328.0,54.0,333.0,46.5,333.0,51.5" stroke="black" stroke-width="2" fill="none" />
<path d="M355.0,59.5,348.0,66.5,355.5,58.5" stroke="black" stroke-width="2" fill="none" />
<path d="M364.0,58.5,373.0,66.5,371.5,71.5,361.5,77.5,352.5,85.5,343.0,92.5,331.0,101.0,318.0,109.0,320.5,117.5,330.5,127.5,330.5,135.0,338.5,142.5,334.5,149.0,333.5,158.0,333.5,166.0" stroke="black" stroke-width="2" fill="none" />
<path d="M194.0,167.0,194.0,165.5,186.0,162.5" stroke="black" stroke-width="2" fill="none" />
<path d="M169.5,186.0,170.5,194.0,182.5,202.5,187.5,211.0,187.5,218.5" stroke="black" stroke-width="2" fill="none" />
<path d="M151.5,206.0,149.5,214.0,143.5,216.5,141.5,224.5" stroke="black" stroke-width="2" fill="none" />
<path d="M83.5,184.0,75.5,184.5,67.0,185.0,59.5,185.5,51.5,186.0,43.5,186.5,36.0,187.5,28.0,188.5,20.5,189.5,12.5,189.5,4.5,190.0" stroke="black" stroke-width="2" fill="none" />
<path d="M4.0,183.0,12.0,182.0,20.0,181.5,28.0,180.5,36.0,180.0,44.0,179.0,52.0,178.5,60.0,177.5,68.0,177.0,76.0,176.5,84.0,176.0" stroke="black" stroke-width="2" fill="none" />
<path d="M88.5,176.0,96.5,174.0,105.0,164.5,107.5,151.5,113.5,154.5,125.0,148.5,133.0,144.5,141.0,143.5,143.0,137.5,150.5,152.0,160.5,142.5" stroke="black" stroke-width="2" fill="none" />
<path d="M139.5,131.5,131.0,139.0,123.0,146.5" stroke="black" stroke-width="2" fill="none" />
<path d="M124.0,148.5,123.5,156.5,129.5,156.0,139.0,158.0,146.0,159.5,149.5,161.5" stroke="black" stroke-width="2" fill="none" />
<path d="M130.5,151.5,122.5,152.0" stroke="black" stroke-width="2" fill="none" />
<path d="M114.0,150.0,122.0,150.0,130.5,149.5,139.0,149.5,147.0,149.5,155.0,149.0" stroke="black" stroke-width="2" fill="none" />
<path d="M147.0,141.0,140.0,141.0,132.5,141.5,124.5,141.5,116.5,142.5" stroke="black" stroke-width="2" fill="none" />
<path d="M115.5,137.0,124.0,129.5,132.0,122.0" stroke="black" stroke-width="2" fill="none" />
<path d="M135.0,126.0,142.5,123.0,132.5,125.0,131.0,129.5,134.5,122.5,142.0,120.0,146.5,124.0,143.5,132.0,141.5,138.0,148.5,146.0,150.5,154.0,147.0,160.0,149.5,171.0,152.0,174.5,160.5,172.5,169.0,172.5,177.0,169.5,185.0,170.5,193.5,169.5,202.0,171.0,210.0,170.0,216.0,170.0,215.5,171.5" stroke="black" stroke-width="2" fill="none" />
<path d="M152.0,133.0,150.0,131.0,140.0,132.0,143.5,129.0,145.5,130.5,138.0,136.5,136.0,139.5" stroke="black" stroke-width="2" fill="none" />
<path d="M131.5,131.0,123.5,139.0" stroke="black" stroke-width="2" fill="none" />
<path d="M121.5,138.0,130.0,137.0" stroke="black" stroke-width="2" fill="none" />
<path d="M123.5,125.5,131.0,125.0,138.5,124.5" stroke="black" stroke-width="2" fill="none" />
<path d="M139.5,116.0,147.0,116.0" stroke="black" stroke-width="2" fill="none" />
<path d="M132.0,116.5,124.5,116.5,117.0,117.0" stroke="black" stroke-width="2" fill="none" />
<path d="M118.0,125.5,127.0,123.5,139.0,132.0,132.0,142.5,135.0,147.5,136.0,155.5,137.0,164.5,139.0,173.0,135.0,181.5,130.5,189.5,127.5,197.5,115.5,203.5,112.5,208.5,106.5,210.5,115.0,210.5,112.5,218.5,115.0,215.5,111.0,226.5,106.0,222.0,114.0,218.0" stroke="black" stroke-width="2" fill="none" />
<path d="M101.5,172.0,106.5,164.0,113.0,156.0,120.0,148.5,115.5,135.5,107.5,131.5,99.0,134.0" stroke="black" stroke-width="2" fill="none" />
<path d="M107.0,138.5,98.5,146.5,94.5,148.5" stroke="black" stroke-width="2" fill="none" />
<path d="M92.5,152.0,100.5,151.5,103.5,145.5,106.5,133.5,115.0,139.5,125.0,142.0" stroke="black" stroke-width="2" fill="none" />
<path d="M82.0,117.5,80.5,125.5,80.5,133.0,80.0,141.5,80.0,150.0,80.0,158.0,79.5,166.0,80.5,174.0,80.0,182.0,80.0,190.5,81.0,198.5,85.0,199.5,88.0,207.5,92.0,206.0,85.0,213.0,87.0,214.5,93.0,214.5,94.0,211.5" stroke="black" stroke-width="2" fill="none" />
<path d="M59.0,146.0,51.0,153.5,43.0,161.0,35.5,169.0,27.5,176.5,19.5,184.5,12.0,192.0,4.5,199.0" stroke="black" stroke-width="2" fill="none" />
<path d="M11.5,259.5,3.5,260.0" stroke="black" stroke-width="2" fill="none" />
<path d="M5.5,267.5,13.5,267.5" stroke="black" stroke-width="2" fill="none" />
<path d="M19.0,279.0,11.0,279.5,3.0,280.0" stroke="black" stroke-width="2" fill="none" />
<path d="M3.0,275.0,11.0,274.0" stroke="black" stroke-width="2" fill="none" />
<path d="M81.0,119.0,89.0,115.0,96.5,115.0,104.5,114.5,112.5,114.0,120.5,113.5,128.5,113.5,136.0,113.0,144.5,113.0,152.5,113.5,161.0,113.5,169.0,113.5,176.5,113.5,185.0,114.0,193.0,114.0,201.0,114.0,209.0,114.5" stroke="black" stroke-width="2" fill="none" />
<path d="M238.0,236.5,230.0,237.5,222.5,236.5,214.5,236.5,206.5,236.5,198.5,237.0,190.5,237.0,182.0,237.0,174.5,237.0,166.5,236.0,158.5,236.0,150.5,236.0,142.5,236.0,134.5,235.5,126.5,235.5,118.5,235.0,110.5,235.5,102.5,235.0,94.0,235.0,85.5,235.5,77.5,233.5,76.5,229.5,76.5,221.5,77.0,213.5,77.0,205.5,77.5,197.5,77.5,189.5,77.5,181.0,77.5,173.0,77.5,165.0,77.5,157.0,77.5,149.0,77.5,141.0,77.0,133.0,77.0,124.5,78.0,116.5" stroke="black" stroke-width="2" fill="none" />
<path d="M76.5,46.0,68.5,46.0,61.0,46.5,53.0,47.5,44.5,48.0,36.5,48.5,28.0,48.5,19.5,49.0,11.0,49.5,2.5,50.0" stroke="black" stroke-width="2" fill="none" />
<path d="M3.5,33.5,11.5,32.5,19.5,31.5,27.5,31.0,36.0,31.0,44.5,31.0,52.0,31.0,60.0,31.0,68.5,31.0,76.5,30.5,84.5,30.0,92.5,29.5" stroke="black" stroke-width="2" fill="none" />
<path d="M20.5,3.5,12.5,11.0,4.0,18.5" stroke="black" stroke-width="2" fill="none" />
<path d="M4.0,17.5,12.0,16.5,20.5,16.0,28.5,15.0,37.0,14.5,45.0,14.0,53.0,13.5,61.0,14.0,69.0,13.5,77.5,13.0,85.5,12.0,93.0,12.0,100.5,11.5,108.0,11.0,115.5,11.0" stroke="black" stroke-width="2" fill="none" />
<path d="M13.5,2.0,5.5,9.5" stroke="black" stroke-width="2" fill="none" />
<path d="M5.5,10.0,14.0,9.5,22.0,8.5,29.5,8.0,37.5,7.5,45.0,7.0,52.0,6.0,59.0,5.5,66.5,5.0,74.5,4.0,82.5,3.5,90.5,3.5,99.0,3.0,107.5,2.5,115.5,2.0,123.5,1.0" stroke="black" stroke-width="2" fill="none" />
<path d="M100.0,20.5,92.5,20.0,84.5,20.5,76.5,21.0,68.5,21.5,61.0,22.0,53.0,22.5,45.5,23.0,37.5,23.5,29.5,23.5,21.0,24.0,12.5,24.0,4.5,24.5" stroke="black" stroke-width="2" fill="none" />
<path d="M5.5,19.5,13.5,19.0,21.5,19.0,29.5,19.5,38.0,19.5,46.5,19.0,54.0,19.0,61.5,18.5,69.5,18.0,77.0,18.0,85.0,17.5,93.0,17.0,101.0,16.0,109.0,16.0,117.0,16.0,124.5,16.0,131.5,15.5,139.0,15.0,146.5,14.5,154.5,14.0,162.5,13.0,170.5,12.5,178.5,11.5,187.0,10.5,195.5,10.0,203.5,9.0,212.5,8.0,221.0,7.5,229.0,6.5,236.5,6.0,244.0,5.5,252.0,5.5,260.5,5.0,268.5,5.0,276.0,5.0,284.0,4.0,292.5,3.5,300.0,2.5,308.0,1.5,316.0,1.0,324.5,1.0,332.5,0.0,340.5,-0.5,349.0,-1.0,357.0,-1.0,365.0,-1.5,372.5,-1.5,379.5,-1.5,387.0,-1.5,395.0,-2.0,403.5,-3.0,411.5,-3.5,419.0,-4.0,426.5,-4.0,434.0,-4.0,441.5,-4.5,449.5,-5.0,457.0,-5.5,465.0,-6.0,473.5,-6.0,482.0,-6.0,489.5,-7.0,497.5,-8.0,506.0,-9.0,514.0,-10.0" stroke="black" stroke-width="2" fill="none" />
<path d="M516.0,-17.0,508.0,-17.0,500.0,-16.5,492.5,-16.0,484.0,-16.0,476.0,-15.5,468.0,-15.0,460.5,-14.0,452.5,-13.5,444.5,-13.0,436.0,-12.0,428.0,-11.5,420.0,-10.5,412.0,-10.5,404.0,-10.0,396.0,-9.5,388.0,-8.5,379.5,-8.0,371.0,-8.0,363.5,-8.0,355.5,-7.5,347.5,-7.5,340.0,-7.5,332.0,-7.0,324.5,-7.0,316.5,-6.0,308.0,-5.5,300.0,-4.5,292.0,-4.0,284.0,-3.0,275.5,-2.5,268.0,-1.5,260.5,-0.5,253.0,0.0,245.0,0.5,236.5,1.0,228.5,1.0,220.5,1.0,212.0,1.5,204.0,2.0,195.5,2.5,187.0,2.0,178.5,2.0,170.5,2.5,162.5,3.0,154.5,3.0,147.0,4.0,139.0,4.5,131.0,5.0,122.5,5.5,115.0,6.0,107.0,7.5,99.5,8.5,92.0,9.0,84.0,10.5,76.5,11.0,68.5,11.5,60.5,12.0,52.5,12.5,45.0,13.0,36.5,13.5,29.0,14.0,21.0,14.5,12.0,14.5,4.0,14.5" stroke="black" stroke-width="2" fill="none" />
<path d="M5.0,4.5,13.0,4.0,21.0,4.0,28.5,3.5,36.5,3.5,44.5,3.0,51.5,2.0,58.0,2.0,65.5,2.0,73.0,2.0,81.0,1.5,89.0,1.0,97.0,-0.5,105.0,-1.5,113.5,-3.5,122.0,-4.0,129.5,-5.0,138.0,-5.5,146.0,-6.0,154.5,-6.5,162.5,-6.5,170.5,-7.5,178.5,-8.0,186.5,-9.0,194.0,-9.5,201.5,-10.0,210.0,-10.5,218.5,-10.5,226.5,-10.5,234.0,-10.5,241.5,-11.0,249.5,-11.5,257.5,-12.0,265.5,-12.5,273.5,-13.0,281.5,-13.0,289.5,-13.0,297.5,-13.0,305.5,-13.5,314.0,-14.0,322.0,-14.5,330.0,-15.0,337.5,-16.0,345.5,-16.0,353.5,-16.5,361.5,-16.5,369.5,-17.5,378.0,-18.5,386.5,-20.0,395.0,-20.5,403.0,-21.5,411.5,-22.0,420.0,-22.0,428.0,-22.0,436.0,-22.0,444.0,-22.5,452.0,-23.5,460.5,-24.0,468.5,-25.0,476.5,-26.0,484.5,-26.5,492.0,-27.0,499.5,-27.5,507.0,-28.5,514.5,-29.0" stroke="black" stroke-width="2" fill="none" />
</svg>