<svg xmlns="http://www.w3.org/2000/svg" version="1.1"><path d="M131.0,229.5,117.0,237.5,115.0,245.5,114.0,254.0,111.5,262.0,110.5,270.0,109.0,278.0,107.0,286.0,94.5,294.5,91.5,302.5,98.5,311.0" stroke="black" stroke-width="2" fill="none" />
<path d="M101.0,310.0,109.0,309.5,116.5,308.5,124.0,308.0,131.0,307.0,139.0,306.5,147.5,306.0,156.0,305.5,164.5,305.0,172.5,304.5,180.5,304.0,188.5,303.5,196.5,303.0,204.5,303.0,212.5,303.0,220.0,302.5,227.5,302.0,235.5,301.5,244.0,300.5,252.5,299.5,261.0,299.0,268.5,298.5,276.0,298.5,283.5,298.5,290.5,298.0" stroke="black" stroke-width="2" fill="none" />
<path d="M291.0,299.0,283.0,306.0,275.0,314.0,267.0,322.0,259.0,330.0,250.5,337.5,242.5,345.5,234.0,353.0,226.0,360.5,217.5,368.0,209.5,375.5,201.5,382.5,194.0,390.0,186.5,397.5,178.5,405.0,170.0,412.0,161.5,419.0,153.5,425.5" stroke="black" stroke-width="2" fill="none" />
<path d="M156.5,436.0,164.5,428.0,172.0,420.0,180.0,412.5,188.0,405.0,196.5,397.0,204.5,389.5,212.5,382.5,220.5,375.5,228.0,368.5,235.0,361.0,242.5,354.0,251.0,346.0,259.0,338.5,267.0,330.5,275.0,323.0,283.5,315.5" stroke="black" stroke-width="2" fill="none" />
<path d="M281.5,324.5,273.5,332.5,266.5,340.5,259.0,348.5,251.0,356.0,243.5,363.5,236.0,371.0,228.5,378.0,220.5,385.5,212.5,392.5,205.0,400.0,196.5,408.0,188.5,415.5,180.5,423.0,172.5,430.5,165.0,437.0,156.5,444.0" stroke="black" stroke-width="2" fill="none" />
<path d="M155.0,451.5,163.0,444.5,171.5,437.0,180.0,430.0,188.5,422.5,197.0,415.5,205.0,408.0,213.0,400.5,221.0,393.0,229.0,385.0,237.5,377.5,245.0,370.0,253.0,362.5,260.5,354.5,268.0,346.5,276.0,339.0,284.0,332.0" stroke="black" stroke-width="2" fill="none" />
<path d="M283.0,340.0,275.5,347.0,268.0,354.0,260.5,361.0,252.5,369.0,245.0,377.5,237.0,384.5,229.5,392.0,221.5,400.0,213.0,408.0,204.5,415.0,196.5,422.5,188.5,430.0,180.0,438.0,172.0,446.0,164.0,453.5,155.0,461.0" stroke="black" stroke-width="2" fill="none" />
<path d="M155.0,476.5,163.5,469.0,171.5,462.0,179.5,454.5,187.5,447.0,196.0,440.0,204.0,432.0,212.0,424.0,220.0,416.0,228.5,408.5,236.0,400.5,244.5,393.0,252.5,385.0,261.0,378.0,269.5,370.5,278.5,363.0" stroke="black" stroke-width="2" fill="none" />
<path d="M276.5,356.0,268.0,363.5,259.5,370.5,251.0,378.5,243.0,386.0,234.5,393.5,227.0,401.0,219.5,408.5,211.0,416.5,202.5,424.5,194.5,432.5,187.0,439.5,179.0,446.5,171.0,454.0,163.0,461.5,155.5,468.5" stroke="black" stroke-width="2" fill="none" />
<path d="M164.0,475.5,171.5,468.0,179.0,461.0,187.0,453.0,195.0,445.0,202.5,437.5,210.5,430.5,219.0,423.0,227.5,415.5,235.5,408.0,244.0,400.5,252.0,393.0,260.0,385.5,268.0,377.5,276.5,370.0" stroke="black" stroke-width="2" fill="none" />
<path d="M275.5,377.5,267.5,385.5,259.5,393.0,251.5,401.0,243.0,408.5,235.0,416.0,226.5,423.5,218.5,431.0,210.5,439.0,202.5,446.5,194.0,454.0,186.5,461.5,179.5,469.5,171.5,476.0,163.0,482.5" stroke="black" stroke-width="2" fill="none" />
<path d="M164.5,491.0,172.5,483.5,180.0,476.0,187.5,469.0,195.5,461.5,203.0,454.0,210.5,446.0,218.5,438.5,226.5,430.5,234.5,423.0,242.5,416.0,251.0,409.0,259.5,402.0,267.5,395.0,275.5,388.0" stroke="black" stroke-width="2" fill="none" />
<path d="M276.0,397.0,268.0,404.0,260.0,411.0,252.0,418.0,244.0,425.5,236.5,433.0,228.5,440.0,221.0,447.0,213.5,454.0,205.5,461.0,197.0,468.5,189.0,476.0,180.5,483.5,172.0,491.5,164.0,499.5" stroke="black" stroke-width="2" fill="none" />
<path d="M173.0,500.0,180.5,499.5,187.5,498.5,195.5,498.0,203.5,497.0,211.5,496.0,219.5,495.5,227.5,494.5,236.0,493.5,244.5,492.5,252.0,491.5,260.0,491.0,268.0,490.5" stroke="black" stroke-width="2" fill="none" />
<path d="M267.5,492.0,259.5,499.5,252.0,506.5,244.0,514.0,236.0,521.5,228.5,529.5,220.0,536.5,212.0,543.5,203.5,550.5,195.5,558.0,187.5,565.0,179.5,572.5" stroke="black" stroke-width="2" fill="none" />
<path d="M181.5,569.0,189.0,568.5,197.0,567.5,204.5,566.5,212.5,565.5,220.5,564.5,228.0,564.0,236.0,563.5" stroke="black" stroke-width="2" fill="none" />
<path d="M253.0,558.0,260.5,550.0,268.0,542.5,276.0,535.0,284.5,527.5,292.5,520.0,300.5,513.0,308.5,506.0,316.0,499.0,323.5,492.0,331.0,484.5" stroke="black" stroke-width="2" fill="none" />
<path d="M325.0,482.0,316.5,489.5" stroke="black" stroke-width="2" fill="none" />
<path d="M314.5,484.0,306.5,491.5" stroke="black" stroke-width="2" fill="none" />
<path d="M309.0,498.0,300.5,505.5,292.5,513.5,285.0,522.0,277.0,529.5,269.0,537.5,261.5,545.5,254.0,553.5,246.0,561.0,237.5,567.5" stroke="black" stroke-width="2" fill="none" />
<path d="M277.0,566.5,284.5,559.0,291.5,551.0,299.0,543.5,307.0,536.5,315.5,529.5,323.0,522.5,331.0,515.0,339.0,507.5,347.0,500.5,354.5,493.5" stroke="black" stroke-width="2" fill="none" />
<path d="M355.0,498.0,363.0,490.0" stroke="black" stroke-width="2" fill="none" />
<path d="M364.0,484.0,372.0,483.5,380.0,483.5,388.0,483.5,396.0,483.0,403.5,482.5,412.0,482.0,420.5,481.5,428.5,481.0,436.5,481.0,444.5,480.5,452.0,480.0,460.0,479.5,467.5,479.0,475.5,478.5,484.0,478.0,491.5,477.0,499.0,475.5,506.5,474.0,514.5,473.5" stroke="black" stroke-width="2" fill="none" />
<path d="M437.0,468.5,429.0,476.5,421.0,484.0,413.0,492.0,404.5,500.0,396.0,507.5,388.0,514.5,380.0,521.0,372.0,528.0,364.0,535.5" stroke="black" stroke-width="2" fill="none" />
<path d="M380.5,539.5,389.0,532.5,397.0,525.0" stroke="black" stroke-width="2" fill="none" />
<path d="M397.0,517.0,388.5,525.0,380.5,532.5,372.5,540.0" stroke="black" stroke-width="2" fill="none" />
<path d="M356.5,537.0,364.0,529.0,372.0,521.5,380.0,514.0,388.5,506.0,396.5,498.5" stroke="black" stroke-width="2" fill="none" />
<path d="M411.5,499.5,419.5,492.5,427.0,485.0,435.0,477.5" stroke="black" stroke-width="2" fill="none" />
<path d="M429.0,468.0,421.0,475.5,413.0,483.0,404.5,490.5" stroke="black" stroke-width="2" fill="none" />
<path d="M403.5,483.0,412.0,475.5,420.5,467.5,428.5,459.5" stroke="black" stroke-width="2" fill="none" />
<path d="M425.5,459.0,423.5,467.0,435.0,474.5" stroke="black" stroke-width="2" fill="none" />
<path d="M428.5,472.0,421.0,472.5" stroke="black" stroke-width="2" fill="none" />
<path d="M421.0,475.5,429.0,477.0" stroke="black" stroke-width="2" fill="none" />
<path d="M421.0,481.0,412.5,481.0" stroke="black" stroke-width="2" fill="none" />
<path d="M418.5,485.0,426.5,484.0" stroke="black" stroke-width="2" fill="none" />
<path d="M432.5,471.0,425.0,467.0" stroke="black" stroke-width="2" fill="none" />
<path d="M430.5,462.0,422.5,457.0" stroke="black" stroke-width="2" fill="none" />
<path d="M428.0,452.5,436.0,452.0,443.5,451.5,451.5,451.0,459.0,450.5,466.5,450.5,475.0,450.5,483.5,450.0,491.5,450.0" stroke="black" stroke-width="2" fill="none" />
<path d="M508.5,389.5,516.5,389.0" stroke="black" stroke-width="2" fill="none" />
<path d="M516.0,380.0,508.0,380.5,499.0,381.0,491.0,381.0,483.5,381.0,475.5,381.5" stroke="black" stroke-width="2" fill="none" />
<path d="M466.0,373.5,474.5,373.0,483.0,373.0,491.5,372.5,499.5,372.0,508.0,372.0,516.0,371.0" stroke="black" stroke-width="2" fill="none" />
<path d="M515.5,361.0,507.5,362.0,499.5,363.0,492.0,364.0,484.0,365.0,476.0,366.0,469.0,366.5,461.0,367.0" stroke="black" stroke-width="2" fill="none" />
<path d="M450.5,355.5,458.5,355.0,466.0,355.0,474.0,354.5,482.0,354.0,490.0,354.0,498.0,354.0,506.5,354.0,514.5,354.0" stroke="black" stroke-width="2" fill="none" />
<path d="M517.5,292.0,509.0,292.0,500.5,293.0,492.5,293.5,484.5,294.0,476.0,294.5" stroke="black" stroke-width="2" fill="none" />
<path d="M476.0,285.5,484.5,285.0,492.5,284.5,500.5,284.0,508.0,283.5,515.5,283.0" stroke="black" stroke-width="2" fill="none" />
<path d="M515.0,262.5,506.5,263.0,498.5,264.0" stroke="black" stroke-width="2" fill="none" />
<path d="M493.5,252.0,501.5,251.5,509.0,251.5,516.5,251.0" stroke="black" stroke-width="2" fill="none" />
<path d="M518.0,243.0,510.0,243.5" stroke="black" stroke-width="2" fill="none" />
<path d="M516.5,275.5,508.5,276.5,500.5,277.5,492.5,278.5,484.5,279.0" stroke="black" stroke-width="2" fill="none" />
<path d="M482.5,271.5,490.5,270.5,499.0,270.0,507.5,269.5,516.0,268.5" stroke="black" stroke-width="2" fill="none" />
<path d="M516.0,297.5,508.0,298.5,500.0,299.0,492.0,299.0,484.0,299.0,475.5,299.0,467.0,299.5" stroke="black" stroke-width="2" fill="none" />
<path d="M460.0,310.0,468.0,309.0,476.5,308.0,484.5,307.0,492.5,306.0,500.5,305.5,508.5,305.0,516.5,304.5" stroke="black" stroke-width="2" fill="none" />
<path d="M515.0,321.0,507.0,321.0,499.5,321.5,491.5,321.5,483.5,322.0,475.0,323.5,467.0,324.5,459.0,325.0,451.0,325.5" stroke="black" stroke-width="2" fill="none" />
<path d="M453.5,318.5,461.5,318.0,469.0,317.0,476.5,316.5,484.5,316.5,492.0,315.5,500.0,314.5,508.5,314.0,516.5,313.0" stroke="black" stroke-width="2" fill="none" />
<path d="M517.0,344.5,509.0,345.0,501.0,346.0,493.0,346.5,484.5,347.0,476.5,347.5,468.5,348.0,460.0,348.5,451.5,349.5,443.5,350.0" stroke="black" stroke-width="2" fill="none" />
<path d="M443.5,342.0,451.0,341.5,459.0,341.5,467.0,341.0,475.5,340.5,484.5,340.0,492.5,340.0,501.0,339.5,508.5,339.0,516.0,339.0" stroke="black" stroke-width="2" fill="none" />
<path d="M516.5,329.5,509.5,330.5,501.5,331.0,493.0,331.0,485.0,331.0,476.5,331.5,468.5,331.0,460.0,331.0,451.5,331.0,443.5,331.0" stroke="black" stroke-width="2" fill="none" />
<path d="M400.5,421.0,415.5,429.0,422.5,437.0,422.5,445.5,418.5,454.0,407.0,462.0,399.5,470.5,384.5,478.5" stroke="black" stroke-width="2" fill="none" />
<path d="M386.5,482.0,378.5,489.5,371.0,496.5" stroke="black" stroke-width="2" fill="none" />
<path d="M371.5,490.5,363.5,498.0" stroke="black" stroke-width="2" fill="none" />
<path d="M362.0,507.0,354.5,514.5,347.5,522.5,339.5,529.0,331.0,535.5,323.0,543.0,315.0,550.5" stroke="black" stroke-width="2" fill="none" />
<path d="M338.5,543.0,346.0,535.5,354.0,528.5,362.0,521.0,370.0,513.5,378.0,506.0" stroke="black" stroke-width="2" fill="none" />
<path d="M373.0,505.5,365.0,513.0,356.5,520.5,348.0,528.5,340.0,536.5,331.5,544.5" stroke="black" stroke-width="2" fill="none" />
<path d="M332.5,523.5,325.0,531.0,316.5,538.5,308.0,546.0,300.0,553.5,292.0,561.0" stroke="black" stroke-width="2" fill="none" />
<path d="M300.0,560.0,307.5,552.5,315.0,545.5,323.5,538.0,331.5,531.0,339.5,523.5,347.5,516.0,356.0,509.0" stroke="black" stroke-width="2" fill="none" />
<path d="M347.0,507.5,339.0,514.5" stroke="black" stroke-width="2" fill="none" />
<path d="M339.5,514.0,348.0,514.0,356.5,513.5,364.5,513.0,372.5,512.5,380.5,512.0" stroke="black" stroke-width="2" fill="none" />
<path d="M388.0,489.0,396.5,482.0" stroke="black" stroke-width="2" fill="none" />
<path d="M397.5,476.0,405.5,475.0,413.5,475.0,421.0,474.5,428.5,474.5,436.0,474.5,444.0,474.0,452.0,473.5,460.5,473.0,468.5,473.0,476.0,472.5,484.5,472.0,492.5,471.5,500.5,471.0,508.0,470.5,515.5,470.0" stroke="black" stroke-width="2" fill="none" />
<path d="M451.0,443.5,443.0,444.0,435.0,445.0,427.5,445.5" stroke="black" stroke-width="2" fill="none" />
<path d="M411.5,445.5,403.0,453.0,395.0,460.0" stroke="black" stroke-width="2" fill="none" />
<path d="M396.5,461.0,404.5,460.0,412.5,459.5,421.0,459.0,429.0,459.0,437.0,458.5,444.5,458.5,451.5,458.5,459.0,458.5,467.0,458.0,475.5,457.0,483.5,456.5,491.0,456.0,498.5,456.0,506.0,456.0,513.5,455.5" stroke="black" stroke-width="2" fill="none" />
<path d="M515.5,462.0,508.0,463.0,500.5,464.0,493.0,465.0,484.5,465.5,476.0,465.5,468.5,466.0,460.5,466.5,453.0,466.5,445.0,467.0,437.0,467.5,429.0,468.0,420.5,469.0,412.0,469.0" stroke="black" stroke-width="2" fill="none" />
<path d="M401.5,459.5,409.5,452.5" stroke="black" stroke-width="2" fill="none" />
<path d="M412.5,456.0,404.5,457.5,397.0,458.0" stroke="black" stroke-width="2" fill="none" />
<path d="M401.5,455.5,399.5,457.5,400.0,465.5" stroke="black" stroke-width="2" fill="none" />
<path d="M388.5,459.0,396.5,451.5,404.5,444.0" stroke="black" stroke-width="2" fill="none" />
<path d="M412.0,436.5,404.0,437.0,396.5,437.0" stroke="black" stroke-width="2" fill="none" />
<path d="M394.0,440.5,402.0,441.5,409.0,437.0,410.0,444.5,409.0,447.5" stroke="black" stroke-width="2" fill="none" />
<path d="M419.5,451.0,411.5,452.0,404.0,453.0,396.0,453.5,388.5,454.0" stroke="black" stroke-width="2" fill="none" />
<path d="M381.0,458.5,373.0,465.5" stroke="black" stroke-width="2" fill="none" />
<path d="M380.0,466.0,372.0,473.5" stroke="black" stroke-width="2" fill="none" />
<path d="M377.0,474.0,385.0,466.5" stroke="black" stroke-width="2" fill="none" />
<path d="M389.5,467.5,381.5,468.0,373.5,468.5,364.5,469.0" stroke="black" stroke-width="2" fill="none" />
<path d="M362.0,468.5,370.0,472.5" stroke="black" stroke-width="2" fill="none" />
<path d="M365.0,462.0,372.5,461.0,380.5,460.5" stroke="black" stroke-width="2" fill="none" />
<path d="M380.0,444.0,372.0,444.5" stroke="black" stroke-width="2" fill="none" />
<path d="M372.0,437.5,363.5,438.0,355.5,438.5" stroke="black" stroke-width="2" fill="none" />
<path d="M355.0,442.0,372.0,450.0,387.5,458.0,397.0,466.0,404.5,458.5,409.5,465.0" stroke="black" stroke-width="2" fill="none" />
<path d="M420.0,444.5,412.0,444.5,404.5,444.5,396.5,444.0,389.0,444.5" stroke="black" stroke-width="2" fill="none" />
<path d="M393.5,447.0,387.5,445.5,390.5,437.5,392.5,440.5" stroke="black" stroke-width="2" fill="none" />
<path d="M382.0,435.0,378.0,444.5,386.0,450.5,399.0,447.5,401.5,443.0,404.5,451.0" stroke="black" stroke-width="2" fill="none" />
<path d="M400.0,465.5,391.5,458.0,383.0,453.0,375.0,450.5,366.5,445.5,358.5,442.5,350.5,440.0,342.5,438.0" stroke="black" stroke-width="2" fill="none" />
<path d="M339.5,443.0,330.5,443.5,323.0,444.0,314.5,444.0,306.0,445.0,297.5,445.5" stroke="black" stroke-width="2" fill="none" />
<path d="M302.5,447.5,305.0,454.5,311.5,468.5,323.5,476.5,332.5,485.0,337.5,495.0,334.5,502.5,326.5,510.0,325.5,519.5,318.5,529.0" stroke="black" stroke-width="2" fill="none" />
<path d="M323.5,514.0,315.5,521.5,308.0,529.0,300.0,536.5,291.0,544.5,283.0,552.0,274.5,559.0,267.0,566.0" stroke="black" stroke-width="2" fill="none" />
<path d="M249.0,573.5,256.5,566.5,265.0,559.0,273.5,551.5,282.0,544.0,290.5,536.0,299.5,528.5,308.0,521.5,317.0,513.5,324.5,506.0" stroke="black" stroke-width="2" fill="none" />
<path d="M325.0,500.0,333.0,492.5" stroke="black" stroke-width="2" fill="none" />
<path d="M332.0,491.0,323.5,491.5,315.5,492.0,307.5,493.0,299.0,494.0,291.0,494.5,283.0,495.5" stroke="black" stroke-width="2" fill="none" />
<path d="M280.0,497.5,288.0,501.5" stroke="black" stroke-width="2" fill="none" />
<path d="M283.5,502.0,291.5,501.5,299.5,500.5,307.5,500.0,315.5,499.0,323.5,499.0" stroke="black" stroke-width="2" fill="none" />
<path d="M318.0,502.0,310.0,502.5,302.5,493.5,294.5,490.5" stroke="black" stroke-width="2" fill="none" />
<path d="M300.0,498.0,292.0,505.5,283.5,513.0,275.5,520.5,267.5,528.0,260.0,536.0,251.5,544.5,243.5,552.0,236.0,560.0,228.0,567.0" stroke="black" stroke-width="2" fill="none" />
<path d="M268.5,553.5,276.5,546.0,284.5,538.5,292.0,530.5,299.5,523.0,307.0,515.0,314.5,507.0" stroke="black" stroke-width="2" fill="none" />
<path d="M315.5,500.0,322.5,507.5,326.0,510.5,334.0,502.5,342.0,498.5,350.0,500.0,358.0,502.5,366.5,503.5,374.5,501.5,383.0,501.0" stroke="black" stroke-width="2" fill="none" />
<path d="M373.0,487.5,394.5,479.5,407.0,471.5,416.5,464.0,422.5,456.0,425.5,448.0,420.5,459.0,412.5,467.5,404.5,473.5,396.5,478.0,388.5,483.0,380.0,486.0,372.0,488.5,363.5,491.5,355.5,492.5,347.0,494.0" stroke="black" stroke-width="2" fill="none" />
<path d="M340.0,493.0,347.5,493.0,356.0,492.5,364.5,492.0,372.5,491.5,381.0,491.0,389.5,491.0,398.0,490.5,406.0,490.0,414.0,490.0,421.5,489.5,429.5,489.0,437.0,488.0,444.5,487.5,452.5,487.5,460.0,486.5,468.0,485.5,476.5,485.0,484.5,484.0,493.0,483.5,501.0,483.0,509.0,482.5,516.5,482.5" stroke="black" stroke-width="2" fill="none" />
<path d="M517.0,491.0,509.0,491.0,500.5,491.0,493.0,491.0,485.0,491.5,477.0,492.0,469.0,493.0,461.0,493.5,452.5,494.0,444.5,494.5,436.5,495.0,428.0,495.5,419.5,496.5,411.5,497.0,404.0,497.5,396.5,498.0,388.5,498.0,381.0,498.5,372.5,499.5,365.0,499.5,357.0,500.0,349.0,501.0,340.5,501.5,332.0,502.0" stroke="black" stroke-width="2" fill="none" />
<path d="M333.5,507.5,341.5,508.0,343.0,506.0" stroke="black" stroke-width="2" fill="none" />
<path d="M336.5,493.5,344.5,497.5,353.0,498.5,361.5,498.0,370.0,497.5,378.5,496.0,386.5,493.0,394.5,487.5,402.5,478.5,396.0,487.0,384.0,495.0,388.0,497.0,393.5,496.5,401.5,488.5,403.5,485.5,398.0,493.5" stroke="black" stroke-width="2" fill="none" />
<path d="M347.5,476.5,340.0,477.0,332.0,477.5,324.0,478.0,316.0,478.5" stroke="black" stroke-width="2" fill="none" />
<path d="M308.0,471.5,316.0,471.0,323.5,470.0,331.5,469.0,340.0,468.0" stroke="black" stroke-width="2" fill="none" />
<path d="M332.5,460.5,325.0,461.5,317.0,463.0,309.5,463.5" stroke="black" stroke-width="2" fill="none" />
<path d="M306.0,463.5,314.0,469.5,322.0,474.5,330.5,480.0,338.5,485.0,347.0,485.0,354.5,484.5,362.5,482.5,370.5,481.0,378.0,477.0,385.5,473.5" stroke="black" stroke-width="2" fill="none" />
<path d="M365.0,449.5,357.0,450.5,349.0,451.5,341.0,452.0,332.5,453.0,323.5,453.0,315.0,453.5,307.0,453.5,299.0,454.0" stroke="black" stroke-width="2" fill="none" />
<path d="M304.0,454.5,312.0,449.5,320.0,449.5,328.0,450.0,336.5,451.0,344.5,452.0,352.5,454.5,360.5,457.5,368.5,461.5" stroke="black" stroke-width="2" fill="none" />
<path d="M382.0,448.5,372.0,440.5,371.0,432.5,367.0,429.5,359.5,427.5,351.5,427.5,343.0,428.5,334.5,430.0,326.5,430.0" stroke="black" stroke-width="2" fill="none" />
<path d="M330.5,430.0,338.5,429.5,346.5,428.5,354.0,428.0,362.0,427.5" stroke="black" stroke-width="2" fill="none" />
<path d="M365.0,439.5,356.5,439.0,348.5,437.0" stroke="black" stroke-width="2" fill="none" />
<path d="M340.0,446.0,363.0,454.5,380.0,462.5,391.0,471.0,373.5,478.5" stroke="black" stroke-width="2" fill="none" />
<path d="M340.0,472.0,331.5,472.5,324.0,473.0,316.0,473.5,308.0,473.5,300.0,473.5,292.0,474.0,284.0,474.5,276.5,475.5,268.5,476.5,260.5,477.0,252.5,478.0,245.0,479.0,237.0,479.5,228.5,480.0,220.5,480.5,212.0,481.0,204.0,481.5,196.5,482.0,188.5,482.5,180.5,483.0,172.5,483.0,164.0,483.5,155.5,483.5,147.5,484.0,139.5,484.0,131.0,484.5" stroke="black" stroke-width="2" fill="none" />
<path d="M131.0,476.0,139.0,475.5,147.0,475.0,155.5,475.0,163.5,475.0,172.0,474.5,180.5,474.5,189.0,474.5,197.0,473.5,205.5,472.5,213.5,472.0,221.5,472.0,229.0,472.0,237.0,471.5,245.0,471.5,252.5,471.0,260.5,470.5,268.5,469.5,277.0,468.5,285.0,467.5,292.5,467.0" stroke="black" stroke-width="2" fill="none" />
<path d="M284.5,460.5,277.0,461.0,268.5,461.0,260.5,461.5,252.0,461.5,243.5,462.0,235.0,462.5,226.5,462.5,218.5,462.5,210.5,462.5,203.0,463.5,194.5,464.5,186.5,466.0,178.5,467.5,170.5,468.0,162.0,468.5,154.5,468.5,147.0,469.0,139.5,469.5,132.0,470.5" stroke="black" stroke-width="2" fill="none" />
<path d="M131.0,463.0,139.0,462.0,147.0,461.5,154.5,460.5,162.0,459.5,170.5,458.5,178.0,457.5,186.0,456.5,194.5,456.0,203.0,455.5,211.5,455.0,219.0,455.0,227.0,454.5,235.0,454.5,243.0,454.0,251.5,454.0,259.5,454.0,267.5,454.0,275.5,453.5" stroke="black" stroke-width="2" fill="none" />
<path d="M272.5,457.5,280.5,465.5,288.5,472.5" stroke="black" stroke-width="2" fill="none" />
<path d="M280.0,474.0,288.0,476.0,296.0,479.5,304.0,484.0" stroke="black" stroke-width="2" fill="none" />
<path d="M314.0,478.5,306.0,468.0" stroke="black" stroke-width="2" fill="none" />
<path d="M306.0,466.5,314.5,474.5,326.0,482.0,330.0,490.0,325.5,498.5" stroke="black" stroke-width="2" fill="none" />
<path d="M324.0,512.0,315.0,512.5,307.0,512.5,299.0,512.5,291.0,513.0" stroke="black" stroke-width="2" fill="none" />
<path d="M282.0,507.5,275.0,515.0,267.5,522.5,259.5,530.5,251.0,539.0,242.5,547.0,235.0,554.5,227.5,561.5,219.5,569.5" stroke="black" stroke-width="2" fill="none" />
<path d="M201.0,574.0,209.5,567.0,218.0,559.5,227.0,552.0,235.0,545.0,243.5,537.5,251.0,530.5,259.0,523.0,267.0,515.0,275.0,507.5" stroke="black" stroke-width="2" fill="none" />
<path d="M266.5,506.0,259.0,514.0,251.0,522.0,243.5,530.0,236.0,537.0,228.5,545.0,220.0,552.5,212.0,560.5,204.0,568.0,195.5,576.0" stroke="black" stroke-width="2" fill="none" />
<path d="M187.0,574.5,195.0,567.0,203.5,559.5,211.5,552.0,219.5,544.0,227.5,536.5,235.0,528.0,243.0,520.5,251.0,513.0,259.0,505.5,267.5,497.5" stroke="black" stroke-width="2" fill="none" />
<path d="M268.0,508.5,260.5,509.0,252.0,510.0,243.5,510.0,235.0,510.0,227.0,510.0,219.0,510.0,211.0,511.0,203.0,511.5,194.5,512.5,186.5,513.0,178.5,514.0" stroke="black" stroke-width="2" fill="none" />
<path d="M177.5,520.0,185.5,519.5,193.5,519.0,201.5,518.5,209.5,518.0,217.5,518.0,225.5,518.0,233.5,518.0,241.5,517.5,250.0,517.0,258.0,516.5,266.0,516.0,273.5,515.0,281.5,515.0,289.5,514.5,297.5,514.5,305.5,513.5,314.0,512.5,322.5,511.0" stroke="black" stroke-width="2" fill="none" />
<path d="M326.5,513.0,334.5,511.5,342.5,512.5,350.5,511.5,358.0,510.5,366.0,509.0,374.0,507.5,382.5,504.5,390.5,501.0,398.0,495.0,391.0,500.5,373.0,508.5" stroke="black" stroke-width="2" fill="none" />
<path d="M336.5,489.5,344.5,488.5,352.5,488.0,361.0,486.0,369.0,484.5,377.5,482.0,385.5,478.5,393.5,474.0,402.0,470.0" stroke="black" stroke-width="2" fill="none" />
<path d="M412.0,447.0,404.0,439.5,396.0,438.5,388.5,441.5,380.0,443.0,372.0,440.0,363.5,435.5,355.0,434.5,347.0,435.0,339.0,436.5,338.0,433.5,330.0,434.5,321.5,438.5,313.5,436.5,305.5,436.0" stroke="black" stroke-width="2" fill="none" />
<path d="M298.5,438.5,291.0,438.5" stroke="black" stroke-width="2" fill="none" />
<path d="M293.0,437.5,301.0,430.5,308.5,427.0,316.5,426.0,324.0,424.5,332.0,423.5,340.0,423.5" stroke="black" stroke-width="2" fill="none" />
<path d="M331.0,443.5,322.5,450.5" stroke="black" stroke-width="2" fill="none" />
<path d="M323.0,443.0,315.0,451.0,307.0,459.5" stroke="black" stroke-width="2" fill="none" />
<path d="M303.0,464.5,310.5,469.0,319.0,476.5,327.0,481.5" stroke="black" stroke-width="2" fill="none" />
<path d="M316.5,450.0,308.5,450.5" stroke="black" stroke-width="2" fill="none" />
<path d="M306.5,449.5,314.5,441.5" stroke="black" stroke-width="2" fill="none" />
<path d="M304.5,426.5,294.0,434.5,293.0,424.5,301.5,421.0,309.5,418.0,317.5,418.0,325.0,417.0,333.0,417.0" stroke="black" stroke-width="2" fill="none" />
<path d="M306.5,416.0,289.5,424.0,284.0,432.0,279.0,441.5,279.0,449.5,284.0,457.5,285.5,465.0,294.5,473.5,300.0,480.5,314.5,486.0" stroke="black" stroke-width="2" fill="none" />
<path d="M319.0,486.5,312.0,478.5,306.0,470.5,302.0,463.0,300.0,455.0,306.0,446.5,298.0,445.5,290.0,448.5" stroke="black" stroke-width="2" fill="none" />
<path d="M281.5,450.0,289.5,466.0,297.5,474.5" stroke="black" stroke-width="2" fill="none" />
<path d="M283.0,480.5,291.0,483.5,299.5,486.5,307.0,488.5,315.0,492.5,323.0,498.0" stroke="black" stroke-width="2" fill="none" />
<path d="M315.5,531.0,307.0,531.0,299.5,531.0,291.5,531.5,283.5,531.5,276.0,531.5,268.0,532.0,260.5,532.0,252.5,533.0,244.0,533.5,236.0,534.5,228.0,535.0,220.0,536.0,211.5,536.5,204.0,537.5,196.5,538.5,189.0,539.0,181.0,539.5" stroke="black" stroke-width="2" fill="none" />
<path d="M181.0,547.0,188.5,546.0,196.5,545.5,204.0,544.5,212.5,544.0,221.0,543.5,229.0,542.5,237.0,542.0,245.0,541.5,253.0,541.0,261.0,541.0,268.5,540.5,276.5,539.0" stroke="black" stroke-width="2" fill="none" />
<path d="M271.0,542.0,268.5,546.0,263.5,554.0,252.5,562.0,233.5,570.0" stroke="black" stroke-width="2" fill="none" />
<path d="M243.5,577.5,235.5,578.0,227.0,578.5,219.5,578.5,212.0,579.5,204.5,580.0,197.0,581.0,189.0,582.0,181.5,582.5" stroke="black" stroke-width="2" fill="none" />
<path d="M176.0,581.5,184.5,581.0,192.5,581.0,200.5,580.5,208.0,579.5,216.0,578.5,224.0,577.0" stroke="black" stroke-width="2" fill="none" />
<path d="M253.5,555.5,246.0,556.0,238.0,556.5,229.5,557.5,221.0,558.5,213.5,559.0,205.0,559.5,196.5,560.0,188.0,560.5,180.5,561.0" stroke="black" stroke-width="2" fill="none" />
<path d="M178.0,564.0,186.0,556.5,194.0,549.0,202.0,541.5,210.0,534.0,218.5,526.5,227.5,518.5,236.5,511.0,244.5,504.0,251.5,497.0,259.5,490.0,267.5,483.0,275.5,475.0" stroke="black" stroke-width="2" fill="none" />
<path d="M268.0,474.5,260.0,474.5,252.0,475.0,244.0,475.5,236.5,476.5,228.5,477.5,220.5,478.0,212.5,479.0,205.0,480.0,197.0,480.5,188.5,481.0,180.5,481.5,172.0,482.0" stroke="black" stroke-width="2" fill="none" />
<path d="M173.5,473.0,181.5,473.0,189.0,473.0,197.0,472.5,205.0,472.5,212.5,472.0,220.5,471.5,228.5,470.5,237.0,469.5,245.0,468.5,252.5,468.0,261.5,467.5,269.5,467.0" stroke="black" stroke-width="2" fill="none" />
<path d="M276.0,466.0,268.0,473.5,259.5,481.0,251.5,488.5,243.5,495.0,235.5,502.5,227.0,510.0,219.0,518.5,211.0,526.5,203.5,533.5,196.0,541.0,188.0,548.5,179.5,555.5,171.5,562.5" stroke="black" stroke-width="2" fill="none" />
<path d="M165.0,561.5,172.5,554.5,181.0,547.5,189.0,540.5,197.0,533.5,205.0,525.5,213.0,518.0,220.5,510.5,228.0,503.0,236.0,495.5,243.5,488.0,251.5,481.5,259.5,474.5,267.5,467.5,275.0,459.5" stroke="black" stroke-width="2" fill="none" />
<path d="M274.0,459.5,282.0,467.5,291.5,475.0" stroke="black" stroke-width="2" fill="none" />
<path d="M281.5,480.0,303.5,488.0,318.5,496.5" stroke="black" stroke-width="2" fill="none" />
<path d="M322.5,520.5,315.0,521.5,307.0,522.0,299.0,522.5,291.0,523.0,283.5,523.0,275.0,523.5,266.5,524.0,258.5,524.0,251.0,524.5,243.5,525.5,235.5,526.0,227.5,527.0,220.0,527.5,212.0,528.0,204.0,527.5,196.0,527.5,188.0,528.0,179.5,528.5" stroke="black" stroke-width="2" fill="none" />
<path d="M163.5,542.0,171.0,534.5,179.0,526.0,187.0,518.0,195.0,510.5,203.0,503.5,211.0,496.0,219.5,488.5,227.5,480.5,235.5,473.0,243.5,465.5,251.5,458.0,259.0,450.5,266.5,443.5" stroke="black" stroke-width="2" fill="none" />
<path d="M267.5,451.0,260.0,458.5,252.0,466.5,244.0,474.5,235.5,482.0,227.5,489.0,219.5,496.5,211.5,504.0,204.0,511.0,197.0,517.5,189.0,525.0,180.5,532.5,171.5,541.0,163.0,548.5" stroke="black" stroke-width="2" fill="none" />
<path d="M163.5,555.5,172.0,548.5,181.0,540.5,188.5,533.0,197.0,526.0,204.5,518.5,212.0,511.5,220.0,504.0,227.5,497.0,235.5,489.5,244.0,482.0,252.0,474.5,259.5,467.0,266.5,459.5" stroke="black" stroke-width="2" fill="none" />
<path d="M268.5,459.5,260.5,460.0,253.0,461.0,244.5,461.5,237.0,462.0,228.5,462.0,220.5,462.5,212.0,462.5,203.5,463.0,195.0,463.5,186.5,463.5,178.5,463.5,170.5,463.5" stroke="black" stroke-width="2" fill="none" />
<path d="M171.5,456.0,179.0,456.0,187.0,455.5,195.0,455.5,203.0,455.0,211.5,455.0,219.5,455.0,227.5,455.0,235.5,454.5,243.5,454.0,251.5,453.5,259.5,453.0,268.0,452.5" stroke="black" stroke-width="2" fill="none" />
<path d="M268.5,444.5,260.0,445.0,251.5,445.0,243.5,445.5,236.0,446.0,228.0,447.0,220.0,447.5,212.0,448.0,203.5,448.0,195.0,448.0,187.0,448.0,178.5,447.5,170.5,448.0" stroke="black" stroke-width="2" fill="none" />
<path d="M169.5,442.0,178.0,441.0,186.0,441.0,194.5,440.5,203.5,440.0,212.0,439.5,220.0,439.5,228.0,438.5,236.0,437.5,244.0,437.0,252.0,436.0,259.5,436.0,268.0,435.5" stroke="black" stroke-width="2" fill="none" />
<path d="M268.0,434.5,260.0,442.0,252.0,450.0,243.5,458.0,235.0,466.0,226.5,474.0,218.5,481.5,210.5,488.5,202.5,496.0,194.5,502.5,186.5,510.0,179.0,518.0,171.5,526.0,164.0,533.5" stroke="black" stroke-width="2" fill="none" />
<path d="M163.0,525.0,170.5,517.5,178.5,510.5,186.5,503.0,194.5,495.5,202.5,487.5,211.0,480.5,219.5,473.5,227.5,466.5,236.5,458.5,245.0,450.5,253.0,443.0,261.0,435.5,269.0,428.0" stroke="black" stroke-width="2" fill="none" />
<path d="M268.5,421.0,260.0,428.0,251.5,435.0,243.5,442.5,235.5,450.5,227.5,458.0,219.5,465.0,211.0,471.5,203.0,478.5,194.5,485.5,186.5,492.5,178.5,500.5,170.5,508.5,162.5,516.5" stroke="black" stroke-width="2" fill="none" />
<path d="M165.0,509.0,172.5,500.5,180.5,492.5,189.0,485.0,196.5,477.5,204.5,470.0,212.5,463.0,219.5,455.5,227.5,448.5,235.0,441.5,242.5,434.0,250.0,427.0,257.0,419.5,265.0,412.0" stroke="black" stroke-width="2" fill="none" />
<path d="M269.0,428.0,260.5,428.5,252.0,429.0,244.5,429.5,236.0,430.0,227.5,430.5,219.0,431.0,210.5,432.0,202.5,432.5,194.5,432.5,186.5,432.5,179.0,433.0,171.5,433.5" stroke="black" stroke-width="2" fill="none" />
<path d="M171.0,426.0,179.5,425.5,187.5,424.5,195.5,424.0,202.5,423.5,210.5,423.0,218.5,422.5,227.0,422.0,235.0,422.0,242.5,422.0,250.5,421.0,258.5,420.5,266.5,419.5" stroke="black" stroke-width="2" fill="none" />
<path d="M268.0,412.5,260.0,413.0,252.0,413.5,244.0,414.0,235.5,414.5,228.0,415.5,220.5,416.0,212.5,417.0,204.5,417.0,196.5,417.5,188.0,417.5,180.0,417.5,172.5,417.5" stroke="black" stroke-width="2" fill="none" />
<path d="M173.5,410.5,181.5,410.0,189.5,409.5,198.0,409.0,205.5,409.0,214.0,409.0,221.5,408.5,229.0,408.5,236.5,408.0,244.0,407.0,252.0,406.5,260.0,406.0,267.5,405.0" stroke="black" stroke-width="2" fill="none" />
<path d="M268.5,395.5,260.5,396.5,252.5,397.0,244.5,397.5,236.5,397.5,228.0,398.0,219.5,399.0,211.5,400.0,203.0,401.0,195.0,401.5,187.0,401.5,178.5,401.5,170.0,402.0,162.0,402.0" stroke="black" stroke-width="2" fill="none" />
<path d="M154.5,402.5,163.0,395.5,171.5,388.0,179.5,380.5,187.0,373.5,195.0,366.5,203.0,358.5,211.0,351.0,219.0,344.0,226.5,337.0,234.5,330.0,243.0,323.0,251.0,315.0,259.5,307.5,267.5,299.5,276.0,292.0" stroke="black" stroke-width="2" fill="none" />
<path d="M275.5,284.0,268.0,291.5,260.0,299.0,252.5,306.5,245.0,314.0,237.0,321.0,228.5,328.5,220.5,335.5,212.5,343.5,205.0,351.0,196.5,358.5,189.0,366.0,180.5,373.5,172.0,381.0,164.0,388.5,156.0,396.0" stroke="black" stroke-width="2" fill="none" />
<path d="M157.0,393.0,164.5,392.5,172.0,392.5,179.5,392.5,186.5,392.0,194.0,391.0,202.5,390.5,210.5,390.0,218.5,389.0,226.5,388.5,235.0,388.0,243.0,387.5,251.0,387.5,259.0,387.5,268.0,387.0" stroke="black" stroke-width="2" fill="none" />
<path d="M268.5,379.0,259.5,380.0,251.0,381.0,242.5,381.5,235.0,381.5,226.5,382.0,218.5,382.5,210.5,383.0,203.0,383.5,195.5,384.0,187.0,384.5,178.0,385.0,169.5,385.0,161.5,385.0,153.0,385.5" stroke="black" stroke-width="2" fill="none" />
<path d="M148.0,387.0,155.5,379.0,163.5,371.5,171.5,364.0,180.0,356.5,188.0,349.0,196.0,341.5,204.0,334.5,211.5,327.5,219.5,320.0,227.5,312.5,235.0,305.5,243.0,299.0,250.5,291.5,258.0,283.5,265.5,275.5" stroke="black" stroke-width="2" fill="none" />
<path d="M267.0,269.0,259.0,276.5,251.5,283.5,243.5,290.5,236.5,298.5,228.5,306.0,220.0,313.0,211.5,320.0,203.0,327.0,195.0,334.5,187.0,342.0,179.0,349.0,171.0,357.0,163.0,365.0,155.0,373.0,146.5,380.5" stroke="black" stroke-width="2" fill="none" />
<path d="M146.5,374.0,155.0,366.0,163.5,357.5,171.5,349.5,179.0,342.0,186.0,334.5,194.5,327.5,202.5,319.5,210.5,312.5,219.0,305.5,227.0,298.0,235.0,290.5,243.0,283.0,251.5,275.5,259.5,268.0,268.0,260.5" stroke="black" stroke-width="2" fill="none" />
<path d="M265.5,252.5,257.5,260.0,249.5,267.5,241.5,275.0,234.5,282.0,226.5,289.5,219.0,296.5,211.0,304.5,203.0,312.0,195.0,319.5,187.0,327.0,179.5,334.0,172.0,341.0,164.5,348.0,156.5,356.0,149.0,364.5" stroke="black" stroke-width="2" fill="none" />
<path d="M155.0,362.0,163.5,361.5,171.0,360.5,179.5,359.5,187.5,358.0,195.0,357.5,203.0,357.5,211.0,358.0,219.5,358.0,228.0,357.5,236.0,357.0,244.5,356.5,252.5,356.5,260.0,356.0,267.5,355.5,276.0,355.0" stroke="black" stroke-width="2" fill="none" />
<path d="M283.5,297.5,275.5,305.0,267.5,312.5,259.5,320.0,251.5,327.5,243.0,335.0,235.0,342.0,227.0,349.5,219.0,357.0,212.0,365.0,204.5,373.0,196.0,380.0,187.5,387.5,179.5,395.5,171.5,403.5,163.5,412.0,155.5,419.5" stroke="black" stroke-width="2" fill="none" />
<path d="M155.5,411.5,163.0,404.0,171.0,395.5,179.0,387.5,187.0,379.5,194.5,372.5,202.5,365.0,210.5,357.5,219.5,350.0,227.5,342.0,235.0,334.5,243.0,327.5,251.0,320.0,259.0,313.0,267.5,305.5,275.5,298.5,284.0,291.5" stroke="black" stroke-width="2" fill="none" />
<path d="M284.0,303.5,276.0,303.5,268.5,303.5,260.0,304.5,252.0,304.5,243.5,305.0,235.0,306.0,227.0,306.5,219.0,307.0,211.0,307.5,203.0,308.0,195.5,309.0,188.0,309.5,180.0,309.5,172.0,309.5,164.5,310.0,156.5,310.5,148.5,310.5,140.5,311.5,132.0,312.0,123.5,312.0,115.5,312.0,107.0,312.5" stroke="black" stroke-width="2" fill="none" />
<path d="M108.0,310.5,116.5,303.0,124.5,295.0,132.5,287.0,141.0,279.5,149.0,272.0,157.0,264.0,164.5,256.5,172.5,249.5,180.0,242.0,188.0,234.5,195.5,227.0" stroke="black" stroke-width="2" fill="none" />
<path d="M203.0,226.0,195.0,233.5,187.0,241.0,179.5,249.0,171.5,256.5,163.5,264.5,156.0,272.0,148.5,279.0,141.0,286.5,134.0,294.5,126.5,302.0,117.5,309.5" stroke="black" stroke-width="2" fill="none" />
<path d="M124.0,318.0,132.0,311.0,140.0,304.0,148.5,296.0,156.5,288.0,164.0,280.5,172.0,273.0,180.0,266.0,188.0,259.0,196.0,251.0,204.0,243.5,212.5,236.0,220.0,228.0" stroke="black" stroke-width="2" fill="none" />
<path d="M226.0,230.0,217.5,237.0,209.5,244.0,202.0,251.0,194.0,258.0,186.0,265.5,179.0,272.0,171.5,279.0,164.0,286.0,156.0,293.5,148.0,301.0,140.0,308.5,131.5,316.0" stroke="black" stroke-width="2" fill="none" />
<path d="M138.5,319.5,146.5,318.5,154.5,318.0,162.5,317.0,170.0,316.5,177.5,316.0,186.0,315.5,194.5,315.5,202.5,315.5,210.0,315.5,217.5,315.0,225.5,314.5,233.5,314.0,241.5,313.5,249.5,313.0,257.5,313.0,265.5,313.0,273.5,313.0,281.5,312.5" stroke="black" stroke-width="2" fill="none" />
<path d="M275.5,337.5,268.0,338.5,260.5,339.0,253.0,340.0,245.0,341.0,237.5,341.5,229.5,342.0,221.0,342.0,213.0,342.0,204.5,342.0,196.5,342.0,188.0,343.0,179.5,344.0,171.0,345.0,163.5,345.5,155.5,346.5" stroke="black" stroke-width="2" fill="none" />
<path d="M156.0,352.0,164.0,352.0,172.0,351.5,180.0,351.5,189.0,351.5,197.5,351.5,205.5,351.5,213.0,351.0,221.0,351.0,229.0,350.5,237.0,350.0,245.0,349.5,252.5,349.0,259.5,348.5,267.0,348.0,274.5,347.0" stroke="black" stroke-width="2" fill="none" />
<path d="M267.5,370.0,259.5,371.0,251.5,371.5,243.5,372.5,235.5,373.0,228.0,373.5,220.0,374.0,211.5,374.0,203.5,374.0,195.0,374.5,187.0,375.0,179.0,375.5,171.5,376.0,163.5,376.5,155.5,377.0" stroke="black" stroke-width="2" fill="none" />
<path d="M156.0,369.0,164.5,369.0,172.5,368.0,180.5,367.5,188.5,366.5,196.5,366.0,204.0,366.5,212.0,366.5,219.5,366.5,227.5,366.5,235.0,366.5,243.0,365.5,251.0,365.0,259.5,364.0,267.5,363.0,275.5,362.5" stroke="black" stroke-width="2" fill="none" />
<path d="M277.5,328.5,269.0,329.5,261.5,330.0,253.0,330.5,244.5,331.0,236.0,331.5,228.5,332.0,220.5,332.5,212.5,333.0,204.0,333.0,196.0,334.0,188.5,334.5,179.5,335.5,171.5,336.5,163.0,337.5,154.0,338.0,146.0,338.5" stroke="black" stroke-width="2" fill="none" />
<path d="M139.5,338.5,147.5,331.0,155.5,323.5,163.5,316.0,171.5,308.5,179.0,301.0,186.5,293.5,195.0,286.5,203.0,279.5,211.5,272.0,219.0,265.0,227.0,257.0,235.0,249.0,243.5,241.5,251.5,234.0" stroke="black" stroke-width="2" fill="none" />
<path d="M251.5,230.5,264.5,238.5,267.5,246.0,268.5,254.0,270.0,262.0,271.0,270.0,271.5,278.0,273.0,285.5,284.5,293.5,286.5,301.5,284.5,309.5,282.5,317.5,282.0,326.0,281.0,334.0,279.0,342.0,278.0,349.5,276.0,357.5,275.0,365.5,273.0,373.5,271.5,381.5,271.5,389.5,271.5,398.0,272.0,406.0,271.0,414.0,272.5,422.0,271.0,430.0,270.5,437.5,271.5,445.5,271.5,453.5,270.0,461.5,269.0,469.5,270.5,477.5,270.5,485.5,270.5,494.0,270.5,502.5,272.5,508.5,280.0,507.5,288.0,506.0,296.0,503.0,303.0,499.0" stroke="black" stroke-width="2" fill="none" />
<path d="M268.5,483.0,261.0,483.5,253.0,484.0,245.5,484.0,237.5,484.5,229.0,485.5,220.5,486.5,212.0,487.5,203.5,488.0,195.5,488.5,187.0,489.5,178.5,490.0" stroke="black" stroke-width="2" fill="none" />
<path d="M171.0,506.5,179.5,506.0,188.0,505.0,196.0,504.0,204.5,503.0,212.5,502.5,221.0,501.5,228.5,501.5,236.5,501.0,245.0,500.0,253.5,499.5,261.0,499.5,269.0,499.0" stroke="black" stroke-width="2" fill="none" />
<path d="M268.5,547.0,260.5,548.0,252.0,548.0,244.0,548.5,236.0,549.5,228.5,550.5,220.0,551.0,212.0,552.0,204.5,552.0,196.5,552.0,188.0,552.5,180.0,552.5" stroke="black" stroke-width="2" fill="none" />
<path d="M164.5,575.0,173.0,574.0,180.5,573.0,188.5,572.5,196.5,572.0,204.5,572.0,213.0,571.0,221.5,570.5,229.5,570.5,237.5,571.0,245.5,570.5,253.0,570.0,261.0,568.5,268.5,567.5,276.0,566.5,283.5,565.5" stroke="black" stroke-width="2" fill="none" />
<path d="M348.5,552.5,340.5,552.5,333.0,552.5,324.5,552.5,316.0,553.0,308.0,553.0,300.0,553.5,292.0,554.0,284.0,554.5,276.0,555.0,268.5,555.5,260.5,556.5,252.5,557.5,245.0,558.5,237.0,559.5,229.5,560.0,221.0,560.5,212.5,561.0,204.0,561.5,195.5,562.5,187.0,563.5,179.0,564.0,171.5,565.0,163.0,565.5,154.5,566.5,146.5,567.0" stroke="black" stroke-width="2" fill="none" />
<path d="M143.0,571.0,134.5,568.0" stroke="black" stroke-width="2" fill="none" />
<path d="M132.0,566.0,136.0,562.5,144.0,567.5,152.0,569.5,160.0,572.0" stroke="black" stroke-width="2" fill="none" />
<path d="M130.5,557.0,139.0,556.5,147.5,556.0,156.0,555.0,164.0,554.5,171.5,554.0,179.5,553.5,187.5,553.0,195.0,553.0,202.5,553.0,210.5,553.0,218.5,552.0,226.5,551.5,235.0,550.5,243.0,550.0,251.0,549.0,259.0,549.0,267.0,549.0,275.5,549.0,284.0,549.0,292.5,548.0,300.0,547.5,308.0,547.0,315.5,546.0,323.5,545.0,332.0,544.5,339.5,544.0,347.5,544.0,355.5,543.5,363.0,543.0,371.0,543.0,379.5,542.0,387.5,541.5,395.5,541.5,403.0,541.0" stroke="black" stroke-width="2" fill="none" />
<path d="M384.5,464.5,376.5,459.5,368.5,456.0,360.5,453.5,352.5,450.0,344.0,447.0,335.5,445.5,327.5,443.5,319.5,442.5,311.5,441.5,304.0,441.5,296.0,441.5,288.5,439.5" stroke="black" stroke-width="2" fill="none" />
<path d="M296.5,436.5,304.5,437.5,312.5,434.5,320.0,432.0,328.0,428.0,336.0,425.5,342.0,426.5,349.5,424.0,357.5,423.5,365.5,424.0,373.5,425.0,381.5,425.5,389.5,426.5,398.0,427.0,406.0,430.5,414.5,435.5" stroke="black" stroke-width="2" fill="none" />
<path d="M408.0,436.0,400.0,433.0,391.5,429.5,388.0,423.5,380.0,421.5,371.5,422.5,363.5,421.0,355.0,420.0,347.5,420.5,339.5,420.5,331.5,421.0,323.5,421.5,315.5,423.0,308.0,425.0,300.0,427.0" stroke="black" stroke-width="2" fill="none" />
<path d="M304.5,419.0,290.5,427.0,287.5,434.5,289.0,442.5,291.0,450.5,290.0,460.5,301.0,467.5,309.0,479.0,317.0,486.0" stroke="black" stroke-width="2" fill="none" />
<path d="M276.0,484.5,267.5,485.5,259.5,486.5,251.5,487.0,243.5,488.0,235.5,489.0,227.5,489.5,220.5,490.5,213.0,491.0,204.5,491.5,196.0,492.0,187.5,492.0,179.5,492.0,171.0,492.0,163.5,492.5,155.5,492.5,148.0,493.0,140.0,493.5,132.5,493.5" stroke="black" stroke-width="2" fill="none" />
<path d="M128.0,507.0,136.0,511.0" stroke="black" stroke-width="2" fill="none" />
<path d="M138.5,508.5,146.5,508.5,155.0,508.0,163.5,508.0,172.0,507.5,179.5,506.5,188.0,506.0,196.0,505.0,204.0,504.5,211.5,504.0,219.5,503.5,228.0,503.0,236.0,502.5,244.0,502.5,252.0,503.0,260.0,502.5,267.5,502.0,275.5,501.0,283.5,500.5,291.0,499.5,298.5,499.0,306.5,499.0,315.0,498.5,323.5,498.0,331.0,498.0,339.0,497.5,347.0,497.0,355.0,496.5,362.5,495.5,370.0,495.0,378.0,494.5,386.5,494.0,395.0,494.0,403.5,493.5,411.5,493.0,420.0,493.0,428.0,492.0,436.0,491.5,444.5,490.0,452.5,489.0,461.0,488.5,468.5,488.0,476.5,487.5,484.5,487.5,493.0,487.5,501.0,487.5,508.5,486.5,515.5,485.5" stroke="black" stroke-width="2" fill="none" />
<path d="M515.5,501.5,507.5,502.0,499.5,502.5,491.0,503.0,483.0,504.5,474.5,505.0,467.0,506.0,459.0,506.5,451.0,507.0,443.0,507.5,435.0,508.0,426.5,509.0,418.5,509.5,410.5,510.0,403.5,511.0,396.0,511.5,387.5,512.0,380.0,512.0,372.0,512.0,364.0,512.0,356.0,511.5,348.0,511.5,340.0,511.5,332.5,512.5,324.0,513.0,316.5,514.0,308.5,515.5,301.0,516.0,293.0,516.0,285.0,516.5,277.0,517.0,269.0,517.5,261.0,518.5,252.5,519.0,244.0,519.5,236.5,520.5,228.5,521.0,221.0,522.0,212.5,522.5,204.5,522.5,196.5,522.5,188.0,522.5,180.0,523.0,171.0,524.0,162.5,524.0,154.0,525.0,145.0,525.5,137.0,526.0" stroke="black" stroke-width="2" fill="none" />
<path d="M138.5,517.0,146.5,516.5,154.5,516.0,163.0,516.0,171.5,516.5,180.0,516.0,188.0,515.5,196.5,515.0,204.5,515.0,212.5,515.0,221.0,514.5,229.0,514.0,236.5,513.5,244.0,512.5,251.5,511.5,260.0,511.0,268.0,510.0,276.0,509.5,284.0,508.5,292.5,508.0,300.5,507.0,308.0,507.0,316.0,506.5,323.5,506.5,331.5,506.5,339.5,506.0,347.0,506.0,355.5,506.0,364.0,505.5,372.0,504.5,380.0,504.0,388.0,503.5,396.0,503.5,404.0,502.5,412.0,502.0,420.5,501.0,428.5,500.5,436.5,500.0,444.0,499.0,452.0,498.5,460.0,498.0,468.5,498.0,476.0,497.5,484.0,497.0,492.0,497.0,500.0,496.0,508.0,495.0,516.0,494.5" stroke="black" stroke-width="2" fill="none" />
<path d="M517.0,524.5,508.5,525.0,500.0,526.0,491.5,526.5,483.5,526.5,475.5,527.0,467.0,527.0,459.0,527.5,451.0,528.0,443.5,528.5,436.0,529.0,428.5,530.5,420.5,531.5,412.5,532.5,404.5,533.0,396.5,534.0,389.0,535.0,381.0,535.0,373.0,535.5,365.0,536.5,356.5,537.5,348.0,538.0,340.0,538.0,332.5,538.5,324.0,538.5,316.0,538.5,308.5,538.5,300.5,538.0,293.0,538.5,285.0,539.0,277.5,539.0,269.5,539.5,261.0,540.5,252.5,541.5,244.0,542.5,235.5,543.0,227.5,543.5,219.0,544.5,210.5,545.0,202.5,545.5,194.5,546.0,187.0,546.5,179.5,547.0,172.0,547.0,163.5,547.5,155.0,547.5,147.0,547.5,139.0,548.0,131.0,548.0" stroke="black" stroke-width="2" fill="none" />
<path d="M131.5,542.0,139.5,541.5,147.5,541.0,156.0,540.0,164.5,539.5,173.0,539.0,180.5,539.0,188.5,539.0,196.0,538.5,203.0,538.0,211.0,537.5,219.5,537.0,228.0,536.0,236.0,535.0,244.5,534.0,252.5,533.5,261.0,532.5,268.5,532.5,276.5,532.0,285.0,531.0,293.5,530.5,301.0,530.5,309.0,530.0,317.0,529.5,325.5,529.0,333.0,528.5,341.0,528.5,349.0,529.0,357.0,529.0,365.0,528.5,373.0,528.0,381.0,527.5,388.0,527.0,396.0,526.0,404.0,525.0,411.5,524.0,419.5,523.0,427.5,522.0,435.0,521.5,443.5,521.5,451.5,521.0,460.0,520.5,468.0,520.0,476.5,519.5,484.5,518.5,493.0,518.0,501.0,518.0,509.0,517.5,516.5,517.0" stroke="black" stroke-width="2" fill="none" />
<path d="M517.5,509.5,509.0,510.0,501.0,510.5,493.0,511.0,485.0,511.5,477.5,512.0,469.0,512.0,460.5,513.0,452.5,513.5,444.5,514.0,436.0,514.5,428.5,515.0,420.5,515.0,412.5,515.0,405.0,515.5,396.5,515.5,388.5,515.5,381.0,515.5,372.5,515.5,364.0,516.0,356.0,516.0,348.0,516.5,340.0,517.0,332.0,517.5,324.0,518.0,316.5,518.5,308.5,519.5,300.5,520.5,293.0,521.5,285.0,522.5,277.5,523.0,269.0,523.5,260.5,524.0,252.0,524.5,243.5,525.5,235.0,526.5,227.0,527.0,219.5,528.0,211.0,528.5,202.5,529.5,194.5,530.0,187.0,530.5,179.0,531.0,171.0,531.5,163.5,532.0,156.0,532.0,148.0,532.5,140.0,533.5,132.5,533.5,124.5,533.5,116.0,533.5" stroke="black" stroke-width="2" fill="none" />
<path d="M116.5,525.5,124.5,525.0,132.0,525.5" stroke="black" stroke-width="2" fill="none" />
<path d="M125.5,528.0,133.5,532.0,141.0,533.5" stroke="black" stroke-width="2" fill="none" />
<path d="M133.0,517.0,125.0,518.0,117.0,518.5" stroke="black" stroke-width="2" fill="none" />
<path d="M121.0,522.5,129.0,526.5,137.5,530.5" stroke="black" stroke-width="2" fill="none" />
<path d="M131.5,521.5,123.5,517.5" stroke="black" stroke-width="2" fill="none" />
<path d="M124.0,517.5,128.0,525.5" stroke="black" stroke-width="2" fill="none" />
<path d="M122.0,523.5,130.5,531.5" stroke="black" stroke-width="2" fill="none" />
<path d="M130.5,517.5,122.5,512.0" stroke="black" stroke-width="2" fill="none" />
<path d="M125.0,509.0,117.5,509.0" stroke="black" stroke-width="2" fill="none" />
<path d="M116.0,503.5,124.0,502.0,131.5,501.5,139.0,500.5,147.0,499.0,154.5,498.5,163.0,498.0,171.0,497.5,179.0,497.0,186.5,496.0,194.5,496.0,202.5,495.5,210.5,495.0,219.0,495.0,227.5,495.5,236.0,495.0,244.0,494.5,252.5,494.0,260.5,494.0,268.5,494.0,277.0,493.5" stroke="black" stroke-width="2" fill="none" />
<path d="M310.5,485.0,305.0,477.5,300.0,473.5,293.5,467.5,287.5,459.5,284.0,451.0,283.0,442.5,282.5,434.5,278.5,446.0" stroke="black" stroke-width="2" fill="none" />
<path d="M276.0,445.0,268.0,446.0,260.0,446.5,252.0,447.0,243.5,447.0,235.0,447.0,227.0,447.0,218.5,446.5,210.5,447.0,202.5,447.5,194.0,448.5,186.5,450.0,179.0,451.0,171.5,452.0,163.5,453.0,155.5,453.5,148.0,454.5,140.0,455.5,132.0,456.0" stroke="black" stroke-width="2" fill="none" />
<path d="M133.5,447.5,141.5,447.5,149.0,446.5,157.0,446.0,164.5,445.0,171.5,444.0,179.5,443.5,187.5,442.5,195.0,442.0,202.0,441.5,209.5,441.0,218.0,440.0,226.0,440.0,234.5,439.5,243.5,439.0,252.0,438.5,260.0,438.5,268.0,437.5,276.0,436.5" stroke="black" stroke-width="2" fill="none" />
<path d="M276.0,429.0,267.5,429.5,259.0,430.0,250.5,431.0,242.5,431.5,234.5,431.5,226.5,431.5,219.0,432.0,211.5,432.5,203.0,433.0,195.5,433.5,187.5,434.5,179.0,435.0,171.0,436.0,163.5,436.0,156.0,437.0,148.5,438.0,140.5,439.0,133.0,439.5" stroke="black" stroke-width="2" fill="none" />
<path d="M131.5,432.0,139.5,431.5,147.5,430.5,155.5,429.5,163.5,429.0,171.5,428.0,179.5,427.0,187.5,426.5,195.5,425.5,203.5,425.0,211.0,425.0,219.5,424.5,227.5,423.5,235.5,423.0,242.5,422.5,250.5,422.0,258.5,421.5,267.0,421.0,275.0,421.0" stroke="black" stroke-width="2" fill="none" />
<path d="M275.5,413.5,268.0,414.5,260.5,415.0,252.5,416.0,244.5,416.0,236.5,416.5,228.0,416.5,220.0,416.5,212.5,416.5,204.0,417.5,196.0,417.5,187.5,418.0,179.0,419.0,171.0,419.5,163.0,420.0,155.0,420.5,147.0,421.0,139.5,422.0,132.0,422.5" stroke="black" stroke-width="2" fill="none" />
<path d="M133.0,412.5,141.5,412.0,149.5,412.0,157.0,411.5,165.0,410.5,173.0,410.5,180.5,410.0,189.0,410.0,197.0,410.0,205.5,410.0,213.5,409.5,221.5,409.0,229.5,408.5,238.0,408.0,245.5,408.0,254.0,408.0,261.5,407.5,269.0,407.5,276.5,407.0" stroke="black" stroke-width="2" fill="none" />
<path d="M277.5,397.5,269.5,397.5,261.0,398.0,252.5,399.0,244.5,399.0,236.5,399.5,228.5,400.0,221.0,401.0,212.5,402.0,205.0,403.0,196.5,403.5,188.0,403.5,180.0,403.5,172.0,403.5,164.0,404.0,156.0,404.0,148.5,404.0,141.0,404.5,132.5,404.5" stroke="black" stroke-width="2" fill="none" />
<path d="M129.5,396.0,137.5,395.5,145.5,395.5,154.0,395.5,162.5,395.5,170.5,395.5,178.5,395.0,187.0,395.0,194.5,394.5,202.0,394.0,210.0,393.0,218.0,393.0,226.5,392.5,235.0,392.5,243.0,392.5,251.0,392.0,259.5,391.0,267.5,390.0,276.0,389.0" stroke="black" stroke-width="2" fill="none" />
<path d="M273.5,380.5,266.0,381.0,258.0,381.5,250.0,382.0,242.5,382.5,235.5,382.5,228.0,383.5,220.5,384.0,213.5,384.5,205.5,385.0,197.0,385.0,188.5,385.5,180.5,386.0,172.5,386.5,164.5,386.5,156.5,387.5,149.0,388.0,141.5,389.0,133.5,390.0,125.5,390.5" stroke="black" stroke-width="2" fill="none" />
<path d="M124.5,381.0,132.5,380.5,140.5,380.0,148.5,380.0,156.5,380.0,164.0,379.5,171.5,379.0,179.5,378.5,188.0,377.5,196.5,376.5,205.0,376.0,212.5,375.5,220.0,375.5,227.5,375.5,234.5,375.0,242.0,374.0,250.5,373.5,258.5,373.0,266.5,372.0,274.5,371.5" stroke="black" stroke-width="2" fill="none" />
<path d="M284.0,320.5,276.5,321.5,268.0,322.0,260.0,323.0,252.5,323.0,244.5,323.0,236.0,323.5,228.0,323.5,220.5,324.0,213.0,324.5,205.0,325.5,196.5,326.0,187.5,327.0,179.5,328.0,171.0,328.5,162.5,329.5,154.5,330.5,146.5,331.0" stroke="black" stroke-width="2" fill="none" />
<path d="M139.5,358.5,147.0,351.0,155.0,343.5,162.5,335.5,169.5,327.5,177.5,319.5,185.5,312.0,193.5,305.0,202.0,297.5,210.5,289.0,219.0,281.0,227.5,273.0,236.0,265.0,244.5,257.5,252.5,250.0,261.0,242.5" stroke="black" stroke-width="2" fill="none" />
<path d="M266.5,243.0,258.5,250.5,251.0,258.0,243.0,266.0,235.0,274.0,226.5,281.5,219.0,289.0,211.0,296.5,203.5,304.0,196.0,311.5,188.0,319.0,180.0,326.0,172.0,333.5,164.5,341.5,157.0,349.5,149.0,357.0,141.5,364.5" stroke="black" stroke-width="2" fill="none" />
<path d="M138.5,349.0,147.0,341.0,155.0,333.5,163.0,325.5,171.0,318.0,179.5,310.5,187.0,303.0,195.0,295.5,202.5,288.0,210.5,280.0,218.5,271.5,227.0,264.0,236.0,257.5,244.5,250.0,253.0,242.0,261.0,234.5" stroke="black" stroke-width="2" fill="none" />
<path d="M245.5,228.5,237.0,235.5,228.5,243.0,220.0,250.5" stroke="black" stroke-width="2" fill="none" />
<path d="M227.5,251.0,235.5,243.5,244.0,236.0" stroke="black" stroke-width="2" fill="none" />
<path d="M235.5,229.5,227.5,236.5,219.5,243.0,211.5,250.0" stroke="black" stroke-width="2" fill="none" />
<path d="M213.0,258.5,204.5,266.0,196.5,273.5,188.5,281.5,181.0,289.5,173.0,297.5,164.5,304.5,155.5,311.5,147.5,319.0,139.5,327.5" stroke="black" stroke-width="2" fill="none" />
<path d="M139.0,334.5,147.5,327.0,155.5,319.0,163.5,311.5,171.5,304.0,179.5,296.5,187.0,289.0,195.0,282.5,202.5,275.0,211.0,268.0,219.0,260.5" stroke="black" stroke-width="2" fill="none" />
<path d="M213.0,267.0,221.0,266.5,228.5,266.0,235.5,265.5,243.0,265.0,250.5,264.0,258.5,264.0,266.5,263.5" stroke="black" stroke-width="2" fill="none" />
<path d="M275.5,276.0,267.5,283.5,259.0,291.5,251.0,299.0,243.5,305.5,235.5,313.0,228.0,320.5,220.5,329.0,213.0,336.5,205.0,344.0,197.0,351.5,189.0,359.0,181.0,366.5,173.0,374.0,165.0,381.0,157.0,388.5,149.0,396.5" stroke="black" stroke-width="2" fill="none" />
<path d="M123.5,372.0,132.0,372.0,140.0,371.5,148.0,371.0,156.0,371.0,163.5,370.0,171.5,370.0,178.5,369.5,186.0,369.0,193.5,369.0,201.0,368.5,209.5,368.0,217.5,368.0,226.0,368.0,235.0,367.5,243.5,367.0,251.0,366.5,258.5,366.0,266.5,365.5,274.5,365.0" stroke="black" stroke-width="2" fill="none" />
<path d="M276.0,356.5,268.0,357.0,259.5,357.0,251.5,357.0,243.0,357.5,235.0,358.0,227.0,358.5,219.5,359.0,211.5,359.5,203.5,360.0,195.5,360.5,187.0,361.0,179.5,361.5,171.5,362.0,163.5,362.5,156.0,363.5,148.0,364.5,140.5,365.5,132.5,365.5,124.5,366.0" stroke="black" stroke-width="2" fill="none" />
<path d="M124.0,359.0,132.0,358.0,140.0,357.5,148.0,356.5,156.0,356.0,164.0,355.0,172.0,354.5,180.0,353.5,188.0,353.0,196.0,352.5,204.0,352.0,212.5,352.0,220.5,351.0,228.5,350.5,236.5,349.5,244.5,349.0,252.0,349.5,260.0,349.5,267.5,349.5,275.5,349.5,283.0,349.5" stroke="black" stroke-width="2" fill="none" />
<path d="M284.0,340.0,276.0,340.5,267.5,341.0,259.0,341.0,251.0,340.5,243.0,340.5,235.5,341.0,227.5,342.5,219.0,343.5,211.5,344.5,203.0,345.0,195.0,345.5,187.5,345.5,180.0,346.0,173.0,347.0,165.5,348.0,157.5,349.0,149.5,349.5,141.0,350.0,133.0,351.0,125.0,351.0" stroke="black" stroke-width="2" fill="none" />
<path d="M114.5,340.5,122.5,340.5,131.0,340.0,139.5,339.5,147.5,339.0,155.5,338.0,163.5,338.0,171.5,337.0,179.0,336.5,187.0,336.0,194.5,335.5,202.5,335.5,211.0,335.0,219.5,335.0,228.0,334.5,235.5,333.5,244.0,333.0,252.0,332.0,260.0,331.5,267.5,331.0,275.5,330.5,284.0,330.0" stroke="black" stroke-width="2" fill="none" />
<path d="M281.5,321.5,273.5,322.0,266.0,322.5,258.5,322.5,250.5,322.5,242.0,322.5,233.5,323.0,226.0,323.5,218.5,324.0,210.5,325.0,202.5,325.5,194.5,326.5,186.5,326.5,178.0,327.0,170.0,327.5,161.5,328.0,154.0,329.0,145.5,329.5,137.0,331.5,129.0,332.5,121.0,334.0,113.0,334.5" stroke="black" stroke-width="2" fill="none" />
<path d="M113.5,324.5,121.5,323.5,130.0,323.5,138.5,323.0,146.5,323.0,154.5,322.0,162.5,321.5,170.5,321.0,178.5,321.0,186.5,320.5,194.5,320.0,203.0,319.5,211.5,319.0,220.0,318.0,228.0,317.5,235.5,317.0,243.5,316.5,251.5,316.0,259.0,316.0,266.5,316.0,274.5,316.0,282.5,315.0" stroke="black" stroke-width="2" fill="none" />
<path d="M291.5,306.0,283.5,306.5,275.5,307.5,267.0,308.0,259.5,308.0,251.5,308.5,243.5,309.5,235.5,310.0,227.5,311.0,219.5,312.0,211.5,312.5,203.5,313.5,195.5,314.5,187.5,315.0,179.5,315.5,171.5,315.0,163.0,315.5,154.0,316.0,146.0,316.5,138.0,316.5,130.0,316.5,122.5,316.5,114.5,317.5,107.0,318.0" stroke="black" stroke-width="2" fill="none" />
<path d="M100.0,307.0,108.0,306.5,116.5,305.0,125.0,304.0,133.0,303.0,141.0,302.0,149.0,301.5,156.5,301.0,164.0,300.5,171.5,299.5,179.5,299.0,188.0,299.0,196.0,298.5,204.0,298.0,212.0,298.0,219.5,297.0,227.5,297.0,234.5,296.5,242.0,296.0,249.5,296.0,257.0,295.5,265.5,295.0,273.5,295.0,282.0,295.0" stroke="black" stroke-width="2" fill="none" />
<path d="M285.5,287.5,277.5,288.0,269.5,288.5,261.5,289.0,253.0,289.0,245.0,289.0,236.5,289.0,229.0,289.5,221.0,289.5,213.0,290.5,205.5,291.0,197.5,291.0,189.0,291.5,181.0,292.0,173.0,293.5,165.5,294.5,157.5,295.5,149.5,296.5,141.5,297.0,133.5,298.0,125.0,298.5,116.5,298.5,108.5,299.5" stroke="black" stroke-width="2" fill="none" />
<path d="M108.0,303.0,115.5,295.0,123.0,287.5,131.0,280.0,139.0,272.0,147.0,264.5,155.0,256.5,163.5,249.0,172.0,241.0,180.0,233.0,188.0,225.0" stroke="black" stroke-width="2" fill="none" />
<path d="M178.5,225.0,171.0,233.0,162.5,241.0,154.5,248.5" stroke="black" stroke-width="2" fill="none" />
<path d="M146.5,249.5,154.5,241.5,162.0,233.0,170.0,225.5" stroke="black" stroke-width="2" fill="none" />
<path d="M162.5,227.5,154.5,234.5,147.0,242.0,139.0,249.5,131.5,256.5,123.5,264.0,116.0,271.5" stroke="black" stroke-width="2" fill="none" />
<path d="M116.0,274.0,123.5,274.0,131.0,273.5,138.5,272.5,146.5,271.5,155.0,271.0,163.0,271.0,171.5,270.5,180.0,270.0,188.0,269.5,196.5,268.5,204.0,268.5,212.0,268.0,219.5,267.5,227.5,267.5,235.0,267.0,243.5,267.0,251.5,267.0,260.0,267.0,268.5,266.5" stroke="black" stroke-width="2" fill="none" />
<path d="M268.0,256.0,259.5,256.5,252.0,257.0,244.5,257.5,236.5,257.5,228.0,258.0" stroke="black" stroke-width="2" fill="none" />
<path d="M203.5,259.0,195.5,266.0,187.5,273.0,179.0,280.0,170.5,287.0,162.5,294.5,155.0,302.5,147.5,310.5,140.0,318.5" stroke="black" stroke-width="2" fill="none" />
<path d="M123.5,308.5,131.5,300.5,139.5,293.5,147.0,285.5,155.0,278.0,162.5,270.5,170.5,262.5,178.5,255.0,187.0,247.5,195.5,240.5,204.0,233.0,212.5,225.5" stroke="black" stroke-width="2" fill="none" />
<path d="M226.0,230.0,218.0,230.5,210.0,231.0,202.5,231.5,195.5,231.5,188.0,232.5,180.5,233.0,173.5,233.5,165.5,234.0" stroke="black" stroke-width="2" fill="none" />
<path d="M155.5,229.0,147.5,235.5,139.5,242.5,131.0,249.5,123.0,256.5,114.5,263.0" stroke="black" stroke-width="2" fill="none" />
<path d="M116.0,265.0,124.0,264.0,131.5,263.5,139.0,262.5,147.0,261.0,155.0,260.0,163.0,258.5,171.0,257.5,178.5,256.5,187.0,255.5,195.0,255.0,203.0,254.5,211.0,254.0,219.5,254.0,227.5,254.0,236.0,253.5,244.5,253.5,253.0,253.5,261.0,252.5,269.5,251.5,277.5,251.0" stroke="black" stroke-width="2" fill="none" />
<path d="M269.0,242.0,261.0,242.0,253.5,242.5,245.5,242.5,237.0,242.5,228.0,242.5,220.0,242.5,212.0,243.0,204.0,243.0,195.5,243.5,188.0,244.5,180.0,245.5,172.5,246.0,164.5,247.5,157.0,248.0,149.5,249.0,141.5,250.0,133.5,250.5,125.5,251.5" stroke="black" stroke-width="2" fill="none" />
<path d="M130.5,257.5,122.0,258.0,114.0,259.0" stroke="black" stroke-width="2" fill="none" />
<path d="M116.5,258.0,124.5,250.0,132.5,242.5,141.0,234.5,149.0,227.0" stroke="black" stroke-width="2" fill="none" />
<path d="M131.5,229.5,139.5,229.0,147.0,229.0,155.0,229.0,163.0,229.0,171.5,228.5,179.5,228.0,188.5,227.5,197.0,226.5,205.0,226.0,212.5,225.5,220.5,224.5,228.5,224.5,236.0,224.0,243.0,224.0,251.0,224.0,259.0,223.5" stroke="black" stroke-width="2" fill="none" />
<path d="M261.0,233.0,252.5,233.0,244.5,233.0,236.0,234.0,227.5,235.0,219.0,236.0,211.5,236.5,203.5,237.5,195.5,238.0,187.5,238.5,179.5,239.0,171.5,239.5,164.0,240.5,156.0,240.5,148.5,241.5,140.5,242.0,132.5,242.5,124.5,243.0" stroke="black" stroke-width="2" fill="none" />
<path d="M132.0,237.5,124.0,245.0,115.5,252.0" stroke="black" stroke-width="2" fill="none" />
<path d="M113.5,253.0,122.0,253.0,130.5,253.0,139.0,253.0,147.0,252.5,155.0,252.5,163.0,252.0,171.5,251.5,179.5,251.0,187.0,250.5,195.0,250.0,203.0,249.0,211.0,248.5,218.5,247.5,226.0,246.5,234.5,245.5,242.0,244.5,250.0,243.5,258.5,243.0,267.0,242.5" stroke="black" stroke-width="2" fill="none" />
<path d="M266.5,280.5,258.5,281.0,251.0,281.5,243.5,282.0,236.0,282.0,227.5,282.5,219.0,282.5,211.0,282.5,203.0,283.0,195.0,283.0,187.5,284.0,180.0,284.0,172.0,285.0,164.0,286.0,156.0,287.0,147.5,287.5,139.0,287.0,130.5,287.0,122.0,288.0,114.0,289.0" stroke="black" stroke-width="2" fill="none" />
<path d="M108.0,285.0,116.0,284.0,123.5,283.5,131.0,283.0,139.5,282.5,147.5,281.5,155.5,281.5,164.0,281.0,172.5,281.0,180.5,280.5,188.5,279.5,197.0,279.5,204.5,279.0,212.0,279.0,220.0,279.0,228.0,278.5,236.0,278.5,244.0,278.5,252.5,278.5,261.0,278.0,268.5,277.0,277.0,276.0,284.5,275.0" stroke="black" stroke-width="2" fill="none" />
<path d="M274.0,268.0,266.0,268.0,258.0,269.0,250.5,269.5,243.0,270.0,234.5,270.0,226.5,270.5,218.5,270.5,210.0,270.5,201.5,270.5,193.5,270.5,185.5,271.0,177.5,272.0,169.0,273.0,161.0,274.0,153.0,275.0,145.5,276.0,137.0,276.0,129.5,276.0,122.0,276.0,115.0,276.0,107.0,277.0" stroke="black" stroke-width="2" fill="none" />
<path d="M113.5,281.0,122.0,280.5,130.5,280.0,138.5,279.5,147.0,279.0,155.0,279.0,163.5,278.0,172.0,277.5,180.0,277.5,188.0,277.5,195.5,277.0,203.5,276.5,211.5,276.0,220.0,275.0,228.5,274.5,237.0,274.0,244.5,274.0,252.5,274.0,260.0,273.5,267.0,273.0" stroke="black" stroke-width="2" fill="none" />
<path d="M273.0,283.0,281.5,288.5" stroke="black" stroke-width="2" fill="none" />
<path d="M203.5,259.0,195.0,259.5,187.5,260.5,179.5,262.0,171.5,262.5,163.0,263.5,155.5,264.0,147.0,265.0,139.5,266.0,132.0,266.5,124.0,267.5,116.0,268.5" stroke="black" stroke-width="2" fill="none" />
<path d="M106.5,268.0,114.5,267.5,123.0,267.5,131.0,267.0,138.5,266.5,146.5,266.0,155.0,265.5,163.0,265.5,171.5,265.5,179.5,265.0,187.5,264.5,195.5,264.0,203.0,264.0,211.0,264.0,219.0,264.0,227.5,263.5,235.5,263.0,244.5,262.5,253.0,261.5,261.0,261.0,268.5,260.5,276.5,259.5" stroke="black" stroke-width="2" fill="none" />
<path d="M266.5,234.5,258.0,235.5,250.5,237.0,243.0,238.0,235.5,239.0,227.5,240.0,219.5,240.5,212.0,241.5,204.0,242.5,196.0,243.0,188.0,243.0,180.0,243.5,172.0,244.0,163.5,244.5,155.5,244.5,147.0,244.5,139.0,244.5,130.5,244.5,122.5,244.5,115.0,245.0" stroke="black" stroke-width="2" fill="none" />
<path d="M114.5,244.0,122.5,235.0,130.0,232.0,138.0,229.5,145.5,228.0,154.0,227.0,161.5,225.0,169.5,223.5,177.5,223.5,185.5,223.0,194.0,223.5,201.5,223.0,210.0,223.5,218.0,223.5,226.0,224.5,234.5,226.0,242.5,228.0,251.0,230.5,259.0,233.0" stroke="black" stroke-width="2" fill="none" />
<path d="M266.0,228.5,259.0,229.0,251.5,229.5,243.5,230.5,235.5,231.0,228.5,232.0,221.0,233.0,213.0,233.5,205.5,234.5,197.5,234.5,189.5,235.5,181.5,236.0,173.0,236.0,164.5,236.0,156.0,235.5,147.5,236.0,139.0,236.0,130.5,236.5,122.5,236.5,114.0,236.5" stroke="black" stroke-width="2" fill="none" />
<path d="M133.5,252.0,141.5,251.0,149.5,252.5" stroke="black" stroke-width="2" fill="none" />
<path d="M148.0,260.0,139.5,267.5,131.5,275.0,123.0,282.5,115.0,290.0,107.0,297.5,99.0,305.0" stroke="black" stroke-width="2" fill="none" />
<path d="M94.0,303.5,101.5,310.0,109.5,314.0,117.5,316.5,126.0,318.5,134.0,320.0,142.0,321.5,150.5,322.5" stroke="black" stroke-width="2" fill="none" />
<path d="M100.0,298.5,108.5,291.0,117.0,283.0,125.0,275.0,132.5,267.0,141.0,259.0" stroke="black" stroke-width="2" fill="none" />
<path d="M134.5,254.0,142.5,256.5,150.5,257.0" stroke="black" stroke-width="2" fill="none" />
<path d="M164.5,258.5,172.5,257.5,180.5,257.5,188.0,257.0,195.0,257.0" stroke="black" stroke-width="2" fill="none" />
<path d="M198.5,257.0,206.5,258.0,214.5,256.5,222.5,255.5" stroke="black" stroke-width="2" fill="none" />
<path d="M223.0,253.0,215.0,253.0,207.0,254.5,199.0,255.0" stroke="black" stroke-width="2" fill="none" />
<path d="M291.0,281.0,283.0,281.5,275.5,282.0,267.5,282.5,259.5,283.0,251.5,283.5,243.0,284.0,235.5,284.5,227.5,285.0,219.5,285.5,212.0,286.5,204.0,287.5,196.5,288.5,188.5,288.5,180.5,289.0,172.5,290.0,164.5,290.0,157.0,290.5,149.0,291.5,140.5,292.0,132.5,292.5,124.0,292.5,115.5,293.0,107.0,293.5,98.5,294.0" stroke="black" stroke-width="2" fill="none" />
<path d="M100.5,290.5,92.0,298.5" stroke="black" stroke-width="2" fill="none" />
<path d="M91.0,301.5,99.0,301.5,107.0,301.5,115.0,301.0,123.0,300.5,130.5,300.0,139.0,299.5,147.5,299.0,156.0,299.0,164.5,299.0,173.0,298.0,181.0,298.0,189.0,297.0,197.5,296.5,205.5,296.0,213.5,295.0,221.0,294.0,228.0,293.0,235.5,292.5,243.0,292.5,251.0,292.0,259.5,291.5,267.0,290.5,275.5,289.5,283.5,288.0,291.0,287.5" stroke="black" stroke-width="2" fill="none" />
<path d="M283.0,432.5,291.0,422.0,298.5,418.0,306.5,415.0,314.5,414.5,322.5,413.5,330.5,414.0,338.5,413.0,346.5,413.0,355.0,414.5,362.5,415.0,371.0,416.0,379.0,416.5,387.0,418.5,394.5,420.5,403.0,423.5,411.0,426.5,419.0,433.5" stroke="black" stroke-width="2" fill="none" />
<path d="M416.5,454.5,415.5,450.5,418.5,442.5,414.0,434.5,399.0,426.5" stroke="black" stroke-width="2" fill="none" />
<path d="M368.5,462.0,349.5,454.0" stroke="black" stroke-width="2" fill="none" />
<path d="M244.5,574.0,258.5,566.0,265.5,558.0,270.5,550.5,265.5,558.0,258.0,566.5,250.0,571.5,242.0,574.5,234.0,577.5,226.5,579.5,218.5,580.5,210.0,581.5,201.5,583.0,193.5,584.0,185.5,583.0,177.5,583.0,169.5,581.5,161.5,580.5,153.5,578.5,145.5,576.5,137.5,572.5,129.0,568.5,121.0,560.0,121.0,551.5" stroke="black" stroke-width="2" fill="none" />
<path d="M122.5,556.0,115.0,557.0,107.0,557.5" stroke="black" stroke-width="2" fill="none" />
<path d="M99.5,550.0,108.0,549.5,115.5,548.5" stroke="black" stroke-width="2" fill="none" />
<path d="M107.0,540.5,98.5,540.5,90.5,541.0" stroke="black" stroke-width="2" fill="none" />
<path d="M74.0,535.0,82.0,534.5,90.5,534.0,99.0,533.5,107.0,532.5" stroke="black" stroke-width="2" fill="none" />
<path d="M108.0,523.0,100.5,523.0,92.0,523.0,83.5,523.0,75.5,523.5,67.5,524.5,59.5,525.5" stroke="black" stroke-width="2" fill="none" />
<path d="M45.0,516.0,53.0,515.5,60.0,515.0,68.0,514.5,76.0,514.5,83.5,514.0,91.5,514.0,99.5,514.0,108.0,514.0" stroke="black" stroke-width="2" fill="none" />
<path d="M109.0,505.5,101.0,506.0,93.5,506.0,85.5,506.5,78.0,507.0,70.5,507.0,62.0,507.5,53.5,507.5,45.5,507.0,37.5,507.0,29.5,507.5" stroke="black" stroke-width="2" fill="none" />
<path d="M20.0,501.5,28.0,500.5,36.5,500.0,44.5,499.0,53.0,498.5,61.0,498.0,69.0,497.5,77.0,498.0,85.0,497.5,93.5,497.0,101.5,496.0,109.0,496.0" stroke="black" stroke-width="2" fill="none" />
<path d="M106.0,496.0,114.0,494.0,118.5,508.5,118.5,516.5,120.0,525.0,120.0,533.0,121.0,541.0,121.0,549.0,124.0,557.0,122.0,564.0,132.0,572.0,152.0,580.0" stroke="black" stroke-width="2" fill="none" />
<path d="M118.5,560.5,126.0,570.5,134.0,575.5,141.5,578.5,149.5,581.0,157.5,583.0,166.0,584.5,174.0,585.5,182.5,586.5,190.5,587.5,198.5,587.0,206.5,586.5,214.5,586.5,222.0,585.5,230.0,583.5,238.0,581.5,246.0,580.0,254.0,576.5,262.5,569.5,268.0,565.0,259.0,573.0,247.5,579.5" stroke="black" stroke-width="2" fill="none" />
<path d="M137.5,531.0,138.5,523.0,138.5,515.0,126.0,507.0,120.0,501.0" stroke="black" stroke-width="2" fill="none" />
<path d="M124.0,506.5,125.5,514.0,137.0,522.5" stroke="black" stroke-width="2" fill="none" />
<path d="M111.0,503.0,114.5,497.0,111.5,504.5,113.5,512.5,114.5,521.0,116.0,529.0,117.0,537.0,118.0,544.5,119.0,552.5,117.5,561.0,122.5,568.5,135.0,576.5" stroke="black" stroke-width="2" fill="none" />
<path d="M143.5,568.5,125.5,562.0,117.5,561.0" stroke="black" stroke-width="2" fill="none" />
<path d="M112.0,491.5,106.5,499.5,107.0,507.5,106.5,516.0,107.5,524.5,107.5,532.5,107.5,540.5,109.5,548.0,122.5,560.0,133.5,567.5,151.0,572.5,159.0,574.5,167.0,575.5,175.0,577.0,183.5,577.0,191.5,577.5,199.5,577.5,207.5,577.5,215.5,575.5,223.0,574.5,231.0,571.5,239.0,568.5,247.5,566.0,255.5,561.0,263.5,555.5,273.5,545.5,282.0,544.0,290.0,542.0,298.5,540.5,306.5,538.5,314.5,534.5,323.0,528.5" stroke="black" stroke-width="2" fill="none" />
<path d="M85.5,467.0,77.5,467.5,69.5,467.5,61.0,468.0,52.5,468.0,44.5,468.5" stroke="black" stroke-width="2" fill="none" />
<path d="M21.5,478.0,30.0,477.5,38.0,476.5,45.5,476.0,53.5,475.5,61.0,475.0,68.0,474.0,75.0,473.5,82.5,473.0,90.5,472.0,98.5,471.5,106.5,471.5,115.0,471.0" stroke="black" stroke-width="2" fill="none" />
<path d="M115.5,480.5,108.0,481.0,100.0,482.5,92.5,483.0,84.5,483.5,76.5,484.0,68.5,484.5,61.0,485.0,52.5,485.5,45.0,486.0,37.0,486.5,28.0,486.5,20.0,486.5" stroke="black" stroke-width="2" fill="none" />
<path d="M13.0,492.5,21.0,492.0,29.0,492.0,36.5,491.5,44.5,491.5,52.5,491.0,59.5,490.0,66.0,490.0,73.5,490.0,81.0,490.0,89.0,489.5,97.0,489.0,105.0,487.5" stroke="black" stroke-width="2" fill="none" />
<path d="M498.0,183.5,506.5,182.5,515.0,182.0" stroke="black" stroke-width="2" fill="none" />
<path d="M516.0,189.5,508.0,190.5" stroke="black" stroke-width="2" fill="none" />
<path d="M500.5,174.5,508.5,173.5,517.0,173.0" stroke="black" stroke-width="2" fill="none" />
<path d="M516.0,164.5,508.5,165.0,500.5,165.5" stroke="black" stroke-width="2" fill="none" />
<path d="M493.0,158.0,500.5,157.0,508.0,156.0,515.5,155.0" stroke="black" stroke-width="2" fill="none" />
<path d="M515.5,149.0,506.5,149.5,498.0,150.0,489.5,150.0,481.5,150.5" stroke="black" stroke-width="2" fill="none" />
<path d="M475.5,142.0,483.5,141.5,491.0,141.0,498.5,141.0,506.0,141.0,513.5,140.5" stroke="black" stroke-width="2" fill="none" />
<path d="M514.5,132.5,506.5,133.0,499.5,134.0,492.0,134.5,483.5,135.0,476.0,135.0" stroke="black" stroke-width="2" fill="none" />
<path d="M476.0,127.0,484.0,126.5,492.0,126.5,500.0,125.5,508.0,125.0,516.5,124.0" stroke="black" stroke-width="2" fill="none" />
<path d="M515.0,98.0,506.5,99.0,499.0,100.0,491.5,100.5,483.5,100.5,475.5,101.0,467.0,102.0" stroke="black" stroke-width="2" fill="none" />
<path d="M469.0,94.5,477.0,94.0,485.0,94.0,492.5,93.0,500.5,92.0,508.5,91.5,516.5,90.5" stroke="black" stroke-width="2" fill="none" />
<path d="M468.0,125.0,460.5,125.5" stroke="black" stroke-width="2" fill="none" />
<path d="M462.0,120.0,469.5,119.0,477.0,118.0,484.5,117.0,492.0,116.5,499.5,115.5,507.5,114.5,515.0,113.0" stroke="black" stroke-width="2" fill="none" />
<path d="M514.0,106.0,506.0,106.5,498.5,107.5,490.5,108.0,482.5,108.5,475.0,109.0,467.5,109.5,460.0,110.0" stroke="black" stroke-width="2" fill="none" />
<path d="M443.5,84.0,451.5,84.0,460.0,84.0,468.5,83.0,477.0,82.0,485.0,81.5,493.0,81.5,501.5,81.0,509.5,80.5,518.0,79.5" stroke="black" stroke-width="2" fill="none" />
<path d="M517.0,24.0,508.5,24.5,500.5,25.5,492.5,25.5,484.5,26.0,476.5,26.0,469.0,26.0,461.0,26.0,453.0,27.0,445.0,28.0,436.5,29.0,428.5,29.5,420.5,30.5" stroke="black" stroke-width="2" fill="none" />
<path d="M410.0,22.5,418.0,22.0,426.0,22.0,434.0,21.5,442.0,20.5,450.0,20.0,458.0,19.5,466.0,19.0,473.5,18.5,481.5,18.0,489.5,17.5,497.5,17.0,506.0,17.0,514.5,16.5" stroke="black" stroke-width="2" fill="none" />
<path d="M516.0,-0.5,508.5,0.0,500.5,0.5,492.5,1.5,484.5,2.0,476.5,2.5,469.5,3.0,461.5,3.5,454.0,4.5,446.0,5.0,438.0,5.0,430.5,5.0,422.5,5.5" stroke="black" stroke-width="2" fill="none" />
<path d="M411.0,14.0,419.0,13.0,427.0,12.5,434.5,12.0,442.0,12.0,450.0,12.0,458.5,11.5,466.5,11.0,475.0,10.0,483.5,9.0,491.5,8.5,499.5,8.0,507.0,8.0,515.0,8.0" stroke="black" stroke-width="2" fill="none" />
<path d="M516.5,71.5,508.5,72.5,500.5,73.5,492.5,74.0,484.5,74.5,476.5,74.5,468.5,75.0,461.0,75.5,453.0,76.5,445.0,77.0,437.0,76.5,429.0,76.5,420.5,76.5,412.0,77.0" stroke="black" stroke-width="2" fill="none" />
<path d="M412.0,69.0,420.0,69.0,428.0,68.5,436.0,68.5,444.0,68.5,451.5,68.5,459.0,68.0,466.5,67.5,474.0,67.5,482.5,67.0,490.5,66.5,498.5,65.5,507.0,65.0,515.5,64.5" stroke="black" stroke-width="2" fill="none" />
<path d="M517.0,31.0,508.5,32.0,500.5,32.5,492.5,33.0,484.0,33.5,476.5,34.0,468.5,34.0,460.5,34.0,453.0,34.5,444.5,34.5,436.5,34.5,429.0,34.5,420.5,34.5,412.0,35.0,404.0,35.0" stroke="black" stroke-width="2" fill="none" />
<path d="M394.0,45.5,402.0,45.0,409.5,44.0,417.5,44.0,425.5,43.5,433.5,43.5,441.5,42.5,450.0,41.5,458.5,40.0,467.0,39.5,475.0,38.5,483.5,38.0,492.0,38.0,500.0,38.0,508.0,38.0,516.0,37.5" stroke="black" stroke-width="2" fill="none" />
<path d="M516.0,55.0,507.5,55.0,499.5,55.5,491.0,56.0,482.5,56.0,474.0,56.5,466.0,57.0,458.5,57.5,451.0,58.5,443.0,59.0,435.0,59.5,427.0,60.0,419.5,60.0,411.0,60.5,402.5,61.0,394.5,61.0" stroke="black" stroke-width="2" fill="none" />
<path d="M381.5,52.5,389.0,52.5,397.0,52.0,405.0,51.5,413.5,51.0,421.0,50.5,429.0,50.5,437.0,51.0,445.0,51.0,453.0,50.5,461.0,50.0,469.0,49.5,476.0,49.0,484.0,48.0,492.0,47.0,499.5,46.0,507.5,45.0,515.5,44.0" stroke="black" stroke-width="2" fill="none" />
</svg>