<svg xmlns="http://www.w3.org/2000/svg" version="1.1"><path d="M315.0,15.5,318.0,23.5,319.0,31.5,320.0,40.0,319.5,48.0,319.5,56.0,317.0,64.0,319.0,72.0,319.5,80.5,319.5,88.5,320.5,97.0,320.5,104.5,321.5,112.0,321.5,119.5,323.5,132.0,332.0,133.0,340.0,133.5,349.0,137.5,357.0,137.5,365.5,138.5,374.5,135.0,382.5,134.5,390.5,133.5,398.5,129.5,401.0,132.5,409.0,126.0,411.0,127.5,413.5,125.5,421.5,128.0,429.0,121.0,429.0,118.5,437.0,114.5,447.0,107.0,455.0,107.0,463.0,102.0,471.0,98.5,479.0,94.0" stroke="black" stroke-width="2" fill="none" />
<path d="M482.5,91.0,468.5,99.0,455.5,107.5,461.5,107.5,469.5,102.5,477.5,98.5,485.5,93.5" stroke="black" stroke-width="2" fill="none" />
<path d="M480.5,90.0,472.0,90.0,464.0,92.0,455.5,97.5,447.5,102.5,436.5,113.5,432.0,118.0,441.0,106.0,453.5,98.5,467.0,90.5" stroke="black" stroke-width="2" fill="none" />
<path d="M466.5,87.5,452.5,95.5,440.0,103.5,423.5,111.5,413.0,119.5,411.0,134.0,398.0,135.5,407.0,140.5,402.5,148.5,400.5,156.5,398.5,164.5" stroke="black" stroke-width="2" fill="none" />
<path d="M397.0,172.5,389.5,173.0" stroke="black" stroke-width="2" fill="none" />
<path d="M388.5,165.0,396.0,164.5,404.5,164.0" stroke="black" stroke-width="2" fill="none" />
<path d="M404.5,156.0,396.0,156.5,388.0,156.5" stroke="black" stroke-width="2" fill="none" />
<path d="M384.5,153.5,390.0,150.0,389.0,158.0,386.0,166.5,385.5,174.0,383.0,182.0,383.0,189.5,381.5,197.5,383.5,206.5,375.5,214.5,382.5,221.5,383.5,218.5,388.0,214.5" stroke="black" stroke-width="2" fill="none" />
<path d="M401.5,213.5,410.0,213.0,418.5,212.0" stroke="black" stroke-width="2" fill="none" />
<path d="M414.0,214.5,422.0,219.0,429.5,222.0,437.5,228.0" stroke="black" stroke-width="2" fill="none" />
<path d="M437.5,245.0,429.5,245.5,421.5,246.5,413.5,247.5,405.5,249.0,397.5,249.5,389.5,250.0,381.5,250.0,373.0,250.5,365.0,251.0,356.5,251.0,348.5,252.0,340.5,253.0,332.5,253.5,324.5,254.0,316.5,254.5,308.5,255.0,299.5,256.0,291.0,257.0,282.5,257.5,275.0,257.5,266.5,258.0,258.5,258.5,250.5,259.0,243.0,259.5,235.5,260.0,227.0,260.5,218.0,261.0,209.5,261.0,201.5,261.0,193.0,261.5" stroke="black" stroke-width="2" fill="none" />
<path d="M194.5,258.0,205.0,267.0,187.5,275.0,173.5,283.0,177.5,291.0,190.5,299.0,196.0,307.0,205.0,314.5,219.0,322.5" stroke="black" stroke-width="2" fill="none" />
<path d="M219.5,316.0,227.0,316.0,235.0,315.5,243.0,315.5,251.0,315.0,259.5,315.0,267.5,315.0,275.5,315.0,283.5,314.5,291.5,314.0,299.5,313.5,307.5,313.0,316.0,312.5,324.0,311.5,332.0,310.5,339.5,309.5,347.0,308.5,355.0,308.0,362.5,307.0,370.5,306.0,378.5,305.5,386.5,305.0,394.0,305.0,402.0,304.5" stroke="black" stroke-width="2" fill="none" />
<path d="M403.0,307.0,395.0,314.0,387.0,322.0" stroke="black" stroke-width="2" fill="none" />
<path d="M380.0,322.5,388.0,315.0,396.0,308.0" stroke="black" stroke-width="2" fill="none" />
<path d="M387.5,307.5,379.0,315.0,371.0,322.5" stroke="black" stroke-width="2" fill="none" />
<path d="M363.5,321.5,371.5,314.5,380.0,307.5" stroke="black" stroke-width="2" fill="none" />
<path d="M377.5,312.5,386.0,310.5" stroke="black" stroke-width="2" fill="none" />
<path d="M372.0,306.0,364.0,313.5,355.5,321.0,347.5,328.5" stroke="black" stroke-width="2" fill="none" />
<path d="M340.0,329.5,348.0,321.5,356.5,314.0" stroke="black" stroke-width="2" fill="none" />
<path d="M348.0,316.0,339.5,323.5,331.5,331.5" stroke="black" stroke-width="2" fill="none" />
<path d="M323.0,330.0,331.0,322.0,338.5,314.0" stroke="black" stroke-width="2" fill="none" />
<path d="M338.0,318.0,346.0,316.0,351.5,313.0" stroke="black" stroke-width="2" fill="none" />
<path d="M341.0,324.0,333.5,324.0,325.5,324.5,317.0,325.5,308.5,326.5,300.0,327.5,291.5,328.0,283.5,328.5,275.0,329.5,266.5,330.0" stroke="black" stroke-width="2" fill="none" />
<path d="M261.0,327.0,269.0,319.5,277.0,312.0,285.0,304.5,292.5,297.0,300.0,288.5,307.5,281.0,315.5,273.5,323.0,267.0,331.0,259.5,339.5,251.5,347.5,244.0" stroke="black" stroke-width="2" fill="none" />
<path d="M339.5,244.0,331.5,251.5,324.0,258.5,316.0,266.0,308.0,273.5,300.5,281.5,292.0,288.5,284.0,295.5,275.5,302.5,267.5,310.0,259.5,317.0,251.5,324.5" stroke="black" stroke-width="2" fill="none" />
<path d="M251.0,318.0,259.0,310.5,267.0,303.5,275.0,296.0,283.5,288.5,291.5,280.5,299.5,273.0,307.5,265.5,315.5,258.0,323.0,250.5,330.5,243.5" stroke="black" stroke-width="2" fill="none" />
<path d="M324.5,245.0,316.0,252.0,307.5,259.0,299.5,266.5,291.5,274.5,283.5,282.0,275.5,289.0,267.0,295.5,259.0,302.5,250.5,309.5,242.5,316.5" stroke="black" stroke-width="2" fill="none" />
<path d="M236.0,317.0,244.0,309.5,252.0,302.5,259.5,295.5,267.5,288.0,275.5,280.5,283.0,273.5,291.0,267.0,298.5,259.5,306.0,251.5,313.5,243.5" stroke="black" stroke-width="2" fill="none" />
<path d="M315.0,237.0,307.0,244.5,299.5,251.5,291.5,258.5,284.5,266.5,276.5,274.0,268.0,281.0,259.5,288.0,251.0,295.0,243.0,302.5,235.0,310.0,227.0,317.0" stroke="black" stroke-width="2" fill="none" />
<path d="M226.5,323.5,234.5,323.5,242.5,323.5,251.0,323.5,259.5,323.0,268.0,322.5,276.5,322.5,284.5,322.0,293.0,322.0,300.5,321.5,309.0,321.0,316.5,320.0,324.5,319.5,332.5,318.5,340.5,318.0,349.0,317.0,356.5,316.5,364.5,316.5,372.5,316.5,380.5,316.5" stroke="black" stroke-width="2" fill="none" />
<path d="M404.5,313.5,413.0,306.0" stroke="black" stroke-width="2" fill="none" />
<path d="M421.5,297.0,413.0,297.0,405.0,297.0,396.5,297.5,388.5,297.0,380.0,297.0,371.5,297.0,363.5,297.0,355.5,298.0,347.0,299.5,339.0,300.5,331.0,302.0,323.5,303.0,315.5,303.5,308.0,304.0,300.0,304.5,292.0,305.0,284.0,305.5,276.0,306.0,267.5,306.5,260.0,307.5,252.5,308.0,244.5,309.0,236.5,309.0,228.5,309.5,220.0,309.5,212.0,309.5,204.5,309.5" stroke="black" stroke-width="2" fill="none" />
<path d="M212.0,309.5,220.0,302.0,228.0,294.5,236.0,287.5,244.0,280.0,252.5,272.5,261.0,265.0,268.5,257.5,276.5,250.0,284.5,243.0,292.5,235.5" stroke="black" stroke-width="2" fill="none" />
<path d="M300.0,236.0,291.5,243.5,283.5,251.0,275.0,258.5,267.0,266.0,259.0,273.5,251.0,281.0,243.0,288.0,235.0,296.0,227.5,303.5,219.5,311.0" stroke="black" stroke-width="2" fill="none" />
<path d="M218.5,312.0,226.5,311.5,235.0,312.0,243.0,312.0,251.5,312.0,260.0,312.0,268.0,311.5" stroke="black" stroke-width="2" fill="none" />
<path d="M269.0,312.5,277.0,317.5" stroke="black" stroke-width="2" fill="none" />
<path d="M284.5,319.5,276.5,320.0,269.0,320.5,261.0,320.5,253.0,321.0,245.5,321.0,237.5,321.0" stroke="black" stroke-width="2" fill="none" />
<path d="M237.0,332.0,244.5,332.0,252.5,334.0,260.0,335.5,267.5,334.5,275.0,335.0,283.5,336.0,291.5,336.0,299.5,336.0,307.5,336.0,315.5,336.0,324.0,336.0,331.5,335.0,340.0,334.5,348.5,333.5,357.0,332.5,365.0,330.5,373.0,329.5,381.5,327.5,390.0,325.0,398.0,322.0,406.0,319.0,413.5,316.5,421.5,311.5,429.5,306.5,437.5,295.5" stroke="black" stroke-width="2" fill="none" />
<path d="M426.0,288.5,418.5,288.5,411.0,288.5,403.0,288.5,395.0,289.0,387.5,289.5,380.0,289.5,372.0,290.0,364.5,290.0,357.0,290.5,349.0,291.0,341.0,292.5,333.0,293.5,325.0,294.5,317.0,295.0,308.5,296.0,299.5,296.0,291.0,296.5,283.0,296.5,275.0,297.0,267.0,297.5,259.0,298.5,251.0,299.5,243.0,300.5,235.0,301.0,227.0,301.0,220.0,301.0,212.5,301.5,204.5,301.5,196.5,302.5" stroke="black" stroke-width="2" fill="none" />
<path d="M202.5,302.5,211.0,295.0,219.5,288.0,227.5,280.0,235.5,272.0,243.5,264.5,251.5,257.0,260.0,250.0,268.5,243.0,277.0,236.0" stroke="black" stroke-width="2" fill="none" />
<path d="M282.0,237.5,274.5,244.5,267.0,252.0,259.0,259.5,251.0,267.0,243.5,275.0,235.0,282.0,227.0,289.0,218.5,296.0,210.0,303.5" stroke="black" stroke-width="2" fill="none" />
<path d="M205.5,298.5,213.5,298.0,221.5,297.5,230.0,297.0,237.5,297.0,246.0,297.0,253.5,296.5,261.0,296.5,268.5,296.0" stroke="black" stroke-width="2" fill="none" />
<path d="M268.0,303.5,260.0,303.5,251.5,304.0,242.5,304.5,234.0,305.0,226.0,305.0,217.5,306.0" stroke="black" stroke-width="2" fill="none" />
<path d="M227.5,308.5,235.0,301.0,242.5,293.5,251.0,286.5,259.0,279.5,267.5,272.0,275.0,265.0,283.0,257.0,291.0,249.0,299.5,241.5,307.5,234.0" stroke="black" stroke-width="2" fill="none" />
<path d="M311.5,239.5,318.5,239.5,318.5,231.5,313.0,225.0,321.5,220.0,317.5,210.5,321.0,208.0,320.0,207.0" stroke="black" stroke-width="2" fill="none" />
<path d="M314.0,201.5,322.5,201.5,330.5,197.5,327.5,210.0,324.5,218.5,328.5,219.5,327.0,227.5,327.0,235.0,323.0,238.0" stroke="black" stroke-width="2" fill="none" />
<path d="M312.5,229.0,305.5,221.0,304.5,220.5" stroke="black" stroke-width="2" fill="none" />
<path d="M303.5,220.0,303.5,228.0,302.0,235.5" stroke="black" stroke-width="2" fill="none" />
<path d="M299.5,219.5,300.0,211.5,301.5,214.5,296.5,222.0,292.5,230.0,292.0,237.5,293.0,235.5,298.0,228.5,311.0,228.5,313.0,236.5,309.5,240.5,312.0,231.5,319.0,228.0" stroke="black" stroke-width="2" fill="none" />
<path d="M325.0,228.0,322.0,228.0,323.0,220.0" stroke="black" stroke-width="2" fill="none" />
<path d="M328.5,208.5,336.0,205.5,340.0,205.5,350.0,214.0,357.5,214.0" stroke="black" stroke-width="2" fill="none" />
<path d="M372.0,208.0,380.0,209.0" stroke="black" stroke-width="2" fill="none" />
<path d="M388.0,198.0,396.5,197.5" stroke="black" stroke-width="2" fill="none" />
<path d="M397.0,190.5,389.0,191.0" stroke="black" stroke-width="2" fill="none" />
<path d="M389.5,182.5,397.0,182.0" stroke="black" stroke-width="2" fill="none" />
<path d="M403.0,205.0,411.0,204.5" stroke="black" stroke-width="2" fill="none" />
<path d="M419.0,221.5,411.0,221.5,403.0,222.0" stroke="black" stroke-width="2" fill="none" />
<path d="M412.0,227.5,420.5,226.0" stroke="black" stroke-width="2" fill="none" />
<path d="M418.0,229.5,410.0,230.0,402.5,231.0,394.5,231.5" stroke="black" stroke-width="2" fill="none" />
<path d="M393.5,236.5,385.5,244.5,378.5,252.5" stroke="black" stroke-width="2" fill="none" />
<path d="M371.5,251.0,379.5,243.0" stroke="black" stroke-width="2" fill="none" />
<path d="M372.0,245.0,364.0,252.0" stroke="black" stroke-width="2" fill="none" />
<path d="M355.5,249.5,363.5,241.5" stroke="black" stroke-width="2" fill="none" />
<path d="M356.5,244.0,348.0,251.5,339.5,258.5" stroke="black" stroke-width="2" fill="none" />
<path d="M339.5,265.5,331.0,273.5,323.0,281.0" stroke="black" stroke-width="2" fill="none" />
<path d="M332.0,283.0,340.0,275.5,347.5,268.0" stroke="black" stroke-width="2" fill="none" />
<path d="M358.5,267.0,349.5,274.5,341.0,282.0" stroke="black" stroke-width="2" fill="none" />
<path d="M347.5,282.0,355.5,275.0,363.5,268.0" stroke="black" stroke-width="2" fill="none" />
<path d="M371.0,267.5,363.5,275.5,355.5,282.5" stroke="black" stroke-width="2" fill="none" />
<path d="M357.5,281.0,367.5,289.0,351.5,292.5,345.0,302.0,345.0,314.0,352.5,317.0,356.0,314.0,361.5,309.0,366.0,311.0" stroke="black" stroke-width="2" fill="none" />
<path d="M354.0,315.0,350.0,308.0,356.0,298.5,353.0,295.5" stroke="black" stroke-width="2" fill="none" />
<path d="M353.0,286.5,345.0,286.5,339.0,292.0,337.0,298.0,346.0,291.0,343.0,297.5" stroke="black" stroke-width="2" fill="none" />
<path d="M333.5,297.5,329.0,304.5,324.0,314.5,323.5,318.5,325.5,319.5,327.5,316.5,332.5,318.5,341.0,315.0,341.5,311.0" stroke="black" stroke-width="2" fill="none" />
<path d="M330.5,315.5,323.5,323.0,316.0,330.5" stroke="black" stroke-width="2" fill="none" />
<path d="M308.0,330.0,316.0,322.0,324.0,314.5" stroke="black" stroke-width="2" fill="none" />
<path d="M325.0,308.0,317.0,315.5,309.0,323.0,301.0,330.5" stroke="black" stroke-width="2" fill="none" />
<path d="M290.5,330.0,298.0,323.0,305.0,315.5,313.0,308.0" stroke="black" stroke-width="2" fill="none" />
<path d="M309.0,306.5,300.5,314.0,292.5,321.5,284.0,329.0" stroke="black" stroke-width="2" fill="none" />
<path d="M275.0,328.0,284.0,321.5,292.5,314.0,301.0,306.0,309.0,298.5" stroke="black" stroke-width="2" fill="none" />
<path d="M305.0,290.5,313.0,290.5,322.0,289.0" stroke="black" stroke-width="2" fill="none" />
<path d="M316.0,282.5,324.0,274.5,331.5,267.0" stroke="black" stroke-width="2" fill="none" />
<path d="M349.0,280.5,354.0,288.5,355.0,290.5,361.0,299.0,355.5,311.0,358.5,316.5,370.5,310.5,376.5,309.5,380.5,296.5,388.0,292.5,396.0,285.5,404.0,283.5" stroke="black" stroke-width="2" fill="none" />
<path d="M402.0,286.5,400.0,294.5,398.5,302.5,384.0,305.5,392.0,307.5,398.0,299.0" stroke="black" stroke-width="2" fill="none" />
<path d="M402.5,292.0,398.5,292.0,397.5,292.5,388.5,299.5,388.5,301.0,382.5,300.0,392.0,293.0,397.0,284.5" stroke="black" stroke-width="2" fill="none" />
<path d="M391.5,278.0,383.0,278.0,375.0,278.0,372.0,293.0,366.0,294.0,371.0,294.5,371.0,288.0,364.0,280.0" stroke="black" stroke-width="2" fill="none" />
<path d="M370.5,279.0,378.5,278.5,383.0,281.5,376.0,290.0,390.5,298.5,393.5,301.5,394.0,305.5,396.0,304.5,405.5,303.0" stroke="black" stroke-width="2" fill="none" />
<path d="M414.5,275.5,406.5,271.5" stroke="black" stroke-width="2" fill="none" />
<path d="M408.0,269.5,416.5,277.0,418.5,285.0,410.5,287.5,417.0,289.5,414.0,297.5,406.0,304.0,403.5,295.0,410.5,290.5,412.0,289.5" stroke="black" stroke-width="2" fill="none" />
<path d="M408.0,279.5,400.0,276.5,394.5,273.5,393.0,280.5,387.0,285.5,380.5,282.0,376.5,298.0,371.0,312.0,364.0,311.0,367.5,305.0,377.0,305.0,386.0,301.5,377.5,299.5,383.5,289.5,388.5,284.5,388.5,282.5,393.0,274.0" stroke="black" stroke-width="2" fill="none" />
<path d="M387.5,265.5,379.5,273.0" stroke="black" stroke-width="2" fill="none" />
<path d="M379.0,267.5,371.0,275.0" stroke="black" stroke-width="2" fill="none" />
<path d="M387.5,258.5,395.0,251.0,402.0,243.5" stroke="black" stroke-width="2" fill="none" />
<path d="M404.0,249.5,412.0,242.0" stroke="black" stroke-width="2" fill="none" />
<path d="M403.0,236.0,395.5,243.0,388.0,250.0" stroke="black" stroke-width="2" fill="none" />
<path d="M416.0,252.5,413.0,250.0,409.5,242.0,405.0,234.5,395.0,231.0,391.5,231.0,392.5,222.5,393.5,214.0,395.0,205.0,396.0,196.5,397.0,189.0,398.5,181.5,399.5,174.0,401.0,166.5,403.0,158.5,404.0,150.5,412.5,146.5,415.5,138.5,415.5,138.5,407.5,142.0" stroke="black" stroke-width="2" fill="none" />
<path d="M410.5,142.5,403.0,142.5" stroke="black" stroke-width="2" fill="none" />
<path d="M403.5,134.0,411.5,133.5" stroke="black" stroke-width="2" fill="none" />
<path d="M403.0,127.5,411.0,126.5,419.0,126.0" stroke="black" stroke-width="2" fill="none" />
<path d="M413.0,144.0,421.0,145.0" stroke="black" stroke-width="2" fill="none" />
<path d="M411.5,145.0,419.0,148.0,424.5,143.0,432.5,144.0" stroke="black" stroke-width="2" fill="none" />
<path d="M408.5,151.5,413.0,149.5,410.0,158.5,408.0,166.0,407.0,174.0,406.0,182.5,405.0,190.0,403.0,198.0,401.5,207.5,400.5,215.5,399.0,223.5,396.0,226.5,404.5,227.0,410.5,227.0,416.0,220.0" stroke="black" stroke-width="2" fill="none" />
<path d="M420.0,231.0,425.0,238.5,424.0,246.5,418.0,254.5,423.0,249.0" stroke="black" stroke-width="2" fill="none" />
<path d="M436.0,255.5,427.5,256.0,420.0,256.0,412.0,256.0,404.0,256.0,396.0,255.5,388.0,255.5,380.0,255.5,372.5,256.5,364.0,257.0,356.5,258.0,348.5,259.5,341.0,260.0,333.0,260.0,325.0,260.5,317.0,261.0,309.0,261.5,301.0,262.5,292.5,263.0,284.0,263.5,276.5,264.5,268.5,265.0,261.0,266.0,252.5,266.5,244.5,266.5,236.5,266.5,228.0,266.5,220.0,267.0,211.0,268.0,202.5,268.0,194.0,269.0,185.0,269.5,177.0,270.0" stroke="black" stroke-width="2" fill="none" />
<path d="M179.5,264.0,188.0,257.0,195.5,249.5,203.5,242.0,212.0,234.5,220.0,227.0,228.5,219.5" stroke="black" stroke-width="2" fill="none" />
<path d="M230.0,214.0,221.5,221.0,213.0,228.0,204.5,235.0,196.0,242.5,187.5,249.5,179.5,256.5,171.0,263.0" stroke="black" stroke-width="2" fill="none" />
<path d="M170.5,257.0,179.0,256.5,187.5,256.0" stroke="black" stroke-width="2" fill="none" />
<path d="M186.5,257.5,178.5,258.0,170.5,259.0,162.5,259.5,155.0,260.0,147.5,260.5,140.5,261.0,133.0,261.0,125.0,261.0,117.0,261.0,109.0,262.0,101.0,262.5" stroke="black" stroke-width="2" fill="none" />
<path d="M100.5,269.5,108.5,269.0,116.0,269.5,124.0,269.0,132.0,268.5,140.5,268.0,148.0,268.0,155.0,267.5,162.5,266.5,170.0,266.0" stroke="black" stroke-width="2" fill="none" />
<path d="M162.5,263.5,170.0,256.0,178.0,248.5,186.5,241.5,194.5,234.0,202.5,226.5,211.0,219.0,219.5,211.5,228.0,204.0" stroke="black" stroke-width="2" fill="none" />
<path d="M219.0,203.5,211.0,211.0,203.0,218.5,195.0,225.5,187.5,232.0,179.5,239.5,171.5,247.5,163.0,255.0,155.0,263.0" stroke="black" stroke-width="2" fill="none" />
<path d="M149.0,262.5,156.5,255.0,164.5,248.0,172.0,240.5,180.0,233.5,188.5,226.5,196.5,218.5,205.0,211.0,213.5,204.0,221.5,196.5" stroke="black" stroke-width="2" fill="none" />
<path d="M219.5,188.0,211.5,195.5,204.0,202.5,196.5,210.0,188.5,217.5,180.5,225.0,173.0,232.5,165.0,240.0,157.0,247.0,149.0,254.5,141.0,262.0" stroke="black" stroke-width="2" fill="none" />
<path d="M132.0,264.0,140.0,256.5,148.0,249.0,156.5,241.0,165.0,233.5,172.5,226.0,180.5,218.0,187.5,210.5,195.0,203.0,203.0,195.5,211.0,187.5,219.5,180.0" stroke="black" stroke-width="2" fill="none" />
<path d="M219.5,169.0,211.5,177.0,204.0,185.0,196.5,193.0,188.5,201.5,181.0,209.0,173.0,217.0,165.5,225.0,157.5,232.5,148.5,239.5,140.5,246.5,132.5,254.0,124.5,261.0" stroke="black" stroke-width="2" fill="none" />
<path d="M117.5,259.0,125.5,251.5,134.0,244.0,142.0,236.5,150.0,229.5,157.5,222.5,165.5,215.0,173.0,207.5,181.0,199.5,189.0,192.0,196.5,185.0,204.0,178.0,211.5,170.0,219.5,162.0" stroke="black" stroke-width="2" fill="none" />
<path d="M220.0,154.5,212.0,162.0,203.5,169.5,195.5,177.0,187.0,184.5,178.5,192.5,171.0,200.5,163.5,208.0,155.5,216.0,147.5,223.5,140.0,231.5,132.0,238.5,124.0,246.0,116.0,253.0" stroke="black" stroke-width="2" fill="none" />
<path d="M115.0,251.0,123.0,250.0,131.0,249.5,138.5,248.5" stroke="black" stroke-width="2" fill="none" />
<path d="M142.5,251.0,150.5,256.0" stroke="black" stroke-width="2" fill="none" />
<path d="M170.5,275.5,178.5,274.5,186.5,274.0,194.5,273.0,202.0,272.5,209.5,272.0,218.0,271.5,226.5,271.5,234.5,271.5,242.0,271.5,249.5,271.0,257.5,270.5,265.5,270.0,273.5,269.5,281.5,269.0,289.5,269.0,297.5,269.0,305.5,269.0,313.5,268.5,322.0,268.0,330.0,267.5,338.0,267.0,345.5,266.0,353.5,266.0,361.5,265.5,369.5,265.5,377.5,264.5,386.0,263.5,394.5,262.0,403.0,261.5,411.0,260.5,419.5,260.0,428.0,260.0,436.0,260.0" stroke="black" stroke-width="2" fill="none" />
<path d="M436.5,269.5,428.5,270.0,420.0,270.5,412.5,271.0,404.5,271.0,396.0,271.5,388.0,272.0,380.0,272.5,372.5,272.5,365.0,272.5,357.5,273.0,349.5,273.0,341.5,274.0,333.5,274.5,326.0,275.0,318.0,275.5,309.5,276.5,301.0,277.5,293.5,278.0,285.0,278.5,276.5,279.0,268.0,279.5,260.5,280.0,252.5,280.5,244.5,281.0,236.0,281.0,228.0,282.0,220.5,282.5,211.5,283.5,203.5,284.5,195.0,285.5,186.0,286.0,178.0,286.5" stroke="black" stroke-width="2" fill="none" />
<path d="M178.5,283.0,186.5,282.5,194.5,281.5,203.0,280.5,211.5,280.0,219.5,279.0,228.5,278.0,237.0,277.5,245.0,276.5,252.5,276.0,260.0,275.5,268.0,275.5" stroke="black" stroke-width="2" fill="none" />
<path d="M265.5,285.5,258.0,286.0,250.0,286.5,242.0,287.0,234.5,287.5,227.5,287.5,220.0,288.5,212.5,289.0,205.5,289.5,197.5,290.0" stroke="black" stroke-width="2" fill="none" />
<path d="M205.0,295.0,212.5,288.0,220.0,281.0,228.0,274.0,236.0,266.5,243.5,259.5,251.0,252.0,258.5,244.5,266.5,237.5" stroke="black" stroke-width="2" fill="none" />
<path d="M252.0,237.0,243.5,245.0,236.0,252.5,227.5,260.0,218.5,267.0,210.5,274.5,202.5,282.0,195.0,289.0" stroke="black" stroke-width="2" fill="none" />
<path d="M201.5,290.0,209.5,282.5,218.0,275.0,226.5,267.0,235.0,259.0,243.5,251.5,251.5,244.0" stroke="black" stroke-width="2" fill="none" />
<path d="M242.0,235.5,234.5,243.0,227.0,251.0,219.5,258.5,211.5,266.0,204.0,274.0,196.0,281.0,188.0,288.5" stroke="black" stroke-width="2" fill="none" />
<path d="M186.5,295.0,194.5,294.5,203.0,293.5,211.5,293.0,219.0,292.0,227.0,291.5,235.5,290.5,244.0,289.5,252.5,289.0,261.0,288.5,269.5,288.0,277.0,287.5,285.0,286.5,292.5,285.5,300.5,284.5,308.5,283.5,316.0,283.0,324.0,282.5,332.0,282.0,340.0,281.5,348.0,281.0,356.0,281.0,364.5,280.5,373.0,280.5,380.5,280.5,388.5,280.5,397.0,280.5,404.5,280.0,412.5,280.0,420.5,280.0,428.0,279.5,436.5,279.0" stroke="black" stroke-width="2" fill="none" />
<path d="M438.0,277.0,438.0,269.5,438.5,262.0,439.0,253.5,440.5,245.5,440.5,237.5,437.5,230.0,426.5,222.0,411.0,222.0,412.0,214.0,413.0,206.0,413.0,198.0,414.0,189.5,416.0,181.5,416.5,173.0,418.0,165.0,420.0,157.0,421.0,149.0,421.5,137.0,425.5,129.0,430.5,119.5,436.5,119.0,454.5,113.0,464.5,105.5,479.0,97.5,488.0,90.0,483.0,87.5,475.0,87.0,467.0,87.5,458.5,91.5,450.5,96.0,442.0,100.5,434.0,105.5,426.0,108.0,418.0,113.0,410.5,119.0,402.5,124.0,394.5,123.0,386.5,123.0,378.5,122.0,370.5,122.5,363.0,121.5,355.0,122.0,347.5,121.0,339.5,121.5,331.5,121.5,323.0,125.0,315.0,125.0,310.0,129.0,309.0,117.0,309.0,108.5,308.0,100.5,308.0,92.0,307.0,84.0,307.0,76.0,301.5,78.5,294.0,78.5,286.0,73.5" stroke="black" stroke-width="2" fill="none" />
<path d="M284.5,76.5,276.5,83.5,269.0,91.0,260.5,98.5,252.0,106.0,243.5,113.5" stroke="black" stroke-width="2" fill="none" />
<path d="M252.0,114.0,260.5,113.5" stroke="black" stroke-width="2" fill="none" />
<path d="M269.0,120.0,276.5,112.5,284.5,105.5,292.0,98.0,300.0,90.5,307.5,83.0" stroke="black" stroke-width="2" fill="none" />
<path d="M301.0,83.0,292.5,91.0,285.0,99.0,277.0,107.0,268.5,115.0,260.0,122.5" stroke="black" stroke-width="2" fill="none" />
<path d="M254.0,130.5,262.0,130.5,270.5,132.0,278.5,132.0,286.5,133.5,294.5,131.5,303.0,131.0,312.0,136.0,320.5,136.5,328.5,137.5,336.5,137.5,345.0,138.5,353.0,136.5,361.0,136.5,369.0,137.5,380.0,139.0" stroke="black" stroke-width="2" fill="none" />
<path d="M374.0,146.5,378.0,142.5,371.0,150.5,380.0,150.0,380.5,158.0,381.0,166.0,381.0,173.5,388.0,175.5,387.0,183.0,388.0,190.5" stroke="black" stroke-width="2" fill="none" />
<path d="M396.5,203.0,388.5,203.0,381.0,203.5,372.5,204.5,365.0,204.5,357.0,205.0,349.0,206.0,340.5,206.5,332.0,207.0,324.5,207.5,316.0,208.0,307.5,208.5,299.0,209.0,290.5,210.0,282.5,210.5,274.5,210.5,266.5,210.5,259.0,211.0,251.5,211.5,243.0,212.0,235.5,212.5,227.5,213.5,219.0,214.0,211.0,215.0,203.5,215.0,196.0,216.0,188.5,217.0,180.5,218.0,173.0,218.5,164.5,219.0,155.5,219.5,147.5,219.5,139.0,219.5,131.0,219.5,123.0,219.5,114.5,219.5,106.5,220.0,99.0,221.0,91.0,221.5" stroke="black" stroke-width="2" fill="none" />
<path d="M90.0,228.5,98.5,228.5,106.5,228.5,115.0,228.0,123.5,228.0,132.0,227.5,140.5,228.0,149.0,228.0,157.5,228.0,165.5,227.5,173.5,226.5,181.5,226.5,189.0,225.5,197.0,225.0,204.5,224.0,211.5,223.0,219.5,222.5,227.5,221.5,235.0,221.0,242.0,220.5,249.5,220.0,258.0,219.0,266.0,219.0,274.5,218.5,283.5,218.0,292.0,217.5,300.0,217.5,308.0,216.5,316.0,215.5,324.0,215.0,332.0,214.0,339.5,214.0,348.0,213.5,356.5,213.0,364.5,212.5,373.0,212.0,381.5,212.0,390.0,211.5,398.0,211.0,406.0,211.0,413.5,210.5,421.5,210.0,429.0,209.0,436.5,208.5" stroke="black" stroke-width="2" fill="none" />
<path d="M436.0,234.5,427.5,235.0,420.0,235.0,412.0,235.0,404.0,235.0,396.0,234.5,388.0,234.5,380.0,234.5,372.5,235.5,364.0,236.0,356.5,237.0,348.5,238.5,341.0,239.0,333.0,239.0,325.0,239.5,317.0,240.0,309.0,240.5,301.0,241.5,292.5,242.0,284.0,242.5,276.5,243.5,268.5,244.0,261.0,245.0,252.5,245.5,244.5,245.5,236.5,245.5,228.0,245.5,220.0,246.0,211.0,247.0,202.5,247.0,194.0,248.0,185.0,248.5,177.0,249.0,169.0,249.5,161.0,250.0,153.5,251.0,146.5,251.5,139.0,252.0,131.5,252.0,124.0,252.0,116.5,252.5,109.0,253.0,101.5,253.0" stroke="black" stroke-width="2" fill="none" />
<path d="M100.0,247.5,108.0,246.0,115.5,245.5,123.0,244.5,131.0,243.0,138.5,242.5,147.0,242.0,155.0,241.5,163.0,241.0,170.5,240.0,178.5,240.0,186.5,239.5,194.5,239.0,203.0,239.0,211.5,239.5,220.0,239.0,228.0,238.5,236.5,238.0,244.5,238.0,252.5,238.0,261.0,237.5,269.0,237.0,276.5,236.5,284.0,235.5,291.5,234.5,300.0,234.0,308.0,233.0,316.0,232.5,324.0,231.5,332.5,231.0,340.5,230.0,348.0,230.0,356.0,229.5,363.5,229.5,371.5,229.5,379.5,229.0,387.0,229.0,395.5,229.0,404.0,228.5,412.0,227.5,420.0,227.0,428.0,226.5,436.0,226.5" stroke="black" stroke-width="2" fill="none" />
<path d="M435.0,215.5,427.0,216.5,419.0,217.0,411.0,217.5,403.0,218.0,395.5,218.0,388.0,219.0,380.0,219.5,372.5,221.0,364.5,221.5,356.5,222.0,348.5,222.5,340.0,223.0,331.5,223.0,323.5,223.5,316.0,224.0,308.0,225.0,300.0,225.5,292.0,226.0,283.5,226.0,275.0,226.0,267.0,226.0,258.5,225.5,250.5,226.0,242.5,226.5,234.0,227.5,226.5,229.0,219.0,230.0,211.5,231.0,203.5,232.0,195.5,232.5,188.0,233.5,180.0,234.5,172.0,235.0,164.0,235.0,156.0,235.5,148.0,236.0,139.5,236.5,131.5,236.5,123.0,236.5,115.0,236.5,106.5,236.5,98.5,236.5,91.0,237.0" stroke="black" stroke-width="2" fill="none" />
<path d="M72.5,240.0,79.5,248.5,85.5,257.0,91.5,265.0" stroke="black" stroke-width="2" fill="none" />
<path d="M104.0,273.5,111.5,272.0,120.0,271.5,128.0,270.5,136.0,269.5,144.5,269.0,152.5,268.0,161.0,267.5,169.0,266.0,177.0,264.0,185.5,263.0,189.0,265.0" stroke="black" stroke-width="2" fill="none" />
<path d="M190.0,257.0,198.5,259.5,206.5,262.5" stroke="black" stroke-width="2" fill="none" />
<path d="M204.5,258.0,212.5,251.0,221.0,244.0,229.0,236.0,237.0,228.5" stroke="black" stroke-width="2" fill="none" />
<path d="M235.0,236.0,227.5,243.0,219.5,250.5,211.5,258.5,203.0,266.0,194.5,273.0,187.0,280.0" stroke="black" stroke-width="2" fill="none" />
<path d="M187.0,276.0,179.0,283.0" stroke="black" stroke-width="2" fill="none" />
<path d="M171.5,283.5,179.5,277.5,187.5,274.0,196.0,269.0,204.0,266.5,212.5,266.0,220.5,267.5,228.5,270.0,237.0,272.0,245.0,273.0,253.0,273.0,261.0,274.0,268.5,276.5,276.5,276.0,284.0,276.0,292.5,275.5,300.5,275.5,308.5,275.5,316.5,275.0,325.0,274.0,332.5,274.0,340.5,273.0,348.5,273.0,356.0,272.5,364.0,272.5,372.0,270.5,380.0,270.0,388.0,268.5,396.5,266.5,409.5,269.0" stroke="black" stroke-width="2" fill="none" />
<path d="M410.0,270.0,420.0,278.5,420.0,287.0,418.0,295.0,413.5,303.0,412.0,299.5,417.0,296.5" stroke="black" stroke-width="2" fill="none" />
<path d="M401.0,319.5,419.0,312.0,430.5,304.0,435.5,296.5,441.5,288.5,443.5,280.5,443.5,272.5" stroke="black" stroke-width="2" fill="none" />
<path d="M442.5,270.0,441.5,278.0" stroke="black" stroke-width="2" fill="none" />
<path d="M419.5,248.5,421.5,240.0,416.5,232.0" stroke="black" stroke-width="2" fill="none" />
<path d="M394.5,195.0,386.5,195.0,378.0,195.5,370.0,196.5,362.0,196.5,354.0,197.0,346.5,197.5,338.5,198.5,330.5,199.0,322.5,200.0,315.0,200.0,307.0,200.0,298.5,200.5,290.5,201.0,282.5,201.5,275.5,202.0,267.5,202.5,259.5,203.5,251.0,204.0,243.5,204.0,235.5,204.5,227.5,205.5,219.5,206.0,211.5,207.0,203.5,208.0,195.5,208.5,187.5,209.5,179.5,210.5,171.5,211.0,163.5,211.5,155.5,211.0,147.0,211.5,138.0,212.0,130.0,212.5,122.0,212.5,114.0,212.5,106.5,212.5,98.5,213.5,91.0,214.0" stroke="black" stroke-width="2" fill="none" />
<path d="M91.0,204.5,99.5,204.0,107.5,204.0,116.0,204.0,124.5,203.5,132.5,202.5,140.5,202.5,148.5,202.0,156.0,201.5,164.0,201.5,172.0,201.5,179.5,201.0,187.0,200.0,195.0,199.5,203.0,199.0,211.0,198.5,219.0,198.0,227.5,197.0,236.0,196.5,244.0,196.5,252.5,195.5,260.0,195.5,268.0,195.5,276.5,195.5,284.5,195.0,292.5,195.0,300.5,194.0,308.0,193.5,315.5,192.5,324.0,192.0,332.0,191.5,340.0,191.0,348.0,190.5,356.0,190.0,363.5,189.5,371.5,189.0,379.0,188.0,387.0,186.5,395.0,185.5" stroke="black" stroke-width="2" fill="none" />
<path d="M386.5,208.5,380.0,205.5,372.5,205.0,372.0,198.0,371.5,196.0" stroke="black" stroke-width="2" fill="none" />
<path d="M377.0,211.5,369.0,214.0,371.0,199.0,361.5,202.5,353.5,202.5,345.5,202.5,342.5,192.5,336.5,194.5,329.5,193.5,329.5,185.5,333.5,181.0,337.0,173.0,331.0,169.5,332.0,178.0,328.5,183.0" stroke="black" stroke-width="2" fill="none" />
<path d="M316.0,188.5,307.5,196.0" stroke="black" stroke-width="2" fill="none" />
<path d="M297.5,195.5,305.5,188.0,313.5,180.5" stroke="black" stroke-width="2" fill="none" />
<path d="M314.5,171.0,306.5,178.5,299.0,186.0" stroke="black" stroke-width="2" fill="none" />
<path d="M291.5,187.0,299.5,179.5,308.0,172.0" stroke="black" stroke-width="2" fill="none" />
<path d="M309.5,164.5,301.0,171.5,292.5,179.0" stroke="black" stroke-width="2" fill="none" />
<path d="M291.5,171.0,299.5,164.5,307.5,157.5" stroke="black" stroke-width="2" fill="none" />
<path d="M306.0,150.0,297.5,157.0,289.5,164.0" stroke="black" stroke-width="2" fill="none" />
<path d="M296.0,168.0,295.5,169.5,300.0,182.5" stroke="black" stroke-width="2" fill="none" />
<path d="M305.0,196.5,301.0,191.5,298.5,193.5,298.5,185.5,290.0,182.5,283.5,179.5,291.5,172.0,291.0,167.0,303.0,158.0,302.5,150.5,302.5,148.5" stroke="black" stroke-width="2" fill="none" />
<path d="M301.0,147.0,293.0,154.5" stroke="black" stroke-width="2" fill="none" />
<path d="M288.0,150.0,295.0,158.0,288.5,161.5,295.5,171.5,293.0,176.0,290.0,179.0,302.0,183.0,302.0,177.0,311.0,170.0,311.0,175.0" stroke="black" stroke-width="2" fill="none" />
<path d="M332.0,184.5,324.0,185.0,316.5,186.0,309.0,186.5,301.5,186.5,294.0,187.0,285.5,187.0,278.0,187.0,269.5,187.5,261.5,188.0,253.5,188.5,245.5,189.0,237.0,189.0,229.0,189.0,220.5,189.0,213.0,189.5,205.0,189.5,197.0,190.5,189.5,191.0,181.5,191.0,173.0,191.5,165.0,192.0,157.0,193.5,149.5,194.5,141.5,195.5,133.5,196.5,125.5,197.0,117.5,198.0,109.0,198.5,100.5,198.5,92.5,199.5" stroke="black" stroke-width="2" fill="none" />
<path d="M92.0,189.0,100.0,188.0,107.5,187.5,115.0,187.0,123.5,186.5,131.5,185.5,139.5,185.5,148.0,185.0,156.5,185.0,164.5,184.5,172.5,183.5,181.0,183.5,188.5,183.0,196.0,183.0,204.0,183.0,212.0,182.5,220.0,182.5,228.0,182.5,236.5,182.5,245.0,182.0,252.5,181.0,261.0,180.0,268.5,179.0,276.5,178.5,284.5,178.0,292.5,178.0,301.0,177.0,309.5,176.5,317.5,176.5,325.5,177.0" stroke="black" stroke-width="2" fill="none" />
<path d="M324.5,167.5,316.0,168.0,307.5,169.0,299.5,170.0,291.0,171.0,283.0,171.5,275.0,171.5,266.5,171.5,258.0,172.0,250.0,172.0,242.0,173.0,234.5,173.5,227.0,174.0,218.5,174.0,210.5,174.5,202.5,174.5,194.0,174.5,185.5,174.5,177.5,174.5,169.5,175.0,161.5,176.0,153.0,177.0,145.0,178.0,137.0,179.0,129.5,180.0,121.0,180.0,113.5,180.0,106.0,180.0,99.0,180.0,91.0,181.0" stroke="black" stroke-width="2" fill="none" />
<path d="M90.5,172.0,98.5,171.5,107.0,171.5,115.0,171.0,122.5,170.5,130.5,170.0,139.0,169.5,147.0,169.5,155.5,169.5,163.5,169.0,171.5,168.5,179.5,168.0,187.0,168.0,195.0,168.0,203.0,168.0,211.5,167.5,219.5,167.0,228.5,166.5,237.0,165.5,245.0,165.0,252.5,164.5,260.5,163.5,268.5,163.5,276.0,163.0,283.0,163.0,291.0,163.0,299.0,162.5,307.0,161.5,315.0,160.5,323.0,159.5" stroke="black" stroke-width="2" fill="none" />
<path d="M325.5,156.0,328.5,154.0,328.5,148.0" stroke="black" stroke-width="2" fill="none" />
<path d="M326.0,144.0,323.5,152.0,324.5,160.0,324.5,168.0,325.5,176.0,326.0,184.5,327.0,192.5,329.0,201.0,330.0,203.5,338.5,201.0,347.0,202.5,352.0,202.5,353.5,202.0,361.5,202.0" stroke="black" stroke-width="2" fill="none" />
<path d="M361.5,224.0,364.5,219.5,372.5,209.5,364.5,202.5,360.5,196.0,361.0,188.0,359.0,186.0,350.5,178.0,342.5,176.5,339.5,187.0,338.5,175.0,345.5,170.0,342.0,165.0,340.0,163.0,329.0,164.5,331.0,162.5,331.5,156.5,336.0,151.5,336.5,148.5,342.5,147.5,343.5,149.5,341.5,154.5" stroke="black" stroke-width="2" fill="none" />
<path d="M324.0,149.5,316.5,150.0,309.0,150.5,301.0,151.5,292.5,152.0,283.5,153.0,275.5,154.0,267.0,154.5,258.5,155.5,250.5,156.5,242.5,157.0,234.5,158.0,226.5,158.5,219.0,159.0,211.5,159.5,204.5,160.0,197.0,160.0,189.0,160.0,181.0,160.0,173.0,161.0,165.0,161.5,157.0,162.0,149.5,162.0,141.5,162.5,134.0,163.0,126.5,163.0,118.0,163.5,109.5,163.5,101.5,163.0,93.5,163.0,85.5,163.5" stroke="black" stroke-width="2" fill="none" />
<path d="M84.0,157.5,92.0,156.5,100.5,156.0,108.5,155.0,117.0,154.5,125.0,154.0,133.0,153.5,141.0,154.0,149.0,153.5,157.5,153.0,165.5,152.0,173.0,152.0,180.5,151.5,188.0,151.0,195.5,151.0,203.0,151.0,210.5,150.5,217.5,150.0,225.0,149.0,233.0,148.5,241.0,148.0,249.0,147.5,258.0,147.0,266.5,146.0,275.0,146.0,284.0,145.0,292.0,144.5,300.5,144.5,308.5,144.5,316.5,144.5,325.0,144.0" stroke="black" stroke-width="2" fill="none" />
<path d="M324.5,144.5,332.5,144.5,340.5,145.0,348.5,145.0" stroke="black" stroke-width="2" fill="none" />
<path d="M345.5,133.5,345.0,125.5" stroke="black" stroke-width="2" fill="none" />
<path d="M364.5,127.0,372.5,127.0,381.0,127.0,389.0,127.0,397.5,127.5,399.5,129.5,387.5,138.5,396.0,137.5" stroke="black" stroke-width="2" fill="none" />
<path d="M404.0,148.5,396.5,149.5,388.5,150.0,381.0,151.0" stroke="black" stroke-width="2" fill="none" />
<path d="M361.0,176.0,359.0,184.0,358.5,192.0,353.5,193.0" stroke="black" stroke-width="2" fill="none" />
<path d="M347.5,199.5,345.5,191.5,344.0,185.5,345.0,177.5" stroke="black" stroke-width="2" fill="none" />
<path d="M352.5,172.5,349.0,180.5,340.0,184.5,330.5,186.5,337.5,192.0,336.5,200.0,336.0,212.5,339.0,215.5" stroke="black" stroke-width="2" fill="none" />
<path d="M320.0,200.5,312.0,197.5,305.0,199.5,297.0,200.0,289.5,200.0" stroke="black" stroke-width="2" fill="none" />
<path d="M296.5,197.5,288.5,197.5,285.0,205.0,277.0,206.5" stroke="black" stroke-width="2" fill="none" />
<path d="M272.5,210.0,278.5,211.5,268.5,220.0" stroke="black" stroke-width="2" fill="none" />
<path d="M285.0,222.0,290.0,214.0,286.0,213.5,279.0,212.0,272.0,212.0,267.0,207.5,272.0,201.5,282.5,196.5,289.5,192.5,285.5,191.5,283.0,189.5,280.5,183.5,274.5,178.5,275.5,170.5,275.5,161.5,276.5,153.0,282.0,152.0,277.0,151.0" stroke="black" stroke-width="2" fill="none" />
<path d="M281.5,150.0,289.5,142.5,297.5,143.5,306.0,144.0,312.0,146.5,311.5,154.5,309.5,162.5,313.5,166.5,310.5,174.5,303.0,178.5,305.0,186.5,302.5,189.0,296.5,201.5,291.5,207.0,287.5,215.0,283.5,214.5,277.5,218.0,279.5,220.0,281.0,224.0,289.5,219.0,293.5,206.0,298.5,208.0,308.0,205.0,310.0,208.5,311.0,217.5" stroke="black" stroke-width="2" fill="none" />
<path d="M325.0,218.0,319.5,214.5,310.0,226.5,301.5,238.0,296.5,240.0,285.5,233.0,289.0,226.0,291.0,226.0,292.0,218.0,295.0,214.0,299.0,212.0,302.0,203.5,313.0,196.0,314.0,187.0,309.5,188.0,310.5,180.0,312.5,179.0,305.5,174.0,305.5,170.5,306.0,166.5,301.0,162.5,300.0,157.0,298.0,149.0,292.0,152.0,287.0,144.5,279.0,143.0,271.0,141.5,263.5,141.5,255.5,140.0,248.0,138.5,239.5,138.5,237.5,127.0,233.5,125.0,225.5,126.0,217.5,128.0" stroke="black" stroke-width="2" fill="none" />
<path d="M218.0,129.5,226.0,134.0,234.0,135.0" stroke="black" stroke-width="2" fill="none" />
<path d="M236.0,124.0,228.0,125.0,219.5,125.5,212.0,126.5,203.5,127.0,195.0,127.0,186.5,127.5,178.5,127.5,171.0,128.0,163.0,128.5,155.5,129.0,147.5,130.0,139.5,130.0,131.5,131.0,123.5,131.5,115.0,132.0,106.5,132.5,98.5,132.5" stroke="black" stroke-width="2" fill="none" />
<path d="M99.5,127.0,107.0,119.0,115.0,111.5,123.0,104.0,131.5,97.0,140.0,89.5,148.0,82.0,156.0,74.5" stroke="black" stroke-width="2" fill="none" />
<path d="M149.0,76.0,140.5,83.0,132.5,90.5,124.5,97.5,116.5,105.0,109.0,112.0,100.5,119.5" stroke="black" stroke-width="2" fill="none" />
<path d="M97.5,116.5,105.5,115.5,114.0,115.5,122.5,115.0,130.5,115.0,138.5,114.0,146.5,113.5,154.5,113.0,162.5,113.0,170.5,112.5,178.5,112.0,187.0,111.5,195.5,111.0,204.0,110.0,212.0,109.5,219.5,109.0,227.5,108.5,235.5,108.0,243.0,108.0,250.5,108.0,258.5,108.0,266.5,107.0,274.5,106.5,283.0,105.5,291.0,105.0,299.0,104.0,307.0,104.0,315.0,104.0,323.5,104.0" stroke="black" stroke-width="2" fill="none" />
<path d="M308.5,105.5,300.0,113.0,291.5,120.5,283.0,127.5" stroke="black" stroke-width="2" fill="none" />
<path d="M283.0,120.0,291.5,113.0,299.5,106.0,307.5,99.0" stroke="black" stroke-width="2" fill="none" />
<path d="M307.0,90.0,299.0,97.5,291.0,105.0,283.5,113.0,275.5,120.5" stroke="black" stroke-width="2" fill="none" />
<path d="M274.0,124.5,256.0,130.5,259.0,135.0,259.5,137.0,267.5,138.0,274.5,138.0,282.5,138.0,290.5,138.0,298.5,138.0,306.5,139.5,313.5,141.5,321.0,141.5,329.0,141.5,336.5,141.5,344.5,141.5,352.5,142.5,360.5,142.5,369.0,142.0,377.5,143.0,385.5,143.5,393.5,142.0,401.5,141.5,407.5,134.5,415.5,132.0,425.5,130.0,433.5,127.0,441.5,121.0,449.5,116.0" stroke="black" stroke-width="2" fill="none" />
<path d="M430.0,110.5,421.5,116.5,429.0,114.5" stroke="black" stroke-width="2" fill="none" />
<path d="M309.0,114.5,300.5,122.0,292.5,129.5" stroke="black" stroke-width="2" fill="none" />
<path d="M299.0,140.0,307.0,132.5" stroke="black" stroke-width="2" fill="none" />
<path d="M308.0,124.0,300.5,132.0,292.0,139.5" stroke="black" stroke-width="2" fill="none" />
<path d="M283.0,152.0,286.5,160.0,285.5,167.5,277.5,171.5,281.5,177.0,287.0,182.0,295.0,184.0,297.0,179.5,301.0,166.5,308.5,160.0" stroke="black" stroke-width="2" fill="none" />
<path d="M300.0,159.0,295.5,158.0,289.0,156.5,284.0,167.0,282.5,163.0,282.5,155.0" stroke="black" stroke-width="2" fill="none" />
<path d="M305.0,148.5,304.5,157.0,306.5,154.0" stroke="black" stroke-width="2" fill="none" />
<path d="M301.0,107.5,309.0,107.0" stroke="black" stroke-width="2" fill="none" />
<path d="M308.0,87.5,300.0,88.0,291.5,88.5" stroke="black" stroke-width="2" fill="none" />
<path d="M294.0,81.5,286.0,89.0,277.5,96.5,269.5,104.0,261.5,111.5" stroke="black" stroke-width="2" fill="none" />
<path d="M252.5,112.5,260.0,105.0,268.0,98.0,276.0,91.0,284.0,83.5,292.0,76.5" stroke="black" stroke-width="2" fill="none" />
<path d="M284.5,67.5,276.5,75.0,268.0,82.5,259.5,90.0,252.0,98.5,244.0,106.5,236.0,114.5,227.5,122.0" stroke="black" stroke-width="2" fill="none" />
<path d="M219.5,118.5,227.5,111.0,235.5,103.0,243.5,95.5,251.5,88.0,259.5,80.5,267.0,72.5,275.0,65.0,282.5,57.5,290.5,49.5,298.0,41.0,306.0,33.5" stroke="black" stroke-width="2" fill="none" />
<path d="M306.5,27.5,298.5,34.5,291.0,42.0,283.0,49.5,275.5,56.5" stroke="black" stroke-width="2" fill="none" />
<path d="M275.5,51.0,283.5,44.0,292.0,37.0,300.0,29.5" stroke="black" stroke-width="2" fill="none" />
<path d="M290.5,30.0,282.5,37.0,275.0,44.5,267.0,51.5,259.0,58.5,251.0,66.0,242.5,73.5,234.5,81.0,226.0,88.5,217.5,95.5,209.0,103.0,201.0,110.5,194.0,118.0,186.5,125.0,179.0,132.5,171.5,139.5,163.5,146.5,156.5,154.0,148.5,161.0,140.5,168.5,133.0,176.0,124.5,183.5,116.5,191.5,109.0,200.0" stroke="black" stroke-width="2" fill="none" />
<path d="M108.5,192.5,117.0,192.5,124.5,192.0,132.0,192.0,140.0,192.0,148.0,191.5" stroke="black" stroke-width="2" fill="none" />
<path d="M151.5,190.0,159.5,183.5" stroke="black" stroke-width="2" fill="none" />
<path d="M171.0,168.0,179.0,168.0,187.0,167.5,195.0,167.5,203.5,167.5,212.0,167.0" stroke="black" stroke-width="2" fill="none" />
<path d="M211.0,153.0,203.5,153.5,195.5,154.5" stroke="black" stroke-width="2" fill="none" />
<path d="M211.5,144.5,203.0,144.0,194.5,144.0,186.5,144.5,178.5,145.0" stroke="black" stroke-width="2" fill="none" />
<path d="M172.5,137.5,180.0,137.5,188.0,137.0,195.5,136.5,203.5,136.5,211.0,136.0" stroke="black" stroke-width="2" fill="none" />
<path d="M214.5,139.5,206.5,147.0,198.0,155.0,190.0,163.0,182.0,170.5,173.5,177.5,165.5,185.0,156.5,192.5,148.5,200.0,140.5,207.5,132.5,214.5,124.5,222.0,116.0,229.5" stroke="black" stroke-width="2" fill="none" />
<path d="M117.0,227.5,124.5,227.0,132.5,226.0,140.0,225.0,147.5,224.0" stroke="black" stroke-width="2" fill="none" />
<path d="M147.5,241.0,139.5,241.5,132.0,242.5,124.0,243.5,116.0,244.0" stroke="black" stroke-width="2" fill="none" />
<path d="M115.0,246.5,123.0,239.5,130.5,232.0,138.5,225.0,147.0,217.5,155.0,209.0,163.0,200.5,171.0,192.5,179.0,185.0,187.5,177.0,195.0,169.5,203.0,162.0,211.0,155.0,219.5,147.5" stroke="black" stroke-width="2" fill="none" />
<path d="M221.0,138.5,212.5,146.0,204.0,154.0,196.0,161.5,187.5,169.5,179.0,177.0,171.0,184.5,163.0,192.5,154.5,200.5,146.0,208.5,138.0,216.5,130.5,223.5,123.0,231.0,115.0,238.5" stroke="black" stroke-width="2" fill="none" />
<path d="M117.5,235.5,125.5,235.5,133.0,234.5,141.0,234.0,148.5,233.0" stroke="black" stroke-width="2" fill="none" />
<path d="M154.5,256.0,146.0,256.5,138.5,256.5,131.0,257.0,123.5,257.5,116.0,258.5" stroke="black" stroke-width="2" fill="none" />
<path d="M115.0,264.0,123.0,263.5,131.0,263.0,139.5,263.0,147.5,263.0" stroke="black" stroke-width="2" fill="none" />
<path d="M171.5,287.5,179.5,291.5,188.0,293.5,196.5,295.0,198.0,298.5,205.5,301.0,213.5,306.0,221.5,308.5" stroke="black" stroke-width="2" fill="none" />
<path d="M228.0,275.5,226.0,273.5,217.5,270.0,209.5,272.0" stroke="black" stroke-width="2" fill="none" />
<path d="M211.5,272.5,219.5,271.5" stroke="black" stroke-width="2" fill="none" />
<path d="M212.0,272.5,204.5,272.5,197.0,273.0" stroke="black" stroke-width="2" fill="none" />
<path d="M196.5,256.0,204.5,249.0,212.5,242.0,220.0,235.0,228.0,228.0" stroke="black" stroke-width="2" fill="none" />
<path d="M228.5,224.5,220.5,225.0,213.0,226.0,204.5,227.0" stroke="black" stroke-width="2" fill="none" />
<path d="M196.0,233.0,204.5,233.0,212.5,232.0,220.5,231.5,228.5,230.5" stroke="black" stroke-width="2" fill="none" />
<path d="M223.5,225.0,231.5,234.0,239.0,240.5,247.0,244.5,255.5,247.5,264.0,249.5,272.0,251.5,279.5,253.5,287.5,254.5,297.5,254.5,305.5,255.0,310.5,257.0" stroke="black" stroke-width="2" fill="none" />
<path d="M292.5,285.5,300.5,285.5,309.0,286.5,317.0,284.5,325.0,283.5,333.0,283.0,341.0,287.0,338.0,282.5,327.5,286.5,329.5,291.0,319.5,294.5,319.5,298.5" stroke="black" stroke-width="2" fill="none" />
<path d="M320.0,300.0,320.0,296.0" stroke="black" stroke-width="2" fill="none" />
<path d="M299.5,301.0,291.5,307.5,283.5,314.5,275.0,321.5,267.0,328.5" stroke="black" stroke-width="2" fill="none" />
<path d="M269.0,313.5,278.0,315.5,282.0,317.5,290.0,319.0,298.0,320.0,303.0,318.5,308.0,320.5,316.0,318.5,324.0,314.0,326.0,305.0,332.0,298.5,334.0,287.5,344.0,282.0,352.0,282.0,359.5,282.0,367.5,282.0,375.5,281.0" stroke="black" stroke-width="2" fill="none" />
<path d="M300.0,231.0,292.5,226.5,292.5,218.5" stroke="black" stroke-width="2" fill="none" />
<path d="M271.5,200.5,263.5,199.0" stroke="black" stroke-width="2" fill="none" />
<path d="M262.5,198.0,270.0,197.5,273.5,204.5,281.5,197.0,284.5,200.0,290.5,189.5,291.5,193.5" stroke="black" stroke-width="2" fill="none" />
<path d="M262.5,210.5,256.0,209.5,248.0,203.5" stroke="black" stroke-width="2" fill="none" />
<path d="M219.5,193.5,211.0,194.0" stroke="black" stroke-width="2" fill="none" />
<path d="M218.5,201.5,210.0,202.0,202.0,202.0" stroke="black" stroke-width="2" fill="none" />
<path d="M196.0,208.0,204.0,208.0,212.0,207.5,220.0,207.5" stroke="black" stroke-width="2" fill="none" />
<path d="M219.5,215.5,211.0,216.5,203.5,217.5,195.0,218.0" stroke="black" stroke-width="2" fill="none" />
<path d="M195.5,241.0,203.5,240.5,211.5,240.0,219.0,239.5,227.0,239.0,235.0,238.5" stroke="black" stroke-width="2" fill="none" />
<path d="M226.5,248.5,219.0,249.0,211.5,249.5" stroke="black" stroke-width="2" fill="none" />
<path d="M188.5,297.0,196.5,307.0,204.5,313.5,212.5,319.5,221.0,322.5,229.0,322.0,237.5,324.0,246.0,327.5" stroke="black" stroke-width="2" fill="none" />
<path d="M147.5,217.0,139.5,217.5,131.5,218.5,123.5,219.5,115.5,220.0" stroke="black" stroke-width="2" fill="none" />
<path d="M107.5,215.5,115.0,208.0,122.5,200.5,131.0,193.5,139.0,186.5,147.5,179.0,155.0,172.0,163.0,164.0,171.0,156.0,179.5,148.5,187.5,141.0,195.5,134.0,204.0,127.0,212.0,120.0,220.0,113.5,228.0,106.5,235.5,99.0,242.5,91.5,250.0,84.0,257.5,76.0,265.5,68.5" stroke="black" stroke-width="2" fill="none" />
<path d="M260.0,68.5,252.5,76.0,244.5,83.5,236.5,91.0,229.0,98.0,221.5,106.0,213.0,113.5,205.0,121.0,197.0,128.5,189.0,136.0,181.5,143.5,173.0,150.5,164.5,158.0,156.0,165.5,147.5,172.0,139.0,179.0,131.0,186.5,123.5,194.5,115.5,202.0,107.0,210.0" stroke="black" stroke-width="2" fill="none" />
<path d="M116.0,210.5,123.5,210.0,131.0,209.0,139.0,208.5,147.0,208.0" stroke="black" stroke-width="2" fill="none" />
<path d="M143.0,203.5,143.0,211.0,145.0,219.5,146.5,227.5,147.5,235.5,142.5,243.5,143.5,251.5,151.5,259.5" stroke="black" stroke-width="2" fill="none" />
<path d="M108.5,228.0,117.0,220.5,125.5,212.5,133.5,205.0,141.5,197.5,149.5,190.5,157.5,183.5,165.5,177.0,173.5,169.5,181.5,162.0,189.5,154.0,197.0,146.5,205.0,139.0,212.5,131.0" stroke="black" stroke-width="2" fill="none" />
<path d="M211.0,130.5,219.0,127.5,218.0,135.5,222.0,136.0,230.5,136.5,238.5,138.5,246.5,136.0,255.0,132.0,260.0,128.5,268.0,128.5,276.5,128.5,284.0,129.5,292.0,132.5,300.0,133.0,307.5,134.0,315.0,133.0,323.0,131.0,326.0,124.0,334.0,124.0,342.0,124.5" stroke="black" stroke-width="2" fill="none" />
<path d="M305.5,110.0,297.5,110.5,289.5,111.0,281.5,111.5,273.5,112.0" stroke="black" stroke-width="2" fill="none" />
<path d="M253.0,136.0,260.5,135.5,267.5,134.5,275.5,134.0,283.5,133.0,291.5,132.0,299.5,131.5,307.5,130.5,316.0,129.5,324.5,128.5" stroke="black" stroke-width="2" fill="none" />
<path d="M325.0,136.0,316.5,137.0,308.5,137.5,301.0,137.5,292.5,138.5,284.5,139.0,276.0,140.0,268.0,141.0,259.5,142.0,251.0,142.5" stroke="black" stroke-width="2" fill="none" />
<path d="M248.0,145.5,248.5,153.5,249.5,162.0,251.0,170.0,252.0,178.5,253.5,186.5,254.0,195.0,260.0,207.5,259.0,215.5,257.5,216.5" stroke="black" stroke-width="2" fill="none" />
<path d="M250.0,213.5,247.0,207.5,244.0,205.0,246.0,197.0,245.0,193.5,245.5,185.5,245.5,178.0,244.5,170.0" stroke="black" stroke-width="2" fill="none" />
<path d="M213.0,159.0,204.5,159.5,196.0,160.0,187.5,161.0,179.5,161.5,171.5,162.0" stroke="black" stroke-width="2" fill="none" />
<path d="M178.5,128.5,186.5,128.5,195.0,128.0,203.5,128.0" stroke="black" stroke-width="2" fill="none" />
<path d="M213.0,125.5,221.0,124.5,229.0,122.0,237.0,121.5,245.0,119.5,253.0,119.5,261.0,119.5,269.0,120.0,277.0,120.5,285.5,120.5,293.5,120.5,301.5,119.5" stroke="black" stroke-width="2" fill="none" />
<path d="M321.5,111.5,313.5,112.0,305.5,112.0,297.5,112.0,289.5,112.0,281.5,112.5,273.5,113.0,265.5,113.5,257.5,114.0,250.0,114.5,242.5,114.5,234.5,114.5,226.0,114.5,217.5,115.0,210.0,115.5,202.5,116.0,194.5,117.0,186.5,117.5,178.5,118.5,170.5,118.5,162.0,119.0,154.0,119.5,145.5,120.0,138.0,121.0,129.5,121.5,121.0,123.5,113.0,124.5,105.0,126.0,97.0,126.5" stroke="black" stroke-width="2" fill="none" />
<path d="M100.5,138.0,108.5,130.5,116.5,123.0,124.5,115.5,132.0,108.0,139.5,100.0" stroke="black" stroke-width="2" fill="none" />
<path d="M148.5,99.0,141.5,106.5,133.5,114.0,125.5,121.5,117.0,129.0,109.0,137.0,101.5,145.0" stroke="black" stroke-width="2" fill="none" />
<path d="M108.0,145.5,115.5,138.0,123.0,130.0,131.5,122.0,139.5,114.5,147.5,106.5,156.0,98.5,164.0,91.0,172.5,83.0" stroke="black" stroke-width="2" fill="none" />
<path d="M164.5,84.0,156.0,91.5" stroke="black" stroke-width="2" fill="none" />
<path d="M163.5,94.5,171.0,86.5,179.5,79.0,187.5,72.0,195.5,65.0,204.0,58.0,212.0,51.0,220.0,44.0,229.0,36.5,237.0,29.0" stroke="black" stroke-width="2" fill="none" />
<path d="M243.0,25.5,235.5,33.0,228.0,41.0,220.0,49.0,212.0,57.0,204.0,64.5,196.0,71.5,188.5,79.0,180.5,86.0,172.5,93.0" stroke="black" stroke-width="2" fill="none" />
<path d="M180.0,98.5,188.0,91.0,196.0,83.0" stroke="black" stroke-width="2" fill="none" />
<path d="M190.5,80.5,183.0,78.5,175.5,78.0,167.0,77.0,158.5,76.0,150.5,74.5,143.0,71.5,135.0,69.0" stroke="black" stroke-width="2" fill="none" />
<path d="M132.5,62.0,140.5,66.5,148.5,69.5,156.0,70.5,164.0,71.5,172.0,72.5,180.0,74.0,188.0,74.5,196.5,74.5" stroke="black" stroke-width="2" fill="none" />
<path d="M204.5,73.5,212.5,66.0,220.0,59.0,228.0,51.5,236.0,44.5,244.0,36.5,252.0,29.0" stroke="black" stroke-width="2" fill="none" />
<path d="M260.0,27.5,252.5,35.0,244.5,42.5,236.5,50.0,228.0,57.5,219.5,65.0,211.5,73.0,204.0,81.0,196.0,89.0,188.0,97.0" stroke="black" stroke-width="2" fill="none" />
<path d="M181.5,106.0,173.5,113.0,165.5,121.0,157.0,128.5,148.5,136.5,140.0,144.5,132.0,152.0,124.0,159.5,116.5,167.0,108.5,175.0" stroke="black" stroke-width="2" fill="none" />
<path d="M108.0,177.5,115.5,169.5,123.5,162.0,131.5,154.5,139.5,147.5,148.0,140.5,156.0,133.0,163.5,125.5,171.5,118.0,179.5,110.5,188.0,103.0,195.5,95.5,204.0,88.5,212.0,81.0,220.0,73.5,228.0,66.0,236.0,58.5,243.0,51.0,251.0,43.0,259.5,35.0,267.5,27.5" stroke="black" stroke-width="2" fill="none" />
<path d="M274.5,22.0,282.5,21.0,290.5,20.5,299.0,19.5" stroke="black" stroke-width="2" fill="none" />
<path d="M285.5,26.0,277.5,33.5,269.0,41.5,260.5,49.0,252.0,56.5,243.5,64.0,235.5,72.5,227.0,80.5,218.5,88.5,209.5,96.0,201.5,103.5,193.5,111.0,185.5,118.5,177.5,126.0,170.5,133.0,162.5,140.5,155.0,147.5,147.0,155.5,139.0,163.0,131.0,170.5,123.0,178.0,115.5,185.0,108.0,192.0" stroke="black" stroke-width="2" fill="none" />
<path d="M105.5,186.5,113.5,178.5,121.5,171.0,129.5,164.0,138.0,156.5,146.5,148.0,155.0,140.0,163.5,132.0,172.0,124.0,180.5,116.5,188.5,109.0,197.0,101.5,205.0,94.5,213.0,87.0,221.0,79.5,228.5,72.0,236.5,64.5,244.5,57.5,252.5,50.5,260.5,43.5,268.5,36.5,276.5,29.0" stroke="black" stroke-width="2" fill="none" />
<path d="M264.5,43.5,275.0,51.5,265.0,59.5,259.5,63.0,267.5,59.0,275.5,52.0" stroke="black" stroke-width="2" fill="none" />
<path d="M287.5,52.0,295.5,56.0,303.5,61.5" stroke="black" stroke-width="2" fill="none" />
<path d="M300.0,57.0,308.0,49.0" stroke="black" stroke-width="2" fill="none" />
<path d="M306.5,41.0,299.0,49.0" stroke="black" stroke-width="2" fill="none" />
<path d="M293.5,49.5,285.0,49.5,276.0,49.5,268.0,49.5,260.0,50.0,252.0,50.0,243.5,50.5,236.0,51.5,228.0,52.5,220.5,53.0,212.5,54.5,205.0,55.0,197.5,56.0,189.5,57.0,181.5,57.5,173.5,58.5,165.5,59.0,157.0,59.5,148.5,60.0,139.5,60.0,131.0,60.5,123.0,60.5,115.0,61.5,106.5,62.0,98.0,62.5,90.0,63.0" stroke="black" stroke-width="2" fill="none" />
<path d="M91.5,59.0,99.5,52.0,108.0,45.0,116.0,37.5" stroke="black" stroke-width="2" fill="none" />
<path d="M109.5,37.5,101.0,45.0,93.0,51.5" stroke="black" stroke-width="2" fill="none" />
<path d="M91.5,53.5,99.5,52.5,107.5,51.5,115.5,51.0,124.0,51.0,132.5,51.0,140.0,51.0,148.0,51.0,156.5,51.0,164.5,50.5,172.5,50.0,180.5,49.5,188.5,49.0,196.5,48.5,204.0,47.5,212.0,47.5,219.5,46.5,227.5,46.0,235.5,45.5,243.5,45.0,251.5,44.5,259.5,43.5,267.0,43.0,275.5,42.0,284.0,41.0,292.5,40.0,300.5,40.0,309.0,40.0" stroke="black" stroke-width="2" fill="none" />
<path d="M308.0,31.5,299.5,32.5,291.0,33.5,283.0,34.0,275.5,35.0,267.0,35.5,258.5,36.5,250.5,37.0,243.0,37.5,235.0,38.0,227.0,38.5,219.5,39.0,212.0,39.0,204.0,39.5,196.0,40.5,188.5,40.5,180.5,40.5,172.0,40.5,164.0,41.5,156.0,42.0,147.5,42.0,139.5,42.0,131.5,42.0,124.0,42.5,116.0,42.5,108.0,43.0,101.0,43.5,93.0,44.0" stroke="black" stroke-width="2" fill="none" />
<path d="M92.5,44.0,100.5,36.5" stroke="black" stroke-width="2" fill="none" />
<path d="M95.5,33.0,90.5,41.0,92.0,49.0,93.0,57.5,94.0,65.5,94.0,73.5,94.5,81.0,95.5,89.5,97.0,97.5,97.5,105.0,97.5,113.0,98.5,121.0,99.0,128.5,99.0,136.5,99.5,144.0,100.5,152.0,101.5,159.5,103.0,168.0,103.5,176.0,103.5,183.5,104.5,191.5,105.5,199.5,106.5,208.0,108.0,216.0,108.0,224.5,109.5,233.0,110.5,240.5,111.5,249.0,112.0,257.0,114.0,265.0,116.0,268.0" stroke="black" stroke-width="2" fill="none" />
<path d="M87.5,261.0,80.0,250.0,72.0,241.0" stroke="black" stroke-width="2" fill="none" />
<path d="M71.5,246.5,79.5,257.5,87.5,267.5" stroke="black" stroke-width="2" fill="none" />
<path d="M117.0,200.5,125.5,200.0,133.5,200.0,141.0,199.5,149.0,198.5" stroke="black" stroke-width="2" fill="none" />
<path d="M154.5,183.0,146.5,183.5,138.5,183.5,130.0,183.5,121.5,183.5,113.5,183.5,105.5,184.0" stroke="black" stroke-width="2" fill="none" />
<path d="M107.5,177.5,115.5,177.0,123.0,177.0,131.0,177.0,139.0,177.0,147.5,176.5,155.5,176.0,164.5,175.5" stroke="black" stroke-width="2" fill="none" />
<path d="M164.5,166.0,156.5,166.5,148.5,166.5,140.5,167.5,133.0,168.0,125.5,169.0,117.5,170.0,109.5,170.5" stroke="black" stroke-width="2" fill="none" />
<path d="M108.0,168.0,116.0,159.5,124.0,151.5,132.0,143.5,140.5,136.5,148.0,129.0,156.5,122.0,164.5,115.5,173.0,108.0" stroke="black" stroke-width="2" fill="none" />
<path d="M162.0,107.5,154.0,115.0,145.5,122.0,137.5,130.0,129.5,137.5,121.5,145.5,113.5,152.5,106.0,159.5" stroke="black" stroke-width="2" fill="none" />
<path d="M108.5,161.0,116.5,160.5,124.5,160.0,132.5,160.0,140.5,160.0,148.0,159.5,155.5,159.0" stroke="black" stroke-width="2" fill="none" />
<path d="M155.5,150.0,147.5,150.0,140.0,151.0,132.0,151.0,124.0,151.5,116.0,152.0,107.5,152.0" stroke="black" stroke-width="2" fill="none" />
<path d="M109.0,152.5,117.0,144.5,125.5,137.0,133.0,129.5,141.0,122.0,149.0,114.5,157.5,106.5" stroke="black" stroke-width="2" fill="none" />
<path d="M148.5,90.5,156.5,82.0,165.0,74.5" stroke="black" stroke-width="2" fill="none" />
<path d="M178.0,72.0,186.0,64.0,194.0,56.0,202.0,48.5,210.0,41.0,218.5,33.0,226.5,25.5" stroke="black" stroke-width="2" fill="none" />
<path d="M220.5,28.5,212.5,35.5,204.5,43.0,197.0,50.0,189.0,57.0,181.0,64.0,173.0,72.0" stroke="black" stroke-width="2" fill="none" />
<path d="M173.0,64.5,181.0,57.0,189.0,49.5,197.0,42.0,204.5,35.0,212.0,27.0" stroke="black" stroke-width="2" fill="none" />
<path d="M204.0,27.0,196.5,34.5,189.0,42.5,181.0,50.5,173.0,59.0,165.0,66.5" stroke="black" stroke-width="2" fill="none" />
<path d="M154.0,66.0,162.0,58.5,170.0,51.5,178.0,44.0,186.0,36.0,194.0,28.5" stroke="black" stroke-width="2" fill="none" />
<path d="M188.0,25.0,180.0,33.0,172.5,40.5,165.0,48.5,156.5,56.5,148.5,64.5" stroke="black" stroke-width="2" fill="none" />
<path d="M140.0,75.0,131.5,83.0,124.0,90.5,116.5,98.0,108.5,105.5,101.0,113.0" stroke="black" stroke-width="2" fill="none" />
<path d="M108.5,115.0,116.5,114.5,124.5,114.0,132.5,113.5,140.0,112.5,148.0,112.5,155.5,111.5" stroke="black" stroke-width="2" fill="none" />
<path d="M157.0,127.0,149.5,128.0,141.5,129.0,133.5,129.5,125.0,130.0,117.0,131.0,109.0,131.0" stroke="black" stroke-width="2" fill="none" />
<path d="M109.5,123.5,117.5,122.5,125.5,122.0,133.5,121.0,141.0,120.0,148.5,119.5,156.5,118.0,164.0,117.5" stroke="black" stroke-width="2" fill="none" />
<path d="M172.0,123.5,158.5,131.0,160.0,127.5,168.5,123.5,176.5,119.0" stroke="black" stroke-width="2" fill="none" />
<path d="M157.5,129.5,165.5,125.0,174.0,121.0,160.0,125.0,153.5,133.0,155.0,141.0,156.5,150.5,158.5,158.5,160.5,166.5,162.0,174.5,162.0,182.5,152.5,190.5,153.5,198.5,153.5,207.0" stroke="black" stroke-width="2" fill="none" />
<path d="M155.5,142.0,147.5,142.5,140.0,143.5,132.0,144.5,124.5,145.5,116.5,145.5,108.5,146.0" stroke="black" stroke-width="2" fill="none" />
<path d="M108.0,139.0,116.0,138.0,124.0,137.5,132.0,136.5,140.0,136.0,148.0,135.0,156.0,134.5" stroke="black" stroke-width="2" fill="none" />
<path d="M140.0,104.5,132.0,105.5,124.5,105.5,116.5,105.5,108.0,105.5" stroke="black" stroke-width="2" fill="none" />
<path d="M99.5,103.0,107.0,96.0,115.0,88.5,123.5,80.5,132.5,72.5,141.0,64.5,149.0,57.0,157.0,49.0,164.5,41.5,172.5,34.0,180.5,27.0" stroke="black" stroke-width="2" fill="none" />
<path d="M170.5,27.0,162.5,35.0,155.0,42.5,147.5,50.0,139.0,58.0,131.0,65.5,123.0,73.0,115.0,80.5,106.5,87.5,98.0,95.0" stroke="black" stroke-width="2" fill="none" />
<path d="M98.0,97.0,106.0,96.0" stroke="black" stroke-width="2" fill="none" />
<path d="M100.5,87.5,108.0,80.0,115.5,72.5,124.0,65.0,132.0,57.5,140.0,49.5,148.0,41.5,156.0,34.0" stroke="black" stroke-width="2" fill="none" />
<path d="M147.5,36.5,139.5,44.0,132.0,51.5,124.0,58.5,116.0,65.5,107.5,72.5,99.0,79.5" stroke="black" stroke-width="2" fill="none" />
<path d="M100.0,82.0,107.5,82.0" stroke="black" stroke-width="2" fill="none" />
<path d="M106.0,88.5,97.5,89.0" stroke="black" stroke-width="2" fill="none" />
<path d="M90.5,86.0,99.0,85.5,107.5,85.0,116.0,84.5,124.5,84.5,132.5,84.0,141.0,83.5,149.0,82.5,156.5,82.0,164.5,82.0,172.5,81.0,180.5,80.5,188.5,80.5,196.0,79.5,204.0,78.5,211.5,77.5,219.5,77.0,227.5,76.5,235.0,76.0,243.5,75.5,251.5,75.0,259.5,74.5,267.5,74.0,275.0,73.5,283.0,73.0,291.0,72.5,299.5,72.0,307.5,72.0,316.0,72.0" stroke="black" stroke-width="2" fill="none" />
<path d="M314.0,96.0,306.0,96.5,298.0,97.0,290.5,97.5,283.5,97.5,276.0,98.5,268.5,99.0,261.5,99.5,253.5,100.0,245.0,100.0,236.5,100.5,228.5,101.0,220.5,101.5,212.5,101.5,204.5,102.5,197.0,103.0,189.5,104.0,181.5,105.0,173.5,105.5,165.5,106.0,157.0,105.5,148.5,106.0,140.5,107.0,132.0,107.5,124.0,108.0,115.5,108.0,107.5,108.5,100.0,109.5,91.5,110.0" stroke="black" stroke-width="2" fill="none" />
<path d="M93.0,102.0,101.0,101.5,108.5,100.5,116.0,100.0,123.0,99.0,131.0,98.5,139.5,98.0,148.0,97.5,156.5,97.0,164.5,96.5,172.5,96.0,180.5,95.5,188.5,95.0,196.5,95.0,204.5,95.0,212.0,94.5,219.5,94.0,227.5,93.5,236.0,92.5,244.5,91.5,253.0,91.0,260.5,90.5,268.0,90.5,275.5,90.5,282.5,90.0,290.0,89.0,298.5,88.5,306.5,88.0,314.5,87.0" stroke="black" stroke-width="2" fill="none" />
<path d="M314.5,80.5,306.5,81.0,299.0,81.5,291.5,82.0,283.0,82.5,274.0,83.0,265.5,83.0,257.5,83.0,249.0,83.5,241.5,84.0,234.0,84.0,226.5,84.5,219.5,85.0,211.5,85.0,204.0,86.0,196.0,86.0,188.0,86.5,180.0,87.0,171.5,87.0,163.5,87.5,156.0,88.5,148.5,89.0,141.0,89.5,133.0,90.0,125.0,91.0,117.0,92.0,108.5,93.0,100.0,94.5,92.0,95.0" stroke="black" stroke-width="2" fill="none" />
<path d="M90.5,77.0,98.5,76.5,107.0,76.5,115.5,76.5,123.5,76.5,132.0,76.5,140.5,76.0,148.0,75.5,156.0,75.0,164.0,74.5,172.0,74.0,180.0,73.0,188.0,72.5,196.0,71.5,204.0,71.0,212.0,70.0,220.0,69.5,228.0,68.5,236.0,68.0,244.0,67.5,252.0,67.0,260.5,67.0,268.5,66.0,276.5,65.5,284.5,64.5,292.5,64.0,300.0,64.5,308.0,64.5,315.5,64.5" stroke="black" stroke-width="2" fill="none" />
<path d="M291.0,55.5,283.5,56.0,275.5,57.5,267.0,58.5,259.5,59.5,251.0,60.0,243.0,60.5,235.5,60.5,228.0,61.0,221.0,62.0,213.5,63.0,205.5,64.0,197.5,64.5,189.0,65.0,181.0,66.0,173.0,66.0,164.5,67.0,156.0,67.0,147.5,67.0,139.0,67.5,130.5,68.0,123.0,68.5,115.0,69.0,107.0,69.5,99.0,69.5,91.0,69.5" stroke="black" stroke-width="2" fill="none" />
<path d="M98.0,65.5,106.0,58.0,114.5,50.5,122.5,43.5,130.5,36.0" stroke="black" stroke-width="2" fill="none" />
<path d="M124.0,36.5,116.0,44.0,108.0,51.5,100.0,59.0" stroke="black" stroke-width="2" fill="none" />
<path d="M100.0,69.0,108.0,68.0" stroke="black" stroke-width="2" fill="none" />
<path d="M100.5,73.5,109.0,65.5,117.0,58.0,125.0,51.0,132.5,43.5,140.0,36.0" stroke="black" stroke-width="2" fill="none" />
<path d="M156.0,39.5,147.5,39.5,139.5,40.0,131.5,40.0,123.0,40.5" stroke="black" stroke-width="2" fill="none" />
<path d="M114.5,41.5,106.0,42.0,98.0,43.0" stroke="black" stroke-width="2" fill="none" />
<path d="M90.5,39.5,98.0,32.5,105.5,31.5,113.5,31.5,121.5,31.0,129.5,31.0,137.5,30.5,145.5,30.0,153.5,28.5,161.5,28.0,169.5,28.0,177.5,27.0,185.5,27.5,194.0,27.5,202.0,26.5,210.5,26.5,218.5,26.0,227.0,26.0,235.0,26.5,243.0,25.5,251.0,25.5,259.0,24.0,266.5,24.0,274.5,24.0,282.5,22.5,291.0,22.5,299.0,21.5,301.5,23.5,304.5,32.0,305.5,40.5,305.5,48.5,306.0,56.5" stroke="black" stroke-width="2" fill="none" />
<path d="M302.0,60.5,292.0,53.0" stroke="black" stroke-width="2" fill="none" />
<path d="M290.0,51.5,288.0,59.5,285.5,67.5,288.5,75.5" stroke="black" stroke-width="2" fill="none" />
<path d="M275.0,77.0,273.0,85.0,263.5,93.0,271.0,89.0" stroke="black" stroke-width="2" fill="none" />
<path d="M272.0,63.5,263.5,67.5,271.0,63.5,276.0,55.5,269.0,46.0,260.5,44.0" stroke="black" stroke-width="2" fill="none" />
<path d="M307.5,17.0,299.5,17.0,291.0,17.0,283.0,17.5,275.0,17.5,267.0,18.0,259.5,18.0,251.0,18.5,242.5,19.0,234.0,19.5,226.0,20.5,218.5,21.5,210.0,22.5,202.5,23.5,195.0,24.5,187.0,25.0,179.0,26.0,171.0,26.5,163.5,27.0,155.5,27.5,147.0,28.0,139.0,28.5,131.0,28.5,123.0,29.0,114.5,29.0,106.0,29.0,97.5,29.0" stroke="black" stroke-width="2" fill="none" />
<path d="M92.5,36.5,100.5,36.0,109.0,36.0,117.5,35.5,125.5,35.5,133.5,35.0,141.0,34.5,149.0,34.0,156.5,33.5,164.5,33.0,172.5,32.5,180.5,32.0,188.0,32.5,196.0,32.0,204.0,31.5,212.5,31.0,220.0,31.0,227.0,30.5,234.5,29.5,242.0,29.0,250.0,28.5,258.0,28.0,267.0,27.5,275.5,26.5,283.5,25.5,292.5,24.5,300.0,24.0,308.0,23.0" stroke="black" stroke-width="2" fill="none" />
<path d="M325.0,136.5,316.5,137.0,308.5,137.0,300.5,137.0,292.0,137.5,284.0,138.0,275.5,138.5,267.0,138.0,258.5,138.0,250.5,138.5,242.5,139.0,234.5,139.0,227.0,140.0,219.0,140.5,211.0,141.0,202.5,141.5,195.0,142.0,187.0,143.5,179.5,144.5,172.0,145.0,164.0,146.5,156.5,147.0,148.5,147.5,140.5,148.0,132.5,148.5,125.0,149.0,116.5,149.5,109.0,150.0,101.0,150.5,92.0,150.5,84.0,150.5" stroke="black" stroke-width="2" fill="none" />
<path d="M85.5,142.0,94.0,141.5,102.0,140.5,109.5,140.0,117.5,139.5,125.0,139.0,132.0,138.0,139.0,137.5,146.5,137.0,154.5,136.0,162.5,135.5,170.5,135.5,179.0,135.0,187.5,134.5,195.5,134.0,203.5,133.0,211.5,133.0,219.5,132.0,227.0,131.5,235.0,131.0,242.5,130.5" stroke="black" stroke-width="2" fill="none" />
<path d="M242.5,125.5,250.0,123.5,257.5,123.5,265.5,122.5,273.0,123.0,280.5,122.5,288.0,122.5,297.0,122.5,305.0,122.5,313.0,122.5,321.0,121.0" stroke="black" stroke-width="2" fill="none" />
<path d="M312.0,16.0,304.0,17.0,296.0,17.0,288.0,18.0,279.5,19.0,271.5,19.0,263.0,20.5,255.0,20.5,247.5,20.5,239.5,21.5,232.0,21.0,224.0,22.0,216.0,22.5,208.0,23.0,200.0,23.0,192.0,23.5,184.0,23.5,175.5,24.5,167.5,24.5,159.5,24.5,151.0,25.5,142.5,25.5,134.5,25.5,126.5,26.5,118.5,26.5,110.5,26.0,103.0,26.0,95.0,27.0,87.0,27.0,79.0,27.0,71.0,27.5,63.0,28.5,55.0,31.5,50.0,33.5,63.5,33.0,67.5,32.0,60.0,35.5,52.0,36.5" stroke="black" stroke-width="2" fill="none" />
<path d="M54.5,43.0,52.5,51.0,52.5,59.0,53.5,67.5,54.5,76.0,56.0,84.0,56.5,92.5,56.5,100.5,57.0,108.5,58.0,117.0,59.0,125.0,60.0,132.5,60.0,140.5,61.0,148.5,62.0,157.0,62.5,165.5,63.0,173.5,63.0,181.5,63.5,189.5,64.5,197.5,65.5,205.0,66.5,213.0,66.5,220.5,67.5,228.5,69.0,236.5,70.0,244.0,75.5,252.0,82.0,259.5,89.0,267.5,95.5,270.5,102.5,271.5,110.5,269.5,118.5,270.0" stroke="black" stroke-width="2" fill="none" />
<path d="M93.0,132.0,85.0,132.5" stroke="black" stroke-width="2" fill="none" />
<path d="M72.5,84.0,73.5,92.0,74.5,100.0,76.0,108.5,76.0,116.5,77.5,125.0,78.5,133.0,78.5,141.0,79.5,149.0,80.5,157.0,81.5,165.0,81.5,173.0,82.5,180.5,83.5,188.5,84.5,196.5,85.5,204.0,85.5,212.0,86.5,220.0,87.5,228.0,88.5,236.0,89.5,244.0,90.5,252.0,91.5,260.0" stroke="black" stroke-width="2" fill="none" />
<path d="M133.0,93.5,141.0,101.5,149.0,103.5,157.5,106.0,165.5,107.0,174.0,108.0,181.5,108.5,189.5,108.5" stroke="black" stroke-width="2" fill="none" />
<path d="M193.5,98.5,185.5,101.5,177.5,101.5,169.5,100.0,161.5,99.0,153.0,98.0,145.0,94.5,137.0,92.5,129.0,88.5" stroke="black" stroke-width="2" fill="none" />
<path d="M129.5,90.0,135.5,98.0" stroke="black" stroke-width="2" fill="none" />
<path d="M134.0,90.5,146.0,98.5,153.5,100.0,161.5,102.0,169.0,103.0,177.0,103.5,185.0,103.5,193.5,104.0,201.5,103.5" stroke="black" stroke-width="2" fill="none" />
<path d="M213.5,121.0,210.5,128.5,214.0,136.5,215.0,144.5,216.0,152.5,216.0,160.0,217.0,168.5,218.5,176.5,219.5,184.5,221.0,193.0,221.0,200.5,222.0,209.0,222.5,217.0,225.5,225.0,231.5,233.5,240.5,241.5" stroke="black" stroke-width="2" fill="none" />
<path d="M195.0,95.5,195.0,87.5,188.0,79.0" stroke="black" stroke-width="2" fill="none" />
<path d="M108.0,75.5,100.0,76.5" stroke="black" stroke-width="2" fill="none" />
<path d="M71.5,54.0,71.0,46.0,68.0,42.5,60.5,44.5,52.5,46.5" stroke="black" stroke-width="2" fill="none" />
<path d="M76.5,42.0,76.5,50.0,77.5,57.5,79.0,65.5,80.0,73.5,81.0,81.5,82.0,89.5,83.0,98.0,83.0,106.0,84.0,114.0,85.0,122.0,86.0,130.0,86.0,138.0,87.5,146.0,90.0,154.5,90.0,162.5,87.5,171.0,88.0,178.5,88.5,186.5,89.5,194.5,90.5,202.5,91.5,210.5,93.0,218.5,93.5,226.0,95.0,234.5,96.5,242.0,97.5,250.0,97.5,258.5" stroke="black" stroke-width="2" fill="none" />
<path d="M187.0,270.0,179.0,271.0,170.5,272.0,162.5,274.0,155.0,275.0,147.0,276.0,139.0,277.0,131.0,278.5,123.5,279.5,115.5,280.5,107.5,281.0,99.5,280.5,94.5,278.5,95.0,270.5,95.0,262.5,94.5,254.5,93.5,246.5,92.5,238.5,91.0,231.0,90.5,223.0,89.0,215.0,88.0,207.0,87.5,199.0,86.5,190.5,85.5,182.5,85.0,174.5,85.0,166.5,84.0,158.5,83.0,150.5,82.0,143.0,82.0,135.0,81.0,127.0,79.5,118.5,79.5,110.5,78.5,102.5,77.5,94.5,77.0,86.5,76.5,79.0,77.0,71.0,76.0,63.0,75.5,55.0,74.5,47.0,74.5,39.5,72.5,31.5" stroke="black" stroke-width="2" fill="none" />
</svg>