<svg xmlns="http://www.w3.org/2000/svg" version="1.1"><polyline points="2.0,1.5,2.5,9.5,2.5,17.5,2.5,25.5,2.5,33.5,2.5,41.5,3.0,49.5,4.0,57.0,4.5,65.0,4.5,72.5,4.5,81.0,4.5,89.0,4.0,97.0,3.5,105.5,3.5,114.5,3.5,123.0,3.5,131.0,3.0,138.5,3.0,146.5,3.0,154.5,3.0,162.5,2.5,170.5,2.5,178.5,2.5,186.0,2.5,194.0,3.0,202.0,3.0,210.0,3.0,218.0,3.5,226.0,4.0,234.5,4.0,242.5,4.0,250.5,4.0,258.5,3.5,266.5,3.0,275.0,3.0,283.0,3.0,291.0,3.0,298.5,3.5,306.5,3.0,314.5,3.0,322.5,3.0,330.5,2.5,338.5,7.5,342.5,15.5,342.0,23.5,341.5,31.0,341.5,39.0,341.5,46.5,341.5,54.0,342.0,62.0,342.0,70.0,342.0,79.0,341.5,87.0,341.5,95.0,342.0,103.0,342.5,111.5,342.5,119.5,343.0,128.0,343.5,136.5,343.5,144.5,344.0,152.5,344.0,160.0,344.0,168.0,343.5,176.5,343.0,184.5,343.0,192.0,343.0,200.0,342.5,207.5,342.0,215.5,341.5,224.0,341.5,231.5,341.5,239.5,342.0,247.5,342.0,256.0,342.5,264.0,343.0,272.5,343.0,281.0,343.0,289.0,343.0,297.5,343.0,306.0,343.0,314.0,343.0,321.5,342.5,329.5,342.5,337.0,342.0,345.0,342.0,353.0,341.5,355.0,342.0,363.0,342.0,371.0,342.5,379.0,342.5,387.0,342.0,394.5,342.0,402.5,341.5,410.0,341.5,418.0,341.5,425.5,341.5,433.5,341.0,441.0,340.5,449.0,340.5,457.0,340.5,465.0,340.5,473.5,341.0,481.5,341.0,489.5,341.5,497.5,342.0,505.5,342.0" stroke="black" stroke-width="2" fill="none" />
<polyline points="409.0,307.0,401.0,314.5" stroke="black" stroke-width="2" fill="none" />
<polyline points="402.5,307.0,394.5,314.0,386.5,321.5" stroke="black" stroke-width="2" fill="none" />
<polyline points="379.5,324.0,387.5,316.0,395.0,308.0" stroke="black" stroke-width="2" fill="none" />
<polyline points="387.0,308.0,379.5,316.0,372.0,323.0" stroke="black" stroke-width="2" fill="none" />
<polyline points="362.5,322.5,370.5,314.5,378.5,307.0" stroke="black" stroke-width="2" fill="none" />
<polyline points="373.0,308.5,365.0,316.0,357.0,323.0,349.0,330.5" stroke="black" stroke-width="2" fill="none" />
<polyline points="340.0,331.0,348.5,324.0,357.0,316.5" stroke="black" stroke-width="2" fill="none" />
<polyline points="362.0,324.0,370.0,323.0,378.5,321.0,387.0,318.5,395.0,316.5,403.5,314.5" stroke="black" stroke-width="2" fill="none" />
<polyline points="380.0,315.0,371.5,315.0,363.5,315.5,355.5,316.0,347.0,317.0,339.0,317.5,331.0,318.5,323.0,319.5,315.0,320.5,307.0,321.0,299.0,321.5,290.5,321.5,282.5,321.5,274.0,322.5,266.5,323.5,258.5,324.0,250.5,325.0,242.5,325.0,234.5,325.5,226.0,326.0" stroke="black" stroke-width="2" fill="none" />
<polyline points="226.5,317.0,234.5,310.0,242.5,302.5,250.5,294.5,258.5,287.0,267.0,279.5,275.0,272.0,283.0,265.0,291.0,257.5,299.0,250.5,307.0,243.5,315.0,236.0" stroke="black" stroke-width="2" fill="none" />
<polyline points="313.5,242.0,305.5,249.5,298.0,257.5,290.0,265.5,282.5,273.5,275.5,281.5,267.0,289.0,258.0,296.0,249.5,303.5,241.0,311.0,233.5,318.5" stroke="black" stroke-width="2" fill="none" />
<polyline points="235.5,324.0,243.5,323.5,251.0,323.0,258.5,322.5,266.0,322.0,273.0,321.5,281.0,320.5" stroke="black" stroke-width="2" fill="none" />
<polyline points="289.5,328.5,297.5,321.5,306.0,314.0,315.0,306.5" stroke="black" stroke-width="2" fill="none" />
<polyline points="309.0,309.5,301.0,317.0,293.5,325.0,285.5,332.5" stroke="black" stroke-width="2" fill="none" />
<polyline points="298.5,329.5,306.5,321.5,314.5,314.0,322.5,307.0" stroke="black" stroke-width="2" fill="none" />
<polyline points="323.0,314.5,315.0,322.0,306.5,330.0" stroke="black" stroke-width="2" fill="none" />
<polyline points="331.0,331.0,339.0,323.5,347.0,315.5" stroke="black" stroke-width="2" fill="none" />
<polyline points="341.0,315.5,333.0,322.5,324.5,330.5" stroke="black" stroke-width="2" fill="none" />
<polyline points="316.5,332.0,324.0,325.0,332.0,317.0" stroke="black" stroke-width="2" fill="none" />
<polyline points="341.5,326.5,333.0,327.0,324.5,327.0,316.0,327.0,307.5,328.0,298.5,328.5,290.0,329.0,281.5,329.5,273.0,330.0,265.0,330.5" stroke="black" stroke-width="2" fill="none" />
<polyline points="259.5,325.0,268.0,317.0,276.0,310.0,284.5,302.5,293.0,296.0,301.0,289.0,309.0,282.0,317.5,275.0,325.5,268.0,333.5,260.5,341.0,253.0,349.0,246.0" stroke="black" stroke-width="2" fill="none" />
<polyline points="354.5,250.0,363.0,242.5" stroke="black" stroke-width="2" fill="none" />
<polyline points="363.5,249.0,372.0,241.5" stroke="black" stroke-width="2" fill="none" />
<polyline points="369.5,237.0,364.5,229.0,364.0,222.0,357.0,223.0,346.0,227.5,353.5,232.0,354.5,224.0,345.5,226.5" stroke="black" stroke-width="2" fill="none" />
<polyline points="345.5,231.5,343.5,228.0,349.5,227.0,341.0,217.0" stroke="black" stroke-width="2" fill="none" />
<polyline points="342.0,215.5,340.0,220.5,342.0,220.5,335.5,222.5,335.0,231.0,345.0,241.0,358.0,252.0,356.0,256.5" stroke="black" stroke-width="2" fill="none" />
<polyline points="356.5,267.0,348.5,274.5,340.0,281.5" stroke="black" stroke-width="2" fill="none" />
<polyline points="348.0,282.5,356.0,275.0,364.0,267.5" stroke="black" stroke-width="2" fill="none" />
<polyline points="371.5,267.0,363.5,274.0,355.5,282.0" stroke="black" stroke-width="2" fill="none" />
<polyline points="348.5,267.5,340.5,275.0,332.5,283.0" stroke="black" stroke-width="2" fill="none" />
<polyline points="325.0,281.5,333.0,273.5,341.0,266.5" stroke="black" stroke-width="2" fill="none" />
<polyline points="340.0,258.5,348.0,251.0,356.0,243.5" stroke="black" stroke-width="2" fill="none" />
<polyline points="341.0,244.5,333.0,252.0,325.5,259.5,317.0,266.5,308.5,273.5,300.5,280.0,292.0,288.0,284.5,295.5,276.5,303.5,268.0,311.0,260.0,318.5,251.5,326.5" stroke="black" stroke-width="2" fill="none" />
<polyline points="251.5,319.5,259.5,312.0,268.5,304.0,276.5,296.5,284.5,288.5,292.0,280.5,300.0,273.0,308.0,264.5,315.5,256.5,323.5,249.0,331.0,241.5" stroke="black" stroke-width="2" fill="none" />
<polyline points="321.0,242.0,312.5,250.0,305.5,258.0,298.0,266.0,291.0,274.0,283.5,281.5,275.5,289.0,267.5,296.5,259.5,304.0,251.5,312.0,243.5,319.0" stroke="black" stroke-width="2" fill="none" />
<polyline points="241.0,333.0,248.5,331.5,256.5,331.5,264.5,332.0,272.5,333.0,280.0,334.0,288.5,334.5,296.5,334.5,305.0,334.5,312.5,334.0,320.5,334.0,328.5,334.0,336.5,333.5,344.0,332.5,352.0,332.0,360.0,330.0,368.5,329.0,377.0,326.5,385.0,324.0,393.0,322.0,400.5,319.0,408.5,316.0,417.0,312.5,425.0,307.5,433.5,297.5,441.5,285.5" stroke="black" stroke-width="2" fill="none" />
<polyline points="421.0,295.5,412.5,296.5,404.0,297.5,396.5,298.0,388.0,299.0,380.5,299.5,372.5,300.0,364.5,300.5,356.0,301.0,347.5,301.5,339.5,302.0,331.5,302.5,324.0,303.0,316.0,303.0,308.0,303.0,300.5,303.5,292.5,303.5,284.5,304.0,276.5,304.5,268.5,304.5,260.5,305.5,252.5,306.5,244.5,307.0,236.0,308.0,227.5,308.0,219.0,309.0,210.5,309.5,202.5,310.5" stroke="black" stroke-width="2" fill="none" />
<polyline points="211.0,309.5,219.0,302.5,227.0,295.5,235.5,288.0,244.0,281.0,252.5,273.5,261.0,266.0,269.0,258.5,277.0,250.5,285.5,243.0,293.5,235.0" stroke="black" stroke-width="2" fill="none" />
<polyline points="300.0,236.5,292.0,244.0,284.0,251.0,276.0,259.0,268.0,266.5,260.0,274.0,252.0,281.5,244.5,289.5,236.5,297.0,229.0,304.0,221.0,311.5" stroke="black" stroke-width="2" fill="none" />
<polyline points="219.0,314.5,227.0,314.0,235.0,313.5,243.5,312.5,252.0,311.5,260.0,311.0,268.0,310.5" stroke="black" stroke-width="2" fill="none" />
<polyline points="269.5,304.5,261.0,305.0,253.0,305.0,244.5,306.0,236.5,306.5,228.0,307.0,220.0,307.5" stroke="black" stroke-width="2" fill="none" />
<polyline points="217.5,310.0,214.0,314.5,216.0,306.5" stroke="black" stroke-width="2" fill="none" />
<polyline points="225.0,309.5,233.5,301.5,242.0,294.5,250.5,287.0,258.5,279.5,267.0,272.5,275.0,265.5,283.5,258.5,291.5,251.0,298.5,244.5,306.5,237.0" stroke="black" stroke-width="2" fill="none" />
<polyline points="294.0,248.0,294.0,244.0,296.0,237.0,289.5,237.0,289.5,229.0,295.0,220.5,303.0,220.0,297.0,224.0,289.5,223.0" stroke="black" stroke-width="2" fill="none" />
<polyline points="297.0,214.5,286.0,222.5,294.0,219.5,285.5,225.0,281.0,230.0,277.0,234.5,273.5,235.0,275.5,230.5,279.5,236.0,281.0,234.0,286.5,238.0,296.0,238.0,304.0,237.5" stroke="black" stroke-width="2" fill="none" />
<polyline points="313.0,221.0,309.0,229.0,315.0,220.5,323.0,219.5" stroke="black" stroke-width="2" fill="none" />
<polyline points="330.0,216.0,328.0,218.0,327.0,226.0,329.0,233.0,323.5,237.0,328.5,231.0" stroke="black" stroke-width="2" fill="none" />
<polyline points="326.0,232.0,325.5,224.0,331.5,220.0" stroke="black" stroke-width="2" fill="none" />
<polyline points="348.5,216.0,356.5,213.0,364.5,212.5,363.5,214.5,362.5,222.5,361.5,231.0,366.5,229.5,360.5,241.0,369.0,225.0,379.0,233.5,378.0,238.5,366.0,243.5,347.5,248.0,342.0,252.0,338.0,254.0,330.0,259.0,335.0,258.0,343.5,255.5,347.5,251.5,354.5,254.5,360.5,254.5,368.5,250.0,370.0,241.0,381.0,245.0,383.5,252.5" stroke="black" stroke-width="2" fill="none" />
<polyline points="386.0,258.5,394.5,251.5,402.5,244.5" stroke="black" stroke-width="2" fill="none" />
<polyline points="401.0,251.0,409.5,243.5" stroke="black" stroke-width="2" fill="none" />
<polyline points="404.0,236.5,395.5,243.5,387.0,251.0" stroke="black" stroke-width="2" fill="none" />
<polyline points="382.5,251.5,390.5,244.5,398.0,237.0" stroke="black" stroke-width="2" fill="none" />
<polyline points="402.0,221.5,410.0,220.5,418.0,220.0" stroke="black" stroke-width="2" fill="none" />
<polyline points="418.5,210.5,410.0,211.0,402.0,212.0" stroke="black" stroke-width="2" fill="none" />
<polyline points="400.5,210.5,408.5,212.0,418.5,217.0,426.5,221.0,434.5,225.5" stroke="black" stroke-width="2" fill="none" />
<polyline points="436.5,232.0,428.5,233.0,420.0,233.5,412.5,234.0,404.5,235.0,396.5,236.0,389.0,236.0,381.0,236.5,372.5,237.0,364.0,238.0,356.0,238.5,348.0,239.0,340.0,239.5,332.0,239.5,324.0,239.5,316.0,240.0,308.0,240.5,299.5,240.5,291.5,241.0,283.0,241.5,275.0,242.0,266.5,243.0,259.0,244.0,250.5,244.5,242.0,244.5,233.5,245.0,225.5,246.0,217.5,247.0,210.0,247.5,202.5,247.5,195.0,248.0,187.5,248.0,179.5,248.5,171.5,249.5,163.5,249.5,155.5,250.0,148.0,250.0,140.0,250.5,132.0,250.5,124.0,251.0,116.0,251.5,107.5,251.5,99.5,252.5" stroke="black" stroke-width="2" fill="none" />
<polyline points="100.5,261.0,108.5,260.0,116.0,259.0,123.5,259.0,131.5,258.5,139.5,258.5,147.5,258.0,155.0,257.5,162.5,257.0,171.0,256.5,179.0,256.0,186.5,255.0" stroke="black" stroke-width="2" fill="none" />
<polyline points="185.5,257.5,198.0,259.5" stroke="black" stroke-width="2" fill="none" />
<polyline points="197.0,256.5,204.5,249.0,212.0,242.0,220.0,234.0,227.5,226.5" stroke="black" stroke-width="2" fill="none" />
<polyline points="233.0,229.5,225.0,236.5,218.0,243.5,210.0,250.5,202.5,257.5" stroke="black" stroke-width="2" fill="none" />
<polyline points="195.5,261.5,203.5,261.0,211.0,260.5,219.5,260.0,228.5,260.0,236.5,260.0,244.0,259.5,252.0,258.5,259.5,257.5,267.0,257.0,275.0,257.0,283.0,256.5,291.0,256.0,299.5,255.5,308.0,255.0,316.0,254.0,323.5,253.0,331.5,252.0,339.5,251.5,348.0,251.0,356.5,250.5,364.5,250.0,372.0,248.5,379.5,248.0,387.0,247.5,394.5,247.0,402.5,247.0,411.0,246.5,419.0,246.5,427.5,246.0,435.5,245.5" stroke="black" stroke-width="2" fill="none" />
<polyline points="436.5,253.0,428.5,254.0,420.0,254.5,412.5,255.0,404.5,256.0,396.5,257.0,389.0,257.0,381.0,257.5,372.5,258.0,364.0,259.0,356.0,259.5,348.0,260.0,340.0,260.5,332.0,260.5,324.0,260.5,316.0,261.0,308.0,261.5,299.5,261.5,291.5,262.0,283.0,262.5,275.0,263.0,266.5,264.0,259.0,265.0,250.5,265.5,242.0,265.5,233.5,266.0,225.5,267.0,217.5,268.0,210.0,268.5,202.5,268.5,195.0,269.0,187.5,269.0,179.5,269.5" stroke="black" stroke-width="2" fill="none" />
<polyline points="182.0,263.0,190.0,255.5,198.0,248.0,205.5,241.0,213.5,234.0,221.5,227.0,229.0,219.5" stroke="black" stroke-width="2" fill="none" />
<polyline points="228.0,210.5,220.5,218.0,213.0,225.0,205.0,232.5,197.5,240.5,189.0,248.0,180.5,255.5,172.5,263.5" stroke="black" stroke-width="2" fill="none" />
<polyline points="171.5,258.5,179.5,258.0,188.0,257.5" stroke="black" stroke-width="2" fill="none" />
<polyline points="193.0,269.0,179.0,277.0,171.5,285.0,183.5,293.0,190.5,301.0,198.0,309.0,206.5,316.5" stroke="black" stroke-width="2" fill="none" />
<polyline points="217.5,317.5,225.5,317.0,234.0,317.0,242.5,316.5,250.5,316.5,258.5,315.5,266.5,315.0,274.5,314.0,282.5,313.0,291.0,312.0,299.5,311.5,307.5,311.0,315.5,311.0,323.5,311.0,331.5,310.5,339.0,310.5,347.5,310.0,356.0,309.0,364.5,308.5,372.5,308.0,380.5,308.0,388.0,307.0,395.5,306.5,403.5,305.5" stroke="black" stroke-width="2" fill="none" />
<polyline points="425.5,285.5,417.0,286.5,409.0,287.5,401.5,288.5,394.0,288.5,386.0,289.0,379.0,289.0,371.5,289.0,363.5,289.5,356.0,289.5,348.0,290.5,340.0,292.0,331.5,292.5,323.0,293.0,314.5,293.0,306.5,293.5,298.5,294.5,290.0,295.0,282.0,295.5,274.0,296.5,266.0,296.5,258.5,297.0,250.0,298.0,241.5,298.5,233.5,299.5,225.5,300.0,218.0,300.5,210.5,301.0,203.0,302.0,195.5,302.5" stroke="black" stroke-width="2" fill="none" />
<polyline points="190.5,296.0,198.5,306.5,206.5,313.5,214.0,318.5,222.0,321.5,229.5,322.5" stroke="black" stroke-width="2" fill="none" />
<polyline points="210.0,301.5,218.0,294.0,226.5,286.5,235.5,279.0,243.5,271.5,251.0,264.0,258.5,257.0,266.0,249.0,273.5,241.5,281.5,234.0" stroke="black" stroke-width="2" fill="none" />
<polyline points="277.5,234.5,269.5,242.0,260.5,250.0,252.0,257.5,244.0,265.5,236.0,273.5,228.0,281.0,220.5,289.5,212.5,297.5,204.0,305.5" stroke="black" stroke-width="2" fill="none" />
<polyline points="203.0,299.0,211.0,298.5,219.0,298.0,227.5,297.5,235.5,297.0,244.0,296.0,252.0,295.5,260.0,295.0,268.0,294.0" stroke="black" stroke-width="2" fill="none" />
<polyline points="265.0,294.5,268.0,289.5,275.5,286.5,282.0,284.5,290.0,284.5,297.5,285.5,306.0,284.0,314.0,284.0,322.5,283.0,330.0,283.0,338.0,283.0,346.0,281.0,354.5,282.0,362.5,280.0,370.5,277.5,378.5,278.5,387.0,273.5,395.0,275.0,403.5,269.5,411.5,268.0" stroke="black" stroke-width="2" fill="none" />
<polyline points="405.5,268.5,403.0,268.5,401.5,277.0,404.5,273.0,407.5,274.5,411.5,274.5,419.5,278.5,413.0,282.5" stroke="black" stroke-width="2" fill="none" />
<polyline points="385.0,266.5,377.5,274.0" stroke="black" stroke-width="2" fill="none" />
<polyline points="379.0,268.5,371.0,276.0" stroke="black" stroke-width="2" fill="none" />
<polyline points="371.0,253.0,379.0,245.0" stroke="black" stroke-width="2" fill="none" />
<polyline points="379.0,239.5,374.5,240.5,370.5,248.0,375.0,250.5,379.0,254.5" stroke="black" stroke-width="2" fill="none" />
<polyline points="368.5,252.5,367.0,257.5,362.0,257.5" stroke="black" stroke-width="2" fill="none" />
<polyline points="333.0,268.5,325.0,276.0,316.5,283.0" stroke="black" stroke-width="2" fill="none" />
<polyline points="308.0,301.0,300.5,308.0,292.5,315.0,284.5,322.0,276.5,329.5" stroke="black" stroke-width="2" fill="none" />
<polyline points="267.5,330.0,275.5,323.0,283.5,316.0,292.0,308.5,299.5,301.5" stroke="black" stroke-width="2" fill="none" />
<polyline points="295.5,286.5,293.5,294.5,286.5,310.0" stroke="black" stroke-width="2" fill="none" />
<polyline points="280.5,292.5,283.5,294.5,274.5,287.5,269.0,293.5,271.0,296.0,264.0,304.0,272.0,311.5,282.5,317.5,281.5,316.0,291.5,312.0,298.5,316.0,302.5,316.0,310.5,313.0,318.5,311.5,326.5,307.5,337.5,306.5" stroke="black" stroke-width="2" fill="none" />
<polyline points="338.5,294.0,323.5,296.0,322.5,308.0,326.5,317.5" stroke="black" stroke-width="2" fill="none" />
<polyline points="361.0,301.5,373.0,290.5" stroke="black" stroke-width="2" fill="none" />
<polyline points="437.5,276.0,429.5,276.5,421.0,277.0,412.5,277.5,405.0,278.0,397.0,278.5,389.0,279.0,381.5,280.0,373.0,281.5,365.0,282.5,357.5,283.0,349.5,283.0,341.5,283.5,333.0,284.0,325.0,284.5,317.0,285.0,309.0,285.5,301.0,286.0,293.0,287.0,285.0,288.0,276.5,288.5,268.5,289.0,260.5,289.5,252.5,290.0,244.0,290.5,236.0,290.5,228.0,291.0,220.0,291.5,211.5,291.5,203.5,291.5,195.5,291.5,188.0,292.5" stroke="black" stroke-width="2" fill="none" />
<polyline points="188.0,289.0,195.5,281.5,203.5,273.5,211.0,266.0,219.5,258.0,227.5,249.5,235.5,241.5,243.5,234.0" stroke="black" stroke-width="2" fill="none" />
<polyline points="252.0,235.5,244.5,243.0,236.5,250.0,229.0,257.5,221.0,265.5,212.5,273.5,204.5,281.0,196.5,289.0" stroke="black" stroke-width="2" fill="none" />
<polyline points="195.0,288.5,203.5,287.5,211.0,287.0,218.5,286.5,226.5,286.0,234.5,285.5,242.0,285.0,250.0,284.5,257.5,284.0,266.0,283.5" stroke="black" stroke-width="2" fill="none" />
<polyline points="266.5,276.0,259.0,276.0,250.5,277.0,243.0,278.0,235.0,278.5,226.5,279.0,218.0,279.0,210.5,279.5,203.0,279.5,195.0,280.0,186.5,280.0,179.0,281.0" stroke="black" stroke-width="2" fill="none" />
<polyline points="180.5,282.0,188.5,274.5" stroke="black" stroke-width="2" fill="none" />
<polyline points="187.0,280.0,195.0,272.5,202.0,265.0,209.5,258.0,217.0,251.0,225.0,244.0,233.0,236.5" stroke="black" stroke-width="2" fill="none" />
<polyline points="252.0,244.5,244.5,251.5,236.5,259.5,228.5,267.0,220.0,275.0,212.5,282.0,204.0,289.5" stroke="black" stroke-width="2" fill="none" />
<polyline points="204.5,297.0,212.5,289.5,220.0,282.0,228.0,274.5,236.5,266.5,245.0,259.0,253.0,251.0,261.0,243.5,269.5,236.0" stroke="black" stroke-width="2" fill="none" />
<polyline points="262.0,236.5,270.0,236.5,275.5,245.0,285.0,241.0" stroke="black" stroke-width="2" fill="none" />
<polyline points="286.5,254.0,286.5,246.5,285.0,244.5,286.0,236.5,286.5,231.5,282.5,223.0,272.5,222.0" stroke="black" stroke-width="2" fill="none" />
<polyline points="264.5,215.5,256.0,225.0" stroke="black" stroke-width="2" fill="none" />
<polyline points="226.0,225.5,217.5,226.5,209.5,227.0,201.0,228.0" stroke="black" stroke-width="2" fill="none" />
<polyline points="194.0,233.5,202.0,233.5,210.0,233.0,218.5,233.0,227.0,232.5" stroke="black" stroke-width="2" fill="none" />
<polyline points="229.0,250.0,220.5,250.0,212.5,250.5" stroke="black" stroke-width="2" fill="none" />
<polyline points="194.0,242.5,202.0,242.0,210.5,241.0,218.5,240.0,226.5,239.0,235.0,238.0" stroke="black" stroke-width="2" fill="none" />
<polyline points="218.5,216.5,211.0,217.0,203.5,217.5,196.0,218.5" stroke="black" stroke-width="2" fill="none" />
<polyline points="195.5,212.0,203.5,211.5,212.0,210.5,220.0,209.5" stroke="black" stroke-width="2" fill="none" />
<polyline points="220.0,203.5,212.0,211.0,204.0,218.5,196.0,225.5,188.0,233.0,179.5,240.5,171.5,248.0,164.0,256.0,156.0,264.0" stroke="black" stroke-width="2" fill="none" />
<polyline points="164.5,264.5,172.5,256.5,180.5,249.0,189.0,241.0,197.0,233.5,204.5,226.0,212.0,218.0,220.0,210.0,227.5,202.5" stroke="black" stroke-width="2" fill="none" />
<polyline points="230.5,205.0,234.5,203.0,235.5,210.0,243.5,211.0,249.0,203.0,261.0,202.5,267.0,199.5,275.5,192.5" stroke="black" stroke-width="2" fill="none" />
<polyline points="273.5,190.5,265.5,190.5" stroke="black" stroke-width="2" fill="none" />
<polyline points="263.0,190.5,271.0,178.5,282.0,168.0,289.5,157.0,294.5,158.0,300.5,164.0,307.0,150.0,313.0,140.0,321.0,140.0,326.0,142.0,334.0,142.0,341.5,132.0,353.5,124.0,361.5,124.0" stroke="black" stroke-width="2" fill="none" />
<polyline points="364.0,139.0,356.5,139.0" stroke="black" stroke-width="2" fill="none" />
<polyline points="347.5,138.0,350.5,135.0,358.5,135.5,366.0,136.5,374.0,130.0,372.0,135.0,374.5,137.0,372.0,149.5,368.0,157.0,361.0,162.0,349.5,166.0,349.5,171.0,344.0,175.5,344.0,178.5,345.5,187.5,350.5,192.5,352.5,191.5,348.5,199.5,337.0,206.5,334.5,215.5,333.5,223.5,333.5,231.5,340.5,235.5,333.5,241.0,322.5,248.0,325.5,251.0,315.5,256.0" stroke="black" stroke-width="2" fill="none" />
<polyline points="328.5,291.5,315.5,290.5,307.5,295.0,304.5,293.5,297.5,293.5,291.5,293.5,285.5,291.0,279.5,305.0,272.0,306.0,276.0,307.0,280.0,299.0,268.5,292.0,267.5,302.0" stroke="black" stroke-width="2" fill="none" />
<polyline points="264.0,305.0,263.5,303.0,268.0,304.0,268.0,312.0,273.0,315.0,281.0,310.0,292.0,302.0,300.0,306.5,308.0,302.5,312.5,302.0,320.5,298.0" stroke="black" stroke-width="2" fill="none" />
<polyline points="391.0,240.5,385.0,229.5,378.0,228.5,373.0,224.0,364.5,217.0,372.0,213.0,358.5,199.0,368.0,191.0,357.0,188.0,355.5,185.0,353.5,180.5,355.5,172.5,361.5,168.5,366.5,163.0,376.5,158.0,378.5,151.5,386.0,147.5,386.0,134.5,391.5,130.0,389.5,130.0,381.5,134.0,379.0,138.0" stroke="black" stroke-width="2" fill="none" />
<polyline points="379.0,141.0,387.0,141.0,395.5,136.0,398.5,127.0" stroke="black" stroke-width="2" fill="none" />
<polyline points="403.5,125.5,411.5,125.0,420.0,124.0" stroke="black" stroke-width="2" fill="none" />
<polyline points="415.5,132.5,415.5,137.0,423.5,136.0,427.5,128.0,435.5,125.5" stroke="black" stroke-width="2" fill="none" />
<polyline points="436.0,123.0,442.5,115.5,453.0,109.5,469.0,99.5,483.0,91.5,480.5,96.5,472.5,101.5,465.0,106.5,457.0,110.5,448.0,113.5,440.0,117.5,438.5,115.5,430.5,118.5,426.5,117.0,425.5,124.5,417.5,127.0,408.5,123.0,417.5,115.5,431.5,107.5,446.5,99.5,459.5,91.5,472.5,90.0,464.5,93.0,456.5,98.0" stroke="black" stroke-width="2" fill="none" />
<polyline points="461.5,107.5,475.5,99.5,488.0,91.5" stroke="black" stroke-width="2" fill="none" />
<polyline points="480.5,94.5,472.0,98.5,464.5,103.5,456.5,108.5,448.5,108.5,439.0,112.0,431.0,112.0" stroke="black" stroke-width="2" fill="none" />
<polyline points="413.0,132.0,405.0,132.0" stroke="black" stroke-width="2" fill="none" />
<polyline points="403.0,142.0,411.0,141.5" stroke="black" stroke-width="2" fill="none" />
<polyline points="408.5,147.0,409.5,154.5,408.5,162.5,406.0,170.5,404.5,178.0,402.5,186.0,401.0,194.5" stroke="black" stroke-width="2" fill="none" />
<polyline points="404.0,204.5,412.0,204.0" stroke="black" stroke-width="2" fill="none" />
<polyline points="401.0,205.5,399.0,213.5,398.0,221.5" stroke="black" stroke-width="2" fill="none" />
<polyline points="388.5,219.0,387.5,216.0,386.5,211.5,391.5,203.5,385.0,204.5,377.5,200.5,368.5,201.0,363.5,194.5,353.5,196.5,357.5,200.5" stroke="black" stroke-width="2" fill="none" />
<polyline points="351.0,195.5,354.0,188.5,362.0,182.5,367.0,168.0,370.0,173.0,375.0,164.0,378.0,156.0,387.0,147.0,394.0,154.5" stroke="black" stroke-width="2" fill="none" />
<polyline points="388.0,153.0,386.0,161.0,388.0,162.5,378.5,167.5,379.5,176.0,383.5,182.5,379.0,188.5,374.5,189.0,378.0,194.0,378.0,201.0,383.0,204.5,379.0,214.0,375.0,214.0,370.0,218.0,375.0,229.0,383.5,223.5,385.5,225.5,390.5,224.5" stroke="black" stroke-width="2" fill="none" />
<polyline points="381.5,225.5,381.5,218.0" stroke="black" stroke-width="2" fill="none" />
<polyline points="380.5,214.5,376.0,212.5,368.0,210.0" stroke="black" stroke-width="2" fill="none" />
<polyline points="387.5,197.0,395.5,196.5" stroke="black" stroke-width="2" fill="none" />
<polyline points="394.5,189.5,386.5,190.5" stroke="black" stroke-width="2" fill="none" />
<polyline points="388.0,181.0,395.5,180.5" stroke="black" stroke-width="2" fill="none" />
<polyline points="396.5,173.5,388.5,174.0" stroke="black" stroke-width="2" fill="none" />
<polyline points="388.0,167.0,396.5,166.0,404.5,165.5" stroke="black" stroke-width="2" fill="none" />
<polyline points="402.0,157.0,394.5,157.0,387.0,157.0" stroke="black" stroke-width="2" fill="none" />
<polyline points="379.0,150.0,386.5,149.0,395.0,148.0,403.0,147.5" stroke="black" stroke-width="2" fill="none" />
<polyline points="393.5,141.0,400.5,145.0,400.0,152.5,398.0,160.5,400.0,168.5,396.0,176.5,397.5,184.0,396.5,188.0,392.5,196.0,394.5,196.5,400.5,202.5,391.5,208.5,384.0,217.0,390.0,219.0,387.5,224.5,382.5,230.5,391.5,226.5,395.0,224.0,405.0,225.0,413.5,225.0,419.5,236.0,419.5,248.0" stroke="black" stroke-width="2" fill="none" />
<polyline points="415.5,254.5,419.5,246.5,420.0,238.0,419.0,230.5" stroke="black" stroke-width="2" fill="none" />
<polyline points="428.5,221.0,438.5,229.5,442.0,237.5,440.0,246.0,440.0,253.5,437.5,262.0,438.0,270.0,439.0,278.5,442.0,286.5,436.5,295.0,427.5,306.0,415.5,314.0,395.5,322.0" stroke="black" stroke-width="2" fill="none" />
<polyline points="435.5,269.0,428.5,269.5,420.5,270.0,412.5,270.0,404.5,270.5,396.0,271.0,387.5,272.0,379.0,272.5,371.5,273.0,363.5,273.5,356.0,274.5,347.0,275.5,339.0,276.0,331.5,276.5,323.5,276.5,316.0,277.0,308.5,278.0,300.5,279.5,292.5,279.5,284.5,280.0,276.5,280.5,268.5,281.0,260.0,282.0,252.5,282.5,244.0,282.5,236.0,283.0,227.5,283.0,219.5,283.0,211.5,283.5,204.0,284.0,196.0,284.5,188.0,284.5,180.0,284.5" stroke="black" stroke-width="2" fill="none" />
<polyline points="181.0,277.5,173.0,282.5" stroke="black" stroke-width="2" fill="none" />
<polyline points="171.0,278.5,179.0,278.0,186.5,277.0,194.0,276.0,202.5,275.5,211.0,274.5,219.0,274.0,227.5,274.0,236.0,273.5,245.0,273.5,253.0,273.0,261.5,272.5,268.5,272.0,276.0,272.0,283.5,271.5,291.0,271.5,299.0,270.5,307.5,270.0,316.0,269.5,323.5,269.0,331.5,268.5,339.5,268.0,347.0,267.5,354.5,266.5,362.5,265.0,370.5,264.0,378.0,263.0,385.5,263.0,393.0,263.0,400.5,262.5,408.5,262.5,416.5,261.5,425.5,260.5,434.0,260.0" stroke="black" stroke-width="2" fill="none" />
<polyline points="438.0,223.0,430.5,223.5,422.0,223.5,414.0,224.0,405.0,225.0,396.5,226.0,388.0,227.0,380.0,227.5,371.5,228.0,364.0,229.0,356.0,229.5,347.5,229.5,339.5,229.5,331.5,230.0,324.0,231.0,316.0,231.5,308.0,232.0,299.5,232.5,291.0,233.5,282.5,234.0,274.5,235.0,266.5,235.5,258.5,236.0,250.5,236.5,242.5,237.0,235.0,237.5,227.0,238.0,219.5,239.0,211.5,239.5,204.0,240.0,196.5,241.0,188.5,241.5,180.0,242.0,172.5,242.5,165.0,242.5,157.0,242.5,148.5,242.0,140.5,242.5,132.5,242.0,125.0,242.5,116.5,242.5,108.5,242.0,100.5,242.5" stroke="black" stroke-width="2" fill="none" />
<polyline points="91.5,237.5,99.5,237.0,107.5,236.5,115.5,236.0,123.0,235.5,131.0,234.5,139.0,234.5,147.0,234.5,155.0,234.5,163.0,234.5,170.5,234.0,178.5,233.5,187.0,233.0,195.5,232.5,203.5,232.0,212.0,231.5,219.5,231.0,227.5,230.0,235.5,229.5,243.0,229.0,251.0,228.5,259.0,228.0,267.0,227.5,275.5,226.5,284.0,225.5,292.0,225.0,300.0,224.5,308.0,224.0,316.0,223.5,324.0,222.5,332.0,222.0,340.0,221.0,348.0,220.5,356.0,220.0,364.0,220.0,372.0,220.0,380.0,219.0,388.0,218.0,396.0,218.0,404.0,217.5,412.0,217.5,420.0,217.0,428.0,216.5,436.0,215.5" stroke="black" stroke-width="2" fill="none" />
<polyline points="437.0,207.0,429.5,207.5,422.0,208.0,413.5,208.0,406.0,209.0,397.5,210.0,389.5,211.0,381.5,212.0,373.5,212.5,365.5,213.0,357.5,214.0,349.5,215.0,341.5,215.5,333.5,216.0,326.0,216.0,318.0,217.5,310.0,218.0,301.5,218.5,293.0,219.0,285.0,219.0,276.5,220.0,268.5,220.5,260.0,221.0,252.0,221.5,244.0,222.0,235.5,222.5,227.5,222.5,219.5,222.5,212.0,223.0,204.0,223.5,196.5,224.0,188.5,224.0,180.5,224.5,173.0,225.0,164.5,226.0,156.5,226.0,148.5,226.5,140.0,226.5,131.5,227.0,123.5,227.5,115.5,228.5,107.5,228.5,99.0,229.0,90.5,229.0" stroke="black" stroke-width="2" fill="none" />
<polyline points="92.0,221.0,100.0,220.0,108.5,219.5,116.5,219.0,124.0,218.5,132.0,218.0,140.5,218.0,148.5,217.5,156.0,217.0,164.0,216.5,172.0,216.5,179.5,215.5,187.0,215.0,195.5,214.5,204.0,214.5,212.5,214.0,220.5,214.0,228.5,214.0,236.5,213.5,244.5,213.0,252.5,212.5,260.5,212.0,269.0,212.0,277.5,211.5,285.5,211.5,293.5,211.0,301.5,210.0,309.5,209.5,317.5,208.5,325.5,208.0,333.5,208.0,341.0,207.0,348.5,206.0,356.0,205.5,364.0,205.0,371.5,204.5,380.0,204.0,388.5,203.0,396.5,202.0" stroke="black" stroke-width="2" fill="none" />
<polyline points="397.0,195.0,388.5,195.0,379.5,195.0,371.5,195.0,363.5,195.5,356.0,196.5,347.5,197.0,339.5,198.5,331.0,198.5,323.0,199.5,315.0,199.5,308.0,199.5,300.5,199.5,293.0,200.0,285.0,201.0,277.5,201.5,269.5,202.5,261.0,202.5,252.0,203.0,244.5,203.5,236.5,203.5,228.0,204.0,220.0,204.0,212.0,205.0,203.5,205.0,195.0,205.5,187.0,206.0,179.5,206.5,171.5,207.0,163.5,207.5,155.5,208.0,148.0,208.5,141.0,209.5,133.5,210.5,125.5,211.0,117.5,211.5,109.5,211.5,101.5,211.5,93.0,212.0" stroke="black" stroke-width="2" fill="none" />
<polyline points="93.0,204.5,101.0,204.0,109.0,204.0,116.5,203.5,124.0,203.0,132.0,202.5,140.0,202.0,148.0,201.5,156.0,200.5,164.0,200.0,172.0,199.0,180.0,199.0,187.5,198.5,195.5,198.0,203.5,197.5,211.5,197.5,219.5,197.0,227.0,197.0,234.5,197.0,242.5,197.0,250.5,196.5,258.5,195.5,267.0,195.0,275.5,194.0,284.0,194.0,292.5,193.0,300.5,192.5,308.5,191.5,316.5,190.5,324.5,190.5,332.5,190.0,340.5,189.5,348.5,189.5,356.0,189.0,364.0,189.0,372.0,189.0,379.5,188.5,387.5,188.0,395.5,187.5" stroke="black" stroke-width="2" fill="none" />
<polyline points="371.5,184.0,372.0,181.5,371.0,173.5,375.5,166.5,374.5,174.5" stroke="black" stroke-width="2" fill="none" />
<polyline points="364.5,165.0,363.0,173.0,365.0,172.0,364.0,180.5,364.0,184.0,367.0,185.0,369.5,197.0,373.5,191.5" stroke="black" stroke-width="2" fill="none" />
<polyline points="349.5,180.5,342.5,184.5,332.0,185.0,330.5,186.0,332.0,178.0,330.0,163.5,332.5,155.5,328.5,155.5" stroke="black" stroke-width="2" fill="none" />
<polyline points="322.0,158.5,314.5,159.0,306.0,160.0,297.5,160.5,289.5,161.5,281.5,162.0,274.0,162.5,266.5,163.0,259.0,164.0,251.5,164.5,243.5,165.0,236.0,165.5,228.5,166.0,220.5,166.5,212.5,167.0,205.0,167.5,197.0,167.5,189.5,168.0,181.5,168.0,173.5,168.5,165.5,169.0,157.0,169.0,149.0,170.0,140.5,170.5,132.5,171.0,124.0,171.0,116.0,171.5,108.0,171.5,100.5,172.0,93.0,172.5" stroke="black" stroke-width="2" fill="none" />
<polyline points="92.0,180.5,100.0,180.0,109.0,179.0,117.5,178.5,125.5,178.0,133.5,177.5,141.0,177.5,149.0,177.0,156.5,177.5,165.0,178.0,173.0,177.5,181.0,177.0,189.0,176.0,197.0,175.5,204.0,175.0,211.5,174.5,219.0,174.5,226.0,174.0,233.5,173.5,241.0,173.0,249.5,172.5,257.0,172.0,265.5,172.0,274.0,172.0,283.0,171.0,291.5,170.5,299.5,169.5,307.5,168.5,315.0,168.0,322.5,167.0" stroke="black" stroke-width="2" fill="none" />
<polyline points="316.0,174.0,308.0,181.0,300.5,187.5" stroke="black" stroke-width="2" fill="none" />
<polyline points="308.0,195.0,315.5,187.5" stroke="black" stroke-width="2" fill="none" />
<polyline points="315.5,180.0,308.0,187.5,299.5,195.0" stroke="black" stroke-width="2" fill="none" />
<polyline points="292.0,188.5,300.0,181.0,308.0,173.5" stroke="black" stroke-width="2" fill="none" />
<polyline points="309.5,165.0,301.0,172.5,292.0,180.0" stroke="black" stroke-width="2" fill="none" />
<polyline points="293.0,171.0,300.5,163.5,308.0,155.5" stroke="black" stroke-width="2" fill="none" />
<polyline points="306.5,149.0,298.5,156.5,290.5,164.0" stroke="black" stroke-width="2" fill="none" />
<polyline points="291.5,154.0,299.5,147.0" stroke="black" stroke-width="2" fill="none" />
<polyline points="300.5,140.5,309.0,133.0" stroke="black" stroke-width="2" fill="none" />
<polyline points="307.0,124.5,299.5,131.5,291.5,138.0" stroke="black" stroke-width="2" fill="none" />
<polyline points="291.5,132.0,300.0,124.0,308.5,116.5" stroke="black" stroke-width="2" fill="none" />
<polyline points="308.0,110.0,300.0,117.5,291.5,125.5,283.5,132.5" stroke="black" stroke-width="2" fill="none" />
<polyline points="285.0,125.5,293.0,127.5,304.0,133.5,312.0,132.5,320.5,133.0" stroke="black" stroke-width="2" fill="none" />
<polyline points="324.0,136.5,316.5,138.0,309.0,138.5,301.0,138.5,292.5,139.0,284.5,139.5,275.5,140.5,267.0,141.0,259.0,141.5,251.0,141.5" stroke="black" stroke-width="2" fill="none" />
<polyline points="252.0,133.5,259.5,133.0,267.0,132.0,275.0,131.5,282.5,131.0,291.0,131.0,299.0,130.5,307.5,130.0,315.5,129.5,324.0,129.0" stroke="black" stroke-width="2" fill="none" />
<polyline points="324.0,112.5,315.5,113.0,307.0,113.5,299.0,114.5,291.5,114.5,284.0,115.0,276.5,115.0,269.5,115.5,261.0,116.0,253.0,116.5,244.0,116.5,235.5,117.0,227.0,117.0,219.0,117.5,210.5,118.5,202.0,119.0,194.5,120.0,187.0,121.0,179.0,121.5,171.0,122.0,163.5,122.5,155.5,123.0,148.0,123.5,140.0,124.0,132.5,124.0,124.5,123.0,117.0,123.0,109.5,123.0,101.5,123.5" stroke="black" stroke-width="2" fill="none" />
<polyline points="101.0,127.5,109.0,120.5,117.0,113.0,124.5,105.5,132.0,97.5,140.0,90.0,148.0,82.5,156.0,75.0" stroke="black" stroke-width="2" fill="none" />
<polyline points="147.0,76.0,139.0,83.5,131.0,90.5,123.0,97.5,115.0,104.5,107.0,112.0,99.5,119.0" stroke="black" stroke-width="2" fill="none" />
<polyline points="99.5,117.0,107.5,117.0,115.5,116.0,123.5,115.5,131.5,115.0,140.0,115.0,147.5,114.5,155.5,114.5,163.0,114.0,171.0,113.5,179.5,113.5,187.5,113.0,196.0,112.5,204.0,112.0,211.5,111.0,219.5,110.5,227.5,110.0,235.0,109.5,242.5,109.0,250.0,109.0,257.5,108.5,266.0,108.0,274.5,107.5,283.0,107.0,291.0,107.0,299.0,106.5,307.5,106.5,315.5,106.0,323.5,105.5" stroke="black" stroke-width="2" fill="none" />
<polyline points="310.0,99.0,301.5,106.5,292.5,113.5,284.0,121.0" stroke="black" stroke-width="2" fill="none" />
<polyline points="277.0,121.0,285.5,113.0,293.0,105.0,301.0,97.0,309.0,89.0" stroke="black" stroke-width="2" fill="none" />
<polyline points="308.5,81.5,300.5,89.0,293.0,96.5,284.5,104.5,277.0,112.5,268.5,120.0" stroke="black" stroke-width="2" fill="none" />
<polyline points="260.0,120.0,268.0,112.0,276.0,105.0,284.0,97.5,292.5,90.5,300.5,83.0" stroke="black" stroke-width="2" fill="none" />
<polyline points="292.0,82.0,283.5,90.0,275.0,98.0,267.0,106.0,258.5,113.5" stroke="black" stroke-width="2" fill="none" />
<polyline points="251.5,112.0,259.5,104.5,267.0,97.0,275.0,89.5,283.0,82.0,291.0,74.5" stroke="black" stroke-width="2" fill="none" />
<polyline points="288.0,76.5,296.0,80.5,304.0,74.5" stroke="black" stroke-width="2" fill="none" />
<polyline points="301.0,58.0,309.5,50.0" stroke="black" stroke-width="2" fill="none" />
<polyline points="308.0,43.0,300.5,50.5" stroke="black" stroke-width="2" fill="none" />
<polyline points="292.0,54.0,302.0,62.0,303.5,75.0,305.5,83.0,306.5,91.0,306.5,98.5,308.0,106.5,308.0,114.5,302.5,126.5,310.5,130.0,299.5,137.0,310.5,138.0,314.5,135.0" stroke="black" stroke-width="2" fill="none" />
<polyline points="322.5,135.0,314.5,135.5,306.5,136.0,299.0,136.5,291.0,137.0,283.5,138.0,275.5,138.5,268.0,139.0,260.5,140.0,252.5,140.5,244.0,141.0,236.5,141.5,229.0,141.5,221.0,141.5,212.5,141.0,204.5,141.5,196.5,141.0,189.0,141.5,180.5,141.5,172.5,141.0,164.5,141.5,156.5,142.5,148.5,144.0,140.0,145.0,132.0,146.0,124.0,147.0,116.0,148.0,108.0,148.0,100.0,148.5,93.0,149.0,85.0,150.0" stroke="black" stroke-width="2" fill="none" />
<polyline points="85.5,147.0,86.0,146.0,89.0,154.0,91.0,158.0,89.0,166.0,89.5,175.0,90.5,183.0,90.5,191.0,91.5,198.5,92.0,206.5,93.0,214.5,94.0,225.5,95.0,233.0,95.5,244.0,96.5,252.0,96.5,260.0,97.0,271.0,105.0,269.0,113.0,271.0" stroke="black" stroke-width="2" fill="none" />
<polyline points="117.5,266.0,125.0,265.5,132.5,264.5,140.5,264.0,148.5,263.5" stroke="black" stroke-width="2" fill="none" />
<polyline points="147.5,262.0,156.0,254.5,164.5,247.0,172.5,239.5,181.0,232.0,189.0,224.5,197.0,217.0,205.5,209.5,214.0,202.0,221.5,194.0" stroke="black" stroke-width="2" fill="none" />
<polyline points="220.0,187.0,212.5,194.5,205.0,201.5,197.5,209.0,189.5,217.0,181.5,225.0,173.0,232.5,164.0,240.0,156.0,247.0,148.5,254.5,140.5,262.0" stroke="black" stroke-width="2" fill="none" />
<polyline points="134.0,262.5,142.5,255.5,150.5,248.0,158.5,240.5,166.5,232.5,174.5,225.0,182.0,217.5,189.5,210.0,197.5,202.0,205.5,194.5,213.5,187.0,221.5,179.5" stroke="black" stroke-width="2" fill="none" />
<polyline points="220.5,172.5,212.5,180.0,204.5,187.5,196.0,195.0,188.5,202.0,180.0,209.5,172.5,216.5,165.0,223.5,157.5,231.0,150.0,238.5,141.5,246.0,133.5,254.0,125.0,261.5" stroke="black" stroke-width="2" fill="none" />
<polyline points="116.0,258.5,124.0,258.0,132.0,257.5,140.0,257.0,148.0,256.0,156.0,255.5" stroke="black" stroke-width="2" fill="none" />
<polyline points="138.0,249.5,130.0,249.5,122.5,250.0,115.0,250.5" stroke="black" stroke-width="2" fill="none" />
<polyline points="115.0,252.0,123.0,244.5,131.0,237.0,139.0,229.5,146.5,222.5,155.0,214.5,163.0,206.5,171.0,199.0,179.0,191.5,186.5,184.0,194.5,177.0,202.0,170.0,210.0,163.0,218.0,155.0" stroke="black" stroke-width="2" fill="none" />
<polyline points="217.5,164.5,209.5,172.0,202.0,178.5,194.5,185.5,187.5,192.5,180.0,200.0,172.5,207.5,164.5,215.0,156.5,222.5,148.0,229.5,140.0,237.0,131.5,245.0,123.0,253.0,115.0,261.0" stroke="black" stroke-width="2" fill="none" />
<polyline points="114.0,244.0,121.5,236.0,129.0,228.5,137.0,221.0,145.5,213.0,153.5,205.5,161.5,198.5,169.0,191.5,177.0,184.5,185.0,176.5,193.5,168.5,202.0,160.5,210.0,152.5,218.5,145.0" stroke="black" stroke-width="2" fill="none" />
<polyline points="225.0,143.5,224.0,144.5,223.5,152.5,220.5,156.5,221.0,154.5,230.0,158.5,230.0,152.5,238.5,160.5" stroke="black" stroke-width="2" fill="none" />
<polyline points="239.5,161.5,227.5,163.5,230.5,156.0" stroke="black" stroke-width="2" fill="none" />
<polyline points="228.0,149.5,235.5,148.5" stroke="black" stroke-width="2" fill="none" />
<polyline points="243.0,133.0,235.0,133.0,227.5,133.0,219.5,133.0,212.0,133.5,204.5,133.0,196.5,133.5,189.0,134.5,181.5,135.0,173.5,135.5,165.5,136.0,157.5,136.5,148.5,137.0,140.0,138.0,131.5,138.5,122.5,139.0,115.0,139.5,107.5,140.5,99.5,141.0,91.5,141.5,83.5,142.5" stroke="black" stroke-width="2" fill="none" />
<polyline points="82.0,132.5,90.0,131.5" stroke="black" stroke-width="2" fill="none" />
<polyline points="100.0,137.0,108.0,129.0,116.0,121.0,124.0,113.5,132.0,106.0,140.0,99.0" stroke="black" stroke-width="2" fill="none" />
<polyline points="146.0,100.0,138.0,107.0,129.5,114.5,122.0,122.5,114.5,130.0,107.0,138.0,99.5,144.5" stroke="black" stroke-width="2" fill="none" />
<polyline points="109.0,145.0,117.0,144.5,124.5,144.5,132.5,144.0,140.5,144.0,148.0,144.0,156.0,143.5" stroke="black" stroke-width="2" fill="none" />
<polyline points="155.5,151.0,147.5,152.0,140.0,152.5,132.5,153.0,125.0,153.0,116.5,153.0,108.5,153.5" stroke="black" stroke-width="2" fill="none" />
<polyline points="105.5,159.0,114.0,151.0,122.5,144.0,130.5,137.0,138.5,130.5,147.0,123.5,155.5,116.0,163.5,108.5" stroke="black" stroke-width="2" fill="none" />
<polyline points="156.0,107.0,148.0,115.0,140.0,122.5,132.0,130.5,124.0,138.0,116.5,145.5,108.0,153.0" stroke="black" stroke-width="2" fill="none" />
<polyline points="110.5,162.5,118.5,161.5,126.0,161.0,133.5,160.5,141.0,159.5,148.5,159.0,156.0,158.5" stroke="black" stroke-width="2" fill="none" />
<polyline points="170.5,161.0,178.5,161.0,186.5,160.5,194.5,160.0,202.0,160.0,210.0,160.0" stroke="black" stroke-width="2" fill="none" />
<polyline points="212.5,153.0,204.5,154.0,197.0,154.5" stroke="black" stroke-width="2" fill="none" />
<polyline points="189.5,152.0,188.5,150.0,180.5,148.5" stroke="black" stroke-width="2" fill="none" />
<polyline points="180.0,147.0,188.5,146.5,196.5,146.0,204.0,145.0,211.5,144.5" stroke="black" stroke-width="2" fill="none" />
<polyline points="212.5,138.5,204.5,146.0,196.0,153.5,188.0,161.0,180.0,168.5,172.5,175.5,164.0,183.5,156.0,191.5,147.5,199.5,139.5,208.0,130.5,215.5,123.0,222.5,115.0,230.0" stroke="black" stroke-width="2" fill="none" />
<polyline points="117.0,234.0,124.5,233.5,132.5,233.0,140.5,233.0,148.0,232.5" stroke="black" stroke-width="2" fill="none" />
<polyline points="147.5,241.0,139.5,241.5,131.0,242.0,122.5,242.5,114.5,243.0" stroke="black" stroke-width="2" fill="none" />
<polyline points="114.5,236.0,122.0,228.0,129.5,220.5,137.5,213.0,145.5,205.5,153.0,198.5,161.0,191.5,169.5,184.5,178.0,176.5,186.0,169.0,195.0,161.0,203.5,153.0,211.5,145.5,220.0,137.5" stroke="black" stroke-width="2" fill="none" />
<polyline points="218.5,131.0,226.5,133.0,231.5,137.0,240.5,138.0,245.0,136.0,248.0,139.0,257.0,140.0,265.0,137.0,267.5,134.5" stroke="black" stroke-width="2" fill="none" />
<polyline points="265.0,125.5,262.0,125.5,254.0,130.0" stroke="black" stroke-width="2" fill="none" />
<polyline points="249.0,130.5,250.0,127.5,259.0,127.5,254.5,131.5,249.5,145.0,249.5,153.0,250.0,161.0,251.0,169.0,251.0,171.0,252.5,179.0,252.5,187.0,241.0,188.0,237.0,194.0,234.0,201.5,224.0,205.5,235.5,210.5,236.5,214.0,231.5,222.5,232.5,232.0,240.5,235.0,243.5,241.5" stroke="black" stroke-width="2" fill="none" />
<polyline points="211.0,272.5,203.0,273.5,195.0,274.0" stroke="black" stroke-width="2" fill="none" />
<polyline points="207.5,272.0,216.0,270.0,225.0,270.5" stroke="black" stroke-width="2" fill="none" />
<polyline points="171.5,264.0,163.0,264.5,155.0,265.5,147.0,266.0,139.0,267.0,131.0,267.0,123.0,267.5,115.0,268.0,107.0,268.0,98.5,268.5" stroke="black" stroke-width="2" fill="none" />
<polyline points="87.5,257.5,80.0,246.5,72.0,241.5" stroke="black" stroke-width="2" fill="none" />
<polyline points="105.0,216.5,113.5,208.5,122.0,201.5,130.5,194.0,138.5,186.5,147.0,179.5,155.0,172.5,163.5,165.5,171.5,158.0,178.5,151.5,186.5,144.0,194.5,136.5,202.5,129.0,211.0,121.5,219.5,114.0,227.5,106.5,235.5,99.0,243.5,91.0,251.5,83.0,260.0,74.5,268.5,66.5" stroke="black" stroke-width="2" fill="none" />
<polyline points="261.5,65.5,253.5,73.0,245.5,80.5,237.5,88.5,229.5,96.5,221.5,104.5,213.5,112.5,206.0,120.5,197.5,128.5,189.0,136.5,181.5,144.0,173.0,151.5,164.0,159.0,156.0,166.5,147.5,174.0,139.5,181.5,131.5,189.5,123.5,197.0,115.5,204.0,107.5,211.0" stroke="black" stroke-width="2" fill="none" />
<polyline points="116.0,208.0,124.0,208.0,131.5,207.5,139.5,207.0,147.5,206.5" stroke="black" stroke-width="2" fill="none" />
<polyline points="147.5,214.0,139.0,214.5,131.0,215.0,123.5,215.5,115.5,216.0" stroke="black" stroke-width="2" fill="none" />
<polyline points="116.0,225.5,123.5,224.5,131.0,224.0,139.5,223.5,148.0,223.5" stroke="black" stroke-width="2" fill="none" />
<polyline points="148.0,199.5,140.5,200.0,133.0,200.0,125.0,200.0,116.5,200.5" stroke="black" stroke-width="2" fill="none" />
<polyline points="106.0,199.5,113.5,192.0,121.0,184.5,129.0,177.0,137.0,169.5,145.0,161.0,153.0,153.0,161.0,145.5,169.5,138.0,177.0,130.0,185.5,123.5,193.5,116.5,202.0,109.0,211.0,101.5,218.5,94.5,226.0,87.5,234.0,80.0,242.5,72.0,250.5,64.5,258.5,56.5,266.0,49.0,273.5,41.0,281.0,33.5,289.0,26.0" stroke="black" stroke-width="2" fill="none" />
<polyline points="283.5,26.5,275.5,34.5,267.5,41.5,259.5,49.0,251.5,57.0,244.0,65.0,235.5,73.0,227.5,80.5,219.5,88.0,211.5,95.5,203.5,103.0,196.0,110.5,187.5,118.0,179.5,126.0,171.5,134.0,163.0,141.5,155.5,149.0,147.5,156.5,139.5,164.0,131.5,171.0,124.0,178.5,115.5,185.5,107.0,193.0" stroke="black" stroke-width="2" fill="none" />
<polyline points="109.0,192.5,117.0,192.5,124.5,191.5,132.0,191.5,139.5,192.0,147.0,192.0" stroke="black" stroke-width="2" fill="none" />
<polyline points="151.0,191.5,159.0,184.0" stroke="black" stroke-width="2" fill="none" />
<polyline points="155.0,183.5,147.5,183.5,140.0,184.0,133.0,184.5,125.0,185.0,117.0,186.0,109.0,186.5" stroke="black" stroke-width="2" fill="none" />
<polyline points="110.5,186.5,118.0,179.0,126.5,171.5,134.5,164.5,142.5,157.0,150.0,149.5,157.5,142.0,166.0,134.5,173.5,127.5,181.5,120.0,189.0,112.0,197.0,104.5,205.0,97.0,213.0,90.0,221.0,82.0,229.0,74.5,237.0,66.5,245.0,59.0,253.0,50.5,261.0,42.0,269.5,34.5,277.5,27.0" stroke="black" stroke-width="2" fill="none" />
<polyline points="273.5,22.5,282.0,22.0,290.5,21.5,299.0,21.0" stroke="black" stroke-width="2" fill="none" />
<polyline points="301.0,24.5,305.0,32.0,304.5,40.0,304.5,48.0,305.5,56.5" stroke="black" stroke-width="2" fill="none" />
<polyline points="316.0,63.5,308.0,64.0,300.0,65.0,291.5,65.5,283.0,66.5,274.5,67.0,266.0,67.0,258.0,67.5,250.0,67.5,242.0,68.5,233.5,69.0,225.5,70.0,218.0,70.5,210.5,71.0,202.5,71.0,194.5,71.0,186.5,71.0,179.0,71.5,171.0,72.0,163.0,72.5,154.5,72.5,146.0,73.0,138.0,74.0,129.5,74.5,121.5,75.0,113.5,75.0,105.5,75.5,97.0,76.0,89.0,76.5" stroke="black" stroke-width="2" fill="none" />
<polyline points="91.5,69.5,99.5,68.5,106.5,68.0,114.5,67.5,123.0,67.0,130.5,66.5,139.0,66.0,147.5,65.5,156.0,65.0,164.0,64.5,172.5,64.0,180.0,64.0,188.0,63.5,196.0,63.5,203.5,63.5,211.5,63.0,219.5,63.0,227.5,62.5,235.5,62.0,243.5,61.0,252.0,60.5,259.5,59.5,267.0,59.0,274.5,58.5,283.0,58.0,290.5,57.0" stroke="black" stroke-width="2" fill="none" />
<polyline points="288.5,52.0,286.5,60.0,285.5,68.0,285.5,75.5" stroke="black" stroke-width="2" fill="none" />
<polyline points="281.5,75.0,273.5,82.5,265.0,90.0,257.0,97.5,249.5,105.0,242.0,112.5" stroke="black" stroke-width="2" fill="none" />
<polyline points="250.5,113.0,258.5,112.5" stroke="black" stroke-width="2" fill="none" />
<polyline points="277.0,114.0,285.5,113.5,292.5,113.0,300.0,113.0,307.5,112.5" stroke="black" stroke-width="2" fill="none" />
<polyline points="306.5,105.5,298.5,106.0" stroke="black" stroke-width="2" fill="none" />
<polyline points="291.0,89.5,298.5,89.0,306.5,88.5" stroke="black" stroke-width="2" fill="none" />
<polyline points="282.5,68.5,275.0,75.5,267.0,83.0,259.0,90.0,250.5,97.0,242.0,104.5,234.5,112.0,227.0,119.5" stroke="black" stroke-width="2" fill="none" />
<polyline points="221.0,120.0,229.0,113.0,237.0,105.5,245.0,98.0,252.5,90.0,260.5,82.0,268.5,74.0,276.5,66.5,284.0,59.5,292.0,52.0,300.0,44.0,308.0,36.5" stroke="black" stroke-width="2" fill="none" />
<polyline points="308.0,29.0,300.0,36.5,292.5,43.5,284.5,50.5,276.0,58.0" stroke="black" stroke-width="2" fill="none" />
<polyline points="276.5,50.5,285.5,43.5,294.0,35.5,302.5,28.5" stroke="black" stroke-width="2" fill="none" />
<polyline points="306.5,17.0,298.5,17.5,290.5,18.5,282.5,18.5,274.0,19.0,265.5,19.0,257.5,19.5,249.5,20.0,242.0,20.5,234.0,22.0,225.5,22.5,217.5,23.0,209.5,24.0,202.0,24.5,194.0,24.5,186.5,25.0,179.0,25.5,171.0,26.5,163.5,27.0,156.0,27.5,148.0,27.5,140.0,27.0,132.0,27.5,124.5,28.0,116.5,28.5,108.5,29.0,100.5,29.5" stroke="black" stroke-width="2" fill="none" />
<polyline points="94.5,31.0,89.0,39.0,89.5,46.5,91.0,54.5,91.5,62.0,91.5,70.0,92.5,78.5,93.5,87.0,94.5,95.0,95.0,103.0,95.0,111.0,96.0,119.0,97.5,127.0,98.5,135.0,98.5,143.0,100.0,151.0,101.5,158.5,102.5,166.5,103.5,174.5,103.5,182.5,104.5,190.5,105.0,198.0,106.0,206.5,107.0,215.0,107.5,223.0,108.5,231.0,109.5,239.0,110.5,247.5,110.5,255.5,111.5,263.5,116.0,266.5,123.0,271.5,131.0,270.5,137.0,269.0,144.0,268.0,149.0,267.0,157.0,263.0,164.0,262.0,172.0,260.5" stroke="black" stroke-width="2" fill="none" />
<polyline points="173.5,288.0,181.5,291.0,190.0,293.0,198.0,295.0,206.0,302.0,212.5,306.0" stroke="black" stroke-width="2" fill="none" />
<polyline points="201.5,202.5,209.0,202.0,217.5,202.0" stroke="black" stroke-width="2" fill="none" />
<polyline points="221.0,192.5,212.0,193.0" stroke="black" stroke-width="2" fill="none" />
<polyline points="230.0,178.0,237.0,175.0,243.0,177.0,242.0,185.0,234.5,188.0,230.0,198.0,224.5,209.5,230.5,213.5,229.5,219.0,240.0,215.0" stroke="black" stroke-width="2" fill="none" />
<polyline points="252.0,220.5,246.0,219.5,236.5,233.5,241.0,228.0,246.0,223.5,248.5,216.0,248.5,209.5,256.0,203.0,259.5,198.0,268.5,193.5,266.0,189.5,269.0,181.5,276.0,174.0,282.0,171.0,285.0,163.0,276.5,160.5" stroke="black" stroke-width="2" fill="none" />
<polyline points="273.5,166.5,271.5,167.5,263.0,176.5,260.0,184.0,255.5,191.5,245.5,193.0,243.5,201.0,242.5,202.5,242.0,208.5,236.5,215.5,248.5,222.5,249.5,231.0,245.5,235.0,245.5,231.0,253.5,232.5,262.5,244.5" stroke="black" stroke-width="2" fill="none" />
<polyline points="268.5,195.5,261.0,197.5,253.5,195.0" stroke="black" stroke-width="2" fill="none" />
<polyline points="261.0,162.5,256.5,165.0,256.5,165.5,260.0,157.5,253.0,152.5" stroke="black" stroke-width="2" fill="none" />
<polyline points="277.5,148.5,282.5,149.0,278.0,151.0,280.5,157.0,278.5,158.5,278.5,166.5,287.5,168.0,284.5,174.0,278.5,179.0,280.5,184.0,280.0,192.0,276.0,193.0,277.5,194.5,277.5,201.5,283.5,200.5,295.0,206.5,305.5,202.5,316.5,198.0" stroke="black" stroke-width="2" fill="none" />
<polyline points="310.5,202.0,308.5,209.5,316.5,205.5,329.0,202.0,335.5,196.5,342.0,200.5" stroke="black" stroke-width="2" fill="none" />
<polyline points="338.0,192.0,334.0,198.0,325.0,208.0,317.0,210.0,319.0,221.0,321.0,221.0,321.5,229.0,316.0,234.5,313.5,242.5" stroke="black" stroke-width="2" fill="none" />
<polyline points="332.5,182.5,324.0,183.5,316.0,184.0,308.0,185.0,300.0,185.5,292.0,186.0,283.5,187.0,275.5,187.5,267.0,188.0,259.0,188.5,251.0,189.0,242.5,189.5,235.0,190.0,227.0,190.0,219.5,190.5,211.5,190.5,204.0,190.5,196.5,191.0,189.0,191.0,181.0,191.0,172.5,191.5,164.5,192.0,156.5,192.5,148.5,193.0,140.0,193.0,132.5,193.5,124.5,194.5,116.5,195.5,108.0,197.0,100.0,197.5,92.5,198.5" stroke="black" stroke-width="2" fill="none" />
<polyline points="91.5,190.0,100.0,189.5,108.5,189.0,116.5,188.5,125.0,188.0,133.5,187.5,141.5,187.0,149.5,186.5,157.0,185.5,165.0,184.5,173.0,183.5,181.0,183.5,188.5,182.5,196.0,182.5,203.5,183.0,211.0,183.0,218.5,182.5,226.5,183.0,234.0,182.5,241.5,182.0,249.0,182.0,257.5,181.0,265.5,180.5,274.0,179.5,283.0,178.5,291.0,178.0,298.5,177.0,306.5,176.5,314.5,175.5,322.0,175.0" stroke="black" stroke-width="2" fill="none" />
<polyline points="323.0,150.0,314.5,151.0,307.0,152.0,299.0,152.5,290.5,153.0,282.0,153.0,274.5,153.5,267.0,153.5,259.0,154.0,250.5,154.0,243.0,155.0,235.0,155.5,226.5,156.0,219.0,156.5,211.5,157.0,203.5,157.5,195.5,157.5,187.5,158.0,180.0,158.0,172.5,159.0,164.5,160.0,156.5,160.5,148.0,160.5,140.0,161.0,132.0,161.5,124.0,162.0,116.5,163.5,109.0,164.5,101.5,165.5,94.0,166.5,86.0,166.5" stroke="black" stroke-width="2" fill="none" />
<polyline points="84.5,158.5,92.5,158.0,100.0,157.0,108.0,156.0,116.5,155.0,124.5,154.0,132.5,153.5,140.0,153.0,148.0,152.5,155.5,152.0,163.5,151.5,171.5,150.5,180.0,150.5,188.0,150.0,196.0,149.5,204.0,149.5,212.0,149.0,219.5,149.0,227.5,148.5,235.5,148.5,243.5,147.5,251.5,147.0,259.0,147.0,266.5,146.5,274.0,146.5,281.5,146.0,289.5,145.0,297.5,144.0,306.0,143.5,314.5,143.5,323.0,143.0" stroke="black" stroke-width="2" fill="none" />
<polyline points="319.5,143.5,311.5,144.0" stroke="black" stroke-width="2" fill="none" />
<polyline points="306.0,143.0,298.0,143.0,295.5,141.0,287.5,143.0" stroke="black" stroke-width="2" fill="none" />
<polyline points="284.0,154.0,285.0,149.0,286.0,153.5,293.5,155.5,300.5,160.5,307.5,166.5,306.5,174.5,301.5,178.0" stroke="black" stroke-width="2" fill="none" />
<polyline points="297.5,195.5,291.5,192.5,289.5,185.5,285.5,180.5,292.5,176.0,295.5,175.0,297.5,168.0,297.0,157.5,306.0,156.5,308.0,148.5" stroke="black" stroke-width="2" fill="none" />
<polyline points="339.0,154.0,346.0,163.5,335.5,172.0,341.0,165.0" stroke="black" stroke-width="2" fill="none" />
<polyline points="343.5,144.5,351.5,145.5,359.5,145.5,363.5,142.0,370.0,145.0,377.0,128.0" stroke="black" stroke-width="2" fill="none" />
<polyline points="415.5,147.0,424.0,143.5" stroke="black" stroke-width="2" fill="none" />
<polyline points="468.5,89.5,453.5,97.0,440.5,105.0,427.5,116.5,425.0,124.5,427.5,132.5,422.0,142.5,420.0,155.0,419.0,163.0,418.0,170.0,417.5,178.0,415.0,186.0,412.0,194.0,411.0,199.0,409.0,205.0,412.5,207.0,412.5,217.0,408.5,225.0,403.5,231.5,404.0,236.5,410.0,244.5,412.0,252.5" stroke="black" stroke-width="2" fill="none" />
<polyline points="313.5,94.0,306.0,94.5,298.0,95.0,290.5,95.5,282.5,96.0,274.5,96.5,267.0,97.0,259.5,97.5,251.0,98.5,243.5,99.0,236.0,100.0,228.0,100.5,220.0,101.5,212.5,102.0,205.0,102.5,197.0,102.5,189.0,103.0,181.0,104.0,173.5,104.0,165.0,104.5,157.0,105.0,149.0,106.0,141.0,107.0,132.5,108.0,123.5,108.0,115.0,108.5,106.5,108.5,98.5,109.0,91.0,110.0" stroke="black" stroke-width="2" fill="none" />
<polyline points="92.5,101.0,100.0,101.0,108.0,101.0,116.0,100.5,124.0,99.5,132.5,99.5,140.5,99.0,148.5,99.0,157.0,98.5,166.0,98.0,174.5,97.5,182.5,96.5,190.0,96.0,197.5,95.5,205.0,94.5,212.5,94.0,220.0,93.5,228.5,93.0,236.0,92.5,243.5,92.5,251.0,92.0,259.0,91.5,267.0,90.5,275.0,89.5,283.5,89.0,292.0,88.0,299.5,88.0,307.5,87.5,315.5,87.0" stroke="black" stroke-width="2" fill="none" />
<polyline points="315.5,79.5,308.0,80.5,300.0,81.5,292.5,82.0,284.5,82.0,275.5,82.0,267.0,82.5,259.5,83.0,251.5,83.5,243.5,84.0,236.0,85.0,228.0,86.0,219.5,86.0,211.5,87.0,204.0,87.5,196.5,88.0,189.0,88.0,180.5,88.0,172.5,88.5,164.5,89.0,157.0,90.5,149.0,91.5,141.0,92.0,133.0,92.0,125.0,92.0,116.5,91.5,108.5,91.5,100.0,92.0,92.0,92.5" stroke="black" stroke-width="2" fill="none" />
<polyline points="99.5,93.0,107.5,86.5,115.0,79.5,123.5,72.0,131.5,65.0,140.0,57.5,148.0,50.0,155.5,42.5,163.5,34.5,171.0,27.5" stroke="black" stroke-width="2" fill="none" />
<polyline points="179.0,27.0,171.0,35.0,163.0,43.0,155.5,50.5,148.0,58.0,140.0,65.5,132.0,73.0,124.0,80.5,115.5,88.0,108.0,96.0,100.0,103.5" stroke="black" stroke-width="2" fill="none" />
<polyline points="98.5,99.0,106.5,98.0" stroke="black" stroke-width="2" fill="none" />
<polyline points="106.0,105.0,114.0,105.0,122.5,104.5,130.5,104.0,139.0,103.5" stroke="black" stroke-width="2" fill="none" />
<polyline points="136.5,91.5,145.0,94.5,153.0,96.5,161.0,98.0,168.5,100.0,176.0,100.5,184.0,101.5,192.0,100.0" stroke="black" stroke-width="2" fill="none" />
<polyline points="188.0,95.0,196.0,87.5,204.0,80.0,212.5,72.5,220.5,65.0,228.0,57.0,235.5,49.5,243.5,42.0,252.5,34.5,260.5,27.0" stroke="black" stroke-width="2" fill="none" />
<polyline points="254.0,25.5,246.5,33.5,238.0,41.0,229.5,49.0,220.5,56.5,212.5,64.0,204.0,72.5" stroke="black" stroke-width="2" fill="none" />
<polyline points="196.5,82.0,189.0,89.5,180.5,97.0" stroke="black" stroke-width="2" fill="none" />
<polyline points="178.5,105.0,186.5,105.0,194.5,105.0,202.0,102.0" stroke="black" stroke-width="2" fill="none" />
<polyline points="190.5,115.0,177.0,118.0,169.0,120.0,161.0,124.0,153.5,134.0" stroke="black" stroke-width="2" fill="none" />
<polyline points="169.5,137.5,177.5,137.0,186.0,137.0,194.0,136.5,202.0,135.5,210.5,134.5" stroke="black" stroke-width="2" fill="none" />
<polyline points="212.5,130.5,204.5,138.0,196.0,144.5,187.5,152.0,179.0,159.5,170.5,167.0,162.5,175.0,155.0,182.5,147.0,190.5,139.5,198.0,131.5,205.5,123.5,213.5,115.5,220.5,107.5,228.0" stroke="black" stroke-width="2" fill="none" />
<polyline points="89.5,255.0,88.5,246.5,88.0,239.0,88.0,231.0,87.5,223.0,86.5,215.5,85.5,207.5,84.5,199.5,83.0,191.5,82.0,183.5,82.0,176.0,81.5,168.0,80.5,160.5,79.0,152.5,79.0,144.5,78.0,136.5,76.5,128.5,74.5,133.0,77.0,125.0,76.5,117.5,75.5,109.5,76.0,105.5,71.5,102.5,74.0,94.0,69.0,90.0,73.0,86.0,69.0,82.0,75.0,78.0,75.5,70.5,72.5,67.5,70.0,63.5,71.0,60.5,71.5,52.5,71.0,44.5,67.0,41.5,59.0,43.0,50.5,46.0" stroke="black" stroke-width="2" fill="none" />
<polyline points="52.5,43.5,50.5,51.5,51.5,59.5,52.5,67.5,53.0,76.0,53.0,84.0,53.5,92.0,54.5,99.5,55.5,107.5,56.5,115.5,56.5,123.5,57.0,131.5,58.5,140.0,59.5,148.0,59.5,156.5,60.5,164.5,61.5,172.5,63.0,180.5,64.5,188.5,64.5,196.5,66.0,204.5,67.0,212.5,68.0,220.5,68.5,228.5,69.5,236.0,70.5,244.0,76.0,245.0,82.0,253.0,88.0,261.0" stroke="black" stroke-width="2" fill="none" />
<polyline points="70.5,233.5,71.0,230.5,70.0,218.5,68.5,208.0,69.5,200.0" stroke="black" stroke-width="2" fill="none" />
<polyline points="106.5,177.0,114.5,170.0,123.5,163.0,131.5,156.0,139.5,148.5,148.0,141.5,156.0,134.0,164.0,127.0,172.0,119.5,180.0,112.0,188.0,104.5,196.5,97.0,204.5,89.0,213.0,81.5,221.0,73.5,229.0,66.0,237.0,58.0,245.0,50.0,253.0,42.0,260.0,34.0,268.0,26.0" stroke="black" stroke-width="2" fill="none" />
<polyline points="260.0,45.0,270.0,47.0,271.0,55.0,260.0,64.0,258.5,63.5,267.0,59.5,274.5,57.5,271.5,62.5" stroke="black" stroke-width="2" fill="none" />
<polyline points="267.5,65.0,258.5,69.0,250.5,70.5,242.5,72.5" stroke="black" stroke-width="2" fill="none" />
<polyline points="249.0,99.0,241.0,103.0" stroke="black" stroke-width="2" fill="none" />
<polyline points="234.5,125.5,226.5,126.5,218.0,127.0,210.5,128.0,203.0,128.5,195.0,129.0,187.0,129.5,179.0,130.0,171.0,130.0,163.5,130.0,155.5,130.0,148.0,130.5,140.5,130.0,132.5,130.5,125.0,131.5,117.5,132.0,109.5,132.5,101.5,133.0" stroke="black" stroke-width="2" fill="none" />
<polyline points="107.0,137.0,115.0,136.5,122.5,136.0,130.5,136.0,138.5,136.0,146.5,136.0,154.0,135.5" stroke="black" stroke-width="2" fill="none" />
<polyline points="155.5,128.0,147.5,128.0,139.5,128.5,132.0,128.5,124.0,128.5,116.0,129.0,108.5,129.0" stroke="black" stroke-width="2" fill="none" />
<polyline points="108.0,120.5,116.5,120.0,124.5,120.5,132.0,120.0,140.0,120.0,148.0,119.5,156.0,119.5,164.0,119.5" stroke="black" stroke-width="2" fill="none" />
<polyline points="169.0,120.5,157.5,128.5,153.5,136.5,155.0,146.5,158.0,154.5,160.5,162.5,162.5,170.5,164.5,178.5,155.0,188.0,153.0,195.5,155.0,204.5,154.0,212.5" stroke="black" stroke-width="2" fill="none" />
<polyline points="149.0,196.0,144.5,204.0,145.5,212.0,146.5,220.0,147.5,228.0,148.5,236.0,143.5,244.5,144.5,253.0,151.0,261.0,158.0,267.0,165.5,266.0,173.5,265.0,181.5,264.0,189.0,258.0,197.0,259.0,204.5,262.0,213.0,264.0,221.0,265.5,229.0,267.0,237.0,268.0,245.0,269.0,253.0,270.0,261.0,274.5,269.5,275.5,277.5,275.5,285.5,275.5,293.5,275.5,301.5,275.0,309.5,274.0,317.5,273.5,326.0,272.5,334.0,271.5,340.0,272.5,348.0,273.0,356.0,272.0,364.0,269.5,372.0,268.5,377.5,269.0,383.5,268.0,391.5,264.0,399.5,261.5,407.5,258.0,415.0,253.0" stroke="black" stroke-width="2" fill="none" />
<polyline points="316.5,70.5,308.0,71.0,299.5,71.5,291.0,72.0,282.5,73.0,274.5,74.0,266.5,75.0,258.0,76.0,250.0,76.5,242.5,77.0,235.0,77.5,227.5,78.0,220.0,78.5,212.0,79.0,204.5,79.0,196.5,79.0,188.5,79.5,181.0,79.5,173.0,80.0,165.0,80.0,156.5,81.0,148.0,81.5,140.0,82.0,131.5,82.5,123.5,83.0,115.0,83.5,107.0,83.5,99.0,84.0,91.0,84.5" stroke="black" stroke-width="2" fill="none" />
<polyline points="100.0,87.5,107.0,80.0,114.5,73.0,122.5,65.5,131.0,58.0,139.0,50.0,147.0,42.5,155.0,35.0" stroke="black" stroke-width="2" fill="none" />
<polyline points="147.5,34.5,139.5,42.0,131.5,50.0,123.5,58.0,115.5,65.5,107.0,73.5,99.5,81.0" stroke="black" stroke-width="2" fill="none" />
<polyline points="100.5,81.0,108.5,80.5" stroke="black" stroke-width="2" fill="none" />
<polyline points="99.5,73.5,108.0,66.0,116.0,58.5,124.5,51.0,133.0,44.0,141.5,37.0" stroke="black" stroke-width="2" fill="none" />
<polyline points="131.0,35.5,123.5,43.5,115.5,50.0,108.0,57.5,99.5,64.5" stroke="black" stroke-width="2" fill="none" />
<polyline points="97.0,66.5,105.0,66.0" stroke="black" stroke-width="2" fill="none" />
<polyline points="107.0,72.0,99.0,73.0" stroke="black" stroke-width="2" fill="none" />
<polyline points="92.5,63.0,100.0,62.5,108.0,61.5,116.0,61.0,124.5,60.0,133.0,59.0,140.5,58.5,148.0,57.5,156.0,57.0,164.0,56.0,172.0,55.5,180.5,55.0,188.5,55.5,196.0,55.0,204.0,55.0,212.0,54.5,220.0,54.5,228.0,54.5,236.0,54.5,243.5,54.5,251.5,54.0,259.5,53.5,268.0,52.5,276.0,51.5,283.0,50.5,291.0,49.5" stroke="black" stroke-width="2" fill="none" />
<polyline points="286.0,52.5,294.5,55.5,302.5,60.5" stroke="black" stroke-width="2" fill="none" />
<polyline points="307.5,40.0,299.5,40.5,292.0,41.0,284.0,41.5,276.5,42.5,268.5,43.0,260.5,44.0,253.0,44.5,244.5,45.0,236.0,45.5,227.5,46.0,219.0,46.5,210.5,46.5,202.5,47.0,194.5,47.0,186.0,47.0,178.0,47.0,170.0,47.0,162.5,48.0,154.5,49.0,147.0,49.5,139.0,50.0,131.0,50.5,123.5,51.0,116.0,51.5,108.0,51.5,100.0,52.0,92.0,52.5" stroke="black" stroke-width="2" fill="none" />
<polyline points="91.5,58.5,100.0,51.0,108.0,43.5,116.5,35.5" stroke="black" stroke-width="2" fill="none" />
<polyline points="124.5,35.0,116.5,42.5,108.5,50.5,100.0,58.0" stroke="black" stroke-width="2" fill="none" />
<polyline points="90.5,50.5,98.0,43.0,106.5,35.0" stroke="black" stroke-width="2" fill="none" />
<polyline points="98.0,35.5,90.5,43.0" stroke="black" stroke-width="2" fill="none" />
<polyline points="90.0,45.0,98.0,44.5,107.0,44.0,115.0,43.0,123.0,42.0,130.0,41.5,138.5,41.5,146.5,41.5,154.0,41.5,162.0,41.0,170.0,40.0,178.0,40.0,186.5,39.5,194.5,39.0,203.0,38.5,211.5,37.5,220.0,37.0,228.0,36.0,236.0,35.5,244.0,35.0,252.0,34.5,259.5,33.5,267.5,33.5,275.5,33.5,284.0,33.5,292.0,33.0,300.0,32.5,308.0,32.5" stroke="black" stroke-width="2" fill="none" />
<polyline points="308.0,25.0,299.5,25.0,291.5,25.0,283.5,25.5,276.0,26.0,268.0,26.5,260.0,26.5,252.0,26.5,243.5,27.0,235.0,27.5,227.0,28.5,219.0,29.0,211.0,30.0,203.0,30.0,195.0,30.5,187.0,31.0,179.0,31.0,170.5,31.5,163.0,31.5,155.0,32.0,147.0,32.5,139.0,33.5,131.0,34.5,123.0,34.5,115.5,35.0,107.5,35.5,99.5,36.5,91.5,37.0" stroke="black" stroke-width="2" fill="none" />
<polyline points="91.5,36.0,99.5,31.0,107.5,30.5,113.0,30.5,121.0,30.5,129.0,30.5,136.5,29.5,144.5,30.0,152.5,29.0,160.0,28.5,168.0,28.5,176.0,28.5,183.5,27.5,191.0,27.5,199.0,26.5,206.5,26.5,215.0,26.0,223.0,25.0,231.5,25.0,239.0,24.0,247.0,24.0,255.0,24.0,263.5,23.0,271.5,23.0,279.5,21.5,287.5,21.5,296.0,20.5,304.0,25.0" stroke="black" stroke-width="2" fill="none" />
<polyline points="317.0,21.5,317.0,29.5,318.0,37.5,318.0,45.5,318.0,53.0,316.5,61.0,320.0,69.0,320.5,77.0,321.0,85.0,322.5,93.0,322.5,101.0,323.5,109.0,323.5,116.5,324.0,127.5,324.0,139.5,324.5,153.5,325.5,161.0,325.0,169.0,326.0,176.5,325.0,185.0,326.0,193.0,318.0,195.0,314.0,204.0,308.0,211.0,307.5,217.0,299.0,223.0,304.5,228.5,301.5,232.5,304.5,233.0,301.0,237.0,302.0,242.0,310.5,245.0,303.5,253.0,304.5,255.5,310.0,253.0,315.5,248.0,317.5,256.5,322.5,253.5,327.5,248.5,333.0,239.0,341.0,231.0,343.0,243.0,357.0,247.0,365.5,246.0,372.5,235.0,378.0,236.0,381.0,241.0,385.0,242.5,393.0,237.5,405.0,235.0,413.0,248.0,422.0,246.5" stroke="black" stroke-width="2" fill="none" />
<polyline points="488.5,89.0,480.5,86.5,472.5,86.5,464.5,88.0,456.5,93.0,448.5,98.5,440.0,102.5,432.0,106.5,424.5,110.5,416.5,115.5,408.5,122.5,400.5,123.5,392.5,123.0,384.5,122.0,376.5,121.5,368.5,121.0,361.0,121.5,353.0,120.5,345.0,120.0,336.5,120.0,328.5,120.0,318.0,121.5,308.0,119.5,299.5,119.5,291.5,119.0,283.5,119.0,275.0,119.0,267.0,119.5,259.0,119.5,251.0,120.5,243.0,119.5,235.5,121.0,229.5,119.0,221.5,123.0,213.5,126.0" stroke="black" stroke-width="2" fill="none" />
<polyline points="213.5,115.5,213.5,123.5,211.0,131.0,215.5,139.0,216.5,147.0,216.0,155.0,217.0,163.5,218.0,171.5,219.0,180.0,219.0,188.5,220.0,197.0,221.0,205.0,222.0,212.5,223.0,220.5,226.5,228.5,234.0,236.5,240.0,238.0,250.0,247.0,252.5,245.5,259.5,249.0,268.0,250.0,274.5,250.0,283.0,250.0,291.0,246.0,294.0,256.0,302.0,248.0,305.0,245.0,313.0,243.5" stroke="black" stroke-width="2" fill="none" />
<polyline points="209.5,167.0,202.0,167.0,194.5,167.5,186.5,168.5,178.5,168.5,170.5,169.0" stroke="black" stroke-width="2" fill="none" />
<polyline points="179.0,131.0,187.0,130.5,195.0,130.0,203.0,129.5" stroke="black" stroke-width="2" fill="none" />
<polyline points="179.0,108.0,171.0,115.5,164.0,122.5,155.5,129.5,147.5,137.0,139.0,144.5,131.5,152.0,124.0,159.0,116.5,166.5,108.5,174.0" stroke="black" stroke-width="2" fill="none" />
<polyline points="109.5,177.5,117.5,177.0,125.5,177.0,133.0,176.5,141.0,176.5,148.5,176.0,156.5,175.5,164.5,175.0" stroke="black" stroke-width="2" fill="none" />
<polyline points="164.0,165.5,156.0,166.5,148.5,167.0,141.0,167.5,133.0,167.5,125.0,168.0,117.0,169.0,109.5,169.0" stroke="black" stroke-width="2" fill="none" />
<polyline points="108.5,168.0,116.5,161.0,125.0,153.0,133.0,145.5,140.5,138.0,148.0,131.0,156.0,123.5,164.0,116.0,172.0,108.5" stroke="black" stroke-width="2" fill="none" />
<polyline points="172.0,97.5,179.5,89.5,187.0,81.5,194.5,73.5,201.5,65.5,210.0,57.0,218.0,49.0,225.5,41.5,232.5,34.5,240.5,27.5" stroke="black" stroke-width="2" fill="none" />
<polyline points="236.0,27.5,228.5,35.0,220.5,43.0,212.5,51.0,204.5,58.5,196.0,66.0,189.0,72.5,181.5,79.5,173.0,86.5,164.5,93.5" stroke="black" stroke-width="2" fill="none" />
<polyline points="164.0,85.0,156.0,92.5" stroke="black" stroke-width="2" fill="none" />
<polyline points="149.0,92.0,157.5,84.5,165.5,77.0" stroke="black" stroke-width="2" fill="none" />
<polyline points="170.0,72.5,178.5,65.0,187.0,57.5,195.5,50.0,204.0,42.5,212.0,35.5,220.0,28.5" stroke="black" stroke-width="2" fill="none" />
<polyline points="228.5,28.0,220.0,35.0,211.5,42.5,203.5,49.5,195.5,56.5,188.0,64.0,179.5,72.0" stroke="black" stroke-width="2" fill="none" />
<polyline points="172.5,65.5,181.0,57.5,188.5,49.5,196.5,41.5,204.0,34.0,211.5,27.0" stroke="black" stroke-width="2" fill="none" />
<polyline points="205.5,28.0,197.0,35.5,189.0,43.0,181.0,50.5,172.5,57.5,164.5,65.0" stroke="black" stroke-width="2" fill="none" />
<polyline points="157.0,65.0,165.0,57.0,173.5,49.5,181.0,42.0,188.5,34.5,196.0,27.5" stroke="black" stroke-width="2" fill="none" />
<polyline points="189.5,27.0,181.5,35.0,173.0,42.5,165.0,49.5,157.5,56.0,149.0,63.0" stroke="black" stroke-width="2" fill="none" />
<polyline points="138.5,74.5,146.5,72.5,153.0,74.5,161.0,75.5,169.0,76.5,177.0,77.5,185.0,78.0,193.0,80.0" stroke="black" stroke-width="2" fill="none" />
<polyline points="193.5,79.5,195.5,87.5,194.5,96.5" stroke="black" stroke-width="2" fill="none" />
<polyline points="171.5,82.5,163.5,90.5,156.0,98.5,148.0,106.0,139.5,113.0,132.0,120.5,124.0,128.0,116.5,135.0,109.0,142.0" stroke="black" stroke-width="2" fill="none" />
<polyline points="101.5,113.5,109.5,106.0,117.5,99.0,125.5,92.0,133.5,84.5,141.5,77.0" stroke="black" stroke-width="2" fill="none" />
<polyline points="132.5,63.5,128.5,65.5,130.0,71.5,130.0,79.5,130.5,82.5,130.0,91.0,136.0,98.5,147.0,99.5,155.5,100.5,162.5,101.5,167.0,106.5,175.0,102.5,178.5,108.0,186.5,108.0,194.5,108.5" stroke="black" stroke-width="2" fill="none" />
<polyline points="155.0,111.5,146.5,111.5,138.5,112.0,130.5,112.0,122.0,112.0,114.0,112.0,106.0,112.0" stroke="black" stroke-width="2" fill="none" />
<polyline points="107.5,88.5,99.5,89.0" stroke="black" stroke-width="2" fill="none" />
<polyline points="123.0,91.0,137.0,93.0,145.0,97.5,143.0,101.5,151.5,104.5" stroke="black" stroke-width="2" fill="none" />
<polyline points="132.0,58.5,140.0,64.5,147.5,67.5,155.5,70.0,163.0,71.5,171.0,71.5,178.5,73.0,186.5,74.0,194.0,74.5" stroke="black" stroke-width="2" fill="none" />
<polyline points="183.5,38.5,191.0,38.5,199.0,38.0,207.5,37.0,222.0,38.0,229.5,38.0" stroke="black" stroke-width="2" fill="none" />
<polyline points="245.5,39.5,253.0,40.0" stroke="black" stroke-width="2" fill="none" />
<polyline points="272.5,77.5,267.0,85.5,258.0,89.5,268.0,85.5,276.0,78.5" stroke="black" stroke-width="2" fill="none" />
<polyline points="275.5,83.0,266.5,90.0,274.5,84.5" stroke="black" stroke-width="2" fill="none" />
<polyline points="236.5,126.5,237.5,134.5,231.5,147.5,232.5,149.0,239.5,152.5,237.5,162.0,234.5,169.0,231.5,177.5,236.0,182.5,225.0,188.5,223.5,187.5,232.0,187.5,238.0,197.5,245.0,196.0,250.5,206.0,252.0,214.5,262.0,205.5,268.0,211.0,275.5,209.0" stroke="black" stroke-width="2" fill="none" />
<polyline points="155.5,40.0,147.5,40.5,140.0,41.0,132.5,41.5,124.0,41.5" stroke="black" stroke-width="2" fill="none" />
<polyline points="115.0,41.0,106.5,41.0,98.5,41.5" stroke="black" stroke-width="2" fill="none" />
<polyline points="72.5,30.0,73.5,38.0,73.5,46.0,74.0,53.5,74.5,61.0,72.5,68.5,73.5,71.5,73.5,77.5,79.5,80.5,76.5,89.5,78.0,97.5,78.5,105.5,79.5,113.0,80.0,121.5,80.0,129.5,81.0,138.0,81.0,146.0,81.5,155.0,82.5,162.5,83.5,170.5,84.0,179.0,84.5,186.5,85.5,194.5,86.5,203.0,87.5,211.0,88.0,219.0,89.5,227.5,90.5,235.5,91.0,243.5,92.5,251.0,92.5,259.0,93.5,267.0,91.5,275.5,98.0,283.5,109.0,281.0,117.0,280.0,125.5,279.0,134.0,277.5,142.0,276.0,150.0,275.0,157.5,272.0,165.5,271.0,174.0,270.5,182.0,269.5,192.5,270.5,195.5,266.5,203.5,266.5,212.5,265.5" stroke="black" stroke-width="2" fill="none" />
<polyline points="67.0,29.5,59.0,32.5,67.0,29.5" stroke="black" stroke-width="2" fill="none" />
<polyline points="68.0,27.0,49.5,35.0,54.5,31.5,62.5,28.0,70.5,25.5,78.5,26.5,86.5,26.5,94.5,25.5,102.5,24.5,110.0,24.5,118.0,24.5,126.0,24.0,134.5,24.5,142.5,23.5,150.5,23.5,158.5,23.5,166.5,23.0,174.0,23.0,182.0,23.0,190.0,22.5,198.0,22.0,206.0,22.0,213.5,21.5,221.5,21.5,229.0,21.5,237.0,20.5,245.0,20.5,253.0,20.0,261.0,19.0,269.5,19.5,277.5,19.5,285.5,17.0,293.5,17.0,302.0,16.5,310.0,15.0,318.0,18.0" stroke="black" stroke-width="2" fill="none" />
<polyline points="3.0,3.0,11.0,3.0,19.0,3.0,26.5,3.0,34.5,3.5,42.5,3.5,50.5,3.5,58.0,3.5,65.5,3.5,73.5,4.0,81.0,4.0,89.5,3.5,97.5,3.5,105.5,3.0,113.5,2.5,121.5,2.5,130.0,2.5,138.5,2.5,146.5,2.5,155.0,2.0,163.0,2.0,171.0,2.5,178.5,2.5,186.5,2.5,194.5,2.5,202.5,2.0,211.0,2.5,219.0,2.5,226.5,2.5,234.0,2.5,242.0,2.5,250.5,2.5,258.5,2.5,267.0,2.5,275.0,3.0,283.0,3.5,291.0,3.5,299.0,3.0,307.0,3.0,315.5,2.5,323.5,2.5,331.5,2.5,339.0,2.5,346.5,3.0,354.5,3.0,362.5,3.5,370.5,3.5,378.5,4.0,386.5,4.5,394.5,4.5,402.5,4.5,410.5,4.5,418.5,4.0,427.0,3.5,435.0,3.5,443.0,3.5,451.0,3.5,459.0,3.5,466.5,3.5,474.0,3.5,482.0,3.5,490.0,3.5,498.0,4.0,506.0,4.0,513.5,6.0,513.5,13.5,513.5,21.5,513.5,29.5,513.5,37.0,514.0,45.0,514.5,52.5,514.0,60.5,514.0,69.0,513.5,77.0,513.0,84.5,512.5,92.5,512.5,101.0,512.5,109.0,512.0,117.0,512.5,125.5,512.5,133.5,512.5,141.5,512.5,149.5,512.5,157.5,513.0,165.5,513.0,173.5,513.5,181.5,513.0,189.5,513.0,198.0,513.5,206.0,513.5,214.0,513.5,221.5,513.5,229.5,513.5,237.5,513.5,246.0,513.0,254.0,513.0,262.0,513.5,269.5,513.5,277.5,513.0,286.0,513.0,294.0,513.0,302.0,513.5,309.5,513.0,317.5,513.0,325.0,513.0,332.5,512.5,340.5" stroke="black" stroke-width="2" fill="none" />
</svg>