<svg xmlns="http://www.w3.org/2000/svg" version="1.1"><polyline points="316.0,12.5,311.5,20.5,306.5,28.5,302.5,36.5,298.5,44.5,294.5,52.5,291.0,60.5,288.0,68.0,284.5,76.0,279.5,83.5,274.5,92.0,272.5,100.0,268.0,108.0,263.5,116.5,259.5,125.5,255.5,134.0,250.5,142.0,245.0,149.5,241.0,157.5,243.0,165.5,244.0,173.5,244.5,181.5,244.5,189.5,244.5,197.0,244.5,205.0,245.0,213.0,245.0,221.0,245.0,229.0,244.5,237.0,245.0,245.5,246.0,253.5,247.0,261.5,247.0,269.5,245.5,277.5,245.0,286.0,245.0,294.0,244.0,302.0,245.0,309.5,244.5,317.5,245.0,325.5,251.0,325.5,259.0,325.5,266.5,325.5,273.5,324.5,281.5,323.0,289.5,322.5,300.0,322.5,311.0,322.5,318.5,320.5,320.0,324.0,327.0,323.0,335.0,320.0,342.0,321.5,350.0,318.5,351.0,322.0,359.0,322.5,367.5,322.5,375.5,323.0,382.0,325.5,390.5,325.5,398.5,326.0,406.5,325.0" stroke="black" stroke-width="2" fill="none" />
<polyline points="401.0,325.0,393.0,333.0,385.0,341.0" stroke="black" stroke-width="2" fill="none" />
<polyline points="397.5,335.0,405.0,327.0,413.0,319.5,420.5,312.5,428.0,306.0,435.5,298.5,443.0,291.0,451.0,283.5" stroke="black" stroke-width="2" fill="none" />
<polyline points="443.0,261.5,451.5,260.5,459.5,260.5,468.0,260.0,476.0,259.5,483.5,259.0,491.5,258.0,499.0,257.5,507.5,256.5,515.5,255.0" stroke="black" stroke-width="2" fill="none" />
<polyline points="516.0,252.0,508.5,259.5,500.0,266.5,492.5,274.0,485.0,281.5,477.0,288.5,468.5,296.5,460.5,304.0,452.5,311.0,444.5,318.5,436.0,326.0,428.5,334.0" stroke="black" stroke-width="2" fill="none" />
<polyline points="436.0,335.0,444.5,327.5,453.0,319.5,461.5,311.5,469.5,304.0,477.5,296.0,485.0,288.5,492.5,280.5,500.0,273.5,508.5,266.5,516.5,259.5" stroke="black" stroke-width="2" fill="none" />
<polyline points="515.0,265.5,507.0,273.0,499.5,281.0,491.5,289.0,483.0,296.5,475.0,304.5,467.5,312.0,460.0,319.5,452.5,327.5,444.5,335.5" stroke="black" stroke-width="2" fill="none" />
<polyline points="450.5,334.5,458.5,327.0,466.5,319.5,474.5,311.5,482.5,304.0,491.0,296.0,499.0,288.0,507.0,280.5,515.0,273.0" stroke="black" stroke-width="2" fill="none" />
<polyline points="514.5,282.5,506.0,290.0,499.0,297.5,491.0,305.0,483.0,313.0,475.0,321.0,466.5,328.5,458.0,336.0" stroke="black" stroke-width="2" fill="none" />
<polyline points="466.5,335.5,474.5,328.0,482.5,320.5,490.5,313.0,498.5,305.5,507.0,298.0,515.5,290.5" stroke="black" stroke-width="2" fill="none" />
<polyline points="514.5,302.0,506.5,309.5,499.0,316.5,491.0,323.5,483.0,330.5,475.5,337.0" stroke="black" stroke-width="2" fill="none" />
<polyline points="490.5,339.0,499.5,331.5,507.5,324.5,515.5,317.0" stroke="black" stroke-width="2" fill="none" />
<polyline points="516.5,324.0,509.0,331.5,501.0,339.5" stroke="black" stroke-width="2" fill="none" />
<polyline points="509.5,340.5,518.0,334.0" stroke="black" stroke-width="2" fill="none" />
<polyline points="515.5,309.5,508.0,317.0,500.0,324.5,491.5,331.5,483.0,338.5" stroke="black" stroke-width="2" fill="none" />
<polyline points="469.0,321.5,477.5,321.0,485.5,320.0,493.5,319.0,502.0,318.0,510.0,317.5,518.0,317.0" stroke="black" stroke-width="2" fill="none" />
<polyline points="516.5,289.5,508.5,289.5,500.0,290.5" stroke="black" stroke-width="2" fill="none" />
<polyline points="494.0,295.5,502.5,295.5,510.0,295.0,517.5,295.0" stroke="black" stroke-width="2" fill="none" />
<polyline points="514.0,303.0,506.0,303.0,497.5,303.5,488.5,304.5,480.5,305.5" stroke="black" stroke-width="2" fill="none" />
<polyline points="473.0,315.5,481.0,314.5,490.0,313.5,498.0,312.5,506.5,311.5,515.0,310.5" stroke="black" stroke-width="2" fill="none" />
<polyline points="516.0,325.5,508.0,326.0,500.5,326.5,493.0,327.0,485.0,327.0,477.5,327.5,469.0,328.0,460.5,328.5,452.0,329.5" stroke="black" stroke-width="2" fill="none" />
<polyline points="437.5,339.0,445.5,338.5,453.0,338.0,460.5,338.0,468.0,338.0,475.0,337.5,483.0,336.5,490.5,335.5,498.0,335.0,505.5,334.5,513.0,334.5" stroke="black" stroke-width="2" fill="none" />
<polyline points="475.0,256.5,482.5,249.0,490.5,241.5,498.5,234.0,506.5,226.5,515.0,218.5" stroke="black" stroke-width="2" fill="none" />
<polyline points="516.5,210.5,508.5,218.0,500.0,225.5,492.5,233.0,484.5,241.0" stroke="black" stroke-width="2" fill="none" />
<polyline points="493.5,226.0,501.0,218.0,508.0,210.5,516.0,203.0" stroke="black" stroke-width="2" fill="none" />
<polyline points="517.0,195.0,509.5,202.5,502.0,210.0" stroke="black" stroke-width="2" fill="none" />
<polyline points="514.0,227.0,506.5,235.0,499.0,242.0,491.0,249.5,483.0,257.0,475.5,264.5,468.0,271.5,460.5,279.0,453.0,286.5,445.0,294.0,437.0,302.0,429.0,309.5,420.5,317.5,412.0,326.0,404.0,334.0" stroke="black" stroke-width="2" fill="none" />
<polyline points="412.5,332.5,420.5,324.5,428.0,317.0,436.5,309.5,444.0,302.0,452.5,294.5,460.5,287.5,468.0,280.5,475.5,273.0,483.0,266.0,490.5,258.0,498.0,250.0,506.5,242.0,514.0,234.5" stroke="black" stroke-width="2" fill="none" />
<polyline points="517.0,243.0,508.5,251.0,499.5,258.5,491.5,266.5,484.0,274.5,476.0,282.0,468.5,289.0,460.5,296.0,453.0,303.5,445.0,310.5,437.5,317.5,429.0,325.0,421.0,333.5" stroke="black" stroke-width="2" fill="none" />
<polyline points="412.0,316.0,420.5,308.0,428.5,299.5" stroke="black" stroke-width="2" fill="none" />
<polyline points="420.0,300.5,412.5,308.0" stroke="black" stroke-width="2" fill="none" />
<polyline points="413.5,311.0,421.5,310.5,429.5,310.0,437.5,309.0,445.5,308.0,453.5,307.5,461.5,307.0,469.5,306.0,477.5,305.0,486.0,304.0,493.5,303.0,502.0,303.0,509.5,302.5,517.0,302.0" stroke="black" stroke-width="2" fill="none" />
<polyline points="515.0,224.5,507.0,225.0,499.0,225.5,490.5,226.0,482.5,227.0,474.0,228.0,466.0,229.0,458.0,229.0" stroke="black" stroke-width="2" fill="none" />
<polyline points="453.5,237.0,461.5,237.0,469.0,236.5,477.0,235.5,485.5,234.0,493.0,233.0,501.0,232.5,509.0,232.0,516.5,231.5" stroke="black" stroke-width="2" fill="none" />
<polyline points="500.5,202.5,509.0,194.5,517.0,187.0" stroke="black" stroke-width="2" fill="none" />
<polyline points="515.5,180.5,507.5,187.5,499.5,195.0" stroke="black" stroke-width="2" fill="none" />
<polyline points="498.0,188.0,506.0,180.5,514.0,172.5" stroke="black" stroke-width="2" fill="none" />
<polyline points="514.5,166.0,506.5,173.0,498.0,180.0" stroke="black" stroke-width="2" fill="none" />
<polyline points="491.5,179.0,499.5,171.5,507.0,164.0,514.5,156.0" stroke="black" stroke-width="2" fill="none" />
<polyline points="515.0,149.0,507.5,156.5,500.0,163.5,491.5,170.5" stroke="black" stroke-width="2" fill="none" />
<polyline points="490.0,162.0,497.5,155.0,505.5,148.0,513.5,140.5" stroke="black" stroke-width="2" fill="none" />
<polyline points="514.0,137.5,514.0,145.5,514.0,153.5,513.5,162.0,513.5,170.0,513.5,178.0,513.5,185.5,513.5,193.5,513.5,201.5,513.5,209.5,513.5,217.5,513.5,225.5,513.0,233.5,513.0,241.5,513.0,249.5" stroke="black" stroke-width="2" fill="none" />
<polyline points="516.5,193.5,509.0,194.0,501.5,194.5,493.0,194.5,485.0,195.0,476.5,196.0,468.0,196.5" stroke="black" stroke-width="2" fill="none" />
<polyline points="467.5,188.5,476.0,188.0,484.0,188.0,492.5,188.0,501.0,187.5,509.0,187.0,516.5,187.0" stroke="black" stroke-width="2" fill="none" />
<polyline points="483.0,162.0,490.5,155.0,499.0,147.5,507.5,140.0,516.0,132.5" stroke="black" stroke-width="2" fill="none" />
<polyline points="517.0,126.0,509.0,133.0,500.5,140.0,491.5,147.0,482.5,154.0" stroke="black" stroke-width="2" fill="none" />
<polyline points="476.0,157.5,484.5,157.0,492.5,157.0,500.5,157.0,508.5,156.5,516.0,156.0" stroke="black" stroke-width="2" fill="none" />
<polyline points="483.5,146.5,491.0,139.5,498.5,132.0,506.5,124.0,514.5,116.5" stroke="black" stroke-width="2" fill="none" />
<polyline points="515.0,109.0,507.0,116.5,498.5,124.0,490.5,131.5,482.5,139.0,474.5,146.5" stroke="black" stroke-width="2" fill="none" />
<polyline points="469.5,148.0,478.0,148.0,485.5,147.5,493.0,147.0,501.0,146.5,509.0,146.0,516.5,145.5" stroke="black" stroke-width="2" fill="none" />
<polyline points="516.5,104.5,508.5,105.0" stroke="black" stroke-width="2" fill="none" />
<polyline points="516.0,100.0,508.0,108.0,500.5,115.5,492.5,123.0,484.0,130.5,476.0,137.5" stroke="black" stroke-width="2" fill="none" />
<polyline points="468.0,133.0,476.5,132.5,485.0,131.5,493.5,131.0,501.5,131.0,509.5,131.0,517.0,130.5" stroke="black" stroke-width="2" fill="none" />
<polyline points="516.5,96.0,508.5,97.0,500.0,97.5" stroke="black" stroke-width="2" fill="none" />
<polyline points="491.5,88.0,499.5,87.5,507.5,87.5,515.5,88.0" stroke="black" stroke-width="2" fill="none" />
<polyline points="518.5,91.0,510.5,99.0,502.0,106.0,493.5,113.0,486.0,120.5,478.0,127.5" stroke="black" stroke-width="2" fill="none" />
<polyline points="477.5,120.5,485.0,113.0,492.0,105.5,499.5,98.5,507.5,90.5,515.5,83.0" stroke="black" stroke-width="2" fill="none" />
<polyline points="515.0,75.5,506.5,83.0,498.5,90.5,490.5,98.5,482.5,106.0,474.5,114.0,467.0,121.5" stroke="black" stroke-width="2" fill="none" />
<polyline points="469.5,125.5,477.5,125.0,485.5,124.5,493.5,124.0,501.5,124.0,510.0,123.5,518.5,123.0" stroke="black" stroke-width="2" fill="none" />
<polyline points="467.5,113.5,475.0,105.5,483.5,97.0,491.5,89.0,499.5,81.5,507.0,73.5,515.0,65.5" stroke="black" stroke-width="2" fill="none" />
<polyline points="515.0,58.0,507.0,65.5,499.0,74.0,490.5,81.5,482.5,89.5,474.5,97.5,466.5,105.0,458.5,113.5" stroke="black" stroke-width="2" fill="none" />
<polyline points="459.5,117.0,468.0,116.0,476.5,115.5,484.5,115.5,493.0,115.5,500.5,115.5,509.0,115.0,517.0,114.0" stroke="black" stroke-width="2" fill="none" />
<polyline points="514.0,79.0,505.5,80.0,497.0,81.0,489.0,82.0,481.0,82.5" stroke="black" stroke-width="2" fill="none" />
<polyline points="475.5,72.5,484.0,72.0,492.0,72.0,500.5,71.0,509.0,70.5,517.5,70.0" stroke="black" stroke-width="2" fill="none" />
<polyline points="515.5,52.0,507.5,59.5,500.0,66.5,492.0,74.0,483.5,82.0,475.5,90.0,467.5,97.5,460.0,105.5" stroke="black" stroke-width="2" fill="none" />
<polyline points="460.5,97.5,469.0,89.5,477.0,81.5,485.5,73.5,493.5,65.5,501.5,57.5,509.5,50.5,517.5,43.5" stroke="black" stroke-width="2" fill="none" />
<polyline points="515.5,35.5,507.5,42.5,499.0,50.0,491.0,57.5,483.5,65.5,475.5,73.5,467.0,81.0,459.0,88.0" stroke="black" stroke-width="2" fill="none" />
<polyline points="461.5,94.0,469.0,93.5,477.0,93.0,485.0,92.5,492.5,91.5,500.5,91.0,509.0,91.0,517.0,90.0" stroke="black" stroke-width="2" fill="none" />
<polyline points="516.5,62.5,508.0,63.5,500.5,64.0,492.0,65.0,484.5,65.5,476.5,66.0,468.5,66.5" stroke="black" stroke-width="2" fill="none" />
<polyline points="465.5,58.5,473.5,58.0,482.0,56.5,490.5,55.5,499.5,54.5,508.0,54.0,516.5,53.5" stroke="black" stroke-width="2" fill="none" />
<polyline points="514.0,26.5,506.0,34.0,497.5,41.0,489.5,48.0,481.0,55.5,473.0,62.5,465.5,70.5,458.0,78.0" stroke="black" stroke-width="2" fill="none" />
<polyline points="451.5,78.0,459.5,71.0,467.0,64.0,475.0,57.0,483.5,49.0,491.5,41.5,499.5,34.5,507.5,27.0,515.0,19.5" stroke="black" stroke-width="2" fill="none" />
<polyline points="516.0,11.5,508.0,19.0,500.0,27.0,491.5,34.5,482.5,42.0,474.5,49.5,466.5,57.0,458.0,63.5,450.5,70.5,442.5,77.5" stroke="black" stroke-width="2" fill="none" />
<polyline points="436.0,77.0,444.0,77.0,452.0,76.5,460.0,76.5,468.0,76.0,476.5,75.5,484.0,75.0,491.5,74.5,499.5,74.0,508.0,73.5,516.0,72.5" stroke="black" stroke-width="2" fill="none" />
<polyline points="516.5,46.0,508.5,46.5,500.5,47.0,492.5,47.0,484.5,47.0,476.5,47.0,469.0,47.5,460.5,48.0" stroke="black" stroke-width="2" fill="none" />
<polyline points="451.5,40.5,459.5,40.5,468.0,40.5,476.0,40.0,483.5,39.0,492.0,38.5,500.0,38.0,508.5,37.0,517.0,36.0" stroke="black" stroke-width="2" fill="none" />
<polyline points="515.0,4.5,507.0,11.5,499.5,18.5,492.0,26.0,484.0,33.5,476.5,41.0,468.0,48.5,459.5,56.0,451.5,63.5,444.0,71.0" stroke="black" stroke-width="2" fill="none" />
<polyline points="436.5,71.0,445.0,63.5,453.5,56.0,461.5,48.5,469.5,41.5,477.0,33.5,483.5,25.5,491.0,18.5,498.5,11.5,506.0,4.0" stroke="black" stroke-width="2" fill="none" />
<polyline points="498.5,3.0,490.5,10.5,482.5,18.5,474.5,26.0,466.5,33.5,459.0,40.0,451.0,47.5,443.0,55.5,436.0,63.0,428.5,70.5" stroke="black" stroke-width="2" fill="none" />
<polyline points="426.5,62.5,434.5,55.5,443.0,48.5,451.5,41.0,460.0,34.5,468.0,28.0,476.0,21.0,484.0,13.5,491.5,6.0" stroke="black" stroke-width="2" fill="none" />
<polyline points="484.5,6.0,476.5,13.5,469.0,20.0,460.5,27.0,452.0,34.0,443.5,41.0,435.0,48.5,427.0,56.0,419.0,63.5" stroke="black" stroke-width="2" fill="none" />
<polyline points="419.5,68.5,427.5,68.0,435.5,68.0,443.5,68.0,451.5,67.5,459.0,67.5,467.5,67.0,476.0,66.0,484.5,65.5,492.5,65.0,500.5,65.0,508.0,64.0,515.5,63.5" stroke="black" stroke-width="2" fill="none" />
<polyline points="516.5,104.5,508.0,105.0,499.5,106.0,491.0,106.5,483.5,107.0,475.5,107.5,468.0,108.5,459.0,109.5,451.0,110.0" stroke="black" stroke-width="2" fill="none" />
<polyline points="451.0,113.0,459.0,119.5,466.5,125.5" stroke="black" stroke-width="2" fill="none" />
<polyline points="460.5,140.5,468.5,140.0,476.0,138.5,483.5,138.0,491.0,137.5,498.5,137.0,506.5,137.0,515.0,136.5" stroke="black" stroke-width="2" fill="none" />
<polyline points="515.5,178.0,508.0,178.0,499.5,178.5,491.5,179.5,483.5,180.5,476.0,181.0,468.5,182.0" stroke="black" stroke-width="2" fill="none" />
<polyline points="460.5,172.5,468.5,172.0,476.0,171.5,484.0,171.0,492.0,170.5,500.5,169.5,508.0,169.5,516.0,169.5" stroke="black" stroke-width="2" fill="none" />
<polyline points="515.5,162.0,507.5,162.5,500.0,163.0,492.0,163.5,484.0,164.5,476.0,165.0,468.0,165.5" stroke="black" stroke-width="2" fill="none" />
<polyline points="466.5,153.0,458.0,144.0" stroke="black" stroke-width="2" fill="none" />
<polyline points="456.5,142.5,464.5,130.5" stroke="black" stroke-width="2" fill="none" />
<polyline points="451.0,101.0,459.0,101.0,467.0,101.0,475.5,100.5,484.0,100.0,492.0,99.5,500.0,99.0,508.0,98.5,515.5,98.0" stroke="black" stroke-width="2" fill="none" />
<polyline points="516.5,82.0,508.5,83.0,501.0,83.0,493.0,83.5,484.5,84.0,476.0,85.0,468.0,85.5,460.0,86.0,452.0,86.5" stroke="black" stroke-width="2" fill="none" />
<polyline points="447.0,87.0,457.0,95.0,452.5,103.0,448.5,111.0,453.5,119.0,464.5,126.5,462.0,134.5,456.0,142.5,463.5,150.5,467.5,159.0,470.5,162.0,465.5,168.0,458.5,176.0,467.5,191.5" stroke="black" stroke-width="2" fill="none" />
<polyline points="460.0,206.5,468.0,205.5,476.0,204.5,483.5,204.0,491.0,203.5,498.5,203.0,506.0,202.5,514.0,202.0" stroke="black" stroke-width="2" fill="none" />
<polyline points="513.5,216.5,505.0,217.5,497.0,218.5,489.0,218.5,481.5,218.5,474.0,218.5,466.0,218.5,458.5,219.0" stroke="black" stroke-width="2" fill="none" />
<polyline points="460.0,211.5,467.5,211.5,475.5,211.0,483.0,211.0,490.0,211.0,498.0,210.5,505.5,210.5,513.0,209.5" stroke="black" stroke-width="2" fill="none" />
<polyline points="516.0,248.5,508.0,249.5,500.0,250.0,492.0,250.5,484.0,251.0,476.0,251.0,468.0,251.0,460.5,252.0,452.5,252.5" stroke="black" stroke-width="2" fill="none" />
<polyline points="443.5,246.5,451.5,246.0,459.0,245.5,466.5,244.5,474.5,243.0,482.5,242.0,490.0,241.0,497.5,241.0,505.0,241.0,512.5,240.5" stroke="black" stroke-width="2" fill="none" />
<polyline points="517.5,280.0,509.0,280.5,501.0,281.0,492.5,281.0,484.0,281.5,475.0,282.0,466.5,283.0,458.5,283.5,451.0,284.0,443.0,284.0,435.0,284.5,427.0,285.0" stroke="black" stroke-width="2" fill="none" />
<polyline points="426.0,278.0,434.0,277.0,441.5,276.5,450.0,276.5,458.5,276.0,467.0,276.0,475.5,274.5,484.0,274.0,492.0,273.0,500.0,272.0,508.0,271.5,516.5,271.0" stroke="black" stroke-width="2" fill="none" />
<polyline points="516.0,263.0,507.5,263.5,500.0,264.0,491.5,264.0,483.5,264.5,475.5,265.0,467.0,266.0,459.0,266.5,451.0,267.5,443.0,268.5,435.0,269.5,427.0,270.0" stroke="black" stroke-width="2" fill="none" />
<polyline points="425.5,272.0,433.5,269.0,441.5,265.5" stroke="black" stroke-width="2" fill="none" />
<polyline points="441.0,243.0,449.0,240.0,457.5,237.0" stroke="black" stroke-width="2" fill="none" />
<polyline points="449.5,213.5,460.0,206.5,468.0,200.5" stroke="black" stroke-width="2" fill="none" />
<polyline points="465.0,170.0,456.5,175.5,450.0,158.5,442.0,150.5,434.0,143.5" stroke="black" stroke-width="2" fill="none" />
<polyline points="434.5,144.0,439.5,151.5,445.5,159.5,450.5,167.5,456.5,175.5,460.5,183.5,466.5,191.5,468.5,199.5,459.5,204.0,452.5,212.0,453.5,220.0,456.0,228.0,458.0,236.0,441.0,243.0,442.5,247.0,443.5,252.0,446.0,260.5,441.0,267.5,427.0,270.0,428.0,279.0,427.5,286.5,422.5,295.0,410.0,299.0,409.5,307.0,409.5,315.5,408.5,323.5" stroke="black" stroke-width="2" fill="none" />
<polyline points="396.5,317.5,404.0,317.5,412.0,317.0,419.5,316.5,426.5,315.5,434.0,315.0,442.0,315.0,450.0,315.0,457.5,314.5,465.5,314.0,473.5,313.5,481.5,313.0,490.0,311.5,498.5,310.5,507.5,309.5,516.0,309.0" stroke="black" stroke-width="2" fill="none" />
<polyline points="517.5,294.0,509.0,294.5,500.5,295.5,492.0,296.0,484.5,296.5,476.5,297.0,468.5,298.0,460.0,299.0,451.5,299.5,444.0,300.0,436.0,300.5,428.5,301.0,421.0,302.0,413.5,303.0" stroke="black" stroke-width="2" fill="none" />
<polyline points="411.0,293.5,419.5,293.5,427.5,292.0,436.0,291.5,443.5,290.5,451.5,290.0,459.5,290.0,468.5,290.0,477.0,290.0,485.5,289.5,493.5,288.5,501.5,288.0,509.5,287.5,517.5,287.0" stroke="black" stroke-width="2" fill="none" />
<polyline points="517.0,301.5,509.5,302.5,502.0,303.0,494.5,304.0,486.5,304.5,478.0,305.0,469.5,305.5,460.5,306.0,452.0,306.5,443.5,307.0,435.5,307.5,427.0,307.0,418.5,307.0,410.5,307.0,403.0,307.5,394.5,308.0,387.0,309.5,379.0,310.5,371.5,311.5,364.5,312.0,356.0,313.5,347.5,314.5,339.5,315.5,332.0,315.5,324.0,316.0,316.0,316.5,307.5,316.5,299.0,316.5,290.5,316.5,281.5,316.5,274.0,316.0,266.0,316.0,257.5,316.5,248.5,317.5,240.5,318.5,232.5,318.5,225.0,319.0,217.5,319.0,210.0,319.0,202.5,320.0,194.5,321.0,186.5,322.5,179.0,323.5,171.5,324.0,163.5,324.5,155.5,325.0,148.0,325.5,139.5,326.0,131.0,326.5,123.0,327.5,115.5,327.5,108.0,328.0,100.5,328.0,93.5,328.5,85.0,329.0,77.0,329.5,68.0,329.5,59.5,330.0,51.0,330.0,43.0,330.5,34.5,331.5,26.0,332.0,18.5,333.0,11.0,334.0,3.0,334.5" stroke="black" stroke-width="2" fill="none" />
<polyline points="4.0,335.5,11.5,328.0,19.5,321.0,27.5,313.5,35.5,306.0,43.0,298.5,51.5,291.0,59.5,283.0,67.5,275.0,76.0,267.5,83.5,260.0" stroke="black" stroke-width="2" fill="none" />
<polyline points="83.5,267.5,76.0,275.0,67.5,283.0,59.5,291.0,51.5,298.5,43.5,305.5,35.0,313.0,27.0,320.5,19.0,328.0,10.5,336.0" stroke="black" stroke-width="2" fill="none" />
<polyline points="17.0,334.5,25.0,326.0,33.0,318.0,41.0,310.5,49.5,303.0,57.0,295.0,65.5,288.5,73.5,281.5,82.0,274.0,91.0,266.5" stroke="black" stroke-width="2" fill="none" />
<polyline points="89.0,274.0,80.5,282.0,73.5,290.0,66.0,298.0,59.0,306.0,51.5,313.5,43.5,321.0,35.5,328.5,27.5,336.0" stroke="black" stroke-width="2" fill="none" />
<polyline points="52.0,336.5,60.0,329.0,68.0,321.0,76.5,314.0,84.5,307.0,92.5,300.0,100.0,293.0,108.0,285.0" stroke="black" stroke-width="2" fill="none" />
<polyline points="109.0,276.5,101.0,284.0,92.5,291.0,84.0,298.5,75.5,306.0,67.0,313.5,59.5,321.5,52.0,329.0,44.5,336.0" stroke="black" stroke-width="2" fill="none" />
<polyline points="84.5,336.0,91.5,328.5,99.0,321.0,106.5,313.5,114.0,305.5,121.5,298.0,129.5,290.0,137.0,282.5" stroke="black" stroke-width="2" fill="none" />
<polyline points="131.0,284.5,123.0,292.0,115.0,300.0,107.0,307.5,98.5,314.5,90.5,321.5,82.0,329.0,74.0,336.5" stroke="black" stroke-width="2" fill="none" />
<polyline points="131.5,337.5,139.5,330.0,147.5,322.0,155.5,314.0,163.5,306.0,172.0,298.0,180.0,290.5" stroke="black" stroke-width="2" fill="none" />
<polyline points="172.0,291.5,164.0,299.0,155.5,307.0,147.5,314.5,139.5,322.0,132.0,329.0,124.0,336.0" stroke="black" stroke-width="2" fill="none" />
<polyline points="164.5,334.5,172.5,327.5,180.5,320.0,188.0,312.5,196.0,304.5,203.5,297.0,211.0,290.0,219.0,282.0" stroke="black" stroke-width="2" fill="none" />
<polyline points="214.5,284.5,206.5,292.0,198.0,299.0,189.5,306.5,181.0,313.5,172.5,320.5,165.0,328.0,157.0,335.5" stroke="black" stroke-width="2" fill="none" />
<polyline points="146.5,337.0,154.5,329.5,162.5,322.0,170.5,314.5,178.5,306.5,186.0,299.0,194.0,291.0,202.0,283.0" stroke="black" stroke-width="2" fill="none" />
<polyline points="197.0,284.0,189.0,291.5,182.0,299.5,174.0,306.5,165.5,313.5,157.0,321.0,149.0,328.5,141.5,335.5" stroke="black" stroke-width="2" fill="none" />
<polyline points="115.5,336.0,123.5,329.0,131.5,322.0,140.5,315.0,148.5,308.0,156.5,301.0,164.5,294.0" stroke="black" stroke-width="2" fill="none" />
<polyline points="165.0,284.5,156.5,292.0,148.0,299.5,139.5,306.5,131.5,314.0,123.5,321.5,115.5,328.5,107.5,335.5" stroke="black" stroke-width="2" fill="none" />
<polyline points="98.0,335.5,106.0,328.0,113.5,320.5,121.0,313.0,129.0,305.5,137.0,298.0,145.0,291.0,153.5,283.5" stroke="black" stroke-width="2" fill="none" />
<polyline points="147.0,284.0,139.5,292.0,131.5,300.0,123.5,307.5,116.0,314.5,108.0,322.0,100.0,329.0,92.0,336.5" stroke="black" stroke-width="2" fill="none" />
<polyline points="67.5,337.0,75.5,329.0,83.0,321.0,91.5,313.5,100.0,306.5,108.5,299.0,116.5,291.0,124.5,283.5" stroke="black" stroke-width="2" fill="none" />
<polyline points="117.0,282.5,109.0,289.5,101.0,297.5,92.5,305.5,84.0,313.0,76.0,320.5,68.0,328.5,60.0,336.0" stroke="black" stroke-width="2" fill="none" />
<polyline points="36.0,336.5,43.5,328.5,51.5,320.5,59.5,313.0,67.0,305.0,74.5,297.5,82.5,290.0,91.0,282.0,99.0,274.5" stroke="black" stroke-width="2" fill="none" />
<polyline points="76.0,261.0,68.5,268.0,60.5,275.0,52.5,282.0,44.5,289.5,36.5,297.0,28.5,304.0,20.0,311.5,11.5,319.5,3.0,327.0" stroke="black" stroke-width="2" fill="none" />
<polyline points="2.5,325.0,10.5,324.5,18.5,324.5,26.5,323.5,34.0,323.0,41.5,323.0,49.5,322.5,57.5,322.0,65.0,322.0,73.0,322.0,81.0,321.5,89.0,321.0,97.5,320.5,106.0,320.0,114.5,319.5,123.5,319.0,132.0,318.0,140.5,318.0,149.0,318.0,157.5,317.5,165.5,317.0,173.5,316.5,181.0,316.0,188.5,316.0,196.0,316.0,203.0,315.5,211.0,314.5,218.5,313.5,226.0,313.0,233.5,312.5,241.0,312.5,249.0,311.5,258.0,310.5,266.0,309.5,274.5,308.5,283.0,307.5,291.5,306.5,299.5,305.5,308.0,305.0,316.5,304.0,325.0,303.0,333.0,303.0,341.0,303.0,349.5,303.0,357.0,303.0,364.5,303.0,372.0,302.5,380.5,301.5,388.0,301.0,396.0,301.0,404.5,300.0,412.5,299.5,420.0,298.5,428.0,298.5,436.0,298.0,444.0,298.0,451.5,297.0,459.5,296.0,467.0,295.5,474.5,295.0,482.0,295.0,490.0,295.0,498.0,295.0,506.5,294.5,514.5,294.5" stroke="black" stroke-width="2" fill="none" />
<polyline points="440.5,221.5,432.5,212.5" stroke="black" stroke-width="2" fill="none" />
<polyline points="433.5,209.0,434.5,217.0,437.0,225.0" stroke="black" stroke-width="2" fill="none" />
<polyline points="422.5,245.5,422.5,248.0,424.5,256.0" stroke="black" stroke-width="2" fill="none" />
<polyline points="412.0,255.0,419.5,253.0,407.5,259.0,408.5,267.5,408.0,275.0,408.5,283.0" stroke="black" stroke-width="2" fill="none" />
<polyline points="396.5,297.0,388.5,297.0,380.5,297.5,372.5,298.5,364.5,299.0,356.5,299.5,349.0,300.0,341.0,300.0" stroke="black" stroke-width="2" fill="none" />
<polyline points="336.5,291.5,340.0,289.0" stroke="black" stroke-width="2" fill="none" />
<polyline points="366.0,288.5,374.5,284.5" stroke="black" stroke-width="2" fill="none" />
<polyline points="369.5,321.0,362.0,328.5,354.5,336.5" stroke="black" stroke-width="2" fill="none" />
<polyline points="363.0,339.0,371.0,331.5,378.5,324.0" stroke="black" stroke-width="2" fill="none" />
<polyline points="385.5,325.5,378.0,333.5,370.0,341.0" stroke="black" stroke-width="2" fill="none" />
<polyline points="377.5,339.0,385.5,331.5,393.5,323.5" stroke="black" stroke-width="2" fill="none" />
<polyline points="364.0,322.5,356.0,329.5,348.5,336.5" stroke="black" stroke-width="2" fill="none" />
<polyline points="337.5,336.5,346.0,329.5,354.0,322.0" stroke="black" stroke-width="2" fill="none" />
<polyline points="347.0,325.5,338.5,333.0,330.5,340.5" stroke="black" stroke-width="2" fill="none" />
<polyline points="322.0,336.5,330.0,329.0,338.0,321.0" stroke="black" stroke-width="2" fill="none" />
<polyline points="339.0,318.0,347.0,317.5,355.0,317.0,363.5,316.5,372.0,316.0" stroke="black" stroke-width="2" fill="none" />
<polyline points="330.5,324.0,323.0,332.0,314.5,340.0" stroke="black" stroke-width="2" fill="none" />
<polyline points="305.5,337.5,313.0,329.5,321.0,322.5" stroke="black" stroke-width="2" fill="none" />
<polyline points="314.5,322.0,306.5,330.0,299.0,338.0" stroke="black" stroke-width="2" fill="none" />
<polyline points="291.0,339.0,299.5,332.5,307.0,325.5" stroke="black" stroke-width="2" fill="none" />
<polyline points="300.0,324.0,292.0,331.5,284.0,338.5" stroke="black" stroke-width="2" fill="none" />
<polyline points="274.5,339.0,282.5,331.5,290.5,324.0" stroke="black" stroke-width="2" fill="none" />
<polyline points="284.5,325.5,276.0,333.0,268.0,341.0" stroke="black" stroke-width="2" fill="none" />
<polyline points="259.5,339.0,267.5,331.0,275.5,323.5" stroke="black" stroke-width="2" fill="none" />
<polyline points="275.0,322.0,282.5,322.0,291.0,322.0,299.0,322.0,308.0,320.0" stroke="black" stroke-width="2" fill="none" />
<polyline points="307.5,314.0,299.0,315.0,290.5,316.0,282.0,317.0,274.5,317.5,266.5,318.5" stroke="black" stroke-width="2" fill="none" />
<polyline points="267.5,322.0,259.5,329.5,251.5,337.5" stroke="black" stroke-width="2" fill="none" />
<polyline points="245.5,338.5,253.5,331.0,261.5,323.0" stroke="black" stroke-width="2" fill="none" />
<polyline points="253.0,325.0,244.5,332.0,236.5,339.0" stroke="black" stroke-width="2" fill="none" />
<polyline points="228.0,339.5,236.0,332.5,244.0,325.5" stroke="black" stroke-width="2" fill="none" />
<polyline points="244.5,321.5,236.5,322.0" stroke="black" stroke-width="2" fill="none" />
<polyline points="244.5,315.0,236.0,322.5,228.0,330.5,219.5,338.0" stroke="black" stroke-width="2" fill="none" />
<polyline points="211.5,338.0,219.5,330.5,227.5,322.5,236.0,314.5,244.0,307.0" stroke="black" stroke-width="2" fill="none" />
<polyline points="245.5,300.5,237.0,307.5,229.0,315.0,220.5,322.5,212.5,330.0,204.0,337.0" stroke="black" stroke-width="2" fill="none" />
<polyline points="195.0,337.0,202.5,329.5,211.0,322.0,218.5,314.5,226.5,307.5,234.5,300.0,243.0,292.0" stroke="black" stroke-width="2" fill="none" />
<polyline points="242.0,284.5,234.0,292.5,225.5,300.0,218.0,307.0,210.0,314.0,201.5,321.5,193.5,328.0,186.0,335.5" stroke="black" stroke-width="2" fill="none" />
<polyline points="186.0,330.0,194.5,329.5,202.5,329.0,210.5,329.0,218.5,328.0,226.5,327.5,234.0,326.5,242.5,325.5,250.5,325.5,259.0,325.5" stroke="black" stroke-width="2" fill="none" />
<polyline points="273.0,319.5,281.0,318.5,288.5,317.5,296.0,315.5,304.0,314.5,317.5,312.5" stroke="black" stroke-width="2" fill="none" />
<polyline points="316.0,328.0,308.0,328.0,300.0,329.0,292.0,330.0,284.0,330.0,276.0,330.0,268.0,330.5,260.0,331.0,252.0,332.0,244.0,332.5,236.0,333.5,228.0,334.0,220.0,334.5,212.0,335.0,204.0,335.5,195.5,336.5,187.0,337.5,179.0,338.0,171.0,338.5" stroke="black" stroke-width="2" fill="none" />
<polyline points="178.5,334.5,186.5,327.5,194.5,320.0,202.0,313.0,210.0,306.0,218.5,299.0,227.0,291.0,235.5,283.0,244.0,275.5" stroke="black" stroke-width="2" fill="none" />
<polyline points="219.0,289.5,210.5,297.0,202.5,304.5,195.0,312.5,188.0,320.0,181.0,327.5,172.5,335.0" stroke="black" stroke-width="2" fill="none" />
<polyline points="114.0,330.5,106.0,331.5,98.5,331.5,90.5,332.0,83.0,332.5,75.0,332.5,67.0,333.5,58.5,334.5,50.5,335.5,42.0,336.0,34.5,337.0,27.0,337.5,19.0,338.0,11.0,338.5,3.0,339.0" stroke="black" stroke-width="2" fill="none" />
<polyline points="3.5,330.5,11.5,330.0,20.0,329.5,28.0,329.0,35.5,328.0,43.5,327.5,51.5,327.0,59.0,326.5,66.5,326.0,74.0,326.0,81.5,325.5,90.0,325.0,98.5,324.5" stroke="black" stroke-width="2" fill="none" />
<polyline points="67.0,260.5,59.5,267.5,51.5,274.0,44.0,281.0,36.0,288.5,28.5,295.5,20.0,303.0,11.5,310.0,3.5,317.5" stroke="black" stroke-width="2" fill="none" />
<polyline points="1.5,317.5,9.5,317.0,18.0,317.0,26.0,316.5,34.0,315.5,42.5,314.5,50.5,314.0,58.0,313.5,66.5,313.0,75.5,313.0,84.0,312.5,91.5,312.0,99.0,311.0,107.0,310.5,114.5,310.0,123.0,310.0,131.0,309.5,139.5,309.0,147.5,308.5,156.0,308.0,164.0,307.0,172.0,306.5,180.0,306.0,188.0,305.5,196.5,305.5,205.0,305.0,213.0,304.5,221.0,303.5,228.5,302.5,236.0,302.0,243.5,301.5,252.0,301.0" stroke="black" stroke-width="2" fill="none" />
<polyline points="268.0,301.0,275.5,300.5,283.5,300.0,291.5,299.5" stroke="black" stroke-width="2" fill="none" />
<polyline points="314.5,295.5,322.5,294.5" stroke="black" stroke-width="2" fill="none" />
<polyline points="320.5,246.5,312.5,246.5,305.0,246.5,296.5,246.5,285.0,246.0,272.0,246.0,259.0,246.0,251.0,246.0" stroke="black" stroke-width="2" fill="none" />
<polyline points="252.0,246.5,244.0,247.5,236.0,248.0,228.0,247.5,220.0,247.5,212.0,248.0,203.5,248.0,195.0,248.5,186.5,248.5,178.5,248.5,170.0,249.0,162.0,250.0,154.0,250.5,145.5,251.0,138.0,251.5,130.0,252.0,122.5,252.5,114.5,253.0,106.5,253.5,99.0,254.0,91.5,254.5,83.0,255.5,75.5,256.0,68.0,257.0,60.0,257.5,52.0,258.5,44.5,259.0,37.0,259.5,29.0,259.5,21.0,260.0,13.0,261.0,5.5,261.0" stroke="black" stroke-width="2" fill="none" />
<polyline points="4.0,264.0,12.0,256.0,20.0,249.0,28.0,241.5,36.5,234.5,44.5,227.0" stroke="black" stroke-width="2" fill="none" />
<polyline points="46.5,220.5,38.0,227.5,29.5,235.5,20.5,242.5,11.5,250.0,3.0,257.0" stroke="black" stroke-width="2" fill="none" />
<polyline points="6.5,254.5,14.5,253.5,22.0,253.0,29.5,252.5,37.0,251.5,44.5,251.0,52.0,250.5,60.5,250.0,68.0,249.5,75.5,249.5,83.0,249.0,91.0,248.5,99.0,247.5,107.0,246.5,115.5,246.0,124.0,245.0,131.5,245.0,139.5,244.5,147.5,244.0,156.0,243.0,164.0,242.5,172.0,242.0,179.5,242.0,187.5,241.0,195.0,240.0,203.0,239.5,211.0,239.0,219.0,239.0,227.5,238.5,236.0,238.5,244.5,237.5,252.5,237.0" stroke="black" stroke-width="2" fill="none" />
<polyline points="251.0,229.0,243.0,229.0,234.5,229.5,226.0,230.0,217.5,230.5" stroke="black" stroke-width="2" fill="none" />
<polyline points="221.5,242.0,229.5,234.5,238.0,227.0" stroke="black" stroke-width="2" fill="none" />
<polyline points="235.5,234.0,227.5,241.5" stroke="black" stroke-width="2" fill="none" />
<polyline points="228.5,226.0,236.5,218.5" stroke="black" stroke-width="2" fill="none" />
<polyline points="235.0,211.0,227.0,218.0" stroke="black" stroke-width="2" fill="none" />
<polyline points="227.0,213.0,234.5,213.0,242.0,213.0" stroke="black" stroke-width="2" fill="none" />
<polyline points="236.0,203.5,227.5,211.0" stroke="black" stroke-width="2" fill="none" />
<polyline points="227.0,206.0,234.5,205.0,243.0,204.0" stroke="black" stroke-width="2" fill="none" />
<polyline points="233.5,194.5,226.0,202.0" stroke="black" stroke-width="2" fill="none" />
<polyline points="226.5,198.0,234.5,197.5,242.5,197.0" stroke="black" stroke-width="2" fill="none" />
<polyline points="234.5,187.0,227.0,194.5" stroke="black" stroke-width="2" fill="none" />
<polyline points="226.0,186.5,234.5,178.5" stroke="black" stroke-width="2" fill="none" />
<polyline points="227.0,178.5,235.0,170.5" stroke="black" stroke-width="2" fill="none" />
<polyline points="229.0,172.0,237.0,164.5" stroke="black" stroke-width="2" fill="none" />
<polyline points="229.0,162.5,237.5,154.5" stroke="black" stroke-width="2" fill="none" />
<polyline points="236.5,145.5,228.5,153.0" stroke="black" stroke-width="2" fill="none" />
<polyline points="227.0,149.5,234.5,149.0,242.5,148.5,250.0,148.5" stroke="black" stroke-width="2" fill="none" />
<polyline points="251.5,138.0,243.5,139.0,235.5,139.5,227.0,140.5,218.5,140.5,210.5,141.0" stroke="black" stroke-width="2" fill="none" />
<polyline points="213.0,134.5,224.0,132.5,221.0,140.5,220.5,145.5,223.5,153.0,223.5,159.0" stroke="black" stroke-width="2" fill="none" />
<polyline points="219.5,154.5,212.0,162.0" stroke="black" stroke-width="2" fill="none" />
<polyline points="206.0,169.5,198.0,177.5,200.0,176.5" stroke="black" stroke-width="2" fill="none" />
<polyline points="209.5,180.5,216.0,181.0" stroke="black" stroke-width="2" fill="none" />
<polyline points="212.0,181.5,219.5,181.0,227.0,180.0,235.0,179.5,242.5,179.0,251.0,179.0" stroke="black" stroke-width="2" fill="none" />
<polyline points="250.5,188.5,242.0,189.0,233.5,189.5,225.0,190.0,217.0,190.5" stroke="black" stroke-width="2" fill="none" />
<polyline points="206.5,187.0,209.5,188.5,211.5,196.5,208.5,204.0,211.5,211.5,201.5,213.5,203.5,222.5" stroke="black" stroke-width="2" fill="none" />
<polyline points="210.5,228.5,202.5,228.5,194.0,229.0,185.5,229.0,177.5,229.5" stroke="black" stroke-width="2" fill="none" />
<polyline points="173.5,239.0,165.5,242.0,157.5,242.0" stroke="black" stroke-width="2" fill="none" />
<polyline points="154.5,237.5,146.5,238.5" stroke="black" stroke-width="2" fill="none" />
<polyline points="156.5,229.0,165.0,232.0" stroke="black" stroke-width="2" fill="none" />
<polyline points="172.0,239.5,180.0,239.0,188.5,238.5,196.5,238.0,205.0,237.0,213.0,237.0,221.5,236.5,230.0,236.0,238.0,235.5,246.0,234.0,253.5,234.0" stroke="black" stroke-width="2" fill="none" />
<polyline points="252.5,229.0,244.5,229.5,236.0,230.0,227.5,230.5,219.5,231.0,211.5,232.0,204.0,233.0,196.0,234.0,187.5,234.5,179.0,235.0,171.0,235.5,163.0,236.0,155.0,236.0,147.5,236.5,140.0,237.5,132.0,238.5,124.5,239.0,116.5,239.0,107.5,239.0,99.0,239.5,91.5,240.0,83.5,240.5,75.5,241.0,68.0,242.0,60.0,243.0,51.5,243.0,43.5,244.0,36.0,244.5,28.5,245.0,21.0,245.0,12.5,245.0,4.5,245.5" stroke="black" stroke-width="2" fill="none" />
<polyline points="2.5,249.5,11.0,242.0,19.0,234.0,27.5,226.0,36.0,218.0" stroke="black" stroke-width="2" fill="none" />
<polyline points="35.0,210.5,27.0,218.0,19.0,225.5,11.0,233.0,3.5,240.5" stroke="black" stroke-width="2" fill="none" />
<polyline points="5.0,237.0,13.0,236.5,20.5,236.5,28.5,236.0,36.5,236.0,44.0,236.0,52.0,235.5,59.5,235.0,67.0,234.5,74.5,234.0" stroke="black" stroke-width="2" fill="none" />
<polyline points="75.5,232.0,83.5,232.0,84.5,234.0,92.5,231.5,90.0,237.5" stroke="black" stroke-width="2" fill="none" />
<polyline points="86.0,225.5,94.0,221.5,93.5,229.5,101.5,230.5" stroke="black" stroke-width="2" fill="none" />
<polyline points="106.0,221.5,114.0,221.5,122.0,221.0" stroke="black" stroke-width="2" fill="none" />
<polyline points="123.0,213.0,131.0,205.0" stroke="black" stroke-width="2" fill="none" />
<polyline points="125.0,196.0,133.0,188.5" stroke="black" stroke-width="2" fill="none" />
<polyline points="134.5,192.5,142.5,195.0,150.5,192.0,148.5,191.5" stroke="black" stroke-width="2" fill="none" />
<polyline points="150.0,189.0,142.5,196.5" stroke="black" stroke-width="2" fill="none" />
<polyline points="146.5,194.0,154.5,187.0" stroke="black" stroke-width="2" fill="none" />
<polyline points="139.5,197.5,131.0,198.0,123.0,198.5,115.0,199.0" stroke="black" stroke-width="2" fill="none" />
<polyline points="113.0,192.0,121.5,191.0,129.5,190.5,138.0,189.5,147.0,188.5,155.0,188.0,162.5,187.0" stroke="black" stroke-width="2" fill="none" />
<polyline points="172.5,182.5,180.5,182.0,189.0,182.0" stroke="black" stroke-width="2" fill="none" />
<polyline points="181.0,172.5,172.0,173.0" stroke="black" stroke-width="2" fill="none" />
<polyline points="169.0,175.5,171.0,172.5,172.5,168.5" stroke="black" stroke-width="2" fill="none" />
<polyline points="185.5,181.0,177.5,187.0" stroke="black" stroke-width="2" fill="none" />
<polyline points="170.0,198.0,170.0,195.0,169.0,201.0,173.0,204.0" stroke="black" stroke-width="2" fill="none" />
<polyline points="147.0,196.0,131.5,187.0,132.5,178.5,135.5,170.5,137.0,162.5,139.0,154.5,135.0,151.5" stroke="black" stroke-width="2" fill="none" />
<polyline points="132.0,155.5,124.0,163.0" stroke="black" stroke-width="2" fill="none" />
<polyline points="123.5,169.0,132.0,161.5" stroke="black" stroke-width="2" fill="none" />
<polyline points="131.5,171.0,123.5,178.0" stroke="black" stroke-width="2" fill="none" />
<polyline points="115.5,174.5,123.0,174.0,130.5,173.0,138.0,172.5" stroke="black" stroke-width="2" fill="none" />
<polyline points="133.5,175.0,141.5,170.0,144.0,178.0,155.0,165.0,162.0,168.0,178.5,157.0,180.0,168.0" stroke="black" stroke-width="2" fill="none" />
<polyline points="171.5,147.0,179.5,139.5" stroke="black" stroke-width="2" fill="none" />
<polyline points="172.5,139.0,164.5,147.0" stroke="black" stroke-width="2" fill="none" />
<polyline points="163.5,140.0,155.5,147.5,148.0,154.5" stroke="black" stroke-width="2" fill="none" />
<polyline points="146.5,147.5,154.5,140.5" stroke="black" stroke-width="2" fill="none" />
<polyline points="163.5,138.0,171.5,130.0" stroke="black" stroke-width="2" fill="none" />
<polyline points="166.0,134.5,161.5,142.5,160.5,136.5,170.0,127.5,183.0,125.5" stroke="black" stroke-width="2" fill="none" />
<polyline points="197.0,127.0,188.5,127.5,180.5,128.5,172.0,129.0,163.5,129.5,155.0,130.0,146.5,131.0,138.5,132.0,130.5,133.0,122.0,134.0,114.0,134.5" stroke="black" stroke-width="2" fill="none" />
<polyline points="117.0,133.0,125.0,126.0" stroke="black" stroke-width="2" fill="none" />
<polyline points="124.0,127.5,132.0,131.0,135.0,132.0,135.0,140.0,133.0,148.0,123.5,150.5,120.5,158.5,127.5,168.5,128.0,176.5,119.5,183.5,122.5,189.5,123.0,196.0,122.0,209.0,117.0,216.0,102.0,228.5,100.0,227.5,106.5,223.5,108.5,219.0,116.0,215.0,122.5,216.5,126.5,219.0,133.0,214.5,138.0,212.0,144.5,202.5,156.0,205.5" stroke="black" stroke-width="2" fill="none" />
<polyline points="139.0,204.0,130.5,204.5,123.0,205.0,115.5,205.5,108.0,206.5" stroke="black" stroke-width="2" fill="none" />
<polyline points="99.5,203.5,92.0,204.5" stroke="black" stroke-width="2" fill="none" />
<polyline points="99.0,216.0,91.5,216.5,84.0,217.5,75.5,218.0,67.5,219.0,59.5,219.5,51.5,220.0,43.5,220.0,35.5,220.5,28.0,220.5,20.0,220.5,12.0,221.0,4.5,221.0" stroke="black" stroke-width="2" fill="none" />
<polyline points="3.0,224.0,10.5,217.0,18.0,209.0,25.5,201.5,33.5,194.0" stroke="black" stroke-width="2" fill="none" />
<polyline points="33.5,187.0,25.5,194.5,17.0,202.0,9.0,209.5,1.5,217.0" stroke="black" stroke-width="2" fill="none" />
<polyline points="4.0,212.5,12.5,212.0,20.5,212.5,28.0,212.0,36.0,212.0,44.0,211.5,52.0,211.5,60.0,211.5,68.0,211.5,75.5,211.5,83.5,211.0,91.5,210.5,100.0,209.5,108.0,208.5,115.0,207.5,123.0,206.5,131.0,206.0" stroke="black" stroke-width="2" fill="none" />
<polyline points="144.5,219.0,152.5,227.0,150.5,234.5" stroke="black" stroke-width="2" fill="none" />
<polyline points="155.5,226.0,156.5,232.5,164.5,234.5" stroke="black" stroke-width="2" fill="none" />
<polyline points="186.0,239.0,194.0,233.0,201.5,232.5" stroke="black" stroke-width="2" fill="none" />
<polyline points="197.0,235.5,193.5,237.5,189.5,239.0,189.0,242.5,192.0,238.5,202.0,240.0,206.0,239.0,216.5,239.0" stroke="black" stroke-width="2" fill="none" />
<polyline points="228.0,223.0,236.5,222.0,244.5,221.5" stroke="black" stroke-width="2" fill="none" />
<polyline points="247.0,244.0,255.5,243.5,268.5,243.5,276.5,243.0,284.5,242.5,292.5,242.5,301.0,242.5,309.5,242.5,317.5,242.5,326.0,242.0,328.0,246.0,336.0,241.5,343.5,240.5,344.5,243.5,352.5,243.5,360.5,241.0,369.0,241.5,377.0,241.5,384.5,241.5,397.0,241.5,405.0,241.5" stroke="black" stroke-width="2" fill="none" />
<polyline points="405.5,245.5,397.5,245.5" stroke="black" stroke-width="2" fill="none" />
<polyline points="372.0,244.5,364.0,244.5,356.0,244.5" stroke="black" stroke-width="2" fill="none" />
<polyline points="389.0,301.5,389.5,294.0,390.0,285.5,391.0,277.0,391.5,269.0,391.5,260.5,391.5,252.0,392.5,240.5,393.5,232.5,393.5,224.5,393.5,216.5,392.5,208.5,393.5,200.5,393.0,192.5,393.0,184.5,392.0,177.5,383.5,177.0,375.5,177.0,368.0,177.5,360.0,177.5,352.5,177.5,344.5,177.5,336.5,177.5,328.0,178.0,320.0,178.0,312.0,178.0,304.5,178.5,296.0,178.5,288.0,179.0,279.5,178.0,272.0,178.5,264.0,179.5" stroke="black" stroke-width="2" fill="none" />
<polyline points="269.0,175.5,265.0,183.5,265.0,191.5,264.5,199.0,264.0,207.0,264.0,214.5,263.5,223.0,263.5,231.5,263.5,240.0,263.0,252.0,262.5,260.0,263.0,268.0,263.0,276.5,263.5,284.5,263.5,292.0,263.5,300.0,263.5,308.0,275.5,304.5,283.5,305.0,292.0,305.0,300.5,305.0,308.0,305.0,316.0,305.0,324.0,303.5,331.5,305.0,339.5,305.0,348.0,304.0,356.0,304.0,364.0,304.0,372.5,304.0,380.5,303.0,388.5,302.0,395.5,300.0,409.5,298.0,417.5,293.0,425.0,292.0" stroke="black" stroke-width="2" fill="none" />
<polyline points="444.5,183.0,438.5,169.5,430.5,163.5,422.5,156.5" stroke="black" stroke-width="2" fill="none" />
<polyline points="424.0,156.0,427.5,164.0,431.5,172.0,438.5,181.0,445.5,189.0,443.5,197.0" stroke="black" stroke-width="2" fill="none" />
<polyline points="437.0,129.0,429.5,122.0" stroke="black" stroke-width="2" fill="none" />
<polyline points="430.0,119.5,438.0,126.5" stroke="black" stroke-width="2" fill="none" />
<polyline points="441.5,133.5,434.5,127.0,429.5,119.0" stroke="black" stroke-width="2" fill="none" />
<polyline points="436.5,102.0,428.5,99.0" stroke="black" stroke-width="2" fill="none" />
<polyline points="428.5,97.5,438.5,105.5,442.5,108.5,456.0,98.5" stroke="black" stroke-width="2" fill="none" />
<polyline points="414.0,109.5,406.0,103.5" stroke="black" stroke-width="2" fill="none" />
<polyline points="405.5,101.5,397.5,93.0" stroke="black" stroke-width="2" fill="none" />
<polyline points="398.5,94.5,404.0,102.5,410.0,110.5" stroke="black" stroke-width="2" fill="none" />
<polyline points="403.0,116.0,404.0,119.5" stroke="black" stroke-width="2" fill="none" />
<polyline points="387.0,114.0,379.0,113.0,371.0,116.5,363.0,120.5,355.0,125.0,365.0,120.0,380.5,112.0,383.5,105.0" stroke="black" stroke-width="2" fill="none" />
<polyline points="379.0,93.5,371.0,85.5" stroke="black" stroke-width="2" fill="none" />
<polyline points="373.5,82.5,376.5,95.5" stroke="black" stroke-width="2" fill="none" />
<polyline points="373.5,83.0,369.5,92.0,361.0,98.0,353.0,104.0,345.0,109.0,337.5,114.0,329.5,119.0,325.5,128.5,324.5,120.0,339.5,112.0,352.0,104.5,362.5,96.5,373.0,89.0,370.5,81.0" stroke="black" stroke-width="2" fill="none" />
<polyline points="376.5,66.0,361.5,68.0,356.5,76.0,348.0,83.5,339.5,91.0,329.5,98.5,318.5,106.5,311.5,107.5,316.5,110.5,321.5,126.5,330.0,125.5" stroke="black" stroke-width="2" fill="none" />
<polyline points="354.0,140.0,344.0,144.0,352.0,141.5,360.5,139.5,368.5,137.0,376.5,134.5,384.0,131.5,391.5,129.0" stroke="black" stroke-width="2" fill="none" />
<polyline points="390.5,136.5,373.5,138.5" stroke="black" stroke-width="2" fill="none" />
<polyline points="397.5,155.0,389.5,156.5,381.5,158.5,373.5,159.0,365.0,160.0,356.5,161.0,348.5,162.5" stroke="black" stroke-width="2" fill="none" />
<polyline points="316.5,92.0,314.5,94.0,322.5,86.0" stroke="black" stroke-width="2" fill="none" />
<polyline points="323.5,52.5,315.5,53.0" stroke="black" stroke-width="2" fill="none" />
<polyline points="309.0,28.5,301.0,36.0,293.0,44.0,285.0,51.0,277.0,58.0,269.5,65.5,261.5,72.5" stroke="black" stroke-width="2" fill="none" />
<polyline points="251.0,71.0,259.0,64.0,267.0,57.0,274.5,49.5,282.0,42.0,290.5,34.0,298.5,26.5,306.5,18.5,314.0,11.0,321.5,3.5" stroke="black" stroke-width="2" fill="none" />
<polyline points="315.5,3.5,307.5,11.0,299.0,19.0,291.0,26.5,283.0,34.0,275.0,41.0,267.0,48.5,259.0,56.0,250.5,63.0,242.5,70.5" stroke="black" stroke-width="2" fill="none" />
<polyline points="237.5,70.5,246.0,62.5,253.5,55.0,261.5,48.0,269.5,41.0,277.5,33.0,285.5,25.0,293.5,17.0,302.0,10.0,310.0,3.0" stroke="black" stroke-width="2" fill="none" />
<polyline points="305.5,4.0,313.5,4.0,322.0,4.0" stroke="black" stroke-width="2" fill="none" />
<polyline points="322.5,10.5,330.5,3.0" stroke="black" stroke-width="2" fill="none" />
<polyline points="339.0,3.0,331.0,10.5,323.5,18.0" stroke="black" stroke-width="2" fill="none" />
<polyline points="319.0,16.5,332.0,24.5,335.0,32.5,331.0,40.5,320.0,46.0,314.5,54.0,311.0,62.0,307.5,70.0,305.0,78.0,299.5,86.0,295.5,96.0,301.5,104.0,293.5,111.5,287.0,119.5,282.0,121.5,283.5,122.5,291.5,113.0,299.0,107.0,308.0,104.5,315.0,109.0,323.0,104.0,331.0,99.0,339.0,92.0,347.0,84.0,354.5,75.0,362.0,70.0,370.5,68.5" stroke="black" stroke-width="2" fill="none" />
<polyline points="389.0,76.5,397.0,84.5,405.0,92.5,411.0,106.5" stroke="black" stroke-width="2" fill="none" />
<polyline points="403.0,79.5,401.0,88.0,393.0,81.0,389.5,77.0" stroke="black" stroke-width="2" fill="none" />
<polyline points="404.5,61.0,412.5,60.5,420.5,60.5,428.0,60.0,436.0,60.0,444.0,60.0,451.5,59.5,459.5,59.0,467.5,58.5,476.0,58.0,484.5,57.5,492.5,57.0,500.5,56.5,508.0,56.0,516.5,55.0" stroke="black" stroke-width="2" fill="none" />
<polyline points="476.0,4.5,468.5,12.0,461.0,19.0,453.5,26.5,445.0,33.5,437.0,41.0,428.0,48.5,419.0,56.0,411.0,63.0" stroke="black" stroke-width="2" fill="none" />
<polyline points="411.0,56.0,419.5,48.5,427.0,41.5,435.0,34.0,442.5,26.5,450.5,19.0,459.0,11.0,467.0,3.5" stroke="black" stroke-width="2" fill="none" />
<polyline points="458.5,5.5,451.0,12.5,443.0,19.5,435.0,27.0,427.5,34.5,420.0,42.0,412.0,49.0,404.5,56.0" stroke="black" stroke-width="2" fill="none" />
<polyline points="397.5,55.5,405.5,47.0,413.5,39.5,421.5,32.5,429.0,25.5,437.0,18.5,445.0,11.5,453.0,3.5" stroke="black" stroke-width="2" fill="none" />
<polyline points="445.5,2.5,437.5,10.0,429.0,18.0,420.5,26.0,412.0,34.0,404.0,42.0,395.5,49.5" stroke="black" stroke-width="2" fill="none" />
<polyline points="387.0,50.0,395.5,42.5,404.0,34.5,412.5,26.5,421.0,18.5,429.0,10.5,437.5,2.5" stroke="black" stroke-width="2" fill="none" />
<polyline points="427.5,5.5,420.0,12.5,411.5,20.0,403.0,28.0,395.5,35.5,387.5,43.0" stroke="black" stroke-width="2" fill="none" />
<polyline points="379.5,40.5,387.0,33.5,395.0,26.5,402.5,19.5,410.5,12.0,418.5,5.0" stroke="black" stroke-width="2" fill="none" />
<polyline points="410.5,5.0,402.5,12.5,394.5,20.5,386.5,28.0,378.5,35.5,370.5,43.0" stroke="black" stroke-width="2" fill="none" />
<polyline points="370.0,45.5,378.0,44.5,386.0,44.0,394.5,43.5,402.5,42.5,410.5,42.0,419.0,42.0,427.5,41.5,436.0,41.0,444.0,39.5,452.0,38.5,459.5,38.5,467.5,38.0,475.0,38.0,482.0,38.0,490.0,37.5,497.5,37.5,505.0,36.5,513.0,35.5" stroke="black" stroke-width="2" fill="none" />
<polyline points="513.0,29.5,505.5,30.0,498.5,30.0,491.0,30.0,483.5,30.5,476.0,32.0,468.0,33.5,460.0,34.0,452.0,34.5,444.0,35.0" stroke="black" stroke-width="2" fill="none" />
<polyline points="436.0,25.0,444.0,24.5,452.0,24.0,460.0,23.5,468.5,23.5,477.0,23.0,485.0,22.5,493.0,21.5,500.5,20.5,508.0,20.0,515.5,19.5" stroke="black" stroke-width="2" fill="none" />
<polyline points="516.0,11.5,508.0,12.0,500.0,12.5,492.0,12.5,484.0,13.0,476.0,13.0,468.0,14.0,460.0,15.0,452.0,15.0,444.0,15.0,436.0,15.5,428.0,16.0,420.0,17.0" stroke="black" stroke-width="2" fill="none" />
<polyline points="402.0,4.5,394.0,12.0,385.5,19.5,377.5,26.5,369.5,33.5" stroke="black" stroke-width="2" fill="none" />
<polyline points="363.5,35.5,371.0,27.5,378.5,19.0,386.5,11.0,394.5,3.0" stroke="black" stroke-width="2" fill="none" />
<polyline points="385.5,5.5,377.5,13.0,370.0,20.0,362.0,26.5,354.5,33.0" stroke="black" stroke-width="2" fill="none" />
<polyline points="354.0,36.0,362.0,35.0,370.5,34.5,378.5,34.5,387.0,34.5,395.5,34.0,404.0,34.0,412.0,33.5,420.0,33.5,428.0,34.0,436.0,33.5,444.0,32.5,452.0,31.5,459.5,31.0,467.0,30.5,474.5,30.0,482.0,29.5,490.0,29.0,498.0,28.0,505.5,27.5,513.5,27.0" stroke="black" stroke-width="2" fill="none" />
<polyline points="515.0,44.0,507.0,44.5,498.5,45.0,490.5,46.0,482.0,47.0,474.0,48.0,466.0,48.0,458.5,48.5,450.5,49.0,442.5,49.5,434.5,49.5,426.5,50.0,418.5,51.0,410.5,52.0,402.5,52.5,394.0,53.0,386.5,53.0" stroke="black" stroke-width="2" fill="none" />
<polyline points="358.0,43.0,366.0,50.0,374.0,56.5,382.5,62.5,386.5,64.5,393.5,70.5,401.5,77.5,409.5,84.0" stroke="black" stroke-width="2" fill="none" />
<polyline points="422.0,75.5,410.0,68.0,391.0,64.0,389.0,58.5,376.5,50.5,362.5,42.5,349.5,37.5" stroke="black" stroke-width="2" fill="none" />
<polyline points="344.0,31.5,354.0,36.0,356.5,39.0,363.5,47.0,366.5,51.5,376.5,57.0,387.5,65.0,396.5,72.5,401.5,80.0,405.5,83.5,412.5,84.0" stroke="black" stroke-width="2" fill="none" />
<polyline points="457.0,91.0,449.5,86.0,441.5,82.5,433.5,78.5,425.5,73.5,417.5,69.0,409.5,65.0,401.5,60.5,393.0,55.5,385.0,51.5,376.5,47.0,368.5,42.0,360.5,37.0,352.0,33.0,344.0,28.0,336.0,24.0,328.0,19.0,320.0,14.0,312.5,17.0,304.5,31.0,296.5,47.0,289.0,65.0,281.0,80.5,273.0,90.5" stroke="black" stroke-width="2" fill="none" />
<polyline points="278.5,91.5,286.5,94.5,295.0,90.0,303.0,78.0,310.5,61.5,319.0,47.5,326.5,42.5,333.5,33.5" stroke="black" stroke-width="2" fill="none" />
<polyline points="339.0,24.5,347.0,17.0,355.0,10.0,363.0,2.5" stroke="black" stroke-width="2" fill="none" />
<polyline points="355.0,3.5,347.0,11.0,338.5,18.5" stroke="black" stroke-width="2" fill="none" />
<polyline points="331.5,21.5,339.5,21.0,348.0,20.0,356.5,19.0,365.0,18.5,373.5,18.0,381.5,17.0,389.0,17.0,397.0,17.0,405.0,17.0,413.5,17.0,421.0,16.5,429.0,16.0,437.0,15.5,444.5,14.5,452.5,14.0,461.0,14.0,469.0,13.0,477.5,12.5,486.0,12.0,493.5,11.0,501.5,10.5,509.0,10.0,517.0,10.5" stroke="black" stroke-width="2" fill="none" />
<polyline points="513.0,0.5,505.0,1.5,497.0,1.5,489.5,1.5,482.0,1.5,474.0,1.5,466.5,2.0,458.5,2.5,450.0,4.0,442.5,4.5,435.0,5.0,427.0,6.0,419.5,6.0,411.5,7.0,403.0,8.0,394.5,9.0,386.0,9.5" stroke="black" stroke-width="2" fill="none" />
<polyline points="378.0,3.0,370.0,10.5,361.5,18.0,353.5,25.0" stroke="black" stroke-width="2" fill="none" />
<polyline points="348.0,24.5,356.0,17.0,363.5,10.0,372.0,2.5" stroke="black" stroke-width="2" fill="none" />
<polyline points="345.5,4.0,338.0,11.5,330.5,18.5" stroke="black" stroke-width="2" fill="none" />
<polyline points="348.0,28.5,356.0,28.0,363.5,28.0,371.5,27.0,379.0,26.0,387.0,25.5,395.0,25.0,403.0,25.0,411.5,24.5,420.0,24.5,428.5,23.5,436.5,23.0,444.0,22.5,452.0,22.0,460.0,21.5,468.5,20.5,476.0,20.5,484.0,20.5,491.5,20.5,499.5,21.0,506.5,20.5,515.0,19.5" stroke="black" stroke-width="2" fill="none" />
<polyline points="516.0,-19.5,508.0,-19.0,499.5,-18.0,491.5,-16.5,483.0,-15.5,475.5,-15.5,467.5,-15.0,459.5,-14.5,452.0,-14.5,444.5,-15.0,436.5,-14.5,429.5,-14.0,422.0,-14.0,414.5,-13.5,406.0,-13.5,398.0,-13.0,389.0,-12.0,380.5,-11.0,372.0,-10.0,364.0,-9.5,355.5,-9.0,348.0,-8.0,340.0,-7.5,331.5,-7.5,323.5,-7.5,315.5,-7.0,308.0,-6.0,300.0,-5.5,292.0,-5.0,283.5,-4.5,275.0,-3.5,266.5,-3.0,258.5,-2.0,250.5,-1.5,242.5,-1.0,234.5,-0.5,226.5,0.0,219.0,0.5,211.0,1.0,203.5,2.0,195.5,2.5,188.0,3.0,180.5,4.0,172.5,4.5,164.0,5.0,156.5,5.5,149.0,5.5,141.0,5.5,132.5,5.0,124.5,5.5,116.5,5.0,109.0,5.5,100.5,5.5,92.5,5.0,84.5,5.5,76.5,6.5,68.5,8.0,60.0,9.0,52.0,10.0,44.0,11.0,36.0,12.0,28.0,12.0,20.0,12.5,13.0,13.0,5.0,14.0" stroke="black" stroke-width="2" fill="none" />
<polyline points="3.5,10.5,11.5,9.5,19.5,9.0,27.5,8.5,35.0,7.5,42.5,7.0,51.5,6.5,60.0,6.0,68.5,5.0,77.5,4.5,85.5,4.0,93.5,3.5,101.5,3.0,109.0,2.5,116.5,1.5,124.5,1.0,132.0,1.5,139.5,1.0,147.5,1.0,155.0,1.0,163.0,1.0,171.0,0.5,179.0,0.0,187.0,-0.5,194.5,-1.0,202.0,-2.0" stroke="black" stroke-width="2" fill="none" />
<polyline points="204.0,4.0,195.5,11.5,187.0,18.5,179.0,26.0,171.0,33.5,163.5,40.5,155.0,48.5,147.0,56.5,139.5,64.5,132.0,72.5,124.0,80.5" stroke="black" stroke-width="2" fill="none" />
<polyline points="162.5,73.0,170.5,65.0,178.5,57.0,187.0,49.0,195.0,40.5,203.0,33.5,211.0,26.0,219.0,18.5,226.5,11.5,234.5,4.0" stroke="black" stroke-width="2" fill="none" />
<polyline points="226.5,3.0,218.5,10.5,210.5,17.5,202.5,25.0,194.0,32.5,186.0,40.0,178.5,47.5,170.5,55.5,163.0,63.0,155.5,70.5" stroke="black" stroke-width="2" fill="none" />
<polyline points="209.0,71.0,217.0,64.5,225.0,57.0,233.5,49.5,241.5,42.0,250.0,35.0,258.0,28.0,266.5,20.5,274.5,13.0,283.0,5.5" stroke="black" stroke-width="2" fill="none" />
<polyline points="277.0,2.0,269.0,9.5,260.5,16.5,252.0,24.0,243.0,32.5,234.5,40.5,226.0,48.5,218.0,57.0,210.0,65.0,202.0,73.0" stroke="black" stroke-width="2" fill="none" />
<polyline points="227.5,72.5,236.0,64.5,244.0,56.5,252.5,49.0,260.5,41.5,268.0,34.0,275.5,27.0,283.0,20.0,291.0,12.0,299.0,4.0" stroke="black" stroke-width="2" fill="none" />
<polyline points="290.5,4.0,283.0,11.5,274.5,18.5,266.5,26.5,258.0,34.5,250.0,42.5,242.0,50.0,234.5,57.5,226.5,65.0,218.5,72.5" stroke="black" stroke-width="2" fill="none" />
<polyline points="265.5,73.5,273.0,65.5,281.5,58.0,289.5,50.0" stroke="black" stroke-width="2" fill="none" />
<polyline points="283.0,69.5,275.0,77.0" stroke="black" stroke-width="2" fill="none" />
<polyline points="275.5,84.5,267.5,85.0,259.5,85.0,251.5,85.0,243.5,85.5,235.0,86.0,226.5,87.0,218.5,88.0,210.5,89.0,202.5,89.5,194.5,90.5,186.5,90.5,178.0,91.0,169.5,91.0,161.5,91.5,153.5,92.0,146.0,92.5,138.0,94.0,129.5,94.5,121.5,95.0,113.5,96.0,106.0,96.5,98.0,96.5,90.5,97.0,83.0,97.5,75.0,98.5,67.5,99.0,60.0,99.5,52.0,99.5,44.0,99.0,36.0,99.5,28.5,100.0,20.5,100.5,12.5,101.0,4.5,101.5" stroke="black" stroke-width="2" fill="none" />
<polyline points="3.5,101.0,11.5,94.0,19.5,86.5,27.5,79.5,35.5,72.0,44.5,64.0,52.5,56.5,60.5,48.5,68.0,40.5,76.0,33.0,84.0,24.5,91.5,16.5,99.5,9.0,107.0,1.5" stroke="black" stroke-width="2" fill="none" />
<polyline points="98.5,3.0,90.5,10.0,82.5,17.5,74.5,25.5,67.0,33.0,60.0,41.0,52.5,48.5,44.5,56.5,36.5,64.0,29.0,72.0,21.0,79.5,12.5,87.0,4.0,94.5" stroke="black" stroke-width="2" fill="none" />
<polyline points="2.5,93.0,11.0,93.0,19.5,92.5,27.5,92.5,35.5,91.5,43.5,91.0,52.0,90.5,60.5,90.5,68.5,90.0,76.5,90.0,85.0,89.0,92.5,88.5,100.5,88.0,108.5,88.0,116.0,87.5,124.0,87.0,131.5,86.5,139.5,86.5,147.5,86.5,156.0,86.0,164.0,85.5,172.0,85.0,180.5,84.5,188.5,84.0,197.0,83.0,205.0,83.0,213.5,82.5,222.0,82.0,230.0,81.5,238.0,80.0,245.5,80.0,253.5,79.5,261.5,79.0,269.5,78.0,277.5,77.0" stroke="black" stroke-width="2" fill="none" />
<polyline points="283.5,67.0,275.5,67.5,268.0,68.5,259.5,69.0,251.5,70.5,243.0,70.5,235.0,71.5,227.0,71.5,220.0,71.5,212.5,71.5,205.0,72.0,197.0,73.0,189.5,73.5,181.5,74.5,173.0,74.5,164.0,75.0,156.5,75.5,148.5,75.5,140.0,76.0,132.0,76.0,124.0,77.0,115.5,77.0,107.0,77.5,99.0,78.0,91.5,78.5,83.5,79.0,75.5,79.5,67.5,80.0,60.0,80.5,53.0,81.5,45.5,82.5,37.5,83.0,29.5,83.5,21.5,83.5,13.5,83.5,5.0,84.0" stroke="black" stroke-width="2" fill="none" />
<polyline points="2.5,85.0,10.5,78.0,18.5,70.5,26.5,62.5,34.5,55.0,43.0,47.5,51.0,40.0,59.0,33.0,67.0,25.5,75.0,18.5,83.0,11.5,91.0,4.0" stroke="black" stroke-width="2" fill="none" />
<polyline points="85.0,5.5,77.0,13.0,69.5,21.0,61.5,28.5,54.0,35.5,45.5,43.0,38.0,50.5,30.5,58.0,22.5,65.5,14.5,72.5,6.0,80.0" stroke="black" stroke-width="2" fill="none" />
<polyline points="5.0,80.5,13.0,80.0,21.0,80.0,28.5,79.5" stroke="black" stroke-width="2" fill="none" />
<polyline points="19.5,96.5,11.5,97.0,3.5,97.5" stroke="black" stroke-width="2" fill="none" />
<polyline points="2.5,105.5,10.5,105.0" stroke="black" stroke-width="2" fill="none" />
<polyline points="3.5,109.0,11.5,101.5,19.5,94.0,27.5,86.5,36.0,78.5,44.0,71.0,52.5,63.5,60.5,55.5,68.0,48.0,76.5,40.0,84.5,33.5,93.0,26.5,101.5,19.5,109.0,12.0,117.0,4.5" stroke="black" stroke-width="2" fill="none" />
<polyline points="125.0,3.5,117.0,10.5,108.5,18.5,100.5,26.0,92.0,34.0,84.0,41.5,76.0,49.0,68.0,56.0,60.0,63.0,52.0,70.0,44.0,77.5,36.0,85.0,27.5,93.0,19.5,101.0,11.5,109.0,3.5,117.0" stroke="black" stroke-width="2" fill="none" />
<polyline points="4.5,117.0,12.5,116.5,20.5,115.5,28.5,114.5,35.5,113.5,43.0,113.0,51.0,113.0,58.5,113.0,66.5,113.0,74.0,113.0,81.5,112.5,89.5,112.0,98.0,112.0,106.0,111.5,114.0,110.5,122.5,109.5,130.5,109.0,138.0,108.5,146.5,108.0,155.5,108.0,164.0,107.5,171.5,107.0,179.0,106.0,187.0,105.5,194.5,105.0,203.0,105.0,211.0,104.5,219.5,104.0,227.5,103.5,236.0,103.0,244.0,102.0,252.0,101.5,260.0,101.0,268.0,100.5" stroke="black" stroke-width="2" fill="none" />
<polyline points="266.0,93.5,257.5,93.5,250.0,94.0,242.0,95.0,234.0,95.5,225.5,96.5,217.5,97.5,209.0,98.5,201.0,99.5,194.0,100.0,186.5,100.5,179.0,101.0,171.5,101.5,163.5,102.0,155.5,102.5,147.5,102.5,139.5,102.5,132.0,102.0,124.0,102.0,116.5,102.5,108.5,103.0,100.5,103.5,93.0,104.5,85.5,105.0,77.5,105.0,68.5,106.0,60.0,106.0,52.0,106.5,43.5,107.5,34.5,108.0,25.5,108.0,17.0,109.0,9.0,110.0,1.0,110.5" stroke="black" stroke-width="2" fill="none" />
<polyline points="3.0,113.0,11.0,112.0" stroke="black" stroke-width="2" fill="none" />
<polyline points="5.0,123.5,13.0,116.0,21.5,108.5,30.0,101.5,38.0,94.5,45.0,86.5,53.0,79.0,61.0,71.5,69.0,64.0,76.5,56.5,84.5,49.0,93.0,41.5,100.0,34.0,107.5,26.5,115.0,19.0,123.0,11.5,131.0,3.5" stroke="black" stroke-width="2" fill="none" />
<polyline points="138.5,3.0,130.5,10.5,122.5,18.5,115.0,26.0,106.5,33.5,99.0,41.5,91.0,49.0,83.0,57.0,75.5,64.0,67.5,71.5,59.5,79.5,51.5,86.5,44.0,94.0,36.5,101.0,29.0,109.0,21.0,116.5,12.5,124.5,3.5,133.0" stroke="black" stroke-width="2" fill="none" />
<polyline points="2.5,135.0,10.5,134.0,18.5,133.0,26.5,131.5,34.5,131.0,42.5,130.0,50.5,130.0,58.5,129.0,66.5,128.5,74.5,128.5" stroke="black" stroke-width="2" fill="none" />
<polyline points="78.5,124.0,87.0,124.0,99.0,124.5,113.0,125.5,120.5,124.5,128.0,124.5,136.0,124.5,140.5,127.5,142.5,133.5,151.0,140.0,156.0,128.0" stroke="black" stroke-width="2" fill="none" />
<polyline points="153.5,129.5,152.5,137.5,156.0,140.0,159.5,141.0,166.5,143.0,167.0,151.0,169.0,160.5,167.0,173.5,169.0,182.0,153.0,192.5,165.0,201.0,176.0,213.0,177.0,220.5,179.0,224.5,175.5,232.5,175.0,243.5,183.0,236.0,183.0,230.0,190.5,227.5,198.5,228.0,204.0,225.0" stroke="black" stroke-width="2" fill="none" />
<polyline points="190.5,225.0,179.5,226.5" stroke="black" stroke-width="2" fill="none" />
<polyline points="188.0,231.5,179.0,239.0" stroke="black" stroke-width="2" fill="none" />
<polyline points="218.5,225.5,217.0,217.5,217.5,209.0" stroke="black" stroke-width="2" fill="none" />
<polyline points="221.5,225.0,212.5,231.5,213.5,225.5,210.0,218.5,201.5,217.5,199.5,210.0,201.5,202.5,202.5,194.5,204.5,186.5,209.0,178.5,216.0,174.5,213.0,164.5,216.5,161.5,214.0,153.5,217.0,144.5,210.5,142.0,210.5,134.5,217.0,131.5,213.0,127.5" stroke="black" stroke-width="2" fill="none" />
<polyline points="211.5,128.0,219.5,127.5,227.0,127.0,234.5,126.5,242.0,126.0,249.0,125.5,257.0,124.5" stroke="black" stroke-width="2" fill="none" />
<polyline points="237.5,130.5,229.5,138.0" stroke="black" stroke-width="2" fill="none" />
<polyline points="229.0,134.0,237.5,133.5,244.5,133.0,252.0,133.0,259.5,132.5" stroke="black" stroke-width="2" fill="none" />
<polyline points="237.0,139.5,229.0,147.0" stroke="black" stroke-width="2" fill="none" />
<polyline points="227.5,131.5,235.5,124.5" stroke="black" stroke-width="2" fill="none" />
<polyline points="244.0,149.0,235.5,149.0,227.0,149.5,218.5,149.5,210.5,149.5,202.0,150.0,194.0,151.0,186.0,151.5,177.5,152.0,170.0,152.5,162.0,153.0,154.5,153.5,146.5,154.0,138.5,154.5,131.0,155.0,123.5,155.5,115.0,156.5" stroke="black" stroke-width="2" fill="none" />
<polyline points="115.0,150.0,123.0,149.5,131.0,148.5,139.0,147.5,147.5,147.0,156.0,146.0,163.5,146.0,171.5,145.5,179.5,145.0,188.0,144.0,196.0,143.5,204.0,143.0,211.5,143.0,219.5,142.0" stroke="black" stroke-width="2" fill="none" />
<polyline points="203.0,136.5,195.0,137.0,187.0,137.0,179.5,137.5,172.0,138.5,164.0,139.5,156.5,140.0,148.5,140.0,139.5,140.0,131.0,140.5,123.5,141.0,115.5,141.5" stroke="black" stroke-width="2" fill="none" />
<polyline points="118.5,137.5,121.5,143.5,121.0,150.5" stroke="black" stroke-width="2" fill="none" />
<polyline points="122.5,154.0,131.0,146.5" stroke="black" stroke-width="2" fill="none" />
<polyline points="133.0,140.5,124.5,148.0" stroke="black" stroke-width="2" fill="none" />
<polyline points="124.5,138.5,132.5,131.0" stroke="black" stroke-width="2" fill="none" />
<polyline points="132.0,123.5,124.0,131.0" stroke="black" stroke-width="2" fill="none" />
<polyline points="112.5,126.5,125.0,129.5,128.0,137.5,131.0,142.0,125.5,145.0,123.0,155.5,127.0,163.5,124.0,177.0,118.5,175.0" stroke="black" stroke-width="2" fill="none" />
<polyline points="113.5,171.0,113.5,178.5,113.5,186.5,114.0,194.0,114.5,202.5,109.0,209.5,107.5,210.0,120.5,210.0,129.5,204.5,141.0,202.0" stroke="black" stroke-width="2" fill="none" />
<polyline points="133.5,181.0,141.5,182.0,136.5,184.0,131.0,192.0,131.0,198.0,132.5,211.0,135.0,219.0,125.0,224.5,120.0,232.0,112.0,240.0" stroke="black" stroke-width="2" fill="none" />
<polyline points="124.5,242.0,132.0,242.0,140.0,242.0,148.0,241.0" stroke="black" stroke-width="2" fill="none" />
<polyline points="115.0,223.5,106.5,224.0,98.0,224.0,90.0,224.5,82.0,224.5,74.0,225.5,65.5,226.0,57.5,227.0,50.0,227.5,42.5,228.0,34.5,228.0,26.5,228.0,18.5,228.0,11.0,228.5,3.0,229.0" stroke="black" stroke-width="2" fill="none" />
<polyline points="2.5,232.5,10.0,225.0,17.5,217.0,25.0,209.5,33.0,202.0" stroke="black" stroke-width="2" fill="none" />
<polyline points="34.5,180.5,27.0,187.5,19.0,195.0,11.0,202.0,2.5,209.0" stroke="black" stroke-width="2" fill="none" />
<polyline points="2.0,204.0,10.0,204.0,18.0,204.0,26.5,204.0,34.5,204.0,42.5,203.5,51.0,203.5,59.5,203.0,68.0,202.5,76.5,202.0" stroke="black" stroke-width="2" fill="none" />
<polyline points="74.5,209.5,82.5,208.5,95.5,207.0" stroke="black" stroke-width="2" fill="none" />
<polyline points="104.0,194.5,112.0,203.5,124.5,200.5,132.5,200.0,132.0,194.5,137.0,187.5,144.5,187.0,150.5,184.0,158.0,187.5,165.5,184.5,172.5,187.5,180.5,179.5" stroke="black" stroke-width="2" fill="none" />
<polyline points="155.5,180.5,147.0,181.0,138.0,182.0,129.5,182.0,121.0,182.0,113.5,182.5" stroke="black" stroke-width="2" fill="none" />
<polyline points="100.0,188.5,92.0,188.5" stroke="black" stroke-width="2" fill="none" />
<polyline points="91.0,181.0,98.5,180.0" stroke="black" stroke-width="2" fill="none" />
<polyline points="98.0,181.0,106.0,174.0" stroke="black" stroke-width="2" fill="none" />
<polyline points="101.0,166.5,108.5,166.0,116.5,165.0,124.5,164.5,132.0,163.5,140.0,163.0,147.5,162.5,155.5,162.0,163.5,161.5,172.0,160.5,180.0,160.0,187.5,159.5,195.5,159.0,203.5,158.5,211.5,157.5,220.0,156.5,228.0,155.5,236.0,155.0,244.0,154.5,252.5,154.5" stroke="black" stroke-width="2" fill="none" />
<polyline points="245.0,160.0,239.0,159.5,247.0,144.5,255.5,131.5,264.0,115.5" stroke="black" stroke-width="2" fill="none" />
<polyline points="282.5,90.5,284.5,98.5,282.0,106.5,276.0,114.5,269.5,122.5,263.0,131.0,255.0,138.5,251.0,144.5,257.5,136.5,264.5,129.5,273.0,119.5,281.0,109.5,287.5,99.0,293.5,96.0,301.5,100.5,309.5,94.5,317.0,87.0,325.0,77.5,333.0,66.5,341.0,55.5" stroke="black" stroke-width="2" fill="none" />
<polyline points="346.0,55.0,337.5,63.0,331.5,70.5,325.5,78.0,318.5,85.5,309.5,93.5,306.5,99.5,309.5,106.5,313.5,114.5,319.0,118.5,320.0,127.5,324.0,135.0,323.5,132.5" stroke="black" stroke-width="2" fill="none" />
<polyline points="252.5,171.5,243.5,172.5,235.0,173.0,227.0,173.5,219.0,173.5" stroke="black" stroke-width="2" fill="none" />
<polyline points="213.5,172.0,208.5,172.0,204.5,185.0,192.0,183.5,181.5,184.5,182.5,177.5,172.0,167.0,179.5,159.0,181.5,145.0,189.5,137.5,197.5,136.5,192.0,139.0" stroke="black" stroke-width="2" fill="none" />
<polyline points="201.5,146.5,209.5,145.5,199.5,142.0,199.5,150.0,200.0,159.0,199.0,167.0,188.0,163.5,186.5,168.5,193.5,168.0,202.5,164.0,214.5,165.0,219.5,178.0,216.5,185.5,217.5,193.5,222.5,205.5,222.5,214.0,220.5,221.5" stroke="black" stroke-width="2" fill="none" />
<polyline points="225.5,244.0,224.5,244.0,229.5,235.5,229.5,227.5,229.5,219.0,229.5,211.5,229.5,203.5,229.5,195.0,229.5,187.0,229.5,178.5,229.5,171.0,229.5,163.5,229.0,155.5,229.0,147.5,230.0,140.0,230.0,132.0,231.5,126.0,223.5,123.0,215.0,123.0,207.0,123.0,199.0,123.0,191.5,123.0,183.5,122.0,175.5,122.5,168.0,122.5,160.0,122.5,152.0,122.5,143.5,122.5,135.5,121.5,127.0,121.5,118.5,121.5,110.5,121.5,102.5,121.5,94.5,121.0,86.5,121.0,78.0,120.5,70.5,123.5" stroke="black" stroke-width="2" fill="none" />
<polyline points="75.0,120.5,67.5,121.0,59.5,121.5,52.0,122.0,44.0,122.5,36.0,123.0,27.5,124.0,19.0,124.5,11.5,124.5,3.5,125.0" stroke="black" stroke-width="2" fill="none" />
<polyline points="2.5,139.0,10.5,131.5,19.0,124.0,27.5,116.0,36.0,108.5,44.5,101.0,52.5,93.5,61.0,86.0,69.0,78.5,77.0,71.0,85.0,63.5,93.0,55.5,101.0,47.5,108.5,40.0,116.5,33.0,124.0,26.0,132.0,19.0,139.5,12.0,147.0,4.0" stroke="black" stroke-width="2" fill="none" />
<polyline points="156.0,4.5,147.5,11.5,139.0,19.0,131.5,26.5,123.5,33.5,116.0,41.0,108.0,49.0,101.0,56.5,93.5,64.0,85.0,71.5,77.0,79.5,69.0,87.0,61.5,94.5,53.0,102.0,44.5,109.0,36.0,116.5,27.5,124.0,19.5,132.0,11.0,139.5,3.0,147.0" stroke="black" stroke-width="2" fill="none" />
<polyline points="2.5,149.0,3.0,157.0,3.0,165.0,3.0,173.5,3.0,181.0,3.0,189.0,3.5,197.0,3.5,205.5,4.0,213.5,3.5,221.5" stroke="black" stroke-width="2" fill="none" />
<polyline points="3.5,201.0,11.5,193.0,19.5,185.5,27.5,178.5,35.5,170.5" stroke="black" stroke-width="2" fill="none" />
<polyline points="37.5,162.5,29.5,170.0,20.5,178.0,12.0,185.5,4.0,193.5" stroke="black" stroke-width="2" fill="none" />
<polyline points="2.0,197.0,10.0,197.0,18.5,196.5,26.5,196.0,35.0,195.5,43.5,194.5,52.0,194.0,60.0,193.0,68.0,192.5,76.0,192.0" stroke="black" stroke-width="2" fill="none" />
<polyline points="75.5,184.0,67.0,184.5,59.0,185.5,51.0,186.0,43.0,187.0,35.0,187.0,27.0,187.5,19.0,188.0,11.0,188.0,2.5,188.5" stroke="black" stroke-width="2" fill="none" />
<polyline points="5.0,187.0,13.0,178.5,21.0,170.0,29.5,162.5,37.5,155.0" stroke="black" stroke-width="2" fill="none" />
<polyline points="61.0,155.0,68.5,147.5,76.0,139.5" stroke="black" stroke-width="2" fill="none" />
<polyline points="75.0,137.5,67.0,138.0,59.5,138.5,51.5,138.5,44.0,139.0,35.5,139.0,27.5,139.5,19.5,140.0,11.5,141.0,3.5,141.0" stroke="black" stroke-width="2" fill="none" />
<polyline points="5.5,147.5,13.5,147.0,21.0,147.0,28.5,147.0,36.5,148.0,44.0,148.0,52.0,147.5,59.5,147.0,67.5,146.5,75.0,146.0" stroke="black" stroke-width="2" fill="none" />
<polyline points="77.0,145.0,85.0,155.0,93.0,154.0,104.5,155.0" stroke="black" stroke-width="2" fill="none" />
<polyline points="108.5,158.0,100.5,158.5,92.0,159.0" stroke="black" stroke-width="2" fill="none" />
<polyline points="91.5,173.5,99.5,173.0,107.0,173.0" stroke="black" stroke-width="2" fill="none" />
<polyline points="91.0,179.0,88.0,187.0" stroke="black" stroke-width="2" fill="none" />
<polyline points="77.5,213.0,69.0,220.5" stroke="black" stroke-width="2" fill="none" />
<polyline points="76.0,221.5,68.0,229.0,60.0,236.5" stroke="black" stroke-width="2" fill="none" />
<polyline points="61.5,242.0,53.0,250.0,45.0,257.5,36.5,265.0,28.5,272.5,20.0,280.0,12.0,287.5,3.5,295.5" stroke="black" stroke-width="2" fill="none" />
<polyline points="5.0,294.0,12.5,293.5,20.5,293.0,28.5,293.0,36.0,292.5,44.0,292.0,51.5,291.5,59.5,291.5,67.5,291.5,76.0,291.0,84.0,290.5,92.0,290.0,100.5,289.5,108.5,289.0,117.0,288.0,125.0,288.0,133.5,287.5,142.0,287.0,150.0,286.5,158.0,285.0,165.5,285.0,173.5,284.5,181.5,284.0,189.5,283.0,197.5,282.0,205.5,281.5,213.5,281.0,221.5,280.0,229.5,279.0,238.0,278.0,245.5,277.0,254.0,277.0" stroke="black" stroke-width="2" fill="none" />
<polyline points="252.5,293.0,244.0,293.5,236.0,294.0,228.0,295.0,220.0,296.0,211.5,296.5,203.0,298.0,194.5,298.0,186.0,298.5,177.5,298.5,170.0,299.0,162.0,300.0,154.0,300.5,145.5,301.5,137.5,302.5,129.0,303.5,121.0,304.5,114.0,305.0,106.5,305.5,99.0,306.0,91.5,306.5,83.5,307.0,75.5,307.5,67.5,307.5,59.5,307.5,52.0,307.0,44.0,307.0,36.5,307.5,28.5,308.0,20.5,308.5,13.0,309.5,5.5,310.0" stroke="black" stroke-width="2" fill="none" />
<polyline points="3.5,312.0,10.5,304.0,18.5,296.0,26.5,288.5,34.5,281.5,43.0,275.0,51.5,268.0,60.0,260.0,68.5,252.5" stroke="black" stroke-width="2" fill="none" />
<polyline points="60.5,249.5,52.5,257.0,45.0,264.5,36.5,272.5,29.0,280.5,20.5,288.0,12.5,296.0,4.0,304.0" stroke="black" stroke-width="2" fill="none" />
<polyline points="3.0,302.5,10.5,302.0,18.0,301.5,26.0,301.5,33.5,301.0,41.5,300.0,49.5,299.5,58.0,299.0,66.0,297.5,73.5,297.0,81.5,296.5,89.5,296.0,98.0,296.0,106.5,295.5,114.5,295.5,122.5,294.5,130.5,294.0,138.5,293.0,146.5,292.0,155.0,291.0,163.5,290.5,171.5,290.0,179.5,290.0,187.5,290.0,195.5,289.5,203.0,289.5,211.5,289.0,220.0,288.0,228.5,287.5,236.5,287.0,244.5,287.0,252.0,286.0" stroke="black" stroke-width="2" fill="none" />
<polyline points="253.5,270.0,245.5,270.5,237.5,271.5,229.0,272.0,220.5,272.0,211.5,272.0,203.5,272.0,195.5,272.5,188.0,273.5,179.5,274.0,171.5,275.5,163.0,275.5,155.0,276.5,147.0,276.5,140.0,276.5,132.5,276.5,125.0,277.0,117.0,278.0,109.5,278.5,101.5,279.5,93.0,279.5,84.0,280.0,76.5,280.5,68.5,280.5,60.0,281.0,52.0,281.0,44.0,282.0,35.5,282.0,27.0,282.5,19.0,283.0,11.5,283.5,3.5,284.0" stroke="black" stroke-width="2" fill="none" />
<polyline points="4.5,280.5,12.0,274.0,20.0,266.0,28.5,258.5,36.5,251.5,44.0,244.5,52.0,237.0" stroke="black" stroke-width="2" fill="none" />
<polyline points="52.0,244.5,44.0,252.0,36.0,260.0,28.0,267.5,20.5,274.5,12.5,282.0,4.5,290.0" stroke="black" stroke-width="2" fill="none" />
<polyline points="4.0,289.5,11.5,288.5,19.0,288.0,27.5,287.5,36.0,287.5" stroke="black" stroke-width="2" fill="none" />
<polyline points="51.5,302.5,44.0,303.5,36.0,304.0,28.0,305.0,20.0,305.5,12.0,306.0,4.0,306.5" stroke="black" stroke-width="2" fill="none" />
<polyline points="4.0,313.5,12.5,313.5,20.0,313.0,27.5,312.5,35.5,312.0,42.5,311.5,50.5,311.5,58.5,310.5,66.5,309.5" stroke="black" stroke-width="2" fill="none" />
<polyline points="74.0,317.0,66.0,317.5,57.5,318.5,49.5,319.5,42.0,320.0,34.0,320.0,26.5,320.0,18.5,320.5,10.5,321.0,2.5,321.0" stroke="black" stroke-width="2" fill="none" />
<polyline points="2.5,299.0,10.5,298.5,19.0,298.0,27.5,297.5,35.5,297.0,44.0,296.5" stroke="black" stroke-width="2" fill="none" />
<polyline points="27.5,279.0,19.5,279.5,12.0,280.0,4.0,280.0" stroke="black" stroke-width="2" fill="none" />
<polyline points="4.5,276.5,13.0,276.0,21.0,276.0,28.5,276.0,36.0,275.5,43.5,275.5,51.5,275.5,59.0,275.0,67.0,275.0,74.5,274.5,83.0,274.0,91.0,273.5,99.0,273.0,107.5,272.5,115.5,272.0,124.0,271.0,132.0,270.5,140.0,270.0,148.0,269.0,156.0,268.5,164.5,267.5,172.0,267.5,180.0,267.0,187.5,266.5,194.5,265.5,202.0,265.0,210.0,265.0,218.0,265.0,225.5,264.5,233.5,264.0,241.5,263.5,249.5,263.0" stroke="black" stroke-width="2" fill="none" />
<polyline points="250.0,251.5,242.5,252.0,234.5,252.5,226.0,254.0,218.5,254.5,211.0,255.0,203.0,256.0,195.5,256.0,187.5,257.0,179.0,258.0,170.5,259.0,162.0,259.5,154.5,260.0,147.0,261.0,139.5,261.5,131.5,262.5,123.5,263.5,115.0,264.0,106.0,265.0,97.5,265.0,89.0,265.0,81.5,265.5,73.0,266.0,65.5,266.5,58.0,267.0,51.0,267.5,43.5,267.5,36.0,268.0,29.0,268.5,21.0,269.0,13.0,270.0,5.0,270.5" stroke="black" stroke-width="2" fill="none" />
<polyline points="5.0,272.5,13.0,272.5,20.5,271.5" stroke="black" stroke-width="2" fill="none" />
<polyline points="13.5,265.0,5.5,265.5" stroke="black" stroke-width="2" fill="none" />
<polyline points="4.0,274.0,11.5,266.0,19.5,258.0,28.0,250.0,35.5,242.0,43.5,235.0" stroke="black" stroke-width="2" fill="none" />
<polyline points="66.5,236.5,74.5,229.0" stroke="black" stroke-width="2" fill="none" />
<polyline points="75.0,241.5,83.0,241.5,90.5,242.0,98.5,242.0,106.5,242.5,114.5,238.5,122.0,229.0,126.0,226.5,133.0,220.5,144.0,218.5,148.0,214.0,153.0,220.5" stroke="black" stroke-width="2" fill="none" />
<polyline points="101.0,219.0,92.5,224.0" stroke="black" stroke-width="2" fill="none" />
<polyline points="75.0,176.5,66.5,177.0,59.0,177.5,51.5,178.0,43.5,178.5,35.5,178.5,27.5,179.0,20.0,179.0,12.5,180.0,4.5,181.0" stroke="black" stroke-width="2" fill="none" />
<polyline points="4.0,176.5,11.5,169.5,19.5,162.0,27.5,155.0,35.5,148.0,44.0,140.5,51.5,133.5" stroke="black" stroke-width="2" fill="none" />
<polyline points="61.0,138.5,68.5,131.5,76.0,125.0,84.0,118.0" stroke="black" stroke-width="2" fill="none" />
<polyline points="81.5,121.5,89.5,114.0" stroke="black" stroke-width="2" fill="none" />
<polyline points="76.5,121.5,69.5,129.0,69.5,137.0,69.5,145.5,70.0,153.5,70.5,161.5,71.0,169.5,71.0,177.0,71.0,185.0,71.0,193.0,71.5,201.0,71.0,209.0,72.0,217.0,72.0,225.0,76.0,233.0,71.5,241.0,76.5,235.0,79.5,226.0,82.5,215.5,86.0,215.5" stroke="black" stroke-width="2" fill="none" />
<polyline points="75.5,169.5,67.5,169.5,59.5,170.0,52.0,170.0,44.0,170.5,36.0,170.5,28.0,171.0,20.0,171.5,11.5,171.5,3.5,172.5" stroke="black" stroke-width="2" fill="none" />
<polyline points="4.5,162.5,12.5,162.0,20.5,162.5,29.0,162.5,36.5,162.0,44.5,162.5,52.5,162.0,61.0,162.5,69.0,162.5,76.5,162.5" stroke="black" stroke-width="2" fill="none" />
<polyline points="75.0,154.0,67.5,154.0,59.5,154.0,52.0,154.5,44.5,154.0,36.5,154.5,29.0,155.5,21.5,156.0,13.5,156.5,5.5,157.0" stroke="black" stroke-width="2" fill="none" />
<polyline points="1.0,159.5,9.0,152.5,17.0,144.5,26.0,137.0,35.0,129.5,43.5,123.0,52.5,115.5,60.5,108.0,69.0,100.5,77.5,93.0,85.5,85.5,94.0,78.0,101.5,70.5,109.0,63.0,116.5,55.0,124.0,47.5,132.0,40.5,139.5,33.0,147.5,26.0,155.5,19.0,163.5,11.5,171.5,4.5" stroke="black" stroke-width="2" fill="none" />
<polyline points="180.0,3.5,171.5,11.5,163.5,19.0,155.5,26.5,147.5,34.0,139.0,42.0,131.0,49.0,123.5,56.0,115.5,63.5,108.0,71.0,100.0,78.5,91.5,86.0,83.0,94.0,74.5,102.0" stroke="black" stroke-width="2" fill="none" />
<polyline points="70.0,115.0,61.5,122.5" stroke="black" stroke-width="2" fill="none" />
<polyline points="58.5,132.0,66.5,124.5,74.5,117.0" stroke="black" stroke-width="2" fill="none" />
<polyline points="68.0,142.0,60.0,149.5" stroke="black" stroke-width="2" fill="none" />
<polyline points="77.0,153.0,81.0,161.0,85.0,169.0,86.0,177.0,85.0,185.0,83.0,193.0,81.5,201.0" stroke="black" stroke-width="2" fill="none" />
<polyline points="124.0,163.5,114.0,164.5,106.5,169.0,96.5,169.0,90.5,161.5,87.0,168.5,88.0,166.5,86.0,158.5,95.5,150.5,96.5,142.0,96.5,141.0" stroke="black" stroke-width="2" fill="none" />
<polyline points="107.5,128.0,115.5,127.5,124.0,126.5,132.0,125.5,139.0,124.5,147.0,123.5,155.0,123.0,163.0,122.5,171.0,122.0,179.0,122.0,186.5,121.5,194.5,120.5,202.0,120.0" stroke="black" stroke-width="2" fill="none" />
<polyline points="170.0,142.5,177.5,144.5,174.5,151.5" stroke="black" stroke-width="2" fill="none" />
<polyline points="163.0,151.0,159.5,145.5,147.5,153.0,149.0,169.0,143.5,167.0,144.0,162.0,149.0,152.5,144.5,146.5" stroke="black" stroke-width="2" fill="none" />
<polyline points="110.0,126.5,115.5,134.5,115.5,142.5,115.5,150.5,115.5,159.0,104.5,169.0,101.0,178.0,99.0,185.0,91.0,188.0" stroke="black" stroke-width="2" fill="none" />
<polyline points="108.0,85.5,116.0,78.0,124.0,70.5,132.5,63.0,140.5,55.5,148.5,48.0,157.0,40.0,164.5,33.0,172.0,26.0,180.0,19.0,188.0,11.5,196.0,4.0" stroke="black" stroke-width="2" fill="none" />
<polyline points="188.0,2.0,179.5,10.0,171.5,17.5,163.5,25.0,155.5,32.5,147.5,40.0,140.0,47.5,132.0,55.5,124.5,63.5,117.5,71.5,109.5,79.5,101.0,86.5" stroke="black" stroke-width="2" fill="none" />
<polyline points="180.0,70.0,188.0,62.0,196.0,55.0,204.0,48.0,212.0,41.5,220.0,33.5,228.0,26.5,236.0,19.5,244.0,12.0,251.5,4.5" stroke="black" stroke-width="2" fill="none" />
<polyline points="244.0,1.0,236.0,9.0,228.0,16.5,220.0,25.0,212.0,33.0,204.0,41.0,196.0,48.5,187.5,56.5,179.5,64.5,171.0,71.5" stroke="black" stroke-width="2" fill="none" />
<polyline points="194.5,72.0,203.0,64.0,211.0,56.5,219.0,48.5,227.5,40.5,236.0,33.5,244.5,25.5,252.5,18.0,260.5,11.0,268.5,3.5" stroke="black" stroke-width="2" fill="none" />
<polyline points="261.0,4.0,253.0,11.0,244.5,18.0,236.0,25.5,227.5,32.5,219.0,40.5,211.0,47.5,202.0,54.0,194.0,61.0,186.0,68.5" stroke="black" stroke-width="2" fill="none" />
<polyline points="149.5,71.0,157.5,63.0,165.5,56.0,173.5,49.0,181.5,41.5,190.0,34.0,198.0,26.0,206.0,18.0,214.0,10.5,221.5,3.0" stroke="black" stroke-width="2" fill="none" />
<polyline points="211.5,4.0,203.5,11.5,195.5,19.0,188.0,26.5,180.0,34.0,172.5,41.5,165.0,49.0,157.0,56.5,149.0,64.5,140.5,72.0" stroke="black" stroke-width="2" fill="none" />
<polyline points="161.0,3.0,153.0,10.5,145.5,18.0,138.0,25.5,130.5,33.0,123.0,40.5,115.0,48.0,106.5,55.5,98.5,63.0,90.0,70.0,81.5,77.5,74.0,85.0,66.5,93.0,59.0,101.0,51.0,109.5,43.0,117.5,35.5,124.5,27.0,132.5,19.0,140.0,11.0,147.5,3.0,155.5" stroke="black" stroke-width="2" fill="none" />
<polyline points="4.0,89.0,12.0,88.0,20.5,87.5" stroke="black" stroke-width="2" fill="none" />
<polyline points="4.5,78.5,12.0,77.5,20.0,77.0,28.5,75.5,36.5,74.5,44.5,73.5,52.0,73.0,60.5,73.0,68.5,72.5,76.5,72.0,84.5,71.5,93.0,71.0,101.0,71.0,108.5,71.0,116.0,70.5,123.5,70.5,131.5,70.5,139.0,70.0,147.0,70.0,154.5,69.5,163.0,69.0,171.0,68.5,179.0,68.0,187.5,67.5,195.5,67.0,204.0,66.0,212.0,65.5,220.0,65.0,228.0,64.0,236.0,63.5,244.5,62.5,252.0,62.5,260.0,62.0,267.5,61.5,274.5,60.5,282.0,60.0" stroke="black" stroke-width="2" fill="none" />
<polyline points="291.0,50.0,283.0,51.0,275.5,51.0,267.5,52.0,259.0,53.0,250.5,54.0,242.0,54.5,234.5,55.0,227.0,56.0,219.5,56.5,211.5,57.5,203.5,58.5,195.0,59.0,186.0,60.0,177.5,60.0,169.0,60.0,161.5,60.5,153.0,61.0,145.5,61.5,138.0,62.0,131.0,62.5,123.5,62.5,116.0,63.0,109.0,63.5,101.0,64.0,93.0,65.0,85.0,65.5,77.0,66.0,68.5,65.5,61.0,65.0,53.0,65.5,45.5,65.5,37.5,66.0,29.5,66.5,21.0,67.0,12.0,68.0,4.0,68.5" stroke="black" stroke-width="2" fill="none" />
<polyline points="4.0,70.5,11.5,63.5,20.0,56.0,28.5,48.5,36.5,41.0,44.5,34.0,52.0,27.0,60.5,19.5,68.5,12.5,77.0,5.0" stroke="black" stroke-width="2" fill="none" />
<polyline points="69.0,1.0,61.0,9.0,53.0,17.0,45.5,25.0,37.0,33.0,28.5,41.0,20.0,48.5,12.5,55.5,4.0,63.0" stroke="black" stroke-width="2" fill="none" />
<polyline points="3.0,62.0,10.5,61.0,18.5,60.5,27.0,60.5,35.5,60.0,44.5,60.0,53.0,59.0,61.0,58.0,69.0,57.0,77.0,56.5,85.5,56.0,93.0,56.0,101.0,55.0,109.0,54.5,117.0,54.5,124.5,54.0,132.0,53.5,140.0,52.5,148.0,52.0,155.5,51.0,163.0,50.5,171.5,49.5,179.0,49.0,186.5,48.5,194.5,48.0,202.5,47.5,210.0,47.0,218.0,46.5,225.5,46.0,234.0,45.5,242.0,45.0,250.0,44.0,258.5,43.5,266.5,43.5,275.0,43.5,283.5,43.0,292.0,43.0" stroke="black" stroke-width="2" fill="none" />
<polyline points="299.5,34.0,291.5,35.0,284.0,36.0,276.0,37.0,267.5,37.5,259.0,38.0,251.0,38.5,243.0,39.0,235.0,39.0,227.5,39.5,220.0,40.5,212.0,41.5,204.5,42.0,196.5,42.0,187.5,42.0,179.0,42.5,171.5,43.0,163.5,43.5,155.5,44.0,148.0,45.0,140.0,46.0,131.5,46.0,123.5,47.0,116.0,47.5,108.5,48.0,101.0,48.0,92.5,48.0,84.5,48.5,76.5,49.0,69.0,50.5,61.0,51.5,53.0,52.0,45.0,52.0,37.0,52.0,28.5,51.5,20.5,51.5,12.0,52.0,4.0,52.5" stroke="black" stroke-width="2" fill="none" />
<polyline points="4.0,56.5,12.0,50.0,19.5,42.5,28.0,34.5,36.5,26.5,44.5,18.5,52.5,10.5,60.0,3.0" stroke="black" stroke-width="2" fill="none" />
<polyline points="52.0,4.5,44.0,12.0,36.0,19.0,28.0,27.0,20.0,34.5,12.0,42.0,4.0,49.5" stroke="black" stroke-width="2" fill="none" />
<polyline points="3.0,48.5,11.0,48.0,19.0,47.5,27.0,47.5,35.5,47.0,43.5,46.5,52.0,46.0,60.0,45.5,68.5,45.0" stroke="black" stroke-width="2" fill="none" />
<polyline points="45.5,3.0,37.5,11.0,29.0,18.5,21.0,26.5,13.0,34.0,4.5,41.5" stroke="black" stroke-width="2" fill="none" />
<polyline points="3.5,41.5,11.5,40.5,18.5,40.0,26.5,39.5,35.0,39.0,42.5,38.5,51.0,38.0,59.5,37.5,68.0,37.0,76.0,36.5" stroke="black" stroke-width="2" fill="none" />
<polyline points="37.5,4.0,29.0,11.5,21.0,19.0,13.0,27.0,4.5,34.5" stroke="black" stroke-width="2" fill="none" />
<polyline points="4.0,32.5,12.0,32.0,20.0,31.5,28.0,31.5,35.5,31.0,43.0,30.5,51.0,30.0,59.0,29.5,66.5,29.0,74.5,28.0,82.0,27.0" stroke="black" stroke-width="2" fill="none" />
<polyline points="28.5,2.5,20.0,10.5,11.5,19.0,3.5,27.0" stroke="black" stroke-width="2" fill="none" />
<polyline points="3.5,25.0,11.5,24.5,19.5,23.5,27.5,23.0,35.0,22.5,43.0,22.5,51.0,21.5,59.0,20.5,67.0,20.0,75.0,19.5,82.5,19.5,91.0,19.0" stroke="black" stroke-width="2" fill="none" />
<polyline points="20.0,2.0,12.0,10.0,5.0,18.0" stroke="black" stroke-width="2" fill="none" />
<polyline points="4.5,18.5,12.5,18.0,20.0,17.0,28.0,16.0,36.5,15.0,44.5,14.0,52.5,13.5,60.0,13.0,68.0,12.5,75.5,12.0,83.5,11.5,91.5,10.5,100.0,10.5,108.0,10.0,116.0,9.5" stroke="black" stroke-width="2" fill="none" />
<polyline points="13.5,1.5,5.5,9.0" stroke="black" stroke-width="2" fill="none" />
<polyline points="2.0,4.5,10.0,3.5,18.5,3.5,26.5,3.5,34.5,2.5,42.5,2.0,51.5,1.5,61.0,0.5,69.5,-0.5,77.5,-1.0,85.5,-1.5,93.5,-2.0,101.0,-2.0,108.5,-2.0,116.5,-1.0,124.0,-1.0,132.0,-1.5,139.5,-2.0,147.5,-2.5,155.0,-3.0,163.0,-3.5,171.0,-4.0,178.5,-5.0,186.0,-6.0,194.5,-6.5,203.0,-7.5,211.0,-8.0,219.5,-8.0,228.0,-8.5,237.0,-8.5,245.0,-9.0,253.5,-9.5,260.5,-10.0,268.0,-10.0,275.5,-10.5,283.0,-10.5,291.0,-11.5,299.5,-12.0,308.0,-12.5,315.5,-13.0,323.5,-13.5,331.5,-14.0,339.0,-14.5,346.5,-15.5,354.5,-17.0,362.5,-18.0,370.0,-19.0,377.5,-19.0,385.0,-19.0,392.5,-19.5,400.5,-19.5,408.5,-20.5,417.5,-21.5,426.0,-22.0,434.0,-22.0,441.5,-21.5,450.5,-21.5,459.0,-21.5,467.5,-21.5,476.0,-21.5,484.0,-22.0,492.0,-22.5,499.5,-22.5,507.5,-23.5,516.0,-24.5" stroke="black" stroke-width="2" fill="none" />
<polyline points="301.0,26.0,293.5,26.0,285.5,27.0,277.0,27.5,268.5,28.0,260.0,29.0,251.5,30.0,243.5,30.5,235.5,31.0,228.0,31.5,220.0,32.0,212.0,33.0,203.5,33.5,195.0,34.5,186.5,35.0,178.0,35.0,170.0,35.5,162.0,35.5,154.0,36.5,145.5,37.0,137.5,38.0,130.0,38.5,122.5,39.0,114.5,39.0,106.5,39.0,98.5,39.0,91.0,39.5,83.0,40.0,75.0,40.5,66.5,40.5,58.0,41.0,50.0,42.0,41.5,42.5,33.5,43.0,25.5,43.0,17.5,43.5,9.0,44.0,1.0,44.5" stroke="black" stroke-width="2" fill="none" />
<polyline points="4.5,39.0,12.0,38.5,20.0,37.5,28.0,37.0,36.5,36.0,45.0,35.0,52.5,34.5,60.0,33.5,68.0,33.0,76.0,32.0,84.0,31.5,92.5,31.0,100.5,31.5,108.0,31.0,116.0,31.0,124.0,30.5,132.0,30.5,140.0,30.5,148.0,30.5,155.5,30.5,163.5,30.0,171.5,29.5,180.0,28.5,188.0,27.5,195.0,26.5,203.0,25.5,211.0,25.0,219.0,24.5,227.0,24.0,235.0,24.0,242.5,23.5,250.5,22.5,258.0,22.0,266.5,21.0,275.0,20.0,283.5,19.0,292.0,18.5,300.0,18.5,308.5,18.0" stroke="black" stroke-width="2" fill="none" />
<polyline points="309.0,10.0,301.0,10.5,293.0,11.0,285.0,11.5,277.0,12.0,269.0,13.0,261.0,14.0,252.5,14.5,244.5,15.0,236.5,15.5,228.5,16.0,220.0,16.5,212.0,16.5,204.0,17.0,196.0,17.5,187.5,17.5,179.5,17.5,171.5,17.5,164.0,18.5,156.0,19.0,148.0,19.5,140.0,20.0,132.0,21.0,123.5,21.5,115.0,22.5,106.5,23.0,98.5,23.5,90.0,24.0,82.0,24.0,74.0,25.0,66.0,25.5,58.5,25.5,50.5,25.5,42.0,25.5,35.0,26.0,27.0,27.0,19.0,28.0,10.0,28.5,2.0,29.0" stroke="black" stroke-width="2" fill="none" />
<polyline points="6.0,22.5,14.0,22.5,21.5,21.5,29.0,20.5,36.5,19.5,44.0,18.0,52.0,17.5,60.0,17.0,68.0,16.5,76.5,16.5,84.5,16.0,92.5,15.0,100.0,14.0,107.5,14.0,115.5,13.5,123.5,13.5,131.5,13.0,139.0,12.5,146.5,12.0,155.0,11.5,163.0,11.0,170.5,10.0,179.0,10.0,187.0,9.5,194.5,9.5,202.0,9.0,210.5,9.0,219.0,8.5,227.0,8.0,234.5,7.0,243.0,6.0,250.5,6.0,258.0,6.0,266.0,6.0,274.0,6.0,282.0,5.0,290.5,5.0,299.0,3.5,307.5,2.5,315.0,2.0" stroke="black" stroke-width="2" fill="none" />
<polyline points="246.5,169.0,246.5,177.0,247.0,185.5,247.0,193.5,247.5,201.5" stroke="black" stroke-width="2" fill="none" />
<polyline points="218.0,215.5,209.0,211.5,204.0,205.0,204.0,197.0" stroke="black" stroke-width="2" fill="none" />
<polyline points="282.5,262.5,282.0,270.5,283.0,281.5,287.0,288.0,288.0,296.0,295.0,296.0,303.0,294.5,310.5,293.5,319.0,291.5" stroke="black" stroke-width="2" fill="none" />
<polyline points="284.0,273.0,282.0,265.0" stroke="black" stroke-width="2" fill="none" />
<polyline points="37.0,72.0,28.5,72.5,20.5,73.0,12.0,73.5,3.5,74.0" stroke="black" stroke-width="2" fill="none" />
<polyline points="5.0,64.5,12.5,64.0,20.0,63.5,28.0,63.5,36.0,63.0,44.5,63.0" stroke="black" stroke-width="2" fill="none" />
<polyline points="60.5,55.0,52.5,55.0,44.5,55.5,36.0,55.5,28.0,56.5,20.0,57.0,12.0,57.0,4.5,57.0" stroke="black" stroke-width="2" fill="none" />
</svg>