<svg xmlns="http://www.w3.org/2000/svg" version="1.1"><path d="M318.0,13.5,313.0,21.5,308.0,29.5,304.0,38.0,299.5,46.0,295.5,54.0,292.0,62.0,287.0,70.0,281.5,78.5,278.5,86.5,273.5,95.0,269.5,102.5,265.5,110.0,261.5,117.5,257.5,125.0,255.0,133.0,251.0,140.5,247.0,148.5,243.0,156.5,243.5,164.5,244.5,173.0,244.5,180.5,244.5,188.5" stroke="black" stroke-width="2" fill="none" />
<path d="M236.5,187.5,228.5,195.5" stroke="black" stroke-width="2" fill="none" />
<path d="M229.0,199.5,237.0,199.0,244.5,198.5" stroke="black" stroke-width="2" fill="none" />
<path d="M237.0,196.0,229.0,203.5" stroke="black" stroke-width="2" fill="none" />
<path d="M229.0,207.0,236.5,206.0,244.5,205.5" stroke="black" stroke-width="2" fill="none" />
<path d="M237.0,204.5,229.0,212.5" stroke="black" stroke-width="2" fill="none" />
<path d="M228.0,212.5,236.0,212.5,244.5,212.0" stroke="black" stroke-width="2" fill="none" />
<path d="M235.0,213.5,227.0,221.0" stroke="black" stroke-width="2" fill="none" />
<path d="M228.5,221.0,236.0,220.5,244.5,220.0" stroke="black" stroke-width="2" fill="none" />
<path d="M236.0,219.5,228.0,227.0" stroke="black" stroke-width="2" fill="none" />
<path d="M236.0,227.5,228.0,235.5,220.5,243.5" stroke="black" stroke-width="2" fill="none" />
<path d="M226.0,242.5,233.5,235.0" stroke="black" stroke-width="2" fill="none" />
<path d="M247.5,233.5,247.5,241.5,246.5,249.5,246.0,257.0,246.0,265.0,246.0,272.5,246.0,280.5,245.5,288.0,245.5,295.5,245.5,303.0,245.5,311.0,245.5,319.5,246.5,324.5,255.0,326.0,263.0,325.5,271.5,325.5,279.5,325.5,287.5,324.5,295.5,324.5,303.0,324.5,311.0,325.5,319.5,326.0,327.5,325.5,335.5,326.0,343.5,325.0,351.5,324.5,359.5,324.0,367.5,324.0,375.0,324.0,382.5,324.0,390.5,325.0,398.5,325.0,407.0,323.0" stroke="black" stroke-width="2" fill="none" />
<path d="M403.0,324.5,395.0,332.0,386.5,339.0" stroke="black" stroke-width="2" fill="none" />
<path d="M395.0,337.5,403.5,329.5,412.0,321.5,420.0,313.5,428.0,305.5,435.5,297.5,443.5,290.0,451.5,282.5" stroke="black" stroke-width="2" fill="none" />
<path d="M442.5,261.0,450.5,261.0,459.0,260.5,467.5,260.0,475.0,260.0,483.0,259.5,491.0,259.0,499.0,258.5,506.5,257.5,514.0,257.0" stroke="black" stroke-width="2" fill="none" />
<path d="M515.5,261.0,507.5,268.0,499.0,275.5,491.0,283.0,483.5,290.0,475.5,297.5,468.0,305.0,460.0,312.5,451.5,320.0,443.5,327.5,435.5,335.0" stroke="black" stroke-width="2" fill="none" />
<path d="M437.0,336.5,444.5,336.0,452.5,336.5,460.0,336.5,468.0,336.5,476.5,336.5,484.0,336.0,492.0,336.0,500.5,335.5,509.0,334.5,517.0,333.5" stroke="black" stroke-width="2" fill="none" />
<path d="M517.5,334.0,509.5,341.0" stroke="black" stroke-width="2" fill="none" />
<path d="M499.5,339.0,508.0,331.5,515.5,324.0" stroke="black" stroke-width="2" fill="none" />
<path d="M518.0,317.0,510.0,324.5,501.5,331.5,493.5,338.5" stroke="black" stroke-width="2" fill="none" />
<path d="M484.5,338.0,492.0,330.0,500.0,322.5,508.0,315.5,516.0,308.5" stroke="black" stroke-width="2" fill="none" />
<path d="M514.5,300.0,506.5,308.0,498.5,315.0,490.5,322.0,482.5,329.5,475.0,337.0" stroke="black" stroke-width="2" fill="none" />
<path d="M467.5,336.0,476.0,328.5,483.5,321.0,491.5,313.5,499.5,306.0,507.5,299.0,515.5,291.5" stroke="black" stroke-width="2" fill="none" />
<path d="M514.5,283.0,507.0,290.5,499.0,298.0,491.0,305.5,482.5,313.0,474.0,321.0,465.5,328.5,458.0,335.5" stroke="black" stroke-width="2" fill="none" />
<path d="M452.0,336.5,459.5,328.5,468.0,321.5,476.0,314.0,484.0,305.5,491.5,298.0,499.0,290.5,507.0,283.5,515.0,276.5" stroke="black" stroke-width="2" fill="none" />
<path d="M515.0,268.0,507.0,275.5,499.5,283.5,492.0,291.5,484.0,298.5,476.0,306.0,468.0,314.0,460.5,321.5,452.5,329.0,444.0,337.0" stroke="black" stroke-width="2" fill="none" />
<path d="M450.0,330.5,458.0,330.0,466.0,330.0,474.0,329.5,482.0,328.5,490.0,328.0,498.0,327.5,506.0,327.0,513.5,326.5" stroke="black" stroke-width="2" fill="none" />
<path d="M516.0,297.5,508.0,298.5,500.0,298.5,492.0,299.0" stroke="black" stroke-width="2" fill="none" />
<path d="M483.0,303.5,491.5,303.0,500.0,303.0,508.0,303.0,516.0,303.0" stroke="black" stroke-width="2" fill="none" />
<path d="M515.0,289.0,507.5,289.5,499.5,290.0" stroke="black" stroke-width="2" fill="none" />
<path d="M516.5,311.5,508.5,312.0,500.5,313.0,493.0,314.0,485.0,314.0,477.0,314.5" stroke="black" stroke-width="2" fill="none" />
<path d="M468.5,321.5,476.0,321.0,484.0,320.5,491.5,320.0,499.5,319.5,508.0,319.0,515.5,318.0" stroke="black" stroke-width="2" fill="none" />
<path d="M515.0,252.0,506.5,259.5,498.5,267.0,491.0,274.5,483.0,282.0,475.0,289.0,467.0,296.0,459.0,303.0,450.5,310.0,442.5,317.0,435.0,324.5,427.0,332.0" stroke="black" stroke-width="2" fill="none" />
<path d="M418.5,332.0,427.0,324.5,435.0,317.5,443.0,310.0,451.0,302.5,459.0,295.0,467.5,287.0,475.5,279.0,483.5,272.0,492.0,265.0,500.0,258.0,508.0,250.5,516.0,243.0" stroke="black" stroke-width="2" fill="none" />
<path d="M517.0,234.5,509.0,242.5,500.5,250.0,492.5,258.0,484.0,265.0,475.5,272.0,467.0,279.0,459.0,286.5,450.5,293.5,442.5,300.5,434.5,308.5,426.5,316.0,418.5,323.5,411.0,331.5" stroke="black" stroke-width="2" fill="none" />
<path d="M403.0,331.5,410.5,324.5,418.5,317.0,425.5,310.0,433.5,302.5,442.0,295.0,451.0,287.5,459.5,279.5,467.5,271.5,476.0,264.0,484.5,257.0,493.0,250.0,501.5,243.0,509.5,235.5,517.5,227.5" stroke="black" stroke-width="2" fill="none" />
<path d="M517.5,220.0,510.0,227.5,501.5,235.0,493.5,242.5,485.5,249.5,477.0,257.5" stroke="black" stroke-width="2" fill="none" />
<path d="M483.0,242.0,491.5,234.5,500.0,227.0,508.5,219.5,517.0,212.0" stroke="black" stroke-width="2" fill="none" />
<path d="M514.5,204.0,506.0,211.5,498.0,219.0,490.0,226.5" stroke="black" stroke-width="2" fill="none" />
<path d="M498.0,212.0,506.0,204.0,514.0,196.5" stroke="black" stroke-width="2" fill="none" />
<path d="M517.0,189.5,508.5,197.5,500.5,205.0" stroke="black" stroke-width="2" fill="none" />
<path d="M498.5,195.0,506.0,188.0,514.0,181.0" stroke="black" stroke-width="2" fill="none" />
<path d="M515.0,172.0,507.0,179.0,499.5,186.0" stroke="black" stroke-width="2" fill="none" />
<path d="M499.5,177.0,507.0,170.0,515.5,163.0" stroke="black" stroke-width="2" fill="none" />
<path d="M516.0,155.5,508.0,163.0,499.5,170.0,491.5,177.5" stroke="black" stroke-width="2" fill="none" />
<path d="M491.5,170.0,500.0,163.0,507.5,155.5,515.0,148.0" stroke="black" stroke-width="2" fill="none" />
<path d="M513.0,139.0,505.0,146.5,497.5,154.0,489.5,162.0" stroke="black" stroke-width="2" fill="none" />
<path d="M483.5,161.0,491.0,152.5,499.0,145.0,507.5,137.5,515.0,130.5" stroke="black" stroke-width="2" fill="none" />
<path d="M515.0,121.5,507.0,128.5,499.5,136.0,491.5,143.5,483.5,151.0" stroke="black" stroke-width="2" fill="none" />
<path d="M483.0,143.5,490.5,137.0,498.5,129.5,506.0,122.0,514.0,114.5" stroke="black" stroke-width="2" fill="none" />
<path d="M513.5,106.0,505.5,113.5,498.0,121.5,490.0,129.0,482.5,137.0,474.5,144.0" stroke="black" stroke-width="2" fill="none" />
<path d="M475.0,137.5,483.0,130.0,491.0,122.5,498.5,115.0,505.5,107.5,513.5,100.0" stroke="black" stroke-width="2" fill="none" />
<path d="M515.0,93.0,507.0,100.0,499.0,107.5,491.0,115.0,483.0,122.5,475.0,130.0" stroke="black" stroke-width="2" fill="none" />
<path d="M477.5,122.0,484.5,114.5,492.0,107.0,500.0,99.5,508.0,92.5,516.0,85.0" stroke="black" stroke-width="2" fill="none" />
<path d="M516.5,76.0,508.5,83.5,501.0,91.0,493.5,98.5,486.0,106.5,478.0,114.0,469.5,121.5" stroke="black" stroke-width="2" fill="none" />
<path d="M467.5,126.0,475.0,125.5,483.0,125.5,491.0,125.0,499.5,124.5,508.5,124.0,516.5,124.0" stroke="black" stroke-width="2" fill="none" />
<path d="M516.5,105.0,508.0,105.5" stroke="black" stroke-width="2" fill="none" />
<path d="M500.0,99.0,507.5,99.0,516.0,98.5" stroke="black" stroke-width="2" fill="none" />
<path d="M515.5,88.5,507.0,89.0,498.5,89.0,490.0,89.5" stroke="black" stroke-width="2" fill="none" />
<path d="M483.0,82.0,491.5,81.0,499.5,80.5,507.5,80.5,515.0,80.0" stroke="black" stroke-width="2" fill="none" />
<path d="M516.5,69.0,508.0,76.5,500.0,84.0,492.5,91.5,484.5,98.5,476.0,105.5,468.5,113.5" stroke="black" stroke-width="2" fill="none" />
<path d="M462.0,114.0,469.5,106.5,477.0,98.5,484.0,91.0,490.5,83.5,498.0,76.0,505.5,68.5,513.5,61.0" stroke="black" stroke-width="2" fill="none" />
<path d="M515.5,52.0,507.5,59.5,499.0,67.5,490.5,74.5,482.0,82.5,474.0,90.0,466.5,97.0,459.0,104.5" stroke="black" stroke-width="2" fill="none" />
<path d="M453.5,108.0,461.5,107.0,469.5,107.0,477.0,106.5,484.5,106.5,492.0,106.5,500.0,106.0,508.0,105.5,516.5,105.0" stroke="black" stroke-width="2" fill="none" />
<path d="M515.5,155.0,508.0,156.0,500.0,157.0,492.0,158.0,485.0,158.5,477.0,159.0" stroke="black" stroke-width="2" fill="none" />
<path d="M469.5,150.5,477.5,150.0,485.0,149.0,492.5,148.5,500.5,148.5,508.0,147.5,516.0,146.5" stroke="black" stroke-width="2" fill="none" />
<path d="M515.5,194.5,507.5,195.5,500.0,196.5,492.5,197.0,485.0,198.0,477.5,199.0,470.0,200.0" stroke="black" stroke-width="2" fill="none" />
<path d="M468.0,190.0,475.5,189.5,483.0,189.0,490.5,188.5,498.5,188.0,506.5,187.5,514.0,186.5" stroke="black" stroke-width="2" fill="none" />
<path d="M514.0,178.0,506.0,178.0,498.0,178.0,490.0,178.5,482.0,179.0,474.5,179.0,466.5,179.5" stroke="black" stroke-width="2" fill="none" />
<path d="M460.0,178.0,468.5,191.0" stroke="black" stroke-width="2" fill="none" />
<path d="M460.5,206.5,468.5,205.5,476.5,205.0,485.0,204.0,493.0,203.0,501.0,202.0,509.0,202.0,516.5,202.0" stroke="black" stroke-width="2" fill="none" />
<path d="M515.5,161.5,507.5,161.5,499.5,162.0,491.0,163.5,483.0,164.5,475.0,165.0,467.0,165.5" stroke="black" stroke-width="2" fill="none" />
<path d="M462.5,173.5,470.5,173.0,478.0,173.0,486.0,173.0,494.0,172.5,501.5,171.5,509.5,171.0,516.5,170.5" stroke="black" stroke-width="2" fill="none" />
<path d="M517.0,130.5,508.5,131.0,500.5,131.5,492.5,132.0,484.0,132.5,475.5,133.5,467.5,134.0" stroke="black" stroke-width="2" fill="none" />
<path d="M460.5,141.0,469.0,141.0,477.0,140.5,485.5,140.0,493.5,140.0,501.5,139.5,509.5,139.0,517.5,137.5" stroke="black" stroke-width="2" fill="none" />
<path d="M516.5,114.0,508.5,114.5,501.0,114.5,493.0,115.0,485.0,115.5,477.0,116.0,468.5,117.0,460.0,117.0" stroke="black" stroke-width="2" fill="none" />
<path d="M465.0,127.0,457.0,121.0,449.0,114.0" stroke="black" stroke-width="2" fill="none" />
<path d="M449.5,111.5,457.5,97.5" stroke="black" stroke-width="2" fill="none" />
<path d="M458.5,96.0,466.5,89.0,474.5,81.5,483.0,73.0,491.0,65.0,499.0,57.0,507.0,49.0,515.0,41.0" stroke="black" stroke-width="2" fill="none" />
<path d="M515.0,34.5,506.5,42.5,498.0,50.0,490.0,58.0,482.0,65.5,474.5,73.5,466.0,80.5,458.5,87.5" stroke="black" stroke-width="2" fill="none" />
<path d="M453.0,86.0,460.5,85.5,468.5,84.0,476.0,83.0,484.5,82.5,492.0,81.5,500.0,81.5,508.0,81.5,516.0,82.0" stroke="black" stroke-width="2" fill="none" />
<path d="M516.5,69.5,508.5,70.0,500.5,71.0,492.5,72.0,484.0,73.0,476.0,74.0" stroke="black" stroke-width="2" fill="none" />
<path d="M467.5,63.0,475.5,63.0,484.0,63.0,492.5,63.0,500.5,63.5,509.0,63.0,517.0,63.0" stroke="black" stroke-width="2" fill="none" />
<path d="M514.0,28.0,506.5,36.0,499.0,43.5,490.5,51.5,482.5,59.0,474.0,66.5,466.5,73.5,458.0,81.0" stroke="black" stroke-width="2" fill="none" />
<path d="M451.5,80.5,459.5,73.0,467.0,65.5,474.5,58.0,483.0,50.5,491.0,43.0,499.0,35.0,507.0,27.0,515.0,19.5" stroke="black" stroke-width="2" fill="none" />
<path d="M515.0,11.5,506.5,19.0,498.0,26.5,490.0,33.5,481.5,41.0,474.0,48.0,466.0,56.0,459.0,63.5,451.0,71.5,442.5,79.0" stroke="black" stroke-width="2" fill="none" />
<path d="M437.5,76.5,445.0,76.5,453.0,76.0,461.0,75.5,469.5,75.0,477.0,74.5,485.0,74.5,493.0,75.0,501.0,75.0,509.0,74.5,517.0,74.0" stroke="black" stroke-width="2" fill="none" />
<path d="M517.0,53.5,509.0,53.5,501.0,54.0,492.5,55.0,484.0,56.0,475.5,56.0,467.5,56.0" stroke="black" stroke-width="2" fill="none" />
<path d="M460.0,49.0,468.0,49.0,476.0,48.5,484.0,48.5,492.0,48.5,499.5,48.5,507.0,48.0,514.5,47.5" stroke="black" stroke-width="2" fill="none" />
<path d="M506.5,6.0,498.5,13.5,491.0,20.5,483.5,27.5,474.5,34.5,466.0,42.0,458.0,49.5,450.5,56.5,442.5,64.0,434.5,71.5" stroke="black" stroke-width="2" fill="none" />
<path d="M443.5,72.0,451.5,63.5,459.5,56.0,467.5,48.5,475.5,41.5,483.5,34.0,491.5,26.5,500.0,19.5,508.0,12.0,515.5,4.5" stroke="black" stroke-width="2" fill="none" />
<path d="M499.5,4.5,491.5,12.0,483.5,19.5,475.5,26.5,467.0,34.5,459.0,42.0,451.0,49.5,443.0,57.0,435.5,64.0,428.0,70.5" stroke="black" stroke-width="2" fill="none" />
<path d="M429.0,63.0,436.5,55.0,444.0,47.5,451.5,40.0,459.0,33.0,466.5,25.5,474.5,18.5,483.0,12.0,491.0,5.0" stroke="black" stroke-width="2" fill="none" />
<path d="M483.5,3.5,475.5,11.0,468.0,18.0,460.0,26.0,451.5,34.0,443.5,41.5,436.0,49.0,429.0,56.5,421.5,64.0" stroke="black" stroke-width="2" fill="none" />
<path d="M419.5,70.5,427.5,70.0,436.0,69.5,444.0,68.5,452.0,67.5,459.5,66.5,467.0,65.5,475.0,65.0,482.5,64.0,490.5,63.0,498.5,62.5,506.5,62.0,514.0,62.0" stroke="black" stroke-width="2" fill="none" />
<path d="M516.5,91.0,509.0,91.5,501.0,92.5,493.0,93.0,485.0,92.5,477.0,92.5,468.5,92.5,460.0,93.0" stroke="black" stroke-width="2" fill="none" />
<path d="M452.5,101.0,460.5,100.0,468.5,99.5,477.0,99.0,485.0,99.0,493.0,98.5,500.5,98.5,507.5,98.5,515.0,98.5" stroke="black" stroke-width="2" fill="none" />
<path d="M516.0,39.5,507.5,40.0,499.0,40.0,491.5,40.0,483.5,40.5,475.5,40.5,468.0,40.5,460.0,41.0,452.5,41.0" stroke="black" stroke-width="2" fill="none" />
<path d="M444.5,34.0,452.0,33.5,460.0,33.0,467.5,32.0,475.5,31.0,484.0,30.5,491.5,30.0,499.5,30.0,507.5,29.5,515.0,29.0" stroke="black" stroke-width="2" fill="none" />
<path d="M474.0,4.0,466.0,11.5,458.0,19.5,451.0,27.0,444.0,34.5,436.5,41.5,429.0,49.0,421.0,56.5,413.5,64.0" stroke="black" stroke-width="2" fill="none" />
<path d="M411.0,56.5,419.5,49.5,427.5,42.0,435.5,34.0,443.5,26.5,451.5,18.5,459.5,10.5,467.5,2.5" stroke="black" stroke-width="2" fill="none" />
<path d="M459.0,2.5,450.5,10.0,442.5,17.5,434.0,25.0,425.5,33.0,417.5,41.0,409.5,48.5,401.5,56.5" stroke="black" stroke-width="2" fill="none" />
<path d="M404.0,62.5,412.0,62.0,420.0,61.5,428.0,61.0,435.5,60.5,443.5,60.0,451.0,59.0,459.0,57.5,467.0,56.5,475.5,55.0,483.5,54.0,491.5,54.0,500.0,54.0,508.5,54.0,516.5,54.5" stroke="black" stroke-width="2" fill="none" />
<path d="M454.0,2.5,445.5,10.5,437.0,18.0,428.0,26.0,420.0,33.5,412.0,41.0,403.5,49.0,395.0,57.5" stroke="black" stroke-width="2" fill="none" />
<path d="M389.5,55.5,397.0,55.0,405.0,53.5,412.5,52.5,420.0,51.5,427.5,50.5,435.5,50.0,444.0,49.0,452.0,48.5,460.0,48.0,468.0,47.5,476.0,47.0,483.5,46.5,491.5,46.0,499.0,45.5,506.5,45.5,515.0,45.5" stroke="black" stroke-width="2" fill="none" />
<path d="M516.0,21.0,508.0,21.0,499.5,21.0,491.5,21.0,483.0,21.0,475.0,21.5,467.0,22.0,459.5,23.0,452.0,23.5,444.0,24.0,436.0,24.5" stroke="black" stroke-width="2" fill="none" />
<path d="M419.5,18.0,428.0,18.0,436.5,17.5,444.5,17.0,452.5,16.5,460.5,16.0,468.0,14.5,476.0,14.0,483.5,13.0,491.0,13.0,499.0,12.5,507.0,12.0,515.0,11.5" stroke="black" stroke-width="2" fill="none" />
<path d="M445.0,2.0,436.5,9.5,428.5,17.5,420.5,26.0,413.0,34.0,405.0,41.5,396.5,49.5" stroke="black" stroke-width="2" fill="none" />
<path d="M387.5,47.5,395.5,39.5,404.5,32.5,413.0,25.5,421.5,18.5,429.5,11.0,437.5,3.0" stroke="black" stroke-width="2" fill="none" />
<path d="M430.0,1.0,421.5,9.0,413.5,16.5,405.5,24.0,397.0,32.0,388.5,39.5" stroke="black" stroke-width="2" fill="none" />
<path d="M379.0,41.5,387.5,34.5,395.5,27.0,404.0,19.0,411.5,11.0,419.5,3.5" stroke="black" stroke-width="2" fill="none" />
<path d="M411.0,4.0,403.0,11.5,395.0,19.0,387.0,26.5,379.5,34.0,371.5,41.0" stroke="black" stroke-width="2" fill="none" />
<path d="M371.0,46.0,379.0,45.5,387.0,45.5,395.5,45.0,404.5,45.0,413.0,44.0,421.0,43.5,429.0,42.5,437.0,41.5,445.0,40.0,453.0,39.5,460.5,39.0,468.0,39.0,476.0,38.5,483.5,38.5,491.0,38.0,499.0,37.5,507.0,37.5,514.5,37.5" stroke="black" stroke-width="2" fill="none" />
<path d="M515.0,1.5,507.0,2.0,499.5,2.0,491.0,2.5,483.0,3.0,475.0,4.0,467.5,4.5,459.5,4.5,451.5,4.5,444.0,5.0,436.5,6.0,428.5,7.0,421.0,8.0,412.5,8.5,404.5,9.5,396.5,10.0,388.5,10.5" stroke="black" stroke-width="2" fill="none" />
<path d="M385.5,4.0,377.5,11.5,369.5,18.5,362.0,25.5,355.0,33.0" stroke="black" stroke-width="2" fill="none" />
<path d="M353.5,37.5,362.0,37.0,370.5,36.0,379.0,36.0,386.5,35.5,395.5,35.0,403.5,34.5,412.0,34.5,420.0,34.5,428.5,34.0,436.5,33.5,444.5,32.5,452.5,32.0,461.0,31.0,469.0,30.0,477.0,29.0,485.0,29.0,492.5,29.0,500.5,29.0,508.5,28.5,516.5,28.5" stroke="black" stroke-width="2" fill="none" />
<path d="M516.5,19.0,508.5,19.5,500.5,20.5,492.5,21.0,484.5,21.5,477.5,22.0,469.5,22.5,462.0,23.5,454.0,24.0,446.0,24.0,438.5,24.0,430.5,24.5,422.5,25.0,413.5,26.0,405.5,26.5,397.0,27.0,388.5,27.5,380.0,28.0,371.0,28.5,363.0,28.5,355.0,28.5,347.0,29.0" stroke="black" stroke-width="2" fill="none" />
<path d="M343.5,31.0,358.5,39.0,373.0,47.0,387.0,55.5,386.0,64.5,394.0,60.5" stroke="black" stroke-width="2" fill="none" />
<path d="M389.5,67.0,397.5,73.5" stroke="black" stroke-width="2" fill="none" />
<path d="M390.0,78.0,398.0,86.5,405.0,94.5,410.0,106.0,414.5,107.5,414.5,114.0,418.0,115.0" stroke="black" stroke-width="2" fill="none" />
<path d="M413.5,110.0,405.0,103.5" stroke="black" stroke-width="2" fill="none" />
<path d="M411.0,105.5,403.0,99.5,394.5,88.5" stroke="black" stroke-width="2" fill="none" />
<path d="M393.5,88.0,399.5,96.0,404.5,104.0,411.0,112.5,417.0,110.5" stroke="black" stroke-width="2" fill="none" />
<path d="M428.5,97.5,436.5,100.5" stroke="black" stroke-width="2" fill="none" />
<path d="M465.5,131.0,457.5,142.0" stroke="black" stroke-width="2" fill="none" />
<path d="M459.0,145.5,467.0,153.5" stroke="black" stroke-width="2" fill="none" />
<path d="M466.5,168.5,458.5,176.5" stroke="black" stroke-width="2" fill="none" />
<path d="M467.0,201.0,458.5,208.0,450.5,214.0" stroke="black" stroke-width="2" fill="none" />
<path d="M461.0,212.5,468.5,212.0,476.0,212.0,484.0,211.5,491.5,211.5,499.0,211.0,507.0,210.5,515.0,210.5" stroke="black" stroke-width="2" fill="none" />
<path d="M515.5,226.0,507.0,226.5,498.5,226.5,491.0,226.5,483.5,227.0,475.5,227.5,468.0,228.0,460.0,228.5" stroke="black" stroke-width="2" fill="none" />
<path d="M459.5,221.5,467.0,221.0,475.0,220.0,483.0,219.5,491.5,219.0,499.0,219.0,507.0,218.5,515.0,218.5" stroke="black" stroke-width="2" fill="none" />
<path d="M515.0,250.0,506.5,251.0,498.5,251.5,490.0,252.0,482.0,252.0,474.5,252.0,467.0,252.5,459.0,253.0,451.0,254.0" stroke="black" stroke-width="2" fill="none" />
<path d="M442.0,245.5,450.0,245.0,457.5,244.0,465.5,244.0,473.5,243.5,481.5,243.5,489.5,242.5,498.0,241.5,506.5,240.0,515.0,239.5" stroke="black" stroke-width="2" fill="none" />
<path d="M516.5,234.0,508.5,234.0,501.0,234.5,492.5,234.5,484.5,234.5,477.0,234.5,468.5,234.5,460.0,235.0,452.0,235.0" stroke="black" stroke-width="2" fill="none" />
<path d="M454.5,239.0,446.0,241.5,436.0,248.5,431.0,249.5,423.5,251.0,425.0,243.5" stroke="black" stroke-width="2" fill="none" />
<path d="M405.0,245.0,397.5,245.0" stroke="black" stroke-width="2" fill="none" />
<path d="M384.5,245.5,376.0,245.5,368.0,245.0,360.5,245.0,352.5,245.5" stroke="black" stroke-width="2" fill="none" />
<path d="M335.5,245.0,343.5,245.0,352.0,242.0,360.0,242.0,368.5,242.5,376.5,242.5,384.5,242.5,393.0,246.5,405.0,242.5" stroke="black" stroke-width="2" fill="none" />
<path d="M411.0,260.5,409.0,268.5,410.0,276.5,412.0,280.0" stroke="black" stroke-width="2" fill="none" />
<path d="M410.5,294.0,418.5,293.5,426.5,292.5,434.0,292.0,442.0,291.5,450.0,291.5,458.0,290.5,466.5,290.0,474.5,290.0,483.0,289.5,491.5,289.0,499.0,288.5,507.0,288.5,515.0,288.0" stroke="black" stroke-width="2" fill="none" />
<path d="M516.0,280.0,508.5,280.5,500.5,281.0,492.5,281.0,484.5,281.5,476.0,282.0,467.5,282.5,460.0,283.0,452.0,283.5,444.0,283.5,436.0,283.5,428.0,284.0" stroke="black" stroke-width="2" fill="none" />
<path d="M428.5,277.0,437.5,276.5,445.5,276.0,453.5,275.5,461.0,275.0,469.0,275.0,477.5,275.0,485.5,275.0,493.5,275.0,501.5,275.5,510.0,275.0,517.5,274.0" stroke="black" stroke-width="2" fill="none" />
<path d="M515.5,264.5,508.0,265.0,500.5,265.5,492.5,265.5,484.5,265.5,476.5,265.5,469.0,266.0,460.5,267.0,452.5,267.5,444.5,268.5,436.5,269.0,429.0,270.0" stroke="black" stroke-width="2" fill="none" />
<path d="M427.5,271.5,435.5,269.5,443.5,266.5" stroke="black" stroke-width="2" fill="none" />
<path d="M413.5,278.5,412.5,270.5,411.5,262.0" stroke="black" stroke-width="2" fill="none" />
<path d="M419.0,297.0,425.5,291.0,426.5,296.5,428.5,288.5,417.0,294.0,409.0,300.0" stroke="black" stroke-width="2" fill="none" />
<path d="M412.0,302.0,420.5,301.5,429.0,301.0,437.0,300.0,445.0,299.5,452.5,299.5,461.0,298.5,468.5,298.0,476.5,298.0,484.0,297.5,491.5,297.0,499.5,296.5,508.0,295.5,516.5,295.0" stroke="black" stroke-width="2" fill="none" />
<path d="M428.5,298.5,420.5,306.0,412.0,313.5" stroke="black" stroke-width="2" fill="none" />
<path d="M412.0,309.0,419.5,309.0,428.0,308.5,436.5,308.0,444.5,307.5,453.0,307.0,461.5,307.0,470.0,306.5,478.0,306.0,486.0,306.0,493.5,305.5,501.5,305.0,509.0,304.0,516.5,303.5" stroke="black" stroke-width="2" fill="none" />
<path d="M419.5,299.5,412.0,306.5" stroke="black" stroke-width="2" fill="none" />
<path d="M396.0,319.5,404.0,319.0,411.5,318.0,419.5,317.0,428.0,316.0,435.5,314.5,443.5,313.5,451.0,313.0,459.0,312.0,467.5,311.5,475.5,311.0,483.5,311.0,492.0,311.0,500.5,310.0,509.0,309.0,517.0,308.5" stroke="black" stroke-width="2" fill="none" />
<path d="M395.0,324.5,387.0,332.0,378.5,339.5" stroke="black" stroke-width="2" fill="none" />
<path d="M370.0,339.0,377.5,331.5,385.5,324.0" stroke="black" stroke-width="2" fill="none" />
<path d="M378.5,321.0,370.5,328.5,362.5,336.5" stroke="black" stroke-width="2" fill="none" />
<path d="M354.5,339.5,362.0,331.0,369.5,323.5" stroke="black" stroke-width="2" fill="none" />
<path d="M363.0,321.5,355.0,329.0,347.5,337.0" stroke="black" stroke-width="2" fill="none" />
<path d="M338.5,339.0,346.5,331.5,354.0,323.5" stroke="black" stroke-width="2" fill="none" />
<path d="M347.5,325.0,339.5,332.5,331.5,340.0" stroke="black" stroke-width="2" fill="none" />
<path d="M323.0,339.5,331.0,332.0,339.0,324.0" stroke="black" stroke-width="2" fill="none" />
<path d="M339.0,318.5,346.5,318.5,355.0,318.0,363.5,317.0,372.5,316.0" stroke="black" stroke-width="2" fill="none" />
<path d="M396.0,298.0,388.0,298.0,379.5,299.0,371.5,299.0,363.5,300.0,355.5,300.5,347.5,301.5,339.5,302.0" stroke="black" stroke-width="2" fill="none" />
<path d="M330.0,324.5,322.5,331.5,314.5,338.5" stroke="black" stroke-width="2" fill="none" />
<path d="M306.0,340.0,313.5,333.0,321.5,325.5" stroke="black" stroke-width="2" fill="none" />
<path d="M314.5,324.5,306.0,332.0,298.5,338.5" stroke="black" stroke-width="2" fill="none" />
<path d="M291.5,338.5,299.5,331.0,308.0,324.0" stroke="black" stroke-width="2" fill="none" />
<path d="M296.5,324.0,289.0,331.5,282.0,338.5" stroke="black" stroke-width="2" fill="none" />
<path d="M275.5,339.0,283.5,331.0,292.0,323.5" stroke="black" stroke-width="2" fill="none" />
<path d="M283.0,325.0,275.0,332.5,267.5,340.0" stroke="black" stroke-width="2" fill="none" />
<path d="M260.5,337.5,269.0,330.0,277.0,322.5" stroke="black" stroke-width="2" fill="none" />
<path d="M268.5,321.0,261.0,329.0,253.0,336.5" stroke="black" stroke-width="2" fill="none" />
<path d="M244.5,337.0,252.5,330.5,260.0,323.0" stroke="black" stroke-width="2" fill="none" />
<path d="M252.5,322.5,244.0,329.5,236.0,337.5" stroke="black" stroke-width="2" fill="none" />
<path d="M227.5,338.5,236.5,331.0,245.0,323.5" stroke="black" stroke-width="2" fill="none" />
<path d="M245.0,320.5,237.5,321.0" stroke="black" stroke-width="2" fill="none" />
<path d="M244.0,314.0,236.0,321.5,227.5,329.0,219.5,336.5" stroke="black" stroke-width="2" fill="none" />
<path d="M213.0,337.5,220.5,329.5,228.0,322.0,236.0,314.0,243.5,306.5" stroke="black" stroke-width="2" fill="none" />
<path d="M246.0,301.5,237.5,309.0,229.5,316.5,221.5,324.0,213.5,331.0,205.0,338.5" stroke="black" stroke-width="2" fill="none" />
<path d="M196.0,338.0,204.5,330.5,212.5,322.5,220.5,315.0,229.0,307.0,237.0,299.0,245.0,291.0" stroke="black" stroke-width="2" fill="none" />
<path d="M243.5,282.0,235.5,289.5,228.0,297.0,219.5,305.5,210.5,313.5,202.5,321.0,194.5,329.0,187.0,336.5" stroke="black" stroke-width="2" fill="none" />
<path d="M179.5,336.0,187.5,328.0,195.5,320.0,203.0,312.0,211.0,304.0,219.0,296.5,227.0,289.0,234.5,282.0,242.5,275.0" stroke="black" stroke-width="2" fill="none" />
<path d="M221.0,282.5,213.0,289.5,205.0,296.5,196.5,303.5,189.0,310.5,180.5,318.0,172.5,326.0,164.5,333.0" stroke="black" stroke-width="2" fill="none" />
<path d="M170.5,336.0,178.5,335.5,187.0,336.0,195.0,336.0,203.5,336.0,212.0,336.0,220.0,335.5,228.0,335.0,236.0,334.0,243.5,333.5,251.5,333.0,260.0,333.0,268.5,332.5,276.5,332.0,284.5,331.5,292.5,331.0,300.0,329.5,308.0,329.0,315.5,328.0" stroke="black" stroke-width="2" fill="none" />
<path d="M306.5,316.0,299.0,317.0,291.5,317.5,284.5,318.0,277.0,318.5,269.0,319.0" stroke="black" stroke-width="2" fill="none" />
<path d="M271.5,310.5,279.0,319.5,287.0,317.5,295.0,316.0,302.5,314.0,310.0,313.0" stroke="black" stroke-width="2" fill="none" />
<path d="M292.5,300.0,285.0,301.0,277.0,302.0,269.5,302.5" stroke="black" stroke-width="2" fill="none" />
<path d="M269.5,304.0,277.0,305.0,285.0,304.5,293.0,305.0,300.5,304.0,308.5,303.5,316.5,303.5,324.5,303.5,332.5,303.5,340.5,303.5,348.5,303.5,356.5,303.5,365.0,304.0,373.0,303.0,381.0,303.5,389.0,304.0" stroke="black" stroke-width="2" fill="none" />
<path d="M402.5,323.5,408.0,316.0,409.0,308.5,409.0,301.0,418.0,293.0,428.0,284.5,427.0,276.5,439.5,268.5,446.5,261.0,444.0,252.5,442.5,244.5,459.5,236.0,457.5,228.0,455.0,219.5,453.5,211.5,463.5,204.0,468.5,196.5,464.5,188.5,459.5,180.5,462.0,172.5,471.0,164.5,468.0,156.0,459.5,148.0,458.5,139.5,463.5,131.5,461.0,123.5,451.0,115.5,451.5,107.5,455.5,99.5,457.5,91.5,443.5,83.5,428.5,75.5,413.0,67.5,397.0,60.0,382.5,61.0,375.0,55.5,367.0,49.0,359.0,43.0,351.5,38.5" stroke="black" stroke-width="2" fill="none" />
<path d="M350.5,37.0,360.5,45.0,370.5,52.5,382.0,60.5,392.0,68.5,402.0,76.5,407.0,82.5,402.0,88.0,407.0,94.0" stroke="black" stroke-width="2" fill="none" />
<path d="M397.5,85.5,389.5,78.5" stroke="black" stroke-width="2" fill="none" />
<path d="M376.5,90.0,368.5,93.5,360.5,99.5,352.5,106.0,344.0,110.5,336.0,114.5,328.0,119.0,320.5,116.0,314.5,112.0,308.0,104.5,313.0,95.5" stroke="black" stroke-width="2" fill="none" />
<path d="M321.0,109.0,313.0,111.0,302.0,106.0,294.0,100.5" stroke="black" stroke-width="2" fill="none" />
<path d="M280.5,91.5,288.5,92.5,294.5,92.5,285.5,100.5,284.0,106.5,278.5,114.5,271.0,122.5,265.0,130.5,259.0,138.0,254.0,146.0,259.5,138.0,267.5,127.0,275.5,117.0,283.5,107.5,292.5,96.0,299.0,101.0,307.0,97.0,314.5,90.0,322.5,82.5,330.5,72.5,338.5,61.5,346.5,58.0" stroke="black" stroke-width="2" fill="none" />
<path d="M345.0,58.5,338.0,66.5,331.5,74.5,324.5,82.5,332.5,73.5,340.0,62.5" stroke="black" stroke-width="2" fill="none" />
<path d="M343.5,55.5,337.0,63.5,331.0,71.5,325.5,80.0,317.5,88.0,308.5,96.0,310.0,102.0,315.0,115.0,318.0,123.0,322.0,131.0" stroke="black" stroke-width="2" fill="none" />
<path d="M320.0,128.5,314.0,118.5" stroke="black" stroke-width="2" fill="none" />
<path d="M341.5,145.0,350.0,143.0,357.5,141.0,366.0,138.5,374.5,136.5,383.0,133.5,391.0,131.5,391.0,135.5,379.5,137.5" stroke="black" stroke-width="2" fill="none" />
<path d="M391.0,137.0,383.0,136.0,374.5,138.0,366.5,141.0,358.5,143.0,350.0,145.0,342.0,147.0" stroke="black" stroke-width="2" fill="none" />
<path d="M348.0,162.5,356.0,161.5,364.0,160.5,372.0,159.0,380.5,158.0,389.0,157.0,397.0,155.5,396.0,162.5" stroke="black" stroke-width="2" fill="none" />
<path d="M425.0,158.5,433.0,165.0,440.5,177.0,448.5,187.0" stroke="black" stroke-width="2" fill="none" />
<path d="M442.5,182.0,434.0,172.0,426.0,160.0" stroke="black" stroke-width="2" fill="none" />
<path d="M427.0,159.0,433.0,166.5,438.0,174.5,444.0,182.5,451.0,191.0" stroke="black" stroke-width="2" fill="none" />
<path d="M435.5,210.0,434.5,218.0,438.5,225.5" stroke="black" stroke-width="2" fill="none" />
<path d="M439.0,227.5,437.0,219.0,434.0,211.0" stroke="black" stroke-width="2" fill="none" />
<path d="M446.5,198.0,444.0,197.5,446.0,189.5,439.5,181.0,434.0,173.0,429.0,165.0,426.0,157.0" stroke="black" stroke-width="2" fill="none" />
<path d="M434.5,147.0,440.5,155.0,447.0,163.0" stroke="black" stroke-width="2" fill="none" />
<path d="M444.5,156.5,437.0,147.5" stroke="black" stroke-width="2" fill="none" />
<path d="M438.5,147.5,445.0,155.5" stroke="black" stroke-width="2" fill="none" />
<path d="M443.0,150.5,435.5,144.5" stroke="black" stroke-width="2" fill="none" />
<path d="M390.0,158.0,382.0,160.5,374.0,161.5,366.0,162.5,358.0,163.5,349.5,164.5" stroke="black" stroke-width="2" fill="none" />
<path d="M382.0,115.5,366.5,123.5,368.0,123.0,376.0,119.0,384.5,115.5" stroke="black" stroke-width="2" fill="none" />
<path d="M374.5,94.0,363.5,102.0,353.0,109.5,343.0,115.0,351.0,110.0,359.0,104.5,367.0,98.5,374.5,92.5" stroke="black" stroke-width="2" fill="none" />
<path d="M376.5,91.5,367.5,94.5,357.0,102.5,345.5,110.5,331.0,118.5" stroke="black" stroke-width="2" fill="none" />
<path d="M359.0,75.0,351.0,83.0,343.5,91.0,345.0,90.0,352.5,81.5,360.5,75.0,372.0,71.0" stroke="black" stroke-width="2" fill="none" />
<path d="M370.0,69.0,362.0,73.0,354.0,76.0,346.0,83.5,338.0,91.5,330.0,98.0,322.0,104.0,314.0,109.0,311.0,95.5,303.5,103.0,294.5,113.0,286.5,120.0,281.5,125.0,289.5,117.0,298.0,109.0,298.0,104.0,282.5,94.0,275.0,90.0,275.0,90.0" stroke="black" stroke-width="2" fill="none" />
<path d="M259.5,71.0,267.5,63.5,275.0,56.5,283.0,49.5,291.0,42.5,298.5,35.5,306.5,28.0" stroke="black" stroke-width="2" fill="none" />
<path d="M322.5,19.0,331.0,12.0,339.0,4.5" stroke="black" stroke-width="2" fill="none" />
<path d="M346.5,4.5,339.0,12.0,331.5,20.0" stroke="black" stroke-width="2" fill="none" />
<path d="M331.0,23.5,339.0,22.5,347.0,22.0,355.5,21.0,363.5,20.0,371.5,19.5,380.0,19.0,388.5,18.0,396.5,17.0,404.5,16.5,412.0,16.0,420.5,15.5,429.0,15.5,437.0,15.5,445.0,16.0,453.0,15.5,461.0,14.5,468.5,14.0,476.5,13.5,484.5,13.5,492.5,13.0,500.5,12.5,508.5,11.5,516.5,10.5" stroke="black" stroke-width="2" fill="none" />
<path d="M401.5,5.0,393.5,12.5,386.0,19.5,378.5,27.0,370.5,34.0" stroke="black" stroke-width="2" fill="none" />
<path d="M363.0,34.0,370.5,26.5,378.5,19.5,386.5,13.0,394.5,5.5" stroke="black" stroke-width="2" fill="none" />
<path d="M378.0,2.5,369.5,10.0,361.0,17.5,353.0,25.5" stroke="black" stroke-width="2" fill="none" />
<path d="M346.0,25.0,354.5,17.5,362.0,9.5,370.5,2.0" stroke="black" stroke-width="2" fill="none" />
<path d="M363.5,3.0,355.5,11.0,347.5,18.5,339.0,26.0" stroke="black" stroke-width="2" fill="none" />
<path d="M339.0,20.5,347.5,13.5,355.5,6.0" stroke="black" stroke-width="2" fill="none" />
<path d="M330.5,4.0,322.5,11.5" stroke="black" stroke-width="2" fill="none" />
<path d="M320.5,15.5,332.5,23.5,339.5,31.0,333.5,39.0,321.0,46.0,317.0,54.0,311.5,62.0,306.0,69.5,303.5,77.5,311.5,59.5,319.5,45.5,328.5,41.5,337.0,32.0" stroke="black" stroke-width="2" fill="none" />
<path d="M324.5,45.0,320.5,53.0,315.5,61.0,310.5,69.5,312.5,67.0,321.0,53.0" stroke="black" stroke-width="2" fill="none" />
<path d="M324.5,53.5,316.0,54.0" stroke="black" stroke-width="2" fill="none" />
<path d="M292.5,51.0,284.5,58.5,276.0,65.5,268.0,73.5" stroke="black" stroke-width="2" fill="none" />
<path d="M251.5,70.0,259.0,63.0,266.5,56.0,274.5,49.5,282.5,42.0,290.5,35.0,298.5,27.5,306.0,20.0,313.5,13.0,321.5,5.5" stroke="black" stroke-width="2" fill="none" />
<path d="M316.0,4.0,308.0,11.5,299.5,19.0,291.0,26.0,283.0,33.0,275.0,40.5,267.0,47.5,258.5,54.5,250.5,62.0,243.0,70.0" stroke="black" stroke-width="2" fill="none" />
<path d="M237.0,71.0,244.5,63.0,252.0,55.0,259.5,47.0,266.5,39.5,274.5,32.0,281.5,24.5,289.5,16.5,297.5,9.0,305.5,2.0" stroke="black" stroke-width="2" fill="none" />
<path d="M297.5,4.0,289.5,11.5,281.5,19.0,273.5,26.0,266.0,33.0,258.5,40.0,251.5,47.5,244.0,54.5,236.5,61.5,229.0,69.0" stroke="black" stroke-width="2" fill="none" />
<path d="M219.0,71.5,227.5,64.0,235.5,56.5,243.0,48.5,251.0,41.0,259.0,34.0,267.5,26.5,275.5,19.5,284.0,12.0,292.0,4.5" stroke="black" stroke-width="2" fill="none" />
<path d="M283.5,3.0,275.5,11.0,267.5,19.0,259.5,26.5,251.0,34.0,242.5,42.0,235.0,49.5,226.5,57.0,218.5,64.5,211.0,72.0" stroke="black" stroke-width="2" fill="none" />
<path d="M202.0,72.0,210.0,64.0,218.0,56.5,226.0,49.0,234.5,41.0,243.0,33.0,252.0,24.5,260.5,16.5,269.0,9.0,276.5,2.0" stroke="black" stroke-width="2" fill="none" />
<path d="M268.5,3.0,261.0,10.0,253.0,17.5,244.5,25.0,236.5,32.5,228.0,39.5,219.0,47.0,211.0,54.0,202.5,61.0,194.5,68.5" stroke="black" stroke-width="2" fill="none" />
<path d="M186.0,71.0,194.0,63.0,202.0,55.0,210.5,47.0,218.5,39.5,226.5,32.0,234.5,24.0,242.5,16.0,251.0,9.0,259.5,1.0" stroke="black" stroke-width="2" fill="none" />
<path d="M252.0,4.0,244.0,11.0,235.5,18.0,227.5,25.0,219.5,32.5,211.5,40.0,203.5,47.0,195.0,54.5,187.0,62.0,179.0,69.0" stroke="black" stroke-width="2" fill="none" />
<path d="M170.5,71.5,178.5,64.5,186.5,57.0,194.0,49.0,201.5,41.5,209.5,34.0,217.5,26.0,225.5,18.0,233.5,10.0,241.0,2.5" stroke="black" stroke-width="2" fill="none" />
<path d="M233.0,2.5,225.0,10.0,216.5,17.5,209.0,24.5,201.5,32.0,194.5,39.5,187.0,47.5,179.0,55.5,171.5,63.5,163.5,71.0" stroke="black" stroke-width="2" fill="none" />
<path d="M157.0,70.0,165.0,62.5,172.5,54.5,179.0,46.5,186.5,39.0,194.0,31.5,202.0,24.5,210.0,17.0,218.0,9.5,226.0,2.0" stroke="black" stroke-width="2" fill="none" />
<path d="M219.5,2.5,211.5,10.0,204.0,17.0,196.5,24.5,188.5,32.0,180.5,39.5,172.5,47.0,164.5,55.0,156.5,63.0,148.5,70.5" stroke="black" stroke-width="2" fill="none" />
<path d="M140.0,70.0,148.0,63.0,156.0,55.5,164.0,47.0,172.5,39.5,180.0,32.5,187.5,25.0,195.0,18.0,203.0,10.0,211.0,2.0" stroke="black" stroke-width="2" fill="none" />
<path d="M202.5,5.5,195.0,12.5,187.0,19.5,179.0,27.0,171.0,34.5,163.5,41.5,155.0,48.5,147.0,55.5,139.5,63.0,132.5,71.0,125.0,78.5" stroke="black" stroke-width="2" fill="none" />
<path d="M108.0,85.0,115.5,77.5,124.0,70.0,132.0,63.0,140.0,55.5,148.0,48.0,156.0,41.0,164.0,33.5,172.0,26.0,180.5,18.5,189.0,11.0,196.5,3.5" stroke="black" stroke-width="2" fill="none" />
<path d="M189.0,4.5,181.0,12.0,173.0,19.5,165.0,27.0,157.0,34.0,149.0,41.5,141.0,49.5,133.0,57.5,125.0,65.5,117.5,73.0,110.0,80.5,101.5,88.0" stroke="black" stroke-width="2" fill="none" />
<path d="M75.0,99.5,83.0,92.0,90.5,85.0,98.5,78.0,106.5,70.0,115.0,61.5,123.0,54.0,130.5,47.0,139.0,40.0,147.0,32.5,156.0,24.5,164.0,17.0,171.5,9.5,179.5,2.0" stroke="black" stroke-width="2" fill="none" />
<path d="M171.0,3.0,163.0,11.0,155.0,19.5,147.5,27.0,140.0,34.5,132.5,42.0,124.5,49.5,116.5,57.0,108.0,64.0,100.0,71.0,92.0,78.5,84.0,86.5,76.5,94.5,68.0,102.0,59.5,110.0,51.0,117.5,43.0,124.5,34.5,132.5,26.0,140.0,17.5,148.0,9.5,155.5,1.5,163.0" stroke="black" stroke-width="2" fill="none" />
<path d="M4.0,167.5,12.0,166.0,19.5,165.5,27.0,164.5,35.0,163.0,42.5,162.5,51.0,162.0,59.0,161.5,67.0,161.0,74.5,160.0" stroke="black" stroke-width="2" fill="none" />
<path d="M73.0,169.5,65.0,170.0,57.5,171.0,50.5,171.5,43.0,172.0,35.5,172.0,28.0,172.0,20.5,172.5,13.0,173.0,5.5,173.0" stroke="black" stroke-width="2" fill="none" />
<path d="M3.0,174.5,10.5,167.0,19.0,160.5,27.0,153.5,35.5,146.5,43.5,139.5,51.5,133.0" stroke="black" stroke-width="2" fill="none" />
<path d="M59.0,138.0,67.0,130.0,74.5,122.5,82.5,115.0" stroke="black" stroke-width="2" fill="none" />
<path d="M89.5,115.5,82.0,123.5" stroke="black" stroke-width="2" fill="none" />
<path d="M75.5,128.0,68.0,128.0,60.0,129.0,52.0,130.0,44.0,131.0,35.5,131.5,27.0,131.0,18.5,131.0,10.0,132.0,2.0,133.0" stroke="black" stroke-width="2" fill="none" />
<path d="M4.0,139.5,12.0,131.5,20.5,124.0,28.5,116.0,36.0,108.0,44.0,100.5,52.0,93.0,60.5,85.0,68.5,77.5,76.5,70.5,84.5,63.5,92.0,56.5,99.0,49.0,106.5,42.0,115.0,34.0,123.0,26.5,131.0,18.5,139.0,11.0,147.5,3.5" stroke="black" stroke-width="2" fill="none" />
<path d="M140.0,3.5,131.5,10.5,123.5,17.5,115.0,25.0,107.0,32.0,99.0,39.5,91.0,46.5,83.5,54.0,75.5,62.0,66.5,69.5,58.5,77.0,50.5,84.5,43.0,91.5,35.0,99.5,27.0,107.5,19.0,116.0,11.5,123.5,4.0,130.5" stroke="black" stroke-width="2" fill="none" />
<path d="M1.5,125.0,10.0,124.5,18.5,124.0,26.5,123.5,35.0,123.0,43.0,123.0,51.5,122.0,60.0,121.5,68.0,121.5,76.0,121.5" stroke="black" stroke-width="2" fill="none" />
<path d="M73.5,124.5,81.5,124.5,89.5,125.0,98.0,125.0,106.0,125.5,114.5,131.0" stroke="black" stroke-width="2" fill="none" />
<path d="M115.5,131.5,123.5,124.0" stroke="black" stroke-width="2" fill="none" />
<path d="M120.5,126.0,126.5,133.5,128.0,141.5,128.0,149.5,128.0,157.5,128.0,165.0,128.0,173.5,128.5,181.5,128.5,189.5,128.0,198.0,129.0,205.5,123.0,219.0,110.5,227.0,106.5,233.0,106.5,233.5,112.5,226.5" stroke="black" stroke-width="2" fill="none" />
<path d="M108.0,221.0,116.5,221.0,124.5,220.0" stroke="black" stroke-width="2" fill="none" />
<path d="M120.5,218.5,107.0,226.5,94.0,229.5,88.5,237.5,96.5,237.5,104.5,237.5,112.5,231.5,121.0,224.0,129.5,217.0" stroke="black" stroke-width="2" fill="none" />
<path d="M123.5,211.0,131.5,203.0" stroke="black" stroke-width="2" fill="none" />
<path d="M137.5,196.5,145.5,188.5" stroke="black" stroke-width="2" fill="none" />
<path d="M147.0,194.0,155.0,187.0" stroke="black" stroke-width="2" fill="none" />
<path d="M171.5,181.5,179.0,181.0,186.5,180.5" stroke="black" stroke-width="2" fill="none" />
<path d="M185.0,183.5,193.0,183.5,206.5,179.5" stroke="black" stroke-width="2" fill="none" />
<path d="M208.0,182.0,206.5,190.5,204.5,198.5,204.5,206.5,213.5,214.5,214.0,222.5" stroke="black" stroke-width="2" fill="none" />
<path d="M218.5,230.0,226.5,229.0,234.5,228.5,243.0,227.5,251.0,227.0" stroke="black" stroke-width="2" fill="none" />
<path d="M252.0,232.0,244.0,233.0,236.0,233.5,228.0,234.5,220.0,235.5,212.0,235.5,203.5,236.0,194.5,236.5,186.0,237.0,178.0,237.0,169.5,238.0" stroke="black" stroke-width="2" fill="none" />
<path d="M170.0,232.5,161.5,230.0,150.0,219.0,137.5,215.0,129.5,226.0,121.5,235.0,114.5,243.0,117.5,238.0,126.0,233.0,133.5,225.5,140.0,217.5,140.5,217.0,132.5,228.0,125.0,236.0" stroke="black" stroke-width="2" fill="none" />
<path d="M148.5,237.5,156.0,237.5" stroke="black" stroke-width="2" fill="none" />
<path d="M162.0,229.5,163.0,231.5,166.5,235.0,174.5,237.0" stroke="black" stroke-width="2" fill="none" />
<path d="M179.5,228.0,187.0,228.0,195.0,227.5,203.0,227.5,211.0,227.0" stroke="black" stroke-width="2" fill="none" />
<path d="M218.5,223.0,218.0,215.0,208.0,207.0,213.0,199.0,209.0,191.0,210.0,183.0,218.0,175.0,223.0,168.0,223.0,159.5,223.0,151.0,220.0,143.0,223.0,135.0,223.0,127.5,216.0,127.5" stroke="black" stroke-width="2" fill="none" />
<path d="M217.0,129.5,214.5,137.5,222.5,138.0" stroke="black" stroke-width="2" fill="none" />
<path d="M228.0,137.0,236.5,130.0" stroke="black" stroke-width="2" fill="none" />
<path d="M234.5,122.0,226.5,129.5" stroke="black" stroke-width="2" fill="none" />
<path d="M225.5,132.0,233.5,131.5,241.5,131.0,249.5,130.5,257.5,130.0" stroke="black" stroke-width="2" fill="none" />
<path d="M236.5,138.5,228.5,146.0" stroke="black" stroke-width="2" fill="none" />
<path d="M227.5,148.5,236.0,148.0,244.0,147.5,252.0,147.5" stroke="black" stroke-width="2" fill="none" />
<path d="M237.0,149.0,228.5,157.0" stroke="black" stroke-width="2" fill="none" />
<path d="M229.0,164.5,237.0,157.0" stroke="black" stroke-width="2" fill="none" />
<path d="M240.0,158.5,244.5,150.5,240.5,158.5,247.5,170.0,247.5,178.5,247.5,186.5,247.0,194.5,247.0,202.0,247.0,210.0,247.0,218.0,246.5,226.0,243.5,234.0,244.0,242.0,244.0,250.0,254.0,244.5,262.0,244.5,275.0,244.5,282.5,244.5,290.5,244.0,298.5,244.0,306.0,244.0,314.5,244.0,323.0,243.5" stroke="black" stroke-width="2" fill="none" />
<path d="M251.0,254.0,243.5,254.5,235.5,254.5,227.5,254.5,220.0,255.0,212.5,256.0,204.5,257.0,197.0,258.0,188.5,258.5,180.5,259.5,172.5,260.0,164.5,260.5,156.5,260.5,148.0,261.0,139.5,262.0,131.5,263.0,123.0,264.0,115.0,264.5,107.0,264.5,98.5,264.5,90.0,265.0,82.0,265.0,74.0,266.0,66.5,266.5,59.0,267.0,50.5,267.0,42.5,267.5,34.5,267.5,26.0,267.5,17.5,267.5,9.5,267.5,1.5,268.0" stroke="black" stroke-width="2" fill="none" />
<path d="M4.0,266.5,12.5,259.0,21.0,251.0,29.0,243.0,36.5,235.0,45.0,227.0" stroke="black" stroke-width="2" fill="none" />
<path d="M44.0,221.5,36.0,229.0,27.5,236.0,19.5,243.0,12.0,251.0,4.0,258.0" stroke="black" stroke-width="2" fill="none" />
<path d="M5.5,262.5,13.5,262.0,21.5,261.0,29.0,260.0,36.5,259.5,44.5,258.5,52.5,258.5,60.5,258.0,68.5,257.5,77.0,257.0,85.5,257.0,93.5,256.5,100.5,256.0,108.0,255.5,115.5,254.5,122.5,254.5,130.0,254.0,138.0,253.5,146.0,253.0,153.5,252.5,161.5,251.5,170.0,251.0,178.5,250.0,187.0,250.0,194.5,249.5,203.5,249.0,211.5,248.5,220.0,248.5,228.0,248.5,236.5,248.0,244.5,247.5,252.5,246.5" stroke="black" stroke-width="2" fill="none" />
<path d="M250.0,247.0,258.0,248.0,271.5,247.5,279.5,247.5,287.5,247.5,296.0,246.5,304.0,246.0,312.0,246.0,320.0,246.0,328.0,245.0" stroke="black" stroke-width="2" fill="none" />
<path d="M253.5,279.0,245.5,279.5,238.0,280.0,230.0,280.0,222.0,280.5,213.5,281.0,205.0,281.0,196.5,281.5,188.5,282.0,180.0,282.5,171.5,283.0,164.0,283.0,156.0,284.0,148.0,284.5,140.0,285.5,132.0,286.5,124.0,286.5,115.5,287.0,106.5,287.5,98.0,288.0,90.0,288.0,81.5,289.0,74.0,289.5,67.0,290.0,59.5,290.5,51.5,291.5,43.5,292.0,36.5,293.0,29.0,294.0,21.0,294.5,13.5,295.5,5.5,295.5" stroke="black" stroke-width="2" fill="none" />
<path d="M3.0,296.0,11.0,288.0,19.0,280.5,27.0,272.5,35.5,265.0,44.0,257.0,52.0,249.0,60.0,241.0" stroke="black" stroke-width="2" fill="none" />
<path d="M59.5,235.0,67.5,227.5,76.0,220.0" stroke="black" stroke-width="2" fill="none" />
<path d="M76.5,214.5,84.5,216.5,85.0,212.5" stroke="black" stroke-width="2" fill="none" />
<path d="M77.5,212.5,69.0,219.5" stroke="black" stroke-width="2" fill="none" />
<path d="M71.5,216.0,75.5,210.0,84.0,208.5,91.5,205.5,99.5,206.5,102.0,208.5,111.0,213.5,119.0,211.5" stroke="black" stroke-width="2" fill="none" />
<path d="M116.5,221.5,108.5,222.5,100.5,223.0,92.5,224.0,84.0,224.0,76.0,224.5,68.0,225.0,60.0,225.5,52.0,226.5,44.0,227.0,36.0,228.0,28.0,228.5,20.0,229.5,12.0,230.0,4.0,231.0" stroke="black" stroke-width="2" fill="none" />
<path d="M3.0,234.5,11.0,227.5,19.0,220.5,26.5,213.0,34.5,206.0" stroke="black" stroke-width="2" fill="none" />
<path d="M36.0,212.5,28.0,219.5,20.0,227.0,12.0,234.0,4.0,241.0" stroke="black" stroke-width="2" fill="none" />
<path d="M4.5,238.0,12.5,237.5,20.5,237.5,28.0,236.5,36.0,235.5,43.5,234.5,51.5,234.0,59.5,233.5,67.0,233.0,75.5,232.5" stroke="black" stroke-width="2" fill="none" />
<path d="M77.5,230.0,85.5,231.0" stroke="black" stroke-width="2" fill="none" />
<path d="M75.5,226.0,67.5,233.5" stroke="black" stroke-width="2" fill="none" />
<path d="M72.5,230.0,73.5,226.5,81.5,223.5,87.5,225.5" stroke="black" stroke-width="2" fill="none" />
<path d="M102.5,223.5,106.5,220.5" stroke="black" stroke-width="2" fill="none" />
<path d="M107.0,206.0,115.5,205.5,123.0,204.5,131.5,203.5,139.5,202.0" stroke="black" stroke-width="2" fill="none" />
<path d="M142.0,197.0,133.5,197.5,125.5,198.0,117.5,198.5" stroke="black" stroke-width="2" fill="none" />
<path d="M119.0,199.5,127.0,203.0,135.0,198.0,143.0,194.5,150.5,190.5" stroke="black" stroke-width="2" fill="none" />
<path d="M132.0,186.0,124.0,193.5" stroke="black" stroke-width="2" fill="none" />
<path d="M116.5,191.0,125.0,190.0,132.5,189.0,140.5,188.5,148.5,188.0,156.5,188.0,165.0,187.0" stroke="black" stroke-width="2" fill="none" />
<path d="M155.0,181.0,147.0,181.5,139.0,181.5,130.5,181.5,122.0,182.0,114.0,182.0" stroke="black" stroke-width="2" fill="none" />
<path d="M116.5,174.5,124.5,173.5,132.5,173.5,140.0,173.0" stroke="black" stroke-width="2" fill="none" />
<path d="M139.5,165.0,148.0,165.0" stroke="black" stroke-width="2" fill="none" />
<path d="M146.5,153.5,154.5,145.5,162.5,137.5" stroke="black" stroke-width="2" fill="none" />
<path d="M157.0,134.5,154.5,143.0,148.5,151.0,144.5,159.5" stroke="black" stroke-width="2" fill="none" />
<path d="M140.5,149.5,141.0,156.5,133.0,159.5" stroke="black" stroke-width="2" fill="none" />
<path d="M131.5,156.0,123.5,163.0" stroke="black" stroke-width="2" fill="none" />
<path d="M117.5,158.0,125.5,157.5,132.5,157.0,140.0,156.5,147.5,155.5,154.5,155.5,162.0,155.0,170.0,154.5,178.0,154.0,185.5,153.5,193.5,152.5,202.0,152.0,210.5,151.0,219.0,151.0,226.5,150.5,235.5,150.0,243.5,149.5" stroke="black" stroke-width="2" fill="none" />
<path d="M252.5,139.0,245.0,140.0,237.0,140.5,228.5,141.0,220.5,141.5,212.0,142.0" stroke="black" stroke-width="2" fill="none" />
<path d="M219.0,143.5,211.0,143.5,203.0,143.5,195.0,144.0,186.5,144.5,178.5,145.0,170.5,146.0,162.5,146.5,154.0,147.0,146.5,148.0,139.5,148.5,132.0,148.5,124.5,148.5,117.0,149.0" stroke="black" stroke-width="2" fill="none" />
<path d="M119.5,147.0,122.5,142.0,119.5,150.0,120.5,158.0" stroke="black" stroke-width="2" fill="none" />
<path d="M123.5,153.5,131.5,145.5" stroke="black" stroke-width="2" fill="none" />
<path d="M124.0,145.5,132.5,138.0" stroke="black" stroke-width="2" fill="none" />
<path d="M137.0,133.5,134.5,141.5,132.5,150.0,137.0,152.0,144.0,155.5,139.5,166.5,144.0,157.0,153.0,166.5,162.0,165.5,165.5,153.5" stroke="black" stroke-width="2" fill="none" />
<path d="M167.5,148.0,170.5,156.0,173.5,163.5" stroke="black" stroke-width="2" fill="none" />
<path d="M166.5,160.0,159.5,168.0,165.5,163.5" stroke="black" stroke-width="2" fill="none" />
<path d="M168.0,173.0,176.0,172.0,183.5,172.0" stroke="black" stroke-width="2" fill="none" />
<path d="M179.5,173.5,171.0,174.0" stroke="black" stroke-width="2" fill="none" />
<path d="M172.5,174.0,176.0,182.0,171.5,195.0,163.5,203.0,174.5,198.0" stroke="black" stroke-width="2" fill="none" />
<path d="M172.5,214.0,176.5,215.5,178.5,223.5,187.0,234.0,178.0,242.5,178.5,241.5,186.5,235.5,192.5,234.5,200.5,236.5,208.0,237.5,216.0,234.5" stroke="black" stroke-width="2" fill="none" />
<path d="M216.5,223.5,219.0,220.5,216.5,212.5,216.5,205.0,218.0,197.0,217.0,186.0,220.5,178.5,210.5,183.5" stroke="black" stroke-width="2" fill="none" />
<path d="M213.0,184.0,220.5,183.5,227.5,182.5,235.5,182.0,243.5,181.0,251.5,180.0" stroke="black" stroke-width="2" fill="none" />
<path d="M252.0,187.5,243.5,188.0,235.5,188.5,227.0,189.5,218.5,190.0" stroke="black" stroke-width="2" fill="none" />
<path d="M225.5,187.5,233.5,180.5" stroke="black" stroke-width="2" fill="none" />
<path d="M227.0,181.0,235.5,173.5" stroke="black" stroke-width="2" fill="none" />
<path d="M228.5,171.5,236.5,164.0" stroke="black" stroke-width="2" fill="none" />
<path d="M244.0,164.0,246.0,157.0,253.5,140.5,261.5,123.0,269.0,107.0,277.5,91.5,285.5,75.5,293.5,59.5,301.5,42.0,310.0,26.0,317.5,14.0,325.5,18.0,333.5,23.0,341.0,28.5,349.0,32.5,357.0,37.5,365.0,42.0,373.0,47.5,381.5,51.5,389.5,56.0,397.5,60.0,405.5,64.0,413.5,68.0,421.5,73.0,429.5,77.0,437.5,80.5,445.5,84.5,453.5,89.5" stroke="black" stroke-width="2" fill="none" />
<path d="M374.0,65.0,367.0,72.5,353.0,76.5,345.0,84.5,337.5,93.0,326.5,101.0,321.5,108.5,323.5,121.0" stroke="black" stroke-width="2" fill="none" />
<path d="M276.5,74.5,284.5,67.0" stroke="black" stroke-width="2" fill="none" />
<path d="M260.5,123.5,252.5,124.0,245.0,124.5,237.0,124.5,229.0,125.0,221.5,125.0,213.5,125.0" stroke="black" stroke-width="2" fill="none" />
<path d="M209.5,128.5,201.5,128.5" stroke="black" stroke-width="2" fill="none" />
<path d="M199.5,124.0,207.5,124.0,217.5,126.5,211.0,134.5,211.0,142.5,211.5,150.5,203.5,157.0,212.0,169.0,206.0,177.5,202.0,176.5" stroke="black" stroke-width="2" fill="none" />
<path d="M219.0,174.5,227.5,174.0,236.0,173.0,244.0,172.0,252.5,171.0" stroke="black" stroke-width="2" fill="none" />
<path d="M251.5,156.5,243.5,156.5,235.5,157.0,227.0,157.5,219.5,157.5,212.0,158.5,204.5,159.0,197.0,160.0,189.0,161.0,181.5,161.5,173.5,162.0,165.0,162.0,157.0,162.0,148.5,162.0,140.5,162.0,132.0,163.0,123.5,164.0,115.0,165.0,107.5,165.5,99.5,166.5" stroke="black" stroke-width="2" fill="none" />
<path d="M101.0,172.5,101.0,176.5,95.0,179.5,95.0,187.0" stroke="black" stroke-width="2" fill="none" />
<path d="M98.0,190.0,90.0,190.5" stroke="black" stroke-width="2" fill="none" />
<path d="M90.5,183.0,98.5,182.5" stroke="black" stroke-width="2" fill="none" />
<path d="M98.5,180.0,106.5,174.0,116.0,168.5,116.0,176.5,116.0,184.5,115.5,192.5,116.0,200.0,115.5,208.0,113.5,210.0" stroke="black" stroke-width="2" fill="none" />
<path d="M98.5,206.5,90.5,207.0" stroke="black" stroke-width="2" fill="none" />
<path d="M99.0,215.5,91.5,216.5,83.0,217.0,75.0,217.5,67.5,217.5,60.0,218.0,53.0,219.0,45.5,220.0,37.5,221.0,29.5,221.5,21.0,222.0,13.0,223.0,5.0,223.0" stroke="black" stroke-width="2" fill="none" />
<path d="M3.0,227.0,11.0,219.5,19.0,212.0,26.5,204.5,34.0,197.5" stroke="black" stroke-width="2" fill="none" />
<path d="M36.5,188.5,28.5,195.5,21.0,203.0,12.5,210.5,4.0,218.0" stroke="black" stroke-width="2" fill="none" />
<path d="M5.5,215.5,13.5,214.5,21.5,214.0,29.5,213.0,37.0,212.0,44.5,211.5,52.5,210.0,60.0,209.5,68.0,208.5,75.5,207.5,84.0,207.0,92.0,207.0,100.0,206.5,108.0,206.5,117.0,206.5,125.5,206.5,133.5,206.5" stroke="black" stroke-width="2" fill="none" />
<path d="M137.0,212.5,133.0,220.5,126.0,228.5,121.0,237.0,120.5,243.0,128.5,243.5,136.5,243.5,144.5,243.5,154.5,243.5,161.0,243.5,169.0,243.5,177.0,236.5,185.5,231.0,193.5,229.0,201.5,227.5" stroke="black" stroke-width="2" fill="none" />
<path d="M196.5,234.5,194.0,242.5" stroke="black" stroke-width="2" fill="none" />
<path d="M191.0,241.0,193.0,234.0" stroke="black" stroke-width="2" fill="none" />
<path d="M190.5,229.5,179.5,237.5,181.0,244.5,191.0,243.0,199.5,242.0,201.0,244.0,209.0,243.5" stroke="black" stroke-width="2" fill="none" />
<path d="M213.0,215.5,204.5,212.5" stroke="black" stroke-width="2" fill="none" />
<path d="M201.5,210.0,209.0,211.0,210.0,216.5,213.0,224.5,215.0,232.5" stroke="black" stroke-width="2" fill="none" />
<path d="M215.5,201.5,223.5,197.0" stroke="black" stroke-width="2" fill="none" />
<path d="M213.0,161.0,221.0,153.5" stroke="black" stroke-width="2" fill="none" />
<path d="M205.0,148.0,206.5,144.5,202.0,150.5,204.0,155.5" stroke="black" stroke-width="2" fill="none" />
<path d="M202.5,137.5,195.0,137.5,186.5,138.0,178.5,138.5,170.5,139.0,163.0,139.5,155.5,140.0,147.0,140.5,138.0,141.0,129.5,141.0,121.5,141.0,113.0,141.5" stroke="black" stroke-width="2" fill="none" />
<path d="M115.5,133.0,123.5,132.5,131.5,132.0,139.0,131.5,147.0,131.0,155.0,130.5,163.5,130.0,171.5,130.0,180.0,130.0,188.0,129.5,195.5,129.0" stroke="black" stroke-width="2" fill="none" />
<path d="M194.0,126.5,198.0,128.5,199.0,137.0,200.5,145.0,197.5,153.0,194.5,157.0,202.5,161.0,196.5,162.0,204.5,166.0,202.5,175.5,194.5,186.5,203.0,178.5,211.0,173.5,220.5,172.5,224.5,174.5,224.5,182.5,223.5,190.5,225.0,204.0,224.5,212.0,224.5,220.5,223.5,228.0,216.5,230.5,214.5,239.5,217.5,240.0,222.5,238.0" stroke="black" stroke-width="2" fill="none" />
<path d="M210.0,283.0,202.5,290.5,195.5,298.5,187.5,305.0,179.0,311.5,171.0,319.0,163.0,326.5,155.0,334.0" stroke="black" stroke-width="2" fill="none" />
<path d="M172.5,334.0,180.0,326.0,187.5,319.0,195.5,311.5,203.5,304.5,212.0,297.5,220.0,290.0" stroke="black" stroke-width="2" fill="none" />
<path d="M204.0,285.0,195.5,292.0,187.5,299.5,179.5,307.0,171.5,314.0,163.0,321.5,155.5,328.5,148.0,336.0" stroke="black" stroke-width="2" fill="none" />
<path d="M139.0,334.0,146.5,326.5,154.5,319.5,163.0,312.5,171.5,305.0,179.5,297.5,187.0,290.5,195.0,283.5" stroke="black" stroke-width="2" fill="none" />
<path d="M179.0,292.5,171.5,300.0,164.0,307.0,156.5,314.0,148.5,321.0,140.5,328.0,132.5,335.5" stroke="black" stroke-width="2" fill="none" />
<path d="M121.5,335.5,130.0,328.0,138.5,320.0,147.5,312.5,156.0,305.5,165.0,297.5,172.5,290.0" stroke="black" stroke-width="2" fill="none" />
<path d="M162.5,291.0,155.0,299.0,147.5,307.0,140.0,314.5,132.5,322.5,124.5,330.0,116.5,337.5" stroke="black" stroke-width="2" fill="none" />
<path d="M107.0,336.0,115.5,328.5,123.5,320.5,131.5,313.0,139.0,306.0,146.5,298.5,154.5,291.5,162.5,284.0" stroke="black" stroke-width="2" fill="none" />
<path d="M156.0,282.0,148.0,289.5,139.5,297.0,131.5,304.5,123.5,312.0,116.0,320.0,107.5,328.5,99.5,336.0" stroke="black" stroke-width="2" fill="none" />
<path d="M93.0,337.0,101.5,329.5,109.0,322.0,117.0,314.5,124.5,306.5,132.0,298.5,140.0,291.0,148.0,284.0" stroke="black" stroke-width="2" fill="none" />
<path d="M139.5,281.5,131.5,289.0,123.5,296.5,115.5,304.0,107.5,311.5,99.0,319.0,91.0,326.0,83.0,333.5" stroke="black" stroke-width="2" fill="none" />
<path d="M74.0,335.5,83.0,328.0,91.0,321.0,99.5,313.5,107.0,306.5,115.0,299.0,123.0,291.0,131.0,283.5" stroke="black" stroke-width="2" fill="none" />
<path d="M123.5,284.0,116.0,291.5,108.0,299.0,100.5,306.5,93.0,314.0,85.0,321.0,76.5,328.5,68.5,335.5" stroke="black" stroke-width="2" fill="none" />
<path d="M59.5,336.0,67.5,328.0,75.5,320.5,83.0,312.0,91.0,304.5,99.0,297.0,107.0,289.5,115.5,281.5" stroke="black" stroke-width="2" fill="none" />
<path d="M106.5,283.5,99.5,291.0,92.0,298.5,84.0,306.0,75.5,313.5,67.5,321.0,60.0,328.0,52.0,335.5" stroke="black" stroke-width="2" fill="none" />
<path d="M44.0,335.0,51.5,328.0,59.5,320.5,67.5,313.0,75.5,306.0,84.0,298.5,92.0,290.5,100.0,282.5,107.5,275.0" stroke="black" stroke-width="2" fill="none" />
<path d="M100.0,274.5,92.0,282.0,84.0,290.0,75.5,298.0,67.0,306.0,58.5,314.0,50.5,321.5,42.5,328.5,34.5,336.0" stroke="black" stroke-width="2" fill="none" />
<path d="M27.0,334.5,35.0,327.5,43.5,321.0,51.5,314.0,59.5,306.5,67.5,298.5,75.5,291.0,84.0,284.0,92.5,277.0" stroke="black" stroke-width="2" fill="none" />
<path d="M89.0,268.0,81.0,275.5,74.0,283.0,66.5,290.0,59.0,297.5,51.5,304.5,43.5,311.5,36.5,319.0,28.5,326.0,20.5,333.5" stroke="black" stroke-width="2" fill="none" />
<path d="M10.5,335.5,18.5,327.5,26.5,320.5,35.0,313.5,43.0,306.0,51.0,298.5,59.0,291.0,67.5,283.5,75.5,276.0,84.0,268.5" stroke="black" stroke-width="2" fill="none" />
<path d="M81.5,260.5,73.5,268.0,65.5,275.5,57.5,283.0,50.5,290.0,42.5,297.5,35.0,304.5,27.0,312.5,19.0,320.0,11.0,327.5,3.0,335.0" stroke="black" stroke-width="2" fill="none" />
<path d="M2.5,336.5,10.5,336.5,19.0,336.0,27.5,336.0,36.0,335.5,43.5,334.5,52.0,334.0,60.0,333.0,68.0,332.5,75.5,332.0,83.5,331.5,92.0,331.0,100.0,330.5,108.0,330.5,116.0,331.0" stroke="black" stroke-width="2" fill="none" />
<path d="M186.5,327.5,194.5,327.5,202.5,327.5,211.0,327.5,219.5,327.0,228.0,326.5,236.5,326.5,244.5,326.0,253.0,326.0,260.5,325.5" stroke="black" stroke-width="2" fill="none" />
<path d="M252.0,302.0,244.0,303.0,236.0,303.0,227.5,303.0,219.5,303.0,211.0,303.0,203.0,303.5,195.0,304.0,187.5,305.0,180.0,305.5,172.0,306.0,164.0,306.5,156.5,307.5,148.0,308.5,139.5,309.5,131.5,310.5,123.5,311.0,115.5,312.0,107.5,313.0,99.5,313.5,92.5,314.5,85.0,315.0,76.5,315.5,68.0,316.0,59.5,316.0,51.5,316.0,43.0,316.0,35.5,316.5,27.5,316.5,20.0,317.0,12.0,317.5,4.5,317.5" stroke="black" stroke-width="2" fill="none" />
<path d="M4.5,320.0,12.0,312.5,20.0,305.0,28.0,298.0,36.0,291.0,44.0,283.0,52.0,275.5,60.5,268.0,68.0,260.0" stroke="black" stroke-width="2" fill="none" />
<path d="M77.0,258.5,69.0,266.0,60.5,274.0,52.0,281.5,43.0,288.0,34.5,295.5,26.5,304.0,18.5,312.0,11.0,319.5,3.0,327.0" stroke="black" stroke-width="2" fill="none" />
<path d="M2.5,329.0,11.0,328.5,19.5,328.0,28.0,327.0,36.0,326.5,43.5,326.0,51.5,325.5,59.5,325.0,67.0,325.0,74.5,325.0,82.5,325.0,90.5,324.0,98.5,323.5" stroke="black" stroke-width="2" fill="none" />
<path d="M69.0,250.5,60.5,258.0,52.5,265.5,44.5,273.5,37.0,281.5,29.0,289.5,20.5,296.5,11.5,303.5,3.5,311.0" stroke="black" stroke-width="2" fill="none" />
<path d="M3.0,312.5,11.5,312.0,19.5,312.0,27.5,311.5,36.0,311.5,44.5,311.0,52.5,311.0,60.5,310.5,68.5,310.0" stroke="black" stroke-width="2" fill="none" />
<path d="M59.5,251.0,52.0,258.5,44.0,266.0,36.5,273.5,28.5,280.5,21.0,288.0,13.0,296.0,5.0,303.5" stroke="black" stroke-width="2" fill="none" />
<path d="M3.0,303.0,11.0,302.0,19.0,301.5,26.5,300.5,34.0,299.5,42.5,298.5,50.0,297.5,58.0,296.5,66.5,296.0,75.0,295.5,83.5,295.0,91.0,295.0,99.0,294.5,107.0,294.5,115.0,294.0,123.5,294.0,131.5,294.0,139.5,294.0,147.5,293.5,155.5,293.0,163.5,292.5,171.5,292.0,180.0,291.5,188.0,290.5,196.0,289.5,203.5,288.5,211.0,287.5,219.0,287.0,226.5,286.0,234.5,285.0,242.5,284.5,250.5,284.0" stroke="black" stroke-width="2" fill="none" />
<path d="M253.5,296.0,246.0,297.0,237.5,297.5,229.5,297.0,221.5,297.0,213.5,297.0,205.0,297.0,197.0,297.0,189.5,297.5,181.5,298.0,173.5,298.5,164.5,299.0,157.0,299.5,149.0,300.5,140.5,301.5,132.5,302.5,124.5,303.0,117.0,303.5,109.0,303.5,101.0,304.0,93.5,304.0,85.5,304.0,77.5,304.5,69.0,305.5,61.0,306.5,52.5,306.5,44.0,306.5,35.5,307.0,27.5,307.0,19.0,307.0,11.0,307.5,3.0,308.0" stroke="black" stroke-width="2" fill="none" />
<path d="M4.0,306.5,11.5,305.5,19.0,305.0,26.5,304.5,34.0,304.5,42.5,304.0,50.5,303.5" stroke="black" stroke-width="2" fill="none" />
<path d="M75.0,318.0,68.0,318.5,60.5,319.0,52.5,319.0,45.0,319.0,36.5,319.5,28.0,320.0,19.5,321.0,11.5,321.5,3.5,322.0" stroke="black" stroke-width="2" fill="none" />
<path d="M3.0,324.0,11.0,324.0,19.0,323.5,27.0,323.5,35.5,323.5,44.0,323.0,51.5,323.0,59.0,322.5,66.5,322.0,74.5,321.5,82.5,321.0,91.0,320.5,99.5,319.5,107.5,319.0,116.0,318.5,124.5,317.5,133.0,316.5,141.5,315.5,149.5,315.0,157.0,315.0,165.0,314.5,172.5,314.0,180.5,314.5,188.0,314.5,196.0,314.5,204.5,314.5,212.0,314.0,220.0,314.0,228.5,313.5,237.0,312.5,245.0,311.5,253.0,311.0,261.0,311.0,268.5,310.0,276.5,309.0,284.5,308.5,292.5,307.5,300.5,306.5,308.0,305.0,315.5,304.5,323.0,304.0,331.0,303.5,339.0,303.0,347.5,303.0,355.5,302.5,363.5,302.5,372.0,302.0,380.5,301.0,389.0,300.5,398.0,300.5,406.5,300.0,413.5,299.5,421.0,299.0,428.5,298.0,436.5,298.0,444.0,297.5,452.5,297.5,460.0,297.0,468.0,297.0,476.0,297.0,484.0,297.0,491.5,296.0,499.5,295.5,507.5,295.0,515.5,294.0" stroke="black" stroke-width="2" fill="none" />
<path d="M515.0,299.5,507.5,301.0,499.5,302.5,490.5,302.5,482.0,303.0,474.5,303.5,466.5,304.0,458.5,304.0,450.5,304.5,443.0,305.0,435.0,305.5,427.5,306.0,419.5,306.0,411.5,306.5,403.5,306.5,395.5,307.5,387.0,307.5,379.0,308.0,370.5,308.5,362.5,308.5,354.5,309.0,347.0,309.5,339.5,310.5,332.0,311.0,324.5,311.5,316.5,312.0,308.5,313.0,300.5,314.0,292.0,314.5,284.0,315.5,276.0,316.0,268.0,316.0,260.0,316.0,251.5,316.0,243.0,316.5,235.0,317.5,226.5,318.0,218.0,319.5,209.5,320.5,201.5,321.5,193.5,321.5,185.5,322.0,177.5,322.0,170.0,323.0,162.0,323.5,154.0,324.0,145.5,324.5,137.5,325.0,129.5,325.0,121.5,325.0,113.5,325.0,105.5,325.5,97.5,326.0,89.5,326.5,81.5,327.0,74.0,327.5,66.5,327.5,58.5,327.5,50.0,327.5,41.5,328.0,34.0,328.5,26.5,329.0,18.5,330.0,10.5,330.5,2.5,331.5" stroke="black" stroke-width="2" fill="none" />
<path d="M4.0,300.0,12.0,299.5,20.0,298.5,27.5,297.5,35.5,297.0,43.5,296.0" stroke="black" stroke-width="2" fill="none" />
<path d="M35.5,288.0,28.0,289.0,20.5,290.0,12.5,291.0,5.0,291.5" stroke="black" stroke-width="2" fill="none" />
<path d="M3.5,288.5,11.0,280.5,19.0,273.0,26.5,265.5,34.5,257.5,42.0,249.0,50.0,241.5" stroke="black" stroke-width="2" fill="none" />
<path d="M50.5,235.5,42.5,242.5,35.0,250.0,27.0,257.5,19.5,264.5,11.5,272.0,4.0,279.5" stroke="black" stroke-width="2" fill="none" />
<path d="M4.0,282.5,11.5,282.0,19.0,281.0,27.0,280.5" stroke="black" stroke-width="2" fill="none" />
<path d="M5.0,276.5,13.5,276.0,21.5,276.0,29.0,275.5,37.0,274.5,45.0,274.5,52.5,274.0,61.0,274.0,69.0,274.0,77.5,274.0,85.5,273.5,93.5,273.0,101.5,272.5,110.0,272.0,117.5,272.0,126.0,272.0,133.5,271.5,141.0,271.5,148.5,271.0,156.0,270.0,164.0,269.5,172.0,269.0,179.5,268.0,187.5,267.0,196.0,266.0,203.5,264.5,211.5,263.5,219.0,263.0,227.0,262.0,235.5,261.5,243.5,261.0,251.5,261.0" stroke="black" stroke-width="2" fill="none" />
<path d="M251.0,270.5,243.5,271.0,235.0,271.5,226.5,272.0,218.5,272.0,210.0,272.5,202.0,273.5,194.0,273.5,186.0,274.0,178.5,274.5,170.5,275.5,162.5,276.0,154.5,277.0,147.0,277.0,139.0,277.0,130.5,277.5,122.5,278.0,114.5,278.5,107.5,279.0,99.5,279.5,91.5,280.5,83.0,281.0,75.5,281.0,67.5,281.5,59.5,282.5,51.5,283.0,43.5,284.0,35.5,285.0,27.5,285.5,19.5,286.5,11.5,287.5,3.5,288.0" stroke="black" stroke-width="2" fill="none" />
<path d="M4.5,274.0,12.5,266.0,20.5,258.0,28.5,250.5,37.0,242.5,45.0,235.0" stroke="black" stroke-width="2" fill="none" />
<path d="M38.0,217.5,30.0,225.0,21.5,232.5,13.5,240.0,5.5,247.5" stroke="black" stroke-width="2" fill="none" />
<path d="M3.5,244.0,12.0,244.0,20.0,243.5,28.0,243.0,36.0,243.0,43.5,242.0,51.5,242.0,58.5,241.5,66.0,241.0,73.5,241.0,81.0,240.5,89.5,240.0,97.5,240.0,106.0,240.0,115.0,239.5,123.5,239.0,131.0,238.5,138.5,238.0,146.5,237.5,154.5,237.0,163.0,236.5,170.5,236.5,179.0,236.0,187.5,235.0,196.5,234.0,204.5,233.5,212.5,233.0,220.5,232.5,228.5,232.0,236.5,231.0,244.5,230.0,253.0,230.0" stroke="black" stroke-width="2" fill="none" />
<path d="M254.5,238.0,246.5,238.5,238.5,239.0,229.5,240.0,221.5,240.5,213.0,241.0,204.5,241.5,196.0,242.0,187.0,242.5,179.0,242.5,171.0,242.5,163.0,243.0,154.5,243.5,146.5,244.0,138.5,245.0,130.5,245.5,122.0,246.0,114.5,247.0,107.5,247.5,100.0,247.5,92.5,247.5,85.0,248.0,76.5,248.5,68.0,249.5,59.5,250.5,51.5,251.0,44.0,251.5,36.5,252.0,28.5,252.0,20.5,252.0,12.5,252.5,4.5,253.0" stroke="black" stroke-width="2" fill="none" />
<path d="M3.5,265.5,11.5,265.0" stroke="black" stroke-width="2" fill="none" />
<path d="M4.5,272.5,13.0,272.5,20.5,272.0" stroke="black" stroke-width="2" fill="none" />
<path d="M72.5,240.5,80.5,242.0,89.0,242.0,97.0,242.0,105.5,243.0,113.0,240.0,121.5,230.5,129.5,220.5,126.5,223.5,121.0,231.5,113.0,239.5" stroke="black" stroke-width="2" fill="none" />
<path d="M106.0,235.5,114.0,229.5,123.0,221.5,134.0,213.5,137.0,206.0,136.5,197.5,132.0,189.5,133.0,182.0,133.5,174.0,136.5,174.5,136.5,167.5,133.5,159.5,143.0,154.5,143.5,148.5,148.5,145.5,147.5,137.0,155.5,136.0,158.5,127.5,156.0,134.5,148.5,142.0" stroke="black" stroke-width="2" fill="none" />
<path d="M147.0,147.0,154.0,139.5" stroke="black" stroke-width="2" fill="none" />
<path d="M151.0,149.5,150.0,157.0" stroke="black" stroke-width="2" fill="none" />
<path d="M154.5,154.0,159.5,154.5,154.5,162.0,163.5,164.5,165.5,173.0,168.0,181.0,165.0,187.5,164.0,197.5,169.0,186.5,177.5,181.5,185.5,173.0,193.5,169.5" stroke="black" stroke-width="2" fill="none" />
<path d="M170.5,146.5,179.0,139.5" stroke="black" stroke-width="2" fill="none" />
<path d="M176.0,138.0,177.0,146.0" stroke="black" stroke-width="2" fill="none" />
<path d="M171.0,139.5,172.0,140.0,168.5,146.5,171.5,155.5,185.0,150.5" stroke="black" stroke-width="2" fill="none" />
<path d="M173.0,138.0,164.5,145.5" stroke="black" stroke-width="2" fill="none" />
<path d="M165.0,128.5,173.0,127.5,175.0,132.0,179.0,135.0,182.5,129.0,190.5,128.0" stroke="black" stroke-width="2" fill="none" />
<path d="M191.0,128.5,191.5,136.0,188.0,144.5,187.5,152.5,184.5,153.0,183.5,161.0,178.5,168.5,187.5,174.5,180.0,182.0,176.0,194.5,169.0,202.5,176.0,210.5,176.5,218.5,177.0,226.5,176.0,229.5" stroke="black" stroke-width="2" fill="none" />
<path d="M156.0,221.5,160.0,213.5" stroke="black" stroke-width="2" fill="none" />
<path d="M146.0,213.5,152.0,222.0,154.5,230.0,157.5,230.0,157.5,238.5,152.5,242.5" stroke="black" stroke-width="2" fill="none" />
<path d="M148.0,243.0,150.0,235.5,151.0,227.5,143.0,219.5" stroke="black" stroke-width="2" fill="none" />
<path d="M132.0,179.5,140.0,181.5,142.5,180.0,136.5,186.0,141.5,187.5,146.5,184.5,155.0,187.0,163.0,189.0,169.5,180.5,174.5,188.5,182.5,188.5,191.0,186.5" stroke="black" stroke-width="2" fill="none" />
<path d="M220.5,165.5,212.5,169.5,204.5,168.5,196.0,169.0,190.0,169.0,176.5,168.0,168.5,167.0,160.5,172.0,152.0,172.0,144.0,171.0,136.0,171.5,124.0,173.5,120.0,177.5,119.0,164.5,124.5,154.5,125.0,146.0,130.5,143.5,131.5,135.5,136.0,131.5,133.5,126.5" stroke="black" stroke-width="2" fill="none" />
<path d="M132.5,124.0,124.0,131.5" stroke="black" stroke-width="2" fill="none" />
<path d="M125.5,138.5,134.5,131.0" stroke="black" stroke-width="2" fill="none" />
<path d="M118.5,126.0,127.5,129.0,137.0,137.5,140.0,140.5,142.5,143.5,147.0,135.5,152.0,127.5,159.5,128.5" stroke="black" stroke-width="2" fill="none" />
<path d="M164.5,125.0,172.5,124.5,180.5,123.5,188.5,126.0,196.5,126.0,204.5,124.0,212.5,124.0,220.5,125.0,228.0,127.0,231.5,130.0,231.5,138.0,230.5,145.5,230.5,153.5,230.5,161.5,230.0,169.5,230.0,177.5,230.0,185.5,229.5,193.0,229.5,200.5,230.0,208.0,230.0,215.5,230.0,224.0,230.5,232.0,230.5,240.5,223.5,242.0,222.0,243.0,223.0,245.5" stroke="black" stroke-width="2" fill="none" />
<path d="M267.5,182.0,275.5,182.0,283.5,182.0,292.0,181.5,300.5,181.5,308.0,181.5,316.5,181.5,324.5,181.0,332.5,181.0,340.5,181.0,348.0,180.0,356.5,180.0,364.0,180.0,372.0,181.5,379.5,181.5,387.5,181.0,396.5,181.0,396.5,189.0,396.5,197.0,396.5,205.0,395.5,213.0,396.5,221.0,396.5,229.0,395.5,237.0,394.5,245.0,395.0,253.0,394.0,261.5,394.5,270.0,394.5,278.0,393.5,286.5,393.0,294.5,393.0,302.0" stroke="black" stroke-width="2" fill="none" />
<path d="M390.0,297.5,390.0,289.5,390.0,281.5,389.5,273.0,390.5,265.0,390.5,257.0,391.0,249.0,391.0,241.0,392.5,232.5,393.0,224.5,393.0,216.5,393.0,208.5,393.0,200.5,393.0,192.5,394.0,184.5,393.5,179.0,386.0,179.0,378.0,179.0,370.0,178.5,362.0,178.5,353.5,178.5,345.5,178.5,337.5,178.5,329.5,178.5,321.5,178.5,313.5,179.0,305.5,179.0,297.5,179.5,289.5,179.0,281.5,179.0,273.5,178.5,265.5,178.5" stroke="black" stroke-width="2" fill="none" />
<path d="M266.0,180.0,266.0,188.5,266.0,196.0,266.0,204.0,266.5,212.0,266.0,219.5,265.0,227.5,264.5,235.0,264.0,243.0,264.0,250.5,265.0,258.5,265.0,266.5,265.0,274.0,265.0,281.5,265.0,289.5,265.0,297.5,265.0,305.5,272.0,315.0,281.0,321.5,289.5,321.5,297.5,321.5,305.5,319.5" stroke="black" stroke-width="2" fill="none" />
<path d="M390.0,306.0,381.5,307.0,373.5,307.0,365.5,307.0,357.5,308.0,349.5,308.5,341.0,308.5,333.0,308.5,325.0,309.0,317.0,309.0,309.0,309.0,301.0,309.5,293.0,309.0,285.0,308.5,277.5,308.5,269.5,308.0,268.0,300.5,267.5,292.5,267.5,285.0,267.5,277.0,267.5,269.0,267.5,261.0,267.5,253.0,267.5,245.0,267.5,237.0,267.5,229.0,267.5,221.0,267.5,213.5,267.5,205.5,267.5,197.5,267.5,190.0,268.5,182.0" stroke="black" stroke-width="2" fill="none" />
<path d="M203.0,162.0,203.5,158.0,202.5,161.5,193.5,156.0,189.5,156.0,185.5,165.0,179.0,166.0,171.0,157.0,174.0,151.5,169.0,140.5,167.5,133.5,161.0,141.5,158.5,150.5,149.5,149.5,150.5,162.5,154.5,158.5,155.5,150.5,162.0,142.5,164.0,140.0,165.0,131.5,165.0,123.5,151.0,123.5,143.0,123.5,135.0,124.0,127.0,124.5,119.0,124.5" stroke="black" stroke-width="2" fill="none" />
<path d="M109.0,125.5,115.5,133.5,115.0,141.5,114.5,150.0,114.5,158.5,117.5,164.5,106.5,172.5,100.5,180.0,96.5,188.0,94.5,195.5,102.0,203.5,102.0,212.5,92.0,214.5,97.0,220.0,100.5,219.0,108.5,220.5,116.5,217.5" stroke="black" stroke-width="2" fill="none" />
<path d="M106.0,199.5,101.5,191.5,101.5,184.0" stroke="black" stroke-width="2" fill="none" />
<path d="M106.0,173.0,97.0,173.5,89.0,174.0" stroke="black" stroke-width="2" fill="none" />
<path d="M88.5,182.5,88.5,190.5,88.5,198.5" stroke="black" stroke-width="2" fill="none" />
<path d="M123.5,179.5,131.0,171.5" stroke="black" stroke-width="2" fill="none" />
<path d="M132.0,165.0,124.0,172.0" stroke="black" stroke-width="2" fill="none" />
<path d="M119.5,170.0,119.5,174.5,121.5,182.0,123.5,190.0,125.5,190.0" stroke="black" stroke-width="2" fill="none" />
<path d="M125.0,180.5,126.5,188.0,139.5,188.0,148.5,195.5,156.0,194.5,164.0,194.5" stroke="black" stroke-width="2" fill="none" />
<path d="M111.5,166.0,103.5,164.5,103.5,155.5,97.5,168.0,93.5,165.0,88.0,169.0,88.0,161.5,93.5,153.5,95.5,145.5,95.0,142.0" stroke="black" stroke-width="2" fill="none" />
<path d="M97.0,143.0,97.5,151.0,93.5,157.5,95.5,160.5" stroke="black" stroke-width="2" fill="none" />
<path d="M90.5,157.0,98.5,156.5,106.5,156.0" stroke="black" stroke-width="2" fill="none" />
<path d="M105.5,158.0,107.5,166.0" stroke="black" stroke-width="2" fill="none" />
<path d="M100.5,155.5,99.5,163.5,92.0,172.0,92.0,180.0,91.0,188.0,90.0,195.5,83.0,202.5,84.0,196.5,94.0,190.5,98.5,197.5,106.5,204.5,114.5,204.0,126.0,194.0" stroke="black" stroke-width="2" fill="none" />
<path d="M75.5,202.0,67.5,202.5,59.5,203.0,51.5,203.5,44.0,204.5,36.0,204.5,28.5,205.5,20.5,206.0,12.5,206.5,4.5,207.0" stroke="black" stroke-width="2" fill="none" />
<path d="M4.0,210.5,11.5,202.0,20.0,194.5,28.5,187.0,36.5,179.5" stroke="black" stroke-width="2" fill="none" />
<path d="M37.5,170.0,29.5,177.5,21.0,185.5,12.5,193.0,4.0,200.5" stroke="black" stroke-width="2" fill="none" />
<path d="M4.0,197.5,12.5,197.5,20.5,197.5,28.0,197.5,36.0,196.5,44.0,196.0,51.5,196.0,59.0,195.5,67.0,195.0,75.0,194.5" stroke="black" stroke-width="2" fill="none" />
<path d="M59.5,155.0,67.5,148.5,75.5,141.5" stroke="black" stroke-width="2" fill="none" />
<path d="M74.5,142.5,66.0,143.0,58.0,143.5,49.5,144.0,42.0,145.0,33.5,145.5,25.0,147.5,17.0,148.5,9.0,150.0,1.0,150.5" stroke="black" stroke-width="2" fill="none" />
<path d="M4.0,154.0,11.5,146.5,19.5,139.0,27.5,131.5,36.0,124.0,44.5,116.5,52.5,109.0,60.5,101.5,69.0,94.0,77.0,86.5,85.0,79.0,93.5,71.5,102.0,65.0,110.0,57.5,117.5,49.5,125.0,41.5,133.0,33.5,141.0,26.0,148.5,17.5,156.5,9.5,165.0,2.0" stroke="black" stroke-width="2" fill="none" />
<path d="M155.0,4.0,147.5,11.0,140.0,18.0,132.5,25.0,124.5,33.0,117.0,41.5,109.0,48.5,101.5,56.0,93.5,64.0,85.0,72.0,76.5,79.0,68.5,86.5,60.5,94.0,52.0,102.0,44.0,110.0,36.0,117.5,27.0,125.0,18.0,132.5,9.5,139.5,1.5,146.5" stroke="black" stroke-width="2" fill="none" />
<path d="M1.5,140.5,9.5,139.5,18.0,139.5,26.5,139.0,34.5,139.0,42.5,138.0,50.5,137.5,58.5,137.0,66.5,137.0,74.5,136.5" stroke="black" stroke-width="2" fill="none" />
<path d="M72.0,142.0,80.0,150.5,89.5,155.5,95.5,155.0" stroke="black" stroke-width="2" fill="none" />
<path d="M75.0,152.0,67.0,152.5,59.5,153.0,51.5,154.0,43.5,154.0,35.5,155.0,27.5,155.5,19.0,156.0,10.5,156.5,2.5,156.5" stroke="black" stroke-width="2" fill="none" />
<path d="M5.0,182.5,13.0,182.0,21.0,181.0,29.0,181.0,37.0,181.0,44.5,181.0,51.5,180.5,59.0,180.0,66.5,179.5,74.5,179.0" stroke="black" stroke-width="2" fill="none" />
<path d="M74.0,186.0,66.5,186.5,59.0,187.5,52.0,188.0,44.5,188.0,36.0,188.5,28.0,189.0,20.0,189.5,12.5,189.0,4.5,189.5" stroke="black" stroke-width="2" fill="none" />
<path d="M3.5,192.5,11.5,185.0,20.0,178.0,28.5,171.0,37.0,164.0" stroke="black" stroke-width="2" fill="none" />
<path d="M36.5,157.0,28.5,164.5,20.5,171.5,12.5,178.5,4.5,185.5" stroke="black" stroke-width="2" fill="none" />
<path d="M2.5,121.5,10.5,114.5,19.0,107.5,27.5,100.0,35.5,92.5,43.0,85.5,51.0,78.5,59.0,70.5,67.0,63.0,75.0,56.0,82.5,49.0,90.5,42.0,99.0,35.0,107.0,27.0,115.5,19.5,123.5,11.5,132.0,4.0" stroke="black" stroke-width="2" fill="none" />
<path d="M122.5,2.0,115.0,10.0,107.0,18.0,99.5,26.0,92.0,33.0,84.5,41.0,76.0,48.5,68.0,56.5,60.0,64.0,51.5,72.0,43.0,79.5,35.5,87.0,28.0,94.0,20.5,101.0,12.5,108.0,4.5,115.0" stroke="black" stroke-width="2" fill="none" />
<path d="M4.0,116.5,12.0,115.5" stroke="black" stroke-width="2" fill="none" />
<path d="M4.0,113.0,12.0,112.0,19.5,111.5,27.0,110.5,35.0,109.0,43.0,108.0,51.0,106.5,59.0,105.5,66.5,104.5,75.0,103.5,83.0,103.0,91.0,102.5,99.0,102.0,107.5,102.0,115.5,102.0,124.0,101.5,132.5,101.5,141.0,101.5,149.0,100.5,157.5,99.5,165.5,99.0,173.5,99.0,181.0,99.0,189.0,98.5,197.0,98.5,204.5,98.0,212.5,97.5,220.5,96.5,229.0,95.5,237.0,94.5,244.5,94.0,253.5,93.5,261.5,93.0,269.5,92.5" stroke="black" stroke-width="2" fill="none" />
<path d="M267.5,100.0,260.0,100.5,252.0,101.0,244.0,101.5,236.5,102.5,228.0,103.5,219.5,104.5,211.5,105.5,203.5,106.0,195.5,107.0,187.5,108.0,179.5,108.5,172.5,109.5,165.0,110.0,156.5,110.5,148.0,111.0,139.5,111.0,131.5,111.0,123.0,111.0,115.5,111.5,107.5,111.5,100.0,112.0,92.0,112.5,84.5,112.5,76.0,113.5,68.0,114.0,59.5,114.5,51.0,115.0,43.0,115.0,34.5,115.5,26.5,116.5,19.0,117.5,11.5,118.0,4.0,118.0" stroke="black" stroke-width="2" fill="none" />
<path d="M3.0,107.5,12.0,99.5,20.0,92.0,27.5,84.5,35.5,77.0,43.5,70.0,51.5,62.5,60.0,55.5,68.0,48.5,76.5,41.5,84.0,33.5,92.0,26.0,100.0,18.5,107.5,11.5,115.5,4.0" stroke="black" stroke-width="2" fill="none" />
<path d="M106.5,3.5,99.0,10.5,91.5,18.0,83.5,25.5,75.5,33.0,67.5,40.5,59.5,48.5,51.0,56.0,43.0,63.5,35.0,70.5,27.0,78.0,19.0,86.0,11.0,94.5,3.5,102.0" stroke="black" stroke-width="2" fill="none" />
<path d="M1.5,101.0,10.0,101.0,18.5,101.0,27.0,101.0,35.0,100.5,43.0,100.5,51.0,100.0,59.5,99.5,67.5,99.0,75.0,98.5,83.0,98.0,91.0,97.0,99.0,96.5,106.5,95.5,114.0,94.5,122.5,93.5,130.0,92.5,138.0,91.5,146.5,91.0,155.0,90.5,163.5,90.0,171.0,90.0,179.0,89.5,187.0,89.5,195.0,89.0,203.5,89.0,211.5,89.0,219.5,89.0,227.5,88.5,235.5,88.0,243.5,87.5,251.5,87.0,260.0,86.5,268.0,85.5,276.0,84.5" stroke="black" stroke-width="2" fill="none" />
<path d="M276.5,76.5,268.5,77.0,260.0,77.5,251.5,78.0,244.0,78.0,236.0,79.0,228.0,79.5,220.0,80.5,212.0,81.5,204.0,81.5,195.5,82.0,186.5,82.5,178.0,83.0,170.0,83.0,161.5,84.0,154.0,84.5,147.0,85.0,139.5,85.5,131.5,86.5,123.5,87.0,116.5,88.0,109.0,89.0,101.0,89.5,93.5,90.5,85.5,90.5,77.5,91.5,69.5,92.0,61.0,92.0,52.5,92.0,44.0,91.5,35.5,92.0,27.0,92.0,18.5,92.5,10.5,92.5,2.0,92.5" stroke="black" stroke-width="2" fill="none" />
<path d="M2.5,93.5,10.5,86.5,18.5,79.0,26.5,71.5,34.5,63.5,43.0,56.5,51.5,49.5,59.5,42.5,68.5,34.5,77.0,26.5,85.0,19.0,93.0,11.5,101.0,4.0" stroke="black" stroke-width="2" fill="none" />
<path d="M91.0,5.0,83.0,12.5,75.5,19.5,67.5,26.5,60.5,34.5,52.5,42.0,44.0,49.0,35.5,56.0,27.0,63.0,19.0,70.5,11.0,78.0,3.0,85.0" stroke="black" stroke-width="2" fill="none" />
<path d="M3.0,86.0,10.5,85.5,18.5,84.5,26.0,84.5,34.0,84.5,42.0,84.5,50.0,84.0,59.0,83.5,67.5,83.0,75.5,83.5,83.5,83.0,91.5,82.5,99.5,81.5,107.5,80.5,115.5,80.0,123.5,79.0,131.5,78.0,139.5,77.5,147.5,76.5,155.5,76.0,163.0,76.0,171.5,75.5,179.5,74.5,187.5,74.0,194.5,73.5,202.5,73.0,210.5,72.5,219.0,72.0,227.0,72.0,234.5,72.0,242.5,71.0,250.5,70.5,258.5,69.5,266.0,69.0,274.0,68.5,282.0,68.5" stroke="black" stroke-width="2" fill="none" />
<path d="M283.5,59.5,276.0,61.0,267.5,62.0,259.5,63.0,252.0,64.0,244.0,64.5,236.0,65.0,228.5,66.0,221.0,66.5,213.5,66.5,206.0,67.0,197.5,67.0,190.0,67.0,181.5,67.5,173.5,68.0,165.5,68.5,157.5,69.0,149.0,69.0,141.0,69.0,132.5,69.0,125.0,69.5,117.0,69.5,109.0,70.5,101.5,71.0,93.5,71.0,85.0,71.5,77.0,72.0,69.0,73.5,61.5,74.5,53.5,75.5,45.5,76.5,37.5,77.0,29.5,78.0,21.0,78.5,12.5,78.5,4.5,79.5" stroke="black" stroke-width="2" fill="none" />
<path d="M3.0,80.5,11.5,80.0,19.5,80.0,28.0,80.0" stroke="black" stroke-width="2" fill="none" />
<path d="M18.5,96.5,10.5,96.5,3.0,97.0" stroke="black" stroke-width="2" fill="none" />
<path d="M3.0,89.5,11.0,89.0,18.5,88.0" stroke="black" stroke-width="2" fill="none" />
<path d="M1.5,79.5,9.5,72.0,17.5,65.0,26.0,57.5,34.5,49.0,43.0,41.0,51.5,33.0,60.0,25.0,68.5,17.5,76.5,10.0,85.0,2.5" stroke="black" stroke-width="2" fill="none" />
<path d="M75.0,4.5,67.0,12.0,58.5,19.0,51.0,26.5,43.0,33.0,35.5,40.5,27.5,48.0,19.5,55.5,11.5,63.0,3.5,71.0" stroke="black" stroke-width="2" fill="none" />
<path d="M3.0,69.0,11.0,68.0,18.0,68.0,25.5,68.0,33.0,68.0,41.5,68.0,49.0,67.0,57.0,66.0,65.0,65.0,73.5,64.0,81.5,63.0,89.5,62.5,97.5,62.5,106.0,62.5,114.5,62.5,122.5,62.5,130.5,62.0,139.0,62.0,146.5,61.5,154.0,61.0,162.0,60.0,170.0,60.0,178.5,59.5,187.0,59.5,195.0,59.5,203.0,59.0,211.5,58.0,219.5,57.0,228.0,56.0,236.5,55.5,244.5,55.5,252.5,55.0,260.5,54.5,268.5,53.5,277.0,53.0,284.5,52.0,292.5,51.0" stroke="black" stroke-width="2" fill="none" />
<path d="M291.5,43.5,283.5,44.0,274.5,44.5,267.0,45.0,258.5,45.0,250.0,46.0,241.5,46.5,233.5,47.5,226.0,48.0,218.0,48.5,210.0,49.0,202.5,49.5,195.5,49.5,188.0,50.5,180.5,51.0,173.5,51.5,165.5,52.0,157.0,52.0,148.5,52.5,140.5,53.0,132.5,53.5,124.5,53.5,116.5,54.5,109.0,55.0,101.5,56.0,93.5,57.0,85.5,57.5,77.5,58.0,69.0,57.5,60.5,58.0,52.5,59.0,44.0,59.5,36.0,60.0,27.5,60.0,19.5,60.5,12.0,61.5,3.5,62.0" stroke="black" stroke-width="2" fill="none" />
<path d="M5.0,62.5,12.5,55.0,20.0,48.0,27.5,40.5,35.5,32.5,43.5,25.0,51.0,17.0,59.0,9.5,67.0,2.0" stroke="black" stroke-width="2" fill="none" />
<path d="M58.5,1.0,51.0,9.0,42.5,17.0,34.5,24.5,26.5,32.0,18.5,40.0,11.0,47.5,3.0,55.5" stroke="black" stroke-width="2" fill="none" />
<path d="M4.0,55.0,12.0,54.5,20.5,53.0,29.0,52.0,37.0,51.0,45.0,50.0,53.0,49.5,60.5,49.0,68.0,48.5,75.5,47.5,83.5,47.0,92.0,47.0,100.0,46.5,108.0,46.0,116.0,46.0,123.5,45.0,131.5,45.0,138.5,44.5,146.0,44.0,153.5,44.0,161.0,43.5,169.5,43.0,177.5,43.0,186.0,43.0,195.0,42.5,203.5,42.0,211.0,41.5,218.5,41.0,226.5,40.5,234.5,40.0,243.0,39.5,250.5,39.5,259.0,39.0,267.5,38.0,276.5,37.0,284.5,36.5,292.5,36.0,300.5,35.5" stroke="black" stroke-width="2" fill="none" />
<path d="M300.5,27.0,292.0,28.0,283.5,28.5,275.5,29.0,267.5,30.0,259.0,31.0,251.0,31.5,243.0,32.5,235.5,32.5,227.5,32.5,220.0,32.5,212.0,32.5,204.5,32.0,196.5,32.5,188.5,33.5,180.5,34.0,172.5,35.0,164.0,35.0,156.0,35.5,148.0,36.0,140.0,36.5,132.0,37.5,124.0,38.0,116.0,39.0,108.0,39.5,100.0,40.5,92.0,41.0,84.0,42.0,76.0,42.5,68.0,43.0,60.0,43.5,52.5,44.0,44.0,44.5,35.5,44.5,27.5,44.5,19.0,44.5,10.5,44.5,2.5,45.0" stroke="black" stroke-width="2" fill="none" />
<path d="M3.0,41.5,11.0,41.5,19.0,41.5,27.0,41.0,35.0,40.5,42.5,40.0,51.0,39.5,59.5,39.0,68.0,39.0,76.5,39.0" stroke="black" stroke-width="2" fill="none" />
<path d="M52.0,4.0,43.5,11.5,35.5,19.0,27.0,26.5,19.0,34.0,11.0,41.5,3.0,49.0" stroke="black" stroke-width="2" fill="none" />
<path d="M2.5,50.0,11.0,49.5,19.5,49.0,28.0,48.5,36.5,48.5,44.5,48.0,53.0,47.5,61.0,46.5,68.5,46.0" stroke="black" stroke-width="2" fill="none" />
<path d="M44.5,3.5,36.5,11.0,28.5,18.0,20.5,25.5,13.0,33.0,4.5,40.5" stroke="black" stroke-width="2" fill="none" />
<path d="M2.0,39.0,10.0,38.5,18.5,38.0,27.0,37.5,35.0,36.5,43.0,36.5,51.5,36.0,60.5,36.0,69.0,35.5,77.5,35.0,85.5,34.5,93.5,33.5,101.5,33.0,109.5,32.0,117.0,31.0,124.5,30.5,132.5,29.0,140.0,28.5,148.0,27.5,155.5,26.5,164.0,26.0,172.0,26.0,180.0,25.5,188.0,25.5,197.0,25.5,205.5,25.5,213.5,25.5,221.0,25.0,229.0,25.0,237.0,24.5,245.0,24.0,253.0,23.5,260.5,23.0,267.5,22.5,275.0,22.0,282.5,21.0,290.5,21.0,298.5,20.5,306.5,20.0" stroke="black" stroke-width="2" fill="none" />
<path d="M308.0,8.0,300.0,8.5,292.0,9.0,284.5,9.5,276.5,10.5,268.5,11.5,261.0,12.5,253.0,13.5,245.5,14.0,237.0,14.5,228.5,15.0,220.0,15.5,211.5,16.5,203.0,17.5,195.0,18.0,187.5,19.0,179.0,19.5,170.5,20.5,162.5,21.0,155.0,21.5,147.0,22.0,139.0,22.5,131.5,23.0,124.0,23.0,116.0,23.5,108.0,24.5,100.5,24.5,92.5,24.5,84.0,24.5,76.0,25.5,68.0,26.0,59.5,26.0,51.5,26.0,43.5,26.0,36.0,26.5,28.0,26.5,20.0,27.0,13.0,27.5,5.0,28.0" stroke="black" stroke-width="2" fill="none" />
<path d="M2.5,27.5,10.0,20.0,17.5,12.0,25.5,4.5" stroke="black" stroke-width="2" fill="none" />
<path d="M19.5,3.5,11.5,11.0,3.0,19.0" stroke="black" stroke-width="2" fill="none" />
<path d="M4.0,17.5,12.0,16.5,20.5,16.0,28.5,15.0,37.0,14.5,45.0,14.0,53.0,13.5,61.0,14.0,69.0,13.5,77.5,13.0,85.5,12.0,93.0,12.0,100.5,11.5,108.0,11.0,115.5,11.0" stroke="black" stroke-width="2" fill="none" />
<path d="M34.5,5.5,26.5,12.5,19.0,20.0,11.5,27.5,4.0,34.5" stroke="black" stroke-width="2" fill="none" />
<path d="M3.5,33.5,11.5,32.5,19.5,31.5,27.5,31.0,36.0,31.0,44.5,31.0,52.0,31.0,60.0,31.0,68.5,31.0,76.5,30.5,84.5,30.0" stroke="black" stroke-width="2" fill="none" />
<path d="M12.0,4.5,4.5,12.0" stroke="black" stroke-width="2" fill="none" />
<path d="M5.5,10.0,14.0,9.5,22.0,8.5,29.5,8.0,37.5,7.5,45.0,7.0,52.0,6.0,59.0,5.5,66.5,5.0,74.5,4.0,82.5,3.5,90.5,3.5,99.0,3.0,107.5,2.5,115.5,2.0,123.5,1.0,131.5,1.0,139.5,0.0,147.0,-0.5,155.0,-1.0,162.5,-1.5,170.5,-1.5,179.0,-2.0,187.5,-2.0,196.0,-2.5,203.5,-3.5" stroke="black" stroke-width="2" fill="none" />
<path d="M204.5,121.0,197.0,121.5,189.0,122.0,181.0,122.5,173.0,123.0,165.0,123.0,157.5,123.5,149.5,123.5,141.0,123.5,132.0,123.5,124.0,123.5,116.0,124.0,108.0,124.0" stroke="black" stroke-width="2" fill="none" />
<path d="M74.0,118.0,65.5,125.0,57.5,132.0" stroke="black" stroke-width="2" fill="none" />
<path d="M68.5,137.5,60.0,145.0" stroke="black" stroke-width="2" fill="none" />
<path d="M70.0,148.0,70.0,156.0,70.5,164.0,70.5,172.0,71.5,180.0,70.5,188.0,71.0,195.5,71.5,203.5,74.5,212.0,71.5,215.5,71.0,228.5,75.0,219.5,83.0,219.5,91.5,218.0,99.5,215.0,108.0,211.0,113.5,209.5,121.5,208.5,131.5,204.0" stroke="black" stroke-width="2" fill="none" />
<path d="M194.0,173.0,186.5,180.5,189.0,177.5,194.0,164.0,189.0,161.5,191.5,150.5,191.0,142.5,186.0,137.5,185.0,140.5,178.0,150.5,185.0,143.5,179.5,136.0,175.5,122.0,167.5,122.5,159.0,123.5,150.5,122.5,143.0,123.0,135.5,123.0,127.5,122.5,119.5,122.5,112.0,122.0,103.5,122.0,95.5,122.0,87.0,122.5,79.0,121.5,71.0,129.5" stroke="black" stroke-width="2" fill="none" />
<path d="M72.5,124.0,70.5,132.0,70.5,140.5,75.5,146.5,77.5,154.5,81.5,162.5,85.5,170.5,86.0,178.5,86.0,187.0,83.0,195.0,91.0,203.0,89.0,209.0,81.0,212.5,78.0,216.0,72.0,230.0,73.0,242.0,78.0,238.0,86.5,235.0,95.0,229.0,97.0,234.5,103.0,229.5,111.0,224.5,117.5,220.5,122.5,217.0,130.0,212.0,141.0,215.0,146.0,222.0,154.0,224.0" stroke="black" stroke-width="2" fill="none" />
<path d="M87.5,173.5,81.0,155.5,76.0,147.5" stroke="black" stroke-width="2" fill="none" />
<path d="M59.5,122.0,67.5,115.0" stroke="black" stroke-width="2" fill="none" />
<path d="M10.0,106.0,2.0,107.0" stroke="black" stroke-width="2" fill="none" />
<path d="M4.0,73.0,12.0,72.0,19.5,71.5,27.0,71.0,35.5,70.5" stroke="black" stroke-width="2" fill="none" />
<path d="M42.5,62.0,34.5,62.5,27.0,63.0,19.0,63.5,10.5,63.5,2.5,64.0" stroke="black" stroke-width="2" fill="none" />
<path d="M5.0,58.0,13.0,57.5,20.5,56.5,28.0,56.0,35.0,55.0,43.0,54.5,51.5,54.0,60.0,53.5" stroke="black" stroke-width="2" fill="none" />
<path d="M92.5,20.0,84.5,20.5,76.5,21.0,68.5,21.5,61.0,22.0,53.0,22.5,45.5,23.0,37.5,23.5,29.5,23.5,21.0,24.0,12.5,24.0,4.5,24.5" stroke="black" stroke-width="2" fill="none" />
<path d="M5.5,19.5,13.5,19.0,21.5,19.0,29.5,19.5,38.0,19.5,46.5,19.0,54.0,19.0,61.5,18.5,69.5,18.0,77.0,18.0,85.0,17.5,93.0,17.0,101.0,16.0,109.0,16.0,117.0,16.0,124.5,16.0,131.5,15.5,139.0,15.0,146.5,14.5,154.5,14.0,162.5,13.0,170.5,12.5,178.5,11.5,187.0,10.5,195.5,10.0,203.5,9.0,212.5,8.0,221.0,7.5,229.0,6.5,236.5,6.0,244.0,5.5,252.0,5.5,260.5,5.0,268.5,5.0,276.0,5.0,284.0,4.0,292.5,3.5,300.0,2.5,308.0,1.5,316.0,1.0" stroke="black" stroke-width="2" fill="none" />
<path d="M218.0,133.0,216.5,141.0,216.5,149.0,216.5,157.0,219.5,165.0,209.0,178.5,205.0,186.5,203.0,195.0,202.0,203.5,200.5,211.0,202.0,219.5,208.0,227.5,204.5,231.0,207.5,231.0,208.0,233.5" stroke="black" stroke-width="2" fill="none" />
<path d="M4.0,14.5,12.0,14.5,21.0,14.5,29.0,14.0,36.5,13.5,45.0,13.0,52.5,12.5,60.5,12.0,68.5,11.5,76.5,11.0,84.0,10.5,92.0,9.0,99.5,8.5,107.0,7.5,115.0,6.0,122.5,5.5,131.0,5.0,139.0,4.5,147.0,4.0,154.5,3.0,162.5,3.0,170.5,2.5,178.5,2.0,187.0,2.0,195.5,2.5,204.0,2.0,212.0,1.5,220.5,1.0,228.5,1.0,236.5,1.0,245.0,0.5,253.0,0.0,260.5,-0.5,268.0,-1.5,275.5,-2.5,284.0,-3.0,292.0,-4.0,300.0,-4.5,308.0,-5.5,316.5,-6.0,324.5,-7.0,332.0,-7.0,340.0,-7.5,347.5,-7.5,355.5,-7.5,363.5,-8.0,371.0,-8.0,379.5,-8.0,388.0,-8.5,396.0,-9.5,404.0,-10.0,412.0,-10.5,420.0,-10.5,428.0,-11.5,436.0,-12.0,444.5,-13.0,452.5,-13.5,460.5,-14.0,468.0,-15.0,476.0,-15.5,484.0,-16.0,492.5,-16.0,500.0,-16.5,508.0,-17.0,516.0,-17.0" stroke="black" stroke-width="2" fill="none" />
<path d="M514.5,-29.0,507.0,-28.5,499.5,-27.5,492.0,-27.0,484.5,-26.5,476.5,-26.0,468.5,-25.0,460.5,-24.0,452.0,-23.5,444.0,-22.5,436.0,-22.0,428.0,-22.0,420.0,-22.0,411.5,-22.0,403.0,-21.5,395.0,-20.5,386.5,-20.0,378.0,-18.5,369.5,-17.5,361.5,-16.5,353.5,-16.5,345.5,-16.0,337.5,-16.0,330.0,-15.0,322.0,-14.5,314.0,-14.0,305.5,-13.5,297.5,-13.0,289.5,-13.0,281.5,-13.0,273.5,-13.0,265.5,-12.5,257.5,-12.0,249.5,-11.5,241.5,-11.0,234.0,-10.5,226.5,-10.5,218.5,-10.5,210.0,-10.5,201.5,-10.0,194.0,-9.5,186.5,-9.0,178.5,-8.0,170.5,-7.5,162.5,-6.5,154.5,-6.5,146.0,-6.0,138.0,-5.5,129.5,-5.0,122.0,-4.0,113.5,-3.5,105.0,-1.5,97.0,-0.5,89.0,1.0,81.0,1.5,73.0,2.0,65.5,2.0,58.0,2.0,51.5,2.0,44.5,3.0,36.5,3.5,28.5,3.5,21.0,4.0,13.0,4.0,5.0,4.5" stroke="black" stroke-width="2" fill="none" />
</svg>