<svg xmlns="http://www.w3.org/2000/svg" version="1.1"><polyline points="313.0,23.5,308.5,31.5,302.5,39.5,297.5,47.5,291.5,55.5,286.5,63.5,281.0,71.5,276.0,79.0,268.5,87.0,265.5,94.5,259.5,103.0,253.5,111.0,248.0,119.0,241.5,127.5,236.5,136.5,230.5,145.0,224.5,153.0,219.0,160.5,222.0,168.5,224.0,176.5,225.0,184.5,224.5,192.5,225.5,200.5,225.5,208.0,226.5,216.0,229.0,224.0,229.0,232.0,229.0,240.0,227.5,248.0,228.0,256.5,229.0,261.5,230.0,269.5,231.0,277.5,230.5,285.5,230.0,294.0,229.0,302.0,229.0,310.0,229.0,317.5,231.5,318.5,231.0,326.5,232.0,334.5,232.0,342.5,239.5,342.5,247.5,342.5,255.5,342.0,263.5,341.5,271.0,341.5,279.0,341.5,286.5,341.5,294.0,343.0,302.0,343.0,310.0,344.0,320.0,344.5,328.0,343.5,336.0,343.0,344.0,344.5,352.5,344.5,360.5,345.0,369.0,346.5,377.5,346.5,385.5,347.0,393.5,348.0,401.0,348.0,409.0,343.5" stroke="black" stroke-width="2" fill="none" />
<polyline points="403.0,347.5,394.5,355.0,386.5,362.5" stroke="black" stroke-width="2" fill="none" />
<polyline points="395.0,358.0,402.5,350.5,410.5,342.0,418.0,334.5,426.0,327.0,434.0,319.5,441.5,311.5,450.0,304.0,458.5,296.5,466.5,289.0,474.5,281.5,482.5,273.5,490.5,266.0,498.5,258.5,506.5,250.5,514.5,243.0" stroke="black" stroke-width="2" fill="none" />
<polyline points="514.5,250.5,506.5,258.5,498.5,266.0,490.5,274.0,482.5,282.0,474.5,290.5,466.5,298.0,458.5,305.0,450.5,312.0,443.0,319.5,435.0,327.0,427.0,334.5,419.0,342.5,411.5,350.0,403.5,357.5" stroke="black" stroke-width="2" fill="none" />
<polyline points="412.5,358.0,420.5,350.5,428.5,343.5,436.5,336.0,444.5,328.0,452.5,320.5,460.0,313.5,468.0,306.5,475.5,299.0,483.0,290.5,490.0,282.0,497.5,273.5,505.5,265.5,513.0,258.0" stroke="black" stroke-width="2" fill="none" />
<polyline points="516.5,268.0,508.0,275.5,499.0,283.0,491.0,291.0,483.0,298.5,475.0,306.0,467.5,313.5,460.5,321.0,453.0,329.0,445.0,336.5,437.0,344.5,429.5,351.5,421.0,358.5" stroke="black" stroke-width="2" fill="none" />
<polyline points="443.0,360.0,451.5,352.5,459.5,345.0,467.5,337.5,475.5,330.0,483.5,322.0,492.0,314.0,499.5,306.0,507.0,298.5,515.0,291.5" stroke="black" stroke-width="2" fill="none" />
<polyline points="517.0,299.0,509.0,306.5,500.5,314.5,492.0,323.0,484.0,331.0,475.5,339.0,467.5,346.5,460.0,354.0,452.0,362.0" stroke="black" stroke-width="2" fill="none" />
<polyline points="459.5,361.5,467.5,353.5,476.0,345.5,484.5,337.5,492.5,329.5,500.5,321.5,508.0,314.0,516.5,306.5" stroke="black" stroke-width="2" fill="none" />
<polyline points="517.5,314.5,509.0,322.0,501.0,330.5,492.5,338.0,484.0,345.5,475.5,353.0,468.0,360.5" stroke="black" stroke-width="2" fill="none" />
<polyline points="460.5,362.0,468.0,361.0,475.5,360.5,483.5,359.5,491.5,358.5,500.0,358.0,507.5,358.0,515.0,359.0" stroke="black" stroke-width="2" fill="none" />
<polyline points="513.0,354.0,505.0,362.0" stroke="black" stroke-width="2" fill="none" />
<polyline points="499.5,362.0,507.0,354.0,515.0,346.5" stroke="black" stroke-width="2" fill="none" />
<polyline points="516.5,339.5,508.5,347.5,500.5,355.0,492.0,362.5" stroke="black" stroke-width="2" fill="none" />
<polyline points="484.5,361.5,492.5,354.0,500.5,346.5,508.5,339.5,516.0,332.0" stroke="black" stroke-width="2" fill="none" />
<polyline points="516.0,323.0,508.5,331.0,501.0,338.5,493.0,346.0,485.0,353.0,477.0,360.0" stroke="black" stroke-width="2" fill="none" />
<polyline points="470.0,351.5,478.5,351.5,486.0,351.0,493.5,351.0,500.5,350.5,508.5,350.0,516.0,350.5" stroke="black" stroke-width="2" fill="none" />
<polyline points="513.0,320.0,505.5,320.5,497.5,321.0" stroke="black" stroke-width="2" fill="none" />
<polyline points="498.5,314.5,507.0,313.5,515.0,313.0" stroke="black" stroke-width="2" fill="none" />
<polyline points="515.5,304.0,508.0,304.0" stroke="black" stroke-width="2" fill="none" />
<polyline points="507.0,296.5,515.0,296.0" stroke="black" stroke-width="2" fill="none" />
<polyline points="515.5,283.0,508.0,290.5,499.5,298.5,491.0,306.0,483.5,314.0,475.5,321.5,468.0,329.0,460.5,336.5,453.0,344.5,445.0,352.5,436.5,360.5" stroke="black" stroke-width="2" fill="none" />
<polyline points="429.5,359.0,437.5,352.0,446.0,344.0,454.0,336.5,462.0,329.0,470.0,322.0,478.0,314.5,485.5,306.5,493.0,298.5,500.0,291.0,508.0,283.0,516.0,275.5" stroke="black" stroke-width="2" fill="none" />
<polyline points="514.5,234.0,506.5,242.0,498.0,250.0,490.5,258.0,482.5,265.5,474.5,273.5,466.5,281.0,459.0,288.0,451.0,295.5,443.5,302.5,435.5,310.0,427.0,317.5,419.0,325.0" stroke="black" stroke-width="2" fill="none" />
<polyline points="411.0,326.0,419.0,325.5,427.0,324.5,435.0,323.5,443.0,322.5,451.0,322.0,459.5,321.0,467.5,320.5,475.5,320.0,484.0,320.0,491.5,319.5,500.0,319.0,508.0,319.0,516.5,319.0" stroke="black" stroke-width="2" fill="none" />
<polyline points="517.0,328.5,509.0,328.0,501.5,328.5,493.5,329.0" stroke="black" stroke-width="2" fill="none" />
<polyline points="484.0,336.0,492.0,336.0,501.0,336.0,509.0,336.0,517.0,336.0" stroke="black" stroke-width="2" fill="none" />
<polyline points="515.5,345.0,507.5,345.0,499.5,345.0,492.0,344.5,484.5,344.5" stroke="black" stroke-width="2" fill="none" />
<polyline points="442.0,293.5,449.5,285.5,457.5,278.0,465.5,270.0,473.5,262.5,482.0,255.5,490.0,248.5,498.5,241.5,507.0,235.0,515.0,227.5" stroke="black" stroke-width="2" fill="none" />
<polyline points="514.0,218.0,506.0,226.0,498.0,233.5,490.5,241.0,483.0,248.5,475.0,256.0,467.5,263.5,460.0,271.5" stroke="black" stroke-width="2" fill="none" />
<polyline points="453.5,270.0,461.0,269.5,469.0,269.0,477.0,268.5,484.5,267.5,492.5,267.0,501.0,267.0,509.0,266.0,517.5,265.5" stroke="black" stroke-width="2" fill="none" />
<polyline points="468.5,258.5,476.0,250.5,484.0,242.5,491.5,234.5,499.0,226.5,506.0,219.0,514.0,211.5" stroke="black" stroke-width="2" fill="none" />
<polyline points="515.0,202.0,507.0,209.5,499.0,217.5,491.0,225.5,483.0,234.0,475.0,241.5,468.0,249.5" stroke="black" stroke-width="2" fill="none" />
<polyline points="461.5,244.0,470.0,244.0,477.5,243.5,485.0,243.0,493.0,242.5,501.0,242.0,508.5,241.5,516.5,241.0" stroke="black" stroke-width="2" fill="none" />
<polyline points="513.0,193.5,505.0,201.0,497.5,208.5,489.5,216.0,482.0,224.0,474.5,231.5,467.0,240.0" stroke="black" stroke-width="2" fill="none" />
<polyline points="468.0,232.5,475.5,224.5,483.0,217.5,490.5,210.0,498.0,203.0,505.5,196.0,513.0,189.0" stroke="black" stroke-width="2" fill="none" />
<polyline points="514.0,181.5,506.0,189.5,498.0,196.5,489.5,203.5,482.0,210.5,474.5,218.5" stroke="black" stroke-width="2" fill="none" />
<polyline points="468.0,217.0,476.0,209.5,484.0,201.5,492.0,193.5,500.0,186.0,507.5,179.0,515.5,171.5" stroke="black" stroke-width="2" fill="none" />
<polyline points="517.0,161.5,509.0,169.0,500.5,177.0,492.0,185.0,483.0,193.0,474.5,200.5,466.5,208.5" stroke="black" stroke-width="2" fill="none" />
<polyline points="464.5,213.5,472.5,212.5,481.5,211.5,490.0,211.0,498.0,211.0,505.5,211.5,514.5,211.5" stroke="black" stroke-width="2" fill="none" />
<polyline points="513.0,167.5,505.0,168.0" stroke="black" stroke-width="2" fill="none" />
<polyline points="505.5,160.0,513.5,159.5" stroke="black" stroke-width="2" fill="none" />
<polyline points="518.0,155.0,509.5,163.0,501.0,170.0,492.5,177.0,484.0,184.5,475.5,192.0,467.0,199.5" stroke="black" stroke-width="2" fill="none" />
<polyline points="465.0,190.5,473.0,190.0,481.0,189.0,489.5,188.0,498.0,187.0,507.0,186.5,515.0,186.0" stroke="black" stroke-width="2" fill="none" />
<polyline points="518.0,150.0,509.5,156.5,500.5,163.5,492.0,170.0,483.5,177.0,475.5,183.5" stroke="black" stroke-width="2" fill="none" />
<polyline points="476.5,178.0,485.0,170.5,493.0,163.0,501.0,155.5,509.0,147.5,516.5,140.0" stroke="black" stroke-width="2" fill="none" />
<polyline points="515.5,133.0,507.5,140.5,499.5,147.5,490.5,155.0,482.0,162.5,474.0,169.5,465.5,177.0" stroke="black" stroke-width="2" fill="none" />
<polyline points="468.0,173.5,476.5,173.0,484.5,173.0,492.5,173.0,500.5,172.5,508.0,172.0,517.0,170.5" stroke="black" stroke-width="2" fill="none" />
<polyline points="515.5,151.5,507.5,152.5,499.5,152.5" stroke="black" stroke-width="2" fill="none" />
<polyline points="501.5,144.5,509.5,144.0,516.5,144.0" stroke="black" stroke-width="2" fill="none" />
<polyline points="515.5,125.5,508.0,133.0,500.0,140.5,491.5,147.5,483.0,154.5,475.0,161.5,467.0,168.5" stroke="black" stroke-width="2" fill="none" />
<polyline points="459.5,164.0,467.5,157.0" stroke="black" stroke-width="2" fill="none" />
<polyline points="467.5,156.5,476.0,156.0,484.0,156.0,492.5,155.0,501.0,154.5,509.5,154.0,517.0,153.5" stroke="black" stroke-width="2" fill="none" />
<polyline points="517.0,137.0,509.0,137.0,501.0,137.5,493.5,138.0" stroke="black" stroke-width="2" fill="none" />
<polyline points="485.5,127.5,493.5,127.0,501.5,126.5,509.5,126.5,517.5,126.5" stroke="black" stroke-width="2" fill="none" />
<polyline points="514.5,118.0,506.5,125.5,499.0,132.5,491.0,139.5,483.0,146.5,475.5,153.0" stroke="black" stroke-width="2" fill="none" />
<polyline points="469.0,149.5,477.5,149.0,485.5,148.0,493.5,147.0,502.0,146.0,510.0,145.5,518.0,145.0" stroke="black" stroke-width="2" fill="none" />
<polyline points="515.5,106.5,507.0,114.0,498.5,121.5,490.5,129.0,482.5,136.5,474.5,144.0" stroke="black" stroke-width="2" fill="none" />
<polyline points="466.5,144.5,475.0,137.0,483.0,129.0,491.0,121.0,499.0,113.5,506.0,106.0,514.5,98.5" stroke="black" stroke-width="2" fill="none" />
<polyline points="515.0,89.0,507.0,96.5,499.0,104.0,491.0,112.0,482.5,120.0,474.5,127.5,466.5,135.5" stroke="black" stroke-width="2" fill="none" />
<polyline points="460.0,135.5,467.5,128.0,475.0,120.5,483.0,112.5,491.5,105.0,499.5,97.0,507.0,89.0,515.0,81.5" stroke="black" stroke-width="2" fill="none" />
<polyline points="516.5,75.5,508.5,82.5,500.0,89.5,492.5,96.5,485.0,104.5,477.5,112.0,469.5,120.0" stroke="black" stroke-width="2" fill="none" />
<polyline points="468.0,116.5,476.5,116.0,485.0,115.0,493.0,114.5,501.5,114.5,509.0,114.0,516.5,113.5" stroke="black" stroke-width="2" fill="none" />
<polyline points="516.5,119.0,508.0,119.0,499.5,119.5,491.5,120.0,484.5,120.5,476.5,121.0" stroke="black" stroke-width="2" fill="none" />
<polyline points="476.0,114.5,484.5,113.5,492.5,113.5,500.5,113.0,508.0,113.0,516.5,112.0" stroke="black" stroke-width="2" fill="none" />
<polyline points="516.5,103.5,509.0,103.5,501.0,103.5,492.5,104.0,484.5,105.0,476.0,105.5" stroke="black" stroke-width="2" fill="none" />
<polyline points="468.5,112.5,477.0,104.5,485.0,97.5,492.5,90.0,500.0,82.5,508.5,75.5,516.0,68.0" stroke="black" stroke-width="2" fill="none" />
<polyline points="517.0,59.0,508.5,67.0,499.5,74.5,491.5,82.5,484.0,90.5,476.0,98.0,468.5,105.0" stroke="black" stroke-width="2" fill="none" />
<polyline points="460.5,103.5,468.0,96.5,475.5,89.0,483.0,82.0,490.5,74.0,498.0,66.0,506.5,58.0,514.0,50.5" stroke="black" stroke-width="2" fill="none" />
<polyline points="514.0,43.0,506.5,51.0,499.0,58.0,491.0,65.5,483.0,73.0,475.5,80.5,468.0,87.5,460.5,95.0,453.0,102.5" stroke="black" stroke-width="2" fill="none" />
<polyline points="451.0,95.5,459.0,88.0,467.0,80.0,475.0,72.5,482.5,65.0,490.5,57.5,498.5,50.0,506.5,42.5,515.0,34.5" stroke="black" stroke-width="2" fill="none" />
<polyline points="516.5,26.5,508.5,34.0,500.0,41.5,492.5,49.0,484.5,57.0,477.0,64.5,468.5,72.5,460.5,79.5,452.0,87.0,444.0,94.5" stroke="black" stroke-width="2" fill="none" />
<polyline points="445.5,101.0,453.5,101.0,461.0,100.5,469.0,99.5,477.5,98.0,485.0,97.0,493.0,96.5,501.0,96.0,508.5,95.5,517.0,95.0" stroke="black" stroke-width="2" fill="none" />
<polyline points="516.5,95.0,509.0,95.0,501.0,95.5,492.5,96.0,484.0,96.0,476.0,96.0,467.5,96.5" stroke="black" stroke-width="2" fill="none" />
<polyline points="460.5,88.5,468.5,88.0,476.0,86.5,483.5,86.0,491.0,85.5,498.5,85.0,506.5,85.0,515.0,84.5" stroke="black" stroke-width="2" fill="none" />
<polyline points="513.5,136.5,505.0,137.5,497.0,138.5,489.0,138.5,481.5,138.5,474.0,138.5,466.0,138.5,458.5,139.0" stroke="black" stroke-width="2" fill="none" />
<polyline points="460.0,131.5,467.5,131.5,475.5,131.0,483.0,131.0,490.0,131.0,498.0,130.5,505.5,130.5,513.0,129.5" stroke="black" stroke-width="2" fill="none" />
<polyline points="515.5,177.5,507.0,178.5,498.5,179.5,490.0,180.5,482.0,181.5,473.0,182.5,465.0,183.5" stroke="black" stroke-width="2" fill="none" />
<polyline points="457.5,198.5,465.5,198.0,474.0,196.5,482.5,195.5,491.5,194.5,500.0,194.0,508.5,193.5,516.5,193.0" stroke="black" stroke-width="2" fill="none" />
<polyline points="515.5,219.5,507.5,219.5,499.0,220.0,491.5,220.0,483.5,219.5,475.5,219.5,467.5,220.0" stroke="black" stroke-width="2" fill="none" />
<polyline points="461.5,229.5,469.5,229.0,477.5,228.5,485.5,228.0,493.5,228.0,502.0,227.5,510.5,227.0,518.5,226.5" stroke="black" stroke-width="2" fill="none" />
<polyline points="516.0,250.0,507.5,250.0,499.5,250.5,492.0,251.0,484.0,251.5,476.0,252.5,468.0,253.0,460.0,253.5" stroke="black" stroke-width="2" fill="none" />
<polyline points="452.5,260.0,461.0,259.5,468.5,259.0,476.5,259.0,484.5,259.0,492.5,259.0,500.5,258.5,508.5,258.0,517.0,258.0" stroke="black" stroke-width="2" fill="none" />
<polyline points="516.0,234.0,509.0,234.5,501.5,235.0,493.5,235.0,485.5,235.0,477.0,235.5,468.5,236.5,460.0,237.0" stroke="black" stroke-width="2" fill="none" />
<polyline points="449.5,231.0,441.0,213.0" stroke="black" stroke-width="2" fill="none" />
<polyline points="444.5,218.5,447.5,226.5,451.5,236.0,453.5,244.0,456.5,251.5,456.5,259.5,445.5,265.5,453.5,262.0,461.5,256.5" stroke="black" stroke-width="2" fill="none" />
<polyline points="451.5,277.0,460.0,276.0,468.5,275.5,476.5,275.5,485.0,275.5,492.5,275.5,501.0,275.0,509.0,274.0,517.0,273.5" stroke="black" stroke-width="2" fill="none" />
<polyline points="517.0,201.5,508.5,202.5,500.0,203.5,492.5,204.0,484.0,205.0,476.5,205.5,468.5,206.0,460.5,206.5" stroke="black" stroke-width="2" fill="none" />
<polyline points="465.0,192.5,457.0,200.5,449.5,193.5,442.5,181.5" stroke="black" stroke-width="2" fill="none" />
<polyline points="442.5,180.0,447.5,188.5,454.0,199.5,459.0,208.0,463.0,216.5,464.5,225.0,461.0,231.0,454.0,236.5,462.0,230.5" stroke="black" stroke-width="2" fill="none" />
<polyline points="412.5,228.5,411.5,227.5,409.5,229.5,409.5,237.0,409.5,244.5,411.0,252.5" stroke="black" stroke-width="2" fill="none" />
<polyline points="419.0,257.0,419.0,261.0,420.5,269.0,422.0,276.5,423.0,284.5,416.5,292.5,411.0,300.0,411.0,308.5,410.0,317.0,409.0,325.0,409.0,333.5,411.0,338.5" stroke="black" stroke-width="2" fill="none" />
<polyline points="410.0,334.0,418.0,333.0,425.5,332.5,434.0,332.5,442.5,332.0,451.0,332.0,459.5,330.5,468.0,330.0,476.0,329.0,484.0,328.0,492.0,327.5,500.5,327.0,509.0,326.0,517.0,325.5" stroke="black" stroke-width="2" fill="none" />
<polyline points="516.0,281.5,508.0,282.0,499.5,282.0,492.0,282.5,484.0,283.0,476.0,283.5,468.0,284.0,459.5,284.5,451.0,285.0,443.0,285.0,435.0,285.0" stroke="black" stroke-width="2" fill="none" />
<polyline points="427.5,294.5,435.5,294.0,443.0,293.5,450.5,292.5,458.5,291.0,466.5,290.0,474.0,289.0,481.5,289.0,489.0,289.0,496.5,288.5,504.5,288.5,512.5,287.5" stroke="black" stroke-width="2" fill="none" />
<polyline points="518.5,302.5,510.0,302.5,502.0,303.0,493.0,304.0,484.5,305.0,476.0,306.0,468.0,306.5,459.5,307.0,452.0,308.0,444.0,308.5,435.5,308.5,427.5,308.5" stroke="black" stroke-width="2" fill="none" />
<polyline points="427.0,301.5,435.5,300.5,443.5,300.5,452.0,300.0,460.0,299.5,467.5,299.0,475.5,298.0,483.0,297.5,491.5,296.5,499.5,295.0,507.5,295.0,515.5,294.5" stroke="black" stroke-width="2" fill="none" />
<polyline points="515.5,310.5,507.5,311.5,500.0,312.0,492.5,313.0,484.5,313.0,476.5,313.5,468.0,314.0,459.5,315.0,451.0,315.5,443.5,315.5,435.5,316.0,427.5,316.0,419.5,316.0,411.5,316.5" stroke="black" stroke-width="2" fill="none" />
<polyline points="411.0,320.5,419.0,318.5" stroke="black" stroke-width="2" fill="none" />
<polyline points="424.5,310.5,424.5,302.5,423.5,294.5,418.5,292.0,410.5,298.0" stroke="black" stroke-width="2" fill="none" />
<polyline points="421.0,290.5,412.0,300.5,412.5,300.0,420.5,291.0,429.5,291.5,437.5,289.5,445.0,288.0" stroke="black" stroke-width="2" fill="none" />
<polyline points="395.0,346.0,387.0,353.5,379.0,362.0" stroke="black" stroke-width="2" fill="none" />
<polyline points="373.5,361.5,381.5,354.5,389.5,347.5" stroke="black" stroke-width="2" fill="none" />
<polyline points="378.0,346.5,370.0,354.0,361.5,361.0" stroke="black" stroke-width="2" fill="none" />
<polyline points="356.0,363.0,364.0,355.0,372.0,347.5" stroke="black" stroke-width="2" fill="none" />
<polyline points="362.0,348.0,354.5,355.5,347.0,362.5" stroke="black" stroke-width="2" fill="none" />
<polyline points="340.0,365.0,348.0,357.5,355.5,350.0" stroke="black" stroke-width="2" fill="none" />
<polyline points="348.0,348.5,340.5,356.0,333.0,363.0" stroke="black" stroke-width="2" fill="none" />
<polyline points="323.0,363.5,331.0,356.5,338.5,349.5" stroke="black" stroke-width="2" fill="none" />
<polyline points="333.0,347.5,325.0,355.5,317.0,362.5" stroke="black" stroke-width="2" fill="none" />
<polyline points="309.0,362.5,317.0,354.5,325.5,346.5" stroke="black" stroke-width="2" fill="none" />
<polyline points="315.5,349.5,308.0,356.5,299.5,364.0" stroke="black" stroke-width="2" fill="none" />
<polyline points="290.5,363.5,298.5,356.0,306.5,349.0" stroke="black" stroke-width="2" fill="none" />
<polyline points="298.0,348.5,290.0,356.0,281.5,363.5" stroke="black" stroke-width="2" fill="none" />
<polyline points="274.5,363.0,282.5,355.0,290.5,347.0" stroke="black" stroke-width="2" fill="none" />
<polyline points="281.5,349.5,273.5,357.0,266.0,364.0" stroke="black" stroke-width="2" fill="none" />
<polyline points="258.5,360.5,266.0,352.5,273.5,345.0" stroke="black" stroke-width="2" fill="none" />
<polyline points="268.0,346.5,260.0,353.5,252.5,360.5" stroke="black" stroke-width="2" fill="none" />
<polyline points="241.5,360.5,250.0,353.5,258.0,346.0" stroke="black" stroke-width="2" fill="none" />
<polyline points="251.0,349.5,242.5,357.0,234.5,364.5" stroke="black" stroke-width="2" fill="none" />
<polyline points="226.0,360.5,234.0,353.0,242.0,345.0" stroke="black" stroke-width="2" fill="none" />
<polyline points="234.5,348.0,227.0,356.0,218.5,364.0" stroke="black" stroke-width="2" fill="none" />
<polyline points="211.0,362.0,219.0,354.5,226.5,346.5,234.5,339.0" stroke="black" stroke-width="2" fill="none" />
<polyline points="225.5,339.5,218.0,347.0,210.5,354.5,202.5,362.5" stroke="black" stroke-width="2" fill="none" />
<polyline points="195.0,361.5,203.0,353.5,211.0,346.0,218.5,338.0,226.5,330.0" stroke="black" stroke-width="2" fill="none" />
<polyline points="227.5,323.5,219.5,331.0,211.0,339.0,203.0,346.5,195.0,354.0,187.0,361.0" stroke="black" stroke-width="2" fill="none" />
<polyline points="181.5,361.0,189.5,353.0,197.5,345.0,206.0,338.0,214.0,331.0" stroke="black" stroke-width="2" fill="none" />
<polyline points="212.0,324.0,204.0,331.5,196.0,338.5,188.5,345.5,181.0,353.5,173.0,361.5" stroke="black" stroke-width="2" fill="none" />
<polyline points="162.5,360.5,171.0,353.5,179.5,346.0,188.0,338.5,196.0,330.5,204.5,323.0" stroke="black" stroke-width="2" fill="none" />
<polyline points="194.0,324.5,186.0,332.5,177.5,340.0,170.0,347.0,162.0,354.0,153.5,361.5" stroke="black" stroke-width="2" fill="none" />
<polyline points="148.0,360.0,156.0,352.5,163.5,345.0,171.5,337.0,179.5,329.5,187.5,322.0" stroke="black" stroke-width="2" fill="none" />
<polyline points="177.5,322.5,170.0,330.0,162.5,338.0,155.0,346.0,147.0,354.5,139.0,362.5" stroke="black" stroke-width="2" fill="none" />
<polyline points="133.0,361.5,141.0,353.5,148.5,345.5,157.0,337.5,165.5,330.0,173.5,322.5" stroke="black" stroke-width="2" fill="none" />
<polyline points="163.0,321.5,154.5,329.0,146.5,336.5,139.0,344.5,132.0,352.0,125.0,359.5" stroke="black" stroke-width="2" fill="none" />
<polyline points="115.5,360.5,123.0,353.5,131.0,346.0,139.0,338.5,147.5,331.5,156.0,324.0" stroke="black" stroke-width="2" fill="none" />
<polyline points="157.0,316.0,149.0,323.5,142.0,331.5,134.0,338.5,125.5,345.5,117.0,353.0,109.0,360.5" stroke="black" stroke-width="2" fill="none" />
<polyline points="99.5,360.0,108.0,353.0,116.0,345.5,124.5,338.0,132.5,330.5,140.5,323.0,148.5,315.0" stroke="black" stroke-width="2" fill="none" />
<polyline points="138.5,315.0,130.5,322.0,122.5,329.5,114.5,336.5,106.0,344.0,98.0,351.5,90.0,359.5" stroke="black" stroke-width="2" fill="none" />
<polyline points="84.0,361.0,92.0,354.0,100.0,346.5,107.5,339.5,115.5,332.0,123.5,324.0,131.0,316.0" stroke="black" stroke-width="2" fill="none" />
<polyline points="134.0,309.0,126.5,316.5,118.5,323.5,110.5,330.5,102.0,337.5,93.5,344.5,85.5,351.5,77.0,359.0" stroke="black" stroke-width="2" fill="none" />
<polyline points="66.0,360.5,74.0,353.0,82.5,345.5,90.5,338.5,99.0,331.5,107.0,324.0,115.0,316.0,123.0,308.5" stroke="black" stroke-width="2" fill="none" />
<polyline points="115.5,307.0,107.5,314.0,99.5,322.0,92.0,329.5,84.0,337.5,76.0,345.5,68.5,352.5,60.5,359.5" stroke="black" stroke-width="2" fill="none" />
<polyline points="51.5,358.0,59.5,350.5,68.0,342.5,76.0,335.0,83.5,328.0,91.5,320.0,99.5,312.5,107.5,305.0,116.0,297.5" stroke="black" stroke-width="2" fill="none" />
<polyline points="109.0,300.5,100.5,308.0,92.0,315.0,83.5,322.5,75.0,330.5,67.0,338.0,59.0,345.5,51.0,352.5,43.0,360.0" stroke="black" stroke-width="2" fill="none" />
<polyline points="35.0,359.5,43.0,352.0,51.5,345.0,59.5,338.0,67.5,330.5,75.5,322.5,84.0,314.5,92.0,307.0,100.0,299.5" stroke="black" stroke-width="2" fill="none" />
<polyline points="99.0,291.5,91.0,299.5,83.0,307.0,75.5,314.5,68.0,322.0,61.0,329.5,52.5,337.0,44.5,344.5,37.0,352.0,29.0,359.5" stroke="black" stroke-width="2" fill="none" />
<polyline points="20.0,358.0,28.5,350.5,37.0,344.0,45.0,337.0,53.0,330.0,61.5,323.0,69.5,316.0,77.5,308.5,85.0,301.0,93.0,294.0" stroke="black" stroke-width="2" fill="none" />
<polyline points="85.0,290.5,77.0,297.5,69.0,305.5,60.5,313.5,52.0,321.0,44.0,328.5,36.0,336.5,28.0,344.0,19.5,351.5,11.5,359.0" stroke="black" stroke-width="2" fill="none" />
<polyline points="4.5,358.5,12.5,352.0,20.0,345.0,27.5,337.5,35.0,329.5,43.5,322.0,52.0,314.5,60.5,307.0,69.0,300.0,77.0,292.5" stroke="black" stroke-width="2" fill="none" />
<polyline points="75.0,281.5,67.5,289.0,59.5,296.5,52.0,304.5,44.0,313.0,36.0,320.5,28.5,328.5,20.5,336.5,12.5,344.0,3.5,352.0" stroke="black" stroke-width="2" fill="none" />
<polyline points="3.0,350.5,11.0,350.0,18.5,349.0,26.0,348.0,34.5,347.5,43.0,346.5,51.0,346.0,59.5,346.0,68.0,345.5,77.0,345.5,85.0,345.0,93.5,344.5,100.5,344.0,108.0,344.0,115.5,343.5,123.0,343.5,131.0,342.5,139.5,342.0,148.0,341.5,155.5,341.0,163.5,340.5,171.5,340.0,179.0,339.5,186.5,338.5,194.5,337.0,202.5,336.0,210.0,335.0,217.5,335.0,225.0,335.0,232.5,334.5,240.5,334.5,248.5,333.5,257.5,332.5,266.0,332.0,274.0,332.0,281.5,332.5,290.5,332.5,299.0,332.5,307.5,332.5,316.0,332.5,324.0,332.0,332.0,331.5,339.5,331.5,347.5,330.5,356.0,329.5,364.5,328.0,371.5,327.5,379.0,326.5,387.0,325.5,394.5,324.0,403.0,323.5,410.5,323.0,418.5,323.0,427.0,323.0,435.5,323.5,443.5,323.0,452.0,322.5,460.5,322.0,469.5,321.5,478.0,321.0,486.5,320.5,494.5,320.0,502.0,319.0,509.5,318.5,517.0,317.5" stroke="black" stroke-width="2" fill="none" />
<polyline points="515.0,160.5,507.0,161.0,499.0,161.5,490.5,162.0,482.5,163.0,474.0,164.0,466.0,165.0,458.0,165.0" stroke="black" stroke-width="2" fill="none" />
<polyline points="437.5,161.0,434.5,169.0" stroke="black" stroke-width="2" fill="none" />
<polyline points="435.0,163.5,421.0,157.0" stroke="black" stroke-width="2" fill="none" />
<polyline points="412.5,163.0,420.0,175.0" stroke="black" stroke-width="2" fill="none" />
<polyline points="414.5,172.0,417.5,180.0,421.5,193.5,426.0,198.5,419.0,209.5,421.5,212.5,424.5,221.0,430.0,226.0,430.0,238.5,432.0,239.0,434.0,247.0,436.0,248.0,440.0,258.0,442.0,266.0,444.5,274.0,446.0,282.0" stroke="black" stroke-width="2" fill="none" />
<polyline points="515.5,325.5,508.0,325.5,500.0,326.0,492.0,326.0,483.5,326.5,475.5,327.0,467.5,327.0,459.5,327.5,452.0,327.5,444.0,328.0,435.5,329.0,427.5,329.0,419.5,329.5,411.5,330.0,404.0,330.5,395.5,330.5,387.5,331.5,379.5,332.0,372.0,333.0,364.5,333.5,356.0,334.5,348.0,335.0,339.5,336.0,331.5,337.5,323.0,338.5,315.5,338.5,307.5,339.0,299.5,339.5,292.0,339.5,284.5,339.0,276.5,339.5,269.5,340.0,262.0,340.0,254.5,340.5,246.0,340.5,238.0,341.0,229.0,342.0,220.5,343.0,212.0,344.0,204.0,344.5,195.5,345.0,188.0,346.0,180.0,346.5,171.5,346.5,163.5,346.5,155.5,347.0,148.0,348.0,140.0,348.5,132.0,349.0,123.5,349.5,115.0,350.5,106.5,351.0,98.5,352.0,90.5,352.5,82.5,353.0,74.5,353.5,66.5,354.0,59.0,354.5,51.0,355.0,43.5,356.0,35.5,356.5,28.0,357.0,20.5,358.0,12.5,358.5,4.0,359.0" stroke="black" stroke-width="2" fill="none" />
<polyline points="3.5,361.5,11.5,361.0,19.0,361.0,26.5,360.5,34.0,360.5,41.5,360.0,49.5,359.0,57.5,358.0,66.0,357.5,74.5,357.5,83.0,357.0,90.5,356.0" stroke="black" stroke-width="2" fill="none" />
<polyline points="75.0,348.5,67.0,349.5,58.5,350.5,50.5,351.5,42.0,352.0,34.5,353.0,27.0,353.5,19.0,354.0,11.0,354.5,3.0,355.0" stroke="black" stroke-width="2" fill="none" />
<polyline points="3.5,346.5,11.5,346.0,20.0,345.5,28.0,345.0,35.5,344.0,43.5,343.5" stroke="black" stroke-width="2" fill="none" />
<polyline points="4.5,344.0,12.5,336.5,20.5,328.5,28.0,321.0,35.0,313.0,42.5,305.5,50.5,297.5,58.5,290.0,66.5,283.0" stroke="black" stroke-width="2" fill="none" />
<polyline points="65.0,274.0,56.5,282.0,49.5,290.0,42.0,298.0,35.0,306.0,27.5,313.5,19.5,321.0,11.5,328.5,3.5,336.0" stroke="black" stroke-width="2" fill="none" />
<polyline points="2.5,337.0,10.5,337.0,18.5,336.5,26.5,336.0,34.0,336.0" stroke="black" stroke-width="2" fill="none" />
<polyline points="27.5,328.5,20.0,329.0,12.5,329.5,4.0,329.5" stroke="black" stroke-width="2" fill="none" />
<polyline points="2.0,328.0,11.0,321.0,19.5,313.5,26.5,305.5,34.0,297.5,42.0,289.5,49.5,281.5,57.5,274.0" stroke="black" stroke-width="2" fill="none" />
<polyline points="59.0,268.0,51.0,275.5,43.0,282.5,35.0,289.5,27.0,297.0,19.0,304.0,11.0,311.5,2.5,319.0" stroke="black" stroke-width="2" fill="none" />
<polyline points="3.0,318.5,10.5,318.0,18.0,317.5,26.0,317.5,33.5,317.0,41.5,316.0,49.5,315.5,58.0,315.0,66.0,313.5,73.5,313.0,81.5,312.5,89.5,312.0,98.0,312.0,106.5,311.5,114.5,311.5,122.5,310.5,130.5,310.0,138.5,309.0,146.5,308.0,155.0,307.0,163.5,306.5,171.5,306.0,179.5,306.0,187.5,306.0,195.5,305.5,203.0,305.5,211.5,305.0,220.0,304.0,228.5,303.5,236.5,303.0" stroke="black" stroke-width="2" fill="none" />
<polyline points="236.0,318.0,228.5,318.5,221.0,319.5,213.0,320.5,205.0,321.0,196.5,321.5,188.0,321.5,180.0,322.0,172.0,322.5,164.0,323.0,156.0,324.0,147.5,324.5,139.5,325.0,131.0,325.5,123.0,326.0,114.5,326.0,107.0,326.5,99.0,327.0,91.5,328.0,84.0,328.5,75.5,329.0,66.5,329.0,58.0,329.5,50.5,330.0,42.5,330.5,34.0,331.5,26.0,332.5,18.0,333.0,9.5,333.0,1.5,333.5" stroke="black" stroke-width="2" fill="none" />
<polyline points="2.5,341.0,10.5,340.5,18.5,340.5,26.5,339.5,34.0,339.0,41.5,339.0,49.5,338.5,57.5,338.0,65.0,338.0,73.0,338.0,81.0,337.5,89.0,337.0,97.5,336.5,106.0,336.0,114.5,335.5,123.5,335.0,132.0,334.0,140.5,334.0,149.0,334.0,157.5,333.5,165.5,333.0,173.5,332.5,181.0,332.0,188.5,332.0,196.0,332.0,203.0,331.5,211.0,330.5,218.5,329.5,226.0,329.0,233.5,328.5,241.0,328.5,249.0,327.5,258.0,326.5,266.0,325.5,274.5,324.5,283.0,323.5,291.5,322.5,299.5,321.5,308.0,321.0,316.5,320.0,325.0,319.0,333.0,319.0,341.0,319.0,349.5,319.0,357.0,319.0,364.5,319.0,372.0,318.5,380.5,317.5,388.0,317.0,396.0,317.0,404.5,316.0,412.5,315.5,420.0,314.5,428.0,314.5,436.0,314.0,444.0,314.0,451.5,313.0,459.5,312.0,467.0,311.5,474.5,311.0,482.0,311.0,490.0,311.0,498.0,311.0,506.5,310.5,514.5,310.5" stroke="black" stroke-width="2" fill="none" />
<polyline points="414.0,212.0,413.5,204.0,415.5,198.0,412.0,193.0,409.0,183.0,409.0,175.0,408.0,167.0,406.5,154.5,404.5,146.5,411.5,139.5,407.5,125.0,403.0,117.0,397.5,109.5,393.5,101.0,393.5,93.0,390.0,88.0" stroke="black" stroke-width="2" fill="none" />
<polyline points="405.5,92.0,413.5,100.0,421.5,108.5" stroke="black" stroke-width="2" fill="none" />
<polyline points="431.5,117.5,440.0,121.5,448.0,131.5,456.0,135.5,463.5,126.5" stroke="black" stroke-width="2" fill="none" />
<polyline points="460.0,126.5,468.0,125.5,476.0,124.5,483.5,124.0,491.0,123.5,498.5,123.0,506.0,122.5,514.0,122.0" stroke="black" stroke-width="2" fill="none" />
<polyline points="516.0,105.5,508.0,105.5,500.5,105.5,492.0,106.5,484.0,107.0,476.0,107.5,468.5,108.0,460.5,108.5" stroke="black" stroke-width="2" fill="none" />
<polyline points="460.5,116.5,452.0,117.5" stroke="black" stroke-width="2" fill="none" />
<polyline points="449.0,109.0,457.0,114.0,462.5,121.0" stroke="black" stroke-width="2" fill="none" />
<polyline points="467.5,116.0,459.5,110.0,451.5,105.0,443.5,101.0,435.0,95.0,427.0,90.5,419.0,85.0,410.5,80.0,403.0,75.5,395.0,69.5,387.0,64.5,379.0,59.5,371.0,54.0,363.0,49.0,355.0,42.5,347.0,35.0,339.5,33.5,331.0,29.5,323.0,24.5,314.5,24.0,306.0,36.0,298.0,48.0,290.0,59.0,282.5,70.0,274.5,82.0,266.5,89.5,259.0,103.5,251.0,114.5,242.5,125.5,234.0,137.5,226.0,148.5,218.0,159.0" stroke="black" stroke-width="2" fill="none" />
<polyline points="221.0,160.0,229.5,156.5" stroke="black" stroke-width="2" fill="none" />
<polyline points="226.5,158.5,218.0,159.0,210.0,159.5,202.0,160.5,194.0,160.5,186.5,161.0,178.0,162.0,169.5,162.5,161.5,163.5,153.5,164.0,146.0,164.5,138.5,165.0,131.0,166.0,123.5,166.5" stroke="black" stroke-width="2" fill="none" />
<polyline points="118.5,168.5,126.5,163.0,134.5,155.0" stroke="black" stroke-width="2" fill="none" />
<polyline points="139.5,155.5,147.5,148.0" stroke="black" stroke-width="2" fill="none" />
<polyline points="140.0,149.0,149.0,148.5,157.5,148.5,165.5,147.5,173.0,147.0,181.0,146.0,188.5,145.5,196.0,145.5,203.0,145.5,211.0,145.5,219.0,144.5,227.5,144.5" stroke="black" stroke-width="2" fill="none" />
<polyline points="225.0,155.0,233.0,148.0,241.0,140.0,249.0,132.0,257.5,124.5,266.0,116.5,273.5,107.5" stroke="black" stroke-width="2" fill="none" />
<polyline points="275.0,116.5,266.5,124.5,272.5,119.5" stroke="black" stroke-width="2" fill="none" />
<polyline points="277.5,140.5,285.5,137.0,279.0,149.0,286.5,155.0" stroke="black" stroke-width="2" fill="none" />
<polyline points="278.5,158.5,286.5,157.5,296.5,154.5,305.0,153.5" stroke="black" stroke-width="2" fill="none" />
<polyline points="316.0,168.5,324.0,167.5,332.0,167.5" stroke="black" stroke-width="2" fill="none" />
<polyline points="351.5,152.0,359.5,155.5,368.0,159.5,376.0,159.5,384.5,158.0,392.5,163.0" stroke="black" stroke-width="2" fill="none" />
<polyline points="389.5,144.5,397.5,144.5" stroke="black" stroke-width="2" fill="none" />
<polyline points="409.0,154.0,407.0,146.0,401.0,135.0,399.5,126.5,396.0,120.5,396.0,119.5,388.0,117.5" stroke="black" stroke-width="2" fill="none" />
<polyline points="378.5,112.5,359.5,120.5,344.0,128.0" stroke="black" stroke-width="2" fill="none" />
<polyline points="330.0,135.5,323.0,135.5,315.0,137.5,306.5,128.5,298.5,130.0,287.5,136.0,279.5,137.0,271.0,141.0,268.0,149.0,260.0,148.0,253.5,148.0,263.5,144.0,280.5,135.5,298.5,128.5,300.5,120.5,301.0,112.5" stroke="black" stroke-width="2" fill="none" />
<polyline points="296.0,120.0,304.0,126.0,309.0,133.5,308.5,141.5,312.5,148.5,309.5,153.5,317.5,150.5,319.5,152.0,332.5,148.0,340.5,146.5,349.0,144.5,357.0,142.5,365.0,139.5,373.0,138.0,381.0,135.0,389.0,142.5,397.0,142.5,405.5,142.0,407.5,148.0,420.5,155.0,421.5,148.5,416.5,152.0,420.0,160.0,423.0,168.0" stroke="black" stroke-width="2" fill="none" />
<polyline points="416.0,145.5,414.0,133.5" stroke="black" stroke-width="2" fill="none" />
<polyline points="409.5,123.0,401.5,113.5" stroke="black" stroke-width="2" fill="none" />
<polyline points="418.0,106.0,407.0,92.0,399.0,87.0,390.5,79.0,382.0,71.5,374.0,65.0" stroke="black" stroke-width="2" fill="none" />
<polyline points="371.5,62.5,379.5,66.5" stroke="black" stroke-width="2" fill="none" />
<polyline points="378.5,61.0,386.0,61.0,394.5,60.5,402.5,60.0,410.5,59.0,418.5,58.0,426.5,57.5,434.5,57.5,442.5,57.0,450.5,56.5,458.0,56.0,466.0,56.0,474.0,55.0,482.5,54.0,490.5,53.0,499.0,52.5,507.0,52.0,515.0,51.5" stroke="black" stroke-width="2" fill="none" />
<polyline points="516.0,19.0,508.0,26.5,501.0,34.0,493.5,42.0,486.0,50.0,478.0,58.0,469.5,65.0,460.5,72.5,452.0,80.0,444.0,87.0,436.0,94.5" stroke="black" stroke-width="2" fill="none" />
<polyline points="436.5,87.0,444.5,79.5,452.5,71.5,461.0,63.5,469.0,55.5,477.0,47.5,485.5,40.5,494.0,33.5,502.0,26.0,509.5,18.5,517.0,11.0" stroke="black" stroke-width="2" fill="none" />
<polyline points="517.0,3.0,509.0,10.5,500.5,18.5,492.5,25.5,484.5,32.5,475.5,40.0,467.5,47.5,458.5,55.0,450.0,62.5,441.5,70.0,433.0,77.0,425.5,84.5" stroke="black" stroke-width="2" fill="none" />
<polyline points="420.0,85.0,428.0,84.5,436.0,84.0,444.0,83.5,452.5,83.5,461.0,83.0,469.0,82.5,477.0,81.5,484.5,80.5,492.0,80.0,499.5,79.5,508.0,79.0,516.0,79.0" stroke="black" stroke-width="2" fill="none" />
<polyline points="516.0,76.5,508.0,77.5,500.0,78.0,492.0,78.5,484.0,79.0,476.0,79.0,468.0,79.0,460.5,80.0,452.5,80.5" stroke="black" stroke-width="2" fill="none" />
<polyline points="443.0,74.0,451.0,73.5,460.0,72.5,467.5,71.5,475.5,71.0,483.0,70.5,491.5,70.0,500.0,69.0,508.5,68.5,516.5,68.0" stroke="black" stroke-width="2" fill="none" />
<polyline points="507.5,4.5,499.5,11.5,491.5,19.0,484.0,26.5,475.5,34.0,467.0,41.0,459.0,48.5,451.0,56.0,442.5,63.5,434.5,70.5,426.5,77.5" stroke="black" stroke-width="2" fill="none" />
<polyline points="418.5,78.0,426.5,71.0,434.0,63.5,442.0,56.5,449.5,49.5,457.0,42.0,465.5,35.0,473.5,27.5,482.0,20.0,490.0,12.5,498.0,4.5" stroke="black" stroke-width="2" fill="none" />
<polyline points="490.5,6.0,482.5,13.0,474.0,20.0,466.5,27.0,459.0,34.0,451.0,40.5,442.5,48.0,434.5,55.0,426.0,62.0,418.0,69.5,410.5,77.0" stroke="black" stroke-width="2" fill="none" />
<polyline points="404.0,77.0,412.0,76.0,420.0,75.5,428.0,75.0,436.0,75.0,444.0,75.0,452.0,74.0,460.0,73.0,468.0,73.0,476.0,72.5,484.0,72.5,492.0,72.0,500.0,71.5,508.0,70.5,516.0,70.0" stroke="black" stroke-width="2" fill="none" />
<polyline points="482.5,4.0,475.0,12.0,467.5,19.5,459.5,27.0,451.0,34.5,443.0,42.0,434.5,49.0,427.0,56.0,419.5,63.5,411.5,70.5" stroke="black" stroke-width="2" fill="none" />
<polyline points="402.0,70.0,410.5,62.5,419.0,54.5,427.0,47.0,435.0,40.0,443.0,33.0,451.5,26.5,460.0,19.5,467.5,12.5,475.0,5.0" stroke="black" stroke-width="2" fill="none" />
<polyline points="465.5,4.5,457.5,12.0,449.5,19.0,442.0,26.0,434.0,33.0,427.0,40.0,418.5,48.0,411.0,55.5,402.5,63.5" stroke="black" stroke-width="2" fill="none" />
<polyline points="394.5,62.0,402.5,54.5,411.0,48.0,419.0,41.5,427.0,34.0,434.5,27.0,443.0,19.5,451.5,12.0,460.0,4.5" stroke="black" stroke-width="2" fill="none" />
<polyline points="453.0,6.0,445.0,13.0,436.5,20.0,427.5,27.0,418.5,34.0,409.5,41.5,401.5,48.0,393.0,55.0,385.0,62.0" stroke="black" stroke-width="2" fill="none" />
<polyline points="386.0,57.0,395.0,49.5,403.5,42.0,411.5,34.5,419.0,27.5,426.5,20.0,434.5,12.0,442.5,4.5" stroke="black" stroke-width="2" fill="none" />
<polyline points="435.0,5.0,427.0,12.5,418.5,20.0,410.5,27.5,402.5,35.0,394.5,42.5,386.5,50.0,378.0,58.0" stroke="black" stroke-width="2" fill="none" />
<polyline points="372.5,56.5,380.0,49.0,388.0,41.5,396.0,34.5,404.5,27.0,412.5,19.5,420.0,12.0,428.0,4.0" stroke="black" stroke-width="2" fill="none" />
<polyline points="428.0,9.0,436.0,9.0,444.0,8.5,452.0,8.5,460.0,8.0,468.5,7.5,476.0,7.0,483.5,6.5,491.5,6.0,500.0,5.5,508.0,4.5,516.5,4.0" stroke="black" stroke-width="2" fill="none" />
<polyline points="422.5,3.0,414.5,11.0,406.0,18.0,397.5,25.0,390.0,32.5,382.0,39.5,373.5,47.0" stroke="black" stroke-width="2" fill="none" />
<polyline points="370.0,53.5,378.5,53.0,387.0,52.0,395.5,51.0,403.5,50.0,411.0,50.0,419.0,49.0,426.5,48.5,434.0,48.0,442.5,46.5,450.5,46.0,458.0,45.5,466.0,45.5,473.5,45.5,481.0,45.5,489.0,45.5,497.0,44.5,505.5,43.5,513.5,42.5" stroke="black" stroke-width="2" fill="none" />
<polyline points="516.0,60.5,508.5,61.0,500.5,62.0,492.5,63.0,485.0,63.0,477.0,63.5,468.5,64.0,460.0,65.0,452.0,65.5,444.0,66.0,436.0,66.5" stroke="black" stroke-width="2" fill="none" />
<polyline points="429.5,59.0,437.5,58.5,445.0,58.0,452.5,58.0,460.0,58.0,467.0,57.5,475.0,56.5,482.5,55.5,490.0,55.0,497.5,54.5,505.0,54.5,513.0,53.5" stroke="black" stroke-width="2" fill="none" />
<polyline points="513.0,89.0,505.0,89.5,497.0,89.5,489.5,90.0,482.5,90.0,475.0,90.0,467.5,90.5,460.0,92.0,452.0,93.5,444.0,94.0,436.0,94.5,428.0,95.0" stroke="black" stroke-width="2" fill="none" />
<polyline points="432.5,117.5,440.5,125.5,449.5,133.5,458.5,141.0,467.5,148.5,468.5,156.0,464.5,162.0,455.5,167.5,463.0,175.5,469.0,182.5,466.5,190.5,460.0,198.5,463.0,212.5,465.0,225.0" stroke="black" stroke-width="2" fill="none" />
<polyline points="388.0,253.0,380.0,252.5,372.0,251.5,364.0,255.0,354.0,253.0,345.5,253.0,337.5,253.0" stroke="black" stroke-width="2" fill="none" />
<polyline points="346.5,255.0,354.0,255.0" stroke="black" stroke-width="2" fill="none" />
<polyline points="316.5,285.0,316.5,293.0,316.5,301.0,316.5,309.5,315.0,317.5,321.0,322.5,316.0,335.0,316.0,343.0" stroke="black" stroke-width="2" fill="none" />
<polyline points="319.0,337.0,322.0,329.0" stroke="black" stroke-width="2" fill="none" />
<polyline points="310.5,326.5,302.0,326.5" stroke="black" stroke-width="2" fill="none" />
<polyline points="285.0,335.0,276.5,335.5" stroke="black" stroke-width="2" fill="none" />
<polyline points="260.5,327.5,252.5,327.5" stroke="black" stroke-width="2" fill="none" />
<polyline points="236.0,310.0,228.0,311.0,220.0,312.0,211.5,312.5,203.0,314.0,194.5,314.0,186.0,314.5,177.5,314.5,170.0,315.0,162.0,316.0,154.0,316.5,145.5,317.5,137.5,318.5,129.0,319.5,121.0,320.5,114.0,321.0,106.5,321.5,99.0,322.0,91.5,322.5,83.5,323.0,75.5,323.5,67.5,323.5,59.5,323.5,52.0,323.0,44.0,323.0,36.5,323.5,28.5,324.0,20.5,324.5,13.0,325.5,5.5,326.0" stroke="black" stroke-width="2" fill="none" />
<polyline points="4.0,322.5,12.0,322.0,20.0,321.5" stroke="black" stroke-width="2" fill="none" />
<polyline points="10.5,314.5,2.5,315.0" stroke="black" stroke-width="2" fill="none" />
<polyline points="3.0,312.5,11.0,305.0,19.5,297.5,27.5,290.5,35.5,283.0,43.5,275.0,52.0,267.0,59.5,259.5" stroke="black" stroke-width="2" fill="none" />
<polyline points="53.5,261.0,45.0,268.5,36.0,276.0,28.0,283.5,19.5,291.0,11.5,298.5,3.5,306.5" stroke="black" stroke-width="2" fill="none" />
<polyline points="5.0,310.0,12.5,309.5,20.5,309.0,28.5,309.0,36.0,308.5,44.0,308.0,51.5,307.5,59.5,307.5,67.5,307.5,76.0,307.0,84.0,306.5,92.0,306.0,100.5,305.5,108.5,305.0,117.0,304.0,125.0,304.0,133.5,303.5,142.0,303.0,150.0,302.5,158.0,301.0,165.5,301.0,173.5,300.5,181.5,300.0,189.5,299.0,197.5,298.0,205.5,297.5,213.5,297.0,221.5,296.0,229.5,295.0,238.0,294.0" stroke="black" stroke-width="2" fill="none" />
<polyline points="236.5,286.5,228.5,287.0,220.5,288.0,212.0,289.0,203.5,289.5,196.0,290.0,188.0,290.5,180.5,291.0,173.0,292.0,165.5,293.0,157.5,293.0,149.5,293.5,141.5,294.5,133.5,295.0,125.5,296.0,117.5,296.5,109.5,296.5,101.0,297.0,92.5,297.0,84.5,297.5,76.5,298.0,68.5,298.5,60.5,299.0,52.5,299.0,44.5,299.0,36.0,299.5,27.5,299.5,19.0,300.0,11.5,300.5,4.0,301.5" stroke="black" stroke-width="2" fill="none" />
<polyline points="4.5,298.0,12.0,291.5,19.5,284.5,27.5,277.5,36.0,269.5,44.0,262.0" stroke="black" stroke-width="2" fill="none" />
<polyline points="46.0,251.0,37.5,258.5,28.5,265.5,20.0,273.0,11.5,280.5,3.0,288.5" stroke="black" stroke-width="2" fill="none" />
<polyline points="3.5,292.0,11.5,291.5,19.0,291.0,27.0,290.5,35.5,290.0,44.0,290.0,52.0,289.0,60.0,289.0,68.5,288.5,76.5,288.5,84.0,288.0,93.0,287.5,101.5,287.5,109.5,286.5,117.0,286.0,125.0,285.0,132.5,284.5,140.0,284.5,147.0,284.5,155.0,284.5,163.0,283.5,171.5,283.5,179.5,282.0,188.0,281.5,195.5,280.5,203.5,280.0,211.5,280.0,220.5,280.0,229.0,280.0,237.5,279.5" stroke="black" stroke-width="2" fill="none" />
<polyline points="227.5,272.5,219.5,273.0,211.5,273.5,204.0,274.0,196.0,274.0,188.0,274.0,180.5,274.5,172.5,274.5,164.5,275.0,156.5,275.5,148.5,275.5,140.5,276.5,132.5,277.5,124.5,278.0,116.0,279.0,107.5,279.0,99.0,280.0,90.5,280.5,82.5,281.5,74.5,282.0,66.5,282.0,59.0,282.0,51.5,282.0,43.5,282.5,35.5,282.5,27.5,283.0,19.5,283.5,12.0,284.0,4.0,284.0" stroke="black" stroke-width="2" fill="none" />
<polyline points="4.5,281.0,13.0,273.0,21.5,265.0,29.0,257.0,37.0,249.0,45.0,241.0" stroke="black" stroke-width="2" fill="none" />
<polyline points="46.0,232.5,54.0,234.5,57.5,241.5,65.5,241.5,73.0,241.0,80.5,241.0,88.5,240.0,96.5,240.0,104.5,237.0,117.0,242.5" stroke="black" stroke-width="2" fill="none" />
<polyline points="131.0,231.0,139.0,230.5" stroke="black" stroke-width="2" fill="none" />
<polyline points="142.0,226.0,150.0,218.0,158.0,210.5,165.5,203.0" stroke="black" stroke-width="2" fill="none" />
<polyline points="168.0,203.0,168.0,211.0,168.5,219.0,166.5,227.0,167.5,235.0,160.0,247.0" stroke="black" stroke-width="2" fill="none" />
<polyline points="172.0,233.0,180.5,226.0,188.5,218.5" stroke="black" stroke-width="2" fill="none" />
<polyline points="195.0,217.0,202.5,217.0" stroke="black" stroke-width="2" fill="none" />
<polyline points="209.5,218.0,201.5,226.0,193.0,233.5" stroke="black" stroke-width="2" fill="none" />
<polyline points="196.5,234.0,204.5,233.5" stroke="black" stroke-width="2" fill="none" />
<polyline points="211.0,236.0,203.0,244.0" stroke="black" stroke-width="2" fill="none" />
<polyline points="202.5,235.5,210.5,228.0" stroke="black" stroke-width="2" fill="none" />
<polyline points="204.5,226.0,196.0,227.0" stroke="black" stroke-width="2" fill="none" />
<polyline points="190.0,227.0,181.5,234.5" stroke="black" stroke-width="2" fill="none" />
<polyline points="178.0,234.0,186.5,233.5" stroke="black" stroke-width="2" fill="none" />
<polyline points="186.5,234.5,194.5,226.5,203.0,219.5,210.5,212.0" stroke="black" stroke-width="2" fill="none" />
<polyline points="212.5,205.5,204.0,213.0,196.0,221.0" stroke="black" stroke-width="2" fill="none" />
<polyline points="195.0,212.0,203.0,205.0,211.0,197.5" stroke="black" stroke-width="2" fill="none" />
<polyline points="211.0,189.5,202.5,197.0,194.5,204.5" stroke="black" stroke-width="2" fill="none" />
<polyline points="194.5,202.0,202.5,201.5" stroke="black" stroke-width="2" fill="none" />
<polyline points="202.5,209.0,195.0,210.0" stroke="black" stroke-width="2" fill="none" />
<polyline points="187.5,202.5,195.5,195.0,203.5,187.0,211.5,179.5" stroke="black" stroke-width="2" fill="none" />
<polyline points="213.0,170.0,205.0,177.5,196.5,184.5,188.0,192.0" stroke="black" stroke-width="2" fill="none" />
<polyline points="185.0,197.5,185.0,199.5,189.5,207.5,186.5,215.0" stroke="black" stroke-width="2" fill="none" />
<polyline points="178.5,219.0,171.0,226.5" stroke="black" stroke-width="2" fill="none" />
<polyline points="162.5,225.5,170.0,218.5,178.5,210.5" stroke="black" stroke-width="2" fill="none" />
<polyline points="171.0,202.5,179.0,194.5" stroke="black" stroke-width="2" fill="none" />
<polyline points="173.0,196.0,181.0,188.5" stroke="black" stroke-width="2" fill="none" />
<polyline points="173.0,186.5,181.5,178.5" stroke="black" stroke-width="2" fill="none" />
<polyline points="188.5,177.5,196.5,170.0,204.5,163.0,212.5,155.5" stroke="black" stroke-width="2" fill="none" />
<polyline points="211.5,162.0,203.5,169.5,195.5,177.5" stroke="black" stroke-width="2" fill="none" />
<polyline points="197.0,178.0,205.5,177.5" stroke="black" stroke-width="2" fill="none" />
<polyline points="202.0,170.0,193.5,170.5" stroke="black" stroke-width="2" fill="none" />
<polyline points="189.0,170.0,197.5,162.5,205.5,155.0,213.5,147.0" stroke="black" stroke-width="2" fill="none" />
<polyline points="213.0,140.0,205.0,147.0,196.5,154.0,188.0,161.5" stroke="black" stroke-width="2" fill="none" />
<polyline points="188.0,161.5,195.5,161.0,203.0,160.0" stroke="black" stroke-width="2" fill="none" />
<polyline points="203.0,152.5,194.5,152.5,186.5,153.0" stroke="black" stroke-width="2" fill="none" />
<polyline points="187.5,148.0,195.5,147.5,203.0,147.0" stroke="black" stroke-width="2" fill="none" />
<polyline points="201.0,138.0,193.0,138.5" stroke="black" stroke-width="2" fill="none" />
<polyline points="195.0,129.5,203.0,129.5" stroke="black" stroke-width="2" fill="none" />
<polyline points="204.0,123.0,196.0,130.5,187.5,138.5,179.5,146.5" stroke="black" stroke-width="2" fill="none" />
<polyline points="172.5,146.0,180.5,138.5,189.0,131.0,197.0,123.5,205.5,116.5" stroke="black" stroke-width="2" fill="none" />
<polyline points="196.0,115.5,187.5,123.0,179.0,131.0" stroke="black" stroke-width="2" fill="none" />
<polyline points="182.0,129.0,171.0,136.0,170.0,144.5,163.5,151.5,160.5,156.0,166.5,163.5" stroke="black" stroke-width="2" fill="none" />
<polyline points="172.0,161.5,180.0,153.5,188.0,146.5,196.0,139.5,204.0,132.0,211.5,124.5" stroke="black" stroke-width="2" fill="none" />
<polyline points="213.0,133.0,204.5,140.0,196.5,147.0,188.5,154.0,180.5,161.5" stroke="black" stroke-width="2" fill="none" />
<polyline points="183.0,161.0,183.0,169.0,185.0,174.5,194.0,178.5,192.0,186.0,184.5,194.0,189.0,194.0,191.0,206.5,193.0,212.5,194.0,220.5,190.0,226.5,190.0,231.5,196.5,232.5,197.5,244.5,192.0,251.5" stroke="black" stroke-width="2" fill="none" />
<polyline points="194.5,246.5,202.5,245.5,210.0,245.0,218.5,244.0,227.0,243.0" stroke="black" stroke-width="2" fill="none" />
<polyline points="227.5,234.5,219.5,235.5,211.5,236.0,203.5,236.5,196.0,237.0" stroke="black" stroke-width="2" fill="none" />
<polyline points="228.0,224.0,220.0,224.5,212.0,225.5,204.0,226.0,196.0,226.5,188.0,227.0,180.0,227.5,171.5,228.5,163.0,229.5,155.0,230.0,147.0,230.5" stroke="black" stroke-width="2" fill="none" />
<polyline points="155.0,226.0,163.0,218.0" stroke="black" stroke-width="2" fill="none" />
<polyline points="163.5,210.5,156.0,218.0,148.0,226.0" stroke="black" stroke-width="2" fill="none" />
<polyline points="133.0,225.5,141.5,218.5,150.0,211.0,158.5,204.0,166.5,196.5" stroke="black" stroke-width="2" fill="none" />
<polyline points="163.5,191.5,175.5,181.5,175.5,190.0,175.5,198.0,174.0,206.0,174.0,214.0,174.0,222.5,179.5,219.5,186.5,229.0" stroke="black" stroke-width="2" fill="none" />
<polyline points="195.0,193.5,202.5,193.0" stroke="black" stroke-width="2" fill="none" />
<polyline points="196.0,179.5,188.5,174.0" stroke="black" stroke-width="2" fill="none" />
<polyline points="192.5,184.0,188.0,175.5,184.0,172.0,176.5,173.0,172.0,169.5,171.0,161.5,171.0,153.5" stroke="black" stroke-width="2" fill="none" />
<polyline points="163.5,147.5,171.5,140.5" stroke="black" stroke-width="2" fill="none" />
<polyline points="177.5,138.0,177.5,146.0" stroke="black" stroke-width="2" fill="none" />
<polyline points="176.0,133.5,172.0,132.5,165.0,137.5,159.5,142.5,159.5,150.0,155.5,158.0,161.0,167.0" stroke="black" stroke-width="2" fill="none" />
<polyline points="156.0,162.5,148.0,170.0,139.5,178.0,131.5,186.0" stroke="black" stroke-width="2" fill="none" />
<polyline points="132.0,177.5,140.0,170.0,147.5,163.0,155.5,155.5" stroke="black" stroke-width="2" fill="none" />
<polyline points="161.0,155.0,167.0,151.0,160.5,159.5,154.5,171.5,155.0,181.5,153.0,193.5,153.0,201.5,153.0,209.0,152.0,217.0,152.5,225.5,155.5,227.5" stroke="black" stroke-width="2" fill="none" />
<polyline points="178.5,244.5,173.5,248.0,184.5,241.0,183.5,231.0,182.0,223.5,189.5,217.5,186.5,207.5,183.0,202.0,178.5,194.0,187.5,187.0,181.5,178.5,168.5,175.5,161.0,180.0" stroke="black" stroke-width="2" fill="none" />
<polyline points="156.0,186.0,147.5,194.0,139.5,201.5,131.5,209.0,123.5,216.5" stroke="black" stroke-width="2" fill="none" />
<polyline points="124.5,225.0,132.0,218.0,140.0,211.0,148.0,203.5,156.0,196.0" stroke="black" stroke-width="2" fill="none" />
<polyline points="147.5,188.5,139.5,195.5,131.5,203.0,123.5,210.0" stroke="black" stroke-width="2" fill="none" />
<polyline points="123.5,204.0,131.0,196.0" stroke="black" stroke-width="2" fill="none" />
<polyline points="133.5,202.0,136.0,201.0,133.0,209.5,137.5,214.5,138.5,220.0" stroke="black" stroke-width="2" fill="none" />
<polyline points="144.5,225.0,148.5,216.0,148.5,208.0,140.5,203.0" stroke="black" stroke-width="2" fill="none" />
<polyline points="140.5,189.0,148.5,182.0" stroke="black" stroke-width="2" fill="none" />
<polyline points="151.0,177.0,151.0,169.0,150.5,161.0,151.5,151.0,151.5,144.5,157.5,140.5,150.0,139.5" stroke="black" stroke-width="2" fill="none" />
<polyline points="154.5,144.5,163.0,137.5,171.0,130.0,179.0,122.0,187.0,115.0" stroke="black" stroke-width="2" fill="none" />
<polyline points="180.5,113.5,172.5,121.0,164.0,129.0" stroke="black" stroke-width="2" fill="none" />
<polyline points="166.5,132.5,174.0,130.0,185.0,127.5,184.0,136.0,186.5,136.0,187.5,144.0,184.5,156.0,177.5,158.5,177.5,166.5,172.5,175.5,170.0,183.5,165.0,191.5,171.0,197.5,164.0,199.0,164.0,207.0,164.0,215.0,164.0,223.0,163.0,231.0,168.0,236.5,171.5,241.5,175.0,235.5,179.5,239.0,187.0,239.0,197.0,238.5,201.0,240.5" stroke="black" stroke-width="2" fill="none" />
<polyline points="226.5,255.0,218.5,255.5,210.5,255.5,202.5,256.0,194.5,257.0,186.5,258.0,178.5,258.5,170.0,259.0,162.5,259.0,154.0,260.0,146.5,260.5,138.5,261.5,130.5,262.0,123.0,263.0,115.0,263.5,106.0,264.5,97.5,265.5,89.5,266.0,81.0,267.0,73.5,267.0,66.0,267.5,58.5,268.0,50.5,267.5,43.0,268.0,35.5,268.0,28.0,267.5,20.5,267.5,13.0,268.5,5.0,268.5" stroke="black" stroke-width="2" fill="none" />
<polyline points="3.5,265.5,11.5,258.0,19.0,250.5,27.5,243.0,35.5,235.0,43.5,227.0,52.0,219.5,59.5,212.0" stroke="black" stroke-width="2" fill="none" />
<polyline points="60.0,206.0,52.0,213.0,44.5,219.5,37.0,226.5,29.0,234.0,21.0,241.5,13.0,249.0,5.0,257.0" stroke="black" stroke-width="2" fill="none" />
<polyline points="5.5,253.5,13.5,253.0,21.5,253.0,29.0,252.5,37.0,252.5,44.5,252.0,52.5,251.5,60.5,251.0,68.0,250.5,75.5,250.0,83.5,249.5,91.0,249.0,98.5,248.0,106.0,247.5,113.5,247.0,121.5,246.5,129.5,245.5,138.0,245.0,146.5,244.0,154.0,243.5,162.0,243.5,170.0,242.5,178.0,242.0,186.5,241.5,194.5,240.5,202.5,240.0,211.0,240.0,219.5,239.5,228.0,239.0" stroke="black" stroke-width="2" fill="none" />
<polyline points="226.0,246.0,218.5,246.5,211.0,247.0,203.0,248.0,195.5,248.0,187.5,249.0,179.0,250.0,170.5,251.0,162.0,251.5,154.5,252.0,147.0,253.0,139.5,253.5,131.5,254.5,123.5,255.5,115.0,256.0,106.0,257.0,97.5,257.0,89.0,257.0,81.5,257.5,73.0,258.0,65.5,258.5,58.0,259.0,51.0,259.5,43.5,259.5,36.0,260.0,29.0,260.5,21.0,261.0,13.0,262.0,5.0,262.5" stroke="black" stroke-width="2" fill="none" />
<polyline points="5.0,275.0,13.0,267.0,21.5,259.0,29.0,251.0,37.0,243.0,44.5,235.5,52.0,227.5" stroke="black" stroke-width="2" fill="none" />
<polyline points="50.0,222.5,61.0,215.5,60.5,223.5,62.5,227.0,67.0,228.5,64.0,231.5,71.5,233.0,82.5,222.0,85.0,230.5" stroke="black" stroke-width="2" fill="none" />
<polyline points="83.0,235.5,91.0,233.5" stroke="black" stroke-width="2" fill="none" />
<polyline points="98.0,222.5,106.0,222.0,114.5,221.0,122.5,220.0,130.5,219.0,139.0,218.0,147.5,217.5,156.0,217.0,164.5,216.5,172.5,215.5,181.0,215.0,189.0,215.0,196.5,214.5,204.5,214.0,212.5,213.5,220.5,212.5,228.5,212.0" stroke="black" stroke-width="2" fill="none" />
<polyline points="227.5,189.0,219.0,189.5,210.5,189.5,202.5,189.5,194.0,190.0,186.0,191.0,178.0,191.5,169.5,192.0,162.0,192.5,154.0,193.0,146.5,193.5,138.5,194.0,130.5,194.5,123.0,195.0,115.5,195.5,107.0,196.5" stroke="black" stroke-width="2" fill="none" />
<polyline points="109.5,200.5,108.0,208.5" stroke="black" stroke-width="2" fill="none" />
<polyline points="108.0,211.0,116.0,203.5" stroke="black" stroke-width="2" fill="none" />
<polyline points="116.5,205.5,116.0,213.5,115.5,222.0,119.5,226.0" stroke="black" stroke-width="2" fill="none" />
<polyline points="98.0,213.5,106.0,213.5,114.0,213.0,122.5,213.0,131.0,212.5,139.5,211.5,148.0,211.0,156.0,210.0,164.0,209.5,171.5,209.0,179.5,208.5,187.5,208.0,196.0,207.0,204.5,206.0,213.0,205.5,221.5,205.0,229.5,204.0" stroke="black" stroke-width="2" fill="none" />
<polyline points="227.0,180.5,219.0,181.0,211.5,182.0,203.5,183.0,196.0,183.0,188.0,183.5,180.0,184.0,171.5,185.0,163.5,185.5,155.5,186.0,148.0,186.0,139.5,187.0,131.0,187.5,123.0,188.5,115.0,189.5,107.0,190.0" stroke="black" stroke-width="2" fill="none" />
<polyline points="104.5,186.0,112.5,182.0,120.0,185.0,120.0,188.0,121.0,201.0,123.5,205.0,125.0,213.0,127.0,221.0,129.0,230.0" stroke="black" stroke-width="2" fill="none" />
<polyline points="115.0,197.0,123.0,189.0" stroke="black" stroke-width="2" fill="none" />
<polyline points="114.5,194.0,122.5,191.0,127.5,196.0,131.0,188.0,139.0,188.0" stroke="black" stroke-width="2" fill="none" />
<polyline points="143.0,184.5,151.0,183.5,159.5,180.5,153.5,186.5,156.0,196.5,165.0,184.5,161.0,190.5,156.5,200.5" stroke="black" stroke-width="2" fill="none" />
<polyline points="148.0,171.0,140.0,171.5" stroke="black" stroke-width="2" fill="none" />
<polyline points="132.0,171.5,140.5,164.0,149.0,156.5" stroke="black" stroke-width="2" fill="none" />
<polyline points="148.5,162.0,140.5,162.5" stroke="black" stroke-width="2" fill="none" />
<polyline points="150.0,165.0,156.0,162.0,161.0,160.0" stroke="black" stroke-width="2" fill="none" />
<polyline points="153.5,133.5,161.5,133.0,170.0,133.0,178.5,132.5,186.5,132.5,194.5,131.5,202.5,131.0,210.5,130.0,218.5,129.0,227.0,128.0,235.5,127.5" stroke="black" stroke-width="2" fill="none" />
<polyline points="219.5,109.0,228.0,101.5,235.5,94.0,243.5,86.5,251.5,79.5,259.5,71.5,268.0,64.0,276.0,56.5,283.5,49.5,292.0,42.0,300.0,34.0,308.5,26.0,317.0,18.0,325.5,10.0,333.5,2.5" stroke="black" stroke-width="2" fill="none" />
<polyline points="339.0,3.5,331.0,11.0,323.5,18.5,316.0,26.0" stroke="black" stroke-width="2" fill="none" />
<polyline points="318.0,26.5,330.0,34.5,333.0,42.5,326.0,50.5,315.0,53.0,309.5,61.0,304.0,69.0,299.5,77.0,294.0,85.0,283.5,93.0,285.5,107.0,274.5,115.0,264.5,126.5,272.0,116.5,279.0,111.5,286.5,105.5,290.5,102.0,298.0,97.0,306.0,91.5,314.0,84.0,322.0,76.0,330.0,68.0,338.0,60.0,346.0,61.0,353.5,56.0,361.0,56.0,369.5,58.5,370.5,65.5,375.5,76.0,384.0,78.0,387.0,89.0,394.5,90.0,402.5,93.0,403.5,105.5,409.0,113.0,414.5,118.0,420.5,126.5,427.5,135.5,431.5,140.5,441.0,147.0,448.0,158.0,456.0,168.0,464.0,169.0,468.5,181.0" stroke="black" stroke-width="2" fill="none" />
<polyline points="448.5,161.5,441.5,154.5,435.5,147.0" stroke="black" stroke-width="2" fill="none" />
<polyline points="398.0,163.5,389.0,155.5,381.0,147.5" stroke="black" stroke-width="2" fill="none" />
<polyline points="382.0,135.0,370.5,146.0,378.5,144.0,386.5,152.0,390.5,156.0,397.5,162.0,405.5,162.5,411.5,170.0,423.0,180.0" stroke="black" stroke-width="2" fill="none" />
<polyline points="370.5,165.5,365.0,159.5,357.0,160.5,349.0,161.5,340.5,162.0,332.5,163.0,325.0,163.5,317.0,163.5,307.5,162.5,299.5,162.5,291.5,162.5,283.0,164.0,275.0,164.0,267.0,163.0,259.5,162.5,251.0,162.5,246.0,165.0,243.5,160.0,236.0,162.5,228.0,162.5" stroke="black" stroke-width="2" fill="none" />
<polyline points="230.0,164.5,238.0,164.5" stroke="black" stroke-width="2" fill="none" />
<polyline points="227.5,166.0,219.0,167.0,210.5,168.0,202.0,168.5,194.5,169.0,187.0,170.0,179.5,170.5,171.5,171.5,163.5,172.5,155.0,173.0,146.0,174.0,137.5,174.0,129.0,174.0,121.5,174.5" stroke="black" stroke-width="2" fill="none" />
<polyline points="125.5,173.5,132.0,166.5,126.0,167.0,127.5,177.0,135.0,190.0,121.5,196.0,117.5,204.5,113.0,213.0,110.0,221.5,100.0,221.5,104.0,227.5,109.0,223.5,105.0,221.5,106.5,227.5,114.0,229.5,116.5,237.5,125.5,245.5,128.0,251.0,135.0,251.5,143.0,251.5,151.0,251.5,159.0,250.0,167.0,249.0,171.0,251.5,179.5,249.5,181.0,251.5,189.0,249.0" stroke="black" stroke-width="2" fill="none" />
<polyline points="225.5,264.5,218.0,265.0,210.0,265.0,202.0,265.0,194.5,265.5,187.5,266.5,180.0,267.0,172.0,267.5,164.5,267.5,156.0,268.5,148.0,269.0,140.0,270.0,132.0,270.5,124.0,271.0,115.5,272.0,107.5,272.5,99.0,273.0,91.0,273.5,83.0,274.0,74.5,274.5,67.0,275.0,59.0,275.0,51.5,275.5,43.5,275.5,36.0,275.5,28.5,276.0,21.0,276.0,13.0,276.0,4.5,276.5" stroke="black" stroke-width="2" fill="none" />
<polyline points="4.5,249.0,12.0,241.5,20.0,234.0,27.0,227.0,34.5,220.0,42.5,212.5,50.5,205.0" stroke="black" stroke-width="2" fill="none" />
<polyline points="53.0,197.0,44.5,204.5,36.5,211.5,28.0,219.0,20.5,226.0,12.5,233.0,4.5,240.5" stroke="black" stroke-width="2" fill="none" />
<polyline points="6.5,238.5,14.5,237.5,22.0,237.0,29.5,236.5,37.0,235.5,44.5,235.0,52.0,234.5,60.5,234.0,68.0,233.5" stroke="black" stroke-width="2" fill="none" />
<polyline points="77.0,228.0,85.0,220.5" stroke="black" stroke-width="2" fill="none" />
<polyline points="91.5,224.0,83.5,224.5,75.5,225.0,68.0,226.0,60.0,227.0,51.5,227.0,43.5,228.0,36.0,228.5,28.5,229.0,21.0,229.0,12.5,229.0,4.5,229.5" stroke="black" stroke-width="2" fill="none" />
<polyline points="6.5,234.0,14.0,226.5,21.5,219.0,30.0,211.5,37.5,204.5,45.5,197.0,53.0,189.0,61.0,181.5" stroke="black" stroke-width="2" fill="none" />
<polyline points="51.0,180.5,43.5,187.5,35.5,194.0,28.0,201.0,20.0,208.5,12.5,215.5,4.0,223.0" stroke="black" stroke-width="2" fill="none" />
<polyline points="5.0,221.0,13.0,220.5,20.5,220.5,28.5,220.0,36.5,220.0,44.0,220.0,52.0,219.5,59.5,219.0,67.0,218.5,74.5,218.0,82.0,217.5,90.0,217.0" stroke="black" stroke-width="2" fill="none" />
<polyline points="92.0,214.5,83.5,215.5,75.5,216.0" stroke="black" stroke-width="2" fill="none" />
<polyline points="77.5,218.0,75.0,215.0,83.0,216.0,78.0,219.0,76.5,229.0,86.5,234.0,82.0,235.5,89.0,225.5,91.0,236.0,99.0,237.0" stroke="black" stroke-width="2" fill="none" />
<polyline points="100.0,206.5,107.5,205.5,115.0,205.0,122.5,204.5,131.0,204.0,138.5,203.0,147.5,202.0,155.5,201.5,164.0,201.0,171.5,200.5,179.5,200.0,187.5,199.5,195.5,198.5,204.0,198.0,212.5,198.5,221.0,198.0,229.0,197.5" stroke="black" stroke-width="2" fill="none" />
<polyline points="247.0,185.0,254.5,184.0,263.0,184.0,271.0,184.0,280.0,184.0,288.0,184.0,296.0,184.0,304.0,184.5,312.0,184.5,319.5,184.0,327.5,183.0,335.5,183.0,344.0,182.5,352.0,182.5,360.0,182.5,368.0,182.5,375.5,182.0,383.5,182.0,391.5,182.0,390.5,190.5,390.5,198.5,390.5,206.5,390.0,215.0,390.0,223.0,390.5,231.5,390.5,239.5,390.5,247.5,391.0,256.0,391.0,264.0,390.5,272.0,390.5,280.0,390.5,288.0,390.0,296.0,390.0,304.5,390.5,312.5,390.5,321.0" stroke="black" stroke-width="2" fill="none" />
<polyline points="259.0,252.5,246.5,252.5,239.0,251.5,231.0,251.5" stroke="black" stroke-width="2" fill="none" />
<polyline points="205.5,244.5,204.5,236.5,204.5,229.0,205.0,221.0,204.5,212.5,204.5,204.5,204.0,197.0,204.0,189.0,204.0,181.0,204.5,172.5,204.5,164.5,204.5,156.0,204.5,148.0,204.5,140.0,204.5,131.5,202.5,123.5,198.0,121.5,189.5,120.5,181.5,121.0,173.5,122.0,165.5,122.5,157.0,122.0,149.0,122.5,140.5,123.5,132.5,123.5,124.5,123.5,116.5,123.5,109.0,123.0,101.0,123.0,93.0,122.5,85.0,123.5,77.0,123.5,69.0,123.5,61.5,123.5,53.5,123.5" stroke="black" stroke-width="2" fill="none" />
<polyline points="50.0,125.0,58.0,117.5,66.0,109.5,74.5,101.5,82.5,93.5,91.0,86.5,98.5,79.0,107.0,71.5,114.5,64.0,122.5,56.5,131.0,49.0,139.5,41.0,148.0,33.5,156.5,26.0,164.5,18.5,173.0,11.0,181.0,3.5" stroke="black" stroke-width="2" fill="none" />
<polyline points="188.0,3.5,179.5,11.0,171.5,18.0,163.5,25.5,155.5,33.0,147.5,40.5,140.0,48.5,132.0,56.5,124.0,64.0,116.0,71.0,107.5,78.5,99.5,86.0,91.0,94.0,83.0,101.5,75.0,109.0,67.0,116.0,59.0,123.5,51.0,131.0" stroke="black" stroke-width="2" fill="none" />
<polyline points="52.0,128.5,59.5,127.5" stroke="black" stroke-width="2" fill="none" />
<polyline points="61.5,133.0,62.0,141.0,55.0,149.0" stroke="black" stroke-width="2" fill="none" />
<polyline points="60.0,149.0,52.5,156.0" stroke="black" stroke-width="2" fill="none" />
<polyline points="49.5,156.0,58.5,165.0,56.5,168.5" stroke="black" stroke-width="2" fill="none" />
<polyline points="45.5,170.0,37.0,178.0,29.0,185.5,20.5,193.0,12.5,200.5,4.0,208.0" stroke="black" stroke-width="2" fill="none" />
<polyline points="4.5,205.0,12.0,205.0,20.0,204.5,28.0,204.5,35.5,204.5,43.5,204.0,51.5,204.0,59.5,203.5" stroke="black" stroke-width="2" fill="none" />
<polyline points="52.0,192.5,44.0,192.5" stroke="black" stroke-width="2" fill="none" />
<polyline points="48.5,193.0,56.0,191.0" stroke="black" stroke-width="2" fill="none" />
<polyline points="52.0,195.5,44.0,195.5,36.0,196.0,28.0,196.0,20.5,196.5,12.5,196.0,4.0,196.5" stroke="black" stroke-width="2" fill="none" />
<polyline points="3.5,202.5,12.0,194.5,20.5,186.5,28.5,178.5,36.5,170.5,44.0,163.0" stroke="black" stroke-width="2" fill="none" />
<polyline points="44.0,156.5,36.0,164.0,28.0,172.0,20.0,179.5,12.5,186.5,4.5,194.0" stroke="black" stroke-width="2" fill="none" />
<polyline points="2.0,188.0,10.0,188.0,18.0,188.0,26.5,188.0,34.5,188.0,42.5,187.5,51.0,187.5,59.5,187.0" stroke="black" stroke-width="2" fill="none" />
<polyline points="50.5,184.0,43.0,185.0" stroke="black" stroke-width="2" fill="none" />
<polyline points="44.5,177.5,36.5,185.0,29.0,192.5,20.5,200.5,13.0,208.5,4.5,216.0" stroke="black" stroke-width="2" fill="none" />
<polyline points="3.0,213.0,11.0,212.5,18.5,212.0,26.5,212.0,34.5,212.0,42.5,212.0,50.0,211.5,57.5,211.0,65.5,210.0" stroke="black" stroke-width="2" fill="none" />
<polyline points="50.0,193.5,48.5,201.5,45.5,209.0,47.0,215.5,47.0,223.5,42.0,232.0,41.0,240.0,40.5,248.0,46.5,252.5,54.5,250.5,60.0,253.0,67.5,251.5,75.5,251.5,83.5,252.0,91.5,252.0,99.0,252.0,107.5,251.5,115.5,251.5,124.0,250.5" stroke="black" stroke-width="2" fill="none" />
<polyline points="107.5,181.5,115.5,181.0,123.0,180.5,131.5,180.0,140.5,180.0,148.5,180.0,156.0,179.5,164.0,178.5,171.5,177.5,179.0,177.0,187.0,177.0,195.0,176.5,203.0,176.0,211.5,175.5,220.0,175.0,228.0,174.0" stroke="black" stroke-width="2" fill="none" />
<polyline points="249.0,182.5,248.0,190.0,248.5,198.5,248.5,206.5,248.5,214.5,248.5,222.5,248.5,231.0,248.0,239.0,248.0,247.0,251.0,250.5,248.0,258.0,248.0,266.0,247.5,274.5,248.5,282.5,248.0,290.5,248.0,298.5,248.0,306.5,248.0,314.0,248.0,322.0,255.5,323.5,263.5,323.5,271.5,323.0,279.5,323.0,288.0,322.5,296.0,323.0,304.0,323.0,312.5,323.0,324.5,323.0,332.5,324.0,340.5,324.5,348.5,324.5,356.5,324.5,364.5,324.5,372.5,325.5,381.0,324.5,389.0,325.5" stroke="black" stroke-width="2" fill="none" />
<polyline points="277.5,166.5,269.5,166.5" stroke="black" stroke-width="2" fill="none" />
<polyline points="284.0,146.5,292.0,144.5" stroke="black" stroke-width="2" fill="none" />
<polyline points="271.5,93.0,276.5,101.0,272.5,109.5,264.5,117.5,256.5,125.0,246.5,133.5,238.5,141.5,233.0,149.5,232.0,155.5,225.5,167.5,232.0,172.5,233.0,183.5" stroke="black" stroke-width="2" fill="none" />
<polyline points="218.5,102.0,226.0,95.0,234.5,88.0,242.5,81.0,250.5,73.5,258.5,65.5,266.5,58.0,275.0,50.5,283.5,43.0,291.5,35.5,299.5,28.0,308.0,20.0,316.5,12.0,324.5,3.5" stroke="black" stroke-width="2" fill="none" />
<polyline points="316.0,4.5,308.5,12.0,300.5,19.5,292.5,27.0,284.0,35.0,275.5,42.0,267.5,49.5,260.0,57.0,252.0,64.5,243.5,72.0,235.0,80.0,227.5,87.5,220.0,94.5,211.5,101.5" stroke="black" stroke-width="2" fill="none" />
<polyline points="236.0,104.0,243.5,96.5,251.0,88.5,259.0,81.5,266.5,75.0,274.5,67.5,282.5,60.0,290.5,52.5,298.5,44.5,306.5,37.0" stroke="black" stroke-width="2" fill="none" />
<polyline points="315.5,45.5,323.5,45.0,332.0,44.0" stroke="black" stroke-width="2" fill="none" />
<polyline points="340.0,36.5,348.0,36.0,355.5,36.0,363.5,35.0,371.0,34.0,379.0,33.5,387.0,33.0,395.0,33.0,403.5,32.5,412.0,32.5,420.5,31.5,428.5,31.0,436.0,30.5,444.0,30.0,452.0,29.5,460.5,28.5,468.0,28.5,476.0,28.5,483.5,28.5,491.5,29.0,498.5,28.5,507.0,27.5,515.0,27.0" stroke="black" stroke-width="2" fill="none" />
<polyline points="517.5,43.0,509.5,44.0,501.0,44.5,493.0,45.0,484.5,45.0,476.0,45.5,467.0,46.0,458.5,47.0,450.5,47.5,443.0,48.0,435.0,48.0,427.0,48.5,419.0,49.0" stroke="black" stroke-width="2" fill="none" />
<polyline points="405.5,43.0,413.5,42.5,421.5,42.0,429.5,41.0,437.5,40.0,445.5,39.5,453.5,39.0,461.5,38.0,469.5,37.0,478.0,36.0,485.5,35.0,494.0,35.0,501.5,34.5,509.0,34.0,517.0,33.5" stroke="black" stroke-width="2" fill="none" />
<polyline points="411.5,3.0,403.5,10.5,395.5,18.5,388.0,25.5,381.0,33.0,373.5,40.5,365.5,48.0" stroke="black" stroke-width="2" fill="none" />
<polyline points="363.0,41.5,371.5,33.0,379.5,25.0,387.5,17.5,395.0,9.5,403.0,1.5" stroke="black" stroke-width="2" fill="none" />
<polyline points="395.5,4.0,387.5,11.5,380.0,18.5,372.0,26.0,363.5,34.0,355.5,42.0" stroke="black" stroke-width="2" fill="none" />
<polyline points="354.0,45.5,362.0,44.5,370.0,44.0,378.5,43.5,386.5,42.5,394.5,42.0,403.0,42.0,411.5,41.5,420.0,41.0,428.0,39.5,436.0,38.5,443.5,38.5,451.5,38.0,459.0,38.0,466.0,38.0,474.0,37.5,481.5,37.5,489.0,36.5,497.0,35.5,505.5,34.5,513.5,34.0" stroke="black" stroke-width="2" fill="none" />
<polyline points="517.5,10.0,509.5,10.0,501.0,10.5,492.5,11.5,484.0,12.0,476.5,12.5,468.5,13.0,460.5,14.0,452.0,15.0,443.5,15.5,436.0,16.0,428.0,16.5,420.5,17.0,413.0,18.0,405.5,19.0" stroke="black" stroke-width="2" fill="none" />
<polyline points="396.5,25.5,404.0,25.5,412.0,25.0,419.5,24.5,426.5,23.5,434.0,23.0,442.0,23.0,450.0,23.0,457.5,22.5,465.5,22.0,473.5,21.5,481.5,21.0,490.0,19.5,498.5,18.5,507.5,17.5,516.0,17.0" stroke="black" stroke-width="2" fill="none" />
<polyline points="518.0,62.5,509.5,63.0,501.5,63.0,493.5,63.5,485.5,64.0,477.5,64.5,469.5,65.5,461.0,66.0,452.5,66.0,443.5,66.0,435.5,66.0,427.5,66.5,420.0,67.5,411.5,68.0,403.5,69.5,395.0,69.5" stroke="black" stroke-width="2" fill="none" />
<polyline points="373.0,75.0,365.0,79.0,357.0,78.0,349.0,82.5,340.5,88.5,332.5,95.0,324.5,101.0,316.0,107.0,312.0,109.5,323.0,101.5,333.0,93.5,343.0,85.5,353.5,77.5" stroke="black" stroke-width="2" fill="none" />
<polyline points="346.0,59.0,338.0,60.0" stroke="black" stroke-width="2" fill="none" />
<polyline points="341.0,60.0,333.0,68.0,336.5,64.0" stroke="black" stroke-width="2" fill="none" />
<polyline points="340.5,56.5,332.5,64.5,324.5,72.5,316.5,80.5,308.0,89.0,297.0,97.0,293.5,105.0,296.5,112.5,290.5,120.5,278.5,128.5,275.5,131.5,262.0,138.5,249.5,147.0,242.5,151.0,241.5,153.5,248.5,152.5,254.5,144.5,263.0,137.5,271.5,135.5,275.5,128.5,284.0,128.5,291.0,122.5,299.0,117.5,304.5,114.5" stroke="black" stroke-width="2" fill="none" />
<polyline points="301.0,99.5,287.5,100.5,275.5,93.5,272.5,88.5" stroke="black" stroke-width="2" fill="none" />
<polyline points="269.5,92.0,277.5,93.0,286.0,93.0,294.0,85.0,302.0,74.0,310.5,62.0,318.5,50.0,326.5,48.5,334.5,41.5" stroke="black" stroke-width="2" fill="none" />
<polyline points="340.0,33.5,348.0,26.0,355.5,18.5,363.0,11.5,371.0,4.5" stroke="black" stroke-width="2" fill="none" />
<polyline points="379.0,3.5,371.5,11.0,363.5,18.5,355.5,25.5,347.5,33.0" stroke="black" stroke-width="2" fill="none" />
<polyline points="355.5,33.5,363.0,25.5,371.0,18.0,379.5,10.5,387.5,3.5" stroke="black" stroke-width="2" fill="none" />
<polyline points="362.5,3.0,354.5,10.5,346.5,18.5,338.5,26.0" stroke="black" stroke-width="2" fill="none" />
<polyline points="332.5,27.0,341.0,20.0,348.5,13.5,356.5,6.0" stroke="black" stroke-width="2" fill="none" />
<polyline points="347.0,3.5,339.0,11.0,330.5,19.0,322.5,26.5" stroke="black" stroke-width="2" fill="none" />
<polyline points="324.0,28.5,339.0,36.0" stroke="black" stroke-width="2" fill="none" />
<polyline points="349.0,41.0,357.5,49.0,368.5,56.5,371.5,57.0,383.5,64.5,397.5,72.5,406.5,80.5,412.5,84.5,423.5,91.5,435.0,97.5,447.0,106.5,453.0,110.0,461.5,116.5,458.5,121.5,454.5,123.5,461.5,128.5,458.5,139.0,466.0,146.0,474.0,153.0" stroke="black" stroke-width="2" fill="none" />
<polyline points="408.0,119.0,400.0,104.0,392.0,95.0,390.0,90.0,382.5,95.0,374.0,97.0,366.0,98.0,358.0,102.0,350.0,107.5,341.5,111.5,333.0,115.5,324.5,119.5,316.5,123.0,339.5,114.0,355.5,106.5" stroke="black" stroke-width="2" fill="none" />
<polyline points="369.5,60.5,377.5,68.5,388.0,76.5,395.0,84.5,401.5,92.5,394.0,94.0,398.0,99.5,400.0,102.5,406.5,110.5,413.5,118.5,418.0,123.5,425.0,131.5,429.5,135.0" stroke="black" stroke-width="2" fill="none" />
<polyline points="401.5,128.0,393.5,115.5,383.0,117.5,375.0,116.5,367.0,119.5,359.5,122.5,351.5,126.0,343.5,127.5,335.5,130.5,327.5,132.5,319.5,134.0,311.5,138.0,306.5,136.5,302.5,138.5,307.5,130.5,320.5,120.5,337.5,113.0,352.5,105.0,367.0,97.0,383.5,94.5,388.5,86.5,381.5,81.0,379.5,67.0,370.5,59.0" stroke="black" stroke-width="2" fill="none" />
<polyline points="361.5,55.0,368.0,63.0,374.5,70.5,364.0,78.5,352.5,87.0,339.5,95.0,347.5,90.5,355.5,87.0" stroke="black" stroke-width="2" fill="none" />
<polyline points="341.0,66.5,333.0,72.5,336.0,69.5,349.0,60.5,358.0,52.5" stroke="black" stroke-width="2" fill="none" />
<polyline points="325.5,53.0,319.5,61.0,322.5,58.0" stroke="black" stroke-width="2" fill="none" />
<polyline points="325.0,52.0,317.0,52.0" stroke="black" stroke-width="2" fill="none" />
<polyline points="315.5,60.5,307.5,61.0" stroke="black" stroke-width="2" fill="none" />
<polyline points="282.5,68.0,275.0,75.5,267.0,83.0,259.0,90.5,250.5,98.0,242.5,105.5" stroke="black" stroke-width="2" fill="none" />
<polyline points="203.5,102.0,212.5,95.0,221.0,88.0,229.0,81.0,237.0,73.0,244.0,65.5,251.5,58.0,258.5,51.0,266.0,44.0,273.5,36.5,281.0,28.5,289.0,21.0,297.0,13.0,305.0,5.0" stroke="black" stroke-width="2" fill="none" />
<polyline points="297.5,3.5,289.5,11.5,281.5,19.0,273.5,27.0,266.0,35.0,258.5,42.5,251.0,50.5,243.0,58.5,235.0,66.0,227.5,73.0,219.0,80.0,211.0,87.5,202.5,95.0,194.5,102.5" stroke="black" stroke-width="2" fill="none" />
<polyline points="189.5,100.0,198.0,93.0,206.5,86.0,214.5,78.0,222.5,70.5,230.0,63.5,237.5,56.5,244.0,49.5,251.0,42.5,259.0,35.0,266.5,28.0,274.0,21.0,282.0,13.5,289.5,5.5" stroke="black" stroke-width="2" fill="none" />
<polyline points="282.0,3.0,274.0,10.5,265.5,18.0,257.5,25.0,249.5,32.5,241.5,40.5,234.0,48.0,226.5,55.5,218.5,62.5,211.0,69.5,203.0,76.5,195.0,84.5,187.5,92.5,179.5,100.0" stroke="black" stroke-width="2" fill="none" />
<polyline points="172.0,101.0,180.0,93.5,187.5,86.5,195.5,79.0,203.5,70.5,212.0,62.5,220.0,54.5,228.0,47.0,236.5,39.5,244.0,32.0,252.0,24.5,260.0,17.0,267.5,10.0,276.0,2.5" stroke="black" stroke-width="2" fill="none" />
<polyline points="267.0,2.5,259.0,10.0,251.0,17.0,243.0,24.5,235.0,32.0,227.0,39.5,219.0,47.5,211.0,55.5,203.0,63.5,195.5,71.0,187.5,78.5,179.5,85.5,171.0,93.0,163.0,100.5" stroke="black" stroke-width="2" fill="none" />
<polyline points="155.5,100.5,163.5,93.5,171.5,86.0,179.0,78.5,187.5,71.0,195.5,63.5,203.5,55.5,211.5,48.0,219.0,41.0,227.0,33.5,234.5,26.0,242.5,18.5,251.0,11.0,259.0,3.5" stroke="black" stroke-width="2" fill="none" />
<polyline points="249.5,4.0,242.0,11.5,234.5,18.5,227.0,26.0,219.0,34.0,211.0,41.5,203.0,49.0,195.0,57.0,187.0,64.5,179.0,72.0,171.0,79.5,163.0,86.5,155.5,93.5,148.0,101.0" stroke="black" stroke-width="2" fill="none" />
<polyline points="138.5,101.0,146.5,93.5,154.5,85.5,162.5,78.0,170.5,70.5,178.5,63.5,186.5,56.5,195.0,49.0,203.0,41.0,211.0,33.5,219.5,25.5,227.5,18.0,235.0,10.5,243.0,3.0" stroke="black" stroke-width="2" fill="none" />
<polyline points="233.0,2.5,225.0,9.5,217.5,17.5,210.0,26.0,202.5,33.5,194.5,41.0,187.5,49.5,180.0,57.5,172.5,65.0,164.5,72.0,156.0,79.5,148.5,87.0,141.0,94.0,133.5,101.5,125.0,108.5,117.0,116.0" stroke="black" stroke-width="2" fill="none" />
<polyline points="109.5,114.5,117.5,107.5,125.0,100.5,133.0,93.5,141.0,86.5,149.0,78.5,157.0,71.0,165.0,63.0,172.5,55.0,180.0,47.5,187.5,40.5,195.5,33.5,203.0,26.0,211.0,19.0,219.5,12.5,227.0,5.5" stroke="black" stroke-width="2" fill="none" />
<polyline points="221.0,4.5,213.0,12.0,205.0,20.0,197.0,27.0,189.0,34.0,181.5,41.5,173.5,48.5,165.5,55.5,158.0,63.0,150.0,70.5,141.5,77.5,133.5,85.0,125.0,93.0,116.5,101.0,108.0,109.0,100.0,117.0" stroke="black" stroke-width="2" fill="none" />
<polyline points="91.0,114.5,99.0,107.0,107.0,99.5,115.0,92.0,123.0,85.0,131.0,77.5,139.0,70.0,146.5,62.0,154.5,55.0,162.5,48.5,171.0,41.5,178.5,34.0,187.5,27.0,196.0,19.5,204.0,12.5,212.0,5.5" stroke="black" stroke-width="2" fill="none" />
<polyline points="203.0,4.0,194.5,12.0,186.5,19.5,178.5,26.5,171.0,34.0,162.5,41.5,155.0,49.0,146.5,56.0,138.0,63.0,130.0,71.0,121.5,79.0,114.0,86.5,106.5,93.5,99.0,101.0,91.0,109.0,83.0,116.5" stroke="black" stroke-width="2" fill="none" />
<polyline points="74.5,117.5,82.0,109.5,90.5,102.5,98.5,95.0,107.0,87.0,114.5,79.0,123.0,71.5,131.5,64.5,139.5,56.5,148.0,48.5,156.0,41.0,164.0,33.0,172.0,25.0,180.0,16.5,188.0,9.0,196.0,1.0" stroke="black" stroke-width="2" fill="none" />
<polyline points="170.5,3.0,162.5,10.5,154.5,17.5,146.5,25.0,138.0,32.5,130.0,40.0,122.5,47.5,114.5,55.5,107.0,63.0,99.5,70.5,91.5,78.5,83.5,86.0,75.5,94.0,67.5,101.5,58.5,109.0,50.5,116.0,42.5,124.0,34.5,131.5,26.5,139.0,18.5,146.0,10.5,153.0,2.5,161.0" stroke="black" stroke-width="2" fill="none" />
<polyline points="2.5,161.0,2.5,168.5,2.5,176.5,2.5,184.0,2.5,191.5,2.5,199.5,2.5,207.5,2.5,215.5,2.5,223.5,2.5,231.5,2.5,240.0,2.5,248.0,2.5,256.0,2.5,264.0,2.0,272.0" stroke="black" stroke-width="2" fill="none" />
<polyline points="5.5,245.0,13.0,245.0,21.0,244.0,29.0,243.5,37.0,243.5,44.5,243.0,52.0,242.5,60.0,241.5,68.0,241.0" stroke="black" stroke-width="2" fill="none" />
<polyline points="83.0,242.5,76.5,246.5,71.0,247.5,65.0,237.5,57.0,244.0,49.0,249.0" stroke="black" stroke-width="2" fill="none" />
<polyline points="4.0,186.0,12.0,178.0,20.5,170.5,28.5,163.5,36.0,156.5,44.0,149.0" stroke="black" stroke-width="2" fill="none" />
<polyline points="50.5,148.5,58.5,141.0" stroke="black" stroke-width="2" fill="none" />
<polyline points="60.5,138.0,53.0,138.5" stroke="black" stroke-width="2" fill="none" />
<polyline points="50.5,143.5,59.0,141.5" stroke="black" stroke-width="2" fill="none" />
<polyline points="67.5,138.0,59.5,138.0,52.0,138.5,44.5,138.0,36.5,138.5,29.0,139.5,21.5,140.0,13.5,140.5,5.5,141.0" stroke="black" stroke-width="2" fill="none" />
<polyline points="5.0,139.0,13.0,131.0,20.5,124.0,28.5,117.0,35.5,109.0,43.5,101.0,51.5,93.0,59.0,85.5,66.5,78.0,74.5,70.0,82.0,63.0,90.0,55.5,98.0,48.0,105.5,40.5,113.0,33.0,121.0,25.5,129.0,18.0,137.0,11.0,145.5,3.5" stroke="black" stroke-width="2" fill="none" />
<polyline points="140.0,4.5,131.5,11.5,123.0,19.0,115.5,26.5,107.5,33.5,100.0,41.0,92.0,49.0,85.0,56.5,77.5,64.0,69.0,71.5,61.0,79.5,53.0,87.0,45.5,94.5,37.0,102.0,28.5,109.0,20.0,116.5,11.5,124.0,3.5,132.0" stroke="black" stroke-width="2" fill="none" />
<polyline points="5.5,131.5,13.5,131.0,21.0,131.0,28.5,131.0,36.5,132.0,44.0,132.0,52.0,131.5,59.5,131.0,67.5,130.5" stroke="black" stroke-width="2" fill="none" />
<polyline points="55.0,132.5,59.0,135.0,62.0,146.0,61.0,154.0,53.0,162.0,54.5,170.5" stroke="black" stroke-width="2" fill="none" />
<polyline points="60.0,177.0,52.0,178.0,43.5,178.5,35.0,179.5,26.5,180.0,18.5,180.5,10.0,181.0,2.0,181.0" stroke="black" stroke-width="2" fill="none" />
<polyline points="3.5,177.5,11.5,170.0,19.5,163.0,27.5,156.0,36.0,148.5,43.5,141.5" stroke="black" stroke-width="2" fill="none" />
<polyline points="42.5,131.0,51.0,128.0,59.0,129.5,67.0,128.5,74.5,127.5,82.0,127.5,90.0,127.5,98.5,127.5,106.5,126.5,114.0,126.0,122.0,126.0,130.0,126.0,138.0,126.0,146.0,126.0,157.5,125.5,170.0,126.5,177.5,126.5,185.5,125.5" stroke="black" stroke-width="2" fill="none" />
<polyline points="170.5,116.0,162.5,123.5" stroke="black" stroke-width="2" fill="none" />
<polyline points="155.5,123.5,163.5,116.0" stroke="black" stroke-width="2" fill="none" />
<polyline points="156.0,115.5,147.5,123.5" stroke="black" stroke-width="2" fill="none" />
<polyline points="145.0,115.0,137.0,122.5" stroke="black" stroke-width="2" fill="none" />
<polyline points="138.5,116.5,130.5,123.5" stroke="black" stroke-width="2" fill="none" />
<polyline points="129.0,114.5,121.5,122.0" stroke="black" stroke-width="2" fill="none" />
<polyline points="137.5,138.0,145.5,135.0,153.5,129.0,146.5,134.0,147.0,142.5,144.0,150.5,144.0,156.5,147.0,162.5,146.0,170.0,143.5,178.0,147.5,185.0,143.5,193.5,146.0,194.5,146.0,203.5,143.5,206.0,144.5,212.0,143.0,214.0,137.0,219.5,137.0,227.5,128.5,240.0,112.5,241.5,108.5,247.0,116.5,247.0,124.5,242.5,132.5,241.5,137.5,234.5" stroke="black" stroke-width="2" fill="none" />
<polyline points="129.0,160.0,137.5,159.0,145.5,158.5,154.0,157.5,163.0,156.5,171.0,156.0,178.5,155.0,186.5,154.5,194.5,153.5,202.0,153.0,210.5,152.0,218.0,152.0" stroke="black" stroke-width="2" fill="none" />
<polyline points="236.5,135.5,228.5,135.5,220.5,136.0,212.5,136.5,204.5,136.5,196.5,137.5,188.5,138.5,180.5,139.0,172.0,140.0,163.5,140.0,155.0,141.0,146.5,141.5,138.5,142.5" stroke="black" stroke-width="2" fill="none" />
<polyline points="142.0,133.0,138.0,141.0,137.0,149.0,132.0,157.0,122.0,165.0,120.0,173.0,110.5,181.0,106.0,189.5,104.5,197.5,98.5,206.0,90.5,214.0,96.5,216.0,96.0,224.0" stroke="black" stroke-width="2" fill="none" />
<polyline points="59.0,169.5,51.0,170.0,43.0,171.0,35.0,171.0,27.0,171.5,19.0,172.0,11.0,172.0,2.5,172.5" stroke="black" stroke-width="2" fill="none" />
<polyline points="4.5,165.0,12.5,164.0,20.0,163.0,27.5,163.0,35.5,162.5,43.5,162.5,51.5,162.0,59.0,161.5" stroke="black" stroke-width="2" fill="none" />
<polyline points="61.0,158.0,61.0,166.0,61.0,174.0,60.0,182.0,59.5,196.0" stroke="black" stroke-width="2" fill="none" />
<polyline points="67.5,153.5,59.5,154.0,52.0,154.0,44.0,154.5,36.0,154.5,28.0,155.0,20.0,155.5,11.5,155.5,3.5,156.5" stroke="black" stroke-width="2" fill="none" />
<polyline points="4.0,152.5,12.0,145.0,20.0,137.0,28.0,130.0,36.0,123.0,44.0,116.5,52.0,108.5,60.0,101.5,68.0,94.5,76.0,87.0,83.5,79.5,92.0,72.0,99.5,64.5,106.5,57.0,114.5,49.5,122.5,42.0,130.5,34.5,138.5,26.5,146.0,19.0,154.0,11.0,162.0,3.0" stroke="black" stroke-width="2" fill="none" />
<polyline points="156.0,3.5,148.0,11.0,139.5,19.0,131.5,26.5,123.5,34.0,116.0,41.0,108.0,48.0,100.0,54.5,92.0,61.5,84.0,69.0,76.0,76.0,68.0,84.0,60.0,91.5,52.0,100.0,44.0,108.0,36.0,116.0,28.0,123.5,19.5,131.5,11.5,139.5,3.0,146.5" stroke="black" stroke-width="2" fill="none" />
<polyline points="4.5,146.5,12.5,146.0,20.5,146.5,29.0,146.5,36.5,146.0,44.5,146.5,52.5,146.0,61.0,146.5,69.0,146.5" stroke="black" stroke-width="2" fill="none" />
<polyline points="47.5,131.0,46.5,138.5,50.5,146.5,50.5,154.5,46.5,155.5,50.5,160.5,48.5,173.5,49.5,177.5,57.5,186.0" stroke="black" stroke-width="2" fill="none" />
<polyline points="101.0,203.0,93.0,212.0,85.0,213.5,77.0,212.5,69.0,218.5,62.0,209.5,56.5,211.5,52.5,203.5,56.5,197.5,59.5,189.5,49.5,182.5,42.5,175.5,42.5,168.0,42.5,160.0,42.5,152.0,43.0,143.5,43.0,135.5,46.0,127.5" stroke="black" stroke-width="2" fill="none" />
<polyline points="4.5,124.5,13.0,116.5,21.0,109.0,28.5,101.0,36.0,94.0,43.5,86.5,51.5,79.5,59.5,71.5,67.5,64.0,75.0,57.0,83.0,49.0,91.0,41.5,98.5,33.5,107.0,26.0,114.5,18.5,122.5,10.5,130.5,3.0" stroke="black" stroke-width="2" fill="none" />
<polyline points="129.5,3.0,137.5,3.5,145.5,3.5,153.0,3.5,161.0,3.5,168.5,3.5,176.5,3.5,184.5,3.5,192.5,3.0,200.5,3.0,208.5,3.0,216.5,3.0,225.0,3.0,233.0,3.0,241.0,2.5,249.0,2.5,257.0,3.0,265.0,3.0,273.0,3.0,281.0,3.0,289.0,2.5,297.0,2.5,305.0,3.0,312.5,3.0,320.5,3.0,328.5,3.0,337.0,3.0,345.5,2.5,354.0,3.0,362.0,3.0,370.0,3.0,378.5,3.0,386.5,3.0" stroke="black" stroke-width="2" fill="none" />
<polyline points="396.5,33.0,404.5,32.5,412.5,32.5,420.0,32.0,428.0,32.0,436.0,32.0,443.5,31.5,451.5,31.0,459.5,30.5,468.0,30.0,476.5,29.5,484.5,29.0,492.5,28.5,500.0,28.0,508.5,27.0,516.0,26.5" stroke="black" stroke-width="2" fill="none" />
<polyline points="515.5,17.0,507.5,17.0,499.5,17.5,491.5,18.5,483.5,18.5,475.5,19.0,467.0,19.5,459.0,19.5,450.5,20.0,442.5,20.0,435.0,20.5,427.5,21.0,420.0,21.5,412.5,23.0,404.5,23.5,396.0,24.0,387.5,24.5,379.5,25.0,371.5,26.0,364.0,27.0,356.0,28.0,347.5,28.5,339.0,29.0,331.0,29.5,323.0,30.0" stroke="black" stroke-width="2" fill="none" />
<polyline points="125.0,4.5,117.0,12.0,109.0,19.0,101.0,26.5,92.0,33.5,84.0,41.0,75.5,48.0,67.5,55.0,58.5,62.0,50.5,69.0,43.0,76.5,34.5,84.0,26.5,91.5,19.0,99.5,12.0,107.0,5.0,114.5" stroke="black" stroke-width="2" fill="none" />
<polyline points="3.0,113.0,11.0,112.0,19.5,111.5" stroke="black" stroke-width="2" fill="none" />
<polyline points="5.0,108.5,13.5,101.5,22.0,94.0,30.5,87.0,38.5,79.5,46.0,72.0,53.5,64.5,60.5,57.0,68.0,49.5,75.5,42.0,83.5,34.5,91.0,26.0,98.5,18.0,106.5,10.0,115.0,2.5" stroke="black" stroke-width="2" fill="none" />
<polyline points="108.5,3.0,100.5,10.5,92.0,17.5,84.0,25.5,76.0,33.0,68.0,41.0,59.5,48.0,51.5,55.0,43.0,62.5,34.5,70.0,26.0,78.0,18.0,86.0,10.0,94.0,2.5,101.5" stroke="black" stroke-width="2" fill="none" />
<polyline points="4.5,101.5,12.5,101.0,20.5,100.5,28.5,100.0,36.0,99.5,44.0,99.0,52.0,99.5,60.0,99.5,67.5,99.0,75.0,98.5,83.0,97.5,90.5,97.0,98.0,96.5,106.0,96.5,113.5,96.0,121.5,95.0,129.5,94.5,138.0,94.0,146.0,92.5,153.5,92.0,161.5,91.5,169.5,91.0,178.0,91.0,186.5,90.5,194.5,90.5,202.5,89.5,210.5,89.0,218.5,88.0,226.5,87.0,235.0,86.0,243.5,85.5,251.5,85.0,259.5,85.0" stroke="black" stroke-width="2" fill="none" />
<polyline points="100.5,3.5,92.5,11.0,84.5,19.0,76.0,26.5,67.5,33.5,59.0,41.0,51.5,49.0,43.5,57.0,35.5,64.5,28.0,72.0,20.0,79.0,12.0,86.5,4.0,94.0" stroke="black" stroke-width="2" fill="none" />
<polyline points="2.5,93.0,11.0,93.0,19.5,92.5,27.5,92.5,35.5,91.5,43.5,91.0,52.0,90.5,60.5,90.5,68.5,90.0,76.5,90.0,85.0,89.0,92.5,88.5,100.5,88.0,108.5,88.0,116.0,87.5,124.0,87.0,131.5,86.5,139.5,86.5,147.5,86.5,156.0,86.0,164.0,85.5,172.0,85.0,180.5,84.5,188.5,84.0,197.0,83.0,205.0,83.0,213.5,82.5,222.0,82.0,230.0,81.5,238.0,80.0,245.5,80.0,253.5,79.5,261.5,79.0,269.5,78.0" stroke="black" stroke-width="2" fill="none" />
<polyline points="93.0,3.5,85.0,10.5,76.5,18.5,68.5,26.0,60.0,34.0,52.0,41.5,44.0,49.0,36.0,56.0,28.0,63.0,20.0,70.0,12.0,77.5,4.0,85.0" stroke="black" stroke-width="2" fill="none" />
<polyline points="5.0,84.0,13.5,83.5,21.5,83.5,29.5,83.5,37.5,83.0,45.5,82.5,53.0,81.5,60.0,80.5,67.5,80.0,75.5,79.5,83.5,79.0,91.5,78.5,99.0,78.0,107.0,77.5,115.5,77.0,124.0,77.0,132.0,76.0,140.0,76.0,148.5,75.5,156.5,75.5,164.0,75.0,173.0,74.5,181.5,74.5,189.5,73.5,197.0,73.0,205.0,72.0,212.5,71.5,220.0,71.5,227.0,71.5,235.0,71.5,243.0,70.5,251.5,70.5,259.5,69.0,268.0,68.5,275.5,67.5" stroke="black" stroke-width="2" fill="none" />
<polyline points="84.0,5.0,76.0,13.0,68.5,20.0,60.5,27.0,52.5,34.0,44.0,41.0,36.0,49.0,28.0,56.5,20.0,64.0,12.0,71.0,4.0,78.5" stroke="black" stroke-width="2" fill="none" />
<polyline points="4.5,78.5,12.0,77.5,20.0,77.0,28.5,75.5,36.5,74.5,44.5,73.5,52.0,73.0,60.5,73.0,68.5,72.5,76.5,72.0,84.5,71.5,93.0,71.0,101.0,71.0,108.5,71.0,116.0,70.5,123.5,70.5,131.5,70.5,139.0,70.0,147.0,70.0,154.5,69.5,163.0,69.0,171.0,68.5,179.0,68.0,187.5,67.5,195.5,67.0,204.0,66.0,212.0,65.5,220.0,65.0,228.0,64.0,236.0,63.5,244.5,62.5,252.0,62.5,260.0,62.0,267.5,61.5,274.5,60.5,282.0,60.0" stroke="black" stroke-width="2" fill="none" />
<polyline points="75.0,2.5,67.0,10.0,58.5,18.0,50.5,25.5,43.0,33.0,35.5,41.0,27.5,48.5,19.5,56.5,12.0,64.5,4.5,73.0" stroke="black" stroke-width="2" fill="none" />
<polyline points="3.5,74.0,12.0,73.5,20.5,73.0,28.5,72.5,37.0,72.0,45.5,71.5,53.5,71.0,61.5,70.5" stroke="black" stroke-width="2" fill="none" />
<polyline points="27.5,104.5,19.0,105.0,10.5,105.0,2.5,105.5" stroke="black" stroke-width="2" fill="none" />
<polyline points="1.0,110.5,9.0,110.0,17.0,109.0,25.5,108.0,34.5,108.0,43.5,107.5,52.0,106.5,60.0,106.0,68.5,106.0,77.5,105.0,85.5,105.0,93.0,104.5,100.5,103.5,108.5,103.0,116.5,102.5,124.0,102.0,132.0,102.0,139.5,102.5,147.5,102.5,155.5,102.5,163.5,102.0,171.5,101.5,179.0,101.0,186.5,100.5,194.0,100.0,201.0,99.5,209.0,98.5,217.5,97.5,225.5,96.5,234.0,95.5,242.0,95.0,250.0,94.0,257.5,93.5" stroke="black" stroke-width="2" fill="none" />
<polyline points="67.0,2.5,58.0,10.0,49.5,17.5,41.5,24.5,33.0,31.0,25.5,39.0,17.0,46.5,9.0,54.0,1.0,62.0" stroke="black" stroke-width="2" fill="none" />
<polyline points="3.0,62.0,10.5,61.0,18.5,60.5,27.0,60.5,35.5,60.0,44.5,60.0,53.0,59.0,61.0,58.0,69.0,57.0,77.0,56.5,85.5,56.0,93.0,56.0,101.0,55.0,109.0,54.5,117.0,54.5,124.5,54.0,132.0,53.5,140.0,52.5,148.0,52.0,155.5,51.0,163.0,50.5,171.5,49.5,179.0,49.0,186.5,48.5,194.5,48.0,202.5,47.5,210.0,47.0,218.0,46.5,225.5,46.0,234.0,45.5,242.0,45.0,250.0,44.0,258.5,43.5,266.5,43.5,275.0,43.5,283.5,43.0,292.0,43.0" stroke="black" stroke-width="2" fill="none" />
<polyline points="60.0,5.5,52.0,13.0,44.0,20.5,36.0,28.0,28.0,35.0,20.0,42.5,11.5,49.5,3.5,57.0" stroke="black" stroke-width="2" fill="none" />
<polyline points="4.5,57.0,12.0,57.0,20.0,57.0,28.0,56.5,36.0,55.5,44.5,55.5,52.5,55.0,60.5,55.0,69.0,54.5,78.0,54.0" stroke="black" stroke-width="2" fill="none" />
<polyline points="52.5,4.5,44.0,12.0,35.5,20.0,27.0,27.0,18.5,33.5,10.5,40.5,2.5,48.0" stroke="black" stroke-width="2" fill="none" />
<polyline points="3.0,48.5,11.0,48.0,19.0,47.5,27.0,47.5,35.5,47.0,43.5,46.5,52.0,46.0,60.0,45.5,68.5,45.0,77.0,44.0,85.0,44.0" stroke="black" stroke-width="2" fill="none" />
<polyline points="44.0,4.5,36.0,12.0,28.0,19.0,20.0,27.0,12.0,34.5,4.0,42.0" stroke="black" stroke-width="2" fill="none" />
<polyline points="3.5,41.5,11.5,40.5,18.5,40.0,26.5,39.5,35.0,39.0,42.5,38.5,51.0,38.0,59.5,37.5,68.0,37.0,76.0,36.5,84.5,36.0,92.0,36.0,100.0,35.5" stroke="black" stroke-width="2" fill="none" />
<polyline points="35.5,3.0,27.5,10.0,20.0,18.0,11.5,26.0,3.5,34.0" stroke="black" stroke-width="2" fill="none" />
<polyline points="4.0,32.5,12.0,32.0,20.0,31.5,28.0,31.5,35.5,31.0,43.0,30.5,51.0,30.0,59.0,29.5,66.5,29.0,74.5,28.0,82.0,27.0,90.0,27.0,98.0,27.0,106.5,27.0,114.5,27.0" stroke="black" stroke-width="2" fill="none" />
<polyline points="28.5,3.0,20.5,10.5,12.0,17.5,4.0,25.0" stroke="black" stroke-width="2" fill="none" />
<polyline points="3.5,25.0,11.5,24.5,19.5,23.5,27.5,23.0,35.0,22.5,43.0,22.5,51.0,21.5,59.0,20.5,67.0,20.0,75.0,19.5,82.5,19.5,91.0,19.0,99.0,19.0,107.0,18.5,115.0,18.0,123.0,18.0" stroke="black" stroke-width="2" fill="none" />
<polyline points="22.5,4.5,14.0,11.5,5.5,19.5" stroke="black" stroke-width="2" fill="none" />
<polyline points="4.5,18.5,12.5,18.0,20.0,17.0,28.0,16.0,36.5,15.0,44.5,14.0,52.5,13.5,60.0,13.0,68.0,12.5,75.5,12.0,83.5,11.5,91.5,10.5,100.0,10.5,108.0,10.0,116.0,9.5" stroke="black" stroke-width="2" fill="none" />
<polyline points="13.5,3.0,5.5,11.0" stroke="black" stroke-width="2" fill="none" />
<polyline points="3.5,10.5,11.5,9.5,19.5,9.0,27.5,8.5,35.0,7.5,42.5,7.0,51.5,6.5,60.0,6.0,68.5,5.0,77.5,4.5,85.5,4.0,93.5,3.5,101.5,3.0" stroke="black" stroke-width="2" fill="none" />
<polyline points="60.0,77.5,52.0,78.0,44.0,78.5,36.0,79.0,28.5,79.5,21.0,80.0,13.0,80.0,5.0,80.5" stroke="black" stroke-width="2" fill="none" />
<polyline points="4.0,89.0,12.0,88.0,20.5,87.5,28.5,87.0,36.0,86.5,44.0,86.0" stroke="black" stroke-width="2" fill="none" />
<polyline points="35.0,95.5,27.5,96.0,19.5,96.5,11.5,97.0,3.5,97.5" stroke="black" stroke-width="2" fill="none" />
<polyline points="4.5,117.0,12.5,116.5,20.5,115.5,28.5,114.5,35.5,113.5,43.0,113.0,51.0,113.0,58.5,113.0,66.5,113.0,74.0,113.0,81.5,112.5,89.5,112.0,98.0,112.0,106.0,111.5,114.0,110.5,122.5,109.5,130.5,109.0,138.0,108.5,146.5,108.0,155.5,108.0,164.0,107.5,171.5,107.0,179.0,106.0,187.0,105.5,194.5,105.0,203.0,105.0,211.0,104.5,219.5,104.0,227.5,103.5,236.0,103.0,244.0,102.0,252.0,101.5" stroke="black" stroke-width="2" fill="none" />
<polyline points="11.5,129.0,3.5,129.0" stroke="black" stroke-width="2" fill="none" />
<polyline points="2.5,127.0,10.5,126.0,18.5,125.0,26.5,123.5,34.5,123.0,42.5,122.0,50.5,122.0,58.5,121.0,66.5,120.5,74.5,120.5,82.5,120.0,90.5,119.5,98.5,119.5,106.5,118.5,114.0,118.0,121.5,118.0,129.5,117.5,137.5,117.0,145.0,117.0,153.0,117.0,161.0,116.5,169.0,116.0,177.5,115.5,186.0,115.0,194.5,114.5,203.5,114.0,212.0,113.0,220.5,113.0,229.0,113.0,237.5,112.5,245.5,112.0" stroke="black" stroke-width="2" fill="none" />
<polyline points="11.5,120.5,3.5,121.0" stroke="black" stroke-width="2" fill="none" />
<polyline points="4.0,68.5,12.0,68.0,21.0,67.0,29.5,66.5,37.5,66.0,45.5,65.5,53.0,65.5,61.0,65.0,68.5,65.5,77.0,66.0,85.0,65.5,93.0,65.0,101.0,64.0,109.0,63.5,116.0,63.0,123.5,62.5,131.0,62.5,138.0,62.0,145.5,61.5,153.0,61.0,161.5,60.5,169.0,60.0,177.5,60.0,186.0,60.0,195.0,59.0,203.5,58.5,211.5,57.5,219.5,56.5,227.0,56.0,234.5,55.0,242.0,54.5,250.5,54.0,259.0,53.0,267.5,52.0,275.5,51.0,283.0,51.0" stroke="black" stroke-width="2" fill="none" />
<polyline points="69.0,61.0,61.0,62.0,52.5,62.5,44.5,63.0,36.0,63.0,28.0,63.5,20.0,63.5,12.5,64.0,5.0,64.5" stroke="black" stroke-width="2" fill="none" />
<polyline points="4.0,52.5,12.0,52.0,20.5,51.5,28.5,51.5,37.0,52.0,45.0,52.0,53.0,52.0,61.0,51.5,69.0,50.5,76.5,49.0,84.5,48.5,92.5,48.0,101.0,48.0,108.5,48.0,116.0,47.5,123.5,47.0,131.5,46.0,140.0,46.0,148.0,45.0,155.5,44.0,163.5,43.5,171.5,43.0,179.0,42.5,187.5,42.0,196.5,42.0,204.5,42.0,212.0,41.5,220.0,40.5,227.5,39.5,235.0,39.0,243.0,39.0,251.0,38.5,259.0,38.0,267.5,37.5,276.0,37.0,284.0,36.0,291.5,35.0,299.5,34.0" stroke="black" stroke-width="2" fill="none" />
<polyline points="309.0,26.0,301.0,26.0,293.5,26.0,285.5,27.0,277.0,27.5,268.5,28.0,260.0,29.0,251.5,30.0,243.5,30.5,235.5,31.0,228.0,31.5,220.0,32.0,212.0,33.0,203.5,33.5,195.0,34.5,186.5,35.0,178.0,35.0,170.0,35.5,162.0,35.5,154.0,36.5,145.5,37.0,137.5,38.0,130.0,38.5,122.5,39.0,114.5,39.0,106.5,39.0,98.5,39.0,91.0,39.5,83.0,40.0,75.0,40.5,66.5,40.5,58.0,41.0,50.0,42.0,41.5,42.5,33.5,43.0,25.5,43.0,17.5,43.5,9.0,44.0,1.0,44.5" stroke="black" stroke-width="2" fill="none" />
<polyline points="4.5,39.0,12.0,38.5,20.0,37.5,28.0,37.0,36.5,36.0,45.0,35.0,52.5,34.5,60.0,33.5,68.0,33.0,76.0,32.0,84.0,31.5,92.5,31.0,100.5,31.5,108.0,31.0,116.0,31.0,124.0,30.5,132.0,30.5,140.0,30.5,148.0,30.5,155.5,30.5,163.5,30.0,171.5,29.5,180.0,28.5,188.0,27.5,195.0,26.5,203.0,25.5,211.0,25.0,219.0,24.5,227.0,24.0,235.0,24.0,242.5,23.5,250.5,22.5,258.0,22.0,266.5,21.0,275.0,20.0,283.5,19.0,292.0,18.5,300.0,18.5,308.5,18.0,316.5,17.5,324.0,17.5" stroke="black" stroke-width="2" fill="none" />
<polyline points="317.5,9.5,309.0,10.0,301.0,10.5,293.0,11.0,285.0,11.5,277.0,12.0,269.0,13.0,261.0,14.0,252.5,14.5,244.5,15.0,236.5,15.5,228.5,16.0,220.0,16.5,212.0,16.5,204.0,17.0,196.0,17.5,187.5,17.5,179.5,17.5,171.5,17.5,164.0,18.5,156.0,19.0,148.0,19.5,140.0,20.0,132.0,21.0,123.5,21.5,115.0,22.5,106.5,23.0,98.5,23.5,90.0,24.0,82.0,24.0,74.0,25.0,66.0,25.5,58.5,25.5,50.5,25.5,42.0,25.5,35.0,26.0,27.0,27.0,19.0,28.0,10.0,28.5,2.0,29.0" stroke="black" stroke-width="2" fill="none" />
<polyline points="6.0,22.5,14.0,22.5,21.5,21.5,29.0,20.5,36.5,19.5,44.0,18.0,52.0,17.5,60.0,17.0,68.0,16.5,76.5,16.5,84.5,16.0,92.5,15.0,100.0,14.0,107.5,14.0,115.5,13.5,123.5,13.5,131.5,13.0,139.0,12.5,146.5,12.0,155.0,11.5,163.0,11.0,170.5,10.0,179.0,10.0,187.0,9.5,194.5,9.5,202.0,9.0,210.5,9.0,219.0,8.5,227.0,8.0,234.5,7.0,243.0,6.0,250.5,6.0,258.0,6.0,266.0,6.0,274.0,6.0,282.0,5.0,290.5,5.0,299.0,3.5,307.5,2.5,315.0,2.0,323.0,1.0,331.0,1.0,339.0,1.0,347.5,0.5,356.0,0.0,364.0,-0.5,372.0,-1.0,380.0,-1.5,387.5,-2.0,396.0,-2.0,404.0,-2.5,412.5,-3.5,420.5,-3.5,428.5,-4.0,436.0,-4.0,444.5,-5.0,452.0,-5.5,459.5,-5.5,467.0,-6.0,474.5,-6.5,482.5,-7.0,490.5,-7.5,498.5,-8.0,507.0,-9.0,516.0,-10.0" stroke="black" stroke-width="2" fill="none" />
<polyline points="516.0,-19.5,508.0,-19.0,499.5,-18.0,491.5,-16.5,483.0,-15.5,475.5,-15.5,467.5,-15.0,459.5,-14.5,452.0,-14.5,444.5,-15.0,436.5,-14.5,429.5,-14.0,422.0,-14.0,414.5,-13.5,406.0,-13.5,398.0,-13.0,389.0,-12.0,380.5,-11.0,372.0,-10.0,364.0,-9.5,355.5,-9.0,348.0,-8.0,340.0,-7.5,331.5,-7.5,323.5,-7.5,315.5,-7.0,308.0,-6.0,300.0,-5.5,292.0,-5.0,283.5,-4.5,275.0,-3.5,266.5,-3.0,258.5,-2.0,250.5,-1.5,242.5,-1.0,234.5,-0.5,226.5,0.0,219.0,0.5,211.0,1.0,203.5,2.0,195.5,2.5,188.0,3.0,180.5,4.0,172.5,4.5,164.0,5.0,156.5,5.5,149.0,5.5,141.0,5.5,132.5,5.0,124.5,5.5,116.5,5.0,109.0,5.5,100.5,5.5,92.5,5.0,84.5,5.5,76.5,6.5,68.5,8.0,60.0,9.0,52.0,10.0,44.0,11.0,36.0,12.0,28.0,12.0,20.0,12.5,13.0,13.0,5.0,14.0" stroke="black" stroke-width="2" fill="none" />
<polyline points="2.0,4.5,10.0,3.5,18.5,3.5,26.5,3.5,34.5,2.5,42.5,2.0,51.5,1.5,61.0,0.5,69.5,-0.5,77.5,-1.0,85.5,-1.5,93.5,-2.0,101.0,-2.0,108.5,-2.0,116.5,-1.0,124.0,-1.0,132.0,-1.5,139.5,-2.0,147.5,-2.5,155.0,-3.0,163.0,-3.5,171.0,-4.0,178.5,-5.0,186.0,-6.0,194.5,-6.5,203.0,-7.5,211.0,-8.0,219.5,-8.0,228.0,-8.5,237.0,-8.5,245.0,-9.0,253.5,-9.5,260.5,-10.0,268.0,-10.0,275.5,-10.5,283.0,-10.5,291.0,-11.5,299.5,-12.0,308.0,-12.5,315.5,-13.0,323.5,-13.5,331.5,-14.0,339.0,-14.5,346.5,-15.5,354.5,-17.0,362.5,-18.0,370.0,-19.0,377.5,-19.0,385.0,-19.0,392.5,-19.5,400.5,-19.5,408.5,-20.5,417.5,-21.5,426.0,-22.0,434.0,-22.0,441.5,-21.5,450.5,-21.5,459.0,-21.5,467.5,-21.5,476.0,-21.5,484.0,-22.0,492.0,-22.5,499.5,-22.5,507.5,-23.5,516.0,-24.5" stroke="black" stroke-width="2" fill="none" />
<polyline points="408.5,366.0,401.0,366.0,393.0,366.0,384.5,366.0,376.0,366.0,367.5,366.5,359.5,366.5,351.5,367.0,343.0,367.0,335.5,367.0,327.5,367.0,319.0,367.0,311.0,366.5,303.0,366.5,295.5,367.0,287.5,367.0,279.5,367.0,271.0,367.0,263.0,367.0,254.5,367.0,246.5,367.5,238.5,367.5,230.5,367.5,222.5,367.5,214.5,367.5,206.5,367.5,199.0,367.5,191.0,367.5,183.0,368.0,175.5,368.0,167.5,368.0,159.5,368.0,151.5,368.0" stroke="black" stroke-width="2" fill="none" />
</svg>