<svg xmlns="http://www.w3.org/2000/svg" version="1.1"><polyline points="2.0,1.5,2.5,9.5,2.5,17.5,2.5,25.5,2.5,33.5,2.5,41.5,3.0,49.5,4.0,57.0,4.5,65.0,4.5,72.5,4.5,81.0,4.5,89.0,4.0,97.0,3.5,105.5,3.5,114.5,3.5,123.0,3.5,131.0,3.0,138.5,3.0,146.5,3.0,154.5,3.0,162.5,2.5,170.5,2.5,178.5,2.5,186.0,2.5,194.0,3.0,202.0,3.0,210.0,3.0,218.0,3.5,226.0,4.0,234.5,4.0,242.5,4.0,250.5,4.0,258.5,3.5,266.5,3.0,275.0,3.0,283.0,3.0,291.0,3.0,298.5,3.5,306.5,3.0,314.5,3.0,322.5,3.0,330.5,2.5,338.5,2.5,346.5,2.5,354.0,2.5,361.5,2.0,369.5,2.0,377.5,1.5,385.5,1.0,394.0,1.0,402.0,1.0,410.0,2.0,417.5,2.0,425.5,2.0,434.0,2.0,442.5,2.5,450.5,2.5,459.0,3.0,467.5,3.5,475.5,3.5,484.0,3.5,492.0,3.0,500.0,3.0,507.5,3.5,515.0,3.5,523.0,3.0,531.0,3.0,538.5,2.5,546.0,2.5,553.5,3.0,561.5,2.5,569.5,2.5,578.0,2.5,586.0,3.0,594.5,3.0,603.0,3.5,611.0,4.0,619.0,4.0,627.0,4.5,635.0,5.0,643.0,5.0,651.0,4.5,658.5,4.5,666.5,4.0,674.0,4.0,682.0,4.0,689.5,4.0,698.0,4.0,706.0,4.0,714.5,4.0,722.5,4.0,730.0,3.5,738.0,3.5,745.5,3.0,753.5,3.0,761.5,4.5,768.5,12.5,768.0,20.0,767.5,28.0,767.5,36.0,767.5,44.0,767.5,52.5,768.0,60.5,768.0,68.5,768.5,76.5,769.0,84.5,769.0,92.5,769.0,100.5,769.0,108.5,768.5,116.5,768.0,124.5,768.0,132.5,768.5,140.5,769.0,148.5,769.0,156.5,769.5,164.5,769.5,172.5,770.0,181.0,770.0,189.0,770.0,197.0,770.0,205.0,770.0,213.0,770.0,220.5,769.5,228.5,769.5,236.0,769.5,244.0,769.5,252.0,769.5,260.0,769.5,268.0,770.0,276.5,770.5,284.5,770.5,292.5,769.5,300.5,769.0,309.0,769.0,317.0,769.0,325.0,768.5,333.5,768.5,341.5,768.0,349.0,768.5,357.0,768.5,365.0,768.5,373.0,768.0,380.5,768.0,388.5,767.5,396.0,768.0,404.0,768.0,412.0,768.0,420.0,768.5,428.0,768.0,435.5,768.0,443.5,768.0,451.5,768.0,459.5,768.0,468.0,768.5,476.0,769.0,484.0,769.0,492.5,769.5,500.5,770.0,508.5,770.0" stroke="black" stroke-width="2" fill="none" />
<polyline points="338.0,554.5,330.0,562.0,321.5,569.0,313.5,576.0" stroke="black" stroke-width="2" fill="none" />
<polyline points="307.0,576.5,315.0,568.5,323.5,561.0,331.5,553.0,339.0,545.0,347.0,537.5" stroke="black" stroke-width="2" fill="none" />
<polyline points="348.5,531.5,340.5,538.5,332.0,545.5,324.5,552.5,317.0,560.5,309.5,568.0,301.5,576.0" stroke="black" stroke-width="2" fill="none" />
<polyline points="299.0,571.0,307.0,563.5" stroke="black" stroke-width="2" fill="none" />
<polyline points="313.0,562.5,321.0,562.0,329.0,561.0" stroke="black" stroke-width="2" fill="none" />
<polyline points="317.0,553.5,324.5,546.0,332.0,538.5,340.5,531.5,348.0,524.0" stroke="black" stroke-width="2" fill="none" />
<polyline points="349.0,519.5,340.5,520.0,332.0,520.0,324.0,520.0,315.5,520.5" stroke="black" stroke-width="2" fill="none" />
<polyline points="314.0,523.5,313.5,531.5" stroke="black" stroke-width="2" fill="none" />
<polyline points="316.0,528.5,324.5,528.0,333.0,527.0,341.0,526.5" stroke="black" stroke-width="2" fill="none" />
<polyline points="345.0,530.5,353.5,531.5" stroke="black" stroke-width="2" fill="none" />
<polyline points="356.0,530.0,364.0,522.5,372.5,515.0,380.5,507.5,388.5,499.5" stroke="black" stroke-width="2" fill="none" />
<polyline points="388.0,492.0,380.5,499.5,372.5,506.5,364.5,514.0,356.5,521.5" stroke="black" stroke-width="2" fill="none" />
<polyline points="364.0,521.0,372.5,520.5" stroke="black" stroke-width="2" fill="none" />
<polyline points="380.0,514.0,372.0,514.0,364.0,514.5" stroke="black" stroke-width="2" fill="none" />
<polyline points="357.0,513.0,365.0,506.0,373.0,498.5,380.5,491.0,388.0,483.0" stroke="black" stroke-width="2" fill="none" />
<polyline points="395.0,484.0,403.5,476.5,411.5,469.0,420.0,462.0" stroke="black" stroke-width="2" fill="none" />
<polyline points="419.0,468.5,411.0,476.5,403.0,484.0" stroke="black" stroke-width="2" fill="none" />
<polyline points="404.5,473.0,412.5,472.5" stroke="black" stroke-width="2" fill="none" />
<polyline points="412.0,465.0,404.0,465.5" stroke="black" stroke-width="2" fill="none" />
<polyline points="397.0,467.5,405.0,459.5,413.0,452.5,420.5,445.5" stroke="black" stroke-width="2" fill="none" />
<polyline points="419.0,452.5,411.0,460.0,403.0,467.5,395.0,475.5" stroke="black" stroke-width="2" fill="none" />
<polyline points="389.5,474.5,381.0,482.0,373.0,490.5,364.5,498.0" stroke="black" stroke-width="2" fill="none" />
<polyline points="363.5,499.5,372.0,498.5,379.5,498.0" stroke="black" stroke-width="2" fill="none" />
<polyline points="380.5,505.5,372.0,506.5,364.0,507.0" stroke="black" stroke-width="2" fill="none" />
<polyline points="356.5,497.5,364.5,489.5,372.5,481.5,380.0,474.0,388.5,466.5" stroke="black" stroke-width="2" fill="none" />
<polyline points="388.0,471.0,380.0,471.5,372.5,472.5,364.5,473.0" stroke="black" stroke-width="2" fill="none" />
<polyline points="366.5,466.5,374.0,465.5,381.5,465.5" stroke="black" stroke-width="2" fill="none" />
<polyline points="386.5,473.0,394.0,475.0" stroke="black" stroke-width="2" fill="none" />
<polyline points="389.0,459.0,381.0,466.5,372.5,474.5,364.0,483.0,356.0,491.0" stroke="black" stroke-width="2" fill="none" />
<polyline points="364.0,490.5,372.0,490.0,380.0,489.0" stroke="black" stroke-width="2" fill="none" />
<polyline points="380.0,480.0,371.5,480.0,363.5,481.0" stroke="black" stroke-width="2" fill="none" />
<polyline points="355.5,482.0,364.0,474.0,371.5,466.0,379.0,458.5,387.0,451.5" stroke="black" stroke-width="2" fill="none" />
<polyline points="387.5,443.0,380.0,450.5,371.5,458.5,363.0,466.0,355.5,474.0,347.5,481.5,340.0,489.0,332.5,496.5,325.0,504.5,317.0,512.5,308.5,520.5,301.0,527.5" stroke="black" stroke-width="2" fill="none" />
<polyline points="293.5,527.0,301.5,519.0,309.5,512.0,318.0,504.0,326.0,496.5,334.0,489.0,342.0,482.0,350.0,474.5,357.5,466.5,365.0,458.5,372.0,451.0,380.0,443.0,388.0,435.5" stroke="black" stroke-width="2" fill="none" />
<polyline points="388.5,428.0,380.0,435.5,371.0,443.0,363.0,451.0,355.0,458.5,347.0,466.0,339.5,473.5,332.5,481.0,325.0,489.0,317.0,496.5,309.0,504.5,301.5,511.5,293.0,518.5,284.5,526.0" stroke="black" stroke-width="2" fill="none" />
<polyline points="276.0,526.0,284.5,518.0,292.5,510.5,300.5,503.5,308.5,496.0,316.5,488.0,324.5,480.5,332.0,473.5,340.0,466.5,347.5,459.0,355.0,450.5,362.0,442.0,369.5,433.5,377.5,425.5,385.0,418.0" stroke="black" stroke-width="2" fill="none" />
<polyline points="386.5,410.5,378.5,418.5,370.5,426.0,362.5,434.0,354.5,442.0,346.5,450.5,338.5,458.0,330.5,465.0,322.5,472.0,315.0,479.5,307.0,487.0,299.0,494.5,291.0,502.5,283.5,510.0,275.5,517.5,267.5,524.5" stroke="black" stroke-width="2" fill="none" />
<polyline points="267.5,518.0,276.0,510.5,284.0,503.0,292.5,495.5,300.5,488.5,309.0,480.5,316.5,473.0,324.5,465.0,332.0,457.5,340.5,450.0,348.5,442.5" stroke="black" stroke-width="2" fill="none" />
<polyline points="348.0,435.0,340.0,442.5,333.0,450.0,325.5,458.0,318.0,466.0,310.0,474.0,301.5,481.0,292.5,488.5,284.0,496.0,276.0,503.0,268.0,510.5,260.0,518.0" stroke="black" stroke-width="2" fill="none" />
<polyline points="252.5,518.5,260.0,511.0,267.0,503.5,275.0,495.5,283.0,488.0,290.5,481.5,298.5,474.0,306.5,466.5,314.5,458.5,322.5,451.0" stroke="black" stroke-width="2" fill="none" />
<polyline points="323.5,446.0,316.0,453.5,308.0,461.0,300.0,468.0,292.0,474.5,283.5,481.0,275.0,488.5,266.5,495.5,258.5,502.5" stroke="black" stroke-width="2" fill="none" />
<polyline points="259.0,505.0,267.0,504.5,275.0,504.0,283.0,504.0,290.5,503.5" stroke="black" stroke-width="2" fill="none" />
<polyline points="292.5,512.5,300.5,512.0,308.0,511.0" stroke="black" stroke-width="2" fill="none" />
<polyline points="316.5,514.0,324.0,513.0,331.5,512.5,339.5,511.5,347.5,510.5" stroke="black" stroke-width="2" fill="none" />
<polyline points="346.0,506.5,338.5,514.0,330.0,522.0,322.5,530.0,315.0,538.0" stroke="black" stroke-width="2" fill="none" />
<polyline points="317.0,537.5,325.5,537.0,333.5,536.0,341.5,535.0" stroke="black" stroke-width="2" fill="none" />
<polyline points="348.5,548.5,340.5,549.0,332.5,549.0,324.5,549.0,316.0,549.5" stroke="black" stroke-width="2" fill="none" />
<polyline points="316.0,546.5,323.5,538.5,331.5,530.5,340.5,523.0,349.0,515.0" stroke="black" stroke-width="2" fill="none" />
<polyline points="348.0,503.0,340.0,503.5,332.0,504.5,324.0,505.0,316.0,505.5" stroke="black" stroke-width="2" fill="none" />
<polyline points="317.5,496.0,326.0,496.0,333.5,495.5,341.0,495.0,349.0,494.5" stroke="black" stroke-width="2" fill="none" />
<polyline points="347.0,490.5,338.5,498.5,330.5,506.0,322.5,513.5,314.5,521.0,307.0,528.5" stroke="black" stroke-width="2" fill="none" />
<polyline points="307.5,536.5,315.0,529.0,323.0,521.5,331.0,514.0,338.5,507.0,346.0,499.0" stroke="black" stroke-width="2" fill="none" />
<polyline points="345.0,492.0,353.0,496.0,362.0,499.5" stroke="black" stroke-width="2" fill="none" />
<polyline points="349.5,487.0,341.5,487.0,333.0,487.5,324.5,488.5,316.0,489.0" stroke="black" stroke-width="2" fill="none" />
<polyline points="314.5,490.0,314.5,498.0,314.0,506.0" stroke="black" stroke-width="2" fill="none" />
<polyline points="313.0,489.0,311.0,497.0,311.0,504.5,311.0,512.5,313.0,519.0,311.5,527.0,311.0,535.0,312.0,545.5,312.0,553.5,311.0,563.5,311.0,571.5,311.0,579.5" stroke="black" stroke-width="2" fill="none" />
<polyline points="312.5,569.5,320.5,568.5" stroke="black" stroke-width="2" fill="none" />
<polyline points="313.0,555.5,321.0,554.5,330.0,553.5,338.0,552.5" stroke="black" stroke-width="2" fill="none" />
<polyline points="340.5,543.0,332.0,544.0,324.0,544.0,315.5,544.5" stroke="black" stroke-width="2" fill="none" />
<polyline points="309.5,542.0,317.0,541.5,325.0,541.0,333.0,540.5,340.5,539.5,348.5,539.0" stroke="black" stroke-width="2" fill="none" />
<polyline points="340.0,550.5,332.0,551.0,323.5,551.5,315.5,551.5,307.0,552.5,299.0,553.0,291.0,554.0,282.5,554.5,274.5,555.0,266.5,554.5,258.0,555.5,250.0,556.5,242.5,556.5,234.5,557.0,227.0,557.5" stroke="black" stroke-width="2" fill="none" />
<polyline points="242.0,563.5,249.5,556.0" stroke="black" stroke-width="2" fill="none" />
<polyline points="250.0,545.0,242.0,553.0,234.0,560.5" stroke="black" stroke-width="2" fill="none" />
<polyline points="235.5,554.0,243.0,546.5,251.0,539.0" stroke="black" stroke-width="2" fill="none" />
<polyline points="244.5,541.5,236.5,542.5,228.5,543.0,220.0,544.0,211.5,544.0,203.0,545.0,194.5,545.5,186.5,546.5" stroke="black" stroke-width="2" fill="none" />
<polyline points="196.0,545.5,203.5,537.5,210.5,529.0,218.5,521.5,226.0,514.0,233.5,505.5,241.0,497.5,249.0,490.5" stroke="black" stroke-width="2" fill="none" />
<polyline points="250.5,489.5,242.5,490.5" stroke="black" stroke-width="2" fill="none" />
<polyline points="243.5,497.0,251.5,496.5" stroke="black" stroke-width="2" fill="none" />
<polyline points="250.5,499.0,242.5,506.5,235.0,514.5,227.0,522.0" stroke="black" stroke-width="2" fill="none" />
<polyline points="229.0,514.0,237.5,513.5,244.5,513.0,252.0,513.0" stroke="black" stroke-width="2" fill="none" />
<polyline points="250.5,516.0,243.0,524.0" stroke="black" stroke-width="2" fill="none" />
<polyline points="243.5,521.5,251.5,521.0" stroke="black" stroke-width="2" fill="none" />
<polyline points="235.0,517.5,243.0,510.5,251.0,503.0,259.0,496.0,268.0,488.5,277.0,481.0,285.0,473.5,293.5,466.5,301.0,459.0,308.5,452.0,316.0,444.5" stroke="black" stroke-width="2" fill="none" />
<polyline points="315.0,435.5,307.0,443.0,298.5,451.0,290.5,458.5,283.0,466.0,275.0,473.5,267.5,480.5,259.0,488.0" stroke="black" stroke-width="2" fill="none" />
<polyline points="258.0,486.0,266.0,485.0,273.5,484.5,282.0,484.5,290.5,484.0,299.0,484.0,307.5,482.5,316.0,482.0,324.0,481.0,332.0,480.0,340.0,479.5,348.5,479.0,357.0,478.0,365.0,477.5,373.5,477.5,381.0,477.0,388.5,476.5,396.5,476.5,404.5,476.5,412.0,477.0" stroke="black" stroke-width="2" fill="none" />
<polyline points="419.0,457.0,411.0,457.5,403.0,457.5" stroke="black" stroke-width="2" fill="none" />
<polyline points="405.5,452.0,413.5,444.0,421.5,437.0" stroke="black" stroke-width="2" fill="none" />
<polyline points="421.0,429.5,413.5,436.5,405.0,443.5,396.5,451.0" stroke="black" stroke-width="2" fill="none" />
<polyline points="396.5,443.0,404.5,435.5,412.5,428.5,420.5,421.0" stroke="black" stroke-width="2" fill="none" />
<polyline points="419.0,412.0,411.0,419.5,403.0,427.5" stroke="black" stroke-width="2" fill="none" />
<polyline points="405.0,424.5,413.0,423.5,421.0,423.5" stroke="black" stroke-width="2" fill="none" />
<polyline points="419.0,418.0,411.0,418.5" stroke="black" stroke-width="2" fill="none" />
<polyline points="402.0,419.5,410.0,412.0,418.0,404.5" stroke="black" stroke-width="2" fill="none" />
<polyline points="419.5,395.0,411.0,402.5,403.0,410.0" stroke="black" stroke-width="2" fill="none" />
<polyline points="401.5,401.0,410.0,393.5,418.0,386.0" stroke="black" stroke-width="2" fill="none" />
<polyline points="420.0,380.5,411.5,388.0,403.0,396.0" stroke="black" stroke-width="2" fill="none" />
<polyline points="404.5,389.0,412.5,381.5,420.5,373.5" stroke="black" stroke-width="2" fill="none" />
<polyline points="421.0,374.5,421.5,382.5,420.5,390.5,421.0,398.5,419.0,406.5,420.5,413.5,413.5,420.5,420.5,428.5,418.0,436.0,419.0,443.5,418.0,451.5,418.0,459.5,414.5,467.5,409.5,477.0,401.0,485.5" stroke="black" stroke-width="2" fill="none" />
<polyline points="404.5,449.5,412.5,449.0,420.5,449.0" stroke="black" stroke-width="2" fill="none" />
<polyline points="421.5,442.5,413.0,443.0,405.0,444.0" stroke="black" stroke-width="2" fill="none" />
<polyline points="405.0,433.5,413.0,432.5,420.5,432.5" stroke="black" stroke-width="2" fill="none" />
<polyline points="386.5,403.0,378.5,410.5,370.5,418.5,362.5,426.0" stroke="black" stroke-width="2" fill="none" />
<polyline points="363.0,424.5,371.0,424.0,379.0,423.5,387.0,423.0" stroke="black" stroke-width="2" fill="none" />
<polyline points="389.0,441.0,380.5,441.5,372.0,441.5" stroke="black" stroke-width="2" fill="none" />
<polyline points="370.5,435.0,378.5,434.5,386.5,434.0" stroke="black" stroke-width="2" fill="none" />
<polyline points="381.0,456.5,373.5,457.0,365.5,457.0" stroke="black" stroke-width="2" fill="none" />
<polyline points="364.0,448.0,371.5,448.0,379.0,448.0,387.0,448.0" stroke="black" stroke-width="2" fill="none" />
<polyline points="362.5,418.0,370.0,410.0,378.5,402.0,386.5,394.0" stroke="black" stroke-width="2" fill="none" />
<polyline points="387.0,387.5,379.0,395.0,370.5,401.5,362.0,408.5" stroke="black" stroke-width="2" fill="none" />
<polyline points="361.5,408.0,369.5,407.5,378.0,407.0,386.5,407.0" stroke="black" stroke-width="2" fill="none" />
<polyline points="362.5,401.0,370.0,393.5,378.0,386.0,386.0,378.0" stroke="black" stroke-width="2" fill="none" />
<polyline points="386.0,371.5,378.0,379.0,371.0,386.5,363.5,394.5" stroke="black" stroke-width="2" fill="none" />
<polyline points="362.5,394.5,371.0,393.5,379.0,393.0,387.0,392.0" stroke="black" stroke-width="2" fill="none" />
<polyline points="404.5,379.5,413.0,372.5,421.0,365.0" stroke="black" stroke-width="2" fill="none" />
<polyline points="420.0,367.0,412.0,367.5,404.0,368.5,396.0,369.0,388.0,369.5,380.0,369.5,372.0,370.0,364.0,370.0,356.0,371.0,348.0,372.0,340.0,372.0,332.0,372.0,324.0,372.5,316.0,373.0,308.0,374.0,300.0,374.5,292.0,375.5,284.0,376.0,276.0,376.5,268.0,377.0,260.0,377.5,251.5,378.5,243.0,379.5,235.0,380.0,227.0,380.5,219.0,381.0,211.5,381.5,203.5,382.0,195.5,383.0,188.0,383.5,179.5,384.0,171.5,384.5,163.0,385.0,154.5,385.5,146.5,386.0,139.0,386.5,131.0,386.5,123.0,386.5,115.0,386.5,107.0,386.5,99.0,387.5,91.5,388.0,83.5,388.5,75.5,389.0,67.5,389.5" stroke="black" stroke-width="2" fill="none" />
<polyline points="68.0,392.5,76.0,385.5,84.0,378.5,91.5,371.5,99.5,364.0" stroke="black" stroke-width="2" fill="none" />
<polyline points="101.0,372.5,92.5,380.0,84.0,387.5,75.5,394.5,67.5,402.0" stroke="black" stroke-width="2" fill="none" />
<polyline points="66.5,397.5,74.5,397.0,83.0,397.0,91.5,396.5,100.0,396.0,108.5,396.0,116.5,395.5,124.5,395.0,132.5,395.0,140.0,394.5,148.0,393.5,156.0,393.0,164.0,392.5,172.0,392.0,180.0,391.0,188.0,390.5,195.5,389.5,202.5,389.0,210.0,389.0,218.0,388.5,226.0,388.0,234.5,387.5,242.5,387.0,250.5,387.0" stroke="black" stroke-width="2" fill="none" />
<polyline points="249.5,386.0,241.5,394.0,233.0,401.5,225.5,409.5,217.5,417.5,210.5,425.5,202.0,434.0" stroke="black" stroke-width="2" fill="none" />
<polyline points="194.0,432.5,202.5,424.5,211.0,416.5,220.0,408.0,228.5,400.5,237.0,393.5,245.0,386.0" stroke="black" stroke-width="2" fill="none" />
<polyline points="252.0,385.5,253.0,392.5,263.5,388.5" stroke="black" stroke-width="2" fill="none" />
<polyline points="261.5,383.0,269.0,382.0,276.5,381.0,284.0,380.5,292.0,380.0,299.5,379.5,308.0,379.0,316.5,378.0,324.5,377.0,332.5,376.5,340.0,376.0,348.5,375.5,357.0,374.5,365.5,374.0,373.5,374.0,381.5,374.0,389.0,373.5,396.0,373.0,404.0,372.0,412.5,371.5,420.5,371.0,428.5,370.5" stroke="black" stroke-width="2" fill="none" />
<polyline points="421.5,361.5,413.0,362.0,405.0,362.5" stroke="black" stroke-width="2" fill="none" />
<polyline points="404.5,363.5,412.5,356.0,420.0,348.5" stroke="black" stroke-width="2" fill="none" />
<polyline points="421.0,355.5,413.0,363.5,405.0,371.5" stroke="black" stroke-width="2" fill="none" />
<polyline points="411.5,359.0,419.5,357.5,416.0,365.5,414.0,373.5,408.5,376.0,408.5,384.0,409.0,392.0" stroke="black" stroke-width="2" fill="none" />
<polyline points="386.0,415.0,377.5,415.0,369.0,415.5,361.0,416.0" stroke="black" stroke-width="2" fill="none" />
<polyline points="349.0,419.0,341.0,426.5" stroke="black" stroke-width="2" fill="none" />
<polyline points="340.5,427.0,341.0,435.0" stroke="black" stroke-width="2" fill="none" />
<polyline points="341.5,434.5,349.0,427.0" stroke="black" stroke-width="2" fill="none" />
<polyline points="349.5,431.0,341.5,431.5" stroke="black" stroke-width="2" fill="none" />
<polyline points="340.5,425.0,348.5,424.5" stroke="black" stroke-width="2" fill="none" />
<polyline points="347.5,412.5,339.5,419.5,331.5,427.0" stroke="black" stroke-width="2" fill="none" />
<polyline points="329.5,425.0,329.5,428.5,329.5,436.5,329.5,444.5" stroke="black" stroke-width="2" fill="none" />
<polyline points="340.0,440.0,348.0,440.0" stroke="black" stroke-width="2" fill="none" />
<polyline points="348.0,448.5,340.5,448.5" stroke="black" stroke-width="2" fill="none" />
<polyline points="355.5,466.5,347.5,467.0,339.5,467.0,331.5,468.5,323.0,469.5,315.5,470.0,307.5,471.0,300.0,471.5,292.0,472.0,283.5,472.5,275.5,472.5,267.0,473.5" stroke="black" stroke-width="2" fill="none" />
<polyline points="266.5,469.0,274.0,461.5,282.0,454.0,290.5,447.0,298.5,440.0,307.0,432.5,315.0,426.0,322.5,419.0,330.0,412.0,338.5,405.0,346.5,398.0" stroke="black" stroke-width="2" fill="none" />
<polyline points="346.0,404.5,338.0,412.5,330.0,420.0,321.5,427.5" stroke="black" stroke-width="2" fill="none" />
<polyline points="324.0,429.0,324.0,437.0" stroke="black" stroke-width="2" fill="none" />
<polyline points="319.5,435.0,319.5,443.0" stroke="black" stroke-width="2" fill="none" />
<polyline points="318.5,443.0,319.0,435.0" stroke="black" stroke-width="2" fill="none" />
<polyline points="314.5,430.5,323.0,425.0,331.0,419.0,340.0,415.0,340.0,422.5,340.0,430.5,334.5,442.5" stroke="black" stroke-width="2" fill="none" />
<polyline points="325.5,425.0,317.5,425.5" stroke="black" stroke-width="2" fill="none" />
<polyline points="316.5,418.5,324.5,418.0,332.5,417.5,340.0,417.0" stroke="black" stroke-width="2" fill="none" />
<polyline points="335.5,417.5,322.5,425.5,316.5,434.5,316.5,442.0" stroke="black" stroke-width="2" fill="none" />
<polyline points="300.5,427.5,292.5,436.0,284.0,444.0,275.5,452.0,267.5,459.5,259.5,467.0" stroke="black" stroke-width="2" fill="none" />
<polyline points="259.5,468.5,267.5,468.0,275.5,468.0,283.5,468.0,291.5,467.5,299.0,467.5,307.5,467.0,316.0,466.0,324.5,465.5,332.5,465.0,340.5,465.0,348.0,464.0,355.5,463.5,363.5,462.5,371.5,461.5,380.0,461.0,387.5,461.0,395.0,462.0,403.0,462.0,411.5,462.0,419.5,461.5" stroke="black" stroke-width="2" fill="none" />
<polyline points="385.0,399.5,377.0,400.0,369.5,400.5,361.5,401.0" stroke="black" stroke-width="2" fill="none" />
<polyline points="363.0,385.5,371.0,377.5,379.0,369.5,387.0,362.0" stroke="black" stroke-width="2" fill="none" />
<polyline points="386.5,362.5,378.5,363.0" stroke="black" stroke-width="2" fill="none" />
<polyline points="380.0,355.5,388.0,355.0" stroke="black" stroke-width="2" fill="none" />
<polyline points="385.0,353.5,377.0,361.0,369.5,368.5,361.5,376.0" stroke="black" stroke-width="2" fill="none" />
<polyline points="365.5,376.5,373.5,376.0,380.5,376.0" stroke="black" stroke-width="2" fill="none" />
<polyline points="380.5,370.5,373.0,371.0" stroke="black" stroke-width="2" fill="none" />
<polyline points="362.5,370.0,370.0,363.0,377.5,356.0,385.0,349.0" stroke="black" stroke-width="2" fill="none" />
<polyline points="386.0,341.5,378.0,349.5,370.0,356.5,361.5,363.5" stroke="black" stroke-width="2" fill="none" />
<polyline points="364.0,353.5,372.0,346.0,379.5,339.0,387.5,331.5" stroke="black" stroke-width="2" fill="none" />
<polyline points="389.0,321.5,381.0,329.0,372.5,337.0,364.0,345.0" stroke="black" stroke-width="2" fill="none" />
<polyline points="371.0,346.5,379.5,345.5,387.5,344.0" stroke="black" stroke-width="2" fill="none" />
<polyline points="402.5,340.0,410.0,332.0,417.5,325.0" stroke="black" stroke-width="2" fill="none" />
<polyline points="419.5,334.0,411.5,341.5,404.0,348.5" stroke="black" stroke-width="2" fill="none" />
<polyline points="405.0,350.5,413.0,350.0,420.5,349.0,428.0,348.5" stroke="black" stroke-width="2" fill="none" />
<polyline points="421.0,341.0,413.0,348.5,405.0,356.0" stroke="black" stroke-width="2" fill="none" />
<polyline points="404.0,355.0,412.0,355.0,420.5,354.0" stroke="black" stroke-width="2" fill="none" />
<polyline points="419.0,347.0,411.0,347.0" stroke="black" stroke-width="2" fill="none" />
<polyline points="406.5,342.0,411.5,339.0" stroke="black" stroke-width="2" fill="none" />
<polyline points="403.0,339.5,411.5,339.0,419.5,338.5,428.0,338.5" stroke="black" stroke-width="2" fill="none" />
<polyline points="426.5,331.5,418.5,332.0,411.0,332.0,403.0,332.5" stroke="black" stroke-width="2" fill="none" />
<polyline points="403.0,329.5,410.5,322.0,418.0,314.5" stroke="black" stroke-width="2" fill="none" />
<polyline points="421.0,314.0,413.0,314.5" stroke="black" stroke-width="2" fill="none" />
<polyline points="404.5,312.0,412.5,305.0,420.5,297.5" stroke="black" stroke-width="2" fill="none" />
<polyline points="426.5,299.0,418.5,306.5,411.0,313.5,403.0,321.0" stroke="black" stroke-width="2" fill="none" />
<polyline points="402.5,325.0,410.5,324.0,418.5,323.5,426.5,323.5" stroke="black" stroke-width="2" fill="none" />
<polyline points="426.0,316.0,417.5,316.0,408.5,316.0,401.0,316.0" stroke="black" stroke-width="2" fill="none" />
<polyline points="403.0,308.5,410.0,308.0,417.5,307.5,425.5,306.5" stroke="black" stroke-width="2" fill="none" />
<polyline points="417.5,291.0,410.0,298.5,402.5,306.0" stroke="black" stroke-width="2" fill="none" />
<polyline points="401.5,300.0,409.5,299.5,418.0,299.5,426.0,299.5" stroke="black" stroke-width="2" fill="none" />
<polyline points="427.0,291.5,419.0,292.5,411.0,293.5,403.0,294.0" stroke="black" stroke-width="2" fill="none" />
<polyline points="402.0,298.0,409.5,291.0,417.0,283.0,425.5,275.5" stroke="black" stroke-width="2" fill="none" />
<polyline points="426.0,267.0,418.0,274.5,410.5,282.5,402.5,289.5" stroke="black" stroke-width="2" fill="none" />
<polyline points="403.5,285.5,412.0,285.0,419.5,285.0,427.5,285.0" stroke="black" stroke-width="2" fill="none" />
<polyline points="420.5,284.5,420.5,292.5,416.5,296.5" stroke="black" stroke-width="2" fill="none" />
<polyline points="411.5,281.0,419.5,280.0" stroke="black" stroke-width="2" fill="none" />
<polyline points="412.5,279.5,420.5,275.5,417.0,282.5,417.0,291.0,420.5,296.0,424.0,300.0,423.5,307.5,423.5,314.5,422.0,323.0,424.5,330.0,423.5,338.0,423.5,346.0,422.0,353.0,412.5,360.5,406.5,368.5,406.0,376.5,405.5,384.5,405.5,392.0" stroke="black" stroke-width="2" fill="none" />
<polyline points="379.5,383.5,371.5,384.5,363.5,384.5" stroke="black" stroke-width="2" fill="none" />
<polyline points="347.0,381.0,339.5,388.5,332.0,395.5,323.5,402.5,315.0,409.0,307.0,416.0" stroke="black" stroke-width="2" fill="none" />
<polyline points="307.0,408.0,314.0,401.0,322.0,394.0,329.5,387.0,337.5,380.0,345.5,372.5" stroke="black" stroke-width="2" fill="none" />
<polyline points="348.0,364.5,339.5,372.0,331.0,379.5,322.5,387.0,315.0,394.0,307.0,401.5" stroke="black" stroke-width="2" fill="none" />
<polyline points="314.0,401.0,322.0,401.0,330.0,400.0,338.5,399.0" stroke="black" stroke-width="2" fill="none" />
<polyline points="346.5,388.0,339.0,396.0,331.5,403.5,323.5,411.0,315.0,418.5,307.0,426.0,298.5,433.0,291.0,440.0,283.5,447.5,275.5,454.5,267.0,462.5,259.0,470.0" stroke="black" stroke-width="2" fill="none" />
<polyline points="259.0,473.0,267.5,474.5,277.5,475.5,285.5,477.0,293.5,477.5,301.5,479.5,310.0,481.5" stroke="black" stroke-width="2" fill="none" />
<polyline points="300.0,481.5,308.5,480.5,317.0,480.0,325.5,479.5,333.0,479.0,341.0,479.0,348.5,478.5" stroke="black" stroke-width="2" fill="none" />
<polyline points="345.5,477.0,343.5,484.5,343.5,492.5,343.5,500.0,343.5,507.5,343.5,515.5,343.5,523.5,342.5,531.5,342.5,539.5,341.5,547.5,334.5,556.0,326.5,564.0,319.5,572.0,319.5,580.0,327.0,579.0" stroke="black" stroke-width="2" fill="none" />
<polyline points="309.0,555.5,301.0,563.5,293.0,570.5" stroke="black" stroke-width="2" fill="none" />
<polyline points="285.5,573.0,293.5,573.0,301.0,572.5,309.0,571.5,317.5,570.0,325.0,569.0" stroke="black" stroke-width="2" fill="none" />
<polyline points="301.5,554.5,293.0,562.5,285.0,570.5" stroke="black" stroke-width="2" fill="none" />
<polyline points="276.5,571.5,284.5,564.0,292.0,556.5" stroke="black" stroke-width="2" fill="none" />
<polyline points="282.0,556.5,274.0,564.0,265.5,571.5" stroke="black" stroke-width="2" fill="none" />
<polyline points="265.5,563.0,273.5,555.5,281.5,547.5" stroke="black" stroke-width="2" fill="none" />
<polyline points="276.0,546.5,268.0,553.5,260.5,560.5" stroke="black" stroke-width="2" fill="none" />
<polyline points="260.0,565.0,268.0,564.5,276.0,564.0,284.0,563.5,292.5,563.5,301.0,563.0,309.0,562.5,317.0,561.5,324.5,560.5,332.0,560.0" stroke="black" stroke-width="2" fill="none" />
<polyline points="301.5,544.0,293.5,545.0,285.5,545.5,277.5,546.0,270.0,546.0,262.0,547.5,254.0,548.0,245.5,548.5,237.0,549.0,229.0,549.0,220.5,550.0,212.5,550.5,204.0,551.0,196.0,551.5" stroke="black" stroke-width="2" fill="none" />
<polyline points="187.0,544.0,195.0,537.0,202.5,529.5,210.0,522.0,218.5,514.0,226.5,506.5,234.5,498.5,242.0,491.0,249.5,483.5" stroke="black" stroke-width="2" fill="none" />
<polyline points="251.5,480.5,244.0,481.0" stroke="black" stroke-width="2" fill="none" />
<polyline points="250.5,474.0,242.5,482.0,235.0,490.0,227.0,497.5,219.0,505.5,211.0,513.0,203.0,521.0,195.0,528.5,187.0,536.5,179.0,544.5" stroke="black" stroke-width="2" fill="none" />
<polyline points="171.0,542.5,178.5,534.5,186.5,527.0,195.0,520.0,203.0,512.5,211.0,505.0,219.0,498.0,227.0,490.5,235.0,483.0,243.5,475.0,251.5,467.5" stroke="black" stroke-width="2" fill="none" />
<polyline points="251.0,465.0,243.0,465.0,234.5,465.5,226.0,466.0,217.5,466.5" stroke="black" stroke-width="2" fill="none" />
<polyline points="219.0,459.0,211.5,459.5,203.5,460.0" stroke="black" stroke-width="2" fill="none" />
<polyline points="202.0,450.0,210.5,449.5,218.5,449.0" stroke="black" stroke-width="2" fill="none" />
<polyline points="222.0,446.5,216.0,452.5" stroke="black" stroke-width="2" fill="none" />
<polyline points="235.0,458.0,242.5,457.0,251.0,456.0" stroke="black" stroke-width="2" fill="none" />
<polyline points="253.0,452.5,245.0,460.0,237.0,468.0,229.0,475.0,221.0,482.0,213.5,489.5,205.5,496.5,197.5,503.5,190.0,511.0,182.0,518.5,173.5,525.5,165.5,533.0" stroke="black" stroke-width="2" fill="none" />
<polyline points="173.0,534.5,181.0,527.0,189.0,519.0,196.5,511.0,204.0,503.5,211.5,496.5,219.5,489.5,227.0,482.0,235.0,475.0,243.5,468.5,251.0,461.5" stroke="black" stroke-width="2" fill="none" />
<polyline points="259.0,457.5,267.0,450.5,274.5,443.5,282.5,436.0,290.5,429.0" stroke="black" stroke-width="2" fill="none" />
<polyline points="282.5,427.0,274.5,435.0,266.5,443.0,259.0,451.5" stroke="black" stroke-width="2" fill="none" />
<polyline points="258.5,444.0,266.0,437.0,274.0,429.5,281.5,421.5" stroke="black" stroke-width="2" fill="none" />
<polyline points="281.5,413.5,273.5,421.0,266.0,428.0,258.0,434.5" stroke="black" stroke-width="2" fill="none" />
<polyline points="254.0,443.0,246.0,450.0,237.5,457.0,229.5,465.0,221.5,473.0,213.5,481.0,205.5,488.0,197.5,495.0,190.0,502.5,181.5,510.5,173.5,517.5,165.0,525.5,157.0,533.5" stroke="black" stroke-width="2" fill="none" />
<polyline points="157.0,538.5,164.5,538.0,172.5,537.0,180.5,536.5,188.0,535.5,196.0,535.0,203.5,534.5" stroke="black" stroke-width="2" fill="none" />
<polyline points="207.5,532.5,208.0,540.5,208.0,548.5" stroke="black" stroke-width="2" fill="none" />
<polyline points="210.5,553.0,218.5,552.5,227.0,552.5,235.5,551.5,243.5,551.0,251.5,550.0" stroke="black" stroke-width="2" fill="none" />
<polyline points="255.0,545.0,263.0,544.5,271.0,546.5,279.5,548.5,288.0,550.5,296.0,552.5,304.5,554.5" stroke="black" stroke-width="2" fill="none" />
<polyline points="283.0,569.5,275.0,570.0" stroke="black" stroke-width="2" fill="none" />
<polyline points="276.0,562.0,268.0,562.5" stroke="black" stroke-width="2" fill="none" />
<polyline points="267.5,552.5,275.5,552.5" stroke="black" stroke-width="2" fill="none" />
<polyline points="274.0,556.0,271.0,548.0" stroke="black" stroke-width="2" fill="none" />
<polyline points="243.5,539.5,235.5,547.0,227.5,555.0" stroke="black" stroke-width="2" fill="none" />
<polyline points="220.0,555.5,228.0,548.5,236.0,541.5" stroke="black" stroke-width="2" fill="none" />
<polyline points="228.0,539.0,220.0,546.5,211.5,554.5" stroke="black" stroke-width="2" fill="none" />
<polyline points="204.5,554.5,213.0,547.0,221.0,539.5,229.5,532.5" stroke="black" stroke-width="2" fill="none" />
<polyline points="220.0,531.5,211.5,539.0,203.0,547.0" stroke="black" stroke-width="2" fill="none" />
<polyline points="201.5,529.0,209.5,531.0,217.5,535.0,225.0,536.0,233.0,538.0,240.5,540.0,249.0,542.0,250.0,543.5,250.0,551.0,243.0,559.0,251.0,555.0" stroke="black" stroke-width="2" fill="none" />
<polyline points="250.0,505.0,242.5,505.0,235.0,505.0" stroke="black" stroke-width="2" fill="none" />
<polyline points="223.5,507.0,231.5,503.0,231.5,503.0,223.5,511.0,224.0,517.5,232.0,518.5,240.0,520.5,248.0,522.5,256.0,512.0,253.5,514.0" stroke="black" stroke-width="2" fill="none" />
<polyline points="250.5,503.5,258.0,503.0,262.0,511.5,262.0,520.0,264.5,526.0,272.5,528.0,280.5,530.0,288.5,532.5,296.5,533.5,304.5,535.5,317.0,539.5,325.0,541.5,325.0,543.5,333.0,543.0,333.0,545.0" stroke="black" stroke-width="2" fill="none" />
<polyline points="336.0,552.5,335.0,544.0,335.0,536.0,335.0,528.5,334.5,520.5,334.5,512.5,332.5,511.5" stroke="black" stroke-width="2" fill="none" />
<polyline points="336.0,519.5,336.0,527.0,336.5,535.5,336.5,543.5" stroke="black" stroke-width="2" fill="none" />
<polyline points="285.0,534.0,276.5,534.5,268.0,534.0,259.5,534.5,251.5,535.5,243.5,536.0,235.5,536.5,228.0,537.0,219.5,537.5,211.5,538.0,202.5,539.0,195.0,540.0,186.5,540.5,179.0,541.0,171.5,541.5,164.0,542.5" stroke="black" stroke-width="2" fill="none" />
<polyline points="148.5,532.0,155.0,524.5,162.5,517.0,170.5,509.0,178.5,501.5,186.5,493.5,194.5,486.0,203.0,478.5,210.5,471.0,218.5,463.0,227.0,455.5,235.0,448.5,242.5,441.5,250.5,434.0,259.0,426.5,267.0,419.0,275.0,411.5,282.5,404.0" stroke="black" stroke-width="2" fill="none" />
<polyline points="290.0,401.0,299.0,393.5,307.5,386.0,315.5,378.5,323.0,371.5,330.5,364.0,338.5,356.0,346.5,348.5" stroke="black" stroke-width="2" fill="none" />
<polyline points="347.0,341.0,339.0,348.5,330.5,356.0,322.5,363.5,314.5,371.0,306.5,378.5,298.5,386.0,290.0,394.0" stroke="black" stroke-width="2" fill="none" />
<polyline points="282.0,395.0,274.0,402.5,265.5,410.0,257.5,417.0,249.5,424.5,241.5,432.5,234.0,440.0,226.5,447.5,218.5,454.5,211.0,461.5,203.0,468.5,195.0,476.5,187.5,484.5,179.5,492.0,171.5,500.0,163.0,508.5,155.5,516.5,148.5,524.5" stroke="black" stroke-width="2" fill="none" />
<polyline points="131.5,526.0,139.5,518.5,147.5,511.0,156.0,503.0,164.5,495.0,172.5,486.5,180.5,479.5,189.0,471.5,197.0,464.0,205.0,456.5,213.0,449.5,221.0,441.5,228.5,433.5,236.0,426.5,244.0,419.5,252.0,412.0" stroke="black" stroke-width="2" fill="none" />
<polyline points="251.0,418.0,259.0,417.5" stroke="black" stroke-width="2" fill="none" />
<polyline points="251.0,404.0,243.0,412.0,235.0,420.0,227.5,427.0" stroke="black" stroke-width="2" fill="none" />
<polyline points="224.0,424.5,216.0,426.0,221.0,423.0" stroke="black" stroke-width="2" fill="none" />
<polyline points="220.0,433.0,212.0,441.0,204.0,448.5,196.0,457.0,188.0,465.0,180.0,473.0,172.0,480.5,163.5,488.5,155.5,496.5,147.0,503.5,138.5,511.0,131.0,519.0,122.5,527.0" stroke="black" stroke-width="2" fill="none" />
<polyline points="123.0,529.0,130.5,528.0,139.0,528.0,147.0,527.5,154.5,527.5,162.0,527.0,170.5,527.0,179.0,526.5,187.0,526.0,194.5,525.0" stroke="black" stroke-width="2" fill="none" />
<polyline points="196.5,522.5,204.5,522.0" stroke="black" stroke-width="2" fill="none" />
<polyline points="207.5,525.5,207.5,517.0" stroke="black" stroke-width="2" fill="none" />
<polyline points="205.0,512.5,196.0,513.0" stroke="black" stroke-width="2" fill="none" />
<polyline points="183.0,507.5,184.0,509.0,184.0,517.0,186.0,525.0" stroke="black" stroke-width="2" fill="none" />
<polyline points="186.5,482.5,178.0,490.5,170.5,497.5,163.5,505.0,156.5,512.5,148.5,520.0,141.0,527.5" stroke="black" stroke-width="2" fill="none" />
<polyline points="132.0,532.5,140.0,532.5,148.0,532.5,156.0,532.0,163.5,531.5,171.5,531.0,179.5,531.0,188.0,531.0,196.0,530.5,204.5,530.5,212.0,530.0,220.5,529.0,228.5,528.5,236.5,528.0,244.5,527.5,252.5,527.5,260.5,526.0,268.0,525.0,275.5,524.5,283.5,524.5,291.0,524.0,299.0,523.5,308.0,522.5,315.5,521.5,323.5,521.0,331.0,520.5,339.5,520.0,348.0,519.0" stroke="black" stroke-width="2" fill="none" />
<polyline points="369.5,509.0,361.0,510.0,353.0,511.0,345.0,511.5,337.0,511.5,329.5,512.0,322.5,512.0,315.0,512.0,307.5,512.5,300.0,514.0,292.0,515.5,284.0,516.0,276.0,516.5,268.0,517.0,259.5,517.5,251.5,518.5,243.5,519.0,235.5,519.5,227.0,519.5,219.0,520.0,211.0,520.0,202.5,520.5,194.0,521.0,185.5,521.5,178.0,522.0,170.5,522.0,163.0,522.5,155.5,523.0,147.5,523.5,139.5,524.0,132.0,525.0,124.0,525.5,115.5,526.0,107.5,526.5" stroke="black" stroke-width="2" fill="none" />
<polyline points="101.5,522.0,109.0,521.5,116.5,520.5,124.5,520.0,132.5,519.5,140.0,519.0,148.0,519.0,155.5,519.5,163.5,519.5,171.5,519.5,179.5,519.0" stroke="black" stroke-width="2" fill="none" />
<polyline points="179.0,481.5,171.0,482.0" stroke="black" stroke-width="2" fill="none" />
<polyline points="163.5,476.0,171.5,475.5,180.0,474.5,188.0,473.5,195.0,472.5,203.0,471.5,211.0,471.0,219.0,470.5,227.0,470.0,235.0,470.0,242.5,469.5,250.5,468.5" stroke="black" stroke-width="2" fill="none" />
<polyline points="250.0,467.0,242.5,467.5,234.5,468.5,227.0,469.0,219.0,469.0,211.0,469.5,203.0,470.0,195.0,470.5,187.0,471.5,180.0,472.5,172.0,473.5,163.5,474.5,155.5,475.0,147.5,475.5,140.0,475.5,132.0,475.5,124.0,475.5,116.0,475.5,108.0,476.0,100.0,476.0,92.5,476.5,84.5,476.0,76.0,476.5" stroke="black" stroke-width="2" fill="none" />
<polyline points="75.0,476.0,82.5,468.5,90.0,461.0,98.5,453.0,106.5,445.5,114.5,437.5,122.0,430.0,129.5,422.5,137.5,414.5,145.5,407.0,154.0,399.0,162.0,391.0,170.5,383.5,179.5,376.0,188.0,368.5,196.0,361.0,204.5,354.0,212.5,346.5" stroke="black" stroke-width="2" fill="none" />
<polyline points="210.5,343.5,218.5,347.0" stroke="black" stroke-width="2" fill="none" />
<polyline points="219.5,346.0,211.5,353.5,203.5,361.0,195.5,369.0" stroke="black" stroke-width="2" fill="none" />
<polyline points="200.5,366.0,208.5,365.0" stroke="black" stroke-width="2" fill="none" />
<polyline points="201.5,361.5,209.5,361.0,218.0,361.0" stroke="black" stroke-width="2" fill="none" />
<polyline points="217.0,342.5,225.0,342.0,233.5,341.5,242.0,341.0,250.5,340.5,259.5,340.0,268.0,339.0,276.5,339.0,285.0,339.0,293.5,338.5,301.5,338.0,309.5,337.5,317.0,337.0,324.5,337.0,332.0,337.0,339.0,336.5,347.0,335.5,354.5,334.5,362.0,334.0,369.5,333.5,377.0,333.5,385.0,332.5,394.0,331.5" stroke="black" stroke-width="2" fill="none" />
<polyline points="390.0,315.0,381.5,323.0,373.0,330.0,364.5,337.0" stroke="black" stroke-width="2" fill="none" />
<polyline points="364.0,330.0,372.5,323.5,381.5,316.5,390.0,310.0" stroke="black" stroke-width="2" fill="none" />
<polyline points="388.5,300.0,381.0,307.5,373.0,315.5,365.0,323.0" stroke="black" stroke-width="2" fill="none" />
<polyline points="372.0,324.0,380.0,323.5" stroke="black" stroke-width="2" fill="none" />
<polyline points="387.5,338.0,380.0,338.0,372.5,338.5" stroke="black" stroke-width="2" fill="none" />
<polyline points="348.0,332.0,340.0,340.0,332.5,347.5,324.5,355.0,316.0,362.5,308.0,369.5,300.0,377.0,292.5,384.5" stroke="black" stroke-width="2" fill="none" />
<polyline points="305.5,393.5,314.5,386.0,323.5,379.0,332.5,372.0,341.0,365.0,349.0,358.0" stroke="black" stroke-width="2" fill="none" />
<polyline points="348.5,352.0,340.5,353.0,332.0,353.5" stroke="black" stroke-width="2" fill="none" />
<polyline points="347.0,357.5,339.5,358.0,332.0,358.5,324.5,360.0,316.5,360.5" stroke="black" stroke-width="2" fill="none" />
<polyline points="316.5,368.5,324.5,368.0,332.0,367.5,340.0,367.0,348.0,366.5" stroke="black" stroke-width="2" fill="none" />
<polyline points="350.0,335.0,342.5,335.5,334.0,335.5" stroke="black" stroke-width="2" fill="none" />
<polyline points="340.0,330.5,348.5,329.5" stroke="black" stroke-width="2" fill="none" />
<polyline points="350.5,323.0,342.5,331.0,334.0,338.0,325.5,345.0,318.0,352.5,310.0,359.5,301.5,367.0,293.0,374.5,285.0,382.0,276.5,389.5,269.0,396.5,261.0,404.0,252.5,412.0,244.0,420.0,235.0,428.0,226.5,435.5,218.5,443.5,210.5,451.5,202.0,459.0,194.0,467.0" stroke="black" stroke-width="2" fill="none" />
<polyline points="198.0,474.5,190.5,473.5,182.5,472.5" stroke="black" stroke-width="2" fill="none" />
<polyline points="184.0,472.0,182.0,480.0" stroke="black" stroke-width="2" fill="none" />
<polyline points="171.5,465.5,179.5,465.0,187.0,464.5,195.5,464.0,204.5,464.0,212.5,464.0" stroke="black" stroke-width="2" fill="none" />
<polyline points="230.5,473.0,238.5,474.0,241.5,480.0,242.5,488.0,243.0,487.0" stroke="black" stroke-width="2" fill="none" />
<polyline points="252.0,474.0,243.5,475.0,235.5,475.5,227.5,476.0,220.0,476.5,212.0,477.0,204.0,478.0,195.5,478.5,187.0,479.5,178.5,480.0,170.0,480.0,162.0,480.5,154.0,480.5,146.0,481.5,137.5,482.0,129.5,483.0,122.0,483.5,114.5,484.0,106.5,484.0,98.5,484.0,90.5,484.0,83.0,484.5,75.0,485.0" stroke="black" stroke-width="2" fill="none" />
<polyline points="75.0,485.5,82.5,478.0,90.5,471.0,98.5,464.0,106.5,456.5,114.5,448.0,122.5,440.0,130.5,432.0,138.5,424.5,146.5,416.5,154.5,409.5,162.5,402.5,171.0,395.0,179.0,387.5,187.0,380.0,195.5,373.0,204.0,365.5,211.5,358.0,219.5,350.5,227.5,343.5,235.5,335.5,244.0,328.0,252.0,320.5,259.5,313.5,268.0,306.0,276.0,298.0,284.5,290.0,293.0,282.0,301.5,274.0,309.5,266.5" stroke="black" stroke-width="2" fill="none" />
<polyline points="314.5,269.5,307.0,276.5,299.0,283.5,291.0,291.0,283.5,298.5,276.0,306.0,268.0,313.0,260.5,320.0,252.5,327.5,244.0,335.0,236.0,342.0,228.0,349.5,221.0,357.0,213.5,365.0,206.0,373.0,198.0,381.0,189.5,388.0,180.5,395.5,172.0,403.0,164.0,410.0,156.0,417.5,148.0,425.0,140.0,433.0,133.0,440.5,125.5,448.5,118.0,456.5,110.0,464.0,102.0,471.0,94.0,478.5,86.0,486.0,77.5,494.0" stroke="black" stroke-width="2" fill="none" />
<polyline points="77.0,493.0,85.0,492.5,92.5,492.5,100.5,492.0,108.5,492.0,116.0,492.0,124.0,491.5,131.5,491.0,139.0,490.5,146.5,490.0,154.0,489.5,162.0,489.0,170.5,488.0,178.5,487.0,186.5,486.0,195.0,485.0,203.5,484.5,212.0,484.0,220.5,483.5,228.5,482.5,237.0,482.0,245.0,482.0,252.5,481.5,260.5,481.0,268.5,480.5,276.5,479.5,284.5,479.0,292.5,479.0,300.5,479.0,307.5,478.5,315.5,478.0,324.0,477.0,332.5,476.5,340.5,476.5,349.0,476.5,356.5,476.5,365.0,476.0,373.0,475.0,381.0,474.5,389.5,473.0" stroke="black" stroke-width="2" fill="none" />
<polyline points="412.0,469.5,404.5,469.5,396.5,469.5,388.5,470.0,381.0,470.0,373.0,470.5,364.5,471.0,356.0,471.0,348.0,471.0,339.5,471.5,332.0,472.0,323.5,472.0,315.5,472.5,307.5,473.0,299.0,474.0,291.0,474.5,283.0,475.5,275.0,476.5,267.0,477.5,259.0,478.0" stroke="black" stroke-width="2" fill="none" />
<polyline points="252.5,472.0,257.0,465.5,256.5,469.5,256.5,477.5,256.5,488.5" stroke="black" stroke-width="2" fill="none" />
<polyline points="255.0,490.0,250.0,490.0,249.5,482.0,248.5,474.5,248.5,466.5,248.0,459.0,248.5,451.0,249.0,443.0,254.0,434.0,252.0,436.0,244.0,437.0" stroke="black" stroke-width="2" fill="none" />
<polyline points="244.0,427.0,252.5,426.0" stroke="black" stroke-width="2" fill="none" />
<polyline points="252.0,445.5,260.0,449.5" stroke="black" stroke-width="2" fill="none" />
<polyline points="260.0,461.0,268.0,460.0,276.0,459.5,284.0,459.0,292.0,459.0,300.0,459.0,308.0,458.0,316.0,457.0,324.0,457.0,332.0,456.5,340.0,456.5,348.0,456.0,356.0,455.5,364.0,454.5,372.0,454.0,379.5,453.5,387.5,453.0,396.0,453.0,404.0,453.0,412.0,453.0,420.0,452.5" stroke="black" stroke-width="2" fill="none" />
<polyline points="344.5,460.5,336.5,460.5,329.0,461.0,321.5,461.0,314.0,461.0,306.5,462.0,298.5,463.0,290.5,464.5,283.0,465.5,275.5,466.0,267.5,466.5" stroke="black" stroke-width="2" fill="none" />
<polyline points="268.0,459.0,276.0,458.5,284.0,458.0,292.0,457.5,300.0,456.0,307.5,454.5,315.0,454.0,322.5,454.0,329.5,454.0,337.0,453.5,345.0,453.5" stroke="black" stroke-width="2" fill="none" />
<polyline points="352.0,477.5,344.0,478.5" stroke="black" stroke-width="2" fill="none" />
<polyline points="382.5,499.5,374.5,500.0,366.0,500.5,357.5,501.0,349.5,501.0,341.5,501.5,333.5,502.0,325.5,502.5,317.5,503.5,309.0,504.0,300.5,504.0,291.5,504.0,283.5,504.0,275.5,504.5,268.0,505.5,259.5,506.0,251.5,507.5,243.0,507.5,235.0,508.5,227.0,508.5,220.0,508.5,212.5,508.5,205.0,509.0,197.0,510.0,189.5,510.5,181.5,511.5,173.0,511.5,164.0,512.0,156.5,512.5,148.5,512.5,140.0,513.0,132.0,513.0,124.0,514.0,115.5,514.0,107.0,514.5,99.0,515.0,91.5,515.5,83.5,516.0" stroke="black" stroke-width="2" fill="none" />
<polyline points="82.5,514.0,90.5,506.5,98.0,499.5,106.0,492.0,114.5,484.0,122.0,476.0,130.0,468.0,137.5,460.5,145.5,453.5,153.5,446.5,162.0,439.0,170.0,431.5,178.0,424.0,186.5,416.5,194.5,409.0,202.5,402.0,211.0,394.5,219.0,387.0,227.0,379.5,235.0,372.0,243.0,365.0,251.0,357.5" stroke="black" stroke-width="2" fill="none" />
<polyline points="251.0,349.5,242.5,357.0,234.5,364.5,226.0,372.0,218.0,379.0,209.5,386.0,201.5,393.5,193.0,401.0,185.0,408.5,177.0,415.0,169.5,422.5,161.5,430.5,153.5,438.0,145.5,446.0,138.0,454.0,130.5,461.5,123.0,469.5,115.0,477.5,107.0,485.0,99.5,492.0,91.0,499.0,83.0,506.5" stroke="black" stroke-width="2" fill="none" />
<polyline points="84.5,504.5,93.0,504.0,101.0,504.0,108.5,504.0,116.0,503.5,123.5,503.5,131.5,503.5,139.0,503.0,147.0,503.0,154.5,502.5,163.0,502.0,171.0,501.5,179.0,501.0,187.5,500.5,195.5,500.0,204.0,499.0" stroke="black" stroke-width="2" fill="none" />
<polyline points="179.0,508.0,170.5,508.5,162.5,509.5,154.5,510.0,146.5,510.0,139.0,510.0,131.5,510.0,123.5,510.5,115.5,510.5,107.5,511.0,99.5,511.5,92.0,512.0,84.0,512.0" stroke="black" stroke-width="2" fill="none" />
<polyline points="78.5,510.5,86.5,509.5,94.0,509.0,101.5,508.5,109.0,507.5,116.5,507.0,124.0,506.5,132.5,506.0,140.0,505.5,147.5,505.5,155.0,505.0,163.0,504.5,171.0,503.5,179.0,502.5,187.5,502.0,196.0,501.0,203.5,501.0,211.5,500.5,219.5,500.0,228.0,499.0,236.0,498.5,244.0,498.0,251.5,498.0,259.5,497.0,267.0,496.0,275.0,495.5,283.0,495.0,291.0,495.0,299.5,494.5,308.0,494.5,316.5,493.5,324.5,493.0,332.0,492.5,340.0,492.0,348.0,491.5,356.5,490.5,364.0,490.5,372.0,490.5,379.5,490.5,387.5,491.0" stroke="black" stroke-width="2" fill="none" />
<polyline points="420.5,416.5,413.0,417.5,405.5,418.5,397.0,419.5,388.0,421.0,380.5,421.5,372.5,422.0,364.5,422.0,356.5,422.0,348.0,422.5,340.0,423.5,331.5,424.0,323.5,424.5,316.0,425.0,308.5,425.5,300.0,426.0,292.0,426.5,284.0,426.5,276.0,427.0,268.0,427.0,260.0,427.5,252.5,429.0,245.0,429.5,237.0,429.5,228.5,430.0,220.5,430.5,211.5,431.5,203.0,432.0,195.0,432.5,187.0,432.5,178.0,433.0,170.0,433.5,161.5,434.5,153.5,435.5,146.0,436.0,138.0,436.0,130.5,436.0,122.5,436.5,114.5,437.0,106.5,437.0" stroke="black" stroke-width="2" fill="none" />
<polyline points="105.5,433.5,113.5,433.0,122.0,433.0,130.0,432.5,138.0,431.5,146.5,430.5,154.5,430.0,162.0,429.5,170.5,429.0,179.5,429.0" stroke="black" stroke-width="2" fill="none" />
<polyline points="187.0,427.0,195.0,426.5" stroke="black" stroke-width="2" fill="none" />
<polyline points="193.5,419.0,185.0,420.0" stroke="black" stroke-width="2" fill="none" />
<polyline points="185.5,410.5,193.0,410.0" stroke="black" stroke-width="2" fill="none" />
<polyline points="195.0,402.0,187.5,402.5" stroke="black" stroke-width="2" fill="none" />
<polyline points="179.0,412.5,171.0,413.0,163.0,413.5,155.0,414.0,147.0,414.0,139.5,414.0,131.5,414.0,124.0,414.5,116.5,414.0,108.5,414.5,101.0,415.5,93.5,416.0,85.5,416.5,77.5,417.0" stroke="black" stroke-width="2" fill="none" />
<polyline points="77.0,416.5,85.0,409.0,93.5,401.5,102.0,394.5,110.0,387.5,117.0,379.5,125.0,372.0" stroke="black" stroke-width="2" fill="none" />
<polyline points="124.0,367.0,132.5,366.5,140.5,366.0,148.0,365.0,155.5,364.5,163.5,364.0,171.0,363.0,179.0,362.5,186.5,362.0,194.5,361.5,202.5,361.0,210.5,360.5,218.5,360.0,226.5,359.0,235.0,358.5,243.5,357.5,252.0,357.0,260.0,356.5,268.0,356.0,275.5,355.0,283.5,354.5,291.5,354.5,300.0,354.5,308.0,354.0,315.5,353.0,324.0,352.5,332.0,352.0,340.5,351.0,349.0,350.0,358.0,349.0,366.0,348.5,374.5,348.5,382.0,348.0,389.5,348.0,396.5,347.5,404.5,347.0,412.0,347.5,419.5,347.5" stroke="black" stroke-width="2" fill="none" />
<polyline points="429.5,339.5,421.5,339.5,413.5,339.5,405.5,339.5,397.5,340.0,389.5,340.5,381.0,341.0,372.5,341.5,365.0,342.0,357.0,342.5,349.0,343.0,341.5,344.0,333.0,345.5,325.0,346.5,317.5,347.0,309.5,347.0,301.5,347.5,293.0,348.0,285.0,348.5,277.0,349.0,269.0,349.5,261.0,350.0,253.0,351.0,245.0,352.0,236.5,352.5,228.5,353.0,220.5,353.5,212.5,354.0,204.0,354.5,196.0,354.5,188.0,355.0,180.0,355.5,171.5,355.5,163.5,355.5,155.5,355.5,148.0,356.5" stroke="black" stroke-width="2" fill="none" />
<polyline points="155.0,369.5,146.5,377.0,138.5,384.5,131.0,392.5,124.0,400.0,117.0,407.5,108.5,415.0,100.5,422.0" stroke="black" stroke-width="2" fill="none" />
<polyline points="114.5,429.0,122.5,421.0,130.5,414.0,139.0,406.5,147.0,399.0,155.0,392.0,162.5,384.0,170.5,376.5,179.0,369.5,187.0,362.0,195.0,354.0,203.0,347.0" stroke="black" stroke-width="2" fill="none" />
<polyline points="201.0,346.5,209.0,340.5,217.0,335.5,202.5,343.5,200.5,351.5,200.5,360.0,200.0,368.0,195.0,379.0,199.0,381.5,198.5,392.5,199.5,400.5,199.5,408.5,199.5,416.5,200.0,424.5,191.0,432.0,205.0,426.0,203.0,434.5,205.5,436.5,204.5,444.0,205.5,452.0,204.5,462.0,206.5,464.0,204.5,474.0,204.5,481.5,204.5,490.5,205.5,498.5,205.5,506.5,203.5,514.0,204.5,522.0,203.5,529.5,207.5,536.0,207.5,544.5,211.5,551.5,219.0,553.5,227.0,556.5,235.0,558.5,243.0,560.5,249.5,562.5,257.5,564.5,266.0,567.5,274.0,569.5,282.0,571.5,290.5,573.5,298.0,576.0,306.0,579.5,318.5,573.5,326.5,566.0,334.0,558.0,342.0,549.0,347.5,548.0" stroke="black" stroke-width="2" fill="none" />
<polyline points="387.5,481.0,379.0,481.5,371.0,481.5,362.5,482.0,354.5,482.0,347.0,482.5,339.5,483.0,332.0,483.5,324.5,485.0,316.5,485.5,308.0,486.0,299.5,486.5,291.5,487.0,283.5,488.0,276.0,489.0,268.0,490.0,259.5,490.5,251.0,491.0,243.0,491.5,235.0,492.0,227.0,492.0,219.5,492.5,212.0,493.5,204.0,494.5,196.5,495.0,188.5,495.0,179.5,495.0,171.0,495.5,163.5,496.0,155.5,496.5,147.5,497.0,140.0,498.0,132.0,499.0,123.5,499.0,115.5,500.0,108.0,500.5,100.5,501.0,93.0,501.0,84.5,501.0,76.5,501.5" stroke="black" stroke-width="2" fill="none" />
<polyline points="85.0,496.5,93.0,496.5,100.5,495.5,108.0,495.5,115.5,496.0,123.0,496.0,130.5,495.5,138.5,496.0,146.0,495.5,153.5,495.0,161.0,495.0,169.5,494.0,177.5,493.5,186.0,492.5,195.0,491.5,203.0,491.0" stroke="black" stroke-width="2" fill="none" />
<polyline points="187.0,450.5,179.0,458.5,171.0,466.5,163.5,474.5,156.0,482.5,148.0,490.0,140.5,497.5,132.5,504.5,124.0,512.0,115.5,519.5" stroke="black" stroke-width="2" fill="none" />
<polyline points="84.0,495.0,92.0,487.5,100.0,480.0,108.0,472.0,115.5,464.5,123.5,457.0,132.0,449.0,140.0,441.0,148.5,432.5,157.0,424.5,165.0,417.0,173.0,409.0,181.0,401.5,188.5,394.0,196.0,386.5,203.5,379.5,211.0,372.0,219.0,364.5,227.0,357.0,234.5,350.0,242.0,342.0,250.5,335.0,259.0,327.5,267.0,320.0,275.0,312.5,283.5,305.0,292.0,298.0,300.5,291.0,309.0,284.0,316.5,277.5,324.5,270.0" stroke="black" stroke-width="2" fill="none" />
<polyline points="331.0,268.5,323.0,275.5,315.5,282.5,308.0,290.0,300.0,297.5,292.5,305.0,284.0,312.5,275.5,320.0,267.5,327.5,260.0,335.0" stroke="black" stroke-width="2" fill="none" />
<polyline points="259.0,340.0,267.0,333.0,275.5,326.0,283.5,319.0,291.0,312.0,299.0,305.0,307.5,297.0,315.5,289.5,323.5,282.5,331.5,275.0,339.0,267.5" stroke="black" stroke-width="2" fill="none" />
<polyline points="349.5,267.5,341.5,274.5,333.5,281.5,325.5,289.5,317.5,297.5,309.0,305.5,301.0,313.5,292.5,321.5,284.0,329.5,275.0,337.5,266.5,345.0,258.5,352.5" stroke="black" stroke-width="2" fill="none" />
<polyline points="265.0,365.0,273.0,357.0,281.0,350.0,289.5,343.0,298.0,336.0,306.5,328.5,315.0,321.0,323.0,313.0,331.0,305.0,339.0,297.5,346.0,290.0,354.5,282.5" stroke="black" stroke-width="2" fill="none" />
<polyline points="347.0,282.0,339.0,289.5,331.0,298.0,322.5,305.5,314.5,313.5,306.5,321.5,298.5,329.0,290.5,337.5,283.0,345.0,275.5,352.5,267.5,360.0,259.5,367.5" stroke="black" stroke-width="2" fill="none" />
<polyline points="252.5,365.5,244.0,373.0,236.0,381.0,228.0,388.0,219.5,395.0,211.0,402.0,202.5,410.0,194.0,417.5,185.5,425.0,177.0,432.5,169.0,440.0,161.0,448.0,153.0,456.0,145.0,463.5,137.5,471.5,130.0,479.0,122.5,486.0,115.5,493.0,108.0,500.5,101.0,508.0,93.0,516.0" stroke="black" stroke-width="2" fill="none" />
<polyline points="116.0,524.0,123.5,516.5,131.5,509.0,140.0,502.0,148.5,494.0,156.5,486.5,164.5,479.0,172.0,471.5,180.0,464.0,187.5,456.5,195.5,449.0,204.0,441.0,211.5,433.5,219.5,426.0,226.5,418.5,234.5,411.0,242.5,403.5,250.5,396.0" stroke="black" stroke-width="2" fill="none" />
<polyline points="261.5,398.0,270.0,390.0,277.5,382.5,285.5,375.0,293.0,367.5,301.5,360.0,309.5,352.5,317.0,345.0,324.0,337.5,331.5,330.5,339.5,322.5,347.5,315.0" stroke="black" stroke-width="2" fill="none" />
<polyline points="347.0,307.5,338.5,315.0,330.5,322.5,322.5,330.5,314.5,338.0,306.5,346.0,299.0,353.5,292.5,361.0,285.0,369.0,277.5,377.0,270.0,385.0" stroke="black" stroke-width="2" fill="none" />
<polyline points="268.5,375.0,277.0,367.5,285.0,360.5,292.5,353.5,299.5,345.5,307.0,337.5,315.5,329.0,323.5,321.0,331.5,313.5,339.0,305.5,347.0,297.5" stroke="black" stroke-width="2" fill="none" />
<polyline points="363.5,304.0,372.0,296.0,380.0,288.5,388.0,281.0,396.0,273.5" stroke="black" stroke-width="2" fill="none" />
<polyline points="395.0,267.5,387.0,275.0,379.5,282.0,371.5,289.5,364.0,296.5" stroke="black" stroke-width="2" fill="none" />
<polyline points="365.5,298.0,373.0,297.5,381.0,297.0,389.0,297.0" stroke="black" stroke-width="2" fill="none" />
<polyline points="394.5,284.0,386.5,291.0,378.5,298.0,370.5,305.0,363.0,312.5" stroke="black" stroke-width="2" fill="none" />
<polyline points="365.5,313.0,373.5,312.5,381.0,312.0" stroke="black" stroke-width="2" fill="none" />
<polyline points="395.0,316.0,387.5,315.0,380.0,315.0,371.5,315.5,363.5,316.5,355.5,317.5,348.0,318.0,340.5,319.0,332.5,319.0,324.5,319.5,316.0,320.0,307.5,321.0,299.0,321.5,291.5,321.5,283.5,322.0,275.5,322.0,267.5,322.0,259.5,322.5,251.0,323.0,242.5,324.0,234.5,325.0,226.5,326.0,218.5,326.5,210.5,327.5,202.5,327.5,194.0,328.0,185.5,328.0,177.5,328.5,169.5,329.0,162.0,329.5,154.0,331.0,145.5,331.5,137.5,332.0,129.5,333.0,122.0,333.5,114.0,333.5,106.5,334.0,99.0,334.5" stroke="black" stroke-width="2" fill="none" />
<polyline points="115.0,335.5,122.5,328.0,130.5,320.5,139.0,313.0,147.5,305.0,156.0,297.5,164.5,290.0,172.5,282.5,181.0,275.0,189.0,267.5" stroke="black" stroke-width="2" fill="none" />
<polyline points="188.5,273.5,180.5,281.0,172.0,289.0,164.0,297.0,156.0,304.5,148.0,313.0,139.0,320.0,130.5,327.0,121.5,334.5" stroke="black" stroke-width="2" fill="none" />
<polyline points="123.0,339.0,131.0,338.5,139.0,338.0,147.0,337.5,154.5,337.0,162.0,336.0,170.5,335.5,178.5,334.5" stroke="black" stroke-width="2" fill="none" />
<polyline points="175.5,330.5,175.5,338.5,175.5,346.5,177.0,354.5,162.0,363.5,146.0,372.0,151.0,377.0,159.0,378.0" stroke="black" stroke-width="2" fill="none" />
<polyline points="142.5,372.5,134.5,380.0,126.0,387.0,117.5,394.5,109.0,401.5,100.5,408.5,93.0,416.0,85.0,423.5" stroke="black" stroke-width="2" fill="none" />
<polyline points="85.5,429.5,93.5,429.0,101.5,429.0,109.0,428.5,117.0,428.5,124.5,428.0,132.5,427.5,140.5,427.0,148.0,426.5,155.5,426.0,163.5,425.5,171.0,425.0,178.5,424.0,186.0,423.5,193.5,423.0,201.5,422.5,209.5,421.5,218.0,421.0,226.5,420.0,234.0,419.5,242.0,419.5,250.0,418.5,258.0,418.0,266.5,417.5,274.5,416.5,282.5,416.0,291.0,416.0,299.5,415.5,308.0,415.0,316.0,413.5,324.0,412.5,331.5,412.5,339.5,412.0,347.0,412.0,354.0,412.0,362.0,411.5,369.5,411.5,377.0,410.5,385.0,409.5,393.5,408.5,401.5,408.0,409.5,407.5,418.0,407.0" stroke="black" stroke-width="2" fill="none" />
<polyline points="419.5,387.0,411.5,387.0,404.0,387.5,396.5,388.0,388.5,388.5,381.0,389.0,373.0,389.5,365.0,390.0,357.5,390.5,350.0,391.0,341.5,391.0,334.0,392.0,325.5,393.0,317.5,394.0,309.5,395.0,301.5,395.5,293.5,396.0,285.5,397.0,277.5,398.0,269.5,398.5,261.5,399.0" stroke="black" stroke-width="2" fill="none" />
<polyline points="252.0,401.0,256.0,399.0,255.5,390.0,256.5,381.0,257.5,368.5,249.5,373.5" stroke="black" stroke-width="2" fill="none" />
<polyline points="250.5,372.0,243.0,379.5,234.5,386.5,226.5,394.5,218.0,402.5,210.0,410.5,202.0,418.0,194.5,425.5,186.5,433.0,178.5,440.5,170.5,448.0,162.5,455.5,154.5,463.5,146.5,471.0,138.5,478.5,130.5,486.0,123.0,492.5,115.0,499.5,107.5,507.5,100.0,515.0" stroke="black" stroke-width="2" fill="none" />
<polyline points="107.0,519.0,115.0,512.0,123.0,504.5,131.5,497.0,139.5,489.0,148.0,481.5,156.5,474.0,165.0,467.0,173.5,459.5,181.0,452.0,189.0,444.5" stroke="black" stroke-width="2" fill="none" />
<polyline points="178.0,450.0,170.0,450.5" stroke="black" stroke-width="2" fill="none" />
<polyline points="164.5,446.0,172.5,447.0,180.5,449.5" stroke="black" stroke-width="2" fill="none" />
<polyline points="177.5,438.0,169.5,439.0,161.5,440.0,154.0,440.5,146.5,440.5,139.0,441.0,131.5,441.0,123.5,441.5" stroke="black" stroke-width="2" fill="none" />
<polyline points="121.5,447.0,108.5,454.5" stroke="black" stroke-width="2" fill="none" />
<polyline points="106.5,449.0,114.5,448.5,122.5,448.5,130.5,447.5,138.0,447.0,145.5,447.0,153.5,446.5,161.5,446.0" stroke="black" stroke-width="2" fill="none" />
<polyline points="147.5,454.5,140.0,455.5,132.0,456.0,124.0,457.0,116.0,457.5,108.0,458.0,100.0,458.5" stroke="black" stroke-width="2" fill="none" />
<polyline points="89.5,451.5,81.0,459.0,73.0,466.0" stroke="black" stroke-width="2" fill="none" />
<polyline points="74.5,464.5,83.0,464.0" stroke="black" stroke-width="2" fill="none" />
<polyline points="76.5,461.0,84.5,460.0,92.0,459.0,99.5,459.0,107.5,458.5,115.5,458.5,123.5,458.0,131.0,457.5,138.5,457.0,147.0,456.5,155.0,456.0,162.5,455.0,171.0,455.0,179.0,454.5,186.5,454.5,194.0,454.0,202.5,454.0,211.0,453.5,219.0,453.0,226.5,452.0,235.0,451.0,242.5,451.0,250.0,451.0" stroke="black" stroke-width="2" fill="none" />
<polyline points="252.5,449.5,244.5,450.0" stroke="black" stroke-width="2" fill="none" />
<polyline points="253.0,459.0,244.5,459.5,236.5,460.0,228.5,460.5,220.5,461.0,212.0,461.5,204.0,461.5,196.0,462.0,188.0,462.5,179.5,462.5,171.5,462.5,163.5,462.5,156.0,463.5,148.0,464.0,140.0,464.5,132.0,465.0,124.0,466.0,115.5,466.5,107.0,467.5,98.5,468.0,90.5,468.5,82.0,469.0,74.0,469.0" stroke="black" stroke-width="2" fill="none" />
<polyline points="74.0,472.0,82.0,472.0,90.0,472.0,98.5,472.0,106.5,472.0,114.5,471.5,123.0,471.5,131.5,471.0" stroke="black" stroke-width="2" fill="none" />
<polyline points="132.0,464.5,123.5,465.0,115.5,465.5,107.0,466.0,98.5,466.5,90.5,467.0" stroke="black" stroke-width="2" fill="none" />
<polyline points="78.0,457.5,86.0,458.5,93.5,460.5,101.5,462.5,108.0,464.0,115.5,466.0,123.5,467.0,131.5,469.0,137.5,472.0,144.0,472.5,151.0,474.5,157.0,475.5,162.5,477.0,172.0,479.0,180.0,480.5" stroke="black" stroke-width="2" fill="none" />
<polyline points="177.5,485.0,169.0,485.0,161.5,485.5,153.0,486.0,145.5,486.5,138.0,487.0,131.0,487.5,123.5,487.5,116.0,488.0,109.0,488.5,101.0,489.0,93.0,490.0,85.0,490.5" stroke="black" stroke-width="2" fill="none" />
<polyline points="75.5,485.0,82.5,477.5,90.5,470.0,98.5,462.5,106.5,455.0,114.5,447.5,122.0,439.5,130.0,432.0,138.5,424.0,147.0,416.5,155.5,409.0,164.0,401.5,172.5,394.0,181.0,386.5,189.5,378.5" stroke="black" stroke-width="2" fill="none" />
<polyline points="188.5,386.0,196.0,387.0" stroke="black" stroke-width="2" fill="none" />
<polyline points="181.5,388.5,186.0,383.5,182.0,391.5,182.0,400.0,181.5,410.0,182.0,419.5" stroke="black" stroke-width="2" fill="none" />
<polyline points="180.0,420.0,172.5,421.0,164.5,421.5,156.0,422.0,148.5,422.5,141.0,422.5,133.0,422.5,124.5,422.0,116.5,422.5,108.5,422.0,101.0,422.5,92.5,422.5,84.5,422.0,76.5,422.5" stroke="black" stroke-width="2" fill="none" />
<polyline points="74.5,425.0,82.5,417.5,90.5,410.0,98.5,402.5,106.5,394.5,114.0,387.0,122.0,379.0,130.0,371.0" stroke="black" stroke-width="2" fill="none" />
<polyline points="116.0,370.5,108.0,378.0,99.5,386.0,91.5,394.0,83.5,402.0,75.5,410.0,67.5,417.5" stroke="black" stroke-width="2" fill="none" />
<polyline points="68.5,421.0,76.5,420.5,84.5,419.5,92.5,418.5,99.5,417.5,107.0,417.0,115.0,417.0,122.5,417.0,130.5,417.0,138.0,417.0,145.5,416.5,153.5,416.0,162.0,416.0,170.0,415.5,178.0,414.5,186.5,413.5,194.5,413.0,202.0,412.5,210.5,412.0,219.5,412.0,228.0,411.5,235.5,411.0,243.0,410.0,251.0,409.5,258.5,409.0,267.0,409.0,275.0,408.5,283.5,408.0,291.5,407.5,300.0,407.0,308.0,406.0,316.0,405.5,324.0,405.0,332.0,404.5,340.5,404.5,349.0,404.0,357.0,403.5,365.0,402.5,372.5,401.5,380.0,401.0,387.5,400.5,396.0,400.0,404.0,400.0,412.5,399.0,421.0,398.5" stroke="black" stroke-width="2" fill="none" />
<polyline points="419.5,424.0,411.5,425.0,403.5,425.0,396.0,425.5,388.5,426.0,380.5,426.5,373.0,427.0,365.0,427.5,357.0,428.0,349.5,428.5,342.0,429.0,333.5,429.0,326.0,430.0,317.5,431.0,309.5,432.0,301.5,433.0,293.5,433.5,285.5,434.0,277.5,435.0,269.5,436.0,261.5,436.5,253.5,437.0,246.0,437.0,238.0,438.5,230.0,439.0,221.5,439.5,213.0,440.0,205.0,440.0,196.5,441.0,188.5,441.5,180.0,442.0,172.0,442.5,164.0,443.0,155.5,443.5,147.5,443.5,139.5,443.5,132.0,444.0,124.0,444.5,116.5,445.0,108.5,445.0,100.5,445.5,93.0,446.0" stroke="black" stroke-width="2" fill="none" />
<polyline points="99.0,433.5,107.0,426.0,115.5,418.0,124.5,409.5,133.0,401.5,141.0,394.0,148.5,386.0,156.0,379.0,163.5,371.5,171.5,364.5" stroke="black" stroke-width="2" fill="none" />
<polyline points="177.5,368.5,177.5,376.5,178.0,384.0,179.5,392.0,179.5,400.0,180.0,408.0,180.0,416.5,181.0,424.5,181.0,433.0,181.0,441.5" stroke="black" stroke-width="2" fill="none" />
<polyline points="156.0,477.5,147.5,478.0,139.5,479.0,131.5,479.5,123.5,480.0,115.5,480.0,107.5,480.5,100.0,480.5,92.0,480.5,84.0,481.0,76.5,481.0" stroke="black" stroke-width="2" fill="none" />
<polyline points="75.5,474.0,83.5,466.5,91.5,459.0,100.0,451.0,108.0,443.5" stroke="black" stroke-width="2" fill="none" />
<polyline points="107.0,430.0,115.5,422.0,123.5,414.5,132.0,407.0,140.0,400.0,148.0,392.5,156.0,384.5,163.5,376.5,171.5,369.0,179.5,361.5,187.5,354.0,195.5,347.0,204.0,339.5" stroke="black" stroke-width="2" fill="none" />
<polyline points="211.5,328.5,220.0,321.5,228.5,314.0,237.0,307.0,245.0,300.0" stroke="black" stroke-width="2" fill="none" />
<polyline points="245.5,307.0,237.5,315.0,229.5,322.5,221.0,330.0" stroke="black" stroke-width="2" fill="none" />
<polyline points="227.5,337.5,235.5,329.5,243.5,322.0" stroke="black" stroke-width="2" fill="none" />
<polyline points="244.5,315.5,236.5,323.0,228.5,330.0" stroke="black" stroke-width="2" fill="none" />
<polyline points="241.0,331.5,249.0,332.5,257.5,329.5" stroke="black" stroke-width="2" fill="none" />
<polyline points="261.0,328.0,253.0,328.0" stroke="black" stroke-width="2" fill="none" />
<polyline points="259.0,321.5,267.5,321.5,275.5,320.0,284.0,319.5" stroke="black" stroke-width="2" fill="none" />
<polyline points="260.5,313.0,268.5,312.5,276.5,312.5,284.0,312.0,292.0,312.0,300.0,312.0,307.5,311.5,315.5,311.0,323.5,310.5,332.0,310.0,340.5,309.5,348.5,309.0" stroke="black" stroke-width="2" fill="none" />
<polyline points="340.5,319.0,332.5,319.0,324.5,319.0,317.0,319.5,308.5,320.0" stroke="black" stroke-width="2" fill="none" />
<polyline points="310.5,332.5,318.5,327.5,327.0,323.0,335.0,319.0,333.5,319.5,316.0,327.5,311.5,332.5,312.5,340.5,312.5,348.0,311.5,356.0,311.5,363.5,311.5,372.0,311.5,380.0,311.5,388.0,311.5,395.5,311.5,403.5,311.5,411.5,311.5,419.5,312.5,428.0,311.5,436.0,311.5,444.0" stroke="black" stroke-width="2" fill="none" />
<polyline points="332.5,445.0,335.0,436.5,334.0,428.5,334.0,420.5" stroke="black" stroke-width="2" fill="none" />
<polyline points="338.5,407.5,330.0,408.5,321.5,410.0,313.5,410.5" stroke="black" stroke-width="2" fill="none" />
<polyline points="314.5,391.0,322.0,390.5,330.0,390.5,337.5,390.5" stroke="black" stroke-width="2" fill="none" />
<polyline points="346.0,383.0,339.0,383.0,331.5,383.0,323.5,383.5,316.0,383.5" stroke="black" stroke-width="2" fill="none" />
<polyline points="316.0,378.5,324.0,377.5,332.0,376.5,339.5,376.0,347.0,375.5" stroke="black" stroke-width="2" fill="none" />
<polyline points="349.0,343.5,340.5,343.5,332.5,343.5,324.0,344.0,315.5,345.0" stroke="black" stroke-width="2" fill="none" />
<polyline points="311.5,352.0,319.5,348.0,329.0,347.0" stroke="black" stroke-width="2" fill="none" />
<polyline points="321.5,335.5,313.5,335.5" stroke="black" stroke-width="2" fill="none" />
<polyline points="332.5,328.5,332.5,320.5" stroke="black" stroke-width="2" fill="none" />
<polyline points="313.0,314.0,313.0,306.0" stroke="black" stroke-width="2" fill="none" />
<polyline points="311.5,307.0,311.5,315.0" stroke="black" stroke-width="2" fill="none" />
<polyline points="323.5,280.0,331.5,279.5,339.5,279.5,347.5,280.0" stroke="black" stroke-width="2" fill="none" />
<polyline points="347.5,276.0,339.5,283.5,332.0,290.5,324.0,298.0,315.5,306.0,307.5,314.0,299.5,321.5,292.0,329.5,284.0,337.0,276.0,345.0,267.5,352.5,260.0,360.0" stroke="black" stroke-width="2" fill="none" />
<polyline points="253.5,371.5,245.0,372.0,236.5,372.0,228.5,372.5,220.5,373.0,212.5,373.5,204.5,374.0,196.5,374.0,188.5,374.0,180.0,374.5,171.5,374.5,163.0,375.0,155.5,375.5,148.0,376.5,140.0,376.5,132.0,377.0,124.5,377.5,116.5,378.0,108.0,378.0,100.0,378.5,92.5,379.0,84.5,379.5,76.0,380.0,68.0,381.0" stroke="black" stroke-width="2" fill="none" />
<polyline points="68.0,384.5,75.5,377.0,83.5,370.0,91.5,363.0,99.5,355.5,107.5,348.5" stroke="black" stroke-width="2" fill="none" />
<polyline points="107.5,355.0,115.5,347.5" stroke="black" stroke-width="2" fill="none" />
<polyline points="115.0,342.5,123.0,342.0,130.5,341.0,138.0,340.0,146.5,339.5,155.0,338.5,163.0,338.0,171.5,338.0,180.0,337.5,189.0,337.5,197.0,337.0,205.5,336.5,212.5,336.0" stroke="black" stroke-width="2" fill="none" />
<polyline points="209.0,329.0,216.5,329.0,211.5,327.5,204.0,332.0,198.0,330.0,198.0,321.5,197.5,311.5,198.0,303.5,193.0,297.5,185.0,297.0,177.0,296.0" stroke="black" stroke-width="2" fill="none" />
<polyline points="162.5,276.0,154.5,283.5,147.0,290.5,139.0,298.0,131.0,305.5,123.0,312.5,115.0,321.0,106.5,329.0" stroke="black" stroke-width="2" fill="none" />
<polyline points="116.5,329.5,124.5,321.5,133.0,313.5,141.0,305.5,149.0,297.5,156.5,289.5,165.0,281.5,173.5,274.0,181.5,266.5" stroke="black" stroke-width="2" fill="none" />
<polyline points="187.0,260.5,195.5,259.5,203.0,259.0,210.5,258.5,218.5,258.0,226.5,257.5,234.0,257.0,242.0,256.5,249.5,256.0,258.0,255.5,266.0,255.0,274.0,254.0,282.5,253.5,290.5,253.5,299.0,253.5,307.5,253.0,316.0,253.0,324.0,252.5,332.0,252.5,340.0,253.0,348.0,252.5,356.0,251.5,364.0,250.5,371.5,250.0,379.0,249.5,386.5,249.0,394.0,248.5" stroke="black" stroke-width="2" fill="none" />
<polyline points="395.0,250.5,387.0,258.0,379.5,266.0,371.0,274.0,363.0,281.5" stroke="black" stroke-width="2" fill="none" />
<polyline points="361.5,289.0,369.0,281.5,376.5,273.5,385.0,266.0,393.0,258.0" stroke="black" stroke-width="2" fill="none" />
<polyline points="387.5,253.0,379.5,260.5,371.5,267.5,362.5,275.0" stroke="black" stroke-width="2" fill="none" />
<polyline points="364.0,268.5,372.0,261.0,379.5,253.5" stroke="black" stroke-width="2" fill="none" />
<polyline points="381.5,259.0,389.0,258.5" stroke="black" stroke-width="2" fill="none" />
<polyline points="404.0,257.0,412.0,249.5,420.0,242.5,428.0,235.0" stroke="black" stroke-width="2" fill="none" />
<polyline points="430.0,242.5,421.5,250.0,412.5,258.0,404.0,265.5" stroke="black" stroke-width="2" fill="none" />
<polyline points="405.0,263.5,413.0,263.0,421.5,263.0,429.5,262.5" stroke="black" stroke-width="2" fill="none" />
<polyline points="429.0,260.0,421.0,267.5,413.0,274.5,405.0,282.0" stroke="black" stroke-width="2" fill="none" />
<polyline points="403.5,278.0,412.0,277.5,419.5,277.0,427.5,277.0" stroke="black" stroke-width="2" fill="none" />
<polyline points="419.5,271.0,412.0,271.5" stroke="black" stroke-width="2" fill="none" />
<polyline points="412.0,265.5,420.0,265.0,428.0,264.5" stroke="black" stroke-width="2" fill="none" />
<polyline points="428.5,249.5,420.5,257.0,412.5,265.0,404.5,272.5" stroke="black" stroke-width="2" fill="none" />
<polyline points="404.0,272.0,412.0,271.0,420.5,269.5,429.0,268.5" stroke="black" stroke-width="2" fill="none" />
<polyline points="426.5,256.0,418.5,256.0,411.0,256.5" stroke="black" stroke-width="2" fill="none" />
<polyline points="413.0,250.5,420.5,250.0,428.0,249.0" stroke="black" stroke-width="2" fill="none" />
<polyline points="426.5,240.5,418.5,241.0" stroke="black" stroke-width="2" fill="none" />
<polyline points="418.5,237.5,410.5,245.0,402.5,251.0" stroke="black" stroke-width="2" fill="none" />
<polyline points="404.0,255.0,412.5,254.0,420.5,253.0,428.5,252.0" stroke="black" stroke-width="2" fill="none" />
<polyline points="388.5,287.5,381.5,288.5,374.0,289.0" stroke="black" stroke-width="2" fill="none" />
<polyline points="373.0,279.0,381.0,279.0,389.0,279.0" stroke="black" stroke-width="2" fill="none" />
<polyline points="389.0,270.5,380.5,271.0,372.5,271.5" stroke="black" stroke-width="2" fill="none" />
<polyline points="373.5,264.0,381.0,264.0,389.0,263.5" stroke="black" stroke-width="2" fill="none" />
<polyline points="370.5,254.0,362.5,261.5" stroke="black" stroke-width="2" fill="none" />
<polyline points="359.0,261.5,367.0,259.5,375.0,255.5,382.5,251.5,390.0,255.5,388.5,263.5,388.5,271.5,389.0,279.0,389.0,286.5,389.0,294.5,388.0,301.5,388.0,309.0,388.0,317.0,388.0,325.5,388.5,333.5,388.0,341.5,388.0,349.0,388.5,357.0,388.5,365.0,387.5,372.5,387.5,380.5,387.5,388.5,388.0,396.5,387.0,404.0,387.0,412.5,387.0,420.5,387.0,428.5,386.5,436.5,385.5,445.0,385.5,453.5,385.5,462.0,385.5,470.0,384.5,478.0,384.5,486.0,384.5,494.0,384.5,502.0,379.5,510.0,373.0,518.5,365.0,526.5,367.0,533.5" stroke="black" stroke-width="2" fill="none" />
<polyline points="421.0,431.5,412.5,432.0,404.5,433.0,396.0,433.5,388.5,434.0,380.5,435.0,372.5,436.0,365.0,436.0,357.0,436.5,348.5,437.0,340.0,438.0,332.0,438.5,324.0,439.0,316.0,439.5,308.0,439.5,300.0,439.5,292.0,440.0,284.0,440.5,275.5,440.5,267.5,441.0,259.0,441.5,251.0,442.0,242.5,443.0,235.0,444.0,226.5,444.5,218.0,444.5,209.5,445.0,201.5,446.0,193.5,447.0,186.0,447.5,178.5,447.5,171.0,448.0,163.5,448.0,155.5,448.5,147.5,449.5,139.5,449.5,131.5,450.0,124.0,450.0,116.0,450.5,108.0,450.5,100.0,451.0,92.0,451.5,83.5,451.5,75.5,452.5" stroke="black" stroke-width="2" fill="none" />
<polyline points="70.5,458.0,79.0,452.0,87.0,448.5,95.0,443.5,102.5,439.5,103.0,438.5,88.0,446.5,74.5,454.5,71.5,462.5,72.0,470.0,72.0,478.0,73.0,486.0,74.0,494.0,75.0,502.0,76.5,510.5,78.0,518.5,85.5,518.5,93.5,521.5,101.0,523.0,108.5,525.0,116.5,527.5,125.0,529.5,133.0,531.5,141.0,534.5,149.5,536.5,157.5,538.0,165.0,540.0,173.0,541.5,181.0,543.5,189.5,546.5,197.5,548.5,205.5,550.5" stroke="black" stroke-width="2" fill="none" />
<polyline points="259.5,516.5,251.5,511.0,252.5,503.0" stroke="black" stroke-width="2" fill="none" />
<polyline points="344.0,452.5,344.0,444.5,344.0,436.5,344.0,429.0,344.5,421.0,344.0,413.0,344.5,405.0,345.0,397.0,345.0,389.0,345.5,381.0,346.5,373.5,346.5,365.5,346.5,357.5,346.5,349.0,346.5,341.0,346.5,332.5,346.0,324.5,346.0,316.5,345.5,308.0,345.5,300.0,345.5,292.0,346.0,284.0,346.0,276.0,346.0,268.0,336.0,270.0,343.0,266.0,335.5,265.0,327.5,264.0,319.5,264.0,312.0,263.0,304.0,262.5,296.0,262.5" stroke="black" stroke-width="2" fill="none" />
<polyline points="289.0,261.0,281.0,269.0,273.0,277.0,265.0,284.5,257.5,292.5" stroke="black" stroke-width="2" fill="none" />
<polyline points="258.0,292.0,266.0,291.0,274.5,290.5,282.5,290.5,291.0,290.5,299.5,290.0,308.0,290.0,316.0,289.5,324.0,289.5,332.0,290.0,340.0,289.5,348.0,288.5,356.0,287.5,363.5,287.0,371.0,286.5,378.5,286.0,386.0,285.5,394.0,285.0" stroke="black" stroke-width="2" fill="none" />
<polyline points="396.5,300.0,388.5,300.5,380.0,301.0,371.5,301.5,362.5,302.5,354.0,303.5,345.5,305.0,337.5,305.5,329.5,306.0,321.5,306.5,314.0,307.0,306.0,307.0,298.0,307.0,290.5,307.5,283.5,308.5,276.0,309.0,268.0,309.5,260.5,309.5" stroke="black" stroke-width="2" fill="none" />
<polyline points="259.5,307.0,267.5,299.5,275.0,292.0,283.5,284.0,292.0,276.5,299.5,269.5" stroke="black" stroke-width="2" fill="none" />
<polyline points="290.5,269.0,282.5,276.5,274.5,284.5,266.5,292.0,258.5,299.5" stroke="black" stroke-width="2" fill="none" />
<polyline points="258.0,297.5,266.0,296.5,274.0,296.0,282.5,295.5,290.5,294.5,298.5,294.0,307.0,294.0,315.5,293.5,324.0,293.0,332.0,291.5,340.0,290.5,347.5,290.5" stroke="black" stroke-width="2" fill="none" />
<polyline points="346.0,300.0,338.0,300.0,330.5,300.5,322.5,301.0,314.5,301.5,306.5,301.5,298.5,302.0,290.5,303.0,282.5,304.0,274.5,304.5,266.0,305.0,258.5,305.0" stroke="black" stroke-width="2" fill="none" />
<polyline points="258.0,301.5,266.5,301.0,275.0,300.0,283.5,299.0,291.5,298.0,299.0,298.0,307.0,297.0,314.5,296.5,322.0,296.0,330.5,294.5,338.5,294.0,346.0,293.5,354.0,293.5,361.5,293.5,369.0,293.5,377.0,293.5,385.0,292.5,393.5,291.5" stroke="black" stroke-width="2" fill="none" />
<polyline points="394.0,302.5,386.0,302.5,378.5,303.0,370.5,303.5,362.0,305.0,354.5,305.5,347.0,306.0,339.0,307.0,331.5,307.0,323.5,308.0,315.0,309.0,306.5,310.0,298.0,310.5,290.5,311.0,283.0,312.0,275.5,312.5,267.5,313.5,259.5,314.5,251.0,315.0,242.0,316.0,233.5,316.0,225.0,316.0,217.5,316.5,209.0,317.0,201.5,317.5,194.0,318.0,187.0,318.5,179.5,318.5,172.0,319.0,165.0,319.5,157.0,320.0,149.0,321.0,141.0,321.5,133.0,322.0,124.5,321.5,117.0,321.0,109.0,321.5,101.5,321.5,93.5,322.0,85.5,322.5,77.0,323.0,68.0,324.0,60.0,324.5" stroke="black" stroke-width="2" fill="none" />
<polyline points="61.0,320.5,68.5,320.0,76.0,319.5,84.0,319.5,92.0,319.0,100.5,319.0,108.5,318.5,117.0,318.0,125.0,317.0,133.5,317.0,141.5,316.5,149.5,316.0,157.5,316.0,165.0,315.5,173.0,315.5,180.5,315.0,188.5,314.5,196.5,314.0" stroke="black" stroke-width="2" fill="none" />
<polyline points="194.0,323.0,186.0,323.0,178.5,323.0,170.5,323.5,162.5,324.0,154.5,324.0,147.0,324.5,139.5,325.0,131.5,325.5,124.0,326.0,116.0,326.5,108.0,327.0,99.5,328.0,91.0,328.5,83.5,328.5,75.5,329.0" stroke="black" stroke-width="2" fill="none" />
<polyline points="92.5,326.0,100.5,318.5,108.5,311.5,116.5,304.0,124.0,296.5,132.0,288.5,139.5,281.0,147.0,274.0,155.0,266.0" stroke="black" stroke-width="2" fill="none" />
<polyline points="147.5,266.5,140.0,274.0,132.0,282.0,124.0,289.5,115.5,297.5,107.5,305.0,100.0,312.5,92.0,320.5,84.0,328.0" stroke="black" stroke-width="2" fill="none" />
<polyline points="99.0,327.0,106.5,319.5,114.5,311.5,122.0,304.0,130.0,296.5,138.5,289.0,146.5,281.5,154.5,274.5,162.5,267.0" stroke="black" stroke-width="2" fill="none" />
<polyline points="139.5,268.0,131.5,275.5,123.5,283.0,116.0,290.5,108.0,298.0,100.5,305.5,93.0,313.0,85.0,320.5,77.0,328.5" stroke="black" stroke-width="2" fill="none" />
<polyline points="67.5,328.5,75.0,320.5,83.0,312.5,91.5,304.5,99.0,297.5,107.0,290.0,115.0,282.5,123.5,275.5,132.0,268.0" stroke="black" stroke-width="2" fill="none" />
<polyline points="124.0,266.0,115.5,274.0,107.5,281.5,99.5,289.0,91.5,296.5,83.5,304.0,76.0,311.5,68.0,319.5" stroke="black" stroke-width="2" fill="none" />
<polyline points="59.5,320.0,67.0,313.0,75.0,306.0,83.5,298.0,91.5,290.5,99.5,283.0,107.5,275.5,116.0,267.5" stroke="black" stroke-width="2" fill="none" />
<polyline points="108.5,270.0,100.5,277.0,92.5,284.0,84.5,291.0,75.5,298.0,67.5,305.0,59.5,312.0" stroke="black" stroke-width="2" fill="none" />
<polyline points="60.5,313.0,68.0,313.0,76.0,313.0,84.0,312.5,92.0,311.5,100.5,311.5,108.5,311.0,116.5,311.0,125.0,310.5,134.0,310.0,142.5,309.5,150.5,308.5,158.0,308.0,165.5,307.5,173.0,306.5,180.5,306.0,188.0,305.5,196.5,305.0" stroke="black" stroke-width="2" fill="none" />
<polyline points="203.0,297.5,195.5,298.0,188.0,298.5,180.0,299.0,172.5,299.0,164.5,299.0,156.5,299.5,149.0,299.5,141.0,300.0,133.0,300.0,124.5,301.0,116.0,301.5,108.0,302.0,99.5,302.5,91.5,303.0,83.0,303.5,75.0,303.5,67.0,304.0,59.0,304.5" stroke="black" stroke-width="2" fill="none" />
<polyline points="59.0,304.5,66.5,297.0,74.0,289.5,81.5,282.0,89.0,274.5,97.0,267.0" stroke="black" stroke-width="2" fill="none" />
<polyline points="90.5,267.0,82.5,274.0,74.5,281.5,66.5,288.5,58.0,296.0" stroke="black" stroke-width="2" fill="none" />
<polyline points="59.5,297.5,67.5,296.5,74.5,296.0,82.5,295.5,91.0,295.0,98.5,294.5,107.0,294.0,115.5,293.5,124.0,293.0,132.0,292.5,140.5,292.0,148.0,292.0,156.0,291.5,164.0,291.5,171.5,291.5,179.5,291.0,187.5,291.0,195.5,290.5,203.5,290.0,211.5,289.0,220.0,288.5,227.5,287.5,235.0,287.0,242.5,286.5" stroke="black" stroke-width="2" fill="none" />
<polyline points="245.5,285.0,253.5,284.0" stroke="black" stroke-width="2" fill="none" />
<polyline points="250.5,289.0,258.5,280.5,266.5,272.5,274.0,264.5,281.5,257.0" stroke="black" stroke-width="2" fill="none" />
<polyline points="275.0,258.5,267.0,266.0,259.0,273.0,251.0,280.5,243.0,288.0,235.0,295.5,227.0,303.5,219.0,311.5,211.0,319.5,203.5,327.0,195.5,334.5,187.5,341.5,179.0,349.0" stroke="black" stroke-width="2" fill="none" />
<polyline points="170.0,349.5,178.0,349.5,186.0,349.0,194.5,349.0,203.0,348.5,211.5,347.5,220.0,347.0,228.0,346.0,236.0,345.5,243.5,345.0,251.5,344.5,259.5,344.0,268.0,343.0,276.5,342.0,285.0,341.5,293.5,341.0,301.5,340.0,309.0,340.0,317.0,340.0,325.0,340.0,333.5,340.0,341.0,339.5,349.0,339.0,357.0,338.5,364.5,337.5,372.5,337.0,381.0,337.0,389.0,336.0,397.5,335.5" stroke="black" stroke-width="2" fill="none" />
<polyline points="420.5,352.0,412.0,353.0,404.5,353.5,396.5,354.0,388.5,354.5,380.0,355.0,371.5,355.5,363.5,356.0,355.5,356.5,348.0,357.0,340.0,357.0,332.0,357.0,324.5,357.5,316.5,357.5,308.5,358.0,300.5,358.5,292.5,358.5,284.5,359.5,276.5,360.5,268.5,361.0,260.0,362.0,251.5,362.0,243.0,363.0,234.5,363.5,226.5,364.5,218.5,365.0,210.5,365.0,203.0,365.0,195.5,365.0,187.5,365.5,179.5,365.5,171.5,366.0,163.5,366.5,156.0,367.0,148.0,367.0,140.0,368.0,132.0,368.5,124.0,369.5,116.0,370.0,108.0,370.5,100.0,371.0,92.5,371.5,85.0,372.0,77.0,372.0,69.0,372.5" stroke="black" stroke-width="2" fill="none" />
<polyline points="70.5,372.5,78.0,365.0" stroke="black" stroke-width="2" fill="none" />
<polyline points="84.0,364.5,75.5,371.5,67.0,379.0" stroke="black" stroke-width="2" fill="none" />
<polyline points="69.0,376.0,77.5,375.5,85.5,375.5,93.5,375.5,101.5,375.0,109.5,374.5,117.0,373.5" stroke="black" stroke-width="2" fill="none" />
<polyline points="108.5,371.0,100.5,379.0,92.5,386.5,84.5,394.0,76.0,401.5,68.0,409.0" stroke="black" stroke-width="2" fill="none" />
<polyline points="65.0,406.5,73.0,406.0,81.0,405.0,89.5,404.0,98.5,404.0,107.5,403.5,116.0,402.5,124.0,402.0,132.5,402.0,141.5,401.0,149.5,401.0,157.0,400.5,164.5,399.5,172.5,399.0,180.5,398.5,188.0,398.0,196.0,398.0,203.5,398.5,211.5,398.5,219.5,398.5,227.5,398.0,235.5,397.5,243.0,397.0,250.5,396.5,258.0,396.0,265.0,395.5,273.0,394.5,281.5,393.5,289.5,392.5,298.0,391.5,306.0,391.0,314.0,390.0,321.5,389.5,330.0,389.5,338.5,389.0,347.0,389.0,355.5,387.5,364.0,387.0,372.0,386.0,380.0,385.0,388.0,384.5,396.5,384.0,405.0,383.0,413.0,382.5,421.5,382.5" stroke="black" stroke-width="2" fill="none" />
<polyline points="422.0,390.0,413.5,391.0,405.5,392.0,397.5,393.0,389.0,393.5,381.0,394.0,372.5,394.0,364.0,394.5,355.0,395.0,346.5,396.0,338.5,396.5,331.0,397.0,323.0,397.0,315.0,397.5,307.0,398.0,299.0,398.5,291.0,399.0,283.0,399.5,275.5,400.0,267.5,400.0,259.5,401.0,251.5,401.5,243.0,402.5,234.5,402.5,226.5,403.0,218.5,403.5,210.5,404.5,202.5,405.5,194.5,406.5,186.5,406.5,179.5,407.0,171.5,407.5,164.0,408.0,156.5,408.5,148.0,408.5,140.5,409.0,132.5,409.0,124.5,409.5,116.5,409.5,108.5,410.0,100.0,410.0,91.5,410.5,83.5,411.5,75.0,412.0,67.0,413.0" stroke="black" stroke-width="2" fill="none" />
<polyline points="77.5,407.5,85.5,407.0,93.0,407.0,100.5,407.0,108.5,408.0,116.0,408.0,124.0,407.5,131.5,407.0,139.5,406.5,147.0,406.0,155.0,405.5,163.0,405.0,170.5,404.0,178.0,403.0" stroke="black" stroke-width="2" fill="none" />
<polyline points="141.5,379.0,134.0,386.5,126.0,394.0,118.0,402.0,110.0,410.0,101.5,417.5,93.5,425.0" stroke="black" stroke-width="2" fill="none" />
<polyline points="75.5,401.0,83.5,401.0,91.5,400.0,99.5,399.5,107.5,399.0,116.0,399.0,123.5,398.5,131.5,398.5,139.0,398.0,147.0,397.5,155.5,397.5,163.5,397.0,172.0,396.5,180.0,396.0" stroke="black" stroke-width="2" fill="none" />
<polyline points="177.5,340.0,186.0,333.0,194.0,325.5,201.5,318.0,209.0,310.5,217.0,303.0,225.5,295.5,233.0,288.5,241.0,281.0,249.0,272.5,257.5,264.5,266.0,257.5,274.0,250.0" stroke="black" stroke-width="2" fill="none" />
<polyline points="269.5,247.0,277.5,246.5,285.0,246.0,292.5,246.0,300.0,246.0,307.0,245.5,315.0,244.5,322.5,243.5,330.0,243.0,337.5,242.5,345.0,242.5,353.0,241.5,362.0,240.5,370.0,239.5,378.5,238.5,387.0,237.5,395.5,236.5,403.5,235.5,412.0,235.0,420.5,234.0,429.0,233.0" stroke="black" stroke-width="2" fill="none" />
<polyline points="363.5,250.5,355.0,258.0" stroke="black" stroke-width="2" fill="none" />
<polyline points="347.0,256.5,355.0,249.0" stroke="black" stroke-width="2" fill="none" />
<polyline points="347.5,251.5,339.5,258.5" stroke="black" stroke-width="2" fill="none" />
<polyline points="340.0,251.5,332.0,259.0" stroke="black" stroke-width="2" fill="none" />
<polyline points="330.0,252.0,322.5,259.5" stroke="black" stroke-width="2" fill="none" />
<polyline points="321.5,256.5,329.5,258.0" stroke="black" stroke-width="2" fill="none" />
<polyline points="348.5,283.0,340.5,283.5,332.0,284.5,323.5,284.5,315.0,285.0,307.0,285.0,299.0,285.5,291.0,286.0,283.5,287.0,275.5,288.0,268.0,288.0,260.0,288.5" stroke="black" stroke-width="2" fill="none" />
<polyline points="252.5,298.0,243.5,298.0,235.0,298.5,227.5,299.0,219.5,299.5,211.5,300.0,204.0,301.0,196.0,302.0,187.5,302.0,179.5,303.0,172.0,303.5,164.5,304.0,157.0,304.0,148.5,304.0,140.5,304.5,132.5,305.0,125.0,306.5,117.0,307.5,109.0,308.0,101.0,308.0,93.0,308.0,84.5,307.5,76.5,307.5,68.0,308.0,60.0,308.5" stroke="black" stroke-width="2" fill="none" />
<polyline points="57.0,300.5,65.0,300.0,73.5,299.5,81.5,299.0,89.5,299.0,97.5,298.5,106.0,298.0,114.0,297.0,122.5,296.5,131.0,296.5,139.0,296.0,147.0,295.5,154.5,295.0,162.5,295.0,170.5,295.0,178.5,295.0,186.0,294.5,193.5,294.0,201.5,293.0,210.0,292.5,218.0,291.5,226.0,291.5,234.0,291.0,242.5,291.0,251.0,290.5" stroke="black" stroke-width="2" fill="none" />
<polyline points="247.0,288.0,245.0,286.0,243.5,294.5,243.5,302.5,244.0,310.5,240.0,315.5,244.0,319.5,252.0,319.0" stroke="black" stroke-width="2" fill="none" />
<polyline points="242.5,313.5,234.5,314.0" stroke="black" stroke-width="2" fill="none" />
<polyline points="243.5,304.5,235.0,305.0,227.0,305.5,219.0,305.5" stroke="black" stroke-width="2" fill="none" />
<polyline points="199.5,323.5,200.0,331.5,210.0,331.5" stroke="black" stroke-width="2" fill="none" />
<polyline points="241.0,347.5,248.5,343.5,256.5,340.5,240.5,347.0,246.5,351.0,246.0,359.0,246.0,367.0,247.0,375.0,247.5,383.0,248.0,391.5,249.0,399.5,249.0,407.5,259.0,412.5,258.5,420.5" stroke="black" stroke-width="2" fill="none" />
<polyline points="243.0,447.0,243.5,439.0,243.0,425.0,243.0,417.0,243.0,404.0,243.0,396.5,242.5,388.5,241.0,380.5,240.5,372.5,240.5,364.0,240.5,359.0,240.5,351.5" stroke="black" stroke-width="2" fill="none" />
<polyline points="255.5,317.5,255.5,309.5,247.0,309.0" stroke="black" stroke-width="2" fill="none" />
<polyline points="236.5,275.0,228.0,282.5,220.0,290.5,211.5,298.0,203.0,305.5,194.5,312.5,186.0,320.5,177.5,328.0,169.5,334.5,161.5,341.5" stroke="black" stroke-width="2" fill="none" />
<polyline points="171.5,341.5,179.5,334.0,187.0,326.5,195.5,319.0,203.5,311.5,211.5,303.5,219.5,296.0,227.0,289.0,235.0,281.5,242.5,274.0,250.5,266.5,259.0,259.0,267.0,251.5" stroke="black" stroke-width="2" fill="none" />
<polyline points="261.0,252.0,268.0,245.0,263.0,246.0,251.0,257.0,251.5,261.5,256.0,259.5,263.5,259.5,270.5,253.5,273.0,255.0,258.5,266.0,263.5,264.5,272.0,258.5,281.0,261.5" stroke="black" stroke-width="2" fill="none" />
<polyline points="298.0,254.5,306.0,255.5" stroke="black" stroke-width="2" fill="none" />
<polyline points="305.0,235.0,312.5,235.0,321.0,236.0,329.0,236.0,338.0,237.0,346.0,237.0,354.0,238.0,362.0,238.5,370.0,238.5,377.5,239.0,385.5,239.0,393.5,240.0,402.0,240.5,410.0,237.5,418.0,233.5,426.0,238.5,425.5,246.0,424.5,254.0,424.5,262.0,424.5,269.5,413.5,277.5,413.5,284.5,412.0,293.0,413.0,294.0,411.5,302.5" stroke="black" stroke-width="2" fill="none" />
<polyline points="396.0,296.5,388.0,297.5,380.0,298.5,372.0,299.0,364.0,298.5,356.0,298.5,348.0,299.0,339.5,299.0,331.0,299.5,322.5,299.5,314.5,299.5,306.0,300.0,298.0,301.0,290.0,301.5,281.5,302.0,274.0,302.5,266.0,303.0,258.5,303.5,250.5,304.0,242.5,304.5,235.0,305.0,227.5,305.5,219.0,306.5,211.5,307.0,204.0,308.0,196.0,308.5,188.0,309.5,180.5,310.0,173.0,310.5,165.0,310.5,157.0,311.0,149.0,312.0,141.5,312.0,133.0,312.5,125.0,313.0,117.0,314.0,109.0,315.0,100.5,316.0,91.5,316.0,83.0,316.5,74.5,316.5,66.5,317.0,59.0,318.0" stroke="black" stroke-width="2" fill="none" />
<polyline points="60.5,295.0,68.0,294.5,76.0,293.5,84.0,293.0,92.5,292.0,101.0,291.0,108.5,290.5,116.0,289.5,124.0,289.0,132.0,288.0,140.0,287.5,148.5,287.0,156.5,287.5,164.0,287.0,172.0,287.0,180.0,286.5,188.0,286.5,196.0,286.5,204.0,286.5,211.5,286.5,219.5,286.0,227.5,285.5,236.0,284.5,244.0,283.5,251.0,282.5" stroke="black" stroke-width="2" fill="none" />
<polyline points="242.5,268.5,250.5,261.0,259.0,253.5" stroke="black" stroke-width="2" fill="none" />
<polyline points="250.0,254.0,236.0,255.0,228.0,259.0,220.0,261.0,212.0,263.0,204.5,267.0,196.5,270.0,191.5,266.0,188.0,269.0,179.0,264.5,171.0,265.5,163.0,266.5,155.5,266.5,147.5,266.0,139.5,265.0,131.5,264.0,124.0,263.0,116.0,263.0,108.0,262.0,100.0,261.0,92.5,260.0" stroke="black" stroke-width="2" fill="none" />
<polyline points="90.5,260.5,82.5,267.5,74.0,274.5,66.0,281.5,58.5,289.5" stroke="black" stroke-width="2" fill="none" />
<polyline points="60.0,288.5,68.0,288.0,76.0,287.5,84.0,287.5,91.5,287.0,99.0,286.5,107.0,286.0,115.0,285.5,122.5,285.0,130.5,284.0,138.0,283.0,146.0,283.0,154.0,283.0,162.5,283.0,170.5,283.0,178.5,282.5,187.0,282.5,195.5,282.0,204.0,281.5,212.5,281.0,221.0,280.5,228.5,280.0,236.5,279.0,244.5,278.5" stroke="black" stroke-width="2" fill="none" />
<polyline points="236.5,268.0,245.0,261.0" stroke="black" stroke-width="2" fill="none" />
<polyline points="243.5,252.5,236.0,260.0" stroke="black" stroke-width="2" fill="none" />
<polyline points="226.0,268.5,218.0,276.5,209.5,284.0,202.0,291.0,194.0,298.0,185.5,305.5,177.5,312.0,170.0,319.5,162.0,326.5,154.5,333.5" stroke="black" stroke-width="2" fill="none" />
<polyline points="162.0,335.0,170.5,328.0,179.0,321.0,186.5,313.5,195.0,306.0,202.5,298.5,210.5,291.5,218.5,284.0,227.0,276.0" stroke="black" stroke-width="2" fill="none" />
<polyline points="228.0,270.5,220.0,270.5,211.5,271.0,203.0,271.5,195.0,272.5,187.0,273.0,179.0,274.0,171.0,274.0,163.0,274.5,155.0,275.0,147.0,275.0,138.5,275.5,131.0,275.5,123.0,276.0,115.0,276.5,107.0,277.5,99.0,278.5,91.0,278.5,83.5,279.0,75.5,279.5,67.5,280.5,59.5,281.0" stroke="black" stroke-width="2" fill="none" />
<polyline points="59.5,283.5,67.5,276.0,75.5,268.0,83.0,260.0" stroke="black" stroke-width="2" fill="none" />
<polyline points="85.5,253.0,93.0,253.0,101.0,252.0,109.0,251.5" stroke="black" stroke-width="2" fill="none" />
<polyline points="108.0,245.5,116.5,245.5,124.0,245.0,131.5,244.5" stroke="black" stroke-width="2" fill="none" />
<polyline points="140.5,268.0,132.5,268.5,124.0,268.5,116.0,269.0,108.0,269.5,100.0,270.0,92.5,271.5,85.0,272.5,77.5,273.5,70.0,274.5,62.0,274.5" stroke="black" stroke-width="2" fill="none" />
<polyline points="60.0,275.0,67.5,268.0,75.0,260.0" stroke="black" stroke-width="2" fill="none" />
<polyline points="65.0,258.5,57.5,266.0" stroke="black" stroke-width="2" fill="none" />
<polyline points="60.5,266.5,68.5,266.0" stroke="black" stroke-width="2" fill="none" />
<polyline points="58.5,258.0,66.5,258.0,74.5,259.0,82.5,260.5,90.0,257.5,98.0,255.5,106.0,254.0,114.0,251.0,122.0,249.0,130.0,247.0,138.5,245.0,146.0,242.5" stroke="black" stroke-width="2" fill="none" />
<polyline points="125.5,255.0,117.5,255.5,109.0,256.5,99.5,257.5,90.5,258.0,82.5,258.5,74.5,259.5,66.5,259.5,58.0,259.5,50.0,260.5" stroke="black" stroke-width="2" fill="none" />
<polyline points="51.5,256.5,59.5,253.5,67.5,252.0,75.5,250.0,83.5,248.5,91.5,246.5,99.5,244.5,107.5,243.0,115.5,241.5,123.0,239.5,131.0,236.5,139.0,234.5,147.5,232.5,155.5,230.0,163.0,227.5,171.0,225.5,178.5,223.5,187.0,221.5,195.0,219.5,203.0,217.5,210.5,216.5,218.5,216.5,226.5,217.5,234.5,217.0,242.5,217.5,251.0,218.5,259.5,218.5,267.5,219.5,275.5,220.0,283.5,221.0,291.5,221.0,299.5,222.0,308.0,222.0,316.0,223.0,324.0,224.0,332.0,224.0,340.0,224.0,347.5,225.0,355.5,226.0,363.5,225.5,371.5,226.5,379.5,226.5,387.0,228.5,395.0,229.0,403.0,230.0,411.0,230.0,419.0,231.0,426.5,231.0,408.5,239.0,402.5,248.0,402.5,256.0,402.5,264.0,403.0,271.5,402.0,279.5,402.0,287.0,402.0,295.0,401.5,302.5,400.5,310.5,400.5,318.5,400.0,326.0,399.5,334.5,399.0,342.5,399.0,351.0,399.0,359.0,399.5,367.0,398.5,375.0,399.0,383.0,400.0,391.0,400.0,399.0,399.5,406.5,399.5,414.5,399.5,422.5,399.0,430.5,398.0,438.5,398.0,447.0,398.0,455.5,398.0,464.0,397.5,472.0,397.0,482.5,397.0,490.5,395.5,493.5,405.5,482.5,413.5,473.5" stroke="black" stroke-width="2" fill="none" />
<polyline points="383.0,503.0,380.5,507.5,372.5,515.5,364.0,524.5,357.0,527.5,357.0,519.5,359.0,511.5,358.0,503.5,359.5,494.0,359.5,486.5,361.0,476.5,359.0,476.0,361.0,468.5,361.0,461.0,360.5,453.0,361.5,445.5,361.5,437.5,361.0,429.5,361.0,421.5,361.0,413.5,361.0,405.5,361.0,397.5,360.5,389.0,361.5,381.0,361.5,373.0,361.5,365.0,361.5,357.0,361.5,349.0,362.5,341.0,362.5,332.5,362.5,324.0,362.5,315.5,363.0,307.5,363.0,299.5,363.0,291.5,363.0,283.0,364.0,275.5,363.5,267.5,364.5,258.5,381.5,250.5,388.5,247.0,380.5,246.0,372.0,245.0,364.0,245.5,355.5,244.5,347.0,244.5,339.0,243.0,331.0,242.0,323.0,242.5,315.0,243.5,307.0,246.5,303.0,242.0,298.5,235.5,297.5,231.5,290.0,233.5,281.5,230.5,274.0,230.5,266.0,229.5,258.0,228.5,250.0,228.5,242.0,227.5,234.0,226.0,228.5,225.5,223.5,223.0,223.0,228.0,214.5,230.0,224.0,227.0,215.0,224.5,212.5,219.5" stroke="black" stroke-width="2" fill="none" />
<polyline points="219.0,221.5,211.0,222.0,203.0,222.5" stroke="black" stroke-width="2" fill="none" />
<polyline points="212.5,233.0,220.5,232.5,229.5,234.5,237.0,234.5,245.0,235.5,252.5,236.5" stroke="black" stroke-width="2" fill="none" />
<polyline points="263.0,240.5,240.0,248.0" stroke="black" stroke-width="2" fill="none" />
<polyline points="220.0,253.5,227.5,253.0,235.0,252.0,243.0,251.5,250.5,251.0,259.0,251.0,267.0,250.5,275.5,250.0,283.5,249.5,292.0,249.0,300.0,248.0,308.0,247.5,316.0,247.0,324.0,246.5,332.5,246.5,341.0,246.0,349.0,245.5,357.0,244.5,364.5,243.5,372.0,243.0,379.5,242.5,388.0,242.0,396.0,242.0" stroke="black" stroke-width="2" fill="none" />
<polyline points="388.0,224.0,380.5,224.0,372.5,224.5,364.5,224.5,356.0,225.5,348.0,226.0,339.5,226.0,332.0,226.5,324.0,227.0,316.0,227.5,308.0,228.0,299.5,228.5,291.0,229.0,283.0,229.0,275.0,229.0" stroke="black" stroke-width="2" fill="none" />
<polyline points="275.5,233.5,267.5,235.5,259.5,238.5,251.0,241.0,243.0,243.5,235.0,246.5,227.5,249.5,219.5,251.5,211.5,252.5,203.5,254.5,195.5,257.5,187.5,261.0,185.5,266.5,186.5,262.0,209.0,254.0" stroke="black" stroke-width="2" fill="none" />
<polyline points="210.0,254.5,193.0,262.5,193.0,260.5,201.0,257.5,209.0,255.5" stroke="black" stroke-width="2" fill="none" />
<polyline points="211.5,265.0,206.0,266.0,204.5,271.5,213.0,271.5,216.5,273.0,224.5,270.0,232.5,267.5" stroke="black" stroke-width="2" fill="none" />
<polyline points="222.0,267.0,213.5,274.5,205.5,282.0,197.0,289.5,188.5,297.0,180.5,304.5,171.5,312.0,163.0,318.5,154.0,326.0,145.0,333.5" stroke="black" stroke-width="2" fill="none" />
<polyline points="139.0,337.0,147.0,329.5,155.5,321.5,163.0,314.5,171.0,306.5,179.0,298.0,186.5,290.0,194.0,282.0,201.5,274.5" stroke="black" stroke-width="2" fill="none" />
<polyline points="194.5,275.0,187.0,282.5,179.5,290.0,171.5,298.0,163.5,306.0,156.5,314.0,148.5,321.0,141.0,328.0,133.0,336.0" stroke="black" stroke-width="2" fill="none" />
<polyline points="124.0,348.0,116.0,355.5" stroke="black" stroke-width="2" fill="none" />
<polyline points="132.5,347.0,124.0,347.5,115.5,347.5,107.0,348.0,99.5,348.5,92.0,349.5" stroke="black" stroke-width="2" fill="none" />
<polyline points="74.5,359.0,82.5,358.0,90.5,357.0,98.5,355.5,106.5,355.0,114.5,354.0" stroke="black" stroke-width="2" fill="none" />
<polyline points="76.0,369.5,68.5,370.5" stroke="black" stroke-width="2" fill="none" />
<polyline points="67.5,366.0,76.0,365.5,84.5,365.0,92.5,364.5,101.0,364.0,109.5,363.5,117.5,363.0" stroke="black" stroke-width="2" fill="none" />
<polyline points="68.0,362.0,76.0,363.0,84.0,364.0,91.5,364.0,99.5,361.5,107.5,357.5,115.5,354.5,123.0,350.5,130.5,347.5,138.5,344.0,131.0,347.0,112.5,354.5,95.5,362.5,100.5,366.0,108.5,367.5,116.5,368.5,125.0,364.5,123.5,365.5,126.5,370.5,135.0,371.0,143.0,372.0,151.0,368.5,158.5,364.5,166.5,360.5,174.5,356.5" stroke="black" stroke-width="2" fill="none" />
<polyline points="177.5,388.0,170.0,388.5,162.0,388.5,154.5,389.0,147.0,389.5,139.0,390.5,131.5,391.0,124.0,391.5,116.0,391.5,108.0,391.0,100.0,391.5,92.5,392.0,84.5,392.5,76.5,393.0,68.5,393.5" stroke="black" stroke-width="2" fill="none" />
<polyline points="66.5,385.0,75.0,385.0,83.5,384.5,91.5,384.5,99.5,383.5,107.5,383.0,116.0,382.5,124.5,382.5,132.5,382.0,140.5,382.0,149.0,381.0,156.5,380.5,164.5,380.0,172.5,380.0,180.0,379.5" stroke="black" stroke-width="2" fill="none" />
<polyline points="111.0,432.5,102.5,432.0,94.0,430.0,86.0,428.0,78.0,427.0,70.5,425.0,67.5,420.0,66.5,412.5,65.0,404.5,64.0,396.5,63.5,388.5,62.0,380.5,61.0,372.5,60.0,364.0,69.0,356.5,88.0,348.5,108.0,340.5,108.0,341.0,100.5,344.5,92.5,347.5,84.5,350.0,76.5,353.0,69.0,356.5,61.0,359.5" stroke="black" stroke-width="2" fill="none" />
<polyline points="58.0,285.0,66.0,284.5,75.0,284.0,83.0,283.0,91.0,282.0,98.0,281.5,106.5,281.5,114.5,281.5,122.0,281.5,130.0,281.0,138.0,280.0,146.0,280.0,154.5,279.5,162.5,279.0,171.0,278.5,179.5,277.5,188.0,277.0,196.0,276.0,204.0,275.5,212.0,275.0,220.0,274.5,227.5,273.5,235.5,273.5,243.5,273.5,252.0,273.5,260.0,273.0,268.0,272.5,276.0,272.5,284.5,272.0,292.5,271.5,300.5,271.0,308.5,270.5,317.0,270.0,325.0,269.0,333.0,268.0,341.0,267.5,349.0,267.0,357.0,266.5,365.0,266.0,373.5,265.5,381.5,265.0,389.5,265.0,397.0,264.5" stroke="black" stroke-width="2" fill="none" />
<polyline points="396.0,256.0,388.0,256.5,379.5,256.5,371.5,256.5,363.5,257.0,356.0,258.0,348.0,258.5,340.0,259.0,331.5,259.5,323.0,260.5,314.5,261.0,306.5,262.0,298.5,262.5,290.5,263.0,282.5,263.5,274.5,264.0,267.0,264.5,259.0,265.0,251.5,266.0,243.5,266.5,236.0,267.0,228.5,268.0,220.5,268.5,212.0,269.0,204.5,269.5,197.0,269.5,189.0,269.5,180.5,269.0,172.5,269.5,164.5,269.0,157.0,269.5,148.5,269.5,140.5,269.0,132.5,269.5,124.5,270.5,116.5,272.0,108.0,273.0,100.0,274.0,92.0,275.0,84.0,276.0,76.0,276.0,68.0,276.5,61.0,277.0,53.0,278.0" stroke="black" stroke-width="2" fill="none" />
<polyline points="51.5,270.5,59.5,269.5,67.5,269.0,75.5,268.5,83.0,267.5,90.5,267.0,99.5,266.5,108.0,266.0,116.5,265.0,125.5,264.5,133.5,264.0,141.5,263.5,149.5,263.0,157.0,262.5,164.5,261.5,172.5,261.0,180.0,261.5,187.5,261.0,195.5,261.0,203.0,261.0,211.0,261.0,219.0,260.5,227.0,260.0,235.0,259.5,242.5,259.0,250.0,258.0,258.5,257.5,266.5,256.5,275.0,255.5,283.0,254.5,291.0,254.5,298.5,254.0,306.5,253.5,314.0,253.5,322.0,252.5,330.5,251.5,338.5,252.0,346.5,251.5,355.0,251.0,363.0,250.0,371.0,249.5,379.5,248.5,387.5,248.5,396.0,248.0" stroke="black" stroke-width="2" fill="none" />
<polyline points="428.5,225.5,420.5,226.5,413.0,227.5,405.5,228.5,397.0,229.5,388.0,231.0,380.5,231.5,372.5,232.0,364.5,232.0,356.5,232.0,348.0,232.5,340.0,233.5,331.5,234.0,323.5,234.5,316.0,235.0,308.5,235.5,300.0,236.0,292.0,236.5,284.0,236.5,276.0,237.0,268.0,237.0" stroke="black" stroke-width="2" fill="none" />
<polyline points="275.5,242.0,284.0,234.5" stroke="black" stroke-width="2" fill="none" />
<polyline points="283.0,231.5,258.0,239.5,234.0,247.5,222.0,256.5,230.0,256.0,246.5,249.0,255.0,250.0,263.5,245.0,275.0,238.0" stroke="black" stroke-width="2" fill="none" />
<polyline points="290.0,234.5,298.0,233.5" stroke="black" stroke-width="2" fill="none" />
<polyline points="279.5,280.5,269.5,279.0,261.5,279.0,253.5,278.0,244.5,272.5,236.0,275.5,228.0,274.0,219.5,274.0" stroke="black" stroke-width="2" fill="none" />
<polyline points="189.0,229.5,181.0,231.5" stroke="black" stroke-width="2" fill="none" />
<polyline points="177.5,343.0,168.5,343.0,160.5,341.5,152.5,340.5,145.0,340.0,136.5,337.5,128.5,336.5,120.5,336.0,113.0,335.0,105.0,333.0,97.0,331.5,89.0,330.5,81.5,329.0,73.5,327.5,66.0,326.5,58.5,326.5,57.5,318.5,56.5,310.5,55.5,302.5,54.5,294.5,54.5,287.0,54.0,279.5,53.5,272.0,53.5,264.0,55.5,256.0" stroke="black" stroke-width="2" fill="none" />
<polyline points="137.0,456.5,133.0,458.5" stroke="black" stroke-width="2" fill="none" />
<polyline points="376.0,326.5,376.0,315.5,377.0,308.0,372.0,300.0,375.5,298.0,367.5,302.0" stroke="black" stroke-width="2" fill="none" />
<polyline points="421.0,361.5,420.5,369.5,411.5,367.5,411.5,375.5,411.5,384.0" stroke="black" stroke-width="2" fill="none" />
<polyline points="512.5,765.0,512.5,757.5,512.5,749.0,513.0,741.0,513.0,733.0,513.0,724.5,512.5,717.0,512.5,709.0,512.5,701.0,512.5,693.0,512.5,685.0,512.5,677.0,513.0,669.0,513.0,661.0,513.0,653.0,513.0,645.5,512.5,637.5,512.5,630.0,512.0,622.0,512.0,614.0,512.5,606.0,512.5,598.0,513.0,590.0,513.0,582.0,513.0,574.0,513.0,565.5,513.0,557.5,513.0,549.5,513.0,541.5,512.5,533.5,513.0,525.5,513.0,517.0,513.0,509.0,513.0,501.0,513.5,493.0,513.5,485.5,513.5,477.5,514.0,469.5,514.0,462.0,513.5,453.5,513.5,446.0,514.0,438.0,513.5,429.5,513.5,421.0,513.0,413.0,512.5,405.0,512.5,397.0,512.0,389.5,512.0,381.5,511.5,374.0,512.0,365.5,512.0,357.5,512.0,349.5,513.0,341.5,513.0,333.5,513.0,325.5,513.0,318.0,512.5,310.0,512.5,302.0,512.5,293.5,512.5,286.0,512.5,278.0,512.5,270.0,512.0,261.5,512.0,253.0,512.0,245.0,512.0,237.5,512.0,229.5,512.0,222.0,512.0,213.5,512.0,205.5,512.5,197.5,512.5,189.5,512.5,182.0,513.0,174.0,513.0,166.0,513.0,158.0,512.5,150.0,512.5,142.5,512.5,134.5,512.5,126.5,513.0,118.5,513.0,110.5,513.5,102.0,514.0,93.5,514.0,85.5,513.5,77.0,513.5,69.5,513.0,61.5,513.0,53.5,513.0,45.5,513.0,37.5,513.0,29.5,512.5,21.5,512.5,13.5,512.5,5.0,505.5,3.0,497.5,3.0,489.5,3.0,481.5,2.5,473.5,3.0,466.0,3.5,458.0,3.5,450.0,4.0,442.5,4.0,434.5,4.0,426.5,4.5,418.5,4.5,410.5,4.5,402.5,4.5,394.5,4.5,387.0,4.0,379.0,4.0,371.0,4.0,363.0,3.5,355.0,3.5,347.0,3.0,339.0,2.5,330.5,2.5,322.5,2.5,314.5,2.5,306.5,2.5,298.5,3.0,290.5,3.0,282.5,3.0,274.5,2.5,266.5,2.5,258.5,2.0,250.5,2.5,242.5,2.5,234.5,2.0,226.5,2.0,218.5,1.5,210.5,2.0,202.5,2.5,194.0,2.5,186.0,2.5,178.0,3.0,170.0,3.0,162.5,3.0,154.5,3.0,146.0,3.0,138.0,3.0,130.0,3.0,122.5,3.0,114.5,3.0,106.5,3.5,99.0,3.5,91.0,3.5,83.0,3.5,74.5,3.5,66.5,3.5,58.0,3.5,49.5,3.5,41.5,3.5,33.5,3.5,25.5,3.0,17.5,3.0,9.0,2.5,1.5,2.5" stroke="black" stroke-width="2" fill="none" />
</svg>