<svg xmlns="http://www.w3.org/2000/svg" version="1.1"><path d="M422.0,232.5,406.0,240.5,405.0,248.5,405.0,257.0,404.5,265.0,403.5,273.0,403.0,281.0,402.0,289.0,401.5,297.5,400.5,305.5,400.5,314.0,400.5,321.5,400.5,329.0,399.5,336.5,399.5,344.0,400.0,352.0,400.0,359.5,399.0,367.5,399.0,375.5,399.5,383.5,399.5,392.0,398.5,399.5,398.5,407.5,398.5,415.5,397.0,423.5,397.0,431.0,397.0,439.5,397.5,447.5,396.5,456.0,396.0,464.0,396.0,472.5,396.0,480.5,396.0,488.0,389.0,491.0" stroke="black" stroke-width="2" fill="none" />
<path d="M387.5,492.0,379.5,499.0,371.5,506.5,363.0,514.0,355.5,522.0" stroke="black" stroke-width="2" fill="none" />
<path d="M362.5,519.0,371.0,519.0" stroke="black" stroke-width="2" fill="none" />
<path d="M378.5,511.5,370.0,511.0,362.0,511.5" stroke="black" stroke-width="2" fill="none" />
<path d="M362.5,505.5,370.5,504.5,379.0,504.0" stroke="black" stroke-width="2" fill="none" />
<path d="M388.0,501.5,380.5,509.0,372.5,516.0,364.5,523.5,357.0,530.5" stroke="black" stroke-width="2" fill="none" />
<path d="M347.5,533.0,339.5,540.0,331.0,547.5,323.0,555.0,315.5,562.0,307.5,569.5,300.0,577.0" stroke="black" stroke-width="2" fill="none" />
<path d="M308.0,578.0,316.0,570.5,324.0,563.5,331.5,555.5,339.0,547.5,347.0,540.0" stroke="black" stroke-width="2" fill="none" />
<path d="M348.0,548.0,340.0,549.0,332.0,550.0,325.0,550.5,317.0,551.0" stroke="black" stroke-width="2" fill="none" />
<path d="M317.0,554.5,325.0,554.0,333.0,554.0,340.5,553.0" stroke="black" stroke-width="2" fill="none" />
<path d="M338.0,556.0,330.5,564.0,323.0,571.5,314.5,579.5" stroke="black" stroke-width="2" fill="none" />
<path d="M315.0,567.5,323.5,567.0" stroke="black" stroke-width="2" fill="none" />
<path d="M315.0,562.0,323.5,561.0,331.5,560.5" stroke="black" stroke-width="2" fill="none" />
<path d="M315.0,554.0,323.0,546.5,330.5,539.0,338.5,531.5,347.0,524.0" stroke="black" stroke-width="2" fill="none" />
<path d="M346.5,520.0,338.5,520.5,331.0,521.0,323.5,521.5,316.0,522.0" stroke="black" stroke-width="2" fill="none" />
<path d="M312.5,525.5,312.5,533.5,313.0,542.0,313.0,550.0,311.0,558.0,311.0,565.5,311.0,573.5" stroke="black" stroke-width="2" fill="none" />
<path d="M307.5,562.5,299.5,570.0" stroke="black" stroke-width="2" fill="none" />
<path d="M293.0,570.0,301.5,562.5,310.0,554.5" stroke="black" stroke-width="2" fill="none" />
<path d="M301.5,555.0,293.5,563.0,285.5,570.5" stroke="black" stroke-width="2" fill="none" />
<path d="M284.0,571.0,292.0,571.0,300.5,570.5,309.0,570.5,316.5,570.5,324.5,570.5" stroke="black" stroke-width="2" fill="none" />
<path d="M316.0,546.0,324.0,545.0,332.5,544.0,340.5,543.0" stroke="black" stroke-width="2" fill="none" />
<path d="M339.5,536.0,332.0,536.5,324.0,537.0,316.5,537.5" stroke="black" stroke-width="2" fill="none" />
<path d="M316.0,537.0,324.5,530.0,332.5,522.0,341.0,514.5,349.0,506.5" stroke="black" stroke-width="2" fill="none" />
<path d="M349.5,499.5,341.5,507.5,333.5,515.0,325.0,522.0,316.5,529.0,308.0,536.0" stroke="black" stroke-width="2" fill="none" />
<path d="M308.0,541.0,316.5,540.5,325.0,540.5,333.0,540.5,341.0,541.0,349.0,540.5" stroke="black" stroke-width="2" fill="none" />
<path d="M345.5,531.5,353.0,532.5,360.5,530.5,368.5,522.5,376.0,513.0" stroke="black" stroke-width="2" fill="none" />
<path d="M379.5,496.5,371.5,497.5,363.5,499.0" stroke="black" stroke-width="2" fill="none" />
<path d="M362.5,496.0,370.5,489.0,379.0,481.5,387.0,474.5" stroke="black" stroke-width="2" fill="none" />
<path d="M386.5,475.0,394.0,475.5" stroke="black" stroke-width="2" fill="none" />
<path d="M395.0,480.5,403.5,472.5,411.5,464.5,420.0,456.5" stroke="black" stroke-width="2" fill="none" />
<path d="M419.0,450.5,411.5,458.0,403.0,465.5,395.0,472.5" stroke="black" stroke-width="2" fill="none" />
<path d="M396.0,464.5,403.5,457.0,411.5,449.5,419.0,442.0" stroke="black" stroke-width="2" fill="none" />
<path d="M419.5,433.5,412.0,441.0,404.0,448.5" stroke="black" stroke-width="2" fill="none" />
<path d="M403.5,450.0,412.0,449.5,420.0,449.0" stroke="black" stroke-width="2" fill="none" />
<path d="M419.5,466.0,411.5,473.5,403.5,482.0" stroke="black" stroke-width="2" fill="none" />
<path d="M406.5,473.0,413.5,472.5" stroke="black" stroke-width="2" fill="none" />
<path d="M412.0,465.5,404.5,466.0" stroke="black" stroke-width="2" fill="none" />
<path d="M404.0,458.0,411.5,457.5,419.5,457.5" stroke="black" stroke-width="2" fill="none" />
<path d="M419.0,441.5,411.5,441.5,403.5,442.0" stroke="black" stroke-width="2" fill="none" />
<path d="M393.5,442.0,401.5,434.5,409.5,427.0,417.5,420.0" stroke="black" stroke-width="2" fill="none" />
<path d="M419.0,417.0,411.0,417.5" stroke="black" stroke-width="2" fill="none" />
<path d="M405.0,418.0,413.0,411.0,421.5,403.5" stroke="black" stroke-width="2" fill="none" />
<path d="M418.5,410.0,411.0,417.5,403.0,425.5" stroke="black" stroke-width="2" fill="none" />
<path d="M403.5,423.5,411.0,423.5,419.0,423.0" stroke="black" stroke-width="2" fill="none" />
<path d="M419.5,428.0,411.0,435.0,403.0,442.5,395.0,450.0" stroke="black" stroke-width="2" fill="none" />
<path d="M385.0,451.5,377.5,459.0,370.0,466.5,362.5,474.0,355.0,481.0" stroke="black" stroke-width="2" fill="none" />
<path d="M355.0,488.5,362.5,481.5,370.5,474.0,377.5,467.0,385.5,459.5" stroke="black" stroke-width="2" fill="none" />
<path d="M386.5,465.5,378.5,473.0,370.5,480.5,363.0,488.5,355.0,496.0" stroke="black" stroke-width="2" fill="none" />
<path d="M349.5,492.0,342.0,499.5,333.5,507.0,325.5,514.5,317.5,521.5,309.0,529.5" stroke="black" stroke-width="2" fill="none" />
<path d="M318.0,532.0,325.5,531.0,333.0,530.0,340.5,529.0" stroke="black" stroke-width="2" fill="none" />
<path d="M334.5,521.0,334.5,528.5,334.5,536.0,334.5,543.5" stroke="black" stroke-width="2" fill="none" />
<path d="M315.5,544.0,324.0,537.0,332.0,530.0,340.0,522.5,348.0,515.0" stroke="black" stroke-width="2" fill="none" />
<path d="M354.5,511.5,362.5,504.0,370.5,496.5,379.0,489.0,387.0,481.5" stroke="black" stroke-width="2" fill="none" />
<path d="M379.5,489.0,371.5,489.5,364.0,490.0" stroke="black" stroke-width="2" fill="none" />
<path d="M365.0,481.0,373.0,480.5,380.5,480.5" stroke="black" stroke-width="2" fill="none" />
<path d="M389.0,473.0,381.0,473.0,372.5,473.0,365.0,473.0" stroke="black" stroke-width="2" fill="none" />
<path d="M360.5,473.0,360.5,481.0,359.0,489.0,359.0,496.5,358.5,504.0,359.0,512.0,358.5,519.0,358.5,526.5" stroke="black" stroke-width="2" fill="none" />
<path d="M346.0,510.0,338.0,510.5,330.0,511.0,322.5,511.0,314.5,511.5" stroke="black" stroke-width="2" fill="none" />
<path d="M315.0,505.5,323.0,505.0,331.0,504.5,339.0,503.5,347.5,502.0" stroke="black" stroke-width="2" fill="none" />
<path d="M348.5,496.5,340.5,496.5,333.0,497.0,325.5,498.0,317.5,498.5" stroke="black" stroke-width="2" fill="none" />
<path d="M315.5,490.0,323.5,489.5,332.0,488.5,340.5,488.0,348.5,487.5" stroke="black" stroke-width="2" fill="none" />
<path d="M346.0,479.5,338.0,480.0,330.0,480.5,322.0,481.5,314.0,482.0,306.0,482.0,298.0,482.5" stroke="black" stroke-width="2" fill="none" />
<path d="M310.0,481.5,302.0,479.5,294.0,478.5,286.0,476.5,278.0,476.0,269.0,474.5,261.0,473.5" stroke="black" stroke-width="2" fill="none" />
<path d="M259.5,470.5,267.5,470.0,276.0,469.5,284.0,468.5,292.0,467.5,299.5,466.5,307.0,465.5,315.0,465.0,322.5,464.0,330.5,463.0,338.5,462.5,346.5,462.0,354.0,462.0,362.0,461.5,370.0,461.0,378.0,461.0,386.0,461.0,394.5,461.0,402.5,461.0,411.5,461.0,419.5,461.0" stroke="black" stroke-width="2" fill="none" />
<path d="M419.0,432.0,411.0,432.0,402.5,432.0" stroke="black" stroke-width="2" fill="none" />
<path d="M387.5,437.0,379.5,444.5,371.0,452.5,363.0,459.5,355.5,467.0,347.0,474.0,339.5,481.0,331.0,487.5,323.0,494.0,315.5,501.0,307.5,508.5,300.0,516.0,292.0,523.5" stroke="black" stroke-width="2" fill="none" />
<path d="M299.5,524.5,307.0,517.0,315.0,509.0,323.5,502.0,332.0,494.5,340.0,487.0,348.5,480.0,356.0,473.0,363.5,466.0,371.0,459.0,378.5,452.0,385.5,444.5" stroke="black" stroke-width="2" fill="none" />
<path d="M387.5,441.0,379.5,442.5,371.5,443.5" stroke="black" stroke-width="2" fill="none" />
<path d="M366.0,447.5,374.0,447.0,381.5,446.5,389.5,446.0" stroke="black" stroke-width="2" fill="none" />
<path d="M386.0,429.0,378.0,436.5,370.0,444.0,362.5,451.5,354.5,458.0,346.5,465.5,339.0,473.0,331.0,480.5,323.0,488.0,315.5,495.5,307.5,503.0,299.0,510.0,291.0,517.5,283.0,525.0" stroke="black" stroke-width="2" fill="none" />
<path d="M273.5,524.0,281.5,517.0,289.5,509.5,297.5,502.0,305.5,495.0,313.5,486.5,322.0,479.0,330.5,471.5,338.5,464.0,346.5,456.5,355.0,449.0,363.0,441.5,371.0,434.0,378.5,426.5,386.5,419.5" stroke="black" stroke-width="2" fill="none" />
<path d="M387.0,412.0,379.0,419.0,371.5,426.0,364.0,433.5,356.0,440.5,348.0,448.0,340.0,456.0,331.5,463.0,323.5,470.5,315.0,478.0,306.5,485.0,299.0,492.5,291.0,500.5,283.0,508.5,275.5,517.0,268.0,524.5" stroke="black" stroke-width="2" fill="none" />
<path d="M265.5,519.5,274.0,512.5,282.0,505.0,290.5,497.5,298.5,489.0,306.5,481.5,315.0,474.0,323.5,466.5,332.0,459.0,340.5,451.5,349.0,444.0" stroke="black" stroke-width="2" fill="none" />
<path d="M346.5,436.0,338.0,443.5,330.0,451.0,322.0,458.5,314.5,466.5,307.0,474.5,299.5,482.0,292.0,489.0,284.0,497.0,275.5,504.5,267.5,512.0,259.5,519.5" stroke="black" stroke-width="2" fill="none" />
<path d="M252.0,518.5,259.5,512.0,267.0,505.0,275.0,497.5,283.0,490.0,291.0,482.5,299.5,474.5,307.5,467.5,315.5,460.0,323.5,452.5" stroke="black" stroke-width="2" fill="none" />
<path d="M323.0,445.0,315.0,452.0,306.5,458.5,298.5,465.5,291.0,473.0,283.5,480.0,276.0,487.5,268.5,495.0,261.0,503.0" stroke="black" stroke-width="2" fill="none" />
<path d="M260.0,504.0,268.0,503.5,276.0,503.5,284.0,503.5,292.0,503.0" stroke="black" stroke-width="2" fill="none" />
<path d="M291.0,514.0,299.0,513.0,307.0,512.5" stroke="black" stroke-width="2" fill="none" />
<path d="M307.5,537.0,300.0,535.0,292.0,533.5,284.0,531.5,276.0,529.5,268.0,527.0,259.5,525.0,252.5,521.5,254.0,513.5,258.0,513.5,252.5,514.5,249.5,521.0,241.5,520.0,233.5,518.0,225.5,516.5,217.5,520.0,209.5,527.5,209.5,528.0,219.5,520.0,224.5,510.5,232.5,502.5,233.0,502.5,225.5,506.5" stroke="black" stroke-width="2" fill="none" />
<path d="M225.5,512.0,233.5,511.5,241.5,511.0,249.5,510.5" stroke="black" stroke-width="2" fill="none" />
<path d="M250.0,516.5,242.5,523.5" stroke="black" stroke-width="2" fill="none" />
<path d="M243.0,523.5,251.0,522.5" stroke="black" stroke-width="2" fill="none" />
<path d="M237.5,519.0,245.5,511.0,253.5,504.0,261.0,496.5,269.0,489.0,276.5,481.5,284.0,474.5,291.0,467.0,298.0,459.5,306.0,451.5,314.0,444.0" stroke="black" stroke-width="2" fill="none" />
<path d="M315.5,434.5,307.5,442.5,299.5,450.5,291.5,458.5,283.5,466.0,275.5,474.0,267.5,481.5,259.0,488.5" stroke="black" stroke-width="2" fill="none" />
<path d="M260.5,485.0,269.5,484.5,277.5,484.0,285.5,483.5,293.0,483.0,301.0,483.0,309.5,483.0,317.5,483.0,325.5,483.0,333.5,483.5,342.0,483.0,349.5,482.0,357.0,481.0,364.5,480.0,372.0,479.5,379.5,478.5,387.5,477.5,395.0,476.0,402.5,475.0,410.5,474.0" stroke="black" stroke-width="2" fill="none" />
<path d="M379.5,466.0,372.0,467.0,364.0,467.5" stroke="black" stroke-width="2" fill="none" />
<path d="M364.5,457.5,372.5,457.0,380.5,456.0" stroke="black" stroke-width="2" fill="none" />
<path d="M385.5,434.0,377.5,435.0,370.0,436.0" stroke="black" stroke-width="2" fill="none" />
<path d="M364.0,426.5,372.0,425.5,380.0,425.0,388.0,424.0" stroke="black" stroke-width="2" fill="none" />
<path d="M386.5,402.5,379.0,410.0,371.0,417.0,363.5,424.5" stroke="black" stroke-width="2" fill="none" />
<path d="M362.5,420.0,370.5,419.0,379.0,418.5,387.0,417.5" stroke="black" stroke-width="2" fill="none" />
<path d="M405.0,408.0,412.5,400.5,420.0,393.0" stroke="black" stroke-width="2" fill="none" />
<path d="M421.0,384.5,413.0,393.0,405.0,401.0" stroke="black" stroke-width="2" fill="none" />
<path d="M404.5,393.5,412.5,386.5,420.5,379.5" stroke="black" stroke-width="2" fill="none" />
<path d="M420.0,371.5,412.0,378.5,404.0,386.5" stroke="black" stroke-width="2" fill="none" />
<path d="M403.0,378.5,411.0,371.0,419.0,363.5" stroke="black" stroke-width="2" fill="none" />
<path d="M420.0,360.5,411.5,361.5,403.5,362.0" stroke="black" stroke-width="2" fill="none" />
<path d="M403.0,360.5,411.5,353.5,419.5,346.0" stroke="black" stroke-width="2" fill="none" />
<path d="M421.0,339.5,412.5,346.5,404.0,354.0" stroke="black" stroke-width="2" fill="none" />
<path d="M402.5,353.5,411.5,353.0,420.0,352.5" stroke="black" stroke-width="2" fill="none" />
<path d="M418.5,353.5,410.5,361.0,402.5,369.5" stroke="black" stroke-width="2" fill="none" />
<path d="M406.5,367.0,411.5,364.5,406.5,372.5,406.5,381.0,406.5,389.0" stroke="black" stroke-width="2" fill="none" />
<path d="M388.5,395.0,380.0,402.0,371.5,409.5,363.0,417.5" stroke="black" stroke-width="2" fill="none" />
<path d="M362.0,411.5,370.5,410.5,379.0,410.0,387.0,409.5" stroke="black" stroke-width="2" fill="none" />
<path d="M387.5,387.5,379.0,395.5,371.5,402.0,364.0,409.0" stroke="black" stroke-width="2" fill="none" />
<path d="M364.5,402.5,372.5,401.5,381.0,401.0,388.5,400.5" stroke="black" stroke-width="2" fill="none" />
<path d="M387.5,379.5,379.0,387.0,371.0,394.0,363.5,401.5" stroke="black" stroke-width="2" fill="none" />
<path d="M364.5,393.5,372.5,393.0,380.0,392.5,387.5,392.0" stroke="black" stroke-width="2" fill="none" />
<path d="M385.5,371.0,377.5,378.5,369.5,386.0,361.5,393.0" stroke="black" stroke-width="2" fill="none" />
<path d="M362.0,385.0,370.0,377.5,378.0,370.5,385.5,362.5" stroke="black" stroke-width="2" fill="none" />
<path d="M387.5,359.5,379.5,360.0" stroke="black" stroke-width="2" fill="none" />
<path d="M380.0,354.0,387.5,353.5" stroke="black" stroke-width="2" fill="none" />
<path d="M386.0,354.5,378.5,362.0,370.0,369.0,362.0,376.5" stroke="black" stroke-width="2" fill="none" />
<path d="M365.0,378.0,372.5,377.0,380.0,376.0" stroke="black" stroke-width="2" fill="none" />
<path d="M379.0,370.0,371.0,370.5" stroke="black" stroke-width="2" fill="none" />
<path d="M363.0,369.5,371.0,361.5,379.0,353.5,386.5,345.0" stroke="black" stroke-width="2" fill="none" />
<path d="M387.0,339.0,379.0,346.5,371.0,353.5,363.5,361.0" stroke="black" stroke-width="2" fill="none" />
<path d="M363.5,354.5,371.5,346.5,379.0,338.5,387.0,330.5" stroke="black" stroke-width="2" fill="none" />
<path d="M388.0,324.0,379.5,331.0,371.0,339.0,362.5,346.5" stroke="black" stroke-width="2" fill="none" />
<path d="M363.0,339.5,371.0,332.0,379.5,324.0,387.0,316.5" stroke="black" stroke-width="2" fill="none" />
<path d="M389.5,310.0,381.5,317.0,373.5,324.0,365.0,331.5" stroke="black" stroke-width="2" fill="none" />
<path d="M364.0,323.0,371.5,315.0,380.0,307.5,387.5,300.0" stroke="black" stroke-width="2" fill="none" />
<path d="M401.5,301.5,410.0,301.5,418.5,301.5,427.0,301.0" stroke="black" stroke-width="2" fill="none" />
<path d="M428.0,299.5,419.5,307.5,411.5,315.0,403.5,322.5" stroke="black" stroke-width="2" fill="none" />
<path d="M404.5,319.0,412.0,318.0,419.5,317.0,427.5,316.5" stroke="black" stroke-width="2" fill="none" />
<path d="M422.0,315.5,413.5,323.0,405.0,330.5" stroke="black" stroke-width="2" fill="none" />
<path d="M404.0,332.5,412.0,332.0,420.0,332.0,427.5,332.0" stroke="black" stroke-width="2" fill="none" />
<path d="M421.0,331.0,413.0,338.5,404.5,345.5" stroke="black" stroke-width="2" fill="none" />
<path d="M403.5,349.0,412.0,348.5,420.0,348.5,428.0,348.5" stroke="black" stroke-width="2" fill="none" />
<path d="M419.5,345.0,411.5,345.0" stroke="black" stroke-width="2" fill="none" />
<path d="M405.5,338.5,414.0,331.0,422.0,324.0" stroke="black" stroke-width="2" fill="none" />
<path d="M420.0,311.5,412.0,312.0" stroke="black" stroke-width="2" fill="none" />
<path d="M403.5,316.0,412.0,309.0,419.5,301.5" stroke="black" stroke-width="2" fill="none" />
<path d="M420.5,292.0,413.0,299.5,405.0,307.0" stroke="black" stroke-width="2" fill="none" />
<path d="M401.0,310.0,409.0,309.5,418.0,309.0,426.5,308.0" stroke="black" stroke-width="2" fill="none" />
<path d="M404.5,299.0,412.5,292.0,421.0,285.5,429.0,278.5" stroke="black" stroke-width="2" fill="none" />
<path d="M427.0,285.0,419.5,285.5,411.5,286.0,404.0,286.5" stroke="black" stroke-width="2" fill="none" />
<path d="M403.5,290.0,411.5,282.5,420.0,275.0,428.0,267.5" stroke="black" stroke-width="2" fill="none" />
<path d="M426.0,259.0,418.0,266.5,411.0,273.5,403.5,280.5" stroke="black" stroke-width="2" fill="none" />
<path d="M401.5,278.5,409.5,278.0,417.5,277.5,425.5,277.0" stroke="black" stroke-width="2" fill="none" />
<path d="M419.5,278.0,419.5,286.0,421.5,294.0,414.0,300.5" stroke="black" stroke-width="2" fill="none" />
<path d="M403.0,295.0,411.0,294.5,419.5,293.5,427.5,292.5" stroke="black" stroke-width="2" fill="none" />
<path d="M419.5,281.5,411.0,281.5" stroke="black" stroke-width="2" fill="none" />
<path d="M413.0,282.5,421.0,275.0,413.5,282.5,413.5,290.5,412.0,298.5,413.5,306.5" stroke="black" stroke-width="2" fill="none" />
<path d="M405.0,326.0,413.0,325.5,421.0,325.0,429.0,324.5" stroke="black" stroke-width="2" fill="none" />
<path d="M427.5,339.5,419.5,340.0,411.0,340.5,402.5,341.5" stroke="black" stroke-width="2" fill="none" />
<path d="M388.0,345.5,380.5,346.0,372.0,346.0" stroke="black" stroke-width="2" fill="none" />
<path d="M373.0,336.5,380.5,336.0,388.5,335.5" stroke="black" stroke-width="2" fill="none" />
<path d="M380.0,319.0,372.5,319.5" stroke="black" stroke-width="2" fill="none" />
<path d="M364.5,315.0,372.5,314.5,380.5,313.5" stroke="black" stroke-width="2" fill="none" />
<path d="M394.5,315.0,386.0,315.0,378.0,315.0,370.0,315.0,362.0,315.5,354.0,316.0,346.5,316.0,338.5,316.5,330.5,317.0,322.5,318.0,315.0,319.0,307.0,319.5,299.5,320.5,292.0,321.5,284.0,322.5,276.0,323.5,267.5,324.0,259.5,324.5,251.5,325.0,243.5,325.5,235.5,326.0,227.5,326.0,219.5,326.0,211.0,326.0,203.0,326.5,195.0,326.5,187.0,327.0,179.5,327.0,171.0,327.5,162.5,328.0,154.0,328.5,146.0,329.5,138.5,330.5,130.0,331.5,122.5,332.5,115.0,333.5,107.0,334.0,99.0,335.0" stroke="black" stroke-width="2" fill="none" />
<path d="M107.0,327.5,115.0,319.5,122.5,311.5,129.5,304.0,137.0,296.5,144.5,289.5,153.0,282.0,161.0,274.5" stroke="black" stroke-width="2" fill="none" />
<path d="M162.0,266.0,154.0,273.5,146.0,281.0,138.0,288.5,130.0,295.5,122.5,303.0,115.0,310.5,108.5,318.5,101.0,326.5" stroke="black" stroke-width="2" fill="none" />
<path d="M116.0,336.0,124.0,328.5,132.0,320.5,140.5,313.0,148.5,305.0,156.0,297.0,164.0,289.5,172.0,282.0,180.5,274.0,188.5,266.5" stroke="black" stroke-width="2" fill="none" />
<path d="M189.5,262.0,197.5,261.5,204.5,261.0,212.0,260.5,219.5,259.5,226.5,259.5,234.0,259.0,242.0,258.5,250.0,258.0,257.5,257.5,265.5,256.5,274.0,256.0,282.5,255.0,291.0,255.0,298.5,254.5,307.5,254.0,315.5,253.5,324.0,253.5,332.0,253.5,340.5,253.0,348.5,252.5,356.5,251.5,364.5,251.0,373.0,250.0,381.0,249.0,389.0,248.0,397.0,248.0" stroke="black" stroke-width="2" fill="none" />
<path d="M396.5,252.5,388.0,260.5,380.5,268.0,372.5,275.5,364.0,283.0" stroke="black" stroke-width="2" fill="none" />
<path d="M363.5,289.5,371.0,282.0,379.0,274.0,386.5,266.0,394.5,258.5" stroke="black" stroke-width="2" fill="none" />
<path d="M390.0,253.0,382.0,260.5,373.5,267.5,365.5,274.5" stroke="black" stroke-width="2" fill="none" />
<path d="M371.5,273.0,380.0,272.5,388.0,272.0" stroke="black" stroke-width="2" fill="none" />
<path d="M395.5,266.5,387.0,274.0,379.0,281.5,371.0,288.5,362.5,296.0" stroke="black" stroke-width="2" fill="none" />
<path d="M362.5,299.5,370.5,298.5,379.0,298.0,387.5,297.5" stroke="black" stroke-width="2" fill="none" />
<path d="M387.5,287.0,379.5,288.0,371.5,289.0" stroke="black" stroke-width="2" fill="none" />
<path d="M371.0,280.0,379.0,279.5,387.0,279.0" stroke="black" stroke-width="2" fill="none" />
<path d="M398.0,281.5,390.0,289.0,381.0,296.5,372.5,304.0,364.0,311.5" stroke="black" stroke-width="2" fill="none" />
<path d="M364.0,305.0,373.0,297.0,381.0,289.0,389.0,280.5,397.5,273.0" stroke="black" stroke-width="2" fill="none" />
<path d="M402.0,272.5,409.5,265.0,417.5,257.0,425.0,249.5" stroke="black" stroke-width="2" fill="none" />
<path d="M426.0,243.0,418.0,250.0,410.0,257.5,402.0,264.5" stroke="black" stroke-width="2" fill="none" />
<path d="M402.5,269.0,410.5,268.5,419.0,268.0,427.0,268.0" stroke="black" stroke-width="2" fill="none" />
<path d="M420.0,274.0,412.0,275.0" stroke="black" stroke-width="2" fill="none" />
<path d="M417.5,279.5,417.5,287.5,417.0,295.5,417.5,303.5" stroke="black" stroke-width="2" fill="none" />
<path d="M411.5,266.0,419.5,265.0,427.5,264.0" stroke="black" stroke-width="2" fill="none" />
<path d="M427.5,255.0,419.5,255.5,411.5,255.5" stroke="black" stroke-width="2" fill="none" />
<path d="M405.0,252.5,413.0,252.0,420.5,252.0,428.0,251.5" stroke="black" stroke-width="2" fill="none" />
<path d="M427.5,240.5,420.0,241.5" stroke="black" stroke-width="2" fill="none" />
<path d="M421.5,233.0,413.5,241.0,405.0,248.5" stroke="black" stroke-width="2" fill="none" />
<path d="M412.5,248.0,420.0,247.5,428.0,247.5" stroke="black" stroke-width="2" fill="none" />
<path d="M426.5,232.5,418.5,240.5,411.0,248.5,403.5,256.0" stroke="black" stroke-width="2" fill="none" />
<path d="M405.0,260.5,412.5,260.0,420.5,259.5,428.0,259.0" stroke="black" stroke-width="2" fill="none" />
<path d="M427.0,234.0,419.5,234.5,412.0,235.0,404.5,236.5,396.5,237.5,388.5,238.5,380.5,239.0,372.5,240.0,365.0,241.0,357.0,241.0,349.0,241.5,341.0,242.5,332.5,243.5,324.0,244.0,316.0,244.0,308.5,244.5,300.0,244.5,292.0,244.5,284.5,244.5,276.5,244.0,269.0,244.5" stroke="black" stroke-width="2" fill="none" />
<path d="M266.5,242.0,258.5,250.0,268.5,252.5" stroke="black" stroke-width="2" fill="none" />
<path d="M267.5,254.0,259.5,261.5,251.0,268.5,243.0,276.0,234.5,283.0,226.0,290.0,218.5,297.0,210.5,304.5,202.5,311.5,195.0,318.5,187.0,326.5,179.0,334.0,171.0,342.0" stroke="black" stroke-width="2" fill="none" />
<path d="M172.0,349.0,180.5,349.0,188.5,348.0,196.5,347.5,204.5,346.5,212.5,346.0,220.0,346.5,228.0,346.5,235.5,346.5,243.5,346.5,251.0,346.5,259.0,345.5,267.0,345.0,275.5,344.0,283.5,343.0,291.5,342.5,300.0,342.0,308.5,341.0,316.5,340.0,324.5,339.5,332.0,339.0,340.5,338.5,349.0,338.5,357.0,338.5,365.0,339.0,373.0,338.5,381.0,337.5,388.5,337.0,396.5,336.5" stroke="black" stroke-width="2" fill="none" />
<path d="M397.0,332.0,389.0,332.0,381.0,332.5,373.0,333.5,364.5,334.5,356.0,335.0,348.0,335.0,340.5,335.5,332.0,335.5,324.0,335.5,316.5,335.5,308.5,335.0,301.0,335.5,293.0,336.0,285.5,336.0,277.5,336.5,269.0,337.5,260.5,338.5,252.0,339.5,243.5,340.0,235.5,340.5,227.0,341.5,218.5,342.0" stroke="black" stroke-width="2" fill="none" />
<path d="M217.5,347.0,210.0,354.5,203.0,362.5,195.5,370.5" stroke="black" stroke-width="2" fill="none" />
<path d="M189.0,381.0,181.0,388.5,172.5,395.5,164.0,403.0,155.5,410.0,147.0,417.5,139.0,424.5,131.0,432.0,123.0,439.5,115.5,447.0,108.0,454.5,99.5,462.0,91.5,470.0,83.0,478.0,75.5,485.5" stroke="black" stroke-width="2" fill="none" />
<path d="M76.0,487.0,84.0,486.0,92.0,485.5,100.0,484.5,108.0,484.0,116.0,483.0,124.0,482.5,132.0,481.5,140.0,481.0,148.0,480.5,156.0,480.0,164.5,480.0,172.5,479.0,180.5,478.5,188.5,477.5,196.5,477.0,204.0,477.5,212.0,477.5,219.5,477.5,227.5,477.5,235.0,477.5,243.0,476.5,251.0,476.0" stroke="black" stroke-width="2" fill="none" />
<path d="M250.5,476.5,242.0,484.0,234.5,490.5,226.5,497.5,218.5,504.5,211.0,511.5,203.0,519.0,195.0,526.5,186.5,534.0,179.0,542.0" stroke="black" stroke-width="2" fill="none" />
<path d="M187.0,543.0,194.5,536.0,202.5,529.5,210.5,522.0,218.5,515.0,226.5,507.5,234.0,500.0,241.5,493.0,249.5,485.5" stroke="black" stroke-width="2" fill="none" />
<path d="M253.0,482.0,245.5,482.5" stroke="black" stroke-width="2" fill="none" />
<path d="M245.0,491.0,253.0,490.5" stroke="black" stroke-width="2" fill="none" />
<path d="M249.5,493.5,241.5,501.0,234.0,508.0,226.5,515.5,219.0,523.0,210.5,530.0,202.5,537.0,195.0,544.5" stroke="black" stroke-width="2" fill="none" />
<path d="M193.5,550.0,202.0,549.0,210.0,549.0,218.5,548.5,227.5,548.0,236.0,547.5,244.0,547.5,252.0,546.5,260.0,545.5,268.0,545.0,276.0,544.0,283.5,544.0,292.0,543.5,300.5,543.0" stroke="black" stroke-width="2" fill="none" />
<path d="M291.5,555.5,284.0,562.5,276.0,570.0" stroke="black" stroke-width="2" fill="none" />
<path d="M277.5,568.0,285.5,567.0" stroke="black" stroke-width="2" fill="none" />
<path d="M281.5,557.0,273.5,564.5,266.0,571.5" stroke="black" stroke-width="2" fill="none" />
<path d="M266.5,563.5,275.0,556.0,283.0,548.5" stroke="black" stroke-width="2" fill="none" />
<path d="M275.5,549.0,275.5,557.0" stroke="black" stroke-width="2" fill="none" />
<path d="M276.5,561.5,269.0,562.0" stroke="black" stroke-width="2" fill="none" />
<path d="M268.5,553.0,276.0,553.0" stroke="black" stroke-width="2" fill="none" />
<path d="M275.0,545.5,267.0,553.0,259.5,561.0" stroke="black" stroke-width="2" fill="none" />
<path d="M260.0,564.5,268.0,564.0,276.0,563.5,283.5,563.0,291.0,562.0,299.0,561.5,307.0,561.0,315.5,561.0,323.5,561.0,332.0,561.0" stroke="black" stroke-width="2" fill="none" />
<path d="M339.0,551.0,331.5,551.0,323.0,551.5,314.5,552.0,306.5,552.0,299.0,552.5,291.5,553.5,283.5,554.0,275.5,555.0,268.0,555.5,260.0,556.0,252.0,555.5,244.0,555.5,236.0,556.0,227.5,556.5" stroke="black" stroke-width="2" fill="none" />
<path d="M235.0,563.5,243.0,556.0,251.0,548.0" stroke="black" stroke-width="2" fill="none" />
<path d="M252.5,551.0,245.0,552.0,237.0,552.5,228.5,553.0,220.5,553.5,212.0,554.0" stroke="black" stroke-width="2" fill="none" />
<path d="M228.5,553.5,237.0,546.0,245.0,538.5" stroke="black" stroke-width="2" fill="none" />
<path d="M251.0,540.5,243.0,548.0,234.5,555.0" stroke="black" stroke-width="2" fill="none" />
<path d="M243.0,564.0,250.5,556.5" stroke="black" stroke-width="2" fill="none" />
<path d="M251.0,555.5,259.0,557.5" stroke="black" stroke-width="2" fill="none" />
<path d="M260.0,552.5,261.5,545.0,249.5,554.0" stroke="black" stroke-width="2" fill="none" />
<path d="M244.0,543.5,236.5,544.0,228.5,545.0,220.5,545.0,212.5,545.5,204.0,545.5,196.0,545.5,188.5,545.5" stroke="black" stroke-width="2" fill="none" />
<path d="M171.5,541.5,179.0,534.0,186.5,526.0,194.5,518.5,203.0,511.5,211.0,504.5,219.0,497.0,227.0,490.0,235.5,483.0,244.0,475.5,252.0,468.0" stroke="black" stroke-width="2" fill="none" />
<path d="M259.0,470.5,267.5,462.5,275.5,455.0,284.0,447.0,292.0,439.5,300.0,431.5,307.5,424.0,316.0,417.0,323.5,409.5,331.5,402.0,340.0,395.0,348.0,387.5" stroke="black" stroke-width="2" fill="none" />
<path d="M347.5,395.0,339.0,402.0,331.5,409.0,324.0,416.5,316.5,424.5,309.0,432.0,300.5,439.5,292.5,447.0,284.0,454.5,276.0,462.0,268.5,470.0" stroke="black" stroke-width="2" fill="none" />
<path d="M266.5,473.0,274.5,473.0,283.0,472.5,291.5,472.0,299.0,472.0,307.0,471.5,315.0,471.0,323.0,470.5,330.5,469.5,338.0,469.0,346.0,468.5,354.5,468.0" stroke="black" stroke-width="2" fill="none" />
<path d="M347.0,458.5,339.0,459.5,330.5,460.0,322.0,461.5,313.5,462.5,305.5,463.5,297.5,463.5,289.5,464.0,281.5,464.0,274.0,465.0,266.0,465.5" stroke="black" stroke-width="2" fill="none" />
<path d="M260.0,463.5,268.0,456.0,276.0,449.0,284.0,441.5,292.5,434.0,300.5,426.5" stroke="black" stroke-width="2" fill="none" />
<path d="M291.5,427.5,283.5,435.0,276.0,443.0,267.5,451.0,259.5,458.5" stroke="black" stroke-width="2" fill="none" />
<path d="M259.5,462.0,268.0,462.0,276.5,461.5,284.5,461.0,292.5,460.5,300.5,460.0,308.0,458.5,316.0,458.0,323.5,457.0,331.0,457.0,339.0,456.5,347.0,456.0,355.0,455.5,363.0,454.5,371.5,453.0,379.5,452.5,387.5,452.5,395.0,452.0,403.0,452.0,411.5,452.0,420.0,452.0" stroke="black" stroke-width="2" fill="none" />
<path d="M349.0,421.5,340.5,429.5" stroke="black" stroke-width="2" fill="none" />
<path d="M340.0,425.5,348.5,425.0" stroke="black" stroke-width="2" fill="none" />
<path d="M346.0,428.5,338.0,436.0" stroke="black" stroke-width="2" fill="none" />
<path d="M340.0,434.5,348.5,434.0" stroke="black" stroke-width="2" fill="none" />
<path d="M347.5,441.0,339.5,441.5" stroke="black" stroke-width="2" fill="none" />
<path d="M337.5,450.5,345.5,450.0" stroke="black" stroke-width="2" fill="none" />
<path d="M330.5,427.0,338.0,420.0,346.0,413.0" stroke="black" stroke-width="2" fill="none" />
<path d="M347.0,404.0,339.0,411.0,331.5,418.0,323.5,425.0" stroke="black" stroke-width="2" fill="none" />
<path d="M323.0,425.5,315.5,426.0" stroke="black" stroke-width="2" fill="none" />
<path d="M314.5,430.0,322.5,425.0,331.0,417.5,325.0,424.5,326.5,432.5,327.0,440.5,330.0,448.5" stroke="black" stroke-width="2" fill="none" />
<path d="M313.5,448.0,312.5,440.0,314.5,432.0,313.5,424.0,313.5,416.0,313.0,408.0,313.0,400.0,313.0,392.0,313.0,384.0,313.0,376.5,313.0,368.5,313.5,360.5,313.5,352.5,313.0,344.0,314.0,336.0,314.5,328.0,330.5,319.5,337.0,316.5,329.0,322.0,321.0,326.0,313.0,329.5" stroke="black" stroke-width="2" fill="none" />
<path d="M308.0,321.0,316.0,321.0,324.0,320.5,332.0,320.5,340.0,320.5" stroke="black" stroke-width="2" fill="none" />
<path d="M336.0,321.5,335.0,329.5,328.5,334.0,331.5,333.0" stroke="black" stroke-width="2" fill="none" />
<path d="M332.0,339.0,340.0,338.5,348.0,338.5" stroke="black" stroke-width="2" fill="none" />
<path d="M345.5,338.0,337.5,345.5,330.0,353.5,322.0,361.0,314.5,369.0,306.5,376.0,299.0,384.0,290.5,392.0" stroke="black" stroke-width="2" fill="none" />
<path d="M291.0,398.5,299.0,391.0,307.0,383.0,315.0,375.5,322.5,369.0,330.5,361.5,338.0,354.0,346.0,346.5" stroke="black" stroke-width="2" fill="none" />
<path d="M347.0,353.5,339.0,360.5,331.5,368.0,323.5,375.5,315.5,383.0,307.0,390.5" stroke="black" stroke-width="2" fill="none" />
<path d="M315.5,393.5,323.0,393.0,331.0,392.0,339.0,391.5" stroke="black" stroke-width="2" fill="none" />
<path d="M347.0,380.0,339.5,387.5,332.0,395.0,323.5,402.0,315.0,410.0,307.0,417.5" stroke="black" stroke-width="2" fill="none" />
<path d="M305.0,409.0,313.0,401.5,321.5,394.0,329.5,386.0,337.0,378.5,345.0,371.0" stroke="black" stroke-width="2" fill="none" />
<path d="M347.0,362.5,339.5,369.5,331.0,377.0,323.0,384.5,315.5,393.0,307.0,401.0" stroke="black" stroke-width="2" fill="none" />
<path d="M316.0,400.5,324.0,400.0,331.5,399.5,339.5,399.0" stroke="black" stroke-width="2" fill="none" />
<path d="M340.5,415.0,332.0,415.0,323.5,415.0,315.5,415.0" stroke="black" stroke-width="2" fill="none" />
<path d="M315.5,408.0,323.5,408.0,332.0,408.0,340.5,407.0" stroke="black" stroke-width="2" fill="none" />
<path d="M334.0,419.5,333.5,427.5,333.5,435.0,334.0,443.5" stroke="black" stroke-width="2" fill="none" />
<path d="M347.0,453.0,339.0,453.0,331.5,453.5,323.5,454.0,315.5,454.0,308.0,454.5,299.5,455.0,291.5,456.0,284.0,457.0,276.0,457.5,268.5,458.0" stroke="black" stroke-width="2" fill="none" />
<path d="M258.5,450.5,266.5,443.5,274.5,437.0,282.5,429.5" stroke="black" stroke-width="2" fill="none" />
<path d="M281.5,420.0,273.5,427.5,266.0,435.0,257.5,442.5" stroke="black" stroke-width="2" fill="none" />
<path d="M249.5,442.0,241.5,449.0,233.5,456.5,225.5,464.5,218.5,472.0,210.5,479.5,203.5,487.0,196.0,495.0,188.5,503.0,181.0,511.0,173.5,518.0,165.5,526.0,157.5,533.5" stroke="black" stroke-width="2" fill="none" />
<path d="M155.5,538.5,163.5,537.5,171.0,537.0,179.5,536.0,188.0,535.0,196.5,534.0,204.5,534.0" stroke="black" stroke-width="2" fill="none" />
<path d="M211.5,532.5,219.5,535.5,227.0,537.5,235.0,538.0,242.5,540.0,250.0,542.0,254.0,545.5,250.0,553.5,260.0,564.5" stroke="black" stroke-width="2" fill="none" />
<path d="M259.5,545.5,267.5,545.5,275.5,547.5,283.5,549.0,292.0,551.0,300.5,553.5,308.5,555.5,315.0,561.0,315.0,569.0,315.0,577.0" stroke="black" stroke-width="2" fill="none" />
<path d="M284.0,535.0,275.5,535.5,268.0,536.0,260.5,536.5,252.5,536.5,244.0,537.0,236.0,537.5,227.5,538.0,219.0,538.0,211.0,537.5,203.0,537.5,195.5,538.0,187.5,539.5,179.0,540.5,171.5,541.5,163.0,542.0" stroke="black" stroke-width="2" fill="none" />
<path d="M149.0,532.0,157.5,524.5,166.0,517.0,174.0,509.5,181.5,501.5,189.0,494.0,196.5,486.5,204.5,479.0,212.5,471.0,220.5,463.5,228.0,456.0,236.0,448.5,243.5,441.0,251.0,432.5,258.5,424.5,266.5,416.5,274.5,408.5,282.5,401.0" stroke="black" stroke-width="2" fill="none" />
<path d="M282.0,394.5,273.5,402.0,265.0,409.5,257.0,417.5,249.5,425.5,242.0,433.5,234.5,441.0,227.0,448.5,219.5,456.5,212.0,464.0,204.5,472.0,196.0,479.5,188.0,487.0,180.5,494.5,172.5,501.5,164.0,508.5,156.5,516.5,148.5,524.5" stroke="black" stroke-width="2" fill="none" />
<path d="M164.5,532.5,173.0,525.0,180.5,517.5,188.0,510.5,196.0,503.0,203.5,495.0,211.5,487.5,219.0,480.5,227.0,473.5,235.0,466.5,242.5,459.5,250.5,452.0" stroke="black" stroke-width="2" fill="none" />
<path d="M253.0,448.5,245.5,449.0" stroke="black" stroke-width="2" fill="none" />
<path d="M252.5,450.0,244.0,450.5,236.0,450.5,228.5,451.0,221.0,451.5,213.0,452.5,204.5,453.0,195.5,454.0,187.5,455.0,179.0,455.5,170.5,456.5,162.5,457.5,154.5,458.0,146.5,459.0,138.5,459.5,131.0,460.0,123.5,460.5,116.5,461.0,109.0,461.0,101.0,461.0,93.0,461.0,85.0,462.0,77.0,462.5" stroke="black" stroke-width="2" fill="none" />
<path d="M75.5,465.0,84.0,457.5,92.0,450.0" stroke="black" stroke-width="2" fill="none" />
<path d="M93.5,447.5,101.5,447.5,109.0,446.5,117.0,446.0,124.5,445.0,131.5,444.0,139.5,443.5,147.5,442.5,155.0,442.0,162.0,441.5,169.5,441.0,178.0,440.0,186.0,440.0,194.5,439.5,203.5,439.0,212.0,438.5,220.0,438.5,228.0,437.5,236.0,436.5,244.0,436.0,252.0,435.0,259.5,435.0,268.0,434.5,276.5,434.0,284.5,433.5,293.0,433.0,301.5,433.0,310.0,432.5,318.0,432.0,326.0,432.0,333.5,431.5,341.5,431.0,349.0,430.0,356.5,429.5,364.5,429.5,372.0,428.5,380.0,427.5,388.5,427.0,396.5,426.0,405.0,425.5,413.0,425.0,421.0,424.5" stroke="black" stroke-width="2" fill="none" />
<path d="M381.0,383.5,373.5,383.5,365.5,384.0" stroke="black" stroke-width="2" fill="none" />
<path d="M348.0,354.5,339.5,355.0,332.0,355.0" stroke="black" stroke-width="2" fill="none" />
<path d="M330.5,347.0,322.5,347.0,322.0,350.0" stroke="black" stroke-width="2" fill="none" />
<path d="M316.0,345.0,324.5,345.0,333.0,344.0,341.0,343.5,349.0,343.0" stroke="black" stroke-width="2" fill="none" />
<path d="M345.5,332.0,337.5,339.5,330.5,347.0,323.0,354.5,315.0,362.0,307.0,369.5,299.0,377.0,291.5,385.0" stroke="black" stroke-width="2" fill="none" />
<path d="M269.5,385.0,277.0,377.0,285.0,369.0,293.0,361.0,301.5,353.5,310.0,346.0,318.0,338.5,325.5,330.5,333.0,323.0,340.5,315.5,348.5,308.0" stroke="black" stroke-width="2" fill="none" />
<path d="M348.5,301.0,340.0,308.5,332.0,316.0,324.5,323.5,316.5,330.5,308.0,337.5,300.5,345.5,292.5,353.5,284.5,361.0,276.0,368.0,267.5,375.0" stroke="black" stroke-width="2" fill="none" />
<path d="M266.5,365.0,274.5,357.5,282.5,350.5,290.0,343.0,298.0,335.5,305.5,328.5,314.0,321.0,322.5,313.0,331.0,305.5,339.0,298.0,347.0,290.5,354.5,283.0" stroke="black" stroke-width="2" fill="none" />
<path d="M345.5,285.0,337.5,292.5,330.0,300.0,322.5,307.5,316.0,315.0,309.0,322.5,301.5,330.5,294.0,338.0,286.0,345.0,278.0,352.5,270.0,360.0,262.0,367.5" stroke="black" stroke-width="2" fill="none" />
<path d="M260.0,358.5,268.0,351.5,276.0,344.0,283.5,336.0,291.0,328.5,298.5,321.0,306.0,314.0,314.0,306.5,322.5,298.5,331.0,291.5,339.5,283.5,347.5,276.0" stroke="black" stroke-width="2" fill="none" />
<path d="M347.0,265.0,339.0,273.0,331.0,281.0,323.0,289.0,315.0,297.0,306.5,305.5,298.5,313.0,290.5,320.0,282.5,327.5,274.5,335.5,266.5,343.0,258.5,351.0" stroke="black" stroke-width="2" fill="none" />
<path d="M252.5,355.0,244.5,362.5,236.5,370.5,228.0,378.0,220.0,386.0,211.5,393.5,203.0,401.5,194.5,408.5,185.5,416.0,177.5,424.0,169.5,432.0,161.5,439.5,154.0,446.5,146.5,454.0,138.5,461.0,130.5,468.0,122.5,475.5,115.0,482.5,107.0,489.5,98.5,497.0,90.0,504.5,82.0,512.0" stroke="black" stroke-width="2" fill="none" />
<path d="M84.0,514.5,91.5,514.0,99.0,513.0,107.0,512.5,115.0,512.0,123.0,511.5,131.0,511.0,139.5,510.0,148.0,509.5,156.0,509.5,164.5,508.5,172.0,508.5,180.0,508.5" stroke="black" stroke-width="2" fill="none" />
<path d="M184.5,507.0,184.5,510.5,185.0,518.5" stroke="black" stroke-width="2" fill="none" />
<path d="M195.5,521.5,203.0,521.0" stroke="black" stroke-width="2" fill="none" />
<path d="M203.5,513.5,195.0,514.0" stroke="black" stroke-width="2" fill="none" />
<path d="M196.5,524.0,189.0,524.5,181.0,525.5,172.5,526.0,163.5,527.0,155.5,528.0,147.0,528.5,138.5,529.5,130.5,530.5,122.5,531.0" stroke="black" stroke-width="2" fill="none" />
<path d="M122.5,525.5,130.5,518.5,138.0,511.5,146.5,503.5,154.5,496.5,162.5,489.0,170.0,481.0,177.5,473.5,185.5,466.0,193.5,458.0,201.5,450.0,209.5,442.0,217.0,434.5" stroke="black" stroke-width="2" fill="none" />
<path d="M225.5,426.0,233.5,419.0,241.5,411.5,249.5,404.0" stroke="black" stroke-width="2" fill="none" />
<path d="M247.5,403.5,255.5,403.0" stroke="black" stroke-width="2" fill="none" />
<path d="M259.5,399.0,267.0,391.5,275.5,384.0,284.0,376.5,292.5,369.0,301.0,361.5,309.5,354.0,316.5,346.5,324.0,339.0,332.0,331.5,340.0,324.5,348.0,317.0" stroke="black" stroke-width="2" fill="none" />
<path d="M347.0,325.0,339.0,332.0,331.0,339.5,323.0,347.0,315.0,354.5,307.0,362.0,299.5,369.5,291.5,376.5,283.5,384.0,276.0,391.0,268.0,399.0,259.5,406.0,251.0,414.0,242.5,421.5,234.5,428.5,226.5,435.5,219.0,443.5,212.0,451.0,204.5,458.5,197.5,466.0" stroke="black" stroke-width="2" fill="none" />
<path d="M203.5,469.5,203.0,473.5,203.0,481.5,202.5,489.5,203.5,497.5,204.5,505.5,203.5,513.5,204.0,520.0,201.5,528.0,206.5,536.5,206.5,544.0" stroke="black" stroke-width="2" fill="none" />
<path d="M219.5,554.5,228.5,547.0,237.0,539.5" stroke="black" stroke-width="2" fill="none" />
<path d="M230.0,533.5,221.5,541.0,213.5,548.5,205.5,556.0" stroke="black" stroke-width="2" fill="none" />
<path d="M212.0,554.0,220.0,546.0,227.5,538.5" stroke="black" stroke-width="2" fill="none" />
<path d="M218.5,531.0,210.5,538.0,203.0,545.0" stroke="black" stroke-width="2" fill="none" />
<path d="M226.5,523.0,234.5,515.0,242.5,507.5,250.5,500.0" stroke="black" stroke-width="2" fill="none" />
<path d="M252.5,497.5,244.0,498.0" stroke="black" stroke-width="2" fill="none" />
<path d="M236.0,504.5,244.0,504.5,252.5,504.0" stroke="black" stroke-width="2" fill="none" />
<path d="M261.0,478.0,268.5,477.0,276.5,476.5,284.5,475.5,292.5,475.0,301.0,474.0,308.5,473.5,316.5,473.5,324.5,473.5,332.5,473.5,340.0,473.0,347.5,472.5,355.0,472.0,362.5,471.5,370.5,471.0,378.5,470.5,386.0,469.5,394.0,469.0,402.5,468.5,410.5,468.0" stroke="black" stroke-width="2" fill="none" />
<path d="M371.5,509.5,363.5,509.5,355.5,510.0,347.0,511.0,339.0,511.0,331.5,511.5,323.5,512.0,315.5,512.0,308.0,512.5,299.5,513.0,291.5,514.0,284.0,515.0,276.0,515.5,268.5,516.0,260.0,517.0,251.5,517.0,243.0,517.0,235.0,517.0,227.0,517.0,219.0,518.0,211.0,518.5,202.5,519.5,194.5,520.0,186.5,521.0,178.5,521.0,171.0,521.0,163.5,521.0,155.5,521.5,147.5,522.0,140.0,522.5,132.0,523.0,123.5,524.0,115.0,524.5,106.5,525.0" stroke="black" stroke-width="2" fill="none" />
<path d="M113.0,520.0,121.5,512.5,130.0,505.0,139.0,498.0,147.5,490.5,155.5,483.0,163.0,475.5,171.0,468.0,179.0,461.0,187.5,453.5" stroke="black" stroke-width="2" fill="none" />
<path d="M188.5,444.0,180.5,451.5,172.5,459.0,164.0,467.0,156.0,475.0,148.0,482.5,139.0,490.0,130.0,497.5,121.5,504.5,113.5,511.5,105.5,519.0" stroke="black" stroke-width="2" fill="none" />
<path d="M99.0,520.0,107.0,519.5,115.0,519.0,123.5,519.0,131.5,519.0,140.0,518.5,148.5,518.5,157.0,518.5,165.0,517.5,173.5,516.5,181.5,516.0" stroke="black" stroke-width="2" fill="none" />
<path d="M186.5,523.5,186.0,515.5,185.0,507.5" stroke="black" stroke-width="2" fill="none" />
<path d="M206.0,500.0,197.5,500.0,190.0,500.0,181.5,500.5,173.5,501.0,165.5,501.5,157.5,502.0,149.0,502.0,141.0,502.0,132.5,502.0,125.0,502.5,117.0,502.5,109.0,503.5,101.5,504.0,93.5,504.0,85.0,504.5" stroke="black" stroke-width="2" fill="none" />
<path d="M81.5,503.5,89.5,496.0,97.5,488.5,105.0,481.5,113.5,474.5,122.0,468.0,130.0,461.5,138.5,454.0,146.5,446.0,154.5,438.5,163.0,431.0,171.0,423.5,179.0,416.0,186.5,408.5,194.5,401.0,203.0,393.5,210.5,386.0,219.0,378.0,227.5,370.5,235.5,363.0,243.5,355.0,251.5,347.0" stroke="black" stroke-width="2" fill="none" />
<path d="M251.0,345.5,247.0,353.5" stroke="black" stroke-width="2" fill="none" />
<path d="M247.0,357.0,255.0,355.5" stroke="black" stroke-width="2" fill="none" />
<path d="M251.0,365.0,243.0,372.5,235.5,380.0,227.5,387.0,219.5,394.0,211.5,401.0,203.0,408.5,194.5,416.5,186.5,424.0,179.0,432.0,171.0,439.5,163.0,447.0,154.5,454.0,146.0,461.5,137.5,469.0,129.5,476.5,122.0,483.5,115.0,490.0,107.5,497.0,99.0,504.0,91.0,511.5" stroke="black" stroke-width="2" fill="none" />
<path d="M99.0,513.0,107.5,505.5,115.5,499.0,123.5,491.5,131.5,484.0,139.5,477.0,147.0,469.5,155.0,462.0,163.0,454.5,171.0,447.0,179.0,439.5,187.5,432.0,195.5,424.5,203.0,416.5,211.0,409.0,219.0,402.0,227.5,394.5,235.5,387.5,244.0,380.0,252.0,372.5" stroke="black" stroke-width="2" fill="none" />
<path d="M250.5,370.5,242.5,370.5,235.0,371.0,227.5,371.5,219.0,372.0,211.5,372.5,203.5,373.5,195.0,374.0,187.0,375.0,179.5,375.0,172.0,376.0,164.5,377.0,156.5,378.0,149.0,378.5,140.5,379.0,131.5,379.5,123.5,379.5,115.0,379.5,107.0,379.5,99.0,379.5,90.5,379.5,82.5,380.0,75.0,381.0,67.0,381.5" stroke="black" stroke-width="2" fill="none" />
<path d="M66.0,384.5,74.5,384.5,82.5,384.5,91.0,384.0,99.5,384.0,108.0,383.5,116.5,384.0,125.0,384.0,133.5,384.0,141.5,383.5,149.5,382.5,157.5,382.5,165.0,381.5,173.0,381.0,180.5,380.0" stroke="black" stroke-width="2" fill="none" />
<path d="M178.0,386.5,170.5,387.5,163.0,388.5,155.0,389.0,147.0,390.0,139.0,390.5,131.5,391.0,123.5,391.5,115.0,392.0,107.0,392.5,99.0,392.5,91.0,393.0,82.5,393.0,74.0,393.0,65.5,393.0" stroke="black" stroke-width="2" fill="none" />
<path d="M67.0,393.5,74.5,385.5,82.5,377.5,90.5,369.5,98.5,361.5" stroke="black" stroke-width="2" fill="none" />
<path d="M98.5,372.0,90.5,379.5,82.5,386.5,75.0,394.0,67.5,401.0" stroke="black" stroke-width="2" fill="none" />
<path d="M66.0,399.0,74.0,398.0,82.5,397.5,90.5,397.0,99.0,397.0,107.0,396.0,115.0,396.0,123.5,395.0,131.5,394.5,140.0,394.0,148.0,393.5,155.5,392.5,163.0,392.0,170.5,391.5,178.0,391.5,186.5,391.0,194.5,390.5,202.5,389.0,210.5,387.5,219.0,386.5,226.5,385.5,234.5,385.5,242.5,385.5,251.0,385.5" stroke="black" stroke-width="2" fill="none" />
<path d="M252.5,387.0,244.5,394.5,236.0,401.5,228.0,409.5,219.5,417.5,211.5,425.0,203.5,432.5" stroke="black" stroke-width="2" fill="none" />
<path d="M204.0,435.5,204.0,438.5,204.0,446.5,204.0,454.0" stroke="black" stroke-width="2" fill="none" />
<path d="M205.5,457.0,213.5,457.0,221.0,457.0" stroke="black" stroke-width="2" fill="none" />
<path d="M218.5,466.0,226.5,465.0,234.5,464.5,243.0,463.5,251.0,463.0" stroke="black" stroke-width="2" fill="none" />
<path d="M252.0,460.0,243.5,467.0,235.5,474.5,227.5,482.0,219.5,489.5,212.0,497.0,204.0,504.0,197.0,511.5,189.5,519.0,182.0,526.0,174.0,533.5" stroke="black" stroke-width="2" fill="none" />
<path d="M132.0,522.5,140.0,515.0,148.0,508.0,156.0,500.5,164.5,493.0,172.5,485.5,180.5,478.0,188.5,470.5,196.5,463.5,204.5,456.0,211.5,448.0,219.0,441.0,226.5,433.5,234.0,426.5,241.0,419.5,248.5,412.0" stroke="black" stroke-width="2" fill="none" />
<path d="M251.0,418.5,258.5,418.5" stroke="black" stroke-width="2" fill="none" />
<path d="M258.0,433.5,265.5,426.5,273.5,419.5,281.5,412.0" stroke="black" stroke-width="2" fill="none" />
<path d="M260.0,397.0,267.5,397.0,276.0,396.5,284.5,396.0,292.5,395.5,301.0,395.0,309.5,395.0,318.0,394.5,326.0,394.0,334.0,394.0,341.5,393.5,349.5,393.0,357.0,392.0,364.5,391.5,372.5,391.5,380.0,390.5,388.0,389.5,396.5,389.0,404.5,388.0,413.0,387.5,421.0,387.0" stroke="black" stroke-width="2" fill="none" />
<path d="M428.5,371.0,421.0,371.0,413.0,371.5,405.0,372.0,397.0,373.0,389.0,373.5,380.5,374.0,372.5,374.5,364.5,375.0,356.0,375.5,347.5,376.5,339.5,377.0,332.0,377.5,324.5,378.0,316.5,378.0,309.0,378.5,300.5,379.5,293.0,379.5,285.0,380.0,277.0,381.0,268.5,381.5,260.0,382.0" stroke="black" stroke-width="2" fill="none" />
<path d="M255.5,389.5,247.5,390.0" stroke="black" stroke-width="2" fill="none" />
<path d="M244.5,386.0,237.0,393.0,228.5,400.5,220.0,408.5,211.0,417.0,202.5,425.0,194.0,433.0" stroke="black" stroke-width="2" fill="none" />
<path d="M197.5,426.0,189.5,426.5" stroke="black" stroke-width="2" fill="none" />
<path d="M188.5,419.0,197.0,418.0" stroke="black" stroke-width="2" fill="none" />
<path d="M194.0,410.0,186.0,410.0" stroke="black" stroke-width="2" fill="none" />
<path d="M188.5,402.5,196.5,401.5" stroke="black" stroke-width="2" fill="none" />
<path d="M195.0,389.0,187.0,388.0" stroke="black" stroke-width="2" fill="none" />
<path d="M186.5,389.0,194.5,387.0,199.5,374.5,200.0,382.0,200.0,392.0,199.5,400.0,200.0,408.0,199.5,416.0,200.0,424.0,187.0,432.0,194.5,430.5" stroke="black" stroke-width="2" fill="none" />
<path d="M202.5,447.5,210.5,447.5,218.5,447.5" stroke="black" stroke-width="2" fill="none" />
<path d="M237.0,459.0,244.5,458.0,252.5,457.5" stroke="black" stroke-width="2" fill="none" />
<path d="M253.0,457.5,245.0,458.5,237.5,459.0,229.0,459.5,220.5,460.0,212.0,460.5,203.5,461.5,195.0,462.5,187.0,463.0,179.5,464.0,171.0,464.5,162.5,465.5,154.5,466.0,147.0,466.5,139.0,467.0,131.0,467.5,123.5,468.0,116.0,468.0,108.0,468.5,100.0,469.5,92.5,469.5,84.5,469.5,76.0,469.5" stroke="black" stroke-width="2" fill="none" />
<path d="M74.5,472.0,83.5,464.5,92.0,457.5,101.0,449.5,108.5,442.0" stroke="black" stroke-width="2" fill="none" />
<path d="M107.5,438.0,115.5,437.5,123.5,437.0,132.0,436.0,140.5,435.5,149.0,435.0,156.5,435.0,164.5,435.0,172.0,434.5,179.0,434.0,187.0,433.5,195.5,433.0,204.0,432.0,212.0,431.0,220.5,430.0,228.5,429.5,237.0,428.5,244.5,428.5,252.5,428.0,261.0,427.0,269.5,426.5,277.0,426.5,285.0,426.0,293.0,425.5,301.5,425.0,309.0,424.5,317.0,424.5,325.0,425.0,333.0,425.0,341.0,424.5,349.0,424.0,357.0,423.5,364.0,423.0,372.0,422.0,380.0,421.0,387.5,420.0,395.5,419.0,403.5,418.0,411.0,417.5,419.5,417.5" stroke="black" stroke-width="2" fill="none" />
<path d="M419.0,410.0,410.5,410.5,402.0,411.5,394.0,411.5,386.5,411.5,379.0,411.5,371.0,411.5,363.0,412.0,355.5,412.5,348.0,412.5,340.0,413.0,332.5,413.0,325.0,413.5,317.0,414.0,309.0,415.5,301.0,416.5,293.0,417.5,285.0,418.0,276.5,419.0,267.5,419.0,259.0,419.5,251.0,419.5,243.0,420.0,235.0,420.5,227.0,421.5,219.0,422.5,211.0,423.5,203.0,424.0,195.0,424.0,188.0,424.0,180.5,424.5,172.5,424.5,164.5,425.5,157.0,426.0,149.0,426.5,140.5,427.5,131.5,428.0,123.5,428.5,115.0,429.0,107.0,429.0,99.0,429.0,91.5,429.0,83.5,429.5" stroke="black" stroke-width="2" fill="none" />
<path d="M83.0,422.0,91.0,414.5,99.0,407.0,107.0,399.5,115.5,393.0,123.5,386.5,130.5,378.5,138.0,371.0" stroke="black" stroke-width="2" fill="none" />
<path d="M132.0,373.0,123.5,380.0,115.5,387.5,107.5,395.0,99.5,402.0,91.0,409.5,83.5,416.5,76.0,424.0" stroke="black" stroke-width="2" fill="none" />
<path d="M76.0,427.5,84.0,426.0,91.5,425.5,99.0,424.5,107.0,423.0,114.5,422.5,123.0,422.0,131.0,421.5,139.0,421.0,146.5,420.0,154.5,420.0,162.5,419.5,170.5,419.0,179.0,419.0" stroke="black" stroke-width="2" fill="none" />
<path d="M179.5,448.5,171.5,449.0" stroke="black" stroke-width="2" fill="none" />
<path d="M163.0,446.5,155.5,447.0,148.0,447.0,139.5,447.5,131.0,447.5,123.0,447.5,115.0,448.0,107.0,448.0" stroke="black" stroke-width="2" fill="none" />
<path d="M100.0,458.5,107.5,457.5,115.0,457.0,122.5,456.5,130.0,456.5,138.5,456.0,146.5,455.5" stroke="black" stroke-width="2" fill="none" />
<path d="M131.5,464.0,123.5,465.0,115.5,465.5,108.0,466.5,100.0,467.5,92.0,468.0" stroke="black" stroke-width="2" fill="none" />
<path d="M84.5,465.0,76.5,465.5" stroke="black" stroke-width="2" fill="none" />
<path d="M75.0,459.5,83.5,461.0,91.5,461.0,99.5,461.5,107.0,463.5,115.0,465.5,123.0,467.0" stroke="black" stroke-width="2" fill="none" />
<path d="M121.0,442.0,129.0,441.5,138.0,441.0,146.5,440.0,155.0,440.0,164.0,439.0,172.0,438.5,180.5,438.5" stroke="black" stroke-width="2" fill="none" />
<path d="M180.5,431.5,172.0,432.0,163.5,432.0,155.5,432.0,147.0,432.0,139.5,432.5,131.5,432.5,124.0,433.0,116.0,433.5,108.5,433.5" stroke="black" stroke-width="2" fill="none" />
<path d="M114.0,431.0,122.5,423.5,130.5,416.5,138.5,409.0,147.0,401.5,155.0,394.5,163.0,387.0,171.0,379.0,179.5,371.5,187.5,364.5,195.0,357.0,203.0,349.5" stroke="black" stroke-width="2" fill="none" />
<path d="M204.0,345.5,212.0,343.5,220.5,341.5,213.0,346.5,221.0,344.5" stroke="black" stroke-width="2" fill="none" />
<path d="M212.0,347.5,204.0,355.0,196.0,362.5,187.5,370.0,179.5,378.0,171.0,385.5,163.0,393.0,155.0,400.5,146.5,408.5,138.0,416.5,129.5,424.5,121.5,432.0,114.0,439.0,106.5,446.5,98.5,454.0,90.5,461.0,82.5,468.5,74.5,475.0" stroke="black" stroke-width="2" fill="none" />
<path d="M76.5,475.0,84.5,474.5,92.5,474.0,100.5,473.5,108.0,472.5,116.0,472.5,123.5,471.5,131.5,471.0" stroke="black" stroke-width="2" fill="none" />
<path d="M164.0,472.0,172.0,472.0,180.0,471.5,188.0,471.5,197.0,471.5,205.5,471.5,213.5,471.5,221.0,471.0,229.0,471.0,237.0,470.5,245.0,470.0,253.0,469.5" stroke="black" stroke-width="2" fill="none" />
<path d="M252.5,468.0,245.0,468.5,237.0,469.0,229.0,469.5,221.0,470.0,213.0,470.0,205.5,470.5,197.5,470.5,189.0,470.5,180.0,470.5,172.0,470.5,164.0,471.0,156.0,471.0,147.5,471.5,140.0,472.5,132.0,473.5,124.5,474.0,116.5,475.5,109.0,476.0,101.5,477.0,93.5,478.0,85.5,478.5,77.5,479.5" stroke="black" stroke-width="2" fill="none" />
<path d="M77.0,483.0,85.0,483.0,93.0,482.0,101.5,481.5,109.5,481.0,117.5,480.0,125.0,479.0,132.0,478.0,139.5,477.5,147.0,477.5,155.0,477.0" stroke="black" stroke-width="2" fill="none" />
<path d="M169.0,465.5,177.5,465.0,185.5,465.0,194.0,465.0,203.0,464.5,211.5,464.0" stroke="black" stroke-width="2" fill="none" />
<path d="M204.0,471.0,205.5,479.0" stroke="black" stroke-width="2" fill="none" />
<path d="M204.5,491.0,196.5,491.0,188.5,491.5,180.5,492.0,173.0,493.0,164.5,494.0,157.0,495.0,148.5,495.5,140.0,495.5,132.0,495.5,124.0,495.5,116.0,496.0,108.0,496.0,100.5,496.0,93.0,496.5,84.5,496.5" stroke="black" stroke-width="2" fill="none" />
<path d="M84.0,489.5,92.0,482.0,99.0,475.0,107.0,468.0,115.0,461.0,123.5,454.0,131.0,446.5,138.5,439.5,146.5,432.0,153.5,425.0,161.5,417.5,170.0,410.0,179.0,402.5,187.5,394.5,195.5,386.5,204.0,379.0,212.5,372.0,221.0,365.0,229.5,358.0,237.5,350.5,245.5,342.5,253.5,335.0,261.5,328.0,269.0,320.5,276.0,313.0,283.5,305.5,291.5,298.0,300.0,290.0,308.0,282.0,315.5,275.0,323.5,267.5" stroke="black" stroke-width="2" fill="none" />
<path d="M331.5,268.5,324.0,276.0,316.0,283.5,307.5,290.5,299.5,298.0,291.5,305.5,283.5,312.5,275.5,320.0,267.5,327.5,259.5,336.0" stroke="black" stroke-width="2" fill="none" />
<path d="M259.0,343.5,267.5,336.0,275.5,328.5,283.5,321.0,291.0,313.5,298.5,306.0,307.0,298.5,315.0,291.0,323.0,283.0,331.0,275.0,339.0,267.5" stroke="black" stroke-width="2" fill="none" />
<path d="M339.0,267.0,328.0,275.5,335.0,272.5" stroke="black" stroke-width="2" fill="none" />
<path d="M338.5,258.5,347.0,250.5" stroke="black" stroke-width="2" fill="none" />
<path d="M339.0,251.5,330.5,259.0" stroke="black" stroke-width="2" fill="none" />
<path d="M330.5,254.0,322.5,261.5" stroke="black" stroke-width="2" fill="none" />
<path d="M315.0,266.5,306.5,274.0,298.5,281.5,290.0,289.0,281.5,297.0,273.5,305.0,265.5,312.5,257.5,320.5,250.0,328.0,242.5,335.5,234.5,343.0,226.0,350.5,218.0,358.0,210.0,365.5,202.5,373.5,195.0,381.5,187.5,389.0,180.0,396.0,172.0,404.0,163.5,411.5,155.5,419.0,147.5,426.5,139.0,434.5,131.0,441.5,123.5,449.0,115.0,456.0,107.5,463.0,99.0,469.5,91.0,476.0,83.5,483.0,75.5,490.5" stroke="black" stroke-width="2" fill="none" />
<path d="M76.5,494.0,84.5,493.5,92.5,493.5,100.0,492.5,108.0,491.5,115.5,490.5,123.5,490.0,131.5,489.5,139.0,489.0,147.5,488.5,155.5,488.0,163.5,487.5,171.5,487.0,179.0,486.5,187.0,486.0,195.0,485.5,203.5,485.0,211.5,485.0,220.0,485.0,228.0,484.5,235.5,484.0,243.5,483.5,251.5,482.5,259.5,482.0,267.5,481.0,275.5,481.0,284.0,480.0,292.0,480.0,300.0,479.5,308.0,479.0,316.0,478.0,324.5,478.0,333.0,477.0,341.0,476.5,349.0,476.0,357.0,475.5,364.5,475.5,372.5,475.0,380.0,474.5,388.5,474.5" stroke="black" stroke-width="2" fill="none" />
<path d="M381.0,500.5,372.5,501.0,364.5,501.0,355.5,501.5,347.0,502.0,339.0,502.5,331.0,502.5,323.5,503.0,315.0,503.5,306.5,504.0,298.5,504.0,290.0,504.5,282.0,505.5,274.0,505.5,266.0,506.0,258.5,506.5,250.5,507.5,242.5,508.0,234.5,509.0,227.0,509.0,219.0,509.0,210.5,509.5,202.5,510.0,194.5,510.5,187.5,511.0,179.5,511.5,171.5,512.5,163.0,513.0,155.5,513.0,147.5,513.5,139.5,514.5,131.5,515.0,123.5,516.0,115.5,517.0,107.5,517.5,99.5,518.5,91.5,519.5,83.5,520.0" stroke="black" stroke-width="2" fill="none" />
<path d="M76.5,509.0,84.5,508.5,92.5,508.0,100.5,508.0,108.5,508.0,116.0,507.5,123.5,507.0,131.5,506.5,140.0,505.5,148.5,504.5,157.0,504.0,164.5,503.5,172.0,503.5,179.5,503.5,186.5,503.0,194.0,502.0,202.5,501.5,210.5,501.0,218.5,500.0,226.5,499.5,235.0,499.0,243.0,498.5,251.0,498.5,259.0,498.5,268.0,498.0,276.5,497.5,285.0,497.0,293.5,496.5,301.5,496.0,310.5,495.0,318.5,494.5,326.5,494.0,334.0,494.0,342.0,494.0,350.0,493.5,357.5,492.5,365.5,492.0,372.5,491.5,380.5,491.0,388.5,490.5" stroke="black" stroke-width="2" fill="none" />
<path d="M389.5,480.5,381.5,481.5,373.5,482.5,365.5,484.0,357.5,484.5,349.5,485.0,341.5,485.0,333.0,485.5,325.0,486.0,316.5,486.0,308.5,487.0,300.5,488.0,292.5,488.5,284.5,489.0,276.5,489.5,268.5,490.0,259.5,491.0,251.0,492.0,242.5,492.5,235.0,492.5,226.5,493.0,218.5,493.5,210.5,494.0,203.0,494.5,195.5,495.0,187.0,495.5,178.0,496.0,169.5,496.0,161.5,496.0,153.0,496.5,145.5,497.0,138.0,497.0,130.5,497.5,123.5,498.0,115.5,498.0,108.0,499.0,100.0,499.0,92.0,499.5,84.0,500.0,75.5,500.0" stroke="black" stroke-width="2" fill="none" />
<path d="M81.5,488.0,89.5,487.5,97.5,487.5,106.0,487.5,114.5,487.5,122.5,487.5,130.5,487.0,139.0,487.0,146.5,486.5,154.0,486.0,162.0,485.0,170.0,485.0,178.5,484.5" stroke="black" stroke-width="2" fill="none" />
<path d="M180.5,480.5,173.0,481.0" stroke="black" stroke-width="2" fill="none" />
<path d="M185.5,484.5,177.5,491.5,170.0,499.0,162.5,506.5,154.5,514.0,146.0,521.0,137.5,528.0" stroke="black" stroke-width="2" fill="none" />
<path d="M130.0,534.5,138.0,534.0,147.0,533.5,155.5,532.5,163.5,531.5,172.5,530.5,180.0,530.0,188.0,529.0,196.5,529.0,204.5,528.5,212.5,528.0,220.0,527.5,228.5,527.0,237.0,526.5,245.5,526.0,253.0,525.5,261.5,524.5,270.0,523.5,278.0,523.0,285.5,522.5,293.5,522.0,301.5,521.0,309.5,521.0,317.0,520.5,324.5,520.5,332.0,520.5,340.0,520.0,348.0,519.5" stroke="black" stroke-width="2" fill="none" />
<path d="M333.0,517.5,333.0,525.0,333.0,533.5,333.5,541.5,334.5,549.5" stroke="black" stroke-width="2" fill="none" />
<path d="M341.5,548.0,334.0,557.0,326.5,565.0,318.5,573.0,310.0,580.5,302.0,578.0,294.0,576.0,286.0,574.0,278.0,572.0,270.5,570.0,262.5,567.0,254.0,564.5,246.0,562.5,238.0,561.0,230.0,559.0,222.0,557.5,214.0,555.0,206.0,553.5,198.5,551.5,190.5,549.0,182.5,547.0,174.0,544.5,166.0,541.0,158.5,539.0,150.5,537.0,142.5,535.0,134.5,533.0,126.5,531.0,118.5,528.0,110.5,526.0,102.5,524.0,94.5,522.0,86.5,520.0,78.5,515.5,78.0,511.5,77.0,503.0,76.5,495.0,75.0,487.0,75.5,479.0,74.5,471.0,73.5,463.0,73.5,455.5,87.0,447.5,102.5,439.5,108.0,433.5,99.5,432.0,91.5,430.0,83.5,429.0,75.5,427.0,68.5,424.5,67.5,416.5,67.5,409.0,66.5,401.0,65.0,393.0,64.0,385.5,62.5,377.5,62.5,369.5,61.0,362.0,78.0,353.5,98.5,346.0,118.0,339.0,110.5,342.0,102.5,345.0,94.5,347.5,86.5,352.0,78.5,354.5,70.5,357.0,62.5,361.0" stroke="black" stroke-width="2" fill="none" />
<path d="M66.5,362.0,74.5,363.5,82.5,366.0,90.5,367.0,98.5,363.0,106.5,359.0,114.0,356.0,122.0,352.0,130.0,349.0,137.5,345.0,145.5,342.0,153.5,343.0,162.0,343.5,170.0,344.5,178.0,343.5" stroke="black" stroke-width="2" fill="none" />
<path d="M178.0,349.0,186.5,341.5,195.0,333.5,202.5,326.0,210.0,319.0,218.5,311.5,226.5,304.0,234.5,296.5,242.5,289.0,251.0,282.0,259.5,274.5,267.5,267.0,275.5,259.0" stroke="black" stroke-width="2" fill="none" />
<path d="M281.5,259.5,274.0,267.0,266.5,275.5,259.0,283.0,251.0,290.5" stroke="black" stroke-width="2" fill="none" />
<path d="M252.5,288.5,244.5,289.5,236.5,290.0,228.5,291.0,220.0,291.0,212.0,291.5,204.0,292.0,196.0,292.5,188.0,293.5,180.0,294.0,172.0,295.0,164.0,295.5,156.0,296.5,148.0,297.0,140.0,298.0,132.0,298.5,124.0,299.0,116.0,299.5,108.5,300.0,100.0,300.5,91.5,300.5,83.5,300.5,75.0,300.5,66.5,300.5,58.5,301.0" stroke="black" stroke-width="2" fill="none" />
<path d="M59.0,298.0,67.0,290.0,75.0,282.0,83.0,274.0,91.0,267.0" stroke="black" stroke-width="2" fill="none" />
<path d="M86.5,262.0,94.5,262.0,102.5,262.5,110.5,263.5,118.5,264.5,126.5,265.0,134.5,265.0,142.5,266.0,150.5,267.0,158.5,268.0,166.5,268.0,174.5,268.0,182.5,265.0,190.5,262.0,198.5,258.5,207.0,254.5,198.5,259.0,182.5,268.5,190.0,265.5,198.0,263.0,206.0,260.5,214.0,265.0,222.0,264.0,230.0,261.0" stroke="black" stroke-width="2" fill="none" />
<path d="M227.5,266.0,219.5,273.5,212.0,281.0,203.5,289.5,194.5,297.5,186.5,305.0,178.5,313.0,171.0,320.5,163.0,328.0,155.0,335.5" stroke="black" stroke-width="2" fill="none" />
<path d="M162.5,343.0,170.0,335.5,178.5,328.0,187.0,320.0,195.5,312.0,203.5,304.0,211.5,296.5,219.5,289.0,228.0,281.5,236.0,274.0" stroke="black" stroke-width="2" fill="none" />
<path d="M229.0,275.0,221.0,283.0,213.0,291.0,204.5,299.0,196.5,306.5,188.5,314.5,180.0,322.0,171.5,330.0,163.5,337.0" stroke="black" stroke-width="2" fill="none" />
<path d="M175.0,328.5,175.5,336.5,175.0,344.0,176.0,352.0,168.5,360.5,152.5,368.5,146.5,376.5,155.0,377.0" stroke="black" stroke-width="2" fill="none" />
<path d="M156.0,370.0,148.0,377.5,139.5,384.5,131.5,391.5,123.5,399.0,116.0,406.0,108.5,414.0,101.0,422.0" stroke="black" stroke-width="2" fill="none" />
<path d="M107.5,430.0,116.0,422.5,124.0,415.0,132.0,407.5,140.0,400.0,148.0,393.0,156.0,386.5,164.0,379.5,172.5,372.0,181.0,364.0,189.0,356.0,197.0,348.5,205.0,340.5" stroke="black" stroke-width="2" fill="none" />
<path d="M209.5,334.0,201.5,334.5,193.5,335.0,186.0,335.5,178.5,335.5,170.5,335.5,162.0,335.5,153.5,336.0,146.0,336.5,138.5,337.0,130.5,338.0,122.5,338.5,114.5,339.5" stroke="black" stroke-width="2" fill="none" />
<path d="M115.0,347.5,106.5,354.5" stroke="black" stroke-width="2" fill="none" />
<path d="M107.0,347.0,99.0,355.0,91.0,363.5,83.5,371.0,76.0,378.5,68.5,386.0" stroke="black" stroke-width="2" fill="none" />
<path d="M67.0,389.0,74.5,388.5,82.5,388.5,91.0,388.5,99.0,388.5,107.5,388.5,115.5,388.5,124.0,388.0,132.0,387.5,140.0,387.0,148.0,387.0,156.0,386.5,164.0,385.5,171.5,384.5,179.5,384.0,187.5,383.0,195.0,382.0,202.5,381.0,210.0,379.5,218.5,378.5,226.5,378.0,234.5,377.5,243.0,378.0,251.0,378.0,259.5,378.0,268.0,378.0,276.0,377.5,284.0,377.0,292.0,376.0,299.5,375.5,307.5,375.0,316.0,375.0,324.5,374.5,332.5,374.0,340.5,373.5,348.5,373.0,356.0,371.5,364.0,371.0,371.5,370.0,379.0,370.0,387.0,369.5,395.0,369.0,403.0,368.5,411.0,367.5,419.5,366.0" stroke="black" stroke-width="2" fill="none" />
<path d="M417.5,372.0,418.0,364.0,412.0,359.0" stroke="black" stroke-width="2" fill="none" />
<path d="M411.0,364.5,416.0,366.5,414.0,374.0,414.0,382.0" stroke="black" stroke-width="2" fill="none" />
<path d="M419.5,391.5,411.5,392.0,404.0,392.5,396.0,393.0,388.5,393.5,380.5,394.0,372.5,394.0,364.5,394.5,356.0,395.0,347.5,395.5,340.0,396.0,332.0,396.5,324.0,396.5,316.0,396.5,308.0,397.0,300.0,397.5,292.5,398.5,284.5,399.5,276.5,400.0,268.5,401.0,261.0,402.0,253.0,402.5,244.5,403.0,236.5,403.5,228.0,404.0,220.0,404.5,212.5,405.0,204.5,405.5,196.5,406.0,188.5,406.0,180.0,406.5,171.5,406.5,163.5,407.0,155.5,407.0,147.0,407.5,139.5,408.5,131.5,410.0,123.5,410.5,115.0,411.5,107.5,412.0,99.0,413.0,91.5,414.0,84.0,414.5,76.0,415.5,68.0,416.5" stroke="black" stroke-width="2" fill="none" />
<path d="M68.5,415.5,76.5,408.0,84.5,401.0,92.5,394.0,100.0,387.0,107.5,380.0,115.0,372.5" stroke="black" stroke-width="2" fill="none" />
<path d="M109.0,370.0,100.5,377.5,91.5,386.0,83.0,393.5,75.0,401.0,67.0,408.5" stroke="black" stroke-width="2" fill="none" />
<path d="M68.0,409.0,76.0,408.0,83.5,407.5,91.0,406.5,99.0,405.0,107.0,404.0,115.0,402.5,123.0,401.5,130.5,400.5,139.0,399.5,147.0,399.0,155.0,398.5,163.0,398.0,171.5,398.0,179.5,398.0,188.0,397.5,196.5,397.5,205.0,397.5,213.0,396.5,221.5,395.5,229.5,395.0,237.5,395.0,245.0,395.0,253.0,394.5,261.0,394.5,268.5,394.0,276.5,393.5,284.5,392.5,293.0,391.5,301.0,390.5,308.5,390.0,317.5,389.5,325.5,389.0,333.5,388.5,341.0,388.0,349.0,388.0,357.5,388.0,365.5,388.0,373.5,388.0,381.5,388.5,390.0,388.0,397.5,387.0,405.0,386.0,412.5,385.0,420.0,384.5" stroke="black" stroke-width="2" fill="none" />
<path d="M420.5,398.0,412.5,399.0,404.5,400.0,396.0,401.0,388.0,402.0,380.0,402.0,371.5,402.0,363.5,402.0,355.0,402.0,347.0,402.5,339.0,403.0,331.5,404.0,324.0,404.5,316.0,405.0,308.0,405.5,300.5,406.5,292.0,407.5,283.5,408.5,275.5,409.5,267.5,410.0,259.5,411.0,251.5,412.0,243.5,412.5,236.5,413.5,229.0,414.0,220.5,414.5,212.0,415.0,203.5,415.0,195.5,415.0,187.0,415.0,179.5,415.5,171.5,415.5,164.0,416.0,156.0,416.5,148.5,416.5,140.0,417.5,132.0,418.0,123.5,418.5,115.0,419.0,107.0,419.0,98.5,419.5,90.5,420.5,83.0,421.5,75.5,422.0,68.0,422.0" stroke="black" stroke-width="2" fill="none" />
<path d="M74.5,416.5,82.5,416.5,91.0,416.0,99.5,415.5,107.5,415.0,115.5,414.0,123.5,414.0,131.5,413.0,139.0,412.5,147.0,412.0,154.5,411.5,162.5,411.5,171.0,411.0,179.5,411.0" stroke="black" stroke-width="2" fill="none" />
<path d="M178.5,400.0,170.5,401.0,162.5,401.5,154.5,402.5,146.5,402.5,138.0,403.0,130.0,403.5,121.5,404.0,114.0,405.0,105.5,405.5,97.0,407.5,89.0,408.5,81.0,410.0,73.0,410.5" stroke="black" stroke-width="2" fill="none" />
<path d="M74.5,414.5,82.5,407.5,91.0,400.5,99.5,393.0,107.5,385.5,115.0,378.5,123.0,371.5" stroke="black" stroke-width="2" fill="none" />
<path d="M122.5,365.0,130.5,364.5,138.5,364.0,147.0,364.0,155.5,364.5,164.0,364.0,172.0,363.5,180.5,363.0,188.5,363.0,196.5,363.0,205.0,362.5,213.0,362.0,220.5,361.5,228.0,360.5,235.5,359.5,244.0,359.0,252.0,358.0,260.0,357.5,268.0,356.5,276.5,356.0,284.5,355.0,292.0,355.0,300.0,354.5,307.5,354.5,315.5,354.5,323.5,354.0,331.0,354.0,339.5,354.0,348.0,353.5,356.0,352.5,364.0,352.0,372.0,351.5,380.0,351.5,388.0,350.5,396.0,350.0,404.5,349.0,412.5,348.5,420.5,348.0" stroke="black" stroke-width="2" fill="none" />
<path d="M429.5,341.0,421.0,341.0,412.5,342.0,404.5,342.5,396.5,343.0,388.0,343.5,380.5,344.0,372.5,344.0,364.5,344.0,357.0,344.5,348.5,344.5,340.5,344.5,333.0,344.5,324.5,344.5,316.0,345.0,308.0,345.0,300.0,345.5,292.0,346.0,284.0,346.5,276.0,347.0,268.5,347.5,260.5,348.5,252.5,349.5,245.0,350.5,237.0,351.5,229.5,352.0,221.0,352.5,212.5,353.0,204.0,353.5,195.5,354.5,187.0,355.5,179.0,356.0,171.5,357.0,163.0,357.5,154.5,358.5,146.5,359.0" stroke="black" stroke-width="2" fill="none" />
<path d="M144.0,340.5,125.5,348.5,107.0,356.5,91.5,366.0,99.5,367.5,107.5,368.5,115.5,370.5,123.5,371.0,131.5,373.0,139.5,373.5,148.0,369.5,156.0,365.5,164.0,361.5,172.0,358.0" stroke="black" stroke-width="2" fill="none" />
<path d="M170.5,362.0,162.5,369.5,155.0,376.5,147.0,384.5,139.0,392.5,131.0,401.0,123.5,408.5,116.0,415.5,108.0,423.0,100.0,430.5" stroke="black" stroke-width="2" fill="none" />
<path d="M92.5,423.0,100.5,415.5,108.5,408.0,116.5,400.5,124.0,393.0,131.5,386.0,139.5,378.5" stroke="black" stroke-width="2" fill="none" />
<path d="M117.0,355.0,124.5,347.5" stroke="black" stroke-width="2" fill="none" />
<path d="M122.5,336.5,130.5,336.5,139.0,336.0,147.5,336.0,156.0,335.5,163.5,334.5,172.0,334.0,180.0,333.0" stroke="black" stroke-width="2" fill="none" />
<path d="M179.0,342.5,186.5,335.0,194.0,327.0,202.5,319.5,211.0,312.0,219.0,304.5,227.5,297.0,235.5,289.0,243.0,281.5,250.5,274.5,258.5,267.0,266.5,259.5,274.0,251.5" stroke="black" stroke-width="2" fill="none" />
<path d="M274.0,241.5,282.5,234.0" stroke="black" stroke-width="2" fill="none" />
<path d="M276.5,229.0,284.5,228.0,292.5,227.5,301.0,227.0,309.0,227.0,317.0,226.5,324.5,226.5,331.5,226.5,339.0,226.5,347.0,226.0,355.5,225.0,363.5,224.5,371.0,224.0,378.5,224.0,386.0,224.0" stroke="black" stroke-width="2" fill="none" />
<path d="M396.5,242.0,388.0,243.0,380.0,244.0,372.0,244.0,363.5,244.0,355.5,244.0,347.0,244.0,339.0,244.5,331.0,245.0,323.5,246.0,316.0,246.5,308.0,247.0,300.0,247.5,292.5,248.5,284.0,249.5,275.5,250.5,267.5,251.5,259.5,252.0,251.5,253.0,243.5,254.0,235.5,254.5,228.5,255.5,221.0,256.0" stroke="black" stroke-width="2" fill="none" />
<path d="M215.0,257.0,223.0,257.0,230.5,257.0,238.5,255.5,244.5,247.0,252.5,243.5,260.5,240.5,273.0,237.0" stroke="black" stroke-width="2" fill="none" />
<path d="M269.5,236.5,277.0,236.5,285.0,236.0,293.0,235.5,301.5,235.0,309.0,234.5,317.0,234.5,325.0,235.0,333.0,235.0,341.0,234.5,349.0,234.0,357.0,233.5,364.0,233.0,372.0,232.0,380.0,231.0,387.5,230.0,395.5,229.0,403.5,228.0,411.0,227.5,419.5,227.5,427.5,227.0" stroke="black" stroke-width="2" fill="none" />
<path d="M395.5,248.0,387.0,248.5,378.5,249.0,370.5,249.0,363.0,249.5,355.5,250.5,347.5,251.0,339.5,252.0,332.0,252.5,324.0,253.0,316.0,252.5,308.0,252.5,300.0,253.0,291.5,253.5,283.5,254.0,276.0,254.5,268.0,255.0,260.0,256.0,251.5,256.5,244.0,257.5,235.5,258.0,227.0,258.0,218.5,258.5,210.5,258.5,203.0,259.0,195.0,259.5,187.5,260.0,179.5,261.0,171.5,261.0,163.5,262.0,155.5,262.5,147.0,263.0,138.5,263.5,130.5,263.5,122.5,264.0,114.5,265.0,107.0,265.5,100.0,266.0,93.0,267.0,85.5,267.5,77.5,268.0,70.0,268.5,62.0,269.5,53.5,270.0" stroke="black" stroke-width="2" fill="none" />
<path d="M59.0,274.5,67.0,267.0,75.5,259.5" stroke="black" stroke-width="2" fill="none" />
<path d="M67.5,257.5,59.5,265.0" stroke="black" stroke-width="2" fill="none" />
<path d="M60.0,265.5,68.0,264.5" stroke="black" stroke-width="2" fill="none" />
<path d="M61.5,271.5,69.5,271.0,77.5,271.0,85.5,271.5,94.0,271.5,102.5,271.0,110.0,271.0,117.5,270.5,125.5,270.0,133.0,270.0,141.0,269.5" stroke="black" stroke-width="2" fill="none" />
<path d="M139.0,266.0,131.0,274.0,123.0,282.0,115.5,289.0,108.0,296.5,100.5,303.5,92.0,311.0,84.0,319.5,76.0,327.0" stroke="black" stroke-width="2" fill="none" />
<path d="M73.5,329.0,82.0,328.5,90.5,328.0,98.5,327.5,107.0,327.0,115.0,327.0,123.5,326.0,132.0,325.5,140.0,325.5,148.0,325.5,155.5,325.0,163.5,324.5,171.5,324.0,180.0,323.0,188.5,322.5,197.0,322.0" stroke="black" stroke-width="2" fill="none" />
<path d="M196.5,314.5,187.5,315.0,179.5,315.5,171.0,316.0,163.0,316.0,155.0,316.0,147.5,316.0,139.5,316.5,131.5,317.0,123.5,317.5,115.0,317.5,107.0,317.5,98.5,318.0,90.5,318.5,83.0,319.0,75.0,319.5,66.5,319.5,58.5,320.0" stroke="black" stroke-width="2" fill="none" />
<path d="M59.0,318.0,66.5,311.0,75.0,304.0,83.0,296.5,92.0,288.5,100.0,281.0,107.5,273.5,115.5,266.0" stroke="black" stroke-width="2" fill="none" />
<path d="M106.5,267.0,99.0,275.0,91.5,283.0,84.0,290.5,76.5,298.5,68.5,306.0,60.5,313.5" stroke="black" stroke-width="2" fill="none" />
<path d="M61.0,314.0,69.0,313.5,76.5,312.5,84.0,312.0,91.0,311.0,99.0,310.5,107.5,310.0,116.0,309.5,124.5,309.0,132.5,308.5,140.5,308.0,148.5,307.5,156.5,307.0,164.5,307.0,172.5,307.0,180.0,306.5,187.5,306.0,195.5,305.5" stroke="black" stroke-width="2" fill="none" />
<path d="M219.0,306.5,227.5,306.0,236.0,305.0,244.0,304.0" stroke="black" stroke-width="2" fill="none" />
<path d="M244.0,307.0,236.5,314.5,228.5,321.0,220.5,328.0" stroke="black" stroke-width="2" fill="none" />
<path d="M229.0,336.5,237.0,329.0,244.5,321.0" stroke="black" stroke-width="2" fill="none" />
<path d="M244.5,315.0,237.0,322.0,229.0,329.5" stroke="black" stroke-width="2" fill="none" />
<path d="M241.0,331.5,249.0,331.5,257.0,328.5" stroke="black" stroke-width="2" fill="none" />
<path d="M259.5,329.5,251.5,330.0" stroke="black" stroke-width="2" fill="none" />
<path d="M258.5,322.0,266.5,321.5,274.5,320.5,282.0,320.0" stroke="black" stroke-width="2" fill="none" />
<path d="M260.0,314.5,268.0,314.0,276.0,313.5,284.0,313.0,291.5,312.5,299.5,312.0,307.0,311.0,315.0,309.5,323.0,308.5,331.5,307.0,339.5,306.0,347.5,306.0" stroke="black" stroke-width="2" fill="none" />
<path d="M348.0,299.0,340.0,299.5,332.0,300.0,324.0,300.5,316.0,301.0,307.5,302.0,299.5,302.5,292.0,303.5,284.5,304.5,277.0,305.5,269.0,307.0,261.5,307.5" stroke="black" stroke-width="2" fill="none" />
<path d="M260.5,303.5,269.0,296.0,277.5,288.0,285.5,280.5,293.5,273.0,302.0,265.0" stroke="black" stroke-width="2" fill="none" />
<path d="M295.5,263.0,303.5,263.0,311.5,264.0,319.5,265.0,327.5,264.5,336.0,265.5,343.5,268.0,347.5,270.5,347.0,278.5,347.0,287.0,347.0,295.5,347.0,303.0,347.0,311.0,346.0,319.0,347.0,326.5,347.0,334.5,347.5,342.5,346.5,350.0,346.5,358.0,346.5,366.0,346.5,374.0,347.0,382.0,347.0,390.0,347.0,398.5,347.0,407.0,347.0,415.0,347.0,423.0,347.0,431.0,347.0,439.0,345.5,447.0,345.5,455.0" stroke="black" stroke-width="2" fill="none" />
<path d="M346.0,478.5,354.0,478.5" stroke="black" stroke-width="2" fill="none" />
<path d="M357.5,476.0,359.5,468.5,359.5,460.5,359.5,452.5,359.5,444.5,359.5,436.0,361.0,427.5,361.0,419.0,361.0,411.0,361.0,403.0,361.0,394.5,361.0,387.0,361.0,379.0,362.0,371.0,362.0,363.0,362.0,354.5,362.5,346.5,362.5,339.0,363.0,331.0,363.0,323.5,364.0,315.5,364.0,307.5,364.0,299.5,363.5,291.5,363.5,283.5,363.5,275.5,363.0,268.0,364.0,260.0,381.5,252.5,381.5,252.5,373.5,256.0,365.5,259.0,357.0,260.5,349.0,259.5" stroke="black" stroke-width="2" fill="none" />
<path d="M355.5,259.0,363.5,251.5" stroke="black" stroke-width="2" fill="none" />
<path d="M370.5,252.0,362.5,260.0" stroke="black" stroke-width="2" fill="none" />
<path d="M364.0,266.5,372.0,259.5,380.0,252.5" stroke="black" stroke-width="2" fill="none" />
<path d="M381.5,258.5,389.0,257.5" stroke="black" stroke-width="2" fill="none" />
<path d="M388.0,263.0,380.0,263.0,372.0,263.0" stroke="black" stroke-width="2" fill="none" />
<path d="M355.0,252.5,347.0,259.5" stroke="black" stroke-width="2" fill="none" />
<path d="M347.5,280.5,339.0,281.0,330.5,281.0,322.0,281.5" stroke="black" stroke-width="2" fill="none" />
<path d="M309.0,266.0,300.5,273.5,292.5,281.5,284.5,290.0,277.0,298.0,269.0,305.5,260.5,313.5,251.5,321.0,242.5,328.5,234.0,336.0,226.0,344.0,218.0,351.0,210.5,358.0,203.0,365.5,195.5,373.0,187.5,380.0,179.0,387.0,171.0,394.0,163.0,402.0,155.0,410.0,147.0,418.0,139.0,425.0,131.5,432.0,124.0,439.5,116.0,446.5,108.0,454.0,100.0,462.0,91.5,469.0,83.5,476.5,75.0,484.0" stroke="black" stroke-width="2" fill="none" />
<path d="M71.5,460.0,80.0,453.0,87.5,449.0,95.5,444.0,103.5,440.0" stroke="black" stroke-width="2" fill="none" />
<path d="M84.0,461.0,92.0,463.5,100.0,465.0,108.0,467.0,116.5,469.0,124.0,470.5,132.0,471.5,139.5,473.0,147.0,475.0,155.0,477.5,163.0,479.5,177.0,480.5" stroke="black" stroke-width="2" fill="none" />
<path d="M183.0,472.0,191.5,474.5,199.5,475.5,195.5,480.5,183.5,482.5,193.0,482.5" stroke="black" stroke-width="2" fill="none" />
<path d="M206.0,499.0,206.0,507.0,206.5,515.0,206.5,523.0,207.5,532.0,207.5,540.0,208.0,547.5" stroke="black" stroke-width="2" fill="none" />
<path d="M116.0,522.5,124.5,514.5,132.5,507.0,140.5,499.5,148.0,492.5,156.0,485.0,164.0,477.5,171.5,470.5,179.5,463.0,188.0,456.0,196.0,448.5,204.0,441.5,212.0,434.0,219.5,426.5,227.0,419.0,235.5,411.0,243.5,403.0,252.0,395.5" stroke="black" stroke-width="2" fill="none" />
<path d="M256.5,398.5,248.5,401.5" stroke="black" stroke-width="2" fill="none" />
<path d="M252.0,424.5,244.5,425.0" stroke="black" stroke-width="2" fill="none" />
<path d="M247.5,438.5,255.5,436.5" stroke="black" stroke-width="2" fill="none" />
<path d="M249.0,440.0,249.0,448.0,253.5,455.5,249.5,463.5,250.0,472.0,251.0,480.0,251.0,488.0,253.0,494.0" stroke="black" stroke-width="2" fill="none" />
<path d="M259.5,487.0,258.0,479.0,258.0,471.5,257.5,463.5,257.5,455.5,249.0,460.0" stroke="black" stroke-width="2" fill="none" />
<path d="M258.0,422.0,259.0,417.5,259.0,409.5,258.0,397.5,258.0,396.0,250.5,397.0,250.0,399.0,249.0,391.0,249.0,379.5,248.5,373.0,248.5,364.0,247.0,354.5,247.0,346.5,256.0,340.5,247.5,343.0,240.0,348.5" stroke="black" stroke-width="2" fill="none" />
<path d="M248.5,363.0,247.5,367.0" stroke="black" stroke-width="2" fill="none" />
<path d="M219.0,359.5,211.0,360.0,203.5,360.0" stroke="black" stroke-width="2" fill="none" />
<path d="M212.0,362.5,204.5,366.5,212.5,363.0" stroke="black" stroke-width="2" fill="none" />
<path d="M199.0,347.5,207.0,340.5,215.0,336.5,209.0,340.0,199.5,349.0,199.5,357.5,199.5,365.5,195.5,376.5,185.5,384.5,189.0,382.5" stroke="black" stroke-width="2" fill="none" />
<path d="M180.0,394.0,171.5,395.0,163.0,395.5,154.5,396.0,146.5,396.5,138.5,397.0,130.5,397.0,122.5,397.5,114.5,398.0,106.5,399.0,98.5,399.0,90.0,399.5,81.5,399.5,73.5,400.5" stroke="black" stroke-width="2" fill="none" />
<path d="M68.0,378.0,75.5,371.0,83.0,364.0" stroke="black" stroke-width="2" fill="none" />
<path d="M73.5,364.5,65.5,372.5" stroke="black" stroke-width="2" fill="none" />
<path d="M67.0,372.5,75.5,372.0,83.5,372.0,92.0,372.0,100.5,371.5,108.5,370.5,116.5,370.5,124.5,370.0,132.0,369.5,140.0,369.5,148.0,369.5,155.5,369.0,163.0,368.0,171.0,367.5,179.0,367.0,187.0,366.5,195.0,366.0,203.5,365.0,212.0,364.5,220.0,364.5,228.5,363.5,236.0,363.5,244.0,363.5,252.5,363.5,260.5,363.0,268.5,363.0,276.5,362.0,284.0,361.5,291.5,360.5,300.0,360.0,308.0,359.5,316.0,359.0,324.0,358.5,332.0,358.0,339.5,357.5,347.5,357.0,355.0,356.0,363.0,354.5,371.0,353.5,379.5,352.0,387.5,351.0,395.5,351.0,404.0,351.0,412.5,351.0,420.5,351.5" stroke="black" stroke-width="2" fill="none" />
<path d="M413.0,366.5,411.5,374.0,412.0,382.5,411.5,390.5" stroke="black" stroke-width="2" fill="none" />
<path d="M347.5,329.5,339.5,330.0" stroke="black" stroke-width="2" fill="none" />
<path d="M324.5,327.0,321.5,335.0,319.5,334.5,319.5,331.5" stroke="black" stroke-width="2" fill="none" />
<path d="M316.5,361.0,325.0,361.0,333.0,360.5,341.5,360.0,349.5,360.0" stroke="black" stroke-width="2" fill="none" />
<path d="M347.5,383.5,340.0,383.5,332.0,384.0,324.5,384.0,317.0,384.5" stroke="black" stroke-width="2" fill="none" />
<path d="M316.5,378.5,324.5,377.5,332.5,377.0,341.0,376.0,349.0,375.0" stroke="black" stroke-width="2" fill="none" />
<path d="M350.0,368.5,342.0,369.0,334.0,369.0,326.5,369.0,318.5,369.5" stroke="black" stroke-width="2" fill="none" />
<path d="M323.0,424.0,315.5,432.0,315.5,440.0,317.5,442.0" stroke="black" stroke-width="2" fill="none" />
<path d="M319.5,443.0,320.0,434.5" stroke="black" stroke-width="2" fill="none" />
<path d="M324.0,426.5,324.5,434.5,323.5,443.0" stroke="black" stroke-width="2" fill="none" />
<path d="M313.5,481.5,313.0,489.5,313.0,497.5,312.5,505.5,313.5,513.0,312.5,521.0,311.0,529.5,311.0,537.5" stroke="black" stroke-width="2" fill="none" />
<path d="M336.5,577.0,328.5,580.0,320.0,580.0,319.0,572.5,327.0,564.5,335.0,556.5,342.0,549.0,344.0,541.5,344.0,533.5,344.0,525.5,345.0,518.0,345.0,510.0,345.0,502.5,345.5,494.5,345.5,487.0,346.5,479.0" stroke="black" stroke-width="2" fill="none" />
<path d="M419.5,434.0,412.0,434.5,403.5,435.0,396.0,435.0,388.0,435.0,380.0,435.0,372.0,434.5,364.0,434.5,356.0,434.5,348.5,435.5,340.0,436.0,332.5,437.0,324.5,438.5,317.0,439.0,309.0,439.0,301.0,439.5,293.0,440.0,285.0,440.5,277.0,441.5,268.5,442.0,260.0,442.5,252.5,443.5,244.5,444.0,237.0,445.0,228.5,445.5,220.5,445.5,212.5,445.5,204.0,445.5,196.0,446.0,187.0,447.0,178.5,447.0,170.0,448.0,161.0,448.5,153.0,449.0,145.0,449.5,137.0,450.0,129.5,451.0,122.5,451.5,115.0,452.0,107.5,452.0,100.0,452.0,92.5,452.5,85.0,453.0,77.5,453.0" stroke="black" stroke-width="2" fill="none" />
<path d="M67.0,378.0,74.5,377.5,82.5,376.5,90.0,376.5,98.0,376.5,106.0,376.5,114.0,376.0" stroke="black" stroke-width="2" fill="none" />
<path d="M93.0,351.5,100.5,351.0,108.5,350.0,116.0,349.0,123.5,348.0,131.0,348.0" stroke="black" stroke-width="2" fill="none" />
<path d="M145.5,337.0,154.0,329.0,162.5,321.5,171.0,313.5,179.0,306.5,187.5,299.0,196.0,291.0,204.5,283.5,212.0,275.5,220.0,267.5" stroke="black" stroke-width="2" fill="none" />
<path d="M226.0,272.0,218.0,272.5,210.0,273.0,202.5,273.5,195.0,274.5,188.0,275.0,180.5,275.0,172.0,275.5,164.0,276.0,156.0,276.5,148.5,276.0,140.5,276.5,132.5,277.0,124.5,277.5,117.0,278.0,109.0,278.5,101.5,279.0,93.5,279.5,85.5,279.5,77.0,280.0,68.5,280.0,60.5,280.5" stroke="black" stroke-width="2" fill="none" />
<path d="M60.5,282.5,68.0,274.5,76.0,267.0,84.0,260.0" stroke="black" stroke-width="2" fill="none" />
<path d="M85.5,254.5,93.5,254.0,101.5,253.0,109.0,252.0" stroke="black" stroke-width="2" fill="none" />
<path d="M107.0,244.5,115.5,244.0,123.5,244.0,131.5,243.5" stroke="black" stroke-width="2" fill="none" />
<path d="M125.0,268.5,117.0,276.0,109.0,283.5,101.0,291.0,93.0,298.0,85.0,305.5,77.0,313.5,69.0,321.5" stroke="black" stroke-width="2" fill="none" />
<path d="M67.5,327.0,75.0,319.5,83.0,312.5,91.5,305.5,99.0,298.5,107.0,291.0,115.0,283.5,123.0,276.5,130.5,269.5" stroke="black" stroke-width="2" fill="none" />
<path d="M149.0,265.5,141.0,273.0,132.5,280.5,124.0,288.5,116.0,296.5,107.5,304.5,100.0,312.0,92.5,319.5,84.5,326.5" stroke="black" stroke-width="2" fill="none" />
<path d="M93.0,325.0,100.5,317.0,108.5,310.0,116.5,302.0,125.0,294.5,132.5,287.5,141.0,280.5,149.0,273.5,157.0,266.5" stroke="black" stroke-width="2" fill="none" />
<path d="M180.5,266.0,172.0,273.0,163.5,280.5,155.5,288.5,147.5,296.5,139.5,305.0,131.5,312.5,124.0,321.0,115.5,329.0" stroke="black" stroke-width="2" fill="none" />
<path d="M139.5,336.0,147.5,328.5,156.0,321.0,164.5,313.5,172.5,306.0,180.5,298.5,189.0,291.0,197.0,283.5,205.0,276.0" stroke="black" stroke-width="2" fill="none" />
<path d="M196.5,275.5,188.5,283.5,180.0,291.5,171.5,299.0,163.5,306.0,156.0,313.0,147.5,320.5,139.0,328.0,131.0,335.5" stroke="black" stroke-width="2" fill="none" />
<path d="M124.0,335.5,132.0,328.5,140.5,321.0,149.0,314.0,156.5,307.5,164.5,300.0,172.5,292.5,180.5,285.0,189.0,277.0" stroke="black" stroke-width="2" fill="none" />
<path d="M203.0,296.0,195.5,296.5,187.5,297.0,179.5,297.5,172.0,298.5,164.0,299.5,156.5,300.5,148.5,300.5,140.5,301.0,132.5,302.0,124.5,302.0,117.0,302.5,109.0,303.5,100.5,304.0,92.5,304.5,84.0,304.5,75.5,305.0,67.0,305.5,58.5,306.0" stroke="black" stroke-width="2" fill="none" />
<path d="M61.0,305.5,69.0,297.5,77.0,290.0,84.5,281.5,92.5,273.5,101.0,266.0" stroke="black" stroke-width="2" fill="none" />
<path d="M90.0,259.5,83.0,267.0,75.5,274.5,67.5,282.5,59.0,291.0" stroke="black" stroke-width="2" fill="none" />
<path d="M59.5,289.5,67.5,288.5,75.5,287.5,83.5,287.0,92.0,287.0,100.5,287.0,108.0,287.0,116.0,287.0,124.5,287.0,132.5,286.5,140.5,286.0,148.5,285.5,156.5,285.0,164.5,284.5,172.0,283.5,180.0,283.5,187.5,282.5,195.5,282.0,203.5,281.5,211.5,281.0,219.5,280.5,227.5,279.5,235.0,279.0,243.5,278.0" stroke="black" stroke-width="2" fill="none" />
<path d="M243.5,268.0,251.5,260.5,259.5,253.0" stroke="black" stroke-width="2" fill="none" />
<path d="M265.5,260.5,257.5,260.0,249.5,258.0" stroke="black" stroke-width="2" fill="none" />
<path d="M244.5,258.5,236.0,265.5" stroke="black" stroke-width="2" fill="none" />
<path d="M241.0,265.0,219.0,275.0,227.5,276.0,236.0,276.0,243.5,273.5" stroke="black" stroke-width="2" fill="none" />
<path d="M236.0,259.0,244.0,252.0" stroke="black" stroke-width="2" fill="none" />
<path d="M244.5,265.0,236.5,268.0,228.5,270.5,220.5,272.0,212.5,274.0,204.0,272.5,206.0,267.5,214.0,267.5,216.0,260.0" stroke="black" stroke-width="2" fill="none" />
<path d="M211.5,232.5,219.5,230.5,227.5,227.5,235.0,227.0,243.0,228.0,251.0,228.5,259.0,228.5,266.5,229.0,274.5,228.5,282.5,229.0,292.5,233.0,300.5,234.5" stroke="black" stroke-width="2" fill="none" />
<path d="M320.5,241.0,303.5,244.0,307.5,246.0,315.5,244.5,323.5,242.0,332.0,243.0,339.5,243.5,347.5,244.5,355.0,245.5,363.0,246.0,371.0,247.0,379.0,247.5,387.0,247.5" stroke="black" stroke-width="2" fill="none" />
<path d="M391.5,248.5,392.0,256.5,392.0,264.5,392.5,273.0,392.5,281.0,392.5,289.0,391.0,297.0,391.0,305.0,391.0,313.0,391.0,321.0,389.5,329.0,389.5,337.0,389.5,345.5,389.5,354.0,388.5,361.5,388.5,370.0,388.5,378.0,388.0,386.0,387.5,394.0,386.0,401.5,386.0,410.0,386.5,417.5,386.5,425.5,386.0,433.5,386.0,441.0,386.5,449.0,386.5,457.0,385.5,464.5,385.5,473.5,385.5,482.0,385.5,490.0,385.5,498.0,383.5,506.0,376.0,513.5,369.5,521.5" stroke="black" stroke-width="2" fill="none" />
<path d="M368.5,305.0,377.0,305.0" stroke="black" stroke-width="2" fill="none" />
<path d="M291.0,268.0,283.0,275.5,275.0,283.0,267.0,290.5,259.5,298.0" stroke="black" stroke-width="2" fill="none" />
<path d="M259.0,298.0,267.0,297.5,275.0,297.5,283.5,297.0,292.5,297.0,301.0,296.0,309.0,295.5,317.0,294.5,325.0,293.5,333.0,292.0,341.0,291.5,348.5,291.0" stroke="black" stroke-width="2" fill="none" />
<path d="M291.0,260.5,283.0,268.0,274.5,275.0,266.0,282.5,257.5,290.0" stroke="black" stroke-width="2" fill="none" />
<path d="M259.0,289.0,267.0,288.5,275.0,288.5,283.0,288.5,292.0,288.0,300.5,287.5,309.0,287.0,317.5,286.5,325.5,286.0,334.5,285.0,342.5,284.5,350.5,284.0" stroke="black" stroke-width="2" fill="none" />
<path d="M397.5,300.0,389.0,300.5,381.0,300.5,373.0,301.0,364.5,302.0,356.0,303.0,347.5,303.0,339.5,303.0,331.5,303.5,323.0,304.0,315.0,305.0,307.5,305.5,299.5,306.5,292.0,308.0,283.5,309.0,275.5,310.0,268.0,311.0,260.0,311.5" stroke="black" stroke-width="2" fill="none" />
<path d="M260.5,302.5,268.5,302.0,276.5,301.5,284.5,300.5,293.0,300.0,300.5,299.0,308.5,298.0,316.0,297.0,323.5,296.5,331.5,296.5,339.5,296.5,347.0,296.0,355.0,295.0,363.0,294.5,371.5,294.0,379.0,294.0,387.0,293.5,395.0,293.5" stroke="black" stroke-width="2" fill="none" />
<path d="M396.5,285.0,389.0,285.0,381.0,285.0,373.0,286.0,365.0,287.0,356.5,288.0,348.5,288.5,340.5,289.5,332.5,290.0,324.0,290.5,316.0,290.5,307.5,290.5,299.5,291.0,290.5,291.5,283.0,292.0,274.5,292.0,266.0,293.0,257.5,293.5" stroke="black" stroke-width="2" fill="none" />
<path d="M251.0,298.5,242.0,299.0,233.5,299.0,225.5,299.0,217.0,299.5,209.5,300.0,202.0,300.0,194.5,300.5,187.5,301.0,179.5,301.0,172.0,302.0,164.0,302.0,156.0,302.5,148.0,303.0,139.5,303.0,131.5,303.5,124.0,304.5,116.5,305.0,109.0,305.5,101.0,306.0,93.0,307.0,85.0,308.0,76.5,309.0,68.0,310.5,60.0,311.0" stroke="black" stroke-width="2" fill="none" />
<path d="M59.5,318.0,68.0,317.5,75.5,316.5,83.5,316.0,92.0,316.0,100.0,315.5,108.5,315.0,116.5,314.0,125.0,313.5,133.5,314.0,141.5,313.5,149.5,313.0,157.5,312.0,165.0,311.0,172.5,310.5,180.5,309.5,188.5,309.5,196.5,309.0,204.5,308.5,213.0,308.0,221.5,308.0,229.5,307.5,236.5,307.0,244.0,306.5,251.5,305.5,258.5,305.5,266.0,305.0,274.0,304.5,282.0,304.0,289.5,303.5,297.5,302.5,306.0,302.0,314.5,301.0,323.0,301.0,330.5,300.5,339.5,300.0,347.5,299.5,356.0,299.5,364.0,299.5,372.5,299.0,380.5,298.5,388.5,297.5,396.5,297.0" stroke="black" stroke-width="2" fill="none" />
<path d="M395.0,304.0,387.0,305.0,379.5,305.5,371.5,305.5,363.5,305.5,356.0,306.0,348.5,307.0,340.5,308.0,333.0,309.0,324.5,309.5,316.5,310.5,308.5,311.0,300.5,311.5,292.5,311.5,284.0,312.0,275.5,313.0,267.5,314.0,259.0,315.0,251.0,315.5,243.0,315.5,234.5,315.5,226.0,316.0,218.0,316.0,210.0,317.0,202.5,317.5,195.0,318.0,186.5,318.0,178.5,318.5,170.5,318.5,162.0,318.5,153.5,318.5,145.5,318.5,137.5,319.0,129.5,320.0,121.0,321.0,113.0,322.0,105.0,323.0,97.5,324.0,89.0,324.0,81.5,324.0,74.0,324.0,67.0,324.0,59.0,325.0" stroke="black" stroke-width="2" fill="none" />
<path d="M59.0,297.5,67.0,297.5,75.0,297.5,83.0,297.0,91.0,296.5,98.5,296.0,107.0,295.5,115.5,295.0,124.0,295.0,132.5,295.0,141.0,294.0,149.0,294.0,157.0,293.0,165.5,292.5,173.5,292.0,181.5,291.0,189.0,290.0,196.0,289.0,203.5,288.5,211.0,288.5,219.0,288.0,227.5,287.5,235.0,286.5,243.5,285.5" stroke="black" stroke-width="2" fill="none" />
<path d="M245.5,290.0,253.5,290.5,256.5,295.5,256.0,303.5,257.0,310.5,257.0,318.5,254.0,320.0" stroke="black" stroke-width="2" fill="none" />
<path d="M245.0,315.0,237.0,315.5" stroke="black" stroke-width="2" fill="none" />
<path d="M243.5,297.0,235.0,305.0,226.5,312.0,218.5,320.0,210.5,328.0" stroke="black" stroke-width="2" fill="none" />
<path d="M218.5,326.0,211.0,329.0,203.0,331.5" stroke="black" stroke-width="2" fill="none" />
<path d="M177.0,368.5,177.0,376.5,178.0,385.0,178.5,393.0,179.5,401.0,179.5,409.0,179.5,417.0,180.5,425.0,180.5,433.0,181.5,441.5" stroke="black" stroke-width="2" fill="none" />
<path d="M178.5,449.5,170.5,447.5,162.5,446.5" stroke="black" stroke-width="2" fill="none" />
<path d="M116.0,355.0,107.5,355.5,99.0,355.0,90.5,355.0,82.0,356.0,74.0,357.0" stroke="black" stroke-width="2" fill="none" />
<path d="M68.0,365.0,76.0,364.0,83.5,363.5,91.0,363.0,99.5,362.5,107.5,361.5,115.5,361.5" stroke="black" stroke-width="2" fill="none" />
<path d="M76.5,370.5,68.5,371.5" stroke="black" stroke-width="2" fill="none" />
<path d="M58.0,295.0,66.0,294.5,74.5,294.0,83.0,293.5,91.0,292.5,99.0,292.5,107.5,292.0,116.5,292.0,125.0,291.5,133.5,291.0,141.5,290.5,149.5,289.5,157.5,289.0,165.5,288.0,173.0,287.0,180.5,286.5,188.5,285.0,196.0,284.5,204.0,283.5,211.5,282.5,220.0,282.0,228.0,282.0,236.0,281.5,244.0,281.5,253.0,281.5" stroke="black" stroke-width="2" fill="none" />
<path d="M247.5,290.0,245.5,298.0,246.0,305.5,245.0,313.0,241.0,317.0,249.0,310.5,250.0,302.5" stroke="black" stroke-width="2" fill="none" />
<path d="M259.0,251.5,251.0,251.5,243.0,251.0,239.5,256.0,261.5,242.0" stroke="black" stroke-width="2" fill="none" />
<path d="M263.5,238.5,240.5,246.5,213.5,257.0,189.5,265.0,175.0,270.0,183.0,270.0,190.5,271.0,198.0,270.5,205.5,267.5,207.5,255.5,215.5,253.5,223.5,250.5,232.0,249.0,240.0,246.0,248.0,243.0,256.0,239.5,264.0,237.5,272.0,235.5,280.0,232.5,290.5,231.5,297.5,231.5,305.5,230.0,309.0,234.0,317.0,235.0,325.5,235.0,333.0,236.0,341.5,236.5,349.5,236.5,357.5,237.5,365.0,237.5,373.0,238.5,381.5,238.5,389.5,239.5,397.5,240.0,405.5,240.5,413.5,237.5,421.0,233.5" stroke="black" stroke-width="2" fill="none" />
<path d="M219.0,220.0,210.5,219.5,202.5,220.0" stroke="black" stroke-width="2" fill="none" />
<path d="M211.0,225.5,219.0,226.5" stroke="black" stroke-width="2" fill="none" />
<path d="M121.0,258.0,113.5,258.0,106.0,258.0,99.5,258.0,92.5,259.0,84.5,259.5,76.5,259.5,69.0,260.0,61.0,260.0,53.0,260.5" stroke="black" stroke-width="2" fill="none" />
<path d="M53.0,258.0,61.0,255.0,69.0,253.0,76.5,251.0,84.0,248.5,92.0,246.5,99.5,245.0,107.0,242.5,114.5,240.5,122.5,238.5,130.5,236.5,138.5,234.5,147.0,232.5,155.5,230.0,164.0,228.5,172.5,225.0,180.5,223.0,188.5,221.5,196.5,219.5,205.0,218.0,213.0,217.0,221.0,218.0,228.5,217.5,236.5,218.5,244.5,219.5,253.0,219.5,261.0,220.0,269.0,220.0,277.0,221.0,285.0,221.0,293.0,222.5,301.0,223.5,308.5,223.0,316.5,223.5,324.5,223.5,332.5,224.0,340.5,224.5,348.5,226.0,356.5,226.5,364.5,228.0,372.5,228.0,380.0,229.0,388.5,229.5,396.0,230.5,403.5,230.0,411.5,231.0,419.5,232.0,425.5,233.0,426.5,240.5,427.0,249.0,426.0,256.5,425.5,264.5,425.5,272.5,424.5,280.5,425.0,288.0,425.0,296.0,424.0,303.5,424.0,311.5,424.0,320.0,423.0,328.0,422.5,336.0,423.0,344.5,422.0,352.0,417.0,359.5,422.0,364.0,422.5,372.0,421.5,380.0,421.5,388.0,422.0,396.5,421.0,404.5,421.0,412.5,420.0,420.0,420.0,428.0,420.0,435.5,420.0,443.5,419.0,451.5,419.0,459.5,418.0,467.5,411.0,475.5,403.0,483.5,402.0,484.5,410.0,476.5,418.0,467.0" stroke="black" stroke-width="2" fill="none" />
<path d="M396.5,262.5,388.0,263.0,380.0,263.0,372.0,263.5,364.0,264.0,356.0,264.5,348.0,265.0,340.5,265.5,332.5,266.5,324.5,267.5,317.0,268.5,309.0,269.5,301.5,270.0,293.0,270.5,284.5,271.0,276.0,271.5,267.5,272.5,259.0,273.5,251.0,274.0,243.5,275.0,235.0,275.5,226.5,276.5,218.5,277.0,211.0,277.5,203.0,278.0,195.0,278.5,187.5,279.0,180.0,279.0,172.0,279.5,164.0,280.5,156.5,280.5,148.5,280.5,140.0,280.5,132.0,281.5,124.0,282.0,115.5,282.0,107.5,282.0,99.5,282.0,92.0,282.5,84.0,282.5,76.0,283.0,69.0,283.5,61.0,284.0" stroke="black" stroke-width="2" fill="none" />
<path d="M52.0,278.5,60.0,278.5,69.0,278.5,77.0,278.0,84.5,277.5,93.0,277.0,100.5,276.5,108.5,276.0,116.5,275.5,124.5,275.0,132.0,274.5,140.0,273.0,147.5,272.5,155.0,271.5,163.0,270.0,170.5,269.5,179.0,269.0,187.0,268.5,195.0,268.0,202.5,267.0,210.5,267.0,218.5,266.5,226.5,266.0,235.0,266.0,243.5,266.5,252.0,266.0,260.0,265.5,268.5,265.0,276.5,265.0,284.5,265.0,293.0,264.5,301.0,264.0,308.5,263.5,316.0,262.5,323.5,261.5,332.0,261.0,340.0,260.0,348.0,259.5,356.0,258.5,364.5,258.0,372.5,257.0,380.0,257.0,388.0,256.5,395.5,256.5" stroke="black" stroke-width="2" fill="none" />
<path d="M152.5,240.5,144.5,243.0,136.5,245.0,128.5,248.5,120.5,250.5,113.0,252.5,105.0,255.5,97.5,257.5,90.0,259.0,82.0,261.5,74.0,260.5,66.0,259.5,58.0,259.0" stroke="black" stroke-width="2" fill="none" />
<path d="M62.0,253.5,53.0,261.5,53.5,269.5,54.5,277.5,55.5,285.5,55.0,293.5,56.0,302.0,57.0,310.0,58.5,318.5,59.5,326.5,64.5,328.0,72.5,329.5,80.5,331.0,88.5,333.0,96.5,334.0,104.5,335.0,112.0,336.0,120.0,337.0,128.0,339.0,135.5,340.0" stroke="black" stroke-width="2" fill="none" />
</svg>