<svg xmlns="http://www.w3.org/2000/svg" version="1.1"><path d="M257.0,15.5,253.0,23.5,248.0,31.5,243.0,40.0,238.5,48.0,233.5,56.0,229.0,64.0,223.0,72.0,219.5,80.5,217.5,88.5,219.5,97.0,225.5,96.5,227.5,92.0,236.5,88.5,244.5,88.0,253.0,88.0,261.0,87.5,269.0,87.5,277.0,87.5,282.5,84.5,290.5,84.0" stroke="black" stroke-width="2" fill="none" />
<path d="M293.5,91.5,285.5,92.0" stroke="black" stroke-width="2" fill="none" />
<path d="M284.0,89.5,295.0,87.5,293.0,95.0" stroke="black" stroke-width="2" fill="none" />
<path d="M292.5,83.5,284.0,84.0,276.0,84.0,268.5,84.5,260.0,84.5,252.0,84.5,244.5,84.5,236.5,84.0,229.0,84.5" stroke="black" stroke-width="2" fill="none" />
<path d="M229.5,80.5,237.0,80.5,245.0,80.0,253.0,79.5,261.5,79.0,269.0,78.5,277.0,78.5,285.0,79.0,293.0,79.0" stroke="black" stroke-width="2" fill="none" />
<path d="M291.0,74.5,283.0,81.5,274.5,89.0" stroke="black" stroke-width="2" fill="none" />
<path d="M276.5,89.0,280.5,97.0" stroke="black" stroke-width="2" fill="none" />
<path d="M267.0,88.5,274.5,80.5,282.5,73.0,290.5,65.5" stroke="black" stroke-width="2" fill="none" />
<path d="M284.5,67.0,276.0,74.0,267.5,81.5,259.0,89.5" stroke="black" stroke-width="2" fill="none" />
<path d="M252.5,88.5,260.0,81.0,267.5,74.0,275.0,67.5,283.5,59.5" stroke="black" stroke-width="2" fill="none" />
<path d="M276.0,60.5,268.0,67.5,260.0,74.5,252.0,82.0,244.5,90.0" stroke="black" stroke-width="2" fill="none" />
<path d="M235.0,89.0,242.5,81.5,250.5,74.0,258.5,67.0,266.5,60.0,274.5,52.0" stroke="black" stroke-width="2" fill="none" />
<path d="M275.5,43.5,267.5,51.0,259.5,58.0,251.5,65.5,243.5,73.0,236.0,80.5" stroke="black" stroke-width="2" fill="none" />
<path d="M235.0,74.0,243.0,73.0,251.0,72.5,258.5,72.0,266.0,72.0,274.0,72.0,282.5,71.5" stroke="black" stroke-width="2" fill="none" />
<path d="M269.0,42.5,261.0,50.5,252.5,58.0,244.5,66.0,236.0,73.0,227.5,80.0" stroke="black" stroke-width="2" fill="none" />
<path d="M222.0,79.0,229.5,64.5,237.0,50.5,245.0,36.5,253.0,22.0,261.0,22.0,269.0,35.0,277.0,48.5,285.5,62.0,293.5,76.5" stroke="black" stroke-width="2" fill="none" />
<path d="M269.5,35.5,261.5,43.5,253.5,51.0,245.0,58.0,236.5,65.0,228.0,72.0" stroke="black" stroke-width="2" fill="none" />
<path d="M228.0,68.5,236.0,68.0,244.0,67.5,251.5,67.0,259.0,66.0,267.0,65.5,275.0,65.0,283.5,65.0,291.5,65.0" stroke="black" stroke-width="2" fill="none" />
<path d="M269.5,28.0,262.0,35.5,253.5,43.0,245.5,50.5,237.5,57.5" stroke="black" stroke-width="2" fill="none" />
<path d="M237.5,60.0,245.5,59.0,253.5,59.0,261.0,58.5,268.5,58.5,276.0,58.5,284.0,58.0" stroke="black" stroke-width="2" fill="none" />
<path d="M268.0,42.5,259.5,43.0,252.0,43.0" stroke="black" stroke-width="2" fill="none" />
<path d="M250.0,36.0,258.0,29.0" stroke="black" stroke-width="2" fill="none" />
<path d="M260.0,34.5,252.0,35.0" stroke="black" stroke-width="2" fill="none" />
<path d="M250.0,29.5,258.5,29.0,267.0,29.0" stroke="black" stroke-width="2" fill="none" />
<path d="M268.0,19.0,259.5,19.0,251.0,19.5" stroke="black" stroke-width="2" fill="none" />
<path d="M259.5,17.5,264.5,25.5,268.5,33.0,273.5,41.0,278.0,49.0,282.0,57.0,286.5,65.0,290.0,72.5,293.5,80.5,288.5,88.5,281.5,89.5,283.5,89.5,288.0,96.0" stroke="black" stroke-width="2" fill="none" />
<path d="M276.5,55.5,268.5,55.0,260.0,55.0,251.5,55.0,243.5,55.0" stroke="black" stroke-width="2" fill="none" />
<path d="M243.5,48.0,251.5,48.0,260.0,48.0,268.5,47.0,277.0,46.0" stroke="black" stroke-width="2" fill="none" />
<path d="M275.0,42.5,267.5,43.0,259.5,43.5,252.0,44.0,244.0,44.5" stroke="black" stroke-width="2" fill="none" />
<path d="M243.5,37.5,251.0,37.0,259.0,36.0,267.0,35.5,275.5,35.0" stroke="black" stroke-width="2" fill="none" />
<path d="M285.0,62.5,276.5,62.5,268.5,62.5,261.0,62.5,252.5,62.5,244.0,63.0,236.0,63.0" stroke="black" stroke-width="2" fill="none" />
<path d="M236.5,53.0,244.5,52.0,252.5,51.5,261.0,51.0,269.0,51.0,277.0,50.5,284.5,50.5" stroke="black" stroke-width="2" fill="none" />
<path d="M236.0,93.5,228.5,94.0" stroke="black" stroke-width="2" fill="none" />
<path d="M230.5,89.5,222.5,89.5" stroke="black" stroke-width="2" fill="none" />
<path d="M221.5,83.5,230.0,85.5" stroke="black" stroke-width="2" fill="none" />
<path d="M220.0,78.5,228.0,78.0,236.0,77.5,244.0,77.0,251.5,76.5,259.5,76.0,267.0,75.0,275.0,73.5,283.0,72.5,291.5,71.0" stroke="black" stroke-width="2" fill="none" />
<path d="M299.0,168.5,307.0,171.5,315.0,171.5,323.0,172.0,323.5,180.0,324.0,188.0,324.0,195.5,324.0,203.5,324.0,211.0,324.0,218.5,324.0,226.5,324.0,234.5,323.5,243.0,323.5,251.0,323.0,259.0,323.0,267.0,326.0,271.0,329.5,275.5,343.5,273.0" stroke="black" stroke-width="2" fill="none" />
<path d="M337.0,277.5,329.0,278.0" stroke="black" stroke-width="2" fill="none" />
<path d="M327.5,263.5,333.5,264.0,341.0,270.0,349.0,269.5,357.5,269.5,365.0,271.0" stroke="black" stroke-width="2" fill="none" />
<path d="M369.5,277.5,361.5,278.5" stroke="black" stroke-width="2" fill="none" />
<path d="M364.5,285.5,372.5,285.5" stroke="black" stroke-width="2" fill="none" />
<path d="M371.0,306.5,362.5,307.5,354.5,308.0" stroke="black" stroke-width="2" fill="none" />
<path d="M365.0,318.0,373.0,317.5" stroke="black" stroke-width="2" fill="none" />
<path d="M371.5,322.5,364.0,323.0,356.5,324.0" stroke="black" stroke-width="2" fill="none" />
<path d="M347.0,323.5,339.5,323.5" stroke="black" stroke-width="2" fill="none" />
<path d="M333.0,318.0,341.0,317.5,349.0,317.0,357.0,316.5" stroke="black" stroke-width="2" fill="none" />
<path d="M372.0,331.0,363.5,332.0,355.0,332.0,347.0,332.0,338.5,332.0" stroke="black" stroke-width="2" fill="none" />
<path d="M347.0,342.0,355.5,341.0,364.0,340.0,372.5,339.0" stroke="black" stroke-width="2" fill="none" />
<path d="M379.5,362.0,371.5,362.5,363.5,363.0,356.0,363.5,348.0,364.0" stroke="black" stroke-width="2" fill="none" />
<path d="M347.0,357.0,355.0,356.0,363.0,356.0,371.0,356.0" stroke="black" stroke-width="2" fill="none" />
<path d="M371.5,348.5,363.5,348.5,355.0,349.0,346.0,349.5" stroke="black" stroke-width="2" fill="none" />
<path d="M340.0,356.0,332.0,356.5" stroke="black" stroke-width="2" fill="none" />
<path d="M330.5,365.5,339.0,364.5" stroke="black" stroke-width="2" fill="none" />
<path d="M340.0,368.5,331.5,376.5" stroke="black" stroke-width="2" fill="none" />
<path d="M334.5,377.5,342.5,376.5,352.5,374.0" stroke="black" stroke-width="2" fill="none" />
<path d="M349.0,380.0,356.5,379.5,364.5,379.5,373.0,380.0" stroke="black" stroke-width="2" fill="none" />
<path d="M377.5,375.5,385.0,380.5,389.0,365.0,386.0,372.5,378.5,366.5,386.0,365.0,388.0,369.0,391.0,375.5,384.0,379.0,387.0,377.0" stroke="black" stroke-width="2" fill="none" />
<path d="M388.5,371.0,380.5,378.5" stroke="black" stroke-width="2" fill="none" />
<path d="M379.5,395.0,371.0,396.0,362.5,396.5,354.5,397.5,346.5,398.0" stroke="black" stroke-width="2" fill="none" />
<path d="M346.5,387.5,354.5,387.5,362.5,387.5,370.5,387.5" stroke="black" stroke-width="2" fill="none" />
<path d="M379.5,403.0,371.5,403.5,363.0,405.0,355.0,405.5,347.5,405.5,339.5,406.0" stroke="black" stroke-width="2" fill="none" />
<path d="M339.5,414.0,348.0,413.5,356.0,413.0,364.5,412.5,373.0,412.0,381.0,411.0" stroke="black" stroke-width="2" fill="none" />
<path d="M380.5,409.5,388.5,408.5,399.5,410.5" stroke="black" stroke-width="2" fill="none" />
<path d="M405.0,416.0,396.5,416.5,388.0,417.5,380.0,418.0,371.5,419.0,363.5,419.5,356.0,420.0,348.0,420.5,339.5,421.0,330.5,421.5" stroke="black" stroke-width="2" fill="none" />
<path d="M331.5,430.0,339.5,429.5,348.0,428.5,356.0,428.0,364.0,427.5,372.5,427.5,380.0,426.5,388.0,425.5,395.5,424.5,403.5,424.0" stroke="black" stroke-width="2" fill="none" />
<path d="M398.5,421.0,406.5,419.0,419.0,421.0,419.0,429.0,419.0,437.5,419.0,445.5,419.0,453.5,418.5,461.5,418.5,469.0,420.5,469.0,417.0,477.0,420.5,485.0" stroke="black" stroke-width="2" fill="none" />
<path d="M420.5,493.0,412.5,500.0,404.5,507.0,396.0,514.5,388.0,522.0,380.0,529.5,372.0,536.5,363.5,543.5,355.5,550.5,347.0,557.5" stroke="black" stroke-width="2" fill="none" />
<path d="M347.0,554.5,355.5,554.0,364.0,553.0,372.5,552.0,380.5,551.0,388.5,550.0,396.5,549.5,404.0,549.0,412.0,548.5,420.5,548.0,429.0,548.0,437.0,548.0,445.0,548.0,452.5,548.0" stroke="black" stroke-width="2" fill="none" />
<path d="M450.5,547.5,443.0,555.0,435.5,562.5,427.5,570.0,419.5,577.0,412.0,584.0,403.5,592.0,395.5,599.0,388.0,606.5,380.0,613.5,372.5,620.5,364.5,628.5,356.5,636.0,348.0,644.0,340.0,652.0" stroke="black" stroke-width="2" fill="none" />
<path d="M339.5,653.5,347.0,653.0,355.0,652.5,363.0,652.5,371.0,652.0,378.5,652.0,387.0,651.0,396.0,650.5,404.5,649.5,412.5,648.5,420.5,647.5,428.5,647.0,436.0,647.0,444.0,646.5,452.0,646.0,460.5,646.0,468.5,646.0" stroke="black" stroke-width="2" fill="none" />
<path d="M451.5,635.0,443.0,643.0" stroke="black" stroke-width="2" fill="none" />
<path d="M436.5,642.5,445.0,634.0,452.5,626.5" stroke="black" stroke-width="2" fill="none" />
<path d="M450.0,628.5,458.0,641.5,465.5,655.0" stroke="black" stroke-width="2" fill="none" />
<path d="M453.0,619.0,444.5,626.5,436.5,634.5,428.5,642.5" stroke="black" stroke-width="2" fill="none" />
<path d="M419.5,640.5,428.5,632.5,437.0,625.0,445.5,618.0,453.5,611.0" stroke="black" stroke-width="2" fill="none" />
<path d="M452.0,603.5,444.0,611.0,436.0,618.0,427.5,625.5,419.0,633.5,410.5,641.5" stroke="black" stroke-width="2" fill="none" />
<path d="M404.5,639.5,412.5,632.0,421.0,625.0,429.0,617.5,437.5,610.0,445.0,602.0,453.5,594.5" stroke="black" stroke-width="2" fill="none" />
<path d="M451.0,585.5,443.0,593.0,435.0,600.5,427.0,607.5,419.0,615.0,411.5,622.5,403.5,630.0,395.5,637.5,388.0,645.5,380.5,654.0,372.5,662.0" stroke="black" stroke-width="2" fill="none" />
<path d="M377.0,667.5,384.5,667.5,392.5,668.0,400.5,668.5,408.5,669.0,416.5,669.0,424.5,669.0,432.5,669.0,441.0,669.0,449.0,669.0,457.0,668.5,465.0,669.0" stroke="black" stroke-width="2" fill="none" />
<path d="M403.0,660.0,395.0,667.5" stroke="black" stroke-width="2" fill="none" />
<path d="M388.5,668.5,396.5,661.0" stroke="black" stroke-width="2" fill="none" />
<path d="M395.5,651.5,387.5,659.5,379.5,667.0" stroke="black" stroke-width="2" fill="none" />
<path d="M364.0,661.0,372.0,653.0,380.0,645.5,387.5,638.5,395.5,631.5,404.0,624.5,412.5,617.0,420.5,609.5,428.0,601.5,436.0,594.0,444.0,586.5,452.0,579.5" stroke="black" stroke-width="2" fill="none" />
<path d="M451.5,571.5,443.5,579.0,436.5,586.5,428.5,594.0,420.0,601.5,412.0,609.0,403.0,617.0,394.5,624.0,386.5,631.5,378.5,638.5,370.5,646.0,362.5,654.5,355.0,662.5" stroke="black" stroke-width="2" fill="none" />
<path d="M347.5,661.5,356.5,654.0,364.5,646.5,372.5,639.0,380.5,631.0,387.5,623.0,395.0,615.5,403.0,608.0,411.0,600.5,419.5,592.5,427.5,585.0,436.0,578.0,444.0,571.0,452.5,564.0" stroke="black" stroke-width="2" fill="none" />
<path d="M452.0,555.5,444.0,563.0,436.5,570.5,428.5,577.5,420.5,584.5,412.5,592.5,404.5,599.5,396.5,606.5,388.5,614.5,381.0,622.5,373.5,630.5,365.5,638.0,357.0,645.0,349.0,652.5,340.5,660.0" stroke="black" stroke-width="2" fill="none" />
<path d="M337.5,662.5,345.5,662.5,354.5,662.5,363.0,662.5,371.0,662.0,379.5,661.5,388.0,661.0,396.5,660.0,404.5,659.5,412.5,658.5,421.0,658.0,428.5,658.0,436.5,657.5,444.5,657.0,452.5,656.5,461.0,655.0,468.5,654.0" stroke="black" stroke-width="2" fill="none" />
<path d="M396.5,628.0,388.5,628.0,381.0,628.5,372.5,629.5,365.0,630.5,357.0,631.5,349.0,632.5" stroke="black" stroke-width="2" fill="none" />
<path d="M348.0,640.0,356.0,639.5,363.5,638.5" stroke="black" stroke-width="2" fill="none" />
<path d="M354.0,647.5,346.0,648.0" stroke="black" stroke-width="2" fill="none" />
<path d="M341.0,643.5,348.5,636.0,356.5,628.5,363.5,621.0,371.5,614.0,379.5,606.5,387.5,599.0,395.5,591.5,403.5,584.0,411.5,576.5,419.5,569.0,427.5,562.0,435.5,554.0,443.5,546.5,451.5,538.5" stroke="black" stroke-width="2" fill="none" />
<path d="M451.5,538.5,444.0,538.0,435.5,538.5,427.5,539.0,419.5,539.0,411.0,539.5,403.0,540.5,395.5,541.0,388.0,542.5,379.5,543.0,370.5,543.0,362.5,543.5,354.5,544.5,347.0,545.5" stroke="black" stroke-width="2" fill="none" />
<path d="M341.0,544.5,349.0,536.5,356.5,528.5,364.0,521.0,371.5,513.5,379.0,505.5,387.5,498.0,395.5,490.5" stroke="black" stroke-width="2" fill="none" />
<path d="M404.0,493.0,396.0,500.5,388.0,507.5,380.0,515.0,372.0,522.5,364.5,530.0,356.5,537.0,348.5,544.0,340.0,551.0" stroke="black" stroke-width="2" fill="none" />
<path d="M339.5,550.0,347.5,549.0,355.5,548.0,363.0,547.0,370.5,546.0,378.5,545.0,386.5,544.5,394.5,544.5,402.5,544.0,411.0,544.0,419.5,543.5,427.5,543.0,436.0,542.0,444.5,541.5,452.5,541.0,460.5,540.5" stroke="black" stroke-width="2" fill="none" />
<path d="M459.5,549.5,452.0,549.5,444.0,549.5,436.5,549.5,429.0,550.0,421.0,550.5,413.5,551.0,405.5,552.0,397.0,553.0,388.5,554.0,380.5,555.0,372.0,555.5,364.0,556.0,356.0,557.0,348.0,558.0,340.0,559.0" stroke="black" stroke-width="2" fill="none" />
<path d="M340.5,559.5,348.0,551.5,356.0,544.5,364.0,537.5,372.5,530.5,380.0,522.5,387.5,515.0,396.0,507.5,404.0,500.0,412.0,492.5" stroke="black" stroke-width="2" fill="none" />
<path d="M429.0,491.0,421.0,498.5,413.0,506.0,405.0,514.0,397.0,521.5,389.0,529.0,381.0,536.5,373.0,544.5,365.0,552.0,356.5,559.0,348.0,566.0" stroke="black" stroke-width="2" fill="none" />
<path d="M348.5,569.5,357.0,569.0,364.5,568.5,372.0,568.0,380.0,567.5,388.0,567.0,396.0,566.0,404.0,565.5,412.0,565.0,420.0,564.0,427.5,563.5,436.0,563.0,444.0,563.0,452.5,562.5" stroke="black" stroke-width="2" fill="none" />
<path d="M451.5,569.5,443.5,570.0,436.0,570.5,428.0,571.0,420.0,571.5,411.5,571.5,403.0,572.0,394.5,572.5,386.5,573.5,379.0,574.5,371.5,575.0,363.5,575.5,355.0,576.5,347.0,577.5" stroke="black" stroke-width="2" fill="none" />
<path d="M339.5,581.0,347.5,581.0,355.5,580.0,363.5,579.0,372.5,578.0,380.5,577.0,387.5,576.5,394.5,576.5,402.0,576.0,410.0,575.5,418.0,575.0,426.0,574.5,434.0,574.0,442.0,573.5,450.0,572.5,458.5,572.0" stroke="black" stroke-width="2" fill="none" />
<path d="M451.5,586.0,443.5,587.0,436.0,588.0,428.0,589.0,420.5,589.5,412.0,589.5,404.0,590.0,395.5,590.5,387.0,591.5,379.5,592.0,371.5,593.0,363.5,593.5,355.5,594.0,348.0,595.0" stroke="black" stroke-width="2" fill="none" />
<path d="M348.0,590.5,356.0,583.5,363.5,576.0,372.0,568.5,380.0,561.0,387.5,554.0,395.0,546.0,403.0,538.0,411.0,530.5,418.5,523.0,427.0,515.5,435.0,508.5,443.0,501.0,451.0,493.5" stroke="black" stroke-width="2" fill="none" />
<path d="M452.5,498.5,444.5,506.0,436.0,514.0,428.0,522.0,420.0,529.5,412.0,537.5,404.0,545.0,396.0,553.0,387.5,560.5,379.0,568.0,371.0,575.0,363.0,583.0,355.0,591.0,347.0,598.5,339.0,606.0" stroke="black" stroke-width="2" fill="none" />
<path d="M339.5,603.5,347.5,603.0,355.5,602.5,363.5,602.0,371.5,601.5,379.0,601.0,387.0,600.0,395.0,599.5,403.0,599.0,412.0,599.0,420.5,599.0,428.0,598.0,435.5,597.5,443.5,597.5,451.5,597.5,459.5,598.0" stroke="black" stroke-width="2" fill="none" />
<path d="M445.0,618.5,437.0,619.0,428.5,620.0,420.5,620.0,412.5,620.5,404.5,621.5,396.0,622.0,387.5,622.5,380.0,622.5,372.0,622.5,364.5,622.5,357.0,623.0,349.0,623.5" stroke="black" stroke-width="2" fill="none" />
<path d="M347.5,616.5,355.5,616.0,364.0,615.0,372.5,614.5,380.5,614.0,388.5,613.5,396.5,613.0,404.5,613.0,412.5,613.0,420.5,612.5,428.0,612.0,436.5,611.5,444.5,610.0,452.5,609.0" stroke="black" stroke-width="2" fill="none" />
<path d="M450.5,601.0,442.5,601.0,435.0,602.0,427.5,602.0,419.0,602.5,411.0,603.5,403.0,604.0,395.0,604.5,387.0,605.0,379.0,605.5,371.5,607.0,363.5,608.5,354.5,608.5,346.0,609.0" stroke="black" stroke-width="2" fill="none" />
<path d="M338.5,614.0,346.5,606.0,354.5,598.0,362.0,590.5,370.0,583.0,378.0,575.5,386.5,568.0,395.0,560.5,403.5,553.0,412.0,545.0,420.0,537.0,428.0,529.0,436.0,521.0,445.0,513.0,453.5,505.5" stroke="black" stroke-width="2" fill="none" />
<path d="M453.0,514.5,445.0,522.0,437.5,530.0,429.5,537.5,421.0,545.0,412.5,552.5,404.5,560.5,396.5,568.5,388.5,576.0,379.5,583.5,371.5,591.0,363.5,598.5,355.5,605.5,347.5,613.0,339.0,620.5" stroke="black" stroke-width="2" fill="none" />
<path d="M334.5,615.0,334.5,623.0,335.5,630.5,334.0,637.0,335.0,645.0,336.5,653.0" stroke="black" stroke-width="2" fill="none" />
<path d="M331.0,642.5,323.5,650.0,315.0,657.5,307.0,664.5,298.5,671.5" stroke="black" stroke-width="2" fill="none" />
<path d="M292.5,671.5,300.5,663.5,308.0,656.5,315.5,649.0,323.5,641.5,331.0,634.0" stroke="black" stroke-width="2" fill="none" />
<path d="M331.5,625.5,324.0,633.0,316.0,640.5,308.5,648.5,301.0,656.5,293.5,664.5" stroke="black" stroke-width="2" fill="none" />
<path d="M293.0,661.0,301.0,660.5,308.5,660.5,316.5,660.0,324.5,660.0" stroke="black" stroke-width="2" fill="none" />
<path d="M323.0,663.5,322.0,671.5,322.5,679.5,322.0,687.5,322.0,695.5,319.0,704.0,305.0,712.0,317.0,703.0" stroke="black" stroke-width="2" fill="none" />
<path d="M292.5,692.5,284.0,700.5,276.5,708.0" stroke="black" stroke-width="2" fill="none" />
<path d="M282.5,706.0,290.5,698.5" stroke="black" stroke-width="2" fill="none" />
<path d="M292.0,685.5,284.5,693.0,276.5,700.0,268.5,707.5" stroke="black" stroke-width="2" fill="none" />
<path d="M258.5,705.5,266.5,698.0,273.5,691.0,281.5,683.5" stroke="black" stroke-width="2" fill="none" />
<path d="M275.5,683.5,267.0,691.0,259.0,698.0,251.5,705.5,244.0,713.5" stroke="black" stroke-width="2" fill="none" />
<path d="M243.0,706.0,251.5,705.0,259.5,704.5,267.5,704.5,275.0,704.0,282.5,703.0,291.0,702.0" stroke="black" stroke-width="2" fill="none" />
<path d="M292.0,670.0,299.5,669.5,307.5,669.0,315.0,668.5,323.0,668.0" stroke="black" stroke-width="2" fill="none" />
<path d="M322.0,669.5,314.0,670.0,306.5,670.0,298.5,670.5,290.5,671.0,282.5,672.0,275.0,673.0,267.0,673.5,259.5,674.5,252.0,675.5,244.0,676.5,236.0,677.5,227.5,678.0,219.5,678.5" stroke="black" stroke-width="2" fill="none" />
<path d="M221.0,686.0,228.5,685.0,236.5,684.5,244.5,683.5,252.5,683.0,261.0,682.0,268.5,681.5,276.5,681.5,284.5,681.5,292.5,681.5,300.0,681.0,307.5,680.5,315.0,680.0,322.5,679.5" stroke="black" stroke-width="2" fill="none" />
<path d="M324.5,688.0,317.0,689.0,309.5,690.0,302.0,691.0,293.5,691.5,285.5,691.0,277.5,691.0,269.5,691.0,261.0,691.0,253.0,691.0,245.5,691.5,237.5,692.0,229.5,692.5,220.5,693.0" stroke="black" stroke-width="2" fill="none" />
<path d="M220.0,700.0,228.0,699.5,236.0,699.5,244.0,699.5,252.0,699.0,259.5,698.5,268.0,698.0,276.5,697.5,284.5,697.0,292.5,697.0,300.5,696.5,308.0,696.0,316.0,695.5,323.5,695.0" stroke="black" stroke-width="2" fill="none" />
<path d="M308.0,706.0,300.0,706.0,292.0,706.0,284.0,705.5,276.0,705.5,268.0,705.5,260.5,706.5,252.0,707.0,244.5,708.0,236.5,709.5,229.0,710.0" stroke="black" stroke-width="2" fill="none" />
<path d="M241.0,705.0,249.5,697.0,257.5,690.0,265.5,682.5,273.5,675.0" stroke="black" stroke-width="2" fill="none" />
<path d="M266.5,675.0,259.0,682.5,251.0,690.0,243.0,697.5" stroke="black" stroke-width="2" fill="none" />
<path d="M245.0,698.5,253.0,698.0,261.0,698.0,268.5,697.0,276.5,696.0,284.5,695.5,292.5,694.5" stroke="black" stroke-width="2" fill="none" />
<path d="M300.0,663.0,308.0,663.0" stroke="black" stroke-width="2" fill="none" />
<path d="M307.0,655.0,298.5,655.0" stroke="black" stroke-width="2" fill="none" />
<path d="M293.0,653.0,300.5,653.0,309.0,653.0,317.0,653.0,324.5,653.0,332.0,652.5" stroke="black" stroke-width="2" fill="none" />
<path d="M329.5,667.0,337.5,667.5" stroke="black" stroke-width="2" fill="none" />
<path d="M345.0,664.5,353.0,664.0" stroke="black" stroke-width="2" fill="none" />
<path d="M341.0,636.0,349.0,629.0,356.0,621.5,363.0,613.5,371.0,605.5,379.0,598.0,387.0,591.0,395.0,583.5,403.5,576.0,411.5,568.5,419.5,561.0,428.0,553.0,436.5,545.0,444.5,537.5,452.5,530.0" stroke="black" stroke-width="2" fill="none" />
<path d="M452.5,521.0,444.5,529.0,436.5,537.0,428.0,545.0,419.5,553.0,411.0,560.5,402.5,568.0,394.0,575.0,386.0,582.0,377.5,589.0,369.0,596.0,361.5,604.0,354.5,612.5,347.0,620.5,339.5,628.0" stroke="black" stroke-width="2" fill="none" />
<path d="M331.5,620.0,323.0,627.0,315.0,634.5,307.0,642.0,299.0,649.5,291.0,658.0" stroke="black" stroke-width="2" fill="none" />
<path d="M290.0,648.5,297.5,641.0,305.5,634.0,313.5,626.5,321.5,619.0,329.5,612.0" stroke="black" stroke-width="2" fill="none" />
<path d="M330.5,602.0,323.0,609.5,315.0,617.5,307.0,625.5,299.5,634.0,292.0,641.5" stroke="black" stroke-width="2" fill="none" />
<path d="M292.5,641.5,300.5,641.0,308.5,640.0" stroke="black" stroke-width="2" fill="none" />
<path d="M306.0,647.0,298.0,647.5" stroke="black" stroke-width="2" fill="none" />
<path d="M292.0,647.5,300.0,647.0,307.5,646.0,315.5,645.0,324.0,645.0,332.0,644.0,339.5,643.0,347.0,642.5,355.0,641.5,363.0,640.5,370.5,640.5,379.0,639.5,387.5,639.0,395.5,638.5,403.5,638.0,411.5,637.5,419.5,637.5,427.0,637.0,435.0,636.5,443.0,635.5,451.0,635.0,459.0,635.0" stroke="black" stroke-width="2" fill="none" />
<path d="M451.5,594.5,444.0,594.5,436.0,594.5,428.5,595.5,420.0,596.0,412.0,597.0,404.0,597.5,396.0,597.0,388.5,597.5,380.0,598.5,371.5,599.0,363.0,600.0,355.0,600.0,347.0,600.0" stroke="black" stroke-width="2" fill="none" />
<path d="M340.0,597.5,347.5,596.5,355.5,595.5,363.0,595.0,371.0,594.0,379.0,593.5,387.0,592.5,395.5,592.0,403.5,592.0,410.5,591.5,418.5,591.0,426.5,590.5,435.0,589.5,443.0,589.5,451.0,589.5,459.0,590.0" stroke="black" stroke-width="2" fill="none" />
<path d="M451.5,579.5,443.5,579.5,436.5,580.0,429.0,580.5,420.5,581.0,411.5,581.0,403.0,581.5,395.0,582.5,387.5,583.5,379.0,584.5,371.0,585.0,363.0,585.5,355.0,586.5,346.5,587.5" stroke="black" stroke-width="2" fill="none" />
<path d="M339.5,589.0,347.0,581.0,354.5,573.5,362.5,566.0,371.0,558.5,379.5,551.0,387.5,543.5,395.5,536.5,403.5,529.5,411.5,522.0,419.0,514.5,426.5,507.0,435.0,499.5,443.0,491.5" stroke="black" stroke-width="2" fill="none" />
<path d="M433.5,489.5,426.0,497.0,418.0,505.0,410.0,512.5,402.5,521.0,394.5,528.5,386.5,536.0,378.5,543.5,370.5,551.0,362.0,559.0,354.0,567.0,346.0,574.5,338.0,581.5" stroke="black" stroke-width="2" fill="none" />
<path d="M332.0,585.0,324.5,592.5,317.0,600.0,309.0,608.0,301.0,616.5,293.0,624.0" stroke="black" stroke-width="2" fill="none" />
<path d="M292.0,626.5,300.0,625.5,308.0,625.0,316.0,624.0,324.0,623.0" stroke="black" stroke-width="2" fill="none" />
<path d="M315.0,632.0,306.5,632.5,298.5,633.5" stroke="black" stroke-width="2" fill="none" />
<path d="M292.0,634.0,300.0,625.5,308.5,617.5,317.0,610.0,325.0,603.0,333.5,595.5" stroke="black" stroke-width="2" fill="none" />
<path d="M339.0,589.5,347.0,589.0,355.0,589.0,363.0,588.5,371.5,587.5,379.0,587.0,387.0,586.0,394.0,585.5,401.5,585.0,409.0,584.0,417.0,583.5,425.0,583.0,432.5,582.5,441.0,581.5,449.5,581.0,458.5,580.5" stroke="black" stroke-width="2" fill="none" />
<path d="M453.5,557.0,445.5,557.5,437.5,558.0,430.0,558.5,421.5,559.0,413.0,559.5,405.0,559.5,397.0,559.5,389.0,559.5,381.0,560.0,373.0,561.0,365.0,561.5,357.0,562.0,349.0,562.5" stroke="black" stroke-width="2" fill="none" />
<path d="M339.0,565.5,347.5,565.5,355.5,564.5,363.5,563.5,371.5,562.0,380.0,561.5,388.0,561.0,396.5,560.5,405.0,560.0,413.0,559.5,421.0,559.5,429.0,558.5,437.0,557.5,444.5,556.5,453.0,555.5,460.5,555.0" stroke="black" stroke-width="2" fill="none" />
<path d="M455.0,551.0,463.5,552.0,471.0,551.0,479.0,552.5,486.5,554.5,497.5,550.0,505.5,553.0" stroke="black" stroke-width="2" fill="none" />
<path d="M501.0,549.0,509.0,549.0,517.0,549.0" stroke="black" stroke-width="2" fill="none" />
<path d="M491.5,547.5,484.0,547.0,475.5,547.5,467.5,548.0" stroke="black" stroke-width="2" fill="none" />
<path d="M451.5,544.5,459.5,549.5,468.0,546.5,476.0,548.5,484.0,550.0,492.0,551.0,499.5,546.0,507.0,549.5" stroke="black" stroke-width="2" fill="none" />
<path d="M426.5,468.0,418.5,469.0" stroke="black" stroke-width="2" fill="none" />
<path d="M403.0,468.0,396.0,468.5,388.0,469.0,380.0,469.0,372.5,469.0,364.5,469.5,356.5,470.0" stroke="black" stroke-width="2" fill="none" />
<path d="M362.0,473.5,370.0,466.5,377.5,459.0,385.5,451.5" stroke="black" stroke-width="2" fill="none" />
<path d="M386.5,459.5,378.5,467.0,370.5,474.5" stroke="black" stroke-width="2" fill="none" />
<path d="M374.5,472.5,382.5,473.5" stroke="black" stroke-width="2" fill="none" />
<path d="M380.0,474.5,388.0,466.5" stroke="black" stroke-width="2" fill="none" />
<path d="M385.5,472.0,377.0,472.5" stroke="black" stroke-width="2" fill="none" />
<path d="M387.5,464.0,380.0,464.5,372.0,465.0,364.0,465.5" stroke="black" stroke-width="2" fill="none" />
<path d="M362.5,464.5,370.0,457.0,378.0,449.5,386.5,441.5" stroke="black" stroke-width="2" fill="none" />
<path d="M385.5,433.0,378.0,441.0,370.5,449.0,363.0,457.0" stroke="black" stroke-width="2" fill="none" />
<path d="M363.0,459.5,371.0,459.0,379.5,458.5,387.5,457.5" stroke="black" stroke-width="2" fill="none" />
<path d="M389.0,450.0,381.0,450.0,373.0,450.5,365.0,450.5" stroke="black" stroke-width="2" fill="none" />
<path d="M363.5,449.0,371.5,441.5,379.0,434.0,387.0,426.5" stroke="black" stroke-width="2" fill="none" />
<path d="M386.0,421.0,394.0,420.0,386.0,427.0,385.5,435.0,385.5,443.0,386.0,451.5,385.0,459.0,385.0,466.5,384.5,473.0,385.5,481.0,390.0,478.0,398.0,477.0,399.5,480.0,405.5,477.5,407.5,472.0" stroke="black" stroke-width="2" fill="none" />
<path d="M395.5,476.5,387.5,477.0,379.0,477.5,371.0,478.0,363.0,479.0,355.5,479.5" stroke="black" stroke-width="2" fill="none" />
<path d="M353.0,492.0,345.0,499.0,337.5,506.0" stroke="black" stroke-width="2" fill="none" />
<path d="M340.0,510.0,347.5,509.5,355.5,509.5,363.0,509.0,371.0,509.0,378.5,508.0,386.5,507.0,395.0,506.0,403.0,505.0,411.0,504.5,419.0,504.5,427.0,503.5,435.5,502.5,443.5,502.0,451.0,501.5,458.5,500.5" stroke="black" stroke-width="2" fill="none" />
<path d="M403.0,458.5,395.0,459.5,387.5,460.0,380.0,461.0,372.5,461.5,365.0,462.5,357.0,463.0" stroke="black" stroke-width="2" fill="none" />
<path d="M357.0,455.0,364.5,455.0,372.5,454.5,380.5,454.0,388.5,453.5,397.0,452.0,404.5,451.0" stroke="black" stroke-width="2" fill="none" />
<path d="M402.0,456.5,402.0,464.5,399.5,472.5" stroke="black" stroke-width="2" fill="none" />
<path d="M386.5,492.5,378.5,500.0,371.0,507.0,363.5,514.0,356.0,521.5,348.0,529.0,340.0,536.5" stroke="black" stroke-width="2" fill="none" />
<path d="M339.5,539.5,347.5,539.5,355.5,539.0,363.5,539.0,371.0,538.5,379.0,538.0,386.5,537.5,394.5,537.0,402.5,537.0,410.5,536.5,418.0,536.0,426.5,535.5,435.5,535.5,443.5,534.0,451.0,532.5,459.0,532.0" stroke="black" stroke-width="2" fill="none" />
<path d="M379.5,491.5,371.0,498.5,362.5,506.0,354.5,513.0,346.5,520.5,339.0,528.0" stroke="black" stroke-width="2" fill="none" />
<path d="M340.5,532.0,348.0,531.5,356.0,531.5,364.0,531.0,372.0,530.5,379.5,530.0,387.5,529.5,395.0,529.0,402.5,528.5,410.5,527.5,419.0,527.0,427.0,527.0,435.0,527.0,443.5,526.0,452.0,525.5,460.5,524.5" stroke="black" stroke-width="2" fill="none" />
<path d="M371.0,491.0,362.5,498.5,355.0,506.0,347.0,514.0,339.5,522.0" stroke="black" stroke-width="2" fill="none" />
<path d="M340.5,518.0,348.0,517.5,355.5,516.5,363.0,516.5,371.0,516.0,378.5,515.5,387.0,515.0,395.5,514.5,403.0,514.5,410.5,514.5,418.5,514.5,427.0,513.5,435.0,512.5,443.0,512.0,451.0,511.5,459.5,510.5" stroke="black" stroke-width="2" fill="none" />
<path d="M363.0,492.0,355.0,499.0,347.0,506.5,339.5,514.5" stroke="black" stroke-width="2" fill="none" />
<path d="M347.0,513.0,355.0,513.0,363.0,513.5,371.5,513.0,380.0,512.5,388.5,512.0,396.5,511.5,404.5,511.0,412.0,510.0,420.0,509.0,428.0,508.5,436.0,508.5,444.5,508.5,452.0,508.0" stroke="black" stroke-width="2" fill="none" />
<path d="M387.0,440.5,378.0,440.5,369.5,441.0" stroke="black" stroke-width="2" fill="none" />
<path d="M364.0,442.0,372.5,434.5,380.0,427.0,388.0,419.0" stroke="black" stroke-width="2" fill="none" />
<path d="M395.0,420.5,394.5,428.5,394.5,437.0,396.0,445.0,397.0,453.5,397.5,461.5,395.0,470.0" stroke="black" stroke-width="2" fill="none" />
<path d="M388.5,433.5,380.0,433.5,372.0,433.5" stroke="black" stroke-width="2" fill="none" />
<path d="M366.5,426.5,366.5,419.5,374.5,415.5" stroke="black" stroke-width="2" fill="none" />
<path d="M378.5,421.0,371.0,428.5,363.0,435.5" stroke="black" stroke-width="2" fill="none" />
<path d="M356.5,444.5,364.5,444.0,372.0,444.0,380.0,443.5,388.0,443.0,396.5,443.0,404.5,443.0" stroke="black" stroke-width="2" fill="none" />
<path d="M404.0,431.0,396.0,431.5,388.0,432.5,379.5,433.5,371.5,434.0,363.5,434.5,355.0,435.5,347.0,437.0,338.5,437.5,330.0,437.5,321.5,437.5" stroke="black" stroke-width="2" fill="none" />
<path d="M331.5,433.5,339.5,426.0" stroke="black" stroke-width="2" fill="none" />
<path d="M347.5,419.5,356.0,411.5" stroke="black" stroke-width="2" fill="none" />
<path d="M360.0,410.5,365.0,405.0,359.5,413.0,357.5,421.0,367.5,414.5,379.0,415.5,387.0,417.5,394.5,417.5,403.5,417.0,411.5,417.5,419.5,415.5,420.0,418.5,413.5,425.5,413.5,433.5,413.5,441.5,413.5,449.5,413.0,457.0,413.5,465.0,413.5,473.0" stroke="black" stroke-width="2" fill="none" />
<path d="M451.5,499.0,444.0,499.5,436.0,500.0,428.0,500.5,420.5,501.0,412.5,501.5,404.5,502.5,396.5,503.5,388.5,504.0,380.5,504.5,372.0,504.5,363.5,505.0,355.0,505.0,346.5,505.0" stroke="black" stroke-width="2" fill="none" />
<path d="M341.0,501.5,349.0,494.5" stroke="black" stroke-width="2" fill="none" />
<path d="M338.0,491.0,330.0,498.5" stroke="black" stroke-width="2" fill="none" />
<path d="M333.0,503.0,333.0,511.0,333.0,519.0,332.5,527.0,332.0,535.5,332.0,543.5,328.5,552.0,331.0,558.5,325.5,559.5,320.5,567.5,320.5,567.5" stroke="black" stroke-width="2" fill="none" />
<path d="M330.5,566.5,322.0,567.0,314.0,567.0,306.5,567.0,299.0,567.5,291.0,568.0,283.0,569.0,275.5,569.5,267.5,569.5,259.5,570.0,251.0,570.5,243.5,570.5,236.0,571.5,228.5,572.0,221.0,573.0,213.0,574.0,205.5,574.5" stroke="black" stroke-width="2" fill="none" />
<path d="M211.0,573.0,203.0,580.0" stroke="black" stroke-width="2" fill="none" />
<path d="M205.0,583.0,213.0,582.5,220.5,582.0,227.5,581.5,235.0,581.0,242.5,580.0,250.5,580.0,258.5,579.5,266.5,579.0,274.5,578.5,282.0,577.5,290.0,577.0,298.0,577.0,306.0,576.5,314.0,575.5,322.0,575.0,330.0,574.5" stroke="black" stroke-width="2" fill="none" />
<path d="M330.0,573.0,330.5,581.5,330.5,589.5,330.5,597.5,330.5,605.5,330.0,613.5,330.0,622.0,329.5,630.0,329.0,638.0,329.0,646.0,327.5,654.0,320.5,662.0,308.0,666.5" stroke="black" stroke-width="2" fill="none" />
<path d="M284.5,637.5,292.5,637.0,300.0,636.5,307.5,636.0,316.0,636.5,324.0,636.5,332.0,636.5,339.5,636.0,347.5,635.5,355.5,634.5,364.0,633.5,371.5,633.0,379.5,632.5,387.0,632.0,395.0,631.5,403.0,631.0,411.0,630.5,418.5,629.5,426.5,628.5,434.5,628.5,442.0,627.5,451.0,627.0,459.5,626.5" stroke="black" stroke-width="2" fill="none" />
<path d="M451.0,529.5,443.0,530.0,434.5,531.0,426.5,532.0,418.5,532.0,411.0,531.5,403.0,532.0,394.5,533.0,387.0,534.0,379.0,534.5,372.0,534.5,364.0,535.0,355.5,535.5,347.5,536.0" stroke="black" stroke-width="2" fill="none" />
<path d="M348.5,528.0,357.0,527.5,364.0,527.5,371.5,526.5,378.5,526.0,386.0,526.0,393.5,525.5,401.0,525.0,408.5,524.5,417.0,523.5,425.0,523.5,433.5,523.0,441.5,523.0,449.5,523.0" stroke="black" stroke-width="2" fill="none" />
<path d="M451.5,515.5,443.0,515.5,434.0,515.5,425.5,516.0,418.0,516.5,410.5,517.5,402.5,518.0,394.5,518.5,387.0,518.5,379.0,519.0,371.0,519.5,363.5,520.0,356.5,519.5,349.0,520.0" stroke="black" stroke-width="2" fill="none" />
<path d="M342.5,525.0,349.5,524.5,357.0,524.0,364.5,523.0,372.5,523.0,380.0,522.5,388.5,522.5,396.0,522.0,404.0,522.0,412.0,522.0,420.0,522.0,427.5,521.0,435.5,520.5,443.5,520.0,451.5,519.0,459.0,518.5" stroke="black" stroke-width="2" fill="none" />
<path d="M460.0,563.0,451.5,564.0,443.5,564.5,435.5,565.5,428.0,566.5,420.0,567.0,411.5,567.5,403.0,568.5,395.0,568.5,387.0,568.0,379.5,568.5,371.5,569.0,363.5,570.5,355.5,571.0,348.0,571.5,340.0,572.0" stroke="black" stroke-width="2" fill="none" />
<path d="M332.5,571.5,324.5,578.5,316.5,585.5,308.5,593.0,300.0,600.5,292.0,608.0,283.5,615.5" stroke="black" stroke-width="2" fill="none" />
<path d="M292.0,617.0,300.5,609.5,308.5,601.0,317.0,593.0,325.0,585.0,333.0,576.5" stroke="black" stroke-width="2" fill="none" />
<path d="M317.0,579.5,308.5,586.5,300.0,594.0,291.5,601.5,283.0,609.0,275.0,616.0" stroke="black" stroke-width="2" fill="none" />
<path d="M268.0,617.5,276.0,609.5,284.5,602.0,293.0,594.5,301.5,587.0,310.0,579.5" stroke="black" stroke-width="2" fill="none" />
<path d="M309.0,584.5,316.5,584.0" stroke="black" stroke-width="2" fill="none" />
<path d="M307.5,573.5,300.0,581.0,291.5,588.0,283.0,594.5,275.0,601.5,267.0,609.0,259.0,616.5" stroke="black" stroke-width="2" fill="none" />
<path d="M251.0,616.5,260.0,609.5,268.5,602.0,276.5,594.5,284.5,586.5,293.0,579.0,301.0,571.5,308.5,564.0" stroke="black" stroke-width="2" fill="none" />
<path d="M302.0,561.5,294.0,569.0,285.0,576.5,276.5,584.0,268.0,591.5,259.0,598.5,251.0,606.5,243.0,615.0,234.5,623.0,226.5,631.0,219.0,639.0,211.0,646.0" stroke="black" stroke-width="2" fill="none" />
<path d="M209.0,644.5,207.0,653.0,207.5,659.0,216.5,664.0,224.5,667.5,232.5,669.5,242.5,672.0,250.5,676.0,252.5,680.0,261.0,675.5,268.5,676.0,277.0,677.0,285.0,679.5,297.0,669.5,304.5,667.5,313.0,665.5,321.0,663.5,330.0,653.5" stroke="black" stroke-width="2" fill="none" />
<path d="M294.0,627.5,302.0,627.0,309.5,626.5,317.5,626.0,325.5,625.5,333.0,625.5,341.0,625.5,349.0,625.5,357.0,625.5,365.0,625.5,373.0,625.0,381.0,624.5,389.0,624.0,397.0,623.5,404.5,623.5,411.5,623.5,419.5,622.5,427.0,621.5,434.5,620.5,442.5,620.5,450.5,620.0" stroke="black" stroke-width="2" fill="none" />
<path d="M314.0,614.5,306.0,614.5,298.5,614.5,291.0,614.5,283.0,614.5,275.0,615.0,267.5,615.5,260.0,615.5,252.0,616.0,244.5,616.0,237.0,616.5" stroke="black" stroke-width="2" fill="none" />
<path d="M236.5,610.5,244.5,609.5,252.5,609.0,261.0,608.0,269.0,607.0,277.0,606.0,285.0,606.0,292.5,606.0,300.5,606.0,308.5,605.5,316.5,605.5" stroke="black" stroke-width="2" fill="none" />
<path d="M316.5,596.5,308.5,597.5,300.5,598.0,292.5,598.5,285.5,599.0,277.5,599.5,270.0,600.5,262.0,601.0,254.0,601.0,246.5,601.0,238.5,601.5" stroke="black" stroke-width="2" fill="none" />
<path d="M228.5,593.0,236.0,593.0,244.0,592.5,251.5,592.5,259.5,592.5,267.5,592.0,275.0,592.0,283.5,592.0,292.0,591.5,300.0,590.5,308.0,590.0,316.0,589.5" stroke="black" stroke-width="2" fill="none" />
<path d="M291.5,564.0,283.5,571.0,275.5,578.5,267.0,586.0,259.5,594.0,251.0,601.5,242.5,608.5,234.5,616.0,226.5,622.5,217.5,629.0,209.0,636.5,201.5,644.0" stroke="black" stroke-width="2" fill="none" />
<path d="M203.0,637.5,211.5,630.0,219.5,622.0,227.5,615.0,235.5,608.0,243.5,601.0,251.0,593.0,258.5,586.0,266.0,578.5,273.5,571.0,281.0,563.5" stroke="black" stroke-width="2" fill="none" />
<path d="M281.5,556.5,274.5,564.0,267.0,571.0,259.5,578.0,252.0,585.0,244.5,592.0,236.0,599.0,228.0,606.5,219.5,614.0,211.0,621.0,203.0,629.0" stroke="black" stroke-width="2" fill="none" />
<path d="M203.0,623.0,210.5,615.0,218.5,607.0,226.0,599.5,234.0,592.5,242.0,585.0,250.0,577.0,258.0,569.5,266.0,562.5,273.5,554.5" stroke="black" stroke-width="2" fill="none" />
<path d="M267.0,556.5,259.0,563.5,251.0,570.5,243.5,578.0,236.0,585.5,228.0,594.0,220.0,601.5,211.5,608.5,204.0,616.5" stroke="black" stroke-width="2" fill="none" />
<path d="M205.5,618.0,213.5,624.0,221.5,626.5" stroke="black" stroke-width="2" fill="none" />
<path d="M213.5,627.5,221.0,627.0,229.0,625.5,236.5,624.5,244.0,623.5" stroke="black" stroke-width="2" fill="none" />
<path d="M243.0,623.0,251.0,623.0,258.5,624.5,266.5,624.0,274.0,624.0,282.5,622.5,290.5,622.5,287.5,630.5,288.5,638.0" stroke="black" stroke-width="2" fill="none" />
<path d="M289.0,627.5,290.0,635.5,290.0,643.5,289.0,652.0,289.5,660.0,289.5,668.5,287.5,676.5,289.5,684.5,289.5,692.5,289.0,700.5,289.0,708.5,289.0,715.5" stroke="black" stroke-width="2" fill="none" />
<path d="M251.0,684.0,243.0,691.0" stroke="black" stroke-width="2" fill="none" />
<path d="M245.0,691.0,253.0,690.5,260.0,690.0,268.0,689.0,276.0,688.0,283.5,687.0,291.5,686.0" stroke="black" stroke-width="2" fill="none" />
<path d="M241.0,659.0,233.0,666.5" stroke="black" stroke-width="2" fill="none" />
<path d="M227.0,665.0,235.5,657.5,243.0,650.5" stroke="black" stroke-width="2" fill="none" />
<path d="M243.0,641.5,235.0,648.5,227.5,656.0,219.5,663.5" stroke="black" stroke-width="2" fill="none" />
<path d="M219.5,670.0,228.0,670.0,236.5,669.5,244.5,669.0" stroke="black" stroke-width="2" fill="none" />
<path d="M218.5,657.0,226.5,649.5,234.0,642.0,242.0,634.5" stroke="black" stroke-width="2" fill="none" />
<path d="M241.5,626.0,233.5,633.5,226.0,641.5,218.0,649.0,210.5,657.0" stroke="black" stroke-width="2" fill="none" />
<path d="M212.0,663.5,220.0,663.0,227.5,662.0,235.5,661.0,244.0,660.0" stroke="black" stroke-width="2" fill="none" />
<path d="M252.5,626.0,244.5,626.0,236.0,626.5,228.0,626.5,220.5,627.0,213.0,627.5,205.0,628.5,196.5,629.0,187.5,630.0,179.5,631.0,171.0,631.5,162.5,632.5,154.5,633.5,146.5,634.0,138.5,635.0,130.5,635.5,123.0,636.0,115.5,636.5,108.5,637.0,101.0,637.0,93.0,637.0,85.0,637.0,77.0,638.0,69.0,638.5" stroke="black" stroke-width="2" fill="none" />
<path d="M69.5,629.0,77.0,629.0,84.5,628.5,92.0,628.0,99.5,628.0,107.0,628.0,114.5,627.5,121.5,627.0,129.0,626.0,137.0,625.5,145.0,625.0,153.0,624.5,162.0,624.0,170.5,623.0,179.0,623.0,188.0,622.0,196.0,621.5,204.5,621.5,212.5,621.5,220.5,621.5,229.0,621.0,236.5,620.0,244.5,619.5,252.0,618.5" stroke="black" stroke-width="2" fill="none" />
<path d="M242.0,622.0,242.0,630.0,242.0,638.5,242.0,647.0,241.0,655.0,241.0,663.0,241.0,671.0,241.5,679.0,242.0,687.0,242.0,694.5,242.0,702.5,242.0,710.5" stroke="black" stroke-width="2" fill="none" />
<path d="M229.0,710.5,220.5,709.5,212.5,703.5" stroke="black" stroke-width="2" fill="none" />
<path d="M177.5,661.0,169.5,668.5" stroke="black" stroke-width="2" fill="none" />
<path d="M164.0,665.0,172.0,657.5,180.5,650.0,188.5,642.5" stroke="black" stroke-width="2" fill="none" />
<path d="M190.0,633.0,181.5,641.0,173.5,648.5,165.5,656.0,157.0,664.0" stroke="black" stroke-width="2" fill="none" />
<path d="M146.5,667.0,154.5,659.0,162.5,651.5,171.0,644.0,179.0,636.5" stroke="black" stroke-width="2" fill="none" />
<path d="M178.5,629.5,170.5,637.0,162.5,643.5,154.5,650.5,147.0,658.0,139.0,665.0" stroke="black" stroke-width="2" fill="none" />
<path d="M140.5,659.0,132.5,666.5" stroke="black" stroke-width="2" fill="none" />
<path d="M125.0,665.0,132.5,657.0" stroke="black" stroke-width="2" fill="none" />
<path d="M124.0,659.0,116.5,666.5" stroke="black" stroke-width="2" fill="none" />
<path d="M145.0,650.0,153.5,642.5,162.0,635.0,169.5,627.5,177.5,620.0" stroke="black" stroke-width="2" fill="none" />
<path d="M177.5,612.0,169.5,619.5,161.5,626.5,154.0,633.5,147.0,641.0" stroke="black" stroke-width="2" fill="none" />
<path d="M139.5,641.0,147.0,632.5,154.5,624.5,162.5,616.5,170.5,608.5,178.5,601.0" stroke="black" stroke-width="2" fill="none" />
<path d="M178.0,594.5,169.5,602.0,161.0,609.5,153.0,617.5,145.5,625.5,138.0,633.5,130.5,641.0" stroke="black" stroke-width="2" fill="none" />
<path d="M122.0,642.0,130.5,634.0,139.0,626.0,147.0,618.5,155.0,611.0,162.5,603.5,170.0,595.0,177.5,587.5" stroke="black" stroke-width="2" fill="none" />
<path d="M178.5,578.0,170.0,585.5,162.5,593.5,154.0,601.0,146.0,608.5,138.5,616.0,130.0,624.0,122.5,631.5,115.0,640.0" stroke="black" stroke-width="2" fill="none" />
<path d="M107.5,637.0,116.0,630.0,124.0,623.0,132.0,615.5,140.0,607.5,147.5,600.5,155.5,593.0,163.5,585.0,171.0,577.0,179.0,569.5" stroke="black" stroke-width="2" fill="none" />
<path d="M179.5,563.0,171.5,571.0,163.5,578.5,155.0,586.0,146.5,593.0,138.5,600.5,130.5,608.0,122.5,615.5,114.0,623.0,106.5,630.0,99.0,637.5" stroke="black" stroke-width="2" fill="none" />
<path d="M90.5,639.0,98.0,631.0,106.5,623.5,115.0,616.0,123.0,608.5,131.5,601.0,139.5,593.0,147.0,585.5,154.5,578.5,162.5,571.0,170.5,563.5,178.0,555.5" stroke="black" stroke-width="2" fill="none" />
<path d="M179.5,550.0,171.5,557.5,163.0,564.5,155.0,572.0,146.5,579.0,138.0,586.0,130.5,593.0,122.5,600.5,114.5,607.5,107.0,614.5,99.0,622.5,91.0,630.0" stroke="black" stroke-width="2" fill="none" />
<path d="M82.0,629.5,90.5,622.0,99.0,614.5,107.0,607.0,115.0,599.5,123.0,591.5,131.0,584.0,139.0,577.0,147.0,569.5,155.5,563.0,163.5,556.0,171.5,548.5,179.5,541.0" stroke="black" stroke-width="2" fill="none" />
<path d="M178.5,532.5,171.0,540.0,163.5,548.0,155.5,555.5,147.5,562.5,139.0,569.5,131.0,577.0,123.5,585.0,115.5,592.5,108.0,600.0,99.5,607.5,92.0,615.0,84.0,622.5,75.5,629.5" stroke="black" stroke-width="2" fill="none" />
<path d="M75.5,622.5,83.0,615.5,90.5,608.5,98.5,601.0,106.5,593.5,115.5,585.5,123.5,578.0,132.5,570.5,140.0,563.0,147.5,555.5,155.0,547.5,163.0,539.5,171.0,532.0,179.0,524.0" stroke="black" stroke-width="2" fill="none" />
<path d="M179.0,516.5,171.0,524.0,162.5,531.0,154.0,538.5,146.0,546.5,138.0,554.0,130.5,561.5,123.0,569.0,115.5,576.5,107.5,584.0,99.5,591.5,91.5,599.0,83.5,606.5,75.5,613.5,67.0,621.5" stroke="black" stroke-width="2" fill="none" />
<path d="M68.0,623.5,76.0,622.0,83.5,621.5,91.0,620.5,99.0,619.0,106.5,618.5,115.0,618.0,123.0,617.5,131.0,617.0,138.5,616.0,146.5,616.0,154.5,615.5,162.5,615.0,171.0,615.0,179.5,615.5,188.0,615.0" stroke="black" stroke-width="2" fill="none" />
<path d="M203.0,614.5,210.5,614.5,219.0,614.0,227.5,613.0,236.5,612.0,244.5,611.5,252.5,611.0,260.5,610.5,268.5,610.0,276.5,609.0,284.5,608.0,293.0,608.0,301.0,607.5,309.5,607.0,317.5,607.0,325.5,606.5,333.5,606.0,341.5,604.5,349.5,603.5,357.5,602.5,365.5,602.0,373.5,601.5,381.0,601.5,388.5,601.0,396.0,600.5,403.5,600.0,411.5,600.5,419.0,600.5,426.5,600.5,433.5,600.0,441.5,599.5,449.5,599.0,457.5,598.5" stroke="black" stroke-width="2" fill="none" />
<path d="M323.5,550.0,315.0,550.5,307.0,551.0,299.0,552.0,291.5,552.5,283.5,552.5,275.5,552.5,268.0,553.0,260.5,554.0,252.5,555.0,245.0,556.0,236.5,556.5,228.5,557.5,220.5,558.0,212.5,558.5" stroke="black" stroke-width="2" fill="none" />
<path d="M203.5,560.0,211.5,562.5,219.5,564.5,228.0,566.0" stroke="black" stroke-width="2" fill="none" />
<path d="M227.0,561.0,219.0,569.0" stroke="black" stroke-width="2" fill="none" />
<path d="M226.5,571.0,233.5,563.5,241.5,556.0" stroke="black" stroke-width="2" fill="none" />
<path d="M251.5,555.0,243.0,562.0,235.5,569.0" stroke="black" stroke-width="2" fill="none" />
<path d="M237.0,574.5,245.5,574.5,255.5,575.5,263.5,576.0,271.5,576.5,279.5,576.5,288.0,575.5,297.0,574.0,305.0,573.0" stroke="black" stroke-width="2" fill="none" />
<path d="M300.0,562.0,291.5,555.0" stroke="black" stroke-width="2" fill="none" />
<path d="M292.5,556.0,300.5,564.0,295.5,566.5,304.5,566.5,309.5,564.5,317.5,564.0,323.5,555.0" stroke="black" stroke-width="2" fill="none" />
<path d="M333.0,557.5,324.5,557.5,316.5,557.5,309.0,557.5,300.5,557.5,292.0,558.0,284.0,558.0,276.0,558.5,268.0,559.0,260.0,559.5,252.0,560.0,244.5,560.5,236.5,561.5,228.5,562.5,221.0,563.5,213.0,564.5,205.5,565.0" stroke="black" stroke-width="2" fill="none" />
<path d="M206.5,565.5,210.5,568.5" stroke="black" stroke-width="2" fill="none" />
<path d="M205.0,568.5,213.0,573.5,220.5,576.5,229.0,578.0,237.0,579.0,245.0,580.0,253.0,580.5,261.0,581.5,269.0,581.0,278.0,581.0,286.0,581.0,294.0,580.0,302.5,578.5,310.5,576.5,318.5,574.0,326.0,569.0" stroke="black" stroke-width="2" fill="none" />
<path d="M333.0,590.5,325.0,591.5,317.0,592.0,309.0,591.5,301.0,591.5,292.5,591.5,284.0,592.0,276.5,592.5,268.5,593.0,260.5,594.0,252.0,595.0,243.5,595.5,235.5,596.0,227.5,597.0,219.0,598.0,211.0,598.5,203.0,599.5" stroke="black" stroke-width="2" fill="none" />
<path d="M202.5,602.5,211.0,595.5,219.5,587.5,227.5,580.0" stroke="black" stroke-width="2" fill="none" />
<path d="M227.0,581.5,235.0,582.5,243.0,583.0,251.0,584.0,259.0,584.0,267.0,584.5,275.0,585.0,283.0,584.0,291.0,584.0,299.0,582.0,307.0,581.0,315.0,579.0" stroke="black" stroke-width="2" fill="none" />
<path d="M332.5,597.5,325.0,597.5,317.0,598.0,309.0,598.5,301.0,599.0,292.5,600.0,284.0,600.0,276.0,601.0,268.0,601.5,260.0,602.0,252.0,602.0,243.5,603.0,235.5,603.0,227.5,604.0,219.5,604.5,211.5,605.5,203.5,606.0" stroke="black" stroke-width="2" fill="none" />
<path d="M207.5,605.0,206.5,612.5,216.0,616.5" stroke="black" stroke-width="2" fill="none" />
<path d="M209.5,612.0,217.0,617.0,225.0,619.5" stroke="black" stroke-width="2" fill="none" />
<path d="M206.0,610.5,213.5,602.5,221.0,595.0,228.5,587.5,236.5,580.0" stroke="black" stroke-width="2" fill="none" />
<path d="M244.0,571.0,252.5,563.5,261.0,556.0" stroke="black" stroke-width="2" fill="none" />
<path d="M263.0,562.5,257.5,558.0,256.5,564.0,254.5,559.0" stroke="black" stroke-width="2" fill="none" />
<path d="M263.0,564.0,271.0,571.0" stroke="black" stroke-width="2" fill="none" />
<path d="M301.5,545.5,294.0,546.0,286.0,546.0,278.0,546.5,269.5,547.0,261.0,547.0,252.5,547.5,244.5,548.0,236.0,548.5,227.5,549.0,220.0,549.0" stroke="black" stroke-width="2" fill="none" />
<path d="M215.0,549.0,234.5,541.0" stroke="black" stroke-width="2" fill="none" />
<path d="M200.0,554.5,206.0,561.0,209.5,562.5,213.5,567.5,222.0,569.5,230.5,571.5,238.5,572.5,246.5,573.5,254.5,573.0,262.5,574.0,270.5,574.0,278.0,573.0,286.5,573.0,294.5,572.0,303.0,571.0,311.0,569.0,319.0,566.5,331.5,567.5,327.5,575.5,326.5,583.5,326.5,592.0,326.5,600.0,326.0,607.5,321.0,615.5,317.5,616.5" stroke="black" stroke-width="2" fill="none" />
<path d="M331.0,583.0,323.5,583.5,316.0,583.5,308.0,583.5,300.0,583.5,292.0,584.0,284.0,584.0,275.5,585.0,267.0,585.5,259.0,586.5,251.5,587.0,244.0,588.0,235.5,588.5,228.0,589.0,220.5,589.5,212.5,589.5,204.0,590.0" stroke="black" stroke-width="2" fill="none" />
<path d="M203.0,595.0,211.0,587.0,219.0,579.5" stroke="black" stroke-width="2" fill="none" />
<path d="M211.5,580.5,203.5,588.0" stroke="black" stroke-width="2" fill="none" />
<path d="M203.0,621.0,211.0,620.5,219.0,620.5,227.0,620.5,236.0,620.0,244.5,619.5,253.0,619.0,261.5,618.5,269.5,618.0,278.5,617.0,286.5,616.5,294.5,616.0,302.0,616.0,310.0,616.0,318.0,615.5,325.5,614.5,333.5,614.0,340.5,613.5,348.5,613.0,356.5,612.5,364.5,611.5,372.5,611.0,380.0,610.5,387.5,610.0,396.0,610.5,404.0,610.5,412.0,610.5,419.5,610.0,427.5,609.5,435.5,608.5,444.0,607.5,451.5,607.0,459.5,606.5" stroke="black" stroke-width="2" fill="none" />
<path d="M460.0,463.5,452.0,464.5,443.5,465.0,434.5,465.5,426.0,466.0,417.5,466.0,409.5,466.5,401.5,467.0,393.5,467.5,386.0,468.0,378.0,468.5,370.0,469.0,362.0,469.5,354.0,470.5,346.0,471.0,338.0,471.0,330.0,471.5,322.5,472.5,314.5,473.0,306.5,473.5,298.5,474.0,290.5,474.0,283.0,475.0,275.5,475.5,268.5,476.0,261.0,476.5,253.0,477.0,245.0,477.5,237.0,478.0,229.0,478.0,221.5,478.5,213.5,478.5,205.0,478.5,196.0,478.5,188.0,478.5,180.0,479.0,172.0,479.0,163.5,479.5,156.0,480.5,148.0,481.5,140.5,482.0,132.5,483.5,125.0,484.0,117.5,485.0,109.5,486.0,101.5,486.5,93.5,487.5" stroke="black" stroke-width="2" fill="none" />
<path d="M92.0,490.0,84.0,497.5,75.5,505.0,67.5,512.5" stroke="black" stroke-width="2" fill="none" />
<path d="M68.5,515.5,76.5,514.5,85.0,514.5,93.5,514.0,101.5,513.0,109.5,512.5,117.5,511.5,125.5,510.5,133.0,509.5,141.0,508.0,149.0,507.5,157.5,507.0,165.5,507.0,173.0,506.5" stroke="black" stroke-width="2" fill="none" />
<path d="M176.5,503.0,175.5,511.0,175.0,518.5,175.0,526.5,174.5,534.0,175.5,542.0,175.5,549.5,176.0,558.0,175.5,566.0,175.5,573.5,175.5,581.5,175.5,589.5,175.5,598.0,176.0,606.0,176.0,614.5,176.5,623.0,177.5,630.5,177.5,639.0" stroke="black" stroke-width="2" fill="none" />
<path d="M172.5,633.5,164.5,634.5" stroke="black" stroke-width="2" fill="none" />
<path d="M172.5,620.5,164.0,621.5,155.5,622.5,147.5,623.0,140.0,623.5,132.5,624.0,124.5,624.0,116.5,624.0,108.5,624.5,100.5,625.0" stroke="black" stroke-width="2" fill="none" />
<path d="M92.5,618.0,100.5,617.5,108.5,617.5,116.0,616.5,124.0,615.5,131.5,614.5,139.5,614.0,147.5,613.5,155.0,613.0,163.5,612.5,171.5,612.0" stroke="black" stroke-width="2" fill="none" />
<path d="M172.0,604.0,164.0,604.5,156.0,605.0,148.0,605.5,140.0,606.5,132.0,607.0,124.0,608.0,116.0,608.5,108.0,609.5,100.0,610.0,92.0,611.0" stroke="black" stroke-width="2" fill="none" />
<path d="M93.0,603.0,101.0,603.0,109.0,602.0,117.5,601.5,125.5,601.0,133.5,600.0,141.0,599.0,148.0,598.0,155.5,597.5,163.0,597.5,171.0,597.0" stroke="black" stroke-width="2" fill="none" />
<path d="M171.0,588.0,163.5,588.5,155.5,589.5,147.5,590.0,139.5,590.5,131.5,591.0,123.5,591.5,116.0,592.5,108.0,592.5,100.5,593.5,92.5,594.0,84.5,594.5,76.5,595.0" stroke="black" stroke-width="2" fill="none" />
<path d="M67.5,597.0,76.0,589.0,84.0,581.0,91.5,574.0,99.5,566.5,107.5,559.0,115.5,551.5,123.5,544.5,131.0,537.5,139.0,530.5,147.0,523.0,154.5,515.0,162.5,507.0,170.5,499.5,178.5,492.0" stroke="black" stroke-width="2" fill="none" />
<path d="M187.5,491.5,180.0,498.5,172.0,506.0,164.0,513.5,156.5,520.5,148.5,528.0,140.5,535.5,132.0,543.5,124.0,551.5,115.5,559.5,107.0,567.0,99.5,574.5,92.0,582.0,83.5,589.0,75.0,597.0,67.0,604.5" stroke="black" stroke-width="2" fill="none" />
<path d="M66.0,605.0,74.0,604.0,82.5,603.0,91.0,603.0,99.5,603.5,108.0,603.0,116.0,602.0,124.0,601.0,132.0,600.0,139.5,600.0,147.0,599.0,155.0,599.0,163.0,598.5,171.0,598.5,179.5,598.5,188.0,598.0" stroke="black" stroke-width="2" fill="none" />
<path d="M185.5,603.0,178.0,603.5,170.5,604.0,162.5,605.0,154.5,605.5,146.5,606.5,138.5,606.5,130.0,607.0,122.0,607.5,113.5,608.0,106.0,609.0,97.5,609.5,89.0,611.5,81.0,612.5,73.0,614.0,65.0,614.5" stroke="black" stroke-width="2" fill="none" />
<path d="M66.5,616.5,74.5,616.5" stroke="black" stroke-width="2" fill="none" />
<path d="M67.0,612.0,74.5,604.5,82.5,597.5,91.0,591.0,99.0,584.0,107.0,576.0,115.0,567.5,123.0,559.5,131.5,552.0,139.5,544.5,147.5,537.0,155.0,529.5,162.5,522.5,170.5,515.5,178.0,508.5" stroke="black" stroke-width="2" fill="none" />
<path d="M180.5,503.0,172.0,503.5,164.0,504.0,156.0,504.5,148.5,504.0,140.5,504.5,132.5,505.0,124.5,505.5,117.0,506.0,109.0,506.5,101.5,507.0,93.5,507.5,85.5,507.5,77.0,508.0,68.5,508.0,60.5,508.5" stroke="black" stroke-width="2" fill="none" />
<path d="M61.0,516.0,69.0,515.5,76.0,515.0,84.0,514.5,92.0,514.5,99.5,514.0,107.5,514.0,115.5,514.0,124.0,514.0,132.0,513.5,140.0,512.5,148.5,512.5,156.5,512.5,164.0,512.5,172.0,511.5,180.0,511.0,187.5,511.0" stroke="black" stroke-width="2" fill="none" />
<path d="M187.0,505.0,187.0,512.5,187.0,520.5,187.0,528.5,187.0,537.0,186.5,545.5,186.0,553.5,186.0,561.5,185.5,569.5,185.5,577.5,185.5,585.0,185.5,593.0,185.5,600.5,185.5,608.5,186.0,616.5,187.0,624.0,187.5,632.0,186.0,639.5,184.0,647.5,181.5,655.5,178.5,663.5,182.5,666.5,190.5,665.0" stroke="black" stroke-width="2" fill="none" />
<path d="M179.5,583.5,171.5,583.5,164.0,584.0,156.0,584.5,148.5,584.5,140.0,585.5,132.0,586.0,123.5,586.5,115.0,587.0,107.0,587.0,98.5,587.5,90.5,588.5,83.0,589.5,75.5,590.0,68.0,590.0" stroke="black" stroke-width="2" fill="none" />
<path d="M67.0,590.0,74.0,582.5,82.0,574.5,90.0,567.0,98.5,559.5,106.5,552.0,115.0,544.5,122.5,537.0,130.5,530.0,139.0,523.0,146.5,515.5,154.0,508.0,161.5,501.0,169.5,493.5" stroke="black" stroke-width="2" fill="none" />
<path d="M162.5,492.5,154.0,500.0,146.5,506.5,138.5,513.5,130.5,520.5,123.0,527.5,115.0,535.0,107.0,542.5,98.5,550.0,91.0,558.0,83.0,565.5,74.5,573.0,66.5,580.5" stroke="black" stroke-width="2" fill="none" />
<path d="M66.0,579.0,74.0,578.0,82.5,577.5,90.5,577.0,99.0,577.0,107.0,576.0,115.0,576.0,123.5,575.0,131.5,574.5,140.0,574.0,148.0,573.5,155.5,572.5,163.0,572.0,170.5,571.5" stroke="black" stroke-width="2" fill="none" />
<path d="M171.5,578.5,163.5,579.0,155.5,579.0,147.0,579.5,139.5,580.5,131.5,582.0,123.5,582.5,115.0,583.5,107.5,584.0,99.0,585.0,91.5,586.0,84.0,586.5,76.0,587.5,68.0,588.5" stroke="black" stroke-width="2" fill="none" />
<path d="M68.0,585.0,76.0,584.0,83.5,583.5,91.0,582.5,99.0,581.0,107.0,580.0,115.0,578.5,123.0,577.5,130.5,576.5,139.0,575.5,147.0,575.0,155.0,574.5,163.0,574.0,171.5,574.0,179.5,574.0" stroke="black" stroke-width="2" fill="none" />
<path d="M170.5,563.5,163.0,564.5,155.0,565.0,147.0,566.0,139.0,566.5,131.5,567.0,123.5,567.5,115.0,568.0,107.0,568.5,99.0,568.5,91.0,569.0,82.5,569.0,74.0,569.0,65.5,569.0" stroke="black" stroke-width="2" fill="none" />
<path d="M69.5,573.5,78.0,565.5,86.0,558.0,93.5,551.0,101.0,543.5,108.0,536.0,116.0,529.0,123.5,521.5,131.5,514.0,139.5,506.5,147.5,499.0,156.0,492.0" stroke="black" stroke-width="2" fill="none" />
<path d="M148.5,491.0,140.5,498.5,132.0,505.5,124.0,513.5,115.5,521.5,107.5,529.0,99.5,536.5,91.5,544.5,83.5,552.0,75.5,559.0,67.5,566.5" stroke="black" stroke-width="2" fill="none" />
<path d="M67.0,561.0,74.5,560.5,82.5,560.5,91.0,560.5,99.0,560.5,107.5,560.5,115.5,560.5,124.0,560.0,132.0,559.5,140.0,559.0,148.0,559.0,156.0,558.5,164.0,557.5,171.5,556.5" stroke="black" stroke-width="2" fill="none" />
<path d="M173.0,549.0,165.0,549.5,157.5,550.5,149.5,550.5,141.5,551.5,133.5,552.0,125.0,552.0,116.5,552.0,108.0,551.5,99.5,552.0,91.0,552.0,82.5,552.5,74.5,552.5,66.0,552.5" stroke="black" stroke-width="2" fill="none" />
<path d="M67.0,560.0,74.5,552.5,82.5,545.0,91.0,537.5,98.5,530.0,107.0,522.0,115.5,514.5,123.5,507.0,131.5,499.0,139.5,491.0" stroke="black" stroke-width="2" fill="none" />
<path d="M132.5,491.0,125.0,498.0,117.0,505.5,108.5,513.0,100.5,520.5,92.0,527.5,83.0,535.0,75.0,542.0,66.5,549.0" stroke="black" stroke-width="2" fill="none" />
<path d="M66.0,543.0,74.5,535.0,82.5,527.5,90.5,520.0,98.5,512.0,106.5,504.0,115.0,497.0,123.5,489.0" stroke="black" stroke-width="2" fill="none" />
<path d="M116.5,490.5,108.0,497.5,100.0,505.5,91.5,513.5,83.5,521.0,75.0,529.0,67.0,536.5" stroke="black" stroke-width="2" fill="none" />
<path d="M67.0,537.5,75.0,537.0,82.5,536.0,90.5,535.5,99.0,535.5,107.0,535.5,115.0,535.5,123.5,535.5,131.5,535.5,140.5,535.0,149.0,534.5,156.5,534.0,164.5,533.0,172.0,532.0" stroke="black" stroke-width="2" fill="none" />
<path d="M171.0,540.5,162.5,541.5,154.5,542.0,147.0,542.5,139.0,543.0,131.0,543.5,123.5,544.0,116.0,544.0,108.0,544.5,100.0,545.5,92.5,545.5,84.5,545.5,76.0,545.5" stroke="black" stroke-width="2" fill="none" />
<path d="M59.0,541.5,67.0,541.5,75.0,541.5,83.0,541.0,91.0,540.5,98.5,540.0,107.0,539.5,115.5,539.0,124.0,539.0,132.5,539.0,141.0,538.0,149.0,538.0,157.0,537.0,165.5,536.5,173.5,536.0,181.5,535.0" stroke="black" stroke-width="2" fill="none" />
<path d="M171.5,524.5,163.5,525.5,155.5,526.5,147.5,527.0,139.5,527.5,131.5,527.0,123.0,527.5,114.0,528.0,106.0,528.5,98.0,528.5,90.0,528.5,82.5,528.5,74.5,529.5,67.0,530.0" stroke="black" stroke-width="2" fill="none" />
<path d="M67.5,528.0,75.5,520.5,83.5,513.0,91.5,506.0,100.0,499.0,108.0,492.0" stroke="black" stroke-width="2" fill="none" />
<path d="M101.0,491.5,92.5,499.0,83.5,506.5,75.5,514.5,67.0,521.5" stroke="black" stroke-width="2" fill="none" />
<path d="M67.0,520.5,75.5,520.0,83.5,520.0,92.0,520.0,100.5,519.5,108.5,518.5,116.5,518.5,124.5,518.0,132.0,517.5,140.0,517.5,148.0,517.5,155.5,517.0,163.0,516.0,171.0,515.5" stroke="black" stroke-width="2" fill="none" />
<path d="M176.5,502.0,184.5,502.0,192.5,501.0,200.5,501.0,208.5,500.5,217.0,500.5,224.5,501.0,232.5,501.5,240.0,501.5,248.0,502.0,256.0,502.5,264.0,502.0,272.0,502.0,280.0,502.0,288.0,501.5,296.0,501.5,304.5,501.5,312.5,501.0,320.5,501.0,328.5,501.0,336.5,501.0,341.0,505.0,341.0,513.0,341.0,521.5,341.0,530.0,341.0,538.0,341.0,546.0,341.0,554.0,341.0,562.0,340.5,570.0,340.5,578.0,340.5,586.0,341.0,593.5,340.5,601.5,341.0,609.0,341.0,617.0,341.0,624.5,341.0,633.0,341.0,641.0,341.0,648.5,341.0,656.5,340.0,664.5,344.5,667.5,352.5,667.5,360.0,667.5,368.0,668.0,375.5,665.5,383.0,666.0,391.0,666.0,399.0,666.0,407.0,666.0,415.0,666.0,423.5,666.5,431.5,666.5,440.0,666.5,448.0,666.5,456.5,666.5,464.5,666.5" stroke="black" stroke-width="2" fill="none" />
<path d="M451.5,474.0,443.5,474.0,435.0,474.5,426.5,474.5,419.0,474.5,411.5,475.0,403.5,475.5,396.0,476.0,388.0,476.5,380.0,477.0,372.0,477.5,364.0,478.0,355.5,479.0,347.5,479.5,340.0,480.5,332.5,481.5,325.0,482.5,317.0,484.0,309.5,484.5,301.5,485.0,293.5,484.5,285.5,484.5,277.0,485.0,268.5,486.0,260.5,486.0,252.5,486.5,244.5,487.0,237.0,488.0,228.5,489.0,221.0,490.0,212.5,490.5,204.0,490.5,196.0,490.5,188.0,490.5,180.0,491.0,172.0,491.0,164.5,491.0,157.0,491.5,148.5,491.5,140.5,492.5,132.5,493.0,124.0,493.0,115.5,493.5,107.5,493.5,99.5,494.5,91.0,495.0,83.5,495.5,76.0,496.0,68.0,497.0" stroke="black" stroke-width="2" fill="none" />
<path d="M69.5,501.0,78.0,493.5" stroke="black" stroke-width="2" fill="none" />
<path d="M83.5,490.5,76.0,498.0,68.0,506.0" stroke="black" stroke-width="2" fill="none" />
<path d="M76.5,505.5,84.5,505.0,92.0,505.5,100.0,505.0,108.0,504.5,116.5,504.0,124.0,504.0,131.0,503.5,138.5,502.5,146.0,502.0,154.0,501.5,162.0,501.0,171.0,500.5,179.5,499.5" stroke="black" stroke-width="2" fill="none" />
<path d="M194.5,498.0,203.0,490.5" stroke="black" stroke-width="2" fill="none" />
<path d="M197.0,490.0,188.5,497.5" stroke="black" stroke-width="2" fill="none" />
<path d="M210.5,499.0,219.0,491.5" stroke="black" stroke-width="2" fill="none" />
<path d="M218.5,498.5,227.0,490.5" stroke="black" stroke-width="2" fill="none" />
<path d="M236.5,493.0,228.0,500.5" stroke="black" stroke-width="2" fill="none" />
<path d="M244.0,499.0,252.0,491.5" stroke="black" stroke-width="2" fill="none" />
<path d="M258.5,492.0,250.0,499.5" stroke="black" stroke-width="2" fill="none" />
<path d="M249.5,504.0,250.5,512.0,249.5,520.5,249.5,529.0,249.5,536.5" stroke="black" stroke-width="2" fill="none" />
<path d="M248.0,538.5,240.0,540.0,232.0,542.0,224.0,545.0,216.0,548.0,208.5,554.0,200.5,549.5,193.0,549.5,185.0,550.5" stroke="black" stroke-width="2" fill="none" />
<path d="M185.0,555.5,193.0,552.5,195.5,549.0,204.5,557.0,203.5,565.5,200.5,573.5,201.0,581.0,201.0,589.0,201.5,596.5,201.5,604.5,202.5,612.5,203.0,620.5,203.0,628.5,203.0,636.5,203.0,644.5,203.0,652.0,207.5,660.0,210.5,667.5,210.0,675.5,210.0,684.0,210.0,692.0,211.0,700.0,217.0,708.0,223.0,710.5,231.0,713.0,239.0,712.0,241.0,715.0,249.0,714.5,256.5,714.0,264.5,713.5,272.5,713.5,280.5,712.5,288.5,713.5,291.5,716.0,299.5,712.0,301.5,714.0,306.5,712.0,314.5,707.5,311.0,705.5" stroke="black" stroke-width="2" fill="none" />
<path d="M244.0,643.0,236.5,643.5,228.5,643.5,220.5,644.5,213.0,645.0,205.0,645.5,196.5,646.5,187.5,647.0,179.5,647.5,171.0,648.0,163.0,648.0,155.0,648.0,147.5,648.0,139.5,648.5,131.5,649.0,123.5,649.5,115.0,649.5,107.0,649.5,98.5,650.0,90.5,650.5,83.0,651.0,75.0,651.5,66.5,651.5,58.5,652.0" stroke="black" stroke-width="2" fill="none" />
<path d="M59.5,646.0,68.0,645.5,75.5,644.5,83.5,644.0,92.0,644.0,100.0,643.5,108.5,643.0,116.5,642.0,125.0,641.5,133.5,642.0,141.5,641.5,149.5,641.0,157.5,640.0,165.0,639.0,172.5,638.5,180.5,637.5,188.5,637.5,196.5,637.0,204.5,636.5,213.0,636.0,221.5,636.0,229.5,635.5,236.5,635.0,244.0,634.5" stroke="black" stroke-width="2" fill="none" />
<path d="M180.0,590.5,172.5,591.0,164.5,591.0,156.5,591.0,148.5,591.5,140.5,592.0,132.5,592.5,124.5,593.0,116.0,593.5,107.5,594.0,99.0,594.5,91.0,595.0,84.0,596.0,76.5,596.5,69.0,597.5,61.0,598.0" stroke="black" stroke-width="2" fill="none" />
<path d="M65.5,601.0,74.0,600.5" stroke="black" stroke-width="2" fill="none" />
<path d="M73.5,607.5,65.5,608.5" stroke="black" stroke-width="2" fill="none" />
<path d="M60.0,575.0,68.0,574.5,76.5,573.0,85.0,572.0,93.0,571.0,101.0,570.0,109.0,569.5,116.5,569.0,124.0,568.5,131.5,567.5,139.5,567.0,148.0,567.0,156.0,566.5,164.0,566.0,172.0,566.0,179.5,565.0" stroke="black" stroke-width="2" fill="none" />
<path d="M203.5,499.0,211.5,491.5" stroke="black" stroke-width="2" fill="none" />
<path d="M225.5,476.5,233.5,469.0" stroke="black" stroke-width="2" fill="none" />
<path d="M226.0,468.0,218.5,476.0" stroke="black" stroke-width="2" fill="none" />
<path d="M212.0,476.0,219.5,468.5" stroke="black" stroke-width="2" fill="none" />
<path d="M218.5,462.0,210.5,469.5,203.0,476.5" stroke="black" stroke-width="2" fill="none" />
<path d="M194.0,475.5,202.0,467.5,210.0,460.0" stroke="black" stroke-width="2" fill="none" />
<path d="M211.5,450.5,203.5,458.5,195.5,466.5,187.5,474.5" stroke="black" stroke-width="2" fill="none" />
<path d="M187.0,474.5,195.5,474.0" stroke="black" stroke-width="2" fill="none" />
<path d="M180.0,473.5,187.5,465.5,195.5,458.0,203.5,450.5" stroke="black" stroke-width="2" fill="none" />
<path d="M206.0,442.5,197.5,450.5,189.0,458.0,180.0,466.0" stroke="black" stroke-width="2" fill="none" />
<path d="M179.5,459.0,187.5,451.5" stroke="black" stroke-width="2" fill="none" />
<path d="M189.5,443.0,197.5,435.0" stroke="black" stroke-width="2" fill="none" />
<path d="M198.0,437.0,206.0,444.0,213.5,449.0,221.5,453.5,229.5,457.5,237.5,459.5,245.5,461.5,254.0,462.5,262.5,462.5,270.5,461.5,278.5,460.5,287.0,457.5,295.0,454.5,303.0,450.0,311.0,445.0,319.0,438.5,327.0,430.0,335.0,418.0,342.5,400.5" stroke="black" stroke-width="2" fill="none" />
<path d="M331.0,398.5,323.0,399.0" stroke="black" stroke-width="2" fill="none" />
<path d="M324.0,390.5,331.5,390.0,339.5,389.5" stroke="black" stroke-width="2" fill="none" />
<path d="M331.5,373.0,340.0,372.5,348.0,372.5,356.0,372.5,363.5,372.0,371.5,371.0,379.5,370.5,387.5,370.0,396.0,369.0" stroke="black" stroke-width="2" fill="none" />
<path d="M412.5,412.0,421.5,420.0,421.5,428.0,421.0,436.5,421.0,444.5,421.0,452.5,421.0,461.0,422.0,467.5,430.5,467.5,438.5,472.0" stroke="black" stroke-width="2" fill="none" />
<path d="M459.5,477.0,451.0,478.0,443.0,478.5,435.5,478.5,428.5,478.5,421.0,478.5,413.0,479.0,405.0,479.0,396.5,479.5,388.5,480.0,380.5,481.0,372.0,481.0,364.0,481.5,356.0,482.5,348.5,483.5,340.0,484.0,332.0,485.0,324.5,485.0,316.5,485.0,308.0,485.5,300.0,485.5,292.5,486.0,285.0,486.5,277.0,487.5,268.5,488.0,259.5,489.0,251.5,490.0,243.0,490.5,234.5,491.5,226.5,492.5,218.5,493.0,210.5,494.0,202.5,494.5,195.0,495.0,187.5,495.5,180.5,496.0,173.0,496.0,165.0,496.0,157.0,496.0,149.0,497.0,141.0,497.5,133.0,498.0,125.5,498.0,117.5,498.5,110.0,499.0,102.5,499.0,94.0,499.5,85.5,499.5,77.5,499.0,69.5,499.0,61.5,499.5" stroke="black" stroke-width="2" fill="none" />
<path d="M60.0,493.5,68.0,492.5,76.5,492.0,84.5,491.0,93.0,490.5,101.0,490.0,109.0,489.5,117.0,490.0,125.0,489.5,133.5,489.0,141.5,488.0,149.0,488.0,156.5,487.5,164.0,487.0,171.5,487.0,179.0,487.0,186.5,486.5,193.5,486.0,201.0,485.0,209.0,484.5,217.0,484.0,225.0,483.5,234.0,483.0,242.5,482.0,251.0,482.0,260.0,481.0,268.0,480.5,276.5,480.5,284.5,480.5,292.5,480.5,301.0,480.0,308.5,479.0,316.5,478.5,324.0,477.5,332.5,477.0,341.0,476.5,349.0,475.5,357.0,475.0,365.0,474.5,373.0,474.0,381.0,474.0,388.5,473.5,396.5,472.0,404.0,471.0,412.5,470.5,420.0,469.5,428.0,469.5,436.0,469.5,444.0,470.0,452.0,470.0,460.0,470.0" stroke="black" stroke-width="2" fill="none" />
<path d="M408.0,468.5,409.0,460.5,408.5,452.0,408.5,444.0,408.5,436.0,408.5,428.0,410.0,420.0" stroke="black" stroke-width="2" fill="none" />
<path d="M348.0,435.5,340.0,443.0" stroke="black" stroke-width="2" fill="none" />
<path d="M342.0,443.0,341.0,442.0,341.5,449.5,348.5,451.5,344.5,457.0,344.0,465.0,344.0,472.5,343.5,481.5,346.5,479.0,354.5,480.0,362.5,480.0,370.5,480.0,378.5,480.0" stroke="black" stroke-width="2" fill="none" />
<path d="M337.0,465.5,329.5,473.0" stroke="black" stroke-width="2" fill="none" />
<path d="M322.0,473.5,330.0,466.0,338.0,459.0" stroke="black" stroke-width="2" fill="none" />
<path d="M335.5,457.5,341.0,462.5,341.0,470.5" stroke="black" stroke-width="2" fill="none" />
<path d="M331.0,451.5,323.0,459.0,315.0,466.5,307.0,473.5" stroke="black" stroke-width="2" fill="none" />
<path d="M315.5,472.0,323.0,464.5,330.5,456.5,338.5,448.5" stroke="black" stroke-width="2" fill="none" />
<path d="M341.0,440.5,349.5,437.0,357.5,434.5" stroke="black" stroke-width="2" fill="none" />
<path d="M348.5,441.0,344.5,449.0,338.5,461.5,337.0,469.5,339.0,473.0" stroke="black" stroke-width="2" fill="none" />
<path d="M332.0,491.5,324.0,498.5" stroke="black" stroke-width="2" fill="none" />
<path d="M322.5,489.5,314.5,497.0" stroke="black" stroke-width="2" fill="none" />
<path d="M309.0,498.5,317.0,491.0" stroke="black" stroke-width="2" fill="none" />
<path d="M309.5,489.0,301.5,497.0" stroke="black" stroke-width="2" fill="none" />
<path d="M301.5,489.0,293.0,496.5" stroke="black" stroke-width="2" fill="none" />
<path d="M291.0,489.5,283.0,497.0" stroke="black" stroke-width="2" fill="none" />
<path d="M283.5,493.0,275.5,500.5" stroke="black" stroke-width="2" fill="none" />
<path d="M266.5,498.0,274.0,490.5" stroke="black" stroke-width="2" fill="none" />
<path d="M267.0,492.0,259.0,499.5" stroke="black" stroke-width="2" fill="none" />
<path d="M259.5,504.0,259.5,512.5,259.5,521.0,259.5,529.0,259.5,537.0,266.5,538.0,276.0,539.0,284.0,540.0,292.0,541.0,299.5,543.0,307.5,545.0,315.5,549.0,324.0,552.5,331.0,552.5" stroke="black" stroke-width="2" fill="none" />
<path d="M310.0,546.5,325.5,559.0,325.5,563.0,309.5,572.5" stroke="black" stroke-width="2" fill="none" />
<path d="M317.5,478.5,326.0,479.5" stroke="black" stroke-width="2" fill="none" />
<path d="M299.0,471.5,307.0,464.5,315.5,457.5,323.5,450.0" stroke="black" stroke-width="2" fill="none" />
<path d="M318.0,452.0,310.0,459.0,301.5,466.5,293.5,474.0" stroke="black" stroke-width="2" fill="none" />
<path d="M283.0,473.5,291.0,466.0,299.5,458.5" stroke="black" stroke-width="2" fill="none" />
<path d="M290.5,456.0,298.5,455.0,307.0,454.5,315.0,453.5,323.0,452.5,331.0,452.0,338.5,451.5,346.5,451.0" stroke="black" stroke-width="2" fill="none" />
<path d="M346.5,440.5,338.5,441.0,331.0,441.5,323.5,442.5,316.0,443.0,308.5,443.5" stroke="black" stroke-width="2" fill="none" />
<path d="M302.0,442.0,286.0,450.0" stroke="black" stroke-width="2" fill="none" />
<path d="M277.0,438.0,284.5,437.0,292.0,436.0,299.5,435.0,307.5,434.5" stroke="black" stroke-width="2" fill="none" />
<path d="M299.5,431.0,307.5,429.5,315.5,428.5" stroke="black" stroke-width="2" fill="none" />
<path d="M307.5,421.0,315.5,420.0,323.5,419.0" stroke="black" stroke-width="2" fill="none" />
<path d="M323.5,411.5,315.5,412.0" stroke="black" stroke-width="2" fill="none" />
<path d="M316.0,406.0,323.5,405.5,331.5,405.0" stroke="black" stroke-width="2" fill="none" />
<path d="M337.5,381.5,329.5,382.0,321.5,382.5" stroke="black" stroke-width="2" fill="none" />
<path d="M336.5,371.0,344.0,370.0" stroke="black" stroke-width="2" fill="none" />
<path d="M330.5,348.5,322.5,349.0" stroke="black" stroke-width="2" fill="none" />
<path d="M325.0,340.5,332.5,340.0" stroke="black" stroke-width="2" fill="none" />
<path d="M325.0,333.5,317.5,334.5" stroke="black" stroke-width="2" fill="none" />
<path d="M315.5,327.5,323.5,326.5" stroke="black" stroke-width="2" fill="none" />
<path d="M325.0,308.5,333.0,308.0,340.5,308.0,348.0,307.5" stroke="black" stroke-width="2" fill="none" />
<path d="M348.0,294.0,356.0,293.0,364.0,292.5,372.5,292.5" stroke="black" stroke-width="2" fill="none" />
<path d="M371.5,300.0,363.5,300.5,355.5,300.5,347.5,301.0,340.0,302.0,332.5,303.0" stroke="black" stroke-width="2" fill="none" />
<path d="M321.5,303.0,314.0,304.0" stroke="black" stroke-width="2" fill="none" />
<path d="M315.0,315.5,307.0,316.0" stroke="black" stroke-width="2" fill="none" />
<path d="M307.0,310.0,298.5,310.5,290.0,311.5" stroke="black" stroke-width="2" fill="none" />
<path d="M284.5,302.5,276.5,303.0" stroke="black" stroke-width="2" fill="none" />
<path d="M276.0,305.5,284.0,305.0,284.0,308.0,292.0,311.0,301.0,314.5,309.0,321.5,317.5,330.5,325.5,344.0" stroke="black" stroke-width="2" fill="none" />
<path d="M324.0,292.0,316.0,292.5,307.5,293.0" stroke="black" stroke-width="2" fill="none" />
<path d="M300.5,277.5,292.5,278.5" stroke="black" stroke-width="2" fill="none" />
<path d="M284.5,265.5,276.5,266.0,268.5,267.0,260.5,268.0,252.0,269.0,244.0,270.0" stroke="black" stroke-width="2" fill="none" />
<path d="M249.5,274.5,257.5,274.0,266.0,274.0" stroke="black" stroke-width="2" fill="none" />
<path d="M259.0,273.5,267.0,266.0,274.5,258.5,282.5,251.5" stroke="black" stroke-width="2" fill="none" />
<path d="M275.0,250.5,267.0,258.5,259.5,266.5,251.5,274.5" stroke="black" stroke-width="2" fill="none" />
<path d="M250.5,279.5,258.5,278.5,267.0,278.0,275.5,277.5" stroke="black" stroke-width="2" fill="none" />
<path d="M267.0,274.5,275.0,267.0" stroke="black" stroke-width="2" fill="none" />
<path d="M276.0,244.0,267.5,251.0,259.0,259.0,250.5,266.5" stroke="black" stroke-width="2" fill="none" />
<path d="M251.0,259.5,259.0,252.0,267.5,244.0,275.0,236.5" stroke="black" stroke-width="2" fill="none" />
<path d="M283.0,220.0,275.0,227.0,267.5,234.0,260.0,241.5,252.0,248.5" stroke="black" stroke-width="2" fill="none" />
<path d="M251.5,249.5,259.5,249.0,267.0,249.0" stroke="black" stroke-width="2" fill="none" />
<path d="M268.5,241.5,260.5,242.0,252.0,242.5" stroke="black" stroke-width="2" fill="none" />
<path d="M253.0,235.5,261.5,228.0,269.5,221.0,277.5,214.0" stroke="black" stroke-width="2" fill="none" />
<path d="M277.0,211.0,274.0,218.5,271.0,226.5,271.0,234.5,271.5,243.0,271.5,251.0,271.5,259.5,271.5,268.0" stroke="black" stroke-width="2" fill="none" />
<path d="M292.5,258.0,284.5,258.5,277.0,258.5,269.0,259.0,261.0,259.5,253.0,260.0,244.5,261.0,236.0,261.0" stroke="black" stroke-width="2" fill="none" />
<path d="M236.0,253.0,244.5,252.5,253.0,252.5,261.0,252.5,269.0,253.0,277.0,252.5,285.0,251.5,292.5,251.0,300.5,250.5" stroke="black" stroke-width="2" fill="none" />
<path d="M297.0,244.0,305.0,243.0,304.5,243.0,296.5,248.0,292.5,256.0,287.0,259.0,281.0,267.0,271.5,275.5" stroke="black" stroke-width="2" fill="none" />
<path d="M286.5,293.0,303.5,301.0,314.5,309.5,322.5,317.5,328.5,325.5,334.5,333.5,338.5,341.5,341.0,349.5,344.0,358.0,345.0,366.0,349.0,376.0,346.0,384.0,344.0,392.5,342.0,401.0,339.0,409.0,335.0,417.0,330.0,425.0,324.5,433.0,315.0,439.0,303.0,446.5,285.0,454.5,281.0,452.5,288.5,450.5,296.5,447.0,304.0,443.0,317.0,433.0,325.0,424.0,333.0,411.0" stroke="black" stroke-width="2" fill="none" />
<path d="M282.0,469.0,274.0,476.5" stroke="black" stroke-width="2" fill="none" />
<path d="M267.0,473.5,274.5,465.0" stroke="black" stroke-width="2" fill="none" />
<path d="M267.5,469.0,259.5,476.0" stroke="black" stroke-width="2" fill="none" />
<path d="M258.0,468.5,250.0,476.0" stroke="black" stroke-width="2" fill="none" />
<path d="M243.5,475.5,251.0,468.0" stroke="black" stroke-width="2" fill="none" />
<path d="M244.0,469.0,236.0,476.5" stroke="black" stroke-width="2" fill="none" />
<path d="M243.0,493.0,235.0,500.0" stroke="black" stroke-width="2" fill="none" />
<path d="M229.5,450.5,221.0,451.0,212.5,452.0,204.5,452.0,196.5,452.5,188.5,453.0,181.0,454.0,172.5,455.0" stroke="black" stroke-width="2" fill="none" />
<path d="M176.0,453.5,184.0,453.5,190.0,456.0" stroke="black" stroke-width="2" fill="none" />
<path d="M179.0,443.5,187.0,436.0" stroke="black" stroke-width="2" fill="none" />
<path d="M187.0,428.5,179.0,436.0" stroke="black" stroke-width="2" fill="none" />
<path d="M174.5,441.0,175.5,449.0,174.0,457.0,174.0,464.5,172.5,472.0" stroke="black" stroke-width="2" fill="none" />
<path d="M172.5,469.5,180.0,469.5,188.0,469.5,196.5,469.5,204.5,469.0,212.5,469.0,220.5,468.0,228.0,467.5,235.5,466.5,244.0,466.0,252.0,465.5,260.0,465.0,268.0,464.5,276.0,464.0,283.5,463.5,291.5,463.0,299.0,462.0,307.0,460.5,315.0,459.5,323.5,458.0,331.5,457.0,339.5,457.0,348.0,457.0" stroke="black" stroke-width="2" fill="none" />
<path d="M290.5,441.5,283.0,442.5,275.0,443.0,267.0,443.5,259.0,444.0,251.5,444.0,243.0,444.5,234.5,445.0,226.5,445.0" stroke="black" stroke-width="2" fill="none" />
<path d="M235.5,437.0,227.0,437.5,219.0,437.5,211.0,438.0" stroke="black" stroke-width="2" fill="none" />
<path d="M204.5,429.0,212.0,428.5,220.5,428.0" stroke="black" stroke-width="2" fill="none" />
<path d="M212.0,419.5,204.0,420.0,195.5,420.5" stroke="black" stroke-width="2" fill="none" />
<path d="M193.5,412.0,201.5,411.5" stroke="black" stroke-width="2" fill="none" />
<path d="M196.5,407.5,189.0,408.0" stroke="black" stroke-width="2" fill="none" />
<path d="M188.0,398.0,196.5,397.5" stroke="black" stroke-width="2" fill="none" />
<path d="M189.5,393.0,197.0,410.5,205.5,421.5,213.5,430.0,221.5,436.0,229.5,440.5,237.5,443.5,245.0,445.5,252.5,446.5,260.5,446.5,268.5,445.5,276.5,443.0" stroke="black" stroke-width="2" fill="none" />
<path d="M271.0,447.5,263.5,447.5" stroke="black" stroke-width="2" fill="none" />
<path d="M258.5,453.0,266.0,455.0" stroke="black" stroke-width="2" fill="none" />
<path d="M211.0,445.0,203.0,445.5,195.0,445.5,186.5,445.5,178.0,446.0,170.0,446.0" stroke="black" stroke-width="2" fill="none" />
<path d="M163.5,444.0,156.0,445.0,148.5,446.0,140.5,447.0,133.0,447.5" stroke="black" stroke-width="2" fill="none" />
<path d="M131.5,444.0,139.5,443.5,147.5,442.5,155.5,441.5" stroke="black" stroke-width="2" fill="none" />
<path d="M157.0,450.0,149.0,450.5,141.5,451.5,133.5,451.5" stroke="black" stroke-width="2" fill="none" />
<path d="M131.0,451.0,139.5,443.0,147.5,435.0,156.0,427.5" stroke="black" stroke-width="2" fill="none" />
<path d="M164.0,428.0,156.0,435.5,147.5,443.0,139.0,450.0,131.0,457.0" stroke="black" stroke-width="2" fill="none" />
<path d="M132.0,456.0,140.0,455.5,148.0,454.5,155.5,453.5,163.5,453.0" stroke="black" stroke-width="2" fill="none" />
<path d="M162.5,451.0,161.5,455.0" stroke="black" stroke-width="2" fill="none" />
<path d="M153.5,452.0,145.5,459.5,137.5,467.0" stroke="black" stroke-width="2" fill="none" />
<path d="M139.5,466.0,147.5,465.5,155.5,465.0" stroke="black" stroke-width="2" fill="none" />
<path d="M153.5,466.0,145.5,473.0,137.5,480.5" stroke="black" stroke-width="2" fill="none" />
<path d="M138.0,474.5,145.0,467.5,152.5,460.0" stroke="black" stroke-width="2" fill="none" />
<path d="M155.0,471.5,147.0,472.0,139.0,472.0" stroke="black" stroke-width="2" fill="none" />
<path d="M138.5,474.0,146.5,473.5" stroke="black" stroke-width="2" fill="none" />
<path d="M154.5,476.0,146.5,483.5" stroke="black" stroke-width="2" fill="none" />
<path d="M157.5,480.5,165.5,480.5,173.5,479.0" stroke="black" stroke-width="2" fill="none" />
<path d="M171.0,478.0,179.5,477.5,187.5,476.5,195.5,476.0,202.5,475.5,210.5,475.0,218.5,474.5,227.0,474.0,235.0,474.0,242.5,474.0,250.5,473.0,258.5,472.5,266.5,471.5,274.0,471.0,282.0,470.5,290.0,470.5,298.0,469.5,306.5,469.0,314.5,469.0,323.0,468.5,331.5,468.0,339.0,467.5,347.0,467.5" stroke="black" stroke-width="2" fill="none" />
<path d="M348.0,450.0,339.5,450.0,331.5,450.0,323.5,450.5,315.0,451.0,307.0,452.0,299.5,452.5,291.5,453.5,284.0,455.0,275.5,456.0,267.5,457.0,260.0,458.0,252.0,458.5,244.0,459.0,236.5,460.0,229.0,460.5,221.5,460.5,214.0,461.0,205.5,461.0,198.0,461.0,189.5,461.5,181.5,462.0,173.5,462.5" stroke="black" stroke-width="2" fill="none" />
<path d="M156.0,457.0,148.0,457.5,140.5,457.5" stroke="black" stroke-width="2" fill="none" />
<path d="M131.0,463.0,139.0,462.0,147.0,461.5,154.5,460.5,162.0,459.5" stroke="black" stroke-width="2" fill="none" />
<path d="M163.5,475.0,155.5,475.0,147.0,475.0,139.0,475.5,131.0,476.0" stroke="black" stroke-width="2" fill="none" />
<path d="M132.0,470.5,139.5,469.5,147.0,469.0,154.5,468.5,162.0,468.5" stroke="black" stroke-width="2" fill="none" />
<path d="M168.0,476.5,160.0,478.5,151.5,480.5,143.5,480.5,137.0,478.5,136.5,471.0,131.5,467.0" stroke="black" stroke-width="2" fill="none" />
<path d="M130.5,466.0,138.5,459.0,146.5,451.5,154.0,444.0,161.5,437.0,169.5,429.5" stroke="black" stroke-width="2" fill="none" />
<path d="M164.0,437.0,171.5,441.5,171.5,449.5,176.0,460.5,178.0,468.0,181.5,472.0,178.5,471.0,181.5,477.5,189.5,474.5,197.5,474.0,205.5,474.0,213.5,474.0,221.5,474.0,230.0,473.5,238.5,474.5,246.0,473.5,254.5,473.5,262.5,473.0,270.5,473.0,278.5,473.0,286.0,473.0,294.5,473.0,302.0,473.0,310.0,473.5,317.5,474.5,325.5,475.0,335.5,477.0,342.5,479.0,350.5,478.0" stroke="black" stroke-width="2" fill="none" />
<path d="M204.0,433.5,196.0,433.5,187.5,434.0,179.0,435.0,171.0,435.5,163.0,436.0,155.0,436.5,147.0,437.0,139.5,438.0,132.0,438.5" stroke="black" stroke-width="2" fill="none" />
<path d="M131.5,443.5,140.0,436.0,148.0,428.5" stroke="black" stroke-width="2" fill="none" />
<path d="M147.0,421.0,139.0,428.5,131.5,436.0" stroke="black" stroke-width="2" fill="none" />
<path d="M133.0,432.5,141.5,432.0,149.5,432.0" stroke="black" stroke-width="2" fill="none" />
<path d="M141.0,418.5,133.0,426.0" stroke="black" stroke-width="2" fill="none" />
<path d="M132.5,428.5,141.0,428.5,148.5,428.0,156.0,428.0,164.0,428.0,172.0,427.5,180.0,427.5,188.0,427.5,196.5,427.5" stroke="black" stroke-width="2" fill="none" />
<path d="M201.0,433.0,211.0,441.0,227.5,449.5" stroke="black" stroke-width="2" fill="none" />
<path d="M180.5,411.0,172.0,411.5,163.5,411.5,155.5,412.0,147.5,412.0,139.0,412.5" stroke="black" stroke-width="2" fill="none" />
<path d="M136.5,411.5,128.5,411.0" stroke="black" stroke-width="2" fill="none" />
<path d="M129.5,420.0,137.5,419.5,145.5,419.5,154.0,419.5,162.5,419.5,170.5,419.5,178.5,419.0,187.0,419.0" stroke="black" stroke-width="2" fill="none" />
<path d="M179.5,403.5,172.0,404.5,164.5,405.0,157.5,405.5,149.5,406.0" stroke="black" stroke-width="2" fill="none" />
<path d="M149.0,397.0,156.5,396.5,164.0,396.5,171.5,396.5,178.5,396.0" stroke="black" stroke-width="2" fill="none" />
<path d="M176.5,399.5,184.5,418.5,192.5,429.5,200.5,434.0,209.0,441.0,217.5,446.5,225.5,450.5,233.0,455.0,241.0,457.0,249.0,458.0,257.0,459.0,265.0,459.0,272.5,458.0,280.0,457.0,288.0,454.0,295.5,451.0,303.5,446.0,311.5,441.0,315.5,449.0,319.5,453.0,324.0,446.5,335.0,454.0,345.0,446.0,352.0,440.0,361.0,439.5,369.0,434.5" stroke="black" stroke-width="2" fill="none" />
<path d="M321.0,406.5,313.0,418.5,305.0,427.5,297.0,433.5,289.0,438.5,280.5,443.0,272.5,446.0,294.5,440.5,307.0,432.5,315.0,424.0,322.0,416.0,327.0,408.5,330.0,400.0,333.0,392.0,335.0,384.0,336.0,376.0,335.5,365.0,334.0,356.5,332.0,349.0,328.5,341.5,324.5,333.5,318.5,325.5,310.5,317.5,299.0,309.5,288.0,303.0,273.0,302.5,265.0,300.5,256.5,300.5,248.5,301.0,240.5,301.0,232.5,303.0,224.5,306.5" stroke="black" stroke-width="2" fill="none" />
<path d="M235.5,302.0,226.5,308.5,214.0,315.5,205.0,323.5,198.0,331.5,194.0,339.0,190.0,347.5,188.5,355.5,186.5,363.5,186.0,372.0,186.0,379.5,188.0,388.0,189.5,396.0,192.5,404.0,196.5,411.5,201.5,419.5,208.5,428.0,219.5,436.0,238.5,444.0" stroke="black" stroke-width="2" fill="none" />
<path d="M291.0,455.5,306.0,448.0,316.0,440.0,319.0,431.5,326.0,423.5,331.0,415.5,335.5,407.5,327.5,407.5,319.5,420.5,311.0,429.0,303.0,435.0,294.5,440.0,286.5,445.0,278.5,447.0,270.0,449.0,262.0,450.0,254.0,450.5,246.0,450.5,238.0,448.5,230.0,446.5,222.5,442.5,215.0,437.0,207.5,431.5,199.5,423.5,192.0,412.5,184.5,394.5" stroke="black" stroke-width="2" fill="none" />
<path d="M186.5,387.5,178.5,387.5" stroke="black" stroke-width="2" fill="none" />
<path d="M179.5,380.0,187.0,380.0" stroke="black" stroke-width="2" fill="none" />
<path d="M186.5,363.5,178.5,364.0" stroke="black" stroke-width="2" fill="none" />
<path d="M177.5,358.0,186.0,357.0" stroke="black" stroke-width="2" fill="none" />
<path d="M188.5,354.0,197.0,336.0,205.0,325.5,213.0,317.5,220.5,312.5,229.0,308.5,237.0,305.5,245.0,303.5" stroke="black" stroke-width="2" fill="none" />
<path d="M245.0,301.0,236.5,301.0" stroke="black" stroke-width="2" fill="none" />
<path d="M236.0,298.5,216.5,306.5,205.0,314.5,196.5,323.0,190.5,331.5,186.5,339.5,182.5,347.5,180.5,355.0,178.5,363.0,178.5,376.5,180.0,384.5,181.0,392.5,184.0,400.5,187.0,409.0,192.5,417.0,199.5,425.5,207.5,433.5,219.5,441.5" stroke="black" stroke-width="2" fill="none" />
<path d="M244.5,454.5,236.5,452.5,229.0,449.5,221.0,445.5,212.5,441.5,204.0,435.5,196.0,427.5,187.5,417.0,179.5,400.0" stroke="black" stroke-width="2" fill="none" />
<path d="M169.0,409.5,166.0,417.5,169.0,410.0" stroke="black" stroke-width="2" fill="none" />
<path d="M170.0,389.0,161.5,389.0,153.5,389.0,145.0,389.5" stroke="black" stroke-width="2" fill="none" />
<path d="M147.5,381.0,155.5,380.5,163.5,380.0,171.0,379.5" stroke="black" stroke-width="2" fill="none" />
<path d="M167.5,380.0,176.5,382.0,178.0,389.5,180.0,397.5,183.0,405.5,185.5,413.5,192.0,421.0,198.5,429.0,202.5,437.0,214.0,445.0" stroke="black" stroke-width="2" fill="none" />
<path d="M169.0,437.0,166.0,440.0,158.0,440.5,156.5,436.0,148.5,428.0,140.0,415.5,132.0,419.5,122.0,420.5,113.5,420.0,106.0,419.5" stroke="black" stroke-width="2" fill="none" />
<path d="M103.0,422.5,103.5,431.0,103.5,439.0,103.5,447.5,104.0,455.5,104.0,464.0,104.0,472.5" stroke="black" stroke-width="2" fill="none" />
<path d="M99.5,476.0,108.0,476.0,116.0,475.5,124.0,475.0" stroke="black" stroke-width="2" fill="none" />
<path d="M126.5,481.5,122.5,483.0,123.5,475.5,123.5,468.0" stroke="black" stroke-width="2" fill="none" />
<path d="M105.5,472.0,105.0,464.0,105.5,456.5,105.5,448.5,105.5,441.0,105.5,433.5,109.5,429.0,104.0,418.0,96.0,417.0" stroke="black" stroke-width="2" fill="none" />
<path d="M96.0,416.5,95.5,424.5,95.5,432.0,95.0,440.5,95.0,449.0,95.0,457.0,95.5,465.0,95.5,473.0,96.0,481.0,97.0,478.5,101.0,480.5,109.0,482.5" stroke="black" stroke-width="2" fill="none" />
<path d="M124.5,488.5,116.5,489.0,109.0,489.5,101.0,489.5,93.0,490.0,85.0,490.0,77.5,490.5,69.5,490.5,61.5,490.5" stroke="black" stroke-width="2" fill="none" />
<path d="M60.5,488.5,60.5,496.5,64.0,505.0,61.0,513.0,61.0,521.0,61.0,528.5,61.0,536.5,64.0,546.5,62.0,551.5,60.5,559.5,61.5,567.5,61.5,576.0,62.0,584.0,62.0,592.0,62.5,600.0,62.0,608.0,62.5,615.5,62.5,623.5,66.5,631.5,62.0,639.5,57.0,647.5,52.5,655.5,48.5,663.5,49.5,661.0,57.5,647.5,65.5,634.5,67.0,627.5" stroke="black" stroke-width="2" fill="none" />
<path d="M52.0,662.5,60.0,662.5,69.0,662.5,77.0,662.0,84.5,661.5,93.0,661.0,100.5,660.5,108.5,660.0,116.5,659.5,124.5,659.0,132.0,658.5,140.0,657.0,147.5,656.5,155.0,655.5,163.0,654.0,170.5,653.5,179.0,653.0,187.0,652.5" stroke="black" stroke-width="2" fill="none" />
<path d="M179.5,557.5,172.0,558.5,164.0,559.5,156.5,560.5,148.5,560.5,140.5,561.0,132.5,562.0,124.5,562.0,117.0,562.5,109.0,563.5,100.5,564.0,92.5,564.5,84.0,564.5,75.5,565.0,67.0,565.5,58.5,566.0" stroke="black" stroke-width="2" fill="none" />
<path d="M58.5,557.0,66.5,556.5,75.0,556.5,83.5,556.5,91.5,556.5,100.0,556.5,108.5,556.0,116.0,555.5,124.0,555.0,132.0,554.5,140.0,554.0,148.0,553.0,156.0,552.5,164.0,551.5,172.0,551.0,180.0,550.0" stroke="black" stroke-width="2" fill="none" />
<path d="M188.5,525.0,180.5,526.5,173.0,527.0,165.5,528.0,157.5,529.0,149.5,529.5,141.5,530.5,133.5,531.0,125.0,531.5,116.5,532.0,107.5,532.0,99.0,532.5,91.0,532.5,83.0,533.5,74.5,534.0,66.0,534.5,58.0,535.0" stroke="black" stroke-width="2" fill="none" />
<path d="M59.5,525.5,67.5,524.5,75.5,523.5,83.5,523.0,92.0,523.0,100.5,523.0,108.0,523.0,116.0,523.0,124.5,523.0,132.5,522.5,140.5,522.0,148.5,521.5,156.5,521.0,164.5,520.5,172.0,519.5,180.0,519.5,187.5,518.5" stroke="black" stroke-width="2" fill="none" />
<path d="M187.5,540.0,179.5,541.0,171.5,541.0,163.5,542.0,155.5,542.5,147.0,543.0,138.5,543.5,130.5,543.5,122.5,544.0,114.5,545.0,107.0,545.5,100.0,546.0,93.0,547.0,85.5,547.5,77.5,548.0,70.0,548.5,62.0,549.5,53.5,550.0" stroke="black" stroke-width="2" fill="none" />
<path d="M36.5,547.5,29.0,548.0,21.0,548.0,13.0,548.5" stroke="black" stroke-width="2" fill="none" />
<path d="M17.0,554.0,6.0,555.5,14.0,551.0,22.0,550.0,30.5,550.0,38.0,552.5,46.0,552.5,53.5,549.0,62.0,549.0" stroke="black" stroke-width="2" fill="none" />
<path d="M58.0,553.5,50.0,554.5,42.0,556.5,34.0,556.0,26.0,553.0,18.0,554.5,10.0,557.5,2.0,559.5" stroke="black" stroke-width="2" fill="none" />
<path d="M67.0,485.0,75.0,484.0,82.0,484.0" stroke="black" stroke-width="2" fill="none" />
<path d="M99.0,471.0,98.0,463.5" stroke="black" stroke-width="2" fill="none" />
<path d="M112.5,478.0,110.5,472.0,110.5,464.5,111.0,456.5,110.0,448.5,110.5,440.5" stroke="black" stroke-width="2" fill="none" />
<path d="M97.5,419.5,105.0,420.5,112.5,418.5,120.5,419.5,128.5,423.0,128.5,431.0,128.5,438.5,129.5,446.0,129.5,453.5,129.5,461.0,129.5,469.0,129.5,477.0,130.5,488.5,138.0,488.5,146.0,488.5,154.5,488.5" stroke="black" stroke-width="2" fill="none" />
<path d="M164.5,455.5,167.5,448.0,165.0,440.0" stroke="black" stroke-width="2" fill="none" />
<path d="M139.5,381.0,131.5,381.5" stroke="black" stroke-width="2" fill="none" />
<path d="M133.0,377.0,140.5,370.0" stroke="black" stroke-width="2" fill="none" />
<path d="M148.0,365.0,156.5,365.0,164.5,364.0,172.5,363.5" stroke="black" stroke-width="2" fill="none" />
<path d="M174.0,356.5,187.0,348.5,184.0,357.5,186.0,342.0,194.5,327.5,202.5,318.5,210.5,312.0,219.0,306.0,227.0,303.5,235.0,300.5,243.5,298.5,251.0,297.5,259.0,296.5,267.0,297.0,274.5,298.0,282.0,300.0,290.0,304.0,298.0,307.0,306.0,313.0,314.0,320.5,322.0,329.5,330.0,344.0" stroke="black" stroke-width="2" fill="none" />
<path d="M339.5,342.0,331.5,327.0,323.5,317.0,315.5,309.0,307.5,303.0,299.0,298.0,291.0,295.0,283.0,293.0,275.0,291.0,267.0,289.5,259.0,289.5,251.5,290.5,243.5,291.5,235.0,292.0,227.0,295.0,218.5,298.0,210.5,302.5,203.0,309.5,195.0,317.0,187.0,327.0,179.0,341.5" stroke="black" stroke-width="2" fill="none" />
<path d="M189.5,341.0,197.5,341.0" stroke="black" stroke-width="2" fill="none" />
<path d="M194.5,326.0,202.5,325.0" stroke="black" stroke-width="2" fill="none" />
<path d="M204.0,316.5,212.0,316.5" stroke="black" stroke-width="2" fill="none" />
<path d="M188.5,322.5,179.5,323.5,171.5,324.5,163.0,325.5,154.0,326.0,146.0,326.5" stroke="black" stroke-width="2" fill="none" />
<path d="M146.5,319.0,154.5,318.5,162.5,317.5,171.0,316.5,179.5,316.0,187.5,315.0" stroke="black" stroke-width="2" fill="none" />
<path d="M179.5,277.5,187.0,277.0,194.5,276.5" stroke="black" stroke-width="2" fill="none" />
<path d="M191.5,271.0,184.0,272.0" stroke="black" stroke-width="2" fill="none" />
<path d="M163.5,276.0,155.0,276.5,146.5,277.0" stroke="black" stroke-width="2" fill="none" />
<path d="M144.0,272.5,142.0,280.5,141.5,288.0,141.5,296.0,141.0,304.0,141.0,311.5,142.0,319.5,142.5,328.0,142.5,335.5,142.5,343.5,142.5,352.0,142.5,359.5,143.0,367.5" stroke="black" stroke-width="2" fill="none" />
<path d="M147.0,358.0,155.5,357.5,163.0,356.5,171.5,355.5" stroke="black" stroke-width="2" fill="none" />
<path d="M172.0,347.5,164.0,347.5,156.0,348.0,148.0,348.0" stroke="black" stroke-width="2" fill="none" />
<path d="M147.5,342.5,155.5,341.5,163.0,341.0,171.5,340.0" stroke="black" stroke-width="2" fill="none" />
<path d="M179.0,332.0,171.5,333.0,163.0,333.5,154.5,334.5,146.5,335.0" stroke="black" stroke-width="2" fill="none" />
<path d="M145.0,310.0,153.0,309.5,162.0,309.0,170.5,308.0,179.0,308.0" stroke="black" stroke-width="2" fill="none" />
<path d="M171.0,300.0,162.5,300.0,154.5,300.5,146.5,301.0" stroke="black" stroke-width="2" fill="none" />
<path d="M146.5,292.5,154.5,292.5,163.0,292.0,171.5,292.0" stroke="black" stroke-width="2" fill="none" />
<path d="M162.5,282.0,154.5,282.5,146.5,283.5" stroke="black" stroke-width="2" fill="none" />
<path d="M140.5,272.5,148.5,272.0,157.0,269.0,162.0,273.0,170.5,272.0" stroke="black" stroke-width="2" fill="none" />
<path d="M161.5,269.5,169.5,269.5,178.0,269.5,186.5,260.0,185.0,264.5,180.5,272.0,189.5,262.0,192.5,265.5" stroke="black" stroke-width="2" fill="none" />
<path d="M205.0,263.0,212.5,262.0" stroke="black" stroke-width="2" fill="none" />
<path d="M213.0,255.0,205.0,255.5" stroke="black" stroke-width="2" fill="none" />
<path d="M199.0,254.0,199.0,240.0,201.0,239.5,193.0,243.5" stroke="black" stroke-width="2" fill="none" />
<path d="M194.5,238.0,203.0,237.5" stroke="black" stroke-width="2" fill="none" />
<path d="M209.5,237.5,218.0,237.0,226.5,236.0" stroke="black" stroke-width="2" fill="none" />
<path d="M236.0,245.0,244.0,245.0,252.0,244.5,260.0,244.5,268.0,244.5,275.5,244.5,283.0,244.0,290.5,243.5,298.0,243.5" stroke="black" stroke-width="2" fill="none" />
<path d="M316.0,254.0,324.5,254.0" stroke="black" stroke-width="2" fill="none" />
<path d="M323.0,262.0,315.0,262.5" stroke="black" stroke-width="2" fill="none" />
<path d="M330.0,277.0,329.5,266.0,327.0,258.5,326.0,251.0,328.0,243.0,327.5,244.5" stroke="black" stroke-width="2" fill="none" />
<path d="M331.5,241.0,330.5,249.0,331.5,257.0,333.0,265.5,342.0,273.5" stroke="black" stroke-width="2" fill="none" />
<path d="M372.5,259.0,371.5,267.0,376.0,274.5,376.0,282.0,376.0,290.0,376.0,297.5,376.0,305.5,375.5,313.5,375.5,321.5,375.0,327.0,375.0,335.0,375.5,343.5,375.5,351.5,375.5,359.5,376.5,368.5,376.0,376.5,375.0,385.0,374.5,393.0,374.0,401.0,374.0,409.0,371.5,417.0,364.5,428.0,361.0,432.5,358.0,442.5,358.5,450.5,359.0,458.5,360.0,466.5,358.5,474.5" stroke="black" stroke-width="2" fill="none" />
<path d="M285.0,441.0,300.0,433.0,309.0,425.0,316.0,416.5,321.0,408.5,325.5,400.5,328.0,392.5,330.0,384.5,331.0,376.5,331.0,369.0,330.5,361.5,329.5,353.5,326.5,346.0,322.5,338.0,316.5,330.5,309.0,322.5,297.5,314.0,279.0,306.5" stroke="black" stroke-width="2" fill="none" />
<path d="M235.0,292.5,215.5,300.5,205.0,308.0,196.0,316.0,189.5,324.5,184.5,332.5,180.5,340.5,178.0,348.0,175.0,356.0,174.5,365.0,174.5,373.0,170.5,381.0,174.5,388.5,175.0,396.0,178.0,404.0,180.5,412.0,185.0,420.0,189.5,428.0,197.0,436.0,206.0,444.0,219.5,452.5" stroke="black" stroke-width="2" fill="none" />
<path d="M188.5,369.5,180.5,370.0,172.5,370.5,164.5,370.5,156.5,371.5,149.0,372.0,141.5,373.0,133.5,374.0,125.5,374.5" stroke="black" stroke-width="2" fill="none" />
<path d="M125.0,369.5,133.0,365.5,141.0,371.5" stroke="black" stroke-width="2" fill="none" />
<path d="M130.0,370.0,139.0,369.5,138.5,377.5,141.5,382.0,142.0,390.0,142.5,398.0,142.0,406.5,141.5,414.5,143.5,419.5,146.5,427.5,150.5,435.5,156.5,446.5,157.0,454.0,157.0,462.0,157.5,470.0,157.5,474.5,158.0,482.5,160.5,488.5,168.5,488.5,176.0,488.5,184.0,488.5,191.5,488.5,199.5,489.0,207.5,488.5,215.5,489.0,223.5,489.0,231.5,489.0,239.5,489.0,248.0,489.0,256.0,489.0,264.0,488.5,272.0,489.0,280.0,489.0,288.0,489.0,295.5,488.5,303.5,488.5,311.5,488.0,319.5,487.5,327.5,487.5,335.0,487.0,343.0,487.0,350.5,487.0,359.0,487.5,367.0,487.5,375.0,487.5,383.0,487.5,391.5,487.5,400.0,486.5,408.0,486.5,416.5,486.5,425.0,487.0,432.5,487.0,440.0,487.0,448.0,486.5,455.5,489.5,455.5,495.0,449.5,503.0,454.5,511.0,454.5,519.5,454.5,527.5,454.5,536.0,450.0,544.0,455.0,551.5,454.0,559.5,454.0,567.5,454.0,575.5,453.0,583.0,454.5,591.0,454.5,599.0,454.5,607.5,454.5,615.5,454.5,623.0,450.0,630.5,455.0,638.5,459.0,646.5,464.0,654.5,469.0,662.0" stroke="black" stroke-width="2" fill="none" />
<path d="M172.0,666.5,163.5,666.5,155.5,666.5,147.0,666.0,139.0,666.5,131.5,666.5,124.0,669.5,116.0,669.5,108.0,669.5,100.0,670.0,92.5,670.0,85.0,670.0,77.0,670.5,69.5,670.5,61.5,670.5" stroke="black" stroke-width="2" fill="none" />
<path d="M49.0,669.5,57.0,670.5,64.5,667.0,72.5,667.0,80.0,666.5,88.0,666.5,96.0,666.5,104.0,666.5,112.0,666.0,120.0,666.0,134.0,669.0,142.0,669.0,149.5,669.0,157.5,669.5,165.5,669.5,173.5,669.5" stroke="black" stroke-width="2" fill="none" />
<path d="M140.0,378.0,131.5,381.0,129.5,380.0,125.0,375.5,128.0,367.5,129.0,370.5" stroke="black" stroke-width="2" fill="none" />
<path d="M220.0,278.0,228.5,277.5" stroke="black" stroke-width="2" fill="none" />
<path d="M244.0,247.5,251.5,239.5,259.5,232.5,267.0,225.0,275.0,218.0,282.5,210.5" stroke="black" stroke-width="2" fill="none" />
<path d="M275.5,204.0,268.0,211.5,259.5,219.0,252.0,227.0" stroke="black" stroke-width="2" fill="none" />
<path d="M246.0,232.0,253.5,231.0,261.0,230.0,268.5,229.0,276.0,228.5,283.5,227.5,291.5,226.5,299.0,225.0,306.5,224.0,314.5,223.0" stroke="black" stroke-width="2" fill="none" />
<path d="M278.0,197.0,270.0,204.5,261.5,211.5,253.5,218.5" stroke="black" stroke-width="2" fill="none" />
<path d="M252.0,217.5,260.5,217.0,268.5,216.5" stroke="black" stroke-width="2" fill="none" />
<path d="M259.5,209.5,251.5,210.0" stroke="black" stroke-width="2" fill="none" />
<path d="M250.5,211.0,258.5,203.5,267.0,196.0" stroke="black" stroke-width="2" fill="none" />
<path d="M261.0,189.5,252.5,197.5" stroke="black" stroke-width="2" fill="none" />
<path d="M252.0,202.0,260.0,194.5,268.0,187.0" stroke="black" stroke-width="2" fill="none" />
<path d="M274.5,181.5,277.5,175.5,285.5,179.5,293.5,181.5" stroke="black" stroke-width="2" fill="none" />
<path d="M292.0,186.5,284.0,187.5,276.5,188.5,268.5,188.5,261.0,189.0,253.5,190.0,245.5,190.5" stroke="black" stroke-width="2" fill="none" />
<path d="M243.0,197.5,251.0,197.0,259.0,196.5,267.0,195.5,275.5,194.0,283.5,193.5,291.5,193.5,299.0,193.0,307.0,193.0" stroke="black" stroke-width="2" fill="none" />
<path d="M322.5,208.5,314.5,209.0,306.5,209.5,298.0,210.0,290.0,210.5,282.5,211.5,274.5,212.0,266.5,212.5,259.0,213.0,251.5,213.5,244.0,214.0" stroke="black" stroke-width="2" fill="none" />
<path d="M248.5,217.5,256.5,218.5,264.5,219.0" stroke="black" stroke-width="2" fill="none" />
<path d="M242.5,203.5,250.5,203.0,258.0,203.0,266.0,202.5,274.0,202.0,282.0,202.0,290.0,202.0,298.5,202.0,306.5,202.0,315.5,202.0" stroke="black" stroke-width="2" fill="none" />
<path d="M314.5,230.5,306.5,231.0,299.0,232.5,291.5,234.0,284.0,235.0,275.5,235.5,267.5,236.0,260.0,236.5,252.0,237.0,244.5,237.5" stroke="black" stroke-width="2" fill="none" />
<path d="M234.0,222.5,242.0,222.0,250.0,222.0,258.0,221.5,266.0,220.5,274.0,220.0,282.0,219.5,290.0,219.0,297.5,218.5,305.5,218.0,313.5,217.5,321.5,217.0" stroke="black" stroke-width="2" fill="none" />
<path d="M312.5,201.5,304.0,197.0,294.0,197.0,291.5,188.0,283.5,183.0" stroke="black" stroke-width="2" fill="none" />
<path d="M284.5,179.0,276.5,179.5,268.5,180.0,260.0,180.5,251.5,181.5,243.5,182.0" stroke="black" stroke-width="2" fill="none" />
<path d="M243.5,174.0,251.0,173.5,259.0,173.5,267.0,173.0,275.5,172.5" stroke="black" stroke-width="2" fill="none" />
<path d="M269.5,166.5,274.0,174.5,279.0,178.5,272.5,184.0,272.5,192.0,272.5,200.0,272.0,208.0,271.0,216.0,276.0,214.0" stroke="black" stroke-width="2" fill="none" />
<path d="M234.0,213.0,226.0,213.5" stroke="black" stroke-width="2" fill="none" />
<path d="M226.5,197.5,218.5,198.0" stroke="black" stroke-width="2" fill="none" />
<path d="M207.5,171.5,199.5,172.5,191.5,172.0" stroke="black" stroke-width="2" fill="none" />
<path d="M194.0,170.5,193.0,178.5,192.5,186.5,192.5,195.5,192.5,203.5,192.0,211.5,192.0,220.0,192.0,228.0,192.5,236.5,192.5,244.5,193.5,252.0,190.5,260.5,185.5,269.0,182.5,280.0,184.5,281.0" stroke="black" stroke-width="2" fill="none" />
<path d="M163.0,230.0,158.0,232.0" stroke="black" stroke-width="2" fill="none" />
<path d="M211.5,165.5,211.5,158.0,211.5,150.0" stroke="black" stroke-width="2" fill="none" />
<path d="M245.0,168.0,253.0,167.0,260.5,166.5,268.5,166.5,282.5,180.5,294.0,188.5,303.0,196.0,316.0,204.0" stroke="black" stroke-width="2" fill="none" />
<path d="M361.0,233.0,368.0,241.5,370.0,249.5,369.0,258.0,367.5,265.5,365.5,280.0,373.0,272.0" stroke="black" stroke-width="2" fill="none" />
<path d="M370.0,243.0,362.0,233.0" stroke="black" stroke-width="2" fill="none" />
<path d="M396.5,250.5,396.5,258.5,397.0,266.5,397.5,274.5,398.0,282.5,398.0,291.0,398.0,298.5,398.0,306.5,397.5,314.5,397.5,322.5,397.5,330.5,397.5,338.5,397.5,346.5,397.5,354.5,397.5,362.0,397.0,370.0,397.0,377.5,397.0,385.5,397.0,393.5,397.0,401.5,397.0,408.5,395.0,417.0,399.0,424.0,399.0,431.5,398.5,439.5,398.5,448.0,399.0,456.0,399.0,464.0,403.5,473.5,406.5,473.5,408.0,477.5,412.0,479.5,420.0,476.0" stroke="black" stroke-width="2" fill="none" />
<path d="M294.5,253.0,286.5,259.5,279.5,269.5,272.0,276.5,264.0,276.5,256.5,276.5,249.0,275.0,246.0,270.5,246.0,262.5,246.0,254.5,246.0,247.0,246.0,239.0,246.0,230.5,245.5,222.5,245.5,214.5,246.0,206.0,245.5,198.0,245.5,189.5,245.5,181.0,245.5,173.0,246.5,165.0" stroke="black" stroke-width="2" fill="none" />
<path d="M41.5,3.5,33.5,3.5,25.5,3.5,18.0,3.5,10.0,3.5,2.5,3.5" stroke="black" stroke-width="2" fill="none" />
</svg>