<svg xmlns="http://www.w3.org/2000/svg" version="1.1"><polyline points="512.0,4.5,512.5,12.5,512.5,20.5,512.5,28.5,512.5,36.5,512.5,44.5,513.0,52.5,514.0,60.0,514.5,68.0,514.5,75.5,514.5,84.0,514.5,92.0,514.0,100.0,513.5,108.5,513.5,117.5,513.5,126.0,513.5,134.0,513.0,141.5,513.0,149.5,513.0,157.5,513.0,165.5,512.5,173.5,512.5,181.5,512.5,189.0,512.5,197.0,513.0,205.0,513.0,213.0,513.0,221.0,513.5,229.0,514.0,237.5,514.0,245.5,514.0,253.5,514.0,261.5,513.5,269.5,513.0,278.0,513.0,286.0,513.0,294.0,513.0,301.5,513.5,309.5,513.0,317.5,513.0,325.5,513.0,333.5" stroke="black" stroke-width="2" fill="none" />
<polyline points="513.5,333.5,506.0,341.5" stroke="black" stroke-width="2" fill="none" />
<polyline points="498.0,340.0,505.5,333.0,513.5,325.5" stroke="black" stroke-width="2" fill="none" />
<polyline points="505.5,321.0,498.0,328.5,490.5,336.5" stroke="black" stroke-width="2" fill="none" />
<polyline points="484.5,336.5,492.0,329.5,500.0,322.5" stroke="black" stroke-width="2" fill="none" />
<polyline points="490.0,322.0,482.0,329.5,473.5,336.5" stroke="black" stroke-width="2" fill="none" />
<polyline points="466.5,340.5,474.5,333.0,483.0,325.5" stroke="black" stroke-width="2" fill="none" />
<polyline points="474.0,321.0,466.0,329.0,458.0,336.5" stroke="black" stroke-width="2" fill="none" />
<polyline points="450.5,340.0,459.0,332.0,466.5,324.0" stroke="black" stroke-width="2" fill="none" />
<polyline points="466.5,315.0,458.5,322.5,451.0,330.5,443.0,338.0" stroke="black" stroke-width="2" fill="none" />
<polyline points="434.5,338.5,442.5,330.5,450.0,323.0,457.5,315.5" stroke="black" stroke-width="2" fill="none" />
<polyline points="443.0,325.5,435.5,332.5,427.0,339.0" stroke="black" stroke-width="2" fill="none" />
<polyline points="426.5,332.0,418.5,339.5" stroke="black" stroke-width="2" fill="none" />
<polyline points="419.0,333.5,411.0,341.0" stroke="black" stroke-width="2" fill="none" />
<polyline points="402.5,340.5,410.5,333.0,419.0,325.5" stroke="black" stroke-width="2" fill="none" />
<polyline points="413.5,323.0,405.5,331.0,397.5,338.5" stroke="black" stroke-width="2" fill="none" />
<polyline points="396.0,333.5,388.0,340.5" stroke="black" stroke-width="2" fill="none" />
<polyline points="390.0,342.0,398.0,342.5,408.0,342.5,416.5,342.5,425.0,342.5,433.0,342.5" stroke="black" stroke-width="2" fill="none" />
<polyline points="388.0,331.5,379.5,339.0" stroke="black" stroke-width="2" fill="none" />
<polyline points="372.0,336.5,380.0,329.0,388.0,321.0" stroke="black" stroke-width="2" fill="none" />
<polyline points="380.5,322.5,372.5,330.0,364.0,337.0" stroke="black" stroke-width="2" fill="none" />
<polyline points="355.5,338.0,363.0,330.5,370.5,323.0" stroke="black" stroke-width="2" fill="none" />
<polyline points="362.5,322.5,354.0,330.5,346.5,337.5" stroke="black" stroke-width="2" fill="none" />
<polyline points="340.5,338.5,349.0,331.0,357.0,323.5" stroke="black" stroke-width="2" fill="none" />
<polyline points="347.0,322.0,339.0,330.0,331.5,337.0" stroke="black" stroke-width="2" fill="none" />
<polyline points="326.0,339.0,334.5,332.0,342.5,324.5" stroke="black" stroke-width="2" fill="none" />
<polyline points="330.0,323.0,322.0,331.0,314.0,339.0" stroke="black" stroke-width="2" fill="none" />
<polyline points="307.0,338.0,315.0,330.5,323.5,323.5,332.0,316.0" stroke="black" stroke-width="2" fill="none" />
<polyline points="324.0,315.5,315.5,323.5,307.5,331.0,299.5,338.5" stroke="black" stroke-width="2" fill="none" />
<polyline points="291.5,338.5,299.5,331.0,308.0,323.0,316.0,315.5" stroke="black" stroke-width="2" fill="none" />
<polyline points="316.5,307.0,308.5,315.0,300.5,322.5,292.5,330.0,284.0,337.5" stroke="black" stroke-width="2" fill="none" />
<polyline points="275.5,338.0,284.5,331.0,292.5,324.0,300.5,317.0,308.5,310.0" stroke="black" stroke-width="2" fill="none" />
<polyline points="297.5,307.5,289.0,315.0,281.0,322.0,273.0,329.5,265.0,337.0" stroke="black" stroke-width="2" fill="none" />
<polyline points="258.5,337.5,266.0,329.5,274.0,322.5,282.5,315.5,290.5,308.5" stroke="black" stroke-width="2" fill="none" />
<polyline points="292.0,300.5,283.5,307.5,275.0,315.0,267.5,322.5,259.5,329.5,252.0,337.0" stroke="black" stroke-width="2" fill="none" />
<polyline points="244.5,336.0,252.5,329.0,260.0,322.0,268.0,315.0,275.5,308.0,283.0,300.0" stroke="black" stroke-width="2" fill="none" />
<polyline points="274.5,299.0,266.5,306.5,258.5,314.5,251.0,322.0,242.5,329.5,235.0,337.5" stroke="black" stroke-width="2" fill="none" />
<polyline points="237.0,330.5,244.5,330.0,252.5,329.0,260.5,328.5,268.0,327.5,276.0,327.0,283.5,326.5,291.5,326.0,299.5,325.5,308.0,324.5,316.0,324.0,323.5,323.5" stroke="black" stroke-width="2" fill="none" />
<polyline points="290.0,322.0,281.5,322.0,273.0,322.0,265.5,322.5" stroke="black" stroke-width="2" fill="none" />
<polyline points="259.0,306.5,250.5,314.0,242.5,322.0,235.0,330.0,227.5,338.5" stroke="black" stroke-width="2" fill="none" />
<polyline points="219.0,338.5,227.5,330.5,236.0,323.0,244.5,316.0,253.0,308.5" stroke="black" stroke-width="2" fill="none" />
<polyline points="243.0,307.5,235.0,315.5,227.0,323.0,219.5,330.5,212.0,338.0" stroke="black" stroke-width="2" fill="none" />
<polyline points="203.5,337.5,212.0,330.5,220.5,323.0,228.5,315.0,236.5,307.5" stroke="black" stroke-width="2" fill="none" />
<polyline points="229.0,307.5,221.0,314.5,212.5,322.5,204.5,330.0,196.0,338.0" stroke="black" stroke-width="2" fill="none" />
<polyline points="188.0,336.5,196.0,329.0,204.5,321.5,213.0,313.5,221.0,305.5,229.0,298.5" stroke="black" stroke-width="2" fill="none" />
<polyline points="221.0,300.5,213.0,308.0,204.5,315.0,196.0,322.5,187.5,330.0,179.0,337.5" stroke="black" stroke-width="2" fill="none" />
<polyline points="172.0,337.0,179.0,329.0,186.5,321.5,194.5,313.5,202.5,306.0,210.5,299.0" stroke="black" stroke-width="2" fill="none" />
<polyline points="201.0,298.0,192.5,306.0,185.5,314.0,178.0,322.0,171.0,330.0,163.5,337.5" stroke="black" stroke-width="2" fill="none" />
<polyline points="155.5,337.5,162.5,329.5,170.0,321.5,178.0,313.5,185.5,305.5,193.5,298.0" stroke="black" stroke-width="2" fill="none" />
<polyline points="187.0,300.0,179.0,307.5,171.0,314.5,163.0,321.5,155.0,329.0,147.0,336.0" stroke="black" stroke-width="2" fill="none" />
<polyline points="140.5,337.0,148.5,329.5,156.5,322.0,164.5,315.0,172.5,308.0,180.0,301.0" stroke="black" stroke-width="2" fill="none" />
<polyline points="172.0,301.5,164.0,309.0,156.0,316.5,148.0,324.0,140.0,331.0,132.0,338.5" stroke="black" stroke-width="2" fill="none" />
<polyline points="125.0,339.0,133.5,331.0,141.0,323.0,149.0,315.0,156.5,307.5,164.0,299.5" stroke="black" stroke-width="2" fill="none" />
<polyline points="154.5,301.0,146.5,308.5,138.5,316.0,131.0,323.0,124.0,330.0,116.0,337.5" stroke="black" stroke-width="2" fill="none" />
<polyline points="106.5,336.5,114.5,329.5,123.0,323.0,131.5,316.0,140.0,308.0,148.5,300.5" stroke="black" stroke-width="2" fill="none" />
<polyline points="140.0,299.0,132.5,306.5,124.5,314.5,116.5,322.5,108.0,330.5,99.5,338.5" stroke="black" stroke-width="2" fill="none" />
<polyline points="91.5,337.5,99.5,330.0,107.5,323.0,115.5,316.0,124.0,308.5,131.5,301.5" stroke="black" stroke-width="2" fill="none" />
<polyline points="116.0,306.0,107.5,314.0,99.0,322.0,91.0,330.0,82.5,337.5" stroke="black" stroke-width="2" fill="none" />
<polyline points="61.0,336.0,68.5,329.0,76.5,321.5,84.0,313.5,92.0,306.0,100.0,298.5,108.0,291.0,116.0,283.0,124.0,276.0,132.0,268.5" stroke="black" stroke-width="2" fill="none" />
<polyline points="134.5,267.0,124.5,275.0,114.5,282.5,104.0,290.5,95.0,291.5,102.5,285.5" stroke="black" stroke-width="2" fill="none" />
<polyline points="101.5,284.0,93.0,291.5,85.0,299.0,77.0,307.0,68.5,314.5,60.0,322.5,52.0,330.0,44.5,337.5" stroke="black" stroke-width="2" fill="none" />
<polyline points="53.0,335.5,61.0,327.5,68.5,319.5,76.0,312.0,84.0,304.0,92.0,296.0,100.0,289.0,108.0,281.5,116.5,274.5,124.5,267.0" stroke="black" stroke-width="2" fill="none" />
<polyline points="115.0,266.5,107.0,274.0" stroke="black" stroke-width="2" fill="none" />
<polyline points="107.5,273.0,96.5,281.5,90.0,289.5,93.0,286.0,101.0,279.5,108.5,275.0" stroke="black" stroke-width="2" fill="none" />
<polyline points="109.0,277.5,102.0,285.0,96.5,295.5,104.5,289.5,112.5,283.5,120.5,276.5,128.5,271.0" stroke="black" stroke-width="2" fill="none" />
<polyline points="116.5,264.0,108.0,264.5" stroke="black" stroke-width="2" fill="none" />
<polyline points="115.0,263.0,123.0,262.0,131.0,261.0,138.5,260.0,146.5,257.5" stroke="black" stroke-width="2" fill="none" />
<polyline points="140.5,259.5,148.5,252.5,157.0,245.0" stroke="black" stroke-width="2" fill="none" />
<polyline points="148.0,246.0,140.0,253.5" stroke="black" stroke-width="2" fill="none" />
<polyline points="141.5,249.0,149.0,249.0" stroke="black" stroke-width="2" fill="none" />
<polyline points="150.5,241.5,142.5,242.5" stroke="black" stroke-width="2" fill="none" />
<polyline points="141.5,242.5,150.0,235.0" stroke="black" stroke-width="2" fill="none" />
<polyline points="149.0,225.0,141.0,233.0,133.0,241.0" stroke="black" stroke-width="2" fill="none" />
<polyline points="130.5,243.0,121.5,243.5,107.5,251.5,109.5,259.0,113.5,266.5" stroke="black" stroke-width="2" fill="none" />
<polyline points="113.0,258.0,105.0,265.5,97.5,273.0,90.0,281.0,82.5,288.5,74.5,296.5,66.5,304.0,58.0,312.0,50.0,319.5,42.5,326.5,35.0,333.5" stroke="black" stroke-width="2" fill="none" />
<polyline points="25.5,332.5,33.5,325.0,42.0,317.5,50.0,310.0,58.5,302.5,67.5,295.0,75.5,287.5,83.0,280.0,90.5,273.0,98.0,265.0,105.5,257.5,113.5,250.0" stroke="black" stroke-width="2" fill="none" />
<polyline points="108.5,250.0,116.5,246.0,124.5,242.0,132.5,239.5,140.0,256.5" stroke="black" stroke-width="2" fill="none" />
<polyline points="132.5,245.5,140.5,245.0,149.0,245.0,156.5,245.0,164.0,244.5,171.5,244.0" stroke="black" stroke-width="2" fill="none" />
<polyline points="181.5,246.0,189.0,245.5,196.5,244.5" stroke="black" stroke-width="2" fill="none" />
<polyline points="203.0,246.5,211.0,246.0,218.5,245.0,226.0,244.0" stroke="black" stroke-width="2" fill="none" />
<polyline points="259.0,260.5,267.5,259.5,275.0,259.0,282.5,258.5,290.5,258.0" stroke="black" stroke-width="2" fill="none" />
<polyline points="307.5,195.5,315.5,188.5" stroke="black" stroke-width="2" fill="none" />
<polyline points="312.5,185.0,320.5,185.0" stroke="black" stroke-width="2" fill="none" />
<polyline points="325.0,185.5,332.5,177.5,341.0,169.5,349.5,162.0,357.5,154.5" stroke="black" stroke-width="2" fill="none" />
<polyline points="355.5,148.5,347.5,155.5,340.0,163.0" stroke="black" stroke-width="2" fill="none" />
<polyline points="342.5,163.0,335.0,171.0" stroke="black" stroke-width="2" fill="none" />
<polyline points="333.0,172.0,325.0,179.5" stroke="black" stroke-width="2" fill="none" />
<polyline points="332.0,185.0,339.5,184.5" stroke="black" stroke-width="2" fill="none" />
<polyline points="340.0,186.0,347.5,178.5" stroke="black" stroke-width="2" fill="none" />
<polyline points="349.5,171.0,342.0,178.5,334.0,186.0" stroke="black" stroke-width="2" fill="none" />
<polyline points="330.5,168.5,322.5,169.0,315.0,169.5" stroke="black" stroke-width="2" fill="none" />
<polyline points="308.0,165.5,315.5,165.0,323.0,164.0,331.0,163.5,338.5,163.0,347.0,163.0,355.0,162.5,363.5,162.0,371.5,161.5" stroke="black" stroke-width="2" fill="none" />
<polyline points="363.0,162.5,355.0,170.5" stroke="black" stroke-width="2" fill="none" />
<polyline points="354.5,169.5,346.0,170.5,338.5,171.5,330.5,172.0,322.5,173.0,314.5,173.0,306.5,173.5,298.0,174.0" stroke="black" stroke-width="2" fill="none" />
<polyline points="299.5,176.5,307.5,169.0,315.5,161.5,323.5,154.0,332.0,146.0" stroke="black" stroke-width="2" fill="none" />
<polyline points="326.0,149.5,335.0,157.5" stroke="black" stroke-width="2" fill="none" />
<polyline points="332.0,156.0,324.0,163.5,316.0,171.0,308.0,178.0,300.5,185.0" stroke="black" stroke-width="2" fill="none" />
<polyline points="299.5,184.0,307.5,183.5,315.0,183.0,322.5,182.5,330.0,182.0,337.0,181.5,345.0,180.5" stroke="black" stroke-width="2" fill="none" />
<polyline points="338.5,188.5,330.0,189.0,321.5,189.5,313.0,190.0,305.0,190.5" stroke="black" stroke-width="2" fill="none" />
<polyline points="307.0,185.0,315.0,176.5,323.0,169.5,331.0,162.0,339.0,154.5,346.5,147.5,354.5,140.0" stroke="black" stroke-width="2" fill="none" />
<polyline points="357.5,131.0,360.5,125.0,368.5,114.0,367.5,115.0,361.0,123.0,353.0,127.5,353.0,135.5,353.5,143.5,347.5,156.5,335.5,164.5,325.5,172.5,327.5,170.5,335.5,164.5,343.5,159.0,357.0,151.0,365.0,145.0,374.5,145.0,379.5,138.0,377.5,138.0,363.0,145.5,356.0,153.5,358.0,162.0,365.5,161.0,373.5,156.0,381.0,153.0,391.5,150.0" stroke="black" stroke-width="2" fill="none" />
<polyline points="388.0,146.5,396.5,139.0" stroke="black" stroke-width="2" fill="none" />
<polyline points="391.5,135.0,399.0,142.5,406.5,120.5" stroke="black" stroke-width="2" fill="none" />
<polyline points="407.5,122.5,404.5,130.0,401.5,138.0,396.5,152.5,394.0,160.5,390.5,168.5,387.0,176.5,384.0,184.0,379.0,192.0,375.0,200.0,371.5,208.0,370.0,216.0,373.0,216.0,381.0,220.0,390.0,216.0,395.5,206.0" stroke="black" stroke-width="2" fill="none" />
<polyline points="389.5,206.0,381.5,206.5,373.5,207.0" stroke="black" stroke-width="2" fill="none" />
<polyline points="374.0,209.0,382.0,192.0,389.5,176.5,397.5,169.5,405.0,167.5,412.0,154.5" stroke="black" stroke-width="2" fill="none" />
<polyline points="413.0,151.5,404.5,152.0" stroke="black" stroke-width="2" fill="none" />
<polyline points="401.5,145.5,409.0,137.5,417.5,130.0,425.5,122.0" stroke="black" stroke-width="2" fill="none" />
<polyline points="424.5,120.0,427.5,128.0,424.5,136.5,417.5,144.5,409.5,152.0,402.5,160.5,406.5,168.5,401.0,178.5,398.0,186.5,395.5,186.5,394.0,194.5,396.0,180.5" stroke="black" stroke-width="2" fill="none" />
<polyline points="396.0,172.0,403.5,164.5" stroke="black" stroke-width="2" fill="none" />
<polyline points="402.0,160.0,410.0,151.0,418.0,143.0,426.0,129.0,433.5,134.5,431.0,142.5" stroke="black" stroke-width="2" fill="none" />
<polyline points="427.0,146.0,418.5,147.0,410.5,147.5,403.0,148.0,395.0,148.0,387.0,148.5,379.0,149.0" stroke="black" stroke-width="2" fill="none" />
<polyline points="387.5,146.5,395.5,146.0" stroke="black" stroke-width="2" fill="none" />
<polyline points="388.0,138.5,396.0,131.0" stroke="black" stroke-width="2" fill="none" />
<polyline points="390.0,131.0,381.5,138.5" stroke="black" stroke-width="2" fill="none" />
<polyline points="378.0,134.0,386.0,133.0,393.5,132.5" stroke="black" stroke-width="2" fill="none" />
<polyline points="389.5,130.5,391.5,138.5,396.0,146.0,378.5,158.0,368.5,166.0,351.0,174.0,346.0,182.5" stroke="black" stroke-width="2" fill="none" />
<polyline points="333.0,190.0,340.0,182.0,343.0,174.0,347.0,166.0" stroke="black" stroke-width="2" fill="none" />
<polyline points="346.0,161.5,354.0,160.5" stroke="black" stroke-width="2" fill="none" />
<polyline points="354.0,151.0,346.0,152.0" stroke="black" stroke-width="2" fill="none" />
<polyline points="339.5,141.0,347.5,140.5,355.5,139.5,364.0,139.0,372.5,139.5,381.0,139.0,389.0,138.5,397.0,137.0,405.0,136.5,412.5,135.5,420.5,135.0,429.0,134.5" stroke="black" stroke-width="2" fill="none" />
<polyline points="429.0,132.5,427.5,140.5,423.5,148.5,427.0,141.5" stroke="black" stroke-width="2" fill="none" />
<polyline points="420.0,136.0,411.5,137.0" stroke="black" stroke-width="2" fill="none" />
<polyline points="411.5,131.0,419.5,123.5" stroke="black" stroke-width="2" fill="none" />
<polyline points="413.0,121.5,421.0,114.0" stroke="black" stroke-width="2" fill="none" />
<polyline points="429.0,115.5,421.0,116.5,413.5,117.0,405.5,117.0" stroke="black" stroke-width="2" fill="none" />
<polyline points="408.5,113.5,397.0,121.5,384.0,129.5,369.0,137.5,360.0,142.5,368.0,139.0,376.5,134.0,384.5,130.0,392.5,125.5,401.0,119.5,409.0,115.0,417.0,116.0,425.0,115.0,432.5,119.0" stroke="black" stroke-width="2" fill="none" />
<polyline points="438.0,123.0,430.0,130.0,421.5,137.0,413.5,145.0,405.5,153.0,397.5,161.0" stroke="black" stroke-width="2" fill="none" />
<polyline points="396.0,158.5,404.0,158.0,412.0,157.5,420.0,157.0" stroke="black" stroke-width="2" fill="none" />
<polyline points="415.0,152.0,410.0,160.0,414.0,168.5,409.5,176.5,406.5,185.0,402.5,194.5,397.0,203.5,390.5,213.0" stroke="black" stroke-width="2" fill="none" />
<polyline points="387.5,210.0,379.5,217.5" stroke="black" stroke-width="2" fill="none" />
<polyline points="379.0,211.0,371.0,218.0" stroke="black" stroke-width="2" fill="none" />
<polyline points="372.0,213.0,380.0,212.0,388.0,211.5" stroke="black" stroke-width="2" fill="none" />
<polyline points="382.5,218.0,386.5,208.5,378.5,208.5" stroke="black" stroke-width="2" fill="none" />
<polyline points="384.0,200.0,380.5,208.0,374.5,210.0,373.5,202.0,381.5,187.0,389.5,171.0,397.5,150.5" stroke="black" stroke-width="2" fill="none" />
<polyline points="408.0,144.5,414.0,136.5,407.5,144.0,417.0,155.0,414.0,160.5,426.5,147.5" stroke="black" stroke-width="2" fill="none" />
<polyline points="429.0,129.0,421.0,129.5,413.5,130.0" stroke="black" stroke-width="2" fill="none" />
<polyline points="404.0,133.5,412.5,132.5,421.0,132.0,429.5,131.5,437.0,131.0" stroke="black" stroke-width="2" fill="none" />
<polyline points="436.0,123.0,428.0,123.0,420.0,123.0,412.5,124.0,404.5,124.5" stroke="black" stroke-width="2" fill="none" />
<polyline points="380.0,107.5,371.5,115.0" stroke="black" stroke-width="2" fill="none" />
<polyline points="373.5,115.0,381.0,114.0" stroke="black" stroke-width="2" fill="none" />
<polyline points="370.0,106.0,377.5,98.5" stroke="black" stroke-width="2" fill="none" />
<polyline points="382.0,96.0,374.0,100.0,368.5,99.0,360.5,104.0,359.5,110.5,351.5,128.5,344.0,129.5" stroke="black" stroke-width="2" fill="none" />
<polyline points="343.0,129.5,348.5,137.5,341.5,145.5,335.5,153.5,335.5,154.0,343.5,144.0" stroke="black" stroke-width="2" fill="none" />
<polyline points="348.0,132.5,356.0,132.0,363.5,132.0" stroke="black" stroke-width="2" fill="none" />
<polyline points="354.5,123.0,346.5,130.5" stroke="black" stroke-width="2" fill="none" />
<polyline points="338.5,126.5,346.5,125.5,354.0,125.0,362.5,124.0" stroke="black" stroke-width="2" fill="none" />
<polyline points="357.0,116.0,365.0,108.5" stroke="black" stroke-width="2" fill="none" />
<polyline points="355.0,105.5,346.5,113.0,338.5,120.5" stroke="black" stroke-width="2" fill="none" />
<polyline points="332.5,118.0,340.5,117.5,349.0,117.0,357.0,116.0,365.0,115.0,373.0,114.5,381.0,114.0" stroke="black" stroke-width="2" fill="none" />
<polyline points="387.5,98.5,379.5,99.5,371.5,100.0,363.5,100.5,355.0,100.5,347.0,101.0,339.0,101.0,330.5,101.5,322.0,102.0,313.5,102.5" stroke="black" stroke-width="2" fill="none" />
<polyline points="314.5,108.0,322.5,112.0,330.5,117.0" stroke="black" stroke-width="2" fill="none" />
<polyline points="331.5,121.0,340.0,113.5,348.5,106.0,357.0,98.5,365.5,90.5" stroke="black" stroke-width="2" fill="none" />
<polyline points="363.0,98.0,370.5,90.5,378.5,83.5,386.5,76.0,395.0,68.0" stroke="black" stroke-width="2" fill="none" />
<polyline points="391.0,63.5,399.0,70.5,407.5,65.5,415.5,60.0" stroke="black" stroke-width="2" fill="none" />
<polyline points="420.5,56.5,428.5,56.0,436.0,55.5" stroke="black" stroke-width="2" fill="none" />
<polyline points="436.0,52.0,428.0,59.5,420.0,66.5,412.5,73.5" stroke="black" stroke-width="2" fill="none" />
<polyline points="403.0,62.0,411.0,61.5,420.0,60.5,427.5,59.5,435.5,59.0" stroke="black" stroke-width="2" fill="none" />
<polyline points="426.5,52.0,419.0,59.5,410.5,66.5,402.5,74.5,394.0,82.5,386.0,90.5" stroke="black" stroke-width="2" fill="none" />
<polyline points="387.0,89.5,379.0,90.0" stroke="black" stroke-width="2" fill="none" />
<polyline points="381.0,91.0,389.0,83.5,397.5,76.5" stroke="black" stroke-width="2" fill="none" />
<polyline points="396.0,82.5,388.0,83.0" stroke="black" stroke-width="2" fill="none" />
<polyline points="389.5,88.5,381.5,96.5,375.5,103.5,380.5,107.5,376.0,116.0,365.0,127.0,363.5,129.0,359.5,136.5,362.5,129.5,366.5,120.5,374.5,116.5" stroke="black" stroke-width="2" fill="none" />
<polyline points="364.0,97.5,356.5,97.5" stroke="black" stroke-width="2" fill="none" />
<polyline points="351.0,102.0,359.0,98.0,367.0,95.0,375.0,92.0,382.5,91.0,390.0,87.0,398.5,87.5,391.5,94.5,385.5,102.0,391.0,95.0" stroke="black" stroke-width="2" fill="none" />
<polyline points="396.5,89.0,388.5,89.5,380.5,90.5,372.5,91.0,364.5,91.5,357.0,92.0,349.0,92.0" stroke="black" stroke-width="2" fill="none" />
<polyline points="349.5,89.0,345.0,97.0,340.5,104.5,345.0,97.5,353.5,87.0" stroke="black" stroke-width="2" fill="none" />
<polyline points="354.5,89.0,362.0,89.0" stroke="black" stroke-width="2" fill="none" />
<polyline points="364.5,81.5,356.5,89.0,348.0,97.0" stroke="black" stroke-width="2" fill="none" />
<polyline points="347.0,106.0,355.0,105.5" stroke="black" stroke-width="2" fill="none" />
<polyline points="339.5,108.0,331.5,115.5" stroke="black" stroke-width="2" fill="none" />
<polyline points="324.0,114.0,332.0,106.5" stroke="black" stroke-width="2" fill="none" />
<polyline points="336.0,108.5,328.0,102.5" stroke="black" stroke-width="2" fill="none" />
<polyline points="324.0,102.0,336.0,110.0" stroke="black" stroke-width="2" fill="none" />
<polyline points="331.5,99.5,323.5,107.0" stroke="black" stroke-width="2" fill="none" />
<polyline points="322.5,114.0,330.5,113.5,338.5,113.0,346.5,112.0,355.0,111.5" stroke="black" stroke-width="2" fill="none" />
<polyline points="347.5,85.5,355.5,85.0,364.0,84.0,372.5,83.0,381.0,82.5,389.5,82.0,397.5,81.0,405.0,81.0" stroke="black" stroke-width="2" fill="none" />
<polyline points="397.5,74.5,389.5,75.0" stroke="black" stroke-width="2" fill="none" />
<polyline points="379.5,64.5,388.0,57.5,396.5,50.0,405.0,43.0,413.0,36.0" stroke="black" stroke-width="2" fill="none" />
<polyline points="410.5,42.0,402.5,50.0,391.5,58.0,390.0,65.5,394.5,73.0,394.5,80.5,386.5,87.5,373.5,95.5,361.5,103.5,360.5,110.5,357.0,118.5,344.5,122.5,337.5,130.0,330.0,138.5,323.0,146.5,316.0,155.0,309.0,163.0,298.5,171.0,291.5,178.5,297.5,186.5,306.0,195.0,320.5,187.5,327.5,191.5,335.5,189.0,341.5,176.0,349.0,166.0,357.5,169.5,365.5,168.5,374.0,162.5" stroke="black" stroke-width="2" fill="none" />
<polyline points="387.0,173.5,395.5,172.5" stroke="black" stroke-width="2" fill="none" />
<polyline points="395.0,165.0,403.0,165.0,411.0,165.0" stroke="black" stroke-width="2" fill="none" />
<polyline points="405.0,189.0,396.5,196.0" stroke="black" stroke-width="2" fill="none" />
<polyline points="393.0,200.0,401.5,193.5,408.5,175.5" stroke="black" stroke-width="2" fill="none" />
<polyline points="404.0,196.5,396.0,196.5,388.0,197.0,380.0,197.0" stroke="black" stroke-width="2" fill="none" />
<polyline points="383.5,197.5,384.0,197.0,390.0,194.5,398.0,182.0" stroke="black" stroke-width="2" fill="none" />
<polyline points="404.0,187.5,396.0,188.0,388.0,188.5,380.0,189.0" stroke="black" stroke-width="2" fill="none" />
<polyline points="338.0,161.0,330.5,161.0,323.0,161.0" stroke="black" stroke-width="2" fill="none" />
<polyline points="317.0,158.0,325.5,157.5,332.5,157.0,340.0,157.0,347.5,156.5,355.0,156.5,363.0,155.5,371.5,155.0,380.0,154.5" stroke="black" stroke-width="2" fill="none" />
<polyline points="363.5,146.5,355.5,147.0,347.0,147.5,339.0,148.0,330.5,149.0,323.0,150.0" stroke="black" stroke-width="2" fill="none" />
<polyline points="309.0,140.5,300.5,148.0" stroke="black" stroke-width="2" fill="none" />
<polyline points="297.5,145.5,305.5,145.0" stroke="black" stroke-width="2" fill="none" />
<polyline points="307.5,132.0,299.5,139.5,292.0,146.5" stroke="black" stroke-width="2" fill="none" />
<polyline points="292.0,143.5,300.0,143.0,308.5,142.5,316.5,142.0" stroke="black" stroke-width="2" fill="none" />
<polyline points="307.0,149.5,299.0,150.0,291.0,150.5" stroke="black" stroke-width="2" fill="none" />
<polyline points="291.0,158.5,283.0,159.0" stroke="black" stroke-width="2" fill="none" />
<polyline points="275.0,164.5,267.0,172.0" stroke="black" stroke-width="2" fill="none" />
<polyline points="261.0,172.0,269.0,164.5" stroke="black" stroke-width="2" fill="none" />
<polyline points="267.5,155.0,259.5,162.0,251.5,170.0" stroke="black" stroke-width="2" fill="none" />
<polyline points="251.5,165.5,259.5,165.0,267.0,164.5,275.5,164.0" stroke="black" stroke-width="2" fill="none" />
<polyline points="275.0,168.5,267.0,169.5,259.0,170.0" stroke="black" stroke-width="2" fill="none" />
<polyline points="252.5,179.0,244.5,186.5,236.0,193.5" stroke="black" stroke-width="2" fill="none" />
<polyline points="237.0,190.0,229.0,197.0" stroke="black" stroke-width="2" fill="none" />
<polyline points="221.0,196.0,229.0,188.5" stroke="black" stroke-width="2" fill="none" />
<polyline points="228.0,181.0,220.0,189.0,212.5,196.0,204.5,203.0" stroke="black" stroke-width="2" fill="none" />
<polyline points="202.5,201.0,210.5,200.5" stroke="black" stroke-width="2" fill="none" />
<polyline points="213.0,194.0,221.0,195.0,229.0,194.5,237.0,194.5,244.5,189.5,254.0,179.5" stroke="black" stroke-width="2" fill="none" />
<polyline points="243.5,176.0,251.5,175.5,260.0,174.5,268.0,173.5" stroke="black" stroke-width="2" fill="none" />
<polyline points="266.5,161.0,258.0,162.0,250.0,162.5" stroke="black" stroke-width="2" fill="none" />
<polyline points="251.5,160.5,259.5,153.0,268.0,145.5" stroke="black" stroke-width="2" fill="none" />
<polyline points="268.0,139.5,260.0,147.0,252.0,154.5,243.5,162.0" stroke="black" stroke-width="2" fill="none" />
<polyline points="244.0,155.0,252.0,147.5" stroke="black" stroke-width="2" fill="none" />
<polyline points="252.0,142.5,259.5,141.5,267.0,141.0,274.5,140.5" stroke="black" stroke-width="2" fill="none" />
<polyline points="280.5,135.5,288.5,143.5,292.5,151.5,283.5,159.0,286.5,156.5,290.5,152.0" stroke="black" stroke-width="2" fill="none" />
<polyline points="292.5,138.5,300.5,138.0" stroke="black" stroke-width="2" fill="none" />
<polyline points="303.5,131.5,311.0,137.5,319.0,135.0,326.5,129.0" stroke="black" stroke-width="2" fill="none" />
<polyline points="315.5,116.0,307.0,117.0,298.5,117.5,290.5,118.5" stroke="black" stroke-width="2" fill="none" />
<polyline points="291.0,124.0,283.5,132.0" stroke="black" stroke-width="2" fill="none" />
<polyline points="280.0,132.5,288.0,138.5,296.0,145.5" stroke="black" stroke-width="2" fill="none" />
<polyline points="290.5,138.0,298.5,131.0" stroke="black" stroke-width="2" fill="none" />
<polyline points="298.5,129.5,306.5,118.0,314.5,109.0,307.5,116.5,302.5,124.5,298.5,132.5,311.0,140.0,301.5,148.0,293.0,154.5,301.0,148.5,309.0,142.5" stroke="black" stroke-width="2" fill="none" />
<polyline points="301.0,128.5,292.0,129.0" stroke="black" stroke-width="2" fill="none" />
<polyline points="282.0,137.5,289.5,130.0,297.0,122.5,305.0,115.0" stroke="black" stroke-width="2" fill="none" />
<polyline points="299.5,117.5,287.5,125.5,293.5,121.5" stroke="black" stroke-width="2" fill="none" />
<polyline points="306.5,109.0,314.5,108.5,323.0,108.5,331.5,107.5,339.5,107.0,347.5,106.0,355.5,106.0,363.0,105.5,371.0,105.0,379.0,104.5,387.0,104.0" stroke="black" stroke-width="2" fill="none" />
<polyline points="374.5,92.0,354.5,100.0,352.5,108.0,347.5,116.5,336.5,124.5,343.0,120.0,350.5,114.0,354.5,118.0" stroke="black" stroke-width="2" fill="none" />
<polyline points="340.5,94.0,332.0,95.0" stroke="black" stroke-width="2" fill="none" />
<polyline points="315.5,111.5,329.5,119.5,326.0,127.5,315.0,135.5" stroke="black" stroke-width="2" fill="none" />
<polyline points="323.0,177.0,315.0,177.5,307.0,177.5" stroke="black" stroke-width="2" fill="none" />
<polyline points="305.5,181.0,313.5,179.5,321.5,179.5" stroke="black" stroke-width="2" fill="none" />
<polyline points="311.0,188.5,305.0,180.0,306.5,182.0" stroke="black" stroke-width="2" fill="none" />
<polyline points="296.5,182.0,304.5,191.0,312.5,196.0" stroke="black" stroke-width="2" fill="none" />
<polyline points="291.5,179.0,299.5,171.0,308.0,165.0,316.0,156.0,324.0,147.0,332.5,138.0,340.0,129.0,348.0,120.0" stroke="black" stroke-width="2" fill="none" />
<polyline points="313.5,130.5,305.5,131.5,297.5,132.0,290.0,132.5,282.5,133.0,275.0,134.0,267.5,134.5" stroke="black" stroke-width="2" fill="none" />
<polyline points="273.0,128.0,281.5,127.0,289.5,126.5,298.0,125.5,307.0,124.5" stroke="black" stroke-width="2" fill="none" />
<polyline points="268.0,147.5,259.5,147.5,251.5,147.5,243.5,147.5,236.0,148.5" stroke="black" stroke-width="2" fill="none" />
<polyline points="235.5,156.5,243.5,160.5,251.0,164.5" stroke="black" stroke-width="2" fill="none" />
<polyline points="250.0,153.5,258.0,153.5" stroke="black" stroke-width="2" fill="none" />
<polyline points="259.0,150.5,267.0,141.0,278.0,130.0,270.0,138.0,263.0,146.0,262.5,154.5,271.5,162.5,270.5,170.5,250.0,177.5,257.5,170.5,265.5,171.5,274.0,168.0" stroke="black" stroke-width="2" fill="none" />
<polyline points="275.5,155.0,267.5,155.0,259.5,155.5,252.0,156.0,244.0,156.5,236.0,156.5,228.0,156.5" stroke="black" stroke-width="2" fill="none" />
<polyline points="236.5,160.0,250.5,167.5,245.5,175.5,239.5,183.5" stroke="black" stroke-width="2" fill="none" />
<polyline points="228.5,166.0,220.5,166.5,212.0,167.0" stroke="black" stroke-width="2" fill="none" />
<polyline points="219.0,170.5,211.0,178.0" stroke="black" stroke-width="2" fill="none" />
<polyline points="211.5,177.5,219.5,177.0" stroke="black" stroke-width="2" fill="none" />
<polyline points="219.5,177.5,228.0,180.5,236.0,183.5,244.0,178.0,251.5,174.0,249.0,182.5,242.0,190.5,223.0,201.0,216.5,205.0,224.5,200.0" stroke="black" stroke-width="2" fill="none" />
<polyline points="211.5,185.0,219.0,177.5" stroke="black" stroke-width="2" fill="none" />
<polyline points="219.5,181.0,217.5,172.5,224.0,164.5,216.0,175.5" stroke="black" stroke-width="2" fill="none" />
<polyline points="218.5,184.0,211.0,185.0" stroke="black" stroke-width="2" fill="none" />
<polyline points="203.5,184.0,210.5,188.0,203.5,196.5" stroke="black" stroke-width="2" fill="none" />
<polyline points="203.0,194.5,194.0,202.0" stroke="black" stroke-width="2" fill="none" />
<polyline points="189.5,201.0,197.0,199.0,205.0,195.0,214.0,198.0,213.0,206.0,205.5,208.0,200.5,216.0,189.5,224.0" stroke="black" stroke-width="2" fill="none" />
<polyline points="187.5,219.5,180.0,227.0" stroke="black" stroke-width="2" fill="none" />
<polyline points="178.5,221.0,170.5,228.5" stroke="black" stroke-width="2" fill="none" />
<polyline points="171.0,226.5,178.5,226.0" stroke="black" stroke-width="2" fill="none" />
<polyline points="172.0,230.5,180.0,230.0,188.0,229.5" stroke="black" stroke-width="2" fill="none" />
<polyline points="178.5,218.5,170.5,219.0" stroke="black" stroke-width="2" fill="none" />
<polyline points="171.5,219.0,180.0,211.5,187.5,204.0" stroke="black" stroke-width="2" fill="none" />
<polyline points="188.0,198.0,180.0,205.0,172.5,211.5,165.0,218.5,157.0,226.0" stroke="black" stroke-width="2" fill="none" />
<polyline points="156.0,226.0,147.5,226.5,139.0,227.5,130.5,228.0,122.5,228.5,114.0,229.0,106.0,229.0" stroke="black" stroke-width="2" fill="none" />
<polyline points="113.5,235.0,105.5,242.5,97.0,250.0" stroke="black" stroke-width="2" fill="none" />
<polyline points="100.5,249.0,108.5,248.0" stroke="black" stroke-width="2" fill="none" />
<polyline points="111.0,254.5,119.0,256.5,126.5,256.0,134.5,256.0" stroke="black" stroke-width="2" fill="none" />
<polyline points="136.0,253.0,133.0,245.0" stroke="black" stroke-width="2" fill="none" />
<polyline points="124.5,240.5,133.0,232.5,140.5,225.0,148.5,217.5" stroke="black" stroke-width="2" fill="none" />
<polyline points="157.0,214.5,165.0,214.0,173.0,213.0,181.0,212.5,188.0,212.0" stroke="black" stroke-width="2" fill="none" />
<polyline points="180.5,209.5,173.0,210.0" stroke="black" stroke-width="2" fill="none" />
<polyline points="179.5,209.0,188.0,207.0,196.0,205.5,204.0,204.5" stroke="black" stroke-width="2" fill="none" />
<polyline points="203.5,214.5,211.5,214.0" stroke="black" stroke-width="2" fill="none" />
<polyline points="202.5,189.0,210.5,189.0,218.5,188.5,226.5,188.0,234.0,188.0,242.0,188.0,249.5,187.5" stroke="black" stroke-width="2" fill="none" />
<polyline points="258.0,177.5,250.5,178.0,242.5,178.5,234.0,179.5,226.0,180.5,218.0,181.0,209.5,181.0,201.5,181.5" stroke="black" stroke-width="2" fill="none" />
<polyline points="204.0,173.5,212.5,173.5,220.0,173.0" stroke="black" stroke-width="2" fill="none" />
<polyline points="189.0,189.5,181.0,197.0,173.5,205.0,165.5,212.5" stroke="black" stroke-width="2" fill="none" />
<polyline points="166.0,220.5,147.0,228.5,146.0,236.5,149.0,244.0,152.5,252.0,136.5,261.5,117.5,267.5,125.5,266.5,133.5,264.0" stroke="black" stroke-width="2" fill="none" />
<polyline points="126.5,236.5,118.0,243.5,109.5,251.5,100.5,258.5" stroke="black" stroke-width="2" fill="none" />
<polyline points="93.5,265.5,85.5,273.0,77.5,280.5,69.5,288.5" stroke="black" stroke-width="2" fill="none" />
<polyline points="69.5,287.5,77.5,287.0,85.0,287.0,92.5,287.0" stroke="black" stroke-width="2" fill="none" />
<polyline points="98.5,272.5,107.0,272.0,115.0,272.0" stroke="black" stroke-width="2" fill="none" />
<polyline points="99.5,279.0,91.5,279.5,83.5,280.0,75.5,281.0,67.5,281.0" stroke="black" stroke-width="2" fill="none" />
<polyline points="68.5,283.5,76.5,275.5,84.0,268.5" stroke="black" stroke-width="2" fill="none" />
<polyline points="78.0,265.5,70.5,273.5" stroke="black" stroke-width="2" fill="none" />
<polyline points="74.5,274.0,66.5,275.0" stroke="black" stroke-width="2" fill="none" />
<polyline points="67.5,265.5,75.5,258.0" stroke="black" stroke-width="2" fill="none" />
<polyline points="72.5,261.5,79.0,260.5,70.0,264.5,78.0,273.0,86.0,267.0,93.0,265.0" stroke="black" stroke-width="2" fill="none" />
<polyline points="92.5,265.0,89.5,265.0" stroke="black" stroke-width="2" fill="none" />
<polyline points="92.0,250.5,100.5,242.5" stroke="black" stroke-width="2" fill="none" />
<polyline points="106.0,240.0,114.0,240.0" stroke="black" stroke-width="2" fill="none" />
<polyline points="99.5,236.5,107.5,235.5,116.0,235.5,124.0,235.0,132.0,234.5,140.0,234.5,148.0,234.0,155.5,234.0" stroke="black" stroke-width="2" fill="none" />
<polyline points="164.0,236.0,172.0,236.0,179.5,235.5" stroke="black" stroke-width="2" fill="none" />
<polyline points="165.0,238.5,157.0,246.0,155.5,247.0,166.0,239.5,173.0,231.5,170.0,223.5" stroke="black" stroke-width="2" fill="none" />
<polyline points="165.0,204.5,173.5,197.0" stroke="black" stroke-width="2" fill="none" />
<polyline points="172.0,201.5,179.5,200.5,187.0,200.0" stroke="black" stroke-width="2" fill="none" />
<polyline points="187.0,194.5,185.0,195.5,186.5,203.5,180.5,213.5,181.0,221.0,181.5,229.0,175.5,237.0,181.5,232.0,189.5,224.0,197.0,218.5,208.0,213.5" stroke="black" stroke-width="2" fill="none" />
<polyline points="187.0,187.0,179.5,187.5,171.5,188.0" stroke="black" stroke-width="2" fill="none" />
<polyline points="165.0,196.5,173.0,196.5,180.5,195.5,188.0,195.5,195.5,196.0,203.0,196.0,210.5,195.5,218.5,196.0" stroke="black" stroke-width="2" fill="none" />
<polyline points="219.0,203.0,211.5,203.5,203.5,203.5,196.0,203.5,188.5,204.0,181.0,204.0,173.0,204.0,164.5,204.5" stroke="black" stroke-width="2" fill="none" />
<polyline points="160.5,206.0,162.5,214.0,149.0,222.5,147.0,223.5,155.5,219.5,163.5,214.5" stroke="black" stroke-width="2" fill="none" />
<polyline points="140.0,220.5,132.0,228.0" stroke="black" stroke-width="2" fill="none" />
<polyline points="129.0,226.0,124.0,234.0,119.0,237.0,127.0,230.0" stroke="black" stroke-width="2" fill="none" />
<polyline points="133.0,233.0,141.0,232.5,148.5,232.5" stroke="black" stroke-width="2" fill="none" />
<polyline points="137.5,221.0,142.5,231.5,150.5,227.5,159.0,224.0,167.5,221.5" stroke="black" stroke-width="2" fill="none" />
<polyline points="193.5,218.0,185.5,219.0,178.0,219.5,170.5,220.0,162.5,220.0,154.5,220.0,146.5,220.0,139.0,220.5,131.0,221.0" stroke="black" stroke-width="2" fill="none" />
<polyline points="124.5,242.5,117.0,243.5,109.5,244.0,101.5,244.5,93.5,245.0" stroke="black" stroke-width="2" fill="none" />
<polyline points="92.5,249.5,100.5,257.5" stroke="black" stroke-width="2" fill="none" />
<polyline points="80.0,275.0,72.0,267.0" stroke="black" stroke-width="2" fill="none" />
<polyline points="67.0,262.5,74.5,257.5,82.5,252.0,90.0,246.5,98.0,240.5,106.0,236.0,114.0,231.0,121.5,226.0,129.5,220.5,137.5,215.5,146.0,211.0,153.5,204.5,161.5,199.5,169.5,195.0,177.5,190.0,185.0,185.0,193.5,180.5,201.5,175.5,210.0,169.5,217.5,165.0,225.5,158.0,233.5,153.0,241.5,149.5,249.0,145.5,257.0,141.0,265.0,136.0,273.5,131.0,282.0,125.5,290.0,120.0,298.0,115.0,305.5,110.0,313.5,105.0,322.0,100.5,330.0,95.5,338.5,89.5,346.5,84.5,354.5,79.5,362.5,73.5,370.0,68.5,378.5,59.5,386.5,50.5,394.5,43.5,402.5,37.5,410.5,37.0,418.5,38.0,426.5,43.0,434.5,51.0" stroke="black" stroke-width="2" fill="none" />
<polyline points="428.5,45.5,420.0,53.0" stroke="black" stroke-width="2" fill="none" />
<polyline points="420.5,48.5,428.5,48.0" stroke="black" stroke-width="2" fill="none" />
<polyline points="429.5,58.0,421.5,65.0,413.0,71.0,405.0,76.0,402.0,67.0,414.5,59.0,419.5,53.0,411.5,41.5,404.0,47.5,396.0,52.5,388.0,60.5" stroke="black" stroke-width="2" fill="none" />
<polyline points="394.0,60.5,386.0,68.5" stroke="black" stroke-width="2" fill="none" />
<polyline points="378.0,65.0,385.5,70.5,383.5,73.5,373.5,82.0,361.5,86.0,369.0,84.0,377.5,80.5" stroke="black" stroke-width="2" fill="none" />
<polyline points="364.5,69.0,372.5,68.5,380.5,68.5,388.0,68.0,396.0,68.0,404.0,68.0,411.5,67.5,419.5,67.0,427.5,66.5" stroke="black" stroke-width="2" fill="none" />
<polyline points="411.5,49.5,419.5,42.0" stroke="black" stroke-width="2" fill="none" />
<polyline points="421.0,41.0,429.5,49.0,431.5,56.5,422.5,64.0,412.5,71.5" stroke="black" stroke-width="2" fill="none" />
<polyline points="404.5,50.0,412.5,43.0,420.5,35.5" stroke="black" stroke-width="2" fill="none" />
<polyline points="405.0,36.5,394.0,44.0,385.5,52.0,377.5,60.0,370.5,68.5,358.5,76.0,346.5,84.0,334.5,91.5,321.5,99.0,308.5,106.5,296.5,114.0,283.5,122.5,271.0,130.5,259.0,139.0,245.0,147.5,229.5,156.0,220.0,164.0,207.0,172.5,194.0,180.5,181.5,189.0,168.5,197.0,156.5,205.0,143.5,213.0,131.5,221.0,119.0,229.0,106.0,236.5,94.0,244.5,82.5,252.5,69.5,260.5,65.5,268.5,64.5,276.5,63.5,284.5,64.5,292.5" stroke="black" stroke-width="2" fill="none" />
<polyline points="57.0,301.5,49.0,308.5,42.0,315.5,34.0,322.5,26.5,329.5,19.0,336.5" stroke="black" stroke-width="2" fill="none" />
<polyline points="13.5,336.0,21.0,328.5,28.5,321.0,36.0,314.0,44.0,306.0,51.5,298.5" stroke="black" stroke-width="2" fill="none" />
<polyline points="44.0,298.5,36.5,306.0,29.0,313.0,21.0,320.5,13.5,328.5,5.0,336.0" stroke="black" stroke-width="2" fill="none" />
<polyline points="3.0,337.0,11.0,336.0,19.5,335.5,27.5,334.5,36.0,334.0,44.5,334.0,52.5,333.5,60.5,333.5,68.5,333.0,76.5,333.0,84.0,332.5,92.5,332.5,100.0,332.0,107.5,331.5,115.5,331.0,122.5,330.5,130.5,330.5,138.5,329.5,146.5,328.5,154.5,327.5,162.5,327.0,170.5,326.5,179.0,326.5,187.5,325.5,195.5,325.0,203.5,324.0,211.5,324.0,219.0,323.5,227.0,323.0,235.0,322.5,243.0,322.0,251.0,321.5,259.0,321.0,267.0,321.0,274.5,320.5,282.5,320.0,291.0,319.0,300.0,318.5,308.5,318.0,317.0,318.0,325.0,317.5,333.5,317.0,341.5,316.0" stroke="black" stroke-width="2" fill="none" />
<polyline points="444.0,294.5,452.0,293.5,460.0,292.5,467.5,292.0,475.0,291.5,482.5,291.0,490.0,290.5,498.0,290.0,506.0,289.0,513.5,288.5" stroke="black" stroke-width="2" fill="none" />
<polyline points="517.5,303.0,509.5,304.0,501.5,304.5,493.0,305.0,485.0,306.0,477.0,306.5,469.0,307.0,460.5,307.0,452.5,307.0,444.5,307.0,436.5,307.5,428.0,308.5,420.0,309.0,412.0,309.0,404.0,309.5,396.0,310.0,388.5,309.5,380.5,309.5,372.5,309.5,365.0,310.0,357.5,310.5,349.0,310.5,341.0,311.0,332.5,312.0,324.0,312.5,316.0,313.0,308.0,314.0,300.0,315.0,291.5,315.5,283.0,317.0,274.5,317.0,266.0,317.5,257.5,317.5,250.0,318.0,242.0,319.0,234.0,319.5,225.5,320.5,217.5,321.5,209.0,322.5,201.0,323.5,194.0,324.0,186.5,324.5,179.0,325.0,171.5,325.5,163.5,326.0,155.5,326.5,147.5,326.5,139.5,326.5,132.0,326.0,124.0,326.0,116.5,326.5,108.5,327.0,100.5,327.5,93.0,328.5,85.5,329.0,77.5,329.0,68.5,330.0,60.0,330.0,52.0,330.5,43.5,331.5,34.5,332.0,25.5,332.0,17.0,333.0,9.0,334.0,1.0,334.5" stroke="black" stroke-width="2" fill="none" />
<polyline points="2.5,329.5,10.5,329.0,19.0,329.0,27.5,328.5,36.0,328.0,44.5,328.0,52.5,327.5,60.5,327.0,68.5,327.0,76.0,326.5,84.0,325.5,92.0,325.0,100.0,324.5,108.0,324.0,116.0,323.0,124.0,322.5,131.5,321.5,138.5,321.0,146.0,321.0,154.0,320.5,162.0,320.0,170.5,319.5,178.5,319.0,186.5,319.0,194.5,318.0,202.5,317.5,210.0,316.5,218.5,315.5,226.5,315.5" stroke="black" stroke-width="2" fill="none" />
<polyline points="173.0,320.5,165.5,321.0,157.5,321.0,149.5,321.5" stroke="black" stroke-width="2" fill="none" />
<polyline points="132.0,321.0,124.5,321.0" stroke="black" stroke-width="2" fill="none" />
<polyline points="107.5,306.5,99.5,314.5,91.5,321.5,83.5,329.0,75.5,337.0" stroke="black" stroke-width="2" fill="none" />
<polyline points="68.0,337.5,76.0,329.5,84.0,321.5,92.5,314.0,101.5,306.0,109.5,298.5" stroke="black" stroke-width="2" fill="none" />
<polyline points="67.5,253.0,75.5,252.5,83.0,252.5,91.5,252.0,100.0,251.0,108.0,250.5,116.0,250.0,123.5,249.5,131.5,249.0,139.0,248.5,146.5,248.0,154.5,248.0,162.5,247.5,170.5,247.0,178.0,247.0,186.0,247.0,193.5,246.5,201.5,245.5,210.0,244.5,218.0,244.0,227.0,243.5,235.0,243.5,243.0,243.0" stroke="black" stroke-width="2" fill="none" />
<polyline points="251.0,249.0,242.5,249.0,235.0,249.5,227.0,250.0,219.5,251.0,212.0,251.5,203.5,252.0,194.5,252.0,186.0,252.5,178.5,253.0,170.5,253.5,162.0,254.5,154.0,255.5,146.0,256.0,137.5,256.0,129.5,256.5,122.0,257.0,114.5,257.0,106.5,257.0,99.0,257.0,91.0,257.0,83.5,257.5,76.5,258.5,68.5,259.5,60.5,260.5,52.5,261.0" stroke="black" stroke-width="2" fill="none" />
<polyline points="36.0,291.5,28.0,299.0,20.0,306.5,12.0,313.5,4.0,321.0" stroke="black" stroke-width="2" fill="none" />
<polyline points="3.5,321.5,11.5,321.0,19.5,320.5,27.5,320.0,35.0,319.5,43.0,318.5" stroke="black" stroke-width="2" fill="none" />
<polyline points="36.5,300.0,28.0,307.0,19.5,314.5,11.5,321.5,3.5,328.5" stroke="black" stroke-width="2" fill="none" />
<polyline points="4.5,325.5,12.5,325.0,20.5,324.5,28.5,324.0,36.0,323.5,44.0,323.0,52.0,323.5,60.0,323.5,67.5,323.0,75.0,322.5,83.0,321.5,90.5,321.0,98.0,320.5,106.0,320.5,113.5,320.0,121.5,319.0,129.5,318.5,138.0,318.0,146.0,316.5,153.5,316.0,161.5,315.5,169.5,315.0,178.0,315.0,186.5,314.5,194.5,314.5,202.5,313.5,210.5,313.0,218.5,312.0,226.5,311.0,235.0,310.0,243.5,309.5,251.5,309.0,259.5,309.0,267.5,309.0,275.5,308.5,283.0,308.5,291.5,308.0,300.0,307.0,308.5,306.5,316.5,306.0,324.5,306.0,332.0,305.0,339.5,304.5,347.5,303.5,355.5,302.5,364.0,302.0,371.5,302.0,379.0,303.0,387.0,303.0,395.5,303.0,403.5,302.5,412.0,301.5,419.5,301.0,427.5,300.0,435.5,299.0,443.5,298.5,452.0,297.5,461.0,296.0,469.5,295.5,477.0,295.0,485.0,294.5,493.0,293.5,501.0,293.5,508.5,293.5,516.0,293.0" stroke="black" stroke-width="2" fill="none" />
<polyline points="516.5,286.0,508.5,287.0,500.5,288.0,492.0,289.0,484.0,289.0,476.0,289.5,467.5,290.0,459.5,290.5,452.0,291.0,444.0,291.0,435.5,291.0,427.5,291.0,420.0,291.0,411.5,291.0,403.5,292.0,395.5,292.0,388.0,292.5,380.5,293.0,372.5,293.5,365.0,294.0,357.0,294.5,349.0,295.0,341.5,295.5,334.0,296.0,325.5,296.0,318.0,297.0,309.5,298.0,301.5,299.0,293.5,300.0,285.5,300.5,277.5,301.0,269.5,302.0,261.5,303.0,253.5,303.5,245.5,304.0,238.0,304.0,230.0,305.5,222.0,306.0,213.5,306.5,205.0,307.0,197.0,307.0,188.5,308.0,180.5,308.5,172.0,309.0,164.0,309.5,156.0,310.0,147.5,310.5,139.5,310.5,131.5,310.5,124.0,311.0,116.0,311.5,108.5,312.0,100.5,312.0,92.5,312.5,85.0,313.0,76.5,314.0,68.5,314.0,60.5,314.5,52.0,314.5,43.5,315.0,35.5,315.5,27.5,316.5,19.5,316.5,11.0,317.0,2.5,317.0" stroke="black" stroke-width="2" fill="none" />
<polyline points="4.0,313.0,12.0,312.0" stroke="black" stroke-width="2" fill="none" />
<polyline points="5.5,313.0,13.0,305.5,20.5,298.5,28.0,291.0" stroke="black" stroke-width="2" fill="none" />
<polyline points="20.5,292.5,12.5,300.0,4.5,307.5" stroke="black" stroke-width="2" fill="none" />
<polyline points="5.0,308.0,13.5,307.5,21.5,307.5,29.5,307.5,37.5,307.0,45.5,306.5,53.0,305.5,60.0,304.5,67.5,304.0,75.5,303.5,83.5,303.0,91.5,302.5,99.0,302.0,107.0,301.5,115.5,301.0,124.0,301.0,132.0,300.0,140.0,300.0,148.5,299.5,156.5,299.5,164.0,299.0,173.0,298.5,181.5,298.5,189.5,297.5,197.0,297.0,205.0,296.0,212.5,295.5,220.0,295.5,227.0,295.5,235.0,295.5,243.0,294.5,251.5,294.5,259.5,293.0,268.0,292.5,275.5,291.5,283.5,291.0,291.5,291.0,300.5,291.0,309.0,291.0,317.5,290.5,325.5,289.5,333.5,289.0,341.5,288.5,349.5,288.0,357.5,288.0,366.0,287.5,374.5,287.0,382.5,286.5,390.5,286.5,398.5,286.0,406.5,285.5,414.0,284.5,421.5,284.5,428.5,283.5,435.5,283.0,443.0,282.0,450.5,281.0,458.5,280.0,467.0,279.0,475.0,278.0,483.0,277.5,491.5,277.0,499.5,276.5,508.0,276.5,516.0,277.0" stroke="black" stroke-width="2" fill="none" />
<polyline points="515.0,269.0,506.5,269.5,498.5,270.0,491.0,270.0,483.0,270.5,475.0,271.5,467.0,272.5,459.5,273.0,452.0,274.0,444.5,274.5,437.0,275.0,429.0,275.5,421.0,275.5,413.5,276.0,405.5,276.0,398.0,276.5,389.5,277.0,381.0,277.5,372.5,278.5,364.0,279.5,356.5,280.0,348.0,281.0,340.5,281.5,332.5,282.0,324.5,282.5,316.0,283.0,307.5,283.5,299.5,284.0,291.5,284.5,284.0,285.0,276.0,285.0,268.0,285.0,260.5,285.5,252.5,285.5,244.5,286.0,236.5,286.5,228.5,286.5,220.5,287.5,212.5,288.5,204.5,289.0,196.0,290.0,187.5,290.0,179.0,291.0,170.5,291.5,162.5,292.5,154.5,293.0,146.5,293.0,139.0,293.0,131.5,293.0,123.5,293.5,115.5,293.5,107.5,294.0,99.5,294.5,92.0,295.0,84.0,295.0,76.0,296.0,68.0,296.5,60.0,297.5,52.0,298.0,44.0,298.5,36.0,299.0,28.5,299.5,21.0,300.0,13.0,300.0,5.0,300.5" stroke="black" stroke-width="2" fill="none" />
<polyline points="2.0,299.0,10.0,291.0" stroke="black" stroke-width="2" fill="none" />
<polyline points="4.5,294.5,12.0,293.5,20.0,293.0,28.5,291.5,36.5,290.5,44.5,289.5,52.0,289.0,60.5,289.0,68.5,288.5,76.5,288.0,84.5,287.5,93.0,287.0,101.0,287.0,108.5,287.0,116.0,286.5,123.5,286.5,131.5,286.5,139.0,286.0,147.0,286.0,154.5,285.5,163.0,285.0,171.0,284.5,179.0,284.0,187.5,283.5,195.5,283.0,204.0,282.0,212.0,281.5,220.0,281.0,228.0,280.0,236.0,279.5,244.5,278.5,252.0,278.5,260.0,278.0,267.5,277.5,274.5,276.5,282.0,276.0,290.0,276.0,298.0,276.0,305.5,275.5,313.5,275.0,321.5,274.5,329.5,274.0,338.0,272.5,346.5,271.5,355.5,270.5,364.0,270.0,372.5,269.5,380.5,269.0,388.5,268.5" stroke="black" stroke-width="2" fill="none" />
<polyline points="371.0,261.0,363.0,261.5,354.5,262.0,346.5,263.0,338.0,264.0,330.0,265.0,322.0,265.0,314.5,265.5,306.5,266.0,298.5,266.5,290.5,266.5,282.5,267.0,274.5,268.0,266.5,269.0,258.5,269.5,250.0,270.0,242.5,270.0,234.0,271.0,226.5,271.5,218.5,272.5,210.5,273.0,203.0,274.0,195.0,274.5,186.0,275.5,177.5,276.5,169.5,277.0,161.0,278.0,153.5,278.0,146.0,278.5,138.5,279.0,130.5,278.5,123.0,279.0,115.5,279.0,108.0,278.5,100.5,278.5,93.0,279.5,85.0,279.5,77.0,280.5,69.0,281.5,61.5,282.5,53.5,283.0,45.5,283.5,37.0,284.0,28.5,284.5,20.5,285.0,12.0,285.5,3.5,286.0" stroke="black" stroke-width="2" fill="none" />
<polyline points="4.0,276.5,12.0,276.0,21.0,275.0,29.5,274.5,37.5,274.0,45.5,273.5,53.0,273.5,61.0,273.0,68.5,273.5,77.0,274.0,85.0,273.5,93.0,273.0,101.0,272.0,109.0,271.5,116.0,271.0,123.5,270.5,131.0,270.5,138.0,270.0,145.5,269.5,153.0,269.0,161.5,268.5,169.0,268.0,177.5,268.0,186.0,268.0,195.0,267.0,203.5,266.5,211.5,265.5,219.5,264.5,227.0,264.0,234.5,263.0,242.0,262.5,250.5,262.0,259.0,261.0,267.5,260.0,275.5,259.0,283.0,259.0,291.0,258.0,298.5,257.5,306.0,257.0,314.5,255.5,322.5,255.0,330.0,254.5,338.0,254.5,345.5,254.5,353.0,254.5,361.0,254.5" stroke="black" stroke-width="2" fill="none" />
<polyline points="316.0,248.5,308.0,250.0,299.5,250.5,291.0,251.0,282.5,251.0,274.5,251.5,266.5,252.5,258.0,253.0,250.0,253.5,242.0,254.5,234.0,254.5,226.5,255.0,218.0,256.0,209.5,256.5,201.5,257.5,193.5,258.0,186.0,258.5,178.5,259.0,171.0,260.0,163.5,260.5,155.5,261.0,148.0,261.5,140.5,262.0,132.5,262.5,124.5,263.0,117.0,263.5,109.0,263.5,101.5,264.0,93.5,264.0,85.5,264.5,77.5,265.0,69.0,265.0,61.0,266.0,52.5,266.5,44.5,267.0,36.0,267.0,28.0,267.5,20.0,267.5,12.5,268.0,5.0,268.5" stroke="black" stroke-width="2" fill="none" />
<polyline points="3.0,262.0,10.5,261.0,18.5,260.5,27.0,260.5" stroke="black" stroke-width="2" fill="none" />
<polyline points="12.0,253.0,4.5,253.0" stroke="black" stroke-width="2" fill="none" />
<polyline points="4.0,84.5,12.0,84.0" stroke="black" stroke-width="2" fill="none" />
<polyline points="3.0,76.5,11.0,76.0,19.0,75.5,27.0,75.5" stroke="black" stroke-width="2" fill="none" />
<polyline points="1.0,68.5,9.0,68.0,17.5,67.5,25.5,67.0,33.5,67.0,41.5,66.5,50.0,66.0,58.0,65.0,66.5,64.5,75.0,64.5,83.0,64.0,91.0,63.5,98.5,63.0,106.5,63.0,114.5,63.0,122.5,63.0,130.0,62.5,137.5,62.0,145.5,61.0,154.0,60.5" stroke="black" stroke-width="2" fill="none" />
<polyline points="139.5,18.0,147.5,11.5,155.0,4.5" stroke="black" stroke-width="2" fill="none" />
<polyline points="149.5,2.0,141.0,10.0,133.0,17.5,124.5,25.0" stroke="black" stroke-width="2" fill="none" />
<polyline points="116.5,26.5,124.5,19.5,132.0,12.5,140.0,5.0" stroke="black" stroke-width="2" fill="none" />
<polyline points="131.5,3.0,123.5,10.0,116.0,18.0,107.5,26.0" stroke="black" stroke-width="2" fill="none" />
<polyline points="101.0,26.5,109.0,18.5,117.5,11.0,125.5,3.0" stroke="black" stroke-width="2" fill="none" />
<polyline points="114.5,4.5,107.0,11.5,99.0,19.0,91.0,26.0" stroke="black" stroke-width="2" fill="none" />
<polyline points="85.0,26.5,93.0,18.0,101.5,10.5,109.5,3.0" stroke="black" stroke-width="2" fill="none" />
<polyline points="100.0,2.0,92.0,10.0,85.0,18.0,77.0,26.0,69.0,34.0" stroke="black" stroke-width="2" fill="none" />
<polyline points="60.0,33.0,67.5,25.5,75.5,18.0,84.5,10.5,92.5,3.0" stroke="black" stroke-width="2" fill="none" />
<polyline points="85.5,2.5,93.0,2.5,102.5,3.0,110.5,3.0,118.5,3.5,126.5,3.5,134.5,3.5,143.0,3.5,151.5,3.5,159.5,3.5,168.0,3.5,176.0,3.5,184.0,3.5,191.5,3.5,199.5,3.0,207.5,3.0,215.0,3.0,223.0,3.0,231.0,3.0,239.5,3.0,247.5,3.0,255.0,3.0,263.0,3.0,271.0,2.5,279.0,2.5,287.5,2.5,295.5,2.0,303.5,1.5,311.5,2.0,319.5,2.0,327.5,2.5,335.5,2.5,343.5,2.0,351.5,2.5,359.5,2.5,367.5,3.0,375.5,3.0,383.5,3.0,391.5,2.5,399.5,2.5,407.5,2.5,415.5,2.5,424.0,2.5,432.0,3.0,440.0,3.5,448.0,3.5,456.0,4.0,464.0,4.0,472.0,4.0,479.5,4.5,487.5,4.5,495.5,4.5,504.5,4.5" stroke="black" stroke-width="2" fill="none" />
<polyline points="508.0,2.5,499.5,10.0,492.0,17.0" stroke="black" stroke-width="2" fill="none" />
<polyline points="497.5,18.0,506.0,10.5,514.0,3.0" stroke="black" stroke-width="2" fill="none" />
<polyline points="514.5,12.0,507.0,19.5" stroke="black" stroke-width="2" fill="none" />
<polyline points="491.0,10.0,499.0,2.5" stroke="black" stroke-width="2" fill="none" />
<polyline points="491.0,3.5,483.0,11.0,474.5,18.5" stroke="black" stroke-width="2" fill="none" />
<polyline points="466.5,18.5,474.0,11.5,481.5,4.0" stroke="black" stroke-width="2" fill="none" />
<polyline points="475.0,3.0,467.0,10.5" stroke="black" stroke-width="2" fill="none" />
<polyline points="465.0,2.5,457.0,9.5" stroke="black" stroke-width="2" fill="none" />
<polyline points="450.5,10.0,458.5,2.0" stroke="black" stroke-width="2" fill="none" />
<polyline points="451.5,3.5,443.5,11.0" stroke="black" stroke-width="2" fill="none" />
<polyline points="437.0,12.0,445.0,4.5" stroke="black" stroke-width="2" fill="none" />
<polyline points="435.0,4.0,427.0,12.0" stroke="black" stroke-width="2" fill="none" />
<polyline points="452.0,51.5,459.5,51.5,467.5,51.0,475.0,51.0,482.0,51.0,490.0,50.5,497.5,50.5,505.0,49.5,513.0,48.5" stroke="black" stroke-width="2" fill="none" />
<polyline points="403.5,48.5,395.5,48.5" stroke="black" stroke-width="2" fill="none" />
<polyline points="379.5,52.5,387.5,52.0,395.5,52.0,403.5,52.0,411.5,51.5,419.0,51.5,427.5,51.0,436.0,50.0,444.5,49.5" stroke="black" stroke-width="2" fill="none" />
<polyline points="396.0,59.5,387.5,60.0,379.5,61.5,371.0,61.5" stroke="black" stroke-width="2" fill="none" />
<polyline points="354.0,77.5,362.5,77.0,371.0,76.0,379.5,75.0,387.5,74.0,395.0,74.0,403.0,73.0,410.5,72.5" stroke="black" stroke-width="2" fill="none" />
<polyline points="361.0,88.5,357.0,80.5" stroke="black" stroke-width="2" fill="none" />
<polyline points="286.5,12.5,294.0,5.0" stroke="black" stroke-width="2" fill="none" />
<polyline points="281.0,2.5,273.5,10.0" stroke="black" stroke-width="2" fill="none" />
<polyline points="275.0,5.0,267.0,13.0" stroke="black" stroke-width="2" fill="none" />
<polyline points="242.5,69.0,235.0,69.5,227.0,70.0,219.0,70.5,211.0,71.0" stroke="black" stroke-width="2" fill="none" />
<polyline points="125.0,74.5,116.5,74.5,108.5,74.0,100.5,74.5" stroke="black" stroke-width="2" fill="none" />
<polyline points="53.0,33.5,61.0,25.5,68.5,18.0,76.5,11.0,84.0,3.5" stroke="black" stroke-width="2" fill="none" />
<polyline points="72.5,3.5,64.5,10.5,57.5,17.5,50.0,25.0,42.0,33.0" stroke="black" stroke-width="2" fill="none" />
<polyline points="27.0,40.5,34.0,33.0,41.5,26.0,49.0,19.0,57.0,12.0,65.0,4.5" stroke="black" stroke-width="2" fill="none" />
<polyline points="60.0,3.5,52.5,11.0,44.5,19.0,36.5,27.0,28.5,34.5,20.0,42.0" stroke="black" stroke-width="2" fill="none" />
<polyline points="6.0,47.0,14.0,39.5,22.0,32.0,29.5,25.0,37.5,18.0,45.5,11.0,53.0,3.5" stroke="black" stroke-width="2" fill="none" />
<polyline points="43.5,2.5,36.0,10.0,28.0,18.0,20.5,26.0,13.0,33.5,5.0,41.0" stroke="black" stroke-width="2" fill="none" />
<polyline points="4.0,44.5,12.0,44.0,20.0,43.5,28.0,43.5,35.5,43.0,43.0,42.5,51.0,42.0,59.0,41.5,66.5,41.0,74.5,40.0,82.0,39.0,90.0,39.0,98.0,39.0,106.5,39.0,114.5,39.0,122.5,38.5,131.0,38.5,139.5,38.0,148.0,37.5,156.5,37.0,165.0,36.5,172.5,36.0,180.5,35.0,188.5,34.5,196.0,33.5,204.0,33.0,211.5,32.5,219.5,32.0,227.5,31.5,236.0,30.5,244.0,30.0,251.5,29.5,259.5,29.0,267.5,28.5,275.5,27.5,284.0,26.5,292.0,25.5,300.0,25.0,308.0,24.5,316.5,24.5,324.5,24.5,332.5,24.0,340.0,23.0,348.0,23.0,356.0,23.0,364.0,22.5,372.0,22.0,380.0,21.5,388.0,20.5,396.0,20.0,404.0,19.0,412.0,19.0,421.0,19.0,429.0,19.0,437.0,19.0,445.0,19.0,453.0,18.5,461.0,18.5,468.5,18.0,476.5,18.0,484.0,17.5,492.0,17.0,500.0,16.5,508.0,16.0,516.0,15.0" stroke="black" stroke-width="2" fill="none" />
<polyline points="293.0,43.5,285.0,44.0,276.5,44.5,268.0,44.0,259.5,44.5,251.5,45.5,243.5,46.0,235.5,46.5,228.0,47.0,219.5,47.5,211.5,48.0,202.5,49.0,195.0,50.0,186.5,50.5,179.0,51.0,171.5,51.5,164.0,52.5,155.5,53.0,147.5,54.0,139.5,54.5,131.5,55.0,123.5,55.0,115.5,55.5,108.0,55.5,100.0,55.5,92.0,56.0,84.5,56.0,76.0,56.5,68.0,57.0,59.5,57.5,51.0,58.0,42.5,58.5,35.0,59.0,26.5,59.5,18.5,60.0,11.5,60.5,3.5,61.5" stroke="black" stroke-width="2" fill="none" />
<polyline points="4.5,55.0,12.0,54.5,20.0,53.5,28.0,53.0,36.5,52.0,45.0,51.0,52.5,50.5,60.0,49.5,68.0,49.0,76.0,48.0,84.0,47.5,92.5,47.0,100.5,47.5,108.0,47.0,116.0,47.0,124.0,46.5,132.0,46.5,140.0,46.5,148.0,46.5,155.5,46.5,163.5,46.0,171.5,45.5,180.0,44.5,188.0,43.5,195.0,42.5,203.0,41.5,211.0,41.0,219.0,40.5,227.0,40.0,235.0,40.0,242.5,39.5,250.5,38.5,258.0,38.0,266.5,37.0,275.0,36.0,283.5,35.0,292.0,34.5,300.0,34.5,308.5,34.0,316.5,33.5,324.0,33.5,332.5,32.5,341.0,32.0,349.5,31.5,357.0,31.0,365.0,31.0,372.5,30.5" stroke="black" stroke-width="2" fill="none" />
<polyline points="515.5,7.0,508.0,7.5,500.0,8.0,493.0,8.5,485.5,9.0,477.0,9.5,469.5,9.5,462.0,9.5,453.5,9.5,445.5,9.5,437.5,9.5,429.5,9.5,421.5,9.5,413.5,10.0,405.5,10.5,397.0,11.0,388.5,11.5,381.0,12.0,373.0,12.5,365.0,13.0,357.5,14.0,349.0,15.5,341.0,16.5,333.5,17.0,325.5,17.0,317.5,17.5,309.0,18.0,301.0,18.5,293.0,19.0,285.0,19.5,277.0,20.0,269.0,21.0,261.0,22.0,252.5,22.5,244.5,23.0,236.5,23.5,228.5,24.0,220.0,24.5,212.0,24.5,204.0,25.0,196.0,25.5,187.5,25.5,179.5,25.5,171.5,25.5,164.0,26.5,156.0,27.0,148.0,27.5,140.0,28.0,132.0,29.0,123.5,29.5,115.0,30.5,106.5,31.0,98.5,31.5,90.0,32.0,82.0,32.0,74.0,33.0,66.0,33.5,58.5,33.5,50.5,33.5,42.0,33.5,35.0,34.0,27.0,35.0,19.0,36.0,10.0,36.5,2.0,37.0" stroke="black" stroke-width="2" fill="none" />
<polyline points="5.0,32.5,13.0,25.0,21.5,17.5,30.0,10.0,37.5,2.0" stroke="black" stroke-width="2" fill="none" />
<polyline points="29.5,3.5,21.5,11.0,13.5,18.5,5.5,26.0" stroke="black" stroke-width="2" fill="none" />
<polyline points="6.0,22.5,14.0,22.5,21.5,21.5,29.0,20.5,36.5,19.5,44.0,18.0,52.0,17.5,60.0,17.0,68.0,16.5,76.5,16.5,84.5,16.0,92.5,15.0,100.0,14.0,107.5,14.0,115.5,13.5,123.5,13.5,131.5,13.0,139.0,12.5,146.5,12.0,155.0,11.5,163.0,11.0,170.5,10.0,179.0,10.0,187.0,9.5,194.5,9.5,202.0,9.0,210.5,9.0,219.0,8.5,227.0,8.0,234.5,7.0,243.0,6.0,250.5,6.0,258.0,6.0,266.0,6.0,274.0,6.0,282.0,5.0,290.5,5.0,299.0,3.5,307.5,2.5,315.0,2.0,323.0,1.0,331.0,1.0,339.0,1.0,347.5,0.5,356.0,0.0,364.0,-0.5,372.0,-1.0,380.0,-1.5,387.5,-2.0,396.0,-2.0,404.0,-2.5,412.5,-3.5,420.5,-3.5,428.5,-4.0,436.0,-4.0,444.5,-5.0,452.0,-5.5,459.5,-5.5,467.0,-6.0,474.5,-6.5,482.5,-7.0,490.5,-7.5,498.5,-8.0,507.0,-9.0,516.0,-10.0" stroke="black" stroke-width="2" fill="none" />
<polyline points="517.5,-1.0,509.0,-1.0,501.0,-1.0,492.5,-0.5,484.0,-0.5,476.0,0.0,468.0,0.5,460.0,1.0,452.5,1.5,444.5,2.0,436.0,2.0,427.5,2.5,419.5,3.0,412.5,3.5,404.5,4.0,396.5,4.0,388.5,4.5,380.0,5.0,371.5,6.0,363.0,6.5,355.5,7.0,347.5,7.5,340.0,8.5,331.0,9.5,323.0,10.0,315.5,10.5,307.5,10.5,300.0,11.0,292.5,12.0,284.5,13.5,276.5,13.5,268.5,14.0,260.5,14.5,252.5,15.0,244.0,16.0,236.5,16.5,228.0,16.5,220.0,17.0,211.5,17.0,203.5,17.0,195.5,17.5,188.0,18.0,180.0,18.5,172.0,18.5,164.0,18.5,155.5,19.0,147.0,19.5,139.0,20.5,131.0,21.0,123.0,22.0,115.0,22.0,107.0,22.5,99.0,23.0,91.0,23.0,82.5,23.5,75.0,23.5,67.0,24.0,59.0,24.5,51.0,25.5,43.0,26.5,35.0,26.5,27.5,27.0,19.5,27.5,11.5,28.5,3.5,29.0" stroke="black" stroke-width="2" fill="none" />
<polyline points="3.0,29.5,3.0,37.5,3.0,45.5,3.0,53.5,3.0,61.0,2.5,69.0,3.0,77.0,3.5,85.0,4.0,93.0,4.5,101.0,4.5,109.0,4.5,117.0,4.5,124.5,4.0,132.5,4.0,140.5,3.5,148.5,3.5,157.0,3.0,165.0,3.0,173.5,3.0,182.0,3.0,190.0,3.0,198.0,3.0,206.0,3.0,214.0,2.5,222.0,2.0,230.0,2.5,237.5,2.5,245.5,2.5,253.0,3.0,261.0,3.0,269.0,2.5,277.0,2.5,285.0,2.5,293.5,2.0,301.0" stroke="black" stroke-width="2" fill="none" />
<polyline points="2.0,18.5,9.5,12.0,17.5,4.5" stroke="black" stroke-width="2" fill="none" />
<polyline points="10.5,1.0,2.0,8.5" stroke="black" stroke-width="2" fill="none" />
<polyline points="3.5,10.5,11.5,9.5,19.5,9.0,27.5,8.5,35.0,7.5" stroke="black" stroke-width="2" fill="none" />
<polyline points="12.5,18.0,4.5,18.5" stroke="black" stroke-width="2" fill="none" />
<polyline points="5.0,14.0,13.0,13.0,20.0,12.5,28.0,12.0,36.0,12.0,44.0,11.0,52.0,10.0,60.0,9.0,68.5,8.0,76.5,6.5,84.5,5.5,92.5,5.0,100.5,5.5,109.0,5.5,116.5,5.0,124.5,5.5,132.5,5.0,141.0,5.5,149.0,5.5,156.5,5.5,164.0,5.0,172.5,4.5,180.5,4.0,188.0,3.0,195.5,2.5,203.5,2.0,211.0,1.0,219.0,0.5,226.5,0.0,234.5,-0.5,242.5,-1.0,250.5,-1.5,258.5,-2.0,266.5,-3.0,275.0,-3.5,283.5,-4.5,292.0,-5.0,300.0,-5.5,308.0,-6.0,315.5,-7.0,323.5,-7.5,331.5,-7.5,340.0,-7.5,348.0,-8.0,355.5,-9.0,364.0,-9.5,372.0,-10.0,380.5,-11.0,389.0,-12.0,398.0,-13.0,406.0,-13.5,414.5,-13.5,422.0,-14.0,429.5,-14.0,436.5,-14.5,444.5,-15.0,452.0,-14.5,459.5,-14.5,467.5,-15.0,475.5,-15.5,483.0,-15.5,491.5,-16.5,499.5,-18.0,508.0,-19.0,516.0,-19.5" stroke="black" stroke-width="2" fill="none" />
<polyline points="516.0,-24.5,507.5,-23.5,499.5,-22.5,492.0,-22.5,484.0,-22.0,476.0,-21.5,467.5,-21.5,459.0,-21.5,450.5,-21.5,441.5,-21.5,434.0,-22.0,426.0,-22.0,417.5,-21.5,408.5,-20.5,400.5,-19.5,392.5,-19.5,385.0,-19.0,377.5,-19.0,370.0,-19.0,362.5,-18.0,354.5,-17.0,346.5,-15.5,339.0,-14.5,331.5,-14.0,323.5,-13.5,315.5,-13.0,308.0,-12.5,299.5,-12.0,291.0,-11.5,283.0,-10.5,275.5,-10.5,268.0,-10.0,260.5,-10.0,253.5,-9.5,245.0,-9.0,237.0,-8.5,228.0,-8.5,219.5,-8.0,211.0,-8.0,203.0,-7.5,194.5,-6.5,186.0,-6.0,178.5,-5.0,171.0,-4.0,163.0,-3.5,155.0,-3.0,147.5,-2.5,139.5,-2.0,132.0,-1.5,124.0,-1.0,116.5,-1.0,108.5,-2.0,101.0,-2.0,93.5,-2.0,85.5,-1.5,77.5,-1.0,69.5,-0.5,61.0,0.5,51.5,1.5,42.5,2.0,34.5,2.5,26.5,3.5,18.5,3.5,10.0,3.5,2.0,4.5" stroke="black" stroke-width="2" fill="none" />
<polyline points="263.5,153.0,271.0,160.0,279.0,162.0" stroke="black" stroke-width="2" fill="none" />
<polyline points="496.0,341.5,504.0,341.5" stroke="black" stroke-width="2" fill="none" />
</svg>