<svg xmlns="http://www.w3.org/2000/svg" version="1.1"><polyline points="512.0,85.5,512.5,93.5,512.5,101.5,512.5,109.5,512.5,117.5,512.5,125.5,513.0,133.5,514.0,141.0,514.5,149.0,514.5,156.5,514.5,165.0,514.5,173.0,514.0,181.0,513.5,189.5,513.5,198.5,513.5,207.0,513.5,215.0,513.0,222.5,513.0,230.5,513.0,238.5,513.0,246.5,512.5,254.5,512.5,262.5,512.5,270.0,512.5,278.0,513.0,286.0,513.0,294.0,513.0,302.0,513.5,310.0,514.0,318.5,514.0,326.5,514.0,334.5" stroke="black" stroke-width="2" fill="none" />
<polyline points="516.0,241.0,508.0,241.5,500.0,242.0,491.5,242.5,483.0,243.5,474.5,244.0,466.5,245.0,458.5,245.5,450.5,246.0" stroke="black" stroke-width="2" fill="none" />
<polyline points="445.0,238.0,453.5,237.5,460.5,237.0,468.0,237.0,475.5,236.5,483.0,236.5,491.0,235.5,499.5,235.0,508.0,234.5,515.5,234.0" stroke="black" stroke-width="2" fill="none" />
<polyline points="516.0,224.0,508.0,224.0,500.0,224.5,492.5,226.0,485.0,226.5,477.0,226.5,468.5,227.0,460.5,227.5,451.5,228.5,443.0,229.0,435.0,229.5,427.0,229.5" stroke="black" stroke-width="2" fill="none" />
<polyline points="428.0,221.5,435.5,221.0,443.0,220.0,451.0,219.5,458.5,219.0,467.0,219.0,475.0,218.5,483.5,218.0,491.5,217.5,500.0,217.0,508.0,216.0,516.0,215.5" stroke="black" stroke-width="2" fill="none" />
<polyline points="515.5,130.5,507.5,131.5,499.5,132.0,491.5,132.5,483.0,132.5,475.0,133.0,467.0,133.0,458.5,133.5,450.0,134.0,441.5,134.5" stroke="black" stroke-width="2" fill="none" />
<polyline points="425.0,149.5,443.0,157.5,451.0,165.5,453.0,173.5,447.0,181.5,430.0,189.5,415.5,201.5,402.0,209.0,395.0,217.0,401.5,209.5,409.5,205.5,418.0,200.5" stroke="black" stroke-width="2" fill="none" />
<polyline points="419.5,195.0,411.5,202.0,403.5,210.0" stroke="black" stroke-width="2" fill="none" />
<polyline points="411.0,202.5,419.0,202.0" stroke="black" stroke-width="2" fill="none" />
<polyline points="419.0,201.0,411.0,201.0,403.5,201.5,396.0,202.5,388.0,203.5,380.5,204.0,372.5,204.0,363.5,204.0,355.0,204.5,347.5,205.0,339.5,205.5" stroke="black" stroke-width="2" fill="none" />
<polyline points="345.5,209.5,354.0,202.0,363.0,194.5" stroke="black" stroke-width="2" fill="none" />
<polyline points="355.5,195.5,348.0,203.0,339.5,211.0" stroke="black" stroke-width="2" fill="none" />
<polyline points="339.0,214.0,347.0,213.5,355.0,212.5,363.0,211.5,371.5,211.0,380.0,210.0,387.5,210.0,395.5,209.5,403.5,209.0" stroke="black" stroke-width="2" fill="none" />
<polyline points="404.5,195.0,396.5,202.5,388.0,209.5,380.0,217.5,372.0,225.0,364.0,233.0" stroke="black" stroke-width="2" fill="none" />
<polyline points="371.5,234.0,379.5,226.5,387.0,218.0,394.5,210.0,402.5,202.0,411.0,194.5" stroke="black" stroke-width="2" fill="none" />
<polyline points="402.0,204.5,394.0,205.0,386.5,205.5,378.5,206.0,370.5,206.5,363.0,207.0,355.5,207.5,347.0,208.5" stroke="black" stroke-width="2" fill="none" />
<polyline points="345.5,218.0,352.5,210.0,361.0,202.0" stroke="black" stroke-width="2" fill="none" />
<polyline points="371.0,201.5,363.5,209.0,355.5,216.5" stroke="black" stroke-width="2" fill="none" />
<polyline points="355.0,219.0,363.0,218.5,371.0,218.0,379.5,217.5,387.5,217.0,396.0,216.0" stroke="black" stroke-width="2" fill="none" />
<polyline points="381.0,204.5,373.0,212.0,365.5,219.5,357.0,226.5" stroke="black" stroke-width="2" fill="none" />
<polyline points="364.0,226.0,371.5,218.5,379.0,211.0,387.0,203.5,395.0,195.5" stroke="black" stroke-width="2" fill="none" />
<polyline points="393.5,218.5,385.5,219.5,377.5,220.0,370.0,220.5,362.5,221.0,355.0,222.0,347.5,222.5" stroke="black" stroke-width="2" fill="none" />
<polyline points="345.5,230.5,353.0,230.0,361.5,230.0,370.0,230.0,379.0,229.0,387.5,228.5,395.5,227.5" stroke="black" stroke-width="2" fill="none" />
<polyline points="381.0,242.5,373.0,249.5,365.0,257.5" stroke="black" stroke-width="2" fill="none" />
<polyline points="373.0,258.5,381.0,251.5" stroke="black" stroke-width="2" fill="none" />
<polyline points="373.0,244.5,365.0,252.0,356.5,259.0" stroke="black" stroke-width="2" fill="none" />
<polyline points="346.5,257.5,354.5,250.0,362.5,243.0" stroke="black" stroke-width="2" fill="none" />
<polyline points="355.0,244.0,347.0,251.5,339.0,258.5" stroke="black" stroke-width="2" fill="none" />
<polyline points="332.5,259.5,340.0,253.0,348.0,246.0" stroke="black" stroke-width="2" fill="none" />
<polyline points="345.0,240.0,353.5,239.0,361.5,238.5,370.0,237.5,379.0,236.5,387.0,236.0" stroke="black" stroke-width="2" fill="none" />
<polyline points="404.0,251.0,412.0,243.5" stroke="black" stroke-width="2" fill="none" />
<polyline points="413.5,244.5,402.0,252.5" stroke="black" stroke-width="2" fill="none" />
<polyline points="417.5,237.5,425.5,237.0" stroke="black" stroke-width="2" fill="none" />
<polyline points="426.5,213.0,434.5,212.5,443.0,212.5,451.5,211.5,459.5,211.0,467.5,210.0,475.5,210.0,483.0,209.5,491.0,209.0,499.0,208.5,507.0,208.0,515.0,207.5" stroke="black" stroke-width="2" fill="none" />
<polyline points="514.0,200.0,506.0,201.0,498.0,201.5,489.5,202.5,481.5,203.5,473.0,204.5,465.0,205.5,458.0,206.0,450.5,206.5,443.0,207.0,435.5,207.5,427.5,208.0" stroke="black" stroke-width="2" fill="none" />
<polyline points="423.5,202.5,422.5,210.5,422.0,218.5,421.0,226.5,418.5,234.5,407.0,243.0" stroke="black" stroke-width="2" fill="none" />
<polyline points="338.5,245.0,330.5,252.5" stroke="black" stroke-width="2" fill="none" />
<polyline points="324.5,251.5,332.0,243.5" stroke="black" stroke-width="2" fill="none" />
<polyline points="325.0,245.0,316.5,252.5" stroke="black" stroke-width="2" fill="none" />
<polyline points="316.5,244.5,308.0,252.0" stroke="black" stroke-width="2" fill="none" />
<polyline points="299.5,253.5,308.0,245.5,316.0,238.0" stroke="black" stroke-width="2" fill="none" />
<polyline points="309.0,233.0,301.0,241.0,293.0,249.0" stroke="black" stroke-width="2" fill="none" />
<polyline points="284.5,248.5,293.0,240.5,300.5,233.0,308.5,225.5" stroke="black" stroke-width="2" fill="none" />
<polyline points="306.5,229.5,298.0,229.5,289.5,230.0,281.5,231.0,273.5,232.0,266.0,232.5,258.5,232.5,251.0,233.0,243.5,233.0,235.5,233.5" stroke="black" stroke-width="2" fill="none" />
<polyline points="243.5,241.5,252.0,234.0,260.0,226.0,267.5,218.0,275.5,210.0,284.0,202.0,291.5,194.0,299.5,187.0" stroke="black" stroke-width="2" fill="none" />
<polyline points="294.5,188.5,286.0,195.5,277.5,203.5,268.5,210.5,259.5,218.0,251.0,225.0,242.5,232.0,234.5,239.0" stroke="black" stroke-width="2" fill="none" />
<polyline points="235.0,245.0,242.5,244.0,251.0,244.0,259.0,243.5,266.5,243.5,274.0,243.0,282.5,243.0,291.0,242.5,299.0,242.0,306.5,241.0,315.0,240.0,322.5,240.0,330.0,240.0,338.0,240.0,346.0,240.0,354.0,239.0,362.5,239.0,371.0,237.5,379.5,236.5,387.0,236.0,395.0,235.0,403.0,235.0,411.0,235.0,419.5,234.5,428.0,234.0" stroke="black" stroke-width="2" fill="none" />
<polyline points="349.0,197.5,341.0,205.0" stroke="black" stroke-width="2" fill="none" />
<polyline points="340.0,197.5,332.0,205.0" stroke="black" stroke-width="2" fill="none" />
<polyline points="330.5,199.0,338.5,204.0" stroke="black" stroke-width="2" fill="none" />
<polyline points="322.0,198.5,330.0,198.0,338.5,197.0,346.5,196.0,354.5,195.0,363.0,194.0,371.5,193.5,380.0,193.0,388.5,192.5,396.5,191.5,405.0,191.0,413.0,191.0,420.5,190.5,428.5,190.0,436.5,189.5,444.5,188.5,452.5,188.0,460.5,188.0,468.5,188.0,475.5,187.5,483.5,187.0,492.0,186.0,500.5,185.5,508.5,185.5,517.0,185.5" stroke="black" stroke-width="2" fill="none" />
<polyline points="507.5,98.0,516.0,90.0" stroke="black" stroke-width="2" fill="none" />
<polyline points="516.0,82.5,508.0,90.0,499.5,98.0" stroke="black" stroke-width="2" fill="none" />
<polyline points="492.0,97.5,500.0,90.0,507.5,83.0,515.5,75.5" stroke="black" stroke-width="2" fill="none" />
<polyline points="516.0,67.5,507.5,75.5,499.5,83.0,491.5,90.5,483.5,98.0" stroke="black" stroke-width="2" fill="none" />
<polyline points="476.0,97.0,483.5,90.0,491.5,82.5,499.5,75.0,508.0,67.0,516.0,59.5" stroke="black" stroke-width="2" fill="none" />
<polyline points="516.5,51.0,508.5,59.0,500.5,66.5,492.5,74.0,484.0,81.5,476.0,89.0,467.5,96.0" stroke="black" stroke-width="2" fill="none" />
<polyline points="460.5,95.0,468.0,87.5,476.0,80.5,483.5,73.0,491.5,66.0,499.5,59.0,507.5,51.5,515.5,44.5" stroke="black" stroke-width="2" fill="none" />
<polyline points="516.5,38.0,508.5,45.0,500.5,52.0,492.5,59.0,483.5,66.0,475.5,73.0,467.5,80.0,460.0,87.0,452.5,94.0" stroke="black" stroke-width="2" fill="none" />
<polyline points="451.0,87.0,459.5,79.5,467.5,72.5,475.5,65.5,483.5,58.0,491.5,50.5,500.0,43.5,508.5,36.0,517.0,28.5" stroke="black" stroke-width="2" fill="none" />
<polyline points="515.5,20.0,507.5,27.5,500.0,34.5,492.0,41.5,484.0,48.5,475.5,56.0,468.0,63.5,460.0,71.0,452.0,79.0,444.0,87.0" stroke="black" stroke-width="2" fill="none" />
<polyline points="433.5,85.5,442.0,78.0,450.5,71.0,458.5,63.5,467.0,56.0,475.0,48.5,482.5,41.0,490.0,33.5,497.5,26.0,505.0,18.5,513.0,11.0" stroke="black" stroke-width="2" fill="none" />
<polyline points="516.5,10.0,508.0,11.0" stroke="black" stroke-width="2" fill="none" />
<polyline points="506.5,3.0,498.5,10.0,490.5,17.5,482.5,24.5,474.0,32.0,466.0,39.5,458.0,47.5,450.0,55.0,442.0,63.0,434.5,70.0,426.5,77.5,418.0,85.5" stroke="black" stroke-width="2" fill="none" />
<polyline points="427.0,85.5,434.5,78.0,442.5,70.0,450.0,63.0,458.0,55.5,466.0,48.0,473.5,40.5,481.0,33.0,489.0,25.5,497.0,18.0,505.0,11.0,513.5,3.5" stroke="black" stroke-width="2" fill="none" />
<polyline points="498.5,4.5,490.5,11.5,482.0,18.5,474.0,25.5,466.5,33.5,459.0,41.0,451.0,48.5,442.5,55.5,435.0,63.0,427.0,70.0,419.0,77.5,411.0,85.5" stroke="black" stroke-width="2" fill="none" />
<polyline points="405.0,87.0,413.0,79.5,421.0,71.5,429.5,64.0,437.0,56.5,444.0,49.0,452.0,41.0,459.5,33.5,467.5,26.5,475.0,19.0,483.5,11.5,492.0,4.5" stroke="black" stroke-width="2" fill="none" />
<polyline points="483.0,4.0,475.5,12.0,467.5,20.0,459.5,27.5,452.0,34.5,444.0,42.0,436.0,49.0,428.0,56.5,420.5,63.5,413.0,70.5,405.5,77.5,397.0,85.5" stroke="black" stroke-width="2" fill="none" />
<polyline points="388.5,84.0,396.5,76.5,405.0,69.5,413.0,62.0,421.0,55.0,429.5,47.5,437.5,40.5,446.0,33.5,454.5,26.5,462.5,19.5,470.5,12.5,478.0,5.0" stroke="black" stroke-width="2" fill="none" />
<polyline points="467.0,4.0,459.5,12.0,452.0,19.0,444.0,26.0,436.5,33.0,428.5,40.0,421.0,47.5,413.0,55.5,405.0,63.5,397.0,71.0,389.0,78.5,381.0,86.0" stroke="black" stroke-width="2" fill="none" />
<polyline points="373.5,85.0,381.5,77.5,390.0,70.0,397.5,63.0,404.5,56.0,411.5,48.5,419.0,41.0,426.5,33.5,434.0,25.5,441.5,18.0,449.5,10.0,457.0,2.5" stroke="black" stroke-width="2" fill="none" />
<polyline points="450.5,3.0,442.5,10.5,434.5,18.5,427.0,26.0,418.5,33.5,411.0,41.5,403.0,49.0,395.0,57.0,387.5,64.0,379.5,71.5,371.5,79.5,363.5,86.5" stroke="black" stroke-width="2" fill="none" />
<polyline points="354.5,86.5,362.5,79.0,370.0,71.5,378.0,64.0,386.0,56.5,394.0,49.0,402.5,41.5,410.5,34.5,419.0,27.5,427.0,20.0,435.0,12.0,443.0,4.5" stroke="black" stroke-width="2" fill="none" />
<polyline points="435.0,5.0,427.0,13.0,419.5,20.0,412.0,27.0,404.0,33.0,395.5,40.0,387.5,48.0,379.5,55.5,371.5,63.0,362.5,70.5,354.5,78.0,346.5,85.5" stroke="black" stroke-width="2" fill="none" />
<polyline points="338.5,84.0,347.0,76.5,354.5,69.0,362.5,62.0,371.5,55.0,379.5,48.0,388.0,41.0,396.0,33.5,405.0,26.5,413.0,19.0,421.0,12.0,429.0,4.5" stroke="black" stroke-width="2" fill="none" />
<polyline points="420.0,1.5,411.5,9.0,403.5,16.5,395.5,24.0,387.5,32.0,380.0,39.0,372.0,46.5,363.5,54.5,355.5,62.0,347.5,70.0,339.5,77.5,332.0,85.0" stroke="black" stroke-width="2" fill="none" />
<polyline points="323.5,86.5,331.5,79.0,339.0,71.5,347.0,64.0,355.0,56.5,363.0,49.5,371.0,42.0,379.0,34.5,387.5,26.5,396.0,19.0,404.5,12.0,413.0,4.5" stroke="black" stroke-width="2" fill="none" />
<polyline points="404.0,3.5,396.0,11.0,388.0,18.5,379.5,26.5,371.5,34.5,363.5,42.0,355.5,49.0,347.0,56.0,339.0,63.5,331.5,71.5,324.0,79.0,315.5,86.5" stroke="black" stroke-width="2" fill="none" />
<polyline points="308.0,86.5,316.0,79.0,324.0,72.0,331.5,64.5,339.5,57.0,347.5,49.0,355.0,41.0,363.5,33.5,372.0,26.5,380.5,19.0,388.5,11.0,396.5,3.5" stroke="black" stroke-width="2" fill="none" />
<polyline points="389.0,6.0,381.0,13.0,373.5,20.5,365.5,28.0,357.5,35.0,349.0,42.0,341.0,49.0,333.0,56.0,324.5,62.5,316.0,70.0,308.0,77.0,299.5,85.0" stroke="black" stroke-width="2" fill="none" />
<polyline points="292.0,86.0,300.0,78.5,308.0,71.0,316.0,64.0,324.0,56.5,332.0,49.0,340.0,41.0,348.5,34.0,356.5,27.0,364.5,20.0,372.0,13.0,380.0,5.0" stroke="black" stroke-width="2" fill="none" />
<polyline points="371.0,2.5,363.0,10.0,354.5,18.0,346.5,25.5,339.0,33.0,331.5,41.0,323.5,48.5,315.5,56.5,308.0,64.5,300.5,73.0,292.5,81.0,284.5,88.0" stroke="black" stroke-width="2" fill="none" />
<polyline points="273.0,86.0,281.5,78.5,289.0,71.0,297.5,63.5,306.0,56.0,315.0,49.0,323.5,41.5,330.5,33.5,338.0,25.5,346.0,17.5,353.5,9.5,361.5,2.0" stroke="black" stroke-width="2" fill="none" />
<polyline points="355.5,4.0,348.0,11.5,339.5,19.0,331.5,27.0,323.5,35.0,315.0,42.5,307.5,50.0,299.5,57.5,291.5,65.0,283.5,72.0,276.0,79.5,267.5,86.5" stroke="black" stroke-width="2" fill="none" />
<polyline points="259.5,87.0,267.0,79.0,275.0,71.0,283.5,63.5,292.0,55.5,300.5,48.0,308.5,41.0,316.5,33.5,324.5,26.0,332.5,19.0,340.5,12.0,348.0,5.0" stroke="black" stroke-width="2" fill="none" />
<polyline points="341.5,5.0,333.0,12.5,324.0,20.0,316.0,27.5,307.5,35.0,299.5,42.5,291.5,50.5,283.5,58.0,275.5,65.0,267.5,72.0,259.0,79.5,251.0,87.0" stroke="black" stroke-width="2" fill="none" />
<polyline points="245.0,87.0,253.0,79.5,261.0,72.0,269.0,64.5,276.5,56.5,284.5,49.0,292.0,41.5,300.0,34.0,307.0,27.0,314.5,20.0,322.5,12.5,330.5,5.0" stroke="black" stroke-width="2" fill="none" />
<polyline points="323.0,4.5,315.5,11.5,307.5,18.0,300.0,25.0,292.0,32.5,284.5,39.5,276.0,47.0,267.5,54.0,259.5,61.5,251.5,68.5,244.0,76.5,235.5,84.0" stroke="black" stroke-width="2" fill="none" />
<polyline points="228.5,87.0,237.0,79.5,244.0,71.5,251.5,63.5,259.0,55.5,267.0,48.0,275.0,40.5,283.5,32.5,292.0,25.0,300.5,17.5,309.5,10.5,318.0,3.0" stroke="black" stroke-width="2" fill="none" />
<polyline points="308.0,5.0,300.0,12.5,292.5,19.5,284.5,26.5,276.0,34.0,268.0,42.0,260.5,48.5,253.0,55.5,245.0,63.0,237.0,70.5,229.0,78.5,221.0,85.5" stroke="black" stroke-width="2" fill="none" />
<polyline points="213.0,87.0,221.0,79.5,229.0,71.5,237.0,63.5,244.5,55.5,252.0,48.0,260.0,40.0,268.0,32.0,276.0,25.0,284.0,17.5,292.5,10.5,300.5,3.0" stroke="black" stroke-width="2" fill="none" />
<polyline points="292.0,2.0,283.5,10.0,275.0,18.0,267.0,26.0,258.5,33.5,250.0,41.5,242.0,48.5,234.0,55.5,226.0,63.0,218.5,70.5,210.5,78.0,202.5,85.0" stroke="black" stroke-width="2" fill="none" />
<polyline points="193.5,84.5,201.5,77.0,210.0,69.5,218.0,62.0,226.5,54.5,235.5,47.0,243.5,39.5,251.0,32.0,258.5,25.0,266.0,17.0,273.5,9.5,281.5,2.0" stroke="black" stroke-width="2" fill="none" />
<polyline points="275.5,2.5,267.5,10.5,259.5,17.5,251.5,25.0,243.5,33.0,236.0,41.0,227.5,49.0,219.5,56.5,211.5,64.0,203.5,71.5,195.5,79.0,188.0,86.5" stroke="black" stroke-width="2" fill="none" />
<polyline points="173.5,96.0,181.0,88.0,189.0,80.5,197.0,73.0,205.0,66.0,213.0,58.0,221.0,50.5,229.0,42.5,237.0,35.0,245.0,26.5,253.0,18.0,261.5,10.5,269.5,3.0" stroke="black" stroke-width="2" fill="none" />
<polyline points="260.5,2.5,252.0,10.5,243.5,19.0,235.5,27.0,227.5,35.0,219.5,42.5,211.5,50.0,203.0,57.5,194.5,65.0,186.5,72.5,178.5,80.0,170.5,87.5,163.5,94.0" stroke="black" stroke-width="2" fill="none" />
<polyline points="156.0,95.0,165.0,87.5,173.5,80.0,181.0,72.5,189.5,64.5,198.0,56.5,205.5,48.5,213.5,40.5,221.5,32.5,229.5,24.5,237.5,16.5,245.5,9.0,253.5,1.5" stroke="black" stroke-width="2" fill="none" />
<polyline points="244.5,3.0,236.5,10.5,227.5,18.0,219.5,25.5,212.0,33.0,204.5,41.0,196.5,48.5,188.0,56.0,180.0,63.5,172.0,71.0,164.0,78.5,156.5,86.5,149.0,94.0" stroke="black" stroke-width="2" fill="none" />
<polyline points="140.5,94.5,148.5,87.5,157.0,80.0,164.5,72.5,172.5,64.5,180.5,57.0,188.5,49.0,196.5,41.5,205.0,33.5,213.0,25.5,220.5,18.0,228.5,11.0,236.0,3.5" stroke="black" stroke-width="2" fill="none" />
<polyline points="227.5,2.0,219.5,9.5,211.5,17.5,203.5,26.0,195.0,34.0,187.5,41.5,179.5,49.5,172.0,57.0,164.0,64.5,156.5,72.0,148.5,79.5,140.0,87.0,131.5,95.0" stroke="black" stroke-width="2" fill="none" />
<polyline points="124.5,92.5,133.5,85.5,142.0,78.0,149.5,70.5,156.5,63.0,163.5,55.5,171.0,48.0,179.0,40.5,186.0,33.0,193.5,26.0,201.0,19.0,209.0,12.0,217.0,4.5" stroke="black" stroke-width="2" fill="none" />
<polyline points="212.0,3.5,204.5,11.0,196.5,19.0,188.5,27.0,180.5,34.5,172.0,42.0,165.0,48.5,157.5,55.5,149.0,62.5,140.5,69.5,132.5,76.5,124.5,84.0,117.0,91.5" stroke="black" stroke-width="2" fill="none" />
<polyline points="100.5,101.5,108.5,93.5,116.5,85.5,124.0,78.0,132.0,70.5,140.5,62.5,149.0,55.0,158.0,47.0,166.0,39.5,174.0,32.0,181.5,25.0,189.5,18.0,197.5,11.0,205.0,3.5" stroke="black" stroke-width="2" fill="none" />
<polyline points="196.5,4.0,188.0,11.0,179.5,18.5,171.5,25.5,163.5,32.5,156.0,40.0,147.5,48.0,139.0,57.0,131.0,65.0,123.5,73.0,115.5,80.5,108.0,87.5,99.5,95.0,91.5,102.0" stroke="black" stroke-width="2" fill="none" />
<polyline points="84.0,100.0,92.0,92.5,100.5,85.5,108.5,78.0,116.5,70.5,124.0,63.0,132.0,56.0,141.0,48.5,149.5,41.0,157.5,33.0,165.5,25.0,173.0,17.5,180.5,10.5,188.0,3.0" stroke="black" stroke-width="2" fill="none" />
<polyline points="177.5,4.5,169.5,12.0,162.0,18.5,154.5,25.5,147.5,32.5,140.0,40.0,132.5,47.5,124.5,55.0,116.5,62.5,108.0,69.5,100.0,77.0,91.5,85.0,83.0,93.0,75.0,101.0" stroke="black" stroke-width="2" fill="none" />
<polyline points="66.5,100.0,74.0,92.0,81.5,84.5,89.5,77.0,97.5,69.5,105.0,62.5,113.0,55.5,121.5,48.5,130.0,40.5,138.0,33.0,147.0,25.0,155.5,17.0,163.5,9.5,172.0,1.5" stroke="black" stroke-width="2" fill="none" />
<polyline points="164.5,2.5,156.5,10.0,148.0,16.5,139.5,24.0,131.0,31.5,122.5,39.0,114.5,47.0,107.0,54.5,99.0,62.5,91.5,70.0,83.5,77.5,75.5,85.5,67.5,92.5,59.5,100.0" stroke="black" stroke-width="2" fill="none" />
<polyline points="53.0,101.5,61.0,93.0,69.5,85.5,77.5,78.0,86.0,71.0,93.5,63.5,101.0,56.0,109.0,49.0,116.5,41.0,124.5,33.5,133.0,26.5,141.0,19.0,149.0,11.5,157.5,4.0" stroke="black" stroke-width="2" fill="none" />
<polyline points="148.0,3.5,140.5,10.5,133.0,18.0,125.5,25.5,117.0,33.0,109.0,41.0,100.5,48.5,92.0,56.0,84.0,63.5,76.0,70.0,68.5,77.5,60.0,85.5,51.5,94.0,43.5,102.0,35.5,110.0" stroke="black" stroke-width="2" fill="none" />
<polyline points="28.0,108.0,35.5,100.5,43.5,93.0,52.5,85.5,60.5,78.0,68.5,70.0,76.5,62.5,84.0,55.0,91.5,48.0,99.0,40.5,107.5,33.0,115.5,25.5,124.0,18.5,131.0,11.5,139.0,4.0" stroke="black" stroke-width="2" fill="none" />
<polyline points="132.0,4.5,124.0,12.0,116.0,19.5,108.0,27.0,100.5,34.0,93.0,41.5,85.0,49.0,76.5,57.0,68.5,64.0,60.5,71.0,52.0,78.5,44.5,86.0,36.5,93.0,29.0,100.5,21.0,108.5" stroke="black" stroke-width="2" fill="none" />
<polyline points="10.0,108.0,18.0,100.0,25.5,92.5,32.5,85.5,40.5,78.5,48.5,70.5,57.0,63.0,65.5,55.0,74.0,47.0,82.5,40.0,90.5,33.0,98.5,26.5,107.0,19.5,115.5,12.0,123.5,4.5" stroke="black" stroke-width="2" fill="none" />
<polyline points="116.0,3.0,108.0,10.5,100.0,18.0,92.0,25.5,84.5,33.5,77.0,41.0,69.0,48.5,61.0,55.5,52.5,62.5,44.0,70.0,35.5,77.5,28.0,85.0,20.0,93.0,12.5,100.0,5.0,107.5" stroke="black" stroke-width="2" fill="none" />
<polyline points="4.5,109.5,12.5,109.0,20.5,108.5,28.5,108.0,36.0,107.5,44.0,107.0,52.0,107.5,60.0,107.5,67.5,107.0,75.0,106.5,83.0,105.5,90.5,105.0,98.0,104.5,106.0,104.5,113.5,104.0,121.5,103.0,129.5,102.5,138.0,102.0,146.0,100.5,153.5,100.0,161.5,99.5,169.5,99.0,178.0,99.0,186.5,98.5,194.5,98.5,202.5,97.5,210.5,97.0,218.5,96.0,226.5,95.0,235.0,94.0,243.5,93.5,251.5,93.0,259.5,93.0,267.5,93.0,275.5,92.5,283.0,92.5,291.5,92.0,300.0,91.0,308.5,90.5,316.5,90.0,324.5,90.0,332.0,89.0,339.5,88.5,347.5,87.5,355.5,86.5,364.0,86.0,371.5,86.0,379.0,87.0,387.0,87.0,395.5,87.0,403.5,86.5,412.0,85.5,419.5,85.0,427.5,84.0,435.5,83.0,443.5,82.5,452.0,81.5,461.0,80.0,469.5,79.5,477.0,79.0,485.0,78.5,493.0,77.5,501.0,77.5,508.5,77.5,516.0,77.0" stroke="black" stroke-width="2" fill="none" />
<polyline points="514.0,17.0,506.0,17.0,498.5,17.0,491.0,17.0" stroke="black" stroke-width="2" fill="none" />
<polyline points="516.0,22.5,507.5,22.5,499.5,23.0,491.0,23.5,483.0,24.0,474.5,25.0,467.0,26.0" stroke="black" stroke-width="2" fill="none" />
<polyline points="451.0,33.5,458.5,33.0,466.5,32.5,474.0,32.5,482.0,31.5,490.5,30.5,498.5,31.0,506.5,30.5,515.0,30.0" stroke="black" stroke-width="2" fill="none" />
<polyline points="517.5,70.5,509.0,71.0,500.5,71.0,492.0,71.0,483.5,72.0,474.5,72.5,466.0,73.0,457.5,73.5,449.0,74.0,441.0,74.5" stroke="black" stroke-width="2" fill="none" />
<polyline points="428.5,74.5,420.0,75.0,412.0,75.5" stroke="black" stroke-width="2" fill="none" />
<polyline points="388.0,65.0,397.0,64.5,405.5,64.5,413.5,63.5,421.0,63.0,429.0,62.0,436.5,61.5,444.0,61.5,451.0,61.5,459.0,61.5,467.0,60.5,475.5,60.5,483.5,59.0,492.0,58.5,499.5,57.5,507.5,57.0,515.5,57.0" stroke="black" stroke-width="2" fill="none" />
<polyline points="515.0,36.5,507.0,37.0,499.0,37.5,490.5,37.5,482.5,37.5,474.0,38.5,466.5,39.5,458.5,40.0,450.5,41.0,442.5,41.0,434.5,41.5,426.0,42.0" stroke="black" stroke-width="2" fill="none" />
<polyline points="396.5,50.5,404.5,50.0,413.0,50.0,421.5,49.5,429.5,49.5,437.5,49.0,445.5,48.0,453.5,47.5,461.5,46.5,469.5,46.0,477.5,46.0,485.0,45.0,492.5,44.0,500.0,43.5,508.0,43.0,515.5,42.5" stroke="black" stroke-width="2" fill="none" />
<polyline points="515.5,50.0,507.5,50.5,500.0,51.0,492.0,51.0,484.0,51.0,476.5,51.5,468.5,51.5,460.5,52.0,452.5,52.5,444.5,52.5,436.5,53.5,428.5,54.5,420.5,55.0,412.0,56.0,403.5,56.0,395.0,57.0,386.5,57.5,378.5,58.5" stroke="black" stroke-width="2" fill="none" />
<polyline points="463.5,2.5,455.5,2.5,448.0,2.0,440.0,2.0,432.5,1.5,424.5,1.5,416.5,1.5,408.5,2.0,400.5,2.0,392.5,2.0,385.0,2.5,377.0,2.5,369.0,2.5,361.0,2.5,352.5,3.0,344.5,3.0,336.5,3.0,329.0,3.5,321.0,3.5,313.0,4.0,305.0,4.0,297.0,4.0,288.0,4.0,280.0,4.0,271.5,4.0,264.0,4.0,255.5,4.0,247.5,3.5,240.0,4.0,233.0,4.0,225.0,3.5,217.5,3.5,210.0,3.5,202.0,3.5,194.0,4.0,186.0,4.0,178.0,3.5,170.0,3.0,162.0,2.5,154.0,2.5,146.0,2.0,138.5,2.0,130.5,2.0,122.0,2.0,113.5,2.5,105.5,2.5" stroke="black" stroke-width="2" fill="none" />
<polyline points="108.0,3.0,100.0,10.0,92.0,17.5,84.0,25.0,76.0,33.0,68.0,41.0,60.0,48.0,52.0,55.0,44.0,63.0,36.0,70.5,28.0,78.5,20.0,86.0,12.0,93.5,4.0,100.5" stroke="black" stroke-width="2" fill="none" />
<polyline points="3.0,100.5,3.0,108.5,3.0,116.5,3.0,124.5,3.0,132.0,2.5,140.0,3.0,148.0,3.5,156.0,4.0,164.0,4.5,172.0,4.5,180.0,4.5,188.0,4.5,195.5,4.0,203.5,4.0,211.5,3.5,219.5,3.5,228.0,3.0,236.0,3.0,244.5,3.0,253.0,3.0,261.0,3.0,269.0,3.0,277.0,3.0,285.0,2.5,293.0,2.0,301.0,2.5,308.5,2.5,316.5,2.5,324.0,3.0,332.0,3.0,340.0,9.5,342.0,17.5,342.0,25.5,342.5,33.0,342.0,41.5,342.0,49.5,342.5,57.5,342.5,65.5,342.5,74.0,342.0,82.0,342.0,90.0,342.0,98.0,342.0,106.5,342.0,114.5,342.0,122.0,342.0,130.0,342.0,138.0,341.5,146.0,341.5,154.0,341.0,162.0,341.0,170.0,341.5,178.0,341.5,186.0,342.0,194.0,342.5,202.0,342.5,210.0,342.5,218.5,342.5,226.5,342.5,234.5,342.5,243.0,342.5,250.5,343.0,258.0,343.0,265.5,342.5,273.5,342.0,281.5,341.5,289.5,342.0,297.5,342.0,306.0,342.5,314.5,342.5,322.5,342.0,330.5,342.0,338.5,342.0,346.0,342.0,354.5,342.0,362.5,342.0,371.0,342.0,379.0,341.5,387.5,341.5,395.5,341.5,403.5,341.5,411.5,341.5,419.5,342.0,427.5,342.0,435.5,342.5,443.5,342.5,451.5,342.5,459.5,342.0,467.5,342.0,475.0,342.0,483.5,342.0,491.5,342.0,499.0,342.0,507.0,342.0" stroke="black" stroke-width="2" fill="none" />
<polyline points="332.0,246.0,324.0,247.0,315.5,247.5,307.0,248.5,298.5,249.0,290.0,249.0,282.0,249.5,274.0,249.5" stroke="black" stroke-width="2" fill="none" />
<polyline points="276.5,248.5,284.5,241.0,293.0,233.5,301.0,226.0,309.5,218.0" stroke="black" stroke-width="2" fill="none" />
<polyline points="308.0,211.0,300.5,218.5,292.5,226.5,284.5,234.5,276.0,242.5,267.5,250.5" stroke="black" stroke-width="2" fill="none" />
<polyline points="260.5,250.0,268.5,242.0,276.5,234.5,284.0,227.5,292.0,220.0,300.0,212.0,308.0,204.5" stroke="black" stroke-width="2" fill="none" />
<polyline points="299.5,205.5,292.0,212.5,283.5,220.0,275.5,227.0,267.5,234.0,259.5,241.5,252.0,248.5" stroke="black" stroke-width="2" fill="none" />
<polyline points="256.5,250.0,264.5,250.5,266.5,254.5,274.5,254.5,282.5,257.5,290.5,256.5,296.5,257.5,305.5,257.5,306.5,254.0,314.5,253.0,322.5,255.0,330.0,256.0,338.0,257.0,346.0,258.0,354.5,258.0,362.5,258.0,371.0,258.5,379.0,258.5,387.0,258.0,395.0,257.0,402.5,253.5,410.5,250.0,416.0,253.0" stroke="black" stroke-width="2" fill="none" />
<polyline points="405.0,243.5,397.0,244.0,389.0,245.5,381.0,246.0,372.5,246.5,364.0,246.0,355.5,246.5,347.5,247.5,339.5,248.0,331.5,248.5,324.0,249.0,315.5,249.5,307.5,250.0,298.5,251.0,291.0,252.0,282.5,252.5,275.0,253.0,267.5,253.5,260.0,254.5" stroke="black" stroke-width="2" fill="none" />
<polyline points="253.0,242.5,260.5,242.0,268.5,241.0,276.5,240.5,284.0,239.5,292.0,239.0,299.5,238.5,307.5,238.0" stroke="black" stroke-width="2" fill="none" />
<polyline points="309.0,231.0,316.5,239.0,324.5,243.0,332.5,246.0,340.5,247.0,348.5,249.0,356.5,246.5,363.5,251.0,371.0,251.0,379.0,251.0,386.5,250.0,394.5,249.0,402.5,246.0,410.0,243.0,418.0,237.0" stroke="black" stroke-width="2" fill="none" />
<polyline points="384.5,186.5,376.0,185.0,367.5,186.5,359.5,185.5,351.5,186.0" stroke="black" stroke-width="2" fill="none" />
<polyline points="307.0,185.0,299.0,185.5,291.0,186.0,283.5,186.5,275.5,187.0,267.5,188.0,260.0,188.5,251.5,189.0,243.5,189.5,235.0,190.0,226.5,190.5,218.5,191.0" stroke="black" stroke-width="2" fill="none" />
<polyline points="213.0,198.0,220.5,197.5,228.5,197.0,236.5,197.0,244.0,196.5,252.0,196.0,259.5,195.5,267.5,195.5,275.5,195.5,284.0,195.0,292.0,194.5,300.0,194.0,308.5,193.5" stroke="black" stroke-width="2" fill="none" />
<polyline points="307.5,196.0,299.5,196.5,292.0,197.5,283.0,198.5,275.0,199.0,267.5,199.5,259.5,199.5,252.0,200.0,244.5,201.0,236.5,202.5,228.5,202.5,220.5,203.0,212.5,203.5,204.5,204.0,196.0,205.0,188.5,205.5,180.0,205.5,172.0,206.0,163.5,206.0,155.5,206.0,147.5,206.5,140.0,207.0,132.0,207.5,124.0,207.5,116.0,207.5,107.5,208.0,99.0,208.5,91.0,209.5,83.0,210.0,75.0,211.0,67.0,211.0,59.0,211.5,51.0,212.0,43.0,212.0,34.5,212.5" stroke="black" stroke-width="2" fill="none" />
<polyline points="43.5,208.0,51.5,200.0,59.5,192.5,68.0,185.5,75.5,178.0,83.5,171.5,91.0,163.5" stroke="black" stroke-width="2" fill="none" />
<polyline points="88.5,168.5,96.5,167.0,107.5,170.0,108.5,178.5,110.0,186.5,111.5,194.5,114.0,202.5,121.0,210.0" stroke="black" stroke-width="2" fill="none" />
<polyline points="123.5,210.5,115.5,218.5" stroke="black" stroke-width="2" fill="none" />
<polyline points="123.0,219.0,131.0,211.0" stroke="black" stroke-width="2" fill="none" />
<polyline points="132.5,218.0,140.5,210.5" stroke="black" stroke-width="2" fill="none" />
<polyline points="157.0,204.5,165.0,204.5,172.5,203.5,180.0,203.5,187.5,204.0,195.0,204.0,202.5,203.5,210.5,204.0,218.0,203.5,225.5,203.0,233.0,203.0,241.5,202.0,249.5,201.5,258.0,200.5,267.0,199.5,275.0,199.0,282.5,198.0,290.5,197.5,298.5,196.5,306.0,196.0" stroke="black" stroke-width="2" fill="none" />
<polyline points="306.0,191.0,313.0,199.0,327.5,207.0,342.5,209.0" stroke="black" stroke-width="2" fill="none" />
<polyline points="300.0,196.5,292.0,204.0,284.0,211.0,276.0,219.0,268.0,226.5,260.0,234.0,252.0,241.5" stroke="black" stroke-width="2" fill="none" />
<polyline points="235.5,232.0,244.0,225.0,252.5,217.5,261.0,210.0,269.0,202.5,277.0,194.5,285.5,187.0,293.5,179.0" stroke="black" stroke-width="2" fill="none" />
<polyline points="283.0,178.5,275.0,186.0,267.0,193.5,259.0,201.0,251.5,208.5,243.5,216.0,234.5,224.0,225.5,232.0" stroke="black" stroke-width="2" fill="none" />
<polyline points="220.0,230.5,228.0,230.0,236.0,229.5,244.0,229.0,252.0,228.0,260.0,227.5,267.5,226.5,274.5,226.0,282.0,226.0,290.0,225.5,298.0,225.0,306.5,224.5" stroke="black" stroke-width="2" fill="none" />
<polyline points="298.5,190.0,291.0,190.5,283.0,191.0,275.5,192.0,267.5,192.5,260.0,193.0,252.5,194.0,244.5,194.5,236.0,195.0" stroke="black" stroke-width="2" fill="none" />
<polyline points="235.0,187.0,243.0,186.5,251.0,186.0,259.0,185.5,266.5,185.0,274.0,184.0,282.5,183.5" stroke="black" stroke-width="2" fill="none" />
<polyline points="275.0,174.5,266.5,175.5,258.0,176.0,250.5,177.0,243.0,178.0,235.0,178.5" stroke="black" stroke-width="2" fill="none" />
<polyline points="237.0,178.0,244.0,170.0,252.0,162.0" stroke="black" stroke-width="2" fill="none" />
<polyline points="252.0,156.5,259.5,155.5,267.5,155.5,275.5,155.5" stroke="black" stroke-width="2" fill="none" />
<polyline points="274.5,164.5,267.0,171.5,259.0,179.0,251.0,186.0,242.5,193.0,234.0,200.5,226.5,208.0,219.0,215.5" stroke="black" stroke-width="2" fill="none" />
<polyline points="219.0,210.5,226.5,210.0,234.0,209.5,242.0,209.5,249.5,209.0,257.5,208.0,265.5,207.5,274.0,207.0,282.0,205.5,289.5,205.0,297.5,204.5" stroke="black" stroke-width="2" fill="none" />
<polyline points="297.0,222.0,289.0,222.0,281.5,222.0,273.5,222.5,265.5,223.0,258.0,223.0,250.5,223.5,242.5,224.5,234.5,224.5,226.5,225.0" stroke="black" stroke-width="2" fill="none" />
<polyline points="226.0,224.0,234.5,216.0,242.5,208.5,250.5,200.5,258.0,193.0,265.5,185.0,273.0,177.5,281.0,170.0" stroke="black" stroke-width="2" fill="none" />
<polyline points="279.0,172.0,287.0,181.0,295.0,185.0,303.0,188.0,311.0,191.0,319.0,193.0,326.5,194.0,335.0,195.5,342.5,196.5,350.5,197.0,358.5,198.0,366.5,198.0,375.0,198.0,383.0,198.0,391.0,198.0,399.5,197.0,407.0,196.0,415.0,195.0,423.0,193.0,431.0,190.5,439.0,187.5,447.0,182.5" stroke="black" stroke-width="2" fill="none" />
<polyline points="515.5,108.5,507.5,109.0,500.5,109.5,492.5,110.0,484.5,110.0,476.5,110.5,468.0,111.0,459.5,112.0,451.0,112.5,443.5,113.0,435.5,113.5,428.0,114.5,419.0,115.5,411.0,116.0,403.5,116.5,395.5,116.5,388.0,117.0,380.5,118.0,372.5,119.5,364.5,119.5,356.5,120.0,348.5,120.5,340.5,121.0,332.0,122.0,324.5,122.5,316.0,122.5,308.0,123.0,299.5,123.0,291.5,123.0,283.5,123.5,276.0,124.0,268.0,124.5,260.0,124.5,252.0,124.5" stroke="black" stroke-width="2" fill="none" />
<polyline points="259.5,136.0,267.5,135.5" stroke="black" stroke-width="2" fill="none" />
<polyline points="269.5,162.5,261.5,170.0,252.5,178.0,244.0,185.5,236.0,193.5,228.0,201.5,220.0,209.0,212.5,217.5" stroke="black" stroke-width="2" fill="none" />
<polyline points="219.0,224.0,226.5,216.0,234.0,208.5,241.5,201.0,249.0,193.5,257.0,186.0,265.5,178.5,273.5,171.0" stroke="black" stroke-width="2" fill="none" />
<polyline points="275.5,166.0,284.0,156.0,292.0,151.0,300.0,148.5,308.0,146.0,316.0,144.0,324.5,142.0,332.5,142.5,341.0,141.5,348.5,140.5,357.0,140.5,365.0,140.5,373.0,140.5,380.5,141.5,388.5,141.5,396.5,143.0,404.0,144.0,412.0,146.0,420.0,148.5,428.5,150.5,436.5,153.5,444.5,158.5,452.5,165.5" stroke="black" stroke-width="2" fill="none" />
<polyline points="515.0,99.5,506.0,100.0,497.5,101.0,489.0,102.0,481.0,103.0,473.0,103.5,465.0,103.5,457.5,104.0,450.5,104.0,443.0,104.0,435.5,104.5,428.0,106.0,420.0,107.5,412.0,108.0,404.0,108.5,396.0,109.0,387.5,109.5,379.5,110.5,371.5,111.0,363.5,111.5,355.0,111.5,347.0,112.0,339.0,112.0,330.5,112.5,322.0,113.0,313.5,113.5,306.0,114.0,298.5,114.0,291.0,114.5,283.5,115.0,275.5,115.5,267.5,116.0,260.0,117.0,252.0,117.5,243.5,118.0,235.5,118.5" stroke="black" stroke-width="2" fill="none" />
<polyline points="232.0,123.5,250.0,131.0,254.5,139.0,250.5,147.0,236.5,155.5" stroke="black" stroke-width="2" fill="none" />
<polyline points="236.5,157.5,228.0,157.5" stroke="black" stroke-width="2" fill="none" />
<polyline points="230.0,161.5,222.5,169.5,214.0,177.0" stroke="black" stroke-width="2" fill="none" />
<polyline points="212.0,169.5,219.5,168.5,227.0,168.0" stroke="black" stroke-width="2" fill="none" />
<polyline points="228.5,171.5,236.0,164.5" stroke="black" stroke-width="2" fill="none" />
<polyline points="236.5,166.5,231.5,174.5,230.5,182.5,232.5,190.5,219.0,199.0,206.0,207.0" stroke="black" stroke-width="2" fill="none" />
<polyline points="203.5,210.5,196.0,218.0" stroke="black" stroke-width="2" fill="none" />
<polyline points="195.5,216.0,203.5,215.5,211.0,215.0,219.0,214.5,227.5,214.0,236.0,214.0,244.0,213.0,252.0,213.0,260.5,212.5,268.5,212.5,276.0,212.0,285.0,211.5,293.5,211.5,301.5,210.5" stroke="black" stroke-width="2" fill="none" />
<polyline points="261.5,164.0,253.0,171.5,245.0,179.0,237.0,187.0,228.5,194.5,220.0,202.5,212.0,210.0,204.5,217.5" stroke="black" stroke-width="2" fill="none" />
<polyline points="196.0,210.5,188.5,218.0" stroke="black" stroke-width="2" fill="none" />
<polyline points="188.0,211.5,180.0,219.0" stroke="black" stroke-width="2" fill="none" />
<polyline points="173.5,219.0,181.5,211.5" stroke="black" stroke-width="2" fill="none" />
<polyline points="170.0,211.0,162.0,219.0" stroke="black" stroke-width="2" fill="none" />
<polyline points="156.5,220.5,165.0,220.0,173.0,220.0,180.5,220.0,188.0,219.5,195.5,219.5,203.5,219.5,211.0,219.0,219.0,219.0,226.5,218.5,235.0,218.0,243.0,217.5,251.0,217.0,259.5,216.5,267.5,216.0,276.0,215.0,284.0,214.5,292.0,214.0,300.0,213.0,308.0,212.5" stroke="black" stroke-width="2" fill="none" />
<polyline points="298.0,197.0,290.0,197.5,281.5,198.5,273.5,199.5,266.0,200.0,258.0,200.0,250.5,200.0,242.5,200.5,234.5,201.0,226.5,201.0" stroke="black" stroke-width="2" fill="none" />
<polyline points="225.5,181.5,233.5,181.0,242.0,181.0,250.0,180.5,258.0,179.5,266.5,178.5,274.5,178.0,282.0,177.5,290.5,177.0" stroke="black" stroke-width="2" fill="none" />
<polyline points="274.5,160.5,266.5,161.5,258.5,162.0,250.5,162.0,243.0,162.0,235.5,162.0,227.5,162.5,219.5,162.5,211.5,163.0,203.5,163.5,196.0,164.0,188.0,164.0" stroke="black" stroke-width="2" fill="none" />
<polyline points="189.5,170.0,182.0,178.0,173.5,185.5,165.0,193.0" stroke="black" stroke-width="2" fill="none" />
<polyline points="172.5,194.0,180.0,186.0,188.0,178.0,195.5,170.5" stroke="black" stroke-width="2" fill="none" />
<polyline points="201.5,177.5,208.5,170.5,216.5,163.5" stroke="black" stroke-width="2" fill="none" />
<polyline points="209.0,165.5,201.0,172.5,194.0,179.5,186.0,186.5,178.5,193.5" stroke="black" stroke-width="2" fill="none" />
<polyline points="180.5,172.5,172.5,180.0,164.5,187.5,156.0,195.0" stroke="black" stroke-width="2" fill="none" />
<polyline points="157.0,198.5,165.0,198.0,173.0,197.0,181.0,196.5,188.0,196.0,195.5,195.5" stroke="black" stroke-width="2" fill="none" />
<polyline points="164.0,212.5,156.0,219.5" stroke="black" stroke-width="2" fill="none" />
<polyline points="149.5,189.0,157.0,189.0,165.0,188.0,173.0,187.5,181.0,187.5,188.5,187.0,196.0,186.5,204.0,185.5" stroke="black" stroke-width="2" fill="none" />
<polyline points="189.0,184.5,181.0,184.5,173.5,185.0,165.5,185.0,157.5,185.5" stroke="black" stroke-width="2" fill="none" />
<polyline points="154.0,184.5,162.0,176.5,170.5,169.0" stroke="black" stroke-width="2" fill="none" />
<polyline points="164.5,170.5,156.5,178.0,148.0,185.5" stroke="black" stroke-width="2" fill="none" />
<polyline points="142.5,182.5,150.5,181.5,158.0,181.0,165.5,180.5,173.0,179.5,180.5,179.0,188.0,178.5,196.5,178.0,204.0,177.5,211.5,177.5" stroke="black" stroke-width="2" fill="none" />
<polyline points="211.5,173.0,204.0,174.0,196.0,175.0,187.5,175.0,179.5,176.0,172.0,176.5,164.5,177.0,157.0,177.0,148.5,177.0,140.5,177.5" stroke="black" stroke-width="2" fill="none" />
<polyline points="141.0,177.5,148.5,170.0" stroke="black" stroke-width="2" fill="none" />
<polyline points="141.5,171.0,133.5,179.0" stroke="black" stroke-width="2" fill="none" />
<polyline points="128.5,172.5,136.5,176.5,144.5,181.5" stroke="black" stroke-width="2" fill="none" />
<polyline points="148.0,178.0,155.5,171.0" stroke="black" stroke-width="2" fill="none" />
<polyline points="172.0,156.5,180.0,155.5,188.0,155.5" stroke="black" stroke-width="2" fill="none" />
<polyline points="229.5,165.0,221.5,170.0,213.5,173.5,205.5,176.0,197.5,180.0,192.0,183.5,208.5,175.5,224.0,168.0,232.5,160.0" stroke="black" stroke-width="2" fill="none" />
<polyline points="233.0,169.0,241.0,167.0,254.0,163.5" stroke="black" stroke-width="2" fill="none" />
<polyline points="285.0,162.0,276.5,162.5,268.5,163.5,260.0,164.0,251.5,164.5,243.0,165.0,234.5,166.0,226.5,167.0,218.5,168.0,210.0,169.0,202.0,169.5,194.5,170.0,187.0,170.5,179.5,171.0,172.0,171.5,164.0,172.0,156.5,172.0,148.5,172.0,140.5,172.5,133.0,172.5,125.0,173.0" stroke="black" stroke-width="2" fill="none" />
<polyline points="114.5,176.0,107.0,176.5,99.0,177.0,91.0,177.5,83.0,178.0,75.0,178.0,67.5,178.0,59.5,178.0,52.0,178.5,44.5,178.0,36.5,178.5,29.0,179.5,21.5,180.0,13.5,180.5,5.5,181.0" stroke="black" stroke-width="2" fill="none" />
<polyline points="4.5,186.5,12.5,186.0,20.5,186.5,29.0,186.5,36.5,186.0,44.5,186.5,52.5,186.0,61.0,186.5,69.0,186.5,76.5,186.5,84.0,186.0,92.5,185.5,100.5,185.0,108.0,184.0,115.5,183.5" stroke="black" stroke-width="2" fill="none" />
<polyline points="116.0,187.0,108.0,195.0,100.0,202.5,92.0,210.5,84.0,218.0" stroke="black" stroke-width="2" fill="none" />
<polyline points="100.0,220.0,108.0,212.5,116.0,205.0" stroke="black" stroke-width="2" fill="none" />
<polyline points="115.5,210.5,123.0,203.5" stroke="black" stroke-width="2" fill="none" />
<polyline points="117.5,197.0,109.5,204.5,101.0,212.0,92.5,220.0" stroke="black" stroke-width="2" fill="none" />
<polyline points="104.0,220.5,111.5,216.5,119.5,215.5,127.5,218.5,135.5,220.0,143.5,222.0,152.0,222.0,160.0,223.0,168.0,223.0,176.5,223.0,184.5,222.0,192.5,222.0,200.5,221.5,208.0,221.5,216.0,221.5,223.0,225.5" stroke="black" stroke-width="2" fill="none" />
<polyline points="221.5,238.0,229.0,237.5,236.5,236.5,244.5,236.0,252.5,235.5,260.0,235.0,268.0,235.0,275.5,235.5,283.5,235.5,291.5,235.5,299.5,235.0,307.5,234.5,315.0,234.0,322.5,233.5" stroke="black" stroke-width="2" fill="none" />
<polyline points="317.5,242.0,306.5,234.5,304.0,226.5,303.5,218.5,303.5,210.5,302.5,202.5,302.5,194.5,293.5,186.5,281.5,179.0,277.0,171.5,278.5,164.0,286.5,156.0,302.5,148.0" stroke="black" stroke-width="2" fill="none" />
<polyline points="123.0,198.5,115.0,199.0,106.5,199.0,99.0,200.0,91.0,200.5,82.5,201.0,75.0,201.5,67.5,202.0,59.5,202.5,51.5,202.5,43.5,203.0,36.0,203.0,28.5,204.0,20.5,205.0" stroke="black" stroke-width="2" fill="none" />
<polyline points="11.5,196.5,19.5,195.5,28.0,195.5,36.0,195.0,44.0,194.5,52.0,194.5,60.0,194.0,67.5,194.0,75.5,193.5,83.5,193.5,91.5,192.5,99.5,192.0,107.0,192.0,114.5,191.5" stroke="black" stroke-width="2" fill="none" />
<polyline points="115.0,198.5,123.5,208.5,131.5,212.5,140.0,214.5,148.0,215.5,156.5,215.5,164.5,215.5,172.5,215.5,180.0,215.0,188.0,213.5,196.0,211.5,204.0,209.5,211.5,204.5,219.5,199.0,227.0,194.5" stroke="black" stroke-width="2" fill="none" />
<polyline points="115.5,207.5,107.5,208.0,99.5,208.0,91.5,208.5,84.0,208.5,76.0,208.5,68.0,209.0,60.5,209.0" stroke="black" stroke-width="2" fill="none" />
<polyline points="67.0,208.0,75.0,200.5,83.0,193.5,91.0,186.5,99.0,179.5,107.0,172.0" stroke="black" stroke-width="2" fill="none" />
<polyline points="106.5,176.0,98.5,176.0,90.5,176.0,82.5,176.0,75.0,176.5,67.0,177.0" stroke="black" stroke-width="2" fill="none" />
<polyline points="66.0,171.5,58.0,178.5,50.0,186.0,42.5,193.5,34.5,200.5" stroke="black" stroke-width="2" fill="none" />
<polyline points="42.0,201.0,50.5,193.5,59.5,186.5,68.0,179.0,76.0,171.5,84.5,163.5" stroke="black" stroke-width="2" fill="none" />
<polyline points="86.5,152.0,94.5,160.0,102.5,163.5,110.5,165.5,118.5,167.0,126.5,168.5,134.5,168.5,143.0,168.5,151.0,169.5,159.5,169.5,168.0,168.5,176.0,168.5,183.5,167.5,191.5,166.5,199.0,165.0,206.5,164.0,214.5,162.0,222.5,160.0,230.5,158.0,238.0,155.5,246.0,150.5" stroke="black" stroke-width="2" fill="none" />
<polyline points="114.5,166.5,106.0,167.0,98.5,168.0,91.0,169.0,83.0,169.5,75.0,170.0,67.5,170.5,59.5,171.0,52.0,171.5,44.0,172.0,36.5,172.0,28.5,171.0,21.0,171.0,13.5,171.0,5.5,171.5" stroke="black" stroke-width="2" fill="none" />
<polyline points="3.5,165.0,11.5,165.0,19.5,164.0,27.5,163.5,35.5,163.0,44.0,163.0,51.5,162.5,59.5,162.5,67.0,162.0,75.0,161.5,83.5,161.5,91.5,161.0,100.0,160.5,108.0,160.0" stroke="black" stroke-width="2" fill="none" />
<polyline points="107.5,162.5,99.5,170.0,91.5,178.0,83.5,186.0,75.5,193.5,67.0,201.5,59.5,209.0" stroke="black" stroke-width="2" fill="none" />
<polyline points="53.5,209.0,61.5,201.5,69.5,194.0,77.5,187.0,85.5,180.0,93.5,172.5,101.5,165.0" stroke="black" stroke-width="2" fill="none" />
<polyline points="113.5,173.0,127.5,181.0,137.5,184.0" stroke="black" stroke-width="2" fill="none" />
<polyline points="107.0,187.0,99.0,194.5,91.0,202.0,83.0,210.0,74.5,217.5" stroke="black" stroke-width="2" fill="none" />
<polyline points="74.5,210.0,82.0,202.5,89.5,194.5,98.0,187.0,106.0,180.0" stroke="black" stroke-width="2" fill="none" />
<polyline points="116.0,199.5,108.0,199.5,100.0,199.5,92.0,199.5,84.0,200.0,76.0,200.0,68.5,200.5,60.5,200.0,52.0,200.5" stroke="black" stroke-width="2" fill="none" />
<polyline points="50.0,192.0,58.0,192.0,66.0,192.0,74.5,192.0,82.5,192.0,90.5,191.5,99.0,191.5,107.5,191.0" stroke="black" stroke-width="2" fill="none" />
<polyline points="108.0,181.0,100.0,182.0,91.5,182.5,83.0,183.5,74.5,184.0,66.5,184.5,58.0,185.0,50.0,185.0" stroke="black" stroke-width="2" fill="none" />
<polyline points="35.5,193.0,43.5,186.0,52.0,178.0,60.0,170.5" stroke="black" stroke-width="2" fill="none" />
<polyline points="83.5,146.5,91.5,135.5,99.5,130.5,108.0,126.5,116.0,124.5,124.0,123.0,132.0,121.0,140.0,120.0,148.0,119.0,156.0,117.0,163.5,116.0,172.0,116.0,180.0,115.5,188.0,115.5,195.5,116.5,203.0,116.5,211.0,117.5,219.5,118.5,227.5,120.5,235.0,122.0,243.0,125.0,251.0,131.0" stroke="black" stroke-width="2" fill="none" />
<polyline points="131.5,109.5,124.0,110.5,116.0,111.0,108.0,112.0,100.0,112.5,92.0,113.0,84.0,113.5,76.0,114.5,68.5,115.0,60.5,115.0,52.5,115.5,44.5,116.0,36.0,116.0,27.5,116.5,19.0,117.0,10.5,117.0,2.5,117.5" stroke="black" stroke-width="2" fill="none" />
<polyline points="1.0,126.5,9.0,126.0,17.0,125.0,25.5,124.0,34.5,124.0,43.5,123.5,52.0,122.5,60.0,122.0,68.5,122.0,77.5,121.0,85.5,121.0,93.0,120.5,100.5,119.5,108.5,119.0" stroke="black" stroke-width="2" fill="none" />
<polyline points="116.0,125.0,96.5,133.0,87.5,140.5,83.5,148.0,86.5,155.5,98.5,163.5" stroke="black" stroke-width="2" fill="none" />
<polyline points="90.5,151.5,82.5,152.0,74.5,152.5,66.5,152.5,58.5,153.0,50.5,154.0,42.5,154.0,34.5,155.0,26.5,155.5,18.5,157.0,10.5,158.0,2.5,159.0" stroke="black" stroke-width="2" fill="none" />
<polyline points="3.5,149.0,11.5,148.5,19.0,148.5,27.5,148.0,36.0,147.0,44.0,146.5,52.0,146.0,59.5,145.5,67.5,145.0,75.0,144.5,82.5,144.0" stroke="black" stroke-width="2" fill="none" />
<polyline points="81.5,136.5,74.0,137.0,66.5,137.0,58.5,137.0,51.0,137.0,43.0,137.0,35.5,137.5,28.5,138.5,20.5,139.5,12.5,140.5,4.5,141.0" stroke="black" stroke-width="2" fill="none" />
<polyline points="3.0,133.0,11.0,132.0,19.5,131.5,27.5,130.5,36.0,130.0,44.5,130.0,52.5,129.5,60.5,129.5,68.5,129.0,76.5,129.0,84.0,128.5,92.5,128.5" stroke="black" stroke-width="2" fill="none" />
<polyline points="3.5,101.5,11.5,101.0,19.5,100.5,27.5,100.0,35.0,99.5,43.0,98.5,51.0,98.5,59.0,98.5,67.0,98.5,75.0,98.5,82.5,98.0,90.5,97.5,99.0,97.0,107.5,96.5,115.5,96.0,124.0,95.5,131.5,95.0,139.5,94.0,147.5,93.5,155.0,93.0,163.0,92.5,171.0,92.0,179.0,91.5,187.5,90.5,196.0,89.5,204.0,89.0,212.0,88.5,220.0,88.0,228.0,87.5,236.0,86.5,244.0,86.0,252.0,85.0,260.0,84.5,268.0,84.0,276.0,84.0,284.0,84.0,292.0,83.0,300.0,82.0,308.0,82.0,316.0,81.5,324.0,81.5,332.0,81.0,340.0,80.5,348.0,79.5,356.0,79.0,363.5,78.5,371.5,78.0,380.0,78.0,388.0,78.0,396.0,78.0,404.0,77.5,412.0,77.0,420.0,76.0,428.0,76.0,436.0,75.5,444.0,75.0,452.0,74.5,460.5,74.5,468.5,74.0,477.0,73.0,485.0,72.5,493.0,72.0,501.5,71.5,509.0,70.5,516.5,69.5" stroke="black" stroke-width="2" fill="none" />
<polyline points="101.5,5.0,93.0,12.0,84.5,19.0,76.0,26.5,68.0,34.0,59.5,41.5,52.0,49.0,44.5,56.0,36.5,63.0,28.5,70.5,20.0,78.0,12.5,85.5,5.0,92.5" stroke="black" stroke-width="2" fill="none" />
<polyline points="2.5,93.0,11.0,93.0,19.5,92.5,27.5,92.5,35.5,91.5,43.5,91.0,52.0,90.5,60.5,90.5,68.5,90.0,76.5,90.0,85.0,89.0,92.5,88.5,100.5,88.0,108.5,88.0,116.0,87.5,124.0,87.0,131.5,86.5,139.5,86.5,147.5,86.5,156.0,86.0,164.0,85.5,172.0,85.0,180.5,84.5,188.5,84.0,197.0,83.0,205.0,83.0,213.5,82.5,222.0,82.0,230.0,81.5,238.0,80.0,245.5,80.0,253.5,79.5,261.5,79.0,269.5,78.0,277.5,77.0,285.5,76.5,293.5,76.0,301.5,75.0,309.5,74.0,318.0,73.0,325.5,72.0,334.0,72.0,341.5,71.5,349.0,71.0,357.0,70.5,365.0,70.0,372.5,69.5,380.5,69.0,388.0,68.5,395.5,68.0,403.5,68.0,411.5,67.0,420.0,67.0,427.5,67.0,435.5,67.0,444.0,67.0,452.0,67.0,459.5,66.5,467.5,66.0,476.0,65.5,484.0,65.0,492.0,65.0,500.5,64.0,508.5,63.0,516.5,62.0" stroke="black" stroke-width="2" fill="none" />
<polyline points="92.5,3.0,84.5,10.5,76.5,18.5,68.0,26.0,60.0,34.0,52.0,42.0,43.5,49.5,35.5,57.0,27.5,64.5,20.0,72.0,12.5,79.5,4.5,87.0" stroke="black" stroke-width="2" fill="none" />
<polyline points="4.0,89.0,12.0,88.0,20.5,87.5,28.5,87.0,36.0,86.5,44.0,86.0,52.5,86.0,60.5,85.5,68.0,85.0" stroke="black" stroke-width="2" fill="none" />
<polyline points="5.0,84.0,13.5,83.5,21.5,83.5,29.5,83.5,37.5,83.0,45.5,82.5,53.0,81.5,60.0,80.5,67.5,80.0,75.5,79.5,83.5,79.0,91.5,78.5,99.0,78.0,107.0,77.5,115.5,77.0,124.0,77.0,132.0,76.0,140.0,76.0,148.5,75.5,156.5,75.5,164.0,75.0,173.0,74.5,181.5,74.5,189.5,73.5,197.0,73.0,205.0,72.0,212.5,71.5,220.0,71.5,227.0,71.5,235.0,71.5,243.0,70.5,251.5,70.5,259.5,69.0,268.0,68.5,275.5,67.5,283.5,67.0,291.5,67.0,300.5,67.0,309.0,67.0,317.5,66.5,325.5,65.5,333.5,65.0,341.5,64.5,349.5,64.0,357.5,64.0,366.0,63.5,374.5,63.0,382.5,62.5,390.5,62.5,398.5,62.0,406.5,61.5,414.0,60.5,421.5,60.5,428.5,59.5,435.5,59.0,443.0,58.0,450.5,57.0,458.5,56.0,467.0,55.0,475.0,54.0,483.0,53.5,491.5,53.0,499.5,52.5,508.0,52.5,516.0,53.0" stroke="black" stroke-width="2" fill="none" />
<polyline points="82.5,3.0,74.0,11.0,66.5,18.5,58.5,26.0,50.5,33.0,42.5,40.0,34.5,47.5,26.5,55.5,18.5,63.0,10.5,70.5,2.0,78.0" stroke="black" stroke-width="2" fill="none" />
<polyline points="4.5,78.5,12.0,77.5,20.0,77.0,28.5,75.5,36.5,74.5,44.5,73.5,52.0,73.0,60.5,73.0,68.5,72.5,76.5,72.0,84.5,71.5,93.0,71.0,101.0,71.0,108.5,71.0,116.0,70.5,123.5,70.5,131.5,70.5,139.0,70.0,147.0,70.0,154.5,69.5,163.0,69.0,171.0,68.5,179.0,68.0,187.5,67.5,195.5,67.0,204.0,66.0,212.0,65.5,220.0,65.0,228.0,64.0,236.0,63.5,244.5,62.5,252.0,62.5,260.0,62.0,267.5,61.5,274.5,60.5,282.0,60.0,290.0,60.0,298.0,60.0,305.5,59.5,313.5,59.0,321.5,58.5,329.5,58.0,338.0,56.5,346.5,55.5,355.5,54.5,364.0,54.0,372.5,53.5,380.5,53.0,388.5,52.5,396.0,51.5,404.0,51.0,411.5,51.0,419.0,51.0,427.0,51.0,434.5,50.5,442.0,50.5,450.0,49.5,458.0,48.5,466.0,48.0,474.5,47.5,482.5,47.0,490.5,46.0,498.5,45.5,506.5,45.5,515.0,45.0" stroke="black" stroke-width="2" fill="none" />
<polyline points="74.0,3.5,66.5,11.0,59.0,18.0,51.5,25.0,43.5,32.0,35.0,40.0,27.0,47.0,18.5,54.5,10.0,62.0,2.5,68.5" stroke="black" stroke-width="2" fill="none" />
<polyline points="4.0,68.5,12.0,68.0,21.0,67.0,29.5,66.5,37.5,66.0,45.5,65.5,53.0,65.5,61.0,65.0,68.5,65.5,77.0,66.0,85.0,65.5,93.0,65.0,101.0,64.0,109.0,63.5,116.0,63.0,123.5,62.5,131.0,62.5,138.0,62.0,145.5,61.5,153.0,61.0,161.5,60.5,169.0,60.0,177.5,60.0,186.0,60.0,195.0,59.0,203.5,58.5,211.5,57.5,219.5,56.5,227.0,56.0,234.5,55.0,242.0,54.5,250.5,54.0,259.0,53.0,267.5,52.0,275.5,51.0,283.0,51.0,291.0,50.0,298.5,49.5,306.0,49.0,314.5,47.5,322.5,47.0,330.0,46.5,338.0,46.5,345.5,46.5,353.0,46.5,361.0,46.5,369.0,45.5,377.5,44.5,385.5,43.5,393.5,43.0,401.0,43.0,409.0,42.5,417.5,42.0,426.0,42.0,434.5,41.5,442.5,41.5,450.5,41.0,458.0,41.0,466.0,40.5,474.5,39.5,483.0,38.5,490.0,38.0,497.5,37.5,505.5,36.5,513.0,35.0" stroke="black" stroke-width="2" fill="none" />
<polyline points="66.0,2.0,58.0,9.0,50.5,16.5,42.5,24.5,35.0,32.5,27.5,40.0,20.0,48.0,12.0,55.5,4.0,63.5" stroke="black" stroke-width="2" fill="none" />
<polyline points="5.0,64.5,12.5,64.0,20.0,63.5,28.0,63.5,36.0,63.0,44.5,63.0,52.5,62.5,61.0,62.0,69.0,61.0,77.5,61.0,85.5,60.5,93.5,60.0,101.5,60.0,109.0,59.5,117.0,59.5,124.5,59.0,132.5,58.5,140.5,58.0,148.0,57.5,155.5,57.0,163.5,56.5" stroke="black" stroke-width="2" fill="none" />
<polyline points="59.0,4.0,51.0,11.5,43.0,19.0,35.5,26.5,28.0,34.0,20.0,41.0,11.5,48.0,3.5,55.0" stroke="black" stroke-width="2" fill="none" />
<polyline points="4.5,57.0,12.0,57.0,20.0,57.0,28.0,56.5,36.0,55.5,44.5,55.5,52.5,55.0,60.5,55.0,69.0,54.5,78.0,54.0,86.5,53.5,94.5,52.5,102.0,52.0,109.5,51.5,117.0,50.5,124.5,50.0,132.0,49.5,140.5,49.0,148.0,48.5,155.5,48.5,163.0,48.0" stroke="black" stroke-width="2" fill="none" />
<polyline points="53.0,2.0,45.0,10.0,36.5,17.5,28.5,25.0,20.5,32.5,12.5,39.5,4.5,47.0" stroke="black" stroke-width="2" fill="none" />
<polyline points="3.0,48.5,11.0,48.0,19.0,47.5,27.0,47.5,35.5,47.0,43.5,46.5,52.0,46.0,60.0,45.5,68.5,45.0,77.0,44.0,85.0,44.0,93.0,43.5,100.5,43.5,108.5,43.0,116.5,43.0,124.0,43.0,132.0,42.5,139.5,42.0" stroke="black" stroke-width="2" fill="none" />
<polyline points="43.5,3.5,35.5,11.0,28.0,18.0,20.5,25.0,13.0,32.5,5.5,40.0" stroke="black" stroke-width="2" fill="none" />
<polyline points="4.5,39.0,12.0,38.5,20.0,37.5,28.0,37.0,36.5,36.0,45.0,35.0,52.5,34.5,60.0,33.5,68.0,33.0,76.0,32.0,84.0,31.5,92.5,31.0,100.5,31.5,108.0,31.0,116.0,31.0,124.0,30.5,132.0,30.5,140.0,30.5,148.0,30.5,155.5,30.5,163.5,30.0,171.5,29.5,180.0,28.5,188.0,27.5,195.0,26.5,203.0,25.5,211.0,25.0,219.0,24.5,227.0,24.0,235.0,24.0,242.5,23.5,250.5,22.5,258.0,22.0,266.5,21.0,275.0,20.0,283.5,19.0,292.0,18.5,300.0,18.5,308.5,18.0,316.5,17.5,324.0,17.5,332.5,16.5,341.0,16.0,349.5,15.5,357.0,15.0,365.0,15.0,372.5,14.5,380.0,14.0,388.0,13.5,396.0,12.0,404.5,11.5,412.0,11.5,419.5,12.0,427.5,12.0,435.5,12.0,443.5,11.5,451.5,11.0,459.0,10.5,466.5,10.0,474.5,9.5,482.5,9.0,490.5,8.5,499.5,7.0,507.5,6.5,515.0,5.5" stroke="black" stroke-width="2" fill="none" />
<polyline points="35.5,3.0,27.5,10.5,19.5,17.5,12.0,25.0,4.5,33.5" stroke="black" stroke-width="2" fill="none" />
<polyline points="4.0,32.5,12.0,32.0,20.0,31.5,28.0,31.5,35.5,31.0,43.0,30.5,51.0,30.0,59.0,29.5,66.5,29.0,74.5,28.0,82.0,27.0,90.0,27.0,98.0,27.0" stroke="black" stroke-width="2" fill="none" />
<polyline points="26.5,4.5,18.5,11.5,10.0,19.0,2.5,26.0" stroke="black" stroke-width="2" fill="none" />
<polyline points="3.5,25.0,11.5,24.5,19.5,23.5,27.5,23.0,35.0,22.5,43.0,22.5,51.0,21.5,59.0,20.5,67.0,20.0,75.0,19.5" stroke="black" stroke-width="2" fill="none" />
<polyline points="20.0,3.0,11.5,10.5,3.5,18.0" stroke="black" stroke-width="2" fill="none" />
<polyline points="4.5,18.5,12.5,18.0,20.0,17.0,28.0,16.0,36.5,15.0,44.5,14.0,52.5,13.5" stroke="black" stroke-width="2" fill="none" />
<polyline points="12.5,4.0,4.5,11.5" stroke="black" stroke-width="2" fill="none" />
<polyline points="3.5,10.5,11.5,9.5,19.5,9.0,27.5,8.5" stroke="black" stroke-width="2" fill="none" />
<polyline points="5.0,14.0,13.0,13.0,20.0,12.5,28.0,12.0,36.0,12.0,44.0,11.0,52.0,10.0,60.0,9.0,68.5,8.0,76.5,6.5,84.5,5.5,92.5,5.0,100.5,5.5,109.0,5.5,116.5,5.0,124.5,5.5,132.5,5.0,141.0,5.5,149.0,5.5,156.5,5.5,164.0,5.0,172.5,4.5,180.5,4.0,188.0,3.0,195.5,2.5,203.5,2.0,211.0,1.0,219.0,0.5,226.5,0.0,234.5,-0.5,242.5,-1.0,250.5,-1.5,258.5,-2.0,266.5,-3.0,275.0,-3.5,283.5,-4.5,292.0,-5.0,300.0,-5.5,308.0,-6.0,315.5,-7.0,323.5,-7.5,331.5,-7.5,340.0,-7.5,348.0,-8.0,355.5,-9.0,364.0,-9.5,372.0,-10.0,380.5,-11.0,389.0,-12.0,398.0,-13.0,406.0,-13.5,414.5,-13.5,422.0,-14.0,429.5,-14.0,436.5,-14.5,444.5,-15.0,452.0,-14.5,459.5,-14.5,467.5,-15.0,475.5,-15.5,483.0,-15.5,491.5,-16.5,499.5,-18.0,508.0,-19.0,516.0,-19.5" stroke="black" stroke-width="2" fill="none" />
<polyline points="123.5,73.5,115.5,73.5,107.5,74.0,99.5,74.5,92.0,75.0,84.0,75.0,76.0,76.0,68.0,76.5,60.0,77.5,52.0,78.0,44.0,78.5,36.0,79.0,28.5,79.5,21.0,80.0,13.0,80.0,5.0,80.5" stroke="black" stroke-width="2" fill="none" />
<polyline points="3.5,74.0,12.0,73.5,20.5,73.0,28.5,72.5,37.0,72.0,45.5,71.5,53.5,71.0,61.5,70.5,69.0,69.5,77.0,68.5,85.0,67.5,93.0,67.5,100.5,66.5,108.0,66.5,115.5,67.0,123.0,67.0,130.5,66.5,138.5,67.0,146.0,66.5,153.5,66.0" stroke="black" stroke-width="2" fill="none" />
<polyline points="4.0,52.5,12.0,52.0,20.5,51.5,28.5,51.5,37.0,52.0,45.0,52.0,53.0,52.0,61.0,51.5,69.0,50.5,76.5,49.0,84.5,48.5,92.5,48.0,101.0,48.0,108.5,48.0,116.0,47.5,123.5,47.0,131.5,46.0,140.0,46.0,148.0,45.0,155.5,44.0,163.5,43.5,171.5,43.0,179.0,42.5,187.5,42.0,196.5,42.0,204.5,42.0,212.0,41.5,220.0,40.5,227.5,39.5,235.0,39.0,243.0,39.0,251.0,38.5,259.0,38.0,267.5,37.5,276.0,37.0,284.0,36.0,291.5,35.0,299.5,34.0,307.5,33.5,316.0,33.0,324.5,32.5,332.5,32.0,340.0,30.5,347.5,30.0,355.0,29.5,362.5,29.0,370.5,29.0,379.0,28.5,387.0,28.5,395.5,28.0,403.5,27.5,411.5,27.5,419.5,26.5,427.5,26.0,435.5,26.0,444.0,26.0,451.5,26.0,459.5,25.5,467.5,25.0,475.5,24.5,483.5,24.0,492.0,23.5,499.5,23.0,507.5,23.0,515.5,23.0" stroke="black" stroke-width="2" fill="none" />
<polyline points="515.0,29.0,507.0,29.5,499.0,30.5,491.0,31.5,483.0,32.0,475.0,32.5,467.5,33.0,459.0,33.0,450.5,33.0,442.0,33.5,433.5,34.0,425.0,34.5,417.0,35.0,409.5,35.5,401.5,36.0,393.5,36.5,386.0,37.0,378.0,38.0,370.0,38.5,362.5,39.0,355.0,39.5,347.5,40.0,340.0,40.5,332.0,41.5,324.0,42.5,316.0,43.0,308.0,42.5,300.0,42.5,292.0,43.0,283.5,43.0,275.0,43.5,266.5,43.5,258.5,43.5,250.0,44.0,242.0,45.0,234.0,45.5,225.5,46.0,218.0,46.5,210.0,47.0,202.5,47.5,194.5,48.0,186.5,48.5,179.0,49.0,171.5,49.5,163.0,50.5,155.5,51.0,148.0,52.0,140.0,52.5,132.0,53.5,124.5,54.0,117.0,54.5,109.0,54.5,101.0,55.0,93.0,56.0,85.5,56.0,77.0,56.5,69.0,57.0,61.0,58.0,53.0,59.0,44.5,60.0,35.5,60.0,27.0,60.5,18.5,60.5,10.5,61.0,3.0,62.0" stroke="black" stroke-width="2" fill="none" />
<polyline points="1.0,44.5,9.0,44.0,17.5,43.5,25.5,43.0,33.5,43.0,41.5,42.5,50.0,42.0,58.0,41.0,66.5,40.5,75.0,40.5,83.0,40.0,91.0,39.5,98.5,39.0,106.5,39.0,114.5,39.0,122.5,39.0,130.0,38.5,137.5,38.0,145.5,37.0,154.0,36.5,162.0,35.5,170.0,35.5,178.0,35.0,186.5,35.0,195.0,34.5,203.5,33.5,212.0,33.0,220.0,32.0,228.0,31.5,235.5,31.0,243.5,30.5,251.5,30.0,260.0,29.0,268.5,28.0,277.0,27.5,285.5,27.0,293.5,26.0,301.0,26.0,309.0,26.0,317.0,26.0,325.5,26.0,333.0,25.5,341.0,25.0,349.0,24.5,356.5,23.5,364.5,23.0,373.0,23.0,381.0,22.0,389.5,21.5,398.0,21.0,405.5,20.0,413.5,19.5,421.0,19.0,429.0,19.5,437.0,20.0,445.0,19.5,453.0,19.5,461.0,19.0,469.0,19.0,477.0,18.0,485.0,17.5,493.0,17.0,501.5,17.0,509.5,16.5,518.0,15.5" stroke="black" stroke-width="2" fill="none" />
<polyline points="123.5,35.0,115.5,35.5,108.0,35.5,100.0,35.5,92.0,36.0,84.5,36.0,76.0,36.5,68.0,37.0,59.5,37.5,51.0,38.0,42.5,38.5,35.0,39.0,26.5,39.5,18.5,40.0,11.5,40.5,3.5,41.5" stroke="black" stroke-width="2" fill="none" />
<polyline points="2.0,29.0,10.0,28.5,19.0,28.0,27.0,27.0,35.0,26.0,42.0,25.5,50.5,25.5,58.5,25.5,66.0,25.5,74.0,25.0,82.0,24.0,90.0,24.0,98.5,23.5,106.5,23.0,115.0,22.5,123.5,21.5,132.0,21.0,140.0,20.0,148.0,19.5,156.0,19.0,164.0,18.5,171.5,17.5,179.5,17.5,187.5,17.5,196.0,17.5,204.0,17.0,212.0,16.5,220.0,16.5,228.5,16.0,236.5,15.5,244.5,15.0,252.5,14.5,261.0,14.0,269.0,13.0,277.0,12.0,285.0,11.5,293.0,11.0,301.0,10.5,309.0,10.0,317.5,9.5,325.5,9.0,333.5,9.0,341.0,8.5,349.0,7.5,357.5,6.0,365.0,5.0,373.0,4.5,381.0,4.0,388.5,3.5,397.0,3.0,405.5,2.5,413.5,2.0,421.5,1.5,429.5,1.5,437.5,1.5,445.5,1.5,453.5,1.5,462.0,1.5,469.5,1.5,477.0,1.5,485.5,1.0,493.0,0.5,500.0,0.0,508.0,-0.5,515.5,-1.0" stroke="black" stroke-width="2" fill="none" />
<polyline points="516.0,-10.0,507.0,-9.0,498.5,-8.0,490.5,-7.5,482.5,-7.0,474.5,-6.5,467.0,-6.0,459.5,-5.5,452.0,-5.5,444.5,-5.0,436.0,-4.0,428.5,-4.0,420.5,-3.5,412.5,-3.5,404.0,-2.5,396.0,-2.0,387.5,-2.0,380.0,-1.5,372.0,-1.0,364.0,-0.5,356.0,0.0,347.5,0.5,339.0,1.0,331.0,1.0,323.0,1.0,315.0,2.0,307.5,2.5,299.0,3.5,290.5,5.0,282.0,5.0,274.0,6.0,266.0,6.0,258.0,6.0,250.5,6.0,243.0,6.0,234.5,7.0,227.0,8.0,219.0,8.5,210.5,9.0,202.0,9.0,194.5,9.5,187.0,9.5,179.0,10.0,170.5,10.0,163.0,11.0,155.0,11.5,146.5,12.0,139.0,12.5,131.5,13.0,123.5,13.5,115.5,13.5,107.5,14.0,100.0,14.0,92.5,15.0,84.5,16.0,76.5,16.5,68.0,16.5,60.0,17.0,52.0,17.5,44.0,18.0,36.5,19.5,29.0,20.5,21.5,21.5,14.0,22.5,6.0,22.5" stroke="black" stroke-width="2" fill="none" />
<polyline points="2.0,4.5,10.0,3.5,18.5,3.5,26.5,3.5,34.5,2.5,42.5,2.0,51.5,1.5,61.0,0.5,69.5,-0.5,77.5,-1.0,85.5,-1.5,93.5,-2.0,101.0,-2.0,108.5,-2.0,116.5,-1.0,124.0,-1.0,132.0,-1.5,139.5,-2.0,147.5,-2.5,155.0,-3.0,163.0,-3.5,171.0,-4.0,178.5,-5.0,186.0,-6.0,194.5,-6.5,203.0,-7.5,211.0,-8.0,219.5,-8.0,228.0,-8.5,237.0,-8.5,245.0,-9.0,253.5,-9.5,260.5,-10.0,268.0,-10.0,275.5,-10.5,283.0,-10.5,291.0,-11.5,299.5,-12.0,308.0,-12.5,315.5,-13.0,323.5,-13.5,331.5,-14.0,339.0,-14.5,346.5,-15.5,354.5,-17.0,362.5,-18.0,370.0,-19.0,377.5,-19.0,385.0,-19.0,392.5,-19.5,400.5,-19.5,408.5,-20.5,417.5,-21.5,426.0,-22.0,434.0,-22.0,441.5,-21.5,450.5,-21.5,459.0,-21.5,467.5,-21.5,476.0,-21.5,484.0,-22.0,492.0,-22.5,499.5,-22.5,507.5,-23.5,516.0,-24.5" stroke="black" stroke-width="2" fill="none" />
</svg>