<svg xmlns="http://www.w3.org/2000/svg" version="1.1"><path d="M232.0,121.5,249.0,129.5,256.0,137.5,253.0,146.0,240.5,154.0,233.5,160.0,226.0,168.0,211.0,176.0" stroke="black" stroke-width="2" fill="none" />
<path d="M212.0,180.5,220.0,172.5,228.0,165.0" stroke="black" stroke-width="2" fill="none" />
<path d="M227.5,171.5,235.5,164.0" stroke="black" stroke-width="2" fill="none" />
<path d="M235.5,156.0,227.0,156.5" stroke="black" stroke-width="2" fill="none" />
<path d="M219.0,161.5,211.5,169.0,204.0,177.0" stroke="black" stroke-width="2" fill="none" />
<path d="M196.0,172.0,187.5,179.5,179.0,187.0,170.5,194.5" stroke="black" stroke-width="2" fill="none" />
<path d="M180.5,194.0,188.5,187.0,197.0,180.0,205.0,172.0,213.0,164.5" stroke="black" stroke-width="2" fill="none" />
<path d="M213.0,171.5,220.5,171.0,228.5,170.0" stroke="black" stroke-width="2" fill="none" />
<path d="M233.5,172.0,241.5,170.0,250.0,170.5,258.0,167.0" stroke="black" stroke-width="2" fill="none" />
<path d="M258.5,165.5,250.5,172.5,243.0,180.0,235.5,187.5,228.0,194.5,220.0,202.0,212.0,209.0,204.5,216.0" stroke="black" stroke-width="2" fill="none" />
<path d="M204.0,212.0,196.0,219.0" stroke="black" stroke-width="2" fill="none" />
<path d="M195.5,220.0,203.5,219.5,211.5,218.5,219.5,217.5,227.5,217.0,235.5,216.0,243.5,215.0,251.5,214.5,259.5,213.5,267.5,213.0,275.0,213.0,283.5,212.5,291.5,211.5,299.5,211.0" stroke="black" stroke-width="2" fill="none" />
<path d="M299.5,205.0,291.5,211.5,283.5,218.5,275.0,225.5,267.0,232.5,258.5,239.0,251.0,246.5" stroke="black" stroke-width="2" fill="none" />
<path d="M251.5,242.5,259.5,241.5,267.0,241.0,275.5,240.0,284.0,239.0,292.5,238.0,300.5,238.0,309.0,238.0" stroke="black" stroke-width="2" fill="none" />
<path d="M307.0,234.0,299.0,241.5,291.0,249.0" stroke="black" stroke-width="2" fill="none" />
<path d="M284.5,249.5,292.0,242.0,300.0,234.5,307.5,227.0" stroke="black" stroke-width="2" fill="none" />
<path d="M305.0,227.5,312.5,238.5,320.0,242.5,327.5,246.0,335.5,248.5,343.5,250.5,351.5,250.5,359.5,248.0,367.5,250.0,375.5,250.5,384.0,250.5,392.0,249.5,400.0,247.5,408.0,245.0,416.5,239.0" stroke="black" stroke-width="2" fill="none" />
<path d="M419.5,236.0,427.0,236.0" stroke="black" stroke-width="2" fill="none" />
<path d="M427.0,230.5,435.5,230.0,444.0,229.0,452.0,228.0,460.5,227.0,468.5,226.5,477.0,225.5,484.5,225.5,492.5,225.0,501.0,224.0,509.5,223.5,517.0,223.5" stroke="black" stroke-width="2" fill="none" />
<path d="M516.0,241.5,508.0,242.5,500.0,243.0,492.0,244.0,483.5,244.5,476.0,245.5,468.5,246.5,461.0,247.0,453.0,247.5" stroke="black" stroke-width="2" fill="none" />
<path d="M441.5,236.0,449.5,235.5,457.5,235.0,465.5,234.5,473.5,234.0,481.5,234.0,489.5,234.0,497.5,234.0,505.5,233.5,514.0,233.0" stroke="black" stroke-width="2" fill="none" />
<path d="M516.0,215.0,508.0,215.5,500.5,216.5,492.0,217.5,483.5,218.5,475.5,219.5,467.5,220.0,459.5,221.0,451.5,222.0,443.5,222.5,436.5,223.5,429.0,224.0" stroke="black" stroke-width="2" fill="none" />
<path d="M428.0,214.0,436.5,213.5,444.5,213.0,453.0,212.5,461.0,212.0,468.5,211.0,476.5,210.0,484.5,209.5,492.5,208.5,500.0,207.5,508.0,207.0,516.0,206.5" stroke="black" stroke-width="2" fill="none" />
<path d="M516.0,130.0,507.5,130.0,499.0,130.0,491.0,130.0,483.0,130.0,475.0,131.0,467.0,131.5,458.5,132.5,450.5,133.0,442.5,134.0" stroke="black" stroke-width="2" fill="none" />
<path d="M424.5,149.0,442.5,157.0,451.5,164.5,454.0,172.5,450.0,180.5,436.0,188.5,424.0,196.5,416.0,205.0,407.0,213.0,397.0,216.0,398.0,216.0,406.0,214.0,414.0,207.0,421.5,199.0" stroke="black" stroke-width="2" fill="none" />
<path d="M419.0,195.5,411.5,203.5,403.5,210.5" stroke="black" stroke-width="2" fill="none" />
<path d="M410.5,200.0,418.5,199.5" stroke="black" stroke-width="2" fill="none" />
<path d="M419.0,201.5,410.5,202.0,402.5,202.5,394.5,203.0,387.0,203.5,379.5,204.0,371.0,204.5,362.0,205.0,353.5,205.0,345.5,205.0,337.0,205.5" stroke="black" stroke-width="2" fill="none" />
<path d="M337.0,205.5,344.5,211.0" stroke="black" stroke-width="2" fill="none" />
<path d="M346.0,211.0,353.0,203.5,361.0,196.0" stroke="black" stroke-width="2" fill="none" />
<path d="M356.0,196.5,347.5,204.0,339.5,211.5" stroke="black" stroke-width="2" fill="none" />
<path d="M341.0,213.0,348.5,212.5,356.0,212.5,363.5,212.5,370.5,212.0,378.0,211.0,386.5,210.5,394.5,210.0,402.5,209.0" stroke="black" stroke-width="2" fill="none" />
<path d="M396.0,196.0,387.5,203.5,379.5,211.5,371.0,219.0,363.0,227.0" stroke="black" stroke-width="2" fill="none" />
<path d="M371.0,232.0,379.0,224.5,387.5,217.0,395.5,209.0,403.5,201.5,411.5,193.5" stroke="black" stroke-width="2" fill="none" />
<path d="M406.5,195.0,397.5,202.5,389.0,210.0,380.5,217.0,372.5,225.0,364.0,232.5" stroke="black" stroke-width="2" fill="none" />
<path d="M356.0,226.0,364.0,218.5,371.5,211.5,379.5,204.0" stroke="black" stroke-width="2" fill="none" />
<path d="M370.5,203.5,363.0,210.5,355.5,218.0" stroke="black" stroke-width="2" fill="none" />
<path d="M357.5,218.5,365.5,218.0,373.5,217.5,382.0,217.0,389.5,217.0,398.0,217.0" stroke="black" stroke-width="2" fill="none" />
<path d="M411.5,244.0,403.5,251.0" stroke="black" stroke-width="2" fill="none" />
<path d="M378.5,250.0,371.0,258.0" stroke="black" stroke-width="2" fill="none" />
<path d="M363.0,257.0,371.0,249.5,379.5,241.5" stroke="black" stroke-width="2" fill="none" />
<path d="M371.5,243.0,364.0,250.5,356.0,258.5" stroke="black" stroke-width="2" fill="none" />
<path d="M349.0,259.0,357.0,251.5,365.0,244.0" stroke="black" stroke-width="2" fill="none" />
<path d="M355.0,245.0,347.0,252.5,339.5,259.5" stroke="black" stroke-width="2" fill="none" />
<path d="M331.0,258.0,338.5,250.5,346.5,243.0" stroke="black" stroke-width="2" fill="none" />
<path d="M348.5,239.0,357.0,238.0,364.5,237.0,372.5,236.5,380.5,236.0,388.5,236.0" stroke="black" stroke-width="2" fill="none" />
<path d="M364.5,205.0,356.0,212.0,347.5,219.0" stroke="black" stroke-width="2" fill="none" />
<path d="M348.5,222.5,356.5,221.5,364.5,221.5,372.0,221.0,379.0,221.0,387.0,221.0,395.0,220.5" stroke="black" stroke-width="2" fill="none" />
<path d="M395.5,228.0,387.0,229.0,379.0,229.5,371.0,229.5,362.5,229.5,354.0,230.0,346.0,230.0" stroke="black" stroke-width="2" fill="none" />
<path d="M339.5,242.0,331.5,249.5" stroke="black" stroke-width="2" fill="none" />
<path d="M331.5,245.5,323.5,252.5" stroke="black" stroke-width="2" fill="none" />
<path d="M323.0,244.5,315.0,252.0" stroke="black" stroke-width="2" fill="none" />
<path d="M308.5,250.0,317.0,242.5" stroke="black" stroke-width="2" fill="none" />
<path d="M316.5,233.5,308.0,241.0,299.5,248.5" stroke="black" stroke-width="2" fill="none" />
<path d="M295.5,254.0,303.5,253.0,311.5,253.5,319.5,255.5,327.5,256.5,335.5,257.5,343.5,258.5,352.0,258.5,360.0,260.0,368.0,260.0,376.0,259.0,384.0,259.0,392.0,258.5,400.0,257.0,408.0,252.0,416.0,244.0,408.0,252.0,411.5,256.0,420.0,253.0,416.0,253.5" stroke="black" stroke-width="2" fill="none" />
<path d="M429.5,205.0,437.5,205.0,445.0,205.0,453.0,204.5,461.0,204.5,468.5,204.0,476.5,203.5,484.5,202.5,493.0,201.5,501.0,200.5,508.5,200.0,517.5,199.5" stroke="black" stroke-width="2" fill="none" />
<path d="M517.0,185.0,509.0,185.5,501.0,186.0,492.5,187.0,484.0,187.0,476.0,188.0,468.0,188.5,460.0,189.0,452.0,189.0,443.5,190.0,435.5,190.0,427.5,191.0,419.5,191.5,411.5,192.5,403.5,193.0,396.0,193.5,388.0,194.0,379.5,194.0,371.5,194.0,363.0,194.5,355.0,195.0,347.0,195.5,339.5,196.0,331.5,196.5,323.5,197.0" stroke="black" stroke-width="2" fill="none" />
<path d="M331.5,203.5,340.0,196.0" stroke="black" stroke-width="2" fill="none" />
<path d="M340.5,202.0,349.0,194.5" stroke="black" stroke-width="2" fill="none" />
<path d="M352.0,183.5,360.0,185.5,368.0,186.0,376.5,186.0,384.5,185.0" stroke="black" stroke-width="2" fill="none" />
<path d="M402.0,206.5,394.0,207.0,386.5,207.5,379.5,207.5,372.0,208.5,364.5,209.0,357.5,209.5,349.5,210.0" stroke="black" stroke-width="2" fill="none" />
<path d="M308.0,217.0,300.0,225.0,292.0,233.0,283.5,241.0,275.0,248.5" stroke="black" stroke-width="2" fill="none" />
<path d="M276.0,249.0,284.5,249.0,292.5,248.0,300.5,247.5,308.5,246.5,316.5,246.0,324.0,246.5,332.0,246.5" stroke="black" stroke-width="2" fill="none" />
<path d="M306.5,209.0,299.0,217.0,290.5,225.0,282.5,232.5,274.5,240.0,266.5,248.0" stroke="black" stroke-width="2" fill="none" />
<path d="M259.5,248.5,267.0,240.5,275.0,233.0,282.5,225.5,290.5,217.5,298.0,209.0,306.0,201.5" stroke="black" stroke-width="2" fill="none" />
<path d="M300.0,196.0,291.5,203.5,283.5,211.0,275.0,218.5,267.0,226.0,259.0,233.5,251.0,241.0" stroke="black" stroke-width="2" fill="none" />
<path d="M243.5,241.0,252.0,233.5,260.5,226.0,268.5,218.0,276.5,210.0,284.5,202.5,293.0,194.5,301.0,187.0" stroke="black" stroke-width="2" fill="none" />
<path d="M300.5,191.0,292.5,191.0,284.0,191.5,276.0,192.0,267.5,192.5,259.0,192.0,250.5,192.0,242.5,192.5,234.5,193.0" stroke="black" stroke-width="2" fill="none" />
<path d="M234.5,184.5,242.5,184.5,251.0,184.0,259.5,184.0,268.0,183.5,275.5,182.5,284.0,182.0" stroke="black" stroke-width="2" fill="none" />
<path d="M284.0,180.5,276.0,187.5,268.0,195.0,260.0,202.0,252.0,209.0,244.5,216.5,236.5,224.0,228.5,232.0" stroke="black" stroke-width="2" fill="none" />
<path d="M233.0,234.0,241.0,233.5,250.0,233.0,258.5,232.0,267.0,232.0,276.0,231.0,284.0,230.5,292.5,230.5,300.5,230.5,308.5,230.5" stroke="black" stroke-width="2" fill="none" />
<path d="M298.5,221.5,290.5,222.0,283.0,222.5,275.5,223.0,268.0,223.0,259.5,223.5,251.0,223.5,243.0,223.5,235.0,224.0,227.0,224.0" stroke="black" stroke-width="2" fill="none" />
<path d="M226.5,225.0,234.5,217.5,243.0,210.0,251.0,202.5,259.0,195.5,267.0,188.5,274.5,181.0,282.5,174.0" stroke="black" stroke-width="2" fill="none" />
<path d="M278.0,172.5,286.5,181.5,294.0,186.0,302.0,189.0,310.5,191.5,318.5,193.5,326.5,195.5,335.0,196.0,343.0,197.0,351.5,199.0,359.5,199.0,367.5,199.0,375.5,198.5,383.0,198.0,391.0,198.0,398.5,197.0,407.0,197.0,414.5,195.0,423.0,194.0,431.0,191.0,439.5,188.5,447.0,183.5" stroke="black" stroke-width="2" fill="none" />
<path d="M453.5,167.0,445.5,158.0,438.0,153.0,429.5,150.0,421.5,148.0,413.0,146.5,405.0,144.5,397.5,143.5,389.5,142.5,382.0,141.0,374.0,140.5,365.5,140.5,357.5,141.0,349.5,140.5,341.5,140.5,333.5,142.0,325.0,142.5,317.0,143.5,309.0,146.0,301.5,148.0,293.5,151.0,286.0,156.5,278.0,166.5" stroke="black" stroke-width="2" fill="none" />
<path d="M276.5,163.5,268.5,171.0,260.0,178.5,251.5,186.0,244.0,194.5,236.0,202.5,228.0,210.5,219.5,218.0" stroke="black" stroke-width="2" fill="none" />
<path d="M219.5,225.0,227.0,217.5,235.5,209.5,244.0,202.0,252.5,194.5,261.0,187.0,268.5,179.5,276.5,172.5" stroke="black" stroke-width="2" fill="none" />
<path d="M269.0,164.0,260.5,171.0,252.0,178.0,243.5,185.0,235.5,192.5,227.5,200.0,219.5,208.0,211.5,216.0" stroke="black" stroke-width="2" fill="none" />
<path d="M219.0,211.0,227.0,210.0,235.0,209.5,242.5,208.5,250.0,207.5,258.5,206.5,266.0,205.5,274.0,204.5,282.5,204.0,291.0,203.5,299.5,203.0" stroke="black" stroke-width="2" fill="none" />
<path d="M299.0,198.0,292.0,198.5,284.5,199.0,276.5,199.0,269.0,199.0,260.5,199.5,252.0,200.0,243.5,201.0,235.5,201.5,227.5,202.0" stroke="black" stroke-width="2" fill="none" />
<path d="M220.0,192.0,228.0,191.5,236.0,190.5,243.5,189.5,251.5,189.0,259.5,188.0,267.0,187.0,274.5,186.0,282.0,184.5,290.5,183.5,298.5,183.0,306.5,182.5" stroke="black" stroke-width="2" fill="none" />
<path d="M306.0,192.0,298.0,192.0,289.5,193.0,282.0,193.5,275.0,194.0,267.5,194.5,259.5,195.5,251.5,196.0,244.5,197.0,237.0,198.0,229.0,198.5,221.5,199.5,213.5,199.5" stroke="black" stroke-width="2" fill="none" />
<path d="M198.0,214.0,189.5,221.0" stroke="black" stroke-width="2" fill="none" />
<path d="M187.0,211.5,179.0,219.0" stroke="black" stroke-width="2" fill="none" />
<path d="M179.5,212.0,171.0,219.5" stroke="black" stroke-width="2" fill="none" />
<path d="M164.0,218.0,172.0,210.5" stroke="black" stroke-width="2" fill="none" />
<path d="M164.5,212.5,156.5,219.5" stroke="black" stroke-width="2" fill="none" />
<path d="M157.0,220.5,165.5,220.0,173.5,220.0,181.0,219.5,189.0,218.5,197.0,218.5,204.5,218.0,213.0,218.0,221.0,218.0,229.5,218.0,237.5,217.5,245.5,217.0,253.5,216.5,262.0,216.0,269.5,216.0,278.0,216.0,285.5,215.5,293.0,215.5,300.5,215.0,308.0,214.0" stroke="black" stroke-width="2" fill="none" />
<path d="M306.5,222.5,298.5,222.5,291.0,223.5,282.5,224.5,274.5,226.0,266.5,227.5,258.5,228.0,250.0,228.5,242.5,228.5,235.0,229.0,227.5,229.5,220.0,230.5" stroke="black" stroke-width="2" fill="none" />
<path d="M219.0,236.0,227.0,235.5,235.0,235.0,243.5,235.0,251.5,235.0,260.0,234.5,268.5,234.5,277.0,234.5,285.0,233.5,293.5,232.5,301.5,232.0,309.5,232.0,317.0,232.0,325.0,231.5" stroke="black" stroke-width="2" fill="none" />
<path d="M309.5,198.0,301.5,197.5,293.5,197.5,285.0,198.0,276.5,199.0,268.5,199.0,260.5,199.5,252.5,200.0,245.0,201.0,236.5,202.0,229.0,203.0,220.5,203.5,212.0,203.5,204.0,203.5,196.0,203.5,188.0,204.0,180.0,204.0,172.5,204.0,165.0,204.5,156.5,204.5" stroke="black" stroke-width="2" fill="none" />
<path d="M153.5,196.0,161.5,195.5,169.5,195.5,178.0,195.5,186.5,195.5,194.5,195.5" stroke="black" stroke-width="2" fill="none" />
<path d="M190.5,185.5,198.5,182.5,207.0,179.5,215.5,175.5,224.0,171.5,232.0,166.0,234.0,175.5,233.0,183.5,230.5,191.5,221.5,199.5,211.5,207.5" stroke="black" stroke-width="2" fill="none" />
<path d="M228.5,181.5,236.0,181.5,244.0,181.0,251.5,180.5,259.5,180.5,267.0,180.0,275.5,180.0,283.5,180.0,292.0,180.0" stroke="black" stroke-width="2" fill="none" />
<path d="M292.5,179.5,284.5,187.0,276.5,194.0,268.5,201.5,261.0,209.0,252.5,216.5,244.0,224.0,236.0,231.5" stroke="black" stroke-width="2" fill="none" />
<path d="M235.0,240.5,243.5,233.0,252.0,226.0,260.0,219.0,267.5,211.0,275.5,204.0,284.0,197.0,292.0,189.5" stroke="black" stroke-width="2" fill="none" />
<path d="M306.5,193.0,314.5,195.5,322.0,197.5,327.0,199.5,337.0,205.5,349.0,213.0" stroke="black" stroke-width="2" fill="none" />
<path d="M403.0,244.5,395.0,245.5,387.5,246.0,380.0,247.0,371.5,247.5,364.0,248.0,356.5,248.5,348.5,248.5,340.0,249.0,332.0,249.5,323.5,250.0,315.0,250.0,307.0,249.5,299.0,249.5,291.5,250.0,283.5,251.5,275.0,252.5,267.5,253.5,259.0,254.0" stroke="black" stroke-width="2" fill="none" />
<path d="M234.5,247.0,242.5,246.5,250.5,245.5,259.0,244.5,267.5,244.0,275.5,243.0,284.5,242.0,293.0,241.5,301.0,240.5,308.5,240.0,316.0,239.5,324.0,239.5,332.5,239.0,340.5,239.0,348.0,239.0,356.0,238.0,364.5,237.5,372.0,236.5,380.0,235.5,388.0,235.0,396.5,235.0,404.5,234.0,412.5,233.5,421.0,233.0,429.0,233.0" stroke="black" stroke-width="2" fill="none" />
<path d="M415.5,242.0,422.5,234.0,424.5,226.0,425.0,217.5,426.0,209.5,426.5,201.5" stroke="black" stroke-width="2" fill="none" />
<path d="M500.0,99.0,507.5,92.0,515.0,84.5" stroke="black" stroke-width="2" fill="none" />
<path d="M517.0,92.5,509.0,100.0" stroke="black" stroke-width="2" fill="none" />
<path d="M490.5,97.0,498.5,89.5,506.5,82.5,515.0,75.5" stroke="black" stroke-width="2" fill="none" />
<path d="M515.5,66.0,507.5,73.5,500.0,81.0,492.0,88.5,483.0,96.5" stroke="black" stroke-width="2" fill="none" />
<path d="M474.0,96.0,482.5,88.0,491.5,80.5,500.0,73.5,509.0,65.5,516.5,58.0" stroke="black" stroke-width="2" fill="none" />
<path d="M517.0,50.0,508.5,57.5,499.5,66.0,491.0,73.5,483.0,81.0,475.0,88.5,466.5,96.5" stroke="black" stroke-width="2" fill="none" />
<path d="M460.5,97.0,468.5,89.5,476.5,82.0,484.0,74.5,491.5,67.0,499.0,59.5,507.0,51.0,515.0,43.0" stroke="black" stroke-width="2" fill="none" />
<path d="M514.5,35.0,507.0,43.0,499.5,51.0,492.0,58.5,484.5,66.5,476.5,74.0,468.5,81.5,460.5,88.5,452.5,95.5" stroke="black" stroke-width="2" fill="none" />
<path d="M451.0,88.0,459.0,80.0,467.5,72.5,475.5,64.5,483.5,57.0,491.0,50.0,498.5,42.5,506.5,35.5,514.5,28.0" stroke="black" stroke-width="2" fill="none" />
<path d="M514.5,17.5,506.5,25.5,498.5,33.5,490.5,41.5,483.0,49.5,476.0,57.5,468.0,65.0,460.5,72.5,453.0,80.5,445.5,88.0" stroke="black" stroke-width="2" fill="none" />
<path d="M437.0,87.0,445.5,79.5,454.0,73.0,462.0,65.5,469.5,57.5,477.0,49.5,485.0,41.5,493.0,34.0,500.5,25.5,508.5,17.5,517.0,10.0" stroke="black" stroke-width="2" fill="none" />
<path d="M516.0,2.0,508.0,9.5,499.5,17.0,491.5,24.5,483.5,32.0,476.0,40.0,467.5,48.5,459.5,56.0,452.0,64.0,444.0,71.0,436.5,78.5,428.5,86.5" stroke="black" stroke-width="2" fill="none" />
<path d="M417.5,86.5,425.5,79.5,433.5,72.0,442.0,64.5,450.0,57.0,458.5,49.5,466.5,41.5,475.0,34.0,483.0,26.0,491.0,18.0,499.0,10.0,507.0,3.0" stroke="black" stroke-width="2" fill="none" />
<path d="M508.5,9.0,516.0,8.5" stroke="black" stroke-width="2" fill="none" />
<path d="M498.0,3.5,491.0,11.0,483.5,18.5,475.5,26.5,467.0,35.0,458.5,43.0,451.0,50.5,443.5,57.5,435.5,65.5,427.5,73.0,419.5,80.5,411.0,88.0" stroke="black" stroke-width="2" fill="none" />
<path d="M404.5,86.5,412.5,79.0,421.0,72.0,429.5,64.0,437.5,56.0,445.0,48.5,453.0,41.5,460.5,33.0,468.5,25.0,476.0,18.0,483.5,11.0,491.0,4.0" stroke="black" stroke-width="2" fill="none" />
<path d="M484.0,4.0,476.0,11.0,468.0,18.5,460.5,26.5,453.0,34.5,445.0,42.0,437.5,49.5,429.0,57.0,421.0,65.0,413.0,72.5,405.0,80.0,397.0,87.5" stroke="black" stroke-width="2" fill="none" />
<path d="M388.5,88.0,397.0,80.0,404.5,72.5,412.5,65.5,420.5,58.0,428.0,51.0,435.5,43.5,443.0,36.0,451.0,28.5,458.5,20.5,465.5,12.5,473.5,4.5" stroke="black" stroke-width="2" fill="none" />
<path d="M467.5,3.5,459.0,11.0,451.0,18.5,443.0,26.5,435.0,34.0,426.5,42.0,419.0,49.0,412.0,56.5,404.5,63.5,396.5,70.5,388.5,77.5,380.5,85.0" stroke="black" stroke-width="2" fill="none" />
<path d="M372.0,84.0,380.5,77.0,388.0,69.0,395.0,61.0,403.0,53.5,411.0,46.0,419.0,39.0,427.5,31.5,435.5,24.0,443.5,16.5,451.5,9.0,459.5,1.5" stroke="black" stroke-width="2" fill="none" />
<path d="M452.0,3.5,443.5,10.5,435.5,17.5,427.0,25.0,419.0,32.0,411.0,39.5,403.0,46.5,395.5,54.0,387.5,62.0,378.5,69.5,370.5,77.0,362.5,84.5" stroke="black" stroke-width="2" fill="none" />
<path d="M353.0,85.0,361.0,77.5,369.0,70.0,377.5,63.0,386.0,55.5,395.0,48.0,403.0,41.0,411.5,33.5,419.0,26.5,427.0,19.0,435.0,11.0,443.0,3.5" stroke="black" stroke-width="2" fill="none" />
<path d="M435.5,3.0,427.5,11.0,419.5,18.0,411.5,25.0,404.5,32.0,396.5,39.0,387.5,46.5,378.5,54.5,370.0,62.0,362.0,69.5,354.0,77.0,346.0,84.5" stroke="black" stroke-width="2" fill="none" />
<path d="M340.0,84.5,348.0,77.0,355.5,69.5,363.0,62.5,371.0,54.5,379.0,46.0,387.5,38.5,395.5,31.0,403.5,24.5,411.5,17.0,420.0,9.5,428.0,2.0" stroke="black" stroke-width="2" fill="none" />
<path d="M420.0,5.0,412.0,12.0,404.0,19.0,396.0,26.0,388.0,33.5,380.5,41.0,372.5,48.0,365.0,55.0,357.5,62.0,349.5,69.0,341.0,76.5,333.0,84.0" stroke="black" stroke-width="2" fill="none" />
<path d="M323.0,85.0,331.0,77.0,338.5,69.5,346.5,62.5,355.0,55.0,363.5,47.5,371.5,40.0,380.0,32.5,388.0,25.0,396.0,17.5,404.0,9.5,412.5,2.0" stroke="black" stroke-width="2" fill="none" />
<path d="M404.5,4.0,396.0,11.5,387.5,18.5,379.0,26.5,371.0,34.0,362.5,41.5,355.0,49.0,347.5,56.5,339.0,64.5,330.5,72.5,322.5,80.5,315.0,87.5" stroke="black" stroke-width="2" fill="none" />
<path d="M309.0,86.0,316.5,78.5,325.0,71.0,332.5,63.5,340.5,55.5,348.5,48.5,357.0,41.0,365.0,34.0,372.5,26.5,380.0,19.0,388.0,11.5,395.5,4.0" stroke="black" stroke-width="2" fill="none" />
<path d="M387.5,4.0,379.5,11.5,371.0,19.5,363.0,27.0,355.5,33.5,347.5,41.0,340.0,48.5,332.5,57.0,325.0,64.5,317.0,72.0,309.0,79.5,301.0,87.0" stroke="black" stroke-width="2" fill="none" />
<path d="M293.0,84.5,300.5,77.0,309.0,70.0,316.5,62.5,324.0,55.5,332.0,48.0,339.5,41.0,347.5,33.5,356.0,26.0,364.0,18.5,371.5,11.0,378.5,3.5" stroke="black" stroke-width="2" fill="none" />
<path d="M372.0,2.5,364.0,10.0,356.0,18.0,347.5,26.0,339.0,34.0,330.5,42.0,322.5,49.5,314.5,56.5,306.5,64.0,298.5,70.5,290.5,78.0,283.0,86.0" stroke="black" stroke-width="2" fill="none" />
<path d="M276.0,84.5,284.0,77.0,292.0,69.5,300.0,62.5,307.5,55.5,315.5,48.0,323.5,40.5,331.0,33.5,339.0,27.0,346.5,19.5,354.0,11.5,361.5,3.5" stroke="black" stroke-width="2" fill="none" />
<path d="M353.5,4.5,345.5,12.0,337.5,19.5,329.5,27.0,322.5,34.0,314.5,41.5,307.0,48.5,299.0,56.5,291.0,64.0,283.0,71.5,275.0,79.0,267.5,86.0" stroke="black" stroke-width="2" fill="none" />
<path d="M259.0,86.0,267.5,78.5,275.0,71.0,283.0,63.5,290.5,56.0,298.5,48.0,306.5,39.5,315.0,32.0,324.0,25.5,332.5,18.0,341.0,10.0,349.0,2.5" stroke="black" stroke-width="2" fill="none" />
<path d="M341.5,4.5,333.0,11.5,324.5,19.0,316.0,26.5,307.5,33.0,299.0,40.0,291.0,47.5,283.5,55.5,275.5,63.0,267.0,71.0,259.0,78.5,251.0,86.0" stroke="black" stroke-width="2" fill="none" />
<path d="M244.0,84.5,252.0,77.0,260.0,69.5,268.0,62.0,275.5,55.0,283.0,48.0,290.0,41.5,298.0,34.0,306.0,27.0,313.5,20.0,321.5,13.0,330.0,6.0" stroke="black" stroke-width="2" fill="none" />
<path d="M324.0,4.0,316.5,12.0,308.0,19.5,300.0,27.0,292.0,35.0,284.0,42.0,276.0,49.0,268.0,56.5,260.5,64.0,252.5,72.0,244.0,80.0,236.0,87.0" stroke="black" stroke-width="2" fill="none" />
<path d="M228.0,84.5,236.5,77.0,244.0,69.5,252.0,62.5,259.5,54.5,267.0,46.5,274.5,38.5,282.5,31.0,291.0,24.0,299.5,17.0,307.5,10.0,315.5,3.0" stroke="black" stroke-width="2" fill="none" />
<path d="M306.5,3.5,298.5,10.5,291.0,18.0,283.0,25.5,275.5,32.5,267.5,40.0,260.0,47.5,252.0,55.5,243.5,63.0,235.0,69.5,226.5,77.0,219.0,85.0" stroke="black" stroke-width="2" fill="none" />
<path d="M212.0,85.5,219.5,78.0,227.5,70.5,236.0,63.5,244.0,56.0,252.0,49.5,260.0,42.5,268.5,35.0,277.0,27.0,285.0,19.0,292.5,11.0,301.0,3.0" stroke="black" stroke-width="2" fill="none" />
<path d="M294.0,1.5,286.0,9.0,277.5,16.5,269.5,24.0,261.5,31.5,253.0,39.5,245.0,47.5,237.0,55.5,229.0,63.5,221.0,71.5,213.0,79.0,205.0,86.5" stroke="black" stroke-width="2" fill="none" />
<path d="M194.0,86.5,201.5,78.5,210.0,71.5,218.5,64.0,227.0,57.0,235.0,50.0,243.5,43.0,251.0,35.0,259.0,27.5,267.0,20.0,274.5,12.5,282.0,5.5" stroke="black" stroke-width="2" fill="none" />
<path d="M277.5,2.0,269.5,9.5,261.0,17.5,252.5,25.0,244.0,32.5,235.5,40.0,227.5,48.5,219.0,56.5,210.5,64.5,201.5,72.0,193.5,79.5,185.5,87.0" stroke="black" stroke-width="2" fill="none" />
<path d="M172.5,92.5,180.5,85.0,189.0,77.5,197.0,70.5,205.0,63.0,213.0,55.5,220.5,48.0,228.5,40.5,236.5,33.5,244.5,26.5,252.5,19.5,260.5,12.5,268.5,5.0" stroke="black" stroke-width="2" fill="none" />
<path d="M257.5,4.5,249.5,12.0,242.0,20.0,234.5,27.5,227.5,35.0,220.0,42.5,212.0,49.5,204.0,56.0,196.0,63.0,187.5,70.0,179.5,77.0,171.5,84.5,163.0,92.0" stroke="black" stroke-width="2" fill="none" />
<path d="M156.5,94.0,165.0,86.5,173.5,79.5,181.0,72.0,189.0,64.5,197.0,57.0,205.0,49.5,213.5,42.0,221.0,34.0,228.5,27.0,236.5,19.5,244.5,12.0,252.0,4.5" stroke="black" stroke-width="2" fill="none" />
<path d="M244.0,3.5,236.5,11.0,228.5,18.5,220.5,26.0,212.0,33.5,203.5,41.0,195.5,49.0,188.0,57.0,180.0,65.0,172.0,73.0,163.5,80.5,155.5,87.5,147.5,94.0" stroke="black" stroke-width="2" fill="none" />
<path d="M138.5,94.0,147.0,87.0,155.0,79.5,163.0,72.0,171.0,64.5,179.0,57.0,186.5,50.0,194.5,42.5,202.5,35.0,211.5,28.0,220.0,20.5,227.5,13.0,236.0,5.0" stroke="black" stroke-width="2" fill="none" />
<path d="M226.0,3.5,218.5,11.0,211.0,19.0,203.5,26.5,195.5,34.0,188.0,42.0,180.0,49.0,172.0,56.5,164.5,63.0,156.5,70.0,149.0,77.5,140.5,85.0,132.5,92.5" stroke="black" stroke-width="2" fill="none" />
<path d="M123.5,92.0,131.5,85.0,139.5,78.0,147.5,70.0,155.5,62.5,163.5,55.5,171.0,48.0,178.5,41.0,187.0,34.0,195.5,26.5,203.5,18.5,211.5,11.0,219.0,4.0" stroke="black" stroke-width="2" fill="none" />
<path d="M213.0,5.0,205.0,12.5,196.0,20.0,188.0,27.0,180.0,34.0,171.5,41.0,163.5,48.0,155.5,55.0,147.0,62.5,139.5,70.5,131.5,78.0,124.0,85.5,116.0,93.0" stroke="black" stroke-width="2" fill="none" />
<path d="M98.5,99.5,106.5,92.0,115.0,84.0,122.5,76.0,130.5,68.5,138.5,61.0,147.0,54.5,155.5,48.0,164.0,41.0,171.5,33.5,179.5,26.0,188.0,18.5,196.0,11.0,204.5,3.5" stroke="black" stroke-width="2" fill="none" />
<path d="M194.5,1.5,186.5,9.0,178.0,17.0,170.0,24.5,162.0,32.0,154.0,40.0,146.0,48.0,138.5,56.0,130.5,64.0,123.5,72.0,115.5,80.0,107.5,86.5,99.5,93.5,91.0,100.5" stroke="black" stroke-width="2" fill="none" />
<path d="M85.0,102.0,93.0,94.0,100.5,86.0,109.0,78.0,117.0,70.5,125.0,63.0,133.0,56.0,141.0,48.5,148.5,41.0,156.5,33.5,164.5,26.0,172.0,18.5,179.5,11.5,187.5,4.0" stroke="black" stroke-width="2" fill="none" />
<path d="M179.5,2.0,171.5,10.0,164.0,18.0,156.5,25.0,149.0,32.0,141.0,39.5,133.0,47.5,125.5,55.0,117.5,62.5,110.0,69.5,102.0,76.5,94.0,84.0,85.5,91.5,77.5,99.0" stroke="black" stroke-width="2" fill="none" />
<path d="M67.0,102.5,75.0,95.0,82.5,87.5,90.0,80.5,98.0,72.5,106.5,64.5,115.0,56.5,123.0,48.5,131.0,41.0,139.5,33.5,148.0,25.5,156.0,18.0,164.5,10.0,173.0,2.5" stroke="black" stroke-width="2" fill="none" />
<path d="M164.5,3.0,157.0,11.0,149.0,18.5,141.5,26.0,133.5,34.0,125.5,41.5,117.5,49.0,109.5,55.5,101.5,62.5,93.5,69.5,85.5,77.0,77.5,84.5,69.0,92.5,60.5,100.0" stroke="black" stroke-width="2" fill="none" />
<path d="M52.5,101.5,60.5,94.5,68.5,87.5,76.5,80.0,84.5,72.5,92.5,64.5,100.5,57.0,109.0,49.5,117.0,42.5,125.0,35.0,133.0,26.5,141.0,18.5,148.5,10.5,156.0,3.0" stroke="black" stroke-width="2" fill="none" />
<path d="M146.0,4.5,138.0,12.0,130.0,20.0,122.0,27.5,114.0,34.5,106.0,42.0,98.0,49.5,90.0,57.0,81.5,64.5,73.5,72.0,65.5,79.5,57.5,87.0,50.0,95.0,42.5,102.5,35.5,110.0" stroke="black" stroke-width="2" fill="none" />
<path d="M28.0,108.5,36.5,101.0,44.5,93.5,52.5,86.0,60.0,78.5,68.5,71.0,76.5,63.0,84.0,55.5,92.0,48.0,100.0,40.5,108.5,32.5,117.0,24.5,125.5,17.0,133.5,9.0,141.5,2.0" stroke="black" stroke-width="2" fill="none" />
<path d="M133.0,4.0,124.5,11.5,116.5,18.0,108.0,25.0,100.5,32.5,92.0,39.5,84.0,47.5,76.0,55.5,68.0,64.0,60.0,72.0,52.0,80.0,43.5,88.0,36.0,95.5,27.5,103.0,18.5,110.0" stroke="black" stroke-width="2" fill="none" />
<path d="M12.0,108.0,20.0,100.0,28.0,92.0,35.5,84.0,43.0,76.5,51.0,69.5,58.5,62.0,66.0,55.5,73.5,48.5,81.5,41.5,89.5,33.5,97.5,26.0,105.5,18.0,114.0,11.0,122.0,3.5" stroke="black" stroke-width="2" fill="none" />
<path d="M116.0,2.5,108.0,10.0,100.0,17.5,91.5,25.0,83.0,32.0,75.0,39.5,67.0,47.0,59.5,55.0,51.5,63.0,44.0,71.0,36.0,79.0,28.0,86.0,20.5,93.0,12.5,100.0,4.5,107.0" stroke="black" stroke-width="2" fill="none" />
<path d="M1.5,109.0,10.0,109.0,18.5,109.0,27.0,109.0,35.0,108.5,43.0,108.5,51.0,108.0,59.5,107.5,67.5,107.0,75.0,106.5,83.0,106.0,91.0,105.0,99.0,104.5,106.5,103.5,114.0,102.5,122.5,101.5,130.0,100.5,138.0,99.5,146.5,99.0,155.0,98.5,163.5,98.0,171.0,98.0,179.0,97.5,187.0,97.5,195.0,97.0,203.5,97.0,211.5,97.0,219.5,97.0,227.5,96.5,235.5,96.0,243.5,95.5,251.5,95.0,260.0,94.5,268.0,93.5,276.0,92.5,283.5,91.5,291.0,90.5,299.0,90.0,306.5,89.0,314.5,88.0,322.5,87.5,330.5,87.0,338.0,87.0,346.0,86.5,354.0,86.0,362.0,86.0,370.0,86.0,378.5,86.0,386.5,86.0,395.5,86.0,403.5,86.0,411.5,84.5,419.5,83.5,427.0,82.5,435.0,81.5,442.5,80.0,451.0,79.5,459.0,79.0,467.0,78.5,475.0,78.5,483.5,77.5,491.0,77.5,499.0,77.0,507.0,76.5,515.0,76.0" stroke="black" stroke-width="2" fill="none" />
<path d="M516.5,16.0,508.5,16.0,500.0,16.5,492.0,16.5" stroke="black" stroke-width="2" fill="none" />
<path d="M469.0,27.0,476.5,26.0,484.5,25.5,492.0,24.5,500.5,24.0,509.0,23.5,517.0,22.5" stroke="black" stroke-width="2" fill="none" />
<path d="M515.5,29.5,507.5,30.0,499.5,31.0,492.0,31.5,484.0,32.0,476.0,31.5,468.0,31.5,460.0,32.0,451.5,32.5" stroke="black" stroke-width="2" fill="none" />
<path d="M426.5,39.5,434.5,39.5,442.5,39.5,451.0,39.5,459.5,39.0,468.0,38.5,476.5,38.5,484.5,38.0,493.0,38.0,500.5,37.5,509.0,37.0,516.5,36.0" stroke="black" stroke-width="2" fill="none" />
<path d="M517.0,68.0,509.5,68.0,501.5,68.5,493.0,69.5,484.5,70.5,476.0,71.5,467.5,72.0,459.5,72.5,451.0,73.5,442.5,74.0" stroke="black" stroke-width="2" fill="none" />
<path d="M426.0,73.0,418.0,73.0,409.5,74.0" stroke="black" stroke-width="2" fill="none" />
<path d="M387.0,66.0,395.5,65.5,403.5,64.5,411.5,64.0,418.5,63.5,426.5,63.0,434.5,62.5,443.0,62.0,451.0,62.0,458.5,62.0,466.5,61.0,474.5,60.5,482.5,59.5,490.0,59.0,498.0,58.5,506.0,58.5,514.0,57.5" stroke="black" stroke-width="2" fill="none" />
<path d="M516.5,42.5,509.0,42.5,501.0,43.0,493.0,44.0,484.5,44.5,476.0,45.0,468.5,45.5,460.0,46.0,451.5,46.5,443.0,47.0,434.5,48.0,426.5,48.5,418.5,48.5,410.5,48.5,403.0,49.0,395.5,49.5" stroke="black" stroke-width="2" fill="none" />
<path d="M380.5,57.5,388.0,57.5,396.0,57.5,404.5,57.5,412.5,57.0,420.5,57.0,428.5,56.0,436.0,55.5,443.5,54.5,452.0,54.0,460.0,53.5,468.0,53.0,476.0,52.5,484.0,52.0,491.5,51.5,499.5,51.0,507.0,50.0,515.0,48.5" stroke="black" stroke-width="2" fill="none" />
<path d="M516.5,109.0,508.5,109.5,500.5,110.0,492.0,110.5,484.5,111.0,476.5,111.0,468.0,111.5,460.0,112.0,452.0,112.5,444.5,112.5,437.0,112.5,429.5,113.0,421.5,113.0,413.5,114.0,405.5,114.5,398.0,115.0,390.0,115.5,381.5,116.5,373.0,117.5,365.5,118.0,357.0,118.5,348.5,119.0,340.0,119.5,332.5,120.0,324.5,120.5,316.5,121.0,308.0,121.0,300.0,122.0,292.5,122.5,283.5,123.5,275.5,124.5,267.0,125.5,258.0,126.0,250.0,126.5" stroke="black" stroke-width="2" fill="none" />
<path d="M260.0,132.0,268.0,132.0" stroke="black" stroke-width="2" fill="none" />
<path d="M275.5,157.0,267.0,157.5,258.5,158.5,250.5,159.0" stroke="black" stroke-width="2" fill="none" />
<path d="M251.5,163.5,243.5,171.0,235.0,179.0" stroke="black" stroke-width="2" fill="none" />
<path d="M234.5,175.5,242.5,174.5,250.5,174.0,258.5,173.0,266.0,172.5,273.5,172.0" stroke="black" stroke-width="2" fill="none" />
<path d="M276.0,160.5,268.5,160.5,260.0,161.5,252.0,161.5,243.5,162.0,235.0,163.0,227.0,163.5,219.0,164.0,211.0,164.5,203.0,165.0,195.5,166.0,188.0,166.5" stroke="black" stroke-width="2" fill="none" />
<path d="M189.5,172.5,181.5,180.0,173.0,187.0,164.5,194.5" stroke="black" stroke-width="2" fill="none" />
<path d="M156.5,193.0,164.0,185.0,171.5,177.0,179.5,169.0" stroke="black" stroke-width="2" fill="none" />
<path d="M171.5,171.5,163.0,179.0,155.0,186.0" stroke="black" stroke-width="2" fill="none" />
<path d="M155.5,185.5,163.5,185.0,171.0,185.0,179.0,185.0,187.0,185.0" stroke="black" stroke-width="2" fill="none" />
<path d="M166.5,171.5,158.5,179.0,150.0,187.0" stroke="black" stroke-width="2" fill="none" />
<path d="M149.5,190.5,157.5,190.0,165.5,189.0,173.0,188.0,180.5,187.5,188.5,186.5,196.5,186.5,204.5,186.0" stroke="black" stroke-width="2" fill="none" />
<path d="M156.0,171.0,148.5,179.0" stroke="black" stroke-width="2" fill="none" />
<path d="M148.0,171.0,140.0,179.0" stroke="black" stroke-width="2" fill="none" />
<path d="M140.5,181.0,148.5,180.5,156.5,180.0,164.5,180.0,172.5,180.0,180.0,179.5,187.5,179.0,195.5,178.5,204.0,177.5,212.5,176.5" stroke="black" stroke-width="2" fill="none" />
<path d="M234.5,117.0,243.0,116.5,251.5,116.0,260.0,115.0,268.0,114.5,275.5,114.0,283.5,113.5,291.5,113.0,299.0,113.0,306.5,113.0,314.5,113.0,322.5,112.0,330.5,111.5,339.0,110.5,347.0,110.0,355.0,109.0,363.0,109.0,371.0,109.0,379.5,109.0,388.0,109.0,396.5,108.0,404.0,107.5,412.0,107.0,419.5,106.0,427.5,105.0,436.0,104.5,443.5,104.0,451.5,104.0,459.5,103.5,467.0,103.0,475.0,103.0,483.5,102.0,491.5,101.5,499.5,101.5,507.0,101.0,514.5,100.0" stroke="black" stroke-width="2" fill="none" />
<path d="M516.0,69.5,508.0,70.0,500.0,70.5,491.5,71.5,483.5,72.0,475.5,72.5,467.0,73.0,459.0,73.0,451.0,74.0,443.0,74.5,435.0,75.0,427.0,75.5,419.5,76.0,411.5,76.5,404.0,77.0,395.5,77.0,387.0,77.0,379.0,77.0,371.5,77.5,363.5,77.5,355.5,78.0,347.0,79.5,339.0,80.5,331.0,81.0,323.0,81.5,315.0,82.0,307.5,82.0,300.0,83.0,292.0,83.5,284.5,85.0,276.5,85.5,268.5,86.0,260.5,86.5,252.0,87.0,243.5,87.0,235.5,87.5,228.0,88.0,220.0,89.0,212.0,89.5,204.0,90.0,195.5,90.0,187.0,90.0,179.0,90.0,170.5,89.5,162.5,90.0,154.5,90.5,146.0,91.5,138.5,93.0,131.0,94.0,123.5,95.0,115.5,96.0,107.5,96.5,100.0,97.5,92.0,98.5,84.0,99.0,76.0,99.0,68.0,99.5,60.0,100.0,51.5,100.5,43.5,100.5,35.0,100.5,27.0,100.5,18.5,100.5,10.5,100.5,3.0,101.0" stroke="black" stroke-width="2" fill="none" />
<path d="M3.0,100.5,11.0,93.5,19.0,86.0,27.0,78.5,35.0,71.0,43.5,63.0,52.0,56.0,60.0,48.5,68.5,42.0,76.5,34.5,84.5,27.0,92.5,19.5,100.0,12.0,107.5,4.0" stroke="black" stroke-width="2" fill="none" />
<path d="M100.0,4.0,92.5,11.5,85.0,19.0,77.0,26.0,69.0,33.5,60.5,41.5,53.0,48.5,44.5,56.0,36.5,64.0,28.0,71.5,19.5,79.0,11.5,86.5,4.0,93.5" stroke="black" stroke-width="2" fill="none" />
<path d="M2.0,92.5,10.5,92.5,18.5,92.5,27.0,92.0,35.5,92.0,44.0,91.5,52.5,92.0,61.0,92.0,69.5,92.0,77.5,91.5,85.5,90.5,93.5,90.5,101.0,89.5,109.0,89.0,116.5,88.0,123.5,87.0,131.5,86.5,139.5,85.5,147.0,85.0,154.0,84.5,161.5,84.0,170.0,83.0,178.0,83.0,186.5,82.5,195.5,82.0,204.0,81.5,212.0,81.5,220.0,80.5,228.0,79.5,236.0,79.0,244.0,78.0,251.5,78.0,260.0,77.5,268.5,77.0,276.5,76.5,285.0,76.0,293.5,76.0,302.0,75.5,310.0,75.0,318.0,75.0,325.5,74.5,333.5,74.0,341.0,73.0,348.5,72.5,356.5,72.5,364.0,71.5,372.0,70.5,380.5,70.0,388.5,69.0,397.0,68.5,405.0,68.0,413.0,67.5,420.5,67.5,428.5,67.0,436.5,67.0,444.5,67.0,452.0,66.5,459.5,66.0,467.0,65.5,475.0,64.5,482.5,63.5,491.5,63.0,500.0,62.5,508.0,62.0,515.5,61.5" stroke="black" stroke-width="2" fill="none" />
<path d="M515.5,53.0,507.5,53.5,499.5,54.0,491.0,54.5,482.5,55.5,475.0,55.5,467.0,56.5,459.0,57.5,451.5,58.0,444.0,59.0,436.0,60.0,427.5,60.0,419.5,61.0,412.0,62.0,404.0,62.5,396.0,63.0,388.5,63.0,381.0,63.5,372.5,64.0,364.5,64.0,355.5,64.5,347.0,65.0,339.0,65.5,331.0,65.5,323.5,66.0,315.0,66.5,306.5,67.0,298.5,67.0,290.0,67.5,282.0,68.5,274.0,68.5,266.0,69.0,258.5,69.5,250.5,70.5,242.5,71.0,234.5,72.0,227.0,72.0,219.0,72.0,210.5,72.5,202.5,73.0,194.5,73.5,187.5,74.0,179.5,74.5,171.5,75.5,163.0,76.0,155.5,76.0,147.5,76.5,139.5,77.5,131.5,78.0,123.5,79.0,115.5,80.0,107.5,80.5,99.5,81.5,91.5,82.5,83.5,83.0,75.5,83.5,67.5,83.0,59.0,83.5,50.0,84.0,42.0,84.5,34.0,84.5,26.0,84.5,18.5,84.5,10.5,85.5,3.0,86.0" stroke="black" stroke-width="2" fill="none" />
<path d="M3.5,84.0,11.5,76.0,19.5,69.0,27.0,62.5,35.0,55.5,43.0,49.0,51.5,42.0,59.5,34.5,68.0,27.0,76.0,19.5,84.0,12.0,92.0,4.5" stroke="black" stroke-width="2" fill="none" />
<path d="M85.5,5.5,77.0,13.0,69.0,19.5,60.5,26.5,52.0,33.5,43.5,40.5,35.5,48.0,28.0,55.0,20.0,62.5,12.0,70.0,4.0,77.5" stroke="black" stroke-width="2" fill="none" />
<path d="M4.5,79.5,12.5,78.5,21.0,78.5,29.5,78.0,37.5,77.0,45.5,76.5,53.5,75.5,61.5,74.5,69.0,73.5,77.0,72.0,85.0,71.5,93.5,71.0,101.5,71.0,109.0,70.5,117.0,69.5,125.0,69.5,132.5,69.0,141.0,69.0,149.0,69.0,157.5,69.0,165.5,68.5,173.5,68.0,181.5,67.5,190.0,67.0,197.5,67.0,206.0,67.0,213.5,66.5,221.0,66.5,228.5,66.0,236.0,65.0,244.0,64.5,252.0,64.0,259.5,63.0,267.5,62.0,276.0,61.0,283.5,59.5,291.5,58.5,299.0,58.0,307.0,57.0,315.5,56.5,323.5,56.0,331.5,56.0,340.0,56.0,348.5,55.0,357.0,54.0,365.0,53.5,373.0,53.5,381.5,53.0,389.5,52.5,398.0,51.5,406.0,50.5,414.0,50.0,421.5,49.5,429.5,49.0,437.5,48.5,445.0,48.5,453.0,48.5,461.0,48.5,469.0,48.5,477.0,48.5,485.0,48.0,493.0,47.5,501.0,47.0,509.0,46.5,516.5,46.5" stroke="black" stroke-width="2" fill="none" />
<path d="M515.0,37.5,506.5,38.0,498.0,39.0,489.0,39.5,481.0,40.0,473.5,40.5,466.0,41.5,458.5,42.0,450.5,42.5,443.0,43.0,435.0,43.5,427.0,44.5,419.0,45.5,410.5,46.0,402.5,47.0,395.0,47.5,387.0,47.0,379.0,46.5,371.0,46.5,363.0,47.0,355.5,47.0,347.0,47.5,339.0,48.0,331.0,49.0,323.5,49.5,315.5,49.5,307.5,49.5,300.0,50.0,292.5,51.0,284.5,52.0,277.0,53.0,268.5,53.5,260.5,54.5,252.5,55.0,244.5,55.5,236.5,55.5,228.0,56.0,219.5,57.0,211.5,58.0,203.0,59.0,195.0,59.5,187.0,59.5,178.5,59.5,170.0,60.0,162.0,60.0,154.0,61.0,146.5,61.5,139.0,62.0,130.5,62.0,122.5,62.5,114.5,62.5,106.0,62.5,97.5,62.5,89.5,62.5,81.5,63.0,73.5,64.0,65.0,65.0,57.0,66.0,49.0,67.0,41.5,68.0,33.0,68.0,25.5,68.0,18.0,68.0,11.0,68.0,3.0,69.0" stroke="black" stroke-width="2" fill="none" />
<path d="M3.5,70.5,11.5,62.5,20.0,55.0,28.5,48.0,36.5,41.0,45.0,34.0,52.5,26.5,60.5,19.5,68.5,12.0,76.5,4.5" stroke="black" stroke-width="2" fill="none" />
<path d="M65.5,3.5,58.0,11.0,50.5,18.0,43.0,26.0,34.5,33.5,27.5,41.0,19.5,48.5,12.0,56.5,4.0,64.5" stroke="black" stroke-width="2" fill="none" />
<path d="M2.5,64.0,10.5,63.5,19.0,63.5,27.0,63.0,34.5,62.5,42.5,62.0,51.0,61.5,59.0,61.5,67.5,61.5,75.5,61.0,83.5,60.5,91.5,60.0,99.0,60.0,107.0,60.0,115.0,60.0,123.5,59.5,131.5,59.0,140.5,58.5,149.0,57.5,157.0,57.0,164.5,56.5" stroke="black" stroke-width="2" fill="none" />
<path d="M130.5,110.5,122.5,111.0,114.0,111.5,106.5,111.5,99.0,112.0,91.5,112.5,84.0,113.5,76.0,114.0,67.5,114.5,59.5,115.0,51.0,116.0,43.0,116.0,35.0,117.0,26.5,117.0,18.5,117.5,10.0,118.0,2.0,119.0" stroke="black" stroke-width="2" fill="none" />
<path d="M4.0,129.0,12.0,128.0,19.5,127.5,27.0,126.5,35.0,125.0,43.0,124.0,51.0,122.5,59.0,121.5,66.5,120.5,75.0,119.5,83.0,119.0,91.0,118.5,99.0,118.0,107.5,118.0" stroke="black" stroke-width="2" fill="none" />
<path d="M119.5,124.5,99.5,132.5,89.5,140.0,85.5,148.0,88.0,156.0,102.0,164.0,109.5,172.0,111.0,179.5,111.5,187.5,112.5,195.5,114.5,203.5,124.5,211.5" stroke="black" stroke-width="2" fill="none" />
<path d="M124.5,211.0,116.0,219.0" stroke="black" stroke-width="2" fill="none" />
<path d="M131.0,219.0,139.0,212.0" stroke="black" stroke-width="2" fill="none" />
<path d="M132.5,211.0,124.5,218.0" stroke="black" stroke-width="2" fill="none" />
<path d="M114.5,211.0,122.5,203.0" stroke="black" stroke-width="2" fill="none" />
<path d="M116.5,204.0,108.0,211.5,100.0,219.0" stroke="black" stroke-width="2" fill="none" />
<path d="M92.0,218.5,100.5,210.5,108.5,202.0,117.0,194.5" stroke="black" stroke-width="2" fill="none" />
<path d="M116.0,196.5,108.0,197.5,100.5,198.0,92.5,199.5,85.0,200.0,77.5,201.0,69.5,202.0,61.5,202.5,53.5,203.5" stroke="black" stroke-width="2" fill="none" />
<path d="M59.0,207.5,67.5,200.5,76.0,193.5,84.0,186.5,92.0,179.5,99.5,172.0,107.5,164.5" stroke="black" stroke-width="2" fill="none" />
<path d="M112.0,169.0,120.0,171.5,128.0,175.5,136.0,178.0" stroke="black" stroke-width="2" fill="none" />
<path d="M139.5,176.0,148.0,176.0,156.0,175.5,164.0,175.0,172.0,175.0,179.5,174.0,187.5,174.0,194.5,173.5,202.0,173.0,209.5,173.0" stroke="black" stroke-width="2" fill="none" />
<path d="M140.0,169.0,132.0,177.0" stroke="black" stroke-width="2" fill="none" />
<path d="M124.5,174.0,132.5,173.5,140.5,173.5,148.0,172.5,156.0,171.5,163.5,170.5,171.5,170.0,179.5,169.5,187.0,169.0,195.5,168.5,203.5,168.0,211.5,167.5,219.5,167.0,227.0,166.5,235.0,166.0,243.0,165.5,251.5,165.0,259.5,165.0,268.0,165.0,276.0,164.5,283.5,164.0" stroke="black" stroke-width="2" fill="none" />
<path d="M300.5,149.0,284.5,157.0,279.0,165.0,278.0,173.5,284.0,181.5,299.0,189.5,303.5,197.0,304.5,205.5,305.0,213.5,304.5,221.0,305.5,229.0,309.5,237.0,322.0,244.5" stroke="black" stroke-width="2" fill="none" />
<path d="M117.5,186.5,109.0,194.5,101.0,202.0,93.0,209.5,85.5,217.0" stroke="black" stroke-width="2" fill="none" />
<path d="M76.0,217.0,84.0,209.5,92.0,201.5,100.0,193.5,108.0,186.0" stroke="black" stroke-width="2" fill="none" />
<path d="M108.5,179.0,101.5,186.5,93.5,194.0,85.5,201.5,77.0,209.0" stroke="black" stroke-width="2" fill="none" />
<path d="M69.0,208.0,76.5,201.0,84.5,193.5,92.5,186.5,100.5,179.0,109.0,172.0" stroke="black" stroke-width="2" fill="none" />
<path d="M108.0,175.0,100.0,176.0,92.0,176.5,84.0,177.5,76.0,178.0,68.0,179.0" stroke="black" stroke-width="2" fill="none" />
<path d="M67.0,172.0,59.0,179.5,51.0,187.5,43.5,195.0,36.5,203.0" stroke="black" stroke-width="2" fill="none" />
<path d="M42.0,208.5,50.0,201.5,58.0,193.5,66.0,186.0,74.5,178.5,82.5,171.5,90.5,164.0" stroke="black" stroke-width="2" fill="none" />
<path d="M84.0,165.5,76.0,173.0,67.5,180.0,59.5,187.0,52.0,194.0,43.5,200.5" stroke="black" stroke-width="2" fill="none" />
<path d="M35.0,194.5,43.0,186.5,51.0,178.5,59.0,171.0" stroke="black" stroke-width="2" fill="none" />
<path d="M52.0,185.5,60.5,185.5,68.5,185.5,76.0,185.5,84.0,184.5,92.0,184.0,99.5,184.0,107.0,183.5" stroke="black" stroke-width="2" fill="none" />
<path d="M107.5,191.0,99.5,191.5,92.0,192.5,84.0,192.5,76.5,193.5,68.5,194.0,60.5,194.5,52.5,195.0" stroke="black" stroke-width="2" fill="none" />
<path d="M53.5,209.0,61.0,201.0,68.5,193.5,76.5,186.0,84.0,178.5,91.5,171.0,100.0,163.0" stroke="black" stroke-width="2" fill="none" />
<path d="M114.0,163.5,106.5,164.0,98.5,165.0,90.5,165.5,82.5,166.5,74.5,166.5,66.0,167.0,58.0,167.5,49.5,168.0,42.0,169.0,33.5,169.5,25.0,171.5,17.0,172.5,9.0,174.0,1.0,174.5" stroke="black" stroke-width="2" fill="none" />
<path d="M2.5,180.5,10.5,180.5,19.0,180.0,27.5,179.5,35.5,179.0,43.5,178.0,51.5,178.0,59.5,177.0,67.0,176.5,75.0,176.0,82.5,175.5,90.5,175.5,99.0,175.0,107.5,175.0,116.0,174.5" stroke="black" stroke-width="2" fill="none" />
<path d="M121.5,171.0,131.5,181.0" stroke="black" stroke-width="2" fill="none" />
<path d="M123.0,199.5,114.5,200.5,106.5,201.5,98.5,202.0,90.5,203.0,82.5,203.5,75.0,204.0,67.5,204.5,60.5,205.0,53.0,205.0,45.0,205.0,37.0,205.0,29.0,206.0,21.0,206.5" stroke="black" stroke-width="2" fill="none" />
<path d="M13.5,197.0,21.0,197.0,28.5,196.5,36.0,196.0,43.5,196.0,51.0,196.0,58.5,195.5,65.5,195.0,73.0,194.0,81.0,193.5,89.0,193.0,97.0,192.5,106.0,192.0,114.5,191.0" stroke="black" stroke-width="2" fill="none" />
<path d="M115.5,183.5,107.0,183.0,98.5,183.0,90.5,183.5,82.5,184.0,74.5,184.0,67.0,185.0,59.0,185.5,51.0,186.0,42.5,186.5,35.0,187.0,27.0,188.5,19.5,189.5,12.0,190.0,4.0,191.5" stroke="black" stroke-width="2" fill="none" />
<path d="M1.5,164.5,9.5,163.5,18.0,163.5,26.5,163.0,34.5,163.0,42.5,162.0,50.5,161.5,58.5,161.0,66.5,161.0,74.5,160.5,82.5,160.0,91.0,159.5,99.5,159.0,108.0,158.0" stroke="black" stroke-width="2" fill="none" />
<path d="M91.0,151.0,83.0,151.0,75.5,152.0,68.0,152.0,60.0,153.0,52.0,154.0,44.0,155.0,35.5,155.5,27.0,155.0,18.5,155.0,10.0,156.0,2.0,157.0" stroke="black" stroke-width="2" fill="none" />
<path d="M1.5,149.0,10.0,148.5,18.5,148.0,26.5,147.5,35.0,147.0,43.0,147.0,51.5,146.0,60.0,145.5,68.0,145.5,76.0,145.5,83.5,145.0" stroke="black" stroke-width="2" fill="none" />
<path d="M84.0,146.0,92.0,135.5,100.0,130.5,108.0,127.5,116.5,125.0,124.5,123.0,132.5,121.5,140.5,121.0,148.5,119.0,157.0,118.0,164.5,118.0,173.0,117.0,180.5,117.0,188.5,117.0,196.5,118.0,204.5,118.0,212.0,119.0,220.0,119.5,228.0,121.5,236.0,123.5,244.0,127.5,252.0,132.5" stroke="black" stroke-width="2" fill="none" />
<path d="M308.5,195.5,301.0,195.5,293.5,196.0,285.5,196.0,277.5,197.0,269.5,197.5,262.0,198.0,254.0,198.5,245.5,199.5,237.0,200.5,229.5,201.0,221.0,201.5,212.5,202.0,204.0,202.5,196.5,203.0,188.5,203.5,180.5,204.0,172.0,204.0,164.0,205.0,156.5,205.5,147.5,206.5,139.5,207.5,131.0,208.5,122.0,209.0,114.0,209.5,106.0,210.0,98.5,210.5,91.0,211.5,84.0,212.0,76.5,212.0,68.0,212.5,60.0,213.0,52.0,213.5,44.5,213.0,36.5,213.5" stroke="black" stroke-width="2" fill="none" />
<path d="M61.0,211.0,69.0,211.0,77.0,210.0,85.5,209.5,93.5,209.0,101.5,208.0,109.0,207.0,116.0,206.0" stroke="black" stroke-width="2" fill="none" />
<path d="M113.5,200.0,121.5,209.0,129.5,213.0,138.0,215.5,146.0,217.5,154.5,218.0,162.5,218.0,170.5,218.0,178.5,217.0,186.5,216.0,194.5,215.0,202.5,213.0,210.5,208.5,218.5,202.5,226.5,195.5" stroke="black" stroke-width="2" fill="none" />
<path d="M157.0,66.0,148.5,66.5,140.0,66.5,132.0,66.5,124.0,66.5,116.0,67.0,108.0,67.0,100.5,67.0,93.0,67.5,84.5,67.5,76.5,68.5,68.5,69.0,60.0,69.0,51.5,69.5,43.5,69.5,35.5,70.5,27.0,71.0,19.5,71.5,12.0,72.0,4.0,73.0" stroke="black" stroke-width="2" fill="none" />
<path d="M3.0,80.5,11.5,80.0,19.5,80.0,28.0,80.0,36.5,79.5,44.5,78.5,52.5,78.5,60.5,78.0,68.0,77.5,76.0,77.5,84.0,77.5,91.5,77.0,99.0,76.0,107.0,75.5,115.0,75.0,123.0,74.5" stroke="black" stroke-width="2" fill="none" />
<path d="M84.5,136.5,76.0,137.5,68.0,138.0,59.5,138.5,51.0,139.0,43.0,139.0,34.5,139.5,26.5,140.5,19.0,141.5,11.5,142.0,4.0,142.0" stroke="black" stroke-width="2" fill="none" />
<path d="M4.0,136.5,12.0,135.5,20.0,134.5,27.5,134.0,35.0,133.0,43.5,132.0,51.0,131.5,59.5,130.5,67.5,130.0,75.5,128.5,83.0,127.5,91.5,127.0" stroke="black" stroke-width="2" fill="none" />
<path d="M84.0,153.0,92.0,161.0,100.5,165.0,109.0,168.0,116.5,167.5,124.5,170.0,133.0,170.0,141.5,171.5,150.0,171.5,158.0,171.5,166.0,171.5,174.5,170.0,182.5,170.0,190.5,168.5,198.0,167.5,206.0,165.5,214.0,164.0,221.5,162.0,229.5,158.5,237.0,155.5,245.5,150.5,253.5,143.5" stroke="black" stroke-width="2" fill="none" />
<path d="M67.5,87.5,59.5,87.5,51.0,87.5,43.0,87.5,35.0,87.5,26.5,87.5,18.5,88.0,11.0,89.0,3.0,89.5" stroke="black" stroke-width="2" fill="none" />
<path d="M3.5,62.0,12.0,61.5,19.5,60.5,27.5,60.0,36.0,60.0,44.0,59.5,52.5,59.0,60.5,58.0,69.0,57.5,77.5,58.0,85.5,57.5,93.5,57.0,101.5,56.0,109.0,55.0,116.5,54.5,124.5,53.5,132.5,53.5,140.5,53.0,148.5,52.5,157.0,52.0,165.5,52.0,173.5,51.5,180.5,51.0,188.0,50.5,195.5,49.5,202.5,49.5,210.0,49.0,218.0,48.5,226.0,48.0,233.5,47.5,241.5,46.5,250.0,46.0,258.5,45.0,267.0,45.0,274.5,44.5,283.5,44.0,291.5,43.5,300.0,43.5,308.0,43.5,316.5,43.0,324.5,42.5,332.5,41.5,340.5,41.0,349.0,40.0,357.0,39.0,365.0,38.0,373.0,38.0,380.5,38.0,388.5,38.0,396.5,37.5,404.5,37.5,412.5,36.5,421.0,36.0,428.5,35.5,436.0,35.0,443.5,34.5,451.0,34.5,459.5,34.0,467.0,33.5,475.0,33.0,483.0,33.0,491.0,32.5,499.5,31.5,507.5,30.5,516.5,30.5" stroke="black" stroke-width="2" fill="none" />
<path d="M59.0,4.5,50.5,12.5,43.0,20.0,35.5,27.0,28.5,34.0,20.5,41.5,12.5,49.0,4.5,56.5" stroke="black" stroke-width="2" fill="none" />
<path d="M4.0,55.0,12.0,54.5,20.5,53.0,29.0,52.0,37.0,51.0,45.0,50.0,53.0,49.5,60.5,49.0,68.0,48.5,75.5,47.5,83.5,47.0,92.0,47.0,100.0,46.5,108.0,46.0,116.0,46.0,123.5,45.0,131.5,45.0,138.5,44.5,146.0,44.0,153.5,44.0,161.0,43.5,169.5,43.0,177.5,43.0,186.0,43.0,195.0,42.5,203.5,42.0,211.0,41.5,218.5,41.0,226.5,40.5,234.5,40.0,243.0,39.5,250.5,39.5,259.0,39.0,267.5,38.0,276.5,37.0,284.5,36.5,292.5,36.0,300.5,35.5,308.5,35.0,316.5,34.0,324.5,33.0,333.0,33.0,341.0,32.5,349.5,32.0,357.5,32.0,365.5,31.5,373.5,31.0,381.5,29.5,389.5,28.5,397.5,27.5,405.5,27.0,413.5,26.5,421.0,26.5,428.5,26.0,436.0,25.5,443.5,25.0,451.5,25.5,459.0,25.5,466.5,25.5,473.5,25.0,481.5,24.5,489.5,24.0,497.5,23.5,505.5,23.0,514.5,22.0" stroke="black" stroke-width="2" fill="none" />
<path d="M51.5,4.0,43.5,11.5,35.5,18.5,27.5,26.0,19.5,33.0,11.5,41.0,4.0,48.0" stroke="black" stroke-width="2" fill="none" />
<path d="M2.5,50.0,11.0,49.5,19.5,49.0,28.0,48.5,36.5,48.5,44.5,48.0,53.0,47.5,61.0,46.5,68.5,46.0,76.5,46.0,84.5,45.0,92.5,44.5,100.5,44.5,108.0,43.5,116.0,42.5,123.5,41.5,131.5,41.0,139.5,40.5" stroke="black" stroke-width="2" fill="none" />
<path d="M43.0,5.5,35.0,12.5,27.0,20.0,19.5,27.0,11.5,34.0,3.5,41.5" stroke="black" stroke-width="2" fill="none" />
<path d="M3.0,41.5,11.0,41.5,19.0,41.5,27.0,41.0,35.0,40.5,42.5,40.0,51.0,39.5,59.5,39.0,68.0,39.0,76.5,39.0,85.0,38.0,93.0,38.0,101.0,37.0,109.5,36.5,117.5,36.0,125.5,35.0" stroke="black" stroke-width="2" fill="none" />
<path d="M36.0,4.0,28.5,11.5,20.5,19.5,12.0,27.0,3.5,34.5" stroke="black" stroke-width="2" fill="none" />
<path d="M3.5,33.5,11.5,32.5,19.5,31.5,27.5,31.0,36.0,31.0,44.5,31.0,52.0,31.0,60.0,31.0,68.5,31.0,76.5,30.5,84.5,30.0,92.5,29.5,100.5,29.0" stroke="black" stroke-width="2" fill="none" />
<path d="M29.0,5.0,21.0,12.5,12.5,20.0,3.5,27.5" stroke="black" stroke-width="2" fill="none" />
<path d="M5.0,28.0,13.0,27.5,20.0,27.0,28.0,26.5,36.0,26.5,43.5,26.0,51.5,26.0,59.5,26.0,68.0,26.0,76.0,25.5,84.0,24.5,92.5,24.5,100.5,24.5,108.0,24.5,116.0,23.5,124.0,23.0,131.5,23.0,139.0,22.5,147.0,22.0,155.0,21.5,162.5,21.0,170.5,20.5,179.0,19.5,187.5,19.0,195.0,18.0,203.0,17.5,211.5,16.5,220.0,15.5,228.5,15.0,237.0,14.5,245.5,14.0,253.0,13.5,261.0,12.5,268.5,11.5,276.5,10.5,284.5,9.5,292.0,9.0,300.0,8.5,308.0,8.0,316.0,7.5,324.0,7.0,332.0,7.0,340.5,6.5,349.0,6.5,356.5,6.5,364.5,6.5,373.0,6.5,380.5,6.0,388.5,6.0,396.5,6.0,404.0,5.5,412.5,5.0,420.5,4.5,428.5,4.0,437.0,3.0,445.5,3.0,453.0,2.5,461.0,2.0,469.0,1.5,477.0,1.0,485.5,0.5,493.0,-0.5,500.5,-1.0,508.0,-1.5,515.5,-3.0" stroke="black" stroke-width="2" fill="none" />
<path d="M21.5,4.5,13.0,12.0,5.0,19.0" stroke="black" stroke-width="2" fill="none" />
<path d="M5.5,19.5,13.5,19.0,21.5,19.0,29.5,19.5,38.0,19.5,46.5,19.0,54.0,19.0,61.5,18.5,69.5,18.0,77.0,18.0,85.0,17.5,93.0,17.0,101.0,16.0,109.0,16.0,117.0,16.0,124.5,16.0,131.5,15.5,139.0,15.0,146.5,14.5,154.5,14.0,162.5,13.0,170.5,12.5,178.5,11.5,187.0,10.5,195.5,10.0,203.5,9.0,212.5,8.0,221.0,7.5,229.0,6.5,236.5,6.0,244.0,5.5,252.0,5.5,260.5,5.0,268.5,5.0,276.0,5.0,284.0,4.0,292.5,3.5,300.0,2.5,308.0,1.5,316.0,1.0,324.5,1.0,332.5,0.0,340.5,-0.5,349.0,-1.0,357.0,-1.0,365.0,-1.5,372.5,-1.5,379.5,-1.5,387.0,-1.5,395.0,-2.0,403.5,-3.0,411.5,-3.5,419.0,-4.0,426.5,-4.0,434.0,-4.0,441.5,-4.5,449.5,-5.0,457.0,-5.5,465.0,-6.0,473.5,-6.0,482.0,-6.0,489.5,-7.0,497.5,-8.0,506.0,-9.0,514.0,-10.0" stroke="black" stroke-width="2" fill="none" />
<path d="M165.0,47.0,156.5,47.5,148.0,48.5,139.5,49.5,131.5,50.0,124.0,50.5,116.5,51.0,108.5,51.0,100.5,51.0,92.5,51.5,84.5,52.0,76.5,52.5,68.5,53.0,60.0,53.5,51.5,54.0,43.0,54.5,35.0,55.0,28.0,56.0,20.5,56.5,13.0,57.5,5.0,58.0" stroke="black" stroke-width="2" fill="none" />
<path d="M2.5,45.0,10.5,44.5,19.0,44.5,27.5,44.5,35.5,44.5,44.0,44.5,52.5,44.0,60.0,43.5,68.0,43.0,76.0,42.5,84.0,42.0,92.0,41.0,100.0,40.5,108.0,39.5,116.0,39.0,124.0,38.0,132.0,37.5,140.0,36.5,148.0,36.0,156.0,35.5,164.0,35.0,172.5,35.0,180.5,34.0,188.5,33.5,196.5,32.5,204.5,32.0,212.0,32.5,220.0,32.5,227.5,32.5,235.5,32.5,243.0,32.5,251.0,31.5,259.0,31.0,267.5,30.0,275.5,29.0,283.5,28.5,292.0,28.0,300.5,27.0,308.5,26.0,316.5,25.5,324.0,25.0,332.5,24.5,341.0,24.5,349.0,24.5,357.0,25.0,365.0,24.5,373.0,23.5,380.5,23.0,388.5,22.5,396.5,22.5,404.5,22.0,412.5,21.5,420.5,20.5,428.5,19.5,436.5,18.5,444.5,17.5,452.5,17.0,461.0,16.5,469.0,16.0,477.0,15.5,485.0,14.5,492.5,14.0,500.5,13.5,508.0,13.0,515.5,13.0" stroke="black" stroke-width="2" fill="none" />
<path d="M515.0,5.0,507.0,5.0,499.0,5.0,491.5,5.5,483.5,6.0,475.5,7.0,468.0,8.0,460.0,9.0,452.0,10.5,444.0,11.5,435.5,12.0,426.5,12.5,418.0,13.0,409.5,13.0,401.5,13.5,393.5,14.0,385.5,14.5,378.0,15.0,370.0,15.5,362.0,16.0,354.0,16.5,346.0,17.5,338.0,18.0,330.0,18.0,322.0,18.5,314.5,19.5,306.5,20.0,298.5,20.5,290.5,21.0,282.5,21.0,275.0,22.0,267.5,22.5,260.5,23.0,253.0,23.5,245.0,24.0,237.0,24.5,229.0,25.0,221.0,25.0,213.5,25.5,205.5,25.5,197.0,25.5,188.0,25.5,180.0,25.5,172.0,26.0,164.0,26.0,155.5,26.5,148.0,27.5,140.0,28.5,132.5,29.0,124.5,30.5,117.0,31.0,109.5,32.0,101.5,33.0,93.5,33.5,85.5,34.5,77.5,35.0,69.0,35.5,60.5,36.0,51.5,36.0,43.0,36.5,35.0,36.5,27.0,37.5,18.5,38.0,10.0,38.5,2.0,39.0" stroke="black" stroke-width="2" fill="none" />
<path d="M4.5,24.5,12.5,24.0,21.0,24.0,29.5,23.5,37.5,23.5,45.5,23.0,53.0,22.5,61.0,22.0,68.5,21.5,76.5,21.0" stroke="black" stroke-width="2" fill="none" />
<path d="M13.5,3.0,5.0,10.5" stroke="black" stroke-width="2" fill="none" />
<path d="M5.5,10.0,14.0,9.5,22.0,8.5,29.5,8.0" stroke="black" stroke-width="2" fill="none" />
<path d="M53.0,13.5,45.0,14.0,37.0,14.5,28.5,15.0,20.5,16.0,12.0,16.5,4.0,17.5" stroke="black" stroke-width="2" fill="none" />
<path d="M4.0,14.5,12.0,14.5,21.0,14.5,29.0,14.0,36.5,13.5,45.0,13.0,52.5,12.5,60.5,12.0,68.5,11.5,76.5,11.0,84.0,10.5,92.0,9.0,99.5,8.5,107.0,7.5,115.0,6.0,122.5,5.5,131.0,5.0,139.0,4.5,147.0,4.0,154.5,3.0,162.5,3.0,170.5,2.5,178.5,2.0,187.0,2.0,195.5,2.5,204.0,2.0,212.0,1.5,220.5,1.0,228.5,1.0,236.5,1.0,245.0,0.5,253.0,0.0,260.5,-0.5,268.0,-1.5,275.5,-2.5,284.0,-3.0,292.0,-4.0,300.0,-4.5,308.0,-5.5,316.5,-6.0,324.5,-7.0,332.0,-7.0,340.0,-7.5,347.5,-7.5,355.5,-7.5,363.5,-8.0,371.0,-8.0,379.5,-8.0,388.0,-8.5,396.0,-9.5,404.0,-10.0,412.0,-10.5,420.0,-10.5,428.0,-11.5,436.0,-12.0,444.5,-13.0,452.5,-13.5,460.5,-14.0,468.0,-15.0,476.0,-15.5,484.0,-16.0,492.5,-16.0,500.0,-16.5,508.0,-17.0,516.0,-17.0" stroke="black" stroke-width="2" fill="none" />
<path d="M514.5,-29.0,507.0,-28.5,499.5,-27.5,492.0,-27.0,484.5,-26.5,476.5,-26.0,468.5,-25.0,460.5,-24.0,452.0,-23.5,444.0,-22.5,436.0,-22.0,428.0,-22.0,420.0,-22.0,411.5,-22.0,403.0,-21.5,395.0,-20.5,386.5,-20.0,378.0,-18.5,369.5,-17.5,361.5,-16.5,353.5,-16.5,345.5,-16.0,337.5,-16.0,330.0,-15.0,322.0,-14.5,314.0,-14.0,305.5,-13.5,297.5,-13.0,289.5,-13.0,281.5,-13.0,273.5,-13.0,265.5,-12.5,257.5,-12.0,249.5,-11.5,241.5,-11.0,234.0,-10.5,226.5,-10.5,218.5,-10.5,210.0,-10.5,201.5,-10.0,194.0,-9.5,186.5,-9.0,178.5,-8.0,170.5,-7.5,162.5,-6.5,154.5,-6.5,146.0,-6.0,138.0,-5.5,129.5,-5.0,122.0,-4.0,113.5,-3.5,105.0,-1.5,97.0,-0.5,89.0,1.0,81.0,1.5,73.0,2.0,65.5,2.0,58.0,2.0,51.5,2.0,44.5,3.0,36.5,3.5,28.5,3.5,21.0,4.0,13.0,4.0,5.0,4.5" stroke="black" stroke-width="2" fill="none" />
<path d="M73.0,220.5,81.0,221.5,88.5,221.5,96.5,217.5,104.5,216.5,112.0,216.5,120.0,218.0,128.0,221.0,136.5,222.5,144.5,223.5,152.5,224.0,160.5,224.5,168.5,225.0,176.5,225.0,184.5,225.0,192.5,224.0,200.0,223.0,208.0,223.0,216.0,224.0" stroke="black" stroke-width="2" fill="none" />
</svg>