<svg xmlns="http://www.w3.org/2000/svg" version="1.1"><path d="M194.0,122.5,194.0,126.5,198.0,127.5,208.0,132.0,208.5,140.0,209.5,148.0,208.0,150.0,208.0,158.0,212.5,161.5,214.5,174.5,205.5,182.0,204.5,189.5,201.5,192.0,203.5,194.5,209.5,196.0,213.0,197.0,223.0,201.5,227.0,209.5,233.0,204.5,235.5,201.5,241.5,191.0,249.5,187.5,258.5,192.5,266.5,187.5,270.0,197.5,271.0,192.0,276.0,198.5,284.5,195.5,292.5,198.0,300.0,200.0,306.0,192.5,314.0,193.5,321.0,190.0,328.0,191.0,336.0,193.0,346.0,184.5,346.0,193.0,337.0,201.0,329.0,209.0,331.0,217.0,336.0,226.0,334.0,230.0,333.0,238.0,333.5,243.0,328.5,251.0,327.0,259.5,326.0,267.0,333.0,274.5,333.5,273.0,338.5,266.0,346.0,258.0,346.0,266.0,351.5,267.0,352.5,263.5" stroke="black" stroke-width="2" fill="none" />
<path d="M348.5,266.5,351.5,258.0" stroke="black" stroke-width="2" fill="none" />
<path d="M348.5,257.5,356.5,257.0" stroke="black" stroke-width="2" fill="none" />
<path d="M360.0,261.5,360.0,267.5" stroke="black" stroke-width="2" fill="none" />
<path d="M362.0,279.5,370.0,279.0" stroke="black" stroke-width="2" fill="none" />
<path d="M372.0,282.5,384.0,277.0,383.5,285.5" stroke="black" stroke-width="2" fill="none" />
<path d="M380.5,289.0,373.0,297.0,365.0,304.5,356.5,312.5,347.5,320.5,339.0,329.0,330.5,336.5" stroke="black" stroke-width="2" fill="none" />
<path d="M334.0,336.0,341.5,335.0,349.0,334.0,356.5,333.0,364.0,332.5,371.5,331.5,379.5,330.5,387.0,329.0,394.5,328.0,402.5,327.0" stroke="black" stroke-width="2" fill="none" />
<path d="M395.0,324.5,387.0,332.0" stroke="black" stroke-width="2" fill="none" />
<path d="M380.5,330.0,373.0,337.0" stroke="black" stroke-width="2" fill="none" />
<path d="M371.5,339.5,369.5,346.0,357.5,347.0,348.5,350.5,360.5,349.5,359.0,347.0,355.0,345.5,354.5,337.5,365.0,331.0,373.0,325.5,379.0,322.0,368.0,326.5" stroke="black" stroke-width="2" fill="none" />
<path d="M370.5,330.0,369.5,338.5" stroke="black" stroke-width="2" fill="none" />
<path d="M365.5,333.0,366.5,331.0,364.5,339.5,362.5,347.5,375.0,351.0,380.5,348.5,389.5,343.5" stroke="black" stroke-width="2" fill="none" />
<path d="M395.0,348.0,387.0,356.0,379.0,363.5,371.0,371.5,363.5,379.5,356.0,387.0,348.5,394.5,339.5,402.0,331.5,409.5" stroke="black" stroke-width="2" fill="none" />
<path d="M327.5,412.5,326.0,405.0" stroke="black" stroke-width="2" fill="none" />
<path d="M330.5,401.0,339.0,393.5,347.5,386.5,355.5,378.5,364.5,371.0,373.0,363.5" stroke="black" stroke-width="2" fill="none" />
<path d="M370.0,358.0,377.5,360.5,386.0,350.5,398.0,345.0" stroke="black" stroke-width="2" fill="none" />
<path d="M394.5,356.5,387.0,364.0,379.5,372.0,371.5,379.5,363.5,386.5,355.0,393.5,347.0,401.0,339.5,409.0,331.5,416.5,324.0,424.0,315.5,431.5" stroke="black" stroke-width="2" fill="none" />
<path d="M316.0,437.0,324.0,437.0,332.0,436.5,340.0,436.5,348.0,436.5,355.5,436.5,363.0,436.0,370.5,435.5,378.0,435.5" stroke="black" stroke-width="2" fill="none" />
<path d="M372.5,434.5,364.0,441.5,356.0,449.5,347.5,457.5,339.5,465.0,331.0,473.0,323.0,480.5,315.0,487.5,307.0,495.0" stroke="black" stroke-width="2" fill="none" />
<path d="M299.0,493.0,307.0,486.0,315.0,478.5,323.5,471.0,331.5,464.0,339.5,456.5,347.5,449.0,355.5,442.0,364.0,435.0,372.0,428.0" stroke="black" stroke-width="2" fill="none" />
<path d="M379.5,419.0,388.0,412.0" stroke="black" stroke-width="2" fill="none" />
<path d="M386.5,404.0,378.5,411.5,371.0,418.5,363.0,425.5,355.0,432.5,347.5,439.5,339.5,447.0,332.0,455.0,324.0,462.5,316.5,469.5,309.0,477.0,300.5,484.5" stroke="black" stroke-width="2" fill="none" />
<path d="M300.5,482.0,292.0,489.0" stroke="black" stroke-width="2" fill="none" />
<path d="M291.0,494.5,298.5,494.5,307.0,494.0,315.5,493.0,324.5,492.0,332.5,491.5,340.5,491.0,348.5,490.5,356.5,490.0,364.5,489.0" stroke="black" stroke-width="2" fill="none" />
<path d="M357.5,461.0,366.0,453.5" stroke="black" stroke-width="2" fill="none" />
<path d="M370.5,455.0,362.5,456.0,355.0,457.0,347.0,457.5,339.5,458.5,332.0,459.5,324.0,460.5,316.0,461.5,307.5,462.0,299.5,462.5" stroke="black" stroke-width="2" fill="none" />
<path d="M301.5,460.0,310.0,452.0,317.0,445.0,324.5,437.5,332.0,430.5,339.5,423.5,346.5,416.0,354.0,409.0,361.5,402.0,369.5,395.0,377.5,387.5,385.5,380.0" stroke="black" stroke-width="2" fill="none" />
<path d="M381.0,378.5,373.0,386.0,364.5,393.5,356.0,401.0,347.5,409.0,339.5,416.5,330.5,424.5,322.0,432.5,314.0,440.5" stroke="black" stroke-width="2" fill="none" />
<path d="M307.5,432.5,300.5,433.0,293.0,433.5,285.0,434.0,277.0,434.5,269.0,435.0,261.0,435.0,253.5,435.5,245.5,435.5,237.0,435.5,228.0,435.5,220.0,435.5,212.0,436.0,204.0,436.0" stroke="black" stroke-width="2" fill="none" />
<path d="M220.5,406.0,228.5,398.0,236.5,390.5,244.5,383.5,252.0,376.0,259.5,368.5,268.0,360.5,276.0,352.5,284.5,344.5,293.0,337.0,301.0,329.5" stroke="black" stroke-width="2" fill="none" />
<path d="M301.0,338.5,293.0,345.5,285.0,352.5,276.5,359.5,269.0,366.5,260.5,374.0,252.5,382.0,244.5,389.0,237.0,397.0,229.0,404.5" stroke="black" stroke-width="2" fill="none" />
<path d="M236.5,414.5,244.0,407.5,252.0,400.5,260.5,393.0,269.0,386.0,276.5,379.5,284.5,372.0,292.5,364.5,300.5,357.0,309.0,349.0" stroke="black" stroke-width="2" fill="none" />
<path d="M311.0,356.0,309.0,364.0,313.5,372.0,311.5,380.5,306.5,388.5,295.5,397.5,294.5,395.5,303.0,402.5,311.5,403.5,320.5,412.5,326.5,403.5,339.0,401.5,342.0,397.5,347.0,396.0,349.0,391.0" stroke="black" stroke-width="2" fill="none" />
<path d="M346.0,387.5,354.5,386.5" stroke="black" stroke-width="2" fill="none" />
<path d="M357.5,375.0,354.5,383.0,360.5,379.5,363.0,384.5,359.0,382.5,367.5,380.5,375.5,376.0,385.0,364.0" stroke="black" stroke-width="2" fill="none" />
<path d="M380.0,367.5,379.0,375.5,382.5,384.5,382.0,393.0,381.0,401.0,378.0,410.0,376.0,418.5,375.0,424.5,375.0,433.0,374.0,440.0,364.0,448.0,354.0,456.0,344.5,463.5,334.5,471.5,322.5,481.0,330.0,474.0,338.0,467.5,345.5,460.5,353.5,454.0,361.5,448.0,369.5,439.0,376.5,433.0" stroke="black" stroke-width="2" fill="none" />
<path d="M379.0,435.0,371.0,436.0,363.5,436.5,355.5,437.5,348.0,439.0,339.5,440.0,331.5,441.0,324.0,442.0,316.0,442.5,308.0,443.0,300.5,444.0,293.0,444.5,285.5,444.5,278.0,445.0,269.5,445.0,262.0,445.0,253.5,445.5,245.5,446.0,237.5,446.5" stroke="black" stroke-width="2" fill="none" />
<path d="M260.0,454.0,268.5,453.5,276.5,453.0,285.0,452.5,293.0,452.0" stroke="black" stroke-width="2" fill="none" />
<path d="M299.5,454.0,308.0,454.0,316.5,453.5,324.5,453.0,332.5,452.5,340.5,452.0,348.0,450.5,356.0,450.0,363.5,449.0,371.0,449.0" stroke="black" stroke-width="2" fill="none" />
<path d="M373.5,444.0,369.5,452.0,361.5,460.0,353.0,467.5,339.5,472.5,328.0,480.5" stroke="black" stroke-width="2" fill="none" />
<path d="M332.0,483.5,324.0,491.0,316.0,498.5" stroke="black" stroke-width="2" fill="none" />
<path d="M300.5,501.0,309.5,500.5,317.5,500.0,325.5,499.5,333.0,499.0,341.0,499.0" stroke="black" stroke-width="2" fill="none" />
<path d="M335.5,481.5,326.5,489.5,316.5,497.5,306.5,505.5,311.0,501.5,319.5,496.5,327.0,488.5,335.0,481.5,343.0,475.0,351.0,469.0,359.5,462.0,367.5,454.0" stroke="black" stroke-width="2" fill="none" />
<path d="M363.5,433.5,356.0,434.0" stroke="black" stroke-width="2" fill="none" />
<path d="M357.0,425.0,365.0,424.5" stroke="black" stroke-width="2" fill="none" />
<path d="M365.5,418.0,375.0,413.0,372.0,421.5,371.5,429.5" stroke="black" stroke-width="2" fill="none" />
<path d="M359.0,440.5,360.0,432.0,362.5,424.5,361.0,416.5,375.0,408.5,378.0,400.5,385.5,397.0,385.5,389.0,387.5,380.5,387.5,377.5,382.5,381.5,375.5,390.5,370.5,385.0,369.5,390.0,362.0,389.0,356.0,398.0,346.5,403.5,343.5,407.5,335.5,413.5,327.5,418.0,319.0,425.0,318.0,420.0,319.0,411.5,324.0,409.0,323.5,401.0,325.0,393.0,325.5,385.0,331.5,381.0,330.0,377.0,339.0,375.5,333.0,366.5,334.5,358.5,337.0,351.0,335.0,341.0,342.0,338.0,338.0,330.0,341.0,330.0,344.0,322.0,348.5,313.5,359.0,305.5,356.0,301.5,352.5,291.5,350.5,296.0,354.5,295.0,343.5,300.5" stroke="black" stroke-width="2" fill="none" />
<path d="M338.0,303.0,346.5,295.5,354.5,288.0,362.5,280.5,370.5,273.0,379.0,266.0,387.5,258.5,395.5,251.0,403.5,243.0" stroke="black" stroke-width="2" fill="none" />
<path d="M403.0,249.5,395.0,257.0,387.5,265.0,379.5,273.0,371.5,280.5,364.0,287.5,356.0,295.5" stroke="black" stroke-width="2" fill="none" />
<path d="M356.5,281.5,348.5,282.5" stroke="black" stroke-width="2" fill="none" />
<path d="M348.0,288.5,339.5,289.5,331.5,290.0" stroke="black" stroke-width="2" fill="none" />
<path d="M330.5,295.5,339.0,288.0,347.0,280.5,355.5,273.0,363.5,265.0,371.0,257.5,378.5,250.5,386.5,243.0,394.5,235.5,402.0,227.5" stroke="black" stroke-width="2" fill="none" />
<path d="M394.5,228.0,386.5,235.5,378.5,243.0,370.5,251.0,363.0,259.0,355.0,266.5,347.0,273.5,339.5,280.5,331.5,287.5" stroke="black" stroke-width="2" fill="none" />
<path d="M326.5,285.5,334.5,285.0,342.0,285.0,350.0,285.0,358.0,284.5,365.5,283.5,373.5,283.0,380.5,282.5,388.5,282.0,396.5,281.5,404.5,280.5,412.5,280.0" stroke="black" stroke-width="2" fill="none" />
<path d="M401.5,283.5,394.0,291.0,386.5,299.5,379.0,307.0,371.0,314.5,363.0,322.0,354.5,330.0,346.0,338.0,337.5,345.5,329.0,352.5,321.5,360.0" stroke="black" stroke-width="2" fill="none" />
<path d="M318.5,362.0,324.0,365.5,319.0,364.0,322.0,371.5,321.0,380.0,318.5,389.0,322.5,386.0,330.5,389.0,339.0,382.5,346.0,378.5,341.0,388.5,339.0,396.0,337.0,404.0" stroke="black" stroke-width="2" fill="none" />
<path d="M344.5,408.5,341.5,416.0" stroke="black" stroke-width="2" fill="none" />
<path d="M339.5,418.0,347.5,417.5" stroke="black" stroke-width="2" fill="none" />
<path d="M346.5,412.0,354.5,411.0" stroke="black" stroke-width="2" fill="none" />
<path d="M347.5,406.5,345.5,414.5,341.0,424.0,344.0,427.0,341.5,435.0,337.5,442.5,341.0,446.5,342.5,444.5" stroke="black" stroke-width="2" fill="none" />
<path d="M340.0,441.5,348.5,441.0" stroke="black" stroke-width="2" fill="none" />
<path d="M340.0,465.0,332.5,465.5" stroke="black" stroke-width="2" fill="none" />
<path d="M332.5,465.5,325.0,473.5" stroke="black" stroke-width="2" fill="none" />
<path d="M309.5,470.0,317.0,463.0,324.5,455.0,332.0,447.0,339.5,439.0,346.5,431.5,354.5,424.0,361.5,416.5,369.5,408.5,377.5,401.0,385.5,394.0" stroke="black" stroke-width="2" fill="none" />
<path d="M384.5,388.0,377.0,395.5,370.0,402.5,362.5,409.5,355.0,417.0,347.5,424.0,340.5,432.0,332.5,439.5,324.5,446.5,316.5,454.0,308.5,461.5" stroke="black" stroke-width="2" fill="none" />
<path d="M308.5,465.0,316.0,465.0" stroke="black" stroke-width="2" fill="none" />
<path d="M324.0,456.5,332.0,456.0" stroke="black" stroke-width="2" fill="none" />
<path d="M360.5,456.5,350.5,466.5,340.5,471.5,332.5,478.5,324.5,484.5,316.0,485.0,308.0,491.5,300.0,499.5,304.0,490.0,308.5,485.0,301.0,492.5,300.5,497.0,309.5,489.0,313.5,481.5,314.0,474.0,316.0,465.5,319.5,458.0,327.5,459.0,318.0,471.0,311.5,484.0,309.5,495.0,306.5,501.0,316.5,493.5,326.5,485.5,337.0,478.0,345.5,473.5,350.5,466.5,353.5,461.0,353.5,450.0,363.5,442.5,372.5,434.5,381.5,427.5,384.0,419.5,385.5,411.5,387.5,403.5,389.0,396.0,390.0,387.5,392.5,379.5,393.5,371.5,396.0,363.5,397.0,357.5,399.0,349.5,395.5,347.5,400.5,339.0,402.0,330.5,403.5,322.5,405.5,314.5,406.5,306.5,407.5,300.5,405.5,294.0,410.5,286.0,411.5,278.5,413.5,270.5,414.5,263.0,417.0,255.0,418.0,247.0,420.0,239.0,421.0,230.5,423.5,222.5,418.5,212.5,420.5,204.5,421.5,196.5,426.5,188.5,428.5,180.5,430.5,172.5,432.5,164.0,428.5,161.5,432.0,154.5,429.5,147.5,426.5,139.5,420.0,140.5" stroke="black" stroke-width="2" fill="none" />
<path d="M416.5,137.0,423.5,144.5,417.0,152.5,416.0,160.5,416.0,168.5,413.0,176.0,409.0,184.5,408.5,192.5,410.5,200.5,411.0,207.0,415.0,214.5,416.0,224.0,412.5,232.0,412.5,240.0,412.5,251.5,411.5,259.5,410.5,268.0,409.5,276.0,409.5,284.0,408.0,292.5,402.5,300.0,402.0,308.0,396.0,315.5,392.0,323.5,389.5,331.5,382.0,339.5,373.0,343.5,366.0,355.5,352.0,364.0,340.0,372.5,343.5,376.5,339.0,384.0,331.0,392.0,329.0,399.5,334.5,399.0,332.0,407.0,329.0,414.5,319.5,423.5,313.5,428.5,316.5,429.5,311.5,429.5,317.5,438.5,320.0,446.5,318.0,449.5,312.5,455.5" stroke="black" stroke-width="2" fill="none" />
<path d="M301.0,470.0,308.5,469.0,316.5,468.5,324.5,467.5,332.5,467.0,341.0,466.0,348.5,465.5,356.5,465.5,364.5,465.5,372.5,465.5,380.0,465.0" stroke="black" stroke-width="2" fill="none" />
<path d="M370.0,481.0,362.0,481.5,354.5,482.5,346.5,483.0,338.5,483.5,330.5,484.0,322.5,484.0,315.0,485.0,307.5,485.5,300.5,486.0,293.0,486.5,285.0,487.0" stroke="black" stroke-width="2" fill="none" />
<path d="M285.5,481.5,293.5,492.5,301.5,488.5" stroke="black" stroke-width="2" fill="none" />
<path d="M305.0,478.0,306.0,475.0" stroke="black" stroke-width="2" fill="none" />
<path d="M285.5,478.5,293.0,478.0,301.0,477.0,308.5,476.0,316.0,475.5,323.5,474.5,331.0,474.5,339.5,474.0,347.5,473.5,355.5,473.5,363.0,473.0,371.0,472.0,379.0,471.5" stroke="black" stroke-width="2" fill="none" />
<path d="M378.5,419.0,375.5,431.0,367.5,439.5,359.5,445.5,352.0,454.0,348.0,469.5,339.5,475.5,331.0,483.0,323.0,488.5,315.0,494.0,307.0,499.5,306.0,497.0,315.5,489.0,308.5,477.0,305.0,469.0,298.0,470.0,296.0,475.0,302.0,467.0,299.0,460.5,300.0,452.5,287.5,445.0" stroke="black" stroke-width="2" fill="none" />
<path d="M284.5,443.5,283.5,451.5,282.5,460.0,281.5,468.0,283.5,476.5,285.5,484.0,291.5,492.0,300.5,499.5,292.5,504.5,300.5,506.5,304.5,508.5,312.5,508.5,321.0,509.5,329.0,507.5,337.0,506.0" stroke="black" stroke-width="2" fill="none" />
<path d="M293.0,468.5,285.5,469.0" stroke="black" stroke-width="2" fill="none" />
<path d="M292.5,462.5,285.0,463.0,277.0,463.5" stroke="black" stroke-width="2" fill="none" />
<path d="M286.5,457.0,287.0,465.0,284.0,475.5,288.0,471.0,293.5,481.0,301.5,469.5,309.5,468.5,316.5,462.5" stroke="black" stroke-width="2" fill="none" />
<path d="M302.0,453.5,290.0,459.5" stroke="black" stroke-width="2" fill="none" />
<path d="M295.5,447.0,294.0,440.0,291.0,438.0,292.5,430.0,295.5,421.0,293.0,413.0,289.5,406.0" stroke="black" stroke-width="2" fill="none" />
<path d="M291.0,402.0,283.0,410.0,275.0,418.0,267.5,425.0" stroke="black" stroke-width="2" fill="none" />
<path d="M275.5,426.5,282.5,418.5,290.0,411.0" stroke="black" stroke-width="2" fill="none" />
<path d="M292.5,412.0,300.5,417.5,309.0,415.0,316.0,420.0,324.5,415.0" stroke="black" stroke-width="2" fill="none" />
<path d="M325.0,412.5,317.0,420.5" stroke="black" stroke-width="2" fill="none" />
<path d="M309.0,421.0,301.0,428.5" stroke="black" stroke-width="2" fill="none" />
<path d="M307.0,428.0,305.0,436.0,303.5,443.5,304.5,446.5,312.5,453.5,321.0,452.5" stroke="black" stroke-width="2" fill="none" />
<path d="M299.5,436.5,292.0,437.5,295.0,428.5,290.0,426.5,286.0,436.5" stroke="black" stroke-width="2" fill="none" />
<path d="M290.5,425.5,298.5,418.0" stroke="black" stroke-width="2" fill="none" />
<path d="M297.0,416.5,299.5,424.5,295.5,429.5,299.5,436.0,295.5,439.5,298.5,448.5,306.0,452.5" stroke="black" stroke-width="2" fill="none" />
<path d="M283.5,426.0,291.5,418.5" stroke="black" stroke-width="2" fill="none" />
<path d="M306.5,413.0,314.5,413.0,323.0,412.5,331.5,412.0,339.0,412.0,347.0,411.5,355.0,411.0,363.0,410.5,370.5,409.5,378.0,409.0,386.0,408.5" stroke="black" stroke-width="2" fill="none" />
<path d="M387.0,398.5,379.0,399.5,370.5,400.0,362.0,401.5,353.5,402.5,345.5,403.5,337.5,403.5,329.5,404.0,321.5,404.0,314.0,405.0,306.0,405.5" stroke="black" stroke-width="2" fill="none" />
<path d="M309.0,403.0,317.0,395.5,325.0,388.0" stroke="black" stroke-width="2" fill="none" />
<path d="M331.0,389.5,323.0,397.0,315.5,404.5" stroke="black" stroke-width="2" fill="none" />
<path d="M315.0,402.0,323.0,401.0" stroke="black" stroke-width="2" fill="none" />
<path d="M315.0,408.0,323.0,400.0,331.0,392.5,339.0,385.0,346.5,378.0,354.5,371.0" stroke="black" stroke-width="2" fill="none" />
<path d="M348.5,365.5,357.0,359.5,365.0,354.5" stroke="black" stroke-width="2" fill="none" />
<path d="M356.5,352.0,348.5,357.0" stroke="black" stroke-width="2" fill="none" />
<path d="M353.0,354.5,345.5,362.0" stroke="black" stroke-width="2" fill="none" />
<path d="M348.5,365.0,350.5,374.5" stroke="black" stroke-width="2" fill="none" />
<path d="M358.0,361.5,356.0,369.0,353.5,378.5,351.5,386.5,351.0,394.5,347.5,395.5,340.5,398.5" stroke="black" stroke-width="2" fill="none" />
<path d="M348.5,399.5,343.5,407.5" stroke="black" stroke-width="2" fill="none" />
<path d="M329.0,423.0,327.0,431.0,327.5,436.5,321.5,438.0,323.0,440.0,323.5,445.5,322.5,442.5,325.5,434.5" stroke="black" stroke-width="2" fill="none" />
<path d="M322.0,410.0,314.0,410.5" stroke="black" stroke-width="2" fill="none" />
<path d="M312.5,405.5,308.0,408.5,309.5,416.5,310.5,422.0,309.5,430.0,313.0,437.5,316.0,445.5" stroke="black" stroke-width="2" fill="none" />
<path d="M307.0,397.0,315.5,389.5" stroke="black" stroke-width="2" fill="none" />
<path d="M324.5,379.5,332.0,371.5,340.0,363.5" stroke="black" stroke-width="2" fill="none" />
<path d="M331.0,353.0,323.5,353.5" stroke="black" stroke-width="2" fill="none" />
<path d="M324.5,347.5,316.5,355.5" stroke="black" stroke-width="2" fill="none" />
<path d="M315.5,359.0,323.5,352.0,331.5,344.5,339.5,336.5,347.5,329.0,355.5,321.5,364.0,313.5,372.0,305.5,380.5,298.5,388.5,291.0" stroke="black" stroke-width="2" fill="none" />
<path d="M393.0,303.0,392.0,297.0,395.5,298.0,392.5,306.0,390.5,314.0,384.5,322.0,382.5,330.0" stroke="black" stroke-width="2" fill="none" />
<path d="M386.5,323.5,394.0,316.5" stroke="black" stroke-width="2" fill="none" />
<path d="M388.0,315.5,379.5,323.0,371.5,331.0,363.0,339.0,355.5,346.5" stroke="black" stroke-width="2" fill="none" />
<path d="M351.0,343.0,351.0,334.5,358.0,326.5,358.0,326.0" stroke="black" stroke-width="2" fill="none" />
<path d="M357.0,313.0,364.5,313.0,373.0,313.0" stroke="black" stroke-width="2" fill="none" />
<path d="M386.0,307.0,395.0,307.0,394.5,320.5,394.5,328.0,392.5,336.0,387.5,343.5,385.5,351.5,384.5,359.5,382.5,361.5,387.5,366.5,386.0,375.0,379.0,383.0,369.0,391.5,364.0,399.5,367.0,402.0" stroke="black" stroke-width="2" fill="none" />
<path d="M375.0,402.5,371.0,392.5,374.0,398.5,366.0,400.5,361.0,413.5,363.0,411.5,367.0,404.0,370.5,401.0,374.5,399.0,374.5,394.5,378.0,386.0,375.0,376.0,376.0,370.5,373.0,367.5,376.0,359.5,383.0,352.0,379.0,351.0,388.0,346.0,390.5,345.5,397.5,341.5,399.0,334.0,399.0,327.5,400.0,319.0,402.0,311.0,398.5,303.0,399.5,294.5,394.5,287.5,395.0,280.5,398.5,275.5,400.0,268.0,401.0,260.0,399.5,255.0,413.5,247.0,410.5,253.0,410.0,250.0,402.0,252.5,395.0,254.5,386.5,262.5,379.0,264.0,372.0,260.0,370.5,268.0,359.5,273.0,345.5,277.5,342.0,278.5,331.0,276.0,322.5,273.0,314.0,269.5,307.5,268.5,299.5,272.5,295.0,271.0,301.5,271.5,313.0,263.5,317.0,255.5,312.0,250.5,314.0,242.5,312.0,236.0,317.0,233.0,316.5,221.0,319.5,220.0,324.5,218.5,321.5,210.5,325.5,201.5,324.0,193.5,328.0,187.5,327.5,173.5,330.5,173.0,331.0,165.0,333.0,156.5,333.0,151.0,336.5,140.5,339.5,132.5,345.0,132.0,345.0,128.5" stroke="black" stroke-width="2" fill="none" />
<path d="M348.0,134.5,356.5,134.0" stroke="black" stroke-width="2" fill="none" />
<path d="M358.0,135.0,351.0,140.0,349.5,152.0,347.0,157.0" stroke="black" stroke-width="2" fill="none" />
<path d="M347.5,157.5,355.5,157.0,363.0,157.0,371.0,157.0,380.0,156.5,388.0,156.0,396.0,155.5,404.0,155.0,412.0,154.5,419.5,153.5,428.0,153.0" stroke="black" stroke-width="2" fill="none" />
<path d="M428.5,146.0,420.5,146.0,412.5,146.0,404.5,146.0,396.5,146.5,388.0,147.0,380.0,148.0,372.0,149.0,364.0,149.5,356.0,150.5" stroke="black" stroke-width="2" fill="none" />
<path d="M357.5,155.0,357.5,163.0" stroke="black" stroke-width="2" fill="none" />
<path d="M358.0,167.5,366.0,167.0" stroke="black" stroke-width="2" fill="none" />
<path d="M370.5,167.0,379.0,167.0" stroke="black" stroke-width="2" fill="none" />
<path d="M387.5,172.0,395.5,164.5,403.5,157.0" stroke="black" stroke-width="2" fill="none" />
<path d="M396.0,156.0,388.0,163.5,379.5,171.0,371.0,178.0,363.0,185.0,355.0,192.5" stroke="black" stroke-width="2" fill="none" />
<path d="M355.0,194.5,343.0,199.5,342.0,196.0,334.5,204.0" stroke="black" stroke-width="2" fill="none" />
<path d="M331.5,196.0,339.5,196.0,348.0,196.0,356.5,195.0,365.0,194.0,373.0,193.5,381.0,193.5,389.5,193.0,397.5,192.5,406.0,191.5,414.0,190.5,422.0,190.0,429.5,189.5" stroke="black" stroke-width="2" fill="none" />
<path d="M417.5,188.0,409.5,195.5,402.0,203.0,393.5,210.5,385.0,218.0,377.0,225.5,369.0,233.5,361.0,241.0,353.5,249.0,346.5,256.5,339.0,264.0" stroke="black" stroke-width="2" fill="none" />
<path d="M338.0,261.5,346.5,261.0,355.0,261.0,363.5,260.5,371.5,260.0,380.0,260.0,388.0,259.0,396.0,258.5,404.5,257.0,412.5,256.0,421.0,255.5" stroke="black" stroke-width="2" fill="none" />
<path d="M402.5,258.0,394.0,265.5,386.5,273.5,378.0,281.0,370.0,288.5,362.5,296.0,354.0,304.0,346.5,311.5,339.0,320.0,331.5,328.0" stroke="black" stroke-width="2" fill="none" />
<path d="M332.0,330.0,339.5,329.5" stroke="black" stroke-width="2" fill="none" />
<path d="M340.0,323.0,347.5,323.0" stroke="black" stroke-width="2" fill="none" />
<path d="M349.0,313.5,347.0,321.5,351.5,328.0,353.5,322.0,360.5,324.5,368.5,318.5" stroke="black" stroke-width="2" fill="none" />
<path d="M345.5,307.0,338.0,314.5,331.0,322.5" stroke="black" stroke-width="2" fill="none" />
<path d="M330.5,323.5,338.5,323.0,346.0,323.0,354.0,322.5,362.0,322.0,370.0,322.0,378.0,322.0,386.5,322.0,394.5,322.0,403.5,322.0" stroke="black" stroke-width="2" fill="none" />
<path d="M402.0,290.5,393.5,298.0,385.0,305.5,377.0,313.5,369.5,321.5,362.0,329.5,354.5,337.0,347.0,344.5,339.5,352.5,332.0,360.0,324.5,368.0" stroke="black" stroke-width="2" fill="none" />
<path d="M320.0,364.0,328.0,362.0" stroke="black" stroke-width="2" fill="none" />
<path d="M336.5,360.0,332.5,366.0,344.5,357.0,342.5,356.0,347.5,353.5,350.0,345.5,346.5,336.5,344.5,334.5,342.0,332.5,353.0,326.5,363.0,320.0,377.0,316.0,379.5,309.5,386.5,301.5,388.5,293.5,385.5,281.0,386.5,273.0,388.0,265.0,381.5,261.0,380.0,258.5,380.0,250.5,384.0,249.0,385.0,241.0,387.0,233.0,382.5,225.0,388.5,219.0,384.5,214.0,383.0,209.0,385.5,200.5,387.5,193.0,391.5,185.0,397.0,178.5,393.0,171.5,397.0,173.5,394.5,166.0,394.5,166.0" stroke="black" stroke-width="2" fill="none" />
<path d="M395.5,173.5,403.5,166.0" stroke="black" stroke-width="2" fill="none" />
<path d="M409.5,163.5,417.5,156.0" stroke="black" stroke-width="2" fill="none" />
<path d="M419.0,153.0,418.5,161.0" stroke="black" stroke-width="2" fill="none" />
<path d="M427.5,159.0,419.5,160.0,412.0,161.0,404.0,162.0,396.0,163.5,388.0,164.5,379.5,165.0,370.5,165.5,362.0,166.0,353.5,166.0,345.5,166.5" stroke="black" stroke-width="2" fill="none" />
<path d="M348.0,169.0,355.5,161.5,363.5,154.0" stroke="black" stroke-width="2" fill="none" />
<path d="M364.0,159.5,366.0,167.5,363.5,175.5,370.5,176.5" stroke="black" stroke-width="2" fill="none" />
<path d="M380.0,179.0,372.5,186.5,364.5,193.0,356.5,200.0,348.5,208.0,340.5,215.5" stroke="black" stroke-width="2" fill="none" />
<path d="M331.5,219.0,339.5,219.0,348.0,219.0,356.5,219.0,364.5,219.5,373.0,219.0,381.0,219.0,389.5,219.0,397.5,218.5,404.5,217.5,412.5,216.5,420.5,216.0,428.5,215.0" stroke="black" stroke-width="2" fill="none" />
<path d="M429.0,199.5,421.0,200.5,413.0,201.0,405.0,201.5,396.5,202.0,388.5,202.5,380.5,203.5,372.5,204.5,364.5,205.5,356.5,206.5,348.5,207.0" stroke="black" stroke-width="2" fill="none" />
<path d="M346.5,194.0,355.0,186.0,363.5,178.5,371.5,171.0,379.5,163.0,387.5,155.0" stroke="black" stroke-width="2" fill="none" />
<path d="M379.5,153.0,371.0,161.0,362.5,168.0,354.5,176.0,346.5,184.0" stroke="black" stroke-width="2" fill="none" />
<path d="M346.5,183.5,354.5,182.5,363.0,182.0,371.5,181.5,380.0,180.5,388.0,180.0,396.0,179.0,404.5,178.0,413.0,177.0,421.0,176.0,429.0,175.5" stroke="black" stroke-width="2" fill="none" />
<path d="M425.0,176.5,418.5,180.0,410.0,179.5,397.5,183.5,393.5,183.5,385.5,187.0,377.5,190.0" stroke="black" stroke-width="2" fill="none" />
<path d="M375.5,191.5,377.0,199.5,373.0,205.5,377.5,199.5" stroke="black" stroke-width="2" fill="none" />
<path d="M380.5,203.0,373.0,210.0,365.0,217.5,356.5,225.0,348.5,232.5,340.0,239.5" stroke="black" stroke-width="2" fill="none" />
<path d="M339.0,238.0,347.5,237.0,355.5,236.5,363.5,236.5,371.0,236.0,378.5,235.0,387.0,234.0,395.5,233.5,403.5,232.5,411.5,232.0,419.5,232.0" stroke="black" stroke-width="2" fill="none" />
<path d="M410.5,225.0,402.5,232.5,394.5,240.5" stroke="black" stroke-width="2" fill="none" />
<path d="M397.5,237.0,403.0,229.0,400.0,236.5,405.0,243.5,403.0,237.5" stroke="black" stroke-width="2" fill="none" />
<path d="M393.5,221.5,385.5,229.0,378.0,236.0,370.5,243.5,363.0,251.0,354.5,258.0,346.5,265.0,339.0,272.5,330.5,280.0" stroke="black" stroke-width="2" fill="none" />
<path d="M331.5,278.0,339.0,277.5,347.0,277.5,355.0,277.0,363.5,276.5,372.5,276.0,380.5,276.0,389.0,275.5,396.5,275.0,404.0,275.0,412.0,274.5" stroke="black" stroke-width="2" fill="none" />
<path d="M388.0,252.5,380.0,260.0,371.5,267.5,363.5,274.5,355.0,282.0,347.0,289.0,339.0,296.5" stroke="black" stroke-width="2" fill="none" />
<path d="M341.0,291.0,344.0,286.0,341.5,294.5,335.5,303.5,342.0,313.5" stroke="black" stroke-width="2" fill="none" />
<path d="M331.0,309.5,339.0,309.0,347.0,308.5,355.0,307.5,363.5,306.0,371.5,305.5,379.5,305.5,387.0,305.0,395.0,305.0,403.5,305.0" stroke="black" stroke-width="2" fill="none" />
<path d="M412.0,265.5,404.0,266.0,396.5,267.0,388.5,267.5,380.5,268.0,372.0,269.0,364.0,269.5,356.0,270.5,348.0,270.5,340.0,271.0" stroke="black" stroke-width="2" fill="none" />
<path d="M339.0,251.5,347.5,251.0,356.0,251.0,364.0,251.0,372.0,251.0,380.0,250.5,388.0,249.5,396.5,249.0,404.5,248.0,412.5,247.0,420.5,246.5" stroke="black" stroke-width="2" fill="none" />
<path d="M388.0,239.0,380.0,239.0" stroke="black" stroke-width="2" fill="none" />
<path d="M375.5,237.5,373.0,245.5,371.5,252.5,371.5,255.5,371.5,248.0" stroke="black" stroke-width="2" fill="none" />
<path d="M370.5,248.5,362.5,249.5" stroke="black" stroke-width="2" fill="none" />
<path d="M357.5,247.5,349.5,248.0" stroke="black" stroke-width="2" fill="none" />
<path d="M346.5,249.5,354.5,242.0,362.5,235.0,370.5,227.5,378.0,220.0,385.5,213.0,393.5,205.5" stroke="black" stroke-width="2" fill="none" />
<path d="M395.5,205.5,401.5,214.0,396.0,222.0,398.0,235.5,401.0,240.5,402.0,248.5,396.0,250.0,391.0,267.0,393.0,276.0,392.5,284.0,387.0,292.0,379.5,300.0,378.0,308.0,385.0,316.5,381.0,324.0,377.5,332.0,376.5,340.0,383.0,338.0,393.0,339.0,397.0,329.0" stroke="black" stroke-width="2" fill="none" />
<path d="M413.0,296.0,405.0,296.5,396.5,297.0,388.5,298.0,380.0,298.5,372.0,299.5,364.5,300.5,356.5,300.5,349.0,301.0,341.5,302.0,333.5,302.5" stroke="black" stroke-width="2" fill="none" />
<path d="M324.5,294.5,332.5,293.5,340.5,293.0,349.0,292.0,357.0,291.0,365.0,290.0,373.0,290.0,380.5,290.0,388.5,290.0,396.5,289.5,404.5,289.5,412.5,288.5" stroke="black" stroke-width="2" fill="none" />
<path d="M404.5,311.5,397.0,312.0,389.5,313.0,381.5,313.5,374.0,314.0,366.0,314.0,358.0,314.5,349.5,315.0,341.0,315.0,332.5,315.5,324.5,316.0,316.0,316.5,307.5,317.0,300.0,317.0" stroke="black" stroke-width="2" fill="none" />
<path d="M300.0,310.0,308.5,309.5,317.0,309.0,325.0,308.0" stroke="black" stroke-width="2" fill="none" />
<path d="M325.0,309.5,332.0,304.0,336.0,299.0,328.5,296.5,320.5,305.0" stroke="black" stroke-width="2" fill="none" />
<path d="M321.5,316.5,313.5,323.5" stroke="black" stroke-width="2" fill="none" />
<path d="M317.5,324.0,325.5,323.0" stroke="black" stroke-width="2" fill="none" />
<path d="M316.5,316.0,308.5,323.5" stroke="black" stroke-width="2" fill="none" />
<path d="M308.5,338.5,300.5,346.0,292.0,354.0,284.0,361.5,276.0,369.0,268.5,377.0,260.5,385.0,252.0,392.5,244.0,400.5,236.0,408.0" stroke="black" stroke-width="2" fill="none" />
<path d="M258.5,415.5,265.5,408.0,273.0,400.5,280.5,393.5,289.0,386.0,297.0,378.5" stroke="black" stroke-width="2" fill="none" />
<path d="M298.5,377.5,297.0,376.5,297.0,384.5,299.0,387.0,297.5,396.0" stroke="black" stroke-width="2" fill="none" />
<path d="M292.0,397.0,283.5,404.0,275.5,411.5,267.5,419.0,259.5,426.0" stroke="black" stroke-width="2" fill="none" />
<path d="M261.5,417.0,269.5,417.0,277.0,417.0,285.0,416.5,293.0,416.5" stroke="black" stroke-width="2" fill="none" />
<path d="M251.0,414.5,258.5,407.0,266.0,399.5,274.0,392.5,282.0,385.0,290.0,377.5,298.0,370.0" stroke="black" stroke-width="2" fill="none" />
<path d="M296.0,370.5,304.5,375.5,313.5,382.5,315.5,390.5" stroke="black" stroke-width="2" fill="none" />
<path d="M308.5,374.0,316.0,373.5,324.0,373.0,331.5,372.0,339.5,371.0,348.0,370.5,355.5,370.0,363.5,370.0,371.5,369.5,379.0,369.0,387.0,369.0,395.5,368.0" stroke="black" stroke-width="2" fill="none" />
<path d="M404.5,345.0,396.0,345.5,388.5,346.0,380.5,346.0,372.5,346.0,365.0,346.5,356.5,346.5,348.5,346.5,341.0,346.5,332.5,346.5,324.0,347.0,316.0,347.0" stroke="black" stroke-width="2" fill="none" />
<path d="M325.0,340.5,332.5,340.0,340.0,340.0,348.0,339.5,355.5,339.5,363.0,339.0,371.0,338.5,379.0,338.5,386.5,338.5,394.0,338.5,402.0,338.5" stroke="black" stroke-width="2" fill="none" />
<path d="M386.0,380.5,378.0,380.5,370.0,381.0,362.5,381.5,354.5,382.5,346.5,383.0,338.5,384.0,331.0,384.0,323.0,384.0,314.5,384.5,306.5,385.0,298.5,385.5,291.5,386.0,283.5,386.5,275.5,387.5,267.0,388.0,259.5,388.0,251.5,388.5,243.5,389.5,235.5,390.0,227.5,391.0,219.5,392.0,211.5,392.5,203.5,393.5,195.5,394.5,187.5,395.0,179.5,395.5,171.5,395.0,163.0,395.5,154.0,396.0,146.0,396.5,138.0,396.5,130.0,396.5,122.5,396.5,114.5,397.5,107.0,398.0" stroke="black" stroke-width="2" fill="none" />
<path d="M112.5,396.0,117.0,397.0,116.0,405.5,115.0,413.5,116.0,421.5,123.0,422.0,128.5,416.5,135.0,407.5,136.0,412.0,134.0,420.0,127.0,430.0,135.0,420.0" stroke="black" stroke-width="2" fill="none" />
<path d="M133.5,420.5,125.0,427.5" stroke="black" stroke-width="2" fill="none" />
<path d="M124.5,429.5,132.5,429.0,140.0,429.5,148.0,429.0,156.0,428.5,164.5,428.0,172.0,428.0,179.0,427.5,186.5,426.5,194.0,426.0,202.0,425.5,210.0,425.0,219.0,424.5,227.5,423.5,235.5,422.5,244.5,421.5,252.0,421.0,260.0,420.0,268.5,420.0,276.5,419.5,284.5,419.0,292.0,418.5,300.5,418.0,309.0,417.5,317.5,417.0,325.0,416.5,333.5,415.5,342.0,414.5,350.0,414.0,357.5,413.5,365.5,413.0,373.5,412.0,381.5,412.0,389.0,411.5" stroke="black" stroke-width="2" fill="none" />
<path d="M387.0,403.0,379.5,404.0,372.0,404.5,364.0,405.0,356.0,405.5,348.5,406.5,340.0,407.5,331.5,408.5,323.5,409.5,315.5,410.0,307.5,411.0,299.5,412.0,291.5,412.5,284.5,413.5,277.0,414.0,268.5,414.5,260.0,415.0,251.5,415.0,243.5,415.0,235.0,415.0,227.5,415.5,219.5,415.5,212.0,416.0,204.0,416.5,196.5,416.5,188.0,417.5,180.0,418.0,171.5,418.5,163.0,419.0,155.0,419.0,146.5,419.5,138.5,420.5,131.0,421.5,123.5,422.0,116.0,422.0" stroke="black" stroke-width="2" fill="none" />
<path d="M111.0,422.0,119.0,427.0,130.0,433.0" stroke="black" stroke-width="2" fill="none" />
<path d="M131.5,433.5,139.5,433.0,147.0,433.0,155.0,433.0,163.0,433.0" stroke="black" stroke-width="2" fill="none" />
<path d="M180.0,420.0,187.5,412.5,195.5,405.0,203.5,397.0,211.0,389.5,219.0,382.5,227.5,375.0,236.0,368.5,243.5,361.0,250.5,353.0,258.5,345.5,266.5,338.5,275.0,331.5" stroke="black" stroke-width="2" fill="none" />
<path d="M268.5,330.0,261.0,337.5,252.0,345.5,243.5,352.5,234.5,360.0,226.0,368.0,217.5,375.5,209.0,383.0,200.5,390.5,193.0,397.5,185.0,405.5,177.5,413.0,169.5,421.0,161.5,429.0" stroke="black" stroke-width="2" fill="none" />
<path d="M147.0,437.0,155.5,429.5,163.5,421.5,171.0,413.5,178.0,405.5,185.5,398.0,194.0,390.5,202.5,383.5,210.5,376.0,218.5,368.5,227.0,360.5,235.0,353.0,243.0,345.5,251.5,338.0,260.5,329.5,269.0,322.0" stroke="black" stroke-width="2" fill="none" />
<path d="M270.0,324.5,270.0,316.5,265.0,315.0" stroke="black" stroke-width="2" fill="none" />
<path d="M261.0,308.5,253.0,309.5,244.5,309.5,236.0,309.5,227.5,310.0,219.5,310.0,211.0,310.0,203.0,310.5,195.0,311.0,187.0,311.5,178.5,312.5,171.0,313.5,163.0,314.5,155.0,316.0,147.0,317.0,139.0,318.5,131.5,319.5,124.0,320.0,116.0,321.0" stroke="black" stroke-width="2" fill="none" />
<path d="M114.0,311.0,122.0,310.0,130.5,309.5,138.5,309.0,147.0,309.0,155.0,308.0,163.0,308.0,171.5,307.0,179.5,306.5,188.0,306.0,196.0,305.5,203.5,304.5,211.0,304.0,218.5,303.5" stroke="black" stroke-width="2" fill="none" />
<path d="M209.5,298.0,217.0,300.0,225.0,302.5,230.0,294.5,235.5,294.5" stroke="black" stroke-width="2" fill="none" />
<path d="M236.5,287.0,245.0,286.0,252.5,285.0" stroke="black" stroke-width="2" fill="none" />
<path d="M254.0,288.5,261.5,285.5,269.5,286.5,277.5,288.5,286.0,286.0" stroke="black" stroke-width="2" fill="none" />
<path d="M291.0,279.5,299.0,278.5" stroke="black" stroke-width="2" fill="none" />
<path d="M308.5,277.0,307.5,285.0,308.5,286.5,304.5,295.5,305.0,303.5,312.0,311.0,319.5,317.0,311.0,325.5,313.0,330.5,311.5,338.5,316.5,339.5" stroke="black" stroke-width="2" fill="none" />
<path d="M300.0,344.0,292.5,344.5,284.0,345.0,275.5,345.5,267.0,346.0,258.5,347.0,250.5,347.5,242.5,347.5,234.5,347.5,227.0,348.0,219.5,348.5,211.0,349.0,203.5,349.5,195.5,350.5,187.0,351.0,179.0,352.0,171.5,352.0,164.0,353.0,156.5,354.0,148.5,355.0,141.0,355.5" stroke="black" stroke-width="2" fill="none" />
<path d="M139.5,348.0,147.5,347.5,155.5,346.5,163.5,345.5,171.5,345.0,179.5,344.0,187.5,343.0,195.5,342.5,203.5,341.5,211.5,341.0,219.0,341.0,227.5,340.5,235.5,339.5,243.5,339.0,250.5,338.5,258.5,338.0,266.5,337.5,275.0,337.0,283.0,337.0,290.5,337.0,298.5,336.0" stroke="black" stroke-width="2" fill="none" />
<path d="M290.5,333.5,283.0,340.5,275.0,347.5,267.0,355.0,259.0,362.5,251.5,369.5,243.0,376.5,235.0,383.5,227.5,391.0,220.5,399.0,213.0,406.5" stroke="black" stroke-width="2" fill="none" />
<path d="M245.0,414.0,252.5,406.0,260.0,398.0,267.5,391.0,275.5,383.5,283.5,376.5,292.0,369.5,300.0,362.0" stroke="black" stroke-width="2" fill="none" />
<path d="M291.5,368.5,284.0,369.0,276.0,370.0,268.0,370.5,260.0,371.0,251.5,371.0,243.0,371.0,235.0,371.0,226.5,370.5,218.5,371.0,210.5,371.5,202.0,372.5,194.5,374.0,187.0,375.0,179.5,376.0,171.5,377.0,163.5,377.5,156.0,378.5,148.0,379.5,140.0,380.0" stroke="black" stroke-width="2" fill="none" />
<path d="M139.0,387.0,147.0,386.0,155.0,385.5,162.5,384.5,170.0,383.5,178.5,382.5,186.0,381.5,194.0,380.5,202.5,380.0,211.0,379.5,219.5,379.0,227.0,379.0,235.0,378.5,243.0,378.5,251.0,378.0,259.5,378.0,267.5,378.0,275.5,378.0,283.5,377.5,291.5,377.0" stroke="black" stroke-width="2" fill="none" />
<path d="M293.0,399.5,285.0,400.5,276.5,401.5,268.5,402.5,260.5,403.0,253.0,403.5,245.0,403.5,237.0,404.0,229.5,404.0,221.5,404.0,213.5,404.5,205.0,405.5,197.0,406.5,188.5,406.5,180.0,406.5,171.5,407.0,163.5,407.0,155.0,407.0,147.0,407.5,139.0,408.0" stroke="black" stroke-width="2" fill="none" />
<path d="M140.0,405.0,148.5,397.0,156.5,389.5,164.5,382.5,172.5,375.5,180.0,368.5,187.0,361.0,194.5,354.0,203.0,346.0,211.0,338.5,219.0,330.5,227.0,323.0,235.5,315.5" stroke="black" stroke-width="2" fill="none" />
<path d="M230.0,318.0,238.0,319.5,249.0,324.0,253.0,321.5" stroke="black" stroke-width="2" fill="none" />
<path d="M253.0,322.0,244.5,329.5,236.5,337.5,229.0,346.0,221.0,353.5,213.0,361.5,205.5,369.5,198.0,377.5,190.0,385.0,181.5,391.5,173.0,399.0,165.0,406.5,157.0,414.0,148.5,421.5,140.5,429.0,132.5,436.5" stroke="black" stroke-width="2" fill="none" />
<path d="M139.0,436.5,147.5,429.0,155.5,421.0,164.0,413.5,172.0,406.0,180.0,398.5,188.5,391.0,196.5,383.5,204.5,376.5,212.5,369.5,220.5,362.0,228.5,354.5,236.0,346.5,243.5,339.0,251.0,331.0,258.5,323.0" stroke="black" stroke-width="2" fill="none" />
<path d="M258.5,327.5,250.5,327.5" stroke="black" stroke-width="2" fill="none" />
<path d="M242.0,323.5,235.0,331.0,227.5,338.5,219.5,346.5,211.0,355.0,202.5,363.0,195.0,370.5,187.5,377.5,179.5,385.5,171.5,393.0,163.5,400.5,155.0,408.0,147.0,415.0,139.0,422.5,131.5,430.0" stroke="black" stroke-width="2" fill="none" />
<path d="M133.5,426.5,141.5,426.0,149.5,425.0,157.0,424.0,164.5,423.5,172.5,422.5,180.5,422.5" stroke="black" stroke-width="2" fill="none" />
<path d="M196.0,413.0,203.5,405.5,212.0,398.0,220.0,391.0,228.0,383.5,236.0,376.0,244.0,369.0,252.0,361.5,260.0,354.0,268.5,346.5,277.0,339.0,284.5,331.5" stroke="black" stroke-width="2" fill="none" />
<path d="M292.0,329.0,283.5,329.5,276.0,330.5,268.5,331.0,260.5,332.0,252.5,332.0,244.5,332.5,236.0,332.5,228.0,332.5,220.5,332.5,212.0,333.5,204.0,333.5,195.5,334.0,187.0,335.0,179.0,335.5,171.0,336.0,163.0,336.5,155.0,337.0,147.5,338.0,140.0,338.5" stroke="black" stroke-width="2" fill="none" />
<path d="M141.0,328.5,149.5,328.0,157.5,328.0,165.0,327.5,173.0,326.5,181.0,326.5,188.5,326.0,197.0,326.0,205.0,326.0,213.5,326.0,221.5,325.5,229.5,325.0,237.5,324.5,246.0,324.0" stroke="black" stroke-width="2" fill="none" />
<path d="M233.5,324.5,225.5,332.5,218.5,340.5,211.0,348.5,203.0,356.0,195.5,363.5,188.0,371.0,180.5,378.0,172.5,385.5,164.5,392.5,157.0,400.0,148.5,408.0,140.5,415.5,132.5,423.0,124.5,430.5" stroke="black" stroke-width="2" fill="none" />
<path d="M124.0,437.5,132.5,437.5,140.5,437.5,148.0,437.5,156.0,436.5,164.0,436.0,171.5,436.0" stroke="black" stroke-width="2" fill="none" />
<path d="M148.0,441.5,140.5,441.5" stroke="black" stroke-width="2" fill="none" />
<path d="M145.5,443.5,137.5,443.5,129.5,444.0" stroke="black" stroke-width="2" fill="none" />
<path d="M139.0,416.5,147.5,416.0,155.5,416.0,163.5,415.5,172.0,415.5,180.5,415.0,188.5,415.0,196.5,414.5" stroke="black" stroke-width="2" fill="none" />
<path d="M140.0,394.5,147.5,393.5,155.0,393.0,162.5,392.5,170.0,392.5,178.5,392.0,186.5,391.5,194.5,390.0,202.5,388.5,211.0,387.5,218.5,386.5,226.5,386.5,234.5,386.5,243.0,386.5,251.5,386.0,260.0,385.5,268.5,385.5,276.5,385.0,285.0,385.0,292.5,384.5" stroke="black" stroke-width="2" fill="none" />
<path d="M291.0,391.0,282.5,391.5,274.5,392.0,266.5,393.0,258.5,393.5,250.0,394.0,242.5,395.0,235.5,395.5,228.0,395.5,220.5,395.5,213.0,396.0,204.5,396.5,196.0,397.5,187.5,398.5,179.5,399.0,172.0,399.5,164.5,400.0,156.5,400.0,148.5,400.0,140.5,400.5,132.5,401.0" stroke="black" stroke-width="2" fill="none" />
<path d="M129.0,405.0,137.0,397.5,145.0,390.0,153.5,383.0,162.0,375.5,171.0,368.0,179.0,361.0,187.5,353.5,195.0,346.5,203.0,339.0,211.0,331.0,219.0,323.5" stroke="black" stroke-width="2" fill="none" />
<path d="M219.5,315.0,211.5,323.0,203.5,330.0,195.5,337.0,188.5,344.0,180.5,351.0,171.5,358.5,162.5,366.5,154.0,374.0,146.0,381.5,138.0,389.0,130.0,396.5" stroke="black" stroke-width="2" fill="none" />
<path d="M125.0,396.0,133.0,388.5,141.5,381.0,149.5,374.0,157.0,367.0,164.5,360.0,172.5,353.0,180.0,345.5,188.0,338.0,196.0,331.0,204.0,324.0,212.0,317.0" stroke="black" stroke-width="2" fill="none" />
<path d="M211.5,316.0,203.5,316.5,195.0,317.0,187.5,317.5,179.5,318.0,171.5,318.5,164.0,319.5,156.0,320.5,148.5,321.5,140.5,321.5,132.5,322.0" stroke="black" stroke-width="2" fill="none" />
<path d="M131.0,323.0,139.5,315.5,147.5,308.0,156.0,300.5" stroke="black" stroke-width="2" fill="none" />
<path d="M155.0,309.0,147.0,316.5,139.5,323.5,131.5,330.5" stroke="black" stroke-width="2" fill="none" />
<path d="M125.0,334.5,133.0,334.0,141.0,333.0,149.0,333.0,157.0,333.0,164.5,333.0,171.5,332.5,179.0,332.0,186.5,331.5,194.5,331.0,202.5,330.0,210.5,329.5,218.5,328.5,227.0,327.5,235.5,327.0,243.5,326.0,252.5,325.0,261.0,324.5,269.0,323.5,276.5,323.0,284.0,322.5,292.0,322.5,300.5,322.0,308.5,322.0" stroke="black" stroke-width="2" fill="none" />
<path d="M308.0,314.5,300.5,315.5,292.5,316.0,285.0,317.0,276.5,317.5,268.5,317.5,260.5,317.5,252.0,317.5,244.0,318.0,235.0,319.0,226.5,319.0,218.0,320.0,209.0,320.5,201.0,321.0,193.0,321.5,185.0,322.0,177.5,323.0,170.5,323.5,163.0,324.0,155.5,324.0,148.0,324.0,140.5,324.5,133.0,325.0,125.5,325.0" stroke="black" stroke-width="2" fill="none" />
<path d="M132.0,315.0,140.0,314.0,148.0,313.5,156.0,312.5,164.0,312.0,172.0,311.0,180.0,310.5" stroke="black" stroke-width="2" fill="none" />
<path d="M178.5,307.5,171.5,315.0,164.0,322.5,156.0,330.0,147.5,337.5,139.5,345.0,132.0,352.0" stroke="black" stroke-width="2" fill="none" />
<path d="M128.5,353.0,137.0,352.0,136.0,360.0,129.0,364.5,129.0,373.0,130.0,379.0" stroke="black" stroke-width="2" fill="none" />
<path d="M130.5,382.5,138.5,375.0,146.5,367.0,154.5,359.5,163.0,352.0,171.0,344.5,179.5,337.0,187.5,329.0,195.5,321.5,203.5,313.5" stroke="black" stroke-width="2" fill="none" />
<path d="M208.5,311.0,216.5,313.0,222.5,318.0" stroke="black" stroke-width="2" fill="none" />
<path d="M204.5,306.0,196.0,313.5,188.0,321.5,180.0,329.0,172.0,336.5,163.5,344.0,155.5,351.5,147.0,359.0,138.5,366.5,130.5,373.5" stroke="black" stroke-width="2" fill="none" />
<path d="M131.5,368.0,140.0,368.0,148.0,367.5,156.0,367.0,164.0,367.0,171.5,366.0,179.5,366.0,186.5,365.5,194.0,365.0,201.5,365.0,209.0,364.5,217.5,364.0,225.5,364.0,234.0,364.0,243.0,363.5,251.5,363.0,259.0,362.5,266.5,362.0,274.5,361.5,282.5,361.0,291.0,360.5" stroke="black" stroke-width="2" fill="none" />
<path d="M292.0,352.0,284.0,352.5,276.0,353.5,268.0,354.5,260.0,354.5,251.5,355.0,242.5,355.5,234.0,356.0,226.0,356.0,217.5,357.0,210.0,357.5,203.0,358.0,195.5,358.5,187.5,359.5,179.5,360.0,172.5,361.0,165.0,362.0,157.0,362.5,149.5,363.5,141.5,363.5" stroke="black" stroke-width="2" fill="none" />
<path d="M132.0,368.0,140.0,360.0,148.5,352.5,156.0,344.5,164.5,337.0,172.5,329.0,181.0,322.0,189.5,314.5,198.5,307.0" stroke="black" stroke-width="2" fill="none" />
<path d="M197.0,307.0,194.0,298.5" stroke="black" stroke-width="2" fill="none" />
<path d="M192.5,297.0,188.5,305.0,195.5,306.0" stroke="black" stroke-width="2" fill="none" />
<path d="M187.5,305.5,179.0,313.5,171.0,321.0,163.0,328.5,155.0,336.0,147.5,344.5,139.5,352.0,131.5,360.0,123.5,367.5" stroke="black" stroke-width="2" fill="none" />
<path d="M123.0,362.0,115.0,369.5" stroke="black" stroke-width="2" fill="none" />
<path d="M108.0,373.0,116.0,372.0,123.5,371.5,131.0,371.0,139.5,370.5,147.5,369.5,155.5,369.5,164.0,369.0,172.5,369.0,180.5,368.5,188.5,367.5,197.0,367.5,204.5,367.0,212.0,367.0,220.0,367.0,228.0,366.5,236.0,366.5,244.0,366.5,252.5,366.5,261.0,366.0,268.5,365.0,277.0,364.0,284.5,363.0,292.5,362.5,300.5,362.0" stroke="black" stroke-width="2" fill="none" />
<path d="M313.0,363.0,313.5,360.0,321.0,367.0,316.0,368.5" stroke="black" stroke-width="2" fill="none" />
<path d="M339.0,348.5,338.0,356.5,337.0,364.0,328.0,366.0,333.5,379.0,341.5,382.0,349.5,376.0" stroke="black" stroke-width="2" fill="none" />
<path d="M365.5,367.5,365.5,364.5,368.5,371.0,365.0,365.0,361.0,365.0,363.0,365.0,367.0,377.0,365.0,385.0,359.0,394.5,357.5,405.0,355.5,413.5,353.0,421.5,359.0,420.0,363.0,416.0,371.0,412.0,378.5,406.5,388.5,398.0" stroke="black" stroke-width="2" fill="none" />
<path d="M371.0,411.5,365.0,419.5" stroke="black" stroke-width="2" fill="none" />
<path d="M306.5,301.5,298.5,302.0" stroke="black" stroke-width="2" fill="none" />
<path d="M301.0,304.0,297.5,312.0" stroke="black" stroke-width="2" fill="none" />
<path d="M294.5,304.0,291.5,305.0" stroke="black" stroke-width="2" fill="none" />
<path d="M283.5,308.0,290.5,305.5,297.0,298.5,305.0,297.5,309.0,307.0" stroke="black" stroke-width="2" fill="none" />
<path d="M307.5,292.5,299.5,293.5,291.5,294.0" stroke="black" stroke-width="2" fill="none" />
<path d="M281.5,291.5,273.5,292.0" stroke="black" stroke-width="2" fill="none" />
<path d="M264.5,296.0,272.5,298.5,279.5,297.0,277.5,303.0,280.5,295.5,289.5,288.5,298.0,287.5,303.0,291.5,303.0,294.5" stroke="black" stroke-width="2" fill="none" />
<path d="M309.0,284.5,316.5,284.0" stroke="black" stroke-width="2" fill="none" />
<path d="M322.0,280.0,321.5,287.5,320.5,295.5,319.0,303.5,322.0,295.0,330.5,292.0" stroke="black" stroke-width="2" fill="none" />
<path d="M332.5,267.5,324.5,268.0,316.5,269.0" stroke="black" stroke-width="2" fill="none" />
<path d="M317.0,276.5,309.5,276.5" stroke="black" stroke-width="2" fill="none" />
<path d="M300.0,262.5,308.0,262.0,316.0,261.5,324.0,261.0" stroke="black" stroke-width="2" fill="none" />
<path d="M317.0,254.0,324.5,253.5,332.5,252.0" stroke="black" stroke-width="2" fill="none" />
<path d="M333.0,249.5,335.0,257.5,337.0,265.5,337.0,274.0" stroke="black" stroke-width="2" fill="none" />
<path d="M342.0,249.0,350.0,243.0" stroke="black" stroke-width="2" fill="none" />
<path d="M347.5,241.0,355.5,234.0,363.5,227.0,371.5,220.0,379.0,212.5,387.0,205.0" stroke="black" stroke-width="2" fill="none" />
<path d="M372.0,202.0,364.0,209.5,355.5,217.0,347.5,224.5,339.5,232.0" stroke="black" stroke-width="2" fill="none" />
<path d="M341.0,230.5,349.0,230.0,357.0,230.0,364.5,229.0,372.5,228.0,380.5,227.5,388.5,226.5,396.5,225.5,404.0,224.0,411.5,223.5,419.0,223.0" stroke="black" stroke-width="2" fill="none" />
<path d="M418.5,237.5,411.0,237.5,403.5,238.0,395.5,238.5,388.0,239.0,380.0,239.5,372.0,240.0,364.0,240.5,356.0,241.0,347.5,242.0,339.5,242.5,332.0,243.5,324.5,244.5,317.0,245.5,309.0,247.0,301.5,247.5" stroke="black" stroke-width="2" fill="none" />
<path d="M300.0,255.5,308.0,255.0" stroke="black" stroke-width="2" fill="none" />
<path d="M318.5,242.0,326.5,242.5,334.5,237.5,340.5,240.0,348.5,237.0" stroke="black" stroke-width="2" fill="none" />
<path d="M349.0,226.0,356.5,225.0" stroke="black" stroke-width="2" fill="none" />
<path d="M359.0,227.0,357.0,235.0,351.5,243.0,358.5,234.5,364.5,238.0,372.5,231.5,374.5,222.5" stroke="black" stroke-width="2" fill="none" />
<path d="M365.0,203.0,357.0,211.0,349.0,219.0,340.5,227.0" stroke="black" stroke-width="2" fill="none" />
<path d="M324.5,224.5,316.5,224.5,308.0,224.5,300.0,225.0,291.0,226.0,282.5,226.0,274.0,227.0,265.0,227.5,257.0,228.0,249.0,228.5,241.0,229.0,233.5,230.0,226.5,230.5,219.0,231.0,211.5,231.0,204.0,231.0,196.5,231.5,189.0,232.0,181.5,232.0,173.5,233.0,165.0,233.5,157.0,234.0,149.0,233.5,141.0,234.0,133.0,234.5,124.5,235.0,116.5,236.0,108.0,236.5,100.0,237.5" stroke="black" stroke-width="2" fill="none" />
<path d="M101.5,243.5,109.5,243.0,117.5,243.0,125.5,243.5,134.0,243.5,142.5,243.0,150.0,243.0,157.5,242.5,165.5,242.0,173.0,242.0,181.0,241.5,189.0,241.0,197.0,240.0,205.0,240.0" stroke="black" stroke-width="2" fill="none" />
<path d="M196.5,236.0,188.0,243.5" stroke="black" stroke-width="2" fill="none" />
<path d="M195.5,242.0,203.5,235.0,211.5,228.0" stroke="black" stroke-width="2" fill="none" />
<path d="M219.5,232.5,227.5,225.0,235.5,217.5" stroke="black" stroke-width="2" fill="none" />
<path d="M228.0,219.5,219.5,226.5" stroke="black" stroke-width="2" fill="none" />
<path d="M221.5,235.0,228.5,234.0,228.5,242.0" stroke="black" stroke-width="2" fill="none" />
<path d="M228.0,234.5,236.0,227.0,244.0,220.0" stroke="black" stroke-width="2" fill="none" />
<path d="M243.0,228.0,235.5,235.0" stroke="black" stroke-width="2" fill="none" />
<path d="M242.0,232.0,249.5,240.0,258.0,239.5,266.0,240.5" stroke="black" stroke-width="2" fill="none" />
<path d="M267.5,241.5,275.5,234.0" stroke="black" stroke-width="2" fill="none" />
<path d="M267.0,235.0,259.0,243.0" stroke="black" stroke-width="2" fill="none" />
<path d="M258.5,236.0,250.5,243.5" stroke="black" stroke-width="2" fill="none" />
<path d="M250.5,233.5,258.5,225.5" stroke="black" stroke-width="2" fill="none" />
<path d="M252.0,226.0,244.0,233.5" stroke="black" stroke-width="2" fill="none" />
<path d="M245.5,225.5,237.5,226.0" stroke="black" stroke-width="2" fill="none" />
<path d="M229.5,224.5,225.5,232.5,220.5,238.5,222.0,234.0" stroke="black" stroke-width="2" fill="none" />
<path d="M225.5,245.0,217.0,245.5" stroke="black" stroke-width="2" fill="none" />
<path d="M206.0,239.5,210.0,232.5,201.5,242.5,194.5,243.0,197.5,235.5,197.5,227.5,195.5,214.5,193.0,212.5,189.0,211.5,191.0,203.5,187.5,198.0,182.0,189.0" stroke="black" stroke-width="2" fill="none" />
<path d="M179.0,185.5,179.0,182.0,179.0,188.0,173.0,196.5,170.5,204.5,171.5,197.0,179.5,194.0,176.0,204.5,191.0,188.5,204.0,201.5,216.0,200.5,214.0,211.5,214.0,225.0,213.0,233.0,208.5,234.5,206.5,244.5,205.0,251.0,195.0,259.5,191.5,265.5,185.5,273.0,182.5,281.0,180.5,283.0,192.5,290.5,196.5,295.5,201.5,299.5,202.0,307.5,205.0,313.5,203.0,316.5" stroke="black" stroke-width="2" fill="none" />
<path d="M198.5,320.0,190.5,318.5" stroke="black" stroke-width="2" fill="none" />
<path d="M171.5,307.0,164.0,314.5,156.0,322.5,148.0,330.5,139.5,338.0,131.5,345.0" stroke="black" stroke-width="2" fill="none" />
<path d="M123.5,346.5,132.5,338.5,141.0,330.5,149.0,323.0,157.0,315.5,165.0,308.0" stroke="black" stroke-width="2" fill="none" />
<path d="M157.5,305.5,149.0,306.0,141.0,307.0,133.0,307.0" stroke="black" stroke-width="2" fill="none" />
<path d="M131.5,305.5,139.5,298.0" stroke="black" stroke-width="2" fill="none" />
<path d="M146.5,299.0,138.5,306.5,131.0,314.0" stroke="black" stroke-width="2" fill="none" />
<path d="M123.5,308.5,131.5,301.5" stroke="black" stroke-width="2" fill="none" />
<path d="M130.0,294.0,121.5,301.0" stroke="black" stroke-width="2" fill="none" />
<path d="M115.5,299.0,108.0,306.5" stroke="black" stroke-width="2" fill="none" />
<path d="M106.5,302.0,115.0,301.5,123.5,301.0,132.0,300.5,140.5,300.5,148.5,300.0,157.0,299.5,165.0,298.5,172.5,298.0,180.5,298.0,188.5,297.0,196.5,296.5" stroke="black" stroke-width="2" fill="none" />
<path d="M188.0,285.0,188.0,281.0,196.0,274.5,204.0,272.5,209.5,275.5,201.5,283.5,200.5,286.5,204.5,290.0,206.5,300.0,206.0,306.5,202.5,314.5,204.0,308.5,212.0,305.5,220.0,310.5,218.5,322.5,228.5,326.5,230.0,326.0" stroke="black" stroke-width="2" fill="none" />
<path d="M242.5,307.5,243.0,315.5,254.5,320.5" stroke="black" stroke-width="2" fill="none" />
<path d="M256.0,310.5,256.0,318.5,265.5,326.5" stroke="black" stroke-width="2" fill="none" />
<path d="M274.0,326.0,273.5,318.0" stroke="black" stroke-width="2" fill="none" />
<path d="M275.5,316.5,284.0,316.0" stroke="black" stroke-width="2" fill="none" />
<path d="M279.5,319.0,285.0,326.5,291.5,327.5,299.5,323.0" stroke="black" stroke-width="2" fill="none" />
<path d="M275.5,270.0,267.0,270.5" stroke="black" stroke-width="2" fill="none" />
<path d="M262.5,267.5,244.5,272.0,255.0,275.0,263.0,277.0,271.5,278.0,279.0,280.0,283.5,283.5,291.5,282.5,292.5,279.5,301.0,279.5,309.0,275.5,305.5,277.5,301.5,283.5,297.5,292.0,290.5,297.5,286.5,298.5,278.0,303.5,274.0,315.0,276.0,323.0,285.0,329.0,287.5,329.0,295.5,330.0,300.0,328.0,306.0,321.0,314.0,320.5,322.0,322.5,331.0,332.5,332.5,337.5" stroke="black" stroke-width="2" fill="none" />
<path d="M301.0,402.5,292.5,403.0,284.5,403.5,276.0,404.0,268.0,404.5,260.5,405.0,252.5,405.5,244.5,406.0,236.5,406.0,228.0,406.5,219.5,406.5,211.5,407.0,203.5,407.0,195.0,407.5,187.5,408.5,179.5,410.0,171.5,410.5,163.0,411.5,155.5,412.0,147.0,413.0,139.5,414.0,132.0,414.5,124.0,415.5,116.0,416.5" stroke="black" stroke-width="2" fill="none" />
<path d="M107.0,405.5,115.0,405.0,122.5,404.0,130.5,403.5,139.0,403.5,147.0,403.5,155.0,403.5,163.5,403.5,171.5,403.5,180.5,403.0,189.0,402.5,196.5,402.0,204.5,401.0,212.0,400.0,219.5,399.0,227.0,399.0,235.0,398.0,243.5,397.5,251.5,396.5,259.0,396.0,267.5,395.5,275.0,395.0,282.5,394.5,290.5,394.5,298.5,394.5" stroke="black" stroke-width="2" fill="none" />
<path d="M259.0,276.0,251.5,276.0" stroke="black" stroke-width="2" fill="none" />
<path d="M254.0,276.5,246.0,277.5" stroke="black" stroke-width="2" fill="none" />
<path d="M244.5,281.0,244.5,281.0,252.0,289.0,252.0,298.5,245.5,308.5,246.5,316.5,244.5,324.5,245.5,316.0,254.0,316.0,262.0,321.0,274.0,326.0,282.0,327.0,280.0,317.5,288.0,315.5,290.0,310.5,300.5,312.5,311.5,309.5,320.5,311.5,325.5,309.0,330.5,304.0,331.0,311.0,337.5,315.0,346.0,312.0,356.0,305.5,366.0,301.0,373.5,295.0,386.0,290.5,388.5,292.0,402.5,287.5" stroke="black" stroke-width="2" fill="none" />
<path d="M374.5,264.0,373.5,271.5,371.5,281.5,370.5,289.5,375.0,294.5,373.0,302.0,371.0,310.5,365.5,312.5,357.5,319.0,348.0,323.0,345.0,332.5,350.0,333.5,356.0,334.0,364.0,329.0,369.0,323.0,377.0,315.5,379.0,316.0,382.0,307.0,390.0,317.0,396.0,324.0" stroke="black" stroke-width="2" fill="none" />
<path d="M395.0,372.0,387.5,373.0,379.5,373.5,372.0,374.0,364.0,374.5,356.0,375.0,348.0,375.5,340.0,376.0,331.5,376.5,324.0,377.5,316.5,378.0,308.5,379.0,300.5,379.0,292.5,379.5,284.0,379.5,276.0,379.5,268.5,379.5,260.0,380.5,252.0,380.5,243.5,381.0,235.0,382.0,227.0,382.5,219.0,383.0,211.0,383.5,203.0,384.0,195.5,385.0,188.0,385.5,180.0,385.5,172.0,385.5,164.5,386.0,156.5,386.5,148.5,386.5,140.5,387.5,132.0,388.0,123.5,388.0,115.5,388.0,107.0,388.5" stroke="black" stroke-width="2" fill="none" />
<path d="M109.0,390.5,117.0,392.0,119.5,394.0,120.5,402.0,121.5,405.5,123.0,413.5,123.0,425.5,120.5,430.5,128.5,438.0,136.5,438.5,144.5,434.5,152.0,430.5,143.5,434.5" stroke="black" stroke-width="2" fill="none" />
<path d="M116.5,402.0,125.0,394.5" stroke="black" stroke-width="2" fill="none" />
<path d="M120.0,390.0,129.5,396.0,130.0,404.0,131.0,413.5" stroke="black" stroke-width="2" fill="none" />
<path d="M116.0,393.0,124.5,385.5" stroke="black" stroke-width="2" fill="none" />
<path d="M126.5,387.0,118.5,387.0" stroke="black" stroke-width="2" fill="none" />
<path d="M115.5,386.0,123.5,379.0" stroke="black" stroke-width="2" fill="none" />
<path d="M121.5,384.0,113.5,383.0" stroke="black" stroke-width="2" fill="none" />
<path d="M108.5,383.5,116.5,382.5,125.0,382.5,133.5,382.0,141.5,381.0,149.5,380.5,157.5,379.5,165.5,378.5,173.0,377.5,181.0,376.0,189.0,375.5,197.5,375.0,205.5,375.0,213.0,374.5,221.0,373.5,229.0,373.5,236.5,373.0,245.0,373.0,253.0,373.0,261.5,373.0,269.5,372.5,277.5,372.0,285.5,371.5,294.0,371.0,301.5,371.0,310.0,371.0,317.5,370.5,325.0,370.5,332.5,370.0,340.0,369.0,348.0,368.5,356.0,368.0,363.5,367.0,371.5,366.0,380.0,365.0,387.5,363.5,395.5,362.5" stroke="black" stroke-width="2" fill="none" />
<path d="M396.5,347.0,388.5,348.0,381.0,349.0,372.5,349.5,364.5,350.5,356.5,351.0,348.5,351.5,340.5,351.5,332.0,352.0,323.5,353.0,315.5,354.0,307.0,355.0,299.0,355.5,291.0,355.5,282.5,355.5,274.0,356.0,266.0,356.0,258.0,357.0,250.5,357.5,243.0,358.0,234.5,358.0,226.5,358.5,218.5,358.5,210.0,358.5,201.5,358.5,193.5,358.5,185.5,359.0,177.5,360.0,169.0,361.0,161.0,362.0,153.0,363.0,145.5,364.0,137.0,364.0,129.5,364.0,122.0,364.0,115.0,364.0,107.0,365.0" stroke="black" stroke-width="2" fill="none" />
<path d="M106.5,356.0,114.5,355.5,123.0,355.5,131.0,355.0,138.5,354.5,146.5,354.0,155.0,353.5,163.0,353.5,171.5,353.5,179.5,353.0,187.5,352.5,195.5,352.0,203.0,352.0,211.0,352.0,219.0,352.0,227.5,351.5,235.5,351.0,244.5,350.5,253.0,349.5,261.0,349.0,268.5,348.5,276.5,347.5,284.5,347.5,292.0,347.0,299.0,347.0,307.0,347.0,315.0,346.5,323.0,345.5,331.0,344.5,339.0,343.5,347.0,343.0,355.0,342.5,363.0,342.5,371.5,342.0,380.5,342.0,389.0,341.0,397.0,340.5" stroke="black" stroke-width="2" fill="none" />
<path d="M306.5,337.5,299.5,337.5,292.0,338.5,284.5,339.0,277.5,339.5,269.5,340.0,261.0,340.0,252.5,340.5,244.5,341.0,236.5,341.5,228.5,341.5,220.5,342.5,213.0,343.0,205.5,344.0,197.5,345.0,189.5,345.5,181.5,346.0,173.0,345.5,164.5,346.0,156.5,347.0,148.0,347.5,140.0,348.0,131.5,348.0,123.5,348.5,116.0,349.5,107.5,350.0" stroke="black" stroke-width="2" fill="none" />
<path d="M109.0,342.0,117.0,341.5,124.5,340.5,132.0,340.0,139.0,339.0,147.0,338.5,155.5,338.0,164.0,337.5,172.5,337.0,180.5,336.5,188.5,336.0,196.5,335.5,204.5,335.0,212.5,335.0,220.5,335.0,228.0,334.5,235.5,334.0,243.5,333.5,252.0,332.5,260.5,331.5,269.0,331.0,276.5,330.5,284.0,330.5,291.5,330.5,298.5,330.0,306.0,329.0" stroke="black" stroke-width="2" fill="none" />
<path d="M366.0,313.0,357.5,315.5,364.0,304.0,373.0,296.5,375.0,288.5,379.0,285.5,380.5,277.5,379.0,286.5,369.5,296.0,368.5,287.5,367.5,282.5,363.5,278.5,365.5,270.0,371.0,262.0,365.0,263.5,366.0,255.5,370.0,246.0,373.0,238.0,371.5,233.0,374.5,225.0,378.0,225.0,380.5,216.5,381.0,208.0,385.0,198.0,386.0,189.5,384.0,175.0,391.0,167.0,392.5,159.0,398.5,153.0,397.5,148.0,398.0,139.5,390.5,131.5,384.0,126.5,376.0,127.5,368.0,129.5,360.0,128.0,352.0,126.0,344.0,125.0,336.0,125.0" stroke="black" stroke-width="2" fill="none" />
<path d="M335.0,131.5,335.0,139.5,335.5,147.5,342.5,154.5,352.5,159.5,360.0,159.5,368.0,158.0,376.0,157.0,377.5,155.5,384.5,156.5,392.5,153.0,403.5,149.5,409.5,156.0" stroke="black" stroke-width="2" fill="none" />
<path d="M417.0,151.5,409.0,141.5,399.0,140.0,391.0,141.0" stroke="black" stroke-width="2" fill="none" />
<path d="M392.0,146.0,389.5,154.0,380.5,160.0,378.5,167.0,376.5,175.0,374.0,175.5,376.0,176.5,384.0,177.0,385.0,173.5,392.5,167.0,398.0,175.5" stroke="black" stroke-width="2" fill="none" />
<path d="M394.5,180.5,386.0,188.0" stroke="black" stroke-width="2" fill="none" />
<path d="M380.0,186.0,378.5,194.5" stroke="black" stroke-width="2" fill="none" />
<path d="M372.5,194.5,380.5,186.5,388.5,179.0" stroke="black" stroke-width="2" fill="none" />
<path d="M406.5,183.0,404.5,191.0,402.5,194.5,399.5,202.5,397.5,203.5,394.5,211.0,393.5,219.0,394.5,222.0,401.5,214.0,407.5,206.0,415.5,204.0" stroke="black" stroke-width="2" fill="none" />
<path d="M418.5,197.5,410.5,205.0,402.5,211.5" stroke="black" stroke-width="2" fill="none" />
<path d="M410.0,211.5,413.0,219.5,412.5,226.0,410.5,234.0,408.0,241.5,406.0,254.5,404.0,262.5,407.0,265.5,404.0,271.0,404.0,278.0,395.0,288.0,401.0,287.0" stroke="black" stroke-width="2" fill="none" />
<path d="M401.0,248.5,389.5,251.5,380.0,245.0,372.0,252.0" stroke="black" stroke-width="2" fill="none" />
<path d="M331.0,223.5,322.0,219.0,315.0,214.0" stroke="black" stroke-width="2" fill="none" />
<path d="M318.0,215.5,326.0,223.0" stroke="black" stroke-width="2" fill="none" />
<path d="M316.0,220.0,308.0,220.5" stroke="black" stroke-width="2" fill="none" />
<path d="M308.0,212.0,316.0,211.5,324.0,211.5,332.0,211.5,340.0,211.0,347.5,210.5,356.0,210.0,364.5,209.5,372.5,209.0,380.5,209.0,388.5,208.5,396.0,208.0,404.0,207.5,411.5,207.0,419.5,206.5,428.0,206.0" stroke="black" stroke-width="2" fill="none" />
<path d="M428.0,183.5,419.5,184.0,411.5,184.5,403.0,184.5,395.5,185.0,387.5,186.0,379.5,187.0,372.0,188.0,364.0,189.0,356.0,190.0,349.0,190.5,341.0,191.0" stroke="black" stroke-width="2" fill="none" />
<path d="M340.0,201.5,332.5,202.5,324.0,203.0,316.0,204.0,308.5,204.0,300.5,204.0,292.0,204.5,284.0,204.5" stroke="black" stroke-width="2" fill="none" />
<path d="M284.5,213.0,292.0,212.5" stroke="black" stroke-width="2" fill="none" />
<path d="M287.5,216.5,278.0,216.5,272.0,217.0,264.0,225.0,267.0,223.5,273.0,215.5,267.0,208.5,273.0,207.5,272.0,200.0,283.0,193.0,282.0,188.0,290.0,182.0,292.5,173.5,290.5,165.0,289.0,157.0,291.0,149.0,292.0,141.5,290.0,136.5,294.0,128.5,294.0,128.5" stroke="black" stroke-width="2" fill="none" />
<path d="M294.5,128.5,301.0,136.5,304.0,144.5,294.5,146.0,305.5,147.0,301.5,155.0,306.0,160.0,299.0,160.0,297.0,166.0,293.0,180.0,300.5,179.0,312.5,179.0,320.5,171.5" stroke="black" stroke-width="2" fill="none" />
<path d="M324.5,173.0,333.0,173.0" stroke="black" stroke-width="2" fill="none" />
<path d="M333.5,169.0,338.5,162.0,333.5,170.5,332.0,178.5,339.0,171.0,345.0,178.0,352.5,177.0,351.5,185.0,350.0,192.5,344.5,200.5,346.5,202.5,350.5,203.5,354.5,199.5,359.5,205.5,365.0,189.0,371.5,189.0,382.5,200.5,392.0,190.5,398.0,199.0,397.0,192.0,402.0,196.0,410.0,195.0,422.0,191.5" stroke="black" stroke-width="2" fill="none" />
<path d="M413.5,190.5,411.5,182.5" stroke="black" stroke-width="2" fill="none" />
<path d="M422.0,178.5,416.5,186.0,418.5,188.0,414.5,194.5,413.0,202.5,407.0,213.5,404.0,221.0,393.5,226.0,390.5,233.5,389.0,241.5,394.5,245.5,387.5,255.5,384.5,258.5,392.5,263.0,403.0,255.0" stroke="black" stroke-width="2" fill="none" />
<path d="M340.0,258.5,336.0,253.5,337.5,245.0,323.0,240.5" stroke="black" stroke-width="2" fill="none" />
<path d="M291.0,235.5,283.0,242.5" stroke="black" stroke-width="2" fill="none" />
<path d="M277.0,244.0,285.0,236.5" stroke="black" stroke-width="2" fill="none" />
<path d="M285.5,245.5,277.5,245.5" stroke="black" stroke-width="2" fill="none" />
<path d="M274.5,254.0,283.0,253.5" stroke="black" stroke-width="2" fill="none" />
<path d="M282.5,261.0,274.5,262.0" stroke="black" stroke-width="2" fill="none" />
<path d="M275.0,258.0,283.0,256.5" stroke="black" stroke-width="2" fill="none" />
<path d="M289.0,264.5,297.5,264.0,305.5,261.0,313.5,261.5,319.0,262.5" stroke="black" stroke-width="2" fill="none" />
<path d="M291.5,222.0,283.5,222.5,276.5,223.5,269.0,224.0" stroke="black" stroke-width="2" fill="none" />
<path d="M260.0,212.0,252.0,213.0,243.5,213.5,236.0,214.5,227.5,215.0,219.0,215.0,210.5,215.5,202.5,215.5,195.0,216.0,187.0,216.5,179.5,217.0,171.5,218.0,163.5,218.0,155.5,219.0,147.5,219.5,139.0,220.0,130.5,220.5,122.5,220.5" stroke="black" stroke-width="2" fill="none" />
<path d="M124.5,220.0,132.0,212.0" stroke="black" stroke-width="2" fill="none" />
<path d="M139.0,219.0,146.5,211.5,154.0,203.5,161.5,195.5" stroke="black" stroke-width="2" fill="none" />
<path d="M161.0,204.0,153.0,211.5,146.0,219.0" stroke="black" stroke-width="2" fill="none" />
<path d="M156.0,226.0,164.0,218.0,172.0,210.5" stroke="black" stroke-width="2" fill="none" />
<path d="M179.5,211.5,187.5,204.0" stroke="black" stroke-width="2" fill="none" />
<path d="M194.5,202.0,187.0,210.0,179.0,218.0,171.5,226.0,164.0,233.0,156.5,241.0" stroke="black" stroke-width="2" fill="none" />
<path d="M163.5,241.5,171.0,235.0,179.0,227.5,187.5,219.5,195.5,212.0" stroke="black" stroke-width="2" fill="none" />
<path d="M195.5,220.0,188.0,227.5,180.0,235.0,172.5,242.5" stroke="black" stroke-width="2" fill="none" />
<path d="M179.5,243.5,187.5,235.5,196.0,228.0" stroke="black" stroke-width="2" fill="none" />
<path d="M203.5,225.0,212.0,217.5,220.0,210.0" stroke="black" stroke-width="2" fill="none" />
<path d="M229.0,205.0,236.5,204.5,244.0,204.5,251.5,204.5,258.5,204.0,266.0,203.0" stroke="black" stroke-width="2" fill="none" />
<path d="M258.5,202.5,251.0,203.0,243.0,203.5,235.5,204.0,227.5,205.0,219.5,205.0,211.5,206.0,203.5,206.5,195.0,207.0,186.5,207.5,178.5,207.5,170.5,208.0,162.5,209.0,155.0,209.5,148.0,210.0,141.0,211.0,133.5,211.5,125.5,212.0,118.0,212.5,110.0,213.5,101.5,214.0" stroke="black" stroke-width="2" fill="none" />
<path d="M116.0,211.5,117.0,219.5,125.0,226.5" stroke="black" stroke-width="2" fill="none" />
<path d="M132.5,228.5,127.5,233.5,130.5,232.0,136.0,223.5,132.0,217.0,133.0,209.0,134.0,201.0,133.0,192.5,138.0,188.0,142.0,183.0,139.0,178.0" stroke="black" stroke-width="2" fill="none" />
<path d="M145.5,188.0,153.5,180.5" stroke="black" stroke-width="2" fill="none" />
<path d="M149.0,164.5,140.5,164.5" stroke="black" stroke-width="2" fill="none" />
<path d="M140.5,165.0,138.5,165.0,137.0,172.5,136.0,184.5,136.5,192.0,137.5,200.0,138.5,202.5,137.0,214.0,134.5,218.0,127.5,225.5,125.5,233.5,127.5,247.5,130.5,248.0,130.0,253.0,130.0,255.5,128.5,266.0,124.5,273.5,131.5,270.0,138.0,276.0,146.0,268.0,147.0,266.0,155.0,262.0,162.5,263.5,170.5,261.0,178.0,259.0,180.5,254.5,188.5,249.5,196.5,251.5,204.5,250.0,213.0,250.0,223.5,245.0,231.5,246.0,240.5,251.0,248.0,248.5,256.0,249.5,263.0,256.5,271.0,260.0,272.0,266.5,271.5,279.5,275.5,279.0,284.5,288.0,275.5,296.0,270.5,301.0,275.5,308.0,283.5,308.0,289.5,315.5,289.5,318.5,287.5,324.5,296.5,327.5,293.5,333.5,298.5,341.5,297.5,349.5,297.5,358.5,295.5,367.0,294.5,375.0,294.5,383.0,292.5,390.5,292.5,395.5,291.5,403.5,289.5,411.5,288.5,420.0,287.5,427.5,288.5,434.5,289.5,442.0,294.5,450.0,292.0,458.0,291.0,466.0,289.0,473.5,293.0,481.0,299.5,481.0,303.0,478.5,308.0,474.5,313.5,478.0,327.5,470.0" stroke="black" stroke-width="2" fill="none" />
<path d="M287.0,283.5,275.0,281.5,262.0,280.5,253.5,281.0,251.5,288.0,249.5,291.0,241.0,282.0" stroke="black" stroke-width="2" fill="none" />
<path d="M240.5,283.0,244.5,291.0,245.0,298.5" stroke="black" stroke-width="2" fill="none" />
<path d="M250.0,278.5,242.0,277.5" stroke="black" stroke-width="2" fill="none" />
<path d="M241.5,276.5,236.5,284.5,238.0,292.5,238.5,300.0,232.0,310.5,225.5,322.0" stroke="black" stroke-width="2" fill="none" />
<path d="M238.0,297.0,237.0,289.0,234.0,287.5,236.0,279.0,226.0,275.0" stroke="black" stroke-width="2" fill="none" />
<path d="M225.5,270.5,233.5,269.5,225.0,274.0,222.0,282.0,224.5,289.0,225.5,303.0,223.0,310.5,225.0,311.5,223.0,309.0,231.5,306.0,240.5,303.0,246.0,309.5,255.0,309.5,264.0,309.0,270.0,304.0,278.0,298.0,286.0,297.0,286.5,290.0,291.5,297.0,296.0,289.0,300.0,284.5,313.0,286.0,318.0,277.5,314.0,286.0,313.5,293.5,312.0,301.5,309.0,307.0,304.5,311.5,301.5,319.5,305.5,319.0,303.5,328.0,302.5,336.5,309.5,344.5,306.5,353.0,305.0,361.0,299.5,361.0,309.5,355.0,319.5,349.0,329.0,345.0,330.0,349.0,336.5,347.5,345.0,338.0" stroke="black" stroke-width="2" fill="none" />
<path d="M250.5,269.5,242.0,270.0,234.0,270.0" stroke="black" stroke-width="2" fill="none" />
<path d="M221.5,268.5,213.5,276.5,209.5,285.0,219.0,285.0,216.0,293.5,221.5,293.0,229.5,289.5,237.5,294.0,244.0,296.0,252.0,302.0" stroke="black" stroke-width="2" fill="none" />
<path d="M246.5,262.5,254.5,261.5,262.5,259.5" stroke="black" stroke-width="2" fill="none" />
<path d="M244.5,245.5,236.5,246.5" stroke="black" stroke-width="2" fill="none" />
<path d="M255.0,267.5,246.5,266.0,238.5,264.0,230.5,267.0,223.0,270.0,215.0,276.0,205.5,276.5,198.0,275.5,193.0,272.5,185.0,282.5" stroke="black" stroke-width="2" fill="none" />
<path d="M198.5,281.0,206.5,279.0,217.0,269.5,227.5,272.5,233.0,273.0,241.0,266.0,245.0,269.5,253.0,268.0,261.0,274.0,270.0,273.5,278.0,276.5,282.0,272.5,290.5,266.5,298.5,267.5" stroke="black" stroke-width="2" fill="none" />
<path d="M308.0,217.5,300.0,218.0,291.5,218.5,283.0,218.0,274.5,218.0,266.5,218.5,258.5,219.0,250.5,219.0,243.0,220.0,235.0,220.5,227.0,221.0,218.5,221.5,211.0,222.0,203.0,223.5,195.5,224.5,188.0,225.0,180.0,226.5,172.5,227.0,164.5,227.5,156.5,228.0,148.5,228.5,141.0,229.0,132.5,229.5,125.0,230.0,117.0,230.5,108.0,230.5,100.0,230.5" stroke="black" stroke-width="2" fill="none" />
<path d="M103.5,230.5,111.5,230.5,118.5,232.0,126.0,235.0" stroke="black" stroke-width="2" fill="none" />
<path d="M131.0,236.5,123.0,244.0" stroke="black" stroke-width="2" fill="none" />
<path d="M127.5,240.5,119.5,238.5" stroke="black" stroke-width="2" fill="none" />
<path d="M131.5,243.5,140.0,236.0" stroke="black" stroke-width="2" fill="none" />
<path d="M136.0,233.5,144.0,232.5,151.0,231.5" stroke="black" stroke-width="2" fill="none" />
<path d="M149.0,234.5,140.5,242.0,132.5,249.5" stroke="black" stroke-width="2" fill="none" />
<path d="M126.5,252.0,133.5,249.0,141.5,251.0,148.5,258.5,150.5,259.0,159.0,255.0,160.0,260.0,167.5,255.0,175.5,253.5" stroke="black" stroke-width="2" fill="none" />
<path d="M167.0,252.5,159.5,252.0,156.5,257.0" stroke="black" stroke-width="2" fill="none" />
<path d="M145.0,269.5,147.0,266.5,148.0,274.5,144.0,273.5,140.0,287.0,143.5,295.0,147.5,294.0,156.0,289.0,165.0,275.0,166.5,266.5,168.5,263.5,173.5,272.5" stroke="black" stroke-width="2" fill="none" />
<path d="M181.5,265.0,181.5,273.0,174.0,269.5,183.5,263.5,191.5,265.5,199.0,261.5,203.0,264.5,206.0,265.5,214.0,261.5,222.5,264.0,230.5,261.5,235.5,260.0,243.5,259.0,251.5,255.0,259.5,256.5,264.0,262.5,272.0,262.5,279.0,268.0,287.0,274.5,295.5,275.5,303.5,276.5,311.5,273.5,323.5,279.5,331.0,281.0" stroke="black" stroke-width="2" fill="none" />
<path d="M299.5,239.5,302.5,237.5,306.5,229.5,305.5,223.5,307.5,215.5,306.5,206.0,312.5,202.5,315.0,199.5,317.5,199.5,313.5,191.5,319.0,182.5,320.5,180.5,322.5,172.5,326.0,164.5,323.0,156.5,317.0,157.5,309.5,160.5,306.5,156.5,306.5,144.5,312.5,139.0,314.5,144.0" stroke="black" stroke-width="2" fill="none" />
<path d="M306.0,141.0,297.5,141.5" stroke="black" stroke-width="2" fill="none" />
<path d="M292.5,142.0,285.0,143.0" stroke="black" stroke-width="2" fill="none" />
<path d="M292.0,144.0,300.0,144.0" stroke="black" stroke-width="2" fill="none" />
<path d="M299.0,133.0,307.0,132.5,315.0,132.5" stroke="black" stroke-width="2" fill="none" />
<path d="M318.5,135.5,315.5,143.5,312.0,144.5,311.5,152.5,312.0,160.5,319.0,169.0,313.0,174.5,310.0,182.5,308.5,184.5,302.5,190.5,297.5,195.5,294.5,204.5,288.5,212.5,293.5,214.5,284.5,217.0,281.0,228.0,280.0,235.5,285.0,248.5,290.0,249.5,298.0,246.5,309.0,244.5,317.0,232.0" stroke="black" stroke-width="2" fill="none" />
<path d="M306.0,249.0,305.0,236.5,308.0,232.5,312.5,222.5,316.0,214.5,316.0,212.5,320.0,204.0,321.5,196.5,309.5,198.5" stroke="black" stroke-width="2" fill="none" />
<path d="M316.5,197.5,308.5,198.0,300.5,198.5" stroke="black" stroke-width="2" fill="none" />
<path d="M299.0,174.0,307.0,173.5,315.0,173.5" stroke="black" stroke-width="2" fill="none" />
<path d="M314.0,167.0,309.0,174.5,307.0,182.5,320.0,182.5" stroke="black" stroke-width="2" fill="none" />
<path d="M329.5,191.0,333.5,199.0,326.5,208.5,337.0,221.0" stroke="black" stroke-width="2" fill="none" />
<path d="M334.0,227.5,338.0,220.5,342.5,211.0,335.0,210.5,329.0,203.0,323.0,199.0,313.5,203.0,311.5,208.5,305.5,205.5,301.0,208.5,293.5,210.5,282.5,211.5,278.5,220.0,271.5,220.0,262.5,205.0,254.5,209.0,251.5,215.0,249.5,223.0,242.0,228.0,234.0,239.0,226.0,243.0,216.0,246.0,214.0,244.0,219.0,236.0,219.0,228.0,217.0,214.5,219.5,211.5,219.5,203.5,222.5,195.5,228.0,189.5,227.0,181.5,226.0,173.5,233.0,172.0,231.5,163.5,237.5,153.5,237.5,145.5,236.5,139.0,241.5,131.0,234.5,130.0,235.5,129.5" stroke="black" stroke-width="2" fill="none" />
<path d="M237.5,130.5,243.5,141.0,248.5,150.0,245.0,158.5,248.0,160.5,244.0,166.5,238.0,171.0,235.0,175.0,232.0,183.0,236.0,195.0,236.5,205.5,244.0,204.5,258.0,192.5" stroke="black" stroke-width="2" fill="none" />
<path d="M251.0,195.0,243.0,202.0" stroke="black" stroke-width="2" fill="none" />
<path d="M244.5,189.5,252.0,189.5,260.0,189.5,268.5,189.5" stroke="black" stroke-width="2" fill="none" />
<path d="M266.0,183.5,274.0,183.5" stroke="black" stroke-width="2" fill="none" />
<path d="M275.5,180.0,283.0,172.5" stroke="black" stroke-width="2" fill="none" />
<path d="M292.0,166.0,300.5,165.5" stroke="black" stroke-width="2" fill="none" />
<path d="M307.0,164.0,307.0,172.0,304.0,180.0,299.5,191.0,299.0,199.5,298.0,202.5,299.5,211.0,290.0,223.5,292.5,229.5,287.5,233.5,286.5,239.5,294.5,240.5,294.0,236.5" stroke="black" stroke-width="2" fill="none" />
<path d="M301.0,248.5,293.0,254.5,284.0,247.0,276.5,251.0,270.5,253.0,269.0,247.0,261.0,246.5,249.0,244.0,241.0,245.5,240.0,238.5,232.0,237.5,235.0,229.0,233.0,221.0,232.5,213.5,233.5,205.0,232.5,197.0,232.5,189.5,240.0,181.5,236.0,178.0,246.5,173.5,251.0,163.5,257.0,156.0,252.0,148.0,252.0,140.5,255.0,136.5" stroke="black" stroke-width="2" fill="none" />
<path d="M251.0,134.0,259.5,133.5,267.5,132.5" stroke="black" stroke-width="2" fill="none" />
<path d="M266.5,140.5,259.0,141.0,251.5,141.5" stroke="black" stroke-width="2" fill="none" />
<path d="M260.5,138.5,268.0,137.5" stroke="black" stroke-width="2" fill="none" />
<path d="M272.5,145.0,281.0,146.0" stroke="black" stroke-width="2" fill="none" />
<path d="M270.5,157.5,278.0,157.0,289.0,143.5,293.0,141.5,301.0,138.5,309.0,137.5,316.5,132.5,324.5,132.5" stroke="black" stroke-width="2" fill="none" />
<path d="M324.0,133.0,332.5,132.5" stroke="black" stroke-width="2" fill="none" />
<path d="M329.0,136.5,331.5,144.5" stroke="black" stroke-width="2" fill="none" />
<path d="M324.0,141.0,332.5,141.0,341.0,140.0" stroke="black" stroke-width="2" fill="none" />
<path d="M340.0,136.5,338.5,144.5" stroke="black" stroke-width="2" fill="none" />
<path d="M327.5,146.0,320.0,149.0,311.5,151.0,305.5,148.0,297.0,148.5,294.0,157.5,282.5,153.5,277.5,148.5,270.0,148.0,261.0,147.5,259.5,140.5,258.5,133.0,249.5,131.5,241.5,137.5,239.5,136.0,231.0,139.5,224.0,143.5,216.0,143.0,205.5,144.0,198.5,149.0,201.0,144.5,201.0,136.5" stroke="black" stroke-width="2" fill="none" />
<path d="M209.0,133.0,211.0,140.5,213.0,142.5,217.0,150.5,218.5,155.0,221.5,158.0,216.5,166.5" stroke="black" stroke-width="2" fill="none" />
<path d="M219.5,164.0,211.0,164.5,202.5,165.5,194.5,166.5,186.5,167.0" stroke="black" stroke-width="2" fill="none" />
<path d="M182.5,168.5,174.5,172.5,174.5,176.5,168.5,173.5,165.0,169.5,164.0,168.0,167.0,160.5" stroke="black" stroke-width="2" fill="none" />
<path d="M163.0,156.5,154.5,157.0" stroke="black" stroke-width="2" fill="none" />
<path d="M158.5,160.0,166.5,163.0" stroke="black" stroke-width="2" fill="none" />
<path d="M175.5,151.0,173.5,144.0,177.0,136.0,176.0,128.0" stroke="black" stroke-width="2" fill="none" />
<path d="M170.5,130.5,162.5,131.5" stroke="black" stroke-width="2" fill="none" />
<path d="M173.5,137.0,183.5,131.0,184.5,139.0,185.0,147.0,188.0,155.0,187.5,160.0,193.0,160.5,187.5,171.0,187.5,179.5,188.5,187.5,180.5,187.5,178.5,195.0,184.5,197.0,183.5,205.0,179.5,206.5,183.5,209.5,186.5,209.5,189.0,221.0,185.0,225.5,185.0,233.5" stroke="black" stroke-width="2" fill="none" />
<path d="M186.0,234.5,194.0,234.0" stroke="black" stroke-width="2" fill="none" />
<path d="M178.5,232.5,170.5,232.5" stroke="black" stroke-width="2" fill="none" />
<path d="M176.0,223.5,180.0,226.0,180.0,234.0,181.0,242.0,174.5,252.5,164.5,261.5,158.5,267.0,154.5,272.5,159.5,279.5,161.0,286.0,159.0,294.0,163.5,289.0,170.0,282.5,173.0,277.5,182.0,281.5,183.0,271.5,186.5,259.5,195.0,257.5,203.0,255.5,211.5,255.5,220.0,254.0,227.5,252.0,235.0,248.0" stroke="black" stroke-width="2" fill="none" />
<path d="M211.0,261.0,197.0,272.5,187.5,276.5,179.5,290.0,186.0,296.0,191.5,299.0,199.0,297.5,201.5,290.5,209.5,284.5,217.5,288.5,225.5,283.5,233.5,278.5,244.0,277.0,252.0,273.0,260.5,270.0,268.5,268.5,277.0,266.5,281.5,260.5,289.5,260.5,297.0,258.5,305.0,254.5" stroke="black" stroke-width="2" fill="none" />
<path d="M321.0,254.0,311.0,251.5,303.5,244.5,302.5,241.0,294.5,242.5,286.5,241.5,279.0,241.5,271.0,242.5,271.5,245.5,264.0,244.5,256.5,242.5,251.0,245.0,239.0,238.0,243.0,237.5,241.5,229.5,241.5,215.5,234.5,218.0,237.0,210.0,236.0,205.0,227.5,199.0,225.5,198.0,225.0,190.0,221.5,186.0,220.5,178.5,224.0,170.0,225.0,169.0,222.5,166.5,230.0,165.5,230.5,156.5,230.5,148.0,231.5,140.0,232.0,132.0,227.0,130.0" stroke="black" stroke-width="2" fill="none" />
<path d="M230.5,128.5,238.0,128.5,246.0,129.5,248.0,130.5,251.0,131.5,247.0,135.5,250.0,143.5,258.5,145.0,261.0,146.5,269.0,153.5,268.0,161.5,273.0,161.5,279.5,168.0,287.5,173.0,286.5,181.0,289.5,178.5,297.5,167.0,299.5,163.0,307.0,159.5,320.0,149.5,328.0,148.5,339.0,146.0,346.5,147.5,347.5,150.5,348.0,155.5,355.5,148.5,361.5,146.0,368.5,146.0,376.5,141.0,375.5,143.5,383.5,142.5,384.5,134.5,391.0,132.5,399.0,136.0,404.0,135.5,412.0,133.5,417.0,142.5,422.0,138.0,426.0,149.5" stroke="black" stroke-width="2" fill="none" />
<path d="M412.0,146.5,408.5,154.5,408.5,160.0,413.0,168.0" stroke="black" stroke-width="2" fill="none" />
<path d="M428.0,166.0,420.0,166.0,412.0,167.0,404.0,167.5,396.5,168.5,388.5,169.0,380.5,169.5,372.5,170.0,364.5,171.0,356.5,172.0,348.0,173.0,340.0,174.0" stroke="black" stroke-width="2" fill="none" />
<path d="M340.5,172.0,337.5,180.5" stroke="black" stroke-width="2" fill="none" />
<path d="M346.0,180.0,350.0,182.5,343.0,190.0,336.0,195.0,344.5,203.0,343.0,210.5" stroke="black" stroke-width="2" fill="none" />
<path d="M361.0,221.0,353.0,226.0,352.0,228.0,351.0,215.0,353.0,206.5,354.0,198.0,355.0,190.0" stroke="black" stroke-width="2" fill="none" />
<path d="M356.0,187.5,364.0,187.0" stroke="black" stroke-width="2" fill="none" />
<path d="M363.0,182.0,366.5,173.0,359.5,183.5,361.0,174.0,363.0,166.0,365.5,154.5,368.0,150.5,359.0,145.0,364.0,137.0,360.5,138.5,352.5,135.0" stroke="black" stroke-width="2" fill="none" />
<path d="M348.5,136.0,346.5,144.0,353.0,144.5,361.0,143.0,369.0,143.0,377.0,133.5,385.0,131.5,392.5,129.5,400.5,130.5,408.0,131.0,416.0,131.0" stroke="black" stroke-width="2" fill="none" />
<path d="M412.0,138.5,415.0,140.5,425.0,144.0,428.5,152.0,428.5,160.0,421.5,168.0,426.5,176.0,423.5,184.0,419.5,188.0,427.5,194.5,426.5,202.5,425.0,210.5,424.0,218.5,417.5,220.5" stroke="black" stroke-width="2" fill="none" />
<path d="M412.5,216.0,404.5,223.0,401.5,224.0,399.5,223.0,394.0,228.0,385.5,228.5,388.0,227.5,390.5,219.0,390.5,211.0,388.0,221.0,375.5,219.0,369.5,229.0,367.0,227.5,369.0,224.5,367.5,219.5,369.5,211.5,365.0,200.0,363.0,197.5,365.5,189.5,371.5,189.0" stroke="black" stroke-width="2" fill="none" />
<path d="M371.0,189.5,370.0,197.5,370.0,209.5,369.0,218.0,364.5,224.0,362.5,232.5,359.5,238.5,355.5,246.5,353.5,254.5,352.0,262.5,345.0,270.5,353.0,271.5,359.5,273.0,358.5,281.0,357.5,289.5,346.5,297.5,345.0,305.0,340.0,306.0,331.5,315.5,329.5,323.5,327.5,331.5,326.0,339.5,326.0,347.5,330.0,348.5,335.0,340.5" stroke="black" stroke-width="2" fill="none" />
<path d="M222.0,282.5,222.0,280.5,213.5,281.5" stroke="black" stroke-width="2" fill="none" />
<path d="M195.5,260.0,187.5,262.0" stroke="black" stroke-width="2" fill="none" />
<path d="M167.5,235.5,163.5,227.5,164.0,219.5,165.5,221.5" stroke="black" stroke-width="2" fill="none" />
<path d="M170.5,219.5,163.0,226.5,155.5,234.0,147.5,241.5,139.5,249.0" stroke="black" stroke-width="2" fill="none" />
<path d="M139.5,253.5,132.0,254.0,124.0,255.5" stroke="black" stroke-width="2" fill="none" />
<path d="M123.5,267.5,115.5,268.5,107.5,269.5" stroke="black" stroke-width="2" fill="none" />
<path d="M110.0,263.0,118.0,263.0,126.5,260.0,132.0,256.0,140.0,256.0,148.0,251.0,153.0,243.5,158.5,249.5,166.5,248.0,174.5,248.5,182.5,246.5,190.5,245.5,199.0,248.0,207.0,244.0" stroke="black" stroke-width="2" fill="none" />
<path d="M208.5,215.0,206.5,207.0,199.5,195.0,191.5,195.0,183.5,197.0" stroke="black" stroke-width="2" fill="none" />
<path d="M195.0,186.0,187.0,186.5,179.5,187.0,171.5,187.5,163.0,188.0,155.0,188.5,147.0,188.5,139.0,189.0,130.5,189.0,122.0,189.0,113.5,189.0" stroke="black" stroke-width="2" fill="none" />
<path d="M109.0,180.0,117.0,179.5,124.0,179.0,132.0,178.5,140.0,178.5,147.5,178.0,155.5,178.0,163.5,178.0,172.0,178.0,180.0,177.5,188.0,176.5,196.5,176.5" stroke="black" stroke-width="2" fill="none" />
<path d="M188.5,180.0,196.5,181.5,204.5,181.5" stroke="black" stroke-width="2" fill="none" />
<path d="M202.5,183.0,210.5,182.5" stroke="black" stroke-width="2" fill="none" />
<path d="M213.0,181.0,221.5,182.0,232.5,179.0" stroke="black" stroke-width="2" fill="none" />
<path d="M232.0,188.0,240.5,185.0,248.5,176.5,254.5,179.5,255.5,188.0,255.0,196.0,251.0,197.0,251.0,205.0,254.0,209.0,244.0,211.0,243.0,219.5,248.0,220.5,249.0,226.5,253.0,216.5,259.0,213.0,259.0,202.0,267.5,203.0,278.5,202.5,281.0,209.0,289.0,210.0,300.0,207.0" stroke="black" stroke-width="2" fill="none" />
<path d="M283.5,216.5,282.5,224.5,275.0,232.5,277.0,234.0,283.5,226.0,286.0,230.0" stroke="black" stroke-width="2" fill="none" />
<path d="M256.0,211.5,251.0,220.0" stroke="black" stroke-width="2" fill="none" />
<path d="M250.5,180.0,258.5,179.5,267.0,180.0,275.0,180.0" stroke="black" stroke-width="2" fill="none" />
<path d="M277.0,190.0,269.0,190.0,261.5,190.5,253.5,190.5,245.0,190.5,236.0,190.5,228.0,190.5,220.0,191.0,212.0,191.0,203.5,191.5,196.0,192.5,188.0,193.5,180.5,194.0,172.5,195.5,165.0,196.0,157.5,197.0,149.5,198.0,141.5,198.5,133.5,199.5" stroke="black" stroke-width="2" fill="none" />
<path d="M140.5,202.5,148.5,197.5,156.0,192.5,163.0,185.5" stroke="black" stroke-width="2" fill="none" />
<path d="M149.0,202.5,141.0,210.0" stroke="black" stroke-width="2" fill="none" />
<path d="M156.0,220.0,164.5,213.0" stroke="black" stroke-width="2" fill="none" />
<path d="M174.5,220.5,182.5,220.0,190.5,219.0,198.5,218.5,206.5,221.5,215.0,220.0,225.5,219.0,236.5,217.0,244.5,216.0,250.5,205.0" stroke="black" stroke-width="2" fill="none" />
<path d="M235.5,188.0,227.5,188.5,219.5,189.0" stroke="black" stroke-width="2" fill="none" />
<path d="M219.0,195.5,211.5,203.5" stroke="black" stroke-width="2" fill="none" />
<path d="M218.5,197.0,210.5,197.5,202.5,198.5,194.5,198.5,186.0,199.0,178.0,199.5,169.5,200.0,162.0,201.0,153.5,201.5,145.0,203.5,137.0,204.5,129.0,206.0,121.0,206.5" stroke="black" stroke-width="2" fill="none" />
<path d="M127.5,204.0,121.5,204.5,112.5,208.5,110.0,203.5,105.0,212.5,105.5,218.5,105.5,212.5,108.5,204.5,112.5,197.5,115.5,192.5,109.0,190.5,106.0,187.0,106.5,184.0,116.0,176.5,118.0,166.0,110.0,169.0,102.5,172.5" stroke="black" stroke-width="2" fill="none" />
<path d="M107.0,173.5,115.5,173.0,123.5,176.5,134.5,175.0,142.5,171.0,142.5,174.5" stroke="black" stroke-width="2" fill="none" />
<path d="M153.0,171.0,145.0,161.5" stroke="black" stroke-width="2" fill="none" />
<path d="M144.5,162.5,150.5,170.5,154.0,179.0,154.0,186.0,161.0,190.0,156.0,197.5,162.0,189.5,165.0,182.5" stroke="black" stroke-width="2" fill="none" />
<path d="M149.5,187.0,149.5,191.0,144.0,187.5,140.0,185.5,127.5,188.5,119.5,199.5,117.5,194.5,104.0,206.0,96.0,207.0,97.5,200.0,93.5,197.0" stroke="black" stroke-width="2" fill="none" />
<path d="M99.5,187.5,103.0,185.5,111.0,180.5" stroke="black" stroke-width="2" fill="none" />
<path d="M118.5,176.0,118.0,184.0,117.5,191.0,122.5,189.0" stroke="black" stroke-width="2" fill="none" />
<path d="M121.5,172.5,129.5,171.5,138.0,171.5,146.5,171.0,154.5,171.0,162.5,170.0,170.5,169.5,178.5,169.0,186.5,169.0,194.5,168.5,202.5,168.0,211.0,167.5,219.5,167.0,228.0,166.0,236.0,165.5,243.5,165.0,251.5,164.5,259.5,164.0,267.0,164.0,274.5,164.0,282.5,164.0,290.5,163.0" stroke="black" stroke-width="2" fill="none" />
<path d="M283.5,164.0,274.5,164.5,266.0,165.0,258.0,165.0,249.5,166.0" stroke="black" stroke-width="2" fill="none" />
<path d="M244.5,179.5,236.5,180.0,228.5,181.0,220.0,181.0" stroke="black" stroke-width="2" fill="none" />
<path d="M211.5,189.5,203.5,190.5" stroke="black" stroke-width="2" fill="none" />
<path d="M206.0,194.5,213.5,194.0,221.5,187.0,228.0,187.5" stroke="black" stroke-width="2" fill="none" />
<path d="M232.5,166.0,233.5,160.0,241.5,160.5" stroke="black" stroke-width="2" fill="none" />
<path d="M221.5,158.0,229.5,165.0,243.0,162.0,237.0,169.5,240.0,163.0,247.5,165.5,253.5,166.0,261.5,165.5,270.5,165.5,271.5,169.5,267.5,175.5,263.5,177.5,267.5,185.5" stroke="black" stroke-width="2" fill="none" />
<path d="M263.0,179.5,271.0,174.5,280.0,177.5" stroke="black" stroke-width="2" fill="none" />
<path d="M288.0,181.5,280.0,185.5,272.0,188.5,267.0,182.0,273.0,174.5,262.0,173.5" stroke="black" stroke-width="2" fill="none" />
<path d="M264.5,158.0,262.5,158.0,262.5,165.5,263.0,171.5,258.0,179.0,260.0,187.0,257.0,195.5,253.0,201.5,262.0,208.5,260.0,216.0,258.0,223.5,261.0,230.5" stroke="black" stroke-width="2" fill="none" />
<path d="M253.5,147.0,250.0,148.5,245.5,144.5,237.5,156.0,229.5,155.5,227.5,156.5,219.5,157.5" stroke="black" stroke-width="2" fill="none" />
<path d="M219.0,142.0,227.5,141.5" stroke="black" stroke-width="2" fill="none" />
<path d="M217.5,139.5,224.5,139.5,222.5,147.5,232.5,145.0,240.5,155.0,248.5,156.0,256.5,157.0,264.5,159.5,271.0,163.5,276.0,162.5,283.5,167.5,293.5,162.5,301.0,162.5,305.5,167.0,311.0,163.0,319.0,167.5" stroke="black" stroke-width="2" fill="none" />
<path d="M338.5,171.0,335.5,179.0" stroke="black" stroke-width="2" fill="none" />
<path d="M348.5,177.5,356.0,170.0,364.0,162.0,371.5,154.5" stroke="black" stroke-width="2" fill="none" />
<path d="M380.0,147.5,380.5,156.0,378.5,159.0,381.5,168.5" stroke="black" stroke-width="2" fill="none" />
<path d="M364.5,177.0,356.5,177.5" stroke="black" stroke-width="2" fill="none" />
<path d="M360.0,190.5,361.0,198.5,360.5,206.5,357.0,214.5,358.0,223.5,355.0,232.0,345.0,244.0,343.0,252.0,341.0,260.5,343.5,266.0,339.5,278.0,341.0,280.5,331.5,292.5,323.5,302.0,319.5,310.0,326.5,313.5,325.5,321.5,320.0,326.5,318.5,334.5,316.5,347.5,310.5,355.5,304.5,363.0,298.0,371.0,300.0,378.5,305.5,378.5,311.0,381.0,319.0,377.5,320.0,385.5,328.0,384.5,333.0,372.5,342.0,368.0,352.0,371.5" stroke="black" stroke-width="2" fill="none" />
<path d="M195.0,316.5,183.5,312.5,178.0,307.0,179.0,299.0,179.5,294.5,171.5,292.5" stroke="black" stroke-width="2" fill="none" />
<path d="M172.0,292.5,174.0,300.5" stroke="black" stroke-width="2" fill="none" />
<path d="M164.0,291.5,156.5,292.0,148.0,292.5,139.5,292.5,131.5,292.5,123.0,292.5,114.5,292.5,106.5,293.0" stroke="black" stroke-width="2" fill="none" />
<path d="M107.0,285.5,115.0,285.5,123.0,285.5" stroke="black" stroke-width="2" fill="none" />
<path d="M122.0,287.5,130.0,295.0" stroke="black" stroke-width="2" fill="none" />
<path d="M136.0,301.0,129.0,292.5,122.0,285.5,115.0,279.5,120.0,280.0,119.5,272.5,121.5,270.5,119.0,260.5,120.0,252.5,117.0,244.5,121.0,241.5,119.0,235.5,119.0,229.5,116.0,224.5,110.0,222.5,115.0,217.5,116.5,209.5,121.5,197.5,126.5,190.0,127.5,181.5,129.5,172.5,133.0,164.0,135.0,158.0,134.0,150.0,143.0,141.5,146.0,136.0,145.0,128.0,130.5,128.5,122.5,128.5" stroke="black" stroke-width="2" fill="none" />
<path d="M123.0,133.5,131.0,136.0,138.5,134.0,138.5,137.0,143.0,144.5,138.5,149.5,141.5,158.5,141.5,166.5,139.5,172.5,144.0,176.0,146.0,184.0,148.0,192.0,151.0,203.5,149.0,209.5,143.5,217.5,138.5,225.5,134.5,233.5,125.5,245.0,125.5,253.0,122.0,255.5,123.5,263.5,116.0,271.5,113.0,279.5,104.0,290.5,107.5,295.5,108.5,295.5,111.0,306.0" stroke="black" stroke-width="2" fill="none" />
<path d="M113.0,297.5,122.5,302.5,121.5,311.0,125.5,319.5,120.5,328.0,112.5,330.0,108.5,341.0,115.5,351.0,117.0,359.0,117.0,363.0,116.0,370.5,117.0,375.0,124.0,381.0,131.0,389.0,130.5,392.5,125.5,401.5,126.5,409.0,130.5,416.5,129.5,423.5,127.0,432.0,131.0,441.0,134.5,441.0,143.0,436.5,151.0,432.5,155.0,430.5,139.0,438.5" stroke="black" stroke-width="2" fill="none" />
<path d="M134.0,375.0,127.0,384.5,127.0,379.0,126.0,372.0,121.0,368.0,124.0,360.0,125.5,352.0,123.0,343.5,128.0,343.0,128.5,335.5,120.5,340.5,112.5,341.5" stroke="black" stroke-width="2" fill="none" />
<path d="M117.0,341.5,118.5,345.5,117.5,334.5,109.5,334.5" stroke="black" stroke-width="2" fill="none" />
<path d="M108.0,335.0,116.0,334.5" stroke="black" stroke-width="2" fill="none" />
<path d="M109.5,329.5,117.5,323.5" stroke="black" stroke-width="2" fill="none" />
<path d="M108.0,331.0,109.0,321.0,111.5,310.5,117.5,314.5,125.5,326.0,123.0,335.0,117.0,338.5,110.5,348.5,110.5,356.0,108.5,357.0,113.5,358.0,118.5,360.0,127.5,344.0" stroke="black" stroke-width="2" fill="none" />
<path d="M162.0,300.5,154.0,295.5,148.0,287.5,148.0,284.0,158.0,277.0,162.0,277.0,167.0,269.0,175.0,260.0,185.5,259.0,197.5,246.0,201.0,238.5,202.0,230.5,201.0,222.5,202.0,209.5,201.0,201.0,196.0,197.5,201.0,187.5,200.0,179.5,203.5,172.0,200.5,170.0,195.5,167.5,199.5,160.0,202.0,150.0,205.5,143.0,202.0,135.0,198.0,135.0,190.0,135.5" stroke="black" stroke-width="2" fill="none" />
<path d="M186.5,141.0,194.5,140.5,202.5,140.0,211.0,140.0" stroke="black" stroke-width="2" fill="none" />
<path d="M193.0,149.5,185.0,150.0" stroke="black" stroke-width="2" fill="none" />
<path d="M181.5,157.5,179.0,165.5,174.0,174.5,170.5,179.5,167.5,188.0,162.5,192.0,167.0,204.5,164.0,211.5,160.5,219.5,156.5,227.5,149.5,235.0,149.5,243.5,154.5,252.5,145.0,263.5,136.0,271.5,132.0,271.5,128.0,282.0,135.0,290.5,140.5,298.5,145.0,297.0,153.0,296.0,155.5,293.5,160.0,295.5" stroke="black" stroke-width="2" fill="none" />
<path d="M165.5,297.5,162.5,289.5" stroke="black" stroke-width="2" fill="none" />
<path d="M155.0,273.0,149.5,279.0,138.5,279.0,128.0,280.5,123.0,292.5,118.5,294.5,113.5,290.5,106.0,283.0,104.0,279.0,109.0,271.5,114.0,258.0,113.0,250.0,114.0,242.5,113.0,234.5,104.5,232.5" stroke="black" stroke-width="2" fill="none" />
<path d="M101.5,249.5,106.5,253.0,108.0,261.0,104.0,267.5,114.5,270.5,124.0,265.0" stroke="black" stroke-width="2" fill="none" />
<path d="M122.5,278.0,114.0,278.5,106.0,279.0" stroke="black" stroke-width="2" fill="none" />
<path d="M100.5,252.5,108.5,252.0,117.0,252.0" stroke="black" stroke-width="2" fill="none" />
<path d="M136.0,230.0,144.0,219.0,148.5,222.5,146.5,236.5,145.5,244.5,140.5,249.5,137.5,257.5,135.0,260.5,144.5,261.5,150.5,266.5,157.5,270.0,163.5,268.0,171.5,267.0,179.0,265.0,182.5,254.5,190.5,254.0,193.5,256.0,202.0,264.5,208.0,258.0,216.0,260.0,222.5,259.5,224.0,258.0,231.0,253.5,232.0,256.5,240.0,256.5,248.0,250.5,255.5,252.5,263.5,253.5,271.5,257.0,276.5,247.5,280.5,253.0,288.5,252.0,297.0,252.0,309.0,258.5" stroke="black" stroke-width="2" fill="none" />
<path d="M331.0,278.0,321.0,269.5,321.0,266.0,319.5,258.0,324.0,252.0,322.5,246.0,319.0,245.0,317.0,237.0,315.0,227.0,307.0,225.5,301.0,227.5,295.0,220.5,292.0,217.0,283.5,223.0,275.5,230.5,270.5,228.0,268.0,229.0,267.0,235.5,260.0,234.5,258.5,229.5,251.0,229.5,250.0,231.5,242.0,230.0,229.5,223.5,222.5,218.5,215.5,215.0,208.0,219.0,205.0,216.0,195.0,209.5,194.0,206.5,182.0,215.5,173.5,217.0,167.5,212.0,164.5,215.0,160.0,215.0,154.0,214.5,146.0,214.5,138.0,216.5,124.0,219.0,116.0,224.0,118.5,220.5,130.5,215.0,131.5,207.0,126.0,202.0,124.0,193.0,122.0,195.0,121.0,187.0,124.0,178.5,128.0,172.0,123.0,164.0,129.5,160.5,123.0,150.5,121.0,143.0,119.0,137.5,111.5,134.5" stroke="black" stroke-width="2" fill="none" />
<path d="M114.0,140.5,122.5,140.5" stroke="black" stroke-width="2" fill="none" />
<path d="M118.0,139.5,115.5,147.0,112.0,151.5,117.5,156.5,119.5,165.0,110.5,170.0,105.5,174.5,106.5,164.5,117.0,169.0,125.0,168.5,132.0,166.5" stroke="black" stroke-width="2" fill="none" />
<path d="M130.0,164.0,122.0,165.0" stroke="black" stroke-width="2" fill="none" />
<path d="M121.5,157.0,130.0,156.5,138.5,156.0,146.5,155.5" stroke="black" stroke-width="2" fill="none" />
<path d="M147.0,160.5,155.0,160.5,165.5,155.0,168.5,151.0,175.0,155.0" stroke="black" stroke-width="2" fill="none" />
<path d="M181.0,158.0,184.0,166.0,191.5,173.0,189.5,175.0,199.5,165.0" stroke="black" stroke-width="2" fill="none" />
<path d="M205.5,176.0,207.5,168.0,205.5,160.0,192.0,160.5,188.5,146.5,185.0,138.0,184.5,128.0" stroke="black" stroke-width="2" fill="none" />
<path d="M183.0,130.0,189.0,133.0,192.5,133.0,191.5,141.5,194.5,150.0,203.5,159.0,205.5,166.5,210.5,175.5,209.5,177.0,211.5,178.0,216.5,170.0,221.5,171.0" stroke="black" stroke-width="2" fill="none" />
<path d="M258.0,129.5,266.0,128.5,260.5,133.5,268.5,129.5,279.0,133.0,287.0,133.5,299.0,130.5" stroke="black" stroke-width="2" fill="none" />
<path d="M290.5,128.0,288.5,136.0,285.5,144.0,287.5,156.5,288.5,165.0,286.0,173.0,279.5,181.5,265.5,192.5,273.0,191.5,281.0,190.0,289.0,189.0,290.0,192.5,301.0,192.5,311.0,178.5,313.0,171.0,323.5,165.5,329.0,154.5,330.0,158.5,336.5,160.5,346.5,161.5,349.5,157.0,357.5,154.0,364.5,151.5,369.5,153.5,378.0,152.5,383.0,148.0" stroke="black" stroke-width="2" fill="none" />
<path d="M369.0,142.5,373.0,134.0" stroke="black" stroke-width="2" fill="none" />
<path d="M371.5,133.5,363.5,135.0" stroke="black" stroke-width="2" fill="none" />
<path d="M342.5,163.0,340.5,170.5,341.5,178.0,339.5,185.5,337.5,180.0" stroke="black" stroke-width="2" fill="none" />
<path d="M328.0,142.0,328.5,134.0,328.5,128.0" stroke="black" stroke-width="2" fill="none" />
<path d="M325.0,126.0,317.0,125.0,309.0,127.0,301.0,126.0,293.0,124.5,285.0,128.5,277.0,127.5,270.0,139.5,266.5,143.5,267.5,136.0,274.5,128.0" stroke="black" stroke-width="2" fill="none" />
<path d="M281.5,125.0,273.5,125.0,266.0,123.0,258.0,125.0,250.0,124.5,241.5,125.0,233.5,122.0,233.5,125.0,225.5,128.5,219.5,135.5,208.0,131.5,200.0,124.5,192.5,124.0,184.5,127.0,176.5,124.5,168.5,125.5,159.5,128.5,156.0,127.5,148.0,127.0,140.0,128.0,131.5,127.0,123.5,128.0,115.0,128.0,107.5,129.0" stroke="black" stroke-width="2" fill="none" />
<path d="M104.5,132.0,112.5,132.5,120.5,133.5,125.5,136.5,127.0,144.5,122.0,153.5,125.0,154.5,140.5,152.0,148.5,151.5,158.0,149.0,158.0,141.5,168.0,141.0,168.5,146.0,176.5,148.5,179.5,144.0,190.0,146.0,195.0,147.5,201.5,160.0,209.0,158.0,217.0,157.5,220.5,167.0,233.5,172.0,242.0,174.0,249.0,177.5,245.0,179.0,241.5,179.5" stroke="black" stroke-width="2" fill="none" />
<path d="M211.5,127.0,205.0,131.5,196.5,137.5,182.5,134.0,174.5,134.0,173.0,129.0,164.0,133.0,155.0,143.0,147.0,147.0,140.0,142.0,137.5,145.0,129.5,142.0" stroke="black" stroke-width="2" fill="none" />
<path d="M132.5,143.0,140.5,142.5" stroke="black" stroke-width="2" fill="none" />
<path d="M147.5,142.0,155.5,141.5,163.5,141.0,172.0,140.0" stroke="black" stroke-width="2" fill="none" />
<path d="M176.5,136.0,178.5,144.0" stroke="black" stroke-width="2" fill="none" />
<path d="M163.0,148.0,155.0,148.0" stroke="black" stroke-width="2" fill="none" />
<path d="M156.5,143.0,164.5,137.0,174.0,131.0,167.0,138.5,167.0,146.5,173.0,154.5,175.0,162.5,174.0,165.5,170.0,175.0,172.0,187.0,176.5,194.5,177.0,200.5,172.0,208.5,182.0,213.5,175.0,224.5,169.0,227.5,162.0,237.5,160.5,240.0,169.0,242.5,172.0,237.5" stroke="black" stroke-width="2" fill="none" />
<path d="M164.0,228.5,158.0,225.0,157.0,223.5,151.5,223.5,149.5,222.0,157.5,218.0,154.0,216.5,160.0,204.0,158.0,201.0,156.5,193.0,156.5,185.0,156.0,176.0,159.5,172.0,159.5,164.0,159.5,155.5,165.0,151.0,153.0,148.0,155.0,140.0,160.5,136.0,155.5,133.0,148.0,129.5,140.0,129.5" stroke="black" stroke-width="2" fill="none" />
<path d="M144.0,132.0,152.0,133.5" stroke="black" stroke-width="2" fill="none" />
<path d="M149.0,151.0,151.0,159.0,155.5,167.5,161.5,170.5,169.0,163.0,171.0,167.0,178.0,159.0,186.0,158.0" stroke="black" stroke-width="2" fill="none" />
<path d="M139.0,148.5,130.5,148.5,122.5,148.5,115.0,149.0" stroke="black" stroke-width="2" fill="none" />
<path d="M120.0,154.5,128.0,150.5" stroke="black" stroke-width="2" fill="none" />
<path d="M132.0,150.0,132.0,142.0,132.5,133.0" stroke="black" stroke-width="2" fill="none" />
<path d="M109.0,140.0,101.0,140.5" stroke="black" stroke-width="2" fill="none" />
<path d="M99.0,134.5,107.0,136.5,108.0,141.5,99.0,147.0,107.5,143.0,109.0,140.0,111.0,143.5,121.0,136.5,129.0,147.0,137.0,153.5" stroke="black" stroke-width="2" fill="none" />
<path d="M131.0,162.5,122.5,164.5,114.0,156.5,105.5,161.0,98.0,157.0,94.5,160.0" stroke="black" stroke-width="2" fill="none" />
<path d="M94.0,149.5,96.0,153.5,100.0,151.0" stroke="black" stroke-width="2" fill="none" />
<path d="M103.5,159.0,105.5,151.5,109.0,143.5" stroke="black" stroke-width="2" fill="none" />
<path d="M93.0,140.5,101.0,133.0,100.0,132.0,93.0,140.0,97.0,141.5,93.0,148.5,97.5,148.5,98.5,155.0,98.5,160.0,98.5,163.0,102.5,167.0,97.0,170.0,96.0,178.0,102.0,181.5,99.0,186.0,103.0,194.0,103.0,202.0,105.0,207.0,103.0,215.0,102.5,223.0,103.5,227.0,105.5,236.0,104.0,243.5,101.5,246.5,108.0,247.0,107.0,251.0,103.0,252.5,103.0,261.0,102.0,269.0,109.0,276.5,117.0,284.5,118.0,289.5,111.5,297.5,109.5,301.5,103.0,303.5,102.0,312.0,102.5,320.5,103.0,329.0,104.0,337.0,104.0,345.0,105.0,353.0,105.0,361.0,105.5,369.5,106.5,377.5,107.0,385.5,108.0,393.5,108.5,401.5,110.5,409.5,111.0,417.5,114.0,425.0,121.0,433.0,123.0,441.5,126.5,449.5,131.0,447.5,137.0,448.0,145.0,446.0,152.5,442.5,160.5,437.5,168.5,433.0,177.0,428.0,184.5,423.5,192.5,419.5,200.5,415.5,208.5,411.5,212.0,410.0,195.0,418.0,180.0,426.0,165.0,434.5,152.0,442.5" stroke="black" stroke-width="2" fill="none" />
<path d="M130.0,362.0,128.5,357.5,121.0,369.5,119.5,375.5,118.0,369.5,122.0,358.5,133.0,354.0,130.5,353.0,134.0,345.0,130.0,338.0,133.0,335.0,127.0,332.5,127.0,329.5,123.5,322.5,119.0,315.5,124.0,308.5,125.0,308.5,117.5,301.5,109.5,301.5,102.5,296.5,102.0,288.0,101.0,280.0,101.0,271.5,100.0,264.0,100.0,256.0,99.0,248.5,98.0,240.5,98.0,232.5,96.5,224.5,95.5,216.5,96.5,208.5,94.0,200.0,94.0,192.0,93.5,184.0,92.5,176.0,98.5,167.0,97.0,173.0,95.0,179.0" stroke="black" stroke-width="2" fill="none" />
<path d="M140.0,190.5,144.0,199.0,147.5,196.0,150.5,202.0" stroke="black" stroke-width="2" fill="none" />
<path d="M137.0,286.5,138.0,294.5,148.0,298.5,156.0,300.0,164.5,301.5,172.5,303.5,181.5,303.0,185.0,310.0,191.0,307.5,200.0,310.5,212.5,308.5,220.0,312.5" stroke="black" stroke-width="2" fill="none" />
<path d="M321.5,126.5,314.5,134.5,305.5,134.0,306.5,135.0,314.0,138.0,321.0,131.0,324.5,134.0,333.0,132.5,342.5,132.5,343.5,135.5,351.5,131.5,359.5,131.5,364.0,136.0,377.0,134.0,383.0,137.0,392.0,142.5,393.0,145.5,403.0,145.5,409.0,148.5" stroke="black" stroke-width="2" fill="none" />
<path d="M406.5,134.0,408.5,142.0,410.5,147.0,406.0,152.5,405.0,160.5,404.5,169.0,407.5,173.0,412.5,166.0,424.5,164.0" stroke="black" stroke-width="2" fill="none" />
</svg>