<svg xmlns="http://www.w3.org/2000/svg" version="1.1"><polyline points="2.0,1.5,2.5,9.5,2.5,17.5,2.5,25.5,2.5,33.5,2.5,41.5,3.0,49.5,4.0,57.0,4.5,65.0,4.5,72.5,4.5,81.0,4.5,89.0,4.0,97.0,3.5,105.5,3.5,114.5,3.5,123.0,3.5,131.0,3.0,138.5,3.0,146.5,3.0,154.5,3.0,162.5,2.5,170.5,2.5,178.5,2.5,186.0,2.5,194.0,3.0,202.0,3.0,210.0,3.0,218.0,3.5,226.0,4.0,234.5,4.0,242.5,4.0,250.5,4.0,258.5,3.5,266.5,3.0,275.0,3.0,283.0,3.0,291.0,3.0,298.5,3.5,306.5,3.0,314.5,3.0,322.5,3.0,330.5,2.5,338.5,2.5,346.5,2.5,354.0,2.5,361.5,2.0,369.5,2.0,377.5,1.5,385.5,1.0,394.0,1.0,402.0,1.0,410.0,2.0,417.5,2.0,425.5,2.0,434.0,2.0,442.5,2.5,450.5,2.5,459.0,3.0,467.5,3.5,475.5,3.5,484.0,3.5,492.0,3.0,500.0,3.0,507.5,3.5,515.0,3.5,523.0,3.0,531.0,3.0,538.5,2.5,546.0,2.5,553.5,3.0,561.5,2.5,569.5,2.5,578.0,2.5,586.0,3.0,594.5,9.0,598.0,17.5,598.0,26.0,598.0,34.0,598.0,42.5,598.0,51.0,598.0,59.0,598.0,66.5,597.5,74.5,597.5,82.0,597.0,90.0,597.0,98.0,596.5,106.0,597.0,114.0,597.0,122.0,597.5,130.0,597.5,138.0,597.0,145.5,597.0,153.5,596.5,161.0,596.5,169.0,596.5,176.5,596.5,184.5,596.0,192.0,595.5,200.0,595.5,208.0,595.5,216.0,595.5,224.5,596.0,232.5,596.0,240.5,596.5,248.5,597.0,256.5,597.0,264.5,597.0,272.5,597.0,280.5,596.5,288.5,596.0,296.5,596.0,304.5,596.5,312.5,597.0,320.5,597.0,328.5,597.5,336.5,597.5,344.5,598.0,353.0,598.0,361.0,598.0,369.0,598.0,377.0,598.0,385.0,598.0,392.5,597.5,400.5,597.5,408.0,597.5,416.0,597.5,424.0,597.5,432.0,597.5,440.0,598.0,448.5,598.5,456.5,598.5,464.5,597.5,472.5,597.0,481.0,597.0,489.0,597.0,497.0,596.5,505.5,596.5" stroke="black" stroke-width="2" fill="none" />
<polyline points="365.5,452.5,357.0,459.5" stroke="black" stroke-width="2" fill="none" />
<polyline points="348.5,440.5,340.5,441.0" stroke="black" stroke-width="2" fill="none" />
<polyline points="331.0,452.0,334.0,444.5,332.0,431.5,329.5,424.0,333.5,417.0,333.5,413.0,342.5,408.0,347.5,399.0,342.0,401.0,341.0,395.0,347.0,395.0,351.0,394.0,352.0,385.5,354.5,376.5,351.5,370.5" stroke="black" stroke-width="2" fill="none" />
<polyline points="352.5,374.5,357.0,386.5,356.0,394.5,362.0,405.5" stroke="black" stroke-width="2" fill="none" />
<polyline points="353.0,407.5,345.0,408.0" stroke="black" stroke-width="2" fill="none" />
<polyline points="342.5,415.5,347.5,412.5,342.5,415.5,339.5,425.0,336.5,432.0,342.5,433.0,347.5,439.0,352.0,453.0,348.0,461.0,336.5,469.0,326.5,477.0,322.5,485.0,312.5,491.0,317.0,488.0,323.5,487.5,329.5,482.5,335.5,478.5,348.0,468.5,357.0,461.5,363.0,455.0,372.0,443.5,364.0,448.5,354.0,456.5" stroke="black" stroke-width="2" fill="none" />
<polyline points="356.0,434.5,364.0,434.0" stroke="black" stroke-width="2" fill="none" />
<polyline points="371.5,428.5,364.0,436.0,356.0,443.5,348.0,450.5,340.0,457.5,332.0,465.5,324.0,472.0,316.0,479.0,308.0,486.0,300.0,494.0" stroke="black" stroke-width="2" fill="none" />
<polyline points="307.5,495.5,316.0,488.0,324.0,480.5,332.0,473.0,340.5,465.5,348.5,458.0,356.5,451.0,364.5,444.0,373.0,437.0" stroke="black" stroke-width="2" fill="none" />
<polyline points="381.0,434.0,372.5,434.0,364.5,434.5,356.5,435.0,348.5,435.0,340.5,435.0,332.5,435.0,325.0,435.5,316.5,436.0" stroke="black" stroke-width="2" fill="none" />
<polyline points="315.0,431.5,323.0,424.0,331.0,416.5,339.0,409.0,347.0,401.0,355.0,393.5,363.0,386.0,371.0,378.0,378.5,370.5,386.0,363.5,393.5,356.0" stroke="black" stroke-width="2" fill="none" />
<polyline points="394.0,364.0,386.0,364.0,378.5,364.5,371.5,365.5,364.0,366.0,356.0,366.5,348.5,366.5,340.0,367.5,332.0,368.0,324.0,369.0,316.0,369.5,308.0,370.0,299.5,371.0,291.5,371.5,283.0,372.0,275.0,372.5,267.0,373.0,258.5,373.5,251.0,374.0,243.0,374.0,235.5,374.5,227.5,374.5,220.0,374.5,212.5,375.0,205.0,375.0,197.0,375.0,188.5,375.5,180.5,376.0,172.5,376.5,164.5,377.0,156.0,377.0,148.5,377.5,140.5,378.5,132.5,379.5,124.0,381.0,116.0,381.5,108.5,382.5" stroke="black" stroke-width="2" fill="none" />
<polyline points="112.5,386.0,120.5,387.5,126.5,395.5,125.0,403.5,121.0,409.5,122.5,417.5,121.5,421.5,116.5,428.5,123.5,421.0" stroke="black" stroke-width="2" fill="none" />
<polyline points="124.0,427.5,132.0,420.0,140.0,412.0,148.5,404.0,156.5,396.5,165.0,389.5,173.0,382.0,181.0,375.0,189.5,367.5,197.5,360.5,206.0,353.5,214.5,346.5,222.5,339.5,230.5,332.5,238.0,325.0" stroke="black" stroke-width="2" fill="none" />
<polyline points="242.5,324.5,234.5,331.5,226.0,338.5,218.0,345.5,210.5,353.5,203.0,361.0,195.0,368.5,186.5,375.5,179.0,383.0,171.0,390.0,163.0,397.5,155.0,405.5,147.0,413.5,139.5,421.5,132.0,429.5" stroke="black" stroke-width="2" fill="none" />
<polyline points="133.5,433.5,141.5,433.0,149.5,433.0,157.0,432.5,165.0,432.5" stroke="black" stroke-width="2" fill="none" />
<polyline points="177.5,423.0,186.0,415.5,194.0,407.5,202.0,399.5,209.5,392.0,218.0,384.0,227.0,376.5,235.5,368.5,244.0,361.0,252.0,353.5,260.0,346.0,267.5,339.0,275.5,331.5" stroke="black" stroke-width="2" fill="none" />
<polyline points="268.0,331.5,260.0,339.0,251.5,347.0,243.5,354.5,235.5,362.0,228.0,369.0,220.0,376.0,212.0,382.5,204.0,389.5,196.0,397.0,188.0,404.0,180.0,412.0,172.0,419.5,164.0,428.0" stroke="black" stroke-width="2" fill="none" />
<polyline points="148.0,435.0,156.0,427.5,163.5,420.0,171.5,412.0,179.5,404.5,187.5,397.0,195.5,389.5,204.0,382.0,212.0,375.0,219.5,368.0,228.0,361.0,236.0,353.5,244.5,346.0,252.5,338.5,260.5,331.0,268.5,323.0" stroke="black" stroke-width="2" fill="none" />
<polyline points="275.0,317.5,282.5,317.0" stroke="black" stroke-width="2" fill="none" />
<polyline points="278.5,316.0,286.5,316.0,286.5,316.0,295.5,322.0" stroke="black" stroke-width="2" fill="none" />
<polyline points="301.5,319.0,309.5,318.5,317.5,318.0,325.5,317.0,333.5,316.0,341.5,315.5,349.5,315.0,357.5,314.0,365.5,313.0,374.0,312.0,381.5,311.0,390.0,311.0,397.5,310.5,405.0,310.0" stroke="black" stroke-width="2" fill="none" />
<polyline points="394.5,316.0,387.0,324.0" stroke="black" stroke-width="2" fill="none" />
<polyline points="387.0,330.5,395.0,323.0" stroke="black" stroke-width="2" fill="none" />
<polyline points="386.5,316.0,378.5,323.5,370.5,331.0,362.5,338.5,355.5,346.0" stroke="black" stroke-width="2" fill="none" />
<polyline points="356.0,353.0,348.0,361.0" stroke="black" stroke-width="2" fill="none" />
<polyline points="349.5,355.5,357.5,350.5" stroke="black" stroke-width="2" fill="none" />
<polyline points="363.0,347.0,349.5,347.5,341.0,348.5,331.0,361.5,322.5,361.0,314.5,360.0" stroke="black" stroke-width="2" fill="none" />
<polyline points="315.0,360.5,322.5,353.0,330.5,345.5,338.0,338.0,346.5,329.5,353.5,321.5,361.5,313.5,369.0,305.5,377.5,298.0,385.5,290.0" stroke="black" stroke-width="2" fill="none" />
<polyline points="379.5,290.0,371.5,297.5,363.5,305.5,355.5,313.5,347.0,321.5,338.5,329.5,330.5,337.5" stroke="black" stroke-width="2" fill="none" />
<polyline points="331.5,335.0,333.5,332.0,341.5,330.5" stroke="black" stroke-width="2" fill="none" />
<polyline points="340.0,321.5,348.5,321.0" stroke="black" stroke-width="2" fill="none" />
<polyline points="348.0,320.5,348.5,312.5" stroke="black" stroke-width="2" fill="none" />
<polyline points="347.5,306.0,339.5,313.5,331.5,321.0" stroke="black" stroke-width="2" fill="none" />
<polyline points="332.5,326.0,340.0,325.0,347.5,324.5,355.5,323.5,363.5,322.5,372.0,322.0,379.5,322.0,387.0,323.0,395.0,323.0,403.5,323.0" stroke="black" stroke-width="2" fill="none" />
<polyline points="381.0,330.0,373.0,337.5" stroke="black" stroke-width="2" fill="none" />
<polyline points="372.0,338.0,382.5,329.0,383.5,336.5,379.5,339.5,387.5,331.5,392.5,335.5" stroke="black" stroke-width="2" fill="none" />
<polyline points="394.0,345.0,386.0,353.0,378.0,360.5,370.0,368.5,362.0,376.0,354.0,384.0,346.0,392.0,338.0,400.0,330.0,408.0" stroke="black" stroke-width="2" fill="none" />
<polyline points="331.0,401.5,338.5,394.0,347.5,387.0,356.0,379.5,364.0,372.5,372.0,365.5" stroke="black" stroke-width="2" fill="none" />
<polyline points="369.5,367.0,367.0,375.0,359.0,382.5,364.0,382.5,361.5,392.5,363.0,396.5,360.0,398.5,357.5,406.5,350.5,414.5,360.0,417.0,369.0,412.0,377.0,410.0,377.0,404.0,389.0,395.0" stroke="black" stroke-width="2" fill="none" />
<polyline points="390.0,395.0,382.0,402.0,373.5,409.0,365.5,417.0,357.5,425.0,349.5,433.0,341.5,440.0,333.5,447.0,326.0,454.5,317.5,462.5,309.5,469.5" stroke="black" stroke-width="2" fill="none" />
<polyline points="307.5,464.5,315.5,464.5" stroke="black" stroke-width="2" fill="none" />
<polyline points="317.5,462.0,325.5,458.5" stroke="black" stroke-width="2" fill="none" />
<polyline points="322.0,457.0,330.0,457.0" stroke="black" stroke-width="2" fill="none" />
<polyline points="333.0,465.5,341.5,465.0" stroke="black" stroke-width="2" fill="none" />
<polyline points="332.5,482.5,324.5,490.0,316.0,497.0" stroke="black" stroke-width="2" fill="none" />
<polyline points="298.0,502.0,306.0,501.0,313.5,500.5,322.0,500.5,330.5,500.0,339.0,500.0" stroke="black" stroke-width="2" fill="none" />
<polyline points="301.5,485.0,309.5,477.5,318.0,470.5,326.0,463.0,333.5,455.5,341.5,448.5,349.5,441.5,357.0,434.0,365.0,427.0,373.0,420.0,381.0,412.0,389.0,404.5" stroke="black" stroke-width="2" fill="none" />
<polyline points="387.0,413.5,379.5,420.5" stroke="black" stroke-width="2" fill="none" />
<polyline points="369.5,425.0,371.5,415.0,360.0,420.0" stroke="black" stroke-width="2" fill="none" />
<polyline points="363.5,424.0,355.5,425.0" stroke="black" stroke-width="2" fill="none" />
<polyline points="352.0,430.0,352.0,438.0,352.0,435.5" stroke="black" stroke-width="2" fill="none" />
<polyline points="348.5,417.5,340.0,418.5" stroke="black" stroke-width="2" fill="none" />
<polyline points="324.0,411.5,315.5,419.0" stroke="black" stroke-width="2" fill="none" />
<polyline points="309.5,418.5,301.0,426.5" stroke="black" stroke-width="2" fill="none" />
<polyline points="304.5,429.5,309.5,432.5,311.5,440.0,305.0,446.0,318.0,441.0,320.5,435.0,328.0,435.0,337.5,426.0" stroke="black" stroke-width="2" fill="none" />
<polyline points="321.5,423.5,334.5,414.0,342.0,408.0" stroke="black" stroke-width="2" fill="none" />
<polyline points="331.0,387.0,323.0,394.0,315.0,402.0" stroke="black" stroke-width="2" fill="none" />
<polyline points="316.5,400.5,324.5,400.0" stroke="black" stroke-width="2" fill="none" />
<polyline points="324.5,408.5,316.0,409.5" stroke="black" stroke-width="2" fill="none" />
<polyline points="314.0,409.0,322.0,402.0,330.5,395.0,339.0,387.0,347.5,379.0,356.0,371.5" stroke="black" stroke-width="2" fill="none" />
<polyline points="345.0,371.5,343.0,379.5" stroke="black" stroke-width="2" fill="none" />
<polyline points="345.5,384.0,353.5,383.5" stroke="black" stroke-width="2" fill="none" />
<polyline points="353.0,384.0,361.0,379.5,362.0,381.5" stroke="black" stroke-width="2" fill="none" />
<polyline points="379.5,379.5,371.5,387.0,363.5,395.0,355.5,402.5,346.5,410.0,338.5,417.0,330.5,425.0,322.5,432.5,314.5,440.0" stroke="black" stroke-width="2" fill="none" />
<polyline points="300.0,453.0,308.0,452.0,316.0,451.5,324.0,451.0,332.0,451.0,340.0,451.0,348.0,450.0,356.0,449.0,364.0,449.0,372.0,448.5" stroke="black" stroke-width="2" fill="none" />
<polyline points="388.0,388.0,380.0,395.5,372.0,402.5,364.5,409.5,357.0,417.5,349.0,425.5,341.0,432.5,333.0,440.0,325.0,447.5,316.5,455.5,308.5,462.5" stroke="black" stroke-width="2" fill="none" />
<polyline points="300.0,463.5,307.5,456.5,315.5,448.5,324.0,440.5,332.0,432.5,340.5,425.0,348.5,417.5,356.0,410.0,363.5,403.0,371.0,396.0,379.0,388.0,387.0,380.0" stroke="black" stroke-width="2" fill="none" />
<polyline points="384.5,400.5,376.5,400.5,369.0,401.0,361.5,401.0,354.0,401.0,346.5,402.0,338.5,403.0,330.5,404.5,323.0,405.5,315.5,406.0,307.5,406.5" stroke="black" stroke-width="2" fill="none" />
<polyline points="306.5,402.0,314.0,394.0,321.5,386.5" stroke="black" stroke-width="2" fill="none" />
<polyline points="315.0,386.5,307.0,394.5" stroke="black" stroke-width="2" fill="none" />
<polyline points="301.5,395.5,293.5,395.5,285.0,396.0,276.5,396.0,268.5,396.5,260.5,397.0,252.5,397.5,244.5,398.0,236.5,398.0,228.5,398.0,220.0,398.5,211.5,398.5,203.0,399.0,195.5,399.5,188.0,400.5,180.0,400.5,172.0,401.0,164.5,401.5,156.5,402.0,148.0,402.0,140.0,402.5,132.5,403.0,124.5,403.5,116.0,404.0,108.0,405.0" stroke="black" stroke-width="2" fill="none" />
<polyline points="116.0,404.0,124.5,396.5" stroke="black" stroke-width="2" fill="none" />
<polyline points="130.5,397.5,138.5,390.0,146.5,382.5,155.5,375.0,163.5,367.5,171.5,360.0,179.5,352.0,188.0,345.0,196.0,339.0,203.5,332.0,211.0,325.0,219.0,317.0" stroke="black" stroke-width="2" fill="none" />
<polyline points="219.0,324.5,211.0,332.0,203.0,340.0,195.0,347.5,186.5,354.5,178.5,361.5,170.0,369.0,162.0,376.5,154.0,384.0,146.0,391.5,138.5,399.0,130.5,406.5" stroke="black" stroke-width="2" fill="none" />
<polyline points="130.0,406.5,133.0,412.5,132.5,422.5,127.5,430.0,126.0,439.5,129.0,447.5" stroke="black" stroke-width="2" fill="none" />
<polyline points="133.0,446.5,141.0,446.0,149.0,445.0" stroke="black" stroke-width="2" fill="none" />
<polyline points="145.5,441.0,137.5,441.5" stroke="black" stroke-width="2" fill="none" />
<polyline points="138.5,434.5,147.5,427.0,156.0,419.5,164.0,412.0,172.5,405.0,180.5,397.5,188.5,390.0,196.5,382.0,204.0,375.0,211.5,368.0,219.5,361.0,227.5,354.0,236.5,347.0,244.5,340.0,252.5,333.0,260.5,326.0" stroke="black" stroke-width="2" fill="none" />
<polyline points="258.5,329.5,250.0,330.0" stroke="black" stroke-width="2" fill="none" />
<polyline points="249.0,323.0,241.0,330.5,233.5,338.0,226.0,345.5,218.5,353.0,211.0,360.5,203.0,368.0,194.5,375.5,186.5,383.0,178.0,390.0,169.5,397.5,162.0,405.0,154.5,413.0,147.0,421.0,139.0,429.5,131.0,437.5" stroke="black" stroke-width="2" fill="none" />
<polyline points="136.0,438.5,152.0,431.0,149.5,433.0,141.5,437.0,133.5,441.0,125.5,435.0" stroke="black" stroke-width="2" fill="none" />
<polyline points="122.0,437.0,130.0,437.0,138.5,436.5,146.5,436.0,155.0,435.5,163.5,434.5,172.0,434.0" stroke="black" stroke-width="2" fill="none" />
<polyline points="196.0,413.5,204.0,406.0,212.0,398.5,220.5,391.0,228.5,383.5,236.5,376.0,245.0,368.0,252.5,361.0,260.0,354.0,268.0,347.0,276.0,339.5,284.0,332.0" stroke="black" stroke-width="2" fill="none" />
<polyline points="292.0,332.0,283.5,339.5,275.0,346.5,267.0,354.0,259.0,361.5,251.5,368.5,243.0,376.5,235.0,384.5,227.5,392.5,220.0,400.5,212.0,408.5" stroke="black" stroke-width="2" fill="none" />
<polyline points="213.5,410.0,194.0,418.0,179.0,426.0,164.0,434.0,149.0,442.0" stroke="black" stroke-width="2" fill="none" />
<polyline points="133.5,425.0,141.0,425.0,149.0,424.0,157.0,423.5,165.0,423.5,172.5,423.0,180.0,422.5" stroke="black" stroke-width="2" fill="none" />
<polyline points="203.5,440.0,211.5,439.5,220.0,438.5,228.0,437.5,235.0,436.5,243.0,435.5,251.0,435.0,259.0,434.5,267.0,434.0,275.0,434.0,282.5,433.5,290.5,432.5,298.0,432.0,306.5,431.0" stroke="black" stroke-width="2" fill="none" />
<polyline points="299.5,420.5,291.5,427.5" stroke="black" stroke-width="2" fill="none" />
<polyline points="290.5,425.0,301.5,420.0,305.0,428.5,303.0,436.5,302.5,444.5,313.5,452.5" stroke="black" stroke-width="2" fill="none" />
<polyline points="299.5,460.5,307.5,460.0,315.5,460.0,323.5,460.0,331.5,459.5,339.0,459.5,347.5,459.0,356.0,458.0,364.5,457.5,372.5,457.0" stroke="black" stroke-width="2" fill="none" />
<polyline points="387.5,407.0,379.5,407.0,371.5,408.5,363.0,409.5,355.5,410.0,347.5,411.0,340.0,411.5,332.0,412.0,323.5,412.5,315.5,412.5,307.0,413.5" stroke="black" stroke-width="2" fill="none" />
<polyline points="304.5,401.5,312.5,401.5" stroke="black" stroke-width="2" fill="none" />
<polyline points="299.5,401.5,291.0,402.5,282.5,402.5,274.5,403.0,266.5,403.5,258.5,404.5,250.5,405.5,242.5,406.5,234.5,406.5,227.5,407.0,219.5,407.5,212.0,408.0,204.5,408.5,196.0,408.5,188.5,409.0,180.5,409.0,172.5,409.5,164.5,409.5,156.5,410.0,148.0,410.0,139.5,410.5,131.5,411.5,123.0,412.0,115.0,413.0" stroke="black" stroke-width="2" fill="none" />
<polyline points="116.5,421.0,124.5,420.5,132.5,419.5,140.5,418.5,147.5,417.5,155.0,417.0,163.0,417.0,170.5,417.0,178.5,417.0,186.0,417.0,193.5,416.5,201.5,416.0,210.0,416.0,218.0,415.5,226.0,414.5,234.5,413.5,242.5,413.0,250.0,412.5,258.5,412.0,267.5,412.0,276.0,411.5,283.5,411.0,291.0,410.0,299.0,409.5,306.5,409.0,315.0,409.0,323.0,408.5,331.5,408.0,339.5,407.5,348.0,407.0,356.0,406.0,364.0,405.5,372.0,405.0,380.0,404.5,388.5,404.5" stroke="black" stroke-width="2" fill="none" />
<polyline points="393.0,369.0,385.0,369.5,377.0,369.5,369.5,370.0,362.5,370.0,355.0,370.0,347.5,370.5,340.0,372.0,332.0,373.5,324.0,374.0,316.0,374.5,308.0,375.0" stroke="black" stroke-width="2" fill="none" />
<polyline points="313.5,368.5,322.0,374.0,319.5,374.0,318.5,377.5" stroke="black" stroke-width="2" fill="none" />
<polyline points="323.0,364.5,331.0,357.5,338.5,350.5,346.5,343.5,354.0,336.0,361.5,328.5,369.5,320.5,377.5,313.0,385.5,306.0,394.0,298.5,402.0,291.0" stroke="black" stroke-width="2" fill="none" />
<polyline points="401.5,281.0,394.0,288.5,386.5,296.5,378.5,304.5,370.5,313.0,363.0,321.0,354.5,328.5,346.5,336.0,339.0,343.0,331.0,350.0,323.0,357.0" stroke="black" stroke-width="2" fill="none" />
<polyline points="322.5,351.0,330.0,350.5" stroke="black" stroke-width="2" fill="none" />
<polyline points="322.5,347.0,315.0,354.5" stroke="black" stroke-width="2" fill="none" />
<polyline points="317.5,349.0,325.5,349.0,333.0,348.5,341.0,347.5,349.5,346.0,357.0,345.0,365.0,344.5,373.0,344.0,380.5,343.5,389.0,343.0,397.5,342.5,405.5,342.0" stroke="black" stroke-width="2" fill="none" />
<polyline points="404.0,330.0,396.5,329.5,388.5,329.5,380.5,329.5,373.0,330.0,365.5,330.5,357.0,330.5,349.0,331.0,340.5,332.0,332.0,332.5" stroke="black" stroke-width="2" fill="none" />
<polyline points="331.5,328.5,340.0,328.0" stroke="black" stroke-width="2" fill="none" />
<polyline points="331.5,326.5,340.0,318.5,348.0,310.5,356.0,303.0,364.5,295.5,372.0,288.0,380.0,280.5,388.0,273.0,395.5,266.0,404.0,258.5" stroke="black" stroke-width="2" fill="none" />
<polyline points="404.0,250.5,396.0,257.5,388.5,264.5,380.5,272.0,372.5,279.5,364.5,287.0,357.0,295.0" stroke="black" stroke-width="2" fill="none" />
<polyline points="349.0,287.5,340.5,288.5,332.0,289.0" stroke="black" stroke-width="2" fill="none" />
<polyline points="329.5,294.0,337.0,286.5,345.0,279.0,353.5,271.5,361.0,264.5,369.0,257.0,377.0,248.5,385.5,240.5,394.0,233.5,402.0,226.0" stroke="black" stroke-width="2" fill="none" />
<polyline points="403.0,220.5,394.5,225.0" stroke="black" stroke-width="2" fill="none" />
<polyline points="394.5,227.0,386.5,234.5,379.0,242.5,371.0,250.0,363.5,257.0,355.5,264.5,348.0,272.5,340.0,281.0,332.5,289.0" stroke="black" stroke-width="2" fill="none" />
<polyline points="332.5,281.0,340.0,273.5,347.5,265.5,354.5,257.0,362.5,249.5,370.0,242.0,377.5,233.5,385.0,225.5,393.0,218.5" stroke="black" stroke-width="2" fill="none" />
<polyline points="392.5,227.0,389.5,234.5,394.5,245.5,404.5,236.5,416.5,243.5" stroke="black" stroke-width="2" fill="none" />
<polyline points="403.0,242.5,395.0,250.0,387.0,257.0,379.0,264.5,371.0,272.0,363.0,279.5,355.0,287.5,347.0,295.5,339.0,303.5" stroke="black" stroke-width="2" fill="none" />
<polyline points="338.0,298.0,346.0,290.5,354.0,282.5,362.5,274.5,370.5,266.5,379.0,259.5,386.5,252.0" stroke="black" stroke-width="2" fill="none" />
<polyline points="381.0,247.0,380.5,255.0,371.5,263.0,379.5,271.0,380.5,277.0,386.5,282.0" stroke="black" stroke-width="2" fill="none" />
<polyline points="374.5,284.5,377.5,284.5,375.5,292.5,375.5,300.5,373.5,309.0,364.5,317.0" stroke="black" stroke-width="2" fill="none" />
<polyline points="356.5,313.0,364.5,312.5,372.0,311.5" stroke="black" stroke-width="2" fill="none" />
<polyline points="381.0,311.5,379.5,310.5,379.5,303.5,380.5,295.5,392.0,287.5,394.0,279.5,392.0,271.5,390.5,263.5" stroke="black" stroke-width="2" fill="none" />
<polyline points="405.5,268.0,414.5,273.0,409.0,281.0,407.0,291.5,404.5,299.0,405.5,302.0,407.0,303.0,400.0,315.5,398.5,322.0,401.5,324.5,398.0,332.5,397.5,338.5,394.5,353.0,394.5,357.0,395.0,362.5,387.0,371.0,379.5,374.0,373.0,379.0,375.0,387.0,375.5,395.0,370.0,404.0,366.0,412.0,356.5,415.5,354.5,423.5,345.0,433.0,338.0,441.0,327.0,443.5,318.0,449.0,328.0,443.0,328.0,446.5,334.0,438.5,347.0,430.0,354.5,424.0,359.5,414.5,363.0,405.5,371.0,398.5,371.5,387.5,373.5,376.0,378.0,367.5,388.0,360.5,393.0,367.5,392.0,375.5,383.5,378.0,386.5,385.0,380.5,390.5,383.5,397.0,385.5,406.0,382.5,414.0,371.5,418.0,369.5,425.5,365.5,429.0,363.5,437.0,368.5,439.5,365.5,448.0,360.5,457.0,350.5,465.5,349.5,469.5,339.5,478.0,334.0,480.0,331.0,485.0,322.0,493.0,311.0,501.0,307.0,509.0,314.5,508.5,322.5,508.5" stroke="black" stroke-width="2" fill="none" />
<polyline points="301.5,482.5,293.5,490.0" stroke="black" stroke-width="2" fill="none" />
<polyline points="291.0,494.0,299.0,493.5,307.0,493.0,315.5,492.5,324.0,492.0,332.0,491.0,339.5,490.0,347.5,489.0,355.5,488.5,364.0,488.0" stroke="black" stroke-width="2" fill="none" />
<polyline points="379.5,463.5,372.0,464.0,363.5,464.0,355.5,464.5,347.5,465.0,339.0,466.0,331.0,466.5,323.0,467.5,315.0,468.5,307.0,469.5,299.0,470.0" stroke="black" stroke-width="2" fill="none" />
<polyline points="300.0,465.5,308.5,468.5" stroke="black" stroke-width="2" fill="none" />
<polyline points="292.5,469.5,284.5,470.0" stroke="black" stroke-width="2" fill="none" />
<polyline points="284.0,477.0,291.5,476.5,299.5,476.0,307.5,475.5,315.5,474.5,324.0,473.5,332.0,472.5,340.0,472.0,348.0,471.5,356.5,471.5,364.5,471.5,372.5,471.0,380.0,470.0" stroke="black" stroke-width="2" fill="none" />
<polyline points="372.5,479.5,364.0,480.5,356.5,480.5,348.5,481.0,340.0,481.5,332.0,481.5,323.5,482.0,315.0,483.0,306.5,484.0,298.0,485.0,290.5,485.5,282.5,486.5" stroke="black" stroke-width="2" fill="none" />
<polyline points="274.5,462.0,282.5,461.5,290.5,461.0" stroke="black" stroke-width="2" fill="none" />
<polyline points="291.5,451.0,283.5,451.5,275.0,452.5,266.5,452.5,258.5,453.0" stroke="black" stroke-width="2" fill="none" />
<polyline points="235.0,447.0,243.0,446.5,251.0,446.0,259.5,445.5,267.5,445.0,276.0,444.0,284.0,443.5,292.0,443.0,300.0,442.0,308.0,441.5,316.5,440.5,324.0,440.5,332.0,440.0,339.5,439.5,346.5,438.5,354.0,438.0,362.0,438.0,370.0,438.0,377.5,437.5" stroke="black" stroke-width="2" fill="none" />
<polyline points="325.5,378.0,333.5,370.5,342.0,363.0" stroke="black" stroke-width="2" fill="none" />
<polyline points="338.5,352.0,336.5,360.0,336.5,378.0,339.5,382.5" stroke="black" stroke-width="2" fill="none" />
<polyline points="315.0,394.5,307.0,396.0,301.5,406.0,293.0,407.5" stroke="black" stroke-width="2" fill="none" />
<polyline points="291.5,404.0,283.5,411.5,275.5,419.0,268.0,426.5" stroke="black" stroke-width="2" fill="none" />
<polyline points="278.0,427.0,286.5,420.0,294.5,412.5" stroke="black" stroke-width="2" fill="none" />
<polyline points="293.5,419.0,286.0,426.5" stroke="black" stroke-width="2" fill="none" />
<polyline points="291.5,419.0,287.5,427.0,286.5,435.5,285.0,443.5,284.0,451.5,283.0,459.5,281.5,467.5,282.5,476.0,284.5,484.0,290.0,491.5,291.0,499.5,290.0,507.5,295.5,508.5" stroke="black" stroke-width="2" fill="none" />
<polyline points="299.5,448.5,290.0,446.5,287.0,438.5" stroke="black" stroke-width="2" fill="none" />
<polyline points="284.5,444.0,293.5,451.0,290.5,459.0,289.5,467.0,285.5,470.5,286.0,478.0,298.5,483.0,303.5,478.0" stroke="black" stroke-width="2" fill="none" />
<polyline points="258.5,426.5,266.5,418.5,274.0,411.0,282.0,403.0,290.0,395.0" stroke="black" stroke-width="2" fill="none" />
<polyline points="298.5,380.0,290.5,387.5,283.0,394.5,275.0,402.0,267.0,409.5,259.0,416.5" stroke="black" stroke-width="2" fill="none" />
<polyline points="259.5,420.0,267.5,419.5,275.0,419.0,282.5,418.5,290.0,418.0" stroke="black" stroke-width="2" fill="none" />
<polyline points="250.5,415.5,258.0,408.0,266.0,400.5,274.5,393.0,282.5,385.5,290.5,378.5,298.5,371.0" stroke="black" stroke-width="2" fill="none" />
<polyline points="299.0,361.5,290.5,369.0,282.5,376.5,275.0,384.5,268.0,392.0,261.0,399.5,252.5,407.0,244.5,414.0" stroke="black" stroke-width="2" fill="none" />
<polyline points="233.5,414.0,241.5,406.5,250.5,399.0,259.0,392.0,268.0,385.0,276.0,376.5,284.0,369.0,292.0,361.0,300.5,353.0,308.5,345.5" stroke="black" stroke-width="2" fill="none" />
<polyline points="309.0,339.5,301.0,347.0,292.5,354.5,284.5,362.0,276.0,369.5,267.5,377.0,259.0,385.0,250.5,392.5,242.5,400.0,235.0,407.5" stroke="black" stroke-width="2" fill="none" />
<polyline points="228.5,405.5,236.5,398.0,244.5,390.5,252.5,383.5,260.5,376.0,268.0,368.5,276.0,360.5,283.5,353.0,291.0,346.0,299.0,338.0" stroke="black" stroke-width="2" fill="none" />
<polyline points="299.0,335.5,291.0,336.5,283.0,336.5,276.0,336.5,268.5,336.5,261.0,337.0,253.0,338.0,245.5,338.5,237.5,339.5,229.0,339.5,220.0,340.0,212.5,340.5,204.5,340.5,196.0,341.0,188.0,341.0,180.0,342.0,171.5,342.0,163.0,342.5,155.0,343.0,147.5,343.5,139.5,344.0" stroke="black" stroke-width="2" fill="none" />
<polyline points="140.0,336.0,148.0,336.0,155.5,335.5,163.5,335.0,171.5,334.5,179.5,334.5,187.5,334.0,195.0,334.0,202.5,334.0,210.5,334.0,218.5,333.5,226.5,332.5,235.0,332.0,243.5,331.0,252.0,331.0,260.5,330.0,268.5,329.5,276.5,328.5,284.5,327.5,292.5,327.5" stroke="black" stroke-width="2" fill="none" />
<polyline points="299.5,330.5,292.0,338.0,284.0,346.0,276.0,353.5,267.5,361.5,259.5,369.0,252.0,376.5,244.0,384.5,236.0,392.0,228.0,399.0,220.5,406.5" stroke="black" stroke-width="2" fill="none" />
<polyline points="194.5,414.5,186.5,415.5,178.5,415.5,171.5,416.0,163.5,416.5,156.0,417.0,148.5,417.5,140.0,417.5" stroke="black" stroke-width="2" fill="none" />
<polyline points="133.5,421.0,125.0,428.5" stroke="black" stroke-width="2" fill="none" />
<polyline points="122.5,428.5,131.0,428.0,139.0,428.0,147.0,427.5,155.0,427.0,163.0,427.0,171.0,426.0,179.0,425.5,187.0,424.5,195.5,424.0,204.0,423.5,212.0,423.5,220.0,423.5,228.0,423.0,235.5,422.5,243.5,422.0,251.5,422.0,260.0,422.0,268.0,421.5,276.5,421.5,284.0,421.0,292.5,420.0,300.5,419.5,308.5,419.0,316.5,418.5,324.5,418.5,332.5,417.0,340.0,416.0,347.5,415.5,355.5,415.5,363.0,415.0,371.0,414.5,380.0,413.5,387.5,412.5" stroke="black" stroke-width="2" fill="none" />
<polyline points="387.5,379.0,379.5,379.5,372.0,380.5,363.5,381.0,355.5,382.5,347.0,382.5,339.0,383.5,331.0,383.5,324.0,383.5,316.5,383.5,309.0,384.0,301.0,385.0,293.5,385.5,285.5,386.5,277.0,386.5,268.0,387.0,260.5,387.5,252.5,387.5,244.0,388.0,236.0,388.0,228.0,389.0,219.5,389.0,211.0,389.5,203.0,390.0,195.5,390.5,187.5,391.0,179.5,391.5,171.5,392.0,164.0,392.5,157.0,393.5,149.5,394.5,141.5,395.0,133.5,395.5,125.5,395.5,117.5,395.5,109.0,396.0" stroke="black" stroke-width="2" fill="none" />
<polyline points="110.5,393.5,119.5,397.0,114.5,399.0,115.5,406.5,114.5,415.5,117.5,418.5" stroke="black" stroke-width="2" fill="none" />
<polyline points="124.0,397.0,131.5,389.5,139.5,382.0,147.5,374.0,155.5,366.5,164.0,358.5,172.0,351.0,179.5,344.0,187.5,336.0,195.5,328.5,203.5,321.0,212.0,313.5" stroke="black" stroke-width="2" fill="none" />
<polyline points="205.0,308.5,196.5,316.0,188.0,323.0,179.5,330.5,171.0,338.5,163.0,346.0,155.0,353.5,147.0,360.5,139.0,368.0,131.0,375.5" stroke="black" stroke-width="2" fill="none" />
<polyline points="126.0,379.0,117.5,386.5" stroke="black" stroke-width="2" fill="none" />
<polyline points="124.0,390.0,116.0,397.5" stroke="black" stroke-width="2" fill="none" />
<polyline points="109.0,388.5,117.0,388.0,125.0,388.0,132.5,387.5,140.0,387.0,148.0,386.5,156.0,386.0,164.0,385.5,172.0,384.5,180.0,384.0,188.0,383.0,196.0,383.0,203.5,382.5,211.5,382.0,219.5,381.5,227.5,381.5,235.5,381.0,243.0,381.0,250.5,381.0,258.5,381.0,266.5,380.5,274.5,379.5,283.0,379.0,291.5,378.0,300.0,378.0,308.5,377.0,316.5,376.5,324.5,375.5,332.5,374.5,340.5,374.5,348.5,374.0,356.5,373.5,364.5,373.5,372.0,373.0,380.0,373.0,388.0,373.0,395.5,372.5" stroke="black" stroke-width="2" fill="none" />
<polyline points="385.0,356.5,381.0,364.5,371.5,372.0,376.5,379.0,374.5,385.5,370.5,393.5,377.0,402.0,373.0,404.5,362.0,406.5,367.0,412.5,365.0,418.0,363.0,426.5,360.0,427.5,358.5,435.5,353.0,437.5,345.0,445.5,341.5,453.5,346.5,455.0,338.5,463.0,330.0,469.0,321.0,477.0,315.0,485.0,306.5,493.0,299.0,496.5,307.0,492.5,310.5,490.5,318.0,481.0,326.0,471.5,337.0,474.0,341.0,461.0" stroke="black" stroke-width="2" fill="none" />
<polyline points="290.0,400.5,281.5,401.5,273.5,402.5,265.0,403.5,257.0,404.5,250.0,405.0,242.5,405.5,235.0,406.0,227.5,406.5,219.5,407.0,211.5,407.5,203.5,407.5,195.5,407.5,188.0,407.0,180.0,407.0,172.5,407.5,164.5,408.0,156.5,408.5,149.0,409.5,141.5,410.0" stroke="black" stroke-width="2" fill="none" />
<polyline points="140.5,405.5,149.0,398.0,157.0,390.5,165.0,383.0,173.0,375.5,181.0,367.5,189.0,359.5,196.5,352.0,204.5,345.0,212.0,338.0,220.0,331.0,227.5,324.0,235.0,316.0" stroke="black" stroke-width="2" fill="none" />
<polyline points="230.5,316.5,239.0,318.5" stroke="black" stroke-width="2" fill="none" />
<polyline points="243.5,324.5,235.0,325.0,227.0,325.5,219.0,326.0,210.5,326.5,203.0,327.0,195.0,327.0,187.5,327.5,179.5,327.5,172.0,327.5,164.5,328.0,157.0,328.0,149.0,328.0,140.5,328.5" stroke="black" stroke-width="2" fill="none" />
<polyline points="131.0,329.5,139.0,322.5,147.0,315.5,155.0,308.0" stroke="black" stroke-width="2" fill="none" />
<polyline points="162.5,307.0,154.5,314.0,146.5,321.5,138.5,329.5,131.0,337.0,124.0,345.0" stroke="black" stroke-width="2" fill="none" />
<polyline points="129.5,346.5,136.0,351.0,131.0,357.5,126.0,366.0,126.5,374.0,135.5,374.0" stroke="black" stroke-width="2" fill="none" />
<polyline points="132.5,369.5,140.5,369.0,149.0,369.0,156.5,369.0,164.0,368.5,171.5,368.0,179.5,367.0,188.0,367.0,196.0,366.0,203.5,365.0,211.5,364.5,219.5,364.0,227.0,363.5,235.5,363.0,244.5,363.0,252.5,363.0,260.0,362.5,268.0,361.5,275.5,360.5,283.0,360.0,291.0,360.0" stroke="black" stroke-width="2" fill="none" />
<polyline points="291.0,375.0,282.5,376.0,274.5,377.0,266.5,378.0,258.5,378.5,250.5,379.5,242.5,379.5,234.0,380.0,225.5,380.0,217.5,380.5,209.5,381.0,202.0,381.5,194.0,383.0,185.5,383.5,177.5,384.0,169.5,385.0,162.0,385.5,154.0,385.5,146.5,386.0,139.0,386.5" stroke="black" stroke-width="2" fill="none" />
<polyline points="134.0,384.0,141.5,376.5,148.5,369.0,156.0,361.5,163.5,354.0,171.5,346.5,179.0,338.0,186.5,330.0,194.5,322.0,203.0,314.5" stroke="black" stroke-width="2" fill="none" />
<polyline points="196.5,307.0,188.5,314.5,180.0,321.5,172.0,329.5,164.0,337.0,156.0,345.0,147.5,352.0,139.5,359.0,131.0,366.5" stroke="black" stroke-width="2" fill="none" />
<polyline points="123.5,367.5,132.0,360.0,140.0,352.5,148.0,344.5,156.0,337.0,164.5,329.5,173.0,321.5,181.0,313.5,189.0,306.5" stroke="black" stroke-width="2" fill="none" />
<polyline points="180.0,309.0,172.0,317.0,164.5,324.0,156.5,331.0,148.5,338.0,140.0,345.0,132.0,353.0" stroke="black" stroke-width="2" fill="none" />
<polyline points="131.0,345.5,139.5,338.0,148.0,330.5,156.5,323.0,165.0,316.0,173.0,308.5" stroke="black" stroke-width="2" fill="none" />
<polyline points="178.0,311.5,170.5,312.0,162.5,312.0,154.5,312.0,146.5,312.0,139.0,312.5,131.0,313.0" stroke="black" stroke-width="2" fill="none" />
<polyline points="132.5,315.5,140.0,309.0,148.0,302.0" stroke="black" stroke-width="2" fill="none" />
<polyline points="155.5,299.5,148.0,307.0,139.5,315.0,131.5,323.0" stroke="black" stroke-width="2" fill="none" />
<polyline points="131.0,321.5,134.0,335.5,128.0,337.5,127.5,345.5,123.5,350.0,120.5,356.0,115.0,364.0,113.0,372.0,122.0,380.0,123.5,383.0" stroke="black" stroke-width="2" fill="none" />
<polyline points="125.5,377.0,117.5,376.0" stroke="black" stroke-width="2" fill="none" />
<polyline points="117.0,369.0,125.0,361.0" stroke="black" stroke-width="2" fill="none" />
<polyline points="113.5,364.0,122.0,357.0,134.0,349.5" stroke="black" stroke-width="2" fill="none" />
<polyline points="140.0,353.5,147.5,352.5,155.0,352.0,163.5,351.5,172.0,351.5,180.5,351.0,188.5,351.0,196.5,351.0,204.5,350.5,212.5,350.0,220.5,349.5,228.5,349.0,237.0,349.0,245.5,348.5,253.5,348.5,261.5,348.0,269.5,347.0,277.5,346.5,285.5,345.5,293.5,345.0,301.5,345.0" stroke="black" stroke-width="2" fill="none" />
<polyline points="305.5,340.0,308.0,343.0,305.0,351.5,303.5,359.5,298.0,367.0,302.0,383.0,304.0,391.0,303.5,398.5,294.5,406.5,298.5,407.5,297.0,415.0,305.0,419.5,313.0,418.5,318.5,407.5,327.0,402.5,335.0,401.0,342.0,394.5,348.5,390.0,354.5,389.0,359.0,393.0,365.0,387.5,377.0,380.0,381.0,380.5,391.5,381.0,388.5,389.0,388.0,397.5" stroke="black" stroke-width="2" fill="none" />
<polyline points="395.0,346.0,387.0,347.0,379.5,347.0,371.5,348.0,363.0,349.0,354.5,350.0,346.0,350.5,338.5,351.0,331.0,352.0,323.5,352.5,315.5,353.5,307.5,354.5,299.0,355.0,290.0,356.0,281.5,356.0,273.0,356.0,265.5,356.5,257.0,357.0,249.5,357.5,242.0,358.0,235.0,358.5,227.5,358.5,220.0,359.0,213.0,359.5,205.0,360.0,197.0,361.0,189.0,361.5,181.0,362.0,172.5,361.5,165.0,361.0,157.0,361.5,149.5,361.5,141.5,362.0,133.5,362.5,125.0,363.0,116.0,364.0,108.0,364.5" stroke="black" stroke-width="2" fill="none" />
<polyline points="109.0,356.5,116.5,356.0,124.0,355.5,132.0,355.5,140.0,355.0,148.5,355.0,156.5,354.5,165.0,354.0,173.0,353.0,181.5,353.0,189.5,352.5,197.5,352.0,205.5,352.0,213.0,351.5,221.0,351.5,228.5,351.0,236.5,350.5,244.5,350.0,252.0,349.5,259.5,349.0,267.5,348.5,275.0,348.0,282.5,347.0,290.0,346.5,297.5,346.0,305.5,345.5,313.5,344.5,322.0,344.0,330.5,343.0,338.0,342.5,346.0,342.5,354.0,341.5,362.0,341.0,370.5,340.5,378.5,339.5,386.5,339.0,395.0,339.0" stroke="black" stroke-width="2" fill="none" />
<polyline points="401.5,335.0,393.5,335.5,385.0,336.5,377.0,337.5,369.5,338.5,362.0,338.5,354.0,339.0,347.0,339.0,339.5,339.0,331.5,339.5,324.0,339.5" stroke="black" stroke-width="2" fill="none" />
<polyline points="323.0,325.5,315.0,326.0" stroke="black" stroke-width="2" fill="none" />
<polyline points="314.0,322.5,322.5,314.5" stroke="black" stroke-width="2" fill="none" />
<polyline points="317.0,316.5,309.0,324.0" stroke="black" stroke-width="2" fill="none" />
<polyline points="306.0,323.0,298.0,323.0,290.5,323.0,283.0,323.0,274.5,324.0,267.0,325.0,259.0,325.5,250.5,326.0,242.0,326.0,234.5,326.5,227.0,326.5,219.0,327.0,210.5,327.0,203.0,328.0,195.0,328.5,186.5,329.0,179.0,329.5,171.5,330.0,163.5,330.5,155.5,330.5,147.5,331.0,140.0,331.0,132.5,332.0,124.5,333.0" stroke="black" stroke-width="2" fill="none" />
<polyline points="123.5,324.5,131.5,323.5,140.0,323.5,148.0,323.0,156.0,322.5,164.0,322.5,172.0,322.0,179.5,322.0,187.5,321.5,195.5,321.5,203.5,320.5,211.5,320.0,219.0,320.0,226.5,319.5,234.0,319.5,241.5,319.0,249.5,318.0,257.5,317.0,266.0,316.5,274.5,316.5,283.0,316.0,290.5,315.0,299.0,314.0,307.0,313.5" stroke="black" stroke-width="2" fill="none" />
<polyline points="301.5,311.0,309.0,310.0,316.5,309.0,324.0,308.5" stroke="black" stroke-width="2" fill="none" />
<polyline points="332.0,309.5,340.0,309.0,348.0,308.5,356.0,307.5,364.0,307.0,371.5,306.5,379.5,306.0,388.0,306.0,396.0,306.0,404.0,306.0" stroke="black" stroke-width="2" fill="none" />
<polyline points="411.5,296.0,403.5,296.0,396.0,296.5,388.5,297.0,380.5,297.5,373.0,298.0,365.0,298.5,357.0,299.0,349.5,299.5,342.0,300.0,333.5,300.0" stroke="black" stroke-width="2" fill="none" />
<polyline points="324.0,294.5,332.0,293.5,340.0,292.5,347.5,292.0,355.0,291.5,362.5,291.0,370.0,290.5,378.0,290.0,386.0,289.0,393.5,288.5,401.5,288.0,409.5,287.5" stroke="black" stroke-width="2" fill="none" />
<polyline points="411.5,265.5,403.5,266.0,395.5,266.5,388.0,266.5,380.5,266.0,372.5,266.5,365.5,267.0,358.0,267.0,350.5,267.5,342.0,267.5" stroke="black" stroke-width="2" fill="none" />
<polyline points="342.5,262.0,350.5,254.5,358.0,247.5,365.5,240.5,372.0,233.5,379.0,226.5,387.0,219.0,394.5,212.0,402.0,205.0,410.0,197.5,417.5,189.5" stroke="black" stroke-width="2" fill="none" />
<polyline points="418.5,195.0,410.5,203.0,402.5,211.0" stroke="black" stroke-width="2" fill="none" />
<polyline points="393.5,203.5,386.0,211.0,378.5,218.5,370.5,226.5,362.5,234.0,354.0,242.0,346.5,249.5" stroke="black" stroke-width="2" fill="none" />
<polyline points="347.5,248.5,355.5,248.5" stroke="black" stroke-width="2" fill="none" />
<polyline points="350.5,242.0,356.5,240.0" stroke="black" stroke-width="2" fill="none" />
<polyline points="347.0,242.0,355.5,235.0,364.0,228.0,372.0,221.0,380.0,213.0,388.5,205.5" stroke="black" stroke-width="2" fill="none" />
<polyline points="384.5,205.5,386.5,213.5,384.0,220.0,380.5,227.0" stroke="black" stroke-width="2" fill="none" />
<polyline points="381.5,240.0,389.0,240.0" stroke="black" stroke-width="2" fill="none" />
<polyline points="395.0,243.0,403.0,235.5,410.5,228.0" stroke="black" stroke-width="2" fill="none" />
<polyline points="429.0,202.5,421.0,203.0,413.0,204.0,405.0,204.0,397.0,204.5,389.0,204.5,381.0,205.0,373.0,204.5,365.0,204.0,357.5,204.5,349.5,205.0" stroke="black" stroke-width="2" fill="none" />
<polyline points="353.0,203.5,353.0,207.5,351.0,215.5,345.0,221.5,344.0,229.0" stroke="black" stroke-width="2" fill="none" />
<polyline points="339.0,233.5,347.5,226.0,356.0,218.5,364.0,210.5,372.5,203.0" stroke="black" stroke-width="2" fill="none" />
<polyline points="371.0,196.0,379.0,189.0,387.0,181.5" stroke="black" stroke-width="2" fill="none" />
<polyline points="386.5,186.0,394.5,178.0" stroke="black" stroke-width="2" fill="none" />
<polyline points="395.0,171.0,403.0,163.5" stroke="black" stroke-width="2" fill="none" />
<polyline points="398.0,165.5,405.0,160.0,402.0,168.0,391.0,178.5,376.0,188.0,371.5,196.0,367.5,204.0,368.5,213.0,367.5,221.0,375.5,218.0,365.5,222.5,358.5,228.5,359.5,236.5,356.5,244.5,354.5,253.0,359.5,254.0,354.0,260.5,351.0,268.5,352.5,275.5,357.5,263.5,369.0,259.0,371.0,241.0,374.5,232.5,384.5,229.5,388.5,216.5,393.5,206.5,397.5,210.0,405.5,208.0,416.0,203.5" stroke="black" stroke-width="2" fill="none" />
<polyline points="430.0,204.5,422.0,205.0,413.5,206.0,405.5,207.0,397.5,208.0,389.0,208.5,381.0,209.0,372.5,209.0,364.0,209.5,355.0,210.0,346.5,211.0,338.5,211.5,331.0,212.0,323.0,212.0,315.0,212.5,307.0,213.0" stroke="black" stroke-width="2" fill="none" />
<polyline points="308.0,221.0,316.0,220.5" stroke="black" stroke-width="2" fill="none" />
<polyline points="332.5,222.5,340.5,222.0,348.5,221.5,356.0,221.0,364.5,220.0,372.0,219.5,380.5,218.5,389.0,217.5,397.5,217.0,406.0,216.5,413.5,216.0,421.5,216.0,429.0,215.5" stroke="black" stroke-width="2" fill="none" />
<polyline points="422.0,232.0,413.5,232.5,404.5,233.0,395.5,233.5,387.0,234.0,379.0,234.5,370.0,235.0,361.5,236.0,353.0,237.0,345.0,238.0,337.0,238.5" stroke="black" stroke-width="2" fill="none" />
<polyline points="339.5,240.5,348.0,233.5,356.5,225.5,364.5,218.0,372.5,211.0,380.5,203.5" stroke="black" stroke-width="2" fill="none" />
<polyline points="384.0,199.0,372.0,196.5,364.5,204.0" stroke="black" stroke-width="2" fill="none" />
<polyline points="363.0,204.0,354.5,212.0,346.5,219.5,338.5,226.5" stroke="black" stroke-width="2" fill="none" />
<polyline points="337.0,231.5,345.0,230.5,354.0,229.5,362.0,228.5,370.5,227.5,379.0,226.5,387.5,225.5,395.5,224.5,404.0,224.0,412.5,223.0,421.0,222.0" stroke="black" stroke-width="2" fill="none" />
<polyline points="420.0,251.0,412.0,251.5,403.5,251.5,395.0,251.5,386.5,251.5,377.5,251.5,370.0,251.0,362.0,251.0,353.5,251.5,344.5,252.5,336.5,253.5" stroke="black" stroke-width="2" fill="none" />
<polyline points="332.0,253.5,324.0,254.0,316.0,254.5" stroke="black" stroke-width="2" fill="none" />
<polyline points="324.0,260.0,316.5,260.5,308.5,260.5,300.5,261.0" stroke="black" stroke-width="2" fill="none" />
<polyline points="299.0,258.0,307.0,260.0" stroke="black" stroke-width="2" fill="none" />
<polyline points="308.0,253.5,300.5,253.5" stroke="black" stroke-width="2" fill="none" />
<polyline points="303.5,250.5,295.5,257.5" stroke="black" stroke-width="2" fill="none" />
<polyline points="298.5,245.0,306.0,245.0,314.5,244.5,322.5,244.0,330.5,243.0,338.5,242.0,346.5,241.5,354.5,241.5,362.5,241.0,370.5,240.5,378.0,240.0,386.0,240.0,394.0,239.0,402.5,238.0,410.5,237.0,419.0,236.5" stroke="black" stroke-width="2" fill="none" />
<polyline points="420.5,257.5,412.5,258.0,404.0,258.5,396.0,259.0,387.5,259.5,379.5,259.5,371.0,260.0,363.5,260.0,355.5,259.5,347.5,259.5,339.5,260.0" stroke="black" stroke-width="2" fill="none" />
<polyline points="343.0,262.0,351.0,257.0" stroke="black" stroke-width="2" fill="none" />
<polyline points="355.0,257.5,346.5,258.5" stroke="black" stroke-width="2" fill="none" />
<polyline points="339.5,251.0,339.5,242.5,335.0,234.5,332.5,226.0,325.5,214.0,332.5,208.5,332.5,204.0,330.5,198.5,321.0,190.0,328.5,186.0,333.0,176.5,334.5,168.5,336.5,160.5,336.5,173.5,342.0,165.5,342.0,157.5,345.0,148.5,347.0,139.0,350.0,136.5,344.0,144.5,341.0,148.0" stroke="black" stroke-width="2" fill="none" />
<polyline points="348.0,156.0,356.0,156.0,365.0,156.0,373.0,156.0,381.0,156.0,389.0,156.0,397.0,155.5,405.0,155.5,412.5,155.0,420.5,155.0,428.0,154.5" stroke="black" stroke-width="2" fill="none" />
<polyline points="417.5,157.5,409.5,165.0" stroke="black" stroke-width="2" fill="none" />
<polyline points="413.5,157.5,413.5,165.5,422.0,161.5" stroke="black" stroke-width="2" fill="none" />
<polyline points="426.5,162.0,418.5,162.5,410.5,163.0,403.0,163.5,395.5,164.0,387.5,164.5,379.5,165.0,371.5,165.0,363.5,165.0,356.0,164.5,348.5,164.5" stroke="black" stroke-width="2" fill="none" />
<polyline points="345.5,172.0,354.0,164.5,362.0,156.5" stroke="black" stroke-width="2" fill="none" />
<polyline points="361.5,155.5,365.5,164.5,365.5,172.5,364.0,175.5" stroke="black" stroke-width="2" fill="none" />
<polyline points="365.5,177.0,357.5,177.0" stroke="black" stroke-width="2" fill="none" />
<polyline points="356.0,168.0,363.5,168.0" stroke="black" stroke-width="2" fill="none" />
<polyline points="372.0,169.0,380.5,168.5" stroke="black" stroke-width="2" fill="none" />
<polyline points="379.5,164.0,377.5,153.0,378.5,161.5,376.5,169.5,376.5,174.5,371.5,177.5" stroke="black" stroke-width="2" fill="none" />
<polyline points="381.5,179.0,373.5,187.0,365.5,194.5,357.0,202.0,348.5,209.0,340.0,216.0" stroke="black" stroke-width="2" fill="none" />
<polyline points="340.5,215.5,332.5,219.5,331.0,208.5" stroke="black" stroke-width="2" fill="none" />
<polyline points="329.5,198.5,337.5,198.0,346.0,196.5,354.5,195.5,363.5,194.5,372.0,194.0,380.5,193.5,388.5,193.0,396.5,192.5,404.0,191.5,412.0,191.0,419.5,191.0,427.0,191.0" stroke="black" stroke-width="2" fill="none" />
<polyline points="424.0,189.5,421.0,194.5,419.0,202.0,423.5,206.5,423.5,212.5,420.5,223.0,419.5,229.0,415.0,237.0,411.0,241.0,417.0,248.5,410.5,257.0,414.0,260.5,409.0,269.0,402.0,277.0,401.0,279.0,408.5,286.0" stroke="black" stroke-width="2" fill="none" />
<polyline points="414.5,273.5,406.5,274.0,398.5,274.5,390.5,274.5,382.5,275.0,374.0,275.5,365.5,276.0,357.5,276.0,349.5,276.5,341.5,277.0,333.5,277.5" stroke="black" stroke-width="2" fill="none" />
<polyline points="324.5,284.5,332.5,284.0,340.0,283.5,348.0,283.0,356.0,282.5,364.5,281.5,372.0,281.5,380.0,281.5,387.5,281.5,395.5,282.0,402.5,281.5,411.0,280.5" stroke="black" stroke-width="2" fill="none" />
<polyline points="403.5,299.5,393.5,301.5,384.5,310.0,376.5,313.0,372.5,323.5,368.0,323.5,366.5,320.0,364.5,319.5,364.0,331.5,354.0,330.5,349.0,333.5,341.5,337.5,347.0,333.5,357.0,330.0,350.5,325.5,357.5,317.5,360.0,308.5,365.0,305.5,371.0,298.5,371.0,290.5,368.0,290.5,370.5,282.0,372.5,280.5,375.0,272.5,375.0,266.0,378.0,261.5,369.0,260.0,365.5,256.0,370.5,248.5,374.5,240.5,376.0,231.5,376.0,223.5,381.0,215.5,382.0,207.5,388.0,199.5,385.5,195.0,390.5,188.0,396.5,183.0,395.5,172.0,391.5,167.0,392.5,159.0,383.5,153.0" stroke="black" stroke-width="2" fill="none" />
<polyline points="381.0,156.0,373.0,163.0,364.5,170.0,356.0,177.5,347.5,184.5" stroke="black" stroke-width="2" fill="none" />
<polyline points="349.5,182.0,357.0,181.5,365.0,181.0,373.0,181.0,380.5,180.5,388.0,180.5,396.0,180.0,404.5,179.5,412.5,179.0,420.0,178.5,428.0,178.0" stroke="black" stroke-width="2" fill="none" />
<polyline points="428.5,182.0,420.5,182.5,412.5,183.5,405.0,184.5,397.5,185.5,389.0,186.5,380.0,188.0,372.5,188.5,364.5,189.0,356.5,189.0,348.5,189.0,340.0,189.5" stroke="black" stroke-width="2" fill="none" />
<polyline points="345.5,194.0,354.0,187.0,362.0,180.0,370.5,172.5,378.5,165.0,387.0,157.5" stroke="black" stroke-width="2" fill="none" />
<polyline points="395.5,155.5,387.5,163.0,379.0,171.0,371.0,178.5,363.0,186.0,355.0,193.0" stroke="black" stroke-width="2" fill="none" />
<polyline points="353.0,193.5,361.0,190.5,368.5,189.0,376.5,187.0,379.0,176.5,382.5,169.5,390.5,166.0,397.5,181.0,405.0,182.5,413.0,177.5,420.5,177.5,428.5,174.5" stroke="black" stroke-width="2" fill="none" />
<polyline points="429.0,167.0,421.5,167.0,413.0,167.5,405.0,168.0,397.0,168.5,389.0,169.5,381.5,170.0,373.0,170.5,364.5,171.0,356.0,172.0,348.0,172.0,339.5,172.5" stroke="black" stroke-width="2" fill="none" />
<polyline points="332.5,172.0,324.5,172.5" stroke="black" stroke-width="2" fill="none" />
<polyline points="332.5,178.5,341.5,174.5" stroke="black" stroke-width="2" fill="none" />
<polyline points="347.5,178.5,355.5,170.5,364.0,162.5,372.0,155.0" stroke="black" stroke-width="2" fill="none" />
<polyline points="354.5,154.5,362.5,151.5,365.0,150.5,371.5,156.0,362.5,164.0,361.5,172.5,361.5,180.5,350.5,185.0,346.5,193.5,355.5,192.5,354.5,200.5,359.5,200.5,364.5,202.0,355.0,215.5,356.0,222.5,354.0,223.5,351.0,231.5,349.0,238.5,341.5,239.5,349.0,236.5,349.0,232.5,351.0,232.5" stroke="black" stroke-width="2" fill="none" />
<polyline points="349.5,224.5,357.5,224.0" stroke="black" stroke-width="2" fill="none" />
<polyline points="353.5,221.0,361.5,223.0,369.0,223.0,377.0,215.5" stroke="black" stroke-width="2" fill="none" />
<polyline points="383.5,186.0,391.5,183.0" stroke="black" stroke-width="2" fill="none" />
<polyline points="386.5,172.5,394.5,165.0,403.0,157.5" stroke="black" stroke-width="2" fill="none" />
<polyline points="414.0,152.0,413.0,160.0,407.5,160.0,408.5,168.0,413.5,176.0,400.5,181.5,409.0,187.5,411.0,198.5,414.5,210.5,412.5,219.0,410.5,229.0,408.5,237.0,403.5,241.0,400.5,247.5,407.0,248.5,401.0,258.5,399.0,267.0,397.0,275.0,395.0,283.0,399.0,292.0,395.5,300.0,401.0,303.5,398.5,311.5,390.5,321.5,388.5,329.5,377.5,331.0,375.0,340.0,379.0,347.0,377.5,348.0,381.0,356.0,369.0,362.5" stroke="black" stroke-width="2" fill="none" />
<polyline points="370.5,348.5,364.5,356.5,360.5,358.0,358.5,366.0,350.5,375.5,339.5,388.5,338.5,395.5,332.5,400.0" stroke="black" stroke-width="2" fill="none" />
<polyline points="292.0,390.5,284.0,391.0,275.5,392.0,267.5,392.5,259.5,393.0,252.0,393.0,243.5,394.0,235.0,394.5,227.0,395.5,219.0,396.5,211.0,397.0,203.5,397.5,196.0,397.5,188.5,398.0,180.0,398.5,172.5,399.0,165.0,399.5,157.5,400.5,150.0,401.0,142.5,401.5,134.5,402.5" stroke="black" stroke-width="2" fill="none" />
<polyline points="140.0,394.5,148.0,394.0,156.0,393.5,164.0,393.0,172.0,392.0,180.0,391.5,187.5,390.5,194.5,390.0,202.0,390.0,210.0,389.5,218.0,389.0,226.5,388.5,234.5,388.0,242.5,388.0,250.5,387.0,258.5,386.5,266.0,385.5,274.5,384.5,282.5,384.5,291.0,384.5" stroke="black" stroke-width="2" fill="none" />
<polyline points="292.0,367.5,284.0,368.5,276.0,369.0,268.0,369.5,260.0,370.0,252.0,370.5,243.5,371.5,235.0,372.5,227.0,373.0,219.0,373.5,211.0,374.0,203.5,374.5,195.5,375.0,187.5,376.0,180.0,376.5,171.5,377.0,163.5,377.5,155.0,378.0,146.5,378.5,138.5,379.0" stroke="black" stroke-width="2" fill="none" />
<polyline points="141.0,362.0,148.5,361.5,156.5,361.0,164.5,361.0,172.0,360.5,180.0,360.0,187.5,359.5,195.5,359.5,203.5,359.5,212.0,359.0,220.0,358.5,228.0,358.0,236.5,357.5,244.5,357.0,253.0,356.0,261.0,356.0,269.5,355.5,278.0,355.0,286.0,354.5,294.0,353.0" stroke="black" stroke-width="2" fill="none" />
<polyline points="299.0,362.5,290.0,363.5,281.5,364.5,273.5,365.0,265.0,366.0,257.5,366.0,250.0,366.5,242.5,367.0,234.5,366.5,227.0,367.0,219.5,367.0,212.0,366.5,204.5,366.5,197.0,367.5,189.0,367.5,181.0,368.5,173.0,369.5,165.5,370.5,157.5,371.0,149.5,371.5,141.0,372.0,132.5,372.5,124.5,373.0,116.0,373.5,107.5,374.0" stroke="black" stroke-width="2" fill="none" />
<polyline points="107.0,350.0,114.5,349.0,122.5,348.5,131.0,348.5,139.5,348.0,148.5,348.0,157.0,347.0,165.0,346.0,173.0,345.0,181.0,344.5,189.5,344.0,197.0,344.0,205.0,343.0,213.0,342.5,221.0,342.5,228.5,342.0,236.0,341.5,244.0,340.5,252.0,340.0,259.5,339.0,267.0,338.5,275.5,337.5,283.0,337.0,290.5,336.5,298.5,336.0,306.5,335.5" stroke="black" stroke-width="2" fill="none" />
<polyline points="308.0,328.0,299.5,329.0,291.0,329.5,283.0,330.5,275.0,331.5,267.0,332.0,259.5,332.5,252.0,332.5,244.5,333.0,236.0,333.5,228.5,334.0,221.0,334.5,213.5,335.5,206.0,336.0,198.5,336.5,190.5,337.5,182.0,338.0,173.0,338.5,164.5,339.0,156.5,339.0,148.5,339.5,140.0,339.5,132.0,340.5,124.0,341.0,116.0,341.0,108.5,341.0" stroke="black" stroke-width="2" fill="none" />
<polyline points="112.5,342.5,113.0,341.5,112.0,349.0,115.5,354.0,112.0,355.0,109.5,369.0,111.5,374.5,118.0,374.0,122.0,368.5" stroke="black" stroke-width="2" fill="none" />
<polyline points="116.0,332.0,108.0,332.5" stroke="black" stroke-width="2" fill="none" />
<polyline points="113.0,318.5,121.0,318.0,129.0,317.0,137.5,316.0,146.5,316.0,155.5,315.5,164.0,314.5,172.0,314.0,180.5,314.0,189.5,313.0,197.5,313.0,205.0,312.5,212.5,311.5,220.5,311.0,228.5,310.5,236.0,310.0,244.0,310.0,251.5,310.5,259.5,310.5" stroke="black" stroke-width="2" fill="none" />
<polyline points="276.0,305.5,278.0,304.5,274.0,313.0,274.5,322.0,285.5,323.0,294.5,329.0,302.0,324.0,310.5,320.5,318.0,321.0,319.0,327.0,318.0,335.0" stroke="black" stroke-width="2" fill="none" />
<polyline points="321.5,323.5,323.0,331.5,322.5,340.0,326.5,343.0,329.5,348.5" stroke="black" stroke-width="2" fill="none" />
<polyline points="308.0,364.0,312.0,372.0,310.0,380.0,314.5,388.0,312.5,398.5,307.5,405.5,310.5,413.5" stroke="black" stroke-width="2" fill="none" />
<polyline points="365.0,456.5,371.5,448.5,374.0,443.5,371.0,450.0,363.0,460.0,355.0,466.5,347.0,472.5,339.0,479.5,331.0,486.0,323.0,493.0,314.0,498.5,306.0,504.5,300.0,501.0,298.0,489.5,311.0,480.5,315.0,470.0,316.0,462.0,314.5,453.0,319.5,447.5,316.5,439.5,328.0,436.0,329.0,429.0,325.0,427.5,323.0,420.5,328.0,412.5,318.0,409.0,321.0,400.5,324.0,393.0,331.0,388.0,330.5,380.0,332.0,374.5,338.5,370.5,349.0,362.5,355.0,353.0,360.0,344.0,365.5,340.0,367.5,332.0,368.0,326.0,375.5,321.0,388.5,314.0,390.5,306.5,388.5,303.5,392.5,298.5,384.5,288.0,385.5,280.0,388.5,275.5,388.5,270.5,391.5,262.5,388.5,255.5,389.0,243.5,395.0,240.0,398.5,232.0,401.5,224.0,399.0,218.0,406.5,210.0,407.5,205.0,409.5,197.0,412.5,190.5,422.0,180.5,419.5,173.0,428.5,171.0,429.5,156.5,424.5,155.0,426.5,144.5,422.0,146.0,417.5,138.0,412.0,137.5" stroke="black" stroke-width="2" fill="none" />
<polyline points="401.5,132.5,409.5,133.5,412.0,136.5,405.5,144.5,412.0,143.5,419.0,148.5" stroke="black" stroke-width="2" fill="none" />
<polyline points="425.0,144.0,417.0,145.0,409.5,146.0,402.5,146.0,395.5,146.0,387.5,146.5,379.0,147.0,371.0,147.5,363.0,148.0,355.0,148.5" stroke="black" stroke-width="2" fill="none" />
<polyline points="363.5,135.5,372.0,134.5" stroke="black" stroke-width="2" fill="none" />
<polyline points="375.0,132.5,383.5,132.0,390.0,136.0" stroke="black" stroke-width="2" fill="none" />
<polyline points="357.5,131.0,349.5,131.5" stroke="black" stroke-width="2" fill="none" />
<polyline points="340.5,139.5,332.0,140.0,323.5,141.0" stroke="black" stroke-width="2" fill="none" />
<polyline points="325.5,134.0,333.0,133.5" stroke="black" stroke-width="2" fill="none" />
<polyline points="331.0,133.0,336.5,127.0,323.5,132.0,328.5,141.5,327.5,143.0" stroke="black" stroke-width="2" fill="none" />
<polyline points="323.5,149.0,315.5,149.0" stroke="black" stroke-width="2" fill="none" />
<polyline points="306.0,139.0,298.0,140.0" stroke="black" stroke-width="2" fill="none" />
<polyline points="302.5,138.5,311.5,138.5,311.5,146.0,318.0,144.0" stroke="black" stroke-width="2" fill="none" />
<polyline points="315.5,132.0,308.0,132.0,300.0,132.5" stroke="black" stroke-width="2" fill="none" />
<polyline points="292.0,130.5,300.0,134.5,298.5,142.0,289.0,150.0,287.0,159.0,279.0,168.0,281.0,176.0,279.5,185.5,281.5,197.5,281.5,209.5,285.5,210.5" stroke="black" stroke-width="2" fill="none" />
<polyline points="284.0,215.0,292.5,214.0" stroke="black" stroke-width="2" fill="none" />
<polyline points="283.0,205.0,290.5,205.0,298.0,205.0,306.0,205.0,314.0,205.0,322.0,204.0,330.5,204.0,339.0,202.5" stroke="black" stroke-width="2" fill="none" />
<polyline points="330.5,194.0,338.5,190.0,340.0,186.0,338.5,193.5,342.5,204.0,342.0,213.0,333.0,221.5,338.0,231.5" stroke="black" stroke-width="2" fill="none" />
<polyline points="322.0,223.5,313.5,224.0,305.5,225.0,297.5,226.0,290.0,226.5,282.5,226.5,275.0,227.0,267.5,227.0,259.5,227.5,251.5,228.5,243.5,228.5,235.5,229.0,228.0,229.0,220.0,229.5,212.0,229.5,204.0,230.0,196.0,230.5,187.5,230.5,179.5,231.5,171.5,232.0,164.0,232.5,156.0,233.0,148.5,233.5,140.5,234.0,132.5,235.0,124.0,236.0,116.0,237.0,108.5,238.0,100.5,238.5" stroke="black" stroke-width="2" fill="none" />
<polyline points="104.5,234.0,112.5,231.0" stroke="black" stroke-width="2" fill="none" />
<polyline points="121.0,227.5,114.0,219.5,106.0,222.5" stroke="black" stroke-width="2" fill="none" />
<polyline points="101.0,230.0,109.0,229.0,116.0,228.5,124.0,228.0,132.0,228.0,140.0,227.0,148.0,226.0,156.0,225.0,164.5,224.0,172.5,222.5,180.5,221.5,188.5,221.0,196.5,221.5,205.0,221.5,212.5,221.0,220.5,221.5,228.5,221.0,237.0,221.5,245.0,221.5,252.5,221.5,260.0,221.0,268.5,220.5,276.5,220.0,284.0,219.0,291.5,218.5,299.5,218.0,307.0,217.0" stroke="black" stroke-width="2" fill="none" />
<polyline points="310.0,223.5,300.0,226.5" stroke="black" stroke-width="2" fill="none" />
<polyline points="293.0,236.0,285.0,243.5" stroke="black" stroke-width="2" fill="none" />
<polyline points="284.0,234.0,275.5,242.0" stroke="black" stroke-width="2" fill="none" />
<polyline points="273.0,240.5,281.0,241.5" stroke="black" stroke-width="2" fill="none" />
<polyline points="276.0,235.5,267.5,243.5" stroke="black" stroke-width="2" fill="none" />
<polyline points="262.0,247.5,270.0,242.5,270.0,253.5,276.0,245.0,281.0,247.0,289.0,242.5" stroke="black" stroke-width="2" fill="none" />
<polyline points="290.0,233.5,295.0,230.5,292.0,218.5,294.5,207.5,298.5,198.5,295.5,190.5,289.5,197.5" stroke="black" stroke-width="2" fill="none" />
<polyline points="298.0,197.5,306.5,197.0,315.0,196.0" stroke="black" stroke-width="2" fill="none" />
<polyline points="306.5,181.5,313.5,170.5,308.0,179.0,305.0,193.0,313.5,200.5,305.5,211.5,305.5,218.5,303.0,228.0,298.0,236.0,305.5,239.0,294.5,246.0,287.5,257.0,288.0,264.0,271.0,261.5,277.5,265.5,285.5,260.0,288.5,261.0,295.0,262.0,297.0,268.0,304.5,273.5,316.5,265.5,322.5,272.5,328.0,275.5,336.5,275.0,344.5,274.5" stroke="black" stroke-width="2" fill="none" />
<polyline points="345.5,281.0,353.5,280.5" stroke="black" stroke-width="2" fill="none" />
<polyline points="356.5,281.0,364.5,269.0,374.0,266.0" stroke="black" stroke-width="2" fill="none" />
<polyline points="372.0,250.5,364.0,251.0" stroke="black" stroke-width="2" fill="none" />
<polyline points="352.5,269.0,364.0,259.5,368.0,267.5,360.5,275.0,357.5,283.0,356.5,291.0,353.5,294.5,356.5,299.0,352.0,307.0,348.0,311.5,344.0,316.0,342.5,324.0,347.0,324.5,337.0,330.5,339.0,334.5,350.0,322.5,359.0,315.5,362.0,320.5,369.5,315.5,371.5,316.5,363.5,325.0,354.5,335.5,348.0,344.0,343.0,352.0,333.5,354.0,332.0,362.0,329.5,370.0,323.5,378.0,327.5,377.5,335.5,379.5,341.0,366.5,348.0,361.5,356.0,357.0,362.0,355.5,370.5,349.5,371.5,353.0,379.5,347.5,388.5,341.5,394.5,334.5,396.0,324.5" stroke="black" stroke-width="2" fill="none" />
<polyline points="373.0,283.5,381.0,275.5,391.5,274.5" stroke="black" stroke-width="2" fill="none" />
<polyline points="372.0,282.0,364.0,282.5" stroke="black" stroke-width="2" fill="none" />
<polyline points="371.0,281.5,378.5,277.5" stroke="black" stroke-width="2" fill="none" />
<polyline points="387.5,292.0,379.5,293.5,371.5,299.5,362.0,302.5,354.0,298.0,351.0,297.0,348.0,292.0,353.5,290.0,342.5,288.0" stroke="black" stroke-width="2" fill="none" />
<polyline points="355.0,292.0,346.5,294.0,335.5,295.5,331.5,293.5,323.0,292.5" stroke="black" stroke-width="2" fill="none" />
<polyline points="317.5,286.5,309.5,287.0" stroke="black" stroke-width="2" fill="none" />
<polyline points="310.5,287.0,297.5,292.0,300.5,293.5" stroke="black" stroke-width="2" fill="none" />
<polyline points="293.0,292.0,301.0,292.0,308.5,291.5" stroke="black" stroke-width="2" fill="none" />
<polyline points="307.5,301.5,299.0,301.5" stroke="black" stroke-width="2" fill="none" />
<polyline points="296.5,305.0,304.5,304.0" stroke="black" stroke-width="2" fill="none" />
<polyline points="288.0,301.5,289.0,309.0,300.5,317.0,304.5,325.0,299.0,330.0,298.5,336.0,298.5,343.5,297.5,351.5,297.0,359.0,296.5,367.0,295.0,375.0,296.0,383.0,293.5,391.0,291.5,399.5,290.0,407.5,288.5,415.5,294.5,418.0,294.0,426.5,291.0,430.5,294.0,443.5,296.0,454.5,298.0,461.5,298.0,469.0,295.5,472.5,288.5,477.5,289.5,485.0,297.5,490.0,307.0,483.0,322.0,479.0,330.0,472.5,338.5,467.0,346.0,459.5,352.0,456.0,360.0,450.0,368.0,441.0,374.5,427.0,380.5,415.0,382.0,421.0,379.0,429.0,375.0,420.5,374.0,428.5,366.5,437.5,358.5,445.5,357.5,447.0" stroke="black" stroke-width="2" fill="none" />
<polyline points="285.5,293.5,277.0,294.0" stroke="black" stroke-width="2" fill="none" />
<polyline points="279.5,287.0,274.5,295.5,276.0,300.5,263.0,303.0,269.0,314.5,270.5,323.0,270.0,333.0" stroke="black" stroke-width="2" fill="none" />
<polyline points="279.5,326.5,266.5,324.0,258.5,318.0,250.5,315.0,249.0,304.5,248.0,295.5,247.0,291.5,241.0,283.5,242.5,286.0,245.5,297.0" stroke="black" stroke-width="2" fill="none" />
<polyline points="246.5,286.5,254.5,286.0,256.5,297.0,265.5,295.0,273.5,296.5,283.5,293.5,288.5,297.5,295.5,296.5" stroke="black" stroke-width="2" fill="none" />
<polyline points="291.5,277.5,299.5,277.0" stroke="black" stroke-width="2" fill="none" />
<polyline points="308.0,277.0,316.0,277.0" stroke="black" stroke-width="2" fill="none" />
<polyline points="313.0,275.0,314.0,283.0,312.0,291.0,311.0,299.0,303.5,305.0,308.5,310.0,317.5,318.0,308.0,323.0,311.0,333.0,310.5,341.0,312.5,351.0,312.5,347.0,320.5,347.0,332.5,340.0" stroke="black" stroke-width="2" fill="none" />
<polyline points="383.0,321.5,375.5,319.0,360.5,309.0,352.5,308.0,344.5,313.0,340.5,309.0,335.5,316.0,335.5,309.0,338.5,308.5,340.5,300.0,342.5,291.5,347.0,283.5,340.0,274.5,326.0,270.5,328.0,262.0,329.0,254.5,332.5,246.5,328.5,251.5" stroke="black" stroke-width="2" fill="none" />
<polyline points="331.5,253.0,334.5,261.0,334.0,269.5,336.0,272.5" stroke="black" stroke-width="2" fill="none" />
<polyline points="331.0,269.0,323.0,269.0,315.0,269.0" stroke="black" stroke-width="2" fill="none" />
<polyline points="312.0,273.5,321.5,276.5,321.0,283.0,320.5,291.0,320.0,298.5,318.5,305.5,325.0,311.5,325.5,308.5" stroke="black" stroke-width="2" fill="none" />
<polyline points="336.0,264.0,340.0,266.0,346.0,273.5,346.0,268.5,354.0,269.0,356.0,256.5,364.5,253.5,375.5,260.0,385.0,260.5,393.5,255.5,401.5,254.0,409.5,252.0" stroke="black" stroke-width="2" fill="none" />
<polyline points="423.5,213.0,419.5,220.0,408.5,218.5,405.0,225.5,399.0,239.5,390.0,245.5,389.5,252.5,381.5,252.0,378.5,247.0,377.5,253.0,386.0,252.0,385.0,244.0,387.0,236.0,385.5,225.0,387.5,225.0,393.5,213.5,390.5,212.5,395.5,204.5,401.0,196.5" stroke="black" stroke-width="2" fill="none" />
<polyline points="366.0,185.5,358.5,186.5" stroke="black" stroke-width="2" fill="none" />
<polyline points="358.5,180.0,347.5,180.5" stroke="black" stroke-width="2" fill="none" />
<polyline points="314.0,172.0,306.0,172.5,298.0,173.5" stroke="black" stroke-width="2" fill="none" />
<polyline points="297.5,172.5,298.5,180.0,300.5,177.0" stroke="black" stroke-width="2" fill="none" />
<polyline points="299.5,164.5,291.5,165.0" stroke="black" stroke-width="2" fill="none" />
<polyline points="284.0,170.5,276.0,178.0" stroke="black" stroke-width="2" fill="none" />
<polyline points="275.5,180.5,267.0,181.5,259.0,182.0,251.0,182.5" stroke="black" stroke-width="2" fill="none" />
<polyline points="248.5,177.0,256.5,177.5,263.5,189.5,271.0,184.5,274.5,186.0,280.5,185.0,285.0,179.5,293.0,180.5,295.0,170.5" stroke="black" stroke-width="2" fill="none" />
<polyline points="285.0,165.0,276.5,166.0,268.5,166.5,260.0,167.0,252.0,167.5" stroke="black" stroke-width="2" fill="none" />
<polyline points="254.5,166.0,262.5,165.0" stroke="black" stroke-width="2" fill="none" />
<polyline points="273.0,161.5,281.0,165.0,293.0,165.0" stroke="black" stroke-width="2" fill="none" />
<polyline points="290.0,164.0,281.5,164.5,274.0,165.0,266.5,165.0,259.0,165.5,251.5,166.0,243.5,166.5,235.5,167.0,228.0,168.0,220.0,168.5,211.5,169.0,203.5,169.5,195.0,169.5,187.0,170.0,179.5,170.5,171.5,170.5,164.0,171.0,155.5,171.0,147.5,171.5,139.5,172.0,131.5,173.0,123.5,173.0" stroke="black" stroke-width="2" fill="none" />
<polyline points="122.5,167.0,130.5,166.0" stroke="black" stroke-width="2" fill="none" />
<polyline points="141.0,164.5,149.0,164.5" stroke="black" stroke-width="2" fill="none" />
<polyline points="144.5,162.5,137.5,166.5,137.5,176.5,137.0,184.5,134.0,193.5,133.0,199.0,130.0,202.0,129.0,209.0,131.0,212.0,126.0,223.0,130.5,231.0,125.0,244.0,119.0,245.5,117.0,251.5,117.5,259.5,121.0,260.5,125.0,268.5,129.5,278.5,135.5,289.5,134.0,299.0,142.0,296.0" stroke="black" stroke-width="2" fill="none" />
<polyline points="138.5,301.0,130.5,308.5" stroke="black" stroke-width="2" fill="none" />
<polyline points="132.5,305.0,140.0,305.0,148.0,304.5,156.0,304.5" stroke="black" stroke-width="2" fill="none" />
<polyline points="132.0,299.5,124.5,307.5" stroke="black" stroke-width="2" fill="none" />
<polyline points="122.5,300.5,130.5,293.0" stroke="black" stroke-width="2" fill="none" />
<polyline points="122.5,284.0,115.5,284.5,107.5,285.5" stroke="black" stroke-width="2" fill="none" />
<polyline points="108.5,279.0,116.0,278.5,124.0,277.5" stroke="black" stroke-width="2" fill="none" />
<polyline points="124.0,267.5,116.0,268.0,108.0,268.5" stroke="black" stroke-width="2" fill="none" />
<polyline points="116.0,270.5,113.0,276.5,118.0,281.5" stroke="black" stroke-width="2" fill="none" />
<polyline points="116.5,297.5,108.5,305.0" stroke="black" stroke-width="2" fill="none" />
<polyline points="107.0,300.5,115.0,300.0,123.0,299.5,131.0,299.5,139.5,299.0,147.5,298.5,156.0,298.0,164.0,297.5,172.5,297.0,181.0,296.0,189.0,296.0,197.0,295.5" stroke="black" stroke-width="2" fill="none" />
<polyline points="201.0,293.0,199.5,302.0,205.5,310.0,211.5,314.5,216.0,322.0" stroke="black" stroke-width="2" fill="none" />
<polyline points="210.0,317.5,202.5,318.0,195.0,318.5,187.5,319.0,180.0,319.5,172.0,320.0,164.5,320.0,156.5,320.0,148.5,320.5,141.0,320.5,133.0,321.0" stroke="black" stroke-width="2" fill="none" />
<polyline points="114.5,309.5,122.5,309.0,131.0,309.0,139.5,308.5,148.0,308.0,156.5,308.0,164.5,307.5,172.5,307.0,180.5,307.0,188.0,306.5,196.0,305.5,204.0,305.0,212.0,304.5,220.0,304.0" stroke="black" stroke-width="2" fill="none" />
<polyline points="230.0,307.0,238.0,303.5,245.5,307.5,252.5,298.5,260.5,300.5,268.5,301.0,275.0,302.5" stroke="black" stroke-width="2" fill="none" />
<polyline points="279.5,286.5,271.5,284.5,267.5,274.5,261.5,284.0" stroke="black" stroke-width="2" fill="none" />
<polyline points="257.5,277.0,249.5,277.5" stroke="black" stroke-width="2" fill="none" />
<polyline points="248.5,272.5,256.5,271.0,260.5,267.0,255.5,274.0,261.5,279.5,267.5,273.5,275.0,279.0,283.0,271.0,287.0,274.0,294.5,272.5,303.5,271.5,311.0,263.0" stroke="black" stroke-width="2" fill="none" />
<polyline points="319.5,239.0,327.5,241.0,335.5,234.0" stroke="black" stroke-width="2" fill="none" />
<polyline points="318.5,249.5,318.5,246.0,310.5,244.0,308.5,237.0" stroke="black" stroke-width="2" fill="none" />
<polyline points="291.0,219.5,283.0,220.0,275.5,221.0,268.0,221.5" stroke="black" stroke-width="2" fill="none" />
<polyline points="259.5,228.0,251.5,235.5" stroke="black" stroke-width="2" fill="none" />
<polyline points="252.0,228.0,260.0,222.0" stroke="black" stroke-width="2" fill="none" />
<polyline points="249.5,227.5,241.0,235.0" stroke="black" stroke-width="2" fill="none" />
<polyline points="235.5,235.5,244.0,228.5" stroke="black" stroke-width="2" fill="none" />
<polyline points="243.0,220.0,235.5,228.0,227.5,236.0" stroke="black" stroke-width="2" fill="none" />
<polyline points="217.5,234.0,225.5,226.0,233.0,218.5" stroke="black" stroke-width="2" fill="none" />
<polyline points="235.0,224.5,243.5,223.5" stroke="black" stroke-width="2" fill="none" />
<polyline points="251.5,211.5,248.5,219.5,242.5,225.5,241.5,233.0,238.5,235.5,242.5,247.0,233.5,259.0,230.5,263.5,240.0,258.5,243.0,249.5,247.5,242.5" stroke="black" stroke-width="2" fill="none" />
<polyline points="259.5,243.5,267.5,236.5" stroke="black" stroke-width="2" fill="none" />
<polyline points="261.0,236.5,252.5,244.0" stroke="black" stroke-width="2" fill="none" />
<polyline points="243.0,246.0,235.5,246.5" stroke="black" stroke-width="2" fill="none" />
<polyline points="227.5,245.0,219.5,245.5" stroke="black" stroke-width="2" fill="none" />
<polyline points="225.0,257.0,223.0,267.5,213.0,269.5,205.0,271.0,201.0,275.0,190.5,273.0,182.5,285.0" stroke="black" stroke-width="2" fill="none" />
<polyline points="195.0,281.5,203.0,279.5,212.0,280.5" stroke="black" stroke-width="2" fill="none" />
<polyline points="223.5,286.5,215.5,299.0,207.5,299.0" stroke="black" stroke-width="2" fill="none" />
<polyline points="206.0,298.5,206.0,306.0" stroke="black" stroke-width="2" fill="none" />
<polyline points="201.5,289.5,209.5,290.5,217.5,285.5,228.5,289.0,239.0,276.0,247.0,267.0,255.5,268.0,257.5,266.0,265.5,268.0,272.0,272.5" stroke="black" stroke-width="2" fill="none" />
<polyline points="273.0,270.5,280.0,278.5,292.0,279.5,298.5,278.0,308.0,287.0,316.0,277.5,330.5,271.0" stroke="black" stroke-width="2" fill="none" />
<polyline points="282.0,262.0,273.5,262.5" stroke="black" stroke-width="2" fill="none" />
<polyline points="273.0,254.5,281.0,254.0" stroke="black" stroke-width="2" fill="none" />
<polyline points="282.5,254.0,290.5,250.0" stroke="black" stroke-width="2" fill="none" />
<polyline points="275.0,269.5,267.0,269.5" stroke="black" stroke-width="2" fill="none" />
<polyline points="249.5,286.5,241.5,287.0,233.0,288.0" stroke="black" stroke-width="2" fill="none" />
<polyline points="238.0,280.0,235.0,288.0,240.0,300.5,242.0,310.5,241.0,322.0,243.5,325.0" stroke="black" stroke-width="2" fill="none" />
<polyline points="214.0,305.0,205.5,308.0,200.5,297.5,193.5,290.0,185.5,295.5,179.5,292.5,179.5,284.5,176.5,278.0,170.5,288.0,162.5,291.0,157.5,289.0,148.5,284.5,143.0,290.5,139.0,279.0,136.0,271.0,145.5,263.0,145.5,266.0,137.5,268.5,129.5,267.5" stroke="black" stroke-width="2" fill="none" />
<polyline points="143.0,273.0,147.5,271.5,148.5,279.5" stroke="black" stroke-width="2" fill="none" />
<polyline points="157.5,280.5,165.0,272.5,159.0,268.5" stroke="black" stroke-width="2" fill="none" />
<polyline points="164.0,272.5,160.0,272.5,154.5,266.5,156.5,262.0,169.5,258.0,180.5,251.5,179.5,242.5,178.5,234.5,180.5,226.5,186.0,215.5,189.0,206.0,181.0,208.0" stroke="black" stroke-width="2" fill="none" />
<polyline points="181.0,212.0,189.0,204.5" stroke="black" stroke-width="2" fill="none" />
<polyline points="190.5,206.5,199.5,197.5,199.0,205.5,204.0,208.0" stroke="black" stroke-width="2" fill="none" />
<polyline points="197.0,203.5,189.0,210.5,180.5,218.5,172.5,226.0,164.0,234.0,156.0,241.5" stroke="black" stroke-width="2" fill="none" />
<polyline points="149.0,237.5,141.0,245.0,133.5,253.0" stroke="black" stroke-width="2" fill="none" />
<polyline points="140.0,249.0,148.0,240.5,155.5,232.5,163.5,225.0,171.0,217.5" stroke="black" stroke-width="2" fill="none" />
<polyline points="171.0,210.5,163.0,218.0,154.5,226.0" stroke="black" stroke-width="2" fill="none" />
<polyline points="152.5,218.0,161.0,210.0" stroke="black" stroke-width="2" fill="none" />
<polyline points="163.0,202.5,154.0,210.0,145.5,217.5" stroke="black" stroke-width="2" fill="none" />
<polyline points="146.0,215.0,151.0,226.0,145.0,234.0,143.0,242.0,139.5,249.5,144.0,249.5,144.5,248.5,152.5,243.5" stroke="black" stroke-width="2" fill="none" />
<polyline points="148.5,234.0,149.0,242.0,150.0,250.0,155.0,256.5,163.0,256.0,169.0,249.0,178.5,245.0,186.5,244.5,193.0,249.5,200.5,246.5,209.0,245.5" stroke="black" stroke-width="2" fill="none" />
<polyline points="196.0,242.5,204.0,235.0,212.0,227.5" stroke="black" stroke-width="2" fill="none" />
<polyline points="215.0,222.5,213.0,230.5,213.0,238.5,211.5,244.0,206.5,248.0,208.5,250.0,213.5,245.5,220.5,240.5,224.5,246.5" stroke="black" stroke-width="2" fill="none" />
<polyline points="215.5,255.0,206.5,260.0,200.5,265.0,193.0,275.5,181.0,283.5,182.0,273.5,179.0,263.5" stroke="black" stroke-width="2" fill="none" />
<polyline points="172.5,258.5,178.0,258.0,184.0,257.0,193.0,257.0,200.0,254.5" stroke="black" stroke-width="2" fill="none" />
<polyline points="203.5,262.5,211.5,261.0" stroke="black" stroke-width="2" fill="none" />
<polyline points="225.5,261.0,220.5,268.5,212.5,269.5,212.0,277.0,209.5,285.5,219.0,282.5,224.5,280.0" stroke="black" stroke-width="2" fill="none" />
<polyline points="226.5,280.0,218.5,288.0,216.0,300.0,223.5,302.5" stroke="black" stroke-width="2" fill="none" />
<polyline points="233.5,324.5,225.5,321.5,219.5,316.5,225.5,307.5,220.5,305.0,225.5,297.5,232.5,286.5,237.5,279.0" stroke="black" stroke-width="2" fill="none" />
<polyline points="233.5,270.5,241.0,270.0,249.5,270.0" stroke="black" stroke-width="2" fill="none" />
<polyline points="254.0,254.5,246.0,256.5,240.5,261.5,232.5,264.5" stroke="black" stroke-width="2" fill="none" />
<polyline points="218.5,226.5,226.5,219.0" stroke="black" stroke-width="2" fill="none" />
<polyline points="221.0,212.5,213.0,220.0,205.0,227.0" stroke="black" stroke-width="2" fill="none" />
<polyline points="204.0,231.5,202.5,236.5,191.5,235.0,191.5,241.5,197.0,239.5,196.0,231.0,198.0,223.0" stroke="black" stroke-width="2" fill="none" />
<polyline points="196.5,219.5,188.5,227.0,180.5,235.0,172.0,242.5" stroke="black" stroke-width="2" fill="none" />
<polyline points="179.0,243.0,187.0,235.5,195.0,227.5" stroke="black" stroke-width="2" fill="none" />
<polyline points="196.0,235.5,188.0,243.0" stroke="black" stroke-width="2" fill="none" />
<polyline points="188.0,232.5,196.0,232.5" stroke="black" stroke-width="2" fill="none" />
<polyline points="197.0,214.0,189.0,221.0,181.5,228.5,173.5,236.0,165.5,243.0" stroke="black" stroke-width="2" fill="none" />
<polyline points="171.0,235.0,179.0,234.5" stroke="black" stroke-width="2" fill="none" />
<polyline points="203.5,238.0,196.0,238.0,188.5,239.0,180.5,240.0,172.5,240.5,164.0,240.5,156.0,241.0,148.0,241.5,140.0,242.0,132.5,243.5,125.0,244.5,117.5,245.5,110.0,246.5,102.0,246.5" stroke="black" stroke-width="2" fill="none" />
<polyline points="99.5,253.0,107.5,252.5,115.5,251.5" stroke="black" stroke-width="2" fill="none" />
<polyline points="116.5,244.0,124.5,242.0" stroke="black" stroke-width="2" fill="none" />
<polyline points="124.5,244.5,133.0,237.0" stroke="black" stroke-width="2" fill="none" />
<polyline points="140.0,237.5,132.0,245.0" stroke="black" stroke-width="2" fill="none" />
<polyline points="138.0,246.0,138.0,255.0,131.0,258.0,129.0,259.0,125.0,255.0,124.0,247.0" stroke="black" stroke-width="2" fill="none" />
<polyline points="124.5,250.5,132.5,250.0,140.5,250.5" stroke="black" stroke-width="2" fill="none" />
<polyline points="167.5,243.0,162.5,237.0,161.0,229.0,161.0,219.0,165.0,208.0,166.0,200.0,170.0,190.0,167.5,187.0,169.5,180.0,170.5,172.0,162.0,163.0,165.0,154.5,159.0,146.5" stroke="black" stroke-width="2" fill="none" />
<polyline points="162.0,146.0,159.5,145.0,156.0,155.0,154.0,164.0,158.0,165.0,160.0,180.0,163.0,183.0" stroke="black" stroke-width="2" fill="none" />
<polyline points="155.5,180.0,148.0,187.5" stroke="black" stroke-width="2" fill="none" />
<polyline points="150.0,187.5,142.0,192.0" stroke="black" stroke-width="2" fill="none" />
<polyline points="139.5,200.0,147.0,199.5,158.5,196.5,172.5,194.5,178.5,185.5" stroke="black" stroke-width="2" fill="none" />
<polyline points="178.5,182.5,186.5,180.5" stroke="black" stroke-width="2" fill="none" />
<polyline points="195.0,185.5,187.0,186.5,179.5,187.0,172.0,187.5,164.0,187.5,156.0,187.0,148.0,187.5,140.5,188.0,132.5,188.5,124.5,189.0,116.5,189.5" stroke="black" stroke-width="2" fill="none" />
<polyline points="125.0,189.0,133.0,187.0" stroke="black" stroke-width="2" fill="none" />
<polyline points="132.0,196.5,140.5,196.0,148.5,196.5,156.0,196.0,164.0,196.0,172.0,195.5,180.0,195.5,188.0,195.5,196.0,195.5,203.5,195.5,211.5,195.0,219.5,194.5,228.0,193.5,236.0,192.5,243.0,191.5,251.0,190.5,259.0,190.0,267.0,189.5,275.0,189.0" stroke="black" stroke-width="2" fill="none" />
<polyline points="267.5,188.0,259.0,189.0,250.5,189.5,242.5,190.5" stroke="black" stroke-width="2" fill="none" />
<polyline points="235.0,191.0,243.5,188.0,252.5,186.0" stroke="black" stroke-width="2" fill="none" />
<polyline points="250.5,195.0,242.5,202.0" stroke="black" stroke-width="2" fill="none" />
<polyline points="227.0,206.0,235.0,205.5,243.0,204.5,251.0,203.5,259.5,203.0,268.0,202.0" stroke="black" stroke-width="2" fill="none" />
<polyline points="258.5,213.5,250.5,214.5,242.0,215.0,234.5,216.0,227.0,216.5,219.0,217.0,211.0,217.5,203.0,218.0,195.0,218.0,187.5,218.0,179.5,218.0,172.0,218.5,164.5,218.0,156.5,218.5,149.0,219.5,141.5,220.0,133.5,220.5,125.5,221.0" stroke="black" stroke-width="2" fill="none" />
<polyline points="123.5,219.5,131.0,212.5" stroke="black" stroke-width="2" fill="none" />
<polyline points="138.0,217.5,146.0,209.5,153.5,201.5,161.5,194.0" stroke="black" stroke-width="2" fill="none" />
<polyline points="152.0,204.5,160.0,203.5,158.5,206.0,165.0,215.0,175.0,219.5,181.5,224.5,184.0,233.0" stroke="black" stroke-width="2" fill="none" />
<polyline points="194.5,212.5,186.5,208.0" stroke="black" stroke-width="2" fill="none" />
<polyline points="185.5,203.0,190.0,199.0,195.0,201.0,197.0,203.5,200.5,215.0,200.5,229.0,202.0,236.0,205.0,241.0,205.0,251.0,204.5,257.0,199.5,270.0,191.5,273.0,186.5,281.0,193.5,289.0,187.5,298.0,184.0,310.0,191.0,317.0,196.0,316.0" stroke="black" stroke-width="2" fill="none" />
<polyline points="195.5,310.5,181.0,311.5" stroke="black" stroke-width="2" fill="none" />
<polyline points="162.0,289.0,154.0,290.0,145.5,290.5,137.5,291.0,129.5,291.0,121.5,291.5,113.0,292.0,105.0,292.5" stroke="black" stroke-width="2" fill="none" />
<polyline points="121.0,300.5,120.5,308.5,119.5,317.0,115.0,322.5,121.0,325.5" stroke="black" stroke-width="2" fill="none" />
<polyline points="105.0,323.0,105.0,315.0" stroke="black" stroke-width="2" fill="none" />
<polyline points="132.0,294.5,124.0,289.0,120.5,279.0,112.0,270.0,104.0,265.0,107.5,261.0,103.5,253.0,107.5,252.0" stroke="black" stroke-width="2" fill="none" />
<polyline points="119.0,216.5,127.0,216.5,131.5,223.5,135.5,233.5,141.0,229.5,143.0,232.5,151.0,225.5,156.5,224.5,157.5,227.5,165.0,229.0" stroke="black" stroke-width="2" fill="none" />
<polyline points="175.5,209.5,177.5,205.0,171.0,206.0,177.5,206.0,185.5,199.5,195.5,195.5" stroke="black" stroke-width="2" fill="none" />
<polyline points="205.0,190.5,212.5,190.0" stroke="black" stroke-width="2" fill="none" />
<polyline points="212.0,193.5,220.0,193.5" stroke="black" stroke-width="2" fill="none" />
<polyline points="219.5,195.0,211.5,202.0" stroke="black" stroke-width="2" fill="none" />
<polyline points="218.0,190.5,226.0,190.0,234.5,189.0" stroke="black" stroke-width="2" fill="none" />
<polyline points="242.5,181.0,234.0,181.0,226.0,181.5,218.0,181.5" stroke="black" stroke-width="2" fill="none" />
<polyline points="216.0,175.5,221.0,184.5,222.0,192.5,218.5,201.5,216.0,202.0,228.0,207.0" stroke="black" stroke-width="2" fill="none" />
<polyline points="211.5,179.5,204.0,180.5" stroke="black" stroke-width="2" fill="none" />
<polyline points="194.0,176.0,186.0,176.0,178.0,177.0,170.0,177.5,162.5,177.5,154.5,177.5,146.0,177.5,139.0,178.0,131.0,179.0,123.0,180.0,114.0,180.5,106.0,181.0" stroke="black" stroke-width="2" fill="none" />
<polyline points="97.5,186.0,100.0,178.0,99.0,188.0,108.0,194.0,112.5,196.0,106.5,201.0,104.0,206.5,103.0,214.5,103.0,221.0,111.0,229.0,108.5,238.5,113.5,243.0,113.0,251.0,113.5,255.0,114.5,263.5,107.5,276.5,108.5,281.0,110.5,293.0,107.5,304.0,115.5,304.0,121.0,304.0,129.0,307.0" stroke="black" stroke-width="2" fill="none" />
<polyline points="169.5,277.0,175.5,269.0,170.0,277.0,171.0,287.0,172.0,296.0,177.5,307.0,180.5,299.0" stroke="black" stroke-width="2" fill="none" />
<polyline points="140.5,212.0,148.0,205.0" stroke="black" stroke-width="2" fill="none" />
<polyline points="125.5,203.5,133.5,203.0,141.0,203.0,148.5,203.0,156.5,204.0,164.0,204.0,172.0,203.5,179.5,203.0,187.5,202.5,195.0,202.0,203.0,201.5,211.0,201.0,218.5,200.0" stroke="black" stroke-width="2" fill="none" />
<polyline points="214.5,176.0,222.0,175.0" stroke="black" stroke-width="2" fill="none" />
<polyline points="218.5,163.5,211.0,163.5,203.0,164.0,194.5,164.0,187.0,165.0" stroke="black" stroke-width="2" fill="none" />
<polyline points="186.5,170.0,187.5,178.0" stroke="black" stroke-width="2" fill="none" />
<polyline points="184.0,167.5,185.0,166.5,181.5,158.5" stroke="black" stroke-width="2" fill="none" />
<polyline points="187.5,151.0,195.5,152.0" stroke="black" stroke-width="2" fill="none" />
<polyline points="195.5,149.0,187.5,149.5" stroke="black" stroke-width="2" fill="none" />
<polyline points="188.0,143.0,196.5,142.5,204.5,142.0,212.0,141.0" stroke="black" stroke-width="2" fill="none" />
<polyline points="215.5,143.5,217.5,151.5,223.5,161.5" stroke="black" stroke-width="2" fill="none" />
<polyline points="220.0,142.5,227.5,141.5" stroke="black" stroke-width="2" fill="none" />
<polyline points="237.0,133.0,241.0,143.0,247.5,152.0,244.5,161.0,248.5,167.5,246.5,175.5,252.0,186.5,250.0,198.0,249.5,205.5,240.5,201.0,248.5,201.0,262.0,201.0,270.0,198.5,274.5,192.5" stroke="black" stroke-width="2" fill="none" />
<polyline points="288.0,187.0,296.0,186.0,304.0,188.0,308.5,193.0,311.5,202.0" stroke="black" stroke-width="2" fill="none" />
<polyline points="290.5,141.0,283.0,142.0" stroke="black" stroke-width="2" fill="none" />
<polyline points="279.5,131.5,287.5,137.0,290.5,141.0,293.5,145.5" stroke="black" stroke-width="2" fill="none" />
<polyline points="269.0,142.0,260.5,142.0,252.5,142.5" stroke="black" stroke-width="2" fill="none" />
<polyline points="249.5,136.0,247.0,135.5,250.0,143.0,265.5,145.5,263.0,156.5,264.0,166.5,259.0,175.0,258.5,183.0,266.0,189.5,271.5,200.5,271.5,208.0,266.5,211.0,261.5,219.0,260.5,227.0,262.5,235.5,269.5,230.5,275.0,223.5,278.0,229.5,274.0,220.5,274.0,214.5,285.0,209.5,292.5,209.5" stroke="black" stroke-width="2" fill="none" />
<polyline points="269.5,132.5,261.0,132.5,252.0,133.0" stroke="black" stroke-width="2" fill="none" />
<polyline points="231.0,122.5,225.0,130.5,230.0,137.5,229.0,141.5,237.0,150.0,230.5,160.0,226.0,162.0,232.5,174.0,226.0,177.0,229.5,177.0,236.5,179.0,237.5,187.0,247.5,184.5,237.0,192.5,237.0,200.5,232.5,207.5,231.5,213.0,230.0,221.0,225.0,230.5,232.0,237.0,227.0,250.0,227.0,250.0,227.0,242.0,231.0,235.0,238.5,230.0,248.0,240.0,256.5,239.5,264.5,240.5,272.5,237.0,276.0,229.0,289.0,232.0,294.5,236.0" stroke="black" stroke-width="2" fill="none" />
<polyline points="259.0,205.0,251.0,205.0,243.5,205.0,235.5,205.0,228.0,205.5,220.5,205.0,212.5,205.5,205.0,206.5,197.5,207.0,189.5,207.5,181.5,208.0,173.5,208.5,164.5,209.0,156.0,210.0,147.5,210.5,138.5,211.0,131.0,211.5,123.5,212.5,115.5,213.0,107.5,213.5,99.5,214.5" stroke="black" stroke-width="2" fill="none" />
<polyline points="113.0,211.5,113.5,219.5,115.5,228.5,121.0,241.5" stroke="black" stroke-width="2" fill="none" />
<polyline points="130.0,202.5,119.5,203.5,109.5,211.5,111.5,202.5,103.0,205.0,97.0,208.0,101.0,198.0,101.0,194.0,96.0,191.5" stroke="black" stroke-width="2" fill="none" />
<polyline points="94.5,152.5,102.5,150.5,111.0,142.5" stroke="black" stroke-width="2" fill="none" />
<polyline points="110.5,144.5,112.5,152.5,118.5,162.5" stroke="black" stroke-width="2" fill="none" />
<polyline points="123.5,157.0,131.5,156.5,139.0,156.5,147.5,156.0" stroke="black" stroke-width="2" fill="none" />
<polyline points="155.5,158.5,163.5,158.0" stroke="black" stroke-width="2" fill="none" />
<polyline points="162.5,148.5,154.5,149.0" stroke="black" stroke-width="2" fill="none" />
<polyline points="146.5,141.0,154.5,141.0,162.5,140.5,170.5,140.0" stroke="black" stroke-width="2" fill="none" />
<polyline points="171.5,139.5,176.5,141.5" stroke="black" stroke-width="2" fill="none" />
<polyline points="180.5,144.5,177.0,149.5,182.5,140.5,188.0,139.5,191.0,133.5,183.0,136.5" stroke="black" stroke-width="2" fill="none" />
<polyline points="192.0,143.0,199.0,137.5,204.5,140.0,200.0,142.0" stroke="black" stroke-width="2" fill="none" />
<polyline points="195.5,127.0,197.0,131.0,192.0,123.5" stroke="black" stroke-width="2" fill="none" />
<polyline points="209.5,124.0,214.5,135.0,222.5,132.5,227.5,138.5,237.5,137.5,245.5,145.0,258.5,140.5,266.5,136.0,279.0,142.0" stroke="black" stroke-width="2" fill="none" />
<polyline points="224.0,128.0,232.0,122.0,240.5,124.0,249.0,124.5,253.0,126.5,258.5,124.5,266.0,122.0,274.0,124.5,282.0,124.0,290.0,124.0,298.0,125.5,306.0,127.5,313.0,124.5,321.0,125.5,328.5,125.0,342.0,125.0,350.0,127.5,358.0,127.0,366.5,127.0,374.5,128.0,382.5,128.0,390.5,129.0,397.0,132.0,405.0,130.5,413.0,133.0,419.0,140.0,427.0,138.0" stroke="black" stroke-width="2" fill="none" />
<polyline points="336.5,137.0,333.0,138.0,330.5,145.5,324.0,157.5,322.5,163.0,316.5,172.0,316.5,172.5" stroke="black" stroke-width="2" fill="none" />
<polyline points="171.0,134.0,163.0,134.5" stroke="black" stroke-width="2" fill="none" />
<polyline points="166.5,129.5,171.5,139.5,172.0,147.0,172.0,156.0,171.5,157.5,183.0,154.5,190.5,158.5,199.5,156.5,206.5,157.0,214.5,157.0,225.5,153.5,233.5,155.0,236.5,159.0,244.5,156.0,256.5,154.5,266.5,154.5,272.5,146.5,276.5,154.5,286.5,155.0,297.5,156.0,303.5,155.0,309.5,160.0,318.5,157.0,325.5,156.5,334.5,157.0" stroke="black" stroke-width="2" fill="none" />
<polyline points="278.5,233.5,265.5,230.5,267.0,222.5,273.0,214.0,262.0,213.0,251.0,219.0,237.5,215.0,224.5,214.0,214.5,218.0,204.5,215.5,197.0,219.5,186.0,219.5,180.0,216.5,172.0,214.5,165.5,212.5,156.5,211.5,152.5,211.5,143.5,214.5,137.5,222.5,129.5,228.0,146.5,220.0,143.5,214.0,147.0,208.0,148.0,198.0,155.0,194.5,153.5,182.0,151.5,180.0,153.5,171.5,144.5,169.5,131.0,174.0,119.0,183.0,118.0,180.5,123.0,171.5,119.0,166.5,119.5,151.5,119.5,143.5,125.0,141.0,126.0,140.0" stroke="black" stroke-width="2" fill="none" />
<polyline points="123.0,141.0,114.5,141.0" stroke="black" stroke-width="2" fill="none" />
<polyline points="121.5,137.0,110.5,139.0,109.5,144.0,107.0,151.5,104.5,160.0,98.5,164.5,94.5,166.5,100.5,167.5,105.5,169.5,114.5,163.5,118.0,168.5,123.5,162.5,131.5,161.0,139.0,161.5,153.0,158.5,163.0,158.0" stroke="black" stroke-width="2" fill="none" />
<polyline points="146.0,150.5,144.0,145.5,154.0,143.5,154.0,135.5" stroke="black" stroke-width="2" fill="none" />
<polyline points="138.0,140.0,130.0,140.0" stroke="black" stroke-width="2" fill="none" />
<polyline points="129.0,142.0,136.5,141.5" stroke="black" stroke-width="2" fill="none" />
<polyline points="139.5,148.0,131.5,148.5,123.5,149.0,115.5,149.5" stroke="black" stroke-width="2" fill="none" />
<polyline points="106.0,139.5,98.0,140.5" stroke="black" stroke-width="2" fill="none" />
<polyline points="93.5,138.5,102.0,130.5,110.0,126.5,118.0,128.0,125.5,127.0,133.0,126.5,141.0,127.5,149.0,127.0,156.5,127.0,164.5,127.0,172.5,126.0,180.5,129.0,189.0,128.0,197.0,126.0,205.0,124.0,211.5,130.0,211.5,141.0,215.5,144.5,208.5,150.5,202.5,159.5,204.5,162.0,207.5,167.5,206.5,176.5,202.0,176.5,199.5,185.0,199.5,193.0,186.0,198.5,175.0,202.5,180.0,204.5,176.5,212.5,172.0,221.5,164.5,234.5,157.0,243.0,152.5,249.0,157.0,239.5,161.5,240.5,168.0,239.5,175.5,235.5,176.5,241.5" stroke="black" stroke-width="2" fill="none" />
<polyline points="155.5,130.0,149.5,133.0,140.5,131.5,132.5,130.5,125.0,130.5" stroke="black" stroke-width="2" fill="none" />
<polyline points="99.0,132.0,93.5,140.0,92.5,147.5,93.5,155.0,96.5,161.5,92.5,169.5,93.5,177.5,93.5,185.5,94.5,193.5,94.0,201.5,95.0,210.5,95.0,218.0,96.5,226.5,96.5,234.5,97.5,242.5,97.5,250.5,98.5,259.0,99.0,267.0,99.0,275.0,100.0,283.5,100.0,291.0,101.0,299.0,100.5,305.5,101.5,313.5,102.0,321.5,102.0,329.5,103.0,337.5,103.0,345.0,104.0,353.0,104.5,361.5,105.5,369.5,105.5,377.0,106.5,385.0,107.0,392.5,108.0,401.0,108.0,409.0,109.5,417.0,112.5,425.0,119.5,433.0,121.5,441.5,128.5,449.5,129.5,446.5,135.5,446.5,143.5,444.5,152.0,441.5,160.0,436.5,168.0,432.5,176.0,428.5,183.5,424.5,191.5,419.0,199.5,415.0,207.5,412.0" stroke="black" stroke-width="2" fill="none" />
<polyline points="512.5,588.5,513.0,580.5,513.0,572.5,513.0,564.5,513.5,557.0,514.0,549.5,514.0,542.0,514.0,534.0,514.0,525.5,513.5,517.5,513.5,509.0,513.5,501.0,513.5,493.5,513.5,485.5,514.0,477.5,514.0,470.0,514.0,462.0,514.0,454.5,514.0,446.0,514.0,438.0,513.5,430.0,513.0,421.5,513.0,413.5,513.0,405.5,512.5,397.5,513.0,389.5,513.5,381.5,513.5,373.5,513.5,365.5,513.5,357.0,514.0,349.0,514.0,340.5,514.0,332.5,514.5,324.5,514.5,317.0,514.5,309.0,514.5,301.0,514.0,292.5,514.5,284.5,514.5,276.5,514.5,268.5,514.0,260.5,514.0,252.5,513.5,244.5,513.5,237.0,513.0,229.0,513.0,221.0,512.5,213.0,512.5,205.0,512.5,197.0,512.5,189.0,513.0,181.0,513.0,173.0,513.0,165.5,513.0,157.5,513.0,149.5,513.0,141.0,513.0,133.0,513.5,125.0,513.5,117.5,513.5,109.5,513.5,101.0,513.0,93.0,513.0,85.0,513.0,76.5,513.0,68.5,513.0,61.0,513.5,53.0,513.5,45.0,513.5,37.0,513.5,28.5,513.5,20.5,513.0,12.5,513.5,4.5,506.5,2.5,498.5,3.0,490.0,3.5,482.0,3.5,474.0,3.5,466.0,3.5,458.0,3.5,450.0,3.5,442.0,3.5,434.0,3.5,425.5,3.0,416.5,3.0,408.5,2.5,400.5,2.5,392.5,2.5,384.5,3.0,377.0,3.0,369.5,3.0,362.0,2.5,354.0,2.5,346.0,2.5,337.5,2.5,329.5,2.5,321.5,2.5,313.5,2.5,305.5,2.5,298.0,2.5,290.0,2.0,282.0,2.0,273.5,2.0,265.5,2.5,257.5,3.0,249.5,3.0,241.5,3.0,233.5,3.0,225.5,3.0,217.5,2.5,209.5,2.5,201.5,2.5,193.5,2.5,185.5,3.0,177.5,3.0,169.5,3.0,161.5,2.5,153.5,3.0,145.5,3.0,137.5,3.5,129.5,3.5,122.0,3.5,113.5,3.5,105.0,4.0,97.0,4.0,88.5,4.5,80.5,4.5,72.5,4.5,65.0,4.5,57.5,4.0,49.5,4.0,42.0,3.5,34.0,3.5,26.5,3.0,18.5,2.5,11.0,2.5,3.0,2.5" stroke="black" stroke-width="2" fill="none" />
</svg>