<svg xmlns="http://www.w3.org/2000/svg" version="1.1"><polyline points="2.0,1.5,2.5,9.5,2.5,17.5,2.5,25.5,2.5,33.5,2.5,41.5,3.0,49.5,4.0,57.0,4.5,65.0,4.5,72.5,4.5,81.0,4.5,89.0,4.0,97.0,3.5,105.5,3.5,114.5,3.5,123.0,3.5,131.0,3.0,138.5,3.0,146.5,3.0,154.5,3.0,162.5,2.5,170.5,2.5,178.5,2.5,186.0,2.5,194.0,3.0,202.0,3.0,210.0,3.0,218.0,3.5,226.0,4.0,234.5,4.0,242.5,4.0,250.5,4.0,258.5,3.5,266.5,3.0,275.0,3.0,283.0,3.0,291.0,3.0,298.5,3.5,306.5,3.0,314.5,3.0,322.5,3.0,330.5,2.5,338.5,8.5,341.5,16.5,341.0,24.5,340.5,32.0,340.5,40.0,340.5,47.5,340.5,55.0,341.0,63.0,341.0,71.0,341.0,80.0,340.5,88.0,340.5,96.0,341.0,104.0,341.5,112.5,341.5,120.5,342.0,129.0,342.5,137.5,342.5,145.5,343.0,153.5,343.0,161.0,343.0,169.0,342.5,177.5,342.0,185.5,342.0,193.0,342.0,201.0,341.5,208.5,341.0,216.5,340.5,225.0,340.5,232.5,340.5,240.5,341.0,248.5,341.0,257.0,341.5,265.0,342.0,273.5,342.0,282.0,342.0,290.0,342.0,298.5,342.0,307.0,342.0,315.0,342.0,322.5,341.5,330.5,341.5,338.0,341.0,346.0,341.0,354.0,340.5,362.0,341.0,370.0,341.0,378.0,341.5,386.0,341.5,394.0,341.0,401.5,341.0,409.5,340.5,417.0,340.5,425.0,340.5,432.5,340.5,440.5,340.0,448.0,339.5,456.0,339.5,464.0,339.5,472.0,339.5,480.5,340.0,488.5,340.0,496.5,340.5,504.5,341.0" stroke="black" stroke-width="2" fill="none" />
<polyline points="338.5,267.0,330.5,274.0" stroke="black" stroke-width="2" fill="none" />
<polyline points="321.5,274.0,328.5,266.0,337.0,258.0" stroke="black" stroke-width="2" fill="none" />
<polyline points="339.0,250.5,330.0,258.0,321.5,265.5,313.5,272.5" stroke="black" stroke-width="2" fill="none" />
<polyline points="306.5,273.5,314.0,265.5,322.0,257.5,329.5,249.5,337.5,242.0" stroke="black" stroke-width="2" fill="none" />
<polyline points="339.0,236.0,331.0,243.5,323.0,250.5,315.0,257.5,307.0,265.0,299.0,272.0" stroke="black" stroke-width="2" fill="none" />
<polyline points="291.0,273.0,299.5,265.5,307.5,258.5,315.5,251.0,323.5,243.0,332.0,235.0,339.5,227.5" stroke="black" stroke-width="2" fill="none" />
<polyline points="339.5,220.0,332.0,227.5,323.5,235.0,315.5,243.0,307.5,251.0,299.0,258.5,291.5,266.0" stroke="black" stroke-width="2" fill="none" />
<polyline points="289.5,266.0,297.0,274.0,305.0,277.0,313.0,279.0,321.5,279.0,329.5,279.0,338.0,277.5,346.0,272.5" stroke="black" stroke-width="2" fill="none" />
<polyline points="346.5,234.0,338.5,235.0,330.5,235.5,322.5,236.5,314.5,236.5,306.0,237.0,297.5,237.0,289.5,237.5" stroke="black" stroke-width="2" fill="none" />
<polyline points="294.0,240.0,301.5,232.5,308.5,225.0,316.0,217.5,323.5,210.0,331.5,202.5,339.0,194.0,346.5,186.0,354.5,178.0,363.0,170.5" stroke="black" stroke-width="2" fill="none" />
<polyline points="365.0,164.5,356.5,172.0,348.0,179.0,339.5,186.5,331.0,194.5,323.0,202.0,315.0,209.5,307.0,216.5,299.0,224.0,291.0,231.5" stroke="black" stroke-width="2" fill="none" />
<polyline points="291.0,230.5,299.0,230.0,307.0,229.5,315.5,228.5,324.0,227.5,332.0,227.0,340.0,226.5,348.0,226.0" stroke="black" stroke-width="2" fill="none" />
<polyline points="354.0,218.0,362.0,219.0,369.5,219.5,377.5,218.5,385.0,217.5,393.0,216.5,401.0,214.5,409.0,213.0,417.0,210.0,425.5,207.5,433.5,201.5,440.5,195.0,431.5,203.0,414.0,210.5" stroke="black" stroke-width="2" fill="none" />
<polyline points="413.5,167.0,421.5,166.5,429.0,166.0" stroke="black" stroke-width="2" fill="none" />
<polyline points="419.0,156.0,411.5,164.0" stroke="black" stroke-width="2" fill="none" />
<polyline points="406.5,156.5,414.0,149.0" stroke="black" stroke-width="2" fill="none" />
<polyline points="419.0,148.0,411.0,149.0,403.5,149.0,395.5,150.0,387.0,151.0,378.5,152.0,370.0,152.5,362.5,153.0,355.0,154.0,347.5,154.5,339.5,155.5,331.5,156.5,323.0,157.0,314.0,158.0,305.5,158.0,297.0,158.0,289.5,158.5" stroke="black" stroke-width="2" fill="none" />
<polyline points="293.0,162.5,299.0,159.5,288.0,160.5,281.5,168.5,283.5,176.5,283.5,185.0,283.0,193.0,279.0,195.0,286.0,203.5,287.5,211.5,287.5,219.5,287.5,227.5,287.5,235.5,288.0,243.5,288.0,251.0,288.0,259.0,290.0,268.5,297.5,276.5" stroke="black" stroke-width="2" fill="none" />
<polyline points="283.5,261.5,291.5,254.0,299.5,246.0,307.5,238.5,316.0,230.5,324.0,223.0,331.5,216.0,339.5,208.0,347.5,200.5,355.5,193.0,364.0,185.5" stroke="black" stroke-width="2" fill="none" />
<polyline points="364.0,179.5,356.0,187.0,348.0,194.5,339.5,202.0,332.0,209.5,324.5,217.0,316.5,224.5,309.0,231.5,301.5,238.5,293.5,246.0" stroke="black" stroke-width="2" fill="none" />
<polyline points="283.5,246.5,291.0,246.0,298.5,245.0,306.0,244.5,313.5,244.0,321.5,243.5,329.5,242.5,338.0,242.0,346.5,241.0,354.0,240.5" stroke="black" stroke-width="2" fill="none" />
<polyline points="354.0,215.5,345.5,216.0,338.0,216.5,330.0,217.0,322.5,217.5,314.5,218.0,306.5,218.5,299.0,219.0,291.5,219.5,283.0,220.5" stroke="black" stroke-width="2" fill="none" />
<polyline points="283.0,214.0,291.0,213.5,299.0,212.5,307.0,211.5,315.5,211.0,324.0,210.0,331.5,210.0,339.5,209.5,347.5,209.0,356.0,208.0,364.0,207.5,372.0,207.0,379.5,207.0,387.5,206.0,395.0,205.0,403.0,204.5" stroke="black" stroke-width="2" fill="none" />
<polyline points="363.5,195.0,355.5,202.0,347.5,210.0" stroke="black" stroke-width="2" fill="none" />
<polyline points="347.5,206.0,339.5,206.0,331.5,207.0,323.5,207.5,315.0,208.5,306.5,208.5,298.5,209.0" stroke="black" stroke-width="2" fill="none" />
<polyline points="292.5,208.5,300.5,200.5,308.0,192.5,316.0,185.0,324.0,176.5,331.5,168.5,339.5,161.0,347.0,153.5" stroke="black" stroke-width="2" fill="none" />
<polyline points="340.0,158.0,332.0,165.0,324.5,171.5,317.0,178.5,309.0,186.0,301.0,193.5,293.0,201.0" stroke="black" stroke-width="2" fill="none" />
<polyline points="292.5,202.5,300.5,202.0,309.0,202.0,317.5,201.5,325.5,201.5,333.5,201.0,341.5,200.0,349.5,199.5,357.5,198.5" stroke="black" stroke-width="2" fill="none" />
<polyline points="355.0,189.5,348.0,189.5,340.5,189.5,333.0,190.0,325.0,191.0,317.5,191.5,309.5,192.5,301.0,192.5,292.0,193.0" stroke="black" stroke-width="2" fill="none" />
<polyline points="292.5,193.0,300.5,185.5,308.5,178.0,316.5,171.0,324.5,164.0,332.0,157.0" stroke="black" stroke-width="2" fill="none" />
<polyline points="324.0,157.5,316.0,165.0,308.0,172.5,300.0,180.0,292.0,187.0,284.0,194.5" stroke="black" stroke-width="2" fill="none" />
<polyline points="283.5,197.5,291.5,197.0,299.0,196.5,307.5,196.0,316.5,196.0,324.5,196.0,332.0,195.5,340.0,194.5,347.5,193.5,355.0,193.0,363.0,193.0,371.0,192.5,379.0,192.0,387.5,191.5,396.0,191.0,404.0,190.0,411.5,189.0" stroke="black" stroke-width="2" fill="none" />
<polyline points="427.5,150.5,435.5,150.0" stroke="black" stroke-width="2" fill="none" />
<polyline points="436.0,142.0,428.0,142.5,420.0,143.0" stroke="black" stroke-width="2" fill="none" />
<polyline points="418.5,142.0,410.5,143.5,403.0,144.5,395.5,145.0,387.5,145.5,379.5,146.0,372.0,146.5,363.5,147.0,355.0,147.5,347.0,148.5,339.5,148.5,332.0,149.0,324.5,149.0,317.5,149.5,309.0,150.0" stroke="black" stroke-width="2" fill="none" />
<polyline points="309.0,157.0,300.5,164.5,292.5,171.5,284.0,179.0" stroke="black" stroke-width="2" fill="none" />
<polyline points="282.0,181.5,290.0,181.5,298.0,181.0,306.5,181.0,315.0,180.5,323.5,179.5,332.0,179.0,340.0,178.0,348.0,177.5,355.5,177.0,363.5,176.5,371.5,176.0,380.0,175.0,388.5,174.0,397.0,173.5,405.5,173.0" stroke="black" stroke-width="2" fill="none" />
<polyline points="403.5,148.0,411.0,140.0" stroke="black" stroke-width="2" fill="none" />
<polyline points="410.0,140.0,418.0,153.5" stroke="black" stroke-width="2" fill="none" />
<polyline points="409.0,154.0,399.5,154.0,391.5,147.0,383.5,146.5,375.5,147.5" stroke="black" stroke-width="2" fill="none" />
<polyline points="370.5,145.0,378.0,145.0,386.5,144.5" stroke="black" stroke-width="2" fill="none" />
<polyline points="385.0,138.5,377.5,146.0,369.5,154.0" stroke="black" stroke-width="2" fill="none" />
<polyline points="362.5,154.5,370.5,146.5,378.5,139.0" stroke="black" stroke-width="2" fill="none" />
<polyline points="379.0,132.5,371.0,140.0,363.0,148.0" stroke="black" stroke-width="2" fill="none" />
<polyline points="355.5,148.0,363.0,141.0,371.0,133.0" stroke="black" stroke-width="2" fill="none" />
<polyline points="373.0,124.5,365.0,132.0,357.0,139.0" stroke="black" stroke-width="2" fill="none" />
<polyline points="362.0,137.5,370.5,137.0,379.0,136.0" stroke="black" stroke-width="2" fill="none" />
<polyline points="380.0,130.0,372.5,131.0,364.5,132.5,356.5,132.5,348.5,133.0,340.5,133.5,332.5,134.0,324.0,135.0" stroke="black" stroke-width="2" fill="none" />
<polyline points="322.5,136.0,322.5,137.0,320.5,145.0" stroke="black" stroke-width="2" fill="none" />
<polyline points="324.5,142.0,332.5,141.5,341.0,141.0,349.0,140.0,357.0,139.0,365.0,138.5,373.0,138.0,381.0,137.5,389.0,137.0,397.5,136.5,405.5,136.0,413.5,136.0" stroke="black" stroke-width="2" fill="none" />
<polyline points="412.0,133.0,420.0,133.0,428.0,132.5" stroke="black" stroke-width="2" fill="none" />
<polyline points="420.0,124.5,412.0,125.0" stroke="black" stroke-width="2" fill="none" />
<polyline points="411.0,117.0,419.0,116.5" stroke="black" stroke-width="2" fill="none" />
<polyline points="418.0,109.0,410.0,110.0" stroke="black" stroke-width="2" fill="none" />
<polyline points="411.0,102.0,419.0,101.5" stroke="black" stroke-width="2" fill="none" />
<polyline points="419.5,92.0,411.5,92.5" stroke="black" stroke-width="2" fill="none" />
<polyline points="412.0,85.0,420.0,84.0" stroke="black" stroke-width="2" fill="none" />
<polyline points="421.5,78.5,413.5,79.0" stroke="black" stroke-width="2" fill="none" />
<polyline points="413.0,70.0,405.5,71.0" stroke="black" stroke-width="2" fill="none" />
<polyline points="406.0,65.0,412.5,73.0,414.5,80.5,415.5,88.0,414.5,95.5,416.5,98.5,417.5,106.5,417.5,114.5,414.5,121.5,417.0,129.5,427.0,135.5,435.0,142.0,435.5,150.5" stroke="black" stroke-width="2" fill="none" />
<polyline points="433.0,156.5,425.0,151.5,424.0,148.5,416.5,135.5,409.0,140.5,405.0,130.5,401.5,139.0,392.5,140.5,389.0,132.5,388.0,133.5" stroke="black" stroke-width="2" fill="none" />
<polyline points="395.0,117.5,403.5,117.5" stroke="black" stroke-width="2" fill="none" />
<polyline points="404.5,108.5,396.5,109.0" stroke="black" stroke-width="2" fill="none" />
<polyline points="394.5,110.0,402.0,113.5" stroke="black" stroke-width="2" fill="none" />
<polyline points="396.0,101.5,388.5,101.5" stroke="black" stroke-width="2" fill="none" />
<polyline points="380.5,104.0,393.5,112.0,402.5,120.0,405.5,119.5,411.5,127.5,410.0,136.0,409.5,143.0,414.5,151.0,414.5,158.5" stroke="black" stroke-width="2" fill="none" />
<polyline points="405.0,166.0,396.5,166.5,388.0,166.0,379.5,166.5,371.5,167.5,363.5,168.0,355.5,168.5,348.0,169.0,339.5,169.5,331.5,170.0,322.5,171.0,315.0,172.0,306.5,172.5,299.0,173.0,291.5,173.5,284.0,174.5" stroke="black" stroke-width="2" fill="none" />
<polyline points="289.0,172.0,297.5,171.0,305.5,170.5,314.0,169.5,323.0,168.5,331.0,168.0,338.5,167.0,346.5,166.5" stroke="black" stroke-width="2" fill="none" />
<polyline points="346.0,167.0,346.0,160.0,351.0,167.0,357.0,167.0,350.5,172.0,357.0,176.0,356.5,183.5,357.5,191.5,355.5,199.0,351.0,207.0" stroke="black" stroke-width="2" fill="none" />
<polyline points="351.5,206.5,344.0,211.5,335.5,213.5,327.5,214.5,319.5,215.5,311.0,214.0,303.0,213.0,295.0,209.0,287.0,199.0,277.0,190.5" stroke="black" stroke-width="2" fill="none" />
<polyline points="282.0,190.5,290.0,190.0,298.5,189.0,306.5,188.0,314.5,187.0,323.0,186.0,331.5,185.5,340.0,185.0,348.5,184.5,356.5,183.5,365.0,183.0,373.0,183.0,380.5,182.5,388.5,182.0,396.5,181.5,404.5,180.5,412.5,180.0" stroke="black" stroke-width="2" fill="none" />
<polyline points="413.5,198.5,405.5,199.0,397.5,200.0,389.5,201.0,381.5,201.5,373.5,202.0,366.0,202.0,358.0,203.5,350.0,204.0,341.5,204.5,333.0,205.0,325.0,205.0,316.5,206.0,308.5,206.5,300.0,207.0,292.0,207.5" stroke="black" stroke-width="2" fill="none" />
<polyline points="292.5,222.5,301.0,216.0,309.0,209.0,317.0,202.0,325.5,195.0,333.5,188.0,341.5,180.5,349.0,173.0,357.0,166.0" stroke="black" stroke-width="2" fill="none" />
<polyline points="359.5,170.0,351.5,171.0" stroke="black" stroke-width="2" fill="none" />
<polyline points="357.0,155.5,349.0,162.5,340.5,170.5,332.5,178.0,324.0,186.0,316.0,193.5,308.0,201.0,300.0,208.0,292.0,215.0" stroke="black" stroke-width="2" fill="none" />
<polyline points="268.0,213.0,260.0,220.5,252.5,227.5,244.5,234.5" stroke="black" stroke-width="2" fill="none" />
<polyline points="238.5,235.5,247.0,235.5,255.0,235.5,263.0,234.0,270.5,230.0,263.0,233.5" stroke="black" stroke-width="2" fill="none" />
<polyline points="252.0,236.0,260.0,228.0,268.0,220.5" stroke="black" stroke-width="2" fill="none" />
<polyline points="267.5,205.5,260.0,212.5,251.5,220.0,243.5,227.0,235.5,234.0,227.5,241.5,220.0,248.5,213.0,255.0,205.5,262.5,197.0,270.0,189.0,277.5" stroke="black" stroke-width="2" fill="none" />
<polyline points="181.0,279.0,189.0,271.5,197.0,264.0,204.5,257.0,212.5,249.5,220.0,241.5,228.0,234.0,236.0,226.5,244.0,219.0,252.0,211.0,260.0,204.0,268.0,196.5" stroke="black" stroke-width="2" fill="none" />
<polyline points="267.5,187.0,259.5,194.0,252.0,202.0,243.5,210.0,235.5,218.0,228.0,226.0,220.0,234.0,211.5,241.5,203.5,249.0,196.0,256.5,188.0,264.0,180.0,272.0" stroke="black" stroke-width="2" fill="none" />
<polyline points="177.0,273.5,185.0,281.5,192.5,284.5,200.5,285.5,208.0,285.0,215.5,284.0,223.5,282.0,231.5,278.0,233.5,276.0" stroke="black" stroke-width="2" fill="none" />
<polyline points="235.0,274.5,227.0,275.0" stroke="black" stroke-width="2" fill="none" />
<polyline points="245.0,274.5,253.5,267.0,261.5,259.0" stroke="black" stroke-width="2" fill="none" />
<polyline points="268.0,259.0,260.5,266.5,252.5,274.5" stroke="black" stroke-width="2" fill="none" />
<polyline points="259.5,276.0,268.0,268.0,276.5,260.5" stroke="black" stroke-width="2" fill="none" />
<polyline points="283.0,260.5,275.5,267.5" stroke="black" stroke-width="2" fill="none" />
<polyline points="249.0,258.0,241.0,265.5,233.5,273.0,226.0,281.0" stroke="black" stroke-width="2" fill="none" />
<polyline points="217.0,281.5,225.0,274.0,233.5,266.5,241.5,259.0" stroke="black" stroke-width="2" fill="none" />
<polyline points="235.5,258.5,227.5,266.5,219.5,273.5,211.5,281.0" stroke="black" stroke-width="2" fill="none" />
<polyline points="181.0,263.0,189.0,255.5,197.0,247.5,205.0,239.5,212.5,231.5,220.0,224.0,228.0,216.0,236.0,208.0,244.0,201.0,252.0,193.5,260.5,186.5,268.5,179.0" stroke="black" stroke-width="2" fill="none" />
<polyline points="275.0,184.5,267.0,185.0,259.5,186.0,251.5,186.5,244.0,187.0,236.5,188.0,228.5,188.5,220.0,189.0,212.5,189.5,205.0,189.5,197.0,189.5,188.5,189.0,180.5,189.5,172.5,189.0,165.0,189.5,156.5,189.5,148.5,189.0,140.5,189.5,132.5,190.5,124.5,192.0,116.0,193.0,108.0,194.0,100.0,195.0,92.0,196.0,84.0,196.0,76.0,196.5,69.0,197.0,61.0,198.0" stroke="black" stroke-width="2" fill="none" />
<polyline points="66.0,193.0,74.0,192.5" stroke="black" stroke-width="2" fill="none" />
<polyline points="67.5,193.0,75.5,185.5,84.0,178.5,91.0,171.5,99.0,164.0" stroke="black" stroke-width="2" fill="none" />
<polyline points="100.5,157.0,108.5,156.0,116.0,155.0,123.5,155.0,131.5,154.5,139.5,154.5,147.5,154.0,155.0,153.5,162.5,153.0,171.0,152.5,179.0,152.0,186.5,151.0,195.0,151.0,203.0,150.5,210.5,150.5,218.0,150.0,226.5,150.0,235.0,149.5,243.0,149.0,250.5,148.0,259.0,147.0,266.5,147.0,274.0,147.0,282.0,147.0" stroke="black" stroke-width="2" fill="none" />
<polyline points="277.0,145.0,269.0,153.0,261.0,161.0,253.5,169.0,245.0,177.0,236.5,185.0,228.0,192.5,220.5,199.5,212.0,207.0,204.0,215.0,196.5,222.0,188.5,229.5,180.0,236.5" stroke="black" stroke-width="2" fill="none" />
<polyline points="180.0,229.5,188.0,222.0,196.0,214.5,204.0,207.0,212.0,199.5,220.0,192.0,228.5,184.0,236.5,176.0,245.0,168.5,252.5,160.5,261.0,152.5,268.5,145.0,276.5,137.5" stroke="black" stroke-width="2" fill="none" />
<polyline points="277.5,130.0,269.0,138.0,261.0,145.5,252.5,153.0,244.5,160.5,236.0,168.0,228.0,175.5,219.5,183.5,211.0,191.0,203.0,199.0,195.0,206.5,187.0,214.5,179.0,222.0" stroke="black" stroke-width="2" fill="none" />
<polyline points="179.0,218.5,186.5,218.0,194.0,217.5,202.0,217.5,209.5,217.0,217.5,216.0,225.5,215.5" stroke="black" stroke-width="2" fill="none" />
<polyline points="234.5,222.0,234.5,229.5,235.5,237.5,235.0,245.0,236.5,253.5,237.0,261.5" stroke="black" stroke-width="2" fill="none" />
<polyline points="237.5,250.5,229.5,258.0,220.5,266.0,212.0,273.5,204.0,281.5" stroke="black" stroke-width="2" fill="none" />
<polyline points="178.5,253.0,186.5,245.0,195.0,237.5,202.5,230.0,211.0,223.5,219.0,216.5,227.5,209.5,236.5,202.0,244.0,195.5,251.5,188.5,259.5,181.5,268.0,173.5,276.0,166.0" stroke="black" stroke-width="2" fill="none" />
<polyline points="274.0,168.5,266.5,168.5,259.0,169.0,251.5,169.0,243.5,169.5" stroke="black" stroke-width="2" fill="none" />
<polyline points="243.0,177.0,250.5,176.0,259.0,176.0" stroke="black" stroke-width="2" fill="none" />
<polyline points="260.0,185.0,252.5,186.0,244.5,186.5,236.0,187.0" stroke="black" stroke-width="2" fill="none" />
<polyline points="227.0,175.0,219.5,175.5,211.5,175.5,204.0,175.5,196.5,176.0,189.0,176.0,181.0,176.0,172.5,176.5" stroke="black" stroke-width="2" fill="none" />
<polyline points="178.5,171.0,186.5,170.5,195.0,170.0,203.5,169.5,211.5,169.0,220.0,168.5" stroke="black" stroke-width="2" fill="none" />
<polyline points="225.0,168.5,228.0,171.5,231.5,171.5,236.5,180.0,236.0,180.5" stroke="black" stroke-width="2" fill="none" />
<polyline points="227.0,162.5,235.0,162.0,242.5,161.0,250.0,160.0,258.5,159.5,267.0,158.5,275.0,158.0" stroke="black" stroke-width="2" fill="none" />
<polyline points="278.0,155.0,269.5,162.5,260.5,169.5,252.0,177.0,243.5,184.5,235.0,192.5,227.0,200.0,219.0,207.5,211.5,215.5,204.0,223.5,197.0,231.5,188.5,239.0,180.0,246.0" stroke="black" stroke-width="2" fill="none" />
<polyline points="172.0,245.5,179.5,244.5,187.0,244.0,195.5,243.5,204.0,243.5,212.5,243.0,220.5,243.0,228.5,243.0,236.5,242.5,244.5,242.0" stroke="black" stroke-width="2" fill="none" />
<polyline points="237.5,243.0,229.5,250.5,221.0,258.0,213.0,266.5,205.0,275.0,197.0,282.5" stroke="black" stroke-width="2" fill="none" />
<polyline points="173.0,254.0,180.5,253.5,188.5,253.0,196.5,253.0,204.0,252.5,212.0,252.0,219.5,251.5,227.5,251.5,235.5,251.5,244.0,251.0,252.0,250.5,260.0,250.0,268.5,249.5,276.5,249.0,285.0,248.0,293.0,248.0,301.5,247.5,310.0,247.0,318.0,246.5,326.0,245.0,333.5,245.0,341.5,244.5,349.5,244.0,357.5,243.0" stroke="black" stroke-width="2" fill="none" />
<polyline points="339.0,262.5,331.5,263.0,323.5,263.5,315.5,264.0,308.0,264.5,299.5,265.0,291.0,265.5,283.0,266.5,275.5,266.5,268.0,267.0,260.5,267.0,253.5,267.5,245.0,268.0,237.0,268.5,228.0,268.5,219.5,269.0,211.0,269.0,203.0,269.5,194.5,270.5,186.0,271.0,178.5,272.0,171.0,273.0,163.0,273.5,155.0,274.0,147.5,274.5,139.5,275.0,132.0,275.5,124.0,276.0,116.5,276.0,108.5,275.0,101.0,275.0,93.5,275.0,85.5,275.5" stroke="black" stroke-width="2" fill="none" />
<polyline points="83.5,269.0,91.5,269.0,99.5,268.0,107.5,267.5,115.5,267.0,124.0,267.0,131.5,266.5,139.5,266.5,147.0,266.0,155.0,265.5,163.5,265.5,171.5,265.0,180.0,264.5,188.0,264.0,195.5,263.0,203.5,262.5,211.5,262.0,219.0,261.5,226.5,261.0,234.0,261.0,241.5,260.5,250.0,260.0,258.5,259.5,267.0,259.0,275.0,259.0,283.0,258.5,291.5,258.5,299.5,258.0,307.5,257.5,315.5,256.5,324.0,256.0,332.0,255.5,340.0,255.0,348.0,254.5" stroke="black" stroke-width="2" fill="none" />
<polyline points="356.0,247.0,348.5,247.0,341.0,247.0,333.5,247.5,325.5,248.0,317.5,248.5,309.0,249.0,300.5,249.0,292.0,249.0,283.5,250.0,274.5,250.5,266.0,251.0,257.5,251.5,249.0,252.0,241.0,252.5,233.0,253.0,225.0,253.0,217.5,253.0,209.5,253.5,201.5,254.0,194.0,254.0,186.5,254.5,178.5,255.5,170.5,255.5,162.5,256.0,154.5,256.5,146.5,256.5,138.5,257.0,130.5,258.0,122.5,258.0,114.5,259.0,106.5,259.5,98.5,261.0,90.5,262.0,82.5,263.0" stroke="black" stroke-width="2" fill="none" />
<polyline points="83.5,253.0,91.5,252.5,99.0,252.5,107.5,252.0,116.0,251.0,124.0,250.5,132.0,250.0,139.5,249.5" stroke="black" stroke-width="2" fill="none" />
<polyline points="140.0,251.0,132.5,258.5,125.0,265.5,117.5,273.0,109.5,281.0" stroke="black" stroke-width="2" fill="none" />
<polyline points="116.0,289.5,124.0,282.5,132.0,275.0,140.0,267.5" stroke="black" stroke-width="2" fill="none" />
<polyline points="147.5,266.5,140.0,274.0,132.0,282.0,124.5,290.0" stroke="black" stroke-width="2" fill="none" />
<polyline points="132.5,281.5,140.5,281.0" stroke="black" stroke-width="2" fill="none" />
<polyline points="148.0,282.0,155.5,274.5" stroke="black" stroke-width="2" fill="none" />
<polyline points="157.0,267.5,149.5,275.0,141.5,282.0" stroke="black" stroke-width="2" fill="none" />
<polyline points="141.0,272.5,133.0,273.0" stroke="black" stroke-width="2" fill="none" />
<polyline points="141.5,258.0,134.0,266.0,125.5,273.5,117.0,281.0,109.0,288.5" stroke="black" stroke-width="2" fill="none" />
<polyline points="109.5,274.0,117.5,266.0,125.5,258.5,133.5,251.0,141.5,243.5" stroke="black" stroke-width="2" fill="none" />
<polyline points="138.5,241.0,131.0,241.0,123.0,241.0,115.5,241.5,108.5,242.5,100.5,243.5,92.5,244.5,84.5,245.0" stroke="black" stroke-width="2" fill="none" />
<polyline points="83.0,237.0,91.0,236.0,99.5,235.5,107.5,234.5,116.0,234.0,124.5,234.0,132.5,233.5,140.5,233.5" stroke="black" stroke-width="2" fill="none" />
<polyline points="140.5,236.5,132.5,244.0,124.5,251.5,116.0,259.0,108.5,266.0" stroke="black" stroke-width="2" fill="none" />
<polyline points="107.5,256.5,114.5,249.5,122.0,242.5,129.5,236.0,137.5,228.5" stroke="black" stroke-width="2" fill="none" />
<polyline points="138.0,237.0,146.0,237.0,154.5,237.0,162.5,236.0,173.5,239.0,174.0,247.0,175.5,254.5" stroke="black" stroke-width="2" fill="none" />
<polyline points="171.5,236.0,179.5,235.5,187.0,235.0,195.0,234.5,203.5,234.0,212.0,234.0,220.0,233.0,228.0,233.0,236.5,232.5,244.5,232.5,252.0,232.0,261.0,231.5" stroke="black" stroke-width="2" fill="none" />
<polyline points="251.5,223.5,244.0,224.5" stroke="black" stroke-width="2" fill="none" />
<polyline points="244.0,216.5,252.0,216.5,260.0,216.5" stroke="black" stroke-width="2" fill="none" />
<polyline points="258.5,204.5,250.5,205.5,242.5,206.0,234.5,206.0,227.0,206.0,219.5,206.0,211.5,206.5,203.5,206.5,195.5,207.0,187.5,207.5,180.0,208.0,172.0,208.0" stroke="black" stroke-width="2" fill="none" />
<polyline points="170.0,212.0,169.0,220.0,170.0,228.0" stroke="black" stroke-width="2" fill="none" />
<polyline points="169.0,228.5,161.0,236.0" stroke="black" stroke-width="2" fill="none" />
<polyline points="154.5,228.5,162.5,220.5,170.5,213.0,178.5,206.0,186.5,198.5,194.0,191.0,202.0,183.5,210.0,176.5,218.0,169.5,226.5,161.5,235.0,154.0,243.0,146.0,251.5,138.0,260.0,130.0" stroke="black" stroke-width="2" fill="none" />
<polyline points="261.5,125.5,264.5,133.5,277.5,143.5,279.0,151.5,278.0,160.5,274.0,169.0,261.0,176.0,269.0,173.0,277.0,164.0,289.0,160.0,296.5,156.0,305.0,154.0,313.0,153.5,320.0,153.5,327.5,153.5,335.0,154.5,343.0,156.5,351.5,159.5,359.5,164.5" stroke="black" stroke-width="2" fill="none" />
<polyline points="348.0,137.5,356.5,130.5,364.5,123.0" stroke="black" stroke-width="2" fill="none" />
<polyline points="364.0,115.5,356.0,123.0,348.0,130.5" stroke="black" stroke-width="2" fill="none" />
<polyline points="354.0,129.5,362.0,128.5,370.0,128.0" stroke="black" stroke-width="2" fill="none" />
<polyline points="362.0,119.0,354.0,120.0" stroke="black" stroke-width="2" fill="none" />
<polyline points="349.0,121.5,357.0,114.5" stroke="black" stroke-width="2" fill="none" />
<polyline points="356.0,112.0,348.0,112.5" stroke="black" stroke-width="2" fill="none" />
<polyline points="347.0,115.0,355.0,107.5,363.0,99.5" stroke="black" stroke-width="2" fill="none" />
<polyline points="357.0,100.5,349.0,108.0" stroke="black" stroke-width="2" fill="none" />
<polyline points="341.0,108.0,349.0,108.0,356.5,107.5,364.5,107.0" stroke="black" stroke-width="2" fill="none" />
<polyline points="360.0,106.0,360.5,105.5,368.5,110.5,372.5,126.0,380.5,126.0,385.0,138.0" stroke="black" stroke-width="2" fill="none" />
<polyline points="372.0,116.0,363.5,116.5,355.0,117.0,347.0,117.5,339.0,118.0" stroke="black" stroke-width="2" fill="none" />
<polyline points="340.5,108.0,348.0,101.0,356.0,93.0" stroke="black" stroke-width="2" fill="none" />
<polyline points="357.0,76.5,349.0,84.0,340.5,91.0,332.0,98.5" stroke="black" stroke-width="2" fill="none" />
<polyline points="332.0,101.0,339.5,100.5,347.5,100.0,355.5,99.5,363.5,98.5" stroke="black" stroke-width="2" fill="none" />
<polyline points="356.0,104.0,347.5,105.0,339.5,105.5" stroke="black" stroke-width="2" fill="none" />
<polyline points="340.0,98.5,348.5,91.0,356.5,83.0,364.5,75.5" stroke="black" stroke-width="2" fill="none" />
<polyline points="378.5,81.5,386.0,78.0" stroke="black" stroke-width="2" fill="none" />
<polyline points="380.0,81.5,372.0,82.0,364.0,82.5,355.5,82.5,347.5,83.0,339.0,83.5,331.0,84.0,322.5,85.0,315.0,86.0" stroke="black" stroke-width="2" fill="none" />
<polyline points="314.5,93.0,306.5,100.5,298.5,108.0" stroke="black" stroke-width="2" fill="none" />
<polyline points="299.5,112.0,307.5,111.5,315.0,111.0" stroke="black" stroke-width="2" fill="none" />
<polyline points="308.0,108.0,317.0,100.5,325.5,93.0" stroke="black" stroke-width="2" fill="none" />
<polyline points="333.0,85.0,341.0,77.5" stroke="black" stroke-width="2" fill="none" />
<polyline points="339.0,82.0,347.0,74.5" stroke="black" stroke-width="2" fill="none" />
<polyline points="344.0,69.5,351.5,70.5,353.5,64.5,361.5,67.0,370.5,63.0" stroke="black" stroke-width="2" fill="none" />
<polyline points="381.0,59.0,372.5,59.5,364.0,59.0,355.5,59.5,347.5,60.5,339.5,61.0" stroke="black" stroke-width="2" fill="none" />
<polyline points="330.5,77.0,322.5,84.5" stroke="black" stroke-width="2" fill="none" />
<polyline points="314.5,78.0,322.5,77.5,330.5,77.0,338.5,76.0,347.0,75.5,355.5,74.5,364.0,74.0,372.0,73.5,380.0,73.0" stroke="black" stroke-width="2" fill="none" />
<polyline points="381.0,70.5,376.0,78.5,364.0,83.5,356.0,91.5,356.0,100.5,352.0,97.5,350.5,95.5,364.0,89.0,374.0,98.0" stroke="black" stroke-width="2" fill="none" />
<polyline points="377.5,97.5,368.5,100.5,357.5,105.5,359.5,113.5,367.0,122.0,373.0,130.0,379.5,138.0,391.5,148.5,400.5,156.5,415.5,155.5,422.5,163.5" stroke="black" stroke-width="2" fill="none" />
<polyline points="403.5,157.0,395.0,158.0,386.5,159.0,378.0,160.0,370.5,160.5,362.5,161.5,355.0,162.0,347.0,162.0,339.0,162.5,331.0,163.0,323.0,163.5,315.0,164.5,308.0,165.5,300.0,166.5,291.5,167.5,283.5,168.0" stroke="black" stroke-width="2" fill="none" />
<polyline points="275.5,168.0,267.0,168.0,259.0,168.5,250.5,169.5,242.0,170.0,234.5,171.0,227.0,172.0,219.0,172.5,211.0,173.0,203.5,173.5,195.5,174.0,188.0,174.5,180.0,175.0,172.5,175.0,164.5,174.0,157.0,174.0,149.5,174.0,141.5,174.5,133.5,175.0,125.5,175.5,117.0,176.5,107.5,177.5,98.5,178.0,90.5,178.5,82.5,179.5,74.5,179.5,66.0,179.5,58.0,180.5" stroke="black" stroke-width="2" fill="none" />
<polyline points="59.5,186.5,67.0,179.5" stroke="black" stroke-width="2" fill="none" />
<polyline points="69.0,182.0,58.0,186.0,66.0,184.5,72.5,174.5" stroke="black" stroke-width="2" fill="none" />
<polyline points="74.0,172.5,63.5,179.5,58.5,178.5,67.0,173.5,75.0,169.5,83.5,166.5,91.5,165.5,99.5,164.5,107.0,164.0,120.0,168.5,125.0,174.5,138.0,185.5" stroke="black" stroke-width="2" fill="none" />
<polyline points="142.5,178.5,150.5,177.5,158.0,177.0,165.5,176.5" stroke="black" stroke-width="2" fill="none" />
<polyline points="157.5,185.0,165.0,185.0,173.0,184.0,181.0,183.5,189.0,183.5,196.5,183.0,204.0,182.5,212.0,181.5" stroke="black" stroke-width="2" fill="none" />
<polyline points="216.0,188.0,219.0,186.0,227.0,185.5,232.0,179.5" stroke="black" stroke-width="2" fill="none" />
<polyline points="219.5,154.5,227.5,154.0,236.0,153.5,244.0,153.0,251.5,152.0,259.5,151.5,267.5,151.0,275.0,150.5" stroke="black" stroke-width="2" fill="none" />
<polyline points="276.5,146.0,269.0,146.5" stroke="black" stroke-width="2" fill="none" />
<polyline points="257.5,143.0,250.0,143.0,242.5,143.5,234.5,144.5,226.5,144.5,218.5,145.0" stroke="black" stroke-width="2" fill="none" />
<polyline points="213.5,142.0,221.0,141.5,228.5,140.5,236.5,140.0,244.5,139.5,252.0,139.0,260.0,139.0,267.5,139.5,275.5,139.5,283.5,139.5" stroke="black" stroke-width="2" fill="none" />
<polyline points="270.5,132.5,262.0,139.5,253.5,147.5,244.5,154.5,235.5,162.0,227.0,169.0,218.5,176.0,210.5,183.0,203.0,190.0,195.0,197.0,187.0,204.5,179.5,212.0" stroke="black" stroke-width="2" fill="none" />
<polyline points="171.5,216.0,172.5,224.0,173.0,232.5,171.0,240.5,171.5,248.5,172.5,256.5,173.5,264.5,175.0,273.0,179.5,281.0" stroke="black" stroke-width="2" fill="none" />
<polyline points="139.5,262.0,139.0,254.5,138.0,246.5,138.0,238.5" stroke="black" stroke-width="2" fill="none" />
<polyline points="138.0,219.0,130.0,227.0,122.0,234.0,114.5,241.0,106.5,248.0" stroke="black" stroke-width="2" fill="none" />
<polyline points="98.5,240.0,106.5,232.5,115.0,225.0,123.5,217.5,132.0,209.5,140.5,202.0,148.0,195.0,156.5,187.0,164.5,179.5,172.5,171.5,180.0,164.5" stroke="black" stroke-width="2" fill="none" />
<polyline points="188.5,163.0,180.5,170.5,171.5,178.0,163.5,185.5,156.0,193.0,148.5,201.0" stroke="black" stroke-width="2" fill="none" />
<polyline points="154.0,212.5,161.5,204.5,169.5,197.0,178.0,189.5,186.0,182.0,194.5,174.5,203.5,167.0,211.5,159.5,219.0,152.0,226.5,145.0,234.0,137.0,241.5,129.5,249.5,122.0" stroke="black" stroke-width="2" fill="none" />
<polyline points="242.5,124.5,235.0,131.5,227.0,139.0,219.0,146.0,210.5,153.0" stroke="black" stroke-width="2" fill="none" />
<polyline points="212.0,149.5,220.5,149.5,228.0,149.0,235.5,148.5,243.5,148.0,250.5,147.5,258.5,147.5,266.5,146.5,274.5,145.5,282.5,144.5" stroke="black" stroke-width="2" fill="none" />
<polyline points="273.5,134.5,265.5,135.5,258.0,136.0,250.0,136.0,242.5,136.0,234.5,136.5,226.5,137.0,218.5,137.0" stroke="black" stroke-width="2" fill="none" />
<polyline points="213.5,140.0,221.5,144.0,223.5,148.5,229.0,149.5" stroke="black" stroke-width="2" fill="none" />
<polyline points="213.0,147.0,221.0,139.5,229.5,132.0" stroke="black" stroke-width="2" fill="none" />
<polyline points="220.5,130.5,212.0,138.5" stroke="black" stroke-width="2" fill="none" />
<polyline points="212.0,134.5,220.0,134.0,228.0,133.5,236.0,133.0,244.0,132.0,252.0,131.5,259.5,130.5,266.5,130.0,274.0,130.0,282.0,129.5" stroke="black" stroke-width="2" fill="none" />
<polyline points="279.0,130.5,271.5,125.5,263.5,124.0,255.5,123.0,247.5,122.0,240.0,122.0,232.0,123.0,224.0,125.0,216.0,128.0,208.5,136.0" stroke="black" stroke-width="2" fill="none" />
<polyline points="217.5,125.5,225.5,125.0,234.0,125.0,242.0,124.5,250.0,123.5,258.5,122.5,266.5,122.0" stroke="black" stroke-width="2" fill="none" />
<polyline points="270.5,128.0,271.5,136.0,274.5,141.5,272.5,142.5" stroke="black" stroke-width="2" fill="none" />
<polyline points="274.5,154.5,266.5,154.5,258.0,155.0,249.5,155.0,241.5,155.5,233.5,156.0,226.0,156.5,218.0,158.0,209.5,158.5,201.5,159.0,193.5,160.0,186.0,160.5,178.0,160.5,170.5,161.0,163.0,161.5,155.0,162.5,147.5,163.0,140.0,163.5,132.0,163.5,124.0,163.0,116.0,163.5,108.5,164.0,100.5,164.5,92.5,165.0,84.5,165.5" stroke="black" stroke-width="2" fill="none" />
<polyline points="84.0,172.5,76.0,180.0,68.0,187.5" stroke="black" stroke-width="2" fill="none" />
<polyline points="67.5,185.0,75.5,184.5,83.5,183.5,91.5,183.0,99.0,182.5,107.0,182.5,115.0,181.5,123.0,180.5" stroke="black" stroke-width="2" fill="none" />
<polyline points="125.0,173.5,117.5,173.5,109.5,174.0,101.5,174.5,93.0,175.0,84.0,176.0,76.0,176.5" stroke="black" stroke-width="2" fill="none" />
<polyline points="70.0,174.5,78.0,174.5,85.5,173.5,93.0,172.5,100.5,171.5,108.0,170.0,116.0,169.5,124.0,169.0,132.0,168.5,140.5,168.5,148.5,168.0,156.5,167.0,164.0,166.0,171.5,166.0,179.5,165.5,187.5,165.5,195.5,165.0,203.0,164.5,210.5,164.0,219.0,163.5,227.0,163.0,234.5,162.0,243.0,162.0,251.0,161.5,258.5,161.5,266.0,161.0,274.5,161.0" stroke="black" stroke-width="2" fill="none" />
<polyline points="274.5,172.5,275.5,180.5,275.5,188.5,275.5,196.0,274.5,203.5,275.5,211.0" stroke="black" stroke-width="2" fill="none" />
<polyline points="285.5,187.0,293.0,179.0,301.0,171.0,308.5,163.5,316.0,155.5" stroke="black" stroke-width="2" fill="none" />
<polyline points="307.0,161.5,314.5,161.0,322.5,160.5,330.0,160.5,338.0,159.5" stroke="black" stroke-width="2" fill="none" />
<polyline points="356.0,174.0,348.0,175.0,340.0,175.5,332.0,176.0,323.5,177.0,315.5,177.5,307.0,178.0,299.0,178.5,291.0,179.0" stroke="black" stroke-width="2" fill="none" />
<polyline points="290.5,186.5,298.5,185.5,307.0,185.0,315.5,184.0,324.0,184.0,332.5,183.0,340.5,182.5,348.5,181.5,356.5,180.5" stroke="black" stroke-width="2" fill="none" />
<polyline points="343.0,182.5,335.0,183.5" stroke="black" stroke-width="2" fill="none" />
<polyline points="352.5,210.0,353.0,218.0,352.0,226.0,351.0,234.5,351.0,242.0,351.0,250.0,350.5,258.0,350.5,266.5,344.0,274.5" stroke="black" stroke-width="2" fill="none" />
<polyline points="257.5,197.0,249.0,197.0,241.5,197.5,233.0,198.0,225.5,198.5,218.0,199.0,211.0,199.5,203.5,199.5,196.0,200.0,189.0,200.5,181.0,201.0,173.0,202.0,165.0,202.5" stroke="black" stroke-width="2" fill="none" />
<polyline points="165.5,193.5,173.5,193.0,181.5,193.0,189.0,192.5,197.0,192.5,204.5,192.0,212.5,191.5,220.5,191.0,228.0,190.5,235.5,190.0,243.5,189.5,251.0,189.0,258.5,188.0" stroke="black" stroke-width="2" fill="none" />
<polyline points="275.5,207.5,267.0,208.0,258.5,209.0,250.5,210.0,242.5,211.0,234.0,212.0,226.0,212.5,218.5,213.0,211.0,213.5,203.5,214.0,196.0,214.5,188.0,215.0,180.5,215.0,172.5,215.0,164.5,215.5,157.0,215.5,149.0,216.0,141.0,216.0,132.5,217.0,124.0,217.5,116.0,218.0,107.5,218.5,99.5,219.0,91.0,219.5,83.0,219.5,75.0,220.0,67.0,220.5" stroke="black" stroke-width="2" fill="none" />
<polyline points="65.0,216.5,73.0,216.0,81.5,215.5,89.5,215.0,97.5,215.0,105.5,214.5,114.0,214.0,122.0,213.0,130.5,212.5" stroke="black" stroke-width="2" fill="none" />
<polyline points="138.5,209.0,130.0,216.5,122.0,224.5,113.5,232.5,105.0,240.5" stroke="black" stroke-width="2" fill="none" />
<polyline points="101.0,232.0,108.5,224.5,116.5,216.5,124.5,209.0,132.5,201.0,140.5,193.5,149.0,185.5,157.0,177.5,164.5,170.0,172.5,163.0,180.0,155.5" stroke="black" stroke-width="2" fill="none" />
<polyline points="182.0,145.5,174.5,153.5,166.0,161.0,157.5,169.0,148.5,176.5,140.5,184.0,132.0,192.5,123.5,200.5,115.5,208.0,107.5,215.5,99.0,223.5,91.5,230.5" stroke="black" stroke-width="2" fill="none" />
<polyline points="92.0,223.0,100.5,215.5,108.5,208.0,116.0,200.5,124.0,193.0,131.5,185.5,139.5,177.5,147.0,170.0,155.5,162.0,163.5,153.5,171.5,145.5,179.5,138.0" stroke="black" stroke-width="2" fill="none" />
<polyline points="176.5,131.5,168.5,138.5,161.5,145.5,154.0,153.0,146.0,161.0,137.5,169.5,130.5,177.5,123.0,185.5,115.5,193.5,108.0,201.5,100.0,209.0,92.0,216.5,83.5,224.5" stroke="black" stroke-width="2" fill="none" />
<polyline points="81.0,226.5,89.0,226.0,97.0,225.0,105.5,224.0,114.5,224.0" stroke="black" stroke-width="2" fill="none" />
<polyline points="110.0,193.5,118.0,191.0,126.5,189.5" stroke="black" stroke-width="2" fill="none" />
<polyline points="131.0,193.0,139.0,192.5" stroke="black" stroke-width="2" fill="none" />
<polyline points="140.0,204.0,132.0,205.0,124.0,205.5,116.5,206.5,109.0,207.0,100.5,208.0,92.0,209.0,84.0,209.5,76.0,210.5,68.5,211.0" stroke="black" stroke-width="2" fill="none" />
<polyline points="67.5,213.5,75.5,212.5,82.5,212.0,90.5,211.5,99.0,211.0,106.5,210.5,115.0,210.0,123.5,209.5,132.0,209.0,140.0,208.5,148.5,208.0,156.0,208.0,164.0,207.5,172.0,207.5,179.5,207.5,187.5,207.0,195.5,207.0,203.5,206.5,211.5,206.0,219.5,205.0,228.0,204.5,235.5,203.5,243.0,203.0,250.5,202.5,259.0,202.0,266.5,201.0,275.5,200.0" stroke="black" stroke-width="2" fill="none" />
<polyline points="275.0,218.0,267.0,218.5,258.0,219.5,249.5,220.5,241.5,221.0,233.0,222.0,225.5,222.0,218.0,222.5,210.5,223.0,202.5,222.5,195.0,223.0,187.5,223.0,180.0,222.5,172.5,222.5,165.0,223.5,157.0,223.5,149.0,224.5,141.0,225.5,133.5,226.5,125.5,227.0,117.5,227.5,109.0,228.0,100.5,228.5,92.5,229.0,84.0,229.5,75.5,230.0" stroke="black" stroke-width="2" fill="none" />
<polyline points="72.0,234.5,73.0,242.5,74.0,250.5,75.0,258.0,76.5,266.0,77.5,274.5,83.5,288.5,91.5,291.5,99.5,293.0,107.5,293.0,115.5,291.0,123.5,288.5,131.5,285.5" stroke="black" stroke-width="2" fill="none" />
<polyline points="93.5,285.0,101.5,284.5,109.5,284.0,117.0,283.5,124.5,282.5,132.5,282.0,140.0,282.5,147.5,282.0,155.5,282.0,163.0,282.0,171.0,282.0,179.0,281.5,187.0,281.0,195.0,280.5,202.5,280.0,210.0,279.0,218.5,278.5,226.5,277.5,235.0,276.5,243.0,275.5,251.0,275.5,258.5,275.0,266.5,274.5,274.0,274.5,282.0,273.5" stroke="black" stroke-width="2" fill="none" />
<polyline points="233.5,236.0,233.5,228.0,236.5,220.0,237.0,212.0" stroke="black" stroke-width="2" fill="none" />
<polyline points="235.5,209.0,224.5,216.5,218.5,218.5,226.5,215.5,234.5,209.5" stroke="black" stroke-width="2" fill="none" />
<polyline points="204.0,162.0,196.0,170.0,189.0,178.0,181.0,186.0,173.0,194.0,165.0,202.0,157.0,209.5,149.0,217.5" stroke="black" stroke-width="2" fill="none" />
<polyline points="154.0,221.0,161.5,213.0,168.5,205.0,177.0,197.0,185.0,190.0,193.0,183.0,201.5,176.0,210.5,168.0,219.5,160.0,227.5,152.5,235.0,145.0,243.0,137.5,251.0,130.0,259.0,122.5" stroke="black" stroke-width="2" fill="none" />
<polyline points="263.5,146.5,255.5,147.5" stroke="black" stroke-width="2" fill="none" />
<polyline points="274.5,176.5,266.5,177.5,258.0,178.0,250.5,179.0,243.0,179.5,235.0,180.0,227.0,180.5,219.0,181.0,211.0,181.0,203.5,181.0,195.5,181.0,188.0,181.5,180.5,181.0,172.5,181.5,165.0,182.5,157.5,183.0,149.5,183.5,141.5,184.0,133.5,184.5,124.5,185.0,116.0,186.0,107.5,186.5,98.5,187.0,91.0,187.5,83.5,188.5,75.5,189.0,67.5,189.5,59.5,190.5" stroke="black" stroke-width="2" fill="none" />
<polyline points="68.0,200.5,76.0,200.0,84.0,199.5,92.0,199.5,99.5,199.0,107.0,198.5,115.0,198.0,123.0,197.5,130.5,197.0,138.5,196.0" stroke="black" stroke-width="2" fill="none" />
<polyline points="149.5,208.5,157.5,200.5,165.5,192.5,173.5,184.5,181.5,176.5,189.5,169.0,197.5,161.5" stroke="black" stroke-width="2" fill="none" />
<polyline points="181.0,144.5,173.0,144.5" stroke="black" stroke-width="2" fill="none" />
<polyline points="172.0,135.5,164.0,136.0,156.0,136.0,148.5,136.5,140.5,136.0,132.0,136.5" stroke="black" stroke-width="2" fill="none" />
<polyline points="140.0,129.5,131.5,137.5,123.5,145.0,115.0,153.0" stroke="black" stroke-width="2" fill="none" />
<polyline points="122.0,153.0,130.0,153.0,138.5,152.5,146.5,152.0,155.0,151.5,163.5,150.5,172.0,150.0,180.0,149.0" stroke="black" stroke-width="2" fill="none" />
<polyline points="169.0,133.5,161.0,140.5,154.0,147.5,146.0,154.5,138.5,161.5,131.0,168.5,123.5,175.5,115.5,182.5,108.0,190.0,100.5,197.0,93.0,204.0,85.0,212.0,77.0,220.0" stroke="black" stroke-width="2" fill="none" />
<polyline points="76.5,212.0,84.5,204.5,92.5,197.5,101.0,190.5,109.5,183.5,117.0,176.5,124.0,170.0,132.5,162.5,140.5,155.0,148.5,147.0,156.5,139.0,164.0,131.5" stroke="black" stroke-width="2" fill="none" />
<polyline points="160.5,133.5,160.5,131.5,169.5,134.0,176.5,141.0,180.5,147.5,181.5,155.5,176.5,163.5,165.5,172.0,162.5,180.5,165.0,171.5,173.0,165.5,184.0,161.5,192.5,159.5,200.5,159.0,208.0,158.5" stroke="black" stroke-width="2" fill="none" />
<polyline points="171.5,168.0,163.5,168.5,156.0,168.5,148.0,168.5,140.0,169.0,132.5,169.0" stroke="black" stroke-width="2" fill="none" />
<polyline points="128.5,169.5,130.5,177.5,141.0,186.0,142.5,197.0,143.5,209.0,136.0,216.0,137.0,224.5,138.0,232.5,135.0,241.0,136.0,249.5" stroke="black" stroke-width="2" fill="none" />
<polyline points="170.0,213.0,178.0,217.0,186.0,220.0,193.5,221.0,201.5,222.5,210.5,221.5" stroke="black" stroke-width="2" fill="none" />
<polyline points="181.0,189.0,172.5,187.0" stroke="black" stroke-width="2" fill="none" />
<polyline points="179.5,159.0,171.0,159.5,162.5,159.5,154.5,160.0,146.5,160.0,138.0,160.0,130.0,160.0,122.0,160.0" stroke="black" stroke-width="2" fill="none" />
<polyline points="108.5,162.5,100.5,170.0,92.0,177.0,84.0,185.0,76.0,193.0,68.0,200.5" stroke="black" stroke-width="2" fill="none" />
<polyline points="67.5,208.5,75.5,201.0,83.0,193.0,91.0,185.0,99.5,176.0,108.0,168.0,115.5,160.5,123.5,153.5,131.5,146.5,140.0,139.0,148.5,132.0" stroke="black" stroke-width="2" fill="none" />
<polyline points="156.0,130.5,148.5,138.0,141.0,145.0,133.0,152.5,125.5,160.5,117.0,168.0,108.5,175.5,100.5,183.5,92.5,191.5,84.0,200.0,76.0,207.5,68.0,215.0" stroke="black" stroke-width="2" fill="none" />
<polyline points="64.5,216.0,72.5,224.5,80.5,227.5,88.5,228.0,96.5,227.5,104.5,226.5,112.5,225.5,120.5,223.5,128.5,219.5" stroke="black" stroke-width="2" fill="none" />
<polyline points="107.5,192.5,99.0,193.0,90.5,193.0,82.5,193.5" stroke="black" stroke-width="2" fill="none" />
<polyline points="60.5,206.5,68.5,206.0,76.0,205.0,84.0,204.0,92.5,203.0,100.5,202.0,108.5,201.5,116.0,201.0,124.0,200.5,131.5,200.0,139.5,199.5,147.5,198.5,156.0,198.5,164.0,198.0,172.0,197.5,180.0,197.5,188.0,197.0,195.5,197.0,203.5,196.5,211.5,196.5,219.5,195.5,227.5,195.0,235.0,195.0,242.5,194.5,250.0,194.5,257.5,194.0,265.5,193.0,273.5,192.0" stroke="black" stroke-width="2" fill="none" />
<polyline points="303.5,131.5,311.5,115.0" stroke="black" stroke-width="2" fill="none" />
<polyline points="314.0,106.0,305.5,106.5" stroke="black" stroke-width="2" fill="none" />
<polyline points="298.0,102.0,306.5,101.5,314.5,101.0,322.5,101.0" stroke="black" stroke-width="2" fill="none" />
<polyline points="322.5,97.0,315.0,97.0" stroke="black" stroke-width="2" fill="none" />
<polyline points="305.0,94.5,313.0,94.0,321.5,93.5,330.0,93.0,338.5,92.5,347.5,92.0,356.0,91.0,364.5,91.0,373.0,91.0,381.5,90.5,389.5,90.0" stroke="black" stroke-width="2" fill="none" />
<polyline points="381.0,91.5,389.0,98.5,397.0,104.5,404.5,111.5,415.5,119.0" stroke="black" stroke-width="2" fill="none" />
<polyline points="415.5,141.5,420.5,149.0,429.5,157.0" stroke="black" stroke-width="2" fill="none" />
<polyline points="380.0,121.5,371.5,122.0,363.0,123.0,354.5,124.0,346.0,125.0,338.5,125.5,330.5,126.5" stroke="black" stroke-width="2" fill="none" />
<polyline points="332.5,103.0,340.5,105.0,350.5,100.0" stroke="black" stroke-width="2" fill="none" />
<polyline points="379.5,112.5,379.5,120.5,384.0,115.5,398.0,121.5" stroke="black" stroke-width="2" fill="none" />
<polyline points="414.5,74.5,406.5,63.5,398.0,61.5,390.0,60.0,382.0,60.0,374.0,58.0,366.0,57.0,358.0,58.5,350.0,59.0,341.5,58.0,334.0,57.0,326.0,58.0,318.5,58.0,310.5,57.0,302.5,61.0" stroke="black" stroke-width="2" fill="none" />
<polyline points="308.0,61.5,315.5,61.0,323.0,60.0" stroke="black" stroke-width="2" fill="none" />
<polyline points="320.0,63.0,309.0,60.5,308.5,64.5" stroke="black" stroke-width="2" fill="none" />
<polyline points="307.0,69.5,315.0,69.5,323.0,69.0,331.5,68.5,340.5,67.5,348.5,67.0,357.0,66.5,365.0,66.5,372.5,66.0,380.0,64.5" stroke="black" stroke-width="2" fill="none" />
<polyline points="377.0,65.0,376.5,77.0,368.5,83.5,360.5,85.0,352.5,93.0,344.5,94.0,336.5,94.5,328.0,92.5,320.0,86.0,311.5,76.0" stroke="black" stroke-width="2" fill="none" />
<polyline points="313.5,75.0,320.0,83.0,321.5,90.5,318.0,98.5,314.5,106.0,303.5,108.0,309.5,117.5" stroke="black" stroke-width="2" fill="none" />
<polyline points="294.5,106.0,302.5,92.0,311.0,88.0,315.0,92.0" stroke="black" stroke-width="2" fill="none" />
<polyline points="320.5,81.5,312.5,72.0" stroke="black" stroke-width="2" fill="none" />
<polyline points="308.0,56.5,303.0,64.5,307.0,73.5,314.0,81.5,306.0,89.0,299.5,97.0,295.0,105.0,299.5,113.0,304.0,106.0,309.5,110.0,317.5,105.0" stroke="black" stroke-width="2" fill="none" />
<polyline points="394.0,71.0,393.0,63.5" stroke="black" stroke-width="2" fill="none" />
<polyline points="400.5,66.0,407.5,74.0,409.5,82.0,410.0,89.5,410.5,97.0,410.5,104.5,411.5,112.5,403.5,115.5,411.5,122.5,421.5,125.5,430.0,132.5,437.5,139.5" stroke="black" stroke-width="2" fill="none" />
<polyline points="513.0,333.5,513.0,325.0,513.0,317.0,513.0,309.0,513.0,301.0,513.0,293.0,513.0,285.0,513.0,277.0,513.0,268.5,513.0,260.5,513.0,252.0,513.0,244.0,513.0,236.0,513.0,228.0,513.0,220.5,513.0,212.5,513.0,204.5,512.5,196.5,512.5,188.5,512.5,181.0,512.5,173.5,512.5,165.5,513.0,157.5,513.5,150.0,513.5,142.0,513.5,134.0,513.5,126.0,513.0,118.0,513.0,109.5,513.0,101.0,513.0,93.0,513.0,85.0,513.0,77.0,513.0,69.0,513.0,61.5,513.5,53.5,513.0,45.5,513.0,37.0,513.0,29.0,513.0,21.5,513.0,14.0,513.0,5.5,506.0,3.5,498.5,3.0,490.5,3.0,482.5,3.0,474.5,3.0,466.5,3.0,458.5,3.0,450.5,2.5,443.0,2.5,435.0,2.5,427.0,2.0,419.0,2.0,411.0,1.5,402.5,2.0,395.0,2.0,387.0,2.5,379.0,3.0,371.0,3.0,362.5,4.0,354.5,4.0,346.5,3.5,338.5,3.5,330.5,3.0,322.5,3.0,314.5,3.5,306.0,3.5,298.0,3.5,290.5,3.5,282.5,3.5,274.5,3.5,266.5,3.5,258.5,3.0,250.5,3.0,242.5,2.5,234.5,3.0,227.0,3.5,219.0,3.5,211.0,3.0,202.5,3.0,194.5,3.0,186.0,3.5,178.0,3.5,169.5,3.5,161.5,3.0,153.5,3.0,145.0,3.0,137.0,3.5,129.0,3.5,121.0,3.5,113.0,3.5,105.5,3.0,97.5,3.0,89.5,3.0,81.5,3.0,73.5,3.0,66.0,3.0,58.0,3.0,50.5,3.0,42.5,3.0,34.5,3.0,26.0,3.0,18.0,3.0,10.0,3.0,2.0,3.0" stroke="black" stroke-width="2" fill="none" />
<polyline points="70.0,110.0,78.0,103.0,86.0,99.5,94.0,98.5,102.0,98.0,110.5,97.0,118.0,97.0,126.0,99.5,134.0,102.5,134.0,111.5" stroke="black" stroke-width="2" fill="none" />
<polyline points="133.0,112.0,134.0,120.0,134.5,128.0,143.5,124.0,151.5,124.0,159.5,123.5,168.0,124.5,176.0,127.5,184.5,133.5" stroke="black" stroke-width="2" fill="none" />
<polyline points="187.5,144.0,179.5,144.5,171.5,145.5,163.5,145.5,155.5,146.0,148.0,146.0,140.0,146.5,132.0,146.5,124.0,147.0,116.0,147.5,107.5,147.5,99.5,148.5" stroke="black" stroke-width="2" fill="none" />
<polyline points="115.5,146.0,124.0,138.5,132.0,131.5,140.0,124.5" stroke="black" stroke-width="2" fill="none" />
<polyline points="132.5,122.5,124.5,130.0,116.0,137.5,108.0,145.0" stroke="black" stroke-width="2" fill="none" />
<polyline points="99.0,143.5,107.5,136.0,116.0,128.5,124.5,122.0,132.5,114.5" stroke="black" stroke-width="2" fill="none" />
<polyline points="131.5,107.0,124.0,114.0,116.5,121.5,108.5,129.5,101.0,137.5,92.5,145.5" stroke="black" stroke-width="2" fill="none" />
<polyline points="92.5,137.5,101.0,130.5,109.0,123.0,117.0,115.5,125.5,108.0" stroke="black" stroke-width="2" fill="none" />
<polyline points="116.5,106.0,109.0,113.5,100.5,121.0,92.5,129.0,84.5,137.0" stroke="black" stroke-width="2" fill="none" />
<polyline points="82.5,137.0,91.0,137.0,99.5,136.5,107.5,136.5,115.5,135.5" stroke="black" stroke-width="2" fill="none" />
<polyline points="117.5,131.5,126.0,128.5,118.0,132.5,110.0,139.0,115.0,148.0,114.0,156.0,110.0,166.5,118.5,165.5,127.0,167.5,135.0,172.5,143.5,177.5" stroke="black" stroke-width="2" fill="none" />
<polyline points="138.0,176.5,137.0,184.5,139.0,192.5,138.5,201.0,137.5,209.0,133.5,217.0" stroke="black" stroke-width="2" fill="none" />
<polyline points="147.5,150.5,155.0,149.5,163.5,148.0" stroke="black" stroke-width="2" fill="none" />
<polyline points="161.5,142.0,169.5,141.0" stroke="black" stroke-width="2" fill="none" />
<polyline points="173.5,143.5,169.5,142.5,162.0,141.5" stroke="black" stroke-width="2" fill="none" />
<polyline points="155.0,143.0,147.0,143.5,139.0,144.0,131.0,144.0,122.5,144.5" stroke="black" stroke-width="2" fill="none" />
<polyline points="132.5,118.0,125.0,118.5,116.5,118.5,108.5,118.0,100.5,118.5" stroke="black" stroke-width="2" fill="none" />
<polyline points="93.5,119.5,85.0,120.0" stroke="black" stroke-width="2" fill="none" />
<polyline points="89.5,117.0,97.5,117.5,112.0,116.5" stroke="black" stroke-width="2" fill="none" />
<polyline points="112.0,111.5,119.5,113.5,127.5,105.0" stroke="black" stroke-width="2" fill="none" />
<polyline points="116.0,99.5,108.5,106.5,101.0,114.0,93.5,121.5,85.0,129.0" stroke="black" stroke-width="2" fill="none" />
<polyline points="84.0,129.0,92.0,128.0,100.5,127.5,108.5,127.0,116.0,126.5,124.0,126.0,132.5,126.0" stroke="black" stroke-width="2" fill="none" />
<polyline points="124.0,110.5,116.0,111.0,108.5,111.5,101.0,112.0,93.0,112.0,85.0,112.5" stroke="black" stroke-width="2" fill="none" />
<polyline points="85.5,109.0,87.5,100.0,72.5,107.5,73.0,115.5,74.0,123.5,75.5,131.5,79.5,140.0,81.0,148.0,82.0,156.5,82.0,165.0,67.0,173.0,57.0,181.0,55.0,189.0,59.0,197.0,59.5,205.0,60.0,213.0,64.5,220.5,70.5,228.5,68.5,236.0,70.0,244.0,71.0,252.0,71.5,260.0,72.5,268.0,74.5,276.5,76.0,284.0,85.5,292.0" stroke="black" stroke-width="2" fill="none" />
<polyline points="83.5,141.5,91.5,141.0,99.5,140.5,107.5,140.0,115.0,139.5,123.0,138.5,131.0,138.5,139.0,138.5,147.0,138.5,155.0,138.5,162.5,138.0,170.5,137.5,179.0,137.0,187.5,136.5" stroke="black" stroke-width="2" fill="none" />
<polyline points="181.0,127.5,173.5,128.0,165.5,128.0,157.5,128.5,149.5,129.0,141.0,129.0,133.0,130.0,124.5,130.5,116.5,131.0,108.0,131.0,100.0,131.5,92.0,131.5,84.5,132.0,77.0,132.5" stroke="black" stroke-width="2" fill="none" />
<polyline points="79.5,132.0,87.5,141.0,95.0,142.0,102.5,143.5,109.5,140.5,117.5,140.0,117.5,148.0" stroke="black" stroke-width="2" fill="none" />
<polyline points="77.5,128.0,85.0,121.5,93.0,114.5,101.5,107.0,109.5,99.0" stroke="black" stroke-width="2" fill="none" />
<polyline points="99.0,99.0,91.0,107.0,83.0,115.0,75.5,122.5" stroke="black" stroke-width="2" fill="none" />
<polyline points="75.0,126.0,82.5,125.0,90.5,124.5,99.0,124.5,107.5,124.0,116.5,124.0,125.0,123.0,133.0,122.0,141.0,121.0,149.0,120.5,157.5,120.0,165.0,120.0" stroke="black" stroke-width="2" fill="none" />
<polyline points="167.0,128.5,175.0,131.5" stroke="black" stroke-width="2" fill="none" />
<polyline points="141.0,114.5,132.5,115.0,124.5,115.0,116.5,115.5,108.0,115.5,100.0,116.5,92.0,117.0,84.0,117.0,76.5,117.0" stroke="black" stroke-width="2" fill="none" />
<polyline points="75.5,114.5,83.5,106.5" stroke="black" stroke-width="2" fill="none" />
<polyline points="84.5,102.5,92.0,101.5,100.0,101.0,108.5,99.5,116.5,98.5,124.5,97.5,132.0,97.0" stroke="black" stroke-width="2" fill="none" />
<polyline points="141.0,106.5,133.0,107.5,125.0,108.0,117.0,108.0,109.0,108.0,100.5,107.5,92.5,107.5,84.0,108.0,76.0,108.5" stroke="black" stroke-width="2" fill="none" />
<polyline points="224.5,123.5,209.0,131.5,208.0,139.5,209.0,147.5,210.0,155.5,220.0,160.0,228.5,162.0,236.5,166.0" stroke="black" stroke-width="2" fill="none" />
</svg>