<svg xmlns="http://www.w3.org/2000/svg" version="1.1"><path d="M337.0,58.5,333.0,66.5,336.0,64.5,345.0,66.0,352.5,66.0,360.5,65.0,365.0,67.0,366.0,60.0,367.5,70.5,371.5,62.5,373.5,71.0,379.5,63.5,393.5,64.0,401.5,64.5" stroke="black" stroke-width="2" fill="none" />
<path d="M402.5,64.5,409.0,72.5,410.0,80.5,411.5,89.0,412.5,97.0,412.5,105.0,413.0,113.0,415.0,121.0,417.0,129.0,420.0,136.0,431.5,137.0" stroke="black" stroke-width="2" fill="none" />
<path d="M436.0,141.0,428.0,141.5,420.5,142.0" stroke="black" stroke-width="2" fill="none" />
<path d="M417.5,142.5,409.5,143.0,401.5,143.0,394.0,144.0,386.0,144.5,378.0,145.0,369.5,145.5,361.5,146.0,353.5,146.0,345.5,146.0,337.5,146.0,329.5,146.5,321.5,147.0,313.5,147.5,305.5,148.0" stroke="black" stroke-width="2" fill="none" />
<path d="M307.0,156.5,299.0,164.0,290.5,171.0,283.0,178.5" stroke="black" stroke-width="2" fill="none" />
<path d="M284.0,181.0,292.5,181.0,300.5,180.0,308.5,179.5,316.5,178.5,324.5,178.0,332.0,178.5,340.0,178.5,347.5,178.5,355.5,178.5,363.0,178.5,371.0,177.5,379.0,177.0,387.5,176.0,395.5,175.0,403.5,174.5" stroke="black" stroke-width="2" fill="none" />
<path d="M413.0,164.5,420.5,164.0,428.5,164.5" stroke="black" stroke-width="2" fill="none" />
<path d="M420.0,156.0,412.0,163.0" stroke="black" stroke-width="2" fill="none" />
<path d="M404.0,167.0,395.5,167.5,388.0,168.0,380.5,168.5,372.5,168.5,364.0,169.0,356.0,169.5,347.5,170.0,339.0,170.0,331.0,169.5,323.0,169.5,315.5,170.0,307.5,171.5,299.0,172.5,291.5,173.5,283.0,174.0" stroke="black" stroke-width="2" fill="none" />
<path d="M276.0,175.0,268.0,176.0,259.5,176.5,252.0,177.5,243.5,178.0,235.0,178.0,226.5,178.5,218.5,178.5,211.0,179.0,203.0,179.5,195.5,180.0,187.5,181.0,179.5,181.0,171.5,182.0,163.5,182.5,155.0,183.0,146.5,183.5,138.5,183.5,130.5,184.0,122.5,185.0,115.0,185.5,108.0,186.0,101.0,187.0,93.5,187.5,85.5,188.0,78.0,188.5,70.0,189.5,61.5,190.0" stroke="black" stroke-width="2" fill="none" />
<path d="M58.5,187.0,66.5,179.0" stroke="black" stroke-width="2" fill="none" />
<path d="M61.0,180.5,69.0,180.0,77.0,180.0,84.5,179.5,92.5,179.5,100.5,179.0,107.5,178.0,114.0,178.0,121.5,178.0,129.0,178.0,137.0,177.5,145.0,177.0,153.0,175.5,161.0,174.5,169.5,172.5,178.0,172.0,185.5,171.0,194.0,170.5,202.0,170.0,210.5,169.5,218.5,169.5,226.5,168.5,234.5,168.0,242.5,167.0,250.0,166.5,257.5,166.0,266.0,165.5,274.5,165.5" stroke="black" stroke-width="2" fill="none" />
<path d="M276.5,161.5,268.0,169.0,259.5,176.5,251.0,183.5,242.5,191.0,234.5,198.5,226.5,206.5,219.0,214.0,211.0,221.5,203.5,229.5,195.5,236.5,187.5,244.5,179.5,252.0" stroke="black" stroke-width="2" fill="none" />
<path d="M173.5,255.5,181.5,255.5,189.0,254.5,197.0,254.0,204.5,253.0,211.5,252.0,219.5,251.5,227.5,250.5,235.0,250.0,242.0,249.5,249.5,249.0,258.0,248.0,266.0,248.0,274.5,247.5,283.5,247.0,292.0,246.5,300.0,246.5,308.0,245.5,316.0,244.5,324.0,244.0,332.0,243.0,339.5,243.0,348.0,242.5,356.5,242.0" stroke="black" stroke-width="2" fill="none" />
<path d="M339.0,237.0,331.0,244.5,323.5,251.5,315.5,258.5,308.5,266.5,300.5,274.0" stroke="black" stroke-width="2" fill="none" />
<path d="M307.0,273.5,315.0,267.0,322.5,259.5,330.0,251.5,337.5,243.5" stroke="black" stroke-width="2" fill="none" />
<path d="M337.0,252.0,329.0,259.5,322.0,267.0,314.5,274.0" stroke="black" stroke-width="2" fill="none" />
<path d="M333.0,275.5,341.0,268.0" stroke="black" stroke-width="2" fill="none" />
<path d="M340.5,261.0,332.0,268.0,323.5,275.0" stroke="black" stroke-width="2" fill="none" />
<path d="M291.0,273.5,299.0,266.0,307.0,258.5,315.0,251.0,323.5,243.5,331.5,236.0,340.0,228.5" stroke="black" stroke-width="2" fill="none" />
<path d="M337.5,220.5,329.5,228.0,321.5,235.5,313.5,243.0,306.5,250.0,298.5,257.5,291.0,264.5" stroke="black" stroke-width="2" fill="none" />
<path d="M289.5,266.5,297.5,275.5,305.5,279.5,313.0,281.0,321.0,281.0,329.0,280.5,337.0,278.5,344.5,273.0" stroke="black" stroke-width="2" fill="none" />
<path d="M347.5,235.0,339.5,235.0,331.5,235.0,323.0,235.0,315.0,235.5,307.0,235.5,299.0,236.0,291.5,236.0" stroke="black" stroke-width="2" fill="none" />
<path d="M290.5,238.5,298.5,231.0,306.5,223.0,314.5,215.5,323.0,208.0,331.0,200.5,339.5,193.0,347.5,185.0,355.5,177.5,363.5,169.5" stroke="black" stroke-width="2" fill="none" />
<path d="M364.5,162.0,356.0,169.5,348.0,177.5,340.0,185.0,332.0,192.5,323.5,200.0,315.5,207.5,307.0,215.0,298.5,222.5,290.5,229.5" stroke="black" stroke-width="2" fill="none" />
<path d="M290.5,228.0,298.5,227.5,307.0,228.0,315.0,228.0,323.5,228.0,332.0,228.0,340.0,227.5,348.0,227.0" stroke="black" stroke-width="2" fill="none" />
<path d="M353.0,221.0,361.5,221.5,369.5,218.5,378.0,218.5,386.0,217.0,394.5,216.0,402.5,215.0,410.5,212.5,418.5,209.5,426.5,206.0,431.5,206.0,414.5,214.0" stroke="black" stroke-width="2" fill="none" />
<path d="M413.0,198.0,404.5,198.5,396.5,199.0,388.0,199.5,379.5,200.0,372.0,200.0,364.0,201.0,356.0,201.5,348.0,202.5,340.0,203.5,332.0,203.5,323.5,204.0,314.5,204.5,306.0,205.0,298.0,205.0,289.5,206.0" stroke="black" stroke-width="2" fill="none" />
<path d="M291.0,208.0,299.5,200.5,307.5,192.5,315.5,185.0,323.5,177.5,331.5,170.0,339.0,162.5,346.5,155.5" stroke="black" stroke-width="2" fill="none" />
<path d="M342.5,161.5,350.5,162.5" stroke="black" stroke-width="2" fill="none" />
<path d="M355.5,164.0,347.5,171.5,339.0,179.5,331.0,187.0,323.5,193.5,315.5,201.0,308.0,208.5,300.5,217.0,293.0,224.5" stroke="black" stroke-width="2" fill="none" />
<path d="M285.5,222.0,293.5,221.5,300.5,221.0,308.0,220.5,315.5,219.5,322.5,219.5,330.0,219.0,338.0,218.5,346.0,218.0,353.5,217.5" stroke="black" stroke-width="2" fill="none" />
<path d="M352.0,208.5,352.5,216.5,351.5,225.0,352.0,233.0,352.0,241.5,352.5,249.5,352.0,258.0,351.0,266.5,346.0,274.5" stroke="black" stroke-width="2" fill="none" />
<path d="M355.0,241.5,347.0,242.5,339.0,243.5,331.0,244.5,323.0,245.0,315.0,245.0,308.0,245.0,300.5,245.5,292.5,245.5,284.5,246.5" stroke="black" stroke-width="2" fill="none" />
<path d="M291.0,246.0,298.5,238.0,306.5,230.5,314.5,222.5,322.5,215.0,330.5,208.0,339.0,201.0,347.5,194.0,355.5,187.0,363.5,180.0" stroke="black" stroke-width="2" fill="none" />
<path d="M364.0,189.0,356.0,196.0,348.0,203.0,340.0,210.0,332.0,217.5,324.5,225.0,316.5,232.0,309.0,239.0,301.5,246.0,293.5,253.0,285.0,260.5" stroke="black" stroke-width="2" fill="none" />
<path d="M284.0,260.0,276.5,268.0" stroke="black" stroke-width="2" fill="none" />
<path d="M277.0,258.5,268.5,266.0,260.5,273.5" stroke="black" stroke-width="2" fill="none" />
<path d="M250.5,273.0,259.0,265.0,266.5,257.0" stroke="black" stroke-width="2" fill="none" />
<path d="M260.5,259.5,252.5,267.0,244.5,274.0" stroke="black" stroke-width="2" fill="none" />
<path d="M250.5,262.0,242.5,269.0,235.0,276.5,227.0,283.5" stroke="black" stroke-width="2" fill="none" />
<path d="M220.5,282.5,229.0,275.0,236.5,267.5,244.5,260.5" stroke="black" stroke-width="2" fill="none" />
<path d="M237.5,258.0,229.5,265.5,221.0,273.5,212.5,281.0" stroke="black" stroke-width="2" fill="none" />
<path d="M203.5,280.5,211.5,273.0,220.0,266.0,228.5,259.0,237.0,252.0" stroke="black" stroke-width="2" fill="none" />
<path d="M236.5,245.0,228.5,252.5,220.5,259.5,212.5,266.5,204.5,273.5,196.5,280.5" stroke="black" stroke-width="2" fill="none" />
<path d="M187.5,276.5,195.0,269.5,203.0,261.5,211.0,254.0,219.0,246.5,226.5,239.0,235.0,232.5,243.0,225.5,251.5,218.5,259.5,211.5,267.5,205.0" stroke="black" stroke-width="2" fill="none" />
<path d="M266.5,211.5,258.5,218.5,251.0,226.0,243.0,233.5" stroke="black" stroke-width="2" fill="none" />
<path d="M242.5,227.0,250.5,226.5" stroke="black" stroke-width="2" fill="none" />
<path d="M250.5,233.5,258.0,225.0,266.0,217.5" stroke="black" stroke-width="2" fill="none" />
<path d="M285.0,213.0,292.5,212.5,300.0,212.5,307.5,212.5,314.5,212.0,322.0,211.0,330.5,210.5,338.5,210.0,346.5,209.0,354.5,208.5,363.0,208.0,371.0,207.5,379.0,207.5,387.0,207.5,396.0,207.0,404.5,206.5" stroke="black" stroke-width="2" fill="none" />
<path d="M412.5,190.0,404.5,190.5,396.5,191.0,387.5,192.0,379.0,193.0,370.5,193.5,363.0,193.5,354.5,194.0,346.5,194.5,338.5,195.0,331.0,195.5,323.5,196.0,315.0,196.5,306.0,197.0,297.5,197.0,289.5,197.0,281.0,197.5" stroke="black" stroke-width="2" fill="none" />
<path d="M284.0,193.5,292.0,186.0,299.5,178.5,307.5,171.0,315.5,163.5,324.0,156.0" stroke="black" stroke-width="2" fill="none" />
<path d="M315.5,157.5,307.5,164.5,299.5,171.0,291.5,178.0,283.5,185.0" stroke="black" stroke-width="2" fill="none" />
<path d="M283.5,189.0,291.5,188.5,299.5,188.0,307.0,187.5,315.0,187.0,323.0,186.5,331.5,186.0,339.5,186.0,348.0,186.0,356.0,185.5,363.5,185.0,371.5,184.5,379.5,183.5,387.5,183.0,395.5,182.0,403.5,182.0,412.0,181.0" stroke="black" stroke-width="2" fill="none" />
<path d="M401.5,156.5,409.5,148.5" stroke="black" stroke-width="2" fill="none" />
<path d="M406.0,152.5,411.5,160.5" stroke="black" stroke-width="2" fill="none" />
<path d="M403.0,147.0,411.5,139.5" stroke="black" stroke-width="2" fill="none" />
<path d="M409.5,140.0,417.5,144.0,425.5,151.0,433.5,156.0" stroke="black" stroke-width="2" fill="none" />
<path d="M434.0,149.0,426.0,149.5" stroke="black" stroke-width="2" fill="none" />
<path d="M420.5,149.0,412.5,150.0,405.0,151.0,396.5,151.5,388.5,152.5,380.5,153.0,372.5,153.5,364.5,153.5,356.0,154.0,347.5,155.0,339.5,156.0,331.0,157.0,323.0,157.5,315.0,157.5,306.5,157.5,298.0,158.0,290.0,158.0" stroke="black" stroke-width="2" fill="none" />
<path d="M290.0,154.0,298.0,140.0,305.5,125.0,310.5,115.5,306.5,123.0,302.5,130.5,297.5,138.5,293.0,146.0,293.5,156.0,282.5,164.5,283.0,172.5,284.0,180.5,283.5,188.5,285.0,197.0,288.0,205.0,288.0,213.0,288.0,221.5,288.0,229.5,288.0,238.0,288.0,246.0,288.0,254.0,288.0,262.0,290.5,269.5,301.5,277.5" stroke="black" stroke-width="2" fill="none" />
<path d="M292.0,216.0,300.0,208.5,308.0,200.5,316.5,193.0,324.0,185.0,331.5,178.0,339.0,170.0,347.0,162.0,354.5,154.0" stroke="black" stroke-width="2" fill="none" />
<path d="M363.5,153.5,371.5,146.5,380.0,139.5" stroke="black" stroke-width="2" fill="none" />
<path d="M387.5,137.5,379.5,145.0,371.5,152.5" stroke="black" stroke-width="2" fill="none" />
<path d="M373.5,147.5,381.0,147.0,389.0,145.5" stroke="black" stroke-width="2" fill="none" />
<path d="M379.0,131.5,371.0,139.0,363.0,147.0" stroke="black" stroke-width="2" fill="none" />
<path d="M355.5,146.0,363.5,139.0,371.5,131.0" stroke="black" stroke-width="2" fill="none" />
<path d="M372.0,122.0,364.0,129.5,355.5,137.0" stroke="black" stroke-width="2" fill="none" />
<path d="M349.0,138.0,357.5,130.5,366.5,123.0" stroke="black" stroke-width="2" fill="none" />
<path d="M364.5,116.0,356.0,123.5,347.5,130.5" stroke="black" stroke-width="2" fill="none" />
<path d="M355.0,130.0,363.0,129.5,371.0,129.5" stroke="black" stroke-width="2" fill="none" />
<path d="M364.5,138.5,372.5,138.0,380.5,137.5" stroke="black" stroke-width="2" fill="none" />
<path d="M394.5,118.0,402.5,117.5" stroke="black" stroke-width="2" fill="none" />
<path d="M404.0,110.0,396.0,110.5" stroke="black" stroke-width="2" fill="none" />
<path d="M396.0,103.0,388.0,103.5" stroke="black" stroke-width="2" fill="none" />
<path d="M389.0,87.5,381.0,88.0,373.5,88.0,365.5,88.5,357.0,89.5,348.5,90.5,340.0,91.5,331.5,92.0,323.5,92.5,315.0,93.5,306.5,94.0" stroke="black" stroke-width="2" fill="none" />
<path d="M314.0,94.0,305.5,101.0,297.5,108.0" stroke="black" stroke-width="2" fill="none" />
<path d="M301.5,109.0,309.5,109.0,317.0,109.0" stroke="black" stroke-width="2" fill="none" />
<path d="M308.5,107.0,317.0,99.5,325.5,92.5" stroke="black" stroke-width="2" fill="none" />
<path d="M324.0,96.5,316.0,96.5" stroke="black" stroke-width="2" fill="none" />
<path d="M317.0,87.0,324.5,86.0,332.5,85.5,340.0,84.5,348.5,84.0,357.0,83.5,365.0,82.5,373.0,82.0,381.0,81.5" stroke="black" stroke-width="2" fill="none" />
<path d="M380.0,73.5,372.0,74.5,364.0,75.0,356.0,76.0,347.5,76.5,340.0,77.5,332.5,78.5,325.0,79.0,317.0,79.5" stroke="black" stroke-width="2" fill="none" />
<path d="M323.5,81.5,331.5,74.0" stroke="black" stroke-width="2" fill="none" />
<path d="M332.5,82.0,341.0,74.5" stroke="black" stroke-width="2" fill="none" />
<path d="M348.0,74.5,340.0,82.0" stroke="black" stroke-width="2" fill="none" />
<path d="M331.5,95.0,339.5,92.5,347.5,92.5,355.5,91.5,365.0,82.5,373.0,82.0,381.0,79.5,389.5,75.5" stroke="black" stroke-width="2" fill="none" />
<path d="M393.0,79.0,380.0,87.0,378.5,94.0,384.0,102.0,392.5,103.5,398.5,112.0,398.0,117.0,407.5,125.5,415.0,127.5,417.0,137.5,411.0,144.5,416.5,152.0,422.5,160.0,426.5,167.5" stroke="black" stroke-width="2" fill="none" />
<path d="M402.5,159.0,395.0,160.0,387.5,160.5,380.5,161.0,373.0,161.5,365.0,162.0,357.0,162.5,349.0,163.0,341.0,163.0,333.5,163.5,325.5,163.5,317.0,163.5,308.0,163.5,300.0,163.5,292.0,164.0,284.0,164.0" stroke="black" stroke-width="2" fill="none" />
<path d="M292.5,171.0,301.0,170.0,308.5,169.0,316.5,168.5,324.5,168.0,332.5,168.0,341.0,167.0,349.5,166.5" stroke="black" stroke-width="2" fill="none" />
<path d="M340.0,160.0,332.0,159.5,324.0,159.5,316.0,160.0,307.5,160.5" stroke="black" stroke-width="2" fill="none" />
<path d="M304.5,157.0,297.0,159.5" stroke="black" stroke-width="2" fill="none" />
<path d="M293.5,178.5,301.5,178.0,309.5,177.5,318.0,177.0,325.5,177.0,334.0,177.0,341.5,176.5,349.0,176.5,356.5,176.0" stroke="black" stroke-width="2" fill="none" />
<path d="M363.0,195.5,355.5,203.5,347.5,210.5" stroke="black" stroke-width="2" fill="none" />
<path d="M348.5,206.0,340.5,207.0,333.0,208.0,325.0,208.5,316.5,209.0,308.5,209.5,300.0,210.0" stroke="black" stroke-width="2" fill="none" />
<path d="M291.5,208.5,299.0,212.5,306.5,215.5,314.5,216.5,322.5,217.0,330.5,216.0,338.5,214.5,346.5,211.0,354.5,201.5" stroke="black" stroke-width="2" fill="none" />
<path d="M356.0,198.0,347.5,198.5,339.0,199.0,330.5,200.0,322.5,200.5,314.5,200.5,306.5,200.5,299.0,201.0,291.5,201.5" stroke="black" stroke-width="2" fill="none" />
<path d="M291.0,201.0,298.5,193.5,307.0,186.0,315.0,178.0,323.0,170.0,330.5,162.5,338.5,155.0" stroke="black" stroke-width="2" fill="none" />
<path d="M337.5,158.5,350.5,164.5,355.5,170.0" stroke="black" stroke-width="2" fill="none" />
<path d="M355.0,190.0,347.0,190.0,338.5,190.5,330.5,191.0,322.5,191.5,315.5,192.0,307.5,192.5,299.5,193.5,291.0,194.0" stroke="black" stroke-width="2" fill="none" />
<path d="M290.5,191.5,299.0,184.0,308.0,177.5,316.5,170.0,325.0,162.0,333.0,154.5" stroke="black" stroke-width="2" fill="none" />
<path d="M335.5,157.5,335.5,158.0,355.0,161.0,361.0,169.0,358.5,177.0,358.0,185.0,358.5,192.5,356.5,200.5,349.5,208.5" stroke="black" stroke-width="2" fill="none" />
<path d="M369.0,221.5,377.0,221.5,385.0,220.0,393.0,218.5,401.0,217.5,409.0,215.5,417.0,212.5,425.0,210.0,433.0,204.5,441.5,195.5,436.5,202.5,420.5,209.5" stroke="black" stroke-width="2" fill="none" />
<path d="M426.5,167.0,418.0,152.0,417.5,140.0,409.5,138.0,401.0,140.0,392.5,142.5,385.0,139.5,377.0,133.5,375.0,126.5,366.5,120.0,358.5,113.0" stroke="black" stroke-width="2" fill="none" />
<path d="M355.5,113.5,347.0,121.5" stroke="black" stroke-width="2" fill="none" />
<path d="M347.5,115.5,355.5,107.5,364.0,100.0" stroke="black" stroke-width="2" fill="none" />
<path d="M364.0,99.5,356.5,100.0,349.0,101.0,341.0,102.0,333.5,102.5" stroke="black" stroke-width="2" fill="none" />
<path d="M332.0,98.5,340.0,90.5,348.0,82.5,355.5,75.0" stroke="black" stroke-width="2" fill="none" />
<path d="M363.5,76.0,356.0,83.5,348.0,91.0,340.5,98.5" stroke="black" stroke-width="2" fill="none" />
<path d="M347.5,99.0,355.5,101.0" stroke="black" stroke-width="2" fill="none" />
<path d="M355.5,100.0,347.5,107.5" stroke="black" stroke-width="2" fill="none" />
<path d="M347.0,113.0,355.0,112.5" stroke="black" stroke-width="2" fill="none" />
<path d="M353.5,121.5,362.0,121.0" stroke="black" stroke-width="2" fill="none" />
<path d="M372.5,116.0,363.5,117.0,355.0,118.0,346.5,118.5,339.0,118.5" stroke="black" stroke-width="2" fill="none" />
<path d="M339.5,110.0,347.5,109.5,355.5,108.5,363.5,108.0" stroke="black" stroke-width="2" fill="none" />
<path d="M355.0,106.0,347.0,106.5,339.0,107.5" stroke="black" stroke-width="2" fill="none" />
<path d="M340.0,106.5,347.5,99.0,354.5,91.5" stroke="black" stroke-width="2" fill="none" />
<path d="M361.0,93.5,369.0,90.5,382.0,94.5,390.0,100.0,398.5,106.5,406.5,112.5,410.5,126.0" stroke="black" stroke-width="2" fill="none" />
<path d="M412.0,124.5,420.0,124.0" stroke="black" stroke-width="2" fill="none" />
<path d="M413.5,132.5,421.0,132.5,429.0,132.0" stroke="black" stroke-width="2" fill="none" />
<path d="M412.0,134.0,404.0,134.0,396.0,134.5,388.0,135.0,380.0,135.5,372.0,136.0,364.5,136.5,356.5,137.5,348.5,138.5,341.0,139.5,333.0,140.5,325.5,141.0" stroke="black" stroke-width="2" fill="none" />
<path d="M324.5,133.0,332.0,132.5,340.5,132.0,349.0,131.5,357.5,131.0,365.0,130.5,373.5,129.5,382.0,128.5" stroke="black" stroke-width="2" fill="none" />
<path d="M378.5,124.0,370.5,124.0,363.0,125.0,355.5,125.5,348.5,126.0,341.0,126.5,333.0,127.0" stroke="black" stroke-width="2" fill="none" />
<path d="M314.5,105.0,306.5,106.0" stroke="black" stroke-width="2" fill="none" />
<path d="M298.5,99.5,306.5,99.5,314.5,99.5,323.0,99.5" stroke="black" stroke-width="2" fill="none" />
<path d="M323.5,70.0,315.5,69.0" stroke="black" stroke-width="2" fill="none" />
<path d="M309.0,64.0,316.5,63.5,323.5,62.5" stroke="black" stroke-width="2" fill="none" />
<path d="M309.0,58.0,304.0,59.5,314.5,60.5,311.5,69.0,313.0,79.0,312.5,87.0,302.0,95.5,296.5,103.5,296.5,111.5,301.5,94.5,309.5,88.5,311.5,92.5,318.0,89.0" stroke="black" stroke-width="2" fill="none" />
<path d="M307.0,70.5,315.5,70.0,324.0,69.0,332.0,68.0,340.5,67.0,348.5,66.5,357.0,65.5,364.5,65.5,372.5,65.0,381.0,64.0" stroke="black" stroke-width="2" fill="none" />
<path d="M380.0,60.0,371.5,60.5,364.0,61.0,356.5,61.5,348.5,61.5,340.0,62.0" stroke="black" stroke-width="2" fill="none" />
<path d="M342.5,60.5,344.5,68.5,350.5,70.0,358.5,70.0,367.0,71.0,376.0,80.0" stroke="black" stroke-width="2" fill="none" />
<path d="M375.0,79.5,380.0,72.0" stroke="black" stroke-width="2" fill="none" />
<path d="M388.0,80.5,380.5,86.5,369.5,89.5,379.5,81.5,395.0,73.5,396.0,65.5" stroke="black" stroke-width="2" fill="none" />
<path d="M404.0,70.0,412.5,69.5" stroke="black" stroke-width="2" fill="none" />
<path d="M412.0,77.0,419.5,77.0" stroke="black" stroke-width="2" fill="none" />
<path d="M420.0,86.0,411.5,86.0" stroke="black" stroke-width="2" fill="none" />
<path d="M411.5,94.5,419.5,94.0" stroke="black" stroke-width="2" fill="none" />
<path d="M420.5,101.0,413.0,102.0" stroke="black" stroke-width="2" fill="none" />
<path d="M412.5,109.0,421.5,108.5" stroke="black" stroke-width="2" fill="none" />
<path d="M420.0,115.5,412.0,116.0" stroke="black" stroke-width="2" fill="none" />
<path d="M422.0,130.5,414.5,125.0,406.5,120.5,406.5,116.5,398.5,115.5,395.5,111.5,387.5,105.0,387.5,102.5,380.0,95.5,372.0,96.0,364.0,97.0,361.0,107.5,351.0,101.5,342.0,106.5,333.5,104.5,327.5,101.5,322.5,97.5,314.5,109.5,306.5,111.5,298.5,111.5,315.5,108.0,319.5,100.0,323.0,92.0,314.0,78.5,306.0,71.5,298.0,66.5" stroke="black" stroke-width="2" fill="none" />
<path d="M305.0,68.5,307.0,65.5,311.0,68.5,319.5,67.0,324.5,67.0,329.0,62.0,330.5,71.5,338.5,71.5" stroke="black" stroke-width="2" fill="none" />
<path d="M360.5,69.0,361.5,61.0" stroke="black" stroke-width="2" fill="none" />
<path d="M371.5,61.0,370.5,69.0,369.0,70.0" stroke="black" stroke-width="2" fill="none" />
<path d="M361.0,86.0,359.0,94.5,359.0,102.5,358.0,111.0,364.5,118.5,370.5,127.0,377.0,135.0,390.0,137.0" stroke="black" stroke-width="2" fill="none" />
<path d="M413.0,141.5,423.0,149.5" stroke="black" stroke-width="2" fill="none" />
<path d="M387.5,107.0,381.5,102.5,377.5,100.5,369.5,98.5" stroke="black" stroke-width="2" fill="none" />
<path d="M408.0,65.5,400.0,62.5,392.5,62.5,385.0,62.0,377.0,62.0,368.5,59.5,360.0,59.5,352.0,60.0,344.0,58.5,336.0,57.5,328.0,58.5,320.5,59.5,312.5,57.5,304.5,60.0" stroke="black" stroke-width="2" fill="none" />
<path d="M276.0,129.0,268.0,137.0,260.0,145.0,251.5,153.0,243.0,160.5,235.0,168.5,227.0,176.0,219.0,184.0,211.0,191.5,203.5,199.0,196.0,207.0,187.5,214.5,179.5,222.5" stroke="black" stroke-width="2" fill="none" />
<path d="M179.0,219.0,187.0,218.0,195.0,217.5,202.5,216.5,210.0,215.5,218.5,214.5,226.0,213.5" stroke="black" stroke-width="2" fill="none" />
<path d="M229.0,215.5,221.0,218.5,213.5,220.5,205.5,221.5,195.0,221.0,187.0,219.5,178.5,217.5,170.5,214.0" stroke="black" stroke-width="2" fill="none" />
<path d="M170.0,213.0,169.0,221.0,169.5,229.5,170.5,239.5,172.0,248.0,172.0,256.0,173.0,264.0,174.0,272.0,178.0,280.0" stroke="black" stroke-width="2" fill="none" />
<path d="M179.5,278.5,187.5,271.0,195.5,263.5,203.0,256.0,211.0,248.0,219.0,241.0,227.0,233.5,235.0,226.0,243.0,218.5,251.5,211.0,259.5,203.5,268.0,196.0" stroke="black" stroke-width="2" fill="none" />
<path d="M269.0,187.0,261.0,194.5,252.5,202.5,244.5,210.0,236.5,218.0,228.5,226.0,220.0,233.5,211.5,241.0,203.0,248.5,195.0,255.5,186.5,262.5,179.5,270.0" stroke="black" stroke-width="2" fill="none" />
<path d="M175.0,273.0,183.0,282.0,191.0,285.5,199.0,287.0,207.0,287.0,215.0,286.0,223.0,284.0,231.5,279.0" stroke="black" stroke-width="2" fill="none" />
<path d="M234.5,272.5,226.5,272.5" stroke="black" stroke-width="2" fill="none" />
<path d="M238.0,239.5,246.0,238.5,253.5,238.0,261.5,236.0,269.0,231.5" stroke="black" stroke-width="2" fill="none" />
<path d="M259.0,217.5,250.0,218.0,242.0,218.5" stroke="black" stroke-width="2" fill="none" />
<path d="M236.0,210.5,236.5,219.0,236.5,227.0,236.5,235.5,237.0,243.5,237.0,252.0,237.0,260.5,238.5,268.5,233.5,277.5" stroke="black" stroke-width="2" fill="none" />
<path d="M180.0,244.5,188.0,236.5,196.5,229.0,204.0,221.5,212.0,214.5,219.5,206.5,227.0,198.5,234.5,190.5,242.5,183.0,251.0,176.0,259.5,169.0,267.5,162.0,275.5,155.0" stroke="black" stroke-width="2" fill="none" />
<path d="M275.0,146.0,267.0,153.5,259.0,161.0,251.5,169.0,243.5,176.5,235.5,184.5,228.0,192.0,220.5,199.0,213.0,206.5,206.0,214.5,198.5,222.0,189.5,229.5,181.0,237.0" stroke="black" stroke-width="2" fill="none" />
<path d="M179.5,229.5,188.0,222.5,196.5,215.0,204.5,207.0,212.5,199.0,221.0,191.5,229.0,184.0,237.0,176.0,244.5,168.5,252.5,161.5,260.0,154.0,268.0,146.5,275.5,139.0" stroke="black" stroke-width="2" fill="none" />
<path d="M268.0,133.5,260.0,141.0,251.5,148.0,243.5,155.0,236.0,163.0,228.0,170.0,219.5,177.0,211.0,184.5,203.0,191.5,195.0,198.5,186.5,206.5,179.0,213.5" stroke="black" stroke-width="2" fill="none" />
<path d="M172.0,210.5,179.5,210.0,187.0,209.0,195.0,208.5,203.0,208.0,211.0,207.5,219.0,207.0,227.5,206.0,236.0,205.5,244.0,205.5,252.5,204.5,260.0,204.5" stroke="black" stroke-width="2" fill="none" />
<path d="M259.0,184.0,250.5,184.0,242.5,184.5,234.5,185.0" stroke="black" stroke-width="2" fill="none" />
<path d="M242.5,179.0,250.5,178.5,258.5,177.5" stroke="black" stroke-width="2" fill="none" />
<path d="M269.0,179.0,260.5,187.0,253.0,195.0,245.0,203.0,236.5,211.0,228.0,218.5,220.0,225.5,212.0,232.0,204.0,239.5,195.5,246.5,187.5,254.0,180.0,261.5" stroke="black" stroke-width="2" fill="none" />
<path d="M173.0,247.5,180.5,247.0,188.5,246.0,196.0,245.0,203.5,244.0,211.0,244.0,219.0,243.0,227.5,242.5,235.5,241.5,243.0,241.0" stroke="black" stroke-width="2" fill="none" />
<path d="M259.5,232.5,251.0,233.0,243.5,233.0,235.5,233.5,227.5,234.5,219.5,235.0,211.5,236.0,203.5,237.0,195.5,237.5,187.5,238.5,179.5,239.5,171.5,240.0" stroke="black" stroke-width="2" fill="none" />
<path d="M163.5,235.0,171.0,228.0" stroke="black" stroke-width="2" fill="none" />
<path d="M172.0,217.0,172.5,225.0,173.5,232.5,173.5,240.5,174.5,249.0" stroke="black" stroke-width="2" fill="none" />
<path d="M156.5,267.5,148.0,275.0,140.0,282.5" stroke="black" stroke-width="2" fill="none" />
<path d="M148.0,283.0,156.0,276.0" stroke="black" stroke-width="2" fill="none" />
<path d="M148.0,268.0,139.5,275.5,131.0,283.0,122.5,290.5" stroke="black" stroke-width="2" fill="none" />
<path d="M115.0,289.5,123.0,282.5,131.0,275.0,139.0,267.5" stroke="black" stroke-width="2" fill="none" />
<path d="M141.5,260.5,133.5,268.0,125.0,275.0,116.5,282.5,108.5,290.5" stroke="black" stroke-width="2" fill="none" />
<path d="M108.5,281.5,116.5,274.0,124.0,266.5,131.5,259.5,139.5,252.0" stroke="black" stroke-width="2" fill="none" />
<path d="M139.5,244.0,131.0,251.5,123.0,259.5,115.0,267.0,107.5,274.5" stroke="black" stroke-width="2" fill="none" />
<path d="M108.5,265.5,116.5,257.0,124.0,249.0,131.5,241.0,139.5,233.0" stroke="black" stroke-width="2" fill="none" />
<path d="M139.5,234.5,131.0,235.5,123.5,236.0,115.0,237.0,107.5,238.0,100.0,238.5,92.0,239.5,84.0,240.5" stroke="black" stroke-width="2" fill="none" />
<path d="M84.0,246.0,91.5,246.0,99.0,245.5,106.5,244.5,114.5,243.5,123.0,243.0,131.0,243.0,139.5,242.5" stroke="black" stroke-width="2" fill="none" />
<path d="M141.0,238.0,149.0,239.5,157.0,239.0,165.0,238.0" stroke="black" stroke-width="2" fill="none" />
<path d="M157.0,229.5,165.0,222.0,173.0,214.5,181.0,207.0,189.0,199.5,197.0,191.5,205.0,183.5,213.0,175.5,221.0,167.5,229.5,159.5,237.5,152.0,245.5,144.5,254.0,137.0,262.0,129.5" stroke="black" stroke-width="2" fill="none" />
<path d="M260.0,124.5,252.0,131.5,244.0,139.0,236.0,146.0,228.0,153.0,220.5,160.5,212.5,168.0,204.5,176.0,196.5,184.0,188.5,192.0,180.5,200.0,172.0,207.0,163.5,214.0,155.5,221.5" stroke="black" stroke-width="2" fill="none" />
<path d="M154.5,214.5,162.0,206.5,169.5,198.5,178.0,191.5,186.5,184.0,195.0,177.0,203.0,170.0,211.5,163.0,219.0,155.0,227.0,147.5,235.0,140.0,242.5,132.5,250.0,125.5" stroke="black" stroke-width="2" fill="none" />
<path d="M244.5,123.5,236.5,131.0,228.0,138.5,219.5,146.0,212.0,154.5" stroke="black" stroke-width="2" fill="none" />
<path d="M211.0,148.5,219.5,148.0,227.5,148.0,235.5,147.5,244.0,147.5,252.5,147.0,260.5,147.0,268.5,146.5,276.5,146.0,284.0,145.5" stroke="black" stroke-width="2" fill="none" />
<path d="M275.5,145.5,267.5,146.5" stroke="black" stroke-width="2" fill="none" />
<path d="M274.0,155.5,265.5,156.0,258.0,156.5,250.5,157.0,242.5,158.0,234.5,158.5,226.5,159.5" stroke="black" stroke-width="2" fill="none" />
<path d="M224.5,161.0,237.5,169.0" stroke="black" stroke-width="2" fill="none" />
<path d="M241.0,170.0,249.0,169.5,258.0,169.0,266.5,168.0,275.0,168.0" stroke="black" stroke-width="2" fill="none" />
<path d="M275.0,171.5,275.0,179.5,275.0,188.0,275.5,196.0,275.5,204.0,275.5,212.0,275.5,220.0,270.5,230.0" stroke="black" stroke-width="2" fill="none" />
<path d="M258.5,196.5,250.0,197.0,242.0,197.0,234.0,198.0,226.5,198.5,219.0,199.0,210.5,199.0,202.5,199.5,194.5,199.5,186.0,199.5,177.5,199.5,169.5,199.5,161.5,200.0" stroke="black" stroke-width="2" fill="none" />
<path d="M163.5,193.5,171.5,193.0,179.0,193.0,187.0,193.0,195.0,193.0,203.5,192.5,211.5,192.0,220.5,191.5,229.0,190.5,237.0,190.0,244.5,189.5,252.5,188.5,260.5,188.5" stroke="black" stroke-width="2" fill="none" />
<path d="M292.5,185.5,300.0,185.5,308.0,185.5,316.5,185.5,324.5,185.0,332.5,185.0,340.5,184.0,348.0,183.5,355.5,182.5" stroke="black" stroke-width="2" fill="none" />
<path d="M275.5,149.0,267.5,149.5,259.5,150.0,252.0,150.5,244.0,151.0,235.5,152.0,227.0,152.5,218.5,153.0" stroke="black" stroke-width="2" fill="none" />
<path d="M219.0,144.0,227.0,144.0,235.0,143.5,243.0,143.5,251.5,143.5,260.0,143.0" stroke="black" stroke-width="2" fill="none" />
<path d="M255.5,149.5,263.5,148.5,271.0,144.5" stroke="black" stroke-width="2" fill="none" />
<path d="M226.5,133.5,218.5,140.5,211.0,148.0" stroke="black" stroke-width="2" fill="none" />
<path d="M214.0,144.5,222.0,147.5,230.5,148.5" stroke="black" stroke-width="2" fill="none" />
<path d="M219.5,138.0,227.5,137.5,235.5,137.0,244.0,136.0,252.5,135.5,261.0,135.0,268.5,135.0,276.5,135.0" stroke="black" stroke-width="2" fill="none" />
<path d="M267.5,124.0,259.0,124.0,251.5,124.5,243.5,124.5,236.0,125.0,228.0,125.5,220.5,125.5" stroke="black" stroke-width="2" fill="none" />
<path d="M221.0,130.5,215.0,130.5,208.0,138.5,211.0,146.0,211.0,154.0,214.0,160.5,221.0,165.5,229.0,166.5,235.0,176.0" stroke="black" stroke-width="2" fill="none" />
<path d="M219.5,168.0,211.5,169.0,203.5,169.5,196.0,170.5,188.0,171.5,180.0,172.0" stroke="black" stroke-width="2" fill="none" />
<path d="M181.5,166.0,173.5,168.0" stroke="black" stroke-width="2" fill="none" />
<path d="M179.5,164.0,171.5,171.5,163.0,179.0,154.5,187.0,146.0,195.0,137.5,202.5,129.5,210.0,121.0,217.5,113.0,225.0,105.5,233.0,98.0,241.0" stroke="black" stroke-width="2" fill="none" />
<path d="M99.0,231.5,107.0,224.0,115.0,216.5,123.0,209.0,130.5,202.0,138.5,194.5,146.5,187.0,155.5,180.0,164.0,172.5,171.5,165.0,180.0,157.0" stroke="black" stroke-width="2" fill="none" />
<path d="M180.0,149.0,172.0,156.5,164.0,164.5,156.0,171.5,148.0,179.0,140.5,186.0,132.5,193.5,124.5,201.0,116.0,208.0,108.0,215.5,100.0,223.0,92.5,231.0" stroke="black" stroke-width="2" fill="none" />
<path d="M84.0,229.0,92.0,228.0,99.5,227.5,107.0,226.5,115.0,225.0" stroke="black" stroke-width="2" fill="none" />
<path d="M92.5,221.0,101.0,213.5,108.5,206.0,116.5,199.0,124.0,192.5,132.0,185.0,140.0,178.0,147.5,170.0,155.5,162.5,163.0,155.0,170.5,147.0,178.0,139.5" stroke="black" stroke-width="2" fill="none" />
<path d="M181.0,144.5,172.5,144.5" stroke="black" stroke-width="2" fill="none" />
<path d="M172.5,135.5,165.0,136.0,157.5,137.0,149.5,138.0,141.5,138.5,133.5,139.5" stroke="black" stroke-width="2" fill="none" />
<path d="M124.5,145.5,132.5,145.0,140.0,145.5,148.0,145.0,156.0,144.5" stroke="black" stroke-width="2" fill="none" />
<path d="M149.5,152.0,157.5,151.0,165.5,148.5,173.5,144.5" stroke="black" stroke-width="2" fill="none" />
<path d="M173.0,132.5,165.0,140.0,157.0,148.0,148.5,155.0,140.5,162.0,132.5,169.5,124.5,176.5,116.5,183.5,108.0,190.0,99.5,197.5,91.0,205.0,83.0,212.5,75.0,220.0" stroke="black" stroke-width="2" fill="none" />
<path d="M83.5,219.5,92.0,212.0,100.5,204.5,108.5,197.0,116.5,190.0,124.5,183.0,132.0,175.5,140.0,168.5,148.0,161.0,156.0,153.0,164.0,145.0,171.5,137.0,179.0,129.5" stroke="black" stroke-width="2" fill="none" />
<path d="M179.0,128.0,171.0,128.0,163.5,128.0,155.5,128.5,147.5,129.0,139.5,129.5,131.0,129.5,123.0,129.5,114.5,130.0,106.5,130.5,99.0,131.0,91.0,131.5,82.5,131.5,74.5,132.0" stroke="black" stroke-width="2" fill="none" />
<path d="M75.0,131.0,83.0,142.0,91.5,144.0,99.5,145.0,107.5,144.0,115.5,133.0,124.0,129.5" stroke="black" stroke-width="2" fill="none" />
<path d="M127.5,132.0,119.5,134.0" stroke="black" stroke-width="2" fill="none" />
<path d="M115.5,136.0,107.0,136.0,98.5,136.5,90.5,136.5,82.0,136.5" stroke="black" stroke-width="2" fill="none" />
<path d="M84.0,138.5,92.0,130.5,100.0,122.5,108.0,115.0,116.0,107.0" stroke="black" stroke-width="2" fill="none" />
<path d="M114.0,100.5,106.0,108.0,98.0,116.0,90.0,123.5,82.0,130.5" stroke="black" stroke-width="2" fill="none" />
<path d="M83.0,129.5,91.0,129.0,98.5,128.0,106.5,127.5,115.0,127.5,123.0,127.5,131.0,127.5" stroke="black" stroke-width="2" fill="none" />
<path d="M134.5,123.5,126.5,131.0,118.0,139.0,110.0,147.0" stroke="black" stroke-width="2" fill="none" />
<path d="M116.0,148.0,124.0,151.0,132.0,151.0" stroke="black" stroke-width="2" fill="none" />
<path d="M124.0,153.5,132.5,153.5,140.5,153.5,148.0,153.5,156.0,152.5,164.0,152.0,171.5,152.0,179.0,151.5" stroke="black" stroke-width="2" fill="none" />
<path d="M188.0,163.5,180.5,171.0,172.5,178.5,164.5,186.0,156.0,193.5,147.5,201.0" stroke="black" stroke-width="2" fill="none" />
<path d="M149.0,209.5,157.5,202.0,165.0,194.0,172.5,187.0,180.5,179.5,188.5,172.0,196.0,164.5" stroke="black" stroke-width="2" fill="none" />
<path d="M203.5,163.5,195.5,171.0,187.0,179.0,179.0,187.0,172.0,194.5,164.0,202.0,156.0,209.5,148.0,217.0" stroke="black" stroke-width="2" fill="none" />
<path d="M140.0,218.5,132.0,226.0,123.5,233.5,115.5,241.0,107.0,248.5" stroke="black" stroke-width="2" fill="none" />
<path d="M109.0,256.0,116.5,249.0,124.0,242.0,131.5,234.0,139.5,226.0" stroke="black" stroke-width="2" fill="none" />
<path d="M139.5,211.5,131.0,219.0,123.0,226.0,115.0,233.5,107.5,241.0" stroke="black" stroke-width="2" fill="none" />
<path d="M81.5,253.0,90.0,252.5,98.5,252.0,106.5,251.5,115.0,251.0,123.0,251.0,131.5,250.0,140.0,249.5" stroke="black" stroke-width="2" fill="none" />
<path d="M140.5,273.5,132.5,274.0" stroke="black" stroke-width="2" fill="none" />
<path d="M131.5,280.0,140.0,280.0" stroke="black" stroke-width="2" fill="none" />
<path d="M90.5,284.5,98.5,284.5,107.0,284.0,115.5,283.5,123.5,283.0,131.5,282.0,139.5,282.0,147.5,281.0,155.0,280.5,163.0,280.0,170.5,279.5,178.5,279.5,187.0,279.0,195.5,279.0,204.0,278.5,211.5,277.5,220.0,277.0,228.0,276.0,236.0,275.5,243.5,275.0,251.5,274.5,260.0,274.0,268.0,273.5,276.0,273.5,284.0,274.0" stroke="black" stroke-width="2" fill="none" />
<path d="M337.5,261.0,330.0,262.0,322.0,262.5,314.0,263.0,305.5,263.5,297.5,264.0,289.5,264.0,281.5,264.0,273.5,264.0,265.5,264.5,257.5,265.0,249.5,265.5,241.5,266.0,234.0,266.5,226.5,266.5,218.5,266.5,210.0,266.5,201.5,267.0,194.0,267.5,186.5,268.0,178.5,269.0,170.5,269.5,162.5,270.5,154.5,270.5,146.0,271.0,138.0,271.5,129.5,272.0,122.0,273.0,113.5,273.5,105.0,275.5,97.0,276.5,89.0,278.0,81.0,278.5" stroke="black" stroke-width="2" fill="none" />
<path d="M78.0,285.5,86.0,290.5,94.5,292.5,102.5,293.5,111.0,293.0,119.5,291.0,127.5,288.0,135.5,282.5,135.5,282.0,117.0,290.5" stroke="black" stroke-width="2" fill="none" />
<path d="M81.5,268.5,89.5,267.5,98.0,267.5,106.5,267.0,114.5,267.0,122.5,266.0,130.5,265.5,138.5,265.0,146.5,265.0,154.5,264.5,162.5,264.0,171.0,263.5,179.5,263.0,188.0,262.0,196.0,261.5,203.5,261.0,211.5,260.5,219.5,260.0,227.0,260.0,234.5,260.0,242.5,260.0,250.5,259.0,258.5,258.5,267.0,257.5,275.0,257.0,283.0,256.0,291.0,256.0,299.0,256.0,307.5,256.0,316.0,256.0,324.5,255.0,332.0,254.5,340.0,254.0,347.5,253.0" stroke="black" stroke-width="2" fill="none" />
<path d="M356.0,245.5,348.0,245.5,340.5,245.5,332.5,245.0,325.0,245.5,317.0,246.0,309.5,246.0,301.5,246.5,293.0,247.5,284.5,248.5,276.0,249.5,267.5,250.0,259.5,250.5,251.0,251.5,242.5,252.0,234.5,252.5,226.5,253.0,219.0,253.5,211.5,254.0,204.0,254.0,195.5,254.5,187.0,254.5,179.0,254.5,171.0,255.0,163.0,255.0,155.5,256.0,148.0,256.0,140.0,257.0,132.0,258.0,124.0,259.0,115.5,259.5,107.0,259.0,98.5,259.0,90.0,260.0,82.0,261.0" stroke="black" stroke-width="2" fill="none" />
<path d="M76.0,229.0,84.0,228.0,91.5,227.5,99.0,227.0,107.5,226.5,115.5,225.5,123.5,225.5,132.0,225.0,140.5,225.0,148.5,224.5,156.5,223.5,165.0,223.5,172.5,223.0,180.0,223.0,188.0,223.0,196.0,222.5,204.0,222.5,212.0,222.5,220.5,222.5,229.0,222.0,236.5,221.0,245.0,220.0,252.5,219.0,260.5,218.5,268.5,218.0,276.5,218.0" stroke="black" stroke-width="2" fill="none" />
<path d="M275.5,208.0,267.0,208.5,259.0,209.0,251.0,209.5,243.5,210.0,235.5,210.5,227.5,211.0,219.5,211.5,211.0,212.0,203.5,212.5,195.5,213.0,187.5,213.5,180.0,214.5,172.0,215.5,164.5,216.5,156.5,216.5,148.5,217.0,140.5,218.0,132.5,218.0,125.0,218.5,117.0,219.5,108.5,220.0,100.5,220.5,92.0,220.5,83.5,221.0,75.0,221.5,66.5,222.0" stroke="black" stroke-width="2" fill="none" />
<path d="M66.5,217.0,74.5,216.5,83.0,216.5,91.5,216.5,99.5,216.5,108.0,216.5,116.5,216.0,124.0,215.5,132.0,215.0" stroke="black" stroke-width="2" fill="none" />
<path d="M132.0,195.0,140.0,194.0" stroke="black" stroke-width="2" fill="none" />
<path d="M140.5,177.0,148.5,176.5,156.5,176.0,164.5,176.0" stroke="black" stroke-width="2" fill="none" />
<path d="M173.0,176.5,181.5,176.0,189.5,176.0,197.0,175.5,205.0,174.5,213.0,174.5,220.5,174.0,229.0,174.0" stroke="black" stroke-width="2" fill="none" />
<path d="M231.0,181.5,223.0,187.5,215.5,187.5" stroke="black" stroke-width="2" fill="none" />
<path d="M212.5,182.0,204.5,182.5,196.5,182.5,188.5,183.5,181.0,184.0,173.5,185.0,165.5,186.0,157.5,186.5" stroke="black" stroke-width="2" fill="none" />
<path d="M173.5,168.0,165.5,169.0,157.5,169.5,149.0,170.0,141.0,171.0,133.0,171.0" stroke="black" stroke-width="2" fill="none" />
<path d="M134.0,175.5,126.0,171.5,118.0,169.0" stroke="black" stroke-width="2" fill="none" />
<path d="M124.5,163.0,132.5,162.5,140.5,162.0,148.5,161.5,156.0,160.5,164.0,160.5,171.5,159.5,179.5,159.0" stroke="black" stroke-width="2" fill="none" />
<path d="M185.0,144.5,177.0,145.0,169.0,145.5,161.0,146.0,153.5,147.0,146.5,147.5,139.0,148.0,131.5,148.0,124.0,148.0,116.5,148.5,109.0,149.0,101.5,149.0" stroke="black" stroke-width="2" fill="none" />
<path d="M101.5,146.0,109.5,138.0,117.0,130.5,125.0,123.0,132.5,115.0" stroke="black" stroke-width="2" fill="none" />
<path d="M132.0,107.0,124.5,115.0,117.0,122.0,109.0,129.5,101.0,137.0,93.0,144.5" stroke="black" stroke-width="2" fill="none" />
<path d="M93.0,139.0,101.0,130.5,109.0,122.5,116.5,114.5,124.0,107.0" stroke="black" stroke-width="2" fill="none" />
<path d="M123.0,108.5,131.5,109.0" stroke="black" stroke-width="2" fill="none" />
<path d="M131.0,119.0,123.0,120.5,115.5,121.5,108.0,122.0,100.0,123.5" stroke="black" stroke-width="2" fill="none" />
<path d="M105.5,120.0,113.5,118.5,121.5,116.0" stroke="black" stroke-width="2" fill="none" />
<path d="M124.5,110.5,116.5,111.5,108.0,112.0,99.5,112.0,91.5,112.0,83.0,112.5" stroke="black" stroke-width="2" fill="none" />
<path d="M84.5,107.0,76.0,115.0" stroke="black" stroke-width="2" fill="none" />
<path d="M77.0,118.0,85.0,117.5,92.5,116.5,100.0,116.0,107.0,115.0,115.0,114.5,123.5,114.0,132.0,113.5,140.5,113.0" stroke="black" stroke-width="2" fill="none" />
<path d="M140.5,124.5,132.5,131.5,124.5,139.0,117.0,146.0" stroke="black" stroke-width="2" fill="none" />
<path d="M116.0,153.5,124.0,146.0,132.5,138.0,141.0,130.5" stroke="black" stroke-width="2" fill="none" />
<path d="M146.5,129.5,138.5,137.0,130.0,145.0,122.0,152.5,114.0,160.0,106.0,168.0,98.0,176.0,90.5,184.0,82.5,192.0,75.5,200.0,67.5,208.0" stroke="black" stroke-width="2" fill="none" />
<path d="M66.0,211.0,74.0,210.5,82.5,210.0,91.0,209.5,99.0,208.5,107.0,208.5,115.5,208.0,124.5,208.0,133.0,207.5,141.5,207.0" stroke="black" stroke-width="2" fill="none" />
<path d="M140.5,198.5,132.5,199.0,124.0,199.0,116.0,199.0,108.5,199.0,100.0,199.0,91.5,199.0,83.5,199.5,75.5,200.5,67.5,201.5" stroke="black" stroke-width="2" fill="none" />
<path d="M66.0,202.0,74.0,194.0,82.5,186.0,91.0,178.5,99.0,171.0,107.0,164.0" stroke="black" stroke-width="2" fill="none" />
<path d="M101.5,162.0,93.5,169.0,85.5,177.0,77.0,184.5,68.5,192.5" stroke="black" stroke-width="2" fill="none" />
<path d="M69.0,192.0,77.0,191.5" stroke="black" stroke-width="2" fill="none" />
<path d="M82.0,195.0,90.0,194.0,98.5,193.5,106.5,193.0" stroke="black" stroke-width="2" fill="none" />
<path d="M108.5,193.5,116.5,193.5,125.0,191.0,123.0,192.0" stroke="black" stroke-width="2" fill="none" />
<path d="M121.5,186.0,130.0,190.0" stroke="black" stroke-width="2" fill="none" />
<path d="M125.0,182.0,117.0,182.5,109.5,183.0,101.5,183.5,93.5,183.5,85.0,184.0,76.5,184.0,68.5,184.5" stroke="black" stroke-width="2" fill="none" />
<path d="M68.5,186.0,76.5,179.5,85.0,172.0" stroke="black" stroke-width="2" fill="none" />
<path d="M79.5,168.0,62.5,175.5,56.0,183.5,58.0,191.5,61.0,199.5,62.0,207.0,64.0,215.5,70.5,223.5,72.5,232.5,74.0,241.0,75.0,248.5,76.0,257.0,76.5,265.0,77.5,273.0,77.5,281.5,81.5,289.5" stroke="black" stroke-width="2" fill="none" />
<path d="M76.0,213.5,83.5,206.0,91.5,198.5,99.0,190.5,107.5,183.0,115.5,176.0,123.5,169.0,132.0,162.0,140.0,155.0,148.0,148.0,157.0,140.5,165.0,133.0" stroke="black" stroke-width="2" fill="none" />
<path d="M168.5,133.5,172.5,144.5" stroke="black" stroke-width="2" fill="none" />
<path d="M177.5,137.5,169.0,132.0" stroke="black" stroke-width="2" fill="none" />
<path d="M170.5,127.0,172.5,132.0,183.5,136.0" stroke="black" stroke-width="2" fill="none" />
<path d="M187.5,136.5,180.0,137.5,172.0,138.5,164.0,139.0,156.0,139.0,148.0,139.5,140.0,140.0,131.5,140.5,123.5,140.5,115.0,140.5,107.0,140.5,98.5,140.5,90.5,140.5,83.0,141.0" stroke="black" stroke-width="2" fill="none" />
<path d="M76.5,128.5,85.0,120.5,92.5,112.5,100.0,105.0,108.0,97.0" stroke="black" stroke-width="2" fill="none" />
<path d="M100.5,99.0,92.5,106.0,84.5,113.5,77.0,121.0" stroke="black" stroke-width="2" fill="none" />
<path d="M75.5,126.0,84.0,125.5,91.5,124.5,99.5,124.0,108.0,124.0,116.0,123.5,124.5,123.0,132.5,122.0,141.0,121.5,149.5,122.0,157.5,121.5,165.5,121.0" stroke="black" stroke-width="2" fill="none" />
<path d="M161.5,129.5,169.5,130.5,177.5,133.5" stroke="black" stroke-width="2" fill="none" />
<path d="M158.0,134.0,149.5,141.0,141.0,148.0,132.5,155.0,124.0,162.5,115.5,169.5,107.5,176.5,99.0,183.0,90.5,190.0,82.5,197.0,74.0,204.5,66.0,212.0" stroke="black" stroke-width="2" fill="none" />
<path d="M67.0,213.5,75.0,213.5,83.0,213.5,91.0,213.0,99.0,212.5,106.5,212.0,115.0,211.5,123.5,211.0,132.0,211.0,140.5,211.0,149.0,210.0,157.0,210.0,165.0,209.0,173.5,208.5,181.5,208.0,189.5,207.0,197.0,206.0,204.0,205.0,211.5,204.5,219.0,204.5,227.0,204.0,235.5,203.5,243.0,202.5,251.5,201.5,259.5,200.0,267.0,199.5,275.0,199.5" stroke="black" stroke-width="2" fill="none" />
<path d="M276.5,160.0,267.5,161.0,259.5,162.0,251.0,162.5,242.5,163.5,234.5,164.5,226.5,165.0,218.5,166.0,210.5,166.5,203.0,167.0,195.5,167.5,188.5,168.0,181.0,168.0,173.0,168.0,165.0,168.0,157.0,169.0,149.0,169.5,141.0,170.0,133.5,170.0,125.5,170.5,118.0,171.0,110.5,171.0,102.0,171.5,93.5,171.5,85.5,171.0,77.5,171.0,69.5,171.5" stroke="black" stroke-width="2" fill="none" />
<path d="M75.0,173.5,62.5,181.5,59.5,189.0,59.0,183.5,67.0,178.0,75.0,174.0" stroke="black" stroke-width="2" fill="none" />
<path d="M75.0,177.0,83.0,176.0,90.0,176.0,97.5,176.0,105.0,176.0,113.5,176.0,121.0,175.0" stroke="black" stroke-width="2" fill="none" />
<path d="M127.0,173.5,130.5,181.0,134.0,182.5,145.5,179.5" stroke="black" stroke-width="2" fill="none" />
<path d="M101.0,158.5,109.0,158.0,117.0,157.0,125.0,157.0,133.0,157.0,140.5,157.0,147.5,156.5,155.0,156.0,162.5,155.5,170.5,155.0,178.5,154.0,186.5,153.5,194.5,152.5,203.0,151.5,211.5,151.0,219.5,150.0,228.5,149.0,237.0,148.5,245.0,147.5,252.5,147.0,260.0,146.5,268.0,146.5,276.5,146.0,284.5,146.0" stroke="black" stroke-width="2" fill="none" />
<path d="M285.5,136.5,277.0,137.5,269.0,138.5,260.5,138.5,252.0,138.5,243.5,139.0,235.5,139.0,227.0,139.0,219.0,139.5,211.0,140.0" stroke="black" stroke-width="2" fill="none" />
<path d="M209.5,140.0,217.5,132.5" stroke="black" stroke-width="2" fill="none" />
<path d="M212.0,134.5,219.5,133.5,227.0,133.0,234.5,132.5,242.0,132.5,250.5,132.0,258.5,131.5,266.5,130.0,274.5,128.5,283.0,127.5" stroke="black" stroke-width="2" fill="none" />
<path d="M275.0,153.0,267.0,153.5,259.0,153.5,251.0,154.0,243.5,154.0,235.0,154.5,226.5,155.0,218.0,155.5,210.0,156.5,202.5,157.5,194.0,158.5,186.5,159.5,179.0,160.5,171.0,161.0,163.0,162.0,155.0,162.5,147.5,163.0,139.5,163.5,131.0,164.0,123.0,164.5,115.0,164.5,107.0,165.0,98.5,165.0,90.0,165.0,81.5,165.0" stroke="black" stroke-width="2" fill="none" />
<path d="M84.5,142.5,76.5,134.5,74.5,126.5,73.5,118.5,70.0,110.5,79.0,102.0,82.0,105.5" stroke="black" stroke-width="2" fill="none" />
<path d="M84.5,103.5,92.5,102.5,101.0,102.5,109.5,102.0,117.5,101.0,125.5,100.5,133.5,99.5" stroke="black" stroke-width="2" fill="none" />
<path d="M140.0,104.5,132.5,105.0,125.0,105.5,117.0,106.0,109.0,107.0,101.0,108.0,92.5,109.0,84.0,110.5,76.0,111.0" stroke="black" stroke-width="2" fill="none" />
<path d="M71.5,109.5,79.0,104.5,87.0,101.5,94.5,99.5,102.5,98.0,110.5,98.0,119.0,98.5,127.0,100.5,135.5,103.5" stroke="black" stroke-width="2" fill="none" />
<path d="M129.5,104.5,121.5,102.0" stroke="black" stroke-width="2" fill="none" />
<path d="M112.5,114.0,120.5,115.0,128.0,113.5,131.0,110.5,135.5,110.0,134.5,118.0,135.5,125.5,144.0,125.0,151.5,125.0,159.5,124.5,167.5,125.5,175.5,127.5,182.5,134.0,182.0,142.0,182.0,150.5,182.5,159.0,174.5,167.5,165.5,171.0,163.0,179.0,169.0,169.0,177.0,164.0,186.0,161.0,193.5,160.5,201.5,159.0,209.0,159.0,219.5,160.5,227.5,162.5,235.5,166.5" stroke="black" stroke-width="2" fill="none" />
<path d="M232.0,175.5,235.5,171.5,222.0,163.5" stroke="black" stroke-width="2" fill="none" />
<path d="M222.0,145.0,214.0,141.5" stroke="black" stroke-width="2" fill="none" />
<path d="M207.0,135.5,215.0,127.5,223.0,125.5,231.0,124.0,239.5,124.0,247.5,123.5,255.5,124.5,263.5,125.5,271.5,127.5,279.0,133.5,278.0,139.5,278.0,147.5,278.5,156.0,276.5,164.0,270.5,172.5,260.5,176.5,269.0,173.0,277.0,164.0,289.5,160.5,297.5,157.5,305.5,155.5,314.0,154.5,322.0,153.5,330.0,154.5,338.0,155.5,346.0,157.0,353.5,160.0" stroke="black" stroke-width="2" fill="none" />
<path d="M276.5,192.5,268.0,192.5,260.0,193.0,251.0,194.0,242.5,194.0,234.0,195.0,225.0,195.5,217.0,196.0,209.0,196.5,201.0,197.0,193.5,198.0,186.5,198.5,179.0,199.0,171.5,199.0,164.0,199.0,156.5,199.5,149.0,200.0,141.5,200.0,133.5,201.0,125.0,201.5,117.0,202.0,109.0,201.5,101.0,202.0,93.0,202.5,84.5,203.0,76.5,204.0,68.0,204.5,60.0,205.5" stroke="black" stroke-width="2" fill="none" />
<path d="M60.0,198.5,68.0,198.5,77.0,198.5,85.0,198.0,92.5,197.5,101.0,197.0,108.5,196.5,116.5,196.0,124.5,195.5,132.5,195.0,140.0,194.5,148.0,193.0,155.5,192.5,163.0,191.5,171.0,190.0,178.5,189.5,187.0,189.0,195.0,188.5,203.0,188.0,210.5,187.0,218.5,187.0,226.5,186.5,234.5,186.0,243.0,186.0,251.5,186.5,260.0,186.0,268.0,185.5,276.5,185.0" stroke="black" stroke-width="2" fill="none" />
<path d="M235.0,209.0,224.5,217.0" stroke="black" stroke-width="2" fill="none" />
<path d="M131.0,218.0,127.0,221.5,119.0,225.5,111.0,227.5,103.0,229.0,95.0,230.0,87.0,230.5,79.5,228.5,71.5,226.0,63.5,215.0" stroke="black" stroke-width="2" fill="none" />
<path d="M56.5,185.0,64.5,177.0,72.0,173.0,80.0,169.5,87.5,167.0,96.0,166.0,103.5,165.0,111.5,163.5,115.5,167.5,123.5,167.0,132.0,170.5" stroke="black" stroke-width="2" fill="none" />
<path d="M113.5,137.0,108.5,145.0,117.0,147.5,115.0,155.0,116.0,163.0,119.0,166.5,134.0,171.5,135.5,177.5,140.5,180.5,138.0,188.0,138.0,196.0,139.5,204.5,136.5,212.5,136.5,220.5,137.5,228.5,138.0,236.5,138.0,245.0,138.5,253.0,138.0,261.0,139.0,269.0,144.5,269.0" stroke="black" stroke-width="2" fill="none" />
<path d="M90.5,121.5,83.0,122.0" stroke="black" stroke-width="2" fill="none" />
<path d="M406.5,62.0,413.5,70.0,416.5,78.0,417.5,86.5,418.5,95.0,419.0,103.0,419.5,111.5,420.5,119.5,420.0,129.5,431.0,138.0,437.0,147.0,436.0,154.5" stroke="black" stroke-width="2" fill="none" />
</svg>