<svg xmlns="http://www.w3.org/2000/svg" version="1.1"><path d="M247.0,129.5,241.0,137.5,239.0,145.5,238.0,154.0,236.5,162.0,234.5,170.0,233.0,178.0,230.0,186.0,227.5,194.5,226.5,202.5,224.5,211.0,223.5,218.5,221.5,226.0,220.5,233.5,218.5,241.0,218.0,249.0,216.0,256.5,215.0,264.5,214.0,272.5,210.5,280.5,195.5,289.0,193.5,296.5,191.5,304.5,190.5,312.5,188.0,320.5,187.0,328.0,186.0,336.5,184.5,344.5,183.5,353.0,182.0,361.0,181.0,369.5,180.0,377.5,179.0,385.0,178.0,393.0,177.0,401.0,176.0,409.5,175.0,418.0,174.0,426.0,173.0,434.0" stroke="black" stroke-width="2" fill="none" />
<path d="M196.5,436.5,197.5,444.5,197.0,436.5" stroke="black" stroke-width="2" fill="none" />
<path d="M201.5,432.0,210.5,424.5,219.0,417.5,227.5,409.5,236.0,402.0,244.0,394.0,252.5,386.5,260.5,378.5,268.5,371.0" stroke="black" stroke-width="2" fill="none" />
<path d="M273.5,372.0,265.5,379.5,257.5,387.0,249.5,394.0,242.0,401.0,234.5,408.0,227.5,415.5,220.0,422.5,212.5,429.5" stroke="black" stroke-width="2" fill="none" />
<path d="M213.5,434.5,221.5,434.0,229.5,433.5,238.0,433.0,245.5,433.0,254.0,433.0,261.5,432.5,269.0,432.5,276.5,432.0,284.0,431.0,292.0,430.5" stroke="black" stroke-width="2" fill="none" />
<path d="M289.5,427.5,282.0,435.0,274.5,443.5,267.0,451.0,259.0,458.5,251.0,466.0,242.5,474.0,234.0,482.0" stroke="black" stroke-width="2" fill="none" />
<path d="M236.0,479.5,244.0,479.0,251.5,478.0,259.5,477.0,268.0,476.0,275.5,474.5,283.5,473.5,291.0,473.0,299.0,472.0" stroke="black" stroke-width="2" fill="none" />
<path d="M289.5,476.0,281.5,483.5,273.5,490.5,266.0,497.5,259.0,505.0" stroke="black" stroke-width="2" fill="none" />
<path d="M259.0,496.5,266.5,488.5,274.5,480.5,282.5,472.5,290.5,465.0" stroke="black" stroke-width="2" fill="none" />
<path d="M283.0,468.0,275.0,476.0,267.0,483.5,259.0,491.5,251.5,499.5" stroke="black" stroke-width="2" fill="none" />
<path d="M258.0,495.5,263.5,503.0,270.0,511.5" stroke="black" stroke-width="2" fill="none" />
<path d="M267.5,508.0,275.0,500.0,282.5,492.5" stroke="black" stroke-width="2" fill="none" />
<path d="M278.5,494.5,286.5,496.5" stroke="black" stroke-width="2" fill="none" />
<path d="M277.0,495.5,269.5,495.5,261.5,496.0" stroke="black" stroke-width="2" fill="none" />
<path d="M268.0,506.5,276.0,505.5" stroke="black" stroke-width="2" fill="none" />
<path d="M274.5,508.0,266.5,515.5" stroke="black" stroke-width="2" fill="none" />
<path d="M269.5,532.0,261.0,532.5,253.0,533.0,244.5,533.0" stroke="black" stroke-width="2" fill="none" />
<path d="M244.0,525.0,252.5,525.0,261.0,524.0,269.0,523.5" stroke="black" stroke-width="2" fill="none" />
<path d="M278.0,540.5,270.0,541.0,262.0,541.0,254.5,541.0,246.5,541.5" stroke="black" stroke-width="2" fill="none" />
<path d="M236.0,550.0,244.5,549.5,253.0,549.0,261.0,548.0,269.0,547.5,276.5,547.5" stroke="black" stroke-width="2" fill="none" />
<path d="M259.5,554.5,252.0,562.0,244.0,570.0,236.5,577.5,229.0,585.5,221.5,593.0,212.5,601.0" stroke="black" stroke-width="2" fill="none" />
<path d="M218.5,602.0,227.0,601.5,235.5,600.5,243.5,600.0,252.0,599.5,260.5,598.5,269.0,597.5,277.5,596.5,285.5,596.0" stroke="black" stroke-width="2" fill="none" />
<path d="M287.0,594.5,295.0,607.5,303.0,606.5,311.5,601.0,319.5,592.0,328.0,581.0,335.5,564.5" stroke="black" stroke-width="2" fill="none" />
<path d="M341.0,566.0,349.0,565.5,357.0,565.0,365.0,564.5,372.5,564.5,379.5,564.5,387.5,563.5,395.0,562.5,402.5,561.5,410.5,561.5,418.5,561.0,426.5,560.5,434.5,559.5,443.0,559.0,451.5,558.0,459.5,557.5,467.5,557.5,475.0,557.0,483.0,557.0,491.0,557.5,499.0,557.5,507.0,557.0,515.5,556.5" stroke="black" stroke-width="2" fill="none" />
<path d="M469.5,555.5,461.5,563.5,453.5,571.0,445.0,578.0,436.5,585.0,428.0,592.0,419.5,599.5,411.5,607.5,403.0,615.5,394.0,623.0,385.5,630.5,377.5,638.0,370.5,645.0,362.5,652.5,355.0,659.5" stroke="black" stroke-width="2" fill="none" />
<path d="M363.0,659.5,370.5,651.5,378.5,644.0,386.5,636.5,394.5,628.5,402.5,621.5,411.0,614.5,419.0,607.0,427.5,600.0,436.0,593.0,444.5,586.0,452.5,578.0,461.0,570.5,469.0,562.5" stroke="black" stroke-width="2" fill="none" />
<path d="M469.5,548.0,462.0,555.5,453.5,563.0,445.5,570.5,437.5,577.5,429.0,585.5,420.5,592.5,411.0,600.5,402.0,608.0,393.5,615.5,385.0,622.5,377.5,630.0,370.0,637.5,362.5,645.0,355.0,652.0,347.5,660.0,339.5,667.0" stroke="black" stroke-width="2" fill="none" />
<path d="M332.0,666.5,340.0,659.0,347.5,651.5,355.0,644.5,363.5,636.5,372.0,629.0,380.5,622.0,388.0,614.0,396.0,606.5,404.5,599.0,412.5,591.5,421.0,584.0,428.5,576.5,436.0,568.5,443.5,561.0,451.0,554.0,459.5,547.0" stroke="black" stroke-width="2" fill="none" />
<path d="M460.0,539.5,452.0,547.0,443.5,554.0,435.5,561.5,428.0,569.0,419.5,576.0,412.0,583.5,404.0,591.5,396.0,599.0,387.5,607.0,379.5,614.5,371.0,622.5,363.5,629.0,356.0,636.0,348.5,643.5,341.0,650.5,333.0,657.5,325.0,665.0" stroke="black" stroke-width="2" fill="none" />
<path d="M329.0,666.0,337.0,665.5,346.0,665.0" stroke="black" stroke-width="2" fill="none" />
<path d="M371.0,661.0,378.5,653.5,387.0,646.0,395.0,638.0,403.5,631.0,412.0,623.5,419.5,616.0,428.0,609.0,435.5,601.0,443.5,594.0,451.0,587.0,459.0,580.0" stroke="black" stroke-width="2" fill="none" />
<path d="M458.0,589.0,450.0,596.0,442.5,603.0,435.0,610.5,427.5,618.0,419.5,625.0,411.0,632.0,403.0,639.0,395.0,647.0,387.0,655.0" stroke="black" stroke-width="2" fill="none" />
<path d="M409.5,648.5,417.5,641.0,425.5,634.0,434.0,627.0,442.0,620.0,450.0,612.0,458.0,604.5" stroke="black" stroke-width="2" fill="none" />
<path d="M458.5,612.0,450.0,619.5,442.0,627.0,434.0,634.5,426.5,642.5,419.0,650.5" stroke="black" stroke-width="2" fill="none" />
<path d="M394.5,656.0,402.5,649.0,411.0,642.0,419.5,634.5,427.5,627.5,436.0,620.0,444.5,613.0,452.5,605.5,461.0,597.5" stroke="black" stroke-width="2" fill="none" />
<path d="M449.0,627.0,441.0,634.5,433.5,642.0" stroke="black" stroke-width="2" fill="none" />
<path d="M412.0,677.0,404.0,678.0,396.0,679.0" stroke="black" stroke-width="2" fill="none" />
<path d="M394.5,697.0,391.5,705.0,387.5,712.5,385.0,716.5,393.0,700.0" stroke="black" stroke-width="2" fill="none" />
<path d="M392.5,704.5,391.0,712.5,388.0,717.5,395.5,704.5" stroke="black" stroke-width="2" fill="none" />
<path d="M322.0,658.5,330.0,650.5,338.0,643.5,346.0,636.0,354.5,629.0,362.0,621.5,370.0,614.0,378.0,606.0,386.0,598.0,394.5,590.5,403.0,582.5,411.5,575.0,419.5,567.5,427.5,560.0,435.0,552.5,443.0,545.5" stroke="black" stroke-width="2" fill="none" />
<path d="M442.0,538.5,434.0,546.0,426.5,553.5,418.5,561.0,411.0,567.5,403.0,575.0,395.0,583.0,387.0,590.5,378.5,598.0,370.5,605.0,362.5,612.0,355.0,620.5,347.0,628.5,339.0,636.5,331.0,644.0,323.5,651.5" stroke="black" stroke-width="2" fill="none" />
<path d="M323.0,650.0,322.0,658.0,315.5,666.5,303.5,674.5" stroke="black" stroke-width="2" fill="none" />
<path d="M300.5,667.0,307.5,660.0,315.0,652.5,323.0,645.0,331.5,637.5,339.5,629.5,347.0,621.5,355.0,613.5,363.0,606.5,371.0,600.0,379.5,593.0,387.0,585.0,395.0,577.5,403.0,570.0,411.0,562.5,418.5,555.0,425.5,547.5,433.5,540.0" stroke="black" stroke-width="2" fill="none" />
<path d="M428.0,541.0,420.0,548.5,412.0,555.5,404.0,563.0,396.5,570.5,389.5,578.0,381.0,585.5,372.5,593.0,364.0,600.5,355.5,608.0,347.0,615.5,339.5,623.0,331.0,631.0,323.0,638.5,315.0,646.0,307.0,653.0,299.5,660.5,292.5,667.5,285.0,674.5" stroke="black" stroke-width="2" fill="none" />
<path d="M283.0,677.5,275.5,678.5,268.0,679.5,260.0,680.5,252.0,681.5,243.5,682.0,235.5,682.5" stroke="black" stroke-width="2" fill="none" />
<path d="M251.5,684.5,259.5,677.0,267.0,670.0,275.0,662.5,283.5,655.0,291.5,648.0,299.5,640.0,307.5,631.5,315.5,624.0,323.5,616.5,331.5,609.5,339.5,602.0,347.5,594.5,356.0,587.5,364.0,580.0,371.5,572.5" stroke="black" stroke-width="2" fill="none" />
<path d="M355.0,581.0,347.0,588.0,338.5,594.5,330.5,601.5,323.0,609.0,315.5,616.0,308.0,623.5,300.5,631.0,293.0,639.0,285.0,646.0,277.0,653.5,269.0,661.5,260.5,669.0,252.5,677.0,244.0,684.0" stroke="black" stroke-width="2" fill="none" />
<path d="M270.0,681.0,277.5,674.0,285.5,666.5,293.0,660.0,301.5,652.5,309.5,645.5,317.5,638.5,326.0,631.5,334.0,624.0,342.0,616.5,350.0,609.0,358.0,602.0,365.5,594.5,373.0,586.5,380.0,579.0,386.5,571.5,394.0,564.0,401.5,556.5,409.5,549.0" stroke="black" stroke-width="2" fill="none" />
<path d="M403.0,545.0,395.0,553.0,387.0,561.0,379.0,569.0,371.0,577.0,362.5,585.5,354.5,593.0,346.5,600.0,338.5,607.5,330.5,615.5,322.5,623.0,314.5,631.0,306.5,638.0,298.5,645.0,290.5,652.5,283.0,660.0,276.0,666.5,268.5,673.5,261.0,680.5" stroke="black" stroke-width="2" fill="none" />
<path d="M277.5,680.5,285.5,678.5,293.5,676.5,301.0,673.0,309.0,669.0,317.0,661.5,322.0,653.5,316.5,661.0,306.5,668.5" stroke="black" stroke-width="2" fill="none" />
<path d="M298.0,668.5,290.0,669.0,281.5,669.5,273.5,670.0,265.5,670.0,257.5,670.0,249.5,670.0,241.5,670.5,233.5,671.0,225.5,671.5,217.5,672.0" stroke="black" stroke-width="2" fill="none" />
<path d="M209.5,677.0,217.5,669.5,225.0,662.5,233.5,655.5,242.0,649.0,250.0,642.5,258.5,635.0,266.5,627.0,274.5,619.5,283.0,612.0,291.0,604.5" stroke="black" stroke-width="2" fill="none" />
<path d="M290.5,597.5,282.5,605.0,274.5,611.5,266.5,618.5,259.0,626.0,251.0,633.0,242.5,640.5,235.0,647.5,226.5,655.5,218.0,663.0,209.5,671.0,201.5,678.5" stroke="black" stroke-width="2" fill="none" />
<path d="M204.5,675.5,197.0,683.0" stroke="black" stroke-width="2" fill="none" />
<path d="M188.5,681.0,197.0,674.0,204.5,667.5,212.5,660.0,220.5,652.5,228.5,645.0,237.0,637.0" stroke="black" stroke-width="2" fill="none" />
<path d="M244.5,636.0,236.5,643.5,228.5,651.0,220.0,659.0,212.0,667.0" stroke="black" stroke-width="2" fill="none" />
<path d="M204.0,664.0,212.0,664.0,220.0,663.5,228.0,663.5,237.0,663.5,245.5,663.5,253.5,663.5,261.0,663.0,269.0,663.0,277.0,662.5,285.0,662.0,293.0,661.5,300.5,661.0,307.5,660.5,315.0,660.0" stroke="black" stroke-width="2" fill="none" />
<path d="M300.0,634.0,307.5,633.5,315.5,633.0,323.5,632.5,332.0,632.0,340.0,631.5,347.5,630.5,355.5,629.5,363.5,629.0,371.5,628.5,380.0,628.5,387.5,627.5,395.5,626.5,403.0,626.0,411.0,625.0" stroke="black" stroke-width="2" fill="none" />
<path d="M410.5,615.0,402.5,616.0,395.0,617.0,387.0,617.0,379.5,617.5,371.5,617.5,364.0,618.0" stroke="black" stroke-width="2" fill="none" />
<path d="M339.5,586.5,331.5,594.5,323.5,602.5,315.5,610.5,307.5,618.0" stroke="black" stroke-width="2" fill="none" />
<path d="M307.5,624.0,315.5,623.5" stroke="black" stroke-width="2" fill="none" />
<path d="M324.0,626.5,331.5,626.0,339.5,625.5,347.0,625.0,355.0,624.5,363.0,624.0,371.0,623.5,378.5,622.5,386.5,621.5,394.5,621.5,402.0,620.5,411.0,620.0,419.5,619.5" stroke="black" stroke-width="2" fill="none" />
<path d="M329.5,581.5,338.0,581.5,346.5,581.5,355.0,581.0,363.0,579.5,371.5,578.5,379.5,578.0,387.5,577.5,396.0,576.5,404.0,575.5,412.0,575.0,420.0,574.5,427.5,574.0,435.5,573.5,443.5,573.0,452.0,573.0,459.5,573.5,467.5,573.0,476.0,573.0,484.0,572.0,492.5,571.5,500.5,571.5,508.0,571.5,515.5,571.0" stroke="black" stroke-width="2" fill="none" />
<path d="M468.5,456.5,460.0,457.0,452.0,457.5,443.5,458.0,435.5,459.5,427.5,460.5,419.5,461.5,411.0,461.5" stroke="black" stroke-width="2" fill="none" />
<path d="M395.5,470.0,403.5,469.0,411.5,468.0,419.0,467.0,426.5,466.0,434.5,465.0,442.5,464.5,450.5,464.5,458.5,464.0,467.0,464.0,475.5,463.5" stroke="black" stroke-width="2" fill="none" />
<path d="M491.5,470.0,483.5,471.5,474.5,471.5,466.0,472.0,458.5,472.5,450.5,473.0,442.5,473.0,434.5,473.5,427.0,474.0,419.0,474.5,411.5,475.0,403.5,475.0,395.5,475.5,387.5,475.5" stroke="black" stroke-width="2" fill="none" />
<path d="M382.5,485.0,389.5,484.5,397.0,484.0,404.5,483.0,412.5,483.0,420.0,482.5,428.5,482.5,436.0,482.0,444.0,482.0,452.0,482.0,460.0,482.0,467.5,481.0,475.5,480.5,483.5,480.0,491.5,479.0,499.0,478.5" stroke="black" stroke-width="2" fill="none" />
<path d="M507.0,484.5,499.0,485.5,491.5,486.5,483.0,487.5,475.0,488.0,467.0,488.5,459.0,489.5,450.5,490.5,442.5,490.5,435.0,490.5,427.5,490.5,419.0,491.0,410.5,491.5,403.0,492.0,395.0,492.5,387.5,492.5,380.0,493.5,372.5,494.0" stroke="black" stroke-width="2" fill="none" />
<path d="M363.5,502.0,372.0,501.5,380.0,501.0,388.5,500.5,397.0,500.0,405.0,499.0,412.5,498.5,420.5,497.5,428.5,497.5,437.0,497.0,444.5,496.5,453.0,496.0,460.5,495.5,468.0,495.0,476.0,494.5,484.0,494.0,492.0,493.0,500.0,492.5,508.0,492.0,516.0,491.0" stroke="black" stroke-width="2" fill="none" />
<path d="M517.0,499.0,508.5,499.0,500.0,499.5,492.0,500.0,484.5,500.5,476.5,501.0,468.5,502.0,460.5,503.0,452.0,504.0,443.5,505.0,435.0,505.5,427.5,506.0,420.0,506.0,412.0,506.5,404.0,506.5,396.5,507.0,388.0,507.0,379.5,508.0,371.0,508.0,363.0,508.0,354.5,508.0" stroke="black" stroke-width="2" fill="none" />
<path d="M348.0,516.5,356.0,516.0,364.0,516.0,371.5,516.0,379.0,516.0,386.5,516.0,394.5,515.5,402.5,514.5,410.5,514.0,418.5,512.5,426.5,512.0,435.0,512.0,443.5,512.0,452.0,511.5,460.5,511.5,468.5,511.0,476.5,510.5,484.5,509.5,492.5,508.5,500.5,508.0,508.0,507.5,516.0,507.0" stroke="black" stroke-width="2" fill="none" />
<path d="M514.5,538.0,506.5,539.0,498.5,539.0,491.0,538.5,483.0,539.0,474.5,540.0,467.0,541.0,459.0,541.5,452.0,541.5,444.0,542.0,435.5,542.5,427.5,543.0,419.5,544.0,411.5,544.5,404.0,545.5,396.0,546.5,388.5,547.5,380.0,547.5,372.0,548.0,364.0,548.5,355.5,549.5,347.5,550.0" stroke="black" stroke-width="2" fill="none" />
<path d="M346.5,541.5,355.5,541.0,364.0,540.5,372.0,540.0,379.5,539.5,387.5,539.0,396.0,538.0,404.0,537.5,412.5,536.5,421.0,536.0,428.5,535.0,437.0,534.5,444.0,534.5,451.5,533.5,458.5,533.0,466.0,533.0,473.5,532.5,481.0,532.0,488.5,531.5,497.0,530.5,505.0,530.5,513.5,530.0" stroke="black" stroke-width="2" fill="none" />
<path d="M514.0,522.5,505.5,523.0,498.0,523.5,490.5,524.5,482.5,525.0,474.5,525.5,467.0,525.5,459.0,526.0,451.0,526.5,443.5,527.0,436.5,526.5,429.0,527.0,421.0,527.5,412.0,529.0,403.5,530.0,395.5,530.5,387.5,531.0,379.5,532.0,372.0,532.5,364.0,532.5,356.0,532.5,347.5,533.0" stroke="black" stroke-width="2" fill="none" />
<path d="M346.5,525.5,355.0,524.5,363.5,524.0,371.5,523.5,379.5,523.0,387.5,522.5,395.5,522.5,403.0,522.0,411.0,521.5,419.0,520.5,427.0,520.0,435.0,520.0,443.0,520.5,451.5,520.0,460.0,519.5,468.5,519.0,476.5,518.5,484.5,518.0,492.0,517.0,500.0,516.0,508.0,515.5,516.0,515.5" stroke="black" stroke-width="2" fill="none" />
<path d="M517.0,548.0,509.0,548.5,501.0,548.5,493.5,549.0,485.0,549.5,476.5,549.5,468.0,550.0,460.0,550.5,451.0,550.5,442.5,550.5,434.5,550.5,426.5,550.5,418.5,550.5,410.5,551.5,403.0,552.5,395.0,553.5,387.5,555.0,379.5,556.0,371.5,556.5,363.5,556.5,355.5,557.0,348.0,558.0,340.5,559.0" stroke="black" stroke-width="2" fill="none" />
<path d="M331.0,575.0,339.0,574.5,347.5,573.5,355.5,572.5,364.5,572.5,372.5,572.0,380.0,571.0,387.5,570.0,395.0,569.0,403.0,568.5,411.0,568.0,419.0,567.0,427.0,567.0,435.0,567.0,443.0,567.0,450.5,566.5,458.5,566.5,466.0,566.0,474.0,565.5,481.5,565.0,489.5,564.5,497.5,563.5,506.0,563.0,514.5,562.5" stroke="black" stroke-width="2" fill="none" />
<path d="M516.0,579.0,508.0,579.0,500.5,579.0,492.5,579.5,484.5,580.0,477.0,581.0,469.5,581.0,461.5,581.0,453.0,581.5,445.0,582.5,436.5,582.0,428.5,582.0,420.0,583.0,411.5,584.0,403.0,585.0,395.0,585.5,387.0,586.0,379.0,586.5,371.0,586.5,362.5,587.5,354.5,588.0,345.5,589.0,337.5,589.5,329.5,590.0,321.5,590.5" stroke="black" stroke-width="2" fill="none" />
<path d="M317.0,596.5,325.0,596.0,332.5,596.0,340.0,595.5,347.0,594.0,354.5,593.5,362.5,594.0,370.5,594.0,379.0,593.5,387.0,593.0,395.5,592.5,403.0,592.0,411.0,591.5,419.0,591.5,427.0,591.0,434.5,591.0,443.0,590.0,452.0,589.5,460.5,588.5,468.5,587.5,476.5,586.5,484.5,586.0,492.0,586.0,500.0,585.5,508.0,585.0,516.5,585.0" stroke="black" stroke-width="2" fill="none" />
<path d="M299.5,603.5,292.0,610.5,284.0,618.0" stroke="black" stroke-width="2" fill="none" />
<path d="M283.5,629.0,292.0,628.5,300.0,628.0,308.5,627.5,316.5,626.5,325.0,626.0,333.0,626.0,341.0,625.5,348.5,625.0,356.5,625.0,364.5,625.0,372.0,624.5,379.5,623.5,387.0,623.5,395.0,623.0,402.5,622.5,411.0,622.0,419.5,621.5,427.0,621.5,434.5,621.5,442.5,621.5,451.0,620.5,459.0,619.5,467.0,619.0,475.0,618.5,483.5,617.5,491.0,616.5,499.0,615.5,507.5,615.0,516.5,615.0" stroke="black" stroke-width="2" fill="none" />
<path d="M302.0,625.0,293.5,633.0,285.5,640.5,277.5,648.0,269.0,656.0,260.5,663.5,252.5,671.5,245.0,679.5,237.0,687.0" stroke="black" stroke-width="2" fill="none" />
<path d="M227.0,688.5,235.5,681.0,243.5,673.0,251.0,665.5,258.5,658.5,266.5,651.0,274.5,643.5,282.0,635.5" stroke="black" stroke-width="2" fill="none" />
<path d="M274.5,636.5,266.0,644.0,258.5,650.5,250.5,657.5,242.5,664.5,235.0,671.5,227.0,679.0" stroke="black" stroke-width="2" fill="none" />
<path d="M219.5,680.5,227.5,673.0,235.5,665.5,244.0,657.5,252.0,649.5,260.5,642.5,268.5,635.0" stroke="black" stroke-width="2" fill="none" />
<path d="M249.0,625.5,257.0,618.0,265.5,610.5,274.0,603.0,281.5,595.5,289.5,588.0" stroke="black" stroke-width="2" fill="none" />
<path d="M283.5,590.0,275.5,597.5,267.0,604.5,259.0,612.0,250.5,619.0,242.0,626.0" stroke="black" stroke-width="2" fill="none" />
<path d="M245.0,624.5,252.5,624.0,260.0,624.0,268.0,623.5,275.5,623.5" stroke="black" stroke-width="2" fill="none" />
<path d="M301.5,622.5,309.0,621.5,316.5,621.0,324.0,620.5,331.5,619.0,339.0,618.0,347.0,617.5,355.5,617.5,363.5,617.0,371.0,617.0,379.0,616.5,387.0,616.0,395.0,616.0,403.0,615.5,411.5,614.5,419.0,614.0,427.0,613.0,434.0,612.5,441.5,612.0,449.0,611.0,457.0,610.5,465.0,610.0,472.5,609.5,481.0,608.5,489.5,608.0,498.5,607.5,507.0,607.5,515.0,607.5" stroke="black" stroke-width="2" fill="none" />
<path d="M292.0,613.5,284.0,614.0,276.0,614.0,267.5,615.0,259.5,615.0,251.5,616.0,243.5,616.5,235.5,617.5,227.5,618.0" stroke="black" stroke-width="2" fill="none" />
<path d="M228.0,616.0,236.0,609.0,243.5,601.5,251.5,594.0,259.5,586.5,267.5,579.0,276.0,572.0" stroke="black" stroke-width="2" fill="none" />
<path d="M276.0,580.0,268.0,587.5,259.5,595.0,251.0,602.0,243.0,609.0,235.0,616.5" stroke="black" stroke-width="2" fill="none" />
<path d="M235.0,624.0,243.0,617.0,251.0,609.5,259.5,603.0,267.5,596.0,275.5,588.5,283.5,581.0" stroke="black" stroke-width="2" fill="none" />
<path d="M276.5,584.0,268.5,584.5,260.5,585.0,252.5,585.5,244.0,586.0,235.5,586.0" stroke="black" stroke-width="2" fill="none" />
<path d="M244.5,578.5,252.5,577.5,260.5,577.0,269.0,576.0" stroke="black" stroke-width="2" fill="none" />
<path d="M268.0,572.5,260.0,580.0,251.5,587.5,243.5,594.5,235.0,602.0,227.0,609.0,219.0,616.5" stroke="black" stroke-width="2" fill="none" />
<path d="M218.5,614.0,226.5,613.0,234.5,612.5,243.0,611.5,251.0,611.0,259.0,610.0,267.0,610.0,275.0,610.0,283.5,610.0,292.0,610.0,300.5,609.0,308.0,608.5,316.0,608.0,323.5,607.0,331.5,606.0,340.0,605.5,347.5,605.0,355.5,605.0,363.5,604.5,371.0,604.0,379.0,604.0,387.5,603.0,395.5,602.5,403.5,602.5,411.0,602.0,418.5,601.0,427.0,600.0,435.5,599.5,443.5,598.5,451.5,598.0,459.5,598.0,467.5,597.0,475.5,596.0,483.0,595.0,490.5,594.0,498.5,593.5,507.0,593.5,515.5,593.5" stroke="black" stroke-width="2" fill="none" />
<path d="M293.0,576.0,284.5,577.0,276.5,577.5,269.0,577.5,260.5,578.5,252.5,579.0,244.0,580.0,236.0,581.0,227.5,582.0,219.0,582.5" stroke="black" stroke-width="2" fill="none" />
<path d="M221.0,576.0,228.5,575.5,235.5,574.5,243.5,574.0,251.5,573.0,259.5,572.0,267.5,571.5,275.5,570.5,284.0,569.5,292.5,568.5" stroke="black" stroke-width="2" fill="none" />
<path d="M267.0,565.0,259.0,572.5,251.5,580.0,243.5,587.0,235.5,594.0,227.5,601.0,219.0,608.5" stroke="black" stroke-width="2" fill="none" />
<path d="M211.5,609.5,219.0,609.0,226.5,608.5,234.5,608.5,242.5,608.5,250.5,608.0,259.0,607.0,267.5,606.5,276.0,606.0,284.5,605.5,292.0,605.0" stroke="black" stroke-width="2" fill="none" />
<path d="M287.0,594.0,291.5,602.0,302.5,613.0,299.5,621.0,285.5,629.0" stroke="black" stroke-width="2" fill="none" />
<path d="M275.5,627.0,267.0,627.5,259.0,628.0,251.0,629.0,243.5,629.5" stroke="black" stroke-width="2" fill="none" />
<path d="M228.0,634.0,220.0,641.5,211.5,648.5,203.5,655.5,195.5,663.0,188.0,670.0" stroke="black" stroke-width="2" fill="none" />
<path d="M187.0,672.0,195.0,671.5" stroke="black" stroke-width="2" fill="none" />
<path d="M195.5,665.0,187.5,665.5,180.0,666.5,172.0,667.5,164.0,668.0" stroke="black" stroke-width="2" fill="none" />
<path d="M172.5,671.0,180.5,663.5,188.5,656.0,196.5,648.5,204.0,641.0,211.5,634.0,219.5,626.5" stroke="black" stroke-width="2" fill="none" />
<path d="M221.0,633.5,213.0,641.0,204.5,648.5,196.0,656.5,188.0,664.5,179.5,672.5" stroke="black" stroke-width="2" fill="none" />
<path d="M164.0,671.0,172.5,663.5,180.0,656.5,187.5,649.0,195.0,642.0,203.0,634.0,211.0,626.0" stroke="black" stroke-width="2" fill="none" />
<path d="M212.0,621.0,203.5,628.0,195.5,635.5,187.5,643.0,179.5,650.0,171.0,657.5,163.5,664.5,156.0,672.0" stroke="black" stroke-width="2" fill="none" />
<path d="M156.5,664.0,164.5,657.0,172.5,650.0,180.0,643.0,187.5,636.0,195.0,628.5" stroke="black" stroke-width="2" fill="none" />
<path d="M187.5,626.0,179.5,633.5,172.0,641.0,164.0,648.5,155.0,656.5,147.0,664.0" stroke="black" stroke-width="2" fill="none" />
<path d="M139.0,664.5,147.0,657.0,155.0,649.5,163.5,642.0,172.5,633.5,181.0,626.0" stroke="black" stroke-width="2" fill="none" />
<path d="M170.5,627.0,163.0,635.0,155.5,643.0,148.0,650.5,140.5,658.5,132.5,666.0" stroke="black" stroke-width="2" fill="none" />
<path d="M131.0,657.5,138.5,649.5,146.5,641.5,154.5,633.5,162.5,625.5" stroke="black" stroke-width="2" fill="none" />
<path d="M156.0,626.0,148.0,633.5,139.5,641.0,131.5,648.5,123.5,656.0" stroke="black" stroke-width="2" fill="none" />
<path d="M114.5,657.5,123.0,650.0,131.0,642.0,139.0,634.0,147.0,626.0,155.0,619.0" stroke="black" stroke-width="2" fill="none" />
<path d="M147.0,620.0,139.5,627.0,132.0,634.0,124.5,641.0,116.5,649.0,109.0,657.5" stroke="black" stroke-width="2" fill="none" />
<path d="M101.0,658.0,109.0,650.5,116.5,642.5,124.0,634.5,132.0,627.0,140.0,620.0" stroke="black" stroke-width="2" fill="none" />
<path d="M129.5,620.5,121.5,628.5,114.5,636.5,107.0,644.5,99.0,652.0" stroke="black" stroke-width="2" fill="none" />
<path d="M91.0,650.0,99.0,642.5,107.0,634.5,115.0,627.0,123.5,619.5" stroke="black" stroke-width="2" fill="none" />
<path d="M115.5,617.5,107.5,625.0,99.5,632.5,91.5,640.0,83.5,647.5" stroke="black" stroke-width="2" fill="none" />
<path d="M75.0,648.0,83.0,641.0,91.5,633.5,99.5,626.5,108.0,619.5" stroke="black" stroke-width="2" fill="none" />
<path d="M99.0,619.5,91.0,627.0,83.0,635.0,75.0,642.5,67.5,649.5" stroke="black" stroke-width="2" fill="none" />
<path d="M67.5,641.0,75.5,634.0,83.5,627.0,91.5,619.0" stroke="black" stroke-width="2" fill="none" />
<path d="M76.0,626.0,68.0,633.5,59.5,641.0" stroke="black" stroke-width="2" fill="none" />
<path d="M36.0,679.5,44.0,678.0,51.5,677.5,59.0,676.5,67.0,675.0,74.5,674.5,83.0,674.0,91.0,673.5,99.0,673.0,106.5,672.0,114.5,672.0,122.5,671.5,130.5,671.0,139.0,671.0,147.5,671.5,156.0,671.0,164.0,670.5,172.5,670.0,180.5,670.0,188.5,670.0,197.0,669.5,205.0,669.0,212.5,668.5,220.0,667.5,227.5,666.5,236.0,666.0,244.0,665.0,252.0,664.5,260.0,663.5,268.5,663.0,276.5,662.0,284.0,662.0,292.0,661.5,299.5,661.5,307.5,661.5,315.5,661.0,323.0,661.0,331.5,661.0,340.0,660.5,348.0,659.5,356.0,659.0,364.0,658.5,372.0,658.5,380.0,657.5,388.0,657.0" stroke="black" stroke-width="2" fill="none" />
<path d="M284.5,618.5,276.5,619.0,268.5,619.5,260.5,620.0,251.5,621.0,243.0,622.0,234.5,622.5,227.0,622.5" stroke="black" stroke-width="2" fill="none" />
<path d="M228.0,616.0,220.0,617.0,212.0,617.5,204.0,618.0,195.5,618.0,187.0,618.0,179.0,618.0,170.5,617.5,162.5,618.0,154.5,618.5,146.0,619.5,138.5,621.0,131.0,622.0,123.5,623.0,115.5,624.0,107.5,624.5,100.0,625.5,92.0,626.5,84.0,627.0,76.0,627.0,68.0,627.5,60.0,628.0,51.5,628.5,43.5,628.5,35.0,628.5,27.0,628.5,18.5,628.5,10.5,628.5,3.0,629.0" stroke="black" stroke-width="2" fill="none" />
<path d="M1.5,637.0,10.0,637.0,18.5,637.0,27.0,637.0,35.0,636.5,43.0,636.5,51.0,636.0,59.5,635.5,67.5,635.0,75.0,634.5,83.0,634.0,91.0,633.0,99.0,632.5,106.5,631.5,114.0,630.5,122.5,629.5,130.0,628.5,138.0,627.5,146.5,627.0,155.0,626.5,163.5,626.0,171.0,626.0,179.0,625.5,187.0,625.5,195.0,625.0,203.5,625.0,211.5,625.0,219.5,625.0,227.5,624.5,235.5,624.0,243.5,623.5,251.5,623.0,260.0,622.5,268.0,621.5,276.0,620.5,283.5,619.5,291.0,618.5,299.0,618.0,306.5,617.0,314.5,616.0,322.5,615.5,330.5,615.0,338.0,615.0,346.0,614.5,354.0,614.0,362.0,614.0,370.0,614.0,378.5,614.0,386.5,614.0,395.5,614.0,403.5,614.0,411.5,612.5,419.5,611.5,427.0,610.5,435.0,609.5,442.5,608.0,451.0,607.5,459.0,607.0,467.0,606.5,475.0,606.5,483.5,605.5,491.0,605.5,499.0,605.0,507.0,604.5,515.0,604.0" stroke="black" stroke-width="2" fill="none" />
<path d="M285.0,508.5,277.0,509.0,269.0,508.5,261.0,508.5,252.5,508.5,244.0,509.0" stroke="black" stroke-width="2" fill="none" />
<path d="M244.0,501.0,252.0,501.0,260.0,500.5,268.0,500.5,276.0,500.5,283.5,500.5" stroke="black" stroke-width="2" fill="none" />
<path d="M277.5,493.0,279.5,500.5,279.0,508.5,280.0,516.5,263.0,524.5,264.0,524.0,272.0,521.5,280.5,516.5" stroke="black" stroke-width="2" fill="none" />
<path d="M290.0,491.5,282.0,492.0,274.0,492.5,266.0,493.5,258.0,494.0,250.0,494.0,242.0,494.5" stroke="black" stroke-width="2" fill="none" />
<path d="M243.0,490.0,251.0,489.0,259.0,488.5,266.5,488.0,274.0,488.0,282.0,488.0" stroke="black" stroke-width="2" fill="none" />
<path d="M281.5,487.5,286.0,483.5,287.5,491.5" stroke="black" stroke-width="2" fill="none" />
<path d="M284.5,478.5,276.5,478.5,269.0,478.5,260.5,478.5,252.0,479.0,244.0,479.0" stroke="black" stroke-width="2" fill="none" />
<path d="M242.5,481.0,250.0,473.5,257.5,465.5,265.0,457.5,273.0,449.5,281.5,442.0,290.0,434.5" stroke="black" stroke-width="2" fill="none" />
<path d="M299.0,436.0,291.0,443.5,283.0,451.0,275.0,458.5,267.5,466.0,259.5,473.0,251.5,480.5,243.5,488.0" stroke="black" stroke-width="2" fill="none" />
<path d="M250.5,489.0,259.0,481.5,267.5,474.5,275.5,467.0,284.0,459.0,291.5,451.0,299.5,443.5" stroke="black" stroke-width="2" fill="none" />
<path d="M300.0,446.5,292.0,447.0,284.0,447.5,276.0,448.0,268.5,448.5,260.5,449.5,252.5,450.5,245.0,451.5,237.0,452.5,229.5,453.0" stroke="black" stroke-width="2" fill="none" />
<path d="M227.0,455.5,235.5,448.0,243.5,440.5,251.5,433.0,259.0,425.5,266.5,418.5,274.5,411.5,282.0,404.5" stroke="black" stroke-width="2" fill="none" />
<path d="M283.0,412.5,275.0,420.0,266.5,427.0,258.0,434.5,250.0,442.5,242.0,450.0,234.5,457.5" stroke="black" stroke-width="2" fill="none" />
<path d="M229.5,458.5,237.0,458.0,245.0,457.0,252.5,456.0,260.0,455.5,267.5,454.5,275.0,454.5,283.5,454.0" stroke="black" stroke-width="2" fill="none" />
<path d="M285.0,450.5,293.0,452.5,301.0,451.5" stroke="black" stroke-width="2" fill="none" />
<path d="M301.5,443.5,294.0,444.0,286.0,444.5,277.5,445.5,269.0,446.5,261.5,447.0,253.0,447.5,244.5,448.0,236.0,448.5,228.5,449.0" stroke="black" stroke-width="2" fill="none" />
<path d="M227.5,448.5,235.0,441.5,243.0,434.5,251.0,427.0,258.5,419.0,266.5,411.0,274.5,403.5,282.5,396.0" stroke="black" stroke-width="2" fill="none" />
<path d="M285.0,394.5,276.5,395.0,268.5,395.0,260.5,395.0,252.0,395.5,244.0,396.0,235.5,396.5,227.0,396.0,218.5,396.0,210.5,396.5,202.5,397.0" stroke="black" stroke-width="2" fill="none" />
<path d="M201.0,393.0,209.0,389.5,206.0,397.0,208.0,405.0" stroke="black" stroke-width="2" fill="none" />
<path d="M212.5,402.5,220.5,401.5,228.5,401.5,236.0,401.0,243.0,401.0,251.0,401.0,259.0,400.5,267.0,399.5,275.0,398.5" stroke="black" stroke-width="2" fill="none" />
<path d="M281.5,389.5,273.5,397.0,266.0,404.0,258.5,411.5,251.0,419.0,242.5,426.0,234.5,433.0,227.0,440.5,218.5,448.0" stroke="black" stroke-width="2" fill="none" />
<path d="M220.0,446.0,228.5,445.5,236.5,445.0,245.0,444.5,253.0,444.0,260.5,443.0,268.5,442.0,276.5,441.5,284.5,440.5,292.0,439.5,300.0,439.0" stroke="black" stroke-width="2" fill="none" />
<path d="M293.0,436.5,285.0,437.5,276.5,438.5,268.5,439.5,260.5,440.0,253.0,440.5,245.0,440.5,237.0,441.0,229.5,441.0,221.5,441.0" stroke="black" stroke-width="2" fill="none" />
<path d="M220.0,439.0,227.5,431.0,234.5,423.5,242.5,416.0,249.5,408.5,257.5,400.5,265.5,393.0,273.5,386.0" stroke="black" stroke-width="2" fill="none" />
<path d="M272.5,380.0,265.0,387.5,258.0,394.5,250.5,401.5,243.0,409.0,235.5,416.0,228.5,424.0,220.5,431.5,212.5,438.5" stroke="black" stroke-width="2" fill="none" />
<path d="M212.5,437.5,220.0,437.5,228.0,437.5,236.5,437.5,244.5,437.0,252.5,437.0,260.5,436.0,268.0,435.5,275.5,434.5,284.0,434.0,292.0,433.5,300.0,433.0" stroke="black" stroke-width="2" fill="none" />
<path d="M300.5,423.0,292.0,423.5,284.5,424.0,276.5,424.5,268.5,425.0,260.0,425.0,252.0,426.0,244.5,426.5,235.5,427.5,227.5,428.5,219.0,429.5,210.0,430.0,202.0,430.5" stroke="black" stroke-width="2" fill="none" />
<path d="M202.5,427.0,210.5,426.5,218.5,425.5,227.0,424.5,235.5,424.0,243.5,423.0,252.5,422.0,261.0,421.5,269.0,420.5,276.5,420.0,284.0,419.5" stroke="black" stroke-width="2" fill="none" />
<path d="M285.5,415.0,277.5,414.5,269.5,414.5,261.0,415.0,252.5,416.0,244.5,416.0,236.5,416.5,228.5,417.0,221.0,418.0,212.5,419.0" stroke="black" stroke-width="2" fill="none" />
<path d="M203.5,418.0,212.0,410.0,220.5,402.5,228.5,394.5,236.5,387.0,245.0,379.0,253.0,371.0,261.0,363.0" stroke="black" stroke-width="2" fill="none" />
<path d="M266.5,363.5,259.0,364.0,250.5,364.0,242.0,365.0,233.5,365.5" stroke="black" stroke-width="2" fill="none" />
<path d="M233.0,366.0,237.0,365.0,245.0,371.5" stroke="black" stroke-width="2" fill="none" />
<path d="M249.5,364.5,241.5,371.5,234.0,379.0,226.5,386.5,218.5,394.0,210.0,401.0,201.5,408.0" stroke="black" stroke-width="2" fill="none" />
<path d="M201.0,406.0,209.0,405.5,218.0,405.0,226.5,404.0,235.0,404.0,244.0,403.0,252.0,402.5,260.5,402.5,268.5,402.5,276.5,402.5,285.0,402.0" stroke="black" stroke-width="2" fill="none" />
<path d="M284.5,405.5,276.0,406.0,267.5,407.0,259.5,408.0,251.0,409.0,243.0,409.5,235.0,409.5,226.5,409.5,218.0,410.0,210.0,410.0" stroke="black" stroke-width="2" fill="none" />
<path d="M196.5,413.5,204.0,413.5,212.0,413.0,219.5,412.5,227.5,412.5,235.0,412.0,243.5,412.0,251.5,412.0,260.0,412.0,268.5,411.5,277.0,411.0,284.5,410.5,291.5,409.5,299.5,409.0" stroke="black" stroke-width="2" fill="none" />
<path d="M291.0,409.5,283.0,417.0,275.5,425.0,267.5,433.0,259.5,440.5,252.0,447.5,244.0,455.5,236.0,463.0" stroke="black" stroke-width="2" fill="none" />
<path d="M235.0,466.0,243.0,465.5,251.0,465.5,259.5,465.0,268.5,465.0,277.0,464.0,285.0,463.5" stroke="black" stroke-width="2" fill="none" />
<path d="M284.5,473.0,277.0,473.0" stroke="black" stroke-width="2" fill="none" />
<path d="M282.0,474.5,289.5,479.0,297.0,482.5,307.0,485.5" stroke="black" stroke-width="2" fill="none" />
<path d="M299.0,480.5,291.0,481.5,283.0,483.0,275.5,484.0,267.5,484.5,260.0,485.0,252.0,485.5,244.0,486.0,236.0,486.5" stroke="black" stroke-width="2" fill="none" />
<path d="M237.5,475.5,245.0,475.0,253.0,473.5,260.5,472.5" stroke="black" stroke-width="2" fill="none" />
<path d="M261.5,475.5,268.0,468.5" stroke="black" stroke-width="2" fill="none" />
<path d="M265.5,468.0,260.0,474.5,263.0,466.5" stroke="black" stroke-width="2" fill="none" />
<path d="M283.5,473.0,282.5,481.0,281.5,489.5" stroke="black" stroke-width="2" fill="none" />
<path d="M291.5,493.0,291.0,490.5,290.5,482.5,286.0,474.5" stroke="black" stroke-width="2" fill="none" />
<path d="M292.0,465.0,284.5,466.0,276.5,467.0,269.0,468.0,260.5,468.5,252.5,469.5,244.5,470.0,236.5,470.5" stroke="black" stroke-width="2" fill="none" />
<path d="M234.5,471.5,242.0,464.0,250.5,456.0,258.0,448.5,266.0,441.0,274.5,433.5,282.0,425.5,290.5,418.0" stroke="black" stroke-width="2" fill="none" />
<path d="M291.5,418.0,295.5,426.0,303.5,434.0,311.0,442.5,314.0,450.5" stroke="black" stroke-width="2" fill="none" />
<path d="M302.5,450.5,297.5,442.5,296.5,434.0,292.5,426.5,289.5,418.0,288.0,410.0,282.5,397.5,279.5,391.5,276.5,380.5,263.5,375.5,261.0,369.5,259.0,361.5,244.5,362.5" stroke="black" stroke-width="2" fill="none" />
<path d="M245.5,356.0,253.5,355.0" stroke="black" stroke-width="2" fill="none" />
<path d="M253.0,359.5,253.0,365.5" stroke="black" stroke-width="2" fill="none" />
<path d="M262.0,373.5,253.5,381.0,245.5,388.5,237.5,396.0,229.5,403.0,221.0,410.5,213.0,418.5,204.5,425.5" stroke="black" stroke-width="2" fill="none" />
<path d="M197.5,423.0,206.0,434.0,214.5,444.0,221.5,452.0,226.5,460.0,231.5,468.0,235.0,476.0,239.0,483.5,243.0,491.5" stroke="black" stroke-width="2" fill="none" />
<path d="M231.5,509.0,232.5,513.0,234.5,520.5,240.0,525.0" stroke="black" stroke-width="2" fill="none" />
<path d="M234.5,518.0,242.5,517.5,250.5,516.5,258.0,516.0,266.0,515.5,274.0,515.5" stroke="black" stroke-width="2" fill="none" />
<path d="M285.5,555.0,277.0,555.0,268.5,555.5,260.5,556.0,252.0,556.5,243.5,557.0,236.0,557.0" stroke="black" stroke-width="2" fill="none" />
<path d="M228.0,566.0,236.5,565.5,244.5,565.5,252.0,565.0,259.5,564.5,268.0,564.0,275.5,563.0,283.0,562.5" stroke="black" stroke-width="2" fill="none" />
<path d="M260.0,562.0,252.0,569.5,243.5,577.0,235.5,584.5,227.5,592.0,219.5,600.0,211.0,608.0" stroke="black" stroke-width="2" fill="none" />
<path d="M211.0,601.0,202.5,602.0,194.5,602.5,186.5,602.5,178.5,602.5,171.0,603.0,163.5,603.5,155.0,604.0,147.5,604.5,139.5,605.5,131.0,606.0,123.0,607.0,115.5,607.0,108.0,608.0,100.5,609.0,92.5,610.0,85.0,610.5,76.5,611.0,67.5,611.5,59.5,611.5,51.0,611.5,43.0,611.5,35.0,611.5,26.5,611.5,18.5,612.0,11.0,613.0,3.0,613.5" stroke="black" stroke-width="2" fill="none" />
<path d="M2.0,620.5,10.5,620.5,18.5,620.5,27.0,620.0,35.5,620.0,44.0,619.5,52.5,620.0,61.0,620.0,69.5,620.0,77.5,619.5,85.5,618.5,93.5,618.5,101.0,617.5,109.0,617.0,116.5,616.0,123.5,615.0,131.5,614.5,139.5,613.5,147.0,613.0,154.0,612.5,161.5,612.0,170.0,611.0,178.0,611.0,186.5,610.5,195.5,610.0,204.0,609.5,212.0,609.5,220.0,608.5" stroke="black" stroke-width="2" fill="none" />
<path d="M216.0,615.5,233.5,623.5" stroke="black" stroke-width="2" fill="none" />
<path d="M219.0,633.0,211.5,633.5,203.5,634.5" stroke="black" stroke-width="2" fill="none" />
<path d="M215.5,625.0,212.0,616.5" stroke="black" stroke-width="2" fill="none" />
<path d="M202.5,607.0,210.5,606.5,219.0,605.5,227.5,605.0,235.0,604.0,243.0,603.5,251.5,602.5,260.0,601.5,268.5,601.0,277.0,600.5,285.5,600.0,293.0,599.5,301.0,598.5,308.5,597.5,316.5,596.5,324.5,595.5,332.0,595.0,340.0,594.5,348.0,594.0,356.0,593.5,364.0,593.0,372.0,593.0,380.5,592.5,389.0,592.5,396.5,592.5,404.5,592.5,413.0,592.5,420.5,592.0,428.5,592.0,436.5,592.0,444.0,591.5,452.5,591.0,460.5,590.5,468.5,590.0,477.0,589.0,485.5,589.0,493.0,588.5,501.0,588.0,509.0,587.5,517.0,587.0" stroke="black" stroke-width="2" fill="none" />
<path d="M284.5,590.0,276.0,591.0,267.5,591.5,259.5,592.0,251.5,593.0,243.0,594.0,235.0,594.5,227.0,595.5" stroke="black" stroke-width="2" fill="none" />
<path d="M211.0,590.0,219.5,589.5,227.5,588.5,235.5,588.0,242.5,587.5,250.5,587.0,258.5,586.5,267.0,586.0,275.0,586.0,282.5,586.0,290.5,585.0" stroke="black" stroke-width="2" fill="none" />
<path d="M299.5,591.0,291.5,591.5,283.0,592.5,274.5,593.0,266.5,593.5,258.5,594.0,251.0,594.5,243.5,595.0,236.0,595.0,227.5,595.5,219.0,595.5,211.0,595.5,203.0,596.0,195.0,596.0" stroke="black" stroke-width="2" fill="none" />
<path d="M194.5,593.5,187.5,594.0,179.5,594.5,171.5,595.5,163.0,596.0,155.5,596.0,147.5,596.5,139.5,597.5,131.5,598.0,123.5,599.0,115.5,600.0,107.5,600.5,99.5,601.5,91.5,602.5,83.5,603.0,75.5,603.5,67.5,603.0,59.0,603.5,50.0,604.0,42.0,604.5,34.0,604.5,26.0,604.5,18.5,604.5,10.5,605.5,3.0,606.0" stroke="black" stroke-width="2" fill="none" />
<path d="M3.0,596.5,11.5,596.0,19.5,596.0,28.0,596.0,36.5,595.5,44.5,594.5,52.5,594.5,60.5,594.0,68.0,593.5,76.0,593.5,84.0,593.5,91.5,593.0,99.0,592.0,107.0,591.5,115.0,591.0,123.0,590.5,131.0,590.0,139.5,589.0,148.0,588.5,156.0,588.5,164.5,587.5,172.0,587.5,180.0,587.5,188.5,587.5" stroke="black" stroke-width="2" fill="none" />
<path d="M173.5,580.0,165.5,580.5,157.5,581.0,149.0,581.0,141.0,581.0,132.5,581.0,125.0,581.5,117.0,581.5,109.0,582.5,101.5,583.0,93.5,583.0,85.0,583.5,77.0,584.0,69.0,585.5,61.5,586.5,53.5,587.5,45.5,588.5,37.5,589.0,29.5,590.0,21.0,590.5,12.5,590.5,4.5,591.5" stroke="black" stroke-width="2" fill="none" />
<path d="M4.0,581.0,12.0,580.0,19.5,579.5,27.0,579.0,35.5,578.5,43.5,577.5,51.5,577.5,60.0,577.0,68.5,577.0,76.5,576.5,84.5,575.5,93.0,575.5,100.5,575.0,108.0,575.0,116.0,575.0,124.0,574.5,132.0,574.5,140.0,574.5,148.5,574.5,157.0,574.0" stroke="black" stroke-width="2" fill="none" />
<path d="M133.5,566.0,125.5,566.5" stroke="black" stroke-width="2" fill="none" />
<path d="M99.0,552.5,91.5,553.0,83.5,554.0,75.5,554.0,67.5,555.0,59.5,555.5,51.0,556.0,42.5,556.5,34.5,556.5" stroke="black" stroke-width="2" fill="none" />
<path d="M19.5,556.5,12.0,557.5,3.5,558.0" stroke="black" stroke-width="2" fill="none" />
<path d="M4.0,563.0,12.0,562.0" stroke="black" stroke-width="2" fill="none" />
<path d="M2.5,564.0,10.5,563.5,19.0,563.5,27.0,563.0,34.5,562.5,42.5,562.0,51.0,561.5,59.0,561.5,67.5,561.5,75.5,561.0,83.5,560.5,91.5,560.0,99.0,560.0,107.0,560.0,115.0,560.0" stroke="black" stroke-width="2" fill="none" />
<path d="M146.5,565.5,139.0,566.0,130.5,566.0,122.5,566.5,114.5,566.5,106.0,566.5,97.5,566.5,89.5,566.5,81.5,567.0,73.5,568.0,65.0,569.0,57.0,570.0,49.0,571.0,41.5,572.0,33.0,572.0,25.5,572.0,18.0,572.0,11.0,572.0,3.0,573.0" stroke="black" stroke-width="2" fill="none" />
<path d="M2.0,647.0,10.0,646.0,18.5,645.5,26.5,645.0,35.0,645.0,43.0,644.0,51.0,644.0,59.5,643.0,67.5,642.5,76.0,642.0,84.0,641.5,91.5,640.5,99.0,640.0,106.5,639.5,114.0,639.5,122.5,639.0,130.5,638.5,138.5,637.0,146.5,635.5,155.0,634.5,162.5,633.5,170.5,633.5,178.5,633.5,187.0,633.5,195.5,633.0,204.0,632.5,212.5,632.5,220.5,632.0,229.0,632.0,236.5,631.5,245.0,631.0,252.5,630.0,260.5,629.5,268.5,628.5,276.5,628.0,285.0,627.0,292.5,626.5,300.5,626.5,308.5,626.5,316.5,626.5,324.0,626.0,331.5,625.5,339.0,625.0,346.5,624.5,354.5,624.0,362.5,623.5,370.0,622.5,378.0,622.0,386.5,621.5,394.5,621.0,402.5,620.5,410.5,619.5,419.0,619.0,427.0,618.5,435.5,617.5,443.5,617.0,452.0,616.5,460.0,616.5,467.5,616.0,475.0,614.5,482.5,614.0,491.0,614.0,499.0,614.0,507.5,614.0" stroke="black" stroke-width="2" fill="none" />
<path d="M306.5,728.0,298.5,728.0,291.0,728.5,283.5,729.5,275.5,730.0,267.5,731.0,260.0,731.5,252.0,732.0,244.0,731.5,236.0,731.5,228.0,732.0,219.5,732.5" stroke="black" stroke-width="2" fill="none" />
<path d="M227.0,741.0,235.0,740.5,243.0,740.5,251.0,740.5,260.0,740.0,268.5,739.5,277.0,739.0,285.5,738.5,293.5,738.0" stroke="black" stroke-width="2" fill="none" />
<path d="M291.0,747.5,283.0,748.0" stroke="black" stroke-width="2" fill="none" />
<path d="M268.5,747.0,260.5,747.5,252.5,748.5,244.5,749.0,237.0,750.0" stroke="black" stroke-width="2" fill="none" />
<path d="M221.0,759.5,229.0,759.0,236.5,758.5,244.0,757.5,251.5,756.5,260.0,756.0,268.0,755.0" stroke="black" stroke-width="2" fill="none" />
<path d="M276.0,762.0,268.0,763.0,260.0,763.5,252.0,764.0,243.5,764.0,235.0,764.0,227.0,764.0,218.5,763.5,210.5,764.0" stroke="black" stroke-width="2" fill="none" />
<path d="M209.5,726.0,218.0,725.0,226.0,725.0,234.5,724.5,243.5,724.0,252.0,723.5,260.0,723.5,268.0,722.5,276.0,721.5,284.0,721.0,292.0,720.0,299.5,720.0,308.0,719.5" stroke="black" stroke-width="2" fill="none" />
<path d="M307.5,711.0,299.5,711.5,291.5,712.5,283.5,713.0,276.0,713.5,268.0,714.0,259.5,714.0,251.5,714.0,243.0,714.5,235.0,715.0,227.0,715.5,219.5,716.0,211.5,716.5,203.5,717.0" stroke="black" stroke-width="2" fill="none" />
<path d="M204.0,709.0,212.5,709.0,220.5,708.0,228.5,707.5,236.5,706.5,244.5,706.0,252.0,706.5,260.0,706.5,267.5,706.5,275.5,706.5,283.0,706.5,291.0,705.5,299.0,705.0,307.5,704.0,315.5,703.0" stroke="black" stroke-width="2" fill="none" />
<path d="M315.5,695.5,308.0,696.0,300.5,696.5,292.5,696.5,284.0,697.0,276.0,697.5,267.5,698.0,259.0,698.0,251.0,697.5,243.0,697.5,235.5,698.0,227.5,699.5,219.0,700.5,211.5,701.5,203.0,702.0" stroke="black" stroke-width="2" fill="none" />
<path d="M194.5,693.0,203.0,692.5,211.5,692.0,220.0,691.0,228.0,690.5,235.5,690.0,243.5,689.5,251.5,689.0,259.0,689.0,266.5,689.0,274.5,689.0,282.5,688.0,290.5,687.5,299.0,686.5,307.0,686.0,315.0,685.0" stroke="black" stroke-width="2" fill="none" />
<path d="M324.0,675.5,316.0,676.0,308.0,676.5,300.0,677.0,291.5,677.5,284.0,678.5,276.5,679.0,268.5,680.0,260.5,680.0,252.5,680.5,244.0,680.5,236.0,680.5,228.5,680.5,220.0,681.5,212.0,681.5,203.5,682.0,195.0,683.0,187.0,683.5,179.0,684.0,171.0,684.5,163.0,685.0,155.5,686.0,148.0,686.5" stroke="black" stroke-width="2" fill="none" />
<path d="M157.0,659.5,164.5,659.0,172.5,658.0,180.0,657.0,187.5,656.0,195.0,656.0,203.0,655.0,211.5,654.5,219.5,653.5,227.0,653.0,235.5,652.5,243.0,652.0,250.5,651.5,258.5,651.5,266.5,651.5,274.5,651.0,283.0,650.0,291.5,649.5,300.0,649.0,308.5,648.5,316.0,648.0,324.5,647.5,333.0,647.0,341.0,646.0,349.0,645.5,356.5,645.5,365.0,644.5,372.5,644.0" stroke="black" stroke-width="2" fill="none" />
<path d="M387.5,632.5,380.0,633.0,372.0,633.5,364.0,634.0,356.0,634.5,348.0,635.0,339.5,636.0,331.5,636.5,324.0,637.5,316.5,638.5,309.0,639.5,301.0,641.0,293.5,641.5,285.5,642.0,277.5,641.5,269.5,641.5,261.0,642.0,252.5,643.0,244.5,643.0,236.5,643.5,228.5,644.0,221.0,645.0,212.5,646.0,205.0,647.0,196.5,647.5,188.0,647.5,180.0,647.5,172.0,647.5,164.0,648.0,156.0,648.0,148.5,648.0,141.0,648.5,132.5,648.5" stroke="black" stroke-width="2" fill="none" />
<path d="M129.5,640.0,137.5,639.5,145.5,639.5,154.0,639.5,162.5,639.5,170.5,639.5,178.5,639.0,187.0,639.0,194.5,638.5,202.0,638.0,210.0,637.0,218.0,637.0,226.5,636.5,235.0,636.5,243.0,636.5,251.0,636.0,259.5,635.0,267.5,634.0,276.0,633.0,284.5,632.5,292.5,632.5,300.5,632.0,308.5,631.5,316.5,630.5,325.0,630.0,332.5,629.0,340.5,628.0,348.0,627.0,355.5,626.5,363.5,626.5,371.5,626.5,379.0,626.0,387.0,625.0,395.0,624.5,403.5,624.0" stroke="black" stroke-width="2" fill="none" />
<path d="M443.0,641.5,435.0,641.5,427.5,642.0,420.0,642.0,412.0,642.0,404.0,642.0,396.0,643.0,388.0,643.5,380.5,644.5,372.5,645.0,364.5,645.5,356.5,646.0,348.5,647.0,340.5,648.0,332.0,649.0,324.0,650.0,316.0,650.0,307.5,650.0,299.5,650.0,291.0,650.0,283.0,650.5,275.0,651.0,267.5,652.0,260.0,652.5,252.0,653.0,244.0,653.5,236.5,654.5,228.0,655.5,219.5,656.5,211.5,657.5,203.5,658.0,195.5,659.0,187.5,660.0,179.5,660.5,172.5,661.5,165.0,662.0,156.5,662.5,148.0,663.0,139.5,663.0,131.5,663.0,123.0,663.0,115.5,663.5,107.5,663.5,100.0,664.0,92.0,664.5,84.5,664.5,76.0,665.5,68.0,666.0,59.5,666.5,51.0,667.0,43.0,667.0,34.5,667.5,26.5,668.5,19.0,669.5,11.5,670.0,4.0,670.0" stroke="black" stroke-width="2" fill="none" />
<path d="M4.0,664.5,12.0,663.5,20.0,662.5,27.5,662.0,35.0,661.0,43.5,660.0,51.0,659.5,59.5,658.5,67.5,658.0,75.5,656.5,83.0,655.5,91.5,655.0,99.5,655.0,107.5,654.5,116.0,654.5,124.5,654.0,132.5,654.0,140.5,653.5,148.5,653.0,156.0,652.5,164.0,652.0,172.5,651.5,180.5,651.0,189.0,650.5,197.0,650.0,204.5,649.0,212.5,648.0,220.5,647.5,228.5,646.5,236.0,645.5,244.0,645.0,252.0,644.5,260.0,644.5,268.0,644.5,276.0,644.0,283.5,643.5,292.0,643.0,300.5,642.5,308.5,642.0,316.5,642.0,324.5,641.5,332.0,641.0,340.0,640.5,347.5,640.0,355.5,639.5,364.0,639.0,371.5,638.0,379.0,636.5,386.5,635.0,394.5,634.5,402.5,634.0,411.0,634.0,418.5,634.0,426.5,633.5,434.5,633.0,442.5,633.0,451.0,632.5,459.0,632.5,467.5,633.0" stroke="black" stroke-width="2" fill="none" />
<path d="M483.5,624.0,475.5,624.0,467.5,624.5,459.5,625.0,451.5,625.5,443.0,625.5,435.0,626.0,426.5,626.5,418.5,626.5,410.0,626.0,402.0,626.5,394.5,627.0,386.5,628.0,379.0,629.0,371.5,630.5,363.5,631.5,356.0,632.5,348.5,633.0,341.0,634.0,333.5,635.0,326.0,636.0,317.5,636.5,309.5,636.0,301.5,636.0,293.5,636.0,285.0,636.0,277.0,636.0,269.5,636.5,261.5,637.0,253.5,637.5,244.5,638.0,237.0,638.5,229.0,639.5,220.5,640.5,212.5,641.5,204.5,642.0,197.0,642.5,189.0,642.5,181.0,643.0,173.5,643.0,165.5,643.0,157.5,643.5,149.0,644.5,141.0,645.5,132.5,645.5,124.0,645.5,115.5,646.0,107.5,646.0,99.0,646.0,91.0,646.5,83.0,647.0,75.0,647.5,66.5,648.5,59.0,649.5,51.0,650.5,43.0,652.0,35.0,653.0,27.0,654.5,19.5,655.5,12.0,656.0,4.0,657.0" stroke="black" stroke-width="2" fill="none" />
<path d="M85.5,687.5,93.5,686.5" stroke="black" stroke-width="2" fill="none" />
<path d="M100.5,686.0,108.5,685.5" stroke="black" stroke-width="2" fill="none" />
<path d="M190.5,658.0,198.5,668.5,206.5,673.0,214.5,676.5,222.5,678.0,231.0,679.0" stroke="black" stroke-width="2" fill="none" />
<path d="M232.5,678.0,224.5,676.0,217.0,674.5,209.0,671.5,201.5,667.0,193.5,654.0" stroke="black" stroke-width="2" fill="none" />
<path d="M192.0,654.0,192.5,662.0,199.5,669.5,215.5,677.5,221.5,683.0,230.0,685.0,238.0,686.0,246.0,685.5,254.0,685.5,262.5,686.0,270.5,685.5,278.0,684.5,285.5,683.5,293.5,681.5,301.5,679.0,309.5,676.0,317.5,669.5" stroke="black" stroke-width="2" fill="none" />
<path d="M307.0,674.0,319.5,666.5,317.5,664.5,309.5,671.0,301.5,675.5,293.5,679.0,286.0,681.0,278.0,682.0" stroke="black" stroke-width="2" fill="none" />
<path d="M274.5,626.5,288.0,617.0,305.5,606.0,315.5,598.0,321.5,589.5,327.5,581.0,331.5,572.5,335.5,564.0,338.5,556.5,340.5,548.5,341.5,541.0,343.0,533.5,343.0,525.5,343.0,517.0,343.0,509.0,343.0,501.0,342.0,493.0,341.0,485.5,340.5,477.5,339.5,469.5,338.5,461.5,337.0,454.0,336.0,446.0,335.0,438.0,334.5,429.5,333.5,421.5,330.5,413.0,328.5,405.0,327.0,397.5,324.5,389.0,323.0,381.5,320.5,373.5,320.5,371.5" stroke="black" stroke-width="2" fill="none" />
<path d="M324.0,373.0,325.0,381.0,327.5,389.0,329.0,399.0,330.5,406.5" stroke="black" stroke-width="2" fill="none" />
<path d="M307.5,398.5,299.5,399.5" stroke="black" stroke-width="2" fill="none" />
<path d="M293.5,399.5,301.5,412.0" stroke="black" stroke-width="2" fill="none" />
<path d="M300.0,415.0,292.0,416.0,283.5,417.0,275.0,417.5,267.0,418.0,260.0,418.5,252.5,419.0,244.5,419.0,237.0,419.0,228.5,419.5,220.0,420.0,211.5,421.0,203.5,421.5,195.5,422.0" stroke="black" stroke-width="2" fill="none" />
<path d="M192.5,410.5,193.5,408.5,194.0,417.0,198.0,425.0,203.0,433.0,206.0,440.5,213.0,440.5,221.0,449.5,229.0,462.5,236.5,477.5,244.5,491.5,252.5,493.0,261.0,499.0,269.0,509.0,270.5,510.0,278.0,510.0" stroke="black" stroke-width="2" fill="none" />
<path d="M290.5,459.0,282.5,459.5,274.5,460.0,266.5,460.0,259.0,461.0,251.5,461.5,244.5,462.0,237.0,462.5,229.0,463.0" stroke="black" stroke-width="2" fill="none" />
<path d="M225.5,517.0,233.5,519.5" stroke="black" stroke-width="2" fill="none" />
<path d="M235.5,525.5,225.0,517.5" stroke="black" stroke-width="2" fill="none" />
<path d="M171.0,502.5,171.0,510.5,171.0,519.0,171.5,527.0,172.5,535.0,172.5,543.0,174.5,551.0,176.5,559.0,179.5,567.0,183.5,575.5,188.5,583.5,200.0,591.5,205.0,604.5,213.5,612.5,207.5,620.5,202.5,628.5,205.5,623.5,217.0,625.0,225.5,629.0,233.5,630.5,241.5,631.0,249.5,631.5,257.5,632.5,265.5,632.0,273.5,632.0,281.5,631.0,289.5,629.0,297.5,625.0" stroke="black" stroke-width="2" fill="none" />
<path d="M302.5,612.5,294.5,614.5,287.0,617.5,285.5,621.0,277.0,624.0,268.5,627.0,260.5,627.5,253.0,627.5,245.0,626.0,237.0,624.5,229.5,621.0,221.5,617.5,220.5,614.0,212.5,610.0,204.0,602.0,198.5,589.5,190.5,584.5,182.0,573.5,174.0,554.5" stroke="black" stroke-width="2" fill="none" />
<path d="M194.5,659.0,199.5,667.0,213.0,675.0" stroke="black" stroke-width="2" fill="none" />
<path d="M293.5,497.5,296.0,488.5,299.0,484.5,295.0,478.0,293.0,470.0,290.0,462.5,286.5,455.0,292.5,453.0" stroke="black" stroke-width="2" fill="none" />
<path d="M296.5,424.5,288.5,417.0" stroke="black" stroke-width="2" fill="none" />
<path d="M300.5,410.5,299.0,402.5,288.0,399.0" stroke="black" stroke-width="2" fill="none" />
<path d="M288.5,392.0,296.5,387.0,303.0,395.5,302.5,403.5,307.5,411.5" stroke="black" stroke-width="2" fill="none" />
<path d="M310.0,410.0,305.5,402.0,294.5,396.5,294.5,391.5" stroke="black" stroke-width="2" fill="none" />
<path d="M283.5,383.5,275.5,384.0,268.0,384.5,260.0,385.0,252.0,386.0,243.5,386.5,236.0,387.5,227.5,388.0,219.0,388.0,210.5,388.5,202.5,388.5" stroke="black" stroke-width="2" fill="none" />
<path d="M204.5,385.0,212.5,384.0,215.5,378.5,222.5,376.5" stroke="black" stroke-width="2" fill="none" />
<path d="M218.5,371.5,226.5,371.5,234.5,371.5,243.0,371.5,251.5,371.0,260.0,370.5,268.5,370.5,276.5,370.0" stroke="black" stroke-width="2" fill="none" />
<path d="M284.0,363.0,292.0,363.0" stroke="black" stroke-width="2" fill="none" />
<path d="M290.0,363.0,290.0,370.5,296.0,375.5,293.0,376.5,299.5,385.0,302.5,393.0,295.5,392.5,293.5,401.0,292.5,409.0,303.0,408.0,308.5,413.0" stroke="black" stroke-width="2" fill="none" />
<path d="M274.0,390.0,266.0,390.5,258.0,391.0,250.5,391.5,243.5,391.5,236.0,392.5,228.5,393.0,221.5,393.5,213.5,394.0" stroke="black" stroke-width="2" fill="none" />
<path d="M212.0,393.5,220.0,386.0,228.5,378.0,236.5,370.5" stroke="black" stroke-width="2" fill="none" />
<path d="M236.5,378.0,229.0,379.0" stroke="black" stroke-width="2" fill="none" />
<path d="M228.0,384.5,236.0,384.5,244.5,384.0,252.5,384.0,260.0,384.0,268.0,383.0,276.5,382.5" stroke="black" stroke-width="2" fill="none" />
<path d="M282.5,376.5,274.5,377.0,266.5,378.0,258.5,378.5,250.0,379.0,242.5,380.0,235.5,380.5,228.0,380.5,220.5,380.5,213.0,381.0" stroke="black" stroke-width="2" fill="none" />
<path d="M222.0,386.0,217.5,374.0,224.5,376.5,225.5,366.5,218.5,367.5,210.5,365.5" stroke="black" stroke-width="2" fill="none" />
<path d="M214.0,358.0,222.5,362.5,230.5,365.5,238.5,362.5,239.5,366.5,236.0,370.5,243.0,374.0" stroke="black" stroke-width="2" fill="none" />
<path d="M250.5,379.5,258.5,378.5" stroke="black" stroke-width="2" fill="none" />
<path d="M243.0,355.5,251.0,353.5,259.5,359.5,265.0,369.5,270.0,369.5,274.0,361.0,275.0,364.0,287.0,355.0,295.0,371.5,303.5,394.0,311.5,411.0" stroke="black" stroke-width="2" fill="none" />
<path d="M295.5,380.5,287.5,377.0" stroke="black" stroke-width="2" fill="none" />
<path d="M290.5,373.0,286.5,372.0,283.0,364.5,289.0,363.5,286.5,355.5" stroke="black" stroke-width="2" fill="none" />
<path d="M286.5,354.0,281.5,362.0,283.5,370.0,290.5,378.5,293.5,387.0,292.0,395.0,284.5,393.5,283.5,397.5,296.0,408.5,300.0,417.0,302.0,425.0,307.0,432.5,307.0,440.5,311.0,448.5" stroke="black" stroke-width="2" fill="none" />
<path d="M308.5,447.0,304.5,431.0,296.0,411.5,285.0,408.5,280.0,400.5,278.5,392.5,279.5,384.5,273.5,376.5,266.5,368.5,263.5,368.0,257.0,365.0,252.0,356.5,243.0,359.5,235.0,358.5" stroke="black" stroke-width="2" fill="none" />
<path d="M227.0,364.0,219.5,364.0" stroke="black" stroke-width="2" fill="none" />
<path d="M215.0,358.5,212.0,366.5,214.5,374.5,219.5,382.5,223.5,384.5" stroke="black" stroke-width="2" fill="none" />
<path d="M201.0,380.5,206.5,386.0,199.5,388.0,193.5,394.5,198.0,402.5,203.0,409.5,207.0,416.0" stroke="black" stroke-width="2" fill="none" />
<path d="M200.0,407.5,199.0,400.0,191.0,393.5" stroke="black" stroke-width="2" fill="none" />
<path d="M195.0,394.0,201.0,402.5,199.0,412.5,197.0,414.0" stroke="black" stroke-width="2" fill="none" />
<path d="M197.5,299.0,205.5,300.5,213.5,302.0,221.5,302.0,229.5,302.0,237.5,302.0,245.0,302.0,253.0,302.0,261.0,302.0,268.5,302.0,276.5,302.0,284.5,302.0,293.0,300.5,301.0,299.5,309.0,298.5" stroke="black" stroke-width="2" fill="none" />
<path d="M301.5,291.0,309.5,283.0" stroke="black" stroke-width="2" fill="none" />
<path d="M299.0,284.5,291.0,292.0" stroke="black" stroke-width="2" fill="none" />
<path d="M298.0,280.0,305.5,279.0,313.5,278.0,322.0,277.0,330.0,276.0,338.0,275.5,347.0,274.0" stroke="black" stroke-width="2" fill="none" />
<path d="M355.5,275.5,363.0,275.5" stroke="black" stroke-width="2" fill="none" />
<path d="M330.5,284.5,322.5,285.0" stroke="black" stroke-width="2" fill="none" />
<path d="M299.0,270.5,307.0,270.0,314.5,269.0,323.0,268.5,331.0,267.0,339.5,266.5,347.5,266.0,355.5,265.5,363.5,265.0,371.5,265.0" stroke="black" stroke-width="2" fill="none" />
<path d="M388.0,257.0,380.0,258.0,372.5,258.0,364.5,258.0,356.0,258.5,348.0,259.0,340.0,260.0,332.0,261.0,324.0,261.0,316.0,261.5,308.5,262.0,300.0,262.0" stroke="black" stroke-width="2" fill="none" />
<path d="M293.0,252.5,300.5,252.0,308.5,251.5,316.5,251.5,325.0,251.5,333.0,251.5,340.5,250.5,347.5,249.5,355.5,249.0,363.5,249.5,371.5,249.0,379.5,248.0,387.5,247.0,395.0,246.0,402.5,245.0,410.5,244.0" stroke="black" stroke-width="2" fill="none" />
<path d="M380.5,133.0,388.0,124.5,395.5,116.0,403.5,108.5,411.0,101.0,419.0,93.0,426.5,85.0,434.5,77.5,442.5,70.5,450.0,63.0,458.0,55.5,465.5,48.5,474.0,41.0,482.5,33.0,491.0,25.5,499.0,18.0,507.0,10.5,514.5,3.0" stroke="black" stroke-width="2" fill="none" />
<path d="M507.0,4.5,499.0,11.5,491.0,18.5,483.5,26.0,476.0,33.5,468.0,42.0,460.0,49.5,451.5,56.5,444.0,64.5,436.5,72.5,428.5,79.5,420.0,87.5,412.5,95.0,404.5,102.5,396.0,110.0,388.0,118.0,380.0,125.0,372.0,132.0,364.0,139.0" stroke="black" stroke-width="2" fill="none" />
<path d="M437.5,108.0,446.0,101.0,454.0,94.0,461.5,87.0,469.5,79.5,477.0,73.0,485.5,65.5,493.5,58.5,501.5,51.5,510.0,44.5,518.0,37.0" stroke="black" stroke-width="2" fill="none" />
<path d="M515.5,44.0,508.0,51.5,499.5,59.0,492.0,67.0,484.0,75.0,476.0,82.5,468.0,90.0,460.0,97.5,452.0,104.5,444.0,111.5" stroke="black" stroke-width="2" fill="none" />
<path d="M491.5,98.5,499.5,90.5,507.0,82.5,515.0,74.5" stroke="black" stroke-width="2" fill="none" />
<path d="M516.0,68.0,507.5,75.0,499.0,83.0,490.5,90.5,482.5,97.5,474.5,104.5" stroke="black" stroke-width="2" fill="none" />
<path d="M460.5,112.5,467.5,105.5,475.0,98.0,483.0,91.0,491.0,83.5,499.0,76.0,507.5,68.0,515.0,60.5" stroke="black" stroke-width="2" fill="none" />
<path d="M517.5,54.0,509.5,61.0,501.5,68.0,493.0,75.5,484.5,83.0,476.5,90.5,468.0,98.0,460.0,106.0,451.5,113.5" stroke="black" stroke-width="2" fill="none" />
<path d="M421.0,115.5,430.0,108.0,438.0,100.5,446.0,93.0,454.0,86.0,461.5,79.5,469.0,72.5,476.5,65.5,484.5,58.0,492.0,50.0,500.0,42.5,508.0,35.5,516.0,28.5" stroke="black" stroke-width="2" fill="none" />
<path d="M514.5,20.0,506.5,28.0,498.5,35.0,490.5,42.0,482.5,49.5,475.0,57.0,468.0,63.5,460.5,70.5,453.0,77.5,445.0,84.5,437.5,92.0,429.0,99.5,421.0,108.0,413.0,116.0,404.0,124.0" stroke="black" stroke-width="2" fill="none" />
<path d="M394.5,122.5,402.5,115.0,411.0,107.5,419.0,100.5,427.0,93.0,435.5,85.5,443.0,78.0,451.0,70.5,459.0,63.0,467.5,56.0,476.0,48.5,483.5,41.0,491.5,33.5,499.5,26.0,507.5,19.0,515.5,11.5" stroke="black" stroke-width="2" fill="none" />
<path d="M499.0,4.0,491.0,11.5,483.5,19.5,476.0,27.5,468.0,34.5,460.0,42.0,452.0,50.0,444.5,57.5,436.5,65.0,428.0,73.0,420.0,80.5,412.5,88.0,404.5,95.0,396.5,102.5,389.0,109.5,380.0,116.5,371.5,123.5,363.0,131.0,354.5,138.5" stroke="black" stroke-width="2" fill="none" />
<path d="M346.5,137.5,354.5,131.0,362.5,123.5,371.0,116.5,379.5,109.0,387.0,101.0,395.5,93.5,403.5,86.0,411.5,79.0,419.5,71.5,427.5,64.0,436.0,56.5,444.0,49.0,451.5,41.5,459.5,34.0,467.0,27.0,475.0,19.5,483.5,12.0,491.5,5.0" stroke="black" stroke-width="2" fill="none" />
<path d="M483.0,4.0,474.5,11.5,466.5,19.0,459.0,26.5,451.0,34.0,443.0,41.0,435.0,48.0,427.0,55.0,418.5,62.0,410.5,69.0,403.0,76.5,395.0,84.0,386.5,91.5,378.5,99.0,370.5,106.5,362.5,113.5,354.5,121.0,346.0,129.5,338.0,137.0,330.0,144.5" stroke="black" stroke-width="2" fill="none" />
<path d="M322.5,143.0,330.5,135.5,338.5,128.0,346.5,121.5,354.5,114.0,362.5,106.5,370.5,99.0,378.5,92.0,387.0,84.5,395.0,77.5,403.0,70.0,411.0,62.5,419.0,55.0,427.5,47.0,435.5,39.0,443.5,32.0,452.0,25.0,460.0,18.0,468.0,10.5,476.0,3.0" stroke="black" stroke-width="2" fill="none" />
<path d="M469.0,4.0,460.5,11.5,452.0,19.0,443.5,26.5,435.0,34.0,426.5,41.5,418.5,49.0,410.5,57.5,402.0,65.0,394.0,72.5,385.5,79.5,378.5,87.0,371.0,94.0,363.5,101.0,356.0,108.0,348.5,115.0,340.0,122.0,332.0,129.5,323.5,137.0,315.0,144.0" stroke="black" stroke-width="2" fill="none" />
<path d="M308.5,146.0,317.0,138.0,324.5,130.5,332.0,123.0,340.0,115.5,348.0,108.5,355.5,100.5,363.0,93.0,371.0,86.0,379.5,78.5,387.5,70.5,395.0,63.0,403.0,55.5,411.0,49.0,419.0,41.5,427.0,34.0,435.5,26.0,444.0,19.0,451.5,11.5,459.0,4.0" stroke="black" stroke-width="2" fill="none" />
<path d="M451.0,2.5,443.5,9.5,435.0,17.0,427.0,24.5,419.5,33.0,411.0,41.0,402.5,48.0,394.0,55.5,386.0,63.0,378.0,70.0,369.5,77.5,362.0,85.5,354.0,92.5,346.0,100.0,338.0,108.0,330.0,115.5,322.0,122.5,314.5,130.0,306.5,138.0,299.0,146.0" stroke="black" stroke-width="2" fill="none" />
<path d="M285.0,153.5,293.0,145.5,301.0,138.0,308.5,130.0,316.0,122.5,324.0,115.0,332.0,107.0,339.5,100.0,347.0,92.5,355.0,85.5,363.0,78.0,371.0,71.0,378.5,63.5,386.5,56.0,395.0,48.0,402.5,40.0,410.5,33.0,418.0,25.0,426.0,17.5,433.5,9.5,441.5,2.0" stroke="black" stroke-width="2" fill="none" />
<path d="M435.0,5.0,427.0,12.0,419.0,19.5,411.0,27.0,403.0,34.5,395.0,42.0,387.5,49.5,379.5,56.5,371.5,64.0,364.0,71.0,356.0,79.0,347.5,86.0,339.0,94.0,330.5,101.5,322.5,108.5,314.5,115.5,307.0,123.5,300.0,131.0,292.5,138.5,285.5,146.0,278.0,154.0" stroke="black" stroke-width="2" fill="none" />
<path d="M268.5,150.5,276.5,149.5,285.0,149.0,292.5,148.5,300.0,148.0,307.5,147.5,315.0,147.5,323.5,147.0,331.0,146.5,339.0,146.0,347.0,146.0,355.0,145.5,363.5,144.5,371.5,143.5,380.5,143.5,388.5,143.0,396.0,142.0,403.5,141.0,411.0,140.0,419.0,139.5,427.0,139.0,435.0,138.0,443.0,138.0,451.0,138.0,459.0,138.0,466.5,137.5,474.5,137.5,482.0,137.0,490.0,136.5,497.5,136.0,505.5,135.5,513.5,134.5" stroke="black" stroke-width="2" fill="none" />
<path d="M404.0,55.5,396.0,55.5,388.5,56.0" stroke="black" stroke-width="2" fill="none" />
<path d="M379.0,57.5,371.5,57.5,363.5,58.0" stroke="black" stroke-width="2" fill="none" />
<path d="M325.0,48.5,332.5,48.0,340.5,47.5,348.0,47.0,355.5,47.0,363.0,47.0,370.5,47.0,378.0,47.5,385.5,47.0,393.5,46.0,401.5,45.5,409.5,45.5,418.5,45.5,427.0,45.5,435.0,45.0,443.5,44.5,452.0,44.0" stroke="black" stroke-width="2" fill="none" />
<path d="M428.5,4.0,420.5,11.5,413.0,19.0,405.5,26.5,398.0,34.5,390.0,42.0,381.5,49.5,373.0,57.0,365.0,65.0,357.0,73.0,349.5,81.0,341.5,88.0,333.5,95.0,325.0,102.5,316.5,110.0,308.5,117.5,300.0,125.0,292.0,133.0,283.5,140.5,276.0,148.0,267.5,155.5" stroke="black" stroke-width="2" fill="none" />
<path d="M261.0,156.0,253.0,163.5" stroke="black" stroke-width="2" fill="none" />
<path d="M251.5,162.0,259.0,161.5" stroke="black" stroke-width="2" fill="none" />
<path d="M261.0,164.5,253.0,172.5" stroke="black" stroke-width="2" fill="none" />
<path d="M253.5,170.5,261.5,170.0" stroke="black" stroke-width="2" fill="none" />
<path d="M259.0,173.5,251.0,181.0" stroke="black" stroke-width="2" fill="none" />
<path d="M252.0,182.0,259.5,181.5" stroke="black" stroke-width="2" fill="none" />
<path d="M260.0,179.5,252.0,187.0" stroke="black" stroke-width="2" fill="none" />
<path d="M254.0,188.0,261.5,187.0" stroke="black" stroke-width="2" fill="none" />
<path d="M260.0,187.5,252.0,195.5" stroke="black" stroke-width="2" fill="none" />
<path d="M252.0,194.0,260.0,193.0" stroke="black" stroke-width="2" fill="none" />
<path d="M257.5,195.0,250.0,202.5" stroke="black" stroke-width="2" fill="none" />
<path d="M253.0,202.5,261.0,202.0" stroke="black" stroke-width="2" fill="none" />
<path d="M257.0,202.5,249.5,210.0" stroke="black" stroke-width="2" fill="none" />
<path d="M251.0,210.0,259.5,209.0" stroke="black" stroke-width="2" fill="none" />
<path d="M258.5,211.0,250.5,218.0" stroke="black" stroke-width="2" fill="none" />
<path d="M251.0,215.5,259.5,215.0" stroke="black" stroke-width="2" fill="none" />
<path d="M259.5,218.0,251.5,225.5" stroke="black" stroke-width="2" fill="none" />
<path d="M250.0,225.5,258.5,225.0" stroke="black" stroke-width="2" fill="none" />
<path d="M268.5,226.5,260.0,233.5,252.0,241.5" stroke="black" stroke-width="2" fill="none" />
<path d="M252.0,243.0,259.5,243.0" stroke="black" stroke-width="2" fill="none" />
<path d="M268.0,243.0,260.5,250.5,252.5,257.0" stroke="black" stroke-width="2" fill="none" />
<path d="M252.0,257.5,260.5,257.0,268.5,256.5" stroke="black" stroke-width="2" fill="none" />
<path d="M268.5,257.0,261.0,265.0,253.0,272.5" stroke="black" stroke-width="2" fill="none" />
<path d="M251.5,273.5,259.5,273.0,267.0,273.0" stroke="black" stroke-width="2" fill="none" />
<path d="M269.0,274.5,261.0,282.0,252.5,289.5" stroke="black" stroke-width="2" fill="none" />
<path d="M259.5,291.0,267.5,283.0" stroke="black" stroke-width="2" fill="none" />
<path d="M252.5,280.5,261.0,273.0,268.5,266.0" stroke="black" stroke-width="2" fill="none" />
<path d="M268.5,251.0,261.0,258.0,253.0,265.5" stroke="black" stroke-width="2" fill="none" />
<path d="M252.0,266.5,260.5,266.0,268.5,265.5" stroke="black" stroke-width="2" fill="none" />
<path d="M266.0,282.0,257.5,282.0,249.5,282.5" stroke="black" stroke-width="2" fill="none" />
<path d="M244.5,277.0,252.5,276.0,260.5,275.5,269.0,275.0" stroke="black" stroke-width="2" fill="none" />
<path d="M268.0,267.0,260.5,268.0,252.5,269.5,245.0,270.0" stroke="black" stroke-width="2" fill="none" />
<path d="M244.5,261.0,252.0,261.0,260.0,260.5,267.5,260.5" stroke="black" stroke-width="2" fill="none" />
<path d="M267.0,249.0,259.5,249.5,251.5,250.0" stroke="black" stroke-width="2" fill="none" />
<path d="M250.5,248.0,259.0,241.0,267.5,233.0" stroke="black" stroke-width="2" fill="none" />
<path d="M268.0,220.0,260.0,227.0,251.5,234.0" stroke="black" stroke-width="2" fill="none" />
<path d="M252.0,235.0,260.0,234.5" stroke="black" stroke-width="2" fill="none" />
<path d="M265.5,244.0,257.5,244.0,250.0,245.0,242.0,245.5" stroke="black" stroke-width="2" fill="none" />
<path d="M242.5,253.0,250.5,253.0,259.0,252.5,267.5,252.0" stroke="black" stroke-width="2" fill="none" />
<path d="M267.5,236.0,260.0,237.0,252.0,237.5,244.5,238.0" stroke="black" stroke-width="2" fill="none" />
<path d="M245.0,228.5,252.5,228.0,260.5,228.5,268.0,228.5" stroke="black" stroke-width="2" fill="none" />
<path d="M282.5,227.0,291.0,227.0,298.5,227.0,306.5,226.5,314.5,226.0,322.5,226.0,331.0,225.5,339.0,225.5,347.5,226.0,355.5,225.5,363.5,225.0,372.0,224.5,380.0,224.0,388.5,223.5,397.0,223.0,405.0,222.0,412.5,221.5,420.5,220.5,428.5,220.5,437.0,220.0" stroke="black" stroke-width="2" fill="none" />
<path d="M411.0,237.0,403.0,237.5,395.5,238.0,387.5,238.0,379.5,238.5,371.5,238.5,363.5,239.5,355.0,239.5,347.0,240.0,338.5,240.5,330.5,240.5,322.5,241.0,315.0,241.5,307.5,242.5,300.0,243.0,292.5,243.5" stroke="black" stroke-width="2" fill="none" />
<path d="M288.5,246.0,290.5,254.0" stroke="black" stroke-width="2" fill="none" />
<path d="M291.5,237.0,299.5,236.0,307.5,235.0,315.0,234.0,322.5,233.0,330.5,232.5,339.0,232.5,347.5,232.5,356.0,232.5,364.0,231.5,372.5,231.0,380.0,230.5,388.0,230.5,396.0,230.0,404.0,229.5,411.5,229.0,419.5,228.5,427.0,228.0" stroke="black" stroke-width="2" fill="none" />
<path d="M453.0,212.0,445.0,212.5,437.0,213.0,429.0,213.5,420.5,214.0,412.0,213.5,403.5,214.0,395.5,214.5,387.0,216.0,379.0,216.5,371.5,216.5,363.5,217.0,355.5,217.0,347.5,217.5,339.5,218.0,331.5,218.5,323.0,218.5,315.0,219.0,306.5,219.5,298.5,219.5,290.0,219.0,282.0,219.5" stroke="black" stroke-width="2" fill="none" />
<path d="M282.5,213.5,290.5,212.5,299.0,212.0,307.0,211.5,315.5,210.5,323.5,210.0,332.0,209.5,340.0,209.5,347.5,209.0,355.0,207.5,362.5,207.0,371.0,207.0,379.0,207.0,387.5,207.0,396.0,206.0,404.5,206.0,412.0,205.5,420.0,205.5,428.0,205.0,435.5,205.0,443.0,204.5,451.5,204.0,460.0,203.0" stroke="black" stroke-width="2" fill="none" />
<path d="M466.5,193.0,458.5,193.5,450.5,194.5,443.0,195.5,435.0,196.0,427.5,196.5,419.5,197.0,411.5,197.0,403.5,197.5,395.0,197.0,387.0,197.5,379.0,198.0,371.0,198.5,363.5,198.5,355.0,199.5,347.0,199.5,339.0,200.0,331.0,200.5,322.5,201.0,315.0,202.5,307.0,203.5,299.5,204.5,291.5,205.5,283.5,207.0" stroke="black" stroke-width="2" fill="none" />
<path d="M276.0,199.5,284.0,199.0,291.5,198.0,299.5,197.0,308.0,197.0,316.0,196.0,323.5,195.0,331.0,194.5,339.0,193.5,347.0,192.5,354.5,192.5,363.0,191.5,371.5,191.0,379.5,190.5,387.5,190.0,395.5,189.5,403.5,189.5,411.0,189.0,419.0,188.5,427.0,187.5,435.0,187.0,443.0,187.0,451.0,187.5,459.5,187.0,468.0,186.5,476.5,186.0" stroke="black" stroke-width="2" fill="none" />
<path d="M420.5,5.0,412.0,12.5,404.0,20.0,396.5,27.5,388.5,34.5,380.0,41.5,372.5,49.5,364.5,57.5,356.5,65.0,348.0,72.0,339.5,79.0,332.0,86.5,323.5,94.0,316.0,102.0,308.0,110.0,300.0,117.5,292.0,125.0,284.0,132.5,276.0,139.5,268.0,146.5" stroke="black" stroke-width="2" fill="none" />
<path d="M268.5,141.5,276.5,141.0,284.0,140.5,291.5,140.0,300.0,140.5,308.0,140.5,316.0,140.5,323.5,140.0,331.5,139.5,339.5,138.5,348.0,137.5,355.5,137.0,363.5,136.5,371.0,136.0,379.0,135.5,387.0,135.0,395.0,134.5,402.5,133.5,410.5,132.5,418.5,132.5,426.0,131.5,435.0,131.0,443.5,130.5,451.5,130.5,459.0,131.0,466.5,131.0,475.0,130.5,483.5,129.5,491.5,129.5,499.5,129.0,507.5,128.5,515.0,128.0" stroke="black" stroke-width="2" fill="none" />
<path d="M411.5,4.0,403.5,11.5,395.0,19.5,386.5,26.5,378.0,34.5,370.0,42.0,362.5,49.0,355.0,56.5,347.5,64.0,340.0,72.0,332.0,79.5,324.0,86.5,316.0,93.5,308.0,101.0,300.5,109.0,292.5,116.5,285.0,123.5,277.5,130.5,270.0,137.0" stroke="black" stroke-width="2" fill="none" />
<path d="M267.0,130.0,275.5,123.0,284.0,115.5,291.5,108.0,299.5,100.5,307.5,93.0,315.5,86.0,323.5,78.5,331.5,71.0,338.5,63.0,346.5,55.5,354.0,48.5,362.5,41.5,370.0,33.5,378.0,26.0,386.0,18.0,394.5,10.5,403.0,2.5" stroke="black" stroke-width="2" fill="none" />
<path d="M394.0,4.0,386.5,12.0,379.0,19.5,370.5,27.5,362.5,35.0,354.0,42.5,346.5,49.5,338.0,57.0,330.0,64.0,322.5,71.0,314.5,78.0,307.0,85.5,299.0,93.0,291.0,100.5,282.5,108.0,274.0,116.0,265.5,123.5" stroke="black" stroke-width="2" fill="none" />
<path d="M260.0,124.5,268.0,117.0,276.0,108.5,283.5,101.0,291.0,93.5,299.0,86.5,307.0,79.5,315.5,72.0,323.5,64.5,331.5,57.0,339.0,49.5,346.5,42.0,355.0,34.5,363.0,27.0,371.0,19.0,379.0,11.0,387.0,3.5" stroke="black" stroke-width="2" fill="none" />
<path d="M379.0,3.5,370.5,11.0,362.0,18.5,354.0,25.5,345.5,33.0,338.0,40.0,330.0,48.0,323.0,55.5,315.0,63.5,306.5,71.0,299.0,79.0,291.0,86.5,283.5,94.5,276.0,102.5,268.0,109.5,260.0,117.0,252.0,125.0" stroke="black" stroke-width="2" fill="none" />
<path d="M255.5,131.0,248.0,130.0,240.0,138.5" stroke="black" stroke-width="2" fill="none" />
<path d="M233.0,138.5,225.0,146.0" stroke="black" stroke-width="2" fill="none" />
<path d="M226.5,153.5,234.5,146.0" stroke="black" stroke-width="2" fill="none" />
<path d="M236.5,154.0,228.0,161.0" stroke="black" stroke-width="2" fill="none" />
<path d="M227.0,181.0,219.0,180.5,211.0,180.5,203.5,181.0,195.5,182.5,187.0,183.5,179.5,184.5,171.0,185.0,163.0,185.5,155.5,185.5,148.0,186.0,141.0,187.0,133.5,188.0,125.5,189.0,117.5,189.5,109.0,190.0,101.0,191.0,93.0,191.0" stroke="black" stroke-width="2" fill="none" />
<path d="M100.0,199.0,108.0,198.0,116.0,197.5,124.0,196.5,132.0,196.0,140.0,195.0,148.0,194.5,156.0,193.5,164.0,193.0,172.0,192.5,180.0,192.0,188.5,192.0,196.5,191.0,204.5,190.5,212.5,189.5,220.5,189.0,228.0,189.5" stroke="black" stroke-width="2" fill="none" />
<path d="M244.0,204.0,252.0,203.5,260.0,203.5,268.0,203.5" stroke="black" stroke-width="2" fill="none" />
<path d="M268.0,198.0,261.0,198.5,253.0,199.0" stroke="black" stroke-width="2" fill="none" />
<path d="M252.5,189.5,260.0,189.0,268.0,188.5" stroke="black" stroke-width="2" fill="none" />
<path d="M276.5,189.5,284.5,189.0,292.5,188.0,300.5,187.5,309.0,187.0,316.5,186.5,324.0,186.0,332.0,185.5,340.0,184.5,348.0,184.0,356.0,183.5,364.0,183.0,372.0,183.0,379.5,183.0,387.0,183.0,394.5,183.0,402.5,182.5,410.5,181.5,418.5,181.0,426.5,179.5,434.5,179.0,443.0,179.0,451.5,179.0,460.0,178.5,468.5,178.5,476.5,178.0,484.5,177.5" stroke="black" stroke-width="2" fill="none" />
<path d="M370.5,6.0,362.5,13.5,355.0,20.5,347.5,27.5,338.5,34.5,330.0,42.0,322.0,49.5,314.5,56.5,306.5,64.0,298.5,71.5,291.0,79.0,282.5,86.5,274.5,94.0,267.0,101.5,259.0,109.0,251.0,116.0,243.0,123.0" stroke="black" stroke-width="2" fill="none" />
<path d="M241.5,128.0,233.5,128.0,225.5,128.0,217.5,128.5,209.5,129.0,201.5,129.5,193.5,130.0,186.0,130.5,178.5,130.5,170.5,130.5,162.0,130.5,153.5,131.0,146.0,131.5,138.5,132.0,130.5,133.0,122.5,133.5,114.5,134.5,106.5,134.5,98.0,135.0,90.0,135.5,81.5,136.0,74.0,137.0,65.5,137.5,57.0,139.5,49.0,140.5,41.0,142.0,33.0,142.5" stroke="black" stroke-width="2" fill="none" />
<path d="M25.5,132.5,33.5,131.5,42.0,131.5,50.5,131.0,58.5,131.0,66.5,130.0,74.5,129.5,82.5,129.0,90.5,129.0,98.5,128.5,106.5,128.0,115.0,127.5,123.5,127.0,132.0,126.0,140.0,125.5,147.5,125.0,155.5,124.5,163.5,124.0,171.0,124.0,178.5,124.0,186.5,124.0,194.5,123.0,202.5,122.5,211.0,121.5,219.0,121.0,227.0,120.0,235.0,120.0,243.0,120.0" stroke="black" stroke-width="2" fill="none" />
<path d="M255.5,131.5,263.5,139.5,265.5,147.0,264.5,155.0,266.0,163.0,268.0,171.0,269.5,179.0,271.0,186.5,272.5,194.5,274.5,202.5,276.5,210.5,277.5,218.5,280.0,227.0,282.0,235.0,284.0,243.0,286.0,250.5,288.0,258.5,293.0,266.5,295.0,274.5,298.5,282.5,314.5,291.5,314.5,299.0,317.0,307.0,318.0,315.0,319.5,323.0,321.0,331.0,322.5,338.5,323.5,346.5,325.5,354.5,326.0,362.5,328.0,370.5,329.5,378.5" stroke="black" stroke-width="2" fill="none" />
<path d="M282.5,290.0,274.5,290.5,266.5,291.0,259.0,291.5,251.5,292.0,243.0,292.5,234.0,293.0,225.5,293.0,217.5,293.0,209.0,293.5" stroke="black" stroke-width="2" fill="none" />
<path d="M203.0,292.5,210.5,285.5" stroke="black" stroke-width="2" fill="none" />
<path d="M197.5,291.0,205.5,292.0,213.5,293.5,221.5,295.0,229.5,294.5,237.5,295.0,245.5,295.0,253.0,295.0,260.5,294.0,268.0,293.5,276.0,294.0,284.5,292.5,292.5,291.5,301.0,290.5,309.0,289.0" stroke="black" stroke-width="2" fill="none" />
<path d="M269.0,219.5,261.0,220.0,253.0,220.5,245.5,220.5" stroke="black" stroke-width="2" fill="none" />
<path d="M244.0,212.5,252.0,212.0,260.0,211.5,267.5,211.0" stroke="black" stroke-width="2" fill="none" />
<path d="M278.0,179.5,286.0,179.0,293.5,178.5,301.5,178.0,309.5,177.5,317.0,177.5,325.0,177.5,333.0,177.5,341.0,177.5,349.0,177.5,357.0,177.0,365.0,176.5,373.0,176.0,381.0,175.5,388.5,175.5,395.5,175.5,403.5,174.5,411.0,173.5,418.5,172.5,426.5,172.5,434.5,172.0,442.5,171.5,450.5,170.5,459.0,170.0,467.5,169.0,475.5,168.5,483.5,168.5,491.0,168.0,499.0,168.0" stroke="black" stroke-width="2" fill="none" />
<path d="M363.5,4.5,355.5,12.0,347.5,19.5,339.5,26.5,331.0,34.5,323.0,42.0,315.0,49.5,307.0,57.0,299.5,64.0,292.0,70.5,284.0,78.0,276.0,85.5,268.0,93.0,260.0,100.0,251.5,107.0,243.5,114.0,235.5,122.0,227.0,130.0,219.0,137.5" stroke="black" stroke-width="2" fill="none" />
<path d="M211.0,138.5,219.5,130.5,227.5,122.5,236.0,115.0,244.5,108.0,253.0,101.0,261.5,94.0,269.5,86.5,277.5,78.5,285.5,71.0,293.5,64.0,301.0,56.5,308.0,49.0,315.5,41.5,323.5,34.0,332.0,26.0,340.0,18.0,347.5,11.0,355.5,3.5" stroke="black" stroke-width="2" fill="none" />
<path d="M346.0,4.0,338.0,11.5,330.0,19.5,323.0,27.0,316.0,34.5,308.5,41.5,301.0,49.0,293.0,56.5,285.5,64.0,277.5,71.0,269.5,79.0,262.0,86.5,253.5,94.0,245.5,101.5,237.5,108.5,229.0,116.5,220.5,123.5,211.0,131.5,202.0,139.0" stroke="black" stroke-width="2" fill="none" />
<path d="M196.0,140.0,204.0,132.0,211.5,125.0,219.0,117.5,226.5,109.5,234.0,101.5,242.0,94.0,250.0,86.5,258.5,79.0,266.5,71.5,274.0,64.0,281.5,56.5,289.5,48.5,297.5,41.0,305.5,33.0,314.0,25.0,322.5,17.5,330.5,10.0,339.0,2.5" stroke="black" stroke-width="2" fill="none" />
<path d="M331.5,2.5,323.5,10.0,315.5,17.5,308.0,25.5,300.0,33.5,292.0,41.5,283.5,49.5,275.0,57.5,267.0,65.0,258.5,72.0,250.0,79.5,242.0,87.0,234.0,95.0,226.0,102.0,217.5,109.0,209.5,116.0,201.5,123.5,193.5,131.5" stroke="black" stroke-width="2" fill="none" />
<path d="M186.5,132.0,195.0,125.0,203.5,117.5,211.5,110.5,220.0,103.0,228.5,96.0,236.5,88.5,245.0,80.5,252.0,73.0,259.5,65.5,267.0,57.5,275.5,49.0,284.0,41.0,292.0,33.5,300.0,26.0,309.0,18.0,317.5,10.5,326.0,2.5" stroke="black" stroke-width="2" fill="none" />
<path d="M317.0,2.0,308.5,9.5,300.5,17.5,292.5,26.0,285.0,34.0,277.0,41.5,268.5,49.5,259.5,57.0,250.5,64.5,242.0,72.0,234.0,80.0,226.0,87.0,218.5,94.0,211.0,101.5,203.5,109.0,195.5,116.0,187.0,123.0,179.0,130.0" stroke="black" stroke-width="2" fill="none" />
<path d="M180.5,122.5,189.0,115.0,196.5,107.5,204.0,99.5,211.5,92.0,219.0,85.0,227.5,78.0,235.0,70.5,243.0,63.0,251.0,55.0,259.5,47.5,268.0,39.5,276.0,32.0,284.0,25.0,292.0,17.5,300.5,10.0,308.5,2.5" stroke="black" stroke-width="2" fill="none" />
<path d="M297.5,5.0,289.5,12.5,282.0,19.5,274.5,27.0,266.5,34.0,258.5,41.0,250.5,48.5,243.0,55.5,235.0,62.5,226.5,70.0,218.0,77.5,210.0,85.0,202.5,92.5,194.5,100.0,187.0,106.5,179.0,114.0" stroke="black" stroke-width="2" fill="none" />
<path d="M170.5,116.5,178.0,108.5,186.0,101.0,194.0,93.0,202.5,85.5,211.0,77.5,218.5,70.0,226.0,63.0,234.5,55.5,242.5,48.0,250.5,40.5,258.5,33.0,267.0,26.0,275.5,18.5,283.5,11.0,291.5,3.0" stroke="black" stroke-width="2" fill="none" />
<path d="M281.5,5.5,273.5,13.0,266.0,20.0,258.5,27.5,250.5,35.0,242.5,42.0,234.5,49.5,226.5,56.0,219.0,63.0,211.5,70.0,203.5,77.5,195.5,85.5,187.5,93.5,179.5,101.5,171.5,109.0,163.5,117.0" stroke="black" stroke-width="2" fill="none" />
<path d="M156.5,115.0,164.5,107.5,172.0,100.5,180.0,93.0,188.0,85.5,195.5,78.5,203.5,71.0,212.0,64.0,220.0,56.5,228.0,49.5,236.0,42.0,243.5,34.5,251.0,27.0,259.5,19.0,267.5,11.0,276.0,3.5" stroke="black" stroke-width="2" fill="none" />
<path d="M269.0,3.5,260.5,11.0,251.5,18.5,243.5,26.5,235.0,33.5,226.5,41.0,219.0,48.5,211.5,56.0,203.5,63.0,195.5,70.5,187.5,78.0,179.5,86.0,171.5,93.5,163.0,101.0,154.5,108.0" stroke="black" stroke-width="2" fill="none" />
<path d="M155.0,100.5,163.0,93.5,170.5,86.5,178.5,79.0,187.0,71.5,195.0,63.5,203.0,56.0,211.5,48.5,220.0,41.0,227.5,34.0,235.5,27.0,244.0,19.5,252.5,11.5,260.5,3.5" stroke="black" stroke-width="2" fill="none" />
<path d="M251.5,5.5,243.0,13.0,235.0,20.0,227.0,27.5,219.5,35.0,211.5,42.5,203.0,50.0,194.0,57.0,185.5,64.5,177.0,72.0,168.5,79.0,161.0,86.5,154.0,93.5,146.5,100.5" stroke="black" stroke-width="2" fill="none" />
<path d="M147.5,94.0,155.5,86.0,164.0,78.5,171.5,71.0,179.0,63.5,187.0,56.0,195.0,48.5,203.0,41.5,211.5,34.0,220.0,27.0,228.5,19.5,237.0,12.5,245.0,5.0" stroke="black" stroke-width="2" fill="none" />
<path d="M244.5,9.0,253.5,8.5,261.5,8.0,269.5,7.5,277.0,7.0,285.0,7.0,293.5,7.0,301.5,7.0,309.5,7.0,317.5,7.5,326.0,7.0,333.5,6.0,341.0,5.0,348.5,4.0,356.0,3.5,363.5,2.5,371.5,1.5,379.0,0.0,386.5,-1.0,394.5,-2.0,402.0,-2.5,410.0,-3.0,418.5,-2.5,426.5,-2.5,435.0,-3.0,443.0,-3.5,451.5,-3.5,459.5,-4.0,467.5,-4.5,475.5,-5.0,483.5,-5.0,491.5,-5.5,499.0,-5.5,507.0,-6.0,515.5,-7.5" stroke="black" stroke-width="2" fill="none" />
<path d="M460.0,29.0,451.5,29.5,443.5,30.0,435.5,31.0,427.5,31.5,420.0,32.5,412.0,33.5,404.5,34.5,396.0,34.5,388.0,35.0,380.0,35.5,371.5,36.5,363.5,37.0,355.5,37.5,347.0,38.0,339.0,38.0,331.0,39.0,323.0,39.5,315.0,40.0,307.0,40.5,299.5,41.0,291.5,41.5,284.0,42.0" stroke="black" stroke-width="2" fill="none" />
<path d="M285.0,33.0,293.0,32.5,300.5,32.5,308.5,32.0,316.5,32.0,324.5,32.0,332.0,31.5,339.5,31.0,347.0,30.5,355.0,29.5,362.5,28.5,371.5,28.0,380.0,27.5,388.0,27.0,395.5,26.5,403.5,26.0,412.0,25.0,420.0,24.5,428.5,23.5,437.0,23.0,444.5,22.0,453.0,21.5,460.0,21.5,467.5,20.5" stroke="black" stroke-width="2" fill="none" />
<path d="M509.0,159.0,501.5,159.5,494.0,161.0,486.0,161.5,477.5,161.5,469.0,161.5,461.0,161.5,453.0,162.0,444.5,161.5,436.5,161.5,429.0,162.0,420.5,162.5,412.5,163.0,404.5,164.0,395.5,164.5,387.5,165.5,379.0,166.5,370.5,167.0,362.0,168.0,353.0,168.5,345.0,169.0,337.5,169.5,330.0,170.5,322.5,171.0,314.5,171.5,307.0,172.0,299.0,172.5,291.0,173.5,283.0,174.5,274.5,175.0,266.5,176.0" stroke="black" stroke-width="2" fill="none" />
<path d="M266.0,167.5,274.5,166.5,283.0,166.0,291.0,165.5,299.0,165.0,307.5,165.0,315.0,164.0,323.0,163.0,330.5,162.0,338.0,161.5,345.5,160.5,354.0,160.5,362.5,160.5,371.0,160.0,379.0,158.5,387.5,157.5,395.5,157.0,403.5,156.5,412.0,155.5,420.0,154.5,428.0,154.0,436.0,153.5,443.5,153.0,451.5,152.5,459.5,152.0,468.0,152.0,475.5,152.5,483.5,152.0,492.0,152.0,500.0,151.0,508.5,150.5,516.5,150.5" stroke="black" stroke-width="2" fill="none" />
<path d="M516.5,118.5,509.0,119.5,501.0,120.0,493.0,120.5,485.0,121.0,477.0,121.0,469.5,121.5,461.0,122.0,453.0,122.5,444.5,122.5,436.0,122.5,428.0,123.0,420.0,124.0,412.0,124.5,403.5,125.0,395.0,125.5,387.0,126.0,378.5,126.5,371.0,127.0,363.0,127.0,355.0,127.0,346.5,127.5,338.5,128.0,330.5,128.5,323.0,129.0,315.5,130.0,307.5,130.0,299.5,130.0,291.5,130.5,283.5,131.0,276.0,132.0,268.5,133.0,261.0,134.0" stroke="black" stroke-width="2" fill="none" />
<path d="M259.5,148.0,251.5,148.0" stroke="black" stroke-width="2" fill="none" />
<path d="M248.0,150.5,256.0,150.5,248.0,155.5,247.0,163.0,247.0,171.0,247.0,178.5,247.0,186.5,246.0,194.5,246.0,202.0,246.0,210.0,246.0,218.5,245.0,226.5,245.0,234.0,245.0,242.0,244.5,250.0,244.5,258.0,243.5,266.0,243.5,274.0,244.5,282.5,249.5,283.5,257.5,282.5,265.5,282.5" stroke="black" stroke-width="2" fill="none" />
<path d="M210.5,266.5,202.5,267.5" stroke="black" stroke-width="2" fill="none" />
<path d="M210.5,260.5,203.0,261.0,195.5,261.5,188.0,262.5" stroke="black" stroke-width="2" fill="none" />
<path d="M171.0,255.0,179.0,254.0,187.0,253.5,194.5,252.5,202.0,251.5,210.5,250.5,218.0,249.5" stroke="black" stroke-width="2" fill="none" />
<path d="M195.0,284.5,203.5,284.0,211.5,284.0,219.5,283.5,228.0,283.5,236.5,283.0,244.5,283.0,252.5,282.5,260.5,282.0,268.0,281.5,276.0,281.0,284.5,280.5,292.5,280.0,301.0,279.5,309.0,279.0,316.5,278.0" stroke="black" stroke-width="2" fill="none" />
<path d="M258.5,175.0,250.5,175.5" stroke="black" stroke-width="2" fill="none" />
<path d="M251.0,173.5,259.0,173.0" stroke="black" stroke-width="2" fill="none" />
<path d="M259.5,165.5,251.5,166.0" stroke="black" stroke-width="2" fill="none" />
<path d="M251.5,155.0,259.5,155.0,268.0,155.0,276.5,155.0,284.5,155.5,293.0,155.0,301.0,155.0,309.5,155.0,317.5,154.5,324.5,153.5,332.5,152.5,340.5,152.0,348.5,151.0,356.5,150.5,365.0,150.0,372.5,149.5,380.0,149.0,388.0,148.5,396.0,147.5,404.0,147.0,412.0,146.5,420.0,146.0,428.0,146.0,435.5,146.0,443.0,146.0,450.5,146.0,458.5,145.5,466.5,144.5,474.5,144.0,482.5,142.5,490.5,142.0,499.0,142.0,507.5,142.0,516.0,141.5" stroke="black" stroke-width="2" fill="none" />
<path d="M476.5,14.0,468.0,15.0,459.5,15.5,451.0,16.0,443.0,16.5,434.5,16.5,425.5,16.5,417.5,16.5,409.5,17.0,401.5,18.0,394.0,18.5,386.5,18.0,379.0,18.0,371.5,18.0,364.0,18.0,356.5,18.5,348.5,19.0,341.0,19.5,333.0,20.5,325.0,21.0,317.0,21.5,308.5,22.0,300.5,22.5,292.5,23.5,284.5,24.5,276.5,25.5,268.5,26.5,260.5,27.0" stroke="black" stroke-width="2" fill="none" />
<path d="M252.0,16.5,260.0,16.0,267.5,15.5,275.5,15.0,283.0,14.5,290.5,14.5,299.0,14.5,307.5,14.0,315.5,14.0,323.5,13.5,332.0,13.5,340.0,12.5,348.0,12.0,356.0,11.0,364.0,10.0,372.5,9.5,380.5,9.0,388.5,9.0,396.5,9.0,404.5,9.0,412.5,9.0,420.0,8.0,427.5,7.0,435.5,6.5,443.5,6.5,451.5,6.0,459.5,5.0,467.0,3.5,475.0,2.5,482.5,1.5" stroke="black" stroke-width="2" fill="none" />
<path d="M234.0,2.0,226.0,9.5,218.0,17.0,210.0,24.5,202.0,31.5,194.5,39.0,187.0,46.5,180.5,54.5,173.0,62.5,165.0,70.0,157.0,77.5,149.0,85.0" stroke="black" stroke-width="2" fill="none" />
<path d="M148.5,76.0,157.0,68.5,165.0,61.0,172.5,53.0,180.5,46.0,188.5,38.0,197.0,30.5,204.5,23.5,213.0,16.5,221.0,9.5,229.0,2.5" stroke="black" stroke-width="2" fill="none" />
<path d="M218.0,3.0,210.5,10.5,203.5,18.5,195.5,25.0,187.0,31.5,179.0,39.0,171.0,46.5,163.0,54.0,155.0,61.5,147.0,68.5" stroke="black" stroke-width="2" fill="none" />
<path d="M140.0,69.5,147.5,61.5,155.0,54.0,162.5,46.5,170.5,39.5,179.0,32.5,187.5,25.0,195.5,17.5,203.0,10.5,211.0,3.5" stroke="black" stroke-width="2" fill="none" />
<path d="M205.0,4.5,197.0,12.0,189.0,19.5,181.0,27.0,173.0,34.0,165.0,41.5,157.0,49.5,149.0,57.5,141.0,65.5" stroke="black" stroke-width="2" fill="none" />
<path d="M139.0,54.5,147.5,47.0,156.0,40.5,163.5,33.0,170.5,25.0,178.5,17.5,186.5,10.5,195.0,3.5" stroke="black" stroke-width="2" fill="none" />
<path d="M188.5,2.0,181.0,9.5,172.0,17.5,163.5,24.5,154.5,32.0" stroke="black" stroke-width="2" fill="none" />
<path d="M155.5,27.0,163.0,19.5,171.0,11.0,179.0,3.0" stroke="black" stroke-width="2" fill="none" />
<path d="M170.5,4.0,162.5,11.5,154.5,18.5" stroke="black" stroke-width="2" fill="none" />
<path d="M148.5,17.5,156.5,9.5,165.0,2.0" stroke="black" stroke-width="2" fill="none" />
<path d="M154.0,3.5,147.0,11.0" stroke="black" stroke-width="2" fill="none" />
<path d="M5.5,14.0,14.0,13.5,22.0,12.5,29.5,12.0,37.5,11.5,45.0,11.0,52.0,10.0,59.0,9.5,66.5,9.0,74.5,8.0,82.5,7.5,90.5,7.5,99.0,7.0,107.5,6.5,115.5,6.0,123.5,5.0,131.5,5.0,139.5,4.0,147.0,3.5,155.0,3.0,162.5,2.5,170.5,2.5,179.0,2.0,187.5,2.0,196.0,1.5,203.5,0.5,212.0,0.0,220.0,-1.0,228.0,-1.5,235.5,-2.0,243.5,-2.5,252.0,-3.0,260.0,-3.5,268.0,-3.5,276.0,-3.0,284.0,-3.5,291.5,-4.0,299.5,-5.0,307.5,-5.5,315.0,-6.5,322.5,-7.0,330.5,-7.0,339.0,-7.5,347.5,-8.0,355.0,-8.0,363.0,-8.5,371.0,-9.0,379.0,-9.5,386.5,-10.5,394.0,-11.0,402.0,-11.5,410.5,-12.0,419.0,-12.0,427.5,-12.5,435.5,-13.0,444.0,-13.0,452.0,-14.0,460.0,-14.5,468.5,-16.0,476.5,-17.0,485.0,-17.5,492.5,-18.0,500.5,-18.5,508.5,-18.5,517.0,-18.5" stroke="black" stroke-width="2" fill="none" />
<path d="M517.0,94.0,509.5,94.5,502.5,95.0,494.0,95.5,485.0,95.5,476.5,96.0,468.0,97.0,459.5,97.5,451.5,97.5,443.5,98.0,435.0,98.0,427.0,98.5,419.0,99.0,411.5,99.5,404.0,100.0,396.5,101.5,388.5,102.5,380.5,103.5,372.5,104.0,364.5,105.0,357.0,106.0,349.0,106.0,341.0,106.5,333.0,107.5,324.5,108.5,316.0,109.0,308.0,109.0,300.5,109.5,292.0,109.5,284.0,109.5,276.5,109.5,268.5,109.0,261.0,109.5,253.0,110.0,245.5,110.0,237.5,110.5,229.0,111.5,220.5,112.5,212.0,113.5,203.5,114.0,195.5,114.5,187.0,115.5,178.5,116.0,170.5,116.5,162.5,117.0,155.0,117.5,147.5,118.0,140.0,118.0,131.5,118.5,123.0,118.5,115.0,118.5,107.0,119.0,99.0,119.0,91.5,120.0,84.0,120.0,76.0,121.0,68.0,122.0,60.0,123.0,51.5,123.5,43.0,123.0,34.5,123.0,26.0,124.0,18.0,125.0" stroke="black" stroke-width="2" fill="none" />
<path d="M9.5,117.0,18.0,116.5,26.5,116.0,34.5,115.5,43.0,115.0,51.0,115.0,59.5,114.0,68.0,113.5,76.0,113.5,84.0,113.5,91.5,113.0,99.5,112.5,107.5,112.0,116.0,111.0,124.5,110.5,133.0,110.0,140.5,110.0,148.5,110.0,156.0,109.5,163.0,109.0,171.0,108.5,179.5,108.0,188.0,107.0,196.0,106.0,204.5,105.0,212.5,104.5,221.0,103.5,228.5,103.5,236.5,103.0,245.0,102.0,253.5,101.5,261.0,101.5,269.0,101.0,277.0,100.5,285.5,100.0,293.0,99.5,301.0,99.5,309.0,100.0,317.0,100.0,325.0,99.5,333.0,99.0,341.0,98.5,348.0,98.0,356.0,97.0,364.0,96.0,371.5,95.0,379.5,94.0,387.5,93.0,395.0,92.5,403.5,92.5,411.5,92.0,420.0,91.5,428.0,91.0,436.5,90.5,444.5,89.5,453.0,89.0,461.0,89.0,469.0,88.5,476.5,88.0,484.5,88.0,492.5,88.0,500.0,87.5,507.5,86.5,515.0,86.5" stroke="black" stroke-width="2" fill="none" />
<path d="M515.0,78.5,507.0,79.0,499.5,79.5,491.5,80.0,484.0,80.5,475.5,81.5,467.5,82.5,459.5,83.0,452.0,83.5,444.0,83.5,436.0,83.5,427.5,83.0,420.0,83.5,412.5,84.0,404.5,84.5,396.5,85.5,388.5,86.0,380.5,86.5,373.5,87.0,365.5,87.5,358.0,88.5,350.0,89.0,342.0,89.0,334.5,89.0,326.5,89.5,318.5,90.0,309.5,91.0,301.5,91.5,293.0,92.0,284.5,92.5,276.0,93.0,267.0,93.5,259.0,93.5,251.0,93.5,243.0,94.0,234.5,94.5,226.5,95.0,218.5,96.0,210.5,96.5,202.0,97.0,194.5,98.0,187.5,98.5,180.0,98.5,172.5,98.5,165.0,99.0,156.5,99.5,148.0,100.5,139.5,101.5,131.5,102.0,124.0,102.5,116.5,103.0,108.5,103.0,100.5,103.0,92.5,103.5,84.5,104.0,76.5,104.5,68.5,105.0,60.0,105.5,51.5,106.0,43.0,106.5,35.0,107.0,28.0,108.0,20.5,108.5,13.0,109.5,5.0,110.0" stroke="black" stroke-width="2" fill="none" />
<path d="M4.0,103.0,12.0,102.5,20.5,101.0,29.0,100.0,37.0,99.0,45.0,98.0,53.0,97.5,60.5,97.0,68.0,96.5,75.5,95.5,83.5,95.0,92.0,95.0,100.0,94.5,108.0,94.0,116.0,94.0,123.5,93.0,131.5,93.0,138.5,92.5,146.0,92.0,153.5,92.0,161.0,91.5,169.5,91.0,177.5,91.0,186.0,91.0,195.0,90.5,203.5,90.0,211.0,89.5,218.5,89.0,226.5,88.5,234.5,88.0,243.0,87.5,250.5,87.5,259.0,87.0,267.5,86.0,276.5,85.0,284.5,84.5,292.5,84.0,300.5,83.5,308.5,83.0,316.5,82.0,324.5,81.0,333.0,81.0,341.0,80.5,349.5,80.0,357.5,80.0,365.5,79.5,373.5,79.0,381.5,77.5,389.5,76.5,397.5,75.5,405.5,75.0,413.5,74.5,421.0,74.5,428.5,74.0,436.0,73.5,443.5,73.0,451.5,73.5,459.0,73.5,466.5,73.5,473.5,73.0,481.5,72.5,489.5,72.0,497.5,71.5,505.5,71.0,514.5,70.0" stroke="black" stroke-width="2" fill="none" />
<path d="M515.0,62.0,507.0,62.0,499.0,62.0,490.5,62.5,482.5,63.0,474.5,63.5,467.0,64.0,459.5,65.0,451.5,65.0,443.5,65.0,435.5,65.5,427.5,66.0,420.0,67.0,412.5,68.0,405.0,69.0,396.5,69.5,388.0,69.5,380.5,70.0,372.5,70.5,365.0,70.5,357.0,71.0,349.0,71.5,341.0,72.0,332.5,73.0,324.0,73.0,316.0,74.0,308.0,74.5,300.0,75.0,292.0,75.0,283.5,76.0,275.5,76.0,267.5,77.0,259.5,77.5,251.5,78.5,243.5,79.0,236.0,79.5,228.0,80.0,219.5,80.0,211.5,80.0,203.0,80.5,195.0,81.0,187.0,81.5,179.5,82.0,171.5,82.5,163.5,83.0,155.5,83.5,147.0,84.0,139.5,84.5,131.5,85.0,123.5,85.5,116.0,86.5,108.0,87.5,100.5,88.5,92.5,88.5,84.5,89.0,76.5,90.0,68.5,90.0,61.0,90.5,53.0,91.5,44.5,92.0,36.5,92.5,28.0,92.5,19.5,93.0,11.0,93.5,2.5,94.0" stroke="black" stroke-width="2" fill="none" />
<path d="M2.5,85.0,10.5,84.5,19.0,84.5,27.5,84.5,35.5,84.5,44.0,84.5,52.5,84.0,60.0,83.5,68.0,83.0,76.0,82.5,84.0,82.0,92.0,81.0,100.0,80.5,108.0,79.5,116.0,79.0,124.0,78.0,132.0,77.5,140.0,76.5,148.0,76.0,156.0,75.5,164.0,75.0,172.5,75.0,180.5,74.0,188.5,73.5,196.5,72.5,204.5,72.0,212.0,72.5,220.0,72.5,227.5,72.5,235.5,72.5,243.0,72.5,251.0,71.5,259.0,71.0,267.5,70.0,275.5,69.0,283.5,68.5,292.0,68.0,300.5,67.0,308.5,66.0,316.5,65.5,324.0,65.0,332.5,64.5,341.0,64.5,349.0,64.5,357.0,65.0,365.0,64.5,373.0,63.5,380.5,63.0,388.5,62.5,396.5,62.5,404.5,62.0,412.5,61.5,420.5,60.5,428.5,59.5,436.5,58.5,444.5,57.5,452.5,57.0,461.0,56.5,469.0,56.0,477.0,55.5,485.0,54.5,492.5,54.0,500.5,53.5,508.0,53.0,515.5,53.0" stroke="black" stroke-width="2" fill="none" />
<path d="M515.0,44.0,508.0,45.5,500.5,46.0,493.0,46.0,485.0,46.5,477.0,47.0,469.0,48.0,460.5,49.0,452.0,50.0,444.0,51.0,436.0,51.5,427.5,52.5,419.0,53.0,410.5,53.5,402.5,54.5,394.5,55.0,386.0,55.5,378.5,55.5,371.0,56.0,363.5,56.5,356.0,56.5,348.0,56.5,340.0,56.5,332.0,57.0,324.0,57.0,315.5,58.0,307.0,58.5,299.0,59.5,291.5,60.0,284.0,61.0,275.5,61.5,268.0,62.0,260.5,62.5,252.5,62.5,244.0,63.0,236.0,63.5,227.5,64.0,219.0,64.0,211.0,63.5,203.0,63.5,195.5,64.0,187.5,65.5,179.0,66.5,171.5,67.5,163.0,68.0,155.0,68.5,147.5,68.5,140.0,69.0,133.0,70.0,125.5,71.0,117.5,72.0,109.5,72.5,101.0,73.0,93.0,74.0,85.0,74.0,76.5,75.0,68.0,75.0,59.5,75.0,51.0,75.5,42.5,76.0,35.0,76.5,27.0,77.0,19.0,77.5,11.0,77.5,3.0,77.5" stroke="black" stroke-width="2" fill="none" />
<path d="M2.0,71.0,10.0,70.5,18.5,70.0,27.0,69.5,35.0,68.5,43.0,68.5,51.5,68.0,60.5,68.0,69.0,67.5,77.5,67.0,85.5,66.5,93.5,65.5,101.5,65.0,109.5,64.0,117.0,63.0,124.5,62.5,132.5,61.0,140.0,60.5,148.0,59.5,155.5,58.5,164.0,58.0,172.0,58.0,180.0,57.5,188.0,57.5,197.0,57.5,205.5,57.5,213.5,57.5,221.0,57.0,229.0,57.0,237.0,56.5,245.0,56.0,253.0,55.5,260.5,55.0,267.5,54.5,275.0,54.0,282.5,53.0,290.5,53.0,298.5,52.5,306.5,52.0,314.5,51.5,322.0,50.5,330.0,50.0,338.0,50.0,346.0,49.5,354.0,48.5,362.0,48.0,370.0,47.5,378.0,47.0,385.5,46.5,393.5,46.0,401.5,45.5,409.5,45.0,418.0,45.0,426.5,44.5,435.5,44.0,444.0,43.5,452.0,42.5,460.0,41.0,468.0,40.0,475.5,39.0,483.5,38.0,491.5,37.5,499.0,37.0,507.0,37.0,515.0,37.0" stroke="black" stroke-width="2" fill="none" />
<path d="M516.0,30.0,507.5,30.5,499.5,31.0,491.5,31.5,484.0,32.0,475.5,32.5,468.0,33.5,460.0,34.0,452.0,34.5,444.0,35.0,436.0,35.5,427.0,36.0,419.0,36.0,411.5,36.0,403.5,36.5,395.5,37.0,387.0,38.0,378.5,39.0,370.5,39.5,362.0,40.0,354.0,40.0,346.5,40.0,339.0,40.5,331.0,41.0,323.0,42.0,315.5,42.5,307.5,42.5,299.5,43.0,291.0,43.5,283.5,43.5,276.0,44.5,268.5,45.0,261.0,46.0,253.0,47.0,245.5,47.5,237.5,48.0,229.0,48.0,221.0,48.0,212.5,48.0,204.5,48.0,196.0,49.0,187.5,50.0,179.0,51.0,171.5,51.5,163.5,52.5,155.5,53.0,147.5,53.5,139.5,54.0,131.5,54.5,124.0,55.5,116.0,55.5,108.5,56.5,100.5,57.0,92.5,57.5,84.5,58.0,76.5,58.5,68.5,59.0,60.0,59.0,52.0,59.0,44.5,59.0,36.0,59.0,27.5,59.0,19.5,59.5,11.5,60.5,3.5,61.5" stroke="black" stroke-width="2" fill="none" />
<path d="M5.0,52.0,13.0,51.5,20.0,51.0,28.0,50.5,36.0,50.5,43.5,50.0,51.5,50.0,59.5,50.0,68.0,50.0,76.0,49.5,84.0,48.5,92.5,48.5,100.5,48.5,108.0,48.5,116.0,47.5,124.0,47.0,131.5,47.0,139.0,46.5,147.0,46.0,155.0,45.5,162.5,45.0,170.5,44.5,179.0,43.5,187.5,43.0,195.0,42.0,203.0,41.5,211.5,40.5,220.0,39.5,228.5,39.0,237.0,38.5,245.5,38.0,253.0,37.5,261.0,36.5,268.5,35.5,276.5,34.5,284.5,33.5,292.0,33.0,300.0,32.5,308.0,32.0,316.0,31.5,324.0,31.0,332.0,31.0,340.5,30.5,349.0,30.5,356.5,30.5,364.5,30.5,373.0,30.5,380.5,30.0,388.5,30.0,396.5,30.0,404.0,29.5,412.5,29.0,420.5,28.5,428.5,28.0,437.0,27.0,445.5,27.0,453.0,26.5,461.0,26.0,469.0,25.5,477.0,25.0,485.5,24.5,493.0,23.5,500.5,23.0,508.0,22.5,515.5,21.0" stroke="black" stroke-width="2" fill="none" />
<path d="M515.5,13.0,507.5,14.0,499.5,15.0,491.5,16.5,483.5,17.5,476.0,18.0,468.0,18.0,460.0,18.0,451.5,18.0,443.5,18.0,436.0,18.5,428.5,19.0,420.5,19.5,412.5,20.0,404.0,20.5,396.5,21.0,388.5,21.0,380.0,21.5,372.0,22.0,364.0,22.5,356.5,22.5,349.0,22.5,341.5,23.0,333.5,23.0,325.5,24.0,317.5,24.5,310.0,25.0,302.0,25.5,293.5,26.5,285.0,27.5,277.5,28.0,269.0,28.5,260.5,29.0,252.0,29.5,244.5,30.0,236.5,30.5,228.5,31.0,220.0,31.0,212.0,32.0,204.5,32.5,195.5,33.5,187.5,34.5,179.0,35.5,170.0,36.0,162.0,36.5,154.0,37.0,146.5,37.5,139.0,38.5,132.0,39.0,124.5,39.0,116.0,39.5,108.0,40.0,100.0,40.5,92.5,40.0,84.5,40.5,76.5,41.0,68.5,41.5,61.0,42.0,53.0,42.5,45.5,43.0,37.5,43.5,29.5,43.5,21.0,44.0,12.5,44.0,4.5,44.5" stroke="black" stroke-width="2" fill="none" />
<path d="M5.5,35.5,13.5,35.0,21.5,35.0,29.5,35.5,38.0,35.5,46.5,35.0,54.0,35.0,61.5,34.5,69.5,34.0,77.0,34.0,85.0,33.5,93.0,33.0,101.0,32.0,109.0,32.0,117.0,32.0,124.5,32.0,131.5,31.5,139.0,31.0,146.5,30.5,154.5,30.0,162.5,29.0,170.5,28.5,178.5,27.5,187.0,26.5,195.5,26.0,203.5,25.0,212.5,24.0,221.0,23.5,229.0,22.5,236.5,22.0,244.0,21.5,252.0,21.5,260.5,21.0,268.5,21.0,276.0,21.0,284.0,20.0,292.5,19.5,300.0,18.5,308.0,17.5,316.0,17.0,324.5,17.0,332.5,16.0,340.5,15.5,349.0,15.0,357.0,15.0,365.0,14.5,372.5,14.5,379.5,14.5,387.0,14.5,395.0,14.0,403.5,13.0,411.5,12.5,419.0,12.0,426.5,12.0,434.0,12.0,441.5,11.5,449.5,11.0,457.0,10.5,465.0,10.0,473.5,10.0,482.0,10.0,489.5,9.0,497.5,8.0,506.0,7.0,514.0,6.0" stroke="black" stroke-width="2" fill="none" />
<path d="M515.0,-3.0,507.0,-1.5,498.5,-1.0,491.0,0.0,483.0,0.5,475.0,1.0,467.0,1.5,459.0,2.0,450.5,3.0,442.5,3.5,434.5,4.0,427.5,5.0,420.0,5.5,411.5,6.0,404.0,6.0,396.0,6.0,388.0,6.0,380.0,5.5,372.0,5.5,364.0,5.5,356.5,6.5,348.0,7.0,340.5,8.0,332.5,9.5,325.0,10.0,317.0,10.0,309.0,10.5,301.0,11.0,293.0,11.5,285.0,12.5,276.5,13.0,268.0,13.5,260.5,14.5,252.5,15.0,245.0,16.0,236.5,16.5,228.5,16.5,220.5,16.5,212.0,16.5,204.0,17.0,195.0,18.0,186.5,18.0,178.0,19.0,169.0,19.5,161.0,20.0,153.0,20.5,145.0,21.0,137.5,22.0,130.5,22.5,123.0,23.0,115.5,23.0,108.0,23.0,100.5,23.5,93.0,24.0,85.5,24.0,77.5,25.0,69.0,25.5,61.0,26.0,53.0,25.5,45.0,26.0,37.0,26.5,28.5,27.0,20.5,28.0,12.0,28.5,4.0,29.5" stroke="black" stroke-width="2" fill="none" />
<path d="M4.0,22.5,12.0,22.5,21.0,22.5,29.0,22.0,36.5,21.5,45.0,21.0,52.5,20.5,60.5,20.0,68.5,19.5,76.5,19.0,84.0,18.5,92.0,17.0,99.5,16.5,107.0,15.5,115.0,14.0,122.5,13.5,131.0,13.0,139.0,12.5,147.0,12.0,154.5,11.0,162.5,11.0,170.5,10.5,178.5,10.0,187.0,10.0,195.5,10.5,204.0,10.0,212.0,9.5,220.5,9.0,228.5,9.0,236.5,9.0,245.0,8.5,253.0,8.0,260.5,7.5,268.0,6.5,275.5,5.5,284.0,5.0,292.0,4.0,300.0,3.5,308.0,2.5,316.5,2.0,324.5,1.0,332.0,1.0,340.0,0.5,347.5,0.5,355.5,0.5,363.5,0.0,371.0,0.0,379.5,0.0,388.0,-0.5,396.0,-1.5,404.0,-2.0,412.0,-2.5,420.0,-2.5,428.0,-3.5,436.0,-4.0,444.5,-5.0,452.5,-5.5,460.5,-6.0,468.0,-7.0,476.0,-7.5,484.0,-8.0,492.5,-8.0,500.0,-8.5,508.0,-9.0,516.0,-9.0" stroke="black" stroke-width="2" fill="none" />
<path d="M514.5,-29.0,507.0,-28.5,499.5,-27.5,492.0,-27.0,484.5,-26.5,476.5,-26.0,468.5,-25.0,460.5,-24.0,452.0,-23.5,444.0,-22.5,436.0,-22.0,428.0,-22.0,420.0,-22.0,411.5,-22.0,403.0,-21.5,395.0,-20.5,386.5,-20.0,378.0,-18.5,369.5,-17.5,361.5,-16.5,353.5,-16.5,345.5,-16.0,337.5,-16.0,330.0,-15.0,322.0,-14.5,314.0,-14.0,305.5,-13.5,297.5,-13.0,289.5,-13.0,281.5,-13.0,273.5,-13.0,265.5,-12.5,257.5,-12.0,249.5,-11.5,241.5,-11.0,234.0,-10.5,226.5,-10.5,218.5,-10.5,210.0,-10.5,201.5,-10.0,194.0,-9.5,186.5,-9.0,178.5,-8.0,170.5,-7.5,162.5,-6.5,154.5,-6.5,146.0,-6.0,138.0,-5.5,129.5,-5.0,122.0,-4.0,113.5,-3.5,105.0,-1.5,97.0,-0.5,89.0,1.0,81.0,1.5,73.0,2.0,65.5,2.0,58.0,2.0,51.5,2.0,44.5,3.0,36.5,3.5,28.5,3.5,21.0,4.0,13.0,4.0,5.0,4.5" stroke="black" stroke-width="2" fill="none" />
<path d="M45.5,149.0,53.0,149.0,60.5,148.5,68.0,148.0,75.5,148.0,83.0,148.0,90.5,147.5,97.5,147.0,105.0,146.0,113.0,145.5,121.0,145.0,129.0,144.5,138.0,144.0,146.5,143.0,155.0,143.0,164.0,142.0,172.0,141.5,180.5,141.5,188.5,141.5,196.5,141.5,205.0,141.0,212.5,140.0,220.5,139.5,228.0,138.5,236.5,138.0" stroke="black" stroke-width="2" fill="none" />
<path d="M236.5,154.0,228.0,154.5,220.5,155.0,212.5,155.5,204.5,156.0,196.0,156.0,188.0,157.0,180.5,157.5,171.5,158.5,163.5,159.5,155.0,160.5,146.0,161.0,138.0,161.5,130.0,162.0,122.5,162.5,115.0,163.5,108.0,164.0,100.5,164.0,92.0,164.5,84.0,165.0,76.0,165.5,68.5,165.0,60.5,165.5" stroke="black" stroke-width="2" fill="none" />
<path d="M53.0,158.5,61.0,158.0,69.0,157.0,77.0,157.0,85.0,157.0,92.5,157.0,99.5,156.5,107.0,156.0,114.5,155.5,122.5,155.0,130.5,154.0,138.5,153.5,146.5,152.5,155.0,151.5,163.5,151.0,171.5,150.0,180.5,149.0,189.0,148.5,197.0,147.5,204.5,147.0,212.0,146.5,220.0,146.5,228.5,146.0,236.5,146.0" stroke="black" stroke-width="2" fill="none" />
<path d="M237.5,163.0,229.0,163.5,220.5,164.0,212.0,164.5,203.5,165.5,195.0,166.5,187.0,167.0,179.5,168.0,171.0,168.5,162.5,169.5,154.5,170.0,147.0,170.5,139.0,171.0,131.0,171.5,123.5,172.0,116.0,172.0,108.0,172.5,100.0,173.5,92.5,173.5,84.5,173.5,76.0,173.5" stroke="black" stroke-width="2" fill="none" />
<path d="M84.5,183.0,92.5,182.5,100.5,182.0,108.5,181.5,116.0,180.5,124.0,180.5,131.5,179.5,139.5,179.0,147.5,178.5,155.5,178.0,163.5,177.5,171.5,176.5,179.0,176.0,187.5,175.0,196.0,174.0,204.5,173.0,212.5,173.0,221.0,173.0,229.0,173.0,237.5,173.0" stroke="black" stroke-width="2" fill="none" />
<path d="M227.5,199.0,219.0,199.5,210.0,200.0,201.5,200.0,193.5,200.0,185.0,200.5,177.5,201.0,170.0,201.0,162.5,201.5,155.5,202.0,147.5,202.0,140.0,203.0,132.0,203.0,124.0,203.5,116.0,204.0,107.5,204.0" stroke="black" stroke-width="2" fill="none" />
<path d="M124.5,213.0,132.5,212.5,140.5,212.0,148.5,212.0,156.5,212.0,164.0,211.5,171.5,211.0,179.5,210.5,188.0,209.5,196.5,208.5,205.0,208.0,212.5,207.5,220.0,207.5,227.5,207.5" stroke="black" stroke-width="2" fill="none" />
<path d="M219.5,242.5,211.5,243.5,203.5,244.0,196.5,245.0,189.0,246.0,181.0,246.5,173.5,247.5,165.5,247.5" stroke="black" stroke-width="2" fill="none" />
<path d="M155.5,240.0,163.5,239.5,171.5,238.5,179.5,237.5,187.5,237.0,195.5,236.0,203.5,235.0,211.5,234.5,219.5,233.5" stroke="black" stroke-width="2" fill="none" />
<path d="M221.5,226.0,213.0,226.0,205.0,226.0,196.5,226.0,189.0,226.5,181.0,226.5,173.0,227.5,165.5,228.0,157.5,228.0,149.0,228.5" stroke="black" stroke-width="2" fill="none" />
<path d="M131.5,221.5,139.5,221.0,147.0,221.0,155.0,221.0,163.0,221.0,171.5,220.5,179.5,220.0,188.5,219.5,197.0,218.5,205.0,218.0,212.5,217.5,220.5,216.5,228.5,216.5" stroke="black" stroke-width="2" fill="none" />
<path d="M255.5,150.0,258.5,158.0,260.0,166.0,260.0,174.5,261.0,182.5,262.0,190.5,262.5,198.0,262.5,206.5,264.0,214.5,264.5,222.0,265.5,230.0,265.5,238.0,266.0,245.5,267.0,253.5,266.5,261.0,267.5,269.0,268.5,276.5" stroke="black" stroke-width="2" fill="none" />
<path d="M307.0,296.5,298.5,297.5,290.5,298.5,282.5,299.0,274.5,299.0,266.5,299.5,258.5,299.5,251.0,299.5,243.0,300.5,235.5,300.5,228.0,300.0,220.0,299.5,212.0,298.5,204.0,298.5,196.0,297.0" stroke="black" stroke-width="2" fill="none" />
<path d="M195.0,292.0,203.0,287.0,211.0,283.0,214.5,285.0,222.0,286.5,230.0,286.5,237.5,287.0,245.0,286.5,252.5,286.5,260.5,285.5,268.5,285.5,276.5,284.5,285.0,284.5,293.5,283.0,301.0,283.5,309.5,286.0" stroke="black" stroke-width="2" fill="none" />
</svg>