<svg xmlns="http://www.w3.org/2000/svg" version="1.1"><polyline points="2.0,1.5,2.5,9.5,2.5,17.5,2.5,25.5,2.5,33.5,2.5,41.5,3.0,49.5,4.0,57.0,4.5,65.0,4.5,72.5,4.5,81.0,4.5,89.0,4.0,97.0,3.5,105.5,3.5,114.5,3.5,123.0,3.5,131.0,3.0,138.5,3.0,146.5,3.0,154.5,3.0,162.5,2.5,170.5,2.5,178.5,2.5,186.0,2.5,194.0,3.0,202.0,3.0,210.0,3.0,218.0,3.5,226.0,4.0,234.5,4.0,242.5,4.0,250.5,4.0,258.5,3.5,266.5,3.0,275.0,3.0,283.0,3.0,291.0,3.0,298.5,3.5,306.5,3.0,314.5,3.0,322.5,3.0,330.5,2.5,338.5,7.5,342.5,15.5,342.0,23.5,341.5,31.0,341.5,39.0,341.5,46.5,341.5,54.0,342.0,62.0,342.0,70.0,342.0,79.0,341.5,87.0,341.5,95.0,342.0,103.0,342.5,111.5,342.5,119.5,343.0,128.0,343.5,136.5,343.5,144.5,344.0,152.5,344.0,160.0,344.0,168.0,343.5,176.5,343.0,184.5,343.0,192.0,343.0,200.0,342.5,207.5,342.0,215.5,341.5,224.0,341.5,231.5,341.5,239.5,342.0,247.5,342.0,256.0,342.5,264.0,343.0,272.5,343.0,281.0,343.0,289.0,343.0,297.5,343.0,306.0,343.0,314.0,343.0,321.5,342.5,329.5,342.5,337.0,342.0,345.0,342.0,353.0,341.5,361.0,342.0,369.0,342.0,377.0,342.5,385.0,342.5,393.0,342.0,400.5,342.0,408.5,341.5,416.0,341.5,424.0,341.5,431.5,341.5,439.5,341.0,447.0,340.5,455.0,340.5,463.0,340.5,471.0,340.5,479.5,341.0,487.5,341.0,495.5,341.5,503.5,342.0,511.5,342.0" stroke="black" stroke-width="2" fill="none" />
<polyline points="404.0,229.0,396.5,236.0" stroke="black" stroke-width="2" fill="none" />
<polyline points="387.5,235.0,394.5,228.5,402.5,221.0" stroke="black" stroke-width="2" fill="none" />
<polyline points="396.0,221.5,388.0,229.0,380.0,236.5" stroke="black" stroke-width="2" fill="none" />
<polyline points="372.0,236.0,381.0,228.5,389.5,221.0" stroke="black" stroke-width="2" fill="none" />
<polyline points="380.0,219.5,372.5,227.5,365.0,235.0,357.0,243.0" stroke="black" stroke-width="2" fill="none" />
<polyline points="353.5,240.5,346.0,241.0,338.0,242.0" stroke="black" stroke-width="2" fill="none" />
<polyline points="332.0,241.0,324.0,241.5,316.5,241.5" stroke="black" stroke-width="2" fill="none" />
<polyline points="314.5,233.0,322.0,233.0,330.5,232.5" stroke="black" stroke-width="2" fill="none" />
<polyline points="337.0,236.0,337.0,228.0" stroke="black" stroke-width="2" fill="none" />
<polyline points="339.5,224.5,347.5,224.0,355.5,224.0,363.5,224.0" stroke="black" stroke-width="2" fill="none" />
<polyline points="365.0,221.0,356.5,228.5,348.5,235.5,340.0,243.0,332.5,250.0" stroke="black" stroke-width="2" fill="none" />
<polyline points="340.0,250.0,347.0,243.0,354.5,236.0,362.5,228.5,370.5,221.0" stroke="black" stroke-width="2" fill="none" />
<polyline points="363.0,212.5,355.5,219.5,347.5,226.0,340.0,233.0,332.0,240.5,324.5,247.5,316.0,255.0" stroke="black" stroke-width="2" fill="none" />
<polyline points="323.0,249.5,331.5,249.5" stroke="black" stroke-width="2" fill="none" />
<polyline points="327.5,248.5,330.5,240.5,329.5,242.5,319.0,247.5,312.5,242.0,308.0,235.0,306.0,223.0,298.0,217.0,295.0,212.0,287.0,203.5,281.0,193.5,276.5,185.5,270.5,183.0,269.5,180.0,264.5,180.0" stroke="black" stroke-width="2" fill="none" />
<polyline points="266.5,180.0,258.5,180.5,250.5,180.5,242.5,181.0,234.5,182.0,226.5,182.0,218.5,183.0,210.5,183.5,202.5,185.0,194.5,186.0,186.5,187.0" stroke="black" stroke-width="2" fill="none" />
<polyline points="186.0,186.5,193.5,180.0,201.5,172.5" stroke="black" stroke-width="2" fill="none" />
<polyline points="194.5,169.0,186.0,176.5" stroke="black" stroke-width="2" fill="none" />
<polyline points="187.5,177.0,195.5,176.5,203.0,176.5" stroke="black" stroke-width="2" fill="none" />
<polyline points="212.5,176.5,221.0,176.0,229.0,176.0,236.5,176.0,244.0,175.5,251.5,175.5,259.5,175.5" stroke="black" stroke-width="2" fill="none" />
<polyline points="259.5,177.5,267.0,177.5,275.5,183.0,283.5,188.0,291.5,193.5,299.5,198.5,307.5,208.5" stroke="black" stroke-width="2" fill="none" />
<polyline points="308.0,208.5,316.0,208.0,323.5,208.0,331.5,207.0" stroke="black" stroke-width="2" fill="none" />
<polyline points="328.0,206.5,330.5,214.5,336.5,215.5" stroke="black" stroke-width="2" fill="none" />
<polyline points="340.0,217.0,348.0,216.0,356.0,215.5" stroke="black" stroke-width="2" fill="none" />
<polyline points="356.5,212.5,348.0,220.0,339.5,228.0,331.0,235.0,322.5,241.5,314.5,248.5,306.5,256.0" stroke="black" stroke-width="2" fill="none" />
<polyline points="306.0,257.5,314.0,256.5" stroke="black" stroke-width="2" fill="none" />
<polyline points="307.0,248.5,315.5,240.5,324.0,233.0,332.5,225.5,341.5,218.5,350.0,211.0" stroke="black" stroke-width="2" fill="none" />
<polyline points="349.5,210.5,341.5,211.0" stroke="black" stroke-width="2" fill="none" />
<polyline points="331.0,216.0,322.5,217.0,314.0,217.5" stroke="black" stroke-width="2" fill="none" />
<polyline points="324.5,225.0,332.5,224.5" stroke="black" stroke-width="2" fill="none" />
<polyline points="339.0,234.0,347.0,233.5,355.0,232.5,363.0,231.5,371.0,230.5" stroke="black" stroke-width="2" fill="none" />
<polyline points="367.5,238.5,359.5,240.0,351.0,244.0,343.0,255.0,337.0,262.5,344.0,254.0,349.0,246.0,362.5,238.0" stroke="black" stroke-width="2" fill="none" />
<polyline points="348.5,248.5,340.5,249.0,332.5,249.5,324.5,250.0,316.0,250.5,308.0,250.5,300.0,251.0,292.0,251.5,283.5,251.5,275.5,251.5,267.5,251.5,260.0,252.5" stroke="black" stroke-width="2" fill="none" />
<polyline points="261.0,249.5,269.0,242.0,276.5,234.0,284.5,226.0,292.5,218.0,300.5,210.5,308.0,203.5,316.0,196.0,324.0,188.0,332.0,180.5" stroke="black" stroke-width="2" fill="none" />
<polyline points="332.0,187.0,324.5,194.5,316.5,202.5,308.5,210.5,300.0,218.5,291.5,226.5" stroke="black" stroke-width="2" fill="none" />
<polyline points="291.0,226.0,298.5,225.0" stroke="black" stroke-width="2" fill="none" />
<polyline points="300.5,232.0,308.5,224.0,317.0,216.5,324.5,208.5,333.0,200.5,340.5,193.0,348.5,185.5" stroke="black" stroke-width="2" fill="none" />
<polyline points="341.5,186.0,333.0,194.0,325.0,201.5,316.5,209.0,308.5,216.5,300.0,224.0,292.0,231.5,283.5,239.5,275.0,247.0,267.0,255.0" stroke="black" stroke-width="2" fill="none" />
<polyline points="268.0,250.0,276.0,242.0" stroke="black" stroke-width="2" fill="none" />
<polyline points="275.0,239.0,280.0,247.0" stroke="black" stroke-width="2" fill="none" />
<polyline points="284.0,249.0,293.0,248.5" stroke="black" stroke-width="2" fill="none" />
<polyline points="293.5,244.0,285.0,251.5" stroke="black" stroke-width="2" fill="none" />
<polyline points="291.0,255.5,299.0,248.5,307.5,241.5,316.5,234.0,324.0,227.5,331.5,220.5,339.5,213.5,348.0,205.5,356.0,198.0" stroke="black" stroke-width="2" fill="none" />
<polyline points="349.0,193.0,341.0,201.0,333.0,209.0,325.5,217.0,317.0,225.0,308.5,233.0,300.0,240.5" stroke="black" stroke-width="2" fill="none" />
<polyline points="299.5,241.0,307.5,240.5" stroke="black" stroke-width="2" fill="none" />
<polyline points="306.0,248.0,314.0,247.0" stroke="black" stroke-width="2" fill="none" />
<polyline points="306.5,233.5,298.5,234.5" stroke="black" stroke-width="2" fill="none" />
<polyline points="299.0,241.5,307.0,257.5,314.5,260.5" stroke="black" stroke-width="2" fill="none" />
<polyline points="315.0,266.0,306.5,267.0,298.5,268.0,290.5,269.0,282.0,270.0,274.0,270.5" stroke="black" stroke-width="2" fill="none" />
<polyline points="268.0,262.5,275.5,261.5,283.0,261.0,290.5,260.5,299.0,260.0,306.5,259.0,315.5,258.0,323.5,257.5,332.0,257.0,339.5,256.5" stroke="black" stroke-width="2" fill="none" />
<polyline points="341.0,250.0,333.0,262.0,325.5,267.5,317.5,271.5,310.0,274.5,302.0,277.5,294.0,278.5,286.5,279.5,278.5,280.5,270.0,280.5,262.0,280.5,254.0,279.5,246.0,278.5,238.0,277.5,230.0,274.0,222.5,272.0,214.0,268.0,206.0,263.5,198.0,259.5,190.0,251.0,182.0,227.0" stroke="black" stroke-width="2" fill="none" />
<polyline points="194.0,205.0,202.0,205.0,210.5,204.5,218.5,204.0,227.0,203.5,235.5,202.5,244.0,202.0,252.0,201.0,260.0,200.5,268.0,200.0,276.0,199.5,283.5,198.5,291.5,198.5,299.5,198.5,308.0,198.5,316.0,198.0,324.0,197.5,332.0,197.5,340.5,197.0,348.5,196.5,356.5,196.0,364.5,195.5,373.0,195.0,381.0,194.0,389.0,193.0,397.0,192.5,405.0,192.0,413.0,191.5,421.0,191.0,429.5,190.5,437.5,190.0,445.5,190.0,453.0,189.5,461.0,188.5,469.5,187.0,477.0,186.0" stroke="black" stroke-width="2" fill="none" />
<polyline points="500.5,140.5,508.5,140.0,516.0,139.0" stroke="black" stroke-width="2" fill="none" />
<polyline points="517.0,131.5,509.0,132.5,501.5,133.0,493.5,133.0" stroke="black" stroke-width="2" fill="none" />
<polyline points="475.0,126.0,483.0,125.5,492.0,124.5,499.5,123.5,507.5,123.0,515.0,122.5" stroke="black" stroke-width="2" fill="none" />
<polyline points="516.0,115.0,508.0,115.5,500.0,116.0,491.5,116.5,483.0,117.0,475.0,117.0,467.0,117.0" stroke="black" stroke-width="2" fill="none" />
<polyline points="452.0,110.5,460.0,110.0,468.0,109.5,476.0,109.0,484.5,108.0,493.0,107.5,501.0,107.0,508.5,107.0,516.5,106.0" stroke="black" stroke-width="2" fill="none" />
<polyline points="518.0,94.5,510.0,95.0,501.0,96.0,492.5,97.0,484.0,98.0,476.0,98.5,467.5,99.0,460.0,100.0,452.0,100.5,443.5,100.5,435.5,100.5" stroke="black" stroke-width="2" fill="none" />
<polyline points="427.0,93.5,435.5,92.5,443.5,92.5,452.0,92.0,460.0,91.5,467.5,91.0,475.5,90.0,483.0,89.5,491.5,88.5,499.5,87.0,507.5,87.0,515.5,86.5" stroke="black" stroke-width="2" fill="none" />
<polyline points="513.5,78.5,504.5,79.5,496.5,80.5,488.5,80.5,481.0,81.0,473.5,81.0,466.0,81.0,458.5,82.0,450.5,83.0,442.5,84.5,435.0,85.5,427.5,86.0,419.5,86.5" stroke="black" stroke-width="2" fill="none" />
<polyline points="405.5,79.0,413.5,78.5,421.0,78.0,428.5,78.0,436.0,78.0,443.0,77.5,451.0,76.5,458.5,75.5,466.0,75.0,473.5,74.5,481.0,74.5,489.0,73.5,498.0,72.5,506.0,71.5,514.5,70.5" stroke="black" stroke-width="2" fill="none" />
<polyline points="517.0,61.5,508.0,63.0,500.5,63.5,492.5,64.0,484.5,64.0,476.5,64.0,468.0,64.5,460.0,65.5,451.5,66.0,443.5,66.5,436.0,67.0,428.5,67.5,420.0,68.0,412.0,68.5,404.0,68.5,396.0,69.0,388.0,69.0" stroke="black" stroke-width="2" fill="none" />
<polyline points="372.0,61.0,380.0,60.5,388.0,60.0,396.0,59.5,404.5,59.5,413.0,59.0,421.0,58.5,429.0,57.5,436.5,56.5,444.0,56.0,451.5,55.5,460.0,55.0,468.0,55.0,476.5,54.0,485.0,53.5,493.5,53.0,501.0,52.5,509.0,51.5,517.0,51.0" stroke="black" stroke-width="2" fill="none" />
<polyline points="459.0,194.0,451.5,194.5,444.0,196.0,436.0,197.5,428.0,198.0,420.0,198.5,412.0,199.0" stroke="black" stroke-width="2" fill="none" />
<polyline points="348.0,199.0,340.0,200.0,331.5,200.5,323.0,201.0,315.0,201.5,307.0,202.0" stroke="black" stroke-width="2" fill="none" />
<polyline points="303.0,210.0,295.0,204.0" stroke="black" stroke-width="2" fill="none" />
<polyline points="294.5,202.5,303.5,210.5" stroke="black" stroke-width="2" fill="none" />
<polyline points="290.5,194.0,298.5,193.5,306.5,193.0,314.5,192.0,323.0,191.5,331.5,190.5,340.0,190.0" stroke="black" stroke-width="2" fill="none" />
<polyline points="324.0,181.0,316.0,188.5,308.5,195.5,300.5,202.5,292.0,210.0,284.0,218.0,276.5,224.5,269.0,231.5,261.0,239.0,253.0,246.5" stroke="black" stroke-width="2" fill="none" />
<polyline points="252.0,249.0,246.0,248.5" stroke="black" stroke-width="2" fill="none" />
<polyline points="243.5,245.5,251.5,245.0,259.0,245.0,266.5,244.5,274.0,244.5,281.5,244.0,289.5,243.0,297.5,242.0,306.0,241.5,314.5,241.5,323.0,241.0,330.5,240.0,339.0,239.0,347.0,238.5,355.5,238.0" stroke="black" stroke-width="2" fill="none" />
<polyline points="341.5,249.0,336.5,256.5,328.5,264.5,314.0,272.0" stroke="black" stroke-width="2" fill="none" />
<polyline points="297.5,237.5,289.5,230.0,282.0,221.0,274.0,213.0,266.0,209.0" stroke="black" stroke-width="2" fill="none" />
<polyline points="266.5,208.5,270.5,216.5,277.5,224.5,284.5,226.0,286.5,233.5,288.5,241.0,291.5,249.0,295.5,257.5,300.0,259.5" stroke="black" stroke-width="2" fill="none" />
<polyline points="301.5,264.0,297.5,256.0,295.5,248.0,291.0,239.0" stroke="black" stroke-width="2" fill="none" />
<polyline points="276.0,248.5,268.0,248.5,260.0,248.5" stroke="black" stroke-width="2" fill="none" />
<polyline points="261.5,252.0,253.5,249.5,245.5,245.5,237.5,244.5,229.5,239.5,221.5,231.5,213.5,223.5,205.5,214.0,197.5,206.5,189.5,194.5,181.5,177.0" stroke="black" stroke-width="2" fill="none" />
<polyline points="179.5,177.0,187.5,169.5,196.0,161.5" stroke="black" stroke-width="2" fill="none" />
<polyline points="196.0,156.5,188.0,163.5,180.0,170.5" stroke="black" stroke-width="2" fill="none" />
<polyline points="178.5,173.5,186.5,173.0,195.0,173.0,203.5,172.5,212.0,172.0,220.5,172.0,228.5,171.5,236.5,171.0,244.5,171.0,252.0,170.5,260.0,169.5,268.0,169.0,276.0,168.5,284.0,168.0,292.0,167.0,300.0,166.5,307.5,165.5,314.5,165.0,322.0,165.0,330.0,164.5" stroke="black" stroke-width="2" fill="none" />
<polyline points="324.0,164.5,316.0,172.0,308.0,179.0,300.0,187.0,292.0,194.5,284.0,202.0,276.0,209.5,268.5,217.5,260.5,225.0,253.0,232.0,245.0,239.5" stroke="black" stroke-width="2" fill="none" />
<polyline points="253.0,238.0,261.5,230.5,269.0,223.0,276.0,216.5,283.5,209.5,291.5,202.0,299.5,195.0,307.5,188.0,316.0,180.5,323.5,173.5" stroke="black" stroke-width="2" fill="none" />
<polyline points="323.0,176.0,315.0,176.5,306.0,177.5,297.5,178.5,289.5,179.0,281.0,180.0" stroke="black" stroke-width="2" fill="none" />
<polyline points="284.0,184.0,292.0,176.0,300.0,169.0,308.0,161.5,316.5,154.5,324.5,147.0" stroke="black" stroke-width="2" fill="none" />
<polyline points="326.5,140.5,318.0,147.5,309.5,155.5,300.5,162.5,291.5,170.0,283.0,177.0,274.5,184.0,266.5,191.0,259.0,198.0,251.0,205.0,243.0,212.5,235.5,220.0,227.5,227.5" stroke="black" stroke-width="2" fill="none" />
<polyline points="226.5,233.0,234.5,232.5,242.5,232.5,250.5,231.5,258.0,231.0,265.5,231.0,273.5,230.5,281.5,230.0" stroke="black" stroke-width="2" fill="none" />
<polyline points="282.5,218.5,290.5,217.5" stroke="black" stroke-width="2" fill="none" />
<polyline points="282.0,209.5,274.0,209.5" stroke="black" stroke-width="2" fill="none" />
<polyline points="277.5,193.5,269.5,201.0,261.5,208.5,253.5,216.5,245.5,224.5,237.5,232.5" stroke="black" stroke-width="2" fill="none" />
<polyline points="236.0,240.0,244.0,232.0,252.0,224.5,259.5,217.0,267.5,209.5,276.0,202.0,284.0,194.0,291.5,186.0,299.5,178.0,308.0,170.0,315.5,162.0,323.5,155.0" stroke="black" stroke-width="2" fill="none" />
<polyline points="316.0,161.0,308.5,161.0,301.5,161.5,293.0,162.0" stroke="black" stroke-width="2" fill="none" />
<polyline points="291.0,169.5,298.5,169.0,306.5,168.5,314.0,168.5" stroke="black" stroke-width="2" fill="none" />
<polyline points="322.5,169.5,331.0,180.5,339.0,186.5,347.0,190.0,354.5,193.0" stroke="black" stroke-width="2" fill="none" />
<polyline points="332.0,183.5,324.0,184.0,315.5,185.0,307.5,185.5,299.0,186.0,291.0,186.5,283.0,187.0" stroke="black" stroke-width="2" fill="none" />
<polyline points="285.0,188.5,297.5,196.5,305.5,204.5,310.5,212.5,315.5,218.0" stroke="black" stroke-width="2" fill="none" />
<polyline points="327.5,206.5,335.5,209.5" stroke="black" stroke-width="2" fill="none" />
<polyline points="315.0,153.0,306.5,153.5,298.0,154.0,289.5,154.5" stroke="black" stroke-width="2" fill="none" />
<polyline points="284.5,154.5,276.0,162.5,267.5,171.0,259.5,179.0,251.5,187.0,243.5,194.5,235.5,202.0,227.0,209.5,218.5,217.0" stroke="black" stroke-width="2" fill="none" />
<polyline points="218.5,220.5,226.5,212.5,234.5,205.0,242.5,198.0,250.5,190.5,258.0,183.0,266.0,175.5,274.0,168.5,282.0,161.5,290.5,153.5,299.0,146.0,307.0,138.0,315.5,130.0,324.0,122.0" stroke="black" stroke-width="2" fill="none" />
<polyline points="323.0,114.5,315.0,122.0,307.0,129.5,299.0,137.0,291.5,144.5" stroke="black" stroke-width="2" fill="none" />
<polyline points="291.0,141.5,299.0,141.5,307.0,141.0,315.5,140.5,324.5,139.5" stroke="black" stroke-width="2" fill="none" />
<polyline points="325.5,131.0,317.5,139.0,309.0,146.5,301.0,154.5,293.0,162.0,284.5,169.5,276.0,177.0,267.5,184.0,259.0,191.5,251.0,198.5,243.0,205.5,235.0,213.0,226.5,221.0" stroke="black" stroke-width="2" fill="none" />
<polyline points="220.0,225.5,228.5,225.5,236.0,225.0,243.5,224.5,251.5,224.0,258.5,223.5,266.5,223.5,274.5,222.5" stroke="black" stroke-width="2" fill="none" />
<polyline points="267.0,214.0,259.5,214.0,251.5,214.5,243.5,214.5,235.5,215.0,227.5,215.5,220.0,216.0,212.0,216.0" stroke="black" stroke-width="2" fill="none" />
<polyline points="211.5,217.5,219.5,209.5,227.0,202.0,235.5,194.0,243.5,185.5,251.5,177.5,259.5,170.0" stroke="black" stroke-width="2" fill="none" />
<polyline points="258.0,168.0,250.5,168.0,242.5,168.5,234.5,169.0,226.5,169.0" stroke="black" stroke-width="2" fill="none" />
<polyline points="221.5,162.0,229.0,161.5,236.5,160.5,244.5,160.0,252.5,159.5,260.0,159.0" stroke="black" stroke-width="2" fill="none" />
<polyline points="255.5,159.5,264.0,160.5,280.0,161.5,283.0,164.0" stroke="black" stroke-width="2" fill="none" />
<polyline points="276.5,155.0,268.5,162.5" stroke="black" stroke-width="2" fill="none" />
<polyline points="267.5,164.0,275.5,163.5,284.0,162.5" stroke="black" stroke-width="2" fill="none" />
<polyline points="276.0,148.5,268.5,155.5,260.5,163.5,252.5,171.0,244.0,179.0,236.5,186.0,228.0,193.5,219.5,201.5,211.0,209.0" stroke="black" stroke-width="2" fill="none" />
<polyline points="204.5,208.5,212.5,201.0,220.5,193.0,228.5,185.5,237.0,177.5,245.0,169.5,252.5,162.0,260.5,155.0,268.0,147.5" stroke="black" stroke-width="2" fill="none" />
<polyline points="270.0,137.5,262.5,145.5,254.0,153.0,245.5,161.0,236.5,168.5,228.5,176.0,220.0,184.5,211.5,192.5,203.5,200.0" stroke="black" stroke-width="2" fill="none" />
<polyline points="195.5,201.5,203.0,193.5,210.5,185.5,217.5,177.5,226.0,169.0,234.0,161.0,241.5,153.5,248.5,146.5,256.5,139.5" stroke="black" stroke-width="2" fill="none" />
<polyline points="249.0,140.5,241.0,148.0,233.0,155.0,225.5,162.0,218.0,169.0,211.0,176.5,203.0,184.0,195.5,191.5" stroke="black" stroke-width="2" fill="none" />
<polyline points="196.5,193.0,204.5,192.0,212.0,191.0,219.5,191.0,227.5,190.5,235.5,190.5,243.5,190.0,251.0,189.5,258.5,189.0,267.0,188.5,275.0,188.0" stroke="black" stroke-width="2" fill="none" />
<polyline points="274.0,184.5,282.0,197.5" stroke="black" stroke-width="2" fill="none" />
<polyline points="283.5,200.0,275.5,200.5,268.0,201.0,260.5,202.0,252.5,202.5,244.0,203.0" stroke="black" stroke-width="2" fill="none" />
<polyline points="235.0,199.0,227.0,199.0,219.0,199.5,211.0,200.0,203.0,200.0,194.5,200.5" stroke="black" stroke-width="2" fill="none" />
<polyline points="189.5,195.5,197.5,195.0,205.0,195.0,212.5,195.0,220.5,196.0,228.0,196.0,236.0,195.5,243.5,195.0,251.5,194.5,259.0,194.0,267.0,193.5,275.0,193.0,282.5,192.0,290.0,191.0,298.5,190.5,307.0,189.5,315.0,189.0,323.5,189.0,332.0,188.5,341.0,188.5,349.0,188.0,357.5,187.5,364.5,187.0" stroke="black" stroke-width="2" fill="none" />
<polyline points="322.5,144.5,314.0,145.0,305.5,145.5,297.0,146.0,289.0,146.5" stroke="black" stroke-width="2" fill="none" />
<polyline points="292.0,137.5,299.5,137.0,307.0,136.0,315.0,135.5,322.5,135.0" stroke="black" stroke-width="2" fill="none" />
<polyline points="321.0,106.0,313.0,113.5,305.5,121.0,298.0,129.0,290.5,136.5" stroke="black" stroke-width="2" fill="none" />
<polyline points="290.5,129.0,298.5,128.5,307.0,128.5,315.5,127.5,323.5,127.0" stroke="black" stroke-width="2" fill="none" />
<polyline points="321.5,98.0,313.5,105.5,306.0,113.0,298.5,121.0,291.0,128.0" stroke="black" stroke-width="2" fill="none" />
<polyline points="291.5,124.0,299.5,123.5,307.0,123.0,314.5,122.5,322.0,122.0" stroke="black" stroke-width="2" fill="none" />
<polyline points="321.5,91.0,313.5,98.5,305.0,106.0,297.0,113.5,289.5,121.0" stroke="black" stroke-width="2" fill="none" />
<polyline points="290.5,123.0,290.5,126.0,290.5,134.5" stroke="black" stroke-width="2" fill="none" />
<polyline points="281.5,134.5,289.0,134.0,297.5,134.0,306.0,134.0,315.0,133.0,323.5,132.5,331.5,131.5" stroke="black" stroke-width="2" fill="none" />
<polyline points="290.5,113.0,299.0,106.0,307.0,99.0,315.0,91.5,322.5,84.5" stroke="black" stroke-width="2" fill="none" />
<polyline points="323.5,74.5,315.5,82.5,307.5,89.5,299.5,97.0,291.5,105.0" stroke="black" stroke-width="2" fill="none" />
<polyline points="289.5,105.5,297.5,105.0,306.0,105.0,314.5,104.5,322.5,104.5" stroke="black" stroke-width="2" fill="none" />
<polyline points="323.5,95.5,315.5,96.0,307.5,96.5,300.0,97.0" stroke="black" stroke-width="2" fill="none" />
<polyline points="300.5,90.0,308.5,89.5,317.0,89.0,325.0,88.0" stroke="black" stroke-width="2" fill="none" />
<polyline points="317.5,74.5,309.5,82.0,300.5,90.0,292.0,97.5" stroke="black" stroke-width="2" fill="none" />
<polyline points="290.5,97.0,298.0,77.0,306.0,65.0,314.0,65.0,322.0,76.0" stroke="black" stroke-width="2" fill="none" />
<polyline points="317.5,67.0,309.5,74.5,301.0,82.0" stroke="black" stroke-width="2" fill="none" />
<polyline points="300.0,79.0,308.5,78.0,316.5,77.5,324.5,77.0" stroke="black" stroke-width="2" fill="none" />
<polyline points="322.0,69.0,314.0,69.0,306.5,69.0,299.0,69.0" stroke="black" stroke-width="2" fill="none" />
<polyline points="303.0,72.5,301.0,80.5" stroke="black" stroke-width="2" fill="none" />
<polyline points="292.5,86.5,300.5,86.0,309.0,86.0,317.5,85.5,325.5,85.5,333.5,85.0" stroke="black" stroke-width="2" fill="none" />
<polyline points="332.0,99.0,324.0,99.5,315.5,100.5,307.0,101.5,299.0,102.0,291.0,102.5" stroke="black" stroke-width="2" fill="none" />
<polyline points="292.0,95.5,300.0,95.0,308.5,94.5,316.5,94.0,325.0,93.0,333.0,93.0" stroke="black" stroke-width="2" fill="none" />
<polyline points="322.5,112.0,314.5,113.0,306.5,113.0,298.5,113.5,290.0,114.0" stroke="black" stroke-width="2" fill="none" />
<polyline points="283.0,116.5,291.5,115.5,299.0,115.0,306.5,114.5,314.5,114.0,322.5,113.5,330.0,113.0" stroke="black" stroke-width="2" fill="none" />
<polyline points="329.5,122.5,321.5,123.5,313.5,124.0,306.0,124.5,298.5,125.0,291.0,126.0,283.5,126.5" stroke="black" stroke-width="2" fill="none" />
<polyline points="283.0,110.0,291.0,109.5,299.0,108.5,307.0,107.5,315.5,107.0,324.0,106.0,331.5,106.0" stroke="black" stroke-width="2" fill="none" />
<polyline points="321.5,143.0,314.0,143.5,306.5,144.0,299.0,145.0,291.5,145.5,283.5,146.0,276.0,146.5,268.5,147.0,260.5,147.5,252.5,148.0,245.0,148.5,237.0,148.5,229.5,149.0,221.5,149.0,213.5,149.5" stroke="black" stroke-width="2" fill="none" />
<polyline points="212.5,153.0,220.0,146.0,228.0,138.0,235.5,130.5" stroke="black" stroke-width="2" fill="none" />
<polyline points="232.5,129.0,251.5,137.0,265.5,145.0,278.5,152.5,288.5,160.5" stroke="black" stroke-width="2" fill="none" />
<polyline points="274.5,150.0,267.5,150.5,260.0,151.5,252.0,152.0,244.0,153.0,236.0,153.5,228.0,154.0,220.0,154.5" stroke="black" stroke-width="2" fill="none" />
<polyline points="220.5,155.0,228.5,147.0,236.5,139.0,244.0,131.5" stroke="black" stroke-width="2" fill="none" />
<polyline points="249.0,133.5,241.0,140.5,234.0,147.5,226.0,154.5,218.5,161.5,211.0,168.5,203.5,175.5,195.5,182.5,188.0,190.0" stroke="black" stroke-width="2" fill="none" />
<polyline points="187.5,189.0,195.5,189.0,203.5,188.0,211.5,187.5,219.5,187.0,228.0,187.0,235.5,186.5,243.5,186.5,251.0,186.0,259.0,185.5,267.5,185.5,275.5,185.0,284.0,184.5,292.0,184.0,299.5,183.0,307.5,182.5,315.5,182.0,323.0,181.5,330.5,181.0,338.0,181.0,345.5,180.5,354.0,180.0" stroke="black" stroke-width="2" fill="none" />
<polyline points="412.0,227.5,404.0,228.0,396.0,228.5,388.0,229.0,379.5,229.5,371.5,230.5,363.5,231.0,355.5,231.5,347.0,231.5,339.0,232.0,331.0,232.0,322.5,232.5,314.0,233.0,305.5,233.5,298.0,234.0,290.5,234.0,283.0,234.5,275.5,235.0,267.5,235.5,259.5,236.0,252.0,237.0,244.0,237.5,235.5,238.0,227.5,238.5" stroke="black" stroke-width="2" fill="none" />
<polyline points="235.0,242.5,243.0,242.0,250.5,241.0,258.0,240.0,266.5,239.5" stroke="black" stroke-width="2" fill="none" />
<polyline points="269.5,239.0,278.0,237.0" stroke="black" stroke-width="2" fill="none" />
<polyline points="270.5,236.0,271.5,243.5,279.5,251.5,285.5,256.5,280.5,261.5" stroke="black" stroke-width="2" fill="none" />
<polyline points="272.0,281.5,264.0,281.5" stroke="black" stroke-width="2" fill="none" />
<polyline points="269.5,250.5,261.5,239.5" stroke="black" stroke-width="2" fill="none" />
<polyline points="263.5,243.0,263.5,246.0,268.0,249.5" stroke="black" stroke-width="2" fill="none" />
<polyline points="217.5,229.5,225.5,229.0,234.0,229.0,242.0,228.5,250.0,227.5,258.5,226.5,266.5,226.0,274.0,225.5,282.5,225.0,291.5,225.0,300.0,224.5,307.5,224.0,315.0,223.0,323.0,222.5,330.5,222.0,339.0,222.0,347.0,221.5,355.5,221.0,363.5,220.5,372.0,220.0,380.0,219.0,388.0,218.5,396.0,218.0,404.0,217.5,412.5,217.5,421.0,217.0,429.0,216.5,437.0,215.5,444.5,214.5,452.0,214.0" stroke="black" stroke-width="2" fill="none" />
<polyline points="516.0,43.0,508.0,43.5,500.5,43.5,493.0,44.0,486.0,44.0,478.0,44.5,470.0,45.0,461.5,46.0,453.5,47.0,445.5,48.0,437.0,48.5,429.0,49.0,420.5,49.0,412.0,49.5,403.0,50.0,394.5,51.0,386.5,51.5,379.0,52.0,371.0,52.0,363.0,52.5,355.0,53.0" stroke="black" stroke-width="2" fill="none" />
<polyline points="333.5,47.0,341.0,46.0,348.5,45.0,356.0,44.5,364.0,44.0,371.5,43.5,380.0,43.0,388.5,42.0,396.5,41.0,404.5,40.5,412.0,40.0,420.5,39.5,429.0,38.5,437.5,38.0,445.5,38.0,453.5,38.0,461.0,37.5,468.0,37.0,476.0,36.0,484.5,35.5,492.5,35.0,500.5,34.5,508.0,33.5,516.0,33.0" stroke="black" stroke-width="2" fill="none" />
<polyline points="317.0,60.0,309.0,60.0" stroke="black" stroke-width="2" fill="none" />
<polyline points="308.0,64.5,301.0,72.0,296.5,80.0,292.5,88.0,290.5,96.5,288.5,104.0,286.5,112.0,286.5,119.5,285.5,127.0,286.5,134.5,286.5,142.0,287.5,150.5" stroke="black" stroke-width="2" fill="none" />
<polyline points="260.0,142.5,252.5,143.0,245.0,143.5,237.0,143.5,229.0,144.0,221.0,145.0,213.5,145.0" stroke="black" stroke-width="2" fill="none" />
<polyline points="213.5,146.0,221.5,139.0,229.0,131.5" stroke="black" stroke-width="2" fill="none" />
<polyline points="228.0,122.5,220.5,130.0,213.0,137.0" stroke="black" stroke-width="2" fill="none" />
<polyline points="205.0,137.5,212.5,130.5,220.0,123.0" stroke="black" stroke-width="2" fill="none" />
<polyline points="221.0,126.5,212.5,126.5,204.5,126.0,196.5,126.5" stroke="black" stroke-width="2" fill="none" />
<polyline points="197.5,130.0,205.5,122.5,213.5,115.0,221.5,107.5" stroke="black" stroke-width="2" fill="none" />
<polyline points="222.5,105.5,214.5,106.5" stroke="black" stroke-width="2" fill="none" />
<polyline points="211.5,98.5,220.0,91.0,228.5,84.0" stroke="black" stroke-width="2" fill="none" />
<polyline points="227.5,90.5,220.0,98.0,212.0,106.0,204.5,114.0,197.0,121.5,189.0,129.0,180.5,137.0" stroke="black" stroke-width="2" fill="none" />
<polyline points="179.5,138.0,188.0,137.5" stroke="black" stroke-width="2" fill="none" />
<polyline points="187.5,139.0,180.0,146.0" stroke="black" stroke-width="2" fill="none" />
<polyline points="181.0,144.5,189.0,144.0" stroke="black" stroke-width="2" fill="none" />
<polyline points="188.5,146.5,180.5,154.0" stroke="black" stroke-width="2" fill="none" />
<polyline points="180.0,153.0,188.0,152.0" stroke="black" stroke-width="2" fill="none" />
<polyline points="181.0,148.0,189.5,147.5,197.5,147.5" stroke="black" stroke-width="2" fill="none" />
<polyline points="196.5,146.5,188.5,154.0,180.0,161.5" stroke="black" stroke-width="2" fill="none" />
<polyline points="179.5,161.5,187.5,161.0,195.5,160.5" stroke="black" stroke-width="2" fill="none" />
<polyline points="196.5,168.5,188.5,169.0" stroke="black" stroke-width="2" fill="none" />
<polyline points="180.5,165.5,188.5,165.0,196.5,164.5,204.5,164.0" stroke="black" stroke-width="2" fill="none" />
<polyline points="213.0,164.5,221.0,164.5,228.5,163.5,236.0,163.5,243.5,164.0,251.0,164.0,258.5,163.5,266.5,164.0,274.0,163.5,281.5,163.0,289.0,163.0,297.5,162.0,305.5,161.5,314.0,160.5,323.0,159.5" stroke="black" stroke-width="2" fill="none" />
<polyline points="323.0,152.0,314.0,153.0,305.5,153.0,297.0,153.0,289.5,153.5,281.0,154.0,273.5,154.5,266.0,155.0,259.0,155.5,251.5,155.5,244.0,156.0,237.0,156.5,229.0,157.0,221.0,158.0,213.0,158.5" stroke="black" stroke-width="2" fill="none" />
<polyline points="204.5,141.0,212.0,141.0,220.0,140.5,228.0,140.5,235.5,140.5,243.5,140.0,251.5,140.0,259.5,139.5,267.5,139.0,275.5,138.0" stroke="black" stroke-width="2" fill="none" />
<polyline points="259.5,129.5,251.5,130.0,244.0,130.0,236.0,130.5,228.0,130.5,220.0,131.0,212.0,131.5,203.5,131.5,195.5,132.5" stroke="black" stroke-width="2" fill="none" />
<polyline points="190.5,131.5,196.5,139.5,201.0,147.5,205.0,155.5,206.5,163.5,203.0,172.0" stroke="black" stroke-width="2" fill="none" />
<polyline points="195.5,156.5,187.0,157.0,178.5,157.0" stroke="black" stroke-width="2" fill="none" />
<polyline points="176.5,169.5,179.5,177.0,181.5,185.0,185.5,193.5,190.0,201.5,196.5,209.5,203.0,217.5,212.0,225.0,221.0,233.0,229.0,241.0,243.5,249.0,258.0,257.0,268.0,256.0,276.0,258.0,286.0,259.0,289.5,257.0,297.5,264.0" stroke="black" stroke-width="2" fill="none" />
<polyline points="265.5,206.0,257.5,207.0,250.0,207.5,242.5,208.0,234.5,208.0,226.5,208.0,218.5,208.0,211.0,208.5,203.0,209.0" stroke="black" stroke-width="2" fill="none" />
<polyline points="203.0,211.5,210.0,219.5" stroke="black" stroke-width="2" fill="none" />
<polyline points="211.5,220.0,219.5,219.5,227.0,219.0,235.0,218.5,243.5,218.0,252.0,218.0,260.0,217.0,268.0,217.0,276.5,216.5,284.5,216.5,292.0,216.0,301.0,215.5,309.5,215.5,317.5,214.5,325.0,214.0,333.0,213.0,340.5,212.5,348.0,212.5,355.0,212.5,363.0,212.5,371.0,211.5,379.5,211.5,387.5,210.0,396.0,209.5,403.5,208.5,411.5,208.0,419.5,208.0,428.5,208.0,437.0,208.0,445.5,207.5,453.5,206.5,461.5,206.0,469.5,205.5,477.5,205.0" stroke="black" stroke-width="2" fill="none" />
<polyline points="517.0,26.5,509.0,26.5,501.0,27.0,493.0,26.5,485.0,26.0,477.5,26.5,469.5,27.0,462.0,28.0,453.5,28.5,445.0,29.0,437.0,30.0,428.5,30.0,420.5,30.5,413.0,31.5,405.0,32.0,397.0,32.5,389.5,33.0,381.0,33.0,373.0,33.0,365.0,33.0,357.5,33.0,349.5,34.0,341.0,34.5,332.5,35.0,324.0,36.0,315.5,37.0,307.5,37.5" stroke="black" stroke-width="2" fill="none" />
<polyline points="283.5,29.5,291.5,29.0,299.0,28.5,307.5,28.0,316.5,28.0,324.5,28.0,332.0,27.5,340.0,26.5,347.5,25.5,355.0,25.0,363.0,25.0,371.0,24.5,379.0,24.0,387.5,23.5,396.0,23.0,404.0,22.0,411.5,21.0,419.5,20.0,427.5,19.5,436.0,19.0,444.5,18.5,452.5,18.0,460.0,16.5,467.5,16.0,475.0,15.5,482.5,15.0,490.5,15.0,499.0,14.5,507.0,14.5,515.5,14.0" stroke="black" stroke-width="2" fill="none" />
<polyline points="516.0,5.0,508.0,5.0,500.0,6.0,492.0,6.5,484.0,7.5,476.0,8.0,468.0,8.5,460.0,9.0,452.0,9.0,444.0,9.0,436.5,10.0,428.5,10.5,420.5,10.5,412.0,10.5,404.0,11.0,396.0,11.5,388.0,12.5,379.5,13.5,371.5,14.5,363.5,15.0,355.5,15.5,348.0,16.0,340.0,16.5,331.5,17.5,323.5,18.0,315.5,18.5,308.0,19.0,300.0,19.5,292.5,20.5,284.5,21.0,276.5,22.0,269.0,22.5" stroke="black" stroke-width="2" fill="none" />
<polyline points="251.0,13.0,258.5,12.0,267.0,12.0,275.0,11.5,282.5,11.5,290.0,11.0,298.5,11.0,307.0,10.5,315.0,10.0,322.5,9.0,331.0,8.0,338.5,8.0,346.0,8.0,354.0,8.0,362.0,8.0,370.0,7.0,378.5,7.0,387.0,5.5,395.5,4.5,403.0,4.0,411.0,3.0,419.0,3.0,427.0,3.0,435.5,2.5,444.0,2.0,452.0,1.5,460.0,1.0,468.0,0.5,475.5,0.0,484.0,0.0,492.0,-0.5,500.5,-1.5,508.5,-1.5,516.5,-2.0" stroke="black" stroke-width="2" fill="none" />
<polyline points="515.0,-11.0,507.5,-11.0,499.5,-11.5,491.5,-11.5,483.5,-11.0,475.5,-11.0,467.5,-9.5,459.0,-8.5,451.5,-8.0,443.5,-7.0,436.0,-6.5,428.0,-6.0,419.5,-5.5,411.5,-5.5,403.0,-4.5,395.0,-4.0,387.0,-3.0,378.5,-2.5,370.5,-2.0,362.5,-2.5,354.0,-1.5,346.0,-0.5,338.5,-0.5,330.5,0.0,323.0,0.5,315.0,0.5,307.0,1.5,298.5,2.5,290.5,3.5,282.0,4.0,274.5,5.0,267.0,5.5,259.0,6.0,251.0,6.5,243.0,7.0" stroke="black" stroke-width="2" fill="none" />
<polyline points="225.0,63.5,218.0,71.5,215.0,79.5,213.0,87.5,200.0,95.0,180.5,103.0,168.0,111.0,159.5,119.0,153.0,127.0,151.5,135.0,155.5,138.0,163.5,139.0,171.5,136.5,179.0,135.5,192.0,128.5,199.5,129.5,205.5,140.0,213.0,151.0" stroke="black" stroke-width="2" fill="none" />
<polyline points="204.0,136.5,212.5,136.0,220.5,136.5,228.0,136.0,236.0,136.0,244.0,135.5" stroke="black" stroke-width="2" fill="none" />
<polyline points="246.5,120.5,238.5,121.5,230.0,122.0,221.0,122.5,212.5,123.0,204.5,123.0,196.5,123.5,188.0,123.5,180.0,124.5,172.0,125.0,164.0,125.0,156.5,125.0" stroke="black" stroke-width="2" fill="none" />
<polyline points="157.5,129.5,165.0,122.0,172.5,114.5,180.0,107.5" stroke="black" stroke-width="2" fill="none" />
<polyline points="180.5,114.0,173.0,121.5,164.5,129.0,156.5,137.0" stroke="black" stroke-width="2" fill="none" />
<polyline points="155.0,130.0,162.5,129.0,170.5,128.5,179.0,128.5,187.5,128.0" stroke="black" stroke-width="2" fill="none" />
<polyline points="187.0,129.0,186.0,137.0,187.5,145.0,190.5,153.0,191.5,161.0,194.5,168.5,199.0,171.5" stroke="black" stroke-width="2" fill="none" />
<polyline points="177.0,182.5,185.0,182.0,193.0,181.0,201.5,180.0,210.5,180.0,219.5,179.5,228.0,178.5,236.0,178.0,244.5,178.0,253.5,177.0,261.5,177.0,269.0,176.5,276.5,175.5,284.5,175.0,292.5,174.5,300.0,174.0,308.0,174.0,315.5,174.5,323.5,174.5,331.5,174.5,339.5,174.0" stroke="black" stroke-width="2" fill="none" />
<polyline points="276.5,160.0,265.0,157.0,257.0,153.0" stroke="black" stroke-width="2" fill="none" />
<polyline points="258.5,152.5,268.5,160.5,278.5,162.5,278.0,172.5,282.0,170.5" stroke="black" stroke-width="2" fill="none" />
<polyline points="271.5,170.0,263.5,166.5,256.0,164.5" stroke="black" stroke-width="2" fill="none" />
<polyline points="255.5,165.0,263.5,173.0,262.5,181.5,270.5,189.5,278.5,197.0,285.5,205.5,291.5,213.5,299.0,221.5,304.0,229.5,310.5,237.5,315.0,245.5,320.0,253.5,313.5,261.5" stroke="black" stroke-width="2" fill="none" />
<polyline points="235.5,197.5,235.5,194.0" stroke="black" stroke-width="2" fill="none" />
<polyline points="205.0,213.0,213.0,212.5,220.5,212.5,228.5,212.0,236.5,212.0,244.0,212.0,252.0,211.5,259.5,211.0,267.0,210.5,274.5,210.0,282.0,209.5,290.0,209.0,298.5,208.0,306.5,207.0,314.5,206.0,323.0,205.0,331.5,204.5,340.0,204.0,348.5,203.5,356.5,202.5,365.0,202.0,373.0,202.0,380.5,201.5,388.5,201.0,396.5,200.5,404.5,199.5,412.5,199.0,420.5,199.0,428.5,199.0,435.5,198.5,443.5,198.0,452.0,197.0,460.5,196.5,468.5,196.5,477.0,196.5,484.5,196.5" stroke="black" stroke-width="2" fill="none" />
<polyline points="284.0,153.0,276.0,147.5,268.0,142.0,260.5,138.0,252.5,133.5,245.0,129.5,237.0,126.5,229.5,124.5,221.5,122.0,213.5,120.0" stroke="black" stroke-width="2" fill="none" />
<polyline points="212.5,124.5,204.5,132.0" stroke="black" stroke-width="2" fill="none" />
<polyline points="211.5,118.5,203.5,119.5,195.0,120.0,187.0,121.0" stroke="black" stroke-width="2" fill="none" />
<polyline points="189.5,116.0,181.0,123.5,173.0,131.0,165.0,138.5" stroke="black" stroke-width="2" fill="none" />
<polyline points="170.5,136.0,178.5,129.0,186.0,122.0,194.0,115.0,202.0,107.0" stroke="black" stroke-width="2" fill="none" />
<polyline points="202.0,112.0,210.0,112.0" stroke="black" stroke-width="2" fill="none" />
<polyline points="205.5,102.5,187.5,110.5" stroke="black" stroke-width="2" fill="none" />
<polyline points="180.0,100.5,188.0,100.0,197.0,99.0,205.5,98.5,213.5,98.0,221.5,97.5,229.0,97.5" stroke="black" stroke-width="2" fill="none" />
<polyline points="226.5,90.0,219.0,90.5" stroke="black" stroke-width="2" fill="none" />
<polyline points="218.5,83.0,226.5,82.5" stroke="black" stroke-width="2" fill="none" />
<polyline points="220.0,83.0,228.0,75.5" stroke="black" stroke-width="2" fill="none" />
<polyline points="222.0,74.0,229.5,66.0" stroke="black" stroke-width="2" fill="none" />
<polyline points="228.0,67.0,227.5,75.0,227.5,82.5,225.5,90.0,223.5,97.5,219.5,105.5,213.5,113.5,207.5,121.5,210.5,116.5,218.0,107.5" stroke="black" stroke-width="2" fill="none" />
<polyline points="220.5,106.5,212.5,107.0,204.0,107.0,196.0,107.5,188.0,107.5,180.5,108.0,173.0,108.5" stroke="black" stroke-width="2" fill="none" />
<polyline points="156.0,116.5,164.0,116.0,172.5,115.5,180.5,115.5,189.0,116.0,197.0,116.0,205.0,116.0,213.0,115.5,221.0,114.5" stroke="black" stroke-width="2" fill="none" />
<polyline points="212.5,96.0,204.5,100.0,196.5,102.5,188.5,105.0,180.5,109.0,173.0,115.5,176.5,111.5,192.0,104.0,211.5,96.0" stroke="black" stroke-width="2" fill="none" />
<polyline points="212.5,85.5,220.5,85.0,229.0,85.0" stroke="black" stroke-width="2" fill="none" />
<polyline points="221.0,78.0,228.5,77.5,236.5,77.0" stroke="black" stroke-width="2" fill="none" />
<polyline points="235.0,68.0,227.5,68.5,220.0,69.5" stroke="black" stroke-width="2" fill="none" />
<polyline points="228.5,90.5,221.0,91.5,213.5,92.0,205.5,92.5,197.5,93.0" stroke="black" stroke-width="2" fill="none" />
<polyline points="196.0,141.0,188.0,141.5,180.5,142.5" stroke="black" stroke-width="2" fill="none" />
<polyline points="176.5,138.5,176.0,146.5,175.0,154.5,174.0,162.5,174.0,170.5,174.0,179.0,174.5,187.0,175.5,195.0,176.5,202.5,178.0,210.5,180.0,219.0,182.0,227.0,184.0,235.0,187.5,243.0,192.5,254.5,200.5,262.5,211.5,270.5,232.0,278.5" stroke="black" stroke-width="2" fill="none" />
<polyline points="216.0,269.5,203.0,261.5" stroke="black" stroke-width="2" fill="none" />
<polyline points="208.0,164.0,200.5,164.0,192.5,143.0" stroke="black" stroke-width="2" fill="none" />
<polyline points="187.5,130.5,179.5,131.0,171.0,131.5,163.0,131.5,155.0,132.0,147.0,132.5" stroke="black" stroke-width="2" fill="none" />
<polyline points="150.0,130.0,158.0,120.0,166.0,112.0,174.0,107.0,182.5,102.0,190.5,99.0,198.5,96.0,206.0,93.0,214.0,84.0,221.5,66.0" stroke="black" stroke-width="2" fill="none" />
<polyline points="314.5,68.0,320.5,76.0,322.5,84.0,323.0,91.5,323.5,99.0,324.5,106.5,324.5,114.5,324.5,122.5,323.5,130.5,322.5,138.5,322.0,146.5,319.5,154.5,319.5,162.0,320.0,170.5,325.0,178.5,334.0,187.0,352.0,195.0,347.5,203.0,343.5,206.5" stroke="black" stroke-width="2" fill="none" />
<polyline points="17.5,123.5,9.0,124.0,1.0,124.5" stroke="black" stroke-width="2" fill="none" />
<polyline points="3.5,117.5,11.5,116.5" stroke="black" stroke-width="2" fill="none" />
<polyline points="12.0,70.5,4.5,71.0" stroke="black" stroke-width="2" fill="none" />
<polyline points="4.0,60.5,12.0,60.0" stroke="black" stroke-width="2" fill="none" />
<polyline points="2.0,53.0,10.0,52.5,19.0,52.0,27.0,51.0" stroke="black" stroke-width="2" fill="none" />
<polyline points="35.0,42.5,27.5,43.0,19.5,43.5,11.5,44.5,3.5,45.0" stroke="black" stroke-width="2" fill="none" />
<polyline points="6.0,38.5,14.0,38.5,21.5,37.5,29.0,36.5,36.5,35.5,44.0,34.0" stroke="black" stroke-width="2" fill="none" />
<polyline points="60.0,25.0,52.5,25.5,44.5,26.0,36.5,27.0,28.0,28.0,20.0,29.0,12.5,30.0,4.5,30.5" stroke="black" stroke-width="2" fill="none" />
<polyline points="5.0,22.0,13.0,21.0,20.0,20.5,28.0,20.0,36.0,20.0,44.0,19.0,52.0,18.0,60.0,17.0,68.5,16.0" stroke="black" stroke-width="2" fill="none" />
<polyline points="85.5,8.0,77.5,8.5,68.5,9.0,60.0,10.0,51.5,10.5,42.5,11.0,35.0,11.5,27.5,12.5,19.5,13.0,11.5,13.5,3.5,14.5" stroke="black" stroke-width="2" fill="none" />
<polyline points="2.0,4.5,10.0,3.5,18.5,3.5,26.5,3.5,34.5,2.5,42.5,2.0,51.5,1.5,61.0,0.5,69.5,-0.5,77.5,-1.0,85.5,-1.5" stroke="black" stroke-width="2" fill="none" />
<polyline points="3.0,2.5,11.0,2.5,19.0,2.5,26.5,2.0,34.0,2.0,42.0,1.5,49.5,2.0,57.5,2.5,65.5,3.0,73.0,3.0,80.5,3.0,89.0,3.0,97.0,3.5,105.5,3.5,113.5,3.0,121.5,3.0,129.5,3.0,137.5,2.5,145.5,3.0,154.0,3.0,162.5,3.0,170.0,3.0,178.0,3.0,186.0,2.5,193.5,3.0,201.5,3.0,210.0,3.0,218.0,3.0,226.0,3.0,234.5,3.0,242.5,3.0,250.5,3.0,258.5,3.0,266.5,3.0,274.5,3.0,283.0,3.0,291.0,3.0,299.0,3.0,307.0,2.5,314.5,2.5,322.0,2.5,330.5,2.5,338.5,2.5,347.0,2.5,355.0,2.5,363.0,2.5,371.0,2.5,379.0,2.0,387.0,2.0,395.0,2.0,403.5,2.5,411.0,2.5,419.0,2.5,427.0,2.5,434.5,2.5,442.5,2.5,450.5,2.5,458.0,2.5,466.0,3.0,474.0,3.0,481.5,3.0,490.0,3.5,498.0,3.5,506.0,3.5,513.5,5.5,514.0,13.5,513.5,21.5,514.0,29.5,514.0,37.5,514.0,45.5,514.0,53.5,514.0,61.5,514.5,69.5,514.5,77.5,514.5,85.0,514.0,93.0,514.0,101.0,514.0,109.0,514.0,117.0,513.5,125.0,513.5,132.5,513.5,141.0,513.5,149.0,513.0,157.0,512.5,165.0,512.5,173.0,512.0,181.0,512.0,189.0,512.0,196.5,512.0,204.0,512.0,212.0,512.0,220.0,512.0,228.0,511.5,236.0,511.5,244.5,511.5,252.5,512.0,260.5,511.5,268.5,511.5,276.5,512.0,284.5,512.0,292.5,512.0,300.5,512.0,308.0,512.0,316.0,511.5,324.0,511.5,331.5,512.0,339.5" stroke="black" stroke-width="2" fill="none" />
</svg>