<svg xmlns="http://www.w3.org/2000/svg" version="1.1"><path d="M228.0,64.5,229.0,72.5,229.0,80.5,227.0,89.0,224.5,97.0,221.5,105.0,215.0,113.0,208.0,121.0,213.5,113.5,221.5,100.5" stroke="black" stroke-width="2" fill="none" />
<path d="M219.5,108.0,211.0,115.5,203.0,123.5,195.0,131.0" stroke="black" stroke-width="2" fill="none" />
<path d="M196.0,131.5,204.0,130.0,211.5,129.5,219.0,128.5" stroke="black" stroke-width="2" fill="none" />
<path d="M219.5,124.0,211.5,131.5,204.0,138.5" stroke="black" stroke-width="2" fill="none" />
<path d="M205.5,139.5,213.5,138.5,221.5,138.0,229.5,137.0,237.0,136.0,244.5,135.5" stroke="black" stroke-width="2" fill="none" />
<path d="M245.0,133.0,237.0,140.5,228.0,148.0,220.0,155.0" stroke="black" stroke-width="2" fill="none" />
<path d="M220.0,154.5,227.5,153.5,235.0,153.0,242.5,152.5,250.0,152.5,258.5,152.0,266.5,151.5,274.5,150.0" stroke="black" stroke-width="2" fill="none" />
<path d="M275.5,148.0,267.5,155.5,259.0,163.0,250.5,171.0,242.0,179.0,233.5,186.5,225.5,194.0,217.0,201.5,209.0,209.0" stroke="black" stroke-width="2" fill="none" />
<path d="M204.0,211.0,212.0,210.0,220.0,209.5,228.0,208.5,236.0,208.0,244.0,207.0,252.0,206.5,260.0,205.5,268.0,205.0" stroke="black" stroke-width="2" fill="none" />
<path d="M268.0,209.5,276.0,217.5,285.0,226.0,291.5,234.0,292.5,242.0,296.5,250.0,300.5,258.0" stroke="black" stroke-width="2" fill="none" />
<path d="M307.0,258.0,315.0,257.5" stroke="black" stroke-width="2" fill="none" />
<path d="M316.0,257.0,324.0,250.0,332.0,243.0,340.0,235.0,348.0,227.5,356.5,220.0,364.0,212.0" stroke="black" stroke-width="2" fill="none" />
<path d="M357.0,210.5,348.5,218.0,340.5,225.5,332.5,233.5,325.0,241.5,317.0,249.5,308.5,256.5" stroke="black" stroke-width="2" fill="none" />
<path d="M305.5,249.5,314.0,249.0" stroke="black" stroke-width="2" fill="none" />
<path d="M316.0,243.5,324.0,243.0,331.5,242.0" stroke="black" stroke-width="2" fill="none" />
<path d="M331.0,249.0,339.0,242.5,346.5,235.0,355.0,228.0,363.0,220.5" stroke="black" stroke-width="2" fill="none" />
<path d="M370.0,222.0,361.5,229.0,353.5,236.0,346.0,243.0,338.0,250.0" stroke="black" stroke-width="2" fill="none" />
<path d="M341.0,249.0,338.5,257.0,329.5,264.5,316.5,271.5,325.5,268.0,334.0,262.0,342.0,252.0" stroke="black" stroke-width="2" fill="none" />
<path d="M340.5,241.0,349.5,240.5,357.5,240.0" stroke="black" stroke-width="2" fill="none" />
<path d="M355.5,242.0,363.5,235.0,371.5,228.5,379.5,221.5" stroke="black" stroke-width="2" fill="none" />
<path d="M389.5,220.5,381.0,227.5,372.5,235.0" stroke="black" stroke-width="2" fill="none" />
<path d="M379.5,235.0,387.5,227.5,396.0,220.0" stroke="black" stroke-width="2" fill="none" />
<path d="M403.5,218.0,395.5,225.5,387.0,233.0" stroke="black" stroke-width="2" fill="none" />
<path d="M397.0,234.0,405.0,226.5" stroke="black" stroke-width="2" fill="none" />
<path d="M412.5,198.0,420.0,197.5,428.0,197.0,435.5,196.0,443.5,195.0,452.0,194.5,459.5,194.0" stroke="black" stroke-width="2" fill="none" />
<path d="M499.0,142.0,507.0,141.0,515.0,140.5" stroke="black" stroke-width="2" fill="none" />
<path d="M517.0,130.5,508.5,130.5,500.0,131.0,492.0,131.0" stroke="black" stroke-width="2" fill="none" />
<path d="M477.5,124.0,485.5,123.0,493.5,123.0,501.0,122.5,508.5,122.5,516.0,122.5" stroke="black" stroke-width="2" fill="none" />
<path d="M516.5,114.5,509.0,114.5,501.0,115.0,493.0,115.0,484.5,115.5,476.5,116.0,468.5,117.0" stroke="black" stroke-width="2" fill="none" />
<path d="M453.0,110.0,460.5,109.5,468.5,108.0,476.0,107.0,484.5,106.5,492.0,105.5,500.0,105.5,508.0,105.5,516.0,106.0" stroke="black" stroke-width="2" fill="none" />
<path d="M516.0,98.0,508.0,98.5,500.0,99.5,491.5,100.0,483.0,100.0,475.5,100.0,467.5,100.5,459.5,100.5,452.0,100.5,444.0,101.0,436.5,101.0" stroke="black" stroke-width="2" fill="none" />
<path d="M426.5,93.0,434.5,93.0,443.0,92.5,451.5,92.0,459.0,92.0,467.0,91.5,475.0,91.0,483.0,90.5,490.5,89.5,498.0,89.0,506.0,88.5,514.5,88.0" stroke="black" stroke-width="2" fill="none" />
<path d="M516.0,78.0,507.5,78.0,499.0,78.5,491.0,79.5,482.5,80.0,474.0,81.5,465.5,82.5,457.5,83.5,449.5,83.5,441.5,84.0,433.5,84.0,426.0,85.0,418.0,85.5" stroke="black" stroke-width="2" fill="none" />
<path d="M405.0,76.5,412.5,76.0,420.5,76.5,428.0,76.5,436.0,76.5,444.5,76.5,452.0,76.0,460.0,76.0,468.5,75.5,477.0,74.5,485.0,73.5,493.0,73.0,501.0,73.0,508.5,72.0,516.5,71.0" stroke="black" stroke-width="2" fill="none" />
<path d="M515.5,61.0,507.5,62.0,500.0,63.0,492.0,64.0,484.0,65.0,477.0,65.5,469.0,66.0,461.0,66.5,453.0,67.0,445.0,67.0,437.0,66.5,429.0,66.5,421.5,67.0,413.0,67.5,405.0,68.0,397.0,68.5,389.5,68.5" stroke="black" stroke-width="2" fill="none" />
<path d="M372.0,60.5,380.0,60.0,388.0,59.5,395.5,59.0,403.0,58.0,411.0,57.5,419.0,57.0,427.5,57.0,435.5,57.0,444.0,57.0,452.0,57.0,460.0,56.0,468.5,55.0,476.5,54.0,484.5,53.0,492.5,52.5,500.5,52.0,508.5,51.5,516.0,50.5" stroke="black" stroke-width="2" fill="none" />
<path d="M514.5,41.0,506.5,41.5,498.5,42.0,491.0,43.5,483.5,45.0,476.0,46.0,467.5,46.5,459.5,47.0,452.0,47.5,444.0,48.0,436.5,48.5,428.5,49.0,420.5,49.0,412.5,49.5,404.0,50.0,395.5,50.5,388.0,51.0,380.0,51.5,372.0,51.5,364.0,51.5,356.0,52.0" stroke="black" stroke-width="2" fill="none" />
<path d="M332.0,46.0,340.5,45.5,349.0,45.0,357.0,44.0,365.0,43.5,372.5,43.5,381.0,42.5,388.5,42.0,396.5,42.0,404.0,41.5,411.5,41.0,419.5,40.5,428.0,39.5,436.5,39.0,444.5,38.5,452.5,38.0,461.0,37.5,469.0,37.0,477.0,36.0,485.0,35.5,493.0,35.0,500.5,35.0,509.0,35.0,517.0,35.0" stroke="black" stroke-width="2" fill="none" />
<path d="M325.5,74.0,317.5,81.5,309.0,89.5,300.5,97.0,292.0,104.5" stroke="black" stroke-width="2" fill="none" />
<path d="M291.5,104.0,299.0,104.0,307.0,103.5,315.0,103.5,323.0,103.0" stroke="black" stroke-width="2" fill="none" />
<path d="M322.0,101.5,314.5,108.5,307.0,116.0,299.0,123.5,291.0,131.0" stroke="black" stroke-width="2" fill="none" />
<path d="M292.0,130.0,300.5,129.5,308.5,129.0,317.0,128.5,325.0,128.0" stroke="black" stroke-width="2" fill="none" />
<path d="M324.5,131.5,316.5,139.0,308.5,146.0,300.5,153.5,293.0,161.0,284.5,168.5,276.0,176.0,268.0,183.5,260.0,190.5,252.0,198.0,244.0,205.5,236.0,213.0,228.0,221.0" stroke="black" stroke-width="2" fill="none" />
<path d="M227.5,229.0,235.0,221.5,242.5,214.5,251.0,206.5,259.0,199.5,267.0,192.5,275.5,185.0,284.0,178.0,292.0,171.0,299.5,163.0,307.5,156.0,316.0,149.0,324.0,141.5" stroke="black" stroke-width="2" fill="none" />
<path d="M325.0,147.0,316.5,155.0,309.0,163.0,301.0,171.0,292.5,179.0,284.0,186.5" stroke="black" stroke-width="2" fill="none" />
<path d="M285.5,186.5,293.5,186.0,301.5,185.5,310.0,185.0,317.5,185.0,326.0,185.0,333.5,184.5" stroke="black" stroke-width="2" fill="none" />
<path d="M330.5,185.0,323.0,193.0,314.5,201.0,306.5,208.5,298.5,216.0,290.5,224.0" stroke="black" stroke-width="2" fill="none" />
<path d="M293.0,227.0,300.5,226.0" stroke="black" stroke-width="2" fill="none" />
<path d="M301.0,232.0,309.0,224.0,316.5,216.5,324.5,209.5,332.0,202.0,340.0,194.5,347.5,187.0" stroke="black" stroke-width="2" fill="none" />
<path d="M347.0,194.0,339.0,201.5,331.0,209.0,323.5,217.0,315.5,224.5,307.5,232.5,300.0,240.0" stroke="black" stroke-width="2" fill="none" />
<path d="M300.0,242.0,308.5,241.5" stroke="black" stroke-width="2" fill="none" />
<path d="M306.5,246.5,314.5,239.0,323.0,232.0,331.5,225.0,339.5,218.0,347.5,211.0" stroke="black" stroke-width="2" fill="none" />
<path d="M347.5,209.0,340.0,209.0" stroke="black" stroke-width="2" fill="none" />
<path d="M339.5,218.0,348.0,218.0,356.5,217.5" stroke="black" stroke-width="2" fill="none" />
<path d="M364.0,224.5,356.0,225.5,347.5,226.0,339.5,226.5" stroke="black" stroke-width="2" fill="none" />
<path d="M332.0,226.0,324.0,226.5" stroke="black" stroke-width="2" fill="none" />
<path d="M332.0,228.0,331.5,236.0,329.5,244.0,325.5,252.0" stroke="black" stroke-width="2" fill="none" />
<path d="M322.5,250.0,330.5,249.5" stroke="black" stroke-width="2" fill="none" />
<path d="M341.0,234.0,348.5,233.0,356.5,232.5,364.5,231.5,372.5,231.0" stroke="black" stroke-width="2" fill="none" />
<path d="M367.5,239.0,359.5,241.5,351.0,245.5,342.5,257.5,335.0,265.0,327.5,270.0,319.5,273.5,311.5,276.5,304.0,279.0,295.5,280.0,287.5,281.0,279.0,282.5,271.0,282.5,263.0,282.5,255.5,282.5,247.5,281.0,239.5,278.5,231.0,276.5,222.5,274.0,214.5,271.0,206.5,267.0,198.5,261.0,190.0,252.0,182.0,232.0" stroke="black" stroke-width="2" fill="none" />
<path d="M202.0,211.5,208.5,219.5,214.5,227.0,221.0,235.5,231.0,244.0,246.0,252.0,256.5,252.0,262.5,257.0,275.0,264.0,284.0,261.5,291.0,266.5" stroke="black" stroke-width="2" fill="none" />
<path d="M291.0,253.5,299.0,246.0,306.5,238.5,314.5,230.5,322.5,223.0,331.0,215.5,339.5,208.5,348.0,201.0,356.5,193.5" stroke="black" stroke-width="2" fill="none" />
<path d="M340.0,185.0,332.0,193.0,324.0,201.0,315.5,209.0,307.0,216.5,299.0,224.5,291.0,232.0,283.0,240.0,275.0,247.5,267.5,255.0" stroke="black" stroke-width="2" fill="none" />
<path d="M267.5,251.0,275.5,243.5" stroke="black" stroke-width="2" fill="none" />
<path d="M272.5,241.0,280.5,251.0" stroke="black" stroke-width="2" fill="none" />
<path d="M282.5,252.5,290.5,245.5" stroke="black" stroke-width="2" fill="none" />
<path d="M291.5,249.5,283.0,250.0" stroke="black" stroke-width="2" fill="none" />
<path d="M275.0,249.5,266.0,250.0,258.0,250.5" stroke="black" stroke-width="2" fill="none" />
<path d="M259.5,247.0,267.5,239.5,275.5,232.0,283.5,224.5,291.0,216.5,299.0,209.0,306.5,201.5,314.5,193.5,322.0,185.0,330.0,177.5" stroke="black" stroke-width="2" fill="none" />
<path d="M322.5,179.5,314.5,186.5,307.0,194.0,299.0,201.5,291.5,208.5,283.5,216.0,276.0,223.5,268.0,231.5,259.5,239.0,251.0,245.5" stroke="black" stroke-width="2" fill="none" />
<path d="M251.0,237.5,259.0,229.5,267.0,222.0,275.0,214.5,282.5,207.0,291.0,200.5,299.0,193.5,307.5,186.5,315.5,179.5,323.5,173.0" stroke="black" stroke-width="2" fill="none" />
<path d="M322.0,170.5,330.0,182.5,337.5,188.0,345.5,191.0,353.0,193.5" stroke="black" stroke-width="2" fill="none" />
<path d="M331.0,208.5,323.0,208.5,315.0,208.5,307.0,209.0" stroke="black" stroke-width="2" fill="none" />
<path d="M307.0,202.5,314.5,202.5,323.0,202.0,331.5,201.0,340.5,200.0,348.5,199.5" stroke="black" stroke-width="2" fill="none" />
<path d="M340.0,191.0,332.0,192.0,323.5,192.5,316.0,193.5,308.5,194.5,301.0,195.0,293.0,195.5" stroke="black" stroke-width="2" fill="none" />
<path d="M284.0,200.0,275.5,200.5,267.0,200.0,258.5,200.0,250.5,200.5,242.5,201.0" stroke="black" stroke-width="2" fill="none" />
<path d="M236.5,200.0,228.0,200.5,220.0,201.0,212.0,201.5,204.5,201.0,196.5,201.5" stroke="black" stroke-width="2" fill="none" />
<path d="M196.5,198.0,204.5,191.0,212.0,183.5,220.0,176.5,228.0,169.0,236.0,161.0,244.0,153.0,251.5,145.0,259.0,137.5" stroke="black" stroke-width="2" fill="none" />
<path d="M253.0,132.5,245.0,140.0,237.0,148.0,228.5,155.0,220.5,162.0,212.5,169.5,204.5,176.5,196.5,183.5,188.0,190.0" stroke="black" stroke-width="2" fill="none" />
<path d="M185.5,188.5,193.5,187.5,202.0,187.5,210.5,187.0,218.5,187.0,226.5,186.0,234.5,185.5,242.5,185.0,250.5,185.0,258.5,184.5,266.5,184.0,275.0,183.5,283.5,183.0,292.0,182.0,300.0,181.5,307.5,181.0,315.5,180.5,323.5,180.0,331.0,180.0,338.5,180.0,346.5,180.0,354.5,179.0" stroke="black" stroke-width="2" fill="none" />
<path d="M324.0,164.0,315.5,171.5,307.5,179.0,299.0,186.5,291.0,194.0,283.0,201.5,275.0,209.0,267.0,216.0,259.0,224.0,251.5,231.5,243.5,239.0" stroke="black" stroke-width="2" fill="none" />
<path d="M241.0,246.0,249.0,245.5,258.0,245.0,266.5,244.0,275.0,244.0,284.0,243.0,292.0,242.5,300.5,242.5,308.5,242.5,316.5,242.5,325.0,242.0,332.5,241.0,340.5,240.5,348.0,239.5,356.5,239.0" stroke="black" stroke-width="2" fill="none" />
<path d="M361.0,240.0,348.0,248.0,343.5,256.5,334.5,264.5,322.0,273.0" stroke="black" stroke-width="2" fill="none" />
<path d="M317.5,235.5,325.0,235.0,333.0,233.5" stroke="black" stroke-width="2" fill="none" />
<path d="M332.5,217.5,324.5,218.0,316.5,218.5" stroke="black" stroke-width="2" fill="none" />
<path d="M328.5,209.5,336.5,212.5,337.0,215.5" stroke="black" stroke-width="2" fill="none" />
<path d="M331.5,214.5,328.5,207.0" stroke="black" stroke-width="2" fill="none" />
<path d="M309.0,234.5,301.0,235.0" stroke="black" stroke-width="2" fill="none" />
<path d="M292.5,237.5,300.0,249.5,308.0,263.5,315.5,260.5,323.5,255.5" stroke="black" stroke-width="2" fill="none" />
<path d="M292.0,217.5,284.5,217.5" stroke="black" stroke-width="2" fill="none" />
<path d="M284.5,209.0,276.0,209.0" stroke="black" stroke-width="2" fill="none" />
<path d="M267.0,210.5,271.5,218.0,281.0,226.5,287.5,234.5,289.5,242.0,293.5,250.0,296.5,257.5" stroke="black" stroke-width="2" fill="none" />
<path d="M315.0,266.5,307.0,267.0,299.0,267.5,291.5,268.0,283.5,268.5,275.5,269.0" stroke="black" stroke-width="2" fill="none" />
<path d="M267.0,262.0,275.5,261.5,283.0,260.5,291.5,259.5,299.5,258.0,307.0,257.5,315.0,257.5,323.0,258.0,331.5,258.0,340.0,257.5" stroke="black" stroke-width="2" fill="none" />
<path d="M349.0,247.5,341.5,248.0,333.0,248.5,324.5,249.0,316.0,249.5,307.5,250.5,299.0,251.5,291.0,252.0,283.5,253.0,275.0,253.5,266.5,254.5,258.5,255.0" stroke="black" stroke-width="2" fill="none" />
<path d="M266.5,260.5,274.5,262.5,282.5,263.5,291.5,265.5" stroke="black" stroke-width="2" fill="none" />
<path d="M314.5,246.0,306.0,229.0,298.0,221.5,290.0,211.5,282.0,201.5" stroke="black" stroke-width="2" fill="none" />
<path d="M276.0,196.5,268.5,204.0,260.5,211.5,252.5,219.0,245.0,226.0,237.5,234.0" stroke="black" stroke-width="2" fill="none" />
<path d="M235.5,238.0,242.5,230.5,251.0,223.5,259.0,216.5,267.5,209.0,276.0,201.5,284.5,194.0,292.5,186.0,300.5,178.0,308.5,170.5,317.0,162.5,325.0,155.0" stroke="black" stroke-width="2" fill="none" />
<path d="M326.0,121.5,318.0,129.0,309.5,136.5,301.5,144.0,293.5,151.5,285.0,159.5,277.0,167.5,269.0,175.5,261.0,183.5,253.0,191.5,245.0,199.0,237.0,206.5,229.0,214.0,221.0,221.5" stroke="black" stroke-width="2" fill="none" />
<path d="M219.0,224.5,227.5,224.0,235.5,224.0,243.5,223.5,252.0,223.5,260.5,223.0,268.5,223.0,276.5,222.5" stroke="black" stroke-width="2" fill="none" />
<path d="M283.0,230.5,275.5,231.0,268.0,231.0,259.5,231.5,251.0,231.5,243.0,231.5,235.0,232.0,227.0,232.0" stroke="black" stroke-width="2" fill="none" />
<path d="M226.5,237.0,235.0,236.5,243.5,236.0,252.0,235.0,260.0,234.5,267.5,234.0,275.5,233.5,283.5,233.0,291.0,233.0,298.5,233.0,306.5,233.0,314.5,232.0,322.5,231.5,331.0,230.5,339.0,230.0,347.0,229.0,355.0,229.0,363.0,229.0,371.5,229.0,380.0,229.0,388.5,228.0,396.0,227.5,404.0,227.0,411.5,226.0" stroke="black" stroke-width="2" fill="none" />
<path d="M316.0,167.5,308.0,167.5,300.0,168.0,291.5,168.5" stroke="black" stroke-width="2" fill="none" />
<path d="M289.5,160.0,297.5,159.5,305.5,159.0,313.5,158.5" stroke="black" stroke-width="2" fill="none" />
<path d="M315.0,151.5,306.5,152.5,298.5,153.0,290.5,154.0" stroke="black" stroke-width="2" fill="none" />
<path d="M290.5,146.0,299.0,145.5,307.5,144.5,315.5,144.0,324.0,143.5" stroke="black" stroke-width="2" fill="none" />
<path d="M324.0,116.5,316.0,123.5,308.0,131.0,300.0,138.0,292.0,145.0" stroke="black" stroke-width="2" fill="none" />
<path d="M291.0,142.5,299.5,142.0,308.0,141.0,316.0,140.0,324.5,139.0" stroke="black" stroke-width="2" fill="none" />
<path d="M322.5,110.0,314.5,117.0,307.0,124.5,299.0,131.5,291.0,138.5" stroke="black" stroke-width="2" fill="none" />
<path d="M293.0,140.0,300.5,139.5,307.5,138.5,315.5,138.0,323.5,137.0" stroke="black" stroke-width="2" fill="none" />
<path d="M325.0,120.5,317.0,120.5,309.0,121.0,301.5,121.0,293.5,121.0" stroke="black" stroke-width="2" fill="none" />
<path d="M292.0,122.0,300.5,114.5,309.0,107.0,316.5,99.5,324.5,92.5" stroke="black" stroke-width="2" fill="none" />
<path d="M324.5,83.5,316.5,91.0,308.0,98.5,299.5,106.0,292.0,114.5" stroke="black" stroke-width="2" fill="none" />
<path d="M290.5,111.5,298.5,111.5,306.5,111.5,315.0,111.5,323.5,111.0" stroke="black" stroke-width="2" fill="none" />
<path d="M324.5,96.0,317.0,97.0,309.0,98.0,301.5,98.5" stroke="black" stroke-width="2" fill="none" />
<path d="M301.5,89.0,309.0,88.5,317.0,87.5,324.5,86.5" stroke="black" stroke-width="2" fill="none" />
<path d="M317.0,76.0,308.5,83.0,300.0,90.0,291.5,97.0" stroke="black" stroke-width="2" fill="none" />
<path d="M291.0,96.5,299.0,75.5,307.5,65.5,315.0,65.5" stroke="black" stroke-width="2" fill="none" />
<path d="M314.5,66.5,320.5,74.5,322.5,82.0,324.5,90.0,325.0,98.0,326.0,106.0,325.5,114.0,325.0,121.5,323.5,129.5,322.5,137.5,321.5,145.5,319.5,153.5,320.0,162.0,321.0,170.0,325.0,178.0,334.0,185.5,353.0,193.5,349.0,201.5,342.0,208.5,349.5,200.5" stroke="black" stroke-width="2" fill="none" />
<path d="M324.5,176.0,316.5,176.0,308.5,176.5,300.5,177.0,293.0,178.0,284.5,179.0" stroke="black" stroke-width="2" fill="none" />
<path d="M283.0,188.0,291.0,192.0,299.0,198.5,307.0,207.0,315.0,219.0" stroke="black" stroke-width="2" fill="none" />
<path d="M279.5,241.5,271.5,238.0" stroke="black" stroke-width="2" fill="none" />
<path d="M271.0,236.5,273.5,244.5,278.5,255.0" stroke="black" stroke-width="2" fill="none" />
<path d="M276.0,237.5,279.5,246.0,287.5,258.0,295.5,265.5" stroke="black" stroke-width="2" fill="none" />
<path d="M266.0,236.5,258.5,237.0,250.5,238.0,242.5,238.5,234.5,239.5" stroke="black" stroke-width="2" fill="none" />
<path d="M220.5,229.5,228.0,229.5,236.0,229.0,243.5,228.5,251.5,228.5,259.0,228.0,267.5,228.0,275.5,228.0,284.0,228.0,292.5,227.5,301.0,227.0,308.5,226.5,315.5,225.5,323.5,225.0,331.5,224.0,339.5,223.0,347.5,222.5,355.5,221.5,364.0,220.5,372.5,219.5,380.0,218.5,388.0,218.0,396.0,217.5,403.5,217.0,411.0,216.0,419.0,215.5,427.0,215.0,435.5,215.0,443.5,215.0,452.0,215.0" stroke="black" stroke-width="2" fill="none" />
<path d="M281.5,156.5,273.5,164.0,266.0,172.0,258.5,179.5,251.5,187.0,244.0,194.5,236.0,201.5,228.0,208.0,220.0,215.0" stroke="black" stroke-width="2" fill="none" />
<path d="M212.0,217.0,220.0,210.0,227.5,202.0,235.5,194.5,243.0,187.0,250.5,179.0,258.0,171.5" stroke="black" stroke-width="2" fill="none" />
<path d="M257.5,169.0,266.0,174.0,273.5,178.0" stroke="black" stroke-width="2" fill="none" />
<path d="M267.0,179.0,259.5,180.0,252.0,180.0,244.0,181.0,236.0,182.0,228.0,183.0,219.5,183.5,211.0,183.0,202.5,183.0,194.0,184.0,186.0,185.0" stroke="black" stroke-width="2" fill="none" />
<path d="M188.0,186.0,195.5,178.0,203.5,170.0" stroke="black" stroke-width="2" fill="none" />
<path d="M195.5,171.5,187.0,179.0" stroke="black" stroke-width="2" fill="none" />
<path d="M185.5,177.0,194.0,176.5,202.5,176.0" stroke="black" stroke-width="2" fill="none" />
<path d="M213.0,176.5,221.5,176.0,229.5,176.0,237.0,175.5,245.0,174.5,253.0,174.5,260.5,174.0" stroke="black" stroke-width="2" fill="none" />
<path d="M261.0,178.5,267.5,186.5,276.0,194.5,283.5,200.0,291.5,210.5,299.5,217.5,307.5,226.5,307.5,233.0,315.5,244.0" stroke="black" stroke-width="2" fill="none" />
<path d="M267.5,214.0,259.0,215.0,251.0,215.5,243.0,216.0,235.0,216.5,227.0,217.0,219.5,218.0,212.0,218.5" stroke="black" stroke-width="2" fill="none" />
<path d="M211.5,224.0,219.5,223.5,227.5,222.5,235.5,221.5,243.5,221.0,251.5,220.0,259.5,219.0,267.5,218.5,275.5,217.5,283.5,217.0,291.0,217.0,299.5,216.5,307.5,215.5,315.5,215.0,322.5,214.5,330.5,214.0,338.5,213.5,347.0,213.0,355.0,213.0,362.5,213.0,370.5,212.0,378.5,211.5,386.5,210.5,394.0,210.0,402.0,209.5,410.0,209.5,418.0,208.5,426.5,208.0,434.5,208.0,443.0,207.5,451.5,207.0,459.0,206.5,467.0,206.5,475.0,206.0" stroke="black" stroke-width="2" fill="none" />
<path d="M516.5,24.0,508.5,24.5,500.5,25.5,492.5,26.5,484.5,27.5,476.5,28.5,468.5,29.0,460.5,29.5,452.5,29.5,444.5,30.0,437.0,30.5,429.0,31.5,421.0,32.0,413.0,31.5,405.0,31.5,396.5,31.5,388.0,32.0,380.5,32.5,372.5,33.0,364.5,34.0,356.0,35.0,347.5,35.5,339.5,36.0,331.5,37.0,323.0,38.0,315.0,38.5,307.0,39.5" stroke="black" stroke-width="2" fill="none" />
<path d="M307.5,62.0,315.5,61.5" stroke="black" stroke-width="2" fill="none" />
<path d="M316.5,69.0,308.5,76.5,300.5,83.5" stroke="black" stroke-width="2" fill="none" />
<path d="M300.5,77.0,308.0,76.5,316.5,76.0,325.0,75.5" stroke="black" stroke-width="2" fill="none" />
<path d="M324.5,68.0,316.5,68.0,308.0,68.5,300.0,68.5" stroke="black" stroke-width="2" fill="none" />
<path d="M305.5,71.0,303.5,79.0,305.0,82.0" stroke="black" stroke-width="2" fill="none" />
<path d="M303.0,76.5,304.0,68.5,299.0,76.5,295.0,84.0,292.0,92.0,290.0,99.5,288.0,107.5,287.0,115.5,286.0,123.0,286.0,131.0,287.0,139.5,288.0,147.5,289.0,155.0" stroke="black" stroke-width="2" fill="none" />
<path d="M276.0,155.5,268.5,163.0" stroke="black" stroke-width="2" fill="none" />
<path d="M268.0,160.0,276.0,160.0,284.0,159.5" stroke="black" stroke-width="2" fill="none" />
<path d="M268.0,149.0,259.5,157.0,252.0,164.5,243.5,172.0,234.5,179.0,226.5,186.5,218.5,194.0,211.0,201.0,203.0,208.5" stroke="black" stroke-width="2" fill="none" />
<path d="M204.5,214.0,212.5,213.5,220.5,213.5,228.0,212.5,236.0,211.5,243.5,210.5,251.5,210.0,259.5,209.5,267.0,209.0,275.5,208.5,283.5,208.0,291.5,207.5,299.5,207.0,307.0,206.5,315.0,206.0,323.0,205.5,331.5,205.0,339.5,205.0,348.0,205.0,356.0,204.5,363.5,204.0,371.5,203.5,379.5,202.5,387.5,202.0,395.5,201.0,403.5,201.0,412.0,200.0,420.0,200.0,428.0,199.5,436.0,199.0,444.0,198.0,452.5,198.0,461.0,197.0,469.0,196.5,477.0,196.0,485.0,195.5" stroke="black" stroke-width="2" fill="none" />
<path d="M332.0,100.0,323.5,100.0,315.0,100.0,307.0,100.0,298.5,99.5,290.5,100.0" stroke="black" stroke-width="2" fill="none" />
<path d="M289.5,94.0,298.0,93.0,306.0,93.0,314.5,92.5,323.5,92.0,332.0,91.5" stroke="black" stroke-width="2" fill="none" />
<path d="M330.5,84.0,322.5,84.5,314.5,84.5,306.5,84.5,299.0,85.0,291.5,85.5" stroke="black" stroke-width="2" fill="none" />
<path d="M305.5,79.0,308.5,71.0" stroke="black" stroke-width="2" fill="none" />
<path d="M330.5,106.5,322.0,107.0,314.5,108.0,307.5,108.5,300.0,108.5,292.5,108.5,285.0,109.0" stroke="black" stroke-width="2" fill="none" />
<path d="M285.5,118.0,293.5,117.5,300.5,117.0,308.0,116.5,315.5,115.5,322.5,115.5,330.0,115.0" stroke="black" stroke-width="2" fill="none" />
<path d="M331.5,132.0,323.0,133.0,315.0,133.5,307.0,133.5,298.5,133.5,290.0,134.0,282.0,134.0" stroke="black" stroke-width="2" fill="none" />
<path d="M284.5,126.5,292.5,125.5,300.5,125.5,308.0,125.0,315.0,125.0,323.0,125.0,331.0,124.5" stroke="black" stroke-width="2" fill="none" />
<path d="M324.5,159.0,316.5,159.5,308.5,160.0,301.0,161.0,292.5,162.0,285.0,163.0,276.5,163.5,268.0,163.5,260.0,163.5,252.0,163.5,244.0,164.0,236.0,164.0,228.5,164.0,221.0,164.5,212.5,164.5" stroke="black" stroke-width="2" fill="none" />
<path d="M219.0,160.0,227.0,159.5,235.0,159.0,243.5,159.0,251.5,159.0,260.0,158.5" stroke="black" stroke-width="2" fill="none" />
<path d="M263.0,161.5,255.0,157.0" stroke="black" stroke-width="2" fill="none" />
<path d="M253.5,156.5,262.5,156.5" stroke="black" stroke-width="2" fill="none" />
<path d="M265.5,157.5,257.5,153.0" stroke="black" stroke-width="2" fill="none" />
<path d="M260.5,142.5,252.5,142.5,244.5,143.5,237.0,144.0,229.5,145.0,221.5,146.0,213.5,146.5" stroke="black" stroke-width="2" fill="none" />
<path d="M212.0,146.5,220.0,139.0,228.5,131.5" stroke="black" stroke-width="2" fill="none" />
<path d="M229.0,126.0,249.0,133.5,265.0,141.5,278.0,149.5" stroke="black" stroke-width="2" fill="none" />
<path d="M268.0,141.0,260.0,148.5,252.0,156.5,244.0,163.5,236.0,171.0,228.5,178.0,220.5,185.5,212.5,193.0,204.0,200.0" stroke="black" stroke-width="2" fill="none" />
<path d="M197.0,194.5,205.0,194.0,213.0,193.0,221.0,193.0,229.0,193.0,236.5,193.0,243.5,192.5,251.0,192.0,258.5,191.5,266.5,191.0,274.5,190.0" stroke="black" stroke-width="2" fill="none" />
<path d="M271.0,184.5,263.0,180.0" stroke="black" stroke-width="2" fill="none" />
<path d="M262.0,180.5,270.5,180.0,278.5,185.0,289.5,191.5,300.0,199.5,308.0,207.5,313.0,215.0" stroke="black" stroke-width="2" fill="none" />
<path d="M299.5,254.5,291.5,244.5,283.5,226.5,275.5,219.5,267.0,211.0" stroke="black" stroke-width="2" fill="none" />
<path d="M266.5,210.0,274.5,216.0,282.5,222.5,290.5,232.5,295.5,242.5,300.5,250.0,305.5,258.0" stroke="black" stroke-width="2" fill="none" />
<path d="M260.5,167.5,252.0,168.0,243.5,169.0,235.5,169.5,227.5,170.0" stroke="black" stroke-width="2" fill="none" />
<path d="M212.5,153.0,220.5,146.0,228.0,139.0,236.0,132.0" stroke="black" stroke-width="2" fill="none" />
<path d="M230.0,126.0,221.5,133.0,213.0,140.0" stroke="black" stroke-width="2" fill="none" />
<path d="M205.0,143.0,213.0,143.0,221.0,142.0,229.5,141.5,237.5,141.0,245.5,140.0,253.0,139.0,260.0,138.0,267.5,137.5,275.0,137.5" stroke="black" stroke-width="2" fill="none" />
<path d="M257.0,130.0,249.5,131.0,242.5,131.5,235.0,132.0,227.5,132.0,220.0,132.0,212.5,132.5,205.0,133.0,197.5,133.0" stroke="black" stroke-width="2" fill="none" />
<path d="M203.5,129.0,211.5,121.0" stroke="black" stroke-width="2" fill="none" />
<path d="M211.5,122.0,204.0,122.5,196.0,123.5,188.0,124.5" stroke="black" stroke-width="2" fill="none" />
<path d="M188.0,128.0,179.5,128.0,171.5,128.5,164.0,129.5,155.5,130.0" stroke="black" stroke-width="2" fill="none" />
<path d="M154.0,131.5,162.0,124.0,170.0,116.0,178.0,108.5" stroke="black" stroke-width="2" fill="none" />
<path d="M180.0,115.0,172.0,123.0,164.0,130.5,156.0,138.5" stroke="black" stroke-width="2" fill="none" />
<path d="M152.5,139.5,149.5,131.5,154.5,123.5,162.5,115.5,174.0,107.5,190.5,100.0,212.0,91.5,215.0,83.5,217.5,75.0,223.0,67.0,225.0,65.0,217.0,78.0" stroke="black" stroke-width="2" fill="none" />
<path d="M221.5,79.5,229.5,79.5,237.0,78.5" stroke="black" stroke-width="2" fill="none" />
<path d="M227.0,75.5,219.0,83.0" stroke="black" stroke-width="2" fill="none" />
<path d="M220.0,84.0,228.0,83.5" stroke="black" stroke-width="2" fill="none" />
<path d="M226.5,81.5,218.5,89.0,210.0,97.0" stroke="black" stroke-width="2" fill="none" />
<path d="M212.5,96.0,195.5,104.0,178.5,112.0,176.5,114.5,184.5,110.0,193.0,106.0,200.5,103.5,208.5,100.5" stroke="black" stroke-width="2" fill="none" />
<path d="M212.0,101.0,204.0,105.0,196.5,109.0,188.5,112.0,180.5,116.0,184.0,113.5,202.0,105.5,213.5,97.5" stroke="black" stroke-width="2" fill="none" />
<path d="M212.5,105.0,220.5,104.5" stroke="black" stroke-width="2" fill="none" />
<path d="M219.0,91.0,227.0,90.0" stroke="black" stroke-width="2" fill="none" />
<path d="M228.0,92.0,219.5,99.5,211.0,107.0,202.5,114.5,194.5,122.0,186.5,129.5,178.0,136.5" stroke="black" stroke-width="2" fill="none" />
<path d="M180.0,137.0,188.0,136.0" stroke="black" stroke-width="2" fill="none" />
<path d="M188.0,139.0,180.5,147.0" stroke="black" stroke-width="2" fill="none" />
<path d="M179.0,144.5,187.5,144.0" stroke="black" stroke-width="2" fill="none" />
<path d="M188.5,147.0,181.0,155.0" stroke="black" stroke-width="2" fill="none" />
<path d="M179.0,153.5,187.0,153.0" stroke="black" stroke-width="2" fill="none" />
<path d="M190.0,147.5,198.0,166.0,206.0,167.5" stroke="black" stroke-width="2" fill="none" />
<path d="M197.0,162.5,188.5,170.0,180.0,178.0" stroke="black" stroke-width="2" fill="none" />
<path d="M181.5,176.5,189.0,195.5,197.0,207.5,204.5,213.5,212.5,224.0,220.5,232.0,229.0,240.5,237.0,245.5,245.5,249.5,253.5,254.5,261.5,258.0,269.5,256.5,277.5,257.5,285.0,255.5,293.0,262.5,301.0,265.5" stroke="black" stroke-width="2" fill="none" />
<path d="M361.5,185.0,353.5,185.5,345.5,186.0,338.0,186.5,330.5,186.5,322.5,186.5,314.0,186.5,305.5,187.0,298.0,187.5,290.5,188.0,282.5,189.0,274.5,189.5,266.5,190.5,258.5,190.5,250.0,191.0,242.0,191.5,233.5,192.0,226.0,193.0,217.5,193.5,209.0,195.5,201.0,196.5,193.0,198.0,185.0,198.5" stroke="black" stroke-width="2" fill="none" />
<path d="M195.5,191.5,203.0,184.0,210.5,177.0,219.0,170.0,227.5,162.5,235.5,154.5,243.5,147.0,251.0,140.0" stroke="black" stroke-width="2" fill="none" />
<path d="M244.5,119.5,236.5,120.0,228.5,120.5,220.5,121.0,212.0,121.5,203.5,122.0,195.0,122.5,187.0,123.0,180.0,124.0,172.5,124.5,165.0,125.5,157.0,126.0" stroke="black" stroke-width="2" fill="none" />
<path d="M156.0,119.0,164.0,118.5,172.5,117.0,181.0,116.0,189.0,115.0,197.0,114.0,205.0,113.5,212.5,113.0,220.0,112.5" stroke="black" stroke-width="2" fill="none" />
<path d="M212.5,114.5,204.5,115.0" stroke="black" stroke-width="2" fill="none" />
<path d="M204.0,106.5,196.0,114.0,187.5,121.5,179.5,129.0,171.0,136.5" stroke="black" stroke-width="2" fill="none" />
<path d="M165.0,138.5,173.0,130.5,180.5,122.5,188.0,115.0" stroke="black" stroke-width="2" fill="none" />
<path d="M186.0,130.5,194.0,131.5,193.5,131.5,199.5,139.5,203.0,148.0,207.5,156.0,209.5,164.0,206.5,171.5" stroke="black" stroke-width="2" fill="none" />
<path d="M195.5,170.0,188.0,170.0" stroke="black" stroke-width="2" fill="none" />
<path d="M180.5,171.0,188.5,163.5,196.5,156.5" stroke="black" stroke-width="2" fill="none" />
<path d="M194.5,156.5,186.5,156.5,178.0,156.5" stroke="black" stroke-width="2" fill="none" />
<path d="M178.5,160.0,179.5,168.0,181.0,175.5,184.0,183.0,187.0,191.0,192.0,198.5,197.0,206.5,201.5,214.5,203.5,215.5" stroke="black" stroke-width="2" fill="none" />
<path d="M196.0,205.5,204.5,205.5,212.5,205.5,220.0,205.5,228.0,204.5,236.0,204.0,243.5,204.0,251.0,203.5,259.0,203.0,267.0,202.5,274.5,202.0,282.5,201.5,291.0,200.5,299.5,200.0,307.0,199.0,315.0,198.5,323.5,197.5,332.0,196.5,340.5,196.0,349.0,195.5,357.5,195.0,365.0,194.5,373.0,193.5,380.5,192.5,388.5,191.5,396.5,190.5,404.0,190.0,412.0,189.5,420.0,189.0,428.0,188.5,436.0,188.0,444.0,188.0,452.5,187.5,461.0,187.5,468.5,187.5,476.5,187.5" stroke="black" stroke-width="2" fill="none" />
<path d="M517.5,13.5,509.5,14.5,501.5,15.5,493.5,17.0,485.5,17.5,477.5,18.0,469.5,18.0,461.0,18.5,453.0,19.0,444.5,19.0,436.5,20.0,428.5,21.0,420.5,21.5,412.5,22.0,404.5,22.5,396.5,23.0,387.5,24.0,379.0,25.0,370.5,25.5,363.0,25.5,354.5,26.0,346.5,26.5,338.5,27.0,331.0,27.5,323.5,28.0,315.0,28.5,306.0,29.0,297.5,29.0,289.5,29.0,281.0,29.5" stroke="black" stroke-width="2" fill="none" />
<path d="M267.5,22.5,275.5,21.5,283.0,21.0,291.5,20.0,300.0,19.0,308.5,18.0,316.5,18.0,325.0,18.0,333.0,18.0,341.5,18.0,349.5,17.5,357.0,17.0,365.0,16.0,372.5,15.0,380.0,14.5,387.5,13.5,395.0,13.5,403.5,13.0,411.5,12.5,419.5,12.5,427.0,12.0,435.0,11.0,443.0,10.5,450.5,10.0,458.0,10.0,466.0,10.0,474.5,9.5,482.5,9.0,491.0,8.0,499.5,7.0,507.5,6.5,515.5,6.0" stroke="black" stroke-width="2" fill="none" />
<path d="M514.5,-2.0,507.0,-2.0,499.5,-1.5,491.5,-1.0,483.0,0.0,475.0,0.5,467.5,0.5,460.5,0.5,453.0,0.5,445.0,1.0,437.0,1.0,428.5,1.5,420.5,2.0,412.5,3.0,404.0,3.0,396.0,3.5,388.0,4.5,380.5,5.5,372.0,6.0,364.0,7.0,356.5,7.0,348.5,7.0,340.0,7.5,332.0,7.5,324.5,8.0,317.0,8.5,309.0,9.5,300.5,10.0,291.5,11.0,283.5,12.0,275.0,12.5,266.5,13.5,258.5,14.5,250.5,15.0" stroke="black" stroke-width="2" fill="none" />
<path d="M242.5,4.5,250.5,4.5,259.0,4.0,267.5,4.0,276.0,3.5,283.5,2.5,292.0,2.0,300.0,1.0,308.0,0.5,315.5,0.0,323.5,-0.5,332.0,-1.0,340.0,-1.5,348.0,-1.5,356.0,-1.0,364.0,-1.5,371.5,-2.0,379.5,-3.0,387.5,-3.5,395.0,-4.5,402.5,-5.0,410.5,-5.0,419.0,-5.5,427.5,-6.0,435.0,-6.0,443.0,-6.5,451.0,-7.0,459.0,-7.5,466.5,-8.5,474.0,-9.0,482.0,-9.5,490.5,-10.0,499.0,-10.0,507.5,-10.5,515.5,-11.0" stroke="black" stroke-width="2" fill="none" />
<path d="M323.0,152.5,315.0,152.5,306.5,152.5,298.0,153.0,290.0,153.0,282.0,154.0,274.5,154.5,267.0,155.0,258.5,155.0,250.5,155.5,242.5,155.5,234.0,155.5,225.5,155.5,217.5,155.5,209.5,156.0" stroke="black" stroke-width="2" fill="none" />
<path d="M211.5,149.5,219.5,149.0,227.0,149.0,235.0,149.0,243.0,149.0,251.5,148.5,259.5,148.0,268.5,147.5,277.0,146.5,285.0,146.0,292.5,145.5,300.5,144.5,308.5,144.5,316.0,144.0,323.0,144.0" stroke="black" stroke-width="2" fill="none" />
<path d="M341.5,171.0,333.5,171.5,325.0,172.5,317.0,173.5,308.5,173.5,300.0,173.5,291.5,174.0,283.5,174.0,275.0,174.0,267.0,174.5,259.0,175.0,251.0,175.5,242.5,176.5,235.0,177.5,227.0,178.5,219.0,180.0,211.0,181.0,203.0,182.5,195.5,183.5,188.0,184.0,180.0,185.0" stroke="black" stroke-width="2" fill="none" />
<path d="M178.0,175.0,186.0,174.0,194.5,173.5,202.5,173.0,211.0,173.0,219.0,172.0,227.0,172.0,235.5,171.0,243.5,170.5,252.0,170.0,260.0,169.5,267.5,168.5,275.0,168.0,282.5,167.5,290.0,167.5,298.5,167.0,306.5,166.5,314.5,165.0,322.5,163.5,331.0,162.5" stroke="black" stroke-width="2" fill="none" />
<path d="M289.5,135.0,290.0,127.0,290.0,123.5" stroke="black" stroke-width="2" fill="none" />
<path d="M293.0,123.5,293.0,131.5" stroke="black" stroke-width="2" fill="none" />
<path d="M283.5,172.5,282.5,171.0,272.5,173.5,264.5,168.0,256.5,166.0" stroke="black" stroke-width="2" fill="none" />
<path d="M256.0,166.5,267.5,174.5,269.0,183.0,273.0,191.0,280.5,199.5,287.5,207.5,293.5,215.5,300.0,223.0,306.0,231.0,311.5,240.0,316.5,248.0,320.5,256.0" stroke="black" stroke-width="2" fill="none" />
<path d="M319.0,250.0,315.0,242.0,310.0,234.0,308.0,225.5,301.5,217.5,293.5,211.5,287.5,203.5,281.5,195.5,280.5,187.5,271.5,174.0,259.5,166.0" stroke="black" stroke-width="2" fill="none" />
<path d="M203.0,165.0,194.5,165.0,186.0,165.0,177.5,165.0" stroke="black" stroke-width="2" fill="none" />
<path d="M179.0,161.0,186.5,160.5,194.5,160.5" stroke="black" stroke-width="2" fill="none" />
<path d="M196.0,160.5,200.0,168.5" stroke="black" stroke-width="2" fill="none" />
<path d="M182.0,163.0,190.5,155.0,198.5,147.5" stroke="black" stroke-width="2" fill="none" />
<path d="M199.5,144.0,207.5,154.5,215.5,166.0" stroke="black" stroke-width="2" fill="none" />
<path d="M219.0,165.0,210.5,150.5,202.5,140.5" stroke="black" stroke-width="2" fill="none" />
<path d="M203.0,141.0,209.0,149.5,214.0,157.5,219.0,166.0" stroke="black" stroke-width="2" fill="none" />
<path d="M213.5,164.0,209.5,156.0,204.5,148.0" stroke="black" stroke-width="2" fill="none" />
<path d="M194.5,148.5,186.5,149.5,179.0,150.0" stroke="black" stroke-width="2" fill="none" />
<path d="M180.5,143.5,188.5,142.5,197.0,142.5" stroke="black" stroke-width="2" fill="none" />
<path d="M188.5,132.0,180.5,132.5,172.0,132.5,163.5,133.0,155.0,133.5,146.5,134.0" stroke="black" stroke-width="2" fill="none" />
<path d="M150.5,135.0,158.5,142.0,166.0,141.0,174.0,138.5,177.5,142.0,177.0,150.0,176.5,157.0,174.5,164.5,173.5,172.5,173.5,180.0,175.0,188.5,174.5,196.0,176.0,204.5,178.0,212.5,180.0,220.5,182.5,229.0,185.5,237.0,189.0,245.5,192.0,253.0,199.0,261.0,210.5,269.0" stroke="black" stroke-width="2" fill="none" />
<path d="M280.5,150.5,272.5,146.0,265.0,141.0,256.5,136.5,248.5,133.0,240.5,130.0,233.0,127.5,225.0,125.5,217.5,123.0,209.5,122.0" stroke="black" stroke-width="2" fill="none" />
<path d="M219.0,105.5,210.5,106.0,202.5,106.5,195.0,107.0,187.0,107.5,178.5,107.5,170.5,108.0" stroke="black" stroke-width="2" fill="none" />
<path d="M179.0,101.0,187.0,100.0,194.0,100.0,201.5,100.0,209.0,100.0,217.5,100.0,225.0,99.0" stroke="black" stroke-width="2" fill="none" />
<path d="M228.0,83.5,220.0,84.0,211.5,84.0" stroke="black" stroke-width="2" fill="none" />
<path d="M221.5,76.0,229.5,68.5" stroke="black" stroke-width="2" fill="none" />
<path d="M236.5,70.0,228.5,71.0,221.0,71.5" stroke="black" stroke-width="2" fill="none" />
<path d="M227.5,91.0,219.5,91.5,211.0,92.0,202.5,92.5,194.5,92.5" stroke="black" stroke-width="2" fill="none" />
<path d="M207.0,94.5,199.0,97.5,191.0,100.0,183.0,104.0,175.0,108.5,167.5,114.5,159.5,122.0,151.5,131.0" stroke="black" stroke-width="2" fill="none" />
<path d="M187.0,131.0,187.0,139.0,189.5,147.0,193.0,155.0,192.5,162.5,195.5,171.0" stroke="black" stroke-width="2" fill="none" />
<path d="M19.0,124.5,10.5,124.5,2.5,125.0" stroke="black" stroke-width="2" fill="none" />
<path d="M3.0,117.5,11.0,117.5" stroke="black" stroke-width="2" fill="none" />
<path d="M10.0,70.5,2.0,71.0" stroke="black" stroke-width="2" fill="none" />
<path d="M3.5,61.5,11.5,60.5" stroke="black" stroke-width="2" fill="none" />
<path d="M5.0,52.0,13.0,51.5,20.0,51.0,28.0,50.5" stroke="black" stroke-width="2" fill="none" />
<path d="M37.5,43.5,29.5,43.5,21.0,44.0,12.5,44.0,4.5,44.5" stroke="black" stroke-width="2" fill="none" />
<path d="M5.5,35.5,13.5,35.0,21.5,35.0,29.5,35.5,38.0,35.5,46.5,35.0" stroke="black" stroke-width="2" fill="none" />
<path d="M61.0,26.0,53.0,25.5,45.0,26.0,37.0,26.5,28.5,27.0,20.5,28.0,12.0,28.5,4.0,29.5" stroke="black" stroke-width="2" fill="none" />
<path d="M4.0,22.5,12.0,22.5,21.0,22.5,29.0,22.0,36.5,21.5,45.0,21.0,52.5,20.5,60.5,20.0,68.5,19.5" stroke="black" stroke-width="2" fill="none" />
<path d="M82.5,7.5,74.5,8.0,66.5,9.0,59.0,9.5,52.0,10.0,45.0,11.0,37.5,11.5,29.5,12.0,22.0,12.5,14.0,13.5,5.5,14.0" stroke="black" stroke-width="2" fill="none" />
<path d="M5.0,4.5,13.0,4.0,21.0,4.0,28.5,3.5,36.5,3.5,44.5,3.0,51.5,2.0,58.0,2.0,65.5,2.0,73.0,2.0,81.0,1.5" stroke="black" stroke-width="2" fill="none" />
</svg>