<svg xmlns="http://www.w3.org/2000/svg" version="1.1"><path d="M476.0,12.5,475.0,20.5,472.0,28.5,466.0,30.0,473.5,32.0,479.5,25.0" stroke="black" stroke-width="2" fill="none" />
<path d="M466.5,33.0,461.5,24.5,465.5,16.0,469.5,13.5,462.0,21.5" stroke="black" stroke-width="2" fill="none" />
<path d="M423.0,69.0,429.0,68.5,427.0,70.5,422.0,72.0,423.5,71.0,419.0,63.0,426.0,61.5,418.0,60.5,414.0,67.5" stroke="black" stroke-width="2" fill="none" />
<path d="M413.5,100.0,410.0,104.0,411.0,108.0" stroke="black" stroke-width="2" fill="none" />
<path d="M426.5,137.0,425.5,145.0,427.0,153.0,430.0,153.5" stroke="black" stroke-width="2" fill="none" />
<path d="M425.5,143.5,434.0,139.5,435.0,141.5" stroke="black" stroke-width="2" fill="none" />
<path d="M441.0,131.5,454.5,126.0,449.5,133.5,449.5,148.0,447.5,156.0,450.5,158.5,458.5,144.0,458.5,145.0,455.0,153.0,462.5,157.0,471.5,164.0,475.5,171.0,475.0,179.0" stroke="black" stroke-width="2" fill="none" />
<path d="M477.5,183.5,479.5,175.5,471.5,163.5" stroke="black" stroke-width="2" fill="none" />
<path d="M474.5,150.5,475.0,158.5,478.0,156.5,480.5,153.0" stroke="black" stroke-width="2" fill="none" />
<path d="M506.0,132.0,509.0,127.0,504.0,132.5,510.0,124.0,508.0,116.0,506.5,115.0" stroke="black" stroke-width="2" fill="none" />
<path d="M470.5,113.0,465.5,115.5,464.5,107.5" stroke="black" stroke-width="2" fill="none" />
<path d="M451.0,127.0,443.0,129.0" stroke="black" stroke-width="2" fill="none" />
<path d="M408.5,147.0,405.5,155.0,396.5,156.0,402.5,162.5,402.5,171.0,414.0,178.0,411.5,177.5,412.5,180.5" stroke="black" stroke-width="2" fill="none" />
<path d="M411.0,196.0,403.0,203.0,395.5,210.0,387.5,217.0,380.0,225.0,371.5,232.0,364.0,239.5,355.5,247.0" stroke="black" stroke-width="2" fill="none" />
<path d="M363.0,247.0,371.0,240.0,379.5,233.0,387.5,226.0,395.0,218.5,402.5,211.0,410.0,204.0,418.0,197.0" stroke="black" stroke-width="2" fill="none" />
<path d="M429.0,197.5,420.5,205.5,412.5,213.0,404.0,220.0,395.5,227.5,387.5,234.5,379.0,242.0" stroke="black" stroke-width="2" fill="none" />
<path d="M372.0,242.5,380.5,242.0,388.5,241.5" stroke="black" stroke-width="2" fill="none" />
<path d="M388.0,241.5,396.0,234.0,404.0,225.5,411.5,218.0,419.0,210.5,427.0,203.5,435.0,196.5" stroke="black" stroke-width="2" fill="none" />
<path d="M434.5,203.0,427.0,210.5,419.0,218.0,411.0,225.5,402.5,233.0" stroke="black" stroke-width="2" fill="none" />
<path d="M399.5,241.0,407.0,239.0,406.5,247.0,407.0,255.5,407.5,263.5,404.0,271.5,408.0,276.5,408.0,284.5,407.5,292.5,408.0,300.0,408.0,308.0,408.0,316.0,407.5,324.5,407.5,332.5,406.5,340.5,406.5,348.5,406.5,356.5,406.0,364.5,405.5,372.5,405.5,380.5,405.5,388.0,405.5,396.0,405.5,404.0,404.0,412.0,404.5,420.5,404.5,429.0,404.5,437.0,404.0,445.5,404.0,454.0,403.0,463.0,411.5,468.5,419.0,469.0,427.0,462.5" stroke="black" stroke-width="2" fill="none" />
<path d="M427.0,460.0,419.0,467.5" stroke="black" stroke-width="2" fill="none" />
<path d="M411.0,467.5,419.5,460.0,427.5,453.0" stroke="black" stroke-width="2" fill="none" />
<path d="M427.0,444.0,418.5,451.5,410.5,459.0,403.0,466.5" stroke="black" stroke-width="2" fill="none" />
<path d="M403.5,459.5,411.5,458.5,419.5,457.0,427.5,456.0" stroke="black" stroke-width="2" fill="none" />
<path d="M427.5,464.5,419.5,465.5,411.0,465.5" stroke="black" stroke-width="2" fill="none" />
<path d="M404.0,457.0,412.0,450.0,420.0,442.5,428.0,435.0" stroke="black" stroke-width="2" fill="none" />
<path d="M429.0,426.5,421.0,434.5,412.5,442.0,404.5,450.0,396.0,457.0" stroke="black" stroke-width="2" fill="none" />
<path d="M388.0,451.0,396.0,443.5" stroke="black" stroke-width="2" fill="none" />
<path d="M405.0,442.0,413.5,435.0,421.5,427.5,429.5,419.5" stroke="black" stroke-width="2" fill="none" />
<path d="M429.5,412.0,422.0,419.5,413.5,427.0,405.5,434.5" stroke="black" stroke-width="2" fill="none" />
<path d="M402.0,432.0,409.5,431.0,417.5,430.0,426.0,429.0,434.0,428.0" stroke="black" stroke-width="2" fill="none" />
<path d="M428.0,449.0,420.0,450.0,412.0,451.0" stroke="black" stroke-width="2" fill="none" />
<path d="M411.5,442.0,419.5,441.0,427.5,440.0" stroke="black" stroke-width="2" fill="none" />
<path d="M427.5,431.0,419.5,431.5,411.5,431.5" stroke="black" stroke-width="2" fill="none" />
<path d="M412.5,424.0,420.0,423.5,428.0,423.5" stroke="black" stroke-width="2" fill="none" />
<path d="M429.0,416.0,421.5,416.5,414.5,417.0" stroke="black" stroke-width="2" fill="none" />
<path d="M412.5,410.0,420.0,409.5,427.5,408.5" stroke="black" stroke-width="2" fill="none" />
<path d="M429.0,404.0,420.5,411.5,412.0,419.0,403.5,426.5" stroke="black" stroke-width="2" fill="none" />
<path d="M403.0,422.5,411.0,422.0,418.5,421.0,427.0,420.5,435.0,419.0" stroke="black" stroke-width="2" fill="none" />
<path d="M426.5,396.0,418.0,403.5,410.0,411.0,402.0,418.5" stroke="black" stroke-width="2" fill="none" />
<path d="M404.0,414.0,412.5,414.0,420.0,413.5,428.0,413.0,436.0,413.0" stroke="black" stroke-width="2" fill="none" />
<path d="M427.5,401.5,419.5,401.5,412.0,402.0" stroke="black" stroke-width="2" fill="none" />
<path d="M410.5,395.5,418.0,388.0,426.0,380.5,434.0,373.0" stroke="black" stroke-width="2" fill="none" />
<path d="M434.5,363.5,426.5,370.5,419.0,378.0,411.0,385.5" stroke="black" stroke-width="2" fill="none" />
<path d="M411.5,386.0,419.5,385.5,427.0,385.5" stroke="black" stroke-width="2" fill="none" />
<path d="M426.0,388.5,418.0,396.0,410.0,404.0" stroke="black" stroke-width="2" fill="none" />
<path d="M405.0,404.5,412.5,404.0,420.5,403.5,428.5,403.5,437.0,403.5" stroke="black" stroke-width="2" fill="none" />
<path d="M428.0,393.0,420.0,393.5,411.5,394.0" stroke="black" stroke-width="2" fill="none" />
<path d="M404.5,395.5,412.0,395.0,419.5,394.5,427.0,393.5,434.5,393.0" stroke="black" stroke-width="2" fill="none" />
<path d="M412.0,377.5,419.5,370.0,427.0,363.0,435.0,356.0" stroke="black" stroke-width="2" fill="none" />
<path d="M434.5,355.5,442.5,354.5" stroke="black" stroke-width="2" fill="none" />
<path d="M434.5,354.0,426.5,354.5,418.5,355.0,411.0,355.0,402.5,355.0" stroke="black" stroke-width="2" fill="none" />
<path d="M402.0,347.5,410.0,347.0,418.5,347.5,426.5,347.5,435.0,347.0" stroke="black" stroke-width="2" fill="none" />
<path d="M435.5,347.0,443.5,346.5,452.5,347.5,460.5,346.5,468.0,346.5,476.0,346.5,484.0,347.5" stroke="black" stroke-width="2" fill="none" />
<path d="M491.0,340.5,483.0,341.0,475.5,341.5" stroke="black" stroke-width="2" fill="none" />
<path d="M475.5,323.5,483.5,323.0" stroke="black" stroke-width="2" fill="none" />
<path d="M484.5,320.0,476.0,318.0" stroke="black" stroke-width="2" fill="none" />
<path d="M476.0,317.5,483.5,316.5,491.5,315.5" stroke="black" stroke-width="2" fill="none" />
<path d="M497.5,318.5,505.5,318.5,514.5,318.5" stroke="black" stroke-width="2" fill="none" />
<path d="M515.5,309.0,507.0,310.0" stroke="black" stroke-width="2" fill="none" />
<path d="M503.5,309.0,503.5,317.0,501.0,313.0" stroke="black" stroke-width="2" fill="none" />
<path d="M500.0,326.0,508.0,325.0,516.0,324.5" stroke="black" stroke-width="2" fill="none" />
<path d="M515.0,341.0,506.0,341.5" stroke="black" stroke-width="2" fill="none" />
<path d="M504.5,360.0,512.5,364.0" stroke="black" stroke-width="2" fill="none" />
<path d="M459.5,340.0,451.5,341.0,443.5,341.0" stroke="black" stroke-width="2" fill="none" />
<path d="M436.5,339.0,428.0,346.0,419.5,353.5,411.0,361.5" stroke="black" stroke-width="2" fill="none" />
<path d="M411.5,362.0,419.5,361.5,428.0,360.5" stroke="black" stroke-width="2" fill="none" />
<path d="M434.5,346.5,427.0,354.0,419.0,361.0,411.5,368.5" stroke="black" stroke-width="2" fill="none" />
<path d="M411.5,367.5,419.0,367.5,427.0,367.0" stroke="black" stroke-width="2" fill="none" />
<path d="M427.0,376.0,419.0,376.0,410.5,376.0" stroke="black" stroke-width="2" fill="none" />
<path d="M403.5,373.0,412.0,372.5,420.0,372.0,428.5,371.5,436.5,370.5" stroke="black" stroke-width="2" fill="none" />
<path d="M428.0,352.5,419.5,353.0,410.5,353.5" stroke="black" stroke-width="2" fill="none" />
<path d="M412.0,353.0,419.5,346.0,427.0,339.5,435.5,331.5" stroke="black" stroke-width="2" fill="none" />
<path d="M437.5,326.0,439.0,321.0,438.5,321.0,438.5,329.0,435.0,337.0,443.0,334.0,447.0,337.5,455.5,337.5" stroke="black" stroke-width="2" fill="none" />
<path d="M451.0,317.5,459.0,317.0" stroke="black" stroke-width="2" fill="none" />
<path d="M449.0,309.0,457.0,312.0,454.5,320.0,457.0,312.0,466.0,307.0,471.0,310.0,482.0,315.5,484.5,323.5,482.5,332.0,487.5,339.5,495.5,339.5,498.5,345.5,506.0,345.0" stroke="black" stroke-width="2" fill="none" />
<path d="M515.0,325.0,507.0,325.5,499.0,326.0,491.0,326.5,483.5,326.5,475.0,327.5,467.0,327.5,459.0,328.0,451.0,328.5,442.5,329.0,435.0,330.5,427.0,331.5,419.5,332.5,411.5,333.5,403.5,335.0" stroke="black" stroke-width="2" fill="none" />
<path d="M409.5,337.0,417.5,330.0,425.5,322.5,433.5,315.0" stroke="black" stroke-width="2" fill="none" />
<path d="M433.5,306.5,426.0,314.5,418.0,321.5,410.0,329.0" stroke="black" stroke-width="2" fill="none" />
<path d="M412.0,328.5,420.0,328.0,428.0,328.0" stroke="black" stroke-width="2" fill="none" />
<path d="M435.5,323.5,427.0,331.0,419.0,338.0,411.5,345.5" stroke="black" stroke-width="2" fill="none" />
<path d="M411.5,345.0,420.0,344.5,428.0,344.5" stroke="black" stroke-width="2" fill="none" />
<path d="M433.5,345.5,441.0,342.0,449.0,341.0,457.0,341.5,464.5,341.0,472.0,341.0,480.0,340.5,488.5,339.5,496.5,340.5,504.5,340.5,512.5,340.5" stroke="black" stroke-width="2" fill="none" />
<path d="M487.5,308.0,486.5,304.0,488.5,301.5,486.5,293.0,483.5,285.5,489.5,277.0,489.5,270.5,485.5,266.5,476.5,263.0,475.0,260.5,475.0,259.5" stroke="black" stroke-width="2" fill="none" />
<path d="M477.5,276.5,485.5,274.5,493.0,272.0,491.0,281.0,488.0,289.5,474.0,300.0,476.0,302.0,471.0,310.0,459.5,312.5,459.5,320.5,458.5,332.0" stroke="black" stroke-width="2" fill="none" />
<path d="M473.5,317.0,481.5,318.0,489.5,319.0" stroke="black" stroke-width="2" fill="none" />
<path d="M490.0,300.0,479.5,296.0,471.5,301.0" stroke="black" stroke-width="2" fill="none" />
<path d="M471.0,285.0,474.0,284.0,473.0,292.0,470.5,288.0,476.5,293.0,485.0,285.5,486.0,290.0,492.0,293.5,503.5,283.0,504.5,289.0,511.0,293.0" stroke="black" stroke-width="2" fill="none" />
<path d="M507.5,299.0,506.5,290.5,500.0,282.5" stroke="black" stroke-width="2" fill="none" />
<path d="M502.0,273.0,494.0,273.5" stroke="black" stroke-width="2" fill="none" />
<path d="M499.0,278.5,496.0,270.5,487.0,271.5,490.0,263.5,483.0,274.0,478.5,267.0,467.5,268.0,459.0,270.0,452.0,275.0,445.0,274.5,444.5,271.0,448.5,276.5,451.0,268.5" stroke="black" stroke-width="2" fill="none" />
<path d="M460.5,270.5,466.0,278.5,465.0,287.0,459.0,294.5" stroke="black" stroke-width="2" fill="none" />
<path d="M434.5,289.0,427.0,297.5,419.0,305.5,411.0,313.5" stroke="black" stroke-width="2" fill="none" />
<path d="M412.5,315.0,420.0,314.0,427.5,313.0,435.5,312.5" stroke="black" stroke-width="2" fill="none" />
<path d="M434.0,298.5,426.5,306.0,418.0,313.0,410.0,320.5" stroke="black" stroke-width="2" fill="none" />
<path d="M413.0,322.0,421.0,321.5,429.0,321.0,437.0,320.5" stroke="black" stroke-width="2" fill="none" />
<path d="M427.5,336.0,419.0,336.5,410.5,337.5" stroke="black" stroke-width="2" fill="none" />
<path d="M402.5,341.5,410.5,340.5,419.0,340.0,427.0,339.5,435.5,338.5" stroke="black" stroke-width="2" fill="none" />
<path d="M435.5,344.5,443.5,344.0,451.0,345.0,459.0,343.5,467.5,344.5,475.0,344.0,479.0,337.5,484.0,342.5,495.0,345.5,503.0,348.5" stroke="black" stroke-width="2" fill="none" />
<path d="M434.5,304.0,426.0,305.0,417.0,305.5,409.0,306.0" stroke="black" stroke-width="2" fill="none" />
<path d="M411.5,305.0,419.0,297.5,427.0,290.5,435.0,283.0" stroke="black" stroke-width="2" fill="none" />
<path d="M435.0,274.5,427.0,282.5,419.5,290.5,411.5,298.5" stroke="black" stroke-width="2" fill="none" />
<path d="M409.5,297.5,418.0,297.5,426.5,297.5,435.0,297.0" stroke="black" stroke-width="2" fill="none" />
<path d="M435.5,288.5,427.5,289.5,419.0,290.5,411.0,291.0" stroke="black" stroke-width="2" fill="none" />
<path d="M410.5,290.5,419.0,283.0,427.5,275.0,436.0,268.0" stroke="black" stroke-width="2" fill="none" />
<path d="M435.0,260.5,427.5,268.0,419.0,276.0,411.0,283.5" stroke="black" stroke-width="2" fill="none" />
<path d="M412.0,282.5,419.5,282.0,427.5,281.5,435.0,281.0" stroke="black" stroke-width="2" fill="none" />
<path d="M413.0,275.5,421.5,268.0,429.5,261.0,437.5,254.0" stroke="black" stroke-width="2" fill="none" />
<path d="M435.5,244.0,428.0,251.5,419.5,259.0,412.0,267.0" stroke="black" stroke-width="2" fill="none" />
<path d="M410.5,265.0,418.5,264.5,427.0,264.0,435.0,264.0" stroke="black" stroke-width="2" fill="none" />
<path d="M413.5,258.5,421.5,251.5,430.0,244.5,438.0,237.0" stroke="black" stroke-width="2" fill="none" />
<path d="M435.5,240.5,427.5,241.0,419.5,241.5,412.0,242.0" stroke="black" stroke-width="2" fill="none" />
<path d="M410.5,242.0,418.5,235.0,426.5,228.0,434.5,220.0" stroke="black" stroke-width="2" fill="none" />
<path d="M435.5,211.5,427.5,219.0,419.5,226.0,411.5,233.5" stroke="black" stroke-width="2" fill="none" />
<path d="M411.5,244.0,419.5,243.5,427.0,243.0,435.0,243.0,443.0,243.0" stroke="black" stroke-width="2" fill="none" />
<path d="M436.0,247.5,428.5,248.0,421.0,248.0,413.0,248.5" stroke="black" stroke-width="2" fill="none" />
<path d="M412.0,250.0,420.0,242.5,428.0,235.5,436.0,228.5" stroke="black" stroke-width="2" fill="none" />
<path d="M436.0,231.5,428.0,232.5,419.5,233.0,410.5,233.5,402.0,234.0,393.5,234.0,385.5,234.5" stroke="black" stroke-width="2" fill="none" />
<path d="M380.5,230.5,372.5,231.5,364.5,232.0,356.0,232.5,348.0,232.5,339.5,232.5,331.5,233.0,322.5,233.5,315.0,234.0,306.5,234.0,298.0,235.0,289.5,235.5,281.5,236.5,274.0,237.0,266.0,237.5,258.0,238.0,250.5,238.5,243.5,238.5,236.0,239.5,228.5,240.0,221.5,240.5,213.5,241.0,205.0,241.0,196.5,241.5,188.5,242.0,180.5,242.5,172.5,242.5,164.5,243.5,157.0,244.0,149.5,245.0,141.5,246.0,133.5,246.5" stroke="black" stroke-width="2" fill="none" />
<path d="M140.0,242.0,148.5,234.5,156.5,226.5,164.5,219.0,173.0,211.0,181.0,203.0,189.0,195.0" stroke="black" stroke-width="2" fill="none" />
<path d="M180.5,189.5,188.0,189.5,196.0,189.0,203.5,188.5,211.5,188.5,219.0,188.0,227.5,188.0,235.5,188.0,244.0,188.0,252.5,187.5,261.0,187.0,268.5,186.5,275.5,185.5,283.5,185.0,291.5,184.0,299.5,183.0,307.5,182.5,315.5,181.5,324.0,180.5,332.5,179.5,340.0,178.5,348.0,178.0,356.0,177.5" stroke="black" stroke-width="2" fill="none" />
<path d="M365.5,173.5,369.5,174.5,367.5,183.0,369.5,186.0" stroke="black" stroke-width="2" fill="none" />
<path d="M371.0,193.5,363.0,200.5,355.5,208.0,347.5,215.5,339.5,223.0,331.0,230.5,322.5,238.5,314.0,246.0,306.0,254.0,298.0,262.0,290.0,269.5,282.5,277.0,274.0,284.0" stroke="black" stroke-width="2" fill="none" />
<path d="M276.5,282.5,284.5,282.0,292.5,281.5,300.5,280.5,309.0,280.0" stroke="black" stroke-width="2" fill="none" />
<path d="M307.5,283.0,299.5,291.0,291.5,298.5,283.0,306.0,274.5,313.0" stroke="black" stroke-width="2" fill="none" />
<path d="M276.0,313.0,283.5,313.0,292.0,312.5,300.5,312.0,308.5,311.5" stroke="black" stroke-width="2" fill="none" />
<path d="M306.0,314.5,297.5,322.0,289.0,329.5,281.0,337.5,273.5,345.5" stroke="black" stroke-width="2" fill="none" />
<path d="M276.5,345.0,285.5,344.5,293.5,344.0,301.5,343.5,309.0,343.0" stroke="black" stroke-width="2" fill="none" />
<path d="M311.0,340.5,319.0,340.5,326.5,340.5,335.0,342.0,343.0,341.0,351.0,341.0,359.0,339.5,365.0,341.5,373.0,342.0,381.0,342.0,389.0,342.0,397.0,342.0" stroke="black" stroke-width="2" fill="none" />
<path d="M404.0,326.0,411.5,325.5,419.5,325.0,427.0,324.5,435.0,324.0" stroke="black" stroke-width="2" fill="none" />
<path d="M444.5,316.0,436.5,316.0,428.5,316.0,420.5,316.5,413.0,316.5,405.0,317.0" stroke="black" stroke-width="2" fill="none" />
<path d="M405.0,309.0,412.5,309.0,421.0,309.0,429.0,309.0,436.5,309.0" stroke="black" stroke-width="2" fill="none" />
<path d="M436.0,301.0,427.5,301.0,419.5,302.0,412.0,303.0,404.0,303.5" stroke="black" stroke-width="2" fill="none" />
<path d="M404.5,293.5,412.5,293.0,420.5,292.0,428.5,291.5,437.0,291.0" stroke="black" stroke-width="2" fill="none" />
<path d="M433.5,273.0,425.5,273.5,417.5,274.0,409.5,274.5" stroke="black" stroke-width="2" fill="none" />
<path d="M404.0,278.5,412.0,277.5,420.0,277.0,428.0,276.0,436.0,275.0" stroke="black" stroke-width="2" fill="none" />
<path d="M436.0,255.0,428.5,255.5,420.5,256.0,413.0,256.5" stroke="black" stroke-width="2" fill="none" />
<path d="M404.5,254.5,412.5,253.5,421.0,253.0,428.5,252.5,436.0,252.0" stroke="black" stroke-width="2" fill="none" />
<path d="M435.0,268.5,427.0,269.5,419.0,270.5,410.5,271.0,402.5,272.0" stroke="black" stroke-width="2" fill="none" />
<path d="M402.0,263.5,410.5,262.5,419.0,262.0,427.0,261.5,435.0,261.0" stroke="black" stroke-width="2" fill="none" />
<path d="M445.0,281.5,437.5,281.5,429.5,282.0,421.5,282.5,414.0,283.0,406.0,283.5" stroke="black" stroke-width="2" fill="none" />
<path d="M380.5,287.0,382.5,299.0,376.0,307.0,379.0,305.0,385.5,300.5,380.5,308.5" stroke="black" stroke-width="2" fill="none" />
<path d="M369.5,317.0,377.0,317.0,389.0,321.5" stroke="black" stroke-width="2" fill="none" />
<path d="M387.0,331.0,379.0,329.5" stroke="black" stroke-width="2" fill="none" />
<path d="M377.0,330.0,384.0,332.0,386.5,332.0,392.0,334.0" stroke="black" stroke-width="2" fill="none" />
<path d="M377.0,329.5,376.5,328.5" stroke="black" stroke-width="2" fill="none" />
<path d="M385.0,353.5,383.0,350.0,372.0,345.0,364.0,345.0,356.0,345.5,348.0,345.5" stroke="black" stroke-width="2" fill="none" />
<path d="M306.5,349.5,298.5,357.0,290.5,363.5,282.5,370.5,275.0,378.0" stroke="black" stroke-width="2" fill="none" />
<path d="M274.5,377.0,282.5,377.0,291.0,376.5,299.5,376.0,307.0,376.0" stroke="black" stroke-width="2" fill="none" />
<path d="M307.0,372.5,299.0,380.0,290.5,387.0,282.0,394.5,273.5,402.0" stroke="black" stroke-width="2" fill="none" />
<path d="M276.5,401.0,284.5,400.0,292.5,399.5,301.0,399.0,309.0,399.0" stroke="black" stroke-width="2" fill="none" />
<path d="M307.5,395.5,300.0,402.5,292.0,410.0,284.0,417.5,276.5,424.5" stroke="black" stroke-width="2" fill="none" />
<path d="M275.5,418.5,283.5,411.0,292.0,403.0,299.5,395.0,307.5,387.5" stroke="black" stroke-width="2" fill="none" />
<path d="M307.0,380.0,299.0,387.5,291.0,395.0,283.0,402.5,275.5,410.0" stroke="black" stroke-width="2" fill="none" />
<path d="M284.5,410.5,292.5,409.5,300.5,409.0,309.0,408.0" stroke="black" stroke-width="2" fill="none" />
<path d="M310.0,409.0,301.5,417.0,293.5,424.5,285.5,432.0,277.0,440.0" stroke="black" stroke-width="2" fill="none" />
<path d="M283.5,440.0,291.5,440.0,300.0,440.0,308.5,439.0" stroke="black" stroke-width="2" fill="none" />
<path d="M310.0,442.5,301.5,450.5,293.0,458.0,284.0,466.0,276.0,473.5" stroke="black" stroke-width="2" fill="none" />
<path d="M277.5,476.0,285.5,475.0,293.5,475.0,301.0,474.5,308.5,474.5,316.0,474.5,324.0,474.0,332.0,473.5,340.5,473.0,348.5,473.0" stroke="black" stroke-width="2" fill="none" />
<path d="M371.5,477.5,379.5,477.0,387.0,477.0" stroke="black" stroke-width="2" fill="none" />
<path d="M397.0,478.0,404.5,477.0,412.0,476.0,419.5,475.0,427.5,474.5" stroke="black" stroke-width="2" fill="none" />
<path d="M420.5,501.0,413.0,501.5,405.5,502.5" stroke="black" stroke-width="2" fill="none" />
<path d="M397.5,492.0,405.5,491.5,413.0,491.5,420.5,491.0" stroke="black" stroke-width="2" fill="none" />
<path d="M412.0,516.5,404.5,517.0,396.5,517.5" stroke="black" stroke-width="2" fill="none" />
<path d="M386.5,487.5,394.5,486.5,403.0,486.0,411.5,485.5,420.0,484.5,428.0,484.0" stroke="black" stroke-width="2" fill="none" />
<path d="M428.5,467.5,420.5,468.5,412.5,469.5,404.5,470.5,396.5,471.0" stroke="black" stroke-width="2" fill="none" />
<path d="M390.0,462.0,381.5,462.5,373.5,462.0,365.5,462.0,357.5,462.0,349.0,462.0,341.0,462.0,333.5,462.5,325.5,463.0,317.5,463.5,308.5,464.0,301.0,464.5,293.0,465.5,284.5,466.5,276.5,467.5,268.5,468.0,261.0,468.5,253.0,468.5,245.0,469.0,237.5,469.0,229.5,469.0" stroke="black" stroke-width="2" fill="none" />
<path d="M210.5,484.0,202.5,484.5,194.5,485.0" stroke="black" stroke-width="2" fill="none" />
<path d="M186.5,468.5,194.5,468.5,203.0,468.0" stroke="black" stroke-width="2" fill="none" />
<path d="M155.0,463.0,163.0,462.0,171.0,461.5,178.5,460.5,186.0,459.5,194.5,458.5,202.0,457.5,210.0,456.5,218.5,456.0,227.0,455.5,235.5,455.0,243.0,455.0,251.0,454.5,259.0,454.5,267.0,454.0,275.5,454.0,283.5,454.0,291.5,454.0,299.5,453.5,307.5,453.0,315.5,452.5,323.5,452.0,332.0,451.5,340.0,450.5,348.0,449.5,355.5,448.5,363.0,447.5,371.0,447.0,378.5,446.0,386.5,445.0,394.5,444.5,402.5,444.0,410.0,444.0,418.0,443.5,426.0,443.0,434.0,443.0" stroke="black" stroke-width="2" fill="none" />
<path d="M436.0,428.5,428.0,428.5,420.0,429.0,412.0,429.5,404.0,430.5,395.5,431.0,387.0,431.0,379.5,431.0,371.5,431.5,363.5,431.5,356.0,431.5,348.0,432.0,340.5,432.0,332.5,433.0,324.0,433.5,316.0,434.5,308.0,435.0,300.0,436.0,291.5,436.5,284.0,437.5,276.5,438.5,269.0,439.0,261.0,439.5" stroke="black" stroke-width="2" fill="none" />
<path d="M259.5,428.5,268.0,428.0,276.0,427.5,284.0,427.5,292.0,428.0,300.0,427.5,307.5,427.0,315.5,426.0,323.5,425.5,331.0,424.5,338.5,424.0,346.5,424.0,355.0,423.5,363.5,423.0,371.0,423.0,379.0,422.5,387.0,422.0,395.0,421.5" stroke="black" stroke-width="2" fill="none" />
<path d="M370.0,406.5,362.0,407.0,354.0,407.0,346.0,407.5,338.5,408.5,330.5,409.0,322.5,409.5,314.5,410.0,306.5,410.0,299.0,411.0,291.5,411.5,284.5,412.0,277.0,412.5,269.0,413.0,261.0,413.5,253.0,414.0,245.0,414.0,237.5,414.5,229.5,414.5,221.0,414.5,212.0,414.5,204.0,414.5,196.0,415.0,188.0,415.0,179.5,415.5,172.0,416.5,164.0,417.5,156.5,418.0,148.5,419.5,141.0,420.0,133.5,421.0,125.5,422.0,117.5,422.5,109.5,423.5" stroke="black" stroke-width="2" fill="none" />
<path d="M108.5,415.0,116.5,414.5,124.5,414.0,132.5,413.5,140.0,412.5,148.0,412.5,155.5,411.5,163.5,411.0,171.5,410.5,179.5,410.0,187.5,409.5,195.5,408.5,203.0,408.0,211.5,407.0,220.0,406.0,228.5,405.0,236.5,405.0,245.0,405.0,253.0,405.0,261.5,405.0,269.5,404.5,277.0,404.0,285.0,403.0,292.5,402.0,300.0,401.5,307.5,400.5,315.0,400.5,323.5,400.0,331.5,399.5,339.5,399.5,347.0,399.0,355.0,398.0,363.0,397.5" stroke="black" stroke-width="2" fill="none" />
<path d="M340.5,377.5,332.5,378.0,324.0,378.5,315.5,379.0,308.0,379.0,300.0,380.0,292.0,380.5,284.0,381.5,276.0,382.5,268.0,382.5,259.5,383.0,250.5,383.5,242.0,384.0,234.0,384.0,225.5,385.0,218.0,385.5,211.0,386.0,203.5,386.5,195.5,387.5,187.5,388.0,180.5,389.0,173.0,390.0,165.0,390.5,157.5,391.5,149.5,391.5" stroke="black" stroke-width="2" fill="none" />
<path d="M149.0,383.5,156.5,383.0,164.5,382.0,172.0,381.0,179.5,380.0,187.0,380.0,195.0,379.0,203.5,378.5,211.5,377.5,219.0,377.0,227.5,376.5,235.0,376.0,242.5,375.5,250.5,375.5,258.5,375.5,266.5,375.0,275.0,374.0,283.5,373.5,292.0,373.0,300.5,372.5,308.0,372.0,316.5,371.5" stroke="black" stroke-width="2" fill="none" />
<path d="M305.5,365.0,297.5,372.5,290.0,379.5,282.5,387.0,274.5,394.0" stroke="black" stroke-width="2" fill="none" />
<path d="M277.0,394.0,284.5,393.5,292.5,392.0,300.0,391.0,308.5,390.5" stroke="black" stroke-width="2" fill="none" />
<path d="M315.0,395.5,306.5,403.0,298.0,410.5,290.0,417.5,281.5,425.0,274.0,432.0" stroke="black" stroke-width="2" fill="none" />
<path d="M284.0,432.5,292.0,432.0,299.5,431.5,307.5,431.0" stroke="black" stroke-width="2" fill="none" />
<path d="M309.0,434.0,300.5,441.5,292.5,449.5,284.5,458.0,277.0,466.0" stroke="black" stroke-width="2" fill="none" />
<path d="M283.5,466.0,291.5,465.5,300.0,464.5,308.5,464.0" stroke="black" stroke-width="2" fill="none" />
<path d="M314.0,460.0,306.5,468.0,299.0,475.5,290.5,483.5,282.5,491.0,274.0,498.5" stroke="black" stroke-width="2" fill="none" />
<path d="M274.0,502.5,282.0,502.0,290.0,502.0,298.0,501.5,306.0,500.5,314.0,500.0,322.0,499.5,330.0,499.0,337.5,498.5" stroke="black" stroke-width="2" fill="none" />
<path d="M313.5,493.0,305.5,500.5,298.0,508.0,290.5,515.5,284.0,523.0" stroke="black" stroke-width="2" fill="none" />
<path d="M284.0,522.0,292.0,521.0,300.5,520.0,308.5,519.0" stroke="black" stroke-width="2" fill="none" />
<path d="M307.5,514.5,299.5,522.5,291.5,530.5,283.5,538.5" stroke="black" stroke-width="2" fill="none" />
<path d="M285.0,538.5,293.0,538.0,301.0,538.0,308.5,537.0" stroke="black" stroke-width="2" fill="none" />
<path d="M307.0,541.0,299.0,548.0,290.5,554.5,282.5,561.5" stroke="black" stroke-width="2" fill="none" />
<path d="M282.0,561.5,290.5,561.0,299.0,561.0,307.5,560.5" stroke="black" stroke-width="2" fill="none" />
<path d="M300.0,564.0,308.0,556.5,316.5,549.0" stroke="black" stroke-width="2" fill="none" />
<path d="M307.5,548.5,299.5,556.0,291.5,563.5" stroke="black" stroke-width="2" fill="none" />
<path d="M284.0,567.0,292.0,566.5,300.0,566.5,308.0,565.5" stroke="black" stroke-width="2" fill="none" />
<path d="M284.0,554.0,292.0,546.0,299.5,539.0,307.5,531.5" stroke="black" stroke-width="2" fill="none" />
<path d="M306.0,524.0,298.0,531.5,290.0,539.5,283.0,547.0,276.0,554.5" stroke="black" stroke-width="2" fill="none" />
<path d="M278.5,557.5,286.5,557.0,294.0,557.0,302.0,557.0,310.0,556.5,317.5,555.5,325.5,555.0" stroke="black" stroke-width="2" fill="none" />
<path d="M308.0,551.0,300.0,551.0,291.5,551.0,283.0,551.5" stroke="black" stroke-width="2" fill="none" />
<path d="M283.0,546.0,291.5,545.0,299.5,544.5,307.5,544.5" stroke="black" stroke-width="2" fill="none" />
<path d="M308.0,529.0,300.0,530.0,293.0,530.5,285.0,531.0" stroke="black" stroke-width="2" fill="none" />
<path d="M282.0,529.0,290.5,521.5,298.5,514.0,307.0,506.5" stroke="black" stroke-width="2" fill="none" />
<path d="M307.5,512.0,300.0,512.5,292.0,513.0,284.5,513.5" stroke="black" stroke-width="2" fill="none" />
<path d="M282.0,514.5,290.5,506.5,299.0,499.5,307.5,491.5,315.5,484.0" stroke="black" stroke-width="2" fill="none" />
<path d="M315.0,473.0,307.0,481.0,299.0,489.0,291.0,497.0,283.0,505.0" stroke="black" stroke-width="2" fill="none" />
<path d="M286.0,508.0,293.5,507.0,301.0,506.0,308.5,505.0" stroke="black" stroke-width="2" fill="none" />
<path d="M306.5,496.5,299.0,497.0,291.5,497.5,284.0,498.0" stroke="black" stroke-width="2" fill="none" />
<path d="M282.0,497.5,290.0,490.0,298.0,482.0,306.5,474.5,315.0,466.5" stroke="black" stroke-width="2" fill="none" />
<path d="M315.0,451.5,307.0,459.0,299.0,467.0,291.0,475.0,283.0,482.5,274.5,490.0" stroke="black" stroke-width="2" fill="none" />
<path d="M275.0,494.0,283.0,493.0,291.0,492.5,298.5,492.0,306.0,492.0,314.0,492.0,322.5,491.5,330.5,491.0,339.0,490.0,347.5,489.0" stroke="black" stroke-width="2" fill="none" />
<path d="M306.0,486.5,298.0,487.0,290.5,487.0,282.5,487.5" stroke="black" stroke-width="2" fill="none" />
<path d="M283.0,481.5,291.0,481.0,299.0,480.5,307.0,479.5" stroke="black" stroke-width="2" fill="none" />
<path d="M308.5,472.5,301.0,473.0,293.5,474.0,285.5,474.5" stroke="black" stroke-width="2" fill="none" />
<path d="M276.0,481.5,284.0,473.5,291.5,465.5,299.5,458.0,307.5,450.5" stroke="black" stroke-width="2" fill="none" />
<path d="M309.5,427.0,301.5,435.0,293.5,442.5,285.0,449.5,276.5,456.5" stroke="black" stroke-width="2" fill="none" />
<path d="M283.5,458.0,291.0,457.5,299.0,457.5,307.0,457.0" stroke="black" stroke-width="2" fill="none" />
<path d="M308.5,447.0,300.0,447.0,291.5,447.0,283.5,447.0" stroke="black" stroke-width="2" fill="none" />
<path d="M276.0,448.0,284.0,441.0,292.0,433.5,300.5,426.0,308.5,418.5" stroke="black" stroke-width="2" fill="none" />
<path d="M307.0,423.5,299.0,424.0,291.0,425.0,283.5,425.5" stroke="black" stroke-width="2" fill="none" />
<path d="M285.0,416.5,292.5,416.0,300.0,416.0,308.0,415.5" stroke="black" stroke-width="2" fill="none" />
<path d="M307.5,384.5,299.5,384.5,292.0,384.5,284.0,385.0,276.5,385.0" stroke="black" stroke-width="2" fill="none" />
<path d="M266.0,388.5,258.5,395.5" stroke="black" stroke-width="2" fill="none" />
<path d="M266.0,394.5,274.5,387.0,282.5,379.0,290.5,371.5,299.0,364.0,307.0,356.5" stroke="black" stroke-width="2" fill="none" />
<path d="M305.5,340.0,297.5,347.5,290.0,355.0,281.5,362.5,273.0,370.0" stroke="black" stroke-width="2" fill="none" />
<path d="M274.0,369.5,282.0,369.0,289.5,368.0,297.5,368.0,305.5,367.5" stroke="black" stroke-width="2" fill="none" />
<path d="M316.0,362.5,307.5,363.0,299.5,364.0,292.0,365.0,284.0,365.5,276.5,366.0" stroke="black" stroke-width="2" fill="none" />
<path d="M275.0,361.0,282.0,353.5,289.5,346.5,297.5,339.5,305.5,332.0" stroke="black" stroke-width="2" fill="none" />
<path d="M306.5,321.0,298.5,328.5,290.5,336.5,282.5,344.5,275.0,352.5" stroke="black" stroke-width="2" fill="none" />
<path d="M276.0,352.5,284.0,352.0,292.0,351.5,299.5,351.0,307.0,350.0" stroke="black" stroke-width="2" fill="none" />
<path d="M308.0,360.5,300.0,360.5,292.5,360.5,284.5,360.0,277.0,360.5" stroke="black" stroke-width="2" fill="none" />
<path d="M277.5,356.5,285.0,356.5,293.0,356.0,301.0,355.5,309.5,355.0" stroke="black" stroke-width="2" fill="none" />
<path d="M315.5,346.5,308.0,347.0,300.0,347.5,292.0,347.5,284.0,347.5,276.0,348.0" stroke="black" stroke-width="2" fill="none" />
<path d="M275.0,338.5,283.0,331.0,290.5,323.5,298.0,315.0,305.5,307.5" stroke="black" stroke-width="2" fill="none" />
<path d="M306.5,298.0,298.0,305.5,290.5,313.5,282.0,321.0,274.0,328.5" stroke="black" stroke-width="2" fill="none" />
<path d="M275.5,330.5,283.5,330.0,292.0,329.5,300.0,328.5,308.0,327.5" stroke="black" stroke-width="2" fill="none" />
<path d="M308.5,335.0,300.5,335.5,292.5,336.5,284.5,337.0,277.0,338.0" stroke="black" stroke-width="2" fill="none" />
<path d="M267.0,335.5,275.0,334.5,283.0,334.0,291.5,333.0,299.5,332.0,307.5,331.5,316.0,331.0" stroke="black" stroke-width="2" fill="none" />
<path d="M308.5,320.5,300.5,321.0,292.5,321.5,284.0,322.0,275.5,322.0" stroke="black" stroke-width="2" fill="none" />
<path d="M275.5,320.5,283.5,313.0,291.5,305.0,299.0,297.0,307.0,289.5" stroke="black" stroke-width="2" fill="none" />
<path d="M306.0,275.5,298.5,283.5,290.5,291.0,282.5,298.5,275.0,305.5" stroke="black" stroke-width="2" fill="none" />
<path d="M276.0,306.0,284.5,305.5,293.0,305.0,301.0,304.0,309.0,303.5" stroke="black" stroke-width="2" fill="none" />
<path d="M306.0,299.5,298.0,300.0,290.5,300.5,282.5,301.5,274.5,302.0" stroke="black" stroke-width="2" fill="none" />
<path d="M276.0,298.5,284.0,298.0,292.0,297.5,300.0,297.0,307.5,296.5" stroke="black" stroke-width="2" fill="none" />
<path d="M308.0,292.0,299.5,293.0,291.5,294.0,284.0,295.0,276.0,295.5" stroke="black" stroke-width="2" fill="none" />
<path d="M274.0,292.0,282.0,284.5,290.0,277.5,297.5,269.5,306.0,262.0,314.0,255.0,322.0,247.5,330.5,240.0,339.0,233.0,347.5,225.0,355.0,216.5,363.0,209.0,371.5,201.5,379.0,194.5" stroke="black" stroke-width="2" fill="none" />
<path d="M385.0,195.0,377.0,202.5,369.5,210.0,361.5,218.0,353.0,225.5,345.0,233.0,337.5,240.5,330.0,248.5,322.0,255.5,314.0,262.5" stroke="black" stroke-width="2" fill="none" />
<path d="M317.5,265.5,309.0,266.5,301.5,267.0,293.0,267.5,284.5,268.0,276.0,268.5,268.5,269.0" stroke="black" stroke-width="2" fill="none" />
<path d="M268.0,264.5,276.0,264.5,284.5,264.0,292.5,264.0,300.0,264.0,308.0,263.0,316.5,262.5" stroke="black" stroke-width="2" fill="none" />
<path d="M324.0,257.5,332.5,257.0" stroke="black" stroke-width="2" fill="none" />
<path d="M331.0,255.0,339.0,247.5,347.0,241.0,355.0,233.5,363.0,226.0,371.5,218.0,380.0,211.0,387.5,203.5,395.0,196.0" stroke="black" stroke-width="2" fill="none" />
<path d="M403.5,195.0,395.0,202.0,387.5,209.0,380.0,216.5,372.5,224.5,365.0,232.0,356.5,239.5,348.5,247.0,340.0,254.5" stroke="black" stroke-width="2" fill="none" />
<path d="M338.5,261.5,340.5,265.5,347.0,277.5,345.0,282.5,353.0,282.5,359.0,284.0,362.0,288.0" stroke="black" stroke-width="2" fill="none" />
<path d="M378.5,286.5,386.5,282.5,385.5,276.5,393.5,279.5,397.0,270.5,405.5,269.5" stroke="black" stroke-width="2" fill="none" />
<path d="M392.5,250.5,390.5,257.0,393.5,249.0" stroke="black" stroke-width="2" fill="none" />
<path d="M377.5,261.0,379.5,255.0,380.5,253.5,370.0,263.5,368.5,271.5,364.0,265.5,368.5,263.0,369.5,255.0,367.5,251.0" stroke="black" stroke-width="2" fill="none" />
<path d="M357.0,242.0,349.0,242.5,341.5,242.5,333.0,243.0,324.5,244.0,316.5,244.5,309.0,244.5,300.5,245.5,292.5,246.0,284.0,247.0,276.0,248.0,267.5,249.0,259.0,249.5,251.0,250.0,244.0,250.5,236.5,251.0,228.5,251.0,221.0,251.0,212.5,251.5,204.0,252.0,195.5,253.0,187.5,253.5,179.5,254.0" stroke="black" stroke-width="2" fill="none" />
<path d="M186.5,246.0,195.0,238.5,203.0,231.0,211.0,223.5,218.5,216.5,226.5,209.5,234.5,202.5,242.0,196.0,250.5,188.5" stroke="black" stroke-width="2" fill="none" />
<path d="M244.0,188.0,236.0,195.5,227.5,203.0,219.0,210.0,211.0,217.0,203.0,224.5,195.0,231.5,186.5,238.5,178.5,246.0" stroke="black" stroke-width="2" fill="none" />
<path d="M170.5,248.5,178.5,241.0,187.0,233.5,194.5,226.0,203.0,218.0,211.5,210.5,219.5,203.0,227.5,195.0,235.5,187.0" stroke="black" stroke-width="2" fill="none" />
<path d="M237.0,178.5,229.0,186.0,220.5,193.5,212.0,201.0,203.5,209.0,195.5,216.5,186.5,224.5,178.0,232.5,170.0,240.5,162.5,249.0" stroke="black" stroke-width="2" fill="none" />
<path d="M164.0,250.5,171.5,249.5,179.0,249.0,186.5,248.5,194.0,248.5,202.5,248.0,210.5,247.5" stroke="black" stroke-width="2" fill="none" />
<path d="M220.0,256.0,227.5,248.5,235.5,241.0,243.0,233.0,251.0,225.5,259.5,218.5,267.5,211.5,275.5,204.0,283.0,196.0,290.5,188.5" stroke="black" stroke-width="2" fill="none" />
<path d="M283.0,188.0,275.0,196.0,267.0,203.5,259.0,211.5,251.5,219.5,244.0,227.0,236.5,234.5,227.5,242.0,219.5,249.5,210.5,257.5" stroke="black" stroke-width="2" fill="none" />
<path d="M203.5,256.0,211.5,248.5,219.0,241.0,226.5,233.5,234.0,226.0,242.0,218.5,250.0,210.5,258.5,203.0,267.0,196.0,275.0,188.5" stroke="black" stroke-width="2" fill="none" />
<path d="M266.5,188.0,258.5,195.5,250.5,203.0,242.5,211.0,235.0,219.0,227.0,226.5,219.0,233.5,211.5,240.5,203.5,247.5,195.5,255.0" stroke="black" stroke-width="2" fill="none" />
<path d="M195.0,247.0,202.5,240.0,210.5,233.5,218.5,226.0,226.5,219.0,234.5,211.5,242.0,204.0,249.5,197.0,257.5,189.5" stroke="black" stroke-width="2" fill="none" />
<path d="M220.0,188.0,212.0,195.0,203.5,202.0,195.5,209.0,187.5,216.5,179.5,224.0,171.5,231.0,163.0,238.5,155.0,246.0" stroke="black" stroke-width="2" fill="none" />
<path d="M147.5,247.0,155.5,240.0,163.0,232.5,170.5,225.0,179.0,217.5,187.5,210.5,195.5,202.5,204.5,195.0,213.0,187.5" stroke="black" stroke-width="2" fill="none" />
<path d="M218.5,183.0,226.5,182.5,235.0,181.5,243.5,181.0,251.0,180.0,259.0,179.5" stroke="black" stroke-width="2" fill="none" />
<path d="M299.5,189.0,291.5,196.5,283.5,204.0,275.5,211.0,267.0,217.5,259.0,225.0,251.0,232.0,243.0,239.5,235.0,247.5,227.0,255.0" stroke="black" stroke-width="2" fill="none" />
<path d="M227.5,257.5,219.5,258.5" stroke="black" stroke-width="2" fill="none" />
<path d="M220.0,260.0,228.0,260.0,236.0,259.5,244.0,259.5,253.0,259.5,261.5,259.5,269.5,259.5,277.0,259.0,285.0,259.0,293.0,258.5,301.0,258.0,309.0,257.5,316.5,257.0,323.5,256.5,331.0,256.0" stroke="black" stroke-width="2" fill="none" />
<path d="M331.5,249.5,323.5,250.0" stroke="black" stroke-width="2" fill="none" />
<path d="M316.0,235.0,323.5,235.0,332.0,234.5,339.5,234.0,346.5,233.0" stroke="black" stroke-width="2" fill="none" />
<path d="M331.5,233.0,323.0,233.0,315.0,233.0,307.0,233.0,299.0,234.0,291.0,234.5,282.5,235.5,274.5,236.0,266.5,237.0,258.5,237.0,251.0,237.0,243.5,237.0,235.5,237.5,227.5,238.0,220.0,238.5,212.0,239.0,203.5,240.0,195.0,240.5,186.5,241.0" stroke="black" stroke-width="2" fill="none" />
<path d="M201.0,270.0,209.0,269.5,218.0,269.0,226.5,268.0,235.0,268.0,244.0,267.0" stroke="black" stroke-width="2" fill="none" />
<path d="M243.5,264.0,251.5,255.5,259.5,248.0,267.5,240.5,275.5,233.5,283.5,226.0,291.5,218.5,300.0,211.5,308.0,204.0,315.5,196.5" stroke="black" stroke-width="2" fill="none" />
<path d="M314.5,190.0,306.5,197.5,299.0,204.5,291.5,211.5,282.5,218.5,274.0,226.0,266.0,233.5,258.5,240.5,250.5,248.0,242.5,255.5,235.0,263.0,226.5,270.5" stroke="black" stroke-width="2" fill="none" />
<path d="M229.5,274.5,237.5,274.0" stroke="black" stroke-width="2" fill="none" />
<path d="M236.5,275.0,228.5,282.5" stroke="black" stroke-width="2" fill="none" />
<path d="M227.0,286.0,235.5,285.5,243.5,284.5" stroke="black" stroke-width="2" fill="none" />
<path d="M235.0,285.0,227.0,292.5" stroke="black" stroke-width="2" fill="none" />
<path d="M227.5,293.5,235.0,293.0,242.5,292.5" stroke="black" stroke-width="2" fill="none" />
<path d="M236.0,292.5,228.0,300.0" stroke="black" stroke-width="2" fill="none" />
<path d="M226.5,300.0,234.5,299.5" stroke="black" stroke-width="2" fill="none" />
<path d="M236.5,299.0,228.5,306.5" stroke="black" stroke-width="2" fill="none" />
<path d="M227.5,304.0,235.0,304.0" stroke="black" stroke-width="2" fill="none" />
<path d="M236.0,307.5,227.5,315.0" stroke="black" stroke-width="2" fill="none" />
<path d="M226.5,311.5,234.5,311.5" stroke="black" stroke-width="2" fill="none" />
<path d="M233.5,316.0,225.5,323.5" stroke="black" stroke-width="2" fill="none" />
<path d="M232.5,324.0,225.0,331.5,218.0,338.5" stroke="black" stroke-width="2" fill="none" />
<path d="M219.5,341.0,227.5,340.5,235.5,340.0" stroke="black" stroke-width="2" fill="none" />
<path d="M234.5,340.0,226.5,347.5,219.0,354.5" stroke="black" stroke-width="2" fill="none" />
<path d="M221.0,357.0,228.5,356.5,236.0,356.5" stroke="black" stroke-width="2" fill="none" />
<path d="M230.5,354.0,238.5,354.0,247.0,353.5,255.0,351.5,263.5,351.5" stroke="black" stroke-width="2" fill="none" />
<path d="M267.5,342.0,275.5,341.5,283.5,340.5,291.5,340.0,299.5,339.0,307.5,339.0,316.0,338.0" stroke="black" stroke-width="2" fill="none" />
<path d="M315.5,323.0,308.0,324.0,299.5,324.5,292.0,325.0,284.5,325.5,276.5,325.5,268.0,326.0" stroke="black" stroke-width="2" fill="none" />
<path d="M269.0,319.0,277.0,318.5,284.5,318.0,291.5,317.5,299.0,317.0,306.5,316.0,314.5,316.0" stroke="black" stroke-width="2" fill="none" />
<path d="M308.0,287.5,300.5,288.5,293.0,289.5,285.0,291.0,277.5,291.5" stroke="black" stroke-width="2" fill="none" />
<path d="M269.5,285.0,277.0,284.5,285.0,283.5,292.5,282.5,300.5,281.5,308.5,280.5,316.0,280.0" stroke="black" stroke-width="2" fill="none" />
<path d="M308.5,277.0,299.5,277.0,291.0,277.5,283.0,277.5,275.0,278.0" stroke="black" stroke-width="2" fill="none" />
<path d="M275.0,276.5,282.5,268.0,290.5,261.0,298.5,254.0,307.0,246.5,315.0,239.0,323.0,231.0,331.0,223.5,338.5,217.0,346.5,209.5,354.0,202.0,362.0,194.5" stroke="black" stroke-width="2" fill="none" />
<path d="M353.5,194.0,345.5,201.5,338.0,209.5,330.0,217.0,322.5,225.0,314.5,232.0,307.0,240.0,298.5,248.0,290.5,255.5,283.0,263.0,275.0,270.0" stroke="black" stroke-width="2" fill="none" />
<path d="M273.5,273.5,282.0,273.0,290.5,272.0,299.0,272.0,306.5,271.5" stroke="black" stroke-width="2" fill="none" />
<path d="M307.5,268.0,315.5,265.5,323.5,262.5,332.0,260.0,340.0,258.5,348.5,255.5,356.5,252.5,364.5,249.5,372.5,247.5,380.0,244.5,388.0,242.5,396.5,240.0,404.5,236.5,392.5,241.0" stroke="black" stroke-width="2" fill="none" />
<path d="M420.0,224.0,428.0,223.5,435.5,223.0" stroke="black" stroke-width="2" fill="none" />
<path d="M437.5,231.5,446.0,228.5,446.0,223.5,445.0,231.0,442.0,239.0,446.0,243.5,450.0,231.0,450.0,229.0,451.5,226.5,460.5,216.5,468.0,215.5,471.0,219.5,475.5,222.0" stroke="black" stroke-width="2" fill="none" />
<path d="M472.5,232.0,475.5,240.0,482.5,245.0,492.0,251.5" stroke="black" stroke-width="2" fill="none" />
<path d="M480.0,241.5,478.5,233.5,475.5,233.5" stroke="black" stroke-width="2" fill="none" />
<path d="M462.0,220.0,459.0,221.5,452.0,224.5,449.0,232.0,452.5,233.5,451.5,242.0,457.0,251.0,453.0,239.0" stroke="black" stroke-width="2" fill="none" />
<path d="M443.5,215.5,436.0,216.5,428.5,217.0,421.0,218.0,413.5,219.0,406.0,220.0,397.5,220.5,389.5,220.0,381.5,220.0,373.5,220.0,365.0,220.0,357.0,220.0,349.5,220.5,341.5,221.0,333.5,221.5,324.5,222.0,317.0,222.5,309.0,223.5,300.5,224.5,292.5,225.5,284.5,226.0,277.0,226.5,269.0,226.5,261.0,227.0,253.5,227.0,245.5,227.0,237.5,227.5,229.0,228.5,221.0,229.5,212.5,229.5,204.0,229.5,195.5,230.0,187.5,230.0,179.0,230.0,171.0,230.5,163.0,231.0,155.0,231.5,146.5,232.5,139.0,233.5,131.0,234.5,123.0,236.0,115.0,237.0,107.0,238.5,99.5,239.5,92.0,240.0,84.0,241.0" stroke="black" stroke-width="2" fill="none" />
<path d="M84.5,238.5,87.5,246.5,87.0,254.5,87.5,262.5,87.0,270.5,87.0,279.0,86.0,286.5,86.0,294.5,87.5,297.5,84.5,305.5,84.5,309.5,83.5,317.5,83.5,325.5,81.5,333.5" stroke="black" stroke-width="2" fill="none" />
<path d="M89.0,330.0,97.0,322.5" stroke="black" stroke-width="2" fill="none" />
<path d="M98.5,330.0,90.5,337.5" stroke="black" stroke-width="2" fill="none" />
<path d="M94.5,340.5,102.5,339.5,110.5,339.5,118.0,339.0,126.0,339.0,134.0,338.5,142.0,338.5,149.5,339.0,157.5,338.5,165.5,337.0,173.5,337.0,181.5,338.5,189.5,338.5,198.0,339.0,206.0,339.5,214.5,339.5,220.5,344.5,220.5,352.5,219.5,360.5,218.0,368.5,217.0,376.5,216.5,385.0,215.5,392.5,219.5,397.0,227.5,393.0" stroke="black" stroke-width="2" fill="none" />
<path d="M227.5,395.0,236.0,388.0" stroke="black" stroke-width="2" fill="none" />
<path d="M228.5,386.0,221.0,393.0" stroke="black" stroke-width="2" fill="none" />
<path d="M220.5,395.0,229.0,394.0" stroke="black" stroke-width="2" fill="none" />
<path d="M221.0,385.0,228.5,377.0" stroke="black" stroke-width="2" fill="none" />
<path d="M228.5,371.0,221.0,378.0" stroke="black" stroke-width="2" fill="none" />
<path d="M220.5,378.5,228.5,377.5" stroke="black" stroke-width="2" fill="none" />
<path d="M226.0,386.0,218.0,386.0" stroke="black" stroke-width="2" fill="none" />
<path d="M220.5,370.5,228.0,363.0" stroke="black" stroke-width="2" fill="none" />
<path d="M219.0,361.0,227.5,353.0" stroke="black" stroke-width="2" fill="none" />
<path d="M233.5,349.0,225.5,349.0,217.0,349.5" stroke="black" stroke-width="2" fill="none" />
<path d="M217.5,344.5,225.5,337.0,233.5,330.0" stroke="black" stroke-width="2" fill="none" />
<path d="M231.5,339.0,239.5,340.0,247.5,340.0,255.5,340.0,263.5,339.5" stroke="black" stroke-width="2" fill="none" />
<path d="M258.5,337.5,250.5,334.0" stroke="black" stroke-width="2" fill="none" />
<path d="M243.0,322.5,234.5,323.5,226.5,324.5,218.5,325.0,210.5,326.0,202.5,326.5,195.0,327.0,187.5,327.5,180.5,328.0,173.0,328.0,165.0,328.0,157.0,328.0,149.0,329.0,141.0,329.5,133.0,330.0,125.5,330.0,117.5,330.5,110.0,331.0,102.5,331.0,94.0,331.5,85.5,331.5,77.5,331.0,69.5,331.0,61.5,331.5" stroke="black" stroke-width="2" fill="none" />
<path d="M67.5,325.5,75.5,324.5,83.5,323.5,91.5,323.0,100.0,323.0,108.5,323.0,116.0,323.0,124.0,323.0,132.5,323.0,140.5,322.5,148.5,322.0,156.5,321.5,164.5,321.0,172.5,320.5,180.0,319.5,188.0,319.5,195.5,318.5,203.5,318.0,211.5,317.5,219.5,317.0,227.5,316.5,235.5,315.5" stroke="black" stroke-width="2" fill="none" />
<path d="M236.5,316.0,228.5,317.0,220.0,317.0" stroke="black" stroke-width="2" fill="none" />
<path d="M219.0,310.0,227.5,309.5,235.0,308.5" stroke="black" stroke-width="2" fill="none" />
<path d="M234.0,297.0,225.5,298.0" stroke="black" stroke-width="2" fill="none" />
<path d="M218.0,301.0,220.0,309.0" stroke="black" stroke-width="2" fill="none" />
<path d="M210.0,315.0,210.0,319.5,216.5,316.5,216.5,308.5,211.5,307.0,202.5,296.0" stroke="black" stroke-width="2" fill="none" />
<path d="M196.0,281.5,204.0,274.0" stroke="black" stroke-width="2" fill="none" />
<path d="M198.0,277.5,189.5,285.0" stroke="black" stroke-width="2" fill="none" />
<path d="M179.5,282.0,171.5,289.5" stroke="black" stroke-width="2" fill="none" />
<path d="M169.0,282.5,161.5,290.0" stroke="black" stroke-width="2" fill="none" />
<path d="M164.0,283.5,156.0,291.5,148.5,299.5" stroke="black" stroke-width="2" fill="none" />
<path d="M147.0,293.5,139.0,301.0" stroke="black" stroke-width="2" fill="none" />
<path d="M141.0,292.0,133.0,299.5,125.0,307.0" stroke="black" stroke-width="2" fill="none" />
<path d="M131.5,309.5,139.5,309.0,147.0,309.0,155.0,309.0,163.0,309.0" stroke="black" stroke-width="2" fill="none" />
<path d="M171.0,311.5,162.5,312.0,154.5,312.5,146.5,313.0,138.5,313.0,130.5,313.5,122.5,314.0,114.5,315.0,106.5,315.0,98.0,315.5,89.5,315.5,81.5,316.5" stroke="black" stroke-width="2" fill="none" />
<path d="M82.0,309.0,90.0,308.0,98.5,307.0,107.0,307.0,115.5,307.5,124.0,307.0" stroke="black" stroke-width="2" fill="none" />
<path d="M117.0,301.0,109.0,308.5" stroke="black" stroke-width="2" fill="none" />
<path d="M114.0,307.0,121.5,299.5,129.5,292.5" stroke="black" stroke-width="2" fill="none" />
<path d="M117.0,295.0,125.0,295.0,133.0,294.0,141.5,293.5,149.5,293.0,157.5,292.0,165.0,291.0,172.0,290.0" stroke="black" stroke-width="2" fill="none" />
<path d="M171.0,276.5,179.5,276.0,187.5,276.0,195.5,275.5,204.0,275.5,212.5,275.0,220.5,275.0" stroke="black" stroke-width="2" fill="none" />
<path d="M219.0,270.0,227.0,262.5,235.0,254.5,242.5,247.5,250.5,240.5,258.5,233.0,266.0,226.0,274.5,219.0,283.0,212.0,291.0,204.5,299.5,197.5,307.5,190.0" stroke="black" stroke-width="2" fill="none" />
<path d="M324.5,196.0,316.5,203.5,309.0,211.0,301.5,218.5,294.0,226.5,286.0,234.0,277.5,241.5,269.0,249.0,261.0,257.0,253.0,265.0" stroke="black" stroke-width="2" fill="none" />
<path d="M259.5,264.0,268.0,256.5,276.5,249.0,285.0,241.5,293.5,234.0,300.5,226.5,308.0,219.0,316.0,211.5,324.0,204.5,332.0,197.0" stroke="black" stroke-width="2" fill="none" />
<path d="M339.0,197.0,331.0,204.0,323.0,211.5,315.0,219.0,307.0,226.5,299.0,234.0,291.5,241.5,283.5,248.5,275.5,256.0,268.0,263.0" stroke="black" stroke-width="2" fill="none" />
<path d="M269.0,259.0,276.5,258.0,284.5,257.5,292.0,256.5,300.5,256.0,309.0,255.5,317.0,254.5" stroke="black" stroke-width="2" fill="none" />
<path d="M317.0,244.0,309.5,244.0,301.5,244.5,293.0,245.5,284.5,246.5,276.0,247.5,267.5,248.0,259.5,248.5,251.0,249.5,242.5,250.0" stroke="black" stroke-width="2" fill="none" />
<path d="M244.5,257.5,236.0,258.0" stroke="black" stroke-width="2" fill="none" />
<path d="M239.5,264.0,238.5,271.5,238.0,279.5,236.0,287.5,236.0,295.5,235.0,303.0,234.0,311.5,233.5,319.5,232.5,327.5,233.0,336.0,231.0,344.5,230.0,353.0,228.5,361.0,228.5,369.0,227.5,377.5,226.5,385.5,227.5,396.0" stroke="black" stroke-width="2" fill="none" />
<path d="M249.5,389.0,257.5,381.5" stroke="black" stroke-width="2" fill="none" />
<path d="M229.5,369.5,221.5,370.0" stroke="black" stroke-width="2" fill="none" />
<path d="M210.0,366.5,218.0,366.0,227.0,365.5,235.5,364.5" stroke="black" stroke-width="2" fill="none" />
<path d="M236.5,345.5,244.0,345.5,251.5,345.5" stroke="black" stroke-width="2" fill="none" />
<path d="M262.0,341.5,254.0,341.5,246.0,342.0,238.0,342.5,230.0,343.5" stroke="black" stroke-width="2" fill="none" />
<path d="M213.5,351.0,207.5,343.5,199.5,343.5" stroke="black" stroke-width="2" fill="none" />
<path d="M195.0,315.5,187.0,316.0,179.0,316.0" stroke="black" stroke-width="2" fill="none" />
<path d="M162.0,323.0,159.0,331.0,159.5,326.0,160.5,331.0" stroke="black" stroke-width="2" fill="none" />
<path d="M170.0,339.0,178.0,340.5,185.5,342.5" stroke="black" stroke-width="2" fill="none" />
<path d="M186.5,371.5,194.5,370.5,202.5,370.0,210.5,369.0,218.0,368.5,225.5,368.0,234.0,367.5,242.5,367.5,250.5,367.5,258.0,367.5,265.5,367.0,273.5,366.5,281.5,366.0,289.5,365.5,297.5,365.0,305.5,365.0,313.5,365.0" stroke="black" stroke-width="2" fill="none" />
<path d="M315.0,306.5,307.5,306.5,300.0,307.5,292.5,308.0,285.0,309.0,277.0,310.0,269.5,310.5" stroke="black" stroke-width="2" fill="none" />
<path d="M275.0,262.5,283.0,256.0,291.5,249.0,299.0,241.0,307.0,233.5,315.0,226.0,323.0,218.5,330.5,211.0,337.5,203.5,345.5,196.0" stroke="black" stroke-width="2" fill="none" />
<path d="M345.0,179.0,352.5,176.5" stroke="black" stroke-width="2" fill="none" />
<path d="M348.5,162.5,349.5,156.0,357.5,156.0" stroke="black" stroke-width="2" fill="none" />
<path d="M339.5,167.0,345.0,159.0,339.0,167.5,345.0,178.5,347.0,179.5" stroke="black" stroke-width="2" fill="none" />
<path d="M324.5,181.5,326.5,173.0,323.5,169.0" stroke="black" stroke-width="2" fill="none" />
<path d="M284.5,188.0,277.0,188.5,269.0,189.5,260.5,190.0,251.5,191.0,243.5,192.0,235.0,192.5,226.5,193.5,218.5,194.5,210.5,195.0" stroke="black" stroke-width="2" fill="none" />
<path d="M203.5,186.5,196.0,194.0,188.0,202.0,180.5,209.5,173.0,217.5,165.5,225.0,156.5,233.0,148.0,241.5" stroke="black" stroke-width="2" fill="none" />
<path d="M143.0,251.5,141.5,259.5" stroke="black" stroke-width="2" fill="none" />
<path d="M131.5,240.0,139.0,232.0,147.0,224.0,155.0,216.5,163.0,209.0,170.5,202.0,178.5,195.0" stroke="black" stroke-width="2" fill="none" />
<path d="M169.5,195.0,162.0,202.5,155.0,210.5,147.5,218.5,139.5,226.5,131.0,234.0,123.0,241.5" stroke="black" stroke-width="2" fill="none" />
<path d="M123.5,240.0,132.0,240.0,140.0,239.5,148.0,239.0,156.0,239.0,163.5,238.0,171.5,238.0,178.5,237.5" stroke="black" stroke-width="2" fill="none" />
<path d="M171.0,200.0,179.0,199.5,187.0,199.0,195.5,199.0,203.5,199.0,212.0,198.5,220.5,198.5,229.0,198.5,237.0,197.5,245.5,196.5,253.5,196.0,261.5,196.0,269.0,196.0,277.0,195.5,285.0,195.5,292.5,195.0,300.5,194.5,308.5,193.5,317.0,192.5,325.0,191.5,332.5,191.0,341.5,190.5,349.5,190.0,357.5,189.5,365.0,189.0,373.0,189.0,381.5,189.0,389.5,189.0,397.5,189.0,405.5,189.5" stroke="black" stroke-width="2" fill="none" />
<path d="M443.5,179.0,435.5,179.0,427.0,179.5,418.5,179.5,411.0,179.5,403.5,180.0,395.5,180.5,388.0,181.0,380.0,181.5,372.0,182.0,364.0,182.5,356.0,183.0,347.5,184.0,339.5,184.5,332.0,185.5,324.5,186.5,317.0,187.5,309.0,189.0,301.5,189.5,293.5,190.0,285.5,189.5,277.5,189.5,269.0,190.0,260.5,191.0,252.5,191.0,244.5,191.5,236.5,192.0,229.0,193.0,220.5,194.0,213.0,195.0,204.5,195.5,196.0,195.5,188.0,195.5,180.0,195.5,172.0,196.0,164.0,196.0,156.5,196.0,149.0,196.5,140.5,196.5" stroke="black" stroke-width="2" fill="none" />
<path d="M140.5,203.5,132.5,211.5,124.0,219.5,115.5,227.0,107.5,234.0,100.0,241.0,91.5,248.5" stroke="black" stroke-width="2" fill="none" />
<path d="M92.0,247.5,100.0,246.0,107.5,245.5" stroke="black" stroke-width="2" fill="none" />
<path d="M108.0,243.5,116.5,236.0,125.0,228.0,133.0,220.0,141.0,212.5,149.0,204.5" stroke="black" stroke-width="2" fill="none" />
<path d="M164.0,195.5,156.0,203.0,148.0,210.5,139.5,218.0,131.5,226.0,123.0,233.5,115.0,241.0" stroke="black" stroke-width="2" fill="none" />
<path d="M124.5,234.0,132.5,233.5,140.5,233.5,148.0,232.5,156.0,231.5,163.5,230.5,171.5,230.0,179.5,229.5,187.0,229.0,195.5,228.5,203.5,228.0,211.5,227.5,219.5,227.0,227.0,226.5,235.0,226.0,243.0,225.5,251.5,225.0,259.5,225.0,268.0,225.0,276.0,224.5,283.5,224.0,291.5,223.5" stroke="black" stroke-width="2" fill="none" />
<path d="M286.0,234.5,294.0,235.0,302.5,233.5,310.5,231.5,319.0,230.5" stroke="black" stroke-width="2" fill="none" />
<path d="M335.0,266.5,333.5,268.0,336.0,270.5" stroke="black" stroke-width="2" fill="none" />
<path d="M346.5,263.5,348.0,260.5,358.5,268.5,345.5,278.0,353.5,272.0,365.0,273.5" stroke="black" stroke-width="2" fill="none" />
<path d="M363.0,266.0,355.0,263.0" stroke="black" stroke-width="2" fill="none" />
<path d="M350.0,256.5,358.5,257.5,364.5,248.5,341.5,257.0,317.5,265.5,308.5,273.5,308.0,281.5,308.0,289.0,308.0,297.0,308.0,305.0,307.5,313.0,307.5,321.0,308.0,329.0,308.0,337.0,308.0,345.5,308.0,353.5,308.0,361.5,307.5,369.5,307.5,377.0,307.5,385.0,307.0,393.0,307.5,401.0,308.0,409.5,308.0,417.5,308.0,425.5,308.5,433.5,308.5,441.5,308.5,449.5,308.5,457.0,308.5,464.5,309.0,472.5,309.0,480.5,308.5,488.5,309.0,496.5,309.0,505.0,309.0,513.5,308.5,521.0,308.0,529.0,308.0,537.0,308.0,545.5,309.0,553.5,308.0,561.0,298.0,569.0" stroke="black" stroke-width="2" fill="none" />
<path d="M267.0,549.0,275.0,548.5,283.0,548.5,291.0,548.5,300.0,548.0,308.5,547.5,317.0,547.0,325.5,546.5,333.5,546.0,342.5,545.0" stroke="black" stroke-width="2" fill="none" />
<path d="M365.5,526.5,357.5,527.0,349.5,527.5,341.5,528.5,333.5,529.5,325.5,531.0,317.5,531.5,309.5,532.0,301.5,532.0,293.0,532.5,285.0,533.0,276.5,533.0" stroke="black" stroke-width="2" fill="none" />
<path d="M276.0,525.0,284.5,525.0,293.0,524.0,301.0,523.5,309.0,523.0,317.0,522.5,324.5,522.5,332.5,522.0,340.0,521.5,348.5,521.5,357.0,521.0,364.5,520.0,372.0,519.0" stroke="black" stroke-width="2" fill="none" />
<path d="M340.5,514.5,332.5,515.0,325.0,515.5,317.0,516.5,309.0,517.0,301.0,516.5,293.0,516.5,284.5,516.5,276.0,517.0" stroke="black" stroke-width="2" fill="none" />
<path d="M276.0,509.0,284.0,509.0,292.0,508.5,300.0,508.5,308.0,508.5,315.5,508.5,323.0,508.0,330.5,507.5" stroke="black" stroke-width="2" fill="none" />
<path d="M348.5,482.0,340.5,482.0,332.5,482.0,325.0,482.5,316.5,482.5,308.5,482.5,301.0,482.5,292.5,482.5,284.0,483.0,276.0,483.0" stroke="black" stroke-width="2" fill="none" />
<path d="M265.5,531.0,257.5,531.5,249.5,532.0" stroke="black" stroke-width="2" fill="none" />
<path d="M242.5,526.0,250.5,525.0,258.5,524.5" stroke="black" stroke-width="2" fill="none" />
<path d="M267.0,542.5,274.5,542.5,283.0,542.0,291.5,541.0,300.5,540.0,308.5,539.5,316.5,539.0,324.5,538.5,332.5,538.0,340.5,537.0,348.5,536.0,357.0,536.0" stroke="black" stroke-width="2" fill="none" />
<path d="M396.0,458.0,388.0,452.5,380.0,448.5" stroke="black" stroke-width="2" fill="none" />
<path d="M382.5,451.0,393.5,458.5,405.5,466.0" stroke="black" stroke-width="2" fill="none" />
<path d="M443.0,436.5,435.0,436.0,427.0,435.5,419.0,435.5,411.0,436.0,403.5,436.0,395.0,436.5,387.0,437.0,379.0,438.0,371.5,438.5,363.5,438.5,355.5,438.5,348.0,439.0,340.5,440.0,332.5,441.0,325.0,442.0,316.5,442.5,308.5,443.5,300.5,444.0,292.5,444.5,284.5,444.5,276.0,445.0,267.5,446.0,259.5,447.0,251.0,448.0,243.0,448.5,235.0,448.5,226.5,448.5,218.0,449.0,210.0,449.0,202.0,450.0,194.5,450.5,187.0,451.0,178.5,451.0,170.5,451.5,162.5,451.5,154.0,451.5,145.5,451.5,137.5,451.5,129.5,452.0" stroke="black" stroke-width="2" fill="none" />
<path d="M132.0,443.5,124.0,445.5,116.0,446.5" stroke="black" stroke-width="2" fill="none" />
<path d="M92.5,443.5,85.0,451.0" stroke="black" stroke-width="2" fill="none" />
<path d="M91.0,451.5,83.0,458.5" stroke="black" stroke-width="2" fill="none" />
<path d="M77.0,451.5,85.0,444.0,93.0,436.5" stroke="black" stroke-width="2" fill="none" />
<path d="M91.0,428.5,83.5,436.0" stroke="black" stroke-width="2" fill="none" />
<path d="M82.5,426.5,91.0,419.5" stroke="black" stroke-width="2" fill="none" />
<path d="M83.5,417.5,91.5,410.0" stroke="black" stroke-width="2" fill="none" />
<path d="M85.0,409.5,92.5,402.0" stroke="black" stroke-width="2" fill="none" />
<path d="M93.0,394.0,84.5,401.5" stroke="black" stroke-width="2" fill="none" />
<path d="M83.0,395.0,91.0,387.0" stroke="black" stroke-width="2" fill="none" />
<path d="M83.0,387.0,90.5,379.0" stroke="black" stroke-width="2" fill="none" />
<path d="M90.5,372.0,82.5,379.5" stroke="black" stroke-width="2" fill="none" />
<path d="M76.0,381.0,84.0,380.0,91.5,379.5,99.0,379.0" stroke="black" stroke-width="2" fill="none" />
<path d="M82.5,369.5,90.5,361.5" stroke="black" stroke-width="2" fill="none" />
<path d="M84.5,361.5,93.0,354.0" stroke="black" stroke-width="2" fill="none" />
<path d="M92.0,345.0,100.5,338.0" stroke="black" stroke-width="2" fill="none" />
<path d="M94.0,343.0,102.0,342.0,109.5,341.0,117.5,341.5,125.5,341.0,133.5,341.5,141.5,341.5,149.0,340.0,157.5,340.0" stroke="black" stroke-width="2" fill="none" />
<path d="M134.5,349.0,142.5,349.5,150.5,349.5,158.0,349.5,166.0,348.5,174.0,346.5,182.0,347.0,193.0,343.5,201.5,343.5,210.0,343.0,218.0,343.0" stroke="black" stroke-width="2" fill="none" />
<path d="M188.5,335.0,180.5,335.0,172.5,335.0,164.5,335.5,156.5,336.0,148.5,336.5,140.5,337.0,132.0,337.5,123.5,338.0,115.0,338.5,107.0,339.0,100.0,340.0,92.5,340.5,85.0,341.5,77.0,342.0" stroke="black" stroke-width="2" fill="none" />
<path d="M81.0,350.5,89.0,350.0,97.0,348.5" stroke="black" stroke-width="2" fill="none" />
<path d="M99.0,363.0,91.0,363.5,82.5,363.5,74.5,364.0" stroke="black" stroke-width="2" fill="none" />
<path d="M75.5,358.0,84.0,357.5,91.5,356.5,99.5,356.0" stroke="black" stroke-width="2" fill="none" />
<path d="M97.5,372.0,90.0,372.0,83.0,372.0,75.0,373.0" stroke="black" stroke-width="2" fill="none" />
<path d="M76.5,391.5,84.5,390.5,93.0,390.5,101.5,390.0" stroke="black" stroke-width="2" fill="none" />
<path d="M90.5,412.0,83.0,413.0,75.0,413.5" stroke="black" stroke-width="2" fill="none" />
<path d="M78.0,416.5,78.0,424.5,77.5,434.5,77.5,442.5,77.0,451.0" stroke="black" stroke-width="2" fill="none" />
<path d="M73.5,453.0,82.0,453.0,90.5,453.0,99.0,453.0,107.0,452.5" stroke="black" stroke-width="2" fill="none" />
<path d="M75.0,429.0,82.5,428.5,90.5,428.5,99.0,428.5,107.0,428.5,115.5,428.5,123.5,428.5,132.0,428.0,140.0,427.5,148.0,427.0,156.0,427.0,164.0,426.5,172.0,425.5,179.5,424.5,187.5,424.0,195.5,423.0,203.0,422.0,210.5,421.0,218.0,419.5,226.5,418.5,234.5,418.0,242.5,417.5" stroke="black" stroke-width="2" fill="none" />
<path d="M234.5,426.0,226.0,427.0,217.0,427.5,209.0,428.0,201.0,428.5,193.0,429.0,185.5,430.0,178.5,430.5,171.0,431.0,163.5,431.0,156.0,431.0,148.5,431.5,141.0,432.0,133.5,432.0,125.5,433.0,117.0,433.5,109.0,434.0,101.0,433.5,93.0,434.0,85.0,434.5,76.5,435.0,68.5,436.0,60.0,436.5,52.0,437.5" stroke="black" stroke-width="2" fill="none" />
<path d="M52.0,430.5,60.0,430.5,69.0,430.5" stroke="black" stroke-width="2" fill="none" />
<path d="M74.0,420.5,82.5,420.5,90.5,420.5" stroke="black" stroke-width="2" fill="none" />
<path d="M98.0,404.5,90.5,404.5,82.5,405.5,75.0,406.0" stroke="black" stroke-width="2" fill="none" />
<path d="M75.0,396.5,83.5,396.0,91.5,396.0" stroke="black" stroke-width="2" fill="none" />
<path d="M124.5,405.0,132.5,404.5" stroke="black" stroke-width="2" fill="none" />
<path d="M139.5,408.0,147.5,407.5,155.5,406.5,163.5,405.5,171.5,405.0,179.5,404.0,187.5,403.0,195.5,402.5,203.5,401.5,211.5,401.0,219.0,401.0,227.5,400.5,235.5,399.5,243.5,399.0,250.5,398.5,258.5,398.0,266.5,397.5,275.0,397.0,283.0,397.0,290.5,397.0,298.5,396.0,306.5,395.5,314.5,394.5,322.0,394.0,330.0,393.5,338.0,393.5,346.0,392.5,354.5,392.0" stroke="black" stroke-width="2" fill="none" />
<path d="M347.0,385.0,339.5,386.0,331.5,386.5,324.0,387.0,316.0,387.5,308.0,388.0,300.0,388.5,292.0,389.0,283.5,389.5,276.0,390.5,268.5,391.0,260.5,392.0,252.5,392.0,244.5,392.5,236.0,392.5,228.0,392.5,220.5,392.5,212.0,393.5,204.0,393.5,195.5,394.0,187.0,395.0,179.0,395.5,171.0,396.0,163.0,396.5,155.0,397.0,147.5,398.0,140.0,398.5" stroke="black" stroke-width="2" fill="none" />
<path d="M156.0,376.0,164.0,375.5,172.0,374.5,179.5,373.5" stroke="black" stroke-width="2" fill="none" />
<path d="M183.5,407.0,191.5,408.0" stroke="black" stroke-width="2" fill="none" />
<path d="M198.5,312.0,197.5,307.5,199.5,308.5,209.5,301.5,213.0,296.5" stroke="black" stroke-width="2" fill="none" />
<path d="M212.0,273.5,220.5,266.5" stroke="black" stroke-width="2" fill="none" />
<path d="M228.5,277.5,236.0,277.5,244.0,277.5" stroke="black" stroke-width="2" fill="none" />
<path d="M239.5,265.0,248.0,266.0,256.0,266.5,264.0,267.5,271.5,269.5,272.0,276.5,272.0,284.5,272.0,292.5,272.0,301.0,272.0,309.5,273.5,317.5,273.0,325.0,273.0,333.0,273.0,340.5,273.5,348.0,273.0,356.0,273.0,363.5,274.5,371.5,274.5,379.5,274.5,387.5,274.5,395.5,275.5,403.5,275.0,411.5,275.0,419.5,274.5,427.5,275.5,435.5,275.5,444.0,276.0,452.0,276.0,460.5,276.0,468.5,277.5,476.5,277.5,484.5,277.5,492.5,277.5,500.0,278.5,507.5,279.0,515.5,278.5,524.0,278.5,532.0,279.5,540.5,279.0,548.5" stroke="black" stroke-width="2" fill="none" />
<path d="M266.0,550.5,274.0,555.5,282.0,561.0,290.0,565.0,297.5,569.0,305.5,563.0" stroke="black" stroke-width="2" fill="none" />
<path d="M291.0,566.0,276.5,557.5,265.5,549.5" stroke="black" stroke-width="2" fill="none" />
<path d="M251.5,518.5,244.5,519.5,237.0,520.0" stroke="black" stroke-width="2" fill="none" />
<path d="M215.5,633.0,213.5,641.0,215.0,648.5,224.0,656.5,225.5,664.0,226.5,672.0,233.5,679.5" stroke="black" stroke-width="2" fill="none" />
<path d="M235.5,673.5,227.5,669.5" stroke="black" stroke-width="2" fill="none" />
<path d="M223.0,651.5,215.0,641.5" stroke="black" stroke-width="2" fill="none" />
<path d="M216.0,642.0,221.0,649.5,230.0,657.5,230.0,665.5,237.0,679.0" stroke="black" stroke-width="2" fill="none" />
<path d="M221.5,655.0,213.5,646.0" stroke="black" stroke-width="2" fill="none" />
<path d="M272.5,644.0,264.5,647.5,259.5,649.0,274.5,641.0" stroke="black" stroke-width="2" fill="none" />
<path d="M274.0,640.0,257.0,648.0,261.0,646.0,268.5,643.0" stroke="black" stroke-width="2" fill="none" />
<path d="M447.0,653.5,455.0,653.0" stroke="black" stroke-width="2" fill="none" />
<path d="M456.5,658.5,448.5,653.5" stroke="black" stroke-width="2" fill="none" />
<path d="M448.5,652.0,453.5,660.5" stroke="black" stroke-width="2" fill="none" />
<path d="M434.0,423.5,426.0,424.0,418.0,424.5,410.0,425.5,402.0,426.0,394.0,426.0,386.0,426.5,378.5,427.5,370.5,428.0,362.5,428.5,354.5,429.0,346.5,429.0,339.0,430.0,331.5,430.5,324.5,431.0,317.0,431.5,309.0,432.0,301.0,432.5,293.0,433.0,285.0,433.0,277.5,433.5,269.5,433.5,261.0,433.5,252.0,433.5,244.0,433.5,236.0,434.0,228.0,434.0,219.5,434.5,212.0,435.5,204.0,436.5,196.5,437.0,188.5,438.5,181.0,439.0,173.5,440.0,165.5,441.0,157.5,441.5,149.5,442.5,141.5,443.0,133.0,443.5,124.5,444.0,115.5,444.0,107.0,444.5,99.0,444.5,91.0,445.5,82.5,446.0,74.0,446.5,66.0,447.0" stroke="black" stroke-width="2" fill="none" />
<path d="M63.0,445.5,71.0,453.5" stroke="black" stroke-width="2" fill="none" />
<path d="M75.5,446.5,75.5,438.5,76.5,430.5,76.5,422.5,77.5,414.5,77.0,406.5,78.0,398.0,78.0,389.5,79.0,381.5,80.0,373.5,80.0,365.5,80.0,358.0,81.0,350.5,81.0,342.5,74.0,338.5,66.0,338.0,58.5,338.0,51.0,338.5,43.0,339.5,35.5,340.0,27.0,340.0,19.0,340.0,11.0,340.5,3.0,340.0" stroke="black" stroke-width="2" fill="none" />
<path d="M3.0,337.5,11.5,337.0,19.5,337.0,27.5,336.5,35.0,336.5,43.0,336.5,51.0,336.0,58.5,335.0,66.5,333.5" stroke="black" stroke-width="2" fill="none" />
<path d="M53.0,332.0,45.0,332.5" stroke="black" stroke-width="2" fill="none" />
<path d="M52.0,329.5,54.5,321.5" stroke="black" stroke-width="2" fill="none" />
<path d="M61.0,300.5,69.0,304.5" stroke="black" stroke-width="2" fill="none" />
<path d="M81.5,301.0,90.0,300.5,98.5,300.0,106.5,299.5,115.0,299.0,123.0,299.0,131.5,298.0,140.0,297.5,148.0,297.5,156.0,297.5" stroke="black" stroke-width="2" fill="none" />
<path d="M141.0,284.5,149.5,284.0,157.5,284.0,165.0,283.5,173.0,282.5,181.0,282.5,188.5,282.0,197.0,282.0" stroke="black" stroke-width="2" fill="none" />
<path d="M108.5,298.5,100.5,306.0,92.0,314.0" stroke="black" stroke-width="2" fill="none" />
<path d="M96.5,312.5,104.0,309.5,111.5,306.5,119.5,304.5,127.5,303.0,135.5,300.0,143.5,297.5,151.5,295.0,159.5,292.5,167.5,289.0,175.5,287.0,183.5,285.0,191.5,282.5,200.0,280.5,208.0,278.5,216.5,275.5,224.5,274.0,228.0,278.0,227.0,286.5,226.0,294.5,226.0,302.5,225.0,310.0,223.5,318.0,222.5,326.0,221.5,333.5,213.0,334.5" stroke="black" stroke-width="2" fill="none" />
<path d="M229.5,262.5,222.0,261.0,214.0,259.5,206.0,258.5,198.0,256.5,190.0,255.0,182.5,254.0,174.0,252.0,166.0,251.0,158.0,250.5,149.5,248.0,141.5,247.0,133.0,245.5,125.0,243.5,117.0,242.5,108.5,241.0,101.0,240.5" stroke="black" stroke-width="2" fill="none" />
<path d="M101.5,242.0,101.5,250.0,101.0,257.5,101.0,265.0,100.0,273.0,99.0,280.5,99.0,288.5,97.5,296.5,101.5,299.5,109.0,297.0,117.0,295.0,125.5,293.5,133.5,290.5,141.5,288.5,149.5,286.5,157.0,284.5,165.0,282.0,172.5,280.0,180.0,278.0,188.0,276.0,195.5,274.0,203.5,271.0,212.0,269.5,220.0,267.5" stroke="black" stroke-width="2" fill="none" />
<path d="M131.5,205.5,123.0,213.0,115.0,220.0,107.0,227.5,99.5,235.0,91.5,242.5" stroke="black" stroke-width="2" fill="none" />
<path d="M90.5,240.5,98.5,240.5" stroke="black" stroke-width="2" fill="none" />
<path d="M94.0,242.5,95.0,250.5,95.5,258.0,95.5,266.0,94.0,274.0,94.0,281.5,94.0,289.5,93.5,298.0,93.5,305.5,92.5,313.5,91.5,322.0,91.5,329.5,91.0,337.5,91.0,346.0,89.5,354.5,89.5,362.5,88.0,370.5,88.0,378.5,87.5,386.0,87.5,394.0,87.0,402.0,86.5,410.0,85.5,418.0,84.0,426.5,82.5,434.5,82.0,442.0,82.5,450.0,74.5,456.0,79.5,457.0,85.5,456.0,92.5,454.0" stroke="black" stroke-width="2" fill="none" />
<path d="M68.0,451.0,61.0,443.5" stroke="black" stroke-width="2" fill="none" />
<path d="M54.0,421.5,45.5,422.0" stroke="black" stroke-width="2" fill="none" />
<path d="M28.0,343.5,36.0,343.5,44.0,343.5,52.0,344.0,60.5,346.0,70.5,343.5,78.5,343.5" stroke="black" stroke-width="2" fill="none" />
<path d="M90.0,321.5,98.0,314.0" stroke="black" stroke-width="2" fill="none" />
<path d="M102.5,311.0,96.5,319.0,95.5,326.5,95.0,334.5,94.0,343.0,93.0,351.0,93.0,358.5,92.0,366.5,92.0,374.5,91.0,382.0,91.0,389.5,90.0,397.5,90.0,405.5,89.0,414.0,88.5,422.0,88.5,430.0,87.5,438.5,87.5,446.5,92.5,454.5" stroke="black" stroke-width="2" fill="none" />
<path d="M36.5,532.0,28.5,532.0" stroke="black" stroke-width="2" fill="none" />
<path d="M25.5,530.0,33.5,527.5,42.0,528.5" stroke="black" stroke-width="2" fill="none" />
<path d="M17.5,345.5,9.5,345.5" stroke="black" stroke-width="2" fill="none" />
<path d="M2.5,343.0,10.5,343.0,18.5,342.5,26.5,342.5,34.5,342.5,42.5,342.0,50.5,342.0,58.5,341.0,66.5,341.0,74.5,341.0" stroke="black" stroke-width="2" fill="none" />
<path d="M92.0,305.5,100.0,298.0" stroke="black" stroke-width="2" fill="none" />
<path d="M93.0,297.5,101.0,290.5" stroke="black" stroke-width="2" fill="none" />
<path d="M93.0,289.0,101.0,281.5" stroke="black" stroke-width="2" fill="none" />
<path d="M99.5,274.5,91.5,282.0" stroke="black" stroke-width="2" fill="none" />
<path d="M92.0,277.5,100.5,277.5" stroke="black" stroke-width="2" fill="none" />
<path d="M90.5,274.5,98.0,267.0" stroke="black" stroke-width="2" fill="none" />
<path d="M100.5,269.0,92.5,269.5" stroke="black" stroke-width="2" fill="none" />
<path d="M91.0,266.0,99.0,258.0" stroke="black" stroke-width="2" fill="none" />
<path d="M100.0,253.0,91.5,260.0" stroke="black" stroke-width="2" fill="none" />
<path d="M93.0,262.5,101.0,262.0" stroke="black" stroke-width="2" fill="none" />
<path d="M93.5,253.0,101.0,253.0,108.5,252.5" stroke="black" stroke-width="2" fill="none" />
<path d="M90.0,247.5,90.5,255.5,89.0,264.0,89.0,272.0" stroke="black" stroke-width="2" fill="none" />
<path d="M84.0,288.5,92.0,287.5,100.0,286.5" stroke="black" stroke-width="2" fill="none" />
<path d="M99.0,293.5,91.5,294.0,84.0,294.0" stroke="black" stroke-width="2" fill="none" />
<path d="M80.0,295.5,79.5,304.0,74.5,312.0,75.5,300.5,84.0,297.5,80.0,308.0" stroke="black" stroke-width="2" fill="none" />
<path d="M78.5,336.0,74.5,329.5,66.0,329.5,55.5,331.0,53.5,326.0,52.0,321.5,44.0,329.0,44.0,330.0,50.0,322.0,49.0,314.5,42.0,308.5,35.5,311.5,34.0,309.5,34.0,306.5" stroke="black" stroke-width="2" fill="none" />
<path d="M35.0,308.0,37.5,316.0,46.5,319.5" stroke="black" stroke-width="2" fill="none" />
<path d="M45.5,290.5,42.5,287.0,34.5,291.0,33.0,283.0,33.0,278.5" stroke="black" stroke-width="2" fill="none" />
<path d="M35.0,282.0,36.5,290.0,37.5,286.0" stroke="black" stroke-width="2" fill="none" />
<path d="M42.0,250.5,34.5,245.5" stroke="black" stroke-width="2" fill="none" />
<path d="M29.0,245.0,37.0,242.0,45.0,247.5" stroke="black" stroke-width="2" fill="none" />
<path d="M45.0,226.0,44.0,218.0" stroke="black" stroke-width="2" fill="none" />
<path d="M69.0,220.0,77.0,219.5,84.0,219.0,92.0,218.5,100.0,218.5,107.5,218.0,115.5,218.0,123.5,218.0,132.0,218.0,140.0,217.5,148.0,216.5,156.5,216.5,164.5,216.5,172.0,216.5,180.0,215.5,188.0,215.0,195.5,215.0,203.0,214.5,211.0,214.0,219.0,213.5,226.5,213.0,234.5,212.5,243.0,211.5,251.5,211.0,259.0,210.0,267.0,209.5,275.5,208.5,284.0,207.5,292.5,207.0,301.0,206.5,309.5,206.0,317.0,205.5,325.0,204.5,332.5,203.5,340.5,202.5,348.5,201.5,356.0,201.0,364.0,200.5,372.0,200.0,380.0,199.5,388.0,199.0,396.0,199.0,404.5,198.5,413.0,198.5,420.5,198.5,428.5,198.5,437.0,198.5,444.5,198.0" stroke="black" stroke-width="2" fill="none" />
<path d="M436.5,191.5,428.5,191.5,420.5,192.0,413.0,192.5,405.0,193.5,397.0,194.0,389.0,193.5,381.0,193.5,372.5,193.5,364.0,194.0,356.5,194.5,348.5,195.0,340.5,196.0,332.0,197.0,323.5,197.5,315.5,198.0,307.5,199.0,299.0,200.0,291.0,200.5,283.0,201.5,275.5,201.5,267.5,201.5,260.0,201.5,252.0,201.5,244.5,201.0,236.5,201.5,228.5,202.5,220.5,203.0,212.5,204.0,204.0,204.0,196.0,204.5,188.0,205.0,180.0,205.5,172.0,206.5,164.0,207.0,156.0,208.0,148.0,208.5,140.0,209.5,132.0,210.0,124.0,211.0" stroke="black" stroke-width="2" fill="none" />
<path d="M124.5,204.0,116.5,211.5,108.5,219.0,100.0,227.0,92.0,235.0" stroke="black" stroke-width="2" fill="none" />
<path d="M84.5,235.5,92.5,228.0,100.5,220.5,108.5,213.0,117.0,205.0" stroke="black" stroke-width="2" fill="none" />
<path d="M98.5,213.5,91.0,220.5,83.0,227.5,75.0,235.0" stroke="black" stroke-width="2" fill="none" />
<path d="M76.0,235.0,84.0,234.5,92.5,233.0,101.0,232.0,109.0,231.0" stroke="black" stroke-width="2" fill="none" />
<path d="M92.0,210.0,84.0,217.5,75.5,225.0" stroke="black" stroke-width="2" fill="none" />
<path d="M74.5,225.0,82.5,224.5,91.0,224.5,99.5,224.5,107.5,224.5,116.0,224.5,124.5,224.0,132.0,223.5,140.0,223.0,148.0,222.5,156.0,222.0,164.0,221.0,172.0,220.5,180.0,219.5,188.0,219.0,196.0,218.0,204.0,217.5,212.0,216.5,220.0,216.0,228.0,215.5,236.0,215.0,244.5,215.0,252.5,214.0,260.5,213.5,268.5,212.5,276.5,212.0,284.0,212.5,292.0,212.5,299.5,212.5,307.5,212.5,315.0,212.5,323.0,211.5,331.0,211.0,339.5,210.0,347.5,209.0,355.5,208.5,364.0,208.0,372.5,207.0,380.5,206.0,388.5,205.5,396.0,205.0" stroke="black" stroke-width="2" fill="none" />
<path d="M442.5,183.5,434.5,184.0,426.5,184.5,419.0,185.0,411.5,185.5,404.0,186.0,396.5,186.5,388.5,186.5,380.5,186.5,372.5,186.5,365.0,187.0,356.5,188.0,348.5,188.5,340.5,189.5,332.5,190.0,325.0,191.0,316.5,191.5,309.0,192.0,300.5,192.0,292.5,192.5,284.0,192.5,275.5,193.0,267.0,193.5,258.5,193.5,250.5,193.5,242.5,193.5,235.0,194.5,226.5,195.5,218.5,197.0,210.5,198.5,202.5,199.0,194.0,199.5,186.5,199.5,179.0,200.0,171.5,200.5,164.0,201.5,156.0,202.0,147.5,202.5,139.5,203.0,131.0,204.0,123.0,204.0,115.0,205.0,106.5,205.0,98.5,205.5,90.0,206.0,82.0,207.0" stroke="black" stroke-width="2" fill="none" />
<path d="M83.0,211.0,75.0,218.0" stroke="black" stroke-width="2" fill="none" />
<path d="M75.0,217.5,83.0,217.5,91.0,217.5,99.0,217.0,107.0,216.5,114.5,216.0,123.0,215.5,131.5,215.0,140.0,215.0,148.5,215.0,157.0,214.0,165.0,214.0,173.0,213.0,181.5,212.5,189.5,212.0,197.5,211.0,205.0,210.0,212.0,209.0,219.5,208.5,227.0,208.5,235.0,208.0,243.5,207.5,251.0,206.5,259.5,205.5,267.5,204.0,275.0,203.5,283.0,203.5,291.0,204.0,299.5,204.0,308.0,203.5,316.0,203.0,324.5,202.5,332.5,202.5,340.0,202.0,347.5,201.5,356.0,201.0,363.5,200.0,371.0,199.5,379.0,198.5,387.5,198.0,396.0,197.0,404.0,197.0,412.0,196.5" stroke="black" stroke-width="2" fill="none" />
<path d="M444.5,206.5,437.0,206.5,429.0,207.0,421.0,207.5,413.0,208.0,404.5,209.0,396.0,209.0,388.0,210.0,380.0,210.5,372.0,211.0,364.0,211.0,355.5,212.0,347.5,212.0,339.5,213.0,331.5,213.5,323.5,214.5,315.5,215.0,308.0,215.5,300.0,216.0,291.5,216.0,283.5,216.0,275.0,216.5,267.0,217.0,259.0,217.5,251.5,218.0,243.5,218.5,235.5,219.0,227.5,219.5,219.0,220.0,211.5,220.5,203.5,221.0,195.5,221.5,188.0,222.5,180.0,223.5,172.5,224.5,164.5,224.5,156.5,225.0,148.5,226.0,140.5,226.0,133.0,226.5,125.0,227.5,116.5,228.0,108.5,228.5,100.0,228.5,91.5,229.0,83.0,229.5,74.5,230.0" stroke="black" stroke-width="2" fill="none" />
<path d="M69.5,216.5,77.5,209.5,85.0,208.5,93.0,207.0,100.5,206.0,108.0,205.0,116.0,202.5,124.0,201.5,132.0,200.5,139.5,199.5,147.0,197.5,155.0,196.0,163.5,194.5,171.5,193.5,180.0,191.5,188.5,190.5,196.5,188.5,204.5,186.5,212.5,185.0,220.5,182.0,228.5,180.0,236.0,180.0,244.5,182.0,252.5,183.0,261.0,183.0,269.0,185.0,277.0,185.5,285.5,186.5,293.5,187.5,301.5,187.5,309.5,189.0,317.5,189.0,325.0,189.5,333.0,190.5,340.5,190.5,348.5,191.5,356.5,191.0,364.5,191.0,372.5,192.0,381.0,191.5,389.0,193.0,397.0,194.0,404.5,194.0,412.5,194.0,420.5,195.5,429.0,195.5,436.5,195.5,438.0,202.0,438.0,210.0,437.5,217.5,436.5,225.0,437.0,233.0,437.5,241.0,436.5,249.0,436.0,257.0,436.0,265.0,435.5,273.0,435.5,280.5,435.5,288.5,435.0,296.5,435.0,304.0,435.0,312.0,433.5,320.5,433.0,328.5,432.5,336.5,431.0,344.5,431.0,352.5,430.5,360.5,429.5,368.5,429.5,376.0,429.5,384.5,430.0,392.5,429.0,401.0,429.0,409.0,429.0,417.5,428.0,425.5,428.0,433.5,427.5,442.0,427.5,450.0,427.5,457.5,425.0,465.5" stroke="black" stroke-width="2" fill="none" />
<path d="M379.5,435.5,372.0,430.0,364.0,429.0" stroke="black" stroke-width="2" fill="none" />
<path d="M403.5,389.0,411.5,388.0,419.5,387.0,427.0,386.0,434.5,385.0" stroke="black" stroke-width="2" fill="none" />
<path d="M435.5,378.5,427.5,379.0,419.0,379.0,411.0,379.5,403.0,380.0" stroke="black" stroke-width="2" fill="none" />
<path d="M404.0,363.0,412.0,363.0,420.0,363.0,427.5,363.0,435.0,362.5" stroke="black" stroke-width="2" fill="none" />
<path d="M349.5,305.0,343.0,303.0,342.0,304.0,346.5,296.5,346.5,296.5" stroke="black" stroke-width="2" fill="none" />
<path d="M459.5,254.0,453.5,259.5,448.5,258.0,458.0,253.0,466.0,245.5,468.0,237.5,467.5,229.0,470.0,221.0,471.0,214.5,473.5,206.5,467.5,209.5,459.5,212.5" stroke="black" stroke-width="2" fill="none" />
<path d="M464.0,210.0,474.0,218.5,471.0,229.5,470.0,237.5,480.5,242.0,486.5,248.0,497.5,251.5" stroke="black" stroke-width="2" fill="none" />
<path d="M499.0,265.5,510.0,267.5,505.0,264.0" stroke="black" stroke-width="2" fill="none" />
<path d="M503.0,206.5,503.0,201.0,511.0,204.0" stroke="black" stroke-width="2" fill="none" />
<path d="M444.0,189.5,436.0,190.0,428.0,190.5,420.5,190.5,413.0,190.5,405.5,191.0,397.5,191.0,389.5,192.0,381.5,192.5,374.0,193.0,366.0,193.5,357.5,194.5,349.0,195.5,341.5,196.0,333.0,196.5,324.5,197.0,316.0,197.5,308.5,198.0,300.5,198.5,292.5,199.0,284.0,199.0,276.0,200.0,268.5,200.5,259.5,201.5,251.5,202.5,243.0,203.5,234.0,204.0,226.0,204.5,218.0,205.0,210.5,205.5,203.0,206.5,196.0,207.0,188.5,207.0,180.0,207.5,172.0,208.0,164.0,208.5,156.5,208.0,148.5,208.5,140.5,209.0,132.5,209.5,125.0,210.0,117.0,210.5,109.5,211.0,101.5,211.5,93.5,211.5,85.0,212.0,76.5,212.0,68.5,212.5" stroke="black" stroke-width="2" fill="none" />
<path d="M77.0,207.5,70.0,215.5,70.5,223.5,71.5,231.5,75.5,235.5,83.0,236.5" stroke="black" stroke-width="2" fill="none" />
<path d="M35.0,195.0,34.0,199.5,27.5,189.5,28.5,192.5,24.5,192.5,19.5,196.5,17.0,198.0" stroke="black" stroke-width="2" fill="none" />
<path d="M5.5,88.0,7.0,83.0,2.5,86.0" stroke="black" stroke-width="2" fill="none" />
<path d="M151.0,172.5,159.0,170.5" stroke="black" stroke-width="2" fill="none" />
<path d="M206.5,129.5,203.0,119.0" stroke="black" stroke-width="2" fill="none" />
<path d="M199.5,112.5,207.5,110.5,207.0,112.5,208.5,124.0,212.0,135.5,215.5,137.0" stroke="black" stroke-width="2" fill="none" />
<path d="M238.0,143.5,246.0,143.5" stroke="black" stroke-width="2" fill="none" />
<path d="M243.0,134.5,251.5,134.0" stroke="black" stroke-width="2" fill="none" />
<path d="M240.0,129.5,248.0,119.5" stroke="black" stroke-width="2" fill="none" />
<path d="M246.5,105.0,254.0,103.5,252.5,112.5,248.5,115.0,254.5,125.0,246.5,132.5,243.5,140.5,241.0,145.5,248.5,146.5" stroke="black" stroke-width="2" fill="none" />
<path d="M251.5,143.0,249.5,135.0,241.5,131.0,238.0,141.0,241.5,133.5,240.0,127.5,246.5,119.0,238.5,108.0,236.0,108.0" stroke="black" stroke-width="2" fill="none" />
<path d="M232.0,107.5,234.0,104.0,232.0,112.0" stroke="black" stroke-width="2" fill="none" />
<path d="M212.0,131.5,210.5,144.5,209.5,138.5,209.5,138.5,204.0,138.0,205.5,130.0,204.0,122.0,200.0,112.0,207.5,104.0,199.5,108.5" stroke="black" stroke-width="2" fill="none" />
<path d="M267.0,81.0,268.0,78.0" stroke="black" stroke-width="2" fill="none" />
<path d="M386.5,142.0,385.5,150.0,382.5,157.5,389.0,146.5,399.0,147.5,411.0,145.5" stroke="black" stroke-width="2" fill="none" />
</svg>