<svg xmlns="http://www.w3.org/2000/svg" version="1.1"><polyline points="2.0,1.5,2.5,9.5,2.5,17.5,2.5,25.5,2.5,33.5,2.5,41.5,3.0,49.5,4.0,57.0,4.5,65.0,4.5,72.5,4.5,81.0,4.5,89.0,4.0,97.0,3.5,105.5,3.5,114.5,3.5,123.0,3.5,131.0,3.0,138.5,3.0,146.5,3.0,154.5,3.0,162.5,2.5,170.5,2.5,178.5,2.5,186.0,2.5,194.0,3.0,202.0,3.0,210.0,3.0,218.0,3.5,226.0,4.0,234.5,4.0,242.5,4.0,250.5,4.0,258.5,3.5,266.5,3.0,275.0,3.0,283.0,3.0,291.0,3.0,298.5,3.5,306.5,3.0,314.5,3.0,322.5,3.0,330.5,2.5,338.5,2.5,346.5,2.5,354.0,2.5,361.5,2.0,369.5,2.0,377.5,1.5,385.5,1.0,394.0,1.0,402.0,1.0,410.0,2.0,417.5,2.0,425.5,2.0,434.0,2.0,442.5,2.5,450.5,2.5,459.0,3.0,467.5,3.5,475.5,3.5,484.0,3.5,492.0,3.0,500.0,3.0,507.5,3.5,515.0,3.5,523.0,3.0,531.0,3.0,538.5,2.5,546.0,2.5,553.5,3.0,561.5,2.5,569.5,2.5,578.0,2.5,586.0,3.0,594.5,3.0,603.0,3.5,611.0,4.0,619.0,4.0,627.0,4.5,635.0,5.0,643.0,5.0,651.0,4.5,658.5,4.5,666.5,4.0,674.0,4.0,682.0,12.0,682.5,19.0,683.0,27.0,683.0,35.0,683.5,43.0,683.5,51.0,683.0,58.5,683.0,66.5,682.5,74.0,682.5,82.0,682.5,89.5,682.5,97.5,682.0,105.0,681.5,113.0,679.5,119.0,681.5,127.0,681.5,135.5,682.0,143.5,682.0,151.5,682.5,159.5,683.0,167.5,683.0,175.5,683.0,183.5,683.0,191.5,682.5,199.5,682.0,207.5,682.0,215.5,682.5,223.5,683.0,231.5,683.0,239.5,683.5,247.5,683.5,255.5,684.0,264.0,684.0,272.0,684.0,280.0,684.0,288.0,684.0,296.0,684.0,303.5,683.5,311.5,683.5,319.0,683.5,327.0,683.5,335.0,683.5,343.0,683.5,351.0,684.0,359.5,684.5,367.5,684.5,375.5,683.5,383.5,683.0,392.0,683.0,400.0,683.0,408.0,682.5,416.5,682.5,424.5,682.0,432.0,682.5,440.0,682.5,448.0,682.5,456.0,682.0,463.5,682.0,471.5,681.5,479.0,682.0,487.0,682.0,495.0,682.0,503.0,682.5,511.0,682.0" stroke="black" stroke-width="2" fill="none" />
<polyline points="454.0,656.0,454.0,652.0,446.0,650.0" stroke="black" stroke-width="2" fill="none" />
<polyline points="444.5,650.5,451.0,658.5,455.5,659.0" stroke="black" stroke-width="2" fill="none" />
<polyline points="495.5,568.0,491.5,566.0,488.5,563.0" stroke="black" stroke-width="2" fill="none" />
<polyline points="420.0,502.0,413.0,502.5,405.5,503.0" stroke="black" stroke-width="2" fill="none" />
<polyline points="395.5,492.5,403.5,492.5,411.5,491.5,419.5,491.0" stroke="black" stroke-width="2" fill="none" />
<polyline points="419.0,465.0,427.0,457.5" stroke="black" stroke-width="2" fill="none" />
<polyline points="428.5,451.5,420.5,458.5,412.0,465.5" stroke="black" stroke-width="2" fill="none" />
<polyline points="411.5,465.0,419.5,464.0,427.5,464.0" stroke="black" stroke-width="2" fill="none" />
<polyline points="428.0,444.0,420.5,451.5,412.0,458.5,404.5,466.0" stroke="black" stroke-width="2" fill="none" />
<polyline points="403.5,458.5,411.5,450.5,420.5,443.0,429.0,435.0" stroke="black" stroke-width="2" fill="none" />
<polyline points="426.0,426.5,418.5,434.0,410.0,442.0,402.5,450.0,395.0,458.0" stroke="black" stroke-width="2" fill="none" />
<polyline points="404.0,457.5,412.5,457.5,421.0,457.0,429.0,457.0" stroke="black" stroke-width="2" fill="none" />
<polyline points="427.5,446.5,419.5,447.0,412.0,447.5" stroke="black" stroke-width="2" fill="none" />
<polyline points="412.0,441.5,420.0,441.0,428.0,440.5" stroke="black" stroke-width="2" fill="none" />
<polyline points="426.5,432.0,418.5,432.0,411.0,432.5" stroke="black" stroke-width="2" fill="none" />
<polyline points="413.0,426.5,420.5,426.0,428.0,425.0" stroke="black" stroke-width="2" fill="none" />
<polyline points="426.0,419.0,418.5,427.0,411.0,434.0,403.0,441.5" stroke="black" stroke-width="2" fill="none" />
<polyline points="402.5,433.5,410.5,426.0,418.5,418.5,427.0,410.5" stroke="black" stroke-width="2" fill="none" />
<polyline points="428.5,402.5,420.5,410.0,412.0,417.5,404.5,425.0" stroke="black" stroke-width="2" fill="none" />
<polyline points="405.0,423.0,412.5,422.5,420.5,421.5,428.0,421.0,436.5,420.0" stroke="black" stroke-width="2" fill="none" />
<polyline points="428.0,415.5,420.5,416.5,412.5,417.0" stroke="black" stroke-width="2" fill="none" />
<polyline points="405.5,418.0,413.0,410.0,420.0,402.5,428.0,395.0" stroke="black" stroke-width="2" fill="none" />
<polyline points="429.0,387.0,421.5,394.5,414.0,402.0" stroke="black" stroke-width="2" fill="none" />
<polyline points="411.0,401.5,419.0,401.5,427.0,401.0" stroke="black" stroke-width="2" fill="none" />
<polyline points="428.0,408.5,420.0,409.0,412.0,409.5" stroke="black" stroke-width="2" fill="none" />
<polyline points="404.5,406.5,412.0,406.0,419.5,406.0,427.0,405.0,434.5,403.5" stroke="black" stroke-width="2" fill="none" />
<polyline points="428.5,393.0,420.5,393.0,412.5,393.5" stroke="black" stroke-width="2" fill="none" />
<polyline points="411.0,395.0,419.0,387.0,428.0,379.5,436.5,372.0" stroke="black" stroke-width="2" fill="none" />
<polyline points="433.0,362.0,425.5,369.5,417.5,377.5,410.0,386.0" stroke="black" stroke-width="2" fill="none" />
<polyline points="413.0,388.0,421.0,387.0,429.5,386.5" stroke="black" stroke-width="2" fill="none" />
<polyline points="428.5,376.5,421.0,376.5,413.0,377.5" stroke="black" stroke-width="2" fill="none" />
<polyline points="410.5,378.0,418.5,370.0,426.5,362.5,434.5,354.5" stroke="black" stroke-width="2" fill="none" />
<polyline points="434.0,355.5,442.0,355.5,449.5,347.0,452.0,350.0" stroke="black" stroke-width="2" fill="none" />
<polyline points="459.5,342.0,451.0,343.0,443.0,343.0" stroke="black" stroke-width="2" fill="none" />
<polyline points="434.5,347.0,426.5,354.5,418.5,362.5,410.5,370.0" stroke="black" stroke-width="2" fill="none" />
<polyline points="413.0,368.5,421.0,367.5,429.0,367.5" stroke="black" stroke-width="2" fill="none" />
<polyline points="429.5,361.5,421.0,362.0,413.0,362.5" stroke="black" stroke-width="2" fill="none" />
<polyline points="410.5,362.0,418.0,354.0,426.5,346.0,434.5,338.0" stroke="black" stroke-width="2" fill="none" />
<polyline points="433.5,340.0,441.5,340.0,455.0,338.5,463.0,338.5" stroke="black" stroke-width="2" fill="none" />
<polyline points="475.0,342.0,483.5,342.0,492.0,341.0" stroke="black" stroke-width="2" fill="none" />
<polyline points="500.0,343.5,508.5,345.5" stroke="black" stroke-width="2" fill="none" />
<polyline points="506.5,342.5,514.5,341.5" stroke="black" stroke-width="2" fill="none" />
<polyline points="515.5,326.0,507.5,326.0,499.0,326.0" stroke="black" stroke-width="2" fill="none" />
<polyline points="502.0,319.0,510.5,318.5,518.5,317.5" stroke="black" stroke-width="2" fill="none" />
<polyline points="515.5,309.5,508.0,310.5" stroke="black" stroke-width="2" fill="none" />
<polyline points="490.5,316.5,482.5,316.5,474.5,317.0" stroke="black" stroke-width="2" fill="none" />
<polyline points="473.0,324.5,481.5,324.0" stroke="black" stroke-width="2" fill="none" />
<polyline points="491.5,317.5,485.5,314.5,477.5,313.5,472.5,312.5,470.5,303.0,463.0,307.0,450.5,304.5,449.5,307.0,465.5,299.0,464.0,298.0,468.0,290.0,473.5,286.5,478.0,274.5,476.0,264.5,478.5,261.0,478.5,266.0" stroke="black" stroke-width="2" fill="none" />
<polyline points="474.5,271.5,483.0,275.0,490.5,270.0,505.5,262.5,510.5,263.5" stroke="black" stroke-width="2" fill="none" />
<polyline points="505.0,262.5,510.5,270.5,502.5,281.5,503.0,287.5,508.0,288.5" stroke="black" stroke-width="2" fill="none" />
<polyline points="493.5,294.5,485.5,296.0" stroke="black" stroke-width="2" fill="none" />
<polyline points="477.5,295.0,487.5,295.0,486.5,303.0,485.5,317.0,483.5,327.5,478.5,331.5,475.0,339.5,477.0,338.5,485.0,338.5,486.0,330.5,487.0,337.5,494.5,338.5,502.5,341.5,506.0,335.5,512.0,341.5" stroke="black" stroke-width="2" fill="none" />
<polyline points="516.0,326.0,508.5,326.5,501.0,326.5,493.0,326.5,485.0,327.5,477.0,328.0,469.5,328.5,461.0,329.0,452.0,330.5,443.5,331.5,435.5,332.0,427.5,333.0,419.5,334.0,412.0,334.5,403.5,335.5" stroke="black" stroke-width="2" fill="none" />
<polyline points="411.0,335.5,419.5,335.0,427.5,334.5" stroke="black" stroke-width="2" fill="none" />
<polyline points="435.0,331.5,427.0,339.0,418.5,345.5,410.0,352.5" stroke="black" stroke-width="2" fill="none" />
<polyline points="412.0,355.0,420.0,355.0,428.5,354.0" stroke="black" stroke-width="2" fill="none" />
<polyline points="428.5,345.0,421.0,346.0,413.0,346.5" stroke="black" stroke-width="2" fill="none" />
<polyline points="410.5,345.0,418.0,337.5,426.0,330.0,434.0,322.0" stroke="black" stroke-width="2" fill="none" />
<polyline points="434.0,315.5,426.0,323.0,419.0,330.5,411.5,338.5" stroke="black" stroke-width="2" fill="none" />
<polyline points="404.0,343.0,412.0,342.5,420.5,341.5,428.5,340.5,436.0,340.0" stroke="black" stroke-width="2" fill="none" />
<polyline points="436.0,335.5,444.5,331.0,458.0,332.0,459.0,320.5" stroke="black" stroke-width="2" fill="none" />
<polyline points="459.0,318.0,451.0,318.5" stroke="black" stroke-width="2" fill="none" />
<polyline points="444.0,316.0,435.5,316.0,427.5,316.0,420.0,316.0,411.5,316.0,403.5,317.0" stroke="black" stroke-width="2" fill="none" />
<polyline points="406.0,314.5,406.0,322.5" stroke="black" stroke-width="2" fill="none" />
<polyline points="409.5,320.0,417.5,312.5,425.0,305.0,433.0,297.5" stroke="black" stroke-width="2" fill="none" />
<polyline points="433.0,293.0,425.5,300.0,418.0,307.0,410.5,314.0" stroke="black" stroke-width="2" fill="none" />
<polyline points="409.0,312.0,416.5,312.0,425.5,312.0,434.0,312.0" stroke="black" stroke-width="2" fill="none" />
<polyline points="435.0,306.0,427.0,313.5,419.0,321.5,411.0,329.5" stroke="black" stroke-width="2" fill="none" />
<polyline points="411.0,328.5,419.0,328.0,426.5,328.0" stroke="black" stroke-width="2" fill="none" />
<polyline points="434.5,319.5,426.5,319.5,418.5,320.0,410.5,321.0" stroke="black" stroke-width="2" fill="none" />
<polyline points="404.0,326.5,412.0,326.0,420.0,325.0,428.0,325.0,436.0,324.5" stroke="black" stroke-width="2" fill="none" />
<polyline points="433.5,302.5,425.5,303.5,418.0,304.0,411.0,304.5" stroke="black" stroke-width="2" fill="none" />
<polyline points="409.5,307.5,418.0,300.5,426.0,293.5,434.0,285.5" stroke="black" stroke-width="2" fill="none" />
<polyline points="435.5,275.5,427.5,283.0,420.0,290.0,412.0,297.5" stroke="black" stroke-width="2" fill="none" />
<polyline points="409.5,296.0,417.5,295.5,426.0,295.5,434.0,295.5" stroke="black" stroke-width="2" fill="none" />
<polyline points="435.0,287.5,427.0,288.5,419.0,289.5,411.0,290.0" stroke="black" stroke-width="2" fill="none" />
<polyline points="412.0,289.0,420.5,281.0,429.0,273.0,437.0,265.5" stroke="black" stroke-width="2" fill="none" />
<polyline points="438.0,259.0,429.5,267.0,421.0,274.0,412.5,281.0" stroke="black" stroke-width="2" fill="none" />
<polyline points="411.5,281.5,420.0,281.0,427.5,281.0,435.5,281.0" stroke="black" stroke-width="2" fill="none" />
<polyline points="435.5,273.0,427.5,273.0,420.0,273.5,411.5,274.0" stroke="black" stroke-width="2" fill="none" />
<polyline points="412.0,274.0,420.5,267.5,429.5,260.5,438.0,254.0" stroke="black" stroke-width="2" fill="none" />
<polyline points="436.5,244.0,429.0,251.5,421.0,259.5,413.0,267.0" stroke="black" stroke-width="2" fill="none" />
<polyline points="412.0,268.0,420.0,267.0,428.5,265.5,437.0,264.5" stroke="black" stroke-width="2" fill="none" />
<polyline points="437.5,258.5,429.5,259.0,421.0,259.0,413.0,259.5" stroke="black" stroke-width="2" fill="none" />
<polyline points="410.5,259.0,419.5,251.5,427.5,244.5,435.5,237.0" stroke="black" stroke-width="2" fill="none" />
<polyline points="435.5,229.5,428.0,237.0,420.0,244.5,411.5,251.5" stroke="black" stroke-width="2" fill="none" />
<polyline points="412.0,251.0,420.5,250.0,428.5,249.0,436.5,248.0" stroke="black" stroke-width="2" fill="none" />
<polyline points="443.0,243.5,435.5,244.5,427.5,245.0,418.5,246.5,410.5,247.0" stroke="black" stroke-width="2" fill="none" />
<polyline points="411.0,243.5,419.0,236.5,426.5,229.5,434.5,222.0" stroke="black" stroke-width="2" fill="none" />
<polyline points="437.0,225.0,429.0,226.0,421.0,226.5" stroke="black" stroke-width="2" fill="none" />
<polyline points="410.5,233.0,418.5,225.5,427.0,218.0,435.5,210.5" stroke="black" stroke-width="2" fill="none" />
<polyline points="434.5,202.5,426.0,210.0,419.0,217.5,411.0,225.0,403.0,233.0" stroke="black" stroke-width="2" fill="none" />
<polyline points="398.0,241.5,397.0,237.5,373.5,245.5,349.5,253.5,325.5,261.0,306.5,268.5,306.0,276.5,306.0,284.5,305.5,292.5,305.0,301.0,305.0,309.0,305.0,317.0,306.0,324.5,306.0,332.5,306.0,341.0,306.0,349.5,306.5,357.5,306.5,366.0,307.0,374.5,307.5,382.5,307.5,391.0,308.5,399.0,307.0,407.0,307.0,414.5,307.5,422.0,307.5,430.0,308.0,438.0,308.0,445.5,307.5,453.0,307.5,460.5,308.0,468.5,307.5,476.5,307.5,485.0,307.5,493.0,308.0,501.5,308.0,510.0,308.5,518.0,309.0,526.0,309.0,534.0,308.5,542.0,310.0,550.0,310.0,558.0,303.5,565.5" stroke="black" stroke-width="2" fill="none" />
<polyline points="299.5,561.5,307.0,553.5,315.0,545.5" stroke="black" stroke-width="2" fill="none" />
<polyline points="307.5,542.0,300.0,549.5,292.0,557.0,284.0,564.0" stroke="black" stroke-width="2" fill="none" />
<polyline points="286.0,563.5,294.5,563.5,302.0,563.0,309.5,563.0" stroke="black" stroke-width="2" fill="none" />
<polyline points="306.5,547.0,298.5,554.5,290.5,562.5" stroke="black" stroke-width="2" fill="none" />
<polyline points="283.5,560.0,291.5,559.5,299.5,559.5,307.5,560.0" stroke="black" stroke-width="2" fill="none" />
<polyline points="284.5,555.0,293.0,548.0,300.5,541.5,308.5,534.0" stroke="black" stroke-width="2" fill="none" />
<polyline points="308.0,524.5,300.5,532.0,293.0,539.0,285.5,546.5,277.0,553.5" stroke="black" stroke-width="2" fill="none" />
<polyline points="276.5,556.5,284.5,556.0,292.0,555.5,300.0,555.0,308.0,554.5,316.5,553.5,324.0,553.5" stroke="black" stroke-width="2" fill="none" />
<polyline points="307.0,515.5,299.0,523.0,290.5,531.0,282.5,538.5" stroke="black" stroke-width="2" fill="none" />
<polyline points="281.0,539.5,289.0,538.5,298.0,537.5,306.0,536.5" stroke="black" stroke-width="2" fill="none" />
<polyline points="306.0,551.0,297.5,551.5,288.5,552.5,280.5,553.5" stroke="black" stroke-width="2" fill="none" />
<polyline points="281.0,546.5,289.0,546.0,297.0,545.0,305.5,544.0" stroke="black" stroke-width="2" fill="none" />
<polyline points="308.5,529.0,300.5,529.0,292.5,529.0,284.0,529.5" stroke="black" stroke-width="2" fill="none" />
<polyline points="283.0,531.0,291.0,523.5,299.0,516.5,306.5,509.5" stroke="black" stroke-width="2" fill="none" />
<polyline points="315.0,490.0,307.0,497.5,299.0,506.0,290.5,513.5,282.5,521.5" stroke="black" stroke-width="2" fill="none" />
<polyline points="283.5,520.5,292.0,520.0,300.0,520.0,308.5,519.0" stroke="black" stroke-width="2" fill="none" />
<polyline points="309.5,511.0,301.5,512.0,293.5,513.0,285.0,513.5" stroke="black" stroke-width="2" fill="none" />
<polyline points="283.5,514.0,292.0,506.0,300.0,498.5,307.5,491.5,315.5,484.0" stroke="black" stroke-width="2" fill="none" />
<polyline points="317.5,475.5,309.5,482.5,301.5,489.5,293.5,497.5,285.5,505.5" stroke="black" stroke-width="2" fill="none" />
<polyline points="284.0,504.5,292.5,504.0,301.0,503.0,309.0,502.5" stroke="black" stroke-width="2" fill="none" />
<polyline points="283.5,497.5,291.0,489.5,299.0,482.0,307.5,474.5,315.5,467.5" stroke="black" stroke-width="2" fill="none" />
<polyline points="314.0,458.5,306.0,466.0,297.5,473.0,289.5,480.0,281.0,487.5,273.0,494.5" stroke="black" stroke-width="2" fill="none" />
<polyline points="276.5,492.5,284.5,492.0,292.0,491.0,300.0,491.0,308.0,491.0,316.0,490.5,324.0,490.0,332.0,489.5,340.0,488.5,348.0,488.0" stroke="black" stroke-width="2" fill="none" />
<polyline points="372.0,476.0,380.0,476.0,389.0,476.0" stroke="black" stroke-width="2" fill="none" />
<polyline points="397.5,476.5,405.5,476.0,412.5,476.0,420.0,475.5,428.0,475.5" stroke="black" stroke-width="2" fill="none" />
<polyline points="429.0,469.0,421.0,468.5,413.0,468.0,405.5,468.5,397.5,469.0" stroke="black" stroke-width="2" fill="none" />
<polyline points="389.5,486.0,397.0,485.5,405.0,485.0,413.0,485.0,420.5,484.5,428.0,484.5" stroke="black" stroke-width="2" fill="none" />
<polyline points="411.0,517.0,403.0,517.5,394.5,518.5" stroke="black" stroke-width="2" fill="none" />
<polyline points="387.0,452.0,394.5,444.0" stroke="black" stroke-width="2" fill="none" />
<polyline points="384.5,449.5,392.5,454.0,400.5,460.0,408.5,465.5,416.5,467.5,424.5,466.5" stroke="black" stroke-width="2" fill="none" />
<polyline points="436.0,428.0,427.0,429.0,418.5,430.0,410.5,430.5,402.5,431.0" stroke="black" stroke-width="2" fill="none" />
<polyline points="403.0,414.5,411.5,413.5,419.5,412.0,428.0,411.0,436.0,410.5" stroke="black" stroke-width="2" fill="none" />
<polyline points="436.0,397.5,427.5,398.5,419.5,399.5,412.0,399.5,404.0,400.0" stroke="black" stroke-width="2" fill="none" />
<polyline points="406.0,389.0,413.5,388.5,420.5,387.5,428.0,387.0,435.5,386.5" stroke="black" stroke-width="2" fill="none" />
<polyline points="437.0,379.0,429.5,379.0,421.0,379.0,413.0,379.0,405.0,379.0" stroke="black" stroke-width="2" fill="none" />
<polyline points="404.5,371.5,412.5,371.0,421.0,370.5,428.5,370.5,437.0,370.5" stroke="black" stroke-width="2" fill="none" />
<polyline points="436.5,362.5,428.5,363.0,421.0,363.5,413.0,364.0,405.5,364.0" stroke="black" stroke-width="2" fill="none" />
<polyline points="404.0,357.0,412.5,356.5,420.5,356.5,428.5,356.5,436.0,356.5" stroke="black" stroke-width="2" fill="none" />
<polyline points="436.5,348.5,428.0,349.5,420.0,350.0,412.0,350.0,404.0,350.5" stroke="black" stroke-width="2" fill="none" />
<polyline points="378.5,360.0,371.5,360.0,363.5,361.0" stroke="black" stroke-width="2" fill="none" />
<polyline points="355.0,338.0,363.0,332.5,359.5,334.0" stroke="black" stroke-width="2" fill="none" />
<polyline points="354.5,316.5,358.5,310.0" stroke="black" stroke-width="2" fill="none" />
<polyline points="371.0,314.5,367.0,316.5,375.0,319.5,383.0,314.0" stroke="black" stroke-width="2" fill="none" />
<polyline points="392.0,318.0,389.0,320.0,384.0,328.0,383.0,330.0,387.5,331.0" stroke="black" stroke-width="2" fill="none" />
<polyline points="374.0,307.5,382.0,298.0,379.0,301.0,378.0,307.5,374.5,321.5,378.0,333.5,386.0,337.0,393.5,333.0,399.5,327.0,398.5,311.5,399.5,303.5" stroke="black" stroke-width="2" fill="none" />
<polyline points="406.5,302.5,414.0,301.5,421.5,301.5,428.5,300.5,435.5,300.0" stroke="black" stroke-width="2" fill="none" />
<polyline points="436.0,306.0,428.0,307.0,420.0,307.5,412.5,308.5,404.5,309.0" stroke="black" stroke-width="2" fill="none" />
<polyline points="405.5,293.0,413.5,293.0,421.0,292.5,429.0,292.5,437.0,292.0" stroke="black" stroke-width="2" fill="none" />
<polyline points="442.0,283.5,434.5,283.5,427.0,284.0,419.0,284.0,411.5,284.0,404.0,284.0" stroke="black" stroke-width="2" fill="none" />
<polyline points="404.5,283.5,398.5,289.5,399.5,288.5,399.5,281.0" stroke="black" stroke-width="2" fill="none" />
<polyline points="403.0,276.5,411.0,276.0,419.0,275.5,427.0,275.0,435.5,274.5" stroke="black" stroke-width="2" fill="none" />
<polyline points="434.5,266.5,426.0,267.0,417.5,267.0,409.0,267.5,401.0,268.0" stroke="black" stroke-width="2" fill="none" />
<polyline points="401.5,260.0,409.5,259.5,418.0,259.0,426.5,259.0,435.0,258.0" stroke="black" stroke-width="2" fill="none" />
<polyline points="436.0,242.0,428.0,242.5,420.0,243.0,412.0,243.5" stroke="black" stroke-width="2" fill="none" />
<polyline points="401.5,253.0,409.5,252.5,417.0,252.0,425.0,251.5,433.5,251.0" stroke="black" stroke-width="2" fill="none" />
<polyline points="435.5,232.0,427.5,232.5,419.5,233.0,411.5,233.0,403.5,233.0,396.0,232.5,388.5,232.5" stroke="black" stroke-width="2" fill="none" />
<polyline points="386.5,239.5,394.5,231.5,402.5,224.0,411.0,216.0,419.0,208.0,427.0,200.5,435.0,193.0" stroke="black" stroke-width="2" fill="none" />
<polyline points="429.0,195.0,421.0,202.5,412.5,210.5,404.5,217.5,396.5,224.5,387.5,232.0,379.5,239.5" stroke="black" stroke-width="2" fill="none" />
<polyline points="373.5,239.5,381.5,239.0,389.5,238.5" stroke="black" stroke-width="2" fill="none" />
<polyline points="380.0,230.5,372.0,231.5,364.0,232.0,356.0,231.5,348.0,231.5,340.0,232.0,331.5,232.0,323.0,232.5,314.5,232.5,306.5,232.5,298.0,233.0,290.0,234.0,282.0,234.5,273.5,235.0,266.0,235.5,258.0,236.0,250.5,236.5,242.5,237.0,234.5,237.5,227.0,238.0,219.5,238.5,211.0,239.5,203.5,240.0,196.0,241.0,188.0,241.5,180.0,242.5,172.5,243.0,165.0,243.5,157.0,243.5,149.0,244.0,141.0,245.0,133.5,245.0" stroke="black" stroke-width="2" fill="none" />
<polyline points="139.0,241.0,146.5,233.5,155.0,226.0,162.5,218.5,170.5,211.5,178.5,204.0,187.0,196.0" stroke="black" stroke-width="2" fill="none" />
<polyline points="180.0,195.5,171.5,203.0,163.0,211.0,154.5,219.0,146.0,226.0,138.0,233.0,130.5,240.0" stroke="black" stroke-width="2" fill="none" />
<polyline points="124.5,241.5,132.5,241.0,141.0,241.0,148.5,241.0,156.0,240.5,163.5,240.0,171.5,239.0,180.0,239.0" stroke="black" stroke-width="2" fill="none" />
<polyline points="178.5,247.0,187.0,240.0,195.0,232.5,203.0,225.0,211.0,218.0,219.0,210.5,227.0,203.0,235.5,195.0,243.5,187.5" stroke="black" stroke-width="2" fill="none" />
<polyline points="250.5,186.0,242.5,194.0,235.0,202.0,227.0,209.5,219.0,217.5,211.0,225.0,203.0,233.0,195.0,240.5,187.0,248.5" stroke="black" stroke-width="2" fill="none" />
<polyline points="187.5,242.5,195.5,242.0,204.0,241.5,212.0,241.0,219.5,240.0,227.5,239.5,235.5,239.0,243.0,238.5,250.5,238.0,258.0,238.0,265.5,237.5,274.0,237.0,282.5,236.5,291.0,236.0,299.0,236.0,307.0,235.5,315.5,235.5,323.5,235.0,331.5,234.5" stroke="black" stroke-width="2" fill="none" />
<polyline points="332.5,249.5,324.0,250.5" stroke="black" stroke-width="2" fill="none" />
<polyline points="324.5,257.0,332.5,256.5" stroke="black" stroke-width="2" fill="none" />
<polyline points="338.0,254.0,346.5,247.0,354.5,240.0,363.0,232.5,371.0,226.0,378.5,219.0,386.0,212.0,394.5,205.0,402.5,198.0" stroke="black" stroke-width="2" fill="none" />
<polyline points="395.0,197.0,387.5,204.5,380.0,211.5,371.5,218.5,363.0,225.0,355.0,232.0,347.0,239.0,339.0,246.5,330.5,254.5" stroke="black" stroke-width="2" fill="none" />
<polyline points="331.0,254.0,322.5,255.0,314.0,256.0,306.5,256.5,298.5,257.5,291.0,258.0,283.0,258.0,275.0,258.5,267.0,259.0,259.0,259.5,251.0,260.5,244.0,261.5,236.0,262.5,227.5,263.5,219.5,264.0" stroke="black" stroke-width="2" fill="none" />
<polyline points="221.0,269.0,212.5,276.0" stroke="black" stroke-width="2" fill="none" />
<polyline points="204.5,275.0,196.0,282.5" stroke="black" stroke-width="2" fill="none" />
<polyline points="197.5,276.5,189.0,283.5" stroke="black" stroke-width="2" fill="none" />
<polyline points="178.0,284.5,170.0,292.5" stroke="black" stroke-width="2" fill="none" />
<polyline points="164.0,289.0,172.0,281.0" stroke="black" stroke-width="2" fill="none" />
<polyline points="172.0,277.5,180.5,277.5,188.0,277.0,195.5,276.5,203.5,276.0,210.5,275.5,218.5,275.5" stroke="black" stroke-width="2" fill="none" />
<polyline points="219.5,270.0,227.0,262.5,235.5,255.0,243.5,247.5,251.5,239.5,259.5,232.0,267.0,225.0,275.0,217.5,282.5,210.0,290.5,202.5,299.0,195.0,307.0,187.5" stroke="black" stroke-width="2" fill="none" />
<polyline points="314.0,188.0,306.5,195.5,299.0,202.5,291.5,209.5,285.0,217.5,277.5,225.5,269.5,232.5,261.5,240.0,253.0,247.5,244.5,255.0,236.0,263.0,228.5,270.5" stroke="black" stroke-width="2" fill="none" />
<polyline points="227.0,275.0,235.0,274.5" stroke="black" stroke-width="2" fill="none" />
<polyline points="235.0,277.5,227.0,285.0" stroke="black" stroke-width="2" fill="none" />
<polyline points="228.0,285.0,237.0,284.5,245.5,284.5" stroke="black" stroke-width="2" fill="none" />
<polyline points="244.5,280.5,243.0,280.5,246.0,278.5,243.0,277.5" stroke="black" stroke-width="2" fill="none" />
<polyline points="236.5,285.5,228.0,293.0" stroke="black" stroke-width="2" fill="none" />
<polyline points="228.5,294.5,236.5,294.0,245.0,294.0" stroke="black" stroke-width="2" fill="none" />
<polyline points="234.5,292.0,227.0,299.5" stroke="black" stroke-width="2" fill="none" />
<polyline points="228.0,299.5,236.0,299.0" stroke="black" stroke-width="2" fill="none" />
<polyline points="233.5,298.0,225.5,306.0" stroke="black" stroke-width="2" fill="none" />
<polyline points="225.5,305.5,233.5,305.0" stroke="black" stroke-width="2" fill="none" />
<polyline points="234.5,308.0,226.5,315.5" stroke="black" stroke-width="2" fill="none" />
<polyline points="226.0,314.0,234.5,313.5" stroke="black" stroke-width="2" fill="none" />
<polyline points="235.0,316.0,227.0,324.0" stroke="black" stroke-width="2" fill="none" />
<polyline points="236.0,324.0,228.0,331.5,220.0,338.5" stroke="black" stroke-width="2" fill="none" />
<polyline points="218.0,342.5,226.0,342.0,234.5,341.0" stroke="black" stroke-width="2" fill="none" />
<polyline points="237.0,340.5,229.0,348.0,221.0,356.0" stroke="black" stroke-width="2" fill="none" />
<polyline points="219.0,358.0,227.0,357.5,235.0,356.5" stroke="black" stroke-width="2" fill="none" />
<polyline points="232.5,357.5,240.5,357.5,246.0,358.5,255.0,356.0,263.5,359.0" stroke="black" stroke-width="2" fill="none" />
<polyline points="274.5,361.0,282.0,354.5,290.0,348.0,297.5,341.0,305.5,333.5" stroke="black" stroke-width="2" fill="none" />
<polyline points="307.0,334.5,299.0,335.5,291.0,336.5,283.0,337.5,275.0,338.0" stroke="black" stroke-width="2" fill="none" />
<polyline points="274.5,337.0,282.5,328.5,290.5,320.5,298.0,312.5,305.5,305.0" stroke="black" stroke-width="2" fill="none" />
<polyline points="308.0,298.5,299.5,306.0,292.0,313.0,284.0,320.5,276.0,328.0" stroke="black" stroke-width="2" fill="none" />
<polyline points="275.5,328.5,283.5,328.0,291.5,328.0,299.5,328.0,307.5,327.5" stroke="black" stroke-width="2" fill="none" />
<polyline points="306.5,324.0,299.0,331.5,291.0,339.0,283.0,346.5,274.5,354.0" stroke="black" stroke-width="2" fill="none" />
<polyline points="276.0,353.0,284.0,352.5,292.0,352.0,300.0,351.5,308.5,351.5" stroke="black" stroke-width="2" fill="none" />
<polyline points="306.5,347.0,298.5,355.0,290.5,363.0,283.0,371.5,275.5,379.5" stroke="black" stroke-width="2" fill="none" />
<polyline points="275.0,377.5,283.5,376.5,291.5,376.5,300.0,376.0,308.0,375.5" stroke="black" stroke-width="2" fill="none" />
<polyline points="305.0,373.0,297.0,381.0,289.0,389.0,281.0,396.5,273.5,404.5" stroke="black" stroke-width="2" fill="none" />
<polyline points="275.0,401.0,283.0,401.0,291.0,401.0,299.5,400.5,308.0,400.0" stroke="black" stroke-width="2" fill="none" />
<polyline points="308.0,396.5,300.5,404.0,292.5,411.5,284.5,419.0,276.0,427.0" stroke="black" stroke-width="2" fill="none" />
<polyline points="274.5,433.5,282.5,426.0,291.5,418.5,300.0,411.0,308.0,403.0,316.0,395.5" stroke="black" stroke-width="2" fill="none" />
<polyline points="306.5,389.0,298.5,396.0,290.5,403.5,283.0,410.5,275.0,417.5" stroke="black" stroke-width="2" fill="none" />
<polyline points="274.5,411.5,282.5,404.0,290.5,396.5,298.5,388.5,306.5,381.0" stroke="black" stroke-width="2" fill="none" />
<polyline points="306.0,364.5,298.0,372.0,289.5,379.5,281.5,386.5,273.5,393.5" stroke="black" stroke-width="2" fill="none" />
<polyline points="276.0,394.5,284.0,394.0,292.0,393.5,300.0,393.0,308.5,392.0" stroke="black" stroke-width="2" fill="none" />
<polyline points="307.5,413.5,300.0,420.5,291.5,428.0,283.0,436.0,275.5,443.5" stroke="black" stroke-width="2" fill="none" />
<polyline points="281.5,442.5,289.5,442.0,298.0,440.5,306.5,439.5" stroke="black" stroke-width="2" fill="none" />
<polyline points="309.0,443.5,301.0,451.5,293.0,458.5,285.0,465.5,277.5,472.5" stroke="black" stroke-width="2" fill="none" />
<polyline points="275.0,478.0,283.0,477.5,292.0,476.5,299.5,475.5,307.5,475.0,315.0,474.5,323.5,474.0,332.0,473.0,340.5,472.5,348.5,472.0" stroke="black" stroke-width="2" fill="none" />
<polyline points="315.0,451.5,307.5,459.0,299.5,466.5,291.5,473.5,283.5,481.0,275.0,489.0" stroke="black" stroke-width="2" fill="none" />
<polyline points="277.5,485.0,285.5,485.0,293.0,484.5,301.0,483.5,309.5,482.0,317.0,481.0,325.0,480.5,333.0,480.0,340.5,479.5,349.0,479.0" stroke="black" stroke-width="2" fill="none" />
<polyline points="308.5,496.0,300.0,496.0,292.0,496.0,283.5,496.5" stroke="black" stroke-width="2" fill="none" />
<polyline points="284.5,490.0,292.0,489.0,299.5,488.5,307.5,487.5" stroke="black" stroke-width="2" fill="none" />
<polyline points="308.0,479.5,300.0,480.5,292.0,481.0,284.0,481.5" stroke="black" stroke-width="2" fill="none" />
<polyline points="276.5,480.5,284.0,474.0,291.5,466.5,299.0,459.0,307.0,451.5" stroke="black" stroke-width="2" fill="none" />
<polyline points="309.5,434.5,301.5,442.0,293.0,450.0,284.5,458.0,276.0,466.0" stroke="black" stroke-width="2" fill="none" />
<polyline points="276.0,458.5,284.5,450.5,293.0,442.5,301.0,434.5,309.5,426.5" stroke="black" stroke-width="2" fill="none" />
<polyline points="308.5,419.5,300.5,428.0,292.0,436.0,283.5,444.0,275.5,451.5" stroke="black" stroke-width="2" fill="none" />
<polyline points="284.5,450.5,292.5,450.0,300.5,449.5,308.0,449.0" stroke="black" stroke-width="2" fill="none" />
<polyline points="309.0,471.0,301.5,471.5,294.0,472.0,285.5,472.0" stroke="black" stroke-width="2" fill="none" />
<polyline points="284.0,465.0,292.5,464.5,301.0,463.5,309.5,463.0" stroke="black" stroke-width="2" fill="none" />
<polyline points="309.5,456.0,301.5,456.5,293.5,457.0,285.5,457.5" stroke="black" stroke-width="2" fill="none" />
<polyline points="282.0,433.0,290.0,433.0,298.0,432.0,306.5,431.0" stroke="black" stroke-width="2" fill="none" />
<polyline points="305.5,422.5,298.0,422.5,290.0,422.5,282.5,423.0" stroke="black" stroke-width="2" fill="none" />
<polyline points="284.0,415.5,291.5,415.5,299.5,415.0,307.0,415.0" stroke="black" stroke-width="2" fill="none" />
<polyline points="307.5,408.0,300.0,408.5,292.0,409.5,284.0,410.5" stroke="black" stroke-width="2" fill="none" />
<polyline points="266.5,394.5,274.0,387.0,281.5,379.0,289.5,371.0,297.5,363.5,305.5,355.5" stroke="black" stroke-width="2" fill="none" />
<polyline points="305.5,341.5,298.0,349.5,290.0,357.0,282.5,364.0,275.0,371.0" stroke="black" stroke-width="2" fill="none" />
<polyline points="275.5,370.5,283.5,370.0,291.0,369.5,298.5,368.5,306.5,367.0" stroke="black" stroke-width="2" fill="none" />
<polyline points="307.5,383.0,300.0,384.0,292.0,384.5,283.5,384.5,275.5,384.5" stroke="black" stroke-width="2" fill="none" />
<polyline points="266.5,388.0,259.0,396.0" stroke="black" stroke-width="2" fill="none" />
<polyline points="249.0,385.5,257.0,378.5" stroke="black" stroke-width="2" fill="none" />
<polyline points="276.0,367.0,284.0,366.5,292.0,366.0,300.0,365.5,308.0,364.0,315.5,362.5" stroke="black" stroke-width="2" fill="none" />
<polyline points="308.0,362.0,300.5,362.0,293.0,362.0,285.5,362.5,277.5,363.0" stroke="black" stroke-width="2" fill="none" />
<polyline points="276.0,357.0,284.0,357.0,292.0,356.5,300.0,356.5,308.0,356.0" stroke="black" stroke-width="2" fill="none" />
<polyline points="314.5,347.0,306.5,347.5,299.0,348.0,291.0,348.0,283.0,348.5,275.0,349.0" stroke="black" stroke-width="2" fill="none" />
<polyline points="274.0,346.0,282.0,345.0,289.5,344.5,298.0,344.5,306.5,344.0" stroke="black" stroke-width="2" fill="none" />
<polyline points="311.0,342.0,319.0,343.5,319.5,353.5,327.5,352.5,334.5,351.5,349.5,345.0,358.0,345.5,366.0,345.5,373.5,345.5,383.0,345.5,385.0,350.5,388.5,345.5,396.5,346.5,400.0,346.5" stroke="black" stroke-width="2" fill="none" />
<polyline points="356.5,392.0,347.5,392.0,339.5,392.0,331.5,392.5,324.0,393.5,315.5,394.0,307.5,395.5,299.0,395.5,291.0,396.5,283.0,396.5,276.0,396.5,268.5,396.5,261.0,397.0,253.0,398.0,245.5,398.5,237.5,399.5,229.0,399.5,220.0,400.0,212.5,400.5,204.5,400.5,196.0,401.0,188.0,401.0,180.0,402.0,171.5,402.0,163.0,402.5,155.0,403.0,147.5,403.5,139.5,404.0" stroke="black" stroke-width="2" fill="none" />
<polyline points="140.0,396.0,148.0,396.0,155.5,395.5,163.5,395.0,171.5,394.5,179.5,394.5,187.5,394.0,195.0,394.0,202.5,394.0,210.5,394.0,218.5,393.5,226.5,392.5,235.0,392.0,243.5,391.0,252.0,391.0,260.5,390.0,268.5,389.5,276.5,388.5,284.5,387.5,292.5,387.5,300.5,387.0,308.5,386.5,316.5,386.5,324.0,386.0,332.0,386.0,340.0,386.0,347.5,385.5" stroke="black" stroke-width="2" fill="none" />
<polyline points="315.0,366.5,307.0,367.5,299.5,367.5,292.0,368.0,284.5,368.0,277.5,368.5,269.0,369.0,261.0,369.5,252.0,369.5,243.5,370.0,235.0,370.0,227.0,370.5,218.5,371.5,210.0,372.0,202.5,373.0,195.0,374.0,187.0,374.5" stroke="black" stroke-width="2" fill="none" />
<polyline points="212.0,364.5,220.0,364.5,228.0,364.5,236.0,364.0" stroke="black" stroke-width="2" fill="none" />
<polyline points="229.5,363.0,221.5,371.0" stroke="black" stroke-width="2" fill="none" />
<polyline points="219.0,368.5,227.5,367.5" stroke="black" stroke-width="2" fill="none" />
<polyline points="228.5,371.5,220.5,379.0" stroke="black" stroke-width="2" fill="none" />
<polyline points="219.5,378.5,227.0,378.0" stroke="black" stroke-width="2" fill="none" />
<polyline points="227.5,378.0,219.5,385.5" stroke="black" stroke-width="2" fill="none" />
<polyline points="217.5,386.5,225.0,386.0" stroke="black" stroke-width="2" fill="none" />
<polyline points="229.0,386.0,221.0,393.5" stroke="black" stroke-width="2" fill="none" />
<polyline points="217.0,396.0,225.5,395.0" stroke="black" stroke-width="2" fill="none" />
<polyline points="227.5,396.5,235.0,389.5" stroke="black" stroke-width="2" fill="none" />
<polyline points="221.0,363.0,229.0,356.0" stroke="black" stroke-width="2" fill="none" />
<polyline points="231.5,358.0,239.0,354.0,248.0,346.0,249.0,348.5,256.5,350.0,263.5,351.0" stroke="black" stroke-width="2" fill="none" />
<polyline points="273.5,344.5,281.5,337.0,289.5,330.0,298.0,322.5,306.0,315.0" stroke="black" stroke-width="2" fill="none" />
<polyline points="308.0,290.5,300.0,297.5,292.5,304.5,284.5,312.0,276.5,319.5" stroke="black" stroke-width="2" fill="none" />
<polyline points="276.0,321.0,284.0,320.0,292.0,319.5,300.0,319.0,308.0,319.0" stroke="black" stroke-width="2" fill="none" />
<polyline points="309.5,312.0,301.5,313.0,293.5,314.0,285.5,314.5,277.5,315.0" stroke="black" stroke-width="2" fill="none" />
<polyline points="275.0,312.0,283.0,304.5,291.0,297.0,299.0,290.0,307.0,282.5" stroke="black" stroke-width="2" fill="none" />
<polyline points="306.0,274.0,298.0,281.5,289.5,288.5,281.0,296.5,273.0,305.0" stroke="black" stroke-width="2" fill="none" />
<polyline points="275.0,301.5,283.5,301.5,291.5,300.0,300.0,299.5,307.5,298.5" stroke="black" stroke-width="2" fill="none" />
<polyline points="308.0,304.0,300.0,304.5,292.5,305.0,285.0,306.0,277.5,307.0" stroke="black" stroke-width="2" fill="none" />
<polyline points="268.0,309.0,275.5,308.5,283.5,308.0,291.5,307.5,299.5,306.5,308.0,305.5,316.0,304.5" stroke="black" stroke-width="2" fill="none" />
<polyline points="308.0,296.0,300.0,296.0,292.5,296.5,284.5,296.5,276.5,297.0" stroke="black" stroke-width="2" fill="none" />
<polyline points="276.5,293.5,284.0,293.5,292.0,293.0,299.5,292.5,306.5,291.5" stroke="black" stroke-width="2" fill="none" />
<polyline points="306.5,287.0,298.5,288.0,290.5,288.5,282.0,289.0,274.5,289.0" stroke="black" stroke-width="2" fill="none" />
<polyline points="275.0,292.5,283.0,284.5,291.0,276.5,299.0,269.0,307.0,261.5,314.5,254.0,322.5,246.5,331.0,240.0,339.0,233.5,347.0,226.0,354.5,219.0,363.0,211.5,371.5,204.0,380.0,196.5" stroke="black" stroke-width="2" fill="none" />
<polyline points="385.5,196.5,377.5,204.0,369.5,211.0,362.0,218.0,354.0,225.0,347.0,232.0,338.5,240.0,331.0,247.5,322.5,255.5,314.0,262.5" stroke="black" stroke-width="2" fill="none" />
<polyline points="316.5,267.0,308.5,268.5,300.5,268.5,292.5,269.0,284.5,269.5,276.5,270.0,268.0,271.0" stroke="black" stroke-width="2" fill="none" />
<polyline points="267.0,265.0,274.5,265.0,282.0,265.0,290.0,265.0,298.0,265.0,306.0,264.0,314.5,264.0" stroke="black" stroke-width="2" fill="none" />
<polyline points="307.0,268.5,315.0,264.5,323.0,261.5,331.5,259.5,340.0,257.0,348.0,254.0,356.0,252.0,364.0,248.5,372.0,245.5,380.0,243.0,388.0,240.0,396.0,237.0,404.0,235.0,403.5,240.5,406.5,248.5,400.5,253.0,393.5,253.0,393.0,254.0" stroke="black" stroke-width="2" fill="none" />
<polyline points="394.5,259.0,403.5,254.0" stroke="black" stroke-width="2" fill="none" />
<polyline points="396.5,261.0,406.5,262.0,403.5,271.0,406.5,276.0,406.5,283.5,406.0,290.0,405.5,298.0,404.5,306.0,404.0,313.5,400.5,321.5,403.5,328.5,403.5,336.5,399.5,340.5,404.0,350.0,402.0,358.0,403.5,366.0,404.0,374.0,404.0,382.0,405.0,390.0,405.5,398.0,405.5,405.5,405.5,413.5,404.0,421.5,403.5,429.5,403.0,437.5,402.0,445.5,403.0,453.5" stroke="black" stroke-width="2" fill="none" />
<polyline points="388.0,458.5,380.0,459.0,372.0,460.0,364.0,461.0,355.5,461.5,347.0,463.0,338.5,463.0,330.0,463.5,321.5,463.5,314.0,464.0,306.0,465.0,298.0,465.5,289.5,466.5,281.5,467.5,273.0,468.5,265.0,469.5,258.0,470.0,250.5,470.5,243.0,471.0,235.5,471.5,227.5,472.0" stroke="black" stroke-width="2" fill="none" />
<polyline points="212.5,486.0,204.5,486.5,196.0,487.0" stroke="black" stroke-width="2" fill="none" />
<polyline points="187.0,471.0,195.0,470.5,203.0,470.0" stroke="black" stroke-width="2" fill="none" />
<polyline points="155.0,462.5,162.5,462.0,170.0,461.5,178.0,461.5,185.5,461.0,193.5,460.0,201.5,459.5,210.0,459.0,218.0,457.5,225.5,457.0,233.5,456.5,241.5,456.0,250.0,456.0,258.5,455.5,266.5,455.5,274.5,454.5,282.5,454.0,290.5,453.0,298.5,452.0,307.0,451.0,315.5,450.5,323.5,450.0,331.5,450.0,339.5,450.0,347.5,449.5,355.0,449.5,363.5,449.0,372.0,448.0,380.5,447.5,388.5,447.0,396.5,447.0,404.0,446.0,411.5,445.5,419.5,444.5,427.5,443.5,436.0,443.0" stroke="black" stroke-width="2" fill="none" />
<polyline points="438.0,425.0,430.5,425.5,422.0,425.5,414.0,426.0,405.0,427.0,396.5,428.0,388.0,429.0,380.0,429.5,371.5,430.0,364.0,431.0,356.0,431.5,347.5,431.5,339.5,431.5,331.5,432.0,324.0,433.0,316.0,433.5,308.0,434.0,299.5,434.5,291.0,435.5,282.5,436.0,274.5,437.0,266.5,437.5,258.5,438.0" stroke="black" stroke-width="2" fill="none" />
<polyline points="259.0,429.5,266.5,429.0,274.5,428.5,282.0,428.5,290.0,427.5,298.5,426.5,306.5,427.0,314.5,426.5,323.0,426.0,331.0,425.0,339.0,424.5,347.5,423.5,355.5,423.5,364.0,423.0,372.0,422.5,379.5,422.0,387.5,421.0,395.0,420.5" stroke="black" stroke-width="2" fill="none" />
<polyline points="373.5,404.5,365.0,405.0,356.5,405.5,348.0,406.5,340.5,406.5,332.5,407.0,324.0,407.5,316.0,407.5,307.5,408.0,299.0,409.0,290.5,410.0,282.0,411.0,274.5,411.5,266.5,412.5,259.0,413.0,251.0,413.0,243.0,413.5,235.0,414.0,227.0,414.5,219.0,415.5,212.0,416.5,204.0,417.5,195.5,418.5,187.5,419.0,179.5,419.5,172.0,419.5,164.0,419.5,156.0,419.5,148.0,419.5,140.0,420.0,132.0,420.0,124.5,420.5,116.5,420.0,108.0,420.5" stroke="black" stroke-width="2" fill="none" />
<polyline points="106.0,412.0,114.0,412.0,122.0,412.0,130.5,412.0,138.5,412.0,146.5,411.5,155.0,411.5,163.5,411.0,172.0,410.5,180.5,410.0,189.0,409.5,196.5,409.0,204.5,408.0,212.5,407.5,220.0,406.5,228.0,406.0,235.5,405.5,243.5,405.0,251.5,404.5,260.0,403.5,268.0,403.0,275.5,402.5,283.5,402.0,291.5,401.5,299.5,400.5,308.0,399.5,316.0,398.5,324.0,398.0,332.0,397.5,340.5,397.5,348.5,397.5,356.5,397.0,364.0,396.0" stroke="black" stroke-width="2" fill="none" />
<polyline points="341.5,378.0,333.5,379.0,325.5,380.0,317.5,380.5,309.5,381.0,302.0,381.0,294.0,382.5,286.0,383.0,277.5,383.5,269.0,384.0,261.0,384.0,252.5,385.0,244.5,385.5,236.0,386.0,228.0,386.5,220.0,387.0,211.5,387.5,203.5,387.5,195.5,387.5,188.0,388.0,180.0,388.5,172.5,389.0,164.5,389.0,156.5,389.5,149.0,390.0" stroke="black" stroke-width="2" fill="none" />
<polyline points="148.0,381.5,155.5,380.5,163.0,380.0,171.5,379.5,180.0,379.5,188.5,379.0,196.5,379.0,204.5,379.0,212.5,378.5,220.5,378.0,228.5,377.5,236.5,377.0,245.0,377.0,253.5,376.5,261.5,376.5,269.5,376.0,277.5,375.0,285.5,374.5,293.5,373.5,301.5,373.0,309.5,373.0,317.0,372.0" stroke="black" stroke-width="2" fill="none" />
<polyline points="324.0,340.5,319.5,340.0,312.0,331.0,310.0,340.0" stroke="black" stroke-width="2" fill="none" />
<polyline points="316.5,337.0,308.5,337.5,300.5,338.5,292.5,339.0,284.5,339.5,277.0,340.0,269.0,340.0" stroke="black" stroke-width="2" fill="none" />
<polyline points="267.5,333.5,275.5,333.0,284.0,332.0,292.5,331.0,301.0,330.5,309.5,330.0,317.5,329.0" stroke="black" stroke-width="2" fill="none" />
<polyline points="317.0,322.5,309.0,323.0,300.5,323.5,292.0,323.0,283.5,323.5,275.5,324.5,267.5,325.0" stroke="black" stroke-width="2" fill="none" />
<polyline points="266.5,318.5,274.5,317.5,282.0,317.0,290.5,316.0,299.0,315.0,307.5,314.0,316.0,313.5" stroke="black" stroke-width="2" fill="none" />
<polyline points="317.0,282.0,309.0,282.5,301.0,283.0,293.0,284.0,285.0,285.0,276.5,285.5,268.5,286.0" stroke="black" stroke-width="2" fill="none" />
<polyline points="273.5,283.5,281.0,276.0,289.0,268.5,297.0,261.0,305.0,254.0,313.0,247.0,321.5,240.0,329.5,233.5,338.5,226.0,347.5,219.0,356.5,212.0,365.0,205.0,373.0,198.0" stroke="black" stroke-width="2" fill="none" />
<polyline points="362.5,196.5,354.5,204.0,346.5,212.0,339.0,219.5,331.5,226.5,323.5,234.0,315.0,241.5,306.0,249.0,297.5,256.5,289.5,264.0,281.0,272.0,273.5,279.0" stroke="black" stroke-width="2" fill="none" />
<polyline points="274.0,277.5,282.0,276.5,290.0,276.0,298.5,275.5,306.5,274.5" stroke="black" stroke-width="2" fill="none" />
<polyline points="307.5,278.0,299.5,279.0,291.0,280.0,282.5,281.0,274.0,281.5" stroke="black" stroke-width="2" fill="none" />
<polyline points="274.0,272.5,282.0,265.5,290.0,257.5,298.0,250.0,306.5,242.0,314.5,234.5,322.5,227.0,330.5,219.5,338.5,212.0,347.0,204.5,355.0,197.0" stroke="black" stroke-width="2" fill="none" />
<polyline points="348.0,196.0,340.0,204.0,332.5,211.5,324.5,219.0,316.0,226.5,308.0,233.5,300.0,241.0,292.5,248.5,284.0,255.5,275.5,263.0" stroke="black" stroke-width="2" fill="none" />
<polyline points="268.5,261.5,277.0,254.0,285.0,246.5,293.5,239.0,302.0,231.5,310.0,224.5,317.5,217.0,326.0,210.0,334.5,203.0,342.5,195.0" stroke="black" stroke-width="2" fill="none" />
<polyline points="331.5,195.0,323.5,202.5,315.5,210.5,308.0,217.5,301.0,225.0,293.5,232.5,285.5,240.0,277.0,247.5,269.5,255.0,261.5,262.5" stroke="black" stroke-width="2" fill="none" />
<polyline points="267.0,258.0,274.5,257.0,283.0,256.0,291.0,255.5,299.5,255.0,307.5,254.5,316.0,254.5" stroke="black" stroke-width="2" fill="none" />
<polyline points="307.0,270.5,298.5,270.5,290.5,270.5,282.0,271.0,274.0,272.0" stroke="black" stroke-width="2" fill="none" />
<polyline points="253.5,265.0,261.0,257.0,268.5,249.0,275.0,241.5,282.5,234.0,290.5,226.0,298.5,218.5,306.5,210.5,314.5,203.0,323.0,195.5" stroke="black" stroke-width="2" fill="none" />
<polyline points="315.0,196.5,307.0,203.5,299.5,210.5,292.0,218.0,284.0,225.5,276.5,233.0,268.0,240.5,259.5,248.0,251.5,255.5,244.0,263.0" stroke="black" stroke-width="2" fill="none" />
<polyline points="238.5,263.5,237.5,271.5,237.5,279.5,236.5,287.0,235.5,294.5,234.5,302.0,233.5,310.0,232.5,318.5,232.0,326.5,232.0,334.5,230.5,342.5,230.0,350.5,229.0,358.5,228.0,367.0,226.5,375.0,225.0,383.5,225.0,391.5" stroke="black" stroke-width="2" fill="none" />
<polyline points="243.0,420.0,235.0,420.5,227.0,421.0,219.5,421.5,211.5,422.0,203.5,423.0,196.0,423.5,187.5,424.0,179.5,424.5,171.0,425.0,162.5,425.5,154.5,426.0,147.0,426.5,139.0,426.5,131.0,426.5,123.0,426.5,115.0,426.5,107.0,427.5,99.5,428.0,91.5,428.5,83.5,429.0,75.5,429.5" stroke="black" stroke-width="2" fill="none" />
<polyline points="83.5,427.0,91.5,419.5" stroke="black" stroke-width="2" fill="none" />
<polyline points="92.0,426.5,84.0,434.0" stroke="black" stroke-width="2" fill="none" />
<polyline points="92.0,434.0,83.5,442.0,75.5,449.5" stroke="black" stroke-width="2" fill="none" />
<polyline points="76.5,453.5,84.5,453.0,92.5,452.5,100.5,452.0,108.0,451.5" stroke="black" stroke-width="2" fill="none" />
<polyline points="116.0,447.0,124.0,446.0" stroke="black" stroke-width="2" fill="none" />
<polyline points="133.0,454.5,141.0,454.0,149.0,453.0,157.0,452.5,164.0,452.0,171.5,451.5,179.0,451.5,186.0,451.0,193.5,450.5,201.0,450.0,209.5,449.5,217.0,449.0,225.5,449.0,234.0,449.0,243.0,448.0,251.5,447.5,259.5,446.5,267.5,445.5,275.0,445.0,282.5,444.0,290.0,443.5,298.5,443.0,307.0,442.0,315.5,441.0,323.5,440.0,331.0,440.0,339.0,439.0,346.5,438.5,354.0,438.0,362.5,436.5,370.5,436.0,378.0,435.5,386.0,435.5,393.5,435.5,401.0,435.5,409.0,435.5,417.0,434.5,425.5,433.5,433.5,432.5,441.5,432.0" stroke="black" stroke-width="2" fill="none" />
<polyline points="436.5,422.5,429.0,423.0,421.0,423.0,413.5,423.5,405.0,424.0,396.5,424.5,388.0,425.5,380.5,425.5,372.5,426.0,364.0,426.5,356.0,426.5,347.5,427.0,339.0,428.0,330.5,429.0,322.0,430.0,314.5,430.5,306.5,431.5,299.0,432.0,291.0,432.0,283.0,432.5,275.0,433.0,267.0,433.5,259.0,434.5,252.0,435.5,244.0,436.5,235.5,437.5,227.5,438.0,219.5,438.5,212.0,438.5,204.0,438.5,196.0,438.5,188.0,438.5,180.0,439.0,172.0,439.0,164.5,439.5,156.5,439.0,148.0,439.5,140.0,440.0,132.0,441.0,124.0,441.5,116.5,442.5,109.0,443.0,100.5,444.0,92.0,445.0,84.0,445.5,76.0,446.5,68.5,447.0" stroke="black" stroke-width="2" fill="none" />
<polyline points="84.0,451.5,92.0,444.0" stroke="black" stroke-width="2" fill="none" />
<polyline points="93.0,452.0,85.0,459.5" stroke="black" stroke-width="2" fill="none" />
<polyline points="52.5,438.5,60.5,438.0,68.0,437.0,76.0,436.0,84.5,435.0,92.5,434.0,100.5,433.5,108.0,433.0,116.0,432.5,123.5,432.0,131.5,431.5,139.5,430.5,148.0,430.5,156.0,430.0,164.0,429.5,172.0,429.5,180.0,429.0,187.5,429.0,195.5,428.5,203.5,428.5,211.5,427.5,219.5,427.0,227.0,427.0,234.5,426.5" stroke="black" stroke-width="2" fill="none" />
<polyline points="188.5,407.0,181.0,408.0" stroke="black" stroke-width="2" fill="none" />
<polyline points="179.5,373.5,171.0,374.0,162.5,374.5,154.5,375.0" stroke="black" stroke-width="2" fill="none" />
<polyline points="158.0,359.5,166.0,354.5,169.5,359.0" stroke="black" stroke-width="2" fill="none" />
<polyline points="167.0,350.5,170.0,348.5,178.0,348.0,185.5,348.0" stroke="black" stroke-width="2" fill="none" />
<polyline points="179.0,338.5,187.0,338.5,194.5,338.5,202.0,335.5" stroke="black" stroke-width="2" fill="none" />
<polyline points="189.0,334.5,181.5,335.5,174.0,336.0,166.5,336.5,158.5,337.5,150.0,338.0,141.0,338.5,132.5,339.0,124.5,339.0,116.5,339.5,108.0,339.5,100.0,340.5,92.0,341.0,84.0,341.0,76.5,341.0" stroke="black" stroke-width="2" fill="none" />
<polyline points="85.5,347.5,93.5,347.0,101.0,347.0" stroke="black" stroke-width="2" fill="none" />
<polyline points="93.5,346.0,101.5,338.5" stroke="black" stroke-width="2" fill="none" />
<polyline points="95.5,337.0,103.5,337.0,109.5,340.0,117.5,338.0,123.0,343.5,125.0,338.5,132.0,331.5,138.0,336.5" stroke="black" stroke-width="2" fill="none" />
<polyline points="136.5,343.5,136.0,340.0,144.0,340.5,152.0,341.0,160.5,341.0,170.5,338.0,178.5,338.0,186.5,335.5" stroke="black" stroke-width="2" fill="none" />
<polyline points="192.5,322.0,190.5,329.5,182.5,329.5,193.5,326.0,192.5,322.5,200.5,329.5" stroke="black" stroke-width="2" fill="none" />
<polyline points="218.0,317.5,226.0,317.5,234.0,317.0" stroke="black" stroke-width="2" fill="none" />
<polyline points="235.0,309.0,227.5,309.5,220.0,310.5" stroke="black" stroke-width="2" fill="none" />
<polyline points="227.0,302.5,235.0,302.0" stroke="black" stroke-width="2" fill="none" />
<polyline points="236.5,316.0,229.0,316.5,220.5,317.0,212.0,317.5,203.5,318.0,195.0,318.5,186.5,318.5,178.5,319.0,170.5,319.0,162.0,319.0,154.0,319.0,146.0,319.0,138.5,320.0,130.5,321.0,123.0,321.5,115.0,322.0,107.0,322.5,99.5,323.0,92.0,323.5,84.0,323.5,76.0,324.0,68.0,324.5" stroke="black" stroke-width="2" fill="none" />
<polyline points="62.0,334.5,70.0,334.5,77.5,333.5,85.0,332.5,92.5,331.5,100.0,330.0,108.0,329.5,116.0,329.0,124.0,328.5,132.5,328.5,140.5,328.0,148.5,327.0,156.0,326.0,163.5,326.0,171.5,325.5,179.5,325.5,187.5,325.0,195.0,324.5,202.5,324.0,211.0,323.5,219.0,323.0,226.5,322.0,235.0,322.0,243.0,321.5" stroke="black" stroke-width="2" fill="none" />
<polyline points="245.5,312.5,243.5,308.5,246.5,320.5,237.5,330.0,236.0,335.0,237.0,334.0,238.5,342.0,239.5,339.0,247.5,340.0,255.0,339.5,261.0,339.5,266.0,340.0" stroke="black" stroke-width="2" fill="none" />
<polyline points="238.0,331.0,230.0,338.0,221.5,345.0" stroke="black" stroke-width="2" fill="none" />
<polyline points="219.5,349.5,227.5,349.0,235.0,348.5" stroke="black" stroke-width="2" fill="none" />
<polyline points="220.5,352.0,219.5,360.0,218.5,367.5,217.0,375.5,216.0,383.5,214.5,391.5,219.5,395.0" stroke="black" stroke-width="2" fill="none" />
<polyline points="194.5,316.5,186.5,316.5,178.5,317.0" stroke="black" stroke-width="2" fill="none" />
<polyline points="165.0,308.5,157.0,308.5,149.5,309.0,141.5,309.0,133.5,309.5" stroke="black" stroke-width="2" fill="none" />
<polyline points="139.0,298.0,147.0,291.0" stroke="black" stroke-width="2" fill="none" />
<polyline points="149.5,298.0,157.5,290.5,166.0,283.0" stroke="black" stroke-width="2" fill="none" />
<polyline points="140.5,284.5,149.0,284.0,157.0,284.0,164.5,284.0,172.0,283.5,179.5,283.5,187.5,283.5,195.0,283.0" stroke="black" stroke-width="2" fill="none" />
<polyline points="203.5,294.5,211.5,301.0,208.0,309.0,207.5,310.0,214.5,305.5" stroke="black" stroke-width="2" fill="none" />
<polyline points="209.0,295.5,214.0,289.5,216.0,297.5,216.0,305.5,214.5,313.0,202.5,323.0,197.5,335.0,196.5,341.0,207.5,338.0,215.5,332.0" stroke="black" stroke-width="2" fill="none" />
<polyline points="199.0,308.0,199.5,303.5" stroke="black" stroke-width="2" fill="none" />
<polyline points="203.5,269.5,211.5,269.0,219.0,269.0,226.5,268.5,234.0,268.5,241.5,268.0" stroke="black" stroke-width="2" fill="none" />
<polyline points="237.0,264.0,245.0,264.5,253.5,266.0,262.0,267.0,270.0,269.0,270.0,276.0,270.0,284.0,263.0,286.0,270.0,291.0,271.0,299.0,271.5,307.0,268.5,315.0,271.5,323.0,272.5,331.0,270.5,338.5,271.0,351.0,271.5,359.0,272.5,367.0,272.0,375.5,271.5,383.5,272.5,391.5,272.5,399.5,272.5,407.5,273.0,415.0,273.0,423.0,274.5,431.0,275.0,439.0,275.0,447.0,276.0,455.0,277.5,463.0,277.5,470.5,277.5,478.5,277.0,486.5,276.5,494.5,277.0,502.5,277.0,510.5,277.0,518.5,277.0,527.0,278.0,535.0,278.5,543.5,279.0,551.5,282.5,561.0,290.5,564.5,298.0,568.5,306.0,562.5" stroke="black" stroke-width="2" fill="none" />
<polyline points="277.5,558.0,269.5,552.0" stroke="black" stroke-width="2" fill="none" />
<polyline points="270.0,550.5,277.5,558.5,291.5,566.0" stroke="black" stroke-width="2" fill="none" />
<polyline points="268.0,548.5,276.0,548.0,283.5,548.0,291.5,547.0,299.0,546.0,307.0,545.5,315.0,545.0,323.0,545.0,331.5,544.5,340.0,544.5" stroke="black" stroke-width="2" fill="none" />
<polyline points="363.5,527.5,355.5,527.5,347.5,528.0,339.0,528.5,331.0,528.5,322.5,529.0,314.5,529.0,307.0,529.5,299.5,530.0,292.0,530.5,284.5,532.0,276.5,532.5" stroke="black" stroke-width="2" fill="none" />
<polyline points="275.5,525.0,284.0,524.0,292.5,523.5,300.5,523.5,309.0,523.5,316.5,523.5,325.0,523.0,333.0,522.0,341.0,521.5,349.5,520.0,357.5,519.5,365.5,519.0,372.5,519.0" stroke="black" stroke-width="2" fill="none" />
<polyline points="341.5,513.5,333.0,514.0,325.0,515.0,316.5,515.0,308.5,515.5,301.0,516.5,293.0,517.0,285.0,517.5,277.5,518.0" stroke="black" stroke-width="2" fill="none" />
<polyline points="276.5,508.0,285.0,507.5,292.5,507.0,300.5,507.0,308.5,507.0,316.5,507.0,324.5,506.5,332.5,506.0" stroke="black" stroke-width="2" fill="none" />
<polyline points="340.0,497.5,332.0,498.0,324.5,498.5,317.0,499.0,309.0,499.0,301.5,499.5,293.0,500.0,284.5,500.5,276.0,501.5" stroke="black" stroke-width="2" fill="none" />
<polyline points="268.5,533.0,261.5,533.5,253.0,534.0" stroke="black" stroke-width="2" fill="none" />
<polyline points="258.5,525.5,250.0,526.0,241.5,526.5" stroke="black" stroke-width="2" fill="none" />
<polyline points="236.0,517.5,243.5,517.0,251.0,516.0" stroke="black" stroke-width="2" fill="none" />
<polyline points="267.0,542.0,275.0,541.5,283.0,541.0,291.5,540.5,300.0,540.0,308.0,539.0,315.5,538.0,323.5,537.0,331.5,536.5,340.0,536.0,348.5,535.5,356.5,535.0" stroke="black" stroke-width="2" fill="none" />
<polyline points="403.5,465.5,394.0,457.0,384.0,449.5" stroke="black" stroke-width="2" fill="none" />
<polyline points="372.0,428.5,364.0,426.5" stroke="black" stroke-width="2" fill="none" />
<polyline points="470.0,357.5,477.5,358.5,487.0,359.0,496.5,357.0" stroke="black" stroke-width="2" fill="none" />
<polyline points="508.0,361.0,503.5,353.0,511.5,343.5,511.5,336.0,511.5,329.0,505.5,325.5,512.0,321.0,512.0,320.5,512.5,312.5,513.0,305.0,508.5,302.0,510.0,297.5,514.0,289.5,514.0,281.5,512.5,273.5,510.0,260.5,512.5,253.0,512.0,245.0,512.0,238.0,511.5,230.0,511.5,221.5,511.5,213.0,504.5,202.0,511.5,198.0,512.0,190.0,508.0,182.0,512.5,177.0,512.5,169.5,510.0,162.0,513.5,154.5,512.5,146.5,513.5,138.5,513.5,130.5,509.0,126.5,514.0,118.5,513.5,110.0,514.0,102.0,514.0,93.5,514.0,85.0,514.0,76.5,514.0,68.5,514.5,60.5,514.5,52.5,514.5,44.5,514.0,37.0,514.0,29.0,513.0,21.0,512.5,13.0,512.5,5.0,505.0,3.0,497.0,3.0,489.0,2.5,480.5,2.5,473.0,2.0,465.5,2.5,457.5,2.5,449.5,2.5,442.0,3.0,434.0,3.0,426.0,3.5,418.0,3.5,409.5,4.0,401.5,4.0,393.5,4.0,385.5,4.0,377.5,4.0,370.0,4.0,362.0,4.0,354.0,4.0,346.0,4.0,338.0,3.5,330.5,2.5,322.5,2.5,314.5,2.5,306.5,3.0,298.5,3.0,291.0,3.0,283.0,3.0,275.0,3.0,267.0,3.0,259.0,3.0,250.5,3.0,242.5,3.0,234.5,3.0,226.5,3.0,218.5,2.5,210.5,2.5,202.0,2.5,193.5,2.5,185.5,3.0,177.5,3.5,169.5,3.5,161.5,3.5,154.0,3.5,146.0,3.5,138.0,3.5,129.5,3.5,122.0,3.5,114.0,3.5,106.5,4.0,98.5,4.5,90.0,4.5,82.0,4.5,74.0,4.5,66.5,4.5,58.5,4.0,50.5,3.5,42.5,3.5,34.5,3.5,26.5,3.0,18.5,3.0,10.5,2.5,2.5,2.5" stroke="black" stroke-width="2" fill="none" />
<polyline points="20.0,84.0,28.0,89.0" stroke="black" stroke-width="2" fill="none" />
<polyline points="102.0,83.5,110.0,84.5,122.5,88.5" stroke="black" stroke-width="2" fill="none" />
<polyline points="195.5,90.0,203.5,90.0" stroke="black" stroke-width="2" fill="none" />
<polyline points="198.5,109.5,206.5,102.5,199.0,110.5,208.0,112.0,203.5,123.5,204.5,131.0,204.5,139.0" stroke="black" stroke-width="2" fill="none" />
<polyline points="220.0,137.5,208.5,135.5,212.5,128.5,204.5,119.5" stroke="black" stroke-width="2" fill="none" />
<polyline points="231.5,108.0,233.5,105.5,232.0,113.5,240.0,108.5,249.5,101.0,252.5,95.0" stroke="black" stroke-width="2" fill="none" />
<polyline points="250.0,101.5,247.0,109.0,249.5,117.0,241.5,125.0,238.5,133.5,238.5,139.0,240.5,150.0,244.5,163.5" stroke="black" stroke-width="2" fill="none" />
<polyline points="235.5,179.5,227.5,187.0,219.5,195.0,211.5,202.5,202.5,210.0,194.5,217.0,186.5,225.0,178.5,232.5,170.5,240.0,162.5,247.0" stroke="black" stroke-width="2" fill="none" />
<polyline points="164.0,250.5,172.0,250.0,180.0,249.5,188.0,249.0,196.0,248.0,204.0,247.5,211.5,246.5" stroke="black" stroke-width="2" fill="none" />
<polyline points="219.0,256.0,227.0,248.5,235.0,241.0,243.0,233.0,251.0,225.5,259.0,218.0,267.0,210.0,274.5,202.5,282.0,195.5,289.5,188.0" stroke="black" stroke-width="2" fill="none" />
<polyline points="282.0,185.0,274.0,193.0,266.0,200.5,258.0,208.5,250.0,216.0,242.0,224.0,234.0,232.0,226.0,240.0,218.0,248.0,210.0,256.0" stroke="black" stroke-width="2" fill="none" />
<polyline points="202.5,254.5,210.5,247.5,218.5,240.5,227.0,233.0,235.0,225.0,243.0,217.5,251.5,209.5,259.5,202.0,267.0,194.5,275.0,187.0" stroke="black" stroke-width="2" fill="none" />
<polyline points="266.5,187.0,258.5,194.5,251.0,202.5,243.0,210.0,235.5,217.0,227.5,224.5,220.0,232.5,212.0,241.0,204.5,249.0,196.5,257.5" stroke="black" stroke-width="2" fill="none" />
<polyline points="195.0,248.0,203.0,241.0,210.5,233.5,218.0,226.0,226.5,218.0,234.5,210.5,242.5,202.5,250.0,195.0,257.5,187.5" stroke="black" stroke-width="2" fill="none" />
<polyline points="235.0,189.5,226.5,197.0,218.5,204.5,210.0,212.0,202.0,219.0,193.5,226.0,185.5,233.5,177.0,241.0,169.0,248.5" stroke="black" stroke-width="2" fill="none" />
<polyline points="178.5,253.0,186.5,253.0,194.5,252.5,202.5,252.0,210.0,252.0,218.0,252.0,225.5,251.5,233.5,250.5,242.0,249.5,250.0,249.0,259.0,248.5,267.0,248.5,275.0,248.0,283.5,247.5,292.5,246.5,300.5,246.0,309.0,245.5,317.0,245.5,324.5,245.0,332.0,243.5,340.0,243.0,348.0,243.0,356.0,242.5" stroke="black" stroke-width="2" fill="none" />
<polyline points="363.0,248.0,371.0,240.5,379.0,233.0,387.5,226.0,396.0,218.5,403.5,211.0,411.5,203.5,419.5,196.5" stroke="black" stroke-width="2" fill="none" />
<polyline points="410.0,196.5,402.0,204.5,394.0,212.0,385.5,219.5,377.5,227.0,369.0,234.0,361.5,241.5,354.0,248.5" stroke="black" stroke-width="2" fill="none" />
<polyline points="350.5,257.5,357.5,265.5,352.0,273.0,346.5,276.0,346.5,276.0,354.0,271.0,355.0,280.5,359.0,286.5" stroke="black" stroke-width="2" fill="none" />
<polyline points="368.0,287.5,374.0,290.5,367.0,298.0,371.5,291.5,381.5,282.5,393.0,278.5,402.0,271.5,405.0,258.0" stroke="black" stroke-width="2" fill="none" />
<polyline points="402.5,266.0,392.5,271.0,384.5,274.0" stroke="black" stroke-width="2" fill="none" />
<polyline points="378.5,255.0,370.5,264.0,364.5,266.0,369.5,264.5,375.5,259.5,372.5,256.5,364.5,257.0" stroke="black" stroke-width="2" fill="none" />
<polyline points="350.5,263.0,358.5,264.5,366.5,261.5,363.0,266.5,354.5,280.0" stroke="black" stroke-width="2" fill="none" />
<polyline points="345.5,297.0,356.5,300.0,356.0,307.5,355.0,312.5,352.0,325.5,342.0,333.5,325.5,340.0,333.5,339.0,335.5,337.0,341.5,334.5,342.5,338.5,350.5,339.5,356.0,336.0,364.0,340.0,371.5,340.5,379.5,340.5,387.5,340.5,396.0,337.0,398.0,332.0" stroke="black" stroke-width="2" fill="none" />
<polyline points="445.5,300.0,453.5,298.0,457.0,292.0" stroke="black" stroke-width="2" fill="none" />
<polyline points="457.0,292.5,465.0,285.5,453.0,285.5" stroke="black" stroke-width="2" fill="none" />
<polyline points="458.5,309.0,456.0,318.5,445.5,326.5,443.0,335.0,445.5,329.5,451.5,320.5,457.5,313.0" stroke="black" stroke-width="2" fill="none" />
<polyline points="464.5,309.0,455.5,311.0,459.0,319.5,467.0,322.5,465.5,331.5,477.5,340.5,485.5,340.5,494.0,341.0,498.5,351.0,506.5,350.0,513.5,351.5,513.5,360.0,513.5,368.0,513.5,375.5,513.5,383.5,513.5,391.5,513.0,399.0,512.5,407.0,512.0,415.5,512.0,423.5,512.0,431.5,512.5,439.5,512.5,447.5,512.5,455.5,512.5,463.5,512.5,471.5,512.0,479.0,512.5,487.0,512.5,495.0,512.5,503.5,513.0,511.5,513.0,519.5,513.0,527.0,512.5,534.5,512.5,542.5,513.0,550.5,513.0,558.5,513.0,566.0,513.0,574.0,513.5,582.5,513.0,590.5,513.5,598.5,513.5,606.5,513.5,615.0,514.0,623.0,514.0,631.0,513.5,639.5,514.0,647.5,513.5,655.5,513.5,664.0,513.5,672.0,513.5,680.0" stroke="black" stroke-width="2" fill="none" />
<polyline points="425.0,463.5,427.0,455.0,427.0,447.0,428.0,439.0,428.5,431.0,428.5,423.5,429.0,415.5,429.5,408.0,429.5,400.0,430.5,392.0,431.0,384.0,430.5,376.0,431.5,367.5,431.5,360.0,431.5,352.5,431.5,344.5,432.0,336.5,432.0,328.5,433.0,320.5,433.5,312.5,433.5,304.5,435.0,296.5,435.0,288.5,435.0,280.5,436.0,272.0,435.5,263.5,435.5,255.5,436.5,247.5,436.5,239.5,436.5,231.5,436.5,223.5,437.5,216.0,438.0,208.0,435.5,199.5,436.5,194.0,428.5,194.0,420.0,199.0,420.0,192.0,427.5,186.5,423.0,191.5,415.0,192.5,406.5,193.0,398.5,193.0,390.5,191.5,382.0,190.0,385.5,182.0,383.5,184.5,375.0,191.5,367.5,191.5,367.5,185.5,371.5,184.5,364.0,178.0,363.0,181.0" stroke="black" stroke-width="2" fill="none" />
<polyline points="356.0,178.0,348.0,178.5,340.0,179.0,332.0,180.0,323.5,180.5,315.5,181.0,307.0,181.5,299.0,182.0,290.5,182.0,283.0,182.5,275.0,183.0,267.5,184.0,260.0,184.5,251.5,185.0,242.5,185.0,234.0,185.5,226.5,186.0,218.5,186.5,210.0,187.5,202.0,188.5,194.0,189.0,185.5,189.0,177.5,189.5" stroke="black" stroke-width="2" fill="none" />
<polyline points="171.5,194.0,163.5,201.5,155.5,209.0,147.5,217.0,140.0,224.5,132.0,232.0,123.5,240.0" stroke="black" stroke-width="2" fill="none" />
<polyline points="125.0,233.0,133.0,232.5,140.5,232.5,148.5,232.0,156.5,232.0,164.0,232.0,172.0,231.5,179.5,231.0,187.0,230.5,194.5,230.0,202.0,229.5,210.0,229.0,218.5,228.0,226.5,227.0,234.5,226.0,243.0,225.0,251.5,224.5,260.0,224.0,268.5,223.5,276.5,222.5,285.0,222.0,293.0,222.0" stroke="black" stroke-width="2" fill="none" />
<polyline points="293.5,235.5,293.5,233.5,301.5,232.5,309.5,231.0,317.5,228.5" stroke="black" stroke-width="2" fill="none" />
<polyline points="316.0,233.5,324.5,233.0,332.5,232.0,341.0,231.5,349.0,231.5" stroke="black" stroke-width="2" fill="none" />
<polyline points="317.5,246.5,309.0,247.0,300.5,247.0,292.0,247.0,283.5,248.0,274.5,248.5,266.0,249.0,257.5,249.5,249.0,250.0,241.0,250.5" stroke="black" stroke-width="2" fill="none" />
<polyline points="242.5,256.5,234.5,257.0" stroke="black" stroke-width="2" fill="none" />
<polyline points="228.0,255.5,235.5,248.5,243.0,241.5,251.0,234.0,259.0,226.5,267.0,219.0,274.5,212.0,282.5,204.5,290.5,197.0,299.0,189.5" stroke="black" stroke-width="2" fill="none" />
<polyline points="282.5,189.0,275.0,190.0,267.0,190.5,258.5,191.0,250.0,191.0,242.5,191.5,235.0,191.5,227.0,192.0,218.5,192.0,211.0,193.0" stroke="black" stroke-width="2" fill="none" />
<polyline points="212.0,189.5,204.0,196.5,196.0,203.5,187.5,211.0,178.5,218.0,171.0,225.5,162.5,232.5,154.5,239.0,146.5,246.0" stroke="black" stroke-width="2" fill="none" />
<polyline points="146.5,241.0,155.0,233.5,163.5,226.0,171.5,218.0,179.5,210.5,187.5,202.5,196.0,194.5,204.0,187.0" stroke="black" stroke-width="2" fill="none" />
<polyline points="219.5,188.5,212.0,196.0,204.0,203.5,196.0,210.5,188.0,217.5,180.0,225.5,172.0,232.0,164.0,239.0,156.0,246.0" stroke="black" stroke-width="2" fill="none" />
<polyline points="143.0,252.5,144.0,255.5" stroke="black" stroke-width="2" fill="none" />
<polyline points="114.0,239.0,122.5,231.5,131.5,224.0,140.0,216.5,148.0,209.0,156.5,202.0,164.5,194.5" stroke="black" stroke-width="2" fill="none" />
<polyline points="173.5,202.0,181.0,201.5,188.5,200.5,196.5,200.0,204.5,199.5,212.0,199.0,220.0,199.0,227.5,199.5,235.5,199.5,243.5,199.5,251.5,199.0,259.5,198.5,267.0,198.0,274.5,197.5,282.0,197.0,289.0,196.5,297.0,195.5,305.5,194.5,313.5,193.5,322.0,192.5,330.0,192.0,338.0,191.0,345.5,190.5,354.0,190.5,362.5,190.0,371.0,190.0,379.5,188.5,388.0,188.0,396.0,187.0,404.0,186.0" stroke="black" stroke-width="2" fill="none" />
<polyline points="412.5,195.0,405.0,195.5,396.5,196.0,388.5,196.5,381.0,197.5,373.0,198.0,365.0,199.5,357.0,200.0,348.5,200.5,340.0,200.0,331.5,200.5,323.5,201.5,315.5,202.0,307.5,202.5,300.0,203.0,291.5,203.5,283.5,204.0,274.5,205.0,267.0,206.0,258.5,206.5,251.0,207.0,243.5,207.5,236.0,208.5,227.5,209.0,219.5,210.0,211.5,210.5,203.5,211.0,195.5,211.0,187.5,211.5,180.0,211.5,172.0,211.5,164.0,212.0,156.5,212.0,148.0,212.5,140.0,213.0,131.5,213.5,123.0,214.0,114.5,214.5,107.0,215.0,98.5,215.5,90.5,216.0,83.5,216.5,75.5,217.5" stroke="black" stroke-width="2" fill="none" />
<polyline points="74.5,218.0,82.5,211.0" stroke="black" stroke-width="2" fill="none" />
<polyline points="82.5,205.5,90.5,205.0,99.0,205.0,107.5,204.5,116.0,204.0,124.5,204.0,132.5,203.5,140.5,203.0,148.5,203.0,156.0,202.5,164.0,201.5,172.0,201.0,180.0,200.5,188.0,200.0,196.0,199.0,204.0,198.5,211.5,197.5,218.5,197.0,226.0,197.0,234.0,196.5,242.0,196.0,250.5,195.5,258.5,195.0,266.5,195.0,274.5,194.0,282.5,193.5,290.0,192.5,298.5,191.5,306.5,191.5,315.0,191.5,323.0,191.0,331.0,190.5,339.0,189.5,347.0,188.5,355.0,187.5,363.0,187.0,371.5,186.0,379.5,185.5,387.5,185.0,396.0,185.0,403.5,184.5,412.0,184.0,420.0,184.0,428.5,184.0,437.0,183.5,445.0,183.0" stroke="black" stroke-width="2" fill="none" />
<polyline points="443.0,177.5,435.0,177.5,427.0,178.0,419.0,178.5,410.5,179.0,402.5,180.0,394.0,181.0,386.0,182.0,378.0,182.0,370.5,182.5,362.5,183.0,354.5,183.5,346.5,183.5,338.5,184.0,330.5,185.0,322.5,186.0,314.5,186.5,306.0,187.0,298.5,187.0,290.0,188.0,282.5,188.5,274.5,189.5,266.5,190.0,259.0,191.0,251.0,191.5,242.0,192.5,233.5,193.5,225.5,194.0,217.0,195.0,209.5,195.0,202.0,195.5,194.5,196.0,186.5,195.5,179.0,196.0,171.5,196.0,164.0,195.5,156.5,195.5,149.0,196.5,141.0,196.5" stroke="black" stroke-width="2" fill="none" />
<polyline points="138.5,203.0,131.0,210.5,123.5,218.0,115.5,226.0,107.5,234.0,100.5,242.0,92.5,249.0" stroke="black" stroke-width="2" fill="none" />
<polyline points="93.0,246.5,90.5,248.5,93.5,256.5,94.5,264.5,91.5,268.0,93.5,276.0,93.0,284.0,94.0,292.0,94.0,300.0,93.5,308.0,92.5,316.0,92.5,324.0,91.5,332.5,91.0,340.5,90.0,348.5,89.0,356.5,88.5,364.5,88.5,373.0,87.5,381.0,87.0,388.5,86.0,396.5,86.0,404.5,84.5,412.5,84.0,420.5,83.0,428.5,81.5,436.5,81.0,444.0,81.0,452.0,78.5,456.0" stroke="black" stroke-width="2" fill="none" />
<polyline points="74.5,421.0,83.0,421.0,91.5,420.5" stroke="black" stroke-width="2" fill="none" />
<polyline points="83.5,419.5,92.0,411.5" stroke="black" stroke-width="2" fill="none" />
<polyline points="92.0,403.5,84.0,411.0" stroke="black" stroke-width="2" fill="none" />
<polyline points="84.5,403.0,92.5,395.0" stroke="black" stroke-width="2" fill="none" />
<polyline points="91.5,388.5,83.5,395.5" stroke="black" stroke-width="2" fill="none" />
<polyline points="77.0,396.5,85.0,396.0,93.0,396.0" stroke="black" stroke-width="2" fill="none" />
<polyline points="84.5,389.0,92.5,382.0" stroke="black" stroke-width="2" fill="none" />
<polyline points="84.5,380.0,93.0,372.5" stroke="black" stroke-width="2" fill="none" />
<polyline points="91.5,364.0,83.5,371.5" stroke="black" stroke-width="2" fill="none" />
<polyline points="76.0,372.5,84.0,372.0,93.0,371.0,101.5,370.5" stroke="black" stroke-width="2" fill="none" />
<polyline points="89.0,355.0,81.0,362.5" stroke="black" stroke-width="2" fill="none" />
<polyline points="77.0,364.5,84.5,364.0,92.0,363.5,100.0,363.5" stroke="black" stroke-width="2" fill="none" />
<polyline points="100.5,380.5,92.5,381.0,84.0,381.5,75.5,382.0" stroke="black" stroke-width="2" fill="none" />
<polyline points="76.5,390.5,84.0,389.5,92.0,389.0,100.5,387.5" stroke="black" stroke-width="2" fill="none" />
<polyline points="92.5,411.5,84.0,412.0,76.0,413.0" stroke="black" stroke-width="2" fill="none" />
<polyline points="77.0,404.0,85.5,403.5,93.5,403.5,101.5,403.5" stroke="black" stroke-width="2" fill="none" />
<polyline points="126.5,406.5,134.5,405.5" stroke="black" stroke-width="2" fill="none" />
<polyline points="140.5,355.0,129.5,352.5,121.5,354.5" stroke="black" stroke-width="2" fill="none" />
<polyline points="119.0,356.0,126.5,348.5,132.5,348.5,140.5,349.0,148.5,350.0,156.0,349.0,164.5,346.5,169.5,345.5,178.0,346.5,179.5,341.0,189.5,343.0,196.5,350.0,204.5,350.5,217.0,350.5" stroke="black" stroke-width="2" fill="none" />
<polyline points="171.5,313.0,163.5,313.5,155.0,313.5,147.0,314.0,139.5,314.5,131.5,314.5,124.0,315.0,115.5,315.0,107.5,315.5,99.5,316.0,91.5,317.0,83.5,317.0" stroke="black" stroke-width="2" fill="none" />
<polyline points="82.5,311.0,90.5,310.0,98.5,309.0,106.5,307.5,114.5,307.0,122.5,306.0" stroke="black" stroke-width="2" fill="none" />
<polyline points="122.5,306.0,130.0,298.0,137.5,290.5" stroke="black" stroke-width="2" fill="none" />
<polyline points="130.5,290.5,122.0,298.5,114.5,305.5" stroke="black" stroke-width="2" fill="none" />
<polyline points="109.0,306.5,117.5,298.5" stroke="black" stroke-width="2" fill="none" />
<polyline points="116.5,293.0,124.0,293.0,132.0,292.5,140.0,292.5,147.5,292.5,155.5,292.0,163.5,292.0,171.5,291.5" stroke="black" stroke-width="2" fill="none" />
<polyline points="155.0,296.5,147.5,297.0,139.5,297.5,132.0,298.0,124.0,298.5,116.0,299.0,107.5,300.0,99.0,300.5,91.5,300.5,83.5,301.0" stroke="black" stroke-width="2" fill="none" />
<polyline points="84.5,293.0,92.5,292.5,100.5,291.5" stroke="black" stroke-width="2" fill="none" />
<polyline points="99.0,290.0,91.0,298.0" stroke="black" stroke-width="2" fill="none" />
<polyline points="90.5,305.0,99.0,297.5" stroke="black" stroke-width="2" fill="none" />
<polyline points="109.0,299.5,101.0,307.0,92.5,314.5" stroke="black" stroke-width="2" fill="none" />
<polyline points="93.5,312.0,102.0,308.0,110.0,306.5,118.5,304.5,126.5,301.0,134.5,299.0,142.5,297.0,150.5,293.5,158.5,292.0,167.0,290.0,175.5,287.0,183.0,285.0,191.0,283.0,199.0,279.5,206.5,278.0,214.5,276.0,223.0,273.0,226.0,277.0,225.0,285.0,225.5,293.0,224.5,301.0,220.5,307.0,220.5,314.0,222.5,315.0,222.5,323.0,222.0,331.0,214.0,334.0,217.0,338.0" stroke="black" stroke-width="2" fill="none" />
<polyline points="226.5,278.5,234.5,277.5,243.0,277.0" stroke="black" stroke-width="2" fill="none" />
<polyline points="228.5,258.0,221.0,258.5" stroke="black" stroke-width="2" fill="none" />
<polyline points="225.0,229.5,233.0,228.5,240.0,229.5,248.5,232.5" stroke="black" stroke-width="2" fill="none" />
<polyline points="251.5,250.5,259.5,252.0" stroke="black" stroke-width="2" fill="none" />
<polyline points="260.0,179.0,252.0,179.5,243.5,179.5,235.5,179.5,227.5,179.5,220.0,180.5" stroke="black" stroke-width="2" fill="none" />
<polyline points="243.0,141.0,242.5,135.0,244.5,119.0,252.5,118.5,251.0,125.0,246.5,128.0,247.5,136.5,244.5,141.5,254.5,148.5,261.0,152.0" stroke="black" stroke-width="2" fill="none" />
<polyline points="251.0,133.5,243.0,133.5" stroke="black" stroke-width="2" fill="none" />
<polyline points="242.5,118.0,241.0,110.0" stroke="black" stroke-width="2" fill="none" />
<polyline points="266.5,84.0,269.5,78.0" stroke="black" stroke-width="2" fill="none" />
<polyline points="289.5,27.0,294.0,18.0" stroke="black" stroke-width="2" fill="none" />
<polyline points="294.0,14.5,286.0,13.5" stroke="black" stroke-width="2" fill="none" />
<polyline points="347.5,50.5,355.5,48.0" stroke="black" stroke-width="2" fill="none" />
<polyline points="406.0,54.0,414.0,50.0,403.0,60.0,415.5,63.0,415.5,66.0,425.0,64.0,433.0,64.0,436.0,63.5,439.0,68.5,444.0,64.0" stroke="black" stroke-width="2" fill="none" />
<polyline points="429.0,73.0,419.5,75.0,420.5,67.0,420.0,62.0,412.0,56.5" stroke="black" stroke-width="2" fill="none" />
<polyline points="461.5,21.5,463.5,19.5,462.5,19.0,464.0,26.0,467.0,34.0,470.5,30.5,471.5,17.0,478.5,13.5,486.0,7.5" stroke="black" stroke-width="2" fill="none" />
<polyline points="487.0,24.5,474.0,29.5,471.0,30.5,477.0,22.5" stroke="black" stroke-width="2" fill="none" />
<polyline points="464.0,113.0,465.5,107.0,467.5,110.5,465.5,115.5" stroke="black" stroke-width="2" fill="none" />
<polyline points="451.5,126.5,443.5,134.5,432.5,139.5,424.5,141.5" stroke="black" stroke-width="2" fill="none" />
<polyline points="410.0,148.0,407.0,159.0,397.5,151.5,395.0,157.0,395.5,153.0,403.5,150.0,400.5,145.0,393.0,147.0,385.0,143.5,383.0,152.5" stroke="black" stroke-width="2" fill="none" />
<polyline points="383.0,153.5,383.0,147.5,386.0,139.5" stroke="black" stroke-width="2" fill="none" />
<polyline points="364.5,157.0,353.5,155.0,345.5,157.0,337.0,166.0" stroke="black" stroke-width="2" fill="none" />
<polyline points="342.0,167.0,343.0,159.0,337.5,167.0,343.5,177.0,344.5,175.5,352.5,174.5,351.0,176.5,348.0,180.0" stroke="black" stroke-width="2" fill="none" />
<polyline points="323.5,170.5,326.0,176.5,321.0,184.5" stroke="black" stroke-width="2" fill="none" />
<polyline points="366.5,187.5,359.0,190.5,353.5,190.5,348.0,190.0,340.0,188.0,331.5,189.0,323.5,187.5,315.5,186.5,307.0,186.5,299.5,185.5,291.0,185.0,283.0,184.0,275.0,183.5,267.0,183.5,258.5,181.5,250.5,179.5,243.0,180.0,235.0,179.5,227.0,179.5,218.5,181.5,210.5,184.0,202.5,186.0,194.0,187.0,186.5,189.5,178.5,191.5,170.5,192.5,162.5,194.5,154.5,195.5,146.0,197.5,138.0,198.5,130.0,199.5,122.5,200.0,115.0,202.0,107.5,202.5,99.5,204.5,91.5,205.5,83.5,207.0,75.5,208.0,67.5,213.5" stroke="black" stroke-width="2" fill="none" />
<polyline points="67.5,213.0,75.5,212.5,83.5,211.5,91.5,211.0,99.0,210.5,107.0,210.5,115.0,209.5,123.0,208.5,131.0,208.0,139.0,207.5,146.5,207.5,155.0,207.0,163.0,207.0,171.0,206.5,179.0,206.0,187.0,206.0,195.0,205.0,203.0,204.5,211.0,203.5,219.5,203.0,228.0,202.5,236.0,202.5,244.0,202.5,252.0,202.0,259.5,201.5,267.5,201.0,275.5,201.0,284.0,201.0,292.0,200.5,300.5,200.5,308.0,200.0,316.5,199.0,324.5,198.5,332.5,198.0,340.5,197.5,348.5,197.5,356.5,196.0,364.0,195.0,371.5,194.5,379.5,194.5,387.0,194.0,395.0,193.5,404.0,192.5,411.5,191.5,419.5,191.0,427.0,190.5,435.5,190.0,444.0,189.0" stroke="black" stroke-width="2" fill="none" />
<polyline points="438.0,190.0,429.5,190.5,421.0,191.0,413.0,192.0,404.5,192.0,396.5,192.5,389.0,193.5,381.0,194.0,373.0,194.5,365.5,195.0,357.0,195.0,349.0,195.0,341.0,195.0,333.5,195.0,325.5,196.0,317.0,196.5,308.5,197.0,300.0,198.0,291.5,199.0,283.5,199.5,275.5,200.0,268.0,200.5,260.0,201.0,252.0,202.0,243.5,202.5,235.0,203.5,226.5,204.0,218.0,204.0,210.0,204.5,202.0,204.5,194.0,205.5,185.5,206.0,177.5,207.0,170.0,207.5,162.5,208.0,154.5,208.0,146.5,208.0,138.5,208.0,131.0,208.5,123.0,209.0" stroke="black" stroke-width="2" fill="none" />
<polyline points="125.0,204.5,117.0,212.0,109.5,219.5,101.0,227.0,92.5,234.0" stroke="black" stroke-width="2" fill="none" />
<polyline points="93.5,241.0,101.5,240.5" stroke="black" stroke-width="2" fill="none" />
<polyline points="99.5,241.0,107.5,241.0,115.5,242.0,123.5,243.0,131.0,245.0,139.0,246.0,147.0,247.0,155.0,249.0,162.5,250.5,170.5,251.5,178.5,253.5,185.5,254.5,194.0,255.5,202.0,258.0,210.5,259.0,219.0,260.0,227.5,261.5" stroke="black" stroke-width="2" fill="none" />
<polyline points="168.0,329.0,160.0,333.0,156.0,333.0" stroke="black" stroke-width="2" fill="none" />
<polyline points="152.5,339.0,160.0,338.5,167.5,338.5,168.5,331.5" stroke="black" stroke-width="2" fill="none" />
<polyline points="162.0,323.5,154.0,325.0" stroke="black" stroke-width="2" fill="none" />
<polyline points="155.0,317.0,163.5,315.5" stroke="black" stroke-width="2" fill="none" />
<polyline points="111.0,322.0,102.5,325.0,99.5,333.0,103.5,330.5,101.5,326.5,103.0,315.5" stroke="black" stroke-width="2" fill="none" />
<polyline points="98.5,315.0,90.5,322.5" stroke="black" stroke-width="2" fill="none" />
<polyline points="88.5,328.0,85.5,336.0" stroke="black" stroke-width="2" fill="none" />
<polyline points="91.5,339.5,99.5,332.5" stroke="black" stroke-width="2" fill="none" />
<polyline points="98.5,324.0,90.5,331.5" stroke="black" stroke-width="2" fill="none" />
<polyline points="83.5,352.0,83.5,360.5,83.0,374.5" stroke="black" stroke-width="2" fill="none" />
<polyline points="75.0,358.0,82.5,357.0,90.5,356.5,99.0,356.5" stroke="black" stroke-width="2" fill="none" />
<polyline points="50.0,331.5,42.0,332.5" stroke="black" stroke-width="2" fill="none" />
<polyline points="45.0,317.5,53.0,315.5" stroke="black" stroke-width="2" fill="none" />
<polyline points="60.5,305.0,63.5,302.0,56.5,308.0,55.0,309.0,63.0,301.0,75.5,300.0,79.0,302.0" stroke="black" stroke-width="2" fill="none" />
<polyline points="76.5,295.0,77.0,303.0,74.0,311.0,83.0,318.5,85.0,321.0,85.0,329.0,75.5,327.0,87.5,331.5,82.0,345.5,80.5,353.5,80.0,361.5,80.0,369.5,80.0,377.5,78.5,385.5,78.5,393.5,77.5,402.0,77.0,410.0,76.0,418.0,76.0,426.5,75.5,434.5,75.5,442.5,74.5,450.5,77.5,450.5,75.0,457.5" stroke="black" stroke-width="2" fill="none" />
<polyline points="68.0,428.5,61.0,429.0,53.0,430.0" stroke="black" stroke-width="2" fill="none" />
<polyline points="51.5,421.5,43.5,422.5" stroke="black" stroke-width="2" fill="none" />
<polyline points="13.0,364.0,4.5,363.0" stroke="black" stroke-width="2" fill="none" />
<polyline points="5.0,342.0,13.0,342.0" stroke="black" stroke-width="2" fill="none" />
<polyline points="4.0,337.5,12.0,337.5,21.5,339.0,25.5,342.0,29.5,338.5,37.5,338.5,48.0,337.0,56.0,335.5,64.0,334.5" stroke="black" stroke-width="2" fill="none" />
<polyline points="69.5,342.0,61.0,342.0,53.0,342.0,52.0,339.0,47.0,335.0,38.0,336.5,30.0,334.5,22.5,336.5,14.5,331.0,12.5,335.0,4.5,335.0" stroke="black" stroke-width="2" fill="none" />
<polyline points="16.5,300.0,9.0,299.0,14.5,293.5,17.5,285.5,11.0,293.5,11.0,297.5" stroke="black" stroke-width="2" fill="none" />
<polyline points="35.0,294.5,34.0,286.0,33.0,278.0" stroke="black" stroke-width="2" fill="none" />
<polyline points="54.5,264.0,38.5,265.5,25.0,257.5,25.0,250.5" stroke="black" stroke-width="2" fill="none" />
<polyline points="28.5,241.5,36.5,241.5,44.0,245.5" stroke="black" stroke-width="2" fill="none" />
<polyline points="49.5,235.0,46.0,227.0,45.0,219.0,54.0,215.0,44.5,214.0" stroke="black" stroke-width="2" fill="none" />
<polyline points="60.5,205.0,66.5,214.0,68.0,222.0,69.0,230.0,73.0,238.0,76.5,245.0,84.0,258.0" stroke="black" stroke-width="2" fill="none" />
<polyline points="90.0,259.0,98.0,251.0" stroke="black" stroke-width="2" fill="none" />
<polyline points="91.5,252.5,99.5,251.5,108.0,251.5" stroke="black" stroke-width="2" fill="none" />
<polyline points="107.5,240.5,115.5,233.0,123.5,225.5,131.5,218.0,139.5,211.0,148.0,203.5" stroke="black" stroke-width="2" fill="none" />
<polyline points="131.0,202.5,123.0,210.5,115.0,218.5,107.5,226.5,100.0,234.5,92.0,242.0" stroke="black" stroke-width="2" fill="none" />
<polyline points="92.5,242.5,100.5,242.0,108.5,242.5" stroke="black" stroke-width="2" fill="none" />
<polyline points="109.0,232.0,100.5,231.5,92.5,231.5,84.0,232.0,76.0,232.5" stroke="black" stroke-width="2" fill="none" />
<polyline points="75.0,234.0,83.0,226.5,91.5,219.5,100.0,212.0" stroke="black" stroke-width="2" fill="none" />
<polyline points="89.5,211.5,81.0,219.0,73.0,226.0" stroke="black" stroke-width="2" fill="none" />
<polyline points="73.0,224.5,81.0,224.0,89.5,223.5,97.5,223.0,105.5,223.0,113.5,222.5,122.0,222.0,130.0,221.0,138.5,220.5,147.0,220.5,155.0,220.0,163.0,219.5,170.5,219.0,178.5,219.0,186.5,219.0,194.5,219.0,202.0,218.5,209.5,218.0,217.5,217.0,226.0,216.5,234.0,215.5,242.0,215.5,250.0,215.0,258.5,215.0,267.0,214.5,275.5,213.5,284.0,213.0,292.0,212.0,300.0,211.5,307.5,211.0,315.5,210.5,323.5,210.0,332.0,209.0,340.5,208.0,349.0,207.5,357.5,207.0,365.5,206.0,373.0,206.0,381.0,206.0,389.0,206.0,397.5,206.0" stroke="black" stroke-width="2" fill="none" />
<polyline points="386.0,191.0,387.0,183.0" stroke="black" stroke-width="2" fill="none" />
<polyline points="445.0,214.0,437.5,214.5,429.0,214.5,421.0,215.0,412.5,216.0,404.0,216.5,396.0,217.0,388.0,218.0,380.0,219.0,371.5,219.5,363.0,221.0,354.5,221.0,346.0,221.5,337.5,221.5,330.0,222.0,322.0,223.0,314.0,223.5,305.5,224.5,297.5,225.5,289.0,226.5,281.0,227.5,274.0,228.0,266.5,228.5,259.0,229.0,251.5,229.5,243.5,230.0,235.5,230.5,227.5,230.5,219.5,230.5,212.0,230.0,204.0,230.0,196.5,230.5,188.5,231.0,180.5,231.5,173.0,232.5,165.5,233.0,157.5,233.0,148.5,234.0,140.0,234.0,132.0,234.5,123.5,235.5,114.5,236.0,105.5,236.0,97.0,237.0,89.0,238.0,81.0,238.5" stroke="black" stroke-width="2" fill="none" />
<polyline points="85.5,239.5,85.5,247.0,85.5,255.0,85.5,263.5,89.0,264.5,86.5,268.5,86.0,276.5,84.0,284.0,82.0,292.0,88.0,298.0,90.5,306.0,96.0,316.0,96.0,324.0,95.0,332.0,94.0,340.0,93.5,348.0,92.5,356.0,92.5,364.0,91.5,371.5,91.0,379.5,90.0,387.5,89.0,395.5,89.0,403.0,87.5,411.0,87.5,419.0,86.5,427.0,86.0,435.0,85.0,443.0,87.0,451.0,86.0,454.0" stroke="black" stroke-width="2" fill="none" />
<polyline points="49.0,529.0,41.0,528.5,33.0,527.5,24.5,528.5" stroke="black" stroke-width="2" fill="none" />
<polyline points="104.0,566.0,112.0,564.0" stroke="black" stroke-width="2" fill="none" />
<polyline points="213.0,634.0,213.0,634.0,212.0,642.5,216.5,650.5,226.5,658.5,225.5,666.5,227.5,674.5,234.5,676.0" stroke="black" stroke-width="2" fill="none" />
<polyline points="235.5,677.0,227.5,673.0" stroke="black" stroke-width="2" fill="none" />
<polyline points="229.5,658.5,221.5,651.5,213.0,644.5" stroke="black" stroke-width="2" fill="none" />
<polyline points="215.5,633.5,215.0,641.5,220.0,649.5,229.0,658.0" stroke="black" stroke-width="2" fill="none" />
<polyline points="267.5,643.0,259.5,646.0,255.0,648.0,272.0,640.0" stroke="black" stroke-width="2" fill="none" />
<polyline points="20.0,669.0,22.0,664.0,19.0,663.0,17.5,659.0" stroke="black" stroke-width="2" fill="none" />
<polyline points="77.5,336.0,71.5,332.0,69.5,327.0,61.5,329.5,55.0,326.5,51.5,318.0,44.0,328.0,43.0,329.0,44.0,324.0,49.0,318.0,53.0,309.0,47.0,301.0" stroke="black" stroke-width="2" fill="none" />
<polyline points="83.0,285.0,91.0,284.0,99.5,283.5" stroke="black" stroke-width="2" fill="none" />
<polyline points="99.5,282.5,92.0,290.0" stroke="black" stroke-width="2" fill="none" />
<polyline points="94.0,282.5,101.5,275.0" stroke="black" stroke-width="2" fill="none" />
<polyline points="102.5,268.5,94.5,276.0" stroke="black" stroke-width="2" fill="none" />
<polyline points="98.0,277.0,90.0,277.0" stroke="black" stroke-width="2" fill="none" />
<polyline points="90.5,268.5,99.0,268.0" stroke="black" stroke-width="2" fill="none" />
<polyline points="91.5,267.5,99.5,260.0" stroke="black" stroke-width="2" fill="none" />
<polyline points="100.5,260.0,92.5,261.0" stroke="black" stroke-width="2" fill="none" />
<polyline points="84.0,232.5,92.0,225.0,100.0,217.0,108.5,209.0,116.5,201.5" stroke="black" stroke-width="2" fill="none" />
<polyline points="116.5,231.0,108.5,231.0" stroke="black" stroke-width="2" fill="none" />
<polyline points="96.5,211.5,88.5,211.0" stroke="black" stroke-width="2" fill="none" />
<polyline points="75.0,228.5,83.0,228.0,91.0,227.5,99.0,227.5,107.5,227.0,115.5,226.5,124.0,226.0,132.0,225.5,140.5,225.0,149.0,224.0,157.0,224.0,165.0,223.5,172.5,223.5,180.5,223.0,188.5,223.0,196.0,223.0,204.0,222.5,211.5,222.0,219.0,221.5,226.5,221.0,234.0,220.5,242.0,220.0,250.5,219.0,258.5,218.0,266.5,217.0,275.0,216.0,283.5,215.5,292.0,215.0,300.5,214.5,308.5,213.5,317.0,213.0,325.0,213.0,332.5,212.5,340.5,212.0,348.5,211.5,356.5,210.5,364.5,210.0,372.5,210.0,380.5,210.0,387.5,209.5,395.5,209.0,404.0,208.0,412.5,207.5,420.5,207.5,429.0,207.5,436.5,207.5,445.0,207.0" stroke="black" stroke-width="2" fill="none" />
<polyline points="445.0,196.0,437.0,196.5,429.0,197.0,421.5,198.0,413.0,199.5,405.0,200.5,397.5,201.0,389.5,201.0,381.5,201.5,373.0,202.0,365.0,202.5,357.0,203.0,349.0,203.5,341.0,204.0,333.0,205.0,325.0,206.0,316.5,206.5,308.5,207.0,300.5,207.5,292.5,208.0,284.0,208.5,276.0,208.5,268.0,209.0,260.0,209.5,251.5,209.5,243.5,209.5,235.5,209.5,228.0,210.5,220.0,211.0,212.0,211.5,204.0,212.0,196.0,213.0,187.5,213.5,179.0,214.5,170.5,215.0,162.5,215.5,154.0,216.0,146.0,216.0,138.0,217.0,130.0,217.5,122.5,217.5,114.5,217.5,106.0,217.5,99.0,218.0,91.0,219.0,83.0,220.0,74.0,220.5,66.0,221.0" stroke="black" stroke-width="2" fill="none" />
<polyline points="74.5,234.5,82.0,236.5,90.0,238.0,100.5,241.0,101.0,249.0,99.5,257.0,99.5,265.5,98.0,274.0,98.0,282.5,97.0,290.5,96.0,298.5,101.0,300.5,109.0,298.5,116.5,296.5,121.0,295.5,128.5,288.5,134.5,291.5,143.0,288.0,151.0,285.5,159.0,283.5,167.0,281.5,175.0,278.0,183.0,276.0,191.0,274.5,198.5,270.5,205.0,270.5,213.0,268.0,221.5,264.0" stroke="black" stroke-width="2" fill="none" />
<polyline points="333.5,264.5,341.5,261.5,334.0,268.5,339.0,265.5,347.5,270.0" stroke="black" stroke-width="2" fill="none" />
<polyline points="438.5,226.5,446.5,222.5,457.5,216.0,468.5,213.5,476.5,217.5" stroke="black" stroke-width="2" fill="none" />
<polyline points="467.5,217.5,470.0,225.5,468.0,233.5,468.0,241.5,472.0,244.5,467.0,258.0,469.5,264.0,466.5,270.0,465.5,277.5,453.0,284.5,455.0,272.0,460.0,269.0,466.0,278.0,474.5,276.0,479.5,285.5,489.5,278.5,497.5,274.5,505.0,272.5,511.5,272.5" stroke="black" stroke-width="2" fill="none" />
<polyline points="500.0,265.5,493.0,273.5,488.0,280.5,488.5,286.0,481.5,290.0,481.5,293.0,474.5,297.5,477.5,298.5,476.5,292.5,484.5,282.5" stroke="black" stroke-width="2" fill="none" />
<polyline points="483.5,271.5,484.0,265.5,481.0,261.0,486.0,261.0,487.5,250.0,483.5,241.5,475.5,238.0,470.5,230.0,469.5,231.0" stroke="black" stroke-width="2" fill="none" />
<polyline points="469.5,239.0,478.0,241.0,486.0,246.5,493.5,246.5,499.0,250.0,507.0,245.0" stroke="black" stroke-width="2" fill="none" />
<polyline points="507.5,211.0,514.5,206.0,505.0,206.0" stroke="black" stroke-width="2" fill="none" />
<polyline points="511.0,186.0,506.5,176.0,498.5,173.5" stroke="black" stroke-width="2" fill="none" />
<polyline points="498.5,174.0,503.5,182.0,508.5,191.0,501.5,201.5,509.5,200.5,511.0,204.0" stroke="black" stroke-width="2" fill="none" />
<polyline points="475.5,183.0,472.5,176.5,478.5,175.0,478.5,162.5,466.5,167.5,463.5,167.5,469.5,162.5,463.5,155.5" stroke="black" stroke-width="2" fill="none" />
<polyline points="469.5,158.5,472.5,150.5" stroke="black" stroke-width="2" fill="none" />
<polyline points="459.0,143.5,448.5,147.5,454.0,152.0,457.5,144.0" stroke="black" stroke-width="2" fill="none" />
<polyline points="450.5,146.5,446.5,154.5,448.5,164.5,450.5,151.5" stroke="black" stroke-width="2" fill="none" />
<polyline points="472.0,204.5,464.0,210.0,460.5,216.5,457.0,225.5,462.0,220.5,457.5,212.5,461.5,211.5" stroke="black" stroke-width="2" fill="none" />
<polyline points="448.5,231.0,446.5,239.0,447.5,232.5,448.5,234.5,456.5,236.0" stroke="black" stroke-width="2" fill="none" />
<polyline points="457.0,248.5,465.5,251.5" stroke="black" stroke-width="2" fill="none" />
<polyline points="492.5,261.0,481.0,260.0,473.0,256.0,464.0,256.0,455.0,260.0,450.0,257.0,449.0,250.5,453.0,243.5,443.5,241.5,443.5,233.5,440.5,225.5" stroke="black" stroke-width="2" fill="none" />
<polyline points="470.0,306.0,470.5,314.0,471.5,321.0,471.5,324.0,477.5,323.0" stroke="black" stroke-width="2" fill="none" />
<polyline points="461.0,326.0,457.0,334.0,463.0,337.5,468.0,345.5,476.0,346.0,484.5,349.0" stroke="black" stroke-width="2" fill="none" />
<polyline points="507.0,124.5,504.0,129.0,505.0,121.5,512.5,119.5,504.5,113.5" stroke="black" stroke-width="2" fill="none" />
<polyline points="365.5,117.0,364.5,125.0" stroke="black" stroke-width="2" fill="none" />
<polyline points="209.5,67.5,196.0,78.0,193.0,71.0,191.5,63.5,192.5,59.5" stroke="black" stroke-width="2" fill="none" />
<polyline points="159.0,171.5,151.0,173.5" stroke="black" stroke-width="2" fill="none" />
<polyline points="39.0,193.0,31.0,194.5" stroke="black" stroke-width="2" fill="none" />
<polyline points="34.0,201.5,27.5,197.5,19.5,197.0,19.5,199.0" stroke="black" stroke-width="2" fill="none" />
</svg>