<svg xmlns="http://www.w3.org/2000/svg" version="1.1"><path d="M249.0,1.5,249.0,9.5,249.0,18.5,247.0,27.0,248.5,35.0,246.5,43.0,246.0,51.0,247.0,65.0,246.5,73.5" stroke="black" stroke-width="2" fill="none" />
<path d="M242.5,76.0,240.5,70.0,241.0,62.0,242.0,54.0,242.5,46.0,243.0,38.0,244.0,29.5,244.5,24.5,243.5,16.5,243.5,8.5,246.5,5.5,250.0,4.0" stroke="black" stroke-width="2" fill="none" />
<path d="M249.5,40.5,249.5,48.5,247.5,56.0" stroke="black" stroke-width="2" fill="none" />
<path d="M330.0,77.0,338.0,78.0,346.0,78.5,354.0,82.0,362.0,79.0,363.0,86.0,363.0,94.0,364.5,102.0,365.0,110.0,365.0,117.5,365.0,125.5,365.0,133.5,364.5,141.5,364.5,150.0,364.0,158.0,364.0,166.0,364.0,174.0,364.0,182.0,364.0,189.5,364.0,197.5,364.0,205.5,365.0,213.5,365.0,221.5,365.0,230.0,365.5,238.0,366.0,246.0,366.0,253.5,366.0,261.5,366.0,269.0,366.0,276.5,366.0,284.5,366.0,292.5,365.5,301.0,365.5,309.0,365.0,317.0,365.0,322.0,365.0,330.0,364.5,338.5,364.5,347.0,364.5,355.0,364.0,363.0,364.5,371.0,365.5,379.0,366.0,387.0,366.0,395.0,366.0,403.5,365.5,411.0,365.5,419.0,365.5,426.5,365.0,434.5,365.0,442.0,365.0,450.5,365.5,458.5,365.5,466.5,365.5,474.0,367.0,482.0,367.0,489.5,367.0,497.5,367.5,505.5,367.5,513.5,367.5,521.0,367.5,529.5,367.0,537.0,367.0,545.0,367.0,553.5,367.5,561.5,367.0,570.0,367.0,578.0,367.5,586.5,364.5,594.0,367.0,599.0,374.5,591.5,382.5,590.5,390.0,590.0,393.0,589.5,401.5,594.0,409.0,594.0,417.0,593.0,424.5,592.0,432.5,591.5,440.5,592.5,448.5,591.5,456.5,592.0" stroke="black" stroke-width="2" fill="none" />
<path d="M450.0,577.0,457.5,569.0" stroke="black" stroke-width="2" fill="none" />
<path d="M452.0,571.0,444.0,579.0" stroke="black" stroke-width="2" fill="none" />
<path d="M419.0,572.0,411.0,579.0,403.0,586.5" stroke="black" stroke-width="2" fill="none" />
<path d="M404.5,590.5,412.5,590.5" stroke="black" stroke-width="2" fill="none" />
<path d="M411.0,584.0,403.5,584.5,395.5,585.0,387.5,586.5,379.5,587.0,372.0,587.5,364.0,588.0" stroke="black" stroke-width="2" fill="none" />
<path d="M363.0,581.5,371.5,581.5,379.5,580.5,387.5,579.5,395.5,578.0,404.0,577.5,412.0,577.0,420.5,576.5,429.0,576.0,437.0,575.5,445.0,575.5,453.0,574.5,461.0,573.5,468.5,572.5,477.0,571.5,484.5,571.0,492.5,571.0,500.5,570.0,509.0,570.0,517.0,569.5" stroke="black" stroke-width="2" fill="none" />
<path d="M513.5,571.5,505.5,578.5" stroke="black" stroke-width="2" fill="none" />
<path d="M499.0,576.5,507.0,569.0,515.5,562.0" stroke="black" stroke-width="2" fill="none" />
<path d="M516.5,563.0,508.5,563.5,500.5,564.5,492.0,565.0,483.5,565.5,476.0,565.5,468.0,565.5,460.5,565.5,453.0,566.0,445.0,566.5,437.5,567.0,429.5,568.0,421.0,569.0,412.5,570.0,404.5,571.0,396.0,571.5,388.0,572.0,380.0,573.0,372.0,574.0,364.0,575.0" stroke="black" stroke-width="2" fill="none" />
<path d="M370.5,576.5,379.0,568.5,387.5,560.5,395.5,552.5,404.0,544.5" stroke="black" stroke-width="2" fill="none" />
<path d="M405.0,548.0,412.0,549.0,408.5,553.0,406.5,555.5" stroke="black" stroke-width="2" fill="none" />
<path d="M403.5,562.0,395.5,569.5,387.5,578.0,379.0,585.5,371.0,593.0" stroke="black" stroke-width="2" fill="none" />
<path d="M373.5,591.0,371.5,596.5" stroke="black" stroke-width="2" fill="none" />
<path d="M371.5,597.0,363.5,597.0" stroke="black" stroke-width="2" fill="none" />
<path d="M371.5,585.5,379.5,578.0,387.5,570.0,395.5,562.5,404.0,555.0,412.0,547.5" stroke="black" stroke-width="2" fill="none" />
<path d="M400.0,547.5,399.5,555.5,402.0,558.5" stroke="black" stroke-width="2" fill="none" />
<path d="M402.5,568.5,394.5,576.5,387.0,584.5" stroke="black" stroke-width="2" fill="none" />
<path d="M396.5,588.0,405.0,581.5,413.0,574.5" stroke="black" stroke-width="2" fill="none" />
<path d="M396.0,576.5,387.5,577.0,379.0,577.0,370.5,577.0" stroke="black" stroke-width="2" fill="none" />
<path d="M370.5,570.0,378.5,569.5,386.5,568.5" stroke="black" stroke-width="2" fill="none" />
<path d="M370.5,567.5,379.0,560.5,387.0,553.5,395.5,546.0,403.0,538.5" stroke="black" stroke-width="2" fill="none" />
<path d="M403.0,530.0,395.5,537.5,387.5,545.0,380.0,552.5,372.5,559.5" stroke="black" stroke-width="2" fill="none" />
<path d="M370.5,559.5,378.5,559.5" stroke="black" stroke-width="2" fill="none" />
<path d="M380.5,551.5,373.0,552.0" stroke="black" stroke-width="2" fill="none" />
<path d="M371.0,554.0,379.0,546.5,387.0,539.0,395.5,532.0" stroke="black" stroke-width="2" fill="none" />
<path d="M389.0,528.5,381.0,537.0,373.0,545.0" stroke="black" stroke-width="2" fill="none" />
<path d="M372.0,544.0,380.0,543.5" stroke="black" stroke-width="2" fill="none" />
<path d="M372.5,537.5,380.5,530.5,388.5,523.5" stroke="black" stroke-width="2" fill="none" />
<path d="M388.0,515.5,380.0,522.5,372.0,530.5" stroke="black" stroke-width="2" fill="none" />
<path d="M370.0,529.5,379.0,529.0" stroke="black" stroke-width="2" fill="none" />
<path d="M371.0,522.5,379.0,515.0,387.0,507.5" stroke="black" stroke-width="2" fill="none" />
<path d="M386.5,497.5,378.5,505.0,370.5,513.5" stroke="black" stroke-width="2" fill="none" />
<path d="M363.5,510.0,371.5,509.5,379.0,509.5,387.0,509.0,395.5,507.5,403.5,507.0,412.0,506.5,420.5,507.0,429.0,506.5,437.0,506.0,445.0,505.5,453.0,505.0,461.0,504.5,469.0,504.0,477.0,503.0,485.0,502.5,493.0,502.5,501.0,502.5,509.0,502.5,517.5,502.0" stroke="black" stroke-width="2" fill="none" />
<path d="M516.0,514.5,507.5,514.5,499.0,515.0,490.5,515.5,482.5,516.5,475.0,517.5,467.5,518.0,459.5,518.5,451.0,519.5,443.0,520.5,435.0,520.5,427.0,521.0,419.0,522.0,410.5,523.0,402.5,524.0,395.0,525.0,387.0,525.0,379.5,525.5,371.5,525.5,364.0,526.0" stroke="black" stroke-width="2" fill="none" />
<path d="M363.5,518.0,372.0,517.5,380.0,517.0,388.5,516.5,397.0,516.0,405.0,515.0,412.5,514.5,420.5,513.5,428.5,513.5,437.0,513.0,444.5,512.5,453.0,512.0,460.5,511.5,468.0,511.0,476.0,510.5,484.0,510.0,492.0,509.0,500.0,508.5,508.0,508.0,516.0,507.0" stroke="black" stroke-width="2" fill="none" />
<path d="M505.5,498.0,509.5,500.0,509.0,507.5,506.0,517.5" stroke="black" stroke-width="2" fill="none" />
<path d="M516.5,524.0,507.5,524.0,499.0,524.5,491.0,525.5,483.5,526.5,475.0,527.5,467.0,528.0,459.0,528.5,451.0,529.5,442.5,530.5,434.5,530.5,427.0,530.5,419.5,530.5,411.0,531.0,402.5,531.5,395.0,532.0,387.0,532.5,379.5,532.5,372.0,533.5,364.5,534.0" stroke="black" stroke-width="2" fill="none" />
<path d="M371.0,537.0,379.0,536.0" stroke="black" stroke-width="2" fill="none" />
<path d="M366.5,541.0,373.5,540.5,381.0,540.0,388.5,539.0,396.5,539.0,404.0,538.5,412.5,538.5,420.0,538.0,428.0,538.0,436.0,538.0,444.0,538.0,451.5,537.0,459.5,536.5,467.5,536.0,475.5,535.0,483.0,534.5,491.5,533.5,500.0,533.0,508.0,532.5,516.5,532.5" stroke="black" stroke-width="2" fill="none" />
<path d="M516.5,555.5,508.5,556.0,500.5,556.0,492.5,556.0,484.5,556.5,476.5,557.0,468.5,557.5,460.0,558.0,451.5,559.0,443.5,559.5,435.0,560.0,426.5,560.0,418.5,560.5,410.5,560.5,402.5,561.0,394.5,562.0,387.0,563.0,379.5,564.0,371.5,565.0,363.5,566.0" stroke="black" stroke-width="2" fill="none" />
<path d="M363.5,555.5,371.5,555.5,379.5,555.0,387.5,555.0,395.0,554.5,403.0,554.0,410.5,553.5,418.5,553.0,426.5,553.0,434.5,552.5,442.0,552.0,450.5,551.5,459.5,551.5,467.5,550.0,475.0,548.5,483.0,548.0,491.0,547.5,499.0,547.0,507.0,546.5,515.0,545.5" stroke="black" stroke-width="2" fill="none" />
<path d="M516.0,539.0,508.0,540.0,500.0,540.5,492.0,540.0,484.5,540.5,476.0,541.5,467.5,542.0,459.0,543.0,451.0,543.0,443.0,543.0,434.5,543.5,426.5,544.5,419.0,545.0,411.5,545.5,403.5,546.0,396.0,546.5,388.0,547.0,380.0,547.5,372.0,547.5,364.5,548.0" stroke="black" stroke-width="2" fill="none" />
<path d="M371.0,522.0,379.5,521.0" stroke="black" stroke-width="2" fill="none" />
<path d="M371.0,504.5,379.5,497.5,387.5,490.0" stroke="black" stroke-width="2" fill="none" />
<path d="M379.5,493.5,372.0,501.0" stroke="black" stroke-width="2" fill="none" />
<path d="M362.5,500.0,371.0,500.0,379.0,500.0,387.5,500.0,396.0,499.0,404.5,499.0,412.0,498.5,420.0,498.5,428.0,498.0,435.5,498.0,443.0,497.5,451.5,497.0,460.0,496.0,468.5,495.0,476.5,494.0,484.5,493.0,492.5,492.5,500.0,492.0,508.0,491.5,516.5,491.0" stroke="black" stroke-width="2" fill="none" />
<path d="M515.5,482.0,507.0,482.5,499.0,483.5,491.5,484.0,484.0,485.5,475.5,486.0,466.5,486.0,458.5,486.5,450.5,487.5,443.0,488.5,435.0,489.0,427.5,489.5,419.5,490.0,411.5,490.0,403.5,490.5,395.0,490.0,387.0,490.5,379.0,491.0,371.0,491.5,363.5,491.5" stroke="black" stroke-width="2" fill="none" />
<path d="M363.5,486.0,371.5,485.5,380.0,484.5,388.0,484.0,396.0,483.5,404.5,483.5,412.0,482.5,420.0,481.5,427.5,480.5,435.5,480.0,443.5,479.0,451.5,478.5,460.0,478.0,468.0,477.5,475.0,477.5,483.0,477.0,490.5,476.0,499.0,475.0,507.0,474.5,514.5,475.0" stroke="black" stroke-width="2" fill="none" />
<path d="M509.0,450.5,516.5,443.0" stroke="black" stroke-width="2" fill="none" />
<path d="M508.0,442.0,516.0,434.0" stroke="black" stroke-width="2" fill="none" />
<path d="M514.5,427.0,506.5,435.5,499.0,443.5" stroke="black" stroke-width="2" fill="none" />
<path d="M500.0,436.0,508.0,428.5" stroke="black" stroke-width="2" fill="none" />
<path d="M500.5,429.0,492.5,436.5" stroke="black" stroke-width="2" fill="none" />
<path d="M491.5,427.5,499.5,419.5" stroke="black" stroke-width="2" fill="none" />
<path d="M495.0,425.0,496.0,433.5,495.0,431.5" stroke="black" stroke-width="2" fill="none" />
<path d="M493.0,427.0,501.5,430.5" stroke="black" stroke-width="2" fill="none" />
<path d="M508.5,387.5,516.5,380.0" stroke="black" stroke-width="2" fill="none" />
<path d="M517.5,371.5,509.5,379.0,501.0,386.0" stroke="black" stroke-width="2" fill="none" />
<path d="M499.0,379.5,507.0,372.0" stroke="black" stroke-width="2" fill="none" />
<path d="M500.5,361.0,508.5,353.5,516.5,345.5" stroke="black" stroke-width="2" fill="none" />
<path d="M515.5,339.0,507.5,346.0,500.5,353.5" stroke="black" stroke-width="2" fill="none" />
<path d="M493.0,354.0,500.0,346.5,507.0,338.5,515.0,330.5" stroke="black" stroke-width="2" fill="none" />
<path d="M513.0,321.0,505.5,329.0,498.5,337.5,491.0,345.5" stroke="black" stroke-width="2" fill="none" />
<path d="M499.5,330.5,507.5,323.5,515.5,316.0" stroke="black" stroke-width="2" fill="none" />
<path d="M514.0,308.0,506.0,315.5,498.5,323.0" stroke="black" stroke-width="2" fill="none" />
<path d="M499.0,316.0,507.0,308.0,515.0,300.0" stroke="black" stroke-width="2" fill="none" />
<path d="M516.0,293.5,507.5,301.0,500.0,308.5" stroke="black" stroke-width="2" fill="none" />
<path d="M491.5,306.0,499.0,298.0,506.5,290.5,514.5,283.0" stroke="black" stroke-width="2" fill="none" />
<path d="M514.0,276.0,506.0,283.5,498.0,290.5,490.0,298.0" stroke="black" stroke-width="2" fill="none" />
<path d="M499.5,281.5,508.5,274.5,516.0,267.0" stroke="black" stroke-width="2" fill="none" />
<path d="M515.5,258.0,507.5,265.5,499.0,273.5" stroke="black" stroke-width="2" fill="none" />
<path d="M500.0,266.0,508.5,259.0,517.0,252.0" stroke="black" stroke-width="2" fill="none" />
<path d="M516.0,243.0,508.0,250.5,499.5,257.5" stroke="black" stroke-width="2" fill="none" />
<path d="M500.0,250.0,507.5,242.5,516.0,235.0" stroke="black" stroke-width="2" fill="none" />
<path d="M517.5,227.5,509.5,235.0,501.5,242.5" stroke="black" stroke-width="2" fill="none" />
<path d="M492.5,242.0,500.5,235.0,509.0,227.5,517.0,220.0" stroke="black" stroke-width="2" fill="none" />
<path d="M517.0,212.5,508.5,220.0,500.0,227.5,492.0,235.0" stroke="black" stroke-width="2" fill="none" />
<path d="M491.0,227.0,499.0,220.0,507.0,213.0,515.5,205.5" stroke="black" stroke-width="2" fill="none" />
<path d="M513.0,198.0,505.0,205.5,497.5,212.0,489.5,218.5,481.0,225.0" stroke="black" stroke-width="2" fill="none" />
<path d="M484.0,218.5,492.5,211.5,500.0,204.0,507.5,196.0,515.5,188.5" stroke="black" stroke-width="2" fill="none" />
<path d="M515.5,179.0,507.0,187.0,499.0,194.0,491.0,201.5,483.0,209.5" stroke="black" stroke-width="2" fill="none" />
<path d="M475.5,209.0,483.5,201.5,492.0,194.0,500.5,186.5,509.0,178.0,516.5,170.5" stroke="black" stroke-width="2" fill="none" />
<path d="M517.0,163.0,508.5,170.5,500.5,178.5,492.5,186.5,484.0,194.5,475.5,202.0,467.0,210.0" stroke="black" stroke-width="2" fill="none" />
<path d="M466.5,200.0,475.0,192.0,483.5,184.5,492.5,176.5,501.0,169.0,509.5,162.0,517.5,155.0" stroke="black" stroke-width="2" fill="none" />
<path d="M516.0,147.5,508.0,155.0,500.0,162.0,491.5,169.5,483.0,177.5,474.5,185.5,466.0,193.0,457.5,200.5" stroke="black" stroke-width="2" fill="none" />
<path d="M459.5,190.5,468.5,183.5,476.5,176.0,485.0,169.0,493.0,161.5,501.5,154.0,509.0,146.0,517.5,138.5" stroke="black" stroke-width="2" fill="none" />
<path d="M515.0,129.5,507.0,137.0,499.0,144.5,491.0,151.5,483.0,159.0,475.5,166.5,467.5,174.0,459.5,181.5" stroke="black" stroke-width="2" fill="none" />
<path d="M459.5,175.5,468.0,168.5,476.5,161.0,484.5,153.5,492.0,145.5,500.0,138.0,508.0,130.5,516.0,123.5" stroke="black" stroke-width="2" fill="none" />
<path d="M515.5,115.5,507.5,123.0,500.5,130.5,492.5,138.0,484.0,145.5,476.0,153.0,467.0,161.0,458.5,168.0" stroke="black" stroke-width="2" fill="none" />
<path d="M459.0,159.5,467.0,152.0,475.0,144.5,483.5,136.5,491.5,129.0,500.0,122.0,508.0,115.0,516.5,108.0" stroke="black" stroke-width="2" fill="none" />
<path d="M516.0,99.5,508.0,107.0,500.5,114.5,492.5,121.5,484.5,128.5,476.5,136.5,468.5,143.5,460.5,150.5,452.5,158.5" stroke="black" stroke-width="2" fill="none" />
<path d="M452.0,150.5,459.5,143.0,467.5,136.0,476.0,128.0,483.5,121.0,491.5,114.0,499.5,106.5,507.0,99.0,514.5,91.5" stroke="black" stroke-width="2" fill="none" />
<path d="M515.5,82.5,507.5,90.5,499.5,98.0,491.5,106.0,483.5,113.0,475.5,120.5,467.5,128.0,459.5,135.5,451.5,143.0,443.5,150.5" stroke="black" stroke-width="2" fill="none" />
<path d="M443.0,142.0,451.0,135.0,459.0,127.5,467.5,120.0,475.5,112.5,483.5,105.0,492.0,97.0,500.5,89.0,508.5,81.5,516.5,74.0" stroke="black" stroke-width="2" fill="none" />
<path d="M516.5,65.0,508.5,73.0,500.5,81.0,492.0,89.0,483.5,97.0,475.0,104.5,466.5,112.0,458.0,119.0,450.0,126.0,441.5,133.0" stroke="black" stroke-width="2" fill="none" />
<path d="M443.5,127.5,452.5,120.0,460.5,112.5,468.5,104.5,476.5,96.5,485.0,89.0,493.5,81.5,501.5,74.0,509.0,66.0,517.0,58.5" stroke="black" stroke-width="2" fill="none" />
<path d="M517.5,49.5,509.0,57.0,500.0,65.0,492.0,73.0,484.0,81.0,476.0,89.0,467.5,97.0,459.0,104.5,450.5,112.0,442.0,119.5" stroke="black" stroke-width="2" fill="none" />
<path d="M443.0,112.0,451.5,104.5,460.0,97.0,468.0,89.0,476.0,81.5,484.0,73.5,492.0,66.0,500.0,58.0,508.5,50.0,516.5,42.5" stroke="black" stroke-width="2" fill="none" />
<path d="M515.0,37.5,507.0,45.0,499.0,52.5,491.0,59.5,482.5,67.0,475.0,74.5,467.0,82.0,459.0,90.0,451.5,98.0,444.0,105.0" stroke="black" stroke-width="2" fill="none" />
<path d="M453.0,105.0,461.0,105.0,469.0,105.0,476.5,105.0,484.5,104.5,492.5,104.5,500.0,104.0,507.5,104.0,515.5,103.0" stroke="black" stroke-width="2" fill="none" />
<path d="M515.0,159.0,507.5,158.5,500.5,158.5,493.0,158.5,485.0,159.0,476.5,159.0" stroke="black" stroke-width="2" fill="none" />
<path d="M468.0,153.0,476.5,152.5,484.5,151.0,492.5,150.0,500.5,150.0,508.5,149.5,516.0,149.0" stroke="black" stroke-width="2" fill="none" />
<path d="M516.0,184.0,508.5,184.5,500.5,184.5,492.5,185.0" stroke="black" stroke-width="2" fill="none" />
<path d="M491.0,195.0,499.0,194.5,507.5,194.0,515.5,193.0" stroke="black" stroke-width="2" fill="none" />
<path d="M515.5,209.0,508.0,209.5" stroke="black" stroke-width="2" fill="none" />
<path d="M500.0,202.5,508.0,202.0,515.5,201.5" stroke="black" stroke-width="2" fill="none" />
<path d="M515.5,175.0,508.0,175.0,500.5,175.5,493.0,176.0,485.0,176.5" stroke="black" stroke-width="2" fill="none" />
<path d="M468.5,169.0,477.0,168.0,485.0,167.5,492.5,167.0,500.5,166.5,508.0,165.5,515.0,165.0" stroke="black" stroke-width="2" fill="none" />
<path d="M515.0,141.5,507.0,142.5,499.0,143.0,491.5,143.0,483.5,143.5,476.0,143.5,468.0,143.5,460.5,144.5" stroke="black" stroke-width="2" fill="none" />
<path d="M453.0,137.5,460.5,137.0,467.5,136.5,475.5,136.5,483.0,135.5,490.5,135.0,499.0,134.5,507.5,134.0,515.5,133.0" stroke="black" stroke-width="2" fill="none" />
<path d="M514.0,125.5,506.5,126.0,499.0,126.0,491.5,126.0,483.5,126.0,475.5,126.5,467.5,127.0,460.0,127.5,452.0,128.0" stroke="black" stroke-width="2" fill="none" />
<path d="M451.5,120.5,460.0,120.0,468.0,120.0,476.5,119.5,485.0,119.5,493.5,119.0,500.5,119.0,508.0,119.5,515.5,120.0" stroke="black" stroke-width="2" fill="none" />
<path d="M516.0,111.0,508.5,111.5,501.0,112.5,493.0,112.5,485.5,113.0,477.5,114.0,469.5,114.5,461.5,115.0,454.0,115.5" stroke="black" stroke-width="2" fill="none" />
<path d="M451.5,96.0,459.5,95.5,468.0,95.0,475.5,95.5,482.5,95.5,490.5,95.0,498.5,95.0,507.0,94.5,515.0,94.0" stroke="black" stroke-width="2" fill="none" />
<path d="M515.0,27.5,507.0,35.5,498.5,43.0,491.0,50.5,483.5,58.0,475.5,65.5,467.5,72.5,459.5,79.5,451.5,87.0,443.0,94.5,434.5,102.0" stroke="black" stroke-width="2" fill="none" />
<path d="M434.0,95.0,442.0,87.0,450.5,79.0,458.5,71.5,466.5,64.0,474.5,56.5,482.5,49.0,490.0,40.5,498.0,33.0,506.0,25.0,513.5,17.5" stroke="black" stroke-width="2" fill="none" />
<path d="M517.0,11.0,509.0,18.5,501.0,26.0,493.0,34.0,485.0,41.5,477.0,49.0,469.0,56.5,461.0,64.5,453.0,72.0,444.5,79.0,436.0,86.0" stroke="black" stroke-width="2" fill="none" />
<path d="M442.5,89.0,450.5,88.0,459.0,87.0,467.0,86.5,475.0,86.0,483.0,86.0,491.5,86.0,499.5,86.0,507.5,86.0,515.5,85.5" stroke="black" stroke-width="2" fill="none" />
<path d="M514.5,77.5,506.5,78.5,498.5,79.0,490.0,79.0,481.5,79.5,473.5,80.0,465.5,80.0,457.5,80.0,449.5,80.0,441.0,80.5" stroke="black" stroke-width="2" fill="none" />
<path d="M433.5,73.0,442.0,72.5,451.0,72.5,459.5,72.5,467.5,72.5,475.0,72.0,483.0,71.5,490.5,71.0,498.5,70.5,506.5,69.5,514.5,69.0" stroke="black" stroke-width="2" fill="none" />
<path d="M516.5,5.0,508.5,12.0,500.5,19.0,492.0,26.5,484.0,34.0,476.0,41.5,468.0,48.5,459.5,55.5,451.5,62.5,443.0,69.5,435.5,77.0,427.5,84.5" stroke="black" stroke-width="2" fill="none" />
<path d="M428.0,78.0,436.0,70.5,444.0,63.0,452.5,56.0,460.5,49.0,468.5,42.0,476.0,34.5,484.0,27.0,492.0,19.5,500.0,12.5,508.0,5.0" stroke="black" stroke-width="2" fill="none" />
<path d="M499.5,2.5,491.5,10.0,483.0,17.5,475.5,25.5,468.0,33.0,460.5,40.5,453.0,48.5,445.0,56.5,437.0,64.5,429.0,72.0,421.0,79.5" stroke="black" stroke-width="2" fill="none" />
<path d="M417.5,73.5,425.5,65.5,434.0,57.5,442.0,49.0,450.0,41.0,458.5,33.5,467.0,26.0,475.5,18.5,484.0,10.5,492.0,2.5" stroke="black" stroke-width="2" fill="none" />
<path d="M482.5,3.5,474.5,11.0,466.5,18.5,458.5,26.5,450.5,34.0,442.5,42.0,434.5,49.5,427.5,57.0,419.5,64.5" stroke="black" stroke-width="2" fill="none" />
<path d="M413.0,58.0,421.0,57.5,429.0,57.0,436.5,56.5,444.5,56.0,452.5,55.5,460.0,55.0,467.5,54.5,475.5,54.0,483.5,53.5,492.0,53.0,499.5,52.0,507.5,51.5,515.5,51.0" stroke="black" stroke-width="2" fill="none" />
<path d="M473.5,3.5,465.5,11.0,458.0,18.5,450.0,25.5,442.0,32.5,435.0,40.0,426.5,47.5,418.5,55.0,410.5,63.0,403.0,70.5" stroke="black" stroke-width="2" fill="none" />
<path d="M404.0,62.5,412.0,54.5,419.5,46.5,427.5,39.0,435.0,31.5,442.5,24.5,450.0,17.0,458.0,9.5,466.5,1.5" stroke="black" stroke-width="2" fill="none" />
<path d="M459.0,2.5,451.0,10.0,443.5,17.5,435.5,25.0,428.0,33.0,420.0,40.5,412.0,48.5,404.5,56.0" stroke="black" stroke-width="2" fill="none" />
<path d="M401.0,56.5,404.0,60.5,402.5,68.0,400.5,76.0,399.0,83.5,397.0,91.5,394.0,99.5,393.0,107.5,391.0,117.0,390.0,125.0,388.0,133.0,386.0,141.0,382.5,149.0,379.5,157.5,376.5,166.5,375.5,167.5,382.5,162.5" stroke="black" stroke-width="2" fill="none" />
<path d="M377.5,171.0,369.5,178.5" stroke="black" stroke-width="2" fill="none" />
<path d="M364.0,182.5,372.0,181.5,380.0,181.0,388.0,180.0" stroke="black" stroke-width="2" fill="none" />
<path d="M394.0,180.0,402.0,179.5,410.0,179.0,418.0,178.5,426.0,177.5,434.5,177.0,443.0,176.5,452.5,176.5,461.0,176.5,469.0,176.0,477.0,175.5,485.0,175.0,492.5,174.5,500.0,174.0,507.5,174.0,515.5,173.5" stroke="black" stroke-width="2" fill="none" />
<path d="M514.5,158.5,506.5,159.5,498.0,161.0,490.5,161.5,482.5,162.5,474.5,163.0,467.0,163.5,459.0,164.5,451.0,165.0,443.0,165.0,435.5,165.5,427.5,166.5,419.0,167.0,411.0,167.5" stroke="black" stroke-width="2" fill="none" />
<path d="M413.0,158.5,421.0,158.5,429.0,158.0,437.0,158.0,444.5,158.0,452.0,157.5,460.0,156.5,468.0,155.0,476.0,154.0,484.0,153.5,492.0,153.0,500.0,152.5,507.5,152.0,515.0,151.0" stroke="black" stroke-width="2" fill="none" />
<path d="M513.5,62.5,505.5,63.0,498.0,63.0,490.5,63.5,483.0,63.5,475.0,64.5,467.5,65.0,460.0,65.0,452.5,65.5,444.0,65.5,436.0,65.5" stroke="black" stroke-width="2" fill="none" />
<path d="M412.5,49.5,420.5,49.5,428.0,49.5,435.5,49.0,443.5,48.0,452.0,47.0,459.5,46.5,467.0,46.0,475.0,45.5,483.0,45.5,490.5,45.0,498.5,44.5,507.0,43.5,515.0,42.5" stroke="black" stroke-width="2" fill="none" />
<path d="M452.5,3.0,444.5,10.5,436.5,18.5,428.5,25.5,420.5,33.0,413.0,40.0,405.0,47.5" stroke="black" stroke-width="2" fill="none" />
<path d="M409.5,42.5,417.5,41.5,426.0,41.0,434.5,40.5,442.5,40.0,450.0,39.0,457.5,38.0,465.5,36.5,473.5,35.5,481.5,35.0,489.5,35.0,497.5,34.0,505.5,33.5,513.5,33.5" stroke="black" stroke-width="2" fill="none" />
<path d="M443.5,3.5,435.0,10.5,426.5,18.0,418.5,25.0,410.5,32.5,403.0,40.0" stroke="black" stroke-width="2" fill="none" />
<path d="M405.0,35.0,412.5,35.0,420.5,34.5,428.5,34.0,436.5,33.5,445.0,32.0,452.5,31.0,460.0,30.5,468.0,29.5,476.5,28.5,484.5,28.0,492.5,27.5,500.0,26.5,508.0,26.5,515.5,26.5" stroke="black" stroke-width="2" fill="none" />
<path d="M434.5,5.0,427.0,12.5,419.0,19.5,411.0,26.5,403.5,33.5,395.5,41.0" stroke="black" stroke-width="2" fill="none" />
<path d="M395.5,34.0,403.0,26.0,411.0,18.0,418.5,10.5,427.0,3.0" stroke="black" stroke-width="2" fill="none" />
<path d="M420.0,3.5,411.5,11.5,403.5,19.0,395.5,26.5" stroke="black" stroke-width="2" fill="none" />
<path d="M394.0,17.5,402.0,10.0,410.0,3.0" stroke="black" stroke-width="2" fill="none" />
<path d="M403.5,1.5,396.0,9.0,388.0,16.5" stroke="black" stroke-width="2" fill="none" />
<path d="M388.5,8.5,396.0,1.0" stroke="black" stroke-width="2" fill="none" />
<path d="M394.0,9.0,402.5,8.5,411.5,8.5,419.5,7.0,427.0,5.5,435.0,5.0,443.0,4.5,451.0,4.0,459.0,3.5,467.0,2.5,475.5,2.0,483.0,2.0,490.5,1.0,498.5,1.0,506.5,1.0,514.5,0.5" stroke="black" stroke-width="2" fill="none" />
<path d="M515.0,19.0,507.5,19.5,499.5,20.5,492.0,21.0,484.0,21.5,476.0,22.0,468.0,22.5,460.0,22.5,452.5,23.0,444.5,23.0,436.0,23.0,428.0,23.5,420.0,24.0,412.5,24.0,404.5,24.5" stroke="black" stroke-width="2" fill="none" />
<path d="M404.5,16.0,412.0,15.0,419.5,14.5,427.5,14.5,435.5,14.5,443.5,15.0,451.5,14.5,460.0,15.0,467.5,15.0,475.0,15.0,483.0,14.0,491.0,13.5,499.5,13.0,507.5,12.0,515.5,11.0" stroke="black" stroke-width="2" fill="none" />
<path d="M515.5,143.5,507.0,144.0,499.5,144.0,491.5,144.0,484.0,144.5,475.5,145.0,467.0,145.5,459.0,146.0,451.0,146.5,443.0,147.5,435.5,148.0,428.0,149.0,420.5,149.5,413.0,150.5,405.0,151.0" stroke="black" stroke-width="2" fill="none" />
<path d="M387.0,140.0,395.0,140.0,403.0,140.0,411.5,139.0,420.0,138.5,428.5,137.5,436.0,137.0,444.0,137.5,452.0,137.0,460.0,136.0,468.5,135.5,476.0,134.5,484.0,134.5,491.5,134.5,499.5,134.0,507.0,134.0,515.0,133.5" stroke="black" stroke-width="2" fill="none" />
<path d="M515.0,198.0,506.5,198.5,498.0,199.5,489.0,200.5,480.5,201.0,473.0,202.0,465.5,202.5,458.0,203.0,451.0,204.0,443.5,204.5,435.5,205.0,427.0,205.5,419.0,206.0,411.0,207.0,403.5,207.5" stroke="black" stroke-width="2" fill="none" />
<path d="M393.0,196.5,401.0,196.0,408.5,195.5,417.0,194.5,425.5,194.0,434.5,193.5,443.0,193.5,451.0,193.5,459.5,193.5,467.5,193.0,475.5,192.0,483.5,192.0,491.5,192.0,499.5,191.5,507.0,191.0,514.5,191.0" stroke="black" stroke-width="2" fill="none" />
<path d="M514.0,182.0,505.5,183.0,497.5,184.0,489.5,184.5,481.5,185.0,473.5,185.5,465.5,186.5,458.0,187.5,451.0,188.0,444.0,188.5,436.0,189.0,428.0,189.0,420.5,189.0,412.5,189.5,404.5,190.0" stroke="black" stroke-width="2" fill="none" />
<path d="M396.0,172.0,404.0,171.5,411.5,170.5,419.5,169.5,427.5,169.0,436.0,168.0,444.5,168.0,453.0,168.0,461.0,167.5,469.0,167.0,476.5,167.0,485.0,166.0,492.5,165.5,500.0,165.5,507.0,166.0,514.5,166.0" stroke="black" stroke-width="2" fill="none" />
<path d="M515.5,254.5,508.0,255.0,500.0,255.0,492.5,255.5,484.5,255.5,476.5,256.0,468.0,256.5,460.0,257.0,452.0,257.5,443.5,258.5,435.0,259.0,427.0,258.5,419.0,258.5,411.0,258.5,402.5,259.5,394.5,260.0" stroke="black" stroke-width="2" fill="none" />
<path d="M380.5,267.0,372.0,274.0" stroke="black" stroke-width="2" fill="none" />
<path d="M378.5,274.5,371.0,282.0" stroke="black" stroke-width="2" fill="none" />
<path d="M363.0,284.0,371.0,283.5,379.0,283.0,387.5,283.0,395.5,282.5,403.5,282.5,412.0,282.0,420.5,281.0,429.0,280.5,438.0,280.5,446.5,280.0,453.5,279.5,461.0,279.0,468.5,278.0,476.5,278.0,484.0,277.5,492.5,277.5,500.0,277.0,508.0,277.0,516.0,277.0" stroke="black" stroke-width="2" fill="none" />
<path d="M515.5,398.0,507.5,398.5,499.5,398.5,491.0,399.5,482.5,400.0,475.0,400.0,467.5,399.5,459.5,399.5,451.0,400.0,442.0,400.5,434.5,401.5,426.5,401.5,418.5,402.5,411.0,403.5,403.0,404.0,395.0,404.5,387.0,405.0,379.5,405.5,371.5,406.0,364.0,406.5" stroke="black" stroke-width="2" fill="none" />
<path d="M361.5,398.5,369.5,398.0,377.5,397.5,385.5,397.0,394.5,396.0,402.5,395.5,411.0,394.5,419.0,394.5,427.0,394.0,435.0,393.5,443.0,393.0,451.5,392.0,460.0,391.0,468.5,390.0,476.5,390.0,485.0,390.5,493.0,389.5,501.5,389.0,509.5,389.0,517.0,389.0" stroke="black" stroke-width="2" fill="none" />
<path d="M514.0,459.5,506.5,460.5,498.5,461.0,490.5,461.5,483.0,461.5,475.0,462.0,467.0,462.5,459.5,463.0,452.5,462.5,445.0,463.0,437.0,463.5,428.0,465.0,419.5,466.0,411.5,466.5,403.5,467.0,395.5,468.0,388.0,468.5,380.0,468.5,372.0,468.5,363.5,469.0" stroke="black" stroke-width="2" fill="none" />
<path d="M362.5,461.5,371.0,460.5,379.5,460.0,387.5,459.5,395.5,459.0,403.5,458.5,411.5,458.5,419.0,458.0,427.0,457.5,435.0,456.5,443.0,456.0,451.0,456.0,459.0,456.5,467.5,456.0,476.0,455.5,484.5,455.0,492.5,454.5,500.5,454.0,508.0,453.0,516.0,452.0" stroke="black" stroke-width="2" fill="none" />
<path d="M513.0,466.5,504.5,467.5,497.0,468.0,489.5,468.5,482.0,469.0,474.5,469.0,467.5,469.5,460.0,470.5,453.0,470.5,444.5,471.0,437.0,472.0,428.5,472.5,420.0,473.5,412.0,474.0,403.5,475.0,395.5,475.5,388.0,476.0,380.0,476.5,371.5,477.0,362.5,477.5" stroke="black" stroke-width="2" fill="none" />
<path d="M373.5,481.0,381.5,473.0" stroke="black" stroke-width="2" fill="none" />
<path d="M385.5,475.0,393.5,468.0" stroke="black" stroke-width="2" fill="none" />
<path d="M387.0,465.5,394.5,458.0" stroke="black" stroke-width="2" fill="none" />
<path d="M401.5,457.0,409.0,449.5" stroke="black" stroke-width="2" fill="none" />
<path d="M410.0,459.0,402.0,466.5" stroke="black" stroke-width="2" fill="none" />
<path d="M401.5,474.0,409.0,467.0,417.0,460.0" stroke="black" stroke-width="2" fill="none" />
<path d="M405.5,459.5,411.5,453.5,404.0,456.5,409.0,464.0,406.5,472.0,411.0,475.0,417.0,458.5,416.0,459.5,413.0,467.5,409.5,475.5" stroke="black" stroke-width="2" fill="none" />
<path d="M395.5,470.5,391.0,462.5,388.0,462.5" stroke="black" stroke-width="2" fill="none" />
<path d="M389.0,459.0,397.5,451.5" stroke="black" stroke-width="2" fill="none" />
<path d="M389.0,451.5,380.5,458.5,372.0,466.0" stroke="black" stroke-width="2" fill="none" />
<path d="M372.0,466.0,380.0,465.0" stroke="black" stroke-width="2" fill="none" />
<path d="M382.0,465.5,374.0,473.0" stroke="black" stroke-width="2" fill="none" />
<path d="M380.5,484.0,373.0,491.5" stroke="black" stroke-width="2" fill="none" />
<path d="M392.5,474.0,388.5,472.0,388.0,464.0,387.0,456.5" stroke="black" stroke-width="2" fill="none" />
<path d="M389.0,443.0,381.0,450.5,372.5,457.5" stroke="black" stroke-width="2" fill="none" />
<path d="M373.5,450.5,382.0,443.0,390.0,436.0" stroke="black" stroke-width="2" fill="none" />
<path d="M390.0,427.5,381.5,435.0,373.0,442.5" stroke="black" stroke-width="2" fill="none" />
<path d="M369.5,442.5,377.5,442.5" stroke="black" stroke-width="2" fill="none" />
<path d="M373.0,432.5,381.5,425.0" stroke="black" stroke-width="2" fill="none" />
<path d="M379.5,418.5,371.0,426.0" stroke="black" stroke-width="2" fill="none" />
<path d="M370.5,418.0,378.5,410.5" stroke="black" stroke-width="2" fill="none" />
<path d="M380.5,404.5,372.0,412.5" stroke="black" stroke-width="2" fill="none" />
<path d="M372.5,405.0,380.0,397.5" stroke="black" stroke-width="2" fill="none" />
<path d="M371.5,395.0,379.5,388.0" stroke="black" stroke-width="2" fill="none" />
<path d="M371.0,385.0,379.0,377.5" stroke="black" stroke-width="2" fill="none" />
<path d="M379.0,370.5,371.0,377.5" stroke="black" stroke-width="2" fill="none" />
<path d="M365.0,380.5,372.5,380.0,380.5,379.5,388.0,379.0,395.5,379.0,403.0,379.0,410.5,379.0,418.0,379.5,425.5,379.0,433.5,378.0,441.5,377.5,449.5,377.5,458.5,377.5,467.0,377.5,475.0,377.0,483.5,376.5,492.0,376.0,500.5,375.0,508.5,374.5,516.5,373.5" stroke="black" stroke-width="2" fill="none" />
<path d="M516.5,444.0,508.5,444.5,500.5,445.5,492.5,446.5,484.5,447.0,476.5,447.5,468.0,447.5,459.5,448.0,451.0,448.0,442.5,448.0,434.5,448.5,426.5,450.0,418.5,450.5,410.5,451.5,402.5,452.0,395.0,452.0,387.5,452.0,380.0,452.0,372.0,452.0,364.0,452.5" stroke="black" stroke-width="2" fill="none" />
<path d="M365.0,446.0,373.0,445.5,381.0,445.0,389.0,444.5,396.5,444.5,403.5,444.5,411.5,443.5,419.0,442.5,426.5,441.5,434.5,441.5,442.5,441.0,450.5,440.5,458.5,439.5,467.0,439.0,475.5,438.0,483.5,437.5,491.5,437.5,499.0,437.0,507.0,437.0,515.0,437.5" stroke="black" stroke-width="2" fill="none" />
<path d="M517.5,429.0,509.0,429.5,500.5,429.5,492.0,430.0,484.0,430.5,475.0,430.5,466.5,430.5,458.5,430.5,450.5,430.5,442.5,430.5,434.5,431.5,427.0,432.5,419.0,433.5,411.5,435.0,403.5,436.0,395.5,436.5,387.5,436.5,379.5,437.0,372.0,438.0,364.5,439.0" stroke="black" stroke-width="2" fill="none" />
<path d="M361.0,430.0,369.0,429.5,378.0,429.0,386.5,428.0,395.0,427.5,403.5,426.5,411.5,425.5,420.5,425.0,428.5,424.0,436.5,423.5,445.0,423.0,452.5,422.5,460.5,422.5,469.0,423.0,477.0,422.5,485.0,422.5,493.5,422.5,502.0,422.5,510.0,422.0,517.5,420.5" stroke="black" stroke-width="2" fill="none" />
<path d="M516.0,412.0,508.0,413.0,499.5,413.0,491.5,413.5,484.0,413.0,475.5,413.0,467.5,413.5,459.5,414.0,452.0,414.5,444.0,415.0,436.0,415.5,428.0,416.5,419.5,417.5,411.5,418.0,403.5,418.5,395.0,419.5,387.0,421.0,378.5,421.5,370.0,421.5,361.5,421.5" stroke="black" stroke-width="2" fill="none" />
<path d="M363.0,415.0,371.0,414.5,379.5,413.5,387.5,412.5,396.5,412.5,404.5,412.0,412.0,411.0,419.5,410.0,427.0,409.0,435.0,408.5,443.0,408.0,451.0,407.0,459.0,407.0,467.0,407.0,475.0,407.0,482.5,406.5,490.5,406.5,498.0,406.0,506.0,405.5,513.5,405.0" stroke="black" stroke-width="2" fill="none" />
<path d="M517.0,381.5,509.0,382.0,501.0,382.0,493.5,382.5,485.0,383.0,477.0,383.5,468.5,383.5,460.0,383.5,452.0,384.0,444.0,385.0,436.0,385.5,427.5,386.0,419.0,386.5,411.0,387.0,402.5,387.5,395.0,388.0,387.0,388.0,379.0,388.0,370.5,388.5,362.5,389.0" stroke="black" stroke-width="2" fill="none" />
<path d="M365.0,372.5,373.0,372.0,380.5,372.0,388.0,371.5,395.0,370.0,402.5,369.5,410.5,370.0,418.5,370.0,427.0,369.5,435.0,369.0,443.5,368.5,451.0,368.0,459.0,367.5,467.0,367.5,475.0,367.0,482.5,367.0,491.0,366.0,500.0,365.5,508.5,364.5,516.5,363.5" stroke="black" stroke-width="2" fill="none" />
<path d="M516.0,354.0,507.0,354.0,499.0,354.5,491.0,355.0,483.0,356.0,475.5,356.5,467.5,357.0,459.5,357.5,451.5,358.0,443.5,358.5,435.0,359.0,426.5,359.5,419.0,360.5,411.0,361.5,403.5,362.0,395.0,363.0,387.0,363.0,379.0,363.0,371.5,363.5,363.5,364.0" stroke="black" stroke-width="2" fill="none" />
<path d="M364.0,358.0,371.5,357.5,379.5,357.0,387.5,356.5,396.0,356.0,404.0,355.5,411.5,354.5,419.5,353.5,427.5,353.0,435.5,352.5,444.0,352.5,451.5,351.5,459.5,350.5,467.0,350.0,475.0,349.0,483.0,348.5,491.0,347.5,499.5,347.0,507.5,347.0,514.5,346.5" stroke="black" stroke-width="2" fill="none" />
<path d="M513.0,339.0,505.5,340.0,498.0,340.5,491.0,341.0,483.0,342.0,475.5,342.5,467.0,343.5,459.0,344.0,451.0,344.0,443.0,344.5,435.0,345.0,427.5,345.0,419.5,345.5,411.0,345.5,403.0,346.0,395.5,347.0,388.0,348.5,380.5,349.0,373.0,349.5,365.5,350.5" stroke="black" stroke-width="2" fill="none" />
<path d="M369.5,355.0,377.0,347.5" stroke="black" stroke-width="2" fill="none" />
<path d="M370.5,348.0,377.5,340.5" stroke="black" stroke-width="2" fill="none" />
<path d="M371.5,340.5,379.5,333.0" stroke="black" stroke-width="2" fill="none" />
<path d="M378.0,325.0,370.0,332.5" stroke="black" stroke-width="2" fill="none" />
<path d="M362.0,336.0,369.5,335.0,377.5,334.0,386.0,333.0,394.0,332.0,402.0,331.5,411.0,330.0,419.5,329.0,428.0,328.0,436.0,327.5,444.0,327.0,452.0,326.5,459.5,326.0,467.5,325.5,475.5,324.0,483.5,323.5,491.0,323.0,499.0,323.5,507.0,323.5,515.5,322.5" stroke="black" stroke-width="2" fill="none" />
<path d="M514.0,330.5,506.0,331.0,498.5,331.5,491.5,331.5,484.5,332.0,476.5,333.0,467.5,334.0,459.5,335.0,451.5,336.0,443.5,336.0,435.5,337.0,428.0,337.0,420.0,337.5,411.5,337.5,403.5,338.0,395.5,339.0,387.5,340.0,379.5,341.0,371.5,342.5,363.5,343.5" stroke="black" stroke-width="2" fill="none" />
<path d="M363.0,326.5,371.0,326.0,378.5,325.0,387.0,324.5,395.0,323.0,403.5,322.5,411.5,322.0,419.5,321.5,427.5,321.0,435.5,321.0,443.0,320.5,451.5,320.5,459.5,319.5,467.5,318.5,475.5,317.0,484.0,316.5,492.0,316.0,500.5,315.5,509.0,315.0,517.0,314.5" stroke="black" stroke-width="2" fill="none" />
<path d="M517.5,306.0,509.5,307.0,501.0,308.0,492.5,309.0,484.5,310.0,476.0,310.5,468.0,311.0,460.0,312.0,452.0,313.0,444.0,314.0,436.5,314.0,428.5,314.0,420.0,314.5,412.0,315.0,404.0,316.0,396.0,317.0,388.0,317.0,380.0,317.5,372.5,318.0,364.0,318.0" stroke="black" stroke-width="2" fill="none" />
<path d="M370.5,322.5,378.5,315.5" stroke="black" stroke-width="2" fill="none" />
<path d="M379.0,308.0,371.0,315.0" stroke="black" stroke-width="2" fill="none" />
<path d="M365.0,308.5,372.5,308.0,380.5,307.5,388.5,307.5,397.0,307.5,405.0,307.5,412.5,306.5,419.5,305.5,427.5,305.0,435.5,305.5,443.5,305.0,451.5,304.0,459.5,303.0,467.0,302.0,474.5,301.0,482.5,300.0,490.5,299.5,498.5,299.5,506.5,299.0,515.0,299.0" stroke="black" stroke-width="2" fill="none" />
<path d="M514.5,291.5,506.5,292.0,498.5,292.0,490.5,292.5,483.0,293.0,475.0,293.5,467.5,294.0,459.5,294.0,451.5,294.5,443.5,294.5,435.5,295.5,427.0,295.5,419.0,296.0,410.5,296.5,402.5,296.5,394.5,297.0,387.0,297.5,379.5,298.5,372.0,299.0,364.5,299.5" stroke="black" stroke-width="2" fill="none" />
<path d="M363.5,293.0,371.5,292.0,379.5,291.0,387.0,290.0,394.5,289.0,402.5,288.5,411.0,288.5,419.5,288.5,428.0,288.5,436.0,287.5,444.5,287.0,452.0,286.5,460.0,286.5,468.0,286.0,476.0,285.5,483.5,285.0,491.5,284.5,499.0,284.0,506.5,283.5,514.5,282.5" stroke="black" stroke-width="2" fill="none" />
<path d="M514.5,269.5,507.0,269.5,499.5,269.5,491.0,270.0,482.5,270.5,475.0,271.0,467.0,271.5,459.5,271.5,452.0,272.5,444.5,273.0,436.5,273.0,428.5,273.0,421.0,273.5,413.0,274.0,405.0,274.0,396.5,274.5,388.5,275.5,380.0,276.0,372.0,276.5,363.5,277.0" stroke="black" stroke-width="2" fill="none" />
<path d="M364.0,267.0,372.0,267.0,380.0,267.0,387.5,267.0,395.0,266.5,403.0,266.5,411.0,266.0,419.0,266.0,427.0,265.5,435.5,265.0,444.0,265.0,451.5,264.5,459.5,264.5,467.0,264.0,475.0,264.0,482.5,263.0,490.5,262.0,499.0,261.0,507.0,260.0,515.0,259.5" stroke="black" stroke-width="2" fill="none" />
<path d="M515.5,124.0,507.5,125.0,499.5,125.5,491.5,126.0,483.5,127.0,476.0,128.0,468.0,129.0,460.5,129.5,452.0,129.5,444.0,130.0,435.5,130.5,427.0,131.5,419.5,132.0,411.5,133.0,403.5,133.5,395.5,134.0,388.0,135.0" stroke="black" stroke-width="2" fill="none" />
<path d="M392.5,129.5,394.0,127.5,390.0,135.5,388.5,143.5,385.5,151.5,383.5,159.5,384.5,166.5,384.0,174.0,380.5,182.0,375.5,190.5,373.5,193.0,381.5,180.5" stroke="black" stroke-width="2" fill="none" />
<path d="M379.5,179.5,371.0,187.0" stroke="black" stroke-width="2" fill="none" />
<path d="M366.0,187.5,374.0,187.0,381.5,186.5,389.5,186.0" stroke="black" stroke-width="2" fill="none" />
<path d="M379.5,187.5,371.0,195.5" stroke="black" stroke-width="2" fill="none" />
<path d="M364.5,197.5,372.5,197.0,380.5,196.0,388.5,195.5" stroke="black" stroke-width="2" fill="none" />
<path d="M387.5,205.0,379.5,206.0,372.0,207.0,364.0,207.5" stroke="black" stroke-width="2" fill="none" />
<path d="M365.0,213.0,372.5,213.0,381.0,213.0,389.0,213.0,396.5,213.0,404.0,212.5,412.0,211.5,420.0,210.0,428.0,209.5,435.5,208.5,443.5,208.0,452.0,207.5,460.0,207.5,468.0,207.5,475.5,207.0,483.5,206.0,491.5,205.5,499.5,205.0,508.0,204.0,517.0,202.5" stroke="black" stroke-width="2" fill="none" />
<path d="M515.0,86.0,507.5,85.5,500.5,85.5,493.0,85.5,485.0,86.0,476.5,86.0,469.0,86.5,461.0,87.0,452.5,87.0,444.5,88.0,436.5,88.0,429.0,88.5,420.5,89.5,413.0,90.5,405.0,91.5,397.0,92.5" stroke="black" stroke-width="2" fill="none" />
<path d="M397.0,83.5,405.0,83.0,412.5,82.5,420.0,82.5,428.0,82.5,435.5,82.5,444.0,82.0,452.5,81.5,460.5,80.5,468.5,80.0,476.5,80.0,485.0,79.0,493.0,78.5,500.5,78.0,508.5,77.5,516.0,76.5" stroke="black" stroke-width="2" fill="none" />
<path d="M516.5,68.5,508.5,69.0,500.5,69.0,492.5,70.0,484.5,71.5,476.0,72.0,468.5,72.5,460.5,73.0,452.5,73.0,444.5,73.0,436.5,73.5,428.5,74.0,420.5,74.5,412.0,75.0,403.5,76.0,395.5,76.5" stroke="black" stroke-width="2" fill="none" />
<path d="M387.0,70.5,395.5,70.0,404.0,69.0,412.5,68.0,420.5,67.0,428.5,66.0,436.5,65.5,444.0,65.0,452.0,64.5,460.5,64.0,469.0,64.0,477.0,64.0,485.0,64.0,492.5,64.0,500.5,63.5,508.5,63.5,516.0,63.0" stroke="black" stroke-width="2" fill="none" />
<path d="M515.0,117.5,506.5,118.0,499.0,118.5,491.5,119.5,483.5,119.5,476.5,120.0,469.0,120.5,460.5,121.0,451.5,121.0,443.0,121.5,435.0,122.5,427.5,123.5,419.0,124.5,411.0,125.0,403.0,125.5,395.0,126.5,386.5,127.5" stroke="black" stroke-width="2" fill="none" />
<path d="M387.0,117.5,395.0,116.5,403.5,115.5,411.5,115.0,419.0,114.5,426.5,113.5,434.5,112.5,443.0,112.0,451.5,111.5,460.0,111.5,468.0,111.0,476.0,110.5,483.5,110.0,491.5,109.5,499.5,109.0,507.5,109.0,515.0,109.0" stroke="black" stroke-width="2" fill="none" />
<path d="M516.5,102.0,509.5,102.0,501.0,102.5,492.5,102.5,484.0,103.0,476.0,103.0,467.5,103.5,460.0,104.0,452.0,105.0,444.0,105.5,436.0,106.0,428.0,107.0,420.0,107.5,412.0,108.0,404.5,108.5,397.0,109.0,388.5,109.5" stroke="black" stroke-width="2" fill="none" />
<path d="M389.0,102.5,397.0,102.0,405.0,101.5,413.0,101.0,421.0,100.0,429.0,99.5,437.0,99.5,445.0,99.5,453.0,99.5,461.5,99.0,470.0,98.5,477.5,98.0,485.5,97.5,493.5,97.0,501.5,96.0,509.0,95.5,517.0,95.5" stroke="black" stroke-width="2" fill="none" />
<path d="M514.5,54.0,506.5,54.0,498.5,54.5,491.5,54.5,484.0,54.0,475.5,54.5,467.5,55.0,459.5,55.0,451.0,55.5,443.0,56.5,435.5,57.0,428.0,58.5,419.5,59.0,410.5,59.0,402.5,59.5,394.5,60.5,387.0,61.5" stroke="black" stroke-width="2" fill="none" />
<path d="M379.5,52.0,387.5,51.5,396.0,51.0,404.0,50.5,411.0,50.5,419.0,50.0,426.5,49.0,435.0,48.0,443.0,47.5,450.5,48.0,458.5,48.0,466.5,47.0,475.0,46.0,483.0,45.5,491.0,45.0,499.0,45.0,507.5,45.0,515.5,45.0" stroke="black" stroke-width="2" fill="none" />
<path d="M514.5,38.0,506.0,38.0,497.5,38.5,489.5,39.0,481.5,39.0,473.5,39.0,465.5,39.0,457.0,39.5,449.0,39.5,440.5,40.5,433.0,41.0,425.5,41.5,418.0,42.0,410.5,42.0,403.5,42.5,396.0,43.5,389.0,43.5,380.5,44.0" stroke="black" stroke-width="2" fill="none" />
<path d="M381.0,36.0,388.5,35.5,395.5,36.0,403.0,35.5,411.0,35.0,419.0,34.5,426.5,34.5,434.5,34.0,442.5,33.5,450.0,32.5,457.5,32.0,466.0,31.5,475.0,31.5,483.5,31.5,491.5,31.5,499.0,31.0,507.0,30.5,514.5,30.0" stroke="black" stroke-width="2" fill="none" />
<path d="M516.0,21.5,508.0,21.5,500.5,22.0,492.5,22.0,484.0,22.0,476.0,22.5,468.0,23.0,460.5,23.0,452.5,23.5,444.5,24.5,436.5,25.5,428.0,26.5,419.0,27.0,410.5,28.0,403.0,28.0,395.0,28.5,387.0,28.5,379.0,29.0,371.5,29.5" stroke="black" stroke-width="2" fill="none" />
<path d="M371.5,19.5,379.5,19.0,387.5,18.5,395.5,18.0,403.5,17.5,411.0,17.0,419.0,16.0,427.0,15.5,435.0,15.0,444.0,15.0,452.5,15.0,460.0,14.0,467.5,13.5,475.5,13.5,483.5,13.5,491.5,14.0,499.5,13.5,508.0,14.0,515.5,14.0" stroke="black" stroke-width="2" fill="none" />
<path d="M516.0,4.0,508.0,4.5,499.5,5.5,491.0,6.0,483.0,5.5,475.0,5.5,467.0,5.5,458.5,6.5,450.5,7.0,442.5,7.5,435.5,8.0,427.5,8.0,419.0,8.5,411.0,9.5,403.0,10.0,395.0,11.0,387.5,11.5,379.5,12.5,372.0,13.5" stroke="black" stroke-width="2" fill="none" />
<path d="M371.0,5.5,379.0,5.0,387.0,5.0,395.0,4.5,403.5,3.5,411.0,3.0,419.0,2.0,426.0,1.5,433.5,1.0,441.0,0.0,449.0,-0.5,457.0,-1.0,464.5,-1.5,473.0,-2.5,481.5,-3.0,490.5,-3.5,499.0,-3.5,507.0,-3.5,515.5,-3.5" stroke="black" stroke-width="2" fill="none" />
<path d="M372.5,85.0,364.0,85.5" stroke="black" stroke-width="2" fill="none" />
<path d="M365.5,81.0,367.5,89.0,367.5,96.5,368.0,104.5,369.0,112.5,369.0,120.5,370.0,128.5,370.0,137.0,370.0,145.0,370.0,153.0,370.0,161.0,370.0,169.0,370.0,177.0,369.5,185.0,370.0,194.5,370.0,202.5,369.5,211.0,370.0,218.5,368.5,226.5,368.5,234.5,372.5,239.5,368.5,247.5,370.0,255.5,370.5,263.0,371.0,271.5,371.5,279.0,370.5,287.0,371.5,295.5,370.5,303.5,372.0,312.0,372.0,320.0,372.0,328.0,371.5,335.5,373.5,343.5,371.5,351.5,372.0,359.5,373.0,367.0,373.0,375.0" stroke="black" stroke-width="2" fill="none" />
<path d="M370.5,369.0,378.5,361.5" stroke="black" stroke-width="2" fill="none" />
<path d="M377.5,355.5,369.5,363.0" stroke="black" stroke-width="2" fill="none" />
<path d="M443.5,375.5,451.0,374.5" stroke="black" stroke-width="2" fill="none" />
<path d="M447.0,379.0,445.0,377.0" stroke="black" stroke-width="2" fill="none" />
<path d="M484.5,474.0,492.5,473.5,499.5,473.5,508.5,470.5,509.0,475.5" stroke="black" stroke-width="2" fill="none" />
<path d="M493.5,481.0,485.5,475.5" stroke="black" stroke-width="2" fill="none" />
<path d="M487.5,495.5,495.5,504.5" stroke="black" stroke-width="2" fill="none" />
<path d="M489.0,496.5,496.0,504.5,497.5,512.0,504.5,517.0,501.0,521.0,491.0,523.5,493.0,533.5,496.5,532.0,496.5,528.5,504.5,524.5,505.5,514.0,509.5,513.5" stroke="black" stroke-width="2" fill="none" />
<path d="M498.5,520.0,490.5,525.0" stroke="black" stroke-width="2" fill="none" />
<path d="M503.5,526.5,499.5,518.5,494.0,507.5,483.5,505.0,479.5,503.0" stroke="black" stroke-width="2" fill="none" />
<path d="M478.0,496.0,471.0,491.5,468.0,489.5,470.0,492.5,463.5,486.5,471.5,480.5,463.5,483.0" stroke="black" stroke-width="2" fill="none" />
<path d="M455.5,488.0,455.5,496.0" stroke="black" stroke-width="2" fill="none" />
<path d="M452.5,492.5,452.5,484.5" stroke="black" stroke-width="2" fill="none" />
<path d="M459.0,509.5,466.5,506.0,477.0,513.5,486.0,509.5" stroke="black" stroke-width="2" fill="none" />
<path d="M484.0,510.5,485.5,513.5,493.0,517.0" stroke="black" stroke-width="2" fill="none" />
<path d="M478.0,539.5,470.0,538.0" stroke="black" stroke-width="2" fill="none" />
<path d="M468.0,537.5,476.0,533.5,486.0,534.5,480.5,542.0,477.5,545.0,483.0,537.0" stroke="black" stroke-width="2" fill="none" />
<path d="M461.0,540.5,465.0,537.5,462.0,537.5,461.0,548.0" stroke="black" stroke-width="2" fill="none" />
<path d="M490.5,572.5,482.5,580.0" stroke="black" stroke-width="2" fill="none" />
<path d="M486.5,577.5,494.5,580.5,503.0,579.5,509.5,580.0" stroke="black" stroke-width="2" fill="none" />
<path d="M511.5,577.5,510.5,577.5,503.0,575.0,506.0,567.5,507.0,567.5,506.0,571.5" stroke="black" stroke-width="2" fill="none" />
<path d="M516.0,659.5,508.5,660.5,500.5,661.0" stroke="black" stroke-width="2" fill="none" />
<path d="M515.0,676.0,507.5,676.5,499.5,677.0,491.5,677.0,483.5,677.0" stroke="black" stroke-width="2" fill="none" />
<path d="M476.5,668.0,485.0,667.0,492.5,666.5,500.0,666.5,507.0,667.0,514.5,667.0" stroke="black" stroke-width="2" fill="none" />
<path d="M467.0,667.0,459.5,667.0" stroke="black" stroke-width="2" fill="none" />
<path d="M452.0,662.0,460.0,661.0,467.5,660.0,475.5,659.0,483.5,658.5" stroke="black" stroke-width="2" fill="none" />
<path d="M444.0,612.5,436.0,613.0,428.0,613.5" stroke="black" stroke-width="2" fill="none" />
<path d="M421.0,588.0,413.0,588.5,405.0,588.5,397.0,590.5" stroke="black" stroke-width="2" fill="none" />
<path d="M387.0,585.5,379.0,585.0,371.0,585.0" stroke="black" stroke-width="2" fill="none" />
<path d="M376.0,583.5,384.0,583.5,392.0,583.5,400.0,584.0,408.5,584.0,416.5,584.5,424.5,585.5,432.5,584.5,440.5,585.5,448.0,585.5,456.0,585.5,464.0,585.5,472.5,586.0,480.5,586.0,488.5,586.5,496.5,586.5,505.0,586.0" stroke="black" stroke-width="2" fill="none" />
<path d="M402.5,536.5,399.5,529.5,396.5,521.0,396.5,513.0" stroke="black" stroke-width="2" fill="none" />
<path d="M339.0,597.0,331.5,597.5,323.5,598.0" stroke="black" stroke-width="2" fill="none" />
<path d="M308.5,601.0,316.5,601.0,325.5,599.5,333.0,599.0,341.0,599.0,348.5,599.0,357.0,599.0,364.5,594.0" stroke="black" stroke-width="2" fill="none" />
<path d="M283.5,598.0,276.0,598.5,267.5,599.0,260.0,599.0" stroke="black" stroke-width="2" fill="none" />
<path d="M261.5,600.0,269.5,599.5,278.0,599.5,286.0,600.0,293.5,600.5,301.5,600.5,309.0,597.5,317.0,597.5,325.5,595.0,333.5,596.0,342.0,597.0,349.5,595.0,357.5,596.0" stroke="black" stroke-width="2" fill="none" />
<path d="M252.0,598.5,244.0,599.0" stroke="black" stroke-width="2" fill="none" />
<path d="M194.5,597.0,186.0,597.5" stroke="black" stroke-width="2" fill="none" />
<path d="M171.5,595.0,163.0,595.5" stroke="black" stroke-width="2" fill="none" />
<path d="M157.0,594.0,149.0,594.5" stroke="black" stroke-width="2" fill="none" />
<path d="M146.0,594.5,153.5,586.5" stroke="black" stroke-width="2" fill="none" />
<path d="M155.0,586.0,147.0,586.5,139.0,587.5" stroke="black" stroke-width="2" fill="none" />
<path d="M138.0,593.0,146.5,586.0,154.0,578.5" stroke="black" stroke-width="2" fill="none" />
<path d="M154.5,569.0,147.0,577.5,139.0,585.5" stroke="black" stroke-width="2" fill="none" />
<path d="M131.5,585.0,139.0,577.5,147.0,570.5,155.0,563.0" stroke="black" stroke-width="2" fill="none" />
<path d="M157.0,562.5,149.0,563.0" stroke="black" stroke-width="2" fill="none" />
<path d="M148.0,554.0,156.0,553.0" stroke="black" stroke-width="2" fill="none" />
<path d="M155.0,554.5,147.0,562.5,139.5,570.5,131.5,578.5,123.0,586.0" stroke="black" stroke-width="2" fill="none" />
<path d="M117.0,591.0,124.5,590.0,132.5,589.5,140.0,588.5,148.5,588.0,157.0,587.5,165.0,586.5" stroke="black" stroke-width="2" fill="none" />
<path d="M160.0,590.0,163.0,591.5,164.0,599.0,162.0,607.0,160.5,615.0,157.0,622.5,155.0,630.5,151.5,638.0,148.0,646.0,150.0,650.5,144.0,660.5,146.0,661.5,140.0,672.0,136.0,679.5,141.0,675.5,145.0,662.5,147.0,648.5,155.0,633.0" stroke="black" stroke-width="2" fill="none" />
<path d="M161.5,614.0,169.5,601.0,177.5,597.5,185.5,597.5,192.5,597.5,200.5,596.0,208.5,598.0,220.5,600.0,228.5,600.0,236.5,600.0,244.5,600.0,252.5,600.0,260.5,600.0,268.5,597.0,276.5,596.5,285.0,596.5,292.5,597.0" stroke="black" stroke-width="2" fill="none" />
<path d="M174.5,573.5,174.5,572.5" stroke="black" stroke-width="2" fill="none" />
<path d="M156.5,577.5,148.5,577.5,140.0,578.0" stroke="black" stroke-width="2" fill="none" />
<path d="M141.0,571.0,149.0,570.5,156.5,570.0" stroke="black" stroke-width="2" fill="none" />
<path d="M156.0,548.0,147.5,555.0,139.0,563.0,130.5,570.5,122.5,577.5,114.5,584.5" stroke="black" stroke-width="2" fill="none" />
<path d="M115.0,578.0,123.0,571.0,131.0,563.5,139.0,556.0,147.5,548.0,155.0,540.5" stroke="black" stroke-width="2" fill="none" />
<path d="M156.0,545.0,148.5,545.5" stroke="black" stroke-width="2" fill="none" />
<path d="M150.0,540.0,157.5,539.0" stroke="black" stroke-width="2" fill="none" />
<path d="M157.5,534.0,149.5,541.0,141.5,548.0,133.0,555.5" stroke="black" stroke-width="2" fill="none" />
<path d="M124.0,555.0,132.0,547.0,139.5,539.0,148.0,531.5,155.5,524.0" stroke="black" stroke-width="2" fill="none" />
<path d="M150.0,524.5,158.0,517.0" stroke="black" stroke-width="2" fill="none" />
<path d="M156.0,508.5,148.0,515.5,140.0,522.5" stroke="black" stroke-width="2" fill="none" />
<path d="M146.5,519.5,154.5,519.0" stroke="black" stroke-width="2" fill="none" />
<path d="M155.0,513.0,147.0,513.5" stroke="black" stroke-width="2" fill="none" />
<path d="M149.5,506.5,157.5,506.0" stroke="black" stroke-width="2" fill="none" />
<path d="M154.5,500.0,146.5,508.0,138.5,515.0" stroke="black" stroke-width="2" fill="none" />
<path d="M139.5,506.0,147.5,499.0,155.5,491.5" stroke="black" stroke-width="2" fill="none" />
<path d="M155.5,497.5,147.5,498.0" stroke="black" stroke-width="2" fill="none" />
<path d="M147.5,490.0,155.0,489.5" stroke="black" stroke-width="2" fill="none" />
<path d="M154.5,483.0,147.0,490.5,139.0,498.0,131.0,505.5" stroke="black" stroke-width="2" fill="none" />
<path d="M139.0,490.5,147.0,483.5,155.0,476.5" stroke="black" stroke-width="2" fill="none" />
<path d="M155.5,479.0,147.5,479.0" stroke="black" stroke-width="2" fill="none" />
<path d="M147.5,472.0,155.5,472.0" stroke="black" stroke-width="2" fill="none" />
<path d="M155.0,468.0,147.0,475.5,139.5,483.5" stroke="black" stroke-width="2" fill="none" />
<path d="M139.0,475.5,147.5,468.0,155.5,461.0" stroke="black" stroke-width="2" fill="none" />
<path d="M156.0,464.0,148.0,464.5" stroke="black" stroke-width="2" fill="none" />
<path d="M138.5,467.0,146.5,459.5,155.0,452.0" stroke="black" stroke-width="2" fill="none" />
<path d="M148.0,450.5,156.0,443.0" stroke="black" stroke-width="2" fill="none" />
<path d="M155.0,449.0,147.5,449.5" stroke="black" stroke-width="2" fill="none" />
<path d="M145.5,454.0,145.5,462.0,137.5,469.0,134.0,480.5,139.0,473.5" stroke="black" stroke-width="2" fill="none" />
<path d="M137.5,465.0,145.5,463.0" stroke="black" stroke-width="2" fill="none" />
<path d="M140.5,450.0,149.0,442.5,157.0,434.5" stroke="black" stroke-width="2" fill="none" />
<path d="M157.5,427.5,149.5,435.5,141.5,443.0" stroke="black" stroke-width="2" fill="none" />
<path d="M149.0,440.5,156.5,440.0" stroke="black" stroke-width="2" fill="none" />
<path d="M156.5,433.5,148.5,434.5" stroke="black" stroke-width="2" fill="none" />
<path d="M141.5,435.0,150.0,427.5,157.5,420.0" stroke="black" stroke-width="2" fill="none" />
<path d="M157.0,412.0,148.5,419.5,140.0,427.0" stroke="black" stroke-width="2" fill="none" />
<path d="M138.0,419.0,146.0,411.5,154.5,404.0" stroke="black" stroke-width="2" fill="none" />
<path d="M156.5,409.0,148.0,409.0" stroke="black" stroke-width="2" fill="none" />
<path d="M146.0,404.0,154.0,396.5" stroke="black" stroke-width="2" fill="none" />
<path d="M148.5,397.5,157.0,389.5" stroke="black" stroke-width="2" fill="none" />
<path d="M154.0,381.0,146.0,388.0" stroke="black" stroke-width="2" fill="none" />
<path d="M146.0,386.5,154.0,386.0" stroke="black" stroke-width="2" fill="none" />
<path d="M156.0,393.0,148.0,393.0" stroke="black" stroke-width="2" fill="none" />
<path d="M148.0,401.0,156.5,400.5" stroke="black" stroke-width="2" fill="none" />
<path d="M157.0,417.0,148.5,417.0" stroke="black" stroke-width="2" fill="none" />
<path d="M150.5,425.5,158.5,425.0" stroke="black" stroke-width="2" fill="none" />
<path d="M156.0,444.0,148.5,444.0,140.5,444.0,132.0,444.5,124.0,444.5" stroke="black" stroke-width="2" fill="none" />
<path d="M109.0,431.5,117.0,431.0,124.5,430.5,132.0,429.5,139.5,428.5,148.0,428.0,156.0,427.0" stroke="black" stroke-width="2" fill="none" />
<path d="M139.5,386.0,147.0,379.0,155.0,372.0" stroke="black" stroke-width="2" fill="none" />
<path d="M147.0,370.0,155.5,363.0" stroke="black" stroke-width="2" fill="none" />
<path d="M156.0,367.0,148.0,367.0" stroke="black" stroke-width="2" fill="none" />
<path d="M148.0,363.0,156.0,355.5" stroke="black" stroke-width="2" fill="none" />
<path d="M155.0,348.0,147.5,355.5,140.0,363.0" stroke="black" stroke-width="2" fill="none" />
<path d="M137.5,354.0,145.0,346.5,153.0,339.0" stroke="black" stroke-width="2" fill="none" />
<path d="M156.0,337.0,148.5,337.0" stroke="black" stroke-width="2" fill="none" />
<path d="M146.5,329.0,154.5,329.0" stroke="black" stroke-width="2" fill="none" />
<path d="M155.0,330.5,147.5,337.5,139.0,345.0" stroke="black" stroke-width="2" fill="none" />
<path d="M139.5,336.0,147.0,328.5,155.0,321.5" stroke="black" stroke-width="2" fill="none" />
<path d="M154.0,314.5,146.0,322.0,138.5,329.5" stroke="black" stroke-width="2" fill="none" />
<path d="M146.0,321.5,154.0,321.0" stroke="black" stroke-width="2" fill="none" />
<path d="M156.0,313.5,148.5,314.0" stroke="black" stroke-width="2" fill="none" />
<path d="M145.5,313.5,153.5,306.0" stroke="black" stroke-width="2" fill="none" />
<path d="M156.5,304.0,149.0,304.5" stroke="black" stroke-width="2" fill="none" />
<path d="M145.5,307.5,153.5,300.0" stroke="black" stroke-width="2" fill="none" />
<path d="M157.0,296.5,149.5,296.5" stroke="black" stroke-width="2" fill="none" />
<path d="M147.0,300.0,155.0,293.0" stroke="black" stroke-width="2" fill="none" />
<path d="M148.0,292.5,156.0,285.0" stroke="black" stroke-width="2" fill="none" />
<path d="M148.5,283.5,156.5,276.0" stroke="black" stroke-width="2" fill="none" />
<path d="M156.5,269.0,148.0,276.5" stroke="black" stroke-width="2" fill="none" />
<path d="M145.5,268.5,153.5,261.0" stroke="black" stroke-width="2" fill="none" />
<path d="M147.5,259.5,155.5,252.0" stroke="black" stroke-width="2" fill="none" />
<path d="M156.0,255.5,148.0,256.0" stroke="black" stroke-width="2" fill="none" />
<path d="M147.0,249.0,155.0,241.0" stroke="black" stroke-width="2" fill="none" />
<path d="M157.5,240.5,148.5,241.0" stroke="black" stroke-width="2" fill="none" />
<path d="M155.0,234.5,146.5,242.5,138.0,250.0" stroke="black" stroke-width="2" fill="none" />
<path d="M141.0,250.0,147.0,257.5,146.0,265.5,148.0,273.5,148.5,282.0,147.5,290.0,147.5,296.5,146.5,305.0" stroke="black" stroke-width="2" fill="none" />
<path d="M148.0,264.5,156.0,264.0" stroke="black" stroke-width="2" fill="none" />
<path d="M157.0,249.0,149.0,250.0,141.5,250.5" stroke="black" stroke-width="2" fill="none" />
<path d="M130.5,251.5,139.0,243.5,146.5,236.0,154.0,228.0" stroke="black" stroke-width="2" fill="none" />
<path d="M147.0,227.0,155.0,219.5" stroke="black" stroke-width="2" fill="none" />
<path d="M155.0,211.5,146.5,219.0" stroke="black" stroke-width="2" fill="none" />
<path d="M141.5,221.0,149.0,220.5,157.0,219.5" stroke="black" stroke-width="2" fill="none" />
<path d="M148.0,212.0,155.5,204.5" stroke="black" stroke-width="2" fill="none" />
<path d="M154.5,198.0,146.5,205.5" stroke="black" stroke-width="2" fill="none" />
<path d="M149.0,206.0,156.5,205.0" stroke="black" stroke-width="2" fill="none" />
<path d="M155.5,198.0,147.5,198.5" stroke="black" stroke-width="2" fill="none" />
<path d="M147.5,190.0,156.0,190.0" stroke="black" stroke-width="2" fill="none" />
<path d="M155.5,181.0,148.0,181.0" stroke="black" stroke-width="2" fill="none" />
<path d="M148.0,174.0,156.5,173.5" stroke="black" stroke-width="2" fill="none" />
<path d="M154.5,165.5,146.5,166.0" stroke="black" stroke-width="2" fill="none" />
<path d="M148.0,158.5,156.0,158.0" stroke="black" stroke-width="2" fill="none" />
<path d="M156.0,151.0,148.0,151.5" stroke="black" stroke-width="2" fill="none" />
<path d="M149.5,143.5,157.0,143.0" stroke="black" stroke-width="2" fill="none" />
<path d="M156.5,134.0,148.5,134.5" stroke="black" stroke-width="2" fill="none" />
<path d="M147.0,126.0,155.0,125.5" stroke="black" stroke-width="2" fill="none" />
<path d="M154.0,117.0,145.5,117.5" stroke="black" stroke-width="2" fill="none" />
<path d="M147.0,109.0,155.0,108.5" stroke="black" stroke-width="2" fill="none" />
<path d="M154.5,102.5,147.0,102.5" stroke="black" stroke-width="2" fill="none" />
<path d="M147.5,94.0,155.5,93.5" stroke="black" stroke-width="2" fill="none" />
<path d="M157.5,82.0,157.5,90.0,156.5,98.0,156.5,106.5,156.5,115.0,157.0,123.0,156.5,131.5,156.5,139.5,156.0,147.5,156.0,156.0,156.0,164.0,156.0,171.5,156.0,179.5,156.0,187.5,156.0,196.0,155.5,204.5,155.0,212.5,155.0,220.5,154.5,228.5,154.5,236.5,154.5,244.0,154.5,252.0,154.5,259.5,154.5,267.5,155.0,275.5,155.0,283.0,155.5,291.0,156.0,298.5,156.0,306.5,155.5,314.5,155.5,322.5,155.5,330.5,155.5,339.0,155.5,347.0,155.5,355.5,155.5,363.0,155.5,371.0,155.5,378.5,154.5,386.5,154.5,394.5,155.5,402.5,155.5,410.5,155.0,418.5,155.0,426.5,155.0,435.0,155.0,443.0,154.5,451.0,154.0,459.5,154.0,467.5,154.0,475.5,154.0,483.5,154.0,491.5,154.0,499.5,153.5,507.5,153.0,516.0,153.0,524.0,152.5,532.0,152.5,540.0,152.5,548.0,153.0,556.5,153.0,564.5,153.0,572.5,153.0,580.0,153.0,588.0,153.0,595.5,149.5,600.5,162.0,602.0,170.0,595.5,179.5,599.5,187.5,599.0,195.5,599.0,204.5,599.5,212.0,599.0,220.0,597.0,228.0,595.5,236.0,596.5,244.0,595.5" stroke="black" stroke-width="2" fill="none" />
<path d="M167.0,601.5,163.5,609.0,162.0,617.5,159.5,625.5,157.5,633.0,154.5,641.0" stroke="black" stroke-width="2" fill="none" />
<path d="M143.0,669.5,141.0,677.5" stroke="black" stroke-width="2" fill="none" />
<path d="M137.5,602.0,145.5,601.5" stroke="black" stroke-width="2" fill="none" />
<path d="M147.0,598.0,155.5,597.0" stroke="black" stroke-width="2" fill="none" />
<path d="M157.0,573.5,149.0,574.0,141.0,574.0,133.0,573.5,125.0,573.5,117.5,574.0,109.0,574.5,101.0,575.0,93.0,575.5,85.5,575.5,77.0,576.0,68.5,577.0,60.5,577.5,53.0,577.5,44.5,578.5,36.5,579.0,28.0,580.0,20.0,581.0,11.5,582.0,3.0,582.5" stroke="black" stroke-width="2" fill="none" />
<path d="M2.0,583.5,9.5,580.5,12.5,583.0,20.0,583.5,28.0,584.0,36.0,584.0,44.5,584.0,58.5,587.0,67.0,587.0,75.0,587.5,83.0,587.5,91.0,584.5" stroke="black" stroke-width="2" fill="none" />
<path d="M84.0,588.0,75.5,588.5" stroke="black" stroke-width="2" fill="none" />
<path d="M72.5,591.5,80.0,592.5" stroke="black" stroke-width="2" fill="none" />
<path d="M74.5,578.0,66.0,585.5" stroke="black" stroke-width="2" fill="none" />
<path d="M67.5,579.0,59.5,587.0" stroke="black" stroke-width="2" fill="none" />
<path d="M57.0,584.0,65.5,584.0" stroke="black" stroke-width="2" fill="none" />
<path d="M59.5,594.0,67.5,592.0,75.0,591.0,83.0,590.5,87.5,587.0,96.0,587.0,103.5,583.0,111.5,582.5,111.5,579.5,115.5,587.0" stroke="black" stroke-width="2" fill="none" />
<path d="M108.5,592.0,116.5,591.0,124.0,590.5,132.0,590.5,139.5,590.0,147.5,595.0" stroke="black" stroke-width="2" fill="none" />
<path d="M139.0,588.5,131.0,589.0" stroke="black" stroke-width="2" fill="none" />
<path d="M106.5,577.5,114.5,570.0,123.0,562.5" stroke="black" stroke-width="2" fill="none" />
<path d="M156.0,564.0,147.5,564.0,139.5,564.0,131.0,564.0,123.0,564.5,115.0,565.0,107.5,566.0,100.0,566.5,92.0,567.0,84.0,567.5,76.5,568.5,68.0,569.5,59.5,570.5,51.5,571.5,43.5,572.0,35.5,573.0,27.5,574.0,19.5,574.5,12.5,575.5,5.0,576.0" stroke="black" stroke-width="2" fill="none" />
<path d="M14.0,574.5,22.5,568.5,25.5,573.0" stroke="black" stroke-width="2" fill="none" />
<path d="M25.5,591.0,18.0,590.5" stroke="black" stroke-width="2" fill="none" />
<path d="M2.0,586.0,9.5,586.0,17.5,586.0,25.5,586.0,33.5,586.0,42.0,586.5,50.0,586.5,58.0,578.0,66.0,578.5" stroke="black" stroke-width="2" fill="none" />
<path d="M100.5,587.0,108.5,586.5,116.5,586.0,124.5,585.5,132.5,585.0,141.0,585.0" stroke="black" stroke-width="2" fill="none" />
<path d="M148.0,530.0,155.5,529.5" stroke="black" stroke-width="2" fill="none" />
<path d="M147.0,378.0,155.0,377.0" stroke="black" stroke-width="2" fill="none" />
<path d="M149.5,360.0,157.5,359.0" stroke="black" stroke-width="2" fill="none" />
<path d="M156.5,352.0,148.5,353.0" stroke="black" stroke-width="2" fill="none" />
<path d="M149.0,346.0,156.5,345.5" stroke="black" stroke-width="2" fill="none" />
<path d="M122.0,251.5,130.0,244.0" stroke="black" stroke-width="2" fill="none" />
<path d="M123.0,240.0,131.0,241.0,139.0,239.0,146.5,237.0" stroke="black" stroke-width="2" fill="none" />
<path d="M140.5,213.0,148.0,212.5,156.5,212.0" stroke="black" stroke-width="2" fill="none" />
<path d="M156.5,252.5,148.0,253.0,139.5,253.5,131.0,254.0,122.5,255.0,114.5,255.5,106.5,255.5,98.5,255.5,91.0,256.0,83.5,256.5,75.0,257.0,67.5,257.5,59.5,258.5,51.0,259.0,43.0,260.0,35.5,260.0,28.0,261.0,20.5,262.0,12.5,263.0,5.0,263.5" stroke="black" stroke-width="2" fill="none" />
<path d="M3.5,256.0,11.5,255.5,19.5,254.5,27.5,253.5,35.5,253.0,43.5,252.0,51.5,251.0,59.5,250.5,67.5,249.5,75.5,249.0,83.0,249.0,91.5,248.5,99.5,247.5,107.5,247.0,114.5,246.5,122.5,246.0,130.5,245.5,139.0,245.0,147.0,245.0,154.5,245.0" stroke="black" stroke-width="2" fill="none" />
<path d="M155.5,277.0,147.5,277.5,139.5,278.0,131.5,278.0,123.5,278.0,115.0,278.0,107.0,278.5,99.0,278.5,91.0,279.0,83.5,279.0,75.0,279.5,66.5,280.0,58.0,280.5,50.0,281.5,42.5,282.5,34.0,283.5,26.5,284.5,19.0,285.5,11.0,286.0,3.0,287.0" stroke="black" stroke-width="2" fill="none" />
<path d="M4.0,280.0,12.0,279.5,20.0,278.5,27.5,277.5,35.5,277.0,43.5,276.0,51.0,275.0,58.5,274.0,66.0,272.5,74.5,271.5,82.5,271.0,90.5,270.5,99.0,271.0,107.0,271.0,115.5,271.0,124.0,271.0,132.0,270.5,140.0,270.0,148.0,269.0,155.5,268.5" stroke="black" stroke-width="2" fill="none" />
<path d="M156.5,307.5,148.0,308.5,139.5,309.5,131.5,310.5,123.5,311.0,115.5,312.0,107.5,313.0,99.5,313.5,92.5,314.5,85.0,315.0,76.5,315.5,68.0,316.0,59.5,316.0,51.5,316.0,43.0,316.0,35.5,316.5,27.5,316.5,20.0,317.0,12.0,317.5,4.5,317.5" stroke="black" stroke-width="2" fill="none" />
<path d="M3.5,326.0,11.5,325.5,19.5,325.0,28.0,324.0,36.5,323.5,45.0,323.0,52.5,323.0,60.5,323.0,68.0,322.5,75.0,322.0,83.0,321.5,91.5,321.0,100.0,320.0,108.0,319.0,116.5,318.0,124.5,317.5,133.0,316.5,140.5,316.5,148.5,316.0,157.0,315.0" stroke="black" stroke-width="2" fill="none" />
<path d="M155.5,396.5,147.5,396.5,139.5,397.0,131.0,397.5,123.5,397.5,116.0,398.5,108.5,399.0,101.0,400.0,93.0,401.0,85.5,401.5,77.5,402.0,69.0,402.0,61.0,402.0,52.5,402.0,44.5,402.0,36.0,403.0,27.5,404.0,19.0,405.0,11.5,405.5,3.5,406.5" stroke="black" stroke-width="2" fill="none" />
<path d="M4.0,412.0,12.0,412.0,20.0,411.5,28.0,411.5,37.0,411.5,45.5,411.5,53.5,411.5,61.0,411.0,69.0,411.0,77.0,410.5,85.0,410.0,93.0,409.5,100.5,409.0,107.5,408.5,115.0,408.0,122.5,407.0,130.5,407.0,138.5,406.5,146.5,406.0,154.5,405.5" stroke="black" stroke-width="2" fill="none" />
<path d="M155.0,500.5,146.5,501.0,138.5,501.0,130.0,501.5,122.0,502.5,114.0,502.5,106.0,503.0,98.5,503.5,90.5,504.5,82.5,505.0,74.5,506.0,67.0,506.0,59.0,506.0,50.5,506.5,42.5,507.0,34.5,507.5,27.5,508.0,19.5,508.5,11.5,509.5,3.0,510.0" stroke="black" stroke-width="2" fill="none" />
<path d="M3.5,517.5,11.0,517.0,18.5,516.5,26.5,516.5,34.5,516.5,42.5,516.0,51.0,515.0,59.5,514.5,68.0,514.0,76.5,513.5,84.0,513.0,92.5,512.5,101.0,512.0,109.0,511.0,117.0,510.5,124.5,510.5,133.0,509.5,140.5,509.0,148.5,509.0,156.0,508.5" stroke="black" stroke-width="2" fill="none" />
<path d="M156.5,556.0,148.5,556.0,140.5,556.5,132.0,557.0,123.5,557.5,116.0,558.0,108.0,558.5,100.0,558.5,92.0,558.5,84.0,559.0,76.0,559.5,68.5,560.5,60.5,561.5,52.5,562.0,44.5,563.0,37.0,564.0,29.0,564.5,20.5,565.0,12.5,565.5,4.0,566.0" stroke="black" stroke-width="2" fill="none" />
<path d="M5.5,557.0,13.5,557.0,21.0,557.0,29.0,556.5,37.0,556.5,44.5,556.0,52.5,555.5,60.5,554.5,69.0,553.5,77.0,552.5,84.5,552.0,93.5,551.5,101.5,551.0,109.5,550.5,117.0,550.0,125.0,550.0,133.5,550.0,141.5,550.0,149.5,550.0,157.5,550.5" stroke="black" stroke-width="2" fill="none" />
<path d="M156.5,540.5,148.5,540.5,140.5,540.5,132.5,540.5,125.0,541.0,116.5,542.0,108.5,542.5,100.5,543.5,92.5,544.0,85.0,545.0,76.5,545.5,69.0,546.0,60.5,546.0,52.5,546.5,44.0,546.5,35.5,547.0,27.0,547.5,18.5,547.5,10.5,547.5,2.5,547.5" stroke="black" stroke-width="2" fill="none" />
<path d="M3.5,540.0,11.0,540.0,19.0,539.5,27.0,539.5,35.0,539.0,43.5,539.0,51.5,539.0,59.5,539.0,67.5,538.5,75.5,538.0,83.5,537.5,91.5,537.0,100.0,536.5,108.0,535.5,116.0,534.5,123.5,533.5,131.0,532.5,139.0,532.0,146.5,531.0,154.5,530.0" stroke="black" stroke-width="2" fill="none" />
<path d="M155.0,524.0,147.5,524.0,140.0,525.0,132.0,525.5,124.5,527.0,116.5,527.5,108.5,528.0,100.5,528.5,92.0,529.0,83.5,529.0,75.5,529.5,68.0,530.0,60.0,531.0,52.0,531.5,44.0,532.0,35.5,532.0,27.0,532.0,19.0,532.0,10.5,531.5,2.5,532.0" stroke="black" stroke-width="2" fill="none" />
<path d="M1.5,526.0,10.0,525.0,18.0,525.0,26.5,524.5,35.5,524.0,44.0,523.5,52.0,523.5,60.0,522.5,68.0,521.5,76.0,521.0,84.0,520.0,91.5,520.0,100.0,519.5,108.5,519.0,116.5,518.5,125.0,518.0,133.5,518.0,142.0,517.5,150.0,517.0,158.0,517.0" stroke="black" stroke-width="2" fill="none" />
<path d="M155.5,490.0,147.0,491.5,139.0,492.5,131.0,494.0,123.5,495.0,115.5,495.5,108.0,496.0,100.0,496.5,92.0,497.0,84.0,497.5,76.0,498.0,67.5,498.5,60.0,499.5,52.5,500.0,44.5,501.0,36.5,501.0,28.5,501.5,20.0,501.5,12.0,501.5,4.5,501.5" stroke="black" stroke-width="2" fill="none" />
<path d="M5.5,494.5,13.5,494.0,21.5,493.5,30.0,493.0,37.5,493.0,46.0,493.0,53.5,492.5,61.0,492.5,68.5,492.0,76.0,491.0,84.0,490.5,92.0,490.0,99.5,489.0,107.5,488.0,116.0,487.0,123.5,485.5,131.5,484.5,139.0,484.0,147.0,483.0,155.5,482.5" stroke="black" stroke-width="2" fill="none" />
<path d="M156.0,475.0,148.0,475.5,140.0,476.0,131.5,477.0,123.5,477.5,116.0,478.5,108.5,479.5,101.0,480.5,93.0,482.0,85.5,482.5,77.5,483.0,69.5,482.5,61.5,482.5,53.0,483.0,44.5,484.0,36.5,484.0,28.5,484.5,20.5,485.0,13.0,486.0,4.5,487.0" stroke="black" stroke-width="2" fill="none" />
<path d="M2.0,478.0,10.0,478.0,18.5,477.5,27.0,477.5,35.0,477.5,43.0,477.0,51.5,476.0,59.5,475.0,68.0,474.0,76.5,473.5,84.5,473.5,92.5,473.0,100.5,472.5,108.5,471.5,117.0,471.0,124.5,470.0,132.5,469.0,140.0,468.0,147.5,467.5,155.5,467.5" stroke="black" stroke-width="2" fill="none" />
<path d="M157.0,459.0,149.0,460.5,141.0,461.5,133.0,462.5,125.0,463.0,116.5,464.0,107.5,464.0,99.0,464.5,91.0,464.5,83.0,465.0,75.0,465.5,67.0,466.5,59.0,467.5,51.0,468.5,43.0,469.0,35.0,469.0,28.0,469.0,20.5,469.5,12.5,469.5,4.5,470.5" stroke="black" stroke-width="2" fill="none" />
<path d="M5.5,462.0,13.5,461.5,20.5,461.0,28.0,460.5,35.5,459.5,42.5,459.5,50.0,459.0,58.0,458.5,66.0,458.0,73.5,457.5,81.5,456.5,90.0,456.0,98.5,455.0,107.0,455.0,114.5,454.5,123.5,454.0,131.5,453.5,140.0,453.5,148.0,453.5,156.5,453.0" stroke="black" stroke-width="2" fill="none" />
<path d="M158.5,444.0,149.5,445.0,141.5,445.5,133.0,446.0,124.5,446.5,116.0,447.0,107.0,447.5,99.0,447.5,91.0,447.5,83.0,448.0,74.5,448.5,66.5,449.0,58.5,450.0,50.5,450.5,42.0,451.0,34.5,452.0,27.5,452.5,20.0,452.5,12.5,452.5,5.0,453.0" stroke="black" stroke-width="2" fill="none" />
<path d="M1.0,445.5,9.5,445.0,17.5,445.0,26.0,445.0,35.0,444.5,43.5,444.0,51.0,443.5,58.5,443.0,66.5,442.5,74.5,442.0,83.0,441.5,90.5,441.5,99.0,441.0,107.5,440.0,116.5,439.0" stroke="black" stroke-width="2" fill="none" />
<path d="M156.0,428.0,148.0,428.5,140.0,429.0,132.0,429.0,123.5,430.0,115.5,430.0,107.5,431.0,99.5,431.5,91.5,432.5,83.5,433.0,76.0,433.5,68.0,434.0,59.5,434.0,51.5,434.0,43.0,434.5,35.0,435.0,27.0,435.5,19.5,436.0,11.5,436.5,3.5,437.0" stroke="black" stroke-width="2" fill="none" />
<path d="M4.0,429.0,12.5,429.0,20.5,428.0,28.5,427.5,36.5,426.5,44.5,426.0,52.0,426.5,60.0,426.5,67.5,426.5,75.5,426.5,83.0,426.5,91.0,425.5,99.0,425.0" stroke="black" stroke-width="2" fill="none" />
<path d="M155.5,412.0,147.0,412.5,139.0,413.5,131.5,414.0,124.0,415.0,115.5,415.5,108.0,416.0,100.5,416.5,92.5,416.5,84.0,417.0,76.0,417.5,67.5,418.0,59.0,418.0,51.0,417.5,43.0,417.5,35.5,418.0,27.5,419.5,19.0,420.5,11.5,421.5,3.0,422.0" stroke="black" stroke-width="2" fill="none" />
<path d="M2.5,399.0,10.5,398.5,19.0,397.5,27.5,397.0,35.0,396.0,43.0,395.5,51.5,394.5,60.0,393.5,68.5,393.0,77.0,392.5,85.5,392.0,93.0,391.5,101.0,390.5,108.5,389.5,116.5,388.5,124.5,387.5,132.0,387.0,140.0,386.5,148.0,386.0,156.0,385.5" stroke="black" stroke-width="2" fill="none" />
<path d="M157.5,378.5,150.0,379.0,142.0,379.5,133.5,380.5,125.0,381.5,117.5,382.0,109.0,382.5,100.5,383.0,92.0,383.5,84.5,384.0,76.5,384.5,68.5,385.0,60.0,385.0,52.0,386.0,44.5,386.5,35.5,387.5,27.5,388.5,19.0,389.5,10.0,390.0,2.0,390.5" stroke="black" stroke-width="2" fill="none" />
<path d="M2.5,383.0,10.5,382.5,18.5,381.5,27.0,380.5,35.5,380.0,43.5,379.0,52.5,378.0,61.0,377.5,69.0,376.5,76.5,376.0,84.0,375.5,92.0,375.5,100.5,375.0,108.5,375.0,116.0,375.0,124.0,374.0,132.5,373.5,140.0,372.5,148.0,371.5,156.0,371.0" stroke="black" stroke-width="2" fill="none" />
<path d="M157.0,364.0,149.0,364.5,141.0,365.0,133.0,365.5,125.0,366.5,116.5,367.0,108.0,367.5,100.5,368.5,92.5,369.0,85.0,370.0,76.5,370.5,68.5,370.5,60.5,370.5,52.0,370.5,44.0,371.0,35.0,372.0,26.5,372.0,18.0,373.0,9.0,373.5,1.0,374.0" stroke="black" stroke-width="2" fill="none" />
<path d="M2.5,365.0,10.5,364.5,18.5,364.0,27.0,364.0,35.5,364.5,44.0,364.0,52.0,363.5,60.5,363.0,68.5,363.0,76.5,363.0,85.0,362.5,93.0,362.0,100.5,361.5,108.0,360.5,115.5,359.5,124.0,359.0,132.0,358.0,140.0,357.5,148.0,356.5,156.5,356.0" stroke="black" stroke-width="2" fill="none" />
<path d="M155.0,347.5,147.5,348.5,139.5,349.0,131.5,350.0,124.0,350.5,116.0,351.0,108.0,350.5,100.0,350.5,92.0,351.0,83.5,351.5,75.5,352.0,68.0,352.5,60.0,353.0,52.0,354.0,43.5,354.5,36.0,355.5,27.5,356.0,19.0,356.0,10.5,356.5,2.5,356.5" stroke="black" stroke-width="2" fill="none" />
<path d="M2.5,347.5,10.5,346.5,18.5,346.0,26.5,345.0,34.0,344.5,41.5,344.0,50.0,343.5,58.5,343.5,66.5,343.5,74.0,343.5,81.5,343.0,89.5,342.5,97.5,342.0,105.5,341.5,113.5,341.0,121.5,341.0,129.5,341.0,137.5,341.0,145.5,340.5,154.0,340.0" stroke="black" stroke-width="2" fill="none" />
<path d="M156.0,333.0,147.5,333.0,139.0,333.0,131.0,333.0,123.0,333.0,115.0,334.0,107.0,334.5,98.5,335.5,90.5,336.0,82.5,337.0,74.5,337.0,67.0,337.0,59.5,337.0,51.5,337.5,43.5,338.0,36.0,338.5,28.0,339.0,19.5,340.0,11.0,340.5,2.5,341.0" stroke="black" stroke-width="2" fill="none" />
<path d="M3.0,332.0,11.0,332.0,19.0,331.5,27.0,331.5,35.5,331.5,44.0,331.0,51.5,331.0,59.0,330.5,66.5,330.0,74.5,329.5,82.5,329.0,91.0,328.5,99.5,327.5,107.5,327.0,116.0,326.5,124.5,325.5,133.0,324.5,141.5,323.5,149.5,323.0,157.0,323.0" stroke="black" stroke-width="2" fill="none" />
<path d="M156.0,298.5,148.5,299.5,140.5,300.5,132.5,301.0,124.5,302.0,117.0,303.0,109.0,303.5,100.5,304.0,92.5,304.5,84.0,305.0,76.0,305.5,68.5,306.0,60.5,306.5,52.5,307.0,44.5,307.0,36.0,307.5,27.5,307.5,19.5,308.0,11.5,308.0,3.0,308.5" stroke="black" stroke-width="2" fill="none" />
<path d="M3.0,300.0,11.0,299.5,19.0,299.0,27.5,299.0,35.5,299.0,44.0,298.5,52.5,298.5,61.0,298.5,69.0,297.5,77.5,296.5,85.5,296.0,93.5,296.0,101.0,296.0,109.0,295.5,117.0,295.5,124.5,295.0,132.5,294.5,140.5,293.5,149.0,292.5,157.0,291.5" stroke="black" stroke-width="2" fill="none" />
<path d="M156.5,284.5,149.0,285.0,140.5,285.0,132.5,285.5,124.0,285.5,115.5,286.0,107.0,286.5,98.5,286.5,90.5,286.5,82.5,286.5,75.0,287.5,66.5,288.5,58.5,290.0,50.5,291.5,42.5,292.0,34.0,292.5,26.5,292.5,19.0,293.0,11.5,293.5,4.0,294.5" stroke="black" stroke-width="2" fill="none" />
<path d="M5.5,271.5,13.5,271.5,21.0,270.5,29.0,270.0,36.5,269.0,43.5,268.0,51.5,267.5,59.5,266.5,67.0,266.0,74.0,265.5,81.5,265.0,90.0,264.0,98.0,264.0,106.5,263.5,115.5,263.0,124.0,262.5,132.0,262.5,140.0,261.5,148.0,260.5,156.0,260.0" stroke="black" stroke-width="2" fill="none" />
<path d="M156.0,237.0,147.5,237.5,140.0,238.5,132.5,239.0,124.5,240.0,116.5,240.0,108.5,240.5,100.0,240.5,92.0,240.5,84.5,240.5,76.0,241.5,68.0,241.5,59.5,242.0,51.0,243.0,43.0,243.5,35.0,244.0,27.0,244.5,19.0,245.0,11.5,246.0,4.0,246.5" stroke="black" stroke-width="2" fill="none" />
<path d="M5.0,236.5,13.5,236.0,21.5,236.0,29.0,235.5,37.0,234.5,45.0,234.5,52.5,234.0,61.0,234.0,69.0,234.0,77.5,234.0,85.5,233.5,93.5,233.0,101.5,232.5,110.0,232.0,117.5,232.0,126.0,232.0,133.5,231.5,141.0,231.5,148.5,231.0,156.0,230.0" stroke="black" stroke-width="2" fill="none" />
<path d="M157.5,222.0,149.5,221.5,141.5,221.5,133.0,222.0,124.5,223.0,116.5,223.0,108.5,223.5,100.5,224.0,93.0,225.0,84.5,226.0,77.0,227.0,68.5,227.5,60.0,227.5,52.0,227.5,44.0,227.5,36.0,228.0,28.0,228.0,20.5,228.0,13.0,228.5,4.5,228.5" stroke="black" stroke-width="2" fill="none" />
<path d="M1.5,220.0,9.5,219.5,17.5,219.5,26.0,219.5,34.5,219.5,42.5,219.5,50.5,219.0,59.0,219.0,66.5,218.5,74.0,218.0,82.0,217.0,90.0,217.0,98.5,216.5,107.0,216.5,115.0,216.5,123.0,216.0" stroke="black" stroke-width="2" fill="none" />
<path d="M115.0,208.0,108.0,208.0,100.5,208.5,92.5,208.5,84.5,209.5,77.0,210.0,69.0,210.5,60.5,211.5,51.5,212.0,43.5,212.5,35.0,213.0,27.0,213.0,19.0,213.0,11.5,213.0,3.5,213.5" stroke="black" stroke-width="2" fill="none" />
<path d="M4.5,215.0,12.5,207.0,20.5,199.5,28.0,192.0,36.0,184.5,43.5,177.0,51.0,168.5,58.5,160.5,66.5,152.5,74.5,144.5,82.5,137.0" stroke="black" stroke-width="2" fill="none" />
<path d="M82.0,130.5,73.5,138.0,65.0,145.5,57.0,153.5,49.5,161.5,42.0,169.5,34.5,177.0,27.0,184.5,19.5,192.5,12.0,200.0,4.5,208.0" stroke="black" stroke-width="2" fill="none" />
<path d="M5.5,206.5,13.5,206.0,21.5,205.0,29.0,204.0,36.5,203.5,44.5,202.5,52.5,202.5,60.5,202.0,68.5,201.5,77.0,201.0,85.5,201.0,93.5,200.5,100.5,200.0" stroke="black" stroke-width="2" fill="none" />
<path d="M66.0,219.5,58.5,227.5" stroke="black" stroke-width="2" fill="none" />
<path d="M62.5,227.0,70.5,223.0" stroke="black" stroke-width="2" fill="none" />
<path d="M41.5,221.5,33.5,229.0,26.0,236.0" stroke="black" stroke-width="2" fill="none" />
<path d="M26.5,251.0,34.5,243.5,42.5,236.0" stroke="black" stroke-width="2" fill="none" />
<path d="M41.5,229.5,33.5,237.0,26.0,244.0" stroke="black" stroke-width="2" fill="none" />
<path d="M26.5,258.5,34.5,251.5,42.0,244.5" stroke="black" stroke-width="2" fill="none" />
<path d="M27.5,219.5,35.5,212.0,43.0,204.0,50.5,196.5" stroke="black" stroke-width="2" fill="none" />
<path d="M51.0,188.0,43.0,196.0,35.0,203.5,27.0,211.5,19.5,219.5" stroke="black" stroke-width="2" fill="none" />
<path d="M26.5,226.5,34.0,220.0,42.5,212.5" stroke="black" stroke-width="2" fill="none" />
<path d="M44.0,188.0,36.0,195.5,27.5,203.0,19.0,210.0,11.0,217.0" stroke="black" stroke-width="2" fill="none" />
<path d="M4.5,197.0,12.5,196.5,20.5,196.0,28.5,196.0,36.5,196.0,44.0,195.5,51.5,195.0,59.5,194.5,68.0,193.5,76.5,192.5,85.0,192.0,92.5,191.5,100.0,191.5" stroke="black" stroke-width="2" fill="none" />
<path d="M97.5,184.0,89.5,184.0,81.0,184.5,73.5,185.0,66.0,185.0,58.5,185.5,51.5,186.0,43.5,186.0,36.0,187.0,28.0,187.0,20.0,187.5,12.0,188.0,3.5,188.0" stroke="black" stroke-width="2" fill="none" />
<path d="M3.5,186.5,11.5,179.0,19.0,171.5,27.0,164.5,35.0,157.0,43.5,150.0,51.0,143.0,58.0,136.5,65.5,129.5,73.5,122.0,82.0,114.5,90.5,107.0,99.0,100.0,107.0,92.5" stroke="black" stroke-width="2" fill="none" />
<path d="M107.0,100.0,99.0,107.5,91.0,115.0,83.0,122.5,75.5,130.0,67.5,137.0,59.5,144.5,51.5,152.0,43.5,158.5,35.0,166.0,27.0,173.5,19.5,180.5,11.0,188.0,3.0,195.5" stroke="black" stroke-width="2" fill="none" />
<path d="M4.5,182.0,12.5,181.5,20.5,181.5,28.0,180.5,36.0,179.5,43.5,178.5,51.5,178.0,59.5,177.5,67.0,177.0,75.5,176.5,83.5,176.0,91.5,175.5" stroke="black" stroke-width="2" fill="none" />
<path d="M81.5,156.0,73.5,163.5,65.5,170.5" stroke="black" stroke-width="2" fill="none" />
<path d="M65.5,159.5,57.5,160.0" stroke="black" stroke-width="2" fill="none" />
<path d="M58.5,154.0,66.5,153.0,74.5,152.5" stroke="black" stroke-width="2" fill="none" />
<path d="M78.5,154.5,69.0,161.5,77.0,156.5" stroke="black" stroke-width="2" fill="none" />
<path d="M65.0,142.0,57.5,143.0,50.5,143.5,43.0,144.0,35.5,144.0,28.0,144.0,20.5,144.5,13.0,145.0,5.5,145.0" stroke="black" stroke-width="2" fill="none" />
<path d="M4.0,143.5,12.0,142.0,19.5,141.5,27.0,140.5,35.0,139.0,42.5,138.5,51.0,138.0,59.0,137.5,67.0,137.0,74.5,136.0,82.5,136.0,90.5,135.5,98.5,135.0,107.0,135.0,115.5,135.5" stroke="black" stroke-width="2" fill="none" />
<path d="M109.5,123.0,117.5,115.0" stroke="black" stroke-width="2" fill="none" />
<path d="M116.5,106.5,108.5,114.0" stroke="black" stroke-width="2" fill="none" />
<path d="M104.5,113.5,112.5,109.5" stroke="black" stroke-width="2" fill="none" />
<path d="M118.0,73.0,109.5,81.0,101.5,88.5,93.5,96.0,85.0,104.0,76.5,111.5,68.5,119.5,61.0,127.5,53.0,135.0,44.5,143.0,36.0,150.5,28.0,158.0,19.5,165.0,11.5,172.5,4.0,180.0" stroke="black" stroke-width="2" fill="none" />
<path d="M4.0,175.0,12.0,174.0,20.0,173.5,28.0,172.5,36.0,172.0,44.0,171.0,52.0,170.5,60.0,169.5,68.0,169.0,76.0,168.5,84.0,168.0,92.5,168.0,100.5,167.0" stroke="black" stroke-width="2" fill="none" />
<path d="M100.0,158.5,92.0,159.0,84.0,159.0,75.5,159.5,68.0,160.5,60.0,161.5,52.5,162.0,44.5,163.5,37.0,164.0,29.5,165.0,21.5,166.0,13.5,166.5,5.5,167.5" stroke="black" stroke-width="2" fill="none" />
<path d="M5.0,171.0,13.0,171.0,21.0,170.0,29.5,169.5,37.5,169.0" stroke="black" stroke-width="2" fill="none" />
<path d="M51.0,177.0,59.0,170.0,66.5,162.5,74.5,155.5,82.5,149.0,90.5,141.5" stroke="black" stroke-width="2" fill="none" />
<path d="M96.0,144.0,104.0,148.0,112.5,154.0" stroke="black" stroke-width="2" fill="none" />
<path d="M115.0,151.0,107.5,152.0,99.0,152.5,90.5,153.5,82.5,154.0,75.0,154.5,67.0,155.0,59.0,155.5,51.5,156.0,44.0,156.0,36.0,156.5,28.0,157.5,20.5,157.5,12.5,157.5,4.0,157.5" stroke="black" stroke-width="2" fill="none" />
<path d="M3.5,157.5,11.5,150.5,20.0,143.0,28.5,136.0,36.5,128.5,45.0,120.5,52.0,113.0,59.5,105.5,67.0,97.5,75.5,89.0,84.0,81.0,92.0,73.5,100.0,66.0,109.0,58.0,117.5,50.5,126.0,42.5" stroke="black" stroke-width="2" fill="none" />
<path d="M123.5,50.5,115.5,58.0,107.5,65.5,100.0,73.5,92.0,81.5,84.0,89.5,75.5,97.5,67.0,105.5,59.0,113.0,50.5,120.0,42.0,127.5,34.0,135.0,26.0,143.0,18.0,150.0,9.5,157.0,1.5,164.0" stroke="black" stroke-width="2" fill="none" />
<path d="M4.5,163.0,12.5,162.5" stroke="black" stroke-width="2" fill="none" />
<path d="M18.5,162.0,27.0,161.5,35.5,160.5" stroke="black" stroke-width="2" fill="none" />
<path d="M44.5,152.0,36.0,152.5,28.0,153.0,20.0,153.5,12.5,153.0,4.5,153.5" stroke="black" stroke-width="2" fill="none" />
<path d="M5.0,150.5,13.0,150.0,21.0,149.0,29.0,149.0,37.0,149.0,44.5,149.0,51.5,148.5,59.0,148.0,66.5,147.5,74.5,147.0,82.5,146.0,90.5,145.5,98.5,144.5,107.0,143.5,115.5,143.0" stroke="black" stroke-width="2" fill="none" />
<path d="M114.0,123.5,106.5,124.0,98.5,125.0,90.5,125.5,82.5,126.5,74.5,126.5,66.0,127.0,58.0,127.5,49.5,128.0,42.0,129.0,33.5,129.5,25.0,131.5,17.0,132.5,9.0,134.0,1.0,134.5" stroke="black" stroke-width="2" fill="none" />
<path d="M2.5,136.5,10.5,136.5,19.0,136.0,27.5,135.5,35.5,135.0,43.5,134.0,51.5,134.0,59.5,133.0" stroke="black" stroke-width="2" fill="none" />
<path d="M66.5,125.0,58.5,125.0,50.5,125.5,42.5,126.0,34.5,127.0,26.5,127.0,18.0,127.5,9.5,127.5,1.5,128.5" stroke="black" stroke-width="2" fill="none" />
<path d="M3.5,130.5,11.5,122.5,20.0,115.0,28.5,108.0,37.0,101.0,45.5,94.0,53.5,86.5,61.5,78.5,69.5,71.0,77.5,64.0,85.0,56.5,92.0,49.0,99.5,41.5,107.5,34.0,116.0,26.0,124.0,18.0,131.5,11.0,139.5,3.5" stroke="black" stroke-width="2" fill="none" />
<path d="M131.5,2.5,123.5,10.5,115.5,18.5,107.5,26.5,99.5,34.0,91.5,42.0,83.5,49.5,75.0,56.5,67.5,64.0,60.0,71.5,53.0,79.0,44.5,86.5,36.0,94.0,27.5,101.5,19.0,109.0,10.5,116.5,2.5,124.0" stroke="black" stroke-width="2" fill="none" />
<path d="M2.0,125.0,10.0,124.0,18.5,123.0,27.0,123.0,35.5,123.5,44.0,123.0,52.0,122.0,60.0,121.0,68.0,120.0,75.5,120.0,83.0,119.0,91.0,119.0,99.0,118.5,107.0,118.5,115.5,118.5" stroke="black" stroke-width="2" fill="none" />
<path d="M123.0,111.0,115.5,111.5,107.5,111.5,100.0,112.0,92.0,112.5,84.5,112.5,76.0,113.5,68.0,114.0,59.5,114.5,51.0,115.0,43.0,115.0,34.5,115.5,26.5,116.5,19.0,117.5,11.5,118.0,4.0,118.0" stroke="black" stroke-width="2" fill="none" />
<path d="M4.0,116.5,12.0,115.5,20.0,114.5,27.5,114.0,35.0,113.0,43.5,112.0,51.0,111.5,59.5,110.5,67.5,110.0,75.5,108.5,83.0,107.5" stroke="black" stroke-width="2" fill="none" />
<path d="M68.0,117.5,60.0,117.5,51.5,118.0,43.0,119.0,35.0,119.0,26.5,119.5,18.5,120.0,10.0,120.5,1.5,121.0" stroke="black" stroke-width="2" fill="none" />
<path d="M3.5,116.0,11.5,109.0,19.0,101.5,26.5,94.0,34.0,87.0,42.0,80.0,50.0,72.0,58.5,64.5,67.5,57.0,76.5,49.5,85.0,41.5,93.0,34.0,100.5,26.0,108.5,17.5,116.5,9.5,125.0,2.0" stroke="black" stroke-width="2" fill="none" />
<path d="M115.5,3.5,107.5,11.0,100.0,19.0,91.5,27.0,83.5,34.5,75.0,41.5,66.5,49.0,58.0,56.5,49.5,63.5,41.0,70.5,33.0,78.0,25.0,85.5,17.5,93.0,9.5,101.0,1.0,108.5" stroke="black" stroke-width="2" fill="none" />
<path d="M2.0,107.0,10.0,106.0,18.5,105.5,26.5,105.0,35.0,105.0,43.0,104.0,51.0,104.0,59.5,103.0,67.5,102.5,76.0,102.0,84.0,101.5,91.5,100.5" stroke="black" stroke-width="2" fill="none" />
<path d="M115.5,67.5,108.0,74.5,100.0,82.0,92.0,89.5,84.5,96.5,76.5,104.0,68.5,111.5,60.0,119.5,52.0,127.5,43.5,135.5,35.0,143.0,27.5,150.5,20.0,158.0,11.5,165.0,3.0,173.0" stroke="black" stroke-width="2" fill="none" />
<path d="M3.0,146.0,11.5,138.0,19.5,130.0,27.5,123.0,36.0,116.0,44.0,109.0,52.0,101.5,60.0,94.0,68.0,86.5,75.5,80.0,83.0,73.0,91.0,65.5,99.0,58.0,107.0,50.5,115.5,42.5,123.5,35.5,131.5,28.0,139.5,20.5" stroke="black" stroke-width="2" fill="none" />
<path d="M139.0,13.0,131.0,20.0,122.5,26.5,114.5,33.5,107.0,41.0,99.5,48.0,92.0,55.5,84.5,63.0,77.0,71.0,69.0,78.0,61.0,85.5,53.0,93.5,44.5,101.0,36.5,109.0,28.0,116.0,19.5,123.0,11.0,130.0,3.0,137.5" stroke="black" stroke-width="2" fill="none" />
<path d="M4.0,113.0,12.0,112.0,19.5,111.5,27.0,110.5,35.0,109.0,43.0,108.0,51.0,106.5,59.0,105.5,66.5,104.5,75.0,103.5,83.0,103.0,91.0,102.5,99.0,102.0,107.5,102.0,115.5,102.0,124.0,101.5,132.5,101.5" stroke="black" stroke-width="2" fill="none" />
<path d="M130.0,92.5,122.5,93.5,114.0,94.5,106.5,95.5,99.0,96.5,91.0,97.0,83.0,98.0,75.0,98.5,67.5,99.0,59.5,99.5,51.0,100.0,43.0,100.5,35.0,100.5,27.0,101.0,18.5,101.0,10.0,101.0,1.5,101.0" stroke="black" stroke-width="2" fill="none" />
<path d="M2.5,100.0,10.5,92.5,18.0,85.0,26.0,77.5,34.5,70.0,43.0,62.5,51.0,55.5,58.5,48.5,66.5,41.0,74.5,34.0,82.5,27.0,90.0,19.5,97.5,12.5,105.5,5.0" stroke="black" stroke-width="2" fill="none" />
<path d="M99.0,4.5,91.0,12.0,82.5,19.5,74.5,27.0,66.5,35.0,58.0,42.5,50.0,49.0,41.5,55.5,33.0,62.5,25.5,69.5,17.5,77.0,9.5,84.5,2.0,92.5" stroke="black" stroke-width="2" fill="none" />
<path d="M2.0,92.5,10.5,92.5,18.5,92.5,27.0,92.0,35.5,92.0,44.0,91.5,52.5,92.0,61.0,92.0,69.5,92.0,77.5,91.5,85.5,90.5,93.5,90.5,101.0,89.5,109.0,89.0,116.5,88.0,123.5,87.0,131.5,86.5,139.5,85.5" stroke="black" stroke-width="2" fill="none" />
<path d="M131.5,78.0,123.5,79.0,115.5,80.0,107.5,80.5,99.5,81.5,91.5,82.5,83.5,83.0,75.5,83.5,67.5,83.0,59.0,83.5,50.0,84.0,42.0,84.5,34.0,84.5,26.0,84.5,18.5,84.5,10.5,85.5,3.0,86.0" stroke="black" stroke-width="2" fill="none" />
<path d="M3.0,87.0,11.0,80.0,18.5,72.5,25.5,65.0,33.0,57.0,41.0,49.5,49.0,41.5,57.0,34.0,65.5,26.5,74.0,19.0,81.5,11.5,89.5,4.0" stroke="black" stroke-width="2" fill="none" />
<path d="M81.5,3.5,74.0,11.0,66.5,19.5,59.0,27.0,51.0,34.5,43.0,42.0,34.5,50.0,26.0,58.0,17.5,65.5,9.0,72.5,1.5,80.0" stroke="black" stroke-width="2" fill="none" />
<path d="M3.0,80.5,11.5,80.0,19.5,80.0,28.0,80.0,36.5,79.5,44.5,78.5,52.5,78.5,60.5,78.0,68.0,77.5,76.0,77.5,84.0,77.5,91.5,77.0,99.0,76.0" stroke="black" stroke-width="2" fill="none" />
<path d="M92.0,94.5,84.0,95.0,76.0,95.0,68.0,95.5,60.0,96.0,51.5,96.5,43.5,96.5,35.0,96.5,27.0,96.5,18.5,96.5,10.5,96.5,3.0,97.0" stroke="black" stroke-width="2" fill="none" />
<path d="M3.0,89.5,11.0,89.0,18.5,88.0,26.5,87.5,35.0,87.5,43.0,87.5,51.0,87.5,59.5,87.5,67.5,87.5,76.5,87.0,85.0,86.5,92.5,86.0,100.5,85.0" stroke="black" stroke-width="2" fill="none" />
<path d="M132.5,69.0,125.0,69.5,117.0,69.5,109.0,70.5,101.5,71.0,93.5,71.0,85.0,71.5,77.0,72.0,69.0,73.5,61.5,74.5,53.5,75.5,45.5,76.5,37.5,77.0,29.5,78.0,21.0,78.5,12.5,78.5,4.5,79.5" stroke="black" stroke-width="2" fill="none" />
<path d="M4.0,73.0,12.0,72.0,19.5,71.5,27.0,71.0,35.5,70.5,43.5,69.5,51.5,69.5,60.0,69.0,68.5,69.0,76.5,68.5,84.5,67.5,93.0,67.5,100.5,67.0" stroke="black" stroke-width="2" fill="none" />
<path d="M139.0,62.0,130.5,62.0,122.5,62.5,114.5,62.5,106.0,62.5,97.5,62.5,89.5,62.5,81.5,63.0,73.5,64.0,65.0,65.0,57.0,66.0,49.0,67.0,41.5,68.0,33.0,68.0,25.5,68.0,18.0,68.0,11.0,68.0,3.0,69.0" stroke="black" stroke-width="2" fill="none" />
<path d="M3.5,69.0,12.0,62.0,20.0,55.0,28.0,47.5,36.0,39.5,43.5,32.5,51.5,25.0,59.5,17.0,67.0,9.0,75.0,1.5" stroke="black" stroke-width="2" fill="none" />
<path d="M67.5,6.0,59.5,13.5,51.0,20.5,43.0,28.0,34.5,35.0,26.0,42.0,18.5,49.0,10.5,56.5,2.5,63.5" stroke="black" stroke-width="2" fill="none" />
<path d="M2.5,64.0,10.5,63.5,19.0,63.5,27.0,63.0,34.5,62.5,42.5,62.0,51.0,61.5,59.0,61.5,67.5,61.5,75.5,61.0,83.5,60.5,91.5,60.0,99.0,60.0,107.0,60.0" stroke="black" stroke-width="2" fill="none" />
<path d="M148.5,52.5,140.5,53.0,132.5,53.5,124.5,53.5,116.5,54.5,109.0,55.0,101.5,56.0,93.5,57.0,85.5,57.5,77.5,58.0,69.0,57.5,60.5,58.0,52.5,59.0,44.0,59.5,36.0,60.0,27.5,60.0,19.5,60.5,12.0,61.5,3.5,62.0" stroke="black" stroke-width="2" fill="none" />
<path d="M5.0,58.0,13.0,57.5,20.5,56.5,28.0,56.0,35.0,55.0,43.0,54.5,51.5,54.0,60.0,53.5,68.5,53.0,76.5,52.5,84.5,52.0,92.5,51.5,100.5,51.0,108.5,51.0" stroke="black" stroke-width="2" fill="none" />
<path d="M153.5,44.0,146.0,44.0,138.5,44.5,131.5,45.0,123.5,45.0,116.0,46.0,108.0,46.0,100.0,46.5,92.0,47.0,83.5,47.0,75.5,47.5,68.0,48.5,60.5,49.0,53.0,49.5,45.0,50.0,37.0,51.0,29.0,52.0,20.5,53.0,12.0,54.5,4.0,55.0" stroke="black" stroke-width="2" fill="none" />
<path d="M3.0,55.5,11.0,48.0,19.0,41.0,27.0,33.5,35.5,27.0,43.5,20.0,51.5,12.5,59.5,5.0" stroke="black" stroke-width="2" fill="none" />
<path d="M51.0,4.5,43.0,12.0,34.5,19.0,26.0,26.5,18.0,34.5,10.0,42.0,2.5,49.5" stroke="black" stroke-width="2" fill="none" />
<path d="M2.5,50.0,11.0,49.5,19.5,49.0,28.0,48.5,36.5,48.5,44.5,48.0,53.0,47.5,61.0,46.5,68.5,46.0,76.5,46.0,84.5,45.0,92.5,44.5,100.5,44.5" stroke="black" stroke-width="2" fill="none" />
<path d="M156.0,35.5,148.0,36.0,140.0,36.5,132.0,37.5,124.0,38.0,116.0,39.0,108.0,39.5,100.0,40.5,92.0,41.0,84.0,42.0,76.0,42.5,68.0,43.0,60.0,43.5,52.5,44.0,44.0,44.5,35.5,44.5,27.5,44.5,19.0,44.5,10.5,44.5,2.5,45.0" stroke="black" stroke-width="2" fill="none" />
<path d="M3.0,41.5,11.0,41.5,19.0,41.5,27.0,41.0,35.0,40.5,42.5,40.0,51.0,39.5,59.5,39.0,68.0,39.0,76.5,39.0,85.0,38.0,93.0,38.0,101.0,37.0,109.5,36.5" stroke="black" stroke-width="2" fill="none" />
<path d="M155.5,26.5,148.0,27.5,140.0,28.5,132.5,29.0,124.5,30.5,117.0,31.0,109.5,32.0,101.5,33.0,93.5,33.5,85.5,34.5,77.5,35.0,69.0,35.5,60.5,36.0,51.5,36.0,43.0,36.5,35.0,36.5,27.0,37.5,18.5,38.0,10.0,38.5,2.0,39.0" stroke="black" stroke-width="2" fill="none" />
<path d="M4.0,41.0,11.5,33.5,19.5,26.0,27.5,18.5,35.5,11.0,44.0,4.0" stroke="black" stroke-width="2" fill="none" />
<path d="M34.5,4.0,26.5,11.5,19.0,18.5,11.0,25.5,3.0,32.5" stroke="black" stroke-width="2" fill="none" />
<path d="M3.5,33.5,11.5,32.5,19.5,31.5,27.5,31.0,36.0,31.0,44.5,31.0,52.0,31.0,60.0,31.0,68.5,31.0,76.5,30.5,84.5,30.0,92.5,29.5,100.5,29.0,108.5,28.5,116.0,27.5" stroke="black" stroke-width="2" fill="none" />
<path d="M155.0,21.5,147.0,22.0,139.0,22.5,131.5,23.0,124.0,23.0,116.0,23.5,108.0,24.5,100.5,24.5,92.5,24.5,84.0,24.5,76.0,25.5,68.0,26.0,59.5,26.0,51.5,26.0,43.5,26.0,36.0,26.5,28.0,26.5,20.0,27.0,13.0,27.5,5.0,28.0" stroke="black" stroke-width="2" fill="none" />
<path d="M4.5,24.5,12.5,24.0,21.0,24.0,29.5,23.5,37.5,23.5,45.5,23.0,53.0,22.5,61.0,22.0,68.5,21.5,76.5,21.0,84.5,20.5,92.5,20.0,100.0,20.5,108.0,20.0,116.0,19.5,124.5,19.0" stroke="black" stroke-width="2" fill="none" />
<path d="M162.5,13.0,154.5,14.0,146.5,14.5,139.0,15.0,131.5,15.5,124.5,16.0,117.0,16.0,109.0,16.0,101.0,16.0,93.0,17.0,85.0,17.5,77.0,18.0,69.5,18.0,61.5,18.5,54.0,19.0,46.5,19.0,38.0,19.5,29.5,19.5,21.5,19.0,13.5,19.0,5.5,19.5" stroke="black" stroke-width="2" fill="none" />
<path d="M4.0,17.5,12.0,16.5,20.5,16.0,28.5,15.0,37.0,14.5,45.0,14.0,53.0,13.5,61.0,14.0,69.0,13.5,77.5,13.0,85.5,12.0,93.0,12.0,100.5,11.5,108.0,11.0,115.5,11.0,123.0,11.0" stroke="black" stroke-width="2" fill="none" />
<path d="M170.5,2.5,162.5,3.0,154.5,3.0,147.0,4.0,139.0,4.5,131.0,5.0,122.5,5.5,115.0,6.0,107.0,7.5,99.5,8.5,92.0,9.0,84.0,10.5,76.5,11.0,68.5,11.5,60.5,12.0,52.5,12.5,45.0,13.0,36.5,13.5,29.0,14.0,21.0,14.5,12.0,14.5,4.0,14.5" stroke="black" stroke-width="2" fill="none" />
<path d="M2.0,18.5,9.0,11.5,16.5,4.0" stroke="black" stroke-width="2" fill="none" />
<path d="M9.5,4.0,1.5,11.5" stroke="black" stroke-width="2" fill="none" />
<path d="M5.5,10.0,14.0,9.5,22.0,8.5,29.5,8.0,37.5,7.5,45.0,7.0,52.0,6.0,59.0,5.5,66.5,5.0,74.5,4.0,82.5,3.5,90.5,3.5,99.0,3.0,107.5,2.5,115.5,2.0,123.5,1.0" stroke="black" stroke-width="2" fill="none" />
<path d="M170.5,-7.5,162.5,-6.5,154.5,-6.5,146.0,-6.0,138.0,-5.5,129.5,-5.0,122.0,-4.0,113.5,-3.5,105.0,-1.5,97.0,-0.5,89.0,1.0,81.0,1.5,73.0,2.0,65.5,2.0,58.0,2.0,51.5,2.0,44.5,3.0,36.5,3.5,28.5,3.5,21.0,4.0,13.0,4.0,5.0,4.5" stroke="black" stroke-width="2" fill="none" />
<path d="M1.5,24.5,9.5,16.5,17.5,9.0,25.5,2.0" stroke="black" stroke-width="2" fill="none" />
<path d="M154.5,80.0,165.0,81.0,168.5,83.0" stroke="black" stroke-width="2" fill="none" />
<path d="M159.0,79.5,167.5,78.0,175.5,77.0,183.5,77.5,191.0,77.5,199.0,76.5,207.0,76.0,214.5,76.0,222.5,75.5" stroke="black" stroke-width="2" fill="none" />
<path d="M158.5,79.0,154.5,81.0,152.0,89.0,152.0,97.5,152.0,105.5,151.0,113.5,150.5,121.0,150.5,129.5,151.0,137.5,150.5,145.0,150.5,153.0,149.5,161.0,150.0,168.5,150.0,176.5,149.5,184.0,148.5,192.0,148.5,199.5,149.0,208.0,147.5,216.0,143.5,223.5,147.5,228.5,145.5,236.5" stroke="black" stroke-width="2" fill="none" />
<path d="M140.0,251.5,137.5,248.5,129.5,247.5,121.5,247.5,120.0,248.5,119.0,240.5" stroke="black" stroke-width="2" fill="none" />
<path d="M106.0,155.0,98.0,152.5" stroke="black" stroke-width="2" fill="none" />
<path d="M96.0,151.5,97.0,148.5,105.5,148.5,114.5,156.5" stroke="black" stroke-width="2" fill="none" />
<path d="M57.0,373.0,57.0,373.0,59.5,381.5,63.5,373.5,64.0,382.0" stroke="black" stroke-width="2" fill="none" />
<path d="M362.5,259.0,371.0,259.0,378.5,259.0,386.5,258.5" stroke="black" stroke-width="2" fill="none" />
<path d="M362.0,251.5,370.0,251.0,378.5,251.5,386.5,251.5,395.0,251.0,403.0,250.5,411.5,250.5,419.5,250.0,427.5,249.5,435.5,249.0,443.5,249.0,451.5,248.5,459.0,248.5,467.0,248.0,475.5,246.5,483.5,246.0,492.0,245.5,500.5,246.0,509.0,245.5,517.0,245.0" stroke="black" stroke-width="2" fill="none" />
<path d="M515.5,237.0,508.0,237.0,500.0,237.5,492.0,237.5,484.5,238.0,476.0,238.0,467.5,239.0,459.0,239.0,451.0,239.0,442.5,239.0,435.0,239.5,427.5,241.0,420.0,241.5,412.0,241.5,403.5,242.0,395.5,242.5,387.0,243.5,379.0,244.0,370.5,244.5,362.5,245.5" stroke="black" stroke-width="2" fill="none" />
<path d="M363.5,239.0,371.5,237.5,379.5,236.5,387.0,235.5,395.0,234.5,402.5,233.0,411.0,232.5,419.0,232.0,427.0,231.5,435.0,231.5,443.5,230.5,451.0,230.5,459.0,230.0,467.0,229.5,475.0,229.0,483.5,229.5,491.5,229.0,499.5,229.0,507.5,228.5,515.0,228.0" stroke="black" stroke-width="2" fill="none" />
<path d="M515.5,219.0,507.5,219.5,500.0,220.5,492.0,221.5,484.5,222.5,476.0,222.5,468.0,223.0,460.0,223.5,451.5,224.5,443.5,225.0,435.5,225.5,427.0,226.0,419.0,226.0,411.0,227.0,403.0,227.5,395.0,228.0,387.0,228.5,379.5,229.0,371.5,229.5,364.0,230.0" stroke="black" stroke-width="2" fill="none" />
<path d="M365.0,221.0,373.0,220.5,380.5,220.5,388.5,220.0,396.5,220.0,404.5,220.0,412.0,219.5,419.5,219.0,427.0,218.5,435.0,217.5,442.5,216.5,451.5,216.0,460.0,215.5,468.0,215.0,475.5,214.5,483.5,214.0,492.0,213.0,500.0,212.5,508.5,211.5,517.0,211.0" stroke="black" stroke-width="2" fill="none" />
<path d="M387.0,173.5,379.0,174.5,370.5,175.0,362.5,176.0" stroke="black" stroke-width="2" fill="none" />
<path d="M362.0,167.5,370.5,166.5,379.0,166.0,387.0,165.5" stroke="black" stroke-width="2" fill="none" />
<path d="M388.5,156.5,381.0,157.0,372.5,157.5,364.5,158.5" stroke="black" stroke-width="2" fill="none" />
<path d="M364.5,149.5,372.5,149.0,380.0,148.5" stroke="black" stroke-width="2" fill="none" />
<path d="M381.0,139.5,373.5,139.5,365.5,140.0" stroke="black" stroke-width="2" fill="none" />
<path d="M365.0,134.0,372.5,133.0,380.0,132.0" stroke="black" stroke-width="2" fill="none" />
<path d="M380.5,125.5,372.5,126.5,364.5,127.0" stroke="black" stroke-width="2" fill="none" />
<path d="M362.5,119.5,370.5,118.5,379.0,118.0" stroke="black" stroke-width="2" fill="none" />
<path d="M378.0,110.0,369.5,110.0,361.5,110.5" stroke="black" stroke-width="2" fill="none" />
<path d="M363.5,101.5,371.5,101.0" stroke="black" stroke-width="2" fill="none" />
<path d="M372.5,94.0,364.0,94.5" stroke="black" stroke-width="2" fill="none" />
</svg>