<svg xmlns="http://www.w3.org/2000/svg" version="1.1"><polyline points="2.0,1.5,2.5,9.5,2.5,17.5,2.5,25.5,2.5,33.5,2.5,41.5,3.0,49.5,4.0,57.0,4.5,65.0,4.5,72.5,4.5,81.0,4.5,89.0,4.0,97.0,3.5,105.5,3.5,114.5,3.5,123.0,3.5,131.0,3.0,138.5,3.0,146.5,3.0,154.5,3.0,162.5,2.5,170.5,2.5,178.5,2.5,186.0,2.5,194.0,3.0,202.0,3.0,210.0,3.0,218.0,3.5,226.0,4.0,234.5,4.0,242.5,4.0,250.5,4.0,258.5,3.5,266.5,3.0,275.0,3.0,283.0,3.0,291.0,3.0,298.5,3.5,306.5,3.0,314.5,3.0,322.5,3.0,330.5,2.5,338.5,2.5,346.5,2.5,354.0,2.5,361.5,2.0,369.5,2.0,377.5,1.5,385.5,1.0,394.0,1.0,402.0,1.0,410.0,2.0,417.5,2.0,425.5,2.0,434.0,2.0,442.5,2.5,450.5,2.5,459.0,3.0,467.5,3.5,475.5,3.5,484.0,3.5,492.0,3.0,500.0,3.0,507.5,3.5,515.0,3.5,523.0,3.0,531.0,3.0,538.5,2.5,546.0,2.5,553.5,3.0,561.5,2.5,569.5,2.5,578.0,2.5,586.0,3.0,594.5,3.0,603.0,3.5,611.0,4.0,619.0,4.0,627.0,4.5,635.0,5.0,643.0,5.0,651.0,4.5,658.5,4.5,666.5,4.0,674.0,4.0,682.0,12.0,682.5,20.0,683.0,28.0,683.0,36.0,683.5,44.0,683.5,52.0,683.0,59.5,683.0,67.5,682.5,75.0,682.5,83.0,682.5,90.5,682.5,98.5,682.0,106.0,681.5,114.0,681.5,122.0,681.5,130.0,681.5,138.5,682.0,146.5,682.0,154.5,682.5,162.5,683.0,170.5,683.0,178.5,683.0,186.5,683.0,194.5,682.5,202.5,682.0,210.5,682.0,218.5,682.5,226.5,683.0,234.5,683.0,242.5,683.5,250.5,683.5,258.5,684.0,267.0,684.0,275.0,684.0,283.0,684.0,291.0,684.0,299.0,684.0,306.5,683.5,314.5,683.5,322.0,683.5,330.0,683.5,338.0,683.5,346.0,683.5,354.0,684.0,362.5,684.5,370.5,684.5,378.5,683.5,386.5,683.0,395.0,683.0,403.0,683.0,411.0,682.5,419.5,682.5,427.5,682.0,435.0,682.5,443.0,682.5,451.0,682.5,459.0,682.0,466.5,682.0,474.5,681.5,482.0,682.0,490.0,682.0,498.0,682.0,506.0,682.5" stroke="black" stroke-width="2" fill="none" />
<polyline points="378.5,579.0,370.5,586.5,362.5,593.5,354.5,601.0" stroke="black" stroke-width="2" fill="none" />
<polyline points="349.5,593.0,357.5,592.5,365.0,592.0" stroke="black" stroke-width="2" fill="none" />
<polyline points="373.0,585.0,365.0,585.0,357.0,585.5,349.5,586.0" stroke="black" stroke-width="2" fill="none" />
<polyline points="348.5,576.5,356.0,576.5,363.5,577.0,371.5,577.0" stroke="black" stroke-width="2" fill="none" />
<polyline points="379.0,569.5,370.5,577.0,362.5,584.5,355.0,592.5,348.0,600.0,341.0,607.5" stroke="black" stroke-width="2" fill="none" />
<polyline points="330.0,609.0,338.0,601.0,346.5,593.5,354.5,585.5,362.5,577.5,371.0,569.5,379.5,561.5,387.5,553.5,395.5,545.5,403.5,538.0" stroke="black" stroke-width="2" fill="none" />
<polyline points="404.5,531.5,396.5,539.0,388.5,546.0,380.5,553.5,372.0,561.5,363.5,568.5,355.0,576.5,347.0,584.5,339.0,592.0,330.5,600.0,322.5,607.0" stroke="black" stroke-width="2" fill="none" />
<polyline points="324.0,608.5,332.5,608.0,341.0,607.0" stroke="black" stroke-width="2" fill="none" />
<polyline points="347.5,598.5,340.0,599.0,332.5,599.5,324.0,600.0,316.0,600.5,308.0,600.5,300.0,601.0,292.0,601.0" stroke="black" stroke-width="2" fill="none" />
<polyline points="292.0,593.0,300.0,592.5,308.0,592.0,316.0,591.5,324.5,591.5,333.0,591.0" stroke="black" stroke-width="2" fill="none" />
<polyline points="330.5,583.0,322.5,583.5,315.0,584.0,307.0,584.0,299.0,584.5,291.0,585.0" stroke="black" stroke-width="2" fill="none" />
<polyline points="290.0,578.0,298.0,577.0,305.5,576.5,314.0,576.5,322.5,576.0" stroke="black" stroke-width="2" fill="none" />
<polyline points="332.0,554.5,324.0,562.0,315.5,570.0,307.5,578.0,299.5,586.0,291.5,594.0,283.5,601.5" stroke="black" stroke-width="2" fill="none" />
<polyline points="284.5,610.0,292.5,602.5,300.5,595.0,308.5,587.5,316.0,580.5,324.0,573.5,332.0,566.0,340.0,558.0,348.0,551.0,356.0,544.0,364.0,537.5,372.0,529.5,380.0,522.5,388.0,515.5,396.0,508.0,403.5,500.5" stroke="black" stroke-width="2" fill="none" />
<polyline points="404.0,493.5,396.0,500.5,388.0,507.5,379.5,515.0,370.5,522.0,363.0,529.5,354.5,536.5,346.5,543.0,338.5,550.0,331.0,558.0,323.0,565.5,315.0,573.0,307.0,580.0,299.0,587.5,291.0,595.0,283.0,602.5" stroke="black" stroke-width="2" fill="none" />
<polyline points="283.0,592.5,291.5,584.5,300.0,577.0,308.0,569.5,316.0,562.0,323.5,555.0,331.5,547.5" stroke="black" stroke-width="2" fill="none" />
<polyline points="337.5,542.5,345.5,536.0,354.0,528.5,362.5,520.5,371.0,513.5,379.5,506.0,388.0,498.5,396.0,490.5,404.5,483.0" stroke="black" stroke-width="2" fill="none" />
<polyline points="404.0,475.0,396.0,482.5,387.5,490.5,379.5,498.5,371.5,506.0,363.5,514.0,355.0,521.5,346.5,529.0,338.5,536.0" stroke="black" stroke-width="2" fill="none" />
<polyline points="332.0,539.5,323.5,547.5,315.5,555.0,307.5,562.5,299.5,570.0,291.0,578.0,283.0,585.0" stroke="black" stroke-width="2" fill="none" />
<polyline points="284.0,576.0,292.0,569.0,299.5,562.0,307.5,554.5,315.5,547.0,324.0,539.0,332.0,531.5" stroke="black" stroke-width="2" fill="none" />
<polyline points="332.5,523.0,324.5,531.0,316.5,538.5,308.5,546.0,300.0,553.5,292.0,561.0,283.5,568.0" stroke="black" stroke-width="2" fill="none" />
<polyline points="291.0,570.0,299.0,569.5,307.0,568.5,315.0,567.5,323.0,566.5" stroke="black" stroke-width="2" fill="none" />
<polyline points="348.0,568.0,356.0,568.0,365.0,568.0,373.0,568.0,381.0,568.0" stroke="black" stroke-width="2" fill="none" />
<polyline points="389.5,558.5,381.5,558.5,373.5,558.5,365.5,558.5,357.5,559.0,349.5,559.5" stroke="black" stroke-width="2" fill="none" />
<polyline points="348.5,553.0,356.5,552.5,363.5,552.0,371.5,551.5,380.0,551.0,388.5,551.0" stroke="black" stroke-width="2" fill="none" />
<polyline points="405.5,523.0,397.5,531.0,389.5,538.5,381.0,546.0,372.5,553.0,364.0,560.0,355.5,567.5,346.5,576.0,338.0,583.5,330.0,590.5,322.0,598.0,314.0,605.5" stroke="black" stroke-width="2" fill="none" />
<polyline points="316.5,610.0,309.0,610.0,301.5,610.5,293.5,611.0" stroke="black" stroke-width="2" fill="none" />
<polyline points="292.0,619.0,300.0,618.5" stroke="black" stroke-width="2" fill="none" />
<polyline points="290.5,620.0,298.5,611.5,306.5,603.5,314.0,595.5,321.5,588.0,330.0,580.5,338.0,573.0,346.0,566.0,355.0,559.5,363.0,552.5,371.5,544.5,380.0,537.5,388.5,530.0,397.0,523.0,405.0,516.0" stroke="black" stroke-width="2" fill="none" />
<polyline points="405.0,509.0,396.5,516.0,388.5,523.0,380.5,530.0,372.5,537.5,364.0,545.0,356.0,552.5,348.0,560.0,339.5,567.5,331.5,574.5,324.0,581.5,315.5,589.0,308.0,596.0,300.0,603.5,292.0,611.0,284.5,618.5" stroke="black" stroke-width="2" fill="none" />
<polyline points="291.0,629.0,282.5,629.5,274.5,630.5" stroke="black" stroke-width="2" fill="none" />
<polyline points="257.5,622.5,265.0,622.0,273.5,622.0,282.0,622.0,291.0,621.0,299.5,620.5,307.5,619.5" stroke="black" stroke-width="2" fill="none" />
<polyline points="326.5,609.0,334.0,611.0,342.0,604.0,350.0,602.0" stroke="black" stroke-width="2" fill="none" />
<polyline points="348.0,546.5,356.5,545.5,364.5,545.5,372.5,545.0,380.0,545.0,388.5,544.0,396.0,543.5" stroke="black" stroke-width="2" fill="none" />
<polyline points="404.5,510.0,396.5,510.0,389.0,510.5,380.5,510.5,373.0,510.5,364.5,511.0,356.5,511.5" stroke="black" stroke-width="2" fill="none" />
<polyline points="357.5,504.0,365.0,504.0,373.0,503.5,380.5,503.0,388.5,502.5,396.0,502.0,404.0,501.5" stroke="black" stroke-width="2" fill="none" />
<polyline points="412.0,460.0,404.0,467.5,396.0,474.5,388.5,481.5,381.0,489.5,373.0,497.5,365.0,504.5,357.0,512.0,349.0,519.5" stroke="black" stroke-width="2" fill="none" />
<polyline points="347.5,520.0,355.5,519.5,363.5,519.5,371.5,520.0,379.0,520.0,387.5,519.5,395.5,519.5,404.0,519.0" stroke="black" stroke-width="2" fill="none" />
<polyline points="404.0,496.0,395.5,496.5,388.0,496.5,380.5,496.5,372.5,496.5,364.5,496.5,356.0,497.0" stroke="black" stroke-width="2" fill="none" />
<polyline points="356.0,490.5,364.0,490.0,372.0,490.0,380.0,489.5,388.5,488.5,396.5,488.0,404.5,488.0" stroke="black" stroke-width="2" fill="none" />
<polyline points="404.5,478.5,396.0,480.0,388.0,480.0,380.5,480.5,372.5,481.5,364.0,482.5,356.0,483.0" stroke="black" stroke-width="2" fill="none" />
<polyline points="355.5,475.5,364.0,474.5,371.5,474.0,379.5,473.0,387.5,472.0,395.5,471.5,404.0,470.5" stroke="black" stroke-width="2" fill="none" />
<polyline points="404.0,463.5,396.0,464.0,388.0,464.5,380.0,465.0,372.0,465.0,364.0,466.0,356.0,466.5" stroke="black" stroke-width="2" fill="none" />
<polyline points="355.5,457.0,363.5,456.0,372.0,456.0,379.5,456.0,387.5,456.0,396.0,456.0,404.0,456.0" stroke="black" stroke-width="2" fill="none" />
<polyline points="409.5,453.0,411.5,448.0,420.0,448.0,428.0,448.0,436.0,448.0,444.5,447.0,452.0,445.0,460.0,447.0,461.0,449.0,469.0,449.5,477.0,449.5,485.0,447.5,489.0,447.5,497.0,450.5,505.5,448.0,507.5,455.0,509.5,450.0" stroke="black" stroke-width="2" fill="none" />
<polyline points="506.5,445.0,514.5,444.0" stroke="black" stroke-width="2" fill="none" />
<polyline points="512.5,436.0,505.0,436.0" stroke="black" stroke-width="2" fill="none" />
<polyline points="490.5,435.5,488.5,432.5,480.5,431.0" stroke="black" stroke-width="2" fill="none" />
<polyline points="466.0,444.0,459.0,444.5" stroke="black" stroke-width="2" fill="none" />
<polyline points="456.5,454.0,448.5,453.5" stroke="black" stroke-width="2" fill="none" />
<polyline points="446.5,454.0,454.5,452.0,462.5,452.0,473.0,455.0,485.0,453.0,486.5,450.0,499.0,458.0" stroke="black" stroke-width="2" fill="none" />
<polyline points="433.5,443.5,425.5,444.0" stroke="black" stroke-width="2" fill="none" />
<polyline points="429.0,442.5,433.0,434.5" stroke="black" stroke-width="2" fill="none" />
<polyline points="410.5,428.0,403.0,435.5,394.5,442.5,386.5,450.5,378.0,458.5,370.0,466.5,362.0,474.0,354.5,481.5,346.5,489.0" stroke="black" stroke-width="2" fill="none" />
<polyline points="346.5,497.0,354.5,489.5,362.0,482.0,370.5,473.5,377.5,465.5,385.5,457.5,393.0,449.5,401.5,442.0,409.5,434.0" stroke="black" stroke-width="2" fill="none" />
<polyline points="410.5,444.0,402.5,451.5,394.5,459.0,386.5,466.5,379.5,474.0,371.5,481.5,364.0,489.0,355.5,497.0,347.5,504.5" stroke="black" stroke-width="2" fill="none" />
<polyline points="348.0,512.5,356.0,504.5,364.5,497.0,372.5,489.5,380.0,482.0,387.5,475.0,395.0,468.0,403.0,460.0,411.0,452.0" stroke="black" stroke-width="2" fill="none" />
<polyline points="412.5,421.5,404.0,429.0,396.0,437.0,388.0,444.0,379.5,451.0,371.0,458.0,362.5,466.0,354.0,473.5,345.5,481.0" stroke="black" stroke-width="2" fill="none" />
<polyline points="346.5,472.5,354.5,465.0,362.5,458.0,371.0,450.5,379.0,443.0,387.0,435.5,395.0,428.0,403.0,421.0,411.0,413.5" stroke="black" stroke-width="2" fill="none" />
<polyline points="411.0,405.5,402.5,413.0,394.5,420.5,386.0,428.0,378.0,435.0,369.5,442.0,361.5,449.5,353.0,457.0,345.0,464.5" stroke="black" stroke-width="2" fill="none" />
<polyline points="346.5,456.0,354.5,448.5,362.5,441.0,370.5,433.0,378.5,426.0,387.5,418.5,395.5,411.0,403.5,403.0,411.5,395.5" stroke="black" stroke-width="2" fill="none" />
<polyline points="412.0,401.5,403.5,402.0" stroke="black" stroke-width="2" fill="none" />
<polyline points="395.5,397.5,387.0,398.0,378.5,399.0,370.0,399.0,361.5,399.5,353.5,400.0" stroke="black" stroke-width="2" fill="none" />
<polyline points="349.0,399.0,357.0,391.0,364.5,383.0,372.0,375.5,379.5,368.5,387.5,361.5,395.0,354.0,403.0,347.0,411.5,340.5,419.0,333.5" stroke="black" stroke-width="2" fill="none" />
<polyline points="419.5,339.5,411.5,347.0,403.0,355.0,395.0,362.5,387.0,370.0,379.0,377.0,371.0,384.5,363.0,392.0,354.5,399.0,346.5,406.5" stroke="black" stroke-width="2" fill="none" />
<polyline points="353.0,408.0,361.0,407.5,369.5,407.0,378.0,407.0,386.5,406.5" stroke="black" stroke-width="2" fill="none" />
<polyline points="396.0,412.0,404.0,411.0,412.5,409.5" stroke="black" stroke-width="2" fill="none" />
<polyline points="412.0,418.0,404.0,418.5,396.0,419.0,388.0,419.5" stroke="black" stroke-width="2" fill="none" />
<polyline points="380.0,425.5,388.5,425.5,397.0,425.0,405.0,425.0,413.5,425.0" stroke="black" stroke-width="2" fill="none" />
<polyline points="404.0,446.0,396.0,446.0,388.0,446.0,380.0,447.0,372.0,447.5,364.5,448.5,356.5,449.0" stroke="black" stroke-width="2" fill="none" />
<polyline points="351.5,452.0,351.5,459.5" stroke="black" stroke-width="2" fill="none" />
<polyline points="347.5,449.5,355.0,441.5,362.5,434.0,370.5,426.0,378.5,418.5,386.0,410.5,394.5,403.5,402.5,396.0,411.0,388.0,418.5,380.0" stroke="black" stroke-width="2" fill="none" />
<polyline points="418.5,371.0,410.5,378.5,403.0,386.5,395.0,394.0,387.5,401.0,379.5,408.5,372.0,416.5,364.0,425.0,356.5,433.0,348.5,441.5" stroke="black" stroke-width="2" fill="none" />
<polyline points="348.5,432.0,356.5,425.0,364.0,417.5,371.5,409.5,378.5,401.0,386.5,393.5,394.0,386.0,401.5,377.5,409.0,369.5,417.0,362.5" stroke="black" stroke-width="2" fill="none" />
<polyline points="417.5,355.5,410.0,363.0,402.5,370.5,394.5,378.5,386.5,386.0,378.0,394.0,370.5,401.5,363.0,409.0,355.0,416.0,347.0,423.0" stroke="black" stroke-width="2" fill="none" />
<polyline points="347.0,416.5,355.0,408.5,363.0,400.5,371.0,393.0,379.0,385.0,387.0,377.5,395.0,369.5,403.0,362.0,410.5,354.0,418.5,346.0" stroke="black" stroke-width="2" fill="none" />
<polyline points="421.5,346.5,413.5,347.0,405.0,347.0,397.0,347.5" stroke="black" stroke-width="2" fill="none" />
<polyline points="396.0,339.0,404.5,338.0,412.5,337.0,420.5,336.0" stroke="black" stroke-width="2" fill="none" />
<polyline points="421.0,324.5,413.0,332.0,405.0,340.0,397.0,347.0,389.0,354.0,381.5,361.5,373.5,368.5,365.5,375.5,358.0,383.0,350.0,390.5" stroke="black" stroke-width="2" fill="none" />
<polyline points="353.5,393.0,361.5,392.5,369.0,392.0,377.0,391.5,385.5,391.0,394.0,390.5,402.5,390.0,411.0,390.0" stroke="black" stroke-width="2" fill="none" />
<polyline points="411.0,381.5,402.5,382.0,394.0,382.5,386.5,383.0,379.0,384.0,371.0,385.0,363.0,385.5,354.5,386.5" stroke="black" stroke-width="2" fill="none" />
<polyline points="354.5,390.5,354.5,398.5" stroke="black" stroke-width="2" fill="none" />
<polyline points="349.5,382.5,358.0,374.5,365.5,367.0,373.5,360.0,381.5,353.0,389.5,345.0,397.5,337.0,405.5,329.0,414.0,322.0,422.0,315.0" stroke="black" stroke-width="2" fill="none" />
<polyline points="421.0,312.0,412.5,312.5,405.0,313.0,397.0,313.5,389.0,314.0,381.5,315.0,373.0,316.5,365.0,317.5,357.5,318.0,349.5,318.0,341.5,318.5,333.0,319.0,325.0,319.5,317.0,320.0,309.0,320.5,301.0,321.0,293.0,322.0,285.0,323.0,276.5,323.5,268.5,324.0,260.5,324.5,252.5,325.0,244.0,325.5,236.0,325.5,228.0,326.0,220.0,326.5,211.5,326.5,203.5,326.5,195.5,326.5,188.0,327.5,180.0,328.0,172.0,328.5,164.0,329.0,156.0,330.0,147.5,330.5,139.0,331.5,130.5,332.0,122.5,332.5,114.0,333.0,106.0,333.0" stroke="black" stroke-width="2" fill="none" />
<polyline points="106.0,340.0,114.0,340.0,122.0,340.0,130.5,340.0,138.5,340.0,146.5,339.5,155.0,339.5,163.5,339.0,172.0,338.5,180.5,338.0,189.0,337.5,196.5,337.0,204.5,336.0,212.5,335.5,220.0,334.5,228.0,334.0,235.5,333.5,243.5,333.0,251.5,332.5,260.0,331.5,268.0,331.0,275.5,330.5,283.5,330.0,291.5,329.5,299.5,328.5,308.0,327.5,316.0,326.5,324.0,326.0,332.0,325.5,340.5,325.5,348.5,325.5,356.5,325.0,364.0,324.0,372.0,324.0,380.0,324.0,388.0,323.5,396.0,323.0,404.0,322.5,412.0,321.5,420.0,321.0" stroke="black" stroke-width="2" fill="none" />
<polyline points="419.0,321.5,411.0,322.0" stroke="black" stroke-width="2" fill="none" />
<polyline points="413.0,314.0,405.0,321.5,396.5,328.5,388.0,336.0,379.0,344.5,370.5,352.5,362.0,360.5,354.0,369.0,346.0,377.0" stroke="black" stroke-width="2" fill="none" />
<polyline points="338.0,379.0,330.0,387.0,322.0,395.0,314.5,402.5,306.5,410.5,298.5,418.0,290.5,425.5" stroke="black" stroke-width="2" fill="none" />
<polyline points="292.0,425.0,299.5,424.5,307.5,424.0,315.5,423.5,323.5,422.5" stroke="black" stroke-width="2" fill="none" />
<polyline points="329.0,418.5,321.5,426.0,313.5,434.0,306.0,441.5,298.5,449.5,291.0,457.0" stroke="black" stroke-width="2" fill="none" />
<polyline points="293.0,456.0,301.0,456.0,308.5,455.5,316.5,455.0,324.5,454.5" stroke="black" stroke-width="2" fill="none" />
<polyline points="332.0,452.5,323.5,459.5,315.0,467.0,307.5,474.5,299.5,481.5,292.0,489.0" stroke="black" stroke-width="2" fill="none" />
<polyline points="290.0,489.5,298.0,488.5,306.0,488.0,314.5,487.5,322.5,486.5" stroke="black" stroke-width="2" fill="none" />
<polyline points="329.0,483.0,321.0,490.5,313.5,498.0,306.0,505.5,298.5,513.0,291.0,520.5,283.0,528.0" stroke="black" stroke-width="2" fill="none" />
<polyline points="284.0,535.5,291.5,528.0,300.0,520.5,308.0,513.5,316.0,506.5,323.5,499.5,331.5,492.0" stroke="black" stroke-width="2" fill="none" />
<polyline points="333.0,500.5,324.5,508.0,316.0,515.5,307.5,522.5,299.5,530.0,291.5,537.5,283.5,544.5" stroke="black" stroke-width="2" fill="none" />
<polyline points="283.5,552.0,291.5,545.0,299.5,538.0,308.5,531.0,316.5,524.0,324.5,517.0,332.5,510.0" stroke="black" stroke-width="2" fill="none" />
<polyline points="331.5,516.5,323.5,523.5,315.5,531.0,307.5,538.0,299.5,545.0,292.0,552.5,284.0,559.5" stroke="black" stroke-width="2" fill="none" />
<polyline points="291.5,560.5,299.5,560.0,307.5,560.0,315.5,560.0,323.5,559.5" stroke="black" stroke-width="2" fill="none" />
<polyline points="324.0,551.0,316.0,551.0,308.0,551.5,300.0,552.0,292.0,553.0" stroke="black" stroke-width="2" fill="none" />
<polyline points="293.5,547.0,301.5,546.5,309.5,546.0,317.5,545.0,325.5,544.0" stroke="black" stroke-width="2" fill="none" />
<polyline points="348.0,537.5,356.5,537.0,364.5,536.0,373.0,535.5,381.0,535.5,388.5,535.5,396.5,535.0,404.5,535.0" stroke="black" stroke-width="2" fill="none" />
<polyline points="403.5,526.5,396.0,526.5,388.5,526.0,380.5,526.5,373.5,527.0,366.0,527.0,358.5,527.5,350.0,527.5" stroke="black" stroke-width="2" fill="none" />
<polyline points="329.5,475.5,321.0,483.0,313.0,490.0,305.0,497.5,297.0,505.0,289.5,512.5" stroke="black" stroke-width="2" fill="none" />
<polyline points="292.5,513.5,300.0,513.5,308.0,513.0,315.5,512.5,322.5,511.5" stroke="black" stroke-width="2" fill="none" />
<polyline points="324.0,536.0,316.0,536.5,308.5,537.0,301.0,538.0,293.5,539.0" stroke="black" stroke-width="2" fill="none" />
<polyline points="291.0,529.5,299.5,529.5,307.5,528.0,316.0,527.5,323.5,526.5" stroke="black" stroke-width="2" fill="none" />
<polyline points="324.0,520.0,316.0,520.0,308.5,520.5,300.5,520.5,292.5,521.0" stroke="black" stroke-width="2" fill="none" />
<polyline points="290.5,505.0,298.0,505.0,306.5,504.5,314.5,504.0,322.5,503.0" stroke="black" stroke-width="2" fill="none" />
<polyline points="290.0,503.5,298.0,496.0,306.5,488.5,314.5,481.5,322.5,474.0,330.5,467.0" stroke="black" stroke-width="2" fill="none" />
<polyline points="330.5,460.5,322.5,467.5,314.0,474.5,306.0,481.5,298.5,489.5,291.0,497.0" stroke="black" stroke-width="2" fill="none" />
<polyline points="290.0,497.5,298.5,497.0,307.0,496.0,315.5,495.0,323.5,494.0" stroke="black" stroke-width="2" fill="none" />
<polyline points="292.0,482.0,300.0,474.5,307.5,467.5,315.5,460.0,323.5,452.0,331.0,444.0" stroke="black" stroke-width="2" fill="none" />
<polyline points="334.0,437.0,326.5,444.5,318.5,451.5,310.5,458.5,302.0,465.5,293.5,472.5" stroke="black" stroke-width="2" fill="none" />
<polyline points="292.0,472.5,300.0,472.0,307.5,472.0,315.5,471.0,323.0,470.0" stroke="black" stroke-width="2" fill="none" />
<polyline points="292.5,464.0,300.5,457.0,308.0,450.0,316.0,443.0,323.5,436.0,331.0,428.0" stroke="black" stroke-width="2" fill="none" />
<polyline points="330.5,411.0,322.5,418.5,314.5,426.5,307.0,434.0,298.5,441.5,291.0,449.5" stroke="black" stroke-width="2" fill="none" />
<polyline points="291.5,449.5,299.5,449.0,308.0,448.0,316.5,447.0,325.0,446.5" stroke="black" stroke-width="2" fill="none" />
<polyline points="358.5,442.5,366.0,441.5,373.5,441.5,380.5,440.5,387.5,440.0,395.0,439.0,402.5,438.0" stroke="black" stroke-width="2" fill="none" />
<polyline points="411.5,430.0,404.0,431.0,396.5,431.5,389.0,432.0,381.0,432.5,373.0,432.5,365.5,433.0,357.5,433.0" stroke="black" stroke-width="2" fill="none" />
<polyline points="356.0,424.0,363.5,424.0" stroke="black" stroke-width="2" fill="none" />
<polyline points="355.0,416.5,363.0,416.0,371.0,415.5,379.0,415.0" stroke="black" stroke-width="2" fill="none" />
<polyline points="397.0,394.5,401.0,396.5,391.0,404.5,380.5,412.5,370.5,420.5,360.5,429.0,352.0,436.0,365.0,425.0,373.0,419.5,381.5,412.5,389.5,406.5,397.5,400.5,405.5,394.5" stroke="black" stroke-width="2" fill="none" />
<polyline points="410.5,366.0,402.5,366.5,394.5,367.5,387.0,369.0,379.5,370.0,372.0,370.0,364.5,370.5" stroke="black" stroke-width="2" fill="none" />
<polyline points="355.5,376.5,363.5,376.5,371.5,375.5,379.5,375.0,387.5,375.0,396.0,375.0,403.5,375.0,411.5,374.5" stroke="black" stroke-width="2" fill="none" />
<polyline points="419.5,328.5,411.5,329.0,402.5,330.5,394.5,331.0" stroke="black" stroke-width="2" fill="none" />
<polyline points="387.5,332.0,388.0,330.0,387.0,338.0,389.0,352.0,377.5,360.0,375.5,361.0,384.0,356.5,397.0,347.5" stroke="black" stroke-width="2" fill="none" />
<polyline points="386.5,338.5,378.5,339.0" stroke="black" stroke-width="2" fill="none" />
<polyline points="387.5,344.0,379.5,345.5,371.0,346.5" stroke="black" stroke-width="2" fill="none" />
<polyline points="364.0,356.0,372.0,355.5,379.5,355.5,387.5,354.5,396.0,353.5,404.5,352.0,411.5,351.5,419.0,350.5" stroke="black" stroke-width="2" fill="none" />
<polyline points="394.5,323.0,387.0,330.5,379.5,338.0,371.5,346.0,363.5,354.0,356.5,362.0,348.5,369.0" stroke="black" stroke-width="2" fill="none" />
<polyline points="357.5,360.5,365.5,360.0,372.5,360.0,380.0,359.5,388.0,359.5,396.0,359.5,404.0,359.0,412.5,359.5" stroke="black" stroke-width="2" fill="none" />
<polyline points="394.5,314.5,386.0,322.5,378.5,329.5,371.5,337.0,364.5,344.5,356.5,352.0,349.0,359.5,341.5,367.0,334.0,374.5,325.5,382.0,318.0,390.0,310.0,397.0,301.5,404.0,293.5,412.0" stroke="black" stroke-width="2" fill="none" />
<polyline points="292.0,411.0,300.5,410.0,308.5,409.5,316.5,409.0,324.5,408.5" stroke="black" stroke-width="2" fill="none" />
<polyline points="331.0,404.5,323.0,412.0,315.0,420.0,307.0,427.5,298.5,434.5,290.5,441.5" stroke="black" stroke-width="2" fill="none" />
<polyline points="291.5,441.0,299.5,440.5,307.5,439.5,316.0,439.0,324.5,439.5" stroke="black" stroke-width="2" fill="none" />
<polyline points="324.0,464.0,315.5,464.5,307.0,465.0,299.0,465.5,291.0,466.0" stroke="black" stroke-width="2" fill="none" />
<polyline points="290.0,480.0,298.0,479.0,306.5,478.5,314.5,478.5,323.0,478.5" stroke="black" stroke-width="2" fill="none" />
<polyline points="285.0,440.5,293.0,433.0,300.5,425.5,308.0,418.0,316.0,410.5,323.5,403.0,331.5,395.5,339.5,388.0" stroke="black" stroke-width="2" fill="none" />
<polyline points="330.0,400.0,322.0,401.0,314.0,401.0,306.0,401.0,298.5,401.0,291.0,401.0" stroke="black" stroke-width="2" fill="none" />
<polyline points="292.5,404.5,300.0,397.5,308.0,390.5,316.0,383.0,323.5,375.5,332.0,368.0,340.5,360.5,348.5,353.5,356.0,346.0,364.0,338.5,371.5,330.5,379.0,322.5,387.0,314.5,395.0,306.5" stroke="black" stroke-width="2" fill="none" />
<polyline points="397.0,300.5,389.0,308.0,381.5,315.5,373.0,323.0,364.5,330.0,356.0,337.5,347.5,345.0,339.5,353.0,331.0,360.5,323.0,368.0,315.0,375.0,307.0,383.0,299.0,391.0,291.5,398.0" stroke="black" stroke-width="2" fill="none" />
<polyline points="291.0,394.0,298.5,393.0,307.0,392.0,315.0,391.5,323.5,391.0,331.5,390.5" stroke="black" stroke-width="2" fill="none" />
<polyline points="331.5,382.5,323.0,383.5,314.5,384.0,306.5,385.0,298.5,385.5,290.5,386.0" stroke="black" stroke-width="2" fill="none" />
<polyline points="290.5,389.5,298.5,382.0,306.5,374.5,314.5,367.0,322.5,359.5,330.0,351.5,338.0,344.0,346.5,336.0,355.0,328.5,363.5,321.0,372.0,313.5,380.5,306.0,389.0,298.5,397.5,290.5" stroke="black" stroke-width="2" fill="none" />
<polyline points="396.5,281.5,388.5,289.0,380.0,297.0,372.0,305.0,364.0,312.5,356.0,321.0,347.0,328.0,338.5,335.0,329.5,342.5,321.5,350.0,313.5,357.0,305.5,365.0,297.0,372.5,289.5,380.5" stroke="black" stroke-width="2" fill="none" />
<polyline points="291.0,377.5,298.5,377.0,306.5,376.5,314.0,376.5,322.0,375.5,330.5,374.5" stroke="black" stroke-width="2" fill="none" />
<polyline points="331.0,368.5,323.5,368.5,316.0,369.0,308.5,369.0,301.5,369.5,293.0,370.0" stroke="black" stroke-width="2" fill="none" />
<polyline points="290.5,373.5,298.5,365.5,307.0,358.5,314.5,351.0,323.0,343.5,330.5,336.0,338.5,328.5,347.0,321.0,355.5,313.0,364.0,305.5,372.5,298.0,380.5,290.5,389.0,283.0,397.0,275.5" stroke="black" stroke-width="2" fill="none" />
<polyline points="397.5,266.5,389.5,274.0,381.0,281.5,372.5,289.5,365.0,297.5,357.0,305.5,349.0,313.5,340.5,321.5,332.5,329.5,324.5,337.0,316.5,344.5,308.0,352.0,300.0,360.0,292.0,367.0" stroke="black" stroke-width="2" fill="none" />
<polyline points="289.5,362.5,298.0,362.0,306.5,361.5,315.0,361.0,323.0,361.0" stroke="black" stroke-width="2" fill="none" />
<polyline points="320.0,354.5,328.0,355.5,335.5,357.5,343.5,359.5,351.0,360.0" stroke="black" stroke-width="2" fill="none" />
<polyline points="357.0,351.0,348.5,351.0,340.0,351.0,331.5,352.0,322.5,352.5,314.0,353.0,305.5,353.5,297.0,354.0,289.0,354.5" stroke="black" stroke-width="2" fill="none" />
<polyline points="291.0,358.0,298.5,351.0,306.5,343.5,314.5,336.0,323.0,328.5,330.5,320.5,338.5,312.5,347.0,305.0,355.5,297.0,364.0,289.0,372.5,282.0,380.5,274.5,389.0,267.0,397.0,259.5,405.5,252.5" stroke="black" stroke-width="2" fill="none" />
<polyline points="403.0,244.0,394.5,252.0,386.5,259.5,378.5,266.5,371.0,274.0,362.5,281.5,355.0,289.0,346.5,296.0,338.0,303.0,330.0,311.0,321.5,319.0,314.0,326.5,306.5,333.5,299.0,341.0,291.0,349.0" stroke="black" stroke-width="2" fill="none" />
<polyline points="291.0,345.5,299.0,345.5,307.0,345.0,315.5,344.5,324.5,343.5,332.5,343.0,341.0,342.5,349.0,342.5,356.5,342.0" stroke="black" stroke-width="2" fill="none" />
<polyline points="354.5,344.5,362.5,339.5,370.0,334.5,378.0,329.5,386.0,324.5,385.0,320.5,380.0,329.0,367.0,337.0,353.5,345.5,353.5,353.5,349.5,364.5,352.5,372.5,353.0,380.5,352.0,388.0,352.5,396.5,352.5,404.0,351.5,412.0,351.5,419.5,353.0,427.5,350.5,435.5,351.5,443.5,349.5,452.0,349.5,460.0,350.5,468.0,348.5,476.5,349.5,484.5,349.0,493.0,348.0,501.0,348.0,509.0,347.5,516.5,347.5,524.5,348.0,533.0,346.5,541.0,346.5,548.5,345.5,556.5,345.5,564.5,345.5,572.0,345.0,580.0,345.5,588.0,345.5,595.0,345.5,599.0,342.5,605.0" stroke="black" stroke-width="2" fill="none" />
<polyline points="355.0,605.0,347.5,606.0,339.5,607.0,332.0,607.0,324.0,607.5,316.0,608.0,307.5,609.0,299.5,609.5,291.5,610.0,284.0,610.0,275.5,611.0,267.0,611.5,259.0,612.5,251.0,613.5,243.0,614.0" stroke="black" stroke-width="2" fill="none" />
<polyline points="227.5,605.5,235.5,605.0,243.0,604.5,251.5,604.0,260.5,604.0,268.5,604.0,276.0,603.5,284.0,602.5,291.5,601.5,299.0,601.0,307.0,601.0,315.0,600.5,323.0,600.0,331.5,599.5,340.0,599.0,348.0,598.0,355.5,597.0,363.5,596.0,371.5,595.5,380.0,595.0" stroke="black" stroke-width="2" fill="none" />
<polyline points="323.0,431.0,314.5,432.0,306.0,433.0,298.5,433.5,290.5,434.5" stroke="black" stroke-width="2" fill="none" />
<polyline points="292.5,418.0,300.5,417.5,309.0,417.0,317.0,416.0,325.0,415.0" stroke="black" stroke-width="2" fill="none" />
<polyline points="335.5,369.0,343.5,371.0" stroke="black" stroke-width="2" fill="none" />
<polyline points="372.0,332.0,364.0,333.0,355.5,333.5,347.5,334.0,339.0,334.5,331.0,335.0,322.5,335.0,315.0,335.5,307.0,336.0,299.5,337.0,292.0,337.5" stroke="black" stroke-width="2" fill="none" />
<polyline points="290.0,339.0,298.0,331.5,306.0,323.5,314.0,316.0,322.0,308.0,330.5,301.5,338.0,294.5,346.0,287.5,353.5,280.0,361.5,273.5,370.0,266.0,378.0,259.0,385.5,252.0,394.0,244.5,402.0,236.5" stroke="black" stroke-width="2" fill="none" />
<polyline points="404.0,227.5,395.5,235.0,387.0,243.0,378.5,251.0,370.0,258.0,362.0,265.0,354.5,272.0,346.5,279.5,338.5,286.5,331.0,294.5,323.0,302.0,315.0,309.5,307.5,317.0,299.5,324.5,291.0,332.5" stroke="black" stroke-width="2" fill="none" />
<polyline points="290.5,329.0,298.5,328.5,307.0,328.5,315.5,327.5,323.5,327.0,331.5,326.0,339.5,326.0,347.0,325.5,355.0,325.0,363.0,324.5,371.0,324.0,379.0,323.5" stroke="black" stroke-width="2" fill="none" />
<polyline points="385.0,318.5,393.0,316.0" stroke="black" stroke-width="2" fill="none" />
<polyline points="411.5,309.5,420.0,309.0,427.5,309.0" stroke="black" stroke-width="2" fill="none" />
<polyline points="428.5,305.0,420.5,305.0,412.5,305.5,404.0,306.0,395.5,307.0,387.0,307.5,379.5,308.0,371.5,308.5,364.0,309.5,355.0,310.5,347.0,311.0,339.5,311.5,331.5,311.5,324.0,312.0,316.5,313.0,308.5,314.5,300.5,314.5,292.5,315.0,284.5,315.5,276.5,316.0,268.0,317.0,260.5,317.5,252.0,317.5,244.0,318.0,235.5,318.0,227.5,318.0,219.5,318.5,212.0,319.0,204.0,319.5,196.0,319.5,188.0,319.5,179.5,320.0,171.0,320.5,163.0,321.5,155.0,322.0,147.0,323.0,139.0,323.0,131.0,323.5,123.0,324.0,115.0,324.0,106.5,324.5" stroke="black" stroke-width="2" fill="none" />
<polyline points="108.5,317.0,116.5,316.0,124.0,315.0,131.5,315.0,139.5,314.5,147.5,314.5,155.5,314.0,163.0,313.5,170.5,313.0,179.0,312.5,187.0,312.0,194.5,311.0,203.0,311.0,211.0,310.5,218.5,310.5,226.0,310.0,234.5,310.0,243.0,309.5,251.0,309.0,258.5,308.0,267.0,307.0,274.5,307.0,282.0,307.0,290.0,307.0,298.0,307.0,306.0,306.0,314.5,306.0,323.0,304.5,331.5,303.5,339.0,303.0,347.0,302.0,355.0,302.0,363.0,302.0,371.5,301.5,380.0,301.0,388.0,300.5,396.0,300.0,404.0,299.5,411.5,299.0,420.0,299.0,428.0,298.5" stroke="black" stroke-width="2" fill="none" />
<polyline points="419.5,310.5,418.5,318.0,417.5,326.0,417.5,334.5,417.0,342.5,416.5,350.5,417.0,358.5,416.0,366.0,415.0,374.0,414.0,382.0,414.5,390.0,413.0,398.0,412.0,406.0,412.0,414.0,411.0,422.0,409.5,430.0,409.5,438.0,408.5,446.0,407.5,453.5,406.0,461.5,406.0,469.5,405.0,477.5,404.0,485.0,402.5,493.0,402.5,501.0,401.5,509.0,400.0,517.0,400.0,525.0,399.0,533.0,398.0,541.0,391.0,549.0,384.5,557.0,377.5,565.0,375.5,567.0,384.0,558.5,392.0,549.5" stroke="black" stroke-width="2" fill="none" />
<polyline points="388.5,585.0,380.5,585.0,373.0,585.5,364.5,586.0,356.5,586.5,349.0,587.5,341.0,588.0,333.0,589.5,325.0,590.0,316.5,590.5,308.0,590.0,299.5,590.5,291.5,591.5,283.5,592.0,275.5,592.5,268.0,593.0,259.5,593.5,251.5,594.0,242.5,595.0,235.0,596.0,226.5,596.5,219.0,597.0,211.5,597.5,204.0,598.5" stroke="black" stroke-width="2" fill="none" />
<polyline points="187.5,592.0,195.5,591.5,204.0,590.5,212.0,589.5,219.0,588.5,227.0,587.5,235.0,587.0,243.0,586.5,251.0,586.0,259.0,586.0,266.5,585.5,274.5,584.5,282.0,584.0,290.5,583.0,299.0,582.0,307.5,581.0,316.0,580.5,324.0,580.5,332.5,580.0,340.5,579.5,348.0,579.5,356.5,578.5,365.0,578.0,373.5,577.5,381.0,577.0,389.0,577.0,396.5,576.5" stroke="black" stroke-width="2" fill="none" />
<polyline points="405.0,565.0,396.5,565.5,389.0,566.0,381.0,566.5,373.0,567.0,365.5,568.0,357.0,569.5,349.0,570.5,341.5,571.0,333.5,571.0,325.5,571.5,317.0,572.0,309.0,572.5,301.0,573.0,293.0,573.5,285.0,574.0,277.0,575.0,269.0,576.0,260.5,576.5,252.5,577.0,244.5,577.5,236.5,578.0,228.0,578.5,220.0,578.5,212.0,579.0,204.0,579.5,195.5,579.5,187.5,579.5,179.5,579.5,172.0,580.5" stroke="black" stroke-width="2" fill="none" />
<polyline points="175.5,584.5,183.0,586.5,191.5,591.0,199.5,594.0,206.5,599.5,214.5,601.5,221.5,606.5,230.0,608.5,238.5,612.5,246.5,616.5,255.0,620.5,263.0,623.5,271.0,627.5,278.5,631.5" stroke="black" stroke-width="2" fill="none" />
<polyline points="155.0,573.0,162.5,572.0,171.0,572.0,179.0,571.5,186.5,571.5,194.0,571.0,202.5,571.0,211.0,570.5,219.0,570.0,226.5,569.0,235.0,568.0,242.5,568.0,250.0,568.0,258.0,568.0,266.0,568.0,274.0,567.0,282.5,567.0,291.0,565.5,299.5,564.5,307.0,564.0,315.0,563.0,323.0,563.0,331.0,563.0,339.5,562.5,348.0,562.0,356.0,561.5,364.0,561.0,372.0,560.5,379.5,560.0,388.0,560.0,396.0,559.5,404.5,558.5" stroke="black" stroke-width="2" fill="none" />
<polyline points="413.0,548.5,405.0,548.5,396.5,549.0,388.5,550.0,380.0,550.5,372.5,551.0,364.5,552.0,356.5,553.0,349.0,553.0,341.0,553.5,332.5,554.0,324.0,555.0,316.0,555.5,308.0,556.0,300.0,556.5,292.0,556.5,284.0,556.5,276.0,557.0,268.0,557.5,259.5,557.5,251.5,558.0,243.0,558.5,235.0,559.0,226.5,560.0,219.0,561.0,210.5,561.5,202.0,561.5,193.5,562.0,185.5,563.0,177.5,564.0,170.0,564.5,162.5,564.5,155.0,565.0,147.5,565.0,139.5,565.5" stroke="black" stroke-width="2" fill="none" />
<polyline points="141.0,561.5,149.0,554.5" stroke="black" stroke-width="2" fill="none" />
<polyline points="141.0,556.5,133.0,564.0" stroke="black" stroke-width="2" fill="none" />
<polyline points="131.0,562.5,139.0,566.0,147.5,570.5,155.5,574.5,163.5,576.5,171.5,581.5,182.5,586.0,199.0,594.0,216.0,602.0,233.0,610.5,250.0,618.0,267.0,626.0" stroke="black" stroke-width="2" fill="none" />
<polyline points="157.0,563.5,149.0,570.5" stroke="black" stroke-width="2" fill="none" />
<polyline points="132.0,559.0,140.5,558.5,148.5,558.0,156.0,557.0,163.5,556.5,171.5,556.0,179.0,555.0,187.0,554.5,194.5,554.0,202.5,553.5,210.5,553.0,218.5,552.5,226.5,552.0,234.5,551.0,243.0,550.5,251.5,549.5,260.0,549.0,268.0,548.5,276.0,548.0,283.5,547.0,291.5,546.5,299.5,546.5,308.0,546.5,316.0,546.0,323.5,545.0,332.0,544.5,340.0,544.0,348.5,543.0,357.0,542.0,366.0,541.0,374.0,540.5,382.5,540.5,390.0,540.0,397.5,540.0,404.5,539.5,412.5,539.0,420.0,539.5" stroke="black" stroke-width="2" fill="none" />
<polyline points="411.5,532.5,403.0,533.0,395.5,533.0,387.5,532.5,379.5,532.5,371.5,533.0,363.5,533.0,355.5,534.5,347.0,535.5,339.5,536.0,331.5,537.0,324.0,537.5,316.0,538.0,307.5,538.5,299.5,538.5,291.0,539.5,283.0,540.0,275.0,541.0,266.5,541.5,258.5,542.0,250.5,541.5,242.0,542.5,234.0,543.5,226.5,543.5,218.5,544.0,211.0,544.5,203.0,544.5,195.0,545.5,186.5,546.5,178.5,547.5,170.0,548.0,162.5,549.0,155.0,549.5,147.0,550.0,139.0,550.5,131.0,551.0" stroke="black" stroke-width="2" fill="none" />
<polyline points="131.0,542.5,139.0,542.0,146.5,541.0,154.0,540.0,162.5,539.5,171.0,538.5,179.0,538.0,187.5,538.0,196.0,537.5,205.0,537.5,213.0,537.0,221.5,536.5,228.5,536.0,236.0,536.0,243.5,535.5,251.0,535.5,259.0,534.5,267.5,534.0,276.0,533.5,283.5,533.0,291.5,532.5,299.5,532.0,307.0,531.5,314.5,530.5,322.5,529.0,330.5,528.0,338.0,527.0,345.5,527.0,353.0,527.0,360.5,526.5,368.5,526.5,376.5,525.5,385.5,524.5,394.0,524.0,402.0,524.0,409.5,524.5,418.5,524.5" stroke="black" stroke-width="2" fill="none" />
<polyline points="419.5,514.5,411.0,515.0,403.0,515.5,394.0,516.0,385.5,517.0,377.0,518.0,369.0,519.0,361.0,519.5,353.0,519.5,345.5,520.0,338.5,520.0,331.0,520.0,323.5,520.5,316.0,522.0,308.0,523.5,300.0,524.0,292.0,524.5,284.0,525.0,275.5,525.5,267.5,526.5,259.5,527.0,251.5,527.5,243.0,527.5,235.0,528.0,227.0,528.0,218.5,528.5,210.0,529.0,201.5,529.5,194.0,530.0,186.5,530.0,179.0,530.5,171.5,531.0,163.5,531.5,155.5,532.0,148.0,533.0,140.0,533.5,131.5,534.0,123.5,534.5" stroke="black" stroke-width="2" fill="none" />
<polyline points="122.5,525.0,130.5,524.5,138.5,524.5,146.5,523.5,154.0,523.0,161.5,523.0,169.5,522.5,177.5,522.0,185.0,522.0,193.0,522.0,201.0,521.5,209.0,521.0,217.5,520.5,226.0,520.0,234.5,519.5,243.5,519.0,252.0,518.0,260.5,518.0,269.0,518.0,277.5,517.5,285.5,517.0,293.5,516.5,301.0,516.0,308.5,516.0,316.0,516.0,323.0,515.5,331.0,514.5,338.5,513.5,346.0,513.0,353.5,512.5,361.0,512.5,369.0,511.5,378.0,510.5,386.0,509.5,394.5,508.5,403.0,507.5,411.5,506.5,419.5,505.5" stroke="black" stroke-width="2" fill="none" />
<polyline points="421.5,498.5,413.0,499.5,404.0,501.0,396.5,501.5,388.5,502.0,380.5,502.0,372.5,502.0,364.0,502.5,356.0,503.5,347.5,504.0,339.5,504.5,332.0,505.0,324.5,505.5,316.0,506.0,308.0,506.5,300.0,506.5,292.0,507.0,284.0,507.0,276.0,507.5,268.5,509.0,261.0,509.5,253.0,509.5,244.5,510.0,236.5,510.5,227.5,511.5,219.0,512.0,211.0,512.5,203.0,512.5,194.0,513.0,186.0,513.5,177.5,514.5,169.5,515.5,162.0,516.0,154.0,516.0,146.5,516.0,138.5,516.5,130.5,517.0,122.5,517.0" stroke="black" stroke-width="2" fill="none" />
<polyline points="121.5,509.5,129.5,509.0,138.0,509.0,146.0,508.5,154.0,507.5,162.5,506.5,170.5,506.0,178.0,505.5,186.5,505.0,195.5,505.0,204.0,504.5,211.5,504.0,219.0,503.0,227.0,502.5,234.5,502.0,243.0,502.0,251.0,501.5,259.5,501.0,267.5,500.5,276.0,500.0,284.0,499.0,292.0,498.5,300.0,498.0,308.0,497.5,316.5,497.5,325.0,497.0,333.0,496.5,341.0,495.5,348.5,494.5,356.0,494.0,363.5,493.5,372.0,493.0,380.0,493.0,388.5,492.0,397.0,491.5,405.5,491.0,413.0,490.5" stroke="black" stroke-width="2" fill="none" />
<polyline points="414.0,482.0,406.0,482.5,398.0,483.0,389.5,484.0,381.5,485.0,373.5,486.0,365.0,486.5,357.0,487.0,348.5,487.0,340.0,487.5,331.0,488.0,322.5,489.0,314.5,489.5,307.0,490.0,299.0,490.0,291.0,490.5,283.0,491.0,275.0,491.5,267.0,492.0,259.0,492.5,251.5,493.0,243.5,493.0,235.5,494.0,227.5,494.5,219.0,495.5,210.5,495.5,202.5,496.0,194.5,496.5,186.5,497.5,178.5,498.5,170.5,499.5,162.5,499.5,155.5,500.0,147.5,500.5,140.0,501.0,132.5,501.5,124.0,501.5" stroke="black" stroke-width="2" fill="none" />
<polyline points="125.5,494.0,133.0,493.5,140.5,492.5,148.5,492.0,156.5,491.5,164.0,491.0,172.0,491.0,179.5,491.5,187.5,491.5,195.5,491.5,203.5,491.0,211.5,490.5,219.0,490.0,226.5,489.5,234.0,489.0,241.0,488.5,249.0,487.5,257.5,486.5,265.5,485.5,274.0,484.5,282.0,484.0,290.0,483.0,297.5,482.5,306.0,482.5,314.5,482.0,323.0,482.0,331.5,480.5,340.0,480.0,348.0,479.0,356.0,478.0,364.0,477.5,372.5,477.0,381.0,476.0,389.0,475.5,397.5,475.5,405.0,475.0,412.5,474.5" stroke="black" stroke-width="2" fill="none" />
<polyline points="412.5,468.0,405.0,468.0,397.0,468.5,388.5,469.0,380.0,469.0,372.0,469.0,363.5,469.5,356.0,470.0,347.5,470.0,339.5,470.5,331.5,471.0,323.0,472.0,315.0,472.5,307.0,473.5,299.0,474.5,291.0,475.5,283.0,476.0,275.0,476.5,266.5,476.5,258.5,476.5,250.0,477.5,242.5,478.5,234.5,479.0,226.5,480.0,218.5,480.0,210.5,480.5,202.0,481.0,194.0,481.5,186.0,482.0,178.5,482.0,171.5,482.5,164.0,483.5,156.0,484.0,148.0,485.0,140.0,485.5,132.0,486.0,124.0,486.5" stroke="black" stroke-width="2" fill="none" />
<polyline points="123.0,478.5,130.5,478.0,138.0,477.5,146.0,477.5,153.5,477.0,161.5,476.0,169.5,475.5,178.0,475.0,186.0,473.5,193.5,473.0,201.5,472.5,209.5,472.0,218.0,472.0,226.5,471.5,234.5,471.5,242.5,470.5,250.5,470.0,258.5,469.0,266.5,468.0,275.0,467.0,283.5,466.5,291.5,466.0,299.5,466.0,307.5,466.0,315.5,465.5,323.0,465.5,331.5,465.0,340.0,464.0,348.5,463.5,356.5,463.0,364.5,463.0,372.0,462.0,379.5,461.5,387.5,460.5,395.5,459.5,404.0,459.0,411.5,459.0" stroke="black" stroke-width="2" fill="none" />
<polyline points="411.5,451.0,403.5,451.5,396.0,452.0,388.0,452.5,380.0,453.5,372.0,454.0,364.0,454.5,356.0,454.5,348.0,455.0,340.0,455.0,332.0,456.0,324.0,457.0,316.0,457.0,308.0,457.0,300.0,457.5,292.0,458.0,284.0,459.0,276.0,459.5,268.0,460.5,260.0,461.0,252.0,461.5,244.0,462.0,236.0,462.5,227.5,463.5,219.0,464.5,211.0,465.0,203.0,465.5,195.0,466.0,187.5,466.5,179.5,467.0,171.5,468.0,164.0,468.5,155.5,469.0,147.5,469.5,139.0,470.0,130.5,470.5,122.5,471.0" stroke="black" stroke-width="2" fill="none" />
<polyline points="125.0,462.0,132.5,461.5,140.5,461.0,148.5,461.0,156.0,460.5,164.0,460.0,171.5,459.5,179.5,459.5,187.5,459.5,196.0,459.0,204.0,458.5,212.0,458.0,220.5,457.5,228.5,457.0,237.0,456.0,245.0,456.0,253.5,455.5,262.0,455.0,270.0,454.5,278.0,453.0,285.5,453.0,293.5,452.5,301.5,452.0,309.5,451.0,317.5,450.0,325.5,449.5,333.5,449.0,341.5,448.0,349.5,447.0,358.0,446.0,365.5,445.0,374.0,445.0,381.5,444.5,389.0,444.0,397.0,443.5,405.0,443.0,412.5,442.5" stroke="black" stroke-width="2" fill="none" />
<polyline points="413.0,435.5,405.5,436.0,397.5,436.0,389.5,436.0,381.0,436.5,372.5,437.5,364.0,438.0,356.5,438.5,348.5,439.0,340.5,440.0,332.0,441.0,323.5,441.5,316.0,442.0,308.0,442.5,300.5,443.0,293.0,444.0,285.5,445.0,277.5,445.0,269.5,445.5,261.5,446.5,253.5,447.0,245.5,448.0,237.5,448.5,229.5,448.5,221.0,449.0,212.5,449.0,204.5,449.5,196.5,450.0,188.5,450.5,180.5,451.0,172.5,451.0,164.5,451.0,156.0,451.5,147.5,451.5,139.0,452.0,131.5,452.5,124.0,453.5" stroke="black" stroke-width="2" fill="none" />
<polyline points="123.5,444.0,131.5,443.5,139.0,443.0,147.0,442.5,155.5,442.0,164.0,442.0,172.0,441.0,180.0,441.0,188.5,440.5,196.5,440.5,204.0,440.0,213.0,439.5,221.5,439.5,229.5,438.5,237.0,438.0,245.0,437.0,252.5,436.5,260.0,436.5,267.0,436.5,275.0,436.5,283.0,435.5,291.5,435.5,299.5,434.0,308.0,433.5,315.5,432.5,323.5,432.0,331.5,432.0,340.5,432.0,349.0,432.0,357.5,431.5,365.5,430.5,373.5,430.0,381.5,429.5,389.5,429.0,397.5,429.0,406.0,428.5,414.5,428.0,422.5,427.5" stroke="black" stroke-width="2" fill="none" />
<polyline points="445.5,417.0,437.5,417.0,430.0,417.5,421.5,418.0,413.0,418.5,404.5,419.5,396.0,420.5,388.5,421.0,380.0,422.0,372.5,422.5,364.5,423.0,356.5,423.5,348.0,424.0,339.5,424.5,331.5,425.0,323.5,425.5,316.0,426.0,308.0,426.0,300.0,426.0,292.5,426.5,284.5,426.5,276.5,427.0,268.5,427.5,260.5,427.5,252.5,428.5,244.5,429.5,236.5,430.0,228.0,431.0,219.5,431.0,211.0,432.0,202.5,432.5,194.5,433.5,186.5,434.0,178.5,434.0,171.0,434.0,163.5,434.0,155.5,434.5,147.5,434.5,139.5,435.0,131.5,435.5,124.0,436.0,116.0,436.0" stroke="black" stroke-width="2" fill="none" />
<polyline points="116.5,428.5,125.0,428.0,133.0,428.0,140.5,428.0,148.0,427.5,155.5,427.5,163.5,427.5,171.0,427.0,179.0,427.0,186.5,426.5,195.0,426.0,203.0,425.5,211.0,425.0,219.5,424.5,227.5,424.0,236.0,423.0,244.0,422.5,252.0,422.0,260.0,421.0,268.0,420.5,276.5,419.5,284.0,419.5,292.0,419.0,299.5,418.5,306.5,417.5,314.0,417.0,322.0,417.0,330.0,417.0,337.5,416.5,345.5,416.0,353.5,415.5,361.5,415.0,370.0,413.5,378.5,412.5,387.5,411.5,396.0,411.0,404.5,410.5,412.5,410.0,420.5,409.5,428.0,408.5,436.0,408.0" stroke="black" stroke-width="2" fill="none" />
<polyline points="419.0,401.5,411.0,401.5,403.0,402.0,395.0,402.5,386.5,403.0,378.5,404.0,370.0,405.0,362.0,406.0,354.0,406.0,346.5,406.5,338.5,407.0,330.5,407.5,322.5,407.5,314.5,408.0,306.5,409.0,298.5,410.0,290.5,410.5,282.0,411.0,274.5,411.0,266.0,412.0,258.5,412.5,250.5,413.5,242.5,414.0,235.0,415.0,227.0,415.5,218.0,416.5,209.5,417.5,201.5,418.0,193.0,419.0,185.5,419.0,178.0,419.5,170.5,420.0,162.5,419.5,155.0,420.0,147.5,420.0,140.0,419.5,132.5,419.5,125.0,420.5,117.0,420.5" stroke="black" stroke-width="2" fill="none" />
<polyline points="117.0,414.5,125.0,414.0,133.0,413.0,141.0,412.5,148.0,412.0,155.5,411.5,163.0,411.5,170.0,411.0,177.5,410.5,185.0,410.0,193.5,409.5,201.0,409.0,209.5,409.0,218.0,409.0,227.0,408.0,235.5,407.5,243.5,406.5,251.5,405.5,259.0,405.0,266.5,404.0,274.0,403.5,282.5,403.0,291.0,402.0,299.5,401.0,307.5,400.0,315.0,400.0,323.0,399.0,330.5,398.5,338.0,398.0,346.5,396.5,354.5,396.0,362.0,395.5,370.0,395.5,377.5,395.5,385.0,395.5,393.0,395.5,401.0,394.5,409.5,393.5,417.5,392.5" stroke="black" stroke-width="2" fill="none" />
<polyline points="417.0,385.5,409.0,386.5,401.5,387.5,394.0,387.5,386.0,388.0,379.0,388.0,371.5,388.0,363.5,388.5,356.0,388.5,348.0,389.5,340.0,391.0,331.5,391.5,323.0,392.0,314.5,392.0,306.5,392.5,298.5,393.5,290.0,394.0,282.0,394.5,274.0,395.5,266.0,395.5,258.5,396.0,250.0,397.0,241.5,397.5,233.5,398.5,225.5,399.0,218.0,399.5,210.5,400.0,203.0,401.0,195.5,401.5,187.5,402.0,180.0,402.5,172.5,403.0,164.5,403.5,156.5,404.0,149.0,404.5,141.0,404.5,133.5,405.0,125.5,405.0,117.5,405.5" stroke="black" stroke-width="2" fill="none" />
<polyline points="117.5,397.0,125.0,397.0,133.0,396.0,141.0,395.5,149.0,395.5,156.5,395.0,164.0,394.5,172.0,393.5,180.0,393.0,187.5,392.0,195.0,391.5,203.5,390.5,211.0,390.0,218.5,389.5,226.5,389.0,234.5,388.5,242.0,388.0,250.0,387.5,257.5,387.0,266.0,386.5,274.0,386.0,282.0,385.0,290.5,384.5,298.5,384.5,307.0,384.5,315.5,384.0,324.0,384.0,332.0,383.5,340.0,383.5,348.0,384.0,356.0,383.5,364.0,382.5,372.0,381.5,379.5,381.0,387.0,380.5,394.5,380.0,402.0,379.5,410.0,379.0,418.0,378.0" stroke="black" stroke-width="2" fill="none" />
<polyline points="419.5,370.5,412.0,370.5,404.0,370.5,396.5,370.5,388.0,371.5,380.0,372.0,372.0,372.5,364.5,373.0,356.5,373.5,348.0,374.5,339.5,374.5,331.0,375.0,323.0,375.0,315.0,375.5,307.0,376.0,299.5,377.0,291.5,378.0,284.0,378.0,276.0,378.5,268.0,379.0,259.5,380.0,251.5,380.5,243.5,381.0,236.0,381.0,227.5,382.0,219.0,382.5,211.0,383.5,203.0,384.5,195.0,385.0,187.5,385.5,180.0,385.5,172.5,386.0,164.0,386.5,156.5,387.0,149.0,387.5,141.5,388.5,134.0,389.0,126.5,389.5,118.5,390.5" stroke="black" stroke-width="2" fill="none" />
<polyline points="116.5,381.5,124.5,381.0,133.0,381.0,140.5,381.0,148.0,380.5,155.5,380.0,163.5,379.0,172.0,379.0,180.0,378.0,187.5,377.0,195.5,376.5,203.5,376.0,211.0,375.5,219.5,375.0,228.5,375.0,236.5,375.0,244.0,374.5,252.0,373.5,259.5,372.5,267.0,372.0,275.0,372.0,283.0,371.5,291.0,371.0,299.5,370.5,308.0,370.0,316.0,369.0,323.5,368.0,331.5,367.0,339.5,366.5,348.0,366.0,356.5,365.5,364.5,365.0,372.0,363.5,379.5,363.0,387.0,362.5,394.5,362.0,402.5,362.0,411.0,361.5,419.0,361.5" stroke="black" stroke-width="2" fill="none" />
<polyline points="421.0,354.5,413.0,355.0,405.0,356.0,396.5,356.5,389.0,356.5,380.5,356.5,372.5,356.5,364.0,357.0,355.5,358.0,347.5,358.5,340.5,359.0,332.5,359.0,324.5,359.0,316.5,359.5,308.5,360.5,300.5,361.0,292.5,361.5,285.0,362.0,277.0,362.0,268.5,362.5,260.5,363.5,252.0,364.0,243.5,364.5,235.0,365.0,226.5,366.0,218.5,367.0,210.5,368.0,202.0,369.0,194.0,369.5,186.5,370.0,179.0,370.5,171.5,371.0,164.0,371.5,156.0,372.0,148.5,372.0,140.5,372.0,132.5,372.5,125.0,372.5,117.0,373.0" stroke="black" stroke-width="2" fill="none" />
<polyline points="115.0,365.0,123.0,364.5,130.5,364.0,138.5,364.0,146.5,364.0,154.5,364.0,162.0,363.5,169.5,363.0,177.5,362.0,186.0,361.5,194.0,360.5,202.0,360.5,210.0,360.0,218.5,360.0,227.0,359.5,235.5,358.5,244.0,358.0,252.0,357.0,260.0,356.5,267.5,356.0,275.5,355.5,283.5,355.0,292.0,354.0,300.5,353.0,309.0,352.5,317.5,352.0,325.5,351.0,333.0,351.0,341.0,351.0,349.0,351.0,357.5,351.0,365.0,350.5,373.0,350.0,381.0,349.5,388.5,348.5,396.5,348.0,405.0,348.0,413.0,347.0,421.5,346.5" stroke="black" stroke-width="2" fill="none" />
<polyline points="385.5,315.5,378.0,316.0,370.0,317.0,362.0,317.5,353.5,318.5,345.5,319.5,337.0,320.5,329.0,321.5,322.0,322.0,314.5,322.5,307.0,323.0,299.5,323.5,291.5,324.0" stroke="black" stroke-width="2" fill="none" />
<polyline points="290.0,325.5,298.5,318.5,306.5,311.0,315.0,303.0,322.5,295.0,331.0,287.5,339.5,280.5,347.5,272.5,356.0,264.5,364.0,257.0,372.0,249.0,380.0,241.0,388.0,232.5,396.0,225.0,404.0,217.0" stroke="black" stroke-width="2" fill="none" />
<polyline points="403.5,210.0,395.5,217.5,387.5,225.0,379.5,233.0,372.0,240.5,364.0,248.0,355.5,256.0,347.5,264.0,339.0,271.5,330.5,279.0,322.5,286.0,314.5,293.5,307.0,301.5,299.0,309.0,291.5,316.0" stroke="black" stroke-width="2" fill="none" />
<polyline points="290.0,314.0,298.5,313.5,306.5,313.0,314.5,313.0,322.5,312.0,330.5,311.5,338.0,310.5,346.5,309.5,354.5,309.5,363.0,309.5,371.0,309.0,379.0,308.5,387.0,307.5,395.0,306.5" stroke="black" stroke-width="2" fill="none" />
<polyline points="395.5,277.0,388.0,277.5,379.5,278.5,371.5,279.0,363.0,279.0,355.0,279.0,347.5,278.0,340.0,278.0,331.5,278.5,323.5,279.5,315.5,280.5,308.0,281.0,300.5,282.0" stroke="black" stroke-width="2" fill="none" />
<polyline points="300.0,273.5,308.0,273.0,316.0,272.5,324.0,271.5,332.0,271.0,339.5,270.5,347.5,270.0,356.0,270.0,364.0,270.0,372.0,270.0,380.0,269.5,388.0,269.0,396.0,268.0" stroke="black" stroke-width="2" fill="none" />
<polyline points="396.0,259.0,387.5,259.0,379.5,260.0,371.5,260.0,364.0,260.5,356.5,261.0,348.5,261.5,341.0,262.0,333.0,262.5,325.0,263.0,317.5,263.5,310.0,264.0,301.5,264.0" stroke="black" stroke-width="2" fill="none" />
<polyline points="300.0,257.0,308.5,256.5,317.0,255.5,325.5,255.0,333.5,255.0,341.5,255.0,349.0,254.5,356.0,254.0,364.0,253.0,372.5,252.5,380.5,252.0,388.5,251.5,396.0,250.5" stroke="black" stroke-width="2" fill="none" />
<polyline points="397.5,244.5,390.0,244.5,382.5,245.5,374.5,246.0,366.5,246.5,358.5,246.5,350.5,247.0,342.0,247.5,333.5,248.0,325.5,248.0,317.5,248.5,309.5,249.0,301.5,249.5" stroke="black" stroke-width="2" fill="none" />
<polyline points="300.5,242.5,308.5,242.0,316.5,241.5,324.0,241.0,332.5,240.0,340.0,239.5,348.5,238.5,357.0,237.5,365.5,237.0,374.0,236.5,381.5,236.0,389.5,236.0,397.0,235.5" stroke="black" stroke-width="2" fill="none" />
<polyline points="403.0,222.5,395.5,222.5,388.0,223.0,380.5,223.5,373.5,224.5,366.0,225.0" stroke="black" stroke-width="2" fill="none" />
<polyline points="365.0,215.0,373.0,215.0,381.0,215.0,389.5,215.0,397.0,215.0,404.5,215.0" stroke="black" stroke-width="2" fill="none" />
<polyline points="406.0,203.0,397.5,210.5,389.5,218.0,381.0,225.5,372.5,233.0,364.5,240.5,355.5,248.0,347.0,254.5,338.0,262.0,329.0,269.5,321.0,277.5,313.0,284.5,305.5,292.5,298.0,301.0,290.5,308.5" stroke="black" stroke-width="2" fill="none" />
<polyline points="289.5,305.5,297.5,305.0,306.0,305.0,314.5,304.5,322.5,304.5,330.5,303.5,338.5,303.0,346.5,302.0,354.5,301.0,363.0,300.0,371.5,299.5,379.5,299.0,387.5,299.0,395.5,299.0" stroke="black" stroke-width="2" fill="none" />
<polyline points="396.0,290.0,388.0,290.5,380.0,291.0,372.0,292.0,364.0,292.5,356.0,293.5,348.0,294.0,340.0,294.5,332.0,295.0,324.0,295.5,315.5,296.5,307.0,297.5,299.0,298.0,291.0,298.5" stroke="black" stroke-width="2" fill="none" />
<polyline points="290.5,301.0,298.5,293.5,306.5,285.5,314.0,278.0,321.5,270.5,329.5,262.5,337.5,255.0,346.0,247.0,354.0,239.0,362.5,231.5,371.5,224.0,380.0,216.5,388.0,209.0,396.5,202.0,404.5,194.5" stroke="black" stroke-width="2" fill="none" />
<polyline points="403.0,187.0,395.0,194.0,387.0,202.0,379.0,209.5,370.5,216.5,362.5,224.0,355.0,232.0,347.0,239.0,339.0,246.5,330.5,254.0,322.5,261.0,314.5,269.0,307.0,277.0,299.0,284.5,291.0,292.5" stroke="black" stroke-width="2" fill="none" />
<polyline points="292.0,291.5,300.0,291.0,308.5,290.5,316.5,290.0,325.0,289.0,333.0,289.0,341.5,288.5,350.0,288.0,358.0,287.5,366.0,286.0,373.5,286.0,381.5,285.5,389.5,285.0,397.5,284.0" stroke="black" stroke-width="2" fill="none" />
<polyline points="397.0,292.0,389.0,292.5,380.5,293.0,372.0,294.0,364.0,294.5,356.0,295.0,348.0,295.5,340.0,295.5,332.0,295.5,324.0,296.0,316.0,296.5,307.5,296.5,299.5,297.0,291.0,297.5,283.0,298.0,274.5,299.0,267.0,300.0,258.5,300.5,250.0,300.5,241.5,301.0,233.5,302.0,225.5,303.0,218.0,303.5,210.5,303.5,203.0,304.0,195.5,304.0,187.5,304.5,179.5,305.5,171.5,305.5,163.5,306.0,156.0,306.0,148.0,306.5,140.0,306.5,132.0,307.0,124.0,307.5,115.5,307.5,107.5,308.5" stroke="black" stroke-width="2" fill="none" />
<polyline points="108.5,298.5,116.5,298.0,124.5,298.5,133.0,298.5,140.5,298.0,148.5,298.5,156.5,298.0,165.0,298.5,173.0,298.5,180.5,298.5,188.0,298.0,196.5,297.5,204.5,297.0,212.0,296.0,219.5,295.5,227.5,295.0,235.0,294.0,243.0,293.5,250.5,293.0,258.5,292.5,266.5,292.0,274.5,291.5,282.5,291.0,290.5,290.0,299.0,289.5,307.5,288.5,316.0,288.0,324.0,287.5,332.0,287.0,339.5,286.0,347.5,285.5,355.5,285.5,364.0,285.5,372.0,285.0,379.5,284.0,388.0,283.5,396.0,283.0,404.5,282.0" stroke="black" stroke-width="2" fill="none" />
<polyline points="403.0,274.5,395.5,275.0,387.5,276.0,380.0,276.5,372.0,277.0,363.5,277.5,355.5,277.5,347.0,278.5,339.0,279.0,331.0,280.0,322.5,280.5,314.5,281.0,306.5,280.5,298.0,281.5,290.0,282.5,282.5,282.5,274.5,283.0,267.0,283.5,259.0,283.5,251.0,284.5,242.5,285.5,234.5,286.5,226.0,287.0,218.5,288.0,211.0,288.5,203.0,289.0,195.0,289.5,187.0,290.0,179.0,290.0,171.5,290.0,163.5,290.0,156.0,290.5,148.5,290.0,140.5,290.5,133.0,291.5,125.5,292.0,117.5,292.5,109.5,293.0" stroke="black" stroke-width="2" fill="none" />
<polyline points="109.5,283.5,117.5,283.0,125.0,283.0,132.5,283.0,140.5,284.0,148.0,284.0,156.0,283.5,163.5,283.0,171.5,282.5,179.0,282.0,187.0,281.5,195.0,281.0,202.5,280.0,210.0,279.0,218.5,278.5,227.0,277.5,235.0,277.0,243.5,277.0,252.0,276.5,261.0,276.5,269.0,276.0,277.5,275.5,284.5,275.0,292.0,275.0,299.5,274.5,307.0,274.5,315.0,273.5,323.5,273.0,332.0,272.5,339.5,272.0,347.5,271.5,355.5,271.0,363.0,270.5,370.5,269.5,378.5,268.0,386.5,267.0,394.0,266.0,401.5,266.0" stroke="black" stroke-width="2" fill="none" />
<polyline points="402.5,259.0,395.0,259.0,387.5,259.5,380.0,261.0,372.0,262.5,364.0,263.0,356.0,263.5,348.0,264.0,339.5,264.5,331.5,265.5,323.5,266.0,315.5,266.5,307.0,266.5,299.0,267.0,291.0,267.0,282.5,267.5,274.0,268.0,265.5,268.5,258.0,269.0,250.5,269.0,243.0,269.5,235.5,270.0,227.5,270.5,219.5,271.0,212.0,272.0,204.0,272.5,195.5,273.0,187.5,273.5,179.0,273.5,171.0,274.0,163.5,274.5,155.5,274.5,148.0,275.0,139.5,275.0,131.5,275.5,123.5,276.0,115.5,277.0,107.5,277.0" stroke="black" stroke-width="2" fill="none" />
<polyline points="106.5,271.0,114.5,270.0,122.5,269.0,130.5,267.5,138.5,267.0,146.5,266.0,154.5,266.0,162.5,265.0,170.5,264.5,178.5,264.5,186.5,264.0,194.5,263.5,202.5,263.5,210.5,262.5,218.0,262.0,225.5,262.0,233.5,261.5,241.5,261.0,249.0,261.0,257.0,261.0,265.0,260.5,273.0,260.0,281.5,259.5,290.0,259.0,298.5,258.5,307.5,258.0,316.0,257.0,324.5,257.0,333.0,257.0,341.5,256.5,349.5,256.0,357.5,255.5,365.0,255.0,372.5,255.0,380.0,255.0,387.0,254.5,395.0,253.5,402.5,252.5" stroke="black" stroke-width="2" fill="none" />
<polyline points="395.0,227.0,387.5,227.0,380.0,227.0,372.0,227.5,364.5,228.5,356.5,229.0,348.5,229.5,340.0,230.0,331.5,230.5,322.5,231.5,314.0,232.5,305.5,234.0,297.5,234.5" stroke="black" stroke-width="2" fill="none" />
<polyline points="293.5,239.0,301.5,232.0,309.5,225.0,317.5,217.5,326.0,210.0,334.0,202.0,342.0,194.0,350.0,186.5,357.5,179.0" stroke="black" stroke-width="2" fill="none" />
<polyline points="363.5,178.5,356.0,186.0,348.0,194.0,340.0,201.5,331.5,209.5,323.5,217.0,316.0,224.5,308.0,232.5,300.0,240.0,292.0,247.0" stroke="black" stroke-width="2" fill="none" />
<polyline points="290.5,263.5,298.5,256.0,307.0,248.5,314.5,241.0,322.5,233.0,330.5,225.0,339.0,217.0,347.0,208.5,355.0,201.5,363.0,194.0,371.0,186.5,378.5,179.5,386.5,172.0" stroke="black" stroke-width="2" fill="none" />
<polyline points="389.5,167.0,397.0,166.5,404.0,166.0,412.0,165.5" stroke="black" stroke-width="2" fill="none" />
<polyline points="401.5,170.5,394.0,178.0,386.5,186.0,379.0,194.0,371.0,202.5,363.0,210.5,355.5,217.5,347.0,225.5,339.0,233.0,331.0,240.5,323.0,248.5,315.5,255.5,307.0,262.0,299.0,269.0,291.5,276.5" stroke="black" stroke-width="2" fill="none" />
<polyline points="291.0,285.0,299.0,277.5,307.0,270.0,315.5,262.0,323.5,254.5,332.0,247.0,340.0,240.0,348.0,232.5,356.0,224.5,363.5,216.5,371.5,209.0,379.5,201.5,387.5,194.0,395.5,187.0,404.0,179.5" stroke="black" stroke-width="2" fill="none" />
<polyline points="395.5,172.5,387.5,179.5,380.0,187.0,372.5,194.0,365.0,202.0,357.0,209.5,348.5,217.5,339.5,226.0,331.0,234.0,323.0,241.5,315.0,248.5,307.0,256.0,299.0,263.0,291.0,270.5" stroke="black" stroke-width="2" fill="none" />
<polyline points="291.5,252.5,299.5,245.0,308.5,237.5,316.5,230.0,324.5,222.5,332.5,215.5,340.5,208.0,348.0,200.5,356.0,192.5,363.5,185.0,371.0,178.0,379.0,170.0" stroke="black" stroke-width="2" fill="none" />
<polyline points="381.0,179.0,388.5,178.5,396.5,177.5,404.0,177.0" stroke="black" stroke-width="2" fill="none" />
<polyline points="350.5,180.5,342.5,188.0,334.0,195.0,325.5,202.5,317.0,209.5,308.5,216.5,301.0,224.0,293.0,231.5" stroke="black" stroke-width="2" fill="none" />
<polyline points="291.0,224.5,299.5,216.5,307.0,209.5,315.0,202.0,323.0,194.5,331.5,187.5,340.0,180.0" stroke="black" stroke-width="2" fill="none" />
<polyline points="344.5,185.5,352.5,184.5,361.5,183.5,370.0,183.0,378.0,183.0,385.5,183.5,394.5,183.5,403.0,183.5" stroke="black" stroke-width="2" fill="none" />
<polyline points="414.0,168.0,405.5,168.5,396.5,169.0,387.5,169.5,379.0,170.0,371.0,170.5,362.0,171.0,353.5,172.0,345.0,173.0,337.0,174.0,329.0,174.5" stroke="black" stroke-width="2" fill="none" />
<polyline points="329.0,159.5,337.0,158.5" stroke="black" stroke-width="2" fill="none" />
<polyline points="333.0,155.5,341.0,148.0" stroke="black" stroke-width="2" fill="none" />
<polyline points="340.0,140.0,332.0,147.5" stroke="black" stroke-width="2" fill="none" />
<polyline points="332.0,149.5,340.5,149.0,348.5,149.0" stroke="black" stroke-width="2" fill="none" />
<polyline points="350.0,148.0,350.0,150.0" stroke="black" stroke-width="2" fill="none" />
<polyline points="348.0,140.0,340.0,140.0,331.5,140.5" stroke="black" stroke-width="2" fill="none" />
<polyline points="331.5,138.0,340.0,130.0" stroke="black" stroke-width="2" fill="none" />
<polyline points="333.0,133.5,341.5,133.0,349.5,132.0" stroke="black" stroke-width="2" fill="none" />
<polyline points="340.0,154.5,331.0,155.5,323.0,156.0,315.5,156.5,307.5,156.5,300.0,157.0,292.5,158.0,284.5,159.5,276.5,159.5,268.5,160.0,260.5,160.5,252.5,161.0,244.0,162.0,236.5,162.5,228.0,162.5,220.0,163.0,211.5,163.0,203.5,163.0,195.5,163.5,188.0,164.0,180.0,164.5,172.0,164.5,164.0,164.5" stroke="black" stroke-width="2" fill="none" />
<polyline points="158.0,167.5,165.5,166.5,173.5,165.0,181.0,164.5,189.0,162.5,197.0,162.0,205.0,161.0,212.5,160.0,220.5,157.5,228.5,156.5,237.0,156.0,244.5,154.5,238.5,161.5,234.5,172.0,229.5,174.0,235.0,176.0,243.5,177.5,249.5,171.5" stroke="black" stroke-width="2" fill="none" />
<polyline points="244.5,168.0,252.5,168.0,260.5,169.0,268.5,170.5,276.0,171.5,284.0,171.5,292.0,173.0,300.0,173.0,300.0,176.0" stroke="black" stroke-width="2" fill="none" />
<polyline points="300.5,172.5,308.5,172.0,316.0,170.5" stroke="black" stroke-width="2" fill="none" />
<polyline points="317.0,188.5,309.0,196.0,301.0,203.0,293.0,210.5" stroke="black" stroke-width="2" fill="none" />
<polyline points="292.0,217.0,300.0,211.0,307.5,204.0,315.0,197.0,323.0,189.0" stroke="black" stroke-width="2" fill="none" />
<polyline points="315.5,192.5,324.0,192.0,332.0,192.0,340.5,192.0,349.0,191.5,357.0,191.0,364.5,191.0,372.5,190.5,380.5,190.5,388.0,190.5,396.0,190.0,404.0,189.5" stroke="black" stroke-width="2" fill="none" />
<polyline points="353.5,212.5,345.0,213.5,337.0,214.5,329.0,214.5,321.5,214.5,314.0,214.5,306.0,214.5,298.5,215.0" stroke="black" stroke-width="2" fill="none" />
<polyline points="300.0,207.5,307.5,207.5,315.5,207.0,323.0,207.0,330.0,207.0,338.0,206.5,345.5,206.5,353.0,205.5,361.0,204.5,369.5,203.5,377.5,203.0,385.5,202.5,394.0,202.0,402.5,202.0" stroke="black" stroke-width="2" fill="none" />
<polyline points="355.0,220.5,347.0,221.0,339.0,221.5,330.5,222.0,322.5,223.0,314.0,224.0,306.0,225.0,298.0,225.0" stroke="black" stroke-width="2" fill="none" />
<polyline points="300.0,202.5,308.0,201.5,316.0,200.5,323.5,200.0,331.0,199.5,338.5,199.0,346.0,198.5,354.0,198.0,362.0,197.0,369.5,196.5,377.5,196.0,385.5,195.5,393.0,195.0,401.0,194.5" stroke="black" stroke-width="2" fill="none" />
<polyline points="410.5,174.0,403.0,175.0,395.0,176.0,387.0,176.5,378.5,177.5,371.5,178.0,363.5,177.5,356.0,177.5,348.0,177.5,340.5,177.5,332.0,178.5,324.0,179.0,316.0,179.5,308.5,180.0,300.5,180.5" stroke="black" stroke-width="2" fill="none" />
<polyline points="307.5,187.0,299.5,194.0,291.5,202.0" stroke="black" stroke-width="2" fill="none" />
<polyline points="292.5,190.5,300.5,190.0,309.0,190.0,317.5,189.5,325.5,189.5,333.5,189.0,341.5,188.0,349.5,187.5,357.5,186.5,365.5,186.0,373.5,186.0,381.0,185.0,388.5,184.0,396.0,183.5,404.0,183.0,411.5,182.5" stroke="black" stroke-width="2" fill="none" />
<polyline points="403.5,243.5,396.0,244.0,388.5,244.5,380.0,245.0,372.0,245.5,364.0,245.5,356.0,246.0,348.0,246.0,340.0,246.5,332.5,248.0,325.0,248.5,317.0,248.5,308.5,249.0,300.5,249.5,291.5,250.5,283.0,251.0,275.0,251.5,267.0,251.5,258.0,252.0,250.0,252.5,241.5,253.5,233.5,254.5,226.0,255.0,218.0,255.0,210.5,255.0,202.5,255.5,194.5,256.0,186.5,256.0,179.0,256.5,171.5,257.0,163.5,257.5,156.0,258.0,148.0,258.5,140.0,259.0,131.5,260.0,123.0,260.5,115.5,260.5,107.5,261.0" stroke="black" stroke-width="2" fill="none" />
<polyline points="100.5,253.0,108.5,252.5,116.5,251.5,124.5,250.5,131.5,249.5,139.0,249.0,147.0,249.0,154.5,249.0,162.5,249.0,170.0,249.0,177.5,248.5,185.5,248.0,194.0,248.0,202.0,247.5,210.0,246.5,218.5,245.5,226.5,245.0,234.0,244.5,242.5,244.0,251.5,244.0,260.0,243.5,267.5,243.0,275.0,242.0,283.0,241.5,290.5,241.0,299.0,241.0,307.0,240.5,315.5,240.0,323.5,239.5,332.0,239.0,340.0,238.0,348.0,237.5,356.0,237.0,364.0,236.5,372.5,236.5,381.0,236.0,389.0,235.5,397.0,234.5,404.5,233.5" stroke="black" stroke-width="2" fill="none" />
<polyline points="404.5,226.0,396.0,226.5,387.0,227.0,378.5,228.0,370.5,228.5,363.0,229.0,355.0,229.0,347.0,229.5,339.0,230.0,331.0,230.5,323.0,231.0,315.0,231.5,307.5,232.0,299.5,232.0,291.5,233.0,283.5,233.5,275.0,234.5,266.5,234.5,258.5,235.0,250.5,235.5,242.5,236.5,234.5,237.5,226.5,238.5,218.5,238.5,211.5,239.0,203.5,239.5,196.0,240.0,188.5,240.5,180.0,240.5,172.5,241.0,164.5,241.0,156.5,241.5,148.5,241.5,140.5,242.0,132.0,242.0,123.5,242.5,115.5,243.5,107.0,244.0,99.0,245.0" stroke="black" stroke-width="2" fill="none" />
<polyline points="97.0,238.5,105.0,238.0,113.0,237.0,121.5,236.0,130.5,236.0,139.5,235.5,148.0,234.5,156.0,234.0,164.5,234.0,173.5,233.0,181.5,233.0,189.0,232.5,196.5,231.5,204.5,231.0,212.5,230.5,220.0,230.0,228.0,230.0,235.5,230.5,243.5,230.5,251.5,230.5,259.5,230.0,267.5,229.5,275.0,229.0,282.5,228.5,290.0,228.0,297.0,227.5,305.0,226.5,313.5,225.5,321.5,224.5,330.0,223.5,338.0,223.0,346.0,222.0,353.5,221.5,362.0,221.5,370.5,221.0,379.0,221.0,387.5,219.5,396.0,219.0,404.0,218.0" stroke="black" stroke-width="2" fill="none" />
<polyline points="403.5,209.0,395.5,209.5,387.5,210.0,379.0,211.0,371.0,211.5,363.0,212.5,355.0,213.5,347.0,214.5,339.0,215.0,331.0,215.5,322.5,215.5,314.5,215.5,306.0,216.5,298.5,217.5,290.5,218.0,282.5,219.0,274.5,219.0,266.5,219.5,258.0,220.0,250.0,220.5,242.0,221.0,234.5,221.0,227.5,221.5,220.0,222.5,212.0,223.0,204.0,224.0,196.0,224.5,188.0,225.0,180.0,225.5,172.0,226.5,164.5,227.0,156.5,227.0,148.5,227.5,140.5,228.0,132.0,228.0,123.5,228.5,115.0,229.0,106.5,229.0,98.5,229.5" stroke="black" stroke-width="2" fill="none" />
<polyline points="100.5,221.5,108.5,221.0,116.5,220.5,124.5,220.0,132.0,219.5,140.0,219.0,148.0,219.5,156.0,219.5,163.5,219.0,171.0,218.5,179.0,217.5,186.5,217.0,194.0,216.5,202.0,216.5,209.5,216.0,217.5,215.0,225.5,214.5,234.0,214.0,242.0,212.5,249.5,212.0,257.5,211.5,265.5,211.0,274.0,211.0,282.5,210.5,290.5,210.5,298.5,209.5,306.5,209.0,314.5,208.0,322.5,207.0,331.0,206.0,339.5,205.5,347.5,205.0,355.5,205.0,363.5,205.0,371.5,204.5,379.0,204.5,387.5,204.0,396.0,203.0,404.5,202.5" stroke="black" stroke-width="2" fill="none" />
<polyline points="404.0,194.0,396.0,194.0,388.0,195.0,380.0,196.0,372.0,196.0,364.0,196.0,356.0,196.5,348.0,197.0,340.0,198.0,332.0,198.5,324.0,199.5,316.0,200.0,308.0,200.5,300.0,201.0,292.0,201.5,283.5,202.5,275.0,203.5,267.0,204.0,259.0,204.5,251.0,205.0,243.5,205.5,235.5,206.0,227.5,207.0,220.0,207.5,211.5,208.0,203.5,208.5,195.0,209.0,186.5,209.5,178.5,210.0,171.0,210.5,163.0,210.5,155.0,210.5,147.0,210.5,139.0,210.5,131.0,211.5,123.5,212.0,115.5,212.5,107.5,213.0,99.5,213.5" stroke="black" stroke-width="2" fill="none" />
<polyline points="98.5,205.0,107.0,205.0,115.5,204.5,123.5,204.5,131.5,203.5,139.5,203.0,148.0,202.5,156.5,202.5,164.5,202.0,172.5,202.0,181.0,201.0,188.5,200.5,196.5,200.0,204.5,200.0,212.0,199.5,220.0,199.0,227.5,198.5,235.5,198.5,243.5,198.5,252.0,198.0,260.0,197.5,268.0,197.0,276.5,196.5,284.5,196.0,293.0,195.0,301.0,195.0,309.5,194.5,318.0,194.0,326.0,193.5,334.0,192.0,341.5,192.0,349.5,191.5,357.5,191.0,365.5,190.0,373.5,189.0,381.5,188.5,389.5,188.0,397.5,187.0,405.5,186.0" stroke="black" stroke-width="2" fill="none" />
<polyline points="404.5,178.0,396.5,179.0,388.0,180.0,379.5,180.5,372.0,181.0,364.0,181.5,356.5,182.0,349.0,183.0,341.5,184.0,333.5,184.0,325.5,184.5,317.5,185.5,309.5,186.0,301.5,187.0,293.5,187.5,285.5,187.5,277.0,188.0,268.5,188.0,260.5,188.5,252.5,189.0,244.5,189.5,236.5,190.0,228.5,190.0,220.5,190.0,212.0,190.5,203.5,190.5,195.0,191.0,187.5,191.5,180.0,192.5,172.0,192.5,164.0,193.0,156.5,193.5,148.5,194.0,140.0,194.0,132.0,194.5,124.5,195.0,116.5,195.5,108.0,196.0,100.0,197.0" stroke="black" stroke-width="2" fill="none" />
<polyline points="101.0,188.0,109.5,187.5,117.5,187.5,125.5,187.5,133.5,187.0,141.5,186.5,149.0,185.5,156.0,184.5,163.5,184.0,171.5,183.5,179.5,183.0,187.5,182.5,195.0,182.0,203.0,181.5,211.5,181.0,220.0,181.0,228.0,180.0,236.0,180.0,244.5,179.5,252.5,179.5,260.0,179.0" stroke="black" stroke-width="2" fill="none" />
<polyline points="243.5,170.0,235.5,170.5,228.0,171.0,220.0,171.5,212.5,172.5,204.5,173.0,196.5,174.0,189.0,174.5" stroke="black" stroke-width="2" fill="none" />
<polyline points="196.5,171.0,204.5,163.5" stroke="black" stroke-width="2" fill="none" />
<polyline points="211.0,163.5,203.0,171.5" stroke="black" stroke-width="2" fill="none" />
<polyline points="210.0,170.5,218.0,170.0,226.5,169.0,234.5,168.0" stroke="black" stroke-width="2" fill="none" />
<polyline points="234.5,170.0,243.0,162.5" stroke="black" stroke-width="2" fill="none" />
<polyline points="237.0,164.5,228.5,172.0" stroke="black" stroke-width="2" fill="none" />
<polyline points="220.5,170.5,228.5,163.0" stroke="black" stroke-width="2" fill="none" />
<polyline points="220.0,163.5,212.0,171.0" stroke="black" stroke-width="2" fill="none" />
<polyline points="210.0,157.5,218.0,157.5,226.0,157.0,234.5,157.0,243.0,156.5,251.5,155.5,260.0,155.0" stroke="black" stroke-width="2" fill="none" />
<polyline points="281.0,178.5,289.0,177.5" stroke="black" stroke-width="2" fill="none" />
<polyline points="282.0,190.0,293.0,196.0,292.0,204.0,291.5,212.0,291.5,220.5,291.5,228.5,291.5,236.5,291.0,244.5,289.5,252.5,289.5,261.0,289.0,269.0,289.5,276.5,289.5,284.5,288.5,292.0,288.5,299.5,288.5,307.5,289.0,315.5,289.5,323.5,289.5,331.5,289.0,339.0,289.0,347.0,289.0,355.5,288.5,363.5,288.5,371.5,288.5,379.5,288.5,387.0,288.0,395.5,289.0,403.5,287.5,411.5,287.0,419.5,286.0,427.5,287.5,435.5,288.5,443.5,288.0,451.5,288.0,460.0,288.0,468.5,287.0,476.5,287.0,484.0,287.0,492.0,287.5,499.5,287.5,507.5,287.5,515.5,287.0,523.5,286.5,532.0,286.5,540.0,286.5,548.5,285.5,556.5,285.5,565.0,285.5,573.5,285.5,581.5,284.5,589.5,284.5,597.5,284.5,605.0,285.0,612.5,285.0,620.5,285.0,628.5,290.0,628.5,298.0,620.5,305.5,613.5,309.0,609.5,300.0,617.5,292.0,625.5" stroke="black" stroke-width="2" fill="none" />
<polyline points="140.0,517.0,132.0,525.0" stroke="black" stroke-width="2" fill="none" />
<polyline points="133.0,516.0,141.0,508.5" stroke="black" stroke-width="2" fill="none" />
<polyline points="119.0,444.0,120.0,452.0,121.0,460.5,121.5,468.5,122.5,477.0,123.5,484.5,123.0,492.5,123.5,500.0,124.0,508.0,125.0,516.0,125.0,524.5,126.0,532.0,127.0,540.0,128.0,548.0,128.0,556.0,130.5,564.5,147.5,572.5,163.5,580.5,181.0,588.5,197.5,596.5,215.5,604.5,232.0,613.0,250.0,621.0,267.0,629.0" stroke="black" stroke-width="2" fill="none" />
<polyline points="117.5,431.0,117.0,423.5,116.0,415.5,115.0,407.0,114.5,399.0,114.0,390.5,113.0,382.0,113.0,373.5,111.5,365.5,107.5,361.0" stroke="black" stroke-width="2" fill="none" />
<polyline points="108.5,357.0,116.0,357.0,124.0,356.5,132.0,356.5,139.5,356.5,147.5,356.0,155.5,356.0,163.5,355.5,171.5,355.0,179.5,354.0,188.0,353.5,195.5,352.5,203.0,352.0,210.5,351.5,219.0,351.0,226.5,350.0,235.5,349.0,243.5,348.5,252.0,348.0,259.5,347.5,267.5,347.0,275.5,346.5,283.5,345.5,292.0,345.0,300.5,345.5,309.0,345.0,317.0,344.5,325.0,343.0,333.0,342.5,340.5,341.5,348.5,341.0,357.0,340.5,364.5,340.0,372.5,340.0,380.5,340.0,388.5,340.0,396.5,339.5,404.5,339.0,413.0,339.0,421.0,338.5" stroke="black" stroke-width="2" fill="none" />
<polyline points="420.0,329.0,412.0,330.5,404.0,331.0,396.5,331.5,389.0,332.0,381.0,332.0,373.5,332.5,365.0,333.0,356.5,333.5,348.0,334.5,340.5,334.5,332.5,335.0,324.0,335.5,316.0,335.5,307.5,336.0,299.0,337.0,290.5,338.0,282.0,339.0,274.5,339.5,266.5,340.5,259.0,341.0,251.0,341.0,243.0,341.5,235.0,342.0,227.0,342.5,219.0,343.5,212.0,344.5,204.0,345.5,195.5,346.5,187.5,347.0,179.5,347.5,172.0,347.5,164.0,347.5,156.0,347.5,148.0,347.5,140.0,348.0,132.0,348.0,124.5,348.5,116.5,348.0,108.0,348.5" stroke="black" stroke-width="2" fill="none" />
<polyline points="83.0,363.5,75.0,364.0,67.0,364.5" stroke="black" stroke-width="2" fill="none" />
<polyline points="65.0,356.5,73.0,356.0,81.5,355.5" stroke="black" stroke-width="2" fill="none" />
<polyline points="78.5,352.5,78.5,360.5" stroke="black" stroke-width="2" fill="none" />
<polyline points="79.0,370.5,78.5,378.5,80.5,386.5,76.0,389.5,81.0,392.5,80.5,400.5" stroke="black" stroke-width="2" fill="none" />
<polyline points="84.0,404.0,76.0,404.5" stroke="black" stroke-width="2" fill="none" />
<polyline points="77.0,396.5,84.5,396.0" stroke="black" stroke-width="2" fill="none" />
<polyline points="82.5,389.0,75.0,390.0" stroke="black" stroke-width="2" fill="none" />
<polyline points="76.5,381.0,84.0,381.0" stroke="black" stroke-width="2" fill="none" />
<polyline points="84.0,372.0,76.0,372.5" stroke="black" stroke-width="2" fill="none" />
<polyline points="67.5,349.5,75.5,348.5,82.5,348.0" stroke="black" stroke-width="2" fill="none" />
<polyline points="76.0,342.5,68.5,343.0" stroke="black" stroke-width="2" fill="none" />
<polyline points="72.0,347.5,71.5,355.5" stroke="black" stroke-width="2" fill="none" />
<polyline points="68.0,332.5,76.0,332.0" stroke="black" stroke-width="2" fill="none" />
<polyline points="74.0,324.5,66.0,325.0" stroke="black" stroke-width="2" fill="none" />
<polyline points="67.5,317.0,75.5,316.5" stroke="black" stroke-width="2" fill="none" />
<polyline points="78.0,310.5,70.0,310.5" stroke="black" stroke-width="2" fill="none" />
<polyline points="67.0,312.5,75.0,304.5" stroke="black" stroke-width="2" fill="none" />
<polyline points="71.5,298.0,73.5,306.0,69.5,319.5,71.5,324.5,74.5,332.0,69.5,340.5" stroke="black" stroke-width="2" fill="none" />
<polyline points="66.0,315.0,66.0,317.0,63.0,317.0,65.0,325.0,65.5,333.0,67.5,341.0,68.5,349.0,68.0,357.0,69.0,365.0,69.5,373.0,70.5,381.0,71.5,390.0,72.5,398.0,73.5,406.0,74.0,414.5,79.0,410.5,77.0,420.5,76.0,428.5,78.0,428.0,82.5,433.0" stroke="black" stroke-width="2" fill="none" />
<polyline points="97.5,444.0,105.5,442.0" stroke="black" stroke-width="2" fill="none" />
<polyline points="84.0,413.5,75.5,414.0" stroke="black" stroke-width="2" fill="none" />
<polyline points="62.0,440.5,70.0,438.5,78.0,441.5,90.0,439.0,98.5,439.0,104.5,436.5,109.5,442.5" stroke="black" stroke-width="2" fill="none" />
<polyline points="45.5,438.5,39.0,440.5,30.0,440.5,21.5,440.0,13.5,440.0" stroke="black" stroke-width="2" fill="none" />
<polyline points="4.0,437.0,4.0,435.0,12.0,435.0,20.0,435.0,28.0,434.0,34.0,435.0,41.5,436.0,47.0,435.5,54.5,436.5,62.5,437.0,70.5,437.0,78.5,437.0,87.0,438.0,91.0,438.0,99.0,436.0,105.5,436.0,113.0,436.0" stroke="black" stroke-width="2" fill="none" />
<polyline points="17.5,453.0,10.0,452.0" stroke="black" stroke-width="2" fill="none" />
<polyline points="59.0,306.0,67.0,298.5" stroke="black" stroke-width="2" fill="none" />
<polyline points="60.5,294.5,68.5,294.0,76.0,293.0" stroke="black" stroke-width="2" fill="none" />
<polyline points="76.0,284.5,69.0,285.0,61.0,286.0" stroke="black" stroke-width="2" fill="none" />
<polyline points="66.5,285.0,74.5,291.5" stroke="black" stroke-width="2" fill="none" />
<polyline points="67.5,277.5,59.5,278.5" stroke="black" stroke-width="2" fill="none" />
<polyline points="50.0,300.5,58.0,299.5,66.5,299.5,74.5,299.5,82.5,298.5" stroke="black" stroke-width="2" fill="none" />
<polyline points="62.5,298.5,55.5,295.5,47.5,300.0" stroke="black" stroke-width="2" fill="none" />
<polyline points="99.5,185.0,107.0,177.5" stroke="black" stroke-width="2" fill="none" />
<polyline points="101.0,180.5,109.0,180.0,117.0,180.0,124.5,179.5,132.0,179.0,140.0,178.5,148.0,178.0,156.0,177.5,164.0,176.5,172.0,176.0,180.0,175.0,188.0,175.0" stroke="black" stroke-width="2" fill="none" />
<polyline points="189.0,173.0,197.0,166.0" stroke="black" stroke-width="2" fill="none" />
<polyline points="169.0,170.0,177.0,171.0,185.5,171.0,193.5,172.0,201.5,173.0,210.0,173.0,218.5,173.5,226.5,171.5,234.5,169.5,243.5,166.5,248.5,156.5,256.0,155.0,264.0,156.5,272.0,157.0,280.5,158.0,288.5,158.0,296.5,159.0" stroke="black" stroke-width="2" fill="none" />
<polyline points="299.5,157.0,308.0,156.0,316.5,155.5" stroke="black" stroke-width="2" fill="none" />
<polyline points="317.0,149.0,309.0,149.5,301.5,150.0" stroke="black" stroke-width="2" fill="none" />
<polyline points="300.5,140.0,309.0,139.5" stroke="black" stroke-width="2" fill="none" />
<polyline points="308.5,132.5,300.0,133.5" stroke="black" stroke-width="2" fill="none" />
<polyline points="300.5,124.5,308.5,124.0" stroke="black" stroke-width="2" fill="none" />
<polyline points="309.5,117.0,301.5,117.0" stroke="black" stroke-width="2" fill="none" />
<polyline points="299.0,110.0,307.0,109.5" stroke="black" stroke-width="2" fill="none" />
<polyline points="307.0,101.0,299.0,101.0" stroke="black" stroke-width="2" fill="none" />
<polyline points="300.0,94.5,308.0,94.0" stroke="black" stroke-width="2" fill="none" />
<polyline points="307.5,84.5,299.5,84.5" stroke="black" stroke-width="2" fill="none" />
<polyline points="299.0,77.5,307.5,76.5" stroke="black" stroke-width="2" fill="none" />
<polyline points="307.5,70.0,299.5,70.5" stroke="black" stroke-width="2" fill="none" />
<polyline points="301.0,60.5,292.0,61.0" stroke="black" stroke-width="2" fill="none" />
<polyline points="291.5,57.0,300.0,49.5" stroke="black" stroke-width="2" fill="none" />
<polyline points="291.0,46.0,283.0,46.5,275.0,47.0" stroke="black" stroke-width="2" fill="none" />
<polyline points="276.5,47.5,269.0,52.5,261.0,61.5,254.0,68.5,258.0,62.5,268.0,54.5,279.0,46.5" stroke="black" stroke-width="2" fill="none" />
<polyline points="276.5,44.0,264.5,52.0,258.5,60.0,253.0,67.5,247.5,75.0,242.5,82.5,241.5,91.5" stroke="black" stroke-width="2" fill="none" />
<polyline points="238.5,85.5,246.5,75.5,254.5,63.0,262.5,52.0,270.5,46.5,278.5,43.5,286.5,43.5,294.5,49.0,301.5,61.5" stroke="black" stroke-width="2" fill="none" />
<polyline points="299.0,52.5,290.0,53.5,281.5,54.5,273.5,55.0,265.0,56.0" stroke="black" stroke-width="2" fill="none" />
<polyline points="268.0,59.0,276.0,51.5" stroke="black" stroke-width="2" fill="none" />
<polyline points="279.5,50.5,267.5,58.5,273.5,53.5,281.5,50.5,289.0,55.0,297.0,64.0,297.5,70.0" stroke="black" stroke-width="2" fill="none" />
<polyline points="284.5,55.0,291.5,63.0,294.5,71.0,296.5,78.5,297.5,86.5,299.0,94.0,299.5,102.0,299.5,110.0,299.5,117.5,299.5,125.5,299.5,133.5,299.5,141.5,298.5,150.0,297.5,157.0,305.5,158.5,311.5,162.5,319.5,160.5,321.5,157.0,331.5,152.5" stroke="black" stroke-width="2" fill="none" />
<polyline points="316.5,124.0,325.0,124.0,333.0,125.5,341.0,124.5,342.5,133.5,341.0,141.5,341.0,149.5,347.5,158.5,355.5,159.5,363.0,159.0,371.0,160.0,379.0,160.0,387.0,161.0,395.0,162.0,403.5,163.5,406.0,170.5,405.5,178.5,404.5,186.5,403.0,194.0,402.5,202.0,401.5,210.5,401.0,218.5,401.0,226.5,400.0,234.5,399.5,242.5,399.5,250.0,398.0,258.0,398.0,265.5,397.0,273.5,396.5,281.5,396.5,289.5,395.5,297.5,394.5,305.0,394.0,313.0,398.0,319.0,405.5,313.5,413.5,309.0,417.5,300.5,420.0,304.5,409.0,312.5" stroke="black" stroke-width="2" fill="none" />
<polyline points="372.0,259.0,364.0,264.5,356.0,269.5,355.5,269.5,366.5,261.5,375.5,253.5" stroke="black" stroke-width="2" fill="none" />
<polyline points="362.0,222.0,354.0,222.5,356.0,214.5,352.5,217.5" stroke="black" stroke-width="2" fill="none" />
<polyline points="350.0,207.5,358.0,204.5,365.5,202.5" stroke="black" stroke-width="2" fill="none" />
<polyline points="390.0,165.5,382.0,168.0,374.0,170.0,366.5,172.0,358.5,173.0,350.0,175.0,342.0,177.0,334.0,180.0,326.0,181.0,317.5,183.5,309.5,185.5,301.5,188.5,293.5,190.0,285.0,188.0,277.5,187.5,269.5,186.0,261.5,185.0,254.0,184.0,246.0,184.0,237.5,183.0,229.5,182.5,221.5,181.5,213.0,182.0,205.5,181.0,198.0,180.0,190.0,179.0,182.0,179.0,174.0,178.0,166.0,177.0,158.0,176.5,150.0,177.0,147.5,177.0,139.5,175.5,132.0,174.5,124.0,173.5,116.5,173.5,108.5,173.0,100.5,172.0" stroke="black" stroke-width="2" fill="none" />
<polyline points="100.5,174.5,108.0,173.5,116.0,173.0" stroke="black" stroke-width="2" fill="none" />
<polyline points="96.5,169.5,94.0,177.5,95.0,185.5,95.0,193.5,96.0,201.5,97.0,210.0,97.5,218.0,98.5,226.0,99.5,233.5,101.0,241.5,101.0,248.0,102.0,256.0,103.0,264.0,102.5,272.0,103.5,280.5,104.5,288.5,104.5,296.5,105.0,304.5,105.5,312.5,106.5,321.0,106.0,329.0,107.5,336.5,105.5,344.5,107.5,351.0,100.5,352.5" stroke="black" stroke-width="2" fill="none" />
<polyline points="94.0,171.0,102.0,169.0,110.0,167.5,118.0,166.5,126.0,166.0,134.5,164.0,142.0,163.0,150.0,162.5,158.0,161.5,166.0,160.5,174.0,159.5,182.0,157.5,190.5,156.5,198.5,155.5,206.0,154.5,214.0,153.5,222.0,151.5,229.5,151.5,237.5,151.5,245.0,152.0,253.0,153.0,261.0,152.5,269.5,154.0,278.0,154.0,286.0,155.0,294.0,155.0" stroke="black" stroke-width="2" fill="none" />
<polyline points="326.5,152.5,327.0,144.5,327.0,136.5,314.5,130.5,315.5,122.5" stroke="black" stroke-width="2" fill="none" />
<polyline points="267.0,62.0,259.5,62.5" stroke="black" stroke-width="2" fill="none" />
<polyline points="259.5,75.5,251.0,76.5" stroke="black" stroke-width="2" fill="none" />
<polyline points="289.5,48.0,296.0,56.0,294.5,63.5,301.0,66.5,300.5,73.0,301.5,79.0,302.5,86.5,303.5,93.0,303.5,101.0,304.0,106.0,306.0,108.0" stroke="black" stroke-width="2" fill="none" />
<polyline points="241.5,185.5,231.0,184.5,215.0,183.0,203.0,182.0,191.0,181.0,176.0,178.5,167.0,177.5,158.5,177.5" stroke="black" stroke-width="2" fill="none" />
<polyline points="45.0,91.0,46.0,99.0,46.5,107.0,45.5,115.0,46.5,123.0,43.5,125.5,46.0,131.5,51.0,142.5,50.5,154.5,49.5,163.0,47.5,171.0,53.5,178.0,54.5,183.0,53.5,191.5,50.0,199.5,57.0,208.5,59.0,217.0,60.0,225.0,60.0,233.0,62.0,241.0,63.5,249.0,63.0,256.5,63.5,264.5,61.5,272.5,59.5,283.5" stroke="black" stroke-width="2" fill="none" />
<polyline points="32.5,26.0,34.0,18.0" stroke="black" stroke-width="2" fill="none" />
<polyline points="37.0,4.5,37.0,12.0,37.5,20.0,38.5,28.0,39.5,36.5,39.5,43.0,41.5,51.0,39.5,58.5,45.5,59.0,42.5,64.5,39.5,65.0,41.5,73.5,45.0,80.5,46.0,89.0,41.0,97.5" stroke="black" stroke-width="2" fill="none" />
<polyline points="27.0,4.5,27.0,12.5,29.0,20.5,30.0,28.5,30.0,30.0,30.5,38.0,32.0,46.0,33.5,54.0,35.0,62.0,36.5,70.0,34.5,78.0,37.5,83.0,38.5,90.5,39.0,98.5,40.0,109.5,40.5,117.5,41.5,126.0,42.0,134.0,43.0,142.5,44.0,151.0,45.0,159.0,51.0,166.0,52.0,168.0,50.0,176.0,47.5,184.0,54.0,190.0,54.5,197.5,58.5,203.5,53.5,211.0,52.0,219.0,53.0,227.0,52.5,235.0,54.5,243.0,54.5,251.5,54.0,259.0,56.5,267.0,58.5,275.5,58.5,283.5,63.5,284.5,58.0,292.0,49.0,300.0,53.0,308.0,61.0,305.0,74.5,298.0,74.5,301.0,78.0,308.0" stroke="black" stroke-width="2" fill="none" />
<polyline points="1.5,3.0,10.0,3.0,18.0,3.0,26.0,3.5,34.0,3.0,42.0,3.0,50.5,3.0,58.5,3.5,67.0,3.5,74.5,3.5,83.0,3.5,91.0,3.5,99.0,3.5,106.5,3.5,114.5,3.5,122.5,4.0,130.0,4.0,138.0,4.0,146.0,4.5,154.5,4.5,162.5,4.5,170.5,4.5,178.5,4.5,187.0,4.5,195.0,4.0,203.0,4.0,211.0,4.5,219.5,4.5,227.5,4.0,235.5,4.0,243.5,4.0,251.5,4.0,259.5,4.0,267.5,3.5,275.5,3.5,283.5,3.5,291.5,3.5,299.5,3.0,307.5,3.0,315.5,2.5,323.5,2.0,331.5,2.5,339.5,2.5,347.0,2.5,355.0,2.5,363.0,2.5,371.0,2.5,378.5,2.5,386.5,2.5,394.0,2.5,402.0,2.5,410.0,2.5,418.5,2.5,426.0,3.0,434.0,3.5,442.5,3.5,450.5,4.0,458.0,4.0,466.0,4.0,474.5,4.0,482.5,4.0,490.5,4.5,498.5,4.0,506.5,4.0,513.5,5.5,513.5,13.0,513.5,21.5,513.5,29.5,513.5,37.5,513.5,45.0,513.5,53.0,513.5,61.0,513.0,69.5,513.0,77.5,513.0,85.5,513.5,93.0,513.5,101.0,513.5,108.5,513.5,116.0,513.5,124.0,513.5,131.5,513.5,140.0,513.5,148.0,513.5,156.5,513.5,165.0,513.5,173.0,513.5,181.0,513.0,189.5,513.0,197.5,513.0,205.5,512.5,213.5,512.5,221.5,512.5,230.0,512.5,238.0,512.5,246.0,512.5,254.0,512.5,262.0,512.5,270.5,512.5,278.5,513.0,286.5,513.0,290.5,513.5,298.5,513.5,306.5,513.5,314.5,513.5,321.5,513.0,329.0,513.0,337.0,512.5,344.0,512.5,350.5,512.5,358.5,512.5,366.5,512.5,374.5,512.5,383.0,506.5,390.0,513.0,394.5,501.0,399.0,492.5,409.0,487.5,410.0,484.5,406.5,489.5,405.5,492.5,408.5,503.5,397.5,513.5,403.5,513.5,412.0,510.5,420.0,513.5,427.5,513.0,435.5,513.0,444.0,512.0,454.0,513.0,462.0,513.0,469.5,513.0,478.0,512.5,486.0,513.0,494.0,513.5,502.0,513.5,509.5,514.0,517.0,514.0,524.5,514.5,532.5,514.5,540.0,514.5,548.0,514.5,555.5,514.5,564.0,514.0,572.0,514.0,580.0,513.5,587.5,513.0,596.0,513.0,604.0,513.0,612.5,513.0,620.5,513.0,628.5,513.0,636.5,513.5,644.5,514.0,652.0,514.0,660.0,514.0,668.5,514.0,676.5" stroke="black" stroke-width="2" fill="none" />
<polyline points="483.0,356.5,475.5,355.5" stroke="black" stroke-width="2" fill="none" />
</svg>