<svg xmlns="http://www.w3.org/2000/svg" version="1.1"><path d="M28.0,1.5,29.0,9.5,30.0,17.5,31.0,26.0,31.5,34.0,32.5,42.0,32.0,50.0,33.0,58.0,32.5,66.5,33.5,74.5,42.5,78.0,43.5,85.5,44.5,93.0,44.5,99.5,45.5,107.0,46.0,115.0,47.0,122.5,48.0,130.5,49.0,138.5,49.5,146.5,50.5,158.0,51.5,165.5,49.5,173.5,47.5,181.5,48.0,189.5" stroke="black" stroke-width="2" fill="none" />
<path d="M54.0,175.5,55.0,183.5,55.5,191.0,56.5,199.0,59.0,205.0,59.0,212.5,60.0,220.5,61.5,229.0,62.5,236.5,63.5,244.5,62.5,253.0,64.5,260.5,67.0,268.5" stroke="black" stroke-width="2" fill="none" />
<path d="M70.0,277.5,61.5,278.0" stroke="black" stroke-width="2" fill="none" />
<path d="M63.5,279.0,63.5,287.0,66.5,293.5,67.5,301.5,59.5,311.5,63.5,319.5,64.5,327.5,66.0,335.5,67.0,344.0,68.0,352.0,69.0,360.0,70.0,368.0,70.0,376.5,72.0,385.0,73.0,394.0,74.0,402.0,75.0,410.0,78.5,418.0,81.0,426.0" stroke="black" stroke-width="2" fill="none" />
<path d="M76.0,413.0,84.0,412.0" stroke="black" stroke-width="2" fill="none" />
<path d="M83.0,404.0,75.0,405.0" stroke="black" stroke-width="2" fill="none" />
<path d="M74.5,396.0,82.5,395.5" stroke="black" stroke-width="2" fill="none" />
<path d="M84.0,389.5,75.5,390.0" stroke="black" stroke-width="2" fill="none" />
<path d="M77.0,382.0,85.0,381.5" stroke="black" stroke-width="2" fill="none" />
<path d="M84.0,374.5,76.0,375.0" stroke="black" stroke-width="2" fill="none" />
<path d="M83.5,365.0,75.0,365.5,66.5,366.0" stroke="black" stroke-width="2" fill="none" />
<path d="M66.5,357.0,74.5,356.5,83.0,356.5" stroke="black" stroke-width="2" fill="none" />
<path d="M83.0,349.5,75.0,349.5,67.0,349.5" stroke="black" stroke-width="2" fill="none" />
<path d="M66.0,343.0,74.0,342.5" stroke="black" stroke-width="2" fill="none" />
<path d="M75.5,332.5,67.5,333.5" stroke="black" stroke-width="2" fill="none" />
<path d="M69.0,324.0,77.0,323.5" stroke="black" stroke-width="2" fill="none" />
<path d="M76.5,316.0,68.5,316.5" stroke="black" stroke-width="2" fill="none" />
<path d="M68.0,313.5,69.0,321.5" stroke="black" stroke-width="2" fill="none" />
<path d="M69.5,307.5,77.5,307.0" stroke="black" stroke-width="2" fill="none" />
<path d="M74.5,308.0,72.5,304.0" stroke="black" stroke-width="2" fill="none" />
<path d="M68.0,298.5,60.0,306.0" stroke="black" stroke-width="2" fill="none" />
<path d="M53.0,300.5,61.0,300.0,69.0,300.0,76.5,299.5,84.5,299.5" stroke="black" stroke-width="2" fill="none" />
<path d="M76.5,292.0,68.0,292.5,60.0,293.5" stroke="black" stroke-width="2" fill="none" />
<path d="M60.0,286.5,68.0,286.5,77.0,286.5" stroke="black" stroke-width="2" fill="none" />
<path d="M71.0,284.5,71.5,292.5,73.0,293.5,70.5,299.0,69.5,301.5,77.5,297.5,78.5,304.5" stroke="black" stroke-width="2" fill="none" />
<path d="M63.0,295.0,58.5,299.0,50.5,301.0" stroke="black" stroke-width="2" fill="none" />
<path d="M66.5,287.0,65.5,294.5,63.0,301.5,58.0,306.5,60.0,309.5,62.0,315.0,75.0,309.5" stroke="black" stroke-width="2" fill="none" />
<path d="M108.0,303.5,116.0,302.0,123.5,301.5,131.0,300.5,139.0,299.0,146.5,298.5,155.0,298.0,163.0,297.5,171.0,297.0,178.5,296.0,186.5,296.0,194.5,295.5,202.5,295.0,211.0,295.0,219.5,295.5,228.0,295.0,236.0,294.5,244.5,294.0,252.5,294.0,260.5,294.0,269.0,293.5,277.0,293.0,284.5,292.5,292.0,291.5,299.5,290.5,308.0,290.0,316.0,289.0,324.0,288.5,332.0,287.5,340.5,287.0,348.5,286.0,356.0,286.0,364.0,285.5,371.5,285.5,379.5,285.5,387.5,285.0,395.0,285.0,403.5,285.0" stroke="black" stroke-width="2" fill="none" />
<path d="M397.0,285.0,388.5,293.0,380.5,300.5,372.5,308.0,364.5,315.5,357.0,322.0,348.5,329.0,340.0,336.5,332.0,343.5,324.5,350.5,316.5,358.0,308.5,365.5,300.0,372.5,292.0,380.5" stroke="black" stroke-width="2" fill="none" />
<path d="M291.5,376.5,300.0,376.0,308.0,375.5,316.0,375.5,324.0,376.0,332.0,375.5" stroke="black" stroke-width="2" fill="none" />
<path d="M340.0,381.0,331.5,388.0,323.5,395.5,315.5,403.0,307.5,410.0,299.0,417.5,291.5,424.5" stroke="black" stroke-width="2" fill="none" />
<path d="M293.5,426.5,301.0,426.0,309.0,425.0,316.5,424.0,324.0,423.5" stroke="black" stroke-width="2" fill="none" />
<path d="M331.5,427.5,323.0,435.0,315.0,442.5,307.0,450.5,299.0,458.0,290.5,466.0" stroke="black" stroke-width="2" fill="none" />
<path d="M291.0,466.5,298.5,466.5,307.0,466.0,315.5,465.0,324.5,464.0" stroke="black" stroke-width="2" fill="none" />
<path d="M330.0,459.5,323.0,467.0,315.5,474.5,307.5,482.5,299.0,491.0,290.5,499.0" stroke="black" stroke-width="2" fill="none" />
<path d="M292.5,498.5,300.5,498.0,308.5,497.5,316.5,496.5,325.0,496.0" stroke="black" stroke-width="2" fill="none" />
<path d="M330.5,500.0,322.5,507.5,314.5,514.5,307.0,522.0,299.5,529.0,291.5,536.5,283.5,544.5" stroke="black" stroke-width="2" fill="none" />
<path d="M284.0,537.0,292.0,529.5,299.0,521.5,306.5,513.5,314.5,505.5,322.5,497.5,330.5,489.5" stroke="black" stroke-width="2" fill="none" />
<path d="M333.0,482.0,324.5,489.5,316.5,497.5,309.0,506.0,301.0,513.5,293.0,521.5,285.5,529.5" stroke="black" stroke-width="2" fill="none" />
<path d="M290.5,530.0,298.5,529.5,306.5,528.5,314.0,528.0,322.0,527.5" stroke="black" stroke-width="2" fill="none" />
<path d="M332.5,530.0,325.0,537.5,316.0,545.5,307.5,552.5,298.5,560.0,290.0,568.0,281.5,575.5" stroke="black" stroke-width="2" fill="none" />
<path d="M282.5,583.0,291.0,576.0,299.0,568.5,308.0,560.5,316.0,553.0,323.5,545.5,331.5,538.0" stroke="black" stroke-width="2" fill="none" />
<path d="M338.0,543.5,346.5,536.0,355.0,528.0,363.5,520.0,371.5,512.0,379.5,504.5,387.5,497.0,396.0,489.5,404.0,482.0" stroke="black" stroke-width="2" fill="none" />
<path d="M403.5,474.5,396.0,482.0,388.0,490.0,380.5,497.5,373.0,505.5,365.5,513.0,356.5,521.0,348.0,529.5,339.5,538.0" stroke="black" stroke-width="2" fill="none" />
<path d="M348.0,539.0,355.5,539.0,364.0,538.5,371.5,538.0,378.5,537.0,386.5,536.5,394.5,536.0,403.0,535.0" stroke="black" stroke-width="2" fill="none" />
<path d="M404.5,537.0,397.0,545.0,389.0,552.5,380.5,560.5,371.5,568.5,363.0,577.0,354.5,584.5,346.5,592.0,338.0,599.5,330.0,607.5" stroke="black" stroke-width="2" fill="none" />
<path d="M326.0,612.0,333.5,611.0,341.0,610.0" stroke="black" stroke-width="2" fill="none" />
<path d="M354.0,600.5,362.0,593.0,370.0,585.5,378.0,578.0" stroke="black" stroke-width="2" fill="none" />
<path d="M380.0,570.0,372.0,577.5,363.5,584.5,355.5,591.5,347.5,599.0,340.0,606.0" stroke="black" stroke-width="2" fill="none" />
<path d="M348.5,595.0,356.5,594.5,364.5,593.5" stroke="black" stroke-width="2" fill="none" />
<path d="M371.5,585.5,363.0,586.0,354.5,586.5,346.5,587.5" stroke="black" stroke-width="2" fill="none" />
<path d="M345.5,578.5,353.5,578.0,362.0,578.0,370.5,577.5" stroke="black" stroke-width="2" fill="none" />
<path d="M380.0,568.5,371.0,569.0,363.0,569.0,355.5,569.0,347.5,569.5" stroke="black" stroke-width="2" fill="none" />
<path d="M348.0,562.5,356.5,562.0,364.5,561.5,372.5,561.0,381.0,560.0,389.5,560.0" stroke="black" stroke-width="2" fill="none" />
<path d="M404.5,531.0,397.0,538.0,389.0,545.5,380.5,553.0,372.5,560.5,364.0,567.5,355.0,575.0,347.0,582.0,338.5,589.0,330.5,596.5,322.5,604.0" stroke="black" stroke-width="2" fill="none" />
<path d="M316.5,607.0,325.0,610.0,332.5,612.0,340.5,608.0,348.5,603.0,354.5,597.0,345.0,605.0" stroke="black" stroke-width="2" fill="none" />
<path d="M313.5,605.0,322.0,597.5,330.0,590.0,338.5,582.0,347.0,574.5,356.0,567.0,364.5,559.5,372.5,552.0,380.5,544.0,388.5,537.0,396.5,530.5,404.0,523.0" stroke="black" stroke-width="2" fill="none" />
<path d="M403.5,513.0,395.0,521.0,386.5,528.0,378.5,536.0,370.5,544.0,362.5,551.5,354.5,559.0,346.0,567.0,338.0,575.0,330.0,583.0,321.5,590.5,314.0,598.0,306.5,606.5,299.0,614.0,291.0,621.5" stroke="black" stroke-width="2" fill="none" />
<path d="M292.5,618.0,300.0,617.5" stroke="black" stroke-width="2" fill="none" />
<path d="M293.0,608.5,300.5,608.0,308.5,608.5,316.0,608.5" stroke="black" stroke-width="2" fill="none" />
<path d="M293.5,600.5,301.0,600.5,309.0,600.0,317.0,599.5,325.5,599.0,333.0,598.5,341.0,598.5,349.0,599.0" stroke="black" stroke-width="2" fill="none" />
<path d="M348.0,553.5,356.5,553.0,364.5,552.5,372.5,552.0,380.0,551.5,387.5,551.0" stroke="black" stroke-width="2" fill="none" />
<path d="M393.5,544.0,385.5,544.5,378.0,545.0,370.5,545.0,363.0,545.0,355.5,545.5,347.5,546.0" stroke="black" stroke-width="2" fill="none" />
<path d="M348.0,531.0,356.0,530.5,364.0,530.5,372.0,529.5,380.0,529.0,388.5,528.0,396.5,527.5,404.5,527.0" stroke="black" stroke-width="2" fill="none" />
<path d="M404.5,506.5,396.0,513.5,388.0,521.5,379.5,529.5,371.5,537.0,363.0,545.0,355.0,552.5,347.0,559.5,339.0,567.0,330.5,574.0,322.5,581.0,314.0,588.5,306.5,596.5,298.0,604.0,290.0,611.5,282.5,619.0" stroke="black" stroke-width="2" fill="none" />
<path d="M284.0,610.5,291.5,603.5,299.5,596.0,307.5,588.0,315.0,580.0,323.0,572.5,331.0,565.0,339.0,558.0,347.0,550.5,355.5,543.0,363.5,536.0,371.5,528.5,379.5,521.0,387.5,514.0,396.0,507.0,404.0,500.0" stroke="black" stroke-width="2" fill="none" />
<path d="M405.0,491.5,396.5,499.0,387.5,506.5,379.5,514.5,371.0,521.5,362.5,529.0,355.0,536.5,347.5,544.0,339.5,551.0,331.5,558.5,323.5,566.0,315.5,574.0,307.5,581.5,299.0,589.0,290.5,596.0,282.5,603.5" stroke="black" stroke-width="2" fill="none" />
<path d="M284.5,599.5,292.5,592.0,300.5,585.0,308.5,578.0,316.0,571.0,323.5,564.0,331.0,556.5" stroke="black" stroke-width="2" fill="none" />
<path d="M331.0,547.5,322.5,554.5,314.5,561.5,306.5,569.0,299.5,577.0,292.0,584.5,283.5,591.0" stroke="black" stroke-width="2" fill="none" />
<path d="M292.0,592.5,300.0,592.0,308.0,591.5,315.5,591.0,323.0,590.0,331.0,589.5" stroke="black" stroke-width="2" fill="none" />
<path d="M331.5,582.5,324.0,583.0,316.0,583.5,308.0,583.5,300.0,583.5,292.0,584.0" stroke="black" stroke-width="2" fill="none" />
<path d="M292.5,577.0,301.5,576.5,309.5,576.0,317.5,575.5,325.0,575.0" stroke="black" stroke-width="2" fill="none" />
<path d="M324.5,567.0,316.5,567.5,308.5,568.5,300.5,569.0,293.0,570.0" stroke="black" stroke-width="2" fill="none" />
<path d="M291.5,562.5,299.5,562.0,308.0,561.5,316.0,560.5,324.0,559.5" stroke="black" stroke-width="2" fill="none" />
<path d="M324.5,552.5,316.5,553.0,308.5,553.5,300.0,554.0,291.5,554.0" stroke="black" stroke-width="2" fill="none" />
<path d="M284.5,553.5,292.5,546.0,300.5,538.5,308.0,530.5,315.5,523.0,323.0,515.0,330.5,507.0" stroke="black" stroke-width="2" fill="none" />
<path d="M331.0,515.0,323.0,523.0,315.0,531.5,307.5,539.0,300.0,546.5,292.5,554.0,284.5,561.5" stroke="black" stroke-width="2" fill="none" />
<path d="M282.5,568.5,291.0,560.5,299.0,553.0,307.0,545.5,315.5,538.0,324.5,529.5,333.0,522.0" stroke="black" stroke-width="2" fill="none" />
<path d="M346.0,521.5,354.5,521.0,363.0,521.0,371.5,520.5,379.5,520.0,388.0,520.0,396.0,519.0,404.0,518.5" stroke="black" stroke-width="2" fill="none" />
<path d="M405.0,510.0,397.0,510.0,388.5,510.5,380.5,511.5,372.0,512.0,364.0,512.5,355.5,513.0" stroke="black" stroke-width="2" fill="none" />
<path d="M348.5,518.5,356.5,511.5,364.5,504.0,371.5,496.0,379.0,489.0,386.5,481.5,394.0,474.5,401.0,467.5,408.5,460.0" stroke="black" stroke-width="2" fill="none" />
<path d="M409.5,452.0,401.5,459.5,393.5,467.0,385.5,474.0,378.0,481.0,370.5,488.0,363.5,495.5,356.0,502.5,348.5,509.5" stroke="black" stroke-width="2" fill="none" />
<path d="M348.0,504.0,356.0,496.5,364.0,489.5,372.0,482.0,379.5,474.5,387.0,467.0,395.5,459.0,403.5,451.0,412.0,443.5" stroke="black" stroke-width="2" fill="none" />
<path d="M412.0,443.5,404.0,444.5,396.5,445.5,388.5,445.5,381.0,446.0,373.5,447.0,365.5,447.5,358.0,448.0,350.0,448.0,342.0,448.5,333.5,449.0,325.0,449.0,316.5,449.5,308.5,450.0,300.0,450.5,291.5,451.0,284.0,451.0,276.0,452.0,268.0,452.5,260.0,453.5,252.0,454.5,244.0,454.5,235.5,455.0,226.5,455.5,218.0,456.0,210.0,456.0,201.5,457.0,194.0,457.5,187.0,458.0,179.5,458.5,171.5,459.5,163.5,460.0,156.5,461.0,149.0,462.0,141.0,462.5,133.5,463.5,125.5,463.5" stroke="black" stroke-width="2" fill="none" />
<path d="M125.0,455.5,132.5,455.0,140.5,454.0,148.0,453.0,155.5,452.0,163.0,452.0,171.0,451.0,179.5,450.5,187.5,449.5,195.0,449.0,203.5,448.5,211.0,448.0,218.5,447.5,226.5,447.5,234.5,447.5,242.5,447.0,251.0,446.0,259.5,445.5,268.0,445.0,276.5,444.5,284.0,444.0,292.5,443.5,301.0,443.0,309.0,442.0,317.0,441.5,324.5,441.5,333.0,440.5,340.5,440.0,348.5,440.0,356.0,439.5,363.5,439.0,371.5,438.5,380.0,437.5,388.5,437.0,396.5,436.5,404.5,436.0,413.0,435.5" stroke="black" stroke-width="2" fill="none" />
<path d="M412.5,435.0,404.5,442.5,396.0,449.5,388.0,457.5,379.5,465.5,371.5,473.0,363.5,480.5,355.5,488.5,347.5,496.0" stroke="black" stroke-width="2" fill="none" />
<path d="M354.5,495.0,363.0,495.0,370.5,495.0,378.5,494.5,386.5,494.0,394.5,494.0,403.0,493.5" stroke="black" stroke-width="2" fill="none" />
<path d="M403.0,502.0,395.0,502.5,387.0,502.5,379.5,503.0,372.0,503.0,364.0,503.0,356.0,503.0" stroke="black" stroke-width="2" fill="none" />
<path d="M354.0,487.5,362.0,487.0,370.5,487.5,378.5,487.5,387.0,487.0,395.0,486.5,403.5,486.5" stroke="black" stroke-width="2" fill="none" />
<path d="M404.0,477.5,395.5,478.0,387.5,478.5,379.0,479.5,371.0,480.0,362.5,480.5,354.5,481.5" stroke="black" stroke-width="2" fill="none" />
<path d="M355.5,475.0,363.5,473.5,371.5,472.5,379.0,471.5,387.0,470.5,394.5,469.0,403.0,468.5" stroke="black" stroke-width="2" fill="none" />
<path d="M403.0,463.0,395.0,463.5,387.0,464.0,379.0,464.5,371.5,465.0,363.5,465.5,356.0,466.0" stroke="black" stroke-width="2" fill="none" />
<path d="M357.0,457.0,365.0,456.5,372.5,456.5,380.5,456.0,388.5,456.0,396.5,456.0,404.0,455.5" stroke="black" stroke-width="2" fill="none" />
<path d="M404.0,447.5,396.0,448.5,388.5,449.0,381.0,449.0,373.0,449.0,364.5,449.0,357.0,449.0" stroke="black" stroke-width="2" fill="none" />
<path d="M356.0,443.5,364.0,443.0,371.5,442.0,379.5,441.0,388.0,441.0,396.0,440.0,403.5,439.0" stroke="black" stroke-width="2" fill="none" />
<path d="M410.0,446.5,418.0,446.5,426.0,447.5,434.0,448.0,442.5,448.0,450.5,448.5,458.5,448.5,466.5,449.5,474.5,449.5,482.0,449.5,490.0,449.5,498.0,450.5,506.5,451.0" stroke="black" stroke-width="2" fill="none" />
<path d="M509.0,446.0,517.0,445.5" stroke="black" stroke-width="2" fill="none" />
<path d="M516.0,438.0,508.5,439.0" stroke="black" stroke-width="2" fill="none" />
<path d="M490.5,436.5,482.5,434.5" stroke="black" stroke-width="2" fill="none" />
<path d="M481.0,432.5,489.0,432.5" stroke="black" stroke-width="2" fill="none" />
<path d="M465.0,445.5,457.0,446.0" stroke="black" stroke-width="2" fill="none" />
<path d="M447.5,451.5,455.0,451.5,463.0,451.5,470.5,452.5,478.5,452.5,486.5,452.5,494.5,453.5,503.0,453.0" stroke="black" stroke-width="2" fill="none" />
<path d="M451.0,444.5,443.0,443.5" stroke="black" stroke-width="2" fill="none" />
<path d="M434.0,445.5,425.5,445.5" stroke="black" stroke-width="2" fill="none" />
<path d="M426.5,442.0,430.5,441.5,431.0,433.5" stroke="black" stroke-width="2" fill="none" />
<path d="M412.0,428.5,404.0,436.0,395.5,443.5,387.5,450.5,379.0,458.0,371.0,465.0,363.0,472.5,355.5,480.5,347.5,488.0" stroke="black" stroke-width="2" fill="none" />
<path d="M346.5,480.0,354.5,472.5,363.0,464.5,371.5,457.0,379.5,450.0,387.5,443.0,395.5,436.0,403.0,428.5,411.0,421.0" stroke="black" stroke-width="2" fill="none" />
<path d="M412.5,411.0,404.5,418.5,396.5,426.5,388.0,434.0,380.0,442.0,371.5,449.5,363.0,457.5,354.5,464.5,345.5,472.0" stroke="black" stroke-width="2" fill="none" />
<path d="M346.5,464.5,354.5,457.0,363.0,449.5,370.5,442.0,379.0,434.0,387.5,426.5,395.5,419.0,403.5,411.0,411.5,403.0" stroke="black" stroke-width="2" fill="none" />
<path d="M413.0,394.5,405.0,402.0,396.5,409.5,388.0,417.0,379.5,425.0,371.5,432.5,362.5,440.5,354.0,448.5,346.0,456.5" stroke="black" stroke-width="2" fill="none" />
<path d="M347.0,448.0,355.0,439.5,363.0,431.5,371.5,424.0,379.5,416.5,387.5,409.0,395.0,401.5,402.5,394.5,410.5,387.5,418.0,380.5" stroke="black" stroke-width="2" fill="none" />
<path d="M418.5,372.0,410.5,379.5,402.5,387.0,394.5,395.0,387.0,403.0,379.0,410.5,371.0,417.5,363.5,424.5,355.5,431.5,347.5,439.0" stroke="black" stroke-width="2" fill="none" />
<path d="M346.5,431.5,354.5,424.0,363.0,416.5,370.5,409.0,378.5,402.0,387.0,395.0,394.5,387.5,402.0,380.0,409.5,373.0,417.5,365.5" stroke="black" stroke-width="2" fill="none" />
<path d="M417.5,357.5,409.5,365.0,402.0,372.0,394.5,379.5,386.5,387.0,378.5,394.0,370.5,401.5,362.5,408.0,355.0,415.0,347.5,422.0" stroke="black" stroke-width="2" fill="none" />
<path d="M347.0,414.0,354.5,406.0,363.0,398.5,371.0,391.0,379.0,383.5,386.5,376.5,394.5,369.5,402.5,362.5,410.0,356.0,418.5,348.5" stroke="black" stroke-width="2" fill="none" />
<path d="M420.0,340.0,412.0,347.5,403.5,355.0,395.0,362.0,387.0,369.0,379.0,376.5,371.0,383.5,362.5,390.5,354.5,398.0,347.0,406.0" stroke="black" stroke-width="2" fill="none" />
<path d="M354.0,403.5,362.5,402.5,371.0,402.0,379.0,401.5,387.0,401.0,395.5,401.0" stroke="black" stroke-width="2" fill="none" />
<path d="M401.5,402.5,409.5,402.0" stroke="black" stroke-width="2" fill="none" />
<path d="M411.0,408.0,402.5,408.5,394.5,409.0" stroke="black" stroke-width="2" fill="none" />
<path d="M388.0,418.0,395.5,417.5,403.5,417.0,411.5,416.5" stroke="black" stroke-width="2" fill="none" />
<path d="M411.5,423.0,403.5,424.0,395.5,425.0,387.5,426.5,379.5,427.5" stroke="black" stroke-width="2" fill="none" />
<path d="M366.0,423.0,358.0,423.5" stroke="black" stroke-width="2" fill="none" />
<path d="M356.0,418.5,364.0,417.5,372.0,417.0,380.0,416.0" stroke="black" stroke-width="2" fill="none" />
<path d="M387.0,408.5,379.0,409.5,371.0,410.5,362.5,411.0,354.5,412.0" stroke="black" stroke-width="2" fill="none" />
<path d="M350.0,398.0,357.5,391.0,365.0,383.5,372.0,376.0,380.0,369.0,387.5,361.5,395.5,354.0,403.5,346.5,411.5,339.0,420.0,332.0" stroke="black" stroke-width="2" fill="none" />
<path d="M418.5,324.0,410.5,331.5,403.0,338.5,395.0,345.5,387.0,352.5,379.5,359.5,371.5,367.0,364.0,375.0,356.0,382.5,348.5,389.5" stroke="black" stroke-width="2" fill="none" />
<path d="M349.0,383.0,356.5,375.0,364.0,367.0,371.5,359.0,378.5,351.5,386.5,344.0,393.5,336.5,401.5,328.5,409.5,321.0,417.5,314.0" stroke="black" stroke-width="2" fill="none" />
<path d="M420.5,315.0,412.5,315.0,404.5,315.0,397.0,315.5,388.5,315.5,380.5,315.5,373.0,315.5,364.5,315.5,356.0,316.0,348.0,316.0,340.0,316.5,332.0,317.0,324.0,317.5,316.0,318.0,308.5,318.5,300.5,319.5,292.5,320.5,285.0,321.5,277.0,322.5,269.5,323.0,261.0,323.5,252.5,324.0,244.0,324.5,235.5,325.5,227.0,326.5,219.0,327.0,211.5,328.0,203.0,328.5,194.5,329.5,186.5,330.0,179.0,330.5,171.0,331.0,163.0,331.5,155.5,332.0,148.0,332.0,140.0,332.5,132.0,333.5,124.5,333.5,116.5,333.5,108.0,333.5" stroke="black" stroke-width="2" fill="none" />
<path d="M108.5,325.5,116.5,325.0,124.0,325.5,132.0,325.0,140.0,324.5,148.5,324.0,156.0,324.0,163.0,323.5,170.5,322.5,178.0,322.0,186.0,321.5,194.0,321.0,203.0,320.5,211.5,319.5,219.5,318.5,228.5,317.5,236.0,317.0,244.0,316.0,252.5,316.0,260.5,315.5,268.5,315.0,276.0,314.5,284.5,314.0,293.0,313.5,301.5,313.0,309.0,312.5,317.5,311.5,326.0,310.5,334.0,310.0,341.5,309.5,349.5,309.0,357.5,308.0,365.5,308.0,373.0,307.5,380.5,307.5,388.0,307.5,396.0,307.0,404.0,306.5,412.5,306.0,420.5,306.0,428.0,305.5" stroke="black" stroke-width="2" fill="none" />
<path d="M427.5,309.5,419.5,310.0,412.0,310.5" stroke="black" stroke-width="2" fill="none" />
<path d="M412.5,314.0,405.0,321.0,396.5,328.5,388.0,336.5,379.0,345.0,370.5,353.0,362.0,361.0,354.0,368.5,346.0,376.0" stroke="black" stroke-width="2" fill="none" />
<path d="M347.5,368.5,356.0,361.0,363.5,354.0,371.5,347.0,380.0,339.5,388.5,331.5,396.5,323.5" stroke="black" stroke-width="2" fill="none" />
<path d="M395.5,328.0,403.5,327.5,411.0,327.0,419.0,327.0" stroke="black" stroke-width="2" fill="none" />
<path d="M419.0,322.5,411.0,323.0" stroke="black" stroke-width="2" fill="none" />
<path d="M420.0,335.5,412.5,336.0,405.0,336.0,397.0,336.5" stroke="black" stroke-width="2" fill="none" />
<path d="M397.0,344.5,404.5,344.0,412.5,343.5,420.0,343.0" stroke="black" stroke-width="2" fill="none" />
<path d="M388.0,345.5,380.5,346.0,372.0,346.0" stroke="black" stroke-width="2" fill="none" />
<path d="M378.0,340.0,385.5,339.0" stroke="black" stroke-width="2" fill="none" />
<path d="M393.5,316.5,385.5,323.5,378.0,331.0,370.5,338.5,362.5,346.0,354.0,353.0,345.5,360.0,337.5,366.5,329.5,373.5,321.5,381.0,313.5,389.0,305.5,396.0,297.5,403.5,289.5,411.5" stroke="black" stroke-width="2" fill="none" />
<path d="M292.5,409.0,300.0,408.5,308.5,408.0,317.0,407.5,325.5,407.0" stroke="black" stroke-width="2" fill="none" />
<path d="M331.0,403.5,323.0,411.0,315.0,419.0,307.0,426.5,299.5,433.5,291.0,441.0" stroke="black" stroke-width="2" fill="none" />
<path d="M292.0,442.0,300.5,441.5,308.5,441.5,316.0,441.0,323.5,440.5" stroke="black" stroke-width="2" fill="none" />
<path d="M329.5,436.5,321.5,444.5,314.5,452.5,307.0,460.5,299.0,468.0,291.5,475.5" stroke="black" stroke-width="2" fill="none" />
<path d="M291.0,473.0,299.0,472.5,307.0,472.5,315.0,472.5,324.0,472.0" stroke="black" stroke-width="2" fill="none" />
<path d="M332.0,474.0,324.0,481.5,315.5,489.0,307.5,496.5,299.5,504.0,292.0,512.0" stroke="black" stroke-width="2" fill="none" />
<path d="M292.0,515.5,300.0,515.0,307.5,514.0,315.5,513.0,324.0,512.0" stroke="black" stroke-width="2" fill="none" />
<path d="M325.0,535.5,317.0,536.0,309.0,537.0,300.5,537.5,292.0,538.0" stroke="black" stroke-width="2" fill="none" />
<path d="M292.0,545.0,299.5,545.0,308.0,544.5,316.5,544.0,324.5,543.5" stroke="black" stroke-width="2" fill="none" />
<path d="M323.5,520.5,316.0,521.0,308.0,521.5,300.0,522.0,292.0,522.5" stroke="black" stroke-width="2" fill="none" />
<path d="M293.5,507.5,301.0,507.0,309.0,505.5,316.5,504.5,324.0,503.5" stroke="black" stroke-width="2" fill="none" />
<path d="M290.5,505.5,299.0,498.0,307.0,490.0,315.0,482.0,323.0,474.0,331.0,467.0" stroke="black" stroke-width="2" fill="none" />
<path d="M331.0,452.0,323.5,459.0,316.0,466.0,308.5,473.0,300.5,481.0,293.0,489.5" stroke="black" stroke-width="2" fill="none" />
<path d="M291.0,490.0,299.0,489.5,307.0,489.5,315.5,489.0,324.5,489.0" stroke="black" stroke-width="2" fill="none" />
<path d="M293.0,482.0,301.0,474.5,308.5,466.5,316.0,458.5,324.0,451.0,332.0,444.0" stroke="black" stroke-width="2" fill="none" />
<path d="M331.5,417.5,323.5,425.0,315.5,432.5,307.5,440.0,299.5,447.5,291.0,455.0" stroke="black" stroke-width="2" fill="none" />
<path d="M291.5,458.0,299.5,457.5,307.5,456.5,315.5,456.0,323.5,455.0" stroke="black" stroke-width="2" fill="none" />
<path d="M322.5,479.5,315.0,480.0,306.5,480.0,298.0,481.0,289.5,481.5" stroke="black" stroke-width="2" fill="none" />
<path d="M291.0,451.5,299.0,450.5,307.0,450.0,315.5,449.0,323.5,448.0" stroke="black" stroke-width="2" fill="none" />
<path d="M291.0,447.5,299.0,440.0,307.0,433.0,315.5,425.5,323.5,418.5,332.0,411.5" stroke="black" stroke-width="2" fill="none" />
<path d="M339.0,386.0,331.0,394.0,323.0,402.0,315.5,409.0,308.0,416.5,300.5,423.5,292.0,431.0,284.0,439.5" stroke="black" stroke-width="2" fill="none" />
<path d="M293.0,435.0,301.0,434.5,308.5,434.0,315.5,433.5,323.0,433.0" stroke="black" stroke-width="2" fill="none" />
<path d="M356.5,433.5,364.5,433.0,372.5,432.0,380.5,431.5,389.0,431.0,396.5,430.5,404.0,430.0,412.0,429.5" stroke="black" stroke-width="2" fill="none" />
<path d="M410.0,459.0,402.0,459.0,394.0,459.0,386.0,459.5,378.0,460.0,370.5,460.0,362.5,460.5,354.5,461.0,346.5,462.0,339.0,463.0,331.0,463.5,323.5,464.5,316.0,465.5,308.0,466.5,300.0,467.5,291.5,468.0,283.5,468.5,275.5,469.0,267.5,469.5,259.5,470.0,251.5,470.0,243.5,470.0,235.0,470.0,227.0,470.5,219.0,470.5,211.0,471.0,203.5,471.0,195.0,471.5,186.5,472.0,178.0,472.5,170.0,473.5,162.5,474.5,154.0,475.5,146.5,476.5,139.0,477.5,131.0,478.0,123.0,479.0" stroke="black" stroke-width="2" fill="none" />
<path d="M124.0,472.0,132.0,471.5,140.0,470.5,147.5,469.5,155.5,469.0,163.5,468.0,171.0,467.0,178.5,466.0,186.0,464.5,194.5,463.5,202.5,463.0,210.5,462.5,219.0,463.0,227.0,463.0,235.5,463.0,244.0,463.0,252.0,462.5,260.0,462.0,268.0,461.0,275.5,460.5,283.5,460.0,292.0,460.0,300.5,459.5,308.5,459.0,316.5,458.5,324.5,458.0,332.0,456.5,340.0,456.0,347.5,455.0,355.0,455.0,363.0,454.5,371.0,454.0,379.0,453.5,387.0,452.5,395.5,451.0,403.5,450.5,411.5,450.5" stroke="black" stroke-width="2" fill="none" />
<path d="M419.5,498.0,411.5,499.0,403.5,500.0,396.0,501.0,388.0,502.0,380.0,503.0,373.0,503.5,365.0,504.0,357.0,504.5,349.0,505.0,341.0,505.0,333.0,504.5,325.0,504.5,317.5,505.0,309.0,505.5,301.0,506.0,293.0,506.5,285.5,506.5,277.0,507.0,268.5,508.0,260.5,508.5,253.0,508.5,244.5,509.5,236.5,510.0,228.0,511.0,220.0,512.0,211.5,513.0,203.0,513.5,195.0,514.0,188.0,514.5,180.5,515.0,172.5,515.0,165.0,515.0,156.5,515.5,148.0,516.0,139.5,517.0,131.5,517.5,123.5,518.0" stroke="black" stroke-width="2" fill="none" />
<path d="M123.0,524.0,131.0,524.0,139.0,523.5,147.0,523.5,155.5,523.5,164.0,523.0,171.5,523.0,179.0,522.5,186.5,522.0,194.5,521.5,202.5,521.0,211.0,520.5,219.5,519.5,227.5,519.0,236.0,518.5,244.5,517.5,253.0,516.5,261.5,515.5,269.5,515.0,277.0,515.0,285.0,514.5,292.5,514.0,300.5,514.5,308.0,514.5,316.0,514.5,324.5,514.5,332.0,514.0,340.0,514.0,348.5,513.5,357.0,512.5,365.0,511.5,373.0,511.0,381.0,511.0,388.5,510.0,396.5,509.0,404.5,508.5,412.5,507.5,420.5,506.5" stroke="black" stroke-width="2" fill="none" />
<path d="M380.5,596.0,372.5,597.0,364.5,597.5,356.5,598.0,348.5,598.5,340.5,599.0,331.5,600.0,323.0,601.0,314.5,601.5,307.0,601.5,298.5,602.0,290.5,602.5,282.5,603.0,275.0,603.5,267.5,604.0,259.0,604.5,250.0,605.0,241.5,605.0,233.5,605.0,225.0,605.5" stroke="black" stroke-width="2" fill="none" />
<path d="M245.0,613.0,252.5,612.5,260.0,612.5,267.5,612.5,274.5,612.0,282.0,611.0,290.5,610.5,298.5,610.0,306.5,609.0,314.5,608.5,323.0,608.0,331.0,607.5,339.0,607.5,347.0,607.5,356.0,607.0" stroke="black" stroke-width="2" fill="none" />
<path d="M292.0,629.5,284.0,629.5,276.5,629.5" stroke="black" stroke-width="2" fill="none" />
<path d="M258.0,622.0,266.0,622.0,274.5,621.5,283.0,621.5,291.0,621.5,299.0,621.0,307.5,620.0" stroke="black" stroke-width="2" fill="none" />
<path d="M388.0,586.5,380.0,586.5,372.0,587.0,364.0,587.0,355.5,588.0,347.0,588.5,339.0,589.5,331.5,590.0,324.0,591.0,315.5,591.5,308.0,592.0,300.5,592.5,292.5,592.5,284.0,593.0,276.0,593.5,267.5,594.0,259.0,594.0,251.0,593.5,243.0,593.5,235.5,594.0,227.5,595.5,219.0,596.5,211.5,597.5,203.0,598.0" stroke="black" stroke-width="2" fill="none" />
<path d="M188.0,588.0,196.0,588.0,204.0,587.5,212.0,587.5,221.0,587.5,229.5,587.5,237.5,587.5,245.0,587.0,253.0,587.0,261.0,586.5,269.0,586.0,277.0,585.5,284.5,585.0,291.5,584.5,299.0,584.0,306.5,583.0,314.5,583.0,322.5,582.5,330.5,582.0,338.5,581.5,346.0,580.5,354.0,580.0,362.0,580.0,370.0,579.5,378.0,578.5,386.0,578.0,394.0,577.5" stroke="black" stroke-width="2" fill="none" />
<path d="M324.5,413.5,316.5,414.5,309.0,415.5,301.0,416.5,293.5,417.0" stroke="black" stroke-width="2" fill="none" />
<path d="M290.5,404.5,298.0,397.5,305.0,390.5,312.5,383.0,321.0,376.0,329.5,368.5,338.0,361.0,347.0,354.0,355.5,346.5,363.5,339.0,371.0,331.5,379.0,324.0,387.0,317.0,395.5,309.5" stroke="black" stroke-width="2" fill="none" />
<path d="M396.5,300.0,388.5,307.5,380.5,315.0,372.0,323.0,364.0,331.0,356.0,338.5,347.0,346.0,338.0,353.5,329.5,360.5,321.5,367.5,313.5,375.0,305.5,382.5,297.5,390.0,289.5,397.0" stroke="black" stroke-width="2" fill="none" />
<path d="M293.0,395.0,300.5,394.0,308.5,393.5,316.0,392.5,324.5,392.0,333.0,391.5" stroke="black" stroke-width="2" fill="none" />
<path d="M356.5,394.5,364.5,393.5,373.0,393.0,380.5,392.5,388.0,392.0,395.5,391.5,403.0,391.5,411.5,391.0" stroke="black" stroke-width="2" fill="none" />
<path d="M408.0,394.0,396.5,402.0,386.5,410.0,376.5,418.0,366.5,426.0,363.0,429.5,371.0,423.5,379.0,417.0,387.0,411.5,395.5,405.0,404.0,399.5" stroke="black" stroke-width="2" fill="none" />
<path d="M405.0,393.5,393.5,401.5,383.5,409.0,373.0,417.5,363.0,426.0,359.0,429.0,367.5,423.0,375.5,416.0,384.0,410.0,392.0,404.5,400.0,398.5,408.0,394.5" stroke="black" stroke-width="2" fill="none" />
<path d="M412.5,366.5,405.0,367.5,397.0,367.5,388.5,367.5,380.5,367.5,372.5,368.0,365.0,368.5" stroke="black" stroke-width="2" fill="none" />
<path d="M357.0,362.0,364.5,361.0,372.0,360.0,379.5,359.0,387.5,358.5,395.5,358.0,403.5,358.0,411.5,358.0" stroke="black" stroke-width="2" fill="none" />
<path d="M419.0,348.0,410.5,348.5,402.5,348.5,394.5,349.0,387.0,349.5,379.5,350.5,372.0,351.0,364.5,351.5" stroke="black" stroke-width="2" fill="none" />
<path d="M357.5,348.0,349.5,348.5,341.0,349.5,332.5,350.5,324.0,351.5,315.5,352.0,307.5,352.5,299.0,353.5,290.5,354.0" stroke="black" stroke-width="2" fill="none" />
<path d="M291.0,356.5,299.5,350.0,307.5,343.0,315.5,335.5,323.5,328.0,331.5,320.5,340.0,313.0,348.5,305.5,357.0,298.5,365.0,290.5,373.5,283.0,381.5,276.0,389.5,268.5,397.5,261.0,406.0,253.5" stroke="black" stroke-width="2" fill="none" />
<path d="M405.0,243.0,397.0,251.0,389.0,259.0,380.5,267.0,372.5,274.5,364.5,282.5,356.0,290.0,347.5,298.0,339.5,305.0,331.0,312.5,322.5,319.5,315.0,327.0,307.5,335.0,299.5,342.5,291.5,349.5" stroke="black" stroke-width="2" fill="none" />
<path d="M291.0,346.5,299.5,346.0,308.0,345.0,316.0,344.0,324.5,343.0,332.5,342.5,341.0,341.5,348.5,341.5,356.5,341.0" stroke="black" stroke-width="2" fill="none" />
<path d="M357.0,346.0,365.0,342.0,373.0,337.5,381.0,333.0,389.0,328.0,397.0,322.0,405.0,317.0,413.5,313.0,419.0,309.0,406.0,316.5,394.0,324.5,381.0,332.5,367.5,340.5,356.5,349.0,356.0,357.0" stroke="black" stroke-width="2" fill="none" />
<path d="M355.5,347.0,363.5,341.0,371.5,335.5,379.0,330.0,387.0,326.0,389.5,320.0,392.0,323.0" stroke="black" stroke-width="2" fill="none" />
<path d="M397.0,293.0,389.0,300.5,380.5,307.5,372.0,315.0,363.5,322.0,355.0,329.5,347.0,336.5,339.0,344.0,331.0,351.5,323.5,359.0,316.0,366.5,307.5,374.0,299.5,382.0,291.0,390.0" stroke="black" stroke-width="2" fill="none" />
<path d="M293.0,387.5,301.0,387.0,308.5,386.5,316.0,385.5,323.5,384.5,332.0,384.0" stroke="black" stroke-width="2" fill="none" />
<path d="M356.5,385.5,364.5,385.0,372.0,384.5,379.5,384.0,388.0,384.5,396.0,384.5,404.0,384.5,411.5,384.0" stroke="black" stroke-width="2" fill="none" />
<path d="M411.0,374.5,403.5,374.5,395.5,374.0,388.0,374.5,380.5,375.0,373.0,375.5,365.5,375.5,357.5,376.0" stroke="black" stroke-width="2" fill="none" />
<path d="M332.0,399.0,324.0,400.0,316.5,400.0,308.5,400.0,300.0,400.5,292.0,400.5" stroke="black" stroke-width="2" fill="none" />
<path d="M291.5,373.5,299.5,366.5,308.0,359.0,316.0,351.5,324.0,344.0,332.0,336.5,340.0,328.5,348.5,321.0,356.5,313.0,364.0,305.0,372.0,297.5,380.0,290.0,388.5,282.0,396.5,274.5" stroke="black" stroke-width="2" fill="none" />
<path d="M396.5,266.0,388.0,273.0,379.5,280.5,371.5,288.5,363.5,296.5,355.5,305.0,347.5,312.5,340.0,321.0,331.5,329.0,323.0,337.0,315.0,344.0,307.0,351.5,299.5,359.0,291.5,366.0" stroke="black" stroke-width="2" fill="none" />
<path d="M289.5,368.0,297.5,367.5,305.5,367.0,313.5,366.5,321.5,366.0,329.5,366.0" stroke="black" stroke-width="2" fill="none" />
<path d="M323.0,359.0,315.0,359.5,306.5,360.5,298.5,361.0,290.5,362.0" stroke="black" stroke-width="2" fill="none" />
<path d="M291.5,342.5,299.0,334.5,307.0,326.5,315.0,319.0,323.0,311.0,331.0,303.5,339.0,296.0,347.0,288.5,354.5,281.0,362.5,273.0,370.5,265.5,379.5,257.5,388.0,249.0,395.5,241.5,403.5,234.0" stroke="black" stroke-width="2" fill="none" />
<path d="M402.5,227.0,394.5,234.0,387.0,241.0,379.0,248.5,371.0,256.0,363.0,264.0,355.5,272.0,347.5,280.0,339.5,288.0,331.5,295.5,323.0,303.5,315.0,311.0,306.5,318.0,298.0,325.5,290.0,333.5" stroke="black" stroke-width="2" fill="none" />
<path d="M292.0,330.0,300.5,329.5,308.5,329.0,317.0,328.5,325.0,328.0,332.5,327.0,340.5,326.0,348.5,325.5,356.5,324.5,364.0,323.5,372.0,323.0,380.0,322.5" stroke="black" stroke-width="2" fill="none" />
<path d="M372.0,331.5,364.5,332.5,356.0,333.5,347.5,334.5,339.5,335.5,331.5,336.0,323.5,337.0,315.5,338.0,307.5,338.5,300.5,339.5,293.0,340.0" stroke="black" stroke-width="2" fill="none" />
<path d="M291.5,324.0,299.0,316.5,306.5,309.5,314.5,302.5,322.0,295.5,330.5,287.5,338.5,280.5,346.5,273.0,354.0,265.0,361.5,257.5,369.5,250.0,377.5,242.0,385.5,234.0,393.5,226.0,401.0,218.5" stroke="black" stroke-width="2" fill="none" />
<path d="M401.5,211.0,394.0,218.5,387.0,226.5,379.5,234.5,371.5,242.5,363.0,250.0,355.0,257.5,346.5,265.0,338.5,272.5,330.5,279.5,322.5,287.0,314.5,294.5,306.5,302.0,298.5,310.0,291.0,318.0" stroke="black" stroke-width="2" fill="none" />
<path d="M293.5,321.0,301.5,321.0,309.0,321.0,317.0,320.5,325.0,320.5,332.5,320.0,340.5,319.5,348.5,318.5,357.0,317.5,365.0,316.5,372.5,316.0,381.5,315.5,389.5,315.0" stroke="black" stroke-width="2" fill="none" />
<path d="M396.5,306.5,388.5,307.5,380.5,308.0,373.0,309.0,364.5,309.5,357.0,310.0,348.5,310.0,340.5,310.5,332.0,310.5,323.5,311.0,315.0,311.5,306.5,311.5,298.5,311.5,290.5,311.5" stroke="black" stroke-width="2" fill="none" />
<path d="M291.0,310.0,298.5,302.5,306.0,295.0,313.5,288.0,321.5,280.5,329.5,273.0,338.0,265.0,346.5,257.5,355.0,249.5,363.0,242.5,371.5,235.0,380.0,227.0,388.5,219.5,396.0,211.5,404.0,203.5" stroke="black" stroke-width="2" fill="none" />
<path d="M404.0,195.5,396.0,203.0,388.0,210.5,379.5,218.0,371.5,226.0,363.0,233.5,355.0,241.0,347.0,248.5,338.5,256.5,330.0,264.5,321.5,272.5,313.5,280.0,306.0,287.0,298.5,294.5,290.5,302.0" stroke="black" stroke-width="2" fill="none" />
<path d="M291.5,304.0,299.0,304.0,307.0,303.5,315.0,303.5,323.0,303.0,331.5,303.0,339.5,303.0,347.5,303.0,355.5,302.5,363.5,302.0,371.5,301.5,379.5,301.0,388.0,300.5,396.0,299.5" stroke="black" stroke-width="2" fill="none" />
<path d="M395.5,275.5,387.5,276.5,379.5,278.0,371.5,278.0,362.5,278.0,354.5,278.0,346.0,278.0,338.0,278.0,330.0,278.0,322.0,278.5,314.0,279.0,306.5,279.0,298.5,279.5" stroke="black" stroke-width="2" fill="none" />
<path d="M299.0,273.5,307.0,273.0,315.0,272.5,323.0,271.5,331.5,270.0,339.5,269.5,347.5,269.5,355.0,269.0,363.0,269.0,371.5,269.0,380.0,269.0,387.5,268.5,395.5,268.0" stroke="black" stroke-width="2" fill="none" />
<path d="M402.5,220.5,394.5,221.0,387.0,222.0,379.5,223.0,371.5,224.0,363.5,225.0" stroke="black" stroke-width="2" fill="none" />
<path d="M363.0,216.0,371.0,215.5,379.0,215.0,387.5,215.0,395.5,214.5,403.5,214.5" stroke="black" stroke-width="2" fill="none" />
<path d="M403.0,189.5,395.0,197.0,387.5,204.5,379.5,211.5,371.0,219.0,363.0,227.0,355.0,234.5,347.0,241.5,338.5,249.0,330.5,256.5,322.5,263.5,314.0,271.0,306.5,277.5,298.5,284.5,290.5,291.5" stroke="black" stroke-width="2" fill="none" />
<path d="M289.5,290.0,298.0,289.0,306.0,289.0,314.5,288.5,323.5,288.0,332.0,287.5,340.0,287.5,348.0,286.5,356.0,285.5,364.0,285.0,372.0,284.0,379.5,284.0,388.0,283.5,396.5,283.0" stroke="black" stroke-width="2" fill="none" />
<path d="M396.5,259.5,389.0,259.5,381.0,260.0,373.0,260.5,364.5,261.0,356.5,262.0,348.0,262.5,340.0,263.5,332.5,264.5,324.5,264.5,317.0,265.0,309.5,266.0,301.5,266.5" stroke="black" stroke-width="2" fill="none" />
<path d="M299.5,258.0,307.5,257.5,316.0,256.5,324.5,256.0,332.5,255.5,340.5,255.0,349.0,254.5,357.0,254.0,365.0,253.0,373.0,252.5,381.0,252.0,388.5,252.0,397.0,252.0" stroke="black" stroke-width="2" fill="none" />
<path d="M395.5,245.0,388.0,246.0,380.0,246.5,372.0,247.0,364.5,247.0,357.0,247.5,348.5,248.0,340.5,248.0,331.5,248.5,323.0,249.0,315.0,249.5,307.0,249.5,299.5,250.0" stroke="black" stroke-width="2" fill="none" />
<path d="M293.0,252.0,300.5,244.0,309.0,236.5,317.0,229.0,324.5,221.0,332.5,214.0,340.5,206.0,349.0,198.5,356.5,191.5,365.0,184.5,373.0,177.5,381.0,170.5" stroke="black" stroke-width="2" fill="none" />
<path d="M385.0,170.5,377.0,178.0,368.5,185.5,361.0,192.5,353.5,200.0,346.5,207.5,339.0,215.5,331.0,223.5,323.5,231.5,315.5,239.0,307.5,246.0,299.5,254.0,291.5,262.0" stroke="black" stroke-width="2" fill="none" />
<path d="M291.0,284.0,299.0,277.0,307.5,270.0,316.0,262.5,324.0,255.0,332.0,247.5,340.0,240.0,348.0,233.0,356.0,226.5,364.0,219.5,372.5,212.0,381.0,204.0,389.0,196.0,397.0,188.5,405.0,180.5" stroke="black" stroke-width="2" fill="none" />
<path d="M405.0,172.0,397.0,179.5,389.0,187.0,380.5,194.5,372.5,202.0,364.5,209.5,356.0,217.0,347.5,224.5,339.5,232.0,331.5,239.5,324.0,247.0,315.5,254.0,307.5,261.5,299.5,269.0,291.5,276.5" stroke="black" stroke-width="2" fill="none" />
<path d="M292.0,269.0,300.5,261.5,308.5,253.5,316.5,246.0,324.0,238.5,332.0,231.0,340.0,223.5,347.5,216.5,355.0,209.0,363.0,200.5,371.0,192.5,379.0,184.5,386.5,177.5,394.5,170.0" stroke="black" stroke-width="2" fill="none" />
<path d="M389.5,166.5,397.0,165.5,404.5,165.0,412.0,164.5" stroke="black" stroke-width="2" fill="none" />
<path d="M403.0,176.5,394.5,177.0,387.0,178.0,379.0,178.5" stroke="black" stroke-width="2" fill="none" />
<path d="M365.0,177.5,357.0,185.0,348.5,192.5,340.0,200.5,332.0,208.5,323.5,216.5,316.0,224.0,308.5,231.5,300.5,238.5,292.5,246.0" stroke="black" stroke-width="2" fill="none" />
<path d="M292.5,239.0,300.5,231.0,308.5,223.0,316.5,215.5,324.5,208.0,332.5,200.5,340.0,193.0,347.5,186.0,355.5,178.5" stroke="black" stroke-width="2" fill="none" />
<path d="M346.0,179.0,338.5,186.5,331.5,194.5,323.5,201.0,315.0,207.5,307.0,215.0,299.0,222.5,291.0,230.0" stroke="black" stroke-width="2" fill="none" />
<path d="M291.0,224.5,299.5,217.5,307.0,210.5,315.0,203.0,323.0,195.5,331.0,188.5,338.5,181.5" stroke="black" stroke-width="2" fill="none" />
<path d="M347.0,183.5,355.5,183.0,364.0,183.0,372.0,183.0,380.0,183.0,388.0,182.5,396.0,181.5,404.5,181.0" stroke="black" stroke-width="2" fill="none" />
<path d="M411.5,168.0,403.5,168.0,395.5,168.5,387.5,169.5,379.0,170.0,370.5,171.0,363.0,172.0,355.5,172.5,347.5,172.5,339.5,173.0,331.0,174.0" stroke="black" stroke-width="2" fill="none" />
<path d="M323.5,187.0,315.5,195.0,307.5,202.0,299.5,209.0,292.5,216.0" stroke="black" stroke-width="2" fill="none" />
<path d="M299.5,217.5,307.0,217.0,315.0,216.0,323.0,215.5,331.5,215.0,339.0,215.0,347.0,214.5,355.0,214.5" stroke="black" stroke-width="2" fill="none" />
<path d="M316.0,194.0,323.5,193.5,331.0,193.0,338.5,192.5,346.5,192.0,354.5,191.5,362.0,190.5,370.0,190.0,378.5,189.5,386.5,189.0,394.5,188.5,402.5,187.5" stroke="black" stroke-width="2" fill="none" />
<path d="M396.5,235.0,388.5,236.0,380.5,236.5,372.5,237.5,365.5,238.5,357.5,239.0,349.0,239.0,341.0,239.0,332.5,239.5,324.5,239.0,316.0,239.0,307.5,239.0,299.5,239.0" stroke="black" stroke-width="2" fill="none" />
<path d="M299.5,232.0,307.5,232.0,316.0,232.0,324.5,231.0,333.0,230.0,341.0,229.5,349.0,229.5,357.5,229.0,365.5,228.5,374.0,227.5,382.0,226.5,390.0,226.0,397.5,225.5" stroke="black" stroke-width="2" fill="none" />
<path d="M403.0,204.5,395.0,205.0,386.5,205.5,378.0,206.5,370.0,206.5,362.5,206.5,355.0,206.5,347.0,206.5,339.0,207.0,331.5,207.5,324.0,207.5,316.0,208.0,308.5,208.0,301.0,208.5" stroke="black" stroke-width="2" fill="none" />
<path d="M300.5,202.5,308.5,201.5,316.5,201.0,325.0,200.0,333.0,199.0,341.0,198.0,349.0,198.0,356.5,198.0,364.5,198.0,372.5,197.5,380.5,197.5,388.5,196.5,397.0,196.0,404.5,195.5" stroke="black" stroke-width="2" fill="none" />
<path d="M412.0,175.5,403.5,175.0,396.0,175.5,388.5,176.0,380.5,176.5,372.5,177.5,364.5,178.0,356.5,178.5,349.5,179.0,341.5,179.5,334.0,180.5,326.0,181.0,318.0,181.0,310.5,181.0,302.5,181.5" stroke="black" stroke-width="2" fill="none" />
<path d="M307.0,187.5,299.5,195.5,291.5,202.5" stroke="black" stroke-width="2" fill="none" />
<path d="M291.5,208.5,299.5,201.0,308.0,193.5,316.0,186.0" stroke="black" stroke-width="2" fill="none" />
<path d="M317.0,172.5,309.0,173.0,300.5,173.0" stroke="black" stroke-width="2" fill="none" />
<path d="M300.0,157.0,308.5,157.0,317.0,156.0" stroke="black" stroke-width="2" fill="none" />
<path d="M331.0,154.5,339.0,147.5" stroke="black" stroke-width="2" fill="none" />
<path d="M333.0,147.0,340.5,139.5" stroke="black" stroke-width="2" fill="none" />
<path d="M341.0,132.5,333.0,140.0" stroke="black" stroke-width="2" fill="none" />
<path d="M332.0,142.0,340.0,141.0,348.5,140.0" stroke="black" stroke-width="2" fill="none" />
<path d="M348.0,150.0,341.0,150.5,333.0,151.0" stroke="black" stroke-width="2" fill="none" />
<path d="M333.0,158.5,341.0,158.0" stroke="black" stroke-width="2" fill="none" />
<path d="M341.5,153.0,333.5,153.0,325.5,154.0,317.5,154.5,310.0,155.0,302.0,155.5,293.5,156.5,285.0,157.5,277.5,158.0,269.0,158.5,260.5,159.0,252.0,159.5,244.5,160.0,236.5,160.5,228.5,161.0,220.0,161.0,212.0,162.0,204.5,162.5,195.5,163.5,187.5,164.5,179.0,165.5,170.0,166.0,162.0,166.5" stroke="black" stroke-width="2" fill="none" />
<path d="M155.5,167.5,163.5,167.5,172.0,167.0,180.0,166.0,188.0,165.0,196.0,162.5,204.0,161.5,212.0,160.5,220.0,158.5,227.5,157.5,235.5,156.5,243.5,157.0,252.0,158.0,260.0,159.0,268.5,157.0,276.0,157.0,284.5,157.5,292.5,157.5,300.5,158.5,308.0,159.5,316.0,156.5,324.5,157.5,332.5,155.5" stroke="black" stroke-width="2" fill="none" />
<path d="M325.0,158.5,330.5,150.0,330.0,142.0,330.0,134.0,327.0,130.5,319.0,128.0" stroke="black" stroke-width="2" fill="none" />
<path d="M318.0,125.5,326.5,127.0,334.5,129.0,342.5,126.5,344.0,131.5,343.0,139.5,343.0,147.0,341.5,155.0,349.5,162.5,350.0,162.5" stroke="black" stroke-width="2" fill="none" />
<path d="M351.5,165.0,343.0,165.5,335.0,159.5,334.5,160.5,338.5,152.5,338.0,144.0,335.0,140.5,333.5,132.5,332.5,134.0" stroke="black" stroke-width="2" fill="none" />
<path d="M332.5,133.5,340.0,133.0,348.0,132.5" stroke="black" stroke-width="2" fill="none" />
<path d="M334.0,143.0,333.0,151.5" stroke="black" stroke-width="2" fill="none" />
<path d="M317.0,148.5,308.5,148.5,300.0,149.0" stroke="black" stroke-width="2" fill="none" />
<path d="M302.5,143.0,302.5,146.5,302.5,155.0" stroke="black" stroke-width="2" fill="none" />
<path d="M300.0,141.0,308.0,141.0" stroke="black" stroke-width="2" fill="none" />
<path d="M306.0,134.0,298.0,134.5" stroke="black" stroke-width="2" fill="none" />
<path d="M299.0,126.0,307.0,125.0" stroke="black" stroke-width="2" fill="none" />
<path d="M308.0,115.0,300.0,115.0" stroke="black" stroke-width="2" fill="none" />
<path d="M301.5,108.0,309.5,107.0" stroke="black" stroke-width="2" fill="none" />
<path d="M307.0,110.0,307.0,118.0,308.5,126.0,308.0,134.0,308.5,141.5,308.5,150.0,311.0,158.0,316.5,164.5,325.0,165.5,333.0,165.5,341.0,163.5,349.5,160.0,357.5,160.0,365.5,160.5,373.0,160.5,381.0,161.5,389.0,162.0,396.5,162.0" stroke="black" stroke-width="2" fill="none" />
<path d="M355.5,222.0,347.0,222.5,338.5,222.5,331.0,222.5,323.5,223.0,315.5,223.5,308.0,224.0,300.0,224.5" stroke="black" stroke-width="2" fill="none" />
<path d="M291.5,189.5,299.0,189.0,306.5,188.5,314.5,188.5,322.5,188.5,330.5,188.0,339.0,187.0,347.5,186.5,356.0,186.0,364.5,185.5,372.0,185.0,380.5,184.5,389.0,184.0,397.0,183.0,405.0,182.5,412.5,182.5" stroke="black" stroke-width="2" fill="none" />
<path d="M404.5,226.0,396.5,226.5,388.0,227.0,379.5,227.5,372.0,228.0,364.0,228.5,356.0,228.5,348.0,228.5,340.0,229.0,332.0,229.5,324.5,230.5,316.5,231.5,308.5,232.0,300.5,233.0,293.0,234.0,285.0,234.5,276.5,235.0,268.5,235.5,260.0,236.0,252.0,236.5,244.5,237.0,236.5,237.5,228.5,238.0,220.5,238.0,212.0,238.5,203.5,238.5,195.5,239.0,187.5,239.0,179.0,239.5,171.5,240.5,163.5,242.0,155.5,242.5,147.0,243.5,139.5,244.0,131.0,245.0,123.5,246.0,116.0,246.5,108.0,247.5,100.0,248.5" stroke="black" stroke-width="2" fill="none" />
<path d="M100.0,254.0,107.5,254.0,115.0,253.5,122.5,252.5,130.5,251.5,139.0,251.0,147.0,251.0,155.5,250.5,164.0,250.0,172.0,249.5,180.5,248.5,188.0,248.5,196.0,248.0,203.5,247.5,211.5,247.5,219.0,247.0,227.5,247.0,235.5,247.0,244.0,247.0,252.5,246.5,261.0,246.0,268.5,245.5,275.5,244.5,283.5,244.0,291.5,243.0,299.5,242.0,307.5,241.5,315.5,240.5,324.0,239.5,332.5,238.5,340.0,237.5,348.0,237.0,356.0,236.5,363.5,236.0,371.0,235.0,379.0,234.5,387.0,234.0,395.5,234.0,403.5,234.0" stroke="black" stroke-width="2" fill="none" />
<path d="M404.0,253.0,396.0,253.0,388.5,253.5,380.0,253.5,372.0,253.5,364.5,253.5,356.5,253.0,349.0,253.5,341.0,254.0,333.5,254.0,325.5,254.5,317.0,255.5,308.5,256.5,300.0,257.5,291.5,258.0,283.5,258.5,275.0,259.5,266.5,260.0,258.5,260.5,250.5,261.0,243.0,261.5,235.5,262.0,228.0,262.0,219.5,262.5,211.0,262.5,203.0,262.5,195.0,263.0,187.0,263.0,179.5,264.0,172.0,264.0,164.0,265.0,156.0,266.0,148.0,267.0,139.5,267.5,131.0,267.0,122.5,267.0,114.0,268.0,106.0,269.0" stroke="black" stroke-width="2" fill="none" />
<path d="M105.5,276.5,113.5,275.5,122.0,275.5,130.5,275.0,138.5,275.0,146.5,274.0,154.5,273.5,162.5,273.0,170.5,273.0,178.5,272.5,186.5,272.0,195.0,271.5,203.5,271.0,212.0,270.0,220.0,269.5,227.5,269.0,235.5,268.5,243.5,268.0,251.0,268.0,258.5,268.0,266.5,268.0,274.5,267.0,282.5,266.5,291.0,265.5,299.0,265.0,307.0,264.0,315.0,264.0,323.0,264.0,331.5,264.0,340.0,264.0,348.5,263.0,356.0,262.5,364.0,262.0,371.5,261.0,379.5,260.0,388.0,259.5,395.5,259.0,403.5,259.0" stroke="black" stroke-width="2" fill="none" />
<path d="M396.5,292.0,388.5,292.5,380.0,293.0,371.5,293.0,363.5,293.5,356.0,294.0,348.0,295.0,340.0,295.5,332.0,296.0,323.5,296.0,315.0,296.0,307.0,296.0,298.5,295.5,290.5,296.0" stroke="black" stroke-width="2" fill="none" />
<path d="M319.5,315.5,326.5,316.0,318.5,319.0" stroke="black" stroke-width="2" fill="none" />
<path d="M318.5,354.5,326.5,355.5,334.5,357.5,342.5,359.5,350.5,361.0" stroke="black" stroke-width="2" fill="none" />
<path d="M350.5,362.5,342.5,361.5,334.5,359.5,326.5,357.5,318.0,355.0" stroke="black" stroke-width="2" fill="none" />
<path d="M419.0,396.0,411.0,395.5,403.0,395.5,395.0,396.0,387.5,396.0,379.0,396.5,371.0,397.0,363.0,398.0,355.5,398.5,347.5,398.5,339.5,398.5,332.0,399.0,324.5,400.0,316.5,401.0,309.0,402.0,300.5,402.5,292.5,403.5,284.5,404.0,276.5,404.5,268.5,404.5,260.0,405.0,251.5,406.0,243.5,407.0,235.0,408.0,227.0,408.5,219.0,408.5,210.5,408.5,202.0,409.0,194.0,409.0,186.0,410.0,178.5,410.5,171.0,411.0,162.5,411.0,154.5,411.5,146.5,411.5,138.0,411.5,129.5,411.5,121.5,411.5,113.5,412.0" stroke="black" stroke-width="2" fill="none" />
<path d="M115.5,405.5,123.5,405.0,131.0,405.0,139.0,405.0,147.0,405.0,155.5,404.5,163.5,404.0,172.5,403.5,181.0,402.5,189.0,402.0,196.5,401.5,204.5,400.5,212.5,400.5,220.0,400.0,227.0,400.0,235.0,400.0,243.0,399.5,251.0,398.5,259.0,397.5,267.0,396.5,275.0,396.0,283.0,395.5,291.0,395.5,299.5,395.0,308.5,395.0,317.0,394.0,325.0,393.5,333.0,392.5,341.0,391.5,349.0,390.0,357.0,389.5,364.5,389.0,372.0,389.0,380.0,388.5,387.5,388.5,395.0,388.0,403.0,387.5,411.0,387.5,418.5,387.5" stroke="black" stroke-width="2" fill="none" />
<path d="M421.0,428.5,412.5,429.0,404.5,429.0,395.5,429.5,387.0,430.0,379.0,430.5,371.0,430.5,363.5,431.0,355.0,431.5,346.5,432.0,338.5,432.0,330.0,432.5,322.0,433.5,314.0,433.5,306.0,434.0,298.5,434.5,290.5,435.5,282.5,436.0,274.5,437.0,267.0,437.0,259.0,437.0,250.5,437.5,242.5,438.0,234.5,438.5,227.5,439.0,219.5,439.5,211.5,440.5,203.0,441.0,195.5,441.0,187.5,441.5,179.5,442.5,171.5,443.0,163.5,444.0,155.5,445.0,147.5,445.5,139.5,446.5,131.5,447.5,123.5,448.0" stroke="black" stroke-width="2" fill="none" />
<path d="M116.0,438.5,123.5,438.0,131.0,437.0,139.0,436.5,147.0,436.0,155.0,435.5,163.0,435.0,171.5,434.0,180.0,433.5,188.0,433.5,196.5,432.5,204.0,432.5,212.0,432.5,220.5,432.5,228.5,432.0,236.5,432.0,244.5,431.0,252.0,430.5,259.5,429.5,268.0,429.0,276.0,428.5,284.0,428.0,292.0,427.5,300.0,427.0,307.5,426.5,315.5,426.0,323.0,425.0,331.0,423.5,339.0,422.5,347.5,421.0,355.5,420.0,363.5,420.0,372.0,420.0,380.5,420.0,388.5,420.5,397.0,420.0,405.0,420.0,413.5,420.0,421.5,419.5,428.5,418.5,436.5,417.5,444.5,417.0" stroke="black" stroke-width="2" fill="none" />
<path d="M411.5,475.5,403.5,476.5,396.0,477.5,388.5,478.0,381.0,479.0,373.5,480.0,366.0,481.0,357.5,481.5,349.5,481.0,341.5,481.0,333.5,481.0,325.0,481.0,317.0,481.0,309.5,481.5,301.5,482.0,293.5,482.5,284.5,483.0,277.0,483.5,269.0,484.5,260.5,485.5,252.5,486.5,244.5,487.0,237.0,487.5,229.0,487.5,221.0,488.0,213.5,488.0,205.5,488.0,197.5,488.5,189.0,489.5,181.0,490.5,172.5,490.5,164.0,490.5,155.5,491.0,147.5,491.0,139.0,491.0,131.0,491.5,123.0,492.0" stroke="black" stroke-width="2" fill="none" />
<path d="M124.0,486.5,131.5,485.5,139.0,485.0,146.5,484.5,154.0,484.5,162.5,484.0,170.5,483.5,178.5,482.0,186.5,480.5,195.0,479.5,202.5,478.5,210.5,478.5,218.5,478.5,227.0,478.5,235.5,478.0,244.0,477.5,252.5,477.5,260.5,477.0,269.0,477.0,276.5,476.5,285.0,476.0,292.5,475.0,300.5,474.5,308.5,473.5,316.5,473.0,325.0,472.0,332.5,471.5,340.5,471.5,348.5,471.5,356.5,471.5,364.0,471.0,371.5,470.5,379.0,470.0,386.5,469.5,394.5,469.0,402.5,468.5,410.0,467.5" stroke="black" stroke-width="2" fill="none" />
<path d="M404.5,568.0,396.5,568.0,388.5,568.0,381.0,568.5,372.5,568.5,364.5,568.5,357.0,568.5,348.5,568.5,340.0,569.0,332.0,569.0,324.0,569.5,316.0,570.0,308.0,570.5,300.0,571.0,292.5,571.5,284.5,572.5,276.5,573.5,269.0,574.5,261.0,575.5,253.5,576.0,245.0,576.5,236.5,577.0,228.0,577.5,219.5,578.5,211.0,579.5,203.0,580.0,195.5,581.0,187.0,581.5,178.5,582.5,170.5,583.0" stroke="black" stroke-width="2" fill="none" />
<path d="M154.5,575.0,162.5,574.5,170.5,573.5,179.0,572.5,187.5,572.0,195.5,571.0,204.5,570.0,213.0,569.5,221.0,568.5,228.5,568.0,236.0,567.5,244.0,567.5,252.5,567.0,260.5,567.0,268.0,567.0,276.0,566.0,284.5,565.5,292.0,564.5,300.0,563.5,308.0,563.0,316.5,563.0,324.5,562.0,332.5,561.5,341.0,561.0,349.0,561.0,357.0,560.5,364.5,560.5,371.5,560.5,379.0,560.5,387.0,560.0,395.5,559.0,403.5,558.5" stroke="black" stroke-width="2" fill="none" />
<path d="M410.5,550.0,403.5,551.0,396.0,551.5,387.5,552.0,380.0,552.0,372.0,552.0,364.0,552.0,356.0,551.5,348.0,551.5,340.0,551.5,332.5,552.5,324.0,553.0,316.5,554.0,308.5,555.5,301.0,556.0,293.0,556.0,285.0,556.5,277.0,557.0,269.0,557.5,261.0,558.5,252.5,559.0,244.0,559.5,236.5,560.5,228.5,561.0,221.0,562.0,212.5,562.5,204.5,562.5,196.5,562.5,188.0,562.5,180.0,563.0,171.0,564.0,162.5,564.0,154.0,565.0,145.0,565.5,137.0,566.0" stroke="black" stroke-width="2" fill="none" />
<path d="M139.0,561.5,147.5,553.5" stroke="black" stroke-width="2" fill="none" />
<path d="M139.5,556.0,131.5,563.5" stroke="black" stroke-width="2" fill="none" />
<path d="M127.5,564.0,135.5,567.5,143.5,571.0,151.5,573.5,159.5,577.0,168.0,581.0,176.0,584.5,184.0,587.5,192.0,591.5,200.5,595.5,208.5,600.0,216.5,603.5,224.5,606.5,232.5,610.5,240.0,614.5,248.0,617.0,256.0,621.5,264.5,625.5,272.5,630.0,280.0,633.0,288.0,629.5,296.0,620.5,304.0,612.0,312.0,605.0,304.0,612.0,296.0,620.5,289.0,629.0" stroke="black" stroke-width="2" fill="none" />
<path d="M154.5,562.0,147.0,570.0" stroke="black" stroke-width="2" fill="none" />
<path d="M130.5,557.0,138.5,556.5,146.5,556.0,155.0,556.0,163.5,556.5,172.0,556.0,180.0,555.5,188.5,555.0,196.5,555.0,204.5,555.0,213.0,554.5,221.0,554.0,228.5,553.5,236.0,552.5,243.5,551.5,252.0,551.0,260.0,550.0,268.0,549.5,276.0,548.5,284.5,548.0,292.5,547.0,300.0,547.0,308.0,546.5,315.5,546.5,323.5,546.5,331.5,546.0,339.0,546.0,347.5,546.0,356.0,545.5,364.0,544.5,372.0,544.0,380.0,543.5,388.0,543.5,396.0,542.5,404.0,542.0,412.5,541.0,420.5,540.5" stroke="black" stroke-width="2" fill="none" />
<path d="M412.0,533.0,403.5,533.0,395.5,533.5,387.0,534.0,378.5,534.0,370.0,534.5,362.0,535.0,354.5,535.5,347.0,536.5,339.0,537.0,331.0,537.5,323.0,538.0,315.5,538.0,307.0,538.5,298.5,539.0,290.5,539.0,283.0,539.5,275.5,540.5,267.5,541.0,259.5,542.0,252.0,542.5,244.0,543.0,236.0,542.5,228.0,542.5,220.0,543.0,211.5,543.5,203.5,544.0,196.0,544.5,188.0,545.0,180.0,546.0,171.5,546.5,164.0,547.5,155.5,548.0,147.0,548.0,138.5,548.5,130.5,548.5" stroke="black" stroke-width="2" fill="none" />
<path d="M130.5,539.5,138.5,538.5,146.5,538.0,154.5,537.0,162.0,536.5,169.5,536.0,178.0,535.5,186.5,535.5,194.5,535.5,202.0,535.5,209.5,535.0,217.5,534.5,225.5,534.0,233.5,533.5,241.5,533.0,249.5,533.0,257.5,533.0,265.5,533.0,273.5,532.5,282.0,532.0,290.0,531.5,298.0,531.0,305.5,530.0,313.5,530.0,321.5,529.5,329.5,529.5,337.5,528.5,346.0,527.5,354.5,526.0,363.0,525.5,371.0,524.5,379.5,524.0,388.0,524.0,396.0,524.0,404.0,524.0,412.0,523.5,420.0,522.5" stroke="black" stroke-width="2" fill="none" />
<path d="M419.5,514.5,411.0,515.0,402.5,516.0,395.0,517.0,387.5,517.5,379.5,517.5,371.5,518.0,363.0,519.0,355.0,519.0,347.5,519.5,339.5,520.0,331.5,520.0,324.0,520.5,315.5,521.0,307.5,522.0,300.0,523.0,292.0,523.5,284.5,524.0,276.0,525.0,267.5,525.0,259.0,525.0,251.0,525.0,243.0,525.0,235.0,526.0,227.0,526.5,218.5,527.5,210.5,528.0,202.5,529.0,194.5,529.0,187.0,529.0,179.5,529.0,171.5,529.5,163.5,530.0,156.0,530.5,148.0,531.0,139.5,532.0,131.0,532.5,122.5,533.0" stroke="black" stroke-width="2" fill="none" />
<path d="M131.5,523.0,138.5,515.5" stroke="black" stroke-width="2" fill="none" />
<path d="M132.0,514.5,139.5,507.0" stroke="black" stroke-width="2" fill="none" />
<path d="M124.5,509.5,132.0,509.5,140.0,509.0,147.5,508.5,155.5,508.5,163.0,508.0,171.5,508.0,179.5,508.0,188.0,508.0,196.5,507.5,205.0,507.0,212.5,506.5,219.5,505.5,227.5,505.0,235.5,504.0,243.5,503.0,251.5,502.5,259.5,501.5,268.0,500.5,276.5,499.5,284.0,498.5,292.0,498.0,300.0,497.5,307.5,497.0,315.0,496.0,323.0,495.5,331.0,495.0,339.5,495.0,347.5,495.0,356.0,495.0,364.0,495.0,372.0,494.0,380.5,493.0,388.5,492.0,396.5,491.0,404.5,490.5,412.5,490.0" stroke="black" stroke-width="2" fill="none" />
<path d="M411.5,483.0,404.0,484.0,395.5,484.5,387.5,485.0,380.0,485.5,372.0,486.0,364.5,486.5,356.5,487.0,348.5,487.0,340.5,487.5,332.0,488.0,323.5,488.5,316.0,489.0,308.0,489.5,300.0,489.5,292.0,489.5,284.0,490.0,276.0,490.5,268.5,491.5,260.5,492.5,252.5,493.0,244.5,494.0,237.0,495.0,229.0,495.5,220.5,496.0,212.5,496.5,204.0,497.0,196.0,497.5,188.5,498.0,180.5,498.5,172.5,499.0,164.5,499.0,156.0,499.5,147.5,499.5,139.5,500.0,131.5,500.0,123.0,500.5" stroke="black" stroke-width="2" fill="none" />
<path d="M108.5,443.0,100.0,443.0,92.0,443.0" stroke="black" stroke-width="2" fill="none" />
<path d="M117.0,428.5,125.5,428.0,133.5,428.0,141.0,427.5,149.0,426.5,157.0,426.5,164.5,426.0,173.0,426.0,181.0,426.0,189.5,426.0,197.5,425.5,205.5,425.0,213.5,424.5,222.0,424.0,229.5,424.0,238.0,424.0,245.5,423.5,253.0,423.5,260.5,423.0,268.0,422.0,276.0,421.5,284.0,421.0,291.5,420.0,299.5,419.0,308.0,418.0,315.5,416.5,323.5,415.5,331.0,415.0,339.0,414.0,347.5,413.5,355.5,413.0,363.5,413.0,372.0,413.0,380.5,412.0,389.0,411.0,397.0,410.5,405.0,410.5,413.5,410.0,421.5,409.5,430.0,408.5,438.0,407.5" stroke="black" stroke-width="2" fill="none" />
<path d="M419.5,403.0,411.5,403.0,403.0,403.5,394.5,403.5,387.0,403.5,379.5,404.0,371.5,404.5,364.0,405.0,356.0,405.5,348.0,406.0,340.0,406.5,332.0,407.0,323.5,408.0,315.5,408.5,308.0,409.5,300.5,410.5,293.0,411.5,285.0,413.0,277.5,413.5,269.5,414.0,261.5,413.5,253.5,413.5,245.0,414.0,236.5,415.0,228.5,415.0,220.5,415.5,212.5,416.0,205.0,417.0,196.5,418.0,189.0,419.0,180.5,419.5,172.0,419.5,164.0,419.5,156.0,419.5,148.0,420.0,140.0,420.0,132.5,420.0,125.0,420.5,116.5,420.5" stroke="black" stroke-width="2" fill="none" />
<path d="M117.5,398.5,125.5,398.0,133.5,397.0,141.0,396.0,148.5,395.5,156.5,394.5,164.5,394.5,172.5,394.0,180.5,393.5,189.0,393.0,197.5,393.0,205.5,392.5,212.5,392.0,220.0,391.5,227.5,390.5,234.5,390.5,242.0,390.0,250.0,389.5,258.0,389.0,265.5,388.5,273.5,387.5,282.0,387.0,290.5,386.0,299.0,386.0,306.5,385.5,315.5,385.0,323.5,384.5,332.0,384.5,340.0,384.5,348.5,384.0,356.5,383.5,364.5,382.5,372.5,382.0,381.0,381.0,389.0,380.0,397.0,379.0,405.0,379.0,412.5,379.0,420.5,379.0" stroke="black" stroke-width="2" fill="none" />
<path d="M420.5,371.0,412.5,371.5,405.5,372.0,397.5,372.5,390.0,373.5,382.0,374.0,374.0,374.0,366.5,374.0,358.5,374.5,350.5,375.0,341.5,376.0,333.5,376.5,325.0,377.0,316.5,377.5,308.0,378.0,299.0,378.5,291.0,378.5,283.0,378.5,275.0,379.0,266.5,379.5,258.5,380.0,250.5,381.0,242.5,381.5,234.0,382.0,226.5,383.0,219.5,383.5,212.0,383.5,204.5,383.5,197.0,384.0,188.5,384.5,180.0,385.5,171.5,386.5,163.5,387.0,156.0,387.5,148.5,388.0,140.5,388.0,132.5,388.0,124.5,388.5,116.5,389.0" stroke="black" stroke-width="2" fill="none" />
<path d="M115.5,380.0,124.0,380.0,132.0,379.5,140.0,379.0,148.0,379.0,155.5,378.0,163.5,378.0,170.5,377.5,178.0,377.0,185.5,377.0,193.0,376.5,201.5,376.0,209.5,376.0,218.0,376.0,227.0,375.5,235.5,375.0,243.0,374.5,250.5,374.0,258.5,373.5,266.5,373.0,275.0,372.5,282.5,372.5,291.0,372.0,299.5,371.0,308.5,370.0,316.5,369.5,324.5,369.0,332.5,368.5,340.5,368.0,348.5,367.0,356.5,366.0,365.0,366.0,373.0,365.5,381.5,365.0,389.5,365.0,397.5,364.5,405.5,364.0,413.5,362.5,421.5,361.5" stroke="black" stroke-width="2" fill="none" />
<path d="M420.0,354.5,412.5,355.0,404.5,355.5,397.0,355.5,389.0,356.0,381.0,356.5,373.0,357.0,364.5,358.0,356.0,358.0,348.0,359.0,340.0,359.5,332.0,360.0,324.0,360.0,315.5,361.0,307.5,361.0,299.5,362.0,291.5,362.5,283.5,363.5,275.5,364.0,268.0,364.5,260.0,365.0,251.5,365.0,243.5,365.0,235.0,365.5,227.0,366.0,219.0,366.5,211.5,367.0,203.5,367.5,195.5,368.0,187.5,368.5,179.0,369.0,171.5,369.5,163.5,370.0,155.5,370.5,148.0,371.5,140.0,372.5,132.5,373.5,124.5,373.5,116.5,374.0" stroke="black" stroke-width="2" fill="none" />
<path d="M116.0,367.0,124.0,366.0,132.0,365.5,140.0,364.5,148.0,364.0,156.0,363.0,164.0,362.5,172.0,361.5,180.0,361.0,188.0,360.5,196.0,360.0,204.5,360.0,212.5,359.0,220.5,358.5,228.5,357.5,236.5,357.0,244.0,357.5,252.0,357.5,259.5,357.5,267.5,357.5,275.0,357.5,283.0,356.5,291.0,356.0,299.5,355.0,307.5,354.0,315.5,353.5,324.0,353.0,332.5,352.0,340.5,351.0,348.5,350.5,356.0,350.0,364.5,349.5,373.0,349.5,381.0,349.5,389.0,350.0,397.0,349.5,405.0,348.5,412.5,348.0,420.5,347.5" stroke="black" stroke-width="2" fill="none" />
<path d="M418.5,340.0,410.0,340.5,402.5,340.5,395.0,341.0,387.5,341.5,380.0,341.5,372.0,341.5,364.0,341.5,356.0,342.0,348.0,342.0,339.5,343.0,331.0,343.5,323.0,344.5,315.5,345.0,308.0,346.0,299.5,346.5,292.0,347.0,284.5,347.5,276.5,347.5,268.0,348.0,260.0,348.5,251.5,349.0,243.0,349.0,235.0,348.5,227.0,348.5,219.5,349.0,211.5,350.5,203.0,351.5,195.5,352.5,187.0,353.0,179.0,353.5,171.5,353.5,164.0,354.0,157.0,355.0,149.5,356.0,141.5,357.0,133.5,357.5,125.0,358.0,117.0,359.0,109.0,359.0" stroke="black" stroke-width="2" fill="none" />
<path d="M109.5,351.5,117.5,350.5,125.5,350.0,133.5,349.0,141.0,348.0,148.5,347.5,156.5,346.0,164.0,345.5,172.0,344.5,179.5,343.5,188.0,343.0,196.0,343.0,204.0,342.5,212.0,342.5,221.0,342.5,229.5,342.5,237.5,342.5,245.0,342.0,253.0,342.0,261.0,341.5,269.0,341.0,277.0,340.5,284.5,340.0,291.5,339.5,299.0,339.0,306.5,338.0,314.5,338.0,322.5,337.5,330.5,337.0,338.5,336.5,346.0,335.5,354.0,335.0,362.0,335.0,370.0,334.5,378.0,333.5,386.0,333.0,394.0,332.5,402.0,332.0,409.5,331.5,417.5,331.0" stroke="black" stroke-width="2" fill="none" />
<path d="M419.5,322.0,411.0,323.0,402.5,324.0,394.5,324.5,386.0,325.0,378.0,325.0,370.5,325.0,363.0,325.5,355.0,326.0,347.0,327.0,339.5,327.5,331.5,327.5,323.5,328.0,315.0,328.5,307.5,328.5,300.0,329.5,292.5,330.0,285.0,331.0,277.0,332.0,269.5,332.5,261.5,333.0,253.0,333.0,245.0,333.0,236.5,333.0,228.5,333.0,220.0,334.0,211.5,335.0,203.0,336.0,195.5,336.5,187.5,337.5,179.5,338.0,171.5,338.5,163.5,339.0,155.5,339.5,148.0,340.5,140.0,340.5,132.5,341.5,124.5,342.0,116.5,342.5,108.5,343.0" stroke="black" stroke-width="2" fill="none" />
<path d="M109.0,318.5,117.0,318.0,125.0,317.0,133.0,317.0,141.0,317.0,148.5,317.0,155.5,316.5,163.0,316.0,170.5,315.5,178.5,315.0,186.5,314.0,194.5,313.5,202.5,312.5,211.0,311.5,219.5,311.0,227.5,310.0,236.5,309.0,245.0,308.5,253.0,307.5,260.5,307.0,268.0,306.5,276.0,306.5,284.5,306.0,292.5,306.0,300.0,306.0,308.0,305.0,316.5,304.5,324.0,303.5,332.0,302.5,340.0,302.0,348.5,302.0,356.5,301.0,364.5,300.5,373.0,300.0,381.0,300.0,389.0,299.5,396.5,299.5,403.5,299.5,411.0,299.5,419.0,299.0,427.5,298.0" stroke="black" stroke-width="2" fill="none" />
<path d="M421.0,310.5,420.5,318.0,420.0,326.5,420.5,334.5,419.5,342.0,418.5,350.0,418.5,357.5,417.5,365.5,416.0,373.0,415.0,380.5,415.0,388.5,414.0,396.5,413.5,404.5,413.0,412.5,412.0,420.5,411.0,429.0,410.0,437.0,410.0,445.0,409.0,453.5,408.5,462.0,408.5,470.0,407.0,477.5,406.5,485.5,405.5,494.0,405.5,502.0,404.5,510.5,403.5,518.5,402.0,526.5,401.5,534.5,400.5,542.5,394.5,550.5,386.5,558.0,380.0,566.0,371.0,573.5,371.5,578.5,377.0,567.0,385.0,558.5,393.0,549.5" stroke="black" stroke-width="2" fill="none" />
<path d="M480.0,360.0,479.0,357.0,480.0,362.5,481.0,348.5,473.0,351.5" stroke="black" stroke-width="2" fill="none" />
<path d="M396.0,290.5,388.0,290.5,380.5,291.5,372.0,292.0,364.5,293.0,356.5,294.5,349.0,295.0,341.0,295.0,333.0,295.5,325.0,296.0,317.0,296.5,309.0,297.5,300.5,298.0,292.0,298.5,284.5,299.5,276.5,300.0,269.0,301.0,260.5,301.5,252.5,301.5,244.5,301.5,236.0,301.5,228.0,302.0,219.0,303.0,210.5,303.0,202.0,304.0,193.0,304.5,185.0,305.0,177.0,305.5,169.0,306.0,161.5,307.0,154.5,307.5,147.0,308.0,139.5,308.0,132.0,308.0,124.5,308.5,117.0,309.0,109.5,309.0" stroke="black" stroke-width="2" fill="none" />
<path d="M106.5,292.5,114.5,292.5,123.0,292.0,131.5,291.5,139.5,291.0,147.5,290.0,155.5,290.0,163.5,289.0,171.0,288.5,179.0,288.0,186.5,287.5,194.5,287.5,203.0,287.0,211.5,287.0,220.0,286.5,227.5,285.5,236.0,285.0,244.0,284.0,252.0,283.5,259.5,283.0,267.5,282.5,276.0,282.0,284.0,281.5,292.0,281.5,300.0,282.0,308.0,281.5,315.5,281.0,323.5,280.0,331.5,279.5,339.0,278.5,346.5,278.0,354.5,278.0,363.0,277.5,371.5,277.0,379.0,277.0,387.0,276.5,395.0,276.0,403.0,275.5" stroke="black" stroke-width="2" fill="none" />
<path d="M402.0,266.5,393.5,267.5,385.5,268.5,377.5,268.5,369.5,269.0,361.5,269.0,354.0,270.0,346.0,270.5,338.0,271.0,329.5,271.5,321.5,272.0,313.5,272.0,305.5,272.0,297.5,272.0,289.5,272.5,281.5,273.0,273.5,273.5,265.5,274.0,258.0,274.5,250.5,274.5,242.5,274.5,234.0,274.5,225.5,275.0,218.0,275.5,210.5,276.0,202.5,277.0,194.5,277.5,186.5,278.5,178.5,278.5,170.0,279.0,162.0,279.5,153.5,280.0,146.0,281.0,137.5,281.5,129.0,283.5,121.0,284.5,113.0,286.0,105.0,286.5" stroke="black" stroke-width="2" fill="none" />
<path d="M105.5,261.0,114.0,260.5,122.5,260.0,130.5,259.5,139.0,259.0,147.0,259.0,155.5,258.0,164.0,257.5,172.0,257.5,180.0,257.5,187.5,257.0,195.5,256.5,203.5,256.0,212.0,255.0,220.5,254.5,229.0,254.0,236.5,254.0,244.5,254.0,252.0,253.5,259.0,253.0,267.0,252.5,275.5,252.0,284.0,251.0,292.0,250.0,300.5,249.0,308.5,248.5,317.0,247.5,324.5,247.5,332.5,247.0,341.0,246.0,349.5,245.5,357.0,245.5,365.0,245.0,373.0,244.5,381.5,244.0,389.0,243.5,397.0,243.5,405.0,244.0" stroke="black" stroke-width="2" fill="none" />
<path d="M405.5,220.0,397.5,220.0,389.5,220.0,381.0,220.0,373.0,220.0,365.5,220.5,357.5,221.0,349.5,221.5,340.5,222.0,333.0,222.5,325.0,223.5,316.5,224.5,308.5,225.5,300.5,226.0,293.0,226.5,285.0,226.5,277.0,227.0,269.5,227.0,261.5,227.0,253.5,227.5,245.0,228.5,237.0,229.5,228.5,229.5,220.0,229.5,211.5,230.0,203.5,230.0,195.0,230.0,187.0,230.5,179.0,231.0,171.0,231.5,162.5,232.5,155.0,233.5,147.0,234.5,139.0,236.0,131.0,237.0,123.0,238.5,115.5,239.5,108.0,240.0,100.0,241.0" stroke="black" stroke-width="2" fill="none" />
<path d="M98.0,231.0,106.0,230.0,114.5,229.5,122.5,229.0,131.0,229.0,139.0,228.0,147.0,228.0,155.5,227.0,163.5,226.5,172.0,226.0,180.0,225.5,187.5,224.5,195.0,224.0,202.5,223.5,210.0,223.5,218.5,223.0,226.5,222.5,234.5,221.0,242.5,219.5,251.0,218.5,258.5,217.5,266.5,217.5,274.5,217.5,283.0,217.5,291.5,217.0,300.0,216.5,308.5,216.5,316.5,216.0,325.0,216.0,332.5,215.5,341.0,215.0,348.5,214.0,356.5,213.5,364.5,212.5,372.5,212.0,381.0,211.0,388.5,210.5,396.5,210.5,404.5,210.5" stroke="black" stroke-width="2" fill="none" />
<path d="M402.5,201.0,395.0,202.0,387.0,202.5,379.5,203.5,372.0,204.5,364.0,205.5,356.0,206.5,347.5,207.0,339.5,207.5,331.5,208.0,323.5,208.5,315.5,209.0,307.5,209.0,299.5,209.0,291.0,209.0,283.0,209.5,275.0,209.5,267.0,210.0,259.5,210.0,251.0,210.5,242.5,211.0,234.0,211.5,226.0,212.5,218.5,213.5,210.0,214.5,202.5,215.5,195.0,216.5,187.0,217.0,179.0,218.0,171.0,218.5,163.5,219.0,155.5,219.5,147.0,220.0,139.0,220.5,131.0,220.5,123.0,221.0,114.5,221.0,106.0,221.0,97.5,221.0" stroke="black" stroke-width="2" fill="none" />
<path d="M99.0,213.0,106.5,212.5,114.5,212.5,123.0,212.5,131.0,212.5,139.5,212.5,147.5,212.5,156.0,212.0,164.0,211.5,172.0,211.0,180.0,211.0,188.0,210.5,196.0,209.5,203.5,208.5,211.5,208.0,219.5,207.0,227.0,206.0,234.5,205.0,242.0,203.5,250.5,202.5,258.5,202.0,266.5,201.5,275.0,202.0,283.0,202.0,291.5,202.0,300.0,202.0,308.0,201.5,316.0,201.0,324.0,200.0,331.5,199.5,339.5,199.0,348.0,199.0,356.5,198.5,364.5,198.0,372.5,197.5,380.5,197.0,388.0,195.5,396.0,195.0,403.5,194.0" stroke="black" stroke-width="2" fill="none" />
<path d="M406.0,187.0,398.0,187.5,389.5,188.0,381.0,188.0,372.5,188.5,364.5,189.0,356.0,189.5,347.5,190.0,340.0,190.0,332.0,191.0,324.0,191.5,316.0,192.5,308.0,193.5,300.0,193.5,291.5,194.0,282.5,194.5,274.0,195.0,266.0,195.0,257.5,196.0,250.0,196.5,243.0,197.0,235.5,197.5,227.5,198.5,219.5,199.0,212.5,200.0,205.0,201.0,197.0,201.5,189.5,202.5,181.5,202.5,173.5,203.5,165.5,204.0,157.0,204.0,148.5,204.0,140.0,203.5,131.5,204.0,123.0,204.0,114.5,204.5,106.5,204.5,98.0,204.5" stroke="black" stroke-width="2" fill="none" />
<path d="M99.0,197.5,107.0,197.0,114.5,196.0,122.5,195.5,131.0,195.5,139.0,195.5,147.0,195.5,155.5,195.5,163.5,195.5,172.5,195.0,181.0,194.5,188.5,194.0,196.5,193.0,204.0,192.0,211.5,191.0,219.0,191.0,227.0,190.0,235.5,189.5,243.5,188.5,251.0,188.0,259.5,187.5,267.0,187.0,274.5,186.5,282.5,186.5,290.5,186.5,298.5,186.0,307.0,185.0,315.5,184.5,324.0,184.0,332.5,183.5,340.0,183.0,348.5,182.5,357.0,182.0,365.0,181.0,373.0,180.5,380.5,180.5,389.0,179.5,396.5,179.0,404.5,179.0" stroke="black" stroke-width="2" fill="none" />
<path d="M428.0,229.5,436.0,234.0" stroke="black" stroke-width="2" fill="none" />
<path d="M324.0,162.0,316.5,161.0,308.5,163.0,300.5,162.5,292.5,162.0,284.5,160.5,276.5,160.0,268.5,159.0" stroke="black" stroke-width="2" fill="none" />
<path d="M243.5,161.5,235.5,169.5" stroke="black" stroke-width="2" fill="none" />
<path d="M228.0,169.5,236.5,162.0" stroke="black" stroke-width="2" fill="none" />
<path d="M238.5,159.5,238.5,167.5" stroke="black" stroke-width="2" fill="none" />
<path d="M235.0,167.5,227.5,168.0,219.5,168.5,211.5,169.0" stroke="black" stroke-width="2" fill="none" />
<path d="M212.0,171.5,220.5,164.0" stroke="black" stroke-width="2" fill="none" />
<path d="M221.5,170.5,230.5,163.0" stroke="black" stroke-width="2" fill="none" />
<path d="M243.0,172.0,251.0,171.5,259.0,172.5,267.0,173.5,275.0,174.0,282.5,175.5,290.0,175.5,298.0,176.5" stroke="black" stroke-width="2" fill="none" />
<path d="M300.5,101.0,308.5,100.0" stroke="black" stroke-width="2" fill="none" />
<path d="M308.5,93.5,301.0,94.0" stroke="black" stroke-width="2" fill="none" />
<path d="M300.5,85.0,308.0,85.0" stroke="black" stroke-width="2" fill="none" />
<path d="M306.5,77.0,298.5,77.0" stroke="black" stroke-width="2" fill="none" />
<path d="M298.0,69.5,306.0,69.0" stroke="black" stroke-width="2" fill="none" />
<path d="M299.5,61.5,291.0,62.0" stroke="black" stroke-width="2" fill="none" />
<path d="M292.0,60.0,300.0,53.0" stroke="black" stroke-width="2" fill="none" />
<path d="M293.5,45.5,285.5,46.0,277.5,46.5" stroke="black" stroke-width="2" fill="none" />
<path d="M276.5,44.0,264.5,52.0,257.5,59.5,252.0,67.5,247.0,75.5,243.0,83.5,243.0,85.5,244.0,94.0,249.0,86.0,254.0,72.0,262.0,59.0,269.0,54.0" stroke="black" stroke-width="2" fill="none" />
<path d="M268.5,55.0,277.0,54.0,284.5,53.0,292.5,52.5,300.5,52.0" stroke="black" stroke-width="2" fill="none" />
<path d="M288.5,56.0,280.5,52.5,272.5,56.0,264.5,64.5,256.5,73.5,251.0,88.0,243.0,93.0,248.0,91.5,254.5,83.5,257.5,75.5,262.5,67.5,268.0,59.5,280.0,51.5" stroke="black" stroke-width="2" fill="none" />
<path d="M284.0,53.0,291.0,60.5,294.0,68.5,296.0,76.5,298.5,85.0,299.5,93.0,299.5,101.5,300.5,110.0,300.5,118.0,301.0,126.0,300.5,134.0,301.0,142.0,299.5,150.0,298.5,158.0" stroke="black" stroke-width="2" fill="none" />
<path d="M260.0,154.5,252.5,154.0,244.5,154.5,236.5,155.5,228.5,156.0,220.5,157.0,212.0,157.0" stroke="black" stroke-width="2" fill="none" />
<path d="M212.0,164.0,203.5,171.5" stroke="black" stroke-width="2" fill="none" />
<path d="M203.5,164.0,196.0,171.5" stroke="black" stroke-width="2" fill="none" />
<path d="M195.5,164.0,187.5,171.5" stroke="black" stroke-width="2" fill="none" />
<path d="M187.5,174.5,195.5,173.5,203.0,173.0,211.5,172.0,220.0,171.0,228.5,170.0,236.5,170.0,245.0,170.0" stroke="black" stroke-width="2" fill="none" />
<path d="M259.0,180.0,251.5,180.0,243.5,180.5,235.5,181.5,227.5,182.0,219.5,183.0,211.5,184.0,203.5,184.5,195.5,185.5,187.5,186.5,179.5,187.0,171.5,187.5,163.5,187.0,155.0,187.5,146.0,188.0,138.0,188.5,130.0,188.5,122.0,188.5,114.5,188.5,106.5,189.5,99.0,190.0" stroke="black" stroke-width="2" fill="none" />
<path d="M99.0,186.5,106.5,179.5" stroke="black" stroke-width="2" fill="none" />
<path d="M100.5,175.5,108.5,174.5,117.0,174.5" stroke="black" stroke-width="2" fill="none" />
<path d="M100.0,172.5,108.0,173.0,116.0,174.5,124.5,174.5,132.5,175.5,140.5,176.5,148.5,177.5,156.5,177.5,164.5,179.0,172.5,177.0,180.5,177.0,188.5,178.0,197.0,178.5,205.5,179.5,213.5,180.5,221.0,180.5,229.0,181.5,237.0,182.5,245.0,183.5,252.5,185.0,260.5,185.5,268.5,186.0,276.5,187.0,284.5,188.0,292.5,190.5,301.0,188.5,309.0,186.5,317.0,185.0,325.0,183.5,333.5,181.5,341.5,179.5,349.5,177.5,357.5,175.5,365.0,174.0,373.0,171.5,381.5,170.0,389.0,168.0,397.0,166.0,405.0,164.0,406.0,171.0,405.0,179.5,405.0,187.0,404.0,195.0,403.0,203.5,402.5,211.5,401.5,219.0,400.5,227.0,401.0,234.5,400.0,242.5,400.0,250.5,399.0,258.5,398.0,266.5,398.0,274.0,397.0,282.0,395.5,289.5,395.5,297.5,395.0,306.0,394.0,314.5,390.5,322.5,377.5,330.0,364.5,338.0,354.5,346.0,354.5,354.5,356.5,366.5,355.5,374.5,355.0,382.5,355.0,390.5,354.0,398.5,353.5,406.5,352.5,414.5,353.0,422.5,351.5,430.5,351.5,438.5,352.0,446.5,351.5,454.5,351.5,462.0,350.5,470.5,350.5,478.5,349.5,486.5,349.5,494.5,348.5,502.5,348.5,510.5,348.5,518.5,347.0,526.5,347.0,535.0,346.0,543.0,346.0,551.0,345.5,559.0,344.5,566.5,344.5,574.5,343.5,582.0,343.5,590.0,343.5,598.5" stroke="black" stroke-width="2" fill="none" />
<path d="M286.0,629.5,286.0,621.5,286.0,613.5,285.5,605.0,285.5,597.0,285.5,589.0,286.0,581.0,286.0,573.5,286.0,566.0,286.0,558.5,285.5,550.0,286.0,542.0,286.0,534.0,287.0,525.5,287.0,517.5,287.0,510.0,287.0,502.0,286.5,494.5,286.5,486.5,286.5,478.5,288.0,470.5,288.0,463.0,287.5,454.5,287.5,447.0,287.5,439.0,286.5,431.0,287.5,423.0,288.0,415.5,288.5,407.5,288.0,399.0,288.5,391.0,289.5,383.0,289.5,374.5,289.5,366.0,289.5,357.5,289.5,349.0,289.5,341.5,289.5,333.5,289.5,326.0,291.0,318.5,291.0,310.5,291.0,302.0,291.0,294.0,291.0,286.0,292.0,278.0,292.0,270.5,291.5,262.5,291.5,254.5,291.5,246.5,293.0,239.0,293.0,231.0,293.0,223.0,292.5,214.5,292.5,206.5,292.5,198.0,290.5,190.0,284.0,191.5,275.5,190.0,267.0,189.5,258.5,188.5,250.5,187.5,242.5,187.5,234.5,186.5,227.0,185.5,219.5,185.0,212.0,184.5,204.0,183.5,196.5,182.0,189.0,181.0,181.0,180.0,173.0,180.0" stroke="black" stroke-width="2" fill="none" />
<path d="M187.5,177.0,180.0,177.5,172.0,177.5,164.0,177.5,156.5,178.0,148.5,178.5,140.5,178.5,132.5,179.5,124.0,180.0,115.5,180.0,107.5,180.0,99.0,180.5" stroke="black" stroke-width="2" fill="none" />
<path d="M95.5,173.0,95.5,181.0,96.0,188.5,97.0,196.0,98.0,204.0,99.0,211.5,99.0,219.5,99.5,227.5,100.5,235.5,100.0,243.0,101.0,251.0,102.5,259.5,103.5,267.5,103.5,275.5,104.5,283.5,105.0,291.5,105.0,300.0,105.5,308.0,106.0,316.0,107.0,324.0,106.5,332.0,107.5,340.0,109.0,348.5,109.0,356.5,110.5,364.5,112.0,372.5,113.0,380.5,113.5,388.5,113.5,396.5,114.5,404.5,115.5,413.0,115.5,421.0,117.0,429.0,117.0,437.0,119.5,449.5,120.5,457.5,121.5,465.5,122.0,473.5,123.0,481.5,123.5,489.0,124.5,497.0,125.0,505.0,126.0,513.0,127.5,521.0,127.5,529.5,128.5,537.5,129.0,545.5,130.5,553.0,130.5,560.5,141.5,568.0,158.5,576.0,175.0,584.0,192.0,592.5,209.0,600.5,225.5,608.5,242.0,616.5,260.0,625.0,277.0,633.5" stroke="black" stroke-width="2" fill="none" />
<path d="M91.0,639.5,91.0,636.5,83.5,636.5" stroke="black" stroke-width="2" fill="none" />
<path d="M115.5,442.0,107.5,441.5,99.5,440.5,92.0,440.5,84.5,440.5,76.5,441.0,68.0,439.5,60.0,439.5,52.0,439.0,44.0,439.0,35.5,439.0,27.5,438.5,19.5,438.5,11.5,438.0,3.0,438.0" stroke="black" stroke-width="2" fill="none" />
<path d="M2.0,436.5,9.5,435.0,17.5,435.0,25.5,435.5,34.0,435.5,42.0,437.0,50.0,437.5,58.5,437.5,66.5,437.5,74.5,438.5,82.5,436.5,90.5,439.5,98.5,439.5,106.0,439.0,114.0,439.0" stroke="black" stroke-width="2" fill="none" />
<path d="M42.0,442.0,34.0,442.0,25.5,440.5,17.5,441.5,9.0,440.0,1.0,440.0" stroke="black" stroke-width="2" fill="none" />
<path d="M72.5,295.5,68.5,287.0,62.5,281.0,60.5,280.0,59.0,271.0,58.0,263.0,56.5,255.5,55.5,247.5,55.5,239.5,54.0,231.0,53.0,223.0,52.5,215.5,55.0,207.5" stroke="black" stroke-width="2" fill="none" />
<path d="M93.0,173.5,101.0,168.5,109.5,167.5,117.5,166.5,126.0,166.0,134.5,165.0,142.5,164.0,150.5,161.5,158.5,160.0,166.0,159.5,174.0,158.0,182.0,157.5,189.5,156.5,197.5,156.0,206.0,155.0,214.5,153.0,222.0,152.5,229.5,151.5,237.5,151.5,245.5,152.5,253.5,152.5,261.5,153.5,270.0,153.0,278.0,154.0,286.5,154.0,294.5,154.5" stroke="black" stroke-width="2" fill="none" />
<path d="M261.5,77.5,253.5,78.0" stroke="black" stroke-width="2" fill="none" />
<path d="M260.5,62.5,268.5,61.5" stroke="black" stroke-width="2" fill="none" />
<path d="M267.5,59.0,275.5,52.0" stroke="black" stroke-width="2" fill="none" />
<path d="M275.5,48.5,267.0,56.5,262.0,58.5,257.5,67.0,252.5,74.0,255.5,77.0,250.0,85.0,248.0,74.0,256.0,62.0,264.0,53.0,271.5,46.0,279.5,44.0,287.5,44.5,295.5,52.0,303.5,69.5" stroke="black" stroke-width="2" fill="none" />
<path d="M289.5,44.0,297.5,52.0,301.5,60.0,304.5,68.5,305.5,77.0,308.0,85.0,308.5,93.5,308.5,101.5,306.0,109.5,306.0,118.0,307.0,126.0,305.0,134.5,307.0,143.5,307.0,151.5" stroke="black" stroke-width="2" fill="none" />
<path d="M304.0,174.0,295.5,173.0,287.5,172.5,279.5,172.0,271.0,170.5,263.0,170.0,254.5,169.0,246.5,168.5,235.5,171.5,227.5,174.5,219.5,175.0,212.0,174.0,203.5,173.5,195.5,173.0,187.5,172.0,180.0,172.5,172.0,171.5,164.5,172.0,156.5,171.0" stroke="black" stroke-width="2" fill="none" />
<path d="M72.5,166.0,71.5,158.0" stroke="black" stroke-width="2" fill="none" />
<path d="M44.0,124.5,40.0,117.5,39.5,110.0,39.5,102.0,37.5,94.0,38.0,86.5,39.5,78.5,43.5,70.0,43.0,62.5,42.0,54.5,41.0,46.5,40.0,38.0,39.5,30.0,38.5,22.0" stroke="black" stroke-width="2" fill="none" />
<path d="M34.0,27.0,36.5,26.0,39.5,18.0,38.5,10.5,37.5,2.5" stroke="black" stroke-width="2" fill="none" />
</svg>