<svg xmlns="http://www.w3.org/2000/svg" version="1.1"><path d="M193.0,27.5,168.0,35.5,145.0,43.5,124.0,52.0,125.5,56.0,133.5,56.0,141.0,57.0,148.0,57.0,155.5,58.5,163.5,58.5,171.5,60.0,179.5,60.5,187.5,60.0,195.5,59.5,203.5,60.0,212.0,60.0,220.0,60.5,228.0,60.5,236.0,61.5,244.5,61.5,252.5,63.0,260.5,62.5,268.5,63.5,276.5,63.5,284.0,64.5,292.0,64.0,300.0,64.5,308.5,65.5,316.5,66.0,324.0,67.0,332.0,67.5,340.0,68.5,348.0,68.0,356.0,69.0,364.0,69.0,372.0,70.5,380.0,71.0,388.0,72.0,396.0,72.0,404.0,73.0,412.0,73.0,420.0,74.0,428.0,74.0,435.5,75.0,443.5,76.0,452.0,76.5" stroke="black" stroke-width="2" fill="none" />
<path d="M460.0,64.5,452.0,65.0,444.5,65.5,436.5,66.0,428.5,66.0,420.5,66.5,412.0,67.0,403.5,67.5,396.0,68.0,388.0,68.5,380.0,68.5,372.0,68.5,364.0,69.0,356.0,69.5,348.5,70.5,340.5,71.5,332.5,72.0,324.5,73.0,317.0,74.0,309.0,74.5,300.5,75.0,292.5,75.5,284.0,76.0,276.0,76.5,268.5,77.0,260.5,77.5,252.5,78.0,244.5,78.0,236.0,78.5,227.5,78.5,219.5,79.0,211.5,79.0,203.0,79.5,195.5,80.5,187.5,82.0,179.5,82.5,171.0,83.5,163.5,84.0,155.0,85.0,147.5,86.0,140.0,86.5,132.0,87.5,124.0,88.5" stroke="black" stroke-width="2" fill="none" />
<path d="M122.5,91.0,116.5,99.0,110.5,106.5,105.0,114.5,98.0,122.5,92.0,130.5,85.0,138.5,78.0,148.0,72.0,156.0,65.0,164.0,59.0,172.0,53.0,180.0,47.0,188.0" stroke="black" stroke-width="2" fill="none" />
<path d="M46.0,187.5,54.0,193.0,62.0,193.5,70.5,193.5,78.5,194.5,86.5,195.5,94.5,199.5,102.5,204.5,110.5,207.0,118.5,208.0,126.5,207.0,134.5,207.0,143.0,206.5,151.5,207.5,159.5,207.5,167.0,208.5,175.0,209.5,184.0,211.5" stroke="black" stroke-width="2" fill="none" />
<path d="M188.5,202.0,196.0,194.5,204.0,187.5,212.0,180.0,220.0,172.0,228.0,164.0,235.5,156.0,243.0,148.5,251.0,141.5,258.5,134.0,266.0,127.5,273.5,120.5,281.5,113.5,289.5,105.5,297.5,98.0,305.5,90.0,314.0,83.0,322.0,75.5" stroke="black" stroke-width="2" fill="none" />
<path d="M316.5,76.0,308.0,83.5,300.0,91.0,291.5,98.0,283.5,105.0,276.0,112.5,267.5,120.0,259.5,128.0,251.5,135.5,243.0,143.0,235.0,151.0,227.5,158.0,219.5,165.5,211.5,173.5,203.0,181.0,194.5,188.0,187.0,195.0,179.5,202.5" stroke="black" stroke-width="2" fill="none" />
<path d="M172.5,202.5,180.5,195.5,188.5,188.5,196.5,181.0,204.5,174.0,213.0,167.0,221.0,159.0,229.0,151.5,237.0,144.5,244.5,137.5,252.0,130.0,260.0,122.0,268.5,114.5,276.0,106.5,284.0,98.5,292.5,90.5,300.5,82.0,309.0,74.5" stroke="black" stroke-width="2" fill="none" />
<path d="M301.5,74.5,293.0,82.5,285.0,90.0,277.0,97.5,269.5,105.0,261.0,112.5,253.0,120.5,245.0,129.0,237.0,137.0,229.0,144.5,221.0,152.0,213.0,159.5,204.0,167.0,196.0,174.0,188.0,181.0,179.5,188.0,171.5,195.0" stroke="black" stroke-width="2" fill="none" />
<path d="M171.5,200.0,180.0,200.0,188.0,199.5,196.0,199.0,204.0,199.0,211.5,198.0,219.5,198.0,226.5,197.5,234.0,197.0,241.5,197.0,249.0,196.5,257.5,196.0,265.5,196.0,274.0,196.0,283.0,195.5,291.5,195.0,299.0,194.5,306.5,194.0,314.5,193.5,322.5,193.0,331.0,192.5,338.5,192.5,347.0,192.0,355.5,191.0,364.5,190.0,372.5,189.5,380.5,189.0" stroke="black" stroke-width="2" fill="none" />
<path d="M387.5,196.0,379.5,203.5,372.0,210.5,364.5,218.0" stroke="black" stroke-width="2" fill="none" />
<path d="M371.5,218.0,379.5,210.0" stroke="black" stroke-width="2" fill="none" />
<path d="M372.0,215.0,363.5,215.5,355.0,215.5,347.0,215.5,339.0,216.0,331.0,216.0" stroke="black" stroke-width="2" fill="none" />
<path d="M307.5,211.0,315.5,203.5,323.0,196.0,331.0,189.5,338.5,182.0,347.0,175.0,355.0,167.5,363.0,160.0,371.0,152.5,379.0,145.0,386.5,138.0,394.5,130.5,402.5,123.0,411.5,116.0,420.0,108.5,427.5,101.0,436.0,93.0" stroke="black" stroke-width="2" fill="none" />
<path d="M436.0,96.5,427.5,97.5,419.5,98.0,412.0,98.5,404.5,99.0,396.5,99.0,389.0,99.5,380.5,100.5,373.0,100.5,365.0,101.0,357.0,102.0,348.5,102.5,340.0,103.0,332.5,103.5,324.0,104.0,315.5,104.5,307.0,105.0,298.5,106.0,290.5,106.5,282.5,106.5,274.5,106.5,267.0,107.0,259.5,107.5,251.0,108.0,243.5,108.5,235.5,109.5,227.0,110.0,219.0,111.0,211.5,111.0,204.0,112.0,196.5,113.0,188.5,114.0,181.0,114.5,172.5,115.0,163.5,115.5,155.5,115.5,147.0,115.5,139.0,115.5,131.0,115.5,122.5,115.5,114.5,116.0,107.0,117.0,99.0,117.5" stroke="black" stroke-width="2" fill="none" />
<path d="M99.5,121.0,107.0,113.5,114.5,105.5,122.5,97.5,130.5,89.5" stroke="black" stroke-width="2" fill="none" />
<path d="M131.5,93.0,139.5,95.5,147.5,97.0,155.5,98.0,163.5,98.0,171.5,99.0,179.0,100.0,187.0,100.0,195.0,101.0" stroke="black" stroke-width="2" fill="none" />
<path d="M189.0,98.0,196.5,90.5,204.5,83.5,212.5,76.0,220.5,68.5" stroke="black" stroke-width="2" fill="none" />
<path d="M229.5,69.5,221.0,77.0,213.0,83.5,204.5,90.5,196.0,97.5,187.5,104.5,179.5,112.0,172.0,119.0,164.0,126.5,156.0,134.0,148.0,141.5,140.0,149.0,131.5,156.5,123.5,164.0,115.0,171.5,106.5,179.5,99.0,187.5" stroke="black" stroke-width="2" fill="none" />
<path d="M108.5,197.0,116.5,189.0,123.5,181.5,131.0,174.0,139.0,166.5,147.0,158.5,155.5,151.0,163.0,143.5,170.5,136.0,178.5,128.0,186.0,120.5,194.0,113.5,202.0,105.5,210.0,98.0,218.5,90.5,226.5,83.5,234.5,76.0" stroke="black" stroke-width="2" fill="none" />
<path d="M236.0,68.5,228.0,76.0,220.0,83.5,212.0,91.0,203.5,98.5,195.5,106.0,187.0,113.0,179.0,119.5,171.0,126.5,163.5,133.0,155.5,140.0,147.5,148.0,140.0,156.0,132.5,164.0,124.5,172.5,117.0,180.0,109.0,188.0,101.5,196.0" stroke="black" stroke-width="2" fill="none" />
<path d="M92.0,188.0,100.0,180.0,108.0,172.5,116.0,165.0,124.0,157.5,132.0,150.0,140.5,142.5,148.5,135.5,156.5,128.5,165.0,121.5,173.0,114.5,181.5,107.0" stroke="black" stroke-width="2" fill="none" />
<path d="M173.0,101.0,164.5,108.0,156.5,115.5,148.0,122.5,140.5,130.0,133.0,137.5,125.0,144.5,117.0,152.0,109.0,159.5,101.0,167.0,93.0,175.0,84.5,182.5,76.5,189.0" stroke="black" stroke-width="2" fill="none" />
<path d="M83.0,187.5,91.0,180.0,99.5,172.5,108.0,164.5,116.0,157.0,124.5,149.0,133.0,141.5,141.0,134.0,149.0,127.5,157.0,120.5,165.0,113.5,173.0,106.0,180.5,99.0,187.5,91.0,195.0,83.5,203.0,75.5,211.0,68.0" stroke="black" stroke-width="2" fill="none" />
<path d="M203.0,67.0,195.0,74.5,187.0,82.5,179.0,90.5" stroke="black" stroke-width="2" fill="none" />
<path d="M173.0,69.5,165.0,77.0,156.5,84.5,148.0,91.5" stroke="black" stroke-width="2" fill="none" />
<path d="M147.0,100.5,139.5,108.0,132.0,115.0,124.0,122.0,116.5,129.0,108.5,136.5,101.0,143.5,92.5,151.5,84.5,159.0,77.0,166.0,69.5,173.5,61.0,181.5" stroke="black" stroke-width="2" fill="none" />
<path d="M69.0,188.5,77.0,181.5,85.0,174.0,93.0,165.5,101.0,157.5,108.5,149.5,116.0,142.0,124.5,134.5,132.5,127.0,140.5,120.0,148.0,113.0,155.5,105.5,163.5,98.0,171.5,91.0,179.0,84.0,187.0,76.5,195.0,69.5" stroke="black" stroke-width="2" fill="none" />
<path d="M189.5,68.5,181.0,76.0,173.0,83.0,164.5,90.0,156.0,97.5,147.5,104.5,139.0,112.5,131.5,120.0,123.5,127.5,115.5,135.5,107.0,143.0,99.0,150.0,91.0,157.5,82.5,165.0,74.0,173.0,66.0,181.0,58.5,188.5" stroke="black" stroke-width="2" fill="none" />
<path d="M52.0,180.5,60.0,173.0,68.0,165.5,76.5,158.5,84.5,151.5,92.5,144.0,100.5,137.0,109.0,130.0,117.0,122.5,124.5,115.0,132.5,107.5,140.0,100.0" stroke="black" stroke-width="2" fill="none" />
<path d="M134.5,98.0,143.0,100.0,150.5,102.0,158.5,102.0,166.5,103.0,174.5,104.0,182.0,104.0,190.0,103.5,198.0,103.5,198.0,111.5" stroke="black" stroke-width="2" fill="none" />
<path d="M209.5,104.0,217.5,103.5" stroke="black" stroke-width="2" fill="none" />
<path d="M227.0,104.0,235.0,105.0,243.0,105.5,251.0,107.0,259.0,107.0,267.0,108.0,275.0,108.0,283.5,109.0,292.0,109.0,300.0,109.5" stroke="black" stroke-width="2" fill="none" />
<path d="M296.0,119.0,295.5,118.5,289.5,115.5,289.5,115.5" stroke="black" stroke-width="2" fill="none" />
<path d="M315.0,115.0,323.0,114.0" stroke="black" stroke-width="2" fill="none" />
<path d="M329.0,114.5,337.0,114.5,345.0,114.5,353.5,115.0,361.5,115.0,370.0,116.0,383.5,117.5,391.5,117.5,399.5,118.0,407.0,120.0" stroke="black" stroke-width="2" fill="none" />
<path d="M419.0,119.5,411.0,120.0,403.0,121.0,395.5,121.5,387.5,121.5,379.5,121.5,372.0,122.0,364.5,123.0,356.5,124.0,349.0,125.0,340.5,125.5,332.5,126.5,324.5,127.0,316.5,127.5,308.5,127.5,300.0,128.0,291.5,129.0,283.5,130.0,275.0,131.0,267.0,131.5,259.0,131.5,250.5,131.5,242.0,132.0,234.0,132.0,226.0,133.0,218.5,133.5,211.0,134.0,202.5,134.0,194.5,134.5,186.5,134.5,178.0,134.5,169.5,134.5,161.5,134.5,153.5,135.0,145.5,136.0,137.0,137.0,129.0,138.0,121.0,139.0,113.5,140.0,105.0,140.0,97.5,140.0,90.0,140.0,83.0,140.0,75.0,141.0" stroke="black" stroke-width="2" fill="none" />
<path d="M66.5,148.0,74.5,147.5,83.0,147.5,91.0,147.0,98.5,146.5,106.5,146.0,115.0,145.5,123.0,145.5,131.5,145.5,139.5,145.0,147.5,144.5,155.5,144.0,163.0,144.0,171.0,144.0,179.0,144.0,187.5,143.5,195.5,143.0,204.5,142.5,213.0,141.5,221.0,141.0,228.5,140.5,236.5,139.5,244.5,139.5,252.0,139.0,259.0,139.0,267.0,139.0,275.0,138.5,283.0,137.5,291.0,136.5,299.0,135.5,307.0,135.0,315.0,134.5,323.0,134.5,331.5,134.0,340.5,134.0,349.0,133.0,357.0,132.5,365.0,131.5,373.0,130.5,381.0,129.0,389.0,128.5,396.5,128.0,404.0,128.0,412.0,127.5,419.5,127.5" stroke="black" stroke-width="2" fill="none" />
<path d="M419.0,132.0,411.5,139.0,403.5,146.5,395.5,154.5,387.0,162.0,378.5,169.0,371.0,176.0,363.5,183.5,355.5,190.5,347.5,198.0,339.5,206.0,331.5,213.0" stroke="black" stroke-width="2" fill="none" />
<path d="M324.0,214.0,332.0,206.5,340.5,199.0,348.0,191.0,356.0,183.5,364.0,176.0,372.5,169.0,380.5,161.5,388.5,154.0,396.0,147.0,404.0,139.5,412.0,132.5,420.0,124.5,428.0,117.0" stroke="black" stroke-width="2" fill="none" />
<path d="M421.0,116.5,413.0,124.0,405.0,132.0,396.5,139.0,388.5,146.0,380.5,153.5,372.5,160.5,364.5,167.5,356.0,174.0,347.5,181.5,339.0,189.0,331.0,196.5,323.0,204.0,315.5,212.0" stroke="black" stroke-width="2" fill="none" />
<path d="M340.0,213.0,348.0,205.5,356.5,198.5,364.5,191.0,372.5,183.5,380.5,176.0,388.5,169.0,396.5,162.0,404.0,155.0,412.0,148.0" stroke="black" stroke-width="2" fill="none" />
<path d="M406.0,166.0,397.5,173.0,389.0,180.0,380.5,187.0,372.0,194.5,363.5,201.5,355.5,208.5,347.0,215.0" stroke="black" stroke-width="2" fill="none" />
<path d="M346.0,224.0,354.0,216.0,362.0,208.0,370.0,200.5,378.0,193.0,386.5,185.0,394.5,177.5" stroke="black" stroke-width="2" fill="none" />
<path d="M428.0,212.0,436.0,212.0,444.0,211.5,452.0,211.5" stroke="black" stroke-width="2" fill="none" />
<path d="M458.0,197.0,450.0,197.0,441.5,198.0" stroke="black" stroke-width="2" fill="none" />
<path d="M443.5,189.5,451.0,189.0,458.5,188.5" stroke="black" stroke-width="2" fill="none" />
<path d="M461.0,190.0,456.0,198.5,449.0,206.5,442.0,215.0,434.5,222.5,428.5,231.0,422.0,239.0,415.0,247.0,408.5,255.0,403.0,263.0,396.0,271.0,389.0,279.5,384.0,287.0,379.0,291.0,388.5,281.0,396.0,270.5,404.0,260.5,411.5,251.0,419.0,242.0,427.0,232.5,435.0,222.5,443.0,213.5,451.0,204.0,459.0,193.5" stroke="black" stroke-width="2" fill="none" />
<path d="M464.5,191.0,471.5,199.0,466.5,207.0,460.0,215.5,453.0,223.5,447.5,232.0,441.5,240.0,434.5,248.0,428.5,256.0,422.5,264.0,415.5,272.0,409.5,280.0,403.5,287.5,397.5,295.5,391.5,303.5" stroke="black" stroke-width="2" fill="none" />
<path d="M386.5,292.5,378.5,292.5" stroke="black" stroke-width="2" fill="none" />
<path d="M386.5,269.0,394.5,268.5,402.5,268.0" stroke="black" stroke-width="2" fill="none" />
<path d="M394.5,263.0,402.5,262.5,410.5,261.5" stroke="black" stroke-width="2" fill="none" />
<path d="M402.0,246.5,410.0,246.0,419.0,245.5" stroke="black" stroke-width="2" fill="none" />
<path d="M411.5,238.5,419.5,237.5,427.0,237.0" stroke="black" stroke-width="2" fill="none" />
<path d="M427.0,222.0,435.5,221.5,443.0,220.5" stroke="black" stroke-width="2" fill="none" />
<path d="M435.5,205.0,443.5,204.5,451.5,204.0,459.0,203.5" stroke="black" stroke-width="2" fill="none" />
<path d="M451.5,181.5,443.0,182.0" stroke="black" stroke-width="2" fill="none" />
<path d="M444.5,173.5,452.0,173.5" stroke="black" stroke-width="2" fill="none" />
<path d="M453.5,166.0,445.5,166.5" stroke="black" stroke-width="2" fill="none" />
<path d="M444.5,159.0,453.0,158.0" stroke="black" stroke-width="2" fill="none" />
<path d="M450.0,150.0,442.0,150.0" stroke="black" stroke-width="2" fill="none" />
<path d="M436.0,141.0,444.5,141.0,452.5,140.0" stroke="black" stroke-width="2" fill="none" />
<path d="M452.5,133.5,444.5,134.5" stroke="black" stroke-width="2" fill="none" />
<path d="M446.5,135.0,438.5,138.0" stroke="black" stroke-width="2" fill="none" />
<path d="M445.5,126.0,453.5,125.5" stroke="black" stroke-width="2" fill="none" />
<path d="M452.5,116.5,445.0,117.0" stroke="black" stroke-width="2" fill="none" />
<path d="M441.0,109.5,449.5,109.0" stroke="black" stroke-width="2" fill="none" />
<path d="M448.0,105.0,449.0,112.5,449.0,120.5,448.0,128.5,447.5,137.0,446.5,145.0,447.5,153.5,448.5,162.0,451.5,170.0,452.0,178.0,450.5,186.0,449.0,194.0,444.5,202.0,438.5,206.0" stroke="black" stroke-width="2" fill="none" />
<path d="M435.5,229.0,427.0,229.5,418.5,230.5,410.5,231.0" stroke="black" stroke-width="2" fill="none" />
<path d="M405.5,234.5,413.5,223.5,421.5,219.0,430.0,207.0,441.0,204.5" stroke="black" stroke-width="2" fill="none" />
<path d="M418.5,252.0,410.0,253.0,401.0,253.5,393.0,254.0" stroke="black" stroke-width="2" fill="none" />
<path d="M387.5,269.5,380.0,269.5,372.0,270.0,364.5,270.0,356.5,271.0,348.0,271.5,340.0,272.5,332.0,273.0,324.0,274.0,315.5,274.5,308.0,275.5,300.5,276.5,293.0,277.0,285.0,277.5,276.5,278.0,268.5,278.0,260.5,278.0,252.0,278.5,244.0,279.0,235.5,279.5,227.0,279.0,218.5,279.0,210.5,279.5,202.5,280.0,194.5,280.0,187.0,281.0,179.0,281.5,171.0,282.0,162.5,282.5,155.0,283.0,147.0,284.5,139.5,285.5,132.0,286.0,124.0,287.5" stroke="black" stroke-width="2" fill="none" />
<path d="M115.0,282.0,123.5,274.0" stroke="black" stroke-width="2" fill="none" />
<path d="M137.0,283.5,145.5,283.0,153.5,285.0,161.5,287.5,169.0,289.5,177.0,290.5,185.0,292.0,192.5,292.0,200.5,292.5,208.0,291.5,215.5,291.5,223.5,292.5,231.5,293.5,242.5,294.0" stroke="black" stroke-width="2" fill="none" />
<path d="M236.0,292.0,228.5,299.5" stroke="black" stroke-width="2" fill="none" />
<path d="M228.0,293.5,220.0,301.0" stroke="black" stroke-width="2" fill="none" />
<path d="M237.0,303.5,244.5,303.0,252.5,302.0,260.0,301.0,267.5,300.0,275.0,300.0,283.0,299.0,291.5,298.5,299.5,297.5,307.0,297.0,315.5,296.5,323.0,296.0,330.5,295.5,338.5,295.5,346.5,295.5,354.5,295.0,363.0,294.0,371.5,293.5,380.0,293.0,388.5,292.5,396.0,292.0" stroke="black" stroke-width="2" fill="none" />
<path d="M387.5,305.0,379.5,305.5,371.5,306.0,364.0,306.5,356.0,307.0,347.5,308.0,339.0,308.5,330.5,309.0" stroke="black" stroke-width="2" fill="none" />
<path d="M334.0,305.0,352.0,313.0,356.5,315.5,364.5,314.5,365.0,312.0,373.0,310.0,381.0,309.0" stroke="black" stroke-width="2" fill="none" />
<path d="M356.0,307.0,348.5,315.0" stroke="black" stroke-width="2" fill="none" />
<path d="M345.5,314.0,337.0,311.0,329.0,308.5,321.0,306.5,312.5,305.0,305.0,305.0,297.0,304.5,288.5,306.5,280.5,306.5,277.5,304.5,269.5,305.5,261.5,306.0,253.0,304.5,243.0,301.0,235.0,303.0,223.0,298.0,215.0,298.5,207.0,298.5,199.5,298.5,192.0,299.0,184.0,298.0,175.5,296.5,167.0,295.5,159.0,293.0,151.0,289.5,143.0,286.5,135.0,285.5,127.5,286.5,119.5,290.5,111.5,289.0,103.5,288.5,95.5,287.5,87.0,285.5,79.0,282.5,70.5,279.0,62.5,277.0,54.5,277.5,47.0,276.5,39.0,276.5,31.5,276.5" stroke="black" stroke-width="2" fill="none" />
<path d="M34.0,271.0,42.0,270.5,50.5,270.0,59.0,269.5,67.0,268.5,75.0,268.5,83.5,268.0,92.5,268.0,101.0,267.5,109.5,267.0,117.5,266.5,125.5,265.5,133.5,265.0,141.5,264.0,149.0,263.0,156.5,262.5,164.5,261.0,172.0,260.5,180.0,259.5,187.5,258.5,196.0,258.0,204.0,258.0,212.0,257.5,220.0,257.5,229.0,257.5,237.5,257.5,245.5,257.5,253.0,257.0,261.0,257.0,269.0,256.5,277.0,256.0,285.0,255.5,292.5,255.0,299.5,254.5,307.0,254.0,314.5,253.0,322.5,253.0,330.5,252.5,338.5,252.0,346.5,251.5,354.0,250.5,362.0,250.0,370.0,250.0,378.0,249.5" stroke="black" stroke-width="2" fill="none" />
<path d="M379.5,240.5,371.5,240.5,364.0,240.5,356.0,241.0,348.5,241.0,340.5,242.0,332.0,242.5,324.0,243.5,316.0,244.0,308.0,245.0,299.5,245.5,292.0,246.5,284.5,247.5,277.0,248.0,269.0,248.5,260.5,249.0,252.5,249.0,244.5,249.0,236.0,249.5,228.0,250.0,219.5,250.5,211.0,250.0,202.5,250.0,194.5,250.5,186.5,251.0,178.5,251.0,171.0,252.0,163.0,252.5,155.0,253.0,146.5,253.5,139.0,254.0,131.0,255.5,123.5,256.5,116.0,257.0,108.0,258.5,100.5,259.0,92.5,259.5,84.5,260.0,76.5,260.5,69.0,261.0,60.5,261.5,53.0,262.0,45.0,262.5,36.0,262.5,28.0,262.5" stroke="black" stroke-width="2" fill="none" />
<path d="M20.5,258.0,28.5,263.0,36.0,268.0,44.0,267.5,51.5,268.0,60.0,268.0,67.5,268.0,75.5,270.5,83.5,273.5,91.5,275.0,100.0,277.5,107.5,278.0,116.0,279.5,124.0,280.5,132.0,279.5,132.5,277.0,140.5,275.0,149.0,276.5,157.0,280.0,165.0,282.0,173.5,284.0,181.0,285.0,189.0,286.5,197.0,286.5,205.0,287.5,213.0,288.0,220.5,286.5,229.0,287.5,239.0,291.0,248.0,296.0,256.0,300.0,264.0,301.0,272.5,301.0,280.0,302.0,288.0,302.0,296.0,302.0,304.0,301.5,312.5,301.5,320.5,303.0,328.5,304.5,336.5,306.5,344.5,309.5,352.0,312.0,357.0,303.0,360.5,305.5,368.0,305.5" stroke="black" stroke-width="2" fill="none" />
<path d="M364.0,282.0,355.0,282.5,347.0,282.5,339.0,282.5,331.0,283.0,322.5,283.5,314.5,284.0,306.5,285.0,298.5,285.5,290.0,286.0,282.5,287.0,275.5,287.5,268.0,287.5,260.5,287.5,253.0,288.0,244.5,288.5,236.0,289.5,227.5,290.5,219.5,291.0,212.0,291.5,204.5,292.0,196.5,292.0,188.5,292.0,180.5,292.5,172.5,293.0" stroke="black" stroke-width="2" fill="none" />
<path d="M186.5,268.5,195.0,260.5" stroke="black" stroke-width="2" fill="none" />
<path d="M192.5,259.0,200.5,257.5" stroke="black" stroke-width="2" fill="none" />
<path d="M201.5,259.5,194.0,267.0" stroke="black" stroke-width="2" fill="none" />
<path d="M179.5,266.5,187.5,259.5,195.5,252.0" stroke="black" stroke-width="2" fill="none" />
<path d="M188.0,252.0,180.5,259.5,172.5,267.5" stroke="black" stroke-width="2" fill="none" />
<path d="M163.5,267.5,172.5,260.0,181.0,252.5,189.0,245.0" stroke="black" stroke-width="2" fill="none" />
<path d="M181.5,238.5,173.5,241.5" stroke="black" stroke-width="2" fill="none" />
<path d="M179.5,237.0,184.5,245.0,188.5,244.5,196.5,244.5,204.5,249.5,212.5,253.5,220.5,251.5,229.0,247.5,237.0,253.0" stroke="black" stroke-width="2" fill="none" />
<path d="M227.5,248.0,218.5,255.5" stroke="black" stroke-width="2" fill="none" />
<path d="M215.5,260.0,209.0,252.5" stroke="black" stroke-width="2" fill="none" />
<path d="M211.5,277.0,203.0,277.0,195.0,277.0,186.5,276.0,179.5,274.5,171.5,273.5,164.0,271.5,153.0,266.5,145.0,265.5,137.0,265.5,129.0,264.0,121.0,264.0,113.0,264.0,104.5,263.5,96.5,261.5" stroke="black" stroke-width="2" fill="none" />
<path d="M84.5,279.5,92.5,278.5,101.0,278.5,109.5,278.0,117.5,277.0,125.5,276.5,133.5,275.5,141.5,274.5,149.0,273.5,157.0,272.0,165.0,271.5,173.5,271.0,181.5,271.0,189.0,270.5,197.0,269.5,205.0,269.5,212.5,269.0,221.0,269.0,229.0,269.0,237.5,269.0,245.5,268.5,253.5,268.0,261.5,267.5,270.0,267.0,277.5,267.0,286.0,267.0,293.5,266.5,301.0,266.5,308.5,266.0,316.0,265.0,324.0,264.5,332.0,264.0,339.5,263.0,347.5,262.0,356.0,261.0,363.5,259.5,371.5,258.5,379.0,258.0,387.0,257.0,395.5,256.5" stroke="black" stroke-width="2" fill="none" />
<path d="M409.5,245.0,413.5,237.0,417.5,229.0,414.5,234.5,403.0,246.5,394.0,256.0,390.5,252.0,396.0,252.0,404.5,244.0,407.5,236.0,412.5,228.0,417.5,220.5,428.0,212.5,432.5,204.5,441.0,196.5,442.5,189.0,444.5,181.0,445.5,173.0,444.5,165.0,442.5,156.5,439.5,148.5,439.5,141.0,441.5,133.0,442.0,125.0,443.0,117.5,442.5,109.5,447.5,104.5,439.0,104.0" stroke="black" stroke-width="2" fill="none" />
<path d="M428.0,103.0,419.5,103.0,411.5,103.0,403.5,104.0,395.0,105.5,387.0,106.5,379.0,108.0,371.5,109.0,363.5,109.5,356.0,110.0,348.0,110.5,340.0,111.0,332.0,111.5,324.0,112.0,315.5,112.5,308.0,113.5,300.5,114.0,292.5,115.0,284.5,115.0,276.5,115.5,268.0,115.5,260.0,115.5,252.5,115.5,244.0,116.5,236.0,116.5,227.5,117.0,219.0,118.0,211.0,118.5,203.0,119.0,195.0,119.5,187.0,120.0,179.5,121.0,172.0,121.5,164.0,121.5,156.0,121.5,148.5,122.0,140.5,122.5,132.5,122.5,124.5,123.5,116.0,124.0,107.5,124.0,99.5,124.0,91.0,124.5" stroke="black" stroke-width="2" fill="none" />
<path d="M84.0,133.0,92.0,132.0,99.5,131.5,107.0,131.0,115.5,130.5,123.5,129.5,131.5,129.5,140.0,129.0,148.5,129.0,156.5,128.5,164.5,127.5,173.0,127.5,180.5,127.0,188.0,127.0,196.0,127.0,204.0,126.5,212.0,126.5,220.0,126.5,228.5,126.5,237.0,126.0,244.5,125.0,253.0,124.0,260.5,123.0,268.5,122.5,276.5,122.0,284.5,122.0,293.0,121.0,301.5,120.5,309.5,120.5,317.5,121.0,325.5,120.5,333.0,120.0,341.0,118.5,348.5,117.5,356.0,116.5,363.5,115.5,371.5,115.0,380.0,114.0,388.0,113.5,396.0,113.0,404.0,112.5,412.0,112.0,419.5,111.5,427.5,111.0" stroke="black" stroke-width="2" fill="none" />
<path d="M427.0,107.0,435.5,99.5,443.5,92.0" stroke="black" stroke-width="2" fill="none" />
<path d="M435.0,89.5,427.0,89.5,419.5,90.0,411.0,90.5,402.5,91.0,394.5,91.0,386.0,91.5,378.0,92.5,370.0,92.5,362.0,93.0,354.5,93.5,346.5,94.5,338.5,95.0,330.5,96.0,323.0,96.0,315.0,96.0,306.5,96.5,298.5,97.0,290.5,97.5,283.5,98.0,275.5,98.5,267.5,99.5,259.0,100.0,251.5,100.0,243.5,100.5,235.5,101.5,227.5,102.0,219.5,103.0,211.5,104.0,203.5,104.5,195.5,105.5,187.5,106.5,179.5,107.0,171.5,107.5,163.5,107.0,155.0,107.5,146.0,108.0,138.0,108.5,130.0,108.5,122.0,108.5,114.5,108.5,106.5,109.5,99.0,110.0" stroke="black" stroke-width="2" fill="none" />
<path d="M106.0,100.5,114.5,100.5,122.5,100.5,131.0,100.0,139.5,100.0,148.0,99.5,156.5,100.0,165.0,100.0,173.5,100.0,181.5,99.5,189.5,98.5,197.5,98.5,205.0,97.5,213.0,97.0,220.5,96.0,227.5,95.0,235.5,94.5,243.5,93.5,251.0,93.0,258.0,92.5,265.5,92.0,274.0,91.0,282.0,91.0,290.5,90.5,299.5,90.0,308.0,89.5,316.0,89.5,324.0,88.5,332.0,87.5,340.0,87.0,348.0,86.0,355.5,86.0,364.0,85.5,372.5,85.0,380.5,84.5,389.0,84.0,397.5,84.0,406.0,83.5,414.0,83.0,422.0,83.0,429.5,82.5,437.5,82.0,445.0,81.0,452.5,80.5" stroke="black" stroke-width="2" fill="none" />
<path d="M459.0,71.5,451.0,72.5,443.0,73.0,435.0,73.5,427.0,74.0,419.5,74.0,412.0,75.0,404.0,75.5,396.5,77.0,388.5,77.5,380.5,78.0,372.5,78.5,364.0,79.0,355.5,79.0,347.5,79.5,340.0,80.0,332.0,81.0,324.0,81.5,316.0,82.0,307.5,82.0,299.0,82.0,291.0,82.0,282.5,81.5,274.5,82.0,266.5,82.5,258.0,83.5,250.5,85.0,243.0,86.0,235.5,87.0,227.5,88.0,219.5,88.5,212.0,89.5,204.0,90.5,196.0,91.0,188.0,91.0,180.0,91.5,172.0,92.0,163.5,92.5,155.5,92.5,147.0,92.5,139.0,92.5,130.5,92.5,122.5,92.5,115.0,93.0" stroke="black" stroke-width="2" fill="none" />
<path d="M124.0,81.0,132.0,80.0,139.5,79.5,147.0,78.5,155.0,77.0,163.0,76.0,171.0,74.5,179.0,73.5,186.5,72.5,195.0,71.5,203.0,71.0,211.0,70.5,219.0,70.0,227.5,70.0,235.5,70.0,244.0,69.5,252.5,69.5,261.0,69.5,269.0,68.5,277.5,67.5,285.5,67.0,293.5,67.0,301.0,67.0,309.0,66.5,317.0,66.5,324.5,66.0,332.5,65.5,340.5,64.5,349.0,63.5,357.0,62.5,364.5,62.0,373.5,61.5,381.5,61.0,389.5,60.5,397.0,60.0,405.0,60.0,413.5,60.0,421.5,60.0,429.5,60.0,437.5,60.5,446.0,60.0,453.5,59.0,461.0,58.0,468.5,57.0,476.0,56.5" stroke="black" stroke-width="2" fill="none" />
<path d="M474.5,67.5,466.5,68.0" stroke="black" stroke-width="2" fill="none" />
<path d="M463.5,88.0,471.5,82.0,473.0,72.5,463.0,80.5,454.0,88.5,452.5,96.5,456.0,86.0,464.5,80.0,472.5,73.0,477.0,70.0,478.5,76.0,469.0,84.0,465.0,91.5,464.0,99.0,463.5,107.0,463.5,114.5,463.5,122.5,463.5,130.5,462.5,138.5,462.5,146.5,462.5,154.5,462.5,162.5,462.0,171.0,462.0,179.0,461.0,187.5,455.0,196.0,450.0,200.0,444.0,208.0,436.5,216.5,430.5,224.5,423.5,233.0,416.5,240.5,410.5,248.5,414.0,243.5,422.0,234.5,430.0,225.5,438.0,215.5,446.0,205.5,454.0,197.5,462.0,189.5,470.0,192.5,474.0,198.5" stroke="black" stroke-width="2" fill="none" />
<path d="M403.0,150.0,396.0,150.5,388.5,151.0,380.5,151.0,373.0,151.0,364.5,151.5,356.0,152.0,347.5,153.0,339.5,153.5,331.5,154.0" stroke="black" stroke-width="2" fill="none" />
<path d="M332.5,145.5,340.0,145.5" stroke="black" stroke-width="2" fill="none" />
<path d="M324.0,138.5,316.0,139.5,308.0,140.0" stroke="black" stroke-width="2" fill="none" />
<path d="M315.0,128.0,323.0,127.5" stroke="black" stroke-width="2" fill="none" />
<path d="M323.5,121.5,316.0,122.5" stroke="black" stroke-width="2" fill="none" />
<path d="M322.5,107.0,314.5,115.0,307.0,122.5,299.5,130.0,291.0,138.0,283.0,145.5,275.0,153.0,267.0,160.5,258.5,167.5,250.0,175.0,242.0,182.5,234.5,190.0,227.0,198.0,219.5,205.5" stroke="black" stroke-width="2" fill="none" />
<path d="M213.0,204.0,221.0,196.5,229.5,189.0,237.0,181.0,244.5,174.0,252.5,166.5,260.5,159.0,268.0,151.5,276.5,144.0,284.5,136.0,292.5,128.0,301.0,120.5,308.5,112.5,316.5,104.5,325.0,96.5,332.5,88.5,340.0,81.0,348.0,73.0" stroke="black" stroke-width="2" fill="none" />
<path d="M340.5,75.0,332.5,82.0,324.5,89.5,317.0,97.0,309.0,105.0,301.0,112.5,292.5,120.5,283.5,128.5,275.0,136.5,267.0,144.0,259.5,151.0,251.5,158.5,243.0,166.0,234.5,174.0,226.0,182.0,217.5,189.5,209.5,197.0,201.0,204.5" stroke="black" stroke-width="2" fill="none" />
<path d="M196.5,204.0,204.5,196.5,212.5,189.0,220.0,182.0,228.0,174.5,236.0,167.5,244.0,159.5,252.0,152.0,260.0,144.5,268.0,137.5,275.5,130.0,283.0,122.0,291.5,114.0,299.5,106.5,307.5,98.5,316.0,90.5,324.0,83.0,332.5,75.0" stroke="black" stroke-width="2" fill="none" />
<path d="M331.5,91.0,327.5,95.0" stroke="black" stroke-width="2" fill="none" />
<path d="M332.0,98.5,340.0,90.5,348.0,83.0,356.0,75.0" stroke="black" stroke-width="2" fill="none" />
<path d="M364.5,75.0,357.0,83.0,349.0,90.5,341.5,98.0" stroke="black" stroke-width="2" fill="none" />
<path d="M338.5,95.5,346.5,94.5,354.5,94.0,362.5,93.0,370.0,92.5,377.5,92.0,386.0,91.5,394.5,91.5,402.5,91.5,410.0,91.5,417.5,91.0" stroke="black" stroke-width="2" fill="none" />
<path d="M421.0,85.0,413.0,92.5,404.0,100.0,396.0,107.0,388.0,114.0" stroke="black" stroke-width="2" fill="none" />
<path d="M387.5,124.0,379.0,131.5,371.0,139.5,363.0,147.0,355.5,154.5,348.5,162.0,340.5,170.0,333.0,177.5,324.5,185.0,316.0,193.0,308.0,200.5,300.0,208.0,291.5,215.0" stroke="black" stroke-width="2" fill="none" />
<path d="M275.0,210.5,283.0,202.5,290.5,195.0,298.5,187.0,306.5,179.5,314.5,172.0,323.0,164.0,330.5,156.0,338.5,148.5,346.5,141.0,355.0,134.5,363.5,128.0,372.0,121.0,379.5,113.5,387.5,106.0,396.0,98.5,404.0,91.0,412.5,83.5" stroke="black" stroke-width="2" fill="none" />
<path d="M404.0,84.0,395.5,91.5,387.0,99.0,378.5,106.5" stroke="black" stroke-width="2" fill="none" />
<path d="M372.5,106.5,381.0,99.0,389.5,92.0,397.5,84.5" stroke="black" stroke-width="2" fill="none" />
<path d="M387.5,81.0,379.5,89.0,372.0,97.0,364.5,105.0" stroke="black" stroke-width="2" fill="none" />
<path d="M355.0,105.5,363.0,98.0,371.0,91.0,379.5,83.5" stroke="black" stroke-width="2" fill="none" />
<path d="M372.5,84.5,364.5,91.5,356.5,99.0,349.0,106.0" stroke="black" stroke-width="2" fill="none" />
<path d="M347.0,116.0,339.0,123.0,331.0,130.5,322.5,138.0,314.0,146.0,306.0,154.0,298.5,161.5,290.5,169.0,283.0,176.0,275.5,183.0,267.5,190.5,259.5,198.0,251.0,206.0" stroke="black" stroke-width="2" fill="none" />
<path d="M267.0,214.5,275.0,207.0,282.5,199.5,290.0,192.5,298.0,184.5,306.5,176.5,315.0,168.5,323.0,160.5,331.0,153.0,339.5,145.5,348.0,137.5,356.0,130.0,364.5,122.0,373.0,114.5" stroke="black" stroke-width="2" fill="none" />
<path d="M380.0,122.5,372.0,130.0,363.5,137.5,355.5,145.0,347.0,152.5,338.5,160.5,331.0,168.5,323.5,176.0,315.5,184.0,307.5,191.5,300.0,199.5,292.0,206.5,284.0,214.0" stroke="black" stroke-width="2" fill="none" />
<path d="M299.5,214.0,307.5,206.5,316.0,199.0,323.5,191.0,331.0,183.0,339.0,175.0,347.5,167.5,355.5,159.5,363.5,152.0,371.0,145.5,379.0,138.5,387.0,131.0,395.0,123.5" stroke="black" stroke-width="2" fill="none" />
<path d="M396.0,125.0,396.0,129.0" stroke="black" stroke-width="2" fill="none" />
<path d="M397.0,143.5,388.5,143.5,380.0,144.0,372.0,144.0,364.0,144.5,356.0,145.0,348.0,145.5,340.0,146.0,332.5,146.5,324.5,147.5,316.5,148.5,309.0,149.5,301.0,150.5,293.5,151.0,285.0,151.5,276.5,152.0,268.0,152.5,259.5,153.5,251.0,154.5,243.0,155.0,235.5,156.0,227.0,156.5,218.5,157.5,210.5,158.0,203.0,158.5,195.0,159.0,187.0,159.5,179.5,160.0,172.0,160.0,164.0,160.5,156.0,161.5,148.5,161.5,140.5,161.5,132.0,161.5" stroke="black" stroke-width="2" fill="none" />
<path d="M121.5,152.5,129.5,151.5,138.0,151.5,146.5,151.0,154.5,151.0,162.5,150.0,170.5,149.5,178.5,149.0,186.5,149.0,194.5,148.5,202.5,148.0,211.0,147.5,219.5,147.0,228.0,146.0,236.0,145.5,243.5,145.0,251.5,144.5,259.5,144.0,267.0,144.0,274.5,144.0,282.5,144.0,290.5,143.0,298.5,142.5,307.0,141.5,315.0,141.0,323.0,140.0" stroke="black" stroke-width="2" fill="none" />
<path d="M324.5,132.5,316.0,133.5,307.5,134.0,299.5,134.5,291.0,135.5,282.5,136.0,274.5,136.5,266.5,137.0,259.0,137.5,251.5,138.0,244.0,138.0,235.5,138.5,227.0,138.5,219.0,138.5,211.0,139.0,203.0,139.0,195.5,140.0,188.0,140.0,180.0,141.0,172.0,142.0,164.0,143.0,155.5,143.5,147.0,143.0,138.5,143.0,130.0,144.0,122.0,145.0" stroke="black" stroke-width="2" fill="none" />
<path d="M132.5,137.5,140.5,137.0,148.0,137.5,156.0,137.0,164.0,136.5,172.5,136.0,180.0,136.0,187.0,135.5,194.5,134.5,202.0,134.0,210.0,133.5,218.0,133.0,227.0,132.5,235.5,131.5,243.5,130.5" stroke="black" stroke-width="2" fill="none" />
<path d="M253.5,139.5,261.5,139.5" stroke="black" stroke-width="2" fill="none" />
<path d="M259.5,128.5,267.0,124.5" stroke="black" stroke-width="2" fill="none" />
<path d="M229.5,120.0,221.5,120.0,213.0,120.5" stroke="black" stroke-width="2" fill="none" />
<path d="M212.5,112.5,221.0,112.5" stroke="black" stroke-width="2" fill="none" />
<path d="M228.0,105.5,236.0,106.5,244.0,109.5,252.0,111.0,260.5,111.0,268.5,112.5,276.5,112.5,284.5,113.5,292.5,111.5,292.0,114.5" stroke="black" stroke-width="2" fill="none" />
<path d="M321.0,101.5,329.0,101.5,337.0,102.5" stroke="black" stroke-width="2" fill="none" />
<path d="M333.0,108.0,324.5,115.5,316.5,122.0,308.0,129.0,300.5,136.5,292.0,143.5,284.0,151.5,276.0,159.5,268.0,168.0,260.0,176.0,252.0,184.0,243.5,192.0,236.0,199.5,227.5,207.0" stroke="black" stroke-width="2" fill="none" />
<path d="M228.0,210.5,235.5,210.0,243.0,209.0,251.0,208.5,259.0,208.0,267.0,207.5,275.0,207.0,283.5,206.0,292.0,205.5,300.0,205.5,308.5,204.5,316.0,204.5,324.0,204.5,332.5,204.5,340.5,204.0,348.5,204.0,356.5,203.0,364.0,202.5,371.5,201.5,380.0,201.0" stroke="black" stroke-width="2" fill="none" />
<path d="M386.0,179.0,378.0,179.0,370.0,179.5,362.5,180.5,354.5,181.0,346.5,181.5,338.5,182.0,330.5,182.0,323.0,183.0,315.5,183.5,308.5,184.0,301.0,184.5,293.0,185.0,285.0,185.5,277.0,186.0,269.0,186.0,261.5,186.5,253.5,186.5,245.0,186.5,236.0,186.5,228.0,186.5,220.0,187.0,212.0,187.0,203.5,187.5,196.0,188.5,188.0,189.5,180.5,190.0,172.5,191.5,165.0,192.0,157.5,193.0,149.5,194.0,141.5,194.5,133.5,195.5" stroke="black" stroke-width="2" fill="none" />
<path d="M138.0,195.5,146.5,188.5,154.5,181.0,162.5,173.5,171.0,166.0,179.5,158.5,188.0,151.0,196.5,143.5,204.5,135.5,212.5,127.5,220.5,119.5,229.0,112.0,236.5,105.0,244.5,97.5,252.5,90.5,260.5,83.0,269.0,76.0" stroke="black" stroke-width="2" fill="none" />
<path d="M276.5,75.0,269.5,82.5,261.5,90.0,253.5,97.5,245.0,105.0,237.0,113.0,229.5,121.0,221.5,129.0,213.5,137.0,205.5,145.5,198.0,153.0,189.5,160.0,181.0,167.0,172.5,174.0,164.0,181.5,155.5,188.5,147.5,195.5" stroke="black" stroke-width="2" fill="none" />
<path d="M148.5,202.0,156.5,201.5" stroke="black" stroke-width="2" fill="none" />
<path d="M164.5,194.0,172.5,186.5,180.5,179.0,188.5,172.0,196.5,165.0,204.0,158.0,212.0,151.0,220.0,143.0,227.5,135.0,235.5,127.0,243.0,119.0,251.0,111.5,259.0,104.0,267.5,97.0,276.0,89.5,284.0,82.0,292.0,74.5" stroke="black" stroke-width="2" fill="none" />
<path d="M284.0,74.0,276.0,81.5,268.0,89.5,260.0,97.5,252.0,105.0,243.5,112.5,236.0,120.0,228.5,127.5,220.5,135.0,212.5,143.0,204.5,150.5,196.0,158.0,188.0,165.5,179.5,173.0,171.5,180.5,164.0,188.0,155.5,195.0" stroke="black" stroke-width="2" fill="none" />
<path d="M141.0,203.0,133.0,203.0" stroke="black" stroke-width="2" fill="none" />
<path d="M130.0,195.0,138.0,187.0,146.0,179.0,154.0,171.5,162.0,164.0,170.5,156.0,178.5,148.5,186.5,141.0,194.5,134.0,203.0,127.0,211.0,119.5,219.5,112.5,228.0,105.5,236.0,98.5,244.0,91.5,251.5,84.0,259.5,76.5" stroke="black" stroke-width="2" fill="none" />
<path d="M251.5,76.0,244.0,84.0,236.5,91.5,228.5,99.0,220.5,106.5,212.5,114.0,204.0,120.5,196.0,128.0,187.5,135.0,179.0,143.0,171.0,150.5,163.0,158.0,155.0,165.5,147.0,172.5,139.5,179.0,131.5,186.5,123.5,194.5" stroke="black" stroke-width="2" fill="none" />
<path d="M116.0,195.5,124.0,188.5,132.5,181.5,140.5,173.5,149.0,166.0,157.5,159.0,165.5,151.5,174.0,144.0,182.0,136.0,190.0,128.5,197.5,121.0,205.0,113.0,212.5,105.5,220.5,98.0,228.0,90.5,235.5,83.0,244.0,75.0" stroke="black" stroke-width="2" fill="none" />
<path d="M235.5,92.0,243.5,91.5,251.5,90.5,259.5,89.5,267.5,89.0,275.5,88.0,283.5,87.0,291.5,86.5,299.5,85.5,307.5,85.0,315.0,85.0" stroke="black" stroke-width="2" fill="none" />
<path d="M341.5,114.0,333.5,121.0,325.5,129.0,317.0,136.5,308.5,144.5,300.0,152.5,292.0,160.0,284.0,167.5,276.5,175.0,268.5,183.0,260.0,190.5,252.5,198.0,244.5,205.5" stroke="black" stroke-width="2" fill="none" />
<path d="M236.0,205.5,244.0,197.5,252.0,189.5,259.5,181.0,268.0,173.5,276.5,166.0,284.5,158.5,292.5,151.5,300.5,144.0,308.5,136.5,317.5,129.0,325.5,121.5,334.0,114.5,342.0,107.0,350.0,99.0,358.5,91.0,366.5,83.5" stroke="black" stroke-width="2" fill="none" />
<path d="M365.5,81.0,373.5,82.0,382.0,82.5,390.5,82.5,398.5,81.5,406.0,82.5,414.0,82.5,422.0,83.5,430.0,83.5,437.5,85.0,445.5,83.5,453.5,79.0,461.5,73.0,469.5,66.0,477.5,59.5,486.0,53.5,494.0,47.5" stroke="black" stroke-width="2" fill="none" />
<path d="M450.0,85.5,457.5,80.0,449.0,85.5,440.5,87.5,432.5,87.5" stroke="black" stroke-width="2" fill="none" />
<path d="M426.0,91.5,418.5,99.0,411.0,107.0" stroke="black" stroke-width="2" fill="none" />
<path d="M404.0,105.0,412.0,97.0,419.5,89.0,427.0,81.5" stroke="black" stroke-width="2" fill="none" />
<path d="M427.5,96.5,418.0,107.5,422.0,115.5,433.5,97.0,441.5,97.0,449.5,97.0" stroke="black" stroke-width="2" fill="none" />
<path d="M429.0,98.5,426.0,106.5,422.5,114.5,417.5,127.5,413.5,135.5,409.0,143.5,405.0,152.0,401.0,160.0,397.5,168.5,393.5,176.5,389.5,184.0,385.5,192.5,381.5,201.0,378.5,209.0,374.5,217.0" stroke="black" stroke-width="2" fill="none" />
<path d="M381.0,208.0,372.5,209.0,364.0,209.0,356.0,210.0,348.0,210.5,340.0,211.0,332.0,211.0,323.5,212.0,315.5,212.0,307.5,213.0,299.5,213.5,291.5,214.5,283.5,215.0,276.0,215.5,268.0,216.0,259.5,216.0,251.5,216.0,243.0,216.5,235.0,217.0,227.0,217.5,219.5,218.0,211.5,218.5,203.5,219.0,195.5,219.5,187.0,220.0,179.5,220.5,171.5,221.0,163.5,221.5,156.0,222.5,148.0,223.5,140.5,224.5,132.5,224.5,124.5,225.0,116.5,226.0,108.5,226.0,101.0,226.5,93.0,227.5,84.5,228.0,76.5,228.5,68.0,228.5,59.5,229.0,51.0,229.5,42.5,230.0" stroke="black" stroke-width="2" fill="none" />
<path d="M42.5,221.0,50.5,220.5,59.0,220.5,67.5,220.5,75.5,220.5,84.0,220.5,92.5,220.0,100.0,219.5,108.0,219.0,116.0,218.5,124.0,218.0,132.0,217.0,140.0,216.5,148.0,215.5,156.0,215.0,164.0,214.0,172.0,213.5,180.0,212.5,188.0,212.0,196.0,211.5,204.0,211.0,212.5,211.0,220.5,210.0,228.5,209.5,236.5,208.5,244.5,208.0,252.0,208.5,260.0,208.5,267.5,208.5,275.5,208.5,283.0,208.5,291.0,207.5,299.0,207.0,307.5,206.0,315.5,205.0,323.5,204.5,332.0,204.0,340.5,203.0,348.5,202.0,356.5,201.5,364.0,201.0,372.5,200.5,381.0,200.5" stroke="black" stroke-width="2" fill="none" />
<path d="M378.5,216.0,371.0,216.5,363.0,217.0,355.0,218.0,347.5,218.5,339.5,218.5,331.5,219.0,323.0,219.5,315.5,219.5,308.0,220.5,300.5,221.0,293.0,222.0,285.0,223.0,277.5,223.5,269.5,224.0,261.0,224.0,253.0,224.0,244.5,224.0,236.5,224.0,228.0,225.0,219.5,226.0,211.0,227.0,203.5,227.5,195.5,228.5,187.5,229.0,179.5,229.5,171.5,230.0,163.5,230.5,156.0,231.5,148.0,231.5,140.5,232.5,132.5,233.0,124.5,233.5,116.5,234.0,108.5,234.5,100.5,235.0,92.0,235.0,84.0,235.0,76.5,235.0,68.0,235.0,59.5,235.0,51.5,235.5,43.5,236.5,35.5,237.5" stroke="black" stroke-width="2" fill="none" />
<path d="M29.5,246.0,38.0,245.5,46.0,244.5,53.5,244.0,61.5,243.5,69.0,243.0,76.0,242.0,83.0,241.5,90.5,241.0,98.5,240.0,106.5,239.5,114.5,239.5,123.0,239.0,131.5,238.5,139.5,238.0,147.5,237.0,155.5,237.0,163.5,236.0,171.0,235.5,179.0,235.0,186.5,234.5,194.5,234.5,203.0,234.0,211.5,234.0,220.0,233.5,227.5,232.5,236.0,232.0,244.0,231.0,252.0,230.5,259.5,230.0,267.5,229.5,276.0,229.0,284.0,228.5,292.0,228.5,300.0,229.0,308.0,228.5,315.5,228.0,323.5,227.0,331.5,226.5,339.0,225.5,346.5,225.0,354.5,225.0,363.0,224.5,371.5,224.0,379.0,224.0" stroke="black" stroke-width="2" fill="none" />
<path d="M376.5,229.0,384.5,215.5,392.5,196.5,400.5,179.5,408.0,162.5,416.0,145.0,424.0,128.5,432.5,110.5,440.5,97.0,435.0,105.0,431.0,113.5,428.0,121.5,424.0,129.0,421.0,137.0,417.0,145.0,413.0,153.5,409.0,162.0,405.0,170.0,402.0,178.0,398.0,186.0,394.0,194.0,391.0,202.0,387.0,210.0,382.5,218.0,378.5,226.0,378.0,234.5,378.0,242.0,378.0,249.5,378.5,257.0,377.5,265.0,379.0,273.0,379.0,281.0,376.5,293.0,375.5,305.5,383.5,301.0,383.5,303.0,396.5,295.5,404.5,285.5,412.5,274.0,420.5,264.0,428.5,254.0,436.5,244.0,444.0,234.0,452.0,223.5,459.5,213.5,467.5,203.5,469.5,206.5,462.5,215.0,457.0,223.0,450.0,231.0,444.0,239.0,437.0,247.0,431.0,255.5,425.0,263.5,419.0,271.5,411.5,279.5,405.5,287.5,399.5,295.5,393.5,304.0,392.5,310.0" stroke="black" stroke-width="2" fill="none" />
<path d="M371.0,289.0,363.0,290.5,355.0,289.5,347.0,291.5,338.5,288.5,333.0,284.5,325.0,283.5,317.0,284.0,308.5,283.0,301.0,282.5,292.5,280.0,289.5,284.0,281.5,284.0,273.5,286.5,265.5,285.5,257.5,283.0,249.5,279.0,243.0,281.0,235.0,277.5" stroke="black" stroke-width="2" fill="none" />
<path d="M234.0,278.0,237.5,286.0,233.5,295.0,225.5,304.0" stroke="black" stroke-width="2" fill="none" />
<path d="M279.5,287.5,287.5,287.5,295.0,286.5,303.0,286.0,310.5,286.0,318.0,287.0,326.0,287.5" stroke="black" stroke-width="2" fill="none" />
<path d="M329.5,279.5,321.5,278.0" stroke="black" stroke-width="2" fill="none" />
<path d="M312.5,298.5,305.0,298.5,297.5,298.5" stroke="black" stroke-width="2" fill="none" />
<path d="M305.5,278.0,298.0,276.0,290.0,275.0" stroke="black" stroke-width="2" fill="none" />
<path d="M267.0,252.5,259.0,255.5" stroke="black" stroke-width="2" fill="none" />
<path d="M261.0,247.5,269.0,242.5,276.5,242.0,284.5,244.0,292.0,244.5,300.0,245.5,308.0,244.5,316.0,242.5,324.0,239.0,332.0,240.0,333.0,250.0,337.0,258.0,336.5,266.0,333.5,274.5" stroke="black" stroke-width="2" fill="none" />
<path d="M348.0,292.5,346.5,301.0,352.5,309.0,355.5,309.5,357.0,303.5,365.0,303.0,373.0,302.5" stroke="black" stroke-width="2" fill="none" />
<path d="M373.0,288.5,373.5,283.0,373.5,275.5,374.0,267.5" stroke="black" stroke-width="2" fill="none" />
<path d="M260.5,214.5,268.5,207.5,276.5,200.0,284.5,192.5,292.5,184.5,300.5,177.0,309.0,169.5,317.0,162.5,325.0,155.0,333.0,146.5,341.0,138.5,348.5,130.5,356.0,123.0" stroke="black" stroke-width="2" fill="none" />
<path d="M346.0,124.5,338.0,132.0,330.0,140.0,322.0,147.5,314.0,154.5,306.0,162.0,298.0,169.5,290.0,177.0,281.5,184.5,273.5,192.0,265.5,199.5,257.5,207.0" stroke="black" stroke-width="2" fill="none" />
<path d="M250.0,233.5,249.0,241.5,248.5,249.0,249.5,257.0,249.0,265.0,249.0,272.5,246.0,283.5,246.5,286.0,251.5,290.5,259.5,292.5,267.5,294.0,275.5,294.5,284.0,295.5,292.0,296.0,299.5,295.5,307.5,295.5,315.0,295.5,323.0,296.5,331.5,298.0,339.5,300.0,348.0,301.0,353.5,292.0,361.5,294.0" stroke="black" stroke-width="2" fill="none" />
<path d="M387.0,169.5,379.0,170.0,371.0,171.0,363.5,171.5,355.5,171.5,347.5,172.0,339.0,172.5,331.5,172.5,324.0,173.5,316.5,174.0,309.0,175.0,301.0,176.0,293.5,176.5,285.5,177.0,277.0,177.0,269.0,177.0,260.5,177.0,252.5,177.0,244.0,178.0,235.5,179.0,227.0,180.0,219.5,180.5,211.5,181.5,203.5,182.0,195.5,182.5,187.5,183.0,179.5,183.5,172.0,184.5,164.0,184.5,156.5,185.5,148.5,186.0,140.5,186.5,132.5,187.0" stroke="black" stroke-width="2" fill="none" />
<path d="M122.5,176.5,130.5,176.5,139.0,176.0,147.5,175.5,155.5,175.0,163.5,174.0,171.5,174.0,179.5,173.0,187.0,172.5,195.0,172.0,202.5,171.5,210.5,171.5,219.0,171.0,227.5,171.0,236.0,170.5,243.5,169.5,252.0,169.0,260.0,168.0,268.0,167.5,275.5,167.0,283.5,166.5,292.0,166.0,300.0,165.5,308.0,165.5,316.0,166.0,324.0,165.5,331.5,165.0,339.5,164.0,347.5,163.5,355.0,162.5,362.5,162.0,370.5,162.0,379.0,161.5,387.5,161.0,395.0,161.0" stroke="black" stroke-width="2" fill="none" />
<path d="M393.5,152.5,385.5,153.0,377.5,153.0,370.0,154.0,362.0,154.5,354.0,155.0,345.5,155.5,337.5,156.0,329.5,156.0,321.5,156.0,313.5,156.0,305.5,156.5,297.5,157.0,289.5,157.5,281.5,158.0,274.0,158.5,266.5,158.5,258.5,158.5,250.0,158.5,241.5,159.0,234.0,159.5,226.5,160.0,218.5,161.0,210.5,161.5,202.5,162.5,194.5,162.5,186.0,163.0,178.0,163.5,169.5,164.0,162.0,165.0,153.5,165.5,145.0,167.5,137.0,168.5,129.0,170.0,121.0,170.5" stroke="black" stroke-width="2" fill="none" />
<path d="M133.0,130.5,141.0,130.0,149.0,129.0,157.0,129.0" stroke="black" stroke-width="2" fill="none" />
<path d="M138.5,120.0,130.0,120.5,121.5,121.0" stroke="black" stroke-width="2" fill="none" />
<path d="M124.0,114.0,131.5,114.0,139.0,113.5" stroke="black" stroke-width="2" fill="none" />
<path d="M157.0,89.5,164.5,82.0,172.0,74.5,180.5,67.0" stroke="black" stroke-width="2" fill="none" />
<path d="M192.5,73.5,182.5,66.5,174.5,67.5,170.5,67.0,162.5,67.0" stroke="black" stroke-width="2" fill="none" />
<path d="M161.5,66.0,153.5,73.5,145.5,81.0,137.5,88.5,129.5,96.0,121.5,104.0,113.5,112.0,105.5,120.0,97.5,127.5,90.0,135.0,82.0,142.5,74.0,150.0,65.5,157.0,57.5,165.0" stroke="black" stroke-width="2" fill="none" />
<path d="M59.5,166.0,68.0,165.5,75.5,164.5,83.5,164.0,92.0,164.0,100.0,163.5,108.5,163.0,116.5,162.0,125.0,161.5,133.5,162.0,141.5,161.5,149.5,161.0,157.5,160.0,165.0,159.0,172.5,158.5,180.5,157.5,188.5,157.5,196.5,157.0,204.5,156.5,213.0,156.0,221.5,156.0,229.5,155.5,236.5,155.0,244.0,154.5,251.5,153.5,258.5,153.5,266.0,153.0,274.0,152.5,282.0,152.0,289.5,151.5,297.5,150.5,306.0,150.0,314.5,149.0,323.0,149.0,330.5,148.5,339.5,148.0,347.5,147.5,356.0,147.5,364.0,147.5,372.5,147.0,380.5,146.5,388.5,145.5,396.5,145.0,405.0,144.0,413.0,143.0" stroke="black" stroke-width="2" fill="none" />
<path d="M414.0,136.5,406.0,137.0,398.0,137.0,390.5,137.0,382.5,137.5,374.5,138.0,365.5,139.0,357.5,139.5,349.0,140.0,340.5,140.5,332.0,141.0,323.0,141.5,315.0,141.5,307.0,141.5,299.0,142.0,290.5,142.5,282.5,143.0,274.5,144.0,266.5,144.5,258.0,145.0,250.5,146.0,243.5,146.5,236.0,146.5,228.5,146.5,221.0,147.0,212.5,147.5,204.0,148.5,195.5,149.5,187.5,150.0,180.0,150.5,172.5,151.0,164.5,151.0,156.5,151.0,148.5,151.5,140.5,152.0,132.5,152.5,124.5,153.0,116.0,153.5,107.5,154.0,99.0,154.5,91.0,155.0,84.0,156.0,76.5,156.5,69.0,157.5,61.0,158.0" stroke="black" stroke-width="2" fill="none" />
<path d="M52.0,175.0,60.0,174.5,68.5,173.0,77.0,172.0,85.0,171.0,93.0,170.0,101.0,169.5,108.5,169.0,116.0,168.5,123.5,167.5,131.5,167.0,140.0,167.0,148.0,166.5,156.0,166.0,164.0,166.0,171.5,165.0,179.5,165.0,186.5,164.5,194.0,164.0,201.5,164.0,209.0,163.5,217.5,163.0,225.5,163.0,234.0,163.0,243.0,162.5,251.5,162.0,259.0,161.5,266.5,161.0,274.5,160.5,282.5,160.0,291.0,159.5,298.5,159.5,307.0,159.0,315.5,158.0,324.5,157.0,332.5,156.5,340.5,156.0,348.5,155.5,356.5,155.0,364.5,154.0,372.5,153.0,381.0,153.0,389.0,152.5,397.5,152.0,405.5,152.0" stroke="black" stroke-width="2" fill="none" />
<path d="M403.5,160.5,396.0,160.5,388.0,160.5,380.0,160.5,372.0,161.0,364.0,161.0,355.5,162.0,347.0,162.5,339.0,163.5,331.5,164.0,324.0,165.0,315.5,165.5,308.0,166.0,300.5,166.5,292.5,166.5,284.0,167.0,276.0,167.5,267.5,168.0,259.0,168.0,251.0,167.5,243.0,167.5,235.5,168.0,227.5,169.5,219.0,170.5,211.5,171.5,203.0,172.0,195.0,172.5,187.5,172.5,180.0,173.0,173.0,174.0,165.5,175.0,157.5,176.0,149.5,176.5,141.0,177.0,133.0,178.0,125.0,178.0,116.5,179.0,108.0,179.0,99.5,179.0,91.0,179.5,82.5,180.0,75.0,180.5,67.0,181.0,59.0,181.5,51.0,181.5,43.0,181.5" stroke="black" stroke-width="2" fill="none" />
<path d="M45.0,185.5,53.0,176.5,61.5,166.5,69.5,156.5,78.0,147.0,87.5,136.0,95.5,126.0,103.5,115.5,111.5,104.0,119.0,95.5" stroke="black" stroke-width="2" fill="none" />
<path d="M131.5,84.5,140.5,77.5,149.0,70.0" stroke="black" stroke-width="2" fill="none" />
<path d="M154.5,68.0,147.0,75.5,139.5,82.5" stroke="black" stroke-width="2" fill="none" />
<path d="M140.0,83.0,148.0,82.0,156.0,81.5,164.0,80.5,172.0,80.0,180.0,79.0,188.0,78.5,196.0,77.5,204.0,77.0,212.0,76.5,220.0,76.0" stroke="black" stroke-width="2" fill="none" />
<path d="M213.5,90.0,205.5,90.5" stroke="black" stroke-width="2" fill="none" />
<path d="M203.5,129.5,211.5,129.0,219.0,129.0,227.0,129.0,235.0,129.0" stroke="black" stroke-width="2" fill="none" />
<path d="M197.5,213.0,205.5,215.0,213.5,215.5,221.0,215.0,229.0,217.0,236.5,217.0,245.0,218.0,252.5,219.0,261.0,220.0,269.0,223.0,277.5,224.5,285.0,224.5,292.5,223.5,300.5,221.5,308.0,220.0,315.5,220.5,323.0,220.5,331.0,221.5,339.0,222.5,347.0,224.5,355.0,225.0,363.0,221.0,371.5,219.0,379.5,202.0,387.5,186.0,396.0,170.0,404.0,154.0,412.5,138.5,420.5,123.5" stroke="black" stroke-width="2" fill="none" />
<path d="M419.0,109.0,410.5,107.0,402.5,106.5" stroke="black" stroke-width="2" fill="none" />
<path d="M405.0,51.0,396.5,52.0,388.5,52.5,380.5,53.5,372.5,54.0,365.0,55.0,356.5,55.5,349.0,56.0,340.5,56.0,332.5,56.5,324.0,56.5,315.5,57.0,307.0,57.5,298.5,57.5,290.5,57.5,282.5,57.5,275.0,58.5,266.5,59.5,258.5,61.0,250.5,62.5,242.5,63.0,234.0,63.5,226.5,63.5,219.0,64.0,211.5,64.5,204.0,65.5,196.0,66.0,187.5,66.5,179.5,67.0,171.0,68.0,163.0,68.0,155.0,69.0,146.5,69.0,138.5,69.5,130.0,70.0,122.0,71.0" stroke="black" stroke-width="2" fill="none" />
<path d="M125.0,75.5,117.0,75.0" stroke="black" stroke-width="2" fill="none" />
<path d="M121.5,61.0,130.0,61.0,138.5,61.0,147.0,61.0,155.0,60.5,163.0,60.5,171.0,60.0,179.5,59.5,187.5,59.0,195.0,58.5,203.0,58.0,211.0,57.0,219.0,56.5,226.5,55.5,234.0,54.5,242.5,53.5,250.0,52.5,258.0,51.5,266.5,51.0,275.0,50.5,283.5,50.0" stroke="black" stroke-width="2" fill="none" />
<path d="M319.0,33.5,326.5,33.0,334.0,36.5" stroke="black" stroke-width="2" fill="none" />
<path d="M331.0,36.5,339.5,36.0" stroke="black" stroke-width="2" fill="none" />
<path d="M333.0,125.0,335.0,122.5,336.5,115.5,344.5,119.0,353.0,120.0,361.5,120.0,369.0,121.5,376.5,121.5,384.5,121.5,392.5,122.5,400.5,120.5" stroke="black" stroke-width="2" fill="none" />
<path d="M388.5,190.5,381.0,190.5,372.5,190.5,364.0,191.0,356.0,191.0,348.0,191.5,340.0,192.0,332.0,192.5,324.0,193.0,316.5,193.5,308.5,194.5,300.5,195.5,293.0,196.5,285.0,197.5,277.5,198.0,269.0,198.5,260.5,199.0,252.0,199.5,243.5,200.5,235.0,201.5,227.0,202.0,219.5,203.0,211.0,203.5,202.5,204.5,194.5,205.0,187.0,205.5,179.0,206.0,171.0,206.5,163.5,207.0,156.0,207.0,148.0,207.5,140.0,208.5,132.5,208.5,124.5,208.5,116.0,208.5,108.0,209.5,100.0,210.0,91.5,210.0,83.5,210.0,75.5,210.0,68.0,210.5,60.0,210.5,52.0,211.0,45.0,211.5,37.0,212.0" stroke="black" stroke-width="2" fill="none" />
<path d="M36.5,204.5,44.5,204.0,53.0,204.0,61.5,203.5,69.5,203.5,77.5,203.0,85.0,202.5,93.0,202.0,100.5,201.5,108.5,201.0,116.5,200.5,124.5,200.0,132.0,200.5,140.0,200.0,148.0,199.5,156.5,199.0,164.0,199.0,171.0,198.5,178.5,197.5,186.0,197.0,194.0,196.5,202.0,196.0,211.0,195.5,219.5,194.5,227.5,193.5,236.5,192.5,244.0,192.0,252.0,191.0,260.5,191.0,268.5,190.5,276.5,190.0,284.0,189.5,292.5,189.0,301.0,188.5,309.5,188.0,317.0,187.5,325.5,186.5,334.0,185.5,342.0,185.0,349.5,184.5,357.5,184.0,365.5,183.0,373.5,183.0,381.0,182.5,388.5,182.5" stroke="black" stroke-width="2" fill="none" />
<path d="M397.0,174.5,389.0,175.0,381.0,175.0,372.5,175.5,364.5,176.0,356.5,177.0,348.0,177.0,340.0,177.5,332.0,178.5,324.5,179.5,316.0,180.0,308.0,181.0,300.5,181.0,292.5,181.0,284.0,181.5,276.0,181.5,268.5,182.0,261.0,182.5,253.0,183.5,244.5,184.0,235.5,185.0,227.5,186.0,219.0,186.5,210.5,187.5,202.5,188.5,194.5,189.0,186.5,190.0,178.5,190.5,171.0,191.0,163.5,191.5,156.5,192.0,149.0,192.0,141.0,192.0,133.0,192.0,125.0,193.0,117.0,193.5,109.0,194.0,101.5,194.0,93.5,194.5,86.0,195.0,78.5,195.0,70.0,195.5,61.5,195.5,53.5,195.0,45.5,195.0,37.5,195.5" stroke="black" stroke-width="2" fill="none" />
<path d="M36.0,189.5,44.0,188.5,52.5,188.0,60.5,187.0,69.0,186.5,77.0,186.0,85.0,185.5,93.0,186.0,101.0,185.5,109.5,185.0,117.5,184.0,125.0,184.0,132.5,183.5,140.0,183.0,147.5,183.0,155.0,183.0,162.5,182.5,169.5,182.0,177.0,181.0,185.0,180.5,193.0,180.0,201.0,179.5,210.0,179.0,218.5,178.0,227.0,178.0,236.0,177.0,244.0,176.5,252.5,176.5,260.5,176.5,268.5,176.5,277.0,176.0,284.5,175.0,292.5,174.5,300.0,173.5,308.5,173.0,317.0,172.5,325.0,171.5,333.0,171.0,341.0,170.5,349.0,170.0,357.0,170.0,364.5,169.5,372.5,168.0,380.0,167.0,388.5,166.5,396.0,165.5" stroke="black" stroke-width="2" fill="none" />
<path d="M377.5,231.5,369.5,231.5,361.5,232.0,353.5,232.0,346.0,233.0,338.0,233.5,330.0,234.0,321.5,234.5,313.5,235.0,305.5,235.0,297.5,235.0,289.5,235.0,281.5,235.5,273.5,236.0,265.5,236.5,257.5,237.0,250.0,237.5,242.5,237.5,234.5,237.5,226.0,237.5,217.5,238.0,210.0,238.5,202.5,239.0,194.5,240.0,186.5,240.5,178.5,241.5,170.5,241.5,162.0,242.0,154.0,242.5,145.5,243.0,138.0,244.0,129.5,244.5,121.0,246.5,113.0,247.5,105.0,249.0,97.0,249.5,89.0,250.0,81.5,250.0,74.0,250.0,67.5,250.0,60.5,251.0,52.5,251.5,44.5,251.5,37.0,252.0,29.0,252.0,21.0,252.5" stroke="black" stroke-width="2" fill="none" />
<path d="M18.0,255.0,26.5,249.0,36.5,243.5,38.5,249.5" stroke="black" stroke-width="2" fill="none" />
<path d="M59.5,246.5,61.0,238.5" stroke="black" stroke-width="2" fill="none" />
<path d="M58.5,212.0,66.5,212.5,74.5,216.0,82.5,219.5,90.5,221.0" stroke="black" stroke-width="2" fill="none" />
<path d="M78.5,220.0,66.5,212.0" stroke="black" stroke-width="2" fill="none" />
<path d="M87.5,197.5,101.5,205.5" stroke="black" stroke-width="2" fill="none" />
<path d="M125.5,219.0,133.5,222.0" stroke="black" stroke-width="2" fill="none" />
<path d="M143.0,238.5,136.5,242.5,144.0,238.5,151.5,241.0" stroke="black" stroke-width="2" fill="none" />
<path d="M154.5,252.0,146.5,259.0" stroke="black" stroke-width="2" fill="none" />
<path d="M156.5,266.0,164.0,258.5,172.0,250.5" stroke="black" stroke-width="2" fill="none" />
<path d="M177.0,251.0,177.5,253.5,177.5,261.5" stroke="black" stroke-width="2" fill="none" />
<path d="M181.0,259.5,180.0,251.5" stroke="black" stroke-width="2" fill="none" />
<path d="M163.5,250.5,156.0,258.0" stroke="black" stroke-width="2" fill="none" />
<path d="M146.0,282.5,158.5,291.5" stroke="black" stroke-width="2" fill="none" />
<path d="M155.0,217.0,163.0,218.5,171.0,219.0,179.0,220.0,186.5,220.0,194.0,220.5,202.0,221.5" stroke="black" stroke-width="2" fill="none" />
<path d="M249.0,234.5,257.0,235.5,266.5,241.5,261.0,249.5,260.0,257.5,267.0,269.0,264.0,277.0,267.0,272.0" stroke="black" stroke-width="2" fill="none" />
<path d="M424.0,99.0,416.0,104.5,408.0,103.5,400.0,103.5,392.0,103.0,384.0,103.0,376.5,103.5,368.5,103.0,360.5,103.0,353.0,102.0,345.0,102.0,337.0,101.0,329.0,95.0,321.0,92.5,313.0,96.0,305.0,96.0,297.5,95.5,289.0,94.5,281.0,95.0,273.0,93.5,265.5,93.5,257.0,92.5,249.0,91.5,241.0,91.5,233.0,84.5,225.0,84.5,216.5,87.0,208.5,89.0,200.5,88.5,192.0,88.5,183.5,87.5,176.0,87.0,168.5,87.0,160.5,85.5,152.5,84.5,145.0,84.0,136.5,83.0,131.5,80.0,130.0,75.5,120.0,84.5,112.0,94.5,104.5,103.5,96.5,113.0,88.5,122.5,80.0,132.5,71.5,143.0,63.5,153.0,55.5,163.0,47.5,173.0,39.0,183.0,31.0,194.0" stroke="black" stroke-width="2" fill="none" />
<path d="M20.5,267.0,28.5,265.0,36.5,262.5,44.0,262.5,52.0,262.0,60.0,263.0,68.0,263.5,76.0,265.5,84.0,268.5,92.0,270.0,100.0,271.5,108.0,272.5,116.0,273.5,123.0,268.0,131.5,268.0" stroke="black" stroke-width="2" fill="none" />
<path d="M136.5,77.0,125.5,79.0,119.0,87.0,113.0,95.5,106.0,103.5,100.0,111.5,92.5,119.0,86.5,127.5,80.0,135.5,73.5,143.0,66.5,151.0,60.5,159.0,54.0,166.5,47.0,174.5,40.5,182.0,33.5,190.0,31.5,197.5,33.0,206.0,33.5,214.0,34.5,221.5,34.5,229.5,34.5,237.5,29.5,246.0,19.0,254.0,19.0,262.5,27.5,271.0,30.5,275.5,38.5,272.0,47.0,272.0,55.0,273.0,63.0,274.0,71.0,275.0,78.5,278.5,86.5,281.0,94.0,283.0,102.5,283.5,110.5,284.5,118.5,285.5,130.5,292.0,139.0,292.0,146.5,292.0,154.5,295.0,162.5,297.0,170.0,299.5,178.0,300.5,186.0,302.5,194.0,303.0,202.0,304.5,210.5,304.5,218.5,304.0,226.5,305.0,234.5,308.0,242.5,309.0,249.5,310.0,257.5,312.0,265.5,312.5,273.5,313.5,281.5,313.5,289.5,313.5,297.5,313.5,305.5,312.5,313.5,313.5,321.5,313.5,329.5,316.0,337.5,318.0,345.5,321.0,353.5,322.5,361.5,319.5,369.5,319.5,377.5,317.5,385.5,316.0,393.5,310.5,394.5,304.5,402.5,293.0,410.5,283.0,419.0,273.0,427.0,263.0,435.0,251.5,443.0,241.0,451.5,231.0,459.0,220.5,467.0,210.5" stroke="black" stroke-width="2" fill="none" />
<path d="M141.5,67.0,133.5,75.0" stroke="black" stroke-width="2" fill="none" />
<path d="M133.5,53.0,141.0,53.0,148.5,52.5,156.0,52.0" stroke="black" stroke-width="2" fill="none" />
<path d="M124.0,64.0,116.0,58.0" stroke="black" stroke-width="2" fill="none" />
<path d="M114.5,57.0,122.5,54.0,130.0,50.5,138.0,46.5,145.5,44.0,153.5,41.0,161.5,37.5,170.0,35.0,177.5,33.0,185.5,29.5,193.5,27.5,201.5,26.5,209.5,27.0,218.0,26.0,226.0,26.5,234.5,28.0,242.5,27.5,250.5,29.0,259.0,29.0,267.0,29.0,275.0,29.0,283.0,29.0,290.5,30.5,298.5,30.0,306.0,31.0,314.5,31.5,322.5,31.5,330.5,31.5,338.5,31.0,347.0,32.0,354.5,32.0,362.5,33.0,370.5,33.0,378.0,34.5,386.0,34.5,394.0,35.5,402.0,36.0,410.0,36.5,418.5,37.5,426.5,37.0,434.5,38.0,442.5,39.0,450.5,40.0,458.5,40.0,466.5,40.0,474.5,39.5,482.5,41.5,490.5,43.5,496.5,44.5,489.5,52.5,478.5,60.5,469.5,68.5,458.5,76.5" stroke="black" stroke-width="2" fill="none" />
<path d="M389.0,80.0,381.0,79.0,373.0,80.5,365.5,81.5,357.5,80.5,349.5,79.0,341.5,77.5,333.5,77.5,325.0,76.5,317.0,76.5,309.5,75.5,301.5,75.5,293.5,74.5,285.0,75.0,277.5,74.0,269.0,74.0,261.0,73.0,252.5,73.0,244.5,71.5,236.5,70.5,229.0,70.5,221.0,70.5,213.0,69.5,205.0,69.5,197.0,69.0,189.0,66.0,185.0,70.0,176.5,68.5,168.5,68.5,160.5,67.5,158.5,66.5,151.0,65.5,143.5,66.0,136.0,65.0,128.0,65.0,119.5,70.0,117.5,71.0,121.5,63.5,116.5,55.5" stroke="black" stroke-width="2" fill="none" />
</svg>