<svg xmlns="http://www.w3.org/2000/svg" version="1.1"><polyline points="192.5,28.0,167.5,36.5,144.5,44.5,123.5,53.0,125.5,57.0,133.5,57.0,141.0,58.0,149.0,58.5,157.0,59.5,165.0,59.5,173.0,60.5,181.0,61.5,189.0,61.0,197.0,61.0,205.0,62.0,213.0,61.5,220.5,62.5,228.5,63.0,236.5,64.0,244.5,64.0,252.0,65.5,260.0,65.0,268.0,66.0,276.0,66.0,284.5,67.5,292.5,67.5,301.0,67.5,309.0,68.0,317.5,68.0,325.5,69.0,333.0,69.0,341.0,70.0,349.5,70.0,357.5,71.0,366.0,71.0,374.0,72.0,382.5,72.0,390.0,72.5,398.0,72.5,405.5,73.5,413.5,73.5,421.5,74.5,430.0,74.0,438.0,75.0,446.5,76.0,454.0,75.5" stroke="black" stroke-width="2" fill="none" />
<polyline points="457.5,65.0,450.0,65.5,442.5,66.0,434.5,66.5,426.0,67.5,418.0,68.0,410.0,68.0,402.5,68.5,394.5,68.5,387.0,69.5,379.0,70.0,371.0,70.5,363.0,71.0,355.0,71.0,347.0,71.5,339.0,72.0,331.0,72.5,322.5,73.0,315.5,73.5,308.0,74.0,300.5,74.5,292.5,75.0,284.0,75.5,276.5,76.0,268.5,77.0,260.5,77.5,252.5,77.5,244.0,78.0,236.0,78.5,228.5,79.0,221.0,79.0,213.5,79.5,206.0,79.5,197.5,80.5,188.5,81.0,180.0,81.5,171.5,82.0,163.0,82.5,155.0,83.0,147.0,83.0,139.0,83.0,131.5,83.5,124.0,84.0" stroke="black" stroke-width="2" fill="none" />
<polyline points="123.0,91.0,117.0,99.0,110.5,106.5,104.5,114.5,97.5,122.5,92.0,130.5,84.5,138.5,77.5,147.5,71.5,155.5,64.5,163.5,58.5,171.5,52.5,179.5,46.5,188.0" stroke="black" stroke-width="2" fill="none" />
<polyline points="46.5,189.0,54.5,194.5,62.0,194.5,70.0,194.5,77.5,195.5,85.5,196.5,93.5,200.5,102.0,205.5,110.0,208.0,118.0,209.0,126.0,208.0,134.0,208.0,142.0,207.5,150.0,208.5,158.0,208.0,166.5,209.0,174.5,210.0,183.5,211.5" stroke="black" stroke-width="2" fill="none" />
<polyline points="187.5,203.0,195.0,195.5,203.5,188.0,212.0,180.5,220.0,173.0,228.0,165.5,236.0,158.0,244.0,150.0,252.0,142.5,260.0,135.0,268.5,127.0,277.0,119.5,285.5,112.5,293.5,105.0,301.0,97.5,308.5,90.5,316.5,83.5,324.0,76.0" stroke="black" stroke-width="2" fill="none" />
<polyline points="316.5,76.5,308.5,84.0,300.5,91.5,292.5,99.0,284.5,106.5,277.0,114.0,268.5,121.5,260.5,128.5,252.5,135.5,244.0,142.5,236.5,150.0,228.0,157.5,219.5,164.5,211.5,172.0,203.0,179.5,195.0,187.0,186.5,194.0,178.0,201.5" stroke="black" stroke-width="2" fill="none" />
<polyline points="171.5,201.5,180.0,194.5,188.5,187.0,196.5,179.5,204.5,172.0,212.5,164.5,221.0,157.0,229.5,149.5,237.5,142.0,245.0,134.5,253.0,127.0,261.0,119.5,268.5,112.5,276.5,105.0,284.5,97.5,292.5,90.0,300.5,83.0,309.0,76.0" stroke="black" stroke-width="2" fill="none" />
<polyline points="299.5,76.5,291.5,84.0,283.5,91.5,275.5,99.0,267.5,107.0,259.0,114.5,251.5,122.0,243.5,129.5,236.0,137.0,227.5,144.5,219.5,151.5,211.5,159.0,203.5,167.0,195.5,174.0,188.0,181.0,180.0,188.0,172.0,195.0" stroke="black" stroke-width="2" fill="none" />
<polyline points="164.5,195.0,172.0,187.5,179.5,181.0,187.0,174.5,194.5,167.5,202.5,160.0,210.0,153.0,218.5,145.0,227.0,136.5,235.0,128.5,243.0,121.0,251.5,113.0,259.5,105.5,268.0,98.0,276.5,90.5,284.5,83.0,292.5,75.0" stroke="black" stroke-width="2" fill="none" />
<polyline points="283.0,76.0,275.0,83.5,267.0,91.0,259.0,98.5,250.5,105.5,242.5,113.5,234.0,121.0,226.0,129.0,218.0,136.5,210.5,143.5,202.5,151.0,194.0,158.5,185.5,166.0,178.0,173.5,170.5,181.5,163.0,189.0,155.5,197.0" stroke="black" stroke-width="2" fill="none" />
<polyline points="146.5,196.0,154.0,187.5,162.0,179.5,170.5,171.5,178.5,163.5,186.5,156.5,194.0,149.0,202.5,141.5,211.0,133.5,219.0,126.5,226.0,120.0,234.0,112.5,242.0,105.0,250.0,97.0,258.0,89.5,266.0,82.0,274.0,74.5" stroke="black" stroke-width="2" fill="none" />
<polyline points="266.0,76.0,258.5,83.0,251.0,90.5,243.5,97.5,235.5,104.5,228.0,112.0,220.0,119.5,211.5,127.0,203.5,134.5,195.0,142.5,187.0,150.5,179.5,158.0,172.0,165.0,164.0,172.5,156.0,180.5,148.5,188.0,140.0,196.0" stroke="black" stroke-width="2" fill="none" />
<polyline points="138.5,202.0,130.5,202.5" stroke="black" stroke-width="2" fill="none" />
<polyline points="131.0,195.5,138.5,195.0,147.0,194.5,155.0,193.5,163.0,192.5,171.0,192.0,178.5,191.0,186.0,190.5,193.5,190.0,201.5,189.0,209.5,188.0,217.5,188.0,226.5,188.0,234.5,187.5,243.0,186.5,251.0,185.5,259.0,185.0,266.5,184.5,274.5,184.0,282.5,183.5,290.0,183.0,298.5,182.5,306.5,182.5,315.0,181.5,323.5,181.0,332.0,180.5,340.0,179.5,348.0,179.5,356.0,179.0,363.5,178.5,371.5,178.0,380.0,177.5,387.5,177.0" stroke="black" stroke-width="2" fill="none" />
<polyline points="395.5,180.0,387.5,187.5,379.5,194.5,371.0,202.0,363.0,209.5,354.5,217.0,346.0,224.5" stroke="black" stroke-width="2" fill="none" />
<polyline points="342.0,214.5,349.5,207.0,357.0,200.0,364.5,192.0,372.0,184.5,379.5,178.0,387.0,171.5,394.5,164.5,402.5,157.0,410.0,150.0" stroke="black" stroke-width="2" fill="none" />
<polyline points="402.0,162.0,394.5,169.5,386.5,176.5,378.5,184.5,370.0,192.5,362.0,200.5,354.5,209.0,347.0,217.0" stroke="black" stroke-width="2" fill="none" />
<polyline points="363.0,219.0,371.0,211.0,379.5,203.5,388.0,196.0" stroke="black" stroke-width="2" fill="none" />
<polyline points="380.5,210.5,372.0,218.5" stroke="black" stroke-width="2" fill="none" />
<polyline points="371.5,213.0,363.0,213.5,354.0,214.5,346.0,215.5,338.0,216.5,330.0,217.0" stroke="black" stroke-width="2" fill="none" />
<polyline points="306.5,210.0,314.5,202.5,322.5,195.5,331.0,189.0,340.0,182.5,348.0,175.0,356.5,168.0,364.0,160.0,372.0,152.0,380.5,144.0,388.5,137.0,396.5,129.0,404.5,122.0,412.0,114.0,419.5,106.5,427.0,99.0,434.5,91.5" stroke="black" stroke-width="2" fill="none" />
<polyline points="436.5,91.0,429.5,90.5,421.5,91.0,413.0,91.5,405.0,92.0,396.5,92.0,388.0,91.5,380.0,92.0,372.0,92.0,364.5,91.5,356.5,92.0,349.0,93.0,341.0,93.5,333.5,94.0,326.0,94.5,318.0,95.5,309.5,96.0,301.0,97.0,293.0,97.5,284.5,98.0,276.0,98.5,267.0,99.5,258.5,100.0,251.0,100.5,243.5,100.5,235.5,100.5,228.0,100.5,220.0,101.0,212.5,101.5,204.5,102.5,197.0,103.0,189.0,103.5,181.0,103.5,173.0,104.0,165.0,104.5,157.0,105.0,149.0,106.0,141.0,107.0,133.0,107.0,125.0,107.5,117.0,108.0,109.5,109.5,101.5,110.0" stroke="black" stroke-width="2" fill="none" />
<polyline points="100.0,117.5,108.0,117.0,115.5,116.5,123.5,116.0,131.5,115.5,139.5,115.0,148.0,114.5,156.0,114.0,164.0,113.0,172.0,113.0,180.0,112.5,188.0,111.5,196.0,111.0,204.5,110.5,212.5,109.5,221.0,109.0,228.5,108.5,236.0,107.5,244.0,107.0,252.0,107.0,260.0,106.5,268.0,106.0,276.0,106.0,283.5,105.5,291.0,105.5,299.0,105.0,307.0,104.5,315.5,104.0,323.5,103.5,332.0,103.0,339.5,102.5,347.5,102.5,356.0,102.0,364.0,102.0,372.0,101.5,379.5,101.0,388.0,100.5,396.0,100.0,404.0,99.5,412.0,98.5,420.0,98.0,427.5,97.5,435.0,97.0" stroke="black" stroke-width="2" fill="none" />
<polyline points="428.0,97.0,418.0,108.0,422.0,116.0,433.0,97.0,441.0,97.0,449.0,97.0" stroke="black" stroke-width="2" fill="none" />
<polyline points="442.5,93.5,434.5,100.5,426.5,107.5" stroke="black" stroke-width="2" fill="none" />
<polyline points="428.0,105.5,420.5,106.5,412.5,107.0,404.5,107.0,397.0,107.0,389.0,107.0,381.5,107.0,373.5,107.5,365.5,107.5,357.0,108.0,349.0,108.0,341.0,108.0,333.5,109.0,325.0,109.5,317.0,110.5,309.0,111.5,301.0,112.5,293.0,113.0,284.5,113.0,276.0,113.0,267.5,113.0,260.0,113.5,252.5,114.5,244.5,114.5,236.5,115.0,228.0,116.0,220.0,117.0,212.0,117.5,204.0,118.0,196.5,118.5,189.0,119.0,180.5,119.5,172.5,120.0,164.5,120.5,156.0,120.5,147.5,120.5,139.0,121.0,131.0,121.0,123.5,122.0,116.0,123.0,108.0,123.5,100.0,124.0,92.5,124.5" stroke="black" stroke-width="2" fill="none" />
<polyline points="100.5,123.0,108.5,115.0,117.0,108.0,125.0,100.5,133.5,92.5" stroke="black" stroke-width="2" fill="none" />
<polyline points="131.0,92.5,139.0,94.0,147.0,95.0,154.5,96.0,162.5,96.0,171.0,97.5,179.0,98.0,187.5,98.0,195.5,98.5" stroke="black" stroke-width="2" fill="none" />
<polyline points="187.0,97.0,195.5,90.0,204.0,83.0,212.5,76.0,220.5,68.5" stroke="black" stroke-width="2" fill="none" />
<polyline points="227.5,68.5,219.5,76.0,211.5,83.0,203.5,90.0,195.5,97.0,187.5,104.5,179.5,112.0,171.5,120.0,163.5,127.5,155.0,135.5,147.5,142.5,139.5,150.0,131.5,158.0,123.5,166.0,115.5,173.5,108.0,181.0,100.0,188.5" stroke="black" stroke-width="2" fill="none" />
<polyline points="107.0,197.5,116.0,190.5,124.5,182.5,132.5,175.0,140.5,168.0,149.5,159.5,157.5,152.0,165.0,144.5,173.0,137.0,180.5,129.0,188.0,120.5,196.0,113.0,204.0,105.0,212.5,96.5,220.5,89.0,229.0,82.0,237.0,74.5" stroke="black" stroke-width="2" fill="none" />
<polyline points="242.5,78.0,234.5,85.0,226.5,92.5,218.5,99.5,210.5,106.0,203.0,113.0,195.0,120.0,187.5,128.0,179.5,135.0,172.5,142.5,164.5,150.0,156.5,158.0,148.5,165.5,140.0,173.5,131.5,181.0,123.0,188.5,115.0,196.0" stroke="black" stroke-width="2" fill="none" />
<polyline points="130.0,195.5,138.5,188.0,147.0,180.5,155.0,173.0,163.5,165.5,171.5,158.5,179.5,151.0,188.0,143.5,196.0,136.0,204.0,128.5,212.0,120.5,219.0,112.5,227.0,105.0,235.0,97.5,243.0,89.5,251.5,81.5,259.5,74.0" stroke="black" stroke-width="2" fill="none" />
<polyline points="250.0,76.0,242.5,83.5,235.0,90.5,227.5,98.0,220.0,105.5,212.0,112.5,204.5,120.5,197.0,128.5,189.0,136.5,181.0,144.0,173.5,151.5,165.0,159.0,157.0,167.0,149.0,174.5,140.5,181.5,132.0,189.0,123.5,196.5" stroke="black" stroke-width="2" fill="none" />
<polyline points="129.5,185.0,138.0,184.5,146.5,184.0,155.0,183.5,163.5,183.5,171.5,183.0,180.0,182.5,188.0,181.5,195.5,181.0,203.5,180.0,211.5,179.5,219.5,179.0,227.0,179.0,235.0,179.0,243.0,179.0,251.5,178.5,259.0,178.5,267.0,178.0,275.0,178.0,283.5,177.5,291.5,177.0,299.5,176.0,307.5,175.5,315.5,175.0,323.5,174.5,331.5,173.5,340.0,173.0,348.5,172.0,357.0,171.5,365.0,171.0,373.0,170.0,381.0,170.0,389.0,170.0" stroke="black" stroke-width="2" fill="none" />
<polyline points="389.5,125.0,381.5,132.5,372.5,141.0,364.5,148.0,356.5,155.5,348.0,163.5,339.0,170.5,330.5,178.0,322.5,185.5,314.0,193.5,306.0,201.0,298.0,208.5,290.0,215.5" stroke="black" stroke-width="2" fill="none" />
<polyline points="324.0,214.0,331.5,206.5,339.0,199.0,347.0,191.5,355.5,184.0,364.0,176.5,372.5,168.5,381.0,161.0,389.5,153.0,397.5,145.5,405.5,138.0,413.5,131.0,421.5,123.5,429.5,116.0" stroke="black" stroke-width="2" fill="none" />
<polyline points="421.5,114.5,413.0,122.0,404.5,129.5,396.5,137.0,388.5,144.5,380.5,152.0,372.0,159.5,363.5,166.5,355.0,173.5,346.5,181.5,338.5,189.0,330.5,196.0,322.0,204.0,314.0,212.0" stroke="black" stroke-width="2" fill="none" />
<polyline points="329.5,212.5,337.5,205.0,345.5,197.5,353.5,190.0,362.0,182.5,370.5,175.0,379.0,168.0,387.0,160.5,395.5,153.0,403.5,145.5,412.0,138.5,420.5,131.0" stroke="black" stroke-width="2" fill="none" />
<polyline points="435.5,141.5,443.5,141.5,451.5,141.5" stroke="black" stroke-width="2" fill="none" />
<polyline points="449.5,148.5,441.5,149.5" stroke="black" stroke-width="2" fill="none" />
<polyline points="442.5,156.0,450.5,156.0" stroke="black" stroke-width="2" fill="none" />
<polyline points="451.5,164.0,443.5,164.5" stroke="black" stroke-width="2" fill="none" />
<polyline points="444.5,172.5,452.0,171.5" stroke="black" stroke-width="2" fill="none" />
<polyline points="451.0,181.5,442.5,182.0" stroke="black" stroke-width="2" fill="none" />
<polyline points="444.0,188.5,452.0,188.0,460.0,188.0" stroke="black" stroke-width="2" fill="none" />
<polyline points="461.0,191.5,456.0,199.0,448.5,207.0,441.5,215.0,434.5,222.5,428.5,230.5,421.0,238.5,414.0,247.0,407.0,255.0,401.5,262.5,394.5,271.0,387.5,279.0,382.5,287.0,377.5,291.0,386.5,281.0,394.5,270.5,402.5,260.5,410.5,251.5,418.0,242.5,426.5,232.5,434.0,222.0,442.5,213.0,451.0,204.0,459.0,194.0" stroke="black" stroke-width="2" fill="none" />
<polyline points="459.0,195.5,451.0,195.5,442.5,195.5" stroke="black" stroke-width="2" fill="none" />
<polyline points="435.5,206.5,444.0,206.0,452.0,205.5,460.0,205.0" stroke="black" stroke-width="2" fill="none" />
<polyline points="450.5,212.5,442.5,213.0,433.5,213.0,425.5,213.0" stroke="black" stroke-width="2" fill="none" />
<polyline points="426.0,221.5,434.5,221.0,443.0,220.5" stroke="black" stroke-width="2" fill="none" />
<polyline points="427.0,236.0,419.5,236.0,411.5,236.5" stroke="black" stroke-width="2" fill="none" />
<polyline points="406.0,235.5,414.0,224.5,422.0,219.5,430.5,207.5,441.5,205.0" stroke="black" stroke-width="2" fill="none" />
<polyline points="437.0,226.0,428.5,226.5,420.0,226.5,412.0,227.0" stroke="black" stroke-width="2" fill="none" />
<polyline points="406.5,244.5,414.0,244.0,421.5,243.5" stroke="black" stroke-width="2" fill="none" />
<polyline points="412.5,260.5,405.0,261.0,397.0,261.5" stroke="black" stroke-width="2" fill="none" />
<polyline points="397.0,255.0,405.0,254.0,413.5,253.0,421.0,252.0" stroke="black" stroke-width="2" fill="none" />
<polyline points="403.5,269.0,395.5,269.5,387.0,270.0" stroke="black" stroke-width="2" fill="none" />
<polyline points="388.5,267.0,380.5,267.5,372.0,267.5,363.5,268.0,356.0,269.0,347.5,270.5,339.0,271.5,330.5,272.0,322.0,273.0,314.0,274.0,306.0,274.5,298.0,274.5,290.5,275.0,283.0,276.0,275.0,276.5,267.5,277.0,259.5,278.0,251.5,278.5,244.0,279.0,236.5,279.5,228.0,279.5,219.5,280.0,211.5,280.5,203.0,281.0,195.0,281.5,187.5,282.0,180.0,282.5,172.0,283.0,164.5,283.0,156.5,283.5,149.0,284.0,141.5,284.0,133.5,284.0,125.5,284.5" stroke="black" stroke-width="2" fill="none" />
<polyline points="117.5,283.5,126.0,276.0" stroke="black" stroke-width="2" fill="none" />
<polyline points="135.5,283.5,143.5,283.5,151.5,285.0,160.0,288.0,168.0,290.0,176.0,290.5,183.5,292.5,191.5,292.5,199.0,293.5,206.5,292.0,213.5,292.0,222.0,293.0,230.5,294.5,241.5,294.5" stroke="black" stroke-width="2" fill="none" />
<polyline points="235.5,291.5,227.5,299.5" stroke="black" stroke-width="2" fill="none" />
<polyline points="220.0,299.0,227.5,291.5" stroke="black" stroke-width="2" fill="none" />
<polyline points="236.0,301.5,244.0,300.5,252.0,300.0,260.5,299.5,268.5,298.5,277.0,298.0,284.5,297.5,292.0,296.5,300.0,296.0,308.0,296.0,316.0,295.5,324.0,295.0,332.0,295.0,339.5,294.5,347.0,294.5,355.0,294.0,363.0,293.5,371.5,293.0,379.5,292.5,388.0,292.0,395.5,291.5" stroke="black" stroke-width="2" fill="none" />
<polyline points="386.0,293.5,378.0,294.0" stroke="black" stroke-width="2" fill="none" />
<polyline points="387.0,305.0,378.5,306.0,370.0,306.5,362.0,307.5,354.0,308.5,346.0,309.5,338.0,310.0,330.0,311.0" stroke="black" stroke-width="2" fill="none" />
<polyline points="334.0,306.0,352.0,314.0,356.5,316.0,364.5,315.0,365.0,312.0,373.0,309.5,381.5,308.5" stroke="black" stroke-width="2" fill="none" />
<polyline points="354.0,308.0,346.0,315.5" stroke="black" stroke-width="2" fill="none" />
<polyline points="344.5,315.0,336.5,311.5,328.5,309.5,321.0,307.5,313.0,306.0,305.0,306.0,297.5,305.0,288.5,307.0,280.5,307.0,277.5,305.0,269.5,306.0,261.5,306.5,253.5,304.0,243.5,299.5,236.0,301.5,223.5,296.5,215.5,296.5,207.5,296.5,200.0,296.0,192.0,296.0,184.0,295.0,175.5,294.5,168.0,293.5,160.0,291.5,152.0,288.0,144.0,285.0,136.0,284.0,128.0,285.0,120.0,289.5,112.0,288.5,104.0,288.0,96.0,286.5,88.0,284.5,80.0,281.5,72.0,278.5,64.0,276.5,55.5,276.5,47.0,275.5,39.0,275.5,30.5,275.0" stroke="black" stroke-width="2" fill="none" />
<polyline points="35.0,271.5,43.0,271.0,51.0,270.0,59.0,269.5,66.5,269.0,74.0,268.5,82.0,267.5,90.5,267.5,98.5,267.5,106.5,267.0,115.0,266.5,122.5,266.0,131.0,265.5,139.0,264.5,147.0,263.5,155.0,263.0,162.5,262.0,170.0,261.5,177.5,261.0,185.5,260.0,193.5,259.0,201.5,259.0,210.5,259.0,218.5,258.5,227.0,257.5,235.0,256.5,243.0,256.0,250.5,255.5,258.5,255.0,266.5,254.5,274.0,254.0,282.5,253.5,290.5,253.5,299.0,252.5,307.5,252.0,316.0,251.5,324.0,250.5,332.0,250.5,340.0,250.0,347.5,249.5,355.5,249.0,364.0,248.5,371.5,248.0,379.5,247.5" stroke="black" stroke-width="2" fill="none" />
<polyline points="381.5,237.5,372.5,238.0,364.5,238.5,356.0,238.5,347.5,239.0,340.0,240.0,331.5,241.5,323.0,242.5,314.5,243.0,306.0,244.0,298.0,245.0,290.0,245.5,282.0,245.5,274.5,246.0,267.0,247.0,259.0,247.5,251.5,248.0,243.5,249.0,235.5,249.5,228.0,250.0,220.5,250.5,212.0,250.5,203.5,251.0,195.5,251.5,187.0,252.0,179.0,252.5,171.5,253.0,164.0,253.5,156.0,254.0,148.5,254.0,140.5,254.5,133.0,255.0,125.5,255.0,117.5,255.0,109.5,255.5,102.0,256.0,94.0,256.5,86.0,257.5,78.0,258.0,70.5,258.5,62.0,259.0,54.0,259.0,46.0,259.0,37.0,260.0,29.0,260.5" stroke="black" stroke-width="2" fill="none" />
<polyline points="20.5,264.0,28.0,262.0,36.0,260.0,44.0,260.5,52.0,260.5,60.0,262.0,68.0,263.0,76.5,264.5,85.0,267.5,93.0,269.5,101.5,271.5,109.5,272.5,117.0,274.0,123.5,268.0,131.5,268.0" stroke="black" stroke-width="2" fill="none" />
<polyline points="146.5,259.0,154.5,251.0" stroke="black" stroke-width="2" fill="none" />
<polyline points="156.0,260.0,164.0,252.5" stroke="black" stroke-width="2" fill="none" />
<polyline points="171.0,251.0,163.0,258.5,155.5,266.0" stroke="black" stroke-width="2" fill="none" />
<polyline points="170.0,268.0,178.5,261.0,186.5,253.5" stroke="black" stroke-width="2" fill="none" />
<polyline points="180.5,251.5,181.5,259.5" stroke="black" stroke-width="2" fill="none" />
<polyline points="186.5,265.0,195.0,257.5" stroke="black" stroke-width="2" fill="none" />
<polyline points="192.5,258.5,200.5,257.5" stroke="black" stroke-width="2" fill="none" />
<polyline points="205.0,260.5,197.5,268.0" stroke="black" stroke-width="2" fill="none" />
<polyline points="193.0,251.5,185.5,259.0,178.0,267.0" stroke="black" stroke-width="2" fill="none" />
<polyline points="176.5,263.5,177.0,255.5,177.0,253.5" stroke="black" stroke-width="2" fill="none" />
<polyline points="172.0,242.5,180.5,239.5" stroke="black" stroke-width="2" fill="none" />
<polyline points="180.0,237.5,185.0,245.5,189.0,244.5,197.0,244.5,205.0,249.5,213.0,253.5,220.5,251.0,228.5,246.5,236.5,251.5" stroke="black" stroke-width="2" fill="none" />
<polyline points="227.5,248.5,218.5,256.0" stroke="black" stroke-width="2" fill="none" />
<polyline points="216.5,260.0,210.0,252.0" stroke="black" stroke-width="2" fill="none" />
<polyline points="186.0,243.0,178.5,250.5,170.5,258.5,163.0,265.5" stroke="black" stroke-width="2" fill="none" />
<polyline points="146.5,283.0,159.0,292.0" stroke="black" stroke-width="2" fill="none" />
<polyline points="172.5,292.5,180.5,292.5,187.5,292.0,195.5,291.5,203.5,291.0,212.0,290.5,220.0,290.0,228.5,289.5,236.5,289.5,244.0,289.0,252.0,288.5,260.0,288.5,268.5,288.0,277.0,287.0,285.5,286.0,293.0,285.5,301.0,285.0,308.0,284.5,315.5,284.5,323.0,284.0,330.5,283.5,338.5,283.0,346.5,282.5,354.5,282.0,362.0,282.0" stroke="black" stroke-width="2" fill="none" />
<polyline points="370.5,289.0,362.5,290.5,354.5,289.0,346.5,291.0,338.0,288.0,331.5,283.5,323.5,282.5,315.5,282.5,307.5,281.0,299.5,280.0,291.0,278.0,287.5,282.0,280.0,282.0,271.5,285.0,264.0,284.0,256.5,282.0,248.5,278.5,241.5,280.5,233.5,278.0" stroke="black" stroke-width="2" fill="none" />
<polyline points="234.5,278.0,238.5,286.0,234.0,295.0,226.0,304.0" stroke="black" stroke-width="2" fill="none" />
<polyline points="276.0,286.5,284.5,286.0,292.5,285.0,300.5,284.5,308.5,284.5,316.5,285.0,325.0,286.0" stroke="black" stroke-width="2" fill="none" />
<polyline points="322.0,277.5,330.0,278.5" stroke="black" stroke-width="2" fill="none" />
<polyline points="334.0,274.0,337.5,265.5,337.5,257.5,333.5,249.5,332.5,239.5,324.5,238.0,316.5,241.0,308.5,243.5,301.0,244.5,292.5,243.5,284.5,242.5,276.5,241.0,268.5,241.0,260.5,246.0" stroke="black" stroke-width="2" fill="none" />
<polyline points="260.0,253.5,268.0,250.5" stroke="black" stroke-width="2" fill="none" />
<polyline points="265.5,271.0,262.0,276.0,265.0,268.0,258.0,257.0,259.0,248.5,264.0,241.0,255.5,235.5,247.5,234.0" stroke="black" stroke-width="2" fill="none" />
<polyline points="248.0,233.0,247.0,241.0,247.5,249.0,248.5,257.0,248.5,265.0,248.5,273.5,246.0,284.0,246.0,286.0,251.5,291.0,259.5,293.0,267.5,293.5,275.5,294.5,283.0,296.0,291.0,296.0,299.0,294.5,307.5,294.5,315.5,294.5,323.5,296.0,331.5,298.0,339.5,300.0,347.5,301.0,353.5,292.5,361.5,294.5" stroke="black" stroke-width="2" fill="none" />
<polyline points="367.0,305.0,359.0,304.5,355.5,301.0,350.5,310.0,342.5,307.0,334.5,304.0,326.5,302.0,318.5,301.0,310.5,300.0,302.5,301.0,294.0,302.0,286.5,301.5,278.0,301.5,270.0,300.5,262.0,300.5,254.0,299.5,246.0,295.5,237.0,290.0,227.0,286.5,219.0,285.5,211.5,286.5,203.5,287.0,196.5,286.5,189.0,287.0,181.0,286.0,173.5,285.0,165.0,283.0,157.0,281.0,149.0,277.0,141.0,275.5,133.0,277.5,132.5,280.5,124.0,281.5,116.0,280.0,107.5,279.0,100.0,277.5,92.0,276.0,84.0,274.0,76.0,271.0,68.0,268.0,60.5,267.0,52.5,267.0,44.0,265.5,36.0,265.5,28.0,260.5,20.0,255.5" stroke="black" stroke-width="2" fill="none" />
<polyline points="20.0,253.5,28.0,253.5,36.5,253.0,44.5,253.0,52.5,253.0,60.0,252.5,67.5,252.0,75.0,252.0,83.0,251.5,91.0,251.0,99.5,250.5,107.0,250.0,115.5,249.0,123.5,248.5,131.0,247.5,139.0,247.0,146.5,246.5,154.5,246.0,162.5,246.0,170.0,245.5,178.0,245.5,186.0,244.5,194.0,244.0,202.0,243.5,210.5,243.5,219.0,243.5,227.5,242.5,235.5,241.5,244.0,241.0,252.0,240.5,259.5,240.0,267.5,239.5,276.0,238.5,284.5,238.0,293.0,238.0,301.5,237.0,309.5,236.5,317.0,236.0,325.0,235.0,332.5,234.5,340.0,234.0,348.5,233.5,356.5,232.5,365.0,231.5,373.5,231.0,381.5,230.5" stroke="black" stroke-width="2" fill="none" />
<polyline points="376.0,231.5,384.0,218.0,392.0,199.0,400.0,182.0,408.5,165.5,416.5,148.5,425.0,131.5,433.0,113.0,441.5,99.0,436.5,107.0,432.0,115.0,429.0,123.0,425.5,131.0,422.5,139.0,419.0,147.0,415.0,155.0,411.5,163.0,407.0,170.5,404.0,178.5,399.5,186.5,395.5,194.5,392.5,202.5,389.0,210.0,385.0,218.0,381.5,226.0,380.0,233.5,380.0,241.5,379.5,249.5,379.5,257.5,378.5,266.0,379.5,273.5,379.5,282.0,376.5,294.0,375.5,306.0,383.5,301.0,383.0,303.0,396.0,296.0,404.0,286.0,412.5,274.5,420.5,264.0,428.5,254.0,436.5,244.0,444.5,234.5,452.0,224.5,460.0,214.5,468.0,205.0,470.0,208.0,463.0,216.5,457.0,224.5,450.0,233.0,444.5,241.0,437.0,249.0,431.0,257.0,424.5,265.0,418.5,272.5,411.5,280.0,405.5,288.0,399.5,295.5,393.5,303.5,392.5,309.0" stroke="black" stroke-width="2" fill="none" />
<polyline points="372.0,300.5,364.0,302.0,355.5,303.0,354.5,309.5,352.0,309.5,346.0,301.5,346.5,293.5" stroke="black" stroke-width="2" fill="none" />
<polyline points="313.5,298.0,305.5,297.5,297.5,297.5" stroke="black" stroke-width="2" fill="none" />
<polyline points="307.0,276.5,299.0,274.5,291.5,273.5" stroke="black" stroke-width="2" fill="none" />
<polyline points="276.0,210.0,284.0,203.0,292.5,195.5,300.5,188.0,309.0,181.0,317.0,174.0,325.0,167.0,333.0,159.0,341.0,152.0,348.5,145.0,356.0,137.5,363.5,130.0,371.0,122.0,378.5,114.5,386.0,106.5,393.5,99.0,402.0,91.5,410.5,84.0" stroke="black" stroke-width="2" fill="none" />
<polyline points="403.0,83.5,395.5,91.0,388.0,98.0,380.0,105.5" stroke="black" stroke-width="2" fill="none" />
<polyline points="388.0,114.0,395.5,107.0,403.5,100.0,411.5,92.0,419.5,84.5" stroke="black" stroke-width="2" fill="none" />
<polyline points="428.0,83.0,420.0,91.0,412.0,98.5,404.0,106.0" stroke="black" stroke-width="2" fill="none" />
<polyline points="402.0,107.5,410.0,107.5,418.0,109.5" stroke="black" stroke-width="2" fill="none" />
<polyline points="412.5,106.0,421.0,99.0,429.0,91.0" stroke="black" stroke-width="2" fill="none" />
<polyline points="435.0,88.0,443.0,88.0,451.0,85.5,459.0,80.0,451.0,85.0" stroke="black" stroke-width="2" fill="none" />
<polyline points="452.0,80.5,444.5,80.5,436.5,81.0,428.5,81.0,420.5,81.5,411.5,82.0,403.5,83.0,395.0,83.0,387.0,84.0,378.5,85.0,370.5,86.5,362.5,87.5,354.5,88.0,346.5,89.0,338.5,89.5,330.0,89.0,322.0,89.0,314.0,89.0,306.0,89.0,298.5,89.0,290.5,89.0,283.0,89.5,275.0,89.5,266.5,89.5,259.0,90.0,251.0,90.5,242.5,91.0,233.5,91.5,225.0,92.5,217.0,93.5,209.0,94.0,201.0,95.0,193.0,96.0,184.5,97.0,176.5,97.0,169.0,97.0,161.5,97.5,154.0,98.5,146.0,99.0,138.0,99.5,130.5,99.5,123.0,100.0,115.0,100.5,107.0,101.5" stroke="black" stroke-width="2" fill="none" />
<polyline points="113.5,94.0,121.5,93.5,129.5,93.0,137.5,92.5,145.5,91.5,153.5,90.5,161.5,90.0,170.5,89.5,179.0,89.0,187.5,88.5,195.5,88.5,204.0,88.0,211.5,87.5,219.5,86.5,227.5,86.0,235.5,85.5,243.5,85.0,251.5,85.0,259.5,84.5,267.5,84.5,275.5,83.5,283.5,83.5,291.0,83.0,299.0,82.5,307.0,82.0,315.0,81.5,322.5,81.0,330.0,80.5,338.0,80.0,346.0,79.5,354.0,79.0,362.5,78.5,371.0,77.5,379.5,77.0,388.0,76.5,396.0,75.5,404.5,75.5,413.0,75.5,421.0,75.5,429.0,75.0,437.5,74.5,445.0,74.0,453.0,74.0,461.0,73.5" stroke="black" stroke-width="2" fill="none" />
<polyline points="467.5,69.5,475.5,69.5" stroke="black" stroke-width="2" fill="none" />
<polyline points="474.0,54.5,466.5,54.5,458.5,54.5,450.5,55.5,442.0,56.0,434.5,56.5,427.0,56.5,419.0,57.5,410.0,59.0,402.0,59.5,394.0,60.0,386.0,60.0,378.0,60.5,370.0,61.0,362.0,61.5,354.0,62.0,346.0,62.0,337.5,63.0,329.5,63.5,322.0,64.0,314.5,65.0,308.0,66.5,300.5,67.5,293.5,68.5,285.5,69.0,277.0,69.5,269.0,70.0,261.0,70.0,253.0,70.5,244.5,70.5,236.5,71.0,227.5,71.5,219.0,71.5,211.0,71.5,203.0,72.0,195.0,72.5,187.5,73.0,179.5,73.5,171.5,74.5,164.0,75.0,156.0,75.0,147.5,75.5,139.5,75.5,131.5,76.0,123.5,76.5" stroke="black" stroke-width="2" fill="none" />
<polyline points="125.0,76.0,117.0,75.0" stroke="black" stroke-width="2" fill="none" />
<polyline points="123.0,69.0,130.5,69.0,138.5,68.5,146.5,68.0,155.0,67.0,163.0,66.5,171.5,66.0,179.5,65.5,187.5,65.0,196.0,64.5,204.5,64.0,212.5,63.5,220.0,63.0,228.0,62.5,236.0,62.5,244.0,62.0,252.5,61.5,261.0,61.0,269.5,61.0,277.5,61.0,285.5,60.5,293.0,60.5,301.0,60.0,308.5,59.0,316.5,59.0,324.5,58.5,331.5,57.5,339.0,56.5,346.5,55.5,354.0,55.0,362.0,55.0,370.5,54.0,379.0,53.5,387.5,52.5,395.5,51.5,404.0,51.0" stroke="black" stroke-width="2" fill="none" />
<polyline points="396.5,83.0,388.5,91.0,380.5,98.5,372.0,106.5" stroke="black" stroke-width="2" fill="none" />
<polyline points="363.5,107.0,372.0,99.5,380.5,92.5,388.5,85.0" stroke="black" stroke-width="2" fill="none" />
<polyline points="380.0,82.0,372.0,89.5,363.5,97.5,356.0,106.0" stroke="black" stroke-width="2" fill="none" />
<polyline points="347.5,105.5,355.0,98.0,363.0,90.5,370.5,83.0" stroke="black" stroke-width="2" fill="none" />
<polyline points="365.0,82.0,373.0,83.0,381.0,83.5,389.0,83.5,397.0,82.0,405.5,83.0,413.5,83.0,421.5,83.5,429.5,83.5,437.5,85.0,445.5,83.0,453.5,79.0,462.0,73.0,470.0,66.0,478.0,60.0,486.0,54.5,494.5,48.5" stroke="black" stroke-width="2" fill="none" />
<polyline points="464.5,85.5,472.5,79.5,474.0,70.5,464.0,79.0,455.0,87.5,453.5,95.5,457.0,86.0,465.0,80.5,473.0,74.0,477.0,71.0,478.0,77.0,469.0,85.0,465.0,93.0,464.0,101.0,464.5,109.5,464.5,117.0,464.5,125.0,464.0,133.0,463.0,140.5,462.5,148.5,462.5,156.0,462.5,164.5,461.5,172.5,461.5,181.0,460.5,189.0,454.0,197.0,449.0,201.0,442.5,209.5,435.5,217.5,429.0,225.5,422.0,233.5,415.0,241.0,409.0,249.0,412.0,243.5,420.0,234.0,428.5,225.0,437.0,215.5,445.0,206.0,453.5,198.0,461.5,190.0,469.5,193.0,473.5,199.0" stroke="black" stroke-width="2" fill="none" />
<polyline points="464.0,192.0,471.0,200.0,466.0,208.0,459.0,216.0,452.0,224.0,446.0,231.5,440.5,240.0,433.5,248.0,427.5,256.0,422.0,264.0,415.0,272.0,409.0,280.0,403.0,288.0,397.0,296.0,390.5,303.5" stroke="black" stroke-width="2" fill="none" />
<polyline points="375.0,287.5,375.0,283.0,375.5,275.5,375.5,267.5" stroke="black" stroke-width="2" fill="none" />
<polyline points="297.5,213.5,305.0,206.0,313.0,199.0,321.5,191.5,330.5,184.0,339.0,177.0,347.5,169.5,356.0,162.0,364.5,154.5,373.0,147.5,381.0,140.0,389.0,132.0,397.5,124.5" stroke="black" stroke-width="2" fill="none" />
<polyline points="397.0,125.5,397.0,129.5" stroke="black" stroke-width="2" fill="none" />
<polyline points="379.5,123.5,371.5,131.0,363.5,139.0,355.5,147.0,347.5,154.5,340.0,162.0,332.0,169.5,324.0,177.0,315.5,184.5,307.0,192.0,299.0,199.5,291.0,207.0,283.5,214.0" stroke="black" stroke-width="2" fill="none" />
<polyline points="267.0,212.5,275.0,205.0,283.5,197.5,291.5,190.0,299.5,182.5,307.5,175.0,315.5,167.5,323.5,160.5,331.5,153.0,339.5,145.5,347.5,138.0,355.0,131.0,363.0,123.5,371.0,116.0" stroke="black" stroke-width="2" fill="none" />
<polyline points="354.0,126.0,346.0,133.5,338.5,140.0,330.5,147.0,322.0,155.0,314.0,162.5,306.0,169.5,298.0,176.5,289.5,184.0,281.0,192.0,273.0,199.5,265.0,207.0,257.5,214.5" stroke="black" stroke-width="2" fill="none" />
<polyline points="236.0,203.0,244.0,195.0,252.5,187.5,261.0,180.0,269.0,172.5,277.0,165.0,285.0,158.0,293.0,150.5,300.5,143.5,308.0,136.0,316.0,128.0,323.5,121.0,331.5,113.5,339.5,106.5,347.0,99.0,354.5,91.5,362.0,84.0" stroke="black" stroke-width="2" fill="none" />
<polyline points="356.0,75.5,348.0,83.0,339.5,90.5,331.0,98.0" stroke="black" stroke-width="2" fill="none" />
<polyline points="327.5,95.5,332.0,91.5" stroke="black" stroke-width="2" fill="none" />
<polyline points="339.5,96.5,347.5,88.5,355.0,80.5,363.0,73.0" stroke="black" stroke-width="2" fill="none" />
<polyline points="348.0,75.5,340.0,83.5,332.0,91.5,324.0,99.0,316.0,107.0,307.5,114.5,299.5,122.5,291.0,130.0,282.5,137.5,274.0,145.0,265.5,152.5,257.5,159.5,250.0,166.5,242.0,173.5,234.0,180.5,226.5,188.0,219.0,196.0,211.5,204.0" stroke="black" stroke-width="2" fill="none" />
<polyline points="203.5,204.0,211.0,196.5,218.5,189.5,226.5,182.0,234.5,174.0,242.5,166.5,250.5,159.5,258.5,152.5,266.5,144.5,274.5,137.0,282.5,129.5,291.0,121.0,299.5,113.0,307.5,105.0,315.5,97.0,323.0,89.0,330.5,81.0,338.5,73.5" stroke="black" stroke-width="2" fill="none" />
<polyline points="331.5,73.0,324.0,80.5,316.5,88.5,308.5,96.0,301.5,103.5,294.0,111.0,286.0,119.0,277.5,127.5,269.5,136.0,261.5,143.5,253.5,151.0,245.5,158.5,237.5,166.0,229.5,173.0,221.5,180.5,213.5,188.0,205.0,196.0,196.5,203.5" stroke="black" stroke-width="2" fill="none" />
<polyline points="196.5,211.0,204.5,213.0,212.5,214.0,220.5,214.0,229.0,216.0,237.0,215.5,245.0,216.5,253.0,217.5,261.0,218.0,269.0,221.0,277.5,222.5,285.5,222.5,293.0,221.5,300.5,220.0,308.5,219.0,316.5,219.5,324.5,220.0,333.0,221.0,341.0,222.5,349.0,224.5,357.0,225.5,365.5,221.5,373.0,219.5,381.0,202.5,388.5,186.5,396.5,170.5,404.0,154.0,412.0,138.0,419.5,122.5" stroke="black" stroke-width="2" fill="none" />
<polyline points="442.5,131.5,451.0,131.0" stroke="black" stroke-width="2" fill="none" />
<polyline points="453.5,122.0,446.0,122.5" stroke="black" stroke-width="2" fill="none" />
<polyline points="444.0,117.5,452.0,117.5" stroke="black" stroke-width="2" fill="none" />
<polyline points="453.0,109.5,445.5,110.0" stroke="black" stroke-width="2" fill="none" />
<polyline points="447.5,104.5,448.5,113.0,448.5,121.0,447.5,129.0,446.5,137.0,445.0,145.0,446.5,153.0,447.0,161.0,450.0,169.0,450.0,177.0,449.0,185.0,447.0,192.5,443.5,201.0,437.5,205.0" stroke="black" stroke-width="2" fill="none" />
<polyline points="404.5,147.5,395.5,148.5,387.0,149.5,378.5,150.0,370.5,150.5,362.5,151.0,355.5,151.5,347.5,152.0,339.0,152.0,331.5,152.5" stroke="black" stroke-width="2" fill="none" />
<polyline points="332.5,145.0,341.0,144.0" stroke="black" stroke-width="2" fill="none" />
<polyline points="323.5,136.5,316.0,137.0,307.5,137.5" stroke="black" stroke-width="2" fill="none" />
<polyline points="315.0,129.0,323.0,128.5" stroke="black" stroke-width="2" fill="none" />
<polyline points="324.5,120.5,316.5,121.0" stroke="black" stroke-width="2" fill="none" />
<polyline points="317.5,112.5,325.5,112.0" stroke="black" stroke-width="2" fill="none" />
<polyline points="329.0,113.5,337.0,113.5,345.0,113.5,353.0,115.0,360.5,115.0,368.5,116.0,382.5,117.0,391.0,117.0,399.0,116.5,407.5,118.0" stroke="black" stroke-width="2" fill="none" />
<polyline points="419.5,94.0,412.0,94.5,404.0,95.0,395.5,95.5,387.5,96.5,379.0,97.5,370.5,97.5,362.0,97.5,354.0,98.0,346.0,98.5,338.0,99.5" stroke="black" stroke-width="2" fill="none" />
<polyline points="332.5,105.5,324.5,112.5,316.5,120.5,308.5,128.5,300.5,137.0,292.0,145.5,284.5,153.0,276.0,160.5,267.5,168.0,259.0,175.5,250.5,182.5,243.0,190.0,235.5,197.5,228.0,205.0" stroke="black" stroke-width="2" fill="none" />
<polyline points="228.5,209.0,236.5,208.5,245.0,208.0,252.5,207.5,260.0,207.0,268.0,206.5,276.0,206.0,284.0,205.0,292.5,204.0,300.5,203.5,308.5,203.5,316.0,202.5,323.5,202.0,332.0,202.0,340.5,202.0,349.0,202.0,357.0,201.5,365.0,200.5,373.0,199.5,381.0,198.5" stroke="black" stroke-width="2" fill="none" />
<polyline points="347.5,123.0,340.0,130.5,331.5,138.0,323.5,145.5,315.5,152.5,307.5,160.0,299.5,167.5,291.5,174.0,284.0,181.5,276.0,189.0,268.0,196.5,260.0,204.0" stroke="black" stroke-width="2" fill="none" />
<polyline points="251.5,206.0,260.0,198.5,268.0,191.0,276.0,184.0,284.0,176.5,292.5,169.5,300.5,161.5,309.0,154.5,317.0,147.0,325.0,139.0,333.0,131.0,341.0,123.0,349.0,115.0" stroke="black" stroke-width="2" fill="none" />
<polyline points="339.5,115.5,331.5,123.0,323.5,131.0,315.0,138.5,307.0,146.0,298.5,153.5,290.0,161.5,281.5,169.0,273.0,177.0,265.0,185.0,257.0,193.0,249.5,200.5,242.0,208.0" stroke="black" stroke-width="2" fill="none" />
<polyline points="220.5,204.5,228.5,197.0,237.0,190.0,245.0,182.0,253.0,175.0,261.0,168.0,269.0,160.5,277.0,152.5,285.0,145.0,293.0,137.5,301.0,130.0,308.5,122.0,316.5,114.5,324.5,107.0" stroke="black" stroke-width="2" fill="none" />
<polyline points="322.5,101.5,330.5,101.5,338.0,103.0" stroke="black" stroke-width="2" fill="none" />
<polyline points="332.0,126.0,334.0,122.5,336.0,115.5,344.5,118.0,352.5,119.0,361.0,119.0,369.0,119.5,376.5,119.5,384.5,119.5,392.5,120.5,400.5,118.5" stroke="black" stroke-width="2" fill="none" />
<polyline points="396.0,146.0,388.0,146.5,380.0,146.5,372.0,146.5,364.0,147.5,356.5,148.5,349.0,149.0,341.5,150.0,333.5,150.5,325.5,151.5,317.5,151.5,309.0,152.0,301.0,152.0,293.0,152.5,285.0,153.5,277.0,153.5,269.0,153.5,261.0,153.5,252.5,153.5,245.0,153.0,237.0,153.0,228.5,153.5,220.0,153.5,212.0,154.0,204.0,154.5,196.0,155.5,188.0,156.0,179.5,157.0,171.0,158.0,163.0,158.0,155.0,158.0,147.0,159.0,139.5,159.5,131.5,160.0" stroke="black" stroke-width="2" fill="none" />
<polyline points="122.5,154.5,130.5,153.5,138.0,153.0,145.5,152.5,153.5,152.0,161.0,151.5,169.0,151.0,177.5,151.0,186.0,151.0,194.0,150.5,202.0,150.0,210.0,149.0,218.0,148.5,226.0,147.5,234.0,146.5,242.0,145.5,250.5,145.0,259.0,144.0,266.5,143.5,274.5,143.5,282.5,143.0,290.5,143.0,299.0,142.5,307.0,142.0,315.5,141.5,323.5,141.5" stroke="black" stroke-width="2" fill="none" />
<polyline points="324.0,132.0,316.0,132.0,307.0,132.0,298.5,132.0,290.0,132.5,282.0,133.0,274.5,133.5,266.0,134.0,258.5,134.5,251.0,135.0,243.5,136.0,235.0,136.5,226.0,137.5,218.0,138.5,210.0,139.5,202.0,140.0,194.0,140.5,186.0,141.5,178.0,142.5,170.0,142.5,162.0,143.0,154.5,143.5,146.5,144.5,138.5,145.0,130.5,145.5,123.0,145.5" stroke="black" stroke-width="2" fill="none" />
<polyline points="132.5,138.0,140.5,137.5,149.0,136.5,157.0,136.0,165.0,135.5,173.0,135.0,181.5,134.5,190.0,133.5,198.0,133.0,206.0,132.5,214.5,131.5,222.0,131.0,229.5,130.5,237.5,130.0,245.0,130.0" stroke="black" stroke-width="2" fill="none" />
<polyline points="248.5,138.0,257.0,137.0" stroke="black" stroke-width="2" fill="none" />
<polyline points="260.0,127.5,268.0,124.0" stroke="black" stroke-width="2" fill="none" />
<polyline points="289.0,114.0,289.5,114.0,295.0,117.0,296.0,118.0" stroke="black" stroke-width="2" fill="none" />
<polyline points="314.5,85.0,307.0,85.5,299.5,85.5,291.5,85.5,284.0,85.5,276.0,86.0,268.5,86.5,260.5,87.5,253.0,88.0,245.0,88.5,237.0,88.5" stroke="black" stroke-width="2" fill="none" />
<polyline points="226.5,102.5,234.5,104.0,242.5,104.5,251.0,105.5,259.0,105.5,267.0,107.0,275.0,106.5,283.0,107.5,290.5,107.0,298.5,108.0" stroke="black" stroke-width="2" fill="none" />
<polyline points="235.5,127.0,227.0,127.0,219.0,127.0,210.5,127.0,202.5,127.5" stroke="black" stroke-width="2" fill="none" />
<polyline points="210.5,120.0,218.0,119.5,226.0,118.5" stroke="black" stroke-width="2" fill="none" />
<polyline points="218.5,112.5,210.5,113.0" stroke="black" stroke-width="2" fill="none" />
<polyline points="211.5,103.5,219.0,103.0" stroke="black" stroke-width="2" fill="none" />
<polyline points="229.0,104.5,237.0,106.0,245.0,109.0,252.5,110.0,260.5,110.5,268.5,112.0,276.0,111.5,284.0,112.5,291.5,110.5,292.0,114.0" stroke="black" stroke-width="2" fill="none" />
<polyline points="237.5,66.0,229.0,73.0,221.0,81.0,213.0,89.0,205.5,96.5,197.5,104.5,189.5,112.0,181.0,120.0,173.0,128.0,164.5,136.0,156.5,144.0,148.5,151.5,140.0,158.5,131.5,166.0,122.5,173.5,114.0,181.0,106.0,188.5,98.5,196.0" stroke="black" stroke-width="2" fill="none" />
<polyline points="92.0,190.5,100.0,182.5,108.0,175.5,116.5,168.5,125.0,161.0,133.5,154.0,141.5,146.5,149.5,139.5,157.5,131.5,165.0,124.0,173.0,116.0,181.0,108.5" stroke="black" stroke-width="2" fill="none" />
<polyline points="171.5,100.0,163.0,107.5,155.0,114.5,147.0,121.0,139.0,128.0,131.5,135.0,123.0,142.0,115.5,150.0,107.5,157.5,100.0,164.5,92.5,172.5,84.5,179.5,76.5,187.5" stroke="black" stroke-width="2" fill="none" />
<polyline points="83.5,187.5,91.5,180.0,99.5,172.5,107.5,165.0,115.0,158.0,123.0,150.5,131.0,143.0,139.0,135.5,146.5,127.5,154.5,120.0,163.0,113.0,171.0,105.5,179.5,98.5,187.5,91.5,195.5,84.0,204.0,76.5,212.0,69.0" stroke="black" stroke-width="2" fill="none" />
<polyline points="202.5,67.5,194.5,75.0,186.5,82.5,178.5,90.0" stroke="black" stroke-width="2" fill="none" />
<polyline points="179.5,68.0,171.5,75.5,163.5,82.5,156.0,90.0" stroke="black" stroke-width="2" fill="none" />
<polyline points="146.0,90.5,154.0,82.5,162.5,75.0,171.0,68.0" stroke="black" stroke-width="2" fill="none" />
<polyline points="163.5,69.0,155.5,76.5,148.0,83.5,140.5,91.0,133.0,99.0,125.5,106.0,117.5,113.5,109.0,121.0,101.0,128.0,92.5,135.5,84.0,143.0,76.5,150.5,68.5,157.5,61.0,164.5" stroke="black" stroke-width="2" fill="none" />
<polyline points="58.0,164.0,66.5,163.5,74.5,163.0,82.5,162.5,91.0,161.5,99.5,161.0,107.5,160.5,115.5,160.5,124.0,160.0,132.0,159.0,140.0,158.5,148.0,158.0,156.0,158.0,164.5,157.5,173.0,156.5,180.5,155.5,188.5,155.0,196.5,154.0,205.0,153.5,213.5,153.0,222.0,152.5,229.5,152.0,237.0,152.0,244.5,152.0,252.5,152.0,260.5,152.0,268.5,152.0,276.5,152.0,285.0,152.0,293.5,151.5,301.0,151.5,309.5,151.0,317.0,150.5,324.5,150.0,332.5,149.0,340.0,148.5,347.5,147.5,355.0,146.5,363.0,146.0,370.5,145.5,378.5,145.0,387.0,144.5,395.0,144.0,403.5,143.5,411.5,142.5" stroke="black" stroke-width="2" fill="none" />
<polyline points="397.0,160.5,389.0,161.0,380.5,161.0,372.5,161.5,364.5,162.0,356.5,162.0,348.0,163.0,339.5,164.0,331.0,165.0,323.0,166.0,315.0,167.0,308.0,167.5,300.0,168.0,292.0,168.0,284.0,168.5,275.5,169.5,267.5,170.0,259.5,170.5,251.5,170.5,243.5,171.0,235.5,171.5,226.5,172.0,218.0,172.5,210.0,172.5,202.0,173.0,194.5,173.5,187.0,174.5,179.5,175.5,171.5,176.5,163.5,177.0,156.0,177.0,148.0,177.0,140.5,176.5,132.0,176.5,124.0,177.0" stroke="black" stroke-width="2" fill="none" />
<polyline points="123.5,171.5,131.0,171.0,139.5,170.0,147.5,169.5,155.0,168.5,163.0,168.0,170.5,167.5,178.5,167.0,186.5,167.0,194.0,166.5,202.0,166.5,210.0,165.5,218.0,165.0,226.0,164.5,234.5,164.5,243.0,164.5,251.5,163.5,259.5,162.5,268.0,162.0,276.0,161.5,283.5,161.0,291.5,160.5,300.0,159.5,308.5,159.0,317.0,159.0,325.5,158.0,333.5,157.5,341.0,157.0,349.0,156.0,356.5,155.5,364.0,155.0,372.5,154.5,380.5,153.5,389.0,152.5,397.5,152.0" stroke="black" stroke-width="2" fill="none" />
<polyline points="379.0,187.0,371.0,187.0,363.0,188.0,354.5,189.0,346.5,189.0,338.5,189.0,331.0,189.5,322.5,190.0,314.5,190.5,307.0,191.5,300.0,192.0,292.5,193.0,284.5,194.0,276.5,195.5,269.0,196.0,261.0,196.5,253.5,197.0,245.0,197.0,236.5,198.0,228.0,199.0,219.5,200.0,211.0,201.0,203.0,201.5,195.0,202.0,187.0,202.5,179.0,203.0,171.0,203.5" stroke="black" stroke-width="2" fill="none" />
<polyline points="154.5,203.0,146.0,203.5" stroke="black" stroke-width="2" fill="none" />
<polyline points="153.5,217.0,161.5,218.0,169.5,219.0,177.5,220.0,184.5,220.0,192.5,220.5,200.5,221.5" stroke="black" stroke-width="2" fill="none" />
<polyline points="211.0,277.5,202.5,277.5,194.0,277.5,186.0,276.5,179.0,275.5,171.5,274.5,164.0,272.5,153.0,268.0,145.0,267.5,137.0,267.5,129.5,265.0,121.5,264.5,113.5,264.0,105.5,264.0,97.5,262.0" stroke="black" stroke-width="2" fill="none" />
<polyline points="86.5,278.5,94.0,278.5,102.0,277.0,109.5,276.0,117.0,275.5,124.0,274.5,131.5,273.5,139.5,273.0,147.0,272.5,154.0,272.0,162.5,271.0,170.0,270.5,178.0,269.5,186.0,269.0,193.5,268.5,201.5,268.0,210.0,267.5,218.5,267.0,227.0,266.5,235.5,266.5,243.5,266.5,251.5,266.0,259.5,265.5,268.0,264.5,276.0,264.5,284.0,264.0,292.0,263.5,300.0,263.0,307.5,263.0,315.5,263.0,323.5,262.5,332.0,262.0,340.0,261.5,348.5,261.0,356.0,260.0,363.5,259.0,371.5,258.5,379.5,258.5,387.5,258.0,396.0,257.5" stroke="black" stroke-width="2" fill="none" />
<polyline points="411.5,135.5,403.5,136.5,395.0,137.0,386.5,137.5,378.0,138.0,370.0,138.5,362.0,138.5,354.0,139.0,346.5,139.5,338.5,140.0,330.0,141.0,322.5,141.0,314.5,141.5,306.5,142.0,298.5,142.5,291.0,143.0,283.5,143.5,276.0,143.5,269.0,144.0,261.0,144.5,253.5,145.0,245.0,146.0,236.5,147.0,228.0,147.5,220.0,147.5,212.0,148.0,204.5,148.5,196.5,148.5,188.0,149.0,180.0,149.5,171.5,150.0,163.5,150.5,155.5,151.0,148.5,151.5,140.5,151.5,132.5,152.5,124.0,153.0,115.5,154.0,107.0,154.5,98.5,155.5,90.5,155.5,82.5,156.0,74.0,156.0,66.0,156.5,57.5,157.0" stroke="black" stroke-width="2" fill="none" />
<polyline points="67.5,148.5,75.5,148.0,83.5,147.5,91.5,147.0,99.5,146.0,107.0,145.5,115.0,144.5,122.5,144.0,130.5,143.0,138.0,142.5,146.5,142.5,154.5,142.0,163.0,142.0,171.0,142.0,179.5,142.0,187.5,141.5,195.5,140.5,203.0,139.5,211.0,139.0,218.5,138.0,226.5,137.5,235.0,137.0,243.0,136.5,251.0,136.5,258.5,136.5,267.0,136.5,275.0,136.5,283.5,136.5,291.5,136.5,299.5,136.0,308.0,136.0,316.0,135.5,323.5,135.0,331.5,134.5,339.5,133.5,347.0,132.5,355.0,132.0,362.5,131.0,370.5,130.5,379.0,130.5,387.0,130.0,395.0,129.5,403.0,129.0,411.5,128.0,419.5,127.5" stroke="black" stroke-width="2" fill="none" />
<polyline points="427.5,113.0,419.5,113.0,411.5,113.0,403.5,113.5,395.0,114.5,387.5,114.5,379.5,115.0,371.5,115.0,363.5,115.5,355.5,116.0,347.5,117.0,339.5,118.0,331.5,119.0,323.5,119.5,315.5,120.0,308.5,120.5,300.5,120.5,292.0,120.5,284.0,120.5,275.5,121.0,267.0,121.0,258.5,121.5,250.5,122.0,242.5,122.0,234.5,122.5,225.5,123.0,217.5,123.5,209.5,123.5,201.0,124.0,194.0,124.5,186.5,125.5,178.5,126.5,170.5,127.5,162.5,128.0,155.0,128.0,147.5,128.5,139.5,128.5,131.5,129.0,124.0,129.5,116.0,130.5,108.5,131.0,100.5,132.0,92.5,133.0,84.0,134.0" stroke="black" stroke-width="2" fill="none" />
<polyline points="77.0,141.0,84.5,141.0,92.5,140.5,100.0,139.5,108.0,139.0,116.0,138.5,123.5,137.5,131.5,136.5,139.5,135.5,147.5,135.0,155.5,134.5,163.0,134.0,171.0,134.0,179.0,133.5,186.5,133.5,194.0,133.5,202.0,132.5,209.5,132.0,217.5,131.5,225.5,131.5,233.5,131.5,241.5,130.5,249.5,130.0,258.0,129.5,266.0,129.5,274.0,129.5,282.5,129.0,291.0,128.5,299.5,128.0,308.5,128.0,316.5,127.5,324.5,127.0,332.0,126.0,339.5,125.0,347.0,124.0,354.5,123.5,362.5,122.5,371.0,121.5,379.5,121.0,388.0,120.5,396.0,120.0,404.0,119.5,411.5,119.5,420.0,120.0" stroke="black" stroke-width="2" fill="none" />
<polyline points="424.5,98.5,416.5,104.0,408.5,103.5,400.5,103.5,392.5,102.5,384.5,103.0,376.5,103.5,368.0,102.5,360.0,103.0,352.0,102.0,344.0,102.0,336.0,101.0,328.5,95.0,320.0,93.0,312.0,97.0,304.0,97.0,296.0,97.0,288.0,95.5,280.0,95.5,272.0,94.5,264.0,94.5,256.0,93.5,248.0,92.5,240.0,92.5,232.0,85.0,223.5,85.0,216.0,87.0,208.0,88.5,200.5,87.5,192.5,87.0,184.5,86.0,176.5,85.0,168.0,85.5,160.0,85.0,151.5,84.0,143.5,84.0,135.5,83.0,131.0,80.0,130.0,74.5,120.0,83.5,112.0,93.5,104.0,102.5,96.0,112.5,88.0,122.5,80.5,132.5,72.5,142.5,64.5,152.5,56.5,162.5,48.0,173.0,40.0,183.5,32.0,194.5" stroke="black" stroke-width="2" fill="none" />
<polyline points="38.5,196.5,46.0,196.0,54.0,196.0,62.0,196.5,70.0,196.5,78.5,196.5,86.0,196.0,93.5,195.0,101.5,194.5,109.5,194.5,117.0,194.5,125.5,193.5,133.0,193.0,141.0,192.0,149.0,191.5,157.0,191.5,165.0,191.0,173.0,190.0,181.0,189.5,189.0,188.5,197.0,187.5,205.0,187.0,212.5,186.5,220.0,186.0,227.5,186.0,235.0,185.5,242.5,184.5,251.0,183.5,259.5,182.5,267.0,182.5,275.0,182.0,283.0,181.5,291.5,181.0,299.5,180.0,307.0,179.5,314.5,179.0,322.5,178.0,330.5,177.0,338.0,176.0,346.0,176.0,354.5,175.5,362.5,175.0,371.0,175.0,379.5,175.0,387.5,175.0,395.5,175.0" stroke="black" stroke-width="2" fill="none" />
<polyline points="404.0,150.5,395.5,150.5,387.5,150.5,379.0,150.5,371.0,151.0,363.0,152.0,355.0,152.5,347.0,153.5,339.0,154.0,331.0,154.0,323.0,155.0,314.5,156.0,306.5,156.0,298.5,156.0,291.0,156.5,282.5,157.0,274.5,157.5,267.0,158.5,260.0,159.0,252.5,160.0,244.5,161.0,236.5,162.5,229.0,163.0,221.0,163.5,213.5,164.0,205.0,164.0,196.5,165.0,188.0,166.0,179.5,167.0,171.0,168.0,163.0,168.5,155.0,169.0,147.0,169.5,139.0,170.0,131.0,170.5,123.0,171.0,115.0,171.5,106.5,171.5,98.0,171.0,89.5,171.0,82.0,171.5,74.0,172.0,66.5,172.0,58.5,172.0,50.5,172.5" stroke="black" stroke-width="2" fill="none" />
<polyline points="51.0,182.5,59.0,175.0,67.0,167.0,75.0,159.5,83.0,152.0,91.0,144.5,98.5,137.0,107.5,129.5,116.0,122.0,124.5,114.5,132.5,107.0,140.0,99.5" stroke="black" stroke-width="2" fill="none" />
<polyline points="133.0,97.0,141.0,98.5,149.5,101.0,157.5,101.0,166.0,102.0,174.0,103.0,182.5,103.0,190.5,103.0,198.0,102.5,198.0,110.5" stroke="black" stroke-width="2" fill="none" />
<polyline points="204.0,87.5,212.0,87.0" stroke="black" stroke-width="2" fill="none" />
<polyline points="192.5,68.5,184.5,76.0,176.5,83.5,169.0,91.0,161.0,99.0,153.5,106.5,145.5,114.5,137.5,121.5,129.5,129.0,122.0,137.0,114.0,145.0,106.0,152.5,98.5,159.0,90.5,166.0,82.0,174.0,74.0,181.5,66.0,188.5" stroke="black" stroke-width="2" fill="none" />
<polyline points="60.5,188.5,69.0,181.5,77.0,174.0,85.0,166.0,93.0,158.0,101.0,150.0,109.0,142.0,117.0,135.0,125.0,127.5,132.5,120.0,140.0,113.0,147.5,105.5,155.5,98.5,163.5,91.0,171.5,83.5,179.5,76.0,187.5,69.0" stroke="black" stroke-width="2" fill="none" />
<polyline points="191.5,73.5,182.0,67.0,174.0,68.0,170.0,67.0,162.0,67.0" stroke="black" stroke-width="2" fill="none" />
<polyline points="154.0,65.0,146.0,72.5,138.5,80.0" stroke="black" stroke-width="2" fill="none" />
<polyline points="139.5,83.0,147.0,82.5,155.0,82.0,163.0,81.0,170.5,80.5,178.5,79.5,186.0,79.0,194.5,79.0,203.0,78.0,211.5,77.5,219.5,76.5" stroke="black" stroke-width="2" fill="none" />
<polyline points="149.5,66.0,141.0,73.5,132.5,81.0" stroke="black" stroke-width="2" fill="none" />
<polyline points="133.5,76.5,141.5,69.0" stroke="black" stroke-width="2" fill="none" />
<polyline points="137.0,75.5,126.0,77.5,119.5,85.0,113.5,93.5,106.5,101.5,101.0,110.0,93.5,118.0,87.5,125.5,80.5,133.5,74.5,141.5,67.5,149.5,61.5,157.5,55.0,165.5,48.0,174.0,41.5,182.0,34.5,190.0,32.5,198.5,33.5,206.5,34.0,214.5,35.0,222.5,35.0,230.5,35.0,238.5,30.0,246.5,19.5,254.5,19.5,263.0,27.5,271.0,30.0,276.0,38.0,271.5,46.0,271.5,54.0,272.5,61.5,273.5,69.5,274.0,77.5,277.0,85.0,280.5,93.0,282.5,101.5,283.0,109.5,284.0,118.0,284.5,130.0,291.5,138.5,291.0,146.0,290.5,154.5,293.5,162.5,295.5,171.0,298.0,179.0,299.0,188.0,301.0,195.5,301.5,203.5,303.0,211.0,303.5,219.5,303.5,227.5,304.5,235.0,307.5,243.0,308.5,250.5,309.0,258.5,311.0,266.5,312.0,274.0,313.5,282.0,313.5,289.5,313.5,297.0,314.0,304.5,313.0,312.5,314.0,321.0,314.0,329.5,316.0,337.5,318.0,345.0,320.5,353.0,322.5,361.0,319.0,368.5,318.5,376.0,316.0,384.0,314.0,391.5,309.0,392.5,303.0,401.0,292.0,409.5,282.5,417.5,272.5,425.5,262.5,433.5,252.0,442.0,242.0,450.0,232.0,458.5,222.0,466.0,212.0" stroke="black" stroke-width="2" fill="none" />
<polyline points="408.0,246.0,412.0,237.5,416.5,229.5,413.5,235.5,401.5,247.5,393.0,257.5,389.0,253.0,395.0,253.0,403.0,245.5,406.5,237.5,411.5,229.0,416.5,221.0,427.5,213.0,431.5,205.0,440.5,197.0,442.0,189.0,444.0,181.5,445.0,173.5,444.0,165.5,442.5,157.5,440.0,149.0,440.0,141.0,442.0,133.0,443.0,124.5,444.5,116.5,444.5,108.5,449.5,103.5,442.0,102.5" stroke="black" stroke-width="2" fill="none" />
<polyline points="427.5,99.0,424.5,106.5,422.0,114.0,417.0,127.0,413.5,135.0,409.5,143.0,405.5,151.0,401.5,159.0,397.5,167.0,393.0,175.0,389.0,183.5,385.0,191.0,381.0,199.0,377.5,207.0,373.5,215.0" stroke="black" stroke-width="2" fill="none" />
<polyline points="378.0,209.5,370.0,209.5,362.0,210.0,354.0,210.5,346.5,211.5,338.5,212.0,330.0,212.0,322.0,213.0,314.0,213.0,306.0,213.5,298.0,214.0,289.5,214.0,281.0,214.5,273.5,215.5,266.0,216.0,258.5,216.5,251.0,216.5,243.0,217.5,235.5,218.0,228.0,219.0,220.0,219.5,212.0,220.0,203.5,220.5,195.5,221.0,187.5,221.5,180.0,222.0,172.5,222.5,164.5,223.0,156.0,224.0,147.5,224.5,139.0,225.0,130.5,226.0,122.0,226.5,114.0,227.0,106.0,226.5,98.0,226.5,90.5,227.0,82.5,227.0,74.0,227.5,66.0,228.0,58.0,228.5,49.5,228.5,41.5,229.0" stroke="black" stroke-width="2" fill="none" />
<polyline points="42.0,223.0,49.5,223.0,58.0,222.0,66.0,221.5,73.5,221.0,82.0,220.0,90.5,219.5,98.5,219.5,107.0,219.0,115.0,218.5,123.5,218.0,131.0,217.5,139.0,217.0,147.0,216.0,154.5,215.5,162.5,214.5,170.0,214.0,178.5,214.0,187.0,213.0,195.5,212.5,203.5,211.5,211.5,211.5,219.5,211.5,227.5,211.0,235.0,211.0,243.5,210.5,251.0,210.5,258.5,209.5,265.5,209.0,273.0,208.0,280.5,207.5,288.5,207.0,296.5,206.5,305.0,206.0,313.0,206.0,321.5,205.5,329.5,205.5,337.5,204.5,345.5,204.0,354.0,204.0,362.0,204.0,370.0,203.5,378.5,202.0" stroke="black" stroke-width="2" fill="none" />
<polyline points="403.0,159.5,395.0,159.5,387.0,160.0,379.5,160.5,372.0,161.0,364.0,161.5,356.0,162.5,347.5,163.5,339.0,164.5,330.5,165.5,322.0,166.0,314.0,166.5,306.0,167.0,298.0,167.0,290.5,168.0,282.5,168.5,274.5,169.0,266.5,169.0,258.5,169.0,250.5,169.5,243.0,169.5,235.0,170.0,227.0,170.0,219.0,170.5,210.5,171.0,202.0,171.5,194.0,172.5,186.0,173.0,178.0,173.5,170.5,174.0,163.0,175.0,154.5,175.5,146.5,176.5,138.5,177.0,130.5,177.0,122.5,177.5,114.5,178.0,106.0,178.5,98.0,179.0,90.0,179.5,82.0,179.5,74.0,180.5,66.5,181.5,58.5,182.0,51.0,183.0,43.5,183.5" stroke="black" stroke-width="2" fill="none" />
<polyline points="46.0,186.0,53.5,177.5,61.5,167.5,69.5,157.5,77.5,147.0,86.0,136.0,94.0,126.0,102.0,116.5,110.0,105.0,118.5,96.0" stroke="black" stroke-width="2" fill="none" />
<polyline points="123.0,112.0,131.0,112.0,139.5,112.0" stroke="black" stroke-width="2" fill="none" />
<polyline points="148.5,98.0,140.5,105.5,132.0,113.0,123.5,121.0,115.0,129.0,107.0,136.5,99.0,144.5,91.0,152.5,83.0,160.0,75.5,168.0,67.5,175.5,59.5,183.0" stroke="black" stroke-width="2" fill="none" />
<polyline points="37.0,189.5,44.5,188.5,52.5,188.0,60.5,187.0,68.5,186.5,76.5,186.0,84.5,185.5,92.5,185.0,100.5,184.5,108.0,184.0,116.0,183.5,124.0,183.5,132.5,183.5,141.0,183.5,149.5,183.5,157.5,183.0,165.5,183.0,174.0,182.5,181.5,182.0,189.0,181.5,197.0,181.0,205.0,180.0,213.5,179.0,221.0,178.0,229.0,177.5,236.5,177.0,244.0,176.0,251.0,175.5,259.0,175.5,267.5,175.0,275.5,175.0,283.0,174.5,291.0,173.5,299.0,172.0,307.0,171.0,315.5,170.0,323.0,169.0,331.5,169.0,339.5,168.5,348.0,167.5,356.5,167.5,364.5,166.5,372.5,166.5,380.5,166.5,388.5,167.0,396.0,167.5" stroke="black" stroke-width="2" fill="none" />
<polyline points="381.0,217.0,373.0,217.0,365.0,217.0,357.0,217.0,349.0,218.0,341.0,218.5,332.5,219.0,324.0,220.0,315.5,220.5,307.5,221.5,299.5,222.0,291.5,222.5,283.5,223.0,275.5,224.0,267.5,224.5,259.0,225.0,251.0,225.0,243.0,225.5,235.5,225.5,227.0,226.0,219.0,226.0,211.0,226.0,203.5,226.0,195.5,226.5,187.5,227.0,179.5,228.0,172.0,228.5,164.0,229.5,155.5,230.0,147.5,230.5,139.0,230.5,130.5,231.0,122.0,231.5,113.5,232.0,105.5,232.5,98.0,233.5,90.0,234.0,82.5,234.5,74.0,234.5,66.5,235.0,58.0,236.0,50.0,236.5,42.5,236.5,34.5,236.5" stroke="black" stroke-width="2" fill="none" />
<polyline points="28.0,246.0,36.0,245.5,44.5,245.0,52.0,244.5,60.0,244.0,67.5,243.5,76.0,243.0,84.0,241.5,92.0,241.0,100.0,240.5,108.0,240.0,116.0,239.5,124.5,239.5,132.0,240.0,140.0,240.0,147.5,240.0,155.5,239.5,163.5,238.5,171.0,237.5,178.5,236.5,186.0,236.0,194.0,235.5,202.0,235.5,210.5,235.0,219.5,234.5,227.5,234.0,235.5,233.5,243.5,233.5,251.5,233.0,259.5,232.5,268.0,231.5,276.0,231.0,284.0,231.0,292.0,230.5,299.0,230.0,307.0,229.0,315.0,228.0,323.5,227.0,332.0,226.0,340.5,225.0,348.5,225.0,356.5,224.5,364.5,224.0,373.0,224.0,381.0,223.5" stroke="black" stroke-width="2" fill="none" />
<polyline points="388.0,193.0,380.0,193.0,372.0,193.5,364.0,193.5,356.0,193.5,348.0,194.5,340.5,195.5,333.0,196.0,325.5,197.0,317.5,197.5,309.5,198.5,301.5,198.5,293.0,199.0,285.0,199.0,277.0,199.5,269.0,200.5,261.0,200.5,253.0,200.5,245.0,200.5,236.5,200.5,229.0,200.0,221.0,200.0,212.5,200.5,204.0,200.5,196.0,201.0,188.0,201.5,180.0,202.5,172.0,203.0,163.5,204.0,155.0,205.0,147.0,205.0,139.0,205.0,131.0,206.0,123.5,206.5,115.5,207.0,107.5,207.5,100.0,207.5,92.0,208.0,84.0,208.5,76.0,209.5,68.0,209.5,59.5,210.0,51.0,211.0,42.5,212.0,34.5,213.0" stroke="black" stroke-width="2" fill="none" />
<polyline points="37.0,205.5,45.0,205.0,53.0,204.5,61.0,204.0,69.0,203.5,77.0,202.5,85.0,202.0,92.5,202.0,100.5,201.5,108.5,201.5,116.5,201.0,124.5,200.5,133.0,199.5,141.0,199.0,149.0,198.5,157.0,198.0,165.5,197.5,174.0,196.5,182.0,196.0,190.0,195.5,198.5,194.5,206.0,194.0,213.5,193.5,221.5,193.0,229.0,193.0,237.0,192.5,245.0,192.0,252.5,192.0,260.0,192.0,267.5,191.5,275.5,191.0,283.5,190.5,291.5,189.5,300.0,189.0,308.0,188.0,316.0,187.5,324.0,187.5,332.0,187.0,340.0,187.0,347.5,186.5,355.5,185.5,363.5,185.0,371.5,185.0,379.0,184.5,387.0,184.0" stroke="black" stroke-width="2" fill="none" />
<polyline points="440.0,137.0,448.0,134.0" stroke="black" stroke-width="2" fill="none" />
<polyline points="341.5,36.5,334.0,36.5" stroke="black" stroke-width="2" fill="none" />
<polyline points="334.0,37.0,326.5,34.0,319.0,33.5" stroke="black" stroke-width="2" fill="none" />
<polyline points="157.0,52.5,148.5,52.5,140.0,52.5,132.0,52.5" stroke="black" stroke-width="2" fill="none" />
<polyline points="121.5,63.0,130.0,62.0,138.5,62.0,147.0,61.5,155.0,60.5,163.5,60.0,172.0,59.0,180.5,58.0,189.0,57.0,197.0,56.0,205.5,55.5,213.5,55.0,221.0,54.5,228.5,54.5,236.0,54.0,244.0,53.5,252.5,54.0,261.0,54.0,269.5,53.5,277.5,52.5,286.0,52.0" stroke="black" stroke-width="2" fill="none" />
<polyline points="157.0,129.0,149.0,130.0,141.5,130.5,133.0,131.5" stroke="black" stroke-width="2" fill="none" />
<polyline points="139.5,120.5,131.5,121.5,123.0,122.0" stroke="black" stroke-width="2" fill="none" />
<polyline points="123.5,63.5,115.5,57.5" stroke="black" stroke-width="2" fill="none" />
<polyline points="115.5,55.5,120.5,63.5,116.5,71.5,118.5,70.5,127.5,65.5,135.0,65.5,143.5,66.5,151.5,66.0,159.5,66.5,161.5,68.0,169.5,69.0,177.5,69.0,185.5,70.0,189.5,66.5,197.5,70.0,205.0,71.5,213.0,71.5,221.0,72.0,229.0,71.5,236.5,71.5,244.0,72.5,252.0,73.5,260.0,73.5,268.5,74.5,277.0,74.5,285.0,75.5,293.0,76.0,301.0,77.0,309.0,77.0,317.0,78.0,325.5,78.0,333.5,79.0,341.5,79.0,349.5,80.0,357.0,81.0,365.0,81.5,373.0,80.5,381.0,79.0,389.5,80.0" stroke="black" stroke-width="2" fill="none" />
<polyline points="458.0,77.0,468.5,69.0,477.5,61.0,489.0,53.0,496.5,44.5,491.0,43.5,483.0,41.5,475.5,39.0,467.5,39.0,459.5,39.0,451.0,39.5,443.0,38.5,435.5,37.5,427.5,36.5,419.0,36.5,411.5,35.0,403.5,34.5,396.0,34.0,387.0,33.0,379.0,33.0,370.5,31.5,362.5,31.5,354.0,30.5,346.5,31.0,338.0,30.5,330.0,30.5,321.5,31.0,313.5,31.0,305.0,30.5,297.0,29.5,289.5,29.0,281.5,28.0,273.5,28.5,266.0,28.5,258.0,28.5,250.0,28.5,242.0,28.0,234.5,28.0,226.5,27.0,218.5,26.5,210.0,27.5,202.0,27.5,194.0,28.5,186.0,30.5,178.0,33.5,170.5,35.5,162.5,38.5,154.5,41.0,146.5,44.0,139.0,46.0,131.0,49.5,123.5,52.5,115.5,55.5" stroke="black" stroke-width="2" fill="none" />
<polyline points="87.0,196.5,101.0,205.0" stroke="black" stroke-width="2" fill="none" />
<polyline points="125.5,219.5,134.0,222.5" stroke="black" stroke-width="2" fill="none" />
<polyline points="144.0,239.0,138.0,243.0,145.5,239.0,153.5,241.0" stroke="black" stroke-width="2" fill="none" />
<polyline points="92.0,223.0,84.0,221.0,76.0,217.0,68.0,213.5,60.0,212.5" stroke="black" stroke-width="2" fill="none" />
<polyline points="65.5,210.5,77.5,218.5" stroke="black" stroke-width="2" fill="none" />
<polyline points="60.0,237.0,58.5,245.0" stroke="black" stroke-width="2" fill="none" />
<polyline points="38.5,249.0,36.5,243.0,26.5,248.0,18.5,254.0" stroke="black" stroke-width="2" fill="none" />
</svg>