<svg xmlns="http://www.w3.org/2000/svg" version="1.1"><polyline points="2.0,1.5,2.5,9.5,2.5,17.5,2.5,25.5,2.5,33.5,2.5,41.5,3.0,49.5,4.0,57.0,4.5,65.0,4.5,72.5,4.5,81.0,4.5,89.0,4.0,97.0,3.5,105.5,3.5,114.5,3.5,123.0,3.5,131.0,3.0,138.5,3.0,146.5,3.0,154.5,3.0,162.5,2.5,170.5,2.5,178.5,2.5,186.0,2.5,194.0,3.0,202.0,3.0,210.0,3.0,218.0,3.5,226.0,4.0,234.5,4.0,242.5,4.0,250.5,4.0,258.5,3.5,266.5,3.0,275.0,3.0,283.0,3.0,291.0,3.0,298.5,3.5,306.5,3.0,314.5,3.0,322.5,3.0,330.5,2.5,338.5,7.5,342.5,15.5,342.0,23.5,341.5,31.0,341.5,39.0,341.5,46.5,341.5,54.0,342.0,62.0,342.0,70.0,342.0,79.0,341.5,87.0,341.5,95.0,342.0,103.0,342.5,111.5,342.5,119.5,343.0,128.0,343.5,136.5,343.5,144.5,344.0,152.5,344.0,160.0,344.0,168.0,343.5,176.5,343.0,184.5,343.0,192.0,343.0,200.0,342.5,207.5,342.0,215.5,341.5,224.0,341.5,231.5,341.5,239.5,342.0,247.5,342.0,256.0,342.5,264.0,343.0,272.5,343.0,281.0,343.0,289.0,343.0,297.5,343.0,306.0,343.0,314.0,343.0,321.5,342.5,329.5,342.5,337.0,342.0,345.0,342.0,353.0,341.5,361.0,342.0,369.0,342.0,377.0,342.5,385.0,342.5,393.0,342.0,400.5,342.0,408.5,341.5,416.0,341.5,424.0,341.5,431.5,341.5,439.5,341.0,447.0,340.5,455.0,340.5,463.0,340.5,471.0,340.5,479.5,341.0,487.5,341.0,495.5,341.5,503.5,342.0,511.5,342.0" stroke="black" stroke-width="2" fill="none" />
<polyline points="389.5,252.0,381.0,259.5" stroke="black" stroke-width="2" fill="none" />
<polyline points="387.0,261.0,379.0,261.5,371.0,261.5" stroke="black" stroke-width="2" fill="none" />
<polyline points="371.5,259.0,380.0,250.5,388.5,242.5" stroke="black" stroke-width="2" fill="none" />
<polyline points="388.0,234.0,380.0,242.0,373.0,250.0,365.0,258.0" stroke="black" stroke-width="2" fill="none" />
<polyline points="364.0,251.5,356.5,259.0" stroke="black" stroke-width="2" fill="none" />
<polyline points="355.5,250.0,347.5,257.5" stroke="black" stroke-width="2" fill="none" />
<polyline points="344.5,251.5,336.5,258.5" stroke="black" stroke-width="2" fill="none" />
<polyline points="329.0,259.0,337.0,252.0,345.0,244.5" stroke="black" stroke-width="2" fill="none" />
<polyline points="340.0,243.5,332.5,251.0,324.5,259.0" stroke="black" stroke-width="2" fill="none" />
<polyline points="317.5,258.0,325.5,251.0,333.0,243.5" stroke="black" stroke-width="2" fill="none" />
<polyline points="332.0,246.5,339.5,247.5,347.5,249.5,355.5,251.0,363.5,253.0,372.0,244.0" stroke="black" stroke-width="2" fill="none" />
<polyline points="370.5,241.0,378.5,240.5,387.0,240.5" stroke="black" stroke-width="2" fill="none" />
<polyline points="373.5,240.5,381.5,233.0,389.5,225.5" stroke="black" stroke-width="2" fill="none" />
<polyline points="393.5,211.0,385.5,218.5,377.0,226.0,369.0,233.5" stroke="black" stroke-width="2" fill="none" />
<polyline points="371.5,236.0,379.5,235.5,387.0,235.0" stroke="black" stroke-width="2" fill="none" />
<polyline points="386.0,250.0,377.5,250.5" stroke="black" stroke-width="2" fill="none" />
<polyline points="372.0,257.5,379.5,257.0,387.0,256.0" stroke="black" stroke-width="2" fill="none" />
<polyline points="394.5,229.0,386.5,229.0,378.5,229.5,370.0,230.0" stroke="black" stroke-width="2" fill="none" />
<polyline points="371.0,226.0,379.0,219.0,387.0,211.5,394.5,204.5" stroke="black" stroke-width="2" fill="none" />
<polyline points="395.5,194.5,387.5,202.5,379.5,209.5,371.5,217.0" stroke="black" stroke-width="2" fill="none" />
<polyline points="371.0,218.5,379.0,218.0,387.0,217.5" stroke="black" stroke-width="2" fill="none" />
<polyline points="386.0,225.0,377.5,225.0,369.5,225.5" stroke="black" stroke-width="2" fill="none" />
<polyline points="361.5,222.5,369.0,222.0,377.5,222.0,386.0,222.0,395.0,221.0" stroke="black" stroke-width="2" fill="none" />
<polyline points="388.5,210.5,380.0,211.0,372.0,211.5" stroke="black" stroke-width="2" fill="none" />
<polyline points="372.0,209.5,380.5,202.0,389.5,194.0,397.5,186.5" stroke="black" stroke-width="2" fill="none" />
<polyline points="397.5,179.0,389.5,186.5,381.0,194.0,373.0,202.5,365.0,211.0" stroke="black" stroke-width="2" fill="none" />
<polyline points="363.5,214.5,371.0,214.0,378.5,213.0,386.0,212.5,393.5,212.0" stroke="black" stroke-width="2" fill="none" />
<polyline points="389.0,202.0,380.5,202.0,372.5,202.5" stroke="black" stroke-width="2" fill="none" />
<polyline points="364.5,201.5,373.0,194.0,381.0,186.5,389.0,178.5,397.5,171.0,405.5,163.0" stroke="black" stroke-width="2" fill="none" />
<polyline points="404.0,154.0,395.5,162.0,387.0,170.0,379.0,178.0,370.5,185.5,362.0,193.5" stroke="black" stroke-width="2" fill="none" />
<polyline points="363.5,189.5,371.5,189.0,379.0,188.5,387.5,188.0,396.5,188.0,404.5,188.0" stroke="black" stroke-width="2" fill="none" />
<polyline points="397.5,169.5,389.0,170.0" stroke="black" stroke-width="2" fill="none" />
<polyline points="385.0,178.0,377.0,178.5" stroke="black" stroke-width="2" fill="none" />
<polyline points="370.5,186.5,378.5,185.5,387.0,185.0" stroke="black" stroke-width="2" fill="none" />
<polyline points="384.5,187.5,392.0,185.0" stroke="black" stroke-width="2" fill="none" />
<polyline points="389.5,192.5,381.0,192.5,372.0,193.0" stroke="black" stroke-width="2" fill="none" />
<polyline points="363.0,198.0,371.0,197.5,379.0,196.5,387.0,195.5,395.5,195.0,404.0,194.0" stroke="black" stroke-width="2" fill="none" />
<polyline points="395.0,154.0,402.5,153.0" stroke="black" stroke-width="2" fill="none" />
<polyline points="403.0,146.5,395.0,154.0,387.0,161.5,379.0,169.0,371.5,176.5,363.5,184.0" stroke="black" stroke-width="2" fill="none" />
<polyline points="362.0,182.5,370.0,182.0,378.5,181.0,386.5,180.0,394.5,179.0,403.0,178.0" stroke="black" stroke-width="2" fill="none" />
<polyline points="394.5,202.0,386.5,202.5,379.0,203.0,371.5,203.5,363.0,204.5" stroke="black" stroke-width="2" fill="none" />
<polyline points="338.5,207.5,331.0,208.0,323.0,208.0,315.0,208.5,307.0,209.0,299.0,209.5,291.0,210.5,284.0,211.5,276.0,212.5,267.5,213.5,259.5,214.0,251.5,214.5,244.0,214.5,236.0,214.5,228.0,214.5,220.0,214.5,212.0,215.0,204.0,215.0,196.5,215.5,188.5,215.0,180.0,215.5,172.0,216.0,164.0,217.0,156.0,217.5,148.5,218.5,141.0,219.0,132.5,220.0,124.0,221.0,116.0,221.5,108.0,222.5,100.5,223.0" stroke="black" stroke-width="2" fill="none" />
<polyline points="94.0,230.5,102.0,230.5,109.5,229.5,117.0,228.5,124.5,227.5,132.0,226.0,140.0,225.5,148.0,225.0,156.0,224.5,164.5,224.5,172.5,224.0,180.5,223.0,188.0,222.0,195.5,222.0,203.5,221.5,211.5,221.5,219.5,221.0,227.0,220.5,234.5,220.0,243.0,219.5,251.0,219.0,258.5,218.0,267.0,218.0,275.0,217.5,282.5,217.5,290.0,217.0,298.5,217.0,307.0,216.5,315.0,216.0,322.5,215.0,331.0,214.0,338.5,214.0,346.0,214.0" stroke="black" stroke-width="2" fill="none" />
<polyline points="332.0,234.5,324.5,242.0,317.0,249.0" stroke="black" stroke-width="2" fill="none" />
<polyline points="307.5,250.5,316.0,243.0,324.5,236.0" stroke="black" stroke-width="2" fill="none" />
<polyline points="317.5,234.0,310.0,242.0,301.5,249.5" stroke="black" stroke-width="2" fill="none" />
<polyline points="293.5,250.0,301.0,249.5,308.5,248.5,316.5,248.0,324.5,247.5,332.0,247.0,340.0,247.0" stroke="black" stroke-width="2" fill="none" />
<polyline points="361.0,240.0,369.5,239.0,377.5,238.5,386.0,237.5,395.0,236.5" stroke="black" stroke-width="2" fill="none" />
<polyline points="397.0,234.0,389.0,235.5,381.0,236.0,372.5,236.5,364.0,236.0,355.5,236.5,347.5,237.5,339.5,238.0,331.5,238.5,324.0,239.0,315.5,239.5,307.5,240.0,298.5,241.0,291.0,242.0,282.5,242.5,275.0,243.0,267.5,243.5,260.0,244.5,251.5,245.0,243.5,246.0,235.5,246.5,227.5,247.0,219.5,247.0,211.5,247.5,204.0,247.5,196.0,247.5,188.0,248.0,180.5,248.0,172.0,248.5,164.0,249.0,155.5,249.5,147.0,250.0,138.5,250.5,131.0,251.0,122.5,251.5,114.5,252.0,107.5,252.5,99.5,253.5" stroke="black" stroke-width="2" fill="none" />
<polyline points="90.0,245.0,98.0,244.5,107.0,244.0,115.0,243.0,123.0,242.0,130.0,241.5,138.5,241.5,146.5,241.5,154.0,241.5,162.0,241.0,170.0,240.0,178.0,240.0,186.5,239.5,194.5,239.0,203.0,238.5,211.5,237.5,220.0,237.0,228.0,236.0,236.0,235.5,244.0,235.0,252.0,234.5,259.5,233.5,267.5,233.5,275.5,233.5,284.0,233.5,292.0,233.0,300.0,232.5,308.0,232.5,316.5,232.0,324.5,231.5,332.5,231.0,340.5,230.5,349.0,230.0,357.0,229.0,365.0,228.0,373.0,227.5,381.0,227.0,389.0,226.5,397.0,226.0" stroke="black" stroke-width="2" fill="none" />
<polyline points="356.5,222.0,348.5,222.5,340.5,223.0,332.0,224.0,324.5,224.5,316.0,224.5,308.0,225.0,299.5,225.0,291.5,225.0,283.5,225.5,276.0,226.0,268.0,226.5,260.0,226.5,252.0,226.5,243.5,227.0,235.0,227.5,227.0,228.5,219.0,229.0,211.0,230.0,203.0,230.0,195.0,230.5,187.0,231.0,179.0,231.0,170.5,231.5,163.0,231.5,155.0,232.0,147.0,232.5,139.0,233.5,131.0,234.5,123.0,234.5,115.5,235.0,107.5,235.5,99.5,236.5,91.5,237.0" stroke="black" stroke-width="2" fill="none" />
<polyline points="100.0,212.5,108.0,212.0,116.0,211.5,124.0,211.5,131.5,211.0,139.0,210.5,147.0,210.0,155.0,209.5,162.5,209.0,170.5,208.0,178.0,207.0,186.0,207.0,194.0,207.0,202.5,207.0,210.5,207.0,218.5,206.5,227.0,206.5,235.5,206.0,244.0,205.5,252.5,205.0,261.0,204.5,268.5,204.0,276.5,203.0,284.5,202.5,292.0,201.5,300.0,201.0,307.5,200.5,315.5,200.0,323.5,199.5,332.0,198.5" stroke="black" stroke-width="2" fill="none" />
<polyline points="316.5,204.5,308.5,212.0,300.5,219.5,292.0,227.0,284.5,234.0,276.0,241.5,268.5,248.5" stroke="black" stroke-width="2" fill="none" />
<polyline points="275.0,242.5,282.5,242.0,290.0,241.5,298.0,241.5,305.5,241.0,313.5,240.0" stroke="black" stroke-width="2" fill="none" />
<polyline points="316.0,227.0,308.5,234.5,301.0,241.5,293.5,249.0" stroke="black" stroke-width="2" fill="none" />
<polyline points="278.0,249.5,285.5,242.0,293.5,234.0,301.5,226.5,309.5,219.0,317.5,211.5" stroke="black" stroke-width="2" fill="none" />
<polyline points="313.5,196.5,305.5,204.0,298.0,210.5,290.5,217.5,283.5,224.5,276.0,232.0,268.5,239.5" stroke="black" stroke-width="2" fill="none" />
<polyline points="266.5,235.0,274.5,234.5,283.0,234.0" stroke="black" stroke-width="2" fill="none" />
<polyline points="283.0,249.0,291.5,241.0,299.5,233.5,308.0,225.5" stroke="black" stroke-width="2" fill="none" />
<polyline points="307.0,218.0,299.0,218.5" stroke="black" stroke-width="2" fill="none" />
<polyline points="299.5,210.5,307.5,210.0" stroke="black" stroke-width="2" fill="none" />
<polyline points="298.0,202.0,306.0,195.0,314.0,187.0" stroke="black" stroke-width="2" fill="none" />
<polyline points="314.0,185.0,305.5,185.0,297.5,185.5" stroke="black" stroke-width="2" fill="none" />
<polyline points="301.0,185.5,308.5,178.0,316.0,170.0,324.0,162.0,331.5,154.5" stroke="black" stroke-width="2" fill="none" />
<polyline points="337.5,150.0,337.5,143.0,333.5,135.0,320.5,139.0,323.0,142.0,334.0,140.5" stroke="black" stroke-width="2" fill="none" />
<polyline points="340.0,132.5,347.5,131.5,355.5,131.5" stroke="black" stroke-width="2" fill="none" />
<polyline points="356.0,124.5,348.0,124.5,340.0,124.5" stroke="black" stroke-width="2" fill="none" />
<polyline points="339.0,117.0,346.5,116.0" stroke="black" stroke-width="2" fill="none" />
<polyline points="344.0,116.0,349.0,128.0,344.5,129.5" stroke="black" stroke-width="2" fill="none" />
<polyline points="356.5,140.5,358.5,144.5,366.5,144.0,377.5,154.0,391.0,148.0,397.0,151.0" stroke="black" stroke-width="2" fill="none" />
<polyline points="393.5,149.5,396.5,157.5" stroke="black" stroke-width="2" fill="none" />
<polyline points="394.5,146.0,402.5,145.5" stroke="black" stroke-width="2" fill="none" />
<polyline points="404.0,149.0,396.0,149.0,388.5,149.5,380.5,149.5,372.5,150.0,364.5,150.5,356.5,150.5,348.5,151.5,340.5,152.5,332.5,153.0,324.0,154.0,315.5,154.0,307.0,155.0,298.5,155.5,290.5,156.5,282.5,157.0,274.5,157.0,267.0,157.0,259.5,157.0,251.5,157.5,243.5,157.5,235.5,158.0,227.5,158.5,220.0,159.0,212.0,159.0,204.0,160.0,196.0,160.5,188.0,161.5,180.0,162.0,172.0,162.5,164.0,163.0,156.5,163.5,149.0,164.0,141.0,164.0,133.0,164.5" stroke="black" stroke-width="2" fill="none" />
<polyline points="133.0,162.0,141.0,155.0,148.5,147.5,156.5,140.0" stroke="black" stroke-width="2" fill="none" />
<polyline points="164.0,139.0,155.5,146.5,147.5,154.0,139.5,161.5" stroke="black" stroke-width="2" fill="none" />
<polyline points="140.5,161.5,148.5,161.0,156.5,160.5,164.5,160.0,172.0,159.5,180.0,159.0,188.0,159.5,196.0,159.5,203.5,159.0,211.0,158.5,219.0,157.5,226.5,157.0,234.0,156.5,242.0,156.5,249.5,156.0,257.5,155.0,265.5,154.5,274.0,154.0,282.0,152.5,289.5,152.0,297.5,151.5,305.5,151.0,314.0,151.0" stroke="black" stroke-width="2" fill="none" />
<polyline points="314.5,153.0,306.0,160.5,298.0,168.5,289.5,176.5,281.0,184.5" stroke="black" stroke-width="2" fill="none" />
<polyline points="292.0,185.0,300.0,177.5,308.0,170.5,316.0,163.0,324.0,155.5" stroke="black" stroke-width="2" fill="none" />
<polyline points="324.0,163.0,332.5,162.5,340.5,162.0,348.0,161.0" stroke="black" stroke-width="2" fill="none" />
<polyline points="345.0,157.5,337.0,164.5,330.0,171.5,322.0,178.5" stroke="black" stroke-width="2" fill="none" />
<polyline points="323.5,177.5,331.5,177.0" stroke="black" stroke-width="2" fill="none" />
<polyline points="332.5,176.5,341.5,169.0,350.0,161.0,358.5,153.5,366.0,145.5" stroke="black" stroke-width="2" fill="none" />
<polyline points="363.5,144.0,371.5,143.5,380.0,142.5,388.0,141.5,395.0,140.5,403.0,139.5,411.0,139.0" stroke="black" stroke-width="2" fill="none" />
<polyline points="401.0,138.0,393.0,145.5,385.5,153.0,378.0,161.0,370.5,168.5,362.5,176.5" stroke="black" stroke-width="2" fill="none" />
<polyline points="361.0,178.5,362.0,186.5,363.0,194.5,362.5,203.0,363.5,211.0,366.5,219.0,367.5,226.5,369.5,234.5,368.5,242.5,369.5,250.5" stroke="black" stroke-width="2" fill="none" />
<polyline points="324.5,257.5,316.5,258.0,308.5,258.5,300.5,259.0,292.5,259.0,284.5,259.0,276.0,259.5,267.5,259.5,259.0,260.0,251.5,260.5,244.0,261.5" stroke="black" stroke-width="2" fill="none" />
<polyline points="235.5,268.0,243.5,267.5,251.0,267.0,259.0,266.5,267.5,266.0,276.0,266.0,284.0,265.0,292.0,265.0" stroke="black" stroke-width="2" fill="none" />
<polyline points="308.5,255.0,316.5,254.5,324.5,255.5,332.0,256.5,340.0,257.5,347.5,259.5,355.5,260.5,363.5,261.5,371.5,263.0,379.5,263.0" stroke="black" stroke-width="2" fill="none" />
<polyline points="355.5,175.0,363.5,167.5,371.0,160.0,378.5,153.0,386.0,145.0,393.5,137.5,401.5,130.0" stroke="black" stroke-width="2" fill="none" />
<polyline points="395.0,133.5,402.5,133.0,410.5,132.5" stroke="black" stroke-width="2" fill="none" />
<polyline points="410.0,140.0,402.5,140.5,395.5,141.5,388.0,142.0,380.0,142.5,372.5,142.5,364.0,143.5,356.0,144.0,348.0,145.0,340.0,145.5,332.0,146.0,323.5,147.0,315.5,147.5,307.0,148.0,299.0,148.5,291.0,149.0,282.5,149.5,275.0,150.0,267.0,150.0,259.5,150.5,251.5,150.5,244.0,150.5,236.5,151.0,229.0,151.0,221.0,151.0,212.5,151.5,204.5,152.0,196.5,152.5,188.5,153.0,180.0,153.0,172.5,153.5,164.5,154.5,156.5,155.5,148.0,157.0,140.0,157.5,132.5,158.5" stroke="black" stroke-width="2" fill="none" />
<polyline points="132.5,155.5,140.5,148.0,148.0,141.0" stroke="black" stroke-width="2" fill="none" />
<polyline points="139.0,139.0,130.5,147.0" stroke="black" stroke-width="2" fill="none" />
<polyline points="131.5,150.0,140.0,149.5,148.5,149.0,156.5,148.5,165.0,148.0,173.5,147.5,181.5,147.0,189.5,146.5,197.0,145.5,205.0,144.5,213.0,143.5,221.0,143.5,228.5,142.5,236.0,142.5,243.5,143.0,251.0,143.0,258.5,142.5,266.5,143.0,274.0,142.5,281.5,142.0,289.0,142.0,297.5,141.0,305.5,140.5,314.0,139.5,323.0,138.5,331.0,138.0,338.5,137.0,346.5,136.5,354.5,135.5,362.0,135.0,370.5,134.0,378.0,134.0,386.5,133.5,394.5,133.0,402.5,132.0,410.5,131.0" stroke="black" stroke-width="2" fill="none" />
<polyline points="403.5,118.5,401.0,126.5,397.0,138.5,387.0,148.5,386.0,156.5,391.0,165.0,390.5,170.0,387.5,179.0,395.5,182.5,395.0,190.5,394.0,199.0,386.0,200.0,393.0,208.0,390.5,212.0,388.5,220.5,385.5,228.5,389.5,231.5,384.0,239.5,383.5,247.5,386.5,255.0,381.0,263.0" stroke="black" stroke-width="2" fill="none" />
<polyline points="348.5,177.0,356.0,169.0,363.5,161.5,371.5,154.0,380.5,146.5,388.5,139.0" stroke="black" stroke-width="2" fill="none" />
<polyline points="396.0,141.5,404.0,137.5,402.5,140.5,403.5,147.0,402.0,154.5,404.0,162.5,398.5,170.5,393.0,174.5,401.0,168.5" stroke="black" stroke-width="2" fill="none" />
<polyline points="372.0,148.5,364.5,155.5,356.5,163.5,348.5,171.0,340.0,179.0" stroke="black" stroke-width="2" fill="none" />
<polyline points="334.0,174.0,342.0,177.0,350.0,177.0" stroke="black" stroke-width="2" fill="none" />
<polyline points="362.0,169.5,370.0,169.5" stroke="black" stroke-width="2" fill="none" />
<polyline points="357.0,162.5,364.5,162.0,372.5,161.0,380.5,160.5,388.0,159.5" stroke="black" stroke-width="2" fill="none" />
<polyline points="386.5,152.5,379.0,153.0,371.5,153.5,364.0,154.5" stroke="black" stroke-width="2" fill="none" />
<polyline points="339.5,154.5,332.0,162.0,324.0,170.0,316.5,177.0,309.0,184.5,301.5,192.0" stroke="black" stroke-width="2" fill="none" />
<polyline points="298.5,193.0,306.5,193.0,314.5,192.5" stroke="black" stroke-width="2" fill="none" />
<polyline points="314.5,200.5,306.5,200.5,298.5,201.0" stroke="black" stroke-width="2" fill="none" />
<polyline points="292.5,210.5,284.5,218.0,276.0,224.5,267.5,232.0,259.0,239.5" stroke="black" stroke-width="2" fill="none" />
<polyline points="252.5,241.5,261.0,234.5,269.0,227.0,277.0,219.5,285.5,212.0" stroke="black" stroke-width="2" fill="none" />
<polyline points="284.5,202.0,277.0,209.5,268.5,217.0,260.5,225.0,252.5,233.0,244.5,241.0" stroke="black" stroke-width="2" fill="none" />
<polyline points="236.0,240.5,244.0,233.0,252.0,225.0,260.0,217.0,268.5,210.0,276.5,202.5" stroke="black" stroke-width="2" fill="none" />
<polyline points="267.0,204.0,259.0,211.5,252.0,218.5,243.5,225.5,235.5,233.0,227.0,240.5,219.5,248.0,212.0,255.0,204.5,262.5" stroke="black" stroke-width="2" fill="none" />
<polyline points="205.0,264.5,213.0,264.5,220.5,263.5" stroke="black" stroke-width="2" fill="none" />
<polyline points="227.0,268.0,219.0,275.5,211.0,282.5" stroke="black" stroke-width="2" fill="none" />
<polyline points="204.5,280.5,213.0,280.0,221.0,280.0" stroke="black" stroke-width="2" fill="none" />
<polyline points="218.0,283.0,226.0,276.0" stroke="black" stroke-width="2" fill="none" />
<polyline points="225.5,278.0,234.0,276.0" stroke="black" stroke-width="2" fill="none" />
<polyline points="227.5,258.5,219.5,266.0,211.5,274.0,203.5,282.0" stroke="black" stroke-width="2" fill="none" />
<polyline points="196.5,285.5,204.5,285.0,213.0,285.0,220.5,285.0,228.0,284.5" stroke="black" stroke-width="2" fill="none" />
<polyline points="220.0,272.0,212.0,272.0" stroke="black" stroke-width="2" fill="none" />
<polyline points="204.0,273.0,212.0,265.5,220.0,258.0,228.0,251.0" stroke="black" stroke-width="2" fill="none" />
<polyline points="221.0,257.0,213.0,258.0,205.0,258.5" stroke="black" stroke-width="2" fill="none" />
<polyline points="204.5,257.0,213.0,249.0,221.0,241.5,228.5,234.0,236.0,227.0,244.0,219.5,252.0,212.0,260.0,204.5" stroke="black" stroke-width="2" fill="none" />
<polyline points="267.0,206.5,275.0,207.5,282.5,208.5,290.5,211.0" stroke="black" stroke-width="2" fill="none" />
<polyline points="306.0,221.0,310.5,218.5,311.5,210.0,314.0,202.0,313.5,194.0,316.0,186.0,309.0,183.5,309.5,185.5" stroke="black" stroke-width="2" fill="none" />
<polyline points="308.5,181.0,317.0,181.0,324.0,180.5,326.5,182.5,334.5,181.0,337.5,178.0,345.5,179.0" stroke="black" stroke-width="2" fill="none" />
<polyline points="316.0,189.0,308.0,189.5,300.0,190.0,292.0,190.5" stroke="black" stroke-width="2" fill="none" />
<polyline points="275.0,185.5,283.5,178.0,292.0,170.5,300.0,163.5,308.0,156.5" stroke="black" stroke-width="2" fill="none" />
<polyline points="310.5,162.0,318.5,160.0,323.5,160.0,323.5,165.0" stroke="black" stroke-width="2" fill="none" />
<polyline points="315.5,168.0,306.5,168.0,298.0,168.5,290.5,169.0,282.5,169.5,274.0,170.5,266.0,171.5,258.0,172.0,249.5,172.0,241.5,172.5,234.0,173.0,226.5,173.0,218.5,173.0,211.0,173.0,203.0,173.0,195.5,173.5,188.5,174.5,180.5,175.5,172.5,176.5,164.5,177.0" stroke="black" stroke-width="2" fill="none" />
<polyline points="163.5,185.0,171.5,184.5,179.0,184.5,187.5,184.0,196.0,183.0,204.0,182.5,212.0,182.0,219.5,181.5,227.5,181.0,235.0,180.5" stroke="black" stroke-width="2" fill="none" />
<polyline points="234.5,177.5,226.0,178.0,218.5,179.0,211.0,180.0,203.0,180.5,195.0,181.0,187.5,181.5,179.5,182.0,172.0,182.5,164.0,183.0,156.5,183.0,148.5,182.0,141.0,182.0,133.5,182.0,125.5,182.5,117.5,183.0,109.5,183.5,101.0,184.5,91.5,185.5,82.5,186.0,74.5,186.5,66.5,187.5,58.5,187.5,50.0,187.5,42.0,188.5" stroke="black" stroke-width="2" fill="none" />
<polyline points="51.5,198.5,59.5,197.5,67.5,197.0,75.5,196.5,83.0,195.5,90.5,195.0,99.5,194.5,108.0,194.0,116.5,193.0,125.5,192.5,133.5,192.0,141.5,191.5,149.5,191.0,157.0,190.5,164.5,189.5,172.5,189.0,180.0,189.5,187.5,189.0,195.5,189.0,203.0,189.0,211.0,189.0,219.0,188.5,227.0,188.0,235.0,187.5,242.5,187.0,250.0,186.0,258.5,185.5,266.5,184.5,275.0,183.5,283.0,182.5,291.0,182.5,298.5,182.0,306.5,181.5,314.0,181.5,322.0,180.5" stroke="black" stroke-width="2" fill="none" />
<polyline points="322.5,191.5,314.0,191.5,305.5,192.0,297.5,193.0,289.5,194.0,282.0,194.5,274.5,194.5,267.0,195.0,259.5,195.0,251.5,195.5,243.5,196.5,235.5,196.5,227.5,197.0,220.0,197.0,212.0,197.5,204.0,197.5,196.0,198.0,188.0,198.5,179.5,198.5,171.5,199.5,163.5,200.0,156.0,200.5,148.0,201.0,140.5,201.5,132.5,202.0,124.5,203.0,116.0,204.0,108.0,205.0,100.5,206.0,92.5,206.5" stroke="black" stroke-width="2" fill="none" />
<polyline points="77.0,182.0,85.0,181.0,92.0,180.5,100.0,180.0,108.0,180.0,116.0,179.0,124.0,178.0,132.0,177.0,140.5,176.0,148.5,174.5,156.5,173.5,164.5,173.0,172.5,173.5,181.0,173.5,188.5,173.0,196.5,173.5,204.5,173.0,213.0,173.5,221.0,173.5,228.5,173.5,236.0,173.0,244.5,172.5,252.5,172.0,260.0,171.0,267.5,170.5,275.5,170.0,283.0,169.0,291.0,168.5,298.5,168.0,306.5,167.5,314.5,167.0,322.5,166.5,330.5,166.0,338.5,165.0" stroke="black" stroke-width="2" fill="none" />
<polyline points="345.0,159.5,338.0,160.0,330.5,160.5,323.0,161.0,315.5,161.5,307.5,162.0,299.5,162.5,291.5,162.5,283.5,162.5,276.0,162.0,268.0,162.0,260.5,162.5,252.5,163.0,244.5,163.5,237.0,164.5,229.5,165.0,221.5,165.0,212.5,166.0,204.0,166.0,196.0,166.5,187.5,167.5,178.5,168.0,169.5,168.0,161.0,169.0,153.0,170.0,145.0,170.5" stroke="black" stroke-width="2" fill="none" />
<polyline points="147.0,173.0,155.0,172.0,163.5,171.5,171.5,170.5,180.0,170.0,188.5,170.0,196.5,169.5,204.5,169.5,212.5,169.0,220.5,169.0,228.0,168.5,236.5,168.5,244.0,168.0,251.5,167.5,259.5,167.0,266.5,166.5,274.5,166.5,282.5,165.5,290.5,164.5,298.5,163.5,306.5,163.0,314.5,162.5,323.0,162.5,331.5,161.5,339.5,161.0,347.5,160.0,355.5,160.0,363.0,159.5,371.0,159.0,379.0,158.5,387.0,158.0,395.0,157.5,403.0,157.0" stroke="black" stroke-width="2" fill="none" />
<polyline points="387.0,126.0,379.0,126.5,371.0,127.0" stroke="black" stroke-width="2" fill="none" />
<polyline points="388.0,117.5,382.0,119.5,388.0,121.5,381.5,129.5,396.5,123.0,404.5,119.0,412.0,101.0" stroke="black" stroke-width="2" fill="none" />
<polyline points="411.5,102.5,408.5,110.5,402.5,118.5,388.5,126.5,383.0,135.0,376.0,141.0" stroke="black" stroke-width="2" fill="none" />
<polyline points="364.0,124.5,351.0,115.5,343.5,115.5,335.5,108.5,328.0,100.5,320.0,96.5" stroke="black" stroke-width="2" fill="none" />
<polyline points="316.5,95.0,324.5,94.0" stroke="black" stroke-width="2" fill="none" />
<polyline points="325.0,108.0,332.0,116.0" stroke="black" stroke-width="2" fill="none" />
<polyline points="329.5,121.5,321.5,122.0,314.0,122.5,306.5,123.0,299.0,124.0,291.5,124.5,283.5,125.0,276.0,125.5,268.5,126.0,260.5,126.5,252.5,127.0,245.0,127.5,237.0,127.5,229.5,128.0,221.5,128.0,213.5,128.5,205.5,129.0,197.0,129.0,189.0,130.0,180.5,130.5,172.5,131.0,164.0,131.0,156.0,131.5,148.0,131.5,140.5,132.0,133.0,132.5" stroke="black" stroke-width="2" fill="none" />
<polyline points="133.0,132.5,141.0,135.5" stroke="black" stroke-width="2" fill="none" />
<polyline points="138.5,145.0,147.0,145.0" stroke="black" stroke-width="2" fill="none" />
<polyline points="139.5,153.5,147.5,153.0,155.5,152.5,163.5,152.0,171.0,151.5,179.0,150.5,187.0,150.5" stroke="black" stroke-width="2" fill="none" />
<polyline points="186.0,146.0,178.0,153.0,170.5,160.5,162.5,168.5,155.0,176.5" stroke="black" stroke-width="2" fill="none" />
<polyline points="162.0,185.0,170.5,177.5,179.5,170.5,188.0,163.0,196.0,155.5,204.5,147.5" stroke="black" stroke-width="2" fill="none" />
<polyline points="212.5,147.0,204.5,154.5,196.5,162.5,188.0,170.0,180.0,178.0,172.0,186.0,163.5,193.5" stroke="black" stroke-width="2" fill="none" />
<polyline points="162.5,195.0,170.5,194.0,178.5,193.0" stroke="black" stroke-width="2" fill="none" />
<polyline points="179.5,188.0,180.5,195.5,179.5,203.5,179.5,211.5,179.5,219.5,179.5,227.5,188.5,222.5" stroke="black" stroke-width="2" fill="none" />
<polyline points="186.0,219.5,178.0,226.5,170.0,234.0" stroke="black" stroke-width="2" fill="none" />
<polyline points="170.0,233.0,178.0,233.0" stroke="black" stroke-width="2" fill="none" />
<polyline points="188.0,231.5,196.0,224.0,203.5,216.0,212.0,208.5,220.0,201.0,228.0,193.5,236.0,186.0,243.5,178.5,251.0,171.0,259.0,163.0,267.0,155.0" stroke="black" stroke-width="2" fill="none" />
<polyline points="261.5,151.0,269.5,146.0,277.5,150.5" stroke="black" stroke-width="2" fill="none" />
<polyline points="277.5,155.0,269.5,163.0,261.0,170.5,253.0,177.5,245.5,184.0" stroke="black" stroke-width="2" fill="none" />
<polyline points="238.0,185.0,233.0,193.0,230.0,201.5,230.5,209.5" stroke="black" stroke-width="2" fill="none" />
<polyline points="236.0,203.0,228.0,211.0,220.0,218.5,212.0,226.5,204.0,234.0,196.5,241.5" stroke="black" stroke-width="2" fill="none" />
<polyline points="203.5,240.5,212.0,234.0,220.0,227.5,228.0,220.0,236.0,212.5,244.0,205.0" stroke="black" stroke-width="2" fill="none" />
<polyline points="251.0,203.5,243.5,210.5,235.5,218.5,228.0,226.0,220.0,233.5,211.5,241.0,203.5,248.0" stroke="black" stroke-width="2" fill="none" />
<polyline points="205.5,249.5,213.5,249.0,221.5,249.0,229.0,248.5" stroke="black" stroke-width="2" fill="none" />
<polyline points="229.0,239.5,221.0,240.0,213.0,241.0,205.5,241.0" stroke="black" stroke-width="2" fill="none" />
<polyline points="206.5,234.5,214.5,233.5,222.0,233.0,229.5,232.5" stroke="black" stroke-width="2" fill="none" />
<polyline points="228.5,224.0,220.5,224.0,212.5,224.5,205.0,224.5,197.0,225.0" stroke="black" stroke-width="2" fill="none" />
<polyline points="197.0,233.0,204.5,225.5,212.0,217.5,220.0,210.0,228.0,202.5,236.0,195.0" stroke="black" stroke-width="2" fill="none" />
<polyline points="233.5,189.0,241.0,186.0,249.0,187.0,257.0,186.0,265.0,186.0,272.5,186.0,280.5,186.0,288.5,186.0,296.5,186.5,295.0,194.5,295.0,202.5,296.0,210.5" stroke="black" stroke-width="2" fill="none" />
<polyline points="295.0,217.5,287.0,215.5,279.5,214.5,271.5,214.5" stroke="black" stroke-width="2" fill="none" />
<polyline points="268.0,184.5,276.0,177.0,284.0,169.5,292.5,162.0,300.5,154.5" stroke="black" stroke-width="2" fill="none" />
<polyline points="295.5,156.0,303.5,156.0,318.0,151.0" stroke="black" stroke-width="2" fill="none" />
<polyline points="308.5,141.5,300.0,141.5" stroke="black" stroke-width="2" fill="none" />
<polyline points="291.5,155.0,284.0,162.0,276.5,169.5,268.5,177.5,261.0,185.5" stroke="black" stroke-width="2" fill="none" />
<polyline points="253.0,185.0,261.5,177.5,269.0,170.0,276.5,162.5,284.0,155.5" stroke="black" stroke-width="2" fill="none" />
<polyline points="275.0,143.5,272.5,151.5,267.5,151.5" stroke="black" stroke-width="2" fill="none" />
<polyline points="259.5,154.5,251.5,162.5,244.0,170.5,236.0,178.0,227.5,185.0,220.0,192.5,212.0,200.0,204.5,207.0,197.0,214.0,190.0,221.0,182.0,228.5" stroke="black" stroke-width="2" fill="none" />
<polyline points="180.0,218.5,172.0,226.0,163.5,234.0" stroke="black" stroke-width="2" fill="none" />
<polyline points="163.0,227.0,171.0,219.5,179.0,212.0" stroke="black" stroke-width="2" fill="none" />
<polyline points="181.0,202.0,173.0,210.0,164.5,217.5" stroke="black" stroke-width="2" fill="none" />
<polyline points="165.5,217.0,173.5,216.5,181.5,216.0" stroke="black" stroke-width="2" fill="none" />
<polyline points="195.0,217.0,203.0,216.5,210.5,216.0,218.5,216.0,226.5,216.0,234.5,216.0" stroke="black" stroke-width="2" fill="none" />
<polyline points="227.5,208.5,220.0,208.5,212.0,208.5,204.0,209.0,196.5,209.0" stroke="black" stroke-width="2" fill="none" />
<polyline points="193.5,207.0,202.0,199.0,210.5,192.0,218.5,185.0,226.5,178.5,235.0,171.5,243.5,164.0,251.5,156.5" stroke="black" stroke-width="2" fill="none" />
<polyline points="245.5,157.0,237.5,164.5,229.0,172.0,220.5,180.0,212.0,188.0,203.0,195.5,195.0,202.5" stroke="black" stroke-width="2" fill="none" />
<polyline points="196.0,200.5,204.5,200.0,212.5,200.5,220.0,200.0" stroke="black" stroke-width="2" fill="none" />
<polyline points="220.5,191.0,219.0,199.0,223.0,191.0" stroke="black" stroke-width="2" fill="none" />
<polyline points="194.5,193.0,202.5,185.5,211.0,178.0,219.0,170.0,227.0,162.5,235.0,155.0" stroke="black" stroke-width="2" fill="none" />
<polyline points="229.5,157.0,221.5,164.5,213.5,172.0,205.5,179.0,197.5,186.0,189.5,193.5" stroke="black" stroke-width="2" fill="none" />
<polyline points="194.0,192.0,202.0,192.0,210.0,192.0,218.5,192.0,226.5,192.0" stroke="black" stroke-width="2" fill="none" />
<polyline points="217.0,219.5,229.0,223.5,226.5,232.0,225.5,240.0,224.5,248.5,222.5,256.5,223.0,265.0,218.0,272.5,221.0,280.5,217.0,288.5,228.0,287.0,236.0,285.5,244.0,282.5,252.5,282.5" stroke="black" stroke-width="2" fill="none" />
<polyline points="194.5,275.0,186.0,283.0" stroke="black" stroke-width="2" fill="none" />
<polyline points="190.5,277.5,198.5,278.5" stroke="black" stroke-width="2" fill="none" />
<polyline points="201.0,287.5,193.0,285.0,185.0,282.5,176.5,281.5,168.5,281.0" stroke="black" stroke-width="2" fill="none" />
<polyline points="164.5,274.5,172.5,274.0,180.5,274.5,189.0,274.5,196.5,274.0,204.5,274.5,212.5,274.0,221.0,274.5,229.0,274.5,236.5,274.5,244.0,274.0,252.5,273.5,260.5,273.0" stroke="black" stroke-width="2" fill="none" />
<polyline points="228.0,265.0,220.0,265.5,212.0,266.5,204.5,267.0,196.5,267.0,188.5,267.5,180.5,268.0,172.0,268.0,163.5,268.5,155.0,269.0,146.5,269.0,138.5,269.5" stroke="black" stroke-width="2" fill="none" />
<polyline points="113.0,260.5,121.0,260.0,129.5,259.5,137.5,259.0,145.5,259.0,153.5,258.5,162.0,258.0,170.0,257.0,178.5,256.5,187.0,256.5,195.0,256.0,203.0,255.5,210.5,255.0,218.5,255.0,226.5,255.0,234.5,255.0" stroke="black" stroke-width="2" fill="none" />
<polyline points="215.5,290.5,208.0,290.5,202.5,284.0,200.0,273.0,199.0,265.0,200.0,257.0,199.0,249.0,198.0,241.0,196.0,233.0" stroke="black" stroke-width="2" fill="none" />
<polyline points="179.0,224.0,170.5,224.5" stroke="black" stroke-width="2" fill="none" />
<polyline points="165.5,207.5,173.5,207.0,181.0,207.0" stroke="black" stroke-width="2" fill="none" />
<polyline points="164.5,207.0,172.5,200.0,180.0,193.0,187.5,185.5,196.0,178.0,204.0,170.5,212.5,163.0,221.0,156.0,229.5,149.0" stroke="black" stroke-width="2" fill="none" />
<polyline points="225.0,149.0,233.0,150.0,241.0,142.0" stroke="black" stroke-width="2" fill="none" />
<polyline points="258.0,133.5,256.5,141.5,250.5,136.5,244.5,145.5,251.5,148.0,258.5,148.0,256.0,149.0,258.0,150.0,266.0,138.0,272.5,144.0,278.5,144.0,286.5,143.0,295.5,143.5" stroke="black" stroke-width="2" fill="none" />
<polyline points="289.5,132.5,281.0,133.0,273.5,133.5,266.0,134.0,259.0,134.5,251.5,134.5,244.0,135.0,237.0,135.5,229.0,136.0,221.0,137.0,213.0,137.5,205.0,138.0,196.5,137.5,189.0,137.0,181.0,137.5,173.5,137.5,165.5,138.0,157.5,138.5,149.0,139.0,140.0,140.0,132.0,140.5" stroke="black" stroke-width="2" fill="none" />
<polyline points="131.5,126.0,146.5,134.0,146.5,140.5,154.5,139.5,160.5,143.0,168.5,141.5" stroke="black" stroke-width="2" fill="none" />
<polyline points="171.5,147.0,163.5,154.5,155.5,161.5,148.0,169.0" stroke="black" stroke-width="2" fill="none" />
<polyline points="146.0,163.0,154.5,155.5,162.5,148.5" stroke="black" stroke-width="2" fill="none" />
<polyline points="179.5,147.5,171.5,155.0,164.0,162.0,156.5,169.0" stroke="black" stroke-width="2" fill="none" />
<polyline points="155.0,184.0,163.5,176.0,171.5,169.0,179.0,162.0,186.5,155.0,194.0,147.5" stroke="black" stroke-width="2" fill="none" />
<polyline points="208.0,138.0,201.0,137.5,193.0,137.5,184.5,127.5" stroke="black" stroke-width="2" fill="none" />
<polyline points="186.5,123.5,186.5,131.5,181.5,141.5,176.0,144.5,182.0,142.5,189.0,145.0" stroke="black" stroke-width="2" fill="none" />
<polyline points="182.5,134.5,179.5,125.5,177.5,120.5,183.0,112.0,177.0,120.5" stroke="black" stroke-width="2" fill="none" />
<polyline points="172.5,109.0,180.5,108.0,188.0,107.0,195.5,107.0,203.5,106.5,211.5,106.5,219.5,106.0,227.0,105.5" stroke="black" stroke-width="2" fill="none" />
<polyline points="234.0,115.5,242.0,114.5,246.5,116.5,248.5,112.5" stroke="black" stroke-width="2" fill="none" />
<polyline points="260.0,109.5,252.5,110.0,245.0,110.5,237.5,111.5,230.0,112.0,222.5,112.5,214.5,113.5,206.0,114.0,197.0,114.5,188.5,115.0,180.5,115.0,172.5,115.5,164.0,115.5,156.0,116.5,148.0,117.0,140.0,117.0,132.5,117.0" stroke="black" stroke-width="2" fill="none" />
<polyline points="131.0,126.0,138.5,125.0,146.5,124.5,155.0,124.5,163.5,124.0,172.5,124.0,181.0,123.0,189.0,122.0,197.0,121.0,205.0,120.5,213.5,120.0,221.0,120.0,229.0,119.0,237.0,118.5,245.0,118.5,252.5,118.0,260.0,117.5,268.0,116.5,276.0,116.0,283.5,115.0,291.0,114.5,299.5,113.5,307.0,113.0,314.5,112.5,322.5,112.0" stroke="black" stroke-width="2" fill="none" />
<polyline points="318.5,130.5,310.5,133.0,311.5,138.0,300.5,148.5,304.0,137.5,312.5,134.5,322.0,130.5,335.0,133.0" stroke="black" stroke-width="2" fill="none" />
<polyline points="351.0,98.0,358.5,97.5,367.5,98.5" stroke="black" stroke-width="2" fill="none" />
<polyline points="369.5,107.5,370.5,115.5" stroke="black" stroke-width="2" fill="none" />
<polyline points="363.0,137.5,355.0,142.0,351.0,146.0,347.0,144.5,344.5,155.5,336.5,157.5,328.5,159.5,330.5,143.5,335.0,140.5,342.0,139.0,340.0,131.0,339.5,123.0,335.5,114.5,328.5,106.5,315.0,98.5,303.0,88.5,295.0,86.5" stroke="black" stroke-width="2" fill="none" />
<polyline points="307.0,87.0,315.0,86.5,323.0,86.0,331.0,85.5,338.5,85.0" stroke="black" stroke-width="2" fill="none" />
<polyline points="340.0,85.0,333.0,85.0,319.5,83.0,313.5,80.0,301.5,76.0" stroke="black" stroke-width="2" fill="none" />
<polyline points="315.5,75.5,308.0,76.0,300.0,76.5,292.5,77.0,284.5,77.0,276.5,77.5,269.0,78.0" stroke="black" stroke-width="2" fill="none" />
<polyline points="267.5,82.5,276.0,81.5,284.0,81.5,292.0,78.0" stroke="black" stroke-width="2" fill="none" />
<polyline points="262.0,83.0,270.0,82.0,271.0,79.5,276.0,80.5,286.5,83.5,291.0,82.5,299.0,85.0,306.0,87.0,311.5,87.5,319.5,91.0,328.0,94.0,335.5,97.0,344.0,101.0,349.0,106.0,355.0,118.0,366.0,113.0,373.0,107.0" stroke="black" stroke-width="2" fill="none" />
<polyline points="381.5,112.0,374.5,100.0,374.5,93.0,366.5,89.0,358.0,86.0,350.0,83.0,342.0,81.0,334.0,79.0,327.0,78.0,319.0,76.0,311.0,76.0,302.5,74.0,298.0,72.5,290.0,75.0,287.0,73.0,279.5,73.5,271.5,72.5,264.0,72.5,259.0,68.5,249.0,65.5,248.5,71.5,240.5,69.5,232.0,70.5,224.0,69.5,220.0,67.5,214.0,67.5,208.0,70.5,202.0,68.0,194.5,70.0,186.0,71.0,178.0,69.5,170.0,71.5,162.0,71.0,154.0,73.0" stroke="black" stroke-width="2" fill="none" />
<polyline points="158.0,66.5,140.0,74.5,130.0,82.5,123.0,90.5,121.0,98.0,121.5,106.0,124.0,114.0,127.5,122.0,129.0,130.0,130.5,138.0,131.5,146.0,130.5,154.0,133.5,161.5,143.0,169.5,154.0,177.5,155.5,185.5,157.5,194.0,159.0,202.0,160.0,210.5,160.0,219.0,162.0,227.0,164.0,235.0,169.0,237.0,177.0,236.0,184.5,233.0,192.0,231.0" stroke="black" stroke-width="2" fill="none" />
<polyline points="179.5,200.0,171.5,201.0,163.5,201.0" stroke="black" stroke-width="2" fill="none" />
<polyline points="164.5,200.0,171.5,192.0,179.5,184.0,187.5,176.5,196.0,169.5,203.5,162.0,211.5,155.5,219.0,147.5" stroke="black" stroke-width="2" fill="none" />
<polyline points="208.5,187.0,200.5,186.0,192.0,185.0,184.0,186.0" stroke="black" stroke-width="2" fill="none" />
<polyline points="180.0,187.5,187.5,189.5,189.5,196.0,192.0,204.5,193.0,212.5,193.0,221.0" stroke="black" stroke-width="2" fill="none" />
<polyline points="164.5,177.5,162.5,175.0,154.5,175.5,148.5,171.5,140.5,167.0" stroke="black" stroke-width="2" fill="none" />
<polyline points="144.0,111.0,136.0,107.0" stroke="black" stroke-width="2" fill="none" />
<polyline points="135.0,103.5,143.0,99.5,151.0,100.5,155.5,96.0" stroke="black" stroke-width="2" fill="none" />
<polyline points="156.5,83.5,148.5,83.5,140.0,84.0,132.0,84.5" stroke="black" stroke-width="2" fill="none" />
<polyline points="137.0,84.0,125.5,93.0,125.5,104.5,124.5,108.0,129.5,120.5,134.5,130.5,138.5,129.5,145.5,132.5,153.5,133.5,161.0,134.5,169.0,135.5,176.0,136.0,183.5,136.5,192.5,139.5,198.5,145.5,207.5,149.5,214.5,146.0,221.0,140.0,229.0,141.0,237.0,141.5,246.0,142.0,246.0,150.0" stroke="black" stroke-width="2" fill="none" />
<polyline points="280.5,140.0,288.0,136.0,300.0,136.0,298.0,144.0,294.5,150.0,298.5,148.0" stroke="black" stroke-width="2" fill="none" />
<polyline points="283.0,149.0,281.5,141.5,285.5,133.5" stroke="black" stroke-width="2" fill="none" />
<polyline points="287.0,119.0,286.0,118.0,279.0,109.0,279.0,108.5" stroke="black" stroke-width="2" fill="none" />
<polyline points="265.0,67.5,264.0,71.5,262.0,80.5,254.0,80.0,253.5,79.5,245.5,76.0,238.0,77.0,229.5,76.0,222.0,75.0,214.0,76.5,206.5,76.5,198.0,76.0,189.5,76.5,181.5,77.0,173.5,78.0,165.0,79.5,156.5,80.5,148.0,81.0,139.5,83.5,131.5,86.5,123.5,92.0" stroke="black" stroke-width="2" fill="none" />
<polyline points="123.0,92.5,131.0,92.0" stroke="black" stroke-width="2" fill="none" />
<polyline points="140.0,93.0,148.0,92.0,156.5,91.5,164.5,91.0,172.0,90.5,180.0,90.0" stroke="black" stroke-width="2" fill="none" />
<polyline points="191.5,80.0,194.5,78.0,202.5,78.0" stroke="black" stroke-width="2" fill="none" />
<polyline points="195.0,66.5,187.5,66.5" stroke="black" stroke-width="2" fill="none" />
<polyline points="179.5,67.5,171.5,68.5" stroke="black" stroke-width="2" fill="none" />
<polyline points="169.5,67.0,177.5,68.0" stroke="black" stroke-width="2" fill="none" />
<polyline points="181.5,74.5,173.5,75.0,165.5,75.5,157.5,75.5,149.5,75.5,141.0,76.0" stroke="black" stroke-width="2" fill="none" />
<polyline points="121.5,91.0,129.5,82.0,138.0,76.5,146.0,71.5,154.5,68.5,162.5,65.5,170.5,63.5,179.0,63.0,186.5,62.0,194.5,61.0,202.5,59.5,210.5,59.0,218.5,59.0,226.5,57.5,234.5,57.5,242.5,56.5,250.0,56.0,257.5,56.0,265.0,56.5,273.0,55.5,281.0,55.5,289.5,55.5,297.5,56.5,305.5,56.5,313.5,57.5,321.5,58.5,329.0,59.0,337.5,60.0,345.5,61.0,353.5,62.5,362.0,64.5,370.0,66.5,378.0,68.0,385.5,69.5,393.5,73.5,402.0,77.5" stroke="black" stroke-width="2" fill="none" />
<polyline points="365.0,88.5,368.0,96.5,377.0,98.5,382.0,108.5,375.0,115.5,374.0,123.5,372.5,131.5" stroke="black" stroke-width="2" fill="none" />
<polyline points="385.5,170.5,381.5,167.5,378.0,170.5,370.0,173.5,360.0,177.5,359.5,175.0,352.0,178.0,344.5,176.5,341.5,170.5,332.5,176.5,324.5,179.0,316.5,180.0,308.5,180.5" stroke="black" stroke-width="2" fill="none" />
<polyline points="353.5,90.0,365.5,98.0,372.5,106.0,362.0,113.5,367.5,123.0,368.5,132.5,368.5,140.5,374.5,141.5,382.5,138.5,383.5,134.5,392.0,131.5,394.5,133.5,402.5,125.0" stroke="black" stroke-width="2" fill="none" />
<polyline points="350.5,153.0,345.0,156.5,342.0,160.0,341.0,145.5,346.5,141.5,355.5,138.0,366.5,130.5,362.5,127.0,355.5,120.5,352.5,113.0,347.5,105.0,338.5,104.5,334.5,96.0,330.5,94.0,315.0,90.0,323.0,79.5" stroke="black" stroke-width="2" fill="none" />
<polyline points="186.5,105.5,180.0,105.0,173.5,101.0,165.5,105.0" stroke="black" stroke-width="2" fill="none" />
<polyline points="156.5,115.5,169.5,111.0,177.5,109.0,186.5,107.0" stroke="black" stroke-width="2" fill="none" />
<polyline points="138.5,108.5,135.0,109.0,136.5,101.0" stroke="black" stroke-width="2" fill="none" />
<polyline points="3.0,3.0,10.5,3.0,18.5,3.0,26.5,3.0,34.5,3.0,42.5,3.0,50.5,3.5,58.5,4.0,66.0,4.0,74.0,4.0,81.5,4.0,89.5,4.0,97.5,4.0,105.0,4.0,113.0,4.0,120.5,4.0,129.0,4.0,137.0,3.5,145.0,3.0,153.0,3.0,161.0,3.0,169.0,3.0,177.0,3.5,185.5,3.5,193.5,3.5,201.5,3.5,209.5,3.5,217.5,3.0,225.5,3.0,233.5,2.5,242.0,2.5,250.0,2.5,258.0,2.5,266.0,3.0,274.0,3.0,282.0,3.5,290.0,3.5,298.5,3.0,306.5,3.0,314.5,3.0,322.5,3.5,330.5,3.0,338.0,3.0,346.0,3.0,354.0,2.5,362.5,2.5,370.0,3.0,378.0,3.5,386.0,4.0,394.0,4.5,402.0,4.5,410.5,4.0,418.0,4.0,426.0,3.5,434.0,3.5,442.0,3.5,450.5,3.0,459.0,2.5,467.0,2.5,475.0,2.5,483.0,2.5,491.0,2.5,499.0,2.5,507.0,2.5,513.5,4.5,513.5,13.0,513.5,21.0,513.5,29.0,513.0,37.0,513.0,45.0,513.0,53.0,513.0,61.0,513.5,69.0,513.5,77.0,513.5,84.5,513.0,92.5,513.0,101.0,512.5,109.0,512.0,117.5,512.0,125.5,512.0,134.0,512.0,142.0,512.0,150.0,512.0,158.0,512.0,165.5,512.0,173.5,512.0,181.0,512.0,189.0,512.0,196.5,512.5,204.0,512.0,211.5,512.5,220.0,512.0,228.0,512.0,236.0,512.0,244.0,512.0,252.5,512.0,260.5,512.0,269.0,512.0,277.5,512.0,285.5,512.0,293.5,512.5,301.5,512.5,309.0,513.0,317.0,514.0,325.0,514.5,333.5,514.5,341.0" stroke="black" stroke-width="2" fill="none" />
</svg>