<svg xmlns="http://www.w3.org/2000/svg" version="1.1"><path d="M161.0,65.5,143.0,73.5,131.0,81.5,124.0,90.0,122.5,98.0,123.5,103.0,124.0,111.0,126.0,119.0,127.5,127.5,127.5,135.5,129.5,144.0,128.5,151.5,129.5,159.0,136.5,166.5,151.5,174.0,154.0,182.0,156.0,189.5,158.0,197.5,160.0,205.5,159.5,213.5,162.5,222.0,163.5,229.5,166.5,234.5,174.5,234.5,182.0,232.5,190.0,230.0" stroke="black" stroke-width="2" fill="none" />
<path d="M187.5,231.0,195.0,224.0,203.0,216.5,211.5,208.5,220.5,200.5,229.0,192.5,237.0,185.0,245.0,177.0,252.5,169.5,260.5,162.0,268.5,155.0" stroke="black" stroke-width="2" fill="none" />
<path d="M276.0,153.0,268.0,161.0,260.5,168.5,253.0,176.5,244.5,184.5" stroke="black" stroke-width="2" fill="none" />
<path d="M250.0,186.5,258.0,179.5,266.0,172.0,274.0,164.0,282.0,156.5" stroke="black" stroke-width="2" fill="none" />
<path d="M292.0,155.0,284.5,163.0,277.0,170.0,269.0,177.5,261.0,185.0" stroke="black" stroke-width="2" fill="none" />
<path d="M277.0,185.0,285.0,178.0,292.5,171.0,300.5,163.5,308.5,156.5" stroke="black" stroke-width="2" fill="none" />
<path d="M304.0,155.5,312.0,154.5,320.0,154.5,328.5,154.0,336.5,152.0,345.0,151.0" stroke="black" stroke-width="2" fill="none" />
<path d="M349.0,156.5,341.0,164.0,333.0,172.0,324.5,179.0" stroke="black" stroke-width="2" fill="none" />
<path d="M324.0,181.0,316.0,180.5,308.0,180.5,300.0,181.0,291.5,181.5,283.5,182.0,276.0,182.5,268.0,183.0,260.0,184.0,251.5,184.5,244.0,185.5,235.5,186.0,227.0,186.0,218.5,186.5,210.5,186.5,203.0,187.0,195.0,187.5,187.5,188.0,179.5,189.0,171.5,189.0,163.5,190.0,155.5,190.5,147.0,191.0,138.5,191.5,130.5,191.5,122.5,192.0,114.5,193.0,107.0,193.5,100.0,194.0,93.0,195.0,85.5,195.5,77.5,196.0,70.0,196.5,62.0,197.5,53.5,198.0" stroke="black" stroke-width="2" fill="none" />
<path d="M45.0,188.5,53.0,188.0,61.0,188.0,68.5,187.5,76.5,187.5,84.5,187.0,91.5,186.0,98.0,186.0,105.5,186.0,113.0,186.0,121.0,185.5,129.0,185.0,137.0,183.5,145.0,182.5,153.5,180.5,162.0,180.0,169.5,179.0,178.0,178.5,186.0,178.0,194.5,177.5,202.5,177.5,210.5,176.5,218.5,176.0,226.5,175.0,234.0,174.5" stroke="black" stroke-width="2" fill="none" />
<path d="M236.0,181.5,228.0,181.5,220.0,181.5,211.5,182.0,203.0,183.0,195.0,183.0,186.5,183.5,178.5,184.0,170.0,184.5,161.5,185.0" stroke="black" stroke-width="2" fill="none" />
<path d="M163.5,184.5,172.0,178.0,179.5,171.0,187.5,164.0,196.0,157.0,204.0,149.5" stroke="black" stroke-width="2" fill="none" />
<path d="M196.5,148.5,188.5,156.0,180.5,163.5,172.5,170.5,165.0,178.0,156.5,185.0" stroke="black" stroke-width="2" fill="none" />
<path d="M154.5,177.5,163.0,170.0,170.5,162.0,178.0,155.0,185.5,147.5" stroke="black" stroke-width="2" fill="none" />
<path d="M179.0,149.5,171.0,156.5,163.0,164.0,155.5,171.0" stroke="black" stroke-width="2" fill="none" />
<path d="M148.0,171.0,156.5,163.5,164.5,155.5,172.0,148.0" stroke="black" stroke-width="2" fill="none" />
<path d="M165.0,149.0,157.0,156.5,148.5,164.0" stroke="black" stroke-width="2" fill="none" />
<path d="M140.5,162.0,149.0,155.0,157.0,148.0,165.5,140.5" stroke="black" stroke-width="2" fill="none" />
<path d="M157.5,139.0,149.0,146.5,141.0,153.5,132.5,160.5" stroke="black" stroke-width="2" fill="none" />
<path d="M132.5,159.5,140.5,158.5,149.0,158.5,157.5,158.0,165.5,157.0,173.5,156.5,181.5,155.5,189.5,154.5,197.0,153.5,205.0,152.0,213.0,151.5,221.5,151.0,229.5,151.0,237.0,150.5,245.0,149.5,253.0,149.5,260.5,149.0,269.0,149.0,277.0,149.0,285.5,149.0,293.5,148.5,301.5,148.0,309.5,147.5,318.0,147.0,325.5,147.0,334.0,147.0,341.5,146.5,349.0,146.5,356.5,146.0,364.0,145.0,372.0,144.5,380.0,144.0,387.5,143.0,395.5,142.0,404.0,141.0,411.5,139.5" stroke="black" stroke-width="2" fill="none" />
<path d="M402.5,142.0,394.5,149.0,387.0,156.5,379.0,163.5,371.0,170.5,363.0,178.0" stroke="black" stroke-width="2" fill="none" />
<path d="M363.0,177.0,361.0,185.0,362.5,193.0,361.5,201.0,363.5,209.0,365.5,217.0,368.0,224.5,370.5,232.5,369.5,241.0,370.5,249.5" stroke="black" stroke-width="2" fill="none" />
<path d="M372.5,243.5,380.5,236.0,388.0,228.5" stroke="black" stroke-width="2" fill="none" />
<path d="M387.5,235.5,379.5,243.0,371.0,251.0,363.0,259.0" stroke="black" stroke-width="2" fill="none" />
<path d="M364.0,253.0,355.5,261.0" stroke="black" stroke-width="2" fill="none" />
<path d="M346.5,259.0,354.0,251.5" stroke="black" stroke-width="2" fill="none" />
<path d="M347.0,249.5,339.5,257.0" stroke="black" stroke-width="2" fill="none" />
<path d="M331.5,258.5,339.5,251.0,347.0,244.0" stroke="black" stroke-width="2" fill="none" />
<path d="M341.0,245.0,333.0,252.5,324.0,260.0" stroke="black" stroke-width="2" fill="none" />
<path d="M316.0,258.5,324.0,251.0,332.5,243.5" stroke="black" stroke-width="2" fill="none" />
<path d="M334.0,238.0,325.5,245.0,317.0,252.0" stroke="black" stroke-width="2" fill="none" />
<path d="M323.5,256.5,315.0,257.0,307.5,257.5,299.5,258.5,291.0,259.0,283.0,260.0,275.5,260.0,268.0,261.0,260.5,262.0,252.5,263.0,245.0,263.5" stroke="black" stroke-width="2" fill="none" />
<path d="M235.5,272.0,243.5,271.5,251.5,270.5,259.5,269.5,267.5,269.0,275.5,268.0,283.5,267.0,291.5,266.5" stroke="black" stroke-width="2" fill="none" />
<path d="M292.0,251.5,300.0,252.5,308.0,254.5,316.0,255.0,324.5,256.0,332.5,257.0,340.5,259.5,348.5,260.5,356.5,261.5,364.5,263.5,372.5,264.5,380.5,264.5" stroke="black" stroke-width="2" fill="none" />
<path d="M378.5,260.5,386.5,253.5" stroke="black" stroke-width="2" fill="none" />
<path d="M386.5,249.0,378.5,250.0" stroke="black" stroke-width="2" fill="none" />
<path d="M385.5,244.5,377.5,252.0,370.0,260.0" stroke="black" stroke-width="2" fill="none" />
<path d="M371.0,262.5,379.5,262.0,388.0,261.0" stroke="black" stroke-width="2" fill="none" />
<path d="M387.5,258.5,380.5,259.5,373.0,260.0" stroke="black" stroke-width="2" fill="none" />
<path d="M372.0,242.0,380.5,241.5,388.5,241.0" stroke="black" stroke-width="2" fill="none" />
<path d="M389.0,233.0,381.5,233.0,373.5,233.0" stroke="black" stroke-width="2" fill="none" />
<path d="M372.5,234.5,381.0,227.0,388.5,219.5,396.5,212.5" stroke="black" stroke-width="2" fill="none" />
<path d="M396.5,203.5,388.5,211.0,380.0,218.5,371.5,226.0" stroke="black" stroke-width="2" fill="none" />
<path d="M370.5,227.5,378.5,227.5,386.5,227.5,395.0,227.5" stroke="black" stroke-width="2" fill="none" />
<path d="M387.0,223.5,379.0,224.0,371.5,224.0" stroke="black" stroke-width="2" fill="none" />
<path d="M372.5,217.0,381.0,209.5,389.5,201.5,397.5,194.0" stroke="black" stroke-width="2" fill="none" />
<path d="M397.0,188.0,388.5,195.0,380.0,202.0,371.5,209.0" stroke="black" stroke-width="2" fill="none" />
<path d="M369.5,210.0,378.0,209.0,386.0,209.0" stroke="black" stroke-width="2" fill="none" />
<path d="M387.0,216.0,378.5,215.5,370.5,216.0" stroke="black" stroke-width="2" fill="none" />
<path d="M364.5,214.5,372.5,213.5,380.5,213.5,388.0,213.0,395.0,213.0" stroke="black" stroke-width="2" fill="none" />
<path d="M386.5,200.5,379.0,201.0,371.5,201.5" stroke="black" stroke-width="2" fill="none" />
<path d="M364.5,200.5,373.0,193.0,380.5,185.5,388.5,178.0,396.5,171.0,404.5,163.5" stroke="black" stroke-width="2" fill="none" />
<path d="M406.0,153.5,398.0,161.0,389.5,168.5,381.5,176.0,373.5,183.5,365.0,191.5" stroke="black" stroke-width="2" fill="none" />
<path d="M361.0,189.5,369.5,189.0,377.5,189.0,386.0,189.0,395.0,188.5,403.5,188.0" stroke="black" stroke-width="2" fill="none" />
<path d="M396.5,181.0,388.5,188.5,380.5,195.5,372.5,202.5,364.5,209.5" stroke="black" stroke-width="2" fill="none" />
<path d="M365.5,206.0,373.5,205.5,380.5,205.0,388.0,204.5,395.5,203.5" stroke="black" stroke-width="2" fill="none" />
<path d="M387.5,192.5,379.5,193.5,371.0,194.0" stroke="black" stroke-width="2" fill="none" />
<path d="M365.0,197.0,372.5,196.5,380.0,196.5,387.5,196.5,394.5,196.0,402.0,195.0" stroke="black" stroke-width="2" fill="none" />
<path d="M393.5,167.5,385.5,168.0" stroke="black" stroke-width="2" fill="none" />
<path d="M387.0,177.5,378.5,178.0" stroke="black" stroke-width="2" fill="none" />
<path d="M372.5,185.5,380.0,185.5,388.0,185.5" stroke="black" stroke-width="2" fill="none" />
<path d="M364.5,184.5,372.0,177.0,380.0,170.0,388.0,163.0,396.0,155.5,404.0,148.5" stroke="black" stroke-width="2" fill="none" />
<path d="M405.0,147.0,397.0,147.5" stroke="black" stroke-width="2" fill="none" />
<path d="M397.0,155.0,404.5,154.0" stroke="black" stroke-width="2" fill="none" />
<path d="M404.0,156.5,396.0,156.5,388.0,157.0,380.0,157.5,372.5,158.5,364.5,159.5,356.5,160.0,348.5,161.0,341.0,162.0,333.0,162.5,324.5,163.0,316.5,163.5,308.0,164.0,300.0,164.5,292.5,165.0,284.5,165.5,276.5,166.0,268.5,166.0,260.0,166.5,251.5,166.5,243.5,167.0,235.5,167.0,227.0,167.5,219.5,168.5,211.5,170.0,203.5,170.5,195.0,171.5,187.5,172.0,179.0,173.0,171.5,174.0,164.0,174.5,156.0,175.5,148.0,176.5" stroke="black" stroke-width="2" fill="none" />
<path d="M148.0,173.0,156.0,172.0,163.5,171.5,171.0,170.5,179.0,169.0,187.0,168.0,195.0,166.5,203.0,165.5,210.5,164.5,219.0,163.5,227.0,163.0,235.0,162.5,243.0,162.0,251.5,162.0,259.5,162.0,268.0,161.5,276.5,161.5,285.0,161.5,293.0,160.5,301.5,159.5,309.5,159.0,317.5,159.0,325.0,159.0,333.0,158.5,341.0,158.5,348.5,158.0" stroke="black" stroke-width="2" fill="none" />
<path d="M355.5,162.5,363.5,161.5,371.0,161.0,379.5,160.0,388.0,159.0" stroke="black" stroke-width="2" fill="none" />
<path d="M390.5,162.5,392.0,154.5,391.5,155.5" stroke="black" stroke-width="2" fill="none" />
<path d="M387.5,151.5,379.0,152.5,371.5,153.5,363.0,154.0" stroke="black" stroke-width="2" fill="none" />
<path d="M359.5,153.0,352.5,151.5,347.0,158.5,356.0,157.5,363.5,149.5" stroke="black" stroke-width="2" fill="none" />
<path d="M364.0,149.0,356.0,156.5,348.0,164.5,340.0,171.5,332.0,179.0" stroke="black" stroke-width="2" fill="none" />
<path d="M338.0,179.0,346.5,171.0,355.0,163.0,363.5,155.5,371.5,148.0" stroke="black" stroke-width="2" fill="none" />
<path d="M364.0,140.0,372.0,140.0,380.0,139.5,388.0,139.5,397.0,139.5,405.5,139.5,413.5,139.5" stroke="black" stroke-width="2" fill="none" />
<path d="M412.0,131.5,404.0,132.0,395.5,132.5" stroke="black" stroke-width="2" fill="none" />
<path d="M402.0,133.5,394.5,140.5,387.0,148.0,379.0,155.5,371.0,163.0,363.5,171.0,355.0,178.0" stroke="black" stroke-width="2" fill="none" />
<path d="M360.5,180.0,368.5,176.0,377.0,174.5,385.0,172.5" stroke="black" stroke-width="2" fill="none" />
<path d="M403.0,178.5,395.0,179.0,387.0,179.5,379.5,180.0,371.5,180.5,363.5,181.0" stroke="black" stroke-width="2" fill="none" />
<path d="M364.0,169.0,372.5,169.0" stroke="black" stroke-width="2" fill="none" />
<path d="M387.0,151.0,386.5,152.0,393.5,158.0,390.0,167.5,391.5,171.5,392.0,179.0,385.5,192.0,385.5,200.0,387.5,213.0" stroke="black" stroke-width="2" fill="none" />
<path d="M396.5,236.0,388.5,236.5,380.5,237.0,373.0,238.0,364.5,239.0" stroke="black" stroke-width="2" fill="none" />
<path d="M362.0,222.0,370.0,222.0,378.5,221.5,387.0,221.5,395.0,221.5" stroke="black" stroke-width="2" fill="none" />
<path d="M347.5,177.0,356.0,169.5,364.5,162.0,372.5,154.5,380.5,147.0,388.0,139.5" stroke="black" stroke-width="2" fill="none" />
<path d="M389.5,125.5,381.5,126.0,373.5,126.5" stroke="black" stroke-width="2" fill="none" />
<path d="M370.5,124.0,370.5,132.0,369.0,126.5" stroke="black" stroke-width="2" fill="none" />
<path d="M355.0,133.5,346.5,134.5,338.5,135.0" stroke="black" stroke-width="2" fill="none" />
<path d="M338.0,126.5,346.0,126.0,355.0,125.5" stroke="black" stroke-width="2" fill="none" />
<path d="M353.0,124.5,353.0,132.5" stroke="black" stroke-width="2" fill="none" />
<path d="M346.5,118.5,338.5,119.0" stroke="black" stroke-width="2" fill="none" />
<path d="M331.0,123.0,323.0,123.0,316.0,123.0,308.5,123.5,300.5,123.5,292.5,124.5,285.0,125.0,277.0,125.5,268.5,126.5,259.5,127.0,251.5,127.5,243.0,128.0,235.0,128.0,227.0,128.0,219.5,128.0,211.5,128.5,203.5,129.0,195.5,129.5,187.0,129.5,179.0,129.5,170.5,130.0,162.5,130.5,155.0,131.0,147.0,131.5,138.5,131.5,130.5,132.0" stroke="black" stroke-width="2" fill="none" />
<path d="M131.5,130.0,139.5,137.0,147.5,141.5,155.5,143.0,163.5,144.5,171.5,146.0,179.5,147.0,184.0,146.0,191.5,146.0,197.0,149.5,208.0,151.0,216.5,151.5,223.5,149.5,232.0,151.5,240.0,152.0,248.5,152.0" stroke="black" stroke-width="2" fill="none" />
<path d="M250.0,155.5,242.0,163.0,233.5,170.0,225.5,178.0,217.5,185.5,209.5,193.5,201.5,200.5,194.0,207.5" stroke="black" stroke-width="2" fill="none" />
<path d="M197.0,211.0,205.0,211.0,213.0,210.0,221.5,209.5,229.5,209.0" stroke="black" stroke-width="2" fill="none" />
<path d="M237.5,202.5,229.0,210.5,221.0,218.0,213.0,225.5,205.5,233.0,197.0,240.5" stroke="black" stroke-width="2" fill="none" />
<path d="M204.0,240.5,211.5,233.0,219.5,226.0,228.0,219.0,236.0,211.5,244.5,204.0" stroke="black" stroke-width="2" fill="none" />
<path d="M245.0,205.0,253.0,205.0,260.5,206.0,268.5,207.5,276.5,209.0,284.5,210.5,292.5,211.5" stroke="black" stroke-width="2" fill="none" />
<path d="M292.5,211.0,285.0,219.0,277.0,226.5,269.5,234.0,261.5,242.0" stroke="black" stroke-width="2" fill="none" />
<path d="M269.0,239.5,277.0,231.5,285.0,224.0,292.5,217.0,300.0,210.0,307.5,202.0,315.5,194.0" stroke="black" stroke-width="2" fill="none" />
<path d="M315.0,199.5,307.0,200.0,299.0,200.0" stroke="black" stroke-width="2" fill="none" />
<path d="M299.5,201.5,308.0,194.0,316.0,186.5" stroke="black" stroke-width="2" fill="none" />
<path d="M316.0,185.0,308.0,185.5,300.5,185.5" stroke="black" stroke-width="2" fill="none" />
<path d="M300.5,191.5,308.5,184.0,316.5,177.0,324.5,170.0,332.0,163.0,340.0,156.0" stroke="black" stroke-width="2" fill="none" />
<path d="M332.0,156.0,323.5,163.5,315.0,171.0,306.5,178.5,298.5,186.0" stroke="black" stroke-width="2" fill="none" />
<path d="M291.5,184.0,299.0,177.5,307.0,170.5,315.0,163.0,323.0,155.5" stroke="black" stroke-width="2" fill="none" />
<path d="M322.5,161.0,330.5,160.5,338.5,160.0,347.0,160.0" stroke="black" stroke-width="2" fill="none" />
<path d="M329.0,177.5,321.0,178.0" stroke="black" stroke-width="2" fill="none" />
<path d="M321.5,181.0,329.5,180.0" stroke="black" stroke-width="2" fill="none" />
<path d="M314.5,188.5,307.0,189.0,299.5,189.5,292.0,190.5" stroke="black" stroke-width="2" fill="none" />
<path d="M299.5,194.0,307.5,193.5,315.5,193.0" stroke="black" stroke-width="2" fill="none" />
<path d="M313.5,187.5,321.5,183.5,330.0,183.5,338.5,182.0,347.0,180.5,355.5,179.0,363.5,175.0,371.5,173.5,379.5,171.5,388.0,170.0,391.0,178.0,392.0,190.0,390.5,197.5,390.5,196.5,388.5,187.5,391.0,183.5,400.0,172.0" stroke="black" stroke-width="2" fill="none" />
<path d="M403.5,149.5,396.0,150.0,388.0,150.5,380.0,151.0,372.0,151.5,364.0,152.0,355.5,152.5,348.0,153.5,340.5,154.0,332.5,155.0,324.5,155.0,316.5,155.5,308.0,155.5,300.0,155.5,292.5,155.5,284.0,156.5,276.0,156.5,267.5,157.0,259.0,158.0,251.0,158.5,243.0,159.0,235.0,159.5,227.0,160.0,219.5,161.0,212.0,161.5,204.0,161.5,196.0,161.5,188.5,162.0,180.5,162.5,172.5,162.5,164.5,163.5,156.0,164.0,147.5,164.0,139.5,164.0,131.0,164.5" stroke="black" stroke-width="2" fill="none" />
<path d="M131.5,158.0,139.5,167.5,147.5,172.0,158.5,177.0,162.5,179.0" stroke="black" stroke-width="2" fill="none" />
<path d="M164.0,178.0,171.5,178.0,179.0,177.5,186.5,176.5,194.5,175.5,203.0,175.0,211.0,175.0,219.5,174.5,228.0,174.0,236.0,173.5,244.5,172.5,252.0,172.5,260.0,172.0,267.5,171.5,275.5,171.5,283.0,171.0,291.5,171.0,299.5,171.0,308.0,171.0,316.5,170.5" stroke="black" stroke-width="2" fill="none" />
<path d="M310.5,180.5,318.5,181.0,327.0,175.0,334.0,168.0,329.5,176.0,334.0,173.0,342.5,175.5" stroke="black" stroke-width="2" fill="none" />
<path d="M315.5,155.5,307.0,163.0,299.0,170.0,291.0,177.5,283.5,185.0" stroke="black" stroke-width="2" fill="none" />
<path d="M270.0,186.5,278.0,179.0,286.0,171.0,294.5,163.0,302.5,155.5" stroke="black" stroke-width="2" fill="none" />
<path d="M299.0,140.5,307.5,140.0" stroke="black" stroke-width="2" fill="none" />
<path d="M314.5,141.0,314.0,133.0" stroke="black" stroke-width="2" fill="none" />
<path d="M311.0,133.5,309.5,141.5,298.5,147.0,294.0,143.5,301.0,141.0,309.0,142.0" stroke="black" stroke-width="2" fill="none" />
<path d="M315.0,149.5,307.0,150.0,299.5,150.0,291.0,150.5,282.5,151.0,274.0,151.5,266.0,152.5,258.5,153.5,250.0,154.5,242.5,155.5,235.0,156.5,227.0,157.0,219.0,158.0,211.0,158.5,203.5,159.0,195.5,159.5,187.0,160.0,179.0,160.5,171.0,160.5,163.0,161.0,154.5,161.0,146.0,161.0,137.5,161.0" stroke="black" stroke-width="2" fill="none" />
<path d="M139.0,153.0,146.5,152.5,154.5,152.5,163.0,152.5,171.0,152.5,179.5,152.5,187.5,152.5" stroke="black" stroke-width="2" fill="none" />
<path d="M212.0,148.5,204.0,156.0,196.0,163.5,188.0,171.0,179.5,178.5,171.5,186.0,163.0,193.0" stroke="black" stroke-width="2" fill="none" />
<path d="M162.0,193.0,170.0,192.0,178.5,191.0" stroke="black" stroke-width="2" fill="none" />
<path d="M180.0,190.0,188.0,191.0,190.0,197.5,193.0,206.0,193.0,214.0,193.0,222.0" stroke="black" stroke-width="2" fill="none" />
<path d="M196.0,219.0,204.0,218.0,212.0,217.5,220.0,216.5,228.0,216.0,236.0,215.0" stroke="black" stroke-width="2" fill="none" />
<path d="M250.5,203.0,242.5,211.0,235.0,218.5,227.5,226.0,219.0,234.0,211.0,241.5,203.0,249.0" stroke="black" stroke-width="2" fill="none" />
<path d="M203.5,249.5,211.5,249.0,219.0,249.0,227.0,249.0" stroke="black" stroke-width="2" fill="none" />
<path d="M227.5,252.0,220.0,260.0,212.5,267.5,204.5,275.0" stroke="black" stroke-width="2" fill="none" />
<path d="M205.0,280.5,213.5,280.0,221.5,280.0" stroke="black" stroke-width="2" fill="none" />
<path d="M221.5,282.5,228.5,275.0" stroke="black" stroke-width="2" fill="none" />
<path d="M229.0,268.0,220.5,275.0,212.5,282.5" stroke="black" stroke-width="2" fill="none" />
<path d="M212.0,274.5,219.5,274.0" stroke="black" stroke-width="2" fill="none" />
<path d="M227.5,260.5,219.5,268.0,212.0,275.5,204.0,282.5" stroke="black" stroke-width="2" fill="none" />
<path d="M197.5,277.5,189.0,285.0" stroke="black" stroke-width="2" fill="none" />
<path d="M195.5,284.0,204.0,284.0,212.0,283.5,220.0,283.0,228.0,283.0" stroke="black" stroke-width="2" fill="none" />
<path d="M232.5,276.0,224.5,279.5,236.5,275.0" stroke="black" stroke-width="2" fill="none" />
<path d="M243.5,242.5,252.0,234.5,260.0,226.5,268.0,218.5,276.0,211.0,284.0,203.0" stroke="black" stroke-width="2" fill="none" />
<path d="M284.0,211.0,276.5,218.5,269.0,226.5,261.0,234.5,253.0,243.0" stroke="black" stroke-width="2" fill="none" />
<path d="M268.0,236.0,276.0,235.5,284.0,234.5" stroke="black" stroke-width="2" fill="none" />
<path d="M275.0,243.0,283.0,242.0,291.0,241.5,298.5,240.5,306.0,239.5,314.5,238.5" stroke="black" stroke-width="2" fill="none" />
<path d="M317.5,236.5,309.5,244.0,301.0,251.0" stroke="black" stroke-width="2" fill="none" />
<path d="M306.0,249.0,314.5,241.0,322.5,233.5" stroke="black" stroke-width="2" fill="none" />
<path d="M315.5,228.0,307.5,235.5,300.0,242.5,292.5,250.0" stroke="black" stroke-width="2" fill="none" />
<path d="M291.0,248.0,299.0,247.5,307.0,247.0,315.5,247.0,323.5,247.0,332.0,246.5,340.5,246.5" stroke="black" stroke-width="2" fill="none" />
<path d="M316.5,243.0,324.5,244.0,332.5,246.5,340.5,248.5,349.0,251.5,357.0,253.0,365.5,255.0" stroke="black" stroke-width="2" fill="none" />
<path d="M309.0,226.5,300.5,234.0,292.0,242.0,284.0,249.5" stroke="black" stroke-width="2" fill="none" />
<path d="M276.5,250.0,283.5,242.5,291.0,235.0,299.0,227.5,307.0,219.5,315.5,212.0" stroke="black" stroke-width="2" fill="none" />
<path d="M315.5,201.0,307.5,209.0,300.0,217.0,292.5,225.0,284.5,233.5,277.0,241.0,269.0,249.0" stroke="black" stroke-width="2" fill="none" />
<path d="M258.5,271.0,250.5,271.5,242.5,272.0,234.5,272.0,227.0,273.0,219.0,273.5,211.0,274.0,202.5,274.5,195.0,275.0,187.0,276.5,179.5,277.5,172.0,278.0,164.0,279.5" stroke="black" stroke-width="2" fill="none" />
<path d="M152.5,281.0,160.5,282.0,168.5,283.5,176.5,285.5,184.5,286.5,192.5,288.0,200.5,290.0,208.5,291.0,216.5,291.0" stroke="black" stroke-width="2" fill="none" />
<path d="M220.5,264.0,213.0,264.5,204.5,264.5" stroke="black" stroke-width="2" fill="none" />
<path d="M204.5,263.0,212.0,255.5,220.0,248.0,228.0,240.5,236.5,232.5,245.0,224.5,253.5,217.0,261.5,209.0,269.5,202.0" stroke="black" stroke-width="2" fill="none" />
<path d="M275.0,204.0,267.0,211.0,259.0,218.5,250.5,226.0,242.0,234.0,234.0,242.0" stroke="black" stroke-width="2" fill="none" />
<path d="M217.5,255.5,209.5,255.5,201.5,256.0" stroke="black" stroke-width="2" fill="none" />
<path d="M204.0,255.5,212.0,247.5,220.0,239.5,228.5,232.5,236.0,225.0,244.5,218.0,252.5,211.5,261.0,204.0" stroke="black" stroke-width="2" fill="none" />
<path d="M261.5,214.5,269.0,214.5,276.5,216.5,284.5,217.5,292.5,219.0,300.5,222.0,308.5,220.5" stroke="black" stroke-width="2" fill="none" />
<path d="M306.5,214.5,298.5,215.5" stroke="black" stroke-width="2" fill="none" />
<path d="M298.5,209.0,307.0,208.5" stroke="black" stroke-width="2" fill="none" />
<path d="M333.5,200.0,325.0,200.0,317.0,200.0,308.5,200.0,300.5,200.0,292.0,201.0,283.5,202.0,275.0,203.0,267.5,203.5,259.5,204.5,251.5,205.0,243.5,205.5,235.5,206.0,227.5,206.5,220.0,207.5,212.0,207.5,204.5,208.5,196.5,209.0,188.5,209.5,180.5,210.0,172.5,210.5,164.5,211.0,156.0,211.0,148.0,211.0,140.5,211.0,132.0,211.0,123.5,211.0,115.5,211.5,107.5,212.5,99.5,213.5" stroke="black" stroke-width="2" fill="none" />
<path d="M98.0,223.0,106.0,222.5,114.5,222.0,123.0,221.5,131.0,220.5,139.0,220.5,147.5,220.0,156.5,220.0,165.0,219.5,173.5,219.0,181.5,218.5,189.5,217.5,197.5,217.0,205.5,216.0,213.0,215.0,220.5,214.5,228.5,213.0,236.0,212.5,244.0,211.5,251.5,210.5,260.0,210.0,268.0,210.0,276.0,209.5,284.0,209.5,293.0,209.5,301.5,209.5,309.5,209.5,317.0,209.0,325.0,209.0,333.0,208.5,341.0,208.0" stroke="black" stroke-width="2" fill="none" />
<path d="M357.0,220.5,348.5,221.0,340.0,221.5,332.5,222.0,324.5,222.5,316.5,223.0,308.0,223.0,300.0,224.0,292.5,224.5,283.5,225.5,275.5,226.5,267.0,227.5,258.0,228.0,250.0,228.5,242.0,229.0,234.5,229.5,227.0,230.5,220.0,231.0,212.5,231.0,204.0,231.5,196.0,232.0,188.0,232.5,180.5,232.0,172.5,232.5,164.5,233.0,156.5,233.5,149.0,234.0,141.0,234.5,133.5,235.0,125.5,235.5,117.5,235.5,109.0,236.0,100.5,236.0,92.5,236.5" stroke="black" stroke-width="2" fill="none" />
<path d="M93.0,244.0,101.0,243.5,108.0,243.0,116.0,242.5,124.0,242.5,131.5,242.0,139.5,242.0,147.5,242.0,156.0,242.0,164.0,241.5,172.0,240.5,180.5,240.5,188.5,240.5,196.0,240.5,204.0,239.5,212.0,239.0,219.5,239.0,227.0,238.5,235.0,238.0,243.0,237.5,250.5,237.0,258.5,236.5,267.0,235.5,275.5,235.0,283.0,234.0,291.0,233.5,299.5,232.5,308.0,231.5,316.5,231.0,325.0,230.5,333.5,230.0,341.0,229.5,349.0,228.5,356.5,227.5,364.5,226.5,372.5,225.5,380.0,225.0,388.0,224.5,396.0,224.0" stroke="black" stroke-width="2" fill="none" />
<path d="M395.0,235.5,387.5,236.0,380.0,237.0,371.5,237.5,364.0,238.0,356.5,238.5,348.5,238.5,340.0,239.0,332.0,239.5,323.5,240.0,315.0,240.0,307.0,239.5,299.0,239.5,291.5,240.0,283.5,241.5,275.0,242.5,267.5,243.5,259.0,244.0,251.0,244.5,243.5,244.5,236.0,245.0,229.0,246.0,221.5,247.0,213.5,248.0,205.5,248.5,197.0,249.0,189.0,250.0,181.0,250.0,172.5,251.0,164.0,251.0,155.5,251.0,147.0,251.5,138.5,252.0,131.0,252.5,123.0,253.0,115.0,253.5,107.0,253.5,99.0,253.5" stroke="black" stroke-width="2" fill="none" />
<path d="M114.5,261.0,122.5,260.5,131.0,260.5,139.5,260.5,147.5,260.5,156.0,260.5,164.5,260.0,172.0,259.5,180.0,259.0,188.0,258.5,196.0,258.0,204.0,257.0,212.0,256.5,220.0,255.5,228.0,255.0,236.0,254.0" stroke="black" stroke-width="2" fill="none" />
<path d="M229.0,240.0,221.5,241.0,213.5,242.0,205.5,242.5" stroke="black" stroke-width="2" fill="none" />
<path d="M204.5,233.0,212.5,232.5,220.5,232.0,228.5,232.0" stroke="black" stroke-width="2" fill="none" />
<path d="M228.0,223.5,220.0,224.5,212.5,225.5,204.5,225.5,196.5,226.0" stroke="black" stroke-width="2" fill="none" />
<path d="M192.5,223.0,185.0,226.0,180.5,225.0,182.0,217.0,180.0,209.0,181.5,201.5,182.5,194.0,180.5,189.0" stroke="black" stroke-width="2" fill="none" />
<path d="M189.0,193.0,196.5,185.5,204.5,178.0,212.0,170.5,219.5,163.0,228.0,155.0" stroke="black" stroke-width="2" fill="none" />
<path d="M228.0,148.0,220.5,155.5,213.0,163.0,205.0,170.0,197.0,177.5,188.5,185.5,181.0,192.5,172.5,200.0,164.5,208.0" stroke="black" stroke-width="2" fill="none" />
<path d="M161.0,210.5,169.0,210.0,177.0,208.5" stroke="black" stroke-width="2" fill="none" />
<path d="M179.0,212.5,170.5,220.5,163.0,228.0" stroke="black" stroke-width="2" fill="none" />
<path d="M163.0,234.5,171.0,226.5,179.0,219.0" stroke="black" stroke-width="2" fill="none" />
<path d="M187.0,220.0,179.0,227.5,171.0,235.5" stroke="black" stroke-width="2" fill="none" />
<path d="M172.0,233.5,180.5,233.5" stroke="black" stroke-width="2" fill="none" />
<path d="M180.0,232.0,188.0,224.5,196.0,217.5,203.5,210.0,211.0,202.0,219.5,194.0,227.5,186.5,235.5,178.5,244.0,170.5,252.0,163.0,260.5,155.0" stroke="black" stroke-width="2" fill="none" />
<path d="M245.0,154.5,236.5,162.0,228.5,170.5,220.0,178.5,212.0,186.5,204.5,194.5,196.0,202.0" stroke="black" stroke-width="2" fill="none" />
<path d="M197.5,203.5,205.5,202.5,213.5,202.0,221.5,201.0" stroke="black" stroke-width="2" fill="none" />
<path d="M236.0,194.5,228.0,202.0,220.0,209.5,211.5,217.0,203.0,224.0,195.0,231.5" stroke="black" stroke-width="2" fill="none" />
<path d="M195.0,231.5,197.0,239.0,198.0,247.5,199.5,255.5,199.5,263.5,200.5,271.5,202.5,279.5,203.5,287.5" stroke="black" stroke-width="2" fill="none" />
<path d="M196.0,279.5,188.0,277.5,180.0,276.5" stroke="black" stroke-width="2" fill="none" />
<path d="M138.0,271.0,146.0,270.0,154.5,269.5,162.5,269.0,171.0,269.0,179.0,268.0,187.0,268.0,195.5,267.0,203.5,266.5,212.0,266.0,220.0,265.5,227.5,264.5" stroke="black" stroke-width="2" fill="none" />
<path d="M180.5,225.0,172.5,225.5" stroke="black" stroke-width="2" fill="none" />
<path d="M163.5,218.5,171.5,211.5,179.5,204.0" stroke="black" stroke-width="2" fill="none" />
<path d="M162.5,200.0,170.0,192.5,178.0,185.5,186.0,177.5,194.0,170.0,202.5,162.5,210.5,155.5,218.5,148.0" stroke="black" stroke-width="2" fill="none" />
<path d="M236.0,154.0,228.0,161.5,220.0,169.5,212.0,177.5,204.0,185.0,195.5,192.5" stroke="black" stroke-width="2" fill="none" />
<path d="M196.5,195.0,204.5,194.5,212.5,194.0,220.5,193.5,228.0,192.5" stroke="black" stroke-width="2" fill="none" />
<path d="M234.5,190.5,242.5,188.5,250.0,188.5,258.0,188.0,265.5,188.0,273.0,188.0,281.0,187.5,289.0,187.5,295.0,189.5,295.5,197.5,295.0,205.5,293.0,213.0" stroke="black" stroke-width="2" fill="none" />
<path d="M311.0,214.5,313.5,206.5,314.5,198.5,315.0,190.5,315.5,179.0,307.5,179.0" stroke="black" stroke-width="2" fill="none" />
<path d="M324.5,192.5,316.5,192.5,308.5,192.5,300.0,192.5,292.0,193.0,283.0,194.0,274.5,194.0,266.0,195.0,257.0,195.5,249.0,196.0,241.0,196.5,233.0,197.0,225.5,198.0,218.5,198.5,211.0,199.0,203.5,199.0,196.0,199.0,188.5,199.5,181.0,200.0,173.5,200.0,165.5,201.0,157.0,201.5,149.0,202.0,141.0,201.5,133.0,202.0,125.0,202.5,116.5,203.0,108.5,204.0,100.0,204.5,92.0,205.5" stroke="black" stroke-width="2" fill="none" />
<path d="M93.5,227.5,101.5,227.0,109.5,227.0,117.5,227.5,126.0,227.5,134.5,227.0,142.0,227.0,149.5,226.5,157.5,226.0,165.0,226.0,173.0,225.5,181.0,225.0,189.0,224.0,197.0,224.0,205.0,224.0,212.5,224.0,219.5,223.5,227.0,223.0,234.5,222.5,242.5,222.0,250.5,221.0,258.5,220.5,266.5,219.5,275.0,218.5,283.5,218.0,291.5,217.0,300.5,216.0,309.0,215.5,317.0,214.5,324.5,214.0,332.0,213.5,340.0,213.5,348.5,213.0" stroke="black" stroke-width="2" fill="none" />
<path d="M340.0,166.5,332.5,167.5,325.0,168.0,317.0,168.5,308.5,169.0,300.5,169.0,292.5,169.0,284.0,169.5,276.0,170.0,267.5,170.5,259.0,170.0,250.5,170.0,242.5,170.5,234.5,171.0,226.5,171.0,219.0,172.0,211.0,172.5,203.0,173.0,194.5,173.5,187.0,174.0,179.0,175.5,171.5,176.5,164.0,177.0,156.0,178.5,148.5,179.0,140.5,179.5,132.5,180.0,124.5,180.5,117.0,181.0,108.5,181.5,101.0,182.0,93.0,182.5,84.0,182.5,76.0,182.5" stroke="black" stroke-width="2" fill="none" />
<path d="M132.5,154.0,140.0,146.5,148.5,139.0" stroke="black" stroke-width="2" fill="none" />
<path d="M140.0,138.5,132.0,146.5" stroke="black" stroke-width="2" fill="none" />
<path d="M132.0,149.0,140.0,148.0,147.5,147.5,155.0,147.0,163.5,146.5,171.5,145.5,179.5,145.5,188.0,145.0,196.5,145.0,204.5,144.5,212.5,143.5,221.0,143.5,228.5,143.0,236.0,143.0,244.0,143.0,252.0,142.5,260.0,142.5,268.0,142.5,276.5,142.5,285.0,142.0,292.5,141.0,301.0,140.0,308.5,139.0,316.5,138.5,324.5,138.0,332.5,138.0,341.0,137.0,349.5,136.5,357.5,136.5,365.5,137.0,373.5,136.5,381.0,136.0,389.0,134.5,396.5,133.5,404.0,132.5,411.5,131.5" stroke="black" stroke-width="2" fill="none" />
<path d="M405.5,125.0,404.5,133.0,404.5,141.5,401.5,149.5,401.5,158.5" stroke="black" stroke-width="2" fill="none" />
<path d="M406.5,150.0,406.5,158.0,405.5,165.5,399.0,173.5,396.0,181.0,395.0,189.0,395.0,196.5,394.0,204.5,392.0,212.5,391.0,220.0,390.0,223.5,389.0,231.5,390.0,239.5,390.0,248.0,388.5,256.0" stroke="black" stroke-width="2" fill="none" />
<path d="M384.5,125.0,386.0,116.5,385.5,108.5,378.5,99.0,370.5,93.0,362.5,89.0,354.5,88.0" stroke="black" stroke-width="2" fill="none" />
<path d="M356.0,92.5,364.0,96.0,372.0,97.0,372.0,104.5" stroke="black" stroke-width="2" fill="none" />
<path d="M378.0,120.5,381.0,117.5,380.0,109.5,373.0,107.5,368.0,100.0,359.0,98.5,351.0,98.5" stroke="black" stroke-width="2" fill="none" />
<path d="M344.5,84.5,352.5,86.5,371.5,90.5,377.5,99.0,384.0,108.0,384.5,116.5,383.5,124.5,382.0,132.0" stroke="black" stroke-width="2" fill="none" />
<path d="M398.5,136.5,388.5,141.0,380.0,143.0,371.0,149.0,375.5,131.5,376.5,123.5,375.5,115.5,375.5,107.5,369.5,99.5,365.0,91.5,348.5,84.0,340.0,81.0,331.5,81.0,323.5,78.5,316.0,77.5,308.0,75.0" stroke="black" stroke-width="2" fill="none" />
<path d="M306.5,84.5,314.5,84.5,323.0,84.0,331.5,84.0,340.0,83.5" stroke="black" stroke-width="2" fill="none" />
<path d="M335.0,78.5,343.0,80.5,351.0,83.5,359.0,86.0,367.5,88.5,375.5,92.5" stroke="black" stroke-width="2" fill="none" />
<path d="M367.5,113.5,354.5,117.0,346.5,104.0,338.5,97.0,330.5,94.0,323.0,91.0,315.0,89.0,307.0,89.5,302.0,88.5,294.0,88.0,286.0,86.0,273.0,83.5,265.0,82.5,257.0,81.5,243.0,82.0,235.0,82.0,231.0,79.5,221.0,79.5,213.0,78.5" stroke="black" stroke-width="2" fill="none" />
<path d="M235.5,80.5,243.5,80.5,251.5,81.5,262.0,85.0,270.0,86.0,278.0,87.5,288.0,89.5,295.5,91.0,303.5,92.5,311.5,95.0,320.5,100.0,328.5,105.5,340.5,101.5" stroke="black" stroke-width="2" fill="none" />
<path d="M341.0,91.0,328.5,97.0,320.5,93.5,312.5,90.5" stroke="black" stroke-width="2" fill="none" />
<path d="M312.5,92.0,325.5,99.0,326.5,106.0,334.5,115.5,341.5,121.0,352.0,127.0" stroke="black" stroke-width="2" fill="none" />
<path d="M346.0,120.0,337.0,108.0,329.0,101.5,320.5,97.5,312.5,93.5,304.5,91.5,304.0,86.0,296.0,84.0,288.0,85.0,279.5,83.5,272.5,80.5,264.5,79.0,256.5,78.0,248.0,77.5,239.5,77.0,231.0,76.5,222.5,75.5,214.5,75.5,206.5,75.5,198.5,76.5,191.0,76.5,183.5,80.0,171.0,82.5,163.0,83.5,153.5,85.0,146.0,86.0,138.0,89.0,130.0,92.0" stroke="black" stroke-width="2" fill="none" />
<path d="M132.0,87.0,140.0,86.5,148.5,85.0,157.0,84.0" stroke="black" stroke-width="2" fill="none" />
<path d="M154.5,72.5,162.5,72.5,170.5,72.5,178.5,70.5,186.5,71.0,194.0,70.0,202.0,69.5,210.0,69.5,218.0,68.5,226.0,68.5,234.0,70.5,242.0,71.0,250.0,71.0,258.0,71.5,265.5,71.5,273.5,73.0,282.0,74.0,290.0,75.0,298.5,75.5,306.5,76.5,314.0,76.5" stroke="black" stroke-width="2" fill="none" />
<path d="M315.5,75.5,307.5,76.0,300.5,77.0,293.0,78.0,285.0,78.5,277.5,79.5,269.5,79.5" stroke="black" stroke-width="2" fill="none" />
<path d="M293.5,86.0,308.5,90.5,329.5,98.5,345.0,102.5,351.0,110.5,355.0,118.5,356.0,127.0,355.0,135.5,362.5,137.5,361.0,139.0,369.0,136.0,376.5,135.5,385.0,124.5,392.0,126.5,402.0,120.0,390.0,120.0,388.0,128.0" stroke="black" stroke-width="2" fill="none" />
<path d="M399.0,133.5,390.5,137.0,382.5,141.0,374.5,144.0,366.5,145.5,358.5,146.5,350.5,147.0,342.5,148.0,335.0,149.0,327.0,149.5,319.0,151.0,310.5,151.5,302.5,151.5,294.0,152.5,286.0,152.0,278.0,152.5,286.0,146.5,288.0,138.5,290.5,138.5,293.5,131.0" stroke="black" stroke-width="2" fill="none" />
<path d="M295.0,132.5,288.0,137.5,276.5,146.5,275.5,153.5,267.5,153.0,259.5,153.0,256.5,148.0,249.5,156.0,250.5,146.0,244.5,142.0,247.0,142.0,253.0,140.5,254.0,132.5" stroke="black" stroke-width="2" fill="none" />
<path d="M258.0,142.0,261.5,142.0,267.5,141.0" stroke="black" stroke-width="2" fill="none" />
<path d="M264.0,138.0,261.5,146.0" stroke="black" stroke-width="2" fill="none" />
<path d="M280.5,141.5,283.0,133.5" stroke="black" stroke-width="2" fill="none" />
<path d="M287.0,133.5,283.5,142.0,287.5,148.0,290.5,143.5" stroke="black" stroke-width="2" fill="none" />
<path d="M300.0,143.0,300.0,135.0" stroke="black" stroke-width="2" fill="none" />
<path d="M296.0,133.5,292.5,141.0,293.0,149.5" stroke="black" stroke-width="2" fill="none" />
<path d="M290.0,132.0,282.0,133.0,274.5,133.5,267.0,134.0,258.5,134.0,250.5,134.5,242.5,134.5,234.0,134.5,225.5,134.5,217.5,134.5,209.5,135.0,201.5,136.0,193.0,137.0,185.0,138.0,177.0,139.0,169.5,140.0,161.0,140.0,153.5,140.0,146.0,140.0,139.0,140.0,131.0,141.0" stroke="black" stroke-width="2" fill="none" />
<path d="M138.0,144.5,146.5,144.5" stroke="black" stroke-width="2" fill="none" />
<path d="M132.0,127.0,140.0,131.5,148.0,133.5,156.0,135.5,164.0,137.0,171.5,138.5,179.0,138.5,187.0,138.5" stroke="black" stroke-width="2" fill="none" />
<path d="M186.0,125.5,189.5,133.5,181.0,143.0,183.0,150.0,190.5,152.5,192.5,151.5,196.5,149.5,206.0,147.0,214.0,147.0,222.5,141.0,230.5,142.0,238.5,143.0,248.5,142.5,253.0,146.0,257.0,137.0" stroke="black" stroke-width="2" fill="none" />
<path d="M259.5,110.0,252.0,110.5,244.5,111.0,236.5,111.0,228.5,111.0,220.5,111.5,212.5,112.0,204.5,112.5,196.5,113.0,188.0,113.5,179.5,114.0,171.0,114.5,163.0,115.0,156.0,116.0,148.5,116.5,141.0,117.5,133.0,118.0" stroke="black" stroke-width="2" fill="none" />
<path d="M131.5,126.0,140.0,125.5,147.5,124.5,155.5,124.0,164.0,124.0,172.0,123.5,180.5,123.0,188.5,122.0,197.0,121.5,205.5,122.0,213.5,121.5,221.5,121.0,229.5,120.0,237.0,119.0,244.5,118.5,252.5,117.5,260.5,117.5,268.5,117.0,276.5,116.5,285.0,116.0,293.5,116.0,301.5,115.5,308.5,115.0,316.0,114.5,323.5,113.5" stroke="black" stroke-width="2" fill="none" />
<path d="M308.0,113.0,303.0,121.5,306.0,115.5" stroke="black" stroke-width="2" fill="none" />
<path d="M310.5,132.0,317.5,131.5,317.5,139.5" stroke="black" stroke-width="2" fill="none" />
<path d="M313.5,146.5,307.5,142.0,303.5,146.0,313.0,149.0,312.0,145.5,320.5,141.5,320.5,133.5,320.0,131.0" stroke="black" stroke-width="2" fill="none" />
<path d="M324.0,129.5,323.5,137.5" stroke="black" stroke-width="2" fill="none" />
<path d="M349.5,131.0,348.5,123.0,347.5,115.0" stroke="black" stroke-width="2" fill="none" />
<path d="M344.0,134.5,348.0,126.5,343.0,118.5,338.0,110.5,327.5,109.5,320.5,101.0,303.5,93.0" stroke="black" stroke-width="2" fill="none" />
<path d="M297.0,111.5,289.5,119.0,282.0,116.5" stroke="black" stroke-width="2" fill="none" />
<path d="M249.0,110.5,246.5,117.0,240.5,114.0,233.0,113.5,225.0,113.5" stroke="black" stroke-width="2" fill="none" />
<path d="M227.0,108.0,219.5,108.5,212.5,109.0,205.0,109.0,197.0,109.0,189.0,109.0,181.0,110.0,173.0,110.5" stroke="black" stroke-width="2" fill="none" />
<path d="M179.5,107.5,171.5,110.5,164.0,109.0,165.0,110.5,169.5,102.5,165.5,105.0" stroke="black" stroke-width="2" fill="none" />
<path d="M163.5,111.5,155.0,114.0" stroke="black" stroke-width="2" fill="none" />
<path d="M144.0,117.0,135.5,108.0" stroke="black" stroke-width="2" fill="none" />
<path d="M138.0,104.0,140.0,111.5" stroke="black" stroke-width="2" fill="none" />
<path d="M144.0,113.0,142.0,105.0" stroke="black" stroke-width="2" fill="none" />
<path d="M143.5,98.5,143.0,106.5,137.0,108.5,139.5,103.0,147.5,100.0" stroke="black" stroke-width="2" fill="none" />
<path d="M139.0,93.5,147.0,93.0,154.5,92.0,162.5,91.5,171.0,91.5,179.0,91.5" stroke="black" stroke-width="2" fill="none" />
<path d="M181.0,69.0,173.5,69.0" stroke="black" stroke-width="2" fill="none" />
<path d="M178.0,76.5,170.0,76.5,162.0,76.5,154.5,76.5,146.5,77.5,139.0,78.0" stroke="black" stroke-width="2" fill="none" />
<path d="M145.0,85.0,153.0,84.5,161.0,83.0,169.0,79.0,177.5,78.0,189.0,78.5,197.0,78.5" stroke="black" stroke-width="2" fill="none" />
<path d="M187.0,124.5,195.0,138.0,202.5,138.0,210.5,139.0" stroke="black" stroke-width="2" fill="none" />
<path d="M210.5,186.5,202.0,185.5,194.0,184.5" stroke="black" stroke-width="2" fill="none" />
<path d="M193.5,187.5,201.0,188.5,209.0,189.5" stroke="black" stroke-width="2" fill="none" />
<path d="M237.0,186.5,231.0,194.5,229.5,202.5,229.5,210.5,229.0,225.0,227.5,233.0,226.5,241.0,225.5,248.5,224.5,256.0,225.0,264.5,225.0,267.0,223.0,275.5,221.5,283.5,223.5,289.0,232.0,287.0,240.5,285.0,248.0,283.5,255.5,282.5,263.5,277.5,271.5,278.5" stroke="black" stroke-width="2" fill="none" />
<path d="M179.0,216.0,170.5,216.5,162.5,216.5" stroke="black" stroke-width="2" fill="none" />
<path d="M161.5,200.5,169.5,199.5,178.0,199.5" stroke="black" stroke-width="2" fill="none" />
<path d="M133.0,135.0,134.5,128.5,123.5,110.5" stroke="black" stroke-width="2" fill="none" />
<path d="M125.5,97.0,133.5,87.0,136.0,89.5,129.0,90.5,121.5,93.0,129.5,82.0,137.5,75.5,146.0,72.0,153.5,69.0,161.5,65.5,169.5,63.5,177.5,62.5,185.5,61.0,194.0,61.0,202.0,60.5,210.5,60.0,218.5,58.5,226.5,59.0,235.0,58.0,243.0,58.0,251.0,58.0,259.0,57.0,266.5,57.5,274.5,57.0,282.0,57.0,290.5,56.5,298.5,56.5,306.5,57.5,314.5,57.0,323.0,58.0,330.5,59.0,338.5,60.0,346.5,62.0,354.0,63.5,362.0,65.5,370.0,67.5,378.0,69.0,386.0,72.5,394.5,75.5,402.5,79.0" stroke="black" stroke-width="2" fill="none" />
<path d="M400.5,77.5,380.5,69.5" stroke="black" stroke-width="2" fill="none" />
<path d="M412.0,101.5,409.0,109.5,406.5,117.5,403.5,125.5,394.5,133.5" stroke="black" stroke-width="2" fill="none" />
<path d="M388.5,115.5,386.5,123.5,394.0,127.5,402.5,118.5,412.0,102.5" stroke="black" stroke-width="2" fill="none" />
<path d="M350.5,139.5,346.5,139.0,343.0,134.5,341.0,126.5,339.0,118.5,337.0,110.0,336.5,102.0,326.5,93.0" stroke="black" stroke-width="2" fill="none" />
<path d="M173.0,80.5,165.5,81.5,156.5,81.0,148.5,82.0,140.0,87.5" stroke="black" stroke-width="2" fill="none" />
<path d="M131.0,93.5,122.5,94.0" stroke="black" stroke-width="2" fill="none" />
</svg>