<svg xmlns="http://www.w3.org/2000/svg" version="1.1"><polyline points="2.0,1.5,2.5,9.5,2.5,17.5,2.5,25.5,2.5,33.5,2.5,41.5,3.0,49.5,4.0,57.0,4.5,65.0,4.5,72.5,4.5,81.0,4.5,89.0,4.0,97.0,3.5,105.5,3.5,114.5,3.5,123.0,3.5,131.0,3.0,138.5,3.0,146.5,3.0,154.5,3.0,162.5,2.5,170.5,2.5,178.5,2.5,186.0,2.5,194.0,3.0,202.0,3.0,210.0,3.0,218.0,3.5,226.0,4.0,234.5,4.0,242.5,4.0,250.5,4.0,258.5,3.5,266.5,3.0,275.0,3.0,283.0,3.0,291.0,3.0,298.5,3.5,306.5,3.0,314.5,3.0,322.5,3.0,330.5,2.5,338.5,7.5,342.5,15.5,342.0,23.5,341.5,31.0,341.5,39.0,341.5,46.5,341.5,54.0,342.0,62.0,342.0,70.0,342.0,79.0,341.5,87.0,341.5,95.0,342.0,103.0,342.5,111.5,342.5,119.5,343.0,128.0,343.5,136.5,343.5,144.5,344.0,152.5,344.0,160.0,344.0,168.0,343.5,176.5,343.0,184.5,343.0,192.0,343.0,200.0,342.5,207.5,342.0,215.5,341.5,224.0,341.5,231.5,341.5,239.5,342.0,247.5,342.0,256.0,342.5,264.0,343.0,272.5,343.0,281.0,343.0,289.0,343.0,297.5,343.0,306.0,343.0,314.0,343.0,321.5,342.5,329.5,342.5,337.0,342.0,345.0,342.0,353.0,341.5,361.0,342.0,369.0,342.0,377.0,342.5,385.0,342.5,393.0,342.0,400.5,342.0,408.5,341.5,416.0,341.5,424.0,341.5,431.5,341.5,439.5,341.0,447.0,340.5,455.0,340.5,463.0,340.5,471.0,340.5,479.5,341.0,487.5,341.0,495.5,341.5,503.5,342.0,511.5,342.0" stroke="black" stroke-width="2" fill="none" />
<polyline points="405.0,262.0,397.0,269.0,389.5,276.5" stroke="black" stroke-width="2" fill="none" />
<polyline points="388.0,285.0,380.0,293.0" stroke="black" stroke-width="2" fill="none" />
<polyline points="378.0,289.0,370.0,289.0,362.5,289.0,355.0,289.0" stroke="black" stroke-width="2" fill="none" />
<polyline points="354.5,285.0,362.0,277.0,369.5,269.5,378.0,262.0,386.5,255.0,394.5,247.5,403.0,240.0,411.0,232.5,418.5,225.0,426.0,217.5,433.5,210.0,441.0,202.5,449.0,195.0" stroke="black" stroke-width="2" fill="none" />
<polyline points="449.5,187.5,441.0,195.0,433.0,202.0,425.0,209.5,417.0,217.0" stroke="black" stroke-width="2" fill="none" />
<polyline points="418.0,208.0,426.5,200.5,434.5,193.5,442.5,186.0,450.5,179.0" stroke="black" stroke-width="2" fill="none" />
<polyline points="450.5,172.5,442.5,179.5,434.0,186.5,426.0,193.5,418.5,201.5,411.0,209.0,403.0,216.5,394.5,223.5,387.0,231.0,379.0,238.0,371.0,245.5,363.0,253.5,355.0,261.5" stroke="black" stroke-width="2" fill="none" />
<polyline points="349.0,262.0,357.5,254.5,365.0,247.0,373.0,239.5,381.0,231.5,389.5,224.0,397.0,216.5,404.0,209.0,412.0,201.0,419.5,193.5,427.5,186.5,435.0,179.0,443.5,171.5,452.0,164.5" stroke="black" stroke-width="2" fill="none" />
<polyline points="451.0,156.0,443.5,164.0,435.5,172.0,427.5,179.5,420.0,186.5,412.0,194.0,404.0,201.0,396.0,208.5,388.5,215.5,381.0,222.5,373.5,229.5,365.0,237.5,356.5,245.0,348.0,252.5,339.5,260.0" stroke="black" stroke-width="2" fill="none" />
<polyline points="332.0,260.0,340.0,251.5,348.0,244.0,356.0,236.0,364.5,228.0,372.5,220.5,381.0,213.5,389.0,206.0,397.0,199.0,405.5,191.5,413.5,184.5,422.0,177.5,430.5,170.5,438.5,163.5,446.5,156.5,454.0,149.0" stroke="black" stroke-width="2" fill="none" />
<polyline points="451.0,140.0,443.5,148.0,436.0,155.0,428.0,162.0,420.5,169.0,412.5,176.0,405.0,183.5,397.0,191.5,389.0,199.5,381.0,207.0,373.0,214.5,365.0,222.0,356.5,229.5,348.5,237.0,340.0,244.5,331.5,252.0,323.0,260.0" stroke="black" stroke-width="2" fill="none" />
<polyline points="325.0,252.5,333.0,244.5,341.0,236.5,348.5,228.5,357.0,220.5,365.5,213.0,373.5,205.5,382.0,198.0,389.5,191.0,396.5,184.0,403.5,176.5,411.0,169.0,418.5,161.5,426.0,153.5,433.5,146.0,441.5,138.0,449.0,130.5" stroke="black" stroke-width="2" fill="none" />
<polyline points="452.0,129.5,444.5,129.5" stroke="black" stroke-width="2" fill="none" />
<polyline points="450.5,123.0,442.5,130.5,434.5,138.5,427.0,146.0,418.5,153.5,411.0,161.5,403.0,169.0,395.0,177.0,387.5,184.0,379.5,191.5,371.5,199.5,363.5,206.5,356.0,214.0,348.5,221.0,341.0,229.0,333.0,236.5,324.5,244.5,315.5,253.0" stroke="black" stroke-width="2" fill="none" />
<polyline points="306.5,252.0,314.5,244.0,323.0,236.0,331.0,227.5,339.0,220.5,347.0,213.0,355.0,205.5,362.5,198.5,370.5,191.0,378.0,183.5,386.0,176.0,394.0,168.5,402.0,161.0,410.5,153.5,418.5,146.5,427.0,139.5,435.0,132.0,443.0,124.0,451.0,116.5" stroke="black" stroke-width="2" fill="none" />
<polyline points="451.0,109.0,443.0,117.0,435.5,124.0,428.0,131.0,420.0,137.0,411.5,144.0,403.5,152.0,395.5,159.5,387.5,167.0,378.5,174.5,370.5,182.0,362.5,189.5,354.5,196.5,346.5,204.0,338.0,211.5,330.0,219.0,322.5,226.5,314.5,234.5,307.0,242.0,299.5,249.5" stroke="black" stroke-width="2" fill="none" />
<polyline points="292.0,257.0,299.5,250.0,307.5,243.5,315.0,236.5" stroke="black" stroke-width="2" fill="none" />
<polyline points="310.0,235.0,301.5,242.5,292.5,249.5" stroke="black" stroke-width="2" fill="none" />
<polyline points="285.5,242.0,293.5,235.0,301.5,228.0,309.5,220.5,318.0,213.0,326.0,205.0,334.0,197.0,342.0,189.5,349.5,182.0,357.5,174.0,365.5,166.5,373.0,159.5,380.5,152.5,388.5,145.0,396.0,137.5,403.5,130.0,412.0,122.5,420.0,115.0,428.0,107.5" stroke="black" stroke-width="2" fill="none" />
<polyline points="421.0,108.5,412.5,116.0,404.0,123.0,395.5,130.5,387.0,138.5,379.0,146.0,371.0,153.5,363.0,160.5,355.0,168.0,347.0,175.5,339.5,183.0,331.5,190.5,323.5,198.0,316.0,205.5,308.0,213.0,300.5,220.5,293.0,228.0,285.0,235.5,277.0,243.5" stroke="black" stroke-width="2" fill="none" />
<polyline points="269.0,242.0,277.5,234.5,285.0,227.5,293.0,220.0,301.5,212.5,310.0,205.5,318.0,198.5,325.0,190.5,333.0,183.0,341.0,175.5,349.0,168.0,356.5,160.5,364.5,153.0,373.0,145.5,380.0,138.0,387.5,130.5,395.0,123.0,403.0,115.5,411.0,107.5" stroke="black" stroke-width="2" fill="none" />
<polyline points="412.5,99.5,404.5,107.0,396.5,115.0,388.0,122.5,379.5,129.5,371.0,137.0,363.5,145.0,355.5,153.0,347.5,160.5,340.0,168.0,332.0,175.0,324.0,182.5,316.0,190.0,308.0,197.0,300.5,204.0,293.0,211.0,284.5,219.0,276.5,226.5,268.5,234.0,260.0,241.5" stroke="black" stroke-width="2" fill="none" />
<polyline points="259.0,234.0,251.5,234.5" stroke="black" stroke-width="2" fill="none" />
<polyline points="249.0,242.0,257.5,243.5,265.5,244.5,273.5,236.0,282.5,233.5,290.5,234.5,294.0,230.5,302.5,234.5,304.5,226.5,313.0,227.0,321.0,228.0,329.0,230.5,335.5,235.5" stroke="black" stroke-width="2" fill="none" />
<polyline points="323.5,220.5,332.0,212.5,340.0,205.0,348.0,197.0,355.5,189.5,363.5,182.0,371.5,174.0,379.5,166.5,388.0,158.5,396.0,151.0,403.5,144.0,411.5,136.0,419.5,128.5,427.5,121.0,436.0,113.5" stroke="black" stroke-width="2" fill="none" />
<polyline points="429.0,114.0,421.0,118.5,412.5,124.5,414.5,123.5,425.5,116.0,430.5,118.0,422.0,122.0,414.0,129.0" stroke="black" stroke-width="2" fill="none" />
<polyline points="412.0,131.5,404.0,139.0,396.0,146.5,387.5,154.5,379.5,162.5,371.5,170.0,363.5,177.0,355.0,184.0,347.0,191.5,339.5,199.5,332.0,207.0,323.5,214.5,315.0,221.5" stroke="black" stroke-width="2" fill="none" />
<polyline points="323.0,209.5,331.0,209.5" stroke="black" stroke-width="2" fill="none" />
<polyline points="331.5,201.0,324.0,201.5" stroke="black" stroke-width="2" fill="none" />
<polyline points="314.0,194.0,322.5,193.5,330.5,193.0,338.5,193.0" stroke="black" stroke-width="2" fill="none" />
<polyline points="347.0,202.0,354.5,201.0" stroke="black" stroke-width="2" fill="none" />
<polyline points="370.5,194.5,378.5,193.5" stroke="black" stroke-width="2" fill="none" />
<polyline points="394.5,190.5,404.5,200.5,404.0,208.5,394.0,209.5,399.5,216.0,402.5,218.0,405.0,216.5,418.0,213.5" stroke="black" stroke-width="2" fill="none" />
<polyline points="412.5,227.0,404.5,234.5,396.0,241.5,388.0,249.5,380.0,257.0,372.0,265.0" stroke="black" stroke-width="2" fill="none" />
<polyline points="365.5,265.5,373.5,264.5,378.5,264.5,384.5,267.0,393.0,268.0" stroke="black" stroke-width="2" fill="none" />
<polyline points="387.5,266.5,395.0,258.0,402.5,250.0,410.5,242.0,419.0,234.5" stroke="black" stroke-width="2" fill="none" />
<polyline points="405.0,227.5,397.0,234.5,388.5,242.5,380.5,250.0,372.0,258.0,364.0,265.5" stroke="black" stroke-width="2" fill="none" />
<polyline points="368.5,272.5,376.5,272.0,384.5,274.0" stroke="black" stroke-width="2" fill="none" />
<polyline points="379.0,274.5,371.0,282.0,362.5,290.0" stroke="black" stroke-width="2" fill="none" />
<polyline points="371.5,289.0,379.0,281.5" stroke="black" stroke-width="2" fill="none" />
<polyline points="377.0,284.5,385.0,283.5" stroke="black" stroke-width="2" fill="none" />
<polyline points="397.5,282.5,389.0,283.0,380.5,283.0,372.0,283.0,363.5,284.0,354.5,284.5,346.0,285.0,337.5,285.5,329.0,286.0,321.0,286.5" stroke="black" stroke-width="2" fill="none" />
<polyline points="322.5,284.5,330.5,277.0" stroke="black" stroke-width="2" fill="none" />
<polyline points="325.5,277.0,317.0,284.5" stroke="black" stroke-width="2" fill="none" />
<polyline points="310.0,281.5,318.0,282.5,329.0,283.5,336.5,285.5,344.0,284.5" stroke="black" stroke-width="2" fill="none" />
<polyline points="347.0,283.5,355.0,276.0" stroke="black" stroke-width="2" fill="none" />
<polyline points="354.0,282.0,363.0,274.5" stroke="black" stroke-width="2" fill="none" />
<polyline points="347.5,276.0,340.0,283.5" stroke="black" stroke-width="2" fill="none" />
<polyline points="338.5,283.0,329.5,290.0,336.0,293.0,343.5,289.5,351.5,285.5,352.5,292.0,360.5,295.0,368.0,294.5,376.0,295.5,384.0,295.5,392.0,288.5,399.5,279.5,407.5,268.5,415.5,259.0,423.5,249.0,432.0,239.0,440.0,227.0" stroke="black" stroke-width="2" fill="none" />
<polyline points="427.5,223.5,419.5,224.0,411.5,224.0,403.5,225.5,395.0,226.5,387.5,227.0,379.5,228.0,372.0,228.5,364.0,229.0,355.5,229.5,347.5,229.5,339.0,230.5,331.0,231.0,323.0,232.0,314.5,232.5,306.5,233.0,298.5,232.5,290.0,233.5,282.0,234.5,274.5,234.5,266.5,235.0,259.0,235.5,251.0,235.5,243.0,236.5,234.5,237.5,226.5,238.5,218.0,239.0,210.5,240.0,203.0,240.5,195.0,241.0,187.0,241.5,179.0,242.0,171.0,242.0,163.5,242.0,155.5,242.0,148.0,242.5,140.5,242.0,132.5,242.5,125.0,243.5,117.5,244.0,109.5,244.5,101.5,245.0" stroke="black" stroke-width="2" fill="none" />
<polyline points="99.5,250.0,91.5,257.5,97.5,252.5,100.5,257.0,108.5,256.5,116.5,252.5,119.5,249.5" stroke="black" stroke-width="2" fill="none" />
<polyline points="116.0,252.5,124.0,245.0" stroke="black" stroke-width="2" fill="none" />
<polyline points="131.0,243.5,123.5,250.5,115.5,258.5" stroke="black" stroke-width="2" fill="none" />
<polyline points="119.0,259.5,127.0,263.5,126.5,258.5,135.5,265.5,143.0,266.0,150.5,264.0,164.5,266.0,172.5,267.0,180.5,267.0,188.0,263.5,193.0,269.5,201.0,270.5,208.5,271.0,217.0,272.0,225.0,273.5,233.5,274.5,241.0,276.0,249.0,277.0,257.0,278.0,265.5,279.5,273.5,280.5,281.5,281.5,289.0,282.5,297.0,284.5,309.5,290.0,317.5,291.0,326.0,292.5" stroke="black" stroke-width="2" fill="none" />
<polyline points="333.0,285.0,341.0,277.5" stroke="black" stroke-width="2" fill="none" />
<polyline points="347.5,285.0,349.5,293.0" stroke="black" stroke-width="2" fill="none" />
<polyline points="374.5,301.0,382.5,302.0" stroke="black" stroke-width="2" fill="none" />
<polyline points="402.0,267.0,394.5,267.5,387.0,268.0,379.0,269.0,371.5,269.0,363.5,270.0,355.0,271.0,346.5,272.0,338.0,272.5,330.5,273.0,323.0,274.0,315.5,274.5,307.5,275.5,299.5,276.5,291.0,277.0,282.0,278.0,273.5,278.0,265.0,278.0,257.5,278.5" stroke="black" stroke-width="2" fill="none" />
<polyline points="262.0,275.5,270.5,268.5" stroke="black" stroke-width="2" fill="none" />
<polyline points="276.0,268.5,268.0,276.0" stroke="black" stroke-width="2" fill="none" />
<polyline points="276.0,276.5,284.0,269.0" stroke="black" stroke-width="2" fill="none" />
<polyline points="284.5,274.5,292.0,267.0" stroke="black" stroke-width="2" fill="none" />
<polyline points="300.5,265.5,292.5,273.0,285.0,280.5" stroke="black" stroke-width="2" fill="none" />
<polyline points="291.5,285.5,300.0,277.5,308.0,270.0" stroke="black" stroke-width="2" fill="none" />
<polyline points="302.0,272.5,310.5,274.5,318.5,273.5,320.5,275.5,328.5,276.5,336.5,278.5,345.0,279.0,351.5,282.0,359.5,281.0,367.5,282.5,380.0,276.5,381.0,281.5,389.0,281.0" stroke="black" stroke-width="2" fill="none" />
<polyline points="403.5,257.0,396.0,258.0,388.0,258.5,379.5,258.5,371.5,258.5,363.5,259.0,356.0,260.0,348.0,260.5,340.0,261.0,331.5,261.5,323.0,262.5,314.5,263.0,306.5,264.0,298.5,264.5,290.5,265.0,282.5,265.5,274.5,266.0,267.0,266.5,259.0,267.0,251.5,268.0,243.5,268.5,236.0,269.0,228.5,270.0,220.5,270.5,212.0,271.0" stroke="black" stroke-width="2" fill="none" />
<polyline points="220.0,266.5,228.5,258.5" stroke="black" stroke-width="2" fill="none" />
<polyline points="221.5,257.5,213.5,265.0" stroke="black" stroke-width="2" fill="none" />
<polyline points="212.0,259.5,204.5,267.0" stroke="black" stroke-width="2" fill="none" />
<polyline points="203.5,258.0,195.5,265.5" stroke="black" stroke-width="2" fill="none" />
<polyline points="194.5,265.0,202.5,265.0,210.5,264.5,218.5,264.0" stroke="black" stroke-width="2" fill="none" />
<polyline points="227.5,273.5,235.5,266.5,243.5,258.5" stroke="black" stroke-width="2" fill="none" />
<polyline points="237.5,259.0,229.5,266.5" stroke="black" stroke-width="2" fill="none" />
<polyline points="238.0,264.5,246.0,266.5,250.0,264.5,257.5,263.5,265.5,258.0,274.5,264.0,282.0,265.0" stroke="black" stroke-width="2" fill="none" />
<polyline points="283.0,270.0,274.5,271.0,266.5,272.0,258.5,273.0,250.0,274.0,242.0,274.5" stroke="black" stroke-width="2" fill="none" />
<polyline points="241.5,273.5,249.5,266.0" stroke="black" stroke-width="2" fill="none" />
<polyline points="253.0,267.0,261.0,267.0,269.0,269.0,277.0,270.0,278.5,272.5,287.0,271.5,294.5,264.5" stroke="black" stroke-width="2" fill="none" />
<polyline points="294.0,277.5,297.0,280.5,299.0,281.5,307.0,284.5,315.5,284.0,323.5,287.0,331.5,289.0,337.5,291.0,349.5,290.0,357.5,288.0,366.5,285.0,377.5,281.5,382.5,286.5" stroke="black" stroke-width="2" fill="none" />
<polyline points="386.5,294.5,394.5,287.0,401.5,279.0,407.5,271.5,414.5,263.0,420.5,255.0,427.0,247.0,433.0,239.0,438.5,231.0,444.5,222.5,448.0,214.5,449.0,206.0,445.5,198.5,441.0,207.5,433.0,217.5,435.0,214.5,442.5,206.5,449.5,198.5,451.0,189.5,451.0,181.5,452.0,173.5,452.0,165.5,452.5,157.5,453.5,149.5,453.5,141.0,453.5,133.5,454.5,126.0,454.5,118.0,454.5,109.5,457.5,101.5,452.5,98.5,460.5,90.5,459.5,79.0,460.5,69.0,452.5,74.0" stroke="black" stroke-width="2" fill="none" />
<polyline points="442.5,77.0,450.0,77.0,458.5,76.5,466.5,76.0" stroke="black" stroke-width="2" fill="none" />
<polyline points="453.0,100.5,445.0,108.0" stroke="black" stroke-width="2" fill="none" />
<polyline points="444.5,106.0,448.0,101.5,446.0,109.0,444.5,116.5,436.0,124.5,437.0,132.5,438.0,141.0,441.5,146.0,447.0,147.5,438.5,156.5,437.5,168.0,438.5,171.0,436.5,179.0,434.5,184.0,436.5,186.5,433.5,190.5,428.0,195.5,428.0,203.5,425.0,211.5,427.0,219.5,422.0,227.5,423.5,231.5,416.5,239.5,410.0,247.5,403.0,254.5,411.0,244.0,418.5,234.0,421.5,225.5" stroke="black" stroke-width="2" fill="none" />
<polyline points="410.5,243.0,402.5,244.0,394.0,245.0,386.0,246.0,378.0,246.0,370.5,246.5,362.5,247.0,354.5,247.5,346.5,247.5,338.5,248.0,330.5,249.0,322.5,250.0,314.5,250.5,306.0,251.0,298.5,251.0,290.0,252.0,282.5,252.5,274.5,253.5,266.5,254.0,259.0,255.0,251.0,255.5,242.0,256.5,233.5,257.5,225.5,258.0,217.0,259.0,209.5,259.0,202.0,259.5,194.5,260.0,186.5,259.5,179.0,260.0,171.5,260.0,164.0,259.5,156.5,259.5,149.0,260.5,141.0,260.5" stroke="black" stroke-width="2" fill="none" />
<polyline points="142.0,258.5,150.0,256.5,158.0,257.5,164.5,259.5,147.5,263.5,156.5,264.0,168.0,258.0,176.0,259.0,184.0,260.5,186.5,256.5,191.5,258.5,193.5,259.5,201.5,260.5,210.0,263.5,213.0,256.0,218.0,264.0,226.0,258.5,229.5,265.5,237.5,266.0,245.5,261.0,247.5,264.0,249.5,257.0,257.5,258.0,265.5,260.5,268.5,264.5,277.5,262.5,285.5,262.5,288.5,266.0,298.5,270.0,293.5,271.5,301.5,272.0,304.5,262.5,312.5,262.5,328.0,254.5" stroke="black" stroke-width="2" fill="none" />
<polyline points="317.0,269.0,308.5,276.5,300.5,283.5" stroke="black" stroke-width="2" fill="none" />
<polyline points="306.5,284.5,314.5,277.0" stroke="black" stroke-width="2" fill="none" />
<polyline points="334.5,241.5,326.5,240.5,318.0,239.5,310.0,238.0,302.0,237.0" stroke="black" stroke-width="2" fill="none" />
<polyline points="284.0,217.0,293.0,216.5,301.5,216.5,309.5,215.5,317.0,215.0,325.0,214.0,332.5,213.5" stroke="black" stroke-width="2" fill="none" />
<polyline points="322.5,185.0,330.5,184.5,339.0,184.5,347.5,183.5,355.5,183.0" stroke="black" stroke-width="2" fill="none" />
<polyline points="364.5,178.0,372.5,177.5" stroke="black" stroke-width="2" fill="none" />
<polyline points="369.0,168.5,361.0,169.5,354.0,170.0,346.5,170.5,339.0,171.0,331.5,171.5,323.5,172.0" stroke="black" stroke-width="2" fill="none" />
<polyline points="329.5,162.5,338.0,162.0,346.5,161.5,355.0,161.0,363.0,161.0,371.0,160.5" stroke="black" stroke-width="2" fill="none" />
<polyline points="377.5,168.0,381.0,162.0" stroke="black" stroke-width="2" fill="none" />
<polyline points="387.5,169.0,395.5,168.5" stroke="black" stroke-width="2" fill="none" />
<polyline points="419.0,154.0,427.0,153.5,435.0,153.0" stroke="black" stroke-width="2" fill="none" />
<polyline points="444.5,153.0,452.5,152.5" stroke="black" stroke-width="2" fill="none" />
<polyline points="449.5,158.5,442.0,158.5,434.0,159.0,427.0,159.0,419.5,159.0,411.5,159.5,404.0,159.5,396.0,160.5,388.0,162.0,379.5,162.5,371.0,163.0,362.5,163.0,354.5,163.5,346.5,164.5,338.0,165.0,330.0,165.5,322.0,166.5,314.0,166.5,306.5,167.0,298.0,168.0,289.5,168.5,281.5,169.5,273.5,170.0,266.0,170.5,258.5,171.0,251.0,172.0,243.5,172.5,235.5,173.0,228.0,173.5,220.5,174.0,212.5,174.5,204.5,175.0,197.0,175.5,189.0,175.5,181.5,176.0,173.5,176.0,165.5,176.5,157.5,177.0,149.0,177.0,141.0,178.0,132.5,178.5,124.5,179.0,116.0,179.0,108.0,179.5,100.0,179.5,92.5,180.0,85.0,180.5" stroke="black" stroke-width="2" fill="none" />
<polyline points="89.0,175.5,93.0,180.5,99.5,182.0,101.5,184.0" stroke="black" stroke-width="2" fill="none" />
<polyline points="108.5,185.0,116.5,184.0,124.0,183.0,131.5,183.0" stroke="black" stroke-width="2" fill="none" />
<polyline points="141.5,185.0,149.0,185.0" stroke="black" stroke-width="2" fill="none" />
<polyline points="149.5,193.0,141.5,193.5" stroke="black" stroke-width="2" fill="none" />
<polyline points="141.0,202.5,149.0,202.0,157.0,201.0,165.0,200.5,172.0,200.0,179.5,199.5,187.0,199.5,194.0,199.0,201.5,198.5,209.0,198.0,217.5,197.5,225.0,197.0" stroke="black" stroke-width="2" fill="none" />
<polyline points="219.5,191.0,227.5,193.0,228.5,198.0,236.5,197.0" stroke="black" stroke-width="2" fill="none" />
<polyline points="244.0,202.5,251.5,201.5,259.0,201.0" stroke="black" stroke-width="2" fill="none" />
<polyline points="265.0,204.0,273.5,203.0" stroke="black" stroke-width="2" fill="none" />
<polyline points="275.5,192.0,267.0,192.5,259.5,193.0,251.5,193.5" stroke="black" stroke-width="2" fill="none" />
<polyline points="243.5,188.0,251.5,187.5,260.0,186.5,268.0,185.5,275.0,184.5,283.0,183.5" stroke="black" stroke-width="2" fill="none" />
<polyline points="292.0,187.5,300.0,187.0" stroke="black" stroke-width="2" fill="none" />
<polyline points="299.0,178.5,307.0,178.0" stroke="black" stroke-width="2" fill="none" />
<polyline points="313.5,177.5,321.5,177.0,330.0,177.0,338.5,176.5,346.5,176.5,354.5,175.5" stroke="black" stroke-width="2" fill="none" />
<polyline points="339.0,153.5,346.5,153.0,354.5,152.5,362.0,152.5,370.0,151.5,378.5,150.5" stroke="black" stroke-width="2" fill="none" />
<polyline points="364.0,123.0,372.5,122.0,380.5,121.5,388.5,121.0,396.5,120.5,404.5,120.5,412.5,119.0" stroke="black" stroke-width="2" fill="none" />
<polyline points="420.0,121.5,427.5,114.0,435.5,106.0,443.5,99.0" stroke="black" stroke-width="2" fill="none" />
<polyline points="451.0,100.0,459.0,94.0" stroke="black" stroke-width="2" fill="none" />
<polyline points="459.0,82.0,451.5,83.0,443.5,84.0,436.0,84.0,428.0,84.5" stroke="black" stroke-width="2" fill="none" />
<polyline points="419.5,93.5,427.5,93.0,436.0,92.0,444.5,91.0,453.0,90.5,461.5,90.0" stroke="black" stroke-width="2" fill="none" />
<polyline points="461.0,126.0,453.0,127.0,444.5,127.5,437.0,127.5,428.5,127.5,420.5,127.5,412.0,128.0,403.5,129.0,395.5,129.5,388.5,130.0,380.5,130.0,372.5,130.0,364.5,130.5,356.5,131.5,348.5,132.0,340.5,132.5,333.0,133.0,325.0,133.0,316.5,133.5,308.5,134.5,300.0,135.0,291.5,135.5,283.0,136.0,274.5,137.0,266.5,138.0,258.5,139.0,250.0,140.0,242.0,140.5,234.5,141.0,227.0,141.5,219.5,142.0,212.0,142.5,204.0,143.0,196.5,143.0,188.5,143.0,180.5,143.5,173.0,143.5,165.0,144.0,157.0,144.0,148.5,145.0,140.0,145.5,132.0,146.0,123.5,146.5,115.5,147.0,107.0,147.5,99.0,147.5,91.0,148.0,83.0,148.5" stroke="black" stroke-width="2" fill="none" />
<polyline points="83.5,152.0,92.0,144.5,100.0,137.0,108.0,129.5,116.0,122.0,123.5,114.5,131.0,107.0,139.0,99.0,147.0,91.0" stroke="black" stroke-width="2" fill="none" />
<polyline points="139.5,90.5,131.5,98.5,124.0,106.5,116.0,114.0,107.5,121.0,100.0,128.5,92.0,136.0,84.5,143.0" stroke="black" stroke-width="2" fill="none" />
<polyline points="81.0,140.5,89.0,140.0,97.5,139.5,105.5,139.0,113.5,139.0,121.5,138.5,130.0,138.0,138.0,137.0,146.5,136.5,155.0,136.5,163.0,136.0,171.0,135.5,178.5,135.0,186.5,135.0,194.5,135.0,202.5,135.0,210.0,134.5,217.5,134.0,225.5,133.0,234.0,132.5,242.0,131.5,250.0,131.5,258.0,131.0,266.5,131.0,275.0,130.5,283.5,129.5,292.0,129.0,300.0,128.0,308.0,127.5,315.5,127.0,323.5,126.5,331.5,126.0,340.0,125.0,348.5,124.0,357.0,123.5,365.5,123.0,373.5,122.0,381.0,122.0,389.0,122.0,397.0,122.0,405.5,122.0,413.0,121.5,421.0,121.0,429.0,120.5,436.5,119.5,444.5,119.0,453.0,119.0,461.0,118.0" stroke="black" stroke-width="2" fill="none" />
<polyline points="459.0,132.5,450.5,133.0,442.5,133.0,435.0,133.5,427.5,134.0,420.0,134.5,412.5,136.0,404.5,136.5,396.0,137.0,387.5,137.5,379.5,138.0,371.5,139.0,364.0,140.0,356.0,141.0,347.5,141.5,339.0,142.0,331.0,142.5,323.0,143.0,315.0,143.0,307.5,143.5,300.0,144.5,292.0,145.5,284.5,146.0,276.5,146.0,267.5,146.0,259.0,146.5,251.5,147.0,243.5,147.5,235.5,148.0,228.0,149.0,220.0,150.0,211.5,150.0,203.5,151.0,196.0,151.5,188.5,152.0,181.0,152.0,172.5,152.0,164.5,152.5,156.5,153.0,149.0,154.5,141.0,155.5,133.0,156.0,125.0,156.0,117.0,156.0,108.5,155.5,100.5,155.5,92.0,156.0,84.0,156.5" stroke="black" stroke-width="2" fill="none" />
<polyline points="84.0,158.0,92.0,151.5,100.0,144.0,108.5,136.5,117.0,129.0,125.0,121.0,133.5,113.5,141.0,106.0,148.5,98.5,156.0,91.5" stroke="black" stroke-width="2" fill="none" />
<polyline points="154.5,87.0,163.0,87.0,176.0,91.5" stroke="black" stroke-width="2" fill="none" />
<polyline points="181.5,91.5,173.5,99.0,165.5,106.5,157.5,114.0,149.5,122.0,142.0,129.5,134.5,137.0,126.5,144.5,118.5,152.5,110.5,160.0,102.5,167.5,94.0,174.5" stroke="black" stroke-width="2" fill="none" />
<polyline points="91.5,169.0,99.5,168.5,107.0,168.5,115.5,168.0,124.0,167.0,132.0,166.5,140.0,166.0,147.5,165.5" stroke="black" stroke-width="2" fill="none" />
<polyline points="150.5,177.5,142.5,178.5" stroke="black" stroke-width="2" fill="none" />
<polyline points="148.0,160.0,140.0,160.0,132.5,160.5,124.5,160.0,116.0,160.5" stroke="black" stroke-width="2" fill="none" />
<polyline points="114.0,152.0,122.0,152.0,130.0,152.0,138.5,152.0" stroke="black" stroke-width="2" fill="none" />
<polyline points="140.0,142.5,131.5,143.5,122.5,144.0,113.5,144.0,105.0,145.0,97.0,146.0,89.0,146.5" stroke="black" stroke-width="2" fill="none" />
<polyline points="91.0,153.0,99.0,152.0" stroke="black" stroke-width="2" fill="none" />
<polyline points="92.5,161.0,100.5,160.5,108.5,159.5" stroke="black" stroke-width="2" fill="none" />
<polyline points="107.5,176.5,115.5,175.5,124.0,175.5,132.0,175.0" stroke="black" stroke-width="2" fill="none" />
<polyline points="132.0,200.5,124.0,201.0,116.5,201.0" stroke="black" stroke-width="2" fill="none" />
<polyline points="115.0,209.0,123.0,208.5,130.5,208.0" stroke="black" stroke-width="2" fill="none" />
<polyline points="133.0,211.5,132.0,219.5,137.0,208.5,143.5,210.0,151.0,208.0,159.0,208.5,166.5,210.0,174.5,211.5,182.5,213.0,190.0,214.0,197.5,220.0" stroke="black" stroke-width="2" fill="none" />
<polyline points="203.5,218.5,211.5,218.0" stroke="black" stroke-width="2" fill="none" />
<polyline points="203.0,226.5,211.0,226.0,218.5,225.0,226.0,224.0" stroke="black" stroke-width="2" fill="none" />
<polyline points="218.0,234.0,226.0,226.5,234.0,219.0,241.5,211.5,249.0,204.0,257.0,196.5,265.0,189.0,273.0,182.0,281.5,174.5,289.0,167.0,297.5,159.5,306.0,152.0,315.0,145.0,323.5,137.5,330.5,129.5,338.0,121.5,346.0,113.5,353.5,105.5,361.5,98.0" stroke="black" stroke-width="2" fill="none" />
<polyline points="355.5,99.5,348.0,107.0,339.5,115.0,331.5,123.0,323.5,130.5,315.5,137.5,307.0,145.0,299.0,152.5,291.0,160.0,282.5,168.0,274.5,175.5,266.5,182.5,258.0,189.5,250.0,196.5,242.5,204.5,235.0,212.0,227.0,219.5,218.5,226.5,211.0,234.0" stroke="black" stroke-width="2" fill="none" />
<polyline points="235.5,240.5,244.0,233.0,252.0,226.0,259.5,219.0,268.0,212.0,276.0,204.5,284.5,197.0,292.5,189.5,300.5,182.0,308.5,174.0,316.5,166.5,324.5,160.0,332.0,153.0,339.5,145.5,347.0,137.5,355.5,130.0,364.0,122.5,372.5,115.0,381.0,108.0,389.0,100.5" stroke="black" stroke-width="2" fill="none" />
<polyline points="384.5,103.5,392.5,106.5,398.5,108.5,406.5,108.0,414.5,106.5" stroke="black" stroke-width="2" fill="none" />
<polyline points="405.0,98.5,397.0,105.5,389.0,113.5,380.5,121.5,372.0,129.0,364.0,136.5,356.0,144.5,348.0,152.0,339.5,159.5,331.5,167.0,323.5,174.5,315.5,182.0,308.0,189.0,300.0,196.5,292.0,204.0,283.5,211.5,275.0,219.5,266.0,227.0,257.5,235.0,250.0,242.5" stroke="black" stroke-width="2" fill="none" />
<polyline points="244.0,242.0,251.5,234.5,259.5,227.0,267.0,220.0,275.0,213.0,283.5,205.0,291.5,197.5,299.5,190.0,307.5,182.5,316.0,174.5,324.0,167.0,332.5,159.5,340.5,151.5,348.0,144.0,356.5,136.0,364.5,129.5,373.0,122.5,381.5,115.5,389.0,108.0,397.0,100.5" stroke="black" stroke-width="2" fill="none" />
<polyline points="378.5,99.0,370.5,106.0,362.5,113.5,354.5,121.5,347.0,129.0,340.0,137.0,332.5,144.5,324.5,152.5,316.5,160.0,309.0,168.0,301.0,175.5,292.5,183.0,284.0,190.5,275.5,197.5,267.5,205.0,259.5,212.5,251.5,219.5,243.5,226.5,235.0,234.0,227.0,241.5" stroke="black" stroke-width="2" fill="none" />
<polyline points="220.0,242.0,228.0,234.0,236.0,226.0,244.0,218.5,251.5,211.0,260.0,203.5,268.0,196.5,276.0,189.5,283.5,182.5,291.5,175.0,299.5,168.0,307.5,160.0,315.5,152.5,323.5,145.0,331.5,137.5,339.0,130.0,346.0,122.0,353.5,114.0,360.5,106.0,369.0,98.0" stroke="black" stroke-width="2" fill="none" />
<polyline points="361.0,81.0,369.0,80.5,377.5,81.0" stroke="black" stroke-width="2" fill="none" />
<polyline points="372.0,77.0,379.5,76.5,387.5,76.0,395.5,75.5,403.5,74.5" stroke="black" stroke-width="2" fill="none" />
<polyline points="412.0,72.5,403.5,72.5,395.5,72.5,387.5,73.0,380.0,74.0,372.0,74.5,364.0,75.0,355.5,75.5,347.0,76.5,338.5,77.0,330.5,78.0,322.5,78.5,314.5,79.0,306.5,79.5,298.5,80.0,291.0,80.5,283.0,81.0,275.5,82.0,267.5,82.5,260.0,83.0,252.5,84.0,244.5,84.5,236.0,85.0,228.5,85.5,221.0,85.5,213.0,85.5,204.5,85.0,196.5,85.5,188.5,85.0,181.0,85.5,172.5,85.5,164.5,85.0,156.5,85.5,148.5,86.5,140.5,88.0,132.0,89.0,124.0,90.0,116.0,91.0,108.0,92.0,100.0,92.0,92.0,92.5,85.0,93.0,77.0,94.0" stroke="black" stroke-width="2" fill="none" />
<polyline points="75.5,98.0,83.5,90.0,91.5,82.5" stroke="black" stroke-width="2" fill="none" />
<polyline points="94.5,85.0,86.5,85.0" stroke="black" stroke-width="2" fill="none" />
<polyline points="86.5,82.5,94.5,82.5,105.5,86.0,113.5,84.0,113.5,86.5" stroke="black" stroke-width="2" fill="none" />
<polyline points="116.0,91.0,108.0,98.5,100.0,106.0,92.0,113.5,84.5,121.5" stroke="black" stroke-width="2" fill="none" />
<polyline points="84.0,116.5,92.0,116.0,100.0,115.5,108.0,115.5,115.5,115.0,123.0,114.5,131.0,114.0,139.0,113.5,146.5,113.0,154.5,112.0,162.0,111.0,170.0,111.0,178.0,111.0,186.5,111.0,194.5,111.0,202.5,110.5,211.0,110.5,219.5,110.0,228.0,109.5,236.5,109.0,245.0,108.5,252.5,108.0,260.5,107.0,268.5,106.5,276.0,105.5,284.0,105.0,291.5,104.5,299.5,104.0,307.5,103.5,316.0,102.5,324.0,102.0,331.5,101.5,339.5,101.0,347.5,100.5,355.5,99.5,364.0,98.5,372.0,97.5,380.0,97.0,388.0,96.5,396.5,96.5,404.5,96.5,412.5,96.0,420.0,95.0,428.0,95.0,436.0,95.0,444.0,94.5,452.0,94.0,460.0,93.5" stroke="black" stroke-width="2" fill="none" />
<polyline points="460.5,110.0,452.5,110.5,444.5,111.0,436.5,111.0,428.5,111.0,420.5,111.0,413.0,111.5,404.5,112.0,396.5,112.5,389.0,113.5,381.0,114.0,373.0,115.5,365.0,116.0,356.5,116.5,348.0,116.0,339.5,116.5,331.5,117.5,323.5,118.0,315.5,118.5,308.0,119.0,299.5,119.5,291.5,120.0,282.5,121.0,275.0,122.0,266.5,122.5,259.0,123.0,251.5,123.5,244.0,124.5,235.5,125.0,227.5,126.0,219.5,126.5,211.5,127.0,203.5,127.0,195.5,127.5,188.0,127.5,180.0,127.5,172.0,128.0,164.5,128.0,156.0,128.5,148.0,129.0,139.5,129.5,131.0,130.0,122.5,130.5,115.0,131.0,106.5,131.5,98.5,132.0,91.5,132.5,83.5,133.5" stroke="black" stroke-width="2" fill="none" />
<polyline points="82.0,135.0,90.5,128.0,98.5,121.0,106.5,114.5,115.0,107.5,123.5,100.0,131.5,92.5" stroke="black" stroke-width="2" fill="none" />
<polyline points="125.5,93.0,117.5,100.5,109.0,108.0,100.5,116.0,92.0,124.0,83.0,131.5" stroke="black" stroke-width="2" fill="none" />
<polyline points="84.5,127.0,92.0,126.5,100.0,125.5,108.0,125.0,116.5,124.0,125.0,123.0,132.5,122.5,140.0,121.5,148.0,121.0,156.0,120.0,164.0,119.5,172.5,119.0,180.5,119.5,188.0,119.0,196.0,119.0,204.0,118.5,212.0,118.5,220.0,118.5,228.0,118.5,235.5,118.5,243.5,118.0,251.5,117.5,260.0,116.5,268.0,115.5,275.0,114.5,283.0,113.5,291.0,113.0,299.0,112.5,307.0,112.0,315.0,112.0,322.5,111.5,330.5,110.5,338.0,110.0,346.5,109.0,355.0,108.0,363.5,107.0,372.0,106.5,380.0,106.5,388.5,106.0,396.5,105.5,404.0,105.5,412.5,104.5,421.0,104.0,429.5,103.5,437.0,103.0,445.0,103.0,452.5,102.5,460.0,102.0" stroke="black" stroke-width="2" fill="none" />
<polyline points="461.0,84.0,453.0,84.5,445.0,85.0,437.5,86.0,429.0,87.5,421.0,88.5,413.5,89.0,405.5,89.0,397.5,89.5,389.0,90.0,381.0,90.5,373.0,91.0,365.0,91.5,357.0,92.0,349.0,93.0,341.0,94.0,332.5,94.5,324.5,95.0,316.5,95.5,308.5,96.0,300.0,96.5,292.0,96.5,284.0,97.0,276.0,97.5,267.5,97.5,259.5,97.5,251.5,97.5,244.0,98.5,236.0,99.0,228.0,99.5,220.0,100.0,212.0,101.0,203.5,101.5,195.0,102.5,186.5,103.0,178.5,103.5,170.0,104.0,162.0,104.0,154.0,105.0,146.0,105.5,138.5,105.5,130.5,105.5,122.0,105.5,115.0,106.0,107.0,107.0,99.0,108.0,90.0,108.5,82.0,109.0" stroke="black" stroke-width="2" fill="none" />
<polyline points="81.5,106.5,90.0,99.0,98.0,92.0" stroke="black" stroke-width="2" fill="none" />
<polyline points="99.0,84.0,91.0,91.5,83.0,98.5,75.0,105.5" stroke="black" stroke-width="2" fill="none" />
<polyline points="76.5,102.5,84.5,102.0,92.0,101.0,100.0,100.0,108.5,99.0,116.5,98.0,124.5,97.5,132.0,97.0,140.0,96.5,147.5,96.0,155.5,95.5,163.5,94.5,172.0,94.5,180.0,94.0,188.0,93.5,196.0,93.5,204.0,93.0,211.5,93.0,219.5,92.5,227.5,92.5,235.5,91.5,243.5,91.0,251.0,91.0,258.5,90.5,266.0,90.5,273.5,90.0,281.5,89.0,289.5,88.0,298.0,87.5,306.5,87.5,315.0,87.0,322.5,86.0,331.0,85.0,339.0,84.5,347.5,84.0,355.5,83.5,364.0,83.5,372.0,83.0,380.0,82.5,388.0,82.5,396.0,82.5,404.0,82.0,412.0,81.5,420.0,81.0,428.5,80.0,437.0,79.5,445.0,79.0,452.5,79.0,460.5,78.0" stroke="black" stroke-width="2" fill="none" />
<polyline points="430.5,69.0,422.5,69.0" stroke="black" stroke-width="2" fill="none" />
<polyline points="405.5,59.0,397.5,59.5,389.0,60.0,381.0,60.5,373.0,61.0,365.0,61.5,357.0,62.0,349.0,63.0,341.0,64.0,332.5,64.5,324.5,65.0,316.5,65.5,308.5,66.0,300.0,66.5,292.0,66.5,284.0,67.0,276.0,67.5,267.5,67.5,259.5,67.5,251.5,67.5,244.0,68.5" stroke="black" stroke-width="2" fill="none" />
<polyline points="257.0,62.5,265.0,62.5,278.5,63.0,287.0,63.0,299.0,63.5,307.5,63.5" stroke="black" stroke-width="2" fill="none" />
<polyline points="317.5,65.0,325.5,65.0" stroke="black" stroke-width="2" fill="none" />
<polyline points="344.5,66.0,352.5,66.5" stroke="black" stroke-width="2" fill="none" />
<polyline points="366.0,67.0,373.5,67.0" stroke="black" stroke-width="2" fill="none" />
<polyline points="391.0,68.0,399.0,68.0" stroke="black" stroke-width="2" fill="none" />
<polyline points="392.0,78.0,400.0,78.5,407.5,78.5,415.5,79.5,418.5,81.5" stroke="black" stroke-width="2" fill="none" />
<polyline points="399.0,81.5,390.5,81.5" stroke="black" stroke-width="2" fill="none" />
<polyline points="404.0,123.0,396.0,123.0,388.0,123.0,380.5,123.5,372.5,123.5,364.5,124.0,356.5,124.5,348.5,124.5,340.5,125.5,332.5,126.5,324.5,127.0,316.0,128.0,307.5,128.0,299.0,129.0,290.5,129.5,282.5,130.5" stroke="black" stroke-width="2" fill="none" />
<polyline points="282.5,129.5,291.0,123.0,299.5,116.0,308.0,108.0,316.5,100.5" stroke="black" stroke-width="2" fill="none" />
<polyline points="324.0,99.5,316.5,107.5,309.0,115.0,301.0,123.0,293.5,131.0,285.0,139.0,277.0,147.0,268.5,154.0,260.0,161.5,251.0,168.5,243.0,176.0,235.0,184.0,227.5,191.0,220.0,198.0,212.0,204.0,203.5,211.0,195.5,219.0,187.5,226.5,179.5,234.0" stroke="black" stroke-width="2" fill="none" />
<polyline points="185.0,237.5,192.5,237.5,200.5,238.5,208.5,240.0" stroke="black" stroke-width="2" fill="none" />
<polyline points="204.5,234.5,212.0,227.5,220.0,220.0,228.0,213.0,236.0,205.5,243.5,198.5,251.5,191.0,259.5,183.0,267.0,175.0,275.5,167.5,284.0,160.5,293.0,153.0,301.0,145.0,309.0,137.5,317.0,130.0,325.0,122.5,332.5,115.5,340.0,109.0,348.0,102.0" stroke="black" stroke-width="2" fill="none" />
<polyline points="340.0,101.0,332.5,108.0,324.5,115.0,316.5,122.0,308.5,129.5,300.5,137.0,292.5,144.0,284.0,151.5,275.5,159.5,267.0,167.0,259.0,175.0,251.5,183.0,244.0,190.0,236.0,197.0,228.5,204.0,220.5,211.0,213.0,218.5,205.0,226.5,197.0,234.5" stroke="black" stroke-width="2" fill="none" />
<polyline points="187.5,235.0,195.0,228.0,203.0,220.0,211.0,212.5,218.5,204.5,227.0,197.0,234.5,189.5,242.5,181.5,250.5,174.0,258.5,167.0,267.5,160.0,275.5,153.0,283.5,145.5,292.0,138.5,300.0,131.0,308.0,124.0,316.0,116.5,324.0,109.0,332.0,101.5" stroke="black" stroke-width="2" fill="none" />
<polyline points="331.5,105.0,339.0,105.0,350.0,104.0,358.0,103.5,365.5,104.0,366.5,98.0,374.0,105.0,382.0,99.0,390.0,99.0,399.5,104.0,413.5,109.0,419.5,102.0,423.5,105.0,431.5,101.0,439.5,94.0,448.0,89.0,456.0,84.0,462.0,78.0" stroke="black" stroke-width="2" fill="none" />
<polyline points="436.5,121.5,444.5,117.0,444.5,122.0,444.5,131.0,438.5,141.5" stroke="black" stroke-width="2" fill="none" />
<polyline points="434.0,136.5,426.0,137.5" stroke="black" stroke-width="2" fill="none" />
<polyline points="421.0,144.0,429.0,144.0,436.5,143.5" stroke="black" stroke-width="2" fill="none" />
<polyline points="450.0,150.5,442.5,151.0,435.0,151.5,427.5,152.0,420.0,152.5,412.0,153.5,404.0,154.5,396.0,155.0,388.0,154.5,380.0,154.5,372.0,155.0,363.5,155.0,355.0,155.5,346.5,155.5,338.5,155.5,330.0,156.0,322.0,157.0,314.0,157.5,305.5,158.0,298.0,158.5,290.0,159.0,282.5,159.5,274.5,160.0,266.5,160.5,259.0,161.0,251.5,161.5,243.0,162.5,235.5,163.0,228.0,164.0,220.0,164.5,212.0,165.5,204.5,166.0,197.0,166.5,189.0,166.5,181.0,167.0,173.0,168.0,165.5,168.0,157.0,168.5,149.0,169.0,141.0,170.0,133.0,171.0,124.5,172.0,115.5,172.0,107.0,172.5,98.5,172.5,90.5,173.0,83.0,174.0" stroke="black" stroke-width="2" fill="none" />
<polyline points="83.5,165.5,91.5,158.0,99.0,150.5,107.0,142.5,114.5,135.0,122.5,127.0,131.0,119.5,139.5,112.0,148.0,104.5,156.5,98.0,164.5,90.5" stroke="black" stroke-width="2" fill="none" />
<polyline points="170.5,89.0,162.0,96.5,154.0,104.5,145.5,112.5,137.0,120.5,129.0,128.5,121.0,135.5,113.5,142.5,105.5,149.5,97.5,157.0,89.0,165.0" stroke="black" stroke-width="2" fill="none" />
<polyline points="84.5,165.0,92.0,165.0,100.0,165.0,108.0,164.5,116.0,163.5,124.5,163.5,132.5,163.0,140.5,163.0,149.0,162.5,158.0,162.0,166.5,161.5,174.5,160.5,182.0,160.0,189.5,159.5,197.0,158.5,204.5,158.0,212.0,157.5,220.5,157.0,228.0,156.5,235.5,156.5,243.0,156.0,251.0,155.5,259.0,154.5,267.0,153.5,275.5,153.0,284.0,152.0,291.5,152.0,299.5,151.5,307.5,151.0,316.0,150.0,324.0,149.5,332.0,149.0,339.5,149.0,347.5,148.0,355.0,147.0,363.0,146.5,371.0,146.0,379.0,146.0,387.5,145.5,396.0,145.5,404.5,144.5,412.5,144.0,420.0,143.5,428.0,143.0,436.0,142.5,444.5,141.5,452.0,141.5" stroke="black" stroke-width="2" fill="none" />
<polyline points="446.0,156.0,443.0,164.0,443.0,169.0,443.0,177.0,443.0,169.0" stroke="black" stroke-width="2" fill="none" />
<polyline points="445.5,171.0,453.0,170.0" stroke="black" stroke-width="2" fill="none" />
<polyline points="451.5,161.5,443.0,161.5" stroke="black" stroke-width="2" fill="none" />
<polyline points="434.5,161.0,426.0,161.5" stroke="black" stroke-width="2" fill="none" />
<polyline points="426.5,166.0,426.5,174.0,427.0,182.5,430.0,184.5" stroke="black" stroke-width="2" fill="none" />
<polyline points="435.0,192.5,434.0,200.5,433.0,210.5,429.0,218.0" stroke="black" stroke-width="2" fill="none" />
<polyline points="429.0,215.0,421.5,215.5,414.0,216.0,405.5,216.0,398.0,217.0,389.5,218.0,381.5,219.0,373.5,220.0,365.5,220.5,357.5,221.0,349.5,222.0,341.5,223.0,333.5,223.5,325.5,224.0,318.0,224.0,310.0,225.5,302.0,226.0,293.5,226.5,285.0,227.0,277.0,227.0,268.5,228.0,260.5,228.5,252.0,229.0,244.0,229.5,236.0,230.0,227.5,230.5,219.5,230.5,211.5,230.5,204.0,231.0,196.0,231.5,188.5,232.0,180.5,232.0,172.5,232.5,165.0,233.0,156.5,234.0,148.5,234.0,140.5,234.5,132.0,234.5,123.5,235.0,115.5,235.5,107.5,236.5,99.5,236.5,91.0,237.0,82.5,237.0" stroke="black" stroke-width="2" fill="none" />
<polyline points="84.5,233.5,92.0,234.5,100.5,236.0,108.5,237.0,116.5,238.5,124.5,239.5,132.5,240.5,138.0,246.5,146.5,238.5,154.5,237.5,159.0,240.5,165.0,239.5,173.0,240.5,180.5,241.5,188.5,242.0,196.5,243.0,204.0,244.0,212.0,245.0,220.0,246.0,226.5,238.0,231.5,233.0,239.0,238.0" stroke="black" stroke-width="2" fill="none" />
<polyline points="238.0,250.5,246.0,249.5,253.5,254.5,268.5,248.0,281.0,244.5,285.0,244.5,288.5,250.5,290.0,247.5,298.0,248.5,306.0,250.5,312.5,250.5,320.5,251.5,325.5,252.5,333.5,253.0,341.5,252.5,347.0,254.5,349.5,257.5" stroke="black" stroke-width="2" fill="none" />
<polyline points="363.0,249.5,371.0,254.5" stroke="black" stroke-width="2" fill="none" />
<polyline points="386.0,234.5,394.0,235.5" stroke="black" stroke-width="2" fill="none" />
<polyline points="396.0,251.0,396.0,259.0,396.0,266.5,387.0,270.5,392.0,274.0" stroke="black" stroke-width="2" fill="none" />
<polyline points="421.0,232.0,412.5,232.5,405.0,233.0,397.0,233.5,389.0,234.0,381.5,235.0,373.0,236.5,365.0,237.5,357.5,238.0,349.5,238.0,341.5,238.5,333.0,239.0,325.0,239.5,317.0,240.0,309.0,240.5,301.0,241.0,293.0,242.0,285.0,243.0,276.5,243.5,268.5,244.0,260.5,244.5,252.5,245.0,244.0,245.5,236.0,245.5,228.0,246.0,220.0,246.5,211.5,246.5,203.5,246.5,195.5,246.5,188.0,247.5,180.0,248.0,172.0,248.5,164.0,249.0,156.0,250.0,147.5,250.5,139.0,251.5,130.5,252.0,122.5,252.5,114.0,253.0,106.0,253.0" stroke="black" stroke-width="2" fill="none" />
<polyline points="108.0,251.0,116.0,243.0" stroke="black" stroke-width="2" fill="none" />
<polyline points="108.5,246.0,117.0,248.0,125.0,244.5,133.0,245.5,140.5,243.5,148.0,242.5" stroke="black" stroke-width="2" fill="none" />
<polyline points="146.5,241.5,154.0,234.5,161.5,228.0,169.5,220.5" stroke="black" stroke-width="2" fill="none" />
<polyline points="164.0,220.5,156.0,227.5,148.0,234.5,139.5,242.0,131.0,249.5,122.5,257.0" stroke="black" stroke-width="2" fill="none" />
<polyline points="140.5,258.0,148.5,250.5" stroke="black" stroke-width="2" fill="none" />
<polyline points="150.5,252.5,158.0,253.5,159.0,249.0" stroke="black" stroke-width="2" fill="none" />
<polyline points="155.5,251.0,148.0,258.0" stroke="black" stroke-width="2" fill="none" />
<polyline points="155.5,257.5,164.0,249.5" stroke="black" stroke-width="2" fill="none" />
<polyline points="157.5,253.0,165.5,253.0,173.5,253.0,180.5,254.0,181.0,251.0,189.0,252.0,195.0,261.0" stroke="black" stroke-width="2" fill="none" />
<polyline points="193.0,260.5,185.0,268.0" stroke="black" stroke-width="2" fill="none" />
<polyline points="178.0,267.5,185.0,260.5,193.0,253.5" stroke="black" stroke-width="2" fill="none" />
<polyline points="189.0,251.5,181.5,259.0,173.5,266.0" stroke="black" stroke-width="2" fill="none" />
<polyline points="164.0,266.5,172.0,259.0,180.0,251.5" stroke="black" stroke-width="2" fill="none" />
<polyline points="172.5,252.5,164.5,260.0" stroke="black" stroke-width="2" fill="none" />
<polyline points="172.5,238.0,180.5,231.0,188.0,224.0,196.0,216.0,204.0,208.5,211.5,201.0,219.5,193.5,228.0,186.0,236.0,178.0,243.5,170.0,251.5,162.0,260.0,154.0,267.5,146.0,275.5,139.0" stroke="black" stroke-width="2" fill="none" />
<polyline points="269.5,139.0,261.5,147.0,253.0,154.5,245.0,162.5,237.0,170.0,228.5,177.5,220.0,185.0,211.5,192.0,203.0,199.5,195.0,206.5" stroke="black" stroke-width="2" fill="none" />
<polyline points="193.5,209.5,201.5,209.0" stroke="black" stroke-width="2" fill="none" />
<polyline points="188.0,205.0,195.5,197.5,203.0,190.0,211.0,182.5,219.0,174.5,227.0,167.0,235.0,159.0,243.5,151.5,252.0,143.5,260.0,136.0,268.5,128.5,276.5,121.0,285.0,113.5,293.0,106.0,301.5,98.0" stroke="black" stroke-width="2" fill="none" />
<polyline points="309.0,97.0,301.0,105.0,293.0,113.0,285.5,121.0,277.0,129.0" stroke="black" stroke-width="2" fill="none" />
<polyline points="275.0,115.0,283.0,114.5,291.0,114.0,299.5,113.5,307.5,113.0,316.0,112.0,324.0,111.5,332.0,111.0,340.0,110.0,348.0,109.5,356.5,108.5,364.0,108.5,372.0,108.0,379.5,107.5,386.5,106.5,394.0,106.0" stroke="black" stroke-width="2" fill="none" />
<polyline points="396.0,142.0,387.5,142.5,379.0,143.5,370.5,144.0,362.5,145.0,354.5,145.5,346.5,146.0" stroke="black" stroke-width="2" fill="none" />
<polyline points="341.0,138.0,349.5,137.5,356.5,137.0,364.0,137.0,371.5,136.5,379.0,136.5,387.0,135.5,395.5,135.0,404.0,134.5" stroke="black" stroke-width="2" fill="none" />
<polyline points="412.0,146.0,418.5,137.0,413.5,145.0,418.5,157.0,416.0,165.5,419.0,175.5,414.5,183.5,418.5,190.0,412.5,197.0,411.5,205.5,409.5,213.5,405.5,221.5,404.5,229.0,404.0,237.0,405.0,237.0,411.5,232.0,417.0,222.0" stroke="black" stroke-width="2" fill="none" />
<polyline points="434.5,209.0,442.5,198.5,448.5,190.5" stroke="black" stroke-width="2" fill="none" />
<polyline points="446.0,199.5,437.5,200.0,429.5,200.0,421.5,200.5,413.5,201.0,405.5,201.5,397.5,202.5,389.0,203.0,380.5,203.0,371.5,203.0,363.5,203.0,355.5,203.5,348.0,204.5,339.5,205.0,331.5,206.5,323.0,206.5,315.0,207.5,307.0,207.5,300.0,207.5,292.5,207.5,285.0,208.0,277.0,209.0,269.5,209.5,261.5,210.5,253.0,210.5,244.0,211.0,236.5,211.5,228.5,211.5,220.0,212.0,212.0,212.0,204.0,213.0,195.5,213.0,187.0,213.5,179.0,214.0,171.5,214.5,163.5,215.0,155.5,215.5,147.5,216.0,140.0,216.5,133.0,217.5,125.5,218.5,117.5,219.0,109.5,219.5,101.5,219.5,93.5,219.5,85.0,220.0" stroke="black" stroke-width="2" fill="none" />
<polyline points="85.0,212.5,93.0,212.0,101.0,212.0,108.5,211.5,116.0,211.0,124.0,210.5,132.0,210.0,140.0,209.5,148.0,208.5,156.0,208.0,164.0,207.0,172.0,207.0,179.5,206.5,187.5,206.0,195.5,205.5,203.5,205.5,211.5,205.0,219.0,205.0,226.5,205.0,234.5,205.0,242.5,204.5,250.5,203.5,259.0,203.0,267.5,202.0,276.0,202.0,284.5,201.0,292.5,200.5,300.5,199.5,308.5,198.5,316.5,198.5,324.5,198.0,332.5,197.5,340.5,197.5,348.0,197.0,356.0,197.0,364.0,197.0,371.5,196.5,379.5,196.0,387.5,195.5,396.0,195.0,404.5,194.5,412.5,194.0,420.5,193.5,428.0,193.0,436.5,192.0,444.0,191.5" stroke="black" stroke-width="2" fill="none" />
<polyline points="433.5,195.5,446.5,191.0,441.5,199.0,432.5,206.0,424.5,210.5" stroke="black" stroke-width="2" fill="none" />
<polyline points="437.5,207.0,429.5,207.0,421.0,207.5,412.5,208.5,404.0,209.0,396.5,209.5,388.5,210.0,380.5,211.0,372.0,212.0,363.5,212.5,356.0,213.0,348.0,213.5,340.5,214.0,333.0,215.0,325.5,216.0,317.5,216.0,309.5,216.5,301.5,217.5,293.5,218.0,285.5,219.0,277.5,219.5,269.5,219.5,261.0,220.0,252.5,220.0,244.5,220.5,236.5,221.0,228.5,221.5,220.5,222.0,212.5,222.0,204.5,222.0,196.0,222.5,187.5,222.5,179.0,223.0,171.5,223.5,164.0,224.5,156.0,224.5,148.0,225.0,140.5,225.5,132.5,226.0,124.0,226.0,116.0,226.5,108.5,227.0,100.5,227.5,92.0,228.0,84.0,229.0" stroke="black" stroke-width="2" fill="none" />
<polyline points="92.5,227.5,101.0,219.5,108.5,212.0,116.5,204.5,124.5,197.5,133.0,190.5,141.5,183.5,149.0,176.5,156.0,170.0,164.5,162.5,172.5,155.0,180.5,147.0,188.5,139.0,196.0,131.5" stroke="black" stroke-width="2" fill="none" />
<polyline points="202.5,137.0,210.5,136.5,218.5,136.5,226.5,135.5,234.0,135.0,241.5,135.0,249.5,134.5,257.5,134.0" stroke="black" stroke-width="2" fill="none" />
<polyline points="258.0,130.5,266.0,129.5,274.0,130.0,281.5,130.0,289.5,131.0,297.5,132.0,305.0,133.0,313.0,133.0" stroke="black" stroke-width="2" fill="none" />
<polyline points="317.5,153.5,309.0,154.0,300.5,154.0,292.5,154.5" stroke="black" stroke-width="2" fill="none" />
<polyline points="293.5,149.5,301.5,149.5,317.5,151.5,326.0,151.5" stroke="black" stroke-width="2" fill="none" />
<polyline points="315.0,163.5,307.0,167.0,301.0,167.0,292.0,157.0,283.5,157.5" stroke="black" stroke-width="2" fill="none" />
<polyline points="284.5,157.0,276.5,157.5,268.0,158.0,260.0,158.5,252.0,159.0,243.5,159.5,235.5,159.5,227.5,159.5,220.0,160.0,212.0,160.5,204.5,161.0,196.5,161.0,188.5,161.5,181.0,162.0" stroke="black" stroke-width="2" fill="none" />
<polyline points="178.5,171.0,186.5,170.5,195.0,170.0,203.5,169.5,211.5,169.0,220.0,168.5" stroke="black" stroke-width="2" fill="none" />
<polyline points="227.0,169.0,234.5,168.0,243.0,168.0,251.0,167.5,258.5,167.5,266.0,167.0,274.5,167.0,283.0,166.5" stroke="black" stroke-width="2" fill="none" />
<polyline points="286.0,158.0,284.5,160.0,285.5,161.0,286.5,163.0,295.5,165.0,301.5,161.0,307.5,164.5,317.5,167.0,319.0,163.0,325.0,170.0,321.5,178.0,321.5,188.0" stroke="black" stroke-width="2" fill="none" />
<polyline points="292.0,175.0,283.5,175.0,275.5,175.0,267.5,175.5,260.0,176.0,252.0,176.5,244.0,176.5,236.0,176.5" stroke="black" stroke-width="2" fill="none" />
<polyline points="225.5,183.5,217.5,184.0,209.5,185.0,202.0,185.5,194.0,185.5,186.5,186.0,179.0,186.5" stroke="black" stroke-width="2" fill="none" />
<polyline points="188.0,193.5,196.5,193.5,204.0,193.0,211.5,192.5" stroke="black" stroke-width="2" fill="none" />
<polyline points="214.5,190.0,219.5,190.5,227.5,196.5" stroke="black" stroke-width="2" fill="none" />
<polyline points="224.0,209.0,231.5,212.5,240.5,216.5" stroke="black" stroke-width="2" fill="none" />
<polyline points="242.0,209.5,250.0,209.5,258.0,209.0" stroke="black" stroke-width="2" fill="none" />
<polyline points="259.0,217.5,251.0,218.0" stroke="black" stroke-width="2" fill="none" />
<polyline points="251.0,224.5,259.5,223.5" stroke="black" stroke-width="2" fill="none" />
<polyline points="263.0,230.0,270.5,224.0,279.0,225.0,287.0,226.0,296.0,227.0" stroke="black" stroke-width="2" fill="none" />
<polyline points="291.5,211.5,295.5,210.0,305.0,204.0" stroke="black" stroke-width="2" fill="none" />
<polyline points="334.0,229.5,327.5,232.5,319.5,232.0,311.5,231.0,303.5,230.5,295.0,229.0,287.0,228.5,278.5,227.5,270.5,226.5" stroke="black" stroke-width="2" fill="none" />
<polyline points="263.5,232.5,271.5,234.5,280.0,233.0" stroke="black" stroke-width="2" fill="none" />
<polyline points="259.0,266.5,251.0,274.0" stroke="black" stroke-width="2" fill="none" />
<polyline points="258.0,270.5,266.0,270.5" stroke="black" stroke-width="2" fill="none" />
<polyline points="242.5,268.5,235.0,275.5" stroke="black" stroke-width="2" fill="none" />
<polyline points="188.0,218.5,180.5,226.0,173.0,233.0,165.0,240.5" stroke="black" stroke-width="2" fill="none" />
<polyline points="157.0,241.0,165.5,233.5,174.0,226.0,181.5,218.0" stroke="black" stroke-width="2" fill="none" />
<polyline points="181.5,206.0,189.5,199.0,197.5,191.5,205.0,184.0,213.0,177.0,221.0,169.5,229.0,162.0,236.5,154.0,244.5,146.0,252.5,138.0,260.5,130.5,268.0,123.5,276.0,116.0,284.0,108.0,292.0,100.5" stroke="black" stroke-width="2" fill="none" />
<polyline points="283.5,101.5,276.0,108.5,267.5,116.0,259.5,123.0,251.5,130.0,243.5,137.5,236.0,144.5,229.0,151.0,221.5,158.5,213.0,166.0,205.0,173.5,197.0,180.5,189.0,188.5,180.5,196.5,172.0,204.0" stroke="black" stroke-width="2" fill="none" />
<polyline points="163.5,205.0,172.0,197.5,180.5,190.0,189.0,183.0,197.0,175.5,205.0,167.5,213.0,159.5,220.5,151.5,228.0,144.0,236.0,136.0,244.0,128.0,252.0,121.0,260.0,113.5,268.5,106.5,276.5,99.0" stroke="black" stroke-width="2" fill="none" />
<polyline points="268.0,98.0,259.5,106.0,251.0,114.0,243.0,122.0,234.5,129.5,226.0,137.5,218.0,144.5,210.0,151.5,202.0,159.0,194.5,166.5,186.5,174.0,178.5,181.0,170.5,188.5,162.5,196.5,155.0,204.0" stroke="black" stroke-width="2" fill="none" />
<polyline points="154.5,196.0,162.5,198.5,166.5,187.5" stroke="black" stroke-width="2" fill="none" />
<polyline points="172.0,176.0,180.0,176.0,187.5,175.5,195.5,175.0,203.5,174.5,211.5,174.5,219.5,174.0,227.0,174.0" stroke="black" stroke-width="2" fill="none" />
<polyline points="236.5,160.5,241.0,170.0,244.0,171.5,246.0,170.0" stroke="black" stroke-width="2" fill="none" />
<polyline points="245.0,146.5,252.5,146.0,260.5,145.0,268.5,144.5" stroke="black" stroke-width="2" fill="none" />
<polyline points="268.5,146.0,276.5,145.0,285.0,146.0,293.0,146.0,301.0,147.0,310.5,148.0,318.5,149.0,326.5,147.5,335.5,151.5" stroke="black" stroke-width="2" fill="none" />
<polyline points="324.0,134.5,312.5,130.0,304.0,129.0,297.0,127.0,289.0,128.0,284.5,128.0,276.5,127.0,275.5,125.5,267.0,126.5,261.0,119.5,256.5,126.5,256.0,113.5,253.0,112.5,249.0,108.0" stroke="black" stroke-width="2" fill="none" />
<polyline points="246.5,110.5,239.5,118.0" stroke="black" stroke-width="2" fill="none" />
<polyline points="235.5,121.0,227.5,121.5" stroke="black" stroke-width="2" fill="none" />
<polyline points="228.5,105.5,223.0,113.5,224.0,111.5,241.0,106.5" stroke="black" stroke-width="2" fill="none" />
<polyline points="237.5,100.0,229.0,107.5,221.0,115.0,213.0,123.0,204.5,130.5,196.0,138.5,188.0,146.0,180.5,153.5,172.5,161.0,164.0,168.5,156.0,176.0,148.5,183.0,140.5,190.0,132.5,197.0,124.5,204.5,116.5,212.0,108.5,219.0,100.0,226.5" stroke="black" stroke-width="2" fill="none" />
<polyline points="94.0,221.0,95.0,219.0,103.0,216.0,109.5,221.0" stroke="black" stroke-width="2" fill="none" />
<polyline points="114.5,226.0,123.0,218.5,131.0,211.0,139.0,204.0,147.0,196.5,155.0,189.5,163.0,182.5,171.0,175.0,179.0,167.5,187.5,160.0,195.0,152.0,202.5,144.0,210.0,136.5,217.5,129.0,225.0,121.5,233.0,114.0,241.5,106.5,249.5,99.0" stroke="black" stroke-width="2" fill="none" />
<polyline points="245.5,98.5,237.5,106.0,228.5,114.0,220.0,121.5,212.0,129.5,204.0,137.5,196.0,145.0,188.5,153.5,180.5,161.5,172.0,169.5,164.0,177.0,156.0,184.0,148.5,190.5,141.0,197.5,133.0,205.0,125.0,212.5,117.0,220.0,109.0,228.0" stroke="black" stroke-width="2" fill="none" />
<polyline points="119.5,226.0,127.0,226.0,135.0,228.0,143.0,229.0,151.0,230.0,158.5,231.0,166.5,232.0,168.5,234.0,176.5,232.5,184.0,233.5,192.0,234.5,202.0,234.5,210.0,235.0,222.5,234.0" stroke="black" stroke-width="2" fill="none" />
<polyline points="157.5,220.0,149.0,227.5,141.0,235.0" stroke="black" stroke-width="2" fill="none" />
<polyline points="133.0,234.5,141.5,227.0,149.5,219.0" stroke="black" stroke-width="2" fill="none" />
<polyline points="149.5,214.5,157.5,214.0,171.5,216.0,181.5,216.5,191.5,217.5" stroke="black" stroke-width="2" fill="none" />
<polyline points="188.0,227.5,180.5,226.0,172.5,224.0,164.5,224.0,156.5,223.0" stroke="black" stroke-width="2" fill="none" />
<polyline points="132.5,215.5,140.5,214.5,145.0,215.5,146.0,217.5,147.0,220.5,152.0,218.5,160.0,218.0,162.0,220.0,169.5,219.5,173.5,221.5,181.5,221.5,185.5,223.5,194.0,222.5" stroke="black" stroke-width="2" fill="none" />
<polyline points="140.0,252.5,132.0,260.0" stroke="black" stroke-width="2" fill="none" />
<polyline points="121.0,225.0,129.0,217.5,137.5,210.0,145.0,202.0,153.5,195.5,161.5,188.5,170.0,181.0,179.0,173.5,186.5,166.5,194.0,159.5,202.0,152.0,210.5,144.0,218.5,136.5,226.5,128.5,234.0,121.0,241.5,113.0,249.0,105.5,257.0,98.0" stroke="black" stroke-width="2" fill="none" />
<polyline points="264.5,95.5,257.0,94.5,249.5,94.0" stroke="black" stroke-width="2" fill="none" />
<polyline points="233.5,106.5,236.5,114.5,231.5,123.5,251.0,117.5" stroke="black" stroke-width="2" fill="none" />
<polyline points="258.5,127.5,250.0,128.0,242.5,129.0,235.0,129.5,227.0,130.0,219.0,130.5,211.0,131.0" stroke="black" stroke-width="2" fill="none" />
<polyline points="205.0,122.0,213.0,114.0,220.0,106.0,228.0,98.0" stroke="black" stroke-width="2" fill="none" />
<polyline points="220.5,99.0,212.5,106.5,203.5,114.0,195.5,121.5" stroke="black" stroke-width="2" fill="none" />
<polyline points="188.0,123.0,196.5,115.0,204.5,107.5,212.5,99.5,220.0,92.5" stroke="black" stroke-width="2" fill="none" />
<polyline points="214.0,89.5,206.5,97.5,198.0,105.0,189.5,113.0,180.5,120.5" stroke="black" stroke-width="2" fill="none" />
<polyline points="180.0,131.0,172.5,138.5,165.0,145.5,157.5,153.0,149.5,161.0,141.5,169.0,133.0,176.5,124.0,184.0,116.0,191.0,108.5,198.5,100.5,206.0,92.5,213.5" stroke="black" stroke-width="2" fill="none" />
<polyline points="93.5,207.5,101.5,207.0,109.0,207.0" stroke="black" stroke-width="2" fill="none" />
<polyline points="117.0,217.0,125.0,216.5" stroke="black" stroke-width="2" fill="none" />
<polyline points="131.0,191.5,123.0,192.0,115.0,192.0,106.5,192.5" stroke="black" stroke-width="2" fill="none" />
<polyline points="93.0,192.0,100.5,184.0,108.5,176.5,116.5,169.0,124.5,161.0,132.5,153.0,140.5,145.0,149.0,137.5,156.5,130.0" stroke="black" stroke-width="2" fill="none" />
<polyline points="164.5,130.5,156.5,138.0,148.0,145.5,140.0,153.0,132.0,160.5,124.5,167.5,116.0,175.5,108.0,183.5,99.5,191.5,91.5,200.0" stroke="black" stroke-width="2" fill="none" />
<polyline points="91.0,205.5,98.5,198.5,107.0,190.5,115.0,182.5,123.0,175.0,131.0,167.5,138.5,160.0,146.5,153.0,154.0,146.0,162.0,139.0,170.0,131.0" stroke="black" stroke-width="2" fill="none" />
<polyline points="170.0,121.0,178.0,113.0,185.5,105.5,192.5,98.5,200.5,91.5" stroke="black" stroke-width="2" fill="none" />
<polyline points="195.5,90.5,188.0,98.0,180.0,106.0,172.5,113.0,165.0,120.5" stroke="black" stroke-width="2" fill="none" />
<polyline points="155.5,120.5,163.5,113.5,171.5,106.5,180.0,99.0,188.5,92.0" stroke="black" stroke-width="2" fill="none" />
<polyline points="192.5,103.5,193.5,111.5,195.5,112.5" stroke="black" stroke-width="2" fill="none" />
<polyline points="191.0,114.0,184.0,112.5,182.0,113.0,180.5,105.0,172.0,103.0,163.0,104.0,155.5,104.0,156.5,103.0,148.5,101.0" stroke="black" stroke-width="2" fill="none" />
<polyline points="145.5,104.0,146.0,112.0" stroke="black" stroke-width="2" fill="none" />
<polyline points="153.5,110.0,154.0,102.0" stroke="black" stroke-width="2" fill="none" />
<polyline points="164.5,111.0,164.5,103.0,170.5,102.0" stroke="black" stroke-width="2" fill="none" />
<polyline points="172.0,101.5,173.0,109.5" stroke="black" stroke-width="2" fill="none" />
<polyline points="175.0,113.0,175.0,105.0" stroke="black" stroke-width="2" fill="none" />
<polyline points="180.0,105.5,187.5,104.5,195.0,104.0,203.5,103.5,212.0,103.5,220.5,103.0,228.5,103.0,236.5,103.0,244.5,102.5,252.5,102.0,260.5,101.5,268.5,101.0,277.0,101.0,285.5,100.5,293.5,100.5" stroke="black" stroke-width="2" fill="none" />
<polyline points="290.5,111.5,286.5,119.5,291.0,121.0,299.5,116.0" stroke="black" stroke-width="2" fill="none" />
<polyline points="297.5,120.5,303.0,112.5" stroke="black" stroke-width="2" fill="none" />
<polyline points="324.5,114.5,322.5,122.5" stroke="black" stroke-width="2" fill="none" />
<polyline points="334.0,124.5,335.0,116.5" stroke="black" stroke-width="2" fill="none" />
<polyline points="345.5,79.5,353.5,77.5,361.0,78.5,369.0,79.0,377.5,79.0" stroke="black" stroke-width="2" fill="none" />
<polyline points="350.0,101.0,342.0,101.0,333.5,102.5,325.5,101.5,317.5,101.5,312.5,96.0,304.0,99.0,300.5,97.5,292.5,98.0,284.5,98.0,283.0,96.0,278.0,96.0,269.5,95.0,265.5,97.5,254.5,96.5,242.0,96.0,234.5,96.0,225.0,91.0,217.0,92.0,209.0,91.0,207.0,94.0" stroke="black" stroke-width="2" fill="none" />
<polyline points="210.5,105.0,213.5,113.0" stroke="black" stroke-width="2" fill="none" />
<polyline points="205.5,124.5,198.0,123.5,189.5,123.5,181.5,122.5,173.5,121.5,165.0,121.0,157.0,120.0,149.0,120.0,141.0,119.0,133.0,120.5" stroke="black" stroke-width="2" fill="none" />
<polyline points="125.0,123.0,126.0,124.0,127.0,124.5,135.0,128.5,142.5,127.5,146.0,129.5,154.0,129.0,155.0,131.0,162.5,130.5,170.5,130.0,174.0,132.0,181.5,132.0,190.0,133.0,198.0,132.0,207.0,128.0" stroke="black" stroke-width="2" fill="none" />
<polyline points="187.5,130.5,180.0,138.0,172.0,146.0,164.5,154.0,157.0,161.5,149.0,169.0,140.5,177.0,132.5,184.5,124.5,192.5,116.0,200.5,108.0,208.0,100.0,215.5,92.5,222.5" stroke="black" stroke-width="2" fill="none" />
<polyline points="84.5,206.5,92.0,205.5,100.0,205.0,108.5,203.5,116.5,202.5,124.5,201.5,132.0,201.0,140.5,201.0,148.5,200.5,156.5,200.0,164.5,199.5,173.0,199.0,181.0,199.0,188.5,199.0,196.0,198.5,203.5,198.5,211.5,198.5,219.0,198.0,227.0,198.0,234.5,197.5,243.0,197.0,251.0,196.5,259.0,196.0,267.5,195.5,275.5,195.0,284.0,194.0,292.0,193.5,300.0,193.0,308.0,192.0,316.0,191.5,324.5,190.5,332.0,190.5,340.0,190.0,347.5,189.5,354.5,188.5,362.0,188.0,370.0,188.0,378.0,188.0,385.5,187.5,393.5,187.0,401.5,186.5,409.5,186.0,418.0,184.5,426.5,183.5,435.5,182.5,444.0,182.0,452.5,181.5" stroke="black" stroke-width="2" fill="none" />
<polyline points="434.0,127.0,426.0,128.0" stroke="black" stroke-width="2" fill="none" />
<polyline points="429.5,127.5,430.5,120.0" stroke="black" stroke-width="2" fill="none" />
<polyline points="429.0,117.0,419.0,125.0,425.0,130.5,412.5,138.5,412.5,143.0,418.5,136.5,423.0,126.5" stroke="black" stroke-width="2" fill="none" />
<polyline points="451.0,173.0,443.0,173.5,434.5,174.0,426.5,175.0,418.0,176.0,410.0,177.0,402.0,177.0,394.5,177.5,386.5,178.0,378.5,178.5,370.5,178.5,362.5,179.0,354.5,180.0,346.5,181.0,338.5,181.5,330.0,182.0,322.5,182.0,314.0,183.0,306.5,183.5,298.5,184.5,290.5,185.0,283.0,186.0,275.0,186.5,266.0,187.5,257.5,188.5,249.5,189.0,241.0,190.0,233.5,190.0,226.0,190.5,218.5,191.0,210.5,190.5,203.0,191.0,195.5,191.0,188.0,190.5,180.5,190.5,173.0,191.5,165.0,191.5,157.0,192.5,149.0,193.5,141.5,194.5,133.5,195.0,125.5,195.5,117.0,196.0,108.5,196.5,100.5,197.0,92.0,197.5,83.5,198.0" stroke="black" stroke-width="2" fill="none" />
<polyline points="91.5,193.0,99.5,193.0" stroke="black" stroke-width="2" fill="none" />
<polyline points="98.5,186.0,90.5,187.0" stroke="black" stroke-width="2" fill="none" />
<polyline points="92.0,183.0,99.5,176.0,107.0,168.5,115.5,161.0,123.5,153.5,132.0,146.5,139.0,139.5,147.0,132.0" stroke="black" stroke-width="2" fill="none" />
<polyline points="140.5,134.0,133.0,134.5,124.5,134.5,116.5,134.0,108.5,134.5" stroke="black" stroke-width="2" fill="none" />
<polyline points="124.0,128.0,115.5,128.5,107.0,129.0,98.5,129.0,90.5,129.5" stroke="black" stroke-width="2" fill="none" />
<polyline points="92.5,121.5,100.5,121.0,108.5,120.5,116.5,120.0,124.0,119.5" stroke="black" stroke-width="2" fill="none" />
<polyline points="115.5,112.0,107.5,112.5,99.5,113.0,91.5,113.5" stroke="black" stroke-width="2" fill="none" />
<polyline points="83.0,114.0,91.0,106.0,99.0,98.5,107.0,91.0" stroke="black" stroke-width="2" fill="none" />
<polyline points="122.5,98.0,118.5,105.0,122.5,115.5,130.0,116.5,138.0,114.5,149.0,117.5,158.5,118.5,166.5,119.0,174.5,118.0,186.0,120.5,194.0,120.5,202.0,119.5" stroke="black" stroke-width="2" fill="none" />
<polyline points="205.0,122.0,200.0,115.0,189.0,119.0,180.5,118.0,172.5,120.0,167.5,114.0,159.5,117.0,158.0,112.0,150.0,115.5,142.0,114.5,134.5,116.0,131.0,110.0,128.0,104.5,135.0,102.5,130.5,98.5" stroke="black" stroke-width="2" fill="none" />
<polyline points="140.0,100.5,137.0,108.0" stroke="black" stroke-width="2" fill="none" />
<polyline points="134.5,134.0,136.0,132.0,144.0,132.0,152.0,133.0,160.5,134.0,168.5,134.0,177.0,135.5,185.0,135.5,193.0,137.0" stroke="black" stroke-width="2" fill="none" />
<polyline points="188.0,146.5,196.0,146.0,204.0,145.5,212.0,145.0,220.0,144.0" stroke="black" stroke-width="2" fill="none" />
<polyline points="222.0,144.0,230.0,143.0" stroke="black" stroke-width="2" fill="none" />
<polyline points="228.5,146.5,236.5,146.5" stroke="black" stroke-width="2" fill="none" />
<polyline points="258.5,130.0,262.0,138.0,265.0,139.0,270.0,140.5,278.0,140.0,286.0,140.0,293.5,142.0,300.5,143.5,309.0,143.5,314.5,144.5,323.0,145.5,331.0,145.5,339.0,146.5,346.5,144.5" stroke="black" stroke-width="2" fill="none" />
<polyline points="283.0,150.0,275.5,150.5,267.5,151.0,259.5,151.5,251.5,151.5,243.5,151.5,236.0,151.0,228.0,151.0,220.5,151.5,212.5,152.0,204.5,152.5,197.0,153.5,189.5,154.0" stroke="black" stroke-width="2" fill="none" />
<polyline points="182.0,151.5,174.0,154.5" stroke="black" stroke-width="2" fill="none" />
<polyline points="188.0,139.0,176.5,146.0,168.0,146.0,163.0,154.0,158.0,147.0,155.5,145.0,147.5,145.0" stroke="black" stroke-width="2" fill="none" />
<polyline points="164.5,92.0,156.5,92.5,148.0,92.5,140.0,93.0,132.0,93.5,124.0,94.0,116.5,95.5,109.0,96.5,101.5,97.5,94.0,98.5,86.0,98.5" stroke="black" stroke-width="2" fill="none" />
<polyline points="83.5,105.0,91.5,104.5" stroke="black" stroke-width="2" fill="none" />
<polyline points="76.0,90.0,84.0,83.0" stroke="black" stroke-width="2" fill="none" />
<polyline points="77.5,85.0,69.5,92.5" stroke="black" stroke-width="2" fill="none" />
<polyline points="68.0,90.0,76.0,89.0" stroke="black" stroke-width="2" fill="none" />
<polyline points="67.5,86.5,75.5,85.5,83.5,85.0,91.5,84.5,99.0,83.5,106.5,83.0,115.5,82.5,124.0,82.0,132.5,81.0,141.5,80.5,149.5,80.0,157.5,79.5,165.5,79.0,173.0,78.5,180.5,77.5,188.5,77.0,196.0,77.5,203.5,77.0,211.5,77.0,219.0,77.0,227.0,77.0,235.0,76.5,243.0,76.0,251.0,75.5,258.5,75.0,266.0,74.0,274.5,73.5,282.5,72.5" stroke="black" stroke-width="2" fill="none" />
<polyline points="293.0,54.0,285.5,54.5,277.5,55.5,269.0,55.5,260.0,56.0,252.5,56.5,244.5,56.5,236.0,57.0,228.0,57.0,220.0,58.0,211.5,58.0,203.0,58.5,195.0,59.0,187.5,59.5,179.5,60.0" stroke="black" stroke-width="2" fill="none" />
<polyline points="181.0,76.0,173.0,76.0,164.5,76.5" stroke="black" stroke-width="2" fill="none" />
<polyline points="132.5,69.5,140.5,69.0,149.0,69.0,156.5,69.0,164.0,68.5,171.5,68.0,179.5,67.0,188.0,67.0,196.0,66.0,203.5,65.0,211.5,64.5,219.5,64.0" stroke="black" stroke-width="2" fill="none" />
<polyline points="217.5,86.0,209.5,86.0,201.5,91.0,193.5,89.5,185.0,89.5,177.0,88.0,168.0,82.0,160.5,85.0,152.5,84.0,147.5,88.5,146.5,85.5,138.0,84.5,130.0,84.5,121.5,84.5,114.0,77.5,106.0,78.0,98.0,81.0,90.0,79.0,82.0,81.5,74.0,82.5,65.5,82.5" stroke="black" stroke-width="2" fill="none" />
<polyline points="65.0,81.5,72.5,78.5,80.5,79.0,88.0,76.5,96.0,74.5,108.0,81.0,116.0,82.0,123.5,82.0,131.5,79.5,139.5,79.5,150.0,84.0,157.5,80.5,162.5,82.5,171.5,84.0,176.5,86.0,179.0,86.0,187.5,86.5,195.5,87.5,203.0,81.5,211.5,88.0,219.5,86.0,224.5,86.0,230.5,92.5,238.0,90.5,241.0,93.0,249.0,92.0,250.5,89.0,255.0,88.5,258.0,91.0,269.0,88.0,276.5,88.0,282.5,89.0,291.0,89.5,299.0,90.5,307.5,90.5,315.5,90.5,323.5,91.5,331.5,91.5,339.0,92.5,347.5,92.5,355.5,92.5,363.5,93.5,371.5,93.5,379.5,95.0,387.5,95.0,395.5,95.0,403.5,96.0,411.0,97.0,421.0,92.0,432.5,85.0,442.5,79.0" stroke="black" stroke-width="2" fill="none" />
<polyline points="449.0,165.5,441.0,166.5,433.0,166.5,425.5,166.5,418.0,166.5,410.0,166.5,402.5,167.0,394.5,167.5,386.0,169.0,378.5,169.5,371.0,170.0,363.0,171.0,355.5,171.0,347.5,172.0,339.0,173.0,330.5,174.0,322.0,174.5,314.5,175.0,307.0,176.0,299.5,176.5,291.5,177.5,283.5,178.5,275.0,179.0,266.0,180.0,257.5,180.0,249.0,180.0,241.5,180.5,233.0,181.0,225.5,181.5,218.0,182.0,211.0,182.5,203.5,182.5,196.0,183.0,189.0,183.5,181.0,184.0,173.0,185.0,165.0,185.5,157.0,186.0,148.5,185.5,141.0,185.0,133.0,185.5,125.5,185.5,117.5,186.0,109.5,186.5,101.0,187.0,92.0,188.0,84.0,188.5" stroke="black" stroke-width="2" fill="none" />
<polyline points="61.0,80.5,69.0,75.0,77.5,73.5,85.5,72.5,93.5,70.5,101.5,69.5,109.5,69.0,117.0,68.0,125.0,66.0,133.0,65.5,141.0,64.0,149.0,62.0,156.5,61.5,164.5,60.5,172.0,58.5,180.0,57.5,188.0,55.5,196.0,55.0,204.0,55.0,212.5,56.5,220.5,56.5,228.5,56.0,236.5,57.0,245.0,56.5,253.0,57.0,261.0,58.0,269.5,58.0,277.5,58.0,285.5,59.0,293.5,59.5,301.5,59.5,309.5,60.5,317.5,60.5,325.5,60.5,334.0,61.5,342.0,61.5,350.0,61.5,358.0,62.5,365.5,62.5,373.5,62.0,381.5,63.0,389.5,63.0,398.0,63.0,406.0,64.0,414.0,64.0,422.0,65.5,429.5,65.5,437.5,65.5,445.5,67.0,454.0,67.0,462.0,67.0,469.5,72.0,463.5,78.0,453.5,85.5,446.5,86.5,436.5,92.0,444.5,87.0,437.5,96.0,425.0,105.0,413.5,113.0,408.0,116.0,407.0,123.5,404.0,131.5,402.5,140.0,406.5,148.0,408.5,151.5,408.5,159.0,412.5,159.0,413.5,167.5,412.0,174.5,412.0,179.5,412.0,185.5,412.0,191.0,414.5,193.0,417.5,201.5,415.5,211.5,421.5,219.5,416.5,226.0,409.5,234.0,406.5,241.0,403.0,248.0,401.0,256.0,399.0,264.5,401.0,269.0" stroke="black" stroke-width="2" fill="none" />
<polyline points="362.0,232.0,359.0,239.0,360.0,231.0" stroke="black" stroke-width="2" fill="none" />
<polyline points="369.5,211.0,374.5,223.0,369.5,224.5,371.0,223.5,375.0,227.0,376.0,215.0,376.5,213.0,385.0,210.5,396.0,212.0" stroke="black" stroke-width="2" fill="none" />
<polyline points="278.5,119.5,280.0,111.5" stroke="black" stroke-width="2" fill="none" />
<polyline points="271.5,109.0,265.5,117.0,267.5,119.5" stroke="black" stroke-width="2" fill="none" />
<polyline points="204.0,113.5,201.5,112.5,200.5,104.5" stroke="black" stroke-width="2" fill="none" />
<polyline points="157.5,70.0,149.5,70.5,141.5,71.0,133.5,71.5,125.0,72.5,115.5,73.5,106.5,74.0,98.5,74.5,90.5,75.5,82.5,75.5,74.0,75.5,66.0,76.5" stroke="black" stroke-width="2" fill="none" />
<polyline points="74.0,74.5,61.0,82.5,66.0,90.5,73.0,98.5,74.0,106.0,79.5,114.0,81.0,122.0,81.5,130.0,83.0,138.0,83.5,146.0,83.5,154.0,83.5,162.0,83.5,169.5,84.0,177.5,84.0,185.5,84.5,193.5,84.5,202.0,83.0,210.0,84.0,218.5,85.0,227.0,82.0,235.0,80.0,243.0,86.0,242.0,91.0,246.0,94.5,247.0,100.0,248.0,108.5,244.5,108.5,242.5,117.5,243.0,124.0,248.0,132.0,251.0,134.5,249.0,142.5,249.0,146.5,252.5,149.0,247.0,152.5,242.0,157.5,244.5,165.5,246.5,173.5,247.5,176.0,242.0,183.0,247.0,191.0,248.0,199.0,250.0,207.5,250.0,215.5,252.0,223.0,253.0,231.0,254.0,239.0,254.5,244.0,251.5,252.0,250.0,260.0,251.0,268.0,252.5,272.0,244.5,275.0,248.0,280.0,254.5,288.0,255.5,296.0,251.5,301.5,257.5,304.5,252.5,310.5,258.5,309.0,266.5,316.5,267.0,319.0,269.0,328.5,267.5,333.5,256.0,339.5,261.5,347.5,263.0,355.5,262.0,361.0,264.5,366.5,256.5,377.5,250.0,385.5,256.0" stroke="black" stroke-width="2" fill="none" />
<polyline points="143.5,82.5,136.0,82.5,128.0,81.5" stroke="black" stroke-width="2" fill="none" />
<polyline points="2.5,1.0,10.5,1.5,19.0,1.5,27.0,2.0,35.0,2.5,42.5,3.0,51.0,3.0,59.0,3.5,67.0,3.5,74.5,4.0,82.5,4.0,90.5,4.0,98.5,4.0,106.5,4.0,114.0,4.0,122.0,3.5,130.0,3.5,137.5,3.5,145.5,3.5,153.5,3.5,161.5,3.5,169.5,3.5,177.5,3.5,185.5,3.0,194.0,3.0,202.0,3.0,210.5,3.0,218.5,3.0,226.5,3.0,234.0,2.5,242.0,2.5,250.0,3.0,258.5,3.0,266.5,3.0,274.0,3.0,282.5,3.0,290.5,2.5,298.5,2.5,307.0,2.0,315.5,2.0,324.0,2.0,332.0,2.0,339.5,2.0,347.5,2.5,355.0,2.5,362.5,2.5,370.5,3.0,378.0,3.5,386.0,3.5,394.0,3.5,402.0,3.5,410.0,3.5,418.0,3.0,426.5,2.5,434.5,2.5,442.5,2.0,450.5,2.0,458.0,2.0,466.0,2.0,474.0,1.5,482.5,2.0,490.0,1.5,498.0,2.0,506.0,2.0,513.0,4.0,513.5,12.0,513.5,20.0,513.0,28.0,513.0,36.0,513.0,44.5,513.0,52.5,513.5,60.5,513.5,68.5,513.5,77.0,513.0,85.0,513.0,93.0,513.5,101.0,513.5,109.5,513.5,117.5,513.5,125.0,513.5,133.0,514.0,141.0,514.0,149.0,513.5,157.0,513.5,165.0,513.0,173.0,512.5,181.0,512.5,189.5,512.5,197.5,512.5,205.5,512.5,213.5,512.5,221.5,512.5,229.5,512.5,237.5,512.5,245.5,512.5,253.5,512.5,261.0,512.5,269.0,512.5,276.5,512.5,285.0,512.5,293.0,512.5,301.0,512.5,309.0,512.5,317.5,512.5,325.5,512.5,333.5,513.0,342.0" stroke="black" stroke-width="2" fill="none" />
</svg>