<svg xmlns="http://www.w3.org/2000/svg" version="1.1"><path d="M74.0,74.5,63.0,82.5,69.0,90.5,75.0,99.0,77.5,107.0,81.5,115.0,82.0,123.0,81.0,131.0,81.5,139.5,81.5,147.5,81.5,156.0,81.5,163.5,81.5,171.0,82.5,178.5,82.5,186.0,84.0,194.0,84.0,201.5,83.0,209.5,84.0,217.5,84.5,225.5,81.5,234.0,80.5,241.5,85.5,244.5,93.5,245.5,101.0,246.5,109.0,245.0,117.0,247.5,125.5,248.5,133.5,248.0,141.0,250.0,149.0,251.5,157.0,252.5,165.0,253.0,173.0,254.0,181.0,256.0,189.0,257.5,197.0,259.0,205.0,262.0,213.0,263.0,221.0,264.0,229.0,265.0,237.0,265.0,245.0,267.0,252.5,269.0,260.5,268.0,262.0,270.5,270.0,269.0,273.0,271.5,281.5,271.0,289.5,271.0,298.0,272.0,306.0,273.0,314.5,274.0,322.5,275.5,330.5,277.0,338.5,279.0,346.5,278.5,354.5,279.5,362.5,281.0,370.5,282.0,378.5,284.0,386.5,283.0" stroke="black" stroke-width="2" fill="none" />
<path d="M386.5,283.5,379.5,291.0" stroke="black" stroke-width="2" fill="none" />
<path d="M378.5,283.5,371.0,290.5" stroke="black" stroke-width="2" fill="none" />
<path d="M364.0,290.0,372.0,282.0,380.0,274.5" stroke="black" stroke-width="2" fill="none" />
<path d="M387.0,264.5,395.5,257.0,403.5,249.0,411.5,241.5,419.5,233.5" stroke="black" stroke-width="2" fill="none" />
<path d="M414.5,227.0,405.5,234.5,397.0,242.0,388.5,249.0,380.5,257.0,372.0,264.5" stroke="black" stroke-width="2" fill="none" />
<path d="M364.5,265.0,372.0,257.0,379.5,250.0,387.0,242.0,395.0,234.0,402.5,226.0" stroke="black" stroke-width="2" fill="none" />
<path d="M406.0,219.5,416.0,207.5" stroke="black" stroke-width="2" fill="none" />
<path d="M419.5,216.0,427.5,208.5,435.5,201.0,444.0,193.5,452.0,186.0" stroke="black" stroke-width="2" fill="none" />
<path d="M451.0,179.0,443.0,186.0,435.0,194.0,427.0,202.0,419.0,210.0" stroke="black" stroke-width="2" fill="none" />
<path d="M426.5,225.0,418.0,225.5,410.0,226.0,402.5,226.5,395.0,227.5,387.0,228.0,379.0,228.5,371.0,229.0,363.5,229.0,355.0,229.5,346.5,230.0,338.5,230.0,331.0,230.5,323.5,231.5,315.5,232.0,307.5,233.0,300.0,233.5,292.0,234.0,284.0,233.5,276.0,233.5,268.0,234.0,259.5,234.5,251.5,235.0,244.0,235.5,236.0,236.0,228.0,237.0,219.5,237.5,212.0,238.5,203.5,239.0,195.0,239.0,186.5,239.5,178.5,239.5,171.0,240.0,163.0,240.5,155.5,241.0,147.5,242.0,139.5,242.0,131.5,243.0,123.5,243.5,115.0,244.0,106.5,244.5,98.5,244.5" stroke="black" stroke-width="2" fill="none" />
<path d="M109.0,250.5,117.5,242.5" stroke="black" stroke-width="2" fill="none" />
<path d="M113.0,241.5,121.5,243.5,129.5,245.0,138.0,246.0,146.0,247.5,154.5,248.5,163.0,250.0,177.0,252.5,185.0,253.5,193.5,254.5,201.5,255.5,209.5,256.5,217.0,257.5,225.0,258.0,232.5,260.0,240.0,260.0,249.0,261.5,257.0,263.5,265.0,260.5,272.5,261.5,280.0,262.5,288.0,263.0,296.5,264.5,304.5,264.5,313.0,266.5,316.5,270.5,324.5,267.5,332.5,267.5" stroke="black" stroke-width="2" fill="none" />
<path d="M333.0,261.0,340.5,254.5,348.5,247.0,356.5,239.5,364.5,232.0,373.0,224.0,380.5,216.5,388.5,209.5,396.5,202.0,404.0,195.0,411.5,187.5,419.0,180.0,427.0,172.5,434.5,164.5,441.5,156.5,449.5,148.5" stroke="black" stroke-width="2" fill="none" />
<path d="M452.0,156.0,444.0,163.0,436.0,170.5,428.5,178.5,421.0,186.5,413.0,194.0,405.5,201.5,397.0,209.0,389.0,217.0,381.0,224.5,373.0,232.0,365.0,239.5,356.5,246.5,348.0,254.0,339.5,261.0" stroke="black" stroke-width="2" fill="none" />
<path d="M348.0,262.0,356.5,254.0,364.5,246.5,372.5,239.0,381.0,232.0,389.5,224.0,397.5,216.0,405.0,208.5,413.0,201.5,420.5,193.0,428.5,185.0,436.0,178.0,443.5,171.0,451.0,164.0" stroke="black" stroke-width="2" fill="none" />
<path d="M452.5,169.5,444.0,170.0" stroke="black" stroke-width="2" fill="none" />
<path d="M450.0,171.5,443.0,179.0,435.5,186.5,427.5,194.5,419.0,203.0,410.5,211.0,403.0,218.5,395.5,225.5,387.5,233.5,379.5,241.0,371.5,248.5,363.0,256.0,355.0,263.0" stroke="black" stroke-width="2" fill="none" />
<path d="M365.0,270.5,373.0,272.0,380.5,273.0,388.5,274.0" stroke="black" stroke-width="2" fill="none" />
<path d="M387.0,275.5,395.5,267.5,403.5,260.0" stroke="black" stroke-width="2" fill="none" />
<path d="M403.5,267.5,396.0,268.0,388.5,269.0,380.5,270.0,373.0,271.0,364.5,271.5,356.5,272.5,348.5,273.0,340.5,273.5,332.5,273.5,324.0,274.0,315.5,275.0,307.5,276.0,299.0,277.0,291.0,277.5,283.0,277.5,274.5,277.5,266.0,278.0,258.0,278.0" stroke="black" stroke-width="2" fill="none" />
<path d="M260.0,277.0,268.0,269.5" stroke="black" stroke-width="2" fill="none" />
<path d="M267.5,275.5,276.0,268.0" stroke="black" stroke-width="2" fill="none" />
<path d="M282.5,267.5,274.5,274.5" stroke="black" stroke-width="2" fill="none" />
<path d="M284.0,282.0,292.0,274.5,299.5,267.0" stroke="black" stroke-width="2" fill="none" />
<path d="M308.5,265.5,300.0,273.0,291.5,280.5" stroke="black" stroke-width="2" fill="none" />
<path d="M295.5,278.0,302.5,286.0,309.0,291.5,317.0,293.0,325.0,294.0,333.0,294.5,341.0,295.5,348.5,295.5,356.5,287.5" stroke="black" stroke-width="2" fill="none" />
<path d="M356.0,288.5,364.0,288.5,372.5,288.0,380.5,288.0" stroke="black" stroke-width="2" fill="none" />
<path d="M397.0,280.0,389.5,280.0,381.5,280.5,373.0,281.5,364.5,282.5,356.0,283.5,347.5,284.0,339.5,284.5,331.0,285.5,322.5,286.0" stroke="black" stroke-width="2" fill="none" />
<path d="M323.5,281.5,331.5,274.0" stroke="black" stroke-width="2" fill="none" />
<path d="M325.5,276.5,317.0,283.5" stroke="black" stroke-width="2" fill="none" />
<path d="M314.0,278.0,305.5,285.0" stroke="black" stroke-width="2" fill="none" />
<path d="M298.5,283.0,307.0,276.0,315.0,268.5" stroke="black" stroke-width="2" fill="none" />
<path d="M324.5,260.0,332.5,252.0,340.0,244.0,348.0,236.5,356.0,229.0,364.5,221.0,372.5,213.5,380.5,206.5,388.5,199.5,396.0,192.5,403.0,185.0,410.5,178.0,419.0,170.0,427.0,162.5,435.0,154.5,443.0,147.0,451.5,139.5" stroke="black" stroke-width="2" fill="none" />
<path d="M451.5,129.5,443.5,137.0,435.5,144.5,427.5,152.0,419.5,159.5,411.0,167.0,403.0,174.0,395.0,181.5,387.0,189.0,380.0,197.0,372.5,205.0,364.0,212.0,355.5,219.5,347.5,227.5,339.5,235.5,331.5,244.0,323.5,251.5" stroke="black" stroke-width="2" fill="none" />
<path d="M316.0,250.5,323.5,243.5,331.0,236.0,339.0,227.5,347.0,219.5,355.0,211.5,362.5,204.5,370.5,197.0,378.5,189.5,387.5,182.0,395.5,174.0,403.0,166.5,411.0,159.5,419.0,152.0,427.0,145.0,435.5,137.5,443.5,130.5,452.0,123.5" stroke="black" stroke-width="2" fill="none" />
<path d="M451.0,115.5,443.0,123.0,435.0,131.0,427.0,138.5,419.5,145.5,411.0,153.0,403.0,160.0,394.0,167.5,385.5,175.0,377.0,182.0,369.0,189.5,361.0,197.0,352.5,204.5,345.0,211.5,337.5,219.0,330.5,226.5,323.0,234.5,315.0,242.5,307.5,250.5" stroke="black" stroke-width="2" fill="none" />
<path d="M301.0,249.0,309.0,241.5,316.5,233.5,323.0,225.5,330.5,218.0,338.0,210.5,346.0,203.5,354.0,196.0,362.0,188.5,370.0,181.0,378.0,173.5,386.0,166.0,394.5,158.5,403.5,150.5,412.5,143.0,420.5,136.0,427.5,129.0,435.5,122.0,443.5,115.0,451.5,107.0" stroke="black" stroke-width="2" fill="none" />
<path d="M444.0,105.5,452.0,98.0" stroke="black" stroke-width="2" fill="none" />
<path d="M450.0,103.0,448.0,109.5,444.0,121.5,442.0,126.5" stroke="black" stroke-width="2" fill="none" />
<path d="M444.0,131.5,452.0,131.0" stroke="black" stroke-width="2" fill="none" />
<path d="M435.0,137.5,427.0,138.0" stroke="black" stroke-width="2" fill="none" />
<path d="M425.5,129.5,434.0,129.0" stroke="black" stroke-width="2" fill="none" />
<path d="M437.0,130.5,438.0,122.5,444.5,115.0,437.0,120.5" stroke="black" stroke-width="2" fill="none" />
<path d="M436.0,117.0,428.0,124.0,420.0,131.0,412.0,138.0,404.0,145.5,396.5,153.0,388.5,160.0,381.0,167.0,373.5,174.0,365.5,181.0,357.0,188.5,349.0,196.0,340.5,203.5,332.0,211.5,324.0,219.5" stroke="black" stroke-width="2" fill="none" />
<path d="M323.0,210.5,331.5,210.0" stroke="black" stroke-width="2" fill="none" />
<path d="M332.5,203.5,325.0,204.0" stroke="black" stroke-width="2" fill="none" />
<path d="M314.5,191.5,322.5,191.5,330.5,191.5,339.0,191.5" stroke="black" stroke-width="2" fill="none" />
<path d="M349.0,203.0,356.5,202.0" stroke="black" stroke-width="2" fill="none" />
<path d="M373.0,195.0,381.0,194.5" stroke="black" stroke-width="2" fill="none" />
<path d="M393.0,188.5,392.0,184.5,386.0,182.0" stroke="black" stroke-width="2" fill="none" />
<path d="M387.0,181.5,395.0,185.5" stroke="black" stroke-width="2" fill="none" />
<path d="M396.5,169.5,388.0,170.0" stroke="black" stroke-width="2" fill="none" />
<path d="M373.0,176.5,365.5,177.0" stroke="black" stroke-width="2" fill="none" />
<path d="M349.0,147.5,357.0,147.0,364.5,146.5,372.0,145.5,379.5,144.5,388.0,144.0,396.0,143.0" stroke="black" stroke-width="2" fill="none" />
<path d="M401.5,133.5,393.5,134.0,385.5,134.0,377.5,134.0,369.5,134.0,361.5,134.5,353.5,135.0,345.5,135.5,337.5,136.0" stroke="black" stroke-width="2" fill="none" />
<path d="M339.5,152.5,348.0,152.0,356.0,151.5,364.0,151.5,372.0,152.0,380.0,151.5" stroke="black" stroke-width="2" fill="none" />
<path d="M371.0,158.0,363.0,159.0,355.0,159.5,346.5,160.5,338.5,161.0,330.5,162.0" stroke="black" stroke-width="2" fill="none" />
<path d="M325.5,169.0,333.5,169.0,341.0,169.0,349.0,168.5,357.0,168.5,364.5,168.0,372.5,167.5" stroke="black" stroke-width="2" fill="none" />
<path d="M357.0,184.0,349.0,184.5,340.5,185.0,332.5,185.5,324.0,186.0" stroke="black" stroke-width="2" fill="none" />
<path d="M315.5,176.0,323.0,176.0,331.0,175.5,339.0,175.5,347.0,175.0,355.5,175.0" stroke="black" stroke-width="2" fill="none" />
<path d="M364.5,121.0,372.0,120.5,380.5,120.0,389.0,119.5,397.5,119.0,405.0,118.5,413.5,117.5" stroke="black" stroke-width="2" fill="none" />
<path d="M419.5,121.5,427.5,114.5,435.5,107.5,443.0,99.5" stroke="black" stroke-width="2" fill="none" />
<path d="M457.5,100.0,456.5,108.0,457.0,116.0,456.0,124.5,456.0,132.5,456.0,140.5,454.5,148.0,454.5,156.5,454.0,164.5,452.5,172.0,451.5,180.0,451.5,188.0,451.0,195.5,446.0,203.5,438.5,211.0,432.5,219.0,433.5,216.5,442.0,208.0,449.5,199.0" stroke="black" stroke-width="2" fill="none" />
<path d="M450.0,202.0,449.0,210.5,447.0,218.5,441.0,227.0,435.5,234.5,430.5,243.0,424.0,251.0,418.0,259.0,411.5,267.0,406.0,275.0,399.0,283.0,392.0,291.5" stroke="black" stroke-width="2" fill="none" />
<path d="M393.5,268.0,385.0,267.0,376.5,266.0,368.5,265.0,360.0,264.0,351.5,263.5,351.0,255.5,352.0,255.5,344.0,255.5,335.5,254.0,327.5,254.0,319.5,252.0,312.0,251.0,304.0,250.0,296.0,249.0,288.5,248.0,280.5,248.0,272.5,246.0,264.5,245.0,256.5,243.5,248.5,240.0" stroke="black" stroke-width="2" fill="none" />
<path d="M251.5,240.0,259.0,232.5,267.0,225.5,275.5,218.0,284.0,211.5,291.5,204.0,298.5,196.0,306.5,188.5,314.5,181.5,323.0,174.5,331.0,167.0,339.5,159.5,347.5,152.0,355.5,144.0,363.5,136.5,371.0,128.0,379.0,120.5,387.0,113.0,395.0,105.5,403.5,97.5" stroke="black" stroke-width="2" fill="none" />
<path d="M395.5,100.0,387.5,107.5,380.0,114.5,372.0,122.0,364.0,129.5,356.5,137.5,348.0,144.5,340.0,151.5,331.5,158.5,323.5,166.0,315.5,173.0,307.5,180.5,300.0,188.0,292.0,195.5,283.0,203.5,275.0,211.0,266.5,218.0,259.0,225.0,251.0,232.5,242.5,241.0" stroke="black" stroke-width="2" fill="none" />
<path d="M234.0,241.5,242.5,234.5,250.5,227.0,258.5,219.5,267.0,211.5,275.0,204.0,283.0,196.5,291.5,189.0,300.5,180.5,309.0,173.0,317.0,165.5,324.0,159.0,331.5,152.0,339.5,144.5,347.5,137.0,355.5,130.0,364.0,122.5,372.0,114.5,380.0,106.5,387.5,99.0" stroke="black" stroke-width="2" fill="none" />
<path d="M381.0,100.0,373.0,107.5,365.0,115.0,357.0,122.5,348.5,130.5,339.5,138.5,331.5,145.5,323.0,152.5,314.5,159.5,306.5,167.5,298.5,175.0,290.5,182.5,282.5,189.5,275.0,197.0,267.5,204.0,259.5,211.5,251.5,219.5,243.0,227.0,235.0,235.0,227.0,243.5" stroke="black" stroke-width="2" fill="none" />
<path d="M221.5,243.0,229.0,235.5,236.5,227.5,244.0,220.0,252.0,212.5,259.0,204.5,266.5,196.5,274.5,188.5,282.5,180.5,290.5,172.5,298.5,165.5,307.0,158.5,315.0,151.5,323.5,145.0,331.5,138.0,339.5,130.5,347.5,122.5,355.5,115.0,364.0,108.0,372.5,101.0" stroke="black" stroke-width="2" fill="none" />
<path d="M361.5,99.5,354.0,107.5,346.5,115.5,339.0,123.0,331.0,129.5,323.5,136.5,315.5,144.0,307.5,151.5,300.0,158.5,292.0,165.5,284.0,173.0,276.0,180.5,267.5,188.0,259.5,195.5,251.5,203.0,244.0,211.0,235.5,219.5,227.5,227.0,220.0,235.0" stroke="black" stroke-width="2" fill="none" />
<path d="M211.5,236.5,219.5,228.5,227.0,221.5,234.5,214.0,243.0,206.0,251.5,197.5,259.5,189.5,267.0,182.0,274.0,174.5,282.5,167.5,290.5,159.5,298.5,152.5,307.0,145.5,315.0,138.0,323.0,130.5,331.0,123.0,339.5,115.5,347.5,108.0,356.0,100.5" stroke="black" stroke-width="2" fill="none" />
<path d="M346.5,99.0,338.5,106.5,331.0,114.0,323.0,122.0,315.0,130.0,306.5,137.5,299.0,145.0,291.0,152.5,283.5,160.0,276.0,167.5,268.0,175.0,260.0,182.0,252.0,189.5,244.5,197.5,237.0,205.5,229.0,213.0,221.5,220.5,213.0,228.0,205.0,236.0" stroke="black" stroke-width="2" fill="none" />
<path d="M196.5,234.5,204.0,227.5,211.0,220.0,218.5,213.0,227.0,205.0,235.0,197.5,243.0,189.5,251.0,182.0,259.5,174.5,267.0,167.0,275.0,159.5,282.5,152.0,290.5,144.0,298.5,135.5,307.0,128.0,316.0,121.5,324.5,114.0,333.0,106.0,341.0,98.5" stroke="black" stroke-width="2" fill="none" />
<path d="M332.0,100.0,323.5,107.5,315.5,115.0,307.5,122.5,300.0,130.0,292.0,137.5,283.5,144.5,275.5,151.5,267.5,159.0,259.5,166.5,252.0,174.5,243.5,181.5,235.5,188.5,227.0,196.0,219.0,203.0,211.0,210.5,203.0,217.5,195.5,225.0,187.5,233.0" stroke="black" stroke-width="2" fill="none" />
<path d="M180.5,237.0,188.5,238.0,196.0,238.5,204.0,239.5,211.5,240.0" stroke="black" stroke-width="2" fill="none" />
<path d="M193.0,243.0,201.0,243.0,209.0,245.0,216.5,246.0,224.0,247.5,232.0,248.5,239.5,248.0" stroke="black" stroke-width="2" fill="none" />
<path d="M241.5,249.0,233.5,248.0" stroke="black" stroke-width="2" fill="none" />
<path d="M236.5,261.0,228.5,268.5" stroke="black" stroke-width="2" fill="none" />
<path d="M229.0,273.5,237.5,265.5,245.5,258.0" stroke="black" stroke-width="2" fill="none" />
<path d="M244.5,267.5,236.5,275.0" stroke="black" stroke-width="2" fill="none" />
<path d="M242.5,276.5,250.0,269.5" stroke="black" stroke-width="2" fill="none" />
<path d="M252.0,275.5,260.0,268.5" stroke="black" stroke-width="2" fill="none" />
<path d="M243.5,273.0,251.5,272.5,259.5,272.0,267.0,271.5,275.0,271.0,283.0,270.5" stroke="black" stroke-width="2" fill="none" />
<path d="M283.0,273.0,290.5,265.0" stroke="black" stroke-width="2" fill="none" />
<path d="M292.0,259.0,300.0,251.5,308.5,244.0,316.0,236.0" stroke="black" stroke-width="2" fill="none" />
<path d="M307.5,235.0,299.5,242.0,291.5,249.0" stroke="black" stroke-width="2" fill="none" />
<path d="M284.5,242.0,292.5,234.0,300.5,226.0,308.5,218.5,316.5,211.0,324.5,203.5,332.0,196.0,339.5,189.0,347.5,181.5,355.0,174.0,362.5,166.0,370.5,158.5,378.5,150.5,386.5,143.0,394.5,136.0,403.0,129.0,411.5,122.0,419.5,115.0,427.5,108.0" stroke="black" stroke-width="2" fill="none" />
<path d="M420.5,106.0,412.0,113.5,404.0,121.5,396.0,129.0,388.0,136.5,379.5,144.0,371.5,151.5,363.0,159.0,354.5,166.5,346.5,173.5,339.0,181.0,331.0,189.0,323.0,197.0,315.5,204.0,308.0,211.5,300.5,218.5,292.0,226.0,284.0,234.5,276.0,242.0" stroke="black" stroke-width="2" fill="none" />
<path d="M267.5,240.5,275.0,233.0,282.5,225.5,290.5,218.5,299.0,211.5,307.5,204.0,315.5,196.5,323.0,189.5,331.0,182.5,339.0,174.5,347.0,167.0,355.0,160.0,362.5,153.0,370.5,146.0,379.0,139.0,387.0,131.0,395.5,123.5,403.5,115.5,412.0,108.0" stroke="black" stroke-width="2" fill="none" />
<path d="M411.5,100.0,404.0,107.5,396.0,115.0,388.5,122.5,381.0,130.0,373.0,137.0,364.5,144.5,356.5,151.5,348.5,159.5,341.0,167.0,332.5,174.5,325.0,182.0,316.5,189.5,308.0,197.0,300.0,204.5,292.0,212.0,284.0,219.0,276.0,226.5,268.0,234.0,260.0,241.0" stroke="black" stroke-width="2" fill="none" />
<path d="M259.0,247.0,267.0,248.5,275.0,249.0,283.0,250.0,291.5,251.0,299.0,251.5,307.0,252.5,314.5,253.0,322.0,254.0" stroke="black" stroke-width="2" fill="none" />
<path d="M341.0,274.5,332.5,282.0" stroke="black" stroke-width="2" fill="none" />
<path d="M337.5,284.0,345.5,276.5" stroke="black" stroke-width="2" fill="none" />
<path d="M347.0,284.5,355.0,277.0" stroke="black" stroke-width="2" fill="none" />
<path d="M361.0,276.0,353.0,283.5" stroke="black" stroke-width="2" fill="none" />
<path d="M357.0,286.0,365.0,278.5,373.0,271.0,381.5,263.5,390.0,257.0,398.0,249.5,405.5,241.5,413.0,233.5,421.0,225.5,429.0,218.0,436.5,209.5,444.5,201.5,453.0,194.0" stroke="black" stroke-width="2" fill="none" />
<path d="M444.5,200.0,435.5,200.5,427.0,201.0,419.0,201.5,411.0,201.5,403.5,202.0,395.0,202.5,386.5,203.0,378.5,203.0,370.0,203.5,362.0,204.5,354.0,204.5,346.0,205.0,338.5,205.5,330.5,206.5,322.5,207.0,314.5,208.0,307.0,208.0,299.0,208.0,290.5,208.5,282.5,209.0,274.5,209.5,267.5,210.0,259.5,210.5,251.5,211.5,243.0,212.0,235.5,212.0,227.5,212.5,219.5,213.5,211.5,214.0,203.5,215.0,195.5,216.0,187.5,216.5,179.5,217.5,171.5,218.5,163.5,219.0,155.5,219.5,147.5,219.0,139.0,219.5,130.0,220.0,122.0,220.5,114.0,220.5,106.0,220.5,98.5,220.5,90.5,221.5,83.0,222.0" stroke="black" stroke-width="2" fill="none" />
<path d="M83.0,229.5,91.0,229.0,98.5,228.0,106.5,227.5,115.0,227.5,123.0,227.5,131.0,227.5,139.5,227.5,147.5,227.5,156.5,227.0,165.0,226.5,172.5,226.0,180.5,225.0,188.0,224.0,195.5,223.0,203.0,223.0,211.0,222.0,219.5,221.5,227.5,220.5,235.0,220.0,243.5,219.5,251.0,219.0,258.5,218.5,266.5,218.5,274.5,218.5,282.5,218.0,291.0,217.0,299.5,216.5,308.0,216.0,316.5,215.5,324.0,215.0,332.5,214.5,341.0,214.0,349.0,213.0,357.0,212.5,364.5,212.5,373.0,211.5,380.5,211.0,388.5,211.0,396.0,210.5,403.5,210.0,411.5,209.5,420.0,208.5,428.5,208.0,436.5,207.5" stroke="black" stroke-width="2" fill="none" />
<path d="M428.5,216.5,421.0,217.0,413.5,218.0,405.5,218.5,398.0,219.0,390.0,219.0,382.0,219.5,373.5,220.0,365.0,220.0,356.5,220.5,348.5,221.0,340.0,221.5,331.5,222.0,324.0,222.0,316.0,223.0,308.0,223.5,300.0,224.5,292.0,225.5,284.0,225.5,275.5,226.0,266.5,226.5,258.0,227.0,250.0,227.0,241.5,228.0,234.0,228.5,227.0,229.0,219.5,229.5,211.5,230.5,203.5,231.0,196.5,232.0,189.0,233.0,181.0,233.5,173.5,234.5,165.5,234.5,157.5,235.5,149.5,236.0,141.0,236.0,132.5,236.0,124.0,235.5,115.5,236.0,107.0,236.0,98.5,236.5,90.5,236.5,82.0,236.5" stroke="black" stroke-width="2" fill="none" />
<path d="M98.5,227.0,106.5,219.0,114.5,210.5,123.0,203.0,132.0,196.5,140.5,189.0,149.0,181.0,157.0,173.5,165.0,166.0,173.0,159.0,180.5,152.0,188.0,145.0,196.0,138.0,204.0,130.5,211.5,123.5,219.0,116.0,226.5,108.5,234.5,101.5" stroke="black" stroke-width="2" fill="none" />
<path d="M227.5,99.5,219.5,107.0,211.0,115.0,203.0,123.0" stroke="black" stroke-width="2" fill="none" />
<path d="M196.5,122.0,204.5,114.5,212.5,107.0,220.0,99.5" stroke="black" stroke-width="2" fill="none" />
<path d="M219.5,92.0,211.5,99.5,203.0,107.0,194.5,115.0,186.0,123.0" stroke="black" stroke-width="2" fill="none" />
<path d="M180.0,123.0,188.0,115.5,196.0,108.5,204.0,100.5,212.0,93.0" stroke="black" stroke-width="2" fill="none" />
<path d="M203.0,89.5,195.5,97.0,188.0,105.0,180.0,113.0,172.0,121.0" stroke="black" stroke-width="2" fill="none" />
<path d="M164.5,120.0,172.5,113.0,180.5,106.0,188.0,99.0,196.0,92.0" stroke="black" stroke-width="2" fill="none" />
<path d="M186.5,89.5,178.5,97.0,170.0,105.0,162.0,112.5,154.0,120.0" stroke="black" stroke-width="2" fill="none" />
<path d="M149.5,130.0,141.5,137.0,133.5,145.0,125.0,152.5,116.5,160.5,108.0,168.5,100.0,176.0,92.0,183.5" stroke="black" stroke-width="2" fill="none" />
<path d="M90.0,185.0,98.0,184.0" stroke="black" stroke-width="2" fill="none" />
<path d="M92.0,176.0,100.0,168.5,108.0,161.0,116.5,153.0,125.0,145.5,132.5,138.0,140.5,130.0,147.5,122.5,155.0,115.0,163.0,107.5,171.0,99.5,179.5,92.0" stroke="black" stroke-width="2" fill="none" />
<path d="M171.5,91.5,163.0,99.0,155.0,106.0,147.0,113.5,139.5,121.0,131.0,129.0,123.0,136.5,115.0,144.5,107.0,153.0,99.0,161.5,90.5,169.0" stroke="black" stroke-width="2" fill="none" />
<path d="M89.5,169.0,98.0,168.5,106.5,168.0,114.5,167.5,123.0,167.0,131.0,167.0,139.5,166.0,148.0,165.5" stroke="black" stroke-width="2" fill="none" />
<path d="M148.5,176.5,140.5,177.0" stroke="black" stroke-width="2" fill="none" />
<path d="M141.5,186.5,149.5,186.0" stroke="black" stroke-width="2" fill="none" />
<path d="M147.5,193.0,139.5,193.5" stroke="black" stroke-width="2" fill="none" />
<path d="M137.5,200.0,145.5,199.5,153.5,199.5,162.0,199.5,170.5,199.5,178.5,199.5,186.5,199.0,195.0,199.0,202.5,198.5,210.0,198.0,218.0,197.0,226.0,197.0" stroke="black" stroke-width="2" fill="none" />
<path d="M230.0,198.5,222.0,194.0" stroke="black" stroke-width="2" fill="none" />
<path d="M220.0,194.0,231.0,196.0,235.5,198.0" stroke="black" stroke-width="2" fill="none" />
<path d="M243.0,202.0,251.5,201.5,259.0,200.5" stroke="black" stroke-width="2" fill="none" />
<path d="M268.5,203.0,277.0,202.0" stroke="black" stroke-width="2" fill="none" />
<path d="M283.0,218.0,291.5,217.5,299.5,216.5,307.5,216.0,314.5,215.5,322.5,215.0,330.5,214.5" stroke="black" stroke-width="2" fill="none" />
<path d="M315.0,222.5,323.0,215.5,330.5,208.5,338.5,200.5,347.0,192.5,355.5,184.5,363.0,177.0,370.5,169.5,379.0,162.0,387.0,154.5,395.5,146.5,404.0,139.5,412.5,132.0" stroke="black" stroke-width="2" fill="none" />
<path d="M417.0,128.0,425.0,122.0,432.5,117.0,422.5,122.5,423.5,129.0,420.5,136.5,414.5,144.5,417.0,151.0,419.5,159.0,418.5,167.5,420.0,175.5,419.0,183.5,417.5,191.5,416.0,200.0,414.0,208.0,418.0,215.0,419.0,223.5,413.0,231.5,407.0,240.0,403.0,248.0,406.0,252.0,414.0,242.0,422.5,232.5" stroke="black" stroke-width="2" fill="none" />
<path d="M403.5,258.5,395.5,258.5,388.0,258.5,380.0,259.0,372.5,259.0,364.5,260.0,356.0,260.5,348.0,261.5,340.0,262.0,332.0,263.0,323.5,263.5,316.0,264.5,308.5,265.5,301.0,266.0,293.0,266.5,284.5,267.0,276.5,267.0,268.5,267.0,260.0,267.5,252.0,268.0,243.5,268.5,235.0,268.0,226.5,268.0,218.5,268.5,210.5,269.0" stroke="black" stroke-width="2" fill="none" />
<path d="M217.5,268.0,225.5,260.5" stroke="black" stroke-width="2" fill="none" />
<path d="M220.0,260.5,212.5,268.0" stroke="black" stroke-width="2" fill="none" />
<path d="M212.0,261.0,203.5,269.0" stroke="black" stroke-width="2" fill="none" />
<path d="M195.5,266.0,203.5,265.5,211.5,265.0,220.0,264.0" stroke="black" stroke-width="2" fill="none" />
<path d="M202.0,259.5,194.5,267.0" stroke="black" stroke-width="2" fill="none" />
<path d="M187.5,267.0,195.0,260.0" stroke="black" stroke-width="2" fill="none" />
<path d="M197.0,252.5,189.0,260.0,181.0,268.0" stroke="black" stroke-width="2" fill="none" />
<path d="M172.0,266.5,180.0,259.0,188.5,251.5" stroke="black" stroke-width="2" fill="none" />
<path d="M179.0,251.5,171.0,259.0,163.0,266.5" stroke="black" stroke-width="2" fill="none" />
<path d="M155.5,269.0,163.5,268.5,171.5,268.0,179.5,268.5,187.5,269.0,196.0,270.0,204.0,270.5,212.0,271.5,220.0,272.5,228.5,274.5,236.5,276.0,244.5,276.5,252.5,277.5,260.5,278.5,268.0,280.5,276.0,281.0,284.0,282.5,292.5,283.5,300.5,286.0" stroke="black" stroke-width="2" fill="none" />
<path d="M294.0,276.5,302.0,283.5,310.0,284.5,318.0,286.0,326.5,289.0,334.5,291.5,340.5,285.5,348.5,285.5" stroke="black" stroke-width="2" fill="none" />
<path d="M360.0,287.5,351.0,294.5,351.5,296.0,359.5,295.0,367.0,296.0,375.0,296.5,383.0,296.5,391.5,290.0,399.5,280.5,407.5,270.5,415.5,261.0,423.5,250.5,432.0,240.5,440.0,230.0,447.5,218.5" stroke="black" stroke-width="2" fill="none" />
<path d="M445.5,195.0,437.5,205.0,439.5,201.5,446.5,193.5,443.0,185.5,436.5,193.5" stroke="black" stroke-width="2" fill="none" />
<path d="M445.0,191.0,436.5,191.5,428.5,191.0,420.0,191.0,411.5,191.0,403.5,191.0,395.5,192.0,387.0,193.5,379.0,194.5,371.0,196.0,363.5,197.0,355.5,197.5,348.0,198.0,340.0,198.5,332.0,199.0,324.0,199.5,316.0,200.0,307.5,200.5,300.0,201.5,292.5,202.0,284.5,203.0,276.5,203.0,268.5,203.5,260.0,203.5,252.0,203.5,244.5,203.5,236.0,204.5,228.0,204.5,219.5,205.0,211.0,206.0,203.0,206.5,195.0,207.0,187.0,207.5,179.0,208.0,171.5,209.0,164.0,209.5,156.0,209.5,148.0,209.5,140.5,210.0,132.5,210.5,124.5,210.5,116.5,211.5,108.0,212.0,99.5,212.0,91.5,212.0,83.0,212.5" stroke="black" stroke-width="2" fill="none" />
<path d="M84.5,207.5,92.5,206.5,101.0,206.5,109.5,206.0,117.5,205.0,125.5,204.5,133.5,203.5,141.5,202.5,149.0,201.5,157.0,200.0,165.0,199.5,173.5,199.0,181.5,199.0,189.0,198.5,197.0,197.5,205.0,197.5,212.5,197.0,221.0,197.0,229.0,197.0,237.5,197.0,245.5,196.5,253.5,196.0,261.5,195.5,270.0,195.0,277.5,195.0,286.0,195.0,293.5,194.5,301.0,194.5,308.5,194.0,316.0,193.0,324.0,192.5,332.0,192.0,339.5,191.0,347.5,190.0,356.0,189.0,363.5,187.5,371.5,186.5,379.0,186.0,387.0,185.0,395.5,184.5,403.5,184.0,411.5,184.0,420.0,184.0,428.5,183.0,437.0,182.0,445.0,181.5,453.0,181.5" stroke="black" stroke-width="2" fill="none" />
<path d="M450.5,161.5,442.5,162.0" stroke="black" stroke-width="2" fill="none" />
<path d="M446.5,159.5,445.0,167.5,445.0,175.5,440.5,180.0,439.5,187.0,436.5,195.0,435.0,203.0,434.0,211.0,430.0,219.0,427.0,227.0,419.5,235.0,413.5,243.0,406.5,251.5,402.5,260.0,401.5,267.5" stroke="black" stroke-width="2" fill="none" />
<path d="M395.0,272.5,395.5,263.5,396.5,255.5" stroke="black" stroke-width="2" fill="none" />
<path d="M411.0,243.5,403.5,244.0,395.5,244.5,388.0,245.0,380.0,245.5,372.0,246.0,364.0,246.5,356.0,247.0,347.5,248.0,339.5,248.5,332.0,249.5,324.5,250.5,317.0,251.5,309.0,253.0,301.5,253.5,293.5,254.0,285.5,253.5,277.5,253.5,269.0,254.0,260.5,255.0,252.5,255.0,244.5,255.5,236.5,256.0,229.0,257.0,220.5,258.0,213.0,259.0,204.5,259.5,196.0,259.5,188.0,259.5,180.0,259.5,172.0,260.0,164.0,260.0,156.5,260.0,149.0,260.5,140.5,260.5" stroke="black" stroke-width="2" fill="none" />
<path d="M139.0,259.0,147.0,252.0" stroke="black" stroke-width="2" fill="none" />
<path d="M141.0,252.0,132.5,259.5" stroke="black" stroke-width="2" fill="none" />
<path d="M125.0,256.0,133.0,249.0,141.0,242.0,148.5,235.0,156.5,227.5,164.5,220.5" stroke="black" stroke-width="2" fill="none" />
<path d="M171.5,218.0,163.5,226.0,156.0,234.0,148.5,241.0" stroke="black" stroke-width="2" fill="none" />
<path d="M156.5,242.5,165.0,235.0,173.5,228.0,181.5,220.5" stroke="black" stroke-width="2" fill="none" />
<path d="M190.0,222.0,181.5,229.0,173.0,236.0,164.5,243.0" stroke="black" stroke-width="2" fill="none" />
<path d="M165.0,250.5,156.5,258.0" stroke="black" stroke-width="2" fill="none" />
<path d="M156.0,251.0,148.5,259.0" stroke="black" stroke-width="2" fill="none" />
<path d="M141.0,258.0,149.0,257.0,157.5,258.0" stroke="black" stroke-width="2" fill="none" />
<path d="M163.5,257.0,171.5,249.0" stroke="black" stroke-width="2" fill="none" />
<path d="M178.0,233.0,186.5,225.5,195.5,217.5,204.5,210.0,212.5,203.0,219.5,196.0,227.5,189.0,235.5,182.0,243.5,174.0,251.5,167.0,260.0,159.0,268.0,151.5,275.5,143.5,283.5,136.0,291.5,129.0,299.5,122.0,307.5,115.0,315.5,108.5,323.5,101.5" stroke="black" stroke-width="2" fill="none" />
<path d="M317.0,98.5,308.5,106.0,300.5,113.5,292.5,121.5,285.0,129.5" stroke="black" stroke-width="2" fill="none" />
<path d="M284.5,129.5,292.0,129.5,300.0,129.5,308.5,129.5,316.5,129.0,324.5,129.0,332.5,128.0,340.0,127.5,347.5,126.5,356.0,126.0,364.0,125.5,372.0,125.0,380.0,124.5,388.0,124.0,395.5,123.5,403.5,123.0" stroke="black" stroke-width="2" fill="none" />
<path d="M395.5,105.5,388.0,107.0,379.5,108.0,371.5,109.0,364.0,110.0,356.0,110.5,348.0,111.0,340.5,112.0,333.0,112.5,325.5,112.5,318.0,113.0,309.5,113.0,302.0,113.0,293.5,113.5,285.5,114.0,277.5,114.5" stroke="black" stroke-width="2" fill="none" />
<path d="M275.5,128.5,283.5,121.0,291.0,113.0,299.0,105.5,307.0,98.0" stroke="black" stroke-width="2" fill="none" />
<path d="M300.0,97.0,292.0,105.0,284.0,113.0,275.5,121.0,267.0,128.5,259.0,136.5,251.0,144.0,243.0,152.0,235.0,159.5,227.5,167.0,220.0,175.0,211.5,182.5,203.5,190.5,195.0,198.0,187.0,206.0" stroke="black" stroke-width="2" fill="none" />
<path d="M179.5,204.5,187.0,198.0,195.0,190.5,203.5,182.5,211.5,175.0,219.5,167.0,227.5,159.5,235.5,152.0,243.5,144.5,251.0,136.5,259.0,129.0,266.5,121.5,274.5,113.5,282.0,105.0,290.0,97.5" stroke="black" stroke-width="2" fill="none" />
<path d="M283.5,101.0,275.5,107.5,267.5,114.5,259.0,121.5,251.0,128.5,242.5,135.0,235.0,142.5,227.0,150.0,219.0,157.5,211.0,165.5,203.5,172.5,195.0,180.5,187.0,188.0,179.0,195.5,171.0,203.0" stroke="black" stroke-width="2" fill="none" />
<path d="M163.5,205.0,172.0,197.5,180.0,189.5,188.0,181.5,195.5,174.0,203.5,166.5,212.0,159.5,220.0,152.0,228.0,145.5,236.0,138.5,244.5,131.0,253.0,123.0,261.0,115.0,268.5,107.0,277.0,99.0" stroke="black" stroke-width="2" fill="none" />
<path d="M270.0,97.5,262.0,105.0,253.5,112.5,245.5,120.0,237.5,127.5,229.0,135.5,221.0,143.5,213.0,151.5,205.0,159.5,197.0,167.5,189.0,175.0,181.0,182.5,173.0,190.0,165.0,197.5,156.5,205.5" stroke="black" stroke-width="2" fill="none" />
<path d="M163.5,197.5,159.0,197.5,151.0,195.5" stroke="black" stroke-width="2" fill="none" />
<path d="M139.5,206.0,129.5,214.0,134.5,210.0,142.0,209.5,150.0,210.5,158.5,212.0,166.5,213.0,174.5,213.0,182.5,214.0,190.5,215.0,198.5,220.0" stroke="black" stroke-width="2" fill="none" />
<path d="M202.5,217.0,211.0,216.5" stroke="black" stroke-width="2" fill="none" />
<path d="M202.5,223.5,210.5,222.5,218.5,222.0,226.5,221.0" stroke="black" stroke-width="2" fill="none" />
<path d="M244.0,209.0,252.5,209.0,260.5,208.0" stroke="black" stroke-width="2" fill="none" />
<path d="M260.5,216.5,253.0,217.0" stroke="black" stroke-width="2" fill="none" />
<path d="M253.5,226.0,261.5,225.5" stroke="black" stroke-width="2" fill="none" />
<path d="M265.5,231.5,273.5,233.5,281.5,234.5,289.5,235.5,297.5,236.0,305.0,237.0,313.0,237.5,321.0,238.5,329.0,240.5,337.0,240.5" stroke="black" stroke-width="2" fill="none" />
<path d="M386.5,235.5,394.0,236.5,394.0,238.5" stroke="black" stroke-width="2" fill="none" />
<path d="M420.5,235.0,412.5,235.0,404.5,235.0,397.0,235.5,388.5,235.5,380.5,235.5,373.0,235.5,364.5,235.5,356.0,236.0,348.0,236.0,340.0,236.5,332.0,237.0,324.0,237.5,316.0,238.0,308.5,238.5,300.5,239.5,292.5,240.5,285.0,241.5,277.0,242.5,269.5,243.0,261.0,243.5,252.5,244.0,244.0,244.5,235.5,245.5,227.0,246.5,219.0,247.0,211.5,248.0,203.0,248.5,194.5,249.5,186.5,250.0,179.0,250.5,171.0,251.0,163.0,251.5,155.5,252.0,148.0,252.0,140.0,252.5,132.0,253.5,124.5,253.5,116.5,253.5,108.0,253.5" stroke="black" stroke-width="2" fill="none" />
<path d="M115.0,258.5,122.5,251.0,130.5,243.0" stroke="black" stroke-width="2" fill="none" />
<path d="M124.5,244.0,116.0,251.5" stroke="black" stroke-width="2" fill="none" />
<path d="M112.0,242.0,119.5,240.0,127.5,241.0,135.5,242.0,143.5,244.0,152.0,245.5,160.0,245.5,168.0,248.0,177.0,249.5,185.5,250.0,194.0,251.5,202.0,252.5,209.5,253.0,217.5,254.0,225.0,254.5,233.0,255.5,241.0,256.5,249.0,258.5,257.0,259.0,268.0,264.0,276.0,265.0" stroke="black" stroke-width="2" fill="none" />
<path d="M260.5,233.5,252.5,234.5" stroke="black" stroke-width="2" fill="none" />
<path d="M271.5,226.0,269.5,225.5,265.0,228.5,273.0,223.0,280.5,224.5,288.5,226.5,296.0,226.5,304.0,227.5,312.5,228.0,320.5,229.0,329.0,231.0,336.5,232.0" stroke="black" stroke-width="2" fill="none" />
<path d="M306.5,175.5,298.5,176.0" stroke="black" stroke-width="2" fill="none" />
<path d="M298.0,185.0,289.5,186.0" stroke="black" stroke-width="2" fill="none" />
<path d="M274.0,193.0,265.5,193.0,257.5,193.0,249.0,193.5" stroke="black" stroke-width="2" fill="none" />
<path d="M244.0,184.0,252.0,184.0,260.0,183.5,268.0,183.5,277.0,183.5,285.5,183.5" stroke="black" stroke-width="2" fill="none" />
<path d="M292.0,173.0,284.0,174.0,276.5,174.5,267.5,175.5,259.5,176.5,251.0,177.5,242.0,178.0,234.0,178.5" stroke="black" stroke-width="2" fill="none" />
<path d="M226.5,171.0,234.5,170.5,242.5,169.5,251.0,168.5,259.5,168.0,267.5,167.0,276.5,166.0,285.0,165.5" stroke="black" stroke-width="2" fill="none" />
<path d="M284.0,159.0,292.0,166.0,300.0,167.5,308.0,169.0,316.0,169.0,324.0,166.0" stroke="black" stroke-width="2" fill="none" />
<path d="M314.5,152.5,306.5,152.5,299.0,153.0,291.5,153.5" stroke="black" stroke-width="2" fill="none" />
<path d="M284.5,158.0,284.5,158.0,288.5,165.5" stroke="black" stroke-width="2" fill="none" />
<path d="M277.0,139.0,269.0,146.5,260.5,154.5,252.5,162.0,244.5,170.0,236.5,178.0,228.0,185.5,219.5,193.0,211.0,200.5,203.0,207.5,194.5,214.5,187.5,222.0,180.0,229.5,172.0,237.0" stroke="black" stroke-width="2" fill="none" />
<path d="M187.5,234.5,179.5,233.5,171.0,235.5,163.0,233.0,155.0,234.5" stroke="black" stroke-width="2" fill="none" />
<path d="M141.0,234.5,148.5,226.5,156.0,219.0" stroke="black" stroke-width="2" fill="none" />
<path d="M148.0,217.0,140.0,225.0,132.5,232.5" stroke="black" stroke-width="2" fill="none" />
<path d="M124.5,226.0,131.5,218.5,139.5,211.5,147.0,204.5,154.5,197.0,162.0,190.0,169.0,182.5,177.0,175.0,185.5,167.5,194.0,160.5,202.5,153.0,210.5,145.5,219.0,138.0,227.0,130.5,235.0,123.5,243.0,116.5,250.5,109.0,258.5,102.0" stroke="black" stroke-width="2" fill="none" />
<path d="M252.5,100.5,244.5,107.5,237.0,115.0,228.5,122.5,220.0,130.0,211.5,137.5,203.0,145.5,195.5,153.0,187.0,160.5,179.0,168.0,171.0,176.0,163.0,183.5,155.5,190.5,147.5,197.5,140.5,205.5,132.5,213.0,124.0,220.0,115.5,227.0" stroke="black" stroke-width="2" fill="none" />
<path d="M118.0,225.5,125.5,226.0" stroke="black" stroke-width="2" fill="none" />
<path d="M124.5,217.5,116.5,218.0" stroke="black" stroke-width="2" fill="none" />
<path d="M116.0,211.0,124.0,210.0,132.0,209.5" stroke="black" stroke-width="2" fill="none" />
<path d="M131.0,217.0,139.5,218.0,147.5,218.5,155.5,220.5,163.5,222.0,172.0,223.0,180.0,224.0,188.0,224.5,196.0,225.5" stroke="black" stroke-width="2" fill="none" />
<path d="M196.5,209.5,204.0,209.5" stroke="black" stroke-width="2" fill="none" />
<path d="M196.0,206.0,204.0,198.5,212.0,191.5,220.0,184.0,228.5,176.5,237.0,169.0,244.5,161.5,252.5,154.0,260.5,147.0,268.5,139.5" stroke="black" stroke-width="2" fill="none" />
<path d="M270.0,143.0,278.5,143.5,286.5,144.5,294.5,144.5,302.5,145.5,310.0,146.5,318.0,148.0,325.5,147.0" stroke="black" stroke-width="2" fill="none" />
<path d="M267.5,144.0,259.0,145.0,251.5,145.5,243.5,146.5" stroke="black" stroke-width="2" fill="none" />
<path d="M259.0,134.5,251.5,135.0,244.0,135.0,235.5,135.5,227.0,135.5,219.0,135.5,211.0,136.0,203.0,136.0" stroke="black" stroke-width="2" fill="none" />
<path d="M197.0,133.0,189.0,140.5,180.0,148.0,172.0,155.0,164.0,162.0,155.5,169.0,147.5,176.0,139.5,183.0,131.0,190.5,123.5,198.5,115.5,206.0,108.0,213.5,100.0,221.0,92.5,228.5" stroke="black" stroke-width="2" fill="none" />
<path d="M107.0,227.5,115.0,220.0,122.5,212.5,131.0,205.0,139.0,197.0,147.0,189.0,154.5,181.5,162.5,174.0,170.5,166.5,179.0,159.0,187.5,152.0,195.5,144.0,203.5,136.0,211.5,128.5,219.5,121.0,228.0,114.0,236.5,107.0,245.0,100.0" stroke="black" stroke-width="2" fill="none" />
<path d="M253.5,95.0,262.0,95.0,269.5,96.0" stroke="black" stroke-width="2" fill="none" />
<path d="M260.0,126.0,251.5,126.5,244.0,127.5,235.5,128.0,227.0,128.0,218.5,128.5,210.5,128.5" stroke="black" stroke-width="2" fill="none" />
<path d="M225.0,122.0,233.0,121.5" stroke="black" stroke-width="2" fill="none" />
<path d="M218.0,144.5,210.5,144.5,203.0,145.0,195.5,145.5,188.0,146.5" stroke="black" stroke-width="2" fill="none" />
<path d="M187.0,152.0,195.0,151.5,203.0,151.0,211.5,151.0,219.5,151.0,228.0,150.5,236.5,150.5,245.0,150.5,253.0,149.5,261.5,148.5,269.5,148.0,277.5,148.0,285.0,148.0" stroke="black" stroke-width="2" fill="none" />
<path d="M282.5,155.5,274.0,156.0,266.0,156.0,257.5,157.0,250.0,157.5,243.0,158.0,235.5,158.5,227.5,159.5,219.5,160.0,212.5,161.0,205.0,162.0,197.0,162.5,189.5,163.5,181.5,163.5" stroke="black" stroke-width="2" fill="none" />
<path d="M180.0,172.0,188.0,171.5,196.0,170.5,203.5,169.5,211.5,169.0,219.5,168.0" stroke="black" stroke-width="2" fill="none" />
<path d="M211.5,191.5,203.5,192.0,195.5,192.0,187.0,192.5" stroke="black" stroke-width="2" fill="none" />
<path d="M179.0,187.0,187.0,186.0,195.0,185.5,202.5,184.5,210.0,183.5,218.5,182.5,226.0,181.5" stroke="black" stroke-width="2" fill="none" />
<path d="M227.5,174.0,219.0,175.0,211.0,175.5,203.0,176.0,195.0,176.5,187.0,177.0,179.5,178.0,172.0,178.5" stroke="black" stroke-width="2" fill="none" />
<path d="M170.5,153.5,176.5,154.5,185.0,150.0,187.0,148.0" stroke="black" stroke-width="2" fill="none" />
<path d="M188.0,132.0,179.5,139.5,171.0,147.0,162.5,154.5,154.5,162.0,146.5,169.5,138.0,176.5,130.0,184.0,122.5,191.5,114.5,199.0,106.5,206.5,98.5,213.5,91.0,221.0" stroke="black" stroke-width="2" fill="none" />
<path d="M92.5,214.0,101.0,206.0,109.0,198.5,117.0,191.0,125.0,184.0,133.0,176.5,140.5,169.0,148.5,161.5,156.5,154.0,164.0,146.5,171.5,139.5,179.5,132.0" stroke="black" stroke-width="2" fill="none" />
<path d="M172.0,130.5,164.0,138.0,155.5,145.5,147.5,153.0,139.0,160.5,130.5,168.5,123.0,176.5,115.5,184.0,107.5,192.0,99.5,199.5,92.0,207.5" stroke="black" stroke-width="2" fill="none" />
<path d="M89.0,210.5,97.0,210.0,105.0,208.5" stroke="black" stroke-width="2" fill="none" />
<path d="M117.0,203.0,125.0,203.0,133.0,202.0" stroke="black" stroke-width="2" fill="none" />
<path d="M132.0,193.0,124.0,193.5,116.5,193.0,108.5,193.5" stroke="black" stroke-width="2" fill="none" />
<path d="M109.0,186.5,117.0,186.0,125.0,185.0,133.0,185.0" stroke="black" stroke-width="2" fill="none" />
<path d="M132.0,176.0,124.5,176.5,117.0,177.0,109.5,177.0" stroke="black" stroke-width="2" fill="none" />
<path d="M117.5,163.5,125.5,162.5,133.5,162.0,141.5,161.0,149.0,160.0" stroke="black" stroke-width="2" fill="none" />
<path d="M140.5,153.5,132.5,154.0,124.5,154.5,116.5,155.0" stroke="black" stroke-width="2" fill="none" />
<path d="M108.0,139.5,116.0,138.0,123.5,137.5,131.0,136.5,139.0,135.0" stroke="black" stroke-width="2" fill="none" />
<path d="M134.5,134.5,142.0,135.5,150.0,135.5,157.5,136.5,165.5,136.0,173.5,137.0,182.0,137.5,190.0,138.5" stroke="black" stroke-width="2" fill="none" />
<path d="M166.5,131.5,158.5,139.0,150.0,147.0,142.0,155.0,134.0,162.5,125.5,169.5,117.5,177.0,108.5,184.5,100.5,192.0,92.5,199.5" stroke="black" stroke-width="2" fill="none" />
<path d="M90.0,193.5,98.5,185.5,107.0,178.0,115.5,170.5,124.0,162.5,132.0,154.5,140.0,146.5,148.0,139.0,156.0,131.0" stroke="black" stroke-width="2" fill="none" />
<path d="M139.0,142.5,131.0,144.0,123.0,145.0,115.0,146.5,107.5,147.5,100.0,148.0,92.0,149.0" stroke="black" stroke-width="2" fill="none" />
<path d="M92.0,156.5,100.0,155.5" stroke="black" stroke-width="2" fill="none" />
<path d="M107.0,161.5,99.5,162.0,92.0,162.0" stroke="black" stroke-width="2" fill="none" />
<path d="M85.5,165.0,93.5,157.5,101.5,150.5,109.5,143.5,117.5,137.0,125.5,129.5,133.5,122.0,141.5,114.0,149.0,106.5,157.0,99.0,164.5,91.0" stroke="black" stroke-width="2" fill="none" />
<path d="M154.0,92.5,146.0,100.0,138.0,108.0,130.0,115.5,122.0,122.5,114.0,130.0,106.0,137.5,98.0,145.0,89.5,152.5,81.5,160.0" stroke="black" stroke-width="2" fill="none" />
<path d="M84.0,159.0,92.0,158.5,100.5,157.0,109.0,156.0,117.0,155.0,125.0,154.0,133.0,153.5,140.5,153.0,148.0,152.5,155.5,151.5,163.5,151.0,172.0,151.0,180.0,150.5,188.0,150.0,196.0,150.0,203.5,149.0,211.5,149.0,218.5,148.5,226.0,148.0,233.5,148.0,241.0,147.5,249.5,147.0,257.5,147.0,266.0,147.0,275.0,146.5,283.5,146.0,291.0,145.5,298.5,145.0,306.5,144.5,314.5,144.0,323.0,143.5,330.5,143.5,339.0,143.0,347.5,142.0,356.5,141.0,364.5,140.5,372.5,140.0,380.5,139.5,388.5,139.0,396.5,138.0,404.5,137.0,413.0,137.0,421.0,136.5,429.5,136.0,437.5,136.0,445.5,135.5,453.5,135.0,461.5,133.5" stroke="black" stroke-width="2" fill="none" />
<path d="M452.0,154.0,444.0,154.5" stroke="black" stroke-width="2" fill="none" />
<path d="M436.5,162.0,428.5,162.5" stroke="black" stroke-width="2" fill="none" />
<path d="M428.0,172.5,428.0,180.5,426.5,191.5,426.5,199.5,426.5,207.5,425.0,215.5,425.0,224.0" stroke="black" stroke-width="2" fill="none" />
<path d="M419.0,154.5,426.5,154.5,435.0,154.0" stroke="black" stroke-width="2" fill="none" />
<path d="M435.5,144.5,427.5,145.5,419.5,146.0" stroke="black" stroke-width="2" fill="none" />
<path d="M413.5,148.5,421.5,137.5,424.5,129.5" stroke="black" stroke-width="2" fill="none" />
<path d="M430.5,128.0,430.5,120.0" stroke="black" stroke-width="2" fill="none" />
<path d="M419.0,95.5,427.0,94.5,435.0,94.0,443.5,93.0,451.5,92.0,459.5,91.5" stroke="black" stroke-width="2" fill="none" />
<path d="M460.0,84.0,451.0,84.5,443.0,84.5,435.0,84.5,427.0,85.0" stroke="black" stroke-width="2" fill="none" />
<path d="M445.5,79.5,453.0,79.0,461.0,77.5,468.5,76.5" stroke="black" stroke-width="2" fill="none" />
<path d="M460.0,78.0,452.0,77.5,444.0,77.5,436.0,77.5,428.5,78.5,420.0,79.0,412.5,80.0,404.5,81.5,397.0,82.0,389.0,82.0,381.0,82.5,373.0,83.0,365.0,83.5,357.0,84.5,348.5,85.0,340.0,85.5,332.5,86.5,324.5,87.0,317.0,88.0,308.5,88.5,300.5,88.5,292.5,88.5,284.0,88.5,276.0,89.0,267.0,90.0,258.5,90.0,250.0,91.0,241.0,91.5,233.0,92.0,225.0,92.5,217.0,93.0,209.5,94.0,202.5,94.5,195.0,95.0,187.5,95.0,180.0,95.0,172.5,95.5,165.0,96.0,157.5,96.0,149.5,97.0,141.0,97.5,133.0,98.0,125.0,97.5,117.0,98.0,109.0,98.5,100.5,99.0,92.5,100.0,84.0,100.5,76.0,101.5" stroke="black" stroke-width="2" fill="none" />
<path d="M76.5,105.5,84.5,98.5,92.5,91.0,101.0,84.0" stroke="black" stroke-width="2" fill="none" />
<path d="M100.5,91.0,93.5,98.5,85.5,106.0" stroke="black" stroke-width="2" fill="none" />
<path d="M84.5,104.5,92.5,104.0" stroke="black" stroke-width="2" fill="none" />
<path d="M85.0,108.0,93.0,107.5,100.0,107.0,108.0,106.5,116.0,106.5,123.5,106.0,131.5,106.0,139.5,106.0,148.0,106.0,156.0,105.5,164.0,104.5,172.5,104.5,180.5,104.5,188.0,104.5,196.0,103.5,204.0,103.0,211.5,103.0,219.0,102.5,227.0,102.0,235.0,101.5,242.5,101.0,250.5,100.5,259.0,99.5,267.5,99.0,275.0,98.0,283.0,97.5,291.5,96.5,300.0,95.5,308.5,95.0,317.0,94.5,325.5,94.0,333.0,93.5,341.0,92.5,348.5,91.5,356.5,90.5,364.5,89.5,372.0,89.0,380.0,88.5,388.0,88.0,396.0,87.5,404.0,87.0,412.0,87.0,420.5,86.5,429.0,86.5,436.5,86.5,444.5,86.5,453.0,86.5,460.5,86.0" stroke="black" stroke-width="2" fill="none" />
<path d="M463.5,84.5,461.5,92.5,454.5,100.0,447.5,108.0,450.0,116.0,443.0,124.0,445.5,132.0,441.0,140.5,441.5,137.5,443.5,139.5" stroke="black" stroke-width="2" fill="none" />
<path d="M451.0,174.5,442.5,174.5,435.0,174.5,427.5,175.0,419.5,175.5,412.0,176.0,404.0,176.5,396.0,177.0,388.0,177.5,380.0,178.0,371.5,179.0,363.5,179.5,356.0,180.5,348.5,181.5,341.0,182.5,333.0,184.0,325.5,184.5,317.5,185.0,309.5,184.5,301.5,184.5,293.0,185.0,284.5,186.0,276.5,186.0,268.5,186.5,260.5,187.0,253.0,188.0,244.5,189.0,237.0,190.0,228.5,190.5,220.0,190.5,212.0,190.5,204.0,190.5,196.0,191.0,188.0,191.0,180.5,191.0,173.0,191.5,164.5,191.5,156.5,192.5,148.5,193.0,140.0,193.0,131.5,193.5,123.5,193.5,115.5,194.5,107.0,195.0,99.5,195.5,92.0,196.0,84.0,197.0" stroke="black" stroke-width="2" fill="none" />
<path d="M89.5,192.5,97.5,191.5" stroke="black" stroke-width="2" fill="none" />
<path d="M83.0,189.0,91.0,188.0,98.0,188.0,105.5,188.0,113.0,188.0,121.5,188.0,129.0,187.0,137.0,186.0,145.0,185.0,153.5,184.0,161.5,183.0,169.5,182.5,177.5,182.5,186.0,182.5,194.5,182.5,202.5,182.5,210.5,182.0,219.0,182.0,226.5,181.5,234.0,181.0,242.0,180.0,250.0,180.0,258.5,179.5,267.0,179.5,275.0,179.5,283.0,179.0,291.5,178.0,299.5,177.0,308.0,176.0,316.5,175.5,324.5,175.5,332.5,175.0,340.5,174.5,348.5,173.5,357.0,173.0,364.5,172.0,372.5,171.0,380.0,170.0,387.5,169.5,395.5,169.5,403.5,169.5,411.0,169.0,419.0,168.0,427.0,167.5,435.5,167.0,443.0,167.0,451.0,166.5" stroke="black" stroke-width="2" fill="none" />
<path d="M451.0,158.5,443.0,159.0,435.5,159.5,428.0,159.5,420.0,160.0,412.5,160.0,405.0,160.5,397.0,161.0,389.0,162.5,381.0,163.5,373.0,164.5,365.0,165.0,356.5,166.0,347.5,166.0,339.0,166.5,331.0,166.5,323.0,167.0,315.0,167.5,307.0,168.5,299.0,169.5,291.0,170.5,283.0,171.0,275.0,171.0,268.0,171.0,260.5,171.5,252.5,171.5,244.5,172.5,237.0,173.0,229.0,173.5,220.5,174.5,211.5,175.0,203.5,175.5,195.0,176.0,187.0,176.0,179.0,176.0,171.5,176.0,163.5,176.5,155.5,177.0,147.5,177.5,139.0,177.5,131.0,177.5,122.5,178.0,114.5,178.5,107.0,179.0,99.0,179.5,90.5,179.5,82.5,180.0" stroke="black" stroke-width="2" fill="none" />
<path d="M83.5,174.0,92.0,173.5,99.5,172.5,107.5,172.0,116.0,172.0,124.0,171.5,132.5,171.0,140.5,170.0,149.0,169.5,157.5,170.0,165.5,169.5,173.5,169.0,181.5,168.0,189.0,167.0,196.5,166.5,204.5,165.5,212.5,165.5,220.5,165.0,228.5,164.5,237.0,164.0,245.5,164.0,253.5,163.5,260.5,163.0,268.0,162.5,275.5,161.5,282.5,161.5,290.0,161.0,298.0,160.5,306.0,160.0,313.5,159.5,321.5,158.5,330.0,158.0,338.5,157.0,347.0,157.0,354.5,156.5,363.5,156.0,371.5,155.5,380.0,155.5,388.0,155.5,396.5,155.0,404.5,154.5,412.5,153.5,420.5,153.0,429.0,152.0,437.0,151.0,445.0,150.0,453.0,150.0" stroke="black" stroke-width="2" fill="none" />
<path d="M453.5,143.0,445.5,143.5,438.0,144.5,430.0,145.0,422.0,145.0,414.5,145.0,406.5,145.5,398.5,146.0,389.5,147.0,381.5,147.5,373.0,148.0,364.5,148.5,356.0,149.0,347.0,149.5,339.0,149.5,331.0,149.5,323.0,150.0,314.5,150.5,306.5,151.0,298.5,152.0,290.5,152.5,282.0,153.0,274.5,154.0,267.5,154.5,260.0,154.5,252.5,154.5,245.0,155.0,236.5,155.5,228.0,156.5,219.5,157.5,211.5,158.0,204.0,158.5,196.5,159.0,188.5,159.0,180.5,159.0,172.5,159.5,164.5,160.0,156.5,160.5,148.5,161.0,140.0,161.5,131.5,162.0,123.0,162.5,115.0,163.0,108.0,164.0,100.5,164.5,93.0,165.5,85.0,166.0" stroke="black" stroke-width="2" fill="none" />
<path d="M83.0,152.5,91.5,144.5,100.5,136.5,109.0,128.5,117.0,121.0,125.0,113.0,132.5,105.5,140.5,98.0,148.5,91.0" stroke="black" stroke-width="2" fill="none" />
<path d="M140.5,91.0,132.0,99.0,124.0,106.5,115.5,114.5,107.5,122.5,99.5,130.0,91.0,138.0,83.5,146.0" stroke="black" stroke-width="2" fill="none" />
<path d="M82.5,150.0,91.0,149.5,99.5,149.0,108.0,148.5,116.5,148.5,124.5,148.0,133.0,147.5,141.0,146.5,148.5,146.0,156.5,146.0,164.5,145.0,172.5,144.5,180.5,144.5,188.0,143.5,196.0,142.5,203.5,141.5,211.5,141.0,219.5,140.5,227.0,140.0,235.5,139.5,243.5,139.0,251.5,138.5,259.5,138.0,267.0,137.5,275.0,137.0,283.0,136.5,291.5,136.0,299.5,136.0,308.0,136.0,316.0,135.5,323.5,135.0,331.5,134.5,339.5,133.5,347.5,133.0,355.5,132.0,363.5,132.0,372.0,131.0,380.0,131.0,388.0,130.5,396.0,130.0,404.0,129.0,412.5,129.0,421.0,128.0,429.0,127.5,437.0,127.0,445.0,126.5,452.5,126.5,460.5,126.0" stroke="black" stroke-width="2" fill="none" />
<path d="M460.5,119.0,453.0,119.5,445.0,120.5,437.0,121.0,429.0,120.5,421.0,120.5,412.5,120.5,404.0,121.0,396.5,121.5,388.5,122.0,380.5,123.0,372.0,124.0,363.5,124.5,355.5,125.0,347.5,126.0,339.0,127.0,331.0,127.5,323.0,128.5,315.5,128.5,307.5,128.5,300.0,128.5,292.0,128.5,284.5,128.0,276.5,128.5,268.5,129.5,260.5,130.0,252.5,131.0,244.0,131.0,236.0,131.5,228.0,132.0,220.0,132.5,212.0,133.5,204.0,134.0,196.0,135.0,188.0,135.5,180.0,136.5,172.0,137.0,164.0,138.0,156.0,138.5,148.0,139.0,140.0,139.5,132.5,140.0,124.0,140.5,115.5,140.5,107.5,140.5,99.0,140.5,90.5,140.5,82.5,141.0" stroke="black" stroke-width="2" fill="none" />
<path d="M81.5,136.5,89.5,129.5,97.5,121.5,105.5,114.0,113.5,106.0,122.0,99.0,130.0,91.5" stroke="black" stroke-width="2" fill="none" />
<path d="M125.0,90.5,116.5,98.0,108.5,106.5,100.0,114.5,92.0,122.5,84.5,130.5" stroke="black" stroke-width="2" fill="none" />
<path d="M83.0,133.5,91.0,133.5,99.0,133.5,107.0,133.0,115.0,132.5,122.5,132.0,131.0,131.5,139.5,131.0,148.0,131.0,156.5,131.0,165.0,130.0,173.0,130.0,181.0,129.0,189.5,128.5,197.5,128.0,205.5,127.0,213.0,126.0,220.0,125.0,227.5,124.5,235.0,124.5,243.0,124.0,251.5,123.5,259.0,122.5,267.5,121.5,275.5,120.0,283.0,119.5,291.0,119.5,299.0,120.0,307.5,120.0,316.0,119.5,324.0,119.0,332.5,118.5,340.5,118.5,348.0,118.0,355.5,117.5,364.0,117.0,371.5,116.0,379.0,115.5,387.0,114.5,395.5,114.0,404.0,113.0,412.0,113.0,420.0,112.5,428.0,112.5,436.0,112.5,443.5,112.5,451.0,112.0,458.5,111.5" stroke="black" stroke-width="2" fill="none" />
<path d="M458.0,103.0,450.0,103.5,442.0,104.0,434.0,104.5,426.0,105.5,418.0,106.0,410.0,106.0,402.0,106.5,394.5,107.5,386.5,108.0,378.5,108.5,370.5,109.0,362.5,109.0,355.0,110.0,347.5,110.5,340.5,111.0,333.0,111.5,325.0,112.0,317.0,112.5,309.0,113.0,301.0,113.0,293.5,113.5,285.5,113.5,277.0,113.5,268.0,113.5,260.0,113.5,252.0,114.0,244.0,114.0,235.5,114.5,228.0,115.5,220.0,116.5,212.5,117.0,204.5,118.5,197.0,119.0,189.5,120.0,181.5,121.0,173.5,121.5,165.5,122.5,157.5,123.0,149.0,123.5,140.5,124.0,131.5,124.0,123.0,124.5,115.0,124.5,107.0,125.5,98.5,126.0,90.0,126.5,82.0,127.0" stroke="black" stroke-width="2" fill="none" />
<path d="M83.0,120.0,91.5,113.0,100.0,105.5,108.0,98.0,116.0,90.5" stroke="black" stroke-width="2" fill="none" />
<path d="M108.0,90.0,100.0,97.5,92.0,105.5,84.0,113.5" stroke="black" stroke-width="2" fill="none" />
<path d="M83.5,117.5,91.5,116.5,99.5,115.5,107.5,115.0,116.0,115.0,124.5,115.0,132.0,115.0,140.0,115.0,148.5,115.0,156.5,114.5,164.5,114.0,172.5,113.5,180.5,113.0,188.5,112.5,196.0,111.5,204.0,111.5,211.5,110.5,219.5,110.0,227.5,109.5,235.5,109.0,243.5,108.5,251.5,107.5,259.0,107.0,267.5,106.0,276.0,105.0,284.5,104.0,292.5,104.0,301.0,104.0,309.0,104.0,317.5,104.0,325.5,103.5,333.0,103.0,341.0,102.0,348.5,101.0,356.0,100.5,363.5,99.5,371.0,99.5,379.5,99.0,387.5,98.5,395.5,98.5,403.0,98.0,411.0,97.0,419.0,96.5,426.5,96.0,434.0,96.0,442.0,96.0,450.5,95.5,458.5,95.0" stroke="black" stroke-width="2" fill="none" />
<path d="M404.0,75.5,396.5,76.0,389.0,77.0,381.0,78.0,373.5,78.5" stroke="black" stroke-width="2" fill="none" />
<path d="M394.0,104.5,402.0,104.5,410.0,105.5,415.0,110.0,417.0,112.0,425.0,106.5,433.0,101.5,441.0,96.5,449.0,91.0,457.0,85.0,464.0,80.5" stroke="black" stroke-width="2" fill="none" />
<path d="M404.0,57.0,396.0,57.5,388.0,58.0,380.0,58.5,372.0,59.0,364.5,59.5,356.5,60.5,348.5,61.5,341.0,62.5,333.0,63.5,325.5,64.0,317.0,64.5,308.5,65.0,300.0,65.5,291.5,66.5,283.0,67.5,275.0,68.0,267.5,69.0,259.0,69.5,250.5,70.5,242.5,71.0" stroke="black" stroke-width="2" fill="none" />
<path d="M290.5,99.5,282.5,99.5,274.5,99.5,267.0,100.0,259.5,100.5,251.0,101.0,243.5,101.5,235.5,102.5,227.0,103.0,219.0,104.0,211.5,104.0,204.0,105.0,196.5,106.0,188.5,107.0,181.0,107.5" stroke="black" stroke-width="2" fill="none" />
<path d="M181.5,76.0,173.5,76.0,165.0,76.5" stroke="black" stroke-width="2" fill="none" />
<path d="M179.5,64.0,187.5,63.5,195.5,62.5,203.5,61.5,211.5,61.0,219.5,60.0,227.5,59.0,235.5,58.5,243.5,57.5,251.5,57.0,259.0,57.0,267.5,56.5,275.5,55.5,283.5,55.0,290.5,54.5" stroke="black" stroke-width="2" fill="none" />
<path d="M217.5,64.0,209.0,64.5,201.5,65.0,194.0,65.0,186.5,65.5,179.5,66.0,171.5,66.0,164.0,67.0,156.0,67.0,148.0,67.5,140.0,68.0,131.5,68.0" stroke="black" stroke-width="2" fill="none" />
<path d="M91.5,84.5,83.5,92.0,76.0,99.5" stroke="black" stroke-width="2" fill="none" />
<path d="M76.0,94.5,84.0,94.5,93.0,94.5,101.0,94.0,108.5,93.5,117.0,93.0,124.5,92.5,132.5,92.0,140.5,91.5,148.5,91.0,156.0,90.5,164.0,89.0,171.5,88.5,179.0,87.5,187.0,86.0,194.5,85.5,203.0,85.0,211.0,84.5,219.0,84.0,226.5,83.0,234.5,83.0,242.5,82.5,250.5,82.0,259.0,82.0,267.5,82.5,276.0,82.0,284.0,81.5,292.5,81.0,300.5,81.0,308.5,81.0,317.0,80.5,325.0,80.0,332.5,79.5,340.0,78.5,347.5,77.5,356.0,77.0,364.0,76.0,372.0,75.5,380.0,74.5,388.5,74.0,396.5,73.0,404.0,73.0,412.0,72.5" stroke="black" stroke-width="2" fill="none" />
<path d="M407.5,145.5,415.5,141.5,418.0,138.5,410.0,146.0,408.5,154.0,413.0,164.0" stroke="black" stroke-width="2" fill="none" />
<path d="M347.5,143.0,339.5,146.0,331.5,145.0,323.5,145.0,315.5,144.0,307.5,144.0,299.5,143.0,291.5,142.5,283.5,141.5,275.5,141.5,267.5,141.0,259.5,134.0" stroke="black" stroke-width="2" fill="none" />
<path d="M259.0,132.5,267.5,132.0,275.5,133.0,283.5,132.5,291.0,133.5,299.0,133.5,307.0,134.0,314.5,135.0,322.5,134.5,330.0,135.5" stroke="black" stroke-width="2" fill="none" />
<path d="M372.0,102.5,364.0,104.0,356.5,103.0,349.0,103.5,341.0,103.0,333.0,103.0,325.5,103.5,317.0,102.5,309.0,101.0,301.0,100.5,293.0,99.5,285.0,99.5,276.5,98.5,269.0,98.5,261.0,97.5,253.0,98.0,244.5,97.0,237.0,97.5,228.5,96.0,220.5,95.0,212.5,95.0,204.5,93.5,196.5,93.5,188.5,92.0,180.5,92.0,173.0,91.0,165.0,90.5,157.0,90.0,148.5,89.5,140.5,88.5,132.0,87.5,124.0,87.0,116.0,86.5,108.0,88.5,100.0,87.5,94.5,85.5,86.5,85.0" stroke="black" stroke-width="2" fill="none" />
<path d="M83.5,84.0,76.0,92.0" stroke="black" stroke-width="2" fill="none" />
<path d="M67.5,91.0,76.0,83.0" stroke="black" stroke-width="2" fill="none" />
<path d="M80.0,79.5,87.5,80.5,95.0,80.5,102.5,81.0,110.5,82.5,118.5,82.5,126.5,83.5,134.5,83.0,142.5,84.0,150.5,83.5,159.0,84.5,167.0,84.5,175.0,85.5,183.0,86.0" stroke="black" stroke-width="2" fill="none" />
<path d="M165.0,93.5,157.0,94.0,149.5,94.0,141.5,94.5,134.0,95.0,126.5,95.0,118.0,95.5,109.5,95.5,101.5,95.0,93.5,95.0,85.5,95.5" stroke="black" stroke-width="2" fill="none" />
<path d="M91.0,113.0,98.5,112.5,106.5,112.5,115.0,112.5" stroke="black" stroke-width="2" fill="none" />
<path d="M123.0,120.5,115.0,121.0,106.5,121.0,98.0,121.0,89.5,121.0" stroke="black" stroke-width="2" fill="none" />
<path d="M90.0,131.0,98.0,130.0,106.5,129.5,114.5,129.0,123.0,129.0" stroke="black" stroke-width="2" fill="none" />
<path d="M123.0,122.0,131.0,128.0,139.5,129.5,147.5,130.5,156.0,131.0,164.0,132.0,172.0,132.0,180.0,133.0,188.0,133.0,196.0,134.0,204.0,130.0,200.0,133.0" stroke="black" stroke-width="2" fill="none" />
<path d="M189.0,136.5,181.0,135.5,173.0,135.0,165.0,135.0,157.0,134.5,149.5,134.5,141.5,134.0,133.5,134.0" stroke="black" stroke-width="2" fill="none" />
<path d="M133.5,123.0,141.5,123.0,149.0,123.0,157.0,123.5,164.5,124.0,173.0,124.0,180.5,124.0,188.5,124.5,196.5,124.5,204.5,125.0" stroke="black" stroke-width="2" fill="none" />
<path d="M259.5,130.0,263.5,138.0" stroke="black" stroke-width="2" fill="none" />
<path d="M284.0,71.0,276.0,72.0,267.5,72.5,260.0,73.5,251.5,74.0,243.0,74.0,234.5,74.5,226.5,74.5,219.0,75.0,211.0,75.5,203.5,76.0,195.5,77.0,187.5,77.0,179.5,78.0,171.5,78.5,163.0,79.0,154.5,79.5,146.5,79.5,138.5,80.0,130.5,81.0,123.0,81.5,116.0,82.0,109.0,83.0,101.5,83.5,93.5,84.0,86.0,84.5,78.0,85.5,69.5,86.0" stroke="black" stroke-width="2" fill="none" />
<path d="M68.5,82.0,76.5,83.0,84.5,84.5,92.5,82.5,100.5,82.5,108.5,83.5,116.5,84.5,125.0,84.5,133.0,86.0,141.0,86.0,149.0,87.0,157.0,87.0,165.0,88.5,173.0,90.0,181.0,90.0,189.0,91.0,197.0,91.0,205.5,91.0,214.0,92.0,222.0,89.5,230.0,89.5,236.0,92.5,243.5,93.5,251.5,95.0,259.0,92.0,267.0,89.0,275.0,89.0,283.0,90.0,291.0,90.5,299.0,90.5,307.0,90.5,315.0,91.5,323.0,91.5,331.0,92.0,339.5,93.0,348.0,93.0,356.0,93.5,364.0,93.5,372.0,94.0,380.0,93.5,388.0,94.5,396.0,94.5,403.5,96.0,411.5,97.0" stroke="black" stroke-width="2" fill="none" />
<path d="M153.0,73.0,145.0,73.5,137.0,74.0,129.5,74.0,122.0,74.0,115.5,74.0,108.5,75.0,100.5,75.5,92.5,75.5,85.0,76.0,77.0,76.0,69.0,76.5" stroke="black" stroke-width="2" fill="none" />
<path d="M63.0,84.5,65.5,78.5,73.0,75.0,81.0,74.0,89.5,73.5,97.5,72.5,105.5,70.5,114.0,69.0,122.0,68.0,130.5,67.0,138.5,66.0,146.5,65.0,154.5,63.5,162.0,61.0,170.0,60.0,177.5,58.0,186.0,57.0,193.5,55.0,202.0,56.0,210.0,56.0,218.5,56.5,226.0,57.5,233.5,57.5,241.5,58.5,249.0,58.0,256.5,58.5,264.0,59.5,272.0,59.5,280.0,60.5,288.0,60.5,296.0,60.0,304.0,61.0,312.5,61.0,320.5,61.0,328.5,62.0,337.0,62.0,345.0,62.0,353.5,63.5,361.5,63.5,369.5,64.5,378.0,64.5,386.0,64.5,394.0,64.5,402.0,64.0,410.0,65.0,418.0,64.5,426.0,66.0,434.0,66.0,441.5,66.5,449.5,66.5,457.5,67.5,466.0,68.5,469.0,72.5,464.0,80.5,451.5,89.5,439.0,97.5,426.0,105.5,409.0,112.0,416.0,103.0,418.0,105.0,413.5,113.0,410.0,116.0,407.0,123.5,404.0,131.5,402.5,139.5,407.0,144.5,408.5,158.5,413.0,166.0,413.0,174.0,411.5,181.5,414.5,182.5,412.0,195.5,412.0,203.5,409.5,212.0,404.5,220.5,404.5,228.5,403.5,236.5,405.5,241.5,413.0,230.5,421.0,220.5" stroke="black" stroke-width="2" fill="none" />
<path d="M160.0,262.5,152.0,261.0,149.5,269.0,141.5,268.0,133.0,267.0,125.0,265.0,117.0,262.5,109.5,259.0,101.5,258.5,94.0,257.5" stroke="black" stroke-width="2" fill="none" />
<path d="M93.0,256.5,101.0,250.5,110.0,249.0" stroke="black" stroke-width="2" fill="none" />
<path d="M99.5,141.0,92.0,136.5" stroke="black" stroke-width="2" fill="none" />
</svg>