<svg xmlns="http://www.w3.org/2000/svg" version="1.1"><polyline points="273.5,89.0,278.5,97.5,281.5,105.5,271.5,116.0" stroke="black" stroke-width="2" fill="none" />
<polyline points="274.5,120.5,282.5,113.5,290.0,106.0" stroke="black" stroke-width="2" fill="none" />
<polyline points="287.0,101.0,297.0,100.0,303.0,106.0" stroke="black" stroke-width="2" fill="none" />
<polyline points="307.5,108.5,299.5,116.0,291.5,124.0" stroke="black" stroke-width="2" fill="none" />
<polyline points="282.5,124.5,290.5,117.0,298.0,110.0" stroke="black" stroke-width="2" fill="none" />
<polyline points="301.5,122.0,309.0,121.5,317.0,121.0" stroke="black" stroke-width="2" fill="none" />
<polyline points="314.5,115.5,307.0,123.0,299.5,130.5,292.0,138.0,284.5,146.0,276.5,153.0,268.5,161.0,260.5,168.0,252.0,176.0,244.0,184.0,236.5,192.0,228.0,199.0,220.0,206.5" stroke="black" stroke-width="2" fill="none" />
<polyline points="219.0,212.0,227.0,204.0,235.0,196.5,243.5,189.0,251.5,181.5,260.0,174.5,268.0,168.0,276.0,160.5,284.5,153.0,292.5,146.0,300.0,139.0,308.0,132.0,315.5,124.5,323.0,117.0" stroke="black" stroke-width="2" fill="none" />
<polyline points="326.0,122.0,318.0,130.0,310.0,138.0,302.0,145.5,294.0,153.0,286.0,160.5,278.0,168.0,269.5,175.0,261.5,182.5,253.0,190.0,244.5,197.5,236.5,205.0,228.5,213.0" stroke="black" stroke-width="2" fill="none" />
<polyline points="227.5,208.5,216.5,211.0,228.5,205.5,236.5,208.5,241.5,209.5,249.5,210.0,250.0,217.0,258.0,221.0,255.0,211.5,263.5,217.5,269.5,216.0" stroke="black" stroke-width="2" fill="none" />
<polyline points="267.0,217.5,274.5,210.5,282.5,203.0,290.5,195.0,298.5,187.5,306.5,180.5,314.5,173.5" stroke="black" stroke-width="2" fill="none" />
<polyline points="308.0,171.0,300.0,179.0,292.0,186.5" stroke="black" stroke-width="2" fill="none" />
<polyline points="283.5,188.0,275.5,195.5" stroke="black" stroke-width="2" fill="none" />
<polyline points="277.0,195.0,276.5,203.0,275.5,211.0,264.5,218.0,257.0,221.0,255.0,229.0,251.0,239.0,249.0,246.0,251.5,242.0,252.5,243.0,260.5,245.0,268.5,245.0,276.5,245.0" stroke="black" stroke-width="2" fill="none" />
<polyline points="276.5,250.5,268.0,258.5,259.5,267.0,251.0,275.0" stroke="black" stroke-width="2" fill="none" />
<polyline points="253.0,273.5,261.0,273.0" stroke="black" stroke-width="2" fill="none" />
<polyline points="260.0,273.5,268.0,266.0,275.5,259.0,283.0,251.5" stroke="black" stroke-width="2" fill="none" />
<polyline points="290.5,252.0,282.0,259.5,273.5,267.0,266.0,274.5" stroke="black" stroke-width="2" fill="none" />
<polyline points="266.0,273.5,274.5,273.0" stroke="black" stroke-width="2" fill="none" />
<polyline points="275.0,271.5,282.5,263.5,290.5,256.0,298.5,248.5,307.0,241.5,315.0,234.0,323.5,226.5,331.5,219.0" stroke="black" stroke-width="2" fill="none" />
<polyline points="333.5,217.5,326.0,218.0" stroke="black" stroke-width="2" fill="none" />
<polyline points="323.5,211.5,331.5,204.0,339.5,197.0" stroke="black" stroke-width="2" fill="none" />
<polyline points="339.0,205.0,331.0,212.5,323.0,219.5,315.5,227.0,307.5,235.0" stroke="black" stroke-width="2" fill="none" />
<polyline points="298.5,235.5,307.0,235.0,315.0,234.5,323.0,234.5,330.5,234.5,339.0,234.5" stroke="black" stroke-width="2" fill="none" />
<polyline points="332.5,229.5,324.5,236.5" stroke="black" stroke-width="2" fill="none" />
<polyline points="319.5,236.0,312.0,244.0,308.0,255.0" stroke="black" stroke-width="2" fill="none" />
<polyline points="313.0,252.5,305.0,260.0" stroke="black" stroke-width="2" fill="none" />
<polyline points="308.0,257.5,300.0,258.0,291.5,258.5" stroke="black" stroke-width="2" fill="none" />
<polyline points="291.5,260.5,283.5,261.5,275.0,262.0,266.5,263.0,258.0,263.0,250.5,263.5,242.5,264.5,235.0,265.0,227.0,266.0,219.0,266.5,211.5,267.0" stroke="black" stroke-width="2" fill="none" />
<polyline points="213.0,266.0,220.5,258.0,228.5,250.5,236.5,243.0" stroke="black" stroke-width="2" fill="none" />
<polyline points="243.5,241.0,236.0,248.5,228.5,256.5,220.5,264.0" stroke="black" stroke-width="2" fill="none" />
<polyline points="229.0,275.0,237.0,267.0,245.0,259.0,253.0,251.0,261.0,243.0" stroke="black" stroke-width="2" fill="none" />
<polyline points="266.0,244.0,258.0,251.5,250.0,259.5,242.5,267.0,235.0,274.0" stroke="black" stroke-width="2" fill="none" />
<polyline points="236.5,273.0,244.5,272.5" stroke="black" stroke-width="2" fill="none" />
<polyline points="243.5,272.5,251.5,264.5,259.0,256.5,267.0,249.0" stroke="black" stroke-width="2" fill="none" />
<polyline points="250.5,241.5,242.5,249.0,235.0,257.0,227.5,265.0" stroke="black" stroke-width="2" fill="none" />
<polyline points="235.0,277.0,243.0,276.5,251.0,276.5,259.5,276.5,268.5,276.0,276.5,275.5,285.0,275.5" stroke="black" stroke-width="2" fill="none" />
<polyline points="283.5,273.0,291.5,266.0,300.0,258.5,308.0,250.5,316.5,243.0" stroke="black" stroke-width="2" fill="none" />
<polyline points="316.5,232.5,324.0,231.5" stroke="black" stroke-width="2" fill="none" />
<polyline points="330.5,232.0,332.5,240.0" stroke="black" stroke-width="2" fill="none" />
<polyline points="331.5,223.5,323.5,224.0,315.5,224.5" stroke="black" stroke-width="2" fill="none" />
<polyline points="308.0,217.0,316.0,209.5" stroke="black" stroke-width="2" fill="none" />
<polyline points="316.0,204.0,308.0,211.5" stroke="black" stroke-width="2" fill="none" />
<polyline points="298.0,211.5,305.5,204.5,313.5,197.5" stroke="black" stroke-width="2" fill="none" />
<polyline points="309.0,195.0,301.0,203.0,292.5,210.0" stroke="black" stroke-width="2" fill="none" />
<polyline points="291.5,209.5,299.5,209.5" stroke="black" stroke-width="2" fill="none" />
<polyline points="290.5,214.0,283.0,215.0,274.5,215.5,266.5,216.5,258.5,217.0,250.5,217.0,242.5,217.5,234.5,218.0,226.0,218.5,218.0,219.0,210.0,219.5,202.0,219.5,194.0,220.5,186.5,221.5,178.5,222.0,171.0,223.0,163.5,223.5" stroke="black" stroke-width="2" fill="none" />
<polyline points="171.5,218.0,179.5,211.0,187.5,204.0,195.5,196.5" stroke="black" stroke-width="2" fill="none" />
<polyline points="195.5,193.5,187.0,194.0" stroke="black" stroke-width="2" fill="none" />
<polyline points="193.5,191.5,201.5,194.5,206.5,200.0,217.0,203.0" stroke="black" stroke-width="2" fill="none" />
<polyline points="212.0,206.0,219.5,198.5,227.0,191.0,235.0,183.5,243.5,176.0,252.0,168.5,260.5,160.5,269.0,153.0,277.5,145.0,285.5,137.5,293.5,130.0,301.5,123.0,309.5,115.5,317.5,108.0" stroke="black" stroke-width="2" fill="none" />
<polyline points="333.0,117.0,325.0,117.5,317.0,118.0,309.5,118.0,301.5,118.5,294.0,119.0,286.5,119.5,278.0,120.5,270.0,121.0,262.0,121.5,253.5,122.5,245.0,123.0,237.0,123.5,229.0,124.0,221.0,124.5,212.5,125.5,204.5,126.0" stroke="black" stroke-width="2" fill="none" />
<polyline points="205.0,123.5,213.5,122.5" stroke="black" stroke-width="2" fill="none" />
<polyline points="213.5,126.5,221.0,128.5,229.0,129.5" stroke="black" stroke-width="2" fill="none" />
<polyline points="228.0,135.5,236.0,135.0,244.0,135.0,252.5,134.5,261.0,133.5,268.5,132.5" stroke="black" stroke-width="2" fill="none" />
<polyline points="268.0,131.5,260.0,139.0,251.5,146.5,243.0,154.0,235.0,161.5,227.0,169.5,219.0,177.0" stroke="black" stroke-width="2" fill="none" />
<polyline points="214.0,172.5,222.0,165.5,228.0,180.0" stroke="black" stroke-width="2" fill="none" />
<polyline points="227.0,184.5,235.0,177.0,243.0,169.5,251.5,162.0,260.0,154.5,268.5,146.5,276.5,139.0,284.5,131.0" stroke="black" stroke-width="2" fill="none" />
<polyline points="276.0,130.0,268.0,137.5,259.5,145.5,252.0,154.0,244.0,162.0,236.5,169.5,228.5,177.5" stroke="black" stroke-width="2" fill="none" />
<polyline points="232.5,186.0,241.0,185.0,249.0,184.0" stroke="black" stroke-width="2" fill="none" />
<polyline points="242.0,179.0,250.0,178.0,258.0,177.5" stroke="black" stroke-width="2" fill="none" />
<polyline points="267.5,184.5,275.5,184.0" stroke="black" stroke-width="2" fill="none" />
<polyline points="279.0,175.5,278.0,184.0,285.0,189.0,288.0,190.0,297.0,188.0" stroke="black" stroke-width="2" fill="none" />
<polyline points="291.5,177.5,300.0,170.5,308.5,163.0" stroke="black" stroke-width="2" fill="none" />
<polyline points="314.5,171.0,305.5,171.5,297.0,172.5,289.0,173.5,281.0,174.0,273.0,175.0,265.0,176.0,256.5,177.0,248.5,177.0,241.0,177.0,233.5,177.5,226.0,178.5,218.0,179.0,210.0,179.5,202.5,179.5,195.0,180.0,187.0,180.5,179.0,181.5" stroke="black" stroke-width="2" fill="none" />
<polyline points="178.5,187.5,186.5,180.5,194.5,173.0,202.5,166.0" stroke="black" stroke-width="2" fill="none" />
<polyline points="202.5,166.5,210.5,170.0,216.5,171.5,202.0,170.5,204.0,171.5,214.0,176.0,216.0,179.5,218.0,184.5,208.5,189.0,207.5,197.0,211.5,185.5,212.5,195.0,220.0,198.0,224.5,198.0,231.5,205.5,230.5,214.0,230.0,221.0,233.0,229.5,233.0,233.0,241.0,236.0,249.5,234.0,250.5,230.0,252.0,224.0,261.0,230.0,263.0,236.0,266.0,240.5,272.5,243.5,280.5,243.0,288.5,244.0,296.5,242.5,312.0,248.5,320.0,251.5" stroke="black" stroke-width="2" fill="none" />
<polyline points="323.5,262.5,316.0,263.0,308.5,263.5,300.0,263.5,291.5,264.0,283.5,264.5,275.0,265.0,267.0,265.5,259.5,266.0,252.0,266.5,244.0,267.0,236.5,267.0,228.5,267.5,221.0,268.0,213.5,268.0,205.5,268.0,197.5,268.5" stroke="black" stroke-width="2" fill="none" />
<polyline points="205.0,265.5,212.5,258.5,220.5,251.5,228.0,244.0" stroke="black" stroke-width="2" fill="none" />
<polyline points="236.0,235.0,244.0,227.5,252.0,219.5,260.0,211.5" stroke="black" stroke-width="2" fill="none" />
<polyline points="266.0,214.0,258.0,221.5,250.5,228.0,242.5,235.0" stroke="black" stroke-width="2" fill="none" />
<polyline points="242.0,226.0,250.0,225.5" stroke="black" stroke-width="2" fill="none" />
<polyline points="250.0,218.5,242.0,219.5" stroke="black" stroke-width="2" fill="none" />
<polyline points="241.0,221.0,244.0,227.0,247.0,237.5" stroke="black" stroke-width="2" fill="none" />
<polyline points="235.5,225.5,244.0,218.0,252.5,210.5,261.0,203.5,269.0,196.0,277.0,188.0,285.5,180.5" stroke="black" stroke-width="2" fill="none" />
<polyline points="285.0,191.0,280.5,193.5,272.0,198.5,264.0,194.0,261.0,201.5,252.5,206.5,244.5,205.5" stroke="black" stroke-width="2" fill="none" />
<polyline points="244.0,202.0,237.0,210.0,227.5,215.0,223.5,217.0,227.5,217.5,234.5,218.5,242.0,212.5,250.0,215.0,254.0,211.0,262.0,211.0,270.0,211.5,283.0,212.0,288.0,202.0" stroke="black" stroke-width="2" fill="none" />
<polyline points="288.0,201.5,280.0,202.0" stroke="black" stroke-width="2" fill="none" />
<polyline points="282.5,211.5,290.0,204.0,298.0,197.0,305.5,189.5,313.0,182.0" stroke="black" stroke-width="2" fill="none" />
<polyline points="315.5,181.0,307.5,181.0,299.5,181.5,291.5,182.0,283.5,182.5,275.5,183.5,268.0,184.0,259.5,184.5,251.5,184.5,243.0,185.0,234.5,185.5,225.5,186.0,217.5,186.5,209.5,187.5,201.5,188.5,193.5,189.0,185.5,189.5,177.5,190.0" stroke="black" stroke-width="2" fill="none" />
<polyline points="179.5,189.5,175.5,197.5,175.5,202.0,172.5,210.0,167.0,218.0,168.0,216.0,173.0,201.5,182.5,194.0,194.5,189.5,203.0,190.0,209.0,191.5,215.0,186.5,219.5,184.5,220.5,187.5,229.0,190.5,232.0,186.0,237.0,193.0" stroke="black" stroke-width="2" fill="none" />
<polyline points="235.5,193.5,244.0,193.0,251.5,192.5,259.5,191.5" stroke="black" stroke-width="2" fill="none" />
<polyline points="265.5,193.0,273.5,193.0" stroke="black" stroke-width="2" fill="none" />
<polyline points="255.0,197.0,262.0,189.0,267.0,181.0,274.0,173.0" stroke="black" stroke-width="2" fill="none" />
<polyline points="260.5,167.5,252.0,168.0,244.0,168.5,236.0,169.5" stroke="black" stroke-width="2" fill="none" />
<polyline points="237.0,160.5,245.0,160.5,253.0,160.0,260.5,159.5" stroke="black" stroke-width="2" fill="none" />
<polyline points="258.0,151.5,250.0,152.5,242.0,153.0" stroke="black" stroke-width="2" fill="none" />
<polyline points="235.0,146.5,244.0,139.5,252.5,131.5,260.5,124.0,268.5,117.0,277.5,108.5,285.5,101.0" stroke="black" stroke-width="2" fill="none" />
<polyline points="284.0,108.0,275.5,115.5,267.0,123.0,259.0,131.0,251.0,138.5,242.5,147.0,235.0,154.5,226.5,162.5,218.5,170.0" stroke="black" stroke-width="2" fill="none" />
<polyline points="229.5,175.0,229.5,173.0,220.5,179.5,212.5,180.5" stroke="black" stroke-width="2" fill="none" />
<polyline points="212.0,190.5,219.5,194.0,228.0,196.0,222.0,205.5,218.5,209.5,221.0,218.5,217.0,226.5,223.0,225.0,225.0,233.0,226.0,237.0" stroke="black" stroke-width="2" fill="none" />
<polyline points="218.0,231.5,226.5,231.0,235.0,230.0,243.5,229.5,252.0,229.0,260.5,228.0" stroke="black" stroke-width="2" fill="none" />
<polyline points="264.0,231.0,267.0,222.5,273.0,220.0,262.0,222.0" stroke="black" stroke-width="2" fill="none" />
<polyline points="267.5,227.0,275.5,219.5" stroke="black" stroke-width="2" fill="none" />
<polyline points="275.5,227.5,283.5,229.5,293.5,222.5,295.0,231.0,299.0,239.0" stroke="black" stroke-width="2" fill="none" />
<polyline points="302.0,226.5,309.5,226.0,317.0,226.0,324.5,226.0,332.5,226.0,340.5,226.0" stroke="black" stroke-width="2" fill="none" />
<polyline points="341.0,218.5,333.5,219.0,325.0,220.0,316.5,221.0,308.0,221.5,300.0,221.5" stroke="black" stroke-width="2" fill="none" />
<polyline points="300.0,229.0,300.0,227.0,292.5,219.0" stroke="black" stroke-width="2" fill="none" />
<polyline points="314.5,199.5,306.5,200.0,297.5,200.0,289.5,200.0,281.5,201.0,273.5,202.0,266.0,202.5,258.5,203.0,251.0,204.0,243.0,204.5,235.0,205.5,227.0,206.5,218.5,207.0,211.0,207.5" stroke="black" stroke-width="2" fill="none" />
<polyline points="212.5,204.0,220.5,196.5" stroke="black" stroke-width="2" fill="none" />
<polyline points="237.5,200.5,245.5,200.0" stroke="black" stroke-width="2" fill="none" />
<polyline points="226.5,221.0,234.5,213.5,243.0,205.5,251.5,198.5,260.0,191.5,268.5,184.0,276.5,176.5,284.5,169.0,292.5,161.5,301.0,154.0,309.5,146.5" stroke="black" stroke-width="2" fill="none" />
<polyline points="309.5,146.5,311.5,155.0,311.5,163.0,307.5,171.0,314.5,174.0,311.0,182.0,307.5,190.0,301.0,193.0,297.0,205.0,304.0,215.0,300.0,220.0,297.0,224.5,297.5,233.0,299.5,239.0,308.0,236.0,311.0,228.0" stroke="black" stroke-width="2" fill="none" />
<polyline points="323.5,209.5,331.5,209.5" stroke="black" stroke-width="2" fill="none" />
<polyline points="332.5,213.5,334.5,207.5,337.5,199.5" stroke="black" stroke-width="2" fill="none" />
<polyline points="330.5,196.0,338.5,189.0,346.5,181.5" stroke="black" stroke-width="2" fill="none" />
<polyline points="349.0,182.0,341.0,182.5,333.5,182.5" stroke="black" stroke-width="2" fill="none" />
<polyline points="333.5,191.0,341.5,190.5,348.5,189.5" stroke="black" stroke-width="2" fill="none" />
<polyline points="340.0,196.0,332.0,196.0,324.0,196.5" stroke="black" stroke-width="2" fill="none" />
<polyline points="322.5,203.5,331.0,203.5,339.0,203.5" stroke="black" stroke-width="2" fill="none" />
<polyline points="338.5,206.5,331.0,206.5,323.0,207.0,315.0,207.0,307.0,207.5,298.5,208.0,290.0,208.5,282.0,209.5,274.0,210.0,266.0,210.5,258.5,211.0,251.0,212.0,242.5,212.5,234.5,213.5,226.5,214.0,218.5,214.0,210.5,214.5" stroke="black" stroke-width="2" fill="none" />
<polyline points="204.0,211.0,196.0,211.5,188.5,212.5,180.5,213.0,173.0,213.0" stroke="black" stroke-width="2" fill="none" />
<polyline points="179.0,209.0,186.5,209.0,194.5,208.5" stroke="black" stroke-width="2" fill="none" />
<polyline points="197.5,210.0,189.0,217.0" stroke="black" stroke-width="2" fill="none" />
<polyline points="187.0,217.5,194.5,217.5" stroke="black" stroke-width="2" fill="none" />
<polyline points="197.0,218.5,189.0,226.0" stroke="black" stroke-width="2" fill="none" />
<polyline points="190.0,226.0,198.0,223.5,206.5,229.0,214.5,227.0" stroke="black" stroke-width="2" fill="none" />
<polyline points="212.0,224.5,204.0,225.0,196.0,225.5,188.0,227.0,179.5,227.5,172.0,228.0,164.0,228.5,156.5,229.0,148.0,229.5,140.0,230.0" stroke="black" stroke-width="2" fill="none" />
<polyline points="141.0,236.5,149.0,236.0,158.0,235.0,166.0,235.0,174.0,235.0,182.5,234.5,190.0,234.0,198.0,233.5,206.0,232.5,214.0,232.0,221.5,231.5,229.5,231.0,237.5,231.0,245.0,231.0,252.5,230.5,260.5,230.0,268.0,230.0" stroke="black" stroke-width="2" fill="none" />
<polyline points="237.5,244.0,229.0,244.5,221.0,243.5,213.0,241.0" stroke="black" stroke-width="2" fill="none" />
<polyline points="213.0,238.5,221.0,235.5,229.0,227.5" stroke="black" stroke-width="2" fill="none" />
<polyline points="210.0,242.5,202.0,250.0,194.0,257.5" stroke="black" stroke-width="2" fill="none" />
<polyline points="196.0,257.0,204.0,256.5,212.5,256.5,220.0,257.0,228.0,257.0" stroke="black" stroke-width="2" fill="none" />
<polyline points="227.0,247.0,222.0,247.5,213.0,246.0,204.0,238.0,200.0,230.0,189.5,228.5,199.0,216.5,199.0,208.5,201.5,207.0,201.5,198.5,204.5,190.0,204.0,181.0,211.0,179.0,203.0,174.5" stroke="black" stroke-width="2" fill="none" />
<polyline points="202.0,172.0,194.5,179.5,187.0,186.5,179.5,194.0" stroke="black" stroke-width="2" fill="none" />
<polyline points="174.0,200.5,167.0,208.5" stroke="black" stroke-width="2" fill="none" />
<polyline points="171.5,204.5,179.5,204.0,187.5,203.5,195.5,203.0,203.5,202.0" stroke="black" stroke-width="2" fill="none" />
<polyline points="195.5,203.5,188.0,211.0,180.0,218.5" stroke="black" stroke-width="2" fill="none" />
<polyline points="182.0,214.0,177.5,222.0,173.5,224.5,181.5,213.0" stroke="black" stroke-width="2" fill="none" />
<polyline points="182.5,213.5,178.5,221.5,185.5,212.5" stroke="black" stroke-width="2" fill="none" />
<polyline points="188.5,214.5,186.5,214.5,182.0,222.0,184.0,226.5,189.0,235.0,200.0,244.0,206.0,243.0,216.0,245.5,224.0,249.5,229.0,248.5,233.0,255.5,241.0,255.5,249.0,256.5,257.0,256.5,264.5,255.5,272.5,255.5,280.5,253.5,288.0,253.0" stroke="black" stroke-width="2" fill="none" />
<polyline points="298.5,261.5,288.0,269.5" stroke="black" stroke-width="2" fill="none" />
<polyline points="308.0,262.0,300.0,262.0,292.0,268.0,284.0,273.0,275.5,275.5,267.5,277.5,259.5,271.0" stroke="black" stroke-width="2" fill="none" />
<polyline points="260.5,271.0,268.0,279.5" stroke="black" stroke-width="2" fill="none" />
<polyline points="263.0,277.0,260.5,269.0" stroke="black" stroke-width="2" fill="none" />
<polyline points="251.5,266.5,244.0,262.5" stroke="black" stroke-width="2" fill="none" />
<polyline points="243.5,263.0,250.5,275.0,248.5,282.0" stroke="black" stroke-width="2" fill="none" />
<polyline points="249.0,276.5,247.5,274.5,241.5,277.0,235.5,276.5,228.0,275.5,223.5,278.0,215.5,276.0,207.5,269.5,199.0,266.5,191.0,268.0,188.0,263.0,195.5,255.0,199.5,247.0,208.0,236.5,212.5,229.0,209.0,224.0,209.5,216.0,206.5,208.5,197.0,212.5" stroke="black" stroke-width="2" fill="none" />
<polyline points="196.5,220.0,204.5,224.0" stroke="black" stroke-width="2" fill="none" />
<polyline points="195.5,227.5,187.5,235.5" stroke="black" stroke-width="2" fill="none" />
<polyline points="187.0,235.5,195.0,239.0,203.0,239.0,212.5,236.0,220.5,232.0" stroke="black" stroke-width="2" fill="none" />
<polyline points="203.5,242.0,195.5,249.5" stroke="black" stroke-width="2" fill="none" />
<polyline points="211.0,252.0,203.0,259.5,195.0,267.0" stroke="black" stroke-width="2" fill="none" />
<polyline points="206.0,268.5,219.0,276.5" stroke="black" stroke-width="2" fill="none" />
<polyline points="242.0,263.0,247.0,271.0,243.5,276.0,234.5,278.0,239.0,285.0,246.0,283.5,254.5,282.5,262.5,283.0,270.0,280.0,278.0,280.5,286.5,280.5,294.0,281.5,302.0,279.5" stroke="black" stroke-width="2" fill="none" />
<polyline points="338.5,250.0,330.5,250.0,322.5,250.5,313.5,251.0,305.5,251.5,297.5,251.5,289.0,252.0,282.0,252.5,274.5,253.5,266.5,254.5,258.5,255.5,250.5,256.0,243.0,256.0,235.5,256.5,227.5,256.5,219.5,257.0,212.0,257.5,204.0,258.5,196.5,259.0,188.5,260.0,180.5,261.0,172.0,262.0" stroke="black" stroke-width="2" fill="none" />
<polyline points="162.0,255.0,169.5,255.0,178.0,254.0,186.0,253.5,193.5,253.0,202.0,252.0,210.5,251.5,218.5,251.5,227.0,251.0,235.0,250.5,243.5,250.0,251.0,249.5,259.0,249.0,267.0,248.0,274.5,247.5,282.5,246.5,290.0,246.0,298.5,246.0,307.0,245.0,315.5,244.5,323.5,243.5,331.5,243.5,339.5,243.5" stroke="black" stroke-width="2" fill="none" />
<polyline points="333.0,234.0,325.5,235.0,317.0,236.0,309.0,237.0,301.0,237.5,293.5,238.0,286.0,238.5,277.5,239.0,269.5,239.0,261.5,239.5,253.0,239.5,244.5,239.5,236.0,239.5,228.0,239.5,220.0,240.0,212.5,240.5,204.5,241.0,196.5,241.5,188.5,242.0,180.5,242.5,172.5,243.0,164.5,244.0,156.5,244.5,149.0,245.5" stroke="black" stroke-width="2" fill="none" />
<polyline points="156.5,221.0,148.0,221.5,140.0,221.5" stroke="black" stroke-width="2" fill="none" />
<polyline points="170.0,196.0,178.5,195.5,186.5,195.0,194.5,194.5,203.0,193.5,211.5,193.0,219.5,192.5,227.5,192.5,236.0,192.0,244.0,191.0,252.0,190.5,260.0,190.0,268.0,190.0,276.5,189.5,285.0,188.5,292.5,187.5,300.5,187.0,308.5,186.0,317.0,185.5" stroke="black" stroke-width="2" fill="none" />
<polyline points="309.0,190.0,310.0,198.0,311.5,206.0,304.5,214.0" stroke="black" stroke-width="2" fill="none" />
<polyline points="321.0,204.0,329.0,193.0,336.5,178.5,344.5,166.5,352.5,152.5,354.0,160.5,349.5,173.5,344.5,182.0,340.5,190.5,336.5,198.0,327.5,203.0,341.5,198.0,343.5,192.0,351.5,182.0,359.0,169.0,367.0,158.0" stroke="black" stroke-width="2" fill="none" />
<polyline points="360.5,157.5,352.5,164.5,345.0,171.5" stroke="black" stroke-width="2" fill="none" />
<polyline points="340.0,173.5,348.5,173.0,356.5,172.5" stroke="black" stroke-width="2" fill="none" />
<polyline points="355.5,169.0,343.5,177.0" stroke="black" stroke-width="2" fill="none" />
<polyline points="348.5,164.0,356.5,163.5,364.0,163.0" stroke="black" stroke-width="2" fill="none" />
<polyline points="362.5,161.0,354.5,161.0" stroke="black" stroke-width="2" fill="none" />
<polyline points="353.5,157.0,353.0,172.0,360.0,164.5" stroke="black" stroke-width="2" fill="none" />
<polyline points="355.5,154.0,363.0,147.0,371.0,140.0,379.5,133.0,388.0,125.5" stroke="black" stroke-width="2" fill="none" />
<polyline points="390.0,124.5,392.0,120.5,390.0,128.0,385.5,129.5,384.0,134.0,376.0,141.0,383.0,134.5,391.0,134.0,405.0,138.0" stroke="black" stroke-width="2" fill="none" />
<polyline points="404.0,130.5,396.0,138.0" stroke="black" stroke-width="2" fill="none" />
<polyline points="395.5,138.0,403.0,137.5" stroke="black" stroke-width="2" fill="none" />
<polyline points="398.5,130.5,390.5,138.0" stroke="black" stroke-width="2" fill="none" />
<polyline points="395.0,141.0,403.0,140.5,411.5,140.0" stroke="black" stroke-width="2" fill="none" />
<polyline points="389.0,132.0,381.0,140.0" stroke="black" stroke-width="2" fill="none" />
<polyline points="379.5,134.5,387.5,130.0,401.5,133.0,405.0,141.5" stroke="black" stroke-width="2" fill="none" />
<polyline points="397.0,125.0,388.5,125.0,380.0,125.5,371.5,126.5,363.5,127.0" stroke="black" stroke-width="2" fill="none" />
<polyline points="361.0,132.0,353.0,139.0" stroke="black" stroke-width="2" fill="none" />
<polyline points="346.0,139.0,354.5,131.0" stroke="black" stroke-width="2" fill="none" />
<polyline points="346.0,134.0,338.0,141.5" stroke="black" stroke-width="2" fill="none" />
<polyline points="335.0,141.0,335.0,139.0" stroke="black" stroke-width="2" fill="none" />
<polyline points="334.5,135.0,342.5,134.0,351.0,135.0,352.0,137.0" stroke="black" stroke-width="2" fill="none" />
<polyline points="354.0,147.0,362.0,146.5,370.5,146.0" stroke="black" stroke-width="2" fill="none" />
<polyline points="372.0,154.5,364.5,155.0,357.0,155.5,349.5,156.0" stroke="black" stroke-width="2" fill="none" />
<polyline points="355.0,147.5,363.0,139.5,371.0,131.5" stroke="black" stroke-width="2" fill="none" />
<polyline points="370.0,133.5,367.5,141.5,368.5,141.0,368.5,137.5,380.0,124.0,388.0,113.0" stroke="black" stroke-width="2" fill="none" />
<polyline points="387.0,110.0,394.5,109.0" stroke="black" stroke-width="2" fill="none" />
<polyline points="388.5,109.5,382.5,117.5,377.5,125.5,372.5,129.5,374.5,139.5,367.0,147.5,363.5,155.5,354.5,164.0,347.5,166.5,344.5,175.0,339.5,179.0,336.5,187.0,343.5,184.0,351.5,170.5,359.5,158.0,363.0,154.5,371.0,145.5,375.0,147.0,383.0,142.5,390.5,143.5,398.0,145.5" stroke="black" stroke-width="2" fill="none" />
<polyline points="390.0,136.5,382.0,137.5,373.5,138.0,365.0,139.0,357.0,139.5,348.5,140.0,340.0,140.5,331.0,141.5,322.5,142.0" stroke="black" stroke-width="2" fill="none" />
<polyline points="331.0,140.0,339.0,132.5" stroke="black" stroke-width="2" fill="none" />
<polyline points="332.5,130.5,324.5,137.5" stroke="black" stroke-width="2" fill="none" />
<polyline points="325.0,131.0,317.0,138.0" stroke="black" stroke-width="2" fill="none" />
<polyline points="315.0,135.0,307.0,135.0,299.0,135.0,291.5,135.0,283.5,135.5,275.5,136.0,267.5,137.0,260.0,137.5,252.0,138.5,243.5,139.0,235.5,139.5,227.0,139.5,218.5,140.0,210.0,140.5,201.5,141.0" stroke="black" stroke-width="2" fill="none" />
<polyline points="203.5,139.5,211.5,132.0,219.5,124.5" stroke="black" stroke-width="2" fill="none" />
<polyline points="219.0,126.5,227.0,127.5" stroke="black" stroke-width="2" fill="none" />
<polyline points="221.0,132.0,212.5,139.0,204.5,146.0" stroke="black" stroke-width="2" fill="none" />
<polyline points="207.5,147.0,218.5,147.0,217.5,155.0,220.5,160.5" stroke="black" stroke-width="2" fill="none" />
<polyline points="219.0,146.0,217.0,135.0" stroke="black" stroke-width="2" fill="none" />
<polyline points="219.5,134.5,228.0,127.0,236.0,120.0,243.5,112.5,251.5,105.5,259.0,98.0,267.0,90.5,274.5,83.0" stroke="black" stroke-width="2" fill="none" />
<polyline points="269.0,86.0,261.0,87.0,253.0,88.0,244.5,89.0" stroke="black" stroke-width="2" fill="none" />
<polyline points="244.5,80.5,252.5,73.5" stroke="black" stroke-width="2" fill="none" />
<polyline points="246.0,73.5,246.0,78.5,241.0,74.0,241.0,82.0,228.0,90.5,218.0,102.5,213.0,104.5,207.0,110.0,206.0,113.0,212.0,119.0,227.0,119.0,234.0,122.0,240.0,126.5,240.0,128.5" stroke="black" stroke-width="2" fill="none" />
<polyline points="243.5,128.5,251.0,128.0,259.5,128.0,267.5,127.5" stroke="black" stroke-width="2" fill="none" />
<polyline points="267.0,126.5,275.0,126.5,283.0,125.5,291.5,124.5,299.5,122.5" stroke="black" stroke-width="2" fill="none" />
<polyline points="305.5,129.5,313.5,128.5,321.5,128.0" stroke="black" stroke-width="2" fill="none" />
<polyline points="326.5,126.0,334.5,127.0,342.5,128.5,350.0,128.5,358.0,129.0,365.5,127.0,374.0,119.0,382.0,108.5,390.0,107.5,389.0,106.5,382.0,108.5,376.0,116.5,370.0,124.5,368.0,131.5,363.0,140.0,359.0,140.0,355.0,150.0,350.0,158.0,345.5,166.0,340.0,174.0,335.0,182.0,330.0,190.0,327.0,198.0,320.0,205.5,320.5,213.5,312.5,220.0,311.5,228.5,308.5,235.5,297.5,244.5,299.5,249.0,305.5,250.5,309.5,259.5,318.0,254.5" stroke="black" stroke-width="2" fill="none" />
<polyline points="316.0,163.5,308.5,164.5,301.0,165.0,292.5,165.5,284.5,166.5,276.0,167.0,268.0,167.5,260.0,168.5,252.0,169.0,244.0,169.0,236.0,170.0,228.0,170.5,219.5,171.0,211.5,171.5,203.5,172.0,195.5,172.5,188.0,173.0,180.0,173.5" stroke="black" stroke-width="2" fill="none" />
<polyline points="181.5,166.0,189.5,165.5,197.0,164.0,205.0,163.5,213.0,163.0,221.0,163.0,229.0,162.0,237.0,161.0,245.0,160.5,253.0,160.0,261.0,159.5,269.0,159.5,277.0,159.0,284.5,158.5,292.5,157.5,300.0,157.0,308.0,156.5,315.5,156.5" stroke="black" stroke-width="2" fill="none" />
<polyline points="316.0,148.0,308.0,149.0,300.0,149.5,292.0,150.0,284.5,150.5,277.0,151.0,268.5,151.5,260.5,152.0,252.5,152.5,244.0,152.5,235.5,152.5,227.0,153.0,219.0,153.0,211.5,154.0,204.0,155.0,196.0,155.5,188.0,156.0,180.5,156.5" stroke="black" stroke-width="2" fill="none" />
<polyline points="178.5,155.0,186.5,147.5" stroke="black" stroke-width="2" fill="none" />
<polyline points="182.5,150.5,190.0,150.5,198.0,149.0,205.5,148.0,213.0,147.5,220.0,146.5,227.5,145.5,235.5,145.0,243.0,144.5,250.0,144.0,258.5,143.0,266.0,142.5,274.0,141.5,282.0,141.0,289.5,140.5,297.5,140.0,306.0,139.5" stroke="black" stroke-width="2" fill="none" />
<polyline points="304.0,139.0,304.0,147.0,298.0,149.0,293.0,154.0,295.0,158.0,293.0,166.0,300.0,166.0,294.5,173.0,292.5,174.0,290.5,183.5,281.5,189.5,286.0,194.5,285.0,199.0,290.0,200.0,284.0,203.0,287.0,209.0,288.0,213.0,286.5,221.0,286.5,228.5" stroke="black" stroke-width="2" fill="none" />
<polyline points="292.5,165.0,300.5,163.0" stroke="black" stroke-width="2" fill="none" />
<polyline points="301.5,174.0,300.0,171.0,291.0,177.5,287.0,171.0,286.0,167.0,278.5,170.0,270.5,174.5,270.0,178.5,262.0,185.0,253.0,200.0,245.0,204.0,241.0,201.0,233.0,207.5,225.0,208.5,220.0,224.0,210.0,223.0,207.5,210.0,211.5,209.5,217.0,196.5,226.5,191.0,221.5,186.5,228.5,179.0,224.5,173.5,225.5,168.5,217.5,166.0,217.5,157.5,205.5,155.0,212.0,152.5,215.0,145.0,219.0,137.0,207.0,139.5" stroke="black" stroke-width="2" fill="none" />
<polyline points="209.0,142.0,217.5,138.0,222.0,143.0,220.0,146.0,223.0,153.5,222.0,159.0,226.0,150.0" stroke="black" stroke-width="2" fill="none" />
<polyline points="226.5,145.0,234.0,137.5,242.0,130.0,250.5,122.5,259.5,115.0,268.0,107.5,276.5,100.5,284.5,93.0" stroke="black" stroke-width="2" fill="none" />
<polyline points="275.0,92.0,267.0,99.5,259.0,107.0,251.5,114.0,243.5,121.5,235.5,129.0,227.5,136.5" stroke="black" stroke-width="2" fill="none" />
<polyline points="236.5,145.0,244.5,144.5,253.0,144.0,260.5,143.5,268.0,143.0,276.0,142.5,284.0,142.0" stroke="black" stroke-width="2" fill="none" />
<polyline points="285.5,140.5,297.5,144.5,291.0,152.5,287.5,157.0,288.5,160.0,290.0,156.5,294.0,135.5,303.0,137.5" stroke="black" stroke-width="2" fill="none" />
<polyline points="306.5,136.0,314.5,136.0,322.5,135.5,331.0,135.0" stroke="black" stroke-width="2" fill="none" />
<polyline points="322.5,117.5,314.5,113.0,306.5,103.0,298.0,99.0,289.5,96.5,281.5,91.5,273.5,84.5,265.5,80.0" stroke="black" stroke-width="2" fill="none" />
<polyline points="267.5,83.0,260.0,90.5,251.5,98.0,243.5,105.5,235.5,112.5,227.5,120.0" stroke="black" stroke-width="2" fill="none" />
<polyline points="234.5,120.0,242.0,119.5,250.0,118.5,258.0,118.0,265.5,117.5" stroke="black" stroke-width="2" fill="none" />
<polyline points="261.5,118.5,269.5,118.5,277.0,118.5,284.5,118.0,292.5,117.0" stroke="black" stroke-width="2" fill="none" />
<polyline points="277.5,111.5,270.0,112.0,262.5,112.5" stroke="black" stroke-width="2" fill="none" />
<polyline points="259.5,120.5,267.5,121.0,276.0,121.0,283.5,120.0,291.5,119.5" stroke="black" stroke-width="2" fill="none" />
<polyline points="287.5,112.5,284.5,110.0,276.5,110.0" stroke="black" stroke-width="2" fill="none" />
<polyline points="277.0,96.0,269.5,97.0,261.0,98.0,253.0,99.0" stroke="black" stroke-width="2" fill="none" />
<polyline points="243.0,95.0,235.5,95.5" stroke="black" stroke-width="2" fill="none" />
<polyline points="227.0,95.5,235.0,95.0,243.0,94.5,251.0,94.0,259.0,93.5,267.0,93.0,275.5,92.0,284.0,91.0" stroke="black" stroke-width="2" fill="none" />
<polyline points="272.5,89.5,280.0,96.5,287.5,106.0,296.0,106.0" stroke="black" stroke-width="2" fill="none" />
<polyline points="273.0,101.0,266.0,101.5,258.5,102.5,250.5,103.5,242.5,104.5,234.5,105.0" stroke="black" stroke-width="2" fill="none" />
<polyline points="228.0,112.0,235.5,105.0,243.5,97.5,251.5,90.5,259.0,83.0,266.5,75.5,274.0,68.0" stroke="black" stroke-width="2" fill="none" />
<polyline points="276.0,66.5,268.0,67.0" stroke="black" stroke-width="2" fill="none" />
<polyline points="259.5,75.5,251.5,83.0,243.5,91.0,235.0,98.5,227.0,106.0,218.5,113.5,210.0,121.5,201.5,129.0" stroke="black" stroke-width="2" fill="none" />
<polyline points="203.5,132.0,211.5,131.5,219.0,131.0,227.0,130.0,235.0,130.0,243.0,130.0,251.5,129.0,260.0,128.0,268.0,127.5,276.0,126.5,284.0,126.0,292.0,125.5,300.5,125.5,309.0,125.0,317.0,125.0,324.5,125.5,333.0,125.5,341.0,125.5,349.0,125.5,357.0,125.5,365.0,124.5,373.0,124.0,381.0,124.0,389.5,123.5,397.5,123.5,405.5,122.5" stroke="black" stroke-width="2" fill="none" />
<polyline points="396.0,118.0,388.0,118.0,380.0,118.5" stroke="black" stroke-width="2" fill="none" />
<polyline points="381.0,115.5,376.0,123.5,377.5,120.0,385.5,109.5" stroke="black" stroke-width="2" fill="none" />
<polyline points="391.0,127.5,399.0,130.5" stroke="black" stroke-width="2" fill="none" />
<polyline points="323.5,111.5,315.0,112.5,306.5,112.5,298.0,112.5,290.0,113.0,282.0,113.5,274.0,114.5,266.0,114.5,258.5,115.0,250.5,115.0,242.5,115.5,235.0,116.0,227.0,116.5,219.5,117.5,211.5,118.0,203.0,119.0,195.5,119.5" stroke="black" stroke-width="2" fill="none" />
<polyline points="200.0,112.5,208.0,115.5,215.5,117.5,223.5,118.5,232.0,120.5,240.0,120.0" stroke="black" stroke-width="2" fill="none" />
<polyline points="244.5,112.0,253.0,107.0" stroke="black" stroke-width="2" fill="none" />
<polyline points="251.5,111.5,243.5,112.0,236.5,112.5,228.5,112.5" stroke="black" stroke-width="2" fill="none" />
<polyline points="220.5,107.0,212.5,115.0,204.5,122.5" stroke="black" stroke-width="2" fill="none" />
<polyline points="204.5,123.0,207.5,121.5,215.0,121.0,223.0,122.5" stroke="black" stroke-width="2" fill="none" />
<polyline points="226.0,122.0,218.0,120.5" stroke="black" stroke-width="2" fill="none" />
<polyline points="214.5,133.5,213.5,131.5,205.0,140.0,204.5,148.0,202.5,156.0,200.5,164.0,199.5,172.0,197.0,180.5,200.0,183.5,201.5,188.0,195.5,193.0,196.5,201.0,196.5,209.0,196.5,217.0,204.0,219.0,204.5,225.0,204.5,231.0,213.0,239.0,211.0,248.0,209.5,250.0,217.0,251.5,225.0,253.5,233.0,252.5,240.5,253.5,248.5,254.0,256.5,254.5,264.0,251.5,272.0,251.5,280.0,250.5,288.5,249.5,296.5,245.5,306.0,248.5,314.0,242.5,315.0,236.5,324.5,241.5,333.0,242.0" stroke="black" stroke-width="2" fill="none" />
<polyline points="359.0,144.5,354.0,140.0,351.0,143.0,344.0,143.0,336.0,143.0,328.0,143.5,320.0,141.5,312.0,140.0,304.0,143.0,295.5,145.0,289.5,147.5,288.0,152.5,280.5,152.0,272.5,146.5" stroke="black" stroke-width="2" fill="none" />
<polyline points="256.5,133.5,264.0,133.5,272.0,133.5,280.0,132.5,288.0,131.0,296.0,129.5,303.5,126.5" stroke="black" stroke-width="2" fill="none" />
<polyline points="299.0,134.0,296.0,134.0,296.5,141.5,282.5,147.5,275.5,155.5,272.0,161.5,272.5,170.5,265.5,178.5,261.5,181.5,261.5,191.5,257.5,198.5,253.5,206.5,253.5,213.0,253.0,223.5,247.5,231.5,244.5,246.0,246.5,246.0,254.5,240.0,262.5,238.0,267.0,240.0,269.0,234.0,272.0,231.0,280.0,221.5,281.0,217.0,285.0,225.0,293.0,215.0,300.5,216.0,309.0,217.0,308.5,217.0,310.0,223.0,305.0,227.5,303.0,229.5,301.0,233.0,302.5,242.5,303.0,250.0,308.0,258.0,313.0,258.5" stroke="black" stroke-width="2" fill="none" />
<polyline points="274.0,162.0,267.0,165.0,265.0,161.0,264.0,154.5,260.0,166.5,252.0,163.0" stroke="black" stroke-width="2" fill="none" />
<polyline points="249.0,161.0,260.5,158.0,265.0,166.0,263.0,174.0,272.0,175.5,282.5,176.5,283.5,179.5,287.5,184.0,289.5,184.0,297.5,179.0,301.5,187.5,303.5,191.5,312.0,184.0,316.0,187.0,315.0,195.5,314.5,203.5,315.5,211.0,316.0,219.0,315.0,233.0" stroke="black" stroke-width="2" fill="none" />
<polyline points="336.0,240.5,336.5,239.5,327.5,234.5,334.0,233.0,332.5,225.5,333.5,217.5,337.0,209.5,331.0,207.0,339.0,203.0,344.0,195.5,348.0,187.5,347.0,185.5,354.0,177.5,359.0,170.0,364.5,162.0,369.5,154.0,376.5,145.5,374.5,137.5,378.5,132.0,385.5,124.5,392.5,116.0,390.5,112.0,382.5,128.0,375.0,135.5,368.0,130.0,360.0,139.0,358.0,131.5,349.5,131.0,341.5,131.0,329.5,137.0,325.0,136.0,321.0,125.5,324.5,117.5,311.5,110.5,302.5,105.5,294.5,110.5,292.0,103.5,284.0,103.5,286.0,95.5,278.0,88.5,270.0,86.5,270.0,75.5,271.0,67.5,266.5,78.0,260.5,72.5,273.0,68.5,265.5,69.0,258.0,74.0,250.0,72.0,242.0,73.0" stroke="black" stroke-width="2" fill="none" />
<polyline points="246.0,76.5,253.5,76.5,261.0,76.0,268.5,76.0,276.0,75.5" stroke="black" stroke-width="2" fill="none" />
<polyline points="267.5,81.0,259.5,81.5,251.0,82.0" stroke="black" stroke-width="2" fill="none" />
<polyline points="234.5,83.5,242.5,83.0,251.0,83.0,259.0,83.0,267.5,83.0,275.5,82.5" stroke="black" stroke-width="2" fill="none" />
<polyline points="309.0,95.0,301.5,96.0,293.0,97.0,285.0,98.0,277.0,98.5,269.5,99.0,262.0,99.5,253.5,100.0,245.5,100.0,237.5,100.5,229.0,100.5,220.5,100.5,212.0,100.5,204.0,100.5" stroke="black" stroke-width="2" fill="none" />
<polyline points="208.0,100.5,216.0,100.5,201.0,103.5,198.0,111.5,198.5,119.5,200.5,127.5,200.5,135.5,199.0,144.0,197.0,152.0,195.5,160.5" stroke="black" stroke-width="2" fill="none" />
<polyline points="197.0,156.5,189.5,164.0" stroke="black" stroke-width="2" fill="none" />
<polyline points="187.5,168.5,195.5,168.0" stroke="black" stroke-width="2" fill="none" />
<polyline points="196.0,165.0,188.0,172.5" stroke="black" stroke-width="2" fill="none" />
<polyline points="188.0,176.0,195.5,175.5" stroke="black" stroke-width="2" fill="none" />
<polyline points="195.0,184.0,187.0,184.0" stroke="black" stroke-width="2" fill="none" />
<polyline points="196.5,188.5,188.5,196.0,180.0,203.0" stroke="black" stroke-width="2" fill="none" />
<polyline points="177.5,203.0,186.0,202.0,194.5,202.0" stroke="black" stroke-width="2" fill="none" />
<polyline points="183.5,225.5,192.0,235.5,195.0,233.0,201.0,229.0,209.0,235.0,215.0,232.0,223.0,231.0,223.5,227.0" stroke="black" stroke-width="2" fill="none" />
<polyline points="224.0,163.0,218.5,158.0,215.5,160.0,211.5,163.0,203.5,161.0" stroke="black" stroke-width="2" fill="none" />
<polyline points="205.0,159.5,213.5,148.0,223.5,148.0,231.5,150.5" stroke="black" stroke-width="2" fill="none" />
<polyline points="231.5,154.0,232.0,150.0,223.5,148.0,223.0,138.0,224.5,136.0,222.0,135.0,214.5,132.0,206.5,135.5,204.5,142.5,203.5,150.0" stroke="black" stroke-width="2" fill="none" />
<polyline points="187.0,137.5,178.5,145.0" stroke="black" stroke-width="2" fill="none" />
<polyline points="178.0,148.0,185.0,149.0,188.0,157.0" stroke="black" stroke-width="2" fill="none" />
<polyline points="191.0,153.0,178.0,146.5,171.0,141.5,169.5,130.0,169.5,119.5,171.5,111.0,170.5,110.0,163.5,106.0" stroke="black" stroke-width="2" fill="none" />
<polyline points="164.5,107.5,172.5,109.5,179.0,115.5" stroke="black" stroke-width="2" fill="none" />
<polyline points="178.0,115.0,170.5,122.5" stroke="black" stroke-width="2" fill="none" />
<polyline points="169.5,121.0,177.5,120.5" stroke="black" stroke-width="2" fill="none" />
<polyline points="178.5,125.5,170.5,133.0" stroke="black" stroke-width="2" fill="none" />
<polyline points="170.5,132.5,178.5,132.0,186.5,132.0" stroke="black" stroke-width="2" fill="none" />
<polyline points="185.0,131.5,177.5,139.0" stroke="black" stroke-width="2" fill="none" />
<polyline points="176.5,132.5,168.5,140.0" stroke="black" stroke-width="2" fill="none" />
<polyline points="169.5,141.0,178.0,140.5,186.0,140.0" stroke="black" stroke-width="2" fill="none" />
<polyline points="178.0,149.5,181.0,157.5,178.0,163.0" stroke="black" stroke-width="2" fill="none" />
<polyline points="163.0,127.5,171.0,127.0,179.0,126.0,187.0,125.5" stroke="black" stroke-width="2" fill="none" />
<polyline points="194.5,110.5,202.5,109.5,210.0,109.0,217.5,108.5,225.5,108.0,233.0,107.5,241.0,107.0,249.5,107.0,258.0,107.0,266.0,106.5,274.0,106.0,282.0,105.0,290.0,104.5,298.0,103.5,306.0,102.5,314.0,101.5" stroke="black" stroke-width="2" fill="none" />
<polyline points="287.0,128.5,279.5,130.0,271.5,130.0,263.5,131.5,255.0,131.5" stroke="black" stroke-width="2" fill="none" />
<polyline points="245.0,91.5,235.0,90.5,227.0,94.5" stroke="black" stroke-width="2" fill="none" />
<polyline points="210.0,108.0,202.5,115.0" stroke="black" stroke-width="2" fill="none" />
<polyline points="203.5,109.5,211.5,112.5,214.0,106.0,222.0,101.0,225.0,102.5" stroke="black" stroke-width="2" fill="none" />
<polyline points="216.0,111.5,224.5,103.5,230.5,94.5,238.0,86.5,237.5,83.5,229.5,89.5,222.0,96.0,214.0,98.0,206.0,101.0,198.0,108.0" stroke="black" stroke-width="2" fill="none" />
<polyline points="173.0,108.5,165.0,116.0" stroke="black" stroke-width="2" fill="none" />
<polyline points="162.5,116.5,170.5,116.5,178.0,116.5" stroke="black" stroke-width="2" fill="none" />
<polyline points="171.5,117.0,163.5,124.0" stroke="black" stroke-width="2" fill="none" />
<polyline points="166.5,124.5,174.5,134.5" stroke="black" stroke-width="2" fill="none" />
<polyline points="170.5,112.0,162.5,113.0" stroke="black" stroke-width="2" fill="none" />
<polyline points="157.0,116.5,160.0,114.5,162.0,124.0,170.0,125.0,170.0,139.0,176.0,144.5,183.5,140.5,184.5,137.0,187.5,145.0,190.5,153.0,192.0,161.5" stroke="black" stroke-width="2" fill="none" />
<polyline points="181.0,108.0,173.0,108.5,165.0,109.0,157.0,109.5" stroke="black" stroke-width="2" fill="none" />
<polyline points="155.5,107.5,163.5,100.0" stroke="black" stroke-width="2" fill="none" />
<polyline points="158.5,100.5,166.0,100.0,174.0,100.0" stroke="black" stroke-width="2" fill="none" />
<polyline points="167.0,111.5,161.5,114.5,153.5,110.0" stroke="black" stroke-width="2" fill="none" />
<polyline points="151.0,107.0,150.5,107.5,156.5,115.5,160.5,123.5,164.5,131.0,171.0,134.0,174.0,144.0,176.0,152.5,176.0,160.0,178.5,164.0,180.0,172.0,178.0,179.5,176.0,187.5,172.5,195.0,166.5,203.0,171.0,207.0,166.0,214.5,169.5,222.5,165.5,204.5,173.5,192.5,176.5,186.5,181.5,168.5" stroke="black" stroke-width="2" fill="none" />
<polyline points="172.0,147.5,180.0,141.5,182.0,133.5,182.5,125.5,178.5,117.5,175.5,109.5,173.5,103.5,165.0,102.0,157.0,101.5,149.0,101.5" stroke="black" stroke-width="2" fill="none" />
<polyline points="309.5,140.0,306.5,147.5,308.0,155.0,305.0,162.0,299.5,172.0,302.5,181.0,296.5,183.0,293.5,194.0,304.5,195.0,310.0,203.0,297.0,208.5,299.0,202.0,306.0,201.0,306.5,195.0" stroke="black" stroke-width="2" fill="none" />
</svg>