<svg xmlns="http://www.w3.org/2000/svg" version="1.1"><path d="M274.0,88.5,279.0,96.5,282.0,104.5,272.0,115.0" stroke="black" stroke-width="2" fill="none" />
<path d="M275.0,113.5,266.0,114.0,258.0,114.5" stroke="black" stroke-width="2" fill="none" />
<path d="M252.5,112.0,244.5,112.0,236.5,112.5,228.5,113.0" stroke="black" stroke-width="2" fill="none" />
<path d="M229.5,113.0,237.5,105.5,246.0,98.5,254.0,91.0,262.0,83.0,270.5,75.0,278.5,67.5" stroke="black" stroke-width="2" fill="none" />
<path d="M274.5,70.5,266.5,71.0" stroke="black" stroke-width="2" fill="none" />
<path d="M261.5,74.0,253.5,81.0,245.5,89.0,237.0,96.5,228.5,104.5,220.0,112.5,212.0,120.0,204.0,127.5" stroke="black" stroke-width="2" fill="none" />
<path d="M204.5,125.5,212.5,125.0,220.0,125.5,228.0,125.0,236.0,124.5,244.5,124.0,252.0,124.0,259.0,123.5,266.5,122.5,274.0,122.0,282.0,121.5,290.0,121.0,299.0,120.5,307.5,119.5,315.5,118.5,324.5,117.5,332.0,117.0" stroke="black" stroke-width="2" fill="none" />
<path d="M325.0,116.0,316.5,123.0,308.0,130.0,299.5,137.0,291.5,144.5,283.5,152.0,275.5,160.0,267.5,168.0,259.0,175.0,250.5,182.5,242.5,190.0,234.5,197.5,227.0,205.0,219.0,213.0" stroke="black" stroke-width="2" fill="none" />
<path d="M213.0,215.0,221.0,215.0,229.0,214.0,237.5,213.5,245.5,213.0,253.5,212.0,261.0,211.0,268.0,210.0,275.5,209.5,283.0,209.5,291.0,209.0,299.5,208.5,307.0,207.5,315.5,206.5,323.5,205.0,331.0,204.5,339.0,204.5" stroke="black" stroke-width="2" fill="none" />
<path d="M340.5,203.5,332.5,211.0,324.5,218.0,316.5,225.5,309.0,233.0" stroke="black" stroke-width="2" fill="none" />
<path d="M316.5,233.5,324.0,233.5" stroke="black" stroke-width="2" fill="none" />
<path d="M322.5,237.0,330.5,230.0" stroke="black" stroke-width="2" fill="none" />
<path d="M330.0,232.0,331.5,240.0" stroke="black" stroke-width="2" fill="none" />
<path d="M339.0,237.0,331.0,237.0,324.0,237.0,316.5,237.5,308.5,237.5,300.5,238.5" stroke="black" stroke-width="2" fill="none" />
<path d="M301.5,230.0,309.5,229.5,316.5,229.0,324.0,228.5,331.5,227.5,338.5,227.5" stroke="black" stroke-width="2" fill="none" />
<path d="M330.0,221.5,322.5,228.5,315.0,236.0,307.0,243.5,299.0,251.0,291.5,259.0,283.0,266.0,275.0,273.0" stroke="black" stroke-width="2" fill="none" />
<path d="M267.5,274.0,276.0,266.5,284.0,259.0,292.5,251.5" stroke="black" stroke-width="2" fill="none" />
<path d="M291.5,257.0,299.5,256.5,307.5,256.0" stroke="black" stroke-width="2" fill="none" />
<path d="M308.5,260.5,316.5,253.0" stroke="black" stroke-width="2" fill="none" />
<path d="M314.5,245.5,306.5,252.5,299.0,260.0,291.5,267.5,284.0,274.5" stroke="black" stroke-width="2" fill="none" />
<path d="M275.5,273.5,267.0,274.0" stroke="black" stroke-width="2" fill="none" />
<path d="M261.5,272.5,268.0,280.5" stroke="black" stroke-width="2" fill="none" />
<path d="M258.5,274.5,267.0,267.0,275.5,259.5,284.0,252.0" stroke="black" stroke-width="2" fill="none" />
<path d="M275.5,250.0,267.5,258.0,260.0,266.0,252.5,273.0" stroke="black" stroke-width="2" fill="none" />
<path d="M250.5,275.0,258.5,274.5" stroke="black" stroke-width="2" fill="none" />
<path d="M260.5,272.0,263.5,280.0" stroke="black" stroke-width="2" fill="none" />
<path d="M260.0,271.0,267.5,277.0,275.5,275.0,283.0,273.5,290.5,268.5,298.0,262.0,306.5,262.0" stroke="black" stroke-width="2" fill="none" />
<path d="M300.0,260.5,288.5,269.0" stroke="black" stroke-width="2" fill="none" />
<path d="M268.5,251.0,261.0,259.0,253.0,266.5,245.5,274.0" stroke="black" stroke-width="2" fill="none" />
<path d="M237.0,273.0,245.0,265.5,253.0,258.0,260.5,251.0,268.0,243.0" stroke="black" stroke-width="2" fill="none" />
<path d="M259.0,244.0,251.0,251.0,243.0,258.5,234.5,266.0,226.0,274.0" stroke="black" stroke-width="2" fill="none" />
<path d="M235.0,276.0,243.0,275.5,251.0,275.0,259.5,275.0,267.5,275.0,276.0,274.5,284.5,274.5" stroke="black" stroke-width="2" fill="none" />
<path d="M243.5,273.5,236.0,274.5" stroke="black" stroke-width="2" fill="none" />
<path d="M241.0,264.0,249.5,267.5" stroke="black" stroke-width="2" fill="none" />
<path d="M243.0,264.0,250.5,276.0,248.5,282.5" stroke="black" stroke-width="2" fill="none" />
<path d="M250.5,276.5,248.0,274.0,242.0,277.0,235.5,276.0,227.5,274.5,223.0,276.5,215.0,275.0,207.0,269.0,199.0,265.5,191.0,266.5,188.0,261.5,195.0,253.5,199.0,245.5,207.0,236.0,212.5,228.0,209.5,223.5,210.5,215.5,207.5,207.5,198.5,211.5" stroke="black" stroke-width="2" fill="none" />
<path d="M196.0,212.5,188.0,220.0" stroke="black" stroke-width="2" fill="none" />
<path d="M186.0,217.0,194.0,216.0" stroke="black" stroke-width="2" fill="none" />
<path d="M194.5,220.0,186.5,227.5" stroke="black" stroke-width="2" fill="none" />
<path d="M183.5,225.0,191.5,235.0,194.5,233.5,200.5,230.0,208.5,235.5,214.5,233.0,222.5,232.0,222.0,228.0" stroke="black" stroke-width="2" fill="none" />
<path d="M220.5,230.0,228.5,229.5,236.5,229.5,244.0,228.5,252.0,227.5,259.5,226.5" stroke="black" stroke-width="2" fill="none" />
<path d="M262.0,222.5,273.0,220.5,267.5,224.0,264.5,232.0" stroke="black" stroke-width="2" fill="none" />
<path d="M268.0,226.0,276.0,218.5" stroke="black" stroke-width="2" fill="none" />
<path d="M275.0,228.0,283.0,230.0,292.5,223.0,294.5,231.5,298.5,239.5" stroke="black" stroke-width="2" fill="none" />
<path d="M301.0,221.0,308.5,220.5,316.0,220.5,323.5,220.5,330.5,220.0,338.0,219.0" stroke="black" stroke-width="2" fill="none" />
<path d="M332.5,215.5,334.5,209.5,338.0,201.0" stroke="black" stroke-width="2" fill="none" />
<path d="M333.0,195.0,340.5,187.0,349.0,179.0" stroke="black" stroke-width="2" fill="none" />
<path d="M346.5,179.5,338.5,179.5,330.5,179.5" stroke="black" stroke-width="2" fill="none" />
<path d="M333.5,189.0,341.5,189.0,349.0,189.0" stroke="black" stroke-width="2" fill="none" />
<path d="M342.0,193.5,334.0,201.0,325.5,208.5" stroke="black" stroke-width="2" fill="none" />
<path d="M322.5,208.0,330.5,207.5" stroke="black" stroke-width="2" fill="none" />
<path d="M331.0,216.0,323.5,216.0" stroke="black" stroke-width="2" fill="none" />
<path d="M321.0,207.0,328.5,195.5,336.0,180.5,344.0,168.5,352.0,154.0,353.0,162.0,349.0,175.0,344.0,182.5,340.5,190.0,336.5,197.5,327.5,202.5,341.5,197.5,343.5,191.5,351.0,181.5,359.0,168.0,366.5,157.0" stroke="black" stroke-width="2" fill="none" />
<path d="M363.5,157.0,355.5,163.5,347.5,170.5" stroke="black" stroke-width="2" fill="none" />
<path d="M347.0,166.5,355.5,166.0,364.0,165.0" stroke="black" stroke-width="2" fill="none" />
<path d="M362.5,161.0,354.5,162.0" stroke="black" stroke-width="2" fill="none" />
<path d="M354.0,156.5,353.0,171.5,360.0,163.0" stroke="black" stroke-width="2" fill="none" />
<path d="M355.0,153.0,362.5,145.5,370.5,137.5,378.0,129.0,386.0,121.5" stroke="black" stroke-width="2" fill="none" />
<path d="M391.0,125.0,393.0,121.0,390.5,128.5,386.5,130.5,384.5,135.5,377.0,142.5,384.0,136.0,392.0,135.0,406.0,139.0" stroke="black" stroke-width="2" fill="none" />
<path d="M403.5,131.0,396.0,138.5" stroke="black" stroke-width="2" fill="none" />
<path d="M397.0,139.0,404.5,138.0" stroke="black" stroke-width="2" fill="none" />
<path d="M412.5,140.0,404.0,140.5,396.0,140.5" stroke="black" stroke-width="2" fill="none" />
<path d="M388.0,137.0,396.0,129.0" stroke="black" stroke-width="2" fill="none" />
<path d="M399.5,130.5,391.5,127.5" stroke="black" stroke-width="2" fill="none" />
<path d="M386.5,129.0,379.0,137.0" stroke="black" stroke-width="2" fill="none" />
<path d="M381.0,135.0,389.0,131.0,402.5,134.5,406.5,142.0" stroke="black" stroke-width="2" fill="none" />
<path d="M397.0,111.0,389.0,111.5" stroke="black" stroke-width="2" fill="none" />
<path d="M388.0,112.0,379.5,123.0,368.5,136.5,368.5,140.0,367.5,141.0,369.5,133.0" stroke="black" stroke-width="2" fill="none" />
<path d="M370.5,131.5,362.5,138.5,355.0,146.0" stroke="black" stroke-width="2" fill="none" />
<path d="M354.5,150.0,363.0,149.5,371.5,148.5" stroke="black" stroke-width="2" fill="none" />
<path d="M364.0,132.0,355.5,139.5" stroke="black" stroke-width="2" fill="none" />
<path d="M349.0,138.5,357.0,131.0" stroke="black" stroke-width="2" fill="none" />
<path d="M361.5,124.0,369.5,123.5,377.5,123.0,385.5,122.5,393.5,122.0" stroke="black" stroke-width="2" fill="none" />
<path d="M396.0,115.5,388.0,116.0,379.5,116.5" stroke="black" stroke-width="2" fill="none" />
<path d="M380.5,117.0,375.5,125.0,377.0,122.0,385.0,111.5" stroke="black" stroke-width="2" fill="none" />
<path d="M389.5,109.5,383.5,117.5,378.5,125.0,373.5,129.0,375.0,139.0,368.0,147.0,363.5,155.0,354.0,163.5,346.5,166.5,343.5,174.5,338.5,178.5,335.5,186.5,343.0,184.0,351.0,170.0,359.0,157.0,363.0,152.5,371.0,143.5,375.0,145.5,383.0,141.5,390.5,142.5,398.5,144.5" stroke="black" stroke-width="2" fill="none" />
<path d="M348.0,133.5,340.0,141.0" stroke="black" stroke-width="2" fill="none" />
<path d="M334.0,139.5,334.0,137.5" stroke="black" stroke-width="2" fill="none" />
<path d="M332.5,136.5,324.5,137.0,317.0,138.0,308.5,139.0" stroke="black" stroke-width="2" fill="none" />
<path d="M308.5,141.0,301.0,141.5,293.0,141.5,285.0,142.5,277.5,143.0,269.5,143.0,261.0,143.5,253.0,144.0,245.0,145.5,237.5,146.5,229.5,147.5,221.5,148.5,213.5,149.0,205.5,150.0,197.0,150.5,188.5,150.5,180.5,151.5" stroke="black" stroke-width="2" fill="none" />
<path d="M179.0,154.5,187.0,147.0" stroke="black" stroke-width="2" fill="none" />
<path d="M187.0,140.5,178.5,148.5" stroke="black" stroke-width="2" fill="none" />
<path d="M178.0,148.0,185.0,148.5,188.0,156.5" stroke="black" stroke-width="2" fill="none" />
<path d="M193.5,155.5,186.0,163.0" stroke="black" stroke-width="2" fill="none" />
<path d="M179.0,166.0,186.5,165.5,194.5,164.5,202.0,164.5,210.0,164.5,218.0,164.5,226.0,164.0,235.0,163.5,243.5,163.0,251.5,163.5,259.5,163.0,267.5,162.5,275.5,161.5,283.5,160.5,291.5,160.0,299.5,159.0,307.5,158.0,315.5,157.5" stroke="black" stroke-width="2" fill="none" />
<path d="M307.0,164.0,299.5,171.0,291.5,178.5" stroke="black" stroke-width="2" fill="none" />
<path d="M292.0,185.0,299.5,177.0,307.0,169.5" stroke="black" stroke-width="2" fill="none" />
<path d="M315.5,172.0,307.5,179.5,299.0,187.0,290.5,195.0,282.0,203.0,273.5,210.5,265.5,218.0" stroke="black" stroke-width="2" fill="none" />
<path d="M268.0,211.0,260.5,218.5,253.0,226.5,245.0,234.5" stroke="black" stroke-width="2" fill="none" />
<path d="M237.0,232.5,244.5,224.5,252.0,217.0,260.0,209.0" stroke="black" stroke-width="2" fill="none" />
<path d="M250.5,214.5,242.5,215.5" stroke="black" stroke-width="2" fill="none" />
<path d="M238.5,220.5,241.5,226.5,245.0,237.5" stroke="black" stroke-width="2" fill="none" />
<path d="M244.5,243.0,236.0,251.0,228.0,258.5,219.5,266.5" stroke="black" stroke-width="2" fill="none" />
<path d="M212.0,267.0,220.0,266.0,228.0,265.5,236.0,264.5,244.0,264.0,252.0,263.0,260.0,262.5,268.0,261.5,276.0,261.0,284.0,260.5,292.0,260.0" stroke="black" stroke-width="2" fill="none" />
<path d="M324.0,262.5,316.0,263.0,307.5,263.5,299.0,263.0,290.5,263.0,282.5,263.5,274.5,264.0,266.5,264.0,259.0,265.0,251.0,265.5,243.0,266.0,234.5,266.5,227.0,267.0,219.0,268.5,211.5,269.5,204.0,270.0,196.0,271.5" stroke="black" stroke-width="2" fill="none" />
<path d="M201.5,266.0,209.5,258.0,218.0,251.0,226.0,243.5" stroke="black" stroke-width="2" fill="none" />
<path d="M234.5,243.0,226.5,251.0,219.0,258.5,211.5,266.0" stroke="black" stroke-width="2" fill="none" />
<path d="M206.5,271.0,219.5,279.0" stroke="black" stroke-width="2" fill="none" />
<path d="M229.0,265.0,236.5,257.5,244.5,250.0,252.5,243.0" stroke="black" stroke-width="2" fill="none" />
<path d="M250.5,224.5,242.5,224.5" stroke="black" stroke-width="2" fill="none" />
<path d="M227.0,221.0,235.5,213.5,244.0,206.0,252.5,199.5,260.5,192.5,268.5,185.5,276.5,178.0,284.5,171.0,293.0,164.0,301.0,156.0,309.0,148.5" stroke="black" stroke-width="2" fill="none" />
<path d="M310.0,147.0,312.0,154.5,312.0,162.5,308.0,170.5,315.5,174.0,312.5,182.0,308.5,190.5,302.5,194.0,298.5,206.0,306.0,216.0,301.5,221.0,299.0,226.0,298.5,234.0,300.5,240.0,308.5,237.0,311.5,229.0" stroke="black" stroke-width="2" fill="none" />
<path d="M317.5,226.5,325.5,226.0,333.5,225.5" stroke="black" stroke-width="2" fill="none" />
<path d="M330.5,234.0,322.0,235.0,313.0,235.5,305.0,236.0,297.0,236.5,289.0,237.0,281.5,238.0,274.5,238.5,267.0,239.0,259.5,239.0,252.0,239.0,244.5,239.5,237.0,240.0,229.5,240.0,221.5,241.0,213.0,241.5,205.0,242.0,197.0,241.5,189.0,242.0,181.0,242.5,172.5,243.0,164.5,244.0,156.0,244.5,148.0,245.5" stroke="black" stroke-width="2" fill="none" />
<path d="M140.0,238.5,148.0,238.5,157.0,238.5,165.0,238.0,172.5,237.5,181.0,237.0,188.5,236.5,196.5,236.0,204.5,235.5,212.5,235.0,220.0,234.5,228.0,233.0,235.5,232.5,243.0,231.5,251.0,230.0,258.5,229.5,267.0,229.0" stroke="black" stroke-width="2" fill="none" />
<path d="M284.0,209.5,292.5,202.0,300.5,194.5,308.5,187.0,316.0,179.5" stroke="black" stroke-width="2" fill="none" />
<path d="M314.5,181.0,307.0,182.0,299.5,183.0,291.5,184.0,283.5,184.5,276.0,185.5,268.0,186.5,260.0,187.0,252.0,187.0,244.0,187.5,236.0,188.0,227.5,188.5,219.5,188.5,211.0,188.5,203.0,188.5,194.5,188.5,186.5,188.5,179.0,189.0" stroke="black" stroke-width="2" fill="none" />
<path d="M180.5,191.0,176.5,199.0,177.0,202.5,174.0,210.0,169.0,218.0,170.0,215.5,175.0,200.5,183.5,192.5,195.5,187.5,203.0,188.0,209.0,189.0,215.5,184.5,220.5,182.5,221.5,185.5,229.5,188.5,232.0,184.5,237.0,192.0" stroke="black" stroke-width="2" fill="none" />
<path d="M236.0,196.0,244.0,195.5,252.0,194.5,259.5,193.5" stroke="black" stroke-width="2" fill="none" />
<path d="M268.0,192.0,276.0,192.0" stroke="black" stroke-width="2" fill="none" />
<path d="M274.5,193.0,282.5,185.5" stroke="black" stroke-width="2" fill="none" />
<path d="M283.0,179.5,275.0,187.0,267.0,194.5,259.0,201.5,251.5,208.0,243.5,215.5,235.5,223.5" stroke="black" stroke-width="2" fill="none" />
<path d="M225.5,214.5,233.5,207.0,241.5,199.5,249.5,192.0,258.5,184.5,267.0,176.5,275.5,168.5,283.5,160.0,292.0,152.5,300.5,145.0,309.0,137.5,317.5,129.5,325.5,122.0" stroke="black" stroke-width="2" fill="none" />
<path d="M325.5,127.5,334.0,128.5,342.5,129.5,350.5,129.0,358.5,129.0,367.0,126.5,375.0,118.5,383.0,107.5,391.0,106.5,390.0,105.5,383.5,107.5,377.0,115.5,371.0,124.0,369.0,130.5,364.5,138.5,360.0,139.0,356.0,149.0,351.0,157.5,346.0,166.0,341.0,174.0,336.0,182.0,331.0,190.0,327.5,198.0,320.5,206.0,320.5,213.5,312.0,220.0,311.0,229.0,308.0,235.5,297.0,244.5,299.0,249.5,305.0,251.0,309.5,260.0,318.5,255.0" stroke="black" stroke-width="2" fill="none" />
<path d="M321.0,250.5,313.0,247.5,298.0,241.5,290.0,244.0,282.0,243.5,274.0,243.5,267.0,241.0,263.5,236.0,261.0,230.0,252.0,223.5,250.0,229.5,249.0,233.5,241.0,235.5,233.0,232.5,233.0,230.0,230.0,222.0,231.0,215.0,232.0,207.0,225.5,200.0,220.5,199.5,214.0,196.5,213.0,187.5,209.0,198.5,210.0,191.0,218.5,186.0,216.0,181.0,214.0,177.0,204.0,173.0,202.0,172.0,217.0,172.5,211.0,171.0,203.0,168.0" stroke="black" stroke-width="2" fill="none" />
<path d="M203.5,172.0,196.0,180.0,188.5,187.5,180.5,195.0" stroke="black" stroke-width="2" fill="none" />
<path d="M185.5,193.0,194.0,192.5" stroke="black" stroke-width="2" fill="none" />
<path d="M195.0,191.5,203.5,194.0,208.5,200.0,218.5,202.5" stroke="black" stroke-width="2" fill="none" />
<path d="M218.5,206.0,227.0,199.0,235.0,191.5,243.0,184.0,251.0,176.5,259.0,169.0,266.5,162.0,274.5,154.5,282.5,147.0,291.5,140.0,300.0,132.5,307.5,125.0,316.0,117.0" stroke="black" stroke-width="2" fill="none" />
<path d="M316.0,109.0,308.0,116.5,300.0,124.5,292.0,131.5,284.0,139.0,276.5,146.0,268.5,153.5,260.5,161.0,252.0,168.0,244.0,175.5,236.0,183.0,228.5,191.0,220.0,198.5,212.0,206.0" stroke="black" stroke-width="2" fill="none" />
<path d="M213.5,207.5,221.5,206.5,229.5,206.0,237.5,205.0,245.0,204.0,252.5,203.5,260.5,202.0,268.0,201.5,276.0,200.5,283.5,199.5,292.0,199.0,300.0,199.0,308.0,198.5,316.0,198.5" stroke="black" stroke-width="2" fill="none" />
<path d="M316.0,196.5,308.5,204.0,300.5,211.5" stroke="black" stroke-width="2" fill="none" />
<path d="M307.5,211.0,315.5,203.5" stroke="black" stroke-width="2" fill="none" />
<path d="M321.5,206.0,330.0,205.0,338.0,205.0" stroke="black" stroke-width="2" fill="none" />
<path d="M338.5,196.5,331.0,197.0,323.5,197.5" stroke="black" stroke-width="2" fill="none" />
<path d="M316.5,188.5,308.5,189.0,300.5,189.5,292.5,189.5,284.5,190.5,277.0,191.0,269.5,192.0,261.5,193.0,253.5,193.5,245.5,194.0,237.0,193.5,228.5,194.0,220.5,195.0,212.0,195.5,204.0,196.0,195.5,196.0,187.5,196.5,180.0,197.5,171.5,198.0" stroke="black" stroke-width="2" fill="none" />
<path d="M173.5,200.0,166.5,208.0" stroke="black" stroke-width="2" fill="none" />
<path d="M170.5,204.0,178.5,203.5,187.0,203.5,195.0,203.0,202.5,202.5" stroke="black" stroke-width="2" fill="none" />
<path d="M197.5,197.5,189.0,205.0,181.0,211.5,172.5,218.5" stroke="black" stroke-width="2" fill="none" />
<path d="M171.0,213.0,179.0,212.0,186.0,212.0,193.5,212.0,201.0,212.0" stroke="black" stroke-width="2" fill="none" />
<path d="M196.0,205.5,188.0,213.0,179.5,220.0" stroke="black" stroke-width="2" fill="none" />
<path d="M181.0,214.5,176.5,222.0,173.0,225.5,181.5,214.5" stroke="black" stroke-width="2" fill="none" />
<path d="M182.0,213.5,178.0,221.5,185.0,213.0" stroke="black" stroke-width="2" fill="none" />
<path d="M187.0,214.5,184.5,214.5,180.5,222.0,182.0,227.5,187.0,236.0,198.0,245.0,204.5,244.0,214.5,247.0,223.0,251.0,228.0,250.5,232.0,257.5,240.0,257.5,248.0,258.5,256.0,258.0,264.0,257.0,272.0,256.5,280.0,254.5,288.0,253.5" stroke="black" stroke-width="2" fill="none" />
<path d="M300.0,228.5,300.0,226.0,292.5,218.0" stroke="black" stroke-width="2" fill="none" />
<path d="M291.0,211.0,298.5,203.0,306.0,195.5" stroke="black" stroke-width="2" fill="none" />
<path d="M311.0,190.5,312.0,198.5,312.5,206.0,305.5,214.0" stroke="black" stroke-width="2" fill="none" />
<path d="M305.5,220.0,313.5,212.5" stroke="black" stroke-width="2" fill="none" />
<path d="M300.5,209.0,292.0,209.0" stroke="black" stroke-width="2" fill="none" />
<path d="M293.0,214.0,285.5,215.0,277.5,216.0,269.5,216.5,261.0,217.0,253.0,218.0,245.0,218.0,236.5,219.0,228.0,219.0,219.5,219.0,211.0,219.5,202.5,220.0,195.0,220.5,187.0,221.0,179.0,221.5,171.0,221.5,163.0,221.5" stroke="black" stroke-width="2" fill="none" />
<path d="M178.0,211.0,186.0,210.0,194.5,209.5" stroke="black" stroke-width="2" fill="none" />
<path d="M194.5,201.0,186.0,201.0,177.5,201.0" stroke="black" stroke-width="2" fill="none" />
<path d="M180.5,186.0,188.0,178.5,195.5,171.0,204.0,163.0" stroke="black" stroke-width="2" fill="none" />
<path d="M204.5,163.0,212.5,165.0,216.5,161.5,219.0,159.0,224.0,164.0" stroke="black" stroke-width="2" fill="none" />
<path d="M221.0,167.0,229.0,160.0,237.0,152.5,244.5,145.0,252.5,137.5,260.5,130.0,268.0,122.5,275.5,115.5,283.5,108.0" stroke="black" stroke-width="2" fill="none" />
<path d="M283.5,100.0,275.0,107.5,267.0,115.5,259.0,123.0,251.5,130.5,244.5,138.0,236.5,146.0" stroke="black" stroke-width="2" fill="none" />
<path d="M236.0,146.5,243.5,146.0,251.0,145.0,259.0,144.5,267.0,144.0,275.0,143.5,283.0,143.0" stroke="black" stroke-width="2" fill="none" />
<path d="M284.0,139.5,296.0,143.5,289.5,151.5,287.0,157.0,288.0,160.0,290.0,157.0,294.0,136.5,303.0,138.5" stroke="black" stroke-width="2" fill="none" />
<path d="M303.5,138.5,304.0,146.5,298.0,148.5,293.5,154.0,295.5,158.0,293.5,166.0,300.0,166.0,295.0,173.0,293.0,174.0,291.0,183.0,281.5,189.0,285.5,194.0,284.5,199.5,289.5,201.0,283.5,203.5,286.5,210.0,287.5,214.0,285.0,222.0,284.5,230.0" stroke="black" stroke-width="2" fill="none" />
<path d="M279.5,201.0,287.5,200.5" stroke="black" stroke-width="2" fill="none" />
<path d="M284.0,191.0,279.5,194.5,271.0,199.5,263.0,195.5,260.0,203.5,251.5,209.0,243.5,208.0" stroke="black" stroke-width="2" fill="none" />
<path d="M243.0,202.0,235.0,203.0" stroke="black" stroke-width="2" fill="none" />
<path d="M243.0,201.5,235.5,209.5,226.0,214.5,221.5,217.0,225.5,218.5,232.5,219.5,240.5,213.5,248.5,216.0,252.5,212.0,260.5,211.5,269.0,212.5,282.0,212.5,287.0,202.5" stroke="black" stroke-width="2" fill="none" />
<path d="M278.0,196.5,277.5,204.5,276.0,212.0,265.0,219.0,257.5,222.5,255.5,230.5,251.5,240.5,250.0,247.0,252.0,243.0,253.5,245.0,261.5,247.0,269.5,247.0,277.5,246.5" stroke="black" stroke-width="2" fill="none" />
<path d="M242.0,262.0,247.0,270.0,243.5,275.5,234.5,277.5,239.0,285.0,246.0,284.0,254.0,283.0,262.0,284.0,269.0,281.0,277.0,282.0,285.0,282.0,293.0,283.0,300.5,281.0" stroke="black" stroke-width="2" fill="none" />
<path d="M307.5,255.0,311.5,243.5,319.0,235.5" stroke="black" stroke-width="2" fill="none" />
<path d="M315.5,173.5,307.5,174.5,299.5,175.0,292.5,176.0,285.0,177.0,277.0,177.5,269.5,178.5,261.5,178.5,253.5,179.5,245.5,180.0,237.0,180.0,228.5,180.0,220.0,179.5,211.5,180.0,203.0,180.0,194.5,180.5,186.5,180.5,178.0,180.5" stroke="black" stroke-width="2" fill="none" />
<path d="M179.0,173.5,187.0,173.0,194.5,172.0,202.5,171.5,211.0,171.5,219.0,171.5,227.0,171.5,235.5,171.5,243.5,171.5,252.5,171.0,261.0,170.5,268.5,170.0,276.5,169.0,284.0,168.0,291.5,167.0,299.0,167.0,307.0,166.0,315.5,165.5" stroke="black" stroke-width="2" fill="none" />
<path d="M315.5,149.0,307.0,150.0,299.0,150.5,291.0,151.0,283.0,151.5,275.0,152.0,267.5,153.0,260.0,153.5,252.0,153.5,244.0,153.5,236.5,154.0,228.5,154.5,220.5,154.5,212.5,155.5,204.0,156.0,195.5,156.0,187.5,156.0,179.0,156.5" stroke="black" stroke-width="2" fill="none" />
<path d="M177.5,163.0,180.0,157.0,177.0,149.0" stroke="black" stroke-width="2" fill="none" />
<path d="M173.0,142.0,181.0,141.5,188.5,140.5" stroke="black" stroke-width="2" fill="none" />
<path d="M187.5,132.0,179.5,139.5" stroke="black" stroke-width="2" fill="none" />
<path d="M179.0,133.5,171.0,140.5" stroke="black" stroke-width="2" fill="none" />
<path d="M172.0,135.0,180.0,134.5,188.5,133.0" stroke="black" stroke-width="2" fill="none" />
<path d="M180.0,124.0,172.5,131.5" stroke="black" stroke-width="2" fill="none" />
<path d="M173.0,124.5,181.0,117.0" stroke="black" stroke-width="2" fill="none" />
<path d="M173.5,116.5,165.0,124.0" stroke="black" stroke-width="2" fill="none" />
<path d="M167.0,125.0,175.0,135.0" stroke="black" stroke-width="2" fill="none" />
<path d="M170.5,122.0,179.0,121.5" stroke="black" stroke-width="2" fill="none" />
<path d="M193.0,118.5,201.0,118.0,209.0,116.5,217.0,115.5,225.5,113.5,234.0,113.0,241.5,112.0,250.0,111.5,258.0,111.0,266.5,110.5,274.5,110.5,282.5,109.5,290.5,109.0,298.5,108.0,306.0,107.5,313.5,107.0,322.0,106.5" stroke="black" stroke-width="2" fill="none" />
<path d="M309.0,109.0,301.0,116.5,292.0,124.0" stroke="black" stroke-width="2" fill="none" />
<path d="M297.0,121.5,305.5,121.0,313.5,121.0" stroke="black" stroke-width="2" fill="none" />
<path d="M306.0,130.0,314.0,130.0,322.5,129.5" stroke="black" stroke-width="2" fill="none" />
<path d="M324.5,131.5,316.5,139.0" stroke="black" stroke-width="2" fill="none" />
<path d="M316.0,134.0,307.5,135.0,299.0,136.0,291.5,136.5,283.5,137.5,275.5,138.0,267.5,138.5,259.5,139.0,251.5,139.5,244.0,140.5,236.0,140.5,228.5,141.5,220.5,142.0,212.5,142.5,204.5,143.0" stroke="black" stroke-width="2" fill="none" />
<path d="M206.5,140.5,218.0,137.5,214.0,145.5,210.5,153.5,204.5,155.5,216.5,158.5,216.5,166.5,225.0,169.0,224.5,174.0,228.5,180.5,221.5,187.0,226.5,192.5,217.5,197.5,211.5,211.0,207.5,211.0,209.5,224.0,219.5,225.0,224.5,210.0,232.0,209.0,240.5,203.0,244.5,206.0,252.5,201.5,261.5,186.5,269.5,179.5,269.0,175.5,277.0,170.5,285.0,167.5,285.5,171.0,289.5,176.5,299.0,169.0,301.0,171.5" stroke="black" stroke-width="2" fill="none" />
<path d="M300.5,163.5,292.5,165.5" stroke="black" stroke-width="2" fill="none" />
<path d="M279.5,176.5,278.5,184.5,286.0,189.5,289.5,190.5,299.0,188.5" stroke="black" stroke-width="2" fill="none" />
<path d="M275.5,185.5,267.5,186.5" stroke="black" stroke-width="2" fill="none" />
<path d="M259.5,176.0,251.0,176.5,242.5,177.0" stroke="black" stroke-width="2" fill="none" />
<path d="M237.0,171.5,244.5,171.0,252.5,170.0,260.0,169.0" stroke="black" stroke-width="2" fill="none" />
<path d="M259.5,161.5,251.5,162.5,243.5,163.5,235.5,164.0" stroke="black" stroke-width="2" fill="none" />
<path d="M243.0,152.0,251.0,152.0,259.0,151.5" stroke="black" stroke-width="2" fill="none" />
<path d="M252.5,163.0,260.5,166.0,264.5,154.0,265.5,160.0,267.5,163.5,275.0,160.5" stroke="black" stroke-width="2" fill="none" />
<path d="M274.5,172.0,267.5,180.0,262.5,188.0,256.0,196.5" stroke="black" stroke-width="2" fill="none" />
<path d="M253.0,186.5,245.5,187.5,237.5,187.5" stroke="black" stroke-width="2" fill="none" />
<path d="M228.5,184.0,236.0,176.5,244.0,169.5,252.5,162.5,260.5,154.5,269.0,147.0,277.5,140.0,285.5,132.5" stroke="black" stroke-width="2" fill="none" />
<path d="M275.5,131.5,267.0,139.0,259.0,146.0,251.0,153.5,243.5,161.0,235.0,169.0,227.0,176.5" stroke="black" stroke-width="2" fill="none" />
<path d="M219.0,178.0,227.5,170.5,236.0,162.5,244.0,154.5,252.0,146.5,260.0,139.0,268.0,131.0" stroke="black" stroke-width="2" fill="none" />
<path d="M268.0,128.0,259.5,129.0,251.5,129.5,243.5,130.0" stroke="black" stroke-width="2" fill="none" />
<path d="M253.5,133.0,261.5,133.0,270.0,133.5,278.0,132.5,286.5,131.5,295.0,130.5,303.0,127.5" stroke="black" stroke-width="2" fill="none" />
<path d="M300.5,124.0,292.5,126.0,284.5,126.5,276.0,127.5,268.5,128.0" stroke="black" stroke-width="2" fill="none" />
<path d="M268.5,134.5,260.5,135.5,253.0,136.0,245.5,137.0,237.5,138.0,229.5,138.5" stroke="black" stroke-width="2" fill="none" />
<path d="M229.5,145.0,237.0,137.0,245.0,129.0,252.5,121.5,260.5,113.0,268.0,105.0,275.5,97.0,283.5,89.0" stroke="black" stroke-width="2" fill="none" />
<path d="M277.0,90.5,268.5,98.0,260.0,106.0,252.0,113.5,243.5,121.5,235.0,129.0,227.0,136.5" stroke="black" stroke-width="2" fill="none" />
<path d="M220.5,136.0,229.0,128.0,237.0,120.0,245.0,113.0,253.0,106.0,260.5,99.0,268.5,91.5,276.5,84.5" stroke="black" stroke-width="2" fill="none" />
<path d="M275.5,84.5,267.0,85.0,259.0,85.0,251.0,85.0,243.5,85.0,235.5,85.5" stroke="black" stroke-width="2" fill="none" />
<path d="M244.5,83.5,253.0,76.0" stroke="black" stroke-width="2" fill="none" />
<path d="M250.5,81.0,258.5,80.5,266.5,80.0" stroke="black" stroke-width="2" fill="none" />
<path d="M266.5,82.0,275.0,86.0,283.0,92.5,291.0,97.5,298.5,99.5,307.0,103.5,315.0,113.5,323.0,117.5" stroke="black" stroke-width="2" fill="none" />
<path d="M332.5,132.5,324.5,139.5" stroke="black" stroke-width="2" fill="none" />
<path d="M323.0,142.0,331.5,141.5,339.5,140.5,347.5,140.0,354.5,139.5,362.5,139.0,370.5,138.5,379.0,138.0,387.0,138.0" stroke="black" stroke-width="2" fill="none" />
<path d="M371.5,158.0,363.5,158.5,356.5,159.5,349.0,160.0" stroke="black" stroke-width="2" fill="none" />
<path d="M356.5,173.0,348.5,173.5,340.0,174.0" stroke="black" stroke-width="2" fill="none" />
<path d="M343.0,175.5,355.5,167.5" stroke="black" stroke-width="2" fill="none" />
<path d="M332.0,139.5,340.0,132.5" stroke="black" stroke-width="2" fill="none" />
<path d="M334.5,135.5,342.5,134.0,350.5,135.0,351.5,137.0" stroke="black" stroke-width="2" fill="none" />
<path d="M358.5,145.5,353.5,141.5,350.5,144.5,343.5,145.0,335.5,145.0,327.0,145.0,319.5,143.0,311.5,141.0,303.5,144.0,295.5,146.0,289.5,149.0,288.5,153.5,280.5,153.5,272.5,147.0" stroke="black" stroke-width="2" fill="none" />
<path d="M277.0,124.0,285.5,117.0,294.0,110.0" stroke="black" stroke-width="2" fill="none" />
<path d="M300.0,108.0,292.0,115.0,284.5,122.0" stroke="black" stroke-width="2" fill="none" />
<path d="M287.5,113.5,284.0,111.0,276.0,111.5" stroke="black" stroke-width="2" fill="none" />
<path d="M274.5,96.0,266.0,97.0,257.0,97.5,249.0,98.0" stroke="black" stroke-width="2" fill="none" />
<path d="M244.5,89.5,252.0,89.5,260.0,89.0,267.5,88.5" stroke="black" stroke-width="2" fill="none" />
<path d="M266.0,84.5,258.0,92.0,250.0,100.0,242.0,107.5,234.0,114.5,226.0,122.0" stroke="black" stroke-width="2" fill="none" />
<path d="M221.5,122.5,213.0,130.5,205.0,138.0" stroke="black" stroke-width="2" fill="none" />
<path d="M204.0,133.5,212.5,133.5,220.5,133.5,228.0,133.5,236.0,132.5,244.0,132.0,251.5,132.0,259.0,131.5,267.0,131.0,275.0,130.5,282.5,130.0,290.5,129.5,299.0,128.5,307.5,128.0,315.0,127.0,323.0,126.5,331.5,125.5,340.0,124.5,348.5,124.0,357.0,123.5,365.5,123.0,373.0,122.5,381.0,121.5,388.5,120.5,396.5,119.5,404.5,118.5" stroke="black" stroke-width="2" fill="none" />
<path d="M315.5,101.0,308.0,101.5,300.0,102.0,291.5,103.0,283.0,103.5,274.5,104.0,266.5,104.5,258.5,105.0,250.5,105.0,242.5,105.5,234.5,106.0,226.5,107.0,218.5,107.0,210.0,107.5,201.5,107.5,193.5,108.5" stroke="black" stroke-width="2" fill="none" />
<path d="M198.5,108.0,206.5,101.0,214.5,97.5,222.5,95.5,230.5,89.5,238.5,83.0,239.5,86.0,231.5,94.0,225.5,103.0,216.5,111.0" stroke="black" stroke-width="2" fill="none" />
<path d="M213.0,108.0,204.5,115.0" stroke="black" stroke-width="2" fill="none" />
<path d="M203.5,110.0,211.5,112.5,215.0,105.5,223.0,101.0,225.5,103.5" stroke="black" stroke-width="2" fill="none" />
<path d="M220.0,106.5,212.0,114.0,204.0,121.5" stroke="black" stroke-width="2" fill="none" />
<path d="M205.0,122.5,213.0,122.0" stroke="black" stroke-width="2" fill="none" />
<path d="M212.0,128.0,220.0,130.0,227.5,131.0" stroke="black" stroke-width="2" fill="none" />
<path d="M221.0,130.5,212.5,138.0,204.5,146.5" stroke="black" stroke-width="2" fill="none" />
<path d="M205.0,149.5,206.0,143.0,207.5,136.0,215.5,133.0,223.5,136.5,226.5,137.5,224.5,140.0,225.5,150.0,233.5,152.0,233.0,156.5" stroke="black" stroke-width="2" fill="none" />
<path d="M250.0,161.5,261.0,158.5,265.0,166.0,263.0,173.5,272.0,174.5,283.0,175.5,284.0,178.5,288.0,183.0,290.0,183.5,298.5,178.5,302.5,186.5,304.5,190.5,313.5,183.5,317.5,186.5,316.0,194.5,315.5,202.5,316.0,210.5,316.0,218.5,315.0,232.0" stroke="black" stroke-width="2" fill="none" />
<path d="M227.5,255.0,219.5,255.5,211.0,256.0,202.5,256.5,194.5,256.5" stroke="black" stroke-width="2" fill="none" />
<path d="M196.0,265.5,204.0,257.5,212.0,250.0" stroke="black" stroke-width="2" fill="none" />
<path d="M212.5,243.0,205.5,250.5,197.5,258.0" stroke="black" stroke-width="2" fill="none" />
<path d="M195.5,252.0,203.5,244.5" stroke="black" stroke-width="2" fill="none" />
<path d="M213.0,239.5,221.0,236.5,229.0,228.5" stroke="black" stroke-width="2" fill="none" />
<path d="M237.5,245.0,229.5,244.5,222.0,243.5,214.0,240.0" stroke="black" stroke-width="2" fill="none" />
<path d="M196.0,228.0,188.5,235.5" stroke="black" stroke-width="2" fill="none" />
<path d="M187.5,236.0,195.5,240.5,203.5,241.0,213.5,238.0,221.5,234.0" stroke="black" stroke-width="2" fill="none" />
<path d="M210.5,224.0,202.5,225.0,195.0,225.5,188.0,226.0,181.0,227.0,173.5,227.5,165.5,228.0,158.0,228.5,150.0,229.5,141.5,230.0" stroke="black" stroke-width="2" fill="none" />
<path d="M141.0,220.5,149.0,220.0,157.0,220.0" stroke="black" stroke-width="2" fill="none" />
<path d="M180.5,203.5,188.5,196.0,196.5,188.5" stroke="black" stroke-width="2" fill="none" />
<path d="M195.5,186.0,188.0,186.0" stroke="black" stroke-width="2" fill="none" />
<path d="M188.0,180.5,196.0,179.5" stroke="black" stroke-width="2" fill="none" />
<path d="M202.0,175.5,210.0,179.5,203.0,181.5,204.0,191.0,201.5,199.0,201.5,207.5,199.5,209.5,199.5,217.5,190.5,229.5,200.0,230.5,204.0,238.5,213.0,246.5,222.5,249.0,227.5,248.0" stroke="black" stroke-width="2" fill="none" />
<path d="M226.0,236.0,225.0,232.0,223.0,224.5,216.5,226.0,220.5,218.0,218.0,208.5,222.0,204.5,228.0,195.5,219.5,193.0,212.0,190.5" stroke="black" stroke-width="2" fill="none" />
<path d="M212.5,181.5,220.0,180.5,228.5,173.5,228.5,175.5" stroke="black" stroke-width="2" fill="none" />
<path d="M227.5,181.5,221.5,166.5,213.5,173.0" stroke="black" stroke-width="2" fill="none" />
<path d="M208.5,160.5,216.5,149.5,226.0,149.5,234.0,152.0" stroke="black" stroke-width="2" fill="none" />
<path d="M219.5,145.0,217.5,134.0" stroke="black" stroke-width="2" fill="none" />
<path d="M213.0,133.5,212.0,131.5,204.0,139.5,204.0,148.0,202.5,156.0,200.5,164.0,199.5,172.5,196.5,180.5,199.5,183.5,201.5,188.5,195.5,193.5,196.5,201.5,197.0,209.5,197.0,217.5,205.0,219.5,206.0,225.0,206.0,231.0,214.0,238.5,211.5,247.5,210.5,249.0,217.5,250.5,225.5,252.5,233.5,251.5,241.5,252.5,249.5,254.0,257.0,253.5,265.5,251.0,273.5,251.0,281.5,250.0,289.5,249.0,297.5,245.0,307.5,248.0,315.5,242.0,316.0,236.0,325.0,241.0,333.5,241.0" stroke="black" stroke-width="2" fill="none" />
<path d="M341.0,252.0,332.5,253.0,325.0,254.0,316.5,254.5,308.0,254.5,300.0,254.5,292.0,254.5,284.0,255.0,276.0,255.0,268.5,255.0,261.0,255.5,252.5,255.5,244.5,256.5,236.5,257.0,228.0,257.0,219.5,257.5,211.5,257.5,203.5,258.5,195.0,259.0,187.5,259.5,180.0,260.0,172.0,261.0" stroke="black" stroke-width="2" fill="none" />
<path d="M162.5,253.0,170.5,252.5,179.0,252.5,187.5,252.5,195.5,252.5,204.0,252.5,212.5,252.0,220.0,251.5,228.0,251.0,236.0,250.5,244.0,250.0,252.0,249.0,260.0,248.5,268.0,247.5,276.0,247.0,284.0,246.0,292.0,245.5,300.0,244.5,308.0,244.0,316.0,243.5,324.0,243.0,332.5,243.0,340.5,242.0" stroke="black" stroke-width="2" fill="none" />
<path d="M335.5,241.0,336.5,240.5,327.0,235.5,333.0,234.0,331.5,226.5,332.0,218.5,336.0,211.0,330.0,208.0,338.0,204.5,343.0,196.5,347.0,188.5,345.5,186.0,352.5,178.0,357.5,170.0,364.0,162.0,369.0,154.0,376.5,145.5,375.0,137.5,379.0,131.5,386.0,123.5,393.0,115.5,391.0,111.5,383.0,127.5,375.5,135.0,369.0,130.0,361.0,139.0,359.0,131.5,351.0,131.5,342.5,131.5,330.5,137.5,326.5,136.5,322.5,126.5,325.5,118.5,312.5,111.0,303.5,106.0,295.5,111.5,292.5,104.0,284.5,104.0,286.5,95.5,278.5,88.5,270.5,86.5,271.0,75.5,272.0,67.5,267.5,78.0,261.0,72.0,273.0,68.5,264.5,69.5,256.5,74.5,248.5,73.0,240.5,74.0" stroke="black" stroke-width="2" fill="none" />
<path d="M243.0,76.5,251.5,76.0,259.5,76.0,267.5,75.5,276.0,75.5" stroke="black" stroke-width="2" fill="none" />
<path d="M273.0,89.5,280.0,96.5,287.0,106.0,295.0,106.0" stroke="black" stroke-width="2" fill="none" />
<path d="M301.5,104.5,295.5,98.0,285.5,99.0" stroke="black" stroke-width="2" fill="none" />
<path d="M269.0,118.5,261.0,119.5,253.5,120.0,245.5,120.0,237.0,120.5" stroke="black" stroke-width="2" fill="none" />
<path d="M246.5,111.5,254.5,106.5" stroke="black" stroke-width="2" fill="none" />
<path d="M261.5,120.5,269.0,120.5,276.5,120.5,284.5,119.5,292.0,118.0" stroke="black" stroke-width="2" fill="none" />
<path d="M292.0,121.0,284.5,122.0,276.5,122.5,269.0,122.5,261.0,122.5" stroke="black" stroke-width="2" fill="none" />
<path d="M255.0,130.5,263.0,131.0,271.0,129.0,279.0,128.5,286.5,127.5" stroke="black" stroke-width="2" fill="none" />
<path d="M298.5,134.0,295.5,134.0,296.5,141.5,283.0,147.5,276.0,155.5,272.0,161.5,273.0,170.5,266.0,179.0,262.0,182.0,262.0,192.0,258.0,199.0,254.0,207.0,254.0,213.0,252.5,223.0,246.0,231.5,243.0,245.5,244.5,246.0,252.0,239.5,259.5,237.5,264.5,239.5,266.5,233.5,269.5,230.5,278.0,221.5,279.5,217.0,284.0,225.5,292.5,215.0,300.5,216.0,309.5,217.5,309.5,217.5,311.0,224.0,306.0,228.0,304.0,230.0,301.5,233.5,303.5,243.5,303.5,251.5,309.0,259.5,314.0,260.0" stroke="black" stroke-width="2" fill="none" />
<path d="M271.0,215.5,265.0,218.0,255.5,211.5,258.5,221.5,250.0,217.5,249.0,210.0,241.0,209.5,236.0,208.5,228.0,205.5,216.5,210.5,227.5,208.0" stroke="black" stroke-width="2" fill="none" />
<path d="M220.5,196.0,212.0,203.5" stroke="black" stroke-width="2" fill="none" />
<path d="M198.0,220.0,206.0,224.5" stroke="black" stroke-width="2" fill="none" />
<path d="M215.5,228.0,207.5,230.0,200.0,225.0,191.5,227.0" stroke="black" stroke-width="2" fill="none" />
<path d="M188.0,173.0,196.0,172.0" stroke="black" stroke-width="2" fill="none" />
<path d="M195.0,164.0,187.0,171.5" stroke="black" stroke-width="2" fill="none" />
<path d="M208.0,148.5,219.0,148.5,217.5,156.0,220.5,162.0" stroke="black" stroke-width="2" fill="none" />
<path d="M226.0,150.5,222.0,159.5,223.0,155.0,220.0,147.0,222.5,144.5,217.5,139.5,209.5,143.5" stroke="black" stroke-width="2" fill="none" />
<path d="M206.0,123.5,209.0,121.5,217.5,121.5,225.0,123.5" stroke="black" stroke-width="2" fill="none" />
<path d="M227.5,127.0,219.5,125.5" stroke="black" stroke-width="2" fill="none" />
<path d="M218.5,118.0,226.5,119.5" stroke="black" stroke-width="2" fill="none" />
<path d="M236.5,104.5,245.0,104.5,252.5,104.0,260.0,104.0,268.0,104.0,276.0,103.5" stroke="black" stroke-width="2" fill="none" />
<path d="M241.5,95.5,233.5,96.0" stroke="black" stroke-width="2" fill="none" />
<path d="M227.5,92.0,236.0,92.0,244.0,91.5,252.0,91.0,260.0,91.0,267.5,90.0,275.5,90.0,282.5,89.5" stroke="black" stroke-width="2" fill="none" />
<path d="M306.5,95.0,298.0,96.0,289.0,96.5,281.0,97.0,273.0,97.5,265.0,98.0,257.5,99.0,250.5,99.5,243.0,100.0,235.5,100.0,228.0,100.0,220.5,100.5,213.0,101.0,205.5,101.0" stroke="black" stroke-width="2" fill="none" />
<path d="M207.0,102.5,215.0,102.5,200.0,105.5,197.0,113.0,198.0,121.0,200.0,128.5,200.0,136.5,199.0,144.5,197.0,152.0,196.0,160.0" stroke="black" stroke-width="2" fill="none" />
<path d="M187.0,125.5,178.5,126.0,170.0,126.5,162.0,127.0" stroke="black" stroke-width="2" fill="none" />
<path d="M163.5,117.5,171.5,116.5,179.5,115.5" stroke="black" stroke-width="2" fill="none" />
<path d="M173.5,107.0,165.0,114.5" stroke="black" stroke-width="2" fill="none" />
<path d="M165.0,112.0,173.0,111.5" stroke="black" stroke-width="2" fill="none" />
<path d="M181.5,107.5,173.0,108.0,164.5,108.0,156.5,108.5" stroke="black" stroke-width="2" fill="none" />
<path d="M156.0,106.5,164.5,99.0" stroke="black" stroke-width="2" fill="none" />
<path d="M162.5,105.5,169.5,109.5,171.0,111.0,169.0,119.0,169.0,129.0,171.0,139.5,178.0,144.5,191.0,151.5" stroke="black" stroke-width="2" fill="none" />
<path d="M200.0,110.0,208.5,113.5,216.5,115.5,224.5,116.5,232.5,118.5,240.0,118.5" stroke="black" stroke-width="2" fill="none" />
<path d="M241.0,128.0,241.0,126.5,235.0,121.5,228.5,118.5,213.0,118.5,207.0,112.5,208.0,109.0,213.5,104.0,218.5,101.5,228.5,89.5,241.0,82.0,241.0,74.5,246.0,79.5,246.0,74.5" stroke="black" stroke-width="2" fill="none" />
<path d="M244.5,91.0,234.5,89.5,226.5,93.5" stroke="black" stroke-width="2" fill="none" />
<path d="M173.5,99.0,165.5,99.0,157.5,99.5" stroke="black" stroke-width="2" fill="none" />
<path d="M148.0,101.0,156.0,101.0,164.5,102.0,172.5,104.0,174.5,110.0,177.5,118.0,182.0,125.5,182.5,133.5,180.5,142.0,172.5,148.5" stroke="black" stroke-width="2" fill="none" />
<path d="M178.0,116.5,171.5,111.0,163.5,109.0" stroke="black" stroke-width="2" fill="none" />
<path d="M167.0,110.5,161.0,113.0,153.0,108.5" stroke="black" stroke-width="2" fill="none" />
<path d="M150.0,106.5,150.0,106.5,156.5,114.5,160.5,122.5,165.0,131.0,172.5,134.0,175.5,144.0,177.5,151.5,177.5,159.0,179.0,163.5,181.0,171.0,179.0,179.5,176.5,187.5,172.5,196.0,167.0,204.0,171.5,208.0,166.0,216.5,169.5,224.5,165.5,206.5,173.5,194.5,176.5,188.5,181.5,170.5" stroke="black" stroke-width="2" fill="none" />
<path d="M192.5,159.0,190.5,150.5,187.0,142.5,184.0,134.5,183.0,138.5,175.0,143.0,168.5,137.0,168.5,123.5,160.5,123.0,158.5,113.5,155.5,116.0" stroke="black" stroke-width="2" fill="none" />
<path d="M311.0,139.5,308.0,147.5,308.5,155.5,305.5,162.5,299.5,172.5,302.0,181.5,296.0,184.0,293.0,195.0,304.5,196.5,310.5,204.5,297.5,209.0,299.5,203.5,306.5,203.0,307.5,197.0" stroke="black" stroke-width="2" fill="none" />
</svg>